<svg id="freelance" xmlns="http://www.w3.org/2000/svg" viewBox="0 0 2566.01 1978.83"><defs><style>.cls-1{fill:#eaf3fa;}.cls-2{fill:#d2e5fa;}.cls-3{fill:#9bb9dd;}.cls-4{fill:#192640;}.cls-5{fill:#101d30;}.cls-6{fill:#f2b3b9;}.cls-7{fill:#ffc7ca;}.cls-8{fill:#fff;}.cls-9{fill:#ff9356;}.cls-10{fill:#ffc793;}.cls-11{fill:#836ec3;}.cls-12{fill:#f2b583;}.cls-13{fill:#dd9b6b;}.cls-14{fill:#5e4c9f;}</style></defs><path class="cls-1" d="M650.1,1920.77h2389s267.8-814.1,118.86-868.46-301.67,197.26-301.67,197.26S3060,313.38,2782.46,386.73s-501,607.93-501,607.93,29.84-1154.4-363.14-854.27-370.84,928.45-370.84,928.45S1238.9,37.77,895.2,261.15,650.1,1920.77,650.1,1920.77Z" transform="translate(-637 -90.59)"/><path class="cls-2" d="M1775.32,367.33V1916.07h330.52V367.33Zm82.49,1210.17h-38.92V1440.58h38.92Zm0-982.32h-38.92V458.26h38.92Zm135.69,0h-38.91V458.26h38.91Z" transform="translate(-637 -90.59)"/><path class="cls-2" d="M801.52,759.9V1916.07h462.77V759.9Zm96.8,204H855.47V831.15h42.85Zm105.5,456.3H955.17V1188.45h48.65Z" transform="translate(-637 -90.59)"/><path class="cls-2" d="M2426.49,764.8V1921h435.08V764.8Zm344.08,71.26h40.29v132.7h-40.29Zm-99.18,357.29h45.73v231.72h-45.73Z" transform="translate(-637 -90.59)"/><polygon class="cls-3" points="520.04 1830.18 498.63 1830.18 484.07 1231.64 533.6 1231.64 520.04 1830.18"/><polygon class="cls-3" points="2033.85 1830.18 2012.44 1830.18 1997.88 1231.64 2047.41 1231.64 2033.85 1830.18"/><rect class="cls-3" x="218.25" y="1213.34" width="2083.65" height="21.59"/><polygon class="cls-1" points="2301.91 1213.29 218.47 1213.29 530.35 1065.8 1995.59 1065.8 2301.91 1213.29"/><rect class="cls-3" x="13.11" y="1830.18" width="2374.63" height="15.13" rx="7.22"/><path class="cls-4" d="M2462.42,1135.34h100.12c9.6,0,16.76,7.92,14.78,16.34l-19,80.81h-.13c0,.06,0,.12,0,.17,0,4.91-20.69,8.89-46.22,8.89s-46.23-4-46.23-8.89a1.11,1.11,0,0,1,0-.17h-.17l-18-81C2445.75,1143.15,2452.9,1135.34,2462.42,1135.34Z" transform="translate(-637 -90.59)"/><path class="cls-5" d="M2450.68,1140.85c0,5.53,27.59,10,61.63,10s61.62-4.48,61.62-10-27.59-10-61.62-10S2450.68,1135.32,2450.68,1140.85Z" transform="translate(-637 -90.59)"/><path class="cls-6" d="M2512.82,1142.79s85.43-29.61,115.54-90.09C2628.36,1052.7,2548.23,1033.23,2512.82,1142.79Z" transform="translate(-637 -90.59)"/><path class="cls-7" d="M2512.48,1139s23.62-107-33.71-156.05-81.69,12.17-81.69,12.17S2453.7,971.51,2512.48,1139Z" transform="translate(-637 -90.59)"/><path class="cls-8" d="M2512.48,1140.34a1.37,1.37,0,0,1-1.38-1.3,344.19,344.19,0,0,0-9.4-56.26c-7-27.61-20.74-64.43-45.87-83-15.66-11.6-34.16-15-55-10.05a1.39,1.39,0,0,1-.64-2.7c21.66-5.13,40.94-1.59,57.28,10.52,25.8,19.12,39.76,56.58,46.92,84.64a346.82,346.82,0,0,1,9.47,56.73,1.4,1.4,0,0,1-1.3,1.47Z" transform="translate(-637 -90.59)"/><path class="cls-7" d="M2513.6,1141s-18.94-80.7,22.78-117.74,59.45,9.19,59.45,9.19S2556.37,1014.7,2513.6,1141Z" transform="translate(-637 -90.59)"/><path class="cls-8" d="M2513.6,1142.42h-.07a1.4,1.4,0,0,1-1.32-1.45,269.89,269.89,0,0,1,6.44-43.38c7.32-31.19,18.77-52.78,34-64.17,11.67-8.71,25.45-11.19,41-7.38a1.39,1.39,0,1,1-.67,2.69c-14.67-3.6-27.68-1.28-38.64,6.91-35.22,26.29-39.33,104.67-39.37,105.46A1.38,1.38,0,0,1,2513.6,1142.42Z" transform="translate(-637 -90.59)"/><path class="cls-8" d="M2512.82,1144.17a1.38,1.38,0,0,1-1-2.3c.66-.76,67.26-75.33,116.15-90.49a1.38,1.38,0,1,1,.83,2.64c-48.17,14.94-114.25,88.94-114.91,89.69A1.38,1.38,0,0,1,2512.82,1144.17Z" transform="translate(-637 -90.59)"/><path class="cls-6" d="M2512.82,1142.79s-2.19-58.8-49.05-11.5-43.94,95.68-43.94,95.68-42.15-96.81,18.27-124S2521.69,1107.38,2512.82,1142.79Z" transform="translate(-637 -90.59)"/><path class="cls-8" d="M2418.16,1224.21a1.38,1.38,0,0,1-1.35-1.09,159.75,159.75,0,0,1-1.74-46.16c3.7-33.09,18.49-58,42.76-71.88,17.28-9.92,31-11.88,40.78-5.83,17.31,10.7,15.68,42.28,15.6,43.62a1.39,1.39,0,0,1-2.77-.16c0-.32,1.61-31.27-14.3-41.11-8.84-5.46-21.6-3.49-37.93,5.89-29.63,17-38.86,47.29-41.38,69.71a157.48,157.48,0,0,0,1.68,45.33,1.38,1.38,0,0,1-1.06,1.65A1.43,1.43,0,0,1,2418.16,1224.21Z" transform="translate(-637 -90.59)"/><path class="cls-8" d="M2517.26,1244.35l-3.78,0c-32-.49-49.07-4.27-50.62-11.22l5.42-1.21a.7.7,0,0,0,0-.11c0,.06,3.7,6.36,45.33,7,36.89.57,42.07-7.27,42.12-7.35a.59.59,0,0,0-.09.21l5.14,2.07C2560,1235.52,2554.51,1244.35,2517.26,1244.35Z" transform="translate(-637 -90.59)"/><rect class="cls-8" x="690.62" y="657.71" width="585.11" height="423.67" rx="47.63"/><path class="cls-5" d="M732.82,657.71h500.71a42.2,42.2,0,0,1,42.2,42.2V990.28a0,0,0,0,1,0,0H690.62a0,0,0,0,1,0,0V699.91A42.2,42.2,0,0,1,732.82,657.71Z"/><polygon class="cls-8" points="1050.97 1138.69 915.37 1138.69 920.02 1076.89 1045.33 1076.89 1050.97 1138.69"/><polygon class="cls-8" points="1079.87 1154.76 886.48 1154.76 914.24 1134.73 1049.54 1134.73 1079.87 1154.76"/><path class="cls-9" d="M955.86,1924.2s-42.81,65-29,73.52,108.83,48.73,117.68,43.36,6.74-27.62-18.23-39-17.62-55.38-17.62-55.38Z" transform="translate(-637 -90.59)"/><path class="cls-10" d="M1515.05,1014.35c-16.56-7.26-35-5.65-52.6-9.31,5.6-.53,11.34-1.11,16.42-3.54s9.44-7.16,9.82-12.78a498.66,498.66,0,0,0-62.09,9.54c-.71,16.38.53,30.94,2.69,47.18.23,1.68,25,.26,28.59.64,11.47,1.21,22.55,1.82,34,.08,2.39-.37,4.91-.87,6.73-2.46s2.62-4.63,1-6.46c.65.74,11-.54,12.75-.85,4.15-.76,8.74-2.72,11.65-5.85,3.43-3.68,4.06-10.43,0-13.32C1521.45,1015.4,1517.9,1015.59,1515.05,1014.35Z" transform="translate(-637 -90.59)"/><path class="cls-5" d="M1325.2,1619.76s-70-11.82-108.74,15.59c0,0-34.7-82.92-38.39-131.69s13.22-264.81,13.22-264.81,63.63-64.75,118.87-15.2C1310.16,1223.65,1350.76,1586.26,1325.2,1619.76Z" transform="translate(-637 -90.59)"/><path class="cls-4" d="M1249.58,1219.05s-128.87-17.38-154.7-25.22c0,0-28.86,89-21,149.23s6.61,279,6.61,279,29.25,74.58,100.65,25.78C1181.11,1647.85,1302.15,1353.36,1249.58,1219.05Z" transform="translate(-637 -90.59)"/><path class="cls-4" d="M1086.31,1591.53s125.53-15.66,93,61-169.56,300.91-169.56,300.91-54.31,7.85-54.59-29.45C955.18,1924,1043.69,1627.13,1086.31,1591.53Z" transform="translate(-637 -90.59)"/><path class="cls-9" d="M1233,1976.42s-17.29,61.8-1.29,65.07,119.65,8.31,126.14.22-3.19-28.25-30.72-30.37-34.69-32.39-34.69-32.39Z" transform="translate(-637 -90.59)"/><path class="cls-6" d="M1198.39,774.57c21.16-13.83,53.35,7.19,59.21,19.92,17.76,38.51,9.72,154.72,30,163,35.43,14.47,150.26,34.92,150.26,34.92l0,56.77s-202.81,7.86-226.65-64.44C1181.58,894.73,1198.39,774.57,1198.39,774.57Z" transform="translate(-637 -90.59)"/><path class="cls-7" d="M1243.71,780.52c26,24.05-8.26,66.2,54.78,130.48,0,0,10.08,65.21-27.63,76.35l-5.67,87.53L1334.1,1287c-106,57-284.51,40.92-284.51,40.92S1072.48,1162.16,1081,1051c2-26.92-71.57-202.51-12.75-256.77C1103.77,761.38,1203.73,743.45,1243.71,780.52Z" transform="translate(-637 -90.59)"/><path class="cls-11" d="M1291.91,1103.26h0a6.17,6.17,0,0,0,8.29,2.81l72.17-36.17a6.25,6.25,0,0,0,2.76-8.36h0a6.15,6.15,0,0,0-8.28-2.82l-72.17,36.18A6.25,6.25,0,0,0,1291.91,1103.26Z" transform="translate(-637 -90.59)"/><path class="cls-10" d="M1264.37,1124.52s28.74,16.88,45.64-.75c0,0,26.43-6.53,24.67-18.15,0,0,19.25-10.4,13.24-23.47,0,0-49.14,18.53-54.46,3.43-1.42-4,7.42-5.85,17.78-14.67,6.77-5.76,8.75-20.9-8.89-9.28-8.52,5.61-17,.89-21.78,6.56s-16.28,15.14-16.28,15.14Z" transform="translate(-637 -90.59)"/><path class="cls-10" d="M1198.85,797.68s-25.22,24.27-75.23,5.13l-7-129.74,74,63.76Z" transform="translate(-637 -90.59)"/><path class="cls-12" d="M1194.49,759.82s-65.33-12.05-70.67-71.45l4,67S1165,778,1194.49,759.82Z" transform="translate(-637 -90.59)"/><path class="cls-10" d="M1226.93,616.85s10.3,91.39,3.84,105.69-20.19,38.9-36.28,37.28-54-15.19-64-42.22-13.83-122.4-13.83-122.4S1182,538.9,1226.93,616.85Z" transform="translate(-637 -90.59)"/><path class="cls-6" d="M1090.63,1023.61s52.29-208,13.89-245.33-77.64,55.78-88.65,147.43c-9.08,75.59-40.66,153.69,57.94,182.8s189.13,25.83,189.13,25.83,20.08-40.93,2.07-60.26Z" transform="translate(-637 -90.59)"/><path class="cls-9" d="M1131.7,844.72c4.79-32.74,2.56-64.1.34-96.85-1.6-23.5-15-49.81-7.16-73.48,5-15.28,47.17-33,54.72-45.89,7.89-13.49-4.68-45-4.68-45s18.69,35.67,24.23,41.1c5.75,5.64,30.08,15.1,30.08,15.1l2.12,28.11s8.53-43.74-2.22-62.28c-6.18-10.65-20.74-40-34.3-43.24-9.45-2.28-25.82,2.41-30.75,10.79-17.92-13.4-44-10.28-62.79,1.91-32.72,21.27-33,91.13-36.07,113.29-7.3,53.1-33.65,112.75-45.4,165.05-2.06,9.15,3.67,32.09,9.72,39.25,4.63,5.49,21.27,5.61,27.58,5.23,11-.66,19.42-9.47,19.59-21.33a34.76,34.76,0,0,0,7.88,17.91c1.29,1.53,3,3,5,3,2.44,0,4.19-2.3,5.4-4.42a53.75,53.75,0,0,0,6.65-19.84,112.13,112.13,0,0,0,7,10.44C1117.2,873.28,1129.69,858.49,1131.7,844.72Z" transform="translate(-637 -90.59)"/><path class="cls-12" d="M1128.55,706l1-34s-17.26-21.09-19.51-6.37C1104.6,701,1128.55,706,1128.55,706Z" transform="translate(-637 -90.59)"/><path class="cls-5" d="M1333.3,1593.51s-84.53-69.21-117.89,21.55l8.59,369.45s49.64,33.19,79.1-.25Z" transform="translate(-637 -90.59)"/><path class="cls-12" d="M1891.65,1119.18s-118,5.68-236-95.52l34-20.58,197.17,41.59S1901.44,1091,1891.65,1119.18Z" transform="translate(-637 -90.59)"/><path class="cls-9" d="M2158.76,1169.47l-259.07-62S1819,1425,1864.8,1546.86c11.7,31.11,114.8,17.28,114.8,17.28l37.28-200.62s6.52,127.82,30,210.6l116.59,4.13C2211.4,1372.17,2158.76,1169.47,2158.76,1169.47Z" transform="translate(-637 -90.59)"/><path class="cls-10" d="M2268,843.4s94.59,161.78,92.94,176.24l-92.87,8.54-41.16-59.81-37-53.81S2176.47,793,2268,843.4Z" transform="translate(-637 -90.59)"/><path class="cls-12" d="M1936,876.17l-75.09-11.74-21,180.14,63.35,48.36S1931.08,945.36,1936,876.17Z" transform="translate(-637 -90.59)"/><path class="cls-10" d="M2063.65,631.4l24.19,90.23s-49.53,47.11-90.84,13.48l6-32.23S2057.57,689.75,2063.65,631.4Z" transform="translate(-637 -90.59)"/><polygon class="cls-13" points="1222.07 776.71 1288.45 802.2 1274.04 866.39 1222.07 776.71"/><path class="cls-8" d="M1903.68,1979.88l3-33.84,83.7-11.54-11.93,79.65S1907.86,2047.55,1903.68,1979.88Z" transform="translate(-637 -90.59)"/><polygon class="cls-11" points="1474.58 1898.21 1469.66 1828.55 1538.19 1823.16 1546.62 1895.58 1474.58 1898.21"/><polygon class="cls-11" points="1272.5 1911.28 1277.87 1826.45 1336.11 1828.53 1343.74 1917.99 1272.5 1911.28"/><path class="cls-12" d="M2005.09,718.72s68.15-6.12,69.89-39.06l-10-45.12Z" transform="translate(-637 -90.59)"/><path class="cls-10" d="M2002.2,544.22s53.8,3.56,59.11,46.24c4.21,33.9,12.75,74.72-5.92,92.72s-45.59,42.1-67.11,36.06-25.73-56.82-30.38-64.06-17.65-55-8.37-80.59S2002.2,544.22,2002.2,544.22Z" transform="translate(-637 -90.59)"/><path class="cls-12" d="M2263.81,835l12.11,21.26s-14.36,65.75-64.19,90.08L2186.49,904S2210.5,911.64,2263.81,835Z" transform="translate(-637 -90.59)"/><path class="cls-12" d="M2051.07,575.76l-4.13-9.45-86.58,31C1990.29,618,2051.07,575.76,2051.07,575.76Z" transform="translate(-637 -90.59)"/><path class="cls-4" d="M2069.07,617l-22.13-50.64s-39.3,25.34-60.49,29.89c-17.72,3.8-61.17,4.31-52.09-33.84s66.93-70.9,95.69-57.67,44.68,29.05,48.71,37.63C2087.48,560.91,2069.07,617,2069.07,617Z" transform="translate(-637 -90.59)"/><path class="cls-10" d="M2066.85,650.76l-9.89-59.9s31.08-4.18,33.55,16.22C2092.6,624.41,2066.85,650.76,2066.85,650.76Z" transform="translate(-637 -90.59)"/><path class="cls-3" d="M2083.71,722.27c-9.87,12.09-32.64,38.67-86.71,12.84l-90.88,31.07a9.79,9.79,0,0,0-5.38,14c10.28,18.4,30.54,55.71,29,61.18-2,7.14-75.42,427.28-70.91,428.65,34.81,10.55,120.52,60.27,270.64,43.6,14.17-1.58,50.84,6.53,51.31,3.39,4.21-28.46,9.94-283.38,20.05-390.51,9.22-97.75-1-144.29-5-157.91a9.76,9.76,0,0,0-5.37-6.17l-95.14-42.93A9.79,9.79,0,0,0,2083.71,722.27Z" transform="translate(-637 -90.59)"/><path class="cls-3" d="M2281.13,836s-26.74,56.09-85.25,71.57l-25-146S2171.63,728.26,2281.13,836Z" transform="translate(-637 -90.59)"/><path class="cls-10" d="M2361,1019.64s-40.11-50.35-83-11.31L2149.64,1174s-3.83,30.23,12.24,31.39S2288.12,1136.06,2361,1019.64Z" transform="translate(-637 -90.59)"/><path class="cls-8" d="M2036.62,748.12c-11.42,0-25-2.9-40.71-10.85a2.42,2.42,0,1,1,2.18-4.33c25.64,12.95,48.2,13.85,67.08,2.7a60.11,60.11,0,0,0,20.72-20.57,2.43,2.43,0,1,1,4.28,2.29,64.18,64.18,0,0,1-22.53,22.45A60.15,60.15,0,0,1,2036.62,748.12Z" transform="translate(-637 -90.59)"/><path class="cls-9" d="M1864.32,1508.46c-16.27,126.27,49.13,431.06,49.13,431.06s41.3,20.58,64.34-1.7c0,0,32.61-345.88,3.5-442.87C1972.38,1465.26,1873.61,1436.41,1864.32,1508.46Z" transform="translate(-637 -90.59)"/><path class="cls-10" d="M2154.92,1168.16c-3.65-3-22.71,2.13-27.3,3.22-8.93,2.12-16,5.93-23.73,10.92-14.77,9.54-30,19.11-40.76,33.76-3.64,5-7,11.74-4,17l6.56.5c-4.83,2.76-5.42,11-1,14.2,6.74,4.85,16.31-7.54,22.45-10.44-6.23,2.94-4.16,28.54,3.3,21.9,3.1-2.75,5.42-7.83,8.44-11,12.09-12.81,29-10.78,44.43-14.72,16.56-4.24,45.18-37.33,45.18-37.33Z" transform="translate(-637 -90.59)"/><path class="cls-3" d="M1906.12,766.18s-50.91,35.65-47.06,101.12l65.73,36.41S1960.65,793.48,1906.12,766.18Z" transform="translate(-637 -90.59)"/><path class="cls-5" d="M2066.42,527.6s15.12,38.12-.41,63c0,0,6.08-.52,10.72,1.67C2076.73,592.23,2093,542.48,2066.42,527.6Z" transform="translate(-637 -90.59)"/><path class="cls-5" d="M2046.94,566.31s-53.46,42.37-93.49,29.64c0,0-22.7-2.91-20-28.37C1933.41,567.58,1960.23,603.36,2046.94,566.31Z" transform="translate(-637 -90.59)"/><path class="cls-13" d="M2265,1025.05a1.39,1.39,0,0,1-1-2.33c.77-.83,18.94-20.42,36-18a1.39,1.39,0,0,1-.4,2.75c-15.56-2.25-33.35,16.9-33.53,17.1A1.4,1.4,0,0,1,2265,1025.05Z" transform="translate(-637 -90.59)"/><path class="cls-12" d="M1676.32,979c-5.22-19.59-10.45-35.47-2.61-32.75s36.86,60,37.65,61.53c.18.35,2.29,14.34,0,15.88-6.77,4.54-28.56,21.5-28.56,21.5s-46.9,1.33-68-11.36c-5.77-3.47-17.91-29.41-18.46-36.12-.31-3.77,1.34-7.84-.38-11.21s-6-4.5-8.12-7.54c-3.07-4.32-.45-10.77,4-13.62,11.87-7.58,29.12-5.74,40.24,1.65C1635.46,969.19,1680.73,995.54,1676.32,979Z" transform="translate(-637 -90.59)"/><path class="cls-9" d="M2040,1542l67.51,388.58s53.58,17.34,71.43-8.89c0,0,7.7-130.85,4.19-233.69-2.72-79.85-13.52-141.14-18.45-161.52C2164.72,1526.47,2078,1478.36,2040,1542Z" transform="translate(-637 -90.59)"/><path class="cls-4" d="M1980.74,1962.81s24.61,96.41,3.81,100.66-155.51,10.79-164,.28,4.15-36.72,39.93-39.47,51.44-61.47,51.44-61.47Z" transform="translate(-637 -90.59)"/><path class="cls-4" d="M2180.4,1958.53s31.28,96.12,10.48,100.36-155.51,10.79-163.94.28,4.14-36.71,39.92-39.47,45.2-56.89,45.2-56.89Z" transform="translate(-637 -90.59)"/><path class="cls-14" d="M2458.66,1498.16h282.18a100,100,0,0,1,100,100v7.24a71.57,71.57,0,0,1-71.57,71.57H2365a6.39,6.39,0,0,1-6.39-6.39V1598.2A100,100,0,0,1,2458.66,1498.16Z" transform="translate(4562.51 3084.58) rotate(180)"/><path class="cls-14" d="M2757.72,1958.53H2481.86a27.71,27.71,0,0,0-27.64,27.64h0a1.76,1.76,0,0,0,1.76,1.76h327.61a1.77,1.77,0,0,0,1.77-1.76h0A27.72,27.72,0,0,0,2757.72,1958.53Z" transform="translate(-637 -90.59)"/><path class="cls-11" d="M2884.12,926.26s71.89-9,20.77,277.12c-30.59,171.23-47.45,300-56.06,375.77-5,44.26-45.26,77.85-93.21,77.85h-55.9s6.49-363.91,87.46-482.89C2787.18,1174.11,2811.48,919.64,2884.12,926.26Z" transform="translate(-637 -90.59)"/><rect class="cls-14" x="2599.75" y="1668.92" width="40.07" height="289.25" transform="translate(4602.58 3536.5) rotate(180)"/><path class="cls-11" d="M2775.43,1656.37l-315.89,8c-6.22.16-10.77-6.64-9-13.43,7.5-28.48,31.27-91.3,95.08-91.3,60.74,0,195.82.25,262.86.38,19.64,0,33.74,21.55,28.18,43h0C2828.63,1634.08,2803.87,1655.65,2775.43,1656.37Z" transform="translate(-637 -90.59)"/><path class="cls-14" d="M2828,1604.33s-307.33,3-327.24,8.94-46,40-46,40,13-89.38,90.88-93.67,257.48-1.71,276.37,7.81S2846.08,1604.13,2828,1604.33Z" transform="translate(-637 -90.59)"/><path class="cls-8" d="M2451.23,1661.58H2451a2.76,2.76,0,0,1-2.52-3c3.7-42.12,23.9-66.8,40.2-80.09,17.67-14.42,34.29-18.8,35-19l.32-.08h.34c1.89,0,190-2.34,258-2.54h.49c25.81,0,43.31,6.1,52,18.12,9.53,13.16,4.68,28.27,4.47,28.91a2.77,2.77,0,0,1-5.27-1.74h0c0-.13,4.15-13.14-3.73-24-7.62-10.46-23.59-15.77-47.48-15.77h-.48c-66.57.2-248.28,2.43-257.62,2.55a98.15,98.15,0,0,0-32.76,18c-22.37,18.35-35.16,44-38,76.12A2.76,2.76,0,0,1,2451.23,1661.58Z" transform="translate(-637 -90.59)"/><path class="cls-14" d="M2919.46,981c10.33,12.27,9.33,129-8.24,231.48-14.35,83.64-63.8,375.12-63.8,375.12s-5.31-40.38-17.32-58c-32.28-47.42,49.76-231.89,61.15-291C2909.62,1143.2,2910.42,970.27,2919.46,981Z" transform="translate(-637 -90.59)"/><path class="cls-8" d="M2848.83,1581.93a2.79,2.79,0,0,1-2.63-1.88c-.13-.4-13.66-40-23.68-60.88-10.87-22.62,2.64-109.15,33.9-177.9,21.5-47.27,37.31-122.28,45.73-216.91,3.4-38.24,13.77-136.27,14.51-143.27-.83-4.61-9.9-51.86-32.56-52.06h-.19c-23.59,0-51.86,38.73-64.46,88.34-12.31,48.44-29.36,156.09-29.53,157.18l-.08.47-.22.41c-.43.8-43.3,80.63-58.65,168.49-12.36,70.71-23.82,215-23.93,216.5a2.77,2.77,0,1,1-5.53-.43c.11-1.46,11.59-146.06,24-217,14.93-85.43,55.57-163.28,59-169.74,1.24-7.79,17.61-110.16,29.56-157.22,6.26-24.65,16.54-47.62,28.93-64.67,13.06-18,27.58-27.85,40.91-27.85h.24c28.34.25,37.66,54.73,38,57l.06.37,0,.38c-.11,1-11,104.14-14.54,143.56-8.47,95.25-24.45,170.88-46.2,218.72-32.5,71.48-43,154.35-33.95,173.2,10.16,21.17,23.8,61.09,23.93,61.49a2.77,2.77,0,0,1-1.73,3.52A2.73,2.73,0,0,1,2848.83,1581.93Z" transform="translate(-637 -90.59)"/><circle class="cls-14" cx="2759.7" cy="2013.05" r="39.82" transform="translate(-1025.67 597.31) rotate(-13.28)"/><circle class="cls-14" cx="2481.97" cy="2013.05" r="39.82" transform="translate(-927.4 332.97) rotate(-9.22)"/><path class="cls-8" d="M2639.83,1960.94h-40.08a2.78,2.78,0,0,1,0-5.55h40.08a2.78,2.78,0,0,1,0,5.55Z" transform="translate(-637 -90.59)"/><path class="cls-8" d="M2785.36,1988.94a2.8,2.8,0,0,1-2.08-.93h0c-.09-.12-10.05-11.12-24.22-11.7-9.15-.39-18.17,3.61-26.82,11.86a2.77,2.77,0,0,1-3.83-4c9.81-9.35,20.23-13.87,30.94-13.39,16.55.71,27.63,13,28.09,13.56a2.78,2.78,0,0,1-2.08,4.61Z" transform="translate(-637 -90.59)"/><path class="cls-8" d="M2509.49,1991.57a2.76,2.76,0,0,1-2.08-.93c-.14-.16-10.08-11.12-24.23-11.7-9.15-.39-18.16,3.61-26.82,11.87a2.77,2.77,0,1,1-3.82-4c9.8-9.35,20.23-13.86,30.93-13.39,16.56.71,27.63,13,28.1,13.56a2.77,2.77,0,0,1-2.08,4.61Z" transform="translate(-637 -90.59)"/></svg>