<svg width="26" height="26" viewBox="0 0 26 26" fill="none" xmlns="http://www.w3.org/2000/svg">
<g clip-path="url(#clip0_59_1046)">
<path fill-rule="evenodd" clip-rule="evenodd" d="M22 4.23524C22 3.11223 21.554 2.03524 20.76 1.24024C19.965 0.446235 18.888 0.000244141 17.765 0.000244141C14.99 0.000244141 11.01 0.000244141 8.23499 0.000244141C7.11199 0.000244141 6.03499 0.446235 5.23999 1.24024C4.44599 2.03524 4 3.11223 4 4.23524C4 8.82424 4 17.1763 4 21.7653C4 22.8883 4.44599 23.9653 5.23999 24.7603C6.03499 25.5543 7.11199 26.0003 8.23499 26.0003C11.01 26.0003 14.99 26.0003 17.765 26.0003C18.888 26.0003 19.965 25.5543 20.76 24.7603C21.554 23.9653 22 22.8883 22 21.7653V4.23524ZM20 4.23524V21.7653C20 22.3583 19.765 22.9263 19.345 23.3453C18.926 23.7653 18.358 24.0003 17.765 24.0003C14.99 24.0003 11.01 24.0003 8.23499 24.0003C7.64199 24.0003 7.074 23.7653 6.655 23.3453C6.235 22.9263 6 22.3583 6 21.7653C6 17.1763 6 8.82424 6 4.23524C6 3.64224 6.235 3.07428 6.655 2.65528C7.074 2.23528 7.64199 2.00025 8.23499 2.00025C11.01 2.00025 14.99 2.00025 17.765 2.00025C18.358 2.00025 18.926 2.23528 19.345 2.65528C19.765 3.07428 20 3.64224 20 4.23524ZM12.385 22.4003H13.615C14.167 22.4003 14.615 21.9523 14.615 21.4003C14.615 20.8483 14.167 20.4003 13.615 20.4003H12.385C11.833 20.4003 11.385 20.8483 11.385 21.4003C11.385 21.9523 11.833 22.4003 12.385 22.4003ZM10.615 5.80024H15.385C15.937 5.80024 16.385 5.35224 16.385 4.80024C16.385 4.24824 15.937 3.80024 15.385 3.80024H10.615C10.063 3.80024 9.615 4.24824 9.615 4.80024C9.615 5.35224 10.063 5.80024 10.615 5.80024Z" fill="#1E385B"/>
</g>
<defs>
<clipPath id="clip0_59_1046">
<rect width="26" height="26" fill="white"/>
</clipPath>
</defs>
</svg>
