<svg xmlns="http://www.w3.org/2000/svg" xmlns:xlink="http://www.w3.org/1999/xlink" viewBox="0 0 94.1 81.65"><defs><style>.cls-1{isolation:isolate;}.cls-2{fill:url(#linear-gradient);}.cls-3{fill:url(#linear-gradient-2);}.cls-4{fill:url(#linear-gradient-3);}.cls-5{fill:url(#linear-gradient-4);}.cls-6{fill:url(#linear-gradient-5);}.cls-7{fill:url(#linear-gradient-6);}.cls-8{opacity:0.4;}.cls-9{fill:#929497;opacity:0;}.cls-10,.cls-11,.cls-12,.cls-13,.cls-14,.cls-15,.cls-16,.cls-17,.cls-18,.cls-19,.cls-20,.cls-21,.cls-22,.cls-23,.cls-24,.cls-25,.cls-26,.cls-27,.cls-28,.cls-29,.cls-30,.cls-31,.cls-32,.cls-33,.cls-34,.cls-35,.cls-36,.cls-37,.cls-38,.cls-39,.cls-40,.cls-41,.cls-42,.cls-43,.cls-44,.cls-45,.cls-46,.cls-47,.cls-48,.cls-49,.cls-50,.cls-51,.cls-52,.cls-53,.cls-54,.cls-55,.cls-56,.cls-57,.cls-58,.cls-59,.cls-60,.cls-61,.cls-62,.cls-63,.cls-64,.cls-65,.cls-66,.cls-67,.cls-68,.cls-69,.cls-70,.cls-71,.cls-72,.cls-73,.cls-74,.cls-75,.cls-9{mix-blend-mode:multiply;}.cls-10{fill:#919396;opacity:0.02;}.cls-11{fill:#909294;opacity:0.03;}.cls-12{fill:#8e9093;opacity:0.05;}.cls-13{fill:#8d8f91;opacity:0.06;}.cls-14{fill:#8b8d90;opacity:0.08;}.cls-15{fill:#8a8c8e;opacity:0.09;}.cls-16{fill:#888a8d;opacity:0.11;}.cls-17{fill:#87898b;opacity:0.12;}.cls-18{fill:#85878a;opacity:0.14;}.cls-19{fill:#848688;opacity:0.15;}.cls-20{fill:#828487;opacity:0.17;}.cls-21{fill:#818385;opacity:0.18;}.cls-22{fill:#808184;opacity:0.2;}.cls-23{fill:#7f8082;opacity:0.21;}.cls-24{fill:#7d7f81;opacity:0.23;}.cls-25{fill:#7c7e80;opacity:0.24;}.cls-26{fill:#7b7d7f;opacity:0.26;}.cls-27{fill:#7a7b7e;opacity:0.27;}.cls-28{fill:#787a7c;opacity:0.29;}.cls-29{fill:#77787b;opacity:0.3;}.cls-30{fill:#757779;opacity:0.32;}.cls-31{fill:#747578;opacity:0.33;}.cls-32{fill:#727476;opacity:0.35;}.cls-33{fill:#717275;opacity:0.36;}.cls-34{fill:#6f7073;opacity:0.38;}.cls-35{fill:#6d6f71;opacity:0.39;}.cls-36{fill:#6c6d70;opacity:0.41;}.cls-37{fill:#6a6c6e;opacity:0.42;}.cls-38{fill:#696a6c;opacity:0.44;}.cls-39{fill:#67686b;opacity:0.45;}.cls-40{fill:#666769;opacity:0.47;}.cls-41{fill:#646567;opacity:0.48;}.cls-42{fill:#626366;opacity:0.5;}.cls-43{fill:#616365;opacity:0.52;}.cls-44{fill:#606163;opacity:0.53;}.cls-45{fill:#5e5f61;opacity:0.55;}.cls-46{fill:#5c5d60;opacity:0.56;}.cls-47{fill:#5b5c5e;opacity:0.58;}.cls-48{fill:#595a5c;opacity:0.59;}.cls-49{fill:#57585a;opacity:0.61;}.cls-50{fill:#555658;opacity:0.62;}.cls-51{fill:#545456;opacity:0.64;}.cls-52{fill:#525255;opacity:0.65;}.cls-53{fill:#505153;opacity:0.67;}.cls-54{fill:#4e4f51;opacity:0.68;}.cls-55{fill:#4d4d4f;opacity:0.7;}.cls-56{fill:#4b4b4d;opacity:0.71;}.cls-57{fill:#49494b;opacity:0.73;}.cls-58{fill:#474749;opacity:0.74;}.cls-59{fill:#464648;opacity:0.76;}.cls-60{fill:#444446;opacity:0.77;}.cls-61{fill:#424244;opacity:0.79;}.cls-62{fill:#404041;opacity:0.8;}.cls-63{fill:#3e3e3f;opacity:0.82;}.cls-64{fill:#3c3b3d;opacity:0.83;}.cls-65{fill:#3a393a;opacity:0.85;}.cls-66{fill:#383738;opacity:0.86;}.cls-67{fill:#353435;opacity:0.88;}.cls-68{fill:#333133;opacity:0.89;}.cls-69{fill:#312f30;opacity:0.91;}.cls-70{fill:#2e2c2d;opacity:0.92;}.cls-71{fill:#2c292a;opacity:0.94;}.cls-72{fill:#292627;opacity:0.95;}.cls-73{fill:#272425;opacity:0.97;}.cls-74{fill:#242122;opacity:0.98;}.cls-75{fill:#231f20;}</style><linearGradient id="linear-gradient" x1="524.35" y1="599.01" x2="577.37" y2="635.57" gradientUnits="userSpaceOnUse"><stop offset="0" stop-color="#f26f21"/><stop offset="0.64" stop-color="#f0522e"/><stop offset="1" stop-color="#ee4036"/></linearGradient><linearGradient id="linear-gradient-2" x1="540.79" y1="626.33" x2="601.48" y2="650.1" gradientUnits="userSpaceOnUse"><stop offset="0" stop-color="#fcb833"/><stop offset="0.43" stop-color="#f89b2c"/><stop offset="1" stop-color="#f26f21"/></linearGradient><linearGradient id="linear-gradient-3" x1="563.96" y1="645.39" x2="601.99" y2="608.1" xlink:href="#linear-gradient"/><linearGradient id="linear-gradient-4" x1="550.4" y1="632.13" x2="585.5" y2="583.87" xlink:href="#linear-gradient"/><linearGradient id="linear-gradient-5" x1="583.83" y1="666.16" x2="621.85" y2="628.86" xlink:href="#linear-gradient-2"/><linearGradient id="linear-gradient-6" x1="574.12" y1="656.26" x2="612.14" y2="618.96" xlink:href="#linear-gradient-2"/></defs><g class="cls-1"><g id="Layer_5" data-name="Layer 5"><path class="cls-2" d="M591.32,607l3.2,3.1-24.76,23.36a4.37,4.37,0,0,1-6.2-.18l-1.83-1.93a6.58,6.58,0,0,0-9.36-.22L540.1,643a1.09,1.09,0,0,1-1.85-.91,26.44,26.44,0,0,1,40.42-20l8.15-7.7a37.42,37.42,0,0,0-58.34,39.9,35.86,35.86,0,0,0,1.63,4.71,4.37,4.37,0,0,0,7.06,1.38l3.92-3.78,13.33-12.9a3.29,3.29,0,0,1,4.68.1l4,4.28a4.39,4.39,0,0,0,6.2.18L615.26,605Z" transform="translate(-521.98 -604.96)"/><path class="cls-3" d="M562.4,649.31l-4-4.27a2.2,2.2,0,0,0-3.12-.07l-13.56,13.1L538,661.69a6.54,6.54,0,0,0-.22,9.25,38.22,38.22,0,0,0,2.86,2.68,37.42,37.42,0,0,0,60.73-36.19L591,647.15a26.46,26.46,0,0,1-38.72,21.22,3.31,3.31,0,0,1-.8-5.31l3.39-3.27a2.19,2.19,0,0,1,3.12.07l3.19,3.38a6.58,6.58,0,0,0,9.3.27l39.13-36.92,3.17,3.71,3.26-24-45.94,43.21A5.48,5.48,0,0,1,562.4,649.31Z" transform="translate(-521.98 -604.96)"/><path class="cls-4" d="M571.16,633.62a42.65,42.65,0,0,1,7,4.73l34.05-32-18.4,1.54,2.29,2.22Z" transform="translate(-521.98 -604.96)"/><path class="cls-5" d="M541.23,629.89a27.76,27.76,0,0,1,23.38-13,27.42,27.42,0,0,1,13.91,3.79l6.57-6.21a36,36,0,0,0-20.48-6.35,37.2,37.2,0,0,0-4.59.28,36.35,36.35,0,0,0-30.49,26.53A42.2,42.2,0,0,1,541.23,629.89Z" transform="translate(-521.98 -604.96)"/><path class="cls-6" d="M592.1,647.66a26.89,26.89,0,0,1-1.78,7.35,41.35,41.35,0,0,1,3.16,12.06,36.16,36.16,0,0,0,7.12-27.44Z" transform="translate(-521.98 -604.96)"/><path class="cls-7" d="M580.69,641.13a43,43,0,0,1,5.34,6.24L609.73,625l2.33,2.73,2.51-18.48Z" transform="translate(-521.98 -604.96)"/><g class="cls-8"><path class="cls-9" d="M611.42,682.4c0,2.33-20,4.21-44.72,4.21S522,684.73,522,682.4s20-4.21,44.72-4.21S611.42,680.08,611.42,682.4Z" transform="translate(-521.98 -604.96)"/><path class="cls-10" d="M610.88,682.4c0,2.29-19.78,4.15-44.18,4.15s-44.17-1.86-44.17-4.15,19.77-4.15,44.17-4.15S610.88,680.11,610.88,682.4Z" transform="translate(-521.98 -604.96)"/><path class="cls-11" d="M610.33,682.4c0,2.26-19.53,4.1-43.63,4.1s-43.63-1.84-43.63-4.1,19.54-4.09,43.63-4.09S610.33,680.14,610.33,682.4Z" transform="translate(-521.98 -604.96)"/><path class="cls-12" d="M609.79,682.4c0,2.23-19.29,4-43.09,4s-43.08-1.81-43.08-4,19.29-4,43.08-4S609.79,680.17,609.79,682.4Z" transform="translate(-521.98 -604.96)"/><path class="cls-13" d="M609.24,682.4c0,2.2-19,4-42.54,4s-42.54-1.78-42.54-4,19.05-4,42.54-4S609.24,680.2,609.24,682.4Z" transform="translate(-521.98 -604.96)"/><path class="cls-14" d="M608.7,682.4c0,2.17-18.8,3.92-42,3.92s-42-1.75-42-3.92,18.8-3.92,42-3.92S608.7,680.24,608.7,682.4Z" transform="translate(-521.98 -604.96)"/><path class="cls-15" d="M608.15,682.4c0,2.14-18.55,3.87-41.45,3.87s-41.45-1.73-41.45-3.87,18.56-3.86,41.45-3.86S608.15,680.27,608.15,682.4Z" transform="translate(-521.98 -604.96)"/><path class="cls-16" d="M607.61,682.4c0,2.1-18.31,3.81-40.91,3.81s-40.9-1.71-40.9-3.81,18.31-3.81,40.9-3.81S607.61,680.3,607.61,682.4Z" transform="translate(-521.98 -604.96)"/><path class="cls-17" d="M607.06,682.4c0,2.07-18.06,3.75-40.36,3.75s-40.36-1.68-40.36-3.75,18.07-3.75,40.36-3.75S607.06,680.33,607.06,682.4Z" transform="translate(-521.98 -604.96)"/><path class="cls-18" d="M606.52,682.4c0,2-17.83,3.69-39.82,3.69s-39.81-1.65-39.81-3.69,17.82-3.69,39.81-3.69S606.52,680.36,606.52,682.4Z" transform="translate(-521.98 -604.96)"/><path class="cls-19" d="M606,682.4c0,2-17.58,3.64-39.27,3.64s-39.27-1.63-39.27-3.64,17.58-3.63,39.27-3.63S606,680.39,606,682.4Z" transform="translate(-521.98 -604.96)"/><path class="cls-20" d="M605.43,682.4c0,2-17.34,3.58-38.73,3.58S528,684.38,528,682.4s17.34-3.58,38.72-3.58S605.43,680.42,605.43,682.4Z" transform="translate(-521.98 -604.96)"/><path class="cls-21" d="M604.88,682.4c0,2-17.09,3.52-38.18,3.52s-38.18-1.57-38.18-3.52,17.1-3.52,38.18-3.52S604.88,680.46,604.88,682.4Z" transform="translate(-521.98 -604.96)"/><path class="cls-22" d="M604.34,682.4c0,1.92-16.85,3.47-37.64,3.47s-37.63-1.55-37.63-3.47,16.85-3.46,37.63-3.46S604.34,680.49,604.34,682.4Z" transform="translate(-521.98 -604.96)"/><path class="cls-23" d="M603.79,682.4c0,1.88-16.6,3.41-37.09,3.41s-37.09-1.53-37.09-3.41,16.61-3.4,37.09-3.4S603.79,680.52,603.79,682.4Z" transform="translate(-521.98 -604.96)"/><path class="cls-24" d="M603.25,682.4c0,1.85-16.36,3.35-36.55,3.35s-36.54-1.5-36.54-3.35,16.36-3.35,36.54-3.35S603.25,680.55,603.25,682.4Z" transform="translate(-521.98 -604.96)"/><path class="cls-25" d="M602.7,682.4c0,1.82-16.11,3.29-36,3.29s-36-1.47-36-3.29,16.12-3.29,36-3.29S602.7,680.58,602.7,682.4Z" transform="translate(-521.98 -604.96)"/><path class="cls-26" d="M602.16,682.4c0,1.79-15.87,3.24-35.46,3.24s-35.45-1.45-35.45-3.24,15.87-3.23,35.45-3.23S602.16,680.61,602.16,682.4Z" transform="translate(-521.98 -604.96)"/><path class="cls-27" d="M601.61,682.4c0,1.76-15.63,3.18-34.91,3.18s-34.91-1.42-34.91-3.18,15.63-3.17,34.91-3.17S601.61,680.65,601.61,682.4Z" transform="translate(-521.98 -604.96)"/><path class="cls-28" d="M601.07,682.4c0,1.73-15.39,3.12-34.37,3.12s-34.36-1.39-34.36-3.12,15.38-3.12,34.36-3.12S601.07,680.68,601.07,682.4Z" transform="translate(-521.98 -604.96)"/><path class="cls-29" d="M600.52,682.4c0,1.69-15.14,3.06-33.82,3.06s-33.82-1.37-33.82-3.06,15.15-3.06,33.82-3.06S600.52,680.71,600.52,682.4Z" transform="translate(-521.98 -604.96)"/><path class="cls-30" d="M600,682.4c0,1.66-14.9,3-33.28,3s-33.27-1.35-33.27-3,14.9-3,33.27-3S600,680.74,600,682.4Z" transform="translate(-521.98 -604.96)"/><path class="cls-31" d="M599.43,682.4c0,1.63-14.65,3-32.73,3S534,684,534,682.4s14.66-2.95,32.73-2.95S599.43,680.77,599.43,682.4Z" transform="translate(-521.98 -604.96)"/><path class="cls-32" d="M598.89,682.4c0,1.6-14.41,2.89-32.19,2.89s-32.18-1.29-32.18-2.89,14.41-2.89,32.18-2.89S598.89,680.81,598.89,682.4Z" transform="translate(-521.98 -604.96)"/><path class="cls-33" d="M598.34,682.4c0,1.57-14.16,2.83-31.64,2.83s-31.64-1.26-31.64-2.83,14.17-2.83,31.64-2.83S598.34,680.84,598.34,682.4Z" transform="translate(-521.98 -604.96)"/><path class="cls-34" d="M597.8,682.4c0,1.54-13.92,2.78-31.1,2.78s-31.09-1.24-31.09-2.78,13.92-2.77,31.09-2.77S597.8,680.87,597.8,682.4Z" transform="translate(-521.98 -604.96)"/><path class="cls-35" d="M597.25,682.4c0,1.5-13.67,2.72-30.55,2.72s-30.55-1.22-30.55-2.72,13.68-2.72,30.55-2.72S597.25,680.9,597.25,682.4Z" transform="translate(-521.98 -604.96)"/><path class="cls-36" d="M596.7,682.4c0,1.47-13.43,2.66-30,2.66s-30-1.19-30-2.66,13.43-2.66,30-2.66S596.7,680.93,596.7,682.4Z" transform="translate(-521.98 -604.96)"/><path class="cls-37" d="M596.16,682.4c0,1.44-13.19,2.61-29.46,2.61s-29.46-1.17-29.46-2.61,13.19-2.6,29.46-2.6S596.16,681,596.16,682.4Z" transform="translate(-521.98 -604.96)"/><path class="cls-38" d="M595.61,682.4c0,1.41-12.94,2.55-28.91,2.55s-28.91-1.14-28.91-2.55,13-2.54,28.91-2.54S595.61,681,595.61,682.4Z" transform="translate(-521.98 -604.96)"/><path class="cls-39" d="M595.07,682.4c0,1.38-12.7,2.49-28.37,2.49s-28.37-1.11-28.37-2.49,12.71-2.49,28.37-2.49S595.07,681,595.07,682.4Z" transform="translate(-521.98 -604.96)"/><path class="cls-40" d="M594.52,682.4c0,1.35-12.45,2.43-27.82,2.43s-27.82-1.08-27.82-2.43S551.34,680,566.7,680,594.52,681.06,594.52,682.4Z" transform="translate(-521.98 -604.96)"/><path class="cls-41" d="M594,682.4c0,1.31-12.21,2.38-27.28,2.38s-27.28-1.07-27.28-2.38S551.64,680,566.7,680,594,681.09,594,682.4Z" transform="translate(-521.98 -604.96)"/><path class="cls-42" d="M593.43,682.4c0,1.28-12,2.32-26.73,2.32s-26.73-1-26.73-2.32,12-2.32,26.73-2.32S593.43,681.12,593.43,682.4Z" transform="translate(-521.98 -604.96)"/><path class="cls-43" d="M592.89,682.4c0,1.25-11.72,2.26-26.19,2.26s-26.19-1-26.19-2.26,11.73-2.26,26.19-2.26S592.89,681.15,592.89,682.4Z" transform="translate(-521.98 -604.96)"/><path class="cls-44" d="M592.34,682.4c0,1.22-11.47,2.2-25.64,2.2s-25.64-1-25.64-2.2,11.48-2.2,25.64-2.2S592.34,681.19,592.34,682.4Z" transform="translate(-521.98 -604.96)"/><path class="cls-45" d="M591.8,682.4c0,1.19-11.24,2.15-25.1,2.15s-25.1-1-25.1-2.15,11.24-2.14,25.1-2.14S591.8,681.22,591.8,682.4Z" transform="translate(-521.98 -604.96)"/><path class="cls-46" d="M591.25,682.4c0,1.16-11,2.09-24.55,2.09s-24.55-.93-24.55-2.09,11-2.09,24.55-2.09S591.25,681.25,591.25,682.4Z" transform="translate(-521.98 -604.96)"/><path class="cls-47" d="M590.71,682.4c0,1.12-10.75,2-24,2s-24-.91-24-2,10.76-2,24-2S590.71,681.28,590.71,682.4Z" transform="translate(-521.98 -604.96)"/><path class="cls-48" d="M590.16,682.4c0,1.09-10.5,2-23.46,2s-23.46-.88-23.46-2,10.51-2,23.46-2S590.16,681.31,590.16,682.4Z" transform="translate(-521.98 -604.96)"/><path class="cls-49" d="M589.62,682.4c0,1.06-10.26,1.92-22.92,1.92s-22.92-.86-22.92-1.92,10.27-1.91,22.92-1.91S589.62,681.34,589.62,682.4Z" transform="translate(-521.98 -604.96)"/><path class="cls-50" d="M589.07,682.4c0,1-10,1.86-22.37,1.86s-22.37-.83-22.37-1.86,10-1.86,22.37-1.86S589.07,681.38,589.07,682.4Z" transform="translate(-521.98 -604.96)"/><path class="cls-51" d="M588.53,682.4c0,1-9.77,1.8-21.83,1.8s-21.83-.8-21.83-1.8,9.78-1.8,21.83-1.8S588.53,681.41,588.53,682.4Z" transform="translate(-521.98 -604.96)"/><path class="cls-52" d="M588,682.4c0,1-9.52,1.75-21.28,1.75s-21.28-.78-21.28-1.75,9.53-1.74,21.28-1.74S588,681.44,588,682.4Z" transform="translate(-521.98 -604.96)"/><path class="cls-53" d="M587.44,682.4c0,.93-9.28,1.69-20.74,1.69S546,683.33,546,682.4s9.29-1.68,20.74-1.68S587.44,681.47,587.44,682.4Z" transform="translate(-521.98 -604.96)"/><path class="cls-54" d="M586.89,682.4c0,.9-9,1.63-20.19,1.63s-20.19-.73-20.19-1.63,9-1.63,20.19-1.63S586.89,681.5,586.89,682.4Z" transform="translate(-521.98 -604.96)"/><path class="cls-55" d="M586.35,682.4c0,.87-8.8,1.57-19.65,1.57s-19.64-.7-19.64-1.57,8.79-1.57,19.64-1.57S586.35,681.53,586.35,682.4Z" transform="translate(-521.98 -604.96)"/><path class="cls-56" d="M585.8,682.4c0,.84-8.55,1.52-19.1,1.52s-19.1-.68-19.1-1.52,8.56-1.51,19.1-1.51S585.8,681.57,585.8,682.4Z" transform="translate(-521.98 -604.96)"/><path class="cls-57" d="M585.26,682.4c0,.81-8.31,1.46-18.56,1.46s-18.55-.65-18.55-1.46,8.31-1.46,18.55-1.46S585.26,681.6,585.26,682.4Z" transform="translate(-521.98 -604.96)"/><path class="cls-58" d="M584.71,682.4c0,.78-8.06,1.4-18,1.4s-18-.62-18-1.4,8.07-1.4,18-1.4S584.71,681.63,584.71,682.4Z" transform="translate(-521.98 -604.96)"/><path class="cls-59" d="M584.17,682.4c0,.74-7.82,1.34-17.47,1.34s-17.46-.6-17.46-1.34,7.82-1.34,17.46-1.34S584.17,681.66,584.17,682.4Z" transform="translate(-521.98 -604.96)"/><path class="cls-60" d="M583.62,682.4c0,.71-7.57,1.29-16.92,1.29s-16.92-.58-16.92-1.29,7.58-1.28,16.92-1.28S583.62,681.69,583.62,682.4Z" transform="translate(-521.98 -604.96)"/><path class="cls-61" d="M583.08,682.4c0,.68-7.33,1.23-16.38,1.23s-16.37-.55-16.37-1.23,7.33-1.23,16.37-1.23S583.08,681.72,583.08,682.4Z" transform="translate(-521.98 -604.96)"/><path class="cls-62" d="M582.53,682.4c0,.65-7.08,1.17-15.83,1.17s-15.83-.52-15.83-1.17,7.09-1.17,15.83-1.17S582.53,681.76,582.53,682.4Z" transform="translate(-521.98 -604.96)"/><path class="cls-63" d="M582,682.4c0,.62-6.85,1.11-15.29,1.11s-15.28-.49-15.28-1.11,6.84-1.11,15.28-1.11S582,681.79,582,682.4Z" transform="translate(-521.98 -604.96)"/><path class="cls-64" d="M581.44,682.4c0,.59-6.6,1.06-14.74,1.06S552,683,552,682.4s6.61-1,14.74-1S581.44,681.82,581.44,682.4Z" transform="translate(-521.98 -604.96)"/><path class="cls-65" d="M580.89,682.4c0,.55-6.35,1-14.19,1s-14.19-.45-14.19-1,6.36-1,14.19-1S580.89,681.85,580.89,682.4Z" transform="translate(-521.98 -604.96)"/><path class="cls-66" d="M580.35,682.4c0,.52-6.11.94-13.65.94s-13.65-.42-13.65-.94,6.12-.94,13.65-.94S580.35,681.88,580.35,682.4Z" transform="translate(-521.98 -604.96)"/><path class="cls-67" d="M579.8,682.4c0,.49-5.86.89-13.1.89s-13.1-.4-13.1-.89,5.87-.88,13.1-.88S579.8,681.91,579.8,682.4Z" transform="translate(-521.98 -604.96)"/><path class="cls-68" d="M579.26,682.4c0,.46-5.62.83-12.56.83s-12.56-.37-12.56-.83,5.63-.83,12.56-.83S579.26,682,579.26,682.4Z" transform="translate(-521.98 -604.96)"/><path class="cls-69" d="M578.71,682.4c0,.43-5.37.77-12,.77s-12-.34-12-.77,5.38-.77,12-.77S578.71,682,578.71,682.4Z" transform="translate(-521.98 -604.96)"/><path class="cls-70" d="M578.17,682.4c0,.4-5.13.71-11.47.71s-11.47-.31-11.47-.71,5.14-.71,11.47-.71S578.17,682,578.17,682.4Z" transform="translate(-521.98 -604.96)"/><path class="cls-71" d="M577.62,682.4c0,.36-4.88.66-10.92.66s-10.92-.3-10.92-.66,4.89-.65,10.92-.65S577.62,682,577.62,682.4Z" transform="translate(-521.98 -604.96)"/><path class="cls-72" d="M577.08,682.4c0,.33-4.65.6-10.38.6s-10.38-.27-10.38-.6,4.65-.6,10.38-.6S577.08,682.07,577.08,682.4Z" transform="translate(-521.98 -604.96)"/><path class="cls-73" d="M576.53,682.4c0,.3-4.4.54-9.83.54s-9.83-.24-9.83-.54,4.41-.54,9.83-.54S576.53,682.1,576.53,682.4Z" transform="translate(-521.98 -604.96)"/><path class="cls-74" d="M576,682.4c0,.27-4.16.48-9.29.48s-9.29-.21-9.29-.48,4.17-.48,9.29-.48S576,682.14,576,682.4Z" transform="translate(-521.98 -604.96)"/><path class="cls-75" d="M575.44,682.4c0,.24-3.91.43-8.74.43s-8.74-.19-8.74-.43,3.92-.42,8.74-.42S575.44,682.17,575.44,682.4Z" transform="translate(-521.98 -604.96)"/></g></g></g></svg>