<svg width="20" height="20" viewBox="0 0 20 20" fill="none" xmlns="http://www.w3.org/2000/svg">
<path d="M3.22839 17.6997C2.9955 17.5136 3.4344 17.8988 3.22839 17.6997V17.6997Z" fill="#C1D70D"/>
<path d="M19.3911 13.4498C18.6792 15.3847 17.3863 17.0524 15.6896 18.2244C13.9928 19.3964 11.9751 20.0155 9.91271 19.9969C7.85032 19.9783 5.8441 19.3229 4.16877 18.1205C2.49343 16.9181 1.23089 15.2274 0.55402 13.28C-0.122847 11.3326 -0.180945 9.22369 0.387682 7.242C0.956308 5.26032 2.12386 3.50277 3.73046 2.21002C5.33705 0.917277 7.30415 0.152539 9.36239 0.0205262C11.4206 -0.111487 13.4694 0.395678 15.2281 1.47258C14.772 2.03246 14.2204 2.50732 13.5989 2.87523C12.696 3.4092 11.6753 3.71228 10.6272 3.75761C9.39143 3.81111 8.1889 4.17404 7.13001 4.81308C6.08249 5.4439 5.2161 6.33493 4.61509 7.39954C4.1195 8.28295 3.82234 9.26366 3.74428 10.2735C3.66583 11.3122 3.79819 12.3561 4.13341 13.3424C4.47055 14.345 5.0649 15.2416 5.85712 15.9428C6.65979 16.6529 7.62894 17.1487 8.67458 17.3842C9.72579 17.6235 10.8199 17.5988 11.8593 17.3126C12.8939 17.0283 13.84 16.4877 14.6101 15.7409C15.596 14.787 16.802 14.0907 18.1212 13.7135C18.5372 13.5935 18.9617 13.5054 19.3911 13.4498Z" fill="#C1D70D"/>
<path d="M20.0001 9.99881C20.0006 10.707 19.9259 11.4133 19.7772 12.1058C19.094 12.1552 18.4179 12.2759 17.7599 12.4659C16.2351 12.9031 14.8418 13.7095 13.7034 14.8136C13.0904 15.4079 12.3373 15.838 11.5139 16.064C10.6817 16.2948 9.80522 16.3153 8.96315 16.1237C8.13036 15.9367 7.35859 15.5418 6.71993 14.9757C6.09511 14.423 5.62635 13.716 5.36046 12.9255C5.08156 12.1058 4.97088 11.2383 5.03503 10.3748C5.09866 9.55202 5.3408 8.75293 5.74462 8.0331C6.23675 7.16274 6.94619 6.43475 7.80372 5.92017C8.67579 5.39386 9.66614 5.0949 10.6839 5.05072C11.9476 4.99616 13.1783 4.63053 14.2667 3.9863C15.0433 3.5266 15.7293 2.92885 16.2909 2.22253C17.4513 3.1592 18.3869 4.34398 19.0288 5.68973C19.6707 7.03547 20.0026 8.50794 20.0001 9.99881Z" fill="#C1D70D"/>
</svg>
