<svg width="12" height="13" viewBox="0 0 12 13" fill="none" xmlns="http://www.w3.org/2000/svg">
<path d="M0.232726 0.199779C0.0864556 0.354594 -2.14754e-07 0.59486 -2.14754e-07 0.905998V12.0225C-2.14754e-07 12.3342 0.0864556 12.5739 0.232726 12.7287L0.269921 12.7649L6.49721 6.53765V6.46426V6.39088L0.269921 0.163086L0.232726 0.199779Z" fill="url(#paint0_linear)"/>
<path d="M8.57262 8.61408L6.49719 6.53764V6.46426V6.39087L8.57312 4.31494L8.61987 4.34158L11.0793 5.73894C11.7815 6.13804 11.7815 6.79098 11.0793 7.19058L8.61987 8.58794L8.57262 8.61408Z" fill="url(#paint1_linear)"/>
<g filter="url(#filter0_i)">
<path d="M8.61983 8.58753L6.49665 6.46436L0.232666 12.7288C0.463884 12.9741 0.846397 13.0043 1.27717 12.76L8.61983 8.58753Z" fill="url(#paint2_linear)"/>
</g>
<path d="M8.61983 4.34089L1.27717 0.168927C0.846397 -0.0758618 0.463884 -0.0452002 0.232666 0.200091L6.49715 6.46458L8.61983 4.34089Z" fill="url(#paint3_linear)"/>
<defs>
<filter id="filter0_i" x="0.232666" y="6.46436" width="8.38721" height="6.46436" filterUnits="userSpaceOnUse" color-interpolation-filters="sRGB">
<feFlood flood-opacity="0" result="BackgroundImageFix"/>
<feBlend mode="normal" in="SourceGraphic" in2="BackgroundImageFix" result="shape"/>
<feColorMatrix in="SourceAlpha" type="matrix" values="0 0 0 0 0 0 0 0 0 0 0 0 0 0 0 0 0 0 127 0" result="hardAlpha"/>
<feOffset dy="-0.15"/>
<feComposite in2="hardAlpha" operator="arithmetic" k2="-1" k3="1"/>
<feColorMatrix type="matrix" values="0 0 0 0 0 0 0 0 0 0 0 0 0 0 0 0 0 0 0.08 0"/>
<feBlend mode="normal" in2="shape" result="effect1_innerShadow"/>
</filter>
<linearGradient id="paint0_linear" x1="5.9452" y1="0.788378" x2="-2.49021" y2="9.22379" gradientUnits="userSpaceOnUse">
<stop stop-color="#00A0FF"/>
<stop offset="0.0066" stop-color="#00A1FF"/>
<stop offset="0.2601" stop-color="#00BEFF"/>
<stop offset="0.5122" stop-color="#00D2FF"/>
<stop offset="0.7604" stop-color="#00DFFF"/>
<stop offset="1" stop-color="#00E3FF"/>
</linearGradient>
<linearGradient id="paint1_linear" x1="11.9934" y1="6.46426" x2="-0.168604" y2="6.46426" gradientUnits="userSpaceOnUse">
<stop stop-color="#FFE000"/>
<stop offset="0.4087" stop-color="#FFBD00"/>
<stop offset="0.7754" stop-color="#FFA500"/>
<stop offset="1" stop-color="#FF9C00"/>
</linearGradient>
<linearGradient id="paint2_linear" x1="7.46681" y1="7.61738" x2="-3.97267" y2="19.0569" gradientUnits="userSpaceOnUse">
<stop stop-color="#FF3A44"/>
<stop offset="1" stop-color="#C31162"/>
</linearGradient>
<linearGradient id="paint3_linear" x1="-1.34494" y1="-3.50049" x2="3.7631" y2="1.60755" gradientUnits="userSpaceOnUse">
<stop stop-color="#32A071"/>
<stop offset="0.0685" stop-color="#2DA771"/>
<stop offset="0.4762" stop-color="#15CF74"/>
<stop offset="0.8009" stop-color="#06E775"/>
<stop offset="1" stop-color="#00F076"/>
</linearGradient>
</defs>
</svg>
