<svg width="167" height="32" viewBox="0 0 167 32" fill="none" xmlns="http://www.w3.org/2000/svg">
<path fill-rule="evenodd" clip-rule="evenodd" d="M11.0858 0H13.1565C15.8005 0.297828 18.4764 1.35677 20.3877 3.40848C19.6232 4.23578 18.8587 5.09617 18.0623 5.89038C16.4695 4.43433 14.4307 3.44157 12.2645 3.47466C10.3531 3.40848 8.4418 4.10341 6.94457 5.29473C5.38364 6.55222 4.26868 8.40538 3.85456 10.3909C3.31301 12.8397 3.75899 15.5533 5.1925 17.6381C6.62602 19.8221 9.07892 21.212 11.5955 21.4105C13.5706 21.5429 15.6412 21.0465 17.234 19.8221C18.7949 18.697 19.7506 16.7777 19.9099 14.7921C19.5276 14.726 19.1135 14.759 18.7312 14.759C16.5332 14.759 14.3351 14.759 12.1689 14.759C12.1689 13.6008 12.1689 12.4426 12.1689 11.3175C15.8642 11.3175 19.5595 11.3175 23.2548 11.3175C23.6052 13.7001 23.4459 16.2151 22.4902 18.4654C21.7575 20.2854 20.4833 21.8077 18.9224 22.9328C14.5263 25.9442 8.25066 25.4809 4.30054 21.9069C1.84764 19.7559 0.350414 16.7115 0 13.5016V11.3175C0.318558 8.17373 1.81578 5.16236 4.14126 3.07756C6.05261 1.32368 8.53737 0.264736 11.0858 0ZM60.9721 10.4571C62.5649 9.1334 64.7629 8.53775 66.7699 9.00104C67.8211 9.19959 68.7449 9.82834 69.5413 10.5895C69.5413 10.1593 69.5413 9.72906 69.5413 9.33196C70.6244 9.33196 71.7075 9.33196 72.7906 9.33196C72.7906 14.1965 72.7906 19.0279 72.7906 23.8925C72.7588 26.0434 72.2172 28.3599 70.7518 29.9483C69.605 31.2389 67.9167 31.8676 66.2602 32.0331H64.7311C63.871 31.9007 62.979 31.7022 62.1826 31.3051C60.558 30.4778 59.2837 28.9886 58.551 27.2678C59.5704 26.8376 60.558 26.3744 61.5774 25.9773C61.8641 26.7053 62.31 27.3671 62.8834 27.8635C64.5081 29.3526 67.3114 29.121 68.6493 27.334C69.5732 26.0765 69.5413 24.455 69.5095 22.9659C68.7768 23.8925 67.7574 24.5543 66.6106 24.7528C64.2851 25.2161 61.8003 24.3226 60.1757 22.5357C58.6148 20.9804 57.8502 18.697 57.9458 16.4798C58.1051 14.1303 59.1882 11.88 60.9721 10.4571ZM62.979 13.1044C61.2906 14.6267 60.9721 17.4064 62.0552 19.3588C62.7242 20.7156 64.1577 21.576 65.623 21.6422C67.0884 21.6091 68.5219 20.7156 69.1909 19.3588C69.828 18.1675 69.8917 16.7115 69.605 15.3878C69.2546 13.8656 68.1078 12.5419 66.6424 12.1448C65.3682 11.8139 63.9665 12.211 62.979 13.1044Z" fill="#4885ED"/>
<path fill-rule="evenodd" clip-rule="evenodd" d="M74.9568 0.794189C76.1036 0.794189 77.2823 0.794189 78.4291 0.794189C78.4291 8.637 78.4291 16.5129 78.4291 24.3557C77.2823 24.3557 76.1036 24.3557 74.9568 24.3557C74.9568 16.5129 74.9568 8.637 74.9568 0.794189Z" fill="#3CBA54"/>
<path fill-rule="evenodd" clip-rule="evenodd" d="M100.25 3.54077C101.302 3.54077 102.385 3.54077 103.436 3.54077C106.59 8.73622 109.712 13.9648 112.833 19.1602C113.025 19.458 113.152 19.8221 113.471 20.0206C113.343 18.8955 113.471 17.7373 113.343 16.6121C113.343 12.244 113.343 7.90892 113.343 3.54077C114.235 3.54077 115.127 3.54077 115.987 3.54077C115.987 10.5894 115.987 17.6049 115.987 24.6535C115.063 24.6535 114.14 24.6535 113.216 24.6535C109.998 19.3588 106.813 13.9979 103.595 8.70313C103.309 8.27293 103.117 7.77655 102.735 7.41254C102.703 7.80964 102.703 8.20675 102.735 8.60385C102.863 9.62971 102.703 10.6887 102.863 11.7145C102.863 16.0165 102.863 20.3515 102.863 24.6535C101.971 24.6535 101.079 24.6535 100.219 24.6535C100.25 17.6049 100.25 10.5563 100.25 3.54077ZM156.954 11.4167C158.132 10.1923 159.853 9.59661 161.509 9.69589C163.07 9.62971 164.631 10.1923 165.778 11.2843C166.288 11.7476 166.542 12.4094 166.925 12.972V13.1706C166.096 13.336 165.364 13.8655 164.567 14.064C164.249 13.6669 164.058 13.1375 163.58 12.8396C162.943 12.3433 162.114 12.244 161.35 12.1778C160.713 12.244 160.076 12.3102 159.502 12.6411C158.77 12.972 158.419 14.0309 158.929 14.6928C159.439 15.4208 160.362 15.5201 161.159 15.7517C162.401 16.0827 163.707 16.2812 164.854 16.8438C165.842 17.3402 166.638 18.2667 166.925 19.3588V21.6752C166.511 23.2305 165.204 24.3888 163.739 24.852C162.146 25.3153 160.426 25.3153 158.865 24.6866C157.432 24.0578 156.253 22.8665 155.584 21.4105C155.488 21.245 155.393 20.9141 155.648 20.8479C156.38 20.4839 157.113 20.153 157.878 19.8882C158.228 20.8479 158.929 21.7414 159.821 22.1716C160.872 22.668 162.178 22.7011 163.229 22.2047C163.835 21.8738 164.408 21.245 164.249 20.4839C164.185 19.7228 163.516 19.2595 162.879 18.9948C161.318 18.4322 159.598 18.3329 158.132 17.5387C157.24 17.0423 156.317 16.3474 156.03 15.2884C155.648 13.9317 156.03 12.4094 156.954 11.4167ZM122.995 10.2915C125.225 9.33188 127.997 9.59661 129.94 11.1519C131.915 12.7073 132.648 15.4208 132.52 17.9027C128.857 17.9027 125.193 17.9027 121.498 17.9027C121.53 19.458 122.231 21.1126 123.569 21.9399C124.27 22.4694 125.13 22.6349 125.99 22.7011C126.818 22.6018 127.646 22.5025 128.347 22.0061C129.016 21.609 129.398 20.8479 129.781 20.1861C130.545 20.5501 131.31 20.881 132.074 21.1788C131.246 23.1313 129.43 24.6535 127.392 25.0175C125.225 25.3815 122.804 24.9182 121.212 23.3298C119.141 21.4436 118.504 18.2998 119.077 15.5532C119.523 13.3029 120.989 11.2843 122.995 10.2915ZM124.174 12.5087C122.9 13.0713 121.976 14.2957 121.657 15.6855C124.365 15.6525 127.073 15.7517 129.749 15.6525C129.526 14.3619 128.729 13.1375 127.551 12.608C126.5 12.1447 125.257 12.0785 124.174 12.5087ZM133.444 10.1923C134.336 10.1923 135.26 10.1923 136.152 10.1923C137.203 13.8324 138.223 17.4725 139.242 21.1126C139.401 20.8479 139.497 20.5501 139.592 20.2523C140.644 16.91 141.695 13.5346 142.778 10.1923C143.67 10.2254 144.562 10.1923 145.454 10.1923C146.632 13.8324 147.716 17.4725 148.926 21.0796C149.404 19.7559 149.691 18.366 150.105 17.0092C150.742 14.7259 151.347 12.4425 152.048 10.1592C152.908 10.1923 153.8 10.1592 154.66 10.1592C153.45 14.2626 152.112 18.3329 150.869 22.4363C150.614 23.1644 150.455 23.8924 150.168 24.6204C149.277 24.5873 148.385 24.6204 147.493 24.6204C146.346 21.0465 145.263 17.4394 144.116 13.8655C144.084 13.8324 143.988 13.7662 143.957 13.7C142.842 17.3402 141.727 20.9803 140.58 24.6204C139.688 24.6204 138.796 24.6204 137.936 24.6204C136.439 19.8221 134.91 15.0237 133.444 10.1923Z" fill="#767676"/>
<path fill-rule="evenodd" clip-rule="evenodd" d="M48.2934 8.83559C50.2047 8.67013 52.1479 9.26578 53.7089 10.424C55.3016 11.6153 56.3529 13.5347 56.5759 15.5533C56.8626 17.5388 56.4803 19.6567 55.3972 21.3444C54.3778 22.9659 52.7213 24.1241 50.9374 24.5874C49.1853 25.0507 47.274 24.8521 45.6175 24.091C43.4194 23.0652 41.7629 20.848 41.3488 18.3661C40.9984 16.3806 41.2851 14.2296 42.3363 12.5088C43.5787 10.3909 45.8723 9.00105 48.2934 8.83559ZM45.936 13.3361C44.6936 14.6267 44.2795 16.6784 44.8529 18.3992C45.3308 20.2523 47.0828 21.7084 48.9623 21.6091C50.0454 21.6753 51.0967 21.1458 51.8931 20.3847C53.5177 18.697 53.7407 15.7518 52.3709 13.8325C51.6064 12.7074 50.3003 12.0455 48.9623 12.0124C47.8155 12.0455 46.7006 12.5088 45.936 13.3361Z" fill="#F4C20D"/>
<path fill-rule="evenodd" clip-rule="evenodd" d="M30.4542 9.001C32.4611 8.57081 34.6273 8.96791 36.3794 10.093C37.8448 11.0196 38.9916 12.5419 39.5013 14.2626C40.2021 16.6784 39.8835 19.4912 38.45 21.576C37.3988 23.1313 35.7741 24.1902 34.0221 24.6204C31.6647 25.2161 29.0525 24.6535 27.1731 23.0651C24.4653 20.848 23.6052 16.6453 25.0706 13.4353C25.9944 11.152 28.0969 9.46429 30.4542 9.001ZM28.1924 14.7259C27.5872 16.1489 27.6509 17.8697 28.3836 19.2595C28.9251 20.3847 29.9764 21.212 31.1869 21.5098C32.3018 21.7414 33.5442 21.576 34.4999 20.848C36.475 19.4581 36.9846 16.4798 35.8697 14.3619C35.1689 12.939 33.6716 12.0455 32.1426 12.0124C30.4542 12.0455 28.8614 13.1375 28.1924 14.7259ZM83.1756 10.0269C84.9596 8.80245 87.285 8.43844 89.2919 9.19955C90.598 9.62975 91.713 10.5894 92.5731 11.7146C93.2739 12.6411 93.6243 13.7663 94.1022 14.8252C90.6617 16.2813 87.2213 17.8035 83.7809 19.2595C84.3224 20.3185 85.2463 21.2451 86.3931 21.5098C87.3806 21.6753 88.4 21.6753 89.3238 21.212C90.1202 20.8149 90.7573 20.153 91.2351 19.3919C92.1271 20.0207 93.0509 20.6494 93.9429 21.2782C92.8598 22.7673 91.3626 24.0579 89.6105 24.5212C87.4762 25.1499 85.0551 24.7859 83.1756 23.5284C81.2324 22.2378 79.99 19.8883 79.8945 17.4726C79.8945 16.546 79.8308 15.6194 80.0856 14.7259C80.4997 12.8728 81.5828 11.0858 83.1756 10.0269ZM83.2075 16.546C85.4692 15.5201 87.7629 14.5936 90.0246 13.5677C89.4512 12.4426 88.2407 11.88 87.062 11.9131C84.8958 12.1447 83.0163 14.2957 83.2075 16.546Z" fill="#DB3236"/>
</svg>
