<svg width="38" height="12" viewBox="0 0 38 12" fill="none" xmlns="http://www.w3.org/2000/svg">
<path d="M3.02881 4.97322C4.62392 3.93424 6.14971 3.28538 7.09744 3.18165C7.16838 3.17116 7.24535 3.16622 7.32901 3.16695C7.41268 3.16622 7.4897 3.17116 7.56064 3.18165C8.50837 3.28538 10.0342 3.93424 11.6292 4.97322C11.7199 5.0324 11.8094 5.0918 11.898 5.15178V0H0V7.53627C0.654514 6.74829 1.73107 5.81861 3.02881 4.97322Z" fill="white"/>
<path d="M7.32901 3.52246C6.3919 3.70451 4.90981 4.48588 3.3846 5.66602C1.59148 7.05355 0.275446 8.57691 0 9.4949V12H11.898V6.17095C11.6973 6.00154 11.4889 5.83289 11.2735 5.66602C9.74816 4.48588 8.26613 3.70451 7.32901 3.52246Z" fill="white"/>
<path d="M14.8702 5V1.99897H15.5047V3.23719H16.7927V1.99897H17.4258V5H16.7927V3.76032H15.5047V5H14.8702ZM18.4662 5H17.7862L18.8223 1.99897H19.6399L20.6745 5H19.9945L19.2428 2.68475H19.2194L18.4662 5ZM18.4237 3.82039H20.0297V4.31568H18.4237V3.82039ZM23.9268 4.49299L23.8902 5.70923H23.2864V5H23.0754V4.49299H23.9268ZM21.0357 5V1.99897H21.6452V4.49006H22.8937V1.99897H23.5106V5H21.0357ZM25.4987 2.32134H26.1699C26.4102 2.32134 26.6232 2.37214 26.8088 2.47374C26.9954 2.57534 27.1414 2.71845 27.2469 2.90309C27.3534 3.08674 27.4066 3.30264 27.4066 3.55077C27.4066 3.79109 27.3534 4.00063 27.2469 4.1794C27.1414 4.35818 26.9954 4.49739 26.8088 4.59703C26.6232 4.6957 26.4102 4.74503 26.1699 4.74503H25.4987C25.2574 4.74503 25.0435 4.69618 24.8569 4.59849C24.6703 4.49983 24.5238 4.36111 24.4173 4.18234C24.3118 4.00356 24.2591 3.79255 24.2591 3.54931C24.2591 3.30117 24.3123 3.08528 24.4188 2.90162C24.5262 2.71699 24.6733 2.57436 24.8599 2.47374C25.0464 2.37214 25.2594 2.32134 25.4987 2.32134ZM25.4987 2.8518C25.3698 2.8518 25.256 2.87769 25.1573 2.92946C25.0596 2.98026 24.9834 3.05744 24.9287 3.16099C24.874 3.26454 24.8467 3.39398 24.8467 3.54931C24.8467 3.69779 24.8745 3.82137 24.9302 3.92004C24.9868 4.01871 25.064 4.09246 25.1617 4.14131C25.2594 4.19015 25.3717 4.21457 25.4987 4.21457H26.1743C26.3022 4.21457 26.4141 4.18966 26.5098 4.13984C26.6065 4.09002 26.6813 4.01577 26.734 3.91711C26.7878 3.81844 26.8146 3.69633 26.8146 3.55077C26.8146 3.39544 26.7878 3.266 26.734 3.16245C26.6813 3.0589 26.6065 2.98124 26.5098 2.92946C26.4141 2.87769 26.3022 2.8518 26.1743 2.8518H25.4987ZM26.1347 1.94621V5.12309H25.5324V1.94621H26.1347ZM30.6319 3.49948C30.6319 3.82674 30.5698 4.10516 30.4458 4.33473C30.3227 4.5643 30.1546 4.73966 29.9417 4.86079C29.7297 4.98095 29.4913 5.04103 29.2266 5.04103C28.9599 5.04103 28.7206 4.98046 28.5086 4.85933C28.2966 4.73819 28.129 4.56284 28.006 4.33327C27.8829 4.1037 27.8213 3.82577 27.8213 3.49948C27.8213 3.17222 27.8829 2.89381 28.006 2.66424C28.129 2.43466 28.2966 2.2598 28.5086 2.13964C28.7206 2.0185 28.9599 1.95794 29.2266 1.95794C29.4913 1.95794 29.7297 2.0185 29.9417 2.13964C30.1546 2.2598 30.3227 2.43466 30.4458 2.66424C30.5698 2.89381 30.6319 3.17222 30.6319 3.49948ZM29.9886 3.49948C29.9886 3.2875 29.9568 3.10872 29.8933 2.96317C29.8308 2.81761 29.7424 2.70722 29.6281 2.632C29.5138 2.55678 29.38 2.51917 29.2266 2.51917C29.0732 2.51917 28.9394 2.55678 28.8251 2.632C28.7108 2.70722 28.6219 2.81761 28.5584 2.96317C28.4959 3.10872 28.4646 3.2875 28.4646 3.49948C28.4646 3.71147 28.4959 3.89024 28.5584 4.0358C28.6219 4.18136 28.7108 4.29175 28.8251 4.36697C28.9394 4.44219 29.0732 4.4798 29.2266 4.4798C29.38 4.4798 29.5138 4.44219 29.6281 4.36697C29.7424 4.29175 29.8308 4.18136 29.8933 4.0358C29.9568 3.89024 29.9886 3.71147 29.9886 3.49948ZM31.1019 5V1.99897H31.7364V3.23719H33.0244V1.99897H33.6574V5H33.0244V3.76032H31.7364V5H31.1019ZM34.0179 5.72388V4.49445H34.2216C34.291 4.44463 34.3545 4.3743 34.4121 4.28344C34.4697 4.19162 34.5191 4.06511 34.5601 3.90392C34.6011 3.74175 34.6304 3.52977 34.648 3.26796L34.733 1.99897H36.7185V4.49445H37.0468V5.72095H36.4372V5H34.6275V5.72388H34.0179ZM34.9543 4.49445H36.109V2.5221H35.3045L35.2576 3.26796C35.2449 3.46627 35.2239 3.64211 35.1946 3.79548C35.1663 3.94886 35.1316 4.08318 35.0905 4.19845C35.0505 4.31275 35.0051 4.41142 34.9543 4.49445ZM16.2608 8.25184V8.74713H14.8922V8.25184H16.2608ZM17.5969 10.7239V9.49445H17.8005C17.8699 9.44463 17.9334 9.3743 17.991 9.28344C18.0487 9.19162 18.098 9.06511 18.139 8.90392C18.1801 8.74175 18.2094 8.52977 18.227 8.26796L18.3119 6.99897H20.2975V9.49445H20.6257V10.721H20.0161V10H18.2064V10.7239H17.5969ZM18.5332 9.49445H19.6879V7.5221H18.8834L18.8365 8.26796C18.8238 8.46627 18.8028 8.64211 18.7735 8.79548C18.7452 8.94886 18.7105 9.08318 18.6695 9.19845C18.6294 9.31275 18.584 9.41142 18.5332 9.49445ZM21.0115 10V6.99897H23.0337V7.5221H21.646V8.23719H22.9296V8.76032H21.646V9.47687H23.0395V10H21.0115ZM23.4238 7.5221V6.99897H25.8885V7.5221H24.9698V10H24.3426V7.5221H23.4238ZM28.598 10H27.9649V7.5177H27.537C27.4149 7.5177 27.3133 7.53577 27.2323 7.57192C27.1521 7.60709 27.0921 7.65886 27.052 7.72724C27.012 7.79563 26.9919 7.87964 26.9919 7.97928C26.9919 8.07795 27.012 8.1605 27.052 8.22693C27.0921 8.29336 27.1521 8.34318 27.2323 8.37639C27.3124 8.40961 27.413 8.42622 27.5341 8.42622H28.2228V8.93616H27.4315C27.202 8.93616 27.0056 8.89806 26.8425 8.82186C26.6793 8.74566 26.5548 8.63625 26.4688 8.49362C26.3828 8.35002 26.3399 8.17857 26.3399 7.97928C26.3399 7.78097 26.3819 7.60855 26.4659 7.46202C26.5509 7.31451 26.6735 7.2007 26.8337 7.12059C26.9949 7.03951 27.1888 6.99897 27.4154 6.99897H28.598V10ZM26.9787 8.6343H27.6631L26.9333 10H26.2329L26.9787 8.6343ZM29.1193 6.99897H29.9017L30.7282 9.01529H30.7634L31.5898 6.99897H32.3723V10H31.7569V8.04669H31.732L30.9553 9.98535H30.5362L29.7596 8.03936H29.7347V10H29.1193V6.99897Z" fill="white"/>
</svg>
