<svg width="51" height="12" viewBox="0 0 51 12" fill="none" xmlns="http://www.w3.org/2000/svg">
<path d="M3.02881 4.97322C4.62392 3.93424 6.14971 3.28538 7.09744 3.18165C7.16838 3.17116 7.24535 3.16622 7.32901 3.16695C7.41268 3.16622 7.4897 3.17116 7.56064 3.18165C8.50837 3.28538 10.0342 3.93424 11.6292 4.97322C11.7199 5.0324 11.8094 5.0918 11.898 5.15178V0H0V7.53627C0.654514 6.74829 1.73107 5.81861 3.02881 4.97322Z" fill="white"/>
<path d="M7.32901 3.52237C6.3919 3.70441 4.90981 4.48579 3.3846 5.66593C1.59148 7.05346 0.275446 8.57682 0 9.49481V11.9999H11.898V6.17086C11.6973 6.00145 11.4889 5.8328 11.2735 5.66593C9.74816 4.48579 8.26613 3.70441 7.32901 3.52237Z" fill="white"/>
<path d="M47.3626 6.99896L47.3054 9.10027H46.7691L46.7105 6.99896H47.3626ZM47.0372 10.0381C46.9405 10.0381 46.8575 10.0039 46.7881 9.93552C46.7188 9.86616 46.6846 9.78312 46.6856 9.68641C46.6846 9.59068 46.7188 9.50862 46.7881 9.44023C46.8575 9.37185 46.9405 9.33766 47.0372 9.33766C47.1301 9.33766 47.2116 9.37185 47.282 9.44023C47.3523 9.50862 47.388 9.59068 47.3889 9.68641C47.388 9.75089 47.3709 9.80999 47.3376 9.86372C47.3054 9.91647 47.2629 9.95897 47.2102 9.9912C47.1574 10.0225 47.0998 10.0381 47.0372 10.0381Z" fill="white"/>
<path d="M43.9004 10V6.99896H45.102C45.3228 6.99896 45.5069 7.03169 45.6544 7.09714C45.8019 7.16259 45.9128 7.25344 45.987 7.3697C46.0613 7.48497 46.0984 7.61783 46.0984 7.76827C46.0984 7.8855 46.075 7.98856 46.0281 8.07746C45.9812 8.16538 45.9167 8.23767 45.8347 8.29433C45.7536 8.35001 45.6608 8.38958 45.5562 8.41302V8.44233C45.6705 8.44721 45.7775 8.47945 45.8771 8.53904C45.9778 8.59863 46.0593 8.68216 46.1219 8.78962C46.1844 8.8961 46.2156 9.0231 46.2156 9.17061C46.2156 9.32984 46.1761 9.47198 46.0969 9.59703C46.0188 9.72109 45.903 9.81927 45.7497 9.89156C45.5963 9.96385 45.4073 10 45.1826 10H43.9004ZM44.5349 9.48126H45.0522C45.229 9.48126 45.3579 9.44756 45.439 9.38015C45.5201 9.31177 45.5606 9.22092 45.5606 9.1076C45.5606 9.02456 45.5406 8.95129 45.5006 8.8878C45.4605 8.8243 45.4033 8.77448 45.3291 8.73833C45.2558 8.70219 45.1684 8.68411 45.0668 8.68411H44.5349V9.48126ZM44.5349 8.25477H45.0053C45.0922 8.25477 45.1694 8.23962 45.2368 8.20934C45.3052 8.17808 45.3589 8.13412 45.398 8.07746C45.438 8.0208 45.4581 7.9529 45.4581 7.87378C45.4581 7.76534 45.4195 7.67791 45.3423 7.61148C45.2661 7.54505 45.1577 7.51183 45.017 7.51183H44.5349V8.25477Z" fill="white"/>
<path d="M43.4297 8.49946C43.4297 8.82672 43.3676 9.10514 43.2436 9.33471C43.1205 9.56428 42.9525 9.73964 42.7395 9.86077C42.5275 9.98093 42.2891 10.041 42.0244 10.041C41.7577 10.041 41.5184 9.98044 41.3064 9.85931C41.0944 9.73817 40.9269 9.56282 40.8038 9.33325C40.6807 9.10367 40.6191 8.82575 40.6191 8.49946C40.6191 8.1722 40.6807 7.89379 40.8038 7.66421C40.9269 7.43464 41.0944 7.25978 41.3064 7.13962C41.5184 7.01848 41.7577 6.95792 42.0244 6.95792C42.2891 6.95792 42.5275 7.01848 42.7395 7.13962C42.9525 7.25978 43.1205 7.43464 43.2436 7.66421C43.3676 7.89379 43.4297 8.1722 43.4297 8.49946ZM42.7864 8.49946C42.7864 8.28748 42.7546 8.1087 42.6911 7.96314C42.6286 7.81759 42.5402 7.7072 42.4259 7.63198C42.3116 7.55676 42.1778 7.51914 42.0244 7.51914C41.871 7.51914 41.7372 7.55676 41.6229 7.63198C41.5086 7.7072 41.4197 7.81759 41.3562 7.96314C41.2937 8.1087 41.2624 8.28748 41.2624 8.49946C41.2624 8.71145 41.2937 8.89022 41.3562 9.03578C41.4197 9.18134 41.5086 9.29173 41.6229 9.36695C41.7372 9.44217 41.871 9.47978 42.0244 9.47978C42.1778 9.47978 42.3116 9.44217 42.4259 9.36695C42.5402 9.29173 42.6286 9.18134 42.6911 9.03578C42.7546 8.89022 42.7864 8.71145 42.7864 8.49946Z" fill="white"/>
<path d="M39.7355 10L38.7713 8.72075H38.5544V10H37.9199V6.99896H38.5544V8.19762H38.6819L39.6783 6.99896H40.4682L39.2973 8.39104L40.5224 10H39.7355Z" fill="white"/>
<path d="M34.8857 6.99896H35.5188V8.88633H35.5437L36.8405 6.99896H37.3959V10H36.7614V8.11116H36.7394L35.4352 10H34.8857V6.99896Z" fill="white"/>
<path d="M31.8066 10V6.99896H32.4411V8.23718H33.7292V6.99896H34.3622V10H33.7292V8.76031H32.4411V10H31.8066Z" fill="white"/>
<path d="M28.7285 10V6.99896H29.363V8.23718H30.6511V6.99896H31.2841V10H30.6511V8.76031H29.363V10H28.7285Z" fill="white"/>
<path d="M26.2021 10V6.99896H28.2243V7.52209H26.8366V8.23718H28.1203V8.76031H26.8366V9.47687H28.2302V10H26.2021Z" fill="white"/>
<path d="M21.9941 6.99896H22.614V9.49005H23.4756V6.99896H24.0925V9.49005H24.9439V6.99896H25.5608V10H21.9941V6.99896Z" fill="white"/>
<path d="M21.4033 8.49946C21.4033 8.82672 21.3413 9.10514 21.2172 9.33471C21.0941 9.56428 20.9261 9.73964 20.7131 9.86077C20.5011 9.98093 20.2628 10.041 19.998 10.041C19.7313 10.041 19.492 9.98044 19.28 9.85931C19.068 9.73817 18.9005 9.56282 18.7774 9.33325C18.6543 9.10367 18.5928 8.82575 18.5928 8.49946C18.5928 8.1722 18.6543 7.89379 18.7774 7.66421C18.9005 7.43464 19.068 7.25978 19.28 7.13962C19.492 7.01848 19.7313 6.95792 19.998 6.95792C20.2628 6.95792 20.5011 7.01848 20.7131 7.13962C20.9261 7.25978 21.0941 7.43464 21.2172 7.66421C21.3413 7.89379 21.4033 8.1722 21.4033 8.49946ZM20.76 8.49946C20.76 8.28748 20.7283 8.1087 20.6648 7.96314C20.6023 7.81759 20.5138 7.7072 20.3995 7.63198C20.2853 7.55676 20.1514 7.51914 19.998 7.51914C19.8447 7.51914 19.7108 7.55676 19.5965 7.63198C19.4822 7.7072 19.3933 7.81759 19.3298 7.96314C19.2673 8.1087 19.2361 8.28748 19.2361 8.49946C19.2361 8.71145 19.2673 8.89022 19.3298 9.03578C19.3933 9.18134 19.4822 9.29173 19.5965 9.36695C19.7108 9.44217 19.8447 9.47978 19.998 9.47978C20.1514 9.47978 20.2853 9.44217 20.3995 9.36695C20.5138 9.29173 20.6023 9.18134 20.6648 9.03578C20.7283 8.89022 20.76 8.71145 20.76 8.49946Z" fill="white"/>
<path d="M14.8701 6.99896H15.6526L16.4791 9.01528H16.5142L17.3407 6.99896H18.1232V10H17.5077V8.04669H17.4828L16.7062 9.98534H16.2871L15.5105 8.03936H15.4856V10H14.8701V6.99896Z" fill="white"/>
<path d="M48.6373 3.10823H49.3524C49.5908 3.10823 49.7959 3.14682 49.9679 3.22399C50.1408 3.30019 50.2741 3.40814 50.3679 3.54784C50.4617 3.68753 50.5081 3.85214 50.5071 4.04166C50.5081 4.2302 50.4617 4.39676 50.3679 4.54134C50.2741 4.68495 50.1408 4.79729 49.9679 4.87837C49.7959 4.95945 49.5908 5 49.3524 5H48.2314V1.99896H48.8645V4.49005H49.3524C49.4667 4.49005 49.563 4.46954 49.6411 4.42851C49.7193 4.3865 49.7784 4.33131 49.8184 4.26293C49.8594 4.19357 49.8795 4.11786 49.8785 4.0358C49.8795 3.91661 49.8345 3.81599 49.7437 3.73393C49.6538 3.6509 49.5234 3.60938 49.3524 3.60938H48.6373V3.10823Z" fill="white"/>
<path d="M47.7651 3.0496H47.1233C47.1115 2.96656 47.0876 2.89281 47.0515 2.82833C47.0153 2.76288 46.9689 2.7072 46.9123 2.66128C46.8556 2.61537 46.7901 2.5802 46.7159 2.55578C46.6426 2.53136 46.563 2.51914 46.477 2.51914C46.3217 2.51914 46.1864 2.55773 46.0711 2.63491C45.9559 2.71111 45.8665 2.82247 45.803 2.96901C45.7395 3.11456 45.7077 3.29138 45.7077 3.49946C45.7077 3.7134 45.7395 3.89315 45.803 4.03871C45.8675 4.18427 45.9573 4.29417 46.0726 4.36841C46.1879 4.44266 46.3212 4.47978 46.4727 4.47978C46.5576 4.47978 46.6363 4.46855 46.7086 4.44608C46.7818 4.42361 46.8468 4.39088 46.9035 4.3479C46.9601 4.30394 47.007 4.2507 47.0441 4.18818C47.0822 4.12565 47.1086 4.05434 47.1233 3.97424L47.7651 3.97717C47.7485 4.11491 47.707 4.24777 47.6405 4.37574C47.5751 4.50274 47.4867 4.61655 47.3753 4.71717C47.2649 4.81681 47.133 4.89594 46.9797 4.95455C46.8273 5.01219 46.6548 5.04101 46.4624 5.04101C46.1947 5.04101 45.9554 4.98044 45.7444 4.85931C45.5343 4.73817 45.3683 4.56282 45.2462 4.33325C45.125 4.10367 45.0645 3.82575 45.0645 3.49946C45.0645 3.1722 45.126 2.89379 45.2491 2.66421C45.3722 2.43464 45.5392 2.25978 45.7502 2.13962C45.9612 2.01848 46.1986 1.95792 46.4624 1.95792C46.6363 1.95792 46.7975 1.98234 46.946 2.03118C47.0954 2.08003 47.2278 2.15134 47.3431 2.24512C47.4583 2.33793 47.5521 2.45174 47.6244 2.58655C47.6977 2.72136 47.7446 2.87571 47.7651 3.0496Z" fill="white"/>
<path d="M42.5908 5V1.99896H44.613V2.52209H43.2253V3.23718H44.509V3.76031H43.2253V4.47687H44.6189V5H42.5908Z" fill="white"/>
<path d="M39.7197 2.52209V1.99896H42.1844V2.52209H41.2657V5H40.6385V2.52209H39.7197Z" fill="white"/>
<path d="M36.7998 1.99896H37.4328V3.88633H37.4577L38.7546 1.99896H39.3099V4.99999H38.6755V3.11116H38.6535L37.3493 4.99999H36.7998V1.99896ZM38.3472 1.21353H38.7824C38.7814 1.39133 38.7155 1.53444 38.5846 1.64288C38.4547 1.75131 38.2788 1.80553 38.0571 1.80553C37.8343 1.80553 37.658 1.75131 37.5281 1.64288C37.3982 1.53444 37.3332 1.39133 37.3332 1.21353H37.7655C37.7645 1.28094 37.786 1.34151 37.8299 1.39523C37.8749 1.44896 37.9506 1.47583 38.0571 1.47583C38.1606 1.47583 38.2349 1.44945 38.2798 1.3967C38.3247 1.34395 38.3472 1.28289 38.3472 1.21353Z" fill="white"/>
<path d="M34.2307 5H33.5508L34.5868 1.99896H35.4044L36.439 5H35.7591L35.0073 2.68475H34.9839L34.2307 5ZM34.1882 3.82039H35.7942V4.31568H34.1882V3.82039Z" fill="white"/>
<path d="M33.673 1.99896V2.52209H32.3161V5H31.6816V1.99896H33.673Z" fill="white"/>
<path d="M29.1553 5V1.99896H31.1775V2.52209H29.7898V3.23718H31.0734V3.76031H29.7898V4.47687H31.1833V5H29.1553Z" fill="white"/>
<path d="M26.4834 5V1.99896H27.6674C27.895 1.99896 28.0889 2.04243 28.2491 2.12938C28.4094 2.21535 28.5315 2.33502 28.6155 2.48839C28.7005 2.64078 28.743 2.81663 28.743 3.01591C28.743 3.2152 28.7 3.39104 28.614 3.54344C28.528 3.69584 28.4035 3.81453 28.2404 3.89952C28.0782 3.98451 27.8818 4.027 27.6513 4.027H26.8966V3.51853H27.5487C27.6708 3.51853 27.7714 3.49753 27.8506 3.45552C27.9307 3.41254 27.9903 3.35343 28.0293 3.27821C28.0694 3.20201 28.0894 3.11458 28.0894 3.01591C28.0894 2.91627 28.0694 2.82933 28.0293 2.75508C27.9903 2.67986 27.9307 2.62174 27.8506 2.58071C27.7705 2.5387 27.6689 2.5177 27.5458 2.5177H27.1179V5H26.4834Z" fill="white"/>
<path d="M23.957 5V1.99896H25.9792V2.52209H24.5915V3.23718H25.8752V3.76031H24.5915V4.47687H25.9851V5H23.957Z" fill="white"/>
<path d="M21.0869 2.52209V1.99896H23.5516V2.52209H22.6329V5H22.0057V2.52209H21.0869Z" fill="white"/>
<path d="M20.7456 3.0496H20.1037C20.092 2.96656 20.0681 2.89281 20.0319 2.82833C19.9958 2.76288 19.9494 2.7072 19.8927 2.66128C19.8361 2.61537 19.7706 2.5802 19.6964 2.55578C19.6231 2.53136 19.5435 2.51914 19.4575 2.51914C19.3022 2.51914 19.1669 2.55773 19.0516 2.63491C18.9363 2.71111 18.847 2.82247 18.7835 2.96901C18.72 3.11456 18.6882 3.29138 18.6882 3.49946C18.6882 3.7134 18.72 3.89315 18.7835 4.03871C18.8479 4.18427 18.9378 4.29417 19.0531 4.36841C19.1684 4.44266 19.3017 4.47978 19.4531 4.47978C19.5381 4.47978 19.6168 4.46855 19.689 4.44608C19.7623 4.42361 19.8273 4.39088 19.8839 4.3479C19.9406 4.30394 19.9875 4.2507 20.0246 4.18818C20.0627 4.12565 20.0891 4.05434 20.1037 3.97424L20.7456 3.97717C20.729 4.11491 20.6874 4.24777 20.621 4.37574C20.5556 4.50274 20.4671 4.61655 20.3558 4.71717C20.2454 4.81681 20.1135 4.89594 19.9601 4.95455C19.8077 5.01219 19.6353 5.04101 19.4429 5.04101C19.1752 5.04101 18.9359 4.98044 18.7248 4.85931C18.5148 4.73817 18.3487 4.56282 18.2266 4.33325C18.1055 4.10367 18.0449 3.82575 18.0449 3.49946C18.0449 3.1722 18.1065 2.89379 18.2296 2.66421C18.3526 2.43464 18.5197 2.25978 18.7307 2.13962C18.9417 2.01848 19.1791 1.95792 19.4429 1.95792C19.6168 1.95792 19.7779 1.98234 19.9264 2.03118C20.0759 2.08003 20.2083 2.15134 20.3235 2.24512C20.4388 2.33793 20.5326 2.45174 20.6049 2.58655C20.6782 2.72136 20.725 2.87571 20.7456 3.0496Z" fill="white"/>
<path d="M17.6279 3.49946C17.6279 3.82672 17.5659 4.10514 17.4418 4.33471C17.3187 4.56428 17.1507 4.73964 16.9377 4.86077C16.7258 4.98093 16.4874 5.04101 16.2227 5.04101C15.956 5.04101 15.7166 4.98044 15.5046 4.85931C15.2926 4.73817 15.1251 4.56282 15.002 4.33325C14.8789 4.10367 14.8174 3.82575 14.8174 3.49946C14.8174 3.1722 14.8789 2.89379 15.002 2.66421C15.1251 2.43464 15.2926 2.25978 15.5046 2.13962C15.7166 2.01848 15.956 1.95792 16.2227 1.95792C16.4874 1.95792 16.7258 2.01848 16.9377 2.13962C17.1507 2.25978 17.3187 2.43464 17.4418 2.66421C17.5659 2.89379 17.6279 3.1722 17.6279 3.49946ZM16.9846 3.49946C16.9846 3.28748 16.9529 3.1087 16.8894 2.96315C16.8269 2.81759 16.7385 2.7072 16.6242 2.63198C16.5099 2.55676 16.376 2.51914 16.2227 2.51914C16.0693 2.51914 15.9354 2.55676 15.8211 2.63198C15.7068 2.7072 15.618 2.81759 15.5545 2.96315C15.4919 3.1087 15.4607 3.28748 15.4607 3.49946C15.4607 3.71145 15.4919 3.89022 15.5545 4.03578C15.618 4.18134 15.7068 4.29173 15.8211 4.36695C15.9354 4.44217 16.0693 4.47978 16.2227 4.47978C16.376 4.47978 16.5099 4.44217 16.6242 4.36695C16.7385 4.29173 16.8269 4.18134 16.8894 4.03578C16.9529 3.89022 16.9846 3.71145 16.9846 3.49946Z" fill="white"/>
</svg>
