<svg>
  <symbol xmlns="http://www.w3.org/2000/svg" viewBox="0 0 23 25" id="24">
    <path d="M3.20528 15.4852C2.608 14.2416 2.29858 12.8795 2.3 11.5H0C-0.000934609 13.5191 0.530024 15.5029 1.53944 17.2516C2.54885 19.0003 4.00109 20.4522 5.75 21.4613V18.6829C4.67233 17.8217 3.80255 16.7287 3.20528 15.4852Z"></path>
    <path d="M22.9425 10.35C22.3664 4.53905 17.4627 5.76544e-06 11.5 5.76544e-06C9.71437 -0.0017839 7.95295 0.413099 6.35583 1.21166C4.75871 2.01022 3.36995 3.17042 2.3 4.6V1.72501H0V8.625H6.9V6.325H3.89275C4.94407 4.77996 6.44092 3.59168 8.18417 2.91824C9.92741 2.24481 11.8344 2.11816 13.6514 2.55515C15.4684 2.99214 17.1092 3.97204 18.3556 5.36448C19.602 6.75693 20.3949 8.49589 20.6287 10.35H22.9425Z"></path>
    <path d="M14.5254 22H8.57227V20.7109L11.3145 17.8281C11.9902 17.0586 12.3281 16.4473 12.3281 15.9941C12.3281 15.627 12.248 15.3477 12.0879 15.1562C11.9277 14.9648 11.6953 14.8691 11.3906 14.8691C11.0898 14.8691 10.8457 14.998 10.6582 15.2559C10.4707 15.5098 10.377 15.8281 10.377 16.2109H8.39648C8.39648 15.6875 8.52734 15.2051 8.78906 14.7637C9.05078 14.3184 9.41406 13.9707 9.87891 13.7207C10.3438 13.4707 10.8633 13.3457 11.4375 13.3457C12.3594 13.3457 13.0684 13.5586 13.5645 13.9844C14.0645 14.4102 14.3145 15.0215 14.3145 15.8184C14.3145 16.1543 14.252 16.4824 14.127 16.8027C14.002 17.1191 13.8066 17.4531 13.541 17.8047C13.2793 18.1523 12.8555 18.6191 12.2695 19.2051L11.168 20.4766H14.5254V22ZM20.7363 18.666H21.6035V20.1895H20.7363V22H18.7617V20.1895H15.4629L15.3457 18.9824L18.7617 13.4863V13.4688H20.7363V18.666ZM17.2266 18.666H18.7617V16.041L18.6387 16.2402L17.2266 18.666Z"></path>
  </symbol>
  <symbol xmlns="http://www.w3.org/2000/svg" viewBox="0 0 20 16" id="twitter">
    <path d="M19.7024 2.11421C19.0066 2.42254 18.2591 2.63088 17.4733 2.72504C18.2841 2.23987 18.8907 1.47627 19.1799 0.576711C18.4181 1.0292 17.5844 1.34771 16.7149 1.51838C16.1302 0.894098 15.3558 0.480316 14.5119 0.341272C13.6679 0.202229 12.8017 0.345703 12.0476 0.749421C11.2936 1.15314 10.6939 1.79451 10.3417 2.57396C9.98954 3.35342 9.90454 4.22734 10.0999 5.06004C8.55633 4.98254 7.04629 4.58134 5.66778 3.88247C4.28928 3.18359 3.07313 2.20268 2.09826 1.00338C1.76493 1.57838 1.57326 2.24504 1.57326 2.95504C1.57289 3.59421 1.73029 4.22358 2.03149 4.78732C2.3327 5.35106 2.7684 5.83174 3.29993 6.18671C2.68349 6.1671 2.08066 6.00053 1.5416 5.70088V5.75088C1.54153 6.64733 1.85162 7.51619 2.41925 8.21004C2.98687 8.90389 3.77707 9.37999 4.65576 9.55755C4.08391 9.71231 3.48438 9.7351 2.90243 9.62421C3.15034 10.3956 3.63326 11.0701 4.28357 11.5533C4.93388 12.0366 5.71903 12.3044 6.5291 12.3192C5.15396 13.3987 3.45567 13.9843 1.70743 13.9817C1.39775 13.9818 1.08833 13.9637 0.780762 13.9275C2.55533 15.0685 4.62105 15.6741 6.73076 15.6717C13.8724 15.6717 17.7766 9.75671 17.7766 4.62671C17.7766 4.46004 17.7724 4.29171 17.7649 4.12504C18.5243 3.57586 19.1799 2.89579 19.7008 2.11671L19.7024 2.11421Z"/>
  </symbol>
  <symbol xmlns="http://www.w3.org/2000/svg" viewBox="0 0 12 14" id="apple">
    <path d="M10.0227 7.44515C10.0374 6.36442 10.6488 5.3418 11.6189 4.77574C11.0069 3.94618 9.98193 3.42021 8.91554 3.38854C7.77813 3.27523 6.67547 4.03456 6.09587 4.03456C5.50505 4.03456 4.61266 3.3998 3.65171 3.41856C2.39915 3.45697 1.23145 4.13292 0.622057 5.17234C-0.687904 7.32508 0.289209 10.4889 1.54404 12.229C2.17186 13.0811 2.9056 14.0329 3.86569 13.9991C4.80519 13.9621 5.15608 13.4305 6.29013 13.4305C7.41367 13.4305 7.74287 13.9991 8.72243 13.9777C9.73056 13.9621 10.3657 13.1218 10.9715 12.2616C11.4226 11.6545 11.7697 10.9835 12 10.2734C10.8153 9.79781 10.0241 8.66613 10.0227 7.44515Z"></path>
    <path d="M8.17246 2.24416C8.72213 1.61783 8.99293 0.81279 8.92736 0C8.08758 0.0837203 7.31186 0.464684 6.75476 1.06698C6.20999 1.65546 5.92649 2.44634 5.98009 3.22806C6.82017 3.23627 7.64604 2.86564 8.17246 2.24416Z"></path>
  </symbol>
  <symbol xmlns="http://www.w3.org/2000/svg" viewBox="0 0 14 13" id="comment">
    <path d="M0 2C0 1.46957 0.210714 0.960859 0.585787 0.585787C0.960859 0.210714 1.46957 0 2 0H11.3333C11.8638 0 12.3725 0.210714 12.7475 0.585787C13.1226 0.960859 13.3333 1.46957 13.3333 2V8C13.3333 8.53043 13.1226 9.03914 12.7475 9.41421C12.3725 9.78929 11.8638 10 11.3333 10H8.12C7.97293 9.99989 7.82996 10.0484 7.71333 10.138L4.81333 12.3693C3.93533 13.044 2.66667 12.42 2.66667 11.3133V10.6667C2.66667 10.4899 2.59643 10.3203 2.4714 10.1953C2.34638 10.0702 2.17681 10 2 10C1.46957 10 0.960859 9.78929 0.585787 9.41421C0.210714 9.03914 0 8.53043 0 8V2ZM2 1.33333C1.82319 1.33333 1.65362 1.40357 1.5286 1.5286C1.40357 1.65362 1.33333 1.82319 1.33333 2V8C1.33333 8.17681 1.40357 8.34638 1.5286 8.4714C1.65362 8.59643 1.82319 8.66667 2 8.66667C2.53043 8.66667 3.03914 8.87738 3.41421 9.25245C3.78929 9.62753 4 10.1362 4 10.6667V11.3133L6.90067 9.08133C7.25045 8.81231 7.67939 8.66651 8.12067 8.66667H11.3333C11.5101 8.66667 11.6797 8.59643 11.8047 8.4714C11.9298 8.34638 12 8.17681 12 8V2C12 1.82319 11.9298 1.65362 11.8047 1.5286C11.6797 1.40357 11.5101 1.33333 11.3333 1.33333H2Z"></path>
  </symbol>
  <symbol xmlns="http://www.w3.org/2000/svg" viewBox="0 0 25 25" id="compass">
    <path d="M13.1245 10.1281L6.32576 5.98713C6.02389 5.81651 5.59732 6.22995 5.76139 6.53838L9.79732 13.4684L16.7273 17.5043C16.8056 17.5327 16.8903 17.5379 16.9715 17.5194C17.0526 17.5008 17.1267 17.4593 17.1848 17.3998C17.243 17.3402 17.2828 17.2652 17.2994 17.1837C17.316 17.1021 17.3088 17.0175 17.2786 16.9399L13.1245 10.1281ZM10.4995 12.7531L12.4683 10.7843L15.4542 15.6668L10.4995 12.7531Z" fill="var(--color-primary)"/>
    <path d="M11.5 1.22217C9.4233 1.22217 7.39323 1.83798 5.66652 2.99174C3.9398 4.14549 2.59399 5.78537 1.79927 7.70399C1.00455 9.62261 0.796615 11.7338 1.20176 13.7706C1.6069 15.8074 2.60693 17.6783 4.07538 19.1468C5.54383 20.6152 7.41475 21.6153 9.45155 22.0204C11.4884 22.4256 13.5996 22.2176 15.5182 21.4229C17.4368 20.6282 19.0767 19.2824 20.2304 17.5557C21.3842 15.8289 22 13.7989 22 11.7222C22 8.93739 20.8938 6.26668 18.9246 4.29755C16.9555 2.32841 14.2848 1.22217 11.5 1.22217ZM12.1563 20.8769V19.2887H10.8438V20.8769C8.64269 20.7171 6.57266 19.7705 5.01218 18.21C3.4517 16.6495 2.50504 14.5795 2.34532 12.3784H3.93344V11.0659H2.34532C2.50504 8.86485 3.4517 6.79482 5.01218 5.23434C6.57266 3.67386 8.64269 2.72721 10.8438 2.56748V4.1556H12.1563V2.56748C14.3573 2.72721 16.4273 3.67386 17.9878 5.23434C19.5483 6.79482 20.495 8.86485 20.6547 11.0659H19.0666V12.3784H20.6547C20.495 14.5795 19.5483 16.6495 17.9878 18.21C16.4273 19.7705 14.3573 20.7171 12.1563 20.8769Z" fill="var(--color-primary)" stroke="var(--color-primary)" stroke-width="0.7"/>
  </symbol>
  <symbol xmlns="http://www.w3.org/2000/svg" viewBox="0 0 16 16" id="plus">
    <path d="M14 7.97736H2M8 1.63245V14.3223V1.63245Z" stroke-width="3" stroke-linecap="round" stroke-linejoin="round"/>
  </symbol>
  <symbol xmlns="http://www.w3.org/2000/svg" viewBox="0 0 24 24" id="facebook-circle">
    <path d="M12 0C5.37294 0 0 5.40537 0 12.0724C0 18.0972 4.38764 23.0909 10.1254 24V15.5629H7.07711V12.0724H10.1254V9.41262C10.1254 6.38455 11.9172 4.71476 14.6571 4.71476C15.97 4.71476 17.3453 4.9502 17.3453 4.9502V7.91911H15.8284C14.3402 7.91911 13.8746 8.85119 13.8746 9.80622V12.07H17.2001L16.6685 15.5605H13.8746V23.9976C19.6124 23.0933 24 18.0984 24 12.0724C24 5.40537 18.6271 0 12 0V0Z"></path>
  </symbol>
  <symbol xmlns="http://www.w3.org/2000/svg" viewBox="0 0 8 16" id="facebook">
    <path d="M2.44143 15.2727V8.4476H0.636719V5.99022H2.44143V3.89129C2.44143 2.24194 3.50748 0.727295 5.96389 0.727295C6.95845 0.727295 7.69388 0.82264 7.69388 0.82264L7.63593 3.11742C7.63593 3.11742 6.88591 3.11012 6.06745 3.11012C5.18163 3.11012 5.03971 3.51833 5.03971 4.19588V5.99022H7.70634L7.59032 8.4476H5.03971V15.2727H2.44143Z"/>
  </symbol>
  <symbol xmlns="http://www.w3.org/2000/svg" viewBox="0 0 15 11" id="eye">
    <path d="M1.38019 5.29067C1.71619 5.97933 2.35686 6.93733 3.28819 7.74733C4.31486 8.64 5.66486 9.33333 7.33353 9.33333C9.00219 9.33333 10.3522 8.64133 11.3789 7.74667C12.3102 6.93667 12.9509 5.98 13.2862 5.29067C12.7795 3.86133 11.0089 1.33333 7.33353 1.33333C3.65886 1.33333 1.88819 3.86133 1.38019 5.29067ZM0.0255267 5.15067C0.523527 3.40667 2.67753 0 7.33353 0C11.9895 0 14.1435 3.40733 14.6415 5.15C14.6836 5.29754 14.6734 5.45506 14.6129 5.596C14.2435 6.458 13.4529 7.70933 12.2549 8.75267C11.0482 9.80333 9.39819 10.6667 7.33353 10.6667C5.26886 10.6667 3.61886 9.80333 2.41219 8.75333C1.21353 7.70933 0.423527 6.458 0.0541934 5.596C-0.00639347 5.45506 -0.0165183 5.2982 0.0255267 5.15067Z"></path>
    <path d="M7.33354 4.00002C6.97991 4.00002 6.64078 4.1405 6.39073 4.39054C6.14068 4.64059 6.0002 4.97973 6.0002 5.33335C6.0002 5.68698 6.14068 6.02611 6.39073 6.27616C6.64078 6.52621 6.97991 6.66669 7.33354 6.66669C7.68716 6.66669 8.0263 6.52621 8.27635 6.27616C8.52639 6.02611 8.66687 5.68698 8.66687 5.33335C8.66687 4.97973 8.52639 4.64059 8.27635 4.39054C8.0263 4.1405 7.68716 4.00002 7.33354 4.00002ZM4.66687 5.33335C4.66687 4.62611 4.94782 3.94783 5.44792 3.44774C5.94802 2.94764 6.62629 2.66669 7.33354 2.66669C8.04078 2.66669 8.71906 2.94764 9.21916 3.44774C9.71925 3.94783 10.0002 4.62611 10.0002 5.33335C10.0002 6.0406 9.71925 6.71888 9.21916 7.21897C8.71906 7.71907 8.04078 8.00002 7.33354 8.00002C6.62629 8.00002 5.94802 7.71907 5.44792 7.21897C4.94782 6.71888 4.66687 6.0406 4.66687 5.33335V5.33335Z"></path>
  </symbol>
  <symbol xmlns="http://www.w3.org/2000/svg" viewBox="0 0 21 22" id="home">
    <path d="M7.65722 19.7714V16.7047C7.6572 15.9246 8.29312 15.2908 9.08101 15.2856H11.9671C12.7587 15.2856 13.4005 15.9209 13.4005 16.7047V16.7047V19.7809C13.4003 20.4432 13.9343 20.9845 14.603 21H16.5271C18.4451 21 20 19.4607 20 17.5618V17.5618V8.83784C19.9898 8.09083 19.6355 7.38935 19.038 6.93303L12.4577 1.6853C11.3049 0.771566 9.6662 0.771566 8.51342 1.6853L1.96203 6.94256C1.36226 7.39702 1.00739 8.09967 1 8.84736V17.5618C1 19.4607 2.55488 21 4.47291 21H6.39696C7.08235 21 7.63797 20.4499 7.63797 19.7714V19.7714" stroke-width="2" stroke-linecap="round" stroke-linejoin="round"></path>
  </symbol>
  <symbol xmlns="http://www.w3.org/2000/svg" viewBox="0 0 24 24" id="instagram-circle">
    <path d="M11.9968 7.9983C9.79333 7.9983 7.99515 9.79651 7.99515 12C7.99515 14.2035 9.79333 16.0017 11.9968 16.0017C14.2002 16.0017 15.9984 14.2035 15.9984 12C15.9984 9.79651 14.2002 7.9983 11.9968 7.9983ZM23.9987 12C23.9987 10.3429 24.0137 8.70077 23.9206 7.04665C23.8275 5.12536 23.3893 3.4202 21.9843 2.01525C20.5764 0.607302 18.8743 0.172008 16.953 0.0789456C15.2959 -0.0141173 13.6539 0.000892936 11.9998 0.000892936C10.3427 0.000892936 8.70061 -0.0141173 7.04652 0.0789456C5.12526 0.172008 3.42014 0.610305 2.01522 2.01525C0.607291 3.42321 0.172005 5.12536 0.0789442 7.04665C-0.014117 8.70377 0.000892919 10.3459 0.000892919 12C0.000892919 13.6541 -0.014117 15.2992 0.0789442 16.9533C0.172005 18.8746 0.610293 20.5798 2.01522 21.9847C3.42314 23.3927 5.12526 23.828 7.04652 23.9211C8.70361 24.0141 10.3457 23.9991 11.9998 23.9991C13.6569 23.9991 15.2989 24.0141 16.953 23.9211C18.8743 23.828 20.5794 23.3897 21.9843 21.9847C23.3923 20.5768 23.8275 18.8746 23.9206 16.9533C24.0167 15.2992 23.9987 13.6571 23.9987 12ZM11.9968 18.1572C8.58954 18.1572 5.83973 15.4073 5.83973 12C5.83973 8.5927 8.58954 5.84284 11.9968 5.84284C15.404 5.84284 18.1538 8.5927 18.1538 12C18.1538 15.4073 15.404 18.1572 11.9968 18.1572ZM18.406 7.02864C17.6105 7.02864 16.968 6.38621 16.968 5.59067C16.968 4.79513 17.6105 4.1527 18.406 4.1527C19.2015 4.1527 19.8439 4.79513 19.8439 5.59067C19.8442 5.77957 19.8071 5.96667 19.735 6.14124C19.6628 6.31581 19.5569 6.47442 19.4233 6.608C19.2897 6.74157 19.1311 6.84748 18.9565 6.91967C18.782 6.99185 18.5949 7.02888 18.406 7.02864Z"></path>
  </symbol>
  <symbol xmlns="http://www.w3.org/2000/svg" viewBox="0 0 20 20" id="instagram">
    <path fill-rule="evenodd" clip-rule="evenodd" d="M6.22051 0.888313C7.19801 0.843313 7.50967 0.833313 9.99967 0.833313C12.4897 0.833313 12.8013 0.844146 13.778 0.888313C14.7547 0.93248 15.4213 1.08831 16.0047 1.31415C16.6155 1.54498 17.1697 1.90581 17.628 2.37248C18.0947 2.82998 18.4547 3.38331 18.6847 3.99498C18.9113 4.57831 19.0663 5.24498 19.1113 6.21998C19.1563 7.19915 19.1663 7.51081 19.1663 9.99998C19.1663 12.49 19.1555 12.8016 19.1113 13.7791C19.0672 14.7541 18.9113 15.4208 18.6847 16.0041C18.4547 16.6159 18.0941 17.1701 17.628 17.6283C17.1697 18.095 16.6155 18.455 16.0047 18.685C15.4213 18.9116 14.7547 19.0666 13.7797 19.1116C12.8013 19.1566 12.4897 19.1666 9.99967 19.1666C7.50967 19.1666 7.19801 19.1558 6.22051 19.1116C5.24551 19.0675 4.57884 18.9116 3.99551 18.685C3.38377 18.4549 2.82952 18.0944 2.37134 17.6283C1.90499 17.1705 1.5441 16.6165 1.31384 16.005C1.08801 15.4216 0.933008 14.755 0.888008 13.78C0.843008 12.8008 0.833008 12.4891 0.833008 9.99998C0.833008 7.50998 0.843841 7.19831 0.888008 6.22165C0.932174 5.24498 1.08801 4.57831 1.31384 3.99498C1.54444 3.38338 1.90561 2.82941 2.37217 2.37165C2.82971 1.9054 3.3834 1.54452 3.99467 1.31415C4.57801 1.08831 5.24467 0.933313 6.21967 0.888313H6.22051ZM13.7038 2.53831C12.7372 2.49415 12.4472 2.48498 9.99967 2.48498C7.55217 2.48498 7.26217 2.49415 6.29551 2.53831C5.40134 2.57915 4.91634 2.72831 4.59301 2.85415C4.16551 3.02081 3.85967 3.21831 3.53884 3.53915C3.23471 3.83502 3.00066 4.19521 2.85384 4.59331C2.72801 4.91665 2.57884 5.40165 2.53801 6.29581C2.49384 7.26248 2.48467 7.55248 2.48467 9.99998C2.48467 12.4475 2.49384 12.7375 2.53801 13.7041C2.57884 14.5983 2.72801 15.0833 2.85384 15.4066C3.00051 15.8041 3.23467 16.165 3.53884 16.4608C3.83467 16.765 4.19551 16.9991 4.59301 17.1458C4.91634 17.2716 5.40134 17.4208 6.29551 17.4616C7.26217 17.5058 7.55134 17.515 9.99967 17.515C12.448 17.515 12.7372 17.5058 13.7038 17.4616C14.598 17.4208 15.083 17.2716 15.4063 17.1458C15.8338 16.9791 16.1397 16.7816 16.4605 16.4608C16.7647 16.165 16.9988 15.8041 17.1455 15.4066C17.2713 15.0833 17.4205 14.5983 17.4613 13.7041C17.5055 12.7375 17.5147 12.4475 17.5147 9.99998C17.5147 7.55248 17.5055 7.26248 17.4613 6.29581C17.4205 5.40165 17.2713 4.91665 17.1455 4.59331C16.9788 4.16581 16.7813 3.85998 16.4605 3.53915C16.1646 3.23504 15.8044 3.00099 15.4063 2.85415C15.083 2.72831 14.598 2.57915 13.7038 2.53831ZM8.82884 12.8258C9.48272 13.098 10.2108 13.1347 10.8888 12.9297C11.5667 12.7248 12.1525 12.2907 12.546 11.7018C12.9395 11.113 13.1164 10.4057 13.0464 9.7009C12.9764 8.99609 12.6638 8.33746 12.1622 7.83748C11.8424 7.51788 11.4557 7.27316 11.03 7.12093C10.6042 6.96871 10.15 6.91278 9.70009 6.95716C9.25014 7.00154 8.81563 7.14513 8.42784 7.37759C8.04005 7.61005 7.70863 7.9256 7.45743 8.30152C7.20622 8.67744 7.0415 9.10439 6.9751 9.55161C6.90871 9.99884 6.9423 10.4552 7.07346 10.8879C7.20461 11.3206 7.43007 11.7188 7.73361 12.0539C8.03714 12.389 8.41119 12.6526 8.82884 12.8258ZM6.66801 6.66831C7.10553 6.23079 7.62494 5.88373 8.19659 5.64695C8.76824 5.41016 9.38093 5.28829 9.99967 5.28829C10.6184 5.28829 11.2311 5.41016 11.8028 5.64695C12.3744 5.88373 12.8938 6.23079 13.3313 6.66831C13.7689 7.10583 14.1159 7.62525 14.3527 8.19689C14.5895 8.76854 14.7114 9.38123 14.7114 9.99998C14.7114 10.6187 14.5895 11.2314 14.3527 11.8031C14.1159 12.3747 13.7689 12.8941 13.3313 13.3316C12.4477 14.2153 11.2493 14.7117 9.99967 14.7117C8.75006 14.7117 7.55162 14.2153 6.66801 13.3316C5.78439 12.448 5.28799 11.2496 5.28799 9.99998C5.28799 8.75036 5.78439 7.55192 6.66801 6.66831ZM15.7563 5.98998C15.8648 5.8877 15.9516 5.76471 16.0116 5.62829C16.0716 5.49187 16.1037 5.34479 16.1059 5.19575C16.108 5.04672 16.0803 4.89877 16.0242 4.76065C15.9682 4.62254 15.885 4.49707 15.7796 4.39168C15.6742 4.28629 15.5488 4.20311 15.4107 4.14708C15.2725 4.09104 15.1246 4.06329 14.9756 4.06546C14.8265 4.06764 14.6795 4.09969 14.543 4.15973C14.4066 4.21976 14.2836 4.30656 14.1813 4.41498C13.9824 4.62584 13.8735 4.90591 13.8778 5.19575C13.882 5.48559 13.999 5.76238 14.204 5.96735C14.4089 6.17232 14.6857 6.28934 14.9756 6.29356C15.2654 6.29779 15.5455 6.18889 15.7563 5.98998Z"/>
  </symbol>
  <symbol xmlns="http://www.w3.org/2000/svg" viewBox="0 0 737.509 740.824" id="whatsapp">
    <path fill-rule="evenodd" clip-rule="evenodd" d="M630.056 107.658C560.727 38.271 468.525.039 370.294 0 167.891 0 3.16 164.668 3.079 367.072c-.027 64.699 16.883 127.855 49.016 183.523L0 740.824l194.666-51.047c53.634 29.244 114.022 44.656 175.481 44.682h.151c202.382 0 367.128-164.689 367.21-367.094.039-98.088-38.121-190.32-107.452-259.707m-259.758 564.8h-.125c-54.766-.021-108.483-14.729-155.343-42.529l-11.146-6.613-115.516 30.293 30.834-112.592-7.258-11.543c-30.552-48.58-46.689-104.729-46.665-162.379C65.146 198.865 202.065 62 370.419 62c81.521.031 158.154 31.81 215.779 89.482s89.342 134.332 89.311 215.859c-.07 168.242-136.987 305.117-305.211 305.117m167.415-228.514c-9.176-4.591-54.286-26.782-62.697-29.843-8.41-3.061-14.526-4.591-20.644 4.592-6.116 9.182-23.7 29.843-29.054 35.964-5.351 6.122-10.703 6.888-19.879 2.296-9.175-4.591-38.739-14.276-73.786-45.526-27.275-24.32-45.691-54.36-51.043-63.542-5.352-9.183-.569-14.148 4.024-18.72 4.127-4.11 9.175-10.713 13.763-16.07 4.587-5.356 6.116-9.182 9.174-15.303 3.059-6.122 1.53-11.479-.764-16.07-2.294-4.591-20.643-49.739-28.29-68.104-7.447-17.886-15.012-15.466-20.644-15.746-5.346-.266-11.469-.323-17.585-.323-6.117 0-16.057 2.296-24.468 11.478-8.41 9.183-32.112 31.374-32.112 76.521s32.877 88.763 37.465 94.885c4.587 6.122 64.699 98.771 156.741 138.502 21.891 9.45 38.982 15.093 52.307 19.323 21.981 6.979 41.983 5.994 57.793 3.633 17.628-2.633 54.285-22.19 61.932-43.616 7.646-21.426 7.646-39.791 5.352-43.617-2.293-3.826-8.41-6.122-17.585-10.714"/>
  </symbol>
  <symbol xmlns="http://www.w3.org/2000/svg" viewBox="0 0 20 12" id="left-menu">
    <path d="M3 2H17C17.2652 2 17.5196 1.89464 17.7071 1.70711C17.8946 1.51957 18 1.26522 18 1C18 0.734784 17.8946 0.48043 17.7071 0.292893C17.5196 0.105357 17.2652 0 17 0H3C2.73478 0 2.48043 0.105357 2.29289 0.292893C2.10536 0.48043 2 0.734784 2 1C2 1.26522 2.10536 1.51957 2.29289 1.70711C2.48043 1.89464 2.73478 2 3 2ZM19 5H1C0.734784 5 0.48043 5.10536 0.292893 5.29289C0.105357 5.48043 0 5.73478 0 6C0 6.26522 0.105357 6.51957 0.292893 6.70711C0.48043 6.89464 0.734784 7 1 7H19C19.2652 7 19.5196 6.89464 19.7071 6.70711C19.8946 6.51957 20 6.26522 20 6C20 5.73478 19.8946 5.48043 19.7071 5.29289C19.5196 5.10536 19.2652 5 19 5ZM17 10H3C2.73478 10 2.48043 10.1054 2.29289 10.2929C2.10536 10.4804 2 10.7348 2 11C2 11.2652 2.10536 11.5196 2.29289 11.7071C2.48043 11.8946 2.73478 12 3 12H17C17.2652 12 17.5196 11.8946 17.7071 11.7071C17.8946 11.5196 18 11.2652 18 11C18 10.7348 17.8946 10.4804 17.7071 10.2929C17.5196 10.1054 17.2652 10 17 10Z"></path>
  </symbol>
  <symbol xmlns="http://www.w3.org/2000/svg" viewBox="0 0 20 20" id="user">
    <path d="M9.98101 0C8.04148 0.00368503 6.14489 0.571311 4.52223 1.63374C2.89958 2.69617 1.6209 4.20754 0.841947 5.98377C0.0629925 7.76 -0.182618 9.72442 0.135032 11.6378C0.452682 13.5511 1.31988 15.3308 2.63101 16.76C3.56743 17.775 4.70395 18.5851 5.96894 19.1392C7.23394 19.6933 8.59999 19.9793 9.98101 19.9793C11.362 19.9793 12.7281 19.6933 13.9931 19.1392C15.2581 18.5851 16.3946 17.775 17.331 16.76C18.6421 15.3308 19.5093 13.5511 19.827 11.6378C20.1446 9.72442 19.899 7.76 19.1201 5.98377C18.3411 4.20754 17.0624 2.69617 15.4398 1.63374C13.8171 0.571311 11.9205 0.00368503 9.98101 0V0ZM9.98101 18C7.90947 17.9969 5.91992 17.1903 4.43101 15.75C4.88305 14.6495 5.65204 13.7083 6.64026 13.0459C7.62848 12.3835 8.79131 12.0298 9.98101 12.0298C11.1707 12.0298 12.3335 12.3835 13.3218 13.0459C14.31 13.7083 15.079 14.6495 15.531 15.75C14.0421 17.1903 12.0525 17.9969 9.98101 18ZM7.98101 8C7.98101 7.60444 8.0983 7.21776 8.31807 6.88886C8.53783 6.55996 8.85019 6.30362 9.21564 6.15224C9.58109 6.00087 9.98322 5.96126 10.3712 6.03843C10.7591 6.1156 11.1155 6.30608 11.3952 6.58579C11.6749 6.86549 11.8654 7.22186 11.9426 7.60982C12.0197 7.99778 11.9801 8.39991 11.8288 8.76537C11.6774 9.13082 11.421 9.44318 11.0921 9.66294C10.7632 9.8827 10.3766 10 9.98101 10C9.45057 10 8.94187 9.78929 8.56679 9.41421C8.19172 9.03914 7.98101 8.53043 7.98101 8ZM16.891 14C15.9975 12.4718 14.6224 11.283 12.981 10.62C13.4902 10.0427 13.8219 9.33066 13.9365 8.56944C14.051 7.80822 13.9435 7.03011 13.6268 6.3285C13.31 5.62688 12.7976 5.03156 12.1509 4.61397C11.5042 4.19637 10.7508 3.97425 9.98101 3.97425C9.21122 3.97425 8.45778 4.19637 7.8111 4.61397C7.16442 5.03156 6.65198 5.62688 6.33526 6.3285C6.01853 7.03011 5.91099 7.80822 6.02554 8.56944C6.14008 9.33066 6.47184 10.0427 6.98101 10.62C5.3396 11.283 3.96447 12.4718 3.07101 14C2.35895 12.7871 1.98273 11.4065 1.98101 10C1.98101 7.87827 2.82386 5.84344 4.32415 4.34315C5.82444 2.84285 7.85927 2 9.98101 2C12.1027 2 14.1376 2.84285 15.6379 4.34315C17.1382 5.84344 17.981 7.87827 17.981 10C17.9793 11.4065 17.6031 12.7871 16.891 14V14Z" />
  </symbol>
  <symbol xmlns="http://www.w3.org/2000/svg" viewBox="0 0 15 13" id="photo">
    <path d="M7.5 9.15625C8.67361 9.15625 9.625 8.20486 9.625 7.03125C9.625 5.85764 8.67361 4.90625 7.5 4.90625C6.32639 4.90625 5.375 5.85764 5.375 7.03125C5.375 8.20486 6.32639 9.15625 7.5 9.15625Z" />
    <path d="M13.3438 2.78125H11.3848C11.2852 2.78125 11.1616 2.71684 11.0654 2.61523L10.2041 1.2559C10.1904 1.23433 10.1752 1.21379 10.1586 1.19447C9.86107 0.8475 9.45898 0.65625 9.02734 0.65625H5.97266C5.54102 0.65625 5.13893 0.8475 4.84143 1.19447C4.82476 1.21379 4.80956 1.23433 4.79594 1.2559L3.93465 2.61723C3.86094 2.69758 3.75734 2.78324 3.64844 2.78324V2.51762C3.64844 2.37672 3.59247 2.2416 3.49284 2.14197C3.39321 2.04234 3.25808 1.98637 3.11719 1.98637H2.32031C2.17942 1.98637 2.04429 2.04234 1.94466 2.14197C1.84503 2.2416 1.78906 2.37672 1.78906 2.51762V2.78324H1.65625C1.2337 2.78368 0.828575 2.95174 0.529784 3.25053C0.230993 3.54932 0.0629395 3.95444 0.0625 4.37699V10.75C0.0629395 11.1726 0.230993 11.5777 0.529784 11.8765C0.828575 12.1753 1.2337 12.3433 1.65625 12.3438H13.3438C13.7663 12.3433 14.1714 12.1753 14.4702 11.8765C14.769 11.5777 14.9371 11.1726 14.9375 10.75V4.375C14.9371 3.95245 14.769 3.54732 14.4702 3.24853C14.1714 2.94974 13.7663 2.78169 13.3438 2.78125ZM7.5 10.2188C6.86957 10.2188 6.2533 10.0318 5.72912 9.68156C5.20494 9.33131 4.79639 8.83349 4.55513 8.25105C4.31388 7.66861 4.25076 7.02771 4.37375 6.4094C4.49674 5.79109 4.80032 5.22313 5.2461 4.77735C5.69188 4.33157 6.25984 4.02799 6.87815 3.905C7.49646 3.78201 8.13736 3.84513 8.7198 4.08638C9.30224 4.32764 9.80006 4.73619 10.1503 5.26037C10.5006 5.78455 10.6875 6.40082 10.6875 7.03125C10.6865 7.87633 10.3504 8.68652 9.75284 9.28409C9.15527 9.88165 8.34508 10.2178 7.5 10.2188Z" />
  </symbol>
  <symbol xmlns="http://www.w3.org/2000/svg" viewBox="0 0 19 19" id="search">
    <path d="M18 18L13.9862 13.9791L18 18ZM16.2105 8.60526C16.2105 10.6223 15.4093 12.5567 13.983 13.983C12.5567 15.4093 10.6223 16.2105 8.60526 16.2105C6.58822 16.2105 4.65379 15.4093 3.22753 13.983C1.80127 12.5567 1 10.6223 1 8.60526C1 6.58822 1.80127 4.65379 3.22753 3.22753C4.65379 1.80127 6.58822 1 8.60526 1C10.6223 1 12.5567 1.80127 13.983 3.22753C15.4093 4.65379 16.2105 6.58822 16.2105 8.60526V8.60526Z" stroke-width="2" stroke-linecap="round"></path>
  </symbol>
  <symbol xmlns="http://www.w3.org/2000/svg" viewBox="0 0 42 42" id="share">
    <path d="M22 23.4844C22.3984 23.4844 22.7305 23.1606 22.7305 22.7705V11.4316L22.6724 9.86279L23.5439 10.7593L25.2871 12.5938C25.4199 12.7432 25.6108 12.8179 25.7852 12.8179C26.167 12.8179 26.4575 12.5439 26.4575 12.1704C26.4575 11.9795 26.3745 11.8301 26.2417 11.689L22.5312 8.07812C22.3486 7.89551 22.1826 7.8291 22 7.8291C21.8174 7.8291 21.6514 7.89551 21.4771 8.07812L17.7583 11.689C17.6172 11.8301 17.5425 11.9795 17.5425 12.1704C17.5425 12.5439 17.8164 12.8179 18.1982 12.8179C18.3726 12.8179 18.5718 12.7432 18.7046 12.5938L20.4561 10.7593L21.3276 9.85449L21.2695 11.4316V22.7705C21.2695 23.1606 21.6099 23.4844 22 23.4844ZM15.8408 31.7769H28.1509C30.3008 31.7769 31.3799 30.6978 31.3799 28.5811V17.9395C31.3799 15.8311 30.3008 14.7437 28.1509 14.7437H25.1294V16.2129H28.126C29.2632 16.2129 29.9106 16.8271 29.9106 18.0142V28.5063C29.9106 29.6934 29.2632 30.3076 28.126 30.3076H15.8657C14.7119 30.3076 14.0811 29.6934 14.0811 28.5063V18.0142C14.0811 16.8271 14.7119 16.2129 15.8657 16.2129H18.8789V14.7437H15.8408C13.6992 14.7437 12.6035 15.8145 12.6035 17.9395V28.5811C12.6035 30.7061 13.6992 31.7769 15.8408 31.7769Z"></path>
  </symbol>
  <symbol xmlns="http://www.w3.org/2000/svg" viewBox="0 0 28 25" id="star">
    <path d="M10.7168 11.5283H9.43652V15H8.4082V11.5283H7.15137V10.7344H10.7168V11.5283ZM10.374 13.3857C10.374 13.0693 10.4355 12.7881 10.5586 12.542C10.6816 12.2939 10.8584 12.1035 11.0889 11.9707C11.3193 11.8379 11.5898 11.7715 11.9004 11.7715C12.375 11.7715 12.749 11.9189 13.0225 12.2139C13.2959 12.5068 13.4326 12.9062 13.4326 13.4121V13.4473C13.4326 13.9414 13.2949 14.334 13.0195 14.625C12.7461 14.9141 12.375 15.0586 11.9062 15.0586C11.4551 15.0586 11.0928 14.9238 10.8193 14.6543C10.5459 14.3828 10.3984 14.0156 10.377 13.5527L10.374 13.3857ZM11.3613 13.4473C11.3613 13.7402 11.4072 13.9551 11.499 14.0918C11.5908 14.2285 11.7266 14.2969 11.9062 14.2969C12.2578 14.2969 12.4375 14.0264 12.4453 13.4854V13.3857C12.4453 12.8174 12.2637 12.5332 11.9004 12.5332C11.5703 12.5332 11.3916 12.7783 11.3643 13.2686L11.3613 13.4473ZM16.7021 15H15.709V12.5918H14.8359V15H13.8486V11.8301H16.7021V15Z" fill="var(--color-primary)"/>
    <path d="M22.9029 9.12811C22.6713 8.42116 22.0669 7.91562 21.3254 7.80871L17.7826 7.29802C17.5477 7.264 17.3297 7.42557 17.2956 7.65857C17.2615 7.89154 17.4242 8.10788 17.659 8.14173L21.2018 8.65242C21.6235 8.7132 21.9539 8.98952 22.0855 9.39155C22.2172 9.79363 22.1137 10.2098 21.8085 10.5049L17.8602 14.323C17.7589 14.4209 17.7127 14.562 17.7366 14.7003L18.6687 20.0915C18.7407 20.5082 18.5779 20.9053 18.2332 21.1538C17.8885 21.4022 17.4575 21.4331 17.0802 21.2364L12.1999 18.691C12.0747 18.6257 11.9251 18.6257 11.8 18.691L6.91956 21.2364C6.54241 21.4332 6.11143 21.4022 5.76668 21.1538C5.42194 20.9053 5.25913 20.5082 5.33114 20.0915L6.2632 14.7003C6.28713 14.562 6.2409 14.4209 6.13962 14.323L2.19131 10.5049C1.88618 10.2098 1.78263 9.79358 1.91433 9.39155C2.04599 8.98948 2.37634 8.71316 2.79804 8.65242L8.25445 7.86583C8.39441 7.84567 8.51541 7.75845 8.57797 7.63266L11.0182 2.72751C11.2068 2.34842 11.5737 2.1221 11.9999 2.1221C12.426 2.1221 12.793 2.34846 12.9815 2.72751L14.5658 5.91212C14.6709 6.12326 14.9285 6.20988 15.1413 6.10574C15.3541 6.00156 15.4415 5.74596 15.3365 5.53482L13.7522 2.35021C13.4206 1.68363 12.7492 1.26953 11.9999 1.26953C11.2506 1.26953 10.5791 1.68363 10.2475 2.35021L7.9073 7.0544L2.67455 7.80871C1.93306 7.91558 1.32861 8.42116 1.09709 9.12811C0.86557 9.83506 1.05502 10.5966 1.59158 11.1154L5.37815 14.7771L4.48421 19.9474C4.35754 20.6801 4.6554 21.4066 5.26162 21.8435C5.86779 22.2804 6.65637 22.3369 7.31956 21.991L12 19.5499L16.6804 21.991C16.9689 22.1415 17.281 22.2158 17.5916 22.2158C17.9951 22.2158 18.3958 22.0903 18.7384 21.8434C19.3445 21.4065 19.6424 20.68 19.5158 19.9474L18.6219 14.777L22.4084 11.1153C22.945 10.5965 23.1344 9.83506 22.9029 9.12811Z" stroke="var(--color-primary)" fill="var(--color-primary)"/>
    <path d="M15.8071 7.87013C16.0444 7.87013 16.2368 7.67928 16.2368 7.44386C16.2368 7.20843 16.0444 7.01758 15.8071 7.01758C15.5698 7.01758 15.3774 7.20843 15.3774 7.44386C15.3774 7.67928 15.5698 7.87013 15.8071 7.87013Z" fill="var(--color-primary)"/>
  </symbol>
  <symbol xmlns="http://www.w3.org/2000/svg" viewBox="0 0 17 11" id="video">
    <path d="M15.4062 9.76295C15.2575 9.76284 15.1105 9.73151 14.9746 9.67098C14.943 9.65695 14.9129 9.63982 14.8846 9.61984L12.1384 7.68676C11.9991 7.58872 11.8855 7.45863 11.807 7.30747C11.7285 7.1563 11.6875 6.98848 11.6875 6.81816V4.18184C11.6875 4.01152 11.7285 3.8437 11.807 3.69253C11.8855 3.54137 11.9991 3.41128 12.1384 3.31324L14.8846 1.38016C14.9129 1.36018 14.943 1.34305 14.9746 1.32902C15.1364 1.2571 15.3136 1.22674 15.49 1.2407C15.6665 1.25466 15.8367 1.3125 15.9852 1.40896C16.1336 1.50542 16.2556 1.63744 16.3401 1.79303C16.4245 1.94862 16.4687 2.12285 16.4688 2.29988V8.70012C16.4688 8.98191 16.3568 9.25216 16.1576 9.45142C15.9583 9.65068 15.688 9.76295 15.4062 9.76295ZM8.89844 10.2812H2.78906C2.19044 10.2806 1.61652 10.0426 1.19323 9.61927C0.769939 9.19598 0.531865 8.62206 0.53125 8.02344V2.97656C0.531865 2.37794 0.769939 1.80402 1.19323 1.38073C1.61652 0.957439 2.19044 0.719365 2.78906 0.71875H8.91438C9.50874 0.719453 10.0786 0.955875 10.4988 1.37616C10.9191 1.79644 11.1555 2.36626 11.1562 2.96063V8.02344C11.1556 8.62206 10.9176 9.19598 10.4943 9.61927C10.071 10.0426 9.49706 10.2806 8.89844 10.2812Z"></path>
  </symbol>
  <symbol xmlns="http://www.w3.org/2000/svg" viewBox="0 0 24 24" id="vk-circle">
    <path d="M12 0C5.3725 0 0 5.3725 0 12C0 18.6275 5.3725 24 12 24C18.6275 24 24 18.6275 24 12C24 5.3725 18.6275 0 12 0ZM16.615 13.5388C16.615 13.5388 17.6763 14.5863 17.9375 15.0725C17.945 15.0825 17.9487 15.0925 17.9513 15.0975C18.0575 15.2762 18.0825 15.415 18.03 15.5188C17.9425 15.6912 17.6425 15.7763 17.54 15.7838H15.665C15.535 15.7838 15.2625 15.75 14.9325 15.5225C14.6788 15.345 14.4288 15.0538 14.185 14.77C13.8213 14.3475 13.5063 13.9825 13.1888 13.9825C13.1484 13.9824 13.1083 13.9888 13.07 14.0013C12.83 14.0788 12.5225 14.4213 12.5225 15.3337C12.5225 15.6188 12.2975 15.7825 12.1388 15.7825H11.28C10.9875 15.7825 9.46375 15.68 8.11375 14.2563C6.46125 12.5125 4.97375 9.015 4.96125 8.9825C4.8675 8.75625 5.06125 8.635 5.2725 8.635H7.16625C7.41875 8.635 7.50125 8.78875 7.55875 8.925C7.62625 9.08375 7.87375 9.715 8.28 10.425C8.93875 11.5825 9.3425 12.0525 9.66625 12.0525C9.72696 12.0518 9.78658 12.0363 9.84 12.0075C10.2625 11.7725 10.1838 10.2662 10.165 9.95375C10.165 9.895 10.1637 9.28 9.9475 8.985C9.7925 8.77125 9.52875 8.69 9.36875 8.66C9.43351 8.57064 9.51883 8.49818 9.6175 8.44875C9.9075 8.30375 10.43 8.2825 10.9488 8.2825H11.2375C11.8 8.29 11.945 8.32625 12.1488 8.3775C12.5613 8.47625 12.57 8.7425 12.5338 9.65375C12.5225 9.9125 12.5113 10.205 12.5113 10.55C12.5113 10.625 12.5075 10.705 12.5075 10.79C12.495 11.2537 12.48 11.78 12.8075 11.9963C12.8502 12.023 12.8996 12.0373 12.95 12.0375C13.0638 12.0375 13.4062 12.0375 14.3337 10.4463C14.6198 9.93407 14.8684 9.40185 15.0775 8.85375C15.0963 8.82125 15.1513 8.72125 15.2163 8.6825C15.2642 8.65804 15.3174 8.64561 15.3713 8.64625H17.5975C17.84 8.64625 18.0063 8.6825 18.0375 8.77625C18.0925 8.925 18.0275 9.37875 17.0112 10.755L16.5575 11.3538C15.6363 12.5613 15.6363 12.6225 16.615 13.5388Z"></path>
  </symbol>
  <symbol xmlns="http://www.w3.org/2000/svg" viewBox="0 0 20 12" id="vk">
    <path fill-rule="evenodd" clip-rule="evenodd" d="M19.5417 0.956687C19.68 0.501687 19.5417 0.166687 18.8792 0.166687H16.6917C16.135 0.166687 15.8783 0.455854 15.7392 0.77502C15.7392 0.77502 14.6267 3.43835 13.0508 5.16835C12.5408 5.67002 12.3092 5.82919 12.0308 5.82919C11.8917 5.82919 11.6825 5.67002 11.6825 5.21419V0.956687C11.6825 0.41002 11.5292 0.166687 11.0658 0.166687H7.62583C7.27833 0.166687 7.06917 0.42002 7.06917 0.660854C7.06917 1.17835 7.8575 1.29835 7.93833 2.75502V5.92002C7.93833 6.61419 7.81083 6.74002 7.5325 6.74002C6.79083 6.74002 4.98667 4.06419 3.91583 1.00252C3.70833 0.406687 3.49833 0.166687 2.93917 0.166687H0.75C0.125 0.166687 0 0.455854 0 0.77502C0 1.34335 0.741667 4.16669 3.45417 7.90085C5.2625 10.4509 7.80833 11.8334 10.1275 11.8334C11.5183 11.8334 11.69 11.5267 11.69 10.9975V9.07002C11.69 8.45585 11.8217 8.33335 12.2625 8.33335C12.5875 8.33335 13.1433 8.49335 14.4417 9.72252C15.925 11.18 16.1692 11.8334 17.0042 11.8334H19.1917C19.8167 11.8334 20.13 11.5267 19.95 10.92C19.7517 10.3167 19.0433 9.44086 18.1042 8.40169C17.5942 7.81002 16.8292 7.17252 16.5967 6.85335C16.2725 6.44419 16.365 6.26169 16.5967 5.89752C16.5967 5.89752 19.2633 2.20919 19.5408 0.956687H19.5417Z"/>
  </symbol>
  <symbol xmlns="http://www.w3.org/2000/svg" viewBox="0 0 8 14" id="arrow">
    <path d="M7.37079 5.9458L1.71079 0.295798C1.61783 0.20207 1.50723 0.127676 1.38537 0.0769072C1.26351 0.0261385 1.1328 0 1.00079 0C0.868781 0 0.738075 0.0261385 0.616216 0.0769072C0.494356 0.127676 0.383755 0.20207 0.290792 0.295798C0.104542 0.483161 0 0.736612 0 1.0008C0 1.26498 0.104542 1.51844 0.290792 1.7058L5.24079 6.7058L0.290792 11.6558C0.104542 11.8432 0 12.0966 0 12.3608C0 12.625 0.104542 12.8784 0.290792 13.0658C0.383407 13.1603 0.493852 13.2355 0.615727 13.287C0.737603 13.3384 0.868485 13.3652 1.00079 13.3658C1.1331 13.3652 1.26398 13.3384 1.38586 13.287C1.50773 13.2355 1.61818 13.1603 1.71079 13.0658L7.37079 7.4158C7.4723 7.32216 7.55331 7.2085 7.60871 7.08201C7.66412 6.95551 7.69273 6.8189 7.69273 6.6808C7.69273 6.5427 7.66412 6.40609 7.60871 6.27959C7.55331 6.15309 7.4723 6.03944 7.37079 5.9458V5.9458Z"></path>
  </symbol>
  <symbol xmlns="http://www.w3.org/2000/svg" viewBox="0 0 14 14" id="close">
    <path d="M12.59 0L7 5.59L1.41 0L0 1.41L5.59 7L0 12.59L1.41 14L7 8.41L12.59 14L14 12.59L8.41 7L14 1.41L12.59 0Z"></path>
  </symbol>
  <symbol xmlns="http://www.w3.org/2000/svg" viewBox="0 0 14 12" id="email">
    <path d="M2.50065 0.666687H11.5007C12.0541 0.666651 12.5865 0.87839 12.9888 1.25847C13.3911 1.63855 13.6327 2.15815 13.664 2.71069L13.6673 2.83335V9.16669C13.6674 9.72011 13.4556 10.2526 13.0755 10.6548C12.6955 11.0571 12.1759 11.2987 11.6233 11.33L11.5007 11.3334H2.50065C1.94723 11.3334 1.41477 11.1216 1.0125 10.7416C0.610229 10.3615 0.36865 9.84189 0.337318 9.28935L0.333984 9.16669V2.83335C0.333948 2.27993 0.545687 1.74747 0.925766 1.3452C1.30584 0.942932 1.82545 0.701353 2.37798 0.67002L2.50065 0.666687H11.5007H2.50065ZM12.6673 4.24869L7.23399 7.10869C7.17264 7.1411 7.10521 7.16038 7.036 7.16532C6.96679 7.17025 6.89731 7.16073 6.83198 7.13735L6.76799 7.10935L1.33398 4.24935V9.16669C1.334 9.45948 1.4441 9.74156 1.64244 9.95695C1.84078 10.1723 2.11285 10.3053 2.40465 10.3294L2.50065 10.3334H11.5007C11.7936 10.3333 12.0757 10.2231 12.2911 10.0247C12.5065 9.82618 12.6394 9.55394 12.6633 9.26202L12.6673 9.16669V4.24869ZM11.5007 1.66669H2.50065C2.20786 1.6667 1.92577 1.7768 1.71039 1.97514C1.49501 2.17348 1.36208 2.44555 1.33798 2.73735L1.33398 2.83335V3.11935L7.00065 6.10135L12.6673 3.11869V2.83335C12.6673 2.54045 12.5571 2.25828 12.3586 2.04288C12.1601 1.82748 11.8879 1.69462 11.596 1.67069L11.5007 1.66669Z"/>
  </symbol>
  <symbol xmlns="http://www.w3.org/2000/svg" viewBox="0 0 27 41" id="vip">
    <path d="M26.2416 12.1232C25.9101 10.0972 24.1592 8.54264 22.0409 8.54264H19.434L22.8164 1.21245C23.0146 0.785411 22.8267 0.276291 22.3979 0.0781847C21.9691 -0.11824 21.4617 0.067935 21.2636 0.496739L17.5515 8.54272H17.4439L15.3411 12.7485C15.7852 13.2098 16.062 13.8333 16.062 14.5217C16.062 15.9345 14.9123 17.0841 13.4996 17.0841C12.0868 17.0841 10.9372 15.9345 10.9372 14.5217C10.9372 13.1089 12.0868 11.9593 13.4996 11.9593C13.6055 11.9593 13.708 11.9781 13.8105 11.9901L15.5341 8.54272H11.4649L7.43001 0.472797C7.2199 0.0508789 6.70573 -0.11824 6.28373 0.0918776C5.86182 0.301996 5.69094 0.81616 5.90281 1.23816L9.55514 8.54272H4.95816C2.60419 8.54272 0.6875 10.4594 0.6875 12.8134V36.7293C0.6875 39.0833 2.60419 41 4.95816 41H22.0409C24.1591 41 25.9101 39.4454 26.2416 37.4194C26.2877 37.1956 26.3116 36.965 26.3116 36.7292V12.8134C26.3116 12.5776 26.2877 12.347 26.2416 12.1232ZM22.0409 35.8751H4.95816C4.48668 35.8751 4.104 35.4924 4.104 35.021C4.104 34.5495 4.48668 34.1668 4.95816 34.1668H22.0409C22.5124 34.1668 22.8951 34.5495 22.8951 35.021C22.8951 35.4924 22.5124 35.8751 22.0409 35.8751ZM6.45974 23.9428C6.91585 23.8266 7.38053 24.1068 7.49496 24.5645L8.37474 28.0836L9.25453 24.5645C9.36896 24.1068 9.83019 23.8249 10.2897 23.9428C10.7475 24.0572 11.026 24.5202 10.9115 24.978L9.20328 31.8111C9.10759 32.192 8.76599 32.4585 8.37474 32.4585C7.98358 32.4585 7.64189 32.192 7.5462 31.8111L5.83795 24.978C5.72344 24.5219 6.00187 24.0573 6.45974 23.9428ZM12.6454 31.6044V24.7713C12.6454 24.2998 13.0281 23.9171 13.4996 23.9171C13.9711 23.9171 14.3537 24.2998 14.3537 24.7713V31.6044C14.3537 32.0759 13.9711 32.4585 13.4996 32.4585C13.0281 32.4585 12.6454 32.0759 12.6454 31.6044ZM16.0619 31.6044V24.7713C16.0619 24.2998 16.4446 23.9171 16.9161 23.9171H18.6243C20.0371 23.9171 21.1867 25.0668 21.1867 26.4795C21.1867 27.8923 20.0371 29.042 18.6243 29.042H17.7702V31.6044C17.7702 32.0759 17.3875 32.4585 16.916 32.4585C16.4445 32.4585 16.0619 32.0759 16.0619 31.6044ZM22.0409 22.2089H4.95816C4.48668 22.2089 4.104 21.8262 4.104 21.3547C4.104 20.8832 4.48668 20.5006 4.95816 20.5006H22.0409C22.5124 20.5006 22.8951 20.8832 22.8951 21.3547C22.8951 21.8262 22.5124 22.2089 22.0409 22.2089Z"/>
  </symbol>
  <symbol xmlns="http://www.w3.org/2000/svg" viewBox="0 0 14 12" id="telegram">
    <path d="M13.9586 1.08148L11.8461 11.044C11.6866 11.747 11.2711 11.922 10.6806 11.591L7.46162 9.21898L5.90862 10.713C5.73662 10.885 5.59312 11.0285 5.26162 11.0285L5.49312 7.75048L11.4586 2.35998C11.7181 2.12898 11.4021 2.00048 11.0556 2.23198L3.68062 6.87598L0.505619 5.88198C-0.184881 5.66648 -0.197381 5.19148 0.649619 4.85998L13.0681 0.0754815C13.6431 -0.140019 14.1461 0.203481 13.9586 1.08198V1.08148Z"/>
  </symbol>
  <symbol xmlns="http://www.w3.org/2000/svg" viewBox="0 0 14 14" id="website">
    <path d="M9.90732 8.33331C9.96065 7.89331 10.0007 7.45331 10.0007 6.99998C10.0007 6.54665 9.96065 6.10665 9.90732 5.66665H12.1607C12.2673 6.09331 12.334 6.53998 12.334 6.99998C12.334 7.45998 12.2673 7.90665 12.1607 8.33331H9.90732ZM8.72732 12.04C9.12732 11.3 9.43399 10.5 9.64732 9.66665H11.614C10.9681 10.7788 9.94339 11.6213 8.72732 12.04ZM8.56065 8.33331H5.44065C5.37398 7.89331 5.33398 7.45331 5.33398 6.99998C5.33398 6.54665 5.37398 6.09998 5.44065 5.66665H8.56065C8.62065 6.09998 8.66732 6.54665 8.66732 6.99998C8.66732 7.45331 8.62065 7.89331 8.56065 8.33331ZM7.00065 12.3066C6.44732 11.5066 6.00065 10.62 5.72732 9.66665H8.27399C8.00065 10.62 7.55399 11.5066 7.00065 12.3066ZM4.33398 4.33331H2.38732C3.02656 3.21812 4.05052 2.3743 5.26732 1.95998C4.86732 2.69998 4.56732 3.49998 4.33398 4.33331ZM2.38732 9.66665H4.33398C4.56732 10.5 4.86732 11.3 5.26732 12.04C4.05307 11.6211 3.03055 10.7785 2.38732 9.66665ZM1.84065 8.33331C1.73398 7.90665 1.66732 7.45998 1.66732 6.99998C1.66732 6.53998 1.73398 6.09331 1.84065 5.66665H4.09398C4.04065 6.10665 4.00065 6.54665 4.00065 6.99998C4.00065 7.45331 4.04065 7.89331 4.09398 8.33331H1.84065ZM7.00065 1.68665C7.55399 2.48665 8.00065 3.37998 8.27399 4.33331H5.72732C6.00065 3.37998 6.44732 2.48665 7.00065 1.68665ZM11.614 4.33331H9.64732C9.43867 3.50762 9.1297 2.71058 8.72732 1.95998C9.95399 2.37998 10.974 3.22665 11.614 4.33331ZM7.00065 0.333313C3.31398 0.333313 0.333984 3.33331 0.333984 6.99998C0.333984 8.76809 1.03636 10.4638 2.28661 11.714C2.90566 12.3331 3.64059 12.8241 4.44943 13.1592C5.25827 13.4942 6.12517 13.6666 7.00065 13.6666C8.76876 13.6666 10.4645 12.9643 11.7147 11.714C12.9649 10.4638 13.6673 8.76809 13.6673 6.99998C13.6673 6.1245 13.4949 5.25759 13.1599 4.44876C12.8248 3.63992 12.3338 2.90499 11.7147 2.28593C11.0956 1.66688 10.3607 1.17581 9.55188 0.840783C8.74304 0.505751 7.87613 0.333313 7.00065 0.333313Z"/>
  </symbol>
  <symbol xmlns="http://www.w3.org/2000/svg" viewBox="0 0 166 36" id="logo">
    <path d="M35.9999 35.9999H0V0H35.9999V35.9999ZM1.0319 35.0576H34.9686V0.943937H1.0319V35.0576Z" fill="#0F1320"/>
    <path d="M12.4372 27.2161L10.1165 23.5647L20.0199 12.3202L10.1165 12.3196V8.64282H23.2577L25.8797 11.9585L15.6756 23.5382H25.8756V27.2161H12.4372Z" fill="#336CDA"/>
    <path d="M56.6975 25V27.8037H44V25.5887L52.0702 15.6355H44.1653V12.8318H56.4772V15.0467L48.3794 25H56.6975Z" fill="#0F1320"/>
    <path d="M65.4902 12.6635C67.6569 12.6635 69.3095 13.1962 70.448 14.2617C71.6048 15.3084 72.1832 16.8972 72.1832 19.028V27.8037H68.9331V25.9813C68.5108 26.6355 67.9048 27.1401 67.1152 27.4953C66.344 27.8317 65.4075 27.9999 64.3058 27.9999C63.2041 27.9999 62.24 27.813 61.4137 27.4392C60.5874 27.0467 59.9447 26.514 59.4857 25.8411C59.045 25.1495 58.8246 24.3738 58.8246 23.514C58.8246 22.1682 59.3112 21.0934 60.2844 20.2897C61.276 19.4673 62.8276 19.056 64.9393 19.056H68.7403V18.8317C68.7403 17.785 68.4281 16.9813 67.8038 16.4205C67.1979 15.8598 66.2889 15.5794 65.077 15.5794C64.2507 15.5794 63.4336 15.7103 62.6256 15.9719C61.8361 16.2336 61.1658 16.5981 60.615 17.0654L59.2653 14.514C60.0366 13.9159 60.9638 13.4579 62.0472 13.1402C63.1306 12.8224 64.2782 12.6635 65.4902 12.6635ZM65.0219 25.4486C65.885 25.4486 66.647 25.2523 67.308 24.8598C67.9874 24.4486 68.4649 23.8691 68.7403 23.1215V21.3831H65.1872C63.2041 21.3831 62.2125 22.0467 62.2125 23.3738C62.2125 24.0093 62.4604 24.514 62.9562 24.8878C63.4519 25.2616 64.1405 25.4486 65.0219 25.4486Z" fill="#0F1320"/>
    <path d="M82.6063 21.3831L80.0447 23.8504V27.8037H76.6018V7H80.0447V19.5607L87.1785 12.8318H91.31L85.1678 19.1121L91.8884 27.8037H87.7018L82.6063 21.3831Z" fill="#0F1320"/>
    <path d="M100.104 27.9999C98.6168 27.9999 97.2764 27.6728 96.0828 27.0186C94.8893 26.3644 93.9528 25.4579 93.2734 24.299C92.6123 23.1215 92.2818 21.7944 92.2818 20.3177C92.2818 18.8411 92.6123 17.5233 93.2734 16.3645C93.9528 15.2056 94.8893 14.299 96.0828 13.6448C97.2764 12.9906 98.6168 12.6635 100.104 12.6635C101.61 12.6635 102.959 12.9906 104.153 13.6448C105.347 14.299 106.274 15.2056 106.935 16.3645C107.614 17.5233 107.954 18.8411 107.954 20.3177C107.954 21.7944 107.614 23.1215 106.935 24.299C106.274 25.4579 105.347 26.3644 104.153 27.0186C102.959 27.6728 101.61 27.9999 100.104 27.9999ZM100.104 25C101.371 25 102.418 24.5701 103.244 23.7102C104.07 22.8504 104.484 21.7196 104.484 20.3177C104.484 18.9159 104.07 17.785 103.244 16.9252C102.418 16.0654 101.371 15.6355 100.104 15.6355C98.8371 15.6355 97.7905 16.0654 96.9642 16.9252C96.1562 17.785 95.7523 18.9159 95.7523 20.3177C95.7523 21.7196 96.1562 22.8504 96.9642 23.7102C97.7905 24.5701 98.8371 25 100.104 25Z" fill="#0F1320"/>
    <path d="M119.592 12.6635C121.447 12.6635 122.934 13.2149 124.054 14.3177C125.174 15.4205 125.734 17.0561 125.734 19.2243V27.8037H122.291V19.6729C122.291 18.3645 121.988 17.3832 121.382 16.7289C120.776 16.0561 119.913 15.7196 118.793 15.7196C117.526 15.7196 116.526 16.1121 115.791 16.8972C115.057 17.6635 114.689 18.7757 114.689 20.2336V27.8037H111.246V12.8318H114.524V14.7663C115.093 14.0747 115.809 13.5514 116.672 13.1962C117.535 12.8411 118.509 12.6635 119.592 12.6635Z" fill="#0F1320"/>
    <path d="M131.204 27.9999C130.579 27.9999 130.047 27.785 129.606 27.3551C129.165 26.9065 128.945 26.3457 128.945 25.6729C128.945 24.9813 129.156 24.4205 129.578 23.9906C130.019 23.5607 130.561 23.3458 131.204 23.3458C131.846 23.3458 132.379 23.5607 132.801 23.9906C133.242 24.4205 133.462 24.9813 133.462 25.6729C133.462 26.3457 133.242 26.9065 132.801 27.3551C132.36 27.785 131.828 27.9999 131.204 27.9999Z" fill="#0F1320"/>
    <path d="M142.831 21.3831L140.269 23.8504V27.8037H136.826V7H140.269V19.5607L147.403 12.8318H151.535L145.392 19.1121L152.113 27.8037H147.926L142.831 21.3831Z" fill="#0F1320"/>
    <path d="M165.5 25V27.8037H152.802V25.5887L160.872 15.6355H152.967V12.8318H165.279V15.0467L157.182 25H165.5Z" fill="#0F1320"/>
  </symbol>
  <symbol xmlns="http://www.w3.org/2000/svg" viewBox="0 0 22 17" id="quote">
    <path d="M2.25607 2.43525C3.70363 0.819187 5.89405 0 8.76543 0H9.79719V2.99519L8.96765 3.16625C7.55415 3.45738 6.57088 4.03006 6.04469 4.8705C5.77013 5.32326 5.61441 5.84167 5.59278 6.375H8.76543C9.03907 6.375 9.3015 6.48694 9.49499 6.6862C9.68848 6.88546 9.79719 7.15571 9.79719 7.4375V14.875C9.79719 16.0469 8.8717 17 7.73367 17H1.54313C1.26949 17 1.00706 16.8881 0.813565 16.6888C0.620073 16.4895 0.51137 16.2193 0.51137 15.9375V10.625L0.514466 7.52356C0.50518 7.40563 0.309146 4.61125 2.25607 2.43525ZM19.083 17H12.8925C12.6188 17 12.3564 16.8881 12.1629 16.6888C11.9694 16.4895 11.8607 16.2193 11.8607 15.9375V10.625L11.8638 7.52356C11.8545 7.40563 11.6585 4.61125 13.6054 2.43525C15.053 0.819187 17.2434 0 20.1148 0H21.1465V2.99519L20.317 3.16625C18.9035 3.45738 17.9202 4.03006 17.394 4.8705C17.1195 5.32326 16.9637 5.84167 16.9421 6.375H20.1148C20.3884 6.375 20.6508 6.48694 20.8443 6.6862C21.0378 6.88546 21.1465 7.15571 21.1465 7.4375V14.875C21.1465 16.0469 20.221 17 19.083 17Z" fill="#FAFAFB"/>
  </symbol>
  <symbol xmlns="http://www.w3.org/2000/svg" viewBox="0 0 480 352" id="chart">
    <path d="M456 352H408C401.635 352 395.53 349.471 391.029 344.971C386.529 340.47 384 334.365 384 328V24C384 17.6348 386.529 11.5303 391.029 7.02943C395.53 2.52856 401.635 0 408 0H456C462.365 0 468.47 2.52856 472.971 7.02943C477.471 11.5303 480 17.6348 480 24V328C480 334.365 477.471 340.47 472.971 344.971C468.47 349.471 462.365 352 456 352ZM328 352H280C273.635 352 267.53 349.471 263.029 344.971C258.529 340.47 256 334.365 256 328V104C256 97.6348 258.529 91.5303 263.029 87.0294C267.53 82.5286 273.635 80 280 80H328C334.365 80 340.47 82.5286 344.971 87.0294C349.471 91.5303 352 97.6348 352 104V328C352 334.365 349.471 340.47 344.971 344.971C340.47 349.471 334.365 352 328 352ZM200 352H152C145.635 352 139.53 349.471 135.029 344.971C130.529 340.47 128 334.365 128 328V168C128 161.635 130.529 155.53 135.029 151.029C139.53 146.529 145.635 144 152 144H200C206.365 144 212.47 146.529 216.971 151.029C221.471 155.53 224 161.635 224 168V328C224 334.365 221.471 340.47 216.971 344.971C212.47 349.471 206.365 352 200 352ZM72 352H24C17.6348 352 11.5303 349.471 7.02944 344.971C2.52856 340.47 0 334.365 0 328V232C0 225.635 2.52856 219.53 7.02944 215.029C11.5303 210.529 17.6348 208 24 208H72C78.3652 208 84.4697 210.529 88.9706 215.029C93.4714 219.53 96 225.635 96 232V328C96 334.365 93.4714 340.47 88.9706 344.971C84.4697 349.471 78.3652 352 72 352Z" />
  </symbol>
  <symbol xmlns="http://www.w3.org/2000/svg" viewBox="0 0 320 448" id="hot">
    <path d="M298.24 165.56C285.844 132.671 267.777 102.209 244.86 75.56C205.2 29.65 144 0 96 0C115 70 81.64 117.12 51.21 163.77C26 202.36 0 242.27 0 288C0 376.22 71.78 448 160 448C248.22 448 320 376.22 320 288C320 244.7 312.68 203.51 298.24 165.56ZM192.33 386.69C182 397.69 169.05 400 160 400C150.95 400 138 397.69 127.67 386.69C117.34 375.69 112 358.24 112 336C112 310.86 120.82 291.72 129.34 273.22C135.82 259.15 144 246 144.45 228.73C155.75 234.61 168.12 245.64 178.99 260.01C197.16 284.01 207.99 312.43 207.99 336.01C208 358.24 202.58 375.77 192.33 386.69Z" />
  </symbol>
  <symbol xmlns="http://www.w3.org/2000/svg" viewBox="0 0 192.5 192.5" id="adult">
    <path d="M96.24,0a96.26,96.26,0,0,0,0,192.51h0A96.26,96.26,0,1,0,96.24,0Zm64.31,142.46v-.11a79.1,79.1,0,0,1-128.1.71v.06a78.6,78.6,0,0,1-11.67-23c-.08-.25-.15-.5-.23-.75-.27-.9-.53-1.81-.77-2.73-.09-.32-.18-.63-.26-1-.23-.94-.45-1.89-.65-2.84-.06-.25-.12-.49-.17-.74-.23-1.15-.44-2.31-.62-3.48-.06-.42-.11-.84-.17-1.26-.1-.74-.2-1.49-.29-2.24-.06-.57-.11-1.14-.16-1.72s-.1-1.14-.13-1.71-.09-1.38-.12-2.07c0-.26,0-.51,0-.77,0-.84-.07-1.69-.07-2.55a79.12,79.12,0,0,1,158-5.71c0,.24,0,.48,0,.72.05.83.09,1.65.11,2.48,0,.59,0,1.18.05,1.77,0,.25,0,.5,0,.74s0,.67,0,1q0,1.23-.06,2.46c0,.43,0,.85-.07,1.28-.05.95-.13,1.89-.21,2.84,0,.32-.07.65-.1,1-.11,1-.24,2.07-.4,3.1,0,.23-.06.47-.1.7-.17,1.11-.37,2.21-.59,3.31,0,.16-.06.32-.1.48-.24,1.16-.5,2.32-.8,3.47l-.06.26c-.32,1.21-.66,2.42-1,3.62l0,0A78.9,78.9,0,0,1,160.55,142.46Z"/>
    <polygon points="37.02 120.42 28.92 120.42 28.92 135.55 62.55 135.55 62.55 120.42 55.36 120.42 55.36 60.66 24.49 60.66 24.49 74.11 37.02 74.11 37.02 120.42"/>
    <polygon points="141.67 79.23 155.68 79.23 155.68 97.37 173.31 97.37 173.31 111.59 155.44 111.59 155.44 129.22 141.67 129.22 141.67 111.83 123.08 111.83 123.08 97.37 141.43 97.37 141.67 79.23"/>
    <path d="M108.64,95.14s12.37-5.38,6.63-21.69S89.46,59.83,89.46,59.83,72.2,62,70.28,76.48a19,19,0,0,0,1.49,10c2.85,6.69,6.76,8.71,6.76,8.71s-17.39,6.09-11.65,26C71.75,138,90.49,138,96,137.59c1-.07,1.93-.11,2.91-.14,4-.11,15.69-1.54,20-14.17C123.88,108.4,116,98.36,108.64,95.14Zm-17-20A7.18,7.18,0,1,1,86,80.75,7.18,7.18,0,0,1,91.68,75.11Zm3,46.47a9.32,9.32,0,1,1,7.6-7.61A9.32,9.32,0,0,1,94.66,121.58Z"/>
  </symbol>
  <symbol id="pen" viewBox="0 0 24 24" xmlns="http://www.w3.org/2000/svg">
    <path class="ast0" d="M7.7 21.4H3.1c-.4 0-.8-.3-.8-.8v-4.5c0-.5.2-.9.5-1.2l9.6-9.6 2.8-2.8c.3-.3.8-.3 1.1 0l4.9 5c.1.1.2.3.2.5s-.1.4-.2.5L8.9 20.9c-.3.3-.8.5-1.2.5zm-3.8-1.5h3.8c.1 0 .1 0 .2-.1l9.1-9.1-4-3.8L3.9 16s-.1.1-.1.2v3.7zM14.1 5.8L18 9.7 19.7 8l-3.9-3.9-1.7 1.7z"/>
  </symbol>
  <symbol id="bellz" viewBox="0 0 48 48" xmlns="http://www.w3.org/2000/svg">
    <path class="ast0" d="M21.9 26.1h4.2V13.8h-4.2v12.3zM24 33c.6 0 1.2-.2 1.6-.7.4-.4.7-1 .7-1.6 0-1.3-1.1-2.3-2.3-2.3-.6 0-1.2.2-1.6.7-.4.4-.7 1-.7 1.6.1 1.3 1.1 2.3 2.3 2.3zM4.9 40.3v-4.2h4.9V19c0-3.2 1-6.2 2.9-8.8 1.8-2.6 4.6-4.4 7.6-5.1V3.5c0-.9.4-1.9 1.1-2.5 1.5-1.3 3.7-1.3 5.2 0 .7.6 1.1 1.5 1.1 2.5v1.7c3.1.7 5.8 2.5 7.7 5.1 1.9 2.5 3 5.6 2.9 8.8v17.1h4.8v4.2H4.9zM24 48c-2.7 0-5-2.2-5-5h10c0 1.3-.5 2.6-1.5 3.5-.9 1-2.2 1.5-3.5 1.5z"/>
  </symbol>
  <symbol id="comment" viewBox="0 0 48 48" xmlns="http://www.w3.org/2000/svg">
    <path d="M4 34V6.1c0-.5.2-.9.7-1.4S5.5 4 6 4h26c.5 0 1 .2 1.4.7.4.4.6.9.6 1.4v17.8c0 .5-.2.9-.7 1.4-.4.5-.8.7-1.3.7H12l-8 8zm10.1 2c-.5 0-.9-.2-1.4-.7-.5-.5-.7-.9-.7-1.4V29h25V12h5c.5 0 .9.2 1.3.7.4.5.7.9.7 1.4V44l-8-8H14.1zM31 7H7v19.8l3.8-3.8H31V7zM7 7v19.8V7z"/>
  </symbol>
  <symbol id="willshare" viewBox="0 0 15 15" xmlns="http://www.w3.org/2000/svg">
    <path d="M7.8,1L14,7l-6.2,5.7V9C3.1,9,1,14,1,14c0-5.7,1.7-9.3,6.8-9.3V1z"/>
  </symbol>
</svg>