<svg id="Слой_1" data-name="Слой 1" xmlns="http://www.w3.org/2000/svg" viewBox="0 0 64 64"><title>sport_logo</title><g id="logo"><g id="Сгруппировать_218" data-name="Сгруппировать 218"><g id="Сгруппировать_214" data-name="Сгруппировать 214"><path id="Контур_506" data-name="Контур 506" d="M30.76,53.77A12.65,12.65,0,0,1,26.65,55l-.34,0,1.78,1.48.07,0a9.89,9.89,0,0,0,3.52-1.93L31.05,54l-.29-.24m4.46-2.53a8,8,0,0,0-2.14,1.15l-.65.43c.25.15.51.3.78.45A16.3,16.3,0,0,1,34.89,52c1.75,2,4.94,2.26,8.08.83-2.23-2.93-5.08-3.26-7.75-1.6m3.62-1.54a5.72,5.72,0,0,1,2.67,1,9.06,9.06,0,0,1,1.85-2,17.44,17.44,0,0,0,1.27-4.49,8.38,8.38,0,0,0-5.79,5.56m3.09,1.38c2.35,1.88,4.55,1.61,6.95-1.58-3.62-2.09-5.14-1-6.95,1.58m5-4.31a2.94,2.94,0,0,0-.6.16,6.88,6.88,0,0,1,1.87-4,10.19,10.19,0,0,0-.74-4.21c-2.63,2.48-2.89,5.1-1.77,8.14a12.41,12.41,0,0,1-.89,1.05A3.74,3.74,0,0,1,46,47.84a3.78,3.78,0,0,1,1.31-.66c3.81.71,5.52-.87,7.79-7.54-4.67.9-7.9,4.54-8.16,7.13m1.73-4.32c.26-.26.54-.52.84-.77a8.33,8.33,0,0,0,.45-1.32c1.31-2,.74-4.66-1.43-8.16-1.61,3.64-.9,7.07.68,8.43a8.23,8.23,0,0,1-.56,1.16q0,.34,0,.66m7.22-14.15c-3.22,3.69-3.14,7-2.17,9.92a4.61,4.61,0,0,1-1,.62l-.19.1A9.11,9.11,0,0,0,53,37.88a11.62,11.62,0,0,1-.35-1.61A9.47,9.47,0,0,1,50.44,41a12.46,12.46,0,0,1,1.68-1,10.61,10.61,0,0,1,1-.72,9,9,0,0,0,1.06-.77c2.15-.62,3.89-5.33,1.69-10.21m-7-1.85c.56,5.88,1,7.29,3.71,9.44a9.07,9.07,0,0,1,.7-4.65c-.62-1.57-2-3.08-4.41-4.79M52,28.35a9.6,9.6,0,0,1,1.21,1.54c2.32-1.67,2.44-5.2.65-9C51.6,24.05,51.3,26.3,52,28.35m-.44-5.19a4.23,4.23,0,0,0,0,.65,11.47,11.47,0,0,1,.82-1.73c.62-2.46-.34-5.36-4.63-7,.7,4.33,1.2,5.93,3.78,8M50.87,26a3.71,3.71,0,0,1,.25.32A6.86,6.86,0,0,1,51.27,25,4.18,4.18,0,0,0,51,23.41a9.6,9.6,0,0,1-2-2.28,10.38,10.38,0,0,0-3.66-1.35c.37,3.78,2.84,6.21,5.58,6.24m-4.49-7.74a20.72,20.72,0,0,0,2.11,2A10,10,0,0,1,48,19.07a13.6,13.6,0,0,1-1.1-1c1.1-2.58-.36-5-3.65-7.5-.67,3.48.15,7,3.1,7.71M38,12.2A6.54,6.54,0,0,1,42,13a3.79,3.79,0,0,1,.53.41,11.19,11.19,0,0,1,0-1.59c-1.21-1.52-3.44-2.32-6.62-2.32A7.76,7.76,0,0,0,38,12.2m5,3.74a7.41,7.41,0,0,1-.43-1.58c-1.26-1.84-4.24-2-7.62-1,2.07,2.93,4.9,3.55,8,2.55m-.66.45a7.86,7.86,0,0,1,.88,0,5.29,5.29,0,0,0,.39.65,4.39,4.39,0,0,0,2.75,1.81,3.66,3.66,0,0,1-4-2.5" transform="translate(-0.04 0)" fill="#fff"/></g><g id="Сгруппировать_215" data-name="Сгруппировать 215"><path id="Контур_507" data-name="Контур 507" d="M37.51,55A13.94,13.94,0,0,1,31,52.52a12.57,12.57,0,0,0-1.79-1c-2.75-1.87-5.72-1.62-8,1.41,3.11,1.42,6.28,1.14,8-.78.62.41,1.26.92,1.92,1.46A13.78,13.78,0,0,0,36,56.52l.07,0,1.78-1.48Zm-12.11-5.3A8.38,8.38,0,0,0,20,44.08,11.07,11.07,0,0,0,22.2,51a5.72,5.72,0,0,1,3.2-1.3m-7.1-2.36a14.21,14.21,0,0,0,2.56,2.81,10.53,10.53,0,0,1-.78-1.87,14.94,14.94,0,0,1-1.24-1.49,6.7,6.7,0,0,0-1.72-7.69c-1.58,3.87-.93,6.67,1.17,8.24M17,47.22l.4.12a5.62,5.62,0,0,1-1.71-4,10.5,10.5,0,0,0-7.06-4C11,46.41,12.85,48,17,47.22M15.69,32C12.18,36,12.63,38.77,14.36,41l.1.29a11.28,11.28,0,0,1,1.22,1.2c0-.09,0-.19,0-.29A8.66,8.66,0,0,1,15,40.9c1.74-1.48,3.1-5.13.64-8.88M10,38.58a7.55,7.55,0,0,0,.83.62,11,11,0,0,1,2.44,1.16,6.2,6.2,0,0,1-.54-1.22,8.63,8.63,0,0,1-1.13-3.24,11.16,11.16,0,0,1-.34,1.78,9.77,9.77,0,0,0,.66,1.49c-.16-.1-.32-.18-.47-.26a4.63,4.63,0,0,1-1-.62c1-2.87,1.05-6.23-2.17-9.92C6.08,33.24,7.81,38,10,38.58m5.31-12.34c-2.48,1.76-3.88,3.3-4.47,4.93a9.07,9.07,0,0,1,.78,4.49c2.68-2.14,3.13-3.56,3.69-9.42m-4.14.95c-.17.37-.32.71-.45,1.07-.22.62-.4,1.17-.53,1.66a11,11,0,0,1,.62,1.17c.13-.64.3-1.41.56-2.28a10.31,10.31,0,0,1,1.06-1.66,6.82,6.82,0,0,1,.84-1.08c2.76,0,5.26-2.44,5.63-6.24-3.52.66-6.39,2.6-5.94,5.92-.18.23-.35.46-.51.7s-.37.53-.58.8a13,13,0,0,0,.88-4.14h0a4.82,4.82,0,0,1,.4-.73,6,6,0,0,1,1.67-1.61,16,16,0,0,0,1.56-5.59c-5,1.87-5.48,5.5-4.2,8.14a9.17,9.17,0,0,1-1,3.86m5-8.08a10,10,0,0,1-.41,1.13l.17-.08a20.51,20.51,0,0,0,1.89-1.82c2.95-.73,3.77-4.22,3.1-7.71-3.29,2.47-4.75,4.92-3.65,7.5a13.39,13.39,0,0,1-1.08,1m12.69-9.7c-3.45.15-5.85,1.1-7.17,2.76a10.17,10.17,0,0,1-.1,2.24,7.52,7.52,0,0,0,7.26-5m-5.62,6.88.61.12a6.49,6.49,0,0,0,4.73-3c-.52-.16-1-.29-1.53-.39A8.47,8.47,0,0,1,21.45,15a6.92,6.92,0,0,1-.36,1.11,9,9,0,0,1,2.11.19m-.11.58a8,8,0,0,0-2.3-.16c-.08.15-.17.29-.27.43A4.4,4.4,0,0,1,17.68,19a4.53,4.53,0,0,0,5.41-2.1M21.48,51.5c-.05-.06-.31-.27-.54-.45a22.48,22.48,0,0,1-2.67-2.73l-.16-.2a6.37,6.37,0,0,0-3.28.79,4.77,4.77,0,0,0,6.72,2.67ZM9.88,29.28C8.3,27.44,8.38,24.3,10,21a13.45,13.45,0,0,1,1.7,3A9.61,9.61,0,0,1,10.73,27c-.17.37-.33.73-.46,1.09s-.28.79-.39,1.15" transform="translate(-0.04 0)" fill="#fff"/></g><g id="Сгруппировать_216" data-name="Сгруппировать 216"><path id="Контур_508" data-name="Контур 508" d="M32,60.54A28.54,28.54,0,1,1,32,3.46h0A28.54,28.54,0,0,1,60.58,32h0A28.54,28.54,0,0,1,32,60.54h0M32,0A32,32,0,1,0,64,32,32,32,0,0,0,32,0" transform="translate(-0.04 0)" fill="#fff"/></g></g></g></svg>