<svg width="255" height="32" viewBox="0 0 255 32" fill="none" xmlns="http://www.w3.org/2000/svg">
<path fill-rule="evenodd" clip-rule="evenodd" d="M13.6241 27.4286H18.4363V0H11.3743C4.31222 0 0.62496 3.58301 0.62496 8.89575C0.62496 13.0965 2.62483 15.6293 6.31209 18.1622L0 27.4286H5.24966L12.3117 17.0502L9.87437 15.444C6.93706 13.4672 5.49965 11.9228 5.49965 8.58687C5.49965 5.6834 7.56201 3.70656 11.5618 3.70656H13.6866V27.4286H13.6241ZM77.12 26.0695V22.2394C75.6201 23.2278 73.1828 24.0927 70.8704 24.0927C67.3707 24.0927 66.0582 22.4865 65.8708 19.1506H77.37V16.6795C77.37 9.76062 74.3077 7.16602 69.558 7.16602C63.7459 7.16602 60.9961 11.5521 60.9961 17.5444C60.9961 24.4633 64.4334 27.7992 70.4955 27.7992C73.4953 27.7992 75.6826 27.0579 77.12 26.0695ZM106.806 27.7992C108.993 27.7992 110.555 27.4286 111.743 26.5637V22.7336C110.555 23.5985 109.118 24.0927 107.118 24.0927C103.743 24.0927 102.306 21.4981 102.306 17.3591C102.306 13.0347 104.056 10.8726 107.118 10.8726C108.93 10.8726 110.743 11.4903 111.68 12.1081V8.09266C110.68 7.53668 108.93 7.16602 106.556 7.16602C100.494 7.16602 97.3062 11.4903 97.3062 17.5444C97.3687 24.1544 100.494 27.7992 106.806 27.7992ZM33.5603 7.59846V15.444H27.1857V7.59846H22.4361V27.4286H27.1857V19.1506H33.5603V27.4286H38.31V7.59846H33.5603ZM59.7461 23.722H57.6213V7.59846H43.7472V9.26641C43.7472 14.1467 43.4347 20.3861 41.7473 23.722H40.2474V32H44.6221V27.4286H55.3089V32H59.6837V23.722H59.7461ZM92.3066 27.4286L85.2445 17.668V27.4286H80.4948V7.59846H85.2445V16.7413L91.9941 7.59846H96.8063L90.0567 16.7413L97.6812 27.4286H92.3066ZM69.3705 10.8726C71.7454 10.8726 72.4328 12.7876 72.4328 15.3205V15.6911H65.8083C65.9958 12.5405 67.1207 10.8726 69.3705 10.8726ZM52.8716 23.722H46.1845C47.4969 20.7568 47.8719 15.3205 47.8719 11.861V11.2432H52.8716V23.722ZM122.93 0V27.4286H127.742V15.5058H136.804V27.4286H141.616V0H136.804V11.7992H127.742V0H122.93ZM153.678 7.16602C148.428 7.16602 144.803 10.8726 144.803 17.5444C144.803 24.1544 148.428 27.861 153.678 27.861C158.927 27.861 162.552 24.2162 162.552 17.5444C162.552 10.8726 158.927 7.16602 153.678 7.16602ZM153.678 24.0927C151.053 24.0927 149.74 22.1158 149.74 17.4826C149.74 12.8494 151.053 10.8726 153.678 10.8726C156.302 10.8726 157.615 12.9112 157.615 17.4826C157.677 22.1158 156.365 24.0927 153.678 24.0927ZM173.676 27.4286C178.364 27.4286 181.176 25.4517 181.176 21.6834C181.176 19.0888 179.551 17.5444 176.926 17.112C179.051 16.4942 180.426 15.0116 180.426 12.6641C180.426 9.26641 178.114 7.59846 173.739 7.59846H165.739V27.4286H173.676V27.4286ZM173.051 11.1197C174.801 11.1197 175.739 11.7992 175.739 13.3436C175.739 14.7027 174.676 15.5676 172.926 15.5676H170.489V11.1197H173.051V11.1197ZM173.176 18.9652C175.176 18.9652 176.301 19.6448 176.301 21.3127C176.301 23.1042 175.114 23.8456 173.176 23.8456H170.552V18.9652H173.176ZM192.113 7.16602C186.863 7.16602 183.238 10.8726 183.238 17.5444C183.238 24.1544 186.863 27.861 192.113 27.861C197.362 27.861 200.987 24.2162 200.987 17.5444C200.987 10.8726 197.3 7.16602 192.113 7.16602ZM192.113 24.0927C189.488 24.0927 188.175 22.1158 188.175 17.4826C188.175 12.8494 189.488 10.8726 192.113 10.8726C194.737 10.8726 196.05 12.9112 196.05 17.4826C196.05 22.1158 194.737 24.0927 192.113 24.0927ZM212.799 27.7992C214.986 27.7992 216.549 27.4286 217.736 26.5637V22.7336C216.549 23.5985 215.111 24.0927 213.111 24.0927C209.736 24.0927 208.299 21.4981 208.299 17.3591C208.299 13.0347 209.986 10.8726 213.111 10.8726C214.924 10.8726 216.736 11.4903 217.673 12.1081V8.09266C216.674 7.53668 214.924 7.16602 212.549 7.16602C206.487 7.16602 203.299 11.4903 203.299 17.5444C203.362 24.1544 206.424 27.7992 212.799 27.7992ZM235.61 11.305V7.59846H219.673V11.305H225.236V27.4286H229.985V11.305H235.61ZM238.422 7.59846V27.4286H242.547L249.921 15.1351V27.4286H254.546V7.59846H250.421L243.047 19.8301V7.59846H238.422Z" fill="black"/>
</svg>
