<svg width="166px" height="36px" version="1.1" id="Слой_1" xmlns="http://www.w3.org/2000/svg" xmlns:xlink="http://www.w3.org/1999/xlink" x="0px" y="0px"
	 viewBox="0 0 166 36" style="enable-background:new 0 0 166 36;" xml:space="preserve">
<style type="text/css">
	.st0{fill:#000207;}
</style>
<path class="st0" d="M34.6,22.9v2.9H21.8v-2.3L30,13h-8v-2.9h12.4v2.3l-8.2,10.5C26.2,22.9,34.6,22.9,34.6,22.9z"/>
<path class="st0" d="M43.5,9.9c2.2,0,3.8,0.6,5,1.7s1.7,2.8,1.7,5v9.2h-3.3v-1.9c-0.4,0.7-1,1.2-1.8,1.6S43.4,26,42.3,26
	s-2.1-0.2-2.9-0.6c-0.8-0.4-1.5-1-1.9-1.7s-0.7-1.5-0.7-2.4c0-1.4,0.5-2.5,1.5-3.4s2.6-1.3,4.7-1.3h3.8v-0.2c0-1.1-0.3-1.9-0.9-2.5
	c-0.6-0.6-1.5-0.9-2.7-0.9c-0.8,0-1.7,0.1-2.5,0.4s-1.5,0.7-2,1.1l-1.4-2.7c0.8-0.6,1.7-1.1,2.8-1.4C41.1,10.1,42.3,9.9,43.5,9.9z
	 M43,23.3c0.9,0,1.6-0.2,2.3-0.6s1.2-1,1.4-1.8v-1.8h-3.6c-2,0-3,0.7-3,2.1c0,0.7,0.2,1.2,0.7,1.6C41.4,23.2,42.1,23.3,43,23.3z"/>
<path class="st0" d="M60.7,19.1l-2.6,2.6v4.2h-3.5V4h3.5v13.2l7.2-7.1h4.2l-6.2,6.6l6.8,9.1h-4.2L60.7,19.1z"/>
<path class="st0" d="M78.3,26c-1.5,0-2.8-0.3-4-1s-2.1-1.6-2.8-2.9c-0.7-1.2-1-2.6-1-4.2c0-1.6,0.3-2.9,1-4.2
	c0.7-1.2,1.6-2.2,2.8-2.9c1.2-0.7,2.6-1,4-1c1.5,0,2.9,0.3,4.1,1s2.1,1.6,2.8,2.9c0.7,1.2,1,2.6,1,4.2s-0.3,2.9-1,4.2
	c-0.7,1.2-1.6,2.2-2.8,2.9S79.8,26,78.3,26z M78.3,22.9c1.3,0,2.3-0.5,3.2-1.4c0.8-0.9,1.2-2.1,1.2-3.6s-0.4-2.7-1.2-3.6
	c-0.8-0.9-1.9-1.4-3.2-1.4c-1.3,0-2.3,0.5-3.2,1.4c-0.8,0.9-1.2,2.1-1.2,3.6s0.4,2.7,1.2,3.6C76,22.4,77,22.9,78.3,22.9z"/>
<path class="st0" d="M97.9,9.9c1.9,0,3.4,0.6,4.5,1.7c1.1,1.2,1.7,2.9,1.7,5.2v9h-3.5v-8.5c0-1.4-0.3-2.4-0.9-3.1s-1.5-1.1-2.6-1.1
	c-1.3,0-2.3,0.4-3,1.2c-0.7,0.8-1.1,2-1.1,3.5v8h-3.5V10.1h3.3v2c0.6-0.7,1.3-1.3,2.2-1.6C95.9,10.1,96.9,9.9,97.9,9.9z"/>
<path class="st0" d="M109.6,26c-0.6,0-1.2-0.2-1.6-0.7s-0.7-1.1-0.7-1.8c0-0.7,0.2-1.3,0.6-1.8s1-0.7,1.6-0.7s1.2,0.2,1.6,0.7
	s0.7,1,0.7,1.8c0,0.7-0.2,1.3-0.7,1.8C110.8,25.8,110.3,26,109.6,26z"/>
<path class="st0" d="M121.3,19.1l-2.6,2.6v4.2h-3.5V4h3.5v13.2l7.2-7.1h4.2l-6.2,6.6l6.8,9.1h-4.2L121.3,19.1z"/>
<path class="st0" d="M144.2,22.9v2.9h-12.8v-2.3l8.1-10.5h-8v-2.9h12.4v2.3l-8.2,10.5C135.7,22.9,144.2,22.9,144.2,22.9z"/>
</svg>
