<?xml version="1.0" encoding="iso-8859-1"?>
<!-- Generator: Adobe Illustrator 19.0.0, SVG Export Plug-In . SVG Version: 6.00 Build 0)  -->
<svg version="1.1" id="Layer_1" xmlns="http://www.w3.org/2000/svg" xmlns:xlink="http://www.w3.org/1999/xlink" x="0px" y="0px"
	 viewBox="0 0 512.001 512.001" style="enable-background:new 0 0 512.001 512.001;" xml:space="preserve">
<g>
	<g>
		<path fill="#1a095a" d="M260.409,75.835c-98.127,0-177.96,79.832-177.96,177.96s79.833,177.961,177.96,177.961
			c98.128,0,177.961-79.833,177.961-177.961S358.537,75.835,260.409,75.835z M205.058,105.853
			c-11.293,13.201-20.911,30.406-28.266,50.571h-40.68C153.875,133.798,177.675,116.131,205.058,105.853z M122.74,176.424h47.76
			c-5.468,20.456-8.799,43.199-9.523,67.371h-58.203C104.304,219.441,111.375,196.569,122.74,176.424z M102.776,263.795h58.203
			c0.657,21.959,3.472,42.732,8.081,61.688h-49.383C110.099,306.76,104.162,285.885,102.776,263.795z M131.855,345.483h42.947
			c7.573,22.625,17.915,41.829,30.255,56.255C175.424,390.614,149.989,370.833,131.855,345.483z M250.409,409.467
			c-16.46-4.227-31.994-18.815-44.539-42.143c-3.648-6.783-6.921-14.094-9.81-21.841h54.349V409.467z M250.409,325.483h-60.688
			c-5.05-19.009-8.031-39.901-8.73-61.688h69.418V325.483z M250.409,243.795h-69.418c0.77-23.981,4.307-46.875,10.32-67.371h59.098
			V243.795z M250.409,156.424h-52.125c2.316-5.656,4.844-11.059,7.586-16.158c12.545-23.328,28.079-37.916,44.539-42.142V156.424z
			 M398.079,176.424c11.366,20.145,18.436,43.017,19.965,67.371h-58.203c-0.724-24.172-4.055-46.915-9.523-67.371H398.079z
			 M384.708,156.424h-40.681c-7.355-20.165-16.973-37.37-28.266-50.571C343.145,116.131,366.945,133.798,384.708,156.424z
			 M270.409,98.124c16.46,4.227,31.994,18.815,44.539,42.142c2.742,5.099,5.27,10.502,7.586,16.158h-52.125V98.124z
			 M270.409,176.424h59.098c6.013,20.496,9.55,43.39,10.32,67.371h-69.418V176.424z M270.409,263.795h69.418
			c-0.7,21.787-3.68,42.679-8.73,61.688h-60.688V263.795z M270.409,409.467v-63.984h54.349c-2.889,7.747-6.162,15.058-9.81,21.841
			C302.404,390.652,286.87,405.24,270.409,409.467z M315.76,401.738c12.341-14.426,22.683-33.63,30.255-56.255h42.948
			C370.831,370.833,345.396,390.614,315.76,401.738z M351.76,325.483c4.609-18.957,7.423-39.729,8.081-61.688h58.204
			c-1.388,22.09-7.325,42.965-16.901,61.688H351.76z"/>
	</g>
</g>
<g>
	<g>
		<path fill="#1a095a" d="M466.231,0c-24.112,0-43.729,19.616-43.729,43.729c0.001,24.111,19.617,43.727,43.729,43.727
			c24.111,0,43.728-19.616,43.728-43.728S490.343,0,466.231,0z M466.231,67.457c-13.084,0-23.729-10.645-23.729-23.728
			C442.503,30.645,453.146,20,466.231,20c13.083,0,23.728,10.645,23.728,23.729C489.958,56.812,479.314,67.457,466.231,67.457z"/>
	</g>
</g>
<g>
	<g>
		<path fill="#1a095a" d="M45.771,0C21.659,0,2.042,19.616,2.042,43.729c0,24.111,19.616,43.727,43.728,43.727S89.5,67.84,89.5,43.728
			C89.498,19.616,69.882,0,45.771,0z M45.771,67.457c-13.083,0-23.728-10.645-23.728-23.728C22.042,30.645,32.687,20,45.771,20
			C58.854,20,69.5,30.645,69.5,43.729C69.5,56.812,58.854,67.457,45.771,67.457z"/>
	</g>
</g>
<g>
	<g>
		<path fill="#1a095a" d="M466.231,424.544c-24.112,0-43.729,19.616-43.729,43.728s19.616,43.729,43.729,43.729
			c24.111,0,43.728-19.616,43.728-43.729C509.958,444.16,490.343,424.544,466.231,424.544z M466.231,492
			c-13.084,0-23.729-10.645-23.729-23.729c0-13.083,10.645-23.728,23.729-23.728c13.083,0,23.728,10.645,23.728,23.728
			C489.958,481.355,479.313,492,466.231,492z"/>
	</g>
</g>
<g>
	<g>
		<path fill="#1a095a" d="M45.771,424.544c-24.111,0-43.728,19.616-43.728,43.728S21.659,512,45.771,512S89.5,492.384,89.5,468.271
			C89.498,444.16,69.882,424.544,45.771,424.544z M45.771,492c-13.083,0-23.728-10.645-23.728-23.729
			c0-13.083,10.645-23.728,23.728-23.728c13.084,0,23.729,10.645,23.729,23.728C69.498,481.355,58.854,492,45.771,492z"/>
	</g>
</g>
<g>
	<g>
		<circle fill="#1a095a" cx="102.08" cy="101.1" r="10"/>
	</g>
</g>
<g>
	<g>
		<circle fill="#1a095a" cx="101.19" cy="409.32" r="10"/>
	</g>
</g>
<g>
	<g>
		<circle fill="#1a095a" cx="413.461" cy="410.72" r="10"/>
	</g>
</g>
<g>
	<g>
		<circle fill="#1a095a" cx="413.461" cy="101.1" r="10"/>
	</g>
</g>
</svg>
