<svg width="60" height="60" viewBox="0 0 60 60" fill="none" xmlns="http://www.w3.org/2000/svg">
<path fill-rule="evenodd" clip-rule="evenodd" d="M2.5585 20.103C2.4955 20.134 2.4355 20.172 2.3805 20.215L2.3665 20.227L2.3415 20.248L2.3285 20.259L2.3095 20.277L2.2835 20.303L2.2685 20.319L2.2525 20.337L2.2445 20.345L2.2335 20.358C2.0955 20.523 2.0095 20.734 2.0015 20.9641L2.0005 20.984C2.0005 20.989 2.0005 20.995 2.0005 21V32.1711C0.835491 32.5821 0.000488281 33.6941 0.000488281 35.0001V45.0001C0.000488281 45.5521 0.44849 46.0001 1.00049 46.0001H5.00051C5.55251 46.0001 6.00051 45.5521 6.00051 45.0001V34.9981C6.00051 33.6921 5.16551 32.5811 4.0005 32.1701V22.6451L12.0005 26.7931V42.7221C12.0005 44.5421 12.9395 46.2341 14.4845 47.1971C14.4855 47.1981 14.4865 47.1981 14.4875 47.1991C24.8306 53.5862 35.1656 53.5642 45.5007 47.1851C45.5007 47.1851 45.5017 47.1851 45.5027 47.1841C47.0477 46.2251 47.9867 44.5351 47.9867 42.7171C47.9997 38.2441 48.0007 28.5951 48.0007 26.7931L57.4607 21.8881C57.7927 21.7161 58.0007 21.3731 58.0007 21C58.0007 20.627 57.7927 20.284 57.4607 20.112L30.4606 6.11199C30.1726 5.96299 29.8286 5.96299 29.5406 6.11199L2.5585 20.103ZM14.0005 27.8301V42.7221C14.0005 43.8511 14.5825 44.9011 15.5405 45.4991C25.1816 51.4522 34.8146 51.4302 44.4487 45.4841C45.4047 44.8901 45.9867 43.8441 45.9867 42.7171C45.9867 42.7161 45.9867 42.7151 45.9867 42.7141C45.9977 38.8071 45.9997 30.9581 46.0007 27.8301L30.4606 35.8881C30.1726 36.0371 29.8286 36.0371 29.5406 35.8881L14.0005 27.8301ZM4.0005 34.9981V44.0001H2.0005V35.0001C2.0005 34.4481 2.4485 34.0001 3.0005 34.0001H3.0025C3.5535 34.0001 4.0005 34.4471 4.0005 34.9981ZM7.10151 20H29.0006C29.5526 20 30.0006 20.448 30.0006 21C30.0006 21.5521 29.5526 22.0001 29.0006 22.0001H7.10151L30.0006 33.8741L54.8287 21L30.0006 8.126L7.10151 20Z" fill="url(#paint0_linear_136_440)"/>
<defs>
<linearGradient id="paint0_linear_136_440" x1="35.0006" y1="44.0001" x2="14.0005" y2="19" gradientUnits="userSpaceOnUse">
<stop stop-color="#0053FA"/>
<stop offset="1" stop-color="#0099FA"/>
</linearGradient>
</defs>
</svg>
