<svg width="60" height="60" viewBox="0 0 60 60" fill="none" xmlns="http://www.w3.org/2000/svg">
<path fill-rule="evenodd" clip-rule="evenodd" d="M22.8776 10L40.8126 5.51601C42.1086 5.19201 43.4816 5.40901 44.6136 6.11802C45.7467 6.82702 46.5417 7.96602 46.8167 9.27303L46.9697 10C46.9807 10 46.9907 10 47.0007 10C47.0007 10 47.8927 10 48.9877 10C50.3177 10 51.5927 10.528 52.5327 11.468C53.4727 12.408 54.0007 13.683 54.0007 15.013V28.0001H54.9827C55.7837 28.0001 56.5507 28.3181 57.1167 28.8841C57.6827 29.4501 58.0007 30.2171 58.0007 31.0181V38.9821C58.0007 39.7831 57.6827 40.5501 57.1167 41.1161C56.5507 41.6822 55.7837 42.0001 54.9827 42.0001H54.0007V49.3082C54.0007 50.5532 53.5067 51.7462 52.6267 52.6262C51.7467 53.5062 50.5537 54.0002 49.3087 54.0002C40.0546 54.0002 15.9465 54.0002 6.69251 54.0002C5.4475 54.0002 4.2545 53.5062 3.37449 52.6262C2.49449 51.7462 2.00049 50.5532 2.00049 49.3082V15C2.00749 12.237 4.2485 10 7.01351 10H22.8776ZM52.0007 28.0001V22.6921C52.0007 21.9781 51.7167 21.2931 51.2127 20.7881C50.7077 20.2841 50.0227 20.0001 49.3087 20.0001H7.00051C5.8385 20.0001 4.8145 19.6781 4.0005 19.1071V49.3082C4.0005 50.0222 4.2845 50.7072 4.7885 51.2122C5.2935 51.7162 5.9785 52.0002 6.69251 52.0002H49.3087C50.0227 52.0002 50.7077 51.7162 51.2127 51.2122C51.7167 50.7072 52.0007 50.0222 52.0007 49.3082V42.0001H44.6836C42.0976 42.0001 40.0006 39.9031 40.0006 37.3171C40.0006 35.8461 40.0006 34.1541 40.0006 32.6831C40.0006 30.0971 42.0976 28.0001 44.6836 28.0001H52.0007ZM56.0007 31.0181V38.9821C56.0007 39.2521 55.8937 39.5111 55.7027 39.7021C55.5117 39.8931 55.2527 40.0001 54.9827 40.0001H44.6836C43.2016 40.0001 42.0006 38.7991 42.0006 37.3171C42.0006 35.8461 42.0006 34.1541 42.0006 32.6831C42.0006 31.2011 43.2016 30.0001 44.6836 30.0001H54.9827C55.2527 30.0001 55.5117 30.1071 55.7027 30.2981C55.8937 30.4891 56.0007 30.7481 56.0007 31.0181ZM47.0007 33.0001C45.8967 33.0001 45.0006 33.8961 45.0006 35.0001C45.0006 36.1041 45.8967 37.0001 47.0007 37.0001C48.1047 37.0001 49.0007 36.1041 49.0007 35.0001C49.0007 33.8961 48.1047 33.0001 47.0007 33.0001ZM14.8775 12H7.01351C5.3525 12 4.0065 13.343 4.0005 15.002L4.0015 15.0821C4.0395 16.8021 5.2645 18.0001 7.00051 18.0001H49.3087C50.2787 18.0001 51.2167 18.3001 52.0007 18.8491V15.012C52.0007 14.214 51.6837 13.447 51.1187 12.882C50.5537 12.317 49.7867 12 48.9877 12H47.3907L47.9797 14.794C48.0417 15.0891 47.9667 15.3961 47.7777 15.6301C47.5877 15.8641 47.3017 16.0001 47.0007 16.0001H7.00051C6.4955 16.0001 6.0695 15.6231 6.0075 15.1221C5.9465 14.621 6.2685 14.152 6.75751 14.03L14.8775 12ZM23.2256 11.975C23.2376 11.972 23.2496 11.969 23.2616 11.965L41.2976 7.45602C42.0666 7.26402 42.8806 7.39302 43.5526 7.81402C44.2246 8.23403 44.6966 8.91003 44.8596 9.68503L45.7687 14H15.1235L23.2256 11.975Z" fill="url(#paint0_linear_136_455)"/>
<defs>
<linearGradient id="paint0_linear_136_455" x1="18.0005" y1="27.0001" x2="48.0007" y2="47.0002" gradientUnits="userSpaceOnUse">
<stop stop-color="#0099FA"/>
<stop offset="1" stop-color="#0053FA"/>
</linearGradient>
</defs>
</svg>
