<svg width="60" height="60" viewBox="0 0 60 60" fill="none" xmlns="http://www.w3.org/2000/svg">
<g clip-path="url(#clip0_456_244)">
<path fill-rule="evenodd" clip-rule="evenodd" d="M47.0046 56.0017C47.0046 56.0017 48.0046 55.9417 48.0046 54.9997C48.0046 50.4916 46.2146 46.1676 43.0246 42.9806C39.8346 39.7926 35.5145 38.0016 31.0045 38.0016C28.3745 38.0016 25.6345 38.0016 23.0045 38.0016C18.4945 38.0016 14.1744 39.7926 10.9844 42.9806C7.7944 46.1676 6.00442 50.4916 6.00442 54.9997C6.00442 55.9417 7.00442 56.0017 7.00442 56.0017H47.0046ZM45.9745 54.0017H8.03445C8.27445 50.3876 9.82445 46.9706 12.3945 44.3946C15.2045 41.5816 19.0245 40.0016 23.0045 40.0016C25.6345 40.0016 28.3745 40.0016 31.0045 40.0016C34.9845 40.0016 38.8045 41.5816 41.6145 44.3946C44.1845 46.9706 45.7345 50.3876 45.9745 54.0017ZM16.4145 22.0015H2.86439C1.28438 22.0015 0.00439453 20.7195 0.00439453 19.1375V2.86547C0.00439453 1.28347 1.28438 0.00146484 2.86439 0.00146484H29.1445C30.7245 0.00146484 32.0045 1.28347 32.0045 2.86547V15.2025C35.5645 17.0245 38.0045 20.7305 38.0045 25.0016C38.0045 31.0726 33.0745 36.0016 27.0045 36.0016C20.9345 36.0016 16.0045 31.0726 16.0045 25.0016C16.0045 23.9616 16.1445 22.9555 16.4145 22.0015ZM32.0045 17.5185V19.1375C32.0045 20.7195 30.7245 22.0015 29.1445 22.0015H18.5145C18.1845 22.9396 18.0045 23.9496 18.0045 25.0016C18.0045 29.9686 22.0345 34.0016 27.0045 34.0016C31.9745 34.0016 36.0045 29.9686 36.0045 25.0016C36.0045 21.8835 34.4145 19.1345 32.0045 17.5185ZM48.0046 22.0015H43.0046C42.4546 22.0015 42.0046 22.4495 42.0046 23.0016C42.0046 23.5536 42.4546 24.0016 43.0046 24.0016H48.0046V29.0016C48.0046 29.5536 48.4546 30.0016 49.0046 30.0016C49.5546 30.0016 50.0046 29.5536 50.0046 29.0016V24.0016H55.0046C55.5546 24.0016 56.0046 23.5536 56.0046 23.0016C56.0046 22.4495 55.5546 22.0015 55.0046 22.0015H50.0046V17.0015C50.0046 16.4495 49.5546 16.0015 49.0046 16.0015C48.4546 16.0015 48.0046 16.4495 48.0046 17.0015V22.0015ZM30.0045 2.86547V19.1375C30.0045 19.6145 29.6145 20.0015 29.1445 20.0015H2.86439C2.39439 20.0015 2.0044 19.6145 2.0044 19.1375V2.86547C2.0044 2.38847 2.39439 2.00147 2.86439 2.00147H29.1445C29.6145 2.00147 30.0045 2.38847 30.0045 2.86547ZM24.7745 11.7735C22.9945 11.7735 21.5445 13.2195 21.5445 15.0015C21.5445 16.7835 22.9945 18.2295 24.7745 18.2295C26.5545 18.2295 28.0045 16.7835 28.0045 15.0015C28.0045 13.2195 26.5545 11.7735 24.7745 11.7735ZM15.5445 17.5985L25.5445 5.60248C25.8945 5.17848 25.8445 4.54748 25.4145 4.19348C24.9945 3.84048 24.3645 3.89749 24.0045 4.32149L14.0044 16.3175C13.6544 16.7415 13.7144 17.3725 14.1345 17.7265C14.5645 18.0795 15.1945 18.0225 15.5445 17.5985ZM24.7745 13.7735C25.4545 13.7735 26.0045 14.3235 26.0045 15.0015C26.0045 15.6795 25.4545 16.2295 24.7745 16.2295C24.0945 16.2295 23.5445 15.6795 23.5445 15.0015C23.5445 14.3235 24.0945 13.7735 24.7745 13.7735ZM6.00442 10.0015H5.00441C4.45441 10.0015 4.00441 10.4495 4.00441 11.0015C4.00441 11.5535 4.45441 12.0015 5.00441 12.0015H6.00442V13.0015C6.00442 13.5535 6.45442 14.0015 7.00442 14.0015C7.55442 14.0015 8.00442 13.5535 8.00442 13.0015V12.0015H9.00443C9.55443 12.0015 10.0044 11.5535 10.0044 11.0015C10.0044 10.4495 9.55443 10.0015 9.00443 10.0015H8.00442V9.0015C8.00442 8.4495 7.55442 8.00149 7.00442 8.00149C6.45442 8.00149 6.00442 8.4495 6.00442 9.0015V10.0015ZM14.7745 3.77348C12.9945 3.77348 11.5444 5.21948 11.5444 7.00149C11.5444 8.7835 12.9945 10.2295 14.7745 10.2295C16.5545 10.2295 18.0045 8.7835 18.0045 7.00149C18.0045 5.21948 16.5545 3.77348 14.7745 3.77348ZM14.7745 5.77349C15.4545 5.77349 16.0045 6.32349 16.0045 7.00149C16.0045 7.67949 15.4545 8.22949 14.7745 8.22949C14.0945 8.22949 13.5445 7.67949 13.5445 7.00149C13.5445 6.32349 14.0945 5.77349 14.7745 5.77349Z" fill="url(#paint0_linear_456_244)"/>
</g>
<defs>
<linearGradient id="paint0_linear_456_244" x1="11.0044" y1="13.0015" x2="37.0045" y2="48.0016" gradientUnits="userSpaceOnUse">
<stop stop-color="#37A8FF"/>
<stop offset="1" stop-color="#0061FA"/>
</linearGradient>
<clipPath id="clip0_456_244">
<rect width="60" height="60" fill="white"/>
</clipPath>
</defs>
</svg>
