<svg width="60" height="60" viewBox="0 0 60 60" fill="none" xmlns="http://www.w3.org/2000/svg">
<g clip-path="url(#clip0_452_225)">
<path fill-rule="evenodd" clip-rule="evenodd" d="M27.1554 22.0015C23.9634 25.4006 22.0064 29.9746 22.0064 35.0016C22.0064 45.4876 30.5205 54.0017 41.0065 54.0017C51.4925 54.0017 60.0066 45.4876 60.0066 35.0016C60.0066 24.5156 51.4925 16.0015 41.0065 16.0015C37.7515 16.0015 34.6865 16.8215 32.0065 18.2675V2.86547C32.0065 1.28347 30.7244 0.00146484 29.1424 0.00146484H2.87037C1.28837 0.00146484 0.00634766 1.28347 0.00634766 2.86547V19.1375C0.00634766 20.7195 1.28837 22.0015 2.87037 22.0015H27.1554ZM30.4264 21.6985C26.5154 24.8135 24.0064 29.6166 24.0064 35.0016C24.0064 44.3846 31.6235 52.0017 41.0065 52.0017C50.3895 52.0017 58.0066 44.3846 58.0066 35.0016C58.0066 25.6186 50.3895 18.0015 41.0065 18.0015C37.3715 18.0015 34.0015 19.1445 31.2364 21.0915C31.0054 21.3385 30.7314 21.5445 30.4264 21.6985ZM12.0064 32.0016H9.00638C8.45438 32.0016 8.00638 32.4496 8.00638 33.0016V38.0016H5.00637C4.45436 38.0016 4.00636 38.4496 4.00636 39.0016V42.0016H1.00635C0.454349 42.0016 0.00634766 42.4496 0.00634766 43.0016V51.0017C0.00634766 51.5537 0.454349 52.0017 1.00635 52.0017H17.0064C17.5584 52.0017 18.0064 51.5537 18.0064 51.0017V27.0016C18.0064 26.4496 17.5584 26.0016 17.0064 26.0016H13.0064C12.4544 26.0016 12.0064 26.4496 12.0064 27.0016V32.0016ZM6.00637 43.0006V40.0016H8.00638V50.0016H6.00637V43.0016V43.0006ZM14.0064 33.0006V28.0016H16.0064V50.0016H14.0064V33.0016V33.0006ZM10.0064 34.0016V38.9986V39.0016V50.0016H12.0064V34.0016H10.0064ZM4.00636 44.0016V50.0016H2.00636V44.0016H4.00636ZM40.0065 26.0016H39.0065C37.6805 26.0016 36.4085 26.5286 35.4705 27.4656C34.5335 28.4036 34.0065 29.6756 34.0065 31.0016C34.0065 31.0016 34.0065 31.5536 34.0065 31.0016C34.0065 32.3276 34.5335 33.5996 35.4705 34.5376C36.4085 35.4746 37.6805 36.0016 39.0065 36.0016C40.2945 36.0016 41.7205 36.0016 43.0085 36.0016C44.6645 36.0016 46.0065 37.3436 46.0065 38.9996V39.0016C46.0065 39.7976 45.6905 40.5606 45.1275 41.1226C44.5655 41.6856 43.8025 42.0016 43.0065 42.0016H39.0065C38.2105 42.0016 37.4475 41.6856 36.8855 41.1226C36.3225 40.5606 36.0065 39.7976 36.0065 39.0016C36.0065 37.6446 34.0065 37.6446 34.0065 39.0016C34.0065 40.3276 34.5335 41.5996 35.4705 42.5376C36.4085 43.4746 37.6805 44.0016 39.0065 44.0016H40.0065V47.0016C40.0065 47.5536 40.4545 48.0016 41.0065 48.0016C41.5585 48.0016 42.0065 47.5536 42.0065 47.0016V44.0016H43.0065C44.3325 44.0016 45.6045 43.4746 46.5425 42.5376C47.4795 41.5996 48.0065 40.3276 48.0065 39.0016V38.9996C48.0065 36.2396 45.7685 34.0016 43.0085 34.0016H39.0065C38.2105 34.0016 37.4475 33.6856 36.8855 33.1226C36.3225 32.5606 36.0065 31.7976 36.0065 31.0016C36.0065 31.5536 36.0065 31.0016 36.0065 31.0016C36.0065 30.2056 36.3225 29.4426 36.8855 28.8806C37.4475 28.3176 38.2105 28.0016 39.0065 28.0016H43.0065C43.8025 28.0016 44.5655 28.3176 45.1275 28.8806C45.6905 29.4426 46.0065 30.2056 46.0065 31.0016L46.0085 31.0626C46.0235 31.3876 46.1625 31.5996 46.3315 31.7386C46.5095 31.9016 46.7465 32.0016 47.0065 32.0016C47.0065 32.0016 48.0065 31.9446 48.0065 31.0016C48.0065 29.6756 47.4795 28.4036 46.5425 27.4656C45.6045 26.5286 44.3325 26.0016 43.0065 26.0016H42.0065V23.0016C42.0065 22.4495 41.5585 22.0015 41.0065 22.0015C40.4545 22.0015 40.0065 22.4495 40.0065 23.0016V26.0016ZM29.8625 19.6156C29.9535 19.4785 30.0065 19.3145 30.0065 19.1375V2.86547C30.0065 2.38847 29.6194 2.00147 29.1424 2.00147H2.87037C2.39337 2.00147 2.00636 2.38847 2.00636 2.86547V19.1375C2.00636 19.6145 2.39337 20.0015 2.87037 20.0015H29.1424C29.2314 20.0015 29.3175 19.9875 29.3985 19.9625C29.5515 19.8445 29.7065 19.7286 29.8625 19.6156ZM24.7784 11.7735C22.9964 11.7735 21.5504 13.2195 21.5504 15.0015C21.5504 16.7835 22.9964 18.2295 24.7784 18.2295C26.5594 18.2295 28.0065 16.7835 28.0065 15.0015C28.0065 13.2195 26.5594 11.7735 24.7784 11.7735ZM15.5464 17.5985L25.5464 5.60248C25.8994 5.17848 25.8424 4.54748 25.4184 4.19348C24.9944 3.84048 24.3635 3.89749 24.0105 4.32149L14.0104 16.3175C13.6564 16.7415 13.7144 17.3725 14.1374 17.7265C14.5614 18.0795 15.1924 18.0225 15.5464 17.5985ZM24.7784 13.7735C25.4564 13.7735 26.0064 14.3235 26.0064 15.0015C26.0064 15.6795 25.4564 16.2295 24.7784 16.2295C24.1004 16.2295 23.5504 15.6795 23.5504 15.0015C23.5504 14.3235 24.1004 13.7735 24.7784 13.7735ZM6.00637 10.0015H5.00637C4.45436 10.0015 4.00636 10.4495 4.00636 11.0015C4.00636 11.5535 4.45436 12.0015 5.00637 12.0015H6.00637V13.0015C6.00637 13.5535 6.45437 14.0015 7.00637 14.0015C7.55838 14.0015 8.00638 13.5535 8.00638 13.0015V12.0015H9.00638C9.55838 12.0015 10.0064 11.5535 10.0064 11.0015C10.0064 10.4495 9.55838 10.0015 9.00638 10.0015H8.00638V9.0015C8.00638 8.4495 7.55838 8.00149 7.00637 8.00149C6.45437 8.00149 6.00637 8.4495 6.00637 9.0015V10.0015ZM14.7784 3.77348C12.9964 3.77348 11.5504 5.21948 11.5504 7.00149C11.5504 8.7835 12.9964 10.2295 14.7784 10.2295C16.5594 10.2295 18.0064 8.7835 18.0064 7.00149C18.0064 5.21948 16.5594 3.77348 14.7784 3.77348ZM14.7784 5.77349C15.4564 5.77349 16.0064 6.32349 16.0064 7.00149C16.0064 7.67949 15.4564 8.22949 14.7784 8.22949C14.1004 8.22949 13.5504 7.67949 13.5504 7.00149C13.5504 6.32349 14.1004 5.77349 14.7784 5.77349Z" fill="url(#paint0_linear_452_225)"/>
</g>
<defs>
<linearGradient id="paint0_linear_452_225" x1="31.0065" y1="51.0017" x2="6.00637" y2="9.0015" gradientUnits="userSpaceOnUse">
<stop stop-color="#0061FA"/>
<stop offset="1" stop-color="#37A8FF"/>
</linearGradient>
<clipPath id="clip0_452_225">
<rect width="60" height="60" fill="white"/>
</clipPath>
</defs>
</svg>
