<svg width="60" height="60" viewBox="0 0 60 60" fill="none" xmlns="http://www.w3.org/2000/svg">
<g clip-path="url(#clip0_446_218)">
<path fill-rule="evenodd" clip-rule="evenodd" d="M24.9218 22.0015H2.86573C1.28373 22.0015 0.00170898 20.7195 0.00170898 19.1375V2.86547C0.00170898 1.28347 1.28373 0.00146484 2.86573 0.00146484H29.1378C30.7198 0.00146484 32.0018 1.28347 32.0018 2.86547V17.2455C34.1058 16.4415 36.3888 16.0015 38.7738 16.0015C40.5038 16.0015 42.1798 16.2335 43.7738 16.6675V12.9985C43.7738 12.2035 44.0889 11.4415 44.6509 10.8795C45.2129 10.3175 45.9759 10.0015 46.7699 10.0015C48.9909 10.0015 52.5569 10.0015 54.7769 10.0015C55.5719 10.0015 56.3339 10.3175 56.8959 10.8795C57.4579 11.4415 57.7739 12.2035 57.7739 12.9985V57.0047C57.7739 57.7997 57.4579 58.5617 56.8959 59.1237C56.3339 59.6857 55.5719 60.0017 54.7769 60.0017C52.5569 60.0017 48.9909 60.0017 46.7709 60.0017C45.9759 60.0017 45.2129 59.6857 44.6509 59.1237C44.0889 58.5617 43.7738 57.7997 43.7738 57.0047V53.3357C42.1798 53.7697 40.5038 54.0017 38.7738 54.0017C28.2868 54.0017 19.7738 45.4876 19.7738 35.0016C19.7738 29.9746 21.7298 25.4016 24.9218 22.0015ZM45.7739 52.6687V57.0047C45.7739 57.2697 45.8789 57.5227 46.0659 57.7097C46.2529 57.8967 46.5059 58.0017 46.7699 58.0017H54.7769C55.0409 58.0017 55.2949 57.8967 55.4819 57.7097C55.6689 57.5227 55.7739 57.2697 55.7739 57.0047V12.9985C55.7739 12.7335 55.6689 12.4805 55.4819 12.2935C55.2949 12.1065 55.0409 12.0015 54.7769 12.0015H46.7699C46.5059 12.0015 46.2529 12.1065 46.0659 12.2935C45.8789 12.4805 45.7739 12.7335 45.7739 12.9985V17.3345C47.1999 17.9005 48.5409 18.6345 49.7739 19.5115V17.0015C49.7739 16.4495 50.2219 16.0015 50.7739 16.0015C51.3259 16.0015 51.7739 16.4495 51.7739 17.0015V53.0017C51.7739 53.5537 51.3259 54.0017 50.7739 54.0017C50.2219 54.0017 49.7739 53.5537 49.7739 53.0017V50.4916C48.5409 51.3686 47.1999 52.1026 45.7739 52.6687ZM49.7739 22.0435C46.8079 19.5235 42.9668 18.0015 38.7738 18.0015C36.3618 18.0015 34.0678 18.5045 31.9888 19.4115C31.8508 20.8645 30.6268 22.0015 29.1378 22.0015H27.8238C24.1248 25.1216 21.7738 29.7886 21.7738 35.0016C21.7738 44.3846 29.3908 52.0017 38.7738 52.0017C42.9668 52.0017 46.8079 50.4797 49.7739 47.9596V22.0435ZM37.7738 26.0016H36.7738C35.4478 26.0016 34.1759 26.5286 33.2379 27.4656C32.3009 28.4036 31.7738 29.6756 31.7738 31.0016C31.7738 31.0016 31.7738 31.5536 31.7738 31.0016C31.7738 32.3276 32.3009 33.5996 33.2379 34.5376C34.1759 35.4746 35.4478 36.0016 36.7738 36.0016C38.0618 36.0016 39.4878 36.0016 40.7759 36.0016C42.4309 36.0016 43.7738 37.3436 43.7738 38.9996V39.0016C43.7738 39.7976 43.4579 40.5606 42.8949 41.1226C42.3319 41.6856 41.5688 42.0016 40.7738 42.0016H36.7738C35.9778 42.0016 35.2149 41.6856 34.6519 41.1226C34.0899 40.5606 33.7738 39.7976 33.7738 39.0016C33.7738 37.6446 31.7738 37.6446 31.7738 39.0016C31.7738 40.3276 32.3009 41.5996 33.2379 42.5376C34.1759 43.4746 35.4478 44.0016 36.7738 44.0016H37.7738V47.0016C37.7738 47.5536 38.2218 48.0016 38.7738 48.0016C39.3258 48.0016 39.7738 47.5536 39.7738 47.0016V44.0016H40.7738C42.0998 44.0016 43.3719 43.4746 44.3089 42.5376C45.2469 41.5996 45.7739 40.3276 45.7739 39.0016V38.9996C45.7739 36.2396 43.5359 34.0016 40.7759 34.0016H36.7738C35.9778 34.0016 35.2149 33.6856 34.6519 33.1226C34.0899 32.5606 33.7738 31.7976 33.7738 31.0016C33.7738 31.5536 33.7738 31.0016 33.7738 31.0016C33.7738 30.2056 34.0899 29.4426 34.6519 28.8806C35.2149 28.3176 35.9778 28.0016 36.7738 28.0016H40.7738C41.5688 28.0016 42.3319 28.3176 42.8949 28.8806C43.4579 29.4426 43.7738 30.2056 43.7738 31.0016L43.7759 31.0626C43.7909 31.3876 43.9289 31.5996 44.0989 31.7386C44.2769 31.9016 44.5139 32.0016 44.7739 32.0016C44.7739 32.0016 45.7739 31.9446 45.7739 31.0016C45.7739 29.6756 45.2469 28.4036 44.3089 27.4656C43.3719 26.5286 42.0998 26.0016 40.7738 26.0016H39.7738V23.0016C39.7738 22.4495 39.3258 22.0015 38.7738 22.0015C38.2218 22.0015 37.7738 22.4495 37.7738 23.0016V26.0016ZM8.00174 32.0016H1.00171C0.449711 32.0016 0.00170898 32.4496 0.00170898 33.0016V39.0016C0.00170898 39.5536 0.449711 40.0016 1.00171 40.0016H8.00174V43.0016C8.00174 43.3936 8.23072 43.7496 8.58872 43.9126C8.94572 44.0746 9.36474 44.0126 9.66074 43.7546L17.6608 36.7546C17.8778 36.5646 18.0018 36.2896 18.0018 36.0016C18.0018 35.7136 17.8778 35.4386 17.6608 35.2486L9.66074 28.2486C9.36474 27.9906 8.94572 27.9286 8.58872 28.0906C8.23072 28.2536 8.00174 28.6096 8.00174 29.0016V32.0016ZM9.00174 34.0016C9.55375 34.0016 10.0017 33.5536 10.0017 33.0016V31.2056L15.4828 36.0016L10.0017 40.7976V39.0016C10.0017 38.4496 9.55375 38.0016 9.00174 38.0016H2.00172V34.0016H9.00174ZM30.0018 2.86547V19.1375C30.0018 19.6145 29.6148 20.0015 29.1378 20.0015H2.86573C2.38873 20.0015 2.00172 19.6145 2.00172 19.1375V2.86547C2.00172 2.38847 2.38873 2.00147 2.86573 2.00147H29.1378C29.6148 2.00147 30.0018 2.38847 30.0018 2.86547ZM24.7738 11.7735C22.9918 11.7735 21.5458 13.2195 21.5458 15.0015C21.5458 16.7835 22.9918 18.2295 24.7738 18.2295C26.5548 18.2295 28.0018 16.7835 28.0018 15.0015C28.0018 13.2195 26.5548 11.7735 24.7738 11.7735ZM15.5417 17.5985L25.5418 5.60248C25.8948 5.17848 25.8378 4.54748 25.4138 4.19348C24.9898 3.84048 24.3588 3.89749 24.0058 4.32149L14.0058 16.3175C13.6518 16.7415 13.7097 17.3725 14.1327 17.7265C14.5567 18.0795 15.1877 18.0225 15.5417 17.5985ZM24.7738 13.7735C25.4518 13.7735 26.0018 14.3235 26.0018 15.0015C26.0018 15.6795 25.4518 16.2295 24.7738 16.2295C24.0958 16.2295 23.5458 15.6795 23.5458 15.0015C23.5458 14.3235 24.0958 13.7735 24.7738 13.7735ZM6.00173 10.0015H5.00173C4.44973 10.0015 4.00172 10.4495 4.00172 11.0015C4.00172 11.5535 4.44973 12.0015 5.00173 12.0015H6.00173V13.0015C6.00173 13.5535 6.44973 14.0015 7.00174 14.0015C7.55374 14.0015 8.00174 13.5535 8.00174 13.0015V12.0015H9.00174C9.55375 12.0015 10.0017 11.5535 10.0017 11.0015C10.0017 10.4495 9.55375 10.0015 9.00174 10.0015H8.00174V9.0015C8.00174 8.4495 7.55374 8.00149 7.00174 8.00149C6.44973 8.00149 6.00173 8.4495 6.00173 9.0015V10.0015ZM14.7737 3.77348C12.9917 3.77348 11.5458 5.21948 11.5458 7.00149C11.5458 8.7835 12.9917 10.2295 14.7737 10.2295C16.5547 10.2295 18.0018 8.7835 18.0018 7.00149C18.0018 5.21948 16.5547 3.77348 14.7737 3.77348ZM14.7737 5.77349C15.4517 5.77349 16.0018 6.32349 16.0018 7.00149C16.0018 7.67949 15.4517 8.22949 14.7737 8.22949C14.0957 8.22949 13.5458 7.67949 13.5458 7.00149C13.5458 6.32349 14.0957 5.77349 14.7737 5.77349Z" fill="url(#paint0_linear_446_218)"/>
</g>
<defs>
<linearGradient id="paint0_linear_446_218" x1="16.0018" y1="12.0015" x2="33.0018" y2="51.0016" gradientUnits="userSpaceOnUse">
<stop stop-color="#37A8FF"/>
<stop offset="1" stop-color="#0061FA"/>
</linearGradient>
<clipPath id="clip0_446_218">
<rect width="60" height="60" fill="white"/>
</clipPath>
</defs>
</svg>
