<svg width="26" height="26" viewBox="0 0 26 26" fill="none" xmlns="http://www.w3.org/2000/svg">
<path fill-rule="evenodd" clip-rule="evenodd" d="M6 19.9996V23.9996C6 24.4036 6.244 24.7686 6.617 24.9236C6.991 25.0786 7.421 24.9925 7.707 24.7065L12.414 19.9996H21.076C23.243 19.9996 25 18.2426 25 16.0766C25 13.1916 25 8.80754 25 5.92254C25 3.75655 23.243 1.99957 21.076 1.99957C16.865 1.99957 9.135 1.99957 4.924 1.99957C2.757 1.99957 1 3.75655 1 5.92254C1 8.80754 1 13.1916 1 16.0766C1 18.2426 2.757 19.9996 4.924 19.9996H6ZM8 18.9996C8 18.4476 7.552 17.9996 7 17.9996H4.924C3.861 17.9996 3 17.1386 3 16.0766C3 16.0756 3 5.92358 3 5.92358C3 4.86058 3.861 3.99957 4.924 3.99957C9.135 3.99957 16.865 3.99957 21.076 3.99957C22.139 3.99957 23 4.86054 23 5.92254C23 5.92354 23 16.0756 23 16.0756C23 17.1385 22.139 17.9996 21.076 17.9996H12C11.735 17.9996 11.48 18.1046 11.293 18.2926L8 21.5856V18.9996ZM7 14.4996H14C14.552 14.4996 15 14.0516 15 13.4996C15 12.9476 14.552 12.4996 14 12.4996H7C6.448 12.4996 6 12.9476 6 13.4996C6 14.0516 6.448 14.4996 7 14.4996ZM7 9.99957H18C18.552 9.99957 19 9.55157 19 8.99957C19 8.44757 18.552 7.99957 18 7.99957H7C6.448 7.99957 6 8.44757 6 8.99957C6 9.55157 6.448 9.99957 7 9.99957Z" fill="#1E385B"/>
</svg>
