<svg width="26" height="26" viewBox="0 0 26 26" fill="none" xmlns="http://www.w3.org/2000/svg">
<g clip-path="url(#clip0_59_1033)">
<path fill-rule="evenodd" clip-rule="evenodd" d="M11.6757 25.9995H19.5017C20.5222 25.9995 21.5016 25.5943 22.2241 24.8717C22.9359 24.16 23.34 23.198 23.3508 22.1927H23.8329C25.03 22.1927 25.9996 21.2231 25.9996 20.026V12.7622C25.9996 11.5662 25.03 10.5956 23.8329 10.5956H23.3519V10.3497C23.3519 7.60448 22.261 4.97193 20.3196 3.03059C18.3794 1.09034 15.7458 -0.000549316 13.0017 -0.000549316C13.0006 -0.000549316 12.9984 -0.000549316 12.9974 -0.000549316C10.2533 -0.000549316 7.6197 1.09034 5.67945 3.03059C3.73811 4.97193 2.64718 7.60448 2.64718 10.3497V10.5956H2.16618C0.969097 10.5956 -0.000488281 11.5662 -0.000488281 12.7622V20.026C-0.000488281 21.2231 0.969097 22.1927 2.16618 22.1927H5.29595C6.49195 22.1927 7.46262 21.2231 7.46262 20.026V12.7622C7.46262 11.5662 6.49195 10.5956 5.29595 10.5956H4.81385V10.3497C4.81385 8.17973 5.6762 6.09756 7.21129 4.56356C8.74637 3.02847 10.8274 2.16612 12.9974 2.16612C12.9984 2.16612 13.0006 2.16612 13.0017 2.16612C15.1716 2.16612 17.2527 3.02847 18.7878 4.56356C20.3229 6.09756 21.1852 8.17973 21.1852 10.3497V10.5956H20.7031C19.5071 10.5956 18.5365 11.5662 18.5365 12.7622V20.026C18.5365 21.2231 19.5071 22.1927 20.7031 22.1927H21.1841C21.1733 22.6238 20.9967 23.0344 20.6912 23.3399C20.376 23.6551 19.9481 23.8328 19.5017 23.8328H15.4067V23.3713C15.4067 22.7733 14.9224 22.288 14.3234 22.288H11.6757C11.0766 22.288 10.5924 22.7733 10.5924 23.3713V24.9162C10.5924 25.5142 11.0766 25.9995 11.6757 25.9995ZM5.29595 12.7622H2.16618V20.026H5.29595V12.7622ZM23.8329 12.7622H20.7031V20.026H23.8329V12.7622Z" fill="#1E385B"/>
</g>
<defs>
<clipPath id="clip0_59_1033">
<rect width="26" height="26" fill="white"/>
</clipPath>
</defs>
</svg>
