<svg width="24" height="25" viewBox="0 0 24 25" fill="none" xmlns="http://www.w3.org/2000/svg">
<g clip-path="url(#clip0_161_27542)">
<path d="M5.12701 10.8075V10.6355C5.12701 6.83951 8.20401 3.76251 12 3.76251C15.796 3.76251 18.873 6.83951 18.873 10.6355V10.8075C18.873 14.2685 14.491 19.4785 12.725 21.4385C12.336 21.8705 11.664 21.8705 11.275 21.4385C9.50901 19.4785 5.12701 14.2685 5.12701 10.8075V10.8075Z" stroke="#40A69F" stroke-width="1.4468" stroke-linecap="round" stroke-linejoin="round"/>
<path d="M10 10.7175C10 11.8225 10.895 12.7175 12 12.7175C13.105 12.7175 14 11.8225 14 10.7175V10.6805C14 9.57551 13.105 8.68051 12 8.68051C10.895 8.68051 10 9.57551 10 10.6805" stroke="#40A69F" stroke-width="1.4468" stroke-linecap="round" stroke-linejoin="round"/>
</g>
<defs>
<clipPath id="clip0_161_27542">
<rect width="24" height="24" fill="white" transform="translate(0 0.762512)"/>
</clipPath>
</defs>
</svg>
