<svg width="36" height="36" viewBox="0 0 36 36" fill="none" xmlns="http://www.w3.org/2000/svg">
<g clip-path="url(#clip0_1163_22674)">
<path fill-rule="evenodd" clip-rule="evenodd" d="M11.25 4.5H24.756C28.4805 4.5 31.5 7.5195 31.5 11.244V24.7575C31.5 28.4805 28.4805 31.5 24.756 31.5H11.244C7.5195 31.5 4.5 28.4805 4.5 24.756V11.25C4.5 7.5225 7.5225 4.5 11.25 4.5V4.5Z" stroke="black" stroke-width="1.5" stroke-linecap="round" stroke-linejoin="round"/>
<path d="M12.1801 16.6499V24.7499" stroke="black" stroke-width="1.5" stroke-linecap="round" stroke-linejoin="round"/>
<path d="M17.5785 24.7499V20.0249C17.5785 18.1604 19.089 16.6499 20.9535 16.6499C22.818 16.6499 24.3285 18.1604 24.3285 20.0249V24.7499" stroke="black" stroke-width="1.5" stroke-linecap="round" stroke-linejoin="round"/>
<path d="M12.177 11.7568C11.991 11.7568 11.8395 11.9083 11.841 12.0943C11.841 12.2803 11.9925 12.4318 12.1785 12.4318C12.3645 12.4318 12.516 12.2803 12.516 12.0943C12.516 11.9068 12.3645 11.7568 12.177 11.7568" stroke="black" stroke-width="1.5" stroke-linecap="round" stroke-linejoin="round"/>
</g>
<defs>
<clipPath id="clip0_1163_22674">
<rect width="36" height="36" fill="white"/>
</clipPath>
</defs>
</svg>
