<svg width="24" height="24" viewBox="0 0 24 24" fill="none" xmlns="http://www.w3.org/2000/svg">
<g clip-path="url(#clip0_173_21306)">
<path d="M18.414 6.414L15.586 3.586C15.211 3.211 14.702 3 14.172 3H7C5.895 3 5 3.895 5 5V19C5 20.105 5.895 21 7 21H17C18.105 21 19 20.105 19 19V7.828C19 7.298 18.789 6.789 18.414 6.414V6.414Z" stroke="#40A69F" stroke-width="1.5" stroke-linecap="round" stroke-linejoin="round"/>
<path d="M11.0896 17L9.05957 14.97" stroke="#40A69F" stroke-width="1.5" stroke-linecap="round" stroke-linejoin="round"/>
<path d="M12.9998 15.09L11.0898 17" stroke="#40A69F" stroke-width="1.5" stroke-linecap="round" stroke-linejoin="round"/>
<path d="M11.0898 17V11" stroke="#40A69F" stroke-width="1.5" stroke-linecap="round" stroke-linejoin="round"/>
<path d="M19 8H15C14.448 8 14 7.552 14 7V3" stroke="#40A69F" stroke-width="1.5" stroke-linecap="round" stroke-linejoin="round"/>
</g>
<defs>
<clipPath id="clip0_173_21306">
<rect width="24" height="24" fill="white"/>
</clipPath>
</defs>
</svg>
