<svg width="24" height="24" viewBox="0 0 24 24" fill="none" xmlns="http://www.w3.org/2000/svg">
<g clip-path="url(#clip0_407_12918)">
<path d="M15 14.889H4.184C2.978 14.889 2 13.911 2 12.705V5.184C2 3.978 2.978 3 4.184 3H14.817C16.022 3 17 3.978 17 5.184V10" stroke="#999CA0" stroke-width="1.5" stroke-linecap="round" stroke-linejoin="round"/>
<path d="M11.2002 14.8901L11.5902 18.0001" stroke="#999CA0" stroke-width="1.5" stroke-linecap="round" stroke-linejoin="round"/>
<path d="M8.0902 14.8901L7.7002 18.0001" stroke="#999CA0" stroke-width="1.5" stroke-linecap="round" stroke-linejoin="round"/>
<path d="M6.63965 18H12.6396" stroke="#999CA0" stroke-width="1.5" stroke-linecap="round" stroke-linejoin="round"/>
<path d="M17 10H20C21.105 10 22 10.895 22 12V19C22 20.105 21.105 21 20 21H17C15.895 21 15 20.105 15 19V12C15 10.895 15.895 10 17 10Z" stroke="#999CA0" stroke-width="1.5" stroke-linecap="round" stroke-linejoin="round"/>
<path d="M17.75 18.75H19.25" stroke="#999CA0" stroke-width="1.5" stroke-linecap="round" stroke-linejoin="round"/>
</g>
<defs>
<clipPath id="clip0_407_12918">
<rect width="24" height="24" fill="white"/>
</clipPath>
</defs>
</svg>
