<svg width="24" height="24" viewBox="0 0 24 24" fill="none" xmlns="http://www.w3.org/2000/svg">
<g clip-path="url(#clip0_531_2857)">
<path d="M13.5307 7.51999L9.4707 10.56" stroke="#323232" stroke-width="1.5" stroke-linecap="round" stroke-linejoin="round"/>
<path d="M16.4044 4.64216C17.1979 5.4357 17.1979 6.7223 16.4044 7.51584C15.6108 8.30938 14.3242 8.30938 13.5307 7.51584C12.7372 6.72229 12.7372 5.4357 13.5307 4.64216C14.3243 3.84861 15.6108 3.84861 16.4044 4.64216" stroke="#323232" stroke-width="1.5" stroke-linecap="round" stroke-linejoin="round"/>
<path d="M13.5307 16.48L9.4707 13.44" stroke="#323232" stroke-width="1.5" stroke-linecap="round" stroke-linejoin="round"/>
<path d="M16.4044 16.4842C17.1979 17.2777 17.1979 18.5643 16.4044 19.3579C15.6108 20.1514 14.3242 20.1514 13.5307 19.3579C12.7372 18.5643 12.7372 17.2777 13.5307 16.4842C14.3243 15.6907 15.6108 15.6907 16.4044 16.4842" stroke="#323232" stroke-width="1.5" stroke-linecap="round" stroke-linejoin="round"/>
<path d="M9.46542 10.5646C10.2582 11.3574 10.2582 12.6427 9.46542 13.4355C8.67266 14.2282 7.38733 14.2282 6.59457 13.4355C5.80181 12.6427 5.80181 11.3574 6.59457 10.5646C7.38734 9.77184 8.67266 9.77184 9.46542 10.5646" stroke="#323232" stroke-width="1.5" stroke-linecap="round" stroke-linejoin="round"/>
</g>
<defs>
<clipPath id="clip0_531_2857">
<rect width="24" height="24" fill="white"/>
</clipPath>
</defs>
</svg>
