<svg width="36" height="36" viewBox="0 0 36 36" fill="none" xmlns="http://www.w3.org/2000/svg">
<g clip-path="url(#clip0_1163_22686)">
<path d="M11.25 4.5L24.756 4.5C28.4805 4.5 31.5 7.5195 31.5 11.244L31.5 24.7575C31.5 28.4805 28.4805 31.5 24.756 31.5L11.244 31.5C7.5195 31.5 4.5 28.4805 4.5 24.756L4.5 11.25C4.5 7.5225 7.5225 4.5 11.25 4.5V4.5Z" stroke="black" stroke-width="1.5" stroke-linecap="round" stroke-linejoin="round"/>
<path d="M9.375 23.0252C9.4035 23.0207 12.075 22.1252 12.075 22.1252C9.069 19.0862 8.841 14.5847 11.175 11.3252C12.282 13.3847 14.349 15.2837 16.575 15.8252C16.6605 13.2257 18.4245 11.3252 21.075 11.3252C22.8795 11.3252 23.9415 12.0137 24.675 13.1252L27.375 13.1252L25.575 15.8252M25.575 15.8252C25.575 22.1252 21.975 26.6252 15.675 26.6252C12.075 26.6252 10.632 24.7457 9.375 23.0252L25.575 15.8252Z" stroke="black" stroke-width="1.5" stroke-linecap="round" stroke-linejoin="round"/>
</g>
<defs>
<clipPath id="clip0_1163_22686">
<rect width="36" height="36" fill="white"/>
</clipPath>
</defs>
</svg>
