<svg width="138" height="44" viewBox="0 0 138 44" fill="none" xmlns="http://www.w3.org/2000/svg">
<path fill-rule="evenodd" clip-rule="evenodd" d="M21.8935 0.954161C21.7495 0.974358 21.225 1.04476 20.7107 1.10513C20.2067 1.16551 19.2502 1.34663 18.6023 1.50762C13.9328 2.62457 9.90102 4.99935 6.90802 8.39045C4.01787 11.6609 2.3414 15.384 1.78602 19.7109C1.1586 24.7322 2.67051 30.1862 5.84864 34.3219C9.49988 39.0714 14.7351 42.0499 20.9164 42.9154C22.4078 43.1166 25.3288 43.1468 26.7276 42.9656C30.7902 42.4424 34.4929 41.0135 37.5682 38.7897C38.4424 38.1557 39.8926 36.9382 39.8926 36.8375C39.8926 36.7671 34.5957 31.766 33.8038 31.0918L33.4336 30.7698L32.5182 31.4842C30.0806 33.3961 27.4681 34.352 24.362 34.4728C21.873 34.5634 19.9085 34.1508 17.7281 33.0942C11.8243 30.2365 9.01645 23.8567 11.0426 17.9298C12.1431 14.7299 14.375 12.184 17.4709 10.6143C19.5279 9.57787 21.4512 9.12503 23.8477 9.13513C27.4886 9.13513 30.4199 10.252 33.2175 12.6872L34.2049 13.5526L37.2802 10.6344C38.967 9.02441 40.3657 7.67599 40.3863 7.63574C40.4274 7.52509 38.6687 6.00565 37.5887 5.23082C34.6472 3.10756 31.397 1.76924 27.6533 1.13528C26.7276 0.984312 22.5312 0.84344 21.8935 0.954161ZM26.0899 3.62078C28.3835 3.86227 30.7388 4.51636 32.7444 5.46221C33.8243 5.97543 36.3031 7.50497 36.4574 7.75649C36.4985 7.82696 36.0459 8.33007 35.3363 9.01431L34.1432 10.1615L33.5158 9.70864C30.4405 7.48484 26.2442 6.36789 22.4078 6.73013C21.6981 6.79051 21.081 6.85088 21.0296 6.86091C20.9164 6.8811 20.1245 4.12389 20.1862 3.9528C20.2273 3.85217 20.793 3.75155 22.2535 3.58053C22.9529 3.48993 25.1539 3.52015 26.0899 3.62078ZM18.0057 5.98552C18.2217 6.79051 18.376 7.49494 18.3451 7.53519C18.3143 7.58547 18.1189 7.67606 17.9029 7.74646C17.6972 7.80684 17.0389 8.1087 16.4424 8.40055C12.0198 10.5942 9.06791 14.3073 8.12163 18.8758C7.99829 19.4292 7.90569 20.0329 7.90569 20.204V20.516H6.20865C5.02586 20.516 4.51161 20.4858 4.51161 20.4053C4.51161 19.9524 4.88187 18.0205 5.13895 17.1248C6.49663 12.4055 9.81874 8.38042 14.4368 5.8748C15.0333 5.55281 17.3989 4.52646 17.5737 4.51636C17.6046 4.51636 17.8 5.18047 18.0058 5.98552H18.0057ZM7.93651 23.7159C8.12163 25.3964 8.9136 27.6604 9.84956 29.2302C11.5981 32.1383 14.5911 34.654 17.6046 35.7608C17.872 35.8615 18.088 35.952 18.088 35.9722C18.088 35.9923 17.9338 36.5659 17.7383 37.2501C17.5429 37.9243 17.3372 38.6689 17.2755 38.9004L17.1623 39.313L16.5144 39.0614C14.8893 38.4275 13.2026 37.4716 11.6598 36.3344C10.7752 35.6803 8.97531 33.8892 8.24505 32.9433C6.15719 30.2365 4.78927 26.8253 4.54243 23.726L4.48072 22.921L6.16744 22.9511L7.85423 22.9814L7.93651 23.7159V23.7159ZM34.5855 35.3181C35.2952 35.9923 35.8814 36.5759 35.8814 36.6162C35.8814 36.7671 33.9066 37.9445 32.6621 38.5281C31.1194 39.2627 29.6692 39.7355 27.9103 40.1079C26.6658 40.3595 26.3984 40.3796 24.1049 40.3896C22.1198 40.3896 21.441 40.3494 20.6285 40.2085C19.7953 40.0475 19.6308 39.9871 19.6719 39.8564C19.7027 39.7557 19.9188 39.0111 20.145 38.1759C20.3816 37.3507 20.5771 36.6564 20.5873 36.6464C20.6079 36.6363 20.8239 36.6765 21.0707 36.747C21.3587 36.8174 22.4284 36.8577 23.8477 36.8577C25.8534 36.8577 26.2956 36.8275 27.1698 36.6363C29.1652 36.2036 31.3765 35.3282 32.6416 34.4729C32.9296 34.2816 33.1867 34.1206 33.2278 34.1106C33.2587 34.1005 33.8758 34.644 34.5855 35.3181Z" fill="#007680"/>
<path fill-rule="evenodd" clip-rule="evenodd" d="M60.3499 9.56776C60.0003 10.2521 56.8735 16.2897 53.4074 23.0014C49.931 29.7031 47.0923 35.2175 47.0923 35.2476C47.0923 35.2778 48.4191 35.308 50.0544 35.308H53.0063L54.1891 32.8628L55.3821 30.4277L61.399 30.3974L67.4261 30.3773L68.6397 32.8427L69.8637 35.3081H72.7847C75.0783 35.3081 75.6954 35.2778 75.6543 35.1772C75.6337 35.1168 72.4967 29.0591 68.7015 21.7234L61.8104 8.39051L61.399 8.36029L60.9876 8.33014L60.3499 9.56784V9.56776ZM63.5898 22.0757C64.752 24.4504 65.7085 26.4328 65.7085 26.4731C65.7085 26.5233 63.7646 26.5535 61.3784 26.5535C58.9511 26.5535 57.069 26.5133 57.0895 26.463C57.3673 25.7385 61.3579 17.638 61.4093 17.6884C61.4505 17.7185 62.4275 19.6908 63.5898 22.0757Z" fill="#002554"/>
<path fill-rule="evenodd" clip-rule="evenodd" d="M122.781 8.89365C119.377 9.43701 116.826 10.6345 114.759 12.6571C113.103 14.2772 112.064 16.0783 111.467 18.3726C110.49 22.1562 111.056 26.3624 112.959 29.4214C114.614 32.0981 117.248 34.01 120.559 34.9458C123.213 35.7005 126.525 35.8112 129.374 35.2477C131.153 34.8955 133.724 33.869 135.308 32.8728L135.853 32.5408L134.66 30.5282C134.012 29.4214 133.436 28.4754 133.395 28.4352C133.344 28.3849 133.056 28.5057 132.758 28.6968C130.803 29.9144 128.602 30.6188 126.288 30.7396C122.133 30.971 118.811 29.5119 117.217 26.7548C116.126 24.8731 115.818 21.8542 116.466 19.3587C116.548 19.0266 116.826 18.3424 117.073 17.8493C118.122 15.7664 120.097 14.3777 122.791 13.8041C124.015 13.5526 126.905 13.5526 128.14 13.8142C129.384 14.0758 131.235 14.6997 132.809 15.3739C133.55 15.6959 134.177 15.9475 134.197 15.9274C134.218 15.9072 134.342 14.8406 134.475 13.5526L134.722 11.208L134.496 11.0168C133.765 10.4331 131.225 9.49731 129.219 9.08479C128.17 8.86342 127.656 8.82317 125.825 8.78292C124.303 8.76273 123.408 8.79295 122.781 8.89357V8.89365Z" fill="#002554"/>
<path fill-rule="evenodd" clip-rule="evenodd" d="M80.0049 22.1259V35.3081H82.8333H85.6618V22.1259V8.94391H82.8333H80.0049V22.1259Z" fill="#002554"/>
<path fill-rule="evenodd" clip-rule="evenodd" d="M92.8613 22.1763V35.3081H95.6384H98.4154V29.1698V23.0316H101.861H105.306V20.9688V18.906H101.861H98.4154V16.0382V13.1703H103.404H108.392V11.1074V9.04462H100.627H92.8613V22.1764V22.1763Z" fill="#002554"/>
<path fill-rule="evenodd" clip-rule="evenodd" d="M22.7884 13.7841C19.3222 14.1765 16.4115 16.662 15.5681 19.9625C15.3316 20.8681 15.3316 22.5385 15.5578 23.4543C16.6378 27.8718 21.3278 30.6088 25.9047 29.5019C31.1193 28.234 33.7626 22.8807 31.4691 18.262C30.2451 15.8066 27.756 14.1363 24.7734 13.774C23.8271 13.6633 23.8066 13.6633 22.7884 13.7841ZM25.3391 16.2393C27.4167 16.7727 29.1343 18.423 29.6589 20.3851C29.8543 21.0996 29.8543 22.4077 29.6692 23.092C29.1446 25.0442 27.4373 26.6944 25.4214 27.2076C24.6603 27.3988 23.0352 27.3988 22.2638 27.2076C20.2788 26.7045 18.6023 25.1045 18.0366 23.1926C17.7692 22.287 17.8617 20.5864 18.232 19.7109C18.9314 18.0405 20.4639 16.7324 22.3049 16.2494C23.0558 16.0481 24.578 16.0481 25.3391 16.2393Z" fill="#002554"/>
</svg>
