<svg width="24" height="24" viewBox="0 0 24 24" fill="none" xmlns="http://www.w3.org/2000/svg">
<g clip-path="url(#clip0_552_11949)">
<path d="M13.53 7.51999L9.46997 10.56" stroke="#323232" stroke-width="1.5" stroke-linecap="round" stroke-linejoin="round"/>
<path d="M16.4049 4.64216C17.1984 5.4357 17.1984 6.7223 16.4049 7.51584C15.6113 8.30938 14.3247 8.30938 13.5312 7.51584C12.7376 6.72229 12.7376 5.4357 13.5312 4.64216C14.3247 3.84861 15.6113 3.84861 16.4049 4.64216" stroke="#323232" stroke-width="1.5" stroke-linecap="round" stroke-linejoin="round"/>
<path d="M13.53 16.48L9.46997 13.44" stroke="#323232" stroke-width="1.5" stroke-linecap="round" stroke-linejoin="round"/>
<path d="M16.4049 16.4842C17.1984 17.2777 17.1984 18.5643 16.4049 19.3579C15.6113 20.1514 14.3247 20.1514 13.5312 19.3579C12.7376 18.5643 12.7376 17.2777 13.5312 16.4842C14.3247 15.6907 15.6113 15.6907 16.4049 16.4842" stroke="#323232" stroke-width="1.5" stroke-linecap="round" stroke-linejoin="round"/>
<path d="M9.46542 10.5646C10.2582 11.3574 10.2582 12.6427 9.46542 13.4355C8.67266 14.2282 7.38733 14.2282 6.59457 13.4355C5.80181 12.6427 5.80181 11.3574 6.59457 10.5646C7.38734 9.77184 8.67266 9.77184 9.46542 10.5646" stroke="#323232" stroke-width="1.5" stroke-linecap="round" stroke-linejoin="round"/>
</g>
<defs>
<clipPath id="clip0_552_11949">
<rect width="24" height="24" fill="white"/>
</clipPath>
</defs>
</svg>
