<svg width="24" height="24" viewBox="0 0 24 24" fill="none" xmlns="http://www.w3.org/2000/svg">
<g clip-path="url(#clip0_168_28745)">
<path d="M7.5 3L16.504 3C18.987 3 21 5.013 21 7.496L21 16.505C21 18.987 18.987 21 16.504 21L7.496 21C5.013 21 3 18.987 3 16.504L3 7.5C3 5.015 5.015 3 7.5 3V3Z" stroke="#323232" stroke-width="1.5" stroke-linecap="round" stroke-linejoin="round"/>
<path d="M6.25 15.35C6.269 15.347 8.05 14.75 8.05 14.75C6.046 12.724 5.894 9.72305 7.45 7.55005C8.188 8.92305 9.566 10.189 11.05 10.55C11.107 8.81705 12.283 7.55005 14.05 7.55005C15.253 7.55005 15.961 8.00905 16.45 8.75005H18.25L17.05 10.55M17.05 10.55C17.05 14.75 14.65 17.75 10.45 17.75C8.05 17.75 7.088 16.497 6.25 15.35L17.05 10.55Z" stroke="#323232" stroke-width="1.5" stroke-linecap="round" stroke-linejoin="round"/>
</g>
<defs>
<clipPath id="clip0_168_28745">
<rect width="24" height="24" fill="white"/>
</clipPath>
</defs>
</svg>
