<svg width="24" height="24" viewBox="0 0 24 24" fill="none" xmlns="http://www.w3.org/2000/svg">
<g clip-path="url(#clip0_168_28743)">
<path d="M21.583 6.37312C21.354 5.36912 20.676 4.57711 19.814 4.30511C18.255 3.81811 12 3.81812 12 3.81812C12 3.81812 5.748 3.81811 4.186 4.30511C3.327 4.57311 2.649 5.36512 2.417 6.37312C2 8.19512 2 12.0001 2 12.0001C2 12.0001 2 15.8051 2.417 17.6271C2.646 18.6311 3.324 19.4231 4.186 19.6951C5.748 20.1821 12 20.1821 12 20.1821C12 20.1821 18.255 20.1821 19.814 19.6951C20.673 19.4271 21.351 18.6351 21.583 17.6271C22 15.8051 22 12.0001 22 12.0001C22 12.0001 22 8.19512 21.583 6.37312Z" stroke="#323232" stroke-width="1.5" stroke-linecap="round" stroke-linejoin="round"/>
<path d="M10.002 15L15.198 12L10.002 9L10.002 15Z" stroke="#323232" stroke-width="1.5" stroke-linecap="round" stroke-linejoin="round"/>
</g>
<defs>
<clipPath id="clip0_168_28743">
<rect width="24" height="24" fill="white"/>
</clipPath>
</defs>
</svg>
