<svg id="OBJECTS" xmlns="http://www.w3.org/2000/svg" viewBox="0 0 121.01 94.63"><defs><style>.cls-1{fill:#ca7155;}.cls-2{fill:#fff;}.cls-3{fill:#332a44;}</style></defs><rect class="cls-1" width="43.55" height="43.55" rx="5.29"/><polygon class="cls-2" points="30.53 19.14 24.41 19.14 24.41 13.01 19.14 13.01 19.14 19.14 13.01 19.14 13.01 24.41 19.14 24.41 19.14 30.53 24.41 30.53 24.41 24.41 30.53 24.41 30.53 19.14"/><rect class="cls-1" y="51.08" width="43.55" height="43.55" rx="5.29"/><rect class="cls-2" x="13.01" y="70.22" width="17.52" height="5.27"/><path class="cls-2" d="M339,130.06a2.63,2.63,0,1,1-2.62-2.63A2.62,2.62,0,0,1,339,130.06Z" transform="translate(-314.56 -66.25)"/><circle class="cls-2" cx="21.77" cy="81.89" r="2.63"/><rect class="cls-1" x="51.19" width="43.55" height="43.55" rx="5.29"/><polygon class="cls-2" points="81.02 26.11 76.69 21.77 81.02 17.44 77.29 13.72 72.96 18.05 68.63 13.72 64.9 17.44 69.24 21.77 64.9 26.11 68.63 29.83 72.96 25.5 77.29 29.83 81.02 26.11"/><rect class="cls-3" x="51.19" y="51.08" width="43.55" height="43.55" rx="5.29"/><path class="cls-1" d="M371,128.47c2,.72,4,1.56,6,2.48s3.91,1.93,5.82,3.06a36.63,36.63,0,0,1,10.79,9.2h0l-9,0c.24-.4.43-.68.64-1s.41-.6.61-.88c.41-.58.82-1.15,1.25-1.7.82-1.13,1.7-2.19,2.57-3.26s1.78-2.09,2.69-3.11,1.84-2,2.8-3a99.37,99.37,0,0,1,12.19-10.69l1.61-1.22c.54-.39,1.11-.76,1.67-1.14,1.12-.74,2.21-1.51,3.34-2.22,2.32-1.35,4.56-2.8,7-3.94a92,92,0,0,1,14.65-6,91.87,91.87,0,0,0-13.32,8.17c-2.12,1.47-4.05,3.21-6,4.83-1,.86-1.88,1.76-2.82,2.63-.47.44-.94.86-1.39,1.32l-1.33,1.39A92.76,92.76,0,0,0,401,135.1c-.74,1-1.41,2.1-2.12,3.14s-1.33,2.13-2,3.2-1.24,2.16-1.8,3.26c-.3.54-.57,1.09-.84,1.63l-.38.8c-.12.26-.25.55-.32.73l-9-.05h0a21.26,21.26,0,0,0-1.94-5,41.32,41.32,0,0,0-3.22-5c-1.21-1.65-2.55-3.25-3.95-4.81S372.56,129.91,371,128.47Z" transform="translate(-314.56 -66.25)"/></svg>