<svg width="29" height="31" viewBox="0 0 29 31" fill="none" xmlns="http://www.w3.org/2000/svg">
<path fill-rule="evenodd" clip-rule="evenodd" d="M28.9349 15.3595C28.9349 23.4515 22.4576 30.0113 14.4674 30.0113C6.4773 30.0113 0 23.4515 0 15.3595C0 7.26758 6.4773 0.707764 14.4674 0.707764C22.4576 0.707764 28.9349 7.26758 28.9349 15.3595ZM4.37594 16.0577C4.37248 15.879 4.47798 15.7165 4.64141 15.6487C5.64878 15.2313 7.31159 14.5424 9.22554 13.7495C13.2493 12.0825 18.383 9.9556 20.87 8.92504C21.1718 8.80024 21.5169 8.84928 21.7728 9.05421C22.0288 9.25913 22.1555 9.58755 22.1049 9.91421C21.8706 11.4271 21.5002 13.8169 21.1267 16.2264C20.7938 18.3742 20.4585 20.5377 20.215 22.1096C20.1346 22.6276 19.8003 23.0685 19.3269 23.2805C18.8535 23.4924 18.3065 23.4464 17.8741 23.1587C16.6846 22.3659 15.167 21.3548 13.9383 20.536C13.4819 20.2319 13.0654 19.9544 12.7203 19.7245C12.4738 19.5598 12.3104 19.2945 12.2728 18.998C12.2356 18.7011 12.3281 18.4029 12.5261 18.1809C13.665 16.9063 15.7564 14.5649 16.9207 13.2609C16.9821 13.1922 16.9847 13.0884 16.9264 13.017C16.8684 12.9457 16.7673 12.9281 16.689 12.9759C16.023 13.3828 15.11 13.9407 14.1368 14.5354C12.6136 15.4661 10.9428 16.487 9.83981 17.1611C9.05722 17.6393 8.10298 17.7325 7.24472 17.4146C6.59098 17.1728 5.80468 16.8817 5.13156 16.6324L4.65655 16.4566C4.49052 16.3953 4.37896 16.2368 4.37594 16.0577Z" fill="white"/>
</svg>
