<svg width="18" height="14" id="Слой_1" data-name="Слой 1" xmlns="http://www.w3.org/2000/svg" viewBox="0 0 17.23 14"><defs><style>.cls-1{fill:#3c3c3c;}</style></defs><title>все иконки</title><path class="cls-1" d="M17.23,1.66a7,7,0,0,1-2,.55A3.5,3.5,0,0,0,16.75.26a7.24,7.24,0,0,1-2.24.86A3.54,3.54,0,0,0,8.39,3.53a3.59,3.59,0,0,0,.09.81A10,10,0,0,1,1.2.65,3.54,3.54,0,0,0,2.29,5.37a3.49,3.49,0,0,1-1.6-.45V5A3.53,3.53,0,0,0,3.53,8.43a3.6,3.6,0,0,1-.93.13,3,3,0,0,1-.67-.07A3.54,3.54,0,0,0,5.23,11,7.07,7.07,0,0,1,.84,12.46,7.89,7.89,0,0,1,0,12.41,10,10,0,0,0,5.42,14,10,10,0,0,0,15.47,3.94c0-.15,0-.3,0-.45a7.33,7.33,0,0,0,1.77-1.83Z"/></svg>
