<svg width="59" height="29" id="Слой_1" data-name="Слой 1" xmlns="http://www.w3.org/2000/svg" viewBox="0 0 59 29"><defs><style>.cls-1{fill:#c3cace;}.cls-2{fill:#3c3c3c;}</style></defs><title>все иконки</title><rect class="cls-1" width="59" height="29"/><path class="cls-2" d="M40.08,4.77a1.55,1.55,0,0,0-1.58-.11h0c-.64.25-18.13,7.75-18.84,8.06-.13,0-1.26.47-1.14,1.41a1.69,1.69,0,0,0,1.12,1.24l4.45,1.52c.29,1,1.38,4.6,1.62,5.38.15.48.39,1.12.82,1.25a1,1,0,0,0,1-.18l2.72-2.52,4.39,3.42.11.06a2.1,2.1,0,0,0,.85.2,1.62,1.62,0,0,0,.61-.12,1.85,1.85,0,0,0,.95-1l3.27-17A1.53,1.53,0,0,0,40.08,4.77ZM28,17.5l-1.5,4-1.5-5L36.51,8Z"/></svg>
