<svg id="freelance" xmlns="http://www.w3.org/2000/svg" xmlns:xlink="http://www.w3.org/1999/xlink" viewBox="0 0 1910.34 1901.04"><defs><style>.cls-1{fill:none;}.cls-2{fill:#eaf3fa;}.cls-3{fill:#bcd6ed;}.cls-4{fill:#d2e5fa;}.cls-5{fill:#fff;}.cls-6{fill:#9bb9dd;}.cls-7{fill:#192640;}.cls-8{fill:#e87c46;}.cls-9{fill:#101d30;}.cls-10{fill:#ffc793;}.cls-11{fill:#f2b583;}.cls-12{fill:#dd9b6b;}.cls-13{fill:#ff9356;}.cls-14{fill:#5e4c9f;}.cls-15{fill:#836ec3;}.cls-16{fill:#f48047;}.cls-17{fill:#f2b3b9;}.cls-18{fill:#ffc7ca;}.cls-19{clip-path:url(#clip-path);}</style><clipPath id="clip-path" transform="translate(-964.83 -129.48)"><rect class="cls-1" x="1695.51" y="1041.21" width="368.66" height="217.16" transform="translate(3759.67 2299.58) rotate(180)"/></clipPath></defs><path class="cls-2" d="M1060.3,2030.52H2654.94S2937.79,955.71,2774.92,966s-230.75,317.71-230.75,317.71S2715.54,264.55,2524.45,215.1s-291.61,915.6-291.61,915.6S2355.74,157,2123,130.16,1794.5,883.58,1794.5,883.58,1777.68,31,1569.58,166.92s-165.92,1033.14-165.92,1033.14-162.17-879.94-355.87-722.32S1060.3,2030.52,1060.3,2030.52Z" transform="translate(-964.83 -129.48)"/><rect class="cls-3" x="298.49" y="330.81" width="540.81" height="445.06"/><polygon class="cls-4" points="839.29 399.46 297.56 745.26 297.56 760.17 839.29 507.99 839.29 399.46"/><polygon class="cls-4" points="298.49 553.34 539.86 331.8 822.87 331.8 298.49 700.74 298.49 553.34"/><polygon class="cls-4" points="298.49 330.81 299.9 477.04 434.7 330.81 298.49 330.81"/><path class="cls-5" d="M282.23,767.56H858.55a32.86,32.86,0,0,1,32.86,32.86V818a2.33,2.33,0,0,1-2.33,2.33H251.7a2.33,2.33,0,0,1-2.33-2.33V800.42A32.86,32.86,0,0,1,282.23,767.56Z"/><path class="cls-5" d="M1064.67,767.56H1641a32.86,32.86,0,0,1,32.86,32.86V818a2.33,2.33,0,0,1-2.33,2.33H1034.14a2.33,2.33,0,0,1-2.33-2.33V800.42a32.86,32.86,0,0,1,32.86-32.86Z"/><path class="cls-5" d="M272.53,287.65H865.27a0,0,0,0,1,0,0v24.5a31.94,31.94,0,0,1-31.94,31.94H304.47a31.94,31.94,0,0,1-31.94-31.94v-24.5A0,0,0,0,1,272.53,287.65Z"/><rect class="cls-5" x="1322.15" y="680.99" width="423.15" height="8.3" rx="3.65" transform="translate(1254.04 -978.06) rotate(90)"/><path class="cls-6" d="M1240.56,442.14h586.33a3.21,3.21,0,0,1,3.2,3.21h0a3.2,3.2,0,0,1-3.2,3.2H1240.56a3.2,3.2,0,0,1-3.2-3.2h0A3.21,3.21,0,0,1,1240.56,442.14Z" transform="translate(-964.83 -129.48)"/><rect class="cls-3" x="1082.9" y="330.81" width="540.81" height="445.06"/><polygon class="cls-4" points="1623.69 399.46 1081.97 745.26 1081.97 760.17 1623.69 507.99 1623.69 399.46"/><polygon class="cls-4" points="1082.9 553.34 1324.27 331.8 1607.28 331.8 1082.9 700.74 1082.9 553.34"/><polygon class="cls-4" points="1082.9 330.81 1084.31 477.04 1219.11 330.81 1082.9 330.81"/><path class="cls-5" d="M1056.93,287.65h592.74a0,0,0,0,1,0,0v24.5a31.94,31.94,0,0,1-31.94,31.94H1088.87a31.94,31.94,0,0,1-31.94-31.94v-24.5A0,0,0,0,1,1056.93,287.65Z"/><rect class="cls-5" x="2106.56" y="680.99" width="423.15" height="8.3" rx="3.65" transform="translate(2038.44 -1762.47) rotate(90)"/><path class="cls-6" d="M2025,442.14H2611.3a3.21,3.21,0,0,1,3.2,3.21h0a3.2,3.2,0,0,1-3.2,3.2H2025a3.21,3.21,0,0,1-3.21-3.2h0A3.21,3.21,0,0,1,2025,442.14Z" transform="translate(-964.83 -129.48)"/><path class="cls-6" d="M230.5,1361.25H439.29a54.4,54.4,0,0,1,54.4,54.4v34.61a3.86,3.86,0,0,1-3.86,3.86H180a3.86,3.86,0,0,1-3.86-3.86v-34.61A54.4,54.4,0,0,1,230.5,1361.25Z"/><path class="cls-6" d="M191.38,1434.29h26a0,0,0,0,1,0,0v422.18a13,13,0,0,1-13,13h0a13,13,0,0,1-13-13V1434.29A0,0,0,0,1,191.38,1434.29Z"/><path class="cls-6" d="M1425.9,1999h0a13,13,0,0,1-13-13V1563.77h26V1986A13,13,0,0,1,1425.9,1999Z" transform="translate(-964.83 -129.48)"/><rect class="cls-6" x="205.82" y="1516.2" width="253.35" height="20.55"/><rect class="cls-6" x="205.82" y="1631.44" width="253.35" height="20.55"/><polygon class="cls-7" points="536.68 1815.36 520.17 1815.36 508.94 1353.93 547.13 1353.93 536.68 1815.36"/><polygon class="cls-7" points="1703.69 1815.36 1687.19 1815.36 1675.96 1353.93 1714.15 1353.93 1703.69 1815.36"/><rect class="cls-5" x="304.02" y="1339.83" width="1606.33" height="16.65"/><polygon class="cls-7" points="1910.35 1339.79 304.19 1339.79 544.62 1226.09 1674.2 1226.09 1910.35 1339.79"/><path class="cls-8" d="M1432.45,1730.88c.46.8-14.26,30.31-15.87,32.35-7.51,9.54-39.09,30.69-41.32,36.81-3.16,8.67,64.89,90.26,80.32,99,15.78,8.92,23.33-31,14.51-49.42-18.29-38,3.29-90.11,3.66-89C1473.76,1760.6,1447.93,1758.1,1432.45,1730.88Z" transform="translate(-964.83 -129.48)"/><path class="cls-9" d="M1536.78,1536.19c-.1,75.43-62.58,224.72-62.58,224.72s-27-4.7-42.41-21.61c0,0,2.09-72,10.72-136.63,5.09-38.13,16.12-76.88,20.44-87.94,0,0,15.79-48.67,41.69-46.69C1520.93,1469.29,1536.86,1472.51,1536.78,1536.19Z" transform="translate(-964.83 -129.48)"/><path class="cls-9" d="M1473.09,1566.27s70-73.79,50.89-90.31c-23.1-20-138.87-58.26-195.93-40.15l-61,67.69Z" transform="translate(-964.83 -129.48)"/><path class="cls-7" d="M1176.87,1424s-77.09,109.36,181.18,186.53c0,0,77-1.76,81-29.33S1292,1422.89,1292,1422.89Z" transform="translate(-964.83 -129.48)"/><path class="cls-10" d="M1100.25,1242.34s0,129.57,6.65,137.76l63.9-26,4-50,3.62-45S1140.75,1181.13,1100.25,1242.34Z" transform="translate(-964.83 -129.48)"/><path class="cls-11" d="M1348.35,1279.44l38.09-1.4-17.55,154.38-34.34,4.6S1325.76,1318.27,1348.35,1279.44Z" transform="translate(-964.83 -129.48)"/><path class="cls-10" d="M1274.71,1075.54l-8.14,63.35s37.61,39,62.62,16.39l-2.3-36.31S1286.33,1116.41,1274.71,1075.54Z" transform="translate(-964.83 -129.48)"/><polygon class="cls-12" points="421.61 1148.56 384.2 1146.78 380.72 1160.21 421.61 1148.56"/><path class="cls-11" d="M1327.38,1130.53s-49.38,4.14-54.73-19.14l1.49-33.44Z" transform="translate(-964.83 -129.48)"/><path class="cls-10" d="M1307.66,1005.68s-37.93,9.25-36.39,40.36c1.22,24.71.23,54.9,15.79,65.42s37.79,24.34,52.38,17.34,11.27-43.75,13.68-49.49,5.72-41.47-4.09-58.54S1307.66,1005.68,1307.66,1005.68Z" transform="translate(-964.83 -129.48)"/><path class="cls-11" d="M1100.49,1243.23l-.13,18.76s32.11,22.73,74.76,19.64l3.32-22.46S1165.2,1273.53,1100.49,1243.23Z" transform="translate(-964.83 -129.48)"/><path class="cls-11" d="M1276.74,1034.28l1.76-7.26,65.64,11.3C1325.37,1056.82,1276.74,1034.28,1276.74,1034.28Z" transform="translate(-964.83 -129.48)"/><path class="cls-7" d="M1269,1065.91l9.47-38.89s31.2,13.18,46.89,13.77c13.11.5,44.17-4.56,32.94-30.64s-56.61-42.23-75.47-29.2-28.25,26.3-30,32.93C1248.9,1028.23,1269,1065.91,1269,1065.91Z" transform="translate(-964.83 -129.48)"/><path class="cls-10" d="M1274.84,1089.75l-.42-44s-22.7.89-21.91,15.76C1253.18,1074.17,1274.84,1089.75,1274.84,1089.75Z" transform="translate(-964.83 -129.48)"/><path class="cls-5" d="M1268.62,1125.89s11.15,40.58,60.57,29.39l55.23,50.06s-27,31-26.84,36.49-49.11,161.23-8.45,209.52c0,0-112.52,46-179.3-14.73,0,0-4.62-91.67,8.61-177.45s19.41-119.71,19.41-119.71Z" transform="translate(-964.83 -129.48)"/><path class="cls-5" d="M1099.63,1242.2s36.1,26.87,78.81,17l27.43-120.4S1115.18,1139.54,1099.63,1242.2Z" transform="translate(-964.83 -129.48)"/><path class="cls-12" d="M1394.32,1446.06a60.72,60.72,0,0,1,7,34l-19.67-9.22c-.61,2.38-1.21,4.76-1.82,7.13-8.95-7.19-72.32-48.48-29.38-55C1370.44,1419.84,1385.86,1430.54,1394.32,1446.06Z" transform="translate(-964.83 -129.48)"/><path class="cls-10" d="M1106.9,1380.1s23.87-45.44,63.9-26l130,94s9.14,21.37-2.58,25.67S1144.47,1424,1106.9,1380.1Z" transform="translate(-964.83 -129.48)"/><path class="cls-10" d="M1292.88,1473.69,1276.81,1441c-1.09-2.22,35.25-10.47,39.1-9.1,16.76,6,35.25,31.69,45.68,45.33,2.25,2.94,4.55,6.53,3.54,10.09-1.55,5.46-9,6.05-14.61,5.1-12.58-2.13-23.17-7.15-34.82-11.9C1312.93,1479.43,1293.45,1474.81,1292.88,1473.69Z" transform="translate(-964.83 -129.48)"/><path class="cls-5" d="M1384.42,1205.34s13.06,39.62,2,72.7l-38.09,1.4S1340.28,1206.74,1384.42,1205.34Z" transform="translate(-964.83 -129.48)"/><path class="cls-9" d="M1366.48,1611.37s-129.88-81.8-155-131.33l3.13-19.41s-20.13-6.23-45-24.57c0,0-17.52,29.58,13.82,76.48C1183.44,1512.54,1229.77,1585.39,1366.48,1611.37Z" transform="translate(-964.83 -129.48)"/><path class="cls-9" d="M1259.77,1001.84s-6,29.08,8.15,44.86a17.62,17.62,0,0,0-7.44,2.53S1242.68,1015.77,1259.77,1001.84Z" transform="translate(-964.83 -129.48)"/><path class="cls-9" d="M1278.5,1027s43.43,23.56,70.4,9.48c0,0,15.83-4.92,10.75-22.75C1359.65,1013.75,1345,1042.63,1278.5,1027Z" transform="translate(-964.83 -129.48)"/><path class="cls-12" d="M1131.41,1360.12a1.06,1.06,0,0,1-.91-.53,1,1,0,0,1,.4-1.41c15.53-8.75,38.48-5.37,39.45-5.22a1,1,0,0,1-.31,2.06c-.23,0-23.22-3.43-38.12,5A1,1,0,0,1,1131.41,1360.12Z" transform="translate(-964.83 -129.48)"/><path class="cls-12" d="M1334.8,1359.11a1,1,0,0,1-.29-2c.68-.19,16.69-4.75,29.28-.57a1,1,0,1,1-.65,2c-12-4-27.89.55-28.05.6A1,1,0,0,1,1334.8,1359.11Z" transform="translate(-964.83 -129.48)"/><path class="cls-7" d="M1438.93,1574.23l33.69,267.85s-23.52,10.2-44.33.74c0,0-33.92-65.41-54.1-128.42-15.68-48.93-18.7-96.46-19.16-110.44C1355,1604,1392.94,1549.38,1438.93,1574.23Z" transform="translate(-964.83 -129.48)"/><path class="cls-13" d="M1419.26,1824.59c.89.22,12.29,31.15,12.67,33.73,1.8,12-4.44,49.5-1.51,55.31,4.15,8.24,110.19,14.62,127.11,9.36,17.32-5.38-6.6-38.27-26-44.43-40.24-12.77-63.36-64.17-62.3-63.69C1469.21,1814.88,1449.68,1832,1419.26,1824.59Z" transform="translate(-964.83 -129.48)"/><path class="cls-14" d="M1283.59,1500.3h246.7a11.94,11.94,0,0,0,12-11.94h0a12,12,0,0,0-12-11.95h-246.7a12,12,0,0,0-11.95,11.95h0A11.94,11.94,0,0,0,1283.59,1500.3Z" transform="translate(-964.83 -129.48)"/><polygon class="cls-15" points="629.75 1213.47 446.56 1213.47 391.31 1364.49 577.41 1364.49 629.75 1213.47"/><path class="cls-5" d="M1481.48,1400.41c0,4.44,3.14,6.23,7,4a15.44,15.44,0,0,0,7-12.07c0-4.44-3.14-6.23-7-4A15.42,15.42,0,0,0,1481.48,1400.41Z" transform="translate(-964.83 -129.48)"/><rect class="cls-5" x="671.15" y="878.26" width="487.72" height="353.16" rx="39.7"/><path class="cls-9" d="M706.32,878.26H1123.7a35.18,35.18,0,0,1,35.18,35.18v242a0,0,0,0,1,0,0H671.15a0,0,0,0,1,0,0v-242A35.18,35.18,0,0,1,706.32,878.26Z"/><polygon class="cls-5" points="971.53 1279.19 858.49 1279.19 862.36 1227.67 966.82 1227.67 971.53 1279.19"/><polygon class="cls-5" points="995.61 1292.58 834.41 1292.58 857.55 1275.89 970.33 1275.89 995.61 1292.58"/><path class="cls-10" d="M2104.27,1340c10.61-4.65,22.05-2.93,33.15-5-3.47-.56-7-1.14-10.1-3a11.5,11.5,0,0,1-5.62-9.4,272.76,272.76,0,0,1,38.33,8.74,211.62,211.62,0,0,1-3.52,33.5c-.21,1.19-15.62-.6-17.84-.44-7.2.51-14.13.59-21.22-1a7.4,7.4,0,0,1-4.1-2c-1.08-1.19-1.45-3.38-.39-4.63-.43.51-6.84-.73-7.91-1a13,13,0,0,1-7-4.52c-2-2.74-2.12-7.56.56-9.49C2100.24,1340.55,2102.45,1340.8,2104.27,1340Z" transform="translate(-964.83 -129.48)"/><path class="cls-10" d="M2393.64,1571.37s-73.53-28.2-71.22,36.12S2350,1892.62,2350,1892.62l29.81-4.42s14-98.31,13.18-176.56C2392.31,1645.71,2399.56,1586.56,2393.64,1571.37Z" transform="translate(-964.83 -129.48)"/><path class="cls-11" d="M2343.78,1600.76s-73.42-28.46-71.35,35.87,27,255.58,27,255.58l33.68-7.81a998.33,998.33,0,0,0,9.53-143.38C2342.19,1675.09,2349.65,1616,2343.78,1600.76Z" transform="translate(-964.83 -129.48)"/><path class="cls-6" d="M2328,1882.15c2.84-.81,5.73-1.65,8.71-2.47q2.36,55.71.66,111.43c-8.64,2.76-16,2.13-24.93,1.23q-.1-9.66-.23-19.34a40.66,40.66,0,0,1-26.48,21.77c-10.53,2.74-21.48,1.5-32.2-.43-3.35-.61-6.78-1.32-9.78-3.44s-5.6-22.5-5.87-27c-1-15.73,31.69-14.75,40-21.64,4.78-3.94,16-9.56,18.78-16,3.75-8.78-9.47-28.29-8.71-38.7C2298.17,1886.84,2318.66,1884.81,2328,1882.15Z" transform="translate(-964.83 -129.48)"/><path class="cls-6" d="M2378.41,1886.87c2.84-.81,5.73-1.64,8.71-2.47q2.36,55.72.66,111.43c-8.64,2.76-16,2.13-24.93,1.24q-.1-9.67-.23-19.35a40.6,40.6,0,0,1-26.48,21.77c-10.53,2.74-21.48,1.51-32.2-.43-3.35-.6-6.78-1.31-9.78-3.44s-6.52-21.71-6.79-26.17c-1-15.74,32.61-15.54,40.94-22.43,4.78-4,16-9.57,18.78-16,3.75-8.77-5.85-28.36-5.09-38.77C2352.17,1891.49,2369,1889.54,2378.41,1886.87Z" transform="translate(-964.83 -129.48)"/><path class="cls-16" d="M2345.67,1179.77c-15.91-10.82-41.7,3-46.74,11.91-15.25,27-13.42,110.94-29.5,116.07-28.06,9-118,19-118,19l-2.19,40.85s157.17,14,178.43-37.07C2354.15,1266.93,2345.67,1179.77,2345.67,1179.77Z" transform="translate(-964.83 -129.48)"/><path class="cls-6" d="M2105.52,1328.15h116.05a4.65,4.65,0,0,1,3.4,1.47l30,31.81a4.67,4.67,0,0,1-3.4,7.87H2133.9a4.7,4.7,0,0,1-3.49-1.56L2102,1335.93A4.67,4.67,0,0,1,2105.52,1328.15Z" transform="translate(-964.83 -129.48)"/><polygon class="cls-5" points="1146.2 1201.09 1248.95 1201.09 1279.94 1234 1175.56 1234 1146.2 1201.09"/><path class="cls-13" d="M2320.31,1174.23s-16.12,40.5-59.19,78.91c0,0-3.47,35,22.28,41.67,2.54,0,6.88,45.37,7.29,50.86,2.59,34.25-35.43,171.23-41.21,210.82-11.66,79.87-32.23,286.23,3,300.2,28.07,11.15,47.34,14.64,51.56-20.55q7.17-59.79,14.33-119.58c-.44,25-.86,50,.92,75,1.35,18.8,1.24,57.7,13.67,73,11.62,14.27,90.51,14.55,106.65-2.37,19.76-20.72,28.68-180.62,27.2-222.83-1.78-50.64-7.29-112.2-22.71-160.21-6.61-20.57-25.72-112-36.21-136.78,0,0,43.11-131.76-2.44-154.57C2364.21,1167.13,2320.31,1174.23,2320.31,1174.23Z" transform="translate(-964.83 -129.48)"/><path class="cls-10" d="M2253.87,1374.51s-19.06,12.43-30.32,4.46c0,0-17.56-.8-16.41-7.43,0,0-12.81-3.71-8.84-11.59,0,0,32.67,5,36.18-3.92.94-2.4-4.94-2.45-11.84-6.24-4.5-2.47-5.85-10.65,5.89-6.09,5.67,2.2,11.29-1.32,14.48,1.31s10.84,6.65,10.84,6.65Z" transform="translate(-964.83 -129.48)"/><path class="cls-10" d="M2326.77,1174.21s18.48,16.49,55.13,3.49l5.16-88.13-54.2,43.31Z" transform="translate(-964.83 -129.48)"/><path class="cls-11" d="M2330,1148.5s47.89-8.19,51.8-48.53l-2.91,45.53S2351.57,1160.87,2330,1148.5Z" transform="translate(-964.83 -129.48)"/><path class="cls-10" d="M2306.19,1051.38s-7.55,62.08-2.81,71.79,14.79,26.43,26.58,25.33,39.56-10.32,46.87-28.68,10.13-83.14,10.13-83.14S2339.12,998.44,2306.19,1051.38Z" transform="translate(-964.83 -129.48)"/><path class="cls-16" d="M2389.84,1328.07s-16.32-144.86,15.43-166.29,50.53,45,49,107.67c-1.27,51.7,13.52,107.26-61,117.33s-139.9-.87-139.9-.87-10.31-29.45,4.77-40.71Z" transform="translate(-964.83 -129.48)"/><path class="cls-15" d="M2417.57,1294.81c-1.15,17.09-12,36.57-15.51,62.68-9.11-39.93-19.88-174.15-24.72-207.17-2-13.63-3.11-28.3-.63-42,1.73-9.54,6-14.13,1.51-23.17-11.82-23.82-54.94-19.28-33.91-56.47-8.87,15.68-18.16,17.27-30.27,27.37-10.43,8.71-10,16.15-11.09,29.9-2.48-12.64-5.6-30.72,1.62-42.29,7.45-11.93,33-45.11,47.68-22.06,13.14-9.1,32.28-7,46,1.3,14,8.45,16.72,30.6,19.43,45.06,4.09,21.8,19,40,25.37,61.14a345.26,345.26,0,0,1,13.66,74.4c2.78,40.38-34.92,139.88-38.13,145.17C2416.07,1352.91,2423.6,1319.65,2417.57,1294.81Z" transform="translate(-964.83 -129.48)"/><path class="cls-11" d="M2374.65,1114.86l1-25.7s15.92-14.86,17.06-3.61C2395.44,1112.57,2374.65,1114.86,2374.65,1114.86Z" transform="translate(-964.83 -129.48)"/><path class="cls-16" d="M2352.27,1871s86.6,9.56,87.64-59.41-13.51-206.15-15.59-234.2,13.68-121.06,8.14-144.11,40.62,113.45,34.48,221.32-8.28,188.29-27.36,207.59C2417.59,1884.4,2352.27,1871,2352.27,1871Z" transform="translate(-964.83 -129.48)"/><circle class="cls-5" cx="1100.36" cy="732.38" r="83.38" transform="translate(-1160.41 863.1) rotate(-45)"/><path class="cls-4" d="M1100.36,819.66a87.28,87.28,0,1,1,87.27-87.28A87.37,87.37,0,0,1,1100.36,819.66Zm0-166.76a79.48,79.48,0,1,0,79.48,79.48A79.57,79.57,0,0,0,1100.36,652.9Z" transform="translate(-964.83 -129.48)"/><rect class="cls-4" x="130.42" y="534.57" width="5.11" height="78.19"/><rect class="cls-4" x="1111.1" y="702.44" width="5.11" height="43.21" transform="translate(-238.66 -675.99) rotate(40.01)"/><path class="cls-17" d="M2478.52,1420.28h224.36a10.87,10.87,0,0,0,10.87-10.87h0a10.87,10.87,0,0,0-10.87-10.86H2478.52a10.87,10.87,0,0,0-10.87,10.86h0A10.87,10.87,0,0,0,2478.52,1420.28Z" transform="translate(-964.83 -129.48)"/><polygon class="cls-18" points="1796.52 1147.69 1629.91 1147.69 1579.67 1285.03 1748.92 1285.03 1796.52 1147.69"/><path class="cls-5" d="M2664.53,1325.52c0,4,2.81,5.58,6.28,3.58a13.86,13.86,0,0,0,6.27-10.83c0-4-2.81-5.58-6.27-3.58A13.83,13.83,0,0,0,2664.53,1325.52Z" transform="translate(-964.83 -129.48)"/><g class="cls-19"><rect class="cls-5" x="1695.82" y="1041.21" width="368.66" height="217.16" transform="translate(2795.48 2170.1) rotate(180)"/><path class="cls-6" d="M1855.51,1204.74c-42.58,5.47-104.17-6-121.6,58.76h259.84s-11-37.52-32.33-49C1939,1202.5,1895.82,1199.57,1855.51,1204.74Z" transform="translate(-964.83 -129.48)"/><path class="cls-11" d="M1868.61,1152s3.34,47.76,3.34,70.49c0,14.1-44.38,13.64-44.62,9.3-.66-11.6-3.46-66-3.46-66C1847.78,1187.27,1868.61,1152,1868.61,1152Z" transform="translate(-964.83 -129.48)"/><path class="cls-10" d="M1830,1069.4c-71.24,5.69-23.23,135.83,9,129.14C1908.32,1184.14,1874.74,1065.82,1830,1069.4Z" transform="translate(-964.83 -129.48)"/><path class="cls-10" d="M1998.85,1185.67s3.25-16.11-.63-24.61-1.42-14.66,1.74-11.38,6.88,14.42,6.88,14.42,2.78-35.47,7.47-35.72,1.56,29.11,1.56,29.11,4.24-31.36,7.89-31.14c5.6.34,1.07,32.12,1.07,32.12s3.74-27.34,8-28.28-.25,30.8-.25,30.8,4.52-17.65,8.57-15.45c5.71,3.11-14.28,50.28-14.28,50.28Z" transform="translate(-964.83 -129.48)"/><path class="cls-17" d="M1796.43,1126.8c-.8-10,.9-31.28.9-31.28s8.34,5,13.87.6c9.34,18.18,32.53,8.87,35.31,2.82-.53,1.14,15.58-8.21,15.58-8.21s10,37.23,10.07,49.15c.08,17.91-4.39,35.19-6.61,53,10.55-.69,57.26-18.59,59.07-24.45,4.05-13.1-26.5-84.08-26.5-84.08s-19-36.83-77.21-32.19c-53,4.23-52.3,58.81-52.3,58.81s-4.83,15.48-8,27.28c-2.2,8.25-2.59,46.48.56,54.63,1.57,4.07,29.27.93,33.55.91l.3-12.69c-.41,17.65,29.37,18,39.34,14.16-3.94-9.39-19.26-25.81-24.29-35C1804.61,1150.23,1797.37,1138.36,1796.43,1126.8Z" transform="translate(-964.83 -129.48)"/><path class="cls-6" d="M2056.42,1201.09l-8.37,62.41h-72.51l3.32-41.45,2.6-32.39c.78-9.8,10.31-16.72,20.31-14.76L2043,1183A16.41,16.41,0,0,1,2056.42,1201.09Z" transform="translate(-964.83 -129.48)"/></g><path class="cls-6" d="M864.9,1417.16h185.82a48.41,48.41,0,0,1,48.41,48.41v30.8a3.44,3.44,0,0,1-3.44,3.44H819.92a3.44,3.44,0,0,1-3.44-3.44v-30.8A48.41,48.41,0,0,1,864.9,1417.16Z"/><path class="cls-6" d="M1806.48,1999h0a11.57,11.57,0,0,1-11.57-11.57V1611.65h23.14v375.73A11.57,11.57,0,0,1,1806.48,1999Z" transform="translate(-964.83 -129.48)"/><path class="cls-6" d="M1058.53,1482.17h23.14a0,0,0,0,1,0,0V1857.9a11.57,11.57,0,0,1-11.57,11.57h0a11.57,11.57,0,0,1-11.57-11.57V1482.17A0,0,0,0,1,1058.53,1482.17Z"/><rect class="cls-6" x="842.93" y="1555.07" width="225.48" height="18.29"/><rect class="cls-6" x="842.93" y="1657.63" width="225.48" height="18.29"/><path class="cls-14" d="M1626.58,826.5h75.34a11.38,11.38,0,0,1,11.13,13.73l-14.33,67.91h-.09v.14c0,4.13-15.57,7.47-34.78,7.47s-34.78-3.34-34.78-7.47a.71.71,0,0,1,0-.14H1629l-13.52-68A11.38,11.38,0,0,1,1626.58,826.5Z" transform="translate(-964.83 -129.48)"/><ellipse class="cls-9" cx="699.29" cy="701.65" rx="46.37" ry="8.41"/><path class="cls-18" d="M1664.51,832.76s64.28-24.88,86.94-75.71C1751.45,757.05,1691.15,740.69,1664.51,832.76Z" transform="translate(-964.83 -129.48)"/><path class="cls-18" d="M1664.25,829.54s17.77-89.89-25.37-131.14-61.47,10.23-61.47,10.23S1620,688.83,1664.25,829.54Z" transform="translate(-964.83 -129.48)"/><path class="cls-5" d="M1664.25,830.58a1,1,0,0,1-1-1,394.65,394.65,0,0,0-8.9-55.61c-9-37.79-22.4-62-38.59-70-11.07-5.48-23.77-3.62-37.75,5.51a1,1,0,0,1-1.44-.3,1,1,0,0,1,.3-1.44c14.65-9.57,28-11.46,39.81-5.64,17,8.43,30.36,32.45,39.7,71.42a395.71,395.71,0,0,1,8.94,55.92,1,1,0,0,1-1,1.11Z" transform="translate(-964.83 -129.48)"/><path class="cls-18" d="M1665.09,831.28s-14.24-67.82,17.15-98.94,44.73,7.72,44.73,7.72S1697.28,725.12,1665.09,831.28Z" transform="translate(-964.83 -129.48)"/><path class="cls-5" d="M1665.09,832.32h0a1,1,0,0,1-1-1.06,254,254,0,0,1,4.53-38.57c5.48-27.31,14.53-45.13,26.9-53,9.06-5.74,19.79-5.94,31.91-.59a1,1,0,0,1,.53,1.37,1,1,0,0,1-1.37.53c-11.44-5-21.52-4.9-30,.45-28.43,18-30.45,89.13-30.47,89.85A1,1,0,0,1,1665.09,832.32Z" transform="translate(-964.83 -129.48)"/><path class="cls-5" d="M1664.51,833.79a1,1,0,0,1-.81-1.68c.12-.16,12.73-16,29.69-33.14,22.83-23.11,42.25-37.54,57.72-42.9a1,1,0,1,1,.68,2c-36.23,12.55-86,74.75-86.47,75.37A1,1,0,0,1,1664.51,833.79Z" transform="translate(-964.83 -129.48)"/><path class="cls-18" d="M1664.51,832.76s-1.65-49.42-36.91-9.67-33.07,80.41-33.07,80.41-31.72-81.36,13.75-104.18S1671.18,803,1664.51,832.76Z" transform="translate(-964.83 -129.48)"/><path class="cls-5" d="M1593.27,901.05a1,1,0,0,1-1-.84,150.13,150.13,0,0,1-1.3-38.71c2.78-27.75,13.89-48.6,32.13-60.29,12.41-8,22.4-9.83,29.7-5.59,14.11,8.2,12.83,36,12.77,37.19a1,1,0,0,1-2.08-.11c0-.27,1.28-27.72-11.73-35.28-6.58-3.82-15.84-2-27.53,5.54-22.35,14.32-29.3,39.85-31.19,58.75a147.73,147.73,0,0,0,1.27,38.1,1,1,0,0,1-.82,1.22A.65.65,0,0,1,1593.27,901.05Z" transform="translate(-964.83 -129.48)"/></svg>