<svg xmlns="http://www.w3.org/2000/svg" width="32" height="32" viewBox="0 0 715 539.319" xmlns:v="https://vecta.io/nano"><path fill="#005587" d="M156.508 539.32c-4.415 0-8.268-2.164-10.307-5.8-1.002-1.78-2.94-6.564.664-12.487l3.52-5.66c4.898-7.822 12.303-19.643 18.217-30.97 6.254-11.98 8.102-18.247 8.63-21.15-52.04-21.102-95.802-51.17-126.725-87.1C17.465 337.768 0 293.624 0 248.5c0-34.105 9.7-67.128 28.832-98.15 18.25-29.596 44.28-56.107 77.363-78.8C173.466 25.4 262.714 0 357.5 0s184.034 25.4 251.305 71.55c33.084 22.69 59.112 49.203 77.363 78.8C705.3 181.372 715 214.394 715 248.5s-9.7 67.128-28.832 98.15c-18.25 29.596-44.28 56.107-77.363 78.8C541.534 471.6 452.286 497 357.5 497c-30.966 0-61.696-2.744-91.35-8.154-7.458 1.433-36.9 16.756-54.677 25.998-34.846 18.13-47.688 24.473-54.96 24.476zM357.5 21C171.953 21 21 123.055 21 248.5c0 80.423 64.08 155.734 167.236 196.545 4.434 1.754 7.7 5.262 9.226 9.877 3.614 11.007-3.39 28.078-17.76 52.665l22.078-11.372c38.002-19.77 55.592-28.436 64.55-28.436a14.63 14.63 0 0 1 2.651.235c28.703 5.3 58.485 7.986 88.517 7.986C543.047 476 694 373.944 694 248.5S543.047 21 357.5 21z"/></svg>