<svg xmlns="http://www.w3.org/2000/svg" xmlns:xlink="http://www.w3.org/1999/xlink" width="32" height="32"><path fill="#FFF" d="M26.238 9.646a8.574 8.574 0 01-2.417.662 4.23 4.23 0 001.854-2.323 8.531 8.531 0 01-2.672 1.017 4.201 4.201 0 00-7.266 2.879c0 .325.037.647.106.952a11.935 11.935 0 01-8.662-4.389 4.152 4.152 0 00-.573 2.114c0 1.457.743 2.739 1.874 3.501a4.234 4.234 0 01-1.9-.527v.051a4.206 4.206 0 003.372 4.122 4.263 4.263 0 01-1.903.072 4.21 4.21 0 003.93 2.917 8.444 8.444 0 01-6.224 1.738 11.914 11.914 0 006.444 1.886c7.731 0 11.957-6.403 11.957-11.959 0-.178-.002-.36-.013-.543a8.545 8.545 0 002.098-2.172l-.005.002z"/></svg>