<svg xmlns="http://www.w3.org/2000/svg" width="32" height="32" viewBox="0 0 124.382 206.781" xmlns:v="https://vecta.io/nano"><path fill="#fff" d="M62.19 104.668c28.903 0 52.335-23.43 52.335-52.334S91.094 0 62.19 0 9.856 23.43 9.856 52.334s23.43 52.334 52.335 52.334zm0-78.08c14.22 0 25.748 11.528 25.748 25.747S76.41 78.08 62.19 78.08 36.444 66.554 36.444 52.334 47.97 26.587 62.19 26.587zm60.327 84.467c-2.955-5.936-11.14-10.874-22.015-2.304-14.7 11.583-38.313 11.583-38.313 11.583s-23.612 0-38.313-11.583c-10.876-8.57-19.06-3.632-22.014 2.304-5.15 10.348.67 15.35 13.803 23.78 11.218 7.202 26.632 9.892 36.586 10.898l-39.15 39.15a12 12 0 0 0 0 16.971l1.414 1.414c4.687 4.687 12.284 4.686 16.97 0l30.84-30.84 30.84 30.84a12 12 0 0 0 16.971 0l1.414-1.414c4.687-4.687 4.686-12.284 0-16.97l-39.175-39.174c9.962-1.025 25.21-3.73 36.336-10.872 13.134-8.43 18.954-13.433 13.804-23.78z"/></svg>