<svg width="13" height="22" viewBox="0 0 13 22" fill="none" xmlns="http://www.w3.org/2000/svg">
<path d="M9.20968 7.40726C9.20968 6.83377 8.98197 6.37834 8.52655 6.04099C8.07113 5.68677 7.44703 5.50966 6.65425 5.50966C5.84461 5.50966 5.19521 5.65304 4.70605 5.93979C4.23376 6.22653 3.99761 6.58919 3.99761 7.02774C3.99761 7.4157 4.14098 7.73618 4.42773 7.98919C4.73135 8.24221 5.094 8.44462 5.51569 8.59643C5.95425 8.74823 6.57835 8.92534 7.38799 9.12775C8.56872 9.4145 9.52173 9.70968 10.247 10.0133C10.9892 10.3 11.6217 10.7555 12.1446 11.3796C12.6844 12.0037 12.9543 12.847 12.9543 13.9097C12.9543 15.5965 12.4483 16.87 11.4362 17.7302C10.441 18.5905 9.06631 19.0712 7.31208 19.1724C7.46389 20.2182 7.57353 20.9435 7.641 21.3483H5.08557L5.41448 19.1471C3.81207 19.0121 2.50483 18.5398 1.49278 17.7302C0.497593 16.9037 0 15.7314 0 14.2133L0.0253014 13.7073H3.44098L3.41568 14.0868C3.41568 14.7615 3.66026 15.2844 4.14942 15.6555C4.63858 16.0266 5.34702 16.2121 6.27473 16.2121C7.35425 16.2121 8.12173 16.0519 8.57715 15.7314C9.04944 15.4109 9.28559 14.9977 9.28559 14.4916C9.28559 14.0868 9.14221 13.7579 8.85547 13.5049C8.56872 13.2519 8.20607 13.0495 7.76751 12.8977C7.34582 12.7458 6.73859 12.5687 5.94581 12.3663C4.79882 12.0964 3.8458 11.8097 3.08676 11.5061C2.34459 11.2025 1.70362 10.7217 1.16386 10.0639C0.640967 9.40607 0.37952 8.52052 0.37952 7.40726C0.37952 6.04099 0.843378 4.96147 1.77109 4.16869C2.69881 3.35905 3.91327 2.86989 5.41448 2.70122C5.27954 1.7229 5.16991 0.989159 5.08557 0.5H7.641C7.5398 1.05663 7.43016 1.78193 7.31208 2.67591C8.89763 2.77712 10.1711 3.22411 11.1326 4.01688C12.1109 4.79279 12.6001 5.90605 12.6001 7.35666V7.63498H9.20968V7.40726Z" fill="#19BC7B"/>
</svg>
