<svg width="23" height="24" viewBox="0 0 23 24" fill="none" xmlns="http://www.w3.org/2000/svg">
<g clip-path="url(#clip0_42_1973)">
<path d="M20 0.5H3C1.34315 0.5 0 1.84315 0 3.5V20.5C0 22.1569 1.34315 23.5 3 23.5H20C21.6569 23.5 23 22.1569 23 20.5V3.5C23 1.84315 21.6569 0.5 20 0.5Z" fill="white"/>
<path d="M13.3524 6.37207C14.9439 6.37207 16.2299 7.00043 16.2476 8.59774V17.5122C16.2476 17.612 16.2241 17.7119 16.1771 17.7999C16.1007 17.9409 15.9715 18.0466 15.813 18.0936C15.6603 18.1405 15.49 18.1171 15.3491 18.0348L11.5437 16.1322L7.73244 18.0348C7.64494 18.0812 7.54452 18.1112 7.44468 18.1112C7.11582 18.1112 6.85156 17.841 6.85156 17.5122V8.59774C6.85156 7.00043 8.14351 6.37207 9.72908 6.37207H13.3524ZM13.7517 9.91906H9.32975C9.07724 9.91906 8.8717 10.1246 8.8717 10.383C8.8717 10.6408 9.07724 10.8469 9.32975 10.8469H13.7517C14.0043 10.8469 14.2098 10.6408 14.2098 10.383C14.2098 10.1246 14.0043 9.91906 13.7517 9.91906Z" fill="#19BC7B"/>
</g>
<defs>
<clipPath id="clip0_42_1973">
<rect width="23" height="23" fill="white" transform="translate(0 0.5)"/>
</clipPath>
</defs>
</svg>
