<svg width="32" height="27" viewBox="0 0 32 27" fill="none" xmlns="http://www.w3.org/2000/svg">
<g clip-path="url(#clip0_3_1375)">
<path d="M8.91798 1.13015C9.04261 1.34251 11.0878 4.78647 13.4653 8.78441L17.791 16.0555L12.3388 16.0694L6.89131 16.0786L6.78051 16.254C6.61894 16.4987 0.977482 26.0181 0.949783 26.0827C0.931316 26.1289 1.7069 26.1427 4.73076 26.1427H8.53484L11.1109 21.8308C12.5281 19.458 13.7469 17.422 13.8208 17.302L13.9547 17.0943L16.203 17.1035L18.4558 17.1173L21.1334 21.6277L23.811 26.1427H27.6059C29.6972 26.1427 31.4053 26.1335 31.4053 26.1197C31.4053 26.1012 28.0122 20.3905 23.8711 13.4241L16.3322 0.751587H12.5143H8.69177L8.91798 1.13015Z" fill="white"/>
</g>
<defs>
<clipPath id="clip0_3_1375">
<rect width="30.9878" height="25.41" fill="white" transform="translate(0.949463 0.751587)"/>
</clipPath>
</defs>
</svg>
