<svg width="60" height="60" viewBox="0 0 60 60" fill="none" xmlns="http://www.w3.org/2000/svg">
<g clip-path="url(#clip0_452_232)">
<path fill-rule="evenodd" clip-rule="evenodd" d="M40.0058 24.0435V27.0016C40.0058 27.5536 39.5578 28.0016 39.0058 28.0016C38.4538 28.0016 38.0058 27.5536 38.0058 27.0016V21.4636C38.0058 20.9105 38.4538 20.4635 39.0058 20.4635H44.5438C45.0958 20.4635 45.5438 20.9115 45.5438 21.4636C45.5438 22.0146 45.0958 22.4636 44.5438 22.4636H41.2328C45.3738 25.9496 48.0058 31.1706 48.0058 37.0016C48.0058 47.4876 39.4918 56.0017 29.0057 56.0017C26.4127 56.0017 23.9407 55.4807 21.6887 54.5397C21.4017 54.4157 21.1937 54.1597 21.1307 53.8537C21.0677 53.5477 21.1587 53.2307 21.3727 53.0037C21.3907 52.9787 21.4117 52.9567 21.4327 52.9347C21.7077 52.6437 22.1357 52.5547 22.5057 52.7107C24.5077 53.5427 26.7037 54.0017 29.0057 54.0017C38.3888 54.0017 46.0058 46.3846 46.0058 37.0016C46.0058 31.8126 43.6758 27.1636 40.0058 24.0435ZM17.3487 22.0015H2.86964C1.28763 22.0015 0.00561523 20.7195 0.00561523 19.1375V2.86547C0.00561523 1.28347 1.28763 0.00146484 2.86964 0.00146484H29.1417C30.7237 0.00146484 32.0057 1.28347 32.0057 2.86547V18.2375C32.6917 18.3465 33.3658 18.4925 34.0258 18.6725C34.3028 18.7515 34.5287 18.9525 34.6397 19.2185C34.7507 19.4845 34.7328 19.7865 34.5938 20.0385C34.5768 20.0745 34.5578 20.1086 34.5388 20.1416C34.3268 20.5236 33.8798 20.7105 33.4578 20.5925C32.9128 20.4445 32.3557 20.3225 31.7907 20.2295C31.3607 21.2695 30.3367 22.0015 29.1417 22.0015H21.0037C15.6507 24.8656 12.0057 30.5116 12.0057 37.0016C12.0057 41.1716 13.5097 44.9926 16.0057 47.9517V44.7326C16.0057 44.1806 16.4537 43.7326 17.0057 43.7326C17.5577 43.7326 18.0057 44.1806 18.0057 44.7326V50.2707C18.0057 50.8237 17.5577 51.2707 17.0057 51.2707H11.4676C10.9156 51.2707 10.4676 50.8227 10.4676 50.2707C10.4676 49.7187 10.9156 49.2707 11.4676 49.2707H14.5027C11.6977 45.9586 10.0057 41.6766 10.0057 37.0016C10.0057 30.9076 12.8807 25.4796 17.3487 22.0015ZM28.0057 28.0016H27.0057C25.6797 28.0016 24.4077 28.5286 23.4697 29.4656C22.5327 30.4036 22.0057 31.6756 22.0057 33.0016C22.0057 33.0016 22.0057 33.5536 22.0057 33.0016C22.0057 34.3276 22.5327 35.5996 23.4697 36.5376C24.4077 37.4746 25.6797 38.0016 27.0057 38.0016C28.2937 38.0016 29.7197 38.0016 31.0077 38.0016C32.6637 38.0016 34.0057 39.3436 34.0057 40.9996V41.0016C34.0057 41.7976 33.6897 42.5606 33.1267 43.1226C32.5647 43.6856 31.8017 44.0016 31.0057 44.0016H27.0057C26.2097 44.0016 25.4467 43.6856 24.8847 43.1226C24.3217 42.5606 24.0057 41.7976 24.0057 41.0016C24.0057 39.6446 22.0057 39.6446 22.0057 41.0016C22.0057 42.3276 22.5327 43.5996 23.4697 44.5376C24.4077 45.4746 25.6797 46.0016 27.0057 46.0016H28.0057V49.0016C28.0057 49.5536 28.4537 50.0016 29.0057 50.0016C29.5577 50.0016 30.0057 49.5536 30.0057 49.0016V46.0016H31.0057C32.3317 46.0016 33.6037 45.4746 34.5418 44.5376C35.4788 43.5996 36.0057 42.3276 36.0057 41.0016V40.9996C36.0057 38.2396 33.7678 36.0016 31.0077 36.0016H27.0057C26.2097 36.0016 25.4467 35.6856 24.8847 35.1226C24.3217 34.5606 24.0057 33.7976 24.0057 33.0016C24.0057 33.5536 24.0057 33.0016 24.0057 33.0016C24.0057 32.2056 24.3217 31.4426 24.8847 30.8806C25.4467 30.3176 26.2097 30.0016 27.0057 30.0016H31.0057C31.8017 30.0016 32.5647 30.3176 33.1267 30.8806C33.6897 31.4426 34.0057 32.2056 34.0057 33.0016L34.0078 33.0626C34.0228 33.3876 34.1618 33.5996 34.3308 33.7386C34.5088 33.9016 34.7457 34.0016 35.0057 34.0016C35.0057 34.0016 36.0057 33.9446 36.0057 33.0016C36.0057 31.6756 35.4788 30.4036 34.5418 29.4656C33.6037 28.5286 32.3317 28.0016 31.0057 28.0016H30.0057V25.0016C30.0057 24.4496 29.5577 24.0016 29.0057 24.0016C28.4537 24.0016 28.0057 24.4496 28.0057 25.0016V28.0016ZM30.0057 2.86547V19.1375C30.0057 19.6145 29.6187 20.0015 29.1417 20.0015H2.86964C2.39264 20.0015 2.00562 19.6145 2.00562 19.1375V2.86547C2.00562 2.38847 2.39264 2.00147 2.86964 2.00147H29.1417C29.6187 2.00147 30.0057 2.38847 30.0057 2.86547ZM24.7777 11.7735C22.9957 11.7735 21.5497 13.2195 21.5497 15.0015C21.5497 16.7835 22.9957 18.2295 24.7777 18.2295C26.5587 18.2295 28.0057 16.7835 28.0057 15.0015C28.0057 13.2195 26.5587 11.7735 24.7777 11.7735ZM15.5457 17.5985L25.5457 5.60248C25.8987 5.17848 25.8417 4.54748 25.4177 4.19348C24.9937 3.84048 24.3627 3.89749 24.0097 4.32149L14.0097 16.3175C13.6557 16.7415 13.7136 17.3725 14.1366 17.7265C14.5607 18.0795 15.1916 18.0225 15.5457 17.5985ZM24.7777 13.7735C25.4557 13.7735 26.0057 14.3235 26.0057 15.0015C26.0057 15.6795 25.4557 16.2295 24.7777 16.2295C24.0997 16.2295 23.5497 15.6795 23.5497 15.0015C23.5497 14.3235 24.0997 13.7735 24.7777 13.7735ZM6.00564 10.0015H5.00563C4.45363 10.0015 4.00563 10.4495 4.00563 11.0015C4.00563 11.5535 4.45363 12.0015 5.00563 12.0015H6.00564V13.0015C6.00564 13.5535 6.45364 14.0015 7.00564 14.0015C7.55764 14.0015 8.00564 13.5535 8.00564 13.0015V12.0015H9.00565C9.55765 12.0015 10.0057 11.5535 10.0057 11.0015C10.0057 10.4495 9.55765 10.0015 9.00565 10.0015H8.00564V9.0015C8.00564 8.4495 7.55764 8.00149 7.00564 8.00149C6.45364 8.00149 6.00564 8.4495 6.00564 9.0015V10.0015ZM14.7776 3.77348C12.9956 3.77348 11.5497 5.21948 11.5497 7.00149C11.5497 8.7835 12.9956 10.2295 14.7776 10.2295C16.5586 10.2295 18.0057 8.7835 18.0057 7.00149C18.0057 5.21948 16.5586 3.77348 14.7776 3.77348ZM14.7776 5.77349C15.4556 5.77349 16.0057 6.32349 16.0057 7.00149C16.0057 7.67949 15.4556 8.22949 14.7776 8.22949C14.0996 8.22949 13.5497 7.67949 13.5497 7.00149C13.5497 6.32349 14.0996 5.77349 14.7776 5.77349Z" fill="url(#paint0_linear_452_232)"/>
</g>
<defs>
<linearGradient id="paint0_linear_452_232" x1="12.5057" y1="15.5015" x2="35.0057" y2="50.0017" gradientUnits="userSpaceOnUse">
<stop stop-color="#37A8FF"/>
<stop offset="1" stop-color="#0061FA"/>
</linearGradient>
<clipPath id="clip0_452_232">
<rect width="60" height="60" fill="white"/>
</clipPath>
</defs>
</svg>
