<?xml version="1.0" encoding="UTF-8" standalone="no"?>
<!-- Created with Keyshape -->
<svg xmlns="http://www.w3.org/2000/svg" width="350" height="300" viewBox="0 0 350 300" clip-rule="evenodd" fill-rule="evenodd" stroke-linejoin="round" stroke-miterlimit="2" style="white-space: preserve-spaces;">
    <defs>
        <linearGradient id="Gradient-0" x1="0" y1="0" x2="1" y2="0" gradientUnits="userSpaceOnUse" gradientTransform="matrix(-140.231 0 0 -140.231 3260.63 792.218)">
            <stop offset="0" stop-color="#2eaff8"/>
            <stop offset="1" stop-color="#8cddff"/>
        </linearGradient>
        <linearGradient id="Gradient-1" x1="0" y1="0" x2="1" y2="0" gradientUnits="userSpaceOnUse" gradientTransform="matrix(-61.1436 0 0 -61.1436 3330.99 714.375)">
            <stop offset="0" stop-color="#0074ec"/>
            <stop offset="1" stop-color="#0074ec" stop-opacity="0"/>
        </linearGradient>
        <linearGradient id="Gradient-2" x1="0" y1="0" x2="1" y2="0" gradientUnits="userSpaceOnUse" gradientTransform="matrix(-19.2818 0 0 -19.2818 1888.92 583.065)">
            <stop offset="0" stop-color="#118af1"/>
            <stop offset="0.18" stop-color="#55b3f7"/>
            <stop offset="0.39" stop-color="#94dafd"/>
            <stop offset="1" stop-color="#aeeaff"/>
        </linearGradient>
        <linearGradient id="Gradient-3" x1="0" y1="0" x2="1" y2="0" gradientUnits="userSpaceOnUse" gradientTransform="matrix(-19.2818 0 0 -19.2818 1888.92 576.846)">
            <stop offset="0" stop-color="#118af1"/>
            <stop offset="0.18" stop-color="#55b3f7"/>
            <stop offset="0.39" stop-color="#94dafd"/>
            <stop offset="1" stop-color="#aeeaff"/>
        </linearGradient>
        <linearGradient id="Gradient-4" x1="0" y1="0" x2="1" y2="0" gradientUnits="userSpaceOnUse" gradientTransform="matrix(-19.2818 0 0 -19.2818 1888.92 570.626)">
            <stop offset="0" stop-color="#118af1"/>
            <stop offset="0.18" stop-color="#55b3f7"/>
            <stop offset="0.39" stop-color="#94dafd"/>
            <stop offset="1" stop-color="#aeeaff"/>
        </linearGradient>
        <linearGradient id="Gradient-5" x1="0" y1="0" x2="1" y2="0" gradientUnits="userSpaceOnUse" gradientTransform="matrix(-19.2818 0 0 -19.2818 1888.92 564.407)">
            <stop offset="0" stop-color="#118af1"/>
            <stop offset="0.18" stop-color="#55b3f7"/>
            <stop offset="0.39" stop-color="#94dafd"/>
            <stop offset="1" stop-color="#aeeaff"/>
        </linearGradient>
        <linearGradient id="Gradient-6" x1="0" y1="0" x2="1" y2="0" gradientUnits="userSpaceOnUse" gradientTransform="matrix(-19.2818 0 0 -19.2818 1888.92 558.188)">
            <stop offset="0" stop-color="#118af1"/>
            <stop offset="0.18" stop-color="#55b3f7"/>
            <stop offset="0.39" stop-color="#94dafd"/>
            <stop offset="1" stop-color="#aeeaff"/>
        </linearGradient>
        <linearGradient id="Gradient-7" x1="0" y1="0" x2="1" y2="0" gradientUnits="userSpaceOnUse" gradientTransform="matrix(-19.2818 0 0 -19.2818 1888.92 551.969)">
            <stop offset="0" stop-color="#118af1"/>
            <stop offset="0.18" stop-color="#55b3f7"/>
            <stop offset="0.39" stop-color="#94dafd"/>
            <stop offset="1" stop-color="#aeeaff"/>
        </linearGradient>
        <linearGradient id="Gradient-8" x1="0" y1="0" x2="1" y2="0" gradientUnits="userSpaceOnUse" gradientTransform="matrix(-19.2818 0 0 -19.2818 1888.92 545.749)">
            <stop offset="0" stop-color="#118af1"/>
            <stop offset="0.18" stop-color="#55b3f7"/>
            <stop offset="0.39" stop-color="#94dafd"/>
            <stop offset="1" stop-color="#aeeaff"/>
        </linearGradient>
        <linearGradient id="Gradient-9" x1="0" y1="0" x2="1" y2="0" gradientUnits="userSpaceOnUse" gradientTransform="matrix(-19.2818 0 0 -19.2818 1888.92 539.53)">
            <stop offset="0" stop-color="#118af1"/>
            <stop offset="0.18" stop-color="#55b3f7"/>
            <stop offset="0.39" stop-color="#94dafd"/>
            <stop offset="1" stop-color="#aeeaff"/>
        </linearGradient>
        <linearGradient id="Gradient-10" x1="0" y1="0" x2="1" y2="0" gradientUnits="userSpaceOnUse" gradientTransform="matrix(-19.2818 0 0 -19.2818 1888.92 533.311)">
            <stop offset="0" stop-color="#118af1"/>
            <stop offset="0.18" stop-color="#55b3f7"/>
            <stop offset="0.39" stop-color="#94dafd"/>
            <stop offset="1" stop-color="#aeeaff"/>
        </linearGradient>
        <linearGradient id="Gradient-11" x1="0" y1="0" x2="1" y2="0" gradientUnits="userSpaceOnUse" gradientTransform="matrix(-19.2818 0 0 -19.2818 1888.93 527.016)">
            <stop offset="0" stop-color="#118af1"/>
            <stop offset="0.18" stop-color="#55b3f7"/>
            <stop offset="0.39" stop-color="#94dafd"/>
            <stop offset="1" stop-color="#aeeaff"/>
        </linearGradient>
        <linearGradient id="Gradient-12" x1="0" y1="0" x2="1" y2="0" gradientUnits="userSpaceOnUse" gradientTransform="matrix(-19.2818 0 0 -19.2818 1888.93 520.797)">
            <stop offset="0" stop-color="#118af1"/>
            <stop offset="0.18" stop-color="#55b3f7"/>
            <stop offset="0.39" stop-color="#94dafd"/>
            <stop offset="1" stop-color="#aeeaff"/>
        </linearGradient>
        <linearGradient id="Gradient-13" x1="0" y1="0" x2="1" y2="0" gradientUnits="userSpaceOnUse" gradientTransform="matrix(-19.2818 0 0 -19.2818 1888.93 514.577)">
            <stop offset="0" stop-color="#118af1"/>
            <stop offset="0.18" stop-color="#55b3f7"/>
            <stop offset="0.39" stop-color="#94dafd"/>
            <stop offset="1" stop-color="#aeeaff"/>
        </linearGradient>
        <linearGradient id="Gradient-14" x1="0" y1="0" x2="1" y2="0" gradientUnits="userSpaceOnUse" gradientTransform="matrix(-19.2818 0 0 -19.2818 1888.93 508.358)">
            <stop offset="0" stop-color="#118af1"/>
            <stop offset="0.18" stop-color="#55b3f7"/>
            <stop offset="0.39" stop-color="#94dafd"/>
            <stop offset="1" stop-color="#aeeaff"/>
        </linearGradient>
        <linearGradient id="Gradient-15" x1="0" y1="0" x2="1" y2="0" gradientUnits="userSpaceOnUse" gradientTransform="matrix(-19.2818 0 0 -19.2818 1888.93 502.139)">
            <stop offset="0" stop-color="#118af1"/>
            <stop offset="0.18" stop-color="#55b3f7"/>
            <stop offset="0.39" stop-color="#94dafd"/>
            <stop offset="1" stop-color="#aeeaff"/>
        </linearGradient>
        <linearGradient id="Gradient-16" x1="0" y1="0" x2="1" y2="0" gradientUnits="userSpaceOnUse" gradientTransform="matrix(-19.2818 0 0 -19.2818 1888.93 495.919)">
            <stop offset="0" stop-color="#118af1"/>
            <stop offset="0.18" stop-color="#55b3f7"/>
            <stop offset="0.39" stop-color="#94dafd"/>
            <stop offset="1" stop-color="#aeeaff"/>
        </linearGradient>
        <linearGradient id="Gradient-17" x1="0" y1="0" x2="1" y2="0" gradientUnits="userSpaceOnUse" gradientTransform="matrix(-19.2818 0 0 -19.2818 1888.93 489.7)">
            <stop offset="0" stop-color="#118af1"/>
            <stop offset="0.18" stop-color="#55b3f7"/>
            <stop offset="0.39" stop-color="#94dafd"/>
            <stop offset="1" stop-color="#aeeaff"/>
        </linearGradient>
        <linearGradient id="Gradient-18" x1="0" y1="0" x2="1" y2="0" gradientUnits="userSpaceOnUse" gradientTransform="matrix(-19.2818 0 0 -19.2818 1888.93 483.481)">
            <stop offset="0" stop-color="#118af1"/>
            <stop offset="0.18" stop-color="#55b3f7"/>
            <stop offset="0.39" stop-color="#94dafd"/>
            <stop offset="1" stop-color="#aeeaff"/>
        </linearGradient>
        <linearGradient id="Gradient-19" x1="0" y1="0" x2="1" y2="0" gradientUnits="userSpaceOnUse" gradientTransform="matrix(-19.2818 0 0 -19.2818 1888.92 477.262)">
            <stop offset="0" stop-color="#118af1"/>
            <stop offset="0.18" stop-color="#55b3f7"/>
            <stop offset="0.39" stop-color="#94dafd"/>
            <stop offset="1" stop-color="#aeeaff"/>
        </linearGradient>
        <linearGradient id="Gradient-20" x1="0" y1="0" x2="1" y2="0" gradientUnits="userSpaceOnUse" gradientTransform="matrix(-19.2818 0 0 -19.2818 1888.92 471.042)">
            <stop offset="0" stop-color="#118af1"/>
            <stop offset="0.18" stop-color="#55b3f7"/>
            <stop offset="0.39" stop-color="#94dafd"/>
            <stop offset="1" stop-color="#aeeaff"/>
        </linearGradient>
        <linearGradient id="Gradient-21" x1="0" y1="0" x2="1" y2="0" gradientUnits="userSpaceOnUse" gradientTransform="matrix(-19.2818 0 0 -19.2818 1888.92 464.823)">
            <stop offset="0" stop-color="#118af1"/>
            <stop offset="0.18" stop-color="#55b3f7"/>
            <stop offset="0.39" stop-color="#94dafd"/>
            <stop offset="1" stop-color="#aeeaff"/>
        </linearGradient>
        <linearGradient id="Gradient-22" x1="0" y1="0" x2="1" y2="0" gradientUnits="userSpaceOnUse" gradientTransform="matrix(-19.2818 0 0 -19.2818 1888.92 458.604)">
            <stop offset="0" stop-color="#118af1"/>
            <stop offset="0.18" stop-color="#55b3f7"/>
            <stop offset="0.39" stop-color="#94dafd"/>
            <stop offset="1" stop-color="#aeeaff"/>
        </linearGradient>
        <linearGradient id="Gradient-23" x1="0" y1="0" x2="1" y2="0" gradientUnits="userSpaceOnUse" gradientTransform="matrix(-19.2818 0 0 -19.2818 1888.92 452.385)">
            <stop offset="0" stop-color="#118af1"/>
            <stop offset="0.18" stop-color="#55b3f7"/>
            <stop offset="0.39" stop-color="#94dafd"/>
            <stop offset="1" stop-color="#aeeaff"/>
        </linearGradient>
        <linearGradient id="Gradient-24" x1="0" y1="0" x2="1" y2="0" gradientUnits="userSpaceOnUse" gradientTransform="matrix(-19.2818 0 0 -19.2818 1888.92 446.165)">
            <stop offset="0" stop-color="#118af1"/>
            <stop offset="0.18" stop-color="#55b3f7"/>
            <stop offset="0.39" stop-color="#94dafd"/>
            <stop offset="1" stop-color="#aeeaff"/>
        </linearGradient>
        <linearGradient id="Gradient-25" x1="0" y1="0" x2="1" y2="0" gradientUnits="userSpaceOnUse" gradientTransform="matrix(-19.2818 0 0 -19.2818 1888.92 439.946)">
            <stop offset="0" stop-color="#118af1"/>
            <stop offset="0.18" stop-color="#55b3f7"/>
            <stop offset="0.39" stop-color="#94dafd"/>
            <stop offset="1" stop-color="#aeeaff"/>
        </linearGradient>
        <linearGradient id="Gradient-26" x1="0" y1="0" x2="1" y2="0" gradientUnits="userSpaceOnUse" gradientTransform="matrix(-19.2818 0 0 -19.2818 1888.92 433.727)">
            <stop offset="0" stop-color="#118af1"/>
            <stop offset="0.18" stop-color="#55b3f7"/>
            <stop offset="0.39" stop-color="#94dafd"/>
            <stop offset="1" stop-color="#aeeaff"/>
        </linearGradient>
        <linearGradient id="Gradient-27" x1="0" y1="0" x2="1" y2="0" gradientUnits="userSpaceOnUse" gradientTransform="matrix(-19.2818 0 0 -19.2818 1888.93 427.432)">
            <stop offset="0" stop-color="#118af1"/>
            <stop offset="0.18" stop-color="#55b3f7"/>
            <stop offset="0.39" stop-color="#94dafd"/>
            <stop offset="1" stop-color="#aeeaff"/>
        </linearGradient>
        <linearGradient id="Gradient-28" x1="0" y1="0" x2="1" y2="0" gradientUnits="userSpaceOnUse" gradientTransform="matrix(-19.2818 0 0 -19.2818 1888.93 421.212)">
            <stop offset="0" stop-color="#118af1"/>
            <stop offset="0.18" stop-color="#55b3f7"/>
            <stop offset="0.39" stop-color="#94dafd"/>
            <stop offset="1" stop-color="#aeeaff"/>
        </linearGradient>
        <linearGradient id="Gradient-29" x1="0" y1="0" x2="1" y2="0" gradientUnits="userSpaceOnUse" gradientTransform="matrix(-19.2818 0 0 -19.2818 1888.93 414.993)">
            <stop offset="0" stop-color="#118af1"/>
            <stop offset="0.18" stop-color="#55b3f7"/>
            <stop offset="0.39" stop-color="#94dafd"/>
            <stop offset="1" stop-color="#aeeaff"/>
        </linearGradient>
        <linearGradient id="Gradient-30" x1="0" y1="0" x2="1" y2="0" gradientUnits="userSpaceOnUse" gradientTransform="matrix(-19.2818 0 0 -19.2818 1888.93 408.774)">
            <stop offset="0" stop-color="#118af1"/>
            <stop offset="0.18" stop-color="#55b3f7"/>
            <stop offset="0.39" stop-color="#94dafd"/>
            <stop offset="1" stop-color="#aeeaff"/>
        </linearGradient>
        <linearGradient id="Gradient-31" x1="0" y1="0" x2="1" y2="0" gradientUnits="userSpaceOnUse" gradientTransform="matrix(-19.2818 0 0 -19.2818 1888.93 402.555)">
            <stop offset="0" stop-color="#118af1"/>
            <stop offset="0.18" stop-color="#55b3f7"/>
            <stop offset="0.39" stop-color="#94dafd"/>
            <stop offset="1" stop-color="#aeeaff"/>
        </linearGradient>
        <linearGradient id="Gradient-32" x1="0" y1="0" x2="1" y2="0" gradientUnits="userSpaceOnUse" gradientTransform="matrix(-19.2818 0 0 -19.2818 1888.93 396.335)">
            <stop offset="0" stop-color="#118af1"/>
            <stop offset="0.18" stop-color="#55b3f7"/>
            <stop offset="0.39" stop-color="#94dafd"/>
            <stop offset="1" stop-color="#aeeaff"/>
        </linearGradient>
        <linearGradient id="Gradient-33" x1="0" y1="0" x2="1" y2="0" gradientUnits="userSpaceOnUse" gradientTransform="matrix(-19.2818 0 0 -19.2818 1888.93 390.116)">
            <stop offset="0" stop-color="#118af1"/>
            <stop offset="0.18" stop-color="#55b3f7"/>
            <stop offset="0.39" stop-color="#94dafd"/>
            <stop offset="1" stop-color="#aeeaff"/>
        </linearGradient>
        <linearGradient id="Gradient-34" x1="0" y1="0" x2="1" y2="0" gradientUnits="userSpaceOnUse" gradientTransform="matrix(-19.2818 0 0 -19.2818 1888.93 383.897)">
            <stop offset="0" stop-color="#118af1"/>
            <stop offset="0.18" stop-color="#55b3f7"/>
            <stop offset="0.39" stop-color="#94dafd"/>
            <stop offset="1" stop-color="#aeeaff"/>
        </linearGradient>
        <linearGradient id="Gradient-35" x1="0" y1="0" x2="1" y2="0" gradientUnits="userSpaceOnUse" gradientTransform="matrix(471.627 202.391 -631.284 24.7389 2355.63 558.714)">
            <stop offset="0" stop-color="#c7e4ff"/>
            <stop offset="1" stop-color="#d8e9f9"/>
        </linearGradient>
        <linearGradient id="Gradient-36" x1="0" y1="0" x2="1" y2="0" gradientUnits="userSpaceOnUse" gradientTransform="matrix(900.39 -280.672 281.372 930.172 2486.32 2374.42)">
            <stop offset="0" stop-color="#2fc7ff"/>
            <stop offset="1" stop-color="#2ba0f3"/>
        </linearGradient>
        <linearGradient id="Gradient-37" x1="0" y1="0" x2="1" y2="0" gradientUnits="userSpaceOnUse" gradientTransform="matrix(-65.4248 464.294 -451.452 -71.9527 2512.75 2208.9)">
            <stop offset="0" stop-color="#c7e4ff"/>
            <stop offset="1" stop-color="#ebf6ff"/>
        </linearGradient>
        <linearGradient id="Gradient-38" x1="0" y1="0" x2="1" y2="0" gradientUnits="userSpaceOnUse" gradientTransform="matrix(688.341 -234.868 241.635 690.716 2477.09 2211.91)">
            <stop offset="0" stop-color="#2db6fa"/>
            <stop offset="1" stop-color="#2ba2f4"/>
        </linearGradient>
        <linearGradient id="Gradient-39" x1="0" y1="0" x2="1" y2="0" gradientUnits="userSpaceOnUse" gradientTransform="matrix(688.341 -234.868 241.635 690.716 1749.21 2617.4)">
            <stop offset="0" stop-color="#2db6fa"/>
            <stop offset="1" stop-color="#2ba2f4"/>
        </linearGradient>
        <linearGradient id="Gradient-40" x1="0" y1="0" x2="1" y2="0" gradientUnits="userSpaceOnUse" gradientTransform="matrix(636.841 -217.296 223.556 639.038 2439.28 2220.92)">
            <stop offset="0" stop-color="#2db6fa"/>
            <stop offset="1" stop-color="#2ba2f4"/>
        </linearGradient>
        <clipPath id="_clip1">
            <rect width="958.282" height="672.342" transform="translate(479.141,336.171) translate(-479.141,-336.171)"/>
        </clipPath>
    </defs>
    <style>
@keyframes a0_t { 0% { transform: translate(506.278074px,484.042192px) scale(5.01988,5.47527) translate(-2313.078813px,-81.805864px); } 4.4444% { transform: translate(506.278074px,484.042192px) scale(5.01988,5.47527) translate(-2313.078813px,-81.805864px); animation-timing-function: cubic-bezier(0,0,0.58,1); } 37.7777% { transform: translate(506.278074px,236.416347px) scale(5.01988,5.47527) translate(-2313.078813px,-81.805864px); } 88.8888% { transform: translate(506.278074px,236.420002px) scale(5.01988,5.47527) translate(-2313.078813px,-81.805864px); animation-timing-function: cubic-bezier(0,0,0.58,1); } 100% { transform: translate(506.278074px,484.04px) scale(5.01988,5.47527) translate(-2313.078813px,-81.805864px); } }
@keyframes a1_t { 0% { transform: translate(452.578074px,653.332192px) scale(5.01988,5.47527) translate(-2313.078813px,-81.805864px); } 17.7777% { transform: translate(452.578074px,653.332192px) scale(5.01988,5.47527) translate(-2313.078813px,-81.805864px); animation-timing-function: cubic-bezier(0,0,0.58,1); } 40% { transform: translate(452.578074px,453.389081px) scale(5.01988,5.47527) translate(-2313.078813px,-81.805864px); } 88.8888% { transform: translate(452.578074px,453.389081px) scale(5.01988,5.47527) translate(-2313.078813px,-81.805864px); animation-timing-function: cubic-bezier(0,0,0.58,1); } 100% { transform: translate(452.578074px,653.33px) scale(5.01988,5.47527) translate(-2313.078813px,-81.805864px); } }
    </style>
    <g transform="translate(175,229.028) translate(-283,-843.028)">
        <g id="Монтажная-область1" transform="translate(283,843.028) scale(0.365237,0.446201) translate(-479.141,-513.285)">
            <rect width="958.282" height="672.342" fill="none" transform="translate(479.141,336.171) translate(-479.141,-336.171)"/>
            <g clip-path="url(#_clip1)" transform="translate(496.901,631.388) translate(-496.901,-631.388)">
                <g transform="translate(506.278,484.042) scale(5.01988,5.47527) translate(-2313.08,-81.8059)" style="animation: 9s linear infinite both a0_t;">
                    <g transform="translate(2313.08,87.0272) scale(0.345655,0.259403) translate(-3206.22,-761.079)">
                        <path d="M3194.97,654.377L3193.54,655.211L3103.01,655.211L3103.01,866.559L3103.01,866.559C3103.02,867.737,3103.66,868.822,3104.68,869.41C3118.11,877.143,3154.93,898.348,3167.83,905.776C3170.64,907.391,3174.1,907.381,3176.89,905.749C3197.9,893.488,3285.87,842.142,3307.78,829.352C3308.79,828.763,3309.41,827.69,3309.43,826.526L3309.43,826.526L3309.43,615.178L3194.97,615.178L3194.97,654.377Z" fill="url(#Gradient-0)" transform="translate(3206.22,761.079) translate(-3206.22,-761.079)"/>
                    </g>
                    <g transform="translate(2313.08,87.0272) scale(0.345655,0.259403) translate(-3206.22,-761.079)">
                        <path d="M3309.43,615.178L3103.01,655.211L3103.01,866.559L3103.01,866.559C3103.02,867.737,3103.66,868.822,3104.68,869.41C3118.11,877.143,3154.93,898.348,3167.83,905.776C3170.64,907.391,3174.1,907.381,3176.89,905.749C3197.9,893.488,3285.87,842.142,3307.78,829.352C3308.79,828.763,3309.41,827.69,3309.43,826.526L3309.43,826.526L3309.43,615.178Z" fill="url(#Gradient-1)" transform="translate(3206.22,761.079) translate(-3206.22,-761.079)"/>
                    </g>
                    <g transform="translate(2313.08,87.038) scale(0.599468,0.599468) translate(-1853.1,-253.483)">
                        <g transform="translate(1853.1,210.391) scale(0.576603,0.432721) translate(-1916.9,-463.918)">
                            <path d="M2020.11,423.391L2020.11,424.65C2020.14,425.564,2019.51,426.279,2018.72,426.74C1996.81,439.531,1908.82,490.888,1887.81,503.149C1884.87,504.867,1881.23,504.878,1878.28,503.177C1865.38,495.749,1828.49,474.508,1815.06,466.775C1814.63,466.529,1813.87,466.046,1813.69,464.796L1813.69,463.451C1813.76,464.388,1814.29,465.237,1815.11,465.71C1815.11,465.71,1878.75,502.354,1878.75,502.354C1881.41,503.884,1884.68,503.875,1887.33,502.329C1887.33,502.329,2018.7,425.649,2018.7,425.649C2019.52,425.173,2020.04,424.325,2020.11,423.391Z" fill="url(#Gradient-2)" transform="translate(1916.9,463.918) translate(-1916.9,-463.918)"/>
                        </g>
                        <g transform="translate(1853.1,213.082) scale(0.576603,0.432721) translate(-1916.9,-463.918)">
                            <path d="M2020.11,423.391L2020.11,424.65C2020.14,425.564,2019.51,426.279,2018.72,426.74C1996.81,439.531,1908.82,490.888,1887.81,503.149C1884.87,504.867,1881.23,504.878,1878.28,503.177C1865.38,495.749,1828.49,474.508,1815.06,466.775C1814.63,466.529,1813.87,466.046,1813.69,464.796L1813.69,463.451C1813.76,464.388,1814.29,465.237,1815.11,465.71C1815.11,465.71,1878.75,502.354,1878.75,502.354C1881.41,503.884,1884.68,503.875,1887.33,502.329C1887.33,502.329,2018.7,425.649,2018.7,425.649C2019.52,425.173,2020.04,424.325,2020.11,423.391Z" fill="url(#Gradient-3)" transform="translate(1916.9,463.918) translate(-1916.9,-463.918)"/>
                        </g>
                        <g transform="translate(1853.1,215.773) scale(0.576603,0.432721) translate(-1916.9,-463.918)">
                            <path d="M2020.11,423.391L2020.11,424.65C2020.14,425.564,2019.51,426.279,2018.72,426.74C1996.81,439.531,1908.82,490.888,1887.81,503.149C1884.87,504.867,1881.23,504.878,1878.28,503.177C1865.38,495.749,1828.49,474.508,1815.06,466.775C1814.63,466.529,1813.87,466.046,1813.69,464.796L1813.69,463.451C1813.76,464.388,1814.29,465.237,1815.11,465.71C1815.11,465.71,1878.75,502.354,1878.75,502.354C1881.41,503.884,1884.68,503.875,1887.33,502.329C1887.33,502.329,2018.7,425.649,2018.7,425.649C2019.52,425.173,2020.04,424.325,2020.11,423.391Z" fill="url(#Gradient-4)" transform="translate(1916.9,463.918) translate(-1916.9,-463.918)"/>
                        </g>
                        <g transform="translate(1853.1,218.464) scale(0.576603,0.432721) translate(-1916.9,-463.918)">
                            <path d="M2020.11,423.391L2020.11,424.65C2020.14,425.564,2019.51,426.279,2018.72,426.74C1996.81,439.531,1908.82,490.888,1887.81,503.149C1884.87,504.867,1881.23,504.878,1878.28,503.177C1865.38,495.749,1828.49,474.508,1815.06,466.775C1814.63,466.529,1813.87,466.046,1813.69,464.796L1813.69,463.451C1813.76,464.388,1814.29,465.237,1815.11,465.71C1815.11,465.71,1878.75,502.354,1878.75,502.354C1881.41,503.884,1884.68,503.875,1887.33,502.329C1887.33,502.329,2018.7,425.649,2018.7,425.649C2019.52,425.173,2020.04,424.325,2020.11,423.391Z" fill="url(#Gradient-5)" transform="translate(1916.9,463.918) translate(-1916.9,-463.918)"/>
                        </g>
                        <g transform="translate(1853.1,221.156) scale(0.576603,0.432721) translate(-1916.9,-463.918)">
                            <path d="M2020.11,423.391L2020.11,424.65C2020.14,425.564,2019.51,426.279,2018.72,426.74C1996.81,439.531,1908.82,490.888,1887.81,503.149C1884.87,504.867,1881.23,504.878,1878.28,503.177C1865.38,495.749,1828.49,474.508,1815.06,466.775C1814.63,466.529,1813.87,466.046,1813.69,464.796L1813.69,463.451C1813.76,464.388,1814.29,465.237,1815.11,465.71C1815.11,465.71,1878.75,502.354,1878.75,502.354C1881.41,503.884,1884.68,503.875,1887.33,502.329C1887.33,502.329,2018.7,425.649,2018.7,425.649C2019.52,425.173,2020.04,424.325,2020.11,423.391Z" fill="url(#Gradient-6)" transform="translate(1916.9,463.918) translate(-1916.9,-463.918)"/>
                        </g>
                        <g transform="translate(1853.1,223.847) scale(0.576603,0.432721) translate(-1916.9,-463.918)">
                            <path d="M2020.11,423.391L2020.11,424.65C2020.14,425.564,2019.51,426.279,2018.72,426.74C1996.81,439.531,1908.82,490.888,1887.81,503.149C1884.87,504.867,1881.23,504.878,1878.28,503.177C1865.38,495.749,1828.49,474.508,1815.06,466.775C1814.63,466.529,1813.87,466.046,1813.69,464.796L1813.69,463.451C1813.76,464.388,1814.29,465.237,1815.11,465.71C1815.11,465.71,1878.75,502.354,1878.75,502.354C1881.41,503.884,1884.68,503.875,1887.33,502.329C1887.33,502.329,2018.7,425.649,2018.7,425.649C2019.52,425.173,2020.04,424.325,2020.11,423.391Z" fill="url(#Gradient-7)" transform="translate(1916.9,463.918) translate(-1916.9,-463.918)"/>
                        </g>
                        <g transform="translate(1853.1,226.538) scale(0.576603,0.432721) translate(-1916.9,-463.918)">
                            <path d="M2020.11,423.391L2020.11,424.65C2020.14,425.564,2019.51,426.279,2018.72,426.74C1996.81,439.531,1908.82,490.888,1887.81,503.149C1884.87,504.867,1881.23,504.878,1878.28,503.177C1865.38,495.749,1828.49,474.508,1815.06,466.775C1814.63,466.529,1813.87,466.046,1813.69,464.796L1813.69,463.451C1813.76,464.388,1814.29,465.237,1815.11,465.71C1815.11,465.71,1878.75,502.354,1878.75,502.354C1881.41,503.884,1884.68,503.875,1887.33,502.329C1887.33,502.329,2018.7,425.649,2018.7,425.649C2019.52,425.173,2020.04,424.325,2020.11,423.391Z" fill="url(#Gradient-8)" transform="translate(1916.9,463.918) translate(-1916.9,-463.918)"/>
                        </g>
                        <g transform="translate(1853.1,229.229) scale(0.576603,0.432721) translate(-1916.9,-463.918)">
                            <path d="M2020.11,423.391L2020.11,424.65C2020.14,425.564,2019.51,426.279,2018.72,426.74C1996.81,439.531,1908.82,490.888,1887.81,503.149C1884.87,504.867,1881.23,504.878,1878.28,503.177C1865.38,495.749,1828.49,474.508,1815.06,466.775C1814.63,466.529,1813.87,466.046,1813.69,464.796L1813.69,463.451C1813.76,464.388,1814.29,465.237,1815.11,465.71C1815.11,465.71,1878.75,502.354,1878.75,502.354C1881.41,503.884,1884.68,503.875,1887.33,502.329C1887.33,502.329,2018.7,425.649,2018.7,425.649C2019.52,425.173,2020.04,424.325,2020.11,423.391Z" fill="url(#Gradient-9)" transform="translate(1916.9,463.918) translate(-1916.9,-463.918)"/>
                        </g>
                        <g transform="translate(1853.1,231.92) scale(0.576603,0.432721) translate(-1916.9,-463.918)">
                            <path d="M2020.11,423.391L2020.11,424.65C2020.14,425.564,2019.51,426.279,2018.72,426.74C1996.81,439.531,1908.82,490.888,1887.81,503.149C1884.87,504.867,1881.23,504.878,1878.28,503.177C1865.38,495.749,1828.49,474.508,1815.06,466.775C1814.63,466.529,1813.87,466.046,1813.69,464.796L1813.69,463.451C1813.76,464.388,1814.29,465.237,1815.11,465.71C1815.11,465.71,1878.75,502.354,1878.75,502.354C1881.41,503.884,1884.68,503.875,1887.33,502.329C1887.33,502.329,2018.7,425.649,2018.7,425.649C2019.52,425.173,2020.04,424.325,2020.11,423.391Z" fill="url(#Gradient-10)" transform="translate(1916.9,463.918) translate(-1916.9,-463.918)"/>
                        </g>
                        <g transform="translate(1853.1,234.644) scale(0.576603,0.432721) translate(-1916.9,-463.918)">
                            <path d="M2020.11,423.391L2020.11,424.65C2020.14,425.564,2019.51,426.279,2018.72,426.74C1996.81,439.531,1908.82,490.888,1887.81,503.149C1884.87,504.867,1881.23,504.878,1878.28,503.177C1865.38,495.749,1828.49,474.508,1815.06,466.775C1814.63,466.529,1813.87,466.046,1813.69,464.796L1813.69,463.451C1813.76,464.388,1814.29,465.237,1815.11,465.71C1815.11,465.71,1878.75,502.354,1878.75,502.354C1881.41,503.884,1884.68,503.875,1887.33,502.329C1887.33,502.329,2018.7,425.649,2018.7,425.649C2019.52,425.173,2020.04,424.325,2020.11,423.391Z" fill="url(#Gradient-11)" transform="translate(1916.9,463.918) translate(-1916.9,-463.918)"/>
                        </g>
                        <g transform="translate(1853.1,237.336) scale(0.576603,0.432721) translate(-1916.9,-463.918)">
                            <path d="M2020.11,423.391L2020.11,424.65C2020.14,425.564,2019.51,426.279,2018.72,426.74C1996.81,439.531,1908.82,490.888,1887.81,503.149C1884.87,504.867,1881.23,504.878,1878.28,503.177C1865.38,495.749,1828.49,474.508,1815.06,466.775C1814.63,466.529,1813.87,466.046,1813.69,464.796L1813.69,463.451C1813.76,464.388,1814.29,465.237,1815.11,465.71C1815.11,465.71,1878.75,502.354,1878.75,502.354C1881.41,503.884,1884.68,503.875,1887.33,502.329C1887.33,502.329,2018.7,425.649,2018.7,425.649C2019.52,425.173,2020.04,424.325,2020.11,423.391Z" fill="url(#Gradient-12)" transform="translate(1916.9,463.918) translate(-1916.9,-463.918)"/>
                        </g>
                        <g transform="translate(1853.1,240.027) scale(0.576603,0.432721) translate(-1916.9,-463.918)">
                            <path d="M2020.11,423.391L2020.11,424.65C2020.14,425.564,2019.51,426.279,2018.72,426.74C1996.81,439.531,1908.82,490.888,1887.81,503.149C1884.87,504.867,1881.23,504.878,1878.28,503.177C1865.38,495.749,1828.49,474.508,1815.06,466.775C1814.63,466.529,1813.87,466.046,1813.69,464.796L1813.69,463.451C1813.76,464.388,1814.29,465.237,1815.11,465.71C1815.11,465.71,1878.75,502.354,1878.75,502.354C1881.41,503.884,1884.68,503.875,1887.33,502.329C1887.33,502.329,2018.7,425.649,2018.7,425.649C2019.52,425.173,2020.04,424.325,2020.11,423.391Z" fill="url(#Gradient-13)" transform="translate(1916.9,463.918) translate(-1916.9,-463.918)"/>
                        </g>
                        <g transform="translate(1853.1,242.718) scale(0.576603,0.432721) translate(-1916.9,-463.918)">
                            <path d="M2020.11,423.391L2020.11,424.65C2020.14,425.564,2019.51,426.279,2018.72,426.74C1996.81,439.531,1908.82,490.888,1887.81,503.149C1884.87,504.867,1881.23,504.878,1878.28,503.177C1865.38,495.749,1828.49,474.508,1815.06,466.775C1814.63,466.529,1813.87,466.046,1813.69,464.796L1813.69,463.451C1813.76,464.388,1814.29,465.237,1815.11,465.71C1815.11,465.71,1878.75,502.354,1878.75,502.354C1881.41,503.884,1884.68,503.875,1887.33,502.329C1887.33,502.329,2018.7,425.649,2018.7,425.649C2019.52,425.173,2020.04,424.325,2020.11,423.391Z" fill="url(#Gradient-14)" transform="translate(1916.9,463.918) translate(-1916.9,-463.918)"/>
                        </g>
                        <g transform="translate(1853.1,245.409) scale(0.576603,0.432721) translate(-1916.9,-463.918)">
                            <path d="M2020.11,423.391L2020.11,424.65C2020.14,425.564,2019.51,426.279,2018.72,426.74C1996.81,439.531,1908.82,490.888,1887.81,503.149C1884.87,504.867,1881.23,504.878,1878.28,503.177C1865.38,495.749,1828.49,474.508,1815.06,466.775C1814.63,466.529,1813.87,466.046,1813.69,464.796L1813.69,463.451C1813.76,464.388,1814.29,465.237,1815.11,465.71C1815.11,465.71,1878.75,502.354,1878.75,502.354C1881.41,503.884,1884.68,503.875,1887.33,502.329C1887.33,502.329,2018.7,425.649,2018.7,425.649C2019.52,425.173,2020.04,424.325,2020.11,423.391Z" fill="url(#Gradient-15)" transform="translate(1916.9,463.918) translate(-1916.9,-463.918)"/>
                        </g>
                        <g transform="translate(1853.1,248.101) scale(0.576603,0.432721) translate(-1916.9,-463.918)">
                            <path d="M2020.11,423.391L2020.11,424.65C2020.14,425.564,2019.51,426.279,2018.72,426.74C1996.81,439.531,1908.82,490.888,1887.81,503.149C1884.87,504.867,1881.23,504.878,1878.28,503.177C1865.38,495.749,1828.49,474.508,1815.06,466.775C1814.63,466.529,1813.87,466.046,1813.69,464.796L1813.69,463.451C1813.76,464.388,1814.29,465.237,1815.11,465.71C1815.11,465.71,1878.75,502.354,1878.75,502.354C1881.41,503.884,1884.68,503.875,1887.33,502.329C1887.33,502.329,2018.7,425.649,2018.7,425.649C2019.52,425.173,2020.04,424.325,2020.11,423.391Z" fill="url(#Gradient-16)" transform="translate(1916.9,463.918) translate(-1916.9,-463.918)"/>
                        </g>
                        <g transform="translate(1853.1,250.792) scale(0.576603,0.432721) translate(-1916.9,-463.918)">
                            <path d="M2020.11,423.391L2020.11,424.65C2020.14,425.564,2019.51,426.279,2018.72,426.74C1996.81,439.531,1908.82,490.888,1887.81,503.149C1884.87,504.867,1881.23,504.878,1878.28,503.177C1865.38,495.749,1828.49,474.508,1815.06,466.775C1814.63,466.529,1813.87,466.046,1813.69,464.796L1813.69,463.451C1813.76,464.388,1814.29,465.237,1815.11,465.71C1815.11,465.71,1878.75,502.354,1878.75,502.354C1881.41,503.884,1884.68,503.875,1887.33,502.329C1887.33,502.329,2018.7,425.649,2018.7,425.649C2019.52,425.173,2020.04,424.325,2020.11,423.391Z" fill="url(#Gradient-17)" transform="translate(1916.9,463.918) translate(-1916.9,-463.918)"/>
                        </g>
                        <g transform="translate(1853.1,253.483) scale(0.576603,0.432721) translate(-1916.9,-463.918)">
                            <path d="M2020.11,423.391L2020.11,424.65C2020.14,425.564,2019.51,426.279,2018.72,426.74C1996.81,439.531,1908.82,490.888,1887.81,503.149C1884.87,504.867,1881.23,504.878,1878.28,503.177C1865.38,495.749,1828.49,474.508,1815.06,466.775C1814.63,466.529,1813.87,466.046,1813.69,464.796L1813.69,463.451C1813.76,464.388,1814.29,465.237,1815.11,465.71C1815.11,465.71,1878.75,502.354,1878.75,502.354C1881.41,503.884,1884.68,503.875,1887.33,502.329C1887.33,502.329,2018.7,425.649,2018.7,425.649C2019.52,425.173,2020.04,424.325,2020.11,423.391Z" fill="url(#Gradient-18)" transform="translate(1916.9,463.918) translate(-1916.9,-463.918)"/>
                        </g>
                        <g transform="translate(1853.1,256.174) scale(0.576603,0.432721) translate(-1916.9,-463.918)">
                            <path d="M2020.11,423.391L2020.11,424.65C2020.14,425.564,2019.51,426.279,2018.72,426.74C1996.81,439.531,1908.82,490.888,1887.81,503.149C1884.87,504.867,1881.23,504.878,1878.28,503.177C1865.38,495.749,1828.49,474.508,1815.06,466.775C1814.63,466.529,1813.87,466.046,1813.69,464.796L1813.69,463.451C1813.76,464.388,1814.29,465.237,1815.11,465.71C1815.11,465.71,1878.75,502.354,1878.75,502.354C1881.41,503.884,1884.68,503.875,1887.33,502.329C1887.33,502.329,2018.7,425.649,2018.7,425.649C2019.52,425.173,2020.04,424.325,2020.11,423.391Z" fill="url(#Gradient-19)" transform="translate(1916.9,463.918) translate(-1916.9,-463.918)"/>
                        </g>
                        <g transform="translate(1853.1,258.865) scale(0.576603,0.432721) translate(-1916.9,-463.918)">
                            <path d="M2020.11,423.391L2020.11,424.65C2020.14,425.564,2019.51,426.279,2018.72,426.74C1996.81,439.531,1908.82,490.888,1887.81,503.149C1884.87,504.867,1881.23,504.878,1878.28,503.177C1865.38,495.749,1828.49,474.508,1815.06,466.775C1814.63,466.529,1813.87,466.046,1813.69,464.796L1813.69,463.451C1813.76,464.388,1814.29,465.237,1815.11,465.71C1815.11,465.71,1878.75,502.354,1878.75,502.354C1881.41,503.884,1884.68,503.875,1887.33,502.329C1887.33,502.329,2018.7,425.649,2018.7,425.649C2019.52,425.173,2020.04,424.325,2020.11,423.391Z" fill="url(#Gradient-20)" transform="translate(1916.9,463.918) translate(-1916.9,-463.918)"/>
                        </g>
                        <g transform="translate(1853.1,261.557) scale(0.576603,0.432721) translate(-1916.9,-463.918)">
                            <path d="M2020.11,423.391L2020.11,424.65C2020.14,425.564,2019.51,426.279,2018.72,426.74C1996.81,439.531,1908.82,490.888,1887.81,503.149C1884.87,504.867,1881.23,504.878,1878.28,503.177C1865.38,495.749,1828.49,474.508,1815.06,466.775C1814.63,466.529,1813.87,466.046,1813.69,464.796L1813.69,463.451C1813.76,464.388,1814.29,465.237,1815.11,465.71C1815.11,465.71,1878.75,502.354,1878.75,502.354C1881.41,503.884,1884.68,503.875,1887.33,502.329C1887.33,502.329,2018.7,425.649,2018.7,425.649C2019.52,425.173,2020.04,424.325,2020.11,423.391Z" fill="url(#Gradient-21)" transform="translate(1916.9,463.918) translate(-1916.9,-463.918)"/>
                        </g>
                        <g transform="translate(1853.1,264.248) scale(0.576603,0.432721) translate(-1916.9,-463.918)">
                            <path d="M2020.11,423.391L2020.11,424.65C2020.14,425.564,2019.51,426.279,2018.72,426.74C1996.81,439.531,1908.82,490.888,1887.81,503.149C1884.87,504.867,1881.23,504.878,1878.28,503.177C1865.38,495.749,1828.49,474.508,1815.06,466.775C1814.63,466.529,1813.87,466.046,1813.69,464.796L1813.69,463.451C1813.76,464.388,1814.29,465.237,1815.11,465.71C1815.11,465.71,1878.75,502.354,1878.75,502.354C1881.41,503.884,1884.68,503.875,1887.33,502.329C1887.33,502.329,2018.7,425.649,2018.7,425.649C2019.52,425.173,2020.04,424.325,2020.11,423.391Z" fill="url(#Gradient-22)" transform="translate(1916.9,463.918) translate(-1916.9,-463.918)"/>
                        </g>
                        <g transform="translate(1853.1,266.939) scale(0.576603,0.432721) translate(-1916.9,-463.918)">
                            <path d="M2020.11,423.391L2020.11,424.65C2020.14,425.564,2019.51,426.279,2018.72,426.74C1996.81,439.531,1908.82,490.888,1887.81,503.149C1884.87,504.867,1881.23,504.878,1878.28,503.177C1865.38,495.749,1828.49,474.508,1815.06,466.775C1814.63,466.529,1813.87,466.046,1813.69,464.796L1813.69,463.451C1813.76,464.388,1814.29,465.237,1815.11,465.71C1815.11,465.71,1878.75,502.354,1878.75,502.354C1881.41,503.884,1884.68,503.875,1887.33,502.329C1887.33,502.329,2018.7,425.649,2018.7,425.649C2019.52,425.173,2020.04,424.325,2020.11,423.391Z" fill="url(#Gradient-23)" transform="translate(1916.9,463.918) translate(-1916.9,-463.918)"/>
                        </g>
                        <g transform="translate(1853.1,269.63) scale(0.576603,0.432721) translate(-1916.9,-463.918)">
                            <path d="M2020.11,423.391L2020.11,424.65C2020.14,425.564,2019.51,426.279,2018.72,426.74C1996.81,439.531,1908.82,490.888,1887.81,503.149C1884.87,504.867,1881.23,504.878,1878.28,503.177C1865.38,495.749,1828.49,474.508,1815.06,466.775C1814.63,466.529,1813.87,466.046,1813.69,464.796L1813.69,463.451C1813.76,464.388,1814.29,465.237,1815.11,465.71C1815.11,465.71,1878.75,502.354,1878.75,502.354C1881.41,503.884,1884.68,503.875,1887.33,502.329C1887.33,502.329,2018.7,425.649,2018.7,425.649C2019.52,425.173,2020.04,424.325,2020.11,423.391Z" fill="url(#Gradient-24)" transform="translate(1916.9,463.918) translate(-1916.9,-463.918)"/>
                        </g>
                        <g transform="translate(1853.1,272.321) scale(0.576603,0.432721) translate(-1916.9,-463.918)">
                            <path d="M2020.11,423.391L2020.11,424.65C2020.14,425.564,2019.51,426.279,2018.72,426.74C1996.81,439.531,1908.82,490.888,1887.81,503.149C1884.87,504.867,1881.23,504.878,1878.28,503.177C1865.38,495.749,1828.49,474.508,1815.06,466.775C1814.63,466.529,1813.87,466.046,1813.69,464.796L1813.69,463.451C1813.76,464.388,1814.29,465.237,1815.11,465.71C1815.11,465.71,1878.75,502.354,1878.75,502.354C1881.41,503.884,1884.68,503.875,1887.33,502.329C1887.33,502.329,2018.7,425.649,2018.7,425.649C2019.52,425.173,2020.04,424.325,2020.11,423.391Z" fill="url(#Gradient-25)" transform="translate(1916.9,463.918) translate(-1916.9,-463.918)"/>
                        </g>
                        <g transform="translate(1853.1,275.013) scale(0.576603,0.432721) translate(-1916.9,-463.918)">
                            <path d="M2020.11,423.391L2020.11,424.65C2020.14,425.564,2019.51,426.279,2018.72,426.74C1996.81,439.531,1908.82,490.888,1887.81,503.149C1884.87,504.867,1881.23,504.878,1878.28,503.177C1865.38,495.749,1828.49,474.508,1815.06,466.775C1814.63,466.529,1813.87,466.046,1813.69,464.796L1813.69,463.451C1813.76,464.388,1814.29,465.237,1815.11,465.71C1815.11,465.71,1878.75,502.354,1878.75,502.354C1881.41,503.884,1884.68,503.875,1887.33,502.329C1887.33,502.329,2018.7,425.649,2018.7,425.649C2019.52,425.173,2020.04,424.325,2020.11,423.391Z" fill="url(#Gradient-26)" transform="translate(1916.9,463.918) translate(-1916.9,-463.918)"/>
                        </g>
                        <g transform="translate(1853.1,277.737) scale(0.576603,0.432721) translate(-1916.9,-463.918)">
                            <path d="M2020.11,423.391L2020.11,424.65C2020.14,425.564,2019.51,426.279,2018.72,426.74C1996.81,439.531,1908.82,490.888,1887.81,503.149C1884.87,504.867,1881.23,504.878,1878.28,503.177C1865.38,495.749,1828.49,474.508,1815.06,466.775C1814.63,466.529,1813.87,466.046,1813.69,464.796L1813.69,463.451C1813.76,464.388,1814.29,465.237,1815.11,465.71C1815.11,465.71,1878.75,502.354,1878.75,502.354C1881.41,503.884,1884.68,503.875,1887.33,502.329C1887.33,502.329,2018.7,425.649,2018.7,425.649C2019.52,425.173,2020.04,424.325,2020.11,423.391Z" fill="url(#Gradient-27)" transform="translate(1916.9,463.918) translate(-1916.9,-463.918)"/>
                        </g>
                        <g transform="translate(1853.1,280.428) scale(0.576603,0.432721) translate(-1916.9,-463.918)">
                            <path d="M2020.11,423.391L2020.11,424.65C2020.14,425.564,2019.51,426.279,2018.72,426.74C1996.81,439.531,1908.82,490.888,1887.81,503.149C1884.87,504.867,1881.23,504.878,1878.28,503.177C1865.38,495.749,1828.49,474.508,1815.06,466.775C1814.63,466.529,1813.87,466.046,1813.69,464.796L1813.69,463.451C1813.76,464.388,1814.29,465.237,1815.11,465.71C1815.11,465.71,1878.75,502.354,1878.75,502.354C1881.41,503.884,1884.68,503.875,1887.33,502.329C1887.33,502.329,2018.7,425.649,2018.7,425.649C2019.52,425.173,2020.04,424.325,2020.11,423.391Z" fill="url(#Gradient-28)" transform="translate(1916.9,463.918) translate(-1916.9,-463.918)"/>
                        </g>
                        <g transform="translate(1853.1,283.119) scale(0.576603,0.432721) translate(-1916.9,-463.918)">
                            <path d="M2020.11,423.391L2020.11,424.65C2020.14,425.564,2019.51,426.279,2018.72,426.74C1996.81,439.531,1908.82,490.888,1887.81,503.149C1884.87,504.867,1881.23,504.878,1878.28,503.177C1865.38,495.749,1828.49,474.508,1815.06,466.775C1814.63,466.529,1813.87,466.046,1813.69,464.796L1813.69,463.451C1813.76,464.388,1814.29,465.237,1815.11,465.71C1815.11,465.71,1878.75,502.354,1878.75,502.354C1881.41,503.884,1884.68,503.875,1887.33,502.329C1887.33,502.329,2018.7,425.649,2018.7,425.649C2019.52,425.173,2020.04,424.325,2020.11,423.391Z" fill="url(#Gradient-29)" transform="translate(1916.9,463.918) translate(-1916.9,-463.918)"/>
                        </g>
                        <g transform="translate(1853.1,285.81) scale(0.576603,0.432721) translate(-1916.9,-463.918)">
                            <path d="M2020.11,423.391L2020.11,424.65C2020.14,425.564,2019.51,426.279,2018.72,426.74C1996.81,439.531,1908.82,490.888,1887.81,503.149C1884.87,504.867,1881.23,504.878,1878.28,503.177C1865.38,495.749,1828.49,474.508,1815.06,466.775C1814.63,466.529,1813.87,466.046,1813.69,464.796L1813.69,463.451C1813.76,464.388,1814.29,465.237,1815.11,465.71C1815.11,465.71,1878.75,502.354,1878.75,502.354C1881.41,503.884,1884.68,503.875,1887.33,502.329C1887.33,502.329,2018.7,425.649,2018.7,425.649C2019.52,425.173,2020.04,424.325,2020.11,423.391Z" fill="url(#Gradient-30)" transform="translate(1916.9,463.918) translate(-1916.9,-463.918)"/>
                        </g>
                        <g transform="translate(1853.1,288.501) scale(0.576603,0.432721) translate(-1916.9,-463.918)">
                            <path d="M2020.11,423.391L2020.11,424.65C2020.14,425.564,2019.51,426.279,2018.72,426.74C1996.81,439.531,1908.82,490.888,1887.81,503.149C1884.87,504.867,1881.23,504.878,1878.28,503.177C1865.38,495.749,1828.49,474.508,1815.06,466.775C1814.63,466.529,1813.87,466.046,1813.69,464.796L1813.69,463.451C1813.76,464.388,1814.29,465.237,1815.11,465.71C1815.11,465.71,1878.75,502.354,1878.75,502.354C1881.41,503.884,1884.68,503.875,1887.33,502.329C1887.33,502.329,2018.7,425.649,2018.7,425.649C2019.52,425.173,2020.04,424.325,2020.11,423.391Z" fill="url(#Gradient-31)" transform="translate(1916.9,463.918) translate(-1916.9,-463.918)"/>
                        </g>
                        <g transform="translate(1853.1,291.193) scale(0.576603,0.432721) translate(-1916.9,-463.918)">
                            <path d="M2020.11,423.391L2020.11,424.65C2020.14,425.564,2019.51,426.279,2018.72,426.74C1996.81,439.531,1908.82,490.888,1887.81,503.149C1884.87,504.867,1881.23,504.878,1878.28,503.177C1865.38,495.749,1828.49,474.508,1815.06,466.775C1814.63,466.529,1813.87,466.046,1813.69,464.796L1813.69,463.451C1813.76,464.388,1814.29,465.237,1815.11,465.71C1815.11,465.71,1878.75,502.354,1878.75,502.354C1881.41,503.884,1884.68,503.875,1887.33,502.329C1887.33,502.329,2018.7,425.649,2018.7,425.649C2019.52,425.173,2020.04,424.325,2020.11,423.391Z" fill="url(#Gradient-32)" transform="translate(1916.9,463.918) translate(-1916.9,-463.918)"/>
                        </g>
                        <g transform="translate(1853.1,293.884) scale(0.576603,0.432721) translate(-1916.9,-463.918)">
                            <path d="M2020.11,423.391L2020.11,424.65C2020.14,425.564,2019.51,426.279,2018.72,426.74C1996.81,439.531,1908.82,490.888,1887.81,503.149C1884.87,504.867,1881.23,504.878,1878.28,503.177C1865.38,495.749,1828.49,474.508,1815.06,466.775C1814.63,466.529,1813.87,466.046,1813.69,464.796L1813.69,463.451C1813.76,464.388,1814.29,465.237,1815.11,465.71C1815.11,465.71,1878.75,502.354,1878.75,502.354C1881.41,503.884,1884.68,503.875,1887.33,502.329C1887.33,502.329,2018.7,425.649,2018.7,425.649C2019.52,425.173,2020.04,424.325,2020.11,423.391Z" fill="url(#Gradient-33)" transform="translate(1916.9,463.918) translate(-1916.9,-463.918)"/>
                        </g>
                        <g transform="translate(1853.1,296.575) scale(0.576603,0.432721) translate(-1916.9,-463.918)">
                            <path d="M2020.11,423.391L2020.11,424.65C2020.14,425.564,2019.51,426.279,2018.72,426.74C1996.81,439.531,1908.82,490.888,1887.81,503.149C1884.87,504.867,1881.23,504.878,1878.28,503.177C1865.38,495.749,1828.49,474.508,1815.06,466.775C1814.63,466.529,1813.87,466.046,1813.69,464.796L1813.69,463.451C1813.76,464.388,1814.29,465.237,1815.11,465.71C1815.11,465.71,1878.75,502.354,1878.75,502.354C1881.41,503.884,1884.68,503.875,1887.33,502.329C1887.33,502.329,2018.7,425.649,2018.7,425.649C2019.52,425.173,2020.04,424.325,2020.11,423.391Z" fill="url(#Gradient-34)" transform="translate(1916.9,463.918) translate(-1916.9,-463.918)"/>
                        </g>
                    </g>
                    <g transform="translate(2313.08,54.426) rotate(23.3708) skewX(-42.974) scale(0.0374836,0.105858) translate(-2213.52,-544.887)">
                        <path d="M2578.52,374.767C2578.52,372.093,2572.18,368.804,2561.87,366.138C2551.57,363.471,2538.86,361.83,2528.52,361.83C2393.62,361.83,2023.68,361.83,1894.09,361.83C1865.91,361.83,1848.52,366.329,1848.52,373.621C1848.52,428.408,1848.52,657.851,1848.52,715.006C1848.52,717.681,1854.87,720.969,1865.17,723.636C1875.48,726.303,1888.18,727.944,1898.52,727.944C2033.42,727.944,2403.36,727.944,2532.95,727.944C2561.14,727.944,2578.52,723.445,2578.52,716.153C2578.52,661.366,2578.52,431.923,2578.52,374.767Z" fill="url(#Gradient-35)" transform="translate(2213.52,544.887) translate(-2213.52,-544.887)"/>
                    </g>
                    <g transform="translate(2313.09,54.2664) rotate(-0.4227) skewX(-0.4227) scale(0.0430684,0.0313809) translate(-2640.77,-2170.14)">
                        <path d="M2933.46,1717.86C2919.75,1709.83,2903.02,1709.79,2889.43,1717.76C2748.03,1800.7,1967.11,2258.77,1860.43,2321.35C1857.95,2322.8,1856.44,2325.51,1856.46,2328.45C1856.48,2331.4,1858.03,2334.12,1860.52,2335.59C1928.21,2375.44,2258.62,2569.97,2347.62,2622.37C2361.33,2630.44,2378.09,2630.5,2391.7,2622.53C2532.51,2540.04,3306.35,2086.73,3420.47,2019.88C3423.34,2018.19,3425.1,2015.04,3425.08,2011.62C3425.06,2008.19,3423.25,2005.03,3420.35,2003.33C3348.21,1961.03,3021.81,1769.66,2933.46,1717.86Z" fill="url(#Gradient-36)" fill-rule="nonzero" transform="translate(2640.77,2170.14) translate(-2640.77,-2170.14)"/>
                    </g>
                    <g transform="translate(2313.13,54.2695) rotate(-0.4227) skewX(-0.4227) scale(0.0430684,0.0313809) translate(-2641.62,-2170.25)">
                        <path d="M3226.55,1951.25C3229.07,1949.35,3230.47,1946.26,3230.27,1943.03C3230.07,1939.81,3228.29,1936.89,3225.55,1935.28C3186.39,1912.19,3072.43,1845.38,3038.32,1825.38C3032.2,1821.79,3024.76,1821.61,3018.54,1824.89C2960.64,1853.4,2874.7,1852.95,2814.16,1824.26C2805.53,1820,2795.48,1820.34,2787.23,1825.16C2693.25,1879.91,2140.95,2205.13,2052.34,2256.89C2049.87,2258.34,2048.31,2260.99,2048.2,2263.92C2048.09,2266.85,2049.44,2269.64,2051.78,2271.33C2100.27,2305.97,2102.18,2355.05,2056.68,2389.03C2054.16,2390.92,2052.76,2394.02,2052.97,2397.24C2053.17,2400.47,2054.94,2403.39,2057.68,2404.99C2096.84,2428.08,2209.02,2495.12,2243.12,2515.12C2249.25,2518.71,2256.69,2518.89,2262.91,2515.61C2320.81,2487.1,2406.75,2487.54,2467.29,2516.24C2475.92,2520.49,2485.97,2520.15,2494.22,2515.33C2588.2,2460.58,3142.29,2135.14,3230.9,2083.38C3233.36,2081.94,3234.92,2079.29,3235.04,2076.36C3235.15,2073.43,3233.8,2070.63,3231.45,2068.94C3182.96,2034.3,3181.06,1985.21,3226.55,1951.25Z" fill="url(#Gradient-37)" fill-rule="nonzero" transform="translate(2641.62,2170.25) translate(-2641.62,-2170.25)"/>
                    </g>
                    <g transform="translate(2300.47,59.428) rotate(-0.4227) skewX(-0.4227) scale(0.0360903,0.0270831) translate(-2294.88,-2346.87)">
                        <path d="M2342.46,2319.08C2315.28,2303.14,2271.94,2302.66,2245.66,2318.01C2219.39,2333.36,2220.12,2358.73,2247.3,2374.66C2274.48,2390.6,2317.82,2391.08,2344.09,2375.73C2370.37,2360.38,2369.64,2335.01,2342.46,2319.08Z" fill="url(#Gradient-38)" fill-rule="nonzero" transform="translate(2294.88,2346.87) translate(-2294.88,-2346.87)"/>
                    </g>
                    <g transform="translate(2326.74,48.2522) rotate(-0.4227) skewX(-0.4227) scale(0.0360903,0.0270831) translate(-2294.88,-2346.87)">
                        <path d="M2342.46,2319.08C2315.28,2303.14,2271.94,2302.66,2245.66,2318.01C2219.39,2333.36,2220.12,2358.73,2247.3,2374.66C2274.48,2390.6,2317.82,2391.08,2344.09,2375.73C2370.37,2360.38,2369.64,2335.01,2342.46,2319.08Z" fill="url(#Gradient-39)" fill-rule="nonzero" transform="translate(2294.88,2346.87) translate(-2294.88,-2346.87)"/>
                    </g>
                    <g transform="translate(2314.09,53.8019) rotate(-0.4227) skewX(-0.4227) scale(0.0390088,0.0292732) translate(-2619.88,-2157.03)">
                        <path d="M2787.36,2059.2C2691.68,2003.1,2539.14,2001.43,2446.64,2055.46C2354.15,2109.48,2356.72,2198.76,2452.4,2254.86C2548.08,2310.95,2700.63,2312.63,2793.12,2258.6C2885.62,2204.57,2883.04,2115.3,2787.36,2059.2Z" fill="url(#Gradient-40)" fill-rule="nonzero" transform="translate(2619.88,2157.03) translate(-2619.88,-2157.03)"/>
                    </g>
                    <g transform="translate(2314.17,53.7923) rotate(-0.4227) skewX(-0.4227) scale(0.0390088,0.0292732) translate(-2622.08,-2156.72)">
                        <path d="M2724.63,2200.86C2730.31,2196.88,2735.14,2192.68,2739.12,2188.27C2744.07,2182.8,2747.12,2177.19,2748.29,2171.42C2749.46,2165.67,2748.29,2159.84,2744.78,2153.93C2741.26,2148.02,2734.66,2142.22,2724.97,2136.54C2716.64,2131.66,2708.22,2128.21,2699.72,2126.21C2691.22,2124.21,2682.55,2123.36,2673.7,2123.65C2664.85,2123.95,2655.65,2125.24,2646.11,2127.53C2636.56,2129.82,2626.41,2132.72,2615.64,2136.22L2605.71,2139.63L2590.56,2144.31C2582.93,2146.57,2576.45,2147.82,2571.11,2148.05C2565.77,2148.29,2560.97,2147.16,2556.72,2144.67C2547.88,2139.49,2548.7,2133.23,2559.19,2125.91C2559.19,2125.91,2563.56,2122.6,2571.03,2119.29C2578.5,2115.99,2582.02,2115.02,2588.16,2113.32C2594.29,2111.63,2600.1,2110.22,2605.58,2109.11C2611.07,2108,2615.77,2107.19,2619.68,2106.7C2620.79,2106.56,2621.78,2106.44,2622.67,2106.35C2623.68,2106.26,2624.56,2105.68,2625.03,2104.79C2625.5,2103.9,2625.49,2102.83,2625,2101.94C2621.97,2096.43,2616.61,2086.72,2613.29,2080.7C2611.54,2077.52,2607.97,2075.77,2604.41,2076.36C2595.04,2077.93,2584.9,2080.03,2573.98,2082.64C2562.69,2085.35,2551.97,2088.94,2541.82,2093.42C2540.41,2094.04,2522.36,2085.63,2514.73,2082.01C2512.55,2081.11,2510.09,2081.27,2508.06,2082.45C2504.84,2084.22,2500.09,2087.01,2496.8,2088.92C2496.02,2089.38,2495.51,2090.2,2495.44,2091.11C2495.37,2092.01,2495.74,2092.91,2496.43,2093.5C2503.22,2097.87,2517.29,2107.45,2516.57,2108.02C2510.91,2112.46,2506.35,2117.1,2502.91,2121.92C2498.89,2127.55,2496.84,2133.28,2496.76,2139.09C2496.68,2144.92,2498.6,2150.71,2502.53,2156.47C2506.46,2162.24,2512.84,2167.71,2521.68,2172.9C2528.48,2176.88,2535.38,2179.82,2542.37,2181.71C2549.36,2183.6,2556.74,2184.56,2564.52,2184.59C2572.29,2184.63,2580.63,2183.79,2589.52,2182.08C2598.41,2180.37,2608.16,2177.91,2618.76,2174.7L2634.17,2169.88L2649.58,2165.35C2657.37,2163.19,2664.23,2161.82,2670.15,2161.25C2676.07,2160.68,2681.23,2161.69,2685.65,2164.28C2694.16,2169.27,2692.33,2175.6,2680.19,2183.3C2680.19,2183.3,2673.65,2187.2,2668.09,2189.77C2662.52,2192.33,2654.16,2195.26,2646.62,2197.38C2639.08,2199.5,2632.03,2201.23,2625.46,2202.58C2618.9,2203.92,2613.2,2204.86,2608.37,2205.4C2606.71,2205.58,2605.24,2205.73,2603.98,2205.83C2602.9,2205.9,2601.93,2206.53,2601.43,2207.48C2600.93,2208.44,2600.97,2209.59,2601.52,2210.53C2605.01,2216.46,2611.14,2226.87,2614.74,2232.96C2616.47,2235.91,2619.8,2237.55,2623.18,2237.13C2636.29,2235.43,2649.34,2232.7,2662.33,2228.95C2675.04,2225.28,2686.85,2220.96,2697.75,2216.01C2699.2,2215.35,2720.48,2225.56,2728.92,2229.67C2731.13,2230.63,2733.64,2230.48,2735.7,2229.28C2738.94,2227.49,2743.69,2224.7,2746.96,2222.8C2747.74,2222.34,2748.25,2221.53,2748.33,2220.62C2748.4,2219.71,2748.04,2218.82,2747.34,2218.22C2739.99,2213.26,2723.56,2201.61,2724.63,2200.86Z" fill="rgb(199,228,255)" fill-rule="nonzero" transform="translate(2622.08,2156.72) translate(-2622.08,-2156.72)"/>
                    </g>
                </g>
                <g transform="translate(523.696,546.839) scale(2.89448,2.36927) translate(-2720.66,-315.935)">
                    <path d="M2776.5,184.825L2776.5,218.063L2776.5,218.063C2776.49,218.761,2776.12,219.404,2775.51,219.757C2762.38,227.424,2709.64,258.205,2697.05,265.555C2695.38,266.533,2693.3,266.539,2691.62,265.571C2683.89,261.118,2661.81,248.406,2653.76,243.771C2653.15,243.418,2652.77,242.768,2652.76,242.061L2652.76,242.061L2652.76,184.825L2614.22,184.825L2614.22,447.044L2827.1,447.044L2827.1,184.825L2776.5,184.825Z" fill="white" transform="translate(2720.66,315.935) translate(-2720.66,-315.935)"/>
                </g>
                <g transform="translate(452.578,653.332) scale(5.01988,5.47527) translate(-2313.08,-81.8059)" style="animation: 9s linear infinite both a1_t;">
                    <g transform="translate(2313.08,87.0272) scale(0.345655,0.259403) translate(-3206.22,-761.079)">
                        <path d="M3194.97,654.377L3193.54,655.211L3103.01,655.211L3103.01,866.559L3103.01,866.559C3103.02,867.737,3103.66,868.822,3104.68,869.41C3118.11,877.143,3154.93,898.348,3167.83,905.776C3170.64,907.391,3174.1,907.381,3176.89,905.749C3197.9,893.488,3285.87,842.142,3307.78,829.352C3308.79,828.763,3309.41,827.69,3309.43,826.526L3309.43,826.526L3309.43,615.178L3194.97,615.178L3194.97,654.377Z" fill="url(#Gradient-0)" transform="translate(3206.22,761.079) translate(-3206.22,-761.079)"/>
                    </g>
                    <g transform="translate(2313.08,87.0272) scale(0.345655,0.259403) translate(-3206.22,-761.079)">
                        <path d="M3309.43,615.178L3103.01,655.211L3103.01,866.559L3103.01,866.559C3103.02,867.737,3103.66,868.822,3104.68,869.41C3118.11,877.143,3154.93,898.348,3167.83,905.776C3170.64,907.391,3174.1,907.381,3176.89,905.749C3197.9,893.488,3285.87,842.142,3307.78,829.352C3308.79,828.763,3309.41,827.69,3309.43,826.526L3309.43,826.526L3309.43,615.178Z" fill="url(#Gradient-1)" transform="translate(3206.22,761.079) translate(-3206.22,-761.079)"/>
                    </g>
                    <g transform="translate(2313.08,78.1551) scale(0.599468,0.599468) translate(-1853.1,-238.665)">
                        <g transform="translate(1853.1,210.391) scale(0.576603,0.432721) translate(-1916.9,-463.918)">
                            <path d="M2020.11,423.391L2020.11,424.65C2020.14,425.564,2019.51,426.279,2018.72,426.74C1996.81,439.531,1908.82,490.888,1887.81,503.149C1884.87,504.867,1881.23,504.878,1878.28,503.177C1865.38,495.749,1828.49,474.508,1815.06,466.775C1814.63,466.529,1813.87,466.046,1813.69,464.796L1813.69,463.451C1813.76,464.388,1814.29,465.237,1815.11,465.71C1815.11,465.71,1878.75,502.354,1878.75,502.354C1881.41,503.884,1884.68,503.875,1887.33,502.329C1887.33,502.329,2018.7,425.649,2018.7,425.649C2019.52,425.173,2020.04,424.325,2020.11,423.391Z" fill="url(#Gradient-2)" transform="translate(1916.9,463.918) translate(-1916.9,-463.918)"/>
                        </g>
                        <g transform="translate(1853.1,213.082) scale(0.576603,0.432721) translate(-1916.9,-463.918)">
                            <path d="M2020.11,423.391L2020.11,424.65C2020.14,425.564,2019.51,426.279,2018.72,426.74C1996.81,439.531,1908.82,490.888,1887.81,503.149C1884.87,504.867,1881.23,504.878,1878.28,503.177C1865.38,495.749,1828.49,474.508,1815.06,466.775C1814.63,466.529,1813.87,466.046,1813.69,464.796L1813.69,463.451C1813.76,464.388,1814.29,465.237,1815.11,465.71C1815.11,465.71,1878.75,502.354,1878.75,502.354C1881.41,503.884,1884.68,503.875,1887.33,502.329C1887.33,502.329,2018.7,425.649,2018.7,425.649C2019.52,425.173,2020.04,424.325,2020.11,423.391Z" fill="url(#Gradient-3)" transform="translate(1916.9,463.918) translate(-1916.9,-463.918)"/>
                        </g>
                        <g transform="translate(1853.1,215.773) scale(0.576603,0.432721) translate(-1916.9,-463.918)">
                            <path d="M2020.11,423.391L2020.11,424.65C2020.14,425.564,2019.51,426.279,2018.72,426.74C1996.81,439.531,1908.82,490.888,1887.81,503.149C1884.87,504.867,1881.23,504.878,1878.28,503.177C1865.38,495.749,1828.49,474.508,1815.06,466.775C1814.63,466.529,1813.87,466.046,1813.69,464.796L1813.69,463.451C1813.76,464.388,1814.29,465.237,1815.11,465.71C1815.11,465.71,1878.75,502.354,1878.75,502.354C1881.41,503.884,1884.68,503.875,1887.33,502.329C1887.33,502.329,2018.7,425.649,2018.7,425.649C2019.52,425.173,2020.04,424.325,2020.11,423.391Z" fill="url(#Gradient-4)" transform="translate(1916.9,463.918) translate(-1916.9,-463.918)"/>
                        </g>
                        <g transform="translate(1853.1,218.464) scale(0.576603,0.432721) translate(-1916.9,-463.918)">
                            <path d="M2020.11,423.391L2020.11,424.65C2020.14,425.564,2019.51,426.279,2018.72,426.74C1996.81,439.531,1908.82,490.888,1887.81,503.149C1884.87,504.867,1881.23,504.878,1878.28,503.177C1865.38,495.749,1828.49,474.508,1815.06,466.775C1814.63,466.529,1813.87,466.046,1813.69,464.796L1813.69,463.451C1813.76,464.388,1814.29,465.237,1815.11,465.71C1815.11,465.71,1878.75,502.354,1878.75,502.354C1881.41,503.884,1884.68,503.875,1887.33,502.329C1887.33,502.329,2018.7,425.649,2018.7,425.649C2019.52,425.173,2020.04,424.325,2020.11,423.391Z" fill="url(#Gradient-5)" transform="translate(1916.9,463.918) translate(-1916.9,-463.918)"/>
                        </g>
                        <g transform="translate(1853.1,221.156) scale(0.576603,0.432721) translate(-1916.9,-463.918)">
                            <path d="M2020.11,423.391L2020.11,424.65C2020.14,425.564,2019.51,426.279,2018.72,426.74C1996.81,439.531,1908.82,490.888,1887.81,503.149C1884.87,504.867,1881.23,504.878,1878.28,503.177C1865.38,495.749,1828.49,474.508,1815.06,466.775C1814.63,466.529,1813.87,466.046,1813.69,464.796L1813.69,463.451C1813.76,464.388,1814.29,465.237,1815.11,465.71C1815.11,465.71,1878.75,502.354,1878.75,502.354C1881.41,503.884,1884.68,503.875,1887.33,502.329C1887.33,502.329,2018.7,425.649,2018.7,425.649C2019.52,425.173,2020.04,424.325,2020.11,423.391Z" fill="url(#Gradient-6)" transform="translate(1916.9,463.918) translate(-1916.9,-463.918)"/>
                        </g>
                        <g transform="translate(1853.1,223.847) scale(0.576603,0.432721) translate(-1916.9,-463.918)">
                            <path d="M2020.11,423.391L2020.11,424.65C2020.14,425.564,2019.51,426.279,2018.72,426.74C1996.81,439.531,1908.82,490.888,1887.81,503.149C1884.87,504.867,1881.23,504.878,1878.28,503.177C1865.38,495.749,1828.49,474.508,1815.06,466.775C1814.63,466.529,1813.87,466.046,1813.69,464.796L1813.69,463.451C1813.76,464.388,1814.29,465.237,1815.11,465.71C1815.11,465.71,1878.75,502.354,1878.75,502.354C1881.41,503.884,1884.68,503.875,1887.33,502.329C1887.33,502.329,2018.7,425.649,2018.7,425.649C2019.52,425.173,2020.04,424.325,2020.11,423.391Z" fill="url(#Gradient-7)" transform="translate(1916.9,463.918) translate(-1916.9,-463.918)"/>
                        </g>
                        <g transform="translate(1853.1,226.538) scale(0.576603,0.432721) translate(-1916.9,-463.918)">
                            <path d="M2020.11,423.391L2020.11,424.65C2020.14,425.564,2019.51,426.279,2018.72,426.74C1996.81,439.531,1908.82,490.888,1887.81,503.149C1884.87,504.867,1881.23,504.878,1878.28,503.177C1865.38,495.749,1828.49,474.508,1815.06,466.775C1814.63,466.529,1813.87,466.046,1813.69,464.796L1813.69,463.451C1813.76,464.388,1814.29,465.237,1815.11,465.71C1815.11,465.71,1878.75,502.354,1878.75,502.354C1881.41,503.884,1884.68,503.875,1887.33,502.329C1887.33,502.329,2018.7,425.649,2018.7,425.649C2019.52,425.173,2020.04,424.325,2020.11,423.391Z" fill="url(#Gradient-8)" transform="translate(1916.9,463.918) translate(-1916.9,-463.918)"/>
                        </g>
                        <g transform="translate(1853.1,229.229) scale(0.576603,0.432721) translate(-1916.9,-463.918)">
                            <path d="M2020.11,423.391L2020.11,424.65C2020.14,425.564,2019.51,426.279,2018.72,426.74C1996.81,439.531,1908.82,490.888,1887.81,503.149C1884.87,504.867,1881.23,504.878,1878.28,503.177C1865.38,495.749,1828.49,474.508,1815.06,466.775C1814.63,466.529,1813.87,466.046,1813.69,464.796L1813.69,463.451C1813.76,464.388,1814.29,465.237,1815.11,465.71C1815.11,465.71,1878.75,502.354,1878.75,502.354C1881.41,503.884,1884.68,503.875,1887.33,502.329C1887.33,502.329,2018.7,425.649,2018.7,425.649C2019.52,425.173,2020.04,424.325,2020.11,423.391Z" fill="url(#Gradient-9)" transform="translate(1916.9,463.918) translate(-1916.9,-463.918)"/>
                        </g>
                        <g transform="translate(1853.1,231.92) scale(0.576603,0.432721) translate(-1916.9,-463.918)">
                            <path d="M2020.11,423.391L2020.11,424.65C2020.14,425.564,2019.51,426.279,2018.72,426.74C1996.81,439.531,1908.82,490.888,1887.81,503.149C1884.87,504.867,1881.23,504.878,1878.28,503.177C1865.38,495.749,1828.49,474.508,1815.06,466.775C1814.63,466.529,1813.87,466.046,1813.69,464.796L1813.69,463.451C1813.76,464.388,1814.29,465.237,1815.11,465.71C1815.11,465.71,1878.75,502.354,1878.75,502.354C1881.41,503.884,1884.68,503.875,1887.33,502.329C1887.33,502.329,2018.7,425.649,2018.7,425.649C2019.52,425.173,2020.04,424.325,2020.11,423.391Z" fill="url(#Gradient-10)" transform="translate(1916.9,463.918) translate(-1916.9,-463.918)"/>
                        </g>
                        <g transform="translate(1853.1,234.644) scale(0.576603,0.432721) translate(-1916.9,-463.918)">
                            <path d="M2020.11,423.391L2020.11,424.65C2020.14,425.564,2019.51,426.279,2018.72,426.74C1996.81,439.531,1908.82,490.888,1887.81,503.149C1884.87,504.867,1881.23,504.878,1878.28,503.177C1865.38,495.749,1828.49,474.508,1815.06,466.775C1814.63,466.529,1813.87,466.046,1813.69,464.796L1813.69,463.451C1813.76,464.388,1814.29,465.237,1815.11,465.71C1815.11,465.71,1878.75,502.354,1878.75,502.354C1881.41,503.884,1884.68,503.875,1887.33,502.329C1887.33,502.329,2018.7,425.649,2018.7,425.649C2019.52,425.173,2020.04,424.325,2020.11,423.391Z" fill="url(#Gradient-11)" transform="translate(1916.9,463.918) translate(-1916.9,-463.918)"/>
                        </g>
                        <g transform="translate(1853.1,237.336) scale(0.576603,0.432721) translate(-1916.9,-463.918)">
                            <path d="M2020.11,423.391L2020.11,424.65C2020.14,425.564,2019.51,426.279,2018.72,426.74C1996.81,439.531,1908.82,490.888,1887.81,503.149C1884.87,504.867,1881.23,504.878,1878.28,503.177C1865.38,495.749,1828.49,474.508,1815.06,466.775C1814.63,466.529,1813.87,466.046,1813.69,464.796L1813.69,463.451C1813.76,464.388,1814.29,465.237,1815.11,465.71C1815.11,465.71,1878.75,502.354,1878.75,502.354C1881.41,503.884,1884.68,503.875,1887.33,502.329C1887.33,502.329,2018.7,425.649,2018.7,425.649C2019.52,425.173,2020.04,424.325,2020.11,423.391Z" fill="url(#Gradient-12)" transform="translate(1916.9,463.918) translate(-1916.9,-463.918)"/>
                        </g>
                        <g transform="translate(1853.1,240.027) scale(0.576603,0.432721) translate(-1916.9,-463.918)">
                            <path d="M2020.11,423.391L2020.11,424.65C2020.14,425.564,2019.51,426.279,2018.72,426.74C1996.81,439.531,1908.82,490.888,1887.81,503.149C1884.87,504.867,1881.23,504.878,1878.28,503.177C1865.38,495.749,1828.49,474.508,1815.06,466.775C1814.63,466.529,1813.87,466.046,1813.69,464.796L1813.69,463.451C1813.76,464.388,1814.29,465.237,1815.11,465.71C1815.11,465.71,1878.75,502.354,1878.75,502.354C1881.41,503.884,1884.68,503.875,1887.33,502.329C1887.33,502.329,2018.7,425.649,2018.7,425.649C2019.52,425.173,2020.04,424.325,2020.11,423.391Z" fill="url(#Gradient-13)" transform="translate(1916.9,463.918) translate(-1916.9,-463.918)"/>
                        </g>
                        <g transform="translate(1853.1,242.718) scale(0.576603,0.432721) translate(-1916.9,-463.918)">
                            <path d="M2020.11,423.391L2020.11,424.65C2020.14,425.564,2019.51,426.279,2018.72,426.74C1996.81,439.531,1908.82,490.888,1887.81,503.149C1884.87,504.867,1881.23,504.878,1878.28,503.177C1865.38,495.749,1828.49,474.508,1815.06,466.775C1814.63,466.529,1813.87,466.046,1813.69,464.796L1813.69,463.451C1813.76,464.388,1814.29,465.237,1815.11,465.71C1815.11,465.71,1878.75,502.354,1878.75,502.354C1881.41,503.884,1884.68,503.875,1887.33,502.329C1887.33,502.329,2018.7,425.649,2018.7,425.649C2019.52,425.173,2020.04,424.325,2020.11,423.391Z" fill="url(#Gradient-14)" transform="translate(1916.9,463.918) translate(-1916.9,-463.918)"/>
                        </g>
                        <g transform="translate(1853.1,245.409) scale(0.576603,0.432721) translate(-1916.9,-463.918)">
                            <path d="M2020.11,423.391L2020.11,424.65C2020.14,425.564,2019.51,426.279,2018.72,426.74C1996.81,439.531,1908.82,490.888,1887.81,503.149C1884.87,504.867,1881.23,504.878,1878.28,503.177C1865.38,495.749,1828.49,474.508,1815.06,466.775C1814.63,466.529,1813.87,466.046,1813.69,464.796L1813.69,463.451C1813.76,464.388,1814.29,465.237,1815.11,465.71C1815.11,465.71,1878.75,502.354,1878.75,502.354C1881.41,503.884,1884.68,503.875,1887.33,502.329C1887.33,502.329,2018.7,425.649,2018.7,425.649C2019.52,425.173,2020.04,424.325,2020.11,423.391Z" fill="url(#Gradient-15)" transform="translate(1916.9,463.918) translate(-1916.9,-463.918)"/>
                        </g>
                        <g transform="translate(1853.1,248.101) scale(0.576603,0.432721) translate(-1916.9,-463.918)">
                            <path d="M2020.11,423.391L2020.11,424.65C2020.14,425.564,2019.51,426.279,2018.72,426.74C1996.81,439.531,1908.82,490.888,1887.81,503.149C1884.87,504.867,1881.23,504.878,1878.28,503.177C1865.38,495.749,1828.49,474.508,1815.06,466.775C1814.63,466.529,1813.87,466.046,1813.69,464.796L1813.69,463.451C1813.76,464.388,1814.29,465.237,1815.11,465.71C1815.11,465.71,1878.75,502.354,1878.75,502.354C1881.41,503.884,1884.68,503.875,1887.33,502.329C1887.33,502.329,2018.7,425.649,2018.7,425.649C2019.52,425.173,2020.04,424.325,2020.11,423.391Z" fill="url(#Gradient-16)" transform="translate(1916.9,463.918) translate(-1916.9,-463.918)"/>
                        </g>
                        <g transform="translate(1853.1,250.792) scale(0.576603,0.432721) translate(-1916.9,-463.918)">
                            <path d="M2020.11,423.391L2020.11,424.65C2020.14,425.564,2019.51,426.279,2018.72,426.74C1996.81,439.531,1908.82,490.888,1887.81,503.149C1884.87,504.867,1881.23,504.878,1878.28,503.177C1865.38,495.749,1828.49,474.508,1815.06,466.775C1814.63,466.529,1813.87,466.046,1813.69,464.796L1813.69,463.451C1813.76,464.388,1814.29,465.237,1815.11,465.71C1815.11,465.71,1878.75,502.354,1878.75,502.354C1881.41,503.884,1884.68,503.875,1887.33,502.329C1887.33,502.329,2018.7,425.649,2018.7,425.649C2019.52,425.173,2020.04,424.325,2020.11,423.391Z" fill="url(#Gradient-17)" transform="translate(1916.9,463.918) translate(-1916.9,-463.918)"/>
                        </g>
                        <g transform="translate(1853.1,253.483) scale(0.576603,0.432721) translate(-1916.9,-463.918)">
                            <path d="M2020.11,423.391L2020.11,424.65C2020.14,425.564,2019.51,426.279,2018.72,426.74C1996.81,439.531,1908.82,490.888,1887.81,503.149C1884.87,504.867,1881.23,504.878,1878.28,503.177C1865.38,495.749,1828.49,474.508,1815.06,466.775C1814.63,466.529,1813.87,466.046,1813.69,464.796L1813.69,463.451C1813.76,464.388,1814.29,465.237,1815.11,465.71C1815.11,465.71,1878.75,502.354,1878.75,502.354C1881.41,503.884,1884.68,503.875,1887.33,502.329C1887.33,502.329,2018.7,425.649,2018.7,425.649C2019.52,425.173,2020.04,424.325,2020.11,423.391Z" fill="url(#Gradient-18)" transform="translate(1916.9,463.918) translate(-1916.9,-463.918)"/>
                        </g>
                        <g transform="translate(1853.1,256.174) scale(0.576603,0.432721) translate(-1916.9,-463.918)">
                            <path d="M2020.11,423.391L2020.11,424.65C2020.14,425.564,2019.51,426.279,2018.72,426.74C1996.81,439.531,1908.82,490.888,1887.81,503.149C1884.87,504.867,1881.23,504.878,1878.28,503.177C1865.38,495.749,1828.49,474.508,1815.06,466.775C1814.63,466.529,1813.87,466.046,1813.69,464.796L1813.69,463.451C1813.76,464.388,1814.29,465.237,1815.11,465.71C1815.11,465.71,1878.75,502.354,1878.75,502.354C1881.41,503.884,1884.68,503.875,1887.33,502.329C1887.33,502.329,2018.7,425.649,2018.7,425.649C2019.52,425.173,2020.04,424.325,2020.11,423.391Z" fill="url(#Gradient-19)" transform="translate(1916.9,463.918) translate(-1916.9,-463.918)"/>
                        </g>
                        <g transform="translate(1853.1,258.865) scale(0.576603,0.432721) translate(-1916.9,-463.918)">
                            <path d="M2020.11,423.391L2020.11,424.65C2020.14,425.564,2019.51,426.279,2018.72,426.74C1996.81,439.531,1908.82,490.888,1887.81,503.149C1884.87,504.867,1881.23,504.878,1878.28,503.177C1865.38,495.749,1828.49,474.508,1815.06,466.775C1814.63,466.529,1813.87,466.046,1813.69,464.796L1813.69,463.451C1813.76,464.388,1814.29,465.237,1815.11,465.71C1815.11,465.71,1878.75,502.354,1878.75,502.354C1881.41,503.884,1884.68,503.875,1887.33,502.329C1887.33,502.329,2018.7,425.649,2018.7,425.649C2019.52,425.173,2020.04,424.325,2020.11,423.391Z" fill="url(#Gradient-20)" transform="translate(1916.9,463.918) translate(-1916.9,-463.918)"/>
                        </g>
                        <g transform="translate(1853.1,261.557) scale(0.576603,0.432721) translate(-1916.9,-463.918)">
                            <path d="M2020.11,423.391L2020.11,424.65C2020.14,425.564,2019.51,426.279,2018.72,426.74C1996.81,439.531,1908.82,490.888,1887.81,503.149C1884.87,504.867,1881.23,504.878,1878.28,503.177C1865.38,495.749,1828.49,474.508,1815.06,466.775C1814.63,466.529,1813.87,466.046,1813.69,464.796L1813.69,463.451C1813.76,464.388,1814.29,465.237,1815.11,465.71C1815.11,465.71,1878.75,502.354,1878.75,502.354C1881.41,503.884,1884.68,503.875,1887.33,502.329C1887.33,502.329,2018.7,425.649,2018.7,425.649C2019.52,425.173,2020.04,424.325,2020.11,423.391Z" fill="url(#Gradient-21)" transform="translate(1916.9,463.918) translate(-1916.9,-463.918)"/>
                        </g>
                        <g transform="translate(1853.1,264.248) scale(0.576603,0.432721) translate(-1916.9,-463.918)">
                            <path d="M2020.11,423.391L2020.11,424.65C2020.14,425.564,2019.51,426.279,2018.72,426.74C1996.81,439.531,1908.82,490.888,1887.81,503.149C1884.87,504.867,1881.23,504.878,1878.28,503.177C1865.38,495.749,1828.49,474.508,1815.06,466.775C1814.63,466.529,1813.87,466.046,1813.69,464.796L1813.69,463.451C1813.76,464.388,1814.29,465.237,1815.11,465.71C1815.11,465.71,1878.75,502.354,1878.75,502.354C1881.41,503.884,1884.68,503.875,1887.33,502.329C1887.33,502.329,2018.7,425.649,2018.7,425.649C2019.52,425.173,2020.04,424.325,2020.11,423.391Z" fill="url(#Gradient-22)" transform="translate(1916.9,463.918) translate(-1916.9,-463.918)"/>
                        </g>
                        <g transform="translate(1853.1,266.939) scale(0.576603,0.432721) translate(-1916.9,-463.918)">
                            <path d="M2020.11,423.391L2020.11,424.65C2020.14,425.564,2019.51,426.279,2018.72,426.74C1996.81,439.531,1908.82,490.888,1887.81,503.149C1884.87,504.867,1881.23,504.878,1878.28,503.177C1865.38,495.749,1828.49,474.508,1815.06,466.775C1814.63,466.529,1813.87,466.046,1813.69,464.796L1813.69,463.451C1813.76,464.388,1814.29,465.237,1815.11,465.71C1815.11,465.71,1878.75,502.354,1878.75,502.354C1881.41,503.884,1884.68,503.875,1887.33,502.329C1887.33,502.329,2018.7,425.649,2018.7,425.649C2019.52,425.173,2020.04,424.325,2020.11,423.391Z" fill="url(#Gradient-23)" transform="translate(1916.9,463.918) translate(-1916.9,-463.918)"/>
                        </g>
                    </g>
                    <g transform="translate(2313.08,54.426) rotate(23.3708) skewX(-42.974) scale(0.0374836,0.105858) translate(-2213.52,-544.887)">
                        <path d="M2578.52,374.767C2578.52,372.093,2572.18,368.804,2561.87,366.138C2551.57,363.471,2538.86,361.83,2528.52,361.83C2393.62,361.83,2023.68,361.83,1894.09,361.83C1865.91,361.83,1848.52,366.329,1848.52,373.621C1848.52,428.408,1848.52,657.851,1848.52,715.006C1848.52,717.681,1854.87,720.969,1865.17,723.636C1875.48,726.303,1888.18,727.944,1898.52,727.944C2033.42,727.944,2403.36,727.944,2532.95,727.944C2561.14,727.944,2578.52,723.445,2578.52,716.153C2578.52,661.366,2578.52,431.923,2578.52,374.767Z" fill="url(#Gradient-35)" transform="translate(2213.52,544.887) translate(-2213.52,-544.887)"/>
                    </g>
                    <g transform="translate(2313.09,54.2664) rotate(-0.4227) skewX(-0.4227) scale(0.0430684,0.0313809) translate(-2640.77,-2170.14)">
                        <path d="M2933.46,1717.86C2919.75,1709.83,2903.02,1709.79,2889.43,1717.76C2748.03,1800.7,1967.11,2258.77,1860.43,2321.35C1857.95,2322.8,1856.44,2325.51,1856.46,2328.45C1856.48,2331.4,1858.03,2334.12,1860.52,2335.59C1928.21,2375.44,2258.62,2569.97,2347.62,2622.37C2361.33,2630.44,2378.09,2630.5,2391.7,2622.53C2532.51,2540.04,3306.35,2086.73,3420.47,2019.88C3423.34,2018.19,3425.1,2015.04,3425.08,2011.62C3425.06,2008.19,3423.25,2005.03,3420.35,2003.33C3348.21,1961.03,3021.81,1769.66,2933.46,1717.86Z" fill="url(#Gradient-36)" fill-rule="nonzero" transform="translate(2640.77,2170.14) translate(-2640.77,-2170.14)"/>
                    </g>
                    <g transform="translate(2313.13,54.2695) rotate(-0.4227) skewX(-0.4227) scale(0.0430684,0.0313809) translate(-2641.62,-2170.25)">
                        <path d="M3226.55,1951.25C3229.07,1949.35,3230.47,1946.26,3230.27,1943.03C3230.07,1939.81,3228.29,1936.89,3225.55,1935.28C3186.39,1912.19,3072.43,1845.38,3038.32,1825.38C3032.2,1821.79,3024.76,1821.61,3018.54,1824.89C2960.64,1853.4,2874.7,1852.95,2814.16,1824.26C2805.53,1820,2795.48,1820.34,2787.23,1825.16C2693.25,1879.91,2140.95,2205.13,2052.34,2256.89C2049.87,2258.34,2048.31,2260.99,2048.2,2263.92C2048.09,2266.85,2049.44,2269.64,2051.78,2271.33C2100.27,2305.97,2102.18,2355.05,2056.68,2389.03C2054.16,2390.92,2052.76,2394.02,2052.97,2397.24C2053.17,2400.47,2054.94,2403.39,2057.68,2404.99C2096.84,2428.08,2209.02,2495.12,2243.12,2515.12C2249.25,2518.71,2256.69,2518.89,2262.91,2515.61C2320.81,2487.1,2406.75,2487.54,2467.29,2516.24C2475.92,2520.49,2485.97,2520.15,2494.22,2515.33C2588.2,2460.58,3142.29,2135.14,3230.9,2083.38C3233.36,2081.94,3234.92,2079.29,3235.04,2076.36C3235.15,2073.43,3233.8,2070.63,3231.45,2068.94C3182.96,2034.3,3181.06,1985.21,3226.55,1951.25Z" fill="url(#Gradient-37)" fill-rule="nonzero" transform="translate(2641.62,2170.25) translate(-2641.62,-2170.25)"/>
                    </g>
                    <g transform="translate(2300.47,59.428) rotate(-0.4227) skewX(-0.4227) scale(0.0360903,0.0270831) translate(-2294.88,-2346.87)">
                        <path d="M2342.46,2319.08C2315.28,2303.14,2271.94,2302.66,2245.66,2318.01C2219.39,2333.36,2220.12,2358.73,2247.3,2374.66C2274.48,2390.6,2317.82,2391.08,2344.09,2375.73C2370.37,2360.38,2369.64,2335.01,2342.46,2319.08Z" fill="url(#Gradient-38)" fill-rule="nonzero" transform="translate(2294.88,2346.87) translate(-2294.88,-2346.87)"/>
                    </g>
                    <g transform="translate(2326.74,48.2522) rotate(-0.4227) skewX(-0.4227) scale(0.0360903,0.0270831) translate(-2294.88,-2346.87)">
                        <path d="M2342.46,2319.08C2315.28,2303.14,2271.94,2302.66,2245.66,2318.01C2219.39,2333.36,2220.12,2358.73,2247.3,2374.66C2274.48,2390.6,2317.82,2391.08,2344.09,2375.73C2370.37,2360.38,2369.64,2335.01,2342.46,2319.08Z" fill="url(#Gradient-39)" fill-rule="nonzero" transform="translate(2294.88,2346.87) translate(-2294.88,-2346.87)"/>
                    </g>
                    <g transform="translate(2314.09,53.8019) rotate(-0.4227) skewX(-0.4227) scale(0.0390088,0.0292732) translate(-2619.88,-2157.03)">
                        <path d="M2787.36,2059.2C2691.68,2003.1,2539.14,2001.43,2446.64,2055.46C2354.15,2109.48,2356.72,2198.76,2452.4,2254.86C2548.08,2310.95,2700.63,2312.63,2793.12,2258.6C2885.62,2204.57,2883.04,2115.3,2787.36,2059.2Z" fill="url(#Gradient-40)" fill-rule="nonzero" transform="translate(2619.88,2157.03) translate(-2619.88,-2157.03)"/>
                    </g>
                    <g transform="translate(2314.17,53.7923) rotate(-0.4227) skewX(-0.4227) scale(0.0390088,0.0292732) translate(-2622.08,-2156.72)">
                        <path d="M2724.63,2200.86C2730.31,2196.88,2735.14,2192.68,2739.12,2188.27C2744.07,2182.8,2747.12,2177.19,2748.29,2171.42C2749.46,2165.67,2748.29,2159.84,2744.78,2153.93C2741.26,2148.02,2734.66,2142.22,2724.97,2136.54C2716.64,2131.66,2708.22,2128.21,2699.72,2126.21C2691.22,2124.21,2682.55,2123.36,2673.7,2123.65C2664.85,2123.95,2655.65,2125.24,2646.11,2127.53C2636.56,2129.82,2626.41,2132.72,2615.64,2136.22L2605.71,2139.63L2590.56,2144.31C2582.93,2146.57,2576.45,2147.82,2571.11,2148.05C2565.77,2148.29,2560.97,2147.16,2556.72,2144.67C2547.88,2139.49,2548.7,2133.23,2559.19,2125.91C2559.19,2125.91,2563.56,2122.6,2571.03,2119.29C2578.5,2115.99,2582.02,2115.02,2588.16,2113.32C2594.29,2111.63,2600.1,2110.22,2605.58,2109.11C2611.07,2108,2615.77,2107.19,2619.68,2106.7C2620.79,2106.56,2621.78,2106.44,2622.67,2106.35C2623.68,2106.26,2624.56,2105.68,2625.03,2104.79C2625.5,2103.9,2625.49,2102.83,2625,2101.94C2621.97,2096.43,2616.61,2086.72,2613.29,2080.7C2611.54,2077.52,2607.97,2075.77,2604.41,2076.36C2595.04,2077.93,2584.9,2080.03,2573.98,2082.64C2562.69,2085.35,2551.97,2088.94,2541.82,2093.42C2540.41,2094.04,2522.36,2085.63,2514.73,2082.01C2512.55,2081.11,2510.09,2081.27,2508.06,2082.45C2504.84,2084.22,2500.09,2087.01,2496.8,2088.92C2496.02,2089.38,2495.51,2090.2,2495.44,2091.11C2495.37,2092.01,2495.74,2092.91,2496.43,2093.5C2503.22,2097.87,2517.29,2107.45,2516.57,2108.02C2510.91,2112.46,2506.35,2117.1,2502.91,2121.92C2498.89,2127.55,2496.84,2133.28,2496.76,2139.09C2496.68,2144.92,2498.6,2150.71,2502.53,2156.47C2506.46,2162.24,2512.84,2167.71,2521.68,2172.9C2528.48,2176.88,2535.38,2179.82,2542.37,2181.71C2549.36,2183.6,2556.74,2184.56,2564.52,2184.59C2572.29,2184.63,2580.63,2183.79,2589.52,2182.08C2598.41,2180.37,2608.16,2177.91,2618.76,2174.7L2634.17,2169.88L2649.58,2165.35C2657.37,2163.19,2664.23,2161.82,2670.15,2161.25C2676.07,2160.68,2681.23,2161.69,2685.65,2164.28C2694.16,2169.27,2692.33,2175.6,2680.19,2183.3C2680.19,2183.3,2673.65,2187.2,2668.09,2189.77C2662.52,2192.33,2654.16,2195.26,2646.62,2197.38C2639.08,2199.5,2632.03,2201.23,2625.46,2202.58C2618.9,2203.92,2613.2,2204.86,2608.37,2205.4C2606.71,2205.58,2605.24,2205.73,2603.98,2205.83C2602.9,2205.9,2601.93,2206.53,2601.43,2207.48C2600.93,2208.44,2600.97,2209.59,2601.52,2210.53C2605.01,2216.46,2611.14,2226.87,2614.74,2232.96C2616.47,2235.91,2619.8,2237.55,2623.18,2237.13C2636.29,2235.43,2649.34,2232.7,2662.33,2228.95C2675.04,2225.28,2686.85,2220.96,2697.75,2216.01C2699.2,2215.35,2720.48,2225.56,2728.92,2229.67C2731.13,2230.63,2733.64,2230.48,2735.7,2229.28C2738.94,2227.49,2743.69,2224.7,2746.96,2222.8C2747.74,2222.34,2748.25,2221.53,2748.33,2220.62C2748.4,2219.71,2748.04,2218.82,2747.34,2218.22C2739.99,2213.26,2723.56,2201.61,2724.63,2200.86Z" fill="rgb(199,228,255)" fill-rule="nonzero" transform="translate(2622.08,2156.72) translate(-2622.08,-2156.72)"/>
                    </g>
                </g>
                <g transform="translate(470.106,742.773) scale(2.89448,2.36927) translate(-2720.66,-327.261)">
                    <path d="M2776.5,207.478L2776.5,218.063L2776.5,218.063C2776.49,218.761,2776.12,219.404,2775.51,219.757C2762.38,227.424,2709.64,258.205,2697.05,265.555C2695.38,266.533,2693.3,266.539,2691.62,265.571C2683.89,261.118,2661.81,248.406,2653.76,243.771C2653.15,243.418,2652.77,242.768,2652.76,242.061L2652.76,242.061L2652.76,215.152L2614.22,215.152L2614.22,447.044L2827.1,447.044L2827.1,235.679L2776.5,207.478Z" fill="white" transform="translate(2720.66,327.261) translate(-2720.66,-327.261)"/>
                </g>
            </g>
        </g>
    </g>
</svg>
