<svg xmlns="http://www.w3.org/2000/svg" width="168" height="41" viewBox="0 0 168 41">
  <g fill="none">
    <path d="M6.201 28.454c0 1.954-.478 2.432-2.431 2.432h-.825c-1.954 0-2.432-.478-2.432-2.432V17.426c0-5.688 3.213-8.77 9.292-8.77 3.04 0 5.167.954 6.426 2.778 1.303-1.824 3.474-2.779 6.383-2.779 6.383 0 9.205 2.953 9.205 8.771v11.028c0 1.954-.478 2.432-2.432 2.432h-.825c-1.954 0-2.431-.478-2.431-2.432V17.426c0-2.214-.521-3.43-3.517-3.43-3.127 0-3.69 1.216-3.69 3.43v11.028c0 1.954-.478 2.432-2.432 2.432h-.651c-1.954 0-2.432-.478-2.432-2.432V17.426c0-2.214-.521-3.43-3.604-3.43-3.039 0-3.604 1.216-3.604 3.43v11.028m43.419-10.16c0-2.778-.737-4.298-4.645-4.298-3.908 0-4.733 1.52-4.733 4.298v3.474c0 2.779.825 4.298 4.733 4.298 3.908 0 4.646-1.52 4.646-4.298v-3.474Zm-15.066 3.474v-3.474c0-6.209 3.648-9.639 10.42-9.639 7.122 0 10.334 3.213 10.334 9.64v3.473c0 6.209-3.56 9.639-10.333 9.639-7.121 0-10.42-3.214-10.42-9.64Zm29.179 6.686c0 1.954-.478 2.432-2.432 2.432h-.825c-1.954 0-2.431-.478-2.431-2.432V17.426c0-5.688 3.343-8.77 9.899-8.77 6.86 0 9.813 2.952 9.813 8.77v11.028c0 1.954-.478 2.432-2.432 2.432H74.5c-1.953 0-2.43-.478-2.43-2.432V17.426c0-2.214-.565-3.43-4.126-3.43-3.56 0-4.211 1.216-4.211 3.43v11.028M86.18 17.513h8.554v-.652c0-2.17-1.433-3.3-4.299-3.3-2.866 0-4.255 1.13-4.255 3.3v.652Zm13.851 2.214c-.26 1.997-.824 2.388-2.822 2.388h-11.03v.651c0 2.258 1.651 3.3 5.689 3.3 2.258 0 4.43-.434 5.254-.608 1.91-.39 2.301.13 2.301 2.085v.477c0 1.954-.39 2.345-2.301 2.822-.825.217-2.866.565-5.298.565-7.684 0-11.332-2.78-11.332-9.509v-3.473c0-5.602 2.562-9.77 10.117-9.77 6.34 0 9.509 3.213 9.509 9.379 0 .347 0 .912-.087 1.693Zm9.77 4.95c.347 1.65.868 1.824 2.04 1.824.696 0 1.26-.218 1.607-1.824l2.866-13.113c.434-1.91.999-2.388 2.952-2.388h.955c1.954 0 2.346.478 1.91 2.388l-4.428 19.322c-1.562 6.86-5.166 9.205-9.378 9.812-1.997.305-2.475.044-2.91-1.997l-.042-.217c-.435-1.867-.175-2.344 1.65-2.735 2.127-.478 4.08-1.737 4.732-4.516-.39.13-1.172.174-1.78.174-3.908 0-4.863-2.562-5.689-6.079l-3.169-13.764c-.434-1.91-.043-2.388 1.91-2.388h.956c1.954 0 2.518.478 2.952 2.388l2.866 13.113" fill="#FFF"/>
    <path d="M124.551 24.677a3.39 3.39 0 0 1 3.387 3.386 3.39 3.39 0 0 1-3.387 3.387 3.39 3.39 0 0 1-3.386-3.387 3.39 3.39 0 0 1 3.386-3.386" fill="#D83359"/>
    <path d="M146.447 18.164c0-3.952-1.172-6.035-6.209-6.035-4.993 0-6.253 2.083-6.253 6.035v4.038c0 3.908 1.26 6.035 6.253 6.035s6.209-2.127 6.209-6.035v-4.038Zm-15.718-.044c0-5.905 3.083-9.074 9.51-9.074 6.686 0 9.508 3.17 9.508 9.074v4.039c0 5.6-2.476 9.16-8.988 9.16-3.647 0-5.732-1.215-6.774-3.212V38.18c0 1.13-.26 1.39-1.389 1.39h-.477c-1.13 0-1.39-.26-1.39-1.39V18.12Zm22.752-16.238c0-1.13.26-1.39 1.388-1.39h.478c1.129 0 1.39.26 1.39 1.39v22.881c0 2.606.91 3.3 2.214 3.3h.216c1.043 0 1.347.044 1.347 1.13v.303c0 1.086-.217 1.433-1.216 1.607-.347.044-.565.044-.782.044-2.779 0-5.037-1.52-5.037-5.819V1.882" fill="#FFF"/>
  </g>
  Money.pl
</svg>
