<svg width="40" height="27" viewBox="0 0 40 27" xmlns="http://www.w3.org/2000/svg">
  <path d="M25.389 14.197c-.238 6.804-5.828 12.247-12.69 12.247C5.684 26.444 0 20.76 0 13.746 0 6.733 5.685 1.048 12.698 1.048c1.806 0 3.523.376 5.078 1.055a9.075 9.075 0 0 0-.382 1.5 11.133 11.133 0 0 0-4.696-1.032c-6.171 0-11.174 5.003-11.174 11.175 0 6.172 5.003 11.175 11.174 11.175 6.122 0 11.094-4.922 11.174-11.025a9.1 9.1 0 0 0 1.517.301Zm-15.167 1.2h4.953a4.127 4.127 0 0 1 4.127 4.127.825.825 0 0 1-1.646.096l-.01-.242a2.476 2.476 0 0 0-2.326-2.326l-.145-.004h-4.953a2.476 2.476 0 0 0-2.476 2.476.825.825 0 1 1-1.65 0c0-2.22 1.751-4.03 3.947-4.123l.18-.004Zm2.476-8.254a4.127 4.127 0 1 1 0 8.254 4.127 4.127 0 0 1 0-8.254Zm0 1.65a2.476 2.476 0 1 0 0 4.953 2.476 2.476 0 0 0 0-4.952Z" fill="#fff"/>
  <path d="M20.188 6.722a4.999 4.999 0 0 1 .33-2.615l.045-.101a5.43 5.43 0 0 1 .585-.986 4.63 4.63 0 0 1 .437-.488c.249-.246.406-.374.66-.546a4.492 4.492 0 0 1 1.685-.727c.869-.193 1.795-.118 2.657.186.291.102.624-.117.702-.404.087-.319-.107-.608-.399-.71a5.924 5.924 0 0 0-5.004.517 6.07 6.07 0 0 0-2.625 3.388 5.95 5.95 0 0 0-.214 2.486c.038.31.234.578.57.578.279 0 .611-.266.571-.578Zm.34-2.643a.394.394 0 0 0-.01.028l.01-.028ZM29.797.504c-.244 0-.47.078-.658.209-.072.041-.141.09-.205.149L25.55 4.41a1.186 1.186 0 0 0-.07 1.656c.43.474 1.167.507 1.636.071l1.513-1.524v6.057c0 .65.525 1.18 1.167 1.18.641 0 1.166-.53 1.166-1.18V1.685c0-.65-.525-1.18-1.166-1.18ZM23.414 8.09c-.498-.401-.82-.876-.966-1.482-.13-.545-.076-.999.103-1.548.025-.065.027-.073.006-.023a3.156 3.156 0 0 1 .37-.643c-.041.053-.002.005.027-.03v-.001l.024-.03a3.568 3.568 0 0 1 .322-.323l.04-.033c.035-.028.072-.058.022-.02.122-.093.252-.175.387-.248.146-.079.176-.092.288-.132.303-.11.55-.153.836-.163a.585.585 0 0 0 .572-.577c0-.305-.261-.588-.572-.578a3.762 3.762 0 0 0-2.966 1.598c-.67.939-.851 2.224-.484 3.32a3.745 3.745 0 0 0 1.184 1.73c.24.195.572.238.807 0 .2-.2.242-.62 0-.817Zm1.124.477c.453.055.88.01 1.312-.142.293-.103.624.118.702.403.086.316-.108.61-.398.711a3.63 3.63 0 0 1-1.616.184c-.308-.037-.572-.235-.572-.578 0-.286.264-.615.572-.578Zm-1.72 1.79c.883.45 1.965.608 2.968.423.305-.056.615.08.703.403.076.283-.095.655-.399.711a6.018 6.018 0 0 1-3.793-.511 5.985 5.985 0 0 1-2.594-2.54.591.591 0 0 1 .204-.791c.26-.154.636-.067.782.207a4.85 4.85 0 0 0 2.13 2.098Zm14.883-9.25-.022.206-.032.312-.048.46-.058.547c-.01.089-.016.178-.034.265a.78.78 0 0 1-.219.412.823.823 0 0 1-.346.196.846.846 0 0 1-.297.033.584.584 0 0 1-.469-.265.754.754 0 0 1-.107-.251 46.054 46.054 0 0 1-.127-.544l-.123-.546-.136-.601-.045-.204a.238.238 0 0 0-.006-.021c-.01-.027-.026-.038-.052-.036-.023.003-.037.017-.04.045-.005.026-.007.053-.01.08l-.05.495-.041.433-.054.531c-.013.134-.025.267-.04.4a.928.928 0 0 1-.46.752c-.16.1-.337.153-.522.178a1.45 1.45 0 0 1-.324.011.994.994 0 0 1-.538-.199.81.81 0 0 1-.239-.307 2.526 2.526 0 0 1-.118-.335l-.084-.274-.1-.323c-.029-.097-.057-.194-.087-.29l-.106-.345-.107-.35c-.041-.133-.081-.267-.123-.4L32.43.831c-.03-.096-.06-.191-.084-.288a.376.376 0 0 1 .004-.207.399.399 0 0 1 .164-.215c.16-.11.338-.14.528-.11a.877.877 0 0 1 .433.197c.106.088.173.2.207.334l.08.3.112.426.113.431a121.119 121.119 0 0 1 .226.912l.087.375c.008.039.016.077.026.116.01.037.033.052.07.046.029-.004.042-.017.045-.05l.013-.134.035-.375.042-.458.053-.578.041-.45a1.62 1.62 0 0 1 .06-.338.815.815 0 0 1 .141-.269.652.652 0 0 1 .346-.224c.261-.07.516-.046.758.074a.833.833 0 0 1 .374.385 1.3 1.3 0 0 1 .111.345 335.563 335.563 0 0 1 .331 1.668l.012.06a.044.044 0 0 0 .05.033c.015-.003.024-.013.027-.035.004-.024.006-.049.008-.073l.03-.418a63.255 63.255 0 0 1 .068-.784l.041-.417.038-.391c.005-.05.013-.1.03-.148a.331.331 0 0 1 .35-.213c.063.007.126.011.19.017l.194.015.25.02.26.022c.055.005.11.008.165.02.308.062.52.241.637.533.036.087.056.18.07.273.017.108.016.216.01.324-.007.14-.03.278-.08.41a.762.762 0 0 1-.509.477c-.061.02-.125.029-.189.037l-.298.037-.076.009a.15.15 0 0 1-.136-.052.29.29 0 0 1-.066-.129.433.433 0 0 1 .08-.383.183.183 0 0 1 .136-.072l.247-.015c.048-.004.097-.008.145-.016.248-.04.295-.74-.032-.764-.044-.005-.088-.005-.132-.005l-.532-.009H37.7Z" fill="#fff"/>
</svg>
