<svg width="209" height="58" viewBox="0 0 209 58" fill="none" xmlns="http://www.w3.org/2000/svg">
<path d="M77.1303 52.3615V34.6605C77.1303 30.3026 74.8556 26.3466 70.3728 26.3466C65.957 26.3466 63.3478 30.3026 63.3478 34.6605V52.3615H55.1853V19.2395H62.7457L63.3478 23.2625C65.0874 19.9102 68.9009 18.7031 72.0457 18.7031C75.9933 18.7031 79.9405 20.3122 81.8139 24.8717C84.7579 20.178 88.5716 18.8373 92.8535 18.8373C102.22 18.8373 106.837 24.6034 106.837 34.5264V52.3615H98.6743V34.5264C98.6743 30.1684 96.8677 26.4812 92.452 26.4812C88.0362 26.4812 85.2931 30.3026 85.2931 34.6605V52.3615H77.1303Z" fill="#253746"/>
<path d="M120.857 35.599C120.857 41.9017 125.206 45.656 130.626 45.656C143.472 45.656 143.472 25.6087 130.626 25.6087C125.206 25.6087 120.857 29.2965 120.857 35.599ZM140.661 19.1802H148.489V52.3761H140.795L140.394 47.3325C138.52 51.2214 133.369 53.0985 129.689 53.1659C119.921 53.2328 112.695 47.1985 112.695 35.599C112.695 24.2008 120.255 18.2334 129.89 18.3006C134.305 18.3006 138.52 20.379 140.394 23.6643L140.661 19.1802Z" fill="#253746"/>
<path d="M155.957 19.183V52.372H164.119V19.183H155.957ZM164.855 9.61012C164.855 15.9795 155.22 15.9795 155.22 9.61012C155.22 3.24064 164.855 3.24064 164.855 9.61012Z" fill="#253746"/>
<path d="M180.258 35.8027C180.258 41.7699 184.674 45.5245 189.826 45.5245C195.044 45.5245 199.193 41.5688 199.193 35.8027C199.193 29.8354 195.044 26.1475 189.826 26.1475C184.674 26.1475 180.258 30.0365 180.258 35.8027ZM179.723 5.46265V23.801C181.664 20.3814 187.083 18.5043 190.562 18.5043C200.196 18.5043 207.355 24.4043 207.355 35.8027C207.355 46.6645 200.062 53.1013 190.361 53.1013C186.346 53.1013 182.265 51.7603 179.723 47.8043L179.188 52.3636H171.561V5.46265H179.723Z" fill="#253746"/>
<path d="M45.4502 16.3646C41.2111 9.79163 33.84 5.4375 25.4492 5.4375C12.3027 5.4375 1.64453 16.1174 1.64453 29.2918C1.64453 30.9398 1.81118 32.5496 2.12873 34.1033C22.3931 21.3012 38.6372 17.4737 45.4502 16.3646Z" fill="#40C1AC"/>
<path d="M45.9382 17.1421C25.8898 25.8308 12.7456 40.8139 8.55273 46.0833C12.8652 50.4371 18.8408 53.1349 25.4464 53.1349C38.5926 53.1349 49.2512 42.4547 49.2512 29.2806C49.2512 24.8474 48.0402 20.6985 45.9382 17.1421Z" fill="#40C1AC"/>
</svg>
