<svg width="147" height="41" viewBox="0 0 147 41" fill="none" xmlns="http://www.w3.org/2000/svg">
<path d="M54.2495 37.014V24.5013C54.2495 21.4207 52.6495 18.6242 49.4965 18.6242C46.3907 18.6242 44.5556 21.4207 44.5556 24.5013V37.014H38.8145V13.6002H44.1321L44.5556 16.444C45.7791 14.0743 48.4613 13.2211 50.6732 13.2211C53.4497 13.2211 56.226 14.3585 57.5437 17.5816C59.6143 14.2637 62.2967 13.3159 65.3084 13.3159C71.8965 13.3159 75.1435 17.392 75.1435 24.4065V37.014H69.4024V24.4065C69.4024 21.3258 68.1317 18.7194 65.026 18.7194C61.9201 18.7194 59.9907 21.4207 59.9907 24.5013V37.014H54.2495Z" fill="white"/>
<path d="M85.005 25.1648C85.005 29.6202 88.0638 32.2741 91.8756 32.2741C100.911 32.2741 100.911 18.1028 91.8756 18.1028C88.0638 18.1028 85.005 20.7096 85.005 25.1648ZM98.9339 13.5585H104.44V37.0245H99.0282L98.7464 33.4592C97.4281 36.2083 93.8049 37.5352 91.2168 37.5828C84.3463 37.6301 79.2639 33.3645 79.2639 25.1648C79.2639 17.1075 84.5815 12.8892 91.3581 12.9367C94.4636 12.9367 97.4281 14.4059 98.7464 16.7282L98.9339 13.5585Z" fill="white"/>
<path d="M109.692 13.5605V37.0217H115.433V13.5605H109.692ZM115.951 6.79343C115.951 11.296 109.174 11.296 109.174 6.79343C109.174 2.29086 115.951 2.29086 115.951 6.79343Z" fill="white"/>
<path d="M126.785 25.3087C126.785 29.5269 129.891 32.181 133.514 32.181C137.184 32.181 140.102 29.3848 140.102 25.3087C140.102 21.0905 137.184 18.4835 133.514 18.4835C129.891 18.4835 126.785 21.2326 126.785 25.3087ZM126.408 3.86145V16.8248C127.773 14.4075 131.585 13.0805 134.032 13.0805C140.808 13.0805 145.843 17.2513 145.843 25.3087C145.843 32.9869 140.714 37.537 133.891 37.537C131.067 37.537 128.196 36.5891 126.408 33.7926L126.032 37.0156H120.667V3.86145H126.408Z" fill="white"/>
<path d="M31.9674 11.5681C28.9859 6.92167 23.8014 3.84375 17.8997 3.84375C8.65316 3.84375 1.15674 11.3933 1.15674 20.7063C1.15674 21.8713 1.27395 23.0092 1.4973 24.1075C15.7502 15.0577 27.1755 12.3521 31.9674 11.5681Z" fill="#40C1AC"/>
<path d="M32.3104 12.1177C18.2094 18.2597 8.96442 28.8512 6.01538 32.5761C9.04855 35.6538 13.2515 37.5609 17.8975 37.5609C27.1439 37.5609 34.6406 30.0111 34.6406 20.6983C34.6406 17.5645 33.7889 14.6317 32.3104 12.1177Z" fill="#40C1AC"/>
</svg>
