<svg width="400" height="211" viewBox="0 0 400 211" fill="none" xmlns="http://www.w3.org/2000/svg">
<g clip-path="url(#clip0)">
<path d="M64.4088 69.3589C59.906 69.3589 56.4883 67.8127 54.1555 64.734V68.5451H45.3398V24.8059H54.1555V41.1759C56.6103 38.0972 60.0281 36.5511 64.4088 36.5511C68.6539 36.5511 72.153 38.1379 74.9062 41.298C77.7001 44.3767 79.097 48.2555 79.097 52.9211C79.097 57.5866 77.7001 61.5061 74.9062 64.6662C72.153 67.7992 68.6539 69.3589 64.4088 69.3589ZM61.9133 61.6689C64.4088 61.6689 66.4296 60.8416 67.9757 59.1734C69.5625 57.4645 70.3492 55.3894 70.3492 52.9211C70.3492 50.5069 69.5625 48.4454 67.9757 46.7365C66.4296 45.0683 64.4088 44.241 61.9133 44.241C60.2451 44.241 58.7261 44.6615 57.3563 45.5159C55.9864 46.3704 54.915 47.4825 54.1691 48.8523V56.9763C54.915 58.3461 55.9864 59.4718 57.3563 60.3533C58.7261 61.2349 60.2451 61.6689 61.9133 61.6689Z" fill="#2D8DCA"/>
<path d="M93.8929 69.3589C91.3161 69.3589 89.2817 68.6672 87.8034 67.2702C86.325 65.8733 85.5791 63.7033 85.5791 60.7466V24.8059H94.3948V58.4275C94.3948 60.5161 95.3306 61.5468 97.2022 61.5468C98.0702 61.5468 98.8297 61.357 99.4536 60.9908V68.2332C97.9617 68.9791 96.1036 69.3589 93.8929 69.3589Z" fill="#2D8DCA"/>
<path d="M126.701 57.2339V37.3648H135.517V68.5451H126.701V64.8018C123.907 67.8398 120.435 69.3588 116.272 69.3588C112.691 69.3588 109.897 68.2196 107.904 65.9546C105.91 63.6897 104.906 60.5296 104.906 56.488V37.3648H113.722V54.6706C113.722 56.922 114.278 58.5902 115.377 59.6752C116.475 60.7602 117.913 61.3027 119.662 61.3027C120.991 61.3027 122.321 60.9229 123.636 60.1499C124.925 59.3768 125.955 58.4003 126.701 57.2339Z" fill="#2D8DCA"/>
<path d="M159.387 69.3588C154.518 69.3588 150.408 67.8534 147.072 64.8561C143.736 61.8587 142.067 57.8849 142.067 52.921C142.067 48.2962 143.573 44.4173 146.57 41.2979C149.567 38.1379 153.487 36.5511 158.315 36.5511C162.818 36.5511 166.412 38.1514 169.125 41.3658C171.837 44.5801 173.18 48.4725 173.18 53.0567V55.3623H150.815C151.276 57.4509 152.429 59.0513 154.287 60.177C156.145 61.3027 158.464 61.8588 161.258 61.8588C164.717 61.8588 168.053 60.9501 171.254 59.1056V66.1716C168.46 68.301 164.5 69.3588 159.387 69.3588ZM150.815 49.7338H164.5C164.418 47.9436 163.781 46.4517 162.588 45.2718C161.394 44.0783 159.848 43.4951 157.936 43.4951C155.983 43.4951 154.355 44.0647 153.067 45.2175C151.778 46.3568 151.032 47.8622 150.815 49.7338Z" fill="#2D8DCA"/>
<path d="M177.873 52.921C177.873 48.2962 179.501 44.4173 182.742 41.2979C185.956 38.1379 190.093 36.5511 195.179 36.5511C200.265 36.5511 204.401 38.1379 207.616 41.2979C210.871 44.458 212.485 48.3369 212.485 52.921C212.485 57.5866 210.857 61.5061 207.616 64.6662C204.361 67.7856 200.224 69.3588 195.179 69.3588C190.134 69.3588 185.997 67.7991 182.742 64.6662C179.501 61.5061 177.873 57.5866 177.873 52.921ZM186.567 52.921C186.567 55.4165 187.38 57.5052 189.008 59.1734C190.635 60.8416 192.697 61.6689 195.192 61.6689C197.688 61.6689 199.749 60.8416 201.377 59.1734C203.004 57.4645 203.818 55.3894 203.818 52.921C203.818 50.4255 203.004 48.364 201.377 46.7365C199.749 45.0683 197.688 44.241 195.192 44.241C192.697 44.241 190.635 45.0683 189.008 46.7365C187.38 48.364 186.567 50.4255 186.567 52.921Z" fill="#255AA3"/>
<path d="M233.859 69.3588C229.234 69.3588 225.26 67.8534 221.924 64.8561C218.587 61.7774 216.919 57.7764 216.919 52.8532C216.919 47.9436 218.587 43.9969 221.924 41.0402C225.301 38.0429 229.315 36.5375 233.981 36.5375C237.398 36.5375 240.477 37.2292 243.23 38.599V46.1126C240.518 44.8649 237.873 44.241 235.296 44.241C232.543 44.241 230.237 45.0547 228.366 46.6823C226.535 48.2691 225.613 50.3441 225.613 52.9346C225.613 55.5115 226.548 57.6272 228.42 59.2412C230.292 60.8687 232.584 61.6824 235.296 61.6824C238.497 61.6824 241.318 60.9772 243.732 59.5531V67.0532C240.816 68.5858 237.534 69.3588 233.859 69.3588Z" fill="#255AA3"/>
<path d="M265.853 69.3588C260.984 69.3588 256.874 67.8534 253.538 64.8561C250.201 61.8587 248.533 57.8849 248.533 52.921C248.533 48.2962 250.039 44.4173 253.036 41.2979C256.033 38.1379 259.953 36.5511 264.781 36.5511C269.284 36.5511 272.878 38.1514 275.59 41.3658C278.303 44.5801 279.659 48.4725 279.659 53.0567V55.3623H257.295C257.756 57.4509 258.909 59.0513 260.767 60.177C262.625 61.3027 264.944 61.8588 267.738 61.8588C271.196 61.8588 274.533 60.9501 277.733 59.1056V66.1716C274.939 68.301 270.979 69.3588 265.853 69.3588ZM257.295 49.7338H270.979C270.898 47.9436 270.26 46.4517 269.08 45.2718C267.887 44.0783 266.341 43.4951 264.429 43.4951C262.476 43.4951 260.848 44.0647 259.56 45.2175C258.258 46.3568 257.498 47.8622 257.295 49.7338Z" fill="#255AA3"/>
<path d="M316.089 61.7367C316.835 61.7367 317.445 61.6146 317.906 61.3569V67.7991C316.78 68.6671 315.193 69.1147 313.159 69.1147C309.619 69.1147 307.259 67.7856 306.093 65.1137C303.34 67.9483 299.759 69.3588 295.338 69.3588C291.92 69.3588 289.153 68.3959 287.024 66.4836C284.895 64.5712 283.837 62.0486 283.837 58.9292C283.837 55.5928 285.044 53.0567 287.458 51.3071C289.872 49.5575 292.775 48.676 296.138 48.676C299.678 48.676 302.675 49.327 305.13 50.6154V49.6796C305.13 45.76 302.377 43.807 296.884 43.807C293.507 43.807 290.361 44.675 287.445 46.4246V39.0601C290.605 37.3919 294.47 36.5646 299 36.5646C303.503 36.5646 307.083 37.6496 309.741 39.8196C312.495 41.9896 313.864 44.9869 313.864 48.8116V59.3768C313.905 60.9501 314.637 61.7367 316.089 61.7367ZM305.157 59.3632V56.2439C303.326 55.0368 301.156 54.4265 298.661 54.4265C296.789 54.4265 295.297 54.7791 294.199 55.4843C293.1 56.1896 292.544 57.1932 292.544 58.4817C292.544 59.8108 293.046 60.828 294.05 61.5061C295.053 62.1978 296.409 62.5369 298.118 62.5369C301.183 62.5504 303.53 61.4926 305.157 59.3632Z" fill="#255AA3"/>
<path d="M332.838 48.676V68.5451H324.022V37.3648H332.838V41.1081C335.632 38.0701 339.104 36.5511 343.268 36.5511C346.848 36.5511 349.642 37.6903 351.636 39.9553C353.643 42.2202 354.633 45.3803 354.633 49.4219V68.5451H345.817V51.2393C345.817 48.9879 345.261 47.3197 344.163 46.2347C343.064 45.1497 341.627 44.6072 339.877 44.6072C338.548 44.6072 337.219 44.987 335.903 45.76C334.615 46.5466 333.584 47.5096 332.838 48.676Z" fill="#255AA3"/>
<path d="M72.587 83.3283V109.558H69.9287V88.577L59.6212 106.222H58.3056L47.9981 88.6855V109.558H45.3398V83.3283H47.6184L59.0109 102.777L70.2814 83.3283H72.587Z" fill="#595A5A"/>
<path d="M107.985 102.546H93.3781L90.2316 109.558H87.3428L99.3321 83.3283H102.072L114.061 109.558H111.145L107.985 102.546ZM106.981 100.295L100.688 86.2035L94.3953 100.295H106.981Z" fill="#595A5A"/>
<path d="M146.72 109.558L140.725 101.122C140.047 101.204 139.355 101.231 138.623 101.231H131.584V109.545H128.817V83.3283H138.637C141.987 83.3283 144.604 84.1285 146.503 85.7288C148.402 87.3292 149.351 89.5263 149.351 92.3202C149.351 94.3682 148.836 96.1042 147.791 97.5147C146.761 98.9252 145.269 99.9424 143.356 100.566L149.758 109.558H146.72ZM144.509 97.1485C145.879 95.9957 146.571 94.3953 146.571 92.3202C146.571 90.1909 145.879 88.5634 144.509 87.4377C143.139 86.2985 141.146 85.7288 138.555 85.7288H131.584V98.8845H138.555C141.159 98.8709 143.139 98.3013 144.509 97.1485Z" fill="#595A5A"/>
<path d="M174.455 97.2299L169.098 102.668V109.558H166.331V83.3283H169.098V99.1693L184.491 83.3283H187.679L176.327 95.209L188.465 109.558H185.169L174.455 97.2299Z" fill="#595A5A"/>
<path d="M221.911 107.158V109.558H203.371V83.3283H221.355V85.7288H206.151V95.0599H219.714V97.4197H206.151V107.158H221.911Z" fill="#595A5A"/>
<path d="M243.949 85.7288H234.727V83.3283H255.925V85.7288H246.716V109.558H243.949V85.7288Z" fill="#595A5A"/>
<path d="M270.763 83.3283H273.529V109.558H270.763V83.3283Z" fill="#595A5A"/>
<path d="M314.407 83.3283V109.558H312.129L295.271 88.2786V109.558H292.504V83.3283H294.782L311.681 104.608V83.3283H314.407Z" fill="#595A5A"/>
<path d="M351.839 96.4432H354.497V106.452C353.277 107.524 351.826 108.351 350.157 108.921C348.489 109.49 346.726 109.775 344.882 109.775C342.264 109.775 339.904 109.206 337.802 108.053C335.7 106.9 334.059 105.313 332.852 103.279C331.658 101.244 331.048 98.9659 331.048 96.4432C331.048 93.9206 331.645 91.6421 332.852 89.6077C334.045 87.5733 335.7 85.9865 337.802 84.8337C339.904 83.6809 342.278 83.1113 344.922 83.1113C346.916 83.1113 348.761 83.4232 350.429 84.0606C352.097 84.6981 353.507 85.6339 354.66 86.8952L352.938 88.6584C350.863 86.6104 348.232 85.5796 345.031 85.5796C342.915 85.5796 340.989 86.0543 339.28 86.9902C337.571 87.926 336.229 89.228 335.252 90.8826C334.276 92.5372 333.787 94.3953 333.787 96.4432C333.787 98.4912 334.276 100.336 335.252 101.99C336.229 103.645 337.558 104.933 339.253 105.883C340.949 106.832 342.861 107.307 344.99 107.307C347.689 107.307 349.968 106.629 351.839 105.286V96.4432Z" fill="#595A5A"/>
<path d="M0 0V173.438L7.43227 165.992V7.43227H392.554V165.992L400 173.438V0H0Z" fill="#2AA7D6"/>
<path d="M389.028 159.93C360.031 123.69 317.268 123.65 278.886 145.933C242.498 167.063 223.511 182.593 178.917 168.04C229.193 198.786 263.846 174.469 312.888 156.783C347.079 144.455 369.62 148.713 389.028 159.93Z" fill="url(#paint0_radial)"/>
<path d="M308.141 168.392C285.967 179.012 270.6 188.031 251.789 188.492C277.395 191.083 301.862 179.812 331.808 171.62C361.293 163.551 380.552 167.864 396.447 177.9C373.079 153.894 339.715 153.27 308.141 168.392Z" fill="url(#paint1_radial)"/>
<path d="M2.11621 179.08C41.9358 129.319 100.621 129.278 153.311 159.862C203.262 188.858 229.329 210.192 290.537 190.215C221.517 232.421 173.954 199.03 106.629 174.753C59.7028 157.841 28.7395 163.686 2.11621 179.08Z" fill="url(#paint2_radial)"/>
</g>
<defs>
<radialGradient id="paint0_radial" cx="0" cy="0" r="1" gradientUnits="userSpaceOnUse" gradientTransform="translate(354.89 99.808) scale(192.254 192.255)">
<stop stop-color="#29A8E0"/>
<stop offset="1" stop-color="#293C8F"/>
</radialGradient>
<radialGradient id="paint1_radial" cx="0" cy="0" r="1" gradientUnits="userSpaceOnUse" gradientTransform="translate(404.099 130.791) scale(177.601 177.601)">
<stop stop-color="#29A8E0"/>
<stop offset="1" stop-color="#293C8F"/>
</radialGradient>
<radialGradient id="paint2_radial" cx="0" cy="0" r="1" gradientUnits="userSpaceOnUse" gradientTransform="translate(48.966 96.5428) rotate(180) scale(263.92)">
<stop stop-color="#29A8E0"/>
<stop offset="1" stop-color="#293C8F"/>
</radialGradient>
<clipPath id="clip0">
<rect width="400" height="210.382" fill="white"/>
</clipPath>
</defs>
</svg>
