<svg width="86" height="55" viewBox="0 0 86 55" fill="none" xmlns="http://www.w3.org/2000/svg">
<g clip-path="url(#clip0)">
<path d="M26.0996 14.4265L42.6352 8.02527L68.2296 27.4715L67.3754 39.6728L50.8609 45.5995L51.6729 33.5774L26.0996 14.4265Z" fill="#FF0012"/>
<path d="M85.6839 20.0156L59.5517 0.158091C59.3408 -9.44862e-05 59.056 -0.0422772 58.8029 0.0526339L1.33955 21.2178C1.31846 21.2284 1.30791 21.2389 1.28682 21.2494C1.23409 21.2705 1.19191 21.3022 1.14973 21.3338C1.10755 21.3654 1.06536 21.3971 1.03373 21.4393C1.02318 21.4604 1.00209 21.4604 0.980997 21.4814C0.959905 21.5025 0.959905 21.5342 0.938814 21.5553C0.907177 21.5975 0.886086 21.6502 0.87554 21.6924C0.854449 21.7451 0.843903 21.7873 0.843903 21.84C0.833357 21.8927 0.833357 21.9349 0.833357 21.9876C0.833357 22.0404 0.843903 22.0931 0.854449 22.1458C0.864994 22.1775 0.854449 22.1986 0.864994 22.2302C0.87554 22.2513 0.886086 22.2618 0.896631 22.2829C0.917723 22.3356 0.94936 22.3778 0.980997 22.42C1.01263 22.4622 1.04427 22.5044 1.08645 22.536C1.10754 22.5466 1.10755 22.5677 1.12864 22.5887L27.2608 42.4463C27.2608 42.4463 27.2714 42.4463 27.2819 42.4568C27.3241 42.4884 27.3768 42.5095 27.4296 42.5412C27.4506 42.5517 27.4717 42.5623 27.5034 42.5728C27.5772 42.5939 27.651 42.6044 27.7248 42.6044C27.7354 42.6044 27.7354 42.6044 27.7459 42.6044C27.8408 42.6044 27.9252 42.5939 28.0201 42.5517L47.614 35.3279L46.9074 45.4412L27.0499 52.7599L1.26573 33.1661C0.917723 32.9024 0.422076 32.9657 0.158434 33.3137C-0.105208 33.6617 -0.0419339 34.1574 0.306073 34.421L26.4383 54.2785C26.5754 54.384 26.7441 54.4367 26.9128 54.4367C27.0077 54.4367 27.0921 54.4156 27.187 54.384L84.6504 33.2188C85.0617 33.0711 85.2726 32.6177 85.125 32.2064C84.9773 31.7951 84.5133 31.5842 84.1126 31.7424L65.0671 38.7553L65.7736 28.642L65.858 28.6103C65.9002 28.5998 65.9318 28.5892 65.974 28.5681L85.473 21.3865C85.7471 21.2916 85.937 21.0491 85.9791 20.7643C86.0319 20.4796 85.9159 20.1949 85.6839 20.0156ZM27.883 40.9171L3.24832 22.1986L22.5258 15.1013L47.1605 33.8199L27.883 40.9171ZM48.542 44.8507L49.3013 33.9148C49.3013 33.8832 49.2907 33.8621 49.2907 33.841C49.2907 33.7883 49.2802 33.7355 49.2697 33.6828C49.2591 33.6301 49.238 33.5879 49.2169 33.5457C49.1958 33.5035 49.1747 33.4613 49.1431 33.4192C49.1115 33.377 49.0798 33.3348 49.0376 33.3032C49.0166 33.2821 49.006 33.261 48.9849 33.2399L24.2764 14.4475L39.3251 8.911L64.2445 27.851L64.234 28.0514L63.443 39.3669L48.542 44.8507ZM65.7209 26.9863L41.0862 8.25717L58.94 1.68721L83.5747 20.4058L65.7209 26.9863Z" fill="#13182B"/>
<path d="M26.8601 48.3521C26.9972 48.4575 27.166 48.5102 27.3347 48.5102C27.4296 48.5102 27.5245 48.4892 27.6194 48.4575L44.7983 41.9192C45.2096 41.761 45.41 41.3075 45.2518 40.8963C45.0936 40.485 44.6401 40.2846 44.2289 40.4428L27.4612 46.8229L1.68761 27.2396C1.3396 26.976 0.843951 27.0392 0.580309 27.3872C0.316667 27.7353 0.379941 28.2309 0.727948 28.4945L26.8601 48.3521Z" fill="#13182B"/>
<path d="M84.5237 25.8159L68.2306 31.8164C67.8193 31.964 67.6084 32.4175 67.7561 32.8287C67.8721 33.1451 68.1779 33.3455 68.4943 33.3455C68.5892 33.3455 68.6735 33.3349 68.7684 33.2927L85.0615 27.2923C85.4728 27.1446 85.6837 26.6912 85.5361 26.2799C85.3884 25.8791 84.9244 25.6682 84.5237 25.8159Z" fill="#13182B"/>
<path d="M28.2501 27.8301C28.0498 27.2395 27.4065 26.9337 26.8159 27.1341C26.2254 27.3344 25.9195 27.9777 26.1199 28.5683C26.3203 29.1588 26.9636 29.4647 27.5541 29.2643C28.1447 29.0534 28.4611 28.4101 28.2501 27.8301Z" fill="#13182B"/>
<path d="M63.2436 15.555C63.8341 15.3546 64.14 14.7113 63.9396 14.1207C63.7392 13.5302 63.0959 13.2244 62.5054 13.4247C61.9148 13.6251 61.609 14.2684 61.8094 14.8589C62.0097 15.4495 62.653 15.7659 63.2436 15.555Z" fill="#13182B"/>
</g>
<defs>
<clipPath id="clip0">
<rect width="86" height="54.4473" fill="white"/>
</clipPath>
</defs>
</svg>
