<svg width="47" height="63" viewBox="0 0 47 63" fill="none" xmlns="http://www.w3.org/2000/svg">
<g clip-path="url(#clip0)">
<path d="M26.5005 43.5C21.4005 43.5 17.0505 46.75 15.4205 51.29C14.9705 52.53 14.7305 53.87 14.7305 55.27H38.2005C37.6905 47.57 31.7305 43.5 26.5005 43.5Z" fill="#FF0012"/>
<path d="M28.2608 17.89C25.3608 17.06 23.8908 15.87 21.2508 15.99C19.1108 16.09 17.4008 16.99 16.3008 17.73V18.19C18.3408 21.71 22.1408 24.07 26.4908 24.07C30.5308 24.07 34.0908 21.81 36.2108 18.71C32.6808 19.11 30.0308 18.4 28.2608 17.89Z" fill="#FF0012"/>
<path d="M30.35 26.82C30.37 26.81 30.38 26.79 30.4 26.77C37.65 24 42.77 17.06 43.04 9.08H46.05C46.46 9.08 46.8 8.74 46.8 8.33V0.75C46.8 0.34 46.46 0 46.05 0H0.75C0.34 0 0 0.34 0 0.75V8.33C0 8.74 0.34 9.08 0.75 9.08H41.54C41.21 17.81 34.62 25.19 25.93 26.4C25.52 26.46 25.23 26.84 25.29 27.25C25.34 27.63 25.66 27.9 26.03 27.9C26.06 27.9 26.1 27.9 26.13 27.89C26.57 27.83 26.99 27.74 27.42 27.65C26.72 28.74 26.32 30.01 26.32 31.36C26.32 34.2 28.03 36.71 30.68 37.74C30.7 37.75 30.72 37.75 30.74 37.75C30.81 37.82 30.89 37.88 30.98 37.93C37.18 40.78 41.25 46.92 41.53 53.69H12.41C12.48 52.67 12.68 51.67 13.02 50.71C14.59 46.35 18.76 43.42 23.4 43.42C28.19 43.42 32.4 46.48 33.88 51.03C33.98 51.35 34.28 51.55 34.59 51.55C34.67 51.55 34.74 51.54 34.82 51.51C35.21 51.38 35.43 50.96 35.3 50.56C33.62 45.39 28.83 41.92 23.39 41.92C18.12 41.92 13.39 45.25 11.6 50.2C11.2 51.32 10.97 52.49 10.9 53.69H5.27C5.63 44.76 12.42 37.39 21.35 36.38C21.76 36.33 22.06 35.96 22.01 35.55C21.96 35.14 21.59 34.84 21.18 34.89C20.56 34.96 19.95 35.06 19.35 35.18C20.09 34.08 20.51 32.76 20.51 31.36C20.51 28.52 18.8 26.02 16.23 25.02L15.74 24.77C10.78 22.4 7.16 18.07 5.8 12.88C5.69 12.48 5.28 12.24 4.88 12.34C4.48 12.44 4.24 12.85 4.34 13.25C5.81 18.87 9.73 23.56 15.06 26.11L15.6 26.38C17.66 27.19 19 29.14 19 31.35C19 33.57 17.66 35.52 15.59 36.33C15.5 36.36 15.43 36.41 15.37 36.47C8.67 39.46 4.04 46.04 3.75 53.67H0.75C0.34 53.68 0 54.02 0 54.43V62.01C0 62.42 0.34 62.76 0.75 62.76H46.06C46.47 62.76 46.81 62.42 46.81 62.01V54.43C46.81 54.02 46.47 53.68 46.06 53.68H43.05C42.77 46.32 38.35 39.65 31.62 36.55C31.58 36.53 31.55 36.53 31.51 36.52C31.43 36.44 31.35 36.37 31.23 36.32C29.16 35.52 27.82 33.56 27.82 31.34C27.83 29.5 28.77 27.81 30.35 26.82ZM1.5 1.5H45.31V7.58H1.5V1.5ZM45.31 61.26H1.5V55.18H45.31V61.26Z" fill="#13182B"/>
<path d="M12.5592 17.7199C14.7892 21.5799 18.9492 23.9799 23.3992 23.9799C27.5392 23.9799 31.3992 21.9399 33.7392 18.5199C33.8792 18.3199 33.8892 18.0899 33.8192 17.8699C33.8592 17.7699 33.8692 17.6599 33.8592 17.5399C33.8092 17.1299 33.4292 16.8399 33.0292 16.8799C30.2992 17.1899 27.7192 16.9999 25.3592 16.3199C24.3992 16.0399 23.6092 15.7299 22.8492 15.4299C21.3292 14.8299 19.9992 14.2899 18.1192 14.3899C16.2992 14.4699 14.5092 15.0999 12.7892 16.2499C12.5092 16.4399 12.4092 16.7899 12.5092 17.0999C12.4392 17.2999 12.4492 17.5199 12.5592 17.7199ZM18.1892 15.8899C19.7592 15.8199 20.8792 16.2599 22.2992 16.8299C23.0592 17.1299 23.9192 17.4699 24.9492 17.7699C26.7092 18.2799 28.5792 18.5299 30.5392 18.5299C30.9792 18.5299 31.4192 18.5199 31.8692 18.4899C29.7792 20.9999 26.6992 22.4699 23.4092 22.4699C19.5992 22.4699 16.0592 20.4699 14.0592 17.2499C15.4092 16.4299 16.7992 15.9599 18.1892 15.8899Z" fill="#13182B"/>
</g>
<defs>
<clipPath id="clip0">
<rect width="46.81" height="62.76" fill="white"/>
</clipPath>
</defs>
</svg>
