<svg width="75" height="61" viewBox="0 0 75 61" fill="none" xmlns="http://www.w3.org/2000/svg">
<g clip-path="url(#clip0)">
<path d="M21.7182 49.0815C21.7182 47.2367 20.2264 45.7449 18.3815 45.7449C16.5367 45.7449 15.0449 47.2367 15.0449 49.0815C15.0449 50.9263 16.5367 52.4181 18.3815 52.4181C20.2264 52.4181 21.7182 50.9263 21.7182 49.0815Z" fill="#FF0012"/>
<path d="M33.7077 32.2274C35.5505 32.2274 37.0443 30.7336 37.0443 28.8908C37.0443 27.0481 35.5505 25.5542 33.7077 25.5542C31.865 25.5542 30.3711 27.0481 30.3711 28.8908C30.3711 30.7336 31.865 32.2274 33.7077 32.2274Z" fill="#FF0012"/>
<path d="M48.614 48.0679C50.4567 48.0679 51.9506 46.574 51.9506 44.7313C51.9506 42.8885 50.4567 41.3947 48.614 41.3947C46.7712 41.3947 45.2773 42.8885 45.2773 44.7313C45.2773 46.574 46.7712 48.0679 48.614 48.0679Z" fill="#FF0012"/>
<path d="M65.81 21.9785C65.81 20.1336 64.3182 18.6418 62.4733 18.6418C60.6285 18.6418 59.1367 20.1336 59.1367 21.9785C59.1367 23.8233 60.6285 25.3151 62.4733 25.3151C64.3182 25.3151 65.81 23.8233 65.81 21.9785Z" fill="#FF0012"/>
<path d="M74.1459 0H0.854084C0.387185 0 0 0.387185 0 0.854084V11.6383V39.9028V40.3014V58.9546C0 59.4215 0.387185 59.8087 0.854084 59.8087H40.2558L74.1459 60.025C74.6128 60.025 75 59.6493 75 59.171C75 59.1368 74.9886 59.1026 74.9772 59.0571C74.9772 59.0229 75 58.9888 75 58.9546V51.2678V49.3775V11.6383V0.854084C75 0.387185 74.6128 0 74.1459 0ZM1.70817 40.3014V39.9028V12.4924H25.9642H64.899H67.8257C68.2926 12.4924 68.6798 12.1052 68.6798 11.6383C68.6798 11.1714 68.2926 10.7842 67.8257 10.7842H64.899H25.9642H1.70817V1.70817H73.2918V11.6383V49.3775V51.2678V58.3169L40.2672 58.1119H1.70817V40.3014Z" fill="#13182B"/>
<path d="M69.7039 6.24052C69.7039 5.20423 68.8612 4.37292 67.8363 4.37292C66.8001 4.37292 65.9688 5.21562 65.9688 6.24052C65.9688 7.27681 66.8114 8.10812 67.8363 8.10812C68.8612 8.11951 69.7039 7.27681 69.7039 6.24052Z" fill="#13182B"/>
<path d="M62.8617 4.37292C61.8254 4.37292 60.9941 5.21562 60.9941 6.24052C60.9941 7.27681 61.8368 8.10812 62.8617 8.10812C63.898 8.10812 64.7293 7.26542 64.7293 6.24052C64.7407 5.21562 63.898 4.37292 62.8617 4.37292Z" fill="#13182B"/>
<path d="M14.9647 46.0521C13.2907 46.0521 11.9355 47.4073 11.9355 49.0813C11.9355 50.7553 13.2907 52.1104 14.9647 52.1104C16.6387 52.1104 17.9939 50.7553 17.9939 49.0813C17.9939 47.4073 16.6387 46.0521 14.9647 46.0521ZM14.9647 50.4137C14.2359 50.4137 13.6437 49.8215 13.6437 49.0927C13.6437 48.3638 14.2359 47.7717 14.9647 47.7717C15.6935 47.7717 16.2857 48.3638 16.2857 49.0927C16.2857 49.8101 15.6935 50.4137 14.9647 50.4137Z" fill="#13182B"/>
<path d="M30.2909 25.8502C28.6169 25.8502 27.2617 27.2054 27.2617 28.8794C27.2617 30.5534 28.6169 31.9085 30.2909 31.9085C31.9649 31.9085 33.32 30.5534 33.32 28.8794C33.32 27.2168 31.9535 25.8502 30.2909 25.8502ZM30.2909 30.2117C29.5621 30.2117 28.9699 29.6196 28.9699 28.8908C28.9699 28.1619 29.5621 27.5698 30.2909 27.5698C31.0197 27.5698 31.6119 28.1619 31.6119 28.8908C31.6119 29.6196 31.0197 30.2117 30.2909 30.2117Z" fill="#13182B"/>
<path d="M45.1971 47.9312C46.8711 47.9312 48.2263 46.5761 48.2263 44.9021C48.2263 43.2281 46.8711 41.8729 45.1971 41.8729C43.5231 41.8729 42.168 43.2281 42.168 44.9021C42.168 46.5647 43.5231 47.9312 45.1971 47.9312ZM45.1971 43.5697C45.9259 43.5697 46.5181 44.1619 46.5181 44.8907C46.5181 45.6195 45.9259 46.2117 45.1971 46.2117C44.4683 46.2117 43.8761 45.6195 43.8761 44.8907C43.8761 44.1619 44.4683 43.5697 45.1971 43.5697Z" fill="#13182B"/>
<path d="M59.0565 25.0076C60.7305 25.0076 62.0856 23.6525 62.0856 21.9785C62.0856 20.3045 60.7305 18.9493 59.0565 18.9493C57.3825 18.9493 56.0273 20.3045 56.0273 21.9785C56.0273 23.6525 57.3939 25.0076 59.0565 25.0076ZM59.0565 20.6575C59.7853 20.6575 60.3775 21.2497 60.3775 21.9785C60.3775 22.7073 59.7853 23.2995 59.0565 23.2995C58.3277 23.2995 57.7355 22.7073 57.7355 21.9785C57.7355 21.2497 58.3277 20.6575 59.0565 20.6575Z" fill="#13182B"/>
<path d="M25.4754 33.594L18.4719 42.8751C18.1872 43.2509 18.2669 43.7861 18.6427 44.0708C18.8022 44.1847 18.973 44.2416 19.1552 44.2416C19.4171 44.2416 19.6676 44.1277 19.8384 43.9L26.8419 34.6189C27.1266 34.2431 27.0469 33.7079 26.6711 33.4232C26.2953 33.1385 25.7601 33.2182 25.4754 33.594Z" fill="#13182B"/>
<path d="M47.8162 40.7113C47.9643 40.8024 48.1237 40.848 48.2831 40.848C48.5678 40.848 48.8411 40.7113 49.0006 40.4608L57.1428 27.9456C57.4047 27.547 57.2909 27.0232 56.8923 26.7613C56.4937 26.4994 55.9699 26.6132 55.708 27.0118L47.5657 39.527C47.3152 39.9256 47.4177 40.4494 47.8162 40.7113Z" fill="#13182B"/>
<path d="M40.9397 40.8252C41.1447 40.8252 41.3496 40.7569 41.5091 40.6089C41.8621 40.29 41.8962 39.7548 41.5774 39.4017L36.1568 33.3207C35.8493 32.9676 35.3027 32.9335 34.9497 33.2523C34.5967 33.5712 34.5625 34.1064 34.8814 34.4594L40.302 40.5405C40.4614 40.7227 40.7005 40.8252 40.9397 40.8252Z" fill="#13182B"/>
</g>
<defs>
<clipPath id="clip0">
<rect width="75" height="60.0251" fill="white"/>
</clipPath>
</defs>
</svg>
