<svg width="76" height="54" viewBox="0 0 76 54" fill="none" xmlns="http://www.w3.org/2000/svg">
<g clip-path="url(#clip0)">
<path d="M8.8 36.22H21C23.79 36.22 26.05 33.96 26.05 31.17V29.72H3.75V31.17C3.75 33.96 6.01 36.22 8.8 36.22Z" fill="#FF0012"/>
<path d="M8.8 52.53H70.87C73.66 52.53 75.92 50.27 75.92 47.48V46.03H3.75V47.48C3.75 50.27 6.01 52.53 8.8 52.53Z" fill="#FF0012"/>
<path d="M11.8994 31.77C11.1894 31.77 10.6094 32.35 10.6094 33.06C10.6094 33.77 11.1894 34.35 11.8994 34.35C12.6094 34.35 13.1894 33.77 13.1894 33.06C13.1894 32.35 12.6094 31.77 11.8994 31.77Z" fill="#13182B"/>
<path d="M72.96 46.15C72.96 45.95 72.88 45.77 72.74 45.63C72.6 45.49 72.41 45.41 72.22 45.41L65.41 45.43C66.31 44.52 66.87 43.27 66.87 41.89L66.79 7.76C66.79 6.42 66.27 5.16 65.32 4.21C64.37 3.26 63.09 2.7 61.76 2.75L23.37 2.86C22.61 1.18 20.92 0 18.95 0H4.85C2.17 0 0 2.17 0 4.85V32.13C0 34.8 2.17 36.98 4.85 36.98H5.59L5.6 42.06C5.6 43.44 6.16 44.68 7.06 45.59L0.75 45.6C0.34 45.6 0.01 45.93 0.01 46.34V47.85C0.01 49.27 0.56 50.6 1.57 51.59C2.57 52.59 3.9 53.13 5.31 53.13H5.32L67.68 53C69.09 53 70.42 52.44 71.42 51.44C72.42 50.44 72.97 49.11 72.96 47.69V46.15ZM4.85 1.5H18.96C20.81 1.5 22.31 3 22.31 4.85V28.98H1.5V4.85C1.5 3 3 1.5 4.85 1.5ZM1.5 32.13V30.48H22.3V32.13C22.3 33.98 20.8 35.48 18.95 35.48H4.85C3 35.47 1.5 33.97 1.5 32.13ZM7.08 42.05L7.07 36.97H18.96C21.63 36.97 23.81 34.8 23.81 32.12V4.85C23.81 4.68 23.78 4.52 23.76 4.35L61.77 4.24C61.78 4.24 61.78 4.24 61.79 4.24C62.73 4.24 63.61 4.6 64.28 5.26C64.95 5.93 65.32 6.81 65.32 7.76L65.4 39.67H10.86C10.45 39.67 10.12 40 10.12 40.41C10.12 40.82 10.45 41.15 10.86 41.15H65.39V41.88C65.39 43.83 63.81 45.41 61.87 45.42L39.75 45.5L10.41 45.58C8.54 45.47 7.08 43.93 7.08 42.05ZM70.37 50.39C69.65 51.11 68.7 51.51 67.68 51.51L5.31 51.66H5.3C4.28 51.66 3.33 51.27 2.61 50.55C1.89 49.83 1.49 48.87 1.49 47.85V47.08L10.39 47.06C10.4 47.06 10.41 47.06 10.42 47.06L36.66 46.99L71.48 46.9V47.7C71.48 48.71 71.08 49.67 70.37 50.39Z" fill="#13182B"/>
<path d="M36.4892 7.59002C36.9192 7.59002 37.2692 7.24002 37.2692 6.80002C37.2692 6.37002 36.9192 6.02002 36.4792 6.02002C36.0492 6.02002 35.6992 6.37002 35.6992 6.81002C35.6992 7.24002 36.0592 7.59002 36.4892 7.59002Z" fill="#13182B"/>
<path d="M27.9607 10.44H61.6607C62.0707 10.44 62.4007 10.11 62.4007 9.69996C62.4007 9.28996 62.0707 8.95996 61.6607 8.95996H27.9607C27.5507 8.95996 27.2207 9.28996 27.2207 9.69996C27.2207 10.11 27.5507 10.44 27.9607 10.44Z" fill="#13182B"/>
<path d="M42.2809 48.48H30.9509C30.5409 48.48 30.2109 48.81 30.2109 49.22C30.2109 49.63 30.5409 49.96 30.9509 49.96H42.2809C42.6909 49.96 43.0209 49.63 43.0209 49.22C43.0209 48.81 42.6909 48.48 42.2809 48.48Z" fill="#13182B"/>
</g>
<defs>
<clipPath id="clip0">
<rect width="75.91" height="53.14" fill="white"/>
</clipPath>
</defs>
</svg>
