<svg width="69" height="68" viewBox="0 0 69 68" fill="none" xmlns="http://www.w3.org/2000/svg">
<path fill-rule="evenodd" clip-rule="evenodd" d="M3.69922 10.0579C11.7278 6.82992 24.9512 6.35753 30.6971 6.59372L34.3966 11.3176L38.096 6.59372C43.8419 6.35753 57.0654 6.82992 65.0939 10.0579C63.992 12.1836 59.1906 15.1754 56.5144 15.8052C56.357 11.6325 50.5323 10.8452 44.9439 10.8452L34.3966 67.2163L23.8493 10.8452C18.2608 10.8452 12.4362 11.7112 12.2787 15.8052C9.60255 15.1754 4.80117 12.1836 3.69922 10.0579Z" fill="#FF0012"/>
<path fill-rule="evenodd" clip-rule="evenodd" d="M0 4.46796L2.04649 7.45973C9.83889 4.70415 19.0481 3.44446 28.8083 3.12954C32.5077 3.05081 36.2858 3.05081 39.9065 3.12954C49.6667 3.44446 58.8759 4.70415 66.6683 7.45973L68.7148 4.46796C59.5056 1.31874 49.7454 0.29524 39.9853 0.059048C36.2858 -0.0196827 32.5077 -0.0196827 28.7296 0.059048C18.9694 0.29524 9.2092 1.31874 0 4.46796Z" fill="#FF0012"/>
</svg>
