<svg width="23" height="19" viewBox="0 0 23 19" fill="none" xmlns="http://www.w3.org/2000/svg">
<path d="M12.4619 0C15.7876 0 19.0576 0 22.3263 0C22.5219 0 22.7162 0 22.9987 0C22.9987 0.234408 22.9987 0.440324 22.9987 0.647536C22.9987 4.21028 22.9987 7.77302 22.9987 11.3358C22.9987 15.2197 20.611 18.144 16.8033 18.8886C16.276 18.9922 15.7228 18.965 15.1346 19.0013C15.1346 17.7464 15.1346 16.564 15.1346 15.3168C16.118 15.3932 16.9109 15.0358 17.4809 14.2082C18.2336 13.1126 18.3282 11.8888 18.2388 10.551C16.3149 10.551 14.4078 10.551 12.4619 10.551C12.4619 7.01022 12.4619 3.53814 12.4619 0Z" fill="#1B334D"/>
<path d="M0 10.5419C0 6.97138 0 3.51484 0 0.0285034C3.50966 0.0285034 6.98693 0.0285034 10.5134 0.0285034C10.5238 0.202043 10.5432 0.371697 10.5432 0.541352C10.5445 4.29965 10.5601 8.05795 10.5406 11.8162C10.5199 15.8323 6.88717 19.2085 2.87743 18.9715C2.82172 18.9676 2.76731 18.9443 2.67662 18.9223C2.67662 17.7399 2.67662 16.5575 2.67662 15.3764C5.06562 14.9309 6.13705 13.2693 5.74838 10.5432C3.85428 10.5419 1.94722 10.5419 0 10.5419Z" fill="#1B334D"/>
</svg>
