<svg width="10" height="10" viewBox="0 0 10 10" fill="none" xmlns="http://www.w3.org/2000/svg">
<path d="M4.04 4.43C4.065 4.265 4.12 4.12 4.19 4C4.25 3.87 4.36 3.765 4.485 3.685C4.605 3.61 4.75 3.575 4.94 3.57C5.055 3.575 5.16 3.595 5.25 3.635C5.355 3.68 5.445 3.75 5.515 3.815C5.585 3.89 5.64 3.98 5.685 4.08C5.73 4.18 5.75 4.29 5.75 4.4H6.65C6.64 4.165 6.595 3.95 6.5 3.75C6.425 3.56 6.31 3.39 6.16 3.25C6 3.11 5.83 3 5.62 2.92C5.41 2.84 5.18 2.805 4.925 2.805C4.6 2.805 4.315 2.86 4.075 2.975C3.835 3.09 3.635 3.25 3.475 3.435C3.315 3.63 3.195 3.855 3.12 4.115C3.045 4.375 3 4.645 3 4.935V5.07C3 5.36 3.04 5.63 3.115 5.89C3.19 6.15 3.31 6.375 3.47 6.565C3.63 6.75 3.83 6.91 4.07 7.02C4.31 7.13 4.595 7.19 4.92 7.19C5.155 7.19 5.375 7.15 5.58 7.075C5.785 7 5.965 6.895 6.12 6.75C6.275 6.625 6.4 6.47 6.5 6.29C6.58 6.11 6.635 5.92 6.64 5.715H5.75C5.75 5.82 5.715 5.915 5.67 6C5.625 6.095 5.565 6.17 5.5 6.235C5.415 6.3 5.33 6.35 5.23 6.385C5.135 6.42 5.035 6.43 4.93 6.435C4.75 6.43 4.6 6.395 4.485 6.32C4.35538 6.24712 4.25212 6.13511 4.19 6C4.11255 5.86777 4.0616 5.72171 4.04 5.57C4.01426 5.40456 4.00089 5.23743 4 5.07V4.935C4 4.75 4.015 4.595 4.04 4.43ZM5 0C4.34339 0 3.69321 0.129329 3.08658 0.380602C2.47995 0.631876 1.92876 1.00017 1.46447 1.46447C0.526784 2.40215 0 3.67392 0 5C0 6.32608 0.526784 7.59785 1.46447 8.53553C1.92876 8.99983 2.47995 9.36812 3.08658 9.6194C3.69321 9.87067 4.34339 10 5 10C6.32608 10 7.59785 9.47322 8.53553 8.53553C9.47322 7.59785 10 6.32608 10 5C10 4.34339 9.87067 3.69321 9.6194 3.08658C9.36812 2.47995 8.99983 1.92876 8.53553 1.46447C8.07124 1.00017 7.52005 0.631876 6.91342 0.380602C6.30679 0.129329 5.65661 0 5 0ZM5 9C2.795 9 1 7.205 1 5C1 2.795 2.795 1 5 1C7.205 1 9 2.795 9 5C9 7.205 7.205 9 5 9Z" fill="white"/>
</svg>
