<svg width="70" height="64" viewBox="0 0 70 64" fill="none" xmlns="http://www.w3.org/2000/svg">
<path d="M35.6967 20.2482C35.7048 20.2482 35.7113 20.2484 35.717 20.2486C35.9361 20.4594 36.2831 21.407 36.7493 23.0674C37.2008 24.6743 37.6674 26.336 38.6378 27.8101C40.0194 29.9088 42.0804 31.018 44.5979 31.018C46.9926 31.018 49.0179 30.0682 50.6178 28.195C51.785 26.8288 52.572 25.1542 53.3332 23.5347C55.4935 18.9391 57.0537 15.6189 65.9727 18.068C66.7927 18.2934 67.6514 18.1857 68.3904 17.7651C69.1295 17.3446 69.6607 16.6613 69.8858 15.8412C70.3505 14.1485 69.3517 12.393 67.659 11.9282C63.369 10.7501 59.6796 10.59 56.6925 11.4525C56.1485 11.6096 55.8347 12.178 55.9917 12.7221C56.1488 13.2663 56.7172 13.5798 57.2612 13.4228C59.8799 12.6667 63.1956 12.8292 67.1158 13.9058C67.7182 14.0713 68.0736 14.6958 67.9082 15.2982C67.8281 15.5901 67.639 15.8333 67.3761 15.9829C67.1129 16.1324 66.8073 16.1707 66.5157 16.0906C61.7533 14.7827 58.3924 14.9033 55.9389 16.4707C53.7223 17.8864 52.6318 20.2064 51.4769 22.6627C50.7735 24.1593 50.0462 25.7068 49.0584 26.8632C47.849 28.2791 46.3899 28.9675 44.5978 28.9675C42.7777 28.9675 41.3487 28.1987 40.3508 26.6827C39.5557 25.475 39.1327 23.9693 38.7238 22.5132C37.95 19.7571 37.4279 18.1978 35.6967 18.1978C32.4023 18.1978 31.0682 23.7942 29.6551 29.7224C28.7982 33.3167 27.9121 37.0333 26.4722 39.9075C24.7003 43.4441 22.3497 45.1632 19.2858 45.1632C16.9218 45.1632 15.0184 43.8962 13.4668 41.2901C12.198 39.1585 11.2662 36.3437 10.2797 33.3638C9.02863 29.5843 7.735 25.6762 5.63732 22.6963C4.56914 21.1787 3.39404 20.0545 2.05092 19.2634V16.7232C4.14545 17.6697 5.97187 19.2354 7.49027 21.3923C9.78059 24.6462 11.1885 28.8994 12.4307 32.6519C14.2506 38.1496 15.8222 42.8976 19.2858 42.8976C23.8339 42.8976 25.5392 37.2177 27.4527 29.1907C28.2358 25.9065 28.9755 22.8042 30.096 20.3979C31.4956 17.393 33.3278 15.9321 35.6969 15.9321C37.2962 15.9321 38.5563 16.6461 39.4424 18.0543C40.1335 19.1527 40.5259 20.5495 40.9053 21.9005C41.7412 24.8772 42.3668 26.7017 44.5981 26.7017C46.96 26.7017 47.9248 24.8939 49.4268 21.6988C50.352 19.7307 51.5033 17.2813 53.4718 15.5146C53.8932 15.1363 53.9283 14.4881 53.55 14.0666C53.1717 13.6451 52.5235 13.6098 52.1019 13.9884C49.8241 16.0328 48.5747 18.6907 47.5709 20.8264C45.9278 24.3213 45.4506 24.6511 44.5979 24.6511C44.1221 24.6511 43.8077 24.6511 42.8797 21.3461C42.4607 19.8543 42.0275 18.312 41.178 16.9622C39.9282 14.9755 37.9816 13.8815 35.6969 13.8815C33.4944 13.8815 30.4124 14.8618 28.2371 19.5322C27.4068 21.315 26.7868 23.3837 26.2177 25.604C25.5675 25.4047 24.8998 25.2568 24.2251 25.1633C19.9172 24.5655 16.3162 25.4547 12.9847 27.9545C11.992 25.2527 10.8015 22.5337 9.16727 20.2121C7.23475 17.4665 4.84135 15.5507 2.05078 14.5071V3.53749C2.05078 2.9712 1.59182 2.5121 1.02539 2.5121C0.458965 2.5121 0 2.9712 0 3.53749V62.2159C0 62.7822 0.458965 63.2413 1.02539 63.2413H66.4933C67.0597 63.2413 67.5187 62.7822 67.5187 62.2159C67.5187 61.6497 67.0597 61.1906 66.4933 61.1906H63.4394V60.0968C63.4394 59.5305 62.9804 59.0714 62.414 59.0714C61.8476 59.0714 61.3886 59.5305 61.3886 60.0968V61.1906H57.7939V60.0968C57.7939 59.5305 57.3349 59.0714 56.7685 59.0714C56.2021 59.0714 55.7431 59.5305 55.7431 60.0968V61.1906H52.1482V60.0968C52.1482 59.5305 51.6893 59.0714 51.1228 59.0714C50.5564 59.0714 50.0974 59.5305 50.0974 60.0968V61.1906H46.5027V60.0968C46.5027 59.5305 46.0437 59.0714 45.4773 59.0714C44.9109 59.0714 44.4519 59.5305 44.4519 60.0968V61.1906H40.857V60.0968C40.857 59.5305 40.3981 59.0714 39.8316 59.0714C39.2652 59.0714 38.8062 59.5305 38.8062 60.0968V61.1906H35.2115V60.0968C35.2115 59.5305 34.7525 59.0714 34.1861 59.0714C33.6197 59.0714 33.1607 59.5305 33.1607 60.0968V61.1906H29.5658V60.0968C29.5658 59.5305 29.1069 59.0714 28.5404 59.0714C27.974 59.0714 27.5151 59.5305 27.5151 60.0968V61.1906H23.9202V60.0968C23.9202 59.5305 23.4612 59.0714 22.8948 59.0714C22.3284 59.0714 21.8694 59.5305 21.8694 60.0968V61.1906H18.2746V60.0968C18.2746 59.5305 17.8157 59.0714 17.2493 59.0714C16.6828 59.0714 16.2239 59.5305 16.2239 60.0968V61.1906H12.629V60.0968C12.629 59.5305 12.17 59.0714 11.6036 59.0714C11.0372 59.0714 10.5782 59.5305 10.5782 60.0968V61.1906H6.98346V60.0968C6.98346 59.5305 6.52449 59.0714 5.95807 59.0714C5.39164 59.0714 4.93268 59.5305 4.93268 60.0968V61.1906H2.05078V46.3201C5.705 45.0203 8.3315 42.4643 10.4958 39.9534C10.8667 40.7994 11.2644 41.5994 11.7045 42.3388C13.6302 45.5736 16.1808 47.2137 19.2855 47.2137C23.147 47.2137 26.1818 45.0644 28.3054 40.8258C28.9763 39.4867 29.528 38.0066 30.0102 36.4572C30.8633 37.6062 31.6401 38.8149 32.2644 39.815C32.4589 40.1264 32.7931 40.2975 33.1352 40.2975C33.3205 40.2975 33.5083 40.2472 33.6772 40.1418C34.1577 39.8419 34.304 39.2093 34.0041 38.7289C33.1358 37.3381 31.9808 35.5552 30.7051 34.0202C30.9378 33.1396 31.1575 32.2495 31.3716 31.3607C33.6176 33.7149 35.4391 36.7096 37.2081 39.6178C39.7655 43.8222 42.1812 47.7935 44.9829 47.7935C47.3409 47.7935 48.3365 45.0688 49.4896 41.9139C50.2214 39.911 50.9782 37.8397 52.2052 36.3206C53.7173 34.4488 55.7264 33.7299 58.1771 34.185C58.2236 34.1937 58.2701 34.2053 58.3149 34.2196C63.0163 35.7201 63.6528 40.3699 64.2145 44.4734C64.6617 47.7391 65.0839 50.8234 67.251 52.3578C67.4979 52.5327 67.662 52.7933 67.713 53.0915C67.764 53.3897 67.6956 53.6899 67.5207 53.9371C67.3087 54.2365 66.9624 54.4153 66.5943 54.4153C66.36 54.4153 66.1343 54.3433 65.9416 54.207C62.9722 52.1042 62.4627 48.3807 61.9698 44.7798C61.4387 40.902 60.9801 37.5533 57.7812 36.4301C57.7232 36.4097 57.6635 36.3947 57.6028 36.385C54.3579 35.8689 53.1774 38.4231 51.6175 42.6917C50.9951 44.3949 50.3516 46.1561 49.4255 47.5106C48.253 49.2255 46.7998 50.0592 44.9831 50.0592C41.7066 50.0592 39.3113 47.2845 36.5086 42.8074C36.208 42.3273 35.5753 42.1819 35.0953 42.4824C34.6153 42.7829 34.4698 43.4156 34.7702 43.8955C37.3722 48.0519 40.3043 52.11 44.9831 52.11C47.4573 52.11 49.5787 50.9198 51.1185 48.6682C52.1896 47.1016 52.878 45.2174 53.5437 43.3955C55.2627 38.6917 55.9364 38.2218 57.1869 38.3963C58.9412 39.066 59.3771 40.9623 59.9379 45.058C60.4382 48.7139 61.0609 53.2637 64.7564 55.8807C65.2976 56.2638 65.9329 56.4662 66.5938 56.4662H66.5943C67.6267 56.4662 68.5986 55.9638 69.1943 55.1223C69.686 54.4283 69.8776 53.5845 69.7345 52.7463C69.5912 51.908 69.1301 51.1758 68.4361 50.6843C66.9951 49.6641 66.6314 47.0076 66.2461 44.1945C65.6664 39.9598 64.8725 34.16 58.9384 32.2661C58.8119 32.2257 58.6816 32.1929 58.551 32.1689C55.395 31.5833 52.5744 32.6001 50.61 35.0322C49.1688 36.8162 48.3525 39.0501 47.5634 41.2102C46.6571 43.6901 45.8374 45.7428 44.9829 45.7428C43.334 45.7428 40.806 41.5869 38.9601 38.552C36.9992 35.3283 34.7804 31.6857 31.9287 29.0335C32.446 26.8888 32.9923 24.7598 33.6485 23.0751C34.6425 20.5237 35.4121 20.2482 35.6967 20.2482ZM19.2857 40.8464C17.7503 40.8464 16.5527 38.2944 15.2029 34.4428C17.3595 32.2672 19.6137 30.951 23.3507 31.4697C23.801 31.532 24.2501 31.6495 24.6911 31.8148C23.3126 37.1078 21.8481 40.8464 19.2857 40.8464ZM23.9431 27.1939C24.5476 27.2777 25.1442 27.4157 25.7242 27.6004C25.6352 27.9704 25.5463 28.3426 25.4569 28.7177C25.3684 29.0886 25.2805 29.4538 25.1928 29.8146C24.6799 29.6379 24.1574 29.511 23.6324 29.4382C19.3215 28.8398 16.5591 30.4019 14.4747 32.2993C14.4424 32.2021 14.4102 32.1053 14.3776 32.007C14.1597 31.3485 13.936 30.6745 13.7041 29.9931C16.7288 27.5363 19.9932 26.6461 23.9431 27.1939ZM3.96033 23.8765C5.70445 26.3543 6.89076 29.6792 7.9949 32.9907C7.75031 33.2871 7.50859 33.5829 7.2692 33.8762C5.50416 36.0379 3.94023 37.9488 2.05078 39.2244V21.7632C2.72863 22.325 3.36027 23.024 3.96033 23.8765ZM2.05078 44.1215V41.6113C4.71803 40.2082 6.69102 37.8261 8.75998 35.2927C9.04682 36.1492 9.33475 36.987 9.63389 37.7972C7.56588 40.2828 5.269 42.7681 2.05078 44.1215Z" fill="#B80000"/>
<path d="M45.5172 13.9947H46.1237V14.601C46.1237 15.1673 46.5827 15.6264 47.1491 15.6264C47.7155 15.6264 48.1745 15.1673 48.1745 14.601V13.9947H48.7808C49.3473 13.9947 49.8062 13.5356 49.8062 12.9693C49.8062 12.403 49.3473 11.9439 48.7808 11.9439H48.1745V11.3375C48.1745 10.7713 47.7155 10.3121 47.1491 10.3121C46.5827 10.3121 46.1237 10.7713 46.1237 11.3375V11.9439H45.5172C44.9508 11.9439 44.4918 12.403 44.4918 12.9693C44.4918 13.5356 44.9508 13.9947 45.5172 13.9947Z" fill="#B80000"/>
<path d="M33.5565 52.726C34.123 52.726 34.5819 52.2669 34.5819 51.7006V51.0943H35.1883C35.7547 51.0943 36.2137 50.6352 36.2137 50.0689C36.2137 49.5026 35.7547 49.0435 35.1883 49.0435H34.5819V48.4371C34.5819 47.8709 34.123 47.4118 33.5565 47.4118C32.9901 47.4118 32.5311 47.8709 32.5311 48.4371V49.0435H31.9247C31.3582 49.0435 30.8993 49.5026 30.8993 50.0689C30.8993 50.6352 31.3582 51.0943 31.9247 51.0943H32.5311V51.7006C32.5311 52.2669 32.9902 52.726 33.5565 52.726Z" fill="#B80000"/>
<path d="M18.0247 21.2663C22.7596 21.2663 26.8539 18.0576 27.9814 13.4631C28.1163 12.9131 27.7799 12.3579 27.2299 12.2229C26.6797 12.0879 26.1246 12.4245 25.9897 12.9744C25.0879 16.6491 21.8127 19.2156 18.0247 19.2156C13.5018 19.2156 9.82201 15.5356 9.82201 11.0124C9.82201 6.48923 13.5018 2.80931 18.0247 2.80931C21.6483 2.80931 24.8864 5.23771 25.8989 8.71474C26.0574 9.25833 26.6261 9.57142 27.1703 9.41255C27.714 9.25423 28.0264 8.68507 27.8681 8.14134C26.6019 3.79451 22.5544 0.75853 18.0249 0.75853C12.371 0.75853 7.77136 5.35843 7.77136 11.0124C7.77136 16.6664 12.3709 21.2663 18.0247 21.2663Z" fill="#B80000"/>
<path d="M19.555 7.46541C19.9552 7.46541 20.3495 7.5324 20.7268 7.66447C21.2614 7.85109 21.8463 7.56986 22.0335 7.03529C22.2206 6.50072 21.9389 5.91584 21.4043 5.72867C20.8087 5.52017 20.1864 5.41449 19.555 5.41449C17.3342 5.41449 15.4115 6.71427 14.5072 8.59306H14.0589C13.4925 8.59306 13.0335 9.05217 13.0335 9.61845C13.0335 10.1549 13.4456 10.5945 13.9705 10.6393C13.9623 10.7629 13.9567 10.8872 13.9567 11.0127C13.9567 11.1382 13.9623 11.2626 13.9705 11.3861C13.4456 11.4309 13.0335 11.8705 13.0335 12.407C13.0335 12.9733 13.4925 13.4324 14.0589 13.4324H14.5072C15.4115 15.311 17.3343 16.6109 19.555 16.6109C20.1864 16.6109 20.8087 16.5053 21.4043 16.2968C21.9387 16.1096 22.2205 15.5247 22.0335 14.9901C21.8464 14.4557 21.2616 14.1739 20.7268 14.361C20.3494 14.493 19.9551 14.56 19.555 14.56C18.5336 14.56 17.6121 14.1255 16.9642 13.4322H19.3923C19.9588 13.4322 20.4177 12.9731 20.4177 12.4068C20.4177 11.8405 19.9588 11.3814 19.3923 11.3814H16.0266C16.014 11.2602 16.0073 11.1371 16.0073 11.0124C16.0073 10.8879 16.0139 10.7648 16.0266 10.6434H19.3923C19.9588 10.6434 20.4177 10.1843 20.4177 9.61804C20.4177 9.05176 19.9588 8.59265 19.3923 8.59265H16.9641C17.6121 7.8999 18.5336 7.46541 19.555 7.46541Z" fill="#B80000"/>
</svg>
