<svg width="70" height="70" viewBox="0 0 70 70" fill="none" xmlns="http://www.w3.org/2000/svg">
<path d="M35 0C15.6702 0 0 15.6702 0 35C0 54.3298 15.6702 70 35 70C54.3298 70 70 54.3298 70 35C69.9783 15.6794 54.3206 0.0216472 35 0ZM65.2701 47.2614L55.3164 48.9789C56.4557 44.8005 57.071 40.4967 57.1479 36.1667H67.6376C67.506 39.9754 66.7045 43.7312 65.2701 47.2614ZM2.36239 36.1667H12.8521C12.929 40.4967 13.5443 44.8005 14.6836 48.9789L4.7299 47.2614C3.29549 43.7312 2.49398 39.9754 2.36239 36.1667ZM4.7299 22.7386L14.6836 21.0211C13.5443 25.1995 12.929 29.5033 12.8521 33.8333H2.36239C2.49398 30.0246 3.29549 26.2688 4.7299 22.7386ZM36.1667 18.7322C40.3588 18.7857 44.5407 19.1674 48.6736 19.8743L52.7917 20.5847C54.0569 24.8902 54.7376 29.3461 54.8157 33.8333H36.1667V18.7322ZM49.0712 17.5746C44.8073 16.846 40.4921 16.4524 36.1667 16.3988V2.39884C42.8551 3.04142 48.665 9.16528 51.9577 18.0776L49.0712 17.5746ZM33.8333 16.3988C29.5079 16.4524 25.1938 16.846 20.9299 17.5746L18.0423 18.0742C21.335 9.15959 27.1449 3.03345 33.8333 2.39372V16.3988ZM21.3276 19.8743C25.4599 19.1674 29.6412 18.7857 33.8333 18.7322V33.8333H15.1843C15.2624 29.3461 15.9431 24.8902 17.2083 20.5847L21.3276 19.8743ZM15.1843 36.1667H33.8333V51.2678C29.6412 51.2143 25.4593 50.8326 21.3264 50.1256L17.2083 49.4153C15.9431 45.1098 15.2624 40.6539 15.1843 36.1667ZM20.9288 52.4254C25.1927 53.1551 29.5073 53.5505 33.8333 53.6074V67.6074C27.1449 66.9643 21.335 60.8404 18.0423 51.9281L20.9288 52.4254ZM36.1667 53.6074C40.4921 53.5505 44.8062 53.1551 49.0701 52.4254L51.9577 51.9258C48.665 60.8404 42.8551 66.9666 36.1667 67.6063V53.6074ZM48.6724 50.1256C44.5401 50.8326 40.3588 51.2143 36.1667 51.2678V36.1667H54.8157C54.7376 40.6539 54.0569 45.1098 52.7917 49.4153L48.6724 50.1256ZM57.1479 33.8333C57.071 29.5033 56.4557 25.1995 55.3164 21.0211L65.2701 22.7386C66.7045 26.2688 67.506 30.0246 67.6376 33.8333H57.1479ZM64.0898 20.1672L54.5485 18.5208C52.8333 12.925 49.6243 7.90291 45.2664 3.99561C53.4154 6.71517 60.1733 12.5206 64.0898 20.1672ZM24.7336 3.99561C20.3757 7.90291 17.1667 12.925 15.4515 18.5208L5.91024 20.1672C9.82666 12.5206 16.5846 6.71517 24.7336 3.99561ZM5.91024 49.8328L15.4515 51.4792C17.1667 57.0749 20.3757 62.0971 24.7336 66.0044C16.5846 63.2848 9.82666 57.4794 5.91024 49.8328ZM45.2664 66.0044C49.6243 62.0971 52.8333 57.0749 54.5485 51.4792L64.0898 49.8328C60.1733 57.4794 53.4154 63.2848 45.2664 66.0044Z" fill="#B80000"/>
</svg>
