<svg width="70" height="70" viewBox="0 0 70 70" fill="none" xmlns="http://www.w3.org/2000/svg">
<g clip-path="url(#clip0)">
<path d="M63.6365 0H6.36369C2.85558 0 0 2.85394 0 6.36369V63.6365C0 67.1461 2.85558 70.0002 6.36369 70.0002H63.6365C67.1446 70.0002 70.0002 67.1462 70.0002 63.6365V6.36369C70 2.85394 67.1446 0 63.6365 0ZM66.8182 63.6365C66.8182 65.3904 65.3919 66.8182 63.6365 66.8182H6.36369C4.60807 66.8182 3.18192 65.3904 3.18192 63.6365V15.9092H66.8182V63.6365ZM66.8182 12.7272H3.18177V6.36369C3.18177 4.60971 4.60807 3.18192 6.36354 3.18192H63.6363C65.3919 3.18192 66.8181 4.60971 66.8181 6.36369V12.7272H66.8182Z" fill="#B80000"/>
<path d="M7.9545 9.54545C8.83316 9.54545 9.54546 8.83315 9.54546 7.95449C9.54546 7.07582 8.83316 6.36353 7.9545 6.36353C7.07584 6.36353 6.36354 7.07582 6.36354 7.95449C6.36354 8.83315 7.07584 9.54545 7.9545 9.54545Z" fill="#B80000"/>
<path d="M14.3182 9.54545C15.1969 9.54545 15.9092 8.83315 15.9092 7.95449C15.9092 7.07582 15.1969 6.36353 14.3182 6.36353C13.4395 6.36353 12.7272 7.07582 12.7272 7.95449C12.7272 8.83315 13.4395 9.54545 14.3182 9.54545Z" fill="#B80000"/>
<path d="M20.6819 9.54545C21.5606 9.54545 22.2728 8.83315 22.2728 7.95449C22.2728 7.07582 21.5606 6.36353 20.6819 6.36353C19.8032 6.36353 19.0909 7.07582 19.0909 7.95449C19.0909 8.83315 19.8032 9.54545 20.6819 9.54545Z" fill="#B80000"/>
<path d="M35.0001 58.8637C44.648 58.8637 52.5 51.0133 52.5 41.3638C52.5 31.7142 44.648 23.8636 35.0001 23.8636C25.3522 23.8636 17.5001 31.714 17.5001 41.3636C17.5001 51.0132 25.352 58.8637 35.0001 58.8637ZM35.0001 55.6818C30.0469 55.6818 25.6776 53.1514 23.1057 49.3181H34.9847C34.9898 49.3181 34.995 49.3196 35.0001 49.3196C35.0028 49.3196 35.0053 49.3181 35.008 49.3181H46.8943C44.3226 53.1514 39.9531 55.6818 35.0001 55.6818ZM37.924 45.7976L36.4604 45.173C36.2957 45.563 35.9849 45.8643 35.5934 46.0214C35.2019 46.1768 34.7668 46.1751 34.3753 46.0073C33.9838 45.8395 33.6824 45.5304 33.524 45.1342C33.3654 44.7412 33.3717 44.3093 33.5363 43.9193C33.785 43.3631 35.2639 41.6726 37.0289 39.8068C36.8984 42.3733 36.6934 44.6076 36.4602 45.1715L37.924 45.7976ZM20.8427 42.9546H22.2729C23.1522 42.9546 23.8638 42.243 23.8638 41.3636C23.8638 40.4842 23.1522 39.7726 22.2729 39.7726H20.8427C21.1519 37.0245 22.2202 34.5295 23.8637 32.4753L24.8767 33.4883C25.1874 33.799 25.5945 33.9544 26.0015 33.9544C26.4086 33.9544 26.8156 33.799 27.1264 33.4883C27.7479 32.8668 27.7479 31.8601 27.1264 31.2387L26.1134 30.2257C28.1675 28.583 30.6618 27.5152 33.4093 27.2062V28.6364C33.4093 29.5158 34.1209 30.2273 35.0002 30.2273C35.8796 30.2273 36.5912 29.5158 36.5912 28.6364V27.2062C39.3386 27.5152 41.833 28.5828 43.8871 30.2257L42.874 31.2387C42.2525 31.8602 42.2525 32.867 42.874 33.4883C43.1847 33.799 43.5919 33.9544 43.9989 33.9544C44.4059 33.9544 44.813 33.799 45.1238 33.4883L46.1368 32.4753C47.7804 34.5295 48.8486 37.0245 49.1578 39.7726H47.7273C46.8479 39.7726 46.1364 40.4842 46.1364 41.3636C46.1364 42.243 46.8479 42.9546 47.7273 42.9546H49.1575C49.0334 44.0586 48.8003 45.1221 48.4387 46.1363H39.4708C40.1505 44.0617 40.3179 37.7602 40.3508 35.797C40.3602 35.1507 39.981 34.5634 39.3876 34.3086C38.791 34.0522 38.1012 34.1827 37.6445 34.6379C36.1871 36.0735 31.3709 40.899 30.6159 42.6639C30.1376 43.7771 30.1144 45.0012 30.517 46.1362H21.5616C21.1997 45.1221 20.9668 44.0586 20.8427 42.9546Z" fill="#B80000"/>
</g>
<defs>
<clipPath id="clip0">
<rect width="70" height="70" fill="white"/>
</clipPath>
</defs>
</svg>
