<svg width="83" height="26" viewBox="0 0 83 26" fill="none" xmlns="http://www.w3.org/2000/svg">
<rect width="25" height="25" fill="#3F3F42"/>
<rect x="29" width="25" height="25" fill="#3F3F42"/>
<rect x="58" width="25" height="25" fill="#3F3F42"/>
<path d="M16.39 13.356C17.202 13.622 17.846 14.07 18.322 14.7C18.798 15.316 19.036 16.086 19.036 17.01C19.036 18.284 18.546 19.271 17.566 19.971C16.586 20.657 15.158 21 13.282 21H5.974V6.3H12.862C14.598 6.3 15.935 6.643 16.873 7.329C17.811 8.001 18.28 8.932 18.28 10.122C18.28 10.85 18.112 11.494 17.776 12.054C17.44 12.614 16.978 13.048 16.39 13.356ZM8.704 8.442V12.495H12.568C13.52 12.495 14.248 12.327 14.752 11.991C15.27 11.641 15.529 11.137 15.529 10.479C15.529 9.807 15.27 9.303 14.752 8.967C14.248 8.617 13.52 8.442 12.568 8.442H8.704ZM13.114 18.858C15.228 18.858 16.285 18.151 16.285 16.737C16.285 15.323 15.228 14.616 13.114 14.616H8.704V18.858H13.114Z" fill="white"/>
<path d="M45.39 13.356C46.202 13.622 46.846 14.07 47.322 14.7C47.798 15.316 48.036 16.086 48.036 17.01C48.036 18.284 47.546 19.271 46.566 19.971C45.586 20.657 44.158 21 42.282 21H34.974V6.3H41.862C43.598 6.3 44.935 6.643 45.873 7.329C46.811 8.001 47.28 8.932 47.28 10.122C47.28 10.85 47.112 11.494 46.776 12.054C46.44 12.614 45.978 13.048 45.39 13.356ZM37.704 8.442V12.495H41.568C42.52 12.495 43.248 12.327 43.752 11.991C44.27 11.641 44.529 11.137 44.529 10.479C44.529 9.807 44.27 9.303 43.752 8.967C43.248 8.617 42.52 8.442 41.568 8.442H37.704ZM42.114 18.858C44.228 18.858 45.285 18.151 45.285 16.737C45.285 15.323 44.228 14.616 42.114 14.616H37.704V18.858H42.114Z" fill="white"/>
<path d="M70.778 21.21C69.294 21.21 67.95 20.888 66.746 20.244C65.556 19.586 64.618 18.683 63.932 17.535C63.26 16.387 62.924 15.092 62.924 13.65C62.924 12.208 63.267 10.913 63.953 9.765C64.639 8.617 65.577 7.721 66.767 7.077C67.971 6.419 69.315 6.09 70.799 6.09C72.003 6.09 73.102 6.3 74.096 6.72C75.09 7.14 75.93 7.749 76.616 8.547L74.852 10.206C73.788 9.058 72.479 8.484 70.925 8.484C69.917 8.484 69.014 8.708 68.216 9.156C67.418 9.59 66.795 10.199 66.347 10.983C65.899 11.767 65.675 12.656 65.675 13.65C65.675 14.644 65.899 15.533 66.347 16.317C66.795 17.101 67.418 17.717 68.216 18.165C69.014 18.599 69.917 18.816 70.925 18.816C72.479 18.816 73.788 18.235 74.852 17.073L76.616 18.753C75.93 19.551 75.083 20.16 74.075 20.58C73.081 21 71.982 21.21 70.778 21.21Z" fill="white"/>
</svg>
