<svg width="35" height="35" viewBox="0 0 35 35" fill="none" xmlns="http://www.w3.org/2000/svg">
<path fill-rule="evenodd" clip-rule="evenodd" d="M17.5 0C7.83502 0 0 7.83502 0 17.5C0 27.165 7.83502 35 17.5 35C27.165 35 35 27.165 35 17.5C35 7.83502 27.165 0 17.5 0ZM18.9249 23.0243C18.7523 23.2063 18.4154 23.243 18.4154 23.243H17.2998C17.2998 23.243 14.8383 23.3882 12.67 21.1728C10.3054 18.7558 8.21736 13.9603 8.21736 13.9603C8.21736 13.9603 8.09684 13.6458 8.2274 13.4943C8.37439 13.3231 8.77519 13.3124 8.77519 13.3124L11.442 13.2953C11.442 13.2953 11.6931 13.3357 11.873 13.4656C12.0218 13.5732 12.1049 13.773 12.1049 13.773C12.1049 13.773 12.5358 14.8431 13.1064 15.8109C14.2212 17.701 14.7397 18.1141 15.1177 17.9116C15.6692 17.6168 15.5039 15.2401 15.5039 15.2401C15.5039 15.2401 15.514 14.3779 15.2264 13.9935C15.0036 13.6959 14.5836 13.609 14.3983 13.5848C14.2476 13.5651 14.4941 13.2228 14.8137 13.0695C15.2939 12.8392 16.1412 12.8257 17.1427 12.8356C17.9233 12.8437 18.1479 12.8912 18.4529 12.9638C19.1606 13.1314 19.1385 13.6686 19.0908 14.8281C19.0765 15.1749 19.06 15.5773 19.06 16.0422C19.06 16.1466 19.0569 16.258 19.0537 16.3725C19.0372 16.9665 19.0182 17.6468 19.417 17.9C19.6215 18.029 20.1209 17.9188 21.3708 15.836C21.9633 14.8484 22.407 13.6879 22.407 13.6879C22.407 13.6879 22.5047 13.4809 22.6553 13.3921C22.8096 13.3016 23.0178 13.3294 23.0178 13.3294L25.8243 13.3124C25.8243 13.3124 26.6679 13.2129 26.804 13.5875C26.9473 13.9791 26.489 14.895 25.3423 16.3953C24.2545 17.8187 23.7252 18.3428 23.7737 18.8063C23.8093 19.145 24.1533 19.4514 24.8136 20.0526C26.1921 21.3088 26.5615 21.9697 26.6503 22.1285C26.6577 22.1417 26.6631 22.1514 26.667 22.1577C27.2851 23.1641 25.9814 23.243 25.9814 23.243L23.488 23.2771C23.488 23.2771 22.953 23.381 22.2481 22.906C21.8789 22.6575 21.5181 22.2514 21.1745 21.8647C20.6497 21.2741 20.1649 20.7285 19.7511 20.8574C19.0563 21.0742 19.0773 22.5431 19.0773 22.5431C19.0773 22.5431 19.0828 22.8576 18.9249 23.0243Z" fill="#B80000"/>
</svg>
