<svg width="48" height="48" viewBox="0 0 48 48" fill="none" xmlns="http://www.w3.org/2000/svg">
<path d="M0 16C0 7.16344 7.16344 0 16 0H32C40.8366 0 48 7.16344 48 16V32C48 40.8366 40.8366 48 32 48H16C7.16344 48 0 40.8366 0 32V16Z" fill="#AAADB2"/>
<path d="M26.146 23.492C27.444 24.02 28.698 25.164 28.698 27.276C28.698 29.652 26.63 31.764 23.418 31.764C20.118 31.764 18.204 29.63 17.962 27.276H20.514C20.646 28.244 21.636 29.41 23.396 29.41C25.134 29.41 26.146 28.42 26.146 27.078C26.146 25.714 25.134 24.724 23.308 24.724H22.208V22.59H23.198C24.848 22.59 25.794 21.666 25.794 20.412C25.794 19.136 24.848 18.19 23.33 18.19C21.79 18.19 20.844 19.202 20.734 20.236H18.182C18.358 17.926 20.382 15.836 23.308 15.836C26.344 15.836 28.346 17.882 28.346 20.236C28.346 21.82 27.29 22.876 26.146 23.492Z" fill="white"/>
</svg>
