<svg width="20" height="22" viewBox="0 0 20 22" fill="none" xmlns="http://www.w3.org/2000/svg">

<path d="M9.625 2C7.76369 2 6.25 3.495 6.25 5.33333V6.16667C6.25 8.005 7.76369 9.5 9.625 9.5C11.4863 9.5 13 8.005 13 6.16667V5.33333C13 3.495 11.4863 2 9.625 2ZM9.625 11C6.93644 11 4.75 8.8265 4.75 6.15385V5.34615C4.75 2.6735 6.93644 0.5 9.625 0.5C12.3136 0.5 14.5 2.6735 14.5 5.34615V6.15385C14.5 8.8265 12.3136 11 9.625 11ZM0.25 20C0.25 19.45 0.25 19.0052 0.25 18.6657C0.25 16.6041 1.58841 14.7863 3.50384 14.2464C5.11525 13.7917 7.55009 13.25 10 13.25C12.449 13.25 14.8847 13.7917 16.4962 14.2464C18.4116 14.7873 19.75 16.6041 19.75 18.6657C19.75 19.0052 19.75 19.45 19.75 20C19.75 20.825 19.075 21.5 18.25 21.5H1.75C0.925 21.5 0.25 20.825 0.25 20ZM1.75 20H18.25V18.8534C18.25 17.437 17.4223 16.1874 16.237 15.8179C14.6777 15.3306 12.3302 14.75 10 14.75C7.66983 14.75 5.32225 15.3306 3.76392 15.8179C2.57775 16.1874 1.75 17.437 1.75 18.8534V20Z" fill="#4D4D4D"/>

</svg>
