<?xml version="1.0" encoding="UTF-8"?>
<!DOCTYPE svg PUBLIC "-//W3C//DTD SVG 1.1//EN" "http://www.w3.org/Graphics/SVG/1.1/DTD/svg11.dtd">
<!-- Creator: CorelDRAW 2017 -->
<svg xmlns="http://www.w3.org/2000/svg" xml:space="preserve" width="11.9379in" height="1.86878in" version="1.1" style="shape-rendering:geometricPrecision; text-rendering:geometricPrecision; image-rendering:optimizeQuality; fill-rule:evenodd; clip-rule:evenodd"
viewBox="0 0 3447.26 539.64"
 xmlns:xlink="http://www.w3.org/1999/xlink">
 <defs>
  <style type="text/css">
   <![CDATA[
    .fil0 {fill:#231F20;fill-rule:nonzero}
    .fil1 {fill:#69BA31;fill-rule:nonzero}
   ]]>
  </style>
 </defs>
 <g id="Layer_x0020_1">
  <metadata id="CorelCorpID_0Corel-Layer"/>
  <g id="_2308050186400">
   <path class="fil0" d="M2484.23 262c14.86,-3.65 26.52,-10.88 34.99,-21.7 8.47,-10.81 12.71,-23.78 12.71,-38.9 0,-21.11 -8.4,-37.79 -25.22,-50.04 -16.8,-12.25 -39.81,-18.38 -69,-18.38l-91.76 0c-16.48,0 -29.84,13.36 -29.84,29.84l0 214.01c0,16.48 13.36,29.84 29.84,29.84l95.27 0c31.28,0 55.97,-6.71 74.09,-20.13 18.12,-13.42 27.17,-31.87 27.17,-55.33 0,-18.24 -5.15,-33.49 -15.44,-45.74 -10.3,-12.25 -24.57,-20.07 -42.81,-23.46zm-115.73 -83.67l66.46 0c13.55,-0.26 24.18,2.48 31.87,8.21 7.68,5.73 11.53,13.82 11.53,24.24 0,10.69 -3.85,19.03 -11.53,25.02 -7.69,6 -18.32,8.99 -31.87,8.99l-66.46 0 0 -66.47zm105.56 173.6c-9.38,6.52 -22.42,9.65 -39.1,9.38l-66.46 0 0 -72.33 66.46 0c16.68,-0.26 29.71,2.8 39.1,9.19 9.38,6.39 14.08,15.18 14.08,26.39 0,11.73 -4.69,20.85 -14.08,27.37z"/>
   <path class="fil0" d="M3131.51 132.97l-44.18 0c-1.84,0 -3.33,1.49 -3.33,3.32l0 185.52 -131.22 -175.57c-6.24,-8.35 -16.06,-13.28 -26.5,-13.28 -18.27,0 -33.08,14.81 -33.08,33.08l0 237.29c0,1.84 1.49,3.33 3.32,3.33l44.57 0c1.83,0 3.33,-1.49 3.33,-3.33l0 -185.13 130.23 174.37c6.42,8.6 16.42,14.1 27.15,14.09 18.24,-0.03 33.02,-14.82 33.02,-33.08l0 -237.29c0,-1.84 -1.49,-3.32 -3.32,-3.32z"/>
   <path class="fil0" d="M3446.65 401.42l-108.11 -152.72 100.13 -110.17c1.94,-2.14 0.42,-5.56 -2.46,-5.56l-52.79 0c-0.94,0 -1.83,0.4 -2.46,1.1l-122.56 135.36 0 -133.12c0,-1.84 -1.49,-3.33 -3.32,-3.33l-45.75 0c-1.84,0 -3.32,1.49 -3.32,3.33l0 267.04c0,1.84 1.48,3.32 3.32,3.32l45.75 0c1.84,0 3.32,-1.49 3.32,-3.32l0 -66.67 43.01 -47.31 85.02 115.94c0.63,0.85 1.62,1.36 2.68,1.36l54.84 0c2.7,0 4.28,-3.04 2.72,-5.25z"/>
   <path class="fil1" d="M1240.21 132.97l0 0c-14.32,0 -27.3,8.42 -33.13,21.5l-80.33 180.05 -81.08 -180.16c-5.86,-13.02 -18.81,-21.39 -33.08,-21.39l-0.08 0c-20.04,0 -36.28,16.24 -36.28,36.28l0 234.08c0,1.84 1.49,3.33 3.32,3.33l41.05 0c1.83,0 3.32,-1.49 3.32,-3.33l0 -192.95 78.68 180.35c3.25,7.45 9.64,13.26 17.54,15.18 12.52,3.04 24.85,-3.45 29.73,-14.69l78.53 -180.84 0 192.95c0,1.84 1.49,3.33 3.32,3.33l41.44 0c1.84,0 3.32,-1.49 3.32,-3.33l0 -234.08c0,-20.04 -16.24,-36.28 -36.28,-36.28z"/>
   <path class="fil1" d="M1549.59 360.92l-149.55 0 0 -68.81 129.61 0c1.84,0 3.32,-1.49 3.32,-3.32l0 -39.1c0,-1.84 -1.49,-3.32 -3.32,-3.32l-129.61 0 0 -67.64 144.86 0c1.84,0 3.32,-1.49 3.32,-3.33l0 -39.1c0,-1.84 -1.49,-3.32 -3.32,-3.32l-167.41 0c-16.48,0 -29.84,13.36 -29.84,29.84l0 214.01c0,16.48 13.36,29.84 29.84,29.84l172.1 0c1.84,0 3.33,-1.49 3.33,-3.33l0 -39.09c0,-1.84 -1.49,-3.33 -3.33,-3.33z"/>
   <path class="fil1" d="M1945.65 132.97l-45.75 0c-1.84,0 -3.32,1.49 -3.32,3.32l0 267.04c0,1.84 1.48,3.33 3.32,3.33l45.75 0c1.84,0 3.32,-1.49 3.32,-3.33l0 -267.04c0,-1.84 -1.49,-3.32 -3.32,-3.32z"/>
   <path class="fil1" d="M1781.97 315.86c4.72,-1.94 9.25,-4.22 13.33,-6.91 10.54,-6.95 19.44,-16.25 26.03,-27.01 9.25,-15.11 13.88,-33.36 13.88,-54.74 0,-29.97 -9.65,-53.17 -28.93,-69.6 -19.3,-16.42 -46.66,-24.63 -82.11,-24.63l-84.32 0c-16.48,0 -29.84,13.36 -29.84,29.84l0 240.53c0,1.84 1.49,3.32 3.32,3.32l45.75 0c1.84,0 3.33,-1.48 3.33,-3.32l0 -77.22 61.77 0 0.07 0 58.07 79.19c0.63,0.85 1.62,1.36 2.68,1.36l54.84 0c2.7,0 4.27,-3.04 2.71,-5.25l-60.57 -85.56zm-12.45 -48.79c-10.43,8.6 -25.55,12.91 -45.36,12.91l-61.77 0 0 -101.26 61.77 0c19.81,0 34.92,4.17 45.36,12.51 10.42,8.35 15.64,20.86 15.64,37.54 0,16.95 -5.22,29.72 -15.64,38.31z"/>
   <path class="fil1" d="M698.86 404.63l93.81 -213.89 93.8 213.89c0.53,1.21 1.73,1.99 3.04,1.99l44.69 0c2.39,0 4.01,-2.46 3.04,-4.66l-107.26 -244.56c-14.26,-32.51 -60.38,-32.51 -74.64,0l-107.25 244.56c-0.97,2.2 0.64,4.66 3.04,4.66l44.68 0c1.32,0 2.52,-0.78 3.05,-1.99z"/>
   <path class="fil1" d="M2038.75 404.63l93.8 -213.89 93.8 213.89c0.53,1.21 1.73,1.99 3.05,1.99l44.69 0c2.39,0 4.01,-2.46 3.04,-4.66l-107.26 -244.56c-14.26,-32.51 -60.38,-32.51 -74.64,0l-107.25 244.56c-0.97,2.2 0.64,4.66 3.04,4.66l44.68 0c1.32,0 2.51,-0.78 3.05,-1.99z"/>
   <path class="fil0" d="M2615.85 404.63l93.8 -213.89 93.8 213.89c0.53,1.21 1.73,1.99 3.05,1.99l44.69 0c2.39,0 4.01,-2.46 3.04,-4.66l-107.26 -244.56c-14.26,-32.51 -60.38,-32.51 -74.64,0l-107.25 244.56c-0.97,2.2 0.64,4.66 3.04,4.66l44.68 0c1.32,0 2.51,-0.78 3.05,-1.99z"/>
   <path class="fil1" d="M176.01 404.63l93.8 -213.89 93.8 213.89c0.53,1.21 1.73,1.99 3.05,1.99l44.69 0c2.39,0 4.01,-2.46 3.04,-4.66l-107.26 -244.56c-14.26,-32.51 -60.38,-32.51 -74.64,0l-107.26 244.56c-0.96,2.2 0.65,4.66 3.04,4.66l44.68 0c1.32,0 2.52,-0.78 3.05,-1.99z"/>
   <path class="fil1" d="M489.08 539.64l-438.52 0c-27.88,0 -50.55,-22.68 -50.55,-50.56l0 -438.52c0,-27.88 22.68,-50.56 50.55,-50.56l438.52 0c27.88,0 50.55,22.68 50.55,50.56l0 438.52c0,27.88 -22.68,50.56 -50.55,50.56zm-438.52 -523.02c-18.72,0 -33.94,15.22 -33.94,33.94l0 438.52c0,18.72 15.22,33.94 33.94,33.94l438.52 0c18.71,0 33.95,-15.22 33.95,-33.94l0 -438.52c0,-18.72 -15.23,-33.94 -33.95,-33.94l-438.52 0z"/>
  </g>
 </g>
</svg>
