<svg id="svg" version="1.1" xmlns="http://www.w3.org/2000/svg" xmlns:xlink="http://www.w3.org/1999/xlink" width="400" height="94.37499999999999" viewBox="0, 0, 400,94.37499999999999"><g id="svgg"><path id="path0" d="M21.127 0.095 C 21.078 0.144,21.146 0.537,21.278 0.967 C 21.880 2.925,22.366 4.832,22.497 5.750 C 22.576 6.300,22.812 7.688,23.021 8.833 C 24.898 19.091,21.912 29.097,13.587 40.453 C 11.939 42.700,11.628 43.143,9.918 45.667 C 8.328 48.013,7.991 48.582,6.320 51.750 C 3.325 57.425,1.905 66.036,3.015 71.788 C 4.369 78.805,9.423 84.967,14.703 86.040 C 15.870 86.277,15.894 86.254,15.586 85.236 C 14.800 82.636,14.979 78.775,16.009 76.135 C 17.631 71.974,19.456 69.578,26.399 62.487 C 31.337 57.443,34.994 53.364,34.998 52.895 C 34.999 52.792,35.122 52.606,35.271 52.482 C 35.539 52.260,37.500 49.426,37.500 49.262 C 37.500 49.215,37.875 48.542,38.333 47.766 C 39.181 46.331,39.519 45.590,40.545 42.917 C 42.850 36.909,43.578 27.462,42.161 21.948 C 41.800 20.541,41.105 18.553,40.560 17.363 C 40.252 16.692,40.000 16.070,40.000 15.982 C 40.000 15.782,38.627 13.341,37.947 12.333 C 37.669 11.921,37.290 11.358,37.105 11.083 C 36.011 9.461,32.524 5.842,31.251 5.008 C 31.035 4.866,30.396 4.395,29.832 3.960 C 27.863 2.445,21.571 -0.349,21.127 0.095 " stroke="none" fill="#fc2c24" fill-rule="evenodd"></path><path id="path1" d="M49.259 34.542 C 49.215 34.748,49.058 35.554,48.910 36.333 C 48.295 39.581,47.166 43.501,46.239 45.616 C 45.724 46.790,45.216 47.976,45.110 48.253 C 44.831 48.981,43.285 51.660,42.238 53.231 C 39.578 57.224,37.887 59.186,31.801 65.340 C 24.613 72.608,22.730 75.431,21.993 80.049 C 21.139 85.396,23.929 91.043,28.737 93.694 C 29.957 94.367,29.922 94.416,29.919 92.030 C 29.916 89.664,29.965 89.531,31.487 87.698 C 32.036 87.038,35.210 84.333,35.437 84.333 C 35.491 84.333,36.259 83.828,37.143 83.210 C 38.027 82.593,38.960 81.974,39.216 81.835 C 39.945 81.441,44.359 78.398,44.917 77.905 C 45.192 77.662,45.829 77.180,46.333 76.834 C 47.382 76.114,51.963 71.668,52.430 70.917 C 52.601 70.642,53.112 69.929,53.564 69.333 C 55.067 67.353,57.164 62.621,57.497 60.455 C 57.571 59.976,57.758 58.796,57.913 57.833 C 59.218 49.728,56.261 40.557,50.592 35.125 C 49.474 34.053,49.373 34.009,49.259 34.542 " stroke="none" fill="#6cc444" fill-rule="evenodd"></path><path id="path2" d="M6.913 8.278 C 9.156 13.734,8.434 17.576,3.968 23.962 C 0.885 28.370,0.000 30.725,0.000 34.520 C -0.000 38.589,1.332 41.386,4.395 43.746 C 5.579 44.659,5.625 44.663,5.753 43.875 C 6.055 42.027,7.230 39.538,8.898 37.216 C 9.504 36.373,10.000 35.623,10.000 35.550 C 10.001 35.477,10.230 35.154,10.511 34.833 C 10.987 34.289,11.980 32.834,13.924 29.833 C 14.369 29.146,14.815 28.358,14.913 28.083 C 15.012 27.808,15.187 27.416,15.301 27.211 C 18.879 20.800,17.269 13.052,11.654 9.659 C 9.669 8.460,6.623 7.573,6.913 8.278 " stroke="none" fill="#2cace4" fill-rule="evenodd"></path><path id="path3" d="" stroke="none" fill="#fc2c2c" fill-rule="evenodd"></path><path id="path4" d="M112.000 14.431 C 104.383 15.303,101.225 16.398,96.546 19.786 C 91.206 23.654,88.500 31.676,89.910 39.459 C 90.230 41.225,91.498 44.161,92.159 44.667 C 92.219 44.712,92.435 45.026,92.640 45.363 C 93.000 45.956,94.946 47.789,96.194 48.710 C 98.215 50.204,102.513 51.856,106.000 52.481 C 111.339 53.438,117.741 54.505,119.000 54.649 C 124.330 55.258,127.051 57.120,127.064 60.168 C 127.095 67.379,112.018 69.511,103.204 63.542 C 102.679 63.187,101.875 62.642,101.417 62.331 C 100.958 62.019,99.995 61.249,99.275 60.618 C 97.787 59.315,97.704 59.304,96.223 60.219 C 95.750 60.511,94.813 61.082,94.140 61.487 C 93.467 61.893,92.294 62.605,91.533 63.071 C 90.772 63.536,89.629 64.217,88.993 64.583 C 84.966 66.904,84.759 67.065,85.116 67.610 C 85.855 68.738,92.801 74.500,93.422 74.500 C 93.485 74.500,94.149 74.870,94.897 75.322 C 96.275 76.154,97.046 76.507,99.750 77.545 C 104.151 79.233,107.880 79.831,114.000 79.828 C 121.339 79.824,125.622 79.019,131.082 76.616 C 138.527 73.340,143.095 65.026,142.325 56.157 C 141.717 49.160,137.259 44.521,128.667 41.945 C 125.364 40.955,120.926 39.983,118.667 39.755 C 108.219 38.700,103.496 35.656,105.705 31.401 C 108.320 26.364,116.722 25.762,124.750 30.037 C 125.611 30.495,128.199 32.585,129.224 33.649 C 130.549 35.024,130.644 35.044,131.750 34.182 C 132.208 33.825,132.996 33.245,133.500 32.894 C 134.004 32.542,135.129 31.729,136.000 31.087 C 136.871 30.445,137.921 29.704,138.333 29.439 C 138.746 29.175,139.544 28.593,140.107 28.146 C 140.670 27.699,141.198 27.333,141.280 27.333 C 141.362 27.333,141.689 27.113,142.006 26.843 L 142.583 26.352 141.083 24.838 C 139.723 23.464,139.067 22.915,136.472 20.973 C 130.487 16.496,119.535 13.568,112.000 14.431 M177.417 14.437 C 172.976 14.915,170.076 15.596,167.580 16.747 C 166.937 17.044,166.240 17.341,166.030 17.407 C 163.262 18.286,156.881 23.663,155.174 26.556 C 154.948 26.938,154.709 27.289,154.642 27.337 C 154.466 27.462,152.500 30.711,152.500 30.876 C 152.500 30.953,152.228 31.593,151.897 32.299 C 147.138 42.424,148.258 58.375,154.291 66.417 C 154.635 66.875,155.023 67.455,155.152 67.706 C 155.798 68.959,160.740 73.847,161.932 74.413 C 162.236 74.557,162.531 74.749,162.586 74.838 C 162.736 75.081,165.660 76.772,166.422 77.057 C 166.786 77.193,167.868 77.611,168.827 77.986 C 177.616 81.419,190.792 80.084,197.689 75.062 C 198.114 74.753,198.526 74.499,198.606 74.497 C 198.855 74.493,202.063 71.640,203.289 70.333 C 205.140 68.359,206.921 65.691,208.295 62.833 C 212.448 54.192,212.896 43.083,209.456 34.000 C 207.482 28.790,202.652 22.313,199.069 20.073 C 198.802 19.906,197.979 19.374,197.241 18.891 C 192.317 15.669,183.786 13.752,177.417 14.437 M246.083 14.432 C 245.808 14.471,244.646 14.620,243.500 14.762 C 238.213 15.417,233.522 17.547,229.103 21.301 C 217.445 31.205,214.870 53.511,223.897 66.396 C 224.274 66.935,224.764 67.647,224.985 67.980 C 226.055 69.586,229.005 72.580,230.833 73.914 C 232.563 75.176,235.601 77.000,235.974 77.000 C 236.067 77.000,236.617 77.218,237.197 77.484 C 243.676 80.462,254.047 80.684,259.981 77.972 C 262.715 76.722,263.849 76.135,264.524 75.622 C 264.923 75.318,265.677 74.787,266.198 74.442 C 267.486 73.590,271.470 69.576,272.452 68.141 C 274.010 65.867,275.000 64.277,275.000 64.050 C 275.000 63.921,274.143 63.413,273.042 62.890 C 270.704 61.779,266.944 59.953,264.427 58.707 L 262.604 57.804 262.177 58.633 C 261.676 59.605,260.263 61.554,259.667 62.095 C 254.314 66.949,248.838 67.903,242.911 65.012 C 237.245 62.248,234.426 56.260,234.430 47.000 C 234.435 37.647,237.014 32.017,242.555 29.266 C 250.013 25.563,257.643 28.161,261.598 35.750 C 261.932 36.392,262.223 36.936,262.243 36.960 C 262.278 37.000,274.665 30.857,274.825 30.720 C 274.916 30.642,274.515 29.938,273.515 28.427 C 273.094 27.791,272.612 27.041,272.443 26.760 C 272.105 26.200,271.926 25.971,270.333 24.058 C 269.053 22.521,266.955 20.484,265.862 19.719 C 264.276 18.608,262.580 17.500,262.464 17.500 C 262.398 17.500,261.729 17.200,260.978 16.832 C 257.338 15.054,249.982 13.868,246.083 14.432 M298.423 17.208 C 298.163 17.873,297.777 18.946,297.565 19.592 C 297.354 20.239,296.701 22.001,296.114 23.509 C 295.527 25.016,295.007 26.438,294.957 26.667 C 294.907 26.896,294.552 27.871,294.169 28.833 C 293.785 29.796,293.172 31.446,292.807 32.500 C 292.441 33.554,291.801 35.279,291.384 36.333 C 290.967 37.387,290.310 39.150,289.923 40.250 C 289.536 41.350,288.824 43.300,288.342 44.583 C 285.546 52.014,285.000 53.493,285.000 53.638 C 285.000 53.726,284.543 54.950,283.985 56.357 C 283.426 57.765,282.757 59.554,282.497 60.333 C 282.238 61.112,281.713 62.538,281.332 63.500 C 280.951 64.462,280.422 65.894,280.158 66.681 C 279.893 67.468,279.187 69.366,278.588 70.898 C 277.990 72.430,277.500 73.766,277.500 73.865 C 277.500 73.965,277.162 74.901,276.750 75.943 C 276.337 76.986,276.000 77.913,276.000 78.003 C 276.000 78.108,279.008 78.166,284.375 78.166 L 292.750 78.165 293.870 74.791 C 294.486 72.935,295.193 70.760,295.441 69.957 L 295.893 68.498 307.218 68.541 L 318.543 68.583 319.258 70.750 C 319.651 71.942,320.343 74.079,320.795 75.500 L 321.616 78.083 330.058 78.127 C 339.325 78.174,338.798 78.233,338.270 77.200 C 338.143 76.953,337.815 76.075,337.539 75.250 C 337.264 74.425,336.580 72.605,336.020 71.206 C 335.459 69.807,335.000 68.585,335.000 68.491 C 335.000 68.397,334.438 66.915,333.750 65.199 C 333.063 63.483,332.500 61.993,332.500 61.889 C 332.500 61.785,331.938 60.300,331.250 58.589 C 330.563 56.878,330.000 55.402,330.000 55.309 C 330.000 55.217,329.438 53.728,328.750 52.000 C 328.063 50.272,327.500 48.785,327.500 48.694 C 327.500 48.603,326.938 47.121,326.250 45.400 C 325.563 43.680,325.000 42.183,325.000 42.075 C 325.000 41.966,324.438 40.478,323.750 38.766 C 323.063 37.055,322.500 35.577,322.500 35.482 C 322.500 35.386,321.938 33.894,321.250 32.167 C 320.563 30.439,320.000 28.951,320.000 28.860 C 320.000 28.769,319.438 27.287,318.750 25.567 C 318.063 23.846,317.500 22.369,317.500 22.283 C 317.500 22.198,316.956 20.750,316.292 19.065 L 315.083 16.001 306.989 16.000 L 298.896 16.000 298.423 17.208 M344.500 47.074 L 344.500 78.167 352.333 78.167 L 360.167 78.167 360.167 67.083 L 360.167 56.000 364.998 56.000 L 369.829 56.000 370.331 56.995 C 370.607 57.542,371.179 58.573,371.602 59.287 C 372.024 60.000,372.438 60.761,372.522 60.978 C 372.605 61.195,373.135 62.170,373.700 63.144 C 374.264 64.119,374.909 65.292,375.133 65.750 C 375.357 66.208,375.981 67.348,376.520 68.283 C 377.059 69.218,377.500 70.036,377.500 70.101 C 377.500 70.166,377.941 70.976,378.480 71.901 C 379.018 72.826,379.833 74.296,380.290 75.167 C 380.747 76.037,381.300 77.068,381.519 77.457 L 381.917 78.164 390.806 78.165 L 399.695 78.167 399.238 77.375 C 398.986 76.940,398.385 75.871,397.902 75.000 C 397.419 74.129,396.764 73.004,396.446 72.500 C 396.129 71.996,395.409 70.738,394.846 69.705 C 394.283 68.672,393.524 67.367,393.161 66.804 C 392.797 66.242,392.500 65.712,392.500 65.627 C 392.500 65.543,391.950 64.560,391.278 63.445 C 390.605 62.329,390.008 61.286,389.950 61.125 C 389.892 60.965,389.317 59.965,388.672 58.902 C 388.027 57.840,387.500 56.913,387.500 56.844 C 387.500 56.774,387.089 56.035,386.587 55.202 C 386.084 54.369,385.653 53.606,385.628 53.507 C 385.586 53.337,386.539 52.873,388.394 52.160 C 394.090 49.970,398.043 43.463,398.059 36.250 C 398.076 29.065,395.423 22.946,391.106 20.209 C 390.727 19.969,390.042 19.532,389.583 19.239 C 388.208 18.360,386.534 17.680,384.438 17.151 C 380.205 16.082,381.055 16.124,361.958 16.050 L 344.500 15.982 344.500 47.074 M183.612 27.937 C 186.966 28.604,191.203 31.444,192.539 33.920 C 195.354 39.139,196.348 43.700,195.871 49.224 C 194.911 60.343,189.289 66.590,180.250 66.581 C 172.562 66.574,167.409 62.134,165.259 53.667 C 164.730 51.585,164.570 46.669,164.911 42.984 C 165.912 32.163,173.632 25.952,183.612 27.937 M376.500 28.012 C 384.600 29.859,384.411 42.497,376.261 43.986 C 375.645 44.099,372.424 44.167,367.719 44.167 L 360.167 44.167 360.167 36.000 L 360.167 27.833 367.958 27.837 C 372.668 27.840,376.047 27.909,376.500 28.012 M308.698 36.583 C 309.341 38.692,310.008 40.965,310.179 41.635 C 310.351 42.305,310.937 44.255,311.481 45.968 C 312.026 47.681,312.557 49.466,312.663 49.933 C 312.768 50.400,313.291 52.144,313.825 53.808 L 314.796 56.833 307.260 56.833 L 299.723 56.833 299.931 55.875 C 300.046 55.348,300.670 53.243,301.320 51.198 C 301.969 49.153,302.500 47.384,302.500 47.268 C 302.500 47.151,302.997 45.487,303.605 43.569 C 304.213 41.652,304.877 39.446,305.080 38.667 C 306.059 34.911,307.241 31.593,307.388 32.186 C 307.465 32.496,308.054 34.475,308.698 36.583 " stroke="none" fill="#040404" fill-rule="evenodd"></path></g></svg>