<svg width="60" height="60" viewBox="0 0 60 60" fill="none" xmlns="http://www.w3.org/2000/svg">
<path fill-rule="evenodd" clip-rule="evenodd" d="M15.6328 36.9751L9.62577 41.7811C9.32577 42.0211 8.91375 42.0681 8.56775 41.9021C8.22075 41.7351 8.00076 41.3851 8.00076 41.0001V34.0001H5.36876C2.40375 34.0001 0.000732422 31.5971 0.000732422 28.6331C0.000732422 23.3811 0.000732422 14.62 0.000732422 9.36802C0.000732422 6.40401 2.40375 4 5.36876 4C14.1498 4 29.7198 4 38.5009 4C41.4659 4 43.8689 6.40401 43.8689 9.36802V23.6331H54.6329C57.5979 23.6331 60.001 26.0361 60.001 29.0001C60.001 34.2521 60.001 41.3811 60.001 46.6332C60.001 49.5972 57.5979 52.0002 54.6329 52.0002H52.0009V59.0002C52.0009 59.3852 51.7809 59.7352 51.4339 59.9022C51.0879 60.0682 50.6759 60.0212 50.3759 59.7812L40.6499 52.0002H21.0008C18.0358 52.0002 15.6328 49.5972 15.6328 46.6332V36.9751ZM41.6259 50.2192C41.4479 50.0782 41.2279 50.0002 41.0009 50.0002H21.0008C19.1408 50.0002 17.6328 48.4932 17.6328 46.6332V29.0001C17.6328 27.1401 19.1408 25.6331 21.0008 25.6331C29.7818 25.6331 45.8519 25.6331 54.6329 25.6331C56.4929 25.6331 58.0009 27.1401 58.0009 29.0001V46.6332C58.0009 48.4932 56.4929 50.0002 54.6329 50.0002H51.0009C50.4489 50.0002 50.0009 50.4482 50.0009 51.0002V56.9202L41.6259 50.2192ZM24.8168 42.0001H46.8169C47.3689 42.0001 47.8169 41.5521 47.8169 41.0001C47.8169 40.4481 47.3689 40.0001 46.8169 40.0001H24.8168C24.2648 40.0001 23.8168 40.4481 23.8168 41.0001C23.8168 41.5521 24.2648 42.0001 24.8168 42.0001ZM41.8689 23.6331V9.36802C41.8689 7.50801 40.3609 6.00001 38.5009 6.00001C29.7198 6.00001 14.1498 6.00001 5.36876 6.00001C3.50876 6.00001 2.00074 7.50801 2.00074 9.36802V28.6331C2.00074 30.4931 3.50876 32.0001 5.36876 32.0001H9.00077C9.55277 32.0001 10.0008 32.4481 10.0008 33.0001V38.9201L15.6328 34.4141V29.0001C15.6328 26.0361 18.0358 23.6331 21.0008 23.6331H41.8689ZM24.8168 36.0001H50.8169C51.3689 36.0001 51.8169 35.5521 51.8169 35.0001C51.8169 34.4481 51.3689 34.0001 50.8169 34.0001H24.8168C24.2648 34.0001 23.8168 34.4481 23.8168 35.0001C23.8168 35.5521 24.2648 36.0001 24.8168 36.0001ZM29.0008 17C27.8968 17 27.0008 17.8971 27.0008 19.0001C27.0008 20.1041 27.8968 21.0001 29.0008 21.0001C30.1048 21.0001 31.0008 20.1041 31.0008 19.0001C31.0008 17.8971 30.1048 17 29.0008 17ZM22.0008 17C20.8968 17 20.0008 17.8971 20.0008 19.0001C20.0008 20.1041 20.8968 21.0001 22.0008 21.0001C23.1048 21.0001 24.0008 20.1041 24.0008 19.0001C24.0008 17.8971 23.1048 17 22.0008 17ZM15.0008 17C13.8968 17 13.0008 17.8971 13.0008 19.0001C13.0008 20.1041 13.8968 21.0001 15.0008 21.0001C16.1048 21.0001 17.0008 20.1041 17.0008 19.0001C17.0008 17.8971 16.1048 17 15.0008 17Z" fill="url(#paint0_linear_342_42)"/>
<defs>
<linearGradient id="paint0_linear_342_42" x1="38.0009" y1="39.0001" x2="0.000735396" y2="9.00002" gradientUnits="userSpaceOnUse">
<stop stop-color="#0053FA"/>
<stop offset="1" stop-color="#0099FA"/>
</linearGradient>
</defs>
</svg>
