<svg width="60" height="60" viewBox="0 0 60 60" fill="none" xmlns="http://www.w3.org/2000/svg">
<path fill-rule="evenodd" clip-rule="evenodd" d="M44.4209 50.2937C42.9639 50.6827 41.6199 51.4507 40.5349 52.5357C38.9119 54.1577 38.0009 56.3587 38.0009 58.6527C38.0009 58.8527 38.0009 58.9977 38.0009 58.9977L39.0009 60.0017H59.0009L59.0439 59.9967C59.235 59.9717 60.001 59.8207 60.001 58.9977V58.6527C60.001 56.3587 59.09 54.1577 57.4669 52.5357C56.3819 51.4507 55.0379 50.6827 53.5809 50.2937C55.0629 49.0097 56.0009 47.1146 56.0009 45.0016C56.0009 41.1386 52.8639 38.0016 49.0009 38.0016C45.1379 38.0016 42.0009 41.1386 42.0009 45.0016C42.0009 47.1146 42.9389 49.0097 44.4209 50.2937ZM6.42077 50.2937C4.96376 50.6827 3.61974 51.4507 2.53474 52.5357C0.911732 54.1577 0.000732422 56.3587 0.000732422 58.6527C0.000732422 58.8527 0.000732422 58.9977 0.000732422 58.9977L1.00074 60.0017H21.0008L21.0438 59.9967C21.2348 59.9717 22.0008 59.8207 22.0008 58.9977V58.6527C22.0008 56.3587 21.0898 54.1577 19.4668 52.5357C18.3818 51.4507 17.0378 50.6827 15.5808 50.2937C17.0628 49.0097 18.0008 47.1146 18.0008 45.0016C18.0008 41.1386 14.8638 38.0016 11.0008 38.0016C7.13776 38.0016 4.00075 41.1386 4.00075 45.0016C4.00075 47.1146 4.93876 49.0097 6.42077 50.2937ZM57.9689 58.0017H40.0329C40.1829 56.4767 40.8559 55.0427 41.9489 53.9497C43.1959 52.7027 44.8879 52.0017 46.6519 52.0017C48.1919 52.0017 49.8099 52.0017 51.3499 52.0017C53.1139 52.0017 54.8059 52.7027 56.0529 53.9497C57.1459 55.0427 57.8189 56.4767 57.9689 58.0017ZM19.9688 58.0017H2.03275C2.18275 56.4767 2.85574 55.0427 3.94875 53.9497C5.19575 52.7027 6.88776 52.0017 8.65177 52.0017C10.1918 52.0017 11.8098 52.0017 13.3498 52.0017C15.1138 52.0017 16.8058 52.7027 18.0528 53.9497C19.1458 55.0427 19.8188 56.4767 19.9688 58.0017ZM49.0009 40.0016C51.7609 40.0016 54.0009 42.2416 54.0009 45.0016C54.0009 47.7616 51.7609 50.0016 49.0009 50.0016C46.2409 50.0016 44.0009 47.7616 44.0009 45.0016C44.0009 42.2416 46.2409 40.0016 49.0009 40.0016ZM11.0008 40.0016C13.7608 40.0016 16.0008 42.2416 16.0008 45.0016C16.0008 47.7616 13.7608 50.0016 11.0008 50.0016C8.24076 50.0016 6.00075 47.7616 6.00075 45.0016C6.00075 42.2416 8.24076 40.0016 11.0008 40.0016ZM26.0008 32.0016H23.0018C21.3448 32.0016 20.0008 33.3456 20.0008 35.0026V43.0006C20.0008 44.6576 21.3448 46.0016 23.0018 46.0016H30.9998C32.6568 46.0016 34.0009 44.6576 34.0009 43.0006V40.0016H36.9999C38.6569 40.0016 40.0009 38.6576 40.0009 37.0006V29.0026C40.0009 27.3456 38.6569 26.0016 36.9999 26.0016H29.0018C27.3448 26.0016 26.0008 27.3456 26.0008 29.0026V32.0016ZM26.0008 34.0016H23.0018C22.4488 34.0016 22.0008 34.4496 22.0008 35.0026V43.0006C22.0008 43.5536 22.4488 44.0016 23.0018 44.0016H30.9998C31.5528 44.0016 32.0009 43.5536 32.0009 43.0006V40.0016H29.0018C27.3448 40.0016 26.0008 38.6576 26.0008 37.0006V34.0016ZM28.0008 34.0016H30.9998C31.5528 34.0016 32.0009 34.4496 32.0009 35.0026V38.0016H29.0018C28.4488 38.0016 28.0008 37.5536 28.0008 37.0006V34.0016ZM34.0009 38.0016H36.9999C37.5529 38.0016 38.0009 37.5536 38.0009 37.0006V29.0026C38.0009 28.4496 37.5529 28.0016 36.9999 28.0016H29.0018C28.4488 28.0016 28.0008 28.4496 28.0008 29.0026V32.0016H30.9998C32.6568 32.0016 34.0009 33.3456 34.0009 35.0026V38.0016ZM5.98977 32.8506C4.65976 24.1286 8.19978 13.2445 18.3908 8.9225C18.8998 8.7065 19.1368 8.1195 18.9218 7.61149C18.7058 7.10249 18.1188 6.86549 17.6108 7.08049C6.49074 11.7965 2.56173 23.6356 4.01173 33.1526C4.09573 33.6976 4.60575 34.0736 5.15175 33.9906C5.69675 33.9066 6.07277 33.3966 5.98977 32.8506ZM55.99 33.1526C57.44 23.6356 53.5109 11.7965 42.3909 7.08049C41.8829 6.86549 41.2959 7.10249 41.0799 7.61149C40.8649 8.1195 41.1019 8.7065 41.6109 8.9225C51.8019 13.2445 55.3419 24.1286 54.0119 32.8506C53.9289 33.3966 54.3049 33.9066 54.8499 33.9906C55.3959 34.0736 55.906 33.6976 55.99 33.1526ZM25.4208 12.2935C23.9638 12.6825 22.6198 13.4505 21.5348 14.5355C19.9118 16.1575 19.0008 18.3585 19.0008 20.6525C19.0008 20.8525 19.0008 20.9975 19.0008 20.9975L20.0008 22.0015H40.0009L40.0439 21.9965C40.2349 21.9715 41.0009 21.8205 41.0009 20.9975V20.6525C41.0009 18.3585 40.0899 16.1575 38.4669 14.5355C37.3819 13.4505 36.0379 12.6825 34.5808 12.2935C36.0629 11.0095 37.0009 9.1145 37.0009 7.00149C37.0009 3.13848 33.8639 0.00146484 30.0008 0.00146484C26.1378 0.00146484 23.0008 3.13848 23.0008 7.00149C23.0008 9.1145 23.9388 11.0095 25.4208 12.2935ZM29.0008 14.0015V20.0015H21.0328C21.1828 18.4765 21.8558 17.0425 22.9488 15.9495C24.1958 14.7025 25.8878 14.0015 27.6518 14.0015H29.0008ZM31.0008 14.0015H32.3498C34.1139 14.0015 35.8059 14.7025 37.0529 15.9495C38.1459 17.0425 38.8189 18.4765 38.9689 20.0015H31.0008V14.0015ZM30.0008 2.00147C32.7609 2.00147 35.0009 4.24148 35.0009 7.00149C35.0009 9.7615 32.7609 12.0015 30.0008 12.0015C27.2408 12.0015 25.0008 9.7615 25.0008 7.00149C25.0008 4.24148 27.2408 2.00147 30.0008 2.00147Z" fill="white"/>
</svg>
