<svg width="16" height="16" viewBox="0 0 16 16" fill="none" xmlns="http://www.w3.org/2000/svg">
<g clip-path="url(#clip0_11974_206639)">
<path d="M7.99995 15.245C12.0013 15.245 15.245 12.0013 15.245 7.99995C15.245 3.99861 12.0013 0.754883 7.99995 0.754883C3.99861 0.754883 0.754883 3.99861 0.754883 7.99995C0.754883 12.0013 3.99861 15.245 7.99995 15.245Z" stroke="#818990" stroke-width="1.5"/>
<path d="M8.02822 9.02088C8.02822 9.02088 8.04457 8.69217 8.20487 8.39876C8.32178 8.18477 8.63585 7.83611 8.84235 7.66911C9.04885 7.50211 9.2712 7.24672 9.38046 7.05138C9.48685 6.84119 9.5393 6.60783 9.53307 6.37233C9.54076 6.00667 9.40615 5.65232 9.15764 5.38399C9.02726 5.25146 8.87105 5.14712 8.69869 5.07745C8.52633 5.00778 8.34149 4.97425 8.15564 4.97895C7.86593 4.97592 7.58242 5.06291 7.34426 5.22791C7.1061 5.39291 6.92505 5.62778 6.82609 5.90009L6.82479 5.90358L6.82176 5.91265C6.79813 5.9766 6.78535 6.04405 6.78394 6.11221" stroke="#818990" stroke-width="1.5" stroke-linecap="round"/>
<path d="M8 11.0415V11.1548" stroke="#818990" stroke-width="1.5" stroke-linecap="round"/>
</g>
<defs>
<clipPath id="clip0_11974_206639">
<rect width="16" height="16" fill="white"/>
</clipPath>
</defs>
</svg>