<?xml version="1.0" encoding="UTF-8"?>
<svg width="244px" height="143px" viewBox="0 0 244 143" version="1.1" xmlns="http://www.w3.org/2000/svg" xmlns:xlink="http://www.w3.org/1999/xlink">
    <!-- Generator: Sketch 52.4 (67378) - http://www.bohemiancoding.com/sketch -->
    <title>Group</title>
    <desc>Created with Sketch.</desc>
    <g id="Page-1" stroke="none" stroke-width="1" fill="none" fill-rule="evenodd">
        <g id="Depositphotos_74461421_vect" transform="translate(-7.000000, -292.000000)" fill="#D1D1D1">
            <g id="Group" transform="translate(7.000000, 291.000000)">
                <path d="M47.87,42.134 C51.163,37.585 50.523,31.282 47.606,26.509 C43.776,20.245 36.27,21.562 30.154,22.536 C29.69,22.61 28.931,23.495 28.949,23.963 C29.28,32.659 30.322,41.315 31.384,49.945 C31.902,54.153 32.316,58.37 32.699,62.592 C33.027,66.218 32.954,70.294 34.207,73.731 C34.397,74.242 35.735,74.408 36.13,74.338 C46.74,72.498 60.184,71.11 63.765,58.877 C66.706,48.83 56.85,41.812 47.87,42.134 Z M60.385,61.662 C55.655,70.269 35.517,72.856 35.438,72.902 C34.384,66.09 33.636,54.154 33.12,49.945 C32.054,41.284 30.235,23.914 30.231,23.889 C35.158,23.25 42.386,21.854 46.15,27.361 C49.186,31.804 49.466,39.131 45.09,42.424 C44.056,43.204 44.823,44.34 45.763,44.212 C55.944,42.83 66.106,51.258 60.385,61.662 Z" id="Fill-33"></path>
                <path d="M46.227,52.571 C45.14,52.27 43.325,52.608 42.346,53.612 C40.295,55.712 40.196,58.501 42.689,60.227 C44.849,61.721 47.931,61.105 48.988,58.632 C50.067,56.11 48.922,53.315 46.227,52.571 Z M47.567,57.741 C47.001,59.467 45.135,59.63 43.739,58.839 C41.991,57.845 41.908,56.032 43.147,54.772 C43.896,54.014 45.012,53.972 45.608,54.064 C47.475,54.353 48.105,56.1 47.567,57.741 Z" id="Fill-34"></path>
                <path d="M39.864,30.514 C37.031,30.035 36.491,32.655 36.434,32.85 C35.899,34.623 36.802,36.258 38.685,36.498 C40.336,36.705 42.096,35.701 42.349,33.982 C42.619,32.183 41.706,30.826 39.864,30.514 Z M40.948,33.595 C40.571,35.325 37.337,35.449 38.001,33.283 C38.044,33.141 38.345,31.776 39.585,31.819 C40.7,31.859 41.172,32.583 40.948,33.595 Z" id="Fill-35"></path>
                <path d="M83.068,41.613 C78.587,39.446 70.936,41.891 69.005,46.171 C65.085,52.821 66.868,61.041 71.848,65.956 C77.772,71.807 86.71,68.4 89.372,61.244 C92.082,53.951 90.64,45.278 83.068,41.613 Z M87.893,59.166 C85.977,66.309 78.342,69.359 72.649,64.034 C68.989,60.611 67.522,54.512 69.042,49.639 C71.402,43.346 77.052,41.2 82.67,43.697 C88.685,46.37 89.41,53.513 87.893,59.166 Z" id="Fill-36"></path>
                <path d="M78.939,51.235 C77.269,50.434 75.568,51.521 74.798,52.911 C73.612,55.059 74.028,57.716 76.237,59.074 C78.359,60.378 80.887,59.044 81.456,56.738 C81.984,54.599 80.933,52.196 78.939,51.235 Z M80.196,56.206 C79.591,57.51 78.476,58.462 77.044,57.691 C75.573,56.895 75.529,54.958 76.061,53.564 C76.325,52.875 77.414,51.821 78.659,52.405 C80.065,53.066 80.865,54.76 80.196,56.206 Z" id="Fill-37"></path>
                <path d="M117.811,45.683 C115.322,40.202 110.118,37.15 104.161,39.27 C103.176,39.619 102.494,40.103 101.713,40.751 C99.42,42.648 99.015,42.273 98.085,39.964 C97.263,37.919 93.616,38.245 92.999,40.312 C92.921,40.57 91.973,73.683 100.611,69.03 C104.253,67.07 100.889,58.64 100.624,55.885 C100.378,53.3 101.652,51.206 104.161,50.305 C107.617,49.065 109.105,53.371 109.529,55.738 C110.206,59.532 109.751,64.266 111.644,67.682 C112.553,69.326 114.815,69.498 116.536,69.051 C118.912,68.436 119.615,66.278 119.977,64.132 C120.909,58.626 120.131,50.807 117.811,45.683 Z M112.998,67.073 C112.213,66.012 112.137,60.003 111.568,56.551 C111.126,53.879 110.259,50.786 108.156,48.982 C106.508,47.571 100.941,48.672 99.919,51.707 C99.142,54.014 99.311,56.429 99.766,58.766 C100.017,60.071 100.073,61.516 100.321,62.823 C100.544,63.829 101.218,65.608 100.849,66.569 C99.333,70.502 96.483,67.375 96.236,64.277 C95.868,59.681 95.22,55.299 94.821,51.948 C94.398,48.361 93.818,40.529 94.425,40.343 C99.323,38.532 95.833,43.981 100.455,43.393 C102.481,43.134 103.549,41.086 105.572,40.382 C108.479,39.37 111.801,40.577 113.927,42.573 C117.2,45.641 118.145,51.178 118.546,55.384 C119.078,60.996 117.824,71.686 112.998,67.073 Z" id="Fill-38"></path>
                <path d="M150.221,60.545 C149.699,59.23 148.247,58.846 146.466,59.356 C143.624,60.171 141.033,61.606 138.484,63.059 C138.215,58.974 137.429,54.947 137.36,50.847 C137.305,47.624 138.061,44.902 136.635,41.867 C136.265,41.076 133.268,40.009 131.991,42.355 C128.757,48.294 132.432,59.866 133.035,66.148 C133.067,66.464 130.341,68.254 128.884,69.257 C124.117,72.536 119.185,75.69 115.141,79.871 C108.489,86.748 106.695,98.891 115.404,104.988 C122.889,110.227 133.794,108.798 138.151,100.329 C142.602,91.683 139.668,81.059 139.457,71.895 C139.457,71.852 139.439,71.82 139.432,71.78 C142.471,69.776 145.436,67.669 148.129,65.205 C149.397,64.045 150.938,62.356 150.221,60.545 Z M134.709,42.82 C137.116,42.764 136.035,49.691 136.318,53.316 C136.587,56.742 137.346,60.111 137.652,63.535 C136.663,64.116 134.943,65.208 133.979,65.826 C133.789,62.698 133.218,59.135 132.774,56.042 C132.251,52.432 130.596,42.774 134.709,42.82 Z M148.811,62.1 C148.477,62.831 147.598,63.526 147.019,64.094 C144.956,66.116 142.409,67.65 139.99,69.203 C136.346,71.538 132.728,73.934 129.109,76.31 C123.347,80.096 118.005,84.87 117.465,92.146 C117.044,97.845 122.015,103.514 127.582,99.301 C130.372,97.19 131.617,92.783 132.488,89.591 C133.769,84.901 133.683,79.936 134.227,75.133 C135.445,74.354 136.667,73.576 137.885,72.791 C138.155,80.265 139.554,87.597 137.916,95.044 C135.783,104.746 125.792,109.002 117.206,103.762 C112.627,100.968 110.903,95.683 111.644,90.588 C112.371,85.577 115.82,81.624 119.488,78.406 C123.293,75.06 127.661,72.213 131.77,69.257 C136.459,65.883 144.024,60.746 147.062,60.309 C148.572,60.075 149.56,60.479 148.811,62.1 Z M132.888,76.002 C132.141,82.802 130.741,102.23 121.692,98.35 C117.582,96.586 119.514,89.291 120.966,86.53 C122.765,83.115 126.145,80.593 129.236,78.439 C130.433,77.604 131.658,76.798 132.888,76.002 Z" id="Fill-39"></path>
                <path d="M141.334,30.839 C140.676,26.159 136.64,23.91 132.477,26.318 C130.827,27.272 129.458,28.893 129.077,30.759 C127.881,36.642 132.249,38.423 134.995,38.261 C138.901,38.028 141.89,34.795 141.334,30.839 Z M131.876,35.75 C131.561,35.48 130.295,34.667 130.523,31.156 C130.618,29.627 132.015,28.453 133.264,27.665 C136.575,25.572 139.475,27.841 139.776,31.43 C140.152,35.954 134.163,37.69 131.876,35.75 Z" id="Fill-40"></path>
                <path d="M172.632,41.587 C167.528,37.84 157.165,38.012 153.542,44.655 C149.792,51.208 152.017,61.336 157.991,65.84 C164.067,70.426 171.999,69.064 176.221,62.746 C180.161,56.85 178.395,45.815 172.632,41.587 Z M174.954,61.048 C172.067,66.842 164.846,68.002 159.689,64.751 C152.786,60.399 151.84,51.932 154.869,45.157 C157.514,40.521 165.893,39.637 170.97,42.662 C176.578,46.002 177.616,55.708 174.954,61.048 Z" id="Fill-41"></path>
                <path d="M165.443,49.044 C164.545,48.431 163.284,48.234 162.283,48.719 C158.047,50.786 159.435,54.999 160.903,56.738 C162.901,59.102 166.124,58.059 167.466,55.54 C168.69,53.248 167.446,50.41 165.443,49.044 Z M166.412,54.291 C165.966,56.275 163.548,57.549 161.999,55.997 C160.831,54.827 160.548,53.181 161.066,51.761 C162.035,49.544 163.942,49.847 164.544,50.167 C165.957,50.916 166.758,52.754 166.412,54.291 Z" id="Fill-42"></path>
                <path d="M206.407,53.379 C206.458,51.037 206.209,35.256 199.781,40.095 C195.895,43.017 198.8,56.483 193.882,56.956 C187.419,57.574 189.484,45.768 188.64,42.101 C187.72,38.111 183.46,37.495 182.25,41.448 C180.395,54.245 180.734,60.275 186.961,65.332 C191.201,68.771 198.34,67.77 200.899,63.027 C201.048,64.433 201.548,65.676 202.558,66.435 C204.052,67.56 205.671,66.077 205.956,65.11 C207.057,61.368 206.324,57.046 206.407,53.379 Z M202.692,64.94 C202.366,64.16 201.877,62.222 201.778,61.386 C201.464,59.563 200.665,60.245 200.402,60.814 C198.758,64.339 195.724,66.158 192.35,65.704 C189.836,65.363 187.113,63.66 185.474,61.863 C180.955,56.908 182.433,50.944 182.843,42.186 C183.523,38.408 187.61,38.888 187.502,43.142 C187.476,44.186 187.549,45.255 187.545,46.3 C187.544,48.402 187.424,50.467 187.69,52.561 C188.06,55.447 189.513,58.275 192.363,58.517 C198.54,59.045 198.138,53.602 198.525,50.599 C198.89,47.794 198.732,45.043 199.564,42.324 C199.979,40.958 201.613,39.109 202.952,40.867 C203.917,42.14 204.527,44.085 204.703,45.606 C205.067,48.731 205.213,55.469 205.353,62.482 C205.446,65.466 203.418,66.403 202.692,64.94 Z" id="Fill-43"></path>
                <path d="M231.536,40.092 C227.598,34.963 220.471,34.877 216.667,39.647 C215.727,37.64 214.345,36.072 211.994,37.571 C211.656,37.789 211.518,38.354 211.496,38.641 C211.127,43.236 211.549,47.919 211.962,52.502 C212.233,55.517 212.041,58.539 212.195,61.562 C212.316,63.921 212.239,69.208 216.19,69.326 C219.937,69.435 219.29,62.884 219.255,60.937 C219.189,57.055 218.566,53.522 219.538,49.659 C220.115,47.362 221.789,45.139 224.297,45.076 C227.212,44.999 227.88,48.211 228.592,50.282 C229.103,51.768 230.653,51.559 230.836,51.552 C235.775,51.335 234.131,43.469 231.536,40.092 Z M231.781,49.984 C231.724,50.016 229.841,50.669 229.679,49.728 C229.134,46.483 227.26,42.691 223.434,43.403 C217.149,44.573 217.446,52.86 217.754,57.792 C217.898,60.05 217.845,62.145 217.864,64.418 C217.878,66.352 216.937,67.58 216.302,67.635 C214.333,67.809 213.998,64.723 213.805,63.21 C213.452,60.354 213.397,56.045 213.25,53.177 C212.987,48.13 213.058,43.674 212.587,38.641 C212.585,38.635 212.585,38.633 212.585,38.629 C215.139,36.968 215.642,39.647 215.85,41.233 C216.011,41.806 216.778,41.889 217.082,41.395 C220.262,36.273 226.378,36.497 230.249,40.59 C231.951,42.392 235.044,48.219 231.781,49.984 Z" id="Fill-44"></path>
                <path d="M237.96,23.658 C234.511,18.969 230.684,16.194 225.366,14.009 C212.693,8.804 198.329,8.555 184.856,7.275 C162.348,5.139 139.792,3.973 117.197,3.255 C105.37,2.881 93.466,3.47 81.714,2.093 C48.567,-1.793 15.609,4.245 16.535,19.203 C16.552,19.483 17.927,43.198 19.294,54.832 C20.696,66.756 22.773,78.778 23.456,90.756 C23.781,96.509 22.447,100.666 18.711,105.029 C5.187,120.826 0.135,142.069 0.239,142.284 C0.322,143.381 1.702,143.66 2.314,142.787 C2.641,142.324 16.604,128.37 24.715,123.532 C29.055,120.945 33.363,118.838 38.335,117.723 C43.533,116.558 48.976,116.587 54.275,116.6 C76.429,116.652 98.749,116.305 120.877,115.227 C143.025,114.149 165.071,117.239 187.22,115.341 C197.162,114.487 207.412,113.31 217.04,110.652 C222.733,109.083 227.409,105.838 230.182,100.63 C234.129,93.221 251.764,42.422 237.96,23.658 Z M231.293,92.586 C226.256,106.134 219.64,107.851 212.393,109.461 C190.499,114.327 168.504,114.22 146.235,113.17 C135.016,112.639 123.945,112.961 112.734,113.342 C101.429,113.726 90.116,113.755 78.806,113.927 C70.623,114.049 62.457,114.352 54.275,114.3 C47.159,114.255 39.938,114.163 33.24,116.694 C17.393,122.683 4.806,138.055 1.805,141.262 C2.141,139.71 7.089,123.3 12.897,115.383 C18.091,108.311 25.814,102.766 25.685,93.234 C25.606,87.704 24.764,82.182 23.89,76.731 C22.791,69.903 22.06,63 21.18,56.141 C19.625,44.049 18.298,31.943 17.877,19.758 C16.359,4.337 50.013,2.429 58.716,2.598 C70.014,2.814 81.33,3.808 92.633,4.194 C104.003,4.58 115.379,4.867 126.751,5.273 C148.494,6.045 170.109,7.771 191.773,9.687 C205.118,10.866 220.275,11.231 231.445,19.278 C253.171,34.924 234.591,83.718 231.293,92.586 Z" id="Fill-45"></path>
            </g>
        </g>
    </g>
</svg>