<svg width="35" height="34" viewBox="0 0 35 34" fill="none" xmlns="http://www.w3.org/2000/svg">
<path d="M9.82217 26.3303V25.0865C9.82957 24.9819 9.81424 24.877 9.77721 24.7786C9.74016 24.6803 9.68226 24.5909 9.60734 24.5163C9.53244 24.4419 9.44226 24.3838 9.3428 24.3463C9.24335 24.3088 9.13692 24.2926 9.03061 24.2988C8.89147 24.2898 8.75244 24.3178 8.62803 24.3799C8.5036 24.4419 8.39836 24.5356 8.32324 24.6512C8.25478 24.5389 8.15685 24.4471 8.03977 24.385C7.92269 24.323 7.79079 24.2932 7.65798 24.2988C7.54219 24.2931 7.4269 24.3172 7.3235 24.3688C7.22011 24.4205 7.13221 24.4978 7.0685 24.5932V24.3486H6.63058V26.3303H7.07268V25.2316C7.06313 25.1639 7.06895 25.0948 7.0897 25.0294C7.11045 24.9641 7.14564 24.9041 7.19274 24.8538C7.23985 24.8035 7.29768 24.764 7.3621 24.7383C7.42652 24.7126 7.49592 24.7012 7.56533 24.7052C7.85586 24.7052 8.00324 24.8917 8.00324 25.2275V26.3303H8.44534V25.2316C8.4365 25.164 8.44281 25.0952 8.46384 25.0301C8.48486 24.9652 8.52009 24.9055 8.56704 24.8553C8.61398 24.8052 8.67152 24.7657 8.7356 24.7397C8.79968 24.7137 8.86876 24.7019 8.93797 24.7052C9.2369 24.7052 9.38006 24.8917 9.38006 25.2275V26.3303H9.82217ZM16.3654 24.3486H15.6495V23.7474H15.2075V24.3486H14.799V24.7424H15.2075V25.6462C15.2075 26.1065 15.3885 26.3802 15.9063 26.3802C16.0998 26.3808 16.2896 26.3275 16.4537 26.2268L16.3274 25.8577C16.21 25.9267 16.0768 25.9652 15.9401 25.9697C15.7212 25.9697 15.6495 25.8369 15.6495 25.6379V24.7424H16.3654V24.3486ZM20.1001 24.2988C19.9933 24.2957 19.8877 24.321 19.7943 24.3722C19.701 24.4232 19.6233 24.4981 19.5696 24.589V24.3486H19.1359V26.3303H19.5738V25.2192C19.5738 24.8917 19.7168 24.7092 20.0033 24.7092C20.0969 24.708 20.1899 24.725 20.2769 24.759L20.4116 24.3526C20.3117 24.3175 20.2063 24.2992 20.1001 24.2988ZM14.4538 24.5061C14.2059 24.3609 13.9209 24.289 13.6327 24.2988C13.1232 24.2988 12.7948 24.5392 12.7948 24.9332C12.7948 25.2565 13.039 25.4556 13.4895 25.5178L13.6959 25.5467C13.9358 25.5799 14.0495 25.6421 14.0495 25.754C14.0495 25.9074 13.8895 25.9945 13.5906 25.9945C13.3501 26.0014 13.1143 25.9283 12.9211 25.7871L12.7148 26.1231C12.9699 26.2984 13.2754 26.3886 13.5864 26.3802C14.1674 26.3802 14.5042 26.1106 14.5042 25.7333C14.5042 25.385 14.239 25.2027 13.8011 25.1404L13.5948 25.1113C13.4053 25.0865 13.2538 25.0492 13.2538 24.9166C13.2538 24.7715 13.3969 24.6844 13.6369 24.6844C13.8573 24.6876 14.0732 24.7462 14.2643 24.8544L14.4538 24.5061ZM26.1843 24.2988C26.0776 24.2957 25.9719 24.321 25.8785 24.3722C25.7852 24.4232 25.7075 24.4981 25.6538 24.589V24.3486H25.2201V26.3303H25.6579V25.2192C25.6579 24.8917 25.8012 24.7092 26.0874 24.7092C26.1811 24.708 26.2741 24.7248 26.3611 24.759L26.4958 24.3526C26.3959 24.3175 26.2906 24.2992 26.1843 24.2988ZM20.5421 25.3394C20.5364 25.479 20.5603 25.6183 20.6124 25.7482C20.6645 25.8782 20.7438 25.9961 20.8448 26.094C20.9459 26.1921 21.0668 26.2682 21.1997 26.3174C21.3324 26.3667 21.4742 26.3881 21.6158 26.3802C21.8787 26.3931 22.1371 26.3088 22.3401 26.1437L22.1295 25.7954C21.9782 25.9091 21.7936 25.9716 21.6032 25.9737C21.4391 25.964 21.285 25.8929 21.1724 25.7751C21.0597 25.657 20.9969 25.5014 20.9969 25.3395C20.9969 25.1775 21.0597 25.0218 21.1724 24.904C21.285 24.7861 21.4391 24.7148 21.6032 24.7052C21.7936 24.7073 21.9782 24.7698 22.1295 24.8834L22.3401 24.5351C22.1371 24.3701 21.8787 24.2858 21.6158 24.2988C21.4742 24.2908 21.3324 24.3122 21.1997 24.3615C21.0669 24.4108 20.9459 24.4868 20.8449 24.5849C20.7438 24.6828 20.6645 24.8007 20.6124 24.9305C20.5603 25.0605 20.5364 25.1999 20.5421 25.3394ZM24.6432 25.3394V24.3486H24.2054V24.589C24.1306 24.4941 24.0338 24.4184 23.9233 24.3678C23.8127 24.3174 23.6913 24.2936 23.5695 24.2988C23.2982 24.3119 23.0423 24.4272 22.855 24.621C22.6678 24.8147 22.5632 25.072 22.5632 25.3395C22.5632 25.607 22.6678 25.8643 22.855 26.0579C23.0423 26.2516 23.2982 26.367 23.5695 26.3802C23.6913 26.3853 23.8127 26.3615 23.9233 26.3111C24.0338 26.2606 24.1306 26.1848 24.2054 26.0899V26.3303H24.6432V25.3394ZM23.0137 25.3394C23.0206 25.2225 23.062 25.1101 23.1328 25.0159C23.2038 24.9219 23.3011 24.8504 23.4128 24.8101C23.5245 24.7699 23.6458 24.7628 23.7616 24.7895C23.8773 24.8163 23.9827 24.8759 24.0645 24.9609C24.1464 25.0459 24.201 25.1526 24.2221 25.268C24.243 25.3832 24.2293 25.5021 24.1825 25.6098C24.1357 25.7175 24.0579 25.8093 23.9587 25.874C23.8595 25.9387 23.7433 25.9733 23.6243 25.9737C23.541 25.9748 23.4582 25.959 23.3814 25.9271C23.3045 25.8952 23.2352 25.8478 23.1779 25.7883C23.1206 25.7287 23.0763 25.658 23.0481 25.5807C23.0199 25.5035 23.0082 25.4213 23.0137 25.3394ZM17.7296 24.2988C17.4565 24.313 17.1996 24.4308 17.0128 24.6273C16.8259 24.824 16.7238 25.0842 16.7276 25.3534C16.7314 25.6226 16.8409 25.88 17.0331 26.0714C17.2255 26.2629 17.4857 26.3734 17.759 26.3802C18.0595 26.3904 18.3533 26.2917 18.5843 26.1023L18.3696 25.7831C18.2032 25.9143 17.9974 25.9872 17.7843 25.9903C17.6395 26.0024 17.4958 25.9584 17.3834 25.8679C17.271 25.7773 17.1989 25.6473 17.1822 25.5053H18.677C18.6811 25.4513 18.6853 25.3975 18.6853 25.3394C18.6812 24.7217 18.2937 24.2988 17.7296 24.2988ZM17.7212 24.6844C17.8534 24.6818 17.9812 24.731 18.0768 24.8212C18.1723 24.9113 18.2275 25.035 18.2306 25.1653H17.1864C17.194 25.0322 17.2543 24.9075 17.3542 24.8176C17.4542 24.7276 17.5859 24.6799 17.7212 24.6844ZM28.7065 25.3394V23.5525H28.2685V24.589C28.1938 24.4941 28.097 24.4184 27.9864 24.3678C27.8758 24.3174 27.7546 24.2936 27.6327 24.2988C27.3613 24.3119 27.1056 24.4272 26.9182 24.621C26.7309 24.8147 26.6263 25.072 26.6263 25.3395C26.6263 25.607 26.7309 25.8643 26.9182 26.058C27.1056 26.2516 27.3613 26.367 27.6327 26.3802C27.7546 26.3853 27.8758 26.3615 27.9864 26.3111C28.097 26.2606 28.1938 26.1848 28.2685 26.0899V26.3303H28.7065V25.3394ZM29.4363 26.0431C29.4635 26.043 29.4904 26.0482 29.5156 26.0586C29.5396 26.0686 29.5617 26.0829 29.5802 26.1009C29.5988 26.1189 29.6137 26.1401 29.6239 26.1637C29.6345 26.1877 29.6398 26.2137 29.6398 26.24C29.6398 26.2662 29.6345 26.2922 29.6239 26.3164C29.6135 26.3399 29.5988 26.3611 29.5802 26.3789C29.5615 26.3969 29.5396 26.4114 29.5156 26.4214C29.4906 26.4319 29.4636 26.4374 29.4363 26.4371C29.3963 26.4375 29.357 26.4263 29.3234 26.4048C29.2898 26.3834 29.2633 26.3527 29.2474 26.3164C29.2368 26.2922 29.2315 26.2662 29.2315 26.24C29.2315 26.2137 29.2368 26.1877 29.2474 26.1637C29.2576 26.1402 29.2724 26.1189 29.2908 26.1009C29.3093 26.0828 29.3315 26.0684 29.3557 26.0586C29.3813 26.0482 29.4087 26.043 29.4363 26.0431ZM29.4363 26.3937C29.4571 26.3938 29.4777 26.3897 29.4966 26.3816C29.515 26.3737 29.5316 26.3626 29.5457 26.3487C29.5747 26.3199 29.591 26.2809 29.591 26.2401C29.591 26.1994 29.5747 26.1605 29.5457 26.1315C29.5316 26.1176 29.515 26.1066 29.4966 26.0989C29.4777 26.0909 29.457 26.087 29.4363 26.0871C29.4153 26.087 29.3943 26.0909 29.3748 26.0989C29.3563 26.1065 29.3393 26.1176 29.3251 26.1315C29.296 26.1605 29.2797 26.1994 29.2797 26.2401C29.2797 26.2809 29.296 26.3199 29.3251 26.3487C29.3394 26.3628 29.3563 26.3739 29.3748 26.3816C29.3943 26.3897 29.4153 26.3938 29.4363 26.3937ZM29.4481 26.1479C29.4678 26.1467 29.4873 26.1522 29.5034 26.1637C29.5097 26.1687 29.5147 26.1753 29.5181 26.1828C29.5215 26.1901 29.523 26.1982 29.5226 26.2064C29.5229 26.2133 29.5216 26.2202 29.519 26.2266C29.5163 26.2331 29.5124 26.2389 29.5072 26.2438C29.4951 26.2544 29.4796 26.2608 29.4633 26.2619L29.5242 26.3309H29.4765L29.4202 26.2623H29.4021V26.3309H29.3623V26.1479H29.4481ZM29.4021 26.1822V26.231H29.4476C29.4564 26.2314 29.4652 26.2293 29.4726 26.2249C29.4757 26.2228 29.4782 26.2202 29.4798 26.2168C29.4814 26.2136 29.4822 26.2099 29.482 26.2064C29.4822 26.2027 29.4814 26.1992 29.4798 26.196C29.4781 26.1929 29.4757 26.1901 29.4726 26.1883C29.4652 26.1839 29.4564 26.1818 29.4476 26.1822H29.4021ZM27.0769 25.3394C27.0837 25.2225 27.1251 25.1101 27.1961 25.0159C27.2669 24.9219 27.3643 24.8504 27.476 24.8101C27.5876 24.7699 27.7089 24.7628 27.8247 24.7896C27.9406 24.8164 28.0458 24.876 28.1276 24.961C28.2095 25.046 28.2643 25.1528 28.2852 25.268C28.3062 25.3833 28.2924 25.5022 28.2456 25.6098C28.1987 25.7175 28.121 25.8093 28.0218 25.874C27.9226 25.9387 27.8064 25.9733 27.6874 25.9737C27.6041 25.9748 27.5213 25.959 27.4445 25.9271C27.3678 25.8952 27.2984 25.8478 27.241 25.7883C27.1837 25.7287 27.1395 25.658 27.1112 25.5807C27.083 25.5035 27.0713 25.4213 27.0769 25.3394ZM12.2895 25.3394V24.3486H11.8516V24.589C11.7769 24.4941 11.6802 24.4184 11.5696 24.3678C11.4589 24.3174 11.3377 24.2936 11.2158 24.2988C10.9445 24.3119 10.6887 24.4272 10.5014 24.621C10.314 24.8147 10.2095 25.072 10.2095 25.3395C10.2095 25.607 10.314 25.8643 10.5014 26.0579C10.6887 26.2516 10.9445 26.367 11.2158 26.3802C11.3377 26.3853 11.4589 26.3615 11.5696 26.3111C11.6802 26.2606 11.7769 26.1848 11.8516 26.0899V26.3303H12.2895V25.3394ZM10.6601 25.3394C10.6669 25.2225 10.7083 25.1101 10.7792 25.0159C10.8501 24.9219 10.9474 24.8504 11.0591 24.8101C11.1709 24.7699 11.2921 24.7628 11.4079 24.7896C11.5237 24.8164 11.629 24.876 11.7108 24.961C11.7926 25.046 11.8474 25.1528 11.8684 25.268C11.8893 25.3833 11.8755 25.5022 11.8287 25.6098C11.7819 25.7175 11.7041 25.8093 11.6049 25.874C11.5058 25.9387 11.3895 25.9733 11.2706 25.9737C11.1872 25.9748 11.1045 25.959 11.0277 25.9271C10.9509 25.8952 10.8816 25.8478 10.8242 25.7883C10.7669 25.7287 10.7227 25.658 10.6944 25.5807C10.6662 25.5035 10.6545 25.4213 10.6601 25.3394Z" fill="white"/>
<path d="M20.9407 9.24524H14.3083V20.9815H20.9407V9.24524Z" fill="#999999"/>
<path d="M14.7295 15.1134C14.7285 13.983 14.9886 12.8673 15.4902 11.8507C15.9918 10.834 16.7217 9.94304 17.6247 9.2452C16.5064 8.37972 15.1635 7.84151 13.7493 7.69204C12.3352 7.54258 10.9068 7.78792 9.62757 8.40001C8.34831 9.01211 7.26974 9.96626 6.51515 11.1534C5.76058 12.3406 5.36041 13.7128 5.36041 15.1134C5.36041 16.5139 5.76058 17.8862 6.51515 19.0732C7.26974 20.2605 8.34831 21.2146 9.62757 21.8266C10.9068 22.4388 12.3352 22.6841 13.7493 22.5346C15.1635 22.3851 16.5064 21.847 17.6247 20.9815C16.7217 20.2837 15.9918 19.3926 15.4902 18.3759C14.9886 17.3593 14.7285 16.2436 14.7295 15.1134Z" fill="#555555"/>
<path d="M29.8885 15.1134C29.8885 16.5138 29.4883 17.886 28.7339 19.0732C27.9794 20.2603 26.9008 21.2145 25.6215 21.8266C24.3424 22.4388 22.9141 22.6841 21.4998 22.5346C20.0857 22.3851 18.7428 21.847 17.6247 20.9815C18.5268 20.283 19.2562 19.3918 19.7576 18.3752C20.2592 17.3587 20.5197 16.2434 20.5197 15.1134C20.5197 13.9832 20.2592 12.8679 19.7576 11.8514C19.2562 10.8349 18.5268 9.94374 17.6247 9.2452C18.7428 8.37972 20.0857 7.84149 21.4998 7.69204C22.9141 7.54258 24.3424 7.78792 25.6215 8.40002C26.9008 9.01213 27.9794 9.96629 28.7339 11.1534C29.4883 12.3406 29.8885 13.7128 29.8885 15.1134Z" fill="#E2E2E2"/>
<path d="M29.1652 19.7381V19.4978H29.2635V19.4488H29.013V19.4978H29.1114V19.7381H29.1652ZM29.6517 19.7381V19.4484H29.5749L29.4865 19.6476L29.3981 19.4484H29.3213V19.7381H29.3755V19.5195L29.4584 19.7079H29.5146L29.5975 19.519V19.7381H29.6517Z" fill="#E2E2E2"/>
</svg>
