<svg width="35" height="34" viewBox="0 0 35 34" fill="none" xmlns="http://www.w3.org/2000/svg">
<path d="M30.0139 9.55872H4.78717V25.403H30.0139V9.55872Z" fill="#555555"/>
<path d="M4.78717 9.67001C4.78717 12.6012 4.79137 14.9955 4.79768 14.9891C4.80608 14.9828 5.02034 14.4859 5.27663 13.8857L5.74509 12.7928H6.56014H7.3773L7.62519 13.3719C7.75963 13.6899 7.88147 13.9657 7.89407 13.9826C7.90877 14.0036 7.91508 13.8246 7.91508 13.3972L7.91717 12.7823H8.93181H9.94643L10.0998 13.2245C10.1859 13.4688 10.2615 13.6625 10.2678 13.6541C10.2741 13.6478 10.3477 13.4519 10.4275 13.2182L10.5766 12.7928L15.1288 12.7865L19.681 12.7823V13.0034C19.681 13.1255 19.6873 13.2245 19.6977 13.2245C19.7062 13.2245 19.7608 13.1908 19.8176 13.1487C19.9856 13.0287 20.2398 12.9086 20.4562 12.8497L20.6578 12.7949L22.2836 12.7928H23.9096L24.1596 13.3824C24.2983 13.7067 24.418 13.9805 24.4306 13.9931C24.4412 14.0036 24.4494 13.7825 24.4494 13.3972V12.7823L25.3045 12.7865L26.1595 12.7928L26.3822 13.1382L26.6027 13.4856L26.6089 13.134L26.6131 12.7823H27.464H28.3147V14.7617V16.741H27.4661H26.6195L26.401 16.3937C26.2813 16.2042 26.1763 16.0484 26.1679 16.0463C26.1574 16.0463 26.151 16.2021 26.151 16.3937V16.741L24.9075 16.7368L23.6639 16.7306L23.5462 16.4357L23.4286 16.141L23.082 16.1346L22.7374 16.1304L22.6199 16.4294L22.5 16.7306H21.5484C20.6263 16.7306 20.5885 16.7285 20.4163 16.6822C20.2041 16.6274 19.9415 16.5032 19.8007 16.3978C19.7461 16.3537 19.6977 16.32 19.6914 16.32C19.6852 16.32 19.681 16.4147 19.681 16.5306V16.741L18.4058 16.7389H17.1287L16.887 16.4357C16.7547 16.2694 16.6392 16.1325 16.6308 16.1304C16.6202 16.1304 16.614 16.2673 16.614 16.4357V16.741L11.8748 16.7368L7.13573 16.7306L7.01599 16.4357L6.89415 16.141H6.54964H6.20512L6.08539 16.4357L5.96775 16.7306L5.37747 16.7368L4.78717 16.741V23.1846V29.6283H17.4017H30.0163V25.6463C30.0163 23.4564 30.01 21.6685 30.0016 21.6727C29.991 21.6748 29.9049 21.7191 29.8063 21.7676C29.447 21.9487 29.9133 21.9318 25.0483 21.9381L20.7209 21.9423L20.4687 21.6327L20.2166 21.3211L20.2103 21.6306L20.2041 21.9423H19.3868H18.5676V21.4159C18.5676 21.1252 18.5635 20.8894 18.5572 20.8894C18.5529 20.8894 18.4793 20.9126 18.3953 20.94C18.1916 21.0094 17.9543 21.0368 17.576 21.0368H17.2653V21.4895V21.9423H16.0152H14.7674L14.5637 21.6727C14.4503 21.5253 14.3474 21.3927 14.3347 21.378C14.3137 21.3548 14.2654 21.4032 14.0827 21.6453L13.8558 21.9423H11.7782H9.70276V19.9628V17.9835H11.7887L13.8726 17.9856L14.0932 18.2782C14.215 18.4383 14.32 18.571 14.3263 18.5732C14.3347 18.5732 14.4419 18.4404 14.5658 18.2782L14.7906 17.9835H22.4035H30.0163V11.1609V4.33826H17.4017H4.78717V9.67001Z" fill="#E2E2E2"/>
<path d="M6.04962 13.3129C6.03912 13.3403 5.75133 14.012 5.41101 14.8102L4.79132 16.2568L5.21355 16.2525L5.63578 16.2462L5.75342 15.9514L5.87106 15.6567L6.54538 15.6504L7.21969 15.6461L7.34154 15.9514L7.46547 16.2568H7.89192C8.12509 16.2568 8.31625 16.2504 8.31625 16.2399C8.31625 16.2315 8.03266 15.5597 7.68395 14.7448L7.05164 13.2666H6.56009C6.06852 13.2666 6.06643 13.2666 6.04962 13.3129ZM6.75124 14.488C6.85208 14.7364 6.9382 14.9533 6.94451 14.966C6.95291 14.9871 6.86679 14.9934 6.55169 14.9934C6.17567 14.9934 6.14835 14.9913 6.16096 14.9554C6.25759 14.69 6.54329 14.0078 6.55378 14.0205C6.56218 14.0289 6.65042 14.2395 6.75124 14.488Z" fill="#E2E2E2"/>
<path d="M8.40027 14.7617V16.2568H8.7784H9.15652L9.16073 15.187L9.16702 14.1194L9.54515 15.1891L9.92326 16.2568L10.2573 16.2525L10.5913 16.2462L10.9715 15.1766L11.3517 14.1068L11.358 15.1828L11.3622 16.2568H11.7403H12.1185V14.7617V13.2666H11.5219H10.9274L10.606 14.1868C10.4316 14.6942 10.2804 15.1176 10.272 15.126C10.2636 15.1344 10.1081 14.7216 9.92957 14.2099L9.60396 13.2771L9.00107 13.2708L8.40027 13.2666V14.7617Z" fill="#E2E2E2"/>
<path d="M12.6164 13.2814C12.608 13.2877 12.6017 13.9615 12.6017 14.7764V16.2568H13.8201H15.0385V15.9198V15.5829H14.2087H13.3789V15.3303V15.0775H14.1877H14.9965V14.7512V14.4248H14.1877H13.3789V14.1825V13.9404H14.2087H15.0385V13.6035V13.2666H13.8348C13.171 13.2666 12.6227 13.2729 12.6164 13.2814Z" fill="#E2E2E2"/>
<path d="M15.4586 14.7596V16.2568H15.8368H16.2149V15.7303V15.2039H16.3618H16.5068L16.9522 15.7303L17.3976 16.2568H17.866H18.3366L17.8702 15.7303C17.6119 15.4398 17.3996 15.1954 17.3955 15.187C17.3934 15.1766 17.4417 15.1534 17.5047 15.1345C17.6475 15.0881 17.8449 14.9576 17.929 14.8522C18.1223 14.6122 18.1937 14.2753 18.116 13.9763C18.0719 13.8099 18.013 13.7004 17.8996 13.5783C17.7862 13.4562 17.6706 13.3846 17.4899 13.3235C17.366 13.2814 17.3094 13.2793 16.4102 13.2708L15.4586 13.2645V14.7596ZM17.2211 13.9931C17.3219 14.0521 17.3723 14.1279 17.3744 14.2268C17.3807 14.3447 17.3366 14.4374 17.2463 14.4922C17.1749 14.5385 17.1454 14.5406 16.6938 14.5469L16.2149 14.5532V14.2458V13.9384L16.6833 13.9447C17.1055 13.951 17.1559 13.9552 17.2211 13.9931Z" fill="#E2E2E2"/>
<path d="M18.4415 14.7617V16.2568H18.8197H19.1978V14.7617V13.2666H18.8197H18.4415V14.7617Z" fill="#E2E2E2"/>
<path d="M20.6976 13.2982C20.2376 13.3803 19.9225 13.6056 19.7293 13.9889C19.4918 14.4648 19.5087 15.1829 19.7713 15.6461C19.9645 15.9914 20.3721 16.2231 20.8258 16.2483L21.0149 16.2609L21.166 15.9261L21.3174 15.5934L21.0926 15.5808C20.7438 15.5597 20.5988 15.4924 20.4582 15.2818C20.3531 15.1281 20.3237 14.9849 20.3364 14.6986C20.3489 14.4268 20.4057 14.2858 20.5653 14.1426C20.7333 13.991 20.7943 13.9783 21.3678 13.9657L21.8656 13.9573V13.6119V13.2666L21.3573 13.2687C21.0379 13.2687 20.7901 13.2813 20.6976 13.2982Z" fill="#E2E2E2"/>
<path d="M22.5798 13.3129C22.5694 13.3403 22.2815 14.012 21.9412 14.8102L21.3235 16.2568L21.7459 16.2525L22.1681 16.2462L22.2857 15.9514L22.4033 15.6567L23.0777 15.6504L23.7519 15.6461L23.8738 15.9514L23.9978 16.2568H24.4242C24.8234 16.2568 24.8528 16.2546 24.8401 16.2188C24.8317 16.1998 24.5461 15.526 24.2037 14.7238L23.5797 13.2666H23.0903C22.6008 13.2666 22.6008 13.2666 22.5798 13.3129ZM23.2877 14.5047L23.4811 14.9828L23.0903 14.9892C22.8761 14.9913 22.6954 14.9892 22.6912 14.9849C22.6849 14.9786 22.7689 14.7575 22.8761 14.4901C22.9831 14.2226 23.0756 14.0099 23.084 14.0163C23.0903 14.0226 23.1807 14.2437 23.2877 14.5047Z" fill="#E2E2E2"/>
<path d="M24.9326 14.7617V16.2568H25.3107H25.6889L25.6931 15.3134L25.6993 14.37L26.2981 15.3092L26.8968 16.2462L27.3652 16.2525L27.8316 16.2568L27.8273 14.768L27.821 13.2771L27.4493 13.2708L27.0754 13.2666L27.0712 14.1847L27.0648 15.1028L26.4766 14.1847L25.8884 13.2666H25.4116H24.9326V14.7617Z" fill="#E2E2E2"/>
<path d="M10.2068 19.9628V21.4579H11.4147H12.6226V21.121V20.7841H11.7929H10.9631V20.5314V20.2787H11.7718H12.5806V19.9523V19.6259H11.7718H10.9631V19.3944V19.1627H11.7929H12.6226V18.8152V18.4678H11.4147H10.2068V19.9628Z" fill="#E2E2E2"/>
<path d="M12.6857 18.4783C12.6857 18.4846 12.9504 18.8216 13.2739 19.228C13.6373 19.6828 13.8578 19.9755 13.8474 19.9902C13.8326 20.0155 12.7739 21.3484 12.7109 21.4201C12.6815 21.4558 12.7025 21.4579 13.1499 21.4579L13.6205 21.4558L13.9566 21.0052C14.1414 20.7568 14.299 20.5546 14.3053 20.5546C14.3116 20.5525 14.4733 20.7568 14.6625 21.0052L15.007 21.4579H15.4859H15.9669L15.9039 21.378C15.1098 20.3819 14.7864 19.9692 14.7864 19.9523C14.7864 19.9418 15.0469 19.6091 15.364 19.2154C15.6812 18.8216 15.9417 18.4931 15.9417 18.4825C15.9417 18.4741 15.7401 18.4678 15.4921 18.4678H15.0427L14.9607 18.5668C14.9145 18.6236 14.7569 18.8258 14.6099 19.0195C14.4607 19.2154 14.3347 19.3733 14.3263 19.3733C14.32 19.3712 14.1582 19.169 13.9692 18.9206L13.6268 18.4678H13.1562C12.8978 18.4678 12.6857 18.472 12.6857 18.4783Z" fill="#E2E2E2"/>
<path d="M16.0258 19.9608V21.4579H16.4038H16.7821V20.9757V20.4935L17.366 20.4851C17.9017 20.4767 17.9583 20.4725 18.0719 20.4304C18.5382 20.2578 18.7881 19.8281 18.7168 19.327C18.6621 18.9289 18.4331 18.651 18.0571 18.5247C17.9332 18.4826 17.8764 18.4804 16.9774 18.472L16.0258 18.4657V19.9608ZM17.8428 19.2259C17.9248 19.3017 17.9583 19.3796 17.9583 19.4891C17.9583 19.6091 17.9163 19.6913 17.8281 19.7566C17.7609 19.8028 17.742 19.8049 17.2714 19.8113L16.7821 19.8176V19.4891V19.1606L17.2841 19.1669L17.7861 19.1733L17.8428 19.2259Z" fill="#E2E2E2"/>
<path d="M19.0507 19.9608V21.4579H19.4288H19.807V20.9316V20.4052H19.9498H20.0948L20.5338 20.9295L20.9729 21.4558H21.4413C21.6976 21.4579 21.9076 21.4537 21.9076 21.4495C21.9076 21.4454 21.6955 21.2032 21.435 20.9084L20.9624 20.3757L21.0779 20.3398C21.1409 20.3209 21.2313 20.2808 21.2817 20.2515C21.4099 20.1777 21.5862 19.9839 21.6451 19.8513C21.8509 19.4028 21.6828 18.8321 21.2837 18.6194C21.0191 18.4805 21.0253 18.4804 19.9918 18.472L19.0507 18.4657V19.9608ZM20.8174 19.1943C20.9035 19.2407 20.9624 19.3438 20.9624 19.4533C20.9624 19.5734 20.9098 19.6597 20.8049 19.7102C20.727 19.7482 20.6725 19.7524 20.2628 19.7524H19.807V19.4575V19.1627H20.2797C20.6683 19.1627 20.7669 19.169 20.8174 19.1943Z" fill="#E2E2E2"/>
<path d="M22.0336 19.9628V21.4579H23.252H24.4705V21.121V20.7841H23.6303H22.7899V20.5314V20.2787H23.6092H24.4306L24.4242 19.9565L24.4179 19.6365L23.605 19.6301L22.7899 19.6259V19.3944V19.1627L23.6261 19.1585L24.4599 19.1521V18.8152V18.4783L23.2478 18.472L22.0336 18.4678V19.9628Z" fill="#E2E2E2"/>
<path d="M25.5291 18.4889C25.1637 18.5416 24.8779 18.7563 24.7603 19.0639C24.7057 19.2049 24.6868 19.4976 24.7225 19.6492C24.8002 19.984 25.0292 20.2051 25.3695 20.2767C25.4305 20.2893 25.6805 20.2998 25.9325 20.2998C26.4345 20.2998 26.5018 20.3125 26.5586 20.4242C26.6006 20.5041 26.6006 20.6136 26.5586 20.6747C26.485 20.782 26.4661 20.7841 25.5943 20.7841H24.7856V21.1211V21.458H25.6427C26.3317 21.458 26.5228 21.4517 26.6321 21.4265C26.924 21.357 27.1467 21.178 27.2706 20.9148C27.3358 20.7778 27.3379 20.7632 27.3379 20.4999C27.3379 20.2431 27.3337 20.2178 27.277 20.0936C27.2014 19.9272 27.0374 19.7734 26.8757 19.7124C26.695 19.645 26.527 19.626 26.0712 19.626C25.6006 19.626 25.5481 19.6155 25.4892 19.4997C25.4367 19.3966 25.4493 19.3144 25.5291 19.2344L25.6006 19.1628H26.2939C26.8274 19.1628 26.9933 19.1564 27.0059 19.1354C27.0416 19.0807 27.2854 18.5227 27.2854 18.4953C27.2854 18.4721 27.1277 18.4679 26.4619 18.47C26.0081 18.4721 25.588 18.4805 25.5291 18.4889Z" fill="#E2E2E2"/>
<path d="M28.2476 18.4889C28.0732 18.5184 27.8883 18.592 27.779 18.6742C27.5081 18.8805 27.3758 19.2195 27.4324 19.5733C27.4892 19.9376 27.7013 20.1756 28.0521 20.2682C28.1446 20.2914 28.2917 20.2998 28.632 20.2998C28.905 20.2998 29.1131 20.3082 29.1487 20.323C29.2936 20.3778 29.3525 20.5062 29.2936 20.6452C29.237 20.782 29.218 20.7841 28.3147 20.7841H27.5164V21.1231V21.4601L28.426 21.4537C29.302 21.4453 29.3377 21.4453 29.4576 21.3989C29.7033 21.3063 29.8483 21.1821 29.9785 20.9526C30.0562 20.8157 30.0856 20.6536 30.0751 20.4219C30.0687 20.2619 30.0562 20.203 30.01 20.1082C29.9239 19.9292 29.823 19.826 29.6529 19.7417C29.4533 19.6449 29.3126 19.626 28.7916 19.626C28.4198 19.626 28.3441 19.6196 28.2937 19.5901C28.1782 19.5228 28.1488 19.3375 28.2391 19.2321L28.2896 19.1733L29.008 19.1627L29.7263 19.1522L29.8629 18.8469C29.9364 18.6784 30.0058 18.533 30.0184 18.5205C30.0288 18.51 30.0373 18.4931 30.0373 18.4847C30.0373 18.4636 28.3778 18.4678 28.2476 18.4889Z" fill="#E2E2E2"/>
</svg>
