<svg width="66" height="66" viewBox="0 0 66 66" fill="none" xmlns="http://www.w3.org/2000/svg">
<mask id="mask0_9_1204" style="mask-type:alpha" maskUnits="userSpaceOnUse" x="0" y="0" width="66" height="66">
<circle cx="33" cy="33" r="33" fill="white"/>
</mask>
<g mask="url(#mask0_9_1204)">
<circle cx="33" cy="33" r="33" fill="white"/>
<path d="M31.8502 34.4467V34.4467C31.8502 36.2607 29.6647 37.1777 28.3703 35.9069L26.8237 34.3885C25.6436 33.2299 25.6436 31.3286 26.8237 30.1701L28.8909 28.1406C31.1469 25.9257 34.7612 25.9257 37.0172 28.1406L38.6424 29.7362C41.8842 32.9188 41.8842 38.1419 38.6424 41.3245L36.6752 43.2559C32.4639 47.3903 25.7173 47.3903 21.506 43.2559L19.8808 41.6603C14.6322 36.5075 14.6322 28.0511 19.8808 22.8983L21.8481 20.9669C28.0145 14.913 37.8935 14.913 44.06 20.9669L45.6852 22.5625C52.9406 29.6855 52.9406 41.3752 45.6852 48.4982L43.718 50.4296C35.5963 58.403 22.5849 58.403 14.4632 50.4296L12.838 48.834C3.5758 39.7408 3.57581 24.8178 12.838 15.7246L14.4648 14.1274V14.1274C24.7307 4.04883 41.1773 4.04883 51.4432 14.1274L52.728 15.3888C63.997 26.4522 63.997 44.6085 52.7281 55.6719L50.5548 57.8055C38.5739 69.5678 19.4352 69.7464 7.2369 58.2097L2.79341 54.0073" stroke="black" stroke-width="5" stroke-linecap="round"/>
</g>
</svg>
