<svg width="42" height="71" viewBox="0 0 42 71" fill="none" xmlns="http://www.w3.org/2000/svg">
<rect x="1" y="1" width="39.3517" height="69" rx="6" fill="black" stroke="white" stroke-width="2"/>
<rect x="3.90109" y="9.36261" width="33.5494" height="52.2747" fill="white"/>
<rect x="11.7033" y="25.7473" width="17.9451" height="17.1648" rx="5" fill="black"/>
<rect x="16.8846" y="64.478" width="7.58242" height="2.12088" rx="1.06044" stroke="white"/>
<rect width="5.46154" height="0.78022" transform="matrix(1 0 0 -1 17.9451 4.68134)" fill="#575757"/>
<path d="M24.9116 36.7533C24.8971 36.7851 24.8085 36.9803 24.6684 37.2317C24.4119 37.6925 24.076 38.0319 23.5908 38.1516C23.3039 38.2225 23.1581 38.1187 23.1292 37.7895C23.0999 37.4542 23.0947 37.1074 23.137 36.7743C23.2451 35.923 23.5305 35.1257 23.9035 34.3817C24.5448 33.1014 25.2325 31.8489 25.9042 30.5874C25.9871 30.4313 26.068 30.2724 25.9104 30.1345C25.7692 30.0108 25.6101 30.0136 25.4689 30.1646C25.3458 30.2963 25.2155 30.4194 25.0913 30.5499C23.9483 31.753 23.0381 33.1599 22.1711 34.6047C22.0753 34.7642 21.9795 34.9237 21.8492 35.1405C21.8368 35.0247 21.8296 34.9895 21.8306 34.9554C21.8337 34.8329 21.8378 34.7097 21.8456 34.5871C21.9357 33.22 22.3257 31.946 22.8454 30.7139C23.0056 30.3343 22.9958 30.2696 22.6965 30.0012H22.439C22.0748 30.6481 21.6668 31.2707 21.3562 31.9477C20.8045 33.1502 20.328 34.3936 19.7892 35.6035C19.5069 36.2369 19.1798 36.8492 18.8347 37.4445C18.5452 37.9439 18.1094 38.2095 17.5526 38.1749C17.2497 38.1562 17.0328 37.995 16.9262 37.6783C16.819 37.3599 16.8633 37.0586 17.0678 36.8061C17.227 36.6091 17.4475 36.5898 17.6628 36.6642C17.822 36.7192 17.9327 36.7051 17.9889 36.5189C18.0466 36.3271 17.9636 36.2147 17.8076 36.1438C17.2332 35.8833 16.629 35.9696 16.3091 36.3992C16.1726 36.5825 16.101 36.8242 16 37.0393V37.6636C16.069 37.8327 16.1257 38.0092 16.2086 38.1692C16.4379 38.6113 16.8123 38.8139 17.2497 38.9047C17.3321 38.9217 17.4125 38.9472 17.4938 38.9694H17.8029C18.8393 38.7838 19.4631 38.0131 19.9582 37.0858C20.2693 36.5025 20.5351 35.8896 20.8689 35.2886C20.8344 35.5933 20.822 35.9037 20.7607 36.2017C20.6036 36.9655 20.4244 37.7231 20.2539 38.4836C20.2204 38.6334 20.1786 38.7906 20.3476 38.8757C20.5166 38.9614 20.6891 38.9751 20.8071 38.7832C21.2774 38.0194 21.742 37.2521 22.2077 36.4849C22.2582 36.4014 22.3025 36.3129 22.3952 36.2397C22.3679 36.5132 22.3324 36.7856 22.3148 37.0603C22.2973 37.3333 22.2834 37.6079 22.2937 37.8803C22.3154 38.4348 22.5358 38.8332 23.0571 38.9688C23.2436 38.9688 23.4435 39.0449 23.6171 38.9688C24.3964 38.6283 24.7055 37.7203 24.9116 36.7556V36.7533Z" fill="white"/>
</svg>
