<svg width="21" height="21" viewBox="0 0 21 21" fill="none" xmlns="http://www.w3.org/2000/svg">
<path d="M20 20L14.7923 14.8182M17.0464 9.02318C17.0464 10.61 16.5758 12.1612 15.6942 13.4806C14.8126 14.8 13.5596 15.8284 12.0935 16.4356C10.6275 17.0429 9.01428 17.2018 7.45794 16.8922C5.90159 16.5826 4.472 15.8185 3.34994 14.6964C2.22788 13.5744 1.46374 12.1448 1.15417 10.5884C0.844591 9.03208 1.00348 7.41889 1.61073 5.95284C2.21799 4.4868 3.24634 3.23375 4.56574 2.35215C5.88515 1.47055 7.43635 1 9.02318 1C10.0768 1 11.1201 1.20753 12.0935 1.61073C13.0669 2.01393 13.9514 2.60491 14.6964 3.34994C15.4414 4.09496 16.0324 4.97943 16.4356 5.95284C16.8388 6.92626 17.0464 7.96956 17.0464 9.02318Z" stroke="white" stroke-width="1.75"/>
</svg>
