<svg width="114" height="60" viewBox="0 0 114 60" fill="none" xmlns="http://www.w3.org/2000/svg">
<path d="M20.64 59.0401C14.56 59.0401 9.76001 57.6267 6.24001 54.8001C2.72001 51.9734 0.960007 48.1334 0.960007 43.2801C0.960007 40.2401 1.84001 37.5467 3.60001 35.2001C5.36001 32.8001 7.68001 31.1467 10.56 30.2401C8.21334 29.4401 6.32001 28.0267 4.88001 26.0001C3.44001 23.9201 2.72001 21.5201 2.72001 18.8001C2.72001 14.4267 4.34667 10.8801 7.60001 8.16008C10.9067 5.44008 15.28 4.08008 20.72 4.08008C26.1067 4.08008 30.4267 5.44008 33.68 8.16008C36.9867 10.8801 38.64 14.4267 38.64 18.8001C38.64 21.4134 37.9467 23.7067 36.56 25.6801C35.1733 27.6001 33.3067 29.1201 30.96 30.2401C33.7333 31.2534 36 32.9601 37.76 35.3601C39.52 37.7067 40.4 40.3734 40.4 43.3601C40.4 48.2134 38.64 52.0534 35.12 54.8801C31.6 57.6534 26.7733 59.0401 20.64 59.0401ZM20.72 25.6001C22.8 25.6001 24.4533 25.0401 25.68 23.9201C26.96 22.7467 27.6 21.2267 27.6 19.3601C27.6 17.4934 26.96 16.0267 25.68 14.9601C24.4533 13.8934 22.8 13.3601 20.72 13.3601C18.64 13.3601 16.96 13.8934 15.68 14.9601C14.4 16.0267 13.76 17.4934 13.76 19.3601C13.76 21.2267 14.3733 22.7467 15.6 23.9201C16.88 25.0401 18.5867 25.6001 20.72 25.6001ZM20.64 49.2001C22.9867 49.2001 24.9067 48.5867 26.4 47.3601C27.8933 46.1334 28.64 44.3734 28.64 42.0801C28.64 39.9467 27.8933 38.2134 26.4 36.8801C24.96 35.4934 23.04 34.8001 20.64 34.8001C18.24 34.8001 16.2933 35.4934 14.8 36.8801C13.36 38.2667 12.64 40.0001 12.64 42.0801C12.64 44.3201 13.3867 46.0801 14.88 47.3601C16.4267 48.5867 18.3467 49.2001 20.64 49.2001Z" fill="white"/>
<path d="M81.5506 51.6801C77.9773 56.5867 73.0706 59.0401 66.8306 59.0401C60.5906 59.0401 55.684 56.5867 52.1106 51.6801C48.5373 46.7734 46.7506 40.0534 46.7506 31.5201C46.7506 22.9867 48.5373 16.2934 52.1106 11.4401C55.684 6.53341 60.5906 4.08008 66.8306 4.08008C73.124 4.08008 78.0306 6.53341 81.5506 11.4401C85.124 16.2934 86.9106 22.9867 86.9106 31.5201C86.9106 40.0534 85.124 46.7734 81.5506 51.6801ZM66.8306 49.0401C69.604 49.0401 71.6573 47.4667 72.9906 44.3201C74.3773 41.1734 75.0706 36.9067 75.0706 31.5201C75.0706 26.1334 74.3773 21.8934 72.9906 18.8001C71.6573 15.6534 69.604 14.0801 66.8306 14.0801C64.1106 14.0801 62.0573 15.6534 60.6706 18.8001C59.284 21.8934 58.5906 26.1334 58.5906 31.5201C58.5906 36.9067 59.284 41.1734 60.6706 44.3201C62.0573 47.4667 64.1106 49.0401 66.8306 49.0401Z" fill="white"/>
<path d="M100.15 8.24996C99.27 9.16996 98.08 9.62996 96.58 9.62996C95.08 9.62996 93.89 9.17996 93.01 8.27996C92.15 7.35996 91.72 6.23996 91.72 4.91996C91.72 3.59996 92.15 2.48996 93.01 1.58996C93.89 0.669961 95.08 0.209961 96.58 0.209961C98.08 0.209961 99.27 0.669961 100.15 1.58996C101.03 2.48996 101.47 3.59996 101.47 4.91996C101.47 6.21996 101.03 7.32996 100.15 8.24996ZM95.14 21L106.9 0.599961H110.38L98.65 21H95.14ZM96.58 6.86996C97.18 6.86996 97.62 6.67996 97.9 6.29996C98.18 5.91996 98.32 5.45996 98.32 4.91996C98.32 4.37996 98.18 3.91996 97.9 3.53996C97.62 3.13996 97.18 2.93996 96.58 2.93996C96 2.93996 95.56 3.13996 95.26 3.53996C94.98 3.91996 94.84 4.37996 94.84 4.91996C94.84 5.43996 94.98 5.89996 95.26 6.29996C95.56 6.67996 96 6.86996 96.58 6.86996ZM112.42 20.04C111.54 20.94 110.35 21.39 108.85 21.39C107.35 21.39 106.16 20.94 105.28 20.04C104.42 19.12 103.99 18 103.99 16.68C103.99 15.36 104.42 14.25 105.28 13.35C106.16 12.43 107.35 11.97 108.85 11.97C110.35 11.97 111.54 12.43 112.42 13.35C113.3 14.25 113.74 15.36 113.74 16.68C113.74 18 113.3 19.12 112.42 20.04ZM108.85 18.66C109.45 18.66 109.89 18.47 110.17 18.09C110.45 17.69 110.59 17.22 110.59 16.68C110.59 16.14 110.45 15.68 110.17 15.3C109.89 14.92 109.45 14.73 108.85 14.73C108.27 14.73 107.83 14.93 107.53 15.33C107.25 15.71 107.11 16.16 107.11 16.68C107.11 17.22 107.25 17.69 107.53 18.09C107.83 18.47 108.27 18.66 108.85 18.66Z" fill="#F1271D"/>
</svg>
