<svg xmlns="http://www.w3.org/2000/svg" width="30" height="30" fill="none" viewBox="0 0 30 30">
    <path fill="#FB3640" d="M29.145 4.101c-.44-.44-1.16-.445-1.6 0L13.98 17.625 9.088 12.31c-.422-.457-1.137-.486-1.6-.064-.457.422-.486 1.137-.064 1.6l5.69 6.181c.21.229.497.357.808.363h.023c.3 0 .586-.117.797-.328L29.14 5.701c.445-.44.445-1.16.006-1.6z"/>
    <path fill="#fff" fill-opacity=".3" d="M28.87 13.87c-.628 0-1.132.503-1.132 1.13 0 7.025-5.713 12.738-12.738 12.738-7.025 0-12.738-5.713-12.738-12.738C2.262 7.975 7.975 2.262 15 2.262c.627 0 1.13-.504 1.13-1.131S15.628 0 15 0C6.727 0 0 6.727 0 15s6.727 15 15 15 15-6.727 15-15c0-.627-.504-1.13-1.13-1.13z"/>
</svg>
