<svg xmlns="http://www.w3.org/2000/svg" width="34" height="34" fill="none" viewBox="0 0 34 34">
    <path fill-rule="evenodd" stroke="#fff" d="M17 33c8.837 0 16-7.163 16-16S25.837 1 17 1 1 8.163 1 17s7.163 16 16 16z" clip-rule="evenodd"/>
    <path fill="#fff" d="M22.969 14.628c-.029-.639-.132-1.076-.28-1.456-.152-.404-.387-.764-.693-1.064-.3-.306-.664-.543-1.061-.69-.383-.149-.818-.252-1.457-.28-.643-.03-.848-.038-2.478-.038-1.63 0-1.834.007-2.473.035-.639.029-1.076.132-1.456.28-.404.153-.764.387-1.064.693-.305.3-.543.664-.69 1.061-.149.383-.252.818-.28 1.457-.03.643-.038.848-.038 2.475 0 1.628.007 1.835.035 2.474.029.638.132 1.075.28 1.456.153.404.39.763.693 1.064.3.305.665.542 1.062.69.382.148.817.252 1.456.28.639.028.843.035 2.473.035s1.834-.007 2.473-.035c.64-.028 1.076-.132 1.457-.28.805-.312 1.444-.949 1.756-1.756.148-.383.252-.818.28-1.457.028-.641.035-.843.035-2.473s-.002-1.83-.03-2.471zm-1.08 4.902c-.026.587-.125.902-.207 1.113-.202.524-.618.937-1.14 1.14-.211.082-.53.18-1.113.206-.634.028-.822.035-2.424.035-1.602 0-1.794-.007-2.424-.035-.587-.026-.902-.124-1.113-.207-.26-.096-.498-.248-.688-.448-.2-.195-.353-.43-.449-.688-.082-.212-.18-.531-.207-1.114-.028-.634-.035-.822-.035-2.424 0-1.602.007-1.794.035-2.424.026-.587.125-.902.207-1.113.094-.263.247-.498.449-.69.195-.2.43-.353.688-.45.211-.081.53-.18 1.113-.206.634-.028.822-.035 2.424-.035 1.604 0 1.795.007 2.424.035.587.026.902.125 1.113.207.261.096.498.249.689.448.2.195.352.43.448.691.083.211.181.53.207 1.113.028.635.035.822.035 2.424 0 1.602-.005 1.788-.033 2.422z"/>
    <path fill="#fff" d="M17 14.02c-1.702 0-3.084 1.38-3.084 3.084 0 1.702 1.382 3.084 3.084 3.084 1.703 0 3.084-1.382 3.084-3.084 0-1.703-1.38-3.084-3.084-3.084zm0 5.082c-1.104 0-2-.895-2-2 0-1.107.894-2.002 2-2.002 1.104 0 2.002.895 2.002 2.001 0 1.106-.895 2.001-2.002 2.001zM20.928 13.898c0 .396-.322.718-.72.718-.396 0-.718-.322-.718-.718 0-.397.322-.72.719-.72.395-.002.719.322.719.72z"/>
</svg>
