<svg xmlns="http://www.w3.org/2000/svg" width="178" height="45" fill="none" viewBox="0 0 178 45">
    <path fill="#19228D" d="M29.065 26.982l.053-3.013h2.206v-2.938H26.17v3.062l-2.648-2.647-2.726-2.723c-.327-.382-.505-.869-.503-1.371 0-1.219.988-2.206 2.206-2.206s2.206.987 2.206 2.206h2.942c0-2.844-2.305-5.15-5.148-5.15-2.843 0-5.148 2.306-5.148 5.15-.01 1.184.408 2.333 1.177 3.233l.106.106.066.08c-2.014 1.444-3.052 3.892-2.69 6.343.361 2.452 2.062 4.496 4.408 5.297 2.345.801 4.94.225 6.727-1.493.28-.284.535-.59.763-.918l2.859 2.854c-5.562 4.441-13.64 3.689-18.285-1.703C7.837 25.76 8.286 17.66 13.5 12.816c5.214-4.845 13.325-4.698 18.36.331l2.083-2.082c-6.32-6.314-16.56-6.312-22.876.006-6.316 6.317-6.316 16.558 0 22.876 6.316 6.317 16.557 6.32 22.876.006l1.041-1.041-5.92-5.93zm-3.97 1.822c-1.056 1.037-2.63 1.339-3.994.766-1.363-.572-2.25-1.907-2.25-3.386.009-1.362.767-2.609 1.973-3.243.207.199.414.402.635.622l4.314 4.31c-.184.345-.42.66-.7.931h.021z"/>
    <path fill="#19228D" d="M35.735 21.03v2.94h5.837c-.692 8.96-7.53 16.23-16.432 17.471C16.24 42.682 7.674 37.56 4.557 29.13c-3.117-8.43.056-17.893 7.624-22.741 7.568-4.849 17.49-3.774 23.846 2.581l2.077-2.078C30.66-.569 18.98-1.73 10.211 4.12 1.443 9.967-1.972 21.196 2.056 30.936c4.027 9.74 14.375 15.279 24.714 13.226C37.108 42.11 44.557 33.04 44.559 22.5v-1.47h-8.824zM70.588 21.093v7.288c-.89 1.084-2.026 1.941-3.313 2.501-1.366.598-2.842.898-4.332.883-1.733.032-3.443-.398-4.955-1.244-1.425-.813-2.598-2.004-3.388-3.442-.821-1.501-1.24-3.19-1.218-4.901-.024-1.693.386-3.364 1.192-4.853.783-1.433 1.95-2.62 3.37-3.428 1.542-.86 3.286-1.294 5.052-1.257 2.684-.063 5.27 1.008 7.125 2.951l-1.765 2.113c-.693-.696-1.51-1.257-2.409-1.654-.907-.37-1.88-.552-2.859-.534-1.194-.028-2.373.266-3.415.852-.964.557-1.748 1.38-2.258 2.369-.548 1.072-.822 2.263-.799 3.467-.029 1.228.255 2.442.825 3.53.534.993 1.343 1.81 2.33 2.356 1.049.571 2.229.86 3.423.838 1.688.06 3.325-.578 4.527-1.765v-3.415h-4.915v-2.646l7.782-.01zM82.376 20.607c.983 1.062 1.474 2.506 1.474 4.333 0 .287-.035.758-.106 1.407h-8.669c.138.88.613 1.67 1.323 2.206.739.525 1.628.794 2.533.768.6.01 1.198-.085 1.765-.283.523-.194 1.006-.482 1.425-.851l1.261 1.897c-.663.535-1.408.96-2.206 1.262-.807.294-1.66.444-2.519.44-1.184.026-2.355-.254-3.401-.811-.972-.532-1.772-1.329-2.308-2.299-.56-1.02-.843-2.167-.824-3.33-.012-1.12.263-2.224.798-3.208.514-.949 1.277-1.74 2.206-2.29.972-.567 2.081-.859 3.207-.842 1.517-.082 2.993.503 4.041 1.601zM76.2 22.191c-.61.57-1.01 1.328-1.138 2.153h5.987c.02-.8-.271-1.576-.812-2.166-.518-.51-1.224-.785-1.95-.759-.764-.014-1.505.262-2.074.772H76.2zM93.82 19.575l-.758 2.484c-.504-.18-1.036-.271-1.57-.27-.78-.035-1.538.26-2.088.812-.544.602-.826 1.396-.785 2.206v6.605h-2.951v-12.08h2.003l.569 1.765c.313-.634.801-1.166 1.407-1.53.636-.36 1.357-.542 2.087-.526.73-.009 1.45.175 2.087.534zM96.812 31.02c-.96-.509-1.762-1.272-2.316-2.207-.613-1.046-.919-2.243-.883-3.454-.026-1.18.268-2.345.852-3.37.55-.939 1.352-1.704 2.316-2.207.985-.515 2.082-.78 3.194-.772 1.649-.036 3.252.544 4.496 1.628l-1.434 1.977c-.781-.696-1.8-1.064-2.846-1.028-.964-.025-1.896.352-2.572 1.04-.701.74-1.072 1.732-1.028 2.75-.05 1.02.316 2.017 1.015 2.761.666.683 1.588 1.055 2.541 1.028.574.01 1.145-.092 1.681-.3.525-.224 1.002-.546 1.407-.948l1.491 1.976c-.638.608-1.383 1.092-2.197 1.43-.863.314-1.777.463-2.695.44-1.053.005-2.092-.251-3.022-.745zM115.853 20.294c.732.847 1.098 2.024 1.098 3.53v7.588h-2.955v-7.337c.033-.63-.147-1.251-.512-1.765-.396-.445-.977-.68-1.571-.635-.838-.039-1.642.335-2.153 1.001-.537.723-.815 1.606-.789 2.506v6.23h-2.952v-19.5h2.952v7.204c0 .741-.009 1.355-.027 1.84.789-1.278 2.211-2.026 3.71-1.95 1.408 0 2.467.428 3.199 1.288zM119.616 16.323c-.665-.707-.665-1.81 0-2.519.355-.34.833-.522 1.324-.502.494-.021.974.166 1.323.516.332.338.513.796.503 1.27.01.466-.178.915-.516 1.236-.765.665-1.904.665-2.669 0h.035zm-.15 3.018h2.956v12.07h-2.956v-12.07zM135.772 31.248v.164h-3.419l-4.337-5.144v5.144h-2.942v-19.5h2.951v12.216l4.01-4.796h3.331v.137l-4.778 5.713 5.184 6.067zM138.499 31.262c-.397-.177-.737-.46-.98-.82-.22-.348-.335-.75-.331-1.161-.005-.536.149-1.06.441-1.509.357-.518.824-.95 1.368-1.266-.293-.323-.54-.683-.737-1.072-.163-.323-.249-.68-.251-1.041-.005-.413.108-.819.326-1.17.224-.365.545-.661.927-.855.428-.218.904-.327 1.385-.318.424-.009.844.086 1.222.278.685.348 1.114 1.054 1.107 1.822.003.516-.189 1.014-.538 1.394-.443.47-.955.872-1.517 1.191l1.764 1.814c.162-.315.29-.646.38-.989.085-.314.136-.636.15-.961h1.367c-.013.515-.101 1.026-.26 1.517-.149.51-.372.997-.662 1.443l1.597 1.703-1.381.313-1.041-1.112c-.37.341-.797.614-1.261.807-.485.205-1.006.308-1.531.305-.532.012-1.06-.095-1.544-.313zm3.414-1.765l-2.003-2.03c-.352.182-.655.447-.882.773-.189.264-.293.58-.3.904-.002.313.138.61.379.807.288.232.651.35 1.019.331.68-.018 1.324-.309 1.787-.807v.022zm-.684-4.447c.239-.21.375-.515.371-.834 0-.234-.101-.456-.278-.609-.203-.178-.467-.27-.737-.256-.308-.017-.609.093-.834.305-.2.197-.31.469-.304.75.001.232.057.46.163.666.141.263.315.508.516.728.397-.214.767-.473 1.103-.772v.022zM150.816 30.494c-1.411-.827-2.568-2.027-3.344-3.468-.801-1.49-1.211-3.16-1.191-4.852-.029-1.714.396-3.405 1.231-4.902.798-1.424 1.974-2.601 3.397-3.401 1.507-.837 3.208-1.261 4.932-1.231 1.275-.02 2.543.2 3.737.648 1.191.483 2.281 1.184 3.216 2.065l-1.65 2.166c-1.409-1.313-3.276-2.022-5.201-1.976-1.159-.024-2.302.27-3.305.851-.952.563-1.729 1.378-2.245 2.356-.564 1.054-.851 2.233-.834 3.428-.015 1.18.256 2.345.79 3.397.496.994 1.26 1.83 2.205 2.413.983.598 2.115.904 3.265.883 1.058.018 2.105-.214 3.057-.675.906-.455 1.695-1.114 2.303-1.924l2.003 2.056c-.861 1.09-1.963 1.966-3.22 2.559-1.317.603-2.752.904-4.2.882-1.734.033-3.444-.408-4.946-1.275zM167.065 30.953c-.967-.525-1.764-1.315-2.299-2.277-1.114-2.065-1.114-4.552 0-6.617.536-.956 1.334-1.74 2.299-2.259 1.028-.555 2.181-.835 3.348-.816 1.171-.018 2.326.263 3.358.816.97.518 1.774 1.301 2.316 2.259 1.108 2.066 1.108 4.55 0 6.617-.54.964-1.344 1.754-2.316 2.277-1.032.551-2.188.83-3.358.812-1.167.02-2.32-.26-3.348-.812zm5.876-2.859c.661-.748 1.006-1.724.962-2.722.043-.997-.302-1.973-.962-2.722-.669-.67-1.578-1.047-2.526-1.047-.947 0-1.856.376-2.525 1.047-.665.742-1.015 1.713-.975 2.709-.04.995.309 1.967.975 2.709.667.673 1.577 1.052 2.525 1.052.949 0 1.858-.379 2.526-1.052v.026zM57.225 40.857c0 .847-.657 1.39-1.602 1.39h-2.24v-5.082h2.1c.926 0 1.557.53 1.557 1.323.011.453-.223.877-.614 1.108.501.216.818.717.799 1.261zm-2.753-1.628h.794c.174.024.349-.03.478-.15.129-.118.198-.288.188-.463 0-.362-.26-.587-.675-.587h-.785v1.2zm1.646 1.5c.006-.181-.067-.357-.2-.48-.132-.125-.312-.186-.493-.168h-.953v1.323h.935c.189.023.377-.04.515-.17.137-.13.209-.315.196-.505zM64.685 42.225v.022h-1.248l-1.059-1.818H61.8v1.818h-1.107v-5.082h2.042c1.077 0 1.796.692 1.796 1.628 0 .68-.438 1.282-1.085 1.49l1.24 1.942zm-2.078-2.682c.206.027.413-.037.569-.175.154-.138.242-.337.239-.544.001-.201-.08-.394-.226-.533-.145-.138-.341-.21-.542-.2h-.825v1.452h.785zM67.716 39.706c-.018-1.092.627-2.087 1.63-2.518 1.005-.43 2.17-.21 2.948.555.779.766 1.017 1.927.604 2.938-.414 1.011-1.398 1.672-2.49 1.672-.718.038-1.417-.228-1.929-.731-.512-.504-.789-1.199-.763-1.916zm4.244 0c.031-.576-.259-1.12-.752-1.418-.494-.296-1.111-.296-1.605 0-.494.297-.784.843-.753 1.418-.03.575.259 1.12.753 1.417.494.297 1.11.297 1.605 0 .493-.296.783-.842.752-1.417zM80.647 42.216v.031h-1.235l-1.686-2.206v2.206h-1.102v-5.082h1.103v2.206l1.557-2.206h1.213v.03l-1.765 2.476 1.915 2.545zM87.238 41.29v.957h-3.353v-5.082h3.283v.957h-2.175v1.09h1.919v.935H85.01V41.3l2.228-.01zM94.734 42.225v.022h-1.249l-1.063-1.818h-.573v1.818H90.74v-5.082h2.043c1.076 0 1.795.692 1.795 1.628 0 .68-.439 1.28-1.085 1.49l1.24 1.942zm-2.087-2.682c.207.03.417-.033.574-.172.157-.138.246-.338.242-.547.001-.206-.085-.402-.236-.541-.15-.14-.353-.21-.558-.192h-.82v1.452h.798zM102.732 42.225v.022h-1.151l-.349-.776h-2.14l-.352.798h-1.156v-.022l2.413-5.082h.331l2.404 5.06zm-2.929-2.444l-.38.851h1.478l-.379-.851c-.119-.282-.238-.547-.362-.922-.103.313-.222.62-.357.922zM110.294 39.327v2.144c-.552.592-1.335.914-2.144.882-1.462-.01-2.639-1.203-2.629-2.665.009-1.462 1.202-2.639 2.664-2.63.742-.013 1.458.27 1.99.786l-.569.741c-.362-.362-.856-.56-1.368-.547-.734.01-1.375.5-1.581 1.204-.206.705.073 1.462.687 1.865.613.404 1.418.36 1.984-.108v-.79h-1.24v-.883h2.206zM117.185 41.29v.957h-3.361v-5.082h3.282v.957h-2.175v1.09h1.897v.935h-1.897V41.3l2.254-.01zM124.791 41.727l.503-.848c.39.324.879.503 1.385.508.442 0 .817-.185.817-.538 0-.353-.464-.565-1.02-.746-.913-.287-1.504-.794-1.504-1.57 0-.945.816-1.474 1.796-1.474.608-.005 1.203.175 1.707.516l-.472.807c-.353-.237-.766-.367-1.191-.375-.411 0-.724.164-.724.442 0 .375.477.547.949.701.917.291 1.562.75 1.562 1.61 0 .97-.817 1.562-1.875 1.562-.692.012-1.368-.197-1.933-.596zM135.379 41.29v.957h-3.348v-5.082h3.282v.957h-2.175v1.09h1.897v.935h-1.897V41.3l2.241-.01zM142.879 42.225v.022h-1.261l-1.064-1.818h-.573v1.818h-1.107v-5.082h2.042c1.077 0 1.791.692 1.791 1.628.001.678-.435 1.28-1.081 1.49l1.253 1.942zm-2.078-2.682c.208.03.417-.033.575-.172.157-.138.245-.338.242-.547 0-.206-.085-.402-.236-.541-.151-.14-.354-.21-.558-.192h-.821v1.452h.798zM150.684 37.165l-2.422 5.09h-.331l-2.422-5.082v-.022h1.222l1.09 2.4c.106.237.201.478.282.724.093-.26.198-.516.291-.732l1.085-2.392 1.205.014zM153.913 37.165h1.108v5.082h-1.108v-5.082zM158.528 39.706c-.023-.714.253-1.404.76-1.906.507-.503 1.2-.771 1.913-.741.708-.021 1.396.23 1.924.701l-.547.781c-.363-.326-.836-.501-1.324-.49-.868.051-1.55.764-1.561 1.634-.012.87.65 1.601 1.517 1.675.536.017 1.048-.22 1.381-.64l.644.75c-.53.584-1.289.906-2.078.883-.706.021-1.39-.252-1.889-.753-.498-.502-.766-1.188-.74-1.894zM169.928 41.29v.957h-3.349v-5.082h3.274v.957h-2.175v1.09h1.897v.935h-1.897V41.3l2.25-.01zM173.104 41.727l.495-.848c.389.324.879.503 1.385.508.441 0 .812-.185.812-.538 0-.353-.464-.565-1.015-.746-.913-.287-1.505-.794-1.505-1.57 0-.945.817-1.474 1.796-1.474.607-.006 1.201.174 1.703.516l-.463.807c-.351-.237-.763-.368-1.187-.375-.41 0-.728.164-.728.442 0 .375.481.547.953.701.918.291 1.562.75 1.562 1.61 0 .97-.816 1.562-1.875 1.562-.691.012-1.368-.197-1.933-.596z"/>
</svg>
