<svg width="70" height="50" viewBox="0 0 70 50" fill="none" xmlns="http://www.w3.org/2000/svg">
<path d="M50.94 49.8C47.22 49.8 43.92 48.54 41.04 46.02C38.28 43.38 36.9 39.72 36.9 35.04C36.9 26.88 39.54 19.68 44.82 13.44C50.1 7.07998 58.32 2.75998 69.48 0.47998L68.76 8.03999C56.52 10.8 50.4 15.84 50.4 23.16C50.4 24.72 51 26.04 52.2 27.12C53.4 28.08 54.72 29.04 56.16 30C57.72 30.96 59.1 32.16 60.3 33.6C61.5 34.92 62.1 36.78 62.1 39.18C62.1 42.66 61.02 45.3 58.86 47.1C56.7 48.9 54.06 49.8 50.94 49.8ZM14.94 49.8C11.22 49.8 7.91999 48.54 5.03999 46.02C2.27999 43.38 0.899994 39.72 0.899994 35.04C0.899994 26.88 3.53999 19.68 8.81999 13.44C14.1 7.07998 22.32 2.75998 33.48 0.47998L32.76 8.03999C20.52 10.8 14.4 15.84 14.4 23.16C14.4 24.72 15 26.04 16.2 27.12C17.4 28.08 18.72 29.04 20.16 30C21.72 30.96 23.1 32.16 24.3 33.6C25.5 34.92 26.1 36.78 26.1 39.18C26.1 42.66 25.02 45.3 22.86 47.1C20.7 48.9 18.06 49.8 14.94 49.8Z" fill="#242EA6"/>
</svg>
