<svg width="1440" height="909" viewBox="0 0 1440 909" fill="none" xmlns="http://www.w3.org/2000/svg">
<path fill-rule="evenodd" clip-rule="evenodd" d="M-1 909V551C32.6855 552.167 113.181 553.09 154.137 545.535C192.6 538.44 236.842 522.416 266.613 511.634C276.582 508.023 284.928 505 290.892 503.097C293.188 502.364 295.561 501.579 298.007 500.77C320.41 493.361 349.049 483.889 383.022 493.071C391.799 495.443 401.182 498.597 411.315 502.003C444.366 513.113 485.397 526.906 539.43 525.003C595.764 523.02 630.313 501.106 664.354 479.516C672.826 474.142 681.266 468.789 690.003 463.768C699.015 458.589 707.132 453.7 714.601 449.202C725.026 442.922 734.189 437.404 742.76 432.917C757.592 425.154 771.009 420.273 786.903 419.504C791.511 419.281 797.049 419.115 803.349 418.926C839.689 417.835 901.406 415.982 956.381 398.1C1007.37 381.515 1033.08 354.087 1054.26 330.598C1054.92 329.869 1055.58 329.143 1056.23 328.421C1076.48 305.922 1093.52 287 1126 287C1148.34 287 1174.65 298.317 1202.62 314.298C1223.48 326.218 1245.49 340.874 1267.7 355.663C1275.32 360.738 1282.97 365.828 1290.6 370.829C1320.25 390.266 1348.48 404.807 1373.73 413.741C1399.01 422.685 1422.14 425.951 1439.67 423.029L1439.33 909H-1Z" fill="#19228D"/>
<g clip-path="url(#clip0)">
<path d="M2.79523 826.822V909" stroke="#282DC7" stroke-miterlimit="10"/>
<path d="M24.1297 692.779V909" stroke="#282DC7" stroke-miterlimit="10"/>
<path d="M45.4642 738.358V909" stroke="#282DC7" stroke-miterlimit="10"/>
<path d="M66.7986 778.1V909" stroke="#282DC7" stroke-miterlimit="10"/>
<path d="M88.1331 697.943V909" stroke="#282DC7" stroke-miterlimit="10"/>
<path d="M109.468 714.333V909" stroke="#282DC7" stroke-miterlimit="10"/>
<path d="M130.802 750.258V909" stroke="#282DC7" stroke-miterlimit="10"/>
<path d="M152.137 671V909" stroke="#282DC7" stroke-miterlimit="10"/>
<path d="M173.471 692.779V909" stroke="#282DC7" stroke-miterlimit="10"/>
<path d="M194.805 792.245V909" stroke="#282DC7" stroke-miterlimit="10"/>
<path d="M216.14 671V909" stroke="#282DC7" stroke-miterlimit="10"/>
<path d="M237.474 765.975V909" stroke="#282DC7" stroke-miterlimit="10"/>
<path d="M258.809 722.642V909" stroke="#282DC7" stroke-miterlimit="10"/>
<path d="M280.143 671V909" stroke="#282DC7" stroke-miterlimit="10"/>
<path d="M301.478 765.975V909" stroke="#282DC7" stroke-miterlimit="10"/>
<path d="M322.812 706.924V909" stroke="#282DC7" stroke-miterlimit="10"/>
<path d="M344.147 835.355V909" stroke="#282DC7" stroke-miterlimit="10"/>
<path d="M365.481 704.006V909" stroke="#282DC7" stroke-miterlimit="10"/>
<path d="M386.816 778.1V909" stroke="#282DC7" stroke-miterlimit="10"/>
<path d="M408.15 671V909" stroke="#282DC7" stroke-miterlimit="10"/>
<path d="M429.485 718.151V909" stroke="#282DC7" stroke-miterlimit="10"/>
<path d="M450.819 771.588V909" stroke="#282DC7" stroke-miterlimit="10"/>
<path d="M472.154 710.966V909" stroke="#282DC7" stroke-miterlimit="10"/>
<path d="M493.488 671V909" stroke="#282DC7" stroke-miterlimit="10"/>
<path d="M514.823 756.321V909" stroke="#282DC7" stroke-miterlimit="10"/>
<path d="M536.157 671V909" stroke="#282DC7" stroke-miterlimit="10"/>
<path d="M557.491 812.453V909" stroke="#282DC7" stroke-miterlimit="10"/>
<path d="M578.826 706.924V909" stroke="#282DC7" stroke-miterlimit="10"/>
<path d="M600.16 728.255V909" stroke="#282DC7" stroke-miterlimit="10"/>
<path d="M621.495 692.779V909" stroke="#282DC7" stroke-miterlimit="10"/>
<path d="M642.829 771.588V909" stroke="#282DC7" stroke-miterlimit="10"/>
<path d="M664.164 671V909" stroke="#282DC7" stroke-miterlimit="10"/>
<path d="M685.498 710.966V909" stroke="#282DC7" stroke-miterlimit="10"/>
<path d="M706.833 820.761V909" stroke="#282DC7" stroke-miterlimit="10"/>
<path d="M728.167 722.642V909" stroke="#282DC7" stroke-miterlimit="10"/>
<path d="M749.502 756.321V909" stroke="#282DC7" stroke-miterlimit="10"/>
<path d="M770.836 692.779V909" stroke="#282DC7" stroke-miterlimit="10"/>
<path d="M792.171 738.358V909" stroke="#282DC7" stroke-miterlimit="10"/>
<path d="M813.505 697.943V909" stroke="#282DC7" stroke-miterlimit="10"/>
<path d="M834.84 713.66V909" stroke="#282DC7" stroke-miterlimit="10"/>
<path d="M856.174 738.358V909" stroke="#282DC7" stroke-miterlimit="10"/>
<path d="M877.509 671V909" stroke="#282DC7" stroke-miterlimit="10"/>
<path d="M898.843 731.173V909" stroke="#282DC7" stroke-miterlimit="10"/>
<path d="M920.177 682.676V909" stroke="#282DC7" stroke-miterlimit="10"/>
<path d="M941.512 750.034V909" stroke="#282DC7" stroke-miterlimit="10"/>
<path d="M962.846 692.779V909" stroke="#282DC7" stroke-miterlimit="10"/>
<path d="M984.181 722.642V909" stroke="#282DC7" stroke-miterlimit="10"/>
<path d="M1005.52 781.019V909" stroke="#282DC7" stroke-miterlimit="10"/>
<path d="M1026.85 692.779V909" stroke="#282DC7" stroke-miterlimit="10"/>
<path d="M1048.18 846.357V909" stroke="#282DC7" stroke-miterlimit="10"/>
<path d="M1069.52 798.981V909" stroke="#282DC7" stroke-miterlimit="10"/>
<path d="M1090.85 731.173V909" stroke="#282DC7" stroke-miterlimit="10"/>
<path d="M1112.19 688.962V909" stroke="#282DC7" stroke-miterlimit="10"/>
<path d="M1133.52 798.981V909" stroke="#282DC7" stroke-miterlimit="10"/>
<path d="M1154.86 671V909" stroke="#282DC7" stroke-miterlimit="10"/>
<path d="M1176.19 706.924V909" stroke="#282DC7" stroke-miterlimit="10"/>
<path d="M1197.53 735.44V909" stroke="#282DC7" stroke-miterlimit="10"/>
<path d="M1218.86 750.034V909" stroke="#282DC7" stroke-miterlimit="10"/>
<path d="M1240.19 671V909" stroke="#282DC7" stroke-miterlimit="10"/>
<path d="M1261.53 731.173V909" stroke="#282DC7" stroke-miterlimit="10"/>
<path d="M1282.86 773.61V909" stroke="#282DC7" stroke-miterlimit="10"/>
<path d="M1304.2 706.924V909" stroke="#282DC7" stroke-miterlimit="10"/>
<path d="M1325.53 671V909" stroke="#282DC7" stroke-miterlimit="10"/>
<path d="M1346.87 738.358V909" stroke="#282DC7" stroke-miterlimit="10"/>
<path d="M1368.2 770.466V909" stroke="#282DC7" stroke-miterlimit="10"/>
<path d="M1389.54 671V909" stroke="#282DC7" stroke-miterlimit="10"/>
<path d="M1410.87 722.642V909" stroke="#282DC7" stroke-miterlimit="10"/>
<path d="M1432.2 817.617V909" stroke="#282DC7" stroke-miterlimit="10"/>
</g>
<path fill-rule="evenodd" clip-rule="evenodd" d="M1035.5 349C1011.75 376.777 984.5 394.5 912.5 411C870.494 417.264 836 418.664 776.262 421.5C751.5 426.164 712 451 712 451L653 488C653 488 596.617 519.067 576 521.5C528.5 532 473.117 526.5 420.117 508.5C386.188 491.061 341 485.428 283.483 507.5C247 521.5 225.57 530.483 167.5 545C144.025 550.869 110 552 77 554C47.0722 553.152 16.9852 556.426 0 554V530.5C16.8481 532.907 45.3302 535.82 75.0941 536.664C104.898 537.508 136.09 536.291 159.015 530.56C216.945 516.077 250.728 504.133 283.483 484.778C289.562 481.186 295.703 477.331 301.894 473.446C312.308 466.909 322.863 460.284 333.504 454.669C350.562 445.668 368.277 439 387 439C396.656 439 407.822 443.535 420.117 449.854C426.305 453.035 432.865 456.715 439.748 460.588L440.522 461.024C447.182 464.772 454.151 468.693 461.435 472.545C491.725 488.563 527.144 503.19 566.766 498.514C586.399 496.197 606.406 486.052 626.184 471.642C645.942 457.245 665.307 438.713 683.654 419.837C691.879 411.374 699.938 402.801 707.729 394.512C717.231 384.403 726.334 374.718 734.855 366.175C750.353 350.637 764.42 338.346 776.262 333.642C795.267 326.091 810.922 331.174 827.405 336.885C827.882 337.05 828.36 337.216 828.839 337.382C844.948 342.974 862.182 348.955 885.205 345.522C913.062 341.368 937.913 324.736 961.292 297.388C984.681 270.029 1006.47 232.094 1028.19 185.653C1036.44 168.002 1044.11 150.731 1051.38 134.342C1063.2 107.707 1073.99 83.3972 1084.61 63.5566C1093.2 47.504 1101.77 34.1864 1110.83 24.7995C1119.89 15.4024 1129.6 9.76868 1140.45 9.50087C1151.48 9.22852 1161.88 16.1979 1171.52 27.1227C1181.2 38.1023 1190.45 53.4523 1199.16 70.7895C1213.86 100.026 1227.22 135.273 1238.67 165.499C1240.8 171.125 1242.87 176.577 1244.87 181.784C1257.59 214.971 1272.67 248.486 1289.78 277.42C1306.91 306.382 1325.99 330.608 1346.66 345.373C1379.84 369.068 1423.14 376.344 1440.58 377.002L1440.42 424C1422.53 423.325 1399.6 426.5 1355.5 408.5C1331 398.5 1256 355.5 1219 327C1122 270.5 1103 273.5 1035.5 349Z" fill="#282DC7"/>
<path fill-rule="evenodd" clip-rule="evenodd" d="M1168.52 29.7685C1159.12 19.1151 1149.77 13.272 1140.55 13.4996C1131.15 13.7318 1122.36 18.5982 1113.71 27.576C1105.04 36.5641 1096.67 49.4966 1088.14 65.4439C1077.58 85.177 1066.9 109.235 1055.14 135.742C1047.86 152.154 1040.16 169.504 1031.81 187.348C1010.03 233.907 988.069 272.222 964.333 299.987C940.587 327.764 914.938 345.132 885.795 349.478C861.787 353.059 843.744 346.793 827.665 341.209C827.14 341.027 826.617 340.845 826.095 340.665C809.578 334.942 795.233 330.409 777.738 337.359C766.781 341.712 753.261 353.386 737.687 369C729.157 377.552 720.16 387.126 710.727 397.164C702.949 405.44 694.875 414.031 686.523 422.624C668.132 441.546 648.578 460.274 628.539 474.875C608.519 489.462 587.851 500.053 567.234 502.486C526.356 507.311 490.025 492.188 459.565 476.081C452.237 472.206 445.23 468.263 438.582 464.522L437.787 464.074C430.892 460.195 424.398 456.552 418.289 453.412C405.99 447.091 395.594 443 387 443C369.223 443 352.188 449.333 335.371 458.207C324.828 463.77 314.541 470.229 304.243 476.696C298.025 480.601 291.802 484.508 285.517 488.222C252.272 507.867 218.055 519.923 159.985 534.441C136.51 540.309 104.869 541.509 74.9809 540.662C45.0531 539.814 16.7024 536.907 -0.282837 534.48L0.282849 530.52C17.131 532.927 45.3303 535.82 75.0942 536.664C104.898 537.508 136.09 536.291 159.015 530.56C216.945 516.077 250.728 504.133 283.483 484.778C289.562 481.186 295.703 477.331 301.894 473.446C312.308 466.909 322.863 460.284 333.504 454.669C350.562 445.668 368.277 439 387 439C396.656 439 407.822 443.535 420.117 449.854C426.305 453.035 432.865 456.715 439.748 460.588L440.522 461.024C447.182 464.772 454.151 468.693 461.435 472.545C491.725 488.563 527.144 503.19 566.766 498.514C586.399 496.197 606.406 486.052 626.184 471.642C645.942 457.245 665.307 438.713 683.654 419.837C691.879 411.374 699.938 402.801 707.729 394.512C717.231 384.403 726.334 374.718 734.855 366.175C750.353 350.637 764.42 338.346 776.262 333.642C795.267 326.091 810.922 331.174 827.405 336.885C827.882 337.05 828.36 337.216 828.839 337.382C844.948 342.974 862.182 348.955 885.205 345.522C913.062 341.368 937.913 324.736 961.292 297.388C984.681 270.029 1006.47 232.094 1028.19 185.653C1036.44 168.002 1044.11 150.731 1051.38 134.342C1063.2 107.707 1073.99 83.3972 1084.61 63.5566C1093.2 47.504 1101.77 34.1864 1110.83 24.7995C1119.89 15.4024 1129.6 9.76868 1140.45 9.50087C1151.48 9.22852 1161.88 16.1979 1171.52 27.1227C1181.2 38.1023 1190.45 53.4523 1199.16 70.7895C1213.86 100.026 1227.22 135.273 1238.67 165.499C1240.8 171.125 1242.87 176.577 1244.87 181.784C1257.59 214.971 1272.67 248.486 1289.78 277.42C1306.91 306.382 1325.99 330.608 1346.66 345.373C1379.84 369.068 1423.14 376.344 1440.58 377.002L1440.42 380.999C1422.53 380.323 1378.36 372.933 1344.34 348.628C1323.01 333.392 1303.59 308.618 1286.34 279.456C1269.08 250.265 1253.91 216.529 1241.13 183.216C1239.12 177.979 1237.05 172.505 1234.91 166.865C1223.45 136.63 1210.18 101.618 1195.59 72.5861C1186.93 55.3608 1177.86 40.367 1168.52 29.7685Z" fill="url(#paint0_linear)"/>
<path fill-rule="evenodd" clip-rule="evenodd" d="M1055.74 332.777C1034.42 356.414 1008.13 384.487 956.119 401.404C900.531 419.484 838.119 421.348 801.846 422.431C795.598 422.617 790.125 422.78 785.597 423C770.491 423.73 757.658 428.35 743.115 435.961C734.612 440.412 725.644 445.815 715.338 452.024C707.871 456.523 699.701 461.446 690.497 466.736C681.984 471.628 673.687 476.895 665.301 482.219C631.173 503.883 595.584 526.476 538.07 528.501C483.227 530.432 441.247 516.312 408.143 505.177C398.149 501.815 388.964 498.726 380.478 496.433C347.726 487.581 320.208 496.663 297.758 504.073C295.315 504.879 292.931 505.666 290.608 506.407C284.844 508.247 276.669 511.208 266.846 514.766C237.087 525.545 192.2 541.805 153.363 548.969C111.919 556.614 34.0786 556.167 0.430725 555.001L0.569256 551.003C34.2547 552.171 111.681 552.59 152.637 545.035C191.1 537.94 235.342 521.916 265.113 511.134C275.082 507.523 283.428 504.5 289.392 502.597C291.688 501.864 294.061 501.079 296.507 500.27C318.91 492.861 347.549 483.389 381.522 492.571C390.299 494.943 399.682 498.097 409.815 501.503C442.866 512.613 483.897 526.406 537.93 524.503C594.264 522.52 628.813 500.606 662.854 479.016C671.326 473.642 679.767 468.289 688.503 463.268C697.515 458.089 705.632 453.2 713.101 448.702C723.526 442.422 732.689 436.904 741.26 432.417C756.092 424.654 769.509 419.773 785.403 419.004C790.011 418.781 795.549 418.615 801.849 418.426C838.189 417.335 899.906 415.482 954.881 397.6C1005.87 381.015 1031.58 353.587 1052.76 330.098C1053.42 329.369 1054.08 328.643 1054.73 327.921C1074.98 305.422 1092.02 286.5 1124.5 286.5C1146.84 286.5 1173.15 297.817 1201.12 313.798C1221.98 325.718 1243.99 340.374 1266.2 355.163C1273.82 360.238 1281.47 365.328 1289.1 370.329C1318.75 389.766 1346.98 404.307 1372.23 413.241C1397.51 422.185 1419.64 425.451 1437.17 422.529L1437.83 426.475C1419.36 429.553 1396.49 426.068 1370.9 417.012C1345.27 407.944 1316.75 393.236 1286.9 373.675C1279.21 368.633 1271.53 363.517 1263.88 358.427C1241.71 343.66 1219.87 329.118 1199.13 317.271C1171.21 301.313 1145.7 290.5 1124.5 290.5C1093.82 290.5 1077.92 308.157 1057.36 330.976C1056.82 331.573 1056.28 332.173 1055.74 332.777Z" fill="url(#paint1_linear)"/>
<circle cx="1138" cy="13" r="13" fill="#88D7FF"/>
<circle cx="784" cy="332" r="13" fill="#88D7FF"/>
<circle cx="384" cy="440" r="6" fill="#88D7FF"/>
<circle cx="1118" cy="289" r="6" fill="#F1271D"/>
<circle cx="930" cy="407" r="6" fill="#F1271D"/>
<circle cx="531" cy="526" r="6" fill="#F1271D"/>
<defs>
<linearGradient id="paint0_linear" x1="1398.5" y1="332" x2="19" y2="446.5" gradientUnits="userSpaceOnUse">
<stop stop-color="#1DADE5"/>
<stop offset="0.726387" stop-color="#1582D8"/>
<stop offset="1" stop-color="#343ADB"/>
</linearGradient>
<linearGradient id="paint1_linear" x1="163.5" y1="583" x2="1361" y2="406.5" gradientUnits="userSpaceOnUse">
<stop stop-color="#3C43CE"/>
<stop offset="0.234375" stop-color="#AA458C"/>
<stop offset="1" stop-color="#FB3640"/>
</linearGradient>
<clipPath id="clip0">
<rect width="1645" height="238" fill="white" transform="translate(-105 671)"/>
</clipPath>
</defs>
</svg>
