<svg width="963" height="651" viewBox="0 0 963 651" fill="none" xmlns="http://www.w3.org/2000/svg">
<path d="M-74 649.865C-74 649.865 8.59162 608.885 56.0217 529.203C103.578 449.52 173.775 390.833 223.355 405.379C272.935 419.924 361.851 494.547 427.494 458.753C493.138 422.959 541.706 248.796 632.772 279.151C723.838 309.507 770.003 452.935 860.31 470.137C950.743 487.211 962 444.714 962 444.714" stroke="#B80007" stroke-width="2" stroke-miterlimit="10"/>
<path d="M-70.4586 601.802C-70.4586 601.802 -58.6959 583.083 17.8246 547.669C94.3452 512.381 137.475 376.794 220.699 404.746C303.923 432.698 371.463 357.443 439.51 285.096C507.556 212.749 607.349 262.835 679.316 331.261C751.41 399.56 812.121 509.345 869.29 494.674C926.585 480.002 926.712 471.907 932.403 439.275" stroke="#62C6FA" stroke-width="2" stroke-miterlimit="10"/>
<path d="M30.2196 504.539H14.4096V530.341H30.2196V504.539Z" fill="#62C6FA"/>
<path d="M24.1486 526.041H20.6071V543.622H24.1486V526.041Z" fill="#62C6FA"/>
<path d="M24.1492 491.132H20.6077V508.713H24.1492V491.132Z" fill="#62C6FA"/>
<path d="M63.9899 479.116H48.1799V502.009H63.9899V479.116Z" fill="#62C6FA"/>
<path d="M57.9189 498.215H54.3774V513.772H57.9189V498.215Z" fill="#62C6FA"/>
<path d="M57.9196 467.354H54.3781V482.911H57.9196V467.354Z" fill="#62C6FA"/>
<path d="M97.7601 455.085H81.9501V487.59H97.7601V455.085Z" fill="#F71B47"/>
<path d="M91.6891 482.278H88.1477V504.539H91.6891V482.278Z" fill="#F71B47"/>
<path d="M91.6897 438.263H88.1483V460.523H91.6897V438.263Z" fill="#F71B47"/>
<path d="M131.657 419.924H115.847V448.255H131.657V419.924Z" fill="#62C6FA"/>
<path d="M125.586 443.575H122.044V462.927H125.586V443.575Z" fill="#62C6FA"/>
<path d="M125.586 405.252H122.045V424.603H125.586V405.252Z" fill="#62C6FA"/>
<path d="M166.439 396.146H152.779V425.489H166.439V396.146Z" fill="#62C6FA"/>
<path d="M161.127 420.682H158.091V468.998H161.127V420.682Z" fill="#62C6FA"/>
<path d="M161.127 380.968H158.092V401.078H161.127V380.968Z" fill="#62C6FA"/>
<path d="M199.324 371.861H183.514V402.596H199.324V371.861Z" fill="#62C6FA"/>
<path d="M193.126 397.537H189.585V418.532H193.126V397.537Z" fill="#62C6FA"/>
<path d="M193.127 355.925H189.586V376.921H193.127V355.925Z" fill="#62C6FA"/>
<path d="M233.094 369.078H217.284V403.355H233.094V369.078Z" fill="#F71B47"/>
<path d="M227.023 397.79H223.482V421.188H227.023V397.79Z" fill="#F71B47"/>
<path d="M227.024 351.371H223.482V374.77H227.024V351.371Z" fill="#F71B47"/>
<path d="M266.864 375.15H251.054V406.39H266.864V375.15Z" fill="#62C6FA"/>
<path d="M260.793 401.204H257.252V422.58H260.793V401.204Z" fill="#62C6FA"/>
<path d="M260.794 322.534H257.252V380.335H260.794V322.534Z" fill="#62C6FA"/>
<path d="M300.761 383.75H284.951V406.643H300.761V383.75Z" fill="#62C6FA"/>
<path d="M294.69 402.849H291.148V418.532H294.69V402.849Z" fill="#62C6FA"/>
<path d="M294.691 371.861H291.149V387.544H294.691V371.861Z" fill="#62C6FA"/>
<path d="M334.531 372.62H318.721V399.813H334.531V372.62Z" fill="#F71B47"/>
<path d="M328.46 395.386H324.919V413.979H328.46V395.386Z" fill="#F71B47"/>
<path d="M328.461 358.581H324.919V377.173H328.461V358.581Z" fill="#F71B47"/>
<path d="M368 313H353V373H368V313Z" fill="#62C6FA"/>
<path d="M362.23 369.205H358.689V386.28H362.23V369.205Z" fill="#62C6FA"/>
<path d="M362.231 335.435H358.69V352.51H362.231V335.435Z" fill="#62C6FA"/>
<path d="M402.198 300.273H386.388V335.308H402.198V300.273Z" fill="#62C6FA"/>
<path d="M396.127 329.49H392.586V353.395H396.127V329.49Z" fill="#62C6FA"/>
<path d="M396.128 282.187H392.586V306.091H396.128V282.187Z" fill="#62C6FA"/>
<path d="M435.968 278.139H420.158V301.032H435.968V278.139Z" fill="#F71B47"/>
<path d="M429.897 297.238H426.356V312.921H429.897V297.238Z" fill="#F71B47"/>
<path d="M429.898 266.25H426.357V281.933H429.898V266.25Z" fill="#F71B47"/>
<path d="M469.865 246.266H454.055V273.333H469.865V246.266Z" fill="#62C6FA"/>
<path d="M463.794 268.906H460.253V287.372H463.794V268.906Z" fill="#62C6FA"/>
<path d="M463.795 232.227H460.253V250.693H463.795V232.227Z" fill="#62C6FA"/>
<path d="M503.635 225.144H487.825V258.409H503.635V225.144Z" fill="#62C6FA"/>
<path d="M497.564 252.843H494.023V275.61H497.564V252.843Z" fill="#62C6FA"/>
<path d="M497.565 207.943H494.024V230.709H497.565V207.943Z" fill="#62C6FA"/>
<path d="M537.532 220.591H521.722V250.693H537.532V220.591Z" fill="#62C6FA"/>
<path d="M531.335 245.634H527.793V266.25H531.335V245.634Z" fill="#62C6FA"/>
<path d="M531.335 204.907H527.794V225.523H531.335V204.907Z" fill="#62C6FA"/>
<path d="M571.302 226.156H555.492V273.206H571.302V226.156Z" fill="#F71B47"/>
<path d="M565.231 265.491H561.69V358.328H565.231V265.491Z" fill="#F71B47"/>
<path d="M565.232 201.872H561.69V233.998H565.232V201.872Z" fill="#F71B47"/>
<path d="M605.073 248.417H589.263V273.207H605.073V248.417Z" fill="#62C6FA"/>
<path d="M599.002 269.032H595.46V285.981H599.002V269.032Z" fill="#62C6FA"/>
<path d="M599.002 235.642H595.461V252.59H599.002V235.642Z" fill="#62C6FA"/>
<path d="M638.969 264.353H623.159V311.404H638.969V264.353Z" fill="#F71B47"/>
<path d="M632.898 303.562H629.357V335.688H632.898V303.562Z" fill="#F71B47"/>
<path d="M632.899 239.942H629.357V272.068H632.899V239.942Z" fill="#F71B47"/>
<path d="M672.739 306.977H656.929V338.218H672.739V306.977Z" fill="#62C6FA"/>
<path d="M666.668 333.032H663.127V354.407H666.668V333.032Z" fill="#62C6FA"/>
<path d="M666.669 290.787H663.128V312.163H666.669V290.787Z" fill="#62C6FA"/>
<path d="M712.201 347.45H696.391V373.632H712.201V347.45Z" fill="#F71B47"/>
<path d="M706.13 369.205H702.589V387.039H706.13V369.205Z" fill="#F71B47"/>
<path d="M706.131 263.088H702.59V351.751H706.131V263.088Z" fill="#F71B47"/>
<path d="M748.248 375.655H732.438V422.706H748.248V375.655Z" fill="#62C6FA"/>
<path d="M742.177 414.991H738.636V447.117H742.177V414.991Z" fill="#62C6FA"/>
<path d="M742.178 351.371H738.636V383.497H742.178V351.371Z" fill="#62C6FA"/>
<path d="M785.181 421.948H769.37V455.212H785.181V421.948Z" fill="#62C6FA"/>
<path d="M779.109 449.646H775.568V472.413H779.109V449.646Z" fill="#62C6FA"/>
<path d="M779.11 404.746H775.569V427.512H779.11V404.746Z" fill="#62C6FA"/>
<path d="M820.089 457.109H804.279V484.176H820.089V457.109Z" fill="#F71B47"/>
<path d="M814.018 479.622H810.477V498.088H814.018V479.622Z" fill="#F71B47"/>
<path d="M814.019 443.07H810.477V461.536H814.019V443.07Z" fill="#F71B47"/>
<path d="M860.31 458.121H844.5V488.223H860.31V458.121Z" fill="#62C6FA"/>
<path d="M854.239 483.29H850.697V503.906H854.239V483.29Z" fill="#62C6FA"/>
<path d="M854.239 442.564H850.698V463.18H854.239V442.564Z" fill="#62C6FA"/>
<path d="M297.599 294.202H220.573V324.305H297.599V294.202Z" fill="#62C6FA"/>
<path d="M234.875 311.553C238.392 311.553 240.097 309.795 240.097 307.738C240.097 303.22 232.941 304.784 232.941 302.516C232.941 301.743 233.592 301.11 235.28 301.11C236.37 301.11 237.548 301.426 238.69 302.077L239.569 299.914C238.427 299.194 236.844 298.824 235.297 298.824C231.799 298.824 230.111 300.565 230.111 302.657C230.111 307.228 237.266 305.646 237.266 307.949C237.266 308.705 236.581 309.267 234.893 309.267C233.416 309.267 231.869 308.74 230.832 307.984L229.865 310.129C230.955 310.973 232.924 311.553 234.875 311.553ZM244.874 309.057V306.208H250.587V303.993H244.874V301.321H251.343V299.035H242.043V311.342H251.572V309.057H244.874ZM253.838 311.342H262.857V309.021H256.686V299.035H253.838V311.342ZM264.448 311.342H273.467V309.021H267.296V299.035H264.448V311.342Z" fill="white"/>
<path d="M198.186 465.71H121.159V495.812H198.186V465.71Z" fill="#62C6FA"/>
<path d="M135.481 483.12C138.998 483.12 140.703 481.362 140.703 479.305C140.703 474.787 133.548 476.352 133.548 474.084C133.548 473.31 134.198 472.677 135.886 472.677C136.976 472.677 138.154 472.994 139.297 473.644L140.176 471.482C139.033 470.761 137.451 470.392 135.903 470.392C132.405 470.392 130.717 472.132 130.717 474.224C130.717 478.795 137.872 477.213 137.872 479.516C137.872 480.272 137.187 480.835 135.499 480.835C134.022 480.835 132.475 480.307 131.438 479.551L130.471 481.696C131.561 482.54 133.53 483.12 135.481 483.12ZM145.48 480.624V477.776H151.193V475.561H145.48V472.888H151.949V470.603H142.649V482.909H152.178V480.624H145.48ZM154.444 482.909H163.463V480.589H157.292V470.603H154.444V482.909ZM165.054 482.909H174.073V480.589H167.903V470.603H165.054V482.909Z" fill="white"/>
<path d="M602.67 348.083H527.667V378.185H602.67V348.083Z" fill="#F71B47"/>
<path d="M549.746 358.832C550.748 358.305 551.381 357.355 551.381 356.125C551.381 354.208 549.798 352.925 546.722 352.925H540.709V365.232H547.073C550.308 365.232 551.996 364.001 551.996 361.874C551.996 360.327 551.117 359.272 549.746 358.832ZM546.37 355.07C547.759 355.07 548.515 355.545 548.515 356.512C548.515 357.479 547.759 357.971 546.37 357.971H543.54V355.07H546.37ZM546.862 363.087H543.54V360.045H546.862C548.339 360.045 549.13 360.538 549.13 361.575C549.13 362.63 548.339 363.087 546.862 363.087ZM559.62 365.443C563.119 365.443 565.193 363.438 565.193 359.817V352.925H562.38V359.711C562.38 362.05 561.378 363.016 559.638 363.016C557.915 363.016 556.895 362.05 556.895 359.711V352.925H554.047V359.817C554.047 363.438 556.121 365.443 559.62 365.443ZM578.525 352.925H575.73L572.442 358.393L569.154 352.925H566.131L570.895 360.836V365.232H573.743V360.872L578.525 352.925Z" fill="white"/>
<path d="M741.924 237.413H666.922V267.515H741.924V237.413Z" fill="#F71B47"/>
<path d="M688.963 248.262C689.965 247.734 690.598 246.785 690.598 245.554C690.598 243.638 689.016 242.355 685.939 242.355H679.926V254.661H686.291C689.526 254.661 691.213 253.43 691.213 251.303C691.213 249.756 690.334 248.701 688.963 248.262ZM685.587 244.499C686.976 244.499 687.732 244.974 687.732 245.941C687.732 246.908 686.976 247.4 685.587 247.4H682.757V244.499H685.587ZM686.08 252.516H682.757V249.475H686.08C687.556 249.475 688.348 249.967 688.348 251.004C688.348 252.059 687.556 252.516 686.08 252.516ZM698.837 254.872C702.336 254.872 704.41 252.868 704.41 249.246V242.355H701.597V249.141C701.597 251.479 700.595 252.446 698.855 252.446C697.132 252.446 696.112 251.479 696.112 249.141V242.355H693.264V249.246C693.264 252.868 695.339 254.872 698.837 254.872ZM717.742 242.355H714.947L711.659 247.822L708.372 242.355H705.348L710.112 250.266V254.661H712.96V250.301L717.742 242.355Z" fill="white"/>
<path d="M326.69 345.174L338.199 331.261H315.053L326.69 345.174Z" fill="#F71B47"/>
<path d="M461.897 310.898L473.533 324.811H450.387L461.897 310.898Z" fill="#62C6FA"/>
<path d="M738.636 461.03L750.146 475.069H727.126L738.636 461.03Z" fill="#62C6FA"/>
<path d="M89.9184 402.217L101.428 388.177H78.4087L89.9184 402.217Z" fill="#F71B47"/>
<path d="M561.69 184.165L573.2 170.125H550.054L561.69 184.165Z" fill="#F71B47"/>
<path d="M810.477 418.785L821.986 404.873H798.967L810.477 418.785Z" fill="#F71B47"/>
<path d="M360.46 382.106C372.195 382.106 381.708 372.593 381.708 360.858C381.708 349.122 372.195 339.609 360.46 339.609C348.724 339.609 339.211 349.122 339.211 360.858C339.211 372.593 348.724 382.106 360.46 382.106Z" fill="url(#paint0_radial)"/>
<path d="M360.46 367.688C364.232 367.688 367.29 364.63 367.29 360.858C367.29 357.086 364.232 354.028 360.46 354.028C356.688 354.028 353.63 357.086 353.63 360.858C353.63 364.63 356.688 367.688 360.46 367.688Z" fill="#62C6FA"/>
<path d="M360.46 364.146C362.276 364.146 363.748 362.674 363.748 360.858C363.748 359.041 362.276 357.569 360.46 357.569C358.644 357.569 357.171 359.041 357.171 360.858C357.171 362.674 358.644 364.146 360.46 364.146Z" fill="#62C6FA"/>
<path d="M260.793 432.066C272.529 432.066 282.042 422.553 282.042 410.817C282.042 399.082 272.529 389.569 260.793 389.569C249.058 389.569 239.545 399.082 239.545 410.817C239.545 422.553 249.058 432.066 260.793 432.066Z" fill="url(#paint1_radial)"/>
<path d="M260.793 417.647C264.565 417.647 267.623 414.59 267.623 410.817C267.623 407.045 264.565 403.988 260.793 403.988C257.021 403.988 253.963 407.045 253.963 410.817C253.963 414.59 257.021 417.647 260.793 417.647Z" fill="#62C6FA"/>
<path d="M260.793 414.106C262.609 414.106 264.082 412.633 264.082 410.817C264.082 409.001 262.609 407.529 260.793 407.529C258.977 407.529 257.505 409.001 257.505 410.817C257.505 412.633 258.977 414.106 260.793 414.106Z" fill="#62C6FA"/>
<path d="M191.356 408.794C203.091 408.794 212.604 399.28 212.604 387.545C212.604 375.81 203.091 366.296 191.356 366.296C179.62 366.296 170.107 375.81 170.107 387.545C170.107 399.28 179.62 408.794 191.356 408.794Z" fill="url(#paint2_radial)"/>
<path d="M191.356 394.375C195.128 394.375 198.186 391.317 198.186 387.545C198.186 383.773 195.128 380.715 191.356 380.715C187.584 380.715 184.526 383.773 184.526 387.545C184.526 391.317 187.584 394.375 191.356 394.375Z" fill="#62C6FA"/>
<path d="M191.356 390.833C193.172 390.833 194.644 389.361 194.644 387.545C194.644 385.729 193.172 384.256 191.356 384.256C189.539 384.256 188.067 385.729 188.067 387.545C188.067 389.361 189.539 390.833 191.356 390.833Z" fill="#62C6FA"/>
<path d="M495.794 261.823C507.529 261.823 517.042 252.31 517.042 240.575C517.042 228.839 507.529 219.326 495.794 219.326C484.058 219.326 474.545 228.839 474.545 240.575C474.545 252.31 484.058 261.823 495.794 261.823Z" fill="url(#paint3_radial)"/>
<path d="M495.794 247.405C499.566 247.405 502.624 244.347 502.624 240.575C502.624 236.802 499.566 233.745 495.794 233.745C492.022 233.745 488.964 236.802 488.964 240.575C488.964 244.347 492.022 247.405 495.794 247.405Z" fill="#62C6FA"/>
<path d="M495.794 243.863C497.61 243.863 499.082 242.391 499.082 240.575C499.082 238.758 497.61 237.286 495.794 237.286C493.977 237.286 492.505 238.758 492.505 240.575C492.505 242.391 493.977 243.863 495.794 243.863Z" fill="#62C6FA"/>
<path d="M740.407 426.501C752.142 426.501 761.655 416.987 761.655 405.252C761.655 393.517 752.142 384.003 740.407 384.003C728.671 384.003 719.158 393.517 719.158 405.252C719.158 416.987 728.671 426.501 740.407 426.501Z" fill="url(#paint4_radial)"/>
<path d="M740.407 412.082C744.179 412.082 747.236 409.024 747.236 405.252C747.236 401.48 744.179 398.422 740.407 398.422C736.634 398.422 733.577 401.48 733.577 405.252C733.577 409.024 736.634 412.082 740.407 412.082Z" fill="#62C6FA"/>
<path d="M740.407 408.54C742.223 408.54 743.695 407.068 743.695 405.252C743.695 403.436 742.223 401.963 740.407 401.963C738.59 401.963 737.118 403.436 737.118 405.252C737.118 407.068 738.59 408.54 740.407 408.54Z" fill="#62C6FA"/>
<path d="M704.36 381.727C716.095 381.727 725.608 372.214 725.608 360.478C725.608 348.743 716.095 339.229 704.36 339.229C692.624 339.229 683.111 348.743 683.111 360.478C683.111 372.214 692.624 381.727 704.36 381.727Z" fill="url(#paint5_radial)"/>
<path d="M704.36 367.308C708.132 367.308 711.19 364.25 711.19 360.478C711.19 356.706 708.132 353.648 704.36 353.648C700.588 353.648 697.53 356.706 697.53 360.478C697.53 364.25 700.588 367.308 704.36 367.308Z" fill="#FF6161"/>
<path d="M704.36 363.767C706.176 363.767 707.648 362.294 707.648 360.478C707.648 358.662 706.176 357.19 704.36 357.19C702.543 357.19 701.071 358.662 701.071 360.478C701.071 362.294 702.543 363.767 704.36 363.767Z" fill="#FF6161"/>
<path d="M563.461 270.298C575.196 270.298 584.709 260.784 584.709 249.049C584.709 237.314 575.196 227.8 563.461 227.8C551.725 227.8 542.212 237.314 542.212 249.049C542.212 260.784 551.725 270.298 563.461 270.298Z" fill="url(#paint6_radial)"/>
<path d="M563.461 255.879C567.233 255.879 570.291 252.821 570.291 249.049C570.291 245.277 567.233 242.219 563.461 242.219C559.689 242.219 556.631 245.277 556.631 249.049C556.631 252.821 559.689 255.879 563.461 255.879Z" fill="#FF6161"/>
<path d="M563.461 252.337C565.277 252.337 566.749 250.865 566.749 249.049C566.749 247.233 565.277 245.76 563.461 245.76C561.644 245.76 560.172 247.233 560.172 249.049C560.172 250.865 561.644 252.337 563.461 252.337Z" fill="#FF6161"/>
<path d="M88.1477 505.298C99.8831 505.298 109.396 495.785 109.396 484.049C109.396 472.314 99.8831 462.801 88.1477 462.801C76.4124 462.801 66.899 472.314 66.899 484.049C66.899 495.785 76.4124 505.298 88.1477 505.298Z" fill="url(#paint7_radial)"/>
<path d="M88.1478 490.879C91.9199 490.879 94.9777 487.821 94.9777 484.049C94.9777 480.277 91.9199 477.219 88.1478 477.219C84.3757 477.219 81.3178 480.277 81.3178 484.049C81.3178 487.821 84.3757 490.879 88.1478 490.879Z" fill="#FF6161"/>
<path d="M88.1478 487.338C89.964 487.338 91.4363 485.866 91.4363 484.049C91.4363 482.233 89.964 480.761 88.1478 480.761C86.3316 480.761 84.8593 482.233 84.8593 484.049C84.8593 485.866 86.3316 487.338 88.1478 487.338Z" fill="#FF6161"/>
<path d="M305.799 316.641L307.661 314.883C308.795 313.831 309.014 313.113 309.014 312.327C309.014 310.858 307.811 309.933 306.007 309.933C304.55 309.933 303.416 310.523 302.792 311.436L304.156 312.315C304.55 311.772 305.14 311.506 305.833 311.506C306.689 311.506 307.129 311.876 307.129 312.512C307.129 312.905 307.002 313.322 306.285 314.004L303.162 316.953V318.168H309.28V316.641H305.799ZM315.594 313.911C316.195 313.541 316.542 312.975 316.542 312.246C316.542 310.823 315.27 309.933 313.408 309.933C311.569 309.933 310.296 310.823 310.296 312.246C310.296 312.975 310.632 313.541 311.233 313.911C310.458 314.305 310.007 314.952 310.007 315.82C310.007 317.347 311.36 318.307 313.408 318.307C315.467 318.307 316.831 317.347 316.831 315.82C316.831 314.952 316.38 314.305 315.594 313.911ZM313.408 311.309C314.171 311.309 314.68 311.691 314.68 312.327C314.68 312.94 314.183 313.322 313.408 313.322C312.644 313.322 312.159 312.94 312.159 312.327C312.159 311.691 312.656 311.309 313.408 311.309ZM313.408 316.93C312.482 316.93 311.904 316.479 311.904 315.762C311.904 315.045 312.482 314.605 313.408 314.605C314.345 314.605 314.935 315.045 314.935 315.762C314.935 316.479 314.345 316.93 313.408 316.93ZM318.866 318.261C319.491 318.261 319.988 317.786 319.988 317.127C319.988 316.456 319.491 316.017 318.866 316.017C318.242 316.017 317.744 316.456 317.744 317.127C317.744 317.786 318.242 318.261 318.866 318.261ZM324.152 318.307C326.153 318.307 327.622 316.792 327.622 314.12C327.622 311.448 326.153 309.933 324.152 309.933C322.163 309.933 320.682 311.448 320.682 314.12C320.682 316.792 322.163 318.307 324.152 318.307ZM324.152 316.722C323.227 316.722 322.579 315.959 322.579 314.12C322.579 312.281 323.227 311.517 324.152 311.517C325.089 311.517 325.737 312.281 325.737 314.12C325.737 315.959 325.089 316.722 324.152 316.722ZM331.378 309.933C329.666 309.933 328.313 310.974 328.313 312.628C328.313 314.154 329.539 315.149 331.101 315.149C331.945 315.149 332.639 314.895 333.113 314.42C333.055 315.982 332.176 316.78 330.834 316.78C330.279 316.78 329.759 316.676 329.319 316.375L328.625 317.752C329.192 318.11 330.013 318.307 330.869 318.307C333.321 318.307 334.998 316.745 334.998 313.946C334.998 311.332 333.622 309.933 331.378 309.933ZM331.517 313.75C330.684 313.75 330.14 313.275 330.14 312.535C330.14 311.795 330.696 311.332 331.494 311.332C332.384 311.332 332.905 311.841 332.905 312.535C332.905 313.241 332.338 313.75 331.517 313.75Z" fill="#F71B47"/>
<path d="M581.586 170.455V171.958H583.205V178.551H585.079V170.455H581.586ZM589.261 173.497H588.602L588.729 171.958H592.107V170.455H587.168L586.751 175.012H588.822C590.291 175.012 590.707 175.428 590.707 176.064C590.707 176.724 590.129 177.117 589.192 177.117C588.348 177.117 587.503 176.851 586.89 176.388L586.15 177.823C586.936 178.378 588.116 178.69 589.238 178.69C591.551 178.69 592.604 177.441 592.604 176.007C592.604 174.572 591.656 173.497 589.261 173.497ZM594.428 178.644C595.053 178.644 595.55 178.17 595.55 177.51C595.55 176.839 595.053 176.4 594.428 176.4C593.804 176.4 593.306 176.839 593.306 177.51C593.306 178.17 593.804 178.644 594.428 178.644ZM596.06 170.455V173.3H597.726V171.981H600.409L597.506 178.551H599.542L602.549 171.669V170.455H596.06ZM607.055 173.474C606.211 173.474 605.528 173.716 605.054 174.191C605.112 172.641 605.98 171.843 607.333 171.843C607.876 171.843 608.397 171.947 608.848 172.248L609.542 170.871C608.975 170.513 608.143 170.316 607.287 170.316C604.846 170.316 603.157 171.877 603.157 174.676C603.157 177.291 604.545 178.69 606.778 178.69C608.489 178.69 609.843 177.649 609.843 175.995C609.843 174.468 608.617 173.474 607.055 173.474ZM606.674 177.291C605.771 177.291 605.251 176.782 605.251 176.088C605.251 175.382 605.829 174.873 606.65 174.873C607.483 174.873 608.027 175.347 608.027 176.088C608.027 176.828 607.472 177.291 606.674 177.291Z" fill="#F71B47"/>
<path d="M721.001 487.923L722.829 485.841V484.626H717.161V486.13H720.608L718.943 488.015V489.253H719.799C720.863 489.253 721.314 489.634 721.314 490.247C721.314 490.907 720.735 491.288 719.799 491.288C718.954 491.288 718.098 491.022 717.485 490.56L716.757 491.994C717.543 492.549 718.711 492.861 719.845 492.861C722.147 492.861 723.199 491.612 723.199 490.247C723.199 489.056 722.459 488.154 721.001 487.923ZM727.534 492.861C729.535 492.861 731.004 491.346 731.004 488.674C731.004 486.003 729.535 484.487 727.534 484.487C725.545 484.487 724.064 486.003 724.064 488.674C724.064 491.346 725.545 492.861 727.534 492.861ZM727.534 491.277C726.609 491.277 725.961 490.513 725.961 488.674C725.961 486.835 726.609 486.072 727.534 486.072C728.471 486.072 729.119 486.835 729.119 488.674C729.119 490.513 728.471 491.277 727.534 491.277ZM732.832 492.815C733.456 492.815 733.954 492.341 733.954 491.682C733.954 491.011 733.456 490.571 732.832 490.571C732.207 490.571 731.71 491.011 731.71 491.682C731.71 492.341 732.207 492.815 732.832 492.815ZM734.464 484.626V487.471H736.129V486.153H738.813L735.91 492.723H737.945L740.953 485.841V484.626H734.464ZM745.459 487.645C744.614 487.645 743.932 487.888 743.458 488.362C743.516 486.812 744.383 486.014 745.736 486.014C746.28 486.014 746.8 486.118 747.252 486.419L747.946 485.043C747.379 484.684 746.546 484.487 745.69 484.487C743.25 484.487 741.561 486.049 741.561 488.848C741.561 491.462 742.949 492.861 745.181 492.861C746.893 492.861 748.246 491.82 748.246 490.166C748.246 488.64 747.02 487.645 745.459 487.645ZM745.077 491.462C744.175 491.462 743.654 490.953 743.654 490.259C743.654 489.553 744.233 489.045 745.054 489.045C745.887 489.045 746.43 489.519 746.43 490.259C746.43 490.999 745.875 491.462 745.077 491.462Z" fill="#62C6FA"/>
<path d="M11.5504 618.726V620.23H13.1698V626.823H15.0435V618.726H11.5504ZM16.0799 618.726V620.23H17.6992V626.823H19.573V618.726H16.0799ZM22.0436 626.915C22.6682 626.915 23.1656 626.441 23.1656 625.782C23.1656 625.111 22.6682 624.671 22.0436 624.671C21.419 624.671 20.9217 625.111 20.9217 625.782C20.9217 626.441 21.419 626.915 22.0436 626.915ZM27.3298 626.962C29.3308 626.962 30.7997 625.446 30.7997 622.774C30.7997 620.103 29.3308 618.587 27.3298 618.587C25.3403 618.587 23.8598 620.103 23.8598 622.774C23.8598 625.446 25.3403 626.962 27.3298 626.962ZM27.3298 625.377C26.4045 625.377 25.7567 624.614 25.7567 622.774C25.7567 620.935 26.4045 620.172 27.3298 620.172C28.2667 620.172 28.9144 620.935 28.9144 622.774C28.9144 624.614 28.2667 625.377 27.3298 625.377ZM34.5555 618.587C32.8437 618.587 31.4904 619.628 31.4904 621.282C31.4904 622.809 32.7164 623.804 34.2779 623.804C35.1223 623.804 35.8162 623.549 36.2905 623.075C36.2326 624.637 35.3536 625.435 34.0119 625.435C33.4567 625.435 32.9362 625.331 32.4967 625.03L31.8027 626.406C32.3694 626.765 33.1906 626.962 34.0466 626.962C36.4987 626.962 38.1758 625.4 38.1758 622.601C38.1758 619.987 36.7994 618.587 34.5555 618.587ZM34.6943 622.404C33.8615 622.404 33.3179 621.93 33.3179 621.19C33.3179 620.45 33.8731 619.987 34.6712 619.987C35.5618 619.987 36.0823 620.496 36.0823 621.19C36.0823 621.895 35.5155 622.404 34.6943 622.404Z" fill="#62C6FA"/>
<path d="M791.943 385.81L793.805 384.052C794.938 382.999 795.158 382.282 795.158 381.495C795.158 380.026 793.955 379.101 792.151 379.101C790.693 379.101 789.56 379.691 788.935 380.605L790.3 381.484C790.693 380.94 791.283 380.674 791.977 380.674C792.833 380.674 793.273 381.044 793.273 381.68C793.273 382.074 793.145 382.49 792.428 383.172L789.305 386.122V387.336H795.424V385.81H791.943ZM798.973 382.282H798.314L798.441 380.744H801.818V379.24H796.88L796.463 383.797H798.534C800.003 383.797 800.419 384.213 800.419 384.85C800.419 385.509 799.841 385.902 798.904 385.902C798.059 385.902 797.215 385.636 796.602 385.173L795.862 386.608C796.648 387.163 797.828 387.475 798.95 387.475C801.263 387.475 802.316 386.226 802.316 384.792C802.316 383.358 801.367 382.282 798.973 382.282ZM804.14 387.429C804.765 387.429 805.262 386.955 805.262 386.295C805.262 385.625 804.765 385.185 804.14 385.185C803.516 385.185 803.018 385.625 803.018 386.295C803.018 386.955 803.516 387.429 804.14 387.429ZM809.426 387.475C811.427 387.475 812.896 385.96 812.896 383.288C812.896 380.616 811.427 379.101 809.426 379.101C807.437 379.101 805.956 380.616 805.956 383.288C805.956 385.96 807.437 387.475 809.426 387.475ZM809.426 385.891C808.501 385.891 807.853 385.127 807.853 383.288C807.853 381.449 808.501 380.686 809.426 380.686C810.363 380.686 811.011 381.449 811.011 383.288C811.011 385.127 810.363 385.891 809.426 385.891ZM813.611 379.24V382.085H815.277V380.767H817.96L815.057 387.336H817.093L820.1 380.454V379.24H813.611Z" fill="#F71B47"/>
<path d="M76.0403 369.304L77.8678 367.222V366.008H72.2002V367.511H75.6471L73.9815 369.397V370.634H74.8374C75.9015 370.634 76.3526 371.016 76.3526 371.629C76.3526 372.288 75.7743 372.67 74.8374 372.67C73.993 372.67 73.1371 372.404 72.5241 371.941L71.7954 373.376C72.5819 373.931 73.7501 374.243 74.8837 374.243C77.1854 374.243 78.238 372.994 78.238 371.629C78.238 370.438 77.4977 369.535 76.0403 369.304ZM82.573 374.243C84.574 374.243 86.043 372.728 86.043 370.056C86.043 367.384 84.574 365.869 82.573 365.869C80.5836 365.869 79.1031 367.384 79.1031 370.056C79.1031 372.728 80.5836 374.243 82.573 374.243ZM82.573 372.658C81.6477 372.658 81 371.895 81 370.056C81 368.217 81.6477 367.454 82.573 367.454C83.5099 367.454 84.1576 368.217 84.1576 370.056C84.1576 371.895 83.5099 372.658 82.573 372.658ZM87.8707 374.197C88.4953 374.197 88.9926 373.723 88.9926 373.063C88.9926 372.392 88.4953 371.953 87.8707 371.953C87.2461 371.953 86.7487 372.392 86.7487 373.063C86.7487 373.723 87.2461 374.197 87.8707 374.197ZM92.5144 372.577L94.3767 370.819C95.5102 369.767 95.7299 369.05 95.7299 368.263C95.7299 366.794 94.527 365.869 92.7226 365.869C91.2653 365.869 90.1317 366.459 89.5072 367.373L90.872 368.252C91.2653 367.708 91.8552 367.442 92.5491 367.442C93.4051 367.442 93.8446 367.812 93.8446 368.448C93.8446 368.841 93.7174 369.258 93.0002 369.94L89.8773 372.89V374.104H95.996V372.577H92.5144ZM96.399 366.008V367.511H98.0183V374.104H99.8921V366.008H96.399Z" fill="#F71B47"/>
<path d="M332.884 167.938L332.593 163.866C332.593 160.667 335.066 158.049 338.267 157.613L347.722 156.595C350.923 156.304 353.977 158.486 354.559 161.685L355.287 165.611L352.086 166.193L351.359 162.267C351.068 160.667 349.613 159.649 348.159 159.794L338.703 160.812C337.248 160.958 336.085 162.267 335.939 163.721L336.23 167.647L332.884 167.938Z" fill="#C90812"/>
<path d="M360.669 234.833C357.905 244.431 353.396 253.447 350.486 263.045C347.286 274.243 346.558 285.877 345.831 297.511C346.995 299.547 349.904 299.692 351.941 298.529C353.832 297.22 355.287 295.475 356.305 293.294C376.234 258.974 393.254 223.054 407.074 185.825L447.368 192.515C449.551 192.369 451.442 193.824 451.587 196.005C451.587 196.441 451.587 196.878 451.442 197.314L450.86 239.632L460.606 239.778C462.061 240.214 463.661 239.487 464.097 238.033C464.243 237.742 464.243 237.451 464.243 237.015L473.553 179.427C474.135 176.227 474.571 172.737 472.971 169.974C471.662 168.084 469.916 166.484 467.88 165.466C448.823 153.687 426.566 147.724 404.164 148.451C397.764 148.597 391.217 149.324 385.108 147.87C375.216 145.397 370.997 138.853 367.651 151.36C365.178 160.376 364.742 169.974 364.451 179.281C364.16 198.041 365.76 216.946 360.669 234.833Z" fill="#606161"/>
<path d="M360.669 234.833C357.905 244.431 353.396 253.447 350.486 263.045C347.286 274.243 346.558 285.877 345.831 297.511C346.995 299.547 349.904 299.692 351.941 298.529C353.832 297.22 355.287 295.475 356.305 293.294C376.234 258.974 393.254 223.054 407.074 185.825L447.368 192.515C449.551 192.369 451.442 193.824 451.587 196.005C451.587 196.441 451.587 196.878 451.442 197.314L450.86 239.632L460.606 239.778C462.061 240.214 463.661 239.487 464.097 238.033C464.243 237.742 464.243 237.451 464.243 237.015L473.553 179.427C474.135 176.227 474.571 172.737 472.971 169.974C471.662 168.084 469.916 166.484 467.88 165.466C448.823 153.687 426.566 147.724 404.164 148.451C397.764 148.597 391.217 149.324 385.108 147.87C375.216 145.397 370.997 138.853 367.651 151.36C365.178 160.376 364.742 169.974 364.451 179.281C364.16 198.041 365.76 216.946 360.669 234.833Z" fill="url(#paint8_linear)"/>
<path d="M478.499 112.095C478.499 113.55 478.499 114.858 478.499 116.167C478.499 116.749 478.499 117.331 478.499 117.767L455.806 123.729C451.296 124.893 446.496 126.056 442.132 124.602C439.368 123.584 436.895 121.984 434.713 119.948C430.058 116.313 425.839 112.386 422.057 107.878C421.33 107.005 420.748 106.133 420.02 105.26C416.82 100.898 414.492 95.9533 413.183 90.5726C412.747 88.8275 411.583 87.5187 412.747 86.0644C413.62 84.901 416.384 84.7556 417.693 84.901C420.02 85.1919 422.202 86.0644 424.093 87.2278C433.694 92.6085 441.695 100.461 450.132 107.733C450.86 108.314 451.587 108.896 452.46 109.332C453.624 109.769 454.933 110.059 456.242 110.059L477.481 111.077C477.772 111.077 478.062 111.077 478.208 111.368C478.499 111.514 478.499 111.804 478.499 112.095Z" fill="#343ADB"/>
<path d="M411.001 151.069C408.674 154.85 395.291 153.25 385.981 150.778C382.926 150.196 380.162 149.033 377.543 147.433C375.652 145.979 373.47 144.234 373.179 141.907C373.034 140.598 373.179 139.29 373.47 138.126C375.652 127.219 377.98 116.458 380.162 105.551C380.744 103.079 381.18 100.607 381.762 98.1347C382.198 95.5171 382.926 93.0448 383.944 90.5726C384.962 88.2459 386.272 86.2099 387.872 84.3194C389.326 82.4289 387.435 79.0842 389.763 78.9387C396.745 78.357 400.237 78.2116 403.728 79.8113C408.092 81.7018 414.929 83.3014 419.293 85.3374C420.602 85.9191 419.438 87.2279 420.311 88.3913C420.893 89.4093 421.33 90.5726 421.475 91.736C424.821 107.006 419.293 137.69 411.001 151.069Z" fill="#343ADB"/>
<path d="M396.309 78.3569L397.327 94.3536L404.892 90.4271L409.547 94.0627L409.256 91.8814L397.327 78.5024L396.309 78.3569Z" fill="#606161"/>
<path d="M408.819 81.2656L409.692 93.045L404.892 89.2639L408.819 81.2656Z" fill="#343ADB"/>
<path d="M398.054 79.9567C397.473 81.5564 397.909 83.4469 399.073 84.6103C399.8 85.192 400.527 85.6283 401.4 85.7737C402.419 86.0646 403.728 89.1185 404.746 89.1185C405.328 89.1185 405.91 86.9371 406.346 86.6462C406.783 86.3554 406.783 85.0466 407.074 84.4649L409.11 80.9747C409.547 80.393 409.692 79.8113 409.547 79.0842C409.256 78.5025 408.819 78.0662 408.237 77.7754L404.601 75.594C403.291 74.7215 399.073 71.9584 398.927 73.8489C398.782 76.0303 398.491 78.0662 398.054 79.9567Z" fill="url(#paint9_linear)"/>
<path d="M402.128 77.9208C402.128 77.9208 401.982 84.7557 406.055 86.0645C407.365 84.7557 408.237 83.0106 408.819 81.2655C410.128 77.7754 402.128 77.9208 402.128 77.9208Z" fill="url(#paint10_linear)"/>
<path d="M456.969 3.02746C448.387 4.04543 439.95 8.26272 431.367 6.80848C427.148 6.08136 423.221 4.04543 419.148 2.59119C407.51 -1.48068 394.709 -0.75356 383.653 4.77255C390.781 6.66306 398.2 9.42611 402.71 15.2431C408.092 22.078 408.383 31.9668 413.62 38.9472C417.838 44.4733 424.53 47.3817 431.367 48.3997C438.204 49.4177 445.041 48.5451 451.878 47.818C454.642 47.5272 457.697 47.2363 460.024 48.6906C462.352 50.1448 463.37 52.7624 464.825 54.9438C469.334 62.215 480.099 65.5597 488.682 64.1055C489.264 51.3082 495.228 28.3312 489.845 17.279C484.754 6.51764 467.734 1.71865 456.969 3.02746Z" fill="#343ADB"/>
<path d="M419.438 70.068C419.729 70.5043 420.02 71.086 420.02 71.6677C420.02 72.5402 419.148 73.2673 418.42 73.7036C416.675 74.7216 415.365 76.1758 414.202 77.9209C413.474 79.2297 413.183 80.8294 411.874 81.5565C410.274 82.7199 408.092 81.9928 406.201 81.2656C403.873 80.2477 398.491 75.4487 398.345 74.4307C398.055 71.5222 399.509 68.1775 400.527 65.4144C401.837 62.2151 403.728 59.1612 406.928 57.8524C409.256 56.8344 411.729 56.8344 414.056 57.9978C420.166 60.7609 417.111 65.4144 419.438 70.068Z" fill="url(#paint11_linear)"/>
<path d="M411.583 51.1628C415.511 52.0353 419.002 54.0712 421.766 56.9797C422.348 57.5614 422.639 58.1431 422.784 58.8702C422.784 59.7428 422.493 60.6153 421.766 61.197C419.729 63.0875 416.965 63.9601 414.202 63.233C412.747 62.7967 411.292 62.5058 409.837 62.6513C408.383 63.0875 407.219 64.1055 406.346 65.4143C405.182 67.014 404.31 68.7591 403.728 70.6496C403.437 70.6496 403.146 70.2133 403.146 69.9225C403.146 69.6316 403.146 69.1953 403 68.9045C402.71 68.4682 402.128 68.4682 401.837 68.7591C401.546 69.0499 401.255 69.4862 401.109 69.9225C400.818 71.0858 401.255 72.2492 401.982 73.1218C400.818 73.1218 399.655 73.5581 398.927 74.576C398.782 74.7214 398.636 74.8669 398.491 74.8669C398.345 74.8669 398.345 74.7214 398.345 74.7214C396.163 71.3767 395.436 67.1594 396.6 63.233C396.891 62.0696 397.327 60.9062 398.055 59.8882C398.491 59.1611 399.218 58.5794 399.946 58.1431C400.527 57.8523 401.691 57.8523 402.273 57.416C403 56.5435 402.564 54.5075 403.146 53.4896C404.31 49.9994 408.965 50.4356 411.583 51.1628Z" fill="#606161"/>
<path d="M411.583 51.1628C415.511 52.0353 419.002 54.0712 421.766 56.9797C422.348 57.5614 422.639 58.1431 422.784 58.8702C422.784 59.7428 422.493 60.6153 421.766 61.197C419.729 63.0875 416.965 63.9601 414.202 63.233C412.747 62.7967 411.292 62.5058 409.837 62.6513C408.383 63.0875 407.219 64.1055 406.346 65.4143C405.182 67.014 404.31 68.7591 403.728 70.6496C403.437 70.6496 403.146 70.2133 403.146 69.9225C403.146 69.6316 403.146 69.1953 403 68.9045C402.71 68.4682 402.128 68.4682 401.837 68.7591C401.546 69.0499 401.255 69.4862 401.109 69.9225C400.818 71.0858 401.255 72.2492 401.982 73.1218C400.818 73.1218 399.655 73.5581 398.927 74.576C398.782 74.7214 398.636 74.8669 398.491 74.8669C398.345 74.8669 398.345 74.7214 398.345 74.7214C396.163 71.3767 395.436 67.1594 396.6 63.233C396.891 62.0696 397.327 60.9062 398.055 59.8882C398.491 59.1611 399.218 58.5794 399.946 58.1431C400.527 57.8523 401.691 57.8523 402.273 57.416C403 56.5435 402.564 54.5075 403.146 53.4896C404.31 49.9994 408.965 50.4356 411.583 51.1628Z" fill="url(#paint12_linear)"/>
<path d="M486.063 108.314C486.063 108.605 485.918 108.751 485.772 109.042C485.627 109.187 485.336 109.332 485.19 109.332L480.972 110.35C480.099 110.496 479.081 110.787 478.208 111.223C477.335 111.659 476.753 112.532 476.608 113.55C476.608 114.859 477.481 115.876 478.644 116.313C479.808 116.749 480.972 116.894 482.136 116.894C484.463 117.04 486.936 116.894 489.264 116.749C491.009 116.604 492.609 116.167 493.919 115.295C495.664 113.986 496.537 111.95 496.246 109.914C495.955 107.878 493.919 104.679 491.737 103.952C488.827 102.788 486.791 105.697 486.063 108.314Z" fill="url(#paint13_linear)"/>
<path d="M395.145 83.1561C394.418 85.3374 393.836 87.5188 393.399 89.8456C393.109 93.3358 391.799 96.6805 389.617 99.2981C388.308 101.043 386.708 102.497 384.817 103.661C378.416 107.733 369.688 106.278 362.996 109.769C361.833 110.35 360.669 111.077 359.796 112.095C357.905 114.131 357.469 117.04 357.032 119.948C355.578 128.383 353.686 136.818 351.65 145.107C351.504 146.415 350.923 147.579 350.05 148.597C348.013 150.924 344.231 150.196 341.322 149.324L341.903 127.074C341.903 121.984 342.34 116.894 343.504 111.95C344.813 107.006 348.304 103.079 351.795 99.4436C356.741 94.4992 369.543 83.8832 383.799 80.1022L386.562 79.5205C389.326 78.9388 392.09 78.6479 394.709 78.6479C394.854 78.6479 395 78.6479 395.145 78.7934C395.872 78.9388 395.727 80.8293 395.145 83.1561Z" fill="#343ADB"/>
<path d="M395.145 83.1561C392.818 83.5924 389.326 84.1741 384.089 85.0466C368.379 87.6642 350.923 106.133 348.013 111.805C345.104 117.476 344.813 146.125 344.813 146.125L341.176 149.324L341.758 127.074C341.758 121.984 342.194 116.894 343.358 111.95C344.667 107.006 348.159 103.079 351.65 99.4436C356.596 94.4992 369.397 83.8832 383.653 80.1022L386.417 79.5205C389.181 78.9388 391.945 78.6479 394.563 78.6479C394.709 78.6479 394.854 78.6479 395 78.7934C395.872 78.9388 395.727 80.8293 395.145 83.1561Z" fill="url(#paint14_linear)"/>
<path d="M404.455 96.3897C404.455 96.3897 402.419 107.442 395 107.587C391.799 107.587 388.599 107.006 385.69 105.988C385.981 110.496 376.38 141.471 378.998 144.525C381.035 146.852 383.362 149.033 385.981 150.924C382.926 150.342 380.162 149.179 377.543 147.579C375.652 146.125 373.47 144.38 373.179 142.053C373.034 140.744 373.179 139.435 373.47 138.272C375.652 127.365 377.98 116.604 380.162 105.697C380.744 105.406 381.471 105.115 382.198 104.97C379.725 104.097 377.252 103.37 374.634 102.934C368.67 102.061 362.706 102.061 356.887 102.934L353.396 98.1348L357.614 94.3538L395.291 103.515L404.455 96.3897Z" fill="url(#paint15_linear)"/>
<path d="M347.868 151.505C347.431 152.959 347.577 154.559 348.159 156.013C348.304 156.304 348.595 156.595 348.74 157.031C348.886 157.468 348.741 158.049 348.304 158.34C347.868 158.631 347.286 158.631 346.849 158.486C346.558 158.34 346.413 158.195 346.122 158.049C345.395 157.904 344.958 158.776 344.813 159.358C344.522 160.667 344.085 162.267 342.922 162.848C341.467 163.285 339.867 162.557 339.14 161.103C338.412 159.94 338.267 158.631 338.412 157.177C338.994 153.687 342.194 151.36 343.649 148.16C343.94 147.433 343.795 147.724 344.376 147.142C344.958 146.561 345.831 146.415 346.558 146.561C349.322 147.288 348.159 149.615 347.868 151.505Z" fill="url(#paint16_linear)"/>
<path d="M451.151 248.212C460.752 248.794 470.207 249.085 479.808 249.085C479.808 247.485 478.353 246.322 476.899 245.595C473.553 243.559 470.062 241.814 466.861 239.487C464.388 237.742 461.188 233.525 457.988 233.525C452.896 233.379 447.95 247.921 451.151 248.212Z" fill="#606161"/>
<path d="M336.23 306.964C335.794 307.545 335.648 308.418 335.648 309.145C335.939 309.872 336.667 310.599 337.394 310.745C341.176 312.199 345.249 312.926 349.177 312.78C355.141 312.926 361.105 312.926 367.07 312.635C368.088 312.78 369.106 312.344 369.834 311.472C370.27 310.599 370.124 309.581 369.543 308.854C368.815 308.272 368.088 307.691 367.215 307.4C363.869 305.946 360.669 304.055 357.614 301.874C354.85 299.692 352.523 296.057 349.177 294.602C343.213 291.839 338.703 302.601 336.23 306.964Z" fill="#606161"/>
<path d="M483.154 249.085L486.936 249.23L494.064 18.0061L489.991 17.1335L483.154 249.085Z" fill="#343ADB"/>
<path d="M483.154 249.085L486.936 249.23L494.064 18.0061L489.991 17.1335L483.154 249.085Z" fill="url(#paint17_linear)"/>
<path d="M398.2 78.2117L404.892 89.2639L398.491 93.0449L395.872 78.6479L398.2 78.2117Z" fill="#343ADB"/>
<path d="M403.146 93.7719C403.146 94.0627 403 94.3536 402.855 94.6444C401.691 96.9712 400.382 99.4434 398.2 100.607C396.454 101.479 394.418 101.77 392.527 101.479C390.636 101.043 388.744 100.461 386.999 99.5888C383.362 97.9892 379.871 96.2441 376.38 94.3536C372.888 92.3176 369.252 90.1363 365.324 89.4092C363.287 89.1183 361.251 89.1183 359.214 89.2637L354.85 89.4092C354.559 89.4092 354.123 89.4092 353.832 89.7C353.686 89.8454 353.541 89.9909 353.396 90.1363L348.595 95.9532L357.469 100.025C357.905 100.316 358.487 100.461 358.923 100.461C359.505 100.461 360.087 100.461 360.669 100.316C366.197 99.298 371.87 99.4434 377.252 100.752C382.344 102.061 387.144 104.242 392.381 105.115C394.272 105.406 396.309 105.406 398.2 104.97C401.982 103.806 404.601 100.461 404.892 96.5349C404.892 96.0987 404.892 95.6624 405.037 95.2261C405.328 94.6444 406.055 94.2081 406.492 93.7719C407.219 93.0448 407.365 92.0268 407.074 91.1542C406.783 90.2817 405.91 89.5546 405.037 89.4092C404.31 89.8454 403.146 90.2817 403 91.2997C402.855 92.3176 403.146 92.8993 403.146 93.7719Z" fill="#606161"/>
<path d="M403.146 93.7719C403.146 94.0627 403 94.3536 402.855 94.6444C401.691 96.9712 400.382 99.4434 398.2 100.607C396.454 101.479 394.418 101.77 392.527 101.479C390.636 101.043 388.744 100.461 386.999 99.5888C383.362 97.9892 379.871 96.2441 376.38 94.3536C372.888 92.3176 369.252 90.1363 365.324 89.4092C363.287 89.1183 361.251 89.1183 359.214 89.2637L354.85 89.4092C354.559 89.4092 354.123 89.4092 353.832 89.7C353.686 89.8454 353.541 89.9909 353.396 90.1363L348.595 95.9532L357.469 100.025C357.905 100.316 358.487 100.461 358.923 100.461C359.505 100.461 360.087 100.461 360.669 100.316C366.197 99.298 371.87 99.4434 377.252 100.752C382.344 102.061 387.144 104.242 392.381 105.115C394.272 105.406 396.309 105.406 398.2 104.97C401.982 103.806 404.601 100.461 404.892 96.5349C404.892 96.0987 404.892 95.6624 405.037 95.2261C405.328 94.6444 406.055 94.2081 406.492 93.7719C407.219 93.0448 407.365 92.0268 407.074 91.1542C406.783 90.2817 405.91 89.5546 405.037 89.4092C404.31 89.8454 403.146 90.2817 403 91.2997C402.855 92.3176 403.146 92.8993 403.146 93.7719Z" fill="url(#paint18_linear)"/>
<path d="M402.71 70.795C402.71 70.6496 402.855 70.5041 402.855 70.2133C402.855 70.0679 402.709 69.777 402.564 69.777C402.564 69.6316 402.419 69.6316 402.273 69.6316C402.128 69.6316 402.128 69.6316 401.982 69.777C401.837 69.9224 401.691 70.2133 401.691 70.5041C401.691 70.9404 401.837 71.5221 401.982 71.9584C402.128 72.2492 402.273 72.5401 402.564 72.5401C402.709 72.5401 402.855 72.5401 403 72.3946C403.291 72.2492 403.582 71.8129 403.291 71.5221C403 71.2312 402.855 71.3767 402.71 71.2313C402.855 71.2313 402.71 70.9404 402.71 70.795Z" fill="url(#paint19_linear)"/>
<path opacity="0.22" d="M478.79 116.167L478.499 117.767L455.806 123.729C451.296 124.893 446.496 126.056 442.132 124.602C439.368 123.584 436.895 121.984 434.713 119.948C430.058 116.313 425.839 112.386 422.057 107.878L422.493 104.679C422.493 104.679 439.659 120.384 445.914 120.094C451.733 119.803 475.589 116.458 478.499 116.022L478.79 116.167Z" fill="#606161"/>
<path d="M322.702 166.338L381.762 160.812C383.944 160.667 385.981 162.267 386.126 164.448L389.908 204.294C390.054 206.476 388.454 208.511 386.271 208.657L327.211 214.183C325.029 214.328 322.993 212.729 322.847 210.547L319.065 170.701C318.919 168.52 320.52 166.629 322.702 166.338Z" fill="#B60009"/>
<path d="M321.247 166.484L380.307 160.958C382.489 160.812 384.526 162.412 384.671 164.594L388.454 204.44C388.599 206.621 386.999 208.657 384.817 208.802L325.756 214.328C323.574 214.474 321.538 212.874 321.392 210.693L317.61 170.847C317.465 168.665 319.065 166.775 321.247 166.484Z" fill="url(#paint20_linear)"/>
<path d="M311.646 167.502L370.706 161.976C372.888 161.831 374.925 163.43 375.07 165.612L378.853 205.458C378.998 207.639 377.398 209.675 375.216 209.82L316.155 215.347C313.973 215.492 311.937 213.892 311.791 211.711L308.009 171.865C307.864 169.683 309.464 167.793 311.646 167.502Z" fill="#FB3640"/>
<path d="M341.176 149.178L342.34 150.196C342.34 150.196 345.831 145.834 348.45 149.76L350.05 148.306C349.904 148.451 344.958 142.198 341.176 149.178Z" fill="#343ADB"/>
<path d="M341.176 149.178L342.34 150.196C342.34 150.196 345.831 145.834 348.45 149.76L350.05 148.306C349.904 148.451 344.958 142.198 341.176 149.178Z" fill="url(#paint21_linear)"/>
<path d="M478.353 111.223L476.753 111.077C476.753 111.077 476.462 117.185 477.626 117.912L478.499 117.767L479.081 116.313C478.353 114.858 478.062 112.968 478.353 111.223Z" fill="#343ADB"/>
<path opacity="0.22" d="M478.353 111.223L476.753 111.077C476.753 111.077 476.462 117.185 477.626 117.912L478.499 117.767L479.081 116.313C478.353 114.858 478.062 112.968 478.353 111.223Z" fill="#606161"/>
<path d="M488.1 43.1645C488.1 43.1645 478.353 21.3509 456.388 29.3492C434.422 37.3475 408.528 16.4065 408.528 16.4065C408.528 16.4065 413.038 42.0011 429.185 44.4733C445.332 46.9455 459.588 39.6743 465.261 49.9994C473.844 65.8506 488.1 60.9062 488.1 60.9062V43.1645Z" fill="url(#paint22_linear)"/>
<defs>
<radialGradient id="paint0_radial" cx="0" cy="0" r="1" gradientUnits="userSpaceOnUse" gradientTransform="translate(360.433 360.866) scale(21.2789)">
<stop stop-color="#88D7FF"/>
<stop offset="1" stop-color="#88D7FF" stop-opacity="0"/>
</radialGradient>
<radialGradient id="paint1_radial" cx="0" cy="0" r="1" gradientUnits="userSpaceOnUse" gradientTransform="translate(260.766 410.825) scale(21.2789)">
<stop stop-color="#88D7FF"/>
<stop offset="1" stop-color="#88D7FF" stop-opacity="0"/>
</radialGradient>
<radialGradient id="paint2_radial" cx="0" cy="0" r="1" gradientUnits="userSpaceOnUse" gradientTransform="translate(191.329 387.553) scale(21.2789)">
<stop stop-color="#88D7FF"/>
<stop offset="1" stop-color="#88D7FF" stop-opacity="0"/>
</radialGradient>
<radialGradient id="paint3_radial" cx="0" cy="0" r="1" gradientUnits="userSpaceOnUse" gradientTransform="translate(495.767 240.583) scale(21.2789)">
<stop stop-color="#88D7FF"/>
<stop offset="1" stop-color="#88D7FF" stop-opacity="0"/>
</radialGradient>
<radialGradient id="paint4_radial" cx="0" cy="0" r="1" gradientUnits="userSpaceOnUse" gradientTransform="translate(740.378 405.3) scale(21.2789)">
<stop stop-color="#88D7FF"/>
<stop offset="1" stop-opacity="0"/>
</radialGradient>
<radialGradient id="paint5_radial" cx="0" cy="0" r="1" gradientUnits="userSpaceOnUse" gradientTransform="translate(704.362 360.503) scale(21.2789)">
<stop stop-color="#FF6161"/>
<stop offset="1" stop-opacity="0"/>
</radialGradient>
<radialGradient id="paint6_radial" cx="0" cy="0" r="1" gradientUnits="userSpaceOnUse" gradientTransform="translate(563.408 249.07) scale(21.2789)">
<stop stop-color="#FF6161"/>
<stop offset="1" stop-color="#FF8C88" stop-opacity="0"/>
</radialGradient>
<radialGradient id="paint7_radial" cx="0" cy="0" r="1" gradientUnits="userSpaceOnUse" gradientTransform="translate(88.1876 484.068) scale(21.2788)">
<stop stop-color="#FF6161"/>
<stop offset="1" stop-color="#FF8C88" stop-opacity="0"/>
</radialGradient>
<linearGradient id="paint8_linear" x1="405.436" y1="230.594" x2="351.829" y2="189.757" gradientUnits="userSpaceOnUse">
<stop stop-color="#020449"/>
<stop offset="0.95" stop-color="#0C0F7E"/>
</linearGradient>
<linearGradient id="paint9_linear" x1="397.852" y1="81.3405" x2="409.686" y2="81.3405" gradientUnits="userSpaceOnUse">
<stop stop-color="#E5C6D6"/>
<stop offset="0.42" stop-color="#EAD4D0"/>
<stop offset="1" stop-color="#F0E9CB"/>
</linearGradient>
<linearGradient id="paint10_linear" x1="405.504" y1="83.9118" x2="406.013" y2="58.4481" gradientUnits="userSpaceOnUse">
<stop stop-color="#010101" stop-opacity="0"/>
<stop offset="0.95" stop-color="#010101"/>
</linearGradient>
<linearGradient id="paint11_linear" x1="398.576" y1="69.6678" x2="420.021" y2="69.6678" gradientUnits="userSpaceOnUse">
<stop stop-color="#E5C6D6"/>
<stop offset="0.42" stop-color="#EAD4D0"/>
<stop offset="1" stop-color="#F0E9CB"/>
</linearGradient>
<linearGradient id="paint12_linear" x1="412.011" y1="67.9255" x2="398.56" y2="51.9975" gradientUnits="userSpaceOnUse">
<stop stop-color="#010101" stop-opacity="0"/>
<stop offset="0.95" stop-color="#010101"/>
</linearGradient>
<linearGradient id="paint13_linear" x1="476.827" y1="110.151" x2="496.524" y2="110.151" gradientUnits="userSpaceOnUse">
<stop stop-color="#E5C6D6"/>
<stop offset="0.42" stop-color="#EAD4D0"/>
<stop offset="1" stop-color="#F0E9CB"/>
</linearGradient>
<linearGradient id="paint14_linear" x1="371.372" y1="117.712" x2="322.105" y2="60.4003" gradientUnits="userSpaceOnUse">
<stop stop-color="white" stop-opacity="0"/>
<stop offset="0.95" stop-color="white"/>
</linearGradient>
<linearGradient id="paint15_linear" x1="424.797" y1="161.856" x2="33.9452" y2="-294.677" gradientUnits="userSpaceOnUse">
<stop stop-color="#010101" stop-opacity="0"/>
<stop offset="0.95" stop-color="#010101"/>
</linearGradient>
<linearGradient id="paint16_linear" x1="338.259" y1="154.855" x2="348.645" y2="154.855" gradientUnits="userSpaceOnUse">
<stop stop-color="#E5C6D6"/>
<stop offset="0.42" stop-color="#EAD4D0"/>
<stop offset="1" stop-color="#F0E9CB"/>
</linearGradient>
<linearGradient id="paint17_linear" x1="487.752" y1="133.125" x2="496.174" y2="133.358" gradientUnits="userSpaceOnUse">
<stop stop-color="#010101" stop-opacity="0"/>
<stop offset="0.95" stop-color="#010101"/>
</linearGradient>
<linearGradient id="paint18_linear" x1="348.247" y1="97.3791" x2="406.778" y2="97.3791" gradientUnits="userSpaceOnUse">
<stop stop-color="#010101" stop-opacity="0"/>
<stop offset="0.95" stop-color="#010101"/>
</linearGradient>
<linearGradient id="paint19_linear" x1="402.041" y1="70.9986" x2="408.092" y2="70.824" gradientUnits="userSpaceOnUse">
<stop stop-color="#010101" stop-opacity="0"/>
<stop offset="0.95" stop-color="#010101"/>
</linearGradient>
<linearGradient id="paint20_linear" x1="368.765" y1="185.398" x2="408.55" y2="179.621" gradientUnits="userSpaceOnUse">
<stop stop-color="#C90812"/>
<stop offset="0.95" stop-color="#010101"/>
</linearGradient>
<linearGradient id="paint21_linear" x1="345.586" y1="144.655" x2="345.062" y2="218.356" gradientUnits="userSpaceOnUse">
<stop stop-color="#010101" stop-opacity="0"/>
<stop offset="0.95" stop-color="#010101"/>
</linearGradient>
<linearGradient id="paint22_linear" x1="367.144" y1="33.0908" x2="647.928" y2="54.1467" gradientUnits="userSpaceOnUse">
<stop stop-color="#010101" stop-opacity="0"/>
<stop offset="0.95" stop-color="#010101"/>
</linearGradient>
</defs>
</svg>
