<svg width="63" height="63" viewBox="0 0 63 63" fill="none" xmlns="http://www.w3.org/2000/svg">
<path d="M21.3064 29.9462C20.5865 29.2263 19.4272 29.2263 18.7194 29.9462L12.6911 35.9745L10.3237 33.6071C9.60377 32.8872 8.44448 32.8872 7.73671 33.6071C7.02894 34.3271 7.01673 35.4864 7.73671 36.1942L11.3976 39.8551C11.7515 40.209 12.2274 40.392 12.6911 40.392C13.1548 40.392 13.6308 40.209 13.9846 39.8551L21.3064 32.5333C22.0264 31.8133 22.0264 30.6662 21.3064 29.9462Z" fill="white"/>
<path d="M21.3064 44.5898C20.5865 43.8698 19.4272 43.8698 18.7194 44.5898L12.6911 50.6181L10.3237 48.2507C9.60377 47.5307 8.44448 47.5307 7.73671 48.2507C7.02894 48.9707 7.01673 50.1299 7.73671 50.8377L11.3976 54.4986C11.7515 54.8525 12.2274 55.0356 12.6911 55.0356C13.1548 55.0356 13.6308 54.8525 13.9846 54.4986L21.3064 47.1768C22.0264 46.4568 22.0264 45.3098 21.3064 44.5898Z" fill="white"/>
<path d="M19.476 22.6245L17.1086 20.2571L19.476 17.8897C20.196 17.1697 20.196 16.0105 19.476 15.3027C18.756 14.5827 17.5967 14.5827 16.8889 15.3027L14.5216 17.6701L12.1542 15.3027C11.4342 14.5827 10.2749 14.5827 9.56714 15.3027C8.85937 16.0227 8.84717 17.1819 9.56714 17.8897L11.9345 20.2571L9.56714 22.6245C8.84717 23.3445 8.84717 24.5037 9.56714 25.2115C10.2871 25.9315 11.4464 25.9315 12.1542 25.2115L14.5216 22.8441L16.8889 25.2115C17.6089 25.9315 18.7682 25.9315 19.476 25.2115C20.196 24.4915 20.196 23.3445 19.476 22.6245Z" fill="#F1271D"/>
<path d="M60.8685 18.2557C58.733 16.1202 55.243 16.1202 53.1074 18.2557C52.778 18.5852 44.602 26.7612 44.1748 27.1883V9.15225C44.1748 6.1259 41.7098 3.6609 38.6835 3.6609H32.8749C32.1183 1.52537 30.0926 0 27.7008 0H16.474C14.0823 0 12.0566 1.52537 11.3 3.6609H5.49135C2.46501 3.6609 0 6.1259 0 9.15225V56.988C0 60.0143 2.46501 62.4793 5.49135 62.4793H38.6835C41.7098 62.4793 44.1748 60.0143 44.1748 56.988V42.7227L54.401 32.4966L55.6945 33.7901C56.4145 34.5101 56.4145 35.6694 55.6945 36.3771L47.9334 44.1382C47.2256 44.8582 47.2256 46.0175 47.9334 46.7253C48.6533 47.4452 49.8126 47.4452 50.5204 46.7253L58.2815 38.9642C60.4292 36.8164 60.4292 33.3508 58.2815 31.2031L56.988 29.9095L60.8685 26.029C63.0163 23.8813 63.0163 20.4034 60.8685 18.2557ZM16.474 3.6609H27.7008C28.7136 3.6609 29.5312 4.4785 29.5312 5.49135C29.5312 6.5042 28.7136 7.3218 27.7008 7.3218H16.474C15.4612 7.3218 14.6436 6.5042 14.6436 5.49135C14.6436 4.4785 15.4612 3.6609 16.474 3.6609ZM40.5139 56.988C40.5139 58.0008 39.6963 58.8184 38.6835 58.8184H5.49135C4.4785 58.8184 3.6609 58.0008 3.6609 56.988V9.15225C3.6609 8.1394 4.4785 7.3218 5.49135 7.3218H11.3C12.0566 9.45732 14.0945 10.9827 16.474 10.9827H27.7008C30.0926 10.9827 32.1183 9.45732 32.8749 7.3218H38.6835C39.6963 7.3218 40.5139 8.1394 40.5139 9.15225V30.8492L27.2249 44.1504C27.0296 44.3457 26.871 44.602 26.7856 44.8704L24.1985 52.6315C23.9789 53.2905 24.1497 54.0105 24.6378 54.5108C25.126 54.9989 25.8581 55.1697 26.5171 54.9501L34.2782 52.3631C34.5467 52.2776 34.7907 52.119 34.9982 51.9237L37.5852 49.3367L40.5261 46.3958V56.988H40.5139ZM31.1054 45.444L33.6925 48.031L32.704 49.0194L28.8235 50.313L30.117 46.4324L31.1054 45.444ZM36.2795 45.444L33.6925 42.8569L49.2269 27.3225L51.8139 29.9095L36.2795 45.444ZM58.2815 23.442L54.401 27.3225L51.8139 24.7355L55.6945 20.8549C56.4022 20.1471 57.5737 20.1471 58.2815 20.8549C59.0015 21.5627 59.0015 22.722 58.2815 23.442Z" fill="white"/>
</svg>
