<svg width="63" height="63" viewBox="0 0 63 63" fill="none" xmlns="http://www.w3.org/2000/svg">
<g clip-path="url(#clip0)">
<path d="M41.6529 29.9902L28.7405 20.6183C28.324 20.2017 27.6992 20.2017 27.0744 20.41C26.4496 20.6183 26.2413 21.2431 26.2413 21.8678V40.8199C26.2413 41.4447 26.6578 41.8612 27.0744 42.2778C27.2826 42.486 27.4909 42.486 27.6992 42.486C28.1157 42.486 28.324 42.486 28.5322 42.2778L41.4446 32.9059C41.8612 32.6976 42.0694 32.0728 42.0694 31.6563C42.2777 30.8232 42.0694 30.4067 41.6529 29.9902Z" fill="#F52218"/>
<path d="M31.2397 0C13.9537 0 0 13.9537 0 31.2397C0 48.5256 13.9537 62.4793 31.2397 62.4793C48.5256 62.4793 62.4793 48.5256 62.4793 31.2397C62.6876 13.9537 48.5256 0 31.2397 0ZM31.2397 57.2727C16.8694 57.2727 5.20661 45.6099 5.20661 31.2397C5.20661 16.8694 16.8694 5.20661 31.2397 5.20661C45.6099 5.20661 57.2727 16.8694 57.2727 31.2397C57.2727 45.6099 45.6099 57.2727 31.2397 57.2727Z" fill="white"/>
</g>
<defs>
<clipPath id="clip0">
<rect width="62.6876" height="62.4793" fill="white"/>
</clipPath>
</defs>
</svg>
