<svg width="308" height="185" viewBox="0 0 308 185" fill="none" xmlns="http://www.w3.org/2000/svg">
<rect x="139.857" y="167.855" width="25.4285" height="11.125" fill="white"/>
<circle cx="221" cy="29" r="29" fill="#C4C4C4"/>
<path d="M219.73 45.7C219.483 45.7 219.274 45.6137 219.101 45.441C218.928 45.293 218.842 45.0833 218.842 44.812V42.222C217.066 42.0493 215.537 41.6177 214.254 40.927C212.996 40.2363 212.034 39.3977 211.368 38.411C210.727 37.3997 210.381 36.3267 210.332 35.192C210.332 34.9947 210.406 34.822 210.554 34.674C210.727 34.5013 210.924 34.415 211.146 34.415H214.476C214.772 34.415 214.994 34.4767 215.142 34.6C215.315 34.6987 215.475 34.8713 215.623 35.118C215.894 35.9567 216.462 36.6597 217.325 37.227C218.213 37.7943 219.422 38.078 220.951 38.078C222.653 38.078 223.936 37.7943 224.799 37.227C225.687 36.635 226.131 35.8333 226.131 34.822C226.131 34.156 225.909 33.601 225.465 33.157C225.021 32.713 224.343 32.3307 223.43 32.01C222.542 31.6647 221.222 31.2577 219.471 30.789C216.56 30.0983 214.427 29.1857 213.07 28.051C211.713 26.9163 211.035 25.2883 211.035 23.167C211.035 21.243 211.726 19.615 213.107 18.283C214.513 16.951 216.425 16.137 218.842 15.841V13.288C218.842 13.0167 218.928 12.807 219.101 12.659C219.274 12.4863 219.483 12.4 219.73 12.4H222.024C222.295 12.4 222.505 12.4863 222.653 12.659C222.826 12.807 222.912 13.0167 222.912 13.288V15.915C224.515 16.137 225.884 16.618 227.019 17.358C228.178 18.0733 229.054 18.912 229.646 19.874C230.263 20.836 230.596 21.7733 230.645 22.686C230.645 22.908 230.571 23.093 230.423 23.241C230.275 23.389 230.09 23.463 229.868 23.463H226.353C225.835 23.463 225.477 23.241 225.28 22.797C225.132 22.0077 224.639 21.354 223.8 20.836C222.986 20.2933 221.962 20.022 220.729 20.022C219.372 20.022 218.299 20.281 217.51 20.799C216.745 21.317 216.363 22.0693 216.363 23.056C216.363 23.722 216.548 24.277 216.918 24.721C217.313 25.165 217.929 25.5597 218.768 25.905C219.631 26.2503 220.852 26.6203 222.431 27.015C224.626 27.5083 226.365 28.0633 227.648 28.68C228.955 29.2967 229.917 30.0737 230.534 31.011C231.151 31.9483 231.459 33.1447 231.459 34.6C231.459 36.746 230.682 38.485 229.128 39.817C227.599 41.149 225.527 41.9507 222.912 42.222V44.812C222.912 45.0833 222.826 45.293 222.653 45.441C222.505 45.6137 222.295 45.7 222.024 45.7H219.73Z" fill="white"/>
<path d="M254.5 171C284.047 171 308 147.047 308 117.5C308 87.9528 284.047 64 254.5 64C224.953 64 201 87.9528 201 117.5C201 147.047 224.953 171 254.5 171Z" fill="#DDDDDD"/>
<path fill-rule="evenodd" clip-rule="evenodd" d="M237.5 103.765C236.119 103.765 235 104.885 235 106.265V107.598C235 108.979 236.119 110.098 237.5 110.098H252.032V139.26C252.032 140.641 253.151 141.76 254.532 141.76H256.83C258.211 141.76 259.33 140.641 259.33 139.26V110.098H272.64C274.021 110.098 275.14 108.979 275.14 107.598V106.265C275.14 104.885 274.021 103.765 272.64 103.765H237.5Z" fill="white"/>
<rect x="235" y="93" width="40.1404" height="6.33248" rx="2.5" fill="white"/>
<rect y="27" width="178" height="157" rx="16" fill="#DDDDDD"/>
<rect x="20" y="45" width="138" height="122" rx="11" fill="#DDDDDD" stroke="white" stroke-width="6"/>
<circle cx="57" cy="106" r="23" stroke="white" stroke-width="6"/>
<rect x="151" y="137" width="31" height="15" rx="3" fill="#DDDDDD" stroke="white" stroke-width="6"/>
<circle cx="57" cy="106" r="6" fill="white" stroke="white" stroke-width="6"/>
<rect x="89" y="84" width="134.259" height="100.694" rx="17.3788" fill="#FFD300"/>
<path fill-rule="evenodd" clip-rule="evenodd" d="M133.791 109.708C133.791 108.327 134.91 107.208 136.291 107.208H176.624C178.005 107.208 179.124 108.327 179.124 109.708V111.859C179.124 113.24 178.005 114.359 176.624 114.359H136.291C134.91 114.359 133.791 113.24 133.791 111.859V109.708ZM133.791 121.149C133.791 119.768 134.91 118.649 136.291 118.649H176.624C178.005 118.649 179.124 119.768 179.124 121.149V123.301C179.124 124.681 178.005 125.801 176.624 125.801H161.27V159.061C161.27 160.441 160.15 161.561 158.77 161.561H155.527C154.146 161.561 153.027 160.441 153.027 159.061V125.801H136.291C134.91 125.801 133.791 124.681 133.791 123.301V121.149Z" fill="white"/>
</svg>
