<svg width="72" height="73" viewBox="0 0 72 73" fill="none" xmlns="http://www.w3.org/2000/svg">
<path fill-rule="evenodd" clip-rule="evenodd" d="M0 36.6943C0 56.5766 16.1177 72.6943 36 72.6943C55.8823 72.6943 72 56.5766 72 36.6943C72 16.8121 55.8823 0.694336 36 0.694336C16.1177 0.694336 0 16.8121 0 36.6943ZM68.4 36.694C68.4 54.5881 53.894 69.094 36 69.094C18.106 69.094 3.60001 54.5881 3.60001 36.694C3.60001 18.8 18.106 4.29404 36 4.29404C53.894 4.29404 68.4 18.8 68.4 36.694Z" fill="#F14635"/>
<path d="M49.7643 24.3109L23.6148 50.4595M32.2356 28.2602C32.2356 30.8391 30.145 32.9296 27.566 32.9296C24.9871 32.9296 22.8965 30.8391 22.8965 28.2602C22.8965 25.6814 24.9871 23.5908 27.566 23.5908C30.145 23.5908 32.2356 25.6814 32.2356 28.2602ZM50.4827 46.5076C50.4827 49.0865 48.3921 51.177 45.8131 51.177C43.2342 51.177 41.1436 49.0865 41.1436 46.5076C41.1436 43.9288 43.2342 41.8382 45.8131 41.8382C48.3921 41.8382 50.4827 43.9288 50.4827 46.5076Z" stroke="#F14635" stroke-width="4.13793" stroke-linecap="round" stroke-linejoin="round"/>
</svg>
