<svg width="400" height="201" viewBox="0 0 400 201" fill="none" xmlns="http://www.w3.org/2000/svg">
<rect x="40" y="79" width="168" height="121" rx="16" fill="#DDDDDD"/>
<rect x="63" y="146" width="101" height="18" rx="9" fill="white"/>
<rect x="63" y="146" width="101" height="18" rx="9" fill="white"/>
<rect x="248" y="93" width="112" height="78" rx="12" fill="#DDDDDD"/>
<rect x="266" y="137" width="74" height="14" rx="7" fill="white"/>
<rect x="266" y="137" width="74" height="14" rx="7" fill="white"/>
<rect x="266" y="113" width="25" height="14" rx="7" fill="white"/>
<rect x="266" y="113" width="25" height="14" rx="7" fill="white"/>
<rect x="138" y="104.52" width="124" height="96.48" rx="16" fill="#FFD300"/>
<path fill-rule="evenodd" clip-rule="evenodd" d="M176.727 143.624C176.727 145.213 175.447 146.502 173.864 146.502C172.28 146.502 171 145.213 171 143.624C171 137.966 176.355 132.113 185.318 132.113H218.496L211.93 125.513C210.81 124.391 210.81 122.566 211.93 121.444C213.05 120.319 214.86 120.319 215.979 121.444L227.434 132.956C228.553 134.078 228.553 135.903 227.434 137.025L215.979 148.537C215.421 149.098 214.688 149.38 213.955 149.38C213.222 149.38 212.488 149.098 211.93 148.537C210.81 147.415 210.81 145.59 211.93 144.468L218.496 137.869H185.318C180.012 137.869 176.727 140.856 176.727 143.624ZM222.546 160.92C222.546 159.331 223.826 158.042 225.41 158.042C226.993 158.042 228.273 159.331 228.273 160.92C228.273 166.578 222.918 172.431 213.955 172.431H180.777L187.343 179.031C188.463 180.153 188.463 181.978 187.343 183.1C186.224 184.225 184.414 184.225 183.294 183.1L171.84 171.588C170.72 170.466 170.72 168.641 171.84 167.519L183.294 156.007C183.853 155.446 184.586 155.164 185.319 155.164C186.052 155.164 186.785 155.446 187.343 156.007C188.463 157.129 188.463 158.954 187.343 160.076L180.777 166.675H213.955C219.262 166.675 222.546 163.688 222.546 160.92Z" fill="white"/>
<rect x="63" y="114" width="32" height="18" rx="9" fill="white"/>
<rect x="63" y="114" width="32" height="18" rx="9" fill="white"/>
<path fill-rule="evenodd" clip-rule="evenodd" d="M252.298 53.2214C252.427 51.9263 252.497 50.5981 252.497 49.245C252.497 48.0242 252.44 46.8236 252.334 45.6494C249.708 46.0542 246.885 46.294 243.945 46.294C241.044 46.294 238.256 46.0604 235.659 45.6651C235.554 46.8343 235.497 48.0296 235.497 49.245C235.497 50.5926 235.567 51.9156 235.695 53.2058C238.282 52.8138 241.058 52.5824 243.945 52.5824C246.871 52.5824 249.682 52.82 252.298 53.2214ZM251.002 60.1397C248.798 59.8128 246.422 59.6174 243.945 59.6174C241.506 59.6174 239.165 59.807 236.988 60.125C237.705 62.7126 238.625 65.0484 239.628 67.0351C240.769 69.2964 241.963 70.9986 242.982 72.0772C243.074 72.1746 243.163 72.2647 243.248 72.3478C243.498 72.3559 243.748 72.36 244 72.36C244.25 72.36 244.499 72.356 244.747 72.348C244.832 72.2649 244.92 72.1747 245.012 72.0772C246.032 70.9986 247.226 69.2964 248.367 67.0351C249.367 65.0522 250.287 62.7214 251.002 60.1397ZM254.917 69.5954C256.039 67.2718 257.051 64.6093 257.836 61.6963C258.28 61.8373 258.708 61.9821 259.117 62.1297C260.341 62.5713 261.357 63.0207 262.155 63.4382C260.2 65.9607 257.735 68.0651 254.917 69.5954ZM247.28 79.2168C246.203 79.3345 245.109 79.395 244 79.395C243.999 79.395 243.998 79.395 243.997 79.395C242.887 79.3949 241.792 79.3342 240.713 79.2161C230.613 78.1099 222.019 71.9653 217.471 63.3359C217.423 63.2437 217.374 63.1512 217.327 63.0584C215.201 58.9201 214 54.2234 214 49.245C214 33.71 225.691 20.9191 240.713 19.2739C241.792 19.1557 242.887 19.0951 243.997 19.095C243.998 19.095 243.999 19.095 244 19.095C245.109 19.095 246.203 19.1554 247.28 19.2732C262.306 20.9154 274 33.7077 274 49.245C274 54.3019 272.761 59.0681 270.572 63.2537C270.558 63.2811 270.543 63.3085 270.529 63.3359C265.98 71.9672 257.383 78.1125 247.28 79.2168ZM263.944 64.6239C263.962 64.6458 263.957 64.6428 263.936 64.6156C263.94 64.6189 263.942 64.6217 263.944 64.6239ZM265.567 57.2935C264.373 56.6549 262.99 56.0524 261.481 55.5081C260.752 55.2452 259.982 54.9916 259.173 54.7509C259.383 52.9665 259.497 51.1263 259.497 49.245C259.497 47.4948 259.398 45.7801 259.216 44.1129C260.009 43.8759 260.765 43.6266 261.481 43.3683C263.04 42.8061 264.464 42.182 265.684 41.52C266.536 43.9356 267 46.5358 267 49.245C267 52.0755 266.494 54.7871 265.567 57.2935ZM263.944 34.2525C263.942 34.2547 263.94 34.2574 263.936 34.2608C263.957 34.2336 263.962 34.2306 263.944 34.2525ZM262.365 35.3264C261.538 35.7748 260.451 36.2654 259.117 36.7467C258.737 36.8838 258.341 37.0185 257.931 37.1499C257.133 34.0976 256.085 31.3126 254.917 28.8946C257.837 30.48 260.377 32.6818 262.365 35.3264ZM243.248 26.1421C243.498 26.134 243.748 26.13 244 26.13C244.25 26.13 244.499 26.134 244.747 26.1419C244.832 26.2251 244.92 26.3152 245.012 26.4128C246.032 27.4913 247.226 29.1935 248.367 31.4548C249.415 33.5324 250.374 35.9918 251.104 38.7216C248.871 39.0576 246.46 39.259 243.945 39.259C241.468 39.259 239.092 39.0635 236.887 38.7365C237.617 36.0008 238.578 33.5362 239.628 31.4548C240.769 29.1935 241.963 27.4913 242.982 26.4128C243.074 26.3153 243.163 26.2252 243.248 26.1421ZM233.076 28.8985C230.144 30.492 227.595 32.7072 225.604 35.3683C226.42 35.8053 227.481 36.2804 228.774 36.7467C229.184 36.8944 229.611 37.0394 230.056 37.1804C230.854 34.1178 231.905 31.3237 233.076 28.8985ZM228.776 44.1428C228.595 45.8006 228.497 47.5052 228.497 49.245C228.497 51.1158 228.611 52.946 228.818 54.7211C227.973 54.9706 227.169 55.2344 226.41 55.5081C224.939 56.0386 223.588 56.6243 222.415 57.245C221.5 54.7521 221 52.0572 221 49.245C221 46.5543 221.457 43.9711 222.298 41.5694C223.498 42.2131 224.89 42.8201 226.41 43.3683C227.156 43.6374 227.946 43.897 228.776 44.1428ZM223.947 34.2525C223.928 34.2306 223.934 34.2336 223.954 34.2608C223.951 34.2574 223.949 34.2547 223.947 34.2525ZM223.947 64.6239C223.949 64.6217 223.951 64.6189 223.954 64.6156C223.934 64.6428 223.928 64.6458 223.947 64.6239ZM225.814 63.3977C226.599 62.9918 227.589 62.557 228.774 62.1297C229.213 61.9715 229.672 61.8165 230.15 61.6661C230.936 64.5892 231.951 67.2607 233.076 69.5915C230.246 68.0533 227.772 65.9361 225.814 63.3977Z" fill="#DDDDDD"/>
</svg>
