<svg width="506" height="135" viewBox="0 0 506 135" fill="none" xmlns="http://www.w3.org/2000/svg">
<path d="M1.17585e-05 104.455V30.912C-0.0115657 29.8988 0.178002 28.8933 0.557735 27.9539C0.937468 27.0144 1.49982 26.1597 2.21222 25.4391C2.92462 24.7185 3.77291 24.1464 4.70795 23.756C5.643 23.3655 6.64622 23.1645 7.65951 23.1645C8.6728 23.1645 9.67602 23.3655 10.6111 23.756C11.5461 24.1464 12.3944 24.7185 13.1068 25.4391C13.8192 26.1597 14.3816 27.0144 14.7613 27.9539C15.141 28.8933 15.3306 29.8988 15.319 30.912V104.455C15.3306 105.468 15.141 106.474 14.7613 107.413C14.3816 108.353 13.8192 109.207 13.1068 109.928C12.3944 110.649 11.5461 111.221 10.6111 111.611C9.67602 112.001 8.6728 112.203 7.65951 112.203C6.64622 112.203 5.643 112.001 4.70795 111.611C3.77291 111.221 2.92462 110.649 2.21222 109.928C1.49982 109.207 0.937468 108.353 0.557735 107.413C0.178002 106.474 -0.0115657 105.468 1.17585e-05 104.455" fill="#008548"/>
<path d="M44.502 82.199V8.66C44.4904 7.64677 44.68 6.64132 45.0597 5.70187C45.4395 4.76243 46.0018 3.90766 46.7142 3.18707C47.4266 2.46648 48.2749 1.8944 49.21 1.50396C50.145 1.11352 51.1482 0.912476 52.1615 0.912476C53.1748 0.912476 54.178 1.11352 55.1131 1.50396C56.0481 1.8944 56.8964 2.46648 57.6088 3.18707C58.3212 3.90766 58.8836 4.76243 59.2633 5.70187C59.643 6.64132 59.8326 7.64677 59.821 8.66V82.199C59.8326 83.2122 59.643 84.2177 59.2633 85.1571C58.8836 86.0966 58.3212 86.9513 57.6088 87.6719C56.8964 88.3925 56.0481 88.9646 55.1131 89.355C54.178 89.7455 53.1748 89.9465 52.1615 89.9465C51.1482 89.9465 50.145 89.7455 49.21 89.355C48.2749 88.9646 47.4266 88.3925 46.7142 87.6719C46.0018 86.9513 45.4395 86.0966 45.0597 85.1571C44.68 84.2177 44.4904 83.2122 44.502 82.199" fill="#72A747"/>
<path d="M89.003 104.455V30.912C88.9914 29.8988 89.181 28.8933 89.5607 27.9539C89.9405 27.0144 90.5028 26.1597 91.2152 25.4391C91.9276 24.7185 92.7759 24.1464 93.711 23.756C94.646 23.3655 95.6492 23.1645 96.6625 23.1645C97.6758 23.1645 98.679 23.3655 99.6141 23.756C100.549 24.1464 101.397 24.7185 102.11 25.4391C102.822 26.1597 103.385 27.0144 103.764 27.9539C104.144 28.8933 104.334 29.8988 104.322 30.912V104.455C104.334 105.468 104.144 106.474 103.764 107.413C103.385 108.353 102.822 109.207 102.11 109.928C101.397 110.649 100.549 111.221 99.6141 111.611C98.679 112.001 97.6758 112.203 96.6625 112.203C95.6492 112.203 94.646 112.001 93.711 111.611C92.7759 111.221 91.9276 110.649 91.2152 109.928C90.5028 109.207 89.9405 108.353 89.5607 107.413C89.181 106.474 88.9914 105.468 89.003 104.455" fill="#FFD94B"/>
<path d="M133.508 126.705V53.162C133.496 52.1488 133.686 51.1433 134.066 50.2039C134.445 49.2644 135.008 48.4097 135.72 47.6891C136.433 46.9685 137.281 46.3964 138.216 46.006C139.151 45.6155 140.154 45.4145 141.168 45.4145C142.181 45.4145 143.184 45.6155 144.119 46.006C145.054 46.3964 145.902 46.9685 146.615 47.6891C147.327 48.4097 147.89 49.2644 148.269 50.2039C148.649 51.1433 148.839 52.1488 148.827 53.162V126.705C148.839 127.718 148.649 128.724 148.269 129.663C147.89 130.603 147.327 131.457 146.615 132.178C145.902 132.899 145.054 133.471 144.119 133.861C143.184 134.251 142.181 134.453 141.168 134.453C140.154 134.453 139.151 134.251 138.216 133.861C137.281 133.471 136.433 132.899 135.72 132.178C135.008 131.457 134.445 130.603 134.066 129.663C133.686 128.724 133.496 127.718 133.508 126.705" fill="#008548"/>
<path d="M178.009 104.455V30.912C177.997 29.8988 178.187 28.8933 178.567 27.9539C178.946 27.0144 179.509 26.1597 180.221 25.4391C180.934 24.7185 181.782 24.1464 182.717 23.756C183.652 23.3655 184.655 23.1645 185.669 23.1645C186.682 23.1645 187.685 23.3655 188.62 23.756C189.555 24.1464 190.403 24.7185 191.116 25.4391C191.828 26.1597 192.391 27.0144 192.77 27.9539C193.15 28.8933 193.34 29.8988 193.328 30.912V104.455C193.34 105.468 193.15 106.474 192.77 107.413C192.391 108.353 191.828 109.207 191.116 109.928C190.403 110.649 189.555 111.221 188.62 111.611C187.685 112.001 186.682 112.203 185.669 112.203C184.655 112.203 183.652 112.001 182.717 111.611C181.782 111.221 180.934 110.649 180.221 109.928C179.509 109.207 178.946 108.353 178.567 107.413C178.187 106.474 177.997 105.468 178.009 104.455" fill="#72A747"/>
<path d="M222.511 126.705V53.162C222.499 52.1488 222.689 51.1433 223.069 50.2039C223.448 49.2644 224.011 48.4097 224.723 47.6891C225.436 46.9685 226.284 46.3964 227.219 46.006C228.154 45.6155 229.157 45.4145 230.171 45.4145C231.184 45.4145 232.187 45.6155 233.122 46.006C234.057 46.3964 234.905 46.9685 235.618 47.6891C236.33 48.4097 236.893 49.2644 237.272 50.2039C237.652 51.1433 237.842 52.1488 237.83 53.162V126.705C237.842 127.718 237.652 128.724 237.272 129.663C236.893 130.603 236.33 131.457 235.618 132.178C234.905 132.899 234.057 133.471 233.122 133.861C232.187 134.251 231.184 134.453 230.171 134.453C229.157 134.453 228.154 134.251 227.219 133.861C226.284 133.471 225.436 132.899 224.723 132.178C224.011 131.457 223.448 130.603 223.069 129.663C222.689 128.724 222.499 127.718 222.511 126.705" fill="#FFD94B"/>
<path d="M267.012 104.455V30.912C267 29.8988 267.19 28.8933 267.57 27.9539C267.949 27.0144 268.512 26.1597 269.224 25.4391C269.937 24.7185 270.785 24.1464 271.72 23.756C272.655 23.3655 273.658 23.1645 274.672 23.1645C275.685 23.1645 276.688 23.3655 277.623 23.756C278.558 24.1464 279.406 24.7185 280.119 25.4391C280.831 26.1597 281.394 27.0144 281.773 27.9539C282.153 28.8933 282.343 29.8988 282.331 30.912V104.455C282.343 105.468 282.153 106.474 281.773 107.413C281.394 108.353 280.831 109.207 280.119 109.928C279.406 110.649 278.558 111.221 277.623 111.611C276.688 112.001 275.685 112.203 274.672 112.203C273.658 112.203 272.655 112.001 271.72 111.611C270.785 111.221 269.937 110.649 269.224 109.928C268.512 109.207 267.949 108.353 267.57 107.413C267.19 106.474 267 105.468 267.012 104.455" fill="#008548"/>
<path d="M311.517 82.199V8.66C311.505 7.64677 311.695 6.64132 312.075 5.70187C312.454 4.76243 313.017 3.90766 313.729 3.18707C314.442 2.46648 315.29 1.8944 316.225 1.50396C317.16 1.11352 318.163 0.912476 319.176 0.912476C320.19 0.912476 321.193 1.11352 322.128 1.50396C323.063 1.8944 323.911 2.46648 324.624 3.18707C325.336 3.90766 325.899 4.76243 326.278 5.70187C326.658 6.64132 326.848 7.64677 326.836 8.66V82.199C326.848 83.2122 326.658 84.2177 326.278 85.1571C325.899 86.0966 325.336 86.9513 324.624 87.6719C323.911 88.3925 323.063 88.9646 322.128 89.355C321.193 89.7455 320.19 89.9465 319.176 89.9465C318.163 89.9465 317.16 89.7455 316.225 89.355C315.29 88.9646 314.442 88.3925 313.729 87.6719C313.017 86.9513 312.454 86.0966 312.075 85.1571C311.695 84.2177 311.505 83.2122 311.517 82.199" fill="#72A747"/>
<path d="M356.018 104.455V30.912C356.006 29.8988 356.196 28.8933 356.576 27.9539C356.955 27.0144 357.518 26.1597 358.23 25.4391C358.943 24.7185 359.791 24.1464 360.726 23.756C361.661 23.3655 362.664 23.1645 363.677 23.1645C364.691 23.1645 365.694 23.3655 366.629 23.756C367.564 24.1464 368.412 24.7185 369.125 25.4391C369.837 26.1597 370.4 27.0144 370.779 27.9539C371.159 28.8933 371.349 29.8988 371.337 30.912V104.455C371.349 105.468 371.159 106.474 370.779 107.413C370.4 108.353 369.837 109.207 369.125 109.928C368.412 110.649 367.564 111.221 366.629 111.611C365.694 112.001 364.691 112.203 363.677 112.203C362.664 112.203 361.661 112.001 360.726 111.611C359.791 111.221 358.943 110.649 358.23 109.928C357.518 109.207 356.955 108.353 356.576 107.413C356.196 106.474 356.006 105.468 356.018 104.455" fill="#FFD94B"/>
<path d="M400.52 82.199V8.66C400.52 6.62844 401.327 4.68009 402.764 3.24356C404.2 1.80703 406.148 1 408.18 1C410.212 1 412.16 1.80703 413.596 3.24356C415.033 4.68009 415.84 6.62844 415.84 8.66V82.199C415.84 84.2306 415.033 86.1789 413.596 87.6154C412.16 89.052 410.212 89.859 408.18 89.859C406.148 89.859 404.2 89.052 402.764 87.6154C401.327 86.1789 400.52 84.2306 400.52 82.199" fill="#008548"/>
<path d="M445.021 104.455V30.912C445.009 29.8988 445.199 28.8933 445.579 27.9539C445.958 27.0144 446.521 26.1597 447.233 25.4391C447.946 24.7185 448.794 24.1464 449.729 23.756C450.664 23.3655 451.667 23.1645 452.68 23.1645C453.694 23.1645 454.697 23.3655 455.632 23.756C456.567 24.1464 457.415 24.7185 458.128 25.4391C458.84 26.1597 459.403 27.0144 459.782 27.9539C460.162 28.8933 460.352 29.8988 460.34 30.912V104.455C460.352 105.468 460.162 106.474 459.782 107.413C459.403 108.353 458.84 109.207 458.128 109.928C457.415 110.649 456.567 111.221 455.632 111.611C454.697 112.001 453.694 112.203 452.68 112.203C451.667 112.203 450.664 112.001 449.729 111.611C448.794 111.221 447.946 110.649 447.233 109.928C446.521 109.207 445.958 108.353 445.579 107.413C445.199 106.474 445.009 105.468 445.021 104.455Z" fill="#72A747"/>
</svg>
