<?xml version="1.0" encoding="UTF-8"?><svg id="Warstwa_2" xmlns="http://www.w3.org/2000/svg" viewBox="0 0 151.19 113.54"><defs><style>.cls-1{fill:#3c3c3b;}</style></defs><g id="Warstwa_1-2"><g><path class="cls-1" d="M44.38,64.71l-.29,.02,.29-.05s-.02-.13-.02-.14l-.02-.12c-.02-.08-.02-.18-.02-.37-.03-.22-.03-.44-.03-.62,.03-.34-.09-.67-.34-.93-.26-.28-.62-.44-1-.44-.76,0-1.37,.6-1.37,1.31-.03,.54,.03,1.05,.09,1.54l.05,.41c.02,.13,.05,.27,.07,.41,.02,.12,.05,.24,.06,.36,0,.08,0,.17,.04,.27,0,.17,0,.3,.04,.42,.02,.36,.01,.72,0,1.08,0,.19,0,.38,0,.57,0,.27,0,.56-.02,.84,0,.29-.02,.59-.02,.86l-.03,.81c-.03,.86-.07,1.75-.04,2.62,0,.58,0,1.16,.02,1.74,0,.57,.02,1.15,.02,1.71-.01,.65-.02,1.29-.03,1.94-.01,1.07-.03,2.14-.06,3.23l-.07-.18c-.5-1.22-.93-2.51-1.35-3.75-.29-.85-.57-1.71-.88-2.54-.41-1.18-.79-2.19-1.17-3.11l-.26-.6c-.37-.86-.75-1.74-1.14-2.55-.27-.59-.54-1.18-.81-1.76-.63-1.36-1.28-2.77-1.87-4.16l-.15-.33c-.07-.26-.22-.62-.64-.83-.3-.15-.65-.2-1.02-.14-.59,.16-1.12,.81-1,1.5-.12,4.15,0,8.35,.13,12.42l.04,1.37c.1,3.63,.21,7.39,.21,11.09,0,.73,.6,1.3,1.37,1.3s1.34-.58,1.34-1.3c0-4.62-.14-9.27-.28-13.77-.05-1.65-.1-3.34-.12-5.04,.05,.11,.1,.21,.15,.32,.24,.48,.48,.99,.69,1.47l.3,.69c.02,.06,.05,.14,.08,.21,.02,.05,.04,.09,.05,.13l.04,.22,.1,.1v.03c.43,1,.81,2.01,1.16,3.02,.38,1.05,.76,2.1,1.13,3.15,.38,1.06,.75,2.12,1.16,3.23,.41,1.07,.83,2.13,1.27,3.19,.25,.62,.46,1.09,.65,1.47,.02,.06,.04,.11,.06,.17l.04,.1c.02,.06,.04,.12,.08,.17l.19,.57c.05,.12,.09,.24,.14,.35,.04,.19,.08,.37,.13,.47,.06,.28,.22,.53,.42,.67,.24,.24,.62,.39,.98,.39,.74,0,1.34-.58,1.34-1.3,0-1.52,.06-3.06,.12-4.54,.03-.77,.06-1.54,.09-2.38,.04-2.34,.07-4.55,.03-6.83,0-.33,0-.66,0-.99,0-.64-.02-1.27,0-1.89l.11-2.88c0-.28,0-.56,.02-.84,.02-.69,.05-1.39-.06-2.1l-.21-1.47Z"/><path class="cls-1" d="M57.48,65.44v-.02c-.37-1.04-.97-1.88-1.78-2.47-.69-.52-1.55-.81-2.64-.9-1.07-.08-2.07,.1-2.96,.55-.82,.44-1.57,1.18-2.18,2.14-.31,.53-.5,.96-.64,1.41-.14,.49-.21,1-.29,1.58-.16,1.3-.25,2.44-.28,3.45-.05,.88-.05,1.77-.04,2.62v.86c-.03,2.3-.03,4.63,0,6.92,0,1.13-.04,2.29-.1,3.43l-.06,.84c-.06,.87-.12,1.77-.12,2.68,0,.73,.6,1.3,1.37,1.3s1.34-.58,1.34-1.3c0-1.17,.09-2.36,.18-3.51l.03-.42s.07,0,.11,0c.28-.03,.56-.03,.84-.03,.64-.01,1.27,0,1.94,.03l.64,.04c.76,.05,1.53,.1,2.32,.11v1.24c0,.93,0,1.8,.07,2.69,.05,.77,.6,1.3,1.34,1.3,.39,0,.78-.17,1.04-.45,.24-.26,.35-.58,.33-.93-.08-.87-.08-1.78-.07-2.67v-4.16c0-2.29,.04-4.61,.11-6.9,.02-.55,.05-1.09,.08-1.64,.08-1.5,.16-3.05,.03-4.59-.08-1.12-.27-2.2-.58-3.19Zm-8.12,13.97c0-1.53-.02-3.07,0-4.61v-.86c-.01-.84-.02-1.71,.04-2.58,.03-.82,.11-1.68,.19-2.51l.09-.92s0-.1,.01-.15v-.05l.06-.05v-.25c0-.07,.02-.14,.04-.21,.03-.11,.06-.22,.08-.33,.02-.05,.04-.1,.06-.16l.1-.1v-.11c.06-.15,.14-.29,.27-.48l.03-.04h0l.06-.1s.05-.07,.08-.1l.16-.19c.08-.09,.16-.18,.34-.32,.06-.04,.11-.09,.13-.11l.27-.18h.11l.13-.13c.12-.04,.21-.07,.25-.08,.07,0,.15,0,.24-.04h.26c.15-.03,.28-.03,.51,0h.15c.09,.03,.15,.03,.14,.03,.14,.03,.29,.06,.43,.11l.11,.04,.15,.06s.09,.06,.14,.08c.06,.03,.08,.04,.1,.06l.41,.38s.05,.08,.09,.12l.11,.17c.02,.07,.05,.13,.09,.18,.18,.47,.29,.87,.35,1.24l.1,.73v.03l.03,.07c0,.09,.01,.18,.02,.27,0,.05,.01,.1,.02,.18,.03,.51,.07,1.02,.07,1.52,.03,.74,0,1.5-.04,2.24l-.14,4.05c-.03,1.9-.06,3.8-.07,5.7-.76,0-1.53-.05-2.29-.1l-.67-.04c-.5-.03-.96-.05-1.41-.05-.49,0-.96,.02-1.41,.06v-.18c0-.77,0-1.54,0-2.31Z"/><path class="cls-1" d="M71,62.3h0l-.1,.03c-.07,0-.18,0-.3,.04-.09,0-.18,.01-.27,.02-.08,0-.16,.01-.23,.01h-1.26c-.39,0-.8-.02-1.2-.03-.42-.02-.83-.04-1.23-.04h0c-1.03-.02-2.07,0-3.1,.01-.68,.01-1.36,.02-2.04,.02-.72,0-1.34,.61-1.34,1.34s.6,1.37,1.34,1.37c.65,0,1.3,0,1.94-.02,.45,0,.89-.01,1.34-.02,0,3.03-.06,6.09-.12,9.06-.03,1.54-.06,3.07-.08,4.6-.02,.82-.03,1.64-.04,2.45,0,.82-.02,1.63-.04,2.45,0,.81,0,1.62,.04,2.43,.03,.83,.07,1.66,.07,2.46,0,.75,.6,1.34,1.37,1.34s1.34-.59,1.34-1.34-.03-1.53-.06-2.29c-.02-.38-.03-.76-.04-1.15-.02-.76-.02-1.54,0-2.31,0-.39,0-.78,0-1.15,.02-1.15,.04-2.31,.07-3.47,.03-1.16,.05-2.32,.07-3.54,.07-3.12,.13-6.34,.14-9.48h.19c1.36,.04,2.77,.08,4.17-.16,.34-.05,.65-.27,.85-.59,.21-.34,.26-.76,.15-1.09-.2-.68-.84-1.07-1.6-.95Z"/><path class="cls-1" d="M85.57,69.5l-.02-1.19c-.02-1.56-.04-3.16-.16-4.75-.06-.74-.65-1.3-1.37-1.3-.36,0-.74,.17-1,.45-.24,.26-.36,.59-.34,.92,.15,1.88,.17,3.82,.19,5.69l.02,1.11c0,1.16,.04,2.33,.11,3.49,.02,.35,.05,.7,.08,1.05,.05,.73,.11,1.46,.13,2.2,0,1.07,0,2.18-.07,3.26-.02,.47-.05,.93-.09,1.4-.04,.48-.07,.95-.09,1.42l-.1,1.81c-.04,.13-.04,.23-.02,.27l-.05,.11v.12s-.01,.1-.04,.19l-.03,.13c-.03,.22-.08,.42-.17,.63l-.14,.27s-.07,.1-.09,.15l-.17,.17h-.01s-.05,.04-.08,.05h-.12l-.07,.08s-.06,.01-.1,.02c-.05,0-.09,.02-.11,.03h-.18c-.37,.03-.74,.03-1.12,.03-.07-.01-.15-.03-.22-.02-.19-.03-.33-.06-.54-.14-.06-.01-.12-.03-.17-.05l-.02-.14h-.34c-.06-.03-.12-.06-.18-.09-.06-.03-.11-.06-.17-.1h-.02l-.03-.27h-.29l-.02-.02c-.04-.05-.07-.08-.08-.08h0l-.1-.14s-.03-.07-.04-.11l-.12-.26c-.11-.24-.15-.51-.2-.8l-.04-.21c0-.11-.03-.21-.04-.17,0-.1-.01-.19-.02-.29l-.02-.16c-.03-.26-.03-.52-.03-.79-.02-.71-.02-1.41,0-2.11,0-.36,0-.72,0-1.08,0-.56-.02-1.13-.04-1.69-.02-.55-.03-1.11-.03-1.67-.03-1.18,0-2.34,.04-3.48,0-.28,0-.55,0-.83,0-.56,.02-1.11,0-1.67-.02-.5-.08-1.01-.14-1.52-.04-.32-.08-.63-.1-.95-.11-1.02-.05-2.08,0-3.1,.03-.62,.07-1.23,.07-1.84,0-.76-.6-1.37-1.34-1.37s-1.37,.6-1.37,1.37c0,.66-.04,1.34-.07,2.02-.03,.45-.05,.91-.06,1.37,0,.56,0,1.15,.07,1.71,.03,.51,.09,.99,.15,1.49l.02,.16c.08,.9,.08,1.76,.07,2.68v.7c-.04,1.13-.07,2.3-.04,3.48,0,.56,.02,1.13,.04,1.69,.02,.55,.03,1.11,.03,1.66,0,.34,0,.69,0,1.04,0,.72-.02,1.45,.01,2.26,.04,.56,.07,1.14,.19,1.8,.07,.41,.15,.89,.34,1.34,.39,.91,1.02,1.64,1.87,2.18,.84,.52,1.76,.7,2.57,.84,.32,.04,.65,.06,.98,.06,.55,0,1.09-.06,1.61-.18,.84-.19,1.58-.7,2.15-1.5,.38-.56,.64-1.27,.78-2.13,.11-.73,.18-1.44,.21-2.2,0-.72,.07-1.45,.14-2.16,.17-2.11,.18-4.33,.04-6.6-.17-2.27-.24-4.1-.24-5.76Z"/><path class="cls-1" d="M97.32,87.36l-.06-.16-.08-.08-.07-.19c-.03-.16-.06-.33-.08-.49-.03-.19-.06-.37-.09-.55l-.31-1.68c-.1-.55-.17-1.1-.24-1.68l-.05-.31s-.02-.1-.02-.15c-.01-.09-.02-.18-.04-.22-.03-.27-.07-.55-.11-.89-.2-1.12-.56-2.11-1.1-2.96-.05-.07-.09-.13-.13-.2,.21-.1,.39-.2,.54-.3,.94-.55,1.7-1.37,2.15-2.31,.41-.86,.67-1.85,.75-2.93,.07-.89,.07-1.84,0-2.73-.09-1.2-.26-2.16-.55-3.02-.4-1.17-.93-2.04-1.59-2.68-.63-.6-1.45-1.01-2.48-1.27-1.41-.4-2.88-.4-4.3-.4-.33-.07-.67-.03-.98,.12l-.28,.17h0c-.32,.25-.52,.64-.52,1.08,0,.32,.11,.61,.31,.84l.02,.12c.02,.08,.02,.13,.02,.3,.02,.26,.01,.54,0,.82,0,.16,0,.31,0,.45l-.11,3.11c-.06,2-.05,4.14,.04,6.94,.07,2.13,.17,4.3,.28,6.52,.03,1.05,.06,2.05,.03,3.01-.02,.15-.03,.29-.04,.42,0,.12-.02,.25-.04,.44,0,.09,0,.18-.02,.33l-.05,.15c-.02,.12-.06,.23-.1,.35-.03,.09-.07,.19-.1,.3-.08,.3-.11,.6-.15,.96-.02,.32,.09,.64,.32,.89,.26,.28,.64,.45,1.01,.45,.78,0,1.37-.56,1.36-1.27l.04-.16c.03-.09,.06-.19,.08-.29,.08-.27,.15-.53,.18-.76,.12-.51,.14-1.01,.17-1.48l.02-.36c.03-.86,0-1.73-.04-2.56l-.03-.8c-.03-.63-.06-1.25-.09-1.87-.02-.49-.04-.99-.06-1.48l1-.14h.05c.07,.02,.1,.03,.13,.04l.33,.1h.01v.23h.21v.21h.24c.03,.06,.06,.12,.09,.18,.05,.09,.1,.18,.18,.33,.05,.07,.06,.11,.08,.16l.11,.34h.03c.13,.33,.22,.71,.32,1.27v.13s.03,.14,.04,.21c.02,.18,.05,.37,.07,.55,.02,.17,.05,.33,.07,.51,.04,.32,.09,.63,.15,.94,.05,.26,.1,.52,.13,.8,.09,.55,.18,1.07,.27,1.59l.04,.23c.02,.12,.04,.25,.06,.37,.04,.27,.08,.55,.16,.83,.17,.59,.47,1.11,.86,1.51,.48,.48,1.15,.74,1.92,.74s1.37-.6,1.37-1.34-.62-1.34-1.37-1.34Zm-1.71-14.65c-.06,.31-.15,.65-.25,.96-.06,.09-.11,.2-.13,.31h-.01s-.05,.08-.07,.13c-.04,.05-.07,.1-.1,.15l-.25,.03v.31s-.07,.07-.11,.1l-.54,.43c-.09,.07-.18,.12-.27,.17-.05,.03-.1,.05-.15,.08-.06,.02-.12,.05-.17,.07l-.4,.03v.14c-.5,.17-.99,.29-1.52,.41-.17-.02-.35-.03-.54-.03-.14,0-.29,0-.45,.02,0-.16-.02-.33-.02-.52-.07-1.1-.07-2.25-.07-3.37-.02-.75,.02-1.51,.05-2.24,.02-.37,.04-.74,.05-1.11,.02-.5,.03-.99,.04-1.49,0-.49,.02-.98,.04-1.49v-.33c0-.18,.01-.38,0-.58,.26,.01,.52,.01,.76,.03,.08,0,.17,.01,.26,.02l.45,.07c.39,.04,.72,.1,1.08,.23,.12,.03,.19,.05,.28,.1l.1,.04s.07,.02,.11,.03l.09,.05c.06,.03,.11,.07,.16,.09l.24,.16c.09,.07,.18,.16,.25,.25l.15,.2s.07,.09,.11,.17c.11,.16,.19,.32,.27,.49l.03,.43h.15v.02l.05,.14c.05,.17,.1,.32,.14,.58,.05,.16,.08,.34,.12,.59l.04,.16s.02,.1,.03,.15c0,.07,.01,.15,.04,.24,.01,.21,.02,.41,.03,.61,0,.24,.02,.48,.04,.68,0,.14,0,.29,0,.44,0,.27,.02,.55,0,.85,0,.18,0,.36-.02,.61l-.06,.16v.12s-.03,.12-.02,.12h0Z"/><path class="cls-1" d="M111.52,65.44v-.02c-.37-1.04-.97-1.88-1.78-2.47-.69-.52-1.55-.81-2.64-.9-1.08-.08-2.07,.1-2.96,.55-.82,.44-1.57,1.18-2.18,2.14-.31,.52-.5,.96-.64,1.41-.14,.49-.21,.99-.28,1.48v.1c-.17,1.3-.26,2.43-.3,3.45-.05,.88-.05,1.77-.04,2.63v.85c-.03,2.3-.03,4.63,0,6.92,0,1.14-.04,2.29-.1,3.43l-.06,.86c-.06,.86-.12,1.75-.12,2.66,0,.73,.6,1.3,1.37,1.3s1.34-.58,1.34-1.3c0-1.17,.09-2.35,.18-3.5l.03-.43s.07,0,.11,0c.28-.03,.56-.03,.84-.03,.63,0,1.27,0,1.94,.03l.64,.04c.76,.05,1.53,.1,2.32,.11v1.24c0,.93,0,1.8,.07,2.69,.05,.77,.6,1.3,1.34,1.3,.39,0,.78-.17,1.04-.45,.24-.26,.35-.58,.33-.93-.08-.87-.08-1.78-.07-2.67v-4.16c0-2.29,.04-4.61,.11-6.9,.02-.55,.05-1.1,.08-1.65,.08-1.5,.16-3.05,.03-4.58-.08-1.12-.27-2.19-.58-3.19Zm-8.12,13.97c0-1.53-.02-3.06,0-4.61v-.87c-.01-.84-.02-1.71,.04-2.57,.03-.82,.11-1.68,.19-2.51l.09-.92s0-.1,.01-.15v-.05l.06-.05v-.24c0-.07,.02-.14,.04-.21,.03-.11,.06-.22,.08-.33,.02-.05,.04-.1,.06-.16l.1-.1v-.11c.06-.15,.14-.29,.27-.47l.1-.14s.05-.06,.07-.1l.16-.19c.08-.09,.16-.18,.34-.32,.06-.04,.11-.09,.13-.11l.27-.18h.11l.14-.13c.12-.04,.21-.07,.25-.08,.07,0,.14,0,.24-.04h.26c.15-.03,.27-.03,.51,0h.15c.09,.03,.15,.03,.14,.03,.14,.03,.29,.05,.43,.11l.11,.04s.16,.06,.15,.06c.05,.03,.09,.06,.14,.08,.06,.03,.08,.04,.1,.06l.15,.15h.07l.2,.23s.05,.07,.09,.12l.11,.18c.02,.07,.05,.13,.09,.18,.18,.47,.29,.87,.35,1.24l.1,.73v.03l.03,.07c0,.09,.01,.18,.02,.27,0,.05,.01,.1,.02,.18,.03,.51,.07,1.02,.07,1.52,.03,.74,0,1.5-.04,2.24l-.14,4.06c-.03,1.9-.06,3.8-.07,5.69-.76,0-1.53-.05-2.29-.1l-.67-.04c-.5-.03-.96-.05-1.41-.05-.49,0-.96,.02-1.41,.06v-.18c0-.77,0-1.54,0-2.31Z"/><path class="cls-1" d="M121.96,87.08c-.95,0-1.88,.02-2.82,.04-.76,.01-1.52,.03-2.29,.03,.02-1.08,0-2.17-.04-3.22-.02-.82-.04-1.64-.04-2.46,0-1.41,.1-2.84,.2-4.24,.06-.81,.11-1.63,.15-2.45,.04-.95,.04-1.88,0-2.83-.02-.62-.08-1.23-.13-1.84-.03-.32-.06-.64-.08-.97-.07-.9-.03-1.81,0-2.81,.04-.95,.04-1.9,.04-2.85,0-.76-.6-1.37-1.34-1.37s-1.37,.6-1.37,1.37c0,1.08-.03,2.16-.07,3.27v.1c-.04,1.15,0,2.27,.1,3.43l.06,.83c.06,.82,.12,1.67,.12,2.47-.04,1.11-.1,2.22-.17,3.33-.13,1.77-.25,3.69-.21,5.67,0,.47,.02,.93,.03,1.4,.04,1.4,.08,2.86,0,4.31,0,.16,.04,.31,.08,.41,.1,.64,.66,1.14,1.33,1.14,1.09,0,2.18-.03,3.27-.05,1.07-.03,2.13-.05,3.19-.05,.77,0,1.37-.57,1.37-1.3,0-.77-.6-1.37-1.37-1.37Z"/><g><path class="cls-1" d="M47.14,29.5c-.89,0-1.62,.71-1.62,1.58s.71,1.58,1.62,1.58c.55,0,1.11,.01,1.68,.02,.57,.01,1.14,.02,1.7,.02h.25c1.62,0,2.92-.07,4.08-.21,.38-.06,.71-.28,.94-.62,.26-.39,.35-.89,.24-1.36-.23-.79-.96-1.24-1.84-1.13l-.16,.04c-.19,0-.4,0-.58,.05-.24,.03-.47,.04-.71,.04-.13,0-.27,0-.4,.01,.05-1.57,.01-3.15-.03-4.68-.01-.58-.03-1.17-.04-1.76-.04-1.35-.04-2.66-.04-4,.04-1.35,.12-2.7,.21-4.02l.08-1.35c.1-1.69,.21-3.44,.21-5.19,0-.55,0-1.1-.02-1.65-.02-1.61-.05-3.27,.13-4.86,.06-.4-.07-.8-.35-1.13-.31-.35-.78-.57-1.22-.57-.6,0-1.11,.31-1.4,.84-.02,.03-.03,.04-.03,.05h0l-.08,.13c-.31,.6-.61,1.2-.91,1.79-.3,.6-.6,1.19-.91,1.8-.28,.55-.6,1.12-.97,1.7-.16,.27-.31,.54-.44,.74-.08,.08-.16,.18-.23,.28-.03,.05-.06,.09-.1,.13l-.27,.32c-.54,.74-.52,1.63,.06,2.2,.33,.33,.84,.52,1.32,.48,.42-.03,.78-.23,1-.52,.43-.54,.84-1.1,1.24-1.7,0,.5,0,1.01-.02,1.52-.04,1.36-.14,2.73-.23,4.06-.09,1.34-.18,2.68-.23,4.01-.06,1.86,0,3.74,.04,5.56,.05,1.91,.1,3.88,.03,5.82-.68-.02-1.35-.02-1.99-.02Z"/><path class="cls-1" d="M57.3,14.52c0,2.02,.04,4.02,.12,5.96l.02,.47c.07,2,.15,4.08,.7,6.09,.59,2.17,1.81,3.9,3.43,4.87,.87,.54,1.95,.83,3.05,.83,.08,0,.16,0,.25,0,1.12-.05,2.11-.46,2.9-1.2,.72-.72,1.17-1.67,1.48-2.4,.3-.68,.53-1.4,.74-2.34,.6-2.77,1.05-5.12,1.29-7.51,.27-2.47,.28-5.03,.04-8.04-.06-.93-.15-1.84-.24-2.74-.04-.42-.09-.85-.13-1.28l-.05-.5c-.06-.54-.11-1.09-.25-1.64-.18-.67-.48-1.32-.78-1.92-.34-.68-.71-1.21-1.22-1.71-.48-.4-1.04-.73-1.77-1.04-.52-.2-1.09-.31-1.86-.37-.53-.04-1.16-.06-1.8,.09-2.34,.46-3.77,2.8-4.41,4.16-.62,1.33-1.1,2.76-1.4,4.26-.33,1.8-.59,3.72-.21,5.57,0,.15,.05,.28,.12,.41Zm6.04-11.03s.07-.04,.11-.06c.05-.02,.09-.05,.14-.07,.09-.02,.18-.06,.26-.11h0s.09,0,.13-.02l1.24,.04c.06,.01,.12,.02,.18,.02,.1,.05,.24,.1,.5,.17l.13,.05c.11,.06,.21,.15,.32,.23,0,0,.11,.08,.14,.11,.04,.03,.07,.07,.09,.09v.03l.17,.3h.09s.04,.07,.06,.11c.04,.08,.08,.17,.14,.25,.03,.04,.05,.08,.07,.12,.04,.08,.08,.17,.1,.19l.08,.25h.01c.02,.06,.04,.1,.07,.14l.22,.65c.04,.1,.05,.2,.05,.23l.05,.4c.04,.32,.07,.65,.1,.97,.03,.34,.06,.67,.1,.99,.28,2.95,.45,5.42,.37,7.89,0,.61-.04,1.22-.08,1.93-.02,.16-.03,.33-.05,.5,0,.14-.02,.28-.02,.35-.03,.11-.04,.21-.05,.32,0,.06-.01,.12-.03,.18l-.02,.3c-.03,.12-.04,.18-.04,.18h0c-.16,1.26-.41,2.54-.65,3.73-.07,.32-.13,.64-.2,.96-.13,.62-.25,1.24-.42,1.88-.07,.33-.19,.67-.33,1l-.11,.31c-.04,.09-.09,.19-.13,.29l-.11,.24c-.07,.13-.13,.23-.22,.34l-.45,.47-.03,.02c-.08,.04-.15,.08-.23,.12l-.77,.04s-.08-.02-.12-.04c-.11-.04-.23-.07-.35-.1-.05-.02-.11-.05-.21-.09l-.13-.06-.14-.04c-.11-.05-.22-.12-.28-.15-.02-.02-.13-.13-.29-.21l-.22-.21c-.05-.05-.11-.09-.18-.17v-.4h-.3c-.1-.13-.19-.29-.27-.45-.09-.15-.16-.28-.22-.42v-.14l-.11-.1c-.02-.06-.05-.13-.07-.19-.12-.39-.24-.79-.32-1.18l-.12-.62-.04-.16s-.02-.09-.03-.14v-.16c-.16-1.02-.2-2.1-.25-3.2-.18-3.31-.2-6.52-.2-8.94,0-.33-.08-.61-.24-.88,.01-.25,.04-.49,.07-.74v-.07c0-.07,0-.15,.02-.18l.06-.3c.04-.25,.08-.54,.12-.81,.08-.44,.2-.91,.31-1.32,.04-.13,.08-.26,.12-.39,.07-.22,.13-.45,.23-.67l.04-.12c.03-.13,.08-.28,.16-.43l.08-.11v-.14c.04-.07,.06-.13,.09-.23,.19-.43,.38-.78,.59-1.09l.11-.18c.06-.11,.12-.21,.13-.24,.04-.04,.09-.11,.12-.16l.26-.27c.09-.12,.17-.2,.35-.35l.17-.17s-.02,.02-.02,.03c.05-.03,.09-.07,.11-.08Zm3.89,.3l-.36,.41s-.07-.04-.1-.07l.46-.33h0Z"/><path class="cls-1" d="M72.69,14.52c0,2.02,.04,4.02,.12,5.96l.02,.47c.07,2,.15,4.08,.7,6.09,.59,2.17,1.81,3.9,3.43,4.88,.87,.54,1.95,.83,3.05,.83,.08,0,.16,0,.25,0,1.12-.05,2.11-.46,2.9-1.2,.72-.72,1.17-1.67,1.48-2.4,.3-.67,.53-1.39,.74-2.34,.6-2.78,1.05-5.12,1.29-7.51,.27-2.47,.28-5.03,.04-8.04-.06-.93-.15-1.85-.25-2.76-.04-.42-.09-.84-.13-1.27l-.06-.51c-.06-.53-.11-1.09-.25-1.63-.18-.67-.48-1.32-.78-1.92-.34-.68-.71-1.21-1.22-1.71-.48-.4-1.04-.73-1.77-1.04-.52-.2-1.09-.31-1.86-.37-.53-.04-1.16-.06-1.8,.09-2.34,.46-3.77,2.8-4.41,4.16-.62,1.33-1.1,2.76-1.4,4.26-.33,1.8-.59,3.72-.21,5.57,0,.15,.05,.28,.12,.41Zm6.03-11.03s.07-.04,.11-.06c.05-.02,.09-.05,.14-.07,.09-.02,.18-.06,.26-.11h0s.09,0,.13-.02l1.24,.04c.06,.01,.12,.02,.18,.02,.1,.05,.24,.1,.5,.17l.13,.05c.11,.06,.21,.15,.32,.23,0,0,.11,.08,.14,.11,.04,.03,.07,.07,.09,.09v.03l.17,.3h.09s.04,.07,.06,.11c.04,.08,.08,.17,.14,.25,.03,.04,.05,.08,.07,.12,.04,.08,.08,.17,.1,.19l.08,.25h.01c.02,.06,.04,.1,.07,.14l.22,.65c.03,.1,.05,.2,.05,.23l.05,.4c.04,.32,.07,.65,.1,.97,.03,.34,.06,.67,.1,.99,.28,2.95,.45,5.42,.37,7.89,0,.61-.04,1.22-.08,1.93-.02,.16-.03,.33-.05,.5,0,.14-.02,.28-.02,.35-.03,.11-.04,.21-.05,.32,0,.06-.01,.12-.03,.18l-.02,.3c-.03,.12-.04,.18-.04,.18h0c-.16,1.26-.41,2.54-.65,3.73-.07,.32-.13,.64-.2,.96-.13,.62-.25,1.24-.42,1.88-.07,.33-.19,.67-.33,1l-.11,.31c-.04,.09-.09,.19-.13,.29l-.11,.24c-.07,.13-.13,.23-.22,.34l-.45,.47-.03,.02c-.08,.04-.15,.08-.23,.12l-.77,.04s-.08-.02-.12-.04c-.11-.04-.23-.07-.35-.1-.05-.02-.11-.05-.21-.09l-.13-.06-.14-.04c-.11-.05-.22-.12-.28-.15-.02-.02-.13-.13-.29-.21l-.22-.21c-.05-.05-.11-.09-.18-.17v-.4h-.3c-.1-.13-.19-.29-.27-.45-.09-.15-.16-.28-.22-.42v-.14l-.11-.1c-.02-.06-.05-.13-.07-.19-.12-.39-.24-.79-.32-1.18l-.12-.62-.04-.16s-.02-.09-.03-.14v-.16c-.16-1.02-.2-2.1-.25-3.2-.18-3.31-.2-6.52-.2-8.94,0-.33-.08-.61-.24-.88,.01-.25,.04-.5,.08-.81,0-.07,0-.15,.01-.18l.06-.3c.04-.25,.08-.54,.12-.81,.08-.44,.2-.91,.31-1.32,.04-.13,.08-.26,.12-.39,.07-.22,.13-.45,.23-.67l.04-.12c.03-.13,.08-.28,.16-.43l.08-.11v-.14c.04-.07,.06-.13,.09-.23,.19-.43,.38-.78,.59-1.09l.11-.18c.06-.11,.12-.21,.13-.24,.04-.04,.09-.11,.12-.16l.26-.27c.09-.12,.17-.2,.35-.35l.17-.17s-.02,.02-.02,.03c.05-.03,.09-.07,.11-.08Zm3.89,.3l-.36,.41s-.07-.04-.1-.07l.46-.33h0Z"/><path class="cls-1" d="M97.51,14.72c-.16,.46-.31,.93-.46,1.39l-.32,1c-.29,.92-.58,1.82-.91,2.72v.02c-.21,.6-.45,1.21-.71,1.85-.01,.04-.03,.07-.05,.11-.04,.09-.08,.17-.14,.33-.03,.05-.08,.13-.11,.25-.14,.26-.26,.53-.39,.87-1.02,2.37-2.08,4.82-2.71,7.42l-.13,.5c-.1,.43-.03,.87,.2,1.23,.21,.34,.55,.58,.9,.66,.15,.05,.3,.07,.45,.07,.67,0,1.3-.44,1.53-1.13,.66-2.3,1.51-4.69,2.53-7.1l.05-.17v-.02l.11-.21c.03-.06,.05-.11,.08-.17l.07-.14c.1-.31,.24-.64,.44-1.04,.25-.63,.5-1.26,.71-1.87,.37-1.01,.71-2.05,1.05-3.07l.23-.7c.15-.46,.3-.91,.45-1.36,.27-.81,.55-1.62,.78-2.42,.41-1.28,.79-2.56,1.16-3.84l.14-.45c.32-1.08,.65-2.19,1.05-3.26,.11-.3,.22-.6,.34-.9,.34-.88,.69-1.8,.87-2.73,.05-.19,.1-.4,.09-.55,.14-.9-.31-1.66-1.1-1.88-.42-.14-.91-.07-1.31,.17-.38,.23-.63,.59-.69,.99-.19,1.15-.62,2.3-1.08,3.48-.47,1.27-.84,2.53-1.2,3.73-.4,1.25-.77,2.51-1.16,3.85-.23,.8-.5,1.59-.76,2.38Z"/><path class="cls-1" d="M102.7,20.82c-1.04,.17-1.97,.8-2.78,1.89-.59,.84-1.02,1.91-1.2,2.96-.14,.59-.18,1.22-.14,1.78,0,.46,.12,.86,.24,1.25l.06,.18c.17,.39,.43,.66,.72,.92,.02,.25,.1,.5,.25,.75,.98,1.37,2.67,1.84,4.25,1.84,.57,0,1.13-.06,1.63-.17,2.34-.53,4-2.78,3.96-5.36,0-1.22-.38-2.44-1.09-3.53-.62-.93-1.48-1.64-2.58-2.12-1.02-.4-2.19-.54-3.31-.4Zm1.9,8.36l-.02,.02s-.04,0-.06,.01h-.66s-.09,0-.07,.02l-.12-.06h-.23c-.18-.02-.39-.1-.6-.17l-.04-.28h-.19v-.17h-.28c0-.11-.03-.24-.06-.37-.07-.17-.15-.3-.24-.41v-.03l-.13-.14v-.37h-.15v-.03s-.01-.11,0-.15l.03-.32c.02-.07,.03-.14,.04-.21,0-.05,.01-.11,.04-.19,.08-.39,.19-.76,.33-1.07l.15-.35c.04-.08,.1-.18,.16-.27l.28-.02v-.37h.01s.07-.08,.09-.11c.03-.02,.1-.05,.2-.12l.42-.08c.11-.02,.34,.02,.54,.05l.34,.07c.16,.03,.34,.07,.43,.11l.14,.04c.08,.05,.16,.09,.26,.15,.06,.05,.12,.09,.18,.12l.13,.12h.02s.06,.06,.08,.09l.05,.22,.23,.12v.03l.32,.51s.02,.07,.04,.11l.16,.51c.01,.09,.03,.18,.06,.26l.02,.13c.03,.18,.03,.32,0,.6v.09c-.02,.07-.03,.15-.05,.26-.04,.11-.07,.2-.09,.3,0,0,0,.02-.01,.03l-.09,.11v.09l-.04,.07-.29,.04v.36s-.05,.06-.08,.09c-.04,.04-.07,.08-.11,.13-.11,.05-.2,.12-.27,.19l-.85,.23Z"/><path class="cls-1" d="M88.09,8.14c.17,.39,.43,.66,.72,.92,.02,.25,.1,.5,.25,.75,.95,1.33,2.62,1.86,4.22,1.86,.57,0,1.13-.07,1.65-.19,2.34-.53,4.01-2.79,3.96-5.35,0-1.23-.37-2.45-1.09-3.54-.62-.93-1.48-1.64-2.58-2.12-1.02-.4-2.19-.54-3.31-.4-1.04,.17-1.97,.8-2.78,1.89-.59,.84-1.02,1.91-1.2,2.96-.14,.59-.18,1.22-.14,1.78,0,.47,.12,.88,.24,1.27l.05,.16Zm5.49-4.81c.16,.03,.33,.07,.42,.11l.15,.04c.09,.05,.17,.1,.26,.15,.06,.04,.12,.09,.18,.12l.13,.12h.02s.06,.06,.08,.09l.05,.22,.24,.12s0,.01,.01,.03l.31,.51s.02,.08,.04,.12l.15,.5c.01,.09,.03,.18,.06,.27l.02,.13c.03,.18,.03,.32,0,.6v.09c-.02,.07-.03,.15-.05,.26-.04,.11-.07,.2-.09,.3v.03l-.11,.11v.09l-.04,.07-.29,.04v.36s-.05,.06-.08,.09c-.04,.04-.07,.08-.11,.13-.11,.05-.2,.12-.26,.19l-.85,.23-.02,.02s-.04,0-.06,.01h-.66s-.08,0-.11,0l-.08-.04h-.23c-.17-.02-.38-.09-.6-.17l-.05-.28h-.19v-.17h-.28c0-.11-.03-.24-.06-.37-.07-.17-.15-.3-.24-.42v-.03l-.13-.14v-.37h-.15v-.03s-.01-.11,0-.14l.03-.33c.02-.07,.03-.14,.04-.21,0-.05,.01-.11,.04-.19,.08-.39,.19-.76,.33-1.07l.15-.35c.04-.08,.1-.18,.16-.27l.28-.02v-.38s.08-.06,.11-.09c.03-.02,.1-.05,.2-.12l.42-.08c.11-.02,.34,.02,.54,.05l.34,.07Z"/><path class="cls-1" d="M6.89,28.28H26.56c.83,0,1.5-.67,1.5-1.5s-.67-1.5-1.5-1.5H6.89c-.83,0-1.5,.67-1.5,1.5s.67,1.5,1.5,1.5Z"/><path class="cls-1" d="M11.85,8.15l18.6,6.42c.16,.05,.32,.08,.49,.08,.64,0,1.21-.41,1.42-1.01,.13-.38,.11-.79-.07-1.15-.18-.36-.48-.63-.86-.76L12.82,5.31c-.79-.26-1.64,.15-1.91,.93-.13,.38-.11,.79,.07,1.15,.18,.36,.48,.63,.86,.76Z"/><path class="cls-1" d="M123.13,26.78c0,.83,.67,1.5,1.5,1.5h19.67c.83,0,1.5-.67,1.5-1.5s-.67-1.5-1.5-1.5h-19.67c-.83,0-1.5,.67-1.5,1.5Z"/><path class="cls-1" d="M120.25,14.65c.17,0,.33-.03,.49-.08l18.6-6.42c.78-.27,1.2-1.13,.93-1.91-.27-.78-1.13-1.2-1.91-.93l-18.6,6.42c-.78,.27-1.2,1.13-.93,1.91,.21,.61,.78,1.01,1.42,1.01Z"/></g><path class="cls-1" d="M115.04,39.97H36.16C16.22,39.97,0,56.47,0,76.75s16.22,36.79,36.16,36.79H115.04c19.93,0,36.15-16.5,36.15-36.79s-16.22-36.78-36.15-36.78Zm0,71.02H36.16c-18.53,0-33.61-15.36-33.61-34.24s15.08-34.23,33.61-34.23H115.04c18.53,0,33.61,15.36,33.61,34.23s-15.08,34.24-33.61,34.24Z"/></g></g></svg>