<svg xmlns="http://www.w3.org/2000/svg" xmlns:xlink="http://www.w3.org/1999/xlink" width="659.156" height="190.966" viewBox="0 0 659.156 190.966"><defs><clipPath id="a"><rect width="659.156" height="190.966" fill="#f4f4f4"/></clipPath></defs><g transform="translate(0 0)"><g transform="translate(0 0)" clip-path="url(#a)"><path d="M0,123.361V18.057a10.968,10.968,0,1,1,21.936,0v105.3a10.968,10.968,0,1,1-21.936,0" transform="translate(0 24.774)" fill="#f4f4f4"/><path d="M14.173,116.274V10.97a10.968,10.968,0,1,1,21.936,0v105.3a10.968,10.968,0,1,1-21.936,0" transform="translate(49.548 -0.001)" fill="#f4f4f4"/><path d="M28.346,123.361V18.057a10.968,10.968,0,1,1,21.936,0v105.3a10.968,10.968,0,1,1-21.936,0" transform="translate(99.096 24.774)" fill="#f4f4f4"/><path d="M42.52,130.447V25.143a10.968,10.968,0,1,1,21.936,0v105.3a10.968,10.968,0,1,1-21.936,0" transform="translate(148.648 49.547)" fill="#f4f4f4"/><path d="M56.693,123.361V18.057a10.968,10.968,0,1,1,21.936,0v105.3a10.968,10.968,0,1,1-21.936,0" transform="translate(198.196 24.774)" fill="#f4f4f4"/><path d="M70.866,130.447V25.143a10.968,10.968,0,1,1,21.936,0v105.3a10.968,10.968,0,1,1-21.936,0" transform="translate(247.744 49.547)" fill="#f4f4f4"/><path d="M85.039,123.361V18.057a10.968,10.968,0,1,1,21.936,0v105.3a10.968,10.968,0,1,1-21.936,0" transform="translate(297.292 24.774)" fill="#f4f4f4"/><path d="M99.213,116.274V10.97a10.968,10.968,0,1,1,21.936,0v105.3a10.968,10.968,0,1,1-21.936,0" transform="translate(346.844 -0.001)" fill="#f4f4f4"/><path d="M113.386,123.361V18.057a10.968,10.968,0,1,1,21.936,0v105.3a10.968,10.968,0,1,1-21.936,0" transform="translate(396.392 24.774)" fill="#f4f4f4"/><path d="M127.559,116.274V10.97a10.968,10.968,0,1,1,21.936,0v105.3a10.968,10.968,0,1,1-21.936,0" transform="translate(445.94 -0.001)" fill="#f4f4f4"/><path d="M141.732,123.361V18.057a10.968,10.968,0,1,1,21.936,0v105.3a10.968,10.968,0,1,1-21.936,0" transform="translate(495.488 24.774)" fill="#f4f4f4"/></g></g></svg>