<svg width="16" height="11" viewBox="0 0 16 11" fill="none" xmlns="http://www.w3.org/2000/svg">
<path d="M7.48299 10.2384C7.39813 10.3234 7.30539 10.4009 7.20568 10.4699C6.87079 10.7015 6.47319 10.8254 6.066 10.825C6.01417 10.8251 5.96254 10.8231 5.91119 10.8191C5.68177 10.8016 5.45687 10.7446 5.24608 10.6501C5.0334 10.5548 4.83907 10.4234 4.6721 10.2618L0.683 6.77101C0.283878 6.4217 0.0398512 5.92816 0.00459503 5.39894C-0.0306612 4.86972 0.145741 4.34817 0.495 3.94901C0.844308 3.54988 1.33785 3.30586 1.86707 3.2706C2.39629 3.23535 2.91784 3.41175 3.317 3.76101L6.05569 6.15694L12.418 0.505096C12.8145 0.152977 13.3349 -0.0271971 13.8642 0.00411982C14.3936 0.0354367 14.8889 0.275672 15.2412 0.672089C15.5933 1.06863 15.7735 1.58899 15.7422 2.11838C15.7109 2.64776 15.4706 3.14258 15.0742 3.49484L7.48299 10.2384Z" fill="white"/>
</svg>
