<svg width="29" height="14" viewBox="0 0 29 14" fill="none" xmlns="http://www.w3.org/2000/svg">
<path d="M8.03294 6.69094C8.03303 6.88796 7.9943 7.08306 7.91898 7.26511C7.84365 7.44716 7.7332 7.61259 7.59394 7.75194L2.56094 12.7849C2.27965 13.0662 1.89818 13.2241 1.50044 13.2241C1.10269 13.2241 0.721228 13.0662 0.439937 12.7849C0.15873 12.5037 0.000756979 12.1222 0.000756979 11.7244C0.000756979 11.3267 0.15873 10.9452 0.439937 10.6639L5.47294 5.62994C5.68277 5.42037 5.95002 5.2777 6.24091 5.21997C6.5318 5.16223 6.83328 5.19201 7.10724 5.30556C7.38121 5.41911 7.61537 5.61132 7.78014 5.8579C7.9449 6.10449 8.03287 6.39438 8.03294 6.69094Z" fill="#D5AA4A"/>
<path d="M8.03294 6.69094C8.03293 6.89185 7.99256 7.09071 7.91423 7.27572C7.8359 7.46073 7.7212 7.62811 7.57694 7.76794C7.29129 8.04482 6.90736 8.19689 6.5096 8.1907C6.11184 8.18451 5.73283 8.02057 5.45594 7.73494L0.422937 2.54494C0.146062 2.2593 -0.00600689 1.87537 0.000181756 1.47761C0.0063704 1.07985 0.170309 0.700836 0.455937 0.423944C0.74158 0.147069 1.12551 -0.00499981 1.52327 0.00118884C1.92103 0.00737748 2.30004 0.171316 2.57694 0.456944L7.60994 5.64694C7.88121 5.92678 8.03292 6.30121 8.03294 6.69094Z" fill="#D5AA4A"/>
<path d="M18.1 6.69094C18.1 6.88796 18.0613 7.08306 17.986 7.26511C17.9107 7.44716 17.8002 7.61259 17.661 7.75194L12.628 12.7849C12.3467 13.0662 11.9652 13.2241 11.5675 13.2241C11.1697 13.2241 10.7882 13.0662 10.507 12.7849C10.2257 12.5037 10.0678 12.1222 10.0678 11.7244C10.0678 11.3267 10.2257 10.9452 10.507 10.6639L15.54 5.62994C15.7498 5.42037 16.017 5.2777 16.3079 5.21997C16.5988 5.16223 16.9003 5.19201 17.1743 5.30556C17.4482 5.41911 17.6824 5.61132 17.8472 5.8579C18.0119 6.10449 18.0999 6.39438 18.1 6.69094Z" fill="#D5AA4A"/>
<path d="M18.1 6.69094C18.0999 6.89185 18.0596 7.09071 17.9812 7.27572C17.9029 7.46073 17.7882 7.62811 17.644 7.76794C17.3583 8.04482 16.9744 8.19689 16.5766 8.1907C16.1789 8.18451 15.7998 8.02057 15.523 7.73494L10.49 2.54494C10.2131 2.2593 10.061 1.87537 10.0672 1.47761C10.0734 1.07985 10.2373 0.700836 10.523 0.423944C10.8086 0.147069 11.1925 -0.00499981 11.5903 0.00118884C11.988 0.00737748 12.3671 0.171316 12.644 0.456944L17.677 5.64694C17.9482 5.92678 18.0999 6.30121 18.1 6.69094Z" fill="#D5AA4A"/>
<path d="M28.167 6.69094C28.1671 6.88796 28.1283 7.08306 28.053 7.26511C27.9777 7.44716 27.8672 7.61259 27.728 7.75194L22.695 12.7849C22.4137 13.0662 22.0322 13.2241 21.6345 13.2241C21.2367 13.2241 20.8553 13.0662 20.574 12.7849C20.2928 12.5037 20.1348 12.1222 20.1348 11.7244C20.1348 11.3267 20.2928 10.9452 20.574 10.6639L25.607 5.62994C25.8168 5.42037 26.0841 5.2777 26.3749 5.21997C26.6658 5.16223 26.9673 5.19201 27.2413 5.30556C27.5152 5.41911 27.7494 5.61132 27.9142 5.8579C28.0789 6.10449 28.1669 6.39438 28.167 6.69094Z" fill="#D5AA4A"/>
<path d="M28.167 6.69094C28.167 6.89185 28.1266 7.09071 28.0483 7.27572C27.9699 7.46073 27.8552 7.62811 27.711 7.76794C27.4253 8.04482 27.0414 8.19689 26.6436 8.1907C26.2459 8.18451 25.8669 8.02057 25.59 7.73494L20.557 2.54494C20.2801 2.2593 20.128 1.87537 20.1342 1.47761C20.1404 1.07985 20.3043 0.700836 20.59 0.423944C20.8756 0.147069 21.2595 -0.00499981 21.6573 0.00118884C22.0551 0.00737748 22.4341 0.171316 22.711 0.456944L27.744 5.64694C28.0152 5.92678 28.167 6.30121 28.167 6.69094Z" fill="#D5AA4A"/>
</svg>
