<svg xmlns="http://www.w3.org/2000/svg" xmlns:xlink="http://www.w3.org/1999/xlink" width="577.867" height="72.547" viewBox="0 0 577.867 72.547"><defs><clipPath id="a"><path d="M9.288,7.087a9.291,9.291,0,0,0,0,18.581H98.467a9.291,9.291,0,1,0,0-18.581Z" transform="translate(-0.001 -7.087)" fill="#90a8b1"/></clipPath><clipPath id="b"><path d="M51.788,0a9.291,9.291,0,0,0,0,18.581H140.97A9.291,9.291,0,1,0,140.97,0Z" transform="translate(-42.501)" fill="#90a8b1"/></clipPath><clipPath id="c"><path d="M94.287,7.087a9.291,9.291,0,0,0,0,18.581h89.186a9.291,9.291,0,0,0,0-18.581Z" transform="translate(-85 -7.087)" fill="#90a8b1"/></clipPath><clipPath id="d"><path d="M132.752,14.173a9.291,9.291,0,0,0,0,18.581h89.183a9.291,9.291,0,0,0,0-18.581Z" transform="translate(-123.465 -14.173)" fill="#90a8b1"/></clipPath></defs><g transform="translate(-0.001)"><g transform="translate(0.001 26.985)"><g clip-path="url(#a)"><path d="M9.291,7.087H98.473a9.289,9.289,0,1,1,0,18.577H9.291a9.289,9.289,0,1,1,0-18.577" transform="translate(-0.004 -7.087)" fill="#90a8b1"/></g></g><g transform="translate(161.826)"><g clip-path="url(#b)"><path d="M51.791,0h89.183a9.289,9.289,0,1,1,0,18.577H51.791A9.289,9.289,0,1,1,51.791,0" transform="translate(-42.504)" fill="#90a8b1"/></g></g><g transform="translate(323.647 26.985)"><g clip-path="url(#c)"><path d="M94.291,7.087h89.183a9.289,9.289,0,1,1,0,18.577H94.291a9.289,9.289,0,1,1,0-18.577" transform="translate(-85 -7.087)" fill="#90a8b1"/></g></g><g transform="translate(470.108 53.966)"><g clip-path="url(#d)"><path d="M132.755,14.174h89.183a9.289,9.289,0,1,1,0,18.577H132.755a9.289,9.289,0,1,1,0-18.577" transform="translate(-123.468 -14.17)" fill="#90a8b1"/></g></g></g></svg>