<svg xmlns="http://www.w3.org/2000/svg" width="19.856" height="13" viewBox="0 0 19.856 13"><g transform="translate(1.5 1.71)"><path d="M5.834,6.6a1.494,1.494,0,0,1-.987-.371l-5.834-5.1A1.5,1.5,0,0,1-1.129-.988,1.5,1.5,0,0,1,.988-1.129l5.834,5.1A1.5,1.5,0,0,1,5.834,6.6Z" transform="translate(0 4.685)" fill="#909090"/><path d="M-4516.824,4855.076a1.5,1.5,0,0,1-1.122-.5,1.5,1.5,0,0,1,.125-2.118l11.022-9.79a1.5,1.5,0,0,1,2.118.125,1.5,1.5,0,0,1-.125,2.118l-11.022,9.79A1.5,1.5,0,0,1-4516.824,4855.076Z" transform="translate(4522.658 -4843.996)" fill="#909090"/></g></svg>