<svg xmlns="http://www.w3.org/2000/svg" xmlns:xlink="http://www.w3.org/1999/xlink" width="433.89" height="433.893" viewBox="0 0 433.89 433.893"><defs><clipPath id="a"><rect width="433.89" height="433.893" fill="none"/></clipPath></defs><g clip-path="url(#a)"><path d="M122.964,80.192a7,7,0,0,1,7-7h67.184a7,7,0,0,1,0,14H129.963a7,7,0,0,1-7-7" transform="translate(229.747 136.754)" fill="#008548"/><path d="M120.527,78.334a7,7,0,0,1,4.839-6.655L189.26,50.921a7,7,0,1,1,4.326,13.309l-63.9,20.762a7,7,0,0,1-9.162-6.658" transform="translate(225.194 94.496)" fill="#72a747"/><path d="M113.458,76.666A6.991,6.991,0,0,1,116.344,71L170.7,31.509a7,7,0,0,1,8.227,11.324L124.57,82.323a7,7,0,0,1-11.112-5.656" transform="translate(211.986 56.374)" fill="#ffd94b"/><path d="M102.447,75.324a6.979,6.979,0,0,1,1.337-4.108l39.489-54.353A7,7,0,0,1,154.6,25.09L115.108,79.443a7,7,0,0,1-12.661-4.119" transform="translate(191.413 26.12)" fill="#008548"/><path d="M88.572,74.479a7.009,7.009,0,0,1,.344-2.163l20.762-63.9a7,7,0,1,1,13.309,4.326l-20.759,63.9a7,7,0,0,1-13.656-2.163" transform="translate(165.489 6.694)" fill="#72a747"/><path d="M73.193,74.183V7A7,7,0,1,1,87.188,7V74.183a7,7,0,1,1-13.995,0" transform="translate(136.754)" fill="#008548"/><path d="M50.574,10.581A7,7,0,0,1,64.23,8.418l20.759,63.9A7,7,0,1,1,71.68,76.64l-20.762-63.9a7.009,7.009,0,0,1-.344-2.163" transform="translate(94.493 6.693)" fill="#008548"/><path d="M30.171,20.984a7,7,0,0,1,12.661-4.119L82.322,71.218A7,7,0,0,1,71,79.445L31.508,25.091a6.979,6.979,0,0,1-1.337-4.108" transform="translate(56.372 26.118)" fill="#ffd94b"/><path d="M13.978,37.165A7,7,0,0,1,25.09,31.509L79.444,71a7,7,0,0,1-8.227,11.324L16.864,42.833a6.987,6.987,0,0,1-2.886-5.668" transform="translate(26.117 56.374)" fill="#72a747"/><path d="M3.582,57.577a7,7,0,0,1,9.162-6.658l63.9,20.762a7,7,0,0,1-4.326,13.312L8.421,64.231a7,7,0,0,1-4.839-6.655" transform="translate(6.693 94.495)" fill="#ffd94b"/><path d="M0,80.192a7,7,0,0,1,7-7H74.183a7,7,0,0,1,0,14H7a7,7,0,0,1-7-7" transform="translate(0 136.754)" fill="#008548"/><path d="M3.582,116.333a7,7,0,0,1,4.839-6.655L72.315,88.917a7,7,0,0,1,4.326,13.312l-63.9,20.762a7,7,0,0,1-9.162-6.658" transform="translate(6.693 165.491)" fill="#72a747"/><path d="M13.978,148.942a6.991,6.991,0,0,1,2.886-5.668l54.353-39.489a7,7,0,1,1,8.227,11.324L25.09,154.6a7,7,0,0,1-11.112-5.657" transform="translate(26.117 191.415)" fill="#008548"/><path d="M30.171,174.8a6.979,6.979,0,0,1,1.337-4.108L71,116.342a7,7,0,0,1,11.324,8.227L42.832,178.922A7,7,0,0,1,30.171,174.8" transform="translate(56.372 211.987)" fill="#ffd94b"/><path d="M50.574,191.423a7.009,7.009,0,0,1,.344-2.163l20.762-63.9a7,7,0,1,1,13.309,4.326l-20.759,63.9a7,7,0,0,1-13.656-2.163" transform="translate(94.493 225.196)" fill="#008548"/><path d="M73.193,197.147V129.963a7,7,0,1,1,13.995,0v67.184a7,7,0,1,1-13.995,0" transform="translate(136.754 229.747)" fill="#72a747"/><path d="M88.572,127.527a7,7,0,0,1,13.656-2.163l20.759,63.9a7,7,0,0,1-13.309,4.326l-20.762-63.9a7.01,7.01,0,0,1-.344-2.163" transform="translate(165.489 225.196)" fill="#008548"/><path d="M102.447,120.464a7,7,0,0,1,12.661-4.119L154.6,170.7a7,7,0,0,1-11.324,8.227l-39.489-54.353a6.979,6.979,0,0,1-1.337-4.108" transform="translate(191.413 211.988)" fill="#ffd94b"/><path d="M113.458,109.441a7,7,0,0,1,11.112-5.656l54.353,39.489A7,7,0,0,1,170.7,154.6l-54.353-39.489a6.987,6.987,0,0,1-2.886-5.668" transform="translate(211.986 191.415)" fill="#72a747"/><path d="M120.527,95.575a7,7,0,0,1,9.162-6.658l63.9,20.762a7,7,0,1,1-4.326,13.309l-63.894-20.759a7,7,0,0,1-4.839-6.655" transform="translate(225.194 165.491)" fill="#ffd94b"/></g></svg>