<svg xmlns="http://www.w3.org/2000/svg" width="9.832" height="7.005" viewBox="0 0 9.832 7.005"><g transform="translate(1.5 1.5)"><path d="M2.362,3.525a1.494,1.494,0,0,1-.975-.361L-.976,1.139A1.5,1.5,0,0,1-1.139-.976,1.5,1.5,0,0,1,.976-1.139L3.339.886a1.5,1.5,0,0,1-.977,2.639Z" transform="translate(0 1.898)" fill="#fff"/><path d="M-4516.824,4849.292a1.5,1.5,0,0,1-1.122-.5,1.5,1.5,0,0,1,.125-2.118l4.509-4.005a1.5,1.5,0,0,1,2.118.125,1.5,1.5,0,0,1-.125,2.118l-4.509,4.005A1.5,1.5,0,0,1-4516.824,4849.292Z" transform="translate(4519.147 -4843.786)" fill="#fff"/></g></svg>