<svg width="215" height="132" viewBox="0 0 215 132" fill="none" xmlns="http://www.w3.org/2000/svg">
<path d="M139.2 99.7L134.1 94.6C125.4 85.9 125.4 71.7 134.1 62.9C138.5 58.5 144.2 56.3 149.9 56.3C155.6 56.3 161.3 58.5 165.7 62.9L170.8 68L139.2 99.7Z" fill="#00955C"/>
<path d="M214.1 78.8C214.1 84.5 211.9 90.2 207.5 94.6L202.4 99.7L186.6 83.9L170.8 68.1L175.9 63C184.6 54.3 198.8 54.3 207.6 63C211.9 67.4 214.1 73.1 214.1 78.8Z" fill="#FFE163"/>
<path d="M202.5 99.8L186.6 115.6L178.7 123.5L170.8 131.4L155 115.6L139.2 99.7L170.8 68.1L186.6 83.9L202.5 99.8Z" fill="#78B55C"/>
<path d="M200.2 26.7H211.1V21.9H200.2V4.8H213.5V0H194.6V50.6H214.1V45.8H200.2V26.7ZM178.1 4.8C179.2 4.8 179.9 5 180.2 5.2C180.5 5.5 180.6 6.2 180.6 7.3V22.1C180.6 23.2 180.4 23.9 180.2 24.2C179.9 24.5 179.2 24.6 178.1 24.6H170.5V4.8H178.1ZM175.4 29.4L182.8 50.5H188.8L181.2 29.3C184.6 28.9 186.2 26.8 186.2 23V6.4C186.2 2.1 184.1 0 179.8 0H165V50.6H170.5V29.5L175.4 29.4ZM150.5 45.3C150.2 45.6 149.5 45.7 148.5 45.7H143.5C142.5 45.7 141.8 45.5 141.5 45.3C141.2 45 141 44.3 141 43.2V7.3C141 6.2 141.2 5.5 141.5 5.2C141.8 4.9 142.5 4.8 143.5 4.8H148.5C149.5 4.8 150.2 5 150.5 5.2C150.8 5.5 151 6.2 151 7.3V43.2C151 44.3 150.8 45 150.5 45.3ZM135.4 6.4V44.1C135.4 48.4 137.5 50.5 141.8 50.5H150.1C154.4 50.5 156.5 48.4 156.5 44.1V6.4C156.5 2.1 154.4 0 150.1 0H141.8C137.5 0 135.4 2.1 135.4 6.4ZM101.9 12.3L109 39.6H114.9L122 12.3V50.6H126.8V0H120.7L111.9 32.5L103.2 0H97.1001V50.6H101.9V12.3ZM66.6001 26.7H77.5001V21.9H66.6001V4.8H79.9001V0H61.0001V50.6H80.5001V45.8H66.6001V26.7ZM46.9001 37.8L36.8001 0H30.3001V50.6H35.4001V11.4L45.9001 50.6H52.0001V0H46.9001V37.8ZM15.8001 45.3C15.5001 45.6 14.8001 45.7 13.8001 45.7H8.8001C7.8001 45.7 7.1001 45.5 6.8001 45.3C6.5001 45 6.3001 44.3 6.3001 43.2V7.3C6.3001 6.2 6.5001 5.5 6.8001 5.2C7.1001 4.9 7.8001 4.8 8.8001 4.8H13.8001C14.8001 4.8 15.5001 5 15.8001 5.2C16.1001 5.5 16.3001 6.2 16.3001 7.3V43.2C16.2001 44.3 16.1001 45 15.8001 45.3ZM0.600098 6.4V44.1C0.600098 48.4 2.7001 50.5 7.0001 50.5H15.3001C19.6001 50.5 21.7001 48.4 21.7001 44.1V6.4C21.7001 2.1 19.6001 0 15.3001 0H7.0001C2.8001 0 0.600098 2.1 0.600098 6.4Z" fill="black"/>
<path d="M89.7001 125.6L79.5001 56.4H71.2001L83.3001 131.4H96.4001L108.5 56.4H100.2L89.7001 125.6ZM56.1001 120.6C56.1001 122.2 55.9001 123.2 55.4001 123.7C54.9001 124.1 53.9001 124.4 52.4001 124.4H44.9001C43.4001 124.4 42.4001 124.2 41.9001 123.7C41.4001 123.3 41.2001 122.2 41.2001 120.6V56.5H33.0001V121.9C33.0001 128.2 36.2001 131.4 42.5001 131.4H54.8001C61.1001 131.4 64.3001 128.2 64.3001 121.9V56.5H56.1001V120.6ZM8.8001 56.4H0.600098V131.4H26.0001V124.3H8.8001V56.4Z" fill="black"/>
</svg>
