<?xml version="1.0" encoding="UTF-8"?><svg id="Warstwa_2" xmlns="http://www.w3.org/2000/svg" viewBox="0 0 151.6 131.69"><defs><style>.cls-1{fill:#3c3c3b;}</style></defs><g id="Warstwa_1-2"><g><path class="cls-1" d="M115.34,57.92h-1.06l15.54-25.82,.2-.34-.22-.34-12.12-19.1-.07-.11L91,.21l-.49-.21-.18,.36c-.04,.08-.47,.87-.68,1.33l-5.73,11.25s-.01,.05-.02,.08l-26.44,.47-9.35,27.53,.38,.94,6,15.96h-18.23C16.4,57.92,.24,74.24,.01,94.38h-.01v.85H.01c.23,20.14,16.39,36.46,36.24,36.46H115.35c19.99,0,36.25-16.55,36.25-36.89s-16.27-36.88-36.26-36.88Zm-2.75-2.15l-17.59-5.56,2.5-9.59,.1-.35-.88-3.35,7.54-12.54,22.13,8.47-13.8,22.93Zm-18.23-3.09l16.62,5.26-18.01,.09,1.39-5.35Zm-5.19,8.96l-6.76-21.12,6.68-22.46,4.95,18.76c0,.21,.05,.41,.16,.59l.75,2.85-5.77,21.38ZM115.86,14.23l9.95,15.66-21.25-8.13L93.34,3.94l22.52,10.3Zm-24.96-9.38l11.31,17.96-6.4,10.66-5.31-20.12-.12-.44-3.61,.06,4.13-8.12Zm-31.61,11.16l27.9-.5-7.06,23.76-22.97,.41-5.94,.11,8.07-23.77Zm-8.03,26.33l25.41-.45,3.48-.06,7.16,22.38-27.16,1.57-8.9-23.43Zm64.08,86.79H36.25c-18.58,0-33.7-15.4-33.7-34.33s15.12-34.33,33.7-34.33h19.19l2.99,7.96,32.32-1.86h0l1.55-5.98,23.04-.12c18.58,0,33.7,15.4,33.7,34.33s-15.12,34.33-33.7,34.33Z"/><path class="cls-1" d="M31.79,82.82l-.26,.02,.25-.05s-.03-.17-.03-.19v-.11c-.04-.11-.04-.24-.05-.44-.04-.26-.04-.53-.04-.76,.03-.35-.1-.7-.35-.97-.27-.29-.65-.46-1.05-.46-.79,0-1.44,.63-1.44,1.37-.03,.62,.04,1.2,.11,1.77l.06,.46c.02,.15,.05,.31,.08,.47,.03,.14,.06,.29,.07,.44,0,.1,0,.18,.04,.29,0,.19,0,.35,.04,.51,.03,.42,.02,.84,0,1.26,0,.22,0,.44,0,.66,0,.32,0,.65-.02,.98,0,.34-.02,.68-.02,.99l-.03,.91c-.04,1.01-.08,2.04-.05,3.07,0,.67,0,1.34,.02,2.01,0,.67,.02,1.33,.02,1.99-.01,.74-.02,1.47-.03,2.21-.02,1.49-.04,2.99-.09,4.52l-.35-.88c-.58-1.42-1.08-2.92-1.57-4.37-.33-.99-.66-1.98-1.02-2.95-.47-1.36-.91-2.54-1.35-3.59l-.31-.72c-.43-.99-.86-1.99-1.31-2.93-.31-.68-.62-1.35-.93-2.02-.74-1.59-1.5-3.23-2.18-4.86l-.19-.4c-.08-.27-.23-.65-.66-.87-.32-.16-.69-.21-1.07-.15-.62,.17-1.18,.87-1.04,1.59-.14,4.83,0,9.74,.16,14.49l.05,1.53c.12,4.22,.24,8.59,.24,12.88,0,.76,.63,1.36,1.44,1.36s1.4-.61,1.4-1.36c0-5.3-.16-10.65-.32-15.82v-.16c-.07-2.15-.13-4.35-.16-6.56,.16,.33,.32,.67,.48,1,.28,.56,.56,1.16,.8,1.72l.35,.82c.02,.07,.06,.16,.1,.25,.02,.06,.05,.11,.09,.22,.02,.03,.03,.06,.03,.03v.16l.11,.15c.48,1.16,.92,2.33,1.33,3.51,.44,1.21,.88,2.43,1.31,3.64,.44,1.23,.88,2.47,1.33,3.7l.06,.15c.47,1.21,.94,2.42,1.45,3.63,.28,.71,.53,1.26,.76,1.72l.11,.3c.02,.07,.05,.15,.11,.25l.03,.17c.06,.14,.12,.3,.18,.45,.06,.15,.12,.3,.15,.35,.04,.23,.09,.46,.16,.61,.06,.29,.23,.55,.44,.7,.25,.25,.65,.41,1.03,.41,.77,0,1.4-.61,1.4-1.36,0-1.76,.07-3.53,.14-5.25,.04-.9,.07-1.81,.1-2.73,.04-2.6,.08-5.28,.04-7.99,0-.38,0-.76,0-1.14,0-.75-.02-1.48,0-2.2l.12-3.34c0-.32,.01-.65,.02-.97,.03-.79,.05-1.61-.07-2.41l-.24-1.7Z"/><path class="cls-1" d="M46.9,90.32c.02-.62,.04-1.24,.04-1.85,0-1.4-.09-2.66-.29-3.88-.2-1.24-.64-2.26-1.31-3-.87-1.07-2.24-1.29-3.34-1.37-.66-.05-1.27,.01-1.78,.17-.61,.12-1.16,.42-1.73,.94-.88,.75-1.4,1.82-1.85,2.78-.45,.98-.97,2.13-1.36,3.29-.28,.89-.44,1.79-.6,2.66-.06,.31-.12,.63-.18,.95-.24,1.27-.5,2.58-.33,3.94l.02,.12c.03,.16,.06,.31,.1,.44-.04,1.58-.08,3.21,.04,4.84,.07,1.06,.24,2.13,.41,3.16l.13,.78c.21,1.11,.46,2.29,1.06,3.38,.51,.89,1.13,1.76,1.79,2.5,.78,.88,1.65,1.43,2.58,1.64,.29,.06,.58,.09,.86,.09,.53,0,1.07-.1,1.63-.32,.65-.28,1.21-.77,1.71-1.47,.9-1.17,1.36-2.69,1.66-3.88,.31-1.24,.52-2.56,.66-4.04h0c.15-1.93,.21-3.92,.16-6.09l-.12-3.92c0-.63,.02-1.26,.04-1.88Zm-2.79-1.56c0,.28,0,.56,0,.89-.04,1.26-.08,2.45-.04,3.78,.04,1.28,.08,2.6,.08,3.88h0c.04,1.87-.1,3.73-.24,5.35,0,.06,0,.16,0,.22l-.19,1.35c-.07,.59-.24,1.16-.42,1.77l-.06,.2c-.06,.26-.17,.55-.3,.87l-.1,.31c-.03,.05-.05,.11-.08,.17-.02,.05-.04,.09-.1,.2-.09,.22-.21,.42-.33,.59h-.23v.29l-.36,.32s-.09,.07-.14,.09c-.03,0-.06,.02-.08,.02l-.49,.04-.11-.12h-.29s-.07-.04-.1-.05c-.04-.03-.07-.04-.07-.04-.31-.27-.61-.6-.92-1l-.16-.2s-.04-.05-.08-.11l-.09-.13c-.15-.19-.26-.38-.41-.62-.1-.13-.2-.27-.3-.45l-.08-.11s-.06-.08-.07-.1l-.13-.31c-.15-.35-.23-.72-.31-1.11l-.07-.3c-.06-.34-.13-.68-.21-1.03-.12-.56-.24-1.13-.31-1.65v-.2l-.02-.14s-.02-.08-.02-.12c0-.06-.02-.11-.03-.17,0-.13-.01-.25-.02-.38,0-.12-.02-.24-.02-.41-.04-.48-.08-.99-.08-1.51,0-1.07,0-2.14,.04-3.21,.04-.15,.04-.29,0-.44v-.04c.04-.9,.08-1.8,.08-2.71,0-.08-.02-.16-.05-.28,.08-.39,.15-.78,.22-1.16,.15-.8,.29-1.55,.5-2.29l.21-.78c.09-.17,.13-.31,.18-.46,.03-.06,.05-.12,.06-.16l.04-.12s.05-.11,.06-.14c.16-.4,.36-.84,.56-1.29,.19-.47,.43-.89,.68-1.35,.11-.22,.21-.38,.31-.51l.22-.02v-.25c.06-.06,.12-.13,.2-.22,.06-.04,.11-.08,.11-.1l.06-.03c.06-.02,.12-.06,.19-.1,.04,0,.07-.02,.11-.03l.26-.07c.08,.02,.19,0,.28-.02,.16-.02,.31-.01,.45,0,.09,0,.18,.01,.23,0l.15,.06h.1c.06,0,.12,.02,.18,.03,.06,.02,.12,.03,.17,.04h.03l.08,.09h.09s.08,.05,.13,.07c.03,.03,.07,.06,.1,.09l.16,.16c.03,.05,.06,.09,.09,.13,.03,.08,.07,.17,.14,.25,.02,.07,.05,.15,.1,.21,.05,.13,.07,.25,.1,.36l.04,.16c.06,.15,.09,.32,.13,.49,0,.08,.01,.17,.03,.25,0,.04,.01,.07,.01,.15v.08l.04,.09,.4-.07h0l-.4,.21c.15,.94,.14,1.87,.12,2.85Z"/><path class="cls-1" d="M63.93,85.12c.03-.08,.04-.15,.05-.21,0-.02,0-.04,.01-.06,.05-.08,.08-.17,.1-.25,.06-.13,.13-.26,.22-.39,.07-.14,.17-.27,.29-.42l.08-.11v-.04h.01c.06-.08,.11-.16,.22-.24l.28-.28c.06-.03,.13-.07,.21-.13,.08-.03,.16-.07,.22-.11,.1-.03,.19-.04,.26-.04l.46-.04c.1,0,.21,0,.25,.02l.38,.06s.04,0,.19,.06l.12,.02s.07,.02,.11,.04l.15,.09c.15,.06,.31,.15,.47,.27v.08h.16c.07,.07,.15,.14,.24,.2,.09,.09,.19,.19,.29,.32l.21,.29s.04,.07,.06,.11c.02,.06,.06,.12,.09,.16v.04c.02,.06,.03,.13,.05,.17,.08,.37,.32,.68,.65,.87,.34,.19,.74,.24,1.07,.13,.74-.17,1.19-.94,1-1.74-.32-1.16-1.11-2.2-2.28-3.03-.95-.65-2.13-1.01-3.32-1.01s-2.24,.42-3.12,1.2c-.73,.65-1.33,1.57-1.77,2.71-.34,.82-.54,1.76-.64,2.96-.08,1.04-.04,2.1,.12,3.13,.13,.99,.39,1.97,.76,2.84,.41,.9,.98,1.74,1.69,2.5,.58,.66,1.26,1.23,1.91,1.78,.81,.69,1.57,1.33,2.21,2.18l.08,.1s.15,.2,.14,.17c.05,.08,.11,.17,.16,.25,.08,.11,.16,.23,.23,.37,.08,.15,.19,.38,.27,.57l.09,.16c.04,.16,.08,.31,.15,.42,.19,.63,.32,1.18,.39,1.66,0,.07,.01,.14,.04,.21v.37c.04,.31,.04,.57,.04,.84,0,.07,0,.22-.02,.27l-.02,.06v.25c-.03,.21-.09,.45-.2,.81-.03,.22-.09,.43-.22,.71-.03,.05-.07,.12-.09,.21-.07,.12-.14,.26-.2,.38-.04,.07-.09,.14-.14,.21-.09,.13-.18,.26-.26,.41-.04,.04-.08,.1-.15,.19l-.16,.21c-.11,.15-.25,.29-.36,.4-.04,.04-.11,.11-.13,.12l-.27,.22c-.09,.06-.2,.14-.36,.23-.02,0-.05,.03-.09,.05l-.25,.07c-.11,.06-.29,.09-.38,.12h-.12c-.08,0-.17,.01-.25,.03-.04,0-.07,.01-.11,.01-.22,0-.44,0-.73-.04l-.78-.24s-.04-.02-.05-.04l-.33-.33s-.06-.08-.1-.15c-.02-.05-.04-.1-.06-.16l-.03-.35h-.09l-.05-.21c-.03-.14-.07-.28-.1-.42,0-.06-.01-.14-.03-.22l-.42,.08h0l.4-.19c-.04-.35-.04-.7-.04-1.09,0-.76-.64-1.4-1.4-1.4s-1.44,.63-1.44,1.4c0,1.07,.11,2,.34,2.82,.27,1.05,.86,1.89,1.75,2.51,.74,.52,1.81,.81,2.94,.81,.09,0,.18,0,.26,0,1.06,0,2.12-.31,2.99-.88,.99-.66,1.69-1.6,2.18-2.34,.7-1.02,1.14-2.25,1.33-3.75,.16-1.14,.07-2.43-.25-3.72-.27-1.21-.71-2.29-1.32-3.23-.81-1.15-1.83-2.09-2.82-2.99-.45-.41-.89-.81-1.33-1.25-.39-.35-.68-.65-.95-1l-.1-.08c-.11-.19-.17-.27-.17-.27-.06-.1-.14-.21-.21-.31-.06-.09-.13-.18-.17-.24l-.22-.43-.02-.12-.05-.05c-.04-.11-.07-.2-.08-.2l-.06-.23c-.1-.35-.19-.68-.26-1.06-.04-.14-.07-.27-.07-.38,0-.03-.01-.12-.04-.28l-.02-.14c-.02-.05-.02-.13-.02-.3-.04-.43-.04-.91-.04-1.38,0-.09,0-.19,.02-.29,0-.09,.02-.19,.02-.27,.04-.12,.04-.22,.04-.22h0s.05-.3,.04-.34c.08-.43,.15-.83,.31-1.22Zm.4-1.7l.34,.2c-.02,.07-.05,.11-.05,.11l-.29-.31h0Z"/><path class="cls-1" d="M86.36,88.34l-.02-1.4c-.03-1.79-.05-3.65-.18-5.48-.06-.78-.68-1.36-1.44-1.36-.38,0-.77,.18-1.05,.47-.25,.27-.38,.61-.35,.96,.17,2.18,.2,4.43,.22,6.6l.02,1.31c0,1.32,.04,2.68,.12,4.04,.03,.4,.06,.81,.09,1.21,.06,.85,.13,1.71,.15,2.57,0,1.25,0,2.54-.08,3.79-.02,.54-.06,1.07-.1,1.61-.04,.56-.08,1.12-.1,1.67l-.12,2.12c-.04,.13-.04,.25-.04,.34l-.05,.2c0,.08-.02,.14-.05,.27l-.03,.13c-.03,.27-.1,.52-.21,.78l-.17,.34c-.04,.06-.08,.12-.11,.19l-.23,.23-.04,.02s-.08,.05-.13,.07l-.22,.09s-.08,.02-.12,.03c-.06,0-.11,.02-.17,.03h-.2c-.43,.04-.86,.04-1.33,.03-.06-.01-.14-.02-.26-.02-.24-.04-.4-.07-.64-.16-.09-.02-.18-.04-.27-.07-.02,0-.04-.01-.06-.02l-.02-.12h-.29c-.08-.05-.16-.08-.23-.12-.07-.03-.14-.08-.2-.12-.05-.03-.11-.07-.16-.1-.04-.05-.1-.1-.16-.13l-.14-.14c-.04-.06-.08-.1-.12-.13l-.11-.14s-.05-.1-.07-.17l-.14-.29c-.13-.29-.19-.62-.24-.97l-.04-.27c0-.11-.03-.2-.04-.2,0-.11-.01-.21-.03-.31,0-.05-.01-.09-.02-.18-.04-.31-.04-.61-.04-.93-.03-.83-.02-1.64,0-2.46,0-.42,0-.83,0-1.25,0-.65-.02-1.31-.04-1.96-.02-.64-.04-1.29-.04-1.94-.04-1.39,0-2.79,.04-4.04,0-.32,0-.64,0-.96,0-.64,.02-1.28,0-1.93-.02-.58-.09-1.16-.16-1.75-.04-.37-.09-.74-.12-1.11-.12-1.2-.06-2.43,0-3.62,.04-.72,.08-1.43,.08-2.13,0-.79-.63-1.44-1.4-1.44s-1.44,.63-1.44,1.44-.04,1.56-.09,2.34c-.03,.53-.06,1.06-.07,1.59,0,.65,0,1.32,.08,1.97,.04,.57,.1,1.12,.17,1.68l.03,.23c.1,1.05,.09,2.06,.08,3.14v.86c-.04,1.3-.08,2.64-.04,3.99,0,.65,.02,1.3,.04,1.96,.02,.64,.04,1.29,.04,1.93,0,.4,0,.81,0,1.21,0,.84-.02,1.68,0,2.53v.11c.05,.64,.09,1.3,.22,2.04,.08,.47,.17,1.01,.38,1.53,.45,1.03,1.16,1.85,2.11,2.46,.95,.58,2,.8,2.92,.95,.37,.05,.74,.07,1.11,.07,.62,0,1.24-.07,1.83-.2,.93-.21,1.76-.79,2.4-1.68,.43-.63,.73-1.43,.88-2.41,.13-.84,.21-1.67,.25-2.53,0-.83,.08-1.69,.16-2.51h0c.2-2.45,.21-5.02,.04-7.65-.19-2.65-.28-4.78-.28-6.71Z"/><path class="cls-1" d="M101.21,100.82c-.04-.12-.06-.23-.06-.31,0-.11-.03-.2-.04-.2v-.14c-.04-.31-.04-.61-.04-.92,0-.23,0-.42-.04-.57,0-.51-.16-.84-.41-1.18-.42-.58-1.19-.65-1.75-.7-1.13-.15-2.37-.11-3.7,.12-.09,0-.17,.02-.22,.03l.1,.41-.21-.39c-.34,.08-.63,.29-.82,.61-.21,.34-.28,.76-.18,1.14,.21,.75,.94,1.17,1.62,1,.14,0,.27,0,.37-.04,.07,0,.19,0,.31-.04,.13,0,.26-.01,.39-.02,.14,0,.29-.02,.47-.02,.41-.03,.82-.01,1.25,.01v.46c.02,.19,.05,.38,.08,.57,.03,.17,.06,.35,.07,.48,0,.16,.03,.33,.08,.52v.13s.03,.14,.04,.22c.08,.58,.12,1.19,.16,1.87,.04,.66,.03,1.21-.02,1.77h-.06v.43c0,.08-.02,.14-.05,.27l-.03,.12c-.02,.14-.05,.27-.08,.4-.03,.12-.06,.24-.06,.3l-.05,.14c-.02,.06-.05,.12-.07,.19l-.06,.15c-.08,.15-.16,.29-.23,.41l-.18,.21v.02s-.03,.02-.05,.04l-.23,.22v.02h-.01s-.02,.02-.03,.03c-.06,.02-.12,.05-.23,.11h0l-.4,.14c-.07,.02-.17,.06-.31,.06l-1.01,.04c-.07,0-.22,0-.27-.02l-.19-.03c-.05-.01-.13-.04-.15-.02-.1-.02-.19-.04-.29-.06-.12-.03-.25-.06-.39-.08-.05-.03-.12-.06-.21-.1l-.27-.14c-.12-.05-.23-.12-.34-.19l-.23-.21c-.09-.06-.16-.13-.28-.26-.04-.06-.09-.11-.15-.17l-.04-.03c-.11-.15-.21-.32-.27-.47l-.09-.14s-.03-.04-.05-.06c-.01-.06-.03-.14-.08-.21-.06-.16-.12-.33-.17-.56-.11-.38-.19-.79-.26-1.18l-.02-.26c-.02-.05-.02-.13-.03-.31-.03-.18-.03-.39-.03-.63-.08-1.32-.08-2.6-.08-3.94,.02-1.59,.09-3.18,.16-4.77,.04-1.09,.09-2.19,.13-3.34,.04-.95,.08-1.93,.04-2.88v-.67c-.01-.64-.02-1.29,.03-1.95,.03-.1,.04-.2,.04-.28l.04-.22c0-.1,.03-.21,.06-.34,.02-.09,.04-.18,.06-.29,.03-.17,.07-.34,.14-.51l.04-.12c.07-.12,.11-.21,.13-.27,.03-.06,.06-.13,.11-.19h.23v-.32s.05-.05,.09-.09c.04-.03,.09-.06,.14-.1l.16-.12-.26-.33h0l.37,.25,.14-.09c.06-.03,.11-.07,.17-.1,.04-.02,.11-.04,.18-.09l.15-.06h0c.29-.11,.51-.16,.78-.19h.08l.09-.04s.08,0,.11,0h.57l.24,.05h.07c.11,.03,.22,.05,.33,.06,.08,.03,.15,.05,.21,.09l.05,.15h.35c.12,.05,.24,.11,.35,.18,.07,.04,.14,.08,.21,.11,.06,.05,.13,.09,.22,.15l.31,.28c.05,.07,.11,.14,.15,.18h0s0,.04,.02,.06c-.08,.77,.31,1.41,1.02,1.61,.39,.1,.85,.01,1.19-.21,.3-.2,.49-.49,.54-.8,.14-.69,.05-1.32-.28-1.97-.26-.52-.66-.93-.96-1.19-.69-.58-1.56-1.03-2.67-1.38-2.39-.7-5.19,.24-6.66,2.23-.53,.73-.86,1.64-1.01,2.69-.16,.99-.25,2-.25,2.99,0,.43,0,.85,.02,1.27,0,.41,.02,.83,.02,1.23v.15c-.04,1.28-.08,2.56-.16,3.85-.11,2.4-.21,5.24-.12,8.09,.04,1.86,.08,4.18,1.27,6.16,.52,.91,1.34,1.7,2.32,2.23,1.11,.6,2.4,.75,3.38,.75,.12,0,.24,0,.36,0,1.59-.05,2.79-.52,3.65-1.42,.9-.9,1.27-2.12,1.49-3.08,.29-1.17,.36-2.54,.21-4.2l-.26-2.19Zm-8.17-17.88h0Z"/><path class="cls-1" d="M116.11,83.67c-.41-1.18-1.09-2.12-2.01-2.79-.78-.58-1.75-.91-2.98-1.01-1.23-.1-2.35,.11-3.35,.62-.93,.5-1.78,1.34-2.48,2.43-.35,.6-.57,1.09-.73,1.6-.16,.56-.24,1.13-.32,1.69l-.02,.12c-.18,1.51-.29,2.82-.33,4-.06,1.02-.05,2.04-.04,3.04v.99c-.03,2.67-.03,5.37,0,8.03,0,1.33-.04,2.67-.12,3.99l-.06,.97c-.07,1.01-.14,2.05-.14,3.1,0,.76,.63,1.36,1.44,1.36s1.4-.61,1.4-1.36c0-1.37,.11-2.76,.21-4.1l.04-.6c.07,0,.15-.02,.26-.02,.33-.04,.67-.04,1-.04,.75,0,1.47,0,2.25,.04l.73,.05c.93,.06,1.9,.13,2.84,.12v1.59c0,1.07,0,2.08,.08,3.11,.06,.82,.62,1.37,1.4,1.37,.41,0,.82-.18,1.09-.47,.25-.27,.37-.61,.34-.97-.1-1.02-.09-2.08-.08-3.12v-4.83c0-2.67,.04-5.37,.12-8.01,.02-.63,.05-1.27,.09-1.9,.09-1.74,.18-3.54,.03-5.32-.09-1.3-.31-2.53-.67-3.67Zm-2.17,7.94l-.16,4.95c-.03,2.16-.07,4.32-.08,6.48-.93,.03-1.88-.06-2.8-.12l-.79-.05c-.58-.04-1.12-.05-1.63-.05-.63,0-1.21,.03-1.78,.08v-.37c0-.89,0-1.78,0-2.68,0-1.78-.02-3.56,0-5.35v-1.02c-.01-.98-.02-1.98,.04-2.98,.03-.95,.13-1.94,.22-2.9l.1-1.08c0-.06,0-.13,.02-.19,0-.04,0-.07,.01-.11l.05-.05v-.26c0-.08,.03-.16,.05-.25,.03-.13,.07-.26,.09-.39,.03-.06,.05-.14,.08-.22l.09-.1,.02-.11c.06-.19,.16-.36,.31-.59l.08-.12s.08-.1,.12-.16l.02-.05h0l.17-.19c.1-.11,.2-.22,.32-.32l.08-.07c.06-.04,.12-.09,.14-.11l-.26-.33h0l.37,.25,.25-.16,.09,.03,.2-.17c.15-.06,.28-.09,.36-.11,.07,0,.15,0,.25-.04h.3c.2-.04,.35-.03,.62,0h.21c.09,.04,.16,.04,.16,.03,.18,.03,.35,.07,.53,.14l.12,.04s.18,.07,.2,.08c.05,.03,.1,.06,.15,.09,.07,.04,.11,.06,.15,.1l.03,.12h.18l.29,.33s.07,.1,.12,.17c.02,.04,.05,.09,.13,.22,.02,.07,.05,.13,.09,.18h0c.22,.58,.36,1.05,.42,1.49l.12,.85,.03,.14c0,.1,.01,.2,.02,.3,0,.06,.02,.13,.02,.22,.04,.6,.08,1.2,.08,1.77,.03,.87,0,1.77-.05,2.64Z"/><path class="cls-1" d="M129.89,109.23h-.1l-.04-.04s-.04-.06-.08-.09l-.17-.5c-.04-.19-.07-.39-.1-.59-.03-.21-.06-.42-.1-.62l-.36-1.95c-.12-.64-.2-1.28-.32-2.03v-.27c-.03-.06-.04-.13-.04-.19-.01-.1-.02-.19-.04-.24l-.02-.2c-.03-.26-.06-.52-.1-.84-.23-1.28-.64-2.41-1.25-3.37-.07-.1-.14-.21-.21-.31-.02-.02-.03-.05-.05-.07,.31-.14,.57-.28,.77-.42,1.06-.62,1.93-1.55,2.44-2.61,.47-.98,.76-2.11,.85-3.35,.08-1.03,.08-2.12,0-3.14-.1-1.37-.3-2.47-.63-3.47-.46-1.33-1.05-2.33-1.81-3.05-.71-.67-1.63-1.14-2.81-1.44-1.62-.46-3.32-.46-4.97-.46-.35-.08-.72-.04-1.05,.12l-.23,.16c-.38,.24-.61,.68-.61,1.16,0,.35,.13,.67,.36,.91v.16c.04,.11,.04,.19,.04,.38,.03,.31,.02,.63,0,.96,0,.18,0,.36,0,.53l-.12,3.61c-.07,2.34-.06,4.82,.04,8.05,.08,2.48,.2,4.99,.32,7.46,.04,1.26,.08,2.45,.04,3.62-.02,.17-.03,.34-.04,.5,0,.14-.02,.28-.04,.48,0,.1,0,.23-.03,.34l-.05,.24c-.02,.14-.07,.27-.12,.43-.04,.1-.07,.21-.11,.34-.09,.36-.13,.73-.17,1.08-.03,.33,.09,.66,.33,.92,.27,.3,.67,.47,1.06,.47,.82,0,1.44-.58,1.44-1.36,.01-.04,.04-.13,.03-.14,.04-.12,.08-.24,.11-.39,.09-.3,.17-.61,.21-.87,.14-.58,.16-1.15,.19-1.7l.02-.41c.03-.99,0-1.99-.04-2.95l-.03-.94c-.04-.73-.07-1.46-.1-2.17-.02-.62-.05-1.24-.08-1.85l1.32-.18s.06,.01,.09,.02c.09,.02,.13,.03,.19,.05l.36,.11s.08,.03,.11,.04l.02,.22h.22l.02,.24h.2c.05,.1,.1,.19,.15,.29,.06,.11,.12,.21,.2,.37,.06,.09,.09,.14,.11,.22l.1,.29h.02s0,.01,.01,.02c.17,.41,.29,.88,.38,1.48l.03,.11,.4-.08h0l-.4,.22s.03,.18,.04,.26c.02,.21,.05,.41,.08,.62,.03,.2,.06,.4,.08,.61,.04,.37,.11,.73,.17,1.08,.06,.3,.11,.61,.15,.92,.12,.73,.24,1.42,.37,2.11,.03,.15,.05,.29,.07,.44,.05,.31,.09,.62,.18,.94,.19,.67,.52,1.25,.96,1.68,.53,.53,1.26,.81,2.12,.81,.79,0,1.44-.63,1.44-1.4s-.65-1.4-1.44-1.4Zm-3.14-14.54l-.09,.1h-.05l-.12,.12s-.07,.04-.19,.11c-.11,.09-.22,.15-.34,.21-.07,.04-.15,.08-.14,.08-.11,.04-.19,.07-.27,.11l-.34,.03v.12c-.62,.21-1.23,.36-1.9,.52-.2-.02-.42-.04-.65-.04-.21,0-.43,.01-.66,.03,0-.05,0-.1,0-.15,0-.2-.02-.39-.02-.61-.08-1.28-.08-2.61-.08-3.9h0c-.03-.89,.02-1.76,.06-2.61,.02-.44,.04-.87,.06-1.3,.02-.59,.03-1.17,.04-1.76,0-.55,.02-1.11,.04-1.7v-.39c0-.27,.01-.55,0-.83h.12c.32,.02,.65,.02,.94,.04,.12,.01,.25,.02,.44,.03h0l.39,.07c.46,.04,.86,.13,1.27,.27,.13,.03,.23,.06,.45,.16,0,0,.1,.02,.15,.04l.12,.07c.06,.03,.12,.07,.16,.09l.15,.08s.02,.01,.03,.02c.03,.04,.08,.07,.13,.11,.13,.1,.26,.23,.36,.36l.12,.17s.1,.13,.15,.22c.13,.2,.23,.4,.35,.62l.03,.39h.13s.03,.09,.04,.14l.04,.15c.06,.2,.12,.39,.16,.68,.06,.19,.1,.4,.13,.6l.03,.17s.02,.08,.02,.12c0,.06,.02,.12,.03,.17,0,.08,0,.17,.05,.28,.02,.25,.03,.49,.03,.73,0,.28,.02,.55,.04,.8,0,.16,0,.33,0,.5,0,.32,.02,.65,0,1,0,.22,0,.44-.03,.66l-.05,.41c-.01,.05-.03,.13-.03,.15-.07,.37-.18,.77-.29,1.15-.07,.11-.16,.27-.18,.38-.02,.04-.06,.09-.08,.16-.04,.06-.08,.12-.13,.21l-.06,.06-.18,.02v.27c-.05,.06-.12,.11-.18,.17l-.18,.17Z"/><path class="cls-1" d="M15.29,30.69l11.82,13.67,19.16-7.59-2.49-16.99-9.58-13.98-.26-.38-.52,.2c.12-.06-18.64,7.33-18.64,7.33l.5,16.87,.03,.86Zm26.01-10.04l1.75,11.83-7.7-9.5-.84-12.32,6.78,9.98Zm-7.6,4.36l8.61,10.62-14.47,5.69-9.13-10.42,14.99-5.89Zm-1.86-16.02l.93,13.64-14.99,5.89-.41-13.84,14.47-5.69Z"/></g></g></svg>