<?xml version="1.0" encoding="UTF-8"?><svg id="Warstwa_2" xmlns="http://www.w3.org/2000/svg" viewBox="0 0 147.12 129.91"><defs><style>.cls-1{fill:#3c3c3b;}</style></defs><g id="Warstwa_1-2"><g><path class="cls-1" d="M111.94,58.31h-11.07c-.14-.18-.29-.36-.46-.52l-15.66-15.66,5.58-5.8c.64-.67,1.57-.99,2.55-.9,3.34,.32,6.61-.85,8.97-3.21l2.52-2.52h0l13.5-13.5c.54-.54,.54-1.4,0-1.94s-1.41-.54-1.94,0l-12.53,12.53-2.65-2.65,12.53-12.53c.54-.54,.54-1.4,0-1.94,0,0-.01,0-.02-.01,0,0,0-.01-.01-.02-.54-.54-1.4-.54-1.94,0l-12.53,12.53-2.65-2.65,12.53-12.53c.54-.54,.54-1.4,0-1.94,0,0-.01,0-.02-.01,0,0,0-.01-.01-.02-.54-.54-1.4-.54-1.94,0l-12.53,12.53-2.65-2.65,12.53-12.53c.54-.54,.54-1.4,0-1.94-.54-.54-1.41-.54-1.94,0l-13.5,13.5h0l-2.52,2.52c-2.37,2.37-3.54,5.64-3.21,8.98,.1,.98-.23,1.9-.9,2.55l-5.8,5.58L43.98,1.36c-1.88-1.87-4.99-1.8-6.95,.15-1.23,1.23-1.76,3.01-1.4,4.65,2.34,10.67,7.59,20.33,15.19,27.93l5.82,5.82c.98,.98,2.6,.96,3.61-.05l2.37-2.41,4.68,4.68-15.03,14.33c-.57,.55-1.03,1.17-1.38,1.85h-15.69C15.78,58.31,0,74.37,0,94.11s15.78,35.8,35.19,35.8H111.94c19.4,0,35.19-16.06,35.19-35.8s-15.78-35.8-35.19-35.8Zm-28.09-28.39c1.28-1.23,1.91-2.97,1.73-4.79-.24-2.52,.64-4.98,2.42-6.77l1.55-1.55,3.66,3.66h0l4.59,4.59h0l3.66,3.66-1.55,1.55c-1.78,1.78-4.25,2.67-6.77,2.42-1.82-.18-3.56,.45-4.79,1.73l-5.54,5.77-4.73-4.73,5.77-5.54Zm-21.19,4.81c-.72,0-1.45,.28-2,.84l-2.24,2.24-5.65-5.65c-7.23-7.23-12.22-16.42-14.45-26.58-.16-.74,.09-1.55,.66-2.12,.89-.89,2.26-.95,3.07-.15l33.09,33.09h0l6.74,6.74h0l16.59,16.59c.58,.58,.89,1.38,.86,2.24-.03,.89-.4,1.75-1.06,2.41-.66,.66-1.51,1.04-2.41,1.06-.87,.02-1.66-.28-2.24-.86l-29.07-29.07c-.52-.52-1.2-.78-1.9-.78Zm20.82,23.58h-14.27l6.99-7.28,7.28,7.28Zm-29.31,.13l15.07-14.38,5.02,5.02-14.43,15.01c-.82,.85-1.9,1.33-3.05,1.34-1.08-.01-2.07-.39-2.81-1.13-.74-.74-1.14-1.74-1.13-2.82,.01-1.15,.49-2.24,1.33-3.05Zm57.78,68.97H35.19c-18.02,0-32.69-14.94-32.69-33.3s14.66-33.3,32.69-33.3h14.93c-.02,.22-.04,.43-.04,.65-.01,1.46,.43,2.83,1.26,3.98h-17.93c-.76,0-1.37,.61-1.37,1.37s.61,1.37,1.37,1.37h36.12c.76,0,1.37-.61,1.37-1.37s-.61-1.37-1.37-1.37h-7.18l4.45-4.63h19.18l4.63,4.63h-7.84c-.76,0-1.37,.61-1.37,1.37s.61,1.37,1.37,1.37h36.12c.76,0,1.37-.61,1.37-1.37s-.61-1.37-1.37-1.37h-17.95c.7-1,1.1-2.17,1.13-3.39,.01-.42-.02-.84-.09-1.24h9.96c18.02,0,32.69,14.94,32.69,33.3s-14.66,33.3-32.69,33.3Z"/><path class="cls-1" d="M28.2,84.01c.11,.04,.23,.11,.34,.19l.13,.1h.02s.09,.08,.15,.12c.07,.07,.13,.14,.2,.22l.15,.21s.03,.05,.04,.08c.02,.05,.04,.09,.07,.12,.01,.06,.02,.11,.03,.13,.08,.33,.29,.62,.59,.8,.3,.18,.67,.22,.97,.13,.31-.07,.58-.26,.75-.54,.19-.3,.25-.67,.16-1.04-.26-.95-.9-1.81-1.87-2.49-.78-.53-1.75-.82-2.72-.82s-1.85,.34-2.58,.99c-.59,.53-1.08,1.28-1.44,2.2-.27,.66-.44,1.42-.52,2.39-.07,.84-.03,1.69,.1,2.51,.1,.8,.32,1.59,.62,2.29,.33,.73,.79,1.41,1.36,2.02,.47,.53,1.01,.99,1.52,1.43,.63,.54,1.23,1.04,1.72,1.7l.06,.09s.07,.09,.12,.15c.04,.06,.07,.11,.11,.17,.06,.09,.12,.17,.17,.28,.06,.12,.15,.3,.21,.44l.07,.14c.03,.11,.06,.23,.11,.3,.15,.5,.25,.92,.3,1.27,0,.06,.01,.13,.03,.19v.29c.03,.23,.03,.44,.03,.64,0,.04,0,.13,0,.16l-.03,.08v.21c-.02,.19-.08,.39-.16,.64-.02,.16-.07,.31-.16,.51-.02,.04-.06,.1-.08,.18-.05,.09-.1,.19-.15,.28-.03,.05-.07,.11-.1,.16-.07,.1-.14,.21-.2,.32-.03,.03-.06,.07-.1,.13l-.14,.18c-.08,.1-.18,.21-.27,.3-.03,.03-.06,.06-.07,.07l-.22,.18c-.07,.05-.15,.1-.22,.14l-.09,.05s-.02,.01-.03,.02l-.2,.05c-.07,.03-.2,.06-.32,.08-.07,0-.15,.01-.29,.03-.17,0-.33,0-.58-.03l-.26-.07-.13-.04-.41-.31s-.04-.05-.06-.08c-.01-.03-.02-.06-.04-.09l-.02-.4h-.11c-.03-.13-.06-.25-.08-.33,0-.06-.01-.14-.04-.28-.03-.27-.03-.54-.03-.84,0-.69-.58-1.27-1.27-1.27s-1.3,.57-1.3,1.27c0,.86,.09,1.6,.27,2.27,.23,.87,.71,1.57,1.45,2.08,.62,.43,1.49,.67,2.41,.67,.07,0,.14,0,.21,0,.87,0,1.74-.26,2.46-.73,.81-.54,1.37-1.3,1.77-1.9,.57-.83,.93-1.83,1.08-3.04,.13-.93,.06-1.97-.2-3.01-.22-.97-.57-1.85-1.07-2.61-.65-.93-1.47-1.67-2.26-2.4-.35-.32-.7-.64-1.06-.99-.31-.27-.52-.5-.75-.78l-.09-.09c-.05-.08-.09-.14-.12-.17-.05-.08-.1-.16-.16-.24-.05-.07-.1-.14-.12-.17l-.16-.31-.02-.12-.07-.06c-.03-.07-.05-.12-.05-.12l-.05-.17c-.08-.27-.15-.53-.21-.85-.02-.1-.05-.2-.05-.26,0-.03,0-.11-.03-.22l-.03-.16s0-.1,0-.21c-.03-.34-.03-.71-.03-1.08,0-.07,0-.14,.01-.21,0-.07,.01-.14,.02-.2,.04-.12,.03-.19,.03-.18,0,0,.04-.25,.03-.25,.06-.34,.12-.66,.24-.96,.02-.06,.03-.12,.06-.22,.03-.06,.06-.13,.07-.19,.05-.09,.09-.18,.16-.29,.05-.1,.13-.2,.21-.31l.1-.13h0s.05-.09,.06-.1l.28-.26s.09-.05,.15-.09c.06-.02,.11-.05,.16-.08,.06-.01,.1-.02,.14-.02l.48-.03s.03,0,.03,0l.33,.06,.12-.47h0v.51l.29,.12Z"/><path class="cls-1" d="M43.31,88.03l-.02-1.05c-.02-1.44-.04-2.93-.15-4.4-.05-.7-.61-1.23-1.3-1.23-.34,0-.7,.16-.95,.43-.23,.25-.35,.56-.32,.88,.13,1.72,.15,3.49,.18,5.2v1.05c.01,1.06,.05,2.14,.11,3.21,.02,.33,.05,.65,.07,.98,.05,.67,.1,1.34,.12,2.01,0,.99,0,2-.06,3-.02,.42-.05,.85-.08,1.27-.03,.44-.07,.88-.08,1.32l-.09,1.66c-.04,.12-.03,.21-.02,.23l-.05,.11v.12s0,.08-.03,.17l-.03,.12c-.02,.2-.07,.38-.16,.57l-.12,.25s-.06,.09-.08,.13l-.15,.15h0s-.04,.03-.06,.04h-.12l-.07,.07s-.05,.01-.08,.02c-.05,0-.08,.02-.1,.03h-.17c-.34,.03-.67,.03-1.01,.03-.07-.01-.14-.03-.21-.02-.18-.03-.3-.06-.5-.13-.04,0-.08-.02-.13-.03l-.02-.14h-.35c-.05-.03-.11-.05-.15-.07-.05-.02-.1-.06-.15-.09l-.03-.26h-.3c-.04-.06-.06-.09-.07-.08l-.1-.13s-.02-.06-.04-.09l-.12-.24c-.1-.21-.14-.46-.18-.73l-.03-.19c0-.11-.03-.2-.03-.16,0-.09-.01-.18-.02-.27v-.15c-.04-.24-.04-.47-.04-.72-.02-.65-.01-1.29,0-1.94,0-.33,0-.66,0-1,0-.52-.02-1.04-.03-1.56-.02-.51-.03-1.02-.03-1.54-.03-1.08,0-2.14,.03-3.19,0-.26,0-.51,0-.76,0-.51,.01-1.02,0-1.54-.02-.46-.08-.93-.13-1.4-.03-.29-.07-.58-.1-.88-.1-.94-.04-1.9,0-2.84,.03-.57,.06-1.14,.06-1.7,0-.72-.57-1.3-1.27-1.3s-1.3,.57-1.3,1.3c0,.61-.03,1.23-.07,1.85-.02,.42-.05,.83-.06,1.26,0,.52,0,1.06,.07,1.57,.03,.48,.09,.94,.15,1.42v.1c.09,.82,.08,1.62,.08,2.46v.62c-.03,1.05-.07,2.13-.03,3.22,0,.52,.02,1.04,.03,1.56,.02,.51,.03,1.02,.03,1.52,0,.32,0,.64,0,.96,0,.66-.01,1.34,0,2.05,.03,.53,.06,1.07,.17,1.68,.06,.39,.14,.83,.32,1.26,.37,.84,.95,1.52,1.74,2.02,.78,.48,1.63,.65,2.38,.78,.3,.04,.6,.06,.91,.06,.51,0,1.01-.05,1.48-.16,.78-.18,1.47-.65,2-1.39,.35-.52,.6-1.18,.72-1.97,.1-.66,.16-1.32,.2-2.03,0-.64,.06-1.3,.12-1.94v-.04c.16-1.94,.17-3.98,.04-6.07-.15-2.1-.22-3.78-.22-5.3Z"/><path class="cls-1" d="M54.37,84.48c-.57-1.37-1.97-2.45-3.73-2.89-1.31-.34-2.66-.34-3.98-.34h-.41c-.08,0-.17,0-.29,.06-.17,.05-.33,.14-.46,.26l-.19,.2c-.17,.22-.26,.49-.26,.75l.03,.27,.03,.11s.04,.11,.04,.13v.21l.04,.04c.01,.09,.02,.19,.03,.28,0,.13,.02,.25,.03,.28,0,.45-.03,.88-.06,1.41,0,.22,0,.44-.02,.66,0,.23-.02,.46-.02,.69,0,.52,.03,1.05,.07,1.58,.09,1.22,.02,2.47-.06,3.68-.05,.83-.1,1.68-.1,2.53,0,1.07,.04,2.15,.08,3.23,.03,.8,.06,1.6,.08,2.4,.02,.72-.03,1.45-.09,2.15l-.04,.51c-.1,.96-.16,1.86-.19,2.78,0,.7,.58,1.27,1.3,1.27s1.27-.56,1.27-1.25c.03-1.01,.14-2.1,.22-2.99,.1-1.09,.13-2.12,.1-3.17-.01-.57-.04-1.14-.06-1.71-.03-.66-.06-1.31-.06-1.97,.67-.05,1.32-.2,1.96-.33l.31-.07c.41-.07,.82-.17,1.21-.3,.59-.17,1.02-.36,1.33-.59,.45-.26,.85-.59,1.14-.97,.29-.38,.51-.81,.71-1.37,.25-.65,.43-1.41,.54-2.26h0c.29-2.12,.13-3.84-.48-5.26Zm-2.24,1.34c.11,.27,.17,.59,.22,.87,0,.08,.02,.14,.03,.19v.27c.03,.17,.03,.33,.03,.53v.04c.03,.35,0,.77-.03,1.15,0,.05,0,.11,0,.13l-.04,.19c-.01,.08-.02,.17-.02,.19,0,.13-.03,.29-.06,.42-.07,.36-.16,.71-.29,1.08-.01,.06-.03,.13-.05,.19-.02,.07-.04,.13-.06,.2l-.33,.55s-.05,.07-.08,.1l-.53,.34c-.05,.02-.1,.05-.14,.07l-.32,.12h0c-.38,.12-.79,.19-1.19,.27l-1.5,.28-.05-.02-.06,.03h0c.02-.49,.04-.97,.07-1.45,.02-.46,.05-.92,.06-1.35,.03-.46,.03-.95,.03-1.45l-.1-1.42c-.05-.64-.02-1.32,.01-1.98l.02-.48c.02-.35,.03-.71,.02-1.07,.17,0,.33,.01,.5,.03,.08,0,.16,0,.23,.02,.1,0,.19,.02,.29,.02,.08,.01,.16,.03,.23,.03,.08,.02,.17,.02,.18,.03,.22,.02,.45,.07,.69,.12l.11,.02c.08,.03,.16,.06,.25,.09,.06,.02,.11,.03,.17,.06l.17,.05h.02l.09,.07c.07,.04,.15,.07,.23,.11l.14,.06s.07,.05,.1,.07l.24,.18s.07,.07,.11,.11l.26,.29c.08,.11,.16,.24,.21,.34l.11,.31Zm-.37,5.69h0Zm-5.53-9.76h0Z"/><path class="cls-1" d="M65.23,104.02c-1,0-1.99,.04-2.98,.08-.96,.04-1.95,.08-2.94,.08h-.01c-.03-.61-.06-1.2-.11-1.79-.03-.37-.07-.73-.12-1.09-.08-.69-.15-1.33-.17-2-.05-.78-.04-1.58-.04-2.35v-.8c0-.33,.01-.67,.02-1.01,0-.18,0-.36,.01-.53,.23,0,.46,0,.7,.02,1.23,.03,2.49,.06,3.73-.19,.33-.05,.62-.25,.81-.56,.2-.32,.25-.72,.15-1-.07-.32-.26-.59-.53-.76-.28-.18-.64-.24-.99-.18-.06,0-.12,.02-.19,.03h-.21l-.05,.05c-.15,.02-.28,.02-.46,.02-.36,.03-.72,.03-1.07,.03-.38,0-.79,0-1.18-.02-.22,0-.43,0-.65-.01,.03-.76,.05-1.5,.05-2.26,0-.33,0-.67,0-1,0-.66-.01-1.31,0-1.98,0-.23,.03-.46,.06-.68,.02-.18,.05-.35,.06-.51,.06-.56,.13-1.15,.13-1.75,.48-.01,.97-.04,1.45-.06,1.43-.07,2.92-.14,4.39,.04,.31,.02,.62-.09,.86-.32,.28-.26,.45-.62,.45-.98,0-.68-.52-1.21-1.21-1.27-1.56-.19-3.13-.11-4.65-.04-.89,.04-1.82,.08-2.72,.07-.11,0-.29,0-.49,.1-.23,.07-.57,.19-.79,.59-.24,.48-.18,1.04,.11,1.42v.04c.03,.07,.03,.16,.03,.26,0,.54-.06,1.08-.13,1.7-.02,.22-.04,.43-.06,.64-.02,.22-.05,.45-.07,.67-.02,.3-.02,.59,0,.89,0,.13,0,.27,0,.4v1.57c0,1.29-.03,2.57-.07,3.85-.02,.84-.05,1.69-.06,2.53,0,.35,0,.7,0,1.05,0,.71-.01,1.42,0,2.14,.02,.71,.1,1.44,.18,2.14,.04,.33,.08,.67,.11,1.01,.11,.9,.16,1.88,.16,3.18,0,.71,.56,1.27,1.27,1.27,.09,0,.16-.01,.24-.03,1.34,.04,2.7-.01,4.01-.06,.99-.04,1.98-.07,2.96-.07,.71,0,1.3-.6,1.3-1.3s-.58-1.27-1.3-1.27Z"/><path class="cls-1" d="M76.68,104.41l-.15-.37c-.03-.15-.05-.3-.07-.45-.03-.17-.05-.34-.08-.51l-.29-1.54c-.09-.5-.16-1-.22-1.54l-.04-.29s-.02-.09-.02-.13c-.01-.08-.02-.17-.03-.2-.03-.25-.06-.5-.1-.82-.18-1.04-.52-1.95-1.02-2.74-.03-.05-.07-.09-.1-.14,.18-.09,.33-.17,.46-.26,.87-.51,1.58-1.27,1.99-2.14,.38-.8,.61-1.71,.69-2.71,.06-.82,.06-1.69,0-2.51-.08-1.1-.24-1.99-.51-2.79-.37-1.08-.86-1.89-1.48-2.48-.59-.55-1.34-.94-2.29-1.18-1.3-.37-2.65-.37-3.96-.37-.31-.07-.64-.03-.93,.12l-.28,.17v.02c-.3,.23-.48,.59-.48,1,0,.29,.1,.57,.29,.79l.02,.1c.02,.07,.02,.11,.02,.27,.02,.24,.01,.49,0,.75,0,.14,0,.29,0,.42l-.1,2.86c-.06,1.84-.05,3.81,.03,6.38,.06,1.96,.16,3.95,.26,5.99,.03,.97,.06,1.88,.03,2.75-.02,.14-.02,.26-.03,.39,0,.11-.01,.23-.03,.41,0,.08,0,.16-.01,.29l-.05,.15c-.02,.11-.05,.21-.09,.31-.03,.09-.06,.17-.09,.28-.07,.28-.11,.56-.14,.89-.02,.31,.08,.61,.31,.85,.25,.27,.61,.43,.96,.43,.74,0,1.3-.53,1.29-1.19l.04-.16c.03-.08,.05-.17,.08-.26,.07-.25,.14-.49,.17-.7,.11-.48,.13-.93,.16-1.37l.02-.33c.03-.8,0-1.59-.04-2.35l-.03-.74c-.03-.58-.05-1.15-.08-1.72-.02-.44-.04-.88-.06-1.32l.87-.12h.04c.07,.02,.09,.02,.11,.04l.29,.09v.22h.19v.19h.24s.05,.09,.08,.14l.17,.31c.04,.06,.05,.09,.07,.14l.11,.34h.03c.11,.29,.2,.64,.28,1.13v.12s.03,.13,.04,.19c.02,.17,.04,.34,.07,.51,.02,.15,.05,.3,.06,.47,.04,.3,.09,.58,.14,.86,.04,.24,.09,.48,.12,.73,.08,.5,.17,.98,.25,1.45l.04,.23c.02,.11,.04,.23,.06,.34,.04,.25,.08,.51,.15,.77,.16,.55,.44,1.04,.8,1.4,.45,.45,1.07,.69,1.8,.69s1.3-.57,1.3-1.27-.58-1.27-1.3-1.27Zm-2.36-11.69s-.06,.05-.09,.08l-.5,.4c-.08,.06-.16,.11-.24,.15-.04,.02-.09,.05-.14,.07-.05,.02-.1,.04-.14,.06l-.4,.02v.14c-.44,.15-.89,.25-1.36,.37-.16-.02-.32-.03-.5-.03-.12,0-.24,0-.37,.01,0-.14-.01-.28-.01-.44-.06-1.01-.06-2.06-.06-3.08v-.02c-.02-.69,.01-1.38,.05-2.06,.02-.34,.04-.68,.05-1.02,.02-.46,.02-.91,.03-1.37,0-.45,.02-.9,.03-1.37v-.3c0-.16,0-.32,0-.49,.22,.01,.45,0,.65,.03,.07,0,.13,.01,.2,.02l.45,.06c.36,.03,.65,.1,.98,.21,.1,.03,.17,.05,.25,.09l.1,.04s.06,.01,.17,.07c.05,.03,.1,.06,.15,.08l.21,.14c.07,.06,.15,.13,.22,.21l.15,.2s.06,.07,.1,.15c.1,.14,.17,.29,.24,.43l.02,.43h.15l.03,.12c.04,.15,.09,.29,.13,.53,.05,.14,.07,.31,.11,.54l.03,.14s.02,.09,.03,.13c0,.06,.01,.14,.04,.23,.01,.19,.02,.37,.03,.55,0,.22,.02,.44,.03,.62,0,.13,0,.27,0,.4,0,.25,.01,.5,0,.78,0,.17,0,.33-.01,.54l-.08,.38c-.06,.28-.14,.59-.22,.88-.05,.08-.1,.18-.12,.28h0s-.04,.07-.07,.12c-.03,.05-.06,.09-.08,.13h-.24v.32Z"/><path class="cls-1" d="M88.15,81.48c-1.56-.19-3.13-.11-4.65-.04-.89,.04-1.82,.08-2.72,.07-.11,0-.29,0-.49,.1-.23,.07-.57,.19-.79,.59-.24,.48-.18,1.04,.11,1.42v.04c.03,.07,.03,.16,.03,.26,0,.54-.06,1.08-.13,1.7-.02,.22-.04,.43-.06,.64-.02,.22-.05,.45-.07,.67-.02,.3-.02,.59,0,.89,0,.13,0,.27,0,.4v1.57c0,1.29-.03,2.57-.07,3.85-.02,.84-.05,1.69-.06,2.53,0,.35,0,.7,0,1.05,0,.71-.01,1.42,0,2.14,.02,.71,.1,1.44,.18,2.14,.04,.33,.08,.67,.11,1.01,.11,.9,.16,1.88,.16,3.18,0,.69,.58,1.27,1.27,1.27s1.3-.57,1.3-1.27c0-1.17-.04-2.18-.13-3.09-.03-.37-.07-.73-.12-1.09-.08-.69-.15-1.33-.17-2-.05-.78-.04-1.58-.04-2.35v-.8c0-.33,.01-.67,.02-1.01,0-.18,0-.36,.01-.53,.23,0,.46,0,.7,.02,1.22,.03,2.49,.06,3.73-.19,.33-.05,.62-.25,.81-.56,.2-.32,.25-.72,.15-1-.07-.32-.26-.59-.53-.76-.28-.18-.64-.24-.99-.18-.06,0-.12,.02-.19,.03h-.21l-.05,.05c-.15,.02-.28,.02-.46,.02-.36,.03-.72,.03-1.07,.03-.39,0-.79,0-1.19-.02-.22,0-.43,0-.65-.01,.03-.76,.05-1.5,.05-2.26,0-.33,0-.67,0-1,0-.66-.01-1.31,0-1.98,0-.23,.03-.46,.06-.68,.02-.18,.05-.35,.06-.51,.06-.54,.13-1.15,.13-1.75,.48-.01,.97-.04,1.45-.06,1.43-.07,2.92-.14,4.39,.04,.31,.02,.62-.09,.86-.32,.28-.26,.45-.62,.45-.98,0-.68-.52-1.21-1.21-1.27Z"/><path class="cls-1" d="M101.04,91.09c0-.5,.02-.99,.03-1.48,.02-.49,.03-.99,.03-1.47,0-1.12-.08-2.13-.23-3.09-.16-1.02-.53-1.85-1.07-2.45-.73-.89-1.86-1.08-2.76-1.14-.54-.04-1.05,.01-1.45,.14-.67,.13-1.15,.52-1.44,.78-.72,.61-1.14,1.48-1.51,2.26-.45,.97-.8,1.78-1.08,2.63-.22,.71-.35,1.43-.48,2.12-.05,.25-.09,.5-.14,.76-.2,1.01-.4,2.06-.24,3.27,.02,.12,.05,.24,.07,.34-.03,1.25-.06,2.54,.03,3.83,.05,.84,.19,1.69,.32,2.51l.1,.63c.17,.9,.37,1.85,.86,2.72,.41,.71,.91,1.41,1.44,2.01,.64,.72,1.36,1.18,2.13,1.34,.24,.05,.48,.08,.72,.08,.44,0,.89-.09,1.35-.27,.54-.24,1-.64,1.41-1.21,.73-.95,1.1-2.17,1.34-3.13,.25-.99,.42-2.04,.53-3.22h0c.12-1.53,.17-3.11,.13-4.84l-.1-3.1Zm-6.87,10.74c-.11-.26-.17-.53-.23-.84l-.06-.25c-.05-.27-.11-.55-.17-.82-.09-.44-.19-.89-.24-1.27v-.16l-.04-.23s-.02-.09-.03-.13c0-.1,0-.19-.02-.29,0-.09-.01-.18-.02-.32-.03-.37-.06-.77-.06-1.18,0-.84,0-1.68,.03-2.52,.03-.13,.03-.26,0-.39,.03-.72,.06-1.44,.06-2.16,0-.06,0-.13-.03-.26,.06-.28,.11-.57,.16-.85,.12-.63,.23-1.22,.39-1.8l.16-.59c.07-.14,.11-.25,.14-.36l.1-.25v-.1h.03c.13-.31,.28-.66,.45-1.01,.15-.37,.34-.7,.53-1.06,.07-.13,.13-.24,.18-.32l.26-.02v-.3s.06-.07,.09-.11c.04-.03,.07-.06,.11-.09h.01s.09-.05,.13-.07c0,0,.02,0,.02,0h.11l.13-.06c.08,0,.15,0,.22-.01,.11-.02,.22,0,.32,0,.05,0,.11,0,.16,0l.2,.04s.09,.02,.14,.02c.03,0,.07,.02,.1,.02l.07,.08h.1s.04,.02,.06,.03c.02,.02,.04,.03,.05,.04l.11,.11s.04,.06,.06,.09c.03,.06,.06,.13,.11,.19,.02,.05,.04,.11,.07,.16,.03,.09,.05,.18,.07,.25l.04,.15c.04,.11,.06,.23,.09,.33,0,.08,.01,.15,.03,.32l-.02,.05,.06,.22c.12,.73,.11,1.46,.1,2.23v.74c-.04,.98-.07,1.92-.04,2.93,.03,1.02,.06,2.07,.06,3.1h0c.03,1.49-.08,2.95-.19,4.23h0l-.16,1.22c-.05,.46-.19,.91-.33,1.39l-.04,.15c-.06,.23-.14,.46-.23,.66l-.09,.26s-.04,.08-.06,.12l-.08,.16c-.06,.13-.12,.26-.2,.37h-.26v.33l-.29,.23h0l-.06,.03s-.04,.02-.06,.03h-.18l-.02-.1h-.35l-.04-.02s-.04-.02-.04-.02h0c-.24-.21-.47-.47-.74-.8l-.22-.32c-.11-.14-.2-.28-.31-.47-.08-.1-.16-.21-.24-.36l-.21-.4Z"/><path class="cls-1" d="M112.84,91.09c0-.5,.02-.99,.03-1.48,.02-.49,.03-.99,.03-1.47,0-1.12-.08-2.13-.23-3.09-.16-1.02-.53-1.85-1.07-2.45-.73-.89-1.86-1.08-2.76-1.14-.54-.04-1.05,.01-1.45,.14-.67,.13-1.15,.52-1.44,.78-.72,.61-1.14,1.48-1.51,2.26-.45,.97-.8,1.78-1.08,2.63-.22,.71-.35,1.43-.48,2.12-.05,.25-.09,.5-.14,.76-.2,1.01-.4,2.06-.24,3.27,.02,.12,.05,.24,.07,.34-.03,1.25-.06,2.54,.03,3.83,.05,.84,.19,1.69,.32,2.51l.1,.63c.17,.9,.37,1.85,.86,2.72,.41,.71,.9,1.41,1.44,2.01,.64,.72,1.36,1.18,2.13,1.34,.24,.05,.48,.08,.72,.08,.44,0,.89-.09,1.35-.27,.54-.24,1-.64,1.41-1.21,.73-.95,1.1-2.17,1.34-3.13,.25-.99,.42-2.04,.53-3.22h0c.12-1.53,.17-3.11,.13-4.84l-.1-3.1Zm-6.87,10.74c-.11-.26-.17-.53-.23-.84l-.06-.25c-.05-.27-.11-.55-.17-.82-.09-.44-.19-.89-.24-1.27v-.16l-.04-.23s-.02-.09-.03-.13c0-.1,0-.19-.02-.29,0-.09-.01-.18-.02-.32-.03-.37-.06-.77-.06-1.18,0-.84,0-1.68,.03-2.52,.03-.13,.04-.26,0-.39,.03-.72,.06-1.44,.06-2.16,0-.06,0-.12-.03-.26,.06-.28,.11-.56,.16-.84,.12-.63,.23-1.23,.39-1.81l.16-.59c.07-.14,.11-.25,.14-.36l.1-.25v-.1h.03c.13-.31,.28-.66,.45-1.02,.15-.37,.34-.7,.53-1.06,.07-.13,.13-.24,.18-.32l.26-.02v-.3s.06-.07,.09-.11c.04-.03,.07-.06,.11-.09h.01s.09-.05,.13-.07c0,0,.02,0,.02,0h.11l.13-.06c.08,0,.15,0,.22-.01,.11-.02,.22,0,.32,0,.05,0,.11,0,.16,0l.2,.04s.09,.02,.14,.02c.03,0,.07,.02,.1,.02l.07,.08h.1s.04,.02,.06,.03c.02,.02,.04,.03,.05,.04l.11,.11s.04,.06,.06,.09c.03,.06,.06,.13,.11,.19,.02,.05,.04,.11,.07,.16,.03,.09,.05,.18,.07,.25l.04,.15c.04,.11,.06,.23,.09,.33,0,.08,.01,.15,.03,.32l-.02,.05,.06,.22c.12,.73,.11,1.46,.1,2.24v.7c-.04,1-.07,1.94-.04,2.97,.03,1.02,.06,2.07,.06,3.1h0c.03,1.49-.08,2.95-.19,4.23h0l-.16,1.22c-.05,.46-.19,.91-.33,1.39l-.04,.15c-.06,.23-.14,.46-.23,.66l-.09,.27s-.03,.07-.05,.11l-.08,.16c-.06,.13-.12,.26-.2,.37h-.26v.33l-.29,.23h0l-.06,.03s-.04,.02-.06,.03h-.18l-.02-.1h-.35l-.04-.02s-.04-.02-.04-.02h0c-.24-.21-.47-.47-.74-.8l-.22-.32c-.11-.14-.2-.28-.31-.47-.08-.1-.16-.21-.24-.36l-.21-.4Z"/><path class="cls-1" d="M124.82,88.92c-.16-.68-.36-1.38-.59-2.06-.47-1.41-1.2-3.17-2.71-4.35-.44-.33-.95-.54-1.43-.71-.58-.23-1.14-.4-1.78-.54-.57-.12-1.26-.24-1.97-.2-.65,.05-1.19,.26-1.51,.56-.4,.25-.72,.78-.58,1.33,.01,.15,.06,.31,.13,.45l.07,.4c.02,.07,.02,.16,.02,.3,.02,.29,.01,.58,0,.88,0,.16,0,.31,0,.45-.03,1.03-.03,2.06-.03,3.09-.02,1.26,0,2.52,.01,3.79,.01,.84,.02,1.67,.02,2.51,.01,1.58,0,3.16,0,4.74-.01,1.95-.03,3.96,0,5.94,0,.53,.35,.99,.84,1.15,.23,.21,.54,.34,.86,.34h0c1.45-.06,3.15-.21,4.73-.84,.69-.3,1.35-.75,1.94-1.35,.74-.71,1.16-1.59,1.47-2.36,.63-1.56,1.01-3.31,1.16-5.34,.16-1.86,.11-3.7-.17-5.66-.13-.83-.26-1.68-.49-2.52Zm-1.95,8.49s0,.13,0,.16l-.05,.36c-.08,.73-.25,1.54-.49,2.41l-.38,1.19c-.04,.08-.09,.17-.13,.26l-.07,.14c-.04,.12-.09,.22-.15,.33l-.53,.71s-.07,.07-.11,.1l-.15,.15-.28,.14v.07c-.16,.11-.31,.21-.49,.3-.05,.01-.12,.03-.19,.07l-.08,.04s-.09,.03-.14,.05c-.05,.02-.11,.05-.22,.08-.23,.09-.5,.15-.76,.2-.14,.03-.25,.06-.39,.09-.07,0-.13,.02-.15,.03h-.2c-.29,.04-.59,.07-.88,.09-.03-2.11-.02-4.22-.02-6.34,0-1.73,0-3.45,0-5.18,0-.59,0-1.18,0-1.77,0-1.18-.01-2.37,0-3.53,.02-.44,.02-.88,.02-1.31s0-.84,.02-1.27v-.3c0-.32,0-.65-.02-.98l.17,.02c.3,.03,.57,.09,.81,.14,.43,.12,.83,.25,1.23,.39v.17h.41l.08,.03c.08,.05,.18,.11,.2,.09,.03,.02,.05,.05,.08,.08l.34,.3c.08,.06,.16,.13,.25,.24l.22,.35c.21,.31,.37,.62,.54,1,.02,.06,.04,.11,.07,.15h0c.01,.06,.03,.1,.05,.13l.18,.52c.12,.33,.24,.66,.33,.98l.1,.39c.16,.59,.31,1.17,.44,1.78,.09,.41,.16,.81,.22,1.22l.03,.15c0,.06,.02,.11,.03,.16l.1,.83c.1,.71,.1,1.44,.09,2.15v.44c0,.42-.03,.85-.07,1.35,0,.2-.03,.39-.06,.64Z"/><path class="cls-1" d="M48.13,14.28c-.54-.54-1.4-.54-1.94,0-.54,.54-.54,1.41,0,1.94l13.32,13.32c.27,.27,.62,.4,.97,.4s.7-.13,.97-.4c.54-.54,.54-1.41,0-1.94l-13.32-13.32Z"/></g></g></svg>