<?xml version="1.0" encoding="UTF-8"?><svg id="Layer_2" xmlns="http://www.w3.org/2000/svg" viewBox="0 0 147.13 132.24"><defs><style>.cls-1{fill:#3c3c3b;}</style></defs><g id="Warstwa_2"><g id="Warstwa_1-2"><g><path class="cls-1" d="M57.06,80.95h-.01c-.4,0-.79,.17-1.07,.47-.27,.29-.4,.66-.38,1.01,0,.25,0,.5-.04,.83,0,.08,0,.15-.01,.2l-.37,1.94-.12,.54c-.09,.38-.18,.77-.23,1.11-.08,.36-.12,.68-.17,1.03-.03,.11-.04,.21-.04,.28l-.03,.21s0,.09-.04,.2c-.1,.62-.22,1.23-.35,1.84-.13,.63-.26,1.26-.36,1.91-.13,1.04-.37,2.07-.61,3.06l-.13,.53c-.6,2.4-1.24,4.94-1.96,7.42-.21,.75-.44,1.5-.68,2.25-.23-.74-.47-1.5-.68-2.26-.72-2.47-1.36-5.02-1.96-7.4l-.13-.54c-.24-1-.48-2.02-.61-3.08-.1-.64-.23-1.26-.36-1.89-.13-.61-.25-1.22-.37-1.93,0-.04,0-.08-.02-.12,0-.07-.02-.14-.03-.21,0-.08,0-.17-.04-.28v-.03c-.04-.32-.09-.64-.16-.96-.05-.38-.14-.76-.23-1.13-.04-.18-.09-.37-.13-.55l-.34-1.6v-.18l-.03-.16s-.01-.12-.02-.27c-.04-.25-.03-.5-.04-.72,.03-.39-.11-.76-.37-1.05-.28-.3-.67-.47-1.07-.47-.8,0-1.42,.61-1.48,1.47-.04,1.1,.19,2.2,.42,3.26l.07,.32c.04,.19,.09,.38,.13,.57,.08,.35,.17,.7,.24,1.13,.07,.2,.09,.34,.09,.51v.14l.04,.11c0,.06,.02,.13,.04,.2l.03,.29c.03,.14,.05,.24,.06,.45,.08,.42,.16,.85,.25,1.27,.16,.83,.33,1.66,.46,2.49,.18,1.17,.45,2.44,.8,3.78,.6,2.35,1.24,4.86,1.97,7.36,.36,1.29,.78,2.58,1.14,3.7,.04,.14,.09,.3,.14,.45,.04,.12,.08,.24,.11,.35,0,.07,.01,.16,.04,.26,0,.25,.05,.48,.08,.63,.05,.36,.18,.74,.34,1.01,.03,.1,.07,.21,.14,.33l.06,.14s.02,.07,.04,.11c.15,.58,.76,1.01,1.42,1.01h.13c.58-.06,1.07-.45,1.22-.94,.03-.07,.05-.12,.08-.2l.03-.09c.07-.13,.11-.24,.11-.28,.2-.35,.33-.73,.37-1.05,.04-.18,.08-.42,.09-.67,.03-.1,.04-.19,.04-.26,.03-.11,.07-.23,.11-.35,.05-.15,.1-.31,.14-.44,.39-1.2,.79-2.44,1.15-3.71,.73-2.51,1.37-5.02,1.97-7.36,.35-1.34,.61-2.61,.8-3.78,.13-.84,.3-1.67,.46-2.51,.08-.42,.17-.83,.25-1.34,0-.12,.02-.22,.05-.37l.03-.35s.02-.14,.02-.15l.05-.11v-.12c0-.17,.03-.31,.11-.6,.05-.35,.14-.71,.22-1.06,.04-.19,.09-.37,.13-.56l.07-.32c.22-1.06,.45-2.16,.41-3.27-.06-.84-.68-1.45-1.48-1.45Zm-6.08,29.84v.09l-.05,.1c-.02,.06-.05,.11-.08,.15,.02-.03,.04-.07,.05-.11l.04-.1v-.09l.1-.17-.06,.13Z"/><path class="cls-1" d="M72.71,110.25c0,.8-.68,1.48-1.48,1.48-1.21,0-2.43,.05-3.64,.09-1.61,.06-3.28,.11-4.91,.07-.12,.03-.2,.04-.3,.04-.81,0-1.44-.63-1.44-1.44,0-1.61-.06-2.81-.19-3.91-.04-.42-.08-.83-.13-1.24-.09-.86-.19-1.75-.22-2.62-.02-.88,0-1.75,0-2.62v-1.29c0-1.04,.04-2.07,.07-3.11,.04-1.56,.08-3.13,.08-4.71v-2.43c-.02-.36-.03-.71,0-1.07,.02-.28,.05-.55,.08-.82,.03-.26,.06-.52,.08-.79,.08-.74,.15-1.41,.15-2.09,0-.13,0-.25-.04-.35v-.07c-.39-.47-.38-1.17-.14-1.65,.26-.45,.64-.59,.92-.67,.21-.12,.42-.12,.55-.12,1.12,.01,2.25-.04,3.34-.09,1.85-.09,3.77-.18,5.68,.05,.79,.06,1.38,.67,1.38,1.44,0,.4-.2,.83-.51,1.12-.28,.26-.62,.38-.97,.36-1.82-.22-3.64-.13-5.4-.05-.63,.03-1.26,.06-1.89,.08v.06c0,.73-.08,1.45-.16,2.15-.02,.22-.05,.44-.08,.65-.04,.28-.08,.57-.08,.85-.02,.82,0,1.62,0,2.43v1.22c0,.97-.03,1.92-.06,2.88,.3,.01,.61,.02,.91,.02,.48,.02,.96,.03,1.44,.02,.44,0,.89,0,1.33-.04,.24,0,.41,0,.61-.03l.05-.05h.21c.11-.02,.18-.04,.25-.04,.39-.08,.81,0,1.13,.2,.31,.19,.52,.5,.6,.86,.11,.33,.06,.78-.17,1.15-.21,.34-.54,.57-.91,.63-1.51,.31-3.05,.27-4.55,.23-.32-.01-.65-.02-.97-.02-.01,.26-.02,.51-.02,.77-.01,.42-.02,.84-.02,1.25v.98c0,.94-.02,1.92,.04,2.88,.03,.81,.12,1.6,.21,2.44,.05,.44,.1,.89,.14,1.35,.07,.76,.11,1.52,.14,2.3,1.25,.02,2.51-.05,3.73-.1,1.19-.05,2.42-.1,3.65-.1l.03,.03c.81,0,1.48,.64,1.48,1.44Z"/><path class="cls-1" d="M77.92,108.69s.1,.09,.15,.14c-.06-.05-.12-.1-.15-.14Z"/><path class="cls-1" d="M83.51,83.56h0Z"/><path class="cls-1" d="M83.84,109.15l-.02,.02h0s.01-.02,.02-.02Z"/><polygon class="cls-1" points="84.02 83.95 84.02 83.96 84.01 83.95 84.02 83.95"/><path class="cls-1" d="M84.82,85.61c-.11-.03-.18-.08-.22-.14,.05,.06,.12,.11,.22,.14Z"/><path class="cls-1" d="M85.09,104.92c0,.32-.02,.61-.05,.89,.02-.28,.05-.57,.05-.89Z"/><path class="cls-1" d="M86.94,103.32l-.24-2.04v-.13c-.04-.1-.06-.2-.06-.28,0-.11-.03-.2-.04-.2v-.14c-.04-.29-.04-.59-.04-.88,0-.23,0-.42-.04-.55,0-.52-.16-.85-.41-1.2-.43-.6-1.23-.67-1.75-.71-1.11-.15-2.32-.11-3.6,.11-.1,0-.18,.02-.24,.04h-.11c-.35,.09-.66,.32-.85,.64-.21,.35-.28,.78-.18,1.17,.21,.76,.93,1.18,1.71,1.03,.1,0,.2,0,.33-.04,.08,0,.18,0,.28-.04,.13,0,.25-.01,.37-.02,.14,0,.27-.02,.45-.02,.37-.03,.73-.01,1.12,0v.37c.02,.19,.05,.37,.08,.56,.03,.17,.06,.34,.07,.45,0,.16,.03,.34,.08,.52v.13s.03,.12,.04,.21c.08,.56,.11,1.17,.15,1.81,.04,.6,.03,1.11-.02,1.63h-.06v.5c0,.06-.01,.12-.04,.23l-.03,.13c-.02,.14-.05,.26-.08,.38-.03,.12-.06,.24-.06,.28l-.05,.13c-.02,.06-.05,.12-.07,.19l-.07,.15c-.08,.15-.15,.27-.21,.38l-.2,.23s-.07,.06-.11,.1l-.15,.15c-.06,.03-.12,.06-.21,.11l-.38,.13c-.07,.02-.16,.05-.27,.05l-.98,.04c-.06,0-.19,0-.23-.01l-.19-.03c-.06-.01-.14-.04-.16-.03-.09-.02-.19-.04-.28-.06-.12-.03-.24-.06-.36-.08-.05-.03-.11-.06-.19-.09l-.27-.13c-.11-.04-.21-.11-.31-.17l-.12-.14-.11-.07c-.07-.05-.12-.1-.25-.24-.04-.06-.09-.12-.15-.17l-.03-.02c-.1-.14-.19-.3-.25-.43l-.11-.17s-.02-.02-.02-.03c0-.06-.04-.14-.09-.22-.06-.16-.12-.31-.16-.53-.11-.37-.18-.77-.25-1.11l-.03-.28s-.01-.11-.02-.29c-.03-.17-.03-.37-.03-.6-.08-1.28-.08-2.52-.08-3.81,.02-1.53,.09-3.06,.15-4.6,.04-1.07,.09-2.14,.12-3.24,.04-.93,.08-1.89,.04-2.82v-.65c-.01-.61-.02-1.24,.03-1.87,.03-.09,.04-.18,.04-.25l.04-.25c0-.09,.02-.19,.05-.31,.02-.09,.04-.18,.06-.26,.03-.17,.06-.33,.13-.5l.04-.11c.07-.12,.11-.2,.13-.27,.02-.04,.04-.08,.07-.13h.26v-.37l.05-.05s.09-.06,.14-.1l.18-.14s.07-.04,.1-.07l.11-.07c.06-.03,.12-.07,.16-.09,.04-.02,.11-.04,.18-.1l.15-.06c.26-.1,.47-.15,.71-.17h.17l.11-.04h.53s.14,.04,.3,.05c.1,.03,.21,.06,.33,.07,.07,.02,.12,.05,.17,.08v.16h.42c.11,.04,.21,.11,.32,.17,.06,.04,.13,.07,.19,.11,.06,.05,.13,.09,.2,.13l.3,.27c.05,.07,.11,.13,.13,.16v.02c-.07,.78,.34,1.43,1.06,1.64,.4,.1,.87,.01,1.23-.22,.31-.21,.51-.51,.56-.83,.14-.69,.05-1.32-.28-1.97-.26-.51-.65-.92-.95-1.18-.68-.57-1.53-1.01-2.62-1.35-2.35-.68-5.11,.23-6.56,2.19-.52,.72-.85,1.61-.99,2.65-.16,.96-.24,1.94-.24,2.91,0,.42,0,.82,.02,1.23,0,.4,.02,.8,.02,1.19-.04,1.29-.08,2.58-.16,3.88-.1,2.19-.2,5.05-.12,7.86,.04,1.82,.08,4.08,1.25,6.02,.51,.89,1.32,1.67,2.28,2.2,1.1,.59,2.36,.73,3.33,.73h.34c1.57-.05,2.75-.51,3.6-1.4,.89-.89,1.25-2.08,1.47-3.03,.29-1.15,.35-2.48,.21-4.11Zm-2.92-19.37h0Zm-.51-.39h0Zm-.25,25.48h-.01s.01-.02,.03-.04c-.01,.02-.02,.03-.02,.04Zm.56,.13h0s.01-.02,.02-.02l-.02,.02Z"/><path class="cls-1" d="M83.25,109.04h.01s.01-.02,.02-.04c-.02,.02-.03,.03-.03,.04Z"/><path class="cls-1" d="M83.25,109.04h.01s.01-.02,.02-.04c-.02,.02-.03,.03-.03,.04Zm.25-25.48h0Zm.32,25.6h.02s-.01,0-.02,0Zm.19-25.21h0Z"/><path class="cls-1" d="M101.11,110.24c0,.8-.68,1.48-1.48,1.48-1.21,0-2.43,.05-3.64,.09-1.61,.06-3.28,.11-4.91,.07-.12,.03-.2,.04-.3,.04-.81,0-1.44-.63-1.44-1.44,0-1.61-.06-2.81-.19-3.91-.04-.42-.08-.84-.13-1.25-.09-.86-.19-1.74-.22-2.61-.02-.88,0-1.75,0-2.62v-1.29c.01-1.04,.04-2.07,.07-3.1,.05-1.57,.09-3.14,.09-4.73v-2.43c-.01-.35-.02-.71,0-1.07,.02-.28,.05-.55,.08-.82,.03-.26,.06-.52,.08-.79,.08-.74,.16-1.41,.16-2.09,0-.14,0-.25-.02-.35l-.02-.07c-.39-.47-.38-1.17-.14-1.65,.26-.45,.64-.59,.92-.67,.21-.12,.42-.12,.55-.12v.02c1.11,.02,2.25-.04,3.34-.09,1.85-.09,3.77-.17,5.68,.05,.79,.06,1.38,.67,1.38,1.44,0,.4-.2,.83-.51,1.12-.28,.26-.62,.39-.97,.36-1.82-.22-3.64-.13-5.4-.05-.63,.03-1.26,.06-1.89,.08v.06c0,.73-.08,1.45-.16,2.15-.02,.22-.05,.44-.08,.65-.04,.29-.08,.57-.08,.86-.02,.82,0,1.62,0,2.43v1.22c0,.97-.03,1.92-.06,2.88,.31,.01,.61,.02,.91,.02,.48,.02,.96,.03,1.44,.02,.44,0,.89,0,1.33-.04,.24,0,.41,0,.61-.03l.05-.05h.21c.1-.02,.18-.04,.25-.04,.39-.08,.81-.01,1.13,.2,.31,.19,.52,.5,.6,.86,.11,.33,.06,.78-.17,1.15-.21,.34-.54,.57-.91,.63-1.51,.31-3.06,.27-4.55,.23-.32-.01-.65-.02-.97-.02-.01,.26-.02,.51-.02,.77-.01,.42-.02,.84-.02,1.25v.98c0,.95-.02,1.93,.04,2.88,.02,.82,.11,1.62,.21,2.46,.05,.44,.1,.89,.14,1.34,.07,.76,.11,1.52,.14,2.3,1.25,.02,2.51-.05,3.73-.1,1.19-.05,2.42-.1,3.65-.1,.81,0,1.48,.64,1.48,1.44Z"/><path class="cls-1" d="M77.38,63.14v.02h-.03v-.02h.03Z"/><path class="cls-1" d="M111.94,60.64h-12.48c1.94-7.27,1.86-17.24-.64-27.98,.02,.13,.02,.26,0,.4,.01-.13,.01-.26-.01-.4v-.02c-.01-.05-.02-.09-.04-.14-.01-.06-.03-.12-.04-.18C94.12,12.89,75.02,1.13,74.21,.64l-1.05-.64-.65,1.04c-.38,.61-7.28,11.81-8.53,25.67,.15,.15,.29,.26,.43,.4h.01s.06,.06,.09,.1c.03,.02,.05,.04,.08,.07,.02,.02,.05,.04,.07,.06h0l.02,.03c.16,.16,.31,.3,.47,.47h.01c.41,.41,.8,.8,1.19,1.2h0c.06-1.33,.18-2.62,.35-3.9h-.02c.06-.45,.12-.89,.19-1.32h.01c-.07,.44-.13,.87-.19,1.31h.01l12.6,6.42,6.48,29.08h0l.54,2.47,1.04,.04h-1.03l1.41,6.27c.04,.18,.13,.33,.23,.47,.01,0,.01,.01,.01,.01,.06,.07,.12,.14,.19,.2-.08-.05-.15-.13-.21-.21h-.01c-2.71-.14-5.74-1.91-8.69-5.08-.12,.13-.22,.27-.34,.39-.17,.18-.34,.33-.53,.5,.2,.21,.4,.42,.6,.62-.21-.2-.41-.41-.61-.62h-.01c-.31,.27-.63,.52-.98,.76,3.59,3.89,7.33,5.95,10.86,5.95,.69,0,1.38-.08,2.05-.24,3.75-.89,6.59-4.16,8.37-9.02h13.27c18.02,0,32.69,14.94,32.69,33.3s-14.66,33.3-32.69,33.3H35.19c-18.02,0-32.69-14.94-32.69-33.3s14.66-33.3,32.69-33.3h19.55c-1.34-.75-2.69-1.59-4.05-2.5h-15.49C15.78,60.64,0,76.7,0,96.44s15.78,35.8,35.19,35.8H111.94c19.4,0,35.19-16.06,35.19-35.8s-15.78-35.8-35.19-35.8ZM65.97,22.47l-.15,.09h-.01c.05-.3,.11-.6,.17-.9-.05,.29-.11,.59-.16,.89,.05-.03,.1-.05,.15-.08Zm17.08,47.09c.59,.34,1.17,.63,1.75,.87-.58-.23-1.16-.52-1.75-.87Zm3.06,1.3c.44,.11,.87,.19,1.3,.24-.43-.04-.86-.12-1.3-.24Zm11.17-39.19c.34-.09,.71-.05,1.02,.17,.06,.04,.11,.08,.15,.14l-.15-.12c-.31-.22-.68-.26-1.02-.17t-.01-.02h.01Zm.67,2.84h-.01c-.12-.54-.24-1.08-.37-1.63h.01c.13,.54,.25,1.08,.37,1.63Zm-7.27-18.58s.08,.07,.12,.12c-.04-.04-.08-.07-.12-.1-.05-.04-.11-.07-.16-.11,.06,.02,.11,.05,.16,.09Zm-1.49,.03h.01c.3-.23,.69-.32,1.05-.22-.36-.08-.73,.01-1.04,.23h-.01s-.01,.01-.01,.01h-.01c-.31-.41-.62-.8-.94-1.18,.32,.38,.63,.76,.95,1.16Zm.37,.48c.13,.17,.26,.33,.39,.5h-.01l-.78,1.08h0l.79-1.07h0c-.12-.18-.25-.35-.38-.51ZM73.56,1.71h.01s0,.01-.01,.01h0Zm-6.46,20.81c1.44-7.86,4.47-14.46,6.21-17.8l5.27,23.64-11.48-5.84Zm12.19,8.99l-.36-1.56h.02l.09,.04c.03-.19,.09-.37,.21-.54h.01c-.12,.17-.18,.36-.21,.55h.01c-.02,.16-.02,.32,.01,.47l-.02-.08c0,.06,.01,.12,.04,.17v.02l.21,.93h-.01Zm.37-2.6l.25-.34,.11,.52-.36-.18Zm.71,1.77h.01l.16,.72h0l-.16-.72Zm.29,1.28l-.12-.55h.01l.12,.55h-.01Zm-4.76-27.12h-.01l-.4-1.84h-.01v-.02c-.09-.06-.17-.12-.26-.18,.09,.05,.17,.11,.26,.17l-.04-.15c-.02-.09-.05-.18-.09-.26,.05,.08,.08,.16,.1,.25l.04,.17h0c.36,.26,.77,.56,1.21,.89-.44-.32-.85-.62-1.21-.87l.41,1.84c3.1,2.31,8.09,6.47,12.46,12.12h.01c.1,.14,.2,.27,.31,.41-.11-.13-.21-.27-.32-.4l-7.47,10.24v.02l.36,1.61h-.01l-.36-1.6v-.02h.01l-4.99-22.38Zm8.62,44.43h0Zm.97-1.39l-3.78-16.95h0l-.1-.46-.33,.45c-.04,.06-.09,.12-.16,.17,.05-.05,.1-.11,.15-.17l.33-.46-.09-.42h.01c.07,.11,.13,.21,.17,.32l8.23-11.28c2.73,3.92,5.07,8.45,6.31,13.51l.33-.46s.02-.03,.04-.04c0,.02-.02,.04-.03,.05l-.33,.47h-.01l-10.74,15.27Zm4.43,21.98c.05-.07,.09-.15,.13-.23h.01c-.04,.08-.08,.16-.14,.23Zm6.04-6.72c-1.39,3.39-3.37,5.71-5.87,6.47h-.02s.01,.01,.02,0c.1-.23,.16-.48,.1-.75h-.02l-1.28-5.73h-1.09l1.08-.06v.06h.02l-.56-2.49h0l-2.12-9.5h0c.06-.07,.13-.13,.18-.21l10.56-15.01c1.84,9.48,1.67,18.39-.14,24.71-.25,.89-.54,1.73-.86,2.51Z"/><rect class="cls-1" x="98.14" y="60.64" width="1.32" height="0"/><path class="cls-1" d="M78.99,66.31c-.21-.2-.41-.41-.61-.62h.01c.2,.21,.4,.42,.6,.62Z"/><path class="cls-1" d="M84.8,70.43c-.58-.23-1.16-.52-1.75-.87,.59,.34,1.17,.63,1.75,.87Z"/><path class="cls-1" d="M87.41,71.1c-.43-.04-.86-.12-1.3-.24,.44,.11,.87,.19,1.3,.24Z"/><rect class="cls-1" x="98.14" y="60.64" width="1.32" height="0"/><path class="cls-1" d="M64.66,27.34h0s-.04-.04-.06-.06c.02,.02,.05,.04,.07,.06Z"/><path class="cls-1" d="M75.49,2.99h-.01l-.04-.16c-.02-.09-.05-.18-.09-.26,.05,.08,.08,.16,.1,.25l.04,.17Z"/><path class="cls-1" d="M76.7,3.88c-.44-.32-.85-.62-1.21-.87h0c.36,.24,.77,.54,1.21,.87Z"/><path class="cls-1" d="M90.25,15.74c-.36-.08-.73,.01-1.04,.23h-.01s-.01,.01-.01,.01h-.01c-.31-.41-.62-.8-.94-1.18,.32,.38,.63,.76,.95,1.16h.01c.3-.23,.69-.32,1.05-.22Z"/><path class="cls-1" d="M90.8,16.05s-.08-.07-.12-.1c-.05-.04-.11-.07-.16-.11,.06,.02,.11,.05,.16,.09,.04,.03,.08,.07,.12,.12Z"/><path class="cls-1" d="M98.45,31.98l-.15-.12c-.31-.22-.68-.26-1.02-.17t-.01-.02h.01c.34-.09,.71-.05,1.02,.17,.06,.04,.11,.08,.15,.14Z"/><polygon class="cls-1" points="66.7 25.13 66.7 25.14 66.69 25.13 66.7 25.13"/><polygon class="cls-1" points="75.9 4.85 75.89 4.84 75.49 3.01 75.9 4.85"/><path class="cls-1" d="M76.7,3.88c-.44-.32-.85-.62-1.21-.87h-.01v-.02h.01c.36,.26,.77,.56,1.21,.89Z"/><path class="cls-1" d="M89.19,15.96h-.01c-.31-.39-.62-.78-.94-1.16,.32,.38,.63,.76,.95,1.16Z"/><path class="cls-1" d="M65.97,22.47l-.15,.09h0s.1-.06,.15-.09Z"/><path class="cls-1" d="M78.99,66.31c-.21-.2-.41-.41-.61-.62h.01c.2,.21,.4,.42,.6,.62Z"/><path class="cls-1" d="M84.8,70.43c-.58-.23-1.16-.52-1.75-.87,.59,.34,1.17,.63,1.75,.87Z"/><path class="cls-1" d="M87.41,71.1c-.43-.04-.86-.12-1.3-.24,.44,.11,.87,.19,1.3,.24Z"/><path class="cls-1" d="M88.17,70.09c-.08-.05-.15-.13-.21-.21h0s.01,.01,.01,.01c.06,.07,.12,.14,.19,.2Z"/><path class="cls-1" d="M90.09,69.62h-.02s.01,.01,.02,0Z"/><polygon class="cls-1" points="84.53 49.27 84.52 49.28 84.52 49.27 84.53 49.27"/><polygon class="cls-1" points="87.36 63.14 86.33 63.14 86.32 63.1 87.36 63.14"/><polygon class="cls-1" points="88.89 63.14 87.8 63.14 88.88 63.08 88.89 63.14"/><path class="cls-1" d="M90.09,69.62h-.02s.01,.01,.02,0Z"/><polygon class="cls-1" points="80.89 27.22 80.89 27.24 80.88 27.25 80.88 27.23 80.89 27.22"/><path class="cls-1" d="M75.48,2.99h0l-.04-.16c-.02-.09-.05-.18-.09-.26,.05,.08,.08,.16,.1,.25l.04,.17h-.01Z"/><path class="cls-1" d="M88.17,70.09c-.08-.05-.15-.13-.21-.21h0s.01,.01,.01,.01c.06,.07,.12,.14,.19,.2Z"/><polygon class="cls-1" points="75.49 3 75.49 3.01 75.48 3 75.49 3"/><polygon class="cls-1" points="75.9 4.85 75.89 4.84 75.49 3.01 75.9 4.85"/><polygon class="cls-1" points="81.25 28.85 81.24 28.85 80.88 27.25 80.88 27.23 80.89 27.22 80.89 27.24 81.25 28.85"/><path class="cls-1" d="M88.88,63.08l-1.08,.06h1.09v-.06Zm-2.57,.02v.04h1.04l-1.04-.04Z"/><path class="cls-1" d="M89.94,16.95h0c-.12-.18-.25-.35-.38-.51,.13,.17,.26,.33,.39,.5h-.01Z"/><path class="cls-1" d="M90.25,15.74c-.36-.08-.73,.01-1.04,.23h-.01c.3-.24,.69-.33,1.05-.23Z"/><path class="cls-1" d="M90.8,16.05s-.08-.07-.12-.1c-.05-.04-.11-.07-.16-.11,.06,.02,.11,.05,.16,.09,.04,.03,.08,.07,.12,.12Z"/><path class="cls-1" d="M89.2,15.96h0s-.01,.02-.01,.02v-.02h.01Z"/><polygon class="cls-1" points="89.94 16.95 89.16 18.02 89.15 18.02 89.15 18.01 89.94 16.95"/><path class="cls-1" d="M89.94,16.95h0c-.12-.18-.25-.35-.38-.51,.13,.17,.26,.33,.39,.5h-.01Z"/><polygon class="cls-1" points="89.94 16.95 89.16 18.02 89.15 18.02 89.15 18.01 89.94 16.95"/><polygon class="cls-1" points="80.02 29.1 79.66 28.92 79.91 28.58 80.02 29.1"/><polygon class="cls-1" points="81.25 28.85 81.24 28.85 80.88 27.25 80.88 27.24 80.89 27.24 81.25 28.85"/><path class="cls-1" d="M97.95,34.51h-.01c-.12-.54-.24-1.08-.37-1.63h.01c.13,.54,.25,1.08,.37,1.63Z"/><path class="cls-1" d="M98.45,31.98l-.15-.12c-.31-.22-.68-.26-1.02-.17t-.01-.02h.01c.34-.09,.71-.05,1.02,.17,.06,.04,.11,.08,.15,.14Z"/><path class="cls-1" d="M97.95,34.51h-.01c-.12-.54-.24-1.08-.37-1.63h.01c.13,.54,.25,1.08,.37,1.63Z"/><path class="cls-1" d="M97.28,31.67v.02s-.01-.01-.01-.02h.01Z"/><polygon class="cls-1" points="84.53 49.27 84.52 49.28 84.52 49.27 84.53 49.27"/><polygon class="cls-1" points="66.7 25.13 66.7 25.14 66.69 25.13 66.7 25.13"/><path class="cls-1" d="M66.88,23.82c-.07,.44-.13,.87-.19,1.31h-.01c.06-.44,.12-.88,.19-1.31h.01Z"/><path class="cls-1" d="M81.71,30.93l-.1-.45,.07-.1c.06,.18,.06,.36,.03,.55Z"/><path class="cls-1" d="M65.97,22.47l-.15,.09h0s.1-.06,.15-.09Z"/><path class="cls-1" d="M66.88,23.82c-.07,.44-.13,.87-.19,1.31h-.01c.06-.44,.12-.88,.19-1.31h.01Z"/><path class="cls-1" d="M79.05,30.4h0l-.1-.44h0l.09,.04h.02c-.02,.17-.02,.33,.01,.48l-.02-.08Z"/><polygon class="cls-1" points="80.67 31.97 80.66 31.97 80.54 31.42 80.55 31.42 80.67 31.97"/><polygon class="cls-1" points="79.04 30 79.04 30.01 78.95 29.96 78.95 29.95 79.04 30"/><polygon class="cls-1" points="80.67 31.97 80.66 31.97 80.54 31.42 80.55 31.42 80.67 31.97"/><path class="cls-1" d="M81.69,30.37h-.01l-.07,.11-.09-.42c.07,.1,.13,.2,.17,.31Z"/><polygon class="cls-1" points="80.54 31.41 80.53 31.41 80.37 30.69 80.38 30.69 80.54 31.41"/><path class="cls-1" d="M79.07,30.48l-.02-.08h0c-.02-.14-.02-.26,0-.39h.01c-.02,.16-.02,.32,.01,.47Z"/><polygon class="cls-1" points="80.54 31.41 80.53 31.41 80.37 30.69 80.38 30.69 80.54 31.41"/><path class="cls-1" d="M28.96,15.08l-.12-.12s0,0,.02,.01l.1,.11Z"/><path class="cls-1" d="M32.19,38.47h0s-.06-.01-.09-.03c.03,.02,.06,.03,.09,.03Z"/><polygon class="cls-1" points="32.21 38.49 32.21 38.5 32.2 38.49 32.21 38.49"/><path class="cls-1" d="M49.94,19.05l-.02,.4v.02s-.01,0-.01-.01h0l.02-.41c.03-.41-.15-.78-.44-1.03,.3,.23,.49,.62,.46,1.03Z"/><path class="cls-1" d="M63.01,27.21c-.06,.05-.12,.1-.17,.16h-.01c.05-.07,.11-.12,.18-.16Z"/><path class="cls-1" d="M41.86,53.22h-.12c-.21,.01-.4-.06-.57-.16-.03-.02-.05-.05-.08-.07,.2,.14,.42,.23,.68,.23h.09Z"/><path class="cls-1" d="M64.51,27.21s-.05-.03-.08-.04c-.09-.06-.18-.1-.28-.13h-.01c-.06-.02-.13-.04-.19-.05,0-.09,.02-.19,.02-.28h.01c.15,.15,.29,.26,.43,.4l.1,.1Z"/><path class="cls-1" d="M64.66,27.34h0l-.14-.13s.05,.04,.08,.07c.02,.02,.05,.04,.07,.06Z"/><polygon class="cls-1" points="65.15 27.84 65.15 27.85 65.14 27.84 65.15 27.84"/><polygon class="cls-1" points="65.06 29.51 65.06 29.52 65.05 29.51 65.06 29.51"/><path class="cls-1" d="M66.29,30.79h0c-.2-.21-.39-.42-.59-.63,.2,.2,.4,.42,.6,.63Z"/><rect class="cls-1" x="47.38" y="19.85" width=".01" height=".01"/><path class="cls-1" d="M32.69,38.55v.02h-.12c-.13,0-.24-.04-.36-.07h-.01v-.02h0c.12,.03,.22,.06,.35,.06h.13l.9-.09h.01l-.9,.1Z"/><path class="cls-1" d="M42.25,50.68l-.02-.02h.01v.02Z"/><path class="cls-1" d="M26.86,16.4c-.15-.3-.16-.65-.04-.96-.11,.3-.1,.65,.04,.96Z"/><polygon class="cls-1" points="28.09 17.72 28.09 17.73 27.11 16.75 28.09 17.72"/><path class="cls-1" d="M49.92,19.45v.02s-.01,0-.01-.01h.01Z"/><polygon class="cls-1" points="44.79 52.97 44.8 52.98 44.79 52.98 44.79 52.97"/><polygon class="cls-1" points="65.06 29.51 65.06 29.52 65.05 29.51 65.06 29.51"/><path class="cls-1" d="M66.29,30.79h0c-.2-.21-.39-.42-.59-.63,.2,.2,.4,.42,.6,.63Z"/><polygon class="cls-1" points="77.37 63.17 77.36 63.18 77.36 63.17 77.37 63.17"/><path class="cls-1" d="M75.75,64.53h-.02s.01-.01,.01-.02t.01,.02Z"/><polygon class="cls-1" points="63.76 51.14 63.76 51.15 63.75 51.14 63.76 51.14"/><polygon class="cls-1" points="61.67 49.08 61.67 49.09 61.66 49.1 61.66 49.08 61.67 49.08"/><polygon class="cls-1" points="45.35 34.74 45.33 34.74 45.32 34.73 45.34 34.73 45.35 34.74"/><polygon class="cls-1" points="46.54 34.61 46.53 34.62 46.53 34.61 46.54 34.61"/><path class="cls-1" d="M64.1,49.89l-.03-.06v-.02s.02,.05,.03,.08Z"/><path class="cls-1" d="M64.17,50.14v.03s0-.01-.01-.02c0-.1-.04-.18-.06-.26,.04,.08,.07,.16,.07,.25Z"/><polygon class="cls-1" points="72.43 59.7 72.43 59.71 72.42 59.7 72.43 59.7"/><path class="cls-1" d="M77.36,63.14v.02h-.01v-.02h.01Z"/><polygon class="cls-1" points="77.37 63.17 77.36 63.18 77.36 63.17 77.37 63.17"/><path class="cls-1" d="M28.96,15.08l-.12-.12s0,0,.02,.01l.1,.11Z"/><path class="cls-1" d="M26.86,16.4c-.15-.3-.16-.65-.04-.96-.11,.3-.1,.65,.04,.96Z"/><polygon class="cls-1" points="28.09 17.72 28.09 17.73 27.11 16.75 28.09 17.72"/><rect class="cls-1" x="47.38" y="19.85" width=".01" height=".01"/><polygon class="cls-1" points="49.84 20.79 49.84 20.8 49.83 20.79 49.84 20.79"/><path class="cls-1" d="M49.94,19.05l-.02,.4h-.02l.02-.4c.03-.41-.15-.78-.44-1.03,.3,.23,.49,.62,.46,1.03Z"/><rect class="cls-1" x="49.9" y="19.45" width="0" height="0"/><polygon class="cls-1" points="49.84 20.79 49.84 20.8 49.83 20.79 49.84 20.79"/><path class="cls-1" d="M49.92,19.46h0s-.01,.01-.01,0h.01Z"/><polygon class="cls-1" points="46.94 34.57 46.54 34.61 46.56 34.19 46.94 34.57"/><path class="cls-1" d="M48.73,34.57c-.08-.04-.17-.07-.25-.09-.12-.03-.24-.04-.37-.03h0l-.31,.04v-.02l.05-.77,.86,.85,.02,.02Z"/><polygon class="cls-1" points="62.94 48.57 62.94 48.59 62.93 48.59 62.93 48.56 62.94 48.57"/><path class="cls-1" d="M63.18,27.69c-.12-.1-.24-.21-.35-.31h0c.05-.08,.11-.13,.18-.17-.06,.05-.12,.1-.17,.16,.11,.1,.23,.2,.34,.32Z"/><path class="cls-1" d="M63.74,28.21h-.02c-.06-.07-.13-.13-.2-.2-.12-.11-.23-.21-.34-.32,.12,.1,.24,.21,.36,.32l.2,.2Z"/><path class="cls-1" d="M63.84,28.31h0l-.03-.02s.02,.01,.03,.02Z"/><path class="cls-1" d="M63.8,29.59c0,.14-.01,.28-.01,.42h0c0-.15,0-.29,.02-.42Z"/><path class="cls-1" d="M63.84,28.31h0l-.03-.02s.02,.01,.03,.02Z"/><path class="cls-1" d="M63.86,28.33h0l-.03,.52c0-.18,.01-.35,.02-.52h.01Z"/><path class="cls-1" d="M63.18,27.69c-.12-.1-.24-.21-.35-.31h.01c.11,.09,.23,.19,.34,.31Z"/><path class="cls-1" d="M66.34,29.04c-.39-.4-.78-.79-1.19-1.19h-.01c-.16-.18-.31-.32-.47-.48l-.02-.02c-.07-.07-.14-.13-.22-.18-.09-.05-.18-.09-.28-.13h-.01c-.06-.02-.13-.03-.2-.04-.04,.44-.07,.88-.09,1.32h0l-.03-.03s.02,.01,.03,.02c.03-.43,.06-.87,.09-1.3h0c0-.1,.02-.19,.02-.28C49.56,13.32,27.57,13.78,26.63,13.8l-1.23,.03,.02,1.23c.01,.95,.47,23.38,14.87,37.19,.15,.14,.29,.28,.44,.41,.01,.03,.03,.05,.05,.08,.09,.09,.19,.17,.28,.26,.03,.02,.07,.04,.11,.06-.03-.02-.05-.05-.08-.07,.2,.14,.42,.23,.68,.23h-.03c-.21,.01-.4-.06-.57-.16,3.13,2.92,6.34,5.45,9.51,7.58h.01c1.36,.91,2.71,1.75,4.05,2.5,5.86,3.29,11.44,5.06,16,5.06,2.58,0,4.84-.57,6.64-1.75h.01c.35-.24,.67-.49,.98-.77h.02c.19-.16,.36-.31,.53-.49,.12-.12,.22-.26,.34-.39h0c.43-.52,.8-1.07,1.11-1.66h-.01c.4-.77,.71-1.6,.91-2.5h.01c1.8-7.85-3.91-20.3-14.94-31.6Zm-.05,1.75h0c-.2-.21-.39-.42-.59-.63,.2,.2,.4,.42,.6,.63Zm-1.23-1.28h0Zm-1.21-1.18h.01l-.03,.52c0-.18,.01-.35,.02-.52Zm-.05,1.26c0,.14-.01,.28-.01,.42h0l-.06-.06s.04,.04,.06,.05c0-.14,0-.28,.02-.41Zm-.04,21.55h-.01l-.54-.53h0l.53,.53h.01Zm-.94-23.76h.01c.05-.08,.11-.13,.18-.17-.06,.05-.12,.1-.17,.16,.11,.1,.23,.2,.34,.32,.12,.1,.24,.21,.36,.32l.2,.2h-.02c-.06-.07-.13-.13-.2-.2-.12-.11-.23-.21-.34-.32-.12-.1-.24-.21-.35-.31-.05,.05-.09,.1-.13,.16,.04-.06,.08-.11,.12-.16Zm.1,21.65h0s.06-.01,.08,0h-.08l-.02,.39h-.02l.02-.39h.02Zm-.01-.02l.02-.42v-.03h.01v.03l-.02,.42h-.01Zm-1.21,.09l1.15,1.14h-.02l-1.15-1.14h.02Zm-.03-.03v.02h-.01l.07-1.69h.01l-.07,1.67Zm-11.73-30.02l-.02,.4v.02s-.01,0-.01-.01h0l.02-.41c.03-.41-.15-.78-.44-1.03,.3,.23,.49,.62,.46,1.03Zm-1.21,15.51h0l.02,.02c.1,.05,.21,.08,.29,.16h0l.8-13.94h0c4.42,1.81,8.83,4.35,12.62,7.93l-.73,18.66-12.36-12.2h0l-.34-.32-.3-.3c-.08-.04-.17-.07-.25-.09-.12-.03-.24-.04-.37-.03h0l-.31,.04v-.02l.05-.77,.86,.85s0,.01,.02,.01Zm-.91-16.48c.13-.14,.29-.24,.47-.29-.18,.06-.34,.16-.47,.29-.12,.14-.22,.3-.29,.48h0s-.01,.01-.02,0c.07-.19,.17-.36,.31-.48Zm-.44,1.77h0l-.73,12.66L30.33,16.42c3.85,.26,10.3,1.05,17.05,3.43Zm-.84,14.76h0l.02-.42,.38,.38-.4,.04Zm.37,1.66l-.4-.4h.13c.07,.15,.16,.28,.27,.4ZM28.86,14.97l.1,.11-.12-.12s0,0,.02,.01Zm-2.04,.47c-.11,.3-.1,.65,.04,.96-.15-.3-.16-.65-.04-.96Zm1.27,2.29l-.98-.98,.98,.97h0Zm17.23,17.01h0l-12.79,1.32c-3.05-7.39-4.08-14.56-4.43-18.31l17.22,16.99Zm-14.01,2.69s0-.08,.01-.12c0,.04,0,.08,.01,.13h-.01s.01,.1,.02,.15c-.01-.05-.02-.11-.03-.16Zm10.94,13.26l-.02-.02c-.07-.07-.15-.14-.22-.21-3.69-3.54-6.41-7.73-8.42-11.99l-.9,.09v.02h-.12c-.13,0-.24-.04-.36-.07h-.01v-.02h-.01s-.06-.02-.09-.04c.03,.02,.06,.03,.09,.03h.01c.12,.04,.22,.07,.35,.07h.13l.9-.09c-.18-.4-.36-.79-.54-1.19,.18,.4,.36,.79,.55,1.19l14.06-1.44h0l12.37,12.22-17.77,1.45h-.01Zm33.5,13.86h-.02c-3.38,1.98-8.95,1.34-15.26-1.39h-3s0,0-.02,0h3.02c-1.61-.7-3.27-1.54-4.96-2.5-3.54-2.02-7.18-4.6-10.71-7.66l17.58-1.43-1.16-1.16,1.16,1.15h.01l9.21,9.1h.01l2.53,2.5h.01l1.13,1.11c.13,.13,.28,.22,.45,.27,0,0,.01,0,.01,0t.01,.02h0Zm-11.68-14.7v-.02s.02,.05,.03,.08c.04,.08,.07,.16,.07,.25v.03s0-.01-.01-.02c0-.1-.04-.18-.06-.26l-.03-.06Zm8.35,9.87h0Zm.31,.48c.1,.15,.2,.3,.3,.46h-.01c-.1-.16-.2-.31-.29-.46Zm5.96,.46c-.25,.83-.6,1.57-1.07,2.22h-.01c-.07,.1-.16,.19-.23,.28v.02l-.02,.02h-.01v-.04h.01c-.04-.24-.14-.48-.33-.67l-1.86-1.83-1.75-1.72-3.05-3h-.01l-6.27-6.19s-.01,.05-.02,.07c-.03-.08-.07-.14-.11-.21l.13,.13h0c.02-.09,.06-.16,.06-.25l.41-10.4,.32-7.93h0c.06,.04,.1,.08,.15,.14,.44,.46,.87,.92,1.29,1.39,9.34,10.29,14.28,21.6,12.37,27.97Z"/><path class="cls-1" d="M77.38,63.14v.02h-.02l.02-.02Z"/><path class="cls-1" d="M63.74,28.21h-.02c-.06-.07-.13-.13-.2-.2-.12-.11-.23-.21-.34-.32,.12,.1,.24,.21,.36,.32l.2,.2Z"/><path class="cls-1" d="M63.8,29.59c0,.14-.01,.28-.01,.42h0c0-.15,0-.29,.02-.42Z"/><path class="cls-1" d="M63.86,28.33h0l-.03,.52c0-.18,.01-.35,.02-.52h.01Z"/><path class="cls-1" d="M64.09,49.72h0s-.01,.06-.02,.08c-.03-.08-.07-.14-.11-.21l.13,.13Z"/><polygon class="cls-1" points="62.94 48.57 62.94 48.59 62.92 49.01 62.91 49.01 62.93 48.59 62.93 48.56 62.94 48.57"/><polygon class="cls-1" points="62.94 48.59 62.92 49.01 62.91 49.01 62.93 48.59 62.94 48.59"/><polygon class="cls-1" points="61.67 49.08 61.67 49.09 61.66 49.1 61.66 49.08 61.67 49.08"/><polygon class="cls-1" points="44.79 52.97 44.8 52.98 44.79 52.98 44.79 52.97"/><polygon class="cls-1" points="62.38 51.54 62.38 51.55 61.22 50.39 62.38 51.54"/><path class="cls-1" d="M41.86,53.22h-.12c-.21,.01-.4-.06-.57-.16-.03-.02-.05-.05-.08-.07,.2,.14,.42,.23,.68,.23h.09Z"/><path class="cls-1" d="M64.1,49.89l-.03-.06v-.02s.02,.05,.03,.08Z"/><path class="cls-1" d="M64.17,50.14v.03s0-.01-.01-.02c0-.1-.04-.18-.06-.26,.04,.08,.07,.16,.07,.25Z"/><polygon class="cls-1" points="62.38 51.54 62.38 51.55 61.22 50.39 62.38 51.54"/><polygon class="cls-1" points="61.67 49.09 61.66 49.1 61.66 49.09 61.67 49.09"/><polygon class="cls-1" points="62.85 50.24 62.83 50.24 61.68 49.1 61.7 49.1 62.85 50.24"/><polygon class="cls-1" points="62.85 50.24 62.83 50.24 61.68 49.1 61.7 49.1 62.85 50.24"/><path class="cls-1" d="M62.92,49.03l-.02,.39h-.02l.02-.39h.02Z"/><polygon class="cls-1" points="62.06 50.33 62.05 50.33 62.05 50.32 62.06 50.33"/><polygon class="cls-1" points="45.35 34.74 45.33 34.74 45.32 34.73 45.34 34.73 45.35 34.74"/><path class="cls-1" d="M49.36,35.17l-.32-.32v-.11c.15,.12,.24,.26,.32,.43Z"/><path class="cls-1" d="M32.2,38.47h-.01s-.06-.01-.09-.03c.03,.02,.06,.03,.09,.03h.01Z"/><path class="cls-1" d="M33.59,38.46l-.9,.09v.02h-.12c-.13,0-.24-.04-.36-.07h-.01v-.03c.12,.04,.22,.07,.35,.07h.13l.9-.09h.01Z"/><polygon class="cls-1" points="46.54 34.61 46.53 34.62 46.53 34.61 46.54 34.61"/><path class="cls-1" d="M46.91,36.27l-.4-.4h.13c.07,.15,.16,.28,.27,.4Z"/><path class="cls-1" d="M49.04,34.74h0v.13l-.3-.3h.02c.1,.06,.21,.09,.29,.17Z"/><polygon class="cls-1" points="46.54 34.61 46.53 34.62 46.53 34.61 46.54 34.61"/><path class="cls-1" d="M46.91,36.27c-.12-.11-.21-.25-.28-.4h.01c.07,.15,.16,.28,.27,.4Z"/><path class="cls-1" d="M48.48,34.48c-.12-.03-.24-.04-.37-.03h0l-.31,.04v-.02l.31-.03c.13-.01,.25,0,.37,.04Z"/><path class="cls-1" d="M48.73,34.56h0c-.08-.03-.17-.06-.25-.08,.08,.02,.15,.04,.23,.07,0,0,0,.01,.02,.01Z"/><polygon class="cls-1" points="49.03 34.86 49.03 34.87 48.73 34.57 48.75 34.58 49.03 34.86"/></g></g></g></svg>