<?xml version="1.0" encoding="UTF-8"?><svg id="Warstwa_2" xmlns="http://www.w3.org/2000/svg" viewBox="0 0 147.12 155.2"><defs><style>.cls-1{fill:#3c3c3b;}</style></defs><g id="Warstwa_1-2"><path class="cls-1" d="M111.94,83.61h-3.22c-.93,.9-1.91,1.73-2.95,2.5h6.17c18.02,0,32.69,14.94,32.69,33.3s-14.66,33.3-32.69,33.3H35.19c-18.02,0-32.69-14.94-32.69-33.3s14.66-33.3,32.69-33.3h10.11c-1.31-.73-2.55-1.57-3.72-2.5h-6.39C15.78,83.61,0,99.67,0,119.4s15.78,35.8,35.19,35.8H111.94c19.4,0,35.19-16.06,35.19-35.8s-15.78-35.8-35.19-35.8Z"/><g><g><path class="cls-1" d="M46.94,113.81c-.1,.32-.24,.62-.38,.92,.66,0,1.34,0,2.02-.02,.42,0,.86-.02,1.3,0,.2,.02,.42,.02,.62,0h.22c.1-.02,.2-.04,.28-.08,.26-.06,.54,.1,.6,.36,.08,.26-.08,.52-.34,.58-.44,.12-.9,.12-1.34,.1h-1.3c-.96,.02-1.9,.04-2.86,.04-.06,0-.1-.02-.16-.04-.02,0-.06-.02-.08-.04-.08-.04-.14-.1-.18-.16-.04-.06-.08-.14-.08-.24,0-.08,.04-.16,.06-.22l.02-.02c.08-.18,.18-.34,.26-.5l.18-.42s.06-.1,.08-.14c0-.02,.02-.04,.02-.04,0-.04,.02-.08,.04-.1,.1-.28,.18-.58,.28-.86,.1-.3,.2-.6,.34-.9l.24-.54c.02-.06,.06-.14,.08-.2,.02-.02,.02-.06,.04-.08,0-.02,.02-.04,.02-.06,.24-.56,.36-1.2,.52-1.8l.24-.9c.08-.3,.22-.6,.34-.9,.26-.62,.52-1.24,.8-1.88,.02-.04,.04-.08,.06-.14,0,0,.02-.02,.02-.04,.04-.06,.06-.12,.08-.18,.04-.12,.1-.26,.14-.4,.1-.3,.18-.58,.28-.88,.18-.58,.38-1.16,.7-1.66,.16-.24,.32-.44,.46-.68,.04-.04,.06-.1,.1-.16-1.7-.08-3.38-.02-5.08-.02-.26,0-.48-.24-.48-.5s.22-.48,.48-.48c1.9,0,3.8-.08,5.68,.06,.2,.02,.38,.14,.46,.32,.1,.12,.14,.28,.08,.44-.06,.2-.14,.4-.24,.6-.26,.46-.62,.86-.86,1.34l-.06,.12v.02c-.04,.08-.06,.14-.08,.2-.06,.14-.1,.28-.14,.42-.1,.28-.18,.58-.28,.88-.08,.28-.18,.58-.3,.86l-.42,.96s-.04,.08-.06,.14c0,0-.02,.04-.02,.06-.04,.06-.06,.12-.08,.18-.06,.14-.12,.28-.18,.44-.12,.3-.26,.6-.36,.9-.2,.58-.34,1.2-.5,1.8-.08,.3-.16,.6-.26,.9-.12,.32-.26,.64-.4,.96,0,.02-.04,.1-.04,.1-.02,.02-.02,.04-.02,.06-.04,.08-.06,.14-.1,.22-.06,.14-.1,.28-.16,.42-.12,.3-.2,.6-.3,.88Z"/><path class="cls-1" d="M45.76,116.21c-.13,0-.23-.03-.29-.05-.09-.02-.17-.07-.23-.1-.13-.07-.24-.18-.32-.3-.11-.17-.17-.34-.17-.52,0-.15,.05-.28,.08-.35l.07-.15c.05-.1,.1-.2,.15-.29l.37-.79s.03-.06,.04-.08c.04-.11,.07-.23,.11-.34,.05-.15,.1-.31,.15-.46,.1-.31,.21-.62,.36-.94l.24-.53h0s.02-.05,.04-.1l.1-.24c.16-.37,.26-.8,.37-1.24,.04-.16,.08-.33,.12-.49l.24-.9c.07-.25,.17-.49,.27-.74l.09-.22c.26-.63,.52-1.25,.81-1.9l.2-.48c.03-.07,.05-.14,.08-.22,.06-.17,.1-.32,.15-.47l.14-.43c.17-.56,.39-1.21,.75-1.77l.07-.1c-.88-.02-1.77,0-2.64,0-.51,0-1.02,.01-1.53,.01s-.98-.46-.98-1,.44-.98,.98-.98c.5,0,1.01,0,1.51-.01,1.38-.01,2.81-.03,4.2,.07,.37,.04,.69,.25,.85,.55,.19,.26,.23,.58,.12,.88-.06,.19-.15,.42-.26,.65-.14,.24-.28,.45-.43,.66-.16,.22-.31,.44-.43,.69l-.06,.14s-.04,.09-.05,.13c-.07,.17-.1,.29-.14,.41-.06,.18-.11,.33-.16,.49-.04,.14-.08,.27-.13,.41-.08,.28-.19,.6-.31,.9l-.58,1.34c-.06,.13-.11,.27-.17,.42l-.13,.33c-.08,.18-.16,.37-.22,.55-.14,.42-.25,.85-.37,1.28l-.13,.49c-.08,.31-.17,.62-.27,.93-.12,.33-.26,.65-.4,.96,0,.03-.02,.06-.04,.09v.02l-.15,.33s-.04,.1-.06,.16c-.03,.08-.06,.15-.09,.23-.06,.16-.12,.33-.17,.5-.04,.12-.07,.23-.11,.34-.03,.09-.06,.17-.09,.26,.41,0,.83,0,1.24-.02h.43c.3-.01,.6-.02,.91,0,.2,.02,.38,.02,.55,0h.26s.04-.02,.07-.03l.11-.04c.53-.12,1.08,.21,1.2,.73,.07,.22,.04,.49-.09,.72-.13,.23-.36,.4-.62,.46-.49,.13-1,.13-1.47,.11h-1.45c-.9,.02-1.79,.04-2.69,.04Zm-.49-1.07l.28,.08-.08-.07h-.21Zm1.69-2.84l.49,.09-.26-.11h-.19v-.06h0s-.03,.06-.04,.09Z"/></g><g><path class="cls-1" d="M60.74,109.87c-.08,1.1-.28,2.2-.7,3.24-.2,.5-.44,.98-.84,1.36-.32,.32-.7,.6-1.12,.78-.9,.36-1.88,.46-2.84,.5-.14,0-.28-.08-.36-.18-.22-.04-.38-.22-.38-.44-.04-2.22,.02-4.44,0-6.66,0-1.3-.04-2.62-.02-3.92,0-.64,0-1.28,.02-1.92,0-.28,.02-.58,0-.86,0-.08,0-.16-.02-.24v-.1c-.02-.06-.04-.14-.06-.2-.04-.06-.06-.14-.06-.2-.06-.2,.06-.42,.22-.52,.22-.2,.52-.28,.8-.3,.38-.02,.76,.04,1.14,.12,.36,.08,.7,.18,1.06,.32,.28,.1,.58,.22,.82,.4,.82,.64,1.26,1.6,1.58,2.56,.14,.42,.26,.84,.36,1.26,.14,.52,.22,1.04,.3,1.56,.16,1.14,.2,2.28,.1,3.44Zm-.98-2.68l-.06-.42v-.1c-.02-.06-.02-.14-.04-.2-.04-.26-.08-.52-.14-.78-.1-.46-.22-.9-.34-1.36-.06-.22-.14-.44-.22-.66-.04-.12-.08-.22-.12-.34-.02-.02-.02-.04-.02-.06l-.02-.02s-.04-.1-.06-.14c-.1-.22-.2-.42-.34-.62-.04-.06-.06-.1-.1-.16-.02-.02-.02-.04-.04-.06-.06-.08-.14-.16-.22-.22l-.12-.12s-.04-.04-.06-.04c-.04-.04-.08-.08-.12-.1-.06-.02-.12-.06-.16-.08s-.06-.02-.1-.04c0,0-.02,0-.02-.02-.32-.12-.64-.22-.98-.32-.18-.04-.36-.08-.56-.1,0,0-.02-.02-.04-.02h-.12c-.08-.02-.16-.02-.24-.02h-.1c.08,.38,.06,.76,.06,1.14-.02,.52,0,1.06-.02,1.6-.02,1.1,0,2.22,0,3.32,.02,2.52-.02,5.02,.02,7.52,.3-.02,.6-.04,.9-.08h.08s.08-.02,.14-.02c.08-.02,.16-.04,.26-.06,.18-.04,.36-.08,.52-.14,.08-.02,.16-.06,.22-.08,.02,0,.06-.02,.08-.04,.04-.02,.08-.02,.12-.04,.16-.08,.3-.18,.44-.28h.02s.02-.02,.02-.04c.04-.02,.08-.06,.1-.08,.06-.06,.14-.12,.18-.18l.12-.12s.02-.02,.02-.04c.06-.08,.1-.14,.16-.22,.06-.12,.12-.22,.16-.34,.02-.02,.04-.04,.04-.06v-.02c.02-.06,.06-.12,.08-.16,.08-.26,.16-.5,.24-.76,.14-.5,.26-1.04,.32-1.56,0-.02,.02-.04,.02-.06v-.1c.02-.06,.02-.14,.02-.2,.02-.12,.04-.26,.04-.4,.02-.28,.04-.56,.04-.84,0-.54,.02-1.1-.06-1.66Z"/><path class="cls-1" d="M55.26,116.25c-.24,0-.47-.09-.64-.24-.37-.14-.62-.49-.62-.88-.02-1.23-.01-2.47,0-3.72,0-.98,.01-1.96,0-2.94,0-.52,0-1.04-.01-1.56,0-.79-.02-1.59,0-2.38,0-.64,0-1.28,.02-1.93v-.28c0-.18,.01-.36,0-.53,0-.08,0-.13,0-.16l-.03-.18c-.05-.08-.09-.22-.11-.36-.08-.38,.1-.8,.45-1.02,.2-.19,.58-.34,1.03-.37,.47-.03,.91,.05,1.28,.13,.41,.09,.77,.2,1.14,.34,.31,.11,.65,.25,.94,.47,.98,.77,1.45,1.9,1.75,2.8,.14,.43,.27,.87,.37,1.3,.14,.53,.23,1.07,.31,1.6,.17,1.22,.21,2.38,.1,3.56-.09,1.29-.33,2.4-.73,3.39-.2,.5-.47,1.07-.96,1.54-.39,.39-.82,.68-1.27,.88-1.02,.41-2.1,.5-3.02,.54h0Zm-.26-1.3v.17h.02l-.02-.17Zm2.21-.95l.32,.42-.18-.44-.02,.02,.02-.02v-.02l.28-.11s.1-.06,.16-.1v-.05l.52-.42,.16-.22c.03-.08,.06-.13,.08-.2l.06-.14c.02-.05,.05-.1,.07-.14l.22-.71c.15-.52,.25-1.02,.3-1.47l.04-.38c.02-.1,.03-.21,.03-.32,.02-.33,.04-.58,.04-.84v-.27c0-.44,0-.89-.06-1.32h0l-.06-.52s-.01-.07-.02-.1c-.06-.34-.09-.59-.15-.84-.08-.38-.18-.74-.27-1.1l-.06-.24c-.05-.2-.13-.41-.21-.62l-.18-.48c-.11-.24-.19-.41-.32-.59l-.13-.21c-.05-.06-.09-.09-.12-.12l-.23-.21s-.07-.04-.13-.07h-.4v-.16c-.21-.07-.42-.13-.64-.2-.1-.02-.22-.05-.36-.07,0,.14,0,.27,0,.41v.18c-.01,.27-.01,.53-.01,.79,0,.27,0,.55-.01,.83-.01,.72,0,1.46,0,2.2v1.11c.01,1.08,.01,2.17,0,3.25,0,1.25,0,2.49,0,3.73,.12-.01,.23-.02,.34-.04h.15s.02-.02,.06-.02c.09-.02,.16-.04,.24-.05,.15-.03,.3-.07,.44-.12Zm.52-12.35l-.02,.12,.06-.12h-.03Zm-2.85-.63h-.01l.03,.08-.02-.08Z"/></g><g><path class="cls-1" d="M68.54,114.77c.28,0,.5,.22,.5,.48s-.22,.48-.5,.48c-.34,0-.66-.1-.9-.34-.2-.2-.34-.46-.42-.74-.06-.22-.08-.44-.12-.66-.06-.34-.12-.68-.18-1.04-.04-.32-.12-.64-.16-.98-.02-.2-.06-.4-.08-.6,0-.02-.02-.14-.02-.14,0-.04,0-.08-.02-.12-.04-.28-.1-.54-.2-.78-.02-.04-.04-.08-.04-.12,0-.02-.02-.02-.02-.02-.02-.06-.04-.1-.08-.16-.06-.12-.12-.22-.18-.34-.02-.02-.04-.06-.06-.08-.02,0-.02-.02-.02-.02-.02-.04-.06-.08-.1-.1-.02,0-.02-.02-.02-.02-.04-.02-.08-.06-.12-.08-.02,0-.04,0-.06-.02h-.02s-.08-.04-.14-.04c-.08-.04-.14-.04-.22-.06-.3,.04-.58,.08-.88,.12,.04,.72,.06,1.44,.1,2.18,.02,.62,.06,1.26,.04,1.9-.02,.32-.02,.66-.1,1-.02,.14-.06,.28-.1,.42-.02,.08-.04,.14-.06,.2,0,.04-.02,.06-.02,.1v.02c0,.26-.2,.46-.5,.46-.24,0-.5-.2-.48-.46,.02-.18,.04-.34,.08-.5,.04-.14,.1-.26,.12-.4,.02-.04,.02-.06,.02-.1,.02-.08,.02-.16,.02-.22,.02-.16,.02-.3,.04-.46,.02-.6,0-1.2-.02-1.82-.06-1.22-.12-2.46-.16-3.68-.04-1.32-.06-2.64-.02-3.96,.02-.6,.04-1.2,.06-1.78,0-.26,.02-.52,0-.76,0-.08,0-.14-.02-.22v-.06s-.02-.04-.02-.08c-.1-.08-.16-.2-.16-.34,0-.2,.12-.38,.3-.44v-.02c.12-.06,.26-.08,.4-.04,.82,0,1.64,0,2.42,.22,.48,.12,.94,.32,1.3,.66,.4,.38,.66,.9,.84,1.42,.18,.54,.26,1.1,.3,1.66,.04,.5,.04,1.02,0,1.52-.04,.54-.16,1.08-.4,1.58s-.64,.92-1.12,1.2c-.18,.12-.4,.22-.6,.3,.1,.12,.18,.26,.28,.4,.3,.48,.48,1.02,.58,1.58,.02,.18,.04,.34,.06,.5,.02,.08,.02,.16,.04,.24v.08s.02,.06,.02,.06c.04,.34,.08,.66,.14,.98l.18,.96c.04,.2,.06,.4,.1,.6l.06,.18s0,.02,.02,.04c0,.04,.02,.08,.04,.12,.02,0,.04,.04,.06,.06,0,.02,.02,.02,.02,.02,.02,.02,.04,.02,.06,.04,.02,0,.04,.02,.06,.02h.08Zm-4.16-9c0,.64,0,1.3,.04,1.94,0,.2,.02,.4,.02,.6,.28-.04,.58-.06,.86-.02,.34-.08,.68-.16,1.02-.28,.04-.02,.08-.02,.12-.04,0,0,0-.02,.02-.02,.04-.02,.08-.04,.14-.06,.1-.06,.2-.1,.3-.18,.04-.02,.08-.04,.1-.06,.02,0,.04-.02,.04-.02,.04-.04,.08-.06,.1-.1,.08-.08,.18-.16,.24-.24,0-.02,.02-.02,.02-.02,.02-.04,.04-.06,.04-.08,.04-.04,.06-.1,.1-.14,.02-.06,.06-.1,.08-.16,0-.02,.04-.1,.06-.12,.06-.2,.12-.42,.16-.62,0-.04,.02-.08,.02-.12v-.04s.02-.08,.02-.12c.02-.12,.02-.24,.02-.36,.02-.24,0-.5,0-.74-.02-.26-.02-.52-.04-.8-.02-.04-.02-.08-.02-.12-.02-.06-.02-.12-.04-.18-.02-.12-.04-.26-.08-.38-.02-.14-.06-.26-.1-.4-.02-.06-.04-.12-.06-.16-.02-.02-.02-.04-.02-.06-.02,0-.02-.02-.02-.04-.06-.12-.12-.24-.2-.36-.02-.04-.06-.1-.1-.14,0-.02-.02-.04-.02-.04l-.02-.02c-.06-.08-.14-.16-.22-.22-.02-.02-.04-.02-.04-.04-.04-.02-.08-.06-.14-.08-.04-.02-.1-.06-.14-.08s-.12-.04-.12-.04c-.08-.04-.14-.06-.22-.08-.22-.08-.44-.12-.66-.14v-.02h-.08c-.06,0-.12-.02-.16-.02-.12,0-.22-.02-.34-.02-.2,0-.4-.02-.6-.02,.04,.28,.02,.56,.02,.82-.02,.58-.02,1.14-.04,1.7-.02,.64-.08,1.28-.06,1.94Z"/><path class="cls-1" d="M68.54,116.23c-.5,0-.94-.17-1.25-.49-.25-.25-.44-.58-.55-.96-.05-.17-.07-.34-.1-.5l-.21-1.25c-.02-.16-.05-.31-.07-.45-.03-.18-.07-.36-.09-.55-.01-.1-.02-.19-.04-.28-.02-.11-.03-.22-.04-.33l-.04-.24c-.03-.19-.06-.35-.11-.49h-.02l-.31-.7h-.27v-.17h-.44c0,.22,.02,.44,.03,.66,.01,.35,.03,.71,.05,1.07l.02,.45c.02,.49,.04,.99,.02,1.49v.21c-.02,.27-.04,.58-.11,.89-.02,.12-.06,.28-.1,.44-.01,.05-.03,.1-.04,.15l-.02,.08c-.03,.54-.45,.92-1,.92-.27,0-.55-.12-.74-.33-.17-.19-.26-.43-.24-.67,.02-.22,.05-.4,.09-.58,.02-.08,.04-.14,.06-.2,.02-.06,.04-.11,.05-.15l.03-.15s0-.07,0-.1c.01-.13,.02-.2,.02-.27,0-.08,.01-.16,.02-.25,.02-.52,0-1.09-.02-1.67-.06-1.28-.12-2.53-.16-3.75-.05-1.6-.05-2.84-.02-3.99l.06-2.04c0-.15,0-.3,0-.45l-.02-.18c-.12-.16-.18-.35-.18-.56,0-.28,.11-.53,.3-.71v-.04l.28-.16c.21-.11,.45-.14,.68-.09,.82,0,1.67,0,2.5,.24,.61,.15,1.12,.42,1.51,.78,.41,.39,.73,.92,.97,1.62,.17,.52,.28,1.09,.33,1.79,.04,.52,.04,1.07,0,1.6-.05,.65-.2,1.24-.45,1.76-.28,.58-.75,1.08-1.32,1.42-.03,.02-.07,.05-.11,.07,.3,.5,.5,1.06,.61,1.69l.06,.52s.01,.06,.02,.12l.04,.27c.04,.33,.08,.64,.14,.95l.18,.96c.02,.1,.04,.21,.05,.32,.01,.09,.03,.18,.05,.28l.06,.09c.48,.07,.85,.48,.85,.97,0,.54-.45,.98-1,.98Zm-3.71-.95v0Zm2.07-5.1v0Zm-.91-1.26l.04,.02s.09,.05,.13,.09l.08,.04-.32-.38,.22-.09c-.24,.07-.47,.12-.71,.18h.05c.07,.03,.15,.04,.22,.07,.04,0,.08,.02,.12,.03h.1l.06,.06Zm-2-.05v.07l1.23-.17c-.19-.03-.43-.02-.71,.02l-.52,.07Zm.98-1.11c.1,0,.2,0,.3,.01,.23-.05,.45-.11,.67-.17v-.14l.4-.02s.04-.02,.06-.02l.07-.04s.08-.04,.12-.07l.24-.2h.02l.04-.03v-.3h.23l.04-.08c.02-.06,.04-.11,.07-.15,.05-.17,.1-.35,.13-.51l.04-.21c.02-.16,.02-.25,.02-.33,.01-.18,0-.34,0-.48v-.26c-.01-.1-.02-.25-.02-.39,0-.1,0-.2-.01-.31-.02-.06-.02-.12-.02-.16l-.04-.19c-.01-.09-.03-.18-.06-.27-.03-.18-.06-.26-.08-.34l-.11-.28s0-.03-.01-.04c-.04-.08-.08-.16-.14-.24l-.16-.22s-.06-.06-.09-.08l-.36-.19s-.06-.03-.12-.04c-.21-.07-.38-.11-.58-.13l-.45-.05s-.1,0-.16,0v.3c-.01,.31-.02,.6-.02,.88,0,.28-.01,.56-.02,.84,0,.21-.02,.42-.03,.64-.02,.42-.04,.84-.03,1.27h0c0,.64,0,1.29,.04,1.92v.09h.05Zm2.54-.01h-.12s.08,0,.12,0Zm-.13-1.9s0,.03,0,.03v-.03Zm.03-.08s-.02,.04-.02,.06l.02-.06Zm-3.53-4.96l-.12,.05,.15,.12-.03-.17Z"/></g><g><path class="cls-1" d="M77.4,111.07c-.06,.66-.16,1.32-.32,1.96-.16,.64-.38,1.32-.78,1.84-.2,.28-.44,.52-.76,.66-.36,.14-.72,.18-1.1,.1-.46-.1-.84-.38-1.16-.74-.32-.36-.62-.78-.86-1.2-.28-.5-.4-1.06-.5-1.6-.1-.64-.22-1.28-.26-1.92-.06-.8-.04-1.6-.02-2.4-.02-.08-.04-.18-.06-.28-.08-.64,.04-1.26,.16-1.88,.12-.6,.2-1.18,.38-1.76,.18-.54,.42-1.08,.66-1.6,.22-.46,.46-.96,.86-1.3,.22-.2,.46-.36,.76-.42,.26-.08,.54-.1,.82-.08,.56,.04,1.14,.16,1.5,.6,.34,.38,.52,.88,.6,1.38,.1,.62,.14,1.24,.14,1.88,0,.6-.04,1.22-.04,1.84,.02,.64,.04,1.28,.06,1.94,.02,1,0,1.98-.08,2.98Zm-.9-2.4c0-.64-.02-1.3-.04-1.94-.02-.64,0-1.24,.02-1.86,0-.62,.04-1.24-.06-1.86,0-.04,0-.08-.02-.12v-.02c0-.06-.02-.12-.02-.18-.02-.1-.04-.22-.08-.32-.02-.08-.04-.18-.08-.28-.02-.02-.04-.08-.04-.1-.04-.04-.06-.08-.08-.14-.02-.02-.04-.04-.06-.08l-.1-.1s-.08-.06-.08-.08c-.04,0-.06-.02-.08-.04-.02,0-.04-.02-.06-.02l-.02-.02c-.06-.02-.12-.02-.16-.04-.06,0-.12-.02-.16-.02-.04-.02-.06-.02-.08-.02-.12,0-.24-.02-.38,0-.02,0-.16,.02-.14,0-.02,.02-.06,.02-.1,.04-.04,0-.08,.02-.12,.02-.04,.02-.1,.06-.12,.06-.02,.02-.04,.02-.06,.04-.04,.04-.08,.06-.12,.1-.04,.06-.08,.1-.12,.14,0,.02-.02,.02-.02,.02,0,.02-.02,.04-.02,.04-.08,.1-.14,.2-.2,.32-.12,.22-.24,.44-.34,.68-.1,.22-.2,.44-.28,.64,0,0-.04,.08-.04,.1-.02,.04-.02,.08-.04,.1-.02,.08-.04,.14-.08,.22l-.12,.42c-.16,.56-.24,1.14-.36,1.72v.04s.02,.1,.02,.14c0,.46-.02,.92-.04,1.38,.02,.06,.02,.1,0,.16-.02,.54-.02,1.08-.02,1.62,0,.26,.02,.52,.04,.76,0,.14,.02,.26,.02,.4,.02,.06,.02,.12,.04,.18v.1c.06,.46,.18,.92,.26,1.36,.06,.26,.1,.5,.2,.74,0,.02,.02,.06,.02,.06,.02,.02,.02,.06,.04,.08,.02,.06,.06,.1,.1,.16,.04,.08,.1,.16,.16,.24,.06,.1,.12,.2,.2,.3,.04,.06,.06,.1,.1,.14,.02,.04,.04,.06,.06,.08,.14,.18,.3,.36,.48,.52,.02,.02,.04,.02,.06,.04,.04,.02,.08,.04,.1,.06,.02,0,.04,0,.04,.02,.04,0,.08,.02,.12,.02,.02,.02,.06,.02,.08,.02h.2s.06,0,.1-.02c.02,0,.04-.02,.06-.02,.06-.02,.12-.06,.16-.1h.02s.04-.02,.04-.04l.16-.16s.02-.02,.02-.04c.02,0,.02-.02,.02-.02,.1-.12,.18-.26,.24-.4,.04-.06,.06-.14,.1-.2v-.02s.04-.08,.04-.12c.06-.14,.12-.3,.16-.46,.1-.34,.2-.66,.24-1l.06-.48s.02-.02,.02-.02v-.1c.02-.06,.02-.14,.02-.2,.08-.88,.14-1.76,.12-2.64Z"/><path class="cls-1" d="M74.82,116.17c-.16,0-.32-.02-.49-.05-.52-.11-1-.42-1.43-.9-.34-.38-.66-.83-.92-1.29-.32-.57-.45-1.18-.56-1.76l-.06-.4c-.08-.51-.17-1.04-.2-1.58-.06-.81-.04-1.6-.02-2.38-.01-.06-.03-.12-.04-.18-.11-.81,.02-1.48,.15-2.13l.09-.47c.08-.44,.16-.89,.3-1.34,.19-.58,.44-1.14,.68-1.66,.23-.48,.51-1.06,.99-1.47,.19-.18,.52-.44,.99-.53,.25-.08,.59-.11,.95-.09,.55,.04,1.35,.16,1.85,.78,.36,.4,.6,.95,.71,1.62,.1,.61,.15,1.25,.15,1.96,0,.3,0,.61-.02,.92,0,.3-.02,.61-.02,.92l.06,1.92c.02,1.09,0,2.08-.08,3.04h0c-.07,.74-.18,1.42-.33,2.04-.15,.62-.39,1.41-.87,2.02-.27,.38-.59,.65-.96,.81-.31,.12-.62,.18-.92,.18Zm-.19-2.02h.35v-.32h.24s.04-.08,.06-.12l.51,.1-.23-.1h-.22v-.12l.08-.22c.05-.12,.1-.25,.13-.38,.11-.39,.2-.66,.23-.94l.12-.92c.06-.79,.12-1.63,.1-2.45h0c0-.65-.02-1.3-.04-1.94-.02-.65,0-1.26,.02-1.89v-.4c.01-.47,.02-.92-.05-1.36v-.04l-.03-.05-.02-.32s-.02-.07-.04-.13l-.03-.11s-.02-.09-.04-.13c-.02-.03-.03-.06-.04-.09-.02-.04-.04-.07-.06-.11l-.02-.02h0l-.2-.13s-.06,0-.09-.01l-.2-.03c-.05,0-.1,0-.16,0-.04,0-.08,0-.13,0l-.1,.05h-.05s-.02,0-.03,0c-.01,.01-.03,.02-.04,.03v.3h-.24s-.03,.07-.05,.11c-.12,.22-.23,.42-.32,.65-.12,.25-.21,.45-.28,.63h0v.03l-.05,.1s0,.03-.02,.07c-.03,.09-.06,.17-.1,.25l-.09,.33c-.1,.36-.17,.73-.24,1.11-.03,.17-.06,.33-.1,.5v.15c.01,.44,0,.89-.02,1.33,.02,.1,.02,.19,0,.29-.02,.52-.02,1.03-.02,1.55,0,.25,.02,.49,.04,.72,0,.1,0,.15,.01,.21,0,.06,0,.12,.01,.18l.04,.34c.03,.21,.09,.48,.15,.75,.04,.18,.07,.35,.11,.53l.03,.14c.04,.17,.07,.33,.14,.49l.14,.27c.03,.05,.07,.1,.11,.16,.09,.14,.13,.22,.2,.3l.15,.22c.12,.14,.25,.29,.39,.42h.01Zm-2.49-7.97c-.07,.43-.12,.84-.07,1.25,.02,.08,.03,.14,.04,.2h0c.02-.45,.04-.91,.04-1.36,0-.02-.01-.06-.02-.09Zm3.14-4.25h0Zm-.6-.6l.1,.1,.02-.47s-.08,.01-.11,.02v.35Zm-.24-.25l.09,.1-.07-.13-.03,.02v.02Zm.16-.11h0Z"/></g><g><path class="cls-1" d="M90.58,113.59s.02-.02,.02-.04c.2-.62,.4-1.24,.58-1.88,.36-1.24,.68-2.5,1-3.78,.14-.6,.3-1.22,.38-1.86,.1-.64,.26-1.26,.36-1.9,.02-.06,.02-.14,.04-.22,0-.04,0-.08,.02-.12v-.02c.02-.16,.04-.32,.08-.5,.04-.28,.12-.56,.18-.84l.18-.84v-.12c.02-.06,.02-.12,.02-.18,.02-.14,.02-.28,.02-.42-.02-.28,.22-.5,.48-.5,.28,0,.48,.22,.5,.5,.02,.58-.12,1.18-.24,1.76-.06,.28-.14,.56-.18,.84-.04,.12-.06,.22-.06,.34-.02,.04-.04,.2-.04,.18v.1c-.02,.1-.04,.18-.04,.28-.12,.64-.26,1.28-.36,1.92-.1,.64-.24,1.28-.4,1.9-.32,1.26-.64,2.5-1,3.74-.18,.64-.38,1.26-.58,1.88-.04,.14-.1,.3-.14,.44,0,.04,0,.08-.02,.12,0,.12-.02,.24-.04,.34-.02,.16-.08,.32-.16,.46-.02,.06-.04,.12-.08,.18v.02s-.02,.06-.04,.1c-.06,.18-.22,.32-.42,.34-.24,.02-.48-.14-.52-.34-.02-.04-.02-.06-.04-.1v-.02c-.04-.06-.06-.12-.08-.18-.08-.14-.14-.3-.16-.46-.02-.1-.04-.22-.04-.34-.02-.04-.02-.08-.02-.12-.04-.14-.1-.3-.14-.44-.2-.62-.4-1.24-.58-1.88-.36-1.24-.68-2.48-1-3.74-.16-.62-.3-1.26-.4-1.9-.1-.64-.24-1.28-.36-1.92,0-.1-.02-.18-.04-.28v-.1s-.02-.1-.04-.16c-.02,.06-.02,.18-.02,.16v.1c-.02,.1-.04,.18-.04,.28-.12,.64-.26,1.28-.36,1.92-.1,.64-.24,1.28-.4,1.9-.32,1.26-.64,2.5-1,3.74-.18,.64-.38,1.26-.58,1.88-.04,.14-.1,.3-.14,.44,0,.04,0,.08-.02,.12,0,.12-.02,.24-.04,.34-.02,.16-.08,.32-.16,.46-.02,.06-.04,.12-.08,.18v.02s-.02,.06-.04,.1c-.06,.18-.22,.32-.42,.34-.24,.02-.48-.14-.52-.34-.02-.04-.02-.06-.04-.1v-.02c-.04-.06-.06-.12-.08-.18-.08-.14-.14-.3-.16-.46-.02-.1-.04-.22-.04-.34-.02-.04-.02-.08-.02-.12-.04-.14-.1-.3-.14-.44-.2-.62-.4-1.24-.58-1.88-.36-1.24-.68-2.48-1-3.74-.16-.62-.3-1.26-.4-1.9-.1-.64-.24-1.28-.36-1.92,0-.1-.02-.18-.04-.28v-.1s-.02-.14-.04-.18c0-.12-.02-.22-.06-.34-.04-.28-.12-.56-.18-.84-.12-.58-.26-1.18-.24-1.76,.02-.28,.22-.5,.5-.5,.26,0,.5,.22,.48,.5,0,.14,0,.28,.02,.42,0,.06,0,.12,.02,.18v.12l.18,.84c.06,.28,.14,.56,.18,.84,.04,.18,.06,.34,.08,.5v.02s.02,.08,.02,.12c.02,.08,.02,.16,.04,.22,.1,.64,.26,1.26,.36,1.9,.08,.64,.24,1.26,.38,1.86,.32,1.28,.64,2.54,1,3.78,.18,.64,.38,1.26,.58,1.88v.04s.02-.02,.02-.04c.2-.62,.4-1.24,.58-1.88,.36-1.24,.68-2.5,1-3.78,.14-.6,.3-1.22,.38-1.86,.1-.64,.26-1.26,.36-1.9,.02-.06,.02-.14,.04-.22,0-.04,0-.08,.02-.12v-.02c.02-.16,.04-.32,.08-.5,.04-.28,.12-.56,.18-.84l.18-.84v-.12c.02-.06,.02-.12,.02-.18,.02-.14,.02-.28,.02-.42-.02-.28,.22-.5,.48-.5h.06c.24,.04,.46,.24,.44,.5,0,.14,0,.28,.02,.42,0,.06,0,.12,.02,.18v.12l.18,.84c.06,.28,.14,.56,.18,.84,.04,.18,.06,.34,.08,.5v.02s.02,.08,.02,.12c.02,.08,.02,.16,.04,.22,.1,.64,.26,1.26,.36,1.9,.08,.64,.24,1.26,.38,1.86,.32,1.28,.64,2.54,1,3.78,.18,.64,.38,1.26,.58,1.88v.04Z"/><path class="cls-1" d="M90.6,116.31c-.44,0-.85-.29-.96-.69l-.07-.15v-.02s-.03-.08-.04-.11c-.08-.13-.16-.35-.19-.57-.02-.08-.04-.19-.04-.32-.01-.04-.02-.08-.02-.12l-.05-.15c-.03-.08-.05-.16-.08-.24-.2-.61-.4-1.24-.58-1.88-.36-1.24-.68-2.49-1-3.75-.14-.54-.26-1.07-.35-1.57-.09,.5-.21,1.02-.35,1.57-.32,1.26-.64,2.51-1,3.76-.18,.64-.38,1.27-.58,1.89-.02,.06-.04,.14-.07,.23l-.05,.15s0,.08-.02,.12c0,.12-.03,.25-.05,.35-.02,.17-.09,.37-.19,.57-.02,.05-.04,.1-.06,.15l-.03,.06s-.02,.06-.04,.11c-.09,.3-.43,.57-.82,.61-.47,.03-.93-.26-1.05-.68l-.07-.15v-.02s-.02-.06-.03-.08c-.1-.2-.17-.4-.2-.6-.02-.1-.04-.21-.04-.31-.01-.04-.02-.09-.02-.12l-.05-.15c-.03-.08-.05-.16-.08-.24-.2-.61-.4-1.24-.58-1.88-.38-1.3-.72-2.62-1-3.75-.18-.7-.31-1.34-.41-1.95-.07-.42-.15-.84-.23-1.26l-.12-.65c0-.13-.02-.16-.03-.23l-.09-.36,.03-.05c0-.05,0-.1-.03-.18-.05-.26-.09-.43-.13-.61l-.1-.45c-.12-.56-.24-1.14-.22-1.72,.04-.57,.47-.98,1-.98,.27,0,.54,.12,.72,.32,.18,.2,.27,.45,.25,.72,0,.08,0,.19,.02,.31l.03,.2v.12l.23,1.06c.05,.2,.09,.4,.12,.6,.03,.15,.06,.32,.08,.48h0c.02,.07,.02,.13,.02,.17,0,.04,.01,.07,.02,.11,.07,.4,.13,.71,.19,1.01,.07,.33,.13,.65,.19,.98,.07,.53,.19,1.04,.31,1.54l.07,.29c.3,1.21,.63,2.5,.99,3.75,.04,.13,.07,.25,.11,.38,.04-.12,.07-.25,.11-.38,.37-1.27,.7-2.56,1-3.77l.06-.26c.12-.5,.24-1.02,.31-1.54,.05-.34,.12-.67,.19-.99,.06-.31,.13-.61,.18-.93l.52-.04-.5-.07s0-.06,.02-.1c0-.05,0-.12,.03-.19,.02-.19,.04-.34,.08-.5,.02-.16,.07-.36,.12-.56l.26-1.29c.01-.2,.01-.32,.01-.44-.02-.23,.07-.49,.26-.68,.19-.2,.45-.32,.72-.32h.14c.53,.09,.9,.54,.86,1.04,0,.08,0,.19,.02,.31l.03,.2v.12l.22,1.05c.05,.2,.1,.41,.13,.61,.03,.15,.06,.32,.08,.48h0c.02,.07,.02,.13,.02,.17,0,.04,.01,.07,.02,.11,.07,.41,.13,.71,.19,1.02,.07,.32,.13,.65,.18,.97,.07,.53,.19,1.04,.31,1.54l.07,.29c.3,1.21,.63,2.5,.99,3.75,.04,.13,.07,.25,.11,.38,.04-.12,.07-.25,.11-.38,.36-1.23,.68-2.49,1-3.77l.06-.28c.12-.5,.24-1.01,.3-1.52,.05-.34,.12-.66,.19-.98,.06-.31,.13-.62,.18-.93,.02-.1,.03-.16,.04-.2,0-.04,0-.1,.03-.16h0c.02-.17,.04-.34,.08-.53,.02-.17,.07-.37,.12-.57l.26-1.28c.01-.2,.01-.32,.01-.44-.02-.23,.07-.49,.26-.68,.19-.2,.45-.32,.72-.32,.53,0,.96,.41,1,.96,.02,.61-.1,1.18-.22,1.74l-.1,.46c-.04,.17-.08,.34-.11,.51-.05,.18-.06,.22-.06,.27l-.06,.43s-.02,.08-.02,.13l-.13,.73c-.08,.42-.17,.85-.23,1.27-.1,.61-.23,1.27-.41,1.95-.32,1.26-.64,2.51-1,3.76-.17,.62-.37,1.22-.56,1.83-.04,.13-.07,.21-.09,.29l-.05,.15s0,.08-.02,.12c0,.12-.03,.25-.05,.35-.02,.18-.1,.41-.22,.61,0,0,0,.03-.03,.09l-.04,.08s-.01,.05-.04,.09c-.1,.31-.43,.58-.82,.62-.03,0-.06,0-.09,0Zm0-.94h0Zm-6.72,0h0Zm6.68-.12v.02l.03,.05v-.1l.15-.3c.05-.09,.09-.19,.1-.28,.02-.1,.04-.19,.04-.28l.04-.26c.02-.08,.05-.16,.07-.24l-.07,.08-.61,.58s.01,.06,.02,.08c.02,.12,.05,.22,.1,.31l.13,.32Zm-6.72,0l.03,.07v-.1l.15-.3c.05-.09,.09-.19,.1-.27,.02-.11,.04-.19,.04-.28l.04-.26c.02-.08,.05-.16,.08-.24l-.06,.07-.61,.61v.05c.03,.12,.06,.22,.12,.31l.13,.32Zm3.39-13l.44,1.36c-.01-.07-.02-.15-.04-.24-.03-.21-.07-.38-.11-.56l-.26-1.29c-.02-.1-.02-.18-.02-.24,0-.02,0-.05-.01-.08,0,.05,0,.1-.01,.15,0,0,0,.08-.02,.18v.16l-.26,1.14c-.04,.17-.08,.34-.11,.51-.01,.06-.02,.11-.03,.16l.43-1.25Z"/></g><g><path class="cls-1" d="M102.74,115.01c0,.26-.22,.5-.5,.5-1.44,0-2.9,.12-4.34,.08-.06,0-.1,.02-.16,.02-.26,0-.48-.2-.48-.48,0-.68-.02-1.36-.1-2.02-.06-.64-.16-1.3-.18-1.94-.02-.66,0-1.32,0-1.98,.02-1.32,.08-2.64,.08-3.98v-.98c0-.26-.02-.52,0-.78,.02-.28,.06-.54,.08-.82,.04-.36,.08-.72,.08-1.08,0-.08,0-.16-.02-.24v-.08c-.18-.14-.2-.42-.1-.62,.08-.14,.2-.18,.34-.22,.06-.04,.12-.04,.18-.04,1.52,.02,3.04-.2,4.56-.02,.26,.02,.48,.2,.48,.48,0,.24-.22,.52-.48,.5-1.34-.16-2.66,0-3.98,.02v.28c0,.36-.04,.72-.08,1.08-.02,.26-.08,.52-.08,.78-.02,.62,0,1.24,0,1.86,0,.58-.02,1.14-.04,1.72,.48,0,.96,.02,1.44,.02,.24,0,.48,0,.72-.02,.12,0,.22,0,.34-.02,.02,0,.06,0,.08-.02,.06,0,.1-.02,.16-.02,.26-.06,.54,.06,.6,.34,.08,.24-.08,.56-.34,.6-1,.2-2.02,.1-3.02,.1,0,.42-.02,.86-.02,1.28,0,.66-.02,1.32,.02,1.98,.02,.64,.12,1.28,.18,1.94,.04,.46,.06,.92,.08,1.4,1.34,.02,2.66-.1,4-.1,.28,0,.5,.22,.5,.48Z"/><path class="cls-1" d="M97.74,116.11c-.55,0-.98-.43-.98-.98,0-.81-.03-1.41-.1-1.96-.02-.22-.04-.43-.07-.64-.05-.45-.1-.9-.11-1.34-.01-.45,0-.89,0-1.34v-.65c.01-.54,.03-1.07,.04-1.61,.02-.79,.04-1.58,.04-2.38v-1.23c0-.19-.01-.38,0-.57,0-.14,.03-.28,.04-.43,.01-.13,.03-.26,.04-.39,.04-.36,.08-.7,.08-1.05,0-.04,0-.09,0-.11-.2-.29-.24-.7-.06-1.05,.17-.31,.43-.41,.59-.46,.29-.14,.43-.07,.57-.07,.5,0,.99-.02,1.49-.05,.96-.04,1.94-.09,2.93,.03,.52,.04,.92,.45,.92,.98,0,.27-.13,.55-.34,.75-.19,.18-.43,.26-.68,.25-.91-.11-1.79-.07-2.72-.02-.24,.01-.49,.02-.73,.03-.01,.31-.04,.62-.08,.93,0,.1-.02,.21-.04,.33-.02,.13-.04,.26-.04,.4-.01,.42,0,.83,0,1.23v.63c0,.41,0,.82-.02,1.23h.21c.25,0,.5,.02,.75,.01,.21,0,.43,0,.64-.02,.09,0,.16,0,.22,0l.04-.04h.2s.06-.01,.1-.02c.26-.05,.53,0,.74,.14,.21,.14,.36,.35,.41,.6,.07,.21,.03,.51-.12,.76-.15,.24-.38,.4-.64,.44-.78,.16-1.58,.14-2.36,.12h-.25s0,.09,0,.14c0,.21-.01,.42-.01,.63v.49c0,.49,0,.97,.02,1.46,.01,.42,.06,.82,.11,1.23,.03,.23,.05,.46,.07,.69,.03,.31,.05,.63,.06,.95,.55,0,1.11-.03,1.66-.05,.62-.03,1.24-.05,1.86-.05,.55,0,1,.44,1,.98s-.46,1-1,1c-.61,0-1.23,.02-1.84,.04-.82,.03-1.68,.06-2.51,.04-.03,.01-.08,.02-.15,.02Zm.02-.99h0Zm-.11-14.27l-.07,.02,.12,.1v-.12h-.05Z"/></g><g><path class="cls-1" d="M46.5,125.35c-.92,.16-1.84,.1-2.76,.08,.02,.04,.02,.08,.02,.14,0,1.86-.04,3.74-.08,5.62-.02,1.32-.06,2.66-.08,3.98,0,.66-.02,1.34,0,2,.02,.66,.06,1.3,.06,1.96,0,.28-.22,.48-.48,.48-.28,0-.5-.2-.5-.48,0-.46-.02-.94-.04-1.42-.02-.46-.02-.92-.02-1.38,.02-.92,.02-1.86,.04-2.8,.04-2.64,.12-5.3,.12-7.96,0-.06,.02-.1,.02-.16-.72,0-1.44,.02-2.18,.02-.26,0-.48-.22-.48-.5,0-.26,.22-.48,.48-.48,.98,0,1.96-.04,2.94-.02,.46,0,.94,.04,1.4,.04h.72c.1,0,.22-.02,.34-.02,.04-.02,.08-.02,.12-.02s.08-.02,.1-.02c.26-.04,.52,.06,.6,.34,.08,.24-.08,.56-.34,.6Z"/><path class="cls-1" d="M43.18,140.11c-.56,0-1-.43-1-.98,0-.43-.02-.88-.04-1.33-.02-.54-.02-1-.02-1.47,.01-.48,.02-.96,.02-1.44,0-.46,0-.91,.02-1.37,.01-.87,.03-1.75,.05-2.63,.03-1.66,.07-3.32,.07-4.98-.18,0-.36,0-.55,0-.37,0-.74,.01-1.11,.01-.54,0-.98-.45-.98-1s.44-.98,.98-.98c.39,0,.77,0,1.16-.01,.6,0,1.19-.02,1.79,0,.19,0,.47,0,.71,.02,.23,0,.46,.02,.68,.02h.83s.1-.02,.14-.02c.09-.02,.16-.02,.21-.02-.04,0,.02-.02,.1-.02,.46-.08,.94,.21,1.08,.7,.08,.24,.04,.55-.11,.8-.14,.24-.37,.39-.63,.44-.79,.14-1.57,.12-2.32,.1,0,1.74-.04,3.5-.08,5.26-.01,.64-.02,1.29-.04,1.94-.02,.68-.03,1.36-.04,2.04v.66c0,.44-.01,.88,0,1.32l.02,.67c.02,.43,.04,.87,.04,1.31,0,.55-.43,.98-.98,.98Z"/></g><g><path class="cls-1" d="M56.1,139.01c0,.26-.22,.48-.5,.48-1.22,0-2.46,.04-3.7,.04-.24,0-.46-.18-.48-.44-.02-.04-.04-.1-.04-.16,.06-1.1,0-2.2-.02-3.28-.02-.92,.02-1.84,.08-2.76-.46,.18-.94,.34-1.44,.48-.24,.06-.52-.08-.6-.34-.06-.26,.1-.54,.34-.6,.62-.16,1.2-.38,1.78-.62,.02-.44,.06-.86,.06-1.3,.02-.64-.06-1.28-.1-1.92-.06-.66-.08-1.3-.06-1.94,.02-.66,.04-1.3,.04-1.94,0-.28,.22-.5,.5-.5,.26,0,.48,.22,.48,.5,0,.54,0,1.08-.02,1.62-.02,.56-.04,1.1,0,1.64s.1,1.06,.12,1.6c.02,.54,.02,1.06,0,1.6,0,.08,0,.16-.02,.24,.18-.08,.36-.14,.54-.2,.1-.04,.18-.08,.28-.12,.02,0,.1-.04,.1-.04,.02,0,.04-.02,.06-.02,.16-.08,.32-.16,.46-.26,.22-.14,.54-.04,.66,.18,.14,.24,.06,.54-.16,.68-.34,.22-.74,.36-1.1,.5-.3,.12-.6,.22-.9,.34-.06,.86-.12,1.7-.12,2.54,0,1.18,.08,2.36,.04,3.54,1.08,0,2.14-.04,3.22-.04,.28,0,.5,.22,.5,.5Z"/><path class="cls-1" d="M51.9,140.03c-.48,0-.89-.35-.97-.81-.03-.08-.05-.18-.05-.29,.04-.84,.02-1.67,0-2.47l-.02-.8c-.01-.62,0-1.27,.04-2.04-.25,.08-.5,.16-.76,.23-.52,.13-1.06-.17-1.21-.67-.13-.56,.19-1.11,.7-1.23,.51-.13,.99-.31,1.42-.48v-.14c.02-.27,.04-.54,.04-.82,.01-.45-.02-.88-.06-1.33l-.04-.56c-.06-.68-.08-1.33-.06-1.99,.02-.69,.04-1.31,.04-1.92,0-.55,.45-1,1-1s.98,.45,.98,1,0,1.09-.02,1.64c-.02,.55-.04,1.07,0,1.58l.05,.54c.03,.36,.06,.71,.08,1.08,.01,.38,.02,.75,.01,1.12l.31-.13c.11-.06,.21-.11,.31-.18,.24-.15,.51-.2,.77-.13,.27,.07,.49,.24,.62,.47,.27,.46,.12,1.05-.33,1.34-.34,.22-.72,.36-1.05,.49l-.14,.05c-.15,.06-.3,.12-.46,.17-.05,.02-.1,.04-.15,.05-.05,.76-.1,1.47-.1,2.19,0,.47,.01,.93,.03,1.4,.01,.54,.03,1.09,.02,1.64,.36,0,.73,0,1.09-.02,.54-.01,1.08-.02,1.62-.02s1,.44,1,1-.45,.98-1,.98c-.61,0-1.22,0-1.83,.02-.62,.01-1.25,.02-1.87,.02Zm.02-.98h0Z"/></g><g><path class="cls-1" d="M64.44,135.31c-.04,.42-.08,.84-.08,1.26-.02,.42-.06,.82-.12,1.22-.06,.38-.18,.78-.4,1.1-.26,.36-.62,.64-1.06,.74-.44,.1-.92,.12-1.38,.06-.48-.08-.94-.18-1.36-.44-.44-.28-.76-.66-.96-1.12-.1-.24-.14-.5-.18-.74-.06-.34-.08-.68-.1-1-.02-.62,0-1.24,0-1.84,0-.64-.04-1.28-.04-1.92-.02-.68,0-1.34,.02-2,0-.66,.02-1.3-.04-1.96-.04-.32-.08-.62-.1-.94-.04-.32-.04-.64-.04-.96,.02-.64,.08-1.3,.08-1.94,0-.28,.22-.5,.5-.5,.26,0,.48,.22,.48,.5,0,.94-.14,1.9-.04,2.86,.04,.46,.12,.94,.14,1.4,.02,.48,0,.94,0,1.42-.02,.66-.04,1.32-.02,2,0,.64,.04,1.28,.04,1.92s-.02,1.22,0,1.84c0,.16,0,.32,.02,.48,0,.06,.02,.14,.02,.22,0,.02,.02,.06,.02,.1v.02c.04,.22,.06,.46,.16,.68,0,.02,.04,.1,.06,.12,.02,.06,.04,.1,.06,.14l.04,.04s.06,.06,.08,.1l.12,.12s.04,.02,.04,.04c.08,.04,.16,.1,.24,.14,.04,.02,.1,.04,.14,.08h.04v.02c.1,.02,.2,.06,.3,.08,.1,.04,.2,.06,.32,.08h.04c.06,0,.1,.02,.16,.02,.2,0,.42,0,.64-.02h.08s.08-.02,.12-.02c.06-.02,.1-.02,.14-.04,.02,0,.02-.02,.04-.02,.06-.02,.12-.06,.16-.08l.16-.16s.04-.08,.06-.1l.06-.12s.04-.06,.04-.08c.06-.14,.1-.28,.12-.44,.02-.08,.04-.14,.04-.22,.02-.04,.02-.08,.02-.1,0-.04,0-.08,.02-.12l.06-1.08c.02-.54,.08-1.08,.1-1.62,.04-.62,.04-1.26,.04-1.88-.02-.64-.08-1.26-.12-1.88-.04-.66-.06-1.32-.06-1.98-.02-1.3-.02-2.62-.12-3.92-.02-.26,.24-.48,.48-.48,.28,0,.48,.22,.5,.48,.08,1.12,.08,2.24,.1,3.38,0,1.1,.06,2.22,.14,3.32,.08,1.24,.08,2.5-.02,3.74Z"/><path class="cls-1" d="M61.92,140.23c-.2,0-.39-.01-.59-.04-.49-.08-1.05-.19-1.56-.51-.52-.33-.91-.78-1.15-1.35-.12-.29-.17-.57-.21-.82-.07-.39-.09-.75-.11-1.08-.02-.44-.01-.86,0-1.28v-.6c0-.32,0-.63-.02-.94-.01-.33-.02-.65-.02-.98-.02-.67,0-1.34,.02-2.01v-.39c0-.52,0-1.01-.04-1.51v-.08c-.05-.29-.08-.57-.1-.87-.04-.31-.04-.65-.04-.99,0-.27,.02-.53,.04-.79,.02-.38,.04-.77,.04-1.15,0-.56,.44-1,1-1s.98,.45,.98,1c0,.35-.02,.71-.04,1.07-.03,.6-.06,1.17,0,1.74,.02,.18,.04,.36,.06,.54,.04,.3,.07,.6,.08,.89,.01,.33,0,.65,0,.97v.47c-.02,.7-.04,1.33-.02,1.99,0,.33,0,.64,.02,.96,0,.33,.02,.65,.02,.98v.62c0,.4-.01,.79,0,1.2,0,.16,0,.3,.02,.44,.01,.1,.02,.16,.02,.21,.01,.04,.02,.1,.02,.17l.02,.09c.02,.15,.05,.3,.1,.41l.09,.12v.04l.05,.06h.27l.02,.24s.03,.01,.05,.02h.36v.13c.1,.03,.16,.04,.24,.05,.02,0,.08,0,.13,.01,.17,0,.38,0,.58-.02h.1s.06-.02,.08-.02c.02-.01,.05-.02,.07-.03l.08-.07s.03-.04,.04-.07l.07-.15c.04-.1,.06-.19,.08-.29l.06-.3s0-.1,.02-.17l.06-1.01c0-.27,.03-.54,.05-.82,.02-.26,.04-.53,.05-.79,.04-.62,.04-1.25,.04-1.86-.01-.41-.04-.83-.08-1.24l-.04-.61c-.04-.67-.06-1.34-.06-2.01v-.63c-.02-1.07-.04-2.18-.12-3.25-.02-.25,.07-.5,.25-.69,.19-.21,.46-.33,.73-.33,.53,0,.96,.41,1,.94,.06,.91,.08,1.83,.09,2.72v.69c.01,.95,.05,2,.15,3.29,.08,1.31,.08,2.6-.02,3.82h0c-.04,.41-.08,.82-.08,1.22-.02,.46-.06,.88-.13,1.29-.08,.53-.25,.96-.48,1.31-.36,.5-.83,.82-1.36,.94-.31,.07-.64,.11-.97,.11Zm-1.24-1.89l-.04,.14,.07-.14h-.03Zm2.16-1.1s-.01,.02-.02,.04l.02-.04Z"/></g><g><path class="cls-1" d="M72.3,134.75c.14,.56,.2,1.18,.12,1.76-.08,.64-.26,1.24-.62,1.76-.28,.42-.6,.82-1.02,1.1-.4,.26-.88,.4-1.36,.4-.5,.02-1.06-.08-1.46-.36-.4-.28-.66-.66-.78-1.12-.12-.44-.16-.9-.16-1.34,0-.26,.22-.48,.5-.48,.26,0,.48,.22,.48,.48,0,.2,0,.38,.02,.56,0,.04,.02,.1,.02,.14v.02c.02,.1,.04,.18,.06,.26l.06,.24s.02,.02,.02,.02c.02,.04,.04,.08,.04,.1,.02,.04,.06,.08,.08,.12,0,0,.02,.02,.02,.04l.12,.12s.02,.02,.04,.02c.04,.04,.08,.06,.12,.08,.02,0,.04,.02,.06,.02,.04,.02,.08,.04,.12,.04l.18,.06h.08c.12,.02,.24,.02,.36,.02,.06,0,.12-.02,.18-.02h.06c.1-.02,.2-.04,.28-.08,.04,0,.12-.04,.14-.04,.02-.02,.04-.02,.06-.04,.08-.04,.16-.1,.22-.14l.06-.06s.08-.06,.12-.1c.06-.06,.14-.14,.2-.22,.02-.02,.04-.04,.06-.08,.04-.04,.06-.08,.1-.12,.06-.12,.14-.22,.2-.32,.04-.08,.08-.16,.12-.22,0-.04,.02-.06,.04-.1,.06-.14,.1-.26,.12-.4,.04-.12,.08-.26,.1-.4v-.12c.02-.06,.02-.14,.02-.2,0-.14,0-.28-.02-.44v-.2s-.02-.04-.02-.06v-.04c-.04-.28-.12-.58-.2-.84-.04-.08-.06-.16-.08-.24-.02-.02-.02-.04-.02-.06h-.02c-.04-.1-.1-.22-.14-.3-.06-.12-.14-.22-.2-.32-.02-.02-.08-.1-.08-.1-.02-.02-.04-.06-.06-.08-.56-.74-1.4-1.24-2.02-1.94-.32-.34-.6-.74-.8-1.18-.18-.42-.3-.88-.36-1.34-.08-.5-.1-1-.06-1.5,.04-.48,.12-.96,.3-1.4,.18-.46,.44-.92,.82-1.26,.38-.34,.86-.54,1.4-.54s1.08,.16,1.52,.46c.48,.34,.88,.8,1.04,1.38,.06,.26-.08,.54-.34,.6-.26,.08-.54-.08-.6-.34-.02-.06-.02-.1-.04-.16-.02-.02-.04-.04-.04-.06-.04-.06-.06-.12-.1-.16,0-.02-.06-.08-.06-.08-.06-.08-.12-.14-.18-.2-.04-.02-.08-.06-.1-.08-.02-.02-.08-.06-.1-.06-.08-.06-.18-.12-.28-.16l-.04-.04h-.02s-.1-.04-.14-.04c-.06-.02-.1-.04-.16-.04-.02-.02-.1-.02-.12-.02-.06-.02-.14-.02-.22-.02h-.18s-.02,.02-.02,.02h-.02c-.06,0-.14,.02-.2,.04-.02,.02-.1,.06-.12,.06-.04,.04-.08,.06-.12,.08l-.16,.16c-.06,.04-.1,.1-.14,.16-.02,.02-.04,.04-.04,.06-.06,.08-.12,.16-.16,.24-.04,.06-.08,.14-.12,.22,0,.02-.02,.08-.04,.1-.02,.06-.02,.1-.04,.16-.08,.2-.12,.42-.16,.64,0,.04-.02,.16-.02,.16,0,.02,0,.06-.02,.1,0,.1-.02,.22-.02,.32,0,.24,0,.48,.02,.7,0,.08,0,.14,.02,.2,0,.02,.02,.12,.02,.14,0,.08,.02,.16,.04,.24,.04,.22,.1,.42,.16,.64,.02,.04,.04,.1,.06,.16l.02,.02v.02l.12,.24c.06,.1,.14,.2,.2,.3,.02,.02,.08,.12,.08,.12l.08,.08c.14,.18,.3,.34,.48,.5,.68,.68,1.46,1.26,2.02,2.06,.3,.46,.5,.98,.62,1.52Z"/><path class="cls-1" d="M69.28,140.27c-.6,0-1.19-.16-1.61-.45-.5-.34-.82-.82-.98-1.4-.12-.43-.18-.91-.18-1.47s.45-.98,1-.98,.98,.44,.98,.98c0,.18,0,.34,.02,.51,.02,.08,.02,.15,.02,.19,0,0,0,0,0,.02h.11l.02,.4h0v.02l.26,.16,.19,.04c.09,.02,.19,.01,.28,.01,.06-.01,.12-.02,.18-.02,0,0,.09-.02,.12-.03l.2-.08s.08-.05,.12-.07l.16-.12c.04-.05,.1-.12,.15-.18l.1-.13s.03-.04,.04-.05c.04-.07,.08-.14,.12-.2l.06-.09s.03-.06,.05-.1l.09-.19c.04-.09,.06-.17,.07-.25,.05-.18,.08-.29,.1-.4v-.13l.02-.08c0-.16,0-.29-.02-.42l-.02-.32c-.02-.18-.09-.44-.18-.73-.02-.03-.03-.08-.05-.13l-.05-.05v-.09c-.04-.09-.09-.19-.13-.26-.03-.06-.06-.11-.1-.16l-.06-.09s-.08-.09-.08-.09c-.34-.44-.7-.75-1.08-1.08-.33-.28-.67-.57-.97-.91-.37-.39-.67-.83-.88-1.3-.2-.46-.33-.97-.4-1.48-.08-.52-.11-1.07-.06-1.6,.05-.62,.16-1.12,.34-1.55,.24-.6,.56-1.09,.95-1.44,.97-.87,2.5-.83,3.54-.12,.64,.45,1.06,1.02,1.24,1.66,.13,.56-.19,1.1-.71,1.22-.22,.07-.51,.04-.74-.1-.23-.13-.4-.36-.46-.62h0l-.06-.06v-.08l-.02-.02-.15-.15v-.03s-.02-.02-.03-.03c-.02-.01-.03-.02-.04-.03h0l-.13-.1c-.05-.04-.12-.08-.17-.1l-.22-.09-.5-.02s-.05,.03-.08,.04c-.03,.02-.05,.03-.07,.05l-.24,.28c-.04,.05-.08,.11-.11,.16-.04,.07-.07,.12-.09,.17-.01,.04-.03,.08-.05,.12,0,.04-.02,.08-.03,.12-.08,.2-.11,.39-.14,.58h0l-.02,.15s0,.03-.02,.12c0,.04,0,.07,0,.11,0,.04,0,.08,0,.12,0,.22,0,.45,.02,.66l-.49,.16,.5-.05,.03,.08v.19s.03,.08,.04,.12c.04,.21,.08,.37,.13,.53l.03,.1s0,0,0,.01l.07,.07v.12l.09,.16s.03,.05,.06,.09c.03,.05,.07,.1,.1,.15,.02,.02,.04,.05,.07,.1l.04,.04c.16,.2,.3,.34,.46,.48,.23,.23,.44,.42,.66,.62,.5,.46,1.02,.93,1.44,1.53,.33,.5,.56,1.06,.7,1.69,.17,.67,.21,1.35,.13,1.94-.1,.79-.33,1.43-.7,1.98-.26,.38-.62,.88-1.15,1.23-.48,.31-1.06,.48-1.64,.48-.05,0-.09,0-.14,0Zm-.43-2.04h0Zm1.02-.03h0Zm1.6-11.92l-.03,.03,.07-.04h-.04Zm.46-.24l.03,.16s0-.09-.02-.13v-.03Zm-3.1-.8h0Z"/></g><g><path class="cls-1" d="M76.86,137.81c-.1,.32-.24,.62-.38,.92,.66,0,1.34,0,2.02-.02,.42,0,.86-.02,1.3,0,.2,.02,.42,.02,.62,0h.22c.1-.02,.2-.04,.28-.08,.26-.06,.54,.1,.6,.36,.08,.26-.08,.52-.34,.58-.44,.12-.9,.12-1.34,.1h-1.3c-.96,.02-1.9,.04-2.86,.04-.06,0-.1-.02-.16-.04-.02,0-.06-.02-.08-.04-.08-.04-.14-.1-.18-.16-.04-.06-.08-.14-.08-.24,0-.08,.04-.16,.06-.22l.02-.02c.08-.18,.18-.34,.26-.5l.18-.42s.06-.1,.08-.14c0-.02,.02-.04,.02-.04,0-.04,.02-.08,.04-.1,.1-.28,.18-.58,.28-.86,.1-.3,.2-.6,.34-.9l.24-.54c.02-.06,.06-.14,.08-.2,.02-.02,.02-.06,.04-.08,0-.02,.02-.04,.02-.06,.24-.56,.36-1.2,.52-1.8l.24-.9c.08-.3,.22-.6,.34-.9,.26-.62,.52-1.24,.8-1.88,.02-.04,.04-.08,.06-.14,0,0,.02-.02,.02-.04,.04-.06,.06-.12,.08-.18,.04-.12,.1-.26,.14-.4,.1-.3,.18-.58,.28-.88,.18-.58,.38-1.16,.7-1.66,.16-.24,.32-.44,.46-.68,.04-.04,.06-.1,.1-.16-1.7-.08-3.38-.02-5.08-.02-.26,0-.48-.24-.48-.5s.22-.48,.48-.48c1.9,0,3.8-.08,5.68,.06,.2,.02,.38,.14,.46,.32,.1,.12,.14,.28,.08,.44-.06,.2-.14,.4-.24,.6-.26,.46-.62,.86-.86,1.34l-.06,.12v.02c-.04,.08-.06,.14-.08,.2-.06,.14-.1,.28-.14,.42-.1,.28-.18,.58-.28,.88-.08,.28-.18,.58-.3,.86l-.42,.96s-.04,.08-.06,.14c0,0-.02,.04-.02,.06-.04,.06-.06,.12-.08,.18-.06,.14-.12,.28-.18,.44-.12,.3-.26,.6-.36,.9-.2,.58-.34,1.2-.5,1.8-.08,.3-.16,.6-.26,.9-.12,.32-.26,.64-.4,.96,0,.02-.04,.1-.04,.1-.02,.02-.02,.04-.02,.06-.04,.08-.06,.14-.1,.22-.06,.14-.1,.28-.16,.42-.12,.3-.2,.6-.3,.88Z"/><path class="cls-1" d="M75.68,140.21c-.13,0-.23-.03-.29-.05-.09-.02-.17-.07-.23-.1-.13-.07-.24-.18-.32-.3-.11-.17-.17-.34-.17-.52,0-.15,.05-.28,.08-.35l.07-.15c.05-.1,.1-.2,.15-.29l.37-.79s.03-.06,.04-.08c.04-.11,.07-.23,.11-.34,.05-.15,.1-.31,.15-.46,.1-.31,.21-.62,.36-.94l.24-.53h0s.02-.05,.04-.1l.1-.24c.16-.37,.26-.79,.37-1.24,.04-.17,.08-.33,.12-.49l.24-.9c.07-.25,.17-.5,.27-.74l.09-.21c.26-.63,.52-1.25,.81-1.9l.2-.48c.03-.07,.05-.14,.08-.22,.06-.17,.1-.32,.15-.47l.14-.43c.17-.56,.39-1.21,.75-1.77l.07-.1c-.88-.02-1.77-.01-2.63,0-.51,0-1.02,.01-1.54,.01s-.98-.46-.98-1,.44-.98,.98-.98c.51,0,1.01,0,1.52-.01,1.38-.01,2.8-.03,4.2,.07,.37,.04,.69,.25,.85,.55,.19,.26,.23,.58,.12,.88-.06,.19-.15,.42-.26,.65-.14,.24-.28,.45-.43,.65-.16,.22-.31,.44-.44,.69l-.06,.14s-.04,.09-.05,.12c-.07,.17-.1,.29-.14,.41-.06,.18-.11,.34-.16,.5-.04,.13-.08,.27-.13,.41-.08,.28-.19,.6-.31,.9l-.58,1.34c-.06,.13-.11,.27-.17,.42l-.14,.33c-.08,.18-.15,.37-.22,.55-.14,.42-.26,.85-.37,1.29l-.13,.49c-.08,.31-.17,.62-.27,.93-.12,.33-.26,.65-.4,.96,0,.03-.02,.06-.04,.09v.02l-.15,.33s-.04,.1-.06,.16c-.03,.08-.06,.16-.09,.23-.06,.16-.12,.33-.17,.5-.04,.12-.07,.23-.11,.35-.03,.09-.06,.17-.09,.26,.41,0,.83,0,1.24-.02h.43c.3-.01,.6-.01,.91,0,.2,.02,.38,.02,.55,0h.26s.04-.02,.07-.03l.11-.04c.53-.12,1.08,.21,1.2,.73,.07,.22,.04,.49-.09,.72-.13,.23-.36,.4-.62,.46-.49,.13-1,.13-1.47,.11h-1.45c-.9,.02-1.79,.04-2.69,.04Zm-.49-1.07l.28,.08-.08-.07h-.21Zm1.69-2.84l.49,.08-.26-.11h-.19v-.06h0s-.02,.06-.04,.09Z"/></g><g><path class="cls-1" d="M90.16,137.37c-.16,.62-.46,1.26-.94,1.68-.26,.24-.54,.42-.86,.5-.36,.1-.72,.14-1.06,.1-.24-.02-.48-.1-.7-.14-.26-.1-.54-.14-.74-.32-.28-.12-.46-.32-.64-.54-.16-.24-.28-.54-.36-.78-.38-1.18-.48-2.44-.54-3.66-.06-1.28-.06-2.56,.04-3.86,.04-.66,.12-1.34,.2-2,.08-.54,.16-1.1,.32-1.6,.2-.58,.48-1.12,.9-1.56,.16-.2,.36-.36,.6-.5,.24-.12,.5-.22,.8-.28,.5-.08,1.06-.02,1.52,.24,.5,.28,.82,.78,.88,1.36,.04,.28-.2,.5-.46,.52-.28,.02-.48-.2-.52-.48v-.06s-.02-.1-.04-.14t-.02-.04s-.04-.06-.06-.1c0-.02-.02-.02-.02-.04-.04-.02-.06-.04-.1-.06,0-.02-.04-.06-.06-.06-.02-.02-.04-.02-.06-.04-.04-.02-.08-.04-.14-.08h-.04c-.08,0-.16-.04-.24-.04-.02-.02-.08-.02-.1-.02h-.06c-.1,0-.2,0-.3,.02h-.08c-.06,.02-.12,.02-.16,.06-.06,.02-.1,.02-.16,.04,0,0,0,.02-.02,.02-.1,.06-.2,.12-.3,.2-.02,.02-.04,.02-.04,.04-.04,.04-.1,.08-.14,.12s-.06,.08-.12,.14c-.02,.04-.04,.06-.06,.08t-.02,.02c-.06,.12-.14,.22-.18,.34-.08,.12-.14,.24-.18,.4-.02,.02-.04,.04-.04,.08-.04,.06-.06,.12-.08,.18-.14,.54-.22,1.08-.28,1.66-.04,.32-.08,.62-.12,.94,0,.1,0,.18-.02,.28,0,.04-.02,.08-.02,.1v.04c0,.14-.02,.3-.04,.46-.08,1.28-.04,2.56,.02,3.84,.04,.62,.06,1.24,.16,1.86,.02,.08,.02,.14,.04,.22l.02,.02s0,.06,.02,.1c.02,.12,.04,.26,.08,.4,.06,.28,.14,.54,.26,.8,0,.02,.02,.06,.02,.08,.02,0,.02,.02,.02,.02,.02,.06,.06,.1,.08,.16,.02,0,.02,.02,.04,.04,.04,.04,.08,.08,.14,.1l.06,.06s.08,.06,.14,.08c.04,.04,.08,.06,.14,.08,.02,.02,.1,.04,.12,.04,.2,.08,.42,.12,.62,.18,.06,.02,.14,.04,.2,.02,.02,0,.04,.02,.06,.02h.34s.06-.04,.08-.04c.04,0,.1-.02,.14-.04,.04,0,.12-.04,.12-.04,0-.02,.02-.02,.06-.04,.04-.04,.1-.08,.14-.1,.02-.02,.04-.04,.06-.04,.08-.08,.16-.14,.22-.22,.02-.06,.06-.1,.1-.14v-.02s.02-.02,.04-.04c.06-.08,.12-.18,.14-.28,.04-.06,.06-.1,.1-.16,0-.02,.04-.12,.04-.12,.04-.1,.06-.18,.08-.28,.08-.24,.32-.4,.58-.36,.28,.06,.44,.34,.38,.58Z"/><path class="cls-1" d="M87.57,140.17c-.11,0-.22,0-.33-.02-.16-.01-.34-.05-.51-.09-.08-.02-.15-.04-.22-.05-.15-.05-.22-.07-.29-.09-.19-.06-.42-.13-.63-.29-.34-.17-.56-.41-.76-.65-.19-.27-.33-.58-.45-.94-.41-1.28-.51-2.63-.57-3.79-.07-1.42-.05-2.7,.04-3.92,.04-.66,.12-1.35,.2-2.02,.09-.61,.17-1.17,.34-1.69,.25-.73,.58-1.3,1.01-1.75,.16-.21,.4-.41,.71-.59,.34-.17,.64-.28,.95-.34,.68-.11,1.34,0,1.87,.29,.64,.36,1.05,1,1.13,1.74,.03,.24-.04,.49-.2,.69-.18,.22-.44,.36-.72,.38-.53,.02-.97-.34-1.05-.91l-.05-.1-.2-.11s-.03,0-.04-.01l-.24-.03s-.08,0-.12,.01h0v.11h-.37s-.08,.06-.11,.09l-.03,.03s-.07,.06-.11,.09c-.04,.04-.06,.07-.09,.1l-.04,.05s-.04,.07-.07,.1l-.03,.05s-.05,.09-.06,.11l-.06,.12c-.06,.09-.09,.15-.11,.24l-.11,.23c-.13,.49-.21,.97-.28,1.62l-.12,.95c0,.07,0,.18-.02,.31v.05c-.01,.18-.03,.35-.06,.51-.07,1.16-.04,2.35,.02,3.75l.02,.37c.03,.5,.06,.96,.13,1.43,0,.01,0,.04,.01,.06l.03,.04,.03,.24c.02,.13,.04,.24,.07,.34,.06,.3,.14,.52,.23,.73l.05,.11v.03l.09,.09h.03l.33,.18c.11,.04,.23,.07,.34,.1l.49,.08,.33-.08s.07-.05,.1-.07l.13-.11,.03-.03s.02-.03,.03-.04v-.32h.21l.06-.12h.03s.03-.1,.06-.19c.03-.07,.04-.13,.05-.2,.18-.54,.65-.83,1.15-.75,.29,.06,.52,.22,.67,.45,.14,.22,.19,.5,.12,.74h0c-.15,.58-.46,1.38-1.09,1.94-.34,.31-.69,.51-1.07,.61-.31,.09-.62,.13-.91,.13Zm-1.67-1.53h0Zm.84-.64l.08,.04s-.06-.03-.08-.04Zm2.11-.45l.18,.08-.08-.08h-.1Zm-2.81-1.05v.03s0-.02,0-.03Zm-.2-6.33v0Zm0-.08h0Z"/></g><g><path class="cls-1" d="M94.52,137.81c-.1,.32-.24,.62-.38,.92,.66,0,1.34,0,2.02-.02,.42,0,.86-.02,1.3,0,.2,.02,.42,.02,.62,0h.22c.1-.02,.2-.04,.28-.08,.26-.06,.54,.1,.6,.36,.08,.26-.08,.52-.34,.58-.44,.12-.9,.12-1.34,.1h-1.3c-.96,.02-1.9,.04-2.86,.04-.06,0-.1-.02-.16-.04-.02,0-.06-.02-.08-.04-.08-.04-.14-.1-.18-.16-.04-.06-.08-.14-.08-.24,0-.08,.04-.16,.06-.22l.02-.02c.08-.18,.18-.34,.26-.5l.18-.42s.06-.1,.08-.14c0-.02,.02-.04,.02-.04,0-.04,.02-.08,.04-.1,.1-.28,.18-.58,.28-.86,.1-.3,.2-.6,.34-.9l.24-.54c.02-.06,.06-.14,.08-.2,.02-.02,.02-.06,.04-.08,0-.02,.02-.04,.02-.06,.24-.56,.36-1.2,.52-1.8l.24-.9c.08-.3,.22-.6,.34-.9,.26-.62,.52-1.24,.8-1.88,.02-.04,.04-.08,.06-.14,0,0,.02-.02,.02-.04,.04-.06,.06-.12,.08-.18,.04-.12,.1-.26,.14-.4,.1-.3,.18-.58,.28-.88,.18-.58,.38-1.16,.7-1.66,.16-.24,.32-.44,.46-.68,.04-.04,.06-.1,.1-.16-1.7-.08-3.38-.02-5.08-.02-.26,0-.48-.24-.48-.5s.22-.48,.48-.48c1.9,0,3.8-.08,5.68,.06,.2,.02,.38,.14,.46,.32,.1,.12,.14,.28,.08,.44-.06,.2-.14,.4-.24,.6-.26,.46-.62,.86-.86,1.34l-.06,.12v.02c-.04,.08-.06,.14-.08,.2-.06,.14-.1,.28-.14,.42-.1,.28-.18,.58-.28,.88-.08,.28-.18,.58-.3,.86l-.42,.96s-.04,.08-.06,.14c0,0-.02,.04-.02,.06-.04,.06-.06,.12-.08,.18-.06,.14-.12,.28-.18,.44-.12,.3-.26,.6-.36,.9-.2,.58-.34,1.2-.5,1.8-.08,.3-.16,.6-.26,.9-.12,.32-.26,.64-.4,.96,0,.02-.04,.1-.04,.1-.02,.02-.02,.04-.02,.06-.04,.08-.06,.14-.1,.22-.06,.14-.1,.28-.16,.42-.12,.3-.2,.6-.3,.88Z"/><path class="cls-1" d="M93.34,140.21c-.13,0-.23-.03-.29-.05-.09-.02-.17-.07-.23-.1-.13-.07-.24-.18-.32-.3-.11-.17-.17-.34-.17-.52,0-.15,.05-.28,.08-.35l.07-.15c.05-.1,.1-.2,.15-.29l.37-.79s.03-.06,.04-.08c.04-.11,.07-.23,.11-.34,.05-.15,.1-.31,.15-.46,.1-.31,.21-.62,.36-.94l.24-.53h0s.02-.05,.04-.1l.1-.24c.16-.37,.26-.79,.37-1.24,.04-.17,.08-.33,.12-.49l.24-.9c.07-.25,.17-.5,.27-.74l.09-.21c.26-.63,.52-1.25,.81-1.9l.2-.48c.03-.07,.05-.14,.07-.22,.06-.18,.1-.32,.15-.47l.14-.43c.17-.56,.39-1.21,.75-1.77l.07-.1c-.88-.02-1.77-.01-2.63,0-.51,0-1.02,.01-1.54,.01s-.98-.46-.98-1,.44-.98,.98-.98c.51,0,1.01,0,1.52-.01,1.38-.01,2.8-.03,4.2,.07,.37,.04,.69,.25,.85,.55,.19,.26,.23,.58,.12,.88-.06,.19-.15,.42-.26,.65-.14,.24-.28,.45-.43,.65-.16,.22-.31,.44-.44,.69l-.06,.14s-.04,.09-.05,.12c-.07,.17-.1,.29-.14,.41-.06,.18-.11,.34-.16,.5-.04,.13-.08,.27-.13,.41-.08,.28-.19,.6-.31,.9l-.58,1.34c-.06,.13-.11,.26-.17,.42l-.13,.32c-.08,.19-.16,.37-.22,.56-.14,.42-.26,.85-.37,1.29l-.13,.49c-.08,.31-.17,.62-.27,.93-.12,.33-.26,.65-.4,.96,0,.03-.02,.06-.04,.09v.02l-.15,.33s-.04,.1-.06,.16c-.03,.08-.06,.16-.09,.23-.06,.16-.12,.33-.17,.5-.04,.12-.07,.23-.11,.35-.03,.09-.06,.17-.09,.26,.41,0,.83,0,1.24-.02h.43c.3-.01,.6-.01,.91,0,.2,.02,.38,.02,.55,0h.26s.04-.02,.07-.03l.11-.04c.53-.12,1.08,.21,1.2,.73,.07,.22,.04,.49-.09,.72-.13,.23-.36,.4-.62,.46-.49,.13-1,.14-1.47,.11h-1.45c-.9,.02-1.79,.04-2.69,.04Zm-.49-1.07l.28,.08-.08-.07h-.21Zm1.69-2.84l.49,.08-.26-.11h-.19v-.06h0s-.02,.06-.04,.09Z"/></g><g><path class="cls-1" d="M107.7,139.01c0,.26-.22,.5-.5,.5-1.44,0-2.9,.12-4.34,.08-.06,0-.1,.02-.16,.02-.26,0-.48-.2-.48-.48,0-.68-.02-1.36-.1-2.02-.06-.64-.16-1.3-.18-1.94-.02-.66,0-1.32,0-1.98,.02-1.32,.08-2.64,.08-3.98v-.98c0-.26-.02-.52,0-.78,.02-.28,.06-.54,.08-.82,.04-.36,.08-.72,.08-1.08,0-.08,0-.16-.02-.24v-.08c-.18-.14-.2-.42-.1-.62,.08-.14,.2-.18,.34-.22,.06-.04,.12-.04,.18-.04,1.52,.02,3.04-.2,4.56-.02,.26,.02,.48,.2,.48,.48,0,.24-.22,.52-.48,.5-1.34-.16-2.66,0-3.98,.02v.28c0,.36-.04,.72-.08,1.08-.02,.26-.08,.52-.08,.78-.02,.62,0,1.24,0,1.86,0,.58-.02,1.14-.04,1.72,.48,0,.96,.02,1.44,.02,.24,0,.48,0,.72-.02,.12,0,.22,0,.34-.02,.02,0,.06,0,.08-.02,.06,0,.1-.02,.16-.02,.26-.06,.54,.06,.6,.34,.08,.24-.08,.56-.34,.6-1,.2-2.02,.1-3.02,.1,0,.42-.02,.86-.02,1.28,0,.66-.02,1.32,.02,1.98,.02,.64,.12,1.28,.18,1.94,.04,.46,.06,.92,.08,1.4,1.34,.02,2.66-.1,4-.1,.28,0,.5,.22,.5,.48Z"/><path class="cls-1" d="M102.7,140.11c-.55,0-.98-.43-.98-.98,0-.81-.03-1.41-.1-1.96-.02-.22-.04-.42-.07-.63-.05-.45-.1-.91-.12-1.36s0-.89,0-1.34v-.66c.01-.54,.03-1.07,.04-1.61,.02-.79,.04-1.58,.04-2.38v-1.23c0-.19-.01-.38,0-.57,0-.14,.03-.28,.04-.43,.01-.13,.03-.26,.04-.39,.04-.36,.08-.7,.08-1.04,0-.04,0-.09,0-.11-.2-.29-.24-.7-.06-1.05,.18-.31,.43-.41,.6-.46,.29-.14,.43-.07,.57-.07,.5,0,1-.02,1.49-.05,.96-.04,1.94-.09,2.93,.03,.53,.04,.92,.45,.92,.98,0,.27-.13,.55-.34,.75-.19,.18-.44,.26-.68,.25-.91-.11-1.79-.07-2.71-.02-.24,.01-.49,.02-.73,.03-.01,.31-.04,.62-.08,.93,0,.1-.02,.21-.04,.33-.02,.13-.04,.26-.04,.4-.01,.42,0,.83,0,1.24v.62c0,.41,0,.82-.02,1.23,.07,0,.14,0,.21,0,.25,0,.5,0,.75,0,.21,0,.43,0,.64-.02,.09,0,.16,0,.22,0l.04-.04h.2s.05-.01,.1-.02c.26-.05,.53,0,.74,.14,.21,.13,.36,.35,.41,.6,.07,.21,.03,.51-.12,.76-.15,.24-.38,.4-.64,.44-.78,.16-1.59,.14-2.36,.12-.08,0-.16,0-.24,0,0,.05,0,.1,0,.14,0,.21-.01,.42-.01,.63v.49c0,.49,0,.97,.02,1.46,.01,.42,.06,.82,.11,1.23,.03,.23,.05,.46,.07,.69,.03,.31,.05,.63,.06,.95,.55,0,1.11-.03,1.66-.05,.62-.03,1.24-.05,1.86-.05,.55,0,1,.44,1,.98s-.46,1-1,1c-.61,0-1.23,.02-1.84,.04-.82,.03-1.68,.06-2.51,.04-.03,.01-.08,.02-.15,.02Zm.02-.99h0Zm-.11-14.27l-.07,.02,.12,.1v-.12s-.03,0-.05,0Z"/></g></g><g><path class="cls-1" d="M64.04,50.64c-.46-2.65-1.25-6.22-2.59-10.33,.35,3.61,.89,6.87,1.49,9.67,.05,.03,.09,.06,.14,.08,.31,.17,.63,.37,.96,.57Z"/><path class="cls-1" d="M47.91,35.87c3.37,3.5,5.86,7,7.6,9.84,.54,.29,1.1,.59,1.67,.91-2.43-3.2-5.15-7.31-7.55-12.21-3.59-7.37-5.33-14.57-6.13-19.05,3.04,3.39,7.65,9.19,11.24,16.55,1.54,3.17,2.74,6.24,3.67,9.06-.26-2.64-.42-5.47-.42-8.44,0-.31,0-.62,0-.92-.16-.35-.33-.69-.5-1.04-6.11-12.53-14.78-20.48-15.15-20.82l-2.85-2.59,.29,3.85c.04,.47,.89,11.21,6.3,23.08,.61,.57,1.22,1.16,1.82,1.79h0Z"/><path class="cls-1" d="M43.7,44.07c-.6-.19-1.15-.35-1.65-.48,1.01,.99,2.01,1.9,2.99,2.74-.65-.84-1.05-1.58-1.16-2.2-.06-.02-.12-.04-.18-.06Z"/><path class="cls-1" d="M40.31,40.1s.03,0,.04,0c.45,.06,.94,.15,1.44,.26,.06,.01,.12,.02,.18,.03,.53,.12,1.1,.27,1.68,.44-.15-.15-.29-.29-.44-.44-3.64-3.78-6.28-7.79-7.95-10.72,2.86,1.77,6.78,4.55,10.43,8.33h0c1.65,1.71,3.07,3.43,4.3,5.07l.07,.03c.13,.05,.26,.1,.4,.16,.09,.04,.18,.08,.27,.12,.2,.09,.4,.17,.61,.27-1.52-2.35-3.05-4.98-4.47-7.9-.27-.56-.53-1.11-.78-1.67-6.71-6.31-13.49-9.42-13.8-9.56l-3.52-1.59,1.46,3.57c.13,.3,2.81,6.77,8.49,13.48,.49,0,1.02,.03,1.6,.11Z"/><path class="cls-1" d="M51.34,43.65c1.24,.56,2.64,1.25,4.17,2.06-1.74-2.84-4.23-6.34-7.6-9.84h0c-.6-.63-1.21-1.21-1.82-1.79,.25,.55,.51,1.11,.78,1.67,1.42,2.92,2.95,5.55,4.47,7.9Z"/><path class="cls-1" d="M51.34,43.65c1.24,.56,2.64,1.25,4.17,2.06-1.74-2.84-4.23-6.34-7.6-9.84h0c-.6-.63-1.21-1.21-1.82-1.79,.25,.55,.51,1.11,.78,1.67,1.42,2.92,2.95,5.55,4.47,7.9Z"/><path class="cls-1" d="M61.07,32.53c0-9.89,2.03-18.56,3.48-23.49,1.45,4.92,3.48,13.59,3.48,23.49,0,7.51-1.06,14.08-2.19,18.96,.05-.06,.12-.15,.2-.25,.71-.87,1.33-1.54,1.71-1.95,.58-.61,1.27-1.3,2.09-2.04,.72-4.23,1.26-9.21,1.26-14.72,0-15.91-4.92-28.42-5.12-28.94l-1.43-3.58-1.43,3.58c-.2,.52-4.93,12.55-5.12,28.02,1.43,3.06,2.56,6,3.45,8.71-.23-2.45-.38-5.06-.38-7.79Z"/><path class="cls-1" d="M68.52,53.56c.07-.28,.14-.58,.21-.87-.18,.21-.36,.44-.54,.65,.11,.07,.22,.14,.32,.22Z"/><path class="cls-1" d="M58.42,40.97c.92,2.8,1.59,5.36,2.05,7.53,.84,.49,1.66,.98,2.47,1.49-.6-2.8-1.14-6.06-1.49-9.67-.89-2.71-2.01-5.66-3.45-8.71,0,.31,0,.61,0,.92,0,2.98,.16,5.8,.42,8.44Z"/><path class="cls-1" d="M58.42,40.97c.92,2.8,1.59,5.36,2.05,7.53,.84,.49,1.66,.98,2.47,1.49-.6-2.8-1.14-6.06-1.49-9.67-.89-2.71-2.01-5.66-3.45-8.71,0,.31,0,.61,0,.92,0,2.98,.16,5.8,.42,8.44Z"/><path class="cls-1" d="M116.62,48.53c-1.24-2.42-2.82-4.66-4.7-6.67l-.45-.33c-10.41-5.08-22.84-5.05-33.25,.04-3.07,1.51-5.88,3.43-8.37,5.67-.34,1.99-.72,3.81-1.11,5.45,2.93-3.42,6.59-6.27,10.84-8.36,9.49-4.65,20.79-4.7,30.29-.17,1.6,1.75,2.95,3.69,4.02,5.77,4.86,9.39,3.67,20.59-2.77,28.8,.5,.42,.92,.95,1.23,1.56l.49,.97-.75,.78c-1.22,1.27-2.55,2.44-3.98,3.48-.75,.6-1.53,1.17-2.33,1.69l-.75,.49-.71-.55c-.53-.4-.95-.9-1.25-1.46-.51,.29-1.03,.57-1.56,.84-8.44,4.14-18.04,3.71-25.82-.32-.76,.45-1.54,.89-2.36,1.3-.29,.14-.58,.27-.87,.41,4.94,2.98,10.66,4.6,16.49,4.6,4.69,0,9.45-1.04,13.91-3.22,1.19-.59,2.19-1.16,3.05-1.72,1.94-1.22,3.74-2.67,5.36-4.31,9.16-9.27,11.32-23.23,5.37-34.74Z"/><path class="cls-1" d="M65.84,51.49c-.02,.09-.04,.17-.06,.26,.08,.06,.17,.11,.25,.17,.72,.47,1.45,.94,2.17,1.43,.18-.22,.35-.44,.54-.65,.39-1.63,.77-3.45,1.11-5.45-1.45,1.31-2.79,2.73-4.01,4.25Z"/><path class="cls-1" d="M65.93,51.45c-.02,.09-.13,.21-.15,.3,.08,.06,.17,.11,.25,.17,.72,.47,1.45,.94,2.17,1.43,.18-.22,.35-.44,.54-.65,.39-1.63,.77-3.45,1.11-5.45-1.45,1.31-2.7,2.69-3.92,4.21Z"/><path class="cls-1" d="M103.36,80.74c.85-1.18,2.22-1.95,3.77-1.95,1.13,0,2.19,.41,3.02,1.12,.34-.38,.66-.78,.97-1.17-.87-.74-1.98-1.17-3.17-1.17-2.09,0-3.87,1.32-4.58,3.17Z"/><path class="cls-1" d="M111.3,81.38l.4,.81-.62,.65c-.93,.97-1.93,1.86-2.97,2.7,1.42-1.04,2.75-2.2,3.98-3.48l.75-.78-.49-.97c-.31-.61-.73-1.14-1.23-1.56-.31,.4-.63,.79-.97,1.17,.46,.4,.86,.89,1.15,1.47Z"/><path class="cls-1" d="M111.3,81.38l.4,.81-.62,.65c-.93,.97-1.93,1.86-2.97,2.7,1.42-1.04,2.75-2.2,3.98-3.48l.75-.78-.49-.97c-.31-.61-.73-1.14-1.23-1.56-.31,.4-.63,.79-.97,1.17,.46,.4,.86,.89,1.15,1.47Z"/><path class="cls-1" d="M80.37,67.06h0s.07,.07,.1,.11c-.04-.04-.06-.07-.1-.11Z"/><path class="cls-1" d="M81.38,68.15c.08,.09,.15,.17,.22,.25-.07-.08-.15-.17-.22-.25Z"/><path class="cls-1" d="M69.73,58.17c2.27,1.62,4.15,3.06,5.61,4.3,.2,.16,.38,.32,.56,.48-.18-.16-.37-.32-.57-.5l1.98-2.34c-1.51-1.28-3.45-2.78-5.78-4.44-.99-.72-2-1.43-3.01-2.12-.29,1.17-.58,2.22-.86,3.16,.69,.48,1.39,.96,2.07,1.45Z"/><path class="cls-1" d="M83.06,70.21s.04,.06,.07,.09c-.02-.03-.04-.06-.07-.09Z"/><path class="cls-1" d="M82.33,69.26s.04,.05,.06,.08c-.02-.02-.04-.05-.06-.08Z"/><path class="cls-1" d="M87.44,73.45s-.02,.06-.02,.1l.03-.09c.27-2.13-1.54-4.91-4.06-7.66,2.51,2.75,4.32,5.53,4.05,7.65Z"/><path class="cls-1" d="M84.01,71.75h0Z"/><path class="cls-1" d="M36.65,40.26c-.32,.1-.61,.24-.86,.4l-.06,.05s.05-.03,.07-.05c.25-.16,.53-.29,.85-.4Z"/><path class="cls-1" d="M86.59,75.26c-.08,.08-.15,.15-.24,.23-.76,.64-1.87,.92-3.22,.92-.29,0-.6-.03-.91-.05-2.36,3.21-5.58,5.91-9.6,8.05,.98,.67,2,1.28,3.05,1.83,4.82-2.87,8.48-6.56,10.92-10.97Z"/><path class="cls-1" d="M37.46,43.25s0,.1,0,.14c.05-.07,.1-.14,.15-.21-.06,.02-.11,.04-.15,.07Z"/><path class="cls-1" d="M47.98,42.34c.05,.02,.1,.04,.15,.06l-.68,1.94h0l.68-1.93c.55,.17,1.18,.4,1.86,.68h0c-.65-.26-1.25-.49-1.77-.66l-.23-.08Z"/><path class="cls-1" d="M43.7,40.85s.04,0,.06,.02c-.02,0-.04,0-.06-.02Z"/><path class="cls-1" d="M84.39,73.11v-.04s0-.11-.01-.17c-.05,.1-.11,.2-.16,.3,.06-.03,.13-.05,.17-.09Z"/><path class="cls-1" d="M59.73,49.79c-.05-.25-.1-.51-.15-.77l-.2,.35c.12,.14,.24,.28,.35,.42Z"/><path class="cls-1" d="M51.06,86.6c-8.35-2.86-14.77-9.15-17.62-17.25-2.66-7.59-1.95-15.8,1.94-22.76-.86-1.53-1.24-2.93-.93-4.1,.01-.09,.06-.2,.1-.31-.33,.45-.64,.9-.93,1.36-5.11,8.05-6.23,17.83-3.07,26.83,3.16,9,10.27,15.98,19.52,19.15,2.87,.98,5.92,1.47,9.02,1.47,4.49,0,9.07-1.03,13.36-3.04-1.03-.62-2.03-1.3-2.99-2.05-6.07,2.4-12.64,2.67-18.39,.71Z"/><path class="cls-1" d="M64.23,51.79c-.06-.36-.12-.74-.19-1.15-.33-.2-.65-.4-.96-.57-.05-.03-.09-.06-.14-.08,.23,1.07,.46,2.07,.69,3l.59-1.2Z"/><path class="cls-1" d="M64.23,51.79c-.06-.36-.12-.74-.19-1.15-.33-.2-.65-.4-.96-.57-.05-.03-.09-.06-.14-.08,.23,1.07,.46,2.07,.69,3l.59-1.2Z"/><path class="cls-1" d="M58.49,50.91c-.05-.03-.1-.05-.15-.08,.07,.04,.14,.08,.21,.12,.53,.31,1.08,.63,1.64,.97-.16-.68-.31-1.39-.46-2.13-.12-.14-.24-.28-.35-.42l-.89,1.54Z"/><path class="cls-1" d="M58.49,50.91c-.05-.03-.1-.05-.15-.08,.07,.04,.14,.08,.21,.12,.53,.31,1.08,.63,1.64,.97-.16-.68-.31-1.39-.46-2.13-.12-.14-.24-.28-.35-.42l-.89,1.54Z"/><path class="cls-1" d="M43.88,44.12c-.06-.02-.12-.04-.18-.06,.06,.02,.12,.04,.18,.06h0Z"/><path class="cls-1" d="M43.88,44.12c-.06-.02-.12-.04-.18-.06,.06,.02,.12,.04,.18,.06h0Z"/><path class="cls-1" d="M41.79,40.37c.06,.01,.12,.02,.18,.03-.06-.01-.12-.02-.18-.03Z"/><path class="cls-1" d="M41.79,40.37c.06,.01,.12,.02,.18,.03-.06-.01-.12-.02-.18-.03Z"/><path class="cls-1" d="M40.31,40.1s.03,0,.04,0c-.02,0-.03,0-.04,0Z"/><path class="cls-1" d="M40.31,40.1s.03,0,.04,0c-.02,0-.03,0-.04,0Z"/><path class="cls-1" d="M50.06,43.1l-.07-.03h0l.07,.03Z"/><path class="cls-1" d="M50.06,43.1l-.07-.03h0l.07,.03Z"/><path class="cls-1" d="M50.46,43.27c.09,.04,.18,.08,.27,.12-.09-.04-.19-.08-.27-.12Z"/><path class="cls-1" d="M50.46,43.27c.09,.04,.18,.08,.27,.12-.09-.04-.19-.08-.27-.12Z"/><polygon class="cls-1" points="47.45 44.33 47.39 44.5 47.39 44.51 47.45 44.33 47.45 44.33"/><polygon class="cls-1" points="47.45 44.33 47.39 44.5 47.39 44.51 47.45 44.33 47.45 44.33"/><path class="cls-1" d="M60.03,48.24l-.45,.77c.05,.26,.1,.51,.15,.77,.45,.52,.87,1,1.27,1.44-.14-.82-.32-1.73-.53-2.73-.14-.08-.28-.17-.43-.25h-.01Z"/><path class="cls-1" d="M60.03,48.24l-.45,.77c.05,.26,.1,.51,.15,.77,.45,.52,.87,1,1.27,1.44-.14-.82-.32-1.73-.53-2.73-.14-.08-.28-.17-.43-.25h-.01Z"/><path class="cls-1" d="M67.67,56.72c.28-.94,.57-1.99,.86-3.16-.11-.07-.22-.15-.32-.22-.65,.8-1.26,1.62-1.83,2.48,.43,.29,.86,.6,1.3,.9Z"/><path class="cls-1" d="M67.67,56.72c.28-.94,.57-1.99,.86-3.16-.11-.07-6.7-4.2-6.81-4.27-.65,.8,5.22,5.68,4.65,6.53,.43,.29,.86,.6,1.3,.9Z"/><path class="cls-1" d="M59.73,49.79c.15,.74,.3,1.45,.46,2.13,.43,.26,.85,.52,1.3,.8,.59,.33,1.17,.7,1.75,1.07l.39-.79c-.23-.93-.47-1.93-.69-3-.81-.51-1.63-1-2.47-1.49,.21,.99,.39,1.91,.53,2.73-.4-.44-.82-.92-1.27-1.44Z"/><path class="cls-1" d="M59.73,49.79c.15,.74,.3,1.45,.46,2.13,.43,.26,.85,.52,1.3,.8,.59,.33,1.17,.7,1.75,1.07l.39-.79c-.23-.93-.47-1.93-.69-3-.81-.51-1.63-1-2.47-1.49,.21,.99,.39,1.91,.53,2.73-.4-.44-.82-.92-1.27-1.44Z"/><path class="cls-1" d="M59.73,49.79c.15,.74,.3,1.45,.46,2.13,.43,.26,.85,.52,1.3,.8,.59,.33,1.17,.7,1.75,1.07l.39-.79c-.23-.93-.47-1.93-.69-3-.81-.51-1.63-1-2.47-1.49,.21,.99,.39,1.91,.53,2.73-.4-.44-.82-.92-1.27-1.44Z"/><path class="cls-1" d="M75.67,86.23c-1.05-.54-2.07-1.15-3.05-1.83-.23,.12-.46,.26-.7,.38-.81,.41-1.64,.78-2.47,1.11,.96,.74,1.96,1.42,2.99,2.05,.29-.14,.58-.26,.87-.41,.82-.41,1.6-.85,2.36-1.3Z"/><path class="cls-1" d="M75.67,86.23c-1.05-.54-2.07-1.15-3.05-1.83-.23,.12-.46,.26-.7,.38-.81,.41-1.64,.78-2.47,1.11,.96,.74,1.96,1.42,2.99,2.05,.29-.14,.58-.26,.87-.41,.82-.41,1.6-.85,2.36-1.3Z"/><path class="cls-1" d="M64.97,54.9c.09-.33,.19-.68,.28-1.04l-.56,.86c.09,.06,.18,.12,.28,.18Z"/><path class="cls-1" d="M64.97,54.9c.09-.33,.19-.68,.28-1.04l-.56,.86c.09,.06,.18,.12,.28,.18Z"/><path class="cls-1" d="M66.37,52.15l-1.12,1.72c-.09,.36-.19,.7-.28,1.04,.47,.31,.93,.61,1.4,.92,.57-.86,1.18-1.68,1.83-2.48-.72-.49-1.45-.96-2.17-1.43l.03,.02,.3,.21Z"/><path class="cls-1" d="M66.37,52.15l-1.12,1.72c-.09,.36-.19,.7-.28,1.04,.47,.31,.93,.61,1.4,.92,.57-.86,1.18-1.68,1.83-2.48-.72-.49-1.45-.96-2.17-1.43l.03,.02,.3,.21Z"/><path class="cls-1" d="M66.37,52.15l-1.12,1.72c-.09,.36-.19,.7-.28,1.04,.47,.31,.93,.61,1.4,.92,.57-.86,1.18-1.68,1.83-2.48-.72-.49-1.45-.96-2.17-1.43l.03,.02,.3,.21Z"/><path class="cls-1" d="M38.47,54.82c.39-1.93-2.57-2.76-2.97-.82-1.57,7.72,.09,15.43,4.9,21.7,1.19,1.55,3.86,.02,2.66-1.55-4.31-5.61-6.01-12.36-4.59-19.33Z"/><path class="cls-1" d="M63.85,54.19h0c-.1-.08-.19-.14-.29-.2-.11-.07-.22-.13-.33-.2h0c.21,.14,.41,.27,.61,.4Z"/><path class="cls-1" d="M63.85,54.19h0c-.1-.08-.19-.14-.29-.2-.11-.07-.22-.13-.33-.2h0c.21,.14,.41,.27,.61,.4Z"/><path class="cls-1" d="M63.85,54.19h0c-.1-.08-.19-.14-.29-.2-.11-.07-.22-.13-.33-.2h0c.21,.14,.41,.27,.61,.4Z"/><path class="cls-1" d="M64.69,54.73h0s-.07-.05-.1-.07h0l.1,.07Z"/><path class="cls-1" d="M64.69,54.73h0s-.07-.05-.1-.07h0l.1,.07Z"/><path class="cls-1" d="M63.97,54.26c.05,.04,.11,.07,.16,.1l.46,.3h0c-.21-.15-.42-.29-.63-.42v.02Z"/><path class="cls-1" d="M63.97,54.26c.05,.04,.11,.07,.16,.1l.46,.3h0c-.21-.15-.42-.29-.63-.42v.02Z"/><path class="cls-1" d="M63.97,54.26c.05,.04,.11,.07,.16,.1l.46,.3h0c-.21-.15-.42-.29-.63-.42v.02Z"/><path class="cls-1" d="M66.03,51.92c-.08-.06-.17-.11-.25-.17h0c.08,.06,.17,.11,.25,.17Z"/><path class="cls-1" d="M66.03,51.92c-.08-.06-.17-.11-.25-.17h0c.08,.06,.17,.11,.25,.17Z"/><path class="cls-1" d="M66.03,51.92c-.08-.06-.17-.11-.25-.17h0c.08,.06,.17,.11,.25,.17Z"/><path class="cls-1" d="M63.96,54.24s-.07-.05-.1-.07h0s.08,.06,.12,.09v-.02Z"/><path class="cls-1" d="M63.96,54.24s-.07-.05-.1-.07h0s.08,.06,.12,.09v-.02Z"/><path class="cls-1" d="M63.96,54.24s-.07-.05-.1-.07h0s.08,.06,.12,.09v-.02Z"/><path class="cls-1" d="M63.96,54.24s-.07-.05-.1-.07h0s.08,.06,.12,.09v-.02Z"/><path class="cls-1" d="M64.36,52.69c.03,.23,.06,.44,.09,.65,.1-.14,.19-.27,.29-.41-.13-.08-.25-.16-.38-.24Z"/><path class="cls-1" d="M64.36,52.69c.03,.23,.06,.44,.09,.65,.1-.14,.19-.27,.29-.41-.13-.08-.25-.16-.38-.24Z"/><path class="cls-1" d="M64.44,53.34c-.03-.2-.05-.42-.09-.65-.11-.07-.22-.14-.33-.21,.12,.05,.21,.12,.33,.19-.04-.27-.08-.57-.13-.87l-.59,1.2c.09,.38,.19,.74,.28,1.09,.17-.25,.35-.49,.52-.74Z"/><path class="cls-1" d="M64.44,53.34c-.03-.2-.05-.42-.09-.65-.11-.07-.22-.14-.33-.21,.12,.05,.21,.12,.33,.19-.04-.27-.08-.57-.13-.87l-.59,1.2c.09,.38,.19,.74,.28,1.09,.17-.25,.35-.49,.52-.74Z"/><path class="cls-1" d="M64.44,53.34c-.03-.2-.05-.42-.09-.65-.11-.07-.22-.14-.33-.21,.12,.05,.21,.12,.33,.19-.04-.27-.08-.57-.13-.87l-.59,1.2c.09,.38,.19,.74,.28,1.09,.17-.25,.35-.49,.52-.74Z"/><path class="cls-1" d="M63.86,54.17s.04-.06,.06-.09c-.09-.35-.19-.71-.28-1.09l-.39,.79c.11,.07,.22,.13,.33,.2,.1,.06,.19,.13,.29,.19Z"/><path class="cls-1" d="M63.86,54.17s.04-.06,.06-.09c-.09-.35-.19-.71-.28-1.09l-.39,.79c.11,.07,.22,.13,.33,.2,.1,.06,.19,.13,.29,.19Z"/><path class="cls-1" d="M63.86,54.17s.04-.06,.06-.09c-.09-.35-.19-.71-.28-1.09l-.39,.79c.11,.07,.22,.13,.33,.2,.1,.06,.19,.13,.29,.19Z"/><path class="cls-1" d="M63.86,54.17s.04-.06,.06-.09c-.09-.35-.19-.71-.28-1.09l-.39,.79c.11,.07,.22,.13,.33,.2,.1,.06,.19,.13,.29,.19Z"/><path class="cls-1" d="M64.44,53.34c.07,.53,.11,.97,.15,1.32,.03,.02,.07,.04,.1,.07l.56-.86c.05-.17,.09-.34,.14-.52-.21-.14-.43-.28-.65-.42-.1,.14-.19,.27-.29,.41Z"/><path class="cls-1" d="M64.44,53.34c.07,.53,.11,.97,.15,1.32,.03,.02,.07,.04,.1,.07l.56-.86c.05-.17,.09-.34,.14-.52-.21-.14-.43-.28-.65-.42-.1,.14-.19,.27-.29,.41Z"/><path class="cls-1" d="M64.59,54.65c-.03-.34-.08-.78-.15-1.32-.17,.25-.36,.49-.52,.74,.01,.05,.03,.11,.04,.16,.21,.13,.42,.28,.63,.41Z"/><path class="cls-1" d="M64.59,54.65c-.03-.34-.08-.78-.15-1.32-.17,.25-.36,.49-.52,.74,.01,.05,.03,.11,.04,.16,.21,.13,.42,.28,.63,.41Z"/><path class="cls-1" d="M64.59,54.65c-.03-.34-.08-.78-.15-1.32-.17,.25-.36,.49-.52,.74,.01,.05,.03,.11,.04,.16,.21,.13,.42,.28,.63,.41Z"/><path class="cls-1" d="M64.59,54.65c-.03-.34-.08-.78-.15-1.32-.17,.25-.36,.49-.52,.74,.01,.05,.03,.11,.04,.16,.21,.13,.42,.28,.63,.41Z"/><path class="cls-1" d="M65.39,53.34s.08,.05,.12,.08c-.04-.03-.08-.05-.12-.08-.05,.18-.09,.35-.14,.52l1.12-1.72-.3-.21-.03-.02c-.08-.05-.17-.11-.25-.17-.13,.55-.26,1.08-.39,1.59Z"/><path class="cls-1" d="M63.92,54.08s-.04,.06-.06,.09c.03,.02,.07,.05,.1,.07-.01-.05-.03-.11-.04-.16Z"/><path class="cls-1" d="M63.92,54.08s-.04,.06-.06,.09c.03,.02,.07,.05,.1,.07-.01-.05-.03-.11-.04-.16Z"/><path class="cls-1" d="M63.92,54.08s-.04,.06-.06,.09c.03,.02,.07,.05,.1,.07-.01-.05-.03-.11-.04-.16Z"/><path class="cls-1" d="M63.92,54.08s-.04,.06-.06,.09c.03,.02,.07,.05,.1,.07-.01-.05-.03-.11-.04-.16Z"/><path class="cls-1" d="M63.92,54.08s-.04,.06-.06,.09c.03,.02,.07,.05,.1,.07-.01-.05-.03-.11-.04-.16Z"/><path class="cls-1" d="M64.74,52.92c-.12-.08-.23-.16-.36-.23l-.03-.02v.02c.13,.08,.25,.16,.38,.24h0Z"/><path class="cls-1" d="M64.74,52.92c-.12-.08-.23-.16-.36-.23l-.03-.02v.02c.13,.08,.25,.16,.38,.24h0Z"/><path class="cls-1" d="M64.74,52.92c-.12-.08-.23-.16-.36-.23l-.03-.02v.02c.13,.08,.25,.16,.38,.24h0Z"/><path class="cls-1" d="M64.03,52.48c.11,.07,.22,.14,.33,.21v-.02c-.12-.07-.21-.14-.33-.19Z"/><path class="cls-1" d="M64.03,52.48c.11,.07,.22,.14,.33,.21v-.02c-.12-.07-.21-.14-.33-.19Z"/><path class="cls-1" d="M64.03,52.48c.11,.07,.22,.14,.33,.21v-.02c-.12-.07-.21-.14-.33-.19Z"/><path class="cls-1" d="M64.03,52.48c.11,.07,.22,.14,.33,.21v-.02c-.12-.07-.21-.14-.33-.19Z"/><path class="cls-1" d="M64.73,52.93c.22,.14,.44,.28,.65,.42h0c-.22-.15-.43-.29-.64-.43h0Z"/><path class="cls-1" d="M64.73,52.93c.22,.14,.44,.28,.65,.42h0c-.22-.15-.43-.29-.64-.43h0Z"/><path class="cls-1" d="M64.73,52.93c.22,.14,.44,.28,.65,.42h0c-.22-.15-.43-.29-.64-.43h0Z"/><path class="cls-1" d="M64.73,52.93c.22,.14,.44,.28,.65,.42h0c-.22-.15-.43-.29-.64-.43h0Z"/><path class="cls-1" d="M65.51,53.42s-.08-.05-.12-.08h0s.08,.06,.12,.08Z"/><path class="cls-1" d="M65.51,53.42s-.08-.05-.12-.08h0s.08,.06,.12,.08Z"/><path class="cls-1" d="M65.51,53.42s-.08-.05-.12-.08h0s.08,.06,.12,.08Z"/><path class="cls-1" d="M65.51,53.42s-.08-.05-.12-.08h0s.08,.06,.12,.08Z"/><path class="cls-1" d="M65.51,53.42s-.08-.05-.12-.08h0s.08,.06,.12,.08Z"/><path class="cls-1" d="M67.07,58.65c-.55,1.69-.97,2.72-1.07,2.97,7.51,4.39,12.32,6.22,14.37,5.44-1.16-1.19-2.63-2.56-4.46-4.11,.22,.19,.42,.38,.61,.55-2.17-.89-5.45-2.53-9.45-4.85Z"/><path class="cls-1" d="M47.98,42.34c-1.54-.61-2.94-1.1-4.22-1.47,1.26,.37,2.64,.85,4.14,1.45l.09,.03Z"/><path class="cls-1" d="M38.71,39.99c-.79,0-1.49,.08-2.06,.27,.58-.19,1.27-.27,2.06-.27h0Z"/><path class="cls-1" d="M35.42,40.99l.31-.28c-.4,.26-.7,.56-.81,.77-.18,.22-.29,.46-.37,.69,.05-.07,.09-.14,.14-.21,.22-.31,.46-.65,.73-.97Z"/><path class="cls-1" d="M86.72,75.03c-.04,.08-.09,.15-.13,.23,.17-.17,.33-.34,.42-.5,.22-.35,.35-.75,.41-1.21l-.12,.4c-.18,.37-.38,.73-.58,1.08Z"/><path class="cls-1" d="M83.12,70.31c.39,.56,.69,1.04,.88,1.44-.2-.4-.49-.88-.88-1.44Z"/><path class="cls-1" d="M84.22,73.2c-1.69,.86-9.87-1.27-22.02-8.4-.29,.99-.54,1.99-.74,3.01,0,.04,.02,.08,.03,.13,6.84,3.92,15.35,7.98,20.74,8.41,.66-.9,1.27-1.83,1.8-2.8,.07-.12,.13-.24,.19-.35Z"/><path class="cls-1" d="M80.47,67.17c.33,.34,.63,.67,.91,.98-.28-.31-.58-.64-.91-.98Z"/><path class="cls-1" d="M83.39,65.8c-1.82-2-4.02-3.98-6.07-5.69h0v.02c2.05,1.7,4.25,3.68,6.07,5.67Z"/><path class="cls-1" d="M56.59,64.99c.66,.42,1.36,.85,2.09,1.29,.24-1.05,.52-2.08,.84-3.1-.43-.27-.85-.52-1.28-.79-14.45-9.18-21-16.96-20.78-19-.09,.13-.19,.25-.28,.38-.35,.47-.67,.93-.96,1.4-.29,.46-.57,.93-.83,1.4,3.35,5.94,14.1,13.89,21.21,18.41Z"/><path class="cls-1" d="M61.2,55.88c-.4-.39-.91-.9-1.53-1.54l.42,1.08-3.37-1.45c-.27-.12-5.58-2.45-11.68-7.64,2.17,2.79,7.29,6.75,15.35,11.87,.3,.19,.59,.37,.89,.56,.16-.33,.31-.67,.48-1-.18-.57-.36-1.19-.55-1.87Z"/><path class="cls-1" d="M81.6,68.4c.26,.3,.51,.59,.73,.86-.22-.27-.46-.56-.73-.86Z"/><path class="cls-1" d="M82.39,69.34c.25,.31,.47,.6,.67,.87-.2-.27-.42-.56-.67-.87Z"/><path class="cls-1" d="M84.4,72.87c-.02-.26-.15-.64-.38-1.11,.25,.51,.35,.88,.37,1.14l.02-.03Z"/><path class="cls-1" d="M43.7,40.85h-.05s.03,0,.05,0Z"/><path class="cls-1" d="M42.05,43.59h0c-2.46-.65-3.84-.64-4.43-.42h0c.21-.07,.53-.12,1-.12,.76,0,1.88,.14,3.44,.54Z"/><path class="cls-1" d="M59.54,53.97l.14,.37c.61,.65,1.13,1.16,1.53,1.54-.09-.32-.18-.65-.27-1-.48-.31-.94-.61-1.39-.91Z"/><path class="cls-1" d="M59.54,53.97l.14,.37c.61,.65,1.13,1.16,1.53,1.54-.09-.32-.18-.65-.27-1-.48-.31-.94-.61-1.39-.91Z"/><path class="cls-1" d="M60.1,55.43l-.42-1.08c-.21-.22-.43-.46-.66-.71-4.73-3.15-8.02-5.74-9.99-7.52-.65-.28-1.3-.57-1.92-.81h0l-.14-.05c-1.15-.46-2.17-.83-3.09-1.13,.11,.62,.51,1.36,1.16,2.2,6.1,5.19,11.41,7.53,11.68,7.64l3.37,1.45Z"/><path class="cls-1" d="M60.1,55.43l-.42-1.08c-.21-.22-.43-.46-.66-.71-4.73-3.15-8.02-5.74-9.99-7.52-.65-.28-1.3-.57-1.92-.81h0l-.14-.05c-1.15-.46-2.17-.83-3.09-1.13,.11,.62,.51,1.36,1.16,2.2,6.1,5.19,11.41,7.53,11.68,7.64l3.37,1.45Z"/><path class="cls-1" d="M40.35,40.11c.45,.06,.94,.15,1.44,.26-.5-.11-.99-.2-1.44-.26Z"/><path class="cls-1" d="M40.35,40.11c.45,.06,.94,.15,1.44,.26-.5-.11-.99-.2-1.44-.26Z"/><path class="cls-1" d="M43.7,44.07c-.6-.19-1.15-.35-1.66-.49h0c.5,.14,1.05,.3,1.65,.49Z"/><path class="cls-1" d="M43.7,44.07c-.6-.19-1.15-.35-1.66-.49h0c.5,.14,1.05,.3,1.65,.49Z"/><path class="cls-1" d="M43.65,40.84c-.59-.17-1.15-.32-1.68-.44,.53,.12,1.1,.27,1.68,.44h0Z"/><path class="cls-1" d="M43.65,40.84c-.59-.17-1.15-.32-1.68-.44,.53,.12,1.1,.27,1.68,.44h0Z"/><path class="cls-1" d="M40.31,40.1c-.58-.08-1.1-.11-1.6-.11h0c.49,0,1.02,.03,1.6,.11Z"/><path class="cls-1" d="M40.31,40.1c-.58-.08-1.1-.11-1.6-.11h0c.49,0,1.02,.03,1.6,.11Z"/><path class="cls-1" d="M59.02,53.64c.23,.25,.45,.49,.66,.71l-.14-.37c-.17-.11-.35-.23-.51-.34Z"/><path class="cls-1" d="M59.02,53.64c.23,.25,.45,.49,.66,.71l-.14-.37c-.17-.11-.35-.23-.51-.34Z"/><path class="cls-1" d="M59.02,53.64c.23,.25,.45,.49,.66,.71l-.14-.37c-.17-.11-.35-.23-.51-.34Z"/><path class="cls-1" d="M64.86,59.15l-.31-.27c-.25,.48-.49,.97-.71,1.46,.74,.45,1.46,.88,2.15,1.28,.11-.25,.52-1.28,1.07-2.97-.58-.34-1.18-.69-1.79-1.06-.15,.27-.31,.53-.45,.8l.04,.76Z"/><path class="cls-1" d="M64.86,59.15l-.31-.27c-.25,.48-.49,.97-.71,1.46,.74,.45,1.46,.88,2.15,1.28,.11-.25,.52-1.28,1.07-2.97-.58-.34-1.18-.69-1.79-1.06-.15,.27-.31,.53-.45,.8l.04,.76Z"/><path class="cls-1" d="M62.1,56.73c-.06-.06-.39-.35-.9-.84,.19,.68,.38,1.3,.55,1.87,.16-.3,.33-.6,.49-.9l-.14-.13Z"/><path class="cls-1" d="M62.1,56.73c-.06-.06-.39-.35-.9-.84,.19,.68,.38,1.3,.55,1.87,.16-.3,.33-.6,.49-.9l-.14-.13Z"/><path class="cls-1" d="M62.25,56.85c.15-.28,.3-.56,.46-.84-.23-.14-.44-.27-.67-.42-.38-.24-.75-.48-1.11-.71,.09,.34,.18,.68,.27,1,.51,.49,.84,.79,.9,.84l.14,.13Z"/><path class="cls-1" d="M62.25,56.85c.15-.28,.3-.56,.46-.84-.23-.14-.44-.27-.67-.42-.38-.24-.75-.48-1.11-.71,.09,.34,.18,.68,.27,1,.51,.49,.84,.79,.9,.84l.14,.13Z"/><path class="cls-1" d="M62.25,56.85c.15-.28,.3-.56,.46-.84-.23-.14-.44-.27-.67-.42-.38-.24-.75-.48-1.11-.71,.09,.34,.18,.68,.27,1,.51,.49,.84,.79,.9,.84l.14,.13Z"/><path class="cls-1" d="M64.82,58.4c-.09,.16-.18,.32-.26,.49l.31,.27-.04-.76Z"/><path class="cls-1" d="M64.82,58.4c-.09,.16-.18,.32-.26,.49l.31,.27-.04-.76Z"/><path class="cls-1" d="M64.82,58.4c-.09,.16-.18,.32-.26,.49l.31,.27-.04-.76Z"/><path class="cls-1" d="M61.76,57.75c-.17,.33-.32,.67-.48,1,.34,.21,.68,.43,1.01,.63-.16-.48-.34-1.02-.53-1.64Z"/><path class="cls-1" d="M61.76,57.75c-.17,.33-.32,.67-.48,1,.34,.21,.68,.43,1.01,.63-.16-.48-.34-1.02-.53-1.64Z"/><path class="cls-1" d="M62.2,64.8c-.87-.51-1.76-1.05-2.68-1.61-.33,1.01-.61,2.05-.84,3.1,.9,.54,1.83,1.1,2.81,1.66,0-.04-.02-.08-.03-.13,.2-1.02,.45-2.02,.74-3.01Zm-2.85,.7c.19-.4,.37-.8,.56-1.2-.19,.4-.37,.8-.56,1.2Z"/><path class="cls-1" d="M62.2,64.8c-.87-.51-1.76-1.05-2.68-1.61-.33,1.01-.61,2.05-.84,3.1,.9,.54,1.83,1.1,2.81,1.66,0-.04-.02-.08-.03-.13,.2-1.02,.45-2.02,.74-3.01Zm-2.85,.7c.19-.4,.37-.8,.56-1.2-.19,.4-.37,.8-.56,1.2Z"/><path class="cls-1" d="M64.56,58.88l-2.31-2.03c-.16,.3-.33,.6-.49,.9,.19,.61,.37,1.16,.53,1.64,.53,.33,1.05,.64,1.55,.95,.23-.49,.46-.98,.71-1.46Z"/><path class="cls-1" d="M64.56,58.88l-2.31-2.03c-.16,.3-.33,.6-.49,.9,.19,.61,.37,1.16,.53,1.64,.53,.33,1.05,.64,1.55,.95,.23-.49,.46-.98,.71-1.46Z"/><path class="cls-1" d="M64.56,58.88l-2.31-2.03c-.16,.3-.33,.6-.49,.9,.19,.61,.37,1.16,.53,1.64,.53,.33,1.05,.64,1.55,.95,.23-.49,.46-.98,.71-1.46Z"/><path class="cls-1" d="M65.27,57.59c-.17-.1-.34-.2-.51-.31l.06,1.11c.15-.27,.3-.54,.45-.8Z"/><path class="cls-1" d="M65.27,57.59c-.17-.1-.34-.2-.51-.31l.06,1.11c.15-.27,.3-.54,.45-.8Z"/><path class="cls-1" d="M65.27,57.59c-.17-.1-.34-.2-.51-.31l.06,1.11c.15-.27,.3-.54,.45-.8Z"/><path class="cls-1" d="M64.56,58.88c.08-.16,.18-.32,.26-.49l-.06-1.11c-.67-.4-1.35-.83-2.05-1.27-.16,.28-.31,.56-.46,.84l2.31,2.03Z"/><path class="cls-1" d="M64.56,58.88c.08-.16,.18-.32,.26-.49l-.06-1.11c-.67-.4-1.35-.83-2.05-1.27-.16,.28-.31,.56-.46,.84l2.31,2.03Z"/><path class="cls-1" d="M64.56,58.88c.08-.16,.18-.32,.26-.49l-.06-1.11c-.67-.4-1.35-.83-2.05-1.27-.16,.28-.31,.56-.46,.84l2.31,2.03Z"/><path class="cls-1" d="M75.91,62.96c1.83,1.55,3.3,2.92,4.46,4.11h0s.06,.07,.1,.11c.33,.34,.63,.67,.91,.98,.08,.09,.15,.17,.22,.25,.26,.3,.51,.59,.73,.86,.02,.02,.04,.05,.06,.08,.25,.31,.47,.6,.67,.87,.02,.03,.04,.06,.07,.09,.4,.56,.68,1.04,.88,1.44h0c.24,.48,.36,.86,.38,1.12l-.02,.03c0,.06,.01,.12,0,.17v.04s-.11,.06-.17,.09c-.06,.12-.12,.23-.19,.35-.53,.98-1.14,1.9-1.8,2.8,.31,.02,.62,.05,.91,.05,1.35,0,2.46-.28,3.22-.92,.09-.07,.16-.15,.24-.23,.04-.08,.09-.15,.13-.23,.2-.36,.4-.72,.58-1.08l.12-.4s.02-.06,.02-.1c.26-2.12-1.54-4.9-4.05-7.65-1.83-1.99-4.02-3.97-6.07-5.67h0l-1.98,2.33c.21,.18,.39,.34,.57,.5Z"/><path class="cls-1" d="M75.91,62.96c1.83,1.55,3.3,2.92,4.46,4.11h0s.06,.07,.1,.11c.33,.34,.63,.67,.91,.98,.08,.09,.15,.17,.22,.25,.26,.3,.51,.59,.73,.86,.02,.02,.04,.05,.06,.08,.25,.31,.47,.6,.67,.87,.02,.03,.04,.06,.07,.09,.4,.56,.68,1.04,.88,1.44h0c.24,.48,.36,.86,.38,1.12l-.02,.03c0,.06,.01,.12,0,.17v.04s-.11,.06-.17,.09c-.06,.12-.12,.23-.19,.35-.53,.98-1.14,1.9-1.8,2.8,.31,.02,.62,.05,.91,.05,1.35,0,2.46-.28,3.22-.92,.09-.07,.16-.15,.24-.23,.04-.08,.09-.15,.13-.23,.2-.36,.4-.72,.58-1.08l.12-.4s.02-.06,.02-.1c.26-2.12-1.54-4.9-4.05-7.65-1.83-1.99-4.02-3.97-6.07-5.67h0l-1.98,2.33c.21,.18,.39,.34,.57,.5Z"/><path class="cls-1" d="M35.38,46.58c.26-.47,.54-.94,.83-1.4,.3-.47,.61-.93,.96-1.4,.09-.13,.18-.25,.28-.38,0-.04,0-.1,0-.14,.04-.02,.09-.05,.15-.07h0c.58-.23,1.97-.24,4.43,.4-.35-.34-.7-.69-1.05-1.05-.81-.84-1.57-1.69-2.29-2.54-.79,0-1.48,.08-2.06,.27-.31,.1-.6,.24-.85,.4-.03,.02-.05,.03-.07,.05l-.31,.28c-.26,.32-.5,.66-.73,.97-.05,.07-.09,.14-.14,.21-.04,.1-.08,.21-.1,.31-.31,1.17,.07,2.57,.93,4.1Z"/><path class="cls-1" d="M35.38,46.58c.26-.47,.54-.94,.83-1.4,.3-.47,.61-.93,.96-1.4,.09-.13,.18-.25,.28-.38,0-.04,0-.1,0-.14,.04-.02,.09-.05,.15-.07h0c.58-.23,1.97-.24,4.43,.4-.35-.34-.7-.69-1.05-1.05-.81-.84-1.57-1.69-2.29-2.54-.79,0-1.48,.08-2.06,.27-.31,.1-.6,.24-.85,.4-.03,.02-.05,.03-.07,.05l-.31,.28c-.26,.32-.5,.66-.73,.97-.05,.07-.09,.14-.14,.21-.04,.1-.08,.21-.1,.31-.31,1.17,.07,2.57,.93,4.1Z"/><path class="cls-1" d="M47.98,42.34l-.09-.03c-1.5-.6-2.88-1.08-4.14-1.45-.02,0-.04,0-.06-.02-.02,0-.03,0-.05-.01,1.27,1.29,2.55,2.46,3.8,3.49l.68-1.94c-.05-.02-.1-.04-.15-.06Z"/><path class="cls-1" d="M47.98,42.34l-.09-.03c-1.5-.6-2.88-1.08-4.14-1.45-.02,0-.04,0-.06-.02-.02,0-.03,0-.05-.01,1.27,1.29,2.55,2.46,3.8,3.49l.68-1.94c-.05-.02-.1-.04-.15-.06Z"/><path class="cls-1" d="M43.88,44.12h0c.92,.3,1.95,.67,3.09,1.14l.14,.04,.28-.79h0l.06-.18c-1.24-1.03-2.52-2.2-3.8-3.49-.59-.17-1.15-.32-1.68-.44-.06-.01-.12-.02-.18-.03-.5-.11-.99-.2-1.44-.26-.02,0-.03,0-.04,0-.58-.08-1.1-.11-1.6-.11,.72,.85,1.47,1.7,2.29,2.54,.35,.36,.7,.7,1.05,1.05,.51,.13,1.06,.29,1.66,.49,.06,.02,.12,.04,.18,.06Z"/><path class="cls-1" d="M43.88,44.12h0c.92,.3,1.95,.67,3.09,1.14l.14,.04,.28-.79h0l.06-.18c-1.24-1.03-2.52-2.2-3.8-3.49-.59-.17-1.15-.32-1.68-.44-.06-.01-.12-.02-.18-.03-.5-.11-.99-.2-1.44-.26-.02,0-.03,0-.04,0-.58-.08-1.1-.11-1.6-.11,.72,.85,1.47,1.7,2.29,2.54,.35,.36,.7,.7,1.05,1.05,.51,.13,1.06,.29,1.66,.49,.06,.02,.12,.04,.18,.06Z"/><path class="cls-1" d="M43.88,44.12h0c.92,.3,1.95,.67,3.09,1.14l.14,.04,.28-.79h0l.06-.18c-1.24-1.03-2.52-2.2-3.8-3.49-.59-.17-1.15-.32-1.68-.44-.06-.01-.12-.02-.18-.03-.5-.11-.99-.2-1.44-.26-.02,0-.03,0-.04,0-.58-.08-1.1-.11-1.6-.11,.72,.85,1.47,1.7,2.29,2.54,.35,.36,.7,.7,1.05,1.05,.51,.13,1.06,.29,1.66,.49,.06,.02,.12,.04,.18,.06Z"/><path class="cls-1" d="M53.38,48.17s-.06-.1-.09-.15c-1.07-.55-2.06-1.04-2.96-1.45,.18,.13,.36,.25,.53,.38,.82,.38,1.65,.79,2.51,1.22Z"/><path class="cls-1" d="M59.37,47.86h0c-.75-.44-1.48-.85-2.19-1.24h0c.71,.4,1.44,.81,2.18,1.24Z"/><path class="cls-1" d="M57.18,46.62h0c-.57-.32-1.13-.62-1.67-.91h0c.54,.29,1.1,.59,1.67,.91Z"/><path class="cls-1" d="M57.18,46.62h0c-.57-.32-1.13-.62-1.67-.91h0c.54,.29,1.1,.59,1.67,.91Z"/><path class="cls-1" d="M58.34,50.82s-.07-.04-.11-.07h0s.07,.04,.11,.07Z"/><path class="cls-1" d="M58.34,50.82s-.07-.04-.11-.07h0s.07,.04,.11,.07Z"/><path class="cls-1" d="M50.06,43.1c.14,.06,.26,.1,.4,.16-.14-.06-.27-.11-.4-.16Z"/><path class="cls-1" d="M50.06,43.1c.14,.06,.26,.1,.4,.16-.14-.06-.27-.11-.4-.16Z"/><path class="cls-1" d="M51.34,43.65c-.21-.09-.41-.18-.61-.27,.2,.09,.4,.18,.61,.27h0Z"/><path class="cls-1" d="M51.34,43.65c-.21-.09-.41-.18-.61-.27,.2,.09,.4,.18,.61,.27h0Z"/><path class="cls-1" d="M50.34,46.57c-.55-.25-1.05-.47-1.53-.66,.07,.07,.15,.14,.23,.21,.6,.26,1.22,.54,1.84,.83-.18-.13-.35-.25-.53-.38Z"/><path class="cls-1" d="M50.34,46.57c-.55-.25-1.05-.47-1.53-.66,.07,.07,.15,.14,.23,.21,.6,.26,1.22,.54,1.84,.83-.18-.13-.35-.25-.53-.38Z"/><path class="cls-1" d="M55.2,49.1s-.06-.08-.09-.11c-.63-.34-1.23-.66-1.82-.97,.03,.05,.06,.1,.09,.15,.6,.3,1.2,.6,1.82,.93Z"/><path class="cls-1" d="M55.2,49.1s-.06-.08-.09-.11c-.63-.34-1.23-.66-1.82-.97,.03,.05,.06,.1,.09,.15,.6,.3,1.2,.6,1.82,.93Z"/><path class="cls-1" d="M55.51,45.72h0c-1.53-.82-2.93-1.51-4.17-2.06h0c1.25,.57,2.65,1.26,4.17,2.06Z"/><path class="cls-1" d="M55.51,45.72h0c-1.53-.82-2.93-1.51-4.17-2.06h0c1.25,.57,2.65,1.26,4.17,2.06Z"/><path class="cls-1" d="M55.51,45.72h0c-1.53-.82-2.93-1.51-4.17-2.06h0c1.25,.57,2.65,1.26,4.17,2.06Z"/><path class="cls-1" d="M55.2,49.1c.99,.52,2,1.07,3.03,1.66h0c-1.08-.63-2.12-1.23-3.11-1.77,.03,.04,.06,.08,.09,.11Z"/><path class="cls-1" d="M55.2,49.1c.99,.52,2,1.07,3.03,1.66h0c-1.08-.63-2.12-1.23-3.11-1.77,.03,.04,.06,.08,.09,.11Z"/><path class="cls-1" d="M55.2,49.1c.99,.52,2,1.07,3.03,1.66h0c-1.08-.63-2.12-1.23-3.11-1.77,.03,.04,.06,.08,.09,.11Z"/><path class="cls-1" d="M60.03,48.24c-.23-.13-.44-.25-.66-.38h0c.22,.13,.44,.25,.66,.39h0Z"/><path class="cls-1" d="M60.03,48.24c-.23-.13-.44-.25-.66-.38h0c.22,.13,.44,.25,.66,.39h0Z"/><path class="cls-1" d="M59.58,49.02c-.07-.38-.14-.76-.21-1.16-.74-.43-1.47-.84-2.18-1.24,.77,1.01,1.51,1.92,2.2,2.74l.2-.35Z"/><path class="cls-1" d="M53.3,48.02c-.43-.72-.91-1.5-1.45-2.31-1.44-.68-2.85-1.31-4.16-1.84,1.06,.33,2.45,.9,4.04,1.66-.52-.79-1.1-1.61-1.73-2.45-.68-.27-1.31-.51-1.86-.68l-.68,1.93c.99,.83,1.96,1.57,2.88,2.24,.9,.41,1.89,.9,2.96,1.45Z"/><path class="cls-1" d="M53.3,48.02c-.43-.72-.91-1.5-1.45-2.31-1.44-.68-2.85-1.31-4.16-1.84,1.06,.33,2.45,.9,4.04,1.66-.52-.79-1.1-1.61-1.73-2.45-.68-.27-1.31-.51-1.86-.68l-.68,1.93c.99,.83,1.96,1.57,2.88,2.24,.9,.41,1.89,.9,2.96,1.45Z"/><path class="cls-1" d="M59.25,49.57c-.76-.43-1.5-.83-2.24-1.23,.53,.98,.93,1.8,1.21,2.42,.04,.02,.07,.04,.11,.07,.05,.03,.1,.05,.15,.08l.89-1.54c-.69-.82-1.43-1.74-2.2-2.74-.57-.32-1.13-.62-1.67-.9,.57,.93,1.05,1.78,1.47,2.55,.74,.41,1.49,.84,2.27,1.3Z"/><path class="cls-1" d="M59.25,49.57c-.76-.43-1.5-.83-2.24-1.23,.53,.98,.93,1.8,1.21,2.42,.04,.02,.07,.04,.11,.07,.05,.03,.1,.05,.15,.08l.89-1.54c-.69-.82-1.43-1.74-2.2-2.74-.57-.32-1.13-.62-1.67-.9,.57,.93,1.05,1.78,1.47,2.55,.74,.41,1.49,.84,2.27,1.3Z"/><path class="cls-1" d="M59.25,49.57c-.76-.43-1.5-.83-2.24-1.23,.53,.98,.93,1.8,1.21,2.42,.04,.02,.07,.04,.11,.07,.05,.03,.1,.05,.15,.08l.89-1.54c-.69-.82-1.43-1.74-2.2-2.74-.57-.32-1.13-.62-1.67-.9,.57,.93,1.05,1.78,1.47,2.55,.74,.41,1.49,.84,2.27,1.3Z"/><path class="cls-1" d="M48.81,45.91c.48,.19,.99,.41,1.53,.66-.92-.67-1.89-1.41-2.88-2.24l-.06,.17c.33,.37,.8,.85,1.41,1.41Z"/><path class="cls-1" d="M48.81,45.91c.48,.19,.99,.41,1.53,.66-.92-.67-1.89-1.41-2.88-2.24l-.06,.17c.33,.37,.8,.85,1.41,1.41Z"/><path class="cls-1" d="M48.81,45.91c.48,.19,.99,.41,1.53,.66-.92-.67-1.89-1.41-2.88-2.24l-.06,.17c.33,.37,.8,.85,1.41,1.41Z"/><path class="cls-1" d="M53.13,46.32c-.44-.22-.86-.4-1.28-.61,.54,.82,1.02,1.59,1.45,2.31,.59,.3,1.19,.62,1.82,.97-.65-.83-1.31-1.71-1.98-2.67Z"/><path class="cls-1" d="M53.13,46.32c-.44-.22-.86-.4-1.28-.61,.54,.82,1.02,1.59,1.45,2.31,.59,.3,1.19,.62,1.82,.97-.65-.83-1.31-1.71-1.98-2.67Z"/><path class="cls-1" d="M53.13,46.32c-.44-.22-.86-.4-1.28-.61,.54,.82,1.02,1.59,1.45,2.31,.59,.3,1.19,.62,1.82,.97-.65-.83-1.31-1.71-1.98-2.67Z"/><path class="cls-1" d="M51.72,45.53c.42,.2,.85,.41,1.3,.63-.55-.79-1.12-1.63-1.68-2.5-.21-.09-.41-.19-.61-.27-.09-.04-.19-.08-.27-.12-.14-.06-.26-.11-.4-.16l-.07-.03c.63,.84,1.21,1.66,1.73,2.45Z"/><path class="cls-1" d="M51.72,45.53c.42,.2,.85,.41,1.3,.63-.55-.79-1.12-1.63-1.68-2.5-.21-.09-.41-.19-.61-.27-.09-.04-.19-.08-.27-.12-.14-.06-.26-.11-.4-.16l-.07-.03c.63,.84,1.21,1.66,1.73,2.45Z"/><path class="cls-1" d="M51.72,45.53c.42,.2,.85,.41,1.3,.63-.55-.79-1.12-1.63-1.68-2.5-.21-.09-.41-.19-.61-.27-.09-.04-.19-.08-.27-.12-.14-.06-.26-.11-.4-.16l-.07-.03c.63,.84,1.21,1.66,1.73,2.45Z"/><path class="cls-1" d="M55.51,45.72c-1.52-.8-2.92-1.5-4.17-2.06,.56,.87,1.12,1.71,1.68,2.5,1.22,.61,2.55,1.32,3.96,2.11-.41-.77-.9-1.62-1.47-2.55Z"/><path class="cls-1" d="M55.51,45.72c-1.52-.8-2.92-1.5-4.17-2.06,.56,.87,1.12,1.71,1.68,2.5,1.22,.61,2.55,1.32,3.96,2.11-.41-.77-.9-1.62-1.47-2.55Z"/><path class="cls-1" d="M55.51,45.72c-1.52-.8-2.92-1.5-4.17-2.06,.56,.87,1.12,1.71,1.68,2.5,1.22,.61,2.55,1.32,3.96,2.11-.41-.77-.9-1.62-1.47-2.55Z"/><path class="cls-1" d="M55.51,45.72c-1.52-.8-2.92-1.5-4.17-2.06,.56,.87,1.12,1.71,1.68,2.5,1.22,.61,2.55,1.32,3.96,2.11-.41-.77-.9-1.62-1.47-2.55Z"/><path class="cls-1" d="M58.23,50.76c-.28-.62-.68-1.44-1.21-2.42-1.33-.72-2.63-1.4-3.89-2.02,.68,.96,1.34,1.84,1.98,2.67,.99,.54,2.04,1.14,3.11,1.77Z"/><path class="cls-1" d="M58.23,50.76c-.28-.62-.68-1.44-1.21-2.42-1.33-.72-2.63-1.4-3.89-2.02,.68,.96,1.34,1.84,1.98,2.67,.99,.54,2.04,1.14,3.11,1.77Z"/><path class="cls-1" d="M58.23,50.76c-.28-.62-.68-1.44-1.21-2.42-1.33-.72-2.63-1.4-3.89-2.02,.68,.96,1.34,1.84,1.98,2.67,.99,.54,2.04,1.14,3.11,1.77Z"/><path class="cls-1" d="M60.03,48.24c-.22-.13-.44-.25-.66-.38,.07,.39,.14,.78,.21,1.16l.45-.77Z"/><path class="cls-1" d="M60.03,48.24c-.22-.13-.44-.25-.66-.38,.07,.39,.14,.78,.21,1.16l.45-.77Z"/><path class="cls-1" d="M60.03,48.24c-.22-.13-.44-.25-.66-.38,.07,.39,.14,.78,.21,1.16"/><path class="cls-1" d="M49.03,46.12c-.08-.07-.15-.14-.23-.21-.54-.22-1.05-.41-1.49-.56l-.2-.06h0c.62,.25,1.27,.54,1.92,.82Z"/><path class="cls-1" d="M49.03,46.12c-.08-.07-.15-.14-.23-.21-.54-.22-1.05-.41-1.49-.56l-.2-.06h0c.62,.25,1.27,.54,1.92,.82Z"/><path class="cls-1" d="M49.03,46.12c-.08-.07-.15-.14-.23-.21-.54-.22-1.05-.41-1.49-.56l-.2-.06h0c.62,.25,1.27,.54,1.92,.82Z"/><path class="cls-1" d="M48.81,45.91c-.61-.56-1.09-1.04-1.41-1.41l-.28,.79,.2,.06c.44,.14,.95,.34,1.49,.56Z"/><path class="cls-1" d="M48.81,45.91c-.61-.56-1.09-1.04-1.41-1.41l-.28,.79,.2,.06c.44,.14,.95,.34,1.49,.56Z"/><path class="cls-1" d="M48.81,45.91c-.61-.56-1.09-1.04-1.41-1.41l-.28,.79,.2,.06c.44,.14,.95,.34,1.49,.56Z"/><path class="cls-1" d="M48.81,45.91c-.61-.56-1.09-1.04-1.41-1.41l-.28,.79,.2,.06c.44,.14,.95,.34,1.49,.56Z"/><path class="cls-1" d="M51.85,45.71c-.04-.06-.08-.12-.12-.18-1.6-.76-2.98-1.33-4.04-1.66,1.31,.53,2.72,1.16,4.16,1.84Z"/><path class="cls-1" d="M51.85,45.71c-.04-.06-.08-.12-.12-.18-1.6-.76-2.98-1.33-4.04-1.66,1.31,.53,2.72,1.16,4.16,1.84Z"/><path class="cls-1" d="M51.85,45.71c-.04-.06-.08-.12-.12-.18-1.6-.76-2.98-1.33-4.04-1.66,1.31,.53,2.72,1.16,4.16,1.84Z"/><path class="cls-1" d="M56.98,48.27l.04,.07c.74,.4,1.48,.8,2.24,1.23-.78-.46-1.53-.89-2.27-1.3Z"/><path class="cls-1" d="M56.98,48.27l.04,.07c.74,.4,1.48,.8,2.24,1.23-.78-.46-1.53-.89-2.27-1.3Z"/><path class="cls-1" d="M56.98,48.27l.04,.07c.74,.4,1.48,.8,2.24,1.23-.78-.46-1.53-.89-2.27-1.3Z"/><path class="cls-1" d="M56.98,48.27l.04,.07c.74,.4,1.48,.8,2.24,1.23-.78-.46-1.53-.89-2.27-1.3Z"/><path class="cls-1" d="M53.13,46.32c-.04-.05-.07-.11-.11-.16-.45-.22-.88-.43-1.3-.63,.04,.06,.08,.12,.12,.18,.43,.2,.85,.39,1.28,.61Z"/><path class="cls-1" d="M53.13,46.32c-.04-.05-.07-.11-.11-.16-.45-.22-.88-.43-1.3-.63,.04,.06,.08,.12,.12,.18,.43,.2,.85,.39,1.28,.61Z"/><path class="cls-1" d="M53.13,46.32c-.04-.05-.07-.11-.11-.16-.45-.22-.88-.43-1.3-.63,.04,.06,.08,.12,.12,.18,.43,.2,.85,.39,1.28,.61Z"/><path class="cls-1" d="M53.13,46.32c-.04-.05-.07-.11-.11-.16-.45-.22-.88-.43-1.3-.63,.04,.06,.08,.12,.12,.18,.43,.2,.85,.39,1.28,.61Z"/><path class="cls-1" d="M57.02,48.34l-.04-.07c-1.41-.79-2.73-1.49-3.96-2.11,.04,.05,.07,.11,.11,.16,1.26,.62,2.56,1.3,3.89,2.02Z"/><path class="cls-1" d="M57.02,48.34l-.04-.07c-1.41-.79-2.73-1.49-3.96-2.11,.04,.05,.07,.11,.11,.16,1.26,.62,2.56,1.3,3.89,2.02Z"/><path class="cls-1" d="M57.02,48.34l-.04-.07c-1.41-.79-2.73-1.49-3.96-2.11,.04,.05,.07,.11,.11,.16,1.26,.62,2.56,1.3,3.89,2.02Z"/><path class="cls-1" d="M57.02,48.34l-.04-.07c-1.41-.79-2.73-1.49-3.96-2.11,.04,.05,.07,.11,.11,.16,1.26,.62,2.56,1.3,3.89,2.02Z"/><path class="cls-1" d="M57.02,48.34l-.04-.07c-1.41-.79-2.73-1.49-3.96-2.11,.04,.05,.07,.11,.11,.16,1.26,.62,2.56,1.3,3.89,2.02Z"/><g><path class="cls-1" d="M102.49,71.69c0-2.57,2.09-4.67,4.67-4.67,.78,0,1.51,.21,2.16,.55-.89-.88-2.11-1.43-3.47-1.43-2.72,0-4.93,2.21-4.93,4.93,0,2.52,1.9,4.58,4.35,4.87-1.63-.73-2.78-2.36-2.78-4.26Z"/><path class="cls-1" d="M109.31,67.57c-.65-.34-1.38-.55-2.16-.55-2.57,0-4.67,2.09-4.67,4.67,0,1.9,1.14,3.53,2.78,4.26,.19,.02,.38,.06,.58,.06,2.72,0,4.93-2.21,4.93-4.93,0-1.37-.56-2.61-1.47-3.5Zm-3.47,5.36c-1.02,0-1.85-.83-1.85-1.85s.83-1.85,1.85-1.85,1.85,.83,1.85,1.85-.83,1.85-1.85,1.85Z"/></g><g><path class="cls-1" d="M96.82,73.98c-2.72,0-4.93,2.21-4.93,4.93s2.21,4.93,4.93,4.93,4.93-2.21,4.93-4.93-2.21-4.93-4.93-4.93Zm0,9.6c-2.57,0-4.67-2.09-4.67-4.67s2.09-4.67,4.67-4.67,4.67,2.09,4.67,4.67-2.09,4.67-4.67,4.67Z"/><path class="cls-1" d="M96.82,74.25c-2.57,0-4.67,2.09-4.67,4.67s2.09,4.67,4.67,4.67,4.67-2.09,4.67-4.67-2.09-4.67-4.67-4.67Zm0,6.52c-1.02,0-1.85-.83-1.85-1.85s.83-1.85,1.85-1.85,1.85,.83,1.85,1.85-.83,1.85-1.85,1.85Z"/></g><path class="cls-1" d="M105.82,87.07l-.86-.66c-.44-.34-.82-.74-1.11-1.19-.26,.16-.52,.33-.79,.48,.31,.56,.73,1.06,1.25,1.46l.71,.55,.75-.49c.8-.52,1.58-1.09,2.33-1.69-.45,.33-.91,.65-1.37,.95l-.91,.59Z"/><path class="cls-1" d="M103.84,85.23c.13-.08,.26-.15,.39-.24,1.76-1.11,3.38-2.42,4.83-3.89h0c.38-.39,.73-.79,1.09-1.19-.83-.71-1.89-1.12-3.02-1.12-1.55,0-2.92,.77-3.77,1.95-.21,.55-.34,1.15-.34,1.77,0,.99,.29,1.92,.82,2.72Zm4.1-4.58c.33,0,.65,.09,.93,.26-.84,.79-1.74,1.53-2.67,2.21-.06-.19-.1-.39-.1-.6,0-1.03,.83-1.87,1.85-1.87Z"/><path class="cls-1" d="M111.7,82.19l-.4-.81c-.29-.58-.68-1.07-1.15-1.47-.35,.4-.71,.81-1.09,1.19h0c-1.45,1.47-3.07,2.77-4.83,3.89-.13,.08-.26,.16-.39,.24,.3,.45,.67,.85,1.11,1.19l.86,.66,.91-.59c.47-.3,.92-.62,1.37-.95,1.05-.83,2.04-1.73,2.97-2.7l.62-.65Z"/><path class="cls-1" d="M111.7,82.19l-.4-.81c-.29-.58-.68-1.07-1.15-1.47-.35,.4-.71,.81-1.09,1.19h0c-1.45,1.47-3.07,2.77-4.83,3.89-.13,.08-.26,.16-.39,.24,.3,.45,.67,.85,1.11,1.19l.86,.66,.91-.59c.47-.3,.92-.62,1.37-.95,1.05-.83,2.04-1.73,2.97-2.7l.62-.65Z"/><path class="cls-1" d="M49.54,79.81c-1.33-.77-2.47-1.7-3.5-2.84-1.33-1.47-3.5,.71-2.18,2.18,1.2,1.33,2.58,2.43,4.12,3.33,1.71,1,3.26-1.66,1.55-2.66Z"/></g></g></svg>