<svg xmlns="http://www.w3.org/2000/svg" width="396" height="80" viewBox="0 0 396 80"><path d="M145.8 22.075c11.5 0 17 8.8 17 19.4v1.7h-24.2c.6 4.3 2.9 7.4 7.5 7.4 3.1 0 5-1.1 6.5-3.7l9.8.7c-2.5 7.4-9 11-16.6 11-10.9 0-17.4-7.7-17.4-18.2-.1-10.4 6.8-18.3 17.4-18.3zm77.6 0c7.6 0 14.7 3.3 15.1 11.7l-9.2.5c-.2-3.7-3.2-5-6.1-5-1.9 0-4.8.3-4.8 2.9 0 5.3 21 1.1 21 14.8 0 8.9-8 11.6-15.6 11.6-7.3 0-16-3.3-16-12.4v-.4l9.3-.3c.6 4.5 2.9 5.7 7.3 5.7 2.1 0 4.9-.5 4.9-3.2 0-6.2-20.5-1.2-20.5-15 .2-8.1 7.6-10.9 14.6-10.9zm-108.1.2c2.6 0 5.2.7 7.2 2.3 3.9 3 4.6 7.2 4.6 11.8v21.2h-10v-20.3c0-3.3-1.3-6.6-5.1-6.6-4.7 0-5.9 4.1-5.9 7.8v19.1h-9.8v-34.5h9.6v4c2.3-3.1 5.4-4.8 9.4-4.8zm54.7.8l5.3 21.6 5.3-21.6h8.6l5.4 21.5 5.3-21.6h10l-10 34.5h-9.1l-5.9-23.2-5.7 23.3H170l-10-34.5h10zm-24 6.7c-4.2 0-6.3 2-7.4 5.9h13.8c-.3-3.4-2.8-5.9-6.4-5.9z" fill-rule="evenodd" clip-rule="evenodd"/><path d="M261.2 31.975c5.3 0 10.8 3.2 11.1 9.4l-6.8.3c-.4-2.5-1.9-3.9-4.4-3.9-4 0-5.3 3.7-5.3 7.1 0 3.4 1 7.4 5.1 7.4 2.6 0 4.5-1.7 4.8-4.3l6.9.3c-1.3 6.9-5.7 10-11.8 10-8 0-12.3-5.4-12.3-13.1-.1-7.7 4.6-13.2 12.7-13.2zm25.5 0c7.7 0 12.5 5.6 12.5 13.1 0 7.7-5.4 13.3-13.2 13.3-7.8 0-12.7-5.4-12.7-13.1 0-8 5.3-13.3 13.4-13.3zm72.6 0c6.8 0 11.3 2 11.3 9.4v10.8c0 2.6.2 4.2.8 5.3l.1.2H364l-.3-2.3c-2.4 1.5-3.8 3-7.8 3-4.6 0-8.7-2.7-8.7-8.1 0-5.4 4.2-7.3 8.9-8l3.4-.5c2.1-.3 3.9-.5 3.9-2.1 0-2.1-2.7-2.3-3.8-2.3-2.6 0-4.4 1-4.4 3.1h-6.6c.4-8.1 8-8.6 10.5-8.6l.2.1zm19.2.7v14.3c0 2.7.5 5.4 3.9 5.4 3.5 0 4.3-2.9 4.3-6.7v-13h6.8v25h-6.7v-2.7c-1.4 2.3-4.5 3.4-7 3.4-7.7 0-8.3-6.2-8.3-10.9v-14.8h7zm-130.3 17.8v7.2H241v-7.2h7.2zm65.8-18.4c3 0 5.5 1.4 6.6 4.3 1.5-2.7 4.4-4.2 7.5-4.2 1.9 0 4.1.6 5.6 1.8 2.5 2.1 2.7 4.6 2.7 7.5v16.2h-7.1v-13.1V43.675c-.1-2.5-.6-5.1-3.6-5.1-3.2 0-3.8 2.4-3.8 4.8V57.675h-7.1v-14.1c0-2.1-.5-5-3.7-5-3.6 0-4 3.4-4 5.8v13.3h-7v-25h7v3.3c1.5-2.7 3.7-3.9 6.9-3.9zm31.4 18.4v7.2h-7.2v-7.2h7.2zm18.2-4.8c-.7.2-1.1.4-1.7.6-2 .5-7.4.6-7.4 3.8 0 2.1 1.9 2.7 3.3 2.7h.1c.7 0 4-.2 5.8-3.2v-3.9zm-77.3-8c-4.3 0-5.7 3.7-5.7 7.4 0 3.6 1.3 7.6 5.6 7.6 4.4 0 5.6-4.1 5.6-7.8.1-3.6-1.3-7.2-5.5-7.2z" fill-rule="evenodd" clip-rule="evenodd" fill="#a1a6a9"/><path d="M393.8 66.6v2.3h-2.5v6.3c0 .6.1 1 .3 1.2.2.2.6.3 1.2.3h.6c.2 0 .3 0 .5-.1v2.7c-.3 0-.6.1-1 .1h-1c-.5 0-1 0-1.5-.1s-.9-.2-1.3-.4-.7-.5-.9-.9c-.2-.4-.3-.9-.3-1.5V69h-2.1v-2.3h2.1v-3.8h3.5v3.8c-.1-.1 2.4-.1 2.4-.1zm-8.9 12.7h-3.5V66.6h3.5v12.7zm-3.4-17.5h3.5v2.9h-3.5v-2.9zm-16.6 4.8v1.8h.1c.4-.7 1-1.3 1.7-1.6.7-.3 1.4-.5 2.1-.5.9 0 1.7.1 2.3.4.6.3 1.1.6 1.4 1.1.3.5.6 1 .7 1.6.1.6.2 1.4.2 2.2v7.8H370v-7.2c0-1-.2-1.8-.5-2.3-.3-.5-.9-.8-1.7-.8-.9 0-1.6.3-2 .8-.4.6-.6 1.5-.6 2.8v6.7h-3.5V66.6h3.2zM348 70.2c.3-.8.7-1.5 1.3-2.1.6-.6 1.3-1 2-1.4.8-.3 1.7-.5 2.7-.5s1.9.2 2.7.5 1.5.8 2.1 1.4c.6.6 1 1.3 1.3 2.1.3.8.5 1.7.5 2.8s-.2 1.9-.5 2.8c-.3.8-.7 1.5-1.3 2.1-.6.6-1.3 1-2.1 1.3-.8.3-1.7.5-2.7.5-1 0-1.9-.2-2.7-.5-.8-.3-1.5-.8-2-1.3-.6-.6-1-1.3-1.3-2.1-.3-.8-.5-1.7-.5-2.8s.2-2 .5-2.8m3.2 4.3c.1.5.3.9.5 1.3s.5.7.9.9c.4.2.9.3 1.5.3s1.1-.1 1.5-.3c.4-.2.7-.5.9-.9.2-.4.4-.8.5-1.3.1-.5.1-1 .1-1.5s0-1-.1-1.5-.3-.9-.5-1.3-.6-.7-.9-.9c-.4-.2-.9-.4-1.5-.4s-1.1.1-1.5.4c-.4.2-.7.5-.9.9-.2.4-.4.8-.5 1.3-.1.5-.1 1-.1 1.5-.1.5 0 1 .1 1.5m-18.9 1.8c.5.5 1.3.8 2.2.8.7 0 1.3-.2 1.8-.5.5-.4.8-.7.9-1.1h3c-.5 1.5-1.2 2.6-2.2 3.3-1 .7-2.2 1-3.7 1-1 0-1.9-.2-2.7-.5-.8-.3-1.5-.8-2-1.4-.6-.6-1-1.3-1.3-2.1-.3-.8-.4-1.7-.4-2.7 0-.9.2-1.8.5-2.7.3-.8.7-1.5 1.3-2.1.6-.6 1.2-1.1 2-1.4.8-.3 1.7-.5 2.6-.5 1.1 0 2 .2 2.8.6.8.4 1.4 1 2 1.7.5.7.9 1.5 1.1 2.4.2.9.3 1.8.2 2.8h-9.1c.2 1 .5 1.9 1 2.4m4-6.7c-.4-.5-1-.7-1.9-.7-.6 0-1 .1-1.4.3-.4.2-.7.4-.9.7-.2.3-.4.6-.5.9-.1.3-.1.6-.2.8h5.6c0-.9-.3-1.6-.7-2m-18.4-7.8v6.4c.4-.7 1-1.1 1.7-1.4.7-.3 1.5-.5 2.3-.5.6 0 1.3.1 1.9.4.6.3 1.2.7 1.7 1.2s.9 1.2 1.2 2.1c.3.8.5 1.8.5 3s-.2 2.2-.5 3c-.3.8-.7 1.5-1.2 2.1-.5.5-1.1.9-1.7 1.2-.6.3-1.2.4-1.9.4-.9 0-1.8-.1-2.5-.4-.7-.3-1.3-.8-1.7-1.5v1.6h-3.3V61.8h3.5zm5.6 9.6c-.1-.5-.3-.9-.5-1.3s-.5-.7-.9-.9c-.4-.2-.8-.3-1.3-.3s-.9.1-1.3.3c-.4.2-.7.5-.9.9-.2.4-.4.8-.5 1.3-.1.5-.2 1-.2 1.5s.1 1 .2 1.5.3.9.5 1.3.6.7.9.9c.4.2.8.3 1.3.3s1-.1 1.3-.3c.4-.2.7-.5.9-.9.2-.4.4-.8.5-1.3.1-.5.2-1 .2-1.5s0-1-.2-1.5"/><g fill-rule="evenodd" clip-rule="evenodd"><path d="M34.7.199h9.9c1.1 0 2 .9 2 2v9.9c0 1.1-.9 2-2 2h-9.9c-1.1 0-2-.9-2-2v-9.9c0-1.1.9-2 2-2z" fill="#c90000"/><path d="M34.7 65.699h9.9c1.1 0 2 .9 2 2v9.9c0 1.1-.9 2-2 2h-9.9c-1.1 0-2-.9-2-2v-9.9c0-1.1.9-2 2-2z" fill="#00838d"/><path d="M2 32.999h9.9c1.1 0 2 .9 2 2v9.9c0 1.1-.9 2-2 2H2c-1.1 0-2-.9-2-2v-9.9c0-1.1.9-2 2-2z" fill="#7c28b6"/><path d="M67.5 32.999h9.9c1.1 0 2 .9 2 2v9.9c0 1.1-.9 2-2 2h-9.9c-1.1 0-2-.9-2-2v-9.9c0-1.1.9-2 2-2z" fill="#81888c"/><g><path d="M64.304 8.348l7 7c.779.778.779 2.05 0 2.829l-7 7a2.006 2.006 0 01-2.828 0l-7-7a2.006 2.006 0 010-2.829l7-7a2.006 2.006 0 012.828 0z" fill="#f46a00"/><path d="M17.989 54.663l7 7c.778.779.778 2.051 0 2.83l-7 7a2.006 2.006 0 01-2.829 0l-7-7a2.006 2.006 0 010-2.83l7-7a2.006 2.006 0 012.829 0z" fill="#1691db"/><path d="M17.918 8.348l7 7c.778.778.778 2.05 0 2.829l-7 7a2.006 2.006 0 01-2.828 0l-7-7a2.006 2.006 0 010-2.829l7-7a2.006 2.006 0 012.828 0z" fill="#d51387"/><path d="M64.234 54.663l7 7c.778.779.778 2.051 0 2.83l-7 7a2.006 2.006 0 01-2.829 0l-7-7a2.006 2.006 0 010-2.83l7-7a2.006 2.006 0 012.829 0z" fill="#4aa90f"/></g></g></svg>