<?xml version="1.0" encoding="UTF-8"?>
<svg xmlns="http://www.w3.org/2000/svg" xmlns:xlink="http://www.w3.org/1999/xlink" viewBox="0 0 48 48" width="48px" height="48px">
<g id="surface42214183">
<path style=" stroke:none;fill-rule:nonzero;fill:#1d9bf0;fill-opacity:1;" d="M 44 24 C 44 35.046875 35.046875 44 24 44 C 12.953125 44 4 35.046875 4 24 C 4 12.953125 12.953125 4 24 4 C 35.046875 4 44 12.953125 44 24 Z M 44 24 "/>
<path style=" stroke:none;fill-rule:nonzero;fill:#fff;fill-opacity:;" d="M 22.5 33 C 22.273438 33 22.054688 32.925781 21.875 32.78125 L 14.375 26.78125 C 13.945312 26.4375 13.875 25.808594 14.21875 25.375 C 14.566406 24.945312 15.195312 24.875 15.625 25.21875 L 22.292969 30.554688 L 32.179688 16.429688 C 32.496094 15.972656 33.121094 15.867188 33.574219 16.183594 C 34.027344 16.5 34.136719 17.121094 33.820312 17.574219 L 23.320312 32.574219 C 23.160156 32.800781 22.917969 32.953125 22.644531 32.992188 C 22.59375 32.996094 22.546875 33 22.5 33 Z M 22.5 33 "/>
</g>
</svg>
