<?xml version="1.0" encoding="utf-8"?>
<!-- Generator: Adobe Illustrator 25.4.1, SVG Export Plug-In . SVG Version: 6.00 Build 0)  -->
<svg version="1.1" id="Слой_1" xmlns="http://www.w3.org/2000/svg" xmlns:xlink="http://www.w3.org/1999/xlink" x="0px" y="0px"
	 viewBox="0 0 1895 6000" style="enable-background:new 0 0 1895 6000;" xml:space="preserve">
<style type="text/css">
	.st0{opacity:0.5;fill:#FFFFFF;fill-opacity:0.3;enable-background:new    ;}
</style>
<path class="st0" d="M372.9,225.3c67,97,151.8,181.9,250.2,249.2c-1,20.5-1.7,41.2-1.7,62.1c0,635.9,504.5,1368.8,1426.5,1368.8
	c283,0,546.6-79.7,768.7-215.9c-39.3,4.6-79,6.8-119.5,6.8c-235,0-451.1-77.1-622.7-205.9c219.3-4.1,404.4-143.5,468.2-334.2
	c-30.6,5.3-62.1,8.9-94.5,8.9c-45.6,0-89.9-6.2-131.8-17.3c229.1-44.2,402-238.5,402-471.8c0-2.1,0-4.2,0-5.7
	c-67.7,35.5-145.1,57.7-227.3,60.1c134.7-86.6,222.9-233.6,222.9-400.5c0-87.9-24.4-171.1-67.9-242.2
	c-247.2,291-616.7,482.7-1033.3,502.9c8.5-35.5,13.1-72.1,13.1-109.7C1626,215.4,1401.5,0,1124.6,0C980.4,0,850.3,58.1,759,151.6
	C644.8,130.3,537.4,89.9,440.5,35c37.4,112.2,117.1,207.1,220.7,266.6C559.3,289.4,462.7,263.8,372.9,225.3"/>
<path class="st0" d="M947.4,1845.7c14.2,20.5,32.1,38.5,53,52.7c-0.2,4.3-0.4,8.7-0.4,13.1c0,134.6,106.8,289.8,302,289.8
	c59.9,0,115.7-16.9,162.7-45.7c-8.3,1-16.7,1.4-25.3,1.4c-49.7,0-95.5-16.3-131.8-43.6c46.4-0.9,85.6-30.4,99.1-70.7
	c-6.5,1.1-13.2,1.9-20,1.9c-9.7,0-19-1.3-27.9-3.7c48.5-9.4,85.1-50.5,85.1-99.9c0-0.4,0-0.9,0-1.2c-14.3,7.5-30.7,12.2-48.1,12.7
	c28.5-18.3,47.2-49.4,47.2-84.8c0-18.6-5.2-36.2-14.4-51.3c-52.3,61.6-130.6,102.2-218.8,106.5c1.8-7.5,2.8-15.3,2.8-23.2
	c0-56.2-47.5-101.8-106.1-101.8c-30.5,0-58.1,12.3-77.4,32.1c-24.2-4.5-46.9-13.1-67.4-24.7c7.9,23.8,24.8,43.8,46.7,56.4
	C986.8,1859.3,966.4,1853.8,947.4,1845.7"/>
<path class="st0" d="M1392.1,3455.3c14.2,20.5,32.1,38.5,53,52.7c-0.2,4.3-0.4,8.7-0.4,13.1c0,134.6,106.8,289.8,302,289.8
	c59.9,0,115.7-16.9,162.7-45.7c-8.3,1-16.7,1.4-25.3,1.4c-49.7,0-95.5-16.3-131.8-43.6c46.4-0.9,85.6-30.4,99.1-70.7
	c-6.5,1.1-13.2,1.9-20,1.9c-9.7,0-19-1.3-27.9-3.7c48.5-9.4,85.1-50.5,85.1-99.9c0-0.4,0-0.9,0-1.2c-14.3,7.5-30.7,12.2-48.1,12.7
	c28.5-18.3,47.2-49.4,47.2-84.8c0-18.6-5.2-36.2-14.4-51.3c-52.3,61.6-130.6,102.2-218.8,106.5c1.8-7.5,2.8-15.3,2.8-23.2
	c0-56.2-47.5-101.8-106.1-101.8c-30.5,0-58.1,12.3-77.4,32.1c-24.2-4.5-46.9-13.1-67.4-24.7c7.9,23.8,24.8,43.8,46.7,56.4
	C1431.6,3468.9,1411.1,3463.5,1392.1,3455.3"/>
<path class="st0" d="M551.8,3996.3c21.7,31.4,49.1,58.9,81,80.7c-0.3,6.6-0.5,13.4-0.5,20.1c0,205.9,163.3,443.2,461.9,443.2
	c91.6,0,177-25.8,248.9-69.9c-12.7,1.5-25.6,2.2-38.7,2.2c-76.1,0-146-25-201.6-66.7c71-1.3,130.9-46.5,151.6-108.2
	c-9.9,1.7-20.1,2.9-30.6,2.9c-14.8,0-29.1-2-42.7-5.6c74.2-14.3,130.2-77.2,130.2-152.8c0-0.7,0-1.4,0-1.8
	c-21.9,11.5-47,18.7-73.6,19.4c43.6-28,72.2-75.6,72.2-129.7c0-28.4-7.9-55.4-22-78.4c-80,94.2-199.7,156.3-334.5,162.8
	c2.8-11.5,4.2-23.4,4.2-35.5c0-86-72.7-155.7-162.3-155.7c-46.7,0-88.8,18.8-118.3,49.1c-37-6.9-71.7-20-103.1-37.8
	c12.1,36.3,37.9,67.1,71.4,86.3C612.1,4017.1,580.9,4008.8,551.8,3996.3"/>
<path class="st0" d="M1051.7,5335.9c18.7,27,42.3,50.7,69.7,69.4c-0.3,5.7-0.5,11.5-0.5,17.3c0,177.1,140.5,381.3,397.4,381.3
	c78.8,0,152.3-22.2,214.1-60.1c-10.9,1.3-22,1.9-33.3,1.9c-65.5,0-125.7-21.5-173.5-57.4c61.1-1.2,112.7-40,130.4-93.1
	c-8.5,1.5-17.3,2.5-26.3,2.5c-12.7,0-25-1.7-36.7-4.8c63.8-12.3,112-66.4,112-131.4c0-0.6,0-1.2,0-1.6
	c-18.9,9.9-40.4,16.1-63.3,16.7c37.5-24.1,62.1-65.1,62.1-111.6c0-24.5-6.8-47.7-18.9-67.5c-68.9,81.1-171.8,134.5-287.9,140.1
	c2.4-9.9,3.6-20.1,3.6-30.6c0-74-62.5-134-139.7-134c-40.2,0-76.4,16.2-101.8,42.2c-31.8-5.9-61.7-17.2-88.7-32.5
	c10.4,31.3,32.6,57.7,61.5,74.3C1103.6,5353.8,1076.7,5346.6,1051.7,5335.9"/>
<path class="st0" d="M22,1422.8c19.2,27.9,43.6,52.2,71.9,71.6c-0.3,5.9-0.5,11.8-0.5,17.8c0,182.6,144.9,393.2,409.7,393.2
	c81.3,0,157-22.9,220.8-62c-11.3,1.3-22.7,2-34.3,2c-67.5,0-129.6-22.1-178.8-59.1c63-1.2,116.1-41.2,134.5-96
	c-8.8,1.5-17.8,2.5-27.1,2.5c-13.1,0-25.8-1.8-37.8-5c65.8-12.7,115.5-68.5,115.5-135.5c0-0.6,0-1.2,0-1.6
	c-19.5,10.2-41.7,16.6-65.3,17.3c38.7-24.9,64-67.1,64-115c0-25.2-7-49.1-19.5-69.6c-71,83.6-177.1,138.6-296.8,144.4
	c2.4-10.2,3.8-20.7,3.8-31.5c0-76.3-64.5-138.1-144-138.1c-41.4,0-78.8,16.7-105,43.6c-32.8-6.1-63.7-17.7-91.5-33.5
	c10.7,32.2,33.6,59.5,63.4,76.6C75.5,1441.2,47.8,1433.9,22,1422.8"/>
</svg>
