<?xml version="1.0" encoding="utf-8"?>
<!-- Generator: Adobe Illustrator 25.4.1, SVG Export Plug-In . SVG Version: 6.00 Build 0)  -->
<svg version="1.1" id="Слой_1" xmlns="http://www.w3.org/2000/svg" xmlns:xlink="http://www.w3.org/1999/xlink" x="0px" y="0px"
	 viewBox="0 0 1895 6000" style="enable-background:new 0 0 1895 6000;" xml:space="preserve">
<style type="text/css">
	.st0{opacity:0.5;fill:#FFFFFF;fill-opacity:0.3;enable-background:new    ;}
</style>
<path class="st0" d="M372.9,5578.6c89.8-38.5,186.4-64.2,288.2-76.3c-103.6,59.5-183.3,154.4-220.7,266.6
	c96.9-55,204.3-95.4,318.5-116.7c91.2,93.6,221.4,151.6,365.5,151.6c276.9,0,501.4-215.4,501.4-480.9c0-37.6-4.6-74.2-13.1-109.7
	c416.6,20.2,786.1,211.9,1033.3,502.9c43.4-71.1,67.9-154.3,67.9-242.2c0-166.9-88.3-313.9-222.9-400.5
	c82.2,2.4,159.6,24.5,227.3,60.1c0-1.5,0-3.6,0-5.7c0-233.3-172.9-427.6-402-471.8c41.9-11.1,86.1-17.3,131.8-17.3
	c32.4,0,63.9,3.5,94.5,8.9c-63.8-190.6-248.9-330-468.2-334.2c171.6-128.8,387.7-205.9,622.7-205.9c40.6,0,80.3,2.2,119.5,6.8
	c-222.1-136.1-485.7-215.9-768.7-215.9c-922.1,0-1426.5,733-1426.5,1368.8c0,20.8,0.7,41.6,1.7,62.1
	C524.7,5396.8,439.9,5481.6,372.9,5578.6"/>
<path class="st0" d="M947.4,3958.2c19-8.2,39.5-13.6,61-16.2c-21.9,12.6-38.8,32.7-46.7,56.4c20.5-11.6,43.3-20.2,67.4-24.7
	c19.3,19.8,46.9,32.1,77.4,32.1c58.6,0,106.1-45.6,106.1-101.8c0-8-1-15.7-2.8-23.2c88.2,4.3,166.4,44.9,218.8,106.5
	c9.2-15.1,14.4-32.7,14.4-51.3c0-35.3-18.7-66.5-47.2-84.8c17.4,0.5,33.8,5.2,48.1,12.7c0-0.3,0-0.8,0-1.2
	c0-49.4-36.6-90.5-85.1-99.9c8.9-2.3,18.2-3.7,27.9-3.7c6.9,0,13.5,0.7,20,1.9c-13.5-40.4-52.7-69.9-99.1-70.7
	c36.3-27.3,82.1-43.6,131.8-43.6c8.6,0,17,0.5,25.3,1.4c-47-28.8-102.8-45.7-162.7-45.7c-195.2,0-302,155.2-302,289.8
	c0,4.4,0.1,8.8,0.4,13.1C979.5,3919.7,961.6,3937.7,947.4,3958.2"/>
<path class="st0" d="M1392.1,2348.6c19-8.2,39.5-13.6,61-16.2c-21.9,12.6-38.8,32.7-46.7,56.4c20.5-11.6,43.3-20.2,67.4-24.7
	c19.3,19.8,46.9,32.1,77.4,32.1c58.6,0,106.1-45.6,106.1-101.8c0-8-1-15.7-2.8-23.2c88.2,4.3,166.4,44.9,218.8,106.5
	c9.2-15.1,14.4-32.7,14.4-51.3c0-35.3-18.7-66.5-47.2-84.8c17.4,0.5,33.8,5.2,48.1,12.7c0-0.3,0-0.8,0-1.2
	c0-49.4-36.6-90.5-85.1-99.9c8.9-2.3,18.2-3.7,27.9-3.7c6.9,0,13.5,0.7,20,1.9c-13.5-40.4-52.7-69.9-99.1-70.7
	c36.3-27.3,82.1-43.6,131.8-43.6c8.6,0,17,0.5,25.3,1.4c-47-28.8-102.8-45.7-162.7-45.7c-195.2,0-302,155.2-302,289.8
	c0,4.4,0.1,8.8,0.4,13.1C1424.3,2310.1,1406.3,2328,1392.1,2348.6"/>
<path class="st0" d="M551.8,1807.6c29.1-12.5,60.3-20.8,93.3-24.7c-33.5,19.3-59.3,50-71.4,86.3c31.4-17.8,66.1-30.9,103.1-37.8
	c29.5,30.3,71.7,49.1,118.3,49.1c89.6,0,162.3-69.7,162.3-155.7c0-12.2-1.5-24-4.2-35.5c134.9,6.5,254.5,68.6,334.5,162.8
	c14.1-23,22-50,22-78.4c0-54-28.6-101.6-72.2-129.7c26.6,0.8,51.7,7.9,73.6,19.4c0-0.5,0-1.2,0-1.8c0-75.5-56-138.4-130.2-152.7
	c13.6-3.6,27.9-5.6,42.7-5.6c10.5,0,20.7,1.1,30.6,2.9c-20.7-61.7-80.6-106.8-151.6-108.2c55.6-41.7,125.5-66.7,201.6-66.7
	c13.1,0,26,0.7,38.7,2.2c-71.9-44.1-157.3-69.9-248.9-69.9c-298.5,0-461.9,237.3-461.9,443.2c0,6.7,0.2,13.5,0.5,20.1
	C600.9,1748.7,573.5,1776.2,551.8,1807.6"/>
<path class="st0" d="M1051.7,468c25-10.7,51.9-17.9,80.3-21.3c-28.9,16.6-51.1,43-61.5,74.3c27-15.3,56.9-26.6,88.7-32.5
	c25.4,26.1,61.7,42.2,101.8,42.2c77.1,0,139.7-60,139.7-134c0-10.5-1.3-20.7-3.6-30.6c116.1,5.6,219,59,287.9,140.1
	c12.1-19.8,18.9-43,18.9-67.5c0-46.5-24.6-87.5-62.1-111.6c22.9,0.7,44.4,6.8,63.3,16.7c0-0.4,0-1,0-1.6c0-65-48.2-119.1-112-131.4
	c11.7-3.1,24-4.8,36.7-4.8c9,0,17.8,1,26.3,2.5c-17.8-53.1-69.3-91.9-130.4-93.1c47.8-35.9,108-57.4,173.5-57.4
	c11.3,0,22.4,0.6,33.3,1.9C1670.6,22.2,1597.2,0,1518.4,0C1261.5,0,1121,204.2,1121,381.3c0,5.8,0.2,11.6,0.5,17.3
	C1094,417.4,1070.4,441,1051.7,468"/>
<path class="st0" d="M22,4381.1c25.8-11.1,53.5-18.4,82.8-21.9c-29.7,17.1-52.6,44.4-63.4,76.6c27.8-15.8,58.7-27.4,91.5-33.5
	c26.2,26.9,63.6,43.6,105,43.6c79.5,0,144-61.9,144-138.1c0-10.8-1.3-21.3-3.8-31.5c119.7,5.8,225.8,60.9,296.8,144.4
	c12.5-20.4,19.5-44.3,19.5-69.6c0-47.9-25.4-90.2-64-115c23.6,0.7,45.8,7,65.3,17.3c0-0.4,0-1,0-1.6c0-67-49.7-122.8-115.5-135.5
	c12-3.2,24.7-5,37.8-5c9.3,0,18.4,1,27.1,2.5c-18.3-54.8-71.5-94.8-134.5-96c49.3-37,111.4-59.1,178.8-59.1c11.7,0,23.1,0.6,34.3,2
	c-63.8-39.1-139.5-62-220.8-62c-264.8,0-409.7,210.5-409.7,393.2c0,6,0.2,11.9,0.5,17.8C65.6,4328.9,41.2,4353.2,22,4381.1"/>
</svg>
