<svg width="24" height="24" viewBox="0 0 24 24" fill="none" xmlns="http://www.w3.org/2000/svg">
<path fill-rule="evenodd" clip-rule="evenodd" d="M17.4643 1.56152C17.5401 1.63782 17.6003 1.72847 17.6414 1.82826C17.6824 1.92806 17.7036 2.03504 17.7036 2.14309C17.7036 2.25113 17.6824 2.35812 17.6414 2.45791C17.6003 2.55771 17.5401 2.64836 17.4643 2.72466L8.26437 12.0002L17.4643 21.2758C17.6172 21.43 17.7032 21.6392 17.7032 21.8574C17.7032 22.0755 17.6172 22.2847 17.4643 22.4389C17.3113 22.5932 17.1039 22.6798 16.8875 22.6798C16.6712 22.6798 16.4638 22.5932 16.3108 22.4389L6.53582 12.5818C6.45996 12.5055 6.39978 12.4149 6.35871 12.3151C6.31765 12.2153 6.29651 12.1083 6.29651 12.0002C6.29651 11.8922 6.31765 11.7852 6.35871 11.6854C6.39978 11.5856 6.45996 11.495 6.53582 11.4187L16.3108 1.56152C16.3865 1.48502 16.4764 1.42433 16.5753 1.38292C16.6743 1.34151 16.7804 1.32019 16.8875 1.32019C16.9947 1.32019 17.1008 1.34151 17.1997 1.38292C17.2987 1.42433 17.3886 1.48502 17.4643 1.56152V1.56152Z" fill="#5D6673"/>
</svg>
