<svg width="24" height="24" viewBox="0 0 24 24" fill="none" xmlns="http://www.w3.org/2000/svg">
<path fill-rule="evenodd" clip-rule="evenodd" d="M6.53573 22.4385C6.45987 22.3622 6.39968 22.2715 6.35862 22.1717C6.31755 22.0719 6.29642 21.965 6.29642 21.8569C6.29642 21.7489 6.31755 21.6419 6.35862 21.5421C6.39968 21.4423 6.45987 21.3516 6.53573 21.2753L15.7356 11.9998L6.53573 2.7242C6.38277 2.56996 6.29684 2.36076 6.29684 2.14263C6.29684 1.9245 6.38277 1.7153 6.53573 1.56106C6.68869 1.40681 6.89614 1.32016 7.11246 1.32016C7.32877 1.32016 7.53622 1.40681 7.68918 1.56106L17.4642 11.4182C17.54 11.4945 17.6002 11.5851 17.6413 11.6849C17.6824 11.7847 17.7035 11.8917 17.7035 11.9998C17.7035 12.1078 17.6824 12.2148 17.6413 12.3146C17.6002 12.4144 17.54 12.505 17.4642 12.5813L7.68918 22.4385C7.61351 22.515 7.52362 22.5757 7.42466 22.6171C7.32569 22.6585 7.2196 22.6798 7.11245 22.6798C7.00531 22.6798 6.89922 22.6585 6.80025 22.6171C6.70129 22.5757 6.6114 22.515 6.53573 22.4385V22.4385Z" fill="#5D6673"/>
</svg>
