<svg width="18" height="19" viewBox="0 0 18 19" fill="none" xmlns="http://www.w3.org/2000/svg">
<path fill-rule="evenodd" clip-rule="evenodd" d="M1.85172 5.72671C1.90397 5.67433 1.96604 5.63277 2.03438 5.60441C2.10272 5.57605 2.17598 5.56145 2.24997 5.56145C2.32396 5.56145 2.39722 5.57605 2.46556 5.60441C2.53389 5.63277 2.59597 5.67433 2.64822 5.72671L8.99997 12.0796L15.3517 5.72671C15.404 5.67441 15.4661 5.63293 15.5344 5.60462C15.6028 5.57632 15.676 5.56175 15.75 5.56175C15.8239 5.56175 15.8972 5.57632 15.9655 5.60462C16.0338 5.63293 16.0959 5.67441 16.1482 5.72671C16.2005 5.77901 16.242 5.8411 16.2703 5.90943C16.2986 5.97776 16.3132 6.051 16.3132 6.12496C16.3132 6.19892 16.2986 6.27216 16.2703 6.34049C16.242 6.40882 16.2005 6.47091 16.1482 6.52321L9.39822 13.2732C9.34597 13.3256 9.28389 13.3672 9.21556 13.3955C9.14722 13.4239 9.07396 13.4385 8.99997 13.4385C8.92598 13.4385 8.85272 13.4239 8.78438 13.3955C8.71604 13.3672 8.65397 13.3256 8.60172 13.2732L1.85172 6.52321C1.79933 6.47096 1.75777 6.40889 1.72942 6.34055C1.70106 6.27221 1.68646 6.19895 1.68646 6.12496C1.68646 6.05097 1.70106 5.97771 1.72942 5.90937C1.75777 5.84103 1.79933 5.77896 1.85172 5.72671V5.72671Z" fill="#343E48"/>
</svg>
