<svg width="28" height="28" viewBox="0 0 28 28" fill="none" xmlns="http://www.w3.org/2000/svg">
<path d="M21 12V9.99997H7V12H12V14.734L8.132 21.504L9.868 22.496L13.58 16H14.42L18.132 22.496L19.868 21.504L16 14.734V12H21Z" fill="#13141D"/>
<path d="M14.0001 9.00003C15.1046 9.00003 16.0001 8.1046 16.0001 7.00003C16.0001 5.89546 15.1046 5.00003 14.0001 5.00003C12.8955 5.00003 12.0001 5.89546 12.0001 7.00003C12.0001 8.1046 12.8955 9.00003 14.0001 9.00003Z" fill="#13141D"/>
<path d="M14 28C11.2311 28 8.52431 27.1789 6.22202 25.6406C3.91973 24.1022 2.12532 21.9157 1.06569 19.3576C0.00606596 16.7994 -0.271181 13.9845 0.269012 11.2687C0.809205 8.55301 2.14258 6.05844 4.10051 4.10051C6.05844 2.14258 8.55301 0.809205 11.2687 0.269012C13.9845 -0.271181 16.7994 0.00606596 19.3576 1.06569C21.9157 2.12532 24.1022 3.91973 25.6406 6.22202C27.1789 8.52431 28 11.2311 28 14C27.9958 17.7117 26.5194 21.2702 23.8948 23.8948C21.2702 26.5194 17.7117 27.9958 14 28ZM14 2.00001C11.6266 2.00001 9.30655 2.70379 7.33316 4.02237C5.35977 5.34095 3.8217 7.21509 2.91345 9.4078C2.0052 11.6005 1.76756 14.0133 2.23058 16.3411C2.69361 18.6689 3.83649 20.8071 5.51472 22.4853C7.19295 24.1635 9.33115 25.3064 11.6589 25.7694C13.9867 26.2324 16.3995 25.9948 18.5922 25.0866C20.7849 24.1783 22.6591 22.6402 23.9776 20.6668C25.2962 18.6935 26 16.3734 26 14C25.9963 10.8185 24.7308 7.76845 22.4812 5.51882C20.2316 3.26918 17.1815 2.00371 14 2.00001Z" fill="#13141D"/>
</svg>
