<svg width="24" height="24" viewBox="0 0 24 24" fill="none" xmlns="http://www.w3.org/2000/svg">
<path d="M6.22505 4.81099C6.03645 4.62883 5.78384 4.52803 5.52165 4.53031C5.25945 4.53259 5.00864 4.63776 4.82323 4.82317C4.63782 5.00858 4.53265 5.25939 4.53037 5.52158C4.5281 5.78378 4.62889 6.03638 4.81105 6.22499L10.586 12L4.81005 17.775C4.71454 17.8672 4.63836 17.9776 4.58595 18.0996C4.53354 18.2216 4.50595 18.3528 4.5048 18.4856C4.50364 18.6184 4.52895 18.75 4.57923 18.8729C4.62951 18.9958 4.70376 19.1075 4.79765 19.2014C4.89155 19.2953 5.0032 19.3695 5.12609 19.4198C5.24899 19.4701 5.38067 19.4954 5.51345 19.4942C5.64623 19.4931 5.77745 19.4655 5.89945 19.4131C6.02146 19.3607 6.1318 19.2845 6.22405 19.189L12 13.414L17.775 19.189C17.9637 19.3711 18.2163 19.4719 18.4784 19.4697C18.7406 19.4674 18.9915 19.3622 19.1769 19.1768C19.3623 18.9914 19.4674 18.7406 19.4697 18.4784C19.472 18.2162 19.3712 17.9636 19.189 17.775L13.414 12L19.189 6.22499C19.3712 6.03638 19.472 5.78378 19.4697 5.52158C19.4674 5.25939 19.3623 5.00858 19.1769 4.82317C18.9915 4.63776 18.7406 4.53259 18.4784 4.53031C18.2163 4.52803 17.9637 4.62883 17.775 4.81099L12 10.586L6.22505 4.80999V4.81099Z" fill="#5D6673"/>
</svg>
