<svg width="30" height="30" viewBox="0 0 30 30" fill="none" xmlns="http://www.w3.org/2000/svg">
<path d="M12.4998 21.9376L10.2873 24.0876C9.70713 24.6678 8.92027 24.9937 8.0998 24.9937C7.27932 24.9937 6.49246 24.6678 5.9123 24.0876C5.33213 23.5075 5.0062 22.7206 5.0062 21.9001C5.0062 21.0797 5.33213 20.2928 5.9123 19.7126L11.5873 14.0251C12.1443 13.4663 12.8948 13.143 13.6836 13.122C14.4723 13.1011 15.2389 13.3841 15.8248 13.9126L15.9748 14.0376C16.2118 14.2697 16.5314 14.3981 16.8631 14.3946C17.1948 14.3911 17.5115 14.2559 17.7435 14.0189C17.9756 13.7818 18.104 13.4623 18.1005 13.1306C18.097 12.7989 17.9618 12.4822 17.7248 12.2501C17.6542 12.1589 17.5792 12.0713 17.4998 11.9876C16.4327 11.0593 15.0527 10.5712 13.6393 10.6222C12.2258 10.6733 10.8846 11.2597 9.8873 12.2626L4.1373 17.9501C3.16024 19.0136 2.63182 20.4135 2.66239 21.8573C2.69296 23.3012 3.28015 24.6774 4.30134 25.6986C5.32253 26.7198 6.69875 27.307 8.14261 27.3375C9.58646 27.3681 10.9863 26.8397 12.0498 25.8626L14.2123 23.7501C14.4258 23.5172 14.5432 23.212 14.5408 22.896C14.5384 22.5801 14.4164 22.2767 14.1994 22.047C13.9824 21.8173 13.6865 21.6784 13.3711 21.6581C13.0558 21.6378 12.7445 21.7377 12.4998 21.9376V21.9376ZM25.8623 4.13762C24.8108 3.09263 23.3885 2.5061 21.906 2.5061C20.4236 2.5061 19.0013 3.09263 17.9498 4.13762L15.7873 6.25012C15.5738 6.48306 15.4564 6.78822 15.4588 7.1042C15.4612 7.42019 15.5831 7.72354 15.8002 7.95323C16.0172 8.18291 16.3131 8.32189 16.6285 8.34218C16.9438 8.36248 17.2551 8.26259 17.4998 8.06262L19.6623 5.91262C20.2425 5.33246 21.0293 5.00653 21.8498 5.00653C22.6703 5.00653 23.4571 5.33246 24.0373 5.91262C24.6175 6.49278 24.9434 7.27965 24.9434 8.10012C24.9434 8.92059 24.6175 9.70746 24.0373 10.2876L18.3623 15.9751C17.8053 16.5339 17.0548 16.8573 16.266 16.8782C15.4773 16.8992 14.7107 16.6161 14.1248 16.0876L13.9748 15.9626C13.7378 15.7306 13.4182 15.6022 13.0865 15.6057C12.7548 15.6092 12.4381 15.7443 12.206 15.9814C11.974 16.2184 11.8456 16.5379 11.8491 16.8696C11.8526 17.2013 11.9878 17.5181 12.2248 17.7501C12.3156 17.843 12.4116 17.9306 12.5123 18.0126C13.5806 18.9382 14.9601 19.4244 16.3727 19.3734C17.7853 19.3224 19.126 18.7379 20.1248 17.7376L25.8123 12.0501C26.864 11.0052 27.4595 9.58666 27.4689 8.10418C27.4782 6.6217 26.9007 5.19573 25.8623 4.13762V4.13762Z" fill="#5D6673"/>
</svg>
