<svg width="35" height="35" viewBox="0 0 35 35" fill="none" xmlns="http://www.w3.org/2000/svg">
<path d="M27.9667 18.9638C27.1404 19.1833 26.289 19.2944 25.4341 19.2943C22.8307 19.2943 20.3858 18.2822 18.5494 16.4458C17.3434 15.2329 16.4765 13.7251 16.0349 12.0728C15.5933 10.4204 15.5925 8.68117 16.0325 7.0284C16.0875 6.82175 16.0871 6.60429 16.0315 6.39782C15.9759 6.19135 15.867 6.00313 15.7156 5.85205C15.5643 5.70098 15.3759 5.59235 15.1694 5.53706C14.9628 5.48178 14.7453 5.48179 14.5388 5.53708C12.4696 6.08847 10.5819 7.17427 9.0649 8.68556C4.3117 13.4388 4.3117 21.1758 9.0649 25.9315C10.1947 27.0676 11.5386 27.9683 13.0188 28.5816C14.4991 29.1949 16.0862 29.5085 17.6885 29.5043C19.2903 29.5088 20.8771 29.1954 22.3569 28.5823C23.8368 27.9693 25.1803 27.0687 26.3096 25.9327C27.822 24.4154 28.9083 22.5267 29.4593 20.4564C29.514 20.2498 29.5136 20.0325 29.458 19.8262C29.4024 19.6198 29.2936 19.4317 29.1425 19.2806C28.9914 19.1295 28.8033 19.0207 28.5969 18.9652C28.3906 18.9096 28.1733 18.9091 27.9667 18.9638V18.9638ZM24.5866 24.2085C23.683 25.117 22.6081 25.8374 21.4243 26.3278C20.2404 26.8182 18.9711 27.0689 17.6897 27.0655C16.4078 27.0687 15.1381 26.8177 13.9539 26.3271C12.7696 25.8365 11.6944 25.116 10.7903 24.2072C6.98827 20.4039 6.98827 14.2143 10.7903 10.411C11.525 9.67714 12.3732 9.06651 13.3023 8.60264C13.1663 10.3574 13.4108 12.1209 14.019 13.7725C14.6272 15.4241 15.5848 16.925 16.8263 18.1725C18.0711 19.4179 19.5715 20.3782 21.2238 20.9868C22.8761 21.5955 24.6409 21.8381 26.3962 21.6977C25.9298 22.6252 25.319 23.4727 24.5866 24.2085V24.2085Z" fill="#DBE0E3"/>
</svg>
