<svg width="22" height="25" viewBox="0 0 22 25" fill="none" xmlns="http://www.w3.org/2000/svg">
<g clip-path="url(#clip0_676:3449)">
<path d="M1 24.4998C0.734784 24.4998 0.48043 24.3945 0.292893 24.2069C0.105357 24.0194 0 23.765 0 23.4998V1.49983C2.97509e-05 1.32606 0.0453407 1.15529 0.131467 1.00437C0.217593 0.853443 0.341561 0.727566 0.491153 0.639143C0.640745 0.550721 0.810796 0.502805 0.984546 0.500119C1.1583 0.497434 1.32975 0.540072 1.482 0.623829L21.482 11.6238C21.6388 11.7102 21.7695 11.837 21.8606 11.9911C21.9517 12.1451 21.9997 12.3208 21.9997 12.4998C21.9997 12.6788 21.9517 12.8545 21.8606 13.0086C21.7695 13.1627 21.6388 13.2895 21.482 13.3758L1.482 24.3758C1.33435 24.4571 1.16855 24.4998 1 24.4998Z" fill="white"/>
</g>
<defs>
<clipPath id="clip0_676:3449">
<rect width="22" height="24" fill="white" transform="translate(0 0.5)"/>
</clipPath>
</defs>
</svg>
