<svg width="35" height="35" viewBox="0 0 35 35" fill="none" xmlns="http://www.w3.org/2000/svg">
<path d="M8.22496 24.7916L7.18954 25.827C6.91793 26.1003 6.76547 26.4699 6.76547 26.8552C6.76547 27.2404 6.91793 27.6101 7.18954 27.8833C7.46278 28.1549 7.8324 28.3074 8.21767 28.3074C8.60294 28.3074 8.97256 28.1549 9.24579 27.8833L10.2812 26.8479C10.5201 26.5689 10.645 26.21 10.6308 25.843C10.6166 25.476 10.4645 25.1278 10.2047 24.8681C9.94502 24.6084 9.59686 24.4562 9.22983 24.442C8.8628 24.4279 8.50394 24.5527 8.22496 24.7916V24.7916ZM7.29163 17.5C7.29163 17.1132 7.13798 16.7423 6.86449 16.4688C6.591 16.1953 6.22007 16.0416 5.83329 16.0416H4.37496C3.98819 16.0416 3.61725 16.1953 3.34376 16.4688C3.07027 16.7423 2.91663 17.1132 2.91663 17.5C2.91663 17.8867 3.07027 18.2577 3.34376 18.5312C3.61725 18.8046 3.98819 18.9583 4.37496 18.9583H5.83329C6.22007 18.9583 6.591 18.8046 6.86449 18.5312C7.13798 18.2577 7.29163 17.8867 7.29163 17.5ZM17.5 7.29163C17.8867 7.29163 18.2577 7.13798 18.5312 6.86449C18.8046 6.591 18.9583 6.22007 18.9583 5.83329V4.37496C18.9583 3.98819 18.8046 3.61725 18.5312 3.34376C18.2577 3.07027 17.8867 2.91663 17.5 2.91663C17.1132 2.91663 16.7423 3.07027 16.4688 3.34376C16.1953 3.61725 16.0416 3.98819 16.0416 4.37496V5.83329C16.0416 6.22007 16.1953 6.591 16.4688 6.86449C16.7423 7.13798 17.1132 7.29163 17.5 7.29163ZM8.22496 10.2812C8.49659 10.5506 8.86321 10.7025 9.24579 10.7041C9.43772 10.7052 9.62798 10.6685 9.80566 10.5959C9.98334 10.5233 10.1449 10.4164 10.2812 10.2812C10.5528 10.008 10.7053 9.63836 10.7053 9.25308C10.7053 8.86781 10.5528 8.4982 10.2812 8.22496L9.24579 7.18954C8.96681 6.95063 8.60795 6.82579 8.24092 6.83996C7.8739 6.85414 7.52573 7.00629 7.26601 7.26601C7.00629 7.52573 6.85414 7.8739 6.83996 8.24092C6.82579 8.60795 6.95063 8.96681 7.18954 9.24579L8.22496 10.2812ZM25.725 10.7041C26.1075 10.7025 26.4742 10.5506 26.7458 10.2812L27.7812 9.24579C27.9339 9.11506 28.0579 8.95418 28.1454 8.77325C28.2329 8.59232 28.2821 8.39525 28.2899 8.19441C28.2976 7.99357 28.2638 7.7933 28.1905 7.60616C28.1172 7.41902 28.0059 7.24905 27.8638 7.10693C27.7217 6.96481 27.5517 6.8536 27.3646 6.78028C27.1775 6.70696 26.9772 6.67312 26.7763 6.68088C26.5755 6.68864 26.3784 6.73783 26.1975 6.82536C26.0166 6.91289 25.8557 7.03688 25.725 7.18954L24.7916 8.22496C24.52 8.4982 24.3676 8.86781 24.3676 9.25308C24.3676 9.63836 24.52 10.008 24.7916 10.2812C25.0487 10.5369 25.3919 10.6877 25.7541 10.7041H25.725ZM30.625 16.0416H29.1666C28.7799 16.0416 28.4089 16.1953 28.1354 16.4688C27.8619 16.7423 27.7083 17.1132 27.7083 17.5C27.7083 17.8867 27.8619 18.2577 28.1354 18.5312C28.4089 18.8046 28.7799 18.9583 29.1666 18.9583H30.625C31.0117 18.9583 31.3827 18.8046 31.6562 18.5312C31.9297 18.2577 32.0833 17.8867 32.0833 17.5C32.0833 17.1132 31.9297 16.7423 31.6562 16.4688C31.3827 16.1953 31.0117 16.0416 30.625 16.0416ZM17.5 27.7083C17.1132 27.7083 16.7423 27.8619 16.4688 28.1354C16.1953 28.4089 16.0416 28.7799 16.0416 29.1666V30.625C16.0416 31.0117 16.1953 31.3827 16.4688 31.6562C16.7423 31.9297 17.1132 32.0833 17.5 32.0833C17.8867 32.0833 18.2577 31.9297 18.5312 31.6562C18.8046 31.3827 18.9583 31.0117 18.9583 30.625V29.1666C18.9583 28.7799 18.8046 28.4089 18.5312 28.1354C18.2577 27.8619 17.8867 27.7083 17.5 27.7083ZM26.775 24.7916C26.4979 24.6375 26.1782 24.5779 25.8642 24.6218C25.5502 24.6657 25.2591 24.8107 25.0349 25.0349C24.8107 25.2591 24.6657 25.5502 24.6218 25.8642C24.5779 26.1782 24.6375 26.4979 24.7916 26.775L25.827 27.8104C26.1003 28.082 26.4699 28.2345 26.8552 28.2345C27.2404 28.2345 27.6101 28.082 27.8833 27.8104C28.1549 27.5371 28.3074 27.1675 28.3074 26.7823C28.3074 26.397 28.1549 26.0274 27.8833 25.7541L26.775 24.7916ZM17.5 9.47913C15.9136 9.47913 14.3628 9.94954 13.0438 10.8309C11.7248 11.7122 10.6968 12.9649 10.0897 14.4305C9.4826 15.8961 9.32376 17.5089 9.63324 19.0647C9.94273 20.6206 10.7066 22.0498 11.8284 23.1715C12.9501 24.2933 14.3793 25.0572 15.9352 25.3667C17.4911 25.6762 19.1038 25.5173 20.5694 24.9102C22.035 24.3032 23.2877 23.2751 24.169 21.9561C25.0504 20.6371 25.5208 19.0863 25.5208 17.5C25.5169 15.3739 24.6707 13.336 23.1673 11.8326C21.6639 10.3293 19.626 9.48298 17.5 9.47913ZM17.5 22.6041C16.4905 22.6041 15.5036 22.3048 14.6642 21.7439C13.8249 21.1831 13.1706 20.3859 12.7843 19.4532C12.398 18.5206 12.2969 17.4943 12.4939 16.5042C12.6908 15.5141 13.1769 14.6046 13.8908 13.8908C14.6046 13.1769 15.5141 12.6908 16.5042 12.4939C17.4943 12.2969 18.5206 12.398 19.4532 12.7843C20.3859 13.1706 21.1831 13.8249 21.7439 14.6642C22.3048 15.5036 22.6041 16.4905 22.6041 17.5C22.6041 18.8537 22.0664 20.1519 21.1092 21.1092C20.1519 22.0664 18.8537 22.6041 17.5 22.6041V22.6041Z" fill="#FFD100"/>
</svg>
