<svg width="23" height="21" viewBox="0 0 23 21" fill="none" xmlns="http://www.w3.org/2000/svg">
<g clip-path="url(#clip0_590:3588)">
<path d="M16.5358 16.5358C14.9525 18.1209 12.8685 19.108 10.6391 19.3289C8.40958 19.5498 6.17248 18.9908 4.30889 17.7473C2.44531 16.5037 1.07054 14.6525 0.418809 12.509C-0.232921 10.3655 -0.12129 8.0623 0.734684 5.99187C1.59066 3.92144 3.13802 2.21184 5.11313 1.15434C7.08825 0.0968426 9.36892 -0.243129 11.5666 0.19235C13.7643 0.627828 15.7429 1.81181 17.1656 3.54259C18.5882 5.27336 19.3667 7.44384 19.3684 9.68424H16.9474C16.9488 8.00379 16.3676 6.37482 15.3026 5.07491C14.2377 3.775 12.7549 2.88459 11.107 2.55541C9.4591 2.22622 7.74805 2.47863 6.26541 3.26963C4.78276 4.06063 3.62027 5.34126 2.97602 6.89331C2.33177 8.44536 2.24564 10.1728 2.73229 11.7812C3.21894 13.3897 4.24827 14.7796 5.64487 15.7142C7.04147 16.6487 8.71893 17.0701 10.3914 16.9065C12.0639 16.7429 13.6278 16.0044 14.8168 14.8169L16.5358 16.5358ZM13.3158 9.68424H23L18.1579 14.5263L13.3158 9.68424Z" fill="white"/>
</g>
<defs>
<clipPath id="clip0_590:3588">
<rect width="23" height="20.5789" fill="white"/>
</clipPath>
</defs>
</svg>
