<svg width="24" height="22" viewBox="0 0 24 22" fill="none" xmlns="http://www.w3.org/2000/svg">
<g clip-path="url(#clip0_587:2836)">
<path d="M17.0358 17.2463C15.4525 18.8314 13.3685 19.8185 11.1391 20.0394C8.90958 20.2603 6.67248 19.7013 4.80889 18.4578C2.94531 17.2142 1.57054 15.363 0.918809 13.2195C0.267079 11.076 0.37871 8.77281 1.23468 6.70238C2.09066 4.63195 3.63802 2.92235 5.61313 1.86485C7.58825 0.807353 9.86892 0.467382 12.0666 0.90286C14.2643 1.33834 16.2429 2.52232 17.6656 4.2531C19.0882 5.98387 19.8667 8.15435 19.8684 10.3947H17.4474C17.4488 8.7143 16.8676 7.08533 15.8026 5.78542C14.7377 4.48551 13.2549 3.5951 11.607 3.26592C9.9591 2.93673 8.24805 3.18914 6.76541 3.98014C5.28276 4.77114 4.12027 6.05177 3.47602 7.60382C2.83177 9.15587 2.74564 10.8833 3.23229 12.4917C3.71894 14.1002 4.74827 15.4901 6.14487 16.4247C7.54147 17.3592 9.21893 17.7806 10.8914 17.617C12.5639 17.4534 14.1278 16.7149 15.3168 15.5274L17.0358 17.2463ZM13.8158 10.3947H23.5L18.6579 15.2369L13.8158 10.3947Z" fill="#EF1D27"/>
</g>
<defs>
<clipPath id="clip0_587:2836">
<rect width="23" height="20.5789" fill="white" transform="translate(0.5 0.71051)"/>
</clipPath>
</defs>
</svg>
