<svg width="412" height="122" viewBox="0 0 412 122" fill="none" xmlns="http://www.w3.org/2000/svg">
<path d="M28.1999 82.9C26.1999 82.9 24.5999 82 23.8999 80.4C23.1999 78.8 23.6999 77 25.0999 75.5C28.8999 71.4 32.5999 68.3 36.4999 65C38.4999 63.3 40.5999 61.5 42.7999 59.5C45.9999 57 47.5999 52.9 46.4999 49.8C45.6999 47.4 43.3999 46.1 40.1999 46.1C37.4999 46.1 34.6999 47.7 33.0999 50.3C32.1999 51.7 30.8999 52.4 29.2999 52.4C27.7999 52.4 26.3999 51.7 25.6999 50.5C24.7999 49.1 24.7999 47.3 25.5999 45.5C28.2999 40.3 33.5999 37.3 40.1999 37.3C47.3999 37.3 53 40.7 55.3 46.3C57.8 52.5 55.5999 59.9 49.5999 65.8C45.2999 69.5 42.0999 71.8 38.0999 74.2C39.0999 74.2 40.1999 74.1 41.2999 74C42.8999 73.9 44.5 73.8 45.9 73.8H53.4C56.1999 73.8 57.7999 76.3 57.7999 78.6C57.7999 79.8 57.3999 80.8 56.6999 81.6C55.8999 82.5 54.8 83 53.4 83H28.1999V82.9Z" fill="#D23131"/>
<path d="M85.7 83.2C83.5 83.2 81.1 81.9 81.1 79.1V74H63.1C60.7 74 59 73.1 58.2 71.6C57.4 69.9 57.8001 67.7 59.4001 65.8L81.1 39.6C82.3001 38.3 83.5001 37.3 86.0001 37.3C89.2001 37.3 90.3001 40 90.3001 42.2V65.2H92.8001C94.1001 65.2 95.2001 65.7 95.9001 66.6C96.6001 67.4 96.9001 68.4 96.9001 69.6C96.9001 71.9 95.5001 74.2 92.8001 74.2H90.3001V79.3C90.4001 81.8 88 83.2 85.7 83.2ZM81.6 65L81.7 51.6L70.5001 65H81.6Z" fill="#D23131"/>
<path d="M60.6 121.4C46.2 121.4 32.2 116.3 21.3 106.9C10.5 97.7 3.19999 84.9 0.899991 70.9C0.499991 68.6 2.09999 66.4 4.39999 66C6.69999 65.6 8.89999 67.2 9.29999 69.5C13.5 94.6 35.1 112.8 60.6 112.8C89.3 112.8 112.6 89.5 112.6 60.8C112.6 32.1 89.3 8.80001 60.6 8.80001C48.2 8.80001 36.2 13.2 26.8 21.3C17.5 29.3 11.3 40.3 9.29999 52.3C8.89999 54.6 6.69999 56.2 4.39999 55.8C2.09999 55.4 0.499991 53.2 0.899991 50.9C3.19999 36.9 10.4 24.1 21.3 14.8C32.3 5.40001 46.3 0.200012 60.7 0.200012C94.1 0.200012 121.3 27.4 121.3 60.8C121.2 94.2 94 121.4 60.6 121.4Z" fill="#D23131"/>
<path d="M138.2 49.4C138.2 46.5 140.1 45.6 142.4 47.3L154.9 56.7C157.2 58.4 157.2 61.3 154.9 63L142.4 72.4C140.1 74.1 138.2 73.2 138.2 70.3V49.4Z" fill="#D23131"/>
<path d="M212.6 37V82.9H201.6V65H184.4V82.8H173.4V37H184.4V54.8H201.6V37H212.6Z" fill="#D23131"/>
<path d="M246.5 36.1C259.7 36.1 270.4 46.1 270.4 60C270.4 73.8 259.7 83.8 246.5 83.8C233.3 83.8 222.7 73.8 222.7 60C222.7 46.1 233.3 36.1 246.5 36.1ZM246.5 72.9C254 72.9 258.9 67.6 258.9 59.9C258.9 52.2 254 46.9 246.5 46.9C239.1 46.9 234.2 52.1 234.2 59.9C234.2 67.6 239.1 72.9 246.5 72.9Z" fill="#D23131"/>
<path d="M305.7 82.8L297.2 67.9H291.6V82.8H280.6V37H297.7C309.2 37 316.2 43.3 316.2 52.7C316.2 58.9 313.3 63.4 307.9 65.9L318.1 82.8H305.7V82.8ZM291.5 58.1H299.1C303 58.1 304.6 55.2 304.6 52.7C304.6 50.2 303 47.3 299.1 47.3H291.5V58.1Z" fill="#D23131"/>
<path d="M355.9 75.6H337.8L335.2 82.8H323.3L341.6 37H352L370.3 82.9H358.4L355.9 75.6ZM352.3 66L349 57.1C348 54.5 346.8 50.4 346.8 50.4H346.7C346.6 50.4 345.5 54.5 344.5 57.1L341.2 66H352.3Z" fill="#D23131"/>
<path d="M400 51.5C398.9 47.4 395.3 45.5 392.1 45.5C388.9 45.5 386.9 47.1 386.9 49C386.9 52 391.5 53.1 397.1 55.2C403.9 57.7 411.1 61.6 411.1 69.4C411.1 77.8 403.9 83.7 393.2 83.7C383.6 83.7 376.8 78.4 373.8 69.8L384.3 67C385.5 70.5 388.8 73.9 393.6 73.9C397.5 73.9 399.4 72.1 399.4 69.8C399.4 66.1 394 65.2 387.5 62.7C382 60.6 375.6 57.6 375.6 49.5C375.6 42.4 382.8 35.9 392.8 35.9C401.6 35.9 408.5 41.3 410.7 48.5L400 51.5Z" fill="#D23131"/>
</svg>
