<?xml version="1.0" encoding="UTF-8" standalone="no"?>
<!DOCTYPE svg PUBLIC "-//W3C//DTD SVG 1.1//EN" "http://www.w3.org/Graphics/SVG/1.1/DTD/svg11.dtd">
<svg width="100%" height="100%" viewBox="0 0 200 200" version="1.1" xmlns="http://www.w3.org/2000/svg" xmlns:xlink="http://www.w3.org/1999/xlink" xml:space="preserve" xmlns:serif="http://www.serif.com/" style="fill-rule:evenodd;clip-rule:evenodd;stroke-linejoin:round;stroke-miterlimit:2;">
    <g transform="matrix(1,0,0,1,0,-330.788)">
        <g id="Mesa-de-trabajo1" serif:id="Mesa de trabajo1" transform="matrix(3.0962,0,0,3.07321,480.434,-686.121)">
            <rect x="-155.169" y="330.895" width="64.595" height="65.079" style="fill:none;"/>
            <g transform="matrix(1,0,0,1,0.844841,-0.576504)">
                <g transform="matrix(1.02468,0,0,1.03235,-95.0249,385.174)">
                    <path d="M0,-40L0,-1.904C0,-0.857 -0.9,0 -2,0L-54,0C-55.1,0 -56,-0.857 -56,-1.904L-56,-40L0,-40Z" style="fill:rgb(193,202,215);fill-rule:nonzero;"/>
                </g>
                <g transform="matrix(1.02468,0,0,1.03235,-100.148,381.045)">
                    <path d="M0,-38.096L0,-5.714C0,-2.572 -2.648,0 -5.885,0L-51,0L-51,-38L-49,-38L-49.039,-38.096L0,-38.096Z" style="fill:rgb(226,235,238);fill-rule:nonzero;"/>
                </g>
                <g transform="matrix(1.02468,0,0,1.03235,-95.0249,342.847)">
                    <path d="M0,-6L0,2L-56,2L-56,-6C-56,-7.1 -55.1,-8 -54,-8L-2,-8C-0.9,-8 0,-7.1 0,-6" style="fill:rgb(239,29,39);fill-rule:nonzero;"/>
                </g>
                <g transform="matrix(0,1.03235,1.02468,0,-113.469,337.686)">
                    <path d="M2,-2C3.103,-2 4,-1.103 4,0C4,1.103 3.103,2 2,2C0.897,2 0,1.103 0,0C0,-1.103 0.897,-2 2,-2" style="fill:rgb(245,247,255);fill-rule:nonzero;"/>
                </g>
                <g transform="matrix(0,1.03235,1.02468,0,-107.321,337.686)">
                    <path d="M2,-2C3.103,-2 4,-1.103 4,0C4,1.103 3.103,2 2,2C0.897,2 0,1.103 0,0C0,-1.103 0.897,-2 2,-2" style="fill:rgb(245,247,255);fill-rule:nonzero;"/>
                </g>
                <g transform="matrix(0,1.03235,1.02468,0,-101.173,337.686)">
                    <path d="M2,-2C3.103,-2 4,-1.103 4,0C4,1.103 3.103,2 2,2C0.897,2 0,1.103 0,0C0,-1.103 0.897,-2 2,-2" style="fill:rgb(245,247,255);fill-rule:nonzero;"/>
                </g>
                <g transform="matrix(1.02468,0,0,1.03235,-147.284,340.783)">
                    <path d="M0,-2C-0.553,-2 -1,-1.553 -1,-1C-1,-0.447 -0.553,0 0,0L19,0C19.553,0 20,-0.447 20,-1C20,-1.553 19.553,-2 19,-2L0,-2Z" style="fill:rgb(245,247,255);fill-rule:nonzero;"/>
                </g>
                <g transform="matrix(1.02468,0,0,1.03235,-111.42,363.67)">
                    <path d="M0,28.83L-24,28.83C-25.04,28.83 -25.94,28.45 -26.63,27.83C-27.99,26.64 -28.48,24.57 -27.44,22.8L-15.45,2.46C-15.06,1.79 -14.51,1.29 -13.9,0.96C-12.11,0 -9.7,0.5 -8.55,2.46L3.44,22.8C5.01,25.46 3.09,28.83 0,28.83" style="fill:rgb(239,29,39);fill-rule:nonzero;"/>
                </g>
                <g transform="matrix(1.02468,0,0,1.03235,-115.634,373.8)">
                    <path d="M0,-1.787C-0.284,-2.261 -0.898,-2.415 -1.372,-2.13C-1.845,-1.846 -1.999,-1.231 -1.715,-0.758L-1.175,0.143C-0.987,0.455 -0.656,0.628 -0.316,0.628C-0.142,0.628 0.036,0.582 0.197,0.485C0.67,0.201 0.824,-0.413 0.54,-0.887L0,-1.787Z" style="fill:rgb(19,20,29);fill-rule:nonzero;"/>
                </g>
                <g transform="matrix(1.02468,0,0,1.03235,-123.716,370.721)">
                    <path d="M0,13C-0.552,13 -1,12.553 -1,12L-1,1C-1,0.447 -0.552,0 0,0C0.552,0 1,0.447 1,1L1,12C1,12.553 0.552,13 0,13" style="fill:rgb(235,127,88);fill-rule:nonzero;"/>
                </g>
                <g transform="matrix(1.02468,0,0,1.03235,-123.716,388.272)">
                    <path d="M0,-0.002L0,-0.001L0,-0.002ZM0,1.999C-1.103,1.999 -2,1.102 -2,-0.001C-2,-1.104 -1.103,-2.001 0,-2.001C1.103,-2.001 2,-1.104 2,-0.001C2,1.102 1.103,1.999 0,1.999" style="fill:rgb(235,127,88);fill-rule:nonzero;"/>
                </g>
                <g transform="matrix(1.02468,0,0,1.03235,-123.716,370.721)">
                    <path d="M0,13C0.552,13 1,12.553 1,12L1,1C1,0.447 0.552,0 0,0C-0.552,0 -1,0.447 -1,1L-1,12C-1,12.553 -0.552,13 0,13" style="fill:rgb(245,247,255);fill-rule:nonzero;"/>
                </g>
                <g transform="matrix(-1.02468,0,0,1.03235,-123.716,390.335)">
                    <path d="M0,-4C1.103,-4 2,-3.103 2,-2C2,-0.897 1.103,0 0,0C-1.103,0 -2,-0.897 -2,-2C-2,-3.103 -1.103,-4 0,-4" style="fill:rgb(245,247,255);fill-rule:nonzero;"/>
                </g>
                <g transform="matrix(1.02468,0,0,1.03235,-97.0743,343.88)">
                    <path d="M0,39L-11.15,39L-15.619,31.422C-15.899,30.946 -16.512,30.788 -16.988,31.068C-17.464,31.349 -17.622,31.962 -17.341,32.438L-11.421,42.478C-10.868,43.415 -10.861,44.541 -11.402,45.489C-11.943,46.436 -12.914,47 -14,47L-38,47C-39.086,47 -40.057,46.436 -40.598,45.489C-41.139,44.541 -41.132,43.415 -40.579,42.478L-28.589,22.138C-28.042,21.211 -27.075,20.657 -26,20.657C-24.925,20.657 -23.958,21.211 -23.412,22.136L-21.862,24.775C-21.583,25.252 -20.971,25.411 -20.494,25.132C-20.018,24.853 -19.858,24.239 -20.138,23.764L-21.688,21.122C-22.598,19.579 -24.21,18.657 -26,18.657C-27.79,18.657 -29.402,19.579 -30.312,21.122L-40.85,39L-52,39C-52.551,39 -53,38.552 -53,38L-53,2L1,2L1,38C1,38.552 0.551,39 0,39M-52,-8L0,-8C0.551,-8 1,-7.552 1,-7L1,0L-53,0L-53,-7C-53,-7.552 -52.551,-8 -52,-8M0,-10L-52,-10C-53.654,-10 -55,-8.654 -55,-7L-55,38C-55,39.654 -53.654,41 -52,41L-42.029,41L-42.301,41.462C-43.224,43.025 -43.236,44.901 -42.334,46.48C-41.434,48.059 -39.813,49 -38,49L-14,49C-12.187,49 -10.566,48.059 -9.666,46.48C-8.764,44.901 -8.776,43.025 -9.699,41.462L-9.971,41L0,41C1.654,41 3,39.654 3,38L3,-7C3,-8.654 1.654,-10 0,-10" style="fill:rgb(19,20,29);fill-rule:nonzero;"/>
                </g>
                <g transform="matrix(1.02468,0,0,1.03235,-113.469,337.686)">
                    <path d="M0,4C1.103,4 2,3.103 2,2C2,0.897 1.103,0 0,0C-1.103,0 -2,0.897 -2,2C-2,3.103 -1.103,4 0,4" style="fill:rgb(245,247,255);fill-rule:nonzero;"/>
                </g>
                <g transform="matrix(1.02468,0,0,1.03235,-107.321,337.686)">
                    <path d="M0,4C1.103,4 2,3.103 2,2C2,0.897 1.103,0 0,0C-1.103,0 -2,0.897 -2,2C-2,3.103 -1.103,4 0,4" style="fill:rgb(245,247,255);fill-rule:nonzero;"/>
                </g>
                <g transform="matrix(1.02468,0,0,1.03235,-101.173,337.686)">
                    <path d="M0,4C1.103,4 2,3.103 2,2C2,0.897 1.103,0 0,0C-1.103,0 -2,0.897 -2,2C-2,3.103 -1.103,4 0,4" style="fill:rgb(245,247,255);fill-rule:nonzero;"/>
                </g>
                <g transform="matrix(1.02468,0,0,1.03235,-147.284,338.718)">
                    <path d="M0,2L19,2C19.552,2 20,1.553 20,1C20,0.447 19.552,0 19,0L0,0C-0.552,0 -1,0.447 -1,1C-1,1.553 -0.552,2 0,2" style="fill:rgb(245,247,255);fill-rule:nonzero;"/>
                </g>
            </g>
        </g>
    </g>
</svg>
