<svg version="1.1" id="Layer_1" xmlns="http://www.w3.org/2000/svg" x="0" y="0" viewBox="0 0 53.8 28.3" style="enable-background:new 0 0 53.8 28.3" xml:space="preserve"><style>.st2{fill:#336}</style><path style="fill:#fff" d="M42.4 27.7 48.1.8H10.6L4.9 27.7z"/><path d="M11.4 1.9s20.9 4.3 21.3 4.4c4.7.8 4.6 1.7 4.6 1.7 3.4 0 3.8.1 4.4.6 1.8 1.5-1.1 5.8-1.1 5.8-.5.4-31.5 12.3-31.5 12.3h32.5l5.3-25H11.4v.2z" style="fill:#243e8f"/><path class="st2" d="M11.4 1.9s20.9 4.3 21.3 4.4c4.7.8 4.6 1.7 4.6 1.7 3.4 0 3.8.1 4.4.6 1.8 1.5-1.1 5.8-1.1 5.8-.5.4-31.5 12.3-31.5 12.3h32.5l5.3-25H11.4v.2z"/><path class="st2" d="M35.7 10c-.5.2-1.7.4-2.3.4-.6 0-.7.1-.7.3 0 .2.1.3.9.3 1.8 0 5.1-.7 6.1-.4.5.2.1 1.1-.3 2.3-.2.5.2.4.3.2.2-.2 1-1.8 1.1-2.6.1-1.1-.8-1.3-2.2-1.3h-2.1c-.1 0-.2.1-.3.2-.1.3-.2.4-.5.6z"/><path class="st2" d="M10.2 7.5 6.1 26.7s12.5-6.1 14-6.9c3.1-1.6 7.5-3.7 11.5-5.1.8-.3 4-1.3 5.9-1.6.7-.1 1.1-.3 1-.4 0-.4-.8-.4-2-.4-3.8.2-11.2 3.1-13.3 4.2l-2.4-7.4H36c.7-1.9-9-1.6-9.3-1.7H10.2v.1zM52 24c0 1.5-1.2 2.7-2.7 2.7-1.5 0-2.7-1.2-2.7-2.7 0-1.5 1.2-2.7 2.7-2.7 1.5 0 2.7 1.2 2.7 2.7zm-5.1 0c0 1.3 1 2.3 2.3 2.3 1.3 0 2.3-1 2.3-2.3 0-1.3-1-2.3-2.3-2.3-1.3 0-2.3 1-2.3 2.3zm1.7 1.6h-.4v-3.2h1.2c.7 0 1 .3 1 .9 0 .6-.4.8-.8.9l.9 1.4H50l-.9-1.4h-.7v1.4zm.5-1.7c.5 0 .9 0 .9-.6 0-.4-.4-.5-.8-.5h-.7v1.1h.6z"/></svg>