<?xml version="1.0" encoding="UTF-8" standalone="no"?>
<!-- Created with Inkscape (http://www.inkscape.org/) -->

<svg
   version="1.1"
   id="svg2"
   width="468"
   height="493.33334"
   viewBox="0 0 468 493.33334"
   sodipodi:docname="usm_holdings.eps"
   xmlns:inkscape="http://www.inkscape.org/namespaces/inkscape"
   xmlns:sodipodi="http://sodipodi.sourceforge.net/DTD/sodipodi-0.dtd"
   xmlns="http://www.w3.org/2000/svg"
   xmlns:svg="http://www.w3.org/2000/svg">
  <defs
     id="defs6" />
  <sodipodi:namedview
     id="namedview4"
     pagecolor="#ffffff"
     bordercolor="#000000"
     borderopacity="0.25"
     inkscape:showpageshadow="2"
     inkscape:pageopacity="0.0"
     inkscape:pagecheckerboard="0"
     inkscape:deskcolor="#d1d1d1" />
  <g
     id="g8"
     inkscape:groupmode="layer"
     inkscape:label="ink_ext_XXXXXX"
     transform="matrix(1.3333333,0,0,-1.3333333,0,493.33333)">
    <g
       id="g10"
       transform="scale(0.1)">
      <path
         d="m 918.879,3699.45 h 592.701 l -1.4,-184 -591.403,1.5 z m 1085.401,-30.9 21.6,15.5 567,-0.7 9.7,-15 z m 3.8,-172.7 577.2,-0.6 0.8,-22.8 -579.2,-0.2 z m -1089.1,-17.5 593.2,-0.4 -0.5,-175.7 -592.7,-0.1 z m 1089.2,-171.6 588.9,-0.1 2.3,-31.2 -592.7,0.2 z m -1089.403,-49.6 593.503,0.6 -2.3,-172 -591.402,2 z m 1088.803,-139.4 590.1,-0.4 0.8,-39 h -590.8 z m -1088.4,-81.3 592.6,-0.3 -0.1,-161.9 -592.301,-0.3 z m 1087.5,-106 549.4,1 42.8,-9.9 -1.1,-33.5 -41.5,-5.5 -548.7,-0.2 z m -1087.602,-113.4 592.502,-0.3 0.6,-156 -405.6,-2.9 -187.701,2.2 z m 1085.702,-75.8 593.7,0.4 0.2,-55.8 -593.4,0.3 z m -1085.401,-146.2 592.101,-0.1 5.47,-136.85 37.16,-116.06 53.89,-91.5 73.7,-41.55 -310.92,-508.34 -103.2,63.6 340.42,486.29 -476.82,-345.19 -14.2,-5.5 -70.9,106 508.03,336.19 -589.93,-176.69 -35.7,136.7 588.47,156.05 -595.673,-13.35 z m 1086.101,-42.4 593.2,0.3 -3.4,-61.4 -108.8,-0.8 h -480.4 z m 2.1,-124.9 577.2,-134.3 -16.9,-73.4 -577.7,135.1 z m -147.9,-209.7 78.11,41.91 46.59,77.29 480.1,-347.6 -47.2,-67.6 -481.7,341.4 315.5,-498.2 -79.2,-52.9 z m -175.82,-9.45 89.22,-12.89 84.2,19.24 118.1,-582.8 -100.8,-18.7 -101.5,582.26 -102.5,-584.96 -109.5,17 122.78,580.85"
         style="fill:#cf112b;fill-opacity:1;fill-rule:nonzero;stroke:none"
         id="path12" />
      <path
         d="m 1571.28,1242.85 c 142.9,16 296.2,-12.2 411.2,-102.4 -31.7,-72.8 -62.6,-145.899 -94.3,-218.802 -75.2,62.102 -175.1,96.402 -272.7,85.702 -46.1,-4.8 -92.5,-39.1 -94.4,-88.502 -5.2,-47.5 38.6,-78.797 75.1,-99.297 107.2,-57.403 227.3,-97.602 314.5,-186.102 126.6,-124.898 136.9,-340.801 38,-485.199 -48.1,-70.6992 -127.1,-117 -210.6,-132.1016 -46.8,-7.30074 -94.2,-19.59762 -141.6,-9.19918 -135.7,9.39848 -275.6,44.99998 -382.5,132.69878 47.6,75.403 92.2,152.5 138.3,228.801 78.8,-59.301 173.8,-102.898 273.8,-103.699 43.8,0.199 96.1,14.699 115.1,58.598 21.6,51.5 -8.3,108.703 -50.2,139.8 -79.2,59.7 -175.3,90.5 -259.2,142.5 -75.2,44.301 -144.8,108.403 -170.6,194.301 -29.2,100 -14.4,214.701 48.5,299.201 61.5,82.7 160.9,130.6 261.6,143.7 z M 6.37891,1214.15 c 98.80109,1.9 197.60109,-1.2 296.39809,1.7 2.301,-248.799 0.301,-497.6 0.996,-746.401 -0.195,-48.301 15.106,-98.601 51.106,-132.398 47.101,-46.602 117.801,-57.5 181.301,-51.403 51.597,4.301 103.199,26.903 135.394,68.403 30.203,38.297 36.805,88.797 36.203,136 -0.597,241.5 0.301,483 -0.5,724.499 98.903,-0.1 197.801,1.1 296.703,-0.7 -2.6,-251.006 0.1,-502.1 -1.3,-753.1 -2.3,-109.699 -40.5,-220.5 -115.903,-301.5 C 805.68,68.8477 686.18,20.6484 566.879,9.64844 417.277,-5.05469 255.18,31.5508 143.879,137.344 56.9805,217.648 11.6797,335.148 6.37891,451.949 Z m 2257.60109,0.5 c 100.7,-0.5 201.3,0.3 302,-0.4 106,-168.9 213,-337.199 319.6,-505.699 106.1,169.097 212.9,337.699 319.9,506.199 100.3,-0.6 200.6,-0.1 300.9,-0.2 V 40.5508 c -98.5,-2.1016 -197.1,-0.4024 -295.6,-2 -1.3,220.1992 0.9,440.5002 -1.1,660.6992 -107.3,-151.5 -216.3,-302 -324,-453.301 -109.5,148.102 -212,301.602 -324.1,447.602 -0.8,-218.403 0.1,-436.801 -0.5,-655.301 -99,3.8008 -198.1,-2 -297.1,1.8984 0.2,391.4996 0.2,782.9996 0,1174.5016"
         style="fill:#0f253a;fill-opacity:1;fill-rule:nonzero;stroke:none"
         id="path14" />
    </g>
  </g>
</svg>
