<?xml version="1.0" encoding="UTF-8"?>
<!DOCTYPE svg PUBLIC "-//W3C//DTD SVG 1.1//EN" "http://www.w3.org/Graphics/SVG/1.1/DTD/svg11.dtd">
<svg xmlns="http://www.w3.org/2000/svg" xmlns:xlink="http://www.w3.org/1999/xlink">
	<defs>
		<clipPath id="clip0">
			<path fill="#fff" d="M0 0h11v12H0z"/>
		</clipPath>
		<clipPath id="clip0">
			<path fill="#fff" d="M0 0h19v19H0z"/>
		</clipPath>
	</defs>
<symbol id="18" viewBox="0 0 32 32">
	<circle cx="16" cy="16" r="16" fill="#fff"/>
	<path fill-rule="evenodd" d="M10.51 11.38H8.95a3.571 3.571 0 01-1.21 1.61 5.658 5.658 0 01-1.63.93v1.74a6.632 6.632 0 002.48-1.45v7.24h1.92V11.38zm3.25 5.71a2.854 2.854 0 00-.41 1.49 2.8 2.8 0 001.08 2.33 3.578 3.578 0 002.27.71 3.261 3.261 0 002.36-.86 3.021 3.021 0 00.88-2.26 2.573 2.573 0 00-.43-1.48 2.648 2.648 0 00-1.27-.98 2.28 2.28 0 001.02-.83 2.2 2.2 0 00.36-1.24 2.384 2.384 0 00-.79-1.85 3.7 3.7 0 00-4.44 0 2.409 2.409 0 00-.78 1.85 2.281 2.281 0 00.33 1.2 2.257 2.257 0 001.09.87 2.581 2.581 0 00-1.27 1.05zm1.99-3.85a1.2 1.2 0 01.88-.33 1.118 1.118 0 011.19 1.19 1.123 1.123 0 01-1.21 1.22 1.121 1.121 0 01-1.19-1.22 1.138 1.138 0 01.33-.86zm-.16 4.1a1.207 1.207 0 011.05-.48 1.309 1.309 0 011.01.43 1.6 1.6 0 01.39 1.13 1.746 1.746 0 01-.39 1.23 1.247 1.247 0 01-.98.43 1.314 1.314 0 01-1.02-.45 1.736 1.736 0 01-.4-1.23 1.807 1.807 0 01.34-1.06zM25.53 20v-2.6h2.63v-1.8h-2.63V13h-1.75v2.6h-2.63v1.8h2.63V20h1.75z" data-name="18+"/>
</symbol>
<symbol id="answer" viewBox="0 0 16 13">
	<path fill="#8e8e8e" fill-rule="evenodd" d="M15.974 8.42a.341.341 0 00-.073-.11l-4-4.1a.317.317 0 00-.471 0 .344.344 0 000 .48l3.43 3.52H8.332A7.779 7.779 0 01.665.34a.333.333 0 10-.666 0 8.45 8.45 0 008.333 8.55h6.528l-3.43 3.53a.344.344 0 000 .48.328.328 0 00.472 0l4-4.11a.374.374 0 00.072-.11.344.344 0 000-.26z" data-name="Forma 1"/>
</symbol>
<symbol id="apple" viewBox="0 0 14 14">
	<path fill="#A6B1B7" d="M12.629 9.726a.291.291 0 00-.206-.13 2.028 2.028 0 01-.341-3.948.292.292 0 00.156-.434A3.404 3.404 0 009.783 3.5a4.804 4.804 0 00-1.528.327c-.35.141-.72.228-1.097.256a3.689 3.689 0 01-1.097-.256A4.804 4.804 0 004.533 3.5c-1.089 0-3.208 1.544-3.208 4.375 0 2.69 1.962 6.125 3.5 6.125a3.723 3.723 0 001.692-.39c.197-.109.416-.175.641-.194.225.02.444.085.642.194a3.723 3.723 0 001.692.39c1.219 0 2.595-2.093 3.171-4.033a.292.292 0 00-.034-.24zM6.867 3.5A3.212 3.212 0 0010.075.292.292.292 0 009.783 0a3.212 3.212 0 00-3.208 3.208c0 .161.13.292.292.292z"/>
</symbol>
<symbol id="arrRight-black" viewBox="0 0 7 10">
	<path fill="#0c0c0c" fill-rule="evenodd" d="M0 0h2.1L7 4.934 2.1 10H0l4.9-5z" data-name="Forma 1 copy 15"/>
</symbol>
<symbol id="arrRight" viewBox="0 0 7 9">
	<path fill="#fff" fill-rule="evenodd" d="M0 0h2.1L7 4.44 2.1 9H0l4.9-4.5z" data-name="Forma 1 copy 11"/>
</symbol>
<symbol id="arrowUp" viewBox="0 0 15 14.5">
	<path fill="#fff" fill-rule="evenodd" d="M8.75 14.515V4.636l4.481 4.34L15 7.263 7.5 0 0 7.263l1.769 1.713 4.481-4.34v9.879" data-name="Forma 1 copy"/>
</symbol>
<symbol id="audio" viewBox="0 0 14 13">
	<path stroke="#9E9E9E" stroke-width=".7" d="M1 10.5V7c0-2 1.2-6 6-6s6 4 6 6v3.5"/>
	<path stroke="#9E9E9E" stroke-width=".7" d="M4 12.5V8c-1.2 0-1.5.667-1.5 1v2.5c0 .8 1 1 1.5 1zM10 12.5V8c1.2 0 1.5.667 1.5 1v2.5c0 .8-1 1-1.5 1z"/>
</symbol>
<symbol id="back" viewBox="0 0 23 15">
	<path fill="#fff" fill-rule="evenodd" d="M23 1.25h-2.421v5H4.636l4.34-4.482L7.263 0 0 7.5 7.263 15l1.713-1.769-4.34-4.481H23v-7.5z" data-name="Forma 1"/>
</symbol>
<symbol id="backward" viewBox="0 0 32 32">
	<path d="M3.436 10.974c0-1.435 5.026-8.615 12.923-8.615C24.974 2.359 30 9.539 30 16c0 6.462-5.026 13.641-13.64 13.641-9.334 0-12.924-7.897-12.924-10.77"/>
	<path d="M2 5l.538 4.706c.18.588.862 1.647 2.154 1.177 1.293-.47 3.59-1.569 4.308-1.765M12.615 13.41h2.118v6.883m6.882-6.883H17.91v2.647h1.589c.529 0 1.588.318 1.588 1.589 0 1.27-1.059 1.588-1.588 1.588H17.38"/>
</symbol>
<symbol id="camera" viewBox="0 0 512 512">
	<path d="M256 149.333c-70.583 0-128 57.417-128 128s57.417 128 128 128 128-57.417 128-128-57.417-128-128-128zM256 384c-58.813 0-106.667-47.854-106.667-106.667S197.188 170.667 256 170.667s106.667 47.854 106.667 106.667S314.813 384 256 384z"/>
	<circle cx="426.667" cy="192" r="21.333"/>
	<path d="M469.333 106.667h-67.656c-8.552 0-16.583-3.333-22.635-9.375l-39-39c-10.073-10.073-23.469-15.625-37.719-15.625h-92.646c-14.25 0-27.646 5.552-37.719 15.625l-39 39c-6.052 6.042-14.083 9.375-22.635 9.375H42.667C19.135 106.667 0 125.802 0 149.333v277.333c0 23.531 19.135 42.667 42.667 42.667h426.667c23.531 0 42.667-19.135 42.667-42.667V149.333c-.001-23.531-19.136-42.666-42.668-42.666zm21.334 320c0 11.76-9.573 21.333-21.333 21.333H42.667c-11.76 0-21.333-9.573-21.333-21.333V149.333c0-11.76 9.573-21.333 21.333-21.333h67.656c14.25 0 27.646-5.552 37.719-15.625l39-39C193.094 67.333 201.125 64 209.677 64h92.646c8.552 0 16.583 3.333 22.635 9.375l39 39C374.031 122.448 387.427 128 401.677 128h67.656c11.76 0 21.333 9.573 21.333 21.333v277.334z"/>
</symbol>
<symbol id="card" viewBox="0 0 18 16">
	<rect width="17.3" height="10.3" x=".35" y=".35" rx=".65"/>
	<rect width="17.3" height="3.3" x=".35" y="12.35" rx=".65"/>
</symbol>
<symbol id="clock" viewBox="0 0 443.294 443.294">
	<path d="M221.647 0C99.433 0 0 99.433 0 221.647s99.433 221.647 221.647 221.647 221.647-99.433 221.647-221.647S343.861 0 221.647 0zm0 415.588c-106.941 0-193.941-87-193.941-193.941s87-193.941 193.941-193.941 193.941 87 193.941 193.941-87 193.941-193.941 193.941z"/>
	<path d="M235.5 83.118h-27.706v144.265l87.176 87.176 19.589-19.589-79.059-79.059z"/>
</symbol>
<symbol id="cloud" viewBox="0 -112 444.532 444">
	<path d="M401.457 105.402c.035-.859.059-1.699.059-2.53-.047-39.481-32.04-71.477-71.524-71.52a70.583 70.583 0 00-38.777 11.441c-24.832-31.98-65.23-47.73-105.156-40.996-39.926 6.734-72.926 34.863-85.895 73.223a73.648 73.648 0 00-25.316-4.457C33.508 70.563 0 104.073 0 145.41c0 41.336 33.508 74.844 74.848 74.844h311.199c29.289.016 54.07-21.649 57.965-50.68 3.898-29.031-14.293-56.465-42.555-64.172zm-15.434 100.856H74.82c-33.601 0-60.843-27.242-60.843-60.844 0-33.605 27.242-60.848 60.843-60.848a59.824 59.824 0 0121.965 4.239 111.761 111.761 0 002.84 47.918 7 7 0 008.86 4.422 7 7 0 004.421-8.86 101.17 101.17 0 01-1.449-46.183c9.488-36.5 39.477-64.063 76.648-70.446 37.168-6.383 74.633 9.598 95.754 40.848a7.006 7.006 0 0010.172 1.527 56.891 56.891 0 0135.953-12.664 57.126 57.126 0 0157.012 64.738 7.003 7.003 0 005.875 7.793c22.922 3.594 39.227 24.215 37.434 47.348-1.793 23.133-21.078 40.996-44.282 41.012zm0 0"/>
</symbol>
<symbol id="clouds" viewBox="0 -91 472.18 472">
	<path d="M426.336 121.688c.05-1.036.074-2.043.074-3.036-.047-41.773-33.894-75.62-75.668-75.668a74.647 74.647 0 00-41.375 12.336c-33.02-42.941-91.305-57.41-140.57-34.898A59.911 59.911 0 00113.035 1.07a59.907 59.907 0 00-45.293 37.848C50.61 34.934 32.84 42.278 23.52 57.195c-9.32 14.922-8.13 34.114 2.968 47.762-24.523 21.844-33 56.57-21.293 87.258 11.703 30.683 41.157 50.945 73.996 50.902h69.418c-.047.828-.125 1.645-.125 2.485.028 25.027 20.309 45.308 45.336 45.335h158.992c28.02-.046 51.926-20.289 56.586-47.917.329.054.657.09.985.097 31.015.02 57.23-22.969 61.27-53.715 4.042-30.75-15.348-59.726-45.313-67.722zM31.27 79.042c0-15.023 12.175-27.2 27.199-27.2 2.07.005 4.136.25 6.152.731a49.99 49.99 0 001.098 20.031 6.92 6.92 0 006.578 4.696 7.018 7.018 0 006.707-9.11c-3.676-19.609 5.805-39.332 23.406-48.714 17.606-9.383 39.262-6.254 53.488 7.73a116.348 116.348 0 00-49.48 62.398 78.459 78.459 0 00-68.7 6.977 27.027 27.027 0 01-6.448-17.539zm321.543 197.906H193.82a31.325 31.325 0 01-28.554-18.23 31.324 31.324 0 014.714-33.547 31.334 31.334 0 0132.477-9.652 7.001 7.001 0 008.887-5.93c3.082-26.73 23.496-48.188 50.043-52.594 26.543-4.41 52.797 9.293 64.355 33.59l.031.047.024.07a58.466 58.466 0 014.238 29.57 7 7 0 1013.863 1.953 76.501 76.501 0 00-2.656-30.511 42.74 42.74 0 0111.567-1.645c23.992 0 43.441 19.45 43.441 43.442s-19.45 43.441-43.441 43.441zm57.57-47.832c-.117 0-.23.031-.348.04-2.293-29.923-27.215-53.044-57.222-53.09a56.717 56.717 0 00-17.493 2.75c-15.496-26.352-45.543-40.528-75.734-35.727-30.188 4.8-54.36 27.601-60.914 57.457-1.61-.18-3.23-.27-4.852-.27a45.375 45.375 0 00-42.187 28.84H79.19c-36.007 0-65.199-29.191-65.199-65.199 0-36.008 29.192-65.2 65.2-65.2a64.132 64.132 0 0123.874 4.684 118.588 118.588 0 002.95 51.133 7.004 7.004 0 008.859 4.422 7.004 7.004 0 004.422-8.86 107.968 107.968 0 01-1.567-49.378 102.368 102.368 0 0151.891-65.16c.129-.055.258-.13.399-.192 46.167-23.898 102.914-9.426 132 33.664a6.996 6.996 0 0010.175 1.528 60.924 60.924 0 0138.543-13.579 61.258 61.258 0 0161.13 69.41 7.005 7.005 0 005.87 7.79c24.68 3.812 42.254 25.992 40.324 50.886-1.93 24.895-22.714 44.102-47.683 44.063zm0 0"/>
</symbol>
<symbol id="cloudy-day" viewBox="0 -32 482.164 482">
	<path d="M297.266 92.527c0-3.867 3.132-7 7-7a92.79 92.79 0 0180.066 46.215 7 7 0 01-2.547 9.57 7.004 7.004 0 01-9.57-2.546 78.74 78.74 0 00-67.938-39.239 6.998 6.998 0 01-7.012-7zm7.011-50.351c3.864 0 7-3.137 7-7V7.082a7.001 7.001 0 00-14 0v28.082a7 7 0 007 7.012zM226.801 57.8a7.01 7.01 0 006.07 3.543 7.007 7.007 0 006.086-3.516 7.006 7.006 0 00-.031-7.027l-14.047-24.328a7 7 0 00-9.54-2.52 6.996 6.996 0 00-2.581 9.52zm-74.035 40.8l24.308 14.032a6.987 6.987 0 007.028.031 7.002 7.002 0 003.515-6.086 6.998 6.998 0 00-3.543-6.066l-24.328-14.047a6.999 6.999 0 00-10.539 6.055 7.006 7.006 0 003.54 6.07zm275.175 14.965c1.227 0 2.43-.324 3.493-.941l24.328-14.043a7 7 0 002.52-9.539 6.997 6.997 0 00-9.52-2.586l-24.328 14.047a6.998 6.998 0 003.507 13.062zm-55.777-53.199a6.997 6.997 0 009.563-2.566l14.046-24.328a6.999 6.999 0 00-6.054-10.54 6.998 6.998 0 00-6.07 3.54L369.604 50.8a7 7 0 002.56 9.566zm102.992 110.606h-28.082a7.001 7.001 0 000 14h28.09a7.001 7.001 0 000-14zm-341.785 14h28.106a7.001 7.001 0 000-14H133.37a7.001 7.001 0 000 14zm288.504 60.902a6.998 6.998 0 002.566 9.563l24.329 14.042a6.996 6.996 0 009.52-2.582 7 7 0 00-2.52-9.539l-24.329-14.046a7.005 7.005 0 00-9.566 2.562zm50.332 109.766c-.035 34.12-27.687 61.773-61.809 61.808H79.2C35.461 417.45 0 381.992 0 338.25s35.46-79.2 79.2-79.2a77.962 77.962 0 0127.226 4.876 116.474 116.474 0 0175.851-74.36c-.375-3.886-.629-7.765-.629-11.601-.078-52.18 32.883-98.688 82.137-115.906 49.258-17.22 104.016-1.371 136.465 39.492 32.445 40.867 35.469 97.793 7.535 141.863a75.276 75.276 0 0118.613 49.547c0 .996-.023 2-.074 3.035 27.117 7.074 45.996 31.621 45.875 59.645zM196.004 186.203c42.96-8.043 86.797 8.754 113.383 43.445 27.152-17.812 62.66-16.222 88.113 3.942 23.48-39.363 19.71-89.235-9.418-124.621-29.125-35.39-77.34-48.68-120.484-33.207-43.145 15.472-71.93 56.37-71.93 102.203 0 2.726.125 5.472.336 8.238zm262.195 169.438c.094-23.575-17.129-43.645-40.441-47.137a7.005 7.005 0 01-5.88-7.781c2.352-17.582-3.026-35.32-14.75-48.633s-28.64-20.895-46.374-20.79a60.99 60.99 0 00-38.55 13.579 6.988 6.988 0 01-5.423 1.46 6.996 6.996 0 01-4.754-2.991c-22.582-33.399-62.632-50.473-102.367-43.645-39.73 6.828-71.781 36.297-81.918 75.32a108.126 108.126 0 001.567 49.391 7.004 7.004 0 01-4.422 8.86 7.007 7.007 0 01-8.86-4.422 118.671 118.671 0 01-2.953-51.137 64.096 64.096 0 00-23.87-4.684c-36.009 0-65.2 29.192-65.2 65.2 0 36.007 29.191 65.199 65.2 65.199h331.198c26.38-.04 47.754-21.41 47.797-47.79zm0 0"/>
</symbol>
<symbol id="coffee" viewBox="0 0 511.988 511.988">
	<path d="M394.655 202.654H95.988c-17.643 0-32 14.357-32 32v21.333c0 76.117 42.048 145.152 109.717 180.16 5.227 2.688 11.669.661 14.379-4.587 2.688-5.227.661-11.669-4.587-14.379-60.544-31.317-98.176-93.077-98.176-161.195v-21.333c0-5.888 4.779-10.667 10.667-10.667h298.667c5.888 0 10.667 4.779 10.667 10.667v21.333c0 68.117-37.632 129.877-98.197 161.173-5.248 2.709-7.275 9.152-4.587 14.379a10.69 10.69 0 009.493 5.781c1.664 0 3.328-.384 4.885-1.195 67.691-34.987 109.739-104 109.739-180.139v-21.333c0-17.641-14.358-31.998-32-31.998z"/>
	<path d="M489.865 422.558c-1.664-3.989-5.547-6.592-9.856-6.592H10.676c-4.309 0-8.192 2.603-9.856 6.592a10.643 10.643 0 002.304 11.627l23.915 23.936c14.123 14.101 32.853 21.867 52.8 21.867h330.965c19.947 0 38.699-7.765 52.843-21.867l23.915-23.936a10.644 10.644 0 002.303-11.627zm-41.322 20.48c-10.069 10.069-23.488 15.616-37.717 15.616H79.839c-14.229 0-27.648-5.547-37.717-15.616l-5.717-5.717H454.26l-5.717 5.717zM491.359 253.022c-28.736-18.475-74.645 1.579-79.787 3.904-5.355 2.453-7.744 8.768-5.291 14.144a10.657 10.657 0 0014.144 5.291c10.283-4.672 43.264-15.744 59.392-5.355 7.275 4.672 10.837 13.739 10.837 27.648 0 42.709-86.144 68.523-119.403 74.88l-7.552 1.493c-5.781 1.131-9.536 6.741-8.405 12.523 1.003 5.077 5.461 8.597 10.453 8.597.683 0 1.365-.064 2.069-.213l7.488-1.472c5.589-1.067 136.683-26.773 136.683-95.808.001-21.461-6.953-36.8-20.628-45.632zM328.372 113.31c17.344-21.675 17.344-55.616 0-77.291a10.634 10.634 0 00-14.997-1.664 10.655 10.655 0 00-1.664 14.997c10.987 13.717 10.987 36.907-.021 50.667-17.365 21.675-17.365 55.616 0 77.291a10.626 10.626 0 008.341 4.011c2.325 0 4.693-.768 6.656-2.347 4.608-3.691 5.355-10.411 1.664-14.997-11.008-13.718-11.008-36.907.021-50.667zM264.287 113.31c17.365-21.675 17.365-55.616 0-77.291-3.669-4.608-10.389-5.355-14.997-1.664-4.608 3.691-5.355 10.411-1.664 14.997 11.008 13.717 11.008 36.907-.021 50.667-17.344 21.675-17.344 55.616 0 77.291a10.626 10.626 0 008.341 4.011c2.325 0 4.672-.768 6.656-2.347a10.655 10.655 0 001.664-14.997c-10.987-13.718-10.987-36.907.021-50.667zM200.372 113.331c17.344-21.675 17.344-55.616 0-77.291a10.632 10.632 0 00-14.997-1.664c-4.587 3.669-5.333 10.389-1.664 14.976 10.987 13.717 10.987 36.907-.021 50.667-17.365 21.675-17.365 55.616 0 77.291a10.626 10.626 0 008.341 4.011 10.72 10.72 0 006.656-2.325c4.608-3.691 5.355-10.411 1.664-14.997-11.008-13.74-11.008-36.908.021-50.668z"/>
</symbol>
<symbol id="columnnist" viewBox="0 0 14 15">
	<path d="M2.25 11.451H2M1 14c.5-1.19 2.25-4.231 5.25-6.882L1 14zm1.25-2.549C2.25 8.307 4.3 1.816 12.5 1c.4 0 .5.34.5.51 0 .34-.1 1.376-.5 2.804-.2.204-1.917 1.104-2.75 1.53-.083.084-.2.254 0 .254h1.5c.083 0 .2.102 0 .51C11 7.118 8 11.706 2.5 11.45h-.25z"/>
</symbol>
<symbol id="edit" viewBox="0 0 512 512">
	<g data-name="Edit">
		<path d="M90.294 413.706a7.984 7.984 0 001.8-.206l73.539-16.97a8 8 0 003.858-2.138L420.02 143.863a40 40 0 000-56.569l-11.314-11.313a40.045 40.045 0 00-56.569 0L101.607 326.51a8.005 8.005 0 00-2.137 3.858L82.5 403.907a8 8 0 007.8 9.8zM346.48 104.265l45.254 45.255-216.587 216.587-45.254-45.254zm50.912-16.971l11.313 11.314a24 24 0 010 33.941l-5.656 5.657-45.255-45.255 5.657-5.657a24.029 24.029 0 0133.941 0zM114.544 336.2l4.034-4.034 45.255 45.254-4.034 4.035-58.831 13.576z"/>
		<path d="M207 297a7.976 7.976 0 005.657-2.343L340.824 166.49a8 8 0 10-11.314-11.313L201.343 283.343A8 8 0 00207 297zM180.8 323.2a7.974 7.974 0 005.656-2.343l5.657-5.657a8 8 0 10-11.312-11.314l-5.658 5.657A8 8 0 00180.8 323.2zM464 424H16a8 8 0 000 16h448a8 8 0 000-16zM496 424h-8a8 8 0 000 16h8a8 8 0 000-16z"/>
	</g>
</symbol>
<symbol id="enter" viewBox="0 0 20 20">
	<path fill="#8e8e8e" fill-rule="evenodd" d="M13.48 7.83a.435.435 0 00.43-.44V2.17A2.168 2.168 0 0011.74 0H2.17A2.168 2.168 0 000 2.17v15.66A2.174 2.174 0 002.17 20h9.57a2.174 2.174 0 002.17-2.17v-5.22a.435.435 0 00-.43-.44.444.444 0 00-.44.44v5.22a1.3 1.3 0 01-1.3 1.3H2.17a1.3 1.3 0 01-1.3-1.3V2.17a1.3 1.3 0 011.3-1.3h9.57a1.3 1.3 0 011.3 1.3v5.22a.444.444 0 00.44.44zM5.44 9.57h14.12a.43.43 0 110 .86H5.44a.43.43 0 110-.86zm-.31.13l2.65-2.59a.46.46 0 01.62 0 .429.429 0 010 .61L6.07 10l2.33 2.28a.417.417 0 010 .6.432.432 0 01-.31.13.447.447 0 01-.31-.12L5.13 10.3a.417.417 0 010-.6z" data-name="Forma 1"/>
</symbol>
<symbol id="eye" viewBox="0 0 16 10">
	<path stroke="#9E9E9E" stroke-width=".7" d="M8 7.65a2.65 2.65 0 100-5.3 2.65 2.65 0 000 5.3z"/>
	<path stroke="#9E9E9E" stroke-width=".7" d="M.5 5C.5 4.5 4.4.5 8 .5s7.5 4 7.5 4.5M.5 5c0 .5 3.9 4.5 7.5 4.5s7.5-4 7.5-4.5"/>
</symbol>
<symbol id="facebook" viewBox="0 0 512 512">
	<path fill="#1976d2" d="M448 0H64C28.704 0 0 28.704 0 64v384c0 35.296 28.704 64 64 64h384c35.296 0 64-28.704 64-64V64c0-35.296-28.704-64-64-64z"/>
	<path fill="#fafafa" d="M432 256h-80v-64c0-17.664 14.336-16 32-16h32V96h-64c-53.024 0-96 42.976-96 96v64h-64v80h64v176h96V336h48l32-80z"/>
</symbol>
<symbol id="forward" viewBox="0 0 32 32">
	<path d="M28.564 11.026c0-1.436-5.026-8.616-12.923-8.616C7.025 2.41 2 9.59 2 16.051c0 6.462 5.025 13.641 13.64 13.641 9.334 0 12.924-7.897 12.924-10.769"/>
	<path d="M30 5l-.538 4.706c-.18.588-.862 1.647-2.154 1.177-1.293-.47-3.59-1.569-4.308-1.765M10.615 13.41h2.118v6.883m6.882-6.883H15.91v2.647h1.589c.529 0 1.588.318 1.588 1.589 0 1.27-1.059 1.588-1.588 1.588H15.38"/>
</symbol>
<symbol id="googlep" viewBox="0 0 511.399 511.399">
	<path fill="#ff9100" d="M459.87 217.357l-86.609-50.019-118.66 88.66 118.658 88.66 86.904-50.191c13.55-8.232 21.636-22.617 21.636-38.467s-8.087-30.234-21.929-38.643z"/>
	<path fill="#25d9f8" d="M284.601 256l-105 135-136.5 107.5c-8.401-8.401-13.5-19.799-13.5-32.401V45.157c0-12.599 5.099-24 13.5-32.399L179.601 121l105 135z"/>
	<path fill="#00c0f1" d="M284.601 256l-30 38.699v-77.4z"/>
	<path fill="#7fe881" d="M373.402 167.199L284.601 256 43.101 12.759c2.999-2.701 6-4.801 9.3-6.901 14.399-8.099 31.5-7.8 45.601.901L254.601 98.8l118.801 68.399z"/>
	<path fill="#5bc980" d="M373.402 167.199L284.601 256l-30-30V98.8z"/>
	<path fill="#ff637b" d="M373.402 344.799L254.601 413.2 97.702 504.8c-7.2 4.199-15 6.599-23.101 6.599-7.5 0-15-2.1-22.2-6-3.3-2.1-6.301-4.199-9.3-6.899l241.5-242.5 88.801 88.799z"/>
	<path fill="#e63950" d="M373.402 344.799L254.601 413.2V286l30-30z"/>
</symbol>
<symbol id="hail" viewBox="0 -32 463.994 463">
	<path d="M385.61 73.875a76.52 76.52 0 00-26.622 4.746c-13.43-40.078-47.847-69.5-89.527-76.527-41.676-7.031-83.84 9.469-109.672 42.926a74.313 74.313 0 00-76-3.086 74.312 74.312 0 00-38.898 65.363c0 .941.027 1.898.07 2.879C15.535 118.082-3.473 146.57.523 176.777c3.997 30.203 29.762 52.77 60.23 52.75H385.61a77.83 77.83 0 100-155.652zm0 141.652H60.753c-24.422.036-44.75-18.75-46.637-43.097-1.887-24.348 15.301-46.04 39.434-49.77a7.002 7.002 0 005.879-7.789c-3.125-24.387 8.879-48.226 30.328-60.242 21.449-12.016 48.047-9.805 67.215 5.594a6.996 6.996 0 0010.176-1.527c22.12-32.723 61.359-49.45 100.285-42.755 38.925 6.692 70.32 35.567 80.242 73.797a105.94 105.94 0 01-1.528 48.336 7.002 7.002 0 0013.274 4.453 116.445 116.445 0 002.91-50.12 62.847 62.847 0 0123.273-4.54 63.83 63.83 0 0155.696 95.887 63.83 63.83 0 01-55.696 31.766zm-42.594 118.61c-15.114 0-27.364 12.25-27.364 27.363s12.25 27.363 27.364 27.363 27.363-12.25 27.363-27.363c-.016-15.105-12.258-27.348-27.363-27.363zm0 40.726c-7.38 0-13.364-5.984-13.364-13.363 0-7.383 5.985-13.363 13.364-13.363 7.382 0 13.363 5.98 13.363 13.363-.008 7.375-5.984 13.355-13.363 13.363zm-288.239-76.18c-15.117-.003-27.37 12.25-27.37 27.368.003 15.113 12.261 27.367 27.374 27.36 15.117-.005 27.364-12.263 27.356-27.38-.028-15.097-12.262-27.328-27.36-27.347zm0 40.731c-7.379.004-13.363-5.977-13.37-13.352-.005-7.378 5.972-13.367 13.35-13.375 7.38-.007 13.368 5.965 13.38 13.344 0 7.383-5.98 13.367-13.36 13.38zm95.336-10.953c-18.246 0-33.035 14.789-33.039 33.031 0 18.246 14.79 33.04 33.035 33.04s33.036-14.79 33.04-33.032c-.02-18.238-14.797-33.02-33.036-33.04zm0 52.074c-10.515 0-19.039-8.523-19.039-19.035 0-10.516 8.524-19.035 19.04-19.035 10.511 0 19.034 8.52 19.034 19.035-.011 10.508-8.527 19.023-19.035 19.035zm197.782-94.848c11.984 0 21.699-9.714 21.699-21.695 0-11.984-9.715-21.695-21.7-21.695-11.98 0-21.695 9.71-21.695 21.695.016 11.977 9.723 21.68 21.696 21.695zm0-29.39c4.25 0 7.699 3.445 7.699 7.695s-3.45 7.695-7.7 7.695-7.695-3.445-7.695-7.695a7.703 7.703 0 017.696-7.695zm-240.426-.067l-21.414 26.82a6.997 6.997 0 01-12.094-1.746 6.99 6.99 0 011.16-6.988l21.41-26.82a7 7 0 1110.938 8.734zm12.398 61.801a6.999 6.999 0 01-5.469-11.367l30.247-37.89a7.002 7.002 0 019.84-1.102c3.023 2.41 3.515 6.816 1.105 9.84l-30.246 37.886a7.003 7.003 0 01-5.473 2.633zm111.23-53.547l-40.644 50.914a7.003 7.003 0 01-10.945-8.734l40.64-50.918a7.002 7.002 0 019.84-1.101c3.024 2.41 3.516 6.816 1.106 9.84zm71.688-8.254l-75.472 94.547a7.008 7.008 0 01-9.848 1.102 7.011 7.011 0 01-1.098-9.848l75.469-94.531a7.002 7.002 0 0110.945 8.734zm25.328 49.801l-71.922 90.102a7.002 7.002 0 01-9.84 1.101c-3.023-2.41-3.515-6.816-1.105-9.84l71.922-90.097a7.002 7.002 0 0110.945 8.734zm86-26.176l-28.367 35.536c-2.41 3.023-6.816 3.515-9.84 1.105-3.02-2.414-3.515-6.82-1.101-9.84l28.363-35.535a6.999 6.999 0 019.84-1.105c3.023 2.41 3.515 6.816 1.105 9.84zm0 0"/>
</symbol>
<symbol id="icon01" viewBox="0 0 20 19">
	<path d="M1 4.257h19M1 1h19M2.727 7.502h15.336c.362 0 1.086.217 1.086 1.086v7.6c0 .362-.218 1.085-1.086 1.085H2.727c-.362 0-1.085-.217-1.085-1.085v-7.6c0-.362.217-1.086 1.085-1.086z"/>
</symbol>
<symbol id="icon02" viewBox="0 0 19 19">
	<path d="M0 4.257h19M0 1h19M2.172 7.514h4.885c.362 0 1.086.217 1.086 1.086v7.6c0 .362-.217 1.086-1.086 1.086H2.172c-.362 0-1.086-.217-1.086-1.086V8.6c0-.362.217-1.086 1.086-1.086zm9.771 0h4.886c.362 0 1.085.217 1.085 1.086v7.6c0 .362-.217 1.086-1.085 1.086h-4.886c-.362 0-1.086-.217-1.086-1.086V8.6c0-.362.218-1.086 1.086-1.086z"/>
</symbol>
<symbol id="like" viewBox="0 0 14 14">
	<path stroke="#9E9E9E" stroke-width=".7" d="M1 6.368V13 6.368zm2.154 5.053V2.58C3.154 2.053 3.462 1 4.692 1c1.231 0 1.744.842 1.846 1.263l.616 2.21c.102.317.43.948.923.948h4c.308 0 .923.253.923 1.263v3.158c0 .21-.123.758-.615 1.263l-1.539 1.58c-.102.104-.554.315-1.538.315H4.385c-.41 0-1.231-.316-1.231-1.579z"/>
</symbol>
<symbol id="link" viewBox="0 0 16 18">
	<path d="M12.5 11a3.489 3.489 0 00-3.038 1.8l-2.555-2.522a3.2 3.2 0 00-.067-1.765l2.73-3.106a3.491 3.491 0 10-.57-1.9 3.453 3.453 0 00.16.99L6.43 7.604a3.509 3.509 0 10.108 3.607l2.555 2.521A3.5 3.5 0 1012.5 11zm0-10A2.5 2.5 0 1110 3.5 2.5 2.5 0 0112.5 1zm-9 11A2.5 2.5 0 116 9.5 2.5 2.5 0 013.5 12zm9 5a2.5 2.5 0 112.5-2.5 2.5 2.5 0 01-2.5 2.5z"/>
</symbol>
<symbol id="link2" viewBox="0 0 19 18">
	<path fill="#000" fill-rule="evenodd" d="M16 5a2 2 0 100-4 2 2 0 000 4zm0 1a3 3 0 10-2.88-2.156L5.442 7.257a3 3 0 100 3.487l7.678 3.412A3.001 3.001 0 1019 15a3 3 0 00-5.442-1.743L5.88 9.844a3.001 3.001 0 000-1.688l7.678-3.413A2.996 2.996 0 0016 6zM3 11a2 2 0 100-4 2 2 0 000 4zm15 4a2 2 0 11-4 0 2 2 0 014 0z" clip-rule="evenodd"/>
</symbol>
<symbol id="list" viewBox="0 0 18 16">
	<rect width="11.3" height="3.3" x=".35" y="12.35" rx=".65"/>
	<rect width="3.3" height="3.3" x="14.35" y="12.35" rx=".65"/>
	<rect width="11.3" height="3.3" x=".35" y="6.35" rx=".65"/>
	<rect width="3.3" height="3.3" x="14.35" y="6.35" rx=".65"/>
	<rect width="11.3" height="3.3" x=".35" y=".35" rx=".65"/>
	<rect width="3.3" height="3.3" x="14.35" y=".35" rx=".65"/>
</symbol>
<symbol id="mail" viewBox="0 0 19 14">
	<path d="M17.417 0H1.583A1.571 1.571 0 000 1.555v10.889A1.571 1.571 0 001.583 14h15.834A1.571 1.571 0 0019 12.444V1.555A1.571 1.571 0 0017.417 0zM1.583.778h15.834a.821.821 0 01.164.032 2055.407 2055.407 0 01-7.507 6.726.8.8 0 01-1.149 0C7.335 6.128 2.789 2.042 1.419.81a.807.807 0 01.164-.032zM.792 12.444V1.555a.741.741 0 01.044-.215c1.049.944 4.221 3.794 6.277 5.632-2.05 1.729-5.222 4.684-6.28 5.675a.763.763 0 01-.041-.203zm16.625.778H1.583a.813.813 0 01-.178-.035c1.093-1.024 4.285-4 6.3-5.688.262.234.5.447.691.614a1.6 1.6 0 002.209 0l.692-.615c2.014 1.692 5.206 4.664 6.3 5.688a.813.813 0 01-.18.036zm.791-.778a.763.763 0 01-.041.2c-1.058-.991-4.23-3.946-6.28-5.675 2.056-1.838 5.227-4.688 6.277-5.632a.741.741 0 01.044.215v10.889z"/>
</symbol>
<symbol id="man" viewBox="0 0 14 16">
	<path fill-rule="evenodd" d="M7 0a4.219 4.219 0 104.2 4.218A4.214 4.214 0 007 0zm0 7.5a3.282 3.282 0 113.267-3.282A3.278 3.278 0 017 7.5zm5.225 3.693a5.972 5.972 0 00-4.292-1.819H6.067a5.976 5.976 0 00-4.293 1.819A6.162 6.162 0 000 15.531a.467.467 0 00.467.468h13.066a.467.467 0 00.467-.468 6.159 6.159 0 00-1.775-4.338zM.954 15.062a5.174 5.174 0 015.113-4.75h1.866a5.175 5.175 0 015.113 4.75H.954z"/>
</symbol>
<symbol id="many" viewBox="0 0 15 16">
	<path d="M1 9.9s2.364-5.2 6.5-5.2S14 9.9 14 9.9s-2.364 5.2-6.5 5.2S1 9.9 1 9.9z"/>
	<path d="M7.5 11.2a1.3 1.3 0 100-2.6 1.3 1.3 0 000 2.6zM14 2.75a1.95 1.95 0 11-3.9 0 1.95 1.95 0 013.9 0z"/>
</symbol>
<symbol id="mark" viewBox="0 0 402 498">
	<path fill-rule="evenodd" d="M201 0c111.009 0 201 89.991 201 201a201.087 201.087 0 01-135.959 190.244C253.141 411.966 234.262 444.5 201 498c-25.98-40.543-54.757-85.864-67.646-107.667A201.082 201.082 0 010 201C0 89.991 89.991 0 201 0zm0 30A171 171 0 1130 201 171 171 0 01201 30z"/>
</symbol>
<symbol id="media" viewBox="0 0 11 12">
	<g clip-path="url(#clip0)">
		<path stroke="#9E9E9E" stroke-width=".7" d="M9.5 5.5L1 .5v11c2.667-1.667 7.7-4.6 8.5-5 .8-.4.333-.833 0-1z"/>
	</g>
</symbol>
<symbol id="menu" viewBox="0 0 27 17">
	<path fill-rule="evenodd" d="M5 0h22v3H5V0zM0 7h27v3H0V7zm5 7h22v3H5v-3z"/>
</symbol>
<symbol id="message" viewBox="0 0 21 20">
	<path fill="#000" fill-rule="evenodd" d="M1.8 2.02c-.222.298-.3.667-.3.903v15.171l3.153-3.032c.494-.474 1.051-.62 1.347-.62h12c.645 0 .996-.249 1.2-.521.222-.297.3-.666.3-.902V2.923c0-.598-.247-.928-.535-1.127A1.799 1.799 0 0018 1.5H3c-.645 0-.996.248-1.2.52zM1 1.422C1.396.893 2.045.5 3 .5h15c.41 0 1.015.114 1.535.473.545.378.965 1.01.965 1.95v10.096c0 .404-.122.997-.5 1.501-.396.53-1.045.922-2 .922H6s-.021 0-.066.01a.978.978 0 00-.16.05c-.125.05-.278.137-.427.28l-3.5 3.366a1.712 1.712 0 01-.212.174 1.06 1.06 0 01-.318.153.634.634 0 01-.597-.131c-.194-.175-.22-.415-.22-.556V2.923c0-.405.122-.997.5-1.502z" clip-rule="evenodd"/>
	<path fill="#000" d="M7 8a1 1 0 11-2 0 1 1 0 012 0zM11 8a1 1 0 11-2 0 1 1 0 012 0zM15 8a1 1 0 11-2 0 1 1 0 012 0z"/>
</symbol>
<symbol id="mobile" viewBox="0 0 32 32">
	<circle cx="16" cy="16" r="16" fill="#fff" data-name="Ellipse 1 copy"/>
	<path fill-rule="evenodd" d="M18.97 25h-5.94A2.01 2.01 0 0111 23.01V9.99A2.01 2.01 0 0113.03 8h5.94A2.01 2.01 0 0121 9.99v13.02A2.01 2.01 0 0118.97 25zm.68-13.74a.933.933 0 00-.95-.93h-.58a1.087 1.087 0 01.04.26.922.922 0 01-.93.93h-2.46c-.52 0-.93.59-.93.07 0-.09.02-1.18.04-1.26h-.58a.933.933 0 00-.95.93v10.48a.933.933 0 00.95.93h5.4a.933.933 0 00.95-.93V11.26z" data-name="Rounded Rectangle 1"/>
</symbol>
<symbol id="movies" viewBox="0 0 40 40">
	<path d="M0 0h40v40H0z" opacity=".45"/>
	<path fill="#fff" fill-rule="evenodd" d="M26.848 19.614l-12.279-7.351a.477.477 0 00-.438-.023.363.363 0 00-.226.324v14.705a.365.365 0 00.226.326.5.5 0 00.2.041.474.474 0 00.241-.065l12.279-7.351a.342.342 0 00-.003-.606zM16 24v-8l7 4z" data-name="Forma 1 copy 15"/>
</symbol>
<symbol id="multimedia" viewBox="0 0 28 24">
	<path d="M13.711 1.154c2.504 0 7.973.137 9.822.687C25.844 2.53 27 5.28 27 11.466v1.376c0 6.187-1.156 8.937-3.467 9.624-1.849.55-7.318.688-9.822.688m.578-22c-2.504 0-7.973.137-9.822.687C2.156 2.53 1 5.28 1 11.466v1.376c0 6.187 1.156 8.937 3.467 9.624 1.849.55 7.318.688 9.822.688"/>
	<path d="M9 16.372V8.396c0-1.472.924-1.227 1.386-1.227 3.463 1.84 6.233 3.067 7.62 3.68v.001c1.402.621 1.247 1.84 0 2.454-2.078 1.023-6.512 3.19-7.62 3.681-1.109.49-1.386-.204-1.386-.613z"/>
</symbol>
<symbol id="newspaper" viewBox="1 -30 511.999 511">
	<path d="M457.145 230.441H305.469c-5.547 0-10.04 4.496-10.04 10.04s4.493 10.039 10.04 10.039h151.676c5.543 0 10.039-4.497 10.039-10.04s-4.493-10.039-10.04-10.039zm0 0M457.145 346.55H305.469c-5.547 0-10.04 4.497-10.04 10.04 0 5.547 4.493 10.039 10.04 10.039h151.676c5.543 0 10.039-4.492 10.039-10.04 0-5.542-4.493-10.038-10.04-10.038zm0 0M148.227 366.629h116.109c5.543 0 10.039-4.492 10.039-10.04V240.48c0-5.543-4.496-10.039-10.04-10.039H148.228c-5.543 0-10.04 4.496-10.04 10.04V356.59c0 5.547 4.497 10.039 10.04 10.039zm10.039-116.11h96.03v96.032h-96.03zm0 0"/>
	<path d="M501.96.5H80.54C74.991.5 70.5 4.996 70.5 10.54v57.679H10.04C4.495 68.219 0 72.71 0 78.258v327.027c0 24.973 20.316 45.29 45.29 45.29h421.42c24.974 0 45.29-20.317 45.29-45.29V10.54C512 4.992 507.504.5 501.96.5zM70.5 188.883H55.328v-33.137h15.168v33.137zM20.078 405.285V88.297H70.5v47.371H45.29c-5.544 0-10.04 4.496-10.04 10.039v53.215c0 5.543 4.496 10.039 10.04 10.039h25.206v37.977H45.29c-5.543 0-10.039 4.496-10.039 10.039 0 5.543 4.496 10.039 10.04 10.039h25.206v37.976H45.29c-5.543 0-10.039 4.496-10.039 10.04 0 5.546 4.496 10.042 10.04 10.042h25.206v37.973H45.29c-5.543 0-10.039 4.496-10.039 10.043 0 5.543 4.496 10.039 10.04 10.039h25.206v22.156c0 13.903-11.308 25.211-25.207 25.211-13.902 0-25.21-11.308-25.21-25.21zm471.844 0c0 13.903-11.309 25.211-25.211 25.211H82.895c4.988-7.414 7.68-16.273 7.68-25.21V20.577h401.347zm0 0"/>
	<path d="M187.04 129.582h209.312c5.546 0 10.039-4.496 10.039-10.039V66.328c0-5.543-4.493-10.039-10.04-10.039H187.04c-5.543 0-10.039 4.496-10.039 10.04v53.214c0 5.543 4.496 10.039 10.04 10.039zm10.038-53.215h189.234v33.137H197.078zm0 0M148.227 190.05h38.812c5.543 0 10.04-4.495 10.04-10.038s-4.497-10.04-10.04-10.04h-38.812c-5.543 0-10.04 4.497-10.04 10.04s4.497 10.039 10.04 10.039zm0 0M235.527 174.441c-2.343-3.507-6.726-5.191-10.82-4.144-4.008 1.023-7.008 4.46-7.5 8.57-.488 4.113 1.734 8.211 5.422 10.086 3.734 1.899 8.348 1.234 11.418-1.613 3.55-3.297 4.168-8.883 1.48-12.899zm0 0M257.098 180.012c0 5.543 4.496 10.039 10.039 10.039h190.008c5.542 0 10.039-4.496 10.039-10.04s-4.497-10.038-10.04-10.038H267.138c-5.543 0-10.04 4.496-10.04 10.039zm0 0M453.313 307.742c3.863 1.602 8.46.578 11.269-2.523 2.816-3.11 3.387-7.774 1.41-11.473-1.996-3.734-6.262-5.871-10.453-5.18-4.203.692-7.605 4.059-8.3 8.27-.75 4.539 1.82 9.148 6.074 10.906zm0 0M305.469 308.516H417.19c5.543 0 10.04-4.496 10.04-10.043 0-5.543-4.497-10.04-10.04-10.04H305.47c-5.547 0-10.04 4.497-10.04 10.04 0 5.547 4.493 10.043 10.04 10.043zm0 0"/>
</symbol>
<symbol id="notes" viewBox="0 0 512 512">
	<path d="M448 0H85.333c-17.643 0-32 14.357-32 32v53.333H42.667C36.779 85.333 32 90.112 32 96s4.779 10.667 10.667 10.667h10.667V192H42.667C36.779 192 32 196.779 32 202.667s4.779 10.667 10.667 10.667h10.667v85.333H42.667c-5.888 0-10.667 4.779-10.667 10.667S36.779 320 42.667 320h10.667v85.333H42.667C36.779 405.333 32 410.112 32 416s4.779 10.667 10.667 10.667h10.667V480c0 17.643 14.357 32 32 32H448c17.643 0 32-14.357 32-32V32c0-17.643-14.357-32-32-32zm10.667 480c0 5.888-4.8 10.667-10.667 10.667H85.333c-5.867 0-10.667-4.779-10.667-10.667v-53.333h23.296C102.379 439.061 114.112 448 128 448c17.643 0 32-14.357 32-32s-14.357-32-32-32c-13.888 0-25.621 8.939-30.037 21.333H74.667V320h23.296c4.416 12.395 16.149 21.333 30.037 21.333 17.643 0 32-14.357 32-32s-14.357-32-32-32c-13.888 0-25.621 8.939-30.037 21.333H74.667v-85.333h23.296c4.416 12.395 16.149 21.333 30.037 21.333 17.643 0 32-14.357 32-32s-14.357-32-32-32c-13.888 0-25.621 8.939-30.037 21.333H74.667v-85.333h23.296C102.379 119.061 114.112 128 128 128c17.643 0 32-14.357 32-32s-14.357-32-32-32c-13.888 0-25.621 8.939-30.037 21.333H74.667V32c0-5.888 4.8-10.667 10.667-10.667H448c5.867 0 10.667 4.779 10.667 10.667v448zm-341.334-64c0-5.888 4.8-10.667 10.667-10.667s10.667 4.779 10.667 10.667-4.8 10.667-10.667 10.667-10.667-4.779-10.667-10.667zm0-106.667c0-5.888 4.8-10.667 10.667-10.667s10.667 4.779 10.667 10.667S133.867 320 128 320s-10.667-4.779-10.667-10.667zm0-106.666c0-5.888 4.8-10.667 10.667-10.667s10.667 4.779 10.667 10.667-4.8 10.667-10.667 10.667c-5.867-.001-10.667-4.779-10.667-10.667zm0-106.667c0-5.888 4.8-10.667 10.667-10.667S138.667 90.112 138.667 96s-4.8 10.667-10.667 10.667-10.667-4.779-10.667-10.667z"/>
</symbol>
<symbol id="ok" viewBox="0 0 24 24">
	<g fill="#ffc107">
		<path d="M4.721 12.881c-.613 1.205.083 1.781 1.671 2.765 1.35.834 3.215 1.139 4.413 1.261l-1.004.966c-1.423 1.355-2.773 2.667-3.717 3.576-1.374 1.317.838 3.43 2.211 2.141l3.717-3.585c1.423 1.369 2.787 2.681 3.717 3.59 1.374 1.294 3.585-.801 2.226-2.141l-3.717-3.576-1.018-.966c1.213-.122 3.05-.445 4.384-1.261l-.001-.001c1.588-.989 2.284-1.564 1.68-2.769-.365-.684-1.349-1.256-2.659-.267 0 0-1.769 1.355-4.622 1.355-2.854 0-4.622-1.355-4.622-1.355-1.31-.994-2.298-.417-2.659.267z"/>
		<path d="M11.999 12.142c3.478 0 6.318-2.718 6.318-6.064 0-3.36-2.84-6.078-6.318-6.078C8.52 0 5.68 2.718 5.68 6.078c0 3.346 2.84 6.064 6.319 6.064zm0-9.063c1.709 0 3.103 1.341 3.103 2.999 0 1.644-1.394 2.985-3.103 2.985S8.896 7.722 8.896 6.078c-.001-1.659 1.393-2.999 3.103-2.999z"/>
	</g>
</symbol>
<symbol id="pause" viewBox="0 0 40 40">
	<path fill="#000" d="M40 0H0v40h40V0z" opacity=".45"/>
	<path fill="#fff" d="M26 12h-4.333v15.167H26V12zM17.333 12H13v15.167h4.333V12z"/>
</symbol>
<symbol id="phone" viewBox="0 0 16 16">
	<path fill="#8e8e8e" fill-rule="evenodd" d="M15.561 13.33l-.437-2.3a.452.452 0 00-.36-.354l-3.441-.668a.467.467 0 00-.412.121L9.5 11.5a8.655 8.655 0 01-4.857-4.722l1.409-1.367a.434.434 0 00.125-.4L5.489 1.67a.451.451 0 00-.365-.348L2.754.897a.475.475 0 00-.184 0 3.4 3.4 0 00-1.637.877 3.482 3.482 0 00-.861 3.2 14.7 14.7 0 00.435 1.871.46.46 0 00.566.3.44.44 0 00.31-.549 14.06 14.06 0 01-.41-1.762 2.628 2.628 0 01.605-2.435 2.484 2.484 0 011.107-.619l1.969.353.58 2.814-1.46 1.417a.435.435 0 00-.094.494 9.735 9.735 0 005.745 5.571.467.467 0 00.5-.095l1.46-1.417 2.9.563.364 1.912a2.361 2.361 0 01-.638 1.073 2.821 2.821 0 01-2.508.588 13.9 13.9 0 01-7.156-3.246l-.028-.027A11.1 11.1 0 012 8.3a.46.46 0 00-.6-.235.438.438 0 00-.242.581 12.014 12.014 0 002.507 3.767l.028.027a14.861 14.861 0 007.659 3.493 5.519 5.519 0 00.841.067 3.408 3.408 0 002.454-.9 3.236 3.236 0 00.9-1.588.427.427 0 00.014-.182zM9.217 3.778a.443.443 0 100 .886 1.95 1.95 0 011.977 1.919.456.456 0 00.912 0 2.851 2.851 0 00-2.889-2.805zm0-1.889a5.056 5.056 0 00-.537.028.446.446 0 00-.4.489.454.454 0 00.5.392 3.972 3.972 0 01.437-.024 3.873 3.873 0 013.924 3.808 3.74 3.74 0 01-.025.424.448.448 0 00.4.489.458.458 0 00.5-.392 4.7 4.7 0 00-4.799-5.214zm0-1.89c-.173 0-.349.007-.521.019a.443.443 0 10.069.883c.149-.011.3-.016.452-.016a5.792 5.792 0 015.87 5.7A5.527 5.527 0 0114.93 7.9a.446.446 0 00.331.53.461.461 0 00.557-.327A6.388 6.388 0 0016 6.585 6.694 6.694 0 009.217 0z" data-name="Shape 1 copy"/>
</symbol>
<symbol id="photo" viewBox="0 0 14 14">
	<path stroke="#9E9E9E" stroke-width=".7" d="M.767 2v10c0 .8.666 1 1 1h10c.8 0 1-.667 1-1V2c0-.8-.667-1-1-1h-10c-.8 0-1 .667-1 1z"/>
	<path stroke="#9E9E9E" stroke-width=".7" d="M.767 10.5l2.5-2.5c.333-.333 1.2-.8 2 0l1 1 .5.5 2.5-2.5c.333-.333 1.2-.8 2 0l1.5 1.5M8.417 4.5a1.65 1.65 0 11-3.3 0 1.65 1.65 0 013.3 0z"/>
</symbol>
<symbol id="podcast-download" viewBox="0 0 28 28">
	<path d="M13.974 8l.03 8.447M10 12.1l2.783 3.8c.444.42 1.555.998 2.44-.045.883-1.043 2.327-3.123 2.85-3.645M10.053 19.436h7.953"/>
	<path d="M14 27.25c7.318 0 13.25-5.932 13.25-13.25S21.318.75 14 .75.75 6.682.75 14 6.682 27.25 14 27.25z"/>
</symbol>
<symbol id="podcast-pause" viewBox="0 0 40 40">
	<path d="M23 26.5V15h1v11.5h-1zM15.5 26.5V15h1v11.5h-1z"/>
	<path d="M20 39.25c10.631 0 19.25-8.619 19.25-19.25S30.631.75 20 .75.75 9.369.75 20 9.369 39.25 20 39.25z"/>
</symbol>
<symbol id="podcast-play" viewBox="0 0 40 40">
	<path d="M15.714 13.633v13.809c0 1.004.837.837 1.256.628 3.138-2.093 8.16-5.022 11.298-6.905.39-.234.418-1.046 0-1.255-3.138-1.884-10.294-6.403-11.298-6.905-1.005-.502-1.256.418-1.256.628z"/>
	<path d="M20 39.25c10.631 0 19.25-8.619 19.25-19.25S30.631.75 20 .75.75 9.369.75 20 9.369 39.25 20 39.25z"/>
</symbol>
<symbol id="podcast-volume" viewBox="0 0 30 28">
	<path d="M25.157 4.745C26.437 6.026 29 9.686 29 14.078c0 4.393-2.562 7.687-3.843 8.785M9.235 7.49H3.196C1.44 7.49 1 8.954 1 9.686v9.883c0 1.317 1.464 1.647 2.196 1.647h6.04V7.49zm0 0L20.765 2v24.157l-11.53-4.941V7.49zm0 0v13.726V7.49z"/>
</symbol>
<symbol id="podcast" viewBox="0 0 14 12">
	<path stroke="#9E9E9E" stroke-width=".7" d="M4.516 2.064c-1.774 1.065-2.129 4.258 0 5.678M3.096 1c-2.838 2.129-2.752 5.971 0 7.806m6.388-6.742c1.774 1.065 2.129 4.258 0 5.678M10.904 1c2.838 2.129 2.752 5.971 0 7.806M7 7.032a2.129 2.129 0 100-4.258 2.129 2.129 0 000 4.258zm0 0v4.258"/>
</symbol>
<symbol id="print" viewBox="0 0 24 24">
	<path d="M21.5 18h-3a.5.5 0 010-1h3c.827 0 1.5-.673 1.5-1.5v-7c0-.827-.673-1.5-1.5-1.5h-19C1.673 7 1 7.673 1 8.5v7c0 .827.673 1.5 1.5 1.5h3a.5.5 0 010 1h-3A2.503 2.503 0 010 15.5v-7C0 7.122 1.121 6 2.5 6h19C22.879 6 24 7.122 24 8.5v7c0 1.378-1.121 2.5-2.5 2.5zM14.5 21h-6a.5.5 0 010-1h6a.5.5 0 010 1zM14.5 19h-6a.5.5 0 010-1h6a.5.5 0 010 1z"/>
	<path d="M10.5 17h-2a.5.5 0 010-1h2a.5.5 0 010 1zM18.5 7a.5.5 0 01-.5-.5v-4c0-.827-.673-1.5-1.5-1.5h-9C6.673 1 6 1.673 6 2.5v4a.5.5 0 01-1 0v-4C5 1.122 6.121 0 7.5 0h9C17.879 0 19 1.122 19 2.5v4a.5.5 0 01-.5.5z"/>
	<path d="M16.5 24h-9A2.503 2.503 0 015 21.5v-8a.5.5 0 01.5-.5h13a.5.5 0 01.5.5v8c0 1.378-1.121 2.5-2.5 2.5zM6 14v7.5c0 .827.673 1.5 1.5 1.5h9c.827 0 1.5-.673 1.5-1.5V14z"/>
</symbol>
<symbol id="rain" viewBox="0 -45 461.242 461">
	<path d="M62.504 281.871c-4.606 6.652-27.566 40.629-27.566 56.547a33.321 33.321 0 0016.554 29.16 33.318 33.318 0 0050.082-29.16c0-15.914-22.96-49.895-27.562-56.547a7.263 7.263 0 00-11.508 0zm5.754 75.863c-10.664-.011-19.309-8.652-19.32-19.32 0-7.02 10-25.273 19.32-39.902 9.336 14.617 19.316 32.875 19.316 39.902-.011 10.664-8.652 19.309-19.316 19.32zm156.36-75.863c-4.602 6.652-27.563 40.629-27.563 56.547a33.318 33.318 0 0050.082 29.16 33.321 33.321 0 0016.554-29.16c0-15.914-22.96-49.895-27.566-56.547a7.263 7.263 0 00-11.508 0zm5.757 75.863c-10.668-.011-19.309-8.652-19.32-19.32 0-7.02 10-25.273 19.32-39.902 9.336 14.617 19.316 32.875 19.316 39.902-.011 10.664-8.652 19.309-19.316 19.32zm156.36-75.863c-4.606 6.652-27.563 40.629-27.563 56.547a33.31 33.31 0 0016.55 29.16 33.313 33.313 0 0033.532 0 33.31 33.31 0 0016.55-29.16c0-15.914-22.956-49.895-27.562-56.547a7.263 7.263 0 00-11.508 0zm5.757 75.863c-10.668-.011-19.312-8.652-19.32-19.32 0-7.02 10-25.273 19.32-39.902 9.336 14.617 19.313 32.875 19.313 39.902-.008 10.664-8.649 19.309-19.313 19.32zM374.246 61.531a85.692 85.692 0 00-30.957 5.754C323 24.602 279.141-1.805 231.922.23c-47.219 2.036-88.637 32.118-105.184 76.387a79.132 79.132 0 00-63.39 39.168 53.442 53.442 0 00-3.903-.152C26.535 115.903 0 142.656 0 175.57c0 32.91 26.535 59.664 59.445 59.934h68.762a43.855 43.855 0 00-4.402 16.43c.203 18.257 15.058 32.957 33.32 32.957 18.258 0 33.117-14.7 33.316-32.957a43.85 43.85 0 00-4.398-16.43h104.281a43.855 43.855 0 00-4.402 16.43c.2 18.257 15.058 32.957 33.32 32.957 18.258 0 33.117-14.7 33.317-32.957a43.85 43.85 0 00-4.399-16.43h26.094c48.043 0 86.988-38.945 86.988-86.988s-38.945-86.989-86.988-86.989zM176.437 251.93c-.152 10.562-8.753 19.043-19.316 19.043s-19.168-8.48-19.32-19.043c0-1.489.652-5.953 5.844-16.43h26.953c5.191 10.492 5.84 14.953 5.84 16.43zm162.118 0c-.153 10.562-8.758 19.043-19.317 19.043-10.562 0-19.168-8.48-19.32-19.043 0-1.489.652-5.95 5.844-16.43h26.953c5.187 10.492 5.84 14.953 5.84 16.43zm35.691-30.399h-314.8c-25.024.074-45.497-19.91-46.028-44.93-.531-25.019 19.074-45.855 44.082-46.843a72.685 72.685 0 00-1.309 24.96 6.997 6.997 0 007.918 5.876 6.999 6.999 0 005.938-7.875c-.02-.156-2.09-15.41 3.422-26.258a65.293 65.293 0 0149.203-35.336 59.985 59.985 0 009.742 46.469 7 7 0 1010.879-8.801c-.133-.168-13.441-17.02-4.875-43.137 13.531-41.433 51.523-69.98 95.082-71.449 43.559-1.465 83.387 24.461 99.676 64.887a6.996 6.996 0 009.523 3.691 72.228 72.228 0 0131.547-7.254c40.309 0 72.988 32.676 72.988 72.989 0 40.308-32.68 72.988-72.988 72.988zm58.89-72.988a7.001 7.001 0 01-14 0c-.015-24.79-20.1-44.883-44.89-44.914a7.001 7.001 0 010-14c32.512.039 58.856 26.383 58.89 58.894zm0 0"/>
</symbol>
<symbol id="return" viewBox="0 0 13 13">
	<path d="M6.5 0c1.723 0 3.39.688 4.63 1.837L12.307.66A.406.406 0 0113 .948v3.52a.406.406 0 01-.406.407H9.073a.406.406 0 01-.287-.693l1.573-1.574C9.322 1.658 7.936 1.083 6.5 1.083A5.423 5.423 0 001.083 6.5 5.423 5.423 0 006.5 11.917a5.36 5.36 0 003.826-1.588.541.541 0 11.768.764A6.438 6.438 0 016.5 13 6.507 6.507 0 010 6.5C0 2.916 2.916 0 6.5 0z"/>
</symbol>
<symbol id="search" viewBox="0 0 19 19">
	<path d="M12.915 12.88L18 18m-2.651-9.28c0 3.71-2.989 6.72-6.675 6.72S2 12.43 2 8.72C2 5.008 4.988 2 8.674 2c3.687 0 6.675 3.008 6.675 6.72z"/>
</symbol>
<symbol id="snow" viewBox="0 -3 444.307 444">
	<path d="M369.508 70.402a73.585 73.585 0 00-25.34 4.48c-12.945-38.339-45.914-66.46-85.816-73.195-39.899-6.738-80.274 9.004-105.086 40.97a70.55 70.55 0 00-38.75-11.434c-39.461.043-71.438 32.02-71.48 71.48 0 .832 0 1.672.054 2.527C14.824 112.918-3.38 140.352.52 169.383c3.898 29.035 28.699 50.691 57.992 50.648h86.722a30.312 30.312 0 0028.317 19.496 30.311 30.311 0 0028.312-19.496h167.645c41.308 0 74.8-33.492 74.8-74.8 0-41.313-33.492-74.801-74.8-74.801zM173.55 225.508c-9.035 0-16.36-7.324-16.36-16.36 0-9.035 7.325-16.359 16.36-16.359s16.36 7.324 16.36 16.36c-.013 9.03-7.329 16.351-16.36 16.359zm195.957-19.496H203.746c-1.594-15.477-14.637-27.246-30.2-27.246s-28.605 11.77-30.198 27.246H58.512c-23.301.152-42.758-17.735-44.559-40.965s14.664-43.902 37.711-47.344a7.009 7.009 0 005.875-7.785 57.126 57.126 0 0113.746-45.332 57.128 57.128 0 0143.23-19.367 56.842 56.842 0 0135.93 12.656 7.028 7.028 0 005.422 1.46 6.998 6.998 0 004.75-2.995c21.106-31.215 58.54-47.184 95.68-40.809s67.105 33.907 76.594 70.375a101.05 101.05 0 01-1.446 46.168 7 7 0 004.442 8.774 7 7 0 008.832-4.32 111.75 111.75 0 002.828-47.97 59.747 59.747 0 0121.957-4.156c33.578 0 60.8 27.22 60.8 60.801 0 33.578-27.222 60.797-60.8 60.797zm-273.602 54c.008-14.63-11.847-26.496-26.476-26.508-14.63-.008-26.5 11.84-26.516 26.473-.012 14.628 11.836 26.503 26.465 26.52 14.633-.005 26.496-11.86 26.512-26.497zM69.38 272.496c-6.902 0-12.496-5.594-12.496-12.496 0-6.898 5.594-12.496 12.496-12.496S81.875 253.102 81.875 260c-.008 6.898-5.598 12.492-12.496 12.496zm42.613 113.121c-14.637 0-26.496 11.863-26.496 26.496 0 14.637 11.863 26.496 26.496 26.496 14.637 0 26.496-11.867 26.496-26.5-.015-14.625-11.87-26.476-26.496-26.492zm0 38.988c-6.902 0-12.496-5.593-12.496-12.496s5.594-12.496 12.496-12.496c6.899 0 12.496 5.594 12.496 12.496-.008 6.899-5.597 12.489-12.496 12.496zm161.961-73.93c-14.633 0-26.496 11.868-26.496 26.5.004 14.634 11.867 26.497 26.5 26.493 14.633 0 26.496-11.863 26.492-26.5-.015-14.625-11.867-26.477-26.496-26.492zm0 38.99c-6.898 0-12.496-5.595-12.496-12.497 0-6.898 5.598-12.496 12.496-12.496 6.902 0 12.496 5.598 12.496 12.496-.004 6.898-5.594 12.492-12.496 12.496zm27.809-161.599c-17.63 0-31.922 14.293-31.922 31.922 0 17.633 14.293 31.926 31.922 31.926 17.633 0 31.925-14.293 31.925-31.926-.027-17.61-14.296-31.883-31.91-31.91zm0 49.852c-9.899 0-17.922-8.023-17.922-17.926 0-9.898 8.023-17.922 17.922-17.922 9.898 0 17.925 8.024 17.925 17.922-.007 9.895-8.015 17.914-17.91 17.938zm-126.653 28.605c-11.632 0-21.066 9.43-21.066 21.067s9.434 21.066 21.066 21.066c11.637 0 21.07-9.43 21.07-21.066-.011-11.633-9.437-21.059-21.07-21.067zm0 28.133a7.067 7.067 0 010-14.133 7.068 7.068 0 017.07 7.067 7.075 7.075 0 01-7.07 7.066zm205.278-32.594c-11.633 0-21.067 9.434-21.063 21.07 0 11.634 9.43 21.063 21.067 21.067 11.632 0 21.066-9.43 21.066-21.066-.008-11.63-9.434-21.059-21.066-21.07zm0 28.137a7.067 7.067 0 01-7.063-7.07 7.064 7.064 0 017.067-7.067 7.064 7.064 0 017.066 7.067 7.078 7.078 0 01-7.066 7.07zm0 0"/>
</symbol>
<symbol id="storm" viewBox="0 -16 472.2 472">
	<path d="M426.344 164.992c.05-1.035.078-2.039.078-3.039a75.44 75.44 0 00-25.711-56.68c11.238-13.605 12.559-32.859 3.273-47.867-9.28-15.004-27.097-22.426-44.289-18.441-9.96-26.461-37.043-42.38-65.007-38.207-27.965 4.172-49.223 27.3-51.024 55.52C185 42.534 125.524 75.737 106.43 132.882a77.984 77.984 0 00-27.23-4.875c-43.74 0-79.2 35.46-79.2 79.199 0 43.742 35.46 79.2 79.2 79.2h39.624l-10.035 12.585a7.008 7.008 0 00-.836 7.403 7 7 0 006.309 3.96h50.984l-64.52 80.93a7.004 7.004 0 00.31 9.082 7.001 7.001 0 009.015 1.125l174.8-115.074h125.551c31.016.016 57.23-22.969 61.274-53.719 4.039-30.75-15.352-59.726-45.317-67.722zM257.464 60.203c-.01-23.308 17.4-42.95 40.54-45.734 23.144-2.781 44.715 12.168 50.23 34.816a46.423 46.423 0 01.243 18.863 7 7 0 1013.25 4.52 49.922 49.922 0 001.101-20.031 26.95 26.95 0 016.149-.735 27.125 27.125 0 0120.398 45.094c-24.77-14.851-55.855-14.219-80 1.629a116.709 116.709 0 00-51.937-38.176c.003-.086.027-.16.027-.246zm-118.347 305.41l46.14-57.87a7.003 7.003 0 00-5.473-11.363h-50.983l63.558-79.716h58.496l-46.566 58.398c-.043.055-.062.118-.102.168a6.98 6.98 0 00-.89 1.52c0 .035-.02.074-.035.113a6.93 6.93 0 00-.453 2.059c-.012.168-.051.336-.051.508.008.293.039.586.086.875 0 .125 0 .246.035.37a6.91 6.91 0 00.527 1.669c0 .039 0 .082.04.12.034.04.097.138.14.212.223.426.492.828.797 1.199.09.105.164.219.262.312.386.418.824.79 1.304 1.102.09.059.188.098.278.152.418.243.859.442 1.316.59a7.052 7.052 0 002.195.39h49.602zm271.27-93.18h-186.09l46.566-58.402a6.998 6.998 0 00-5.473-11.363h-76.398a7.007 7.007 0 00-5.472 2.637l-53.532 67.129h-50.8c-36.008 0-65.2-29.192-65.2-65.204 0-36.007 29.192-65.199 65.2-65.199a64.132 64.132 0 0123.874 4.684 118.588 118.588 0 002.95 51.133 7 7 0 008.86 4.422 7 7 0 004.421-8.856 108.037 108.037 0 01-1.566-49.394c10.136-39.024 42.187-68.493 81.921-75.32 39.735-6.829 79.786 10.25 102.368 43.648a7.01 7.01 0 004.754 2.992 7.006 7.006 0 005.421-1.465 60.988 60.988 0 0138.547-13.578c34.043.035 61.633 27.625 61.668 61.668a60.324 60.324 0 01-.543 7.738 7.001 7.001 0 005.875 7.793c24.68 3.813 42.254 25.992 40.324 50.89-1.933 24.895-22.714 44.098-47.687 44.063zm-44.399 78.235h-33.293l27.403-34.356a7 7 0 00-5.473-11.363h-50.078a6.995 6.995 0 00-5.473 2.637L250.098 369a7 7 0 005.469 11.363h28.402l-39.16 49.114a6.998 6.998 0 00.308 9.074 7.001 7.001 0 009.012 1.133l115.71-76.172a7.001 7.001 0 00-3.848-12.844zm-82.777 53.117l20.777-26.062a6.993 6.993 0 00.832-7.399 6.999 6.999 0 00-6.304-3.965h-28.418l37.8-47.414h32.2l-27.399 34.356a6.993 6.993 0 00-.832 7.398 6.992 6.992 0 006.305 3.965h24.465zm0 0"/>
</symbol>
<symbol id="sun" viewBox="0 0 454 454">
	<path d="M227 71.188c-86.05 0-155.813 69.761-155.813 155.812S140.95 382.813 227 382.813 382.813 313.05 382.813 227C382.707 140.992 313.007 71.293 227 71.187zm0 297.62c-78.32 0-141.813-63.492-141.813-141.812 0-78.324 63.493-141.812 141.817-141.812 78.32 0 141.809 63.496 141.809 141.816-.09 78.285-63.528 141.723-141.813 141.813zm-82.04-79.519a7.005 7.005 0 01-11.16 8.469 120.067 120.067 0 01-3.519-4.89 6.997 6.997 0 011.836-9.727 6.997 6.997 0 019.727 1.836 106.038 106.038 0 003.117 4.312zm-17.16-14.223a6.995 6.995 0 01-9.129-3.832A116.384 116.384 0 01110 227c0-3.867 3.133-7 7-7s7 3.133 7 7a102.44 102.44 0 007.602 38.938 7.003 7.003 0 01-3.801 9.128zm200.56-106.578a7 7 0 01-6.036 10.586 7.006 7.006 0 01-6.082-3.574A103.395 103.395 0 00227 124c-3.867 0-7-3.133-7-7s3.133-7 7-7c41.777.082 80.367 22.355 101.34 58.488zM220 43.164V7c0-3.867 3.133-7 7-7s7 3.133 7 7v36.164c0 3.867-3.133 7-7 7s-7-3.133-7-7zm-109.063-3.2a7 7 0 012.583-9.523 7.002 7.002 0 019.539 2.524l18.086 31.32a7.006 7.006 0 01.03 7.028 7.007 7.007 0 01-6.085 3.511 6.998 6.998 0 01-6.07-3.539zM30.41 113.5a7.002 7.002 0 019.567-2.562l31.32 18.082a6.998 6.998 0 013.539 6.07 7.007 7.007 0 01-3.512 6.086 7.006 7.006 0 01-7.027-.031l-31.32-18.086a7 7 0 01-2.567-9.559zm349.735 25.102a7.004 7.004 0 012.562-9.567l31.32-18.082a7 7 0 017 12.121l-31.32 18.086a6.977 6.977 0 01-5.312.7 6.988 6.988 0 01-4.25-3.262zm-67.29-74.309l18.086-31.32a7.002 7.002 0 019.54-2.524 7.001 7.001 0 012.582 9.524L325 71.293a6.998 6.998 0 01-6.07 3.539 7.011 7.011 0 01-6.086-3.512 7.006 7.006 0 01.031-7.027zM234 410.836V447c0 3.867-3.133 7-7 7s-7-3.133-7-7v-36.164c0-3.867 3.133-7 7-7s7 3.133 7 7zM454 227c0 3.867-3.133 7-7 7h-36.164c-3.867 0-7-3.133-7-7s3.133-7 7-7H447c3.867 0 7 3.133 7 7zm-410.836 7H7c-3.867 0-7-3.133-7-7s3.133-7 7-7h36.164c3.867 0 7 3.133 7 7s-3.133 7-7 7zm299.899 180.023a6.987 6.987 0 01.03 7.028 6.984 6.984 0 01-6.081 3.512 6.988 6.988 0 01-6.07-3.54l-18.087-31.32a7.006 7.006 0 01-.03-7.027 7.007 7.007 0 016.085-3.512 6.998 6.998 0 016.07 3.54zM423.59 340.5a6.998 6.998 0 01-9.566 2.563l-31.32-18.083a6.998 6.998 0 01-3.54-6.07 7.007 7.007 0 013.512-6.086 7.006 7.006 0 017.027.031l31.32 18.086a7 7 0 012.567 9.559zM73.855 315.398a7.004 7.004 0 01-2.562 9.567l-31.32 18.082a7 7 0 01-7-12.121l31.32-18.086a7 7 0 019.562 2.558zm67.29 74.29l-18.086 31.32a7.002 7.002 0 01-9.54 2.523 7.001 7.001 0 01-2.582-9.523l18.083-31.32a6.998 6.998 0 016.07-3.54 6.998 6.998 0 016.055 10.54zm0 0"/>
</symbol>
<symbol id="telegram" viewBox="0 0 19 19">
	<g clip-path="url(#clip0)">
		<path fill="#039BE5" d="M7.455 12.018l-.314 4.421c.45 0 .644-.193.878-.425l2.108-2.015 4.368 3.2c.802.446 1.366.21 1.582-.738l2.867-13.436h.001c.255-1.185-.428-1.648-1.209-1.358L.883 8.12c-1.15.447-1.133 1.088-.196 1.378l4.31 1.34 10.008-6.262c.472-.312.9-.14.548.172l-8.097 7.27z"/>
	</g>
</symbol>
<symbol id="telegram2" viewBox="0 0 21 20">
	<path fill="#000" fill-rule="evenodd" d="M19.333 2.33l-8.532 7.786c.635 2.274 1.864 6.602 2.32 7.94.044.131.086.232.124.308.051-.091.098-.2.135-.307l.002-.01.004-.008c1.738-4.54 5.245-13.734 5.947-15.71zm-9.229 7.068l8.492-7.75c-5.105 1.6-15.22 4.776-16.642 5.24-.12.039-.216.076-.29.11.085.044.184.084.28.116l8.16 2.284zm-.273.962L1.654 8.07l-.01-.003a2.9 2.9 0 01-.556-.245c-.164-.096-.386-.255-.505-.494a.756.756 0 01-.07-.48.838.838 0 01.233-.43c.202-.207.516-.357.898-.482C3.094 5.464 13.5 2.197 18.522.624c.184-.06.408-.11.637-.121.225-.012.498.01.748.135.272.135.483.377.56.723.072.319.022.683-.114 1.08-.486 1.428-4.224 11.23-6.03 15.947-.059.17-.142.365-.25.54-.099.162-.26.378-.502.493a.77.77 0 01-.472.067.85.85 0 01-.43-.225c-.212-.198-.367-.508-.495-.884-.468-1.376-1.713-5.762-2.343-8.02z" clip-rule="evenodd"/>
</symbol>
<symbol id="thunderstorm" viewBox="0 -34 478.848 478">
	<path d="M433 112.195c.055-1.035.078-2.039.078-3.039-.047-41.773-33.902-75.629-75.676-75.672a74.698 74.698 0 00-41.37 12.356C289.726 11.715 246.75-5.121 204.265 2.05c-42.48 7.177-77.547 37.192-91.184 78.063a77.962 77.962 0 00-27.227-4.875c-43.742 0-79.203 35.457-79.203 79.2 0 43.738 35.461 79.199 79.203 79.199h39.622l-10.051 12.582a7 7 0 00-.832 7.402 6.999 6.999 0 006.304 3.965h51.004l-64.52 80.914a6.998 6.998 0 00.31 9.074 7.001 7.001 0 009.011 1.133L291.5 233.633h125.527c31.02.031 57.254-22.957 61.293-53.715 4.043-30.758-15.36-59.742-45.34-67.727zM145.77 312.813l46.14-57.864a7 7 0 00-5.473-11.363h-50.984l63.574-79.719h58.48l-46.562 58.406a6.993 6.993 0 00-.832 7.399 6.992 6.992 0 006.305 3.965h49.602zm271.257-93.18H230.953l46.57-58.399a7.003 7.003 0 00-5.473-11.367h-76.402a7.007 7.007 0 00-5.472 2.637l-53.551 67.129h-50.8c-36.009 0-65.2-29.192-65.2-65.2 0-36.011 29.191-65.199 65.2-65.199a64.152 64.152 0 0123.878 4.684 118.659 118.659 0 002.973 51.121 7 7 0 0013.273-4.45 106.903 106.903 0 01-1.558-49.378c10.132-39.02 42.183-68.488 81.918-75.32 39.738-6.829 79.789 10.25 102.367 43.648a7.013 7.013 0 004.754 2.992 7.017 7.017 0 005.425-1.46 60.95 60.95 0 0138.543-13.583 61.25 61.25 0 0146.383 20.77 61.26 61.26 0 0114.746 48.64 6.994 6.994 0 005.875 7.79c24.657 3.84 42.2 26.011 40.27 50.886-1.934 24.88-22.695 44.074-47.645 44.059zm-40.27 82.207a7.01 7.01 0 00-6.706-4.992h-32.227l26.582-33.328a6.993 6.993 0 00.832-7.399 6.992 6.992 0 00-6.304-3.965h-48.946a6.994 6.994 0 00-5.468 2.637l-47.895 60.031a7 7 0 005.473 11.363h27.437l-38.082 47.754a6.998 6.998 0 00.313 9.075 6.995 6.995 0 009.007 1.132l113.125-74.457a7.003 7.003 0 002.86-7.851zm-86.89 46.402l19.695-24.707a6.993 6.993 0 00.833-7.398 6.999 6.999 0 00-6.305-3.965h-27.438l36.711-46.035h31.04l-26.579 33.34a6.999 6.999 0 005.473 11.363h23.398zM30.664 324.45L12.473 347.23a7.002 7.002 0 01-10.942-8.738l18.176-22.77a7.002 7.002 0 0110.941 8.739zm7.277-31.566l34.18-42.797c2.414-3.024 6.82-3.52 9.84-1.106a7.002 7.002 0 011.105 9.84l-34.18 42.801a6.999 6.999 0 01-9.84 1.102 6.999 6.999 0 01-1.105-9.84zm10.946 86.8L27.05 407.04c-2.414 3.023-6.82 3.52-9.84 1.106a6.999 6.999 0 01-1.106-9.84l21.82-27.336a7.002 7.002 0 0110.946 8.734zm32.457-40.644l-15.387 19.277c-2.41 3.024-6.816 3.516-9.84 1.106a7.003 7.003 0 01-1.105-9.84l15.39-19.277c2.41-3.024 6.817-3.516 9.84-1.106a6.999 6.999 0 011.102 9.84zm7.582-20.719a7.005 7.005 0 01-1.106-9.836l29.52-36.98c2.414-3.02 6.82-3.516 9.84-1.102a6.999 6.999 0 011.105 9.84l-29.52 36.977a7.002 7.002 0 01-9.84 1.105zm29.402 52.47l-28.953 36.25c-2.414 3.022-6.82 3.519-9.84 1.105a6.999 6.999 0 01-1.105-9.84l28.953-36.274a7.002 7.002 0 0110.941 8.739zm72.281-12.478L151.7 407.04c-2.414 3.023-6.82 3.52-9.84 1.106a6.999 6.999 0 01-1.105-9.84l38.91-48.75c2.414-3.02 6.82-3.516 9.84-1.102a6.999 6.999 0 011.105 9.84zm14.778-22.753a7 7 0 01-5.465-11.367l32.8-41.106a6.994 6.994 0 019.837-1.102 6.994 6.994 0 011.101 9.836l-32.8 41.11a6.976 6.976 0 01-5.473 2.629zm53.851 14.843l-45.215 56.637a7.002 7.002 0 11-10.945-8.734l45.2-56.645a7.002 7.002 0 1110.945 8.738zm24.258 47.684l-7.148 8.957a6.998 6.998 0 11-10.942-8.73l7.149-8.961a7.001 7.001 0 0110.941 8.734zm78-120.172l22.219-27.832a6.999 6.999 0 019.84-1.105 7.002 7.002 0 011.101 9.84l-22.199 27.824a7.003 7.003 0 01-10.945-8.734zm4.328 95.125l-27.152 34a6.999 6.999 0 01-9.84 1.106 7.002 7.002 0 01-1.102-9.84l27.153-34c2.41-3.024 6.816-3.516 9.84-1.106 3.02 2.414 3.515 6.82 1.101 9.84zm22.453-28.125l-7.511 9.41a7.007 7.007 0 01-9.848 1.094 7.006 7.006 0 01-1.094-9.844l7.512-9.414a7.003 7.003 0 1110.945 8.738zm51.63-64.676l-33.173 41.555a7.007 7.007 0 01-10.941-8.754l33.172-41.555a7.003 7.003 0 0110.945 8.735zm0 0"/>
</symbol>
<symbol id="twitter" viewBox="0 0 512 512">
	<path fill="#03a9f4" d="M512 97.248c-19.04 8.352-39.328 13.888-60.48 16.576 21.76-12.992 38.368-33.408 46.176-58.016-20.288 12.096-42.688 20.64-66.56 25.408C411.872 60.704 384.416 48 354.464 48c-58.112 0-104.896 47.168-104.896 104.992 0 8.32.704 16.32 2.432 23.936-87.264-4.256-164.48-46.08-216.352-109.792-9.056 15.712-14.368 33.696-14.368 53.056 0 36.352 18.72 68.576 46.624 87.232-16.864-.32-33.408-5.216-47.424-12.928v1.152c0 51.008 36.384 93.376 84.096 103.136-8.544 2.336-17.856 3.456-27.52 3.456-6.72 0-13.504-.384-19.872-1.792 13.6 41.568 52.192 72.128 98.08 73.12-35.712 27.936-81.056 44.768-130.144 44.768-8.608 0-16.864-.384-25.12-1.44C46.496 446.88 101.6 464 161.024 464c193.152 0 298.752-160 298.752-298.688 0-4.64-.16-9.12-.384-13.568 20.832-14.784 38.336-33.248 52.608-54.496z"/>
</symbol>
<symbol id="volume-muted" viewBox="0 0 31 28">
	<path d="M9.235 7.49v13.726m0-13.726H3.196C1.44 7.49 1 8.954 1 9.686v9.883c0 1.317 1.464 1.647 2.196 1.647h6.04V7.49zm0 0L20.765 2v24.157l-11.53-4.941V7.49zM29.793 11L24 16.76m.207-5.52L30 17l-5.793-5.76z"/>
</symbol>
<symbol id="weather" viewBox="-30 0 466 466.615">
	<path d="M46.84 52.54a7.005 7.005 0 010-9.9 7.002 7.002 0 019.902 0L74.97 60.868c2.734 2.735 2.734 7.168 0 9.903s-7.164 2.734-9.899 0zM9.39 124.675l24.903 6.672a7 7 0 003.625-13.524l-24.93-6.687a7.005 7.005 0 10-3.597 13.539zm1.81 81.426c.609 0 1.222-.082 1.812-.243l24.906-6.672a7 7 0 00-3.625-13.523L9.391 192.32a7.003 7.003 0 00-5.141 7.676 7.008 7.008 0 006.95 6.09zM194.792 38.676a6.988 6.988 0 005.316-.696 6.988 6.988 0 003.262-4.25l6.672-24.902a7.003 7.003 0 00-13.527-3.625l-6.672 24.902a6.997 6.997 0 004.949 8.57zm-72.8-4.946a7 7 0 0013.523-3.625l-6.66-24.918a6.997 6.997 0 00-8.57-4.949 7 7 0 00-4.954 8.574zm133.35 39.106a6.956 6.956 0 004.95-2.05l18.227-18.231a6.997 6.997 0 000-9.899 6.997 6.997 0 00-9.899 0l-18.226 18.227a7 7 0 004.945 11.949zm32.106 126.348l24.903 6.671a7 7 0 008.574-4.949 6.998 6.998 0 00-4.95-8.574l-24.902-6.672a7 7 0 00-3.625 13.524zm1.809-67.598a7.138 7.138 0 001.816-.242l24.914-6.668a6.998 6.998 0 004.95-8.574 6.997 6.997 0 00-8.57-4.95l-24.907 6.672a7 7 0 001.809 13.766zm118 167.305c-.051 43.707-35.465 79.12-79.168 79.171H67.844c-37.297 0-67.535-30.238-67.535-67.539 0-37.3 30.238-67.539 67.535-67.539 2.87.004 5.742.2 8.586.586.61-3.203 1.347-6.36 2.222-9.472C42.344 193.78 39.79 133.359 72.574 90.125c32.781-43.23 91.656-57.078 140.27-32.988 48.617 24.086 73.265 79.316 58.73 131.586a112.806 112.806 0 0123.016 38.5 79.053 79.053 0 0176.047 4.84 79.049 79.049 0 0136.633 66.816zm-323.07-80.102a113.226 113.226 0 0177.582-64.285 113.22 113.22 0 0198.097 22.992c8.793-44.758-14.125-89.734-55.504-108.93-41.379-19.199-90.515-7.648-119.011 27.973-28.497 35.617-28.973 86.094-1.165 122.25zm309.082 80.09a65.06 65.06 0 00-33.297-56.887 65.054 65.054 0 00-65.903 1.395h-.023l-.04.031c-23.421 14.082-23.695 43.93-23.695 44.234a7.001 7.001 0 01-14 0c0-1.464.348-34.226 25.872-53.109a98.798 98.798 0 00-22.922-38.531c-.102-.082-.18-.18-.278-.27-26.57-27.5-66.578-37.277-102.836-25.137-36.257 12.145-62.308 44.043-66.964 81.997a6.998 6.998 0 01-8.594 5.964 53.512 53.512 0 10-12.734 105.477h260.246c35.972-.04 65.125-29.188 65.168-65.164zm-259.2 90.434c3.918 5.667 23.489 34.632 23.489 48.398-.188 16.02-13.227 28.902-29.243 28.902-16.02 0-29.054-12.883-29.242-28.902 0-13.77 19.567-42.734 23.488-48.399a7.261 7.261 0 0111.492-.004zm9.489 48.398c0-5.05-7.157-18.883-15.247-31.707-8.082 12.832-15.242 26.664-15.242 31.707.133 8.324 6.918 15 15.242 15 8.32 0 15.106-6.676 15.243-15zm127.511-48.399c3.918 5.668 23.489 34.633 23.489 48.399-.188 16.02-13.227 28.902-29.243 28.902-16.02 0-29.054-12.883-29.242-28.902 0-13.77 19.567-42.734 23.488-48.399a7.261 7.261 0 0111.492-.004zm9.489 48.399c0-5.05-7.157-18.883-15.247-31.707-8.082 12.832-15.242 26.664-15.242 31.707.133 8.324 6.918 15 15.242 15 8.32 0 15.106-6.676 15.243-15zm0 0"/>
</symbol>
<symbol id="world" viewBox="0 0 14 14">
	<path stroke="#9E9E9E" stroke-linecap="round" stroke-linejoin="round" stroke-width=".7" d="M7 13A6 6 0 107 1a6 6 0 000 12zM1 7h12"/>
	<path stroke="#9E9E9E" stroke-linecap="round" stroke-linejoin="round" stroke-width=".7" d="M7 1a9.18 9.18 0 012.4 6A9.18 9.18 0 017 13a9.18 9.18 0 01-2.4-6A9.18 9.18 0 017 1v0z"/>
</symbol>
</svg>