<svg xmlns="http://www.w3.org/2000/svg" width="691" height="156" fill="none"><g clip-path="url(#a)"><rect width="156" height="156" fill="#2B60E4" rx="48"/><path stroke="#fff" stroke-linecap="round" stroke-linejoin="round" stroke-opacity=".16" stroke-width="28" d="m61 92.5 25.5 26 97-96.5"/><path stroke="url(#b)" stroke-linecap="round" stroke-linejoin="round" stroke-width="28" d="m46 77.5 25.5 26 97-96.5"/></g><path fill="#000" d="M257.632 81.36V114h-11.904V81.36c0-5.717-2.048-10.581-6.144-14.592-4.011-4.096-8.875-6.144-14.592-6.144-5.717 0-10.624 2.048-14.72 6.144-4.011 4.01-6.016 8.875-6.016 14.592 0 5.717 2.005 10.624 6.016 14.72 4.096 4.011 9.003 6.016 14.72 6.016 1.963 0 3.925-.256 5.888-.768v12.16a34.337 34.337 0 0 1-5.888.512c-9.045 0-16.768-3.157-23.168-9.472-6.315-6.4-9.472-14.08-9.472-23.04 0-9.045 3.157-16.768 9.472-23.168 6.4-6.4 14.08-9.6 23.04-9.6 9.045 0 16.768 3.2 23.168 9.6 6.4 6.4 9.6 14.08 9.6 23.04zM283.081 114h-11.904V22.096h11.904V114zm46.072 0c-9.045 0-16.768-3.157-23.168-9.472-6.315-6.4-9.472-14.123-9.472-23.168V30.928h11.904V57.68h17.792v11.776h-17.792V81.36c0 5.717 2.005 10.624 6.016 14.72 4.096 4.011 9.003 6.016 14.72 6.016 1.963 0 3.925-.256 5.888-.768v12.16a34.337 34.337 0 0 1-5.888.512zm56.63-16.128 9.6 7.552c-1.707 1.621-3.755 3.072-6.144 4.352l-1.152.768c-4.608 2.304-9.515 3.456-14.72 3.456-7.253 0-13.781-2.176-19.584-6.528-5.803-4.352-9.728-10.027-11.776-17.024l-.256-.896a32.636 32.636 0 0 1-1.024-8.192c0-8.96 3.157-16.64 9.472-23.04 6.4-6.4 14.123-9.6 23.168-9.6 5.547 0 10.752 1.365 15.616 4.096l.384.128c4.352 2.475 7.979 5.803 10.88 9.984l-18.688 24.064-9.344-7.296 12.16-15.616-2.944-1.792c-2.048-1.11-4.736-1.664-8.064-1.664-5.717 0-10.624 2.048-14.72 6.144-4.011 4.01-6.016 8.875-6.016 14.592 0 4.95 1.579 9.344 4.736 13.184s7.168 6.229 12.032 7.168c.597.171 1.451.299 2.56.384h2.048c4.352-.171 8.277-1.579 11.776-4.224zm53.054-37.12c-5.12.768-9.387 3.115-12.8 7.04-3.328 3.84-4.992 8.363-4.992 13.568V114h-11.904V81.36c0-8.448 2.859-15.787 8.576-22.016 5.717-6.23 12.757-9.728 21.12-10.496v11.904zM479.403 114c-9.045 0-16.768-3.157-23.168-9.472-6.315-6.4-9.472-14.123-9.472-23.168V30.928h11.904V57.68h17.792v11.776h-17.792V81.36c0 5.717 2.005 10.624 6.016 14.72 4.096 4.011 9.003 6.016 14.72 6.016 1.963 0 3.925-.256 5.888-.768v12.16a34.337 34.337 0 0 1-5.888.512zm76.854-32.64V114h-11.904V81.36c0-5.717-2.048-10.581-6.144-14.592-4.011-4.096-8.875-6.144-14.592-6.144-5.717 0-10.624 2.048-14.72 6.144-4.011 4.01-6.016 8.875-6.016 14.592 0 5.717 2.005 10.624 6.016 14.72 4.096 4.011 9.003 6.016 14.72 6.016 1.963 0 3.925-.256 5.888-.768v12.16a34.337 34.337 0 0 1-5.888.512c-9.045 0-16.768-3.157-23.168-9.472-6.315-6.4-9.472-14.08-9.472-23.04 0-9.045 3.157-16.768 9.472-23.168 6.4-6.4 14.08-9.6 23.04-9.6 9.045 0 16.768 3.2 23.168 9.6 6.4 6.4 9.6 14.08 9.6 23.04zm61.289 13.44c0 5.291-1.877 9.813-5.632 13.568-3.669 3.755-8.149 5.632-13.44 5.632h-29.696v-11.776h29.696c2.048 0 3.797-.725 5.248-2.176 1.451-1.45 2.176-3.2 2.176-5.248s-.725-3.797-2.176-5.248c-1.451-1.45-3.2-2.176-5.248-2.176h-12.416c-5.205 0-9.685-1.877-13.44-5.632-3.669-3.755-5.504-8.235-5.504-13.44 0-5.29 1.835-9.813 5.504-13.568 3.755-3.755 8.277-5.632 13.568-5.632h27.008V60.88h-26.88c-2.048 0-3.797.725-5.248 2.176-1.451 1.45-2.176 3.2-2.176 5.248s.725 3.797 2.176 5.248c1.451 1.45 3.2 2.176 5.248 2.176h12.288c5.291 0 9.771 1.877 13.44 5.632 3.669 3.755 5.504 8.235 5.504 13.44zm56.55 4.352c0-5.717-2.048-10.581-6.144-14.592-4.096-4.096-9.003-6.144-14.72-6.144-3.669 0-7.125.939-10.368 2.816l-1.408.896V114h-11.904V22.096h11.904v44.416h2.944c5.205 0 9.728-1.664 13.568-4.992 3.925-3.413 6.229-7.68 6.912-12.8h12.032c-.683 6.827-3.2 12.843-7.552 18.048l-2.304 2.688 3.072 1.792c4.949 2.987 8.789 6.955 11.52 11.904 2.816 4.95 4.224 10.283 4.224 16V114h-11.776V99.152z"/><defs><linearGradient id="b" x1="168" x2="43" y1="7" y2="104" gradientUnits="userSpaceOnUse"><stop stop-color="#fff"/><stop offset="1" stop-color="#B6CBFF"/></linearGradient><clipPath id="a"><rect width="156" height="156" fill="#fff" rx="48"/></clipPath></defs></svg>