<?xml version="1.0" standalone="no"?>
<!DOCTYPE svg PUBLIC "-//W3C//DTD SVG 20010904//EN"
 "http://www.w3.org/TR/2001/REC-SVG-20010904/DTD/svg10.dtd">
<svg version="1.0" xmlns="http://www.w3.org/2000/svg"
 width="512.000000pt" height="512.000000pt" viewBox="0 0 512.000000 512.000000"
 preserveAspectRatio="xMidYMid meet">

<g transform="translate(0.000000,512.000000) scale(0.100000,-0.100000)"
fill="#fff" stroke="none">
<path d="M2255 4617 c-110 -36 -163 -92 -276 -288 -50 -88 -97 -159 -104 -159
-7 0 -32 7 -56 16 -26 9 -77 16 -124 16 -95 1 -139 -14 -300 -102 -99 -54
-282 -146 -582 -291 -180 -87 -238 -164 -338 -444 -103 -288 -221 -570 -378
-900 -42 -88 -82 -184 -88 -214 -37 -175 49 -355 209 -433 63 -31 72 -33 178
-33 109 0 112 -1 102 -20 -6 -11 -80 -140 -165 -287 l-154 -267 -20 -308 c-11
-169 -17 -322 -14 -340 8 -42 48 -73 95 -73 32 0 78 27 301 173 145 96 271
184 280 198 10 13 97 162 194 332 l177 307 587 0 587 0 30 -31 c77 -81 257
-192 412 -253 325 -130 752 -131 1155 -3 l107 35 1 -217 c0 -247 6 -277 59
-303 32 -16 76 -18 463 -18 459 0 476 2 511 51 15 21 16 130 16 1226 l0 1203
-29 32 -29 33 -604 5 -603 5 -165 72 c-142 61 -1074 450 -1137 474 -22 8 -21
11 46 126 129 222 126 215 126 328 0 87 -3 107 -26 155 -37 78 -88 131 -161
170 -56 30 -73 34 -153 37 -55 2 -106 -2 -130 -10z m207 -212 c47 -35 71 -90
66 -148 -4 -43 -21 -79 -92 -204 l-88 -151 -122 71 c-188 110 -176 82 -94 222
99 171 115 193 151 216 42 26 140 23 179 -6z m-695 -414 c9 -5 -55 -125 -210
-393 l-222 -386 -83 -47 c-156 -87 -167 -105 -257 -416 l-57 -195 -58 -12
c-95 -20 -188 -73 -262 -149 -98 -102 -148 -216 -148 -339 0 -70 -4 -74 -78
-74 -67 1 -125 30 -159 81 -24 36 -28 52 -27 108 1 62 7 79 96 266 155 326
245 539 353 840 70 195 92 239 142 287 43 41 58 49 278 150 88 41 241 118 340
173 98 54 197 104 219 111 39 12 106 10 133 -5z m343 -182 l138 -80 -85 -147
c-47 -81 -200 -346 -340 -589 l-256 -443 -188 0 c-104 0 -189 3 -189 6 0 13
765 1334 773 1334 4 0 70 -36 147 -81z m1042 -463 l688 -286 115 0 115 0 0
-799 0 -799 -84 -30 c-220 -80 -409 -115 -621 -115 -341 -1 -620 102 -845 310
l-73 68 -766 5 -766 5 -56 27 c-67 33 -131 96 -162 158 -18 37 -22 62 -22 140
0 83 4 101 27 145 35 66 91 118 158 148 l55 25 465 6 c478 6 546 11 676 52 66
21 94 52 94 106 0 76 -66 112 -154 85 -55 -17 -177 -39 -184 -33 -2 2 135 245
305 540 262 457 311 536 328 532 11 -2 329 -132 707 -290z m1768 -1361 l0
-1075 -322 2 -323 3 -3 1060 c-1 583 0 1066 3 1073 3 9 78 12 325 12 l320 0 0
-1075z m-4102 -451 c37 -13 78 -24 92 -24 14 0 30 -4 36 -8 15 -9 -121 -248
-138 -244 -10 3 -266 149 -276 157 -2 2 24 51 58 108 l62 106 49 -36 c27 -19
79 -46 117 -59z m-252 -370 c74 -42 137 -81 140 -85 3 -5 -5 -28 -18 -51 -19
-34 -52 -62 -178 -145 -85 -56 -155 -101 -156 -100 -1 1 3 85 10 187 10 167
14 189 36 227 14 24 27 43 29 43 2 0 63 -34 137 -76z"/>
<path d="M2389 2856 c-43 -14 -75 -69 -65 -110 19 -77 111 -103 167 -47 38 38
39 87 4 129 -29 35 -60 43 -106 28z"/>
<path d="M4529 1281 c-38 -38 -39 -87 -4 -129 45 -54 128 -45 160 19 14 27 15
39 6 70 -14 47 -44 69 -94 69 -29 0 -46 -7 -68 -29z"/>
</g>
</svg>
