<svg width="62" height="64" viewBox="0 0 62 64" fill="none" xmlns="http://www.w3.org/2000/svg">
<path d="M31 0.859619C13.8789 0.859619 0 14.9629 0 32.3596C0 49.7573 13.8789 63.8596 31 63.8596C48.1211 63.8596 62 49.7573 62 32.3596C62 14.9629 48.1211 0.859619 31 0.859619ZM31 48.1096C28.8598 48.1096 27.125 46.3476 27.125 44.1721C27.125 41.9976 28.8598 40.2346 31 40.2346C33.1402 40.2346 34.875 41.9976 34.875 44.1721C34.875 46.3476 33.1402 48.1096 31 48.1096ZM34.875 34.3284H27.125L25.1875 18.5784C25.1875 17.4911 26.055 16.6096 27.125 16.6096H34.875C35.945 16.6096 36.8125 17.4911 36.8125 18.5784L34.875 34.3284Z" fill="white"/>
</svg>
