<svg width="700" height="700" viewBox="0 0 700 700" fill="none" xmlns="http://www.w3.org/2000/svg">
<path d="M350 35C285.023 35 222.71 60.812 176.76 106.758C130.815 152.707 105.002 215.028 105.002 279.998C105.002 344.968 130.814 407.288 176.76 453.238C222.709 499.183 285.03 524.996 350 524.996C414.97 524.996 477.29 499.184 523.24 453.238C569.185 407.289 594.998 344.968 594.998 279.998C594.928 215.041 569.096 152.768 523.162 106.838C477.232 60.904 414.952 35.072 350.002 35.002L350 35ZM350 490C294.305 490 240.89 467.875 201.51 428.492C162.127 389.109 140.002 335.695 140.002 280.002C140.002 224.309 162.127 170.892 201.51 131.512C240.893 92.129 294.307 70.004 350 70.004C405.693 70.004 459.11 92.129 498.49 131.512C537.873 170.895 559.998 224.309 559.998 280.002C559.939 335.678 537.795 389.052 498.424 428.432C459.053 467.803 405.674 489.948 349.994 490.006L350 490Z" fill="black"/>
<path d="M367.5 272.75V122.5C367.5 116.246 364.164 110.469 358.75 107.344C353.336 104.219 346.664 104.219 341.25 107.344C335.836 110.469 332.5 116.246 332.5 122.5V280C332.512 282.293 332.969 284.566 333.848 286.684C334.723 288.82 336.012 290.762 337.645 292.391L425.145 379.891C429.59 384.184 435.969 385.812 441.93 384.18C447.89 382.547 452.547 377.891 454.18 371.93C455.812 365.969 454.184 359.59 449.891 355.145L367.5 272.75Z" fill="#27AE60"/>
</svg>
