<svg width="700" height="700" viewBox="0 0 700 700" fill="none" xmlns="http://www.w3.org/2000/svg">
<path fill-rule="evenodd" clip-rule="evenodd" d="M280 87.5H420C426.254 87.5 432.031 84.1641 435.156 78.75C438.281 73.3359 438.281 66.664 435.156 61.25C432.031 55.836 426.253 52.5 420 52.5H280C273.746 52.5 267.969 55.8359 264.844 61.25C261.719 66.6641 261.719 73.336 264.844 78.75C267.969 84.164 273.746 87.5 280 87.5Z" fill="black"/>
<path fill-rule="evenodd" clip-rule="evenodd" d="M227.5 122.5C232.141 122.5 236.594 120.656 239.875 117.375C243.156 114.094 245 109.641 245 105V35C245 28.7461 241.664 22.969 236.25 19.844C230.836 16.719 224.164 16.719 218.75 19.844C213.336 22.969 210 28.7463 210 35V105C210 109.641 211.844 114.094 215.125 117.375C218.406 120.656 222.859 122.5 227.5 122.5Z" fill="black"/>
<path fill-rule="evenodd" clip-rule="evenodd" d="M472.5 122.5C477.141 122.5 481.594 120.656 484.875 117.375C488.156 114.094 490 109.641 490 105V35C490 28.7461 486.664 22.969 481.25 19.844C475.836 16.719 469.164 16.719 463.75 19.844C458.336 22.969 455 28.7463 455 35V105C455 109.641 456.844 114.094 460.125 117.375C463.406 120.656 467.859 122.5 472.5 122.5Z" fill="black"/>
<path fill-rule="evenodd" clip-rule="evenodd" d="M597.12 67.883C587.276 58.0353 573.925 52.504 560.003 52.5H525.003C518.749 52.5 512.972 55.8359 509.847 61.25C506.722 66.6641 506.722 73.336 509.847 78.75C512.972 84.164 518.749 87.5 525.003 87.5H560.003C564.644 87.5 569.097 89.3438 572.378 92.625C575.659 95.9062 577.503 100.359 577.503 105V157.5H507.503C501.249 157.5 495.472 160.836 492.347 166.25C489.222 171.664 489.222 178.336 492.347 183.75C495.472 189.164 501.249 192.5 507.503 192.5H577.503V490C577.503 494.641 575.659 499.094 572.378 502.375C569.097 505.656 564.644 507.5 560.003 507.5H140.003C135.362 507.5 130.909 505.656 127.628 502.375C124.347 499.094 122.503 494.641 122.503 490V192.5H437.503C443.757 192.5 449.534 189.164 452.659 183.75C455.784 178.336 455.784 171.664 452.659 166.25C449.534 160.836 443.757 157.5 437.503 157.5H122.503V105C122.503 100.359 124.347 95.9062 127.628 92.625C130.909 89.3438 135.362 87.5 140.003 87.5H175.003C181.257 87.5 187.034 84.1641 190.159 78.75C193.284 73.3359 193.284 66.664 190.159 61.25C187.034 55.836 181.257 52.5 175.003 52.5H140.003C126.077 52.5 112.726 58.0312 102.878 67.875C93.0341 77.7227 87.5029 91.074 87.5029 105V490C87.5029 503.926 93.0341 517.277 102.878 527.125C112.726 536.969 126.077 542.5 140.003 542.5H560.003C573.929 542.5 587.28 536.969 597.128 527.125C606.972 517.277 612.503 503.926 612.503 490V105C612.499 91.078 606.968 77.727 597.12 67.883V67.883Z" fill="black"/>
<path d="M246.87 260.47C246.87 273.411 236.382 283.904 223.44 283.904C210.498 283.904 200.006 273.412 200.006 260.47C200.006 247.528 210.498 237.04 223.44 237.04C236.382 237.04 246.87 247.528 246.87 260.47Z" fill="#27AE60"/>
<path d="M246.87 342.49C246.87 355.431 236.382 365.924 223.44 365.924C210.498 365.924 200.006 355.432 200.006 342.49C200.006 329.549 210.498 319.056 223.44 319.056C236.382 319.056 246.87 329.548 246.87 342.49Z" fill="#27AE60"/>
<path d="M246.87 424.53C246.87 437.471 236.382 447.964 223.44 447.964C210.498 447.964 200.006 437.472 200.006 424.53C200.006 411.588 210.498 401.1 223.44 401.1C236.382 401.1 246.87 411.588 246.87 424.53Z" fill="#27AE60"/>
<path d="M331.24 260.47C331.24 273.411 320.752 283.904 307.81 283.904C294.868 283.904 284.376 273.412 284.376 260.47C284.376 247.528 294.868 237.04 307.81 237.04C320.752 237.04 331.24 247.528 331.24 260.47Z" fill="#27AE60"/>
<path d="M331.24 342.49C331.24 355.431 320.752 365.924 307.81 365.924C294.868 365.924 284.376 355.432 284.376 342.49C284.376 329.549 294.868 319.056 307.81 319.056C320.752 319.056 331.24 329.548 331.24 342.49Z" fill="#27AE60"/>
<path d="M331.24 424.53C331.24 437.471 320.752 447.964 307.81 447.964C294.868 447.964 284.376 437.472 284.376 424.53C284.376 411.588 294.868 401.1 307.81 401.1C320.752 401.1 331.24 411.588 331.24 424.53Z" fill="#27AE60"/>
<path d="M415.62 260.47C415.62 273.411 405.128 283.904 392.186 283.904C379.244 283.904 368.756 273.412 368.756 260.47C368.756 247.528 379.244 237.04 392.186 237.04C405.128 237.04 415.62 247.528 415.62 260.47Z" fill="#27AE60"/>
<path d="M415.62 342.49C415.62 355.431 405.128 365.924 392.186 365.924C379.244 365.924 368.756 355.432 368.756 342.49C368.756 329.549 379.244 319.056 392.186 319.056C405.128 319.056 415.62 329.548 415.62 342.49Z" fill="#27AE60"/>
<path d="M415.62 424.53C415.62 437.471 405.128 447.964 392.186 447.964C379.244 447.964 368.756 437.472 368.756 424.53C368.756 411.588 379.244 401.1 392.186 401.1C405.128 401.1 415.62 411.588 415.62 424.53Z" fill="#27AE60"/>
<path d="M499.99 260.47C499.99 273.411 489.498 283.904 476.556 283.904C463.614 283.904 453.126 273.412 453.126 260.47C453.126 247.528 463.614 237.04 476.556 237.04C489.498 237.04 499.99 247.528 499.99 260.47Z" fill="#27AE60"/>
<path d="M499.99 342.49C499.99 355.431 489.498 365.924 476.556 365.924C463.614 365.924 453.126 355.432 453.126 342.49C453.126 329.549 463.614 319.056 476.556 319.056C489.498 319.056 499.99 329.548 499.99 342.49Z" fill="#27AE60"/>
<path d="M499.99 424.53C499.99 437.471 489.498 447.964 476.556 447.964C463.614 447.964 453.126 437.472 453.126 424.53C453.126 411.588 463.614 401.1 476.556 401.1C489.498 401.1 499.99 411.588 499.99 424.53Z" fill="#27AE60"/>
</svg>
