<svg width="42" height="27" viewBox="0 0 42 27" fill="none" xmlns="http://www.w3.org/2000/svg">
<g id="Amex">
<rect id="Rectangle 55" x="0.5" y="0.5" width="41" height="26" rx="3.5" fill="white" stroke="#9B9B9B"/>
<path id="Vector" d="M8.76402 9.56152L5.20898 17.4287H9.46486L9.99247 16.1743H11.1985L11.7261 17.4287H16.4106V16.4713L16.828 17.4287H19.2512L19.6686 16.4511V17.4287H29.4112L30.5958 16.2069L31.7051 17.4287L36.709 17.4388L33.1428 13.5171L36.709 9.56152H31.7827L30.6295 10.7607L29.5552 9.56152H18.9566L18.0465 11.5921L17.115 9.56152H12.868V10.4863L12.3956 9.56152H8.76402ZM9.58751 10.6787H11.662L14.0201 16.0134V10.6787H16.2926L18.1139 14.5037L19.7925 10.6787H22.0537V16.3239H20.6778L20.6666 11.9003L18.6607 16.3239H17.4299L15.4128 11.9003V16.3239H12.5822L12.0456 15.0583H9.14652L8.61102 16.3228H7.09447L9.58751 10.6787ZM23.3125 10.6787H28.9071L30.6183 12.527L32.3846 10.6787H34.0957L31.4958 13.516L34.0957 16.3206H32.307L30.5958 14.4507L28.8205 16.3206H23.3125V10.6787ZM10.5967 11.6338L9.64155 13.8883H11.5507L10.5967 11.6338ZM24.6941 11.8475V12.8781H27.7462V14.0267H24.6941V15.1517H28.1175L29.7082 13.4946L28.185 11.8465H24.6941V11.8475Z" fill="#9B9B9B"/>
</g>
</svg>
