<svg width="42" height="27" viewBox="0 0 42 27" fill="none" xmlns="http://www.w3.org/2000/svg">
<rect x="0.5" y="0.5" width="41" height="26" rx="3.5" fill="white" stroke="#9B9B9B"/>
<path d="M11.4816 8.5471C11.13 8.95243 10.5674 9.27212 10.0048 9.22645C9.93451 8.6784 10.2099 8.0961 10.5322 7.73644C10.8838 7.3197 11.4991 7.02284 11.9973 7C12.0559 7.57088 11.8273 8.13035 11.4816 8.5471ZM11.9914 9.33492C11.1768 9.28925 10.4795 9.78592 10.0927 9.78592C9.70011 9.78592 9.10825 9.35775 8.46364 9.36917C7.62566 9.38059 6.84627 9.84301 6.41849 10.5794C5.53948 12.0523 6.18994 14.2331 7.03965 15.432C7.45571 16.0257 7.95382 16.6765 8.61014 16.6537C9.23131 16.6308 9.47743 16.2598 10.2275 16.2598C10.9835 16.2598 11.2003 16.6537 11.8566 16.6422C12.5364 16.6308 12.9642 16.0485 13.3802 15.4548C13.8549 14.7812 14.0483 14.1246 14.06 14.0904C14.0483 14.079 12.7473 13.5937 12.7356 12.1323C12.7239 10.9106 13.7611 10.3283 13.808 10.294C13.222 9.4491 12.3078 9.35775 11.9914 9.33492ZM16.697 7.67935V16.5794H18.1151V13.5366H20.0783C21.8714 13.5366 23.1313 12.3378 23.1313 10.6023C23.1313 8.86679 21.8949 7.67935 20.1251 7.67935H16.697ZM18.1151 8.84396H19.7501C20.9807 8.84396 21.6839 9.48335 21.6839 10.608C21.6839 11.7326 20.9807 12.3777 19.7442 12.3777H18.1151V8.84396ZM25.7215 16.648C26.6122 16.648 27.4385 16.2084 27.8135 15.5119H27.8428V16.5794H29.1555V12.1494C29.1555 10.8649 28.1007 10.0371 26.4774 10.0371C24.9714 10.0371 23.858 10.8763 23.817 12.0295H25.0945C25.1999 11.4814 25.7215 11.1218 26.4364 11.1218C27.3037 11.1218 27.7901 11.5157 27.7901 12.2407V12.7317L26.0203 12.8344C24.3737 12.9315 23.4829 13.588 23.4829 14.7298C23.4829 15.883 24.403 16.648 25.7215 16.648ZM26.1024 15.5918C25.3464 15.5918 24.8659 15.2379 24.8659 14.6955C24.8659 14.1361 25.3289 13.8107 26.2137 13.7593L27.7901 13.6622V14.1646C27.7901 14.9981 27.0634 15.5918 26.1024 15.5918ZM30.9076 19C32.2906 19 32.9411 18.4862 33.5095 16.9277L36 10.1227H34.5584L32.8883 15.3806H32.859L31.1889 10.1227H29.7063L32.1089 16.6023L31.98 16.9962C31.7632 17.6641 31.4116 17.921 30.7846 17.921C30.6732 17.921 30.4564 17.9096 30.3685 17.8982V18.9657C30.4505 18.9886 30.8021 19 30.9076 19Z" fill="black"/>
</svg>
