<svg width="42" height="27" viewBox="0 0 42 27" fill="none" xmlns="http://www.w3.org/2000/svg">
<g id="Gpay">
<rect id="Rectangle 53" x="0.5" y="0.5" width="41" height="26" rx="3.5" fill="white" stroke="#9B9B9B"/>
<g id="Group">
<path id="Vector" d="M20.5977 13.3944V17.2294H19.3608V7.74512H22.5777C23.3608 7.74512 24.1027 8.03322 24.6808 8.56947C25.2583 9.06383 25.547 9.80633 25.547 10.5901C25.547 11.3738 25.2589 12.0744 24.6808 12.6107C24.1033 13.1469 23.4027 13.435 22.5777 13.435L20.5977 13.3944ZM20.5977 8.89947V12.1988H22.6602C23.1139 12.1988 23.5677 12.0332 23.8564 11.7045C24.5164 11.0864 24.5164 10.0551 23.897 9.43637L23.8564 9.39447C23.5264 9.06447 23.1139 8.85822 22.6602 8.90012H20.5977V8.89947Z" fill="#9B9B9B"/>
<path id="Vector_2" d="M28.3918 10.5498C29.2993 10.5498 29.9999 10.7967 30.5362 11.2923C31.0724 11.7867 31.3193 12.4467 31.3193 13.2717V17.231H30.1649V16.3235H30.1243C29.63 17.066 28.9281 17.4373 28.1037 17.4373C27.4031 17.4373 26.7837 17.231 26.2894 16.8192C25.8356 16.4067 25.5469 15.8292 25.5469 15.2111C25.5469 14.5511 25.7944 14.0161 26.2894 13.6029C26.7837 13.1904 27.4843 13.0254 28.31 13.0254C29.0525 13.0254 29.63 13.1492 30.0831 13.4379V13.1498C30.0831 12.7373 29.9187 12.3255 29.5887 12.0773C29.2587 11.7892 28.8462 11.6236 28.3925 11.6236C27.6919 11.6236 27.1556 11.9117 26.7844 12.4898L25.7119 11.8298C26.3712 10.9617 27.2375 10.5498 28.3918 10.5498ZM26.825 15.2504C26.825 15.5804 26.9893 15.8685 27.2375 16.0335C27.5256 16.2397 27.8556 16.3635 28.1856 16.3635C28.6799 16.3635 29.1756 16.1572 29.5462 15.7866C29.9587 15.4147 30.1643 14.9623 30.1643 14.4666C29.7937 14.1785 29.2568 14.0129 28.5562 14.0129C28.0618 14.0129 27.6487 14.1366 27.3193 14.3835C26.9893 14.5904 26.825 14.8791 26.825 15.2504Z" fill="#9B9B9B"/>
<path id="Vector_3" d="M38.0002 10.7559L33.9184 20.1157H32.6802L34.2065 16.8583L31.5259 10.7965H32.8459L34.7833 15.4558H34.8246L36.7214 10.7965H38.0002V10.7559Z" fill="#9B9B9B"/>
<path id="Vector_4" d="M15.6914 12.5698C15.6914 12.1979 15.6495 11.8273 15.6089 11.4561H10.4546V13.5592H13.3821C13.2583 14.2192 12.8877 14.8373 12.3096 15.2085V16.5691H14.0827C15.1133 15.621 15.6914 14.2185 15.6914 12.5698Z" fill="#9B9B9B"/>
<path id="Vector_5" d="M10.4535 17.889C11.9378 17.889 13.1747 17.3947 14.0828 16.569L12.3097 15.2084C11.8154 15.5384 11.196 15.7447 10.4547 15.7447C9.05224 15.7447 7.81539 14.7966 7.40353 13.4766H5.58789V14.8791C6.536 16.7347 8.39225 17.889 10.4535 17.889Z" fill="#C8C8C8"/>
<path id="Vector_6" d="M7.40217 13.4773C7.15467 12.8173 7.15467 12.0748 7.40217 11.3742V9.97168H5.58781C4.80406 11.4979 4.80406 13.3123 5.58781 14.8791L7.40217 13.4773Z" fill="#9B9B9B"/>
<path id="Vector_7" d="M10.4532 9.14715C11.237 9.14715 11.9795 9.43526 12.5563 9.97151L14.1238 8.40465C13.1338 7.4978 11.8145 6.96155 10.4945 7.00215C8.43197 7.00215 6.53641 8.15651 5.62891 10.0128L7.44326 11.414C7.81451 10.0959 9.05137 9.14715 10.4532 9.14715Z" fill="#C8C8C8"/>
</g>
</g>
</svg>
