<svg width="24" height="24" viewBox="0 0 24 24" fill="none" xmlns="http://www.w3.org/2000/svg">
<path d="M9.95301 7.91311L10.5968 10.2419C11.203 12.4356 11.5055 13.5331 12.3968 14.0319C13.288 14.5319 14.4193 14.2369 16.6818 13.6494L19.0818 13.0244C21.3443 12.4369 22.4755 12.1431 22.9905 11.2794C23.5055 10.4144 23.203 9.31686 22.5955 7.12311L21.953 4.79561C21.3468 2.60061 21.043 1.50311 20.153 1.00436C19.2605 0.504358 18.1293 0.799358 15.8668 1.38811L13.4668 2.01061C11.2043 2.59811 10.073 2.89311 9.55926 3.75811C9.04426 4.62186 9.34676 5.71936 9.95301 7.91311Z" fill="white"/>
<path d="M0.846485 3.5597C0.879418 3.44098 0.935429 3.32992 1.01131 3.23286C1.0872 3.1358 1.18147 3.05465 1.28874 2.99405C1.39601 2.93345 1.51417 2.89459 1.63647 2.87969C1.75877 2.86478 1.8828 2.87413 2.00148 2.9072L4.13023 3.4972C4.69441 3.65042 5.20926 3.9472 5.62461 4.35861C6.03996 4.77001 6.34164 5.28201 6.50024 5.8447L9.18898 15.5772L9.38649 16.2597C10.1777 16.5559 10.8577 17.1097 11.289 17.8447L11.6765 17.7247L22.764 14.8434C22.8832 14.8124 23.0073 14.8052 23.1293 14.8221C23.2512 14.8391 23.3687 14.8799 23.4749 14.9422C23.5811 15.0045 23.674 15.0872 23.7482 15.1854C23.8225 15.2836 23.8767 15.3955 23.9077 15.5147C23.9388 15.6339 23.946 15.758 23.9291 15.88C23.9121 16.0019 23.8713 16.1194 23.809 16.2256C23.7467 16.3318 23.664 16.4247 23.5658 16.499C23.4676 16.5732 23.3557 16.6274 23.2365 16.6584L12.189 19.5284L11.779 19.6559C11.7702 21.2435 10.674 22.6947 9.01648 23.1259C7.02773 23.6434 4.98398 22.4984 4.45148 20.5709C3.91898 18.6422 5.09898 16.6597 7.08648 16.1434C7.18442 16.1182 7.28323 16.0965 7.38273 16.0784L4.69273 6.34345C4.62032 6.09334 4.48441 5.86623 4.29823 5.68421C4.11204 5.50218 3.88192 5.37144 3.63024 5.3047L1.50023 4.71345C1.38154 4.68064 1.27047 4.62477 1.17337 4.54903C1.07628 4.47328 0.995052 4.37915 0.934342 4.27201C0.873632 4.16487 0.834625 4.04681 0.819551 3.92459C0.804476 3.80237 0.813628 3.67838 0.846485 3.5597Z" fill="white"/>
</svg>
