<svg width="48" height="48" viewBox="0 0 48 48" fill="none" xmlns="http://www.w3.org/2000/svg">
<path d="M21.972 43.94C19.792 43.94 17.992 42.18 17.932 40.02L17.892 38.36L14.592 36.46C14.612 36.48 14.492 36.48 14.432 36.48L13.012 37.24C11.112 38.26 8.67199 37.58 7.59199 35.72L5.55199 32.22C4.45199 30.34 5.09199 27.88 6.95199 26.76L8.39199 25.88V22.1L6.93199 21.2C5.05199 20.06 4.43199 17.6 5.53199 15.72L7.57199 12.22C8.65199 10.36 11.092 9.68 12.992 10.7L14.472 11.5C14.472 11.48 14.592 11.48 14.632 11.48L17.852 9.64L17.932 7.94C17.972 5.76 19.792 4 21.972 4H26.052C28.232 4 30.032 5.76 30.092 7.92L30.132 9.58L33.432 11.48C33.412 11.46 33.532 11.46 33.592 11.46L35.012 10.7C36.912 9.68 39.352 10.36 40.432 12.22L42.472 15.72C43.572 17.6 42.932 20.06 41.072 21.18L39.632 22.06L39.612 25.84L41.072 26.76C42.932 27.9 43.572 30.34 42.472 32.22L40.432 35.72C39.332 37.58 36.912 38.26 34.992 37.24L33.512 36.44C33.532 36.46 33.412 36.46 33.352 36.48L30.152 38.32L30.072 40.02C30.012 42.18 28.192 43.94 26.032 43.94H21.972ZM14.532 32.46C15.252 32.46 15.972 32.64 16.572 32.98L19.852 34.86C21.012 35.52 21.852 36.92 21.892 38.26L21.932 39.92L26.072 39.94L26.172 38.24C26.212 36.9 27.052 35.5 28.212 34.84L31.472 32.98C32.632 32.32 34.272 32.3 35.432 32.94L36.912 33.74L39.032 30.22L37.572 29.32C36.412 28.62 35.612 27.2 35.612 25.86V22.12C35.612 20.78 36.412 19.36 37.572 18.66L39.012 17.78L36.992 14.24L35.432 15.02C34.252 15.66 32.632 15.64 31.472 14.96L28.192 13.1C27.032 12.44 26.192 11.04 26.152 9.7L26.112 8.02L21.972 8L21.872 9.7C21.832 11.04 20.992 12.44 19.832 13.1L16.552 14.98C15.392 15.64 13.772 15.66 12.592 15.02L11.112 14.22L8.99199 17.74L10.452 18.64C11.592 19.34 12.392 20.76 12.392 22.1V25.84C12.392 27.18 11.592 28.6 10.432 29.3L8.99199 30.18L11.112 33.72L12.592 32.92C13.172 32.6 13.852 32.46 14.532 32.46Z" fill="url(#paint0_linear_66_13947)"/>
<path d="M24.012 31.98C19.592 31.98 16.012 28.4 16.012 23.98C16.012 19.56 19.592 15.98 24.012 15.98C28.432 15.98 32.012 19.56 32.012 23.98C32.012 28.4 28.432 31.98 24.012 31.98ZM24.012 19.98C21.812 19.98 20.012 21.78 20.012 23.98C20.012 26.18 21.812 27.98 24.012 27.98C26.212 27.98 28.012 26.18 28.012 23.98C28.012 21.78 26.212 19.98 24.012 19.98Z" fill="url(#paint1_linear_66_13947)"/>
<defs>
<linearGradient id="paint0_linear_66_13947" x1="4.98828" y1="5.33786" x2="41.7314" y2="43.9026" gradientUnits="userSpaceOnUse">
<stop stop-color="#274786"/>
<stop offset="0.489583" stop-color="#8B17AA"/>
<stop offset="1" stop-color="#A5347B"/>
</linearGradient>
<linearGradient id="paint1_linear_66_13947" x1="4.98828" y1="5.33786" x2="41.7314" y2="43.9026" gradientUnits="userSpaceOnUse">
<stop stop-color="#274786"/>
<stop offset="0.489583" stop-color="#8B17AA"/>
<stop offset="1" stop-color="#A5347B"/>
</linearGradient>
</defs>
</svg>
