<svg width="48" height="48" viewBox="0 0 48 48" fill="none" xmlns="http://www.w3.org/2000/svg">
<path fill-rule="evenodd" clip-rule="evenodd" d="M24 8C15.1634 8 8 15.1634 8 24C8 32.8366 15.1634 40 24 40H37.8811L36.94 35.2127C36.8349 34.678 36.9139 34.1222 37.1686 33.6355C37.4563 33.0858 38.4218 31.2024 38.7999 30.1008C39.2831 28.6928 40 26.0506 40 24C40 15.1634 32.8366 8 24 8ZM4 24C4 12.9543 12.9543 4 24 4C35.0457 4 44 12.9543 44 24C44 26.7235 43.1082 29.8697 42.5833 31.3992C42.1917 32.5403 41.4087 34.131 40.9722 34.9874L42.1811 41.1371C42.4727 42.62 41.3375 44 39.8262 44H24C12.9543 44 4 35.0457 4 24Z" fill="url(#paint0_linear_66_13942)"/>
<path d="M17.9969 23.9985C17.9969 25.1022 17.1022 25.9969 15.9985 25.9969C14.8947 25.9969 14 25.1022 14 23.9985C14 22.8947 14.8947 22 15.9985 22C17.1022 22 17.9969 22.8947 17.9969 23.9985Z" fill="url(#paint1_linear_66_13942)"/>
<path d="M25.9969 23.9985C25.9969 25.1022 25.1022 25.9969 23.9985 25.9969C22.8947 25.9969 22 25.1022 22 23.9985C22 22.8947 22.8947 22 23.9985 22C25.1022 22 25.9969 22.8947 25.9969 23.9985Z" fill="url(#paint2_linear_66_13942)"/>
<path d="M33.9969 23.9985C33.9969 25.1022 33.1022 25.9969 31.9985 25.9969C30.8947 25.9969 30 25.1022 30 23.9985C30 22.8947 30.8947 22 31.9985 22C33.1022 22 33.9969 22.8947 33.9969 23.9985Z" fill="url(#paint3_linear_66_13942)"/>
<defs>
<linearGradient id="paint0_linear_66_13942" x1="4" y1="5.33987" x2="40.6667" y2="45.7647" gradientUnits="userSpaceOnUse">
<stop stop-color="#274786"/>
<stop offset="0.489583" stop-color="#8B17AA"/>
<stop offset="1" stop-color="#A5347B"/>
</linearGradient>
<linearGradient id="paint1_linear_66_13942" x1="4" y1="5.33987" x2="40.6667" y2="45.7647" gradientUnits="userSpaceOnUse">
<stop stop-color="#274786"/>
<stop offset="0.489583" stop-color="#8B17AA"/>
<stop offset="1" stop-color="#A5347B"/>
</linearGradient>
<linearGradient id="paint2_linear_66_13942" x1="4" y1="5.33987" x2="40.6667" y2="45.7647" gradientUnits="userSpaceOnUse">
<stop stop-color="#274786"/>
<stop offset="0.489583" stop-color="#8B17AA"/>
<stop offset="1" stop-color="#A5347B"/>
</linearGradient>
<linearGradient id="paint3_linear_66_13942" x1="4" y1="5.33987" x2="40.6667" y2="45.7647" gradientUnits="userSpaceOnUse">
<stop stop-color="#274786"/>
<stop offset="0.489583" stop-color="#8B17AA"/>
<stop offset="1" stop-color="#A5347B"/>
</linearGradient>
</defs>
</svg>
