<svg width="48" height="48" viewBox="0 0 48 48" fill="none" xmlns="http://www.w3.org/2000/svg">
<g id="wallet-withdraw">
<path id="Vector" fill-rule="evenodd" clip-rule="evenodd" d="M34 9.54952C34 8.1844 32.6626 7.22047 31.3675 7.65215L18.3246 11.9998H34V9.54952ZM38 11.9998V9.54952C38 5.45418 33.9878 2.56236 30.1026 3.85742L8.10263 11.1908C5.65258 12.0074 4 14.3003 4 16.8829V33.9998C4 37.3135 6.68629 39.9998 10 39.9998H11C12.1046 39.9998 13 39.1044 13 37.9998C13 36.8952 12.1046 35.9998 11 35.9998H10C8.89543 35.9998 8 35.1044 8 33.9998V17.9998C8 16.8953 8.89543 15.9998 10 15.9998H38C39.1046 15.9998 40 16.8952 40 17.9998V33.9998C40 35.1044 39.1046 35.9998 38 35.9998H37C35.8954 35.9998 35 36.8952 35 37.9998C35 39.1044 35.8954 39.9998 37 39.9998H38C41.3137 39.9998 44 37.3135 44 33.9998V17.9998C44 14.6861 41.3137 11.9998 38 11.9998ZM24 21.9998C25.1046 21.9998 26 22.8953 26 23.9998V37.1972L28.5912 34.6257C29.3752 33.8476 30.6415 33.8524 31.4196 34.6364C32.1977 35.4204 32.1928 36.6867 31.4088 37.4648L25.4088 43.4194C24.629 44.1933 23.371 44.1933 22.5912 43.4194L16.5912 37.4648C15.8072 36.6867 15.8023 35.4204 16.5804 34.6364C17.3585 33.8524 18.6248 33.8476 19.4088 34.6257L22 37.1972V23.9998C22 22.8953 22.8954 21.9998 24 21.9998Z" fill="url(#paint0_linear_66_13951)"/>
</g>
<defs>
<linearGradient id="paint0_linear_66_13951" x1="4" y1="4.90003" x2="41.1221" y2="45.3668" gradientUnits="userSpaceOnUse">
<stop stop-color="#274786"/>
<stop offset="0.489583" stop-color="#8B17AA"/>
<stop offset="1" stop-color="#A5347B"/>
</linearGradient>
</defs>
</svg>
