<svg width="48" height="48" viewBox="0 0 48 48" fill="none" xmlns="http://www.w3.org/2000/svg">
<path fill-rule="evenodd" clip-rule="evenodd" d="M24 5.39844C25.1046 5.39844 26 6.29387 26 7.39844V11.9998C26 13.1044 25.1046 13.9998 24 13.9998C22.8954 13.9998 22 13.1044 22 11.9998V7.39844C22 6.29387 22.8954 5.39844 24 5.39844Z" fill="url(#paint0_linear_66_13959)"/>
<path fill-rule="evenodd" clip-rule="evenodd" d="M24 33.9998C25.1046 33.9998 26 34.8953 26 35.9998V40.5998C26 41.7044 25.1046 42.5998 24 42.5998C22.8954 42.5998 22 41.7044 22 40.5998V35.9998C22 34.8953 22.8954 33.9998 24 33.9998Z" fill="url(#paint1_linear_66_13959)"/>
<path fill-rule="evenodd" clip-rule="evenodd" d="M15.3825 13.4485C16.865 11.4101 19.5649 9.99985 23.9998 9.99985C28.5824 9.99985 31.2476 11.7661 32.6638 13.8905C33.333 14.8943 33.6627 15.8891 33.827 16.6285C33.9098 17.0008 33.9527 17.3177 33.975 17.5524C33.9862 17.6702 33.9924 17.7683 33.9957 17.8437C33.9974 17.8814 33.9984 17.9135 33.999 17.9396L33.9995 17.9743L33.9996 17.9883L33.9997 17.9943L33.9997 17.9972L33.9997 17.9998C33.9997 19.1044 33.1042 19.9998 31.9997 19.9998C30.9033 19.9998 30.0129 19.1176 29.9998 18.0243C29.9997 18.0161 29.9997 18.008 29.9997 17.9998L29.9997 18.0024L29.9997 18.0048L29.9997 18.0093L29.9998 18.0243L29.9997 18.0213C29.9991 18.0087 29.9975 17.978 29.993 17.9316C29.9842 17.8383 29.9646 17.6864 29.9223 17.4962C29.8366 17.1106 29.6663 16.6054 29.3356 16.1092C28.7519 15.2336 27.4173 13.9998 24 13.9998C20.4351 13.9998 19.1349 15.0896 18.6175 15.8012C18.0187 16.6245 18 17.5548 18 17.9998C18 18.2387 18.0215 18.8757 18.6337 19.5916C19.2669 20.3322 20.7677 21.4306 24.3303 22.0273C28.4646 22.7199 30.9637 24.1215 32.4063 25.8086C33.8699 27.5202 34 29.2386 34 29.9998C34 30.0068 34 30.0141 34 30.0215C34.0003 30.6069 34.0011 32.6487 32.6175 34.5512C31.135 36.5896 28.4351 37.9998 24.0002 37.9998C19.4176 37.9998 16.7525 36.2336 15.3362 34.1092C14.667 33.1054 14.3373 32.1106 14.173 31.3712C14.0903 30.9989 14.0474 30.682 14.025 30.4473C14.0138 30.3295 14.0076 30.2314 14.0043 30.156C14.0026 30.1183 14.0016 30.0862 14.0011 30.0601L14.0005 30.0254L14.0004 30.0114L14.0004 30.0054L14.0004 30.0025L15.9219 30.0054L18.0004 29.9998C18.0004 29.9917 18.0003 29.9836 18.0002 29.9754L18.0003 29.9784C18.0009 29.991 18.0026 30.0217 18.007 30.068C18.0159 30.1614 18.0355 30.3133 18.0777 30.5035C18.1634 30.8891 18.3337 31.3943 18.6644 31.8905C19.2482 32.7661 20.5827 33.9998 24 33.9998C27.5649 33.9998 28.8651 32.9101 29.3825 32.1985C29.9813 31.3752 30 30.4449 30 29.9998C30 29.7611 29.9785 29.1242 29.3662 28.4081C28.7329 27.6675 27.232 26.5691 23.6694 25.9724C19.5351 25.2798 17.036 23.8782 15.5935 22.1911C14.13 20.4794 14 18.761 14 17.9998C14 17.9929 14 17.9856 14 17.9782C13.9998 17.3928 13.9989 15.351 15.3825 13.4485ZM18.0002 29.9754C17.9871 28.8821 17.0968 27.9998 16.0004 27.9998C14.8958 27.9998 14.0004 28.8953 14.0004 29.9998L15.9219 30.0054L18.0004 29.9973L18.0004 29.9949L18.0003 29.9904L18.0002 29.9754Z" fill="url(#paint2_linear_66_13959)"/>
<defs>
<linearGradient id="paint0_linear_66_13959" x1="14" y1="6.64456" x2="44.0578" y2="24.4603" gradientUnits="userSpaceOnUse">
<stop stop-color="#274786"/>
<stop offset="0.489583" stop-color="#8B17AA"/>
<stop offset="1" stop-color="#A5347B"/>
</linearGradient>
<linearGradient id="paint1_linear_66_13959" x1="14" y1="6.64456" x2="44.0578" y2="24.4603" gradientUnits="userSpaceOnUse">
<stop stop-color="#274786"/>
<stop offset="0.489583" stop-color="#8B17AA"/>
<stop offset="1" stop-color="#A5347B"/>
</linearGradient>
<linearGradient id="paint2_linear_66_13959" x1="14" y1="6.64456" x2="44.0578" y2="24.4603" gradientUnits="userSpaceOnUse">
<stop stop-color="#274786"/>
<stop offset="0.489583" stop-color="#8B17AA"/>
<stop offset="1" stop-color="#A5347B"/>
</linearGradient>
</defs>
</svg>
