<svg width="24" height="24" viewBox="0 0 24 24" fill="none" xmlns="http://www.w3.org/2000/svg">
<path fill-rule="evenodd" clip-rule="evenodd" d="M11.2956 3.29021C11.6855 2.90326 12.3145 2.90326 12.7044 3.29021L15.7044 6.2675C16.0964 6.65654 16.0988 7.2897 15.7098 7.68171C15.3208 8.07371 14.6876 8.07612 14.2956 7.68708L13 6.4013V17.5987L14.2956 16.3129C14.6876 15.9239 15.3208 15.9263 15.7098 16.3183C16.0988 16.7103 16.0964 17.3435 15.7044 17.7325L12.7044 20.7098C12.3145 21.0967 11.6855 21.0967 11.2956 20.7098L8.29558 17.7325C7.90358 17.3435 7.90117 16.7103 8.29021 16.3183C8.67925 15.9263 9.31241 15.9239 9.70442 16.3129L11 17.5987V6.4013L9.70442 7.68708C9.31241 8.07612 8.67925 8.07371 8.29021 7.68171C7.90117 7.2897 7.90358 6.65654 8.29558 6.2675L11.2956 3.29021Z" fill="white"/>
</svg>
