<svg width="24" height="24" viewBox="0 0 24 24" fill="none" xmlns="http://www.w3.org/2000/svg">
<path fill-rule="evenodd" clip-rule="evenodd" d="M12 4C9.79086 4 8 5.79086 8 8V11H6V8C6 4.68629 8.68629 2 12 2C15.3137 2 18 4.68629 18 8V11H16V8C16 5.79086 14.2091 4 12 4Z" fill="white"/>
<path fill-rule="evenodd" clip-rule="evenodd" d="M3 12C3 10.8954 3.89543 10 5 10H19C20.1046 10 21 10.8954 21 12V20C21 21.1046 20.1046 22 19 22H5C3.89543 22 3 21.1046 3 20V12ZM19 12H5V20H19V12Z" fill="white"/>
<path fill-rule="evenodd" clip-rule="evenodd" d="M12 18C11.4477 18 11 17.5523 11 17V15C11 14.4477 11.4477 14 12 14C12.5523 14 13 14.4477 13 15V17C13 17.5523 12.5523 18 12 18Z" fill="white"/>
</svg>
