<svg width="237" height="512" viewBox="0 0 237 512" fill="none" xmlns="http://www.w3.org/2000/svg">
<path fill-rule="evenodd" clip-rule="evenodd" d="M65.9944 0.167969C67.6894 0.167969 68.5591 1.24025 68.6038 3.38481L68.6056 3.56104V8.07716C68.6056 15.0621 74.2267 20.7379 81.2042 20.8518L81.4182 20.8536H154.162C160.954 20.8536 166.552 15.5722 166.952 8.83607L166.963 8.62059C167.046 6.66272 167.207 4.70632 167.446 2.75141C167.601 1.47962 168.1 0.69278 169.801 0.213406L169.969 0.167969H204.664C222.186 0.167969 236.39 14.3322 236.39 31.8047V477.762C236.39 496.242 221.366 511.224 202.833 511.224H33.8284C15.2954 511.224 0.271484 496.242 0.271484 477.762V31.8047C0.271484 14.3322 14.4759 0.167969 31.998 0.167969L65.9944 0.167969Z" fill="black"/>
<mask id="mask0_1704_34955" style="mask-type:alpha" maskUnits="userSpaceOnUse" x="0" y="0" width="237" height="512">
<path fill-rule="evenodd" clip-rule="evenodd" d="M65.9944 0.167969C67.6894 0.167969 68.5591 1.24025 68.6038 3.38481L68.6056 3.56104V8.07716C68.6056 15.0621 74.2267 20.7379 81.2042 20.8518L81.4182 20.8536H154.162C160.954 20.8536 166.552 15.5722 166.952 8.83607L166.963 8.62059C167.046 6.66272 167.207 4.70632 167.446 2.75141C167.601 1.47962 168.1 0.69278 169.801 0.213406L169.969 0.167969H204.664C222.186 0.167969 236.39 14.3322 236.39 31.8047V477.762C236.39 496.242 221.366 511.224 202.833 511.224H33.8284C15.2954 511.224 0.271484 496.242 0.271484 477.762V31.8047C0.271484 14.3322 14.4759 0.167969 31.998 0.167969L65.9944 0.167969Z" fill="white"/>
</mask>
<g mask="url(#mask0_1704_34955)">
</g>
</svg>
