<svg  width="40" height="64" viewBox="0 0 40 64" fill="none" xmlns="http://www.w3.org/2000/svg">
<path d="M27.0157 11.6823C26.4129 10.248 25.5513 8.9636 24.4521 7.85756C23.3529 6.75153 22.0764 5.88454 20.6509 5.278C19.1759 4.65006 17.6086 4.33252 15.9953 4.33252C14.3819 4.33252 12.8146 4.65006 11.3396 5.278C9.91415 5.88454 8.63765 6.75153 7.53844 7.85756C6.43923 8.9636 5.57759 10.248 4.9748 11.6823C4.35074 13.1665 4.03516 14.7435 4.03516 16.3669V27.9303C4.03516 29.5537 4.35074 31.1307 4.9748 32.6149C5.57759 34.0492 6.43923 35.3337 7.53844 36.4397C8.63765 37.5457 9.91415 38.4127 11.3396 39.0192C12.2686 39.4153 13.2295 39.6864 14.2188 39.8327V38.4555C12.0594 38.0916 10.0737 37.0676 8.49227 35.4764C6.48887 33.4605 5.38612 30.7811 5.38612 27.9303V16.3669C5.38612 13.5162 6.48887 10.8367 8.49227 8.82089C10.5028 6.80505 13.1657 5.69544 15.9988 5.69544C18.8319 5.69544 21.4948 6.80505 23.4982 8.82089C25.5016 10.8367 26.6044 13.5162 26.6044 16.3669V27.9303C26.6044 30.7811 25.5016 33.4605 23.4982 35.4764C22.4983 36.4825 21.3282 37.2639 20.0588 37.7955C19.3283 38.0987 18.5624 38.3235 17.7717 38.4555V39.8327C18.761 39.6864 19.7255 39.4117 20.6509 39.0192C22.0764 38.4127 23.3529 37.5457 24.4521 36.4397C25.5513 35.3337 26.4129 34.0492 27.0157 32.6149C27.6398 31.1307 27.9553 29.5537 27.9553 27.9303V16.3669C27.9553 14.7435 27.6398 13.1665 27.0157 11.6823Z" fill="white"/>
<path d="M19.6322 14.9647C19.6322 12.9488 18.0012 11.3076 15.9978 11.3076C13.9944 11.3076 12.3633 12.9488 12.3633 14.9647C12.3633 16.9805 13.9944 18.6217 15.9978 18.6217C18.0012 18.6217 19.6322 16.9805 19.6322 14.9647ZM13.7142 14.9647C13.7142 13.6981 14.739 12.667 15.9978 12.667C17.2565 12.667 18.2813 13.6981 18.2813 14.9647C18.2813 16.2313 17.2565 17.2624 15.9978 17.2624C14.739 17.2588 13.7142 16.2313 13.7142 14.9647Z" fill="white"/>
<path  d="M21.1985 45.7442C21.0141 45.7442 20.8333 45.8191 20.6985 45.9654L16.674 50.3753V39.9429V38.58V29.8494C16.674 29.4748 16.3726 29.168 15.9967 29.168C15.6244 29.168 15.3195 29.4712 15.3195 29.8494V38.58V39.9429V50.3753L11.295 45.9654C11.1602 45.8191 10.9794 45.7442 10.7985 45.7442C10.6354 45.7442 10.4723 45.8049 10.3411 45.9226C10.0646 46.1759 10.0468 46.6076 10.2986 46.8824L15.5039 52.5838C15.5039 52.5874 15.5074 52.5874 15.511 52.5909C15.5181 52.6016 15.5287 52.6088 15.5358 52.6159C15.5393 52.6195 15.5429 52.6231 15.5464 52.6266C15.5571 52.6338 15.5641 52.6445 15.5748 52.6516C15.5783 52.6516 15.5783 52.6552 15.5819 52.6552C15.5925 52.6659 15.6067 52.673 15.6173 52.6801C15.6209 52.6837 15.6244 52.6837 15.628 52.6873C15.6386 52.6944 15.6492 52.7015 15.6599 52.7087C15.6634 52.7087 15.6634 52.7122 15.667 52.7122C15.6812 52.7194 15.6953 52.7265 15.706 52.7337C15.7095 52.7337 15.7131 52.7372 15.7131 52.7372C15.7237 52.7444 15.7379 52.7479 15.7485 52.7551C15.7485 52.7551 15.7521 52.7551 15.7521 52.7586C15.7521 52.7586 15.7521 52.7586 15.7556 52.7586C15.7733 52.7658 15.7911 52.7729 15.8088 52.7765C15.8124 52.7765 15.8159 52.78 15.8194 52.78C15.8372 52.7836 15.8549 52.7872 15.8726 52.7907C15.8762 52.7907 15.8797 52.7907 15.8833 52.7943C15.901 52.7979 15.9187 52.8014 15.9365 52.8014C15.94 52.8014 15.9436 52.8014 15.9436 52.8014C15.9613 52.8014 15.979 52.805 16.0003 52.805C16.018 52.805 16.0393 52.805 16.057 52.8014C16.0606 52.8014 16.0641 52.8014 16.0641 52.8014C16.0818 52.8014 16.0996 52.7979 16.1173 52.7943C16.1208 52.7943 16.1244 52.7943 16.1279 52.7907C16.1457 52.7872 16.1634 52.7836 16.1811 52.78C16.1847 52.78 16.1882 52.78 16.1918 52.7765C16.2095 52.7729 16.2272 52.7658 16.2449 52.7586C16.2449 52.7586 16.2449 52.7586 16.2485 52.7586C16.2485 52.7586 16.252 52.7586 16.2556 52.7551C16.2662 52.7515 16.2804 52.7444 16.291 52.7372C16.2946 52.7372 16.2981 52.7337 16.2981 52.7337C16.3123 52.7265 16.3265 52.7194 16.3371 52.7122C16.3407 52.7122 16.3407 52.7087 16.3442 52.7087C16.3549 52.7015 16.3655 52.6944 16.3761 52.6873C16.3797 52.6837 16.3832 52.6837 16.3868 52.6801C16.3974 52.673 16.4116 52.6623 16.4222 52.6552C16.4222 52.6552 16.4258 52.6516 16.4293 52.6516C16.44 52.6445 16.4471 52.6338 16.4577 52.6266C16.4612 52.6231 16.4648 52.6195 16.4683 52.6159C16.479 52.6088 16.4861 52.5981 16.4932 52.5909C16.4932 52.5874 16.4967 52.5874 16.5002 52.5838L21.6984 46.8859C21.9502 46.6076 21.9325 46.1795 21.6559 45.9262C21.5247 45.8049 21.3616 45.7442 21.1985 45.7442Z" fill="white"/>
</svg>
