<svg width="104" height="64" viewBox="0 0 104 64" fill="none" xmlns="http://www.w3.org/2000/svg">
<path d="M7.83388 47.9605C8.27387 41.6051 10.4591 26.4159 15.6803 16.5015C22.2067 4.10858 29.9065 -3.07785 32.0331 4.32857C34.1597 11.735 25.8 34.9076 18.2469 40.6274C10.6938 46.3472 2.40739 47.8871 2.33406 38.3541C2.26073 28.8211 7.83388 24.6412 12.5271 27.0612C17.2202 29.4811 23.4534 39.6741 24.7733 49.1338C26.0933 58.5935 29.6865 62.26 32.0331 62.5533C34.3797 62.8467 37.3129 61.4534 39.4395 57.9335" stroke="white" stroke-width="2.12528" stroke-linecap="round"/>
<path d="M24.8461 37.4756C24.7728 37.9157 24.8608 38.7517 25.7995 38.5757C26.973 38.3557 29.5399 35.2021 29.5399 33.2219C29.5399 31.2417 28.2198 30.435 26.3863 31.8284C24.5528 33.2219 23.6727 35.4221 23.8927 36.7422C24.1127 38.0624 25.8729 37.2556 26.3863 36.7422" stroke="white" stroke-width="2.12528" stroke-linecap="round"/>
<path d="M31.0065 33.3666C31.202 33.3422 31.6224 33.2053 31.7398 32.8533C31.8864 32.4133 33.6464 29.0401 34.233 30.36C34.8197 31.68 35.773 34.2466 36.213 33.1466C36.653 32.0467 39.8062 24.7136 40.6128 27.7201C41.4195 30.7267 41.6395 34.0999 42.2261 35.1266C42.8128 36.1532 43.5461 35.4199 44.9393 33.3666C46.3326 31.3133 48.0192 27.1335 47.4326 26.5468C46.846 25.9602 44.7927 26.9868 44.1327 29.1867C43.4727 31.3867 44.7927 33.1466 47.6526 29.1867C50.5125 25.2269 54.5457 19.8737 54.5457 16.8671C54.5457 13.8606 52.7124 15.2539 51.7591 18.8471C50.8058 22.4403 50.2925 34.6133 51.1725 36.8865C52.0524 39.1598 53.9591 41.873 58.2122 36.8865" stroke="white" stroke-width="2.12528" stroke-linecap="round"/>
<path d="M56.1588 28.3814C55.6944 29.4081 55.0441 31.476 56.1588 31.5347C57.5521 31.608 59.2387 29.2614 59.6787 28.3814C60.1186 27.5015 61.9519 22.9549 59.312 23.9082C56.6721 24.8615 56.4521 28.5281 56.8187 29.1147C57.1854 29.7014 60.7786 26.6215 65.1051 15.4752C64.2496 17.724 62.4359 22.8376 62.0252 25.3015C61.5119 28.3814 60.632 31.0213 61.7319 29.7014C62.8319 28.3814 64.1518 25.9615 65.1051 26.1815C66.4251 26.4015 65.9118 28.3814 66.5718 28.7481C67.0997 29.0414 67.8184 28.1859 68.1117 27.7215" stroke="white" stroke-width="2.12528" stroke-linecap="round"/>
<path d="M68.0376 21.414C67.622 22.074 66.9523 23.4819 67.5976 23.8339C68.4042 24.2739 70.4575 21.5606 70.3109 20.3873C70.1642 19.214 68.5509 18.6274 67.5976 20.1674C66.6443 21.7073 66.4244 23.3939 67.011 24.3472M70.7509 27.2805C70.4575 28.0627 69.9589 29.5684 70.3109 29.3337C70.7509 29.0404 72.4375 24.6406 73.3908 25.0806C74.3441 25.5205 74.1241 26.4738 74.0508 27.5738C73.9774 28.6738 74.3441 29.4804 75.0041 28.3804C75.664 27.2805 76.764 25.3739 77.3507 26.1072C77.9373 26.8405 77.7906 28.8938 78.9639 28.3804C80.1372 27.8671 83.4371 19.0674 83.8038 16.7208C84.1704 14.3742 83.8038 13.5676 83.0705 14.3742C82.3372 15.1809 81.0905 23.1006 81.6772 27.0605C82.2394 25.2516 83.5838 21.7953 84.4638 22.4406C85.1971 22.9539 84.1704 25.8872 84.6838 26.9138C85.1971 27.9404 86.297 26.6938 86.8837 25.0806C87.4703 23.4673 88.1303 23.6873 89.0836 25.3005C90.0369 26.9138 91.9435 26.7672 92.6768 25.7405C93.4101 24.7139 94.4368 22.3673 93.8501 22.074C93.2635 21.7806 90.6969 27.4271 92.6768 28.3804C94.6568 29.3337 99.2033 27.8671 100.963 24.6406C102.723 21.414 100.963 20.3873 99.2766 20.3873C97.59 20.3873 94.8768 22.0006 94.3634 23.1739" stroke="white" stroke-width="2.12528" stroke-linecap="round"/>
<path d="M57.6979 43.8543C57.209 44.0009 56.2019 44.9982 56.0846 47.8141C55.9379 51.334 55.058 57.7871 54.0313 56.9072C53.0047 56.0272 56.8179 44.8076 59.0912 41.4343C61.3644 38.0611 64.5177 34.9812 65.9109 40.0411C67.3042 45.1009 57.6979 57.2738 52.638 55.8805C48.7515 54.8539 55.7179 44.2943 58.1379 46.0542C60.5578 47.8141 61.6578 51.334 63.4911 53.094C65.3243 54.8539 68.9175 54.5606 73.9774 49.2074C77.6439 45.1009 78.5239 45.1742 79.4772 45.1742C79.5505 42.8765 79.8879 37.8998 80.6505 36.3745C79.0128 39.0144 75.5027 44.4702 74.564 45.1742C73.3907 46.0542 72.4374 46.0542 72.2174 45.1742M67.8176 53.094C70.873 51.0407 78.3919 46.7582 84.0237 46.0542C91.0635 45.1742 94.4367 45.1009 95.83 46.9342C97.2233 48.7674 96.49 49.6474 95.83 49.7941C95.17 49.9407 94.7171 49.5741 94.73 47.8141" stroke="white" stroke-width="2.12528" stroke-linecap="round"/>
<path d="M87.032 40.9222C86.6616 41.1828 86.0278 41.5251 85.4185 41.6301M85.4185 41.6301C84.9421 41.7123 84.4807 41.6493 84.1717 41.2889C83.2916 40.2621 86.0786 37.1818 87.8387 36.3017C89.5989 35.4217 92.2392 34.9816 93.1193 36.8151C93.9993 38.6486 90.7723 44.0758 87.032 43.8558C84.9785 43.6211 85.1007 42.2742 85.4185 41.6301Z" stroke="white" stroke-width="2.12528" stroke-linecap="round"/>
<path d="M96.4178 39.4542C96.76 39.5519 97.5179 39.9382 97.8112 40.7009" stroke="white" stroke-width="2.12528" stroke-linecap="round"/>
</svg>
