<svg width="199" height="48" viewBox="0 0 199 48" fill="none" xmlns="http://www.w3.org/2000/svg">
<rect x="0.372679" y="0.372679" width="198.255" height="47.2546" rx="7.62732" fill="#141619" stroke="#0094FF" stroke-width="0.745358"/>
<path d="M12.5678 17.9443V11.5855H14.5243C15.0833 11.5855 15.5827 11.7122 16.0223 11.9655C16.4649 12.2159 16.8099 12.574 17.0574 13.0398C17.3049 13.5028 17.4286 14.0297 17.4286 14.6208V14.9134C17.4286 15.5045 17.3063 16.03 17.0617 16.49C16.8201 16.95 16.478 17.3067 16.0354 17.56C15.5929 17.8133 15.0935 17.9414 14.5374 17.9443H12.5678ZM13.878 12.6468V16.8918H14.5112C15.0237 16.8918 15.4153 16.7244 15.686 16.3896C15.9568 16.0547 16.0951 15.5758 16.1009 14.9527V14.6164C16.1009 13.9701 15.967 13.4809 15.6991 13.149C15.4313 12.8142 15.0397 12.6468 14.5243 12.6468H13.878ZM22.5686 15.1885H20.053V16.8918H23.0053V17.9443H18.7428V11.5855H22.9966V12.6468H20.053V14.1622H22.5686V15.1885ZM25.8437 11.5855L27.4771 16.1974L29.1018 11.5855H30.8225V17.9443H29.5079V16.2061L29.639 13.2058L27.9226 17.9443H27.0229L25.3109 13.2101L25.442 16.2061V17.9443H24.1318V11.5855H25.8437ZM37.5478 14.909C37.5478 15.535 37.4372 16.0839 37.2159 16.5555C36.9947 17.0272 36.6773 17.3911 36.2639 17.6474C35.8533 17.9036 35.3817 18.0317 34.8488 18.0317C34.3218 18.0317 33.8516 17.905 33.4382 17.6517C33.0247 17.3984 32.7045 17.0374 32.4774 16.5686C32.2503 16.097 32.1353 15.5554 32.1324 14.944V14.6295C32.1324 14.0035 32.2445 13.4533 32.4686 12.9787C32.6957 12.5012 33.0146 12.1358 33.4251 11.8825C33.8385 11.6263 34.3102 11.4982 34.8401 11.4982C35.37 11.4982 35.8402 11.6263 36.2508 11.8825C36.6642 12.1358 36.983 12.5012 37.2072 12.9787C37.4343 13.4533 37.5478 14.0021 37.5478 14.6252V14.909ZM36.2202 14.6208C36.2202 13.954 36.1008 13.4474 35.8621 13.101C35.6233 12.7545 35.2827 12.5813 34.8401 12.5813C34.4005 12.5813 34.0613 12.753 33.8225 13.0966C33.5838 13.4372 33.4629 13.938 33.46 14.599V14.909C33.46 15.5583 33.5794 16.062 33.8181 16.4201C34.0569 16.7783 34.4005 16.9573 34.8488 16.9573C35.2885 16.9573 35.6262 16.7855 35.8621 16.442C36.0979 16.0955 36.2173 15.5918 36.2202 14.9309V14.6208ZM45.0328 16.6341H42.7355L42.2988 17.9443H40.9056L43.2727 11.5855H44.4868L46.867 17.9443H45.4739L45.0328 16.6341ZM43.0893 15.5729H44.679L43.8798 13.1927L43.0893 15.5729ZM52.7145 15.8262C52.6651 16.5104 52.4117 17.049 51.9546 17.4421C51.5004 17.8352 50.9006 18.0317 50.1553 18.0317C49.3401 18.0317 48.6981 17.758 48.2293 17.2106C47.7634 16.6603 47.5305 15.9062 47.5305 14.9483V14.5597C47.5305 13.9482 47.6383 13.4096 47.8537 12.9437C48.0692 12.4779 48.3763 12.1212 48.7752 11.8737C49.177 11.6233 49.6429 11.4982 50.1728 11.4982C50.9065 11.4982 51.4975 11.6947 51.9459 12.0877C52.3943 12.4808 52.6534 13.0325 52.7233 13.743H51.4131C51.3811 13.3324 51.266 13.0355 51.0681 12.852C50.873 12.6657 50.5746 12.5725 50.1728 12.5725C49.736 12.5725 49.4085 12.7297 49.1901 13.0442C48.9747 13.3557 48.864 13.8405 48.8582 14.4985V14.9789C48.8582 15.666 48.9616 16.1683 49.1683 16.4856C49.3779 16.803 49.7069 16.9617 50.1553 16.9617C50.56 16.9617 50.8613 16.87 51.0593 16.6865C51.2602 16.5002 51.3752 16.2134 51.4043 15.8262H52.7145ZM58.9245 15.8262C58.8751 16.5104 58.6217 17.049 58.1646 17.4421C57.7104 17.8352 57.1106 18.0317 56.3653 18.0317C55.5501 18.0317 54.9081 17.758 54.4393 17.2106C53.9734 16.6603 53.7405 15.9062 53.7405 14.9483V14.5597C53.7405 13.9482 53.8483 13.4096 54.0637 12.9437C54.2792 12.4779 54.5863 12.1212 54.9852 11.8737C55.387 11.6233 55.8529 11.4982 56.3828 11.4982C57.1165 11.4982 57.7075 11.6947 58.1559 12.0877C58.6043 12.4808 58.8634 13.0325 58.9333 13.743H57.6231C57.5911 13.3324 57.476 13.0355 57.2781 12.852C57.083 12.6657 56.7846 12.5725 56.3828 12.5725C55.946 12.5725 55.6185 12.7297 55.4001 13.0442C55.1847 13.3557 55.074 13.8405 55.0682 14.4985V14.9789C55.0682 15.666 55.1716 16.1683 55.3783 16.4856C55.5879 16.803 55.9169 16.9617 56.3653 16.9617C56.77 16.9617 57.0713 16.87 57.2693 16.6865C57.4702 16.5002 57.5852 16.2134 57.6143 15.8262H58.9245ZM65.366 14.909C65.366 15.535 65.2554 16.0839 65.0341 16.5555C64.8128 17.0272 64.4955 17.3911 64.082 17.6474C63.6715 17.9036 63.1998 18.0317 62.667 18.0317C62.14 18.0317 61.6698 17.905 61.2564 17.6517C60.8429 17.3984 60.5226 17.0374 60.2955 16.5686C60.0684 16.097 59.9534 15.5554 59.9505 14.944V14.6295C59.9505 14.0035 60.0626 13.4533 60.2868 12.9787C60.5139 12.5012 60.8327 12.1358 61.2432 11.8825C61.6567 11.6263 62.1284 11.4982 62.6583 11.4982C63.1882 11.4982 63.6584 11.6263 64.0689 11.8825C64.4824 12.1358 64.8012 12.5012 65.0254 12.9787C65.2525 13.4533 65.366 14.0021 65.366 14.6252V14.909ZM64.0383 14.6208C64.0383 13.954 63.919 13.4474 63.6802 13.101C63.4415 12.7545 63.1008 12.5813 62.6583 12.5813C62.2186 12.5813 61.8794 12.753 61.6407 13.0966C61.4019 13.4372 61.2811 13.938 61.2782 14.599V14.909C61.2782 15.5583 61.3976 16.062 61.6363 16.4201C61.8751 16.7783 62.2186 16.9573 62.667 16.9573C63.1066 16.9573 63.4444 16.7855 63.6802 16.442C63.9161 16.0955 64.0354 15.5918 64.0383 14.9309V14.6208ZM71.4887 11.5855V15.7738C71.4887 16.4696 71.2703 17.0199 70.8336 17.4246C70.3997 17.8293 69.8058 18.0317 69.0517 18.0317C68.3092 18.0317 67.7197 17.8352 67.2829 17.4421C66.8462 17.049 66.6235 16.5089 66.6147 15.8218V11.5855H67.9249V15.7825C67.9249 16.1989 68.0239 16.5031 68.2219 16.6953C68.4228 16.8845 68.6994 16.9792 69.0517 16.9792C69.7883 16.9792 70.1625 16.5919 70.1741 15.8174V11.5855H71.4887ZM78.0917 17.9443H76.7815L74.231 13.7604V17.9443H72.9208V11.5855H74.231L76.7859 15.7781V11.5855H78.0917V17.9443ZM84.2493 12.6468H82.3015V17.9443H80.9913V12.6468H79.0697V11.5855H84.2493V12.6468Z" fill="#F9B42E"/>
<path d="M12.9317 33.9443V30.2059H11.8835V29.1403H12.9317V25.4659H15.5405C16.2858 25.4659 16.9516 25.6348 17.5378 25.9725C18.1279 26.3064 18.5879 26.7839 18.9179 27.405C19.2478 28.0222 19.4128 28.7249 19.4128 29.5129V29.9031C19.4128 30.6912 19.2498 31.3919 18.9237 32.0052C18.6015 32.6186 18.1453 33.0942 17.5552 33.4319C16.9652 33.7696 16.2994 33.9405 15.5579 33.9443H12.9317ZM15.9539 30.2059H14.6786V32.541H15.523C16.214 32.541 16.74 32.3139 17.101 31.8597C17.4621 31.4016 17.6426 30.7494 17.6426 29.9031V29.5071C17.6426 28.6453 17.464 27.9931 17.1069 27.5506C16.7497 27.1041 16.2276 26.8809 15.5405 26.8809H14.6786V29.1403H15.9539V30.2059ZM24.5954 33.9443H22.9125V27.4574L20.9035 28.0805V26.712L24.4149 25.4542H24.5954V33.9443ZM33.0622 30.4388C33.0622 31.6112 32.8196 32.508 32.3343 33.1291C31.849 33.7502 31.1386 34.0608 30.203 34.0608C29.2791 34.0608 28.5726 33.7561 28.0834 33.1466C27.5943 32.5371 27.3439 31.6636 27.3322 30.5262V28.9656C27.3322 27.7815 27.5768 26.8828 28.066 26.2695C28.559 25.6561 29.2675 25.3494 30.1914 25.3494C31.1153 25.3494 31.8219 25.6542 32.311 26.2637C32.8001 26.8693 33.0505 27.7408 33.0622 28.8782V30.4388ZM31.3793 28.7268C31.3793 28.0242 31.2823 27.5137 31.0882 27.1954C30.8979 26.8731 30.599 26.712 30.1914 26.712C29.7954 26.712 29.5023 26.8654 29.3121 27.1721C29.1258 27.4749 29.0268 27.9504 29.0151 28.5987V30.6601C29.0151 31.3511 29.1083 31.8655 29.2946 32.2032C29.4849 32.5371 29.7877 32.704 30.203 32.704C30.6145 32.704 30.9115 32.5429 31.094 32.2207C31.2764 31.8985 31.3715 31.4055 31.3793 30.7416V28.7268ZM34.7101 36.0698L33.8308 35.6097L34.0405 35.2312C34.3006 34.7576 34.4345 34.286 34.4423 33.8162V32.5119H35.8631L35.8573 33.6765C35.8534 34.1074 35.7447 34.5422 35.5312 34.9808C35.3177 35.4195 35.044 35.7825 34.7101 36.0698ZM42.8217 30.4388C42.8217 31.6112 42.5791 32.508 42.0938 33.1291C41.6086 33.7502 40.8982 34.0608 39.9626 34.0608C39.0386 34.0608 38.3321 33.7561 37.843 33.1466C37.3538 32.5371 37.1034 31.6636 37.0918 30.5262V28.9656C37.0918 27.7815 37.3364 26.8828 37.8255 26.2695C38.3185 25.6561 39.027 25.3494 39.9509 25.3494C40.8749 25.3494 41.5814 25.6542 42.0705 26.2637C42.5597 26.8693 42.8101 27.7408 42.8217 28.8782V30.4388ZM41.1388 28.7268C41.1388 28.0242 41.0418 27.5137 40.8477 27.1954C40.6575 26.8731 40.3585 26.712 39.9509 26.712C39.555 26.712 39.2619 26.8654 39.0716 27.1721C38.8853 27.4749 38.7863 27.9504 38.7747 28.5987V30.6601C38.7747 31.3511 38.8678 31.8655 39.0542 32.2032C39.2444 32.5371 39.5472 32.704 39.9626 32.704C40.3741 32.704 40.6711 32.5429 40.8535 32.2207C41.036 31.8985 41.1311 31.4055 41.1388 30.7416V28.7268ZM49.6697 30.4388C49.6697 31.6112 49.4271 32.508 48.9418 33.1291C48.4566 33.7502 47.7461 34.0608 46.8106 34.0608C45.8866 34.0608 45.1801 33.7561 44.6909 33.1466C44.2018 32.5371 43.9514 31.6636 43.9398 30.5262V28.9656C43.9398 27.7815 44.1843 26.8828 44.6735 26.2695C45.1665 25.6561 45.875 25.3494 46.7989 25.3494C47.7228 25.3494 48.4294 25.6542 48.9185 26.2637C49.4077 26.8693 49.6581 27.7408 49.6697 28.8782V30.4388ZM47.9868 28.7268C47.9868 28.0242 47.8898 27.5137 47.6957 27.1954C47.5054 26.8731 47.2065 26.712 46.7989 26.712C46.4029 26.712 46.1098 26.8654 45.9196 27.1721C45.7333 27.4749 45.6343 27.9504 45.6226 28.5987V30.6601C45.6226 31.3511 45.7158 31.8655 45.9021 32.2032C46.0924 32.5371 46.3952 32.704 46.8106 32.704C47.2221 32.704 47.519 32.5429 47.7015 32.2207C47.8839 31.8985 47.9791 31.4055 47.9868 30.7416V28.7268ZM56.5177 30.4388C56.5177 31.6112 56.275 32.508 55.7898 33.1291C55.3045 33.7502 54.5941 34.0608 53.6585 34.0608C52.7346 34.0608 52.0281 33.7561 51.5389 33.1466C51.0498 32.5371 50.7994 31.6636 50.7877 30.5262V28.9656C50.7877 27.7815 51.0323 26.8828 51.5215 26.2695C52.0145 25.6561 52.723 25.3494 53.6469 25.3494C54.5708 25.3494 55.2774 25.6542 55.7665 26.2637C56.2556 26.8693 56.506 27.7408 56.5177 28.8782V30.4388ZM54.8348 28.7268C54.8348 28.0242 54.7377 27.5137 54.5436 27.1954C54.3534 26.8731 54.0545 26.712 53.6469 26.712C53.2509 26.712 52.9578 26.8654 52.7676 27.1721C52.5813 27.4749 52.4823 27.9504 52.4706 28.5987V30.6601C52.4706 31.3511 52.5638 31.8655 52.7501 32.2032C52.9403 32.5371 53.2431 32.704 53.6585 32.704C54.07 32.704 54.367 32.5429 54.5495 32.2207C54.7319 31.8985 54.827 31.4055 54.8348 30.7416V28.7268ZM57.8162 33.1175C57.8162 32.8496 57.9055 32.6322 58.0841 32.4653C58.2666 32.2983 58.4937 32.2149 58.7654 32.2149C59.041 32.2149 59.2681 32.2983 59.4467 32.4653C59.6292 32.6322 59.7204 32.8496 59.7204 33.1175C59.7204 33.3814 59.6311 33.5969 59.4525 33.7638C59.274 33.9269 59.0449 34.0084 58.7654 34.0084C58.4898 34.0084 58.2627 33.9269 58.0841 33.7638C57.9055 33.5969 57.8162 33.3814 57.8162 33.1175ZM66.8362 30.4388C66.8362 31.6112 66.5936 32.508 66.1083 33.1291C65.6231 33.7502 64.9127 34.0608 63.9771 34.0608C63.0531 34.0608 62.3466 33.7561 61.8575 33.1466C61.3683 32.5371 61.1179 31.6636 61.1063 30.5262V28.9656C61.1063 27.7815 61.3509 26.8828 61.84 26.2695C62.333 25.6561 63.0415 25.3494 63.9654 25.3494C64.8894 25.3494 65.5959 25.6542 66.085 26.2637C66.5742 26.8693 66.8246 27.7408 66.8362 28.8782V30.4388ZM65.1534 28.7268C65.1534 28.0242 65.0563 27.5137 64.8622 27.1954C64.672 26.8731 64.3731 26.712 63.9654 26.712C63.5695 26.712 63.2764 26.8654 63.0861 27.1721C62.8998 27.4749 62.8008 27.9504 62.7892 28.5987V30.6601C62.7892 31.3511 62.8823 31.8655 63.0687 32.2032C63.2589 32.5371 63.5617 32.704 63.9771 32.704C64.3886 32.704 64.6856 32.5429 64.868 32.2207C65.0505 31.8985 65.1456 31.4055 65.1534 30.7416V28.7268ZM73.6842 30.4388C73.6842 31.6112 73.4416 32.508 72.9563 33.1291C72.4711 33.7502 71.7606 34.0608 70.8251 34.0608C69.9011 34.0608 69.1946 33.7561 68.7054 33.1466C68.2163 32.5371 67.9659 31.6636 67.9543 30.5262V28.9656C67.9543 27.7815 68.1988 26.8828 68.688 26.2695C69.181 25.6561 69.8895 25.3494 70.8134 25.3494C71.7373 25.3494 72.4439 25.6542 72.933 26.2637C73.4222 26.8693 73.6726 27.7408 73.6842 28.8782V30.4388ZM72.0013 28.7268C72.0013 28.0242 71.9043 27.5137 71.7102 27.1954C71.5199 26.8731 71.221 26.712 70.8134 26.712C70.4174 26.712 70.1243 26.8654 69.9341 27.1721C69.7478 27.4749 69.6488 27.9504 69.6371 28.5987V30.6601C69.6371 31.3511 69.7303 31.8655 69.9167 32.2032C70.1069 32.5371 70.4097 32.704 70.8251 32.704C71.2366 32.704 71.5335 32.5429 71.716 32.2207C71.8985 31.8985 71.9936 31.4055 72.0013 30.7416V28.7268Z" fill="white"/>
<path d="M94.3794 30.6219L96.8638 27.934C96.9994 27.7898 97.1889 27.708 97.3872 27.708C98.0154 27.708 98.3403 28.4555 97.9107 28.9121L95.2233 31.8158C94.7663 32.3016 93.9925 32.3016 93.5355 31.8158L90.8481 28.9121C90.4185 28.4555 90.7434 27.708 91.3715 27.708C91.5699 27.708 91.7593 27.7898 91.895 27.934L94.3794 30.6219Z" fill="white"/>
<rect x="115.249" y="6" width="77.8515" height="35.8886" rx="6" fill="#0094FF"/>
<path d="M129.904 24.9571V27.9443H128.158V19.4659H131.465C132.102 19.4659 132.661 19.5823 133.142 19.8153C133.627 20.0482 134 20.3801 134.26 20.811C134.52 21.2381 134.65 21.7253 134.65 22.2726C134.65 23.1034 134.365 23.7595 133.794 24.2408C133.228 24.7183 132.441 24.9571 131.436 24.9571H129.904ZM129.904 23.5421H131.465C131.927 23.5421 132.278 23.4334 132.519 23.216C132.764 22.9986 132.886 22.688 132.886 22.2843C132.886 21.8689 132.764 21.5331 132.519 21.2769C132.274 21.0207 131.937 20.8887 131.506 20.8809H129.904V23.5421ZM139.326 27.9443C139.249 27.7929 139.192 27.6047 139.157 27.3795C138.75 27.8337 138.22 28.0608 137.568 28.0608C136.95 28.0608 136.438 27.8822 136.03 27.5251C135.627 27.1679 135.425 26.7176 135.425 26.1741C135.425 25.5064 135.671 24.994 136.164 24.6368C136.661 24.2797 137.377 24.0991 138.313 24.0953H139.087V23.7342C139.087 23.4431 139.012 23.2101 138.86 23.0355C138.713 22.8608 138.478 22.7734 138.156 22.7734C137.872 22.7734 137.649 22.8414 137.486 22.9772C137.327 23.1131 137.247 23.2994 137.247 23.5362H135.565C135.565 23.1713 135.677 22.8336 135.902 22.523C136.127 22.2125 136.446 21.9698 136.857 21.7951C137.269 21.6166 137.731 21.5273 138.243 21.5273C139.02 21.5273 139.635 21.7233 140.089 22.1154C140.547 22.5036 140.776 23.051 140.776 23.7575V26.4886C140.78 27.0864 140.864 27.5387 141.027 27.8453V27.9443H139.326ZM137.935 26.7739C138.183 26.7739 138.412 26.7195 138.622 26.6108C138.831 26.4983 138.987 26.3488 139.087 26.1625V25.0794H138.459C137.616 25.0794 137.168 25.3705 137.113 25.9528L137.108 26.0518C137.108 26.2615 137.181 26.4342 137.329 26.5701C137.476 26.706 137.678 26.7739 137.935 26.7739ZM144.328 25.5627L145.493 21.6437H147.298L144.765 28.9226L144.625 29.2545C144.249 30.0775 143.628 30.489 142.762 30.489C142.517 30.489 142.269 30.4522 142.017 30.3784V29.1031L142.273 29.109C142.591 29.109 142.828 29.0604 142.983 28.9634C143.142 28.8663 143.267 28.7052 143.356 28.4801L143.554 27.9618L141.347 21.6437H143.158L144.328 25.5627ZM149.54 21.6437L149.592 22.3483C150.039 21.801 150.642 21.5273 151.403 21.5273C152.215 21.5273 152.772 21.8475 153.075 22.4881C153.517 21.8475 154.148 21.5273 154.967 21.5273C155.65 21.5273 156.159 21.7272 156.493 22.127C156.827 22.523 156.994 23.1209 156.994 23.9206V27.9443H155.305V23.9264C155.305 23.5692 155.235 23.3091 155.095 23.1461C154.955 22.9792 154.709 22.8957 154.356 22.8957C153.851 22.8957 153.502 23.1364 153.308 23.6178L153.313 27.9443H151.63V23.9322C151.63 23.5673 151.559 23.3033 151.415 23.1403C151.271 22.9772 151.027 22.8957 150.681 22.8957C150.204 22.8957 149.858 23.0937 149.645 23.4897V27.9443H147.962V21.6437H149.54ZM161.192 28.0608C160.268 28.0608 159.515 27.7774 158.933 27.2106C158.354 26.6438 158.065 25.8888 158.065 24.9454V24.7824C158.065 24.1496 158.187 23.5848 158.432 23.0879C158.676 22.5871 159.022 22.2027 159.468 21.9349C159.919 21.6631 160.431 21.5273 161.006 21.5273C161.868 21.5273 162.545 21.799 163.038 22.3425C163.535 22.886 163.783 23.6566 163.783 24.6543V25.3414H159.771C159.826 25.7529 159.989 26.0829 160.26 26.3313C160.536 26.5798 160.883 26.704 161.303 26.704C161.951 26.704 162.458 26.4691 162.822 25.9994L163.649 26.9253C163.397 27.2824 163.055 27.562 162.625 27.7638C162.194 27.9618 161.716 28.0608 161.192 28.0608ZM161 22.8899C160.666 22.8899 160.394 23.0025 160.185 23.2276C159.979 23.4528 159.847 23.775 159.789 24.1943H162.13V24.0603C162.122 23.6876 162.021 23.4004 161.827 23.1985C161.633 22.9928 161.357 22.8899 161 22.8899ZM166.293 21.6437L166.345 22.3716C166.796 21.8087 167.399 21.5273 168.156 21.5273C168.824 21.5273 169.321 21.7233 169.647 22.1154C169.973 22.5075 170.14 23.0937 170.148 23.874V27.9443H168.465V23.9147C168.465 23.5576 168.387 23.2994 168.232 23.1403C168.077 22.9772 167.819 22.8957 167.458 22.8957C166.984 22.8957 166.629 23.0976 166.392 23.5013V27.9443H164.709V21.6437H166.293ZM173.444 20.0948V21.6437H174.521V22.8782H173.444V26.0227C173.444 26.2556 173.488 26.4226 173.578 26.5235C173.667 26.6244 173.838 26.6749 174.09 26.6749C174.277 26.6749 174.442 26.6613 174.585 26.6341V27.9094C174.255 28.0103 173.916 28.0608 173.566 28.0608C172.386 28.0608 171.784 27.4649 171.761 26.2731V22.8782H170.841V21.6437H171.761V20.0948H173.444ZM178.871 26.2032C178.871 25.9975 178.768 25.8364 178.562 25.7199C178.36 25.5996 178.034 25.4928 177.584 25.3996C176.086 25.0852 175.336 24.4485 175.336 23.4897C175.336 22.9306 175.567 22.4648 176.029 22.0921C176.495 21.7155 177.103 21.5273 177.852 21.5273C178.652 21.5273 179.29 21.7155 179.768 22.0921C180.249 22.4687 180.49 22.9578 180.49 23.5595H178.807C178.807 23.3188 178.729 23.1209 178.574 22.9656C178.419 22.8064 178.176 22.7268 177.846 22.7268C177.563 22.7268 177.343 22.7909 177.188 22.919C177.033 23.0471 176.955 23.2101 176.955 23.4081C176.955 23.5945 177.043 23.7459 177.217 23.8623C177.396 23.9749 177.695 24.0739 178.114 24.1593C178.533 24.2408 178.887 24.334 179.174 24.4388C180.063 24.7649 180.507 25.3298 180.507 26.1333C180.507 26.7079 180.261 27.1737 179.768 27.5309C179.275 27.8842 178.638 28.0608 177.858 28.0608C177.33 28.0608 176.86 27.9676 176.449 27.7813C176.041 27.5911 175.721 27.3329 175.488 27.0068C175.255 26.6768 175.138 26.3216 175.138 25.9412H176.734C176.749 26.2401 176.86 26.4691 177.066 26.6283C177.272 26.7875 177.547 26.8671 177.893 26.8671C178.215 26.8671 178.458 26.8069 178.621 26.6865C178.788 26.5623 178.871 26.4012 178.871 26.2032Z" fill="white"/>
</svg>
