<svg width="31" height="91" viewBox="0 0 31 91" fill="none" xmlns="http://www.w3.org/2000/svg">
<rect x="0.5" y="0.5" width="30" height="90" rx="3.5" stroke="#0094FF"/>
<rect x="1" y="61.2903" width="28.7097" height="28.7097" rx="2.87097" fill="#141619"/>
<rect x="1" y="1" width="28.7097" height="28.7097" rx="2.87097" fill="#141619"/>
<path fill-rule="evenodd" clip-rule="evenodd" d="M15.3549 7.45972C15.7513 7.45972 16.0727 7.78106 16.0727 8.17746L16.0727 9.73546C16.909 10.0311 17.5081 10.8286 17.5081 11.7662C17.5081 12.2897 17.3211 12.7693 17.0112 13.142L19.6614 18.2258L21.8146 18.2258C22.211 18.2258 22.5323 18.5472 22.5323 18.9436C22.5323 19.34 22.211 19.6613 21.8146 19.6613L20.4097 19.6613L21.0697 20.9276C21.4362 21.6306 21.1634 22.4976 20.4604 22.8641L18.7908 19.6613L16.0727 19.6613L16.0727 20.3791C16.0727 20.7755 15.7513 21.0968 15.3549 21.0968C14.9585 21.0968 14.6372 20.7755 14.6372 20.3791L14.6372 19.6613L11.919 19.6613L10.2494 22.8641C9.54642 22.4976 9.2736 21.6306 9.64007 20.9276L10.3002 19.6613L8.89523 19.6613C8.49883 19.6613 8.17749 19.34 8.17749 18.9436C8.17749 18.5472 8.49883 18.2258 8.89523 18.2258L11.0485 18.2258L13.6986 13.142C13.3888 12.7693 13.2017 12.2897 13.2017 11.7662C13.2017 10.8286 13.8009 10.0311 14.6372 9.73546L14.6372 8.17746C14.6372 7.78106 14.9585 7.45972 15.3549 7.45972ZM14.9337 13.8781L12.6673 18.2258L14.6372 18.2258L14.6372 17.5081C14.6372 17.1117 14.9585 16.7904 15.3549 16.7904C15.7513 16.7904 16.0727 17.1117 16.0727 17.5081L16.0727 18.2258L18.0425 18.2258L15.7761 13.8781C15.6397 13.9052 15.4988 13.9194 15.3549 13.9194C15.211 13.9194 15.0701 13.9052 14.9337 13.8781ZM15.3549 11.0484C14.9585 11.0484 14.6372 11.3698 14.6372 11.7662C14.6372 12.0215 14.77 12.2463 14.9737 12.3745C15.0837 12.4438 15.2135 12.4839 15.3549 12.4839C15.4963 12.4839 15.6261 12.4438 15.7361 12.3745C15.9398 12.2463 16.0727 12.0215 16.0727 11.7662C16.0727 11.3698 15.7513 11.0484 15.3549 11.0484Z" fill="white"/>
<rect x="1" y="31.1451" width="28.7097" height="28.7097" rx="2.87097" fill="#141619"/>
<path fill-rule="evenodd" clip-rule="evenodd" d="M18.1315 43.0435L16.7478 47.374C16.6286 47.7469 16.282 48 15.8905 48H13.3803L12.2288 50.7028C12.0875 51.0347 11.7616 51.25 11.4009 51.25H9.25C8.83579 51.25 8.5 50.9142 8.5 50.5C8.5 50.0858 8.83579 49.75 9.25 49.75H11.0043L12.1558 47.0473C12.2972 46.7154 12.623 46.5 12.9838 46.5H15.4523L17.2305 40.9348C17.4907 40.1207 18.6326 40.0935 18.9311 40.8944L21.0208 46.5H22.75C23.1642 46.5 23.5 46.8358 23.5 47.25C23.5 47.6642 23.1642 48 22.75 48H20.6042C20.2284 48 19.8921 47.7665 19.7609 47.4144L18.1315 43.0435Z" fill="white"/>
<path fill-rule="evenodd" clip-rule="evenodd" d="M20.4583 69.125C21.2407 69.125 21.875 69.7593 21.875 70.5417L21.875 80.4583C21.875 81.2407 21.2407 81.875 20.4583 81.875L10.5417 81.875C9.75926 81.875 9.125 81.2407 9.125 80.4583L9.125 70.5417C9.125 69.7593 9.75926 69.125 10.5417 69.125L20.4583 69.125ZM20.4583 80.4583L20.4583 70.5417L10.5417 70.5417L10.5417 80.4583L20.4583 80.4583Z" fill="white"/>
<path fill-rule="evenodd" clip-rule="evenodd" d="M9.125 75.5C9.125 75.1088 9.44213 74.7917 9.83333 74.7917L21.1667 74.7917C21.5579 74.7917 21.875 75.1088 21.875 75.5C21.875 75.8912 21.5579 76.2083 21.1667 76.2083L9.83333 76.2083C9.44213 76.2083 9.125 75.8912 9.125 75.5Z" fill="white"/>
</svg>
