<svg width="16" height="16" viewBox="0 0 16 16" fill="none" xmlns="http://www.w3.org/2000/svg">
<g clip-path="url(#clip0_1_150)">
<path fill-rule="evenodd" clip-rule="evenodd" d="M7.99878 5.74963C9.24077 5.74963 10.2488 6.75763 10.2488 7.99963C10.2488 9.24163 9.24077 10.2496 7.99878 10.2496C6.75678 10.2496 5.74878 9.24163 5.74878 7.99963H7.99878V5.74963Z" fill="#758B9D"/>
<path fill-rule="evenodd" clip-rule="evenodd" d="M0.18457 7.99888C0.968568 4.88189 4.14355 2.4989 7.99854 2.4989C11.8535 2.4989 15.0285 4.88189 15.8125 7.99888H13.7265C12.9595 5.94889 10.6595 4.4989 7.99854 4.4989C5.33755 4.4989 3.03756 5.94889 2.27056 7.99888H0.18457Z" fill="#758B9D"/>
<path fill-rule="evenodd" clip-rule="evenodd" d="M0.18457 8.0002C0.968568 11.1172 4.14355 13.5002 7.99854 13.5002C11.8535 13.5002 15.0285 11.1172 15.8125 8.0002H13.7265C12.9595 10.0502 10.6595 11.5002 7.99854 11.5002C5.33755 11.5002 3.03756 10.0502 2.27056 8.0002H0.18457Z" fill="#758B9D"/>
</g>
<defs>
<clipPath id="clip0_1_150">
<rect width="16" height="16" fill="white"/>
</clipPath>
</defs>
</svg>
