<svg width="48" height="48" viewBox="0 0 48 48" fill="none" xmlns="http://www.w3.org/2000/svg">
<path d="M0 16C0 7.16344 7.16344 0 16 0H32C40.8366 0 48 7.16344 48 16V32C48 40.8366 40.8366 48 32 48H16C7.16344 48 0 40.8366 0 32V16Z" fill="#AAADB2"/>
<path d="M25.986 25.604L22.554 29.058H28.89V31.5H18.792V29.542L24.138 24.086C25.612 22.612 26.382 21.776 26.382 20.434C26.382 19.114 25.348 18.19 23.786 18.19C22.18 18.19 21.102 19.246 21.08 20.764H18.594C18.638 17.992 20.794 15.836 23.786 15.836C26.91 15.836 28.934 17.838 28.934 20.346C28.934 22.436 27.614 23.954 25.986 25.604Z" fill="white"/>
</svg>
