<?xml version="1.0" encoding="UTF-8"?>
<svg xmlns="http://www.w3.org/2000/svg" xmlns:xlink="http://www.w3.org/1999/xlink" width="111pt" height="25pt" viewBox="0 0 111 25" version="1.1">
<g id="surface1">
<path style=" stroke:none;fill-rule:nonzero;fill:rgb(100%,100%,100%);fill-opacity:1;" d="M 33.519531 7.199219 C 32.675781 7.199219 31.980469 7.394531 31.433594 7.78125 C 30.890625 8.164062 30.539062 8.71875 30.378906 9.445312 L 34.558594 9.445312 L 34.558594 10.882812 L 30.222656 10.882812 L 30.203125 11.171875 L 30.203125 11.554688 L 30.222656 11.828125 L 33.90625 11.828125 L 33.90625 13.28125 L 30.402344 13.28125 C 30.753906 14.605469 31.863281 15.265625 33.726562 15.265625 C 34.714844 15.265625 35.667969 15.113281 36.574219 14.800781 L 36.574219 16.886719 C 35.777344 17.210938 34.765625 17.371094 33.539062 17.371094 C 31.847656 17.371094 30.453125 17.011719 29.363281 16.285156 C 28.269531 15.5625 27.582031 14.5625 27.304688 13.28125 L 25.878906 13.28125 L 25.878906 11.828125 L 27.105469 11.828125 C 27.078125 11.699219 27.0625 11.53125 27.0625 11.316406 L 27.082031 10.882812 L 25.878906 10.882812 L 25.878906 9.445312 L 27.261719 9.445312 C 27.515625 8.128906 28.199219 7.089844 29.320312 6.324219 C 30.4375 5.558594 31.839844 5.175781 33.519531 5.175781 C 34.816406 5.175781 36.03125 5.398438 37.167969 5.84375 L 36.15625 7.742188 C 35.675781 7.570312 35.230469 7.441406 34.8125 7.34375 C 34.398438 7.246094 33.96875 7.199219 33.519531 7.199219 Z M 33.519531 7.199219 "/>
<path style=" stroke:none;fill-rule:nonzero;fill:rgb(100%,100%,100%);fill-opacity:1;" d="M 46.078125 17.207031 L 42.878906 17.207031 L 42.878906 10.296875 L 42.90625 9.164062 L 42.960938 7.921875 C 42.425781 8.339844 42.058594 8.613281 41.851562 8.746094 L 40.109375 9.847656 L 38.5625 8.328125 L 43.441406 5.261719 L 46.078125 5.261719 Z M 46.078125 17.207031 "/>
<path style=" stroke:none;fill-rule:nonzero;fill:rgb(100%,100%,100%);fill-opacity:1;" d="M 60.777344 11.234375 C 60.777344 13.324219 60.34375 14.867188 59.476562 15.867188 C 58.609375 16.871094 57.273438 17.371094 55.46875 17.371094 C 53.722656 17.371094 52.402344 16.855469 51.511719 15.820312 C 50.625 14.785156 50.183594 13.257812 50.183594 11.234375 C 50.183594 9.128906 50.613281 7.574219 51.476562 6.574219 C 52.34375 5.578125 53.675781 5.078125 55.46875 5.078125 C 57.21875 5.078125 58.539062 5.601562 59.433594 6.644531 C 60.328125 7.691406 60.777344 9.222656 60.777344 11.234375 Z M 53.371094 11.234375 C 53.371094 12.699219 53.53125 13.75 53.851562 14.386719 C 54.171875 15.019531 54.710938 15.335938 55.46875 15.335938 C 56.214844 15.335938 56.757812 15.015625 57.085938 14.375 C 57.421875 13.734375 57.589844 12.6875 57.589844 11.234375 C 57.589844 9.769531 57.421875 8.71875 57.085938 8.078125 C 56.75 7.4375 56.214844 7.117188 55.46875 7.117188 C 54.714844 7.117188 54.175781 7.4375 53.851562 8.078125 C 53.53125 8.71875 53.371094 9.769531 53.371094 11.234375 Z M 53.371094 11.234375 "/>
<path style=" stroke:none;fill-rule:nonzero;fill:rgb(100%,100%,100%);fill-opacity:1;" d="M 72.886719 11.234375 C 72.886719 13.324219 72.453125 14.867188 71.585938 15.867188 C 70.71875 16.871094 69.382812 17.371094 67.582031 17.371094 C 65.832031 17.371094 64.511719 16.855469 63.625 15.820312 C 62.738281 14.785156 62.296875 13.257812 62.296875 11.234375 C 62.296875 9.128906 62.726562 7.574219 63.589844 6.574219 C 64.457031 5.578125 65.785156 5.078125 67.582031 5.078125 C 69.328125 5.078125 70.652344 5.601562 71.546875 6.644531 C 72.441406 7.691406 72.886719 9.222656 72.886719 11.234375 Z M 65.480469 11.234375 C 65.480469 12.699219 65.640625 13.75 65.964844 14.386719 C 66.285156 15.019531 66.824219 15.335938 67.582031 15.335938 C 68.328125 15.335938 68.867188 15.015625 69.199219 14.375 C 69.53125 13.734375 69.699219 12.6875 69.699219 11.234375 C 69.699219 9.769531 69.53125 8.71875 69.199219 8.078125 C 68.863281 7.4375 68.324219 7.117188 67.582031 7.117188 C 66.828125 7.117188 66.289062 7.4375 65.964844 8.078125 C 65.640625 8.71875 65.480469 9.769531 65.480469 11.234375 Z M 65.480469 11.234375 "/>
<path style=" stroke:none;fill-rule:nonzero;fill:rgb(100%,100%,100%);fill-opacity:1;" d="M 85 11.234375 C 85 13.324219 84.566406 14.867188 83.699219 15.867188 C 82.832031 16.871094 81.496094 17.371094 79.691406 17.371094 C 77.945312 17.371094 76.625 16.855469 75.734375 15.820312 C 74.847656 14.785156 74.40625 13.257812 74.40625 11.234375 C 74.40625 9.128906 74.835938 7.574219 75.699219 6.574219 C 76.566406 5.578125 77.898438 5.078125 79.691406 5.078125 C 81.441406 5.078125 82.761719 5.601562 83.65625 6.644531 C 84.550781 7.691406 85 9.222656 85 11.234375 Z M 77.59375 11.234375 C 77.59375 12.699219 77.753906 13.75 78.074219 14.386719 C 78.394531 15.019531 78.933594 15.335938 79.691406 15.335938 C 80.4375 15.335938 80.980469 15.015625 81.308594 14.375 C 81.644531 13.734375 81.8125 12.6875 81.8125 11.234375 C 81.8125 9.769531 81.644531 8.71875 81.308594 8.078125 C 80.972656 7.4375 80.433594 7.117188 79.691406 7.117188 C 78.9375 7.117188 78.398438 7.4375 78.074219 8.078125 C 77.753906 8.71875 77.59375 9.769531 77.59375 11.234375 Z M 77.59375 11.234375 "/>
</g>
</svg>
