<?xml version="1.0" encoding="UTF-8"?>
<svg xmlns="http://www.w3.org/2000/svg" xmlns:xlink="http://www.w3.org/1999/xlink" width="111pt" height="25pt" viewBox="0 0 111 25" version="1.1">
<g id="surface1">
<path style=" stroke:none;fill-rule:nonzero;fill:rgb(100%,100%,100%);fill-opacity:1;" d="M 21.488281 9.054688 C 20.707031 9.054688 20.066406 9.230469 19.5625 9.585938 C 19.0625 9.941406 18.738281 10.453125 18.589844 11.128906 L 22.445312 11.128906 L 22.445312 12.457031 L 18.445312 12.457031 L 18.425781 12.722656 L 18.425781 13.074219 L 18.445312 13.324219 L 21.847656 13.324219 L 21.847656 14.667969 L 18.605469 14.667969 C 18.929688 15.894531 19.957031 16.503906 21.679688 16.503906 C 22.59375 16.503906 23.472656 16.359375 24.308594 16.074219 L 24.308594 18.007812 C 23.570312 18.300781 22.636719 18.453125 21.507812 18.453125 C 19.945312 18.453125 18.65625 18.117188 17.648438 17.449219 C 16.636719 16.777344 16.003906 15.851562 15.742188 14.667969 L 14.433594 14.667969 L 14.433594 13.324219 L 15.5625 13.324219 C 15.535156 13.210938 15.523438 13.054688 15.523438 12.859375 L 15.542969 12.457031 L 14.433594 12.457031 L 14.433594 11.128906 L 15.707031 11.128906 C 15.941406 9.910156 16.574219 8.953125 17.605469 8.246094 C 18.644531 7.539062 19.9375 7.183594 21.488281 7.183594 C 22.691406 7.183594 23.816406 7.390625 24.859375 7.800781 L 23.917969 9.554688 C 23.476562 9.398438 23.066406 9.277344 22.679688 9.191406 C 22.296875 9.101562 21.902344 9.054688 21.488281 9.054688 Z M 21.488281 9.054688 "/>
<path style=" stroke:none;fill-rule:nonzero;fill:rgb(100%,100%,100%);fill-opacity:1;" d="M 35.007812 9.734375 C 35.007812 10.425781 34.746094 11.011719 34.21875 11.496094 C 33.691406 11.976562 32.945312 12.308594 31.988281 12.488281 L 31.988281 12.53125 C 33.117188 12.644531 33.96875 12.917969 34.546875 13.347656 C 35.128906 13.777344 35.421875 14.355469 35.421875 15.082031 C 35.421875 16.144531 34.933594 16.972656 33.957031 17.566406 C 32.980469 18.15625 31.589844 18.453125 29.777344 18.453125 C 28.253906 18.453125 26.910156 18.253906 25.738281 17.855469 L 25.738281 15.867188 C 26.277344 16.085938 26.875 16.261719 27.527344 16.402344 C 28.179688 16.535156 28.824219 16.601562 29.460938 16.601562 C 30.433594 16.601562 31.15625 16.472656 31.621094 16.210938 C 32.089844 15.949219 32.324219 15.527344 32.324219 14.945312 C 32.324219 14.429688 32.054688 14.0625 31.519531 13.84375 C 30.984375 13.628906 30.125 13.519531 28.953125 13.519531 L 27.894531 13.519531 L 27.894531 11.734375 L 28.972656 11.734375 C 30.054688 11.734375 30.847656 11.625 31.347656 11.398438 C 31.851562 11.175781 32.105469 10.789062 32.105469 10.25 C 32.105469 9.414062 31.4375 8.996094 30.109375 8.996094 C 29.648438 8.996094 29.179688 9.058594 28.703125 9.179688 C 28.230469 9.296875 27.703125 9.507812 27.121094 9.804688 L 25.753906 8.191406 C 27.03125 7.46875 28.554688 7.105469 30.320312 7.105469 C 31.769531 7.105469 32.914062 7.339844 33.75 7.800781 C 34.589844 8.265625 35.007812 8.90625 35.007812 9.734375 Z M 35.007812 9.734375 "/>
<path style=" stroke:none;fill-rule:nonzero;fill:rgb(100%,100%,100%);fill-opacity:1;" d="M 46.746094 18.300781 L 36.960938 18.300781 L 36.960938 16.675781 L 40.476562 13.878906 C 41.511719 13.035156 42.191406 12.453125 42.507812 12.128906 C 42.828125 11.804688 43.058594 11.503906 43.203125 11.230469 C 43.34375 10.953125 43.417969 10.664062 43.417969 10.367188 C 43.417969 9.925781 43.257812 9.597656 42.949219 9.378906 C 42.640625 9.164062 42.226562 9.054688 41.710938 9.054688 C 41.167969 9.054688 40.640625 9.152344 40.125 9.347656 C 39.617188 9.542969 39.082031 9.824219 38.53125 10.1875 L 36.925781 8.6875 C 37.613281 8.222656 38.183594 7.894531 38.632812 7.703125 C 39.085938 7.511719 39.582031 7.367188 40.121094 7.265625 C 40.65625 7.160156 41.257812 7.105469 41.921875 7.105469 C 42.792969 7.105469 43.5625 7.234375 44.234375 7.488281 C 44.90625 7.734375 45.425781 8.085938 45.796875 8.539062 C 46.167969 8.992188 46.355469 9.511719 46.355469 10.097656 C 46.355469 10.605469 46.238281 11.082031 46.011719 11.527344 C 45.785156 11.972656 45.433594 12.429688 44.957031 12.894531 C 44.484375 13.363281 43.648438 14.03125 42.445312 14.898438 L 40.648438 16.230469 L 40.648438 16.335938 L 46.746094 16.335938 Z M 46.746094 18.300781 "/>
<path style=" stroke:none;fill-rule:nonzero;fill:rgb(100%,100%,100%);fill-opacity:1;" d="M 48.050781 13.613281 C 48.050781 11.429688 48.636719 9.804688 49.804688 8.738281 C 50.980469 7.675781 52.734375 7.140625 55.070312 7.140625 C 55.871094 7.140625 56.496094 7.175781 56.949219 7.246094 L 56.949219 9.113281 C 56.378906 9.015625 55.816406 8.960938 55.265625 8.960938 C 54.246094 8.960938 53.414062 9.085938 52.773438 9.324219 C 52.132812 9.570312 51.652344 9.925781 51.335938 10.398438 C 51.019531 10.871094 50.828125 11.542969 50.769531 12.414062 L 50.894531 12.414062 C 51.527344 11.554688 52.539062 11.128906 53.929688 11.128906 C 55.179688 11.128906 56.160156 11.4375 56.867188 12.058594 C 57.578125 12.679688 57.933594 13.535156 57.933594 14.625 C 57.933594 15.800781 57.511719 16.734375 56.667969 17.421875 C 55.828125 18.109375 54.660156 18.453125 53.164062 18.453125 C 52.132812 18.453125 51.230469 18.265625 50.460938 17.886719 C 49.6875 17.507812 49.09375 16.957031 48.675781 16.230469 C 48.257812 15.507812 48.050781 14.636719 48.050781 13.613281 Z M 53.109375 16.585938 C 53.738281 16.585938 54.222656 16.417969 54.5625 16.085938 C 54.902344 15.75 55.070312 15.273438 55.070312 14.652344 C 55.070312 14.113281 54.914062 13.691406 54.597656 13.382812 C 54.28125 13.074219 53.800781 12.917969 53.164062 12.917969 C 52.5625 12.917969 52.050781 13.070312 51.625 13.378906 C 51.199219 13.6875 50.988281 14.042969 50.988281 14.453125 C 50.988281 15.050781 51.191406 15.554688 51.589844 15.964844 C 51.988281 16.378906 52.492188 16.585938 53.109375 16.585938 Z M 53.109375 16.585938 "/>
<path style=" stroke:none;fill-rule:nonzero;fill:rgb(100%,100%,100%);fill-opacity:1;" d="M 74.136719 12.78125 C 74.136719 14.710938 73.734375 16.136719 72.933594 17.0625 C 72.128906 17.988281 70.894531 18.453125 69.230469 18.453125 C 67.613281 18.453125 66.394531 17.972656 65.574219 17.019531 C 64.757812 16.0625 64.351562 14.648438 64.351562 12.78125 C 64.351562 10.835938 64.75 9.402344 65.546875 8.480469 C 66.347656 7.554688 67.574219 7.089844 69.230469 7.089844 C 70.84375 7.089844 72.066406 7.574219 72.890625 8.539062 C 73.722656 9.503906 74.136719 10.917969 74.136719 12.78125 Z M 67.289062 12.78125 C 67.289062 14.136719 67.4375 15.105469 67.730469 15.691406 C 68.027344 16.277344 68.527344 16.570312 69.230469 16.570312 C 69.921875 16.570312 70.421875 16.273438 70.722656 15.679688 C 71.03125 15.085938 71.183594 14.121094 71.183594 12.78125 C 71.183594 11.429688 71.027344 10.457031 70.714844 9.867188 C 70.410156 9.277344 69.914062 8.980469 69.230469 8.980469 C 68.535156 8.980469 68.039062 9.277344 67.738281 9.867188 C 67.4375 10.457031 67.289062 11.429688 67.289062 12.78125 Z M 67.289062 12.78125 "/>
<path style=" stroke:none;fill-rule:nonzero;fill:rgb(100%,100%,100%);fill-opacity:1;" d="M 85.324219 12.78125 C 85.324219 14.710938 84.921875 16.136719 84.121094 17.0625 C 83.316406 17.988281 82.082031 18.453125 80.417969 18.453125 C 78.800781 18.453125 77.582031 17.972656 76.761719 17.019531 C 75.945312 16.0625 75.539062 14.648438 75.539062 12.78125 C 75.539062 10.835938 75.9375 9.402344 76.734375 8.480469 C 77.535156 7.554688 78.761719 7.089844 80.417969 7.089844 C 82.03125 7.089844 83.253906 7.574219 84.078125 8.539062 C 84.910156 9.503906 85.324219 10.917969 85.324219 12.78125 Z M 78.476562 12.78125 C 78.476562 14.136719 78.621094 15.105469 78.917969 15.691406 C 79.214844 16.277344 79.714844 16.570312 80.417969 16.570312 C 81.109375 16.570312 81.609375 16.273438 81.910156 15.679688 C 82.21875 15.085938 82.371094 14.121094 82.371094 12.78125 C 82.371094 11.429688 82.214844 10.457031 81.902344 9.867188 C 81.597656 9.277344 81.101562 8.980469 80.417969 8.980469 C 79.722656 8.980469 79.226562 9.277344 78.925781 9.867188 C 78.625 10.457031 78.476562 11.429688 78.476562 12.78125 Z M 78.476562 12.78125 "/>
<path style=" stroke:none;fill-rule:nonzero;fill:rgb(100%,100%,100%);fill-opacity:1;" d="M 96.511719 12.78125 C 96.511719 14.710938 96.109375 16.136719 95.308594 17.0625 C 94.503906 17.988281 93.269531 18.453125 91.605469 18.453125 C 89.988281 18.453125 88.769531 17.972656 87.949219 17.019531 C 87.132812 16.0625 86.726562 14.648438 86.726562 12.78125 C 86.726562 10.835938 87.125 9.402344 87.921875 8.480469 C 88.722656 7.554688 89.949219 7.089844 91.605469 7.089844 C 93.21875 7.089844 94.441406 7.574219 95.265625 8.539062 C 96.09375 9.503906 96.511719 10.917969 96.511719 12.78125 Z M 89.664062 12.78125 C 89.664062 14.136719 89.808594 15.105469 90.105469 15.691406 C 90.402344 16.277344 90.902344 16.570312 91.605469 16.570312 C 92.296875 16.570312 92.796875 16.273438 93.097656 15.679688 C 93.40625 15.085938 93.558594 14.121094 93.558594 12.78125 C 93.558594 11.429688 93.402344 10.457031 93.089844 9.867188 C 92.785156 9.277344 92.289062 8.980469 91.605469 8.980469 C 90.910156 8.980469 90.414062 9.277344 90.113281 9.867188 C 89.8125 10.457031 89.664062 11.429688 89.664062 12.78125 Z M 89.664062 12.78125 "/>
</g>
</svg>
