<?xml version="1.0" encoding="UTF-8"?>
<svg xmlns="http://www.w3.org/2000/svg" xmlns:xlink="http://www.w3.org/1999/xlink" width="133pt" height="32pt" viewBox="0 0 133 32" version="1.1">
<g id="surface1">
<path style=" stroke:none;fill-rule:nonzero;fill:rgb(85.882353%,5.490196%,5.490196%);fill-opacity:1;" d="M 31.746094 26.386719 L 28.390625 26.386719 L 28.390625 31.246094 L 22.640625 31.246094 L 22.640625 26.386719 L 10.75 26.386719 L 10.75 22.933594 L 22.964844 7.789062 L 28.390625 7.789062 L 28.390625 22.53125 L 31.746094 22.53125 Z M 22.640625 22.53125 L 22.640625 18.550781 C 22.640625 17.890625 22.671875 16.929688 22.734375 15.671875 C 22.796875 14.40625 22.851562 13.675781 22.890625 13.46875 L 22.734375 13.46875 C 22.265625 14.34375 21.703125 15.203125 21.042969 16.039062 L 15.929688 22.53125 Z M 22.640625 22.53125 "/>
<path style=" stroke:none;fill-rule:nonzero;fill:rgb(85.882353%,5.490196%,5.490196%);fill-opacity:1;" d="M 53.226562 19.519531 C 53.226562 23.613281 52.429688 26.648438 50.835938 28.613281 C 49.238281 30.582031 46.785156 31.566406 43.472656 31.566406 C 40.257812 31.566406 37.839844 30.550781 36.207031 28.519531 C 34.574219 26.488281 33.757812 23.488281 33.757812 19.519531 C 33.757812 15.378906 34.550781 12.328125 36.140625 10.363281 C 37.726562 8.402344 40.171875 7.421875 43.472656 7.421875 C 46.6875 7.421875 49.117188 8.449219 50.761719 10.503906 C 52.40625 12.554688 53.226562 15.558594 53.226562 19.519531 Z M 39.605469 19.519531 C 39.605469 22.398438 39.898438 24.460938 40.488281 25.707031 C 41.082031 26.953125 42.074219 27.574219 43.472656 27.574219 C 44.84375 27.574219 45.839844 26.945312 46.449219 25.683594 C 47.058594 24.421875 47.363281 22.363281 47.363281 19.519531 C 47.363281 16.640625 47.054688 14.570312 46.441406 13.316406 C 45.824219 12.058594 44.835938 11.425781 43.472656 11.425781 C 42.089844 11.425781 41.101562 12.058594 40.503906 13.316406 C 39.902344 14.570312 39.605469 16.640625 39.605469 19.519531 Z M 39.605469 19.519531 "/>
<path style=" stroke:none;fill-rule:nonzero;fill:rgb(85.882353%,5.490196%,5.490196%);fill-opacity:1;" d="M 75.492188 19.519531 C 75.492188 23.613281 74.695312 26.648438 73.101562 28.613281 C 71.503906 30.582031 69.050781 31.566406 65.734375 31.566406 C 62.523438 31.566406 60.105469 30.550781 58.472656 28.519531 C 56.839844 26.488281 56.023438 23.488281 56.023438 19.519531 C 56.023438 15.378906 56.816406 12.328125 58.40625 10.363281 C 59.992188 8.402344 62.4375 7.421875 65.734375 7.421875 C 68.953125 7.421875 71.382812 8.449219 73.027344 10.503906 C 74.667969 12.554688 75.492188 15.558594 75.492188 19.519531 Z M 61.867188 19.519531 C 61.867188 22.398438 62.160156 24.460938 62.75 25.707031 C 63.34375 26.953125 64.339844 27.574219 65.734375 27.574219 C 67.109375 27.574219 68.101562 26.945312 68.714844 25.683594 C 69.324219 24.421875 69.628906 22.363281 69.628906 19.519531 C 69.628906 16.640625 69.320312 14.570312 68.703125 13.316406 C 68.089844 12.058594 67.097656 11.425781 65.734375 11.425781 C 64.355469 11.425781 63.367188 12.058594 62.765625 13.316406 C 62.167969 14.570312 61.867188 16.640625 61.867188 19.519531 Z M 61.867188 19.519531 "/>
<path style=" stroke:none;fill-rule:nonzero;fill:rgb(85.882353%,5.490196%,5.490196%);fill-opacity:1;" d="M 97.757812 19.519531 C 97.757812 23.613281 96.957031 26.648438 95.363281 28.613281 C 93.769531 30.582031 91.316406 31.566406 88 31.566406 C 84.789062 31.566406 82.367188 30.550781 80.734375 28.519531 C 79.101562 26.488281 78.285156 23.488281 78.285156 19.519531 C 78.285156 15.378906 79.082031 12.328125 80.667969 10.363281 C 82.257812 8.402344 84.703125 7.421875 88 7.421875 C 91.21875 7.421875 93.644531 8.449219 95.289062 10.503906 C 96.933594 12.554688 97.757812 15.558594 97.757812 19.519531 Z M 84.132812 19.519531 C 84.132812 22.398438 84.425781 24.460938 85.015625 25.707031 C 85.609375 26.953125 86.601562 27.574219 88 27.574219 C 89.375 27.574219 90.367188 26.945312 90.976562 25.683594 C 91.589844 24.421875 91.894531 22.363281 91.894531 19.519531 C 91.894531 16.640625 91.585938 14.570312 90.96875 13.316406 C 90.351562 12.058594 89.363281 11.425781 88 11.425781 C 86.621094 11.425781 85.628906 12.058594 85.03125 13.316406 C 84.433594 14.570312 84.132812 16.640625 84.132812 19.519531 Z M 84.132812 19.519531 "/>
<path style=" stroke:none;fill-rule:nonzero;fill:rgb(85.882353%,5.490196%,5.490196%);fill-opacity:1;" d="M 114.4375 11.59375 C 112.886719 11.59375 111.609375 11.972656 110.605469 12.726562 C 109.601562 13.476562 108.957031 14.570312 108.664062 16.003906 L 116.34375 16.003906 L 116.34375 18.832031 L 108.386719 18.832031 L 108.34375 19.394531 L 108.34375 20.144531 L 108.386719 20.671875 L 115.148438 20.671875 L 115.148438 23.53125 L 108.707031 23.53125 C 109.355469 26.128906 111.394531 27.425781 114.824219 27.425781 C 116.640625 27.425781 118.382812 27.121094 120.0625 26.511719 L 120.0625 30.621094 C 118.589844 31.25 116.726562 31.566406 114.480469 31.566406 C 111.367188 31.566406 108.808594 30.855469 106.800781 29.433594 C 104.792969 28.015625 103.53125 26.046875 103.007812 23.53125 L 100.394531 23.53125 L 100.394531 20.671875 L 102.644531 20.671875 C 102.597656 20.425781 102.570312 20.09375 102.570312 19.675781 L 102.613281 18.832031 L 100.394531 18.832031 L 100.394531 16.003906 L 102.933594 16.003906 C 103.398438 13.417969 104.660156 11.371094 106.71875 9.871094 C 108.78125 8.367188 111.355469 7.613281 114.4375 7.613281 C 116.828125 7.613281 119.066406 8.050781 121.152344 8.925781 L 119.277344 12.648438 C 118.40625 12.316406 117.585938 12.058594 116.820312 11.871094 C 116.0625 11.6875 115.265625 11.59375 114.4375 11.59375 Z M 114.4375 11.59375 "/>
</g>
</svg>
