<svg width="30" height="30" viewBox="0 0 30 30" fill="none" xmlns="http://www.w3.org/2000/svg">
<path fill-rule="evenodd" clip-rule="evenodd" d="M3 4.1499C3 3.84493 3.11493 3.55245 3.31952 3.3368C3.5241 3.12115 3.80158 3 4.09091 3H16.0909C16.3802 3 16.6577 3.12115 16.8623 3.3368C17.0669 3.55245 17.1818 3.84493 17.1818 4.1499V9.89942H21.5455C22.2618 9.89942 22.971 10.0481 23.6328 10.3371C24.2946 10.626 24.8959 11.0495 25.4024 11.5834C25.9089 12.1173 26.3107 12.7511 26.5848 13.4487C26.8589 14.1463 27 14.8939 27 15.6489V20.2486C27.0001 20.9888 26.7744 21.7095 26.3562 22.3041C25.938 22.8988 25.3494 23.336 24.6775 23.5511C24.4774 24.2468 24.0739 24.8581 23.5247 25.2977C22.9754 25.7373 22.3084 25.9828 21.6189 25.9991C20.9295 26.0155 20.2527 25.8018 19.6853 25.3886C19.1179 24.9754 18.6888 24.3838 18.4593 23.6983H11.5418C11.3123 24.3838 10.8832 24.9754 10.3158 25.3886C9.74838 25.8018 9.07163 26.0155 8.38214 25.9991C7.69266 25.9828 7.02568 25.7373 6.47643 25.2977C5.92717 24.8581 5.52371 24.2468 5.32364 23.5511C4.65146 23.3362 4.06268 22.8991 3.64425 22.3044C3.22583 21.7097 2.99996 20.989 3 20.2486V15.6489H9.54545C9.83478 15.6489 10.1123 15.5278 10.3168 15.3121C10.5214 15.0965 10.6364 14.804 10.6364 14.499C10.6364 14.1941 10.5214 13.9016 10.3168 13.6859C10.1123 13.4703 9.83478 13.3491 9.54545 13.3491H3V11.0493H7.36364C7.65296 11.0493 7.93044 10.9282 8.13503 10.7125C8.33961 10.4969 8.45455 10.2044 8.45455 9.89942C8.45455 9.59445 8.33961 9.30197 8.13503 9.08632C7.93044 8.87067 7.65296 8.74952 7.36364 8.74952H3V4.1499ZM17.1818 21.3985H18.4593C18.6749 20.755 19.0668 20.1935 19.5853 19.7848C20.1038 19.3762 20.7256 19.1388 21.3721 19.1028C22.0186 19.0667 22.6607 19.2335 23.2172 19.5822C23.7737 19.9309 24.2197 20.4457 24.4985 21.0615C24.6 20.9549 24.6805 20.8282 24.7353 20.6887C24.7902 20.5491 24.8183 20.3996 24.8182 20.2486V15.6489C24.8182 14.734 24.4734 13.8566 23.8596 13.2096C23.2459 12.5627 22.4134 12.1992 21.5455 12.1992H17.1818V21.3985ZM9.54545 22.5484C9.54545 22.2434 9.43052 21.9509 9.22593 21.7353C9.02135 21.5196 8.74387 21.3985 8.45455 21.3985C8.16522 21.3985 7.88774 21.5196 7.68316 21.7353C7.47857 21.9509 7.36364 22.2434 7.36364 22.5484C7.36364 22.8533 7.47857 23.1458 7.68316 23.3615C7.88774 23.5771 8.16522 23.6983 8.45455 23.6983C8.74387 23.6983 9.02135 23.5771 9.22593 23.3615C9.43052 23.1458 9.54545 22.8533 9.54545 22.5484ZM20.7742 21.7354C20.6726 21.8419 20.592 21.9686 20.5372 22.1081C20.4823 22.2477 20.4542 22.3973 20.4545 22.5484C20.4545 22.8144 20.542 23.0722 20.702 23.2779C20.8621 23.4836 21.0849 23.6244 21.3324 23.6764C21.5799 23.7283 21.8369 23.6882 22.0595 23.5628C22.2821 23.4375 22.4566 23.2346 22.5532 22.9889C22.6499 22.7431 22.6627 22.4696 22.5894 22.215C22.5162 21.9604 22.3615 21.7404 22.1517 21.5926C21.9419 21.4448 21.6899 21.3782 21.4387 21.4042C21.1875 21.4303 20.9527 21.5473 20.7742 21.7354Z" fill="#2C2B31"/>
</svg>
