<svg width="65" height="11" viewBox="0 0 65 11" fill="none" xmlns="http://www.w3.org/2000/svg">
<path d="M0.870214 10.5V0.0746204H0.884114L6.24971 7.6782L5.61029 7.53919L10.9481 0.0746204H10.9759V10.5H9.50243V3.42464L9.59973 4.18917L5.8744 9.45746H5.84659L2.05176 4.18917L2.30197 3.49415V10.5H0.870214ZM15.9198 10.639C15.373 10.639 14.8773 10.5278 14.4324 10.3054C13.9876 10.0737 13.6355 9.73084 13.376 9.27676C13.1165 8.82267 12.9868 8.26202 12.9868 7.59479C12.9868 6.93684 13.1212 6.37155 13.3899 5.89893C13.6679 5.42632 14.0293 5.0649 14.4741 4.81469C14.9282 4.55522 15.4194 4.42548 15.9476 4.42548C16.5036 4.42548 16.9577 4.54595 17.3098 4.78689C17.6713 5.01857 17.9539 5.29194 18.1578 5.60702L18.0605 5.82943L18.1995 4.67569H19.52V10.5H18.0883V9.04045L18.2412 9.38796C18.2041 9.4621 18.1253 9.56867 18.0049 9.70767C17.8844 9.83741 17.7222 9.97641 17.5183 10.1247C17.3237 10.273 17.0921 10.3981 16.8233 10.5C16.5638 10.5927 16.2627 10.639 15.9198 10.639ZM16.309 9.47136C16.6148 9.47136 16.8882 9.41576 17.1291 9.30456C17.3701 9.19335 17.574 9.03581 17.7408 8.83194C17.9076 8.62807 18.0234 8.38712 18.0883 8.10911V6.89977C18.0141 6.64029 17.889 6.41788 17.713 6.23254C17.5369 6.03794 17.3237 5.88503 17.0735 5.77383C16.8326 5.66262 16.5638 5.60702 16.2673 5.60702C15.9337 5.60702 15.6279 5.69042 15.3499 5.85723C15.0719 6.01477 14.8495 6.23718 14.6826 6.52446C14.5158 6.81173 14.4324 7.14534 14.4324 7.52529C14.4324 7.8867 14.5158 8.21568 14.6826 8.51223C14.8587 8.80877 15.0904 9.04508 15.3777 9.22115C15.6649 9.38796 15.9754 9.47136 16.309 9.47136ZM24.0071 6.77466L25.3415 4.67569H26.7733L24.5214 7.8172L24.0071 6.77466ZM27.0096 10.5H25.2998L20.8516 4.67569H22.617L27.0096 10.5ZM23.8403 8.40102L22.3668 10.5H20.9211L23.173 7.44189L23.8403 8.40102ZM29.5609 0.408233L32.8136 8.52613L31.9656 8.37322L35.0099 0.408233H36.7613L32.2715 10.9726L27.7955 0.408233H29.5609ZM38.2203 4.67569H39.6521V10.5H38.2203V4.67569ZM38.1369 2.59061C38.1369 2.3682 38.225 2.18286 38.401 2.03459C38.5771 1.88632 38.7671 1.81218 38.971 1.81218C39.1841 1.81218 39.3741 1.88632 39.5409 2.03459C39.7077 2.18286 39.7911 2.3682 39.7911 2.59061C39.7911 2.81302 39.7077 2.99836 39.5409 3.14663C39.3741 3.28564 39.1841 3.35514 38.971 3.35514C38.7671 3.35514 38.5771 3.28564 38.401 3.14663C38.225 2.99836 38.1369 2.81302 38.1369 2.59061ZM43.5271 10.6251C43.1008 10.6251 42.6884 10.551 42.2899 10.4027C41.8914 10.2452 41.5625 10.0181 41.303 9.72157L41.9146 8.91534C42.1648 9.14702 42.415 9.32309 42.6652 9.44356C42.9247 9.55477 43.1703 9.61037 43.402 9.61037C43.5873 9.61037 43.7541 9.59183 43.9024 9.55477C44.0507 9.50843 44.1711 9.43429 44.2638 9.33236C44.3565 9.23042 44.4028 9.09605 44.4028 8.92924C44.4028 8.73464 44.3379 8.58173 44.2082 8.47053C44.0785 8.35932 43.9116 8.26665 43.7078 8.19252C43.5039 8.11838 43.2861 8.04888 43.0544 7.98401C42.5633 7.82647 42.1926 7.60406 41.9424 7.31678C41.6922 7.02024 41.5671 6.67273 41.5671 6.27425C41.5671 5.96844 41.6412 5.68116 41.7895 5.41241C41.947 5.1344 42.1833 4.90736 42.4984 4.73129C42.8135 4.55522 43.2027 4.46718 43.6661 4.46718C44.0924 4.46718 44.4677 4.51815 44.792 4.62009C45.1164 4.71276 45.4175 4.87493 45.6955 5.1066L45.1395 5.96844C44.9727 5.80163 44.7735 5.67652 44.5418 5.59312C44.3194 5.50045 44.1155 5.44948 43.9302 5.44022C43.7634 5.44022 43.6105 5.46802 43.4715 5.52362C43.3325 5.56995 43.2213 5.64409 43.1379 5.74603C43.0544 5.8387 43.0127 5.9499 43.0127 6.07964C43.0035 6.26498 43.0637 6.41788 43.1935 6.53836C43.3325 6.64956 43.5085 6.74223 43.7217 6.81637C43.9348 6.88123 44.1433 6.95074 44.3472 7.02487C44.6345 7.10828 44.8893 7.22411 45.1117 7.37239C45.3341 7.51139 45.5102 7.68283 45.6399 7.8867C45.7697 8.09058 45.8345 8.35006 45.8345 8.66513C45.8345 9.00801 45.7511 9.33236 45.5843 9.63817C45.4175 9.93471 45.1627 10.1757 44.8198 10.361C44.4769 10.5371 44.046 10.6251 43.5271 10.6251ZM47.6005 4.67569H49.0322V10.5H47.6005V4.67569ZM47.5171 2.59061C47.5171 2.3682 47.6051 2.18286 47.7812 2.03459C47.9572 1.88632 48.1472 1.81218 48.3511 1.81218C48.5642 1.81218 48.7542 1.88632 48.921 2.03459C49.0878 2.18286 49.1712 2.3682 49.1712 2.59061C49.1712 2.81302 49.0878 2.99836 48.921 3.14663C48.7542 3.28564 48.5642 3.35514 48.3511 3.35514C48.1472 3.35514 47.9572 3.28564 47.7812 3.14663C47.6051 2.99836 47.5171 2.81302 47.5171 2.59061ZM50.7109 7.52529C50.7109 6.94147 50.8499 6.41788 51.1279 5.95453C51.4059 5.48192 51.7905 5.11124 52.2817 4.84249C52.7728 4.57375 53.3335 4.43938 53.9636 4.43938C54.6031 4.43938 55.1637 4.57375 55.6456 4.84249C56.1275 5.11124 56.4982 5.48192 56.7576 5.95453C57.0264 6.41788 57.1607 6.94147 57.1607 7.52529C57.1607 8.10911 57.0264 8.63733 56.7576 9.10995C56.4982 9.58257 56.1275 9.95788 55.6456 10.2359C55.1637 10.5046 54.5984 10.639 53.9497 10.639C53.3288 10.639 52.7728 10.5139 52.2817 10.2637C51.7998 10.0135 51.4152 9.6567 51.1279 9.19335C50.8499 8.72074 50.7109 8.16471 50.7109 7.52529ZM52.1566 7.53919C52.1566 7.90061 52.2353 8.22958 52.3929 8.52613C52.5504 8.81341 52.7636 9.04508 53.0323 9.22115C53.301 9.38796 53.6022 9.47136 53.9358 9.47136C54.2787 9.47136 54.5845 9.38796 54.8533 9.22115C55.122 9.04508 55.3305 8.81341 55.4788 8.52613C55.6363 8.22958 55.7151 7.90061 55.7151 7.53919C55.7151 7.17778 55.6363 6.85343 55.4788 6.56616C55.3305 6.27888 55.122 6.0472 54.8533 5.87113C54.5845 5.69506 54.2787 5.60702 53.9358 5.60702C53.5929 5.60702 53.2871 5.69506 53.0184 5.87113C52.7497 6.0472 52.5365 6.28351 52.379 6.58006C52.2307 6.86733 52.1566 7.18705 52.1566 7.53919ZM60.1327 4.67569L60.2578 6.01014L60.2022 5.82943C60.3968 5.41241 60.698 5.0788 61.1058 4.82859C61.5135 4.56912 61.9954 4.43938 62.5514 4.43938C63.0982 4.43938 63.5476 4.60155 63.8998 4.9259C64.2612 5.25024 64.4465 5.67189 64.4558 6.19084V10.5H63.024V6.69126C63.0148 6.39472 62.9267 6.15378 62.7599 5.96844C62.5931 5.77383 62.3337 5.67189 61.9815 5.66262C61.6664 5.66262 61.3792 5.75993 61.1197 5.95453C60.8602 6.13987 60.6563 6.39472 60.5081 6.71906C60.3598 7.04341 60.2856 7.41872 60.2856 7.845V10.5H58.8539V4.67569H60.1327Z" fill="white" fill-opacity="0.8"/>
</svg>
