<svg width="266" height="54" viewBox="0 0 266 54" fill="none" xmlns="http://www.w3.org/2000/svg">
<path d="M5.508 41V0.499997H5.562L26.406 30.038L23.922 29.498L44.658 0.499997H44.766V41H39.042V13.514L39.42 16.484L24.948 36.95H24.84L10.098 16.484L11.07 13.784V41H5.508ZM63.9719 41.54C61.8479 41.54 59.9219 41.108 58.1939 40.244C56.4659 39.344 55.0979 38.012 54.0899 36.248C53.0819 34.484 52.5779 32.306 52.5779 29.714C52.5779 27.158 53.0999 24.962 54.1439 23.126C55.2239 21.29 56.6279 19.886 58.3559 18.914C60.1199 17.906 62.0279 17.402 64.0799 17.402C66.2399 17.402 68.0039 17.87 69.3719 18.806C70.7759 19.706 71.8739 20.768 72.6659 21.992L72.2879 22.856L72.8279 18.374H77.9579V41H72.3959V35.33L72.9899 36.68C72.8459 36.968 72.5399 37.382 72.0719 37.922C71.6039 38.426 70.9739 38.966 70.1819 39.542C69.4259 40.118 68.5259 40.604 67.4819 41C66.4739 41.36 65.3039 41.54 63.9719 41.54ZM65.4839 37.004C66.6719 37.004 67.7339 36.788 68.6699 36.356C69.6059 35.924 70.3979 35.312 71.0459 34.52C71.6939 33.728 72.1439 32.792 72.3959 31.712V27.014C72.1079 26.006 71.6219 25.142 70.9379 24.422C70.2539 23.666 69.4259 23.072 68.4539 22.64C67.5179 22.208 66.4739 21.992 65.3219 21.992C64.0259 21.992 62.8379 22.316 61.7579 22.964C60.6779 23.576 59.8139 24.44 59.1659 25.556C58.5179 26.672 58.1939 27.968 58.1939 29.444C58.1939 30.848 58.5179 32.126 59.1659 33.278C59.8499 34.43 60.7499 35.348 61.8659 36.032C62.9819 36.68 64.1879 37.004 65.4839 37.004ZM95.3889 26.528L100.573 18.374H106.135L97.3869 30.578L95.3889 26.528ZM107.053 41H100.411L83.1309 18.374H89.9889L107.053 41ZM94.7409 32.846L89.0169 41H83.4009L92.1489 29.12L94.7409 32.846ZM116.964 1.796L129.6 33.332L126.306 32.738L138.132 1.796H144.936L127.494 42.836L110.106 1.796H116.964ZM150.604 18.374H156.166V41H150.604V18.374ZM150.28 10.274C150.28 9.41 150.622 8.69 151.306 8.114C151.99 7.538 152.728 7.25 153.52 7.25C154.348 7.25 155.086 7.538 155.734 8.114C156.382 8.69 156.706 9.41 156.706 10.274C156.706 11.138 156.382 11.858 155.734 12.434C155.086 12.974 154.348 13.244 153.52 13.244C152.728 13.244 151.99 12.974 151.306 12.434C150.622 11.858 150.28 11.138 150.28 10.274ZM171.219 41.486C169.563 41.486 167.961 41.198 166.413 40.622C164.865 40.01 163.587 39.128 162.579 37.976L164.955 34.844C165.927 35.744 166.899 36.428 167.871 36.896C168.879 37.328 169.833 37.544 170.733 37.544C171.453 37.544 172.101 37.472 172.677 37.328C173.253 37.148 173.721 36.86 174.081 36.464C174.441 36.068 174.621 35.546 174.621 34.898C174.621 34.142 174.369 33.548 173.865 33.116C173.361 32.684 172.713 32.324 171.921 32.036C171.129 31.748 170.283 31.478 169.383 31.226C167.475 30.614 166.035 29.75 165.063 28.634C164.091 27.482 163.605 26.132 163.605 24.584C163.605 23.396 163.893 22.28 164.469 21.236C165.081 20.156 165.999 19.274 167.223 18.59C168.447 17.906 169.959 17.564 171.759 17.564C173.415 17.564 174.873 17.762 176.133 18.158C177.393 18.518 178.563 19.148 179.643 20.048L177.483 23.396C176.835 22.748 176.061 22.262 175.161 21.938C174.297 21.578 173.505 21.38 172.785 21.344C172.137 21.344 171.543 21.452 171.003 21.668C170.463 21.848 170.031 22.136 169.707 22.532C169.383 22.892 169.221 23.324 169.221 23.828C169.185 24.548 169.419 25.142 169.923 25.61C170.463 26.042 171.147 26.402 171.975 26.69C172.803 26.942 173.613 27.212 174.405 27.5C175.521 27.824 176.511 28.274 177.375 28.85C178.239 29.39 178.923 30.056 179.427 30.848C179.931 31.64 180.183 32.648 180.183 33.872C180.183 35.204 179.859 36.464 179.211 37.652C178.563 38.804 177.573 39.74 176.241 40.46C174.909 41.144 173.235 41.486 171.219 41.486ZM187.043 18.374H192.605V41H187.043V18.374ZM186.719 10.274C186.719 9.41 187.061 8.69 187.745 8.114C188.429 7.538 189.167 7.25 189.959 7.25C190.787 7.25 191.525 7.538 192.173 8.114C192.821 8.69 193.145 9.41 193.145 10.274C193.145 11.138 192.821 11.858 192.173 12.434C191.525 12.974 190.787 13.244 189.959 13.244C189.167 13.244 188.429 12.974 187.745 12.434C187.061 11.858 186.719 11.138 186.719 10.274ZM199.127 29.444C199.127 27.176 199.667 25.142 200.747 23.342C201.827 21.506 203.321 20.066 205.229 19.022C207.137 17.978 209.315 17.456 211.763 17.456C214.247 17.456 216.425 17.978 218.297 19.022C220.169 20.066 221.609 21.506 222.617 23.342C223.661 25.142 224.183 27.176 224.183 29.444C224.183 31.712 223.661 33.764 222.617 35.6C221.609 37.436 220.169 38.894 218.297 39.974C216.425 41.018 214.229 41.54 211.709 41.54C209.297 41.54 207.137 41.054 205.229 40.082C203.357 39.11 201.863 37.724 200.747 35.924C199.667 34.088 199.127 31.928 199.127 29.444ZM204.743 29.498C204.743 30.902 205.049 32.18 205.661 33.332C206.273 34.448 207.101 35.348 208.145 36.032C209.189 36.68 210.359 37.004 211.655 37.004C212.987 37.004 214.175 36.68 215.219 36.032C216.263 35.348 217.073 34.448 217.649 33.332C218.261 32.18 218.567 30.902 218.567 29.498C218.567 28.094 218.261 26.834 217.649 25.718C217.073 24.602 216.263 23.702 215.219 23.018C214.175 22.334 212.987 21.992 211.655 21.992C210.323 21.992 209.135 22.334 208.091 23.018C207.047 23.702 206.219 24.62 205.607 25.772C205.031 26.888 204.743 28.13 204.743 29.498ZM235.728 18.374L236.214 23.558L235.998 22.856C236.754 21.236 237.924 19.94 239.508 18.968C241.092 17.96 242.964 17.456 245.124 17.456C247.248 17.456 248.994 18.086 250.362 19.346C251.766 20.606 252.486 22.244 252.522 24.26V41H246.96V26.204C246.924 25.052 246.582 24.116 245.934 23.396C245.286 22.64 244.278 22.244 242.91 22.208C241.686 22.208 240.57 22.586 239.562 23.342C238.554 24.062 237.762 25.052 237.186 26.312C236.61 27.572 236.322 29.03 236.322 30.686V41H230.76V18.374H235.728Z" fill="#F59607"/>
<path d="M259.803 7V1.90909H261.618C262.012 1.90909 262.34 1.97704 262.6 2.11293C262.862 2.24882 263.057 2.43691 263.187 2.6772C263.316 2.91584 263.381 3.19176 263.381 3.50497C263.381 3.81652 263.315 4.09079 263.184 4.32777C263.055 4.56309 262.859 4.74621 262.597 4.87713C262.337 5.00805 262.01 5.07351 261.616 5.07351H260.241V4.41229H261.546C261.795 4.41229 261.997 4.37666 262.153 4.3054C262.31 4.23414 262.425 4.13056 262.498 3.99467C262.571 3.85878 262.607 3.69555 262.607 3.50497C262.607 3.31274 262.57 3.14619 262.496 3.00533C262.423 2.86446 262.307 2.75675 262.15 2.68217C261.994 2.60594 261.79 2.56783 261.536 2.56783H260.572V7H259.803ZM262.317 4.70312L263.574 7H262.699L261.466 4.70312H262.317Z" fill="#F59607"/>
<circle cx="261.5" cy="4.5" r="4" stroke="#F59607"/>
</svg>
