<svg width="43" height="27" viewBox="0 0 43 27" fill="none" xmlns="http://www.w3.org/2000/svg">
<rect x="1.10156" y="0.5" width="41" height="26" rx="3.5" fill="white" stroke="#9B9B9B"/>
<path d="M17.5349 16.8491V8.11377H20.8113C21.4833 8.11377 22.0465 8.23874 22.5029 8.48868C22.9594 8.73863 23.3053 9.08275 23.5389 9.51925C23.7726 9.95574 23.8903 10.452 23.8903 11.0062C23.8903 11.5605 23.7726 12.064 23.5371 12.4986C23.3017 12.9333 22.9521 13.2756 22.4921 13.5238C22.032 13.7719 21.4633 13.8969 20.7896 13.8969H18.618V12.5964H20.5758C20.9689 12.5964 21.2895 12.5276 21.5394 12.3918C21.7893 12.2559 21.9759 12.0676 22.0954 11.8285C22.2168 11.5894 22.2765 11.3159 22.2765 11.0044C22.2765 10.6929 22.2168 10.4212 22.0954 10.1858C21.9741 9.95031 21.7875 9.76557 21.5358 9.63335C21.284 9.50114 20.9598 9.43593 20.565 9.43593H19.1142V16.8509H17.5312L17.5349 16.8491Z" fill="#9B9B9B"/>
<path d="M26.965 16.9817C26.5502 16.9817 26.1771 16.9074 25.8457 16.7571C25.5142 16.6086 25.2534 16.3876 25.0614 16.0942C24.8694 15.8008 24.7734 15.4404 24.7734 15.0111C24.7734 14.6416 24.8423 14.3355 24.9781 14.0946C25.1139 13.8538 25.3005 13.66 25.5378 13.5151C25.7732 13.3702 26.0395 13.2597 26.3383 13.1836C26.6353 13.1075 26.9432 13.0532 27.262 13.0188C27.646 12.979 27.9575 12.9427 28.1966 12.9101C28.4356 12.8775 28.6095 12.8268 28.72 12.7562C28.8305 12.6855 28.8848 12.5769 28.8848 12.4302V12.4048C28.8848 12.0842 28.7888 11.8343 28.5987 11.6586C28.4085 11.4829 28.1332 11.3942 27.7746 11.3942C27.396 11.3942 27.0972 11.4775 26.8762 11.6423C26.6553 11.8071 26.5067 12.0027 26.4307 12.2273L24.989 12.0226C25.1031 11.6242 25.2896 11.2909 25.5522 11.0229C25.8131 10.7548 26.1336 10.552 26.5122 10.4179C26.8907 10.2821 27.3091 10.2151 27.7655 10.2151C28.0807 10.2151 28.3958 10.2513 28.7091 10.3256C29.0225 10.3998 29.3086 10.5212 29.5658 10.6896C29.8248 10.8581 30.0331 11.0881 30.1907 11.3779C30.3483 11.6677 30.4279 12.0299 30.4279 12.4664V16.8513H28.9428V15.9511H28.8921C28.7979 16.1322 28.6675 16.3025 28.4972 16.46C28.3288 16.6176 28.1169 16.7444 27.8615 16.8404C27.6061 16.9364 27.3091 16.9835 26.9686 16.9835L26.965 16.9817ZM27.3652 15.8479C27.675 15.8479 27.9448 15.7863 28.1712 15.6631C28.3994 15.54 28.5751 15.3751 28.6983 15.1705C28.8214 14.9658 28.883 14.743 28.883 14.5003V13.7288C28.8341 13.7686 28.7526 13.8049 28.6385 13.8393C28.5244 13.8737 28.394 13.9027 28.2527 13.9298C28.1096 13.9552 27.9702 13.9787 27.8307 13.9986C27.6913 14.0186 27.5699 14.0367 27.4685 14.0494C27.2385 14.0802 27.032 14.1327 26.8491 14.2033C26.6661 14.2739 26.523 14.3736 26.418 14.5003C26.3129 14.6271 26.2604 14.7901 26.2604 14.9894C26.2604 15.2737 26.3637 15.4893 26.5719 15.6341C26.7802 15.779 27.0447 15.8515 27.3652 15.8515V15.8479Z" fill="#9B9B9B"/>
<path d="M32.7045 19.3069C32.4944 19.3069 32.3006 19.2906 32.1231 19.258C31.9456 19.2254 31.8043 19.1874 31.6993 19.1457L32.0579 17.9431C32.2825 18.0083 32.4835 18.0391 32.6592 18.0373C32.8349 18.0337 32.9907 17.9793 33.1265 17.8725C33.2623 17.7656 33.3764 17.5881 33.4706 17.3418L33.6028 16.9886L31.2266 10.2999H32.8639L34.3744 15.2481H34.4432L35.9574 10.2999H37.6001L34.9757 17.6461C34.8526 17.9938 34.6914 18.2909 34.4885 18.539C34.2856 18.7871 34.0393 18.9791 33.7477 19.1113C33.4561 19.2435 33.1084 19.3088 32.7045 19.3088V19.3069Z" fill="#9B9B9B"/>
<path d="M10.4465 17.3165C7.99232 17.3165 6.21012 15.6683 6.21012 13.3989C6.21012 12.5803 6.46006 11.3758 7.65001 10.2891L7.67356 10.2674L8.93233 11.5696C8.91784 11.5841 8.89792 11.6022 8.87256 11.6258C8.30747 12.1419 8.0213 12.7378 8.0213 13.3989C8.0213 14.6595 8.99572 15.5053 10.4465 15.5053C12.3283 15.5053 13.5454 14.1922 13.5454 12.1582C13.5454 10.5354 12.2667 8.81118 9.89769 8.81118C8.14265 8.81118 6.9364 10.0555 6.92554 10.0681L5.60156 8.82929C5.67039 8.75504 7.33486 7 9.89588 7C13.3136 7 15.3548 9.62259 15.3548 12.1582C15.3548 15.1956 13.3353 17.3165 10.4447 17.3165H10.4465Z" fill="#9B9B9B"/>
</svg>
