<svg version="1.1" id="Calque_1" xmlns="http://www.w3.org/2000/svg" x="0" y="0" viewBox="0 0 80 20" style="enable-background:new 0 0 80 20" xml:space="preserve"><style>.st0{fill:#f8ba72}</style><path class="st0" d="M4.3 16.9c-.3 0-.4-.2-.4-.5.1-.9.3-1.7.4-2.6.1-.5.2-1.1.3-1.6 0-.2 0-.4-.2-.6-1-1-2-1.9-3-2.9 0 0-.1-.3-.1-.4.1-.1.3-.2.4-.3 1.4-.2 2.7-.4 4.1-.6.2 0 .4-.1.5-.4.6-1.2 1.2-2.5 1.8-3.7.1-.2.3-.3.4-.3.1 0 .3.2.4.3.6 1.2 1.2 2.4 1.8 3.7.1.2.3.3.5.4 1.4.2 2.7.4 4.1.6.2 0 .4.1.4.3 0 .1-.1.3-.2.4l-2.9 2.9c-.2.2-.3.4-.2.7.2 1.3.5 2.6.7 3.9v.2c0 .1 0 .4-.1.4-.1.1-.3 0-.5 0-1.2-.6-2.4-1.2-3.6-1.9-.3-.2-.6-.2-.9 0-1.2.6-2.3 1.2-3.5 1.9 0 0-.1.1-.2.1zM20 16.9c-.3 0-.4-.2-.4-.5.1-.9.3-1.7.4-2.6.1-.5.2-1.1.3-1.6 0-.2 0-.4-.2-.6-1-1-2-1.9-3-2.9 0 0-.1-.2-.1-.3.1-.1.3-.2.4-.3 1.4-.2 2.7-.4 4.1-.6.2 0 .4-.1.5-.4.6-1.2 1.2-2.5 1.8-3.7.1-.2.3-.3.4-.3.1 0 .3.2.4.3.6 1.2 1.2 2.4 1.8 3.7.1.2.3.3.5.4 1.4.2 2.7.4 4.1.6.2 0 .4.1.4.3 0 .1-.1.3-.2.4l-2.9 2.9c-.2.2-.3.4-.2.7.2 1.3.5 2.6.7 3.9v.2c0 .1 0 .4-.1.4-.1.1-.3 0-.5 0-1.2-.6-2.4-1.2-3.6-1.9-.3-.2-.6-.2-.9 0-1.2.6-2.3 1.2-3.5 1.9H20zM35.8 16.9c-.3 0-.4-.2-.4-.5.1-.9.3-1.7.4-2.6.1-.5.2-1.1.3-1.6 0-.2 0-.4-.2-.6-1-1-2-1.9-3-2.9-.1-.1-.2-.3-.2-.4.1-.1.3-.2.4-.3 1.4-.2 2.7-.4 4.1-.6.2 0 .4-.1.5-.4.6-1.2 1.2-2.5 1.8-3.7.1-.2.3-.3.4-.3.1 0 .3.2.4.3.6 1.2 1.2 2.4 1.8 3.7.1.2.3.3.5.4 1.4.2 2.7.4 4.1.6.2 0 .4.1.4.3 0 .1-.1.3-.2.4L44 11.6c-.2.2-.3.4-.2.7.2 1.3.5 2.6.7 3.9v.2c0 .1 0 .4-.1.4-.1.1-.3 0-.5 0-1.2-.6-2.4-1.2-3.6-1.9-.3-.2-.6-.2-.9 0-1.2.6-2.3 1.2-3.5 1.9 0 .1-.1.1-.1.1zM51.5 16.9c-.3 0-.4-.2-.4-.5.1-.9.3-1.7.4-2.6.1-.5.2-1.1.3-1.6 0-.2 0-.4-.2-.6-1-1-2-1.9-3-2.9-.1-.1-.2-.3-.2-.4.1-.1.3-.2.4-.3 1.4-.2 2.7-.4 4.1-.6.2 0 .4-.1.5-.4.6-1.2 1.2-2.5 1.8-3.7.1-.2.3-.3.4-.3.1 0 .3.2.4.3.6 1.2 1.2 2.4 1.8 3.7.1.2.3.3.5.4 1.4.2 2.7.4 4.1.6.2 0 .4.1.4.3 0 .1-.1.3-.2.4l-2.9 2.9c-.2.2-.3.4-.2.7.2 1.3.5 2.6.7 3.9v.2c0 .1 0 .4-.1.4-.1.1-.3 0-.5 0-1.2-.6-2.4-1.2-3.6-1.9-.3-.2-.6-.2-.9 0-1.2.6-2.3 1.2-3.5 1.9.1.1-.1.1-.1.1zM67.2 16.9c-.3 0-.4-.2-.4-.5.1-.9.3-1.7.4-2.6.1-.5.2-1.1.3-1.6 0-.2 0-.4-.2-.6-1-1-2-1.9-3-2.9-.1-.1-.2-.3-.2-.4.1-.1.3-.2.4-.3 1.4-.2 2.7-.4 4.1-.6.2 0 .4-.1.5-.4.6-1.2 1.2-2.5 1.8-3.7.1-.2.3-.3.4-.3.1 0 .3.2.4.3.6 1.2 1.2 2.4 1.8 3.7.1.2.3.3.5.4 1.4.2 2.7.4 4.1.6.2 0 .4.1.4.3 0 .1-.1.3-.2.4l-2.9 2.9c-.2.2-.3.4-.2.7.2 1.3.5 2.6.7 3.9v.2c0 .1 0 .4-.1.4-.1.1-.3 0-.5 0-1.2-.6-2.4-1.2-3.6-1.9-.3-.2-.6-.2-.9 0-1.2.6-2.3 1.2-3.5 1.9.1.1 0 .1-.1.1z"/></svg>