<svg width="48" height="32" viewBox="0 0 48 32" fill="none" xmlns="http://www.w3.org/2000/svg">
<rect width="48" height="32" rx="4" fill="#F2F0EC"/>
<g opacity="0.01">
<rect x="4.6499" y="3.19995" width="38.71" height="25.6" fill="white"/>
</g>
<rect x="18.8999" y="7.65991" width="10.21" height="16.68" fill="#F26122"/>
<path d="M19.9998 15.9999C19.9829 12.7535 21.4575 9.67899 23.9998 7.65994C19.65 4.23923 13.4017 4.73596 9.64705 8.80094C5.89239 12.8659 5.89239 19.1339 9.64705 23.1989C13.4017 27.2639 19.65 27.7606 23.9998 24.3399C21.4575 22.3209 19.9829 19.2464 19.9998 15.9999Z" fill="#EA1D25"/>
<path fill-rule="evenodd" clip-rule="evenodd" d="M40.1399 22.2299V22.5699H40.0799V22.2299H39.9399V22.1599H40.2899V22.2299H40.1399ZM40.8199 22.1599V22.5699H40.7499V22.2599L40.6399 22.5299H40.5599L40.4399 22.2599V22.5699H40.3699V22.1599H40.4699L40.5999 22.4499L40.7199 22.1599H40.8199Z" fill="#F69E1E"/>
<path d="M41.16 16C41.1574 20.0593 38.8389 23.7614 35.1879 25.5358C31.5369 27.3102 27.1935 26.846 24 24.34C28.6001 20.7179 29.3967 14.0543 25.78 9.44999C25.2616 8.78326 24.6638 8.18216 24 7.65999C27.1935 5.15398 31.5369 4.68973 35.1879 6.46416C38.8389 8.23859 41.1574 11.9406 41.16 16Z" fill="#F69E1E"/>
</svg>
