<svg width="184" height="49" fill="none" xmlns="http://www.w3.org/2000/svg"><path d="M6.334 46.372v2.299H5.29V47.33H.117v-6.096H1.23v5.138h3.074v-5.138H5.43v5.138h.905zm6.81.008v.95H8.572v-6.096h4.45v.95H9.704v1.584h2.944v.932H9.704v1.68h3.44zm7.88-5.146v6.096h-1.132v-2.613H16.74v2.613h-1.132v-6.096h1.132v2.517h3.152v-2.517h1.132zm7.336.958h-2.021v5.138h-1.123v-5.138h-2.012v-.958h5.155v.958zm4.685-.958c.528 0 .987.087 1.376.261.395.174.697.424.906.75.209.324.313.71.313 1.157 0 .441-.104.828-.313 1.158-.21.325-.511.575-.906.75-.389.173-.848.26-1.376.26H31.67v1.76h-1.132v-6.096h2.508zm-.052 3.379c.493 0 .868-.105 1.123-.314.256-.209.383-.508.383-.897s-.127-.688-.383-.897c-.255-.209-.63-.313-1.123-.313h-1.324v2.42h1.324zm14.657 1.759v2.255h-1.045V47.33h-4.677v1.297h-1.053l.008-2.255h.262c.383-.018.65-.3.8-.845.157-.552.253-1.338.288-2.36l.07-1.933h4.467v5.138h.88zm-4.424-3.1c-.03.79-.093 1.448-.192 1.976-.098.523-.255.897-.47 1.124h3.091v-4.18H43.27l-.043 1.08zm11.263 3.108v.95h-4.572v-6.096h4.45v.95h-3.318v1.584h2.944v.932h-2.944v1.68h3.44zm7.671-5.146v6.096h-1.115v-5.138h-2.403l-.052 1.524c-.03.853-.1 1.547-.21 2.08-.11.53-.287.933-.53 1.211-.244.273-.581.41-1.01.41-.152 0-.358-.03-.619-.087l.078-.984a.89.89 0 00.262.034c.354 0 .603-.209.749-.627.15-.423.243-1.088.278-1.994l.087-2.525h4.485zm5.738 6.183a3.507 3.507 0 01-1.68-.4 3.04 3.04 0 01-1.176-1.124 3.109 3.109 0 01-.427-1.611c0-.592.142-1.126.427-1.602a2.958 2.958 0 011.175-1.124c.5-.273 1.06-.41 1.68-.41.622 0 1.182.137 1.681.41.5.267.892.639 1.176 1.115a3.08 3.08 0 01.427 1.61 3.08 3.08 0 01-.427 1.612 3.04 3.04 0 01-1.175 1.123c-.5.267-1.06.4-1.681.4zm0-.993c.406 0 .772-.09 1.097-.27.325-.186.58-.441.766-.766.186-.331.279-.7.279-1.106 0-.407-.093-.772-.279-1.097a1.946 1.946 0 00-.766-.767 2.172 2.172 0 00-1.097-.278c-.407 0-.772.093-1.097.278-.326.18-.58.436-.767.767-.186.325-.278.69-.278 1.097 0 .406.093.775.278 1.106.186.325.441.58.767.766.325.18.69.27 1.097.27zm9.75-2.264c.39.104.685.284.889.54.203.25.304.563.304.94 0 .534-.197.95-.592 1.245-.394.297-.966.445-1.715.445h-2.891v-6.096h2.725c.685 0 1.22.136 1.603.41.383.272.574.658.574 1.157 0 .32-.078.595-.235.828-.15.232-.371.409-.662.53zm-2.89-.322h1.514c.366 0 .645-.073.837-.218.191-.145.287-.36.287-.644 0-.285-.096-.5-.287-.645-.192-.15-.47-.226-.837-.226h-1.515v1.733zm1.741 2.62c.801 0 1.202-.301 1.202-.905 0-.592-.4-.888-1.202-.888h-1.742v1.794H76.5zm7.655.959a3.507 3.507 0 01-1.68-.4 3.04 3.04 0 01-1.176-1.124 3.109 3.109 0 01-.427-1.611c0-.592.142-1.126.427-1.602a2.958 2.958 0 011.175-1.124c.5-.273 1.06-.41 1.681-.41s1.181.137 1.68.41c.5.267.892.639 1.176 1.115a3.08 3.08 0 01.427 1.61 3.08 3.08 0 01-.427 1.612 3.04 3.04 0 01-1.175 1.123c-.5.267-1.06.4-1.68.4zm0-.993c.407 0 .772-.09 1.097-.27.325-.186.58-.441.767-.766.185-.331.278-.7.278-1.106 0-.407-.093-.772-.278-1.097a1.946 1.946 0 00-.767-.767 2.172 2.172 0 00-1.097-.278 2.18 2.18 0 00-1.097.278c-.325.18-.58.436-.766.767-.186.325-.28.69-.28 1.097 0 .406.094.775.28 1.106.185.325.44.58.766.766.325.18.69.27 1.097.27zm5.745-5.19h1.115v4.328l3.274-4.328h1.053v6.096h-1.114v-4.32l-3.274 4.32h-1.054v-6.096zm2.708-.41c-.522 0-.917-.107-1.184-.322-.261-.214-.395-.528-.4-.94h.792c.006.215.075.38.209.496.133.117.328.175.583.175.25 0 .444-.058.584-.175.145-.116.22-.281.226-.496h.784c-.006.406-.145.72-.418.94-.267.215-.66.323-1.176.323zm9.262.41h1.115v4.328l3.274-4.328h1.054v6.096h-1.115v-4.32l-3.274 4.32h-1.054v-6.096zm13.77 0v6.096h-1.132v-2.613h-3.152v2.613h-1.132v-6.096h1.132v2.517h3.152v-2.517h1.132zm9.878 3.039c0 .801-.279 1.434-.836 1.898-.557.465-1.35.717-2.377.758v.644h-1.045v-.644c-1.028-.052-1.823-.308-2.386-.766-.557-.459-.836-1.089-.836-1.89 0-.801.279-1.431.836-1.89.563-.464 1.358-.722 2.386-.775v-.618h1.045v.618c1.027.053 1.82.311 2.377.775.557.459.836 1.089.836 1.89zm-3.213 1.768c.696-.052 1.225-.227 1.585-.523.36-.302.54-.72.54-1.254s-.183-.949-.549-1.245c-.36-.296-.885-.467-1.576-.514v3.536zm-3.161-1.768c0 .528.18.94.54 1.237.365.296.891.473 1.576.53v-3.535c-1.411.105-2.116.694-2.116 1.768zm11.586 3.144a3.51 3.51 0 01-1.681-.4 3.037 3.037 0 01-1.175-1.124 3.104 3.104 0 01-.427-1.611c0-.592.142-1.126.427-1.602a2.956 2.956 0 011.175-1.124 3.45 3.45 0 011.681-.41 3.45 3.45 0 011.681.41c.499.267.891.639 1.175 1.115.285.476.427 1.013.427 1.61 0 .599-.142 1.136-.427 1.612-.284.476-.676.85-1.175 1.123-.5.267-1.06.4-1.681.4zm0-.993c.406 0 .772-.09 1.097-.27a2.02 2.02 0 00.766-.766c.186-.331.279-.7.279-1.106a2.17 2.17 0 00-.279-1.097 1.941 1.941 0 00-.766-.767 2.172 2.172 0 00-1.097-.278 2.18 2.18 0 00-1.097.278 1.95 1.95 0 00-.767.767 2.18 2.18 0 00-.278 1.097c0 .406.093.775.278 1.106.186.325.442.58.767.766.325.18.691.27 1.097.27zm8.244-5.19c.528 0 .987.087 1.376.261.395.174.697.424.906.75.209.324.313.71.313 1.157 0 .441-.104.828-.313 1.158a2.004 2.004 0 01-.906.75c-.389.173-.848.26-1.376.26h-1.376v1.76h-1.132v-6.096h2.508zm-.052 3.379c.493 0 .868-.105 1.123-.314.256-.209.383-.508.383-.897s-.127-.688-.383-.897c-.255-.209-.63-.313-1.123-.313h-1.324v2.42h1.324zm10.519 2.717l-.009-4.041-2.003 3.344h-.505l-2.002-3.292v3.989h-1.072v-6.096h.932l2.412 4.032 2.386-4.032h.923l.018 6.096h-1.08zm8.028-1.411h-3.048l-.601 1.41h-1.167l2.743-6.095h1.115l2.752 6.096h-1.185l-.609-1.411zm-.375-.888l-1.149-2.665-1.141 2.665h2.29zm10.531 1.341v2.299h-1.045V47.33h-5.172v-6.096h1.114v5.138h3.074v-5.138h1.124v5.138h.905zm2.247-5.138h1.114v4.328l3.275-4.328h1.053v6.096h-1.114v-4.32l-3.274 4.32h-1.054v-6.096zm8.362 0h1.115v4.328l3.274-4.328h1.053v6.096h-1.114v-4.32l-3.274 4.32h-1.054v-6.096zM9.997 26.14H6.862v9.334H0V11.092h6.862v9.474h3.309l5.817-9.474h7.245l-7.628 11.773 7.698 12.61h-7.768l-5.538-9.336z" fill="#fff"/><path d="M41.76 30.737H31.45l-1.915 4.737h-7.037l10.764-24.382h6.792l10.798 24.382h-7.176l-1.915-4.737zm-2.02-5.085l-3.135-7.803-3.134 7.803h6.27zm36.79-14.56v24.382h-6.826V16.56h-9.266v18.914h-6.792V11.092h22.885zm5.213 0h6.792v14.316l10.067-14.316h6.478v24.382h-6.792v-14.28l-10.031 14.28h-6.514V11.092zm48.218 5.468h-7.454v18.914h-6.792V16.56h-7.489v-5.468h21.735v5.468zm18.779 14.177h-10.31l-1.916 4.737h-7.036l10.763-24.382h6.792l10.798 24.382h-7.175l-1.916-4.737zm-2.02-5.085l-3.135-7.803-3.135 7.803h6.27zm36.923-14.56v24.382h-6.793V16.56h-7.001l-.139 3.971c-.116 3.484-.406 6.317-.871 8.5-.441 2.182-1.207 3.877-2.299 5.085-1.091 1.184-2.635 1.776-4.632 1.776-.929 0-1.974-.14-3.135-.418l.383-5.643c.302.07.615.105.94.105.906 0 1.603-.36 2.09-1.08.488-.72.836-1.718 1.045-2.995.209-1.3.348-2.984.418-5.051l.348-9.718h19.646z" fill="#fff"/><path d="M.03 0h23.2v5.475H.03V0z" fill="#00B25D"/></svg>