<svg width="250" height="212" viewBox="0 0 250 212" fill="none" xmlns="http://www.w3.org/2000/svg">
<rect width="250" height="212" fill="url(#paint0_linear_2512_26)"/>
<path d="M157.959 106C157.959 87.8269 143.175 73.041 125 73.041C106.827 73.041 92.041 87.8269 92.041 106C92.041 124.175 106.827 138.959 125 138.959C143.175 138.959 157.959 124.175 157.959 106ZM136.603 127.002L131.368 111.626L126.152 126.951L119.253 127.002L128.051 101.879L125 92.9145L113.397 127.002H106.69L121.646 83.06V83.059L121.647 83.0569H128.352L128.355 83.059V83.06L131.453 92.1623L137.991 92.1692L134.723 101.772L143.311 127.002H136.603Z" fill="black"/>
<path d="M130.537 142.503V149.945C150.574 147.446 166.446 131.574 168.945 111.537H161.504C159.103 127.493 146.493 140.103 130.537 142.503Z" fill="black"/>
<path d="M119.463 69.4962V62.0547C99.4268 64.5552 83.5552 80.4268 81.0547 100.463H88.4962C90.8967 84.5072 103.507 71.8967 119.463 69.4962Z" fill="black"/>
<path d="M161.504 100.463H168.945C166.446 80.4268 150.574 64.5552 130.537 62.0547V69.4962C146.493 71.8967 159.103 84.5072 161.504 100.463Z" fill="black"/>
<path d="M88.4962 111.537H81.0547C83.5552 131.574 99.4261 147.446 119.463 149.945V142.503C103.507 140.103 90.8967 127.493 88.4962 111.537Z" fill="black"/>
<path d="M205.555 93L194.24 101.404L196.332 96.4459L205.555 93Z" fill="#E2761B" stroke="#E2761B" stroke-linecap="round" stroke-linejoin="round"/>
<path d="M179.433 93L190.658 101.484L188.668 96.4459L179.433 93Z" fill="#E4761B" stroke="#E4761B" stroke-linecap="round" stroke-linejoin="round"/>
<path d="M201.484 112.481L198.471 117.099L204.919 118.873L206.773 112.584L201.484 112.481Z" fill="#E4761B" stroke="#E4761B" stroke-linecap="round" stroke-linejoin="round"/>
<path d="M178.239 112.584L180.081 118.873L186.529 117.099L183.516 112.481L178.239 112.584Z" fill="#E4761B" stroke="#E4761B" stroke-linecap="round" stroke-linejoin="round"/>
<path d="M186.166 104.679L184.369 107.397L190.771 107.681L190.544 100.801L186.166 104.679Z" fill="#E4761B" stroke="#E4761B" stroke-linecap="round" stroke-linejoin="round"/>
<path d="M198.823 104.679L194.388 100.722L194.24 107.682L200.631 107.397L198.823 104.679Z" fill="#E4761B" stroke="#E4761B" stroke-linecap="round" stroke-linejoin="round"/>
<path d="M186.529 117.098L190.373 115.222L187.052 112.629L186.529 117.098Z" fill="#E4761B" stroke="#E4761B" stroke-linecap="round" stroke-linejoin="round"/>
<path d="M194.615 115.222L198.471 117.098L197.936 112.629L194.615 115.222Z" fill="#E4761B" stroke="#E4761B" stroke-linecap="round" stroke-linejoin="round"/>
<path d="M198.471 117.099L194.615 115.223L194.923 117.736L194.888 118.794L198.471 117.099Z" fill="#D7C1B3" stroke="#D7C1B3" stroke-linecap="round" stroke-linejoin="round"/>
<path d="M186.53 117.099L190.112 118.794L190.089 117.736L190.373 115.223L186.53 117.099Z" fill="#D7C1B3" stroke="#D7C1B3" stroke-linecap="round" stroke-linejoin="round"/>
<path d="M190.169 110.968L186.962 110.024L189.225 108.989L190.169 110.968Z" fill="#233447" stroke="#233447" stroke-linecap="round" stroke-linejoin="round"/>
<path d="M194.82 110.968L195.764 108.989L198.038 110.024L194.82 110.968Z" fill="#233447" stroke="#233447" stroke-linecap="round" stroke-linejoin="round"/>
<path d="M186.529 117.099L187.075 112.481L183.516 112.584L186.529 117.099Z" fill="#CD6116" stroke="#CD6116" stroke-linecap="round" stroke-linejoin="round"/>
<path d="M197.925 112.481L198.47 117.099L201.484 112.584L197.925 112.481Z" fill="#CD6116" stroke="#CD6116" stroke-linecap="round" stroke-linejoin="round"/>
<path d="M200.631 107.397L194.24 107.682L194.831 110.968L195.775 108.99L198.05 110.025L200.631 107.397Z" fill="#CD6116" stroke="#CD6116" stroke-linecap="round" stroke-linejoin="round"/>
<path d="M186.962 110.025L189.236 108.99L190.169 110.968L190.771 107.682L184.369 107.397L186.962 110.025Z" fill="#CD6116" stroke="#CD6116" stroke-linecap="round" stroke-linejoin="round"/>
<path d="M184.369 107.397L187.053 112.629L186.962 110.025L184.369 107.397Z" fill="#E4751F" stroke="#E4751F" stroke-linecap="round" stroke-linejoin="round"/>
<path d="M198.05 110.025L197.936 112.629L200.632 107.397L198.05 110.025Z" fill="#E4751F" stroke="#E4751F" stroke-linecap="round" stroke-linejoin="round"/>
<path d="M190.771 107.682L190.169 110.968L190.919 114.846L191.09 109.74L190.771 107.682Z" fill="#E4751F" stroke="#E4751F" stroke-linecap="round" stroke-linejoin="round"/>
<path d="M194.24 107.682L193.933 109.729L194.069 114.846L194.831 110.968L194.24 107.682Z" fill="#E4751F" stroke="#E4751F" stroke-linecap="round" stroke-linejoin="round"/>
<path d="M194.831 110.968L194.069 114.846L194.615 115.222L197.936 112.629L198.05 110.024L194.831 110.968Z" fill="#F6851B" stroke="#F6851B" stroke-linecap="round" stroke-linejoin="round"/>
<path d="M186.962 110.024L187.053 112.629L190.373 115.222L190.919 114.846L190.169 110.968L186.962 110.024Z" fill="#F6851B" stroke="#F6851B" stroke-linecap="round" stroke-linejoin="round"/>
<path d="M194.888 118.793L194.922 117.735L194.638 117.485H190.35L190.089 117.735L190.112 118.793L186.529 117.099L187.78 118.122L190.316 119.885H194.672L197.219 118.122L198.47 117.099L194.888 118.793Z" fill="#C0AD9E" stroke="#C0AD9E" stroke-linecap="round" stroke-linejoin="round"/>
<path d="M194.615 115.223L194.069 114.848H190.919L190.373 115.223L190.089 117.736L190.351 117.486H194.638L194.922 117.736L194.615 115.223Z" fill="#161616" stroke="#161616" stroke-linecap="round" stroke-linejoin="round"/>
<path d="M206.033 101.95L207 97.3102L205.556 93L194.615 101.12L198.823 104.68L204.771 106.42L206.09 104.884L205.521 104.475L206.431 103.645L205.726 103.099L206.636 102.405L206.033 101.95Z" fill="#763D16" stroke="#763D16" stroke-linecap="round" stroke-linejoin="round"/>
<path d="M178 97.3102L178.967 101.95L178.353 102.405L179.262 103.099L178.569 103.645L179.478 104.475L178.91 104.884L180.218 106.42L186.165 104.68L190.373 101.12L179.433 93L178 97.3102Z" fill="#763D16" stroke="#763D16" stroke-linecap="round" stroke-linejoin="round"/>
<path d="M204.771 106.42L198.823 104.68L200.631 107.398L197.936 112.629L201.484 112.584H206.772L204.771 106.42Z" fill="#F6851B" stroke="#F6851B" stroke-linecap="round" stroke-linejoin="round"/>
<path d="M186.165 104.68L180.218 106.42L178.239 112.584H183.516L187.052 112.629L184.369 107.398L186.165 104.68Z" fill="#F6851B" stroke="#F6851B" stroke-linecap="round" stroke-linejoin="round"/>
<path d="M194.24 107.682L194.615 101.12L196.344 96.4463H188.667L190.373 101.12L190.771 107.682L190.908 109.752L190.919 114.847H194.069L194.092 109.752L194.24 107.682Z" fill="#F6851B" stroke="#F6851B" stroke-linecap="round" stroke-linejoin="round"/>
<path d="M70.5554 94L59.2397 102.404L61.3323 97.4459L70.5554 94Z" fill="#E2761B" stroke="#E2761B" stroke-linecap="round" stroke-linejoin="round"/>
<path d="M44.4331 94L55.6578 102.484L53.6676 97.4459L44.4331 94Z" fill="#E4761B" stroke="#E4761B" stroke-linecap="round" stroke-linejoin="round"/>
<path d="M66.4844 113.481L63.4707 118.099L69.9189 119.873L71.7726 113.584L66.4844 113.481Z" fill="#E4761B" stroke="#E4761B" stroke-linecap="round" stroke-linejoin="round"/>
<path d="M43.2388 113.584L45.0811 119.873L51.5293 118.099L48.5156 113.481L43.2388 113.584Z" fill="#E4761B" stroke="#E4761B" stroke-linecap="round" stroke-linejoin="round"/>
<path d="M51.1655 105.679L49.3687 108.397L55.7714 108.681L55.5439 101.801L51.1655 105.679Z" fill="#E4761B" stroke="#E4761B" stroke-linecap="round" stroke-linejoin="round"/>
<path d="M63.8231 105.679L59.3878 101.722L59.24 108.682L65.6313 108.397L63.8231 105.679Z" fill="#E4761B" stroke="#E4761B" stroke-linecap="round" stroke-linejoin="round"/>
<path d="M51.5293 118.098L55.3732 116.222L52.0524 113.629L51.5293 118.098Z" fill="#E4761B" stroke="#E4761B" stroke-linecap="round" stroke-linejoin="round"/>
<path d="M59.6155 116.222L63.4708 118.098L62.9363 113.629L59.6155 116.222Z" fill="#E4761B" stroke="#E4761B" stroke-linecap="round" stroke-linejoin="round"/>
<path d="M63.4708 118.099L59.6155 116.223L59.9225 118.736L59.8884 119.794L63.4708 118.099Z" fill="#D7C1B3" stroke="#D7C1B3" stroke-linecap="round" stroke-linejoin="round"/>
<path d="M51.5295 118.099L55.1119 119.794L55.0891 118.736L55.3735 116.223L51.5295 118.099Z" fill="#D7C1B3" stroke="#D7C1B3" stroke-linecap="round" stroke-linejoin="round"/>
<path d="M55.1687 111.968L51.9617 111.024L54.2248 109.989L55.1687 111.968Z" fill="#233447" stroke="#233447" stroke-linecap="round" stroke-linejoin="round"/>
<path d="M59.8198 111.968L60.7637 109.989L63.0382 111.024L59.8198 111.968Z" fill="#233447" stroke="#233447" stroke-linecap="round" stroke-linejoin="round"/>
<path d="M51.5293 118.099L52.0752 113.481L48.5156 113.584L51.5293 118.099Z" fill="#CD6116" stroke="#CD6116" stroke-linecap="round" stroke-linejoin="round"/>
<path d="M62.9246 113.481L63.4704 118.099L66.4842 113.584L62.9246 113.481Z" fill="#CD6116" stroke="#CD6116" stroke-linecap="round" stroke-linejoin="round"/>
<path d="M65.6311 108.397L59.2397 108.682L59.8311 111.968L60.775 109.99L63.0495 111.025L65.6311 108.397Z" fill="#CD6116" stroke="#CD6116" stroke-linecap="round" stroke-linejoin="round"/>
<path d="M51.9616 111.025L54.2361 109.99L55.1686 111.968L55.7714 108.682L49.3687 108.397L51.9616 111.025Z" fill="#CD6116" stroke="#CD6116" stroke-linecap="round" stroke-linejoin="round"/>
<path d="M49.3687 108.397L52.0526 113.629L51.9616 111.025L49.3687 108.397Z" fill="#E4751F" stroke="#E4751F" stroke-linecap="round" stroke-linejoin="round"/>
<path d="M63.05 111.025L62.9363 113.629L65.6316 108.397L63.05 111.025Z" fill="#E4751F" stroke="#E4751F" stroke-linecap="round" stroke-linejoin="round"/>
<path d="M55.7714 108.682L55.1687 111.968L55.9193 115.846L56.0899 110.74L55.7714 108.682Z" fill="#E4751F" stroke="#E4751F" stroke-linecap="round" stroke-linejoin="round"/>
<path d="M59.2399 108.682L58.9329 110.729L59.0693 115.846L59.8313 111.968L59.2399 108.682Z" fill="#E4751F" stroke="#E4751F" stroke-linecap="round" stroke-linejoin="round"/>
<path d="M59.8313 111.968L59.0693 115.846L59.6152 116.222L62.936 113.629L63.0497 111.024L59.8313 111.968Z" fill="#F6851B" stroke="#F6851B" stroke-linecap="round" stroke-linejoin="round"/>
<path d="M51.9617 111.024L52.0527 113.629L55.3734 116.222L55.9193 115.846L55.1687 111.968L51.9617 111.024Z" fill="#F6851B" stroke="#F6851B" stroke-linecap="round" stroke-linejoin="round"/>
<path d="M59.8881 119.793L59.9222 118.735L59.6379 118.485H55.3505L55.0889 118.735L55.1116 119.793L51.5293 118.099L52.7803 119.122L55.3163 120.885H59.672L62.2195 119.122L63.4705 118.099L59.8881 119.793Z" fill="#C0AD9E" stroke="#C0AD9E" stroke-linecap="round" stroke-linejoin="round"/>
<path d="M59.6154 116.223L59.0695 115.848H55.9193L55.3734 116.223L55.0891 118.736L55.3507 118.486H59.6381L59.9224 118.736L59.6154 116.223Z" fill="#161616" stroke="#161616" stroke-linecap="round" stroke-linejoin="round"/>
<path d="M71.0332 102.95L71.9999 98.3102L70.5556 94L59.6152 102.12L63.8231 105.68L69.7709 107.42L71.0901 105.884L70.5215 105.475L71.4313 104.645L70.7262 104.099L71.636 103.405L71.0332 102.95Z" fill="#763D16" stroke="#763D16" stroke-linecap="round" stroke-linejoin="round"/>
<path d="M43 98.3102L43.9667 102.95L43.3525 103.405L44.2624 104.099L43.5686 104.645L44.4784 105.475L43.9098 105.884L45.2176 107.42L51.1655 105.68L55.3733 102.12L44.4329 94L43 98.3102Z" fill="#763D16" stroke="#763D16" stroke-linecap="round" stroke-linejoin="round"/>
<path d="M69.7709 107.42L63.8231 105.68L65.6313 108.398L62.936 113.629L66.4843 113.584H71.7725L69.7709 107.42Z" fill="#F6851B" stroke="#F6851B" stroke-linecap="round" stroke-linejoin="round"/>
<path d="M51.1654 105.68L45.2176 107.42L43.2388 113.584H48.5156L52.0525 113.629L49.3686 108.398L51.1654 105.68Z" fill="#F6851B" stroke="#F6851B" stroke-linecap="round" stroke-linejoin="round"/>
<path d="M59.24 108.682L59.6153 102.12L61.3439 97.4463H53.6675L55.3734 102.12L55.7714 108.682L55.9079 110.752L55.9192 115.847H59.0694L59.0922 110.752L59.24 108.682Z" fill="#F6851B" stroke="#F6851B" stroke-linecap="round" stroke-linejoin="round"/>
<defs>
<linearGradient id="paint0_linear_2512_26" x1="-3.72529e-06" y1="106" x2="250" y2="106" gradientUnits="userSpaceOnUse">
<stop stop-color="#F3F3F3"/>
<stop offset="1" stop-color="#E3E1E8"/>
</linearGradient>
</defs>
</svg>
