<svg width="240" height="241" viewBox="0 0 240 241" fill="none" xmlns="http://www.w3.org/2000/svg">
<path d="M119.675 240.096C185.77 240.096 239.35 186.516 239.35 120.421C239.35 54.3264 185.77 0.746094 119.675 0.746094C53.5803 0.746094 0 54.3264 0 120.421C0 186.516 53.5803 240.096 119.675 240.096Z" fill="#9BE69D"/>
<path d="M179.81 16.9375C190.101 34.6085 196.001 55.1505 196.001 77.0735C196.001 143.168 142.421 196.749 76.3259 196.749C54.4039 196.749 33.8609 190.849 16.1909 180.559C36.9259 216.163 75.5029 240.098 119.675 240.098C185.77 240.098 239.35 186.517 239.35 120.422C239.35 76.2495 215.415 37.6715 179.81 16.9375V16.9375Z" fill="#6FD7A3"/>
<path d="M119.675 206.207C167.053 206.207 205.46 167.799 205.46 120.422C205.46 73.044 167.053 34.6367 119.675 34.6367C72.2974 34.6367 33.8901 73.044 33.8901 120.422C33.8901 167.799 72.2974 206.207 119.675 206.207Z" fill="#3EC3A4"/>
<path d="M142.294 89.068L106.338 125.024L91.8568 110.543C85.7598 104.446 75.8758 104.446 69.7788 110.543C63.6828 116.639 63.6818 126.521 69.7758 132.618L95.2888 158.143C101.385 164.241 111.27 164.243 117.367 158.146L164.369 111.144C170.465 105.048 170.465 95.165 164.369 89.069C158.273 82.972 148.389 82.972 142.294 89.068V89.068Z" fill="#DFF6FD"/>
</svg>
