<svg width="240" height="241" viewBox="0 0 240 241" fill="none" xmlns="http://www.w3.org/2000/svg">
<path d="M120.325 240.096C186.42 240.096 240 186.516 240 120.421C240 54.3264 186.42 0.746094 120.325 0.746094C54.2302 0.746094 0.649902 54.3264 0.649902 120.421C0.649902 186.516 54.2302 240.096 120.325 240.096Z" fill="#FD8087"/>
<path d="M180.461 16.9375C190.752 34.6085 196.652 55.1505 196.652 77.0735C196.652 143.168 143.072 196.749 76.9768 196.749C55.0548 196.749 34.5118 190.849 16.8418 180.559C37.5768 216.163 76.1538 240.098 120.326 240.098C186.421 240.098 240.001 186.517 240.001 120.422C240 76.2495 216.065 37.6715 180.461 16.9375V16.9375Z" fill="#FE646F"/>
<path d="M120.325 206.207C167.703 206.207 206.11 167.799 206.11 120.422C206.11 73.044 167.703 34.6367 120.325 34.6367C72.9473 34.6367 34.54 73.044 34.54 120.422C34.54 167.799 72.9473 206.207 120.325 206.207Z" fill="#FD4755"/>
<path d="M142.401 120.422L158.051 104.772C164.147 98.676 164.147 88.793 158.051 82.697C151.955 76.601 142.071 76.601 135.976 82.697L120.326 98.347L104.676 82.697C98.5798 76.601 88.6968 76.601 82.6008 82.697C76.5048 88.793 76.5048 98.676 82.6008 104.772L98.2508 120.422L82.6008 136.072C76.5048 142.168 76.5048 152.051 82.6008 158.147C88.6968 164.243 98.5808 164.243 104.676 158.147L120.326 142.497L135.976 158.147C142.072 164.243 151.955 164.243 158.051 158.147C164.147 152.051 164.147 142.168 158.051 136.072L142.401 120.422Z" fill="#DFF6FD"/>
</svg>
