<svg width="9" height="8" viewBox="0 0 9 8" fill="none" xmlns="http://www.w3.org/2000/svg">
<path d="M8.40159 0H5.2432C5.02516 0 4.8484 0.162741 4.8484 0.363482C4.8484 0.564222 5.02516 0.726963 5.2432 0.726963H7.44847L3.38487 4.4682C3.23068 4.61016 3.23068 4.84027 3.38487 4.98223C3.46193 5.0532 3.56297 5.08868 3.66401 5.08868C3.76505 5.08868 3.8661 5.05321 3.94318 4.98221L8.00681 1.24099V3.2713C8.00681 3.47204 8.18357 3.63479 8.40161 3.63479C8.61965 3.63479 8.79641 3.47204 8.79641 3.2713V0.363482C8.79639 0.162741 8.61963 0 8.40159 0Z" fill="white"/>
<path d="M6.81734 3.63398C6.5993 3.63398 6.42254 3.79673 6.42254 3.99747V7.26877H0.895363V2.18007H4.44855C4.66659 2.18007 4.84336 2.01733 4.84336 1.81659C4.84336 1.61585 4.66659 1.45312 4.44855 1.45312H0.500577C0.282539 1.45312 0.105774 1.61587 0.105774 1.81661V7.63225C0.105774 7.83298 0.282539 7.99572 0.500577 7.99572H6.81736C7.03539 7.99572 7.21216 7.83298 7.21216 7.63224V3.99747C7.21214 3.79673 7.03538 3.63398 6.81734 3.63398Z" fill="white"/>
</svg>
