<svg width="179" height="69" viewBox="0 0 179 69" fill="none" xmlns="http://www.w3.org/2000/svg">
<path d="M125.209 49.5469V6.41797H133.885V49.5469H125.209Z" fill="#F7A600"/>
<path d="M24.1559 62.3555H5.57092V19.2266H23.4024C32.0784 19.2266 37.1242 23.9527 37.1242 31.3502C37.1242 36.1448 33.8821 39.2271 31.6446 40.2545C34.3159 41.4646 37.7635 44.1815 37.7635 49.9579C37.7635 57.9947 32.0784 62.3555 24.1559 62.3555ZM22.7403 26.7382H14.2698V36.6699H22.7403C26.4162 36.6699 28.471 34.6607 28.471 31.6926C28.471 28.7245 26.4162 26.7382 22.7403 26.7382ZM23.2883 44.2272H14.2469V54.8211H23.2883C27.2153 54.8211 29.0875 52.4009 29.0875 49.4785C29.0875 46.556 27.2153 44.2272 23.2883 44.2272Z" fill="#14192C"/>
<path d="M64.2026 44.661V62.3555H55.595V44.661L42.2385 19.2266H51.6452L59.933 36.6014L68.1068 19.2266H77.5134L64.2026 44.661Z" fill="#14192C"/>
<path d="M102.126 62.3555H83.541V19.2266H101.372C110.048 19.2266 115.094 23.9527 115.094 31.3502C115.094 36.1448 111.852 39.2271 109.615 40.2545C112.286 41.4646 115.734 44.1815 115.734 49.9579C115.711 57.9947 110.048 62.3555 102.126 62.3555ZM100.688 26.7382H92.217V36.6699H100.688C104.363 36.6699 106.418 34.6607 106.418 31.6926C106.418 28.7245 104.363 26.7382 100.688 26.7382ZM101.235 44.2272H92.1941V54.8211H101.235C105.163 54.8211 107.035 52.4009 107.035 49.4785C107.035 46.556 105.185 44.2272 101.235 44.2272Z" fill="#14192C"/>
<path d="M161.808 26.7382V62.3555H153.132V26.7382H141.556V19.2266H173.406V26.7382H161.808Z" fill="#14192C"/>
</svg>
