<svg width="24" height="20" viewBox="0 0 24 20" fill="none" xmlns="http://www.w3.org/2000/svg">
<path d="M24 2.5C23.1 2.95 22.2 3.1 21.15 3.25C22.2 2.65 22.95 1.75 23.25 0.55C22.35 1.15 21.3 1.45 20.1 1.75C19.2 0.85 17.85 0.25 16.5 0.25C13.35 0.25 10.95 3.25 11.7 6.25C7.65 6.1 4.05 4.15 1.5 1.15C0.15 3.4 0.9 6.25 3 7.75C2.25 7.75 1.5 7.45 0.75 7.15C0.75 9.4 2.4 11.5 4.65 12.1C3.9 12.25 3.15 12.4 2.4 12.25C3 14.2 4.8 15.7 7.05 15.7C5.25 17.05 2.55 17.8 0 17.5C2.25 18.85 4.8 19.75 7.5 19.75C16.65 19.75 21.75 12.1 21.45 5.05C22.5 4.45 23.4 3.55 24 2.5Z" fill="white"/>
</svg>
