<svg width="189" height="30" viewBox="0 0 189 30" fill="none" xmlns="http://www.w3.org/2000/svg">
<g clip-path="url(#clip0_419_33546)">
<path d="M36.8428 22.4091V7.37709H40.1256V22.4091H36.8428ZM39.3893 22.4091V19.7902H42.8812C43.1553 19.8046 43.4294 19.7619 43.6864 19.6645C43.9435 19.5673 44.178 19.4175 44.3756 19.2246C44.5564 19.038 44.6978 18.8163 44.7918 18.5729C44.8859 18.3295 44.9301 18.0694 44.9223 17.8082C44.9294 17.4588 44.8455 17.1137 44.6793 16.8074C44.5133 16.512 44.2694 16.2694 43.9746 16.1066C43.6405 15.931 43.267 15.8462 42.8909 15.8607H39.3893V13.2959H42.6066C43.0748 13.3173 43.5358 13.1739 43.9115 12.8902C44.0874 12.7357 44.2247 12.5414 44.3126 12.3231C44.4004 12.1047 44.4361 11.8686 44.4169 11.6336C44.4339 11.403 44.397 11.1715 44.309 10.9579C44.2213 10.7443 44.0852 10.5546 43.9115 10.4041C43.5387 10.1141 43.0763 9.96692 42.6066 9.98856H39.3893V7.37709H43.2384C44.0789 7.3539 44.9123 7.53609 45.6683 7.90824C46.3018 8.22533 46.8317 8.7205 47.1943 9.33447C47.5391 9.93078 47.7172 10.6108 47.7094 11.3017C47.7371 12.1796 47.42 13.0329 46.8274 13.6746C46.2362 14.3074 45.3663 14.7443 44.2176 14.9853L44.3027 13.8566C45.5631 14.0976 46.5309 14.5894 47.2064 15.332C47.88 16.0738 48.2418 17.0519 48.2149 18.0591C48.2268 18.8395 48.0185 19.6072 47.6147 20.2722C47.1945 20.9457 46.597 21.4874 45.8894 21.8361C45.0484 22.2483 44.1216 22.4498 43.1873 22.4238L39.3893 22.4091Z" fill="#151515"/>
<path d="M54.5983 22.6428C53.731 22.6567 52.874 22.4513 52.1052 22.0453C51.3947 21.6724 50.8013 21.106 50.3921 20.41C49.9768 19.6909 49.7656 18.8698 49.7822 18.0371V12.0616H53.0213V18.0002C53.0142 18.3226 53.0805 18.6424 53.2156 18.9346C53.3335 19.1879 53.524 19.3995 53.7624 19.542C54.019 19.6871 54.3094 19.7601 54.6031 19.7534C54.8136 19.7645 55.0235 19.7283 55.2186 19.6475C55.4135 19.5668 55.5882 19.4434 55.7306 19.2862C56.0181 18.9232 56.1612 18.4645 56.1316 18.0002V12.0616H59.3707V18.0444C59.3887 18.8831 59.1811 19.7109 58.7705 20.4395C58.3744 21.1252 57.797 21.6855 57.1035 22.0575C56.3296 22.4608 55.4684 22.662 54.5983 22.6428Z" fill="#151515"/>
<path d="M64.529 22.4707L60.3203 12.0616H63.8146L66.4875 20.2993H65.2045L67.9187 12.0616H71.4105L67.0367 22.451L64.529 22.4707ZM61.8998 26.7715L64.9712 20.0436L67.0318 22.451L65.2239 26.7715H61.8998Z" fill="#151515"/>
<path d="M72.8984 22.4091V7.37709H76.1813V22.4091H72.8984ZM75.445 22.4091V19.7902H78.9368C79.2109 19.8049 79.485 19.7623 79.7424 19.665C79.9994 19.5677 80.2339 19.4178 80.4312 19.2246C80.612 19.038 80.7534 18.8163 80.8475 18.5729C80.9413 18.3295 80.9857 18.0694 80.978 17.8082C80.985 17.4588 80.9012 17.1137 80.735 16.8074C80.569 16.512 80.325 16.2694 80.0303 16.1066C79.6962 15.931 79.3227 15.8462 78.9465 15.8607H75.4499V13.2959H78.6671C79.1353 13.3173 79.5963 13.1739 79.972 12.8902C80.1479 12.7357 80.2852 12.5414 80.3732 12.3231C80.4609 12.1047 80.4966 11.8686 80.4774 11.6336C80.4944 11.403 80.4575 11.1715 80.3695 10.9579C80.2818 10.7443 80.1455 10.5546 79.972 10.4041C79.5992 10.1141 79.1368 9.96692 78.6671 9.98856H75.4499V7.37709H79.2989C80.1392 7.3539 80.9729 7.53609 81.7288 7.90824C82.3623 8.22533 82.8923 8.7205 83.2548 9.33447C83.5996 9.93078 83.7777 10.6108 83.77 11.3017C83.7977 12.1796 83.4806 13.0329 82.8879 13.6746C82.2982 14.3074 81.4282 14.7443 80.2781 14.9853L80.3632 13.8566C81.6236 14.0976 82.5914 14.5894 83.267 15.332C83.9405 16.0738 84.3024 17.0519 84.2754 18.0591C84.2873 18.8395 84.0791 19.6072 83.6752 20.2722C83.2551 20.9457 82.6575 21.4874 81.9499 21.8361C81.1087 22.2483 80.1822 22.4498 79.2479 22.4238L75.445 22.4091Z" fill="#151515"/>
<path d="M87.7347 10.6548C87.5046 10.6575 87.2764 10.6117 87.0648 10.5203C86.8529 10.4288 86.6624 10.2937 86.5052 10.1236C86.3416 9.95484 86.2129 9.75494 86.1261 9.53548C86.0394 9.31601 85.9963 9.08132 85.9997 8.84496C85.9929 8.60853 86.034 8.37315 86.121 8.15356C86.208 7.93399 86.3387 7.73491 86.5052 7.56873C86.6665 7.40211 86.8602 7.27075 87.0735 7.18276C87.2871 7.09481 87.5163 7.05209 87.7469 7.05726C87.9794 7.04732 88.2115 7.08782 88.4273 7.17605C88.643 7.26426 88.8377 7.39815 88.9983 7.56873C89.321 7.91213 89.4959 8.37118 89.4843 8.84496C89.4901 9.31844 89.3161 9.77612 88.9983 10.1236C88.8394 10.3009 88.6435 10.4404 88.4253 10.5322C88.2069 10.624 87.9709 10.6659 87.7347 10.6548ZM86.114 22.4089V12.0614H89.3555V22.4089H86.114Z" fill="#151515"/>
<path d="M90.7432 14.8502V12.0617H98.5918V14.8502H90.7432ZM93.037 22.4092V7.78052H96.2761V22.4092H93.037Z" fill="#151515"/>
<path d="M104.73 22.6425C103.725 22.6582 102.733 22.4162 101.845 21.9392C101.012 21.4932 100.318 20.8225 99.8383 20.0014C99.3486 19.1646 99.0964 18.2075 99.1093 17.2351C99.0913 16.2581 99.3438 15.2956 99.8383 14.4564C100.333 13.6442 101.036 12.9825 101.872 12.5408C102.759 12.0651 103.75 11.8232 104.754 11.8375C105.514 11.8283 106.268 11.9694 106.975 12.2531C107.645 12.5344 108.249 12.9531 108.751 13.4826L106.674 15.5949C106.445 15.3325 106.159 15.1286 105.838 14.9998C105.492 14.8672 105.124 14.8029 104.754 14.8105C104.329 14.8019 103.91 14.908 103.539 15.1179C103.186 15.3179 102.895 15.6122 102.696 15.9687C102.491 16.3499 102.389 16.7791 102.399 17.2129C102.39 17.6578 102.494 18.0976 102.703 18.4892C102.901 18.8528 103.197 19.1521 103.556 19.3523C103.921 19.5627 104.334 19.6729 104.754 19.6719C105.14 19.6788 105.524 19.606 105.882 19.458C106.207 19.3186 106.497 19.1078 106.732 18.8408L108.814 20.926C108.293 21.4876 107.659 21.9313 106.956 22.2279C106.253 22.5245 105.496 22.6675 104.735 22.6473L104.73 22.6425Z" fill="#151515"/>
<path d="M114.897 22.6425C113.895 22.6562 112.908 22.4017 112.035 21.9048C111.21 21.4382 110.521 20.7596 110.037 19.9376C109.545 19.1012 109.292 18.1423 109.308 17.1687C109.297 16.2096 109.549 15.2662 110.037 14.4441C110.523 13.6456 111.206 12.9894 112.02 12.5408C112.906 12.0755 113.89 11.8325 114.887 11.8325C115.885 11.8325 116.869 12.0755 117.755 12.5408C118.582 12.9911 119.276 13.6566 119.764 14.4687C120.254 15.2936 120.507 16.2407 120.493 17.2031C120.511 18.1801 120.259 19.1426 119.764 19.9818C119.275 20.7948 118.586 21.4657 117.765 21.9294C116.888 22.4187 115.898 22.6647 114.897 22.6425ZM114.897 19.6622C115.315 19.6693 115.728 19.5659 116.095 19.3622C116.445 19.1651 116.727 18.8649 116.904 18.5015C117.099 18.101 117.197 17.6593 117.189 17.213C117.197 16.7788 117.096 16.3497 116.895 15.9662C116.706 15.6137 116.426 15.3196 116.085 15.1154C115.724 14.9055 115.313 14.7992 114.897 14.8081C114.477 14.7994 114.062 14.9057 113.697 15.1154C113.348 15.321 113.063 15.6218 112.875 15.9835C112.677 16.3618 112.576 16.7847 112.581 17.213C112.573 17.6605 112.674 18.1032 112.875 18.5015C113.059 18.8641 113.345 19.1635 113.697 19.3622C114.063 19.5696 114.477 19.6764 114.897 19.672V19.6622Z" fill="#151515"/>
<path d="M123.71 10.6548C123.478 10.6593 123.248 10.6143 123.034 10.5228C122.82 10.4313 122.627 10.2953 122.469 10.1237C122.306 9.95476 122.177 9.75477 122.091 9.5353C122.004 9.31583 121.962 9.08122 121.966 8.845C121.958 8.60874 121.999 8.37346 122.086 8.1539C122.172 7.93433 122.303 7.73515 122.469 7.56877C122.63 7.40215 122.824 7.27079 123.037 7.18281C123.251 7.09485 123.48 7.05211 123.71 7.0573C123.943 7.04722 124.175 7.08764 124.391 7.17585C124.607 7.26408 124.801 7.39807 124.962 7.56877C125.284 7.91218 125.459 8.37122 125.448 8.845C125.454 9.31849 125.28 9.77616 124.962 10.1237C124.804 10.2996 124.611 10.4383 124.394 10.53C124.178 10.6218 123.945 10.6644 123.71 10.6548ZM122.092 22.4089V12.0614H125.331V22.4089H122.092Z" fill="#151515"/>
<path d="M127.571 22.409V12.0614H130.81V22.409H127.571ZM134.346 22.409V16.5073C134.354 16.2689 134.313 16.0314 134.226 15.8097C134.139 15.588 134.008 15.3868 133.841 15.2188C133.673 15.0556 133.475 14.9281 133.258 14.8436C133.041 14.7592 132.809 14.7195 132.577 14.727C132.262 14.7213 131.95 14.7984 131.673 14.9508C131.409 15.0968 131.191 15.3138 131.041 15.5778C130.88 15.8627 130.796 16.1861 130.798 16.5147L129.557 15.8975C129.542 15.1521 129.729 14.4167 130.096 13.7704C130.445 13.1675 130.955 12.6772 131.569 12.3565C132.222 12.0186 132.948 11.8496 133.683 11.8647C134.194 11.8604 134.702 11.9593 135.175 12.1555C135.649 12.3517 136.079 12.6414 136.441 13.0075C136.803 13.3737 137.089 13.8092 137.283 14.2885C137.477 14.7677 137.575 15.2813 137.57 15.7991V22.4213L134.346 22.409Z" fill="#151515"/>
<path d="M139.889 22.409V7.37703H143.172V22.409H139.889ZM142.435 22.409V19.7901H145.927C146.201 19.8049 146.475 19.7622 146.733 19.6649C146.99 19.5676 147.224 19.4177 147.421 19.2246C147.602 19.0379 147.744 18.8162 147.838 18.5729C147.932 18.3295 147.976 18.0694 147.968 17.8082C147.975 17.4588 147.892 17.1137 147.725 16.8074C147.557 16.5106 147.309 16.2678 147.011 16.1065C146.677 15.9309 146.303 15.8462 145.927 15.8606H142.435V13.2959H145.655C146.122 13.3169 146.583 13.1735 146.957 12.8901C147.133 12.7356 147.271 12.5413 147.359 12.323C147.447 12.1047 147.482 11.8685 147.463 11.6336C147.48 11.4029 147.443 11.1714 147.355 10.9578C147.267 10.7443 147.131 10.5546 146.957 10.4041C146.585 10.1144 146.124 9.96723 145.655 9.9885H142.435V7.37703H146.282C147.122 7.35423 147.956 7.53639 148.712 7.90817C149.345 8.22664 149.874 8.72149 150.238 9.3344C150.582 9.93121 150.759 10.6109 150.753 11.3016C150.78 12.1799 150.462 13.0331 149.868 13.6746C149.278 14.3065 148.41 14.7442 147.259 14.9852L147.344 13.8565C148.606 14.0975 149.578 14.5893 150.26 15.3319C150.933 16.0738 151.295 17.0519 151.268 18.059C151.28 18.8391 151.072 19.6064 150.67 20.2721C150.249 20.9446 149.652 21.4859 148.945 21.836C148.103 22.2481 147.176 22.4496 146.241 22.4237L142.435 22.409Z" fill="#151515"/>
<path d="M157.35 22.6231C156.466 22.6339 155.597 22.3863 154.848 21.9099C154.105 21.4377 153.497 20.7763 153.086 19.9919C152.647 19.1421 152.426 18.1941 152.444 17.2354C152.428 16.2697 152.648 15.3149 153.086 14.4567C153.487 13.6698 154.091 13.0072 154.833 12.5386C155.589 12.0729 156.46 11.8334 157.346 11.8476C157.989 11.8378 158.627 11.9766 159.209 12.2534C159.745 12.5072 160.211 12.8906 160.565 13.3698C160.916 13.8431 161.123 14.4096 161.161 15.0001V19.4706C161.126 20.0584 160.924 20.6236 160.58 21.0985C160.23 21.5791 159.767 21.9636 159.234 22.2173C158.644 22.4945 158 22.6332 157.35 22.6231ZM158.026 19.6722C158.333 19.6851 158.64 19.631 158.924 19.5134C159.209 19.3959 159.465 19.2177 159.676 18.9911C160.103 18.5027 160.326 17.8651 160.298 17.2132C160.306 16.7814 160.212 16.3539 160.023 15.9665C159.845 15.6099 159.567 15.3141 159.224 15.1157C158.859 14.9062 158.445 14.8 158.026 14.8083C157.619 14.7991 157.218 14.904 156.867 15.1115C156.516 15.319 156.228 15.6209 156.036 15.9837C155.835 16.371 155.73 16.8018 155.73 17.239C155.73 17.6763 155.835 18.1071 156.036 18.4944C156.228 18.8569 156.516 19.1587 156.867 19.3665C157.218 19.5743 157.619 19.6801 158.026 19.6722ZM160.172 22.419V19.6181L160.658 17.0854L160.172 14.5944V12.0616H163.348V22.4091L160.172 22.419Z" fill="#151515"/>
<path d="M165.598 22.4091V12.0616H168.839V22.4091H165.598ZM172.372 22.4091V16.5075C172.381 16.2692 172.341 16.0316 172.255 15.8097C172.168 15.5879 172.037 15.3867 171.869 15.219C171.702 15.0558 171.504 14.9282 171.287 14.8438C171.07 14.7593 170.838 14.7197 170.606 14.7272C170.29 14.7214 169.979 14.7986 169.702 14.9509C169.438 15.097 169.219 15.314 169.07 15.578C168.912 15.8637 168.832 16.1873 168.839 16.5149L167.597 15.8977C167.582 15.1525 167.768 14.4172 168.135 13.7706C168.483 13.1646 168.994 12.6716 169.609 12.3493C170.263 12.0114 170.99 11.8424 171.724 11.8575C172.411 11.8437 173.09 12.0195 173.687 12.366C174.283 12.7125 174.776 13.2168 175.111 13.8247C175.446 14.4245 175.62 15.1028 175.616 15.7919V22.4141L172.372 22.4091Z" fill="#151515"/>
<path d="M177.628 22.4089V6.95154H180.867V22.4089H177.628ZM184.189 22.4089L180.641 17.0433L184.189 12.0614H187.785L183.482 17.6802L183.586 16.3179L188.004 22.4089H184.189Z" fill="#151515"/>
<path d="M24.4629 0H5.1823C2.32019 0 0 2.34796 0 5.24432V24.7557C0 27.6521 2.32019 30 5.1823 30H24.4629C27.3251 30 29.6452 27.6521 29.6452 24.7557V5.24432C29.6452 2.34796 27.3251 0 24.4629 0Z" fill="#153CF5"/>
<path d="M18.9452 23.3328H10.7012V22.835C10.7012 22.6755 10.7638 22.5225 10.8753 22.4096C10.9868 22.2968 11.138 22.2334 11.2957 22.2334H18.3487C18.427 22.2332 18.5045 22.2485 18.5769 22.2786C18.6492 22.3088 18.715 22.353 18.7704 22.4089C18.8258 22.4648 18.8698 22.5312 18.8998 22.6044C18.9298 22.6775 18.9452 22.7559 18.9452 22.835V23.3309V23.3328Z" fill="white"/>
<path d="M19.784 24.121H9.86094C9.64703 24.121 9.47363 24.2964 9.47363 24.5129V25.2086C9.47363 25.425 9.64703 25.6006 9.86094 25.6006H19.784C19.9979 25.6006 20.1713 25.425 20.1713 25.2086V24.5129C20.1713 24.2964 19.9979 24.121 19.784 24.121Z" fill="white"/>
<path d="M10.6992 6.66333H18.9433V7.15914C18.9433 7.31871 18.8806 7.47173 18.7691 7.58458C18.6576 7.6974 18.5064 7.76079 18.3487 7.76079H11.2957C11.138 7.76079 10.9868 7.6974 10.8753 7.58458C10.7638 7.47173 10.7012 7.31871 10.7012 7.15914V6.66333H10.6992Z" fill="white"/>
<path d="M19.784 4.39746H9.86094C9.64703 4.39746 9.47363 4.57294 9.47363 4.78943V5.48513C9.47363 5.7016 9.64703 5.87708 9.86094 5.87708H19.784C19.9979 5.87708 20.1713 5.7016 20.1713 5.48513V4.78943C20.1713 4.57294 19.9979 4.39746 19.784 4.39746Z" fill="white"/>
<path d="M18.9378 16.0898C18.8636 15.8258 18.7465 15.576 18.5912 15.351C18.4281 15.1217 18.2269 14.9228 17.9966 14.763C17.9385 14.7219 17.8766 14.6827 17.803 14.6455C18.0717 14.4183 18.2854 14.1318 18.4277 13.8081C18.5701 13.4843 18.6372 13.1319 18.6241 12.7778C18.6286 12.3982 18.5527 12.0219 18.4014 11.6745C18.2509 11.3426 18.0261 11.0507 17.7449 10.822C17.477 10.6063 17.1734 10.4404 16.8482 10.332V8.77991L15.5585 8.88572V10.1223C15.5159 10.1223 15.4752 10.1223 15.4326 10.1223H13.9434V9.01506L12.6536 9.1209V10.1125H10.9707V11.4707H11.7899C11.8777 11.4707 11.9619 11.5059 12.0241 11.5688C12.0861 11.6317 12.121 11.7169 12.121 11.8058V18.1887C12.1213 18.2328 12.1129 18.2765 12.0963 18.3173C12.0798 18.358 12.0554 18.3951 12.0246 18.4263C11.9938 18.4574 11.9572 18.4821 11.9169 18.4988C11.8766 18.5156 11.8335 18.5241 11.7899 18.5238H10.9707V19.8819H12.6439V21.2322L13.9434 21.1264V19.8819H15.5682V20.9931L16.8579 20.8873V19.7506C17.3307 19.6528 17.774 19.4433 18.1515 19.1392C18.7558 18.6296 19.0598 17.8771 19.0598 16.9051C19.0566 16.6289 19.0155 16.3545 18.9378 16.0898ZM16.1394 11.9547L16.1995 11.9704C16.3391 12.0019 16.4709 12.0619 16.5868 12.1468C16.6758 12.2161 16.7431 12.31 16.7805 12.4172C16.8299 12.5641 16.8528 12.7188 16.8482 12.8738C16.8482 13.2658 16.7572 13.5186 16.5655 13.6577C16.452 13.735 16.3253 13.7902 16.1917 13.8204C15.9379 13.8804 15.6777 13.9081 15.4171 13.9027H13.8969V11.8802H15.3106C15.5887 11.875 15.8666 11.9 16.1394 11.9547ZM16.1995 18.0515C15.9915 18.086 15.7809 18.1024 15.5701 18.1005H13.8969V15.6783H15.4326C15.6918 15.6752 15.9508 15.6929 16.2072 15.7312L16.366 15.7625C16.5535 15.7983 16.7312 15.8745 16.887 15.9859C16.9996 16.0721 17.0856 16.1891 17.1349 16.323C17.1976 16.5083 17.2271 16.7034 17.222 16.8992C17.2143 17.3695 17.0845 17.8908 16.1995 18.0515Z" fill="white"/>
</g>
<defs>
<clipPath id="clip0_419_33546">
<rect width="188.077" height="30" fill="white"/>
</clipPath>
</defs>
</svg>
