<svg width="16" height="16" viewBox="0 0 16 16" fill="none" xmlns="http://www.w3.org/2000/svg">
<g clip-path="url(#clip0_637_37809)">
<path d="M14.5712 0.291896L10.3592 0.433496C9.74722 0.454296 9.45442 1.2191 9.88722 1.6663L11.4152 3.2447L6.64322 8.1735C6.36242 8.4639 6.36242 8.9351 6.64322 9.2255C6.92482 9.5159 7.38082 9.5159 7.66162 9.2255L12.4336 4.2967L13.9624 5.8751C14.3952 6.3223 15.136 6.0199 15.156 5.3879L15.2928 1.0375C15.3064 0.619896 14.9752 0.278296 14.5712 0.291896Z" fill="white"/>
<path d="M13.5009 7.3262C13.1177 7.3262 12.8065 7.5422 12.8065 7.8086C12.8065 7.8174 12.8129 7.8246 12.8137 7.8334V13.5454C12.8137 13.9118 12.5273 14.1974 12.1825 14.1974H2.93046C2.57526 14.1974 2.29926 13.9118 2.29926 13.5454V3.8478C2.29926 3.4814 2.57526 3.1958 2.93046 3.1958H8.28006V3.1846H8.28086C8.51126 3.1846 8.69766 2.8998 8.69766 2.5486C8.69766 2.1974 8.51126 1.9126 8.28086 1.9126H8.28006H2.66406C1.69766 1.9126 0.918457 2.7174 0.918457 3.7158V13.6782C0.918457 14.6766 1.69766 15.4814 2.66406 15.4814H12.4481C13.4049 15.4814 14.1937 14.6766 14.1937 13.6782V7.8254H14.1889C14.1889 7.8198 14.1937 7.8142 14.1937 7.8086C14.1945 7.5422 13.8841 7.3262 13.5009 7.3262Z" fill="white"/>
</g>
<defs>
<clipPath id="clip0_637_37809">
<rect width="16" height="16" fill="white"/>
</clipPath>
</defs>
</svg>
