<svg xmlns="http://www.w3.org/2000/svg" xmlns:xlink="http://www.w3.org/1999/xlink" width="774" height="122" fill="none" xmlns:v="https://vecta.io/nano"><path d="M151.62 91.13V30h13.51v61.13h-13.51zm10.48 0V80.48h14.37a8.24 8.24 0 0 0 6.15-2.3 7.89 7.89 0 0 0 1.713-2.65c.387-.99.569-2.047.537-3.11a8.11 8.11 0 0 0-1-4.07 7.43 7.43 0 0 0-2.9-2.85 8.94 8.94 0 0 0-4.46-1H162.1V54.07h13.24a8.35 8.35 0 0 0 5.37-1.65c.724-.628 1.289-1.419 1.651-2.306s.508-1.848.429-2.804c.07-.938-.082-1.88-.444-2.748a5.99 5.99 0 0 0-1.636-2.252 8.2 8.2 0 0 0-5.37-1.69H162.1V30h15.84a21.52 21.52 0 0 1 10 2.16 15.13 15.13 0 0 1 6.28 5.8 15.49 15.49 0 0 1 2.12 8 13.5 13.5 0 0 1-3.63 9.65c-2.433 2.573-6.013 4.35-10.74 5.33l.35-4.59c5.187.98 9.17 2.98 11.95 6a15.76 15.76 0 0 1 4.15 11.09c.049 3.174-.808 6.296-2.47 9a17.41 17.41 0 0 1-7.1 6.36 24 24 0 0 1-11.12 2.39l-15.63-.06zm62.59.951a21.44 21.44 0 0 1-10.26-2.43 17.67 17.67 0 0 1-7.05-6.65c-1.709-2.924-2.578-6.264-2.51-9.65v-24.3h13.33v24.15a8.52 8.52 0 0 0 .8 3.8c.485 1.03 1.269 1.891 2.25 2.47a6.78 6.78 0 0 0 3.46.86 5.88 5.88 0 0 0 4.64-1.9 7.58 7.58 0 0 0 1.65-5.23v-24.15h13.33v24.33c.074 3.41-.78 6.777-2.47 9.74a17.37 17.37 0 0 1-6.86 6.58 21.5 21.5 0 0 1-10.31 2.38h0zm40.87-.7l-17.32-42.33h14.38l11 33.5h-5.28l11.17-33.5h14.37l-18 42.25-10.32.08zm-10.82 17.49l12.64-27.36 8.48 9.79-7.44 17.57h-13.68zM300 91.13V30h13.51v61.13H300zm10.48 0V80.48h14.37c1.128.06 2.256-.114 3.315-.509A8.22 8.22 0 0 0 331 78.18a7.89 7.89 0 0 0 1.713-2.65c.386-.99.569-2.047.537-3.11a8.11 8.11 0 0 0-1-4.07 7.43 7.43 0 0 0-2.9-2.85 8.94 8.94 0 0 0-4.46-1H310.5V54.07h13.24a8.35 8.35 0 0 0 5.37-1.65c.724-.628 1.289-1.419 1.651-2.306s.508-1.848.429-2.804c.07-.938-.082-1.88-.444-2.748a6 6 0 0 0-1.636-2.252 8.2 8.2 0 0 0-5.37-1.69H310.5V30h15.84a21.52 21.52 0 0 1 10 2.16 15.13 15.13 0 0 1 6.28 5.8 15.49 15.49 0 0 1 2.12 8 13.5 13.5 0 0 1-3.63 9.65c-2.427 2.573-6.007 4.35-10.74 5.33l.35-4.59c5.187.98 9.17 2.98 11.95 6a15.76 15.76 0 0 1 4.15 11.09c.049 3.174-.808 6.296-2.47 9a17.41 17.41 0 0 1-7.1 6.36 24 24 0 0 1-11.12 2.39l-15.65-.06zm50.58-47.801a6.82 6.82 0 0 1-2.757-.547A6.81 6.81 0 0 1 356 41.169c-.673-.687-1.203-1.499-1.56-2.392a7.28 7.28 0 0 1-.52-2.808 7.01 7.01 0 0 1 .499-2.812A7 7 0 0 1 356 30.779c.664-.678 1.461-1.212 2.339-1.57s1.822-.531 2.771-.51a6.72 6.72 0 0 1 2.8.483c.888.359 1.689.903 2.35 1.597a7.27 7.27 0 0 1 2 5.19 7.52 7.52 0 0 1-2 5.2c-.654.721-1.46 1.288-2.358 1.661a6.61 6.61 0 0 1-2.842.499h0zm-6.67 47.8v-42.08h13.34v42.08h-13.34zm19.05-30.738v-11.34h32.3v11.34h-32.3zm9.44 30.74v-59.49h13.33v59.49h-13.33zm48.12.948a24.49 24.49 0 0 1-11.87-2.86 21 21 0 0 1-8.26-7.88c-2.015-3.403-3.053-7.296-3-11.25a21.29 21.29 0 0 1 3-11.3 21.56 21.56 0 0 1 8.37-7.79 24.59 24.59 0 0 1 11.86-2.86 24 24 0 0 1 9.14 1.69c2.756 1.144 5.245 2.846 7.31 5l-8.55 8.59c-.94-1.067-2.118-1.896-3.44-2.42a11.91 11.91 0 0 0-4.46-.77 9.84 9.84 0 0 0-5 1.25 9.08 9.08 0 0 0-3.47 3.46 10.06 10.06 0 0 0-1.22 5.06c-.04 1.809.391 3.598 1.25 5.19a8.91 8.91 0 0 0 3.51 3.51 9.91 9.91 0 0 0 4.93 1.3 11.71 11.71 0 0 0 4.64-.87 9.81 9.81 0 0 0 3.5-2.51l8.57 8.48a22.26 22.26 0 0 1-7.647 5.294 22.25 22.25 0 0 1-9.143 1.706l-.02-.02zm41.84.001a23.39 23.39 0 0 1-11.78-3 22.12 22.12 0 0 1-8.22-8c-2.028-3.401-3.067-7.301-3-11.26a21 21 0 0 1 3-11.08A21.85 21.85 0 0 1 461 51a25.61 25.61 0 0 1 11.8-2.88A25.62 25.62 0 0 1 484.6 51a21.73 21.73 0 0 1 8.27 7.84c2.017 3.355 3.056 7.206 3 11.12a21.29 21.29 0 0 1-3 11.3 22.43 22.43 0 0 1-8.23 7.92 23.38 23.38 0 0 1-11.8 2.9h0zm0-12.12a9.9 9.9 0 0 0 4.93-1.22 8.11 8.11 0 0 0 3.33-3.5 11.39 11.39 0 0 0 1.17-5.24 10.36 10.36 0 0 0-1.21-5.07 9 9 0 0 0-3.33-3.46 9.42 9.42 0 0 0-4.89-1.25 9.62 9.62 0 0 0-4.94 1.25 8.85 8.85 0 0 0-3.38 3.53 10.37 10.37 0 0 0-1.21 5 11 11 0 0 0 1.21 5.24c.757 1.475 1.933 2.692 3.38 3.5a9.91 9.91 0 0 0 4.94 1.26v-.04zm36.27-36.63a6.82 6.82 0 0 1-2.784-.537c-.881-.372-1.673-.925-2.326-1.623a7.27 7.27 0 0 1-1.555-2.393 7.25 7.25 0 0 1-.515-2.807 7 7 0 0 1 .495-2.81A6.99 6.99 0 0 1 504 30.781a6.94 6.94 0 0 1 2.34-1.57c.878-.358 1.821-.532 2.77-.51a6.71 6.71 0 0 1 5.15 2.08 7.27 7.27 0 0 1 2 5.19 7.52 7.52 0 0 1-2 5.2 6.59 6.59 0 0 1-5.15 2.16h0zm-6.66 47.8V49.05h13.33v42.08h-13.33zm22.55 0V49.05h13.33v42.08H525zm27.88 0v-24c.032-.97-.136-1.935-.493-2.837s-.898-1.72-1.587-2.403c-.689-.663-1.505-1.182-2.398-1.526a7.17 7.17 0 0 0-2.802-.474 7.51 7.51 0 0 0-3.72.91 6.71 6.71 0 0 0-2.6 2.55 7.53 7.53 0 0 0-1 3.81l-5.11-2.51c-.059-3.031.709-6.022 2.22-8.65a15 15 0 0 1 6.06-5.75 18.31 18.31 0 0 1 8.7-2c2.106-.017 4.194.385 6.143 1.183a15.87 15.87 0 0 1 5.209 3.465 15.86 15.86 0 0 1 3.465 5.209c.798 1.949 1.2 4.037 1.183 6.143v26.93l-13.27-.05zm22.81 0V30h13.51v61.13h-13.51zm10.48 0V80.48h14.37a8.22 8.22 0 0 0 6.15-2.3 7.88 7.88 0 0 0 1.713-2.65 7.87 7.87 0 0 0 .537-3.11 8.1 8.1 0 0 0-1-4.07A7.42 7.42 0 0 0 605 65.5c-1.374-.714-2.911-1.059-4.46-1h-14.37V54.07h13.25a8.34 8.34 0 0 0 5.36-1.65c.724-.628 1.29-1.419 1.651-2.306a6.08 6.08 0 0 0 .429-2.804 6 6 0 0 0-.443-2.748 5.99 5.99 0 0 0-1.637-2.252 8.19 8.19 0 0 0-5.36-1.69h-13.25V30H602a21.55 21.55 0 0 1 10 2.16 15.24 15.24 0 0 1 6.28 5.8c1.415 2.427 2.147 5.191 2.12 8 .111 3.572-1.198 7.041-3.64 9.65-2.43 2.57-6 4.35-10.74 5.33l.35-4.59c5.194.98 9.194 2.98 12 6 2.773 3.017 4.261 6.994 4.15 11.09a16.77 16.77 0 0 1-2.46 9c-1.734 2.735-4.191 4.936-7.1 6.36-3.465 1.675-7.282 2.495-11.13 2.39l-15.66-.06zm61.38.87a18.93 18.93 0 0 1-10.3-2.9 20.62 20.62 0 0 1-7.25-7.8 23.23 23.23 0 0 1-2.64-11.21 23.72 23.72 0 0 1 2.64-11.3 20 20 0 0 1 7.19-7.8 19.3 19.3 0 0 1 10.34-2.81 17.43 17.43 0 0 1 7.67 1.65 14.82 14.82 0 0 1 5.58 4.54c1.444 1.925 2.295 4.229 2.45 6.63v18.18a12.46 12.46 0 0 1-2.39 6.62 14.57 14.57 0 0 1-5.54 4.55 17.75 17.75 0 0 1-7.75 1.65h0zm2.78-12a8.82 8.82 0 0 0 6.79-2.77c1.759-1.986 2.677-4.579 2.56-7.23.033-1.756-.354-3.495-1.13-5.07a8.32 8.32 0 0 0-3.29-3.46 9.61 9.61 0 0 0-4.93-1.25 9.06 9.06 0 0 0-8.19 4.78c-.825 1.575-1.257 3.327-1.257 5.105s.432 3.53 1.257 5.105a9.1 9.1 0 0 0 8.19 4.79h0zm8.83 11.17V79.78l2-10.3-2-10.13v-10.3h13.07v42.08l-13.07.04zm22.33-.039v-42.08h13.34v42.08h-13.34zm27.88 0v-24a7 7 0 0 0-.484-2.838 7.01 7.01 0 0 0-1.586-2.402c-.689-.663-1.504-1.182-2.398-1.526a7.17 7.17 0 0 0-2.802-.474 7.51 7.51 0 0 0-3.72.91 6.71 6.71 0 0 0-2.6 2.55c-.652 1.162-.98 2.478-.95 3.81l-5.11-2.51a16.7 16.7 0 0 1 2.21-8.65c1.433-2.464 3.539-4.469 6.07-5.78a18.31 18.31 0 0 1 8.7-2 15.61 15.61 0 0 1 8.079 2.068 15.6 15.6 0 0 1 5.861 5.932 16.05 16.05 0 0 1 2.08 8v26.93l-13.35-.02zM731 91.13V28.27h13.33v62.86H731zm27 0l-14.6-21.82L758 49.05h14.8L755.09 71.9l.43-5.54 18.18 24.77H758z" fill="#151515"/><path d="M100.673 0H21.327A21.33 21.33 0 0 0 0 21.327v79.346A21.33 21.33 0 0 0 21.327 122h79.346A21.33 21.33 0 0 0 122 100.673V21.327A21.33 21.33 0 0 0 100.673 0z" fill="#153cf5"/><g fill="#fff"><path d="M77.968 94.887H44.041v-2.024c0-.649.258-1.271.717-1.73s1.081-.717 1.73-.717h29.026a2.45 2.45 0 0 1 .939.184c.298.123.568.302.796.53s.409.497.532.795.187.616.187.938v2.016.008z"/><use xlink:href="#B"/><path d="M44.032 27.098h33.927v2.016c0 .649-.258 1.271-.717 1.73s-1.081.717-1.73.717H46.487c-.649 0-1.271-.258-1.73-.717s-.717-1.081-.717-1.73v-2.016h-.008z"/><use xlink:href="#B" y="-80.209"/><path d="M77.936 65.432c-.305-1.074-.787-2.089-1.426-3.005-.671-.932-1.499-1.741-2.447-2.391-.239-.167-.494-.327-.797-.478 1.106-.924 1.985-2.089 2.571-3.405s.862-2.75.808-4.19a10.8 10.8 0 0 0-.916-4.487c-.619-1.35-1.544-2.537-2.702-3.467-1.102-.877-2.352-1.552-3.69-1.992v-6.312l-5.308.43v5.029h-.518-6.129v-4.503l-5.308.43v4.033h-6.926v5.523h3.371c.362 0 .708.143.964.399s.399.602.399.964v25.957a1.35 1.35 0 0 1-.102.523c-.068.166-.168.316-.295.443s-.277.227-.443.295-.343.103-.523.102h-3.371v5.523h6.886v5.491l5.348-.43v-5.061h6.687v4.519l5.308-.43v-4.622a12.6 12.6 0 0 0 5.324-2.487c2.487-2.072 3.738-5.132 3.738-9.085-.013-1.123-.182-2.239-.502-3.315h0zM66.42 48.616l.247.064a4.32 4.32 0 0 1 1.594.717 2.39 2.39 0 0 1 .797 1.1c.203.597.298 1.226.279 1.857 0 1.594-.374 2.622-1.163 3.188a4.52 4.52 0 0 1-1.538.661 12.86 12.86 0 0 1-3.188.335h-6.256v-8.225h5.818a16.01 16.01 0 0 1 3.411.303h0zm.247 24.794c-.856.14-1.723.207-2.59.199h-6.886v-9.851h6.32a20.23 20.23 0 0 1 3.188.215l.654.128a5.47 5.47 0 0 1 2.144.909c.464.35.818.826 1.02 1.371a6.68 6.68 0 0 1 .359 2.343c-.032 1.913-.566 4.033-4.208 4.686z"/></g><defs ><path id="B" d="M81.418 98.092H40.581c-.88 0-1.594.714-1.594 1.594v2.829c0 .88.714 1.594 1.594 1.594h40.837c.88 0 1.594-.714 1.594-1.594v-2.829c0-.88-.714-1.594-1.594-1.594z"/></defs></svg>