<svg width="250" height="212" viewBox="0 0 250 212" fill="none" xmlns="http://www.w3.org/2000/svg">
<g clip-path="url(#clip0_4412_37048)">
<rect width="250" height="212" fill="url(#paint0_linear_4412_37048)"/>
<circle cx="125" cy="106" r="70" fill="white"/>
<g clip-path="url(#clip1_4412_37048)">
<path d="M125 157C153.167 157 176 134.167 176 106C176 77.8335 153.167 55 125 55C96.8335 55 74 77.8335 74 106C74 134.167 96.8335 157 125 157Z" fill="url(#paint1_linear_4412_37048)"/>
<path fill-rule="evenodd" clip-rule="evenodd" d="M109.899 134.21H127.849C128.247 130.783 129.841 128.671 131.156 127.476C132.909 125.882 135.14 125.046 137.272 125.165C137.61 125.185 137.949 125.205 138.268 125.225C140.22 125.364 141.615 125.444 142.332 124.827C142.77 124.428 143.009 123.651 143.049 122.456C143.228 117.216 143.547 115.543 144.683 112.136C144.982 111.22 145.699 110.423 146.575 109.985C147.173 109.706 147.293 109.367 147.332 109.128C147.611 107.694 145.3 105.204 144.324 104.148C144.165 103.988 144.045 103.849 143.946 103.729C142.392 101.996 142.491 100.243 142.571 98.5496C142.591 98.0316 142.631 97.4938 142.611 96.9559C142.173 86.198 133.387 77.791 122.629 77.791C111.593 77.791 102.628 86.7559 102.628 97.7926C102.628 102.833 104.5 107.634 107.927 111.339C110.835 114.467 110.337 127.895 109.899 134.21V134.21ZM128.466 135.505H109.242C109.062 135.505 108.883 135.425 108.764 135.305C108.644 135.166 108.584 135.007 108.584 134.827C109.202 125.882 109.162 114.587 106.971 112.216C103.345 108.271 101.333 103.152 101.333 97.7926C101.333 86.0586 110.875 76.4961 122.629 76.4961C128.168 76.4961 133.407 78.6078 137.391 82.4527C141.376 86.2777 143.687 91.4176 143.906 96.916C143.926 97.5137 143.906 98.0715 143.866 98.6293C143.786 100.183 143.727 101.538 144.922 102.893C145.021 102.992 145.141 103.132 145.28 103.291C146.575 104.705 149.006 107.315 148.607 109.387C148.508 109.925 148.169 110.662 147.153 111.16C146.575 111.439 146.117 111.957 145.918 112.555C144.842 115.822 144.523 117.436 144.344 122.516C144.284 124.109 143.926 125.145 143.209 125.803C142.093 126.799 140.38 126.679 138.208 126.54C137.889 126.52 137.551 126.5 137.212 126.48C135.419 126.38 133.527 127.098 132.032 128.452C130.817 129.548 129.323 131.58 129.104 134.927C129.084 135.266 128.785 135.505 128.466 135.505V135.505Z" fill="#FFFFFE"/>
<path fill-rule="evenodd" clip-rule="evenodd" d="M136.355 126.439C133.686 126.439 131.255 126 128.387 124.088C128.088 123.889 128.008 123.49 128.207 123.191C128.406 122.892 128.805 122.813 129.104 123.012C131.853 124.845 134.064 125.183 136.734 125.144H136.754C137.112 125.144 137.391 125.423 137.391 125.781C137.391 126.14 137.112 126.439 136.754 126.439C136.634 126.439 136.475 126.439 136.355 126.439V126.439Z" fill="#FFFFFE"/>
<path fill-rule="evenodd" clip-rule="evenodd" d="M137.67 84.2641H129.004C127.63 84.2641 126.494 83.1484 126.494 81.7539V77.6102C126.494 77.2516 126.773 76.9727 127.132 76.9727C127.49 76.9727 127.769 77.2516 127.769 77.6102V81.7539C127.769 82.4313 128.307 82.9691 128.984 82.9691H137.65C138.009 82.9691 138.288 83.248 138.288 83.6066C138.328 84.0051 138.049 84.2641 137.67 84.2641V84.2641Z" fill="#FFFFFE"/>
<path fill-rule="evenodd" clip-rule="evenodd" d="M113.864 117.056H109.043C108.684 117.056 108.405 116.777 108.405 116.419C108.405 116.06 108.684 115.781 109.043 115.781H113.864C114.222 115.781 114.501 116.06 114.501 116.419C114.521 116.757 114.222 117.056 113.864 117.056Z" fill="#FFFFFE"/>
<path fill-rule="evenodd" clip-rule="evenodd" d="M116.314 114.608C115.318 114.608 114.521 115.405 114.521 116.401C114.521 117.397 115.318 118.194 116.314 118.194C117.31 118.194 118.107 117.397 118.107 116.401C118.107 115.405 117.27 114.608 116.314 114.608ZM116.314 119.469C114.621 119.469 113.226 118.094 113.226 116.381C113.226 114.688 114.601 113.293 116.314 113.293C118.007 113.293 119.402 114.668 119.402 116.381C119.382 118.114 118.007 119.469 116.314 119.469Z" fill="#FFFFFE"/>
<path fill-rule="evenodd" clip-rule="evenodd" d="M117.051 135.507C116.692 135.507 116.414 135.228 116.414 134.869V130.028C116.414 129.67 116.692 129.391 117.051 129.391C117.41 129.391 117.689 129.67 117.689 130.028V134.869C117.669 135.208 117.41 135.507 117.051 135.507Z" fill="#FFFFFE"/>
<path fill-rule="evenodd" clip-rule="evenodd" d="M117.051 125.803C116.055 125.803 115.258 126.6 115.258 127.596C115.258 128.592 116.055 129.389 117.051 129.389C118.047 129.389 118.844 128.592 118.844 127.596C118.844 126.6 118.007 125.803 117.051 125.803ZM117.051 130.684C115.358 130.684 113.963 129.309 113.963 127.596C113.963 125.902 115.338 124.508 117.051 124.508C118.744 124.508 120.139 125.882 120.139 127.596C120.139 129.289 118.744 130.684 117.051 130.684Z" fill="#FFFFFE"/>
<path fill-rule="evenodd" clip-rule="evenodd" d="M142.153 91.6969H136.933C136.575 91.6969 136.296 91.418 136.296 91.0594C136.296 90.7008 136.575 90.4219 136.933 90.4219H142.153C142.511 90.4219 142.79 90.7008 142.79 91.0594C142.79 91.418 142.531 91.6969 142.153 91.6969Z" fill="#FFFFFE"/>
<path fill-rule="evenodd" clip-rule="evenodd" d="M134.483 89.2871C133.487 89.2871 132.69 90.084 132.69 91.0801C132.69 92.0762 133.487 92.873 134.483 92.873C135.479 92.873 136.276 92.0762 136.276 91.0801C136.276 90.084 135.479 89.2871 134.483 89.2871ZM134.483 94.168C132.789 94.168 131.395 92.7934 131.395 91.0801C131.395 89.3867 132.769 87.9922 134.483 87.9922C136.176 87.9922 137.571 89.3668 137.571 91.0801C137.571 92.7734 136.196 94.168 134.483 94.168Z" fill="#FFFFFE"/>
<path fill-rule="evenodd" clip-rule="evenodd" d="M113.963 86.7559C112.549 86.7559 111.393 87.9113 111.393 89.3258V89.4254C111.413 89.7641 111.154 90.0629 110.816 90.0828C109.501 90.2223 108.505 91.318 108.505 92.6328C108.505 94.0473 109.66 95.2027 111.075 95.2027H124.602C126.016 95.2027 127.172 94.0473 127.172 92.6328C127.172 91.298 126.175 90.2023 124.861 90.0828C124.522 90.043 124.263 89.7641 124.283 89.4254C124.283 89.3855 124.283 89.3656 124.283 89.3258C124.283 87.9113 123.127 86.7559 121.713 86.7559C121.474 86.7559 121.255 86.7957 121.016 86.8555C120.697 86.9551 120.358 86.7758 120.239 86.457C119.86 85.441 118.904 84.7637 117.828 84.7637C116.752 84.7637 115.776 85.441 115.418 86.457C115.298 86.7758 114.959 86.9551 114.641 86.8555C114.422 86.7559 114.202 86.7559 113.963 86.7559V86.7559ZM124.622 96.5176H111.095C108.963 96.5176 107.23 94.7844 107.23 92.6527C107.23 90.8598 108.445 89.3457 110.138 88.9074C110.338 86.975 111.991 85.4609 113.983 85.4609C114.143 85.4609 114.302 85.4809 114.461 85.5008C115.139 84.2656 116.434 83.4688 117.868 83.4688C119.302 83.4688 120.597 84.2656 121.275 85.5008C121.434 85.4809 121.593 85.4609 121.753 85.4609C123.745 85.4609 125.379 86.975 125.598 88.9074C127.291 89.3258 128.506 90.8598 128.506 92.6527C128.466 94.7645 126.713 96.5176 124.622 96.5176V96.5176Z" fill="#FFFFFE"/>
<path fill-rule="evenodd" clip-rule="evenodd" d="M112.808 101.299C112.449 101.299 112.17 101.02 112.17 100.661V95.8602C112.17 95.5016 112.449 95.2227 112.808 95.2227C113.166 95.2227 113.445 95.5016 113.445 95.8602V100.661C113.425 101 113.166 101.299 112.808 101.299Z" fill="#FFFFFE"/>
<path fill-rule="evenodd" clip-rule="evenodd" d="M122.888 101.299C122.53 101.299 122.251 101.02 122.251 100.661V95.8602C122.251 95.5016 122.53 95.2227 122.888 95.2227C123.247 95.2227 123.526 95.5016 123.526 95.8602V100.661C123.526 101 123.227 101.299 122.888 101.299Z" fill="#FFFFFE"/>
<path fill-rule="evenodd" clip-rule="evenodd" d="M112.808 101.299C111.872 101.299 111.115 102.056 111.115 102.992C111.115 103.929 111.872 104.686 112.808 104.686C113.744 104.686 114.501 103.929 114.501 102.992C114.501 102.056 113.724 101.299 112.808 101.299ZM112.808 105.98C111.174 105.98 109.82 104.646 109.82 102.992C109.82 101.359 111.154 100.004 112.808 100.004C114.441 100.004 115.776 101.339 115.776 102.992C115.756 104.626 114.422 105.98 112.808 105.98Z" fill="#FFFFFE"/>
<path fill-rule="evenodd" clip-rule="evenodd" d="M122.888 101.299C121.952 101.299 121.195 102.056 121.195 102.992C121.195 103.929 121.952 104.686 122.888 104.686C123.825 104.686 124.582 103.929 124.582 102.992C124.582 102.056 123.825 101.299 122.888 101.299ZM122.888 105.98C121.255 105.98 119.9 104.646 119.9 102.992C119.9 101.359 121.235 100.004 122.868 100.004C124.502 100.004 125.837 101.339 125.837 102.992C125.837 104.626 124.522 105.98 122.888 105.98V105.98Z" fill="#FFFFFE"/>
<path fill-rule="evenodd" clip-rule="evenodd" d="M143.208 100.783H138.965C138.607 100.783 138.328 100.504 138.328 100.145C138.328 99.7867 138.607 99.5078 138.965 99.5078H143.208C143.567 99.5078 143.846 99.7867 143.846 100.145C143.846 100.464 143.547 100.783 143.208 100.783Z" fill="#FFFFFE"/>
<path fill-rule="evenodd" clip-rule="evenodd" d="M136.535 98.3105C135.539 98.3105 134.742 99.1074 134.742 100.104C134.742 101.1 135.539 101.896 136.535 101.896C137.531 101.896 138.328 101.1 138.328 100.104C138.328 99.1473 137.531 98.3105 136.535 98.3105ZM136.535 103.191C134.841 103.191 133.447 101.817 133.447 100.104C133.447 98.4102 134.821 97.0156 136.535 97.0156C138.228 97.0156 139.623 98.3902 139.623 100.104C139.623 101.817 138.228 103.191 136.535 103.191Z" fill="#FFFFFE"/>
<path fill-rule="evenodd" clip-rule="evenodd" d="M137.252 126.442C136.913 126.442 136.614 126.163 136.614 125.824C136.415 120.744 135.439 117.198 133.706 115.246C133.467 114.987 133.487 114.569 133.766 114.33C134.025 114.091 134.443 114.11 134.682 114.389C136.654 116.601 137.71 120.326 137.909 125.785C137.929 126.143 137.65 126.442 137.292 126.462C137.252 126.442 137.252 126.442 137.252 126.442V126.442Z" fill="#FFFFFE"/>
<path fill-rule="evenodd" clip-rule="evenodd" d="M132.212 111.58C131.216 111.58 130.419 112.377 130.419 113.373C130.419 114.37 131.216 115.166 132.212 115.166C133.208 115.166 134.005 114.37 134.005 113.373C134.005 112.377 133.208 111.58 132.212 111.58ZM132.212 116.441C130.518 116.441 129.124 115.067 129.124 113.354C129.124 111.66 130.498 110.266 132.212 110.266C133.905 110.266 135.3 111.64 135.3 113.354C135.3 115.067 133.945 116.441 132.212 116.441Z" fill="#FFFFFE"/>
<path fill-rule="evenodd" clip-rule="evenodd" d="M126.793 120.303C125.797 120.303 125 121.1 125 122.096C125 123.092 125.797 123.889 126.793 123.889C127.789 123.889 128.586 123.092 128.586 122.096C128.586 121.12 127.789 120.303 126.793 120.303ZM126.793 125.164C125.1 125.164 123.705 123.789 123.705 122.076C123.705 120.383 125.08 118.988 126.793 118.988C128.486 118.988 129.881 120.363 129.881 122.076C129.881 123.809 128.486 125.164 126.793 125.164Z" fill="#FFFFFE"/>
</g>
</g>
<defs>
<linearGradient id="paint0_linear_4412_37048" x1="-3.72529e-06" y1="106" x2="250" y2="106" gradientUnits="userSpaceOnUse">
<stop stop-color="#ACA6ED"/>
<stop offset="1" stop-color="#B3DCF5"/>
</linearGradient>
<linearGradient id="paint1_linear_4412_37048" x1="125.01" y1="55.01" x2="125.01" y2="157.01" gradientUnits="userSpaceOnUse">
<stop stop-color="#F704FE"/>
<stop offset="1" stop-color="#24BCE3"/>
</linearGradient>
<clipPath id="clip0_4412_37048">
<rect width="250" height="212" fill="white"/>
</clipPath>
<clipPath id="clip1_4412_37048">
<rect width="102" height="102" fill="white" transform="translate(74 55)"/>
</clipPath>
</defs>
</svg>
