<svg xmlns="http://www.w3.org/2000/svg" width="250" height="212" fill="none" xmlns:v="https://vecta.io/nano"><g clip-path="url(#A)"><path fill="#f0f0f0" d="M0 0h250v212H0z"/><g fill-rule="evenodd"><g fill="#d9e6ff"><path d="M127.056 154.021c30.106-.128 121.406 1.808 104.574-.783s-47.137-1.951-103.45-1.951-105.143-1.309-105.143 1.381 73.899 1.481 104.019 1.353zm66.543-37.617h3.088v-5.197h1.622v5.197h3.073v17.227h-3.073v6.919h-1.622v-6.919h-3.088v-17.227zm44.619-16.116h3.073V93.71h1.622v6.578H246v15.902h-3.087v4.87h-1.622v-4.87h-3.073v-15.902zm-11.155 5.324h3.087v-6.919h1.608v6.919h3.088v14.693h-3.088v6.264h-1.608v-6.264h-3.087v-14.693zm-200.754-.811h3.073v-4.67h1.622v4.67h3.087v19.149h-3.087v7.346h-1.622v-7.346h-3.073v-19.149zm11.155-8.13h3.073v-4.599h1.622v4.599h3.087v15.718h-3.087v3.972h-1.622v-3.972h-3.073V96.671zm44.604 44.435h3.088v5.324h1.622v-5.324h3.087v-6.464h-3.087v-7.93h-1.622v7.93h-3.088v6.464zm11.155-4.229h3.087v7.104h1.622v-7.104h3.073v-14.365h-3.073v-4.456H96.31v4.456h-3.087v14.365zm11.154-24.16h3.087v-5.354h1.622v5.354h3.074v15.917h-3.074v7.204h-1.622v-7.204h-3.087v-15.917zm33.464 5.097h3.073v-3.916h1.622v3.916h3.087v18.721h-3.087v3.403h-1.622v-3.403h-3.073v-18.721zm11.154-13.184h3.074v-5.723h1.621v5.723h3.088v14.693h-3.088v4.527h-1.621v-4.527h-3.074V104.63zm11.141-7.831h3.087v-5.182h1.622V96.8h3.087v5.596h-3.087v9.069h-1.622v-9.069h-3.087V96.8z"/></g><path d="M15.155 123.399h3.087v-5.382h1.608v5.382h3.088v9.895H19.85v4.684h-1.608v-4.684h-3.087v-9.895zM4 126.175h3.087v4.286h1.608v-4.286h3.087V113.59H8.695v-3.204H7.087v3.204H4v12.585zm200.754-3.815h3.087v-5.909h1.608v5.909h3.087v5.723h-3.087v12.458h-1.608v-12.458h-3.087v-5.723zm11.154-5.837h3.088v-3.788h1.607v3.788h3.088v8.271h-3.088v10.465h-1.607v-10.465h-3.088v-8.271zm-33.463 7.204h3.087v9.054h1.608v-9.054h3.087v-11.945h-3.087v-5.567h-1.608v5.567h-3.087v11.945zm-11.155-5.225h3.087v4.655h1.622v-4.655h3.088v-14.309h-3.088v-6.834h-1.622v6.834h-3.087v14.309zm-44.604 22.608h3.087v6.791h1.608v-6.791h3.088v-9.61h-3.088v-2.079h-1.608v2.079h-3.087v9.61zm-11.155-19.519h3.088v-4.3h1.608v4.3h3.087v16.387h-3.087v4.186h-1.608v-4.186h-3.088v-16.387zm-44.618 7.503h3.087v-5.638h1.622v5.638h3.087v9.667h-3.087v5.894h-1.622v-5.894h-3.087v-9.667zm-11.155-12.785h3.102v-8.756h1.608v8.756h3.087v12.685h-3.087v2.549H62.86v-2.549h-3.102v-12.685zm-11.14 1.182h3.087v4.342h1.608v-4.342h3.087v-16.117h-3.087v-2.719h-1.608v2.719h-3.087v16.117z" fill="#b6ceff"/><g fill="#d9e6ff"><path d="M98.273 89.147l7.84 7.845c.206.207.451.371.721.483a2.22 2.22 0 0 0 1.702 0c.27-.112.515-.276.721-.483l30.277-30.297 3.841 3.844a2.22 2.22 0 0 0 2.247.541c.388-.125.734-.355 1-.663a2.21 2.21 0 0 0 .509-1.088l3.742-22.409a2.22 2.22 0 0 0-1.505-2.484 2.22 2.22 0 0 0-1.042-.079l-22.408 3.744c-.402.067-.778.243-1.087.509a2.22 2.22 0 0 0-.663 1.001c-.125.388-.141.803-.045 1.2a2.23 2.23 0 0 0 .585 1.048l3.856 3.858-30.291 30.297a2.2 2.2 0 0 0-.482.718 2.21 2.21 0 0 0 0 1.696c.112.269.276.513.482.718zm19.592 31.142l14.384 14.408c.378.379.827.68 1.322.885a4.05 4.05 0 0 0 3.119 0 4.07 4.07 0 0 0 1.321-.885l55.602-55.639 7.057 7.062c2.334 2.335 6.346 1.054 6.887-2.207l6.872-41.174a4.07 4.07 0 0 0-2.772-4.545c-.616-.198-1.271-.246-1.909-.14l-41.133 6.877c-3.272.555-4.553 4.556-2.219 6.905l7.071 7.062-55.602 55.639c-.379.377-.679.825-.884 1.319a4.06 4.06 0 0 0 0 3.114c.205.494.505.942.884 1.319z"/></g><g fill="#b6ceff"><path d="M202.748 94.334l.554-1.865 1.722.484-.526 1.879 1.365.399.541-1.879 1.722.484-.541 1.879.1.029c1.152.327 1.949.868 2.404 1.609.223.349.368.742.425 1.153s.023.828-.098 1.225a2.79 2.79 0 0 1-1.181 1.637 2.94 2.94 0 0 1-1.508.427c.797.456 1.323.982 1.58 1.609s.284 1.295.071 2.064c-.16.586-.474 1.117-.911 1.538a3.25 3.25 0 0 1-1.508.84c-.356.1-.868.085-1.508 0l-1.252-.214-.541 1.908-1.721-.484.54-1.879-1.38-.399-.541 1.879-1.721-.484.541-1.879h-.015l-2.874-.811.683-2.421 1.466.413 2.02-7.104-1.465-.413.697-2.42 2.86.812v-.014zm.412 5.182l1.608.47c.569.157 1.01.171 1.28.043a1.13 1.13 0 0 0 .377-.32 1.14 1.14 0 0 0 .207-.449 1.06 1.06 0 0 0 .054-.467 1.05 1.05 0 0 0-.154-.444c-.171-.256-.541-.47-1.095-.626l-1.637-.47-.64 2.264zm-1.337 4.698l1.878.527c.645.181 1.129.195 1.451.043a1.12 1.12 0 0 0 .64-.797c.052-.16.066-.329.041-.494s-.087-.323-.183-.46c-.199-.285-.612-.527-1.266-.712l-1.864-.527-.697 2.42zm-98.641-49.902l-3.671-.555a4.17 4.17 0 0 0-.185-1.068 2.38 2.38 0 0 0-.541-.726l-.854 2.705c1.75 1.11 2.845 2.036 3.3 2.805.612 1.025.726 2.107.37 3.274a4.08 4.08 0 0 1-1.053 1.737c-.461.458-1.007.82-1.607 1.068a5.19 5.19 0 0 1-1.764.356c-.694-.014-1.383-.119-2.049-.313l-.555 1.765-1.366-.427.555-1.765a9.27 9.27 0 0 1-2.091-1.153 4.48 4.48 0 0 1-1.195-1.353c-.286-.473-.484-.994-.583-1.538-.086-.581-.086-1.171 0-1.751l3.913.755c-.071.655-.057 1.139.043 1.481s.341.669.711 1.025l1.053-3.317c-1.167-.755-1.963-1.338-2.404-1.765a3.61 3.61 0 0 1-.996-1.666c-.203-.74-.178-1.524.071-2.249a3.93 3.93 0 0 1 .768-1.427c.352-.417.789-.755 1.28-.993 1.01-.512 2.305-.555 3.87-.157l.285-.925 1.366.427-.285.925c1.375.522 2.343 1.191 2.902 2.008a4.23 4.23 0 0 1 .712 2.819zm-5.734-2.833c-.455 0-.782.086-.996.228a1.11 1.11 0 0 0-.455.612 1.14 1.14 0 0 0 .014.783c.1.256.327.513.683.783l.754-2.406zm-1.551 9.667c.569.057 1.024-.029 1.352-.214a1.42 1.42 0 0 0 .654-.797 1.24 1.24 0 0 0-.057-.925c-.128-.313-.455-.669-.996-1.068l-.953 3.004zM55.22 79.172l.327 1.708L53 82.047c.797.897 1.764 1.096 2.874.584s2.163-1.466 2.86-2.734l1.437 3.146c-.598.997-1.522 1.78-2.76 2.349-2.006.925-3.699 1.139-5.079.669s-2.419-1.224-3.159-2.249l-1.522.698-.299-1.723.925-.427a5.34 5.34 0 0 1-.228-.441 5.12 5.12 0 0 1-.199-.484l-1.124.512-.299-1.723.911-.427c-.598-3.218.754-5.581 4.026-7.09 1.151-.501 2.405-.716 3.657-.626l.64 3.403c-1.081-.356-2.049-.342-2.874.043-1.091.503-1.603 1.329-1.537 2.477l3.045-1.395.327 1.708-2.959 1.367.199.484.213.456 3.144-1.452z"/></g><path d="M174.207 153.047H77.245c-1.921 0-4.652.1-5.947 1.253-2.262 1.737-29.85 20.202-14.299 20.259h137.468c15.58 0-12.093-18.551-14.313-20.259-1.295-1.153-4.055-1.253-5.947-1.253z" fill="#c1d4f7"/><path d="M172.983 150.781H77.856c-1.892 0-4.567.1-5.833 1.253L53.57 166.485c-.014 2.762-.299 5.78 4.411 5.794h134.865c4.709 0 4.439-3.032 4.425-5.794l-18.454-14.451c-1.266-1.153-3.983-1.253-5.833-1.253z" fill="#294080"/><path d="M175.999 148.031H74.755c-2.604 0-5.663.712-6.573 1.723l-14.455 16.259c-.996 1.124.925 1.794 4.539 1.794h134.225c3.614 0 5.535-.67 4.539-1.794l-14.456-16.259c-.924-1.025-3.969-1.723-6.573-1.723z" fill="#e5edff"/></g><path d="M175.857 72.852H74.755c-2.719 0-4.923 2.205-4.923 4.926v65.328c0 2.721 2.204 4.926 4.923 4.926h101.102c2.719 0 4.923-2.205 4.923-4.926V77.778c0-2.721-2.204-4.926-4.923-4.926z" fill="#294080"/><path d="M175.658 78.398H74.954v64.082h100.704V78.398z" fill="#6f9fff"/><g fill-rule="evenodd"><path d="M87.318 153.868c.526 0 .711.455.427 1.011s-.968 1.053-1.522 1.053h-15.21c-.541 0-.597-.47-.171-1.053s1.181-1.011 1.707-1.011h14.769zm46.197-1.082c-.258-.009-.505-.109-.696-.284s-.312-.413-.342-.67a.81.81 0 0 1 .026-.349c.034-.113.093-.217.171-.306a.81.81 0 0 1 .284-.204.8.8 0 0 1 .344-.066h7.541c.261.013.512.11.714.277a1.23 1.23 0 0 1 .41.648c.128.527-.171.954-.698.954h-7.754zm-12.022 0a.89.89 0 0 1-.353-.073c-.112-.049-.211-.121-.293-.211s-.144-.196-.182-.311-.052-.238-.04-.359a1 1 0 0 1 .31-.654.99.99 0 0 1 .672-.271h7.526c.25.002.49.099.671.271s.293.405.311.654c.012.121-.002.243-.04.359s-.1.221-.182.311-.182.162-.293.211a.89.89 0 0 1-.353.073h-7.754zm-12.051 0c-.512 0-.825-.427-.697-.954.066-.256.212-.483.417-.65s.457-.263.721-.275h7.541a.81.81 0 0 1 .339.07c.106.048.201.118.278.206a.81.81 0 0 1 .168.303c.033.112.042.23.026.346-.028.258-.149.497-.34.673s-.44.275-.699.281h-7.754zm-12.008 0c-.526 0-.768-.427-.555-.954s.797-.925 1.309-.925h7.526c.498 0 .797.412.655.925s-.697.954-1.195.954h-7.74zm-12.051 0c-.512 0-.683-.427-.384-.954s.968-.925 1.466-.925h7.541c.512 0 .74.412.498.925s-.839.954-1.366.954h-7.754zm-12.023 0c-.526 0-.597-.427-.199-.954s1.096-.925 1.593-.925h7.541c.498 0 .654.412.327.925s-1.01.954-1.522.954h-7.74zm96.265 0c-.526 0-1.209-.427-1.536-.954s-.171-.925.341-.925h7.555c.498 0 1.21.412 1.608.925s.313.954-.214.954h-7.754zm-12.022 0c-.527 0-1.138-.427-1.38-.954s0-.925.512-.925h7.512c.512 0 1.167.412 1.466.925s.142.954-.384.954h-7.726zm-12.037 0a1.34 1.34 0 0 1-1.209-.954c-.142-.513.156-.925.669-.925h7.526c.512 0 1.096.412 1.309.925s-.028.954-.555.954h-7.74zm-54.293 3.146c-.555 0-.768-.47-.484-1.053s.896-1.011 1.437-1.011h7.697c.526 0 .796.455.597 1.011s-.797 1.053-1.337 1.053h-7.911zm12.193 0c-.54 0-.839-.47-.668-1.053s.754-1.011 1.28-1.011h7.683c.526 0 .868.455.768 1.011s-.611 1.053-1.152 1.053h-7.911zm12.179 0c-.54 0-.91-.47-.825-1.053.036-.27.165-.519.366-.704s.458-.293.73-.307h7.697a.97.97 0 0 1 .371.086c.117.053.223.128.31.222s.155.205.199.326.065.248.059.377a1.02 1.02 0 0 1-.28.733c-.092.098-.203.176-.326.231s-.256.086-.39.089h-7.911zm12.193 0c-.134-.003-.267-.034-.389-.089a1.03 1.03 0 0 1-.327-.231c-.092-.098-.165-.213-.213-.339a1.04 1.04 0 0 1-.067-.394.95.95 0 0 1 .054-.374.93.93 0 0 1 .503-.542c.116-.052.241-.079.368-.081h7.683a1.21 1.21 0 0 1 .736.303c.204.181.341.425.388.694.086.583-.284 1.053-.825 1.053h-7.911zm12.194 0c-.541 0-1.067-.47-1.181-1.053s.242-.997.768-.997h7.697c.527 0 1.096.441 1.281.997s-.1 1.053-.655 1.053h-7.91zm12.193 0c-.541 0-1.153-.47-1.352-1.053s.071-.997.598-.997h7.669c.526 0 1.18.441 1.465.997s.071 1.053-.47 1.053h-7.91zm12.278 0c-.54 0-1.223-.47-1.522-1.053s-.114-.997.413-.997h14.796c.527 0 1.295.441 1.708.997s.37 1.053-.185 1.053h-15.21zm-96.051 3.431c-.569 0-.612-.512-.142-1.139s1.266-1.11 1.821-1.11h9.789c.555 0 .697.498.327 1.11s-1.124 1.139-1.693 1.139H68.452zm14.526 0c-.569 0-.74-.512-.384-1.139s1.081-1.11 1.622-1.11h9.177c.555 0 .797.498.541 1.11s-.939 1.139-1.508 1.139h-9.447zm97.631-2.249c.541 0 1.38.498 1.85 1.11s.384 1.139-.185 1.139h-10.088c-.569 0-1.323-.512-1.707-1.139s-.228-1.11.327-1.11h9.803zm-14.1 0c.555 0 1.281.498 1.637 1.11s.185 1.139-.384 1.139H158.3c-.569 0-1.238-.512-1.508-1.139s-.014-1.11.541-1.11h9.176zm-14.284 0c.555 0 1.195.498 1.423 1.11s-.043 1.139-.598 1.139H97.747c-.569 0-.839-.512-.598-1.139s.854-1.11 1.409-1.11h53.667z" fill="#6478ab"/><path d="M110.04 165.392c-.584 0-.982-.284-1.167-.726s-.157-.996.114-1.594a3.64 3.64 0 0 1 1.152-1.381 2.59 2.59 0 0 1 1.451-.527h27.631c.521.024 1.023.208 1.437.527a3.46 3.46 0 0 1 1.124 1.381c.256.598.284 1.167.085 1.594s-.597.726-1.181.726H110.04z" fill="#9eafd5"/><path opacity=".2" d="M79.55 100.883h52.914c3.428 0 6.63 2.32 7.113 5.154l5.279 31.307c.484 2.833-1.949 5.14-5.378 5.14H86.564c-3.443 0-6.644-2.307-7.114-5.14l-5.293-31.307c-.47-2.834 1.949-5.154 5.392-5.154z" fill="#002952"/><path d="M150.261 99.352v32.845a6.28 6.28 0 0 1-1.832 4.42c-1.171 1.174-2.757 1.836-4.414 1.844H91.102c-1.659-.004-3.249-.665-4.422-1.839a6.28 6.28 0 0 1-1.838-4.425V99.352h65.419z" fill="#fff"/><path d="M91.102 87.898h52.913c1.657.008 3.243.67 4.414 1.844s1.829 2.763 1.832 4.42v5.182H84.842v-5.182a6.28 6.28 0 0 1 1.838-4.425 6.27 6.27 0 0 1 4.422-1.839z" fill="#294080"/><path d="M88.1 117.866a1.29 1.29 0 0 1-.385-.328 1.3 1.3 0 0 1-.23-.451c-.046-.164-.06-.335-.04-.505s.073-.332.157-.481a1.31 1.31 0 0 1 1.764-.513l8.451 4.727c.493-.309 1.058-.484 1.639-.509a3.35 3.35 0 0 1 1.676.367l12.919-8.77a2.24 2.24 0 0 1-.057-.541c0-1.652 1.408-2.99 3.158-2.99s3.159 1.338 3.159 2.99l12.421 5.623a3.24 3.24 0 0 1 1.977-.669c.343 0 .684.053 1.011.157l9.091-9.069c.121-.121.264-.216.421-.282s.326-.099.497-.099a1.3 1.3 0 0 1 .496.099c.158.066.301.161.421.282a1.29 1.29 0 0 1 .282.421 1.31 1.31 0 0 1 .099.497 1.3 1.3 0 0 1-.099.497c-.065.158-.161.301-.282.421l-8.992 8.97a2.82 2.82 0 0 1 .214 1.096c0 1.666-1.409 3.004-3.159 3.004s-3.158-1.338-3.158-3.004l-12.407-5.609a3.38 3.38 0 0 1-1.724.643c-.623.05-1.248-.074-1.804-.359l-12.919 8.77a2.24 2.24 0 0 1 .057.541c0 1.652-1.409 2.99-3.159 2.99s-3.158-1.338-3.158-2.99a1.63 1.63 0 0 1 .014-.27l-8.352-4.656zm11.496 6.307c.811 0 1.466-.612 1.466-1.381 0-.388-.155-.761-.43-1.036s-.647-.43-1.036-.43-.761.155-1.036.43-.429.648-.429 1.036c0 .769.654 1.381 1.465 1.381zm35.114-3.972a1.43 1.43 0 0 0 1.02-.396 1.44 1.44 0 0 0 .446-.999c0-.755-.655-1.381-1.466-1.381s-1.465.626-1.465 1.381c.011.379.171.738.446.999a1.43 1.43 0 0 0 1.019.396zm-17.557-7.944a1.44 1.44 0 0 0 1.466-1.395c0-.769-.655-1.381-1.466-1.381s-1.465.612-1.465 1.381c.011.379.171.738.446.999s.641.404 1.019.396z" fill="#b3c5dc"/><path d="M87.787 135.28h6.047v-10.536h-6.047v10.536zm52.686 0h6.047v-15.177h-6.047v15.177zm-8.779 0h6.047v-8.813h-6.047v8.813zm-8.778 0h6.046v-11.048h-6.046v11.048zm-8.779 0h6.047v-15.405h-6.047v15.405zm-8.793 0h6.061v-7.603h-6.061v7.603zm-8.778 0h6.047v-5.453h-6.047v5.453z" fill="#c9e2f6"/><path opacity=".2" d="M128.72 92.031c.446-.003.882.127 1.253.372s.662.596.834 1.007.219.864.134 1.301a2.25 2.25 0 0 1-.612 1.155c-.314.316-.714.532-1.151.62s-.889.044-1.3-.126a2.25 2.25 0 0 1-1.012-.828c-.247-.37-.379-.806-.379-1.251-.002-.295.054-.587.166-.86s.275-.521.483-.73.454-.375.726-.488.564-.171.858-.171zm13.503 0c.445-.003.881.127 1.252.372a2.25 2.25 0 0 1 .835 1.007c.172.411.218.864.133 1.301a2.25 2.25 0 0 1-.612 1.155c-.313.316-.714.532-1.15.62s-.89.044-1.301-.126a2.24 2.24 0 0 1-1.011-.828 2.25 2.25 0 0 1-.38-1.251c-.002-.295.054-.587.166-.86s.275-.521.483-.73.454-.375.726-.488.564-.171.859-.171zm-6.759 0c.446-.003.882.127 1.253.372s.662.596.834 1.007.219.864.134 1.301a2.25 2.25 0 0 1-.612 1.155c-.314.316-.714.532-1.151.62s-.889.044-1.3-.126a2.25 2.25 0 0 1-1.012-.828c-.247-.37-.379-.806-.379-1.251-.002-.295.054-.587.166-.86s.275-.521.483-.73.454-.375.726-.488.564-.171.858-.171z" fill="#e0edf5"/><path opacity=".25" d="M96.552 94.93h52.913c3.443 0 6.644 2.321 7.114 5.154l5.292 31.293c.47 2.833-1.949 5.154-5.378 5.154H103.58c-3.443 0-6.644-2.321-7.128-5.154l-5.279-31.293c-.484-2.834 1.949-5.154 5.378-5.154z" fill="#002952"/><path d="M166.595 93.078v32.859a6.27 6.27 0 0 1-1.834 4.416 6.26 6.26 0 0 1-4.412 1.835h-52.913a6.26 6.26 0 0 1-4.412-1.835 6.27 6.27 0 0 1-1.834-4.416V93.078h65.405z" fill="#fff"/><path d="M105.999 99.031h55.787v1.31h-55.787v-1.31zm0 16.829h55.787v1.309h-55.787v-1.309zm0 8.414h55.787v1.31h-55.787v-1.31zm0-16.829h55.787v1.31h-55.787v-1.31z" fill="#d9e6ff"/><path d="M107.436 81.648h52.913c1.655.004 3.242.663 4.412 1.835s1.83 2.759 1.834 4.415v5.182H101.19v-5.182c.004-1.656.663-3.244 1.834-4.415s2.757-1.831 4.412-1.835z" fill="#294080"/><path opacity=".15" d="M145.054 85.781a2.23 2.23 0 0 1 1.241.377c.367.246.654.595.823 1.003a2.24 2.24 0 0 1 .127 1.291c-.086.434-.299.832-.611 1.144s-.711.526-1.144.612-.883.042-1.291-.127a2.23 2.23 0 0 1-1.002-.823c-.246-.368-.377-.8-.377-1.242 0-.593.236-1.161.655-1.58a2.23 2.23 0 0 1 1.579-.655zm13.516 0c.442.003.872.136 1.238.384a2.24 2.24 0 0 1 .816 1.006c.167.409.209.858.121 1.29a2.23 2.23 0 0 1-.614 1.141c-.313.311-.711.523-1.144.608s-.882.04-1.289-.13-.755-.456-1-.823-.376-.799-.376-1.24a2.24 2.24 0 0 1 .172-.859c.113-.272.279-.519.488-.727a2.24 2.24 0 0 1 .729-.484c.273-.111.565-.168.859-.166zm-6.758 0a2.23 2.23 0 0 1 2.064 1.38 2.24 2.24 0 0 1 .127 1.291c-.086.434-.299.832-.611 1.144s-.711.526-1.144.612-.882.042-1.291-.127a2.23 2.23 0 0 1-1.002-.823 2.24 2.24 0 0 1-.377-1.242c0-.593.236-1.161.655-1.58s.987-.655 1.579-.655z" fill="#b6ceff"/><path d="M114.649 107.362h-1.55v-3.431h-.811v3.431h-1.551v9.952h1.551v4.556h.811v-4.556h1.55v-9.952zm43.922 4.67h-1.551v6.962h-.811v-6.962h-1.551v-7.275h1.551v-2.947h.811v2.947h1.551v7.275zm-4.881.47h-1.55v-7.318h-.811v7.318h-1.551v5.139h1.551v3.916h.811v-3.916h1.55v-5.139zm-14.64-8.827h-1.551v-3.417h-.811v3.417h-1.551v9.966h1.551v4.541h.811v-4.541h1.551v-9.966zm-4.88 12.03h-1.551v6.962h-.811v-6.962h-1.551v-7.275h1.551v-2.947h.811v2.947h1.551v7.275zm-4.88.484h-1.551v-7.332h-.811v7.332h-1.551v5.126h1.551v3.929h.811v-3.929h1.551v-5.126z" fill="#36b9af"/><path d="M119.529 103.927h-1.55v-2.762h-.811v2.762h-1.551v6.421h1.551v6.635h.811v-6.635h1.55v-6.421zm29.281 2.421h-1.551v-3.047h-.811v3.047h-1.551v7.289h1.551v4.399h.811v-4.399h1.551v-7.289zm-4.88-6.094h-1.551v-2.762h-.811v2.762h-1.551v6.421h1.551v6.635h.811v-6.635h1.551v-6.421zm-19.521 9.767h-1.55v-3.047h-.811v3.047h-1.551v7.289h1.551v4.414h.811v-4.414h1.55v-7.289z" fill="#ff6364"/></g></g><defs><clipPath id="A"><path fill="#fff" d="M0 0h250v212H0z"/></clipPath></defs></svg>