<svg width="250" height="212" viewBox="0 0 250 212" fill="none" xmlns="http://www.w3.org/2000/svg">
<g clip-path="url(#clip0_5227_32932)">
<rect width="250" height="212" fill="black"/>
<g opacity="0.1">
<path d="M212.682 100.074C200.354 88.1153 162.506 99.2107 132.672 129.908C102.838 160.605 92.482 199.069 104.81 211.028C117.138 222.986 151.164 207.823 180.999 177.249C210.833 146.674 225.011 111.909 212.682 100.074Z" stroke="white" stroke-opacity="0.25" stroke-width="2" stroke-miterlimit="10" stroke-linecap="round" stroke-linejoin="round"/>
<path d="M105.797 211.643L124.535 230.259C134.028 239.135 170.15 225.821 198.875 194.63C233.887 156.783 239.435 128.428 231.421 120.661L213.792 100.812" stroke="white" stroke-opacity="0.25" stroke-width="2" stroke-miterlimit="10" stroke-linecap="round" stroke-linejoin="round"/>
<path d="M133.535 211.648C133.535 211.648 136.124 215.717 141.425 221.018C146.85 226.442 150.425 228.538 150.425 228.538" stroke="white" stroke-opacity="0.25" stroke-width="2" stroke-miterlimit="10" stroke-linecap="round" stroke-linejoin="round"/>
<path d="M152.151 202.773C152.151 202.773 154.74 206.842 160.041 212.143C165.465 217.567 169.04 219.663 169.04 219.663" stroke="white" stroke-opacity="0.25" stroke-width="2" stroke-miterlimit="10" stroke-linecap="round" stroke-linejoin="round"/>
<path d="M232.038 143.593C232.038 143.593 228.956 138.662 223.285 133.854C217.491 128.922 214.285 126.703 214.285 126.703" stroke="white" stroke-opacity="0.25" stroke-width="2" stroke-miterlimit="10" stroke-linecap="round" stroke-linejoin="round"/>
<path d="M182.725 -18.7687C176.93 -24.4397 159.178 -19.1385 145.124 -4.71449C131.069 9.70956 126.261 27.8321 132.056 33.3798C137.85 39.0508 153.877 31.9004 167.931 17.4764C181.862 3.05231 188.519 -13.0977 182.725 -18.7687Z" stroke="white" stroke-opacity="0.25" stroke-width="2" stroke-miterlimit="10" stroke-linecap="round" stroke-linejoin="round"/>
<path d="M132.549 33.7518L140.809 42.0117C146.356 47.4361 162.137 40.0392 176.314 25.8617C193.327 8.60213 195.3 -5.32878 191.601 -8.90397L183.341 -18.2734" stroke="white" stroke-opacity="0.25" stroke-width="2" stroke-miterlimit="10" stroke-linecap="round" stroke-linejoin="round"/>
<path d="M145.493 33.75C145.493 33.75 146.726 35.7225 149.192 38.1882C151.781 40.7771 153.383 41.7634 153.383 41.7634" stroke="white" stroke-opacity="0.25" stroke-width="2" stroke-miterlimit="10" stroke-linecap="round" stroke-linejoin="round"/>
<path d="M154.247 29.5547C154.247 29.5547 155.479 31.5272 157.945 33.9929C160.534 36.5818 162.137 37.568 162.137 37.568" stroke="white" stroke-opacity="0.25" stroke-width="2" stroke-miterlimit="10" stroke-linecap="round" stroke-linejoin="round"/>
<path d="M192.094 1.07835C192.094 1.07835 190.738 -0.770887 188.026 -2.98997C185.314 -5.33234 183.464 -6.19531 183.464 -6.19531" stroke="white" stroke-opacity="0.25" stroke-width="2" stroke-miterlimit="10" stroke-linecap="round" stroke-linejoin="round"/>
<path d="M32.9366 21.7908C42.1828 12.7912 70.9076 21.1744 93.4683 44.3515C116.029 67.5286 123.796 96.6232 114.55 105.623C105.303 114.622 79.5374 103.28 56.9767 80.1034C34.416 56.9263 23.6904 30.9137 32.9366 21.7908Z" stroke="white" stroke-opacity="0.25" stroke-width="2" stroke-miterlimit="10" stroke-linecap="round" stroke-linejoin="round"/>
<path d="M113.81 106.115L100.619 119.306C91.619 128.059 64.6202 117.704 41.9362 94.773C14.4442 67.1578 12.8415 43.241 18.8824 37.4467L32.1969 22.4062" stroke="white" stroke-opacity="0.25" stroke-width="2" stroke-miterlimit="10" stroke-linecap="round" stroke-linejoin="round"/>
<path d="M92.8519 106.242C92.8519 106.242 90.8794 109.324 86.9343 113.393C82.866 117.461 79.6606 120.173 79.6606 120.173" stroke="white" stroke-opacity="0.25" stroke-width="2" stroke-miterlimit="10" stroke-linecap="round" stroke-linejoin="round"/>
<path d="M78.7976 99.4609C78.7976 99.4609 76.8251 102.543 72.8801 106.611C68.8117 110.68 64.99 113.392 64.99 113.392" stroke="white" stroke-opacity="0.25" stroke-width="2" stroke-miterlimit="10" stroke-linecap="round" stroke-linejoin="round"/>
<path d="M16.9099 54.0895C16.9099 54.0895 20.2385 50.8842 24.5534 47.1857C28.9916 43.3639 31.8271 42.0078 31.8271 42.0078" stroke="white" stroke-opacity="0.25" stroke-width="2" stroke-miterlimit="10" stroke-linecap="round" stroke-linejoin="round"/>
</g>
<path d="M92.7541 83H48.0397C47.764 83 47.4995 83.1095 47.3046 83.3046C47.1095 83.4995 47 83.764 47 84.0399V128.754C47 129.03 47.1095 129.295 47.3046 129.489C47.4995 129.685 47.764 129.794 48.0397 129.794H92.7541C93.0301 129.794 93.2946 129.685 93.4895 129.489C93.6846 129.295 93.794 129.03 93.794 128.754V84.0399C93.794 83.764 93.6846 83.4995 93.4895 83.3046C93.2946 83.1095 93.0301 83 92.7541 83ZM78.196 113.156C78.196 113.432 78.0865 113.696 77.8914 113.892C77.6965 114.087 77.432 114.196 77.1562 114.196H63.6378C63.3621 114.196 63.0976 114.087 62.9025 113.892C62.7076 113.696 62.5981 113.432 62.5981 113.156V99.6378C62.5981 99.3621 62.7076 99.0976 62.9025 98.9027C63.0976 98.7076 63.3621 98.5981 63.6378 98.5981H77.1562C77.432 98.5981 77.6965 98.7076 77.8914 98.9027C78.0865 99.0976 78.196 99.3621 78.196 99.6378V113.156Z" fill="white"/>
<path d="M186.368 98.6016H172.85C172.276 98.6016 171.81 99.067 171.81 99.6413V113.16C171.81 113.734 172.276 114.2 172.85 114.2H186.368C186.943 114.2 187.408 113.734 187.408 113.16V99.6413C187.408 99.067 186.943 98.6016 186.368 98.6016Z" fill="white"/>
<path d="M170.764 83H157.246C156.672 83 156.206 83.4654 156.206 84.0399V97.5582C156.206 98.1324 156.672 98.5981 157.246 98.5981H170.764C171.338 98.5981 171.804 98.1324 171.804 97.5582V84.0399C171.804 83.4654 171.338 83 170.764 83Z" fill="white"/>
<path d="M201.96 83H188.442C187.868 83 187.402 83.4654 187.402 84.0399V97.5582C187.402 98.1324 187.868 98.5981 188.442 98.5981H201.96C202.534 98.5981 203 98.1324 203 97.5582V84.0399C203 83.4654 202.534 83 201.96 83Z" fill="white"/>
<path d="M170.764 114.195H157.246C156.672 114.195 156.206 114.661 156.206 115.235V128.753C156.206 129.328 156.672 129.793 157.246 129.793H170.764C171.338 129.793 171.804 129.328 171.804 128.753V115.235C171.804 114.661 171.338 114.195 170.764 114.195Z" fill="white"/>
<path d="M201.96 114.195H188.442C187.868 114.195 187.402 114.661 187.402 115.235V128.753C187.402 129.328 187.868 129.793 188.442 129.793H201.96C202.534 129.793 203 129.328 203 128.753V115.235C203 114.661 202.534 114.195 201.96 114.195Z" fill="white"/>
<path d="M147.347 83H133.829C133.255 83 132.79 83.4654 132.79 84.0399V97.5582C132.79 98.1324 133.255 98.5981 133.829 98.5981H147.347C147.922 98.5981 148.388 98.1324 148.388 97.5582V84.0399C148.388 83.4654 147.922 83 147.347 83Z" fill="white"/>
<path d="M147.347 114.195H133.829C133.255 114.195 132.79 114.661 132.79 115.235V128.753C132.79 129.328 133.255 129.793 133.829 129.793H147.347C147.922 129.793 148.388 129.328 148.388 128.753V115.235C148.388 114.661 147.922 114.195 147.347 114.195Z" fill="white"/>
<path d="M132.79 99.6262C132.79 99.3504 132.679 99.0859 132.484 98.891C132.29 98.6959 132.025 98.5864 131.75 98.5864H117.191V84.0399C117.191 83.764 117.081 83.4995 116.887 83.3046C116.691 83.1095 116.427 83 116.151 83H102.633C102.357 83 102.093 83.1095 101.898 83.3046C101.702 83.4995 101.593 83.764 101.593 84.0399V128.731C101.593 129.007 101.702 129.271 101.898 129.466C102.093 129.661 102.357 129.771 102.633 129.771H116.151C116.427 129.771 116.691 129.661 116.887 129.466C117.081 129.271 117.191 129.007 117.191 128.731V114.184H131.75C132.025 114.184 132.29 114.075 132.484 113.88C132.679 113.685 132.79 113.42 132.79 113.145V99.6262Z" fill="white"/>
</g>
<defs>
<clipPath id="clip0_5227_32932">
<rect width="250" height="212" fill="white"/>
</clipPath>
</defs>
</svg>
