<svg width="250" height="212" viewBox="0 0 250 212" fill="none" xmlns="http://www.w3.org/2000/svg">
<g clip-path="url(#clip0_1609_47)">
<mask id="mask0_1609_47" style="mask-type:luminance" maskUnits="userSpaceOnUse" x="0" y="0" width="250" height="212">
<path d="M250 0H0V212H250V0Z" fill="white"/>
</mask>
<g mask="url(#mask0_1609_47)">
<path d="M250 0H0V212H250V0Z" fill="#464646"/>
</g>
<g clip-path="url(#clip1_1609_47)">
<path d="M34.6 102.228L42.602 94.268L50.6071 102.234L55.2606 97.6002L42.602 85L29.9434 97.597L34.6 102.228Z" fill="#F3BA2F"/>
<path d="M21.9983 105.501L26.6533 100.868L31.3082 105.501L26.6533 110.133L21.9983 105.501Z" fill="#F3BA2F"/>
<path d="M34.6002 108.772L42.6021 116.735L50.6073 108.769L55.264 113.397L55.2607 113.4L42.6021 126L29.9435 113.406L29.937 113.4L34.6002 108.772Z" fill="#F3BA2F"/>
<path d="M53.8879 105.502L58.5429 100.87L63.1979 105.502L58.5429 110.134L53.8879 105.502Z" fill="#F3BA2F"/>
<path d="M47.3238 105.498L42.602 100.796L39.1104 104.271L38.7068 104.669L37.8803 105.492L37.8738 105.498L37.8803 105.508L42.602 110.204L47.3238 105.502L47.3271 105.498H47.3238Z" fill="#F3BA2F"/>
<path d="M70.4607 94.9351H80.5876C83.0998 94.9351 85.0002 95.5827 86.2888 96.878C86.7743 97.3565 87.1571 97.9282 87.4138 98.5583C87.6706 99.1885 87.796 99.8639 87.7825 100.544V100.605C87.7912 101.162 87.7133 101.717 87.5514 102.25C87.4073 102.709 87.198 103.146 86.9299 103.546C86.68 103.923 86.3776 104.263 86.0317 104.556C85.6939 104.845 85.3237 105.095 84.9286 105.301C86.068 105.696 87.0927 106.363 87.9126 107.244C88.6372 108.064 88.9995 109.198 88.9995 110.644V110.706C89.0201 111.609 88.8226 112.504 88.4235 113.316C88.0369 114.063 87.47 114.704 86.7737 115.181C85.9864 115.706 85.1099 116.085 84.1867 116.298C83.0898 116.557 81.9654 116.682 80.8381 116.67H70.4607V94.9351ZM79.5723 103.724C80.4484 103.766 81.3203 103.578 82.1007 103.18C82.4051 103.003 82.6536 102.745 82.8181 102.434C82.9825 102.124 83.0565 101.774 83.0314 101.425V101.363C83.0475 101.041 82.9817 100.72 82.8401 100.429C82.6985 100.139 82.4856 99.8887 82.2212 99.7018C81.681 99.3197 80.9011 99.1286 79.8814 99.1286H75.1434V103.724H79.5723ZM80.8512 112.483C81.7241 112.532 82.5929 112.333 83.3568 111.91C83.6544 111.72 83.8953 111.454 84.0544 111.139C84.2136 110.825 84.285 110.474 84.2615 110.123V110.061C84.2732 109.727 84.2025 109.396 84.0556 109.095C83.9087 108.795 83.69 108.535 83.4187 108.338C82.859 107.907 81.9543 107.691 80.7047 107.691H75.1434V112.483H80.8512Z" fill="#F3BA2F"/>
<path d="M95.0327 94.9351H99.8391V116.677H95.0327V94.9351Z" fill="#F3BA2F"/>
<path d="M107.112 94.9351H111.544L121.788 108.316V94.9351H126.533V116.677H122.442L111.863 102.856V116.677H107.112V94.9351Z" fill="#F3BA2F"/>
<path d="M141.085 94.7798H145.511L154.873 116.677H149.855L147.857 111.8H138.619L136.621 116.677H131.72L141.085 94.7798ZM146.142 107.578L143.233 100.525L140.337 107.578H146.142Z" fill="#F3BA2F"/>
<path d="M160.07 94.9351H164.502L174.739 108.316V94.9351H179.484V116.677H175.394L164.814 102.856V116.677H160.07V94.9351Z" fill="#F3BA2F"/>
<path d="M196.783 117.059C195.251 117.072 193.733 116.777 192.318 116.191C190.987 115.644 189.779 114.837 188.766 113.819C187.753 112.8 186.955 111.589 186.419 110.259C185.853 108.867 185.567 107.379 185.576 105.877V105.816C185.551 102.857 186.695 100.006 188.762 97.8787C189.779 96.8395 190.996 96.0156 192.341 95.4565C193.804 94.8534 195.375 94.5526 196.959 94.5725C197.895 94.5655 198.83 94.649 199.751 94.8218C200.538 94.97 201.308 95.199 202.048 95.5051C202.72 95.7864 203.358 96.1404 203.952 96.5608C204.531 96.9707 205.076 97.4278 205.579 97.9273L202.523 101.438C201.743 100.721 200.867 100.114 199.92 99.6339C198.99 99.1914 197.97 98.9697 196.939 98.9862C196.082 98.9771 195.232 99.1497 194.446 99.4925C193.661 99.8353 192.958 100.341 192.383 100.975C191.814 101.607 191.368 102.339 191.069 103.134C190.755 103.975 190.598 104.865 190.603 105.761V105.822C190.6 106.717 190.758 107.605 191.069 108.445C191.365 109.243 191.806 109.98 192.37 110.618C192.94 111.26 193.642 111.773 194.428 112.121C195.214 112.47 196.066 112.646 196.926 112.639C198.022 112.673 199.109 112.439 200.093 111.956C201.029 111.448 201.894 110.821 202.667 110.09L205.725 113.167C205.185 113.75 204.601 114.291 203.978 114.786C203.366 115.268 202.701 115.679 201.996 116.013C201.245 116.365 200.454 116.625 199.64 116.787C198.7 116.975 197.742 117.066 196.783 117.059V117.059Z" fill="#F3BA2F"/>
<path d="M211.397 94.9351H227.841V99.1902H216.126V103.601H226.441V107.856H216.142V112.422H228.003V116.677H211.407L211.397 94.9351Z" fill="#F3BA2F"/>
</g>
</g>
<defs>
<clipPath id="clip0_1609_47">
<rect width="250" height="212" fill="white"/>
</clipPath>
<clipPath id="clip1_1609_47">
<rect width="206" height="41" fill="white" transform="translate(22 85)"/>
</clipPath>
</defs>
</svg>
