<svg width="250" height="212" viewBox="0 0 250 212" fill="none" xmlns="http://www.w3.org/2000/svg">
<g clip-path="url(#clip0_5228_32932)">
<rect width="250" height="212" fill="#FF8C04"/>
<path d="M303 -5H-31V217.662H303V-5Z" fill="#F0F0F0"/>
<path d="M303 -5H-31V106.331H303V-5Z" fill="#D80027"/>
<path d="M23.4562 50.6575C23.4562 34.437 34.8566 20.8865 50.0797 17.5615C47.7397 17.05 45.3124 16.7734 42.8191 16.7734C24.1047 16.7734 8.93506 31.943 8.93506 50.6568C8.93506 69.3706 24.1053 84.5409 42.8191 84.5409C45.3124 84.5409 47.7397 84.2636 50.0797 83.7528C34.8566 80.4291 23.4562 66.8787 23.4562 50.6575Z" fill="#F0F0F0"/>
<path d="M67.0216 19.1953L69.4249 26.5909H77.2014L70.9096 31.1619L73.3128 38.5575L67.0216 33.9872L60.7298 38.5575L63.1336 31.1619L56.8418 26.5909H64.6184L67.0216 19.1953Z" fill="#F0F0F0"/>
<path d="M48.1579 33.7188L50.5604 41.1144H58.337L52.0452 45.6853L54.4484 53.081L48.1579 48.5106L41.866 53.081L44.2699 45.6853L37.978 41.1144H45.7546L48.1579 33.7188Z" fill="#F0F0F0"/>
<path d="M85.8855 33.7188L88.2887 41.1144H96.0653L89.7734 45.6853L92.1767 53.081L85.8855 48.5106L79.5943 53.081L81.9981 45.6853L75.7063 41.1144H83.4829L85.8855 33.7188Z" fill="#F0F0F0"/>
<path d="M78.6243 55.5L81.0276 62.8956H88.8041L82.5129 67.4666L84.9162 74.8622L78.6243 70.2919L72.3338 74.8622L74.737 67.4666L68.4458 62.8956H76.2217L78.6243 55.5Z" fill="#F0F0F0"/>
<path d="M55.4184 55.5L57.821 62.8956H65.5976L59.3064 67.4666L61.7096 74.8622L55.4184 70.2919L49.1272 74.8622L51.5305 67.4666L45.2393 62.8956H53.0152L55.4184 55.5Z" fill="#F0F0F0"/>
<path d="M124.5 164C156.809 164 183 137.809 183 105.5C183 73.1913 156.809 47 124.5 47C92.1913 47 66 73.1913 66 105.5C66 137.809 92.1913 164 124.5 164Z" fill="#00EED1"/>
<path d="M124.5 155.932C152.352 155.932 174.931 133.354 174.931 105.501C174.931 77.6491 152.352 55.0703 124.5 55.0703C96.6478 55.0703 74.0691 77.6491 74.0691 105.501C74.0691 133.354 96.6478 155.932 124.5 155.932Z" fill="#00DDC2"/>
<path d="M124.792 47C125.446 49.6651 125.911 52.3729 126.184 55.1033C135.498 55.4137 144.543 58.2985 152.317 63.4377C160.09 68.5769 166.288 75.7694 170.222 84.2171C174.155 92.6648 175.672 102.037 174.602 111.294C173.533 120.552 169.919 129.331 164.163 136.659C158.406 143.987 150.732 149.577 141.991 152.809C133.251 156.04 123.786 156.786 114.647 154.965C105.508 153.143 97.0523 148.825 90.2184 142.49C83.3846 136.154 78.4398 128.049 75.9328 119.074C73.3094 119.433 70.6649 119.616 68.0171 119.621C67.9183 119.621 67.8154 119.621 67.7246 119.621C70.3681 130.248 75.9413 139.919 83.8103 147.535C91.6792 155.151 101.528 160.406 112.236 162.7C122.943 164.995 134.08 164.238 144.379 160.516C154.678 156.794 163.725 150.256 170.492 141.645C177.258 133.035 181.472 122.698 182.653 111.811C183.835 100.924 181.937 89.9241 177.175 80.0626C172.413 70.2011 164.979 61.8741 155.719 56.0291C146.458 50.1841 135.743 47.0557 124.792 47V47Z" fill="#00DDC2"/>
<path d="M124.5 155.929C137.668 155.837 150.278 150.598 159.634 141.332C168.991 132.066 174.352 119.508 174.572 106.342C174.792 93.1753 169.853 80.445 160.811 70.8716C151.77 61.2982 139.342 55.6411 126.184 55.1094C126.398 57.1055 126.509 59.1112 126.517 61.1187C126.515 75.2612 121.39 88.9241 112.09 99.5788C102.79 110.233 89.9453 117.158 75.9329 119.072C78.8959 129.674 85.2468 139.016 94.0161 145.671C102.785 152.326 113.491 155.928 124.5 155.929V155.929Z" fill="#00CCB3"/>
<path d="M142.655 79.2734H106.345C104.74 79.2734 103.201 79.911 102.066 81.0459C100.931 82.1809 100.293 83.7201 100.293 85.3252C100.293 86.9302 100.931 88.4695 102.066 89.6044C103.201 90.7393 104.74 91.3769 106.345 91.3769H118.448V133.739C118.448 135.344 119.086 136.883 120.221 138.018C121.356 139.153 122.895 139.791 124.5 139.791C126.105 139.791 127.644 139.153 128.779 138.018C129.914 136.883 130.552 135.344 130.552 133.739V91.3769H142.655C144.26 91.3769 145.8 90.7393 146.934 89.6044C148.069 88.4695 148.707 86.9302 148.707 85.3252C148.707 83.7201 148.069 82.1809 146.934 81.0459C145.8 79.911 144.26 79.2734 142.655 79.2734Z" fill="#F1F2F2"/>
<path d="M124.5 119.62C122.456 119.62 120.373 119.544 118.301 119.395C107.648 118.63 96.2585 115.64 96.2585 109.534C96.2585 105.326 102.024 101.99 112.078 100.384C112.598 100.316 113.124 100.454 113.545 100.768C113.965 101.082 114.247 101.547 114.33 102.066C114.413 102.584 114.29 103.114 113.989 103.543C113.688 103.973 113.231 104.268 112.715 104.366C103.422 105.853 100.293 108.538 100.293 109.534C100.293 111.148 106.407 114.497 118.591 115.37C122.524 115.657 126.472 115.657 130.404 115.37C142.593 114.497 148.707 111.158 148.707 109.534C148.707 108.538 145.578 105.853 136.285 104.366C135.769 104.268 135.312 103.973 135.011 103.543C134.709 103.114 134.587 102.584 134.67 102.066C134.753 101.547 135.035 101.082 135.455 100.768C135.876 100.454 136.402 100.316 136.922 100.384C146.976 101.99 152.741 105.326 152.741 109.534C152.741 115.64 141.352 118.63 130.695 119.395C128.627 119.544 126.543 119.62 124.5 119.62V119.62Z" fill="#E6E7E8"/>
</g>
<defs>
<clipPath id="clip0_5228_32932">
<rect width="250" height="212" fill="white"/>
</clipPath>
</defs>
</svg>
