<?xml version="1.0" encoding="utf-8"?>
<!-- Generator: Adobe Illustrator 24.0.1, SVG Export Plug-In . SVG Version: 6.00 Build 0)  -->
<svg version="1.1" id="Layer_1" xmlns="http://www.w3.org/2000/svg" xmlns:xlink="http://www.w3.org/1999/xlink" x="0px" y="0px"
	 viewBox="0 0 193.3 193.3" style="enable-background:new 0 0 193.3 193.3;" xml:space="preserve">
<style type="text/css">
	.st0{fill-rule:evenodd;clip-rule:evenodd;fill:#FFFFFF;}
	.st1{fill:#FFFFFF;}
</style>
<path class="st0" d="M36.5,35.5c-4.1,5.9-13,9.2-16.4,15.6l-0.3,0.5l-1-0.5l0.2-0.5c1.4-3.3,2.2-6.5,3-10c0.6-2.8,1.1-5.7,2.2-8.3
	c0.6-1.5,1.4-2.8,2.3-4.1c-6.7,3.3-10.3,8.9-11.5,16.6c-0.9,6-0.2,11.2,0.2,16.9C20.1,53.5,35.5,50,36.5,35.5 M12.1,44
	c-4.8,7.2-6.3,15.2-5.2,24.1c0.5,4,1.5,8,2.7,11.8c0.6,2,1.4,4.1,2,6.1c2.1-6,7.3-12.5,10.6-17.6c2.8-4.4,5.3-9.2,6-14.3
	c-6.1,7.3-11.5,6.6-15,19.1l-0.1,0.5l-1-0.2l0.1-0.5c0.6-5.4,0.3-10.3-0.2-15.7c-0.4-3.9-0.9-8.2-0.1-12C11.9,44.8,12,44.4,12.1,44z
	 M3.4,69c-2.3,9.2-1.8,18.3,2,27.1c2.7,6,6.3,10.7,10.4,15.6c-1.3-12.8,8.3-26.3,6.7-38.8C18.6,81.5,11.8,89,12.9,99l0.1,0.6
	l-1.1,0.1l-0.1-0.6C10.6,88.6,4.1,80.1,3.4,69z M29.3,135.7c-2.4-5.6-3-16.7-3.5-22s-1.2-13.2-3.4-18.6c-0.9,10.8-5.5,18.1-0.4,29.9
	l0.2,0.5l-1,0.5l-0.2-0.5C16.1,115.3,5.8,109.4,1.8,99C2.7,117.1,13.2,127.8,29.3,135.7z M37.1,143.8c0.3,0.2,0.5,0.5,0.8,0.7
	l0.4,0.4l-0.7,0.9l-0.4-0.4c-0.3-0.2-0.6-0.5-0.8-0.7c-3.6-3.1-7.3-5.8-11.5-8c-2.9-1.6-5.9-2.9-8.7-4.5c-3.2-1.9-5.6-4.1-7.7-6.9
	c4.1,11,13,21.4,24.5,24.4c3.5,0.9,6.9,1.5,10.6,1.8c0.7,0.1,1.8,0.1,2.8,0.3c-0.2-0.2-0.4-0.5-0.6-0.7c-3.8-4.8-5.3-12-7.1-17.8
	c-2.1-6.8-4.6-12.6-9.2-17.7c1.4,4.9,1.2,12,2,16.6C32.2,136.6,33.7,140.7,37.1,143.8z M42.5,135.6c1.3,2.3,2.3,4.6,3.2,7.1
	c0.8,2.3,1.6,4.8,3,6.9c2,3.2,5,4.8,8.5,5.9l0.5,0.2l-0.3,1.1l-0.5-0.1c-4.6-1-9-1.6-13.7-1.9c-3-0.2-6.2-0.3-9.2-0.8
	c-4.4-0.9-7.9-2.9-11.3-5.6c5.5,10,14.5,14.2,26.1,13.9c5-0.1,9.9-1.1,14.7-2.3c2.6-0.7,5.3-1.6,8-2.3c-7-2.2-12.4-6.2-17.7-11.5
	C50.4,143,46.5,138.2,42.5,135.6z M155,35.5c1.1,14.5,16.5,18,21.2,26.3c0.4-5.7,1.1-10.9,0.2-16.9c-1.2-7.7-4.8-13.3-11.5-16.6
	c0.9,1.2,1.7,2.6,2.3,4.1c1.1,2.6,1.6,5.5,2.2,8.3c0.7,3.5,1.6,6.7,2.9,10l0.2,0.5l-1,0.5l-0.3-0.5C168,44.7,159.1,41.4,155,35.5z
	 M163.3,54.1c0.1,0.5,0.2,1,0.3,1.5c1,4.6,3.3,8.9,5.8,12.9c3.2,5.1,8.5,11.6,10.6,17.6c0.6-2.1,1.4-4.2,2-6.1
	c1.2-3.9,2.2-7.8,2.7-11.8c1.1-8.9-0.4-17-5.2-24.1c0.1,0.4,0.2,0.9,0.3,1.3c0.8,3.9,0.3,8.1-0.1,12c-0.5,5.3-0.8,10.3-0.2,15.7
	l0.1,0.5l-1,0.2l-0.1-0.5C174.8,60.6,169.5,61.4,163.3,54.1z M169,72.9c-1.6,12.5,8,26,6.7,38.8c4.1-4.9,7.8-9.6,10.4-15.6
	c3.9-8.8,4.3-17.8,2-27c-0.7,11.1-7.1,19.5-8.3,30.1l-0.1,0.6l-1.1-0.1l0.1-0.6C179.8,89,173,81.5,169,72.9z M162.2,135.7
	c5.6-2.7,11.1-5.9,16-9.7c9.5-7.5,16.1-17.3,12.2-29.3c-3.3,11.9-14.6,17.8-19.9,28.7l-0.2,0.5l-1-0.5l0.2-0.5
	c5.1-11.8,0.6-19.1-0.4-29.9c-2.2,5.4-2.9,13.3-3.4,18.6C165.2,119,164.7,130.1,162.2,135.7z M155.3,144.7c-0.3,0.3-0.5,0.5-0.8,0.7
	l-0.4,0.4l-0.7-0.9l0.4-0.4c0.3-0.2,0.5-0.5,0.8-0.7c2.3-2.2,3.8-4.8,4.7-7.7c2-6,1.3-14.7,2.9-20.5c-4.6,5.1-7.1,11-9.2,17.7
	c-1.8,5.8-3.3,13-7.1,17.8c-0.2,0.2-0.4,0.5-0.6,0.7c1-0.2,2.1-0.2,2.8-0.3c3.6-0.4,7-0.9,10.6-1.8c11.5-3,20.4-13.3,24.5-24.4
	c-2.1,2.7-4.5,5-7.6,6.9c-2.8,1.7-5.9,3-8.7,4.5C162.6,138.9,158.9,141.6,155.3,144.7z M149.1,135.6c-4,2.6-7.9,7.4-11.1,10.6
	c-5.3,5.3-10.7,9.3-17.7,11.5c2.6,0.7,5.3,1.6,8,2.3c4.8,1.2,9.7,2.2,14.7,2.3c11.6,0.3,20.6-3.9,26.1-13.9
	c-3.4,2.6-6.9,4.7-11.3,5.6c-3,0.6-6.2,0.6-9.2,0.8c-4.7,0.3-9.1,0.9-13.7,1.9l-0.5,0.1l-0.3-1.1l0.5-0.2c3.5-1.1,6.5-2.7,8.5-5.9
	c1.3-2.1,2.1-4.6,3-7C146.9,140.2,147.8,137.9,149.1,135.6z M39,165.3c7.1,6.4,15.9,11.7,25.6,7.6c8.5-3.5,16.1-13.6,25.7-12.3
	l1.6,0.2l-1.4,0.8c-3.6,2.2-8.7,5.4-11.5,8.6c-1.4,1.6-1.5,2.2-2.1,4c-0.3,0.9-0.8,1.6-1.5,2.2c1.3,1.6,0.2,5.3,0.7,5.9
	c4.6-2,10.9-19.1,19.6-20.4h0.1h0.1c8.7,1.4,15,18.4,19.6,20.4c0.5-0.6-0.5-4.3,0.7-5.9c-0.7-0.6-1.2-1.3-1.5-2.2
	c-0.7-1.8-0.8-2.5-2.1-4c-2.8-3.2-7.9-6.4-11.5-8.6l-1.4-0.8l1.6-0.2c1.5-0.2,3.1-0.1,4.6,0.2c5.4,1.2,10.3,5.5,14.8,8.6
	c2,1.4,4.1,2.6,6.3,3.6c9.8,4,18.5-1.2,25.6-7.6c-22.5,8-32.4-12.7-54.1-5.6c-0.8,0.3-1.7,0.6-2.6,0.7h-0.1h-0.1
	c-0.9-0.1-1.8-0.4-2.6-0.7C71.3,152.6,61.5,173.3,39,165.3z M167.4,43c-4.8-15.5-13.9-28.1-30.1-32c4.8,3.7,9.8,9.6,13.3,13.8
	C153.1,27.9,162.9,40.5,167.4,43z M24.2,43c4.5-2.5,14.2-15.1,16.8-18.2c3.5-4.2,8.5-10.1,13.3-13.8C38.1,15,29,27.6,24.2,43z"/>
<g>
	<g>
		<path class="st1" d="M74.4,100.5L72,117.9h-8.2l9.8-60.1H85l10.2,60.1h-8.4l-2.7-17.4H74.4z M83.1,93.1
			c-1.7-11.5-3.1-21.4-3.7-27.7h-0.3c-0.2,4.8-2.2,18-3.6,27.7C75.5,93.1,83.1,93.1,83.1,93.1z"/>
		<path class="st1" d="M124.6,116c0,9.9-1,18.2-13.5,18.2c-10.4,0-12.3-6.7-12.3-11.8v-0.2h8.1v0.2c0,1.7,0.6,5.1,4.6,5.1
			c4.2,0,5-3.2,5-9.4v-5.4c-1.2,2.8-3.7,4.5-7.7,4.5c-7.9,0-10.1-6-10.1-14.4v-18c0-7.1,2.9-13.9,11-13.9c4.8,0,6.9,2.3,7.6,4.8
			c0-1.4,0.2-3.2,0.4-4.1h7c-0.1,2.7-0.2,6.7-0.2,11.8L124.6,116L124.6,116z M106.8,85.3v16.9c0,5.2,1.3,7.8,4.5,7.8
			c4.5,0,5.2-4,5.2-9.9V86.4c0-4.5-0.5-8.3-4.7-8.3C108.5,78.2,106.8,80.5,106.8,85.3z"/>
	</g>
</g>
</svg>
