<?xml version="1.0" encoding="utf-8"?>
<!-- Generator: Adobe Illustrator 24.0.1, SVG Export Plug-In . SVG Version: 6.00 Build 0)  -->
<svg version="1.1" id="Layer_1" xmlns="http://www.w3.org/2000/svg" xmlns:xlink="http://www.w3.org/1999/xlink" x="0px" y="0px"
	 viewBox="0 0 281.3 251.3" style="enable-background:new 0 0 281.3 251.3;" xml:space="preserve">
<style type="text/css">
	.st0{fill-rule:evenodd;clip-rule:evenodd;fill:#847550;}
	.st1{fill-rule:evenodd;clip-rule:evenodd;fill:#FFFFFF;}
</style>
<path class="st0" d="M140.4,24.6c-1.5,2.8-3.6,7.2-5.5,11.6c-1.1,2.8-2.2,5.6-2.8,8.1c2.1,3,4.1,6.4,4.6,9.2c0.5,3,0.3,6-0.4,8.7
	c1.3,1.1,2.9,1.8,4.5,1.8c1.7,0,3.3-0.7,4.6-1.9c-0.8-2.6-1-5.6-0.5-8.6c0.5-2.7,2.3-6.1,4.4-9.1c-0.7-2.5-1.7-5.3-2.9-8.1
	c-1.9-4.5-4.1-8.8-5.6-11.7l-0.2,0.3L140.4,24.6L140.4,24.6z M167.7,50.1c-1.8,0.8-4.5,2.2-6.8,3.8c0.3,2.2,0.5,4.2,0.3,5.7
	c-0.4,3.3-1.7,6.1-3.4,7.9c0.3,0.4,0.6,0.8,0.9,1.1c0.8,0.7,1.6,1.2,2.5,1.3l0,0c2.2,0.3,4.3-1.1,5.5-3.7
	C168.1,63.3,167.9,54.7,167.7,50.1L167.7,50.1z M159.4,55.2c0.2,1.5,0.2,2.8,0.1,3.8c-0.4,2.6-1.3,4.9-2.7,6.3
	c-0.7-2.5-0.6-5.4,0.6-7.8C157.8,56.7,158.5,55.9,159.4,55.2L159.4,55.2z M113.7,50.1c1.9,0.9,4.6,2.3,6.9,3.9
	c-0.3,2.1-0.4,4.1-0.2,5.6c0.5,3.2,1.7,5.8,3.3,7.6c-0.3,0.5-0.7,1-1.1,1.3c-0.8,0.7-1.6,1.2-2.5,1.3l0,0c-2.1,0.3-4.2-1.1-5.4-3.7
	C113.3,63.3,113.4,54.7,113.7,50.1L113.7,50.1z M122.1,55.3c-0.2,1.5-0.2,2.7,0,3.7c0.4,2.5,1.3,4.6,2.5,6c0.7-2.4,0.5-5.3-0.7-7.6
	C123.6,56.8,122.9,56,122.1,55.3L122.1,55.3z M140.7,67.7c2.9,0,5.8,0.2,8.6,0.6c-1.2-0.9-2.2-2.2-3-3.8c-1.6,1.5-3.5,2.3-5.6,2.3
	c-2,0-3.8-0.8-5.5-2.2c-0.7,1.5-1.7,2.8-2.9,3.7C135.1,67.9,137.9,67.7,140.7,67.7L140.7,67.7z M154.9,69.4c0.8,0.2,1.5,0.4,2.2,0.7
	c-0.3-0.4-0.6-0.8-0.9-1.3C155.8,69.1,155.3,69.3,154.9,69.4L154.9,69.4z M155.2,66.6c-0.7,0.3-1.4,0.5-2.1,0.5
	c-0.5,0-1.1-0.1-1.6-0.3c-1.5-0.6-2.8-2-3.7-3.8c2.6-3.3,4.3-8.4,4.1-14.1c0-1.2-0.2-2.6-0.6-4.1c1.5-2.2,3.1-4.1,4.3-5.5
	c0.8,2.5,1.9,6.3,2.8,10c0.3,1.1,0.5,2.2,0.7,3.3c-1.3,1.1-2.5,2.3-3.1,3.5C154.3,59.2,154.1,63.3,155.2,66.6L155.2,66.6z
	 M160.5,51.5c2.7-1.9,5.8-3.3,7.1-3.9c0-0.8,0.1-2,0.4-3.1c4-12.9,20.1-2,1.5,5.1c0.1,1.5,0.2,4.3,0.2,7.3c0,4.1-0.3,8.6-1.3,10.9
	c-1.4,3-3.7,4.8-6.2,4.9c-0.8-0.2-1.7-0.4-2.5-0.6c-6.1-1.2-12.8-1.9-19.2-1.9c-6.9,0-14.1,0.9-20.5,2.3c-0.3,0.1-0.5,0.1-0.8,0.2
	c-2.5-0.1-4.8-1.9-6.2-4.9c-1.1-2.3-1.3-6.8-1.3-10.9c0-3,0.1-5.8,0.2-7.3c-18.7-7.1-2.6-17.9,1.5-5c0.4,1.1,0.4,2.3,0.4,3.1
	c1.3,0.6,4.4,2,7.2,4c0.3-1.8,0.8-3.7,1.2-5.5c1-4.2,2.2-7.7,2.5-8.7c-1-1.2-4.2-5-4.6-7.6c-0.2-1.5,0-3.1,0.5-4.5
	c0.6-1.4,1.5-2.3,2.6-2.7c0.3-0.1,0.7-0.2,1-0.2c1.9,0,3.5,1.8,4,4.4c0.5,2.7-1.4,8.7-1.9,10.1c0.7,0.8,2.5,2.8,4.4,5.4
	c1-3.4,2.5-7.2,4-10.5c1.8-4.1,3.7-7.6,4.6-9.3c-1.3-2.4-4.1-8.2-4.1-11.4c0-4.2,2.4-7.5,5.3-7.5c2.9,0,5.3,3.3,5.4,7.5
	c0.1,3.2-2.7,8.9-4,11.4c0.9,1.7,2.8,5.2,4.7,9.3c1.5,3.3,3.1,7.1,4.1,10.5c1.8-2.5,3.5-4.5,4.3-5.4c-0.6-1.8-2.3-7.3-1.9-9.8
	c0.4-2.6,2-4.4,3.9-4.4c0.3,0,0.7,0.1,1,0.2c2.2,0.8,3.7,4,3.3,7.2c-0.3,2.5-3.3,6.2-4.4,7.5c0.4,1.3,1.5,4.6,2.5,8.4
	C159.7,47.7,160.1,49.6,160.5,51.5L160.5,51.5z M122.5,52.7c0.2-1.1,0.4-2.2,0.6-3.3c0.8-3.7,1.9-7.5,2.7-10
	c1.2,1.3,2.7,3.3,4.3,5.4c-0.3,1.5-0.5,2.9-0.6,4.1c-0.1,5.7,1.6,10.9,4.3,14.2c-0.9,1.7-2.1,3.1-3.6,3.6c-0.5,0.2-1.1,0.3-1.6,0.3
	c-0.8,0-1.7-0.2-2.4-0.7c1-3.3,0.8-7.2-0.8-10.4C124.8,54.9,123.8,53.7,122.5,52.7L122.5,52.7z M125.3,68.6
	c-0.3,0.6-0.7,1.1-1.1,1.5c0.8-0.3,1.7-0.6,2.6-0.8C126.2,69.2,125.7,69,125.3,68.6L125.3,68.6z M105.6,40.3
	c-3.7,3.2,4.8,6.3,6.5,6.7C112.3,44.1,108.7,38.4,105.6,40.3L105.6,40.3z M175.8,40.3c-3.1-2-6.7,3.8-6.5,6.7
	C170.9,46.6,179.5,43.6,175.8,40.3L175.8,40.3z M131.5,46.9c1.7,2.6,3.1,5.2,3.5,7.2c0.4,2.2,0.3,4.5-0.2,6.5
	c-2.2-2.8-3.5-7-3.5-11.7C131.4,48.3,131.4,47.6,131.5,46.9L131.5,46.9z M124.1,24.6c-0.2,0-0.4,0-0.6,0.1c-0.7,0.2-1.2,0.8-1.6,1.6
	c-0.4,0.9-0.5,1.9-0.3,2.9c0.2,1.4,2.1,3.9,3.6,5.7c0.8-2.6,1.6-6.2,1.4-7.5C126.3,25.7,125.3,24.6,124.1,24.6L124.1,24.6z
	 M146.7,60.5c-0.5-2-0.6-4.2-0.3-6.4c0.3-2,1.7-4.5,3.3-7.1c0.1,0.7,0.2,1.3,0.2,1.9C150.1,53.5,148.8,57.7,146.7,60.5L146.7,60.5z
	 M140.5,6c-2,0-3.6,2.3-3.6,5.3c0,2,1.9,6.3,3.5,9.4l0.2-0.3l0.2,0.3c1.6-3.1,3.5-7.4,3.4-9.4C144.1,8.3,142.4,6,140.5,6L140.5,6z
	 M157,24.9c-1.2,0-2.2,1.2-2.4,2.8c-0.2,1.4,0.7,4.9,1.5,7.5c1.5-1.8,3.3-4.4,3.5-5.8c0.3-2-0.6-4-2-4.5
	C157.4,24.9,157.2,24.9,157,24.9z"/>
<path class="st0" d="M94.2,47.2c0.2,6.2,3.4,3.5,4,6.8c0,5.3,2.5,3.9,3.9,5.2c3.3,2.4-1.6,3,8.1,8.4c2.7,2,2,5.5,2.6,8
	c-1.1,0.5-2.2,1-3.3,1.5c-0.8-1.3-2-2.3-3.2-3.2c-3.4-2.1-0.1-5.4-1.7-7.4c-0.9-1.2-4.5-1.1-4.5-5.1c-2.5,4.6,2.3,4.8,2.4,6.6
	c-0.1,1.8-3.1,3.3-1.3,5.8c1.5,1.9,2.6,2.3,4.1,5.4c-1.6,0.9-3.2,1.8-4.7,2.8l0,0l-0.2,0.1l0,0l0,0l0,0l0,0l0,0l0,0
	c-0.9,0.6-1.7,1.2-2.6,1.8c-1.1-1.2-2.6-2.1-4-2.7c-3.7-1.4-1.1-5.2-3.1-7c-1.1-1-4.7-0.2-5.3-4.2c-1.6,5,3.1,4.3,3.6,6
	c0.3,1.8-2.5,3.8-0.2,6c1.9,1.7,3,1.8,5.2,4.8c-1.4,1.2-2.7,2.4-4,3.6l0,0c-0.8,0.8-1.7,1.7-2.4,2.5c-1.3-1.1-3-1.7-4.6-2.1
	c-3.9-0.7-2.1-4.9-4.4-6.2c-1.3-0.8-4.6,0.7-6-3.1c-0.6,5.2,3.9,3.6,4.7,5.3c0.6,1.7-1.7,4.2,1,5.9c2.2,1.3,3.4,1.2,6.3,3.9
	c-1.2,1.5-2.4,3.1-3.5,4.7l0,0c-0.6,0.8-1.1,1.6-1.6,2.4c-1.5-0.9-3.5-1.2-5.2-1.3c-4,0-2.9-4.5-5.4-5.3c-1.4-0.5-4.4,1.5-6.5-1.9
	c0.3,5.2,4.5,2.9,5.6,4.3c0.9,1.5-0.9,4.5,2.1,5.6c2.5,0.9,3.6,0.5,7.1,2.8c-0.8,1.4-1.5,2.9-2.2,4.4l0,0c-0.5,1.1-0.9,2.1-1.4,3.2
	c-1.6-0.6-3.6-0.5-5.2-0.3c-3.9,0.8-3.7-3.9-6.3-4.2c-1.5-0.3-4.1,2.3-6.8-0.7c1.3,5.1,4.9,2,6.2,3.2c1.2,1.4-0.1,4.6,3,5.2
	c2.6,0.5,3.6-0.1,7.4,1.5c-0.6,1.8-1.1,3.7-1.6,5.6h0c-0.2,0.8-0.4,1.5-0.5,2.3c-1.7-0.2-3.5,0.1-5,0.6c-3.7,1.4-4.3-3.1-7-3.1
	c-1.5,0-3.6,3-6.8,0.5c2.2,4.8,5.2,1.1,6.7,2.1c1.4,1.1,0.8,4.5,3.9,4.5c2.6,0,3.5-0.7,7.4,0.1c-0.2,1.6-0.4,3.3-0.5,4.9h0
	c-0.1,1.2-0.1,2.4-0.2,3.5c-1.6,0.1-3.3,0.8-4.7,1.5c-3.4,2.1-4.8-2.3-7.4-1.7c-1.5,0.3-3,3.6-6.6,1.7c3,4.3,5.3,0.1,7,0.8
	c1.6,0.9,1.6,4.3,4.7,3.7c2.5-0.5,3.3-1.3,7.1-1.3c0.1,1.9,0.3,3.9,0.5,5.8h0c0.1,0.8,0.2,1.7,0.4,2.5c-1.5,0.4-3,1.3-4.2,2.3
	c-2.9,2.7-5.2-1.4-7.6-0.4c-1.4,0.5-2.3,4.1-6.2,2.9c3.7,3.7,5.3-0.8,7-0.5c1.7,0.6,2.3,3.9,5.3,2.8c2.3-0.9,3-1.9,6.6-2.5
	c0.4,1.6,0.8,3.2,1.3,4.9l0,0c0.4,1.1,0.7,2.3,1.1,3.4c-1.4,0.7-2.6,1.8-3.6,3c-2.4,3.1-5.3-0.4-7.5,1c-1.3,0.8-1.5,4.4-5.5,3.9
	c4.3,3,5-1.8,6.8-1.7c1.8,0.2,3,3.5,5.7,1.8c2.1-1.3,2.6-2.4,5.9-3.6c0.5,1.1,1,2.2,1.5,3.3c0.3,0.7,0.7,1.4,1.1,2h0
	c0.5,0.9,0.9,1.7,1.4,2.6c-1.3,1-2.3,2.3-3.1,3.6c-1.8,3.5-5.3,0.6-7.2,2.4c-1.1,1-0.7,4.6-4.7,4.9c4.8,2.1,4.6-2.7,6.4-3
	c1.8-0.1,3.6,2.8,5.9,0.8c1.8-1.7,2.1-2.8,5.2-4.7c1.1,1.6,2.3,3.2,3.5,4.7c-12.3,9.9-15.9,2.1-19.9,5.8c-4.6,4.8-6,1.1-8,1.5
	c-1.7,0.5-1.4,3.7-6.7,1.9c6.2-0.7,3.2-3.7,6.4-4.6c5.3-0.5,3.6-2.8,4.8-4.3c2.1-3.5,3.1,1.2,7.5-8.6c-6.6,0.9-8.7-3.2-12.2-1.1
	c-5.4,3.9-6.1,0-8.1,0c-1.7,0.1-2.1,3.4-7,0.7c6.2,0.4,3.8-3.1,7.2-3.3c5.3,0.5,4.1-2.1,5.5-3.4c2.7-3,2.8,1.7,8.8-6.8
	c-6.6-0.3-7.9-4.7-11.7-3.3c-6,2.9-6-1.1-7.9-1.5c-1.7-0.2-2.6,2.9-7-0.6c6,1.5,4.3-2.3,7.6-1.9c5.1,1.4,4.4-1.3,6-2.3
	c3.2-2.5,2.5,2.1,9.7-4.9c-6.3-1.6-6.8-6-10.8-5.3c-6.4,1.7-5.7-2.2-7.5-2.9c-1.7-0.5-3.1,2.4-6.7-1.9c5.6,2.6,4.7-1.5,7.9-0.5
	c4.8,2.3,4.6-0.5,6.4-1.2c3.6-1.9,2,2.6,10.6-3.2c-6.1-2.7-5.7-7.2-9.8-7.2c-6.6,0.5-5.2-3.2-6.9-4.2c-1.6-0.8-3.5,1.8-6.3-3.1
	c5.1,3.6,4.9-0.6,7.8,0.9c4.3,3.2,4.6,0.3,6.5,0c3.8-1.2,1.6,2.8,10.6-1c-5.2-3.7-4.1-7.9-8.1-8.6c-6.6-0.7-4.5-4.1-6-5.4
	c-1.4-1.1-3.8,1.2-5.6-4.1c4.4,4.4,4.9,0.3,7.5,2.3c3.7,3.9,4.5,1.2,6.4,1.1c4-0.5,1,3.1,11,0.8c-4.7-4.6-2.8-8.8-6.6-10.2
	c-6.4-1.9-3.7-4.8-5-6.4c-1.2-1.3-3.9,0.5-4.8-5.1c3.5,5.1,4.8,1.1,7,3.6c2.9,4.5,4.2,1.9,6.1,2.3c4.1,0.3,0.3,3.3,11.2,2.7
	c-3.8-5.5-1.1-9.2-4.6-11.3c-5.9-3-2.7-5.4-3.7-7.2c-0.9-1.5-3.9-0.3-3.8-5.9c2.5,5.7,4.5,2,6.2,4.9c2,4.9,3.7,2.7,5.5,3.4
	c4,1-0.4,3.3,10.6,4.8l0.1,0c-2.8-6.1,0.6-9.3-2.5-12.1c-5.3-4.1-1.7-5.8-2.3-7.8c-0.6-1.6-3.8-1-2.6-6.5c1.4,6.1,4,2.8,5.2,5.9
	c1,5.2,3.2,3.3,4.8,4.4c3.7,1.8-1,3.2,9.5,6.7l0.1,0c-1.6-6.6,2.3-9-0.2-12.3c-4.4-5-0.5-6.1-0.8-8C95.2,52.4,92,52.4,94.2,47.2
	L94.2,47.2z M187,47.2c-0.2,6.2-3.4,3.5-4,6.8c-0.1,5.3-2.5,3.9-3.9,5.2c-3.3,2.4,1.6,3-8.1,8.3c-2.7,2-1.9,5.5-2.6,8.1
	c1.1,0.5,2.2,1,3.3,1.5c0.8-1.3,2.1-2.4,3.3-3.2c3.4-2.1,0.1-5.3,1.7-7.4c0.9-1.2,4.5-1.1,4.5-5.1c2.5,4.6-2.3,4.8-2.4,6.6
	c0.1,1.8,3.1,3.3,1.3,5.8c-1.5,2-2.6,2.3-4.1,5.5c1.6,0.9,3.1,1.8,4.6,2.8l0,0c1,0.7,2,1.3,3,2.1c1.1-1.1,2.5-2,3.8-2.6
	c3.7-1.4,1.1-5.2,3.1-7c1.1-1,4.7-0.2,5.3-4.2c1.6,5-3.1,4.3-3.6,6c-0.3,1.8,2.5,3.8,0.2,6c-1.8,1.7-3,1.8-5.1,4.7
	c1.3,1.1,2.6,2.2,3.8,3.4l0,0c0.8,0.8,1.7,1.7,2.5,2.5c1.3-1,3-1.6,4.5-2c3.9-0.7,2-4.9,4.3-6.3c1.3-0.8,4.6,0.6,6-3.2
	c0.7,5.2-3.9,3.7-4.6,5.3c-0.6,1.7,1.7,4.2-0.9,5.9c-2.2,1.3-3.3,1.2-6.1,3.8c1.2,1.5,2.4,3.1,3.5,4.7l0,0c0.6,0.9,1.2,1.8,1.8,2.7
	c1.5-0.8,3.4-1.2,5-1.3c4,0,2.9-4.5,5.4-5.3c1.4-0.5,4.4,1.5,6.5-2c-0.3,5.2-4.5,2.9-5.5,4.3c-0.9,1.6,0.9,4.5-2,5.6
	c-2.4,0.9-3.6,0.6-7,2.8c0.5,0.8,0.9,1.7,1.3,2.5c0.4,0.9,0.9,1.8,1.3,2.7l0,0c0.4,0.9,0.8,1.7,1.1,2.6c1.6-0.6,3.6-0.5,5.3-0.4
	c3.9,0.7,3.7-3.9,6.3-4.3c1.5-0.3,4.1,2.3,6.8-0.7c-1.3,5.1-4.9,2-6.2,3.2c-1.2,1.4,0.1,4.6-3,5.1c-2.6,0.5-3.6-0.1-7.4,1.5
	c0.5,1.6,1,3.2,1.4,4.8l0,0c0.3,1.1,0.5,2.3,0.8,3.4c1.7-0.2,3.5,0.1,5.1,0.6c3.7,1.4,4.3-3.1,7-3c1.5,0,3.6,3,6.8,0.5
	c-2.2,4.8-5.2,1.1-6.7,2c-1.4,1.1-0.8,4.5-3.9,4.5c-2.6,0-3.5-0.8-7.5,0.1c0.2,1.6,0.4,3.2,0.5,4.8l0,0l0,0l0,0.4l0,0l0,0.1l0,0
	l0,0.3l0,0.1l0,0c0,0.9,0.1,1.7,0.1,2.6c1.7,0.1,3.4,0.8,4.8,1.5c3.4,2.1,4.8-2.3,7.4-1.7c1.5,0.3,3,3.6,6.6,1.7
	c-3,4.3-5.3,0.1-7,0.8c-1.6,0.9-1.6,4.3-4.7,3.7c-2.5-0.5-3.3-1.4-7.2-1.3c-0.1,1.7-0.2,3.3-0.4,5l0,0l0,0l0,0.1l0,0l0,0l0,0.2l0,0
	c-0.1,1-0.3,2.1-0.5,3.1c1.6,0.4,3,1.4,4.3,2.3c2.9,2.7,5.2-1.4,7.6-0.3c1.4,0.6,2.3,4.1,6.1,2.9c-3.7,3.7-5.2-0.9-7-0.5
	c-1.7,0.6-2.3,3.9-5.3,2.8c-2.3-0.9-3-1.9-6.7-2.5c-0.4,1.9-1,3.8-1.6,5.6l0,0l0,0c-0.2,0.8-0.5,1.5-0.8,2.3c1.4,0.7,2.6,1.9,3.6,3
	c2.4,3.1,5.3-0.4,7.5,1c1.3,0.8,1.5,4.4,5.5,3.9c-4.3,3-5-1.8-6.8-1.7c-1.8,0.2-3,3.5-5.7,1.8c-2.1-1.3-2.6-2.4-6-3.6
	c-0.7,1.5-1.4,3-2.1,4.5h0c-0.6,1.1-1.1,2.1-1.8,3.2c1.2,0.9,2.2,2.3,2.9,3.5c1.8,3.5,5.3,0.5,7.2,2.4c1.1,1,0.7,4.6,4.7,4.9
	c-4.8,2.1-4.6-2.7-6.4-2.9c-1.8-0.1-3.6,2.9-5.9,0.8c-1.8-1.6-2.1-2.8-5.1-4.6c-1.1,1.6-2.3,3.2-3.5,4.7c12.2,9.7,15.7,2,19.8,5.6
	c4.6,4.8,6,1.1,8,1.4c1.7,0.4,1.4,3.7,6.7,1.9c-6.2-0.7-3.2-3.7-6.4-4.5c-5.3-0.5-3.7-2.8-4.8-4.3c-2.1-3.5-3.1,1.1-7.4-8.2
	c6.6,0.9,8.6-3.2,12.1-1.1c5.4,3.9,6.1,0,8.1,0c1.7,0.1,2.1,3.4,6.9,0.7c-6.2,0.4-3.8-3.1-7.2-3.3c-5.3,0.5-4.1-2.1-5.5-3.4
	c-2.7-3-2.8,1.5-8.5-6.4c6.3-0.4,7.6-4.6,11.4-3.2c6,2.9,6-1.1,8-1.5c1.7-0.2,2.6,3,6.9-0.6c-6,1.5-4.3-2.3-7.6-2
	c-5.1,1.4-4.4-1.3-6-2.3c-3.2-2.5-2.5,2.1-9.8-5.1c6.5-1.5,7-6,11-5.3c6.4,1.7,5.7-2.2,7.6-2.9c1.7-0.5,3.1,2.4,6.7-1.8
	c-5.6,2.6-4.7-1.5-7.9-0.6c-4.8,2.3-4.6-0.5-6.4-1.2c-3.6-1.9-2.1,2.5-10.4-3.1c5.9-2.6,5.6-7.1,9.7-7.1c6.6,0.6,5.2-3.2,6.9-4.2
	c1.6-0.8,3.5,1.8,6.3-3c-5.1,3.6-4.9-0.6-7.8,0.9c-4.3,3.1-4.6,0.3-6.5,0c-3.9-1.2-1.5,2.9-11-1.3c5.5-3.7,4.3-8.1,8.3-8.8
	c6.6-0.7,4.5-4.1,6-5.4c1.4-1.1,3.8,1.2,5.6-4.1c-4.3,4.4-4.9,0.3-7.5,2.3c-3.6,3.9-4.5,1.1-6.4,1.1c-4.1-0.5-0.9,3.2-11.3,0.7
	c4.7-4.7,2.8-8.8,6.6-10.2c6.4-1.9,3.7-4.8,4.9-6.4c1.2-1.3,3.9,0.4,4.8-5.1c-3.5,5.1-4.8,1.2-7,3.6c-2.9,4.5-4.2,2-6,2.3
	c-4.1,0.3-0.3,3.4-11.3,2.8c-0.1,0-0.2,0-0.2,0c4-5.6,1.2-9.4,4.7-11.5c5.9-3,2.7-5.4,3.6-7.2c0.9-1.5,3.9-0.3,3.7-5.9
	c-2.4,5.7-4.5,2-6.2,4.9c-2,4.9-3.7,2.7-5.5,3.4c-3.9,1,0.3,3.3-10.2,4.8c2.5-5.9-0.7-9,2.3-11.7c5.3-4.1,1.7-5.8,2.2-7.8
	c0.6-1.6,3.8-1,2.6-6.5c-1.3,6.1-4,2.8-5.2,5.9c-1,5.2-3.2,3.3-4.8,4.3c-3.7,1.8,1,3.2-9.4,6.7c1.6-6.6-2.3-9,0.2-12.3
	c4.4-5,0.5-6,0.8-8.1C186,52.3,189.3,52.3,187,47.2z"/>
<path class="st0" d="M168,193.8c2-2.9,3.7-6,5.3-9.3c-3.5,2.2-7.1,4.1-11,5.8c-0.3,2.4-0.1,4.4,0.7,7.1c0.3,1.1,0.7,1.8,1.1,2.2
	C165.2,197.9,166.5,196,168,193.8L168,193.8z M176.1,178.1c-3.3,2.8-6.8,5.4-10.4,7.6c-0.9,0.6-1.9,1.1-2.9,1.7l0.1-0.2
	c2-8.1,6.5-12.3,11.5-17.8c1.7-1.7,3.2-3.6,4.6-5.7c0.6-0.9,1.2-1.8,1.8-2.8C179.7,166.8,178.2,172.6,176.1,178.1L176.1,178.1z
	 M65.5,199.3c12.6-6.6,27-1.5,35.6,1.6c-4-4.4-9-9.8-12-13.4c-15.2-18.8-21.2-40.2-13.2-66.5c0.7-2.4,1.7-4.9,2.8-7.3
	c-2.5,7.2-3.3,14.8-3.3,22.9c0,6.4,1.9,12.8,4.9,18.7c4.9,20.6,18.6,41.5,35.7,52.1c-8.6-8.8-16.3-20.5-21.3-33.2
	c1.8,1.7,3.6,3.3,5.4,4.8c4.5,9.7,10.8,18.2,18.5,24.2l3.4,3c-0.5-1.5-1.3-5.3-0.8-8.4c0.6-2.3,0.9-4.3,0.9-6.2
	c0.3,0.1,0.5,0.2,0.8,0.3c2.3,0.9,4.7,1.6,7.1,2.3l0.5,0.1v-1.5l-0.3-0.1c-2.8-1-5.5-2.1-8.2-3.4c-0.4-3.6-1.7-7-3.8-10.7
	c-2.5-4.5-5.8-7.8-8.8-11.6l0,0l0,0c-1.8-2.2-3.5-4.5-5-7c-4.1-6.7-6.2-14.2-6.6-22.1c0.1-0.6,0.1-1.1,0.2-1.7
	c2.1-17.5,12.3-33.7,26.2-43.5c7.6-2.5,11.3,1.5,14.5,7.6c0,0,0.1,0,0.1,0c0.1,0.1,0.3,0.1,0.4,0.2c0.1,0,0.1,0,0.2-0.1
	c-0.1-0.3-0.2-0.5-0.3-0.8c-1.2-4.4,1.3-7.1,0.3-10.8c-0.1-0.5,0.1-3.7,1.1-4.6c-0.3,1.5-0.5,3.8-0.4,4.2c0.8,2.2,1,3.6,1.1,5.1
	c0.1,2.3-0.7,5.5-0.3,6.8c0.1,0.2,0.3,0.1,0.5,0.1c3.4-3.2,6-10,14.8-7.7c15.3,10.7,23.8,25.3,25.9,44.3c0.1,1.1,0.2,2.2,0.3,3.3
	c-0.5,6.9-2.5,13.5-6.1,19.4c-1.5,2.5-3.2,4.8-5,7l0,0l0,0c-3,3.8-6.3,7.2-8.8,11.6c-2.1,3.9-3.5,7.3-3.8,11
	c-2.5,1.2-5.1,2.2-7.7,3.1l-0.3,0.1v1.5l0.5-0.1c2.4-0.7,4.7-1.4,7.1-2.3l0.3-0.1c0,1.9,0.3,3.9,0.9,6c0.5,3.2-0.2,6.9-0.8,8.4
	l6.4-5.9l0,0c5.8-5.5,10.7-12.4,14.5-20.2c2.5-1.9,4.9-4,7.2-6.3c0.3-0.3,0.6-0.6,0.9-0.9c-3.1,7.8-7.4,15.2-12.5,21.6
	c-8.2,10.4-21.4,21.4-35.2,21.3C113.8,215.7,93.6,193.9,65.5,199.3L65.5,199.3z M108.2,81.8c7.5-3.2,15.1-4.6,21.7-5.3l0.4,0v0.9
	l-0.3,0c-10.5,1.4-20.1,6-28,13.6c-1.6,1.6-3.1,3.2-4.5,4.9c4.7-4.2,10.3-7.9,16.8-10.9c4.6-2.7,17.1-8.1,19.9-4.4
	c0.2,0.3,0.6,2-0.6,3.3c-1.9,1.9-4-2.8-16.1,4.2c9.4-3.8,11.2-1.7,13.5-1.6c2.3,0.2,4.3,0.1,5.8-1.9c1.9-2.4,2.6-6.5,2.3-6.9
	c-1.6-1.8-4.1-2.5-7.2-2.6C123.8,74.9,115.7,77.5,108.2,81.8L108.2,81.8z M90.1,159.8c1.7,3.3,3.8,6.3,6.1,9.2
	c-3.2-10.1-4.4-21-3.3-31.2c1.8-17.3,12.8-35.7,27.8-44.8c-1.1,0.2-2.2,0.4-3.3,0.7C89.9,108.3,84.4,134.6,90.1,159.8L90.1,159.8z
	 M183.3,170.7c0.4-0.5,0.8-1,1.2-1.5c3-3.7,5.6-7.7,7.6-12.1c4-22.5-2.5-46.4-27.6-63.1c-1.8-0.6-3.5-1-5-1.2
	c14.8,9,25.8,27.3,27.7,44.5C188.5,148.5,187,160,183.3,170.7L183.3,170.7z M164,211.1c20.5-14,34-34.1,37.7-57.8
	c2.4-5.3,3.9-11,3.9-16.8c0-7.9-0.7-15.2-3.1-22.3c0.9,2.1,1.7,4.1,2.4,6.3c2,6.2,3.2,12.2,3.6,17.9c1.9,26.2-11.7,49.5-33,67.7
	c-33.1,28.6-56.2,12.2-94.2,2.8c-8.9-2.2-17.7-4.7-26.1-4c-7.5,0.6-8.7,5.4-15.4,9.6c-8.6,6.2-19.3,7.4-27.3,1.5
	c-1.8-1.2-3.5-1.4-5.3-0.6c-1.8,0.8-3.1,1.5-3.9,1.9c3.5-4.3,7-5.3,10.5-2.9c14.6,10.2,24-9.6,36.3-12.4c20.8-4.7,44.7,8.7,69,14.7
	C134.2,220.6,149.4,221,164,211.1L164,211.1z M179.6,91.6c-0.2-0.2-0.4-0.4-0.7-0.6c-7.8-7.6-17.5-12.2-28-13.6l-0.3,0v-0.9l0.4,0
	c6.9,0.8,14.8,2.2,22.6,5.7c-7.4-4.2-15.6-6.8-24-7c-3.6-0.1-6.6,0.6-8.7,2.4c-0.4,0.4,1.1,6.5,3.7,8.1c2.4,2.1,9.3-1.8,18.6,3.5
	c-8.6-6.8-15.6-3.6-17.4-5.9c-0.9-1.1-0.2-2.6,0-2.9c3.4-3.9,18.8,2.9,21.9,4.1C172.2,86.7,176.2,89,179.6,91.6L179.6,91.6z
	 M116.3,199.8c0.4-0.4,0.9-1.1,1.3-2.4c0.8-2.9,1-4.9,0.7-7.3c-4.2-1.8-8-3.9-11.7-6.3c1.7,3.6,3.6,7,5.7,10.1
	C113.8,196.1,115.2,198.2,116.3,199.8L116.3,199.8z M103.7,176.9c3.6,3.3,7.6,6.2,11.7,8.7c0.8,0.5,1.5,0.9,2.3,1.4
	c-2.1-8.1-6.5-12.3-11.5-17.7c-1.7-1.7-3.2-3.6-4.6-5.7c-0.8-1.2-1.6-2.5-2.3-3.8C100.2,165.8,101.7,171.5,103.7,176.9z"/>
<path class="st1" d="M125.5,179c0.7,7.9,0.3,20.4-1.6,27.4c0,0.1,0.1,0.2,0.2,0.3c4.4,5.3,9.6,4.4,15.8,6.5l0.1,0
	c5.7-1.9,11-0.8,15.9-5.8c-1.1-3.5-1.9-18.5-2.1-22.5c-0.2-2.2-0.3-3.6-0.3-4.8c-3.7,2.7-8,5.2-11.6,5.8c-1,0.2-1.8,0.2-2.8,0
	C134.8,185.4,129.5,182.1,125.5,179z"/>
<path class="st1" d="M141.3,183.2c4.9-0.8,11.6-6,14.7-8.9c4.8-4.6,10.3-13.8,13.5-21.1c2.2-5,3.7-10.1,4-14.7l0-0.9
	c-0.3-4.9-1.2-10.7-2.7-13.4c-0.5-1-2.1-1.5-3.3-1.8c-5.3-1.4-11.9,2-16.4,4.4c-0.1,0-0.3,0.1-0.4,0.2c-1.3,0.6-2.4,0.8-3.1,0.3
	c-0.1-0.2-0.3-0.3-0.3-0.5c-0.2-0.3-0.3-0.6-0.2-0.8c0-0.3,0.5-0.7,1.4-1.2c0.9-0.6,1.9-1,3.1-1.5c5.5-2.2,10.6-3.9,16.3-1.7
	l0.2,0.1l2.7,0.9c-1.5-4.1-5-9.4-7.3-13.1c-0.9-1.5-1.8-2.8-2.8-4c-5.6-7.2-13.9-6.3-20.9-1.9l-0.1,0c-7.2-5.8-14.3-5.8-20.3,1.8
	c-1,1.2-1.9,2.5-2.8,4c-2.6,4.1-5.7,8.6-7.4,13.1l2.8-0.9l0.2-0.1c5.8-2.2,11-0.5,16.5,1.7c1.2,0.5,2.3,0.9,3.2,1.5
	c0.9,0.5,1.4,0.9,1.4,1.2c0,0.2,0,0.5-0.2,0.8c0,0.1-0.2,0.3-0.3,0.5c-0.7,0.5-1.7,0.3-3.1-0.3c-0.1,0-0.3-0.1-0.4-0.2
	c-4.6-2.3-11.3-5.7-16.7-4.4c-1.2,0.3-2.7,0.8-3.3,1.8c-1.5,2.6-2.4,8.5-2.7,13.4l0,0.9c0.3,4.6,1.8,9.7,4,14.7
	c3.3,7.3,8.8,16.4,13.7,21.1c3.2,2.9,10.1,8.1,15,8.9C140.2,183.4,140.6,183.3,141.3,183.2z"/>
<path class="st0" d="M143.4,175.2c-0.3-1-1.9-1.7-4-1.7c-2,0-3.7,0.8-4,1.7c1-0.5,2.4-0.9,4-0.9C141,174.4,142.4,174.7,143.4,175.2z
	"/>
<path class="st0" d="M136,162l-4.5,1.1l-0.2,0c1-0.6,2-1.1,2.9-1.7c1-0.6,1.8-0.9,2.3-0.9c2.1,0,3,1.6,5.2,0.2
	c0.5-0.3,1-0.4,1.7-0.2c0.6,0.1,1.4,0.5,2.4,1c0.8,0.5,1.6,0.9,2.2,1.3c-0.1,0-0.4-0.1-0.8-0.2c-0.4-0.1-1.7-0.1-3.8-0.7
	C140.1,163.4,139.3,163.5,136,162z"/>
<path class="st0" d="M151.3,164.5c-0.4,0.4-0.9,0.4-1.4,0.4c-0.5,0-1.6,0-3.4-0.4c-5.4,1.9-8,2-13-0.1c-1.7,0.4-2.9,0.4-3.4,0.4
	c-0.5,0-0.9,0-1.2-0.3c-0.9-1,0.2-0.7,1.1-0.8c0.4,0,1.5-0.2,3.4-0.4c1,0,2.1,0.2,3.1,0.6c1.1,0.5,2.3,0.6,3.5,0.6
	c1.3,0,2.4-0.2,3.5-0.6c1.1-0.4,2.1-0.6,3.2-0.5c1.8,0.3,2.9,0.4,3.3,0.4C150.4,163.7,152.1,163.2,151.3,164.5z"/>
<path class="st0" d="M133.6,167.1c2.2,1.5,4.7,2.1,7.6,1.8c2.5-0.3,4.7-1.3,6.5-2.9c-0.8,1.7-2.2,2.9-4.2,3.7
	c-0.7,0.2-1.3,0.5-2,0.6c-1.4,0.2-2.7,0.2-3.9,0c-1.9-0.4-3.6-1.5-5.1-3.2c-0.4-0.5-0.7-1-0.8-1.5
	C132.3,166.1,132.9,166.6,133.6,167.1z"/>
<path class="st0" d="M143.9,153.8c-0.7,0.9-1.3,1.5-1.7,1.2c-0.5-0.3-0.6,0.5-0.7,0.5C140.8,154.1,142.7,151,143.9,153.8z"/>
<path class="st0" d="M136.3,153.8c0.7,0.9,1.3,1.5,1.7,1.2c0.5-0.3,0.6,0.5,0.7,0.5C139.4,154.1,137.5,151,136.3,153.8z"/>
<path class="st0" d="M112.4,133.1c-0.3-0.6-0.4-1.1-0.5-1.7c0-0.6,0.2-0.6,0.8,0c0.2,0.2,0.5,0.5,0.8,0.9c0.4,0.4,1.3,1.1,2.8,2.3
	l0.1,0.1c1.5,1.1,3.5,1.2,5.8,1.2c1.3,0,2.5,0,3.5-0.2c1.3-0.2,3.6,0.3,4.8,1.1c0.8,0.5,1.1,0.8,1.1,1.2c0,0.9-0.3,0.5-0.5,0.3
	c-0.2-0.4-0.8-0.6-1.9-0.6c-0.8,0-2.1,0.3-3.9,1.1c-0.3,0.1-1.4,3.1-3.7,4.2c0.9-1.3,2.1-3.6,1.7-3.6c-0.5,0.1-1,0.2-1.5,0.2
	l-0.1,0.1c-0.8,1.2-0.2,1.8-4.5,3.9c1.7-1.6,2.7-3,2.7-3.9l-0.1-0.2c-0.5,0-1-0.2-1.5-0.3c-0.9,1.4-1.3,1.8-4.1,3.1
	c1-1.2,2.8-2.9,2.9-3.7c-0.4-0.3-0.8-0.5-1.2-0.9c-0.3,0.6-0.5,1.5-3.7,2.6c0.7-0.8,2.7-2.7,2.8-3.4c-0.2-0.3-0.4-0.5-0.6-0.7
	c-0.1-0.1-0.2-0.2-0.3-0.3c-0.7,0.4-1.6,1-2.6,1.7c-0.3,0.2-0.6,0.4-1,0.6c-0.9-0.4,1.4-2.1,1.4-2.2c0.1-0.1,0.2-0.1,0.2-0.2
	c0.5-0.3,0.9-0.6,1.3-0.8c-0.1-0.1-0.2-0.2-0.2-0.3c-0.2-0.3-0.3-0.5-0.4-0.6c-0.1,0.1-0.3,0.1-0.4,0.2
	C109.9,135.5,105.6,135.2,112.4,133.1z"/>
<path class="st0" d="M131,134.9c0.2,0.2,0.4,0.5,0.5,0.8c-0.1-0.3-0.2-0.5-0.3-0.8c-0.8-2.1-1.9-3.6-3.3-4.5c-1.5-1-3.9-1.9-7.4-2.7
	c-2.5-0.6-4.5-0.3-5.9,1c-0.5,0.5-0.9,1.1-1.3,1.8v0.1c0.4-0.2,0.8-0.3,1.2-0.5c0.7-0.2,1.3-0.4,1.9-0.6c2.9-0.8,5.7-0.6,8.6,0.6
	C127.6,131.1,129.6,132.7,131,134.9z"/>
<path class="st0" d="M167.8,133.1c0.3-0.6,0.4-1.1,0.5-1.7c0-0.6-0.2-0.6-0.8,0c-0.2,0.2-0.5,0.5-0.8,0.9c-0.4,0.4-1.3,1.1-2.8,2.3
	l-0.1,0.1c-1.5,1.1-3.4,1.2-5.8,1.3c-1.3,0-2.5,0-3.5-0.2c-1.4-0.2-3.6,0.2-4.9,1c-0.8,0.5-1.1,0.8-1.1,1.2c0,0.9,0.3,0.5,0.5,0.3
	c0.2-0.4,0.8-0.6,1.9-0.6c0.8,0,2.1,0.3,3.9,1.1c0.3,0.1,1.4,3.1,3.7,4.2c-0.9-1.3-2.1-3.6-1.7-3.6c0.5,0.1,1,0.2,1.5,0.2l0.1,0.1
	c0.8,1.2,0.2,1.8,4.5,3.9c-1.7-1.6-2.7-3-2.7-3.9l0.1-0.2c0.5,0,1-0.2,1.5-0.3c0.9,1.4,1.3,1.8,4.1,3.1c-1-1.2-2.8-2.9-2.9-3.7
	c0.4-0.3,0.8-0.5,1.2-0.9c0.3,0.6,0.5,1.5,3.7,2.6c-0.7-0.8-2.7-2.7-2.8-3.4c0.2-0.3,0.4-0.5,0.6-0.7c0.1-0.1,0.2-0.2,0.3-0.3
	c0.7,0.4,1.6,1,2.6,1.7c0.3,0.2,0.6,0.4,1,0.6c0.9-0.4-1.4-2.1-1.4-2.2c-0.1-0.1-0.2-0.1-0.2-0.2c-0.5-0.3-0.9-0.6-1.3-0.8
	c0.1-0.1,0.2-0.2,0.2-0.3c0.2-0.3,0.3-0.5,0.4-0.6c0.1,0.1,0.3,0.1,0.4,0.2C170.3,135.5,174.6,135.2,167.8,133.1z"/>
<path class="st0" d="M149.2,134.9c-0.2,0.2-0.4,0.5-0.5,0.8c0.1-0.3,0.2-0.5,0.3-0.8c0.8-2.1,1.9-3.6,3.3-4.5c1.5-1,3.9-1.9,7.4-2.7
	c2.5-0.6,4.5-0.3,5.9,1c0.5,0.5,0.9,1.1,1.3,1.8v0.1c-0.4-0.2-0.8-0.3-1.2-0.5c-0.7-0.2-1.3-0.4-1.9-0.6c-2.9-0.8-5.7-0.6-8.6,0.6
	C152.6,131.1,150.6,132.7,149.2,134.9z"/>
<path class="st0" d="M140.3,240.3c-15.5-0.5-25.4-6.1-35.3-8.5c-7.1-1.7-14.1-5-23.3-4.9c-7.5,0-27,2.7-33.8,1.1
	c14.8,3.9,21.9,1.5,33.5,1.7c6.5,0.1,10.2,1.6,19,4.1c-13.7-1.5-21.1-4.1-34.8,1.1c14.5-2.3,24.7-0.5,38.3,2.4
	c11.6,2.5,24.3,7.7,36.3,7.5c12,0.1,24.7-5.1,36.4-7.5c13.6-2.9,23.9-4.7,38.3-2.4c-13.7-5.2-21.1-2.6-34.9-1.1
	c8.8-2.5,12.6-4,19-4.1c11.6-0.2,18.8,2.2,33.5-1.7c-6.8,1.6-26.3-1.1-33.8-1.1c-9.2,0-16.2,3.3-23.3,4.9
	C165.6,234.2,155.8,239.8,140.3,240.3L140.3,240.3z M140.3,230.8c-14,0.3-27.7-4.9-41-8.8c-4.4-1.1-9.3-2.5-13.5-2.5
	c-20.9-0.1-46.3,11.2-64.5,3c13.6,5,45.4-6.7,59.4-6.3c-18.8-8.6-20.3-0.5-38.5,2.6c15.7-4.5,17.1-11.9,36.3-7
	c21.4,5.1,38.8,13.7,61.8,15c23-1.2,40.5-9.8,61.9-15c19.3-4.8,20.7,2.6,36.4,7c-18.4-2.9-20.3-10.8-38.6-2.6
	c14-0.4,45.9,11.3,59.5,6.3c-18.2,8.2-43.6-3-64.5-3c-4.2,0-9.2,1.4-13.5,2.5C168,225.9,154.3,231.1,140.3,230.8z"/>
<path class="st0" d="M184.2,202.8c9.6-3,22.1-6.3,34.7-3.2c-9.1-4.8-21-3.8-29.9-1.8L184.2,202.8L184.2,202.8z M168.8,215.5
	c4.1-2.6,6.3-3.9,10-7.1c15.5-3.8,40.9-9,50.9-6.4c12.2,3.1,23.3,22.7,37.9,12.5c3.6-2.4,7-1.4,10.5,2.9c-0.8-0.4-2.1-1.1-3.9-1.9
	c-1.8-0.8-3.6-0.7-5.3,0.6c-8,5.8-18.8,4.7-27.3-1.5c-6.6-4.2-8.2-9-15.7-9.6C209.2,203.6,186.3,210.1,168.8,215.5z"/>
</svg>
