<?xml version="1.0" encoding="utf-8"?>
<!-- Generator: Adobe Illustrator 24.0.1, SVG Export Plug-In . SVG Version: 6.00 Build 0)  -->
<svg version="1.1" id="Layer_1" xmlns="http://www.w3.org/2000/svg" xmlns:xlink="http://www.w3.org/1999/xlink" x="0px" y="0px"
	 viewBox="0 0 352 114" style="enable-background:new 0 0 352 114;" xml:space="preserve">
<style type="text/css">
	.st0{fill-rule:evenodd;clip-rule:evenodd;fill:#847550;}
</style>
<path class="st0" d="M299.3,14.7c25.2,0,45.9,19.1,48.5,43.6c0,19.7,0,25.6,0,42.9c0,0,0,0,0,0c0,0.2,0,0.3,0,0.5
	c0,5.7-4.6,10.3-10.3,10.3c-5.1,0-9.4-3.8-10.2-8.7l0,0l0,0l0-0.2l0,0l0,0c0-0.2,0-0.3,0-0.5v0l0,0l0-0.2l0,0l0,0c0-0.2,0-0.3,0-0.5
	c0-0.2,0-0.3,0-0.5c0,0,0,0,0,0V84.8c0-20.4,2.8-49.7-27.9-49.7c-15.6,0-28.3,13.3-28.3,28.3c0,15,12.5,26.1,26.3,28
	c7.3,0,16.8,0.1,16.8,10.3c0,5.7-4.6,10.3-10.3,10.3l-0.3,0v0h-7.1l0-0.1c-24.7-2.4-45.9-22.4-45.9-48.5
	C250.6,37.3,272.4,14.7,299.3,14.7L299.3,14.7z M104.4,78.8c14.2,23.1,49.9,12.6,51.7-12.2h0c0-9.4-0.7-38.9-0.7-41.1
	c0-2.9,4.9-10.3,10.3-10.3s9.5,3.8,10.2,8.8c7.4-5.1,16.2-8.1,25.8-8.1c18.1,0,33.9,11.3,41.5,27.1c1,1.8,1.6,4.3,1.3,6.4
	c-0.2,4.7-3.2,7.8-6.9,8.8c-0.9,0.3-0.4,0.4-2.8,0.4c-2.5,0-7.4-2.5-8.9-6c-4.5-9.4-13.4-16.2-24.2-16.2c-12.3,0-18.9,5.1-22.5,12.6
	c-3.9,8.1-2.2,15.8-3.8,24c-3.8,23.1-25.2,39.2-47.8,39.2c-11.5-0.2-22.1-4.4-30.5-11.2c-7.4-6.1-11.9-13.7-14-23.1
	c-1.7-7.7-3.3-16.2-6.2-24.1c-3.7-10.1-11.9-18.2-25.5-18.1C35.9,35.5,23.6,48,23.6,63c-0.2,15.2,12.5,27.7,26.1,28.6
	c7.1,0,15.8-1,16.5,10.1c0,11.1-10.4,10.2-17.7,10.3c0,0,0-0.1,0-0.1c-26.3-1.6-46.7-20.5-46.3-49C5,4.1,80.6-0.4,96.4,48.1
	C99.8,58.4,98.6,69.2,104.4,78.8L104.4,78.8z M249.5,1.4c-6.4,0-13.1,5.6-13.1,11.3c0,5.7,9.2,15.4,12.8,33.5
	c3.9-18.1,13.2-27.8,13.2-33.5C262.5,7,255.8,1.4,249.5,1.4z"/>
</svg>
