<svg width="59" height="29" id="Слой_1" data-name="Слой 1" xmlns="http://www.w3.org/2000/svg" viewBox="0 0 59 29"><defs><style>.cls-1{fill:#c3cace;}.cls-2{fill:#3c3c3c;fill-rule:evenodd;}</style></defs><title>все иконки</title><rect class="cls-1" width="59" height="29"/><path class="cls-2" d="M40.8,14.31S45.3,8,45.74,5.87c.15-.74-.17-1.16-1-1.16h-3.9a1.42,1.42,0,0,0-1.49,1A35.68,35.68,0,0,1,34.72,13c-.83.92-1.25,1.2-1.7,1.2s-.54-.31-.54-1.14V5.81c0-1-.12-1.31-.95-1.31H25.27a.69.69,0,0,0-.78.66c0,1,1.46,1.17,1.46,3.75v5.34c0,1.07-.06,1.49-.56,1.49-1.34,0-4.53-4.62-6.32-9.87-.36-1.07-.75-1.37-1.76-1.37H13.4a.93.93,0,0,0-1,1c0,1,1.22,5.88,6,12.34,3.22,4.36,7.45,6.71,11.27,6.71,2.32,0,2.89-.39,2.89-1.37V19.79c0-.83.33-1.19.8-1.19s1.49.17,3.7,2.35c2.62,2.51,2.8,3.55,4.23,3.55h4.38c.45,0,.87-.21.87-.95,0-1-1.28-2.75-3.25-4.83-.8-1.08-2.12-2.24-2.53-2.77-.6-.63-.42-1,0-1.64Z"/></svg>
