<svg width="13" height="14" id="Слой_1" data-name="Слой 1" xmlns="http://www.w3.org/2000/svg" viewBox="0 0 14.6 15"><defs><style>.cls-1{fill:#3c3c3c;}</style></defs><title>все иконки</title><path class="cls-1" d="M10.25,0H4.35A4.35,4.35,0,0,0,0,4.35v6.3A4.35,4.35,0,0,0,4.35,15h5.9a4.35,4.35,0,0,0,4.35-4.35V4.35A4.35,4.35,0,0,0,10.25,0Zm3,10.65a3,3,0,0,1-3,3H4.35a3,3,0,0,1-3-3V4.35a3,3,0,0,1,3-3h5.9a3,3,0,0,1,3,3Z"/><path class="cls-1" d="M7.32,3.54a3.94,3.94,0,0,0,0,7.88,4,4,0,0,0,3.94-3.93A3.73,3.73,0,0,0,7.32,3.54ZM9.86,7.46a2.56,2.56,0,1,1-5.11,0A2.53,2.53,0,0,1,7.21,4.92,2.39,2.39,0,0,1,9.86,7.46Z"/><circle class="cls-1" cx="11.3" cy="3.46" r="0.69"/></svg>
