<svg width="16" height="15" id="Слой_1" data-name="Слой 1" xmlns="http://www.w3.org/2000/svg" viewBox="0 0 15.39 14"><defs><style>.cls-1{fill:#3c3c3c;}</style></defs><title>все иконки</title><path class="cls-1" d="M15.1.19A1.08,1.08,0,0,0,14,.11h0C13.55.29,1.31,5.54.81,5.76c-.09,0-.89.32-.8,1a1.19,1.19,0,0,0,.78.87L3.91,8.67c.2.69,1,3.23,1.13,3.77.11.34.28.78.58.87a.72.72,0,0,0,.69-.12l1.9-1.77,3.08,2.4.07,0A1.53,1.53,0,0,0,12,14a1.16,1.16,0,0,0,.42-.08,1.32,1.32,0,0,0,.67-.68L15.34,1.31A1.06,1.06,0,0,0,15.1.19ZM6.65,9.1,5.6,11.9l-1-3.5L12.6,2.45Z"/></svg>
