<?xml version="1.0" encoding="utf-8"?>
<!-- Generator: Adobe Illustrator 23.0.1, SVG Export Plug-In . SVG Version: 6.00 Build 0)  -->
<svg version="1.1" id="Livello_1" xmlns="http://www.w3.org/2000/svg" xmlns:xlink="http://www.w3.org/1999/xlink" x="0px" y="0px"
	 viewBox="0 0 4890.4 355.6" style="enable-background:new 0 0 4890.4 355.6;" xml:space="preserve">
<title></title>
<g id="icomoon-ignore">
</g>
<path d="M3896.9,129.1c-46.3-23.2-46.3-41.2-46.3-51.5s7.7-30.9,36-30.9c36,0,41.2,36,43.8,43.8c0,10.3,2.6,28.3,2.6,28.3h54.1
	l28.3-123.5h-48.9c-5.1,0-12.9,2.6-12.9,10.3l-2.6,7.7l0,0c0,0-25.7-18-66.9-18c-12.9,0-38.6-2.6-72.1,23.2
	c-36,25.7-41.2,64.3-41.2,77.2s-2.6,38.6,23.2,72.1c25.7,36,105.5,54.1,103,95.2c-2.6,36-30.9,38.6-38.6,38.6
	c-5.1,0-28.3,0-43.8-23.2c-7.7-12.9-12.9-36-15.4-48.9c-2.6-10.3,0-15.4-10.3-15.4s-46.3,0-46.3,0l-38.6,133.8h69.5l5.1-18
	C3799.1,353,3848,353,3848,353c72.1,0,126.1-43.8,133.8-108.1C3994.7,183.2,3943.2,152.3,3896.9,129.1L3896.9,129.1z"/>
<path d="M272.8,80.2C288.2,21,355.1-17.6,419.5-2.2c66.9,15.4,108.1,61.8,90.1,136.4L471,281c-15.4,56.6-84.9,84.9-149.3,69.5
	c-64.3-12.9-103-64.3-90.1-121L272.8,80.2L272.8,80.2z M424.6,113.7v-2.6c5.1-18-7.7-33.5-25.7-38.6c-2.6,0-5.1,0-7.7,0
	c-15.4,0-28.3,10.3-33.5,23.2l2.6,2.6l-38.6,146.7v2.6c-5.1,15.4,7.7,33.5,25.7,36c2.6,0,5.1,0,7.7,0c15.4,0,28.3-10.3,33.5-23.2
	v-2.6L424.6,113.7L424.6,113.7z"/>
<path d="M177.5,111.1l-7.7,28.3h79.8L283.1-2.2c0,0-48.9,0-59.2,0c-10.3,0-18,18-18,18c-10.3-7.7-23.2-15.4-36-18
	C110.6-15,51.4,21,36,80.2l0,0L2.5,229.5C-10.4,288.7,25.7,337.6,82.3,353c56.6,12.9,121-12.9,133.8-69.5l20.6-82.4
	c0,0-59.2,0-61.8,0c-12.9,0-20.6,10.3-23.2,20.6l-2.6,10.3l-7.7,28.3c-5.1,18-23.2,28.3-38.6,25.7c-18-5.1-28.3-23.2-23.2-41.2l0,0
	l36-151.9l0,0c5.1-18,23.2-30.9,38.6-25.7C172.4,72.5,182.7,90.5,177.5,111.1C177.5,108.5,177.5,111.1,177.5,111.1L177.5,111.1z"/>
<path d="M756.7,257.8c-5.1,15.4,2.6,28.3,15.4,33.5l-15.4,64.3h-41.2c-41.2,0-59.2-30.9-51.5-69.5c0-5.1,12.9-64.3,18-82.4
	c2.6-12.9,2.6-20.6-7.7-20.6H646l0,0c-7.7,0-10.3,0-12.9,10.3c0,0-15.4,64.3-15.4,66.9c-2.6,10.3,0,18,2.6,23.2
	c5.1,5.1,10.3,7.7,23.2,7.7h2.6l-15.4,64.3H489l15.4-64.3c7.7,0,18-2.6,23.2-12.9c2.6-5.1,5.1-7.7,7.7-12.9
	c5.1-25.7,12.9-56.6,18-84.9c7.7-33.5,15.4-61.8,15.4-74.6c7.7-41.2-20.6-38.6-23.2-38.6l0,0l12.9-59.2c5.1-7.7,10.3-12.9,18-12.9
	h126.1c69.5,0,97.8,41.2,95.2,92.7c-2.6,33.5-20.6,66.9-48.9,82.4c20.6,20.6,18,54.1,15.4,64.3c0,2.6-2.6,5.1-2.6,7.7
	C759.3,244.9,759.3,250.1,756.7,257.8L756.7,257.8z M700.1,126.5c2.6-7.7,5.1-20.6,7.7-33.5c2.6-18,0-33.5-23.2-33.5
	c-15.4,0-20.6,2.6-23.2,10.3L646,134.3h43.8C692.3,134.3,697.5,131.7,700.1,126.5L700.1,126.5z"/>
<path d="M1039.8,257.8c-5.1,15.4,2.6,28.3,12.9,33.5l-12.9,64.3h-41.2c-41.2,0-59.2-30.9-51.5-69.5c0-5.1,15.4-64.3,18-82.4
	c2.6-12.9,2.6-20.6-7.7-20.6h-28.3l0,0c-7.7,0-10.3,0-12.9,10.3c0,0-15.4,64.3-15.4,66.9c-2.6,10.3,0,18,2.6,23.2
	c5.1,5.1,10.3,7.7,23.2,7.7h2.6l-15.4,64.3H772.1l15.4-64.3c7.7,0,18-2.6,23.2-12.9c2.6-5.1,5.1-7.7,7.7-12.9
	c5.1-23.2,12.9-51.5,18-77.2c7.7-36,15.4-69.5,18-82.4c7.7-41.2-20.6-38.6-23.2-38.6l0,0l12.9-59.2c2.6-7.7,7.7-12.9,15.4-12.9
	h126.1c69.5,0,97.8,41.2,95.2,92.7c-2.6,33.5-20.6,66.9-48.9,82.4c20.6,20.6,18,54.1,15.4,64.3c0,2.6-2.6,5.1-2.6,7.7
	C1042.4,244.9,1042.4,250.1,1039.8,257.8L1039.8,257.8z M983.2,126.5c2.6-7.7,5.1-20.6,7.7-33.5c2.6-18,0-33.5-23.2-33.5
	c-15.4,0-20.6,2.6-23.2,10.3l-15.4,64.3h43.8C975.5,134.3,980.6,131.7,983.2,126.5L983.2,126.5z"/>
<path d="M1812,257.8c-5.1,15.4,2.6,28.3,15.4,33.5l-15.4,64.3h-41.2c-41.2,0-59.2-30.9-51.5-69.5c0-5.1,12.9-64.3,18-82.4
	c2.6-12.9,2.6-20.6-7.7-20.6h-28.3l0,0c-7.7,0-10.3,0-12.9,10.3c0,0-15.4,64.3-15.4,66.9c-2.6,10.3,0,18,2.6,23.2
	c5.1,5.1,12.9,7.7,23.2,7.7h2.6l-15.4,64.3h-141.6l15.4-64.3c7.7,0,18-2.6,23.2-12.9c2.6-5.1,5.1-7.7,7.7-12.9
	c5.1-25.7,12.9-56.6,18-84.9c7.7-33.5,15.4-64.3,18-77.2c7.7-41.2-20.6-38.6-23.2-38.6l0,0l12.9-59.2c2.6-5.1,7.7-10.3,15.4-10.3
	h126.1c69.5,0,97.8,41.2,95.2,92.7c-2.6,33.5-20.6,66.9-48.9,82.4c20.6,20.6,18,54.1,15.4,64.3c0,2.6-2.6,5.1-2.6,7.7
	C1814.6,247.5,1814.6,250.1,1812,257.8L1812,257.8z M1755.4,126.5c2.6-7.7,5.1-20.6,7.7-33.5c2.6-18,0-33.5-23.2-33.5
	c-15.4,0-20.6,2.6-23.2,10.3l-15.4,64.3h43.8C1747.6,134.3,1752.8,131.7,1755.4,126.5L1755.4,126.5z"/>
<path d="M4540.4,257.8c-5.1,15.4,2.6,28.3,15.4,33.5l-15.4,66.9h-41.2c-41.2,0-59.2-30.9-51.5-69.5c0-5.1,12.9-64.3,18-82.4
	c2.6-12.9,2.6-20.6-7.7-20.6h-28.3l0,0c-5.1,0-10.3,0-12.9,10.3c0,0-15.4,64.3-15.4,66.9c-2.6,10.3,0,18,2.6,23.2
	c5.1,5.1,10.3,7.7,23.2,7.7h2.6l-15.4,64.3h-141.6l15.4-64.3c7.7,0,18-2.6,23.2-12.9c2.6-5.1,5.1-7.7,7.7-12.9
	c5.1-25.7,12.9-54.1,18-82.4c7.7-36,15.4-66.9,18-79.8c7.7-41.2-20.6-38.6-23.2-38.6l0,0l12.9-59.2c2.6-7.7,7.7-12.9,15.4-12.9
	h126.1c69.5,0,97.8,41.2,95.2,92.7c-2.6,33.5-20.6,66.9-48.9,82.4c20.6,20.6,18,54.1,15.4,64.3c0,2.6-2.6,5.1-2.6,7.7
	C4543,244.9,4543,250.1,4540.4,257.8L4540.4,257.8z M4483.8,126.5c2.6-7.7,5.1-20.6,7.7-33.5c2.6-18,0-33.5-23.2-33.5
	c-15.4,0-20.6,2.6-23.2,10.3l-15.4,64.3h43.8C4476,134.3,4481.2,131.7,4483.8,126.5L4483.8,126.5z"/>
<path d="M3006.3,219.2c-7.7,28.3-10.3,41.2-15.4,56.6c-5.1,12.9-18,18-33.5,18c-5.1,0-10.3,0-15.4,0c-10.3,0-18-5.1-20.6-7.7
	c-5.1-5.1-7.7-12.9-5.1-23.2c5.1-25.7,38.6-164.7,41.2-169.9c5.1-12.9,12.9-23.2,41.2-23.2l12.9-74.6h-141.6
	c-7.7,0-12.9,5.1-15.4,12.9L2839,67.3c0,0,30.9,0,23.2,38.6c-2.6,10.3-7.7,33.5-15.4,61.8l0,0c-7.7,30.9-15.4,66.9-23.2,97.8
	c-2.6,5.1-5.1,10.3-7.7,12.9c-7.7,10.3-18,12.9-25.7,12.9l-10.3,64.3h249.7l33.5-136.4L3006.3,219.2L3006.3,219.2z"/>
<path d="M3289.4,219.2c-7.7,28.3-10.3,41.2-15.4,56.6c-5.1,12.9-18,18-33.5,18c-5.1,0-10.3,0-15.4,0c-10.3,0-18-5.1-20.6-7.7
	c-2.6-5.1-7.7-12.9-5.1-23.2c5.1-25.7,38.6-164.7,41.2-169.9c5.1-12.9,12.9-23.2,41.2-23.2l12.9-74.6H3153
	c-7.7,0-12.9,5.1-15.4,12.9l-15.4,59.2c0,0,30.9,0,23.2,38.6c-2.6,10.3-7.7,33.5-15.4,61.8l0,0c-7.7,30.9-15.4,66.9-23.2,97.8
	c-2.6,5.1-5.1,10.3-7.7,12.9c-7.7,10.3-18,12.9-25.7,12.9l-10.3,64.3h249.7l33.5-136.4L3289.4,219.2L3289.4,219.2z"/>
<path d="M2326.8-4.7c0,0,113.3,0,121,0c61.8,0,110.7,61.8,97.8,131.3c0,0-15.4,66.9-30.9,139c-18,74.6-61.8,90.1-97.8,90.1
	c-2.6,0-18,0-41.2,0c-46.3,0-115.8,0-139,0l15.4-64.3c7.7,0,18-2.6,25.7-12.9c2.6-5.1,5.1-7.7,7.7-12.9c5.1-25.7,12.9-54.1,18-79.8
	c7.7-36,15.4-66.9,18-79.8c7.7-38.6-20.6-38.6-23.2-38.6l12.9-59.2C2313.9,0.4,2321.6-4.7,2326.8-4.7L2326.8-4.7z M2458.1,144.5
	c2.6-12.9,5.1-23.2,5.1-28.3c2.6-12.9,2.6-25.7-5.1-36c-5.1-7.7-12.9-10.3-23.2-10.3h-23.2l-48.9,218.8c2.6,0,20.6,0,30.9,0
	c2.6,0,5.1,0,5.1,0c20.6,0,28.3-7.7,33.5-30.9c2.6-10.3,12.9-56.6,20.6-92.7C2455.5,157.4,2458.1,149.7,2458.1,144.5L2458.1,144.5z"
	/>
<path d="M3621.5,260.4c7.7,30.9,20.6,30.9,30.9,30.9h2.6l-15.4,64.3h-146.7l15.4-66.9h12.9c5.1,0,7.7-2.6,10.3-5.1
	c2.6-2.6,2.6-7.7,2.6-12.9c-2.6-5.1-2.6-10.3-2.6-12.9v-2.6l0,0h-90.1c0,2.6-2.6,5.1-5.1,10.3c-2.6,7.7-2.6,15.4,0,18
	c0,2.6,2.6,2.6,5.1,2.6h23.2L3449,353h-128.7l15.4-64.3c10.3,0,23.2-2.6,30.9-18L3477.3,5.6c2.6-5.1,10.3-10.3,15.4-12.9l0,0h59.2
	C3554.6-4.7,3600.9,188.3,3621.5,260.4L3621.5,260.4z M3495.4,121.4l-38.6,95.2h64.3L3495.4,121.4L3495.4,121.4z"/>
<path d="M4857,260.4c7.7,30.9,20.6,30.9,30.9,30.9h2.6l-15.4,64.3h-146.7l15.4-66.9h12.9c5.1,0,7.7-2.6,10.3-5.1
	c2.6-2.6,2.6-7.7,2.6-12.9c-2.6-7.7-2.6-12.9-2.6-15.4l0,0h-90.1c-2.6,2.6-2.6,5.1-5.1,10.3c-2.6,7.7-2.6,15.4,0,18
	c0,2.6,2.6,2.6,5.1,2.6h23.2l-15.4,66.9h-128.7l15.4-64.3c10.3,0,23.2-2.6,30.9-18L4712.8,5.6c2.6-5.1,10.3-10.3,15.4-12.9l0,0h59.2
	C4790.1-4.7,4836.4,188.3,4857,260.4L4857,260.4z M4730.9,121.4l-38.6,95.2h64.3L4730.9,121.4L4730.9,121.4z"/>
<path d="M1147.9-4.7c-7.7,0-15.4,5.1-15.4,12.9L1117,67.3c0,0,33.5-2.6,25.7,33.5c0,5.1-5.1,23.2-5.1,23.2
	c-7.7,33.5-20.6,92.7-33.5,141.6c-2.6,5.1-2.6,10.3-7.7,12.9c-10.3,12.9-25.7,12.9-25.7,12.9l-15.4,64.3H1202l15.4-64.3
	c-7.7,0-36,2.6-28.3-33.5c2.6-12.9,33.5-136.4,36-157c2.6-12.9,7.7-33.5,43.8-33.5l18-72.1L1147.9-4.7L1147.9-4.7z"/>
<path d="M1333.2-4.7c-7.7,0-12.9,5.1-15.4,12.9l-12.9,59.2c0,0,30.9,0,23.2,38.6c-5.1,20.6-23.2,100.4-38.6,159.6
	c-2.6,5.1-2.6,10.3-7.7,12.9c-12.9,15.4-30.9,12.9-30.9,12.9l-15.4,64.3h254.8l28.3-126.1h-56.6c-5.1,20.6-7.7,33.5-12.9,43.8
	c-7.7,12.9-18,18-33.5,18c-12.9,0-23.2-5.1-30.9-15.4c-7.7-7.7-7.7-20.6-5.1-30.9c2.6-12.9,7.7-28.3,7.7-36
	c2.6-15.4,7.7-23.2,20.6-23.2c7.7,0,15.4,7.7,12.9,20.6c0,5.1-5.1,20.6-5.1,20.6h28.3l25.7-110.7h-30.9c0,0-2.6,10.3-5.1,23.2
	c-2.6,7.7-10.3,12.9-18,12.9c-12.9,0-15.4-10.3-12.9-20.6c2.6-7.7,5.1-20.6,7.7-33.5c7.7-30.9,25.7-38.6,46.3-36
	c18,0,25.7,10.3,28.3,20.6c2.6,7.7,5.1,18,2.6,36h51.5L1570-4.7L1333.2-4.7L1333.2-4.7z"/>
<path d="M2108,121.4l28.3-126.1h-223.9c-5.1,0-12.9,5.1-12.9,12.9l-12.9,59.2c0,0,28.3,0,20.6,38.6c-5.1,20.6-23.2,100.4-36,159.6
	c-2.6,5.1-2.6,10.3-5.1,12.9c-7.7,10.3-18,12.9-23.2,12.9l-15.4,64.3h234.2l28.3-126.1h-54.1c-5.1,20.6-7.7,33.5-12.9,43.8
	c-5.1,12.9-18,18-33.5,18c-12.9,0-23.2-5.1-28.3-15.4c-7.7-7.7-7.7-20.6-5.1-30.9c2.6-12.9,5.1-28.3,7.7-36
	c2.6-15.4,7.7-23.2,18-23.2c7.7,0,12.9,7.7,12.9,20.6c0,5.1-5.1,20.6-5.1,20.6h28.3l25.7-110.7h-28.3c0,0-2.6,10.3-5.1,23.2
	c-2.6,10.3-10.3,15.4-18,15.4c-10.3,0-12.9-10.3-12.9-20.6c2.6-7.7,5.1-20.6,5.1-33.5c5.1-30.9,23.2-38.6,43.8-36
	c15.4,0,23.2,10.3,28.3,20.6c2.6,7.7,5.1,18,0,36L2108,121.4L2108,121.4z"/>
<path d="M2803,121.4l28.3-126.1h-223.9c-5.1,0-12.9,5.1-12.9,12.9l-12.9,59.2c0,0,28.3,0,20.6,38.6c-5.1,20.6-23.2,100.4-36,159.6
	c-2.6,5.1-2.6,10.3-5.1,12.9c-7.7,10.3-18,12.9-23.2,12.9l-15.4,64.3h234.2l28.3-126.1h-54.1c-5.1,20.6-7.7,33.5-12.9,43.8
	c-5.1,12.9-18,18-33.5,18c-12.9,0-23.2-5.1-28.3-15.4c-7.7-7.7-7.7-20.6-5.1-30.9c2.6-12.9,5.1-28.3,7.7-36
	c2.6-15.4,7.7-23.2,18-23.2c5.1,0,15.4,7.7,12.9,20.6c0,5.1-5.1,20.6-5.1,20.6h28.3l25.7-110.7h-28.3c0,0-2.6,10.3-5.1,23.2
	c-2.6,7.7-10.3,12.9-15.4,12.9c-10.3,0-12.9-10.3-12.9-20.6c2.6-7.7,5.1-20.6,5.1-33.5c5.1-30.9,23.2-38.6,43.8-36
	c15.4,0,23.2,10.3,28.3,20.6c2.6,7.7,5.1,18,0,36h48.9L2803,121.4z"/>
<path d="M4270.1,121.4l28.3-126.1h-223.9c-5.1,0-12.9,5.1-12.9,12.9l-12.9,59.2c0,0,28.3,0,20.6,38.6c-5.1,20.6-23.2,100.4-36,159.6
	c-2.6,5.1-2.6,10.3-5.1,12.9c-7.7,10.3-18,12.9-23.2,12.9l-15.4,64.3h234.2l28.3-126.1H4198c-5.1,20.6-5.1,33.5-12.9,43.8
	c-5.1,12.9-18,18-33.5,18c-12.9,0-23.2-5.1-28.3-15.4c-7.7-7.7-7.7-20.6-5.1-30.9c2.6-12.9,5.1-28.3,7.7-36
	c2.6-15.4,7.7-23.2,18-23.2c5.1,0,12.9,7.7,12.9,20.6c0,5.1-5.1,20.6-5.1,20.6h28.3l25.7-110.7h-28.3c0,0-2.6,10.3-5.1,23.2
	c-2.6,7.7-10.3,12.9-15.4,12.9c-10.3,0-12.9-10.3-12.9-20.6c2.6-7.7,5.1-20.6,5.1-33.5c5.1-30.9,23.2-38.6,43.8-36
	c15.4,0,23.2,10.3,28.3,20.6c2.6,7.7,5.1,18,2.6,36h46.3L4270.1,121.4z"/>
</svg>
