<svg width="35" height="35" viewBox="0 0 35 35" fill="none" xmlns="http://www.w3.org/2000/svg">
<circle cx="17.9492" cy="17.5508" r="17" fill="white"/>
<path d="M10.1339 15.4362L9.45319 15.1214L10.1339 15.4362ZM15.3586 10.7528L14.8729 10.1813L15.3586 10.7528ZM17.9492 9.17566V9.92566V9.17566ZM25.7645 15.4362L26.4452 15.1214L25.7645 15.4362ZM24.9413 25.5428L24.9354 26.2928L24.9413 25.5428ZM25.8014 25.4018L25.2731 24.8693L25.8014 25.4018ZM20.7377 25.5095L20.7318 26.2595L20.7377 25.5095ZM10.0957 25.4043L9.56534 25.9347L10.0957 25.4043ZM10.9492 26.3008H15.1478V24.8008H10.9492V26.3008ZM16.4135 25.0351V22.1926H14.9135V25.0351H16.4135ZM19.4849 22.1926V25.0027H20.9849V22.1926H19.4849ZM20.7318 26.2595L24.9354 26.2928L24.9472 24.7928L20.7437 24.7596L20.7318 26.2595ZM26.6992 24.5428V17.2005H25.1992V24.5428H26.6992ZM25.0255 13.5813L21.0256 10.1813L20.0541 11.3242L24.0541 14.7242L25.0255 13.5813ZM14.8729 10.1813L10.8729 13.5813L11.8444 14.7242L15.8444 11.3242L14.8729 10.1813ZM9.19922 17.2005V24.5508H10.6992V17.2005H9.19922ZM10.8729 13.5813C10.2322 14.1259 9.72335 14.5372 9.45319 15.1214L10.8147 15.751C10.9139 15.5364 11.0984 15.3583 11.8444 14.7242L10.8729 13.5813ZM10.6992 17.2005C10.6992 16.2215 10.7154 15.9656 10.8147 15.751L9.45319 15.1214C9.18302 15.7056 9.19922 16.3596 9.19922 17.2005H10.6992ZM21.0256 10.1813C20.4218 9.66812 19.9168 9.23713 19.4674 8.94263C19.0004 8.63663 18.5181 8.42566 17.9492 8.42566V9.92566C18.1155 9.92566 18.31 9.97755 18.6453 10.1973C18.9981 10.4285 19.4209 10.786 20.0541 11.3242L21.0256 10.1813ZM15.8444 11.3242C16.4775 10.786 16.9003 10.4285 17.2532 10.1973C17.5885 9.97755 17.7829 9.92566 17.9492 9.92566V8.42566C17.3803 8.42566 16.898 8.63663 16.431 8.94263C15.9816 9.23713 15.4767 9.66812 14.8729 10.1813L15.8444 11.3242ZM26.6992 17.2005C26.6992 16.3596 26.7154 15.7056 26.4452 15.1214L25.0838 15.751C25.183 15.9656 25.1992 16.2215 25.1992 17.2005H26.6992ZM24.0541 14.7242C24.8 15.3583 24.9845 15.5364 25.0838 15.751L26.4452 15.1214C26.1751 14.5372 25.6663 14.1259 25.0255 13.5813L24.0541 14.7242ZM24.9354 26.2928C25.1515 26.2945 25.3893 26.298 25.5883 26.2727C25.8089 26.2448 26.0914 26.1705 26.3296 25.9342L25.2731 24.8693C25.3124 24.8304 25.3558 24.8048 25.3904 24.7908C25.4189 24.7793 25.4284 24.781 25.3996 24.7847C25.3703 24.7884 25.3225 24.7917 25.2422 24.7931C25.1623 24.7945 25.0687 24.7938 24.9472 24.7928L24.9354 26.2928ZM25.1992 24.5428C25.1992 24.6643 25.1992 24.7579 25.1971 24.8378C25.1951 24.918 25.1914 24.9658 25.1875 24.9951C25.1836 25.0239 25.182 25.0144 25.1937 24.986C25.208 24.9515 25.2339 24.9083 25.2731 24.8693L26.3296 25.9342C26.5678 25.6979 26.6443 25.416 26.674 25.1956C26.7008 24.9968 26.6992 24.759 26.6992 24.5428H25.1992ZM19.4849 25.0027C19.4849 25.693 20.0416 26.254 20.7318 26.2595L20.7437 24.7596C20.8772 24.7606 20.9849 24.8692 20.9849 25.0027H19.4849ZM17.934 20.6569C18.7881 20.6485 19.4849 21.3385 19.4849 22.1926H20.9849C20.9849 20.5042 19.6074 19.1403 17.9192 19.157L17.934 20.6569ZM16.4135 22.1926C16.4135 21.3503 17.0918 20.6652 17.934 20.6569L17.9192 19.157C16.2544 19.1735 14.9135 20.5277 14.9135 22.1926H16.4135ZM15.1478 26.3008C15.8468 26.3008 16.4135 25.7341 16.4135 25.0351H14.9135C14.9135 24.9057 15.0184 24.8008 15.1478 24.8008V26.3008ZM10.9492 24.8008C10.8286 24.8008 10.7358 24.8007 10.6565 24.7987C10.5768 24.7967 10.5295 24.7931 10.5005 24.7892C10.472 24.7853 10.4816 24.7838 10.5099 24.7954C10.5441 24.8095 10.5871 24.8352 10.626 24.874L9.56534 25.9347C9.80114 26.1705 10.0813 26.2463 10.3006 26.2758C10.4984 26.3024 10.7347 26.3008 10.9492 26.3008V24.8008ZM9.19922 24.5508C9.19922 24.7653 9.19763 25.0016 9.22421 25.1994C9.2537 25.4187 9.32954 25.6989 9.56534 25.9347L10.626 24.874C10.6648 24.9129 10.6905 24.9559 10.7046 24.9901C10.7162 25.0184 10.7147 25.028 10.7108 24.9995C10.7069 24.9705 10.7033 24.9232 10.7013 24.8435C10.6993 24.7642 10.6992 24.6714 10.6992 24.5508H9.19922Z" fill="#3A3A40"/>
</svg>
