<svg width="34" height="34" viewBox="0 0 34 34" fill="none" xmlns="http://www.w3.org/2000/svg">
<circle cx="17" cy="17" r="17" fill="white"/>
<path d="M9.5004 24.9997L8.75102 24.9693L9.5004 24.9997ZM24.4996 24.9997L23.7502 25.0302V25.0302L24.4996 24.9997ZM10.2498 25.0302C10.3476 22.6218 11.1965 21.09 12.3732 20.1447C13.5719 19.1818 15.2077 18.7498 17 18.7498V17.2498C14.9911 17.2498 12.9822 17.7314 11.4338 18.9753C9.86352 20.2368 8.86325 22.2049 8.75102 24.9693L10.2498 25.0302ZM17 18.7498C18.7923 18.7498 20.4281 19.1818 21.6268 20.1447C22.8035 21.09 23.6524 22.6218 23.7502 25.0302L25.249 24.9693C25.1367 22.2049 24.1365 20.2368 22.5662 18.9753C21.0178 17.7314 19.0089 17.2498 17 17.2498V18.7498ZM9.99041 26.2498H24.0096V24.7498H9.99041V26.2498ZM23.7502 25.0302C23.7433 24.8604 23.8798 24.7498 24.0096 24.7498V26.2498C24.6917 26.2498 25.2783 25.6909 25.249 24.9693L23.7502 25.0302ZM8.75102 24.9693C8.72172 25.6909 9.30829 26.2498 9.99041 26.2498V24.7498C10.1202 24.7498 10.2567 24.8604 10.2498 25.0302L8.75102 24.9693Z" fill="#3A3B41"/>
<path d="M19.4686 9.02512C20.8339 10.392 20.8339 12.608 19.4686 13.9749C18.1034 15.3417 15.8899 15.3417 14.5247 13.9749C13.1594 12.608 13.1594 10.392 14.5247 9.02512C15.8899 7.65829 18.1034 7.65829 19.4686 9.02512Z" stroke="#3A3B41" stroke-width="1.5" stroke-linecap="round" stroke-linejoin="round"/>
</svg>
