 <svg
                xmlns="http://www.w3.org/2000/svg"
                width="60"
                height="60"
                viewBox="0 0 60 60"
                fill="none"
              >
                <rect width="60" height="60" rx="2" fill="#54CEDD"></rect>
                <path
                  fill-rule="evenodd"
                  clip-rule="evenodd"
                  d="M25 34.0806L33.5234 45.1503C33.8632 45.6357 34.2864 46.0607 34.7744 46.4067C35.1667 46.6792 35.62 46.8569 36.0968 46.9253C36.6593 46.996 37.2271 47.0165 37.7933 46.9868C38.4476 46.9574 39.2313 46.9253 40.1606 46.8932L42 46.8478C41.2171 46.32 40.4812 45.7289 39.8004 45.0808C39.2242 44.5236 38.6826 43.9336 38.1782 43.3139L31.7362 35.4466C31.4612 35.1018 31.1616 34.7729 30.8701 34.4736C30.5787 34.1742 30.2488 33.8694 29.8941 33.562L38.6622 24H30.7657C31.0653 24.189 31.3325 24.4226 31.5575 24.6924C31.763 24.936 31.8765 25.2407 31.8791 25.5557C31.8389 25.9526 31.7093 26.3358 31.4997 26.6785C31.2569 27.1215 30.9812 27.5469 30.6749 27.951C30.419 28.2977 30.1436 28.6307 29.8501 28.9481L25 34.0806Z"
                  fill="white"
                ></path>
                <path
                  fill-rule="evenodd"
                  clip-rule="evenodd"
                  d="M18.0055 13.7599C18.4177 14.0319 18.7786 14.3719 19.0722 14.7649C19.3065 15.1043 19.4743 15.4836 19.567 15.8832C19.6587 16.2773 19.702 16.6808 19.6962 17.085V43.6749C19.7022 44.08 19.6588 44.4843 19.567 44.8794C19.4729 45.2761 19.3031 45.6518 19.0667 45.9868C18.775 46.3836 18.4139 46.7267 18 47H26C25.5861 46.7267 25.225 46.3836 24.9333 45.9868C24.6969 45.6518 24.5271 45.2761 24.433 44.8794C24.3412 44.4843 24.2978 44.08 24.3038 43.6749V13C23.9347 13.2601 23.5254 13.4602 23.0914 13.5928C22.6495 13.7086 22.1935 13.7648 21.7361 13.7599H18.0055Z"
                  fill="white"
                ></path>
              </svg>