<svg width="24" height="24" viewBox="0 0 24 24" fill="none" xmlns="http://www.w3.org/2000/svg">
<rect width="24" height="24" fill="#3C5A96"/>
<path fill-rule="evenodd" clip-rule="evenodd" d="M14.7364 5.0029L13.0574 5C11.1711 5 9.95214 6.34547 9.95214 8.42793V10.0084H8.264C8.11813 10.0084 8 10.1357 8 10.2926V12.5826C8 12.7395 8.11826 12.8666 8.264 12.8666H9.95214V18.6449C9.95214 18.8019 10.0703 18.929 10.2161 18.929H12.4187C12.5646 18.929 12.6827 18.8017 12.6827 18.6449V12.8666H14.6565C14.8024 12.8666 14.9205 12.7395 14.9205 12.5826L14.9213 10.2926C14.9213 10.2173 14.8935 10.1451 14.844 10.0918C14.7946 10.0384 14.7272 10.0084 14.6572 10.0084H12.6827V8.66863C12.6827 8.02466 12.8253 7.69775 13.6051 7.69775L14.7361 7.69731C14.8819 7.69731 15 7.57008 15 7.41329V5.28692C15 5.13027 14.882 5.00319 14.7364 5.0029Z" fill="white"/>
</svg>
