<svg width="15" height="12" viewBox="0 0 15 12" fill="none" xmlns="http://www.w3.org/2000/svg">
<path d="M7.48438 10.6953C7.48438 10.7526 7.46875 10.8047 7.4375 10.8516C7.41146 10.8932 7.35677 10.9297 7.27344 10.9609C7.19531 10.987 7.08594 11.0078 6.94531 11.0234C6.80469 11.0391 6.6276 11.0469 6.41406 11.0469C6.07552 11.0469 5.83073 11.0339 5.67969 11.0078C5.53385 10.9818 5.42708 10.9427 5.35938 10.8906C5.29688 10.8385 5.2474 10.776 5.21094 10.7031L2.15625 5.90625V10.7031C2.15625 10.7604 2.14062 10.8099 2.10938 10.8516C2.07812 10.8932 2.02344 10.9297 1.94531 10.9609C1.86719 10.987 1.76302 11.0078 1.63281 11.0234C1.5026 11.0391 1.33594 11.0469 1.13281 11.0469C0.934896 11.0469 0.768229 11.0391 0.632812 11.0234C0.502604 11.0078 0.398438 10.987 0.320312 10.9609C0.242188 10.9297 0.184896 10.8932 0.148438 10.8516C0.117188 10.8099 0.101562 10.7604 0.101562 10.7031V1.17969C0.101562 1.1224 0.117188 1.07292 0.148438 1.03125C0.184896 0.989583 0.242188 0.955729 0.320312 0.929688C0.398438 0.903646 0.502604 0.882812 0.632812 0.867188C0.768229 0.851562 0.934896 0.84375 1.13281 0.84375C1.33594 0.84375 1.5026 0.851562 1.63281 0.867188C1.76302 0.882812 1.86719 0.903646 1.94531 0.929688C2.02344 0.955729 2.07812 0.989583 2.10938 1.03125C2.14062 1.07292 2.15625 1.1224 2.15625 1.17969V5.48438L5.11719 1.1875C5.15365 1.11979 5.19792 1.0651 5.25 1.02344C5.30208 0.976562 5.36979 0.940104 5.45312 0.914062C5.53646 0.888021 5.64323 0.869792 5.77344 0.859375C5.90365 0.848958 6.07031 0.84375 6.27344 0.84375C6.48177 0.84375 6.65365 0.851562 6.78906 0.867188C6.92448 0.882812 7.03125 0.90625 7.10938 0.9375C7.19271 0.963542 7.25 0.997396 7.28125 1.03906C7.3125 1.08073 7.32812 1.1276 7.32812 1.17969C7.32812 1.26823 7.30469 1.35938 7.25781 1.45312C7.21094 1.54688 7.1224 1.69531 6.99219 1.89844L4.21875 5.53125L7.24219 10.1016C7.35677 10.3151 7.42448 10.4583 7.44531 10.5312C7.47135 10.599 7.48438 10.6536 7.48438 10.6953ZM14.4225 10.1875C14.4225 10.3385 14.4147 10.4661 14.3991 10.5703C14.3886 10.6745 14.3704 10.7604 14.3444 10.8281C14.3183 10.8906 14.2845 10.9349 14.2428 10.9609C14.2064 10.987 14.1647 11 14.1178 11H8.15687C7.94854 11 7.78708 10.9401 7.6725 10.8203C7.56312 10.7005 7.50844 10.526 7.50844 10.2969V9.95312C7.50844 9.84896 7.51365 9.75521 7.52406 9.67188C7.53969 9.58333 7.56312 9.49479 7.59437 9.40625C7.62562 9.31771 7.6699 9.22135 7.72719 9.11719C7.78969 9.01302 7.86521 8.88802 7.95375 8.74219L11.8756 2.52344H7.985C7.9225 2.52344 7.86781 2.51042 7.82094 2.48438C7.77927 2.45312 7.74281 2.40625 7.71156 2.34375C7.68552 2.28125 7.66469 2.19792 7.64906 2.09375C7.63865 1.98958 7.63344 1.86458 7.63344 1.71875C7.63344 1.5625 7.63865 1.43229 7.64906 1.32812C7.66469 1.21875 7.68552 1.13281 7.71156 1.07031C7.74281 1.0026 7.77927 0.955729 7.82094 0.929688C7.86781 0.903646 7.9225 0.890625 7.985 0.890625H13.5709C13.7845 0.890625 13.9407 0.945312 14.0397 1.05469C14.1439 1.16406 14.1959 1.31771 14.1959 1.51562V1.89844C14.1959 2.03906 14.1881 2.16146 14.1725 2.26562C14.1621 2.36458 14.1386 2.46354 14.1022 2.5625C14.0709 2.65625 14.0267 2.75521 13.9694 2.85938C13.9121 2.95833 13.8392 3.07812 13.7506 3.21875L9.89125 9.35156H14.1178C14.2168 9.35156 14.2923 9.41406 14.3444 9.53906C14.3965 9.66406 14.4225 9.88021 14.4225 10.1875Z" fill="#60BC50"/>
</svg>
