<?xml version="1.0" encoding="utf-8"?>
<!-- Generator: Adobe Illustrator 27.0.0, SVG Export Plug-In . SVG Version: 6.00 Build 0)  -->
<svg version="1.1" id="Layer_1" xmlns="http://www.w3.org/2000/svg" xmlns:xlink="http://www.w3.org/1999/xlink" x="0px" y="0px"
	 viewBox="0 0 69 24" style="enable-background:new 0 0 69 24;" xml:space="preserve">
<style type="text/css">
	.st0{fill-rule:evenodd;clip-rule:evenodd;fill:#FFFFFF;}
	.st1{fill:none;stroke:#FFFFFF;stroke-width:0.5;stroke-miterlimit:10;}
</style>
<g id="Shape_4">
	<g>
		<path class="st0" d="M30.15,5.96l-2.81,8.64L24.6,5.96h-3.59l4.65,12.81L23.7,24h3.49l6.59-18.04H30.15z M15.36,5.72
			c-1.87,0-3.17,0.73-4.22,1.94c-0.99-1.33-2.25-1.94-3.78-1.94c-1.43,0-2.74,0.68-3.54,1.67V5.96H0.43v11.99h3.39v-5.98
			c0-2.13,1.14-3.32,2.54-3.32c1.36,0,2.37,1.07,2.37,3.32v5.98h3.3v-5.98c0-2.11,1.09-3.32,2.54-3.32c1.36,0,2.37,1.09,2.37,3.32
			v5.98h3.39v-6.3C20.35,7.73,18.27,5.72,15.36,5.72z M55.27,7.37c-0.82-0.94-2.11-1.65-3.83-1.65c-3.29,0-5.67,2.71-5.67,6.22
			c0,3.51,2.37,6.25,5.67,6.25c1.72,0,3-0.7,3.83-1.65v1.4h3.39V5.96h-3.39V7.37z M52.22,15.19c-1.72,0-3.05-1.38-3.05-3.24
			c0-1.84,1.33-3.24,3.05-3.24c1.72,0,3.05,1.4,3.05,3.24C55.27,13.81,53.94,15.19,52.22,15.19z M40.22,8.77
			c1.09,0,2.06,0.53,2.64,1.43l2.5-1.89c-1.07-1.62-2.93-2.64-5.21-2.64c-3.71,0-6.37,2.76-6.37,6.3c0,3.51,2.66,6.27,6.37,6.27
			c2.28,0,4.17-1.02,5.21-2.64l-2.5-1.89c-0.58,0.9-1.55,1.43-2.64,1.43c-1.7,0-3.05-1.36-3.05-3.2
			C37.17,10.13,38.53,8.77,40.22,8.77z M68.08,5.69c-1.6,0-2.83,0.61-3.73,1.89V5.96h-3.39v11.99h3.39v-4.96
			c0-2.54,1.48-3.9,3.42-3.9c0.24,0,0.48,0,0.8,0.02V5.72C68.37,5.69,68.27,5.69,68.08,5.69z M31.2,2.93V0
			c-2.35,1.36-5.25,1.36-7.61,0v2.93C25.95,4.28,28.85,4.28,31.2,2.93z"/>
	</g>
</g>
	<text transform="matrix(1 0 0 1 -4.0701 136.1163)" style="fill:#FFFFFF; font-family:'OktaNeue-SemiBold'; font-size:12px;">Спецпроект</text>
	<line class="st1" x1="79.9" y1="120.4" x2="79.9" y2="144.4"/>
</svg>
