<svg width="16" height="16" viewBox="0 0 16 16" fill="none" xmlns="http://www.w3.org/2000/svg">
<rect width="16" height="16" fill="black"/>
<path fill-rule="evenodd" clip-rule="evenodd" d="M5.64879 8.60273L3.4982 7.81654C3.27977 7.73636 3.27787 7.43432 3.49568 7.35204L12.3218 4.01708C12.5089 3.9462 12.7019 4.10676 12.6612 4.29923L11.0773 11.7617C11.0399 11.9379 10.829 12.0178 10.6802 11.9118L8.51801 10.3743C8.38669 10.2809 8.20771 10.2859 8.08205 10.3862L6.88328 11.3434C6.74412 11.4548 6.53446 11.3928 6.4812 11.2248L5.64879 8.60273ZM10.55 5.64869L6.347 8.18423C6.18591 8.28162 6.11006 8.47217 6.16211 8.65055L6.61654 10.2146C6.6488 10.3254 6.81304 10.314 6.82869 10.1995L6.94685 9.34183C6.96912 9.18035 7.04777 9.03158 7.16969 8.92042L10.6384 5.76224C10.7032 5.7033 10.6255 5.60326 10.55 5.64869Z" fill="white"/>
</svg>
