<svg width="24" height="24" viewBox="0 0 24 24" fill="none" xmlns="http://www.w3.org/2000/svg">
<rect width="24" height="24" fill="#31A7FD"/>
<path fill-rule="evenodd" clip-rule="evenodd" d="M8.47317 12.9041L5.24728 11.7248C4.91963 11.6045 4.91679 11.1515 5.2435 11.0281L18.4826 6.02562C18.7633 5.9193 19.0529 6.16014 18.9918 6.44884L16.6159 17.6426C16.5599 17.9069 16.2435 18.0267 16.0202 17.8677L12.777 15.5614C12.58 15.4213 12.3116 15.4288 12.1231 15.5793L10.3249 17.0151C10.1162 17.1822 9.80167 17.0891 9.72178 16.8372L8.47317 12.9041ZM15.8251 8.47329L9.52061 12.2766C9.27897 12.4227 9.1652 12.7085 9.24327 12.9761L9.92492 15.3221C9.97331 15.4883 10.2197 15.4713 10.2431 15.2995L10.4204 14.013C10.4538 13.7708 10.5718 13.5476 10.7546 13.3809L15.9577 8.6436C16.055 8.5552 15.9384 8.40513 15.8251 8.47329Z" fill="white"/>
</svg>
