<svg width="25" height="24" viewBox="0 0 25 24" fill="none" xmlns="http://www.w3.org/2000/svg">
    <rect x="0.252686" width="24" height="24" fill="black"/>
    <path d="M14.7057 12.5395C14.4421 12.381 14.0974 12.2057 13.7864 12.3338C13.5465 12.4316 13.3944 12.8058 13.2389 12.9946C13.1578 13.0924 13.0632 13.1093 12.9415 13.0587C12.0426 12.7013 11.3565 12.1045 10.8597 11.2785C10.7752 11.1503 10.7921 11.0492 10.8935 10.9312C11.0422 10.7558 11.2315 10.5569 11.272 10.3175C11.3126 10.0815 11.2011 9.80503 11.1031 9.59262C10.978 9.32289 10.8361 8.93851 10.5657 8.78678C10.3156 8.64517 9.9878 8.7261 9.76813 8.90479C9.38624 9.21499 9.20036 9.70388 9.20712 10.186C9.20712 10.3243 9.22402 10.4591 9.25781 10.594C9.33554 10.9109 9.48086 11.211 9.64984 11.4909C9.77489 11.7033 9.91007 11.9123 10.0588 12.1113C10.5387 12.762 11.1369 13.3284 11.8297 13.7499C12.1744 13.9623 12.5461 14.1478 12.9348 14.2725C13.3674 14.4141 13.7526 14.5625 14.219 14.4748C14.7091 14.3838 15.189 14.0803 15.385 13.6117C15.4424 13.4734 15.4695 13.3183 15.439 13.17C15.3647 12.8665 14.9524 12.6844 14.7057 12.5395Z" fill="white"/>
    <path d="M12.3135 5.23299C8.76832 5.23299 5.88554 8.10902 5.88554 11.6459C5.88554 12.7282 6.16267 13.7937 6.69326 14.7445L5.7605 18.2173L9.26173 17.2833C10.2013 17.7925 11.2523 18.0622 12.3169 18.0622C15.862 18.0622 18.7448 15.1862 18.7448 11.6493C18.7414 8.10902 15.8587 5.23299 12.3135 5.23299ZM12.3135 16.8484C11.3807 16.8484 10.4615 16.5955 9.65039 16.1134L9.43071 15.9819L7.47394 16.5045L7.9944 14.5658L7.85921 14.3432C7.35904 13.5273 7.09543 12.5933 7.09543 11.6459C7.09543 8.77661 9.43409 6.44342 12.3101 6.44342C15.1861 6.44342 17.5248 8.77661 17.5248 11.6459C17.5248 14.5152 15.1895 16.8484 12.3135 16.8484Z" fill="white"/>
</svg>
