<svg width="24" height="24" viewBox="0 0 24 24" fill="none" xmlns="http://www.w3.org/2000/svg">
<path fill-rule="evenodd" clip-rule="evenodd" d="M16.9459 5.64331C16.5978 5.64331 16.2613 5.68932 15.9293 5.74582C14.5612 3.29965 11.9485 1.64404 8.94632 1.64404C4.52852 1.64404 0.946777 5.22529 0.946777 9.64309C0.946777 12.6393 2.59689 15.247 5.03556 16.6171C5.17357 15.986 5.48159 15.3845 5.97212 14.8944L6.00062 14.8659C4.1785 13.8354 2.94741 11.8842 2.94741 9.64309C2.94741 6.32986 5.6336 3.64368 8.94682 3.64368C11.7925 3.64368 14.1637 5.63081 14.7797 8.28899C15.4048 7.88397 16.1463 7.64345 16.9464 7.64345C19.1555 7.64345 20.9461 9.43407 20.9461 11.6432C20.9461 13.3648 19.8551 14.8289 18.3285 15.3925C18.7225 15.9655 18.9255 16.6281 18.9395 17.2961C21.2722 16.4736 22.9468 14.2569 22.9468 11.6432C22.9458 8.3295 20.2596 5.64331 16.9459 5.64331Z" fill="#DEDEDE"/>
<path d="M7.38593 16.0606L8.4465 15L9.50708 16.0606C10.0931 16.6466 10.0931 17.5957 9.50708 18.1817C8.92154 18.7678 7.97197 18.7678 7.38593 18.1817C6.80039 17.5957 6.80039 16.6466 7.38593 16.0606Z" fill="#5DB3FB"/>
<path d="M10.8862 20.0598L11.9467 18.9993L13.0068 20.0598C13.5929 20.6459 13.5929 21.5959 13.0068 22.181C12.4213 22.767 11.4717 22.767 10.8862 22.181C10.3001 21.5959 10.3001 20.6459 10.8862 20.0598Z" fill="#5DB3FB"/>
<path d="M14.3859 16.0606L15.4465 15L16.5071 16.0606C17.0926 16.6466 17.0926 17.5957 16.5071 18.1817C15.921 18.7678 14.9714 18.7678 14.3859 18.1817C13.7999 17.5957 13.7999 16.6466 14.3859 16.0606Z" fill="#5DB3FB"/>
</svg>
