<svg width="24" height="24" viewBox="0 0 24 24" fill="none" xmlns="http://www.w3.org/2000/svg">
<g clip-path="url(#clip0)">
<path fill-rule="evenodd" clip-rule="evenodd" d="M17.9472 17.6516V15.4608C19.1409 14.7682 19.9465 13.4801 19.9465 12.0004C19.9465 9.79106 18.1563 7.99982 15.947 7.99982C15.1458 7.99982 14.4047 8.24035 13.7797 8.64541C13.1636 5.98704 10.7928 3.99977 7.94687 3.99977C4.63292 3.99977 1.94705 6.68614 1.94705 10.0001C1.94705 11.7748 2.72165 13.3651 3.94632 14.4637V16.921C1.5575 15.5368 -0.0532227 12.9595 -0.0532227 10.0001C-0.0532227 5.58149 3.52826 2 7.94687 2C10.9493 2 13.5621 3.65623 14.9303 6.10206C15.2624 6.04555 15.5984 5.99955 15.947 5.99955C19.2609 5.99955 21.9468 8.68641 21.9468 12.0004C21.9468 14.6112 20.276 16.8275 17.9472 17.6516Z" fill="#DEDEDE"/>
<path d="M7.94705 13.0011C7.94705 12.4485 7.49899 12.001 6.94691 12.001C6.39434 12.001 5.94678 12.448 5.94678 13.0011V15.0004C5.94678 15.553 6.39434 16.0005 6.94691 16.0005C7.49899 16.0005 7.94705 15.553 7.94705 15.0004V13.0011Z" fill="#5DB3FB"/>
<path d="M7.94705 19.0009C7.94705 18.4484 7.49899 18.0008 6.94691 18.0008C6.39434 18.0008 5.94678 18.4479 5.94678 19.0009V21.0002C5.94678 21.5528 6.39434 22.0003 6.94691 22.0003C7.49899 22.0003 7.94705 21.5528 7.94705 21.0002V19.0009Z" fill="#5DB3FB"/>
<path d="M11.9466 15.0004C11.9466 14.4483 11.499 14.0002 10.9465 14.0002C10.3949 14.0002 9.94732 14.4483 9.94732 15.0004V17.0007C9.94732 17.5527 10.3944 18.0008 10.9465 18.0008C11.499 18.0008 11.9466 17.5527 11.9466 17.0007V15.0004Z" fill="#5DB3FB"/>
<path d="M11.9466 21.0002C11.9466 20.4486 11.499 20.0011 10.9465 20.0011C10.3949 20.0011 9.94732 20.4481 9.94732 21.0002V23.0005C9.94732 23.5531 10.3944 24.0006 10.9465 24.0006C11.499 24.0006 11.9466 23.5531 11.9466 23.0005V21.0002Z" fill="#5DB3FB"/>
<path d="M15.9471 13.0011C15.9471 12.4485 15.4991 12.001 14.947 12.001C14.3944 12.001 13.9469 12.448 13.9469 13.0011V15.0004C13.9469 15.553 14.3944 16.0005 14.947 16.0005C15.4991 16.0005 15.9471 15.553 15.9471 15.0004V13.0011Z" fill="#5DB3FB"/>
<path d="M15.9471 19.0009C15.9471 18.4484 15.4991 18.0008 14.947 18.0008C14.3944 18.0008 13.9469 18.4479 13.9469 19.0009V21.0002C13.9469 21.5528 14.3944 22.0003 14.947 22.0003C15.4991 22.0003 15.9471 21.5528 15.9471 21.0002V19.0009Z" fill="#5DB3FB"/>
</g>
<defs>
<clipPath id="clip0">
<rect width="24" height="24" fill="white"/>
</clipPath>
</defs>
</svg>
