<svg width="25" height="24" viewBox="0 0 25 24" fill="none" xmlns="http://www.w3.org/2000/svg">
    <rect x="0.252686" width="24" height="24" fill="black"/>
    <path fill-rule="evenodd" clip-rule="evenodd" d="M17.3691 16.8482C18.095 16.7435 18.6826 16.1855 18.8209 15.453C18.9592 14.6508 19.0975 13.4649 19.132 12C19.132 10.5351 18.9592 9.34919 18.8209 8.54697C18.6826 7.81451 18.095 7.25645 17.3691 7.15181C16.1938 6.97742 14.3271 6.76814 12.1839 6.76814C10.0407 6.76814 8.13943 6.97742 6.99869 7.15181C6.27276 7.25645 5.68511 7.81451 5.54684 8.54697C5.40857 9.34919 5.27029 10.5351 5.27029 12C5.27029 13.4649 5.40857 14.6508 5.54684 15.453C5.68511 16.1855 6.27276 16.7435 6.99869 16.8482C8.174 17.0226 10.0752 17.2318 12.1839 17.2318C14.3271 17.2318 16.2283 17.0226 17.3691 16.8482ZM14.9623 11.9388L10.6605 9.49724V14.3803L14.9623 11.9388Z" fill="white"/>
</svg>
