<svg width="60" height="60" viewBox="0 0 60 60" fill="none" xmlns="http://www.w3.org/2000/svg">
<g clip-path="url(#clip0_446_212)">
<path fill-rule="evenodd" clip-rule="evenodd" d="M7.13797 22.0015H2.86598C1.28397 22.0015 0.00195312 20.7195 0.00195312 19.1375V2.86547C0.00195312 1.28347 1.28397 0.00146484 2.86598 0.00146484H29.138C30.7201 0.00146484 32.0021 1.28347 32.0021 2.86547V16.0015H40.0021V16.0275C50.0251 16.5485 58.0022 24.8506 58.0022 35.0016C58.0022 45.1526 50.0251 53.4547 40.0021 53.9757V54.0017H20.002L19.986 53.9747C9.971 53.4467 2.00196 45.1476 2.00196 35.0016C2.00196 29.9816 3.95295 25.4066 7.13797 22.0015ZM28.052 22.0015C24.354 25.1206 22.002 29.7886 22.002 35.0016C22.002 44.3846 29.6191 52.0017 39.0021 52.0017C48.3851 52.0017 56.0022 44.3846 56.0022 35.0016C56.0022 25.6186 48.3851 18.0015 39.0021 18.0015C36.4971 18.0015 34.1181 18.5445 31.977 19.5185C31.79 20.9205 30.5911 22.0015 29.138 22.0015H28.052ZM22.031 22.0015H25.151C21.958 25.4016 20.002 29.9746 20.002 35.0016C20.002 42.2336 24.052 48.5286 30.0051 51.7376C22.05 50.3206 16.002 43.3616 16.002 35.0016C16.002 29.7986 18.344 25.1296 22.031 22.0015ZM10.031 22.0015H13.137C9.953 25.4066 8.00198 29.9816 8.00198 35.0016C8.00198 42.2346 12.052 48.5286 18.005 51.7376C10.05 50.3206 4.00197 43.3616 4.00197 35.0016C4.00197 29.7986 6.34397 25.1296 10.031 22.0015ZM16.031 22.0015H19.137C15.953 25.4066 14.002 29.9816 14.002 35.0016C14.002 42.2346 18.052 48.5286 24.005 51.7376C16.05 50.3206 10.002 43.3616 10.002 35.0016C10.002 29.7986 12.344 25.1296 16.031 22.0015ZM38.0021 26.0016H37.0021C35.6761 26.0016 34.4041 26.5286 33.4661 27.4656C32.5291 28.4036 32.0021 29.6756 32.0021 31.0016C32.0021 31.0016 32.0021 31.5536 32.0021 31.0016C32.0021 32.3276 32.5291 33.5996 33.4661 34.5376C34.4041 35.4746 35.6761 36.0016 37.0021 36.0016C38.2901 36.0016 39.7161 36.0016 41.0041 36.0016C42.6601 36.0016 44.0021 37.3436 44.0021 38.9996V39.0016C44.0021 39.7976 43.6861 40.5606 43.1231 41.1226C42.5611 41.6856 41.7981 42.0016 41.0021 42.0016H37.0021C36.2061 42.0016 35.4431 41.6856 34.8811 41.1226C34.3181 40.5606 34.0021 39.7976 34.0021 39.0016C34.0021 37.6446 32.0021 37.6446 32.0021 39.0016C32.0021 40.3276 32.5291 41.5996 33.4661 42.5376C34.4041 43.4746 35.6761 44.0016 37.0021 44.0016H38.0021V47.0016C38.0021 47.5536 38.4501 48.0016 39.0021 48.0016C39.5541 48.0016 40.0021 47.5536 40.0021 47.0016V44.0016H41.0021C42.3281 44.0016 43.6001 43.4746 44.5381 42.5376C45.4751 41.5996 46.0021 40.3276 46.0021 39.0016V38.9996C46.0021 36.2396 43.7641 34.0016 41.0041 34.0016H37.0021C36.2061 34.0016 35.4431 33.6856 34.8811 33.1226C34.3181 32.5606 34.0021 31.7976 34.0021 31.0016C34.0021 31.5536 34.0021 31.0016 34.0021 31.0016C34.0021 30.2056 34.3181 29.4426 34.8811 28.8806C35.4431 28.3176 36.2061 28.0016 37.0021 28.0016H41.0021C41.7981 28.0016 42.5611 28.3176 43.1231 28.8806C43.6861 29.4426 44.0021 30.2056 44.0021 31.0016L44.0041 31.0626C44.0191 31.3876 44.1581 31.5996 44.3271 31.7386C44.5051 31.9016 44.7421 32.0016 45.0021 32.0016C45.0021 32.0016 46.0021 31.9446 46.0021 31.0016C46.0021 29.6756 45.4751 28.4036 44.5381 27.4656C43.6001 26.5286 42.3281 26.0016 41.0021 26.0016H40.0021V23.0016C40.0021 22.4495 39.5541 22.0015 39.0021 22.0015C38.4501 22.0015 38.0021 22.4495 38.0021 23.0016V26.0016ZM30.0021 2.86547V19.1375C30.0021 19.6145 29.615 20.0015 29.138 20.0015H2.86598C2.38898 20.0015 2.00196 19.6145 2.00196 19.1375V2.86547C2.00196 2.38847 2.38898 2.00147 2.86598 2.00147H29.138C29.615 2.00147 30.0021 2.38847 30.0021 2.86547ZM24.774 11.7735C22.992 11.7735 21.546 13.2195 21.546 15.0015C21.546 16.7835 22.992 18.2295 24.774 18.2295C26.555 18.2295 28.0021 16.7835 28.0021 15.0015C28.0021 13.2195 26.555 11.7735 24.774 11.7735ZM15.542 17.5985L25.542 5.60248C25.895 5.17848 25.838 4.54748 25.414 4.19348C24.99 3.84048 24.3591 3.89749 24.0061 4.32149L14.006 16.3175C13.652 16.7415 13.71 17.3725 14.133 17.7265C14.557 18.0795 15.188 18.0225 15.542 17.5985ZM24.774 13.7735C25.452 13.7735 26.002 14.3235 26.002 15.0015C26.002 15.6795 25.452 16.2295 24.774 16.2295C24.096 16.2295 23.546 15.6795 23.546 15.0015C23.546 14.3235 24.096 13.7735 24.774 13.7735ZM6.00198 10.0015H5.00197C4.44997 10.0015 4.00197 10.4495 4.00197 11.0015C4.00197 11.5535 4.44997 12.0015 5.00197 12.0015H6.00198V13.0015C6.00198 13.5535 6.44998 14.0015 7.00198 14.0015C7.55398 14.0015 8.00198 13.5535 8.00198 13.0015V12.0015H9.00199C9.55399 12.0015 10.002 11.5535 10.002 11.0015C10.002 10.4495 9.55399 10.0015 9.00199 10.0015H8.00198V9.0015C8.00198 8.4495 7.55398 8.00149 7.00198 8.00149C6.44998 8.00149 6.00198 8.4495 6.00198 9.0015V10.0015ZM14.774 3.77348C12.992 3.77348 11.546 5.21948 11.546 7.00149C11.546 8.7835 12.992 10.2295 14.774 10.2295C16.555 10.2295 18.002 8.7835 18.002 7.00149C18.002 5.21948 16.555 3.77348 14.774 3.77348ZM14.774 5.77349C15.452 5.77349 16.002 6.32349 16.002 7.00149C16.002 7.67949 15.452 8.22949 14.774 8.22949C14.096 8.22949 13.546 7.67949 13.546 7.00149C13.546 6.32349 14.096 5.77349 14.774 5.77349Z" fill="url(#paint0_linear_446_212)"/>
</g>
<defs>
<linearGradient id="paint0_linear_446_212" x1="-200.999" y1="133.002" x2="-186.999" y2="164.002" gradientUnits="userSpaceOnUse">
<stop stop-color="#0099FA"/>
<stop offset="1" stop-color="#0054FA"/>
</linearGradient>
<clipPath id="clip0_446_212">
<rect width="60" height="60" fill="white"/>
</clipPath>
</defs>
</svg>
