<svg width="60" height="60" viewBox="0 0 60 60" fill="none" xmlns="http://www.w3.org/2000/svg">
<path fill-rule="evenodd" clip-rule="evenodd" d="M16.0013 38.0001H14.3683C13.0613 38.0001 12.0013 39.0601 12.0013 40.3681V45.6322C12.0013 46.9402 13.0613 48.0002 14.3683 48.0002H16.0013V57.0002C16.0013 57.5522 16.4493 58.0002 17.0013 58.0002C17.5533 58.0002 18.0013 57.5522 18.0013 57.0002V48.0002H19.6333C20.9413 48.0002 22.0013 46.9402 22.0013 45.6322V40.3681C22.0013 39.0601 20.9413 38.0001 19.6333 38.0001H18.0013V27.0001C18.0013 26.4481 17.5533 26.0001 17.0013 26.0001C16.4493 26.0001 16.0013 26.4481 16.0013 27.0001V38.0001ZM52.0014 16.0001H50.3684C49.0614 16.0001 48.0014 17.0601 48.0014 18.3681V43.6322C48.0014 44.9402 49.0614 46.0002 50.3684 46.0002H52.0014V55.0002C52.0014 55.5522 52.4494 56.0002 53.0014 56.0002C53.5534 56.0002 54.0014 55.5522 54.0014 55.0002V46.0002H55.6334C56.9414 46.0002 58.0014 44.9402 58.0014 43.6322V18.3681C58.0014 17.0601 56.9414 16.0001 55.6334 16.0001H54.0014V7.00002C54.0014 6.44802 53.5534 6.00001 53.0014 6.00001C52.4494 6.00001 52.0014 6.44802 52.0014 7.00002V16.0001ZM4.00124 28.0001H2.36823C1.06122 28.0001 0.0012207 29.0601 0.0012207 30.3681C0.0012207 34.3131 0.0012207 45.6872 0.0012207 49.6322C0.0012207 50.9402 1.06122 52.0002 2.36823 52.0002H4.00124V55.0002C4.00124 55.5522 4.44924 56.0002 5.00124 56.0002C5.55324 56.0002 6.00124 55.5522 6.00124 55.0002V52.0002H7.63324C8.94125 52.0002 10.0013 50.9402 10.0013 49.6322V30.3681C10.0013 29.0601 8.94125 28.0001 7.63324 28.0001H6.00124V21.0001C6.00124 20.4481 5.55324 20.0001 5.00124 20.0001C4.44924 20.0001 4.00124 20.4481 4.00124 21.0001V28.0001ZM28.0013 21.5001H26.3683C25.0613 21.5001 24.0013 22.5601 24.0013 23.8681C24.0013 26.9731 24.0013 34.5271 24.0013 37.6321C24.0013 38.9401 25.0613 40.0001 26.3683 40.0001H28.0013V49.0002C28.0013 49.5522 28.4493 50.0002 29.0013 50.0002C29.5533 50.0002 30.0013 49.5522 30.0013 49.0002V40.0001H31.6333C32.9413 40.0001 34.0013 38.9401 34.0013 37.6321C34.0013 34.5271 34.0013 26.9731 34.0013 23.8681C34.0013 22.5601 32.9413 21.5001 31.6333 21.5001H30.0013V19.0001C30.0013 18.4481 29.5533 18.0001 29.0013 18.0001C28.4493 18.0001 28.0013 18.4481 28.0013 19.0001V21.5001ZM8.00125 30.3681V49.6322C8.00125 49.8352 7.83625 50.0002 7.63324 50.0002H2.36823C2.16523 50.0002 2.00123 49.8352 2.00123 49.6322V30.3681C2.00123 30.1651 2.16523 30.0001 2.36823 30.0001H7.63324C7.83625 30.0001 8.00125 30.1651 8.00125 30.3681ZM20.0013 40.3671V45.6322C20.0013 45.8352 19.8363 46.0002 19.6333 46.0002H14.3683C14.1653 46.0002 14.0013 45.8352 14.0013 45.6332C14.0013 45.6322 14.0013 40.3681 14.0013 40.3681C14.0013 40.1651 14.1653 40.0001 14.3683 40.0001H19.6333C19.8363 40.0001 20.0013 40.1651 20.0013 40.3671ZM56.0014 18.3671V43.6322C56.0014 43.8352 55.8364 44.0002 55.6334 44.0002H50.3684C50.1654 44.0002 50.0014 43.8352 50.0014 43.6332C50.0014 43.6322 50.0014 18.3681 50.0014 18.3681C50.0014 18.1651 50.1654 18.0001 50.3684 18.0001H55.6334C55.8364 18.0001 56.0014 18.1651 56.0014 18.3671ZM40.0014 8.00002H38.3684C37.0614 8.00002 36.0013 9.06003 36.0013 10.368C36.0013 13.714 36.0013 22.2861 36.0013 25.6321C36.0013 26.9401 37.0614 28.0001 38.3684 28.0001H40.0014V41.0001C40.0014 41.5521 40.4494 42.0001 41.0014 42.0001C41.5534 42.0001 42.0014 41.5521 42.0014 41.0001V28.0001H43.6334C44.9414 28.0001 46.0014 26.9401 46.0014 25.6321C46.0014 22.2861 46.0014 13.714 46.0014 10.368C46.0014 9.06003 44.9414 8.00002 43.6334 8.00002H42.0014V3C42.0014 2.448 41.5534 2 41.0014 2C40.4494 2 40.0014 2.448 40.0014 3V8.00002ZM32.0013 23.8681C32.0013 26.9731 32.0013 34.5271 32.0013 37.6321C32.0013 37.8351 31.8363 38.0001 31.6333 38.0001H26.3683C26.1653 38.0001 26.0013 37.8351 26.0013 37.6321C26.0013 34.5271 26.0013 26.9731 26.0013 23.8681C26.0013 23.6651 26.1653 23.5001 26.3683 23.5001H31.6333C31.8363 23.5001 32.0013 23.6651 32.0013 23.8681ZM44.0014 10.368C44.0014 13.714 44.0014 22.2861 44.0014 25.6321C44.0014 25.8351 43.8364 26.0001 43.6334 26.0001H38.3684C38.1654 26.0001 38.0014 25.8351 38.0014 25.6321C38.0014 22.2861 38.0014 13.714 38.0014 10.368C38.0014 10.165 38.1654 10 38.3684 10H43.6334C43.8364 10 44.0014 10.165 44.0014 10.368Z" fill="url(#paint0_linear_377_95)"/>
<defs>
<linearGradient id="paint0_linear_377_95" x1="14.0013" y1="26.0001" x2="55.0014" y2="48.0002" gradientUnits="userSpaceOnUse">
<stop stop-color="#0099FA"/>
<stop offset="1" stop-color="#0053FA"/>
</linearGradient>
</defs>
</svg>
