<svg xmlns="http://www.w3.org/2000/svg" width="99" height="79" fill="none"><path d="M.622 78.764l7.783-6.863v6.863H.622z" fill="#206a23"/><path d="M.622 78.765V45.531L59.535.636h39.276L.622 78.765z" fill="#33ab38"/><path d="M11.07 51.129l3.898 5.814-1.261 1.001-3.163-4.718-2.476 1.964 3.163 4.718-1.261 1.001-3.898-5.814 4.999-3.965zm7.942 2.76c-.569.452-1.171.729-1.805.834a3.15 3.15 0 0 1-1.792-.22c-.564-.256-1.037-.67-1.42-1.24s-.598-1.184-.646-1.841c-.047-.667.069-1.31.349-1.931a4.35 4.35 0 0 1 1.282-1.614c.569-.452 1.168-.727 1.797-.828a3.13 3.13 0 0 1 1.797.228c.566.247 1.04.656 1.422 1.226s.597 1.189.644 1.856a3.98 3.98 0 0 1-.355 1.923c-.28.621-.704 1.157-1.274 1.608zm-.769-1.146c.324-.257.564-.566.722-.928.153-.368.209-.751.166-1.149-.038-.403-.177-.784-.419-1.144s-.532-.621-.873-.783c-.336-.166-.686-.224-1.051-.172-.369.047-.715.198-1.039.455s-.562.569-.716.937c-.157.362-.217.745-.179 1.147.043.398.185.777.427 1.137s.53.623.865.789a1.88 1.88 0 0 0 1.064.174c.365-.052.71-.207 1.033-.463zm5.781-11.888l3.898 5.814-1.261 1-3.163-4.718-2.476 1.964 3.163 4.718-1.261 1-3.898-5.814 4.999-3.965zm6.311-5.006l.751 6.453c.072.621.025 1.172-.141 1.651-.161.476-.427.861-.798 1.155-.287.228-.63.398-1.027.509l-.38-1.264c.268-.102.475-.211.621-.327.157-.124.272-.275.345-.452.07-.182.099-.401.088-.655l.003-.104-5.025-2.554 1.355-1.075 3.551 1.967-.59-4.316 1.246-.988zm5.4-4.283l3.898 5.814-1.254.994-3.163-4.718-1.88 1.491.774 1.244c.527.846.914 1.566 1.16 2.159.242.588.339 1.114.289 1.577-.048.454-.281.846-.699 1.178-.172.137-.402.272-.688.406l-.685-1.2c.083-.032.166-.081.249-.147.303-.24.388-.596.256-1.068-.136-.477-.459-1.133-.97-1.966L31.52 34.91l4.215-3.343zm5.749-4.56l3.898 5.814-1.254.994-1.036-1.545-1.16.92.064 2.315-1.34 1.063-.031-2.66c-.479.134-.925.118-1.338-.045-.418-.169-.779-.481-1.083-.935-.301-.448-.462-.91-.484-1.384-.026-.48.081-.947.321-1.4.236-.459.595-.879 1.075-1.26l2.366-1.877zm-1.6 2.948c-.36.286-.578.594-.652.925-.069.326.013.664.247 1.013.227.338.492.526.798.563s.636-.084.991-.366l1.113-.882-1.415-2.11-1.081.857zm5.348-5.921c.486-.385.964-.633 1.434-.743.476-.114.916-.09 1.321.072s.752.459 1.042.891c.286.426.44.877.462 1.351.018.469-.095.932-.34 1.39-.244.448-.608.864-1.094 1.25l-1.105.876 1.075 1.603-1.269 1.007-3.898-5.814 2.374-1.883zm2.018 3.171c.381-.302.614-.618.697-.947.08-.335.012-.663-.204-.984-.219-.327-.485-.497-.799-.511-.317-.02-.667.122-1.048.424l-1.034.82 1.353 2.018 1.034-.82zm6.231-9.713l3.898 5.814-1.269 1.007-1.598-2.384-2.491 1.976 1.598 2.384-1.269 1.007-3.898-5.814 1.269-1.007 1.537 2.292 2.491-1.976-1.537-2.292 1.269-1.007zm5.311-1.286c.669-.53 1.286-.778 1.853-.745.572.03 1.066.355 1.482.975.442.659.581 1.32.418 1.984-.162.654-.6 1.265-1.316 1.832l-2.476 1.964-3.898-5.814 1.261-1 1.281 1.91 1.395-1.106zm1.699 3.106c.329-.261.527-.55.595-.866.073-.321 0-.645-.219-.971-.405-.604-.957-.628-1.657-.073l-1.144.907 1.281 1.91 1.144-.907zm-.206-7.216l1.261-1.001 3.898 5.814-1.261 1-3.898-5.814zm2.627-2.084l1.261-1 2.539 3.787.077-5.863 1.191-.945 3.898 5.814-1.254.994-2.534-3.779-.083 5.855-1.199.951-3.898-5.814zm2.28-2.381c-1.003.795-1.794.774-2.372-.065l.87-.69c.282.396.634.426 1.057.091.209-.166.335-.342.378-.529.039-.192-.006-.39-.134-.594l.87-.69c.273.419.357.837.251 1.251s-.412.823-.919 1.225z" fill="#fff"/></svg>