<?xml version="1.0" standalone="no"?>
<!DOCTYPE svg PUBLIC "-//W3C//DTD SVG 20010904//EN"
 "http://www.w3.org/TR/2001/REC-SVG-20010904/DTD/svg10.dtd">
<svg version="1.0" xmlns="http://www.w3.org/2000/svg"
 width="372.000000pt" height="372.000000pt" viewBox="0 0 372.000000 372.000000"
 preserveAspectRatio="xMidYMid meet">
<metadata>
Created by potrace 1.14, written by Peter Selinger 2001-2017
</metadata>
<g transform="translate(0.000000,372.000000) scale(0.100000,-0.100000)"
fill="#000000" stroke="none">
<path d="M1450 3717 c0 -1 9 -34 19 -72 23 -86 58 -259 67 -340 16 -138 2
-345 -33 -480 -8 -33 -17 -67 -19 -75 -16 -69 -130 -330 -153 -350 -8 -6 -29
-41 -38 -60 -8 -17 -133 -202 -142 -210 -23 -20 -217 -315 -263 -400 -39 -72
-105 -221 -112 -255 -2 -5 -8 -28 -14 -50 -6 -22 -14 -53 -16 -70 -3 -16 -8
-41 -11 -55 -21 -98 -25 -344 -6 -420 7 -25 14 -56 17 -69 9 -43 54 -145 93
-211 51 -84 120 -157 200 -209 54 -35 142 -71 173 -71 7 0 5 29 -8 100 -7 38
-6 140 1 185 18 114 74 234 163 349 70 92 76 98 235 260 236 241 333 348 367
402 8 13 18 24 22 24 5 0 8 7 8 15 0 8 4 15 8 15 12 0 127 195 162 275 17 39
35 79 40 90 14 32 47 153 64 235 32 161 37 387 12 516 -17 82 -40 168 -58 214
-26 67 -98 213 -108 220 -4 3 -13 16 -20 30 -36 68 -207 252 -277 296 -15 11
-33 23 -40 29 -29 24 -42 32 -108 67 -91 47 -225 92 -225 75z"/>
<path d="M906 3344 c42 -115 34 -239 -25 -368 -29 -64 -138 -238 -153 -244 -4
-2 -8 -8 -8 -13 0 -5 -11 -26 -25 -47 -78 -117 -110 -294 -77 -422 15 -59 56
-138 95 -183 34 -38 98 -88 107 -82 4 2 10 24 14 47 8 52 52 139 113 227 101
144 191 278 209 311 10 19 24 42 30 50 15 19 64 144 76 190 14 58 18 187 8
243 -11 56 -53 152 -79 178 -9 9 -25 27 -37 40 -56 65 -156 123 -232 135 l-40
6 24 -68z"/>
<path d="M2563 2353 c-3 -43 -45 -225 -67 -293 -50 -158 -119 -307 -197 -424
-21 -32 -39 -62 -39 -66 0 -5 -3 -10 -7 -12 -5 -1 -28 -30 -52 -63 -25 -33
-48 -62 -51 -65 -4 -3 -26 -27 -50 -55 -23 -27 -122 -131 -219 -230 -97 -99
-190 -196 -206 -216 -51 -60 -89 -110 -100 -133 -7 -11 -21 -37 -32 -56 -54
-95 -79 -246 -60 -359 19 -118 134 -284 238 -344 56 -33 73 -34 64 -6 -30 93
26 210 144 299 18 14 38 30 44 35 7 6 80 55 162 110 83 55 193 131 245 169
135 99 293 260 365 374 33 52 60 97 61 100 0 4 10 28 22 54 18 40 30 75 48
143 23 83 33 188 30 310 -2 77 -7 150 -10 163 -3 12 -8 31 -10 41 -28 123 -85
257 -156 362 -41 59 -147 179 -159 179 -4 0 -7 -8 -8 -17z"/>
</g>
</svg>
