<?xml version="1.0" standalone="no"?>
<!DOCTYPE svg PUBLIC "-//W3C//DTD SVG 1.1//EN" "http://www.w3.org/Graphics/SVG/1.1/DTD/svg11.dtd" >
<svg xmlns="http://www.w3.org/2000/svg" xmlns:xlink="http://www.w3.org/1999/xlink" version="1.1">
<metadata></metadata>
<defs>
<font id="sofia_probold" horiz-adv-x="1163" >
<font-face units-per-em="2048" ascent="1536" descent="-512" />
<missing-glyph horiz-adv-x="499" />
<glyph unicode="&#xfb01;" horiz-adv-x="1423" d="M47 731v225h180v66q0 219 113 337t319 118h105v-273h-105q-145 0 -145 -182v-66h778v-956h-282v731h-496v-731h-287v731h-180zM973 1310.5q0 69.5 52 118t126 48.5q72 0 123 -48.5t51 -118t-51 -118.5t-123 -49q-74 0 -126 49t-52 118.5z" />
<glyph unicode="&#xfb02;" horiz-adv-x="1388" d="M47 731v225h180v66q0 219 112.5 337t319.5 118h598v-1477h-284v1204h-314q-145 0 -145 -182v-66h193v-225h-193v-731h-287v731h-180z" />
<glyph horiz-adv-x="0" />
<glyph unicode="&#xd;" horiz-adv-x="681" />
<glyph unicode=" "  horiz-adv-x="499" />
<glyph unicode="&#x09;" horiz-adv-x="499" />
<glyph unicode="&#xa0;" horiz-adv-x="499" />
<glyph unicode="!" horiz-adv-x="579" d="M113 151.5q0 73.5 51 122t124.5 48.5t126 -49.5t52.5 -120.5q0 -74 -52.5 -123t-126 -49t-124.5 49t-51 122.5zM133 1411h316l-41 -985h-234z" />
<glyph unicode="&#x22;" horiz-adv-x="747" d="M129 1411h201l-23 -608h-155zM418 1411h200l-22 -608h-156z" />
<glyph unicode="#" horiz-adv-x="1480" d="M72 334l53 188h231l105 344h-230l54 189h231l107 356h227l-107 -356h207l109 356h225l-108 -356h235l-53 -189h-236l-106 -344h235l-55 -188h-233l-109 -334h-223l104 334h-209l-106 -334h-221l106 334h-233zM582 522h206l107 344h-209z" />
<glyph unicode="$" horiz-adv-x="1177" d="M82 414h301q4 -72 59.5 -121t151.5 -49q92 0 148.5 41t58.5 108q2 53 -34 92t-136 68l-170 47q-365 113 -365 406q0 170 119 284.5t303 132.5v219h150v-221q174 -25 282.5 -137.5t108.5 -288.5h-299q0 72 -47 116t-135 44q-80 0 -131.5 -40t-51.5 -101q0 -100 152 -144 l168 -53q397 -115 387 -426q-2 -180 -127 -285.5t-307 -123.5v-236h-150v236q-199 20 -317.5 138t-118.5 294z" />
<glyph unicode="%" horiz-adv-x="1417" d="M74 1081.5q0 114.5 78.5 194.5t193.5 80q113 0 194 -80t81 -194.5t-80 -193.5t-195 -79t-193.5 79t-78.5 193.5zM240 1081q0 -45 29.5 -75.5t76.5 -30.5q45 0 77 30.5t32 75.5t-32 77t-77 32t-75.5 -32t-30.5 -77zM303 0h141l660 1341h-141zM799 252q0 115 78.5 194.5 t193.5 79.5q113 0 194 -80.5t81 -193.5q0 -115 -80 -193.5t-195 -78.5t-193.5 78.5t-78.5 193.5zM965 252q0 -47 29.5 -77t76.5 -30q45 0 77 31t32 76t-32 76.5t-77 31.5t-75.5 -31.5t-30.5 -76.5z" />
<glyph unicode="&#x26;" horiz-adv-x="1421" d="M104 391q0 276 234 361q-78 25 -128 100.5t-50 179.5q0 154 116.5 270.5t294.5 124.5q254 12 404 -182l-242 -147q-53 53 -115 53q-72 0 -108.5 -43t-36.5 -96q0 -8 1 -19.5t10.5 -39t24.5 -48t49 -37t79 -16.5h233v160h265v-160h163v-229h-163v-209q0 -119 34.5 -153 t155.5 -34v-247q-184 2 -273 34.5t-124 141.5q-37 -80 -140.5 -128t-201.5 -48q-207 0 -344.5 115.5t-137.5 295.5zM416 414q33 -156 213 -156q82 0 161.5 60.5t79.5 191.5v113h-241q-70 0 -118 -24t-67.5 -59.5t-26.5 -67.5t-1 -58z" />
<glyph unicode="'" horiz-adv-x="458" d="M129 1411h201l-23 -608h-155z" />
<glyph unicode="(" horiz-adv-x="794" d="M80 467q0 414 185.5 687t463.5 273v-223q-100 0 -195.5 -104.5t-155 -276.5t-59.5 -356q0 -279 128 -501t282 -222v-221q-279 0 -464 265t-185 679z" />
<glyph unicode=")" horiz-adv-x="794" d="M66 -256q154 0 281.5 222t127.5 501q0 184 -59.5 356t-154.5 276.5t-195 104.5v223q279 0 464 -273t185 -687t-185.5 -679t-463.5 -265v221z" />
<glyph unicode="*" horiz-adv-x="974" d="M90 1087l64 191l247 -98l-16 268h205l-19 -266l252 96l60 -191l-256 -69l170 -213l-160 -113l-145 221l-156 -225l-156 119l168 207z" />
<glyph unicode="+" horiz-adv-x="1042" d="M100 430v209h316v315h209v-315h317v-209h-317v-317h-209v317h-316z" />
<glyph unicode="," horiz-adv-x="579" d="M2 -207q72 98 117 241.5t43 289.5h289q-2 -213 -83.5 -364.5t-181.5 -235.5z" />
<glyph unicode="-" horiz-adv-x="972" d="M125 391v225h723v-225h-723z" />
<glyph unicode="." horiz-adv-x="571" d="M109 151.5q0 73.5 51 122t124.5 48.5t126 -49.5t52.5 -120.5q0 -74 -52.5 -123t-126 -49t-124.5 49t-51 122.5z" />
<glyph unicode="/" horiz-adv-x="1024" d="M59 0l678 1411h228l-678 -1411h-228z" />
<glyph unicode="0" horiz-adv-x="1236" d="M119 672q0 696 502 696q141 0 241.5 -53t154.5 -151.5t77.5 -218.5t23.5 -273.5t-23.5 -271t-77.5 -216t-154.5 -151.5t-241.5 -53q-502 0 -502 692zM406 672q0 -414 215 -414q211 0 210 414q0 418 -210 418q-215 0 -215 -418z" />
<glyph unicode="1" horiz-adv-x="772" d="M80 862v252l516 246v-1360h-287v961z" />
<glyph unicode="2" horiz-adv-x="1122" d="M104 0v156l551 653q72 82 72 152q0 55 -45 94t-123 39q-76 0 -127 -52.5t-63 -134.5l-263 45q31 193 156 304.5t313 111.5q182 0 310.5 -114.5t128.5 -292.5q0 -180 -142 -340l-309 -351h414v-270h-873z" />
<glyph unicode="3" horiz-adv-x="1130" d="M68 264l251 125q23 -47 82.5 -87t116.5 -42q74 -4 130.5 42t62.5 101q6 10 1 40t-15.5 62t-54.5 55.5t-114 21.5h-141v245h141q131 0 131 146q0 41 -33.5 85t-101.5 44q-96 0 -141 -74l-231 141q61 96 172.5 151.5t244.5 47.5q172 -8 287 -119.5t111 -257.5 q0 -80 -47.5 -149.5t-124.5 -112.5q109 -39 174 -146.5t55 -217.5q-16 -172 -172 -284t-356 -97q-139 8 -256 85.5t-172 194.5z" />
<glyph unicode="4" horiz-adv-x="1232" d="M39 301l627 1040h303v-798h170v-242h-170v-301h-289v301h-641zM430 543h250v418z" />
<glyph unicode="5" horiz-adv-x="1212" d="M88 250l242 156q39 -61 104.5 -100.5t128.5 -39.5q115 0 190.5 61.5t75.5 145.5q0 109 -68.5 164t-178.5 55q-78 0 -161 -33.5t-134 -113.5l-158 82l111 714h786v-262h-559l-35 -217q78 70 246 70q188 0 313 -121t125 -338t-151.5 -355t-401.5 -138q-139 0 -268 74.5 t-207 195.5z" />
<glyph unicode="6" horiz-adv-x="1200" d="M117 659q6 109 20.5 213.5t56.5 196.5t100 159.5t154.5 105.5t217.5 34q137 -6 241.5 -62.5t171.5 -197.5l-268 -115q-51 106 -156 107q-92 0 -151.5 -61.5t-78.5 -144.5t-15 -181q16 49 87.5 100t182.5 51q160 0 286 -118.5t126 -333.5q0 -195 -134.5 -313.5 t-353.5 -118.5q-193 0 -328 128t-153 338q-12 104 -6 213zM442 428q0 -72 52.5 -124t124 -52t124 52t52.5 124t-52.5 124t-124 52t-124 -52t-52.5 -124z" />
<glyph unicode="7" horiz-adv-x="1126" d="M88 1077v264h1012l-592 -1341h-326l473 1077h-567z" />
<glyph unicode="8" horiz-adv-x="1220" d="M100 430q0 109 51.5 198t141.5 140q-96 92 -96 225q0 156 121.5 265.5t291.5 109.5t293 -109.5t123 -265.5q0 -137 -98 -225q88 -51 140 -140t52 -198q0 -190 -148.5 -320t-361.5 -130t-361.5 130t-148.5 320zM387 444q0 -84 66.5 -141t156.5 -57t157 57t67 141 q0 82 -59.5 141.5t-166.5 59.5q-104 0 -162.5 -59.5t-58.5 -141.5zM473 985q0 -55 36 -92t101.5 -37t101.5 37t36 92q0 51 -37 88t-100.5 37t-100.5 -37t-37 -88z" />
<glyph unicode="9" horiz-adv-x="1198" d="M106 936q0 195 134.5 313.5t353.5 118.5q193 0 328 -128t153 -339q12 -104 6 -212.5t-20 -213t-56 -197t-100.5 -160t-155 -105.5t-217.5 -33q-137 6 -241.5 62t-171.5 198l268 114q51 -106 156 -106q92 0 151.5 61.5t79 144.5t14.5 181q-53 -152 -270 -152 q-160 0 -286 119t-126 334zM403 919.5q0 -71.5 52.5 -124t124 -52.5t124 52.5t52.5 124t-52.5 124t-124 52.5t-124 -52.5t-52.5 -124z" />
<glyph unicode=":" horiz-adv-x="630" d="M139 151.5q0 73.5 51.5 122t125 48.5t125 -48.5t51.5 -122t-51.5 -122.5t-125 -49t-125 49t-51.5 122.5zM139 805q0 74 51.5 123t125 49t125 -49t51.5 -123t-51.5 -122t-125 -48t-125 48t-51.5 122z" />
<glyph unicode=";" horiz-adv-x="626" d="M20 -207q72 98 117 241.5t43 289.5h289q-2 -213 -83 -364.5t-181 -235.5zM156 805q0 74 51 123t125 49t125 -49t51 -123t-51 -122t-125 -48t-125 48t-51 122z" />
<glyph unicode="&#x3c;" horiz-adv-x="1277" d="M94 500v229l1028 393l2 -225l-741 -283l741 -282l-2 -226z" />
<glyph unicode="=" horiz-adv-x="1220" d="M139 305v201h942v-201h-942zM139 717v201h942v-201h-942z" />
<glyph unicode="&#x3e;" horiz-adv-x="1277" d="M154 332l741 282l-741 283l2 225l1028 -393v-229l-1028 -394z" />
<glyph unicode="?" horiz-adv-x="1015" d="M78 999q0 195 118.5 311.5t313.5 116.5t313.5 -108.5t118.5 -290.5q0 -145 -75.5 -246.5t-198.5 -140.5q-61 -18 -84 -56t-23 -114l-4 -45h-278l-5 45q0 80 2.5 120t13.5 91t34.5 80t65.5 60.5t108 60.5l82 35q49 27 62 50t13 62q0 47 -41 79t-104 32q-66 0 -105.5 -39 t-39.5 -103h-287zM246 151.5q0 73.5 51 122t125 48.5t126 -49.5t52 -120.5q0 -74 -52 -123t-126 -49t-125 49t-51 122.5z" />
<glyph unicode="@" horiz-adv-x="1974" d="M92 526.5q0 374.5 257 637.5t628 263q248 0 459 -111.5t338 -311t127 -441.5q0 -98 -21.5 -197.5t-66 -192.5t-125 -151.5t-187.5 -58.5q-131 0 -219 76t-88 240v258q0 100 -69.5 169.5t-168 69.5t-168 -69.5t-69.5 -169.5q0 -96 70.5 -166t166.5 -70q90 0 162 51v-192 q-90 -39 -162 -39q-174 0 -296.5 120.5t-122.5 295.5q0 176 122.5 297.5t296.5 121.5q170 0 291 -114q125 -113 131 -285v-291q0 -66 36 -94.5t87 -28.5q63 0 108.5 42t67 111t30.5 134.5t9 132.5q0 291 -217 486.5t-522 195.5q-295 0 -499 -210t-204 -509 q0 -297 204 -502.5t499 -205.5h67v-183h-67q-373 0 -629 258.5t-256 633z" />
<glyph unicode="A" horiz-adv-x="1349" d="M-12 0l524 1411h326l522 -1411h-316l-124 334h-488l-125 -334h-319zM530 594h293l-149 491z" />
<glyph unicode="B" horiz-adv-x="1304" d="M166 0v1411h565q190 0 304 -106.5t114 -286.5q0 -80 -46 -152.5t-147 -111.5q129 -33 198 -128.5t69 -193.5q0 -182 -123 -307t-328 -125h-606zM467 264h289q72 0 111.5 52.5t39.5 121.5q0 66 -41.5 117t-115.5 51h-283v-342zM467 854h235q57 0 94.5 41t37.5 104 q0 68 -34 108t-100 40h-233v-293z" />
<glyph unicode="C" horiz-adv-x="1431" d="M84 702q0 303 204 514t505 211q184 0 338.5 -80.5t248.5 -218.5l-243 -167q-127 184 -344 184q-174 0 -291 -128t-117 -315q0 -184 116.5 -312t291.5 -128q109 0 201 53.5t151 141.5l241 -168q-94 -143 -249.5 -226t-343.5 -83q-301 0 -505 210.5t-204 511.5z" />
<glyph unicode="D" horiz-adv-x="1447" d="M166 0v1411h553q297 0 467 -199.5t170 -509t-170 -506t-467 -196.5h-553zM465 272h254q162 0 250 123t88 307q0 186 -88 311.5t-250 125.5h-254v-867z" />
<glyph unicode="E" horiz-adv-x="1179" d="M166 0v1411h893v-264h-594v-322h520v-260h-520v-301h612v-264h-911z" />
<glyph unicode="F" horiz-adv-x="1101" d="M166 0v1411h883v-264h-582v-322h461v-262h-461v-563h-301z" />
<glyph unicode="G" horiz-adv-x="1548" d="M84 702q0 301 210 513t513 212q160 0 298 -61t232 -170l-221 -190q-127 143 -309 143q-178 0 -300 -131t-122 -315.5t123 -316.5t299 -132q123 0 231.5 68.5t110.5 175.5h-379v243h725q0 -383 -185.5 -572t-502.5 -189q-303 0 -513 211.5t-210 510.5z" />
<glyph unicode="H" horiz-adv-x="1435" d="M166 0v1411h299v-575h502v575h303v-1411h-303v567h-502v-567h-299z" />
<glyph unicode="I" horiz-adv-x="630" d="M166 0v1411h299v-1411h-299z" />
<glyph unicode="J" horiz-adv-x="632" d="M-203 -449l27 271q66 -23 180 -23q82 0 122 54.5t40 140.5v1417h301v-1417q0 -211 -112.5 -344t-350.5 -133h-4q-64 0 -203 34z" />
<glyph unicode="K" horiz-adv-x="1247" d="M166 0v1411h303v-463l334 463h352l-534 -698l661 -713h-389l-424 479v-479h-303z" />
<glyph unicode="L" horiz-adv-x="1046" d="M166 0v1411h301v-1147h528v-264h-829z" />
<glyph unicode="M" horiz-adv-x="1869" d="M88 0l174 1411h248l426 -909l422 909h252l172 -1411h-301l-99 846l-329 -684h-232l-332 684l-100 -846h-301z" />
<glyph unicode="N" horiz-adv-x="1390" d="M166 0v1411h274l484 -844v844h301v-1411h-269l-491 854v-854h-299z" />
<glyph unicode="O" horiz-adv-x="1599" d="M84 702q0 301 208 513t507 212q301 0 509 -211.5t208 -513.5q0 -299 -209 -510.5t-508 -211.5t-507 211.5t-208 510.5zM383 702.5q0 -178.5 121 -302.5t295 -124t296 125t122 301q0 178 -122 303t-296 125t-295 -124.5t-121 -303z" />
<glyph unicode="P" horiz-adv-x="1257" d="M166 0v1411h579q227 0 346 -136t119 -326.5t-118.5 -326t-346.5 -135.5h-278v-487h-301zM467 750h264q82 0 130 61t48 137q0 74 -46 136.5t-124 62.5h-272v-397z" />
<glyph unicode="Q" horiz-adv-x="1613" d="M84 702q0 301 210 513t513 212q305 0 515 -210.5t210 -514.5q0 -178 -83 -333.5t-224 -257.5l135 -226l-211 -127l-152 246q-88 -24 -182 -24h-8q-303 0 -513 211.5t-210 510.5zM385 702q0 -156 93 -273.5t239 -147.5q47 -12 121 -13l-113 189l211 125l135 -220 q160 127 160 340q0 184 -124 313.5t-300 129.5q-178 0 -300 -129t-122 -314z" />
<glyph unicode="R" horiz-adv-x="1304" d="M166 0v1411h577q225 0 347 -136t122 -327q0 -162 -90 -286.5t-262 -161.5l350 -500h-360l-315 487h-68v-487h-301zM467 750h254q82 0 130 61t48 137q0 74 -46 136.5t-124 62.5h-262v-397z" />
<glyph unicode="S" horiz-adv-x="1191" d="M90 414h301q4 -72 59.5 -121t151.5 -49q92 0 148.5 41t58.5 108v6q0 50 -34 86q-36 39 -136 68l-170 47q-365 113 -365 406q0 186 139.5 303.5t346.5 117.5q209 0 343 -116.5t134 -315.5h-299q0 72 -47 116t-135 44q-80 0 -131.5 -40t-51.5 -101q0 -100 152 -144l168 -53 q387 -112 387 -411v-15q-2 -133 -78 -230.5t-187.5 -140.5t-242.5 -43q-229 0 -370.5 122t-141.5 315z" />
<glyph unicode="T" horiz-adv-x="1179" d="M57 1141v270h1065v-270h-381v-1141h-303v1141h-381z" />
<glyph unicode="U" horiz-adv-x="1396" d="M152 504v907h305v-907q0 -106 72.5 -174t171 -68t171 68.5t72.5 173.5v907h301v-907q0 -233 -159.5 -378.5t-385 -145.5t-387 145t-161.5 379z" />
<glyph unicode="V" horiz-adv-x="1191" d="M33 1411h311l252 -926l250 926h313l-430 -1411h-266z" />
<glyph unicode="W" horiz-adv-x="1814" d="M-2 1411h324l274 -889q37 133 188 690h246l187 -690l276 889h326l-480 -1411h-235l-199 741l-194 -741h-238z" />
<glyph unicode="X" horiz-adv-x="1347" d="M8 0l488 752l-445 659h361l262 -422l264 422h358l-444 -659l489 -752h-354l-313 512l-314 -512h-352z" />
<glyph unicode="Y" horiz-adv-x="1333" d="M-31 1411h357l340 -528l344 528h356l-547 -776v-635h-305v639z" />
<glyph unicode="Z" horiz-adv-x="1218" d="M86 0v227l645 920h-618v264h1007v-227l-651 -920h651v-264h-1034z" />
<glyph unicode="[" horiz-adv-x="692" d="M150 -469v1880h473v-207h-232v-1462h232v-211h-473z" />
<glyph unicode="\" horiz-adv-x="1024" d="M59 1411h228l678 -1411h-228z" />
<glyph unicode="]" horiz-adv-x="692" d="M70 -258h231v1462h-231v207h473v-1880h-473v211z" />
<glyph unicode="_" horiz-adv-x="1521" d="M123 -66h1276v-204h-1276v204z" />
<glyph unicode="`" horiz-adv-x="1134" d="M264 1448h283l225 -344h-205z" />
<glyph unicode="a" horiz-adv-x="1253" d="M74 479q0 221 147.5 359.5t339.5 138.5q68 0 149 -28.5t130 -98.5v106h282v-956h-282v109q-41 -61 -126 -94t-153 -33q-193 0 -340 138t-147 359zM369 479.5q0 -98.5 72.5 -163t166.5 -64.5q92 0 162 62.5t70 165t-70 165t-162 62.5q-94 0 -166.5 -64.5t-72.5 -163z" />
<glyph unicode="b" horiz-adv-x="1232" d="M131 0v1477h283v-637q35 63 111.5 100t168.5 37q190 0 326.5 -139.5t136.5 -362.5q0 -219 -136 -357t-327 -138q-92 0 -168.5 36.5t-111.5 102.5v-119h-283zM420 481q0 -100 64.5 -165.5t156.5 -65.5t156.5 63.5t64.5 167.5q0 100 -64.5 164t-156.5 64t-156.5 -62 t-64.5 -166z" />
<glyph unicode="c" horiz-adv-x="1075" d="M74 481q0 219 153.5 357.5t366.5 138.5q127 0 236.5 -53.5t179.5 -149.5l-232 -166q-61 96 -184 97q-94 0 -166 -62.5t-72 -161.5q0 -100 72 -164.5t166 -64.5q123 0 184 96l232 -164q-68 -96 -177.5 -150t-238.5 -54q-213 0 -366.5 141t-153.5 360z" />
<glyph unicode="d" horiz-adv-x="1232" d="M76 475q0 223 136 362.5t327 139.5q92 0 168.5 -37t111.5 -100v637h283v-1477h-283v119q-35 -66 -111.5 -102.5t-168.5 -36.5q-190 0 -326.5 138t-136.5 357zM371 481q0 -104 64.5 -167.5t156.5 -63.5t156.5 65.5t64.5 165.5q0 104 -64.5 166t-156.5 62t-156.5 -63.5 t-64.5 -164.5z" />
<glyph unicode="e" horiz-adv-x="1126" d="M74 481q0 221 144 358.5t355 137.5q209 0 349.5 -140.5t140.5 -363.5q0 -39 -4 -88h-701q10 -78 81 -119t155 -41q139 0 209 90l207 -141q-130 -194 -434 -194h-3q-211 0 -355 140t-144 361zM362 563h414q-10 80 -70.5 122t-130 42t-133.5 -41t-80 -123z" />
<glyph unicode="f" horiz-adv-x="751" d="M47 731v225h180v66q0 219 113 337t319 118h105v-273h-105q-145 0 -145 -182v-66h193v-225h-193v-731h-287v731h-180z" />
<glyph unicode="g" horiz-adv-x="1245" d="M74 475q0 221 142 361.5t335 140.5q92 0 172 -38t115 -101v118h276v-823q0 -303 -140 -456.5t-401 -153.5q-158 0 -283.5 81t-187.5 216q37 18 116 56t114 56q25 -66 96.5 -109.5t144.5 -43.5q267 0 267 293q0 23 -2 47q-33 -63 -114 -101t-173 -38q-193 0 -335 139 t-142 356zM371 481q0 -104 67.5 -168.5t161.5 -64.5q92 0 161.5 66.5t69.5 166.5q0 102 -68.5 164t-162.5 62t-161.5 -63.5t-67.5 -162.5z" />
<glyph unicode="h" horiz-adv-x="1185" d="M131 0v1477h285v-670q27 82 108.5 126t159.5 44q186 0 284.5 -119t98.5 -338v-520h-285v510q0 88 -53 139t-123 51q-78 0 -134 -47t-56 -147v-506h-285z" />
<glyph unicode="i" horiz-adv-x="544" d="M94 1310.5q0 69.5 52.5 118t125.5 48.5q72 0 123 -48.5t51 -118t-51 -118.5t-123 -49q-74 0 -126 49t-52 118.5zM131 0v956h283v-956h-283z" />
<glyph unicode="j" horiz-adv-x="548" d="M-119 -223h125q125 0 125 142v9v1028h287v-1022q0 -201 -84 -308t-279 -107h-174v258zM96 1310.5q0 69.5 52.5 118t126 48.5t125 -48.5t51.5 -118t-51.5 -118.5t-125 -49t-126 49t-52.5 118.5z" />
<glyph unicode="k" horiz-adv-x="1077" d="M131 0v1477h283v-783l227 262h363l-398 -421l477 -535h-350l-319 379v-379h-283z" />
<glyph unicode="l" horiz-adv-x="546" d="M131 0v1477h285v-1477h-285z" />
<glyph unicode="m" horiz-adv-x="1748" d="M131 0v956h285v-139q33 74 101.5 116t148.5 42q227 0 307 -168q104 170 287 170q174 0 271 -110.5t97 -323.5v-543h-282v510q0 90 -45 140t-113 50q-74 0 -119 -48t-45 -146v-506h-285v516q-2 86 -47 135t-110 49q-72 0 -119 -46t-47 -148v-506h-285z" />
<glyph unicode="n" d="M131 0v956h285v-139q39 72 115.5 116t160.5 44q166 0 258 -102.5t92 -303.5v-571h-284v510q0 92 -45 141t-121 49h-2q-174 0 -174 -194v-506h-285z" />
<glyph unicode="o" horiz-adv-x="1140" d="M74 481q0 221 143 358.5t352 137.5t353.5 -137.5t144.5 -358.5t-144.5 -359t-353.5 -138t-352 138t-143 359zM354 481q0 -98 62.5 -158.5t152.5 -60.5q92 0 154.5 60.5t62.5 158.5q0 94 -63.5 155.5t-153.5 61.5t-152.5 -61.5t-62.5 -155.5z" />
<glyph unicode="p" horiz-adv-x="1232" d="M131 -469v1425h283v-118q35 66 111.5 102.5t168.5 36.5q190 0 326.5 -138.5t136.5 -357.5q0 -223 -136 -362t-327 -139q-92 0 -168.5 36.5t-111.5 100.5v-586h-283zM420 475q0 -104 64.5 -165.5t156.5 -61.5t156.5 63.5t64.5 163.5q0 102 -64.5 167t-156.5 65t-156.5 -66 t-64.5 -166z" />
<glyph unicode="q" horiz-adv-x="1232" d="M76 481q0 219 136 357.5t325 138.5q92 0 169.5 -36.5t110.5 -102.5v118h285v-1425h-285v586q-33 -63 -109.5 -100t-170.5 -37q-190 0 -325.5 139t-135.5 362zM371 475q0 -100 63.5 -163.5t155.5 -63.5t156.5 61.5t64.5 165.5q0 100 -64.5 166t-156.5 66t-155.5 -64.5 t-63.5 -167.5z" />
<glyph unicode="r" horiz-adv-x="866" d="M131 0v956h285v-231q35 125 111.5 188.5t158.5 63.5q94 0 164 -35l-51 -256q-59 29 -146 29q-237 0 -237 -381v-334h-285z" />
<glyph unicode="s" horiz-adv-x="956" d="M74 309h266q2 -43 43 -76.5t98 -33.5q49 2 83 23.5t34 56.5q0 31 -21.5 49t-72.5 32l-125 33q-100 27 -164.5 67t-88.5 88t-30 80q-4 24 -4 55v22q2 106 112.5 189t260.5 83q162 0 276.5 -78t116.5 -240h-268q-2 84 -109 84q-47 0 -74.5 -19t-25.5 -52q4 -51 84 -72 l162 -43q106 -29 168.5 -88t77 -103t14.5 -87q0 -143 -124 -221t-290 -78q-158 0 -277.5 89t-121.5 240z" />
<glyph unicode="t" horiz-adv-x="747" d="M47 731v225h174v367h283v-367h201v-225h-201v-731h-283v731h-174z" />
<glyph unicode="u" d="M121 385v571h285v-510q0 -102 53 -146t116 -44q74 0 123.5 47.5t49.5 147.5v505h284v-956h-284v131q-37 -70 -107 -110.5t-141 -40.5q-168 0 -273.5 104t-105.5 301z" />
<glyph unicode="v" horiz-adv-x="1064" d="M6 956h303l223 -594l222 594h305l-406 -956h-243z" />
<glyph unicode="w" horiz-adv-x="1562" d="M16 956h303l170 -569l168 569h244l168 -569l170 569h303l-336 -956h-237l-189 608l-180 -608h-238z" />
<glyph unicode="x" horiz-adv-x="1085" d="M8 0l377 518l-315 438h331l144 -211l141 211h330l-316 -438l375 -518h-330l-202 293l-205 -293h-330z" />
<glyph unicode="y" horiz-adv-x="1044" d="M6 956h303l211 -542l213 542h303l-590 -1425h-301l230 567z" />
<glyph unicode="z" horiz-adv-x="1044" d="M84 0v211l451 483h-422v262h833v-213l-459 -481h459v-262h-862z" />
<glyph unicode="{" horiz-adv-x="843" d="M63 385v172q49 0 87 33t38 86v325q-2 182 118 296t296 114h174v-207h-180q-70 0 -119 -51t-49 -125v-336q0 -86 -51 -145.5t-111 -75.5q59 -16 110.5 -75.5t51.5 -145.5v-313q0 -76 50 -133.5t118 -57.5h180v-215h-174q-176 0 -296 113.5t-118 296.5v325q0 53 -38 86 t-87 33z" />
<glyph unicode="|" horiz-adv-x="448" d="M150 -254v1896h149v-1896h-149z" />
<glyph unicode="}" horiz-adv-x="843" d="M68 -254h180q68 0 118 57.5t50 133.5v313q0 86 51 145.5t111 75.5q-59 16 -110.5 75.5t-51.5 145.5v336q0 74 -49.5 125t-118.5 51h-180v207h174q176 0 295.5 -113.5t117.5 -296.5v-325q0 -53 38 -86t87 -33v-172q-49 0 -87 -33t-38 -86v-325q2 -182 -117.5 -296 t-295.5 -114h-174v215z" />
<glyph unicode="&#xa1;" horiz-adv-x="546" d="M96 805q0 74 51.5 123t125 49t126 -49t52.5 -123q0 -72 -52.5 -121t-126 -49t-125 48t-51.5 122zM117 -469l41 999h233l41 -999h-315z" />
<glyph unicode="&#xa2;" horiz-adv-x="1101" d="M80 481q0 193 121 324t303 164v221h149v-215q236 -23 363 -201l-232 -166q-61 96 -184 97q-94 0 -166 -62.5t-72 -161.5q0 -100 72 -164.5t166 -64.5q123 0 184 96l232 -164q-127 -180 -363 -202v-236h-149v242q-182 33 -303 166t-121 327z" />
<glyph unicode="&#xa3;" horiz-adv-x="1392" d="M84 0v254h217v317h-170v129h170v269q0 207 122 332.5t314 125.5q203 0 334 -119.5t131 -351.5h-297q0 168 -162 168q-72 0 -113.5 -42t-41.5 -113v-269h235v-129h-235v-317h377q27 0 44 21.5t17 52.5v59h281v-115q0 -117 -75 -194.5t-183 -77.5h-965z" />
<glyph unicode="&#xa5;" horiz-adv-x="1519" d="M61 1411h357l340 -528l344 528h356l-526 -747h299v-140h-320v-190h320v-139h-320v-195h-305v195h-317v139h317v190h-317v140h299z" />
<glyph unicode="&#xa7;" horiz-adv-x="1107" d="M121 -4l239 72q23 -82 76 -120t115 -38q76 0 129 49t53 129v361q0 80 -53 128t-129 48h-12q-47 -1 -90 -9v250q51 12 102 13q182 0 309 -119t127 -311v-361q0 -193 -127 -311.5t-309 -118.5q-152 0 -274.5 87t-155.5 251zM121 635v360q0 193 127 311.5t309 118.5 q152 0 274.5 -87t155.5 -251l-239 -71q-23 82 -76.5 120t-114.5 38q-76 0 -129 -49.5t-53 -129.5v-360q0 -80 53 -128t129 -48h12q47 0 90 8v-250q-51 -12 -102 -12q-182 0 -309 118.5t-127 311.5z" />
<glyph unicode="&#xa8;" horiz-adv-x="1148" d="M246 1307q0 57 44 98t105 41q59 0 102.5 -41t43.5 -98q0 -59 -43 -100.5t-103 -41.5q-61 0 -105 41.5t-44 100.5zM608 1307q0 57 44 98t106 41q59 0 102 -41t43 -98q0 -59 -43 -100.5t-102 -41.5q-61 0 -105.5 41.5t-44.5 100.5z" />
<glyph unicode="&#xa9;" horiz-adv-x="1632" d="M100 702.5q0 301.5 208 513t507 211.5t508 -211.5t209 -513t-209 -512t-508 -210.5t-507 210.5t-208 512zM260 702.5q0 -233.5 162 -397.5t393.5 -164t393 164t161.5 397.5t-161.5 398.5t-393 165t-393.5 -165t-162 -398.5zM459 696q0 -150 102.5 -256t251.5 -106 q90 0 172 46t131 122l-137 92q-70 -94 -166 -94q-80 0 -131 57t-51 139q0 86 51 143.5t131 57.5q92 0 164 -94l135 94q-109 162 -299 162q-150 0 -252 -105.5t-102 -257.5z" />
<glyph unicode="&#xaa;" horiz-adv-x="958" d="M94 1001.5q0 157.5 100.5 256t243.5 98.5q135 0 211 -103v88h156v-679h-156v92q-35 -49 -93 -78t-118 -29q-143 0 -243.5 98.5t-100.5 256zM158 434v109h645v-109h-645zM254 1003.5q0 -88.5 56.5 -144.5t138.5 -56q84 0 142 54.5t58 146.5q0 90 -61.5 143t-138.5 53 q-84 0 -139.5 -54t-55.5 -142.5z" />
<glyph unicode="&#xab;" horiz-adv-x="1034" d="M80 477l282 424h222l-283 -424l283 -424h-222zM442 477l283 424h221l-282 -424l282 -424h-221z" />
<glyph unicode="&#xac;" horiz-adv-x="1286" d="M139 518v246h996v-551h-248v305h-748z" />
<glyph unicode="&#xad;" horiz-adv-x="972" d="M125 391v225h723v-225h-723z" />
<glyph unicode="&#xae;" horiz-adv-x="1632" d="M100 702.5q0 301.5 208 513t507 211.5t508 -211.5t209 -513t-209 -512t-508 -210.5t-507 210.5t-208 512zM260 702.5q0 -233.5 162 -397.5t393.5 -164t393 164t161.5 397.5t-161.5 398.5t-393 165t-393.5 -165t-162 -398.5zM565 356h172v224h15l149 -224h207l-172 232 q76 25 118 87t42 142q0 96 -62.5 165t-177.5 69h-291v-695zM737 731v166h115q29 0 48.5 -26.5t19.5 -53.5q0 -33 -20.5 -59.5t-53.5 -26.5h-109z" />
<glyph unicode="&#xaf;" horiz-adv-x="1060" d="M246 1202v174h569v-174h-569z" />
<glyph unicode="&#xb0;" horiz-adv-x="770" d="M90 1083q0 121 86 208t207 87q123 0 210 -87t87 -208q0 -123 -87 -210t-210 -87q-121 0 -207 87t-86 210zM238 1083q0 -63 43 -106t102 -43q63 0 106 43t43 106q0 61 -43 104.5t-106 43.5q-59 0 -102 -43.5t-43 -104.5z" />
<glyph unicode="&#xb1;" horiz-adv-x="1120" d="M139 -2v209h842v-209h-842zM139 598v209h316v289h209v-289h317v-209h-317v-293h-209v293h-316z" />
<glyph unicode="&#xb4;" horiz-adv-x="1134" d="M264 1104l225 344h283l-303 -344h-205z" />
<glyph unicode="&#xb5;" horiz-adv-x="1175" d="M147 -391v1347h285v-510q0 -102 53.5 -146t116.5 -44q74 0 123 47t49 148v505h285v-956h-285v131q-37 -70 -106.5 -110.5t-141.5 -40.5q-82 0 -147 55l29 -271v-155h-261z" />
<glyph unicode="&#xb6;" horiz-adv-x="1460" d="M68 967q0 184 129 314t315 130h190v-1440q0 -49 -49 -49h-161v600q-176 10 -300 139.5t-124 305.5zM489 -195h248q41 0 66.5 28t25.5 67v1511h279q117 0 199 -84t82 -197v-174h-191v156q0 41 -27.5 66.5t-66.5 25.5h-70v-1304q0 -106 -86 -193.5t-194 -87.5h-265v186z " />
<glyph unicode="&#xb7;" horiz-adv-x="575" d="M111 710.5q0 73.5 51 122t124.5 48.5t126 -49.5t52.5 -120.5q0 -74 -52.5 -123t-126 -49t-124.5 49t-51 122.5z" />
<glyph unicode="&#xb8;" horiz-adv-x="1087" d="M330 -193l157 -8q-4 -26 2 -53q20 -53 80 -39q55 25 31 86l-96 262h133l102 -190q20 -33 21 -101q0 -86 -64.5 -148t-154.5 -62q-61 0 -114.5 35.5t-80.5 97.5q-18 43 -16 120z" />
<glyph unicode="&#xba;" horiz-adv-x="929" d="M102 1006q0 156 102.5 253t252 97t253 -97.5t103.5 -252.5q0 -160 -103 -259.5t-253 -99.5q-147 0 -251 99.5t-104 259.5zM147 434v109h646v-109h-646zM258 1006q0 -90 57.5 -146.5t141.5 -56.5t141 56t57 147q0 86 -57 140t-141 54t-141.5 -54t-57.5 -140z" />
<glyph unicode="&#xbb;" horiz-adv-x="1034" d="M88 53l283 424l-283 424h221l283 -424l-283 -424h-221zM451 53l282 424l-282 424h221l282 -424l-282 -424h-221z" />
<glyph unicode="&#xbf;" horiz-adv-x="997" d="M66 -72q0 145 75.5 246.5t198.5 140.5q61 18 83.5 56t22.5 114l5 45h278l4 -45q0 -80 -2 -119.5t-13 -91t-35 -80t-66 -60.5t-107 -60l-82 -35q-49 -27 -62.5 -50.5t-13.5 -62.5q0 -47 41 -78.5t105 -31.5q66 0 105.5 39t39.5 102h287q0 -195 -119 -311.5t-313.5 -116.5 t-313 108.5t-118.5 290.5zM408 805q0 74 52 123t125.5 49t125 -49t51.5 -123t-51.5 -122t-125 -48t-125.5 49t-52 121z" />
<glyph unicode="&#xc0;" horiz-adv-x="1349" d="M-12 0l524 1411h326l522 -1411h-316l-124 334h-488l-125 -334h-319zM317 1903h283l225 -344h-204zM530 594h293l-149 491z" />
<glyph unicode="&#xc1;" horiz-adv-x="1349" d="M-12 0l524 1411h326l522 -1411h-316l-124 334h-488l-125 -334h-319zM530 594h293l-149 491zM535 1559l225 344h282l-303 -344h-204z" />
<glyph unicode="&#xc2;" horiz-adv-x="1349" d="M-12 0l524 1411h326l522 -1411h-316l-124 334h-488l-125 -334h-319zM307 1567l223 344h283l225 -344h-204l-162 182l-160 -182h-205zM530 594h293l-149 491z" />
<glyph unicode="&#xc3;" horiz-adv-x="1349" d="M-12 0l524 1411h326l522 -1411h-316l-124 334h-488l-125 -334h-319zM377 1608q6 137 68.5 201.5t138.5 64.5q47 0 102 -42t76 -42q16 0 33.5 20.5t19.5 63.5h154q-6 -135 -68.5 -198.5t-138.5 -63.5q-43 0 -101.5 42t-76.5 42q-16 0 -34 -22.5t-20 -65.5h-153zM530 594 h293l-149 491z" />
<glyph unicode="&#xc4;" horiz-adv-x="1349" d="M-12 0l524 1411h326l522 -1411h-316l-124 334h-488l-125 -334h-319zM319 1761q0 57 44.5 98.5t105.5 41.5q59 0 102 -41t43 -99q0 -59 -43 -100t-102 -41q-61 0 -105.5 41t-44.5 100zM530 594h293l-149 491zM682 1761q0 57 44 98.5t105 41.5q59 0 102.5 -41t43.5 -99 q0 -59 -43 -100t-103 -41q-61 0 -105 41t-44 100z" />
<glyph unicode="&#xc5;" horiz-adv-x="1349" d="M-12 0l524 1411h326l522 -1411h-316l-124 334h-488l-125 -334h-319zM426 1804q0 106 71.5 179t174.5 73q104 0 177 -72.5t73 -179.5q0 -102 -73 -173.5t-177 -71.5q-102 0 -174 71.5t-72 173.5zM530 594h293l-149 491zM559 1804q0 -47 33 -79.5t80 -32.5q49 0 82.5 32.5 t33.5 79.5q0 51 -33.5 85t-82.5 34q-47 0 -80 -34t-33 -85z" />
<glyph unicode="&#xc6;" horiz-adv-x="1912" d="M-43 0l891 1411h944v-264h-594v-322h520v-260h-520v-301h612v-264h-911v2l-2 -2v324h-377l-205 -324h-358zM690 612h207v398z" />
<glyph unicode="&#xc7;" horiz-adv-x="1435" d="M86 702q0 303 204 514t505 211q184 0 338.5 -80.5t248.5 -218.5l-243 -167q-127 184 -344 184q-174 0 -291 -128t-117 -315q0 -184 117 -312t291 -128q109 0 200.5 53.5t151.5 141.5l242 -168q-86 -129 -222.5 -210t-302.5 -95l64 -119q20 -39 20 -101q0 -86 -64.5 -148 t-154.5 -62q-61 0 -114.5 35.5t-79.5 97.5q-18 43 -17 120l158 -8q-4 -26 2 -53q20 -53 80 -39q55 25 30 86l-69 191q-274 27 -453.5 232.5t-179.5 485.5z" />
<glyph unicode="&#xc8;" horiz-adv-x="1179" d="M166 0v1411h893v-264h-594v-322h520v-260h-520v-301h612v-264h-911zM274 1903h283l225 -344h-204z" />
<glyph unicode="&#xc9;" horiz-adv-x="1179" d="M166 0h911v264h-612v301h520v260h-520v322h594v264h-893v-1411zM436 1559l226 344h282l-303 -344h-205z" />
<glyph unicode="&#xca;" horiz-adv-x="1179" d="M166 0v1411h893v-264h-594v-322h520v-260h-520v-301h612v-264h-911zM215 1567l223 344h283l225 -344h-205l-161 182l-160 -182h-205z" />
<glyph unicode="&#xcb;" horiz-adv-x="1179" d="M166 0h911v264h-612v301h520v260h-520v322h594v264h-893v-1411zM252 1761q0 57 44 98.5t105 41.5q59 0 102.5 -41t43.5 -99q0 -59 -43 -100t-103 -41q-61 0 -105 41t-44 100zM614 1761q0 57 44 98.5t106 41.5q59 0 102 -41t43 -99q0 -59 -43 -100t-102 -41 q-61 0 -105.5 41t-44.5 100z" />
<glyph unicode="&#xcc;" horiz-adv-x="630" d="M-45 1903h283l225 -344h-205zM166 0v1411h299v-1411h-299z" />
<glyph unicode="&#xcd;" horiz-adv-x="630" d="M164 1559l225 344h283l-303 -344h-205zM166 0v1411h299v-1411h-299z" />
<glyph unicode="&#xce;" horiz-adv-x="630" d="M-49 1567l223 344h283l225 -344h-205l-162 182l-159 -182h-205zM166 0v1411h299v-1411h-299z" />
<glyph unicode="&#xcf;" horiz-adv-x="630" d="M-12 1761q0 57 44 98.5t105 41.5q59 0 102.5 -41t43.5 -99q0 -59 -43 -100t-103 -41q-61 0 -105 41t-44 100zM166 0v1411h299v-1411h-299zM350 1761q0 57 44 98.5t106 41.5q59 0 102 -41t43 -99q0 -59 -43 -100t-102 -41q-61 0 -105.5 41t-44.5 100z" />
<glyph unicode="&#xd0;" horiz-adv-x="1478" d="M4 582v200h193v629h553q297 0 466.5 -199.5t169.5 -509t-169.5 -506t-466.5 -196.5h-553v582h-193zM496 272h254q162 0 249.5 123t87.5 307q0 186 -88 311.5t-249 125.5h-254v-357h252v-200h-252v-310z" />
<glyph unicode="&#xd1;" horiz-adv-x="1390" d="M166 0v1411h274l484 -844v844h301v-1411h-269l-491 854v-854h-299zM399 1608q6 137 68.5 201.5t138.5 64.5q47 0 102.5 -42t75.5 -42q16 0 34 20.5t20 63.5h153q-6 -135 -68.5 -198.5t-138.5 -63.5q-43 0 -100.5 42t-77.5 42q-16 0 -33.5 -22.5t-19.5 -65.5h-154z" />
<glyph unicode="&#xd2;" horiz-adv-x="1599" d="M84 702q0 301 208 513t507 212q301 0 509 -211.5t208 -513.5q0 -299 -209 -510.5t-508 -211.5t-507 211.5t-208 510.5zM383 702.5q0 -178.5 121 -302.5t295 -124t296 125t122 301q0 178 -122 303t-296 125t-295 -124.5t-121 -303zM436 1903h283l225 -344h-205z" />
<glyph unicode="&#xd3;" horiz-adv-x="1599" d="M84 702q0 -299 208 -510.5t507 -211.5t508 211.5t209 510.5q0 301 -208 513t-509 212q-299 0 -507 -212t-208 -513zM383 702.5q0 178.5 121 303t295 124.5t296 -124.5t122 -303.5q0 -176 -122 -301t-296 -125t-295 124t-121 302.5zM666 1559l225 344h283l-304 -344h-204z " />
<glyph unicode="&#xd4;" horiz-adv-x="1599" d="M84 702q0 301 208 513t507 212q301 0 509 -211.5t208 -513.5q0 -299 -209 -510.5t-508 -211.5t-507 211.5t-208 510.5zM383 702.5q0 -178.5 121 -302.5t295 -124t296 125t122 301q0 178 -122 303t-296 125t-295 -124.5t-121 -303zM434 1567l223 344h283l225 -344h-204 l-162 182l-160 -182h-205z" />
<glyph unicode="&#xd5;" horiz-adv-x="1599" d="M84 702q0 301 208 513t507 212q301 0 509 -211.5t208 -513.5q0 -299 -209 -510.5t-508 -211.5t-507 211.5t-208 510.5zM383 702.5q0 -178.5 121 -302.5t295 -124t296 125t122 301q0 178 -122 303t-296 125t-295 -124.5t-121 -303zM504 1608q6 137 68.5 201.5t138.5 64.5 q47 0 102 -42t76 -42q16 0 33.5 20.5t19.5 63.5h154q-6 -135 -68.5 -198.5t-138.5 -63.5q-45 0 -102.5 42t-75.5 42q-16 0 -34 -22.5t-20 -65.5h-153z" />
<glyph unicode="&#xd6;" horiz-adv-x="1599" d="M84 702q0 -299 208 -510.5t507 -211.5t508 211.5t209 510.5q0 301 -208 513t-509 212q-299 0 -507 -212t-208 -513zM383 702.5q0 178.5 121 303t295 124.5t296 -124.5t122 -303.5q0 -176 -122 -301t-296 -125t-295 124t-121 302.5zM471 1761q0 57 44 98.5t106 41.5 q59 0 102 -41t43 -99q0 -59 -43 -100t-102 -41q-61 0 -105.5 41t-44.5 100zM834 1761q0 57 44 98.5t105 41.5q59 0 102 -41t43 -99q0 -59 -43 -100t-102 -41q-61 0 -105 41t-44 100z" />
<glyph unicode="&#xd8;" horiz-adv-x="1595" d="M82 702q0 301 208 513t507 212q262 0 456 -165l162 165l96 -94l-163 -168q166 -203 165 -463q0 -299 -208.5 -510.5t-507.5 -211.5q-252 -1 -447 157l-2 -2l-164 -168l-96 96l164 168q-170 203 -170 471zM381 702q0 -143 80 -256l583 601q-106 84 -247 83 q-174 0 -295 -125t-121 -303zM557 352q105 -76 240 -76q174 0 295.5 125t121.5 301q0 135 -77 246z" />
<glyph unicode="&#xd9;" horiz-adv-x="1396" d="M152 504v907h305v-907q0 -106 72.5 -174t171 -68t171 68.5t72.5 173.5v907h301v-907q0 -233 -159.5 -378.5t-385 -145.5t-387 145t-161.5 379zM352 1903h283l225 -344h-205z" />
<glyph unicode="&#xda;" horiz-adv-x="1396" d="M152 504v907h305v-907q0 -106 72.5 -174t171 -68t171 68.5t72.5 173.5v907h301v-907q0 -233 -159.5 -378.5t-385 -145.5t-387 145t-161.5 379zM535 1559l225 344h282l-303 -344h-204z" />
<glyph unicode="&#xdb;" horiz-adv-x="1396" d="M152 504v907h305v-907q0 -106 72.5 -174t171 -68t171 68.5t72.5 173.5v907h301v-907q0 -233 -159.5 -378.5t-385 -145.5t-387 145t-161.5 379zM332 1567l223 344h283l225 -344h-205l-162 182l-159 -182h-205z" />
<glyph unicode="&#xdc;" horiz-adv-x="1396" d="M152 504v907h305v-907q0 -106 72.5 -174t171 -68t171 68.5t72.5 173.5v907h301v-907q0 -233 -159.5 -378.5t-385 -145.5t-387 145t-161.5 379zM369 1761q0 57 44 98.5t105 41.5q59 0 102.5 -41t43.5 -99q0 -59 -43 -100t-103 -41q-61 0 -105 41t-44 100zM731 1761 q0 57 44 98.5t106 41.5q59 0 102 -41t43 -99q0 -59 -43 -100t-102 -41q-61 0 -105.5 41t-44.5 100z" />
<glyph unicode="&#xdd;" horiz-adv-x="1333" d="M-31 1411h357l340 -528l344 528h356l-547 -776v-635h-305v639zM512 1559l225 344h283l-303 -344h-205z" />
<glyph unicode="&#xde;" horiz-adv-x="1171" d="M166 0v1411h299v-229h199q195 0 325.5 -126t130.5 -333t-130.5 -336t-325.5 -129h-199v-258h-299zM465 512h184q70 0 122 55.5t52 147.5q0 96 -52 154.5t-122 58.5h-184v-416z" />
<glyph unicode="&#xdf;" horiz-adv-x="1159" d="M131 0v1004q0 199 115.5 311t298.5 112q190 0 309 -98t119 -242q0 -172 -129 -253q109 -53 174 -151.5t65 -236.5q0 -205 -117.5 -335.5t-340.5 -130.5q-76 -1 -152 22l55 268q49 -8 97 -8q86 0 138 61.5t52 143.5q0 72 -48 137.5t-157 65.5h-55v248h35q51 0 78.5 35.5 t27.5 91t-39 88t-106 32.5q-55 0 -96 -37.5t-41 -101.5v-1026h-283z" />
<glyph unicode="&#xe0;" horiz-adv-x="1253" d="M74 479q0 221 147.5 359.5t339.5 138.5q68 0 149 -28.5t130 -98.5v106h282v-956h-282v109q-41 -61 -126 -94t-153 -33q-193 0 -340 138t-147 359zM276 1448h283l225 -344h-204zM369 479.5q0 -98.5 72.5 -163t166.5 -64.5q92 0 162 62.5t70 165t-70 165t-162 62.5 q-94 0 -166.5 -64.5t-72.5 -163z" />
<glyph unicode="&#xe1;" horiz-adv-x="1253" d="M74 479q0 221 147.5 359.5t339.5 138.5q68 0 149 -28.5t130 -98.5v106h282v-956h-282v109q-41 -61 -126 -94t-153 -33q-193 0 -340 138t-147 359zM369 479.5q0 -98.5 72.5 -163t166.5 -64.5q92 0 162 62.5t70 165t-70 165t-162 62.5q-94 0 -166.5 -64.5t-72.5 -163z M432 1104l225 344h283l-303 -344h-205z" />
<glyph unicode="&#xe2;" horiz-adv-x="1253" d="M74 479q0 221 147.5 359.5t339.5 138.5q68 0 149 -28.5t130 -98.5v106h282v-956h-282v109q-41 -61 -126 -94t-153 -33q-193 0 -340 138t-147 359zM262 1112l223 344h283l225 -344h-205l-161 182l-160 -182h-205zM369 479.5q0 -98.5 72.5 -163t166.5 -64.5q92 0 162 62.5 t70 165t-70 165t-162 62.5q-94 0 -166.5 -64.5t-72.5 -163z" />
<glyph unicode="&#xe3;" horiz-adv-x="1253" d="M74 479q0 221 147.5 359.5t339.5 138.5q68 0 149 -28.5t130 -98.5v106h282v-956h-282v109q-41 -61 -126 -94t-153 -33q-193 0 -340 138t-147 359zM332 1153q6 137 68.5 201.5t138.5 64.5q47 0 102 -42t76 -42q16 0 33.5 20.5t19.5 63.5h154q-6 -135 -68.5 -198.5 t-138.5 -63.5q-45 0 -102.5 42t-75.5 42q-16 0 -34 -22.5t-20 -65.5h-153zM369 479.5q0 -98.5 72.5 -163t166.5 -64.5q92 0 162 62.5t70 165t-70 165t-162 62.5q-94 0 -166.5 -64.5t-72.5 -163z" />
<glyph unicode="&#xe4;" horiz-adv-x="1253" d="M74 479q0 221 147.5 359.5t339.5 138.5q68 0 149 -28.5t130 -98.5v106h282v-956h-282v109q-41 -61 -126 -94t-153 -33q-193 0 -340 138t-147 359zM299 1307q0 57 44 98t106 41q59 0 102 -41t43 -98q0 -59 -43 -100.5t-102 -41.5q-61 0 -105.5 41.5t-44.5 100.5z M369 479.5q0 -98.5 72.5 -163t166.5 -64.5q92 0 162 62.5t70 165t-70 165t-162 62.5q-94 0 -166.5 -64.5t-72.5 -163zM662 1307q0 57 44 98t105 41q59 0 102 -41t43 -98q0 -59 -43 -100.5t-102 -41.5q-61 0 -105 41.5t-44 100.5z" />
<glyph unicode="&#xe5;" horiz-adv-x="1253" d="M74 479q0 221 147.5 359.5t339.5 138.5q68 0 149 -28.5t130 -98.5v106h282v-956h-282v109q-41 -61 -126 -94t-153 -33q-193 0 -340 138t-147 359zM369 479.5q0 -98.5 72.5 -163t166.5 -64.5q92 0 162 62.5t70 165t-70 165t-162 62.5q-94 0 -166.5 -64.5t-72.5 -163z M381 1350q0 106 71.5 179t174.5 73q104 0 177 -73t73 -179q0 -102 -73 -174t-177 -72q-102 0 -174 72t-72 174zM514 1350q0 -47 33 -80t80 -33q49 0 82.5 33t33.5 80q0 51 -33.5 84.5t-82.5 33.5q-47 0 -80 -33.5t-33 -84.5z" />
<glyph unicode="&#xe6;" horiz-adv-x="1986" d="M74 479q0 221 147.5 359.5t339.5 138.5q68 0 149 -28.5t130 -98.5v106h282v-79q135 100 312 100q209 0 349 -140.5t140 -363.5q0 -39 -4 -88h-700q10 -78 80.5 -119t154.5 -41q139 0 209 90l207 -141q-131 -195 -436 -194q-176 0 -312 102v-82h-282v109q-41 -61 -126 -94 t-153 -33q-193 0 -340 138t-147 359zM369 479.5q0 -98.5 72.5 -163t166.5 -64.5q92 0 162 62.5t70 165t-70 165t-162 62.5q-94 0 -166.5 -64.5t-72.5 -163zM1223 563h413q-10 80 -70.5 122t-130 42t-133 -41t-79.5 -123z" />
<glyph unicode="&#xe7;" horiz-adv-x="1075" d="M74 481q0 219 153.5 357.5t366.5 138.5q127 0 236.5 -53.5t179.5 -149.5l-232 -166q-61 96 -184 97q-94 0 -166 -62.5t-72 -161.5q0 -100 72 -164.5t166 -64.5q123 0 184 96l232 -164q-126 -175 -351 -200l64 -119q20 -37 20 -101q0 -86 -64.5 -148t-154.5 -62 q-61 0 -114.5 35.5t-79.5 97.5q-18 43 -17 120l158 -8q-4 -27 2 -53q20 -53 80 -39q53 23 31 86l-72 193q-186 27 -312 162t-126 333z" />
<glyph unicode="&#xe8;" horiz-adv-x="1126" d="M74 481q0 221 144 358.5t355 137.5q209 0 349.5 -140.5t140.5 -363.5q0 -39 -4 -88h-701q10 -78 81 -119t155 -41q139 0 209 90l207 -141q-131 -195 -437 -194q-211 0 -355 140t-144 361zM205 1448h282l226 -344h-205zM362 563h414q-10 80 -70.5 122t-130 42t-133.5 -41 t-80 -123z" />
<glyph unicode="&#xe9;" horiz-adv-x="1126" d="M74 481q0 221 144 358.5t355 137.5q209 0 349.5 -140.5t140.5 -363.5q0 -39 -4 -88h-701q10 -78 81 -119t155 -41q139 0 209 90l207 -141q-131 -195 -437 -194q-211 0 -355 140t-144 361zM362 563h414q-10 80 -70.5 122t-130 42t-133.5 -41t-80 -123zM436 1104l226 344 h282l-303 -344h-205z" />
<glyph unicode="&#xea;" horiz-adv-x="1126" d="M74 481q0 221 144 358.5t355 137.5q209 0 349.5 -140.5t140.5 -363.5q0 -39 -4 -88h-701q10 -78 81 -119t155 -41q139 0 209 90l207 -141q-131 -195 -437 -194q-211 0 -355 140t-144 361zM203 1112l223 344h283l225 -344h-205l-162 182l-159 -182h-205zM362 563h414 q-10 80 -70.5 122t-130 42t-133.5 -41t-80 -123z" />
<glyph unicode="&#xeb;" horiz-adv-x="1126" d="M74 481q0 221 144 358.5t355 137.5q209 0 349.5 -140.5t140.5 -363.5q0 -39 -4 -88h-701q10 -78 81 -119t155 -41q139 0 209 90l207 -141q-131 -195 -437 -194q-211 0 -355 140t-144 361zM240 1307q0 57 44 98t105 41q59 0 102.5 -41t43.5 -98q0 -59 -43 -100.5 t-103 -41.5q-61 0 -105 41.5t-44 100.5zM362 563h414q-10 80 -70.5 122t-130 42t-133.5 -41t-80 -123zM602 1307q0 57 44 98t106 41q59 0 102 -41t43 -98q0 -59 -43 -100.5t-102 -41.5q-61 0 -105.5 41.5t-44.5 100.5z" />
<glyph unicode="&#xec;" horiz-adv-x="542" d="M-92 1448h282l226 -344h-205zM131 0v956h281v-956h-281z" />
<glyph unicode="&#xed;" horiz-adv-x="542" d="M131 0h281v956h-281v-956zM131 1104l225 344h283l-303 -344h-205z" />
<glyph unicode="&#xee;" horiz-adv-x="542" d="M-94 1112l223 344h283l225 -344h-205l-162 182l-159 -182h-205zM131 0v956h281v-956h-281z" />
<glyph unicode="&#xef;" horiz-adv-x="542" d="M-61 1307q0 57 44 98t105 41q59 0 102 -41t43 -98q0 -59 -43 -100.5t-102 -41.5q-61 0 -105 41.5t-44 100.5zM131 0h281v956h-281v-956zM301 1307q0 57 44 98t106 41q59 0 102 -41t43 -98q0 -59 -43 -100.5t-102 -41.5q-61 0 -105.5 41.5t-44.5 100.5z" />
<glyph unicode="&#xf0;" horiz-adv-x="1144" d="M76 481q0 219 147.5 354.5t358.5 120.5l-119 150l-174 -80l-60 100l166 74l-151 211h272l86 -119l176 80l72 -92l-180 -82l305 -420q94 -127 94 -297q0 -221 -144.5 -359t-353.5 -138t-352 138t-143 359zM356 481q0 -98 62.5 -158.5t152.5 -60.5q92 0 154.5 60.5 t62.5 158.5q0 94 -62 153.5t-155 59.5q-90 0 -152.5 -59.5t-62.5 -153.5z" />
<glyph unicode="&#xf1;" d="M131 0v956h285v-139q39 72 115.5 116t160.5 44q166 0 258 -102.5t92 -303.5v-571h-284v510q0 92 -45 141t-121 49q-176 1 -176 -194v-506h-285zM285 1153q6 137 68.5 201.5t138.5 64.5q47 0 102 -42t76 -42q16 0 33.5 20.5t19.5 63.5h154q-6 -135 -69 -198.5t-138 -63.5 q-43 0 -101.5 42t-76.5 42q-16 0 -34 -22.5t-20 -65.5h-153z" />
<glyph unicode="&#xf2;" horiz-adv-x="1140" d="M74 481q0 219 143 355.5t352 136.5t353.5 -136.5t144.5 -355.5q0 -221 -144.5 -359t-353.5 -138t-352 138t-143 359zM160 1448h282l226 -344h-205zM354 481q0 -98 62.5 -158.5t152.5 -60.5q92 0 154.5 60.5t62.5 158.5q0 94 -62 153.5t-155 59.5q-90 0 -152.5 -59.5 t-62.5 -153.5z" />
<glyph unicode="&#xf3;" horiz-adv-x="1140" d="M74 481q0 -221 143 -359t352 -138t353.5 138t144.5 359q0 219 -144.5 355.5t-353.5 136.5t-352 -136.5t-143 -355.5zM354 481q0 94 62.5 153.5t152.5 59.5q92 0 154.5 -59.5t62.5 -153.5q0 -98 -62.5 -158.5t-154.5 -60.5q-90 0 -152.5 60.5t-62.5 158.5zM449 1104 l225 344h282l-303 -344h-204z" />
<glyph unicode="&#xf4;" horiz-adv-x="1140" d="M74 481q0 219 143 355.5t352 136.5t353.5 -136.5t144.5 -355.5q0 -221 -144.5 -359t-353.5 -138t-352 138t-143 359zM205 1112l223 344h283l225 -344h-205l-162 182l-159 -182h-205zM354 481q0 -98 62.5 -158.5t152.5 -60.5q92 0 154.5 60.5t62.5 158.5q0 94 -62 153.5 t-155 59.5q-90 0 -152.5 -59.5t-62.5 -153.5z" />
<glyph unicode="&#xf5;" horiz-adv-x="1140" d="M74 481q0 219 143 355.5t352 136.5t353.5 -136.5t144.5 -355.5q0 -221 -144.5 -359t-353.5 -138t-352 138t-143 359zM274 1153q6 137 69 201.5t138 64.5q47 0 102.5 -42t75.5 -42q16 0 34 20.5t20 63.5h153q-6 -135 -68.5 -198.5t-138.5 -63.5q-45 0 -102.5 42t-75.5 42 q-16 0 -33.5 -22.5t-19.5 -65.5h-154zM354 481q0 -98 62.5 -158.5t152.5 -60.5q92 0 154.5 60.5t62.5 158.5q0 94 -62 153.5t-155 59.5q-90 0 -152.5 -59.5t-62.5 -153.5z" />
<glyph unicode="&#xf6;" horiz-adv-x="1140" d="M74 481q0 -221 143 -359t352 -138t353.5 138t144.5 359q0 219 -144.5 355.5t-353.5 136.5t-352 -136.5t-143 -355.5zM242 1307q0 57 44 98t105 41q59 0 102.5 -41t43.5 -98q0 -59 -43 -100.5t-103 -41.5q-61 0 -105 41.5t-44 100.5zM354 481q0 94 62.5 153.5t152.5 59.5 q92 0 154.5 -59.5t62.5 -153.5q0 -98 -62.5 -158.5t-154.5 -60.5q-90 0 -152.5 60.5t-62.5 158.5zM604 1307q0 57 44 98t106 41q59 0 102 -41t43 -98q0 -59 -43 -100.5t-102 -41.5q-61 0 -105.5 41.5t-44.5 100.5z" />
<glyph unicode="&#xf7;" horiz-adv-x="1193" d="M106 399h981v197h-981v-197zM438 133.5q0 67.5 46 110.5t114 43t115 -44t47 -110q0 -68 -47 -112t-115 -44t-114 44.5t-46 112zM438 868q0 66 46 110t114 44t115 -44t47 -110q0 -68 -47 -111.5t-115 -43.5t-114 43.5t-46 111.5z" />
<glyph unicode="&#xf8;" horiz-adv-x="1140" d="M66 45l114 119q-106 129 -106 317q0 221 143 358.5t352 137.5q168 0 308 -103l106 111l96 -94l-108 -111q96 -129 96 -299q0 -221 -144.5 -359t-353.5 -138q-162 0 -288 86l-119 -121zM354 481q0 -66 27 -110l293 299q-54 28 -105 28q-90 0 -152.5 -61.5t-62.5 -155.5z M483 279q35 -17 86 -17q92 0 154.5 60.5t62.5 158.5q0 43 -18 90z" />
<glyph unicode="&#xf9;" d="M121 385v571h285v-510q0 -102 53 -146t116 -44q74 0 123.5 47.5t49.5 147.5v505h284v-956h-284v131q-37 -70 -107 -110.5t-141 -40.5q-168 0 -273.5 104t-105.5 301zM268 1448h283l225 -344h-205z" />
<glyph unicode="&#xfa;" d="M121 385v571h285v-510q0 -102 53 -146t116 -44q74 0 123.5 47.5t49.5 147.5v505h284v-956h-284v131q-37 -70 -107 -110.5t-141 -40.5q-168 0 -273.5 104t-105.5 301zM397 1104l226 344h282l-303 -344h-205z" />
<glyph unicode="&#xfb;" d="M121 385v571h285v-510q0 -102 53 -146t116 -44q74 0 123.5 47.5t49.5 147.5v505h284v-956h-284v131q-37 -70 -107 -110.5t-141 -40.5q-168 0 -273.5 104t-105.5 301zM209 1112l223 344h283l225 -344h-205l-162 182l-159 -182h-205z" />
<glyph unicode="&#xfc;" d="M121 385v571h285v-510q0 -102 53 -146t116 -44q74 0 123.5 47.5t49.5 147.5v505h284v-956h-284v131q-37 -70 -107 -110.5t-141 -40.5q-168 0 -273.5 104t-105.5 301zM236 1307q0 57 44 98t105 41q59 0 102 -41t43 -98q0 -59 -43 -100.5t-102 -41.5q-61 0 -105 41.5 t-44 100.5zM598 1307q0 57 44 98t106 41q59 0 102 -41t43 -98q0 -59 -43 -100.5t-102 -41.5q-61 0 -105.5 41.5t-44.5 100.5z" />
<glyph unicode="&#xfd;" horiz-adv-x="1044" d="M6 956l369 -858l-230 -567h301l590 1425h-303l-213 -542l-211 542h-303zM342 1104l225 344h283l-303 -344h-205z" />
<glyph unicode="&#xfe;" horiz-adv-x="1232" d="M131 -469v1946h283v-637q35 63 111.5 100t168.5 37q190 0 326.5 -139.5t136.5 -362.5q0 -219 -136 -357t-327 -138q-92 0 -168.5 36.5t-111.5 102.5v-588h-283zM420 481q0 -100 64.5 -165.5t156.5 -65.5t156.5 63.5t64.5 167.5q0 100 -64.5 164t-156.5 64t-156.5 -62 t-64.5 -166z" />
<glyph unicode="&#xff;" horiz-adv-x="1044" d="M6 956l369 -858l-230 -567h301l590 1425h-303l-213 -542l-211 542h-303zM199 1307q0 57 44 98t105 41q59 0 102.5 -41t43.5 -98q0 -59 -43 -100.5t-103 -41.5q-61 0 -105 41.5t-44 100.5zM561 1307q0 57 44 98t106 41q59 0 102 -41t43 -98q0 -59 -43 -100.5t-102 -41.5 q-61 0 -105.5 41.5t-44.5 100.5z" />
<glyph unicode="&#x100;" horiz-adv-x="1349" d="M-12 0l524 1411h326l522 -1411h-316l-124 334h-488l-125 -334h-319zM389 1657v174h569v-174h-569zM530 594h293l-149 491z" />
<glyph unicode="&#x101;" horiz-adv-x="1253" d="M74 479q0 221 147.5 359.5t339.5 138.5q68 0 149 -28.5t130 -98.5v106h282v-956h-282v109q-41 -61 -126 -94t-153 -33q-193 0 -340 138t-147 359zM344 1202v174h569v-174h-569zM369 479.5q0 -98.5 72.5 -163t166.5 -64.5q92 0 162 62.5t70 165t-70 165t-162 62.5 q-94 0 -166.5 -64.5t-72.5 -163z" />
<glyph unicode="&#x102;" horiz-adv-x="1349" d="M-12 0l524 1411h326l522 -1411h-316l-124 334h-488l-125 -334h-319zM397 1866h174q0 -109 101 -109q98 0 98 109h178q0 -121 -76.5 -195t-199.5 -74q-133 0 -204 79t-71 190zM530 594h293l-149 491z" />
<glyph unicode="&#x103;" horiz-adv-x="1253" d="M74 479q0 221 147.5 359.5t339.5 138.5q68 0 149 -28.5t130 -98.5v106h282v-956h-282v109q-41 -61 -126 -94t-153 -33q-193 0 -340 138t-147 359zM352 1411h174q0 -109 101 -108q98 0 98 108h178q0 -121 -76.5 -194.5t-199.5 -73.5q-133 0 -204 78.5t-71 189.5z M369 479.5q0 -98.5 72.5 -163t166.5 -64.5q92 0 162 62.5t70 165t-70 165t-162 62.5q-94 0 -166.5 -64.5t-72.5 -163z" />
<glyph unicode="&#x104;" horiz-adv-x="1349" d="M-12 0l524 1411h326l522 -1411h-172l-76 -207q-23 -63 31 -86q59 -14 80 39l2 53l157 8q2 -78 -16 -120q-27 -61 -80 -97t-115 -36q-90 0 -154.5 62t-64.5 148q0 61 21 101l71 135l-124 334h-488l-125 -334h-319zM530 594h293l-149 491z" />
<glyph unicode="&#x105;" horiz-adv-x="1253" d="M74 479q0 221 147.5 359.5t339.5 138.5q68 0 149 -28.5t130 -98.5v106h282v-956h-139l-76 -207q-23 -63 31 -86q59 -14 80 39l2 53l158 8q2 -78 -17 -120q-27 -61 -80 -97t-114 -36q-90 0 -154.5 62t-64.5 148q0 61 20 101l72 135v109q-41 -61 -126 -94t-153 -33 q-193 0 -340 138t-147 359zM369 479.5q0 -98.5 72.5 -163t166.5 -64.5q92 0 162 62.5t70 165t-70 165t-162 62.5q-94 0 -166.5 -64.5t-72.5 -163z" />
<glyph unicode="&#x106;" horiz-adv-x="1431" d="M84 702q0 -301 204 -511.5t505 -210.5q188 0 343.5 82.5t249.5 226.5l-241 168q-59 -88 -151.5 -141.5t-200.5 -53.5q-174 0 -291 128t-117 312q0 186 116.5 314.5t291.5 128.5q217 0 344 -184l243 167q-94 137 -248.5 218t-338.5 81q-301 0 -505 -210.5t-204 -514.5z M678 1559l225 344h283l-303 -344h-205z" />
<glyph unicode="&#x107;" horiz-adv-x="1075" d="M74 481q0 219 153.5 357.5t366.5 138.5q127 0 236.5 -53.5t179.5 -149.5l-232 -166q-61 96 -184 97q-94 0 -166 -62.5t-72 -161.5q0 -100 72 -164.5t166 -64.5q123 0 184 96l232 -164q-68 -96 -177.5 -150t-238.5 -54q-213 0 -366.5 141t-153.5 360zM434 1104l225 344 h283l-303 -344h-205z" />
<glyph unicode="&#x108;" horiz-adv-x="1431" d="M84 702q0 303 204 514t505 211q184 0 338.5 -80.5t248.5 -218.5l-243 -167q-127 184 -344 184q-174 0 -291 -128t-117 -315q0 -184 116.5 -312t291.5 -128q109 0 201 53.5t151 141.5l241 -168q-94 -143 -249.5 -226t-343.5 -83q-301 0 -505 210.5t-204 511.5zM420 1567 l223 344h283l225 -344h-205l-162 182l-159 -182h-205z" />
<glyph unicode="&#x109;" horiz-adv-x="1075" d="M74 481q0 219 153.5 357.5t366.5 138.5q127 0 236.5 -53.5t179.5 -149.5l-232 -166q-61 96 -184 97q-94 0 -166 -62.5t-72 -161.5q0 -100 72 -164.5t166 -64.5q123 0 184 96l232 -164q-68 -96 -177.5 -150t-238.5 -54q-213 0 -366.5 141t-153.5 360zM213 1112l223 344 h283l225 -344h-205l-161 182l-160 -182h-205z" />
<glyph unicode="&#x10a;" horiz-adv-x="1431" d="M84 702q0 -301 204 -511.5t505 -210.5q188 0 343.5 82.5t249.5 226.5l-241 168q-59 -88 -151.5 -141.5t-200.5 -53.5q-174 0 -291 128t-117 312q0 186 116.5 314.5t291.5 128.5q217 0 344 -184l243 167q-94 137 -248.5 218t-338.5 81q-301 0 -505 -210.5t-204 -514.5z M627 1776q0 63 46 107t111.5 44t111.5 -44t46 -107q0 -68 -45 -111t-112.5 -43t-112.5 43t-45 111z" />
<glyph unicode="&#x10b;" horiz-adv-x="1075" d="M74 481q0 219 153.5 357.5t366.5 138.5q127 0 236.5 -53.5t179.5 -149.5l-232 -166q-61 96 -184 97q-94 0 -166 -62.5t-72 -161.5q0 -100 72 -164.5t166 -64.5q123 0 184 96l232 -164q-68 -96 -177.5 -150t-238.5 -54q-213 0 -366.5 141t-153.5 360zM414 1321 q0 63 46 107.5t111.5 44.5t111.5 -44.5t46 -107.5q0 -68 -45 -111t-112.5 -43t-112.5 43t-45 111z" />
<glyph unicode="&#x10c;" horiz-adv-x="1431" d="M84 702q0 303 204 514t505 211q184 0 338.5 -80.5t248.5 -218.5l-243 -167q-127 184 -344 184q-174 0 -291 -128t-117 -315q0 -184 116.5 -312t291.5 -128q109 0 201 53.5t151 141.5l241 -168q-94 -143 -249.5 -226t-343.5 -83q-301 0 -505 210.5t-204 511.5zM403 1901 h205l160 -183l162 183h205l-226 -345h-282z" />
<glyph unicode="&#x10d;" horiz-adv-x="1075" d="M74 481q0 219 153.5 357.5t366.5 138.5q127 0 236.5 -53.5t179.5 -149.5l-232 -166q-61 96 -184 97q-94 0 -166 -62.5t-72 -161.5q0 -100 72 -164.5t166 -64.5q123 0 184 96l232 -164q-68 -96 -177.5 -150t-238.5 -54q-213 0 -366.5 141t-153.5 360zM199 1446h204 l160 -182l162 182h205l-225 -344h-283z" />
<glyph unicode="&#x10e;" horiz-adv-x="1447" d="M166 0v1411h553q297 0 467 -199.5t170 -509t-170 -506t-467 -196.5h-553zM334 1901h205l159 -183l162 183h205l-225 -345h-283zM465 272h254q162 0 250 123t88 307q0 186 -88 311.5t-250 125.5h-254v-867z" />
<glyph unicode="&#x10f;" horiz-adv-x="1300" d="M76 475q0 223 136 362.5t327 139.5q92 0 168.5 -37t111.5 -100v637h283v-1477h-283v119q-35 -66 -111.5 -102.5t-168.5 -36.5q-190 0 -326.5 138t-136.5 357zM371 481q0 -104 64.5 -167.5t156.5 -63.5t156.5 65.5t64.5 165.5q0 104 -64.5 166t-156.5 62t-156.5 -63.5 t-64.5 -164.5zM1163 1010q68 94 94.5 180t24.5 221h240q-24 -311 -219 -473z" />
<glyph unicode="&#x110;" horiz-adv-x="1478" d="M4 582v200h193v629h553q297 0 466.5 -199.5t169.5 -509t-169.5 -506t-466.5 -196.5h-553v582h-193zM496 272h254q162 0 249.5 123t87.5 307q0 186 -88 311.5t-249 125.5h-254v-357h252v-200h-252v-310z" />
<glyph unicode="&#x111;" horiz-adv-x="1232" d="M76 475q0 223 136 362.5t327 139.5q92 0 168.5 -37t111.5 -100v301h-305v176h305v160h283v-160h155v-176h-155v-1141h-283v119q-35 -66 -111.5 -102.5t-168.5 -36.5q-190 0 -326.5 138t-136.5 357zM371 481q0 -104 64.5 -167.5t156.5 -63.5t156.5 65.5t64.5 165.5 q0 104 -64.5 166t-156.5 62t-156.5 -63.5t-64.5 -164.5z" />
<glyph unicode="&#x112;" horiz-adv-x="1179" d="M166 0v1411h893v-264h-594v-322h520v-260h-520v-301h612v-264h-911zM295 1657v174h569v-174h-569z" />
<glyph unicode="&#x113;" horiz-adv-x="1126" d="M74 481q0 221 144 358.5t355 137.5q209 0 349.5 -140.5t140.5 -363.5q0 -39 -4 -88h-701q10 -78 81 -119t155 -41q139 0 209 90l207 -141q-131 -195 -437 -194q-211 0 -355 140t-144 361zM283 1202v174h569v-174h-569zM362 563h414q-10 80 -70.5 122t-130 42t-133.5 -41 t-80 -123z" />
<glyph unicode="&#x116;" horiz-adv-x="1179" d="M166 0h911v264h-612v301h520v260h-520v322h594v264h-893v-1411zM442 1776q0 63 46.5 107t112 44t111.5 -44t46 -107q0 -68 -45 -111t-113 -43t-113 43t-45 111z" />
<glyph unicode="&#x117;" horiz-adv-x="1126" d="M74 481q0 221 144 358.5t355 137.5q209 0 349.5 -140.5t140.5 -363.5q0 -39 -4 -88h-701q10 -78 81 -119t155 -41q139 0 209 90l207 -141q-131 -195 -437 -194q-211 0 -355 140t-144 361zM362 563h414q-10 80 -70.5 122t-130 42t-133.5 -41t-80 -123zM410 1321 q0 63 46 107.5t111.5 44.5t111.5 -44.5t46 -107.5q0 -68 -45 -111t-112.5 -43t-112.5 43t-45 111z" />
<glyph unicode="&#x118;" horiz-adv-x="1179" d="M166 0v1411h893v-264h-594v-322h520v-260h-520v-301h612v-264l-78 -207q-25 -61 31 -86q60 -14 80 39l2 53l158 8q2 -78 -17 -120q-27 -61 -80 -97t-114 -36q-90 0 -154.5 62t-64.5 148q0 57 20 101l72 135h-766z" />
<glyph unicode="&#x119;" horiz-adv-x="1128" d="M74 481q0 221 144 358.5t355 137.5q209 0 349.5 -140.5t140.5 -363.5q0 -39 -4 -88h-701q10 -78 81 -119t155 -41q139 0 209 90l207 -141q-8 -10 -41 -47t-60.5 -72t-60.5 -105.5t-51 -156.5q-6 -39 0 -57.5t30 -28.5q59 -14 80 39l2 53l158 8q2 -78 -16 -120 q-27 -61 -80 -97t-115 -36q-90 0 -154.5 62t-64.5 148q0 61 20 101l70 131q-78 -16 -154 -16q-211 0 -355 140t-144 361zM362 563h414q-10 80 -70.5 122t-130 42t-133.5 -41t-80 -123z" />
<glyph unicode="&#x11a;" horiz-adv-x="1179" d="M166 0v1411h893v-264h-594v-322h520v-260h-520v-301h612v-264h-911zM215 1901h205l160 -183l161 183h205l-225 -345h-283z" />
<glyph unicode="&#x11b;" horiz-adv-x="1126" d="M74 481q0 221 144 358.5t355 137.5q209 0 349.5 -140.5t140.5 -363.5q0 -39 -4 -88h-701q10 -78 81 -119t155 -41q139 0 209 90l207 -141q-131 -195 -437 -194q-211 0 -355 140t-144 361zM203 1446h205l159 -182l162 182h205l-225 -344h-283zM362 563h414 q-10 80 -70.5 122t-130 42t-133.5 -41t-80 -123z" />
<glyph unicode="&#x11c;" horiz-adv-x="1548" d="M84 702q0 301 210 513t513 212q160 0 298 -61t232 -170l-221 -190q-127 143 -309 143q-178 0 -300 -131t-122 -315.5t123 -316.5t299 -132q123 0 231.5 68.5t110.5 175.5h-379v243h725q0 -383 -185.5 -572t-502.5 -189q-303 0 -513 211.5t-210 510.5zM416 1567l223 344 h283l225 -344h-205l-162 182l-159 -182h-205z" />
<glyph unicode="&#x11d;" horiz-adv-x="1245" d="M74 475q0 221 142 361.5t335 140.5q92 0 172 -38t115 -101v118h276v-823q0 -303 -140 -456.5t-401 -153.5q-158 0 -283.5 81t-187.5 216q37 18 116 56t114 56q25 -66 96.5 -109.5t144.5 -43.5q287 0 265 340q-33 -63 -114 -101t-173 -38q-193 0 -335 139t-142 356z M258 1112l223 344h283l225 -344h-205l-161 182l-160 -182h-205zM371 481q0 -104 67.5 -168.5t161.5 -64.5q92 0 161.5 66.5t69.5 166.5q0 102 -68.5 164t-162.5 62t-161.5 -63.5t-67.5 -162.5z" />
<glyph unicode="&#x11e;" horiz-adv-x="1548" d="M84 702q0 301 210 513t513 212q160 0 298 -61t232 -170l-221 -190q-127 143 -309 143q-178 0 -300 -131t-122 -315.5t123 -316.5t299 -132q123 0 231.5 68.5t110.5 175.5h-379v243h725q0 -383 -185.5 -572t-502.5 -189q-303 0 -513 211.5t-210 510.5zM506 1866h174 q0 -109 100 -109q98 0 99 109h178q0 -121 -77 -195t-200 -74q-133 0 -203.5 79t-70.5 190z" />
<glyph unicode="&#x11f;" horiz-adv-x="1245" d="M74 475q0 -217 142 -356t335 -139q92 0 173 37.5t114 101.5q23 -340 -265 -340q-74 0 -145 43.5t-96 109.5q-35 -18 -114 -56t-116 -56q61 -135 187.5 -216t283.5 -81q260 0 400.5 153.5t140.5 456.5v823h-276v-118q-35 63 -115 101t-172 38q-193 0 -335 -140.5 t-142 -361.5zM348 1411h174q0 -109 101 -108q98 0 98 108h178q0 -121 -77 -194.5t-199 -73.5q-133 0 -204 78.5t-71 189.5zM371 481q0 98 67.5 162t161.5 64t162.5 -62t68.5 -164q0 -100 -69.5 -166.5t-161.5 -66.5q-94 0 -161.5 64.5t-67.5 168.5z" />
<glyph unicode="&#x120;" horiz-adv-x="1548" d="M84 702q0 301 210 513t513 212q160 0 298 -61t232 -170l-221 -190q-127 143 -309 143q-178 0 -300 -131t-122 -315.5t123 -316.5t299 -132q123 0 231.5 68.5t110.5 175.5h-379v243h725q0 -383 -185.5 -572t-502.5 -189q-303 0 -513 211.5t-210 510.5zM623 1776 q0 63 46 107t111.5 44t111.5 -44t46 -107q0 -68 -45 -111t-112.5 -43t-112.5 43t-45 111z" />
<glyph unicode="&#x121;" horiz-adv-x="1245" d="M74 475q0 -217 142 -356t335 -139q92 0 173 37.5t114 101.5q23 -340 -265 -340q-74 0 -145 43.5t-96 109.5q-35 -18 -114 -56t-116 -56q61 -135 187.5 -216t283.5 -81q260 0 400.5 153.5t140.5 456.5v823h-276v-118q-35 63 -115 101t-172 38q-193 0 -335 -140.5 t-142 -361.5zM371 481q0 98 67.5 162t161.5 64t162.5 -62t68.5 -164q0 -100 -69.5 -166.5t-161.5 -66.5q-94 0 -161.5 64.5t-67.5 168.5zM467 1321q0 63 46 107.5t111.5 44.5t111.5 -44.5t46 -107.5q0 -68 -45 -111t-112.5 -43t-112.5 43t-45 111z" />
<glyph unicode="&#x122;" horiz-adv-x="1548" d="M84 702q0 301 210 513t513 212q160 0 298 -61t232 -170l-221 -190q-127 143 -309 143q-178 0 -300 -131t-122 -315.5t123 -316.5t299 -132q123 0 231.5 68.5t110.5 175.5h-379v243h725q0 -383 -185.5 -572t-502.5 -189q-303 0 -513 211.5t-210 510.5zM602 -516 q68 94 94.5 180t24.5 221h240q-25 -311 -220 -473z" />
<glyph unicode="&#x123;" horiz-adv-x="1245" d="M74 475q0 -217 142 -356t335 -139q92 0 173 37.5t114 101.5q23 -340 -265 -340q-74 0 -145 43.5t-96 109.5q-35 -18 -114 -56t-116 -56q61 -135 187.5 -216t283.5 -81q260 0 400.5 153.5t140.5 456.5v823h-276v-118q-35 63 -115 101t-172 38q-193 0 -335 -140.5 t-142 -361.5zM371 481q0 98 67.5 162t161.5 64t162.5 -62t68.5 -164q0 -100 -69.5 -166.5t-161.5 -66.5q-94 0 -161.5 64.5t-67.5 168.5zM438 1135q24 311 219 473l140 -72q-68 -94 -94.5 -180t-24.5 -221h-240z" />
<glyph unicode="&#x124;" horiz-adv-x="1435" d="M166 0v1411h299v-575h502v575h303v-1411h-303v567h-502v-567h-299zM352 1567l223 344h283l225 -344h-204l-162 182l-160 -182h-205z" />
<glyph unicode="&#x125;" horiz-adv-x="1185" d="M-94 1581l223 344h283l225 -344h-205l-162 182l-159 -182h-205zM131 0v1477h285v-670q27 82 108.5 126t159.5 44q186 0 284.5 -119t98.5 -338v-520h-285v510q0 88 -53 139t-123 51q-78 0 -134 -47t-56 -147v-506h-285z" />
<glyph unicode="&#x126;" horiz-adv-x="1464" d="M33 1049v165h147v197h299v-197h502v197h303v-197h148v-165h-148v-1049h-303v567h-502v-567h-299v1049h-147zM479 836h502v213h-502v-213z" />
<glyph unicode="&#x127;" horiz-adv-x="1185" d="M-25 1141v176h156v160h285v-160h303v-176h-303v-334q27 82 108.5 126t159.5 44q186 0 284.5 -119t98.5 -338v-520h-285v510q0 88 -53 139t-123 51q-78 0 -134 -47t-56 -147v-506h-285v1141h-156z" />
<glyph unicode="&#x12a;" horiz-adv-x="630" d="M31 1657v174h569v-174h-569zM166 0v1411h299v-1411h-299z" />
<glyph unicode="&#x12b;" horiz-adv-x="542" d="M-16 1202v174h569v-174h-569zM131 0v956h281v-956h-281z" />
<glyph unicode="&#x12e;" horiz-adv-x="630" d="M72 -236q0 61 20 101l72 135v1411h299v-1411h-156l-76 -207q-23 -63 31 -86q59 -14 80 39l2 53l158 8q2 -78 -17 -120q-27 -61 -80 -97t-114 -36q-90 0 -154.5 62t-64.5 148z" />
<glyph unicode="&#x12f;" horiz-adv-x="544" d="M39 -236q0 -86 64.5 -148t154.5 -62q61 0 114.5 35.5t80.5 97.5q18 43 16 120l-158 -8q4 -27 -2 -53q-20 -53 -80 -39q-53 23 -30 86l75 207h140v956h-283v-956l-72 -135q-20 -37 -20 -101zM94 1310.5q0 69.5 52.5 118t125.5 48.5q72 0 123 -48.5t51 -118t-51 -118.5 t-123 -49q-74 0 -126 49t-52 118.5z" />
<glyph unicode="&#x130;" horiz-adv-x="630" d="M158 1776q0 63 46 107t111.5 44t111.5 -44t46 -107q0 -68 -45 -111t-112.5 -43t-112.5 43t-45 111zM166 0v1411h299v-1411h-299z" />
<glyph unicode="&#x131;" horiz-adv-x="544" d="M131 0v956h283v-956h-283z" />
<glyph unicode="&#x134;" horiz-adv-x="632" d="M-203 -449l27 271q66 -23 180 -23q82 0 122 54.5t40 140.5v1417h301v-1417q0 -211 -112.5 -344t-350.5 -133q-64 -1 -207 34zM-49 1567l223 344h283l225 -344h-205l-162 182l-159 -182h-205z" />
<glyph unicode="&#x135;" horiz-adv-x="548" d="M-119 -223h125q129 0 125 151v1028h287v-1022q0 -201 -84 -308t-279 -107h-174v258zM-66 1112l224 344h282l226 -344h-205l-162 182l-160 -182h-205z" />
<glyph unicode="&#x136;" horiz-adv-x="1247" d="M166 0v1411h303v-463l334 463h352l-534 -698l661 -713h-389l-424 479v-479h-303zM451 -516q68 94 94 180t24 221h240q-24 -311 -219 -473z" />
<glyph unicode="&#x137;" horiz-adv-x="1077" d="M131 0v1477h283v-783l227 262h363l-398 -421l477 -535h-350l-319 379v-379h-283zM334 -516q68 94 94.5 180t24.5 221h239q-24 -311 -219 -473z" />
<glyph unicode="&#x139;" horiz-adv-x="1046" d="M166 0h829v264h-528v1147h-301v-1411zM170 1559l225 344h283l-303 -344h-205z" />
<glyph unicode="&#x13a;" horiz-adv-x="546" d="M131 0v1477h285v-1477h-285zM133 1579l225 344h283l-303 -344h-205z" />
<glyph unicode="&#x13b;" horiz-adv-x="1046" d="M166 0v1411h301v-1147h528v-264h-829zM340 -516q68 94 94.5 180t24.5 221h239q-24 -311 -219 -473z" />
<glyph unicode="&#x13c;" horiz-adv-x="546" d="M43 -516q68 94 94.5 180t24.5 221h239q-24 -311 -219 -473zM131 0v1477h285v-1477h-285z" />
<glyph unicode="&#x13d;" horiz-adv-x="1056" d="M166 0v1411h301v-1147h528v-264h-829zM606 936q154 217 152 475h239q-14 -186 -77.5 -328.5t-141.5 -205.5z" />
<glyph unicode="&#x13e;" horiz-adv-x="636" d="M131 0v1477h285v-1477h-285zM477 1001q154 217 152 476h239q-14 -186 -77.5 -329t-141.5 -206z" />
<glyph unicode="&#x13f;" horiz-adv-x="1046" d="M166 0v1411h301v-1147h528v-264h-829zM612 629q0 63 46.5 107t112 44t111.5 -44t46 -107q0 -68 -45 -111t-113 -43t-113 43t-45 111z" />
<glyph unicode="&#x140;" horiz-adv-x="778" d="M131 0v1477h285v-1477h-285zM504 629q0 63 46 107t111.5 44t111.5 -44t46 -107q0 -68 -45 -111t-112.5 -43t-112.5 43t-45 111z" />
<glyph unicode="&#x141;" horiz-adv-x="1062" d="M35 504v194l147 93v620h301v-432l191 119v-195l-191 -119v-520h529v-264h-830v596z" />
<glyph unicode="&#x142;" horiz-adv-x="647" d="M29 471v195l178 110v701h285v-523l176 111v-195l-176 -110v-760h-285v582z" />
<glyph unicode="&#x143;" horiz-adv-x="1390" d="M166 0h299v854l491 -854h269v1411h-301v-844l-484 844h-274v-1411zM569 1559l226 344h282l-303 -344h-205z" />
<glyph unicode="&#x144;" d="M131 0v956h285v-139q39 72 115.5 116t160.5 44q166 0 258 -102.5t92 -303.5v-571h-284v510q0 92 -45 141t-121 49q-176 1 -176 -194v-506h-285zM422 1104l225 344h283l-303 -344h-205z" />
<glyph unicode="&#x145;" horiz-adv-x="1390" d="M166 0v1411h274l484 -831v831h301v-1411h-269l-491 842v-842h-299zM483 -516q68 94 94.5 180t24.5 221h240q-24 -311 -219 -473z" />
<glyph unicode="&#x146;" d="M131 0v956h285v-139q39 72 115.5 116t160.5 44q166 0 258 -102.5t92 -303.5v-571h-284v510q0 92 -45 141t-121 49q-176 1 -176 -194v-506h-285zM381 -516q68 94 94.5 180t24.5 221h239q-24 -311 -219 -473z" />
<glyph unicode="&#x147;" horiz-adv-x="1390" d="M166 0v1411h274l484 -844v844h301v-1411h-269l-491 854v-854h-299zM330 1901h205l159 -183l162 183h205l-225 -345h-283z" />
<glyph unicode="&#x148;" d="M131 0v956h285v-139q39 72 115.5 116t160.5 44q166 0 258 -102.5t92 -303.5v-571h-284v510q0 92 -45 141t-121 49q-176 1 -176 -194v-506h-285zM215 1446h205l160 -182l161 182h205l-225 -344h-283z" />
<glyph unicode="&#x150;" horiz-adv-x="1599" d="M84 702q0 301 208 513t507 212q301 0 509 -211.5t208 -513.5q0 -299 -209 -510.5t-508 -211.5t-507 211.5t-208 510.5zM383 702.5q0 -178.5 121 -302.5t295 -124t296 125t122 301q0 178 -122 303t-296 125t-295 -124.5t-121 -303zM549 1556l225 345h227l-247 -345h-205z M850 1556l252 345h233l-270 -345h-215z" />
<glyph unicode="&#x151;" horiz-adv-x="1140" d="M74 481q0 221 143 358.5t352 137.5t353.5 -137.5t144.5 -358.5t-144.5 -359t-353.5 -138t-352 138t-143 359zM315 1102l226 344h227l-248 -344h-205zM354 481q0 -98 62.5 -158.5t152.5 -60.5q92 0 154.5 60.5t62.5 158.5q0 94 -63.5 155.5t-153.5 61.5t-152.5 -61.5 t-62.5 -155.5zM616 1102l252 344h234l-271 -344h-215z" />
<glyph unicode="&#x152;" horiz-adv-x="2234" d="M84 702q0 301 208 513t507 212q256 1 422 -157v141h893v-264h-594v-322h520v-260h-520v-301h612v-264h-911v137q-176 -158 -422 -157q-299 0 -507 211.5t-208 510.5zM383 702.5q0 -178.5 121 -302.5t295 -124t296 125t122 301q0 178 -122 303t-296 125t-295 -124.5 t-121 -303z" />
<glyph unicode="&#x153;" horiz-adv-x="1845" d="M74 481q0 221 143 358.5t352 137.5q215 0 361 -146q141 145 362 146q207 0 348.5 -140.5t141.5 -363.5q0 -39 -4 -88h-701q10 -78 81 -119t155 -41q139 0 209 90l207 -141q-131 -195 -437 -194q-219 -1 -364 149q-141 -145 -359 -145q-209 0 -352 138t-143 359zM354 481 q0 -98 62.5 -158.5t152.5 -60.5q92 0 154.5 60.5t62.5 158.5q0 94 -63.5 155.5t-153.5 61.5t-152.5 -61.5t-62.5 -155.5zM1081 563h414q-10 80 -70.5 122t-130 42t-133.5 -41t-80 -123z" />
<glyph unicode="&#x154;" horiz-adv-x="1304" d="M166 0h301v487h68l315 -487h360l-350 500q172 37 262 161.5t90 286.5q0 190 -121.5 326.5t-347.5 136.5h-577v-1411zM467 750v397h262q78 0 124 -62.5t46 -136.5q0 -76 -48 -137t-130 -61h-254zM473 1559l225 344h283l-303 -344h-205z" />
<glyph unicode="&#x155;" horiz-adv-x="866" d="M131 0v956h285v-231q35 125 111.5 188.5t158.5 63.5q94 0 164 -35l-51 -256q-59 29 -146 29q-237 0 -237 -381v-334h-285zM147 1104l226 344h282l-303 -344h-205z" />
<glyph unicode="&#x158;" horiz-adv-x="1304" d="M166 0v1411h577q225 0 347 -136t122 -327q0 -162 -90 -286.5t-262 -161.5l350 -500h-360l-315 487h-68v-487h-301zM279 1901h204l160 -183l162 183h205l-226 -345h-282zM467 750h254q82 0 130 61t48 137q0 74 -46 136.5t-124 62.5h-262v-397z" />
<glyph unicode="&#x159;" horiz-adv-x="866" d="M84 1446h205l160 -182l161 182h205l-225 -344h-283zM131 0v956h285v-231q35 125 111.5 188.5t158.5 63.5q94 0 164 -35l-51 -256q-59 29 -146 29q-237 0 -237 -381v-334h-285z" />
<glyph unicode="&#x15a;" horiz-adv-x="1191" d="M90 414q0 -193 141.5 -315t370.5 -122q131 0 242.5 43t187.5 140.5t78 230.5q10 311 -387 426l-168 53q-152 43 -152 144q0 61 51.5 101t131.5 40q88 0 135 -44t47 -116h299q0 199 -134 315.5t-343 116.5q-207 0 -346.5 -117.5t-139.5 -303.5q0 -293 365 -406l170 -47 q100 -29 136 -68t34 -92q-2 -68 -58.5 -108.5t-148.5 -40.5q-96 0 -151.5 49t-59.5 121h-301zM465 1559l225 344h283l-303 -344h-205z" />
<glyph unicode="&#x15b;" horiz-adv-x="956" d="M74 309q2 -152 121.5 -240.5t277.5 -88.5q166 0 290 77.5t124 221.5q0 43 -14.5 87t-77 103t-168.5 88l-162 43q-80 20 -84 72q-2 33 25.5 52t74.5 19q106 0 109 -84h268q-2 162 -116.5 240t-276.5 78q-150 0 -260.5 -83t-112.5 -189q-2 -45 4 -77t30 -80t88.5 -88 t164.5 -67l125 -33q51 -14 72.5 -32.5t21.5 -48.5q0 -35 -34 -56.5t-83 -23.5q-57 0 -98 33.5t-43 76.5h-266zM346 1104l225 344h283l-303 -344h-205z" />
<glyph unicode="&#x15c;" horiz-adv-x="1191" d="M90 414h301q4 -72 59.5 -121t151.5 -49q92 0 148.5 41t58.5 108q2 53 -34 92t-136 68l-170 47q-365 113 -365 406q0 186 139.5 303.5t346.5 117.5q209 0 343 -116.5t134 -315.5h-299q0 72 -47 116t-135 44q-80 0 -131.5 -40t-51.5 -101q0 -100 152 -144l168 -53 q397 -115 387 -426q-2 -133 -78 -230.5t-187.5 -140.5t-242.5 -43q-229 0 -370.5 122t-141.5 315zM236 1567l223 344h282l226 -344h-205l-162 182l-160 -182h-204z" />
<glyph unicode="&#x15d;" horiz-adv-x="956" d="M74 309h266q2 -43 43 -76.5t98 -33.5q49 2 83 23.5t34 56.5q0 31 -21.5 49t-72.5 32l-125 33q-100 27 -164.5 67t-88.5 88t-30 79.5t-4 77.5q2 106 112.5 189t260.5 83q162 0 276.5 -78t116.5 -240h-268q-2 84 -109 84q-47 0 -74.5 -19t-25.5 -52q4 -51 84 -72l162 -43 q106 -29 168.5 -88t77 -103t14.5 -87q0 -143 -124 -221t-290 -78q-158 0 -277.5 89t-121.5 240zM115 1112l223 344h283l225 -344h-205l-162 182l-160 -182h-204z" />
<glyph unicode="&#x15e;" horiz-adv-x="1189" d="M88 414h301q4 -72 59.5 -121t151.5 -49q92 0 148.5 41t58.5 108q2 53 -34 92t-136 68l-170 47q-365 113 -365 406q0 186 139.5 303.5t346.5 117.5q209 0 343 -116.5t134 -315.5h-299q0 72 -47 116t-135 44q-80 0 -131.5 -40t-51.5 -101q0 -100 152 -144l168 -53 q397 -115 387 -426q-2 -166 -109.5 -268.5t-271.5 -132.5l68 -125q20 -33 20 -101q0 -86 -64.5 -148t-154.5 -62q-61 0 -114.5 35.5t-80.5 97.5q-18 43 -16 120l158 -8q-4 -26 2 -53q20 -53 80 -39q55 25 30 86l-67 184q-225 4 -362.5 125t-137.5 312z" />
<glyph unicode="&#x15f;" horiz-adv-x="958" d="M74 309h266q2 -43 43 -76.5t98 -33.5q49 2 83 23.5t34 56.5q0 31 -21.5 49t-72.5 32l-125 33q-100 27 -164.5 67t-88.5 88t-30 79.5t-4 77.5q2 106 112.5 189t260.5 83q162 0 276.5 -78t116.5 -240h-268q-2 84 -109 84q-47 0 -74.5 -19t-25.5 -52q4 -51 84 -72l162 -43 q106 -29 168.5 -88t77 -103t14.5 -87q0 -113 -79 -186t-202 -99l70 -129q20 -33 20 -101q0 -86 -64.5 -148t-154.5 -62q-61 0 -114.5 35.5t-79.5 97.5q-18 43 -17 120l158 -8q-4 -26 2 -53q20 -53 80 -39q55 25 31 86l-70 187q-156 2 -273.5 91t-119.5 238z" />
<glyph unicode="&#x160;" horiz-adv-x="1191" d="M90 414h301q4 -72 59.5 -121t151.5 -49q92 0 148.5 41t58.5 108q2 53 -34 92t-136 68l-170 47q-365 113 -365 406q0 186 139.5 303.5t346.5 117.5q209 0 343 -116.5t134 -315.5h-299q0 72 -47 116t-135 44q-80 0 -131.5 -40t-51.5 -101q0 -100 152 -144l168 -53 q397 -115 387 -426q-2 -133 -78 -230.5t-187.5 -140.5t-242.5 -43q-229 0 -370.5 122t-141.5 315zM236 1901h204l160 -183l162 183h205l-226 -345h-282z" />
<glyph unicode="&#x161;" horiz-adv-x="956" d="M74 309h266q2 -43 43 -76.5t98 -33.5q49 2 83 23.5t34 56.5q0 31 -21.5 49t-72.5 32l-125 33q-100 27 -164.5 67t-88.5 88t-30 79.5t-4 77.5q2 106 112.5 189t260.5 83q162 0 276.5 -78t116.5 -240h-268q-2 84 -109 84q-47 0 -74.5 -19t-25.5 -52q4 -51 84 -72l162 -43 q106 -29 168.5 -88t77 -103t14.5 -87q0 -143 -124 -221t-290 -78q-158 0 -277.5 89t-121.5 240zM115 1446h204l160 -182l162 182h205l-225 -344h-283z" />
<glyph unicode="&#x162;" horiz-adv-x="1179" d="M57 1141v270h1065v-270h-381v-1141h-303v1141h-381zM356 -516q68 94 94.5 180t24.5 221h240q-24 -311 -219 -473z" />
<glyph unicode="&#x163;" horiz-adv-x="747" d="M47 731v225h174v367h283v-367h201v-225h-201v-731h-283v731h-174zM127 -516q68 94 94.5 180t24.5 221h239q-24 -311 -219 -473z" />
<glyph unicode="&#x164;" horiz-adv-x="1179" d="M57 1141v270h1065v-270h-381v-1141h-303v1141h-381zM225 1901h205l160 -183l162 183h204l-225 -345h-282z" />
<glyph unicode="&#x165;" horiz-adv-x="747" d="M47 731v225h174v367h283v-367h201v-225h-201v-731h-283v731h-174zM592 1141q68 94 94.5 180t24.5 221h239q-24 -311 -219 -473z" />
<glyph unicode="&#x16a;" horiz-adv-x="1396" d="M152 504v907h305v-907q0 -106 72.5 -174t171 -68t171 68.5t72.5 173.5v907h301v-907q0 -233 -159.5 -378.5t-385 -145.5t-387 145t-161.5 379zM414 1657v174h569v-174h-569z" />
<glyph unicode="&#x16b;" d="M121 385v571h285v-510q0 -102 53 -146t116 -44q74 0 123.5 47.5t49.5 147.5v505h284v-956h-284v131q-37 -70 -107 -110.5t-141 -40.5q-168 0 -273.5 104t-105.5 301zM311 1202v174h570v-174h-570z" />
<glyph unicode="&#x16c;" horiz-adv-x="1396" d="M152 504v907h305v-907q0 -106 72.5 -174t171 -68t171 68.5t72.5 173.5v907h301v-907q0 -233 -159.5 -378.5t-385 -145.5t-387 145t-161.5 379zM422 1866h174q0 -109 100 -109q98 0 99 109h178q0 -121 -77 -195t-200 -74q-133 0 -203.5 79t-70.5 190z" />
<glyph unicode="&#x16d;" d="M121 385v571h285v-510q0 -102 53 -146t116 -44q74 0 123.5 47.5t49.5 147.5v505h284v-956h-284v131q-37 -70 -107 -110.5t-141 -40.5q-168 0 -273.5 104t-105.5 301zM322 1411h174q0 -109 100 -108q98 0 98 108h178q0 -121 -76.5 -194.5t-199.5 -73.5q-133 0 -203.5 78.5 t-70.5 189.5z" />
<glyph unicode="&#x16e;" horiz-adv-x="1396" d="M152 504v907h305v-907q0 -106 72.5 -174t171 -68t171 68.5t72.5 173.5v907h301v-907q0 -233 -159.5 -378.5t-385 -145.5t-387 145t-161.5 379zM451 1804q0 106 71.5 179t173.5 73q104 0 177 -72.5t73 -179.5q0 -102 -72.5 -173.5t-177.5 -71.5q-102 0 -173.5 71.5 t-71.5 173.5zM584 1804q0 -47 32.5 -79.5t79.5 -32.5q49 0 83 32.5t34 79.5q0 51 -34 85t-83 34q-47 0 -79.5 -34t-32.5 -85z" />
<glyph unicode="&#x16f;" d="M121 385v571h285v-510q0 -102 53 -146t116 -44q74 0 123.5 47.5t49.5 147.5v505h284v-956h-284v131q-37 -70 -107 -110.5t-141 -40.5q-168 0 -273.5 104t-105.5 301zM348 1350q0 106 72 179t174 73q104 0 177 -73t73 -179q0 -102 -73 -174t-177 -72q-102 0 -174 72 t-72 174zM481 1350q0 -47 33 -80t80 -33q49 0 83 33t34 80q0 51 -34 84.5t-83 33.5q-47 0 -80 -33.5t-33 -84.5z" />
<glyph unicode="&#x170;" horiz-adv-x="1396" d="M152 504v907h305v-907q0 -106 72.5 -174t171 -68t171 68.5t72.5 173.5v907h301v-907q0 -233 -159.5 -378.5t-385 -145.5t-387 145t-161.5 379zM379 1556l225 345h227l-247 -345h-205zM680 1556l252 345h233l-270 -345h-215z" />
<glyph unicode="&#x171;" d="M121 385v571h285v-510q0 -102 53 -146t116 -44q74 0 123.5 47.5t49.5 147.5v505h284v-956h-284v131q-37 -70 -107 -110.5t-141 -40.5q-168 0 -273.5 104t-105.5 301zM281 1102l225 344h227l-248 -344h-204zM582 1102l252 344h233l-270 -344h-215z" />
<glyph unicode="&#x172;" horiz-adv-x="1400" d="M154 504v907h305v-907q0 -106 72.5 -174t171 -68t171 68.5t72.5 173.5v907h301v-907q0 -219 -142 -361.5t-349 -160.5l-70 -189q-23 -63 31 -86q59 -14 80 39l2 53l157 8q2 -78 -16 -120q-27 -61 -80 -97t-115 -36q-90 0 -154.5 62t-64.5 148q0 57 21 101l65 123 q-197 29 -327.5 168t-130.5 348z" />
<glyph unicode="&#x173;" d="M121 385v571h285v-510q0 -102 53 -146t116 -44q74 0 123.5 47t49.5 148v505h284v-956h-143l-76 -207q-23 -63 31 -86q59 -14 80 39l2 53l157 8q2 -78 -16 -120q-27 -61 -80 -97t-115 -36q-90 0 -154.5 62t-64.5 148q1 58 21 101l74 135v131q-37 -70 -107 -110.5 t-141 -40.5q-168 0 -273.5 104t-105.5 301z" />
<glyph unicode="&#x178;" horiz-adv-x="1333" d="M-31 1411h357l340 -528l344 528h356l-547 -776v-635h-305v639zM338 1761q0 57 44 98.5t105 41.5q59 0 102.5 -41t43.5 -99q0 -59 -43 -100t-103 -41q-61 0 -105 41t-44 100zM700 1761q0 57 44 98.5t106 41.5q59 0 102 -41t43 -99q0 -59 -43 -100t-102 -41 q-61 0 -105.5 41t-44.5 100z" />
<glyph unicode="&#x179;" horiz-adv-x="1218" d="M86 0v227l645 920h-618v264h1007v-227l-651 -920h651v-264h-1034zM461 1559l225 344h283l-303 -344h-205z" />
<glyph unicode="&#x17a;" horiz-adv-x="1044" d="M84 0h862v262h-459l459 481v213h-833v-262h422l-451 -483v-211zM383 1104l225 344h283l-303 -344h-205z" />
<glyph unicode="&#x17b;" horiz-adv-x="1218" d="M86 0v227l645 920h-618v264h1007v-227l-651 -920h651v-264h-1034zM444 1776q0 63 46.5 107t112 44t111.5 -44t46 -107q0 -68 -45 -111t-112.5 -43t-113 43t-45.5 111z" />
<glyph unicode="&#x17c;" horiz-adv-x="1044" d="M84 0h862v262h-459l459 481v213h-833v-262h422l-451 -483v-211zM356 1321q0 63 46.5 107.5t112 44.5t111.5 -44.5t46 -107.5q0 -68 -45 -111t-113 -43t-113 43t-45 111z" />
<glyph unicode="&#x17d;" horiz-adv-x="1218" d="M86 0v227l645 920h-618v264h1007v-227l-651 -920h651v-264h-1034zM238 1901h204l160 -183l162 183h205l-226 -345h-282z" />
<glyph unicode="&#x17e;" horiz-adv-x="1044" d="M84 0v211l451 483h-422v262h833v-213l-459 -481h459v-262h-862zM150 1446h204l160 -182l162 182h205l-226 -344h-282z" />
<glyph unicode="&#x192;" horiz-adv-x="1284" d="M61 -393l56 272h104q143 0 180 182l136 670h-181l45 225h181l14 66q43 219 179 337t343 118h105l-54 -273h-104q-145 0 -182 -182l-15 -66h193l-45 -225h-193l-149 -747q-37 -176 -177.5 -276.5t-330.5 -100.5h-105z" />
<glyph unicode="&#x218;" horiz-adv-x="1191" d="M90 414h301q4 -72 59.5 -121t151.5 -49q92 0 148.5 41t58.5 108q2 53 -34 92t-136 68l-170 47q-365 113 -365 406q0 186 139.5 303.5t346.5 117.5q209 0 343 -116.5t134 -315.5h-299q0 72 -47 116t-135 44q-80 0 -131.5 -40t-51.5 -101q0 -100 152 -144l168 -53 q397 -115 387 -426q-2 -133 -78 -230.5t-187.5 -140.5t-242.5 -43q-229 0 -370.5 122t-141.5 315zM358 -516q68 94 94.5 180t24.5 221h240q-24 -311 -219 -473z" />
<glyph unicode="&#x219;" horiz-adv-x="956" d="M74 309h266q2 -43 43 -76.5t98 -33.5q49 2 83 23.5t34 56.5q0 31 -21.5 49t-72.5 32l-125 33q-100 27 -164.5 67t-88.5 88t-30 79.5t-4 77.5q2 106 112.5 189t260.5 83q162 0 276.5 -78t116.5 -240h-268q-2 84 -109 84q-47 0 -74.5 -19t-25.5 -52q4 -51 84 -72l162 -43 q106 -29 168.5 -88t77 -103t14.5 -87q0 -143 -124 -221t-290 -78q-158 0 -277.5 89t-121.5 240zM260 -516q68 94 94.5 180t24.5 221h239q-24 -311 -219 -473z" />
<glyph unicode="&#x2c6;" horiz-adv-x="1161" d="M215 1112l223 344h283l225 -344h-205l-161 182l-160 -182h-205z" />
<glyph unicode="&#x2c7;" horiz-adv-x="1161" d="M215 1446h205l160 -182l161 182h205l-225 -344h-283z" />
<glyph unicode="&#x2d8;" horiz-adv-x="1042" d="M246 1411h174q0 -109 100 -108q98 0 98 108h179q0 -121 -77 -194.5t-200 -73.5q-133 0 -203.5 78.5t-70.5 189.5z" />
<glyph unicode="&#x2d9;" horiz-adv-x="790" d="M238 1321q0 63 46 107.5t111.5 44.5t111.5 -44.5t46 -107.5q0 -68 -45 -111t-112.5 -43t-112.5 43t-45 111z" />
<glyph unicode="&#x2da;" horiz-adv-x="1150" d="M328 1350q0 106 71.5 179t173.5 73q104 0 177 -73t73 -179q0 -102 -72.5 -174t-177.5 -72q-102 0 -173.5 72t-71.5 174zM461 1350q0 -47 32.5 -80t79.5 -33q49 0 83 33t34 80q0 51 -33.5 84.5t-83.5 33.5q-47 0 -79.5 -33.5t-32.5 -84.5z" />
<glyph unicode="&#x2db;" horiz-adv-x="1087" d="M328 -236q0 57 20 101l103 190h133l-97 -262q-25 -61 31 -86q60 -14 80 39l2 53l158 8q2 -78 -17 -120q-27 -61 -80 -97t-114 -36q-90 0 -154.5 62t-64.5 148z" />
<glyph unicode="&#x2dc;" horiz-adv-x="919" d="M160 1153q6 137 68.5 201.5t138.5 64.5q47 0 102 -42t76 -42q16 0 33.5 20.5t19.5 63.5h154q-6 -135 -68.5 -198.5t-138.5 -63.5q-45 0 -102.5 42t-75.5 42q-16 0 -34 -22.5t-20 -65.5h-153z" />
<glyph unicode="&#x2dd;" horiz-adv-x="1114" d="M164 1102l225 344h227l-247 -344h-205zM465 1102l252 344h233l-270 -344h-215z" />
<glyph unicode="&#x2000;" horiz-adv-x="1028" />
<glyph unicode="&#x2001;" horiz-adv-x="2056" />
<glyph unicode="&#x2002;" horiz-adv-x="1028" />
<glyph unicode="&#x2003;" horiz-adv-x="2056" />
<glyph unicode="&#x2004;" horiz-adv-x="685" />
<glyph unicode="&#x2005;" horiz-adv-x="514" />
<glyph unicode="&#x2006;" horiz-adv-x="342" />
<glyph unicode="&#x2007;" horiz-adv-x="342" />
<glyph unicode="&#x2008;" horiz-adv-x="257" />
<glyph unicode="&#x2009;" horiz-adv-x="411" />
<glyph unicode="&#x200a;" horiz-adv-x="114" />
<glyph unicode="&#x2010;" horiz-adv-x="972" d="M125 391v225h723v-225h-723z" />
<glyph unicode="&#x2011;" horiz-adv-x="972" d="M125 391v225h723v-225h-723z" />
<glyph unicode="&#x2012;" horiz-adv-x="972" d="M125 391v225h723v-225h-723z" />
<glyph unicode="&#x2013;" horiz-adv-x="1298" d="M123 354v254h1053v-254h-1053z" />
<glyph unicode="&#x2014;" horiz-adv-x="1734" d="M123 354v254h1489v-254h-1489z" />
<glyph unicode="&#x2018;" horiz-adv-x="575" d="M98 831q0 172 108 344t208 252l110 -63q-51 -72 -69.5 -100.5t-55.5 -102.5t-52 -152.5t-15 -177.5h-234z" />
<glyph unicode="&#x2019;" horiz-adv-x="557" d="M70 895q51 72 69.5 100.5t55 102t52 152.5t15.5 177h234q0 -172 -108 -344t-208 -252z" />
<glyph unicode="&#x201a;" horiz-adv-x="524" d="M-25 -190q51 72 69.5 100.5t55.5 102t52.5 152.5t15.5 177h233q0 -172 -107.5 -344t-207.5 -252z" />
<glyph unicode="&#x201c;" horiz-adv-x="925" d="M98 831q0 172 108 344t208 252l110 -63q-51 -72 -69.5 -100.5t-55.5 -102.5t-52 -152.5t-15 -177.5h-234zM449 831q0 172 107.5 344t207.5 252l110 -63q-51 -72 -69.5 -100.5t-55 -102.5t-52 -152.5t-15.5 -177.5h-233z" />
<glyph unicode="&#x201d;" horiz-adv-x="907" d="M70 895q51 72 69.5 100.5t55 102t52 152.5t15.5 177h234q0 -172 -108 -344t-208 -252zM420 895q51 72 69.5 100.5t55.5 102t52 152.5t15 177h234q0 -172 -108 -344t-208 -252z" />
<glyph unicode="&#x201e;" horiz-adv-x="874" d="M-25 -190q51 72 69.5 100.5t55.5 102t52.5 152.5t15.5 177h233q0 -172 -107.5 -344t-207.5 -252zM326 -190q51 72 69.5 100.5t55 102t52 152.5t15.5 177h234q0 -172 -108 -344t-208 -252z" />
<glyph unicode="&#x2020;" horiz-adv-x="839" d="M78 877v200h215v334h254v-334h215v-200h-215v-1067h-254v1067h-215z" />
<glyph unicode="&#x2021;" horiz-adv-x="905" d="M111 268v199h215v410h-215v200h215v334h254v-334h215v-200h-215v-410h215v-199h-215v-458h-254v458h-215z" />
<glyph unicode="&#x2022;" horiz-adv-x="999" d="M172 487.5q0 135.5 96.5 225.5t231.5 90t231 -90t96 -225.5t-96 -225.5t-231 -90t-231.5 90t-96.5 225.5z" />
<glyph unicode="&#x2026;" horiz-adv-x="1771" d="M109 151.5q0 73.5 51 122t124.5 48.5t126 -49.5t52.5 -120.5q0 -74 -52.5 -123t-126 -49t-124.5 49t-51 122.5zM709 151.5q0 73.5 51 122t124.5 48.5t126 -49.5t52.5 -120.5q0 -74 -52.5 -123t-126 -49t-124.5 49t-51 122.5zM1309 151.5q0 73.5 51 122t125 48.5 t126 -49.5t52 -120.5q0 -74 -52 -123t-126 -49t-125 49t-51 122.5z" />
<glyph unicode="&#x202f;" horiz-adv-x="411" />
<glyph unicode="&#x2030;" horiz-adv-x="2074" d="M76 1081.5q0 114.5 78.5 194.5t193.5 80t195 -80t80 -194.5t-80 -193.5t-195 -79t-193.5 79t-78.5 193.5zM242 1081q0 -45 30.5 -75.5t75.5 -30.5t77 30.5t32 75.5t-32 77t-77 32t-75.5 -32t-30.5 -77zM305 0h141l660 1341h-141zM801 252q0 115 78.5 194.5t193.5 79.5 t195 -80.5t80 -193.5q0 -115 -80 -193.5t-195 -78.5t-193.5 78.5t-78.5 193.5zM967 252q0 -47 30.5 -77t75.5 -30t77 31t32 76t-32 76.5t-77 31.5t-75.5 -31.5t-30.5 -76.5zM1458 252q0 115 79 194.5t194 79.5q113 0 193.5 -80.5t80.5 -193.5q0 -115 -80 -193.5 t-194.5 -78.5t-193.5 78.5t-79 193.5zM1624 252q0 -47 29.5 -77t77.5 -30q45 0 76.5 31t31.5 76t-31.5 76.5t-76.5 31.5t-76 -31.5t-31 -76.5z" />
<glyph unicode="&#x2039;" horiz-adv-x="671" d="M80 477l282 424h222l-283 -424l283 -424h-222z" />
<glyph unicode="&#x203a;" horiz-adv-x="671" d="M88 53l283 424l-283 424h221l283 -424l-283 -424h-221z" />
<glyph unicode="&#x2044;" horiz-adv-x="368" d="M-369 -20l926 1388h168l-924 -1388h-170z" />
<glyph unicode="&#x205f;" horiz-adv-x="514" />
<glyph unicode="&#x20ac;" horiz-adv-x="1697" d="M94 524v129h1010v-129h-475q45 -119 145 -190.5t230 -71.5q109 0 200.5 53.5t151.5 141.5l241 -168q-94 -143 -249.5 -226t-343.5 -83q-252 0 -441.5 152.5t-247.5 391.5h-221zM94 762v129h223q59 236 248 386t439 150q184 0 338.5 -80.5t248.5 -218.5l-243 -167 q-127 184 -344 184q-127 0 -225.5 -69.5t-145.5 -184.5h471v-129h-1010z" />
<glyph unicode="&#x2122;" horiz-adv-x="1742" d="M127 1257v154h795l227 -463l221 463h148l90 -745h-172l-52 454l-174 -370h-123l-174 370l-55 -454h-170l74 591h-221v-591h-172v591h-242z" />
<glyph unicode="&#x2260;" horiz-adv-x="1232" d="M143 305v201h355l102 211h-457v201h555l97 196h145l-96 -196h241v-201h-340l-104 -211h444v-201h-542l-105 -215h-143l104 215h-256z" />
<glyph unicode="&#x2264;" horiz-adv-x="1308" d="M127 678v229l1028 393l2 -225l-741 -282l741 -283l-2 -225zM137 0v176h1018v-176h-1018z" />
<glyph unicode="&#x2265;" horiz-adv-x="1308" d="M152 510l741 283l-741 282l2 225l1028 -393v-229l-1028 -393zM154 0v176h1017v-176h-1017z" />
<glyph unicode="&#x25fc;" horiz-adv-x="952" d="M0 0v952h952v-952h-952z" />
<glyph unicode="&#xf8ff;" horiz-adv-x="1734" d="M164 0v1407h1407v-1407h-1407zM336 162h18v76l27 -76h20l23 76v-76h18v108h-28l-19 -73l-28 73h-31v-108zM336 446h166l-152 154v365l522 -519l525 519v-365l-152 -154h172v773l-545 -539l-536 539v-773zM457 215q0 -23 13 -38t38 -15q23 0 35 16.5t12 36.5q0 23 -12 39 t-35 16q-51 0 -51 -55zM473 215q0 12 10.5 23.5t24.5 11.5q25 0 24 -35q1 -33 -24 -33q-14 0 -24.5 11.5t-10.5 21.5zM555 203q0 -41 45 -41t45 35q0 23 -31 28q-33 6 -32 13q0 12 18 12q20 0 21 -12h18q0 33 -39 32.5t-39 -32.5q0 -16 33 -31q27 0 27 -10q0 -14 -21 -15 q-18 1 -18 21h-27zM645 250h35v-88h16v88h31v20h-82v-20zM709 162h24l8 26h45l7 -26h22l-43 108h-18zM748 207l12 37h6l14 -37h-32zM815 162h19v45h26q18 0 19 -19v-26h26q-6 6 -6 26q0 18 -14 27q14 6 14 23q0 32 -27 32h-57v-108zM834 221v29h26q18 0 19 -12 q-1 -17 -19 -17h-26zM913 162h41q51 0 52 59q-1 49 -52 49h-41v-108zM938 182v68h8q35 0 35 -35q0 -12 -8.5 -22.5t-18.5 -10.5h-16zM1012 162h82v20h-58v25h51v18h-51v25h51v20h-75v-108zM1094 203q0 -41 45 -41t45 35q0 23 -31 28q-35 6 -35 13q0 12 15 12q25 0 24 -12h21 q0 33 -39 32q-16 0 -30.5 -9t-14.5 -23.5t39 -30.5q25 0 24 -10q0 -14 -18 -15q-27 1 -27 21h-18zM1192 162h14v108h-14v-108zM1221 215q0 -20 14 -36.5t37 -16.5q18 0 24 14l9 -14h12v59h-45v-18h24q-8 -20 -24 -21q-14 0 -23.5 11.5t-9.5 21.5q0 12 9 23.5t24 11.5 q18 0 18 -21h27q-8 41 -45 41q-23 0 -37 -16t-14 -39zM1329 162h17v67l45 -67h26v108h-26v-67l-45 67h-17v-108z" />
</font>
</defs>
</svg>
