<svg xmlns="http://www.w3.org/2000/svg" width="1599.656" height="1009.786" viewBox="0 0 1599.656 1009.786">
  <metadata><?xpacket begin="﻿" id="W5M0MpCehiHzreSzNTczkc9d"?>
<x:xmpmeta xmlns:x="adobe:ns:meta/" x:xmptk="Adobe XMP Core 5.6-c138 79.159824, 2016/09/14-01:09:01        ">
   <rdf:RDF xmlns:rdf="http://www.w3.org/1999/02/22-rdf-syntax-ns#">
      <rdf:Description rdf:about=""/>
   </rdf:RDF>
</x:xmpmeta>
                                                                                                    
                                                                                                    
                                                                                                    
                                                                                                    
                                                                                                    
                                                                                                    
                                                                                                    
                                                                                                    
                                                                                                    
                                                                                                    
                                                                                                    
                                                                                                    
                                                                                                    
                                                                                                    
                                                                                                    
                                                                                                    
                                                                                                    
                                                                                                    
                                                                                                    
                                                                                                    
                           
<?xpacket end="w"?></metadata>
<defs>
    <style>
      .cls-1 {
        stroke: #000;
        stroke-width: 1px;
        fill-rule: evenodd;
        opacity: 0.07;
      }
    </style>
  </defs>
  <path id="dark_shapes_floor" data-name="dark shapes floor" class="cls-1" d="M4.053,655.49l121.243-70c4.783-2.762,13.138-2.416,18.661.773l40.624,23.454c5.522,3.189,6.122,8.012,1.339,10.774l-121.243,70c-4.783,2.761-13.137,2.415-18.66-.774L5.392,666.263C-0.13,663.074-.73,658.251,4.053,655.49Zm77.945,45,43.3-25c4.783-2.762,13.138-2.416,18.66.773l40.624,23.454c5.523,3.189,6.123,8.012,1.34,10.774l-43.3,25c-4.783,2.762-13.138,2.415-18.66-.773L83.338,711.265C77.815,708.076,77.215,703.253,82,700.491Zm173.205-100,43.3-25c4.783-2.761,13.138-2.415,18.66.774l40.624,23.454c5.523,3.189,6.123,8.012,1.34,10.773l-43.3,25c-4.783,2.762-13.138,2.416-18.66-.773l-40.624-23.455C251.02,608.076,250.42,603.253,255.2,600.491Zm0-90,43.3-25c4.783-2.762,13.138-2.415,18.661.773l40.624,23.455c5.522,3.188,6.122,8.012,1.339,10.773l-43.3,25c-4.783,2.762-13.137,2.415-18.66-.774L256.54,521.263C251.017,518.074,250.417,513.251,255.2,510.49ZM428.414,700.5l121.244-70c4.783-2.761,13.137-2.415,18.66.774l40.624,23.454c5.523,3.188,6.123,8.012,1.34,10.773l-121.244,70c-4.783,2.761-13.137,2.415-18.66-.774l-40.624-23.453C424.231,708.08,423.631,703.256,428.414,700.5Zm-173.2,100,43.3-25c4.783-2.762,13.138-2.415,18.661.774L357.8,799.723c5.522,3.188,6.122,8.012,1.339,10.773l-43.3,25c-4.783,2.762-13.137,2.415-18.66-.773l-40.624-23.455C251.026,808.079,250.426,803.256,255.209,800.5Zm173.209,10,43.3-25c4.783-2.761,13.137-2.415,18.66.773L531,809.724c5.523,3.189,6.123,8.013,1.34,10.774l-43.3,25c-4.783,2.762-13.138,2.415-18.661-.773L429.757,821.27C424.234,818.081,423.635,813.258,428.418,810.5Zm173.208-10,43.3-25c4.783-2.762,13.137-2.416,18.66.773l40.624,23.454c5.523,3.189,6.123,8.012,1.34,10.774l-43.3,25c-4.782,2.761-13.137,2.414-18.66-.774l-40.624-23.454C597.442,808.083,596.843,803.26,601.626,800.5Zm77.948,155,43.3-25c4.783-2.761,13.138-2.415,18.661.774L782.16,954.73c5.522,3.188,6.122,8.012,1.339,10.773l-43.3,25c-4.783,2.762-13.137,2.416-18.66-.773l-40.624-23.455C675.391,963.087,674.791,958.264,679.574,955.5Zm95.269,145.008,121.244-70c4.783-2.77,13.137-2.42,18.66.77l40.624,23.45c5.523,3.19,6.122,8.02,1.34,10.78l-121.244,70c-4.783,2.76-13.137,2.41-18.66-.78l-40.624-23.45C770.66,1108.09,770.06,1103.27,774.843,1100.51ZM948.045,910.5l43.3-25c4.783-2.761,13.133-2.415,18.663.774l40.62,23.453c5.52,3.189,6.12,8.013,1.34,10.774l-43.3,25c-4.78,2.762-13.138,2.416-18.661-.773l-40.624-23.455C943.862,918.089,943.262,913.266,948.045,910.5Zm95.265,145.006,43.31-25c4.78-2.76,13.13-2.42,18.66.77l40.62,23.46c5.52,3.18,6.12,8.01,1.34,10.77l-43.3,25c-4.78,2.76-13.14,2.41-18.66-.77l-40.63-23.46C1039.13,1063.09,1038.53,1058.27,1043.31,1055.51Zm692.82-400,121.25-70c4.78-2.762,13.14-2.416,18.66.773l40.62,23.454c5.53,3.189,6.13,8.012,1.34,10.774l-121.24,70c-4.78,2.761-13.14,2.415-18.66-.774l-40.63-23.454C1731.95,663.092,1731.35,658.269,1736.13,655.508Zm-17.32-100,43.3-25c4.78-2.761,13.14-2.414,18.66.774l40.63,23.454c5.52,3.189,6.12,8.013,1.34,10.773l-43.31,25c-4.78,2.761-13.13,2.415-18.66-.773l-40.62-23.455C1714.63,563.09,1714.03,558.267,1718.81,555.506Zm-173.2,100,43.3-25c4.78-2.762,13.13-2.416,18.66.773l40.62,23.454c5.52,3.189,6.12,8.012,1.34,10.774l-43.3,25c-4.78,2.761-13.14,2.415-18.66-.774l-40.62-23.454C1541.42,663.09,1540.82,658.267,1545.61,655.505Zm17.32,100,43.3-25c4.78-2.761,13.14-2.415,18.66.774l40.63,23.454c5.52,3.189,6.12,8.012,1.33,10.774l-43.3,25c-4.78,2.761-13.13,2.415-18.66-.774l-40.62-23.454C1558.75,763.093,1558.15,758.269,1562.93,755.507Zm-268.48-155,121.25-70c4.78-2.761,13.13-2.415,18.66.774l40.62,23.454c5.52,3.188,6.12,8.012,1.34,10.773l-121.24,70c-4.79,2.76-13.14,2.414-18.66-.774l-40.63-23.454C1290.27,608.087,1289.67,603.263,1294.45,600.5Zm251.15-145,43.3-25c4.78-2.762,13.14-2.415,18.66.773l40.62,23.455c5.53,3.189,6.13,8.012,1.34,10.773l-43.3,25c-4.78,2.761-13.13,2.415-18.66-.773l-40.62-23.454C1541.42,463.087,1540.82,458.263,1545.6,455.5Zm-155.89,0,43.3-25c4.79-2.761,13.14-2.415,18.66.774l40.63,23.454c5.52,3.188,6.12,8.012,1.34,10.774l-43.3,25c-4.79,2.762-13.14,2.416-18.66-.773l-40.63-23.454C1385.53,463.086,1384.93,458.262,1389.71,455.5Zm-190.53,0,43.3-25c4.79-2.762,13.14-2.415,18.66.773l40.63,23.454c5.52,3.189,6.12,8.012,1.34,10.773l-43.3,25c-4.79,2.761-13.14,2.414-18.66-.774l-40.63-23.454C1195,463.083,1194.4,458.26,1199.18,455.5Zm-77.95-155,43.31-25c4.78-2.762,13.13-2.416,18.66.773l40.62,23.454c5.52,3.189,6.12,8.012,1.34,10.774l-43.3,25c-4.78,2.761-13.14,2.415-18.66-.774l-40.63-23.454C1117.05,308.08,1116.45,303.256,1121.23,300.5Zm-173.207-100,121.247-70c4.78-2.761,13.13-2.415,18.66.774l40.62,23.454c5.52,3.189,6.12,8.012,1.34,10.773l-121.24,70c-4.79,2.762-13.14,2.416-18.663-.773l-40.624-23.454C943.84,208.076,943.24,203.253,948.023,200.491Zm-77.939,155,43.3-25c4.783-2.761,13.137-2.415,18.66.774l40.624,23.454c5.523,3.188,6.122,8.012,1.34,10.773l-43.3,25c-4.783,2.762-13.137,2.416-18.66-.773l-40.624-23.455C865.9,363.078,865.3,358.255,870.084,355.493Zm-95.269-145,43.3-25c4.783-2.762,13.137-2.416,18.66.773L877.4,209.717c5.523,3.189,6.122,8.012,1.34,10.774l-43.3,25c-4.783,2.761-13.137,2.415-18.66-.774l-40.624-23.454C770.632,218.075,770.032,213.251,774.815,210.489ZM1467.67,900.51l43.3-25c4.78-2.761,13.14-2.415,18.66.773l40.63,23.455c5.52,3.189,6.12,8.012,1.33,10.774l-43.3,25c-4.78,2.761-13.13,2.415-18.66-.774l-40.62-23.454C1463.49,908.094,1462.89,903.27,1467.67,900.51Zm-173.21,10,43.3-25c4.79-2.762,13.14-2.415,18.66.773l40.63,23.455c5.52,3.188,6.12,8.012,1.34,10.773l-43.3,25c-4.79,2.762-13.14,2.415-18.66-.774l-40.63-23.454C1290.28,918.092,1289.68,913.269,1294.46,910.508ZM1043.3,655.5l43.3-25c4.79-2.761,13.14-2.415,18.66.774l118.57,68.456c5.53,3.188,6.13,8.012,1.34,10.773l-43.3,25c-4.78,2.762-13.14,2.416-18.66-.773l-118.57-68.456C1039.12,663.086,1038.52,658.262,1043.3,655.5Zm-346.415,0,43.3-25c4.783-2.762,13.137-2.416,18.66.773l118.569,68.456c5.523,3.188,6.123,8.012,1.34,10.774l-43.3,25c-4.783,2.762-13.138,2.416-18.661-.773L698.225,666.271C692.7,663.082,692.1,658.258,696.885,655.5Zm77.937-245,43.3-25c4.783-2.761,13.137-2.415,18.66.774l40.624,23.454c5.523,3.188,6.123,8.012,1.34,10.774l-43.3,25c-4.782,2.762-13.137,2.416-18.66-.773l-40.624-23.454C770.638,418.078,770.039,413.255,774.822,410.493Zm-173.209-10,43.3-25c4.783-2.761,13.138-2.415,18.661.774L704.2,399.719c5.522,3.189,6.122,8.012,1.339,10.773l-43.3,25c-4.783,2.762-13.137,2.416-18.66-.773l-40.624-23.454C597.43,408.076,596.83,403.253,601.613,400.491ZM948.039,710.5l43.3-25c4.783-2.761,13.14-2.415,18.66.774l40.62,23.454c5.53,3.189,6.13,8.012,1.34,10.774l-43.3,25c-4.78,2.761-13.134,2.415-18.657-.774l-40.624-23.454C943.856,718.085,943.256,713.262,948.039,710.5Z" transform="translate(-0.344 -128.094)"/>
</svg>
