<svg id="_лой_1" data-name="‘лой_1" xmlns="http://www.w3.org/2000/svg" xmlns:xlink="http://www.w3.org/1999/xlink" viewBox="0 0 776.68 462.22"><defs><style>.cls-1{fill:url(#linear-gradient);}.cls-2{fill:url(#linear-gradient-2);}.cls-3{fill:url(#linear-gradient-3);}.cls-4{fill:url(#linear-gradient-4);}.cls-5{fill:url(#linear-gradient-5);}.cls-6{fill:url(#linear-gradient-6);}.cls-7{fill:url(#linear-gradient-7);}.cls-8{fill:url(#linear-gradient-8);}.cls-9{fill:url(#linear-gradient-9);}.cls-10{fill:url(#linear-gradient-10);}.cls-11{fill:url(#linear-gradient-11);}.cls-12{fill:url(#linear-gradient-12);}.cls-13{fill:#f3903f;}.cls-14{fill:#fff;}</style><linearGradient id="linear-gradient" x1="650.17" y1="532.58" x2="1130.69" y2="1281.69" gradientUnits="userSpaceOnUse"><stop offset="0" stop-color="#fff33b"/><stop offset="0.04" stop-color="#fee72e"/><stop offset="0.12" stop-color="#fed51b"/><stop offset="0.2" stop-color="#fdca10"/><stop offset="0.28" stop-color="#fdc70c"/><stop offset="0.67" stop-color="#f3903f"/><stop offset="0.89" stop-color="#ed683c"/><stop offset="1" stop-color="#e93e3a"/></linearGradient><linearGradient id="linear-gradient-2" x1="916.63" y1="361.67" x2="1397.14" y2="1110.78" xlink:href="#linear-gradient"/><linearGradient id="linear-gradient-3" x1="742.79" y1="473.18" x2="1223.3" y2="1222.29" xlink:href="#linear-gradient"/><linearGradient id="linear-gradient-4" x1="626.54" y1="547.74" x2="1107.06" y2="1296.85" xlink:href="#linear-gradient"/><linearGradient id="linear-gradient-5" x1="682.16" y1="512.07" x2="1162.67" y2="1261.17" xlink:href="#linear-gradient"/><linearGradient id="linear-gradient-6" x1="307.57" y1="-15.35" x2="1184.82" y2="994.96" gradientUnits="userSpaceOnUse"><stop offset="0" stop-color="#e93e3a"/><stop offset="0.11" stop-color="#ed683c"/><stop offset="0.33" stop-color="#f3903f"/><stop offset="0.72" stop-color="#fdc70c"/><stop offset="0.8" stop-color="#fdca10"/><stop offset="0.88" stop-color="#fed51b"/><stop offset="0.96" stop-color="#fee72e"/><stop offset="1" stop-color="#fff33b"/></linearGradient><linearGradient id="linear-gradient-7" x1="453.07" y1="-141.68" x2="1330.31" y2="868.63" xlink:href="#linear-gradient-6"/><linearGradient id="linear-gradient-8" x1="191.11" y1="85.78" x2="1068.36" y2="1096.09" xlink:href="#linear-gradient-6"/><linearGradient id="linear-gradient-9" x1="207.89" y1="71.21" x2="1085.14" y2="1081.52" xlink:href="#linear-gradient-6"/><linearGradient id="linear-gradient-10" x1="221.7" y1="59.22" x2="1098.94" y2="1069.53" xlink:href="#linear-gradient-6"/><linearGradient id="linear-gradient-11" x1="915.66" y1="432.17" x2="1539.47" y2="1142.16" gradientTransform="matrix(0.72, 0.69, -0.77, 0.65, 810.2, -528.79)" xlink:href="#linear-gradient"/><linearGradient id="linear-gradient-12" x1="645.64" y1="124.83" x2="1242.69" y2="804.38" gradientTransform="matrix(1, 0, -0.11, 1, 101.65, 0)" xlink:href="#linear-gradient-6"/></defs><path class="cls-1" d="M854.3,620.28a242.67,242.67,0,0,1,7.2-38H572.42a38.22,38.22,0,0,0,0,76.43H853.37A229.52,229.52,0,0,1,854.3,620.28Z" transform="translate(-534.24 -389.32)"/><path class="cls-2" d="M859.24,465.77h70.7c40.38-40.24,93.28-67.77,150.36-75a234.86,234.86,0,0,0-25.59-1.41l-1.49,0H859.28a38.21,38.21,0,0,0-38.22,38.21h0A38.19,38.19,0,0,0,859.24,465.77Z" transform="translate(-534.24 -389.32)"/><path class="cls-3" d="M659.93,562.23H867.85a262.59,262.59,0,0,1,43.89-76.44l-251.84,0a38.21,38.21,0,0,0,0,76.42Z" transform="translate(-534.24 -389.32)"/><path class="cls-4" d="M855.47,678.67h-220a38.19,38.19,0,0,0-38.18,38.21h0a38.22,38.22,0,0,0,38.21,38.22H883.13A206,206,0,0,1,855.47,678.67Z" transform="translate(-534.24 -389.32)"/><path class="cls-5" d="M897.08,775.11H769.42a38.2,38.2,0,0,0-38.18,38.22h0a38.21,38.21,0,0,0,38.21,38.21h281.83C987.15,848.92,932.63,820,897.08,775.11Z" transform="translate(-534.24 -389.32)"/><path class="cls-6" d="M659.93,554.84H870.7a262.7,262.7,0,0,1,35.19-61.66l-246,0a30.82,30.82,0,0,0,0,61.64Z" transform="translate(-534.24 -389.32)"/><path class="cls-7" d="M859.24,458.38h78.42c31.62-29.13,70.06-50.76,111.75-61.65H859.28a30.83,30.83,0,0,0,0,61.65Z" transform="translate(-534.24 -389.32)"/><path class="cls-8" d="M856.74,686.06l-221.27,0a30.82,30.82,0,0,0,0,61.63H878.84A206.17,206.17,0,0,1,856.74,686.06Z" transform="translate(-534.24 -389.32)"/><path class="cls-9" d="M903.25,782.5H769.42a30.82,30.82,0,0,0,0,61.64h233.2A201.22,201.22,0,0,1,903.25,782.5Z" transform="translate(-534.24 -389.32)"/><path class="cls-10" d="M854.3,620.28a242.44,242.44,0,0,1,5.3-30.66l-287.18,0a30.82,30.82,0,0,0,0,61.63h280.6A232,232,0,0,1,854.3,620.28Z" transform="translate(-534.24 -389.32)"/><ellipse class="cls-11" cx="1116.16" cy="620.27" rx="204.37" ry="183.61" transform="translate(-653.86 552.53) rotate(-43.65)"/><path class="cls-12" d="M1095.4,806.19c-49.23,0-93.49-19.07-124.61-53.71-31.43-35-45.8-81.62-40.47-131.37,11-103,103.71-186.76,206.59-186.76,49.23,0,93.49,19.08,124.61,53.71,31.43,35,45.8,81.63,40.47,131.38C1291,722.41,1198.28,806.19,1095.4,806.19Z" transform="translate(-534.24 -389.32)"/><path class="cls-13" d="M1140.82,558.44c21.13,0,33.06,6.56,38.8,9.71l6.59,3.62,22.8-33.86-7.88-4.28c-11-6-23.54-9.67-38-11.09l7-30.34h-39.44l-7.26,31.61c-34.37,6.42-60.15,27.45-66.4,54.67-8.2,35.69,21.77,51.76,52.08,62.75,28.28,10.62,28.81,19.5,27.09,27-3.2,13.94-20.31,23.68-41.61,23.68-15.91,0-32.3-4.44-43.84-11.86l-6.89-4.44-22,33.93,6.38,4.52c10.66,7.56,27.71,12.83,46,14.47l-7.15,31.15h39.44l7.54-32.79c17.21-3.07,32.64-9.77,44.88-19.54,12.88-10.28,21.77-23.75,25-37.93,8.81-38.39-21-55-47.8-65.14-31.88-12.63-33.18-18.3-31.52-25.52C1106.8,569.38,1117.56,558.44,1140.82,558.44Z" transform="translate(-534.24 -389.32)"/><path class="cls-14" d="M1143.44,553.25c21.13,0,33.06,6.55,38.8,9.7l6.59,3.62,22.8-33.85-7.88-4.29c-11-6-23.54-9.66-38-11.09l7-30.34h-39.44L1126,518.62c-34.37,6.41-60.15,27.44-66.4,54.66C1051.43,609,1081.4,625,1111.71,636c28.28,10.62,28.81,19.5,27.09,27-3.2,13.94-20.31,23.68-41.61,23.68-15.91,0-32.3-4.44-43.84-11.86l-6.89-4.44-22,33.93,6.38,4.52c10.66,7.56,27.71,12.84,46,14.47l-7.15,31.15h39.44l7.54-32.79c17.21-3.06,32.64-9.76,44.88-19.54,12.88-10.28,21.77-23.75,25-37.93,8.81-38.38-21-55-47.8-65.14-31.88-12.63-33.18-18.3-31.52-25.52C1109.42,564.18,1120.18,553.25,1143.44,553.25Z" transform="translate(-534.24 -389.32)"/></svg>