<?xml version="1.0" encoding="iso-8859-1"?>
<!-- Generator: Adobe Illustrator 19.0.0, SVG Export Plug-In . SVG Version: 6.00 Build 0)  -->
<svg version="1.1" id="Capa_1" xmlns="http://www.w3.org/2000/svg" xmlns:xlink="http://www.w3.org/1999/xlink" x="0px" y="0px"
	 viewBox="0 0 512 512" style="enable-background:new 0 0 512 512;" xml:space="preserve">
<g>
	<g>
		<g>
			<path d="M293.708,188.115c-2.021-2.01-4.688-3.125-7.542-3.125c-2.854,0-5.521,1.115-7.542,3.125
				c-2.021,2.021-3.125,4.698-3.125,7.552c0,2.844,1.104,5.521,3.125,7.542l30.167,30.167c4.042,4.021,11.042,4.021,15.083,0
				c2.021-2.021,3.125-4.698,3.125-7.542c0-2.854-1.104-5.521-3.125-7.531L293.708,188.115z"/>
			<path d="M218.292,308.802l-7.542,7.542l15.083,15.083l7.542-7.542c4.167-4.167,4.167-10.927,0-15.094
				C229.333,304.771,222.333,304.76,218.292,308.802z"/>
			<path d="M188.125,278.625l-7.542,7.542l15.083,15.083l7.542-7.542c2.021-2.01,3.125-4.688,3.125-7.542
				c0-2.844-1.104-5.521-3.125-7.542C199.167,274.604,192.167,274.604,188.125,278.625z"/>
			<path d="M494.771,295.688C502.854,284.281,512,271.354,512,256s-9.146-28.281-17.229-39.688
				c-5.292-7.49-10.313-14.563-12.042-21.063c-1.875-6.969-1.063-15.896-0.229-25.344c1.292-14.333,2.625-29.156-4.771-41.938
				c-7.521-12.979-21.75-19.542-34.313-25.323c-8.5-3.927-16.521-7.625-21.479-12.573c-4.958-4.958-8.667-12.99-12.583-21.5
				C403.563,56.021,397,41.781,384.042,34.281c-10.333-5.99-25.375-6.271-41.958-4.792c-9.333,0.833-19.167,1.438-25.333-0.208
				c-6.5-1.74-13.563-6.75-21.063-12.052C284.292,9.156,271.354,0,256,0s-28.292,9.156-39.688,17.229
				c-7.5,5.302-14.563,10.313-21.063,12.052c-6.167,1.646-15.958,1.042-25.333,0.208c-16.542-1.51-31.646-1.198-41.938,4.781
				c-12.979,7.5-19.542,21.74-25.333,34.292c-3.917,8.51-7.625,16.552-12.583,21.5s-12.979,8.656-21.5,12.583
				c-12.542,5.781-26.771,12.344-34.292,25.323c-7.396,12.771-6.063,27.604-4.771,41.938c0.833,9.448,1.646,18.375-0.229,25.333
				c-1.729,6.51-6.75,13.583-12.042,21.073C9.146,227.719,0,240.646,0,256s9.146,28.281,17.229,39.688
				c5.292,7.49,10.313,14.563,12.042,21.063c1.875,6.969,1.063,15.896,0.229,25.344c-1.292,14.333-2.625,29.156,4.771,41.938
				c7.521,12.979,21.75,19.542,34.313,25.323c8.5,3.927,16.521,7.625,21.479,12.573c4.958,4.958,8.667,12.99,12.583,21.5
				c5.792,12.552,12.354,26.792,25.313,34.292c10.313,5.979,25.396,6.229,41.938,4.792c9.354-0.833,19.188-1.438,25.354,0.208
				c6.5,1.74,13.563,6.75,21.063,12.052C227.708,502.844,240.646,512,256,512s28.292-9.156,39.688-17.229
				c7.5-5.302,14.563-10.313,21.063-12.052c6.167-1.646,15.958-1.042,25.333-0.208c16.521,1.469,31.625,1.188,41.938-4.781
				c12.979-7.5,19.542-21.74,25.333-34.292c3.917-8.51,7.625-16.552,12.583-21.5c4.958-4.948,12.979-8.656,21.5-12.583
				c12.542-5.781,26.771-12.344,34.292-25.323c7.396-12.771,6.063-27.604,4.771-41.938c-0.833-9.448-1.646-18.375,0.229-25.333
				C484.458,310.25,489.479,303.177,494.771,295.688z M248.458,338.969l-15.083,15.083c-2,2-4.708,3.125-7.542,3.125
				c-2.833,0-5.542-1.125-7.542-3.125l-60.333-60.344c-4.167-4.167-4.167-10.917,0-15.083l15.083-15.083
				c6.042-6.042,14.083-9.375,22.625-9.375c8.542,0,16.583,3.333,22.625,9.375c5.625,5.625,8.896,12.969,9.333,20.844
				c7.875,0.438,15.208,3.698,20.833,9.313C260.938,306.188,260.938,326.49,248.458,338.969z M293.708,293.708
				c-2.083,2.083-4.813,3.125-7.542,3.125c-2.729,0-5.458-1.042-7.542-3.125l-60.333-60.333c-4.167-4.167-4.167-10.917,0-15.083
				c4.167-4.167,10.917-4.167,15.083,0l60.333,60.333C297.875,282.792,297.875,289.542,293.708,293.708z M338.958,248.458
				c-6.042,6.042-14.083,9.375-22.625,9.375c-8.542,0-16.583-3.333-22.625-9.375l-30.167-30.167
				c-6.042-6.042-9.375-14.083-9.375-22.625c0-8.552,3.333-16.594,9.375-22.635c12.083-12.083,33.167-12.083,45.25,0l30.167,30.177
				c6.042,6.031,9.375,14.073,9.375,22.625C348.333,234.375,345,242.417,338.958,248.458z"/>
		</g>
	</g>
</g>
<g>
</g>
<g>
</g>
<g>
</g>
<g>
</g>
<g>
</g>
<g>
</g>
<g>
</g>
<g>
</g>
<g>
</g>
<g>
</g>
<g>
</g>
<g>
</g>
<g>
</g>
<g>
</g>
<g>
</g>
</svg>
