<svg width="408" height="284" viewBox="0 0 408 284" fill="none" xmlns="http://www.w3.org/2000/svg">
<path d="M302.233 203.906L316.108 199.039C316.108 199.039 313.042 190.496 312.542 178.179C312.171 169.081 313.201 157.926 317.896 146.631C325.905 127.371 359.682 109.068 359.682 109.068L359.146 106.978L357.814 107.171C357.814 107.171 358.273 106.637 358.954 106.22L357.687 101.281C356.616 101.54 355.108 101.996 353.69 102.739C354.481 102.31 356.179 101.433 357.602 100.949L356.937 98.3533C305.014 113.187 296.074 149.169 297.005 175C297.593 191.533 302.233 203.906 302.233 203.906Z" fill="#00E2FD"/>
<path d="M238.96 215.267L302.231 203.906C300.096 194.252 300.052 183.714 300.541 175.589C301.03 167.464 302.055 161.754 302.055 161.754C310.179 116.25 356.929 98.3534 356.929 98.3534L297.848 90.1792C272.525 98.7603 257.59 115.829 248.917 134.671C231.927 171.572 238.96 215.267 238.96 215.267Z" fill="#00A0B4"/>
<path d="M245.07 218.797L300.132 203.507L299.662 202.49C299.59 202.336 292.584 186.829 294.483 166.664C295.596 154.849 299.505 143.761 306.102 133.703C314.366 121.102 326.905 110.085 343.371 100.952L345.906 99.5438L298.302 93.4399L298.134 93.4784C297.664 93.5884 286.496 96.2774 273.935 106.72C266.572 112.84 260.277 120.366 255.228 129.087C248.928 139.969 244.557 152.749 242.241 167.076C242.051 168.179 237.597 194.497 241.793 208.533L241.798 208.549L245.07 218.797ZM297.502 202.264L246.326 216.473L243.614 207.986C241.941 202.377 241.496 193.592 242.326 182.578C242.955 174.209 244.109 167.464 244.12 167.395C246.397 153.315 250.675 140.775 256.84 130.107C261.767 121.586 267.899 114.231 275.075 108.254C282.859 101.765 290.211 98.312 294.557 96.6541C296.837 95.7825 299.296 95.4883 301.717 95.799L334.708 100.03C336.428 100.25 336.922 102.505 335.455 103.432C322.103 111.861 311.707 121.688 304.484 132.711C297.717 143.043 293.714 154.437 292.584 166.576C291.582 177.368 293.084 186.76 294.524 192.74C295.637 197.378 296.865 200.691 297.502 202.264Z" fill="#00E2FD"/>
<path d="M258.522 147.517C260.863 156.639 267.619 160.78 276.735 158.438C285.85 156.095 293.876 148.157 291.535 139.035C289.194 129.912 282.746 125.752 273.63 128.094C264.514 130.44 256.181 138.394 258.522 147.517Z" fill="#00E2FD"/>
<path d="M320.611 245.516L335.312 245.59C335.312 245.59 335.288 236.514 338.947 224.744C341.648 216.05 346.357 205.885 354.569 196.823C368.573 181.368 406.526 175.468 406.526 175.468L406.721 173.32L405.399 173.054C405.399 173.054 406.012 172.705 406.792 172.542L407.254 167.464C406.158 167.349 404.583 167.272 402.998 167.494C403.888 167.357 405.778 167.101 407.284 167.12L407.526 164.451C353.64 160.989 333.15 191.885 325.369 216.531C320.388 232.305 320.611 245.516 320.611 245.516Z" fill="#00E2FD"/>
<path d="M257.198 234.975L320.611 245.519C321.836 235.709 325.331 225.767 328.515 218.277C331.7 210.788 334.579 205.751 334.579 205.751C357.49 165.611 407.531 164.451 407.531 164.451L354.616 136.912C327.881 136.491 308.091 147.555 293.601 162.391C265.223 191.451 257.198 234.975 257.198 234.975Z" fill="#00A2B7"/>
<path d="M257.198 234.975L320.611 245.519L335.312 245.593C335.312 245.593 335.288 236.517 338.947 224.747C336.073 222.638 332.623 220.477 328.513 218.277C327.433 217.7 326.386 217.117 325.369 216.531C286.43 194.052 292.878 165.149 293.595 162.394C265.223 191.45 257.198 234.975 257.198 234.975Z" fill="#553E93"/>
<path d="M261.772 240.353L318.767 244.438L318.666 243.325C318.649 243.157 317.248 226.196 325.798 207.837C330.807 197.082 338.208 187.948 347.794 180.689C359.806 171.597 375.312 165.427 393.882 162.35L396.742 161.877L353.945 140.143L353.775 140.123C353.297 140.068 341.873 138.853 326.54 144.47C317.55 147.764 309.099 152.738 301.417 159.26C291.834 167.395 283.433 177.97 276.446 190.689C275.897 191.665 262.879 214.961 262.124 229.591V229.611L261.772 240.353ZM316.704 242.382L263.731 238.585L264.022 229.677C264.327 223.831 266.852 215.407 271.328 205.308C274.726 197.637 278.075 191.668 278.108 191.607C284.974 179.108 293.208 168.732 302.593 160.753C310.091 154.379 318.333 149.513 327.098 146.288C336.606 142.79 344.689 142.007 349.338 141.902C351.778 141.847 354.193 142.394 356.371 143.502L386.033 158.567C387.579 159.353 387.288 161.641 385.596 162.023C370.191 165.482 357.102 171.245 346.604 179.204C336.766 186.664 329.175 196.053 324.042 207.112C319.479 216.941 317.745 226.295 317.097 232.41C316.586 237.155 316.633 240.685 316.704 242.382Z" fill="#00E2FD"/>
<path d="M298.34 177.72C297.486 187.098 302.461 193.268 311.836 194.123C321.21 194.978 331.43 190.194 332.285 180.816C333.139 171.435 328.458 165.353 319.086 164.498C309.709 163.643 299.195 168.339 298.34 177.72Z" fill="#553E93"/>
<path d="M348.294 255.164V260.792C348.294 261.241 348.157 261.656 347.923 262.002C347.676 262.368 347.321 262.654 346.907 262.813C346.78 262.863 346.646 262.901 346.511 262.926C346.387 262.948 346.258 262.962 346.129 262.962H256.549C255.395 262.962 254.442 262.046 254.384 260.905C254.384 260.869 254.381 260.831 254.381 260.795V255.167C254.381 255.131 254.381 255.093 254.384 255.057C254.442 253.916 255.395 253 256.549 253H346.126C346.255 253 346.385 253.011 346.508 253.036C346.646 253.061 346.777 253.097 346.904 253.149C347.319 253.308 347.673 253.597 347.92 253.96C348.157 254.301 348.294 254.716 348.294 255.164Z" fill="#FFD200"/>
<path d="M304.308 262.962H256.316C255.285 262.962 254.436 262.046 254.384 260.905C254.384 260.869 254.381 260.831 254.381 260.795V255.167C254.381 255.131 254.381 255.093 254.384 255.057C254.436 253.916 255.285 253 256.316 253H298.412C299.085 255.929 300.654 259.987 304.308 262.962Z" fill="#FF8548"/>
<path d="M337.395 252.995H336.376V262.961H337.395V252.995Z" fill="#FF8548"/>
<path d="M333.95 252.995H332.93V262.961H333.95V252.995Z" fill="#FF8548"/>
<path d="M329.818 252.995H328.798V262.961H329.818V252.995Z" fill="#FF8548"/>
<path d="M323.479 252.995H322.463V262.961H323.479V252.995Z" fill="#FF8548"/>
<path d="M316.781 252.995H315.764V262.961H316.781V252.995Z" fill="#FF8548"/>
<path d="M306.514 252.995H305.495V262.961H306.514V252.995Z" fill="#FF8548"/>
<path d="M296.898 252.995H295.879V262.961H296.898V252.995Z" fill="#FF8548"/>
<path d="M288.312 252.995H287.293V262.961H288.312V252.995Z" fill="#FF8548"/>
<path d="M340.675 252.995H339.656V262.961H340.675V252.995Z" fill="#FF8548"/>
<path d="M342.84 252.995H341.824V262.961H342.84V252.995Z" fill="#FF8548"/>
<path d="M344.934 252.995H343.915V262.961H344.934V252.995Z" fill="#FF8548"/>
<path d="M346.508 253.03V262.926C346.385 262.948 346.255 262.961 346.126 262.961H345.489V252.995H346.126C346.258 252.995 346.385 253.008 346.508 253.03Z" fill="#FF8548"/>
<path d="M347.923 253.954V262.005C347.676 262.37 347.321 262.656 346.907 262.816V253.143C347.321 253.303 347.676 253.588 347.923 253.954Z" fill="#FF8548"/>
<path d="M338.716 245.197V250.826C338.716 251.274 338.579 251.689 338.346 252.035C338.098 252.401 337.744 252.687 337.329 252.846C337.203 252.896 337.068 252.934 336.933 252.959C336.81 252.981 336.681 252.995 336.551 252.995H246.972C245.818 252.995 244.864 252.079 244.807 250.938C244.807 250.9 244.804 250.864 244.804 250.826V245.197C244.804 245.162 244.807 245.123 244.807 245.085C244.864 243.944 245.815 243.028 246.972 243.028H336.549C336.606 243.028 336.664 243.031 336.719 243.036C336.744 243.039 336.769 243.039 336.793 243.045C336.821 243.047 336.848 243.05 336.873 243.056C336.892 243.058 336.911 243.061 336.931 243.064C337.068 243.089 337.2 243.124 337.326 243.177C337.346 243.185 337.365 243.19 337.381 243.199C337.4 243.207 337.42 243.215 337.436 243.223C337.472 243.24 337.51 243.259 337.546 243.276C337.565 243.287 337.587 243.298 337.609 243.311C337.628 243.322 337.648 243.333 337.664 243.344C337.7 243.364 337.733 243.385 337.766 243.41C337.804 243.438 337.84 243.465 337.879 243.493C337.906 243.515 337.933 243.537 337.961 243.561C337.961 243.561 337.964 243.564 337.966 243.567C337.986 243.583 338.005 243.6 338.021 243.616C338.076 243.666 338.129 243.721 338.178 243.779C338.194 243.795 338.208 243.812 338.222 243.828C338.236 243.845 338.249 243.864 338.263 243.88C338.291 243.916 338.318 243.955 338.343 243.99C338.579 244.334 338.716 244.749 338.716 245.197Z" fill="#FFD200"/>
<path d="M294.73 252.995H246.738C245.708 252.995 244.859 252.079 244.807 250.938C244.807 250.9 244.804 250.864 244.804 250.826V245.197C244.804 245.162 244.807 245.123 244.807 245.085C244.859 243.944 245.708 243.028 246.738 243.028H288.834C288.853 243.111 288.873 243.19 288.892 243.273C289.598 246.187 291.175 250.102 294.73 252.995Z" fill="#FF8548"/>
<path d="M327.815 243.031H326.798V252.998H327.815V243.031Z" fill="#FF8548"/>
<path d="M324.369 243.031H323.353V252.998H324.369V243.031Z" fill="#FF8548"/>
<path d="M320.237 243.031H319.221V252.998H320.237V243.031Z" fill="#FF8548"/>
<path d="M313.904 243.031H312.885V252.998H313.904V243.031Z" fill="#FF8548"/>
<path d="M307.206 243.031H306.187V252.998H307.206V243.031Z" fill="#FF8548"/>
<path d="M296.936 243.031H295.917V252.998H296.936V243.031Z" fill="#FF8548"/>
<path d="M287.32 243.031H286.301V252.998H287.32V243.031Z" fill="#FF8548"/>
<path d="M278.735 243.031H277.715V252.998H278.735V243.031Z" fill="#FF8548"/>
<path d="M331.098 243.031H330.079V252.998H331.098V243.031Z" fill="#FF8548"/>
<path d="M333.263 243.031H332.246V252.998H333.263V243.031Z" fill="#FF8548"/>
<path d="M335.356 243.031H334.337V252.998H335.356V243.031Z" fill="#FF8548"/>
<path d="M336.931 243.064V252.959C336.807 252.981 336.678 252.995 336.549 252.995H335.911V243.028H336.549C336.681 243.031 336.807 243.042 336.931 243.064Z" fill="#FF8548"/>
<path d="M338.346 243.988V252.038C338.098 252.404 337.744 252.69 337.329 252.849V243.177C337.744 243.336 338.098 243.622 338.346 243.988Z" fill="#FF8548"/>
<path d="M343.346 235.478V241.106C343.346 241.554 343.208 241.97 342.975 242.319C342.728 242.684 342.373 242.97 341.958 243.13C341.832 243.179 341.697 243.218 341.563 243.243C341.439 243.265 341.31 243.278 341.181 243.278H251.598C251.238 243.278 250.898 243.19 250.598 243.034C249.964 242.701 249.51 242.063 249.439 241.318C249.436 241.285 249.433 241.252 249.431 241.222C249.431 241.183 249.428 241.147 249.428 241.109V235.481C249.428 235.442 249.431 235.407 249.431 235.371C249.488 234.23 250.442 233.314 251.596 233.314H341.173C341.305 233.314 341.431 233.325 341.555 233.35C341.692 233.375 341.824 233.41 341.95 233.463C342.365 233.625 342.719 233.911 342.967 234.274C343.208 234.615 343.346 235.03 343.346 235.478Z" fill="#FFD200"/>
<path d="M299.357 243.275H251.368C251.046 243.275 250.744 243.187 250.478 243.031C249.912 242.698 249.508 242.06 249.445 241.315C249.442 241.282 249.439 241.249 249.436 241.219C249.436 241.18 249.434 241.145 249.434 241.106V235.478C249.434 235.439 249.436 235.404 249.436 235.368C249.489 234.227 250.338 233.311 251.368 233.311H293.464C294.118 236.165 295.618 240.083 299.063 243.031C299.159 243.113 299.258 243.193 299.357 243.275Z" fill="#FF8548"/>
<path d="M332.447 233.308H331.428V243.275H332.447V233.308Z" fill="#FF8548"/>
<path d="M328.996 233.308H327.98V243.275H328.996V233.308Z" fill="#FF8548"/>
<path d="M324.867 233.308H323.847V243.275H324.867V233.308Z" fill="#FF8548"/>
<path d="M318.531 233.308H317.512V243.275H318.531V233.308Z" fill="#FF8548"/>
<path d="M311.833 233.308H310.814V243.275H311.833V233.308Z" fill="#FF8548"/>
<path d="M301.566 233.308H300.546V243.275H301.566V233.308Z" fill="#FF8548"/>
<path d="M291.95 233.308H290.93V243.275H291.95V233.308Z" fill="#FF8548"/>
<path d="M283.361 233.308H282.345V243.275H283.361V233.308Z" fill="#FF8548"/>
<path d="M335.725 233.308H334.708V243.275H335.725V233.308Z" fill="#FF8548"/>
<path d="M337.892 233.308H336.873V243.275H337.892V233.308Z" fill="#FF8548"/>
<path d="M339.986 233.308H338.966V243.275H339.986V233.308Z" fill="#FF8548"/>
<path d="M341.56 233.344V243.239C341.436 243.261 341.307 243.275 341.178 243.275H340.541V233.308H341.178C341.307 233.308 341.436 233.322 341.56 233.344Z" fill="#FF8548"/>
<path d="M342.972 234.268V242.318C342.725 242.681 342.371 242.97 341.956 243.129V233.457C342.371 233.616 342.728 233.902 342.972 234.268Z" fill="#FF8548"/>
<path d="M345.492 225.514V231.142C345.492 231.59 345.354 232.005 345.121 232.355C344.873 232.717 344.519 233.006 344.104 233.166C343.978 233.215 343.843 233.254 343.709 233.278C343.585 233.3 343.456 233.314 343.327 233.314H253.744C252.59 233.314 251.637 232.399 251.579 231.257C251.579 231.219 251.576 231.183 251.576 231.145V225.517C251.576 225.478 251.576 225.442 251.579 225.404C251.634 224.348 252.453 223.485 253.489 223.361C253.571 223.35 253.656 223.344 253.744 223.344H343.321C343.45 223.344 343.579 223.355 343.703 223.38C343.84 223.405 343.972 223.441 344.099 223.493C344.514 223.652 344.868 223.941 345.115 224.304C345.354 224.648 345.492 225.066 345.492 225.514Z" fill="#FFD200"/>
<path d="M301.503 233.308H253.513C252.483 233.308 251.634 232.393 251.582 231.252C251.582 231.213 251.579 231.178 251.579 231.139V225.511C251.579 225.472 251.579 225.437 251.582 225.398C251.629 224.342 252.36 223.479 253.285 223.355C253.36 223.344 253.437 223.339 253.513 223.339H295.61C295.61 223.344 295.612 223.35 295.612 223.355C296.288 226.292 297.854 230.339 301.503 233.308Z" fill="#FF8548"/>
<path d="M334.593 223.344H333.573V233.311H334.593V223.344Z" fill="#FF8548"/>
<path d="M331.145 223.344H330.125V233.311H331.145V223.344Z" fill="#FF8548"/>
<path d="M327.012 223.344H325.993V233.311H327.012V223.344Z" fill="#FF8548"/>
<path d="M320.677 223.344H319.658V233.311H320.677V223.344Z" fill="#FF8548"/>
<path d="M313.979 223.344H312.959V233.311H313.979V223.344Z" fill="#FF8548"/>
<path d="M303.711 223.344H302.692V233.311H303.711V223.344Z" fill="#FF8548"/>
<path d="M294.093 223.344H293.076V233.311H294.093V223.344Z" fill="#FF8548"/>
<path d="M285.51 223.345H284.491V233.312H285.51V223.345Z" fill="#FF8548"/>
<path d="M337.873 223.344H336.854V233.311H337.873V223.344Z" fill="#FF8548"/>
<path d="M340.038 223.344H339.019V233.311H340.038V223.344Z" fill="#FF8548"/>
<path d="M342.132 223.344H341.112V233.311H342.132V223.344Z" fill="#FF8548"/>
<path d="M343.706 223.377V233.273C343.582 233.295 343.453 233.308 343.324 233.308H342.687V223.342H343.324C343.453 223.344 343.579 223.355 343.706 223.377Z" fill="#FF8548"/>
<path d="M345.118 224.301V232.352C344.871 232.717 344.516 233.003 344.101 233.163V223.49C344.516 223.649 344.873 223.935 345.118 224.301Z" fill="#FF8548"/>
<path d="M338.903 215.563V221.192C338.903 221.64 338.766 222.055 338.532 222.401C338.285 222.767 337.931 223.053 337.516 223.212C337.389 223.262 337.255 223.3 337.12 223.325C337.079 223.333 337.035 223.339 336.994 223.344C336.972 223.347 336.947 223.35 336.922 223.353C336.9 223.355 336.876 223.355 336.851 223.358C336.813 223.361 336.774 223.361 336.736 223.361H247.158C246.005 223.361 245.051 222.445 244.993 221.304C244.993 221.266 244.991 221.23 244.991 221.192V215.563C244.991 215.528 244.991 215.489 244.993 215.451C244.993 215.42 244.996 215.39 244.999 215.36C245.084 214.442 245.752 213.683 246.623 213.46C246.645 213.455 246.667 213.449 246.689 213.444C246.84 213.411 246.996 213.391 247.158 213.391H336.736C336.802 213.391 336.865 213.394 336.931 213.4C336.958 213.402 336.988 213.405 337.016 213.408C337.049 213.413 337.082 213.419 337.117 213.424C337.255 213.449 337.387 213.485 337.513 213.537C337.928 213.697 338.282 213.985 338.53 214.348C338.769 214.697 338.903 215.115 338.903 215.563Z" fill="#FFD200"/>
<path d="M294.917 223.358H246.928C245.898 223.358 245.049 222.442 244.996 221.301C244.996 221.263 244.994 221.227 244.994 221.189V215.561C244.994 215.525 244.994 215.486 244.996 215.448C244.996 215.418 244.999 215.387 245.002 215.357C245.079 214.417 245.7 213.65 246.502 213.443C246.53 213.435 246.557 213.43 246.584 213.424C246.697 213.402 246.81 213.388 246.928 213.388H289.024C289.029 213.413 289.035 213.435 289.04 213.46C289.719 216.383 291.288 220.389 294.898 223.339C294.903 223.35 294.912 223.355 294.917 223.358Z" fill="#FF8548"/>
<path d="M328.004 213.394H326.988V223.361H328.004V213.394Z" fill="#FF8548"/>
<path d="M324.559 213.394H323.54V223.361H324.559V213.394Z" fill="#FF8548"/>
<path d="M320.427 213.394H319.408V223.361H320.427V213.394Z" fill="#FF8548"/>
<path d="M314.091 213.394H313.072V223.361H314.091V213.394Z" fill="#FF8548"/>
<path d="M307.393 213.394H306.374V223.361H307.393V213.394Z" fill="#FF8548"/>
<path d="M297.126 213.394H296.107V223.361H297.126V213.394Z" fill="#FF8548"/>
<path d="M287.51 213.394H286.491V223.361H287.51V213.394Z" fill="#FF8548"/>
<path d="M278.924 213.394H277.905V223.361H278.924V213.394Z" fill="#FF8548"/>
<path d="M331.287 213.394H330.268V223.361H331.287V213.394Z" fill="#FF8548"/>
<path d="M333.45 213.394H332.433V223.361H333.45V213.394Z" fill="#FF8548"/>
<path d="M335.543 213.394H334.527V223.361H335.543V213.394Z" fill="#FF8548"/>
<path d="M337.12 213.427V223.322C336.997 223.344 336.867 223.358 336.738 223.358H336.101V213.394H336.738C336.867 213.394 336.994 213.405 337.12 213.427Z" fill="#FF8548"/>
<path d="M338.532 214.351V222.401C338.285 222.767 337.931 223.053 337.516 223.212V213.54C337.931 213.699 338.288 213.988 338.532 214.351Z" fill="#FF8548"/>
<path d="M338.716 205.668V211.296C338.716 211.744 338.579 212.16 338.346 212.506C338.098 212.872 337.744 213.158 337.329 213.317C337.23 213.356 337.126 213.389 337.021 213.411H337.019C336.991 213.419 336.961 213.424 336.933 213.43C336.81 213.452 336.681 213.466 336.551 213.466H246.972C246.878 213.466 246.782 213.46 246.691 213.446C246.656 213.444 246.62 213.438 246.584 213.43C245.609 213.254 244.859 212.418 244.807 211.409C244.807 211.373 244.804 211.335 244.804 211.296V205.668C244.804 205.632 244.807 205.594 244.807 205.555C244.864 204.414 245.815 203.499 246.972 203.499H336.549C336.606 203.499 336.664 203.502 336.719 203.507C336.744 203.51 336.769 203.513 336.793 203.515C336.821 203.518 336.848 203.521 336.873 203.526C336.892 203.529 336.911 203.532 336.931 203.535C337.068 203.559 337.2 203.595 337.326 203.647C337.346 203.655 337.365 203.661 337.381 203.669C337.4 203.677 337.42 203.686 337.436 203.694C337.475 203.71 337.51 203.73 337.546 203.746C337.585 203.768 337.626 203.79 337.664 203.812C337.7 203.831 337.733 203.853 337.766 203.878C337.804 203.906 337.84 203.933 337.879 203.961C337.906 203.983 337.933 204.005 337.961 204.029C337.961 204.029 337.964 204.032 337.966 204.035C337.986 204.051 338.005 204.068 338.021 204.084C338.076 204.134 338.129 204.189 338.178 204.247C338.194 204.263 338.208 204.28 338.222 204.296C338.236 204.315 338.249 204.332 338.263 204.348C338.291 204.384 338.318 204.423 338.343 204.458C338.579 204.802 338.716 205.22 338.716 205.668Z" fill="#FFD200"/>
<path d="M294.73 213.466H246.738C246.7 213.466 246.661 213.463 246.625 213.463C246.584 213.46 246.543 213.455 246.502 213.449C245.579 213.323 244.853 212.462 244.807 211.409C244.807 211.373 244.804 211.335 244.804 211.296V205.668C244.804 205.632 244.807 205.594 244.807 205.555C244.859 204.414 245.708 203.499 246.738 203.499H288.834C288.853 203.581 288.873 203.661 288.892 203.743C289.59 206.63 291.148 210.507 294.642 213.391C294.672 213.419 294.7 213.441 294.73 213.466Z" fill="#FF8548"/>
<path d="M327.815 203.499H326.798V213.466H327.815V203.499Z" fill="#FF8548"/>
<path d="M324.369 203.499H323.353V213.466H324.369V203.499Z" fill="#FF8548"/>
<path d="M320.237 203.499H319.221V213.466H320.237V203.499Z" fill="#FF8548"/>
<path d="M313.904 203.499H312.885V213.466H313.904V203.499Z" fill="#FF8548"/>
<path d="M307.206 203.499H306.187V213.466H307.206V203.499Z" fill="#FF8548"/>
<path d="M296.936 203.499H295.917V213.466H296.936V203.499Z" fill="#FF8548"/>
<path d="M287.32 203.499H286.301V213.466H287.32V203.499Z" fill="#FF8548"/>
<path d="M278.735 203.499H277.715V213.466H278.735V203.499Z" fill="#FF8548"/>
<path d="M331.098 203.499H330.079V213.466H331.098V203.499Z" fill="#FF8548"/>
<path d="M333.263 203.499H332.246V213.466H333.263V203.499Z" fill="#FF8548"/>
<path d="M335.356 203.499H334.337V213.466H335.356V203.499Z" fill="#FF8548"/>
<path d="M336.931 203.535V213.43C336.807 213.452 336.678 213.466 336.549 213.466H335.911V203.499H336.549C336.681 203.499 336.807 203.51 336.931 203.535Z" fill="#FF8548"/>
<path d="M338.346 204.456V212.506C338.098 212.872 337.744 213.158 337.329 213.317V203.645C337.744 203.807 338.098 204.093 338.346 204.456Z" fill="#FF8548"/>
<path d="M343.346 195.949V201.577C343.346 202.025 343.208 202.44 342.975 202.79C342.728 203.152 342.373 203.441 341.958 203.601C341.832 203.65 341.697 203.689 341.563 203.713C341.439 203.735 341.31 203.749 341.181 203.749H251.598C251.238 203.749 250.898 203.661 250.598 203.504C249.964 203.172 249.51 202.534 249.439 201.789C249.436 201.756 249.433 201.723 249.431 201.692C249.431 201.654 249.428 201.618 249.428 201.58V195.952C249.428 195.913 249.431 195.877 249.431 195.839C249.488 194.698 250.442 193.782 251.596 193.782H341.173C341.305 193.782 341.431 193.793 341.555 193.818C341.692 193.843 341.824 193.878 341.95 193.931C342.365 194.09 342.719 194.379 342.967 194.742C343.208 195.083 343.346 195.498 343.346 195.949Z" fill="#FFD200"/>
<path d="M299.357 203.743H251.368C251.046 203.743 250.744 203.655 250.478 203.499C249.912 203.166 249.508 202.528 249.445 201.783C249.442 201.75 249.439 201.717 249.436 201.687C249.436 201.648 249.434 201.612 249.434 201.574V195.946C249.434 195.907 249.436 195.871 249.436 195.833C249.489 194.692 250.338 193.776 251.368 193.776H293.464C294.118 196.63 295.618 200.546 299.063 203.496C299.159 203.581 299.258 203.663 299.357 203.743Z" fill="#FF8548"/>
<path d="M332.447 193.779H331.428V203.746H332.447V193.779Z" fill="#FF8548"/>
<path d="M328.996 193.779H327.98V203.746H328.996V193.779Z" fill="#FF8548"/>
<path d="M324.867 193.779H323.847V203.746H324.867V193.779Z" fill="#FF8548"/>
<path d="M318.531 193.779H317.512V203.746H318.531V193.779Z" fill="#FF8548"/>
<path d="M311.833 193.779H310.814V203.746H311.833V193.779Z" fill="#FF8548"/>
<path d="M301.566 193.779H300.546V203.746H301.566V193.779Z" fill="#FF8548"/>
<path d="M291.95 193.779H290.93V203.746H291.95V193.779Z" fill="#FF8548"/>
<path d="M283.361 193.78H282.345V203.746H283.361V193.78Z" fill="#FF8548"/>
<path d="M335.725 193.779H334.708V203.746H335.725V193.779Z" fill="#FF8548"/>
<path d="M337.892 193.779H336.873V203.746H337.892V193.779Z" fill="#FF8548"/>
<path d="M339.986 193.779H338.966V203.746H339.986V193.779Z" fill="#FF8548"/>
<path d="M341.56 193.812V203.707C341.436 203.729 341.307 203.743 341.178 203.743H340.541V193.776H341.178C341.307 193.779 341.436 193.79 341.56 193.812Z" fill="#FF8548"/>
<path d="M342.972 194.736V202.786C342.725 203.152 342.371 203.438 341.956 203.597V193.925C342.371 194.084 342.728 194.373 342.972 194.736Z" fill="#FF8548"/>
<path d="M350.665 185.982V191.61C350.665 192.058 350.528 192.473 350.294 192.82C350.047 193.186 349.692 193.471 349.278 193.631C349.151 193.68 349.017 193.719 348.882 193.744C348.758 193.766 348.629 193.779 348.5 193.779H258.92C257.766 193.779 256.813 192.864 256.755 191.723C256.755 191.684 256.752 191.649 256.752 191.61V185.982C256.752 185.946 256.752 185.908 256.755 185.869C256.81 184.813 257.629 183.95 258.665 183.826C258.75 183.815 258.835 183.81 258.92 183.81H348.497C348.626 183.81 348.756 183.821 348.879 183.846C349.017 183.87 349.148 183.906 349.275 183.958C349.69 184.118 350.044 184.406 350.291 184.769C350.528 185.119 350.665 185.534 350.665 185.982Z" fill="#FFD200"/>
<path d="M306.676 193.779H258.687C257.656 193.779 256.807 192.864 256.755 191.723C256.755 191.684 256.752 191.649 256.752 191.61V185.982C256.752 185.946 256.752 185.908 256.755 185.869C256.805 184.813 257.533 183.95 258.459 183.826C258.533 183.815 258.61 183.81 258.687 183.81H300.783C300.783 183.815 300.786 183.821 300.786 183.826C301.461 186.76 303.03 190.81 306.676 193.779Z" fill="#FF8548"/>
<path d="M339.766 183.812H338.747V193.779H339.766V183.812Z" fill="#FF8548"/>
<path d="M336.321 183.812H335.301V193.779H336.321V183.812Z" fill="#FF8548"/>
<path d="M332.189 183.812H331.169V193.779H332.189V183.812Z" fill="#FF8548"/>
<path d="M325.853 183.812H324.834V193.779H325.853V183.812Z" fill="#FF8548"/>
<path d="M319.155 183.812H318.135V193.779H319.155V183.812Z" fill="#FF8548"/>
<path d="M308.885 183.812H307.866V193.779H308.885V183.812Z" fill="#FF8548"/>
<path d="M299.269 183.812H298.25V193.779H299.269V183.812Z" fill="#FF8548"/>
<path d="M290.683 183.812H289.667V193.779H290.683V183.812Z" fill="#FF8548"/>
<path d="M343.046 183.812H342.027V193.779H343.046V183.812Z" fill="#FF8548"/>
<path d="M345.214 183.812H344.195V193.779H345.214V183.812Z" fill="#FF8548"/>
<path d="M347.308 183.812H346.288V193.779H347.308V183.812Z" fill="#FF8548"/>
<path d="M348.879 183.848V193.744C348.756 193.766 348.626 193.779 348.497 193.779H347.86V183.812H348.497C348.629 183.812 348.756 183.823 348.879 183.848Z" fill="#FF8548"/>
<path d="M350.294 184.769V192.82C350.047 193.185 349.692 193.471 349.278 193.631V183.958C349.692 184.12 350.047 184.406 350.294 184.769Z" fill="#FF8548"/>
<path d="M338.903 176.031V181.659C338.903 182.108 338.766 182.523 338.532 182.869C338.285 183.235 337.931 183.521 337.516 183.68C337.389 183.73 337.255 183.768 337.12 183.793C337.079 183.801 337.035 183.807 336.994 183.812C336.961 183.818 336.928 183.82 336.892 183.82C336.876 183.82 336.859 183.823 336.843 183.823C336.807 183.823 336.774 183.826 336.738 183.826H247.158C246.005 183.826 245.051 182.91 244.993 181.769C244.993 181.731 244.991 181.695 244.991 181.657V176.028C244.991 175.99 244.991 175.954 244.993 175.916C245.051 174.775 246.005 173.859 247.158 173.859H336.736C336.774 173.859 336.813 173.859 336.851 173.862C336.942 173.867 337.03 173.878 337.117 173.892C337.255 173.917 337.387 173.953 337.513 174.005C337.579 174.03 337.642 174.057 337.7 174.087C337.738 174.107 337.777 174.126 337.813 174.148C337.815 174.148 337.821 174.151 337.824 174.156C337.859 174.178 337.898 174.2 337.933 174.225C337.942 174.228 337.947 174.233 337.953 174.236C337.986 174.258 338.019 174.283 338.049 174.307C338.126 174.365 338.197 174.428 338.263 174.494C338.285 174.514 338.304 174.535 338.324 174.557C338.326 174.56 338.332 174.566 338.335 174.569C338.348 174.582 338.359 174.596 338.373 174.61C338.376 174.612 338.379 174.615 338.381 174.618C338.403 174.643 338.425 174.67 338.444 174.698C338.475 174.736 338.502 174.775 338.53 174.816C338.769 175.168 338.903 175.583 338.903 176.031Z" fill="#FFD200"/>
<path d="M294.917 183.829H246.928C245.898 183.829 245.049 182.914 244.996 181.773C244.996 181.734 244.994 181.698 244.994 181.66V176.032C244.994 175.993 244.994 175.957 244.996 175.919C245.049 174.778 245.898 173.862 246.928 173.862H289.024C289.04 173.939 289.06 174.014 289.079 174.093C289.777 176.999 291.351 180.917 294.898 183.813C294.903 183.818 294.912 183.824 294.917 183.829Z" fill="#FF8548"/>
<path d="M328.004 173.862H326.988V183.829H328.004V173.862Z" fill="#FF8548"/>
<path d="M324.559 173.862H323.54V183.829H324.559V173.862Z" fill="#FF8548"/>
<path d="M320.427 173.862H319.408V183.829H320.427V173.862Z" fill="#FF8548"/>
<path d="M314.091 173.862H313.072V183.829H314.091V173.862Z" fill="#FF8548"/>
<path d="M307.393 173.862H306.374V183.829H307.393V173.862Z" fill="#FF8548"/>
<path d="M297.126 173.862H296.107V183.829H297.126V173.862Z" fill="#FF8548"/>
<path d="M287.51 173.862H286.491V183.829H287.51V173.862Z" fill="#FF8548"/>
<path d="M278.924 173.862H277.905V183.829H278.924V173.862Z" fill="#FF8548"/>
<path d="M331.287 173.862H330.268V183.829H331.287V173.862Z" fill="#FF8548"/>
<path d="M333.45 173.862H332.433V183.829H333.45V173.862Z" fill="#FF8548"/>
<path d="M335.543 173.862H334.527V183.829H335.543V173.862Z" fill="#FF8548"/>
<path d="M337.12 173.898V183.793C336.997 183.815 336.867 183.829 336.738 183.829H336.101V173.862H336.738C336.867 173.862 336.994 173.873 337.12 173.898Z" fill="#FF8548"/>
<path d="M338.532 174.819V182.869C338.285 183.235 337.931 183.521 337.516 183.68V174.008C337.931 174.17 338.288 174.456 338.532 174.819Z" fill="#FF8548"/>
<path d="M345.492 166.295V171.924C345.492 172.372 345.354 172.787 345.121 173.133C344.873 173.499 344.519 173.785 344.104 173.944C343.978 173.994 343.843 174.032 343.709 174.057C343.585 174.079 343.456 174.093 343.327 174.093H253.744C253.398 174.093 253.068 174.01 252.777 173.862C252.123 173.535 251.656 172.883 251.587 172.124C251.585 172.097 251.582 172.067 251.582 172.036C251.582 171.998 251.579 171.962 251.579 171.924V166.295C251.579 166.257 251.579 166.221 251.582 166.183C251.637 165.127 252.456 164.264 253.491 164.14C253.574 164.129 253.659 164.123 253.747 164.123H343.324C343.453 164.123 343.582 164.134 343.706 164.159C343.843 164.184 343.975 164.22 344.101 164.272C344.516 164.431 344.871 164.72 345.118 165.083C345.354 165.432 345.492 165.847 345.492 166.295Z" fill="#FFD200"/>
<path d="M301.503 174.093H253.513C253.203 174.093 252.909 174.01 252.651 173.862C252.068 173.535 251.651 172.883 251.587 172.124C251.585 172.097 251.582 172.067 251.582 172.036C251.582 171.998 251.579 171.962 251.579 171.924V166.295C251.579 166.257 251.579 166.221 251.582 166.183C251.629 165.127 252.359 164.264 253.285 164.14C253.359 164.129 253.436 164.123 253.513 164.123H295.609C295.609 164.129 295.612 164.134 295.612 164.14C296.269 166.996 297.774 170.915 301.225 173.859C301.318 173.939 301.409 174.016 301.503 174.093Z" fill="#FF8548"/>
<path d="M334.593 164.126H333.573V174.093H334.593V164.126Z" fill="#FF8548"/>
<path d="M331.145 164.126H330.125V174.093H331.145V164.126Z" fill="#FF8548"/>
<path d="M327.012 164.126H325.993V174.093H327.012V164.126Z" fill="#FF8548"/>
<path d="M320.677 164.126H319.658V174.093H320.677V164.126Z" fill="#FF8548"/>
<path d="M313.979 164.126H312.959V174.093H313.979V164.126Z" fill="#FF8548"/>
<path d="M303.711 164.126H302.692V174.093H303.711V164.126Z" fill="#FF8548"/>
<path d="M294.093 164.126H293.076V174.093H294.093V164.126Z" fill="#FF8548"/>
<path d="M285.51 164.126H284.491V174.093H285.51V164.126Z" fill="#FF8548"/>
<path d="M337.873 164.126H336.854V174.093H337.873V164.126Z" fill="#FF8548"/>
<path d="M340.038 164.126H339.019V174.093H340.038V164.126Z" fill="#FF8548"/>
<path d="M342.132 164.126H341.112V174.093H342.132V164.126Z" fill="#FF8548"/>
<path d="M343.706 164.162V174.057C343.582 174.079 343.453 174.093 343.324 174.093H342.687V164.126H343.324C343.453 164.126 343.579 164.137 343.706 164.162Z" fill="#FF8548"/>
<path d="M345.118 165.083V173.133C344.871 173.499 344.516 173.785 344.101 173.944V164.272C344.516 164.434 344.873 164.72 345.118 165.083Z" fill="#FF8548"/>
<path d="M338.903 156.345V161.973C338.903 162.421 338.766 162.837 338.532 163.183C338.285 163.549 337.931 163.835 337.516 163.994C337.389 164.044 337.255 164.082 337.12 164.107C337.079 164.115 337.035 164.121 336.994 164.126C336.972 164.129 336.947 164.132 336.922 164.134C336.9 164.137 336.876 164.137 336.851 164.14C336.813 164.143 336.774 164.143 336.736 164.143H247.158C246.005 164.143 245.051 163.227 244.993 162.086C244.993 162.048 244.991 162.012 244.991 161.973V156.345C244.991 156.307 244.991 156.271 244.993 156.232C245.051 155.091 246.005 154.176 247.158 154.176H336.736C336.865 154.176 336.994 154.187 337.117 154.212C337.255 154.236 337.387 154.272 337.513 154.324C337.928 154.484 338.282 154.772 338.53 155.135C338.769 155.482 338.903 155.897 338.903 156.345Z" fill="#FFD200"/>
<path d="M294.917 164.143H246.928C245.898 164.143 245.049 163.227 244.996 162.086C244.996 162.048 244.994 162.012 244.994 161.973V156.345C244.994 156.307 244.994 156.271 244.996 156.232C245.049 155.091 245.898 154.176 246.928 154.176H289.024C289.694 157.104 291.258 161.154 294.898 164.126C294.903 164.132 294.912 164.137 294.917 164.143Z" fill="#FF8548"/>
<path d="M328.004 154.176H326.988V164.143H328.004V154.176Z" fill="#FF8548"/>
<path d="M324.559 154.176H323.54V164.143H324.559V154.176Z" fill="#FF8548"/>
<path d="M320.427 154.176H319.408V164.143H320.427V154.176Z" fill="#FF8548"/>
<path d="M314.091 154.176H313.072V164.143H314.091V154.176Z" fill="#FF8548"/>
<path d="M307.393 154.176H306.374V164.143H307.393V154.176Z" fill="#FF8548"/>
<path d="M297.126 154.176H296.107V164.143H297.126V154.176Z" fill="#FF8548"/>
<path d="M287.51 154.176H286.491V164.143H287.51V154.176Z" fill="#FF8548"/>
<path d="M278.924 154.176H277.905V164.143H278.924V154.176Z" fill="#FF8548"/>
<path d="M331.287 154.176H330.268V164.143H331.287V154.176Z" fill="#FF8548"/>
<path d="M333.45 154.176H332.433V164.143H333.45V154.176Z" fill="#FF8548"/>
<path d="M335.543 154.176H334.527V164.143H335.543V154.176Z" fill="#FF8548"/>
<path d="M337.12 154.212V164.107C336.997 164.129 336.867 164.143 336.738 164.143H336.101V154.176H336.738C336.867 154.176 336.994 154.187 337.12 154.212Z" fill="#FF8548"/>
<path d="M338.532 155.135V163.186C338.285 163.549 337.931 163.837 337.516 163.997V154.324C337.931 154.484 338.288 154.77 338.532 155.135Z" fill="#FF8548"/>
<path d="M288.014 248.126C307.812 228.314 307.812 196.192 288.014 176.379C268.217 156.567 236.118 156.567 216.321 176.379C196.523 196.192 196.523 228.314 216.321 248.126C236.118 267.939 268.217 267.939 288.014 248.126Z" fill="#FFD200"/>
<path d="M261.609 198.948H257.62C257.467 198.096 257.181 197.346 256.764 196.698C256.346 196.051 255.835 195.501 255.23 195.049C254.624 194.597 253.947 194.257 253.197 194.026C252.455 193.796 251.667 193.681 250.832 193.681C249.323 193.681 247.972 194.061 246.779 194.819C245.595 195.578 244.657 196.69 243.967 198.156C243.285 199.622 242.944 201.411 242.944 203.525C242.944 205.656 243.285 207.454 243.967 208.92C244.657 210.386 245.599 211.494 246.792 212.244C247.985 212.994 249.328 213.369 250.819 213.369C251.646 213.369 252.43 213.258 253.171 213.036C253.921 212.806 254.599 212.47 255.204 212.026C255.809 211.583 256.321 211.042 256.738 210.403C257.164 209.755 257.458 209.014 257.62 208.178L261.609 208.191C261.396 209.478 260.982 210.663 260.369 211.745C259.764 212.819 258.984 213.748 258.029 214.532C257.083 215.308 256.001 215.909 254.782 216.335C253.563 216.761 252.234 216.974 250.794 216.974C248.526 216.974 246.507 216.437 244.734 215.363C242.961 214.281 241.563 212.734 240.541 210.723C239.526 208.711 239.019 206.312 239.019 203.525C239.019 200.73 239.531 198.33 240.553 196.328C241.576 194.316 242.974 192.774 244.747 191.7C246.519 190.617 248.535 190.076 250.794 190.076C252.183 190.076 253.478 190.276 254.68 190.677C255.89 191.069 256.977 191.649 257.94 192.416C258.903 193.174 259.7 194.103 260.33 195.203C260.961 196.294 261.387 197.542 261.609 198.948Z" fill="#FF8548"/>
<path d="M236.987 223.775H263.463V226.23H236.987V223.775Z" fill="#FF8548"/>
<path d="M252.17 259.077C239.831 259.077 228.231 254.268 219.508 245.538C210.785 236.809 205.98 225.2 205.98 212.853C205.98 200.505 210.785 188.896 219.508 180.167C228.231 171.437 239.831 166.628 252.17 166.628C264.508 166.628 276.108 171.437 284.831 180.167C293.554 188.896 298.36 200.505 298.36 212.853C298.36 225.2 293.554 236.809 284.831 245.538C276.108 254.268 264.508 259.077 252.17 259.077ZM252.17 169.383C240.567 169.383 229.66 173.904 221.456 182.113C213.252 190.323 208.736 201.239 208.736 212.85C208.736 224.461 213.252 235.376 221.456 243.586C229.66 251.796 240.567 256.316 252.17 256.316C263.772 256.316 274.679 251.793 282.883 243.586C291.087 235.376 295.604 224.461 295.604 212.85C295.604 201.239 291.084 190.323 282.883 182.113C274.679 173.906 263.772 169.383 252.17 169.383Z" fill="#FFBA41"/>
<path d="M88.7501 118.078L88.7776 118.051C88.7996 118.026 88.8215 118.001 88.8435 117.976L96.8743 109.123L90.0469 108.856C90.1293 106.349 90.6129 103.885 91.5003 101.463C92.7229 98.1335 94.2367 94.8479 96.0473 91.6035C97.8551 88.3618 99.7508 85.0542 101.732 81.6861C103.71 78.3208 105.353 74.6722 106.663 70.7487C107.971 66.828 108.74 62.6405 108.966 58.1946C109.194 53.746 108.427 48.8299 106.669 43.4492C104.471 36.7212 101.103 30.9116 96.5665 26.0203C92.0305 21.1317 86.739 17.2577 80.6947 14.39C74.6476 11.5278 68.062 9.7846 60.9297 9.15497C53.7974 8.53084 46.6238 9.17422 39.4091 11.0906C33.8071 12.5781 28.8452 14.6374 24.529 17.2659L22.5481 16.6253L16.1219 23.8619H16.1246C11.6518 28.2143 8.12414 33.0067 5.55255 38.2417C2.5661 44.318 0.791259 50.5593 0.225289 56.9628C-0.343428 63.3719 0.164845 69.209 1.74736 74.4743C2.2364 75.97 3.04415 77.056 4.17609 77.7296C5.30528 78.406 6.45096 78.5875 7.61037 78.2795L31.1833 72.0217C32.3207 71.7193 33.2081 71.2436 33.8565 70.5975V70.603L33.9087 70.5452C33.9719 70.482 34.0296 70.416 34.0873 70.3473L42.2444 61.351L35.9089 60.6114C35.9253 60.4987 35.9391 60.3887 35.9556 60.2732C36.3347 57.576 37.4474 54.8787 39.3019 52.1953C41.1537 49.509 44.9781 47.3974 50.7752 45.8577C56.6986 44.285 61.4819 44.3565 65.1222 46.0722C68.7598 47.7878 71.2902 50.815 72.7051 55.1509C73.6832 58.1451 73.7162 61.1393 72.8068 64.1417C71.9001 67.1469 70.5567 70.2236 68.7873 73.3745C67.0152 76.5254 65.0563 79.8495 62.9106 83.344C60.7621 86.8386 58.9241 90.5367 57.3992 94.4354C55.8717 98.3369 54.8771 102.458 54.4073 106.808C53.9402 111.16 54.5089 115.799 56.1217 120.734C56.6602 122.381 57.6355 123.665 59.0587 124.586C60.4791 125.513 61.8968 125.782 63.3144 125.406L86.8846 119.148C87.6484 118.939 88.2693 118.581 88.7501 118.078Z" fill="#F46C31"/>
<path d="M112.996 157.324L104.627 154.822L98.8606 137.171C98.3249 135.526 97.3441 134.245 95.9236 133.319C94.5005 132.397 93.0828 132.122 91.6679 132.499L77.351 136.299L73.164 131.443L65.4354 139.983C64.9464 140.437 64.5453 141.02 64.2348 141.729C63.5947 143.203 63.5452 144.756 64.081 146.401L71.4798 169.056C72.0183 170.703 72.9936 171.987 74.4168 172.908C75.8372 173.835 77.2549 174.104 78.6726 173.728L103.017 167.264C103.905 167.027 104.638 166.579 105.221 165.916L112.996 157.324Z" fill="#F46C31"/>
<path d="M47.503 2.16567C54.715 0.252033 61.8886 -0.394094 69.0236 0.230037C76.1587 0.856917 82.7443 2.60283 88.7886 5.46504C94.833 8.33274 100.124 12.2068 104.66 17.0953C109.196 21.9839 112.565 27.7935 114.763 34.5242C116.521 39.9077 117.288 44.8238 117.06 49.2697C116.832 53.7183 116.065 57.9058 114.757 61.8238C113.447 65.7473 111.804 69.3958 109.826 72.7612C107.848 76.132 105.952 79.4369 104.141 82.6785C102.331 85.9229 100.814 89.2085 99.5942 92.5382C98.3744 95.8705 97.9128 99.2826 98.215 102.777C98.3661 104.526 98.2178 106.11 97.7727 107.526C97.3249 108.947 96.3935 109.841 94.9786 110.217L71.4084 116.475C69.9907 116.852 68.573 116.58 67.1526 115.656C65.7295 114.735 64.7541 113.451 64.2156 111.804C62.6029 106.868 62.0342 102.23 62.5012 97.8776C62.971 93.5307 63.9656 89.4065 65.4932 85.505C67.018 81.6062 69.6198 78.0237 71.7683 74.5291C73.914 71.0345 75.873 67.7104 77.645 64.5595C79.4144 61.4086 79.9913 58.2165 80.9007 55.2113C81.8101 52.2089 81.7772 49.2119 80.7991 46.2205C79.3842 41.8846 76.8538 38.8602 73.2162 37.1445C69.5759 35.4288 64.7926 35.3601 58.8691 36.9328C53.0721 38.4725 49.2476 40.5841 47.3959 43.2703C45.5441 45.9566 44.4287 48.651 44.0495 51.3483C43.6731 54.051 43.3929 56.52 43.217 58.7609C43.0385 61.0017 41.7252 62.4479 39.28 63.0968L15.7098 69.3546C14.5504 69.6625 13.4047 69.4783 12.2755 68.8047C11.1436 68.1311 10.3358 67.045 9.8468 65.5493C8.26428 60.2841 7.75876 54.4442 8.32473 48.0379C8.8907 41.6344 10.6683 35.3931 13.652 29.3167C16.6357 23.2459 20.9024 17.7634 26.444 12.8804C31.9801 7.99181 39.0025 4.42299 47.503 2.16567ZM114.351 150.904C114.889 152.551 114.837 154.107 114.197 155.575C113.557 157.049 112.529 157.967 111.111 158.344L86.7665 164.808C85.3488 165.185 83.9312 164.913 82.5107 163.989C81.0876 163.068 80.1122 161.784 79.5737 160.137L72.1749 137.481C71.6392 135.837 71.6886 134.281 72.3288 132.81C72.9689 131.342 73.9937 130.418 75.4141 130.041L99.7591 123.577C101.174 123.2 102.594 123.475 104.015 124.396C105.435 125.323 106.416 126.604 106.952 128.248L114.351 150.904Z" fill="#FF8548"/>
<path d="M155.982 119.898C155.982 119.898 159.884 116.706 161.285 116.69C162.686 116.673 165.351 115.972 165.244 116.429C165.14 116.885 162.895 117.482 163.282 117.691C163.667 117.902 166.928 117.025 167.838 117.55C168.75 118.075 170.887 120.25 169.17 121.199C167.453 122.145 162.301 123.654 160.969 123.478C159.636 123.302 156.623 123.093 156.623 123.093L155.982 119.898Z" fill="#FDAD9B"/>
<path d="M106.152 238.558L109.424 252.352L114.326 252.324L114.504 238.558H106.152Z" fill="#FDAD9B"/>
<path d="M147.38 239.146L156.691 252.351L160.321 247.688L154.716 237.331L147.38 239.146Z" fill="#FDAD9B"/>
<path d="M128.299 72.379C128.299 72.3763 128.299 72.3763 128.299 72.3763C128.299 72.3433 128.297 72.3103 128.291 72.2745C128.231 71.5872 128.151 70.908 128.058 70.2317C128.058 70.2289 128.058 70.2289 128.058 70.2289C127.777 68.1613 127.373 66.1707 126.882 64.3973C126.599 63.38 126.291 62.4287 125.956 61.5708C125.906 61.4389 125.854 61.3151 125.807 61.1887L125.805 61.1859C125.008 59.242 124.101 57.8453 123.173 57.3174C121.48 56.3551 119.453 56.2506 118.035 56.3331C118.4 55.9564 119.12 55.8189 119.12 55.8189C118.241 55.687 116.277 56.5585 116.277 56.5585C104.042 51.8432 102.119 69.8687 102.377 74.0562C102.633 78.2436 98.2645 79.6101 91.9014 82.9095C79.7578 89.2058 78.6918 97.6357 78.6918 97.6357C78.7852 97.6907 78.8841 97.7567 78.9885 97.8282C79.5902 96.8081 80.832 94.889 81.8788 94.6003C81.8376 94.6938 80.6425 97.2398 80.1946 98.6997C81.7277 99.871 83.8267 101.639 86.0988 103.624C86.0988 103.624 86.0988 103.624 86.1016 103.627C89.1403 106.277 92.4784 109.304 95.1516 111.757C95.1324 110.918 95.1653 109.731 95.4703 109.104L95.9813 112.178L96.0473 112.579C97.7507 114.146 99.0942 115.4 99.7755 116.038C99.847 116.101 99.9074 116.162 99.9624 116.211C100.16 116.395 100.267 116.497 100.267 116.497C100.168 115.422 101.677 112.884 104.042 109.753C104.204 109.533 104.375 109.313 104.551 109.087C105.312 108.1 106.15 107.064 107.042 106.002C107.364 105.617 107.691 105.232 108.026 104.845C108.026 104.842 108.029 104.842 108.029 104.842C108.298 104.529 108.57 104.215 108.85 103.899L108.853 103.896C109.515 103.146 110.197 102.39 110.889 101.636C112.683 99.6813 114.562 97.7539 116.395 96.0025C119.057 93.451 121.623 91.2734 123.703 89.9069C123.783 89.7915 123.857 89.6732 123.928 89.5522C124.316 88.9254 124.645 88.216 124.928 87.4874C125.016 87.2674 125.096 87.0475 125.173 86.8248C125.989 84.4822 126.354 82.0929 126.431 81.521C126.233 83.8718 125.912 85.6205 125.56 86.9237C125.48 87.2097 125.404 87.4736 125.321 87.7183V87.7211C125.14 88.2737 124.956 88.7246 124.777 89.0958C125.134 88.7686 125.458 88.3975 125.758 87.985C125.953 87.7156 126.14 87.4296 126.31 87.1272C128.357 83.5666 128.797 77.8642 128.299 72.379Z" fill="black"/>
<path d="M123.225 90.1735C123.266 90.1928 119.293 92.2549 116.307 91.4383C113.496 90.6712 111.661 87.0254 111.699 87.0171C112.889 86.7807 113.232 85.1447 113.208 78.1116L113.746 78.2188L122.791 80.0115C122.791 80.0115 122.585 82.8599 122.579 85.5434C122.574 87.798 122.708 89.9343 123.225 90.1735Z" fill="#FDAD9B"/>
<path d="M122.791 80.0116C122.791 80.0116 122.585 82.8601 122.579 85.5436C117.518 85.4006 114.842 80.7788 113.746 78.219L122.791 80.0116Z" fill="#F18C7E"/>
<path d="M112.812 77.2348C112.812 77.2348 110.161 73.0418 109.523 69.4538C109.07 66.894 110.372 57.4028 119.903 58.7693C119.903 58.7693 122.673 59.0415 125.274 60.8012C127.343 62.2006 130.33 65.2196 126.992 73.501L126.123 76.2999L112.812 77.2348Z" fill="#66192D"/>
<path d="M158.842 244.067L154.048 244.213L148.858 244.372C148.858 244.372 136.871 231.016 130.146 209.603C129.989 209.105 129.824 208.602 129.648 208.09C125.969 197.351 118.34 183.873 114.318 171.671C113.677 169.727 113.103 167.899 112.587 166.166C112.422 165.611 112.26 165.067 112.109 164.53C109.147 154.228 108.287 147.464 107.499 140.236L136.531 140.47C136.531 140.475 141.218 189.826 158.842 244.067Z" fill="#552748"/>
<path d="M132.467 123.783C132.393 137.608 134.495 143.541 134.495 143.541C134.495 143.541 122.065 149.862 107.292 145.21C107.119 145.155 96.5748 142.747 96.5748 142.747C96.8221 142.186 97.5062 132.524 97.7479 132.01C100.866 125.307 103.235 122.367 103.605 120.308C104.292 116.462 104.306 112.48 103.965 108.725C103.064 98.7852 100.383 90.534 100.383 90.534C104.408 89.6184 108.177 88.0072 112.367 86.4345C113.331 87.636 116.277 88.8925 118.832 88.8348C121.774 88.7688 122.728 87.5096 122.576 86.1321C125.711 87.878 128.214 89.5277 128.214 89.5277C130.879 94.1605 136.286 98.6587 136.676 105.766C136.77 107.515 132.467 123.396 132.467 123.783Z" fill="#FFBA41"/>
<path d="M124.48 82.5523C124.48 82.5523 112.504 82.7502 112.496 75.2854C112.488 67.8206 110.936 62.8166 118.582 62.3766C126.228 61.934 127.717 64.7824 128.324 67.2735C128.934 69.7617 127.596 82.3076 124.48 82.5523Z" fill="#FDAD9B"/>
<path d="M124.038 62.1922C124.038 62.1922 120.76 70.9493 115.727 72.2443C110.694 73.5393 108.512 72.1893 108.512 72.1893C108.512 72.1893 110.897 68.1641 111.699 62.8053C111.699 62.8081 121.565 58.024 124.038 62.1922Z" fill="black"/>
<path d="M123.225 62.9043C123.225 62.9043 125.673 64.8592 126.272 66.7618C126.868 68.6617 127.137 72.577 128.277 72.4423C128.277 72.4423 130.747 66.4896 127.972 63.1215C125.027 59.55 123.225 62.9043 123.225 62.9043Z" fill="#66192D"/>
<path d="M109.26 251.579C109.26 251.579 109.655 254.312 108.636 257.235C108.636 257.235 107.834 260.891 111.433 260.96C115.032 261.029 115.917 260.688 115.507 258.444C115.101 256.201 114.323 252.321 114.323 252.321L109.26 251.579Z" fill="#FDAD9B"/>
<path d="M115.985 263.132H108.1C107.779 261.51 108.49 258.048 108.609 257.383C108.617 257.334 108.625 257.295 108.631 257.27C108.633 257.246 108.636 257.235 108.636 257.235C112.71 260.971 115.26 257.138 115.26 257.138C115.263 257.144 115.266 257.149 115.268 257.158C115.867 258.623 115.994 262.56 115.985 263.132Z" fill="#66192D"/>
<path d="M168.994 258.81C168.994 258.81 162.356 251.439 160.321 247.686L155.386 250.215L166.417 260.583L168.997 260.242L168.994 258.81Z" fill="#FDAD9B"/>
<path d="M173.212 263.132C173.212 263.132 164.994 263.132 164.862 263.132C163.631 263.132 162.65 261.092 161.326 258.441C160.785 257.355 159.568 256.759 158.32 256.432L158.353 263.132H156.427L154.653 256.047C153.477 253.886 154.559 251.925 155.386 250.218C156.348 250.215 158.936 250.875 163.837 256.404C165.45 258.219 167.228 258.868 168.994 258.813C169.019 258.829 169.044 258.84 169.068 258.851C173.143 260.685 173.212 263.132 173.212 263.132Z" fill="#66192D"/>
<path d="M154.048 244.216L148.858 244.375C148.858 244.375 136.871 231.018 130.146 209.605C129.989 209.108 129.824 208.605 129.648 208.093C125.969 197.354 118.34 183.876 114.318 171.674C113.678 169.73 113.103 167.901 112.587 166.169C112.422 165.614 112.26 165.069 112.109 164.533L116.384 161.286C116.384 161.286 129.22 182.086 133.192 201.659C136.646 218.668 150.471 239.127 154.048 244.216Z" fill="#4F1A44"/>
<path d="M116.832 203.488C116.906 213.007 116.425 234.892 115.186 243.952H110.589C108.048 243.952 106.781 243.916 106.781 243.916C103.674 228.164 101.462 215.129 99.8525 203.898C98.5309 194.681 97.3578 186.779 96.4566 179.974C95.5472 173.128 94.9153 167.396 94.69 162.554C94.6543 161.792 94.6296 161.05 94.6159 160.329C94.6021 159.606 94.5966 158.902 94.6049 158.218L119.689 155.771C119.367 172.449 116.79 197.956 116.832 203.488Z" fill="#552748"/>
<path d="M110.589 243.952C108.048 243.952 106.781 243.916 106.781 243.916C103.674 228.164 101.462 215.129 99.8524 203.898C98.5309 194.681 97.3578 186.779 96.4566 179.974C95.5472 173.128 94.9153 167.396 94.69 162.554L103.894 167.973C103.894 167.973 98.0199 170.046 100.262 185.748C102.501 201.448 107.468 241.73 110.589 243.952Z" fill="#4F1A44"/>
<path d="M111.774 162.397C111.774 162.397 110.007 168.787 103.894 167.97C97.7809 167.153 89.088 163.483 89.088 163.483C89.088 163.483 91.7008 155.221 94.9483 144.368C98.8799 131.229 99.8607 112.763 102.155 102.082C102.798 99.0874 107.128 98.1168 107.29 96.3269L112.361 86.4783C112.361 86.4783 119.922 103.462 120.332 107.745C120.738 112.029 111.774 162.397 111.774 162.397Z" fill="#FF443C"/>
<path d="M107.499 120.357C107.227 127.292 104.801 139.117 95.0637 144.316C95.0252 144.336 94.9868 144.355 94.9483 144.371C98.8799 131.232 98.8304 118.628 101.125 107.944C106.358 106.852 107.647 116.541 107.499 120.357Z" fill="#F22525"/>
<path d="M96.8028 135.752C96.8028 135.752 101.171 134.809 102.292 136.057C103.413 137.305 104.045 139.288 102.924 139.986C101.803 140.684 98.5557 138.771 97.388 139.541C96.5528 140.093 96.2863 141.498 95.4456 141.006C94.6049 140.514 93.7202 137.294 93.7202 137.294L96.8028 135.752Z" fill="#FDAD9B"/>
<path d="M112.361 86.481C112.361 86.481 100.575 86.9979 97.7424 89.6319C94.9098 92.2659 77.9472 112.606 77.667 117.935C77.3868 123.266 92.5251 138.416 92.5251 138.416C92.5251 138.416 96.7314 137.401 98.5529 134.753C98.5529 134.753 89.1622 117.995 89.7227 117.264C90.2832 116.533 106.194 103.486 107.496 106.379C108.622 108.873 112.361 86.481 112.361 86.481Z" fill="#FF443C"/>
<path d="M157.197 118.169C157.197 118.169 143.74 122.659 142.058 122.285C140.377 121.911 137.973 103.663 136.676 97.4077C135.003 89.3545 128.626 87.7515 128.626 87.7515L122.574 86.1321C122.574 86.1321 129.503 103.261 129.706 106.728C129.909 110.195 130.522 163.42 130.522 163.42C130.522 163.42 130.115 165.867 134.802 164.847C139.49 163.827 140.712 162.807 140.712 162.807C140.712 162.807 138.682 147.929 137.726 134.718C142.501 133.901 157.853 126.115 157.853 126.115C160.233 122.37 157.197 118.169 157.197 118.169Z" fill="#FF443C"/>
<path d="M213.005 83.2065L213.013 84.5785C213.013 84.5785 212.64 88.8649 217.915 89.4918C223.19 90.1187 227.514 90.0362 227.372 86.7286C226.896 84.1661 226.045 80.1903 226.009 78.0732C225.995 77.2869 226.05 76.451 226.196 75.5052L215.975 75.3018L212.964 75.7939L213.005 83.2065Z" fill="#FDAD9B"/>
<path d="M212.967 75.7912L213.005 83.2066C214.09 83.7125 215.316 84.0204 216.69 84.0204C221.388 84.0204 224.424 80.5726 226.012 78.0705C225.998 77.2842 226.053 76.4484 226.198 75.5025L215.978 75.2991L212.967 75.7912Z" fill="#F18C7E"/>
<path d="M226.981 73.8582C225.794 80.2452 217.56 80.0363 214.003 79.6349C213 79.5221 212.371 79.3957 212.371 79.3957C211.241 79.0932 210.612 77.3143 210.318 74.9828C209.739 70.3691 210.472 63.5944 211.25 61.8623C212.423 59.2558 214.632 56.4348 222.923 58.4694C231.218 60.504 228.503 65.6758 226.981 73.8582Z" fill="#FDAD9B"/>
<path d="M233.721 262.964H222.05C222.138 262.351 222.434 260.49 222.981 258.771C223.171 258.175 223.39 257.592 223.643 257.089C224.778 254.82 231.987 256.264 231.987 256.264C231.987 256.264 232.658 256.839 233.18 259.03C233.41 259.998 233.614 261.282 233.721 262.964Z" fill="#66192D"/>
<path d="M198.455 259.28C198.422 260.869 198.224 262.373 197.647 262.967H174.563C174.857 262.131 175.687 260.875 178.058 260.49C180.75 260.053 184.949 258.758 187.399 256.165C188.273 255.244 188.924 254.158 189.207 252.888C190.292 248.049 198.186 254.37 198.186 254.37C198.186 254.37 198.507 256.916 198.455 259.28Z" fill="#66192D"/>
<path d="M213.807 206.974C213.486 208.745 213.283 210.199 213.228 211.241C212.494 225.566 201.18 258.318 199.155 259.08C196.023 260.262 191.092 257.749 188.512 256.927C187.443 256.586 186.721 255.505 186.96 254.411C192.564 228.632 194.622 191.511 195.372 169.535C195.751 158.465 197.65 150.819 197.65 150.819C197.65 150.819 225.248 143.45 225.41 152.771C225.555 161.02 216.269 193.37 213.807 206.974Z" fill="#FF443C"/>
<path d="M213.807 206.974L195.372 169.535C195.751 158.465 197.65 150.819 197.65 150.819C197.65 150.819 225.248 143.45 225.41 152.771C225.555 161.02 216.269 193.37 213.807 206.974Z" fill="#F22525"/>
<path d="M207.667 152.804L222.256 258.617C222.256 258.617 228.663 260.163 233.644 258.925C233.644 258.925 237.916 202.649 237.559 189.045C237.202 175.44 240.625 152.639 236.779 150.126C232.935 147.613 207.667 152.804 207.667 152.804Z" fill="#FF443C"/>
<path d="M208.703 55.7806C208.703 55.7806 212.354 55.5001 216.659 53.625C220.154 52.1045 224.564 53.779 225.995 54.5323C225.957 54.3014 225.863 53.9852 225.646 53.6717C225.646 53.6717 226.289 54.1281 226.382 54.766C226.448 54.8155 226.479 54.8485 226.462 54.8595C226.462 54.8595 227.19 54.7275 227.657 54.9365C227.657 54.9365 227.33 54.8898 227.212 55.1015C227.198 55.1235 227.182 55.1427 227.16 55.1592C232.611 57.796 233.114 66.4183 231.361 68.4117C229.251 70.812 226.72 76.2174 226.72 76.2174C226.72 76.2174 225.797 74.9417 226.182 72.8273C226.567 70.7157 224.742 70.7157 222.44 69.7562C220.138 68.7966 222.055 66.1076 220.041 64.4744C218.028 62.8412 210.64 63.8036 210.736 62.5553C207.994 61.5572 208.703 56.061 208.703 55.7806Z" fill="black"/>
<path d="M228.616 88.5654L225.259 160.687C225.259 160.687 197.224 161.146 198.026 154.798C198.826 148.449 208.131 90.776 208.131 90.776L228.616 88.5654Z" fill="#C8C1E1"/>
<path d="M238.625 129.447C236.957 134.454 240.1 151.256 241.221 156.947C241.469 158.152 241.631 158.864 241.631 158.864C237.749 165.185 223.531 165.102 223.531 165.102C220.797 153.007 219.374 133.745 219.374 133.745L230.284 85.8845L244.01 98.5816C244.01 98.5816 242.971 106.327 241.686 114.207C240.675 120.443 239.526 126.791 238.625 129.447Z" fill="#552748"/>
<path d="M215.297 74.9088C215.297 74.9088 215.03 75.7337 212.953 75.4312C212.953 75.4312 211.208 75.1783 211.338 74.2599C211.335 74.2599 213.09 73.743 215.297 74.9088Z" fill="white"/>
<path d="M199.54 89.5934C199.54 89.5934 199.537 89.6044 199.535 89.6237C198.872 90.267 180.157 108.449 176.533 115.573C172.841 122.796 193.402 137.19 193.402 137.19C193.402 137.19 194.727 137.712 195.644 137.509C194.674 145.496 193.586 152.867 194.232 156.012C195.397 161.698 200.653 163.607 200.653 163.169C200.653 163.029 202.007 142.436 203.62 131.798C207.197 108.188 211.464 86.0273 211.464 86.0273C205.343 86.6652 199.54 89.5934 199.54 89.5934ZM188.397 118.694C188.369 118.666 188.369 118.611 188.369 118.584C188.369 117.545 192.334 115.246 196.628 112.538C196.683 112.483 196.71 112.455 196.71 112.455C196.713 112.453 196.716 112.453 196.718 112.45C196.642 114.663 196.65 116.835 196.782 118.856C197.026 122.606 196.754 127.085 196.301 131.649C194.254 128.452 188.795 119.871 188.397 118.694Z" fill="#552748"/>
<path d="M229.41 85.7993C229.443 85.112 226.187 84.1606 226.187 84.1606C226.187 84.1606 222.459 89.3352 216.316 89.4231C216.316 89.4231 218.066 92.8325 220.129 93.7151C220.129 93.7151 229.207 89.8851 229.41 85.7993Z" fill="#A59CD3"/>
<path d="M207.689 138.166C207.84 139.851 208.612 141.418 209.857 142.565L211.81 144.369C212.299 144.822 213.071 144.759 213.486 144.234L215.907 141.157C216.555 140.332 216.86 139.287 216.761 138.243C216.536 135.914 216.113 131.427 215.775 127.096C215.5 123.588 215.28 120.179 215.264 118.106C215.212 111.485 216.522 90.3716 216.522 90.3716L214.937 90.4541C214.937 90.4541 210.997 98.6503 208.936 109.799C208.428 112.543 208.035 115.466 207.84 118.493C207.837 118.493 207.011 130.552 207.689 138.166Z" fill="#FF443C"/>
<path d="M207.689 138.166C207.84 139.851 208.612 141.418 209.857 142.565L211.81 144.369C212.299 144.822 213.071 144.759 213.486 144.234L215.906 141.157C216.555 140.332 216.86 139.288 216.761 138.243C216.536 135.914 216.113 131.427 215.775 127.096C211.392 122.169 209.615 115.359 208.934 109.802C208.425 112.546 208.032 115.469 207.837 118.496C207.837 118.493 207.01 130.553 207.689 138.166Z" fill="#FF443C"/>
<path d="M216.316 89.302C216.316 89.302 213.06 87.3718 213.049 85.2795C213.049 85.2795 210.947 85.0155 210.03 86.0356C210.03 86.0356 209.258 89.6236 210.283 91.705C210.283 91.705 214.97 90.9901 216.316 89.302Z" fill="#A59CD3"/>
<path d="M218.525 88.9912L214.112 87.9326C214.112 87.9326 213.535 87.9821 213.552 88.7025C213.568 89.4228 214.794 91.5234 215.338 91.6912C215.882 91.8589 219.569 90.4456 218.525 88.9912Z" fill="#FF443C"/>
<path d="M228.896 85.4418C228.929 84.7544 226.726 83.3357 226.726 83.3357C226.726 83.3357 222.459 88.326 216.316 88.4167C216.316 88.4167 218.066 91.8261 220.129 92.7087C220.129 92.7087 228.693 89.5303 228.896 85.4418Z" fill="#C8C1E1"/>
<path d="M216.316 88.4169C216.316 88.4169 213.024 86.671 213.013 84.5786C213.013 84.5786 211.027 85.4529 210.109 86.473C210.109 86.473 209.26 88.7386 210.283 90.8199C210.283 90.8199 214.97 90.1078 216.316 88.4169Z" fill="#C8C1E1"/>
<path d="M241.221 156.947C237.202 152.76 230.256 144.525 230.504 137.764C230.831 128.298 241.686 114.204 241.686 114.204C240.675 120.443 239.526 126.791 238.622 129.444C236.957 134.454 240.1 151.256 241.221 156.947Z" fill="#4F1A44"/>
<path d="M241.098 140.478C241.098 140.478 238.207 141.924 236.455 141.201C234.699 140.478 232.636 139.936 230.677 142.169C228.715 144.402 228.303 145.952 228.715 146.777C229.127 147.605 233.699 147.294 234.457 146.777C235.215 146.26 236.416 144.99 237.177 145.213C239.276 145.823 241.045 144.22 242.035 142.944C242.631 142.174 241.018 141.801 241.098 140.478Z" fill="#FDAD9B"/>
<path d="M230.287 85.8845C230.287 85.8845 241.796 87.1603 244.51 92.1753C247.224 97.1904 261.338 117.517 260.876 125.964C260.415 134.41 241.625 143.882 241.625 143.882C241.625 143.882 237.463 142.122 237.402 140.228C237.339 138.334 250.392 127.017 249.601 124.905C248.81 122.793 234.438 106.09 233.05 100.583C231.66 95.0788 230.287 85.8845 230.287 85.8845Z" fill="#552748"/>
<path d="M196.707 112.453C196.707 112.453 196.68 112.48 196.625 112.535C192.334 115.243 188.366 117.542 188.366 118.581C187.792 116.747 193.369 109.085 195.174 107.526C197.01 105.942 196.707 112.453 196.707 112.453Z" fill="#4F1A44"/>
<path d="M226.726 83.3357C226.726 83.3357 217.989 119.956 219.379 133.753C219.379 133.753 222.591 119.01 230.322 106.937C230.322 106.937 227.501 104.454 227.655 103.539C227.655 103.539 229.748 102.917 231.781 103.335C231.781 103.335 231.556 87.5506 230.289 85.8817C229.023 84.2128 226.726 83.3357 226.726 83.3357Z" fill="#4F1A44"/>
<path d="M213.013 84.5786C213.132 84.6336 204.354 120.363 203.617 131.801C203.617 131.801 204.494 111.391 204.406 105.51C204.406 105.51 208.035 103.588 208.035 102.912C208.035 102.238 204.164 100.413 204.164 100.413C204.164 100.413 206.615 87.845 207.953 86.4593C209.291 85.0763 213.013 84.5786 213.013 84.5786Z" fill="#4F1A44"/>
<path d="M192.089 138.361C192.089 136.522 193.705 135.048 195.521 135.323C196.026 135.4 196.479 135.609 196.795 136.027C198.045 137.693 199.235 142.535 197.021 142.763C196.12 142.856 194.96 142.221 194.07 141.545C193.163 140.855 192.092 139.777 192.092 138.639V138.361H192.089Z" fill="#FDAD9B"/>
</svg>
