<svg width="90" height="94" viewBox="0 0 90 94" fill="none" xmlns="http://www.w3.org/2000/svg">
<g clip-path="url(#clip0_96_515)">
<path d="M37.8225 0H22.9513V4.55211H37.8225V0Z" fill="#D1102B"/>
<path d="M37.7978 5.68506H22.9265V9.96528H37.7978V5.68506Z" fill="#D1102B"/>
<path d="M37.7978 11.238H22.9265V15.6006H37.7978V11.238Z" fill="#D1102B"/>
<path d="M37.7275 17.0674H22.8563V21.1004H37.7275V17.0674Z" fill="#D1102B"/>
<path d="M37.6697 22.7522H22.7985V26.5628H37.6697V22.7522Z" fill="#D1102B"/>
<path d="M37.7069 28.6475H22.8356V32.0214H37.7069V28.6475Z" fill="#D1102B"/>
<path fill-rule="evenodd" clip-rule="evenodd" d="M23.1248 36.3508L37.4962 32.4702L38.2439 35.3004L23.8766 39.181L23.1248 36.3508Z" fill="#D1102B"/>
<path fill-rule="evenodd" clip-rule="evenodd" d="M26.1486 43.8527L38.3265 35.2634L39.9995 37.661L27.8092 46.2585L26.1486 43.8527Z" fill="#D1102B"/>
<path d="M65.7723 0H50.901V0.720922H65.7723V0Z" fill="#D1102B"/>
<path d="M65.7723 0H50.901V0.720922H65.7723V0Z" fill="#D1102B"/>
<path d="M65.7723 5.01343H50.901V5.83734H65.7723V5.01343Z" fill="#D1102B"/>
<path d="M65.8218 9.78809H50.9506V10.8715H65.8218V9.78809Z" fill="#D1102B"/>
<path d="M65.7516 14.9211H50.8804V16.1117H65.7516V14.9211Z" fill="#D1102B"/>
<path d="M65.702 19.5679H50.8307V20.8285H65.702V19.5679Z" fill="#D1102B"/>
<path d="M65.7516 24.499H50.8804V26.0191H65.7516V24.499Z" fill="#D1102B"/>
<path d="M65.7392 29.3806H50.8679V30.8554H65.7392V29.3806Z" fill="#D1102B"/>
<path fill-rule="evenodd" clip-rule="evenodd" d="M50.7729 33.0964L65.2806 36.4086L64.9543 37.838L50.4548 34.5218L50.7729 33.0964Z" fill="#D1102B"/>
<path fill-rule="evenodd" clip-rule="evenodd" d="M31.8865 50.0319L40.1979 37.6238L42.1889 38.9668L33.8652 51.3872L31.8865 50.0319Z" fill="#D1102B"/>
<path fill-rule="evenodd" clip-rule="evenodd" d="M39.8013 53.6779L42.3872 38.9216L44.3659 39.2759L41.78 54.0322L39.8013 53.6779Z" fill="#D1102B"/>
<path fill-rule="evenodd" clip-rule="evenodd" d="M47.4806 53.7807L44.907 39.0286L46.7081 38.7073L49.2858 53.4635L47.4806 53.7807Z" fill="#D1102B"/>
<path fill-rule="evenodd" clip-rule="evenodd" d="M55.2013 51.0454L47.3195 38.3448L48.6992 37.4714L56.581 50.172L55.2013 51.0454Z" fill="#D1102B"/>
<path fill-rule="evenodd" clip-rule="evenodd" d="M61.348 45.3729L49.2527 36.6682L50.1285 35.4324L62.2238 44.1452L61.348 45.3729Z" fill="#D1102B"/>
<path d="M0 61.991H6.65076V81.2994C6.65076 83.0914 7.15473 84.5291 8.13788 85.629C9.13343 86.7125 10.4347 87.2563 12.0498 87.2563C13.9129 87.2563 15.3422 86.7125 16.3708 85.6043C17.3911 84.5209 17.9033 82.9637 17.9033 80.9575V61.991H24.5541V82.4446C24.5541 84.2243 24.0873 86.0904 23.162 88.0348C22.2367 89.9587 20.8198 91.4417 18.8989 92.4675C16.9656 93.4933 14.8258 94 12.4464 94C8.13788 94 4.986 92.7971 2.99491 90.3789C0.995548 87.9731 0 85.4395 0 82.7742V61.991ZM50.5994 64.8335L46.3942 69.4804C44.1676 68.158 42.5648 67.4989 41.5941 67.4989C40.834 67.4989 40.1772 67.7955 39.6402 68.3599C39.0907 68.9242 38.8222 69.5998 38.8222 70.3784C38.8222 71.9356 40.2267 73.2786 43.0275 74.4238C45.0888 75.3095 46.6338 76.1211 47.6995 76.8297C48.7529 77.5506 49.6452 78.5269 50.3681 79.7999C51.0828 81.0604 51.4339 82.4405 51.4339 83.9153C51.4339 86.626 50.3433 88.9865 48.1663 90.9927C46.0017 92.9989 43.4241 94 40.4498 94C37.1947 94 33.9849 92.4675 30.8 89.3778L35.2366 84.1542C37.2525 86.2305 39.1114 87.2563 40.867 87.2563C41.6767 87.2563 42.4616 86.902 43.2093 86.1728C43.9693 85.4642 44.3453 84.7104 44.3453 83.9071C44.3453 82.2798 42.6103 80.8297 39.1568 79.5444C37.1905 78.8029 35.786 78.1191 34.9433 77.4806C34.113 76.8544 33.3984 75.9234 32.8242 74.7205C32.2624 73.5052 31.9691 72.2652 31.9691 70.9923C31.9691 68.1868 32.882 65.9087 34.6955 64.162C36.5213 62.4153 38.9007 61.542 41.8378 61.542C45.316 61.542 48.2448 62.6419 50.5994 64.8335ZM58.0433 62.473L65.6896 62.4359L74.0051 75.5856L82.3083 62.3741L90 62.3989L89.9752 92.8877H82.5396L82.3991 75.808L74.0506 87.2727L65.574 75.5361L65.3963 92.8135L58.1012 92.8259L58.0433 62.473Z" fill="#0F253C"/>
</g>
<defs>
<clipPath id="clip0_96_515">
<rect width="90" height="94" fill="white"/>
</clipPath>
</defs>
</svg>
