<svg xmlns="http://www.w3.org/2000/svg" viewBox="0 0 500 319.74731">
  <path d="M66.197619 319.38565c-5.274358-.80598-10.082845-3.42785-14.113164-7.69532-6.540178-6.92501-7.922515-17.20066-3.490508-25.9468.587814-1.15999 2.201836-3.33295 3.586722-4.82879 4.777297-5.16005 10.606052-7.66279 17.846245-7.66279 4.807256 0 8.32117.79815 12.368951 2.80949l2.912475 1.44721.129461 3.92064.129467 3.92063H79.804371l-.384527-2.084c-.349883-1.89624-.546013-2.1443-2.17682-2.75311-1.150405-.42947-3.557485-.68606-6.721096-.71645-4.653033-.0447-5.096263.032-7.921758 1.37059-4.003452 1.89667-6.760648 4.52683-8.54496 8.15128-1.317438 2.6761-1.456206 3.34407-1.456206 7.00949 0 3.67317.137263 4.33031 1.469935 7.03736 1.722393 3.49868 4.758639 6.44565 8.525585 8.27492 2.256147 1.09561 3.067688 1.24017 7.031257 1.25249 5.207923.0162 7.76836-.87653 11.700892-4.07962l2.302159-1.87513 2.171783 2.20493 2.171778 2.20494-1.556063 1.53983c-4.850512 4.79991-13.384189 7.54259-20.218711 6.49821zm135.048431-.0311c-14.46731-2.41071-23.46722-16.29814-19.2232-29.66265 6.02674-18.97832 31.66616-22.34298 42.83271-5.62093 2.44691 3.66428 3.61213 7.60709 3.61213 12.22255 0 6.57127-2.03703 11.35822-6.89632 16.2061-3.77163 3.76279-7.63922 5.7974-12.75451 6.70974-3.84974.68663-4.27277.69474-7.57081.14519zm10.87533-7.81474c3.3914-1.60308 6.83415-5.02963 8.53119-8.49107 1.16192-2.36996 1.31806-3.16615 1.31806-6.72109 0-3.42836-.17628-4.40195-1.17637-6.49706-2.35161-4.92647-6.49726-8.25623-12.04101-9.67128-7.97086-2.03457-16.27744 2.00215-19.89847 9.67-1.20155 2.54437-1.37538 3.39658-1.37118 6.72237.004 3.16697.20136 4.22382 1.17147 6.27303 2.19293 4.63223 5.63079 7.63601 10.90605 9.52902 3.40082 1.22037 9.02802.85572 12.56026-.81392zm157.04127 7.99539c-3.2246-.4566-3.13651-.35827-3.13651-3.50085v-2.90394h2.67809c2.34741 0 2.76689-.13552 3.39715-1.09742.39552-.60358 2.17575-8.21522 3.95617-16.91476l3.23706-15.81734-2.15353-.39907-2.15348-.39908v-5.25084h34.05355V319.40343h-6.72109v-40.32658h-8.28935c-4.55915 0-8.29066.0504-8.29227.11202 0 .0616-1.50432 7.465-3.33935 16.45198-2.56173 12.54564-3.62886 16.9116-4.59549 18.80171-1.86707 3.65076-5.15185 5.58669-8.64095 5.09264zm-259.8824-20.29506v-20.16329H92.658785l.133396-2.80046.1334-2.80045 19.379159-.11678 19.37916-.11678v5.83447h-16.13063v40.32658h-6.27302v-20.16329zm29.12475-2.91247V273.2519h11.10769c12.05983 0 14.94427.39264 18.08599 2.46194 2.55464 1.68261 4.75051 4.1712 6.09343 6.90571 1.08624 2.21183 1.22872 3.00639 1.21273 6.76298-.0145 3.40229-.21522 4.68757-1.00007 6.40331-1.45644 3.18388-5.00537 6.69826-8.29171 8.21099-2.71997 1.25203-3.00426 1.28722-11.63752 1.44038l-8.84944.15699v13.80923h-6.7211v-23.07576zm24.09832 2.21659c4.47459-1.86915 7.17201-7.1636 5.92282-11.62526-.67891-2.42484-3.09298-5.33265-5.40741-6.51338-1.52736-.7792-2.65783-.8807-9.80947-.8807h-8.08316v19.71522h7.85567c6.08825 0 8.23047-.15656 9.52155-.69588zm72.34533-2.0919l.1161-22.97642 3.24853-.13165 3.24853-.13165v20.40696c0 16.52187.11171 20.40695.58678 20.40695.32273 0 2.11442-3.27653 3.98156-7.28119 1.86712-4.00465 6.16539-13.17894 9.55175-20.38732l6.15697-13.10614H273.72308V319.40343h-6.7211V299.0161c0-13.82015-.15015-20.38732-.46617-20.38732-.53052 0-1.989 2.96346-12.23894 24.86806l-7.33845 15.68255-6.11292.12469-6.11294.12469.11609-22.97641zm61.72616 2.78778v-20.16329h-16.13063v-5.83447l19.37916.11678 19.37916.11678.13339 2.80045.13339 2.80046h-16.62145v40.32658h-6.27302v-20.16329zm29.57282-2.91247V273.2519h33.15741v5.37688h-26.88439v14.3224l10.86578.11999 10.86577.11998.13438 2.57642.13437 2.57642h-22.0003v15.68256h28.67668v5.37688h-34.9497v-23.07576zm90.06269-.0196v-23.09539l3.24853.13164 3.24853.13165.12264 7.4615.12264 7.4615 9.73497.19146c11.74453.23098 12.80167.51953 16.97955 4.63466 2.41381 2.37761 2.88953 3.13618 3.75642 5.99023 2.05034 6.75037-.17184 13.74843-5.53814 17.44054-3.60672 2.48148-5.46734 2.7476-19.21042 2.7476h-12.46472v-23.09539zm25.88447 16.57695c3.63481-1.51872 5.48065-4.49409 5.48065-8.83451 0-2.37764-.21611-3.18333-1.3211-4.92575-2.35274-3.7099-3.65296-4.10101-14.24944-4.28631l-9.07348-.15866v18.89872h8.75181c6.88567 0 9.10574-.14787 10.41156-.6935zM.13494 252.92323c-.129483-.33742-.173565-1.69844-.09796-3.02449l.13747-2.41099 25.049674-.11582 25.049683-.1158-.181622-33.26324-.181622-33.26323 42.790979-19.11721 42.790978-19.11721.22404-25.24443.22404-25.24443 23.2998-10.36991 23.2998-10.36991.22403-20.95825.22404-20.95824 33.01969-14.67504L249.02767 0l33.07106 14.70058 33.07111 14.70058.22404 20.95908.22403 20.95908 23.2998 10.35863 23.29981 10.35864v50.30834l42.90299 19.16534 42.903 19.16534v66.5881H500v6.27302H250.18517c-211.037582 0-249.851354-.0952-250.050231-.6135zm63.889928-30.96414v-25.30462l1.287412-.66575c.708072-.36616 1.413787-.53937 1.568256-.3849.154464.15446.280843 11.84113.280843 25.97037v25.68952h8.513389v-55.86529l1.141265-.51999c.627696-.286 1.333412-.52 1.568256-.52.266124 0 .426991 10.71952.426991 28.45264v28.45264H87.324667v-61.29835l1.411081-.4919c.776098-.27055 1.481814-.49191 1.568256-.49191.08645 0 .157175 14.01349.157175 31.14108v31.14108h8.513389v-66.2918l1.321972-.68362c.72708-.37599 1.43279-.68362 1.56825-.68362.13546 0 .24629 15.22329.24629 33.82952v33.82952h8.96146v-71.66868l1.34422-.69512 1.34422-.69513v73.05893h8.96146v-77.09075l1.14935-.43698c.63215-.24035 1.33786-.43699 1.56826-.43699.25661 0 .4189 15.10247.4189 38.98236v38.98236H135.71656v-49.064c0-26.9852-.15122-49.06076-.33605-49.05679-.18483.004-18.07975 7.93786-39.766491 17.63086l-39.43043 17.62365-.115043 31.43314-.115047 31.43314h8.071369v-25.30462zm118.739372-14.48574v-39.79037l-19.98625-9.16162c-10.99243-5.03889-20.16673-9.22883-20.38732-9.31098-.23453-.0873-.40109 20.24019-.40109 48.95199v49.10134h40.77466v-39.79036zm63.06996 14.44458l-.11569-25.34578-27.78054-12.74548c-15.27929-7.01002-28.13339-12.85761-28.56466-12.99467-.73623-.23396-.78345.66266-.77303 14.67945l.0111 14.92862 16.90366 7.47608 16.90367 7.47606.14142 1.63694c.12171 1.40872.0279 1.60091-.67267 1.37855-.44776-.14211-7.871-3.40527-16.49609-7.25147-8.6251-3.8462-15.93403-7.09622-16.24208-7.22228-.43159-.17662-.56009 1.14686-.56009 5.76873v5.99794l16.01861 7.11288c8.81024 3.91208 16.47229 7.38903 17.02678 7.72656 1.03806.63188 1.48152 3.28146.54921 3.28146-.25242 0-7.05753-2.94966-15.12246-6.55481-8.06496-3.60514-15.52048-6.92492-16.56786-7.37728l-1.90431-.82248v28.19676h57.36076l-.11574-25.34578zm25.20044-76.35956V43.85303l1.56826.74785 1.56825.74784v201.91499h4.92881v-99.69626c0-62.8837.15763-99.69626.42697-99.69626.23483 0 .94055.23399 1.56825.51999l1.14129.52v198.35253h4.9288v-97.90397c0-61.74784.15768-97.90397.42697-97.90397.23484 0 .94055.234 1.56826.52l1.14128.51999V247.26371h19.26898l-.11295-106.97745-.11292-106.97745-28.44009-12.65806c-15.64206-6.96194-28.49615-12.65807-28.56466-12.65807-.0685 0-.12457 53.83599-.12457 119.63552v119.63551h18.81907V145.55837zm85.03567 96.25195l-.12582-5.45338-12.77008-5.66981-12.77008-5.66981-.14263-1.70657c-.10614-1.27008.009-1.64728.44808-1.47477.32485.1275 6.08841 2.67477 12.80781 5.6606 6.71944 2.98584 12.31475 5.42879 12.43403 5.42879.11932 0 .21377-2.67163.20992-5.93697l-.007-5.93696-12.98713-5.76973-12.98713-5.76973v-1.51146c0-.8313.1661-1.51146.36908-1.51146.20302 0 5.79833 2.4378 12.43403 5.41733 6.63573 2.97954 12.31699 5.52152 12.62504 5.64886.43176.17848.56009-1.14893.56009-5.79453v-6.02605l-12.43403-5.50574c-6.83871-3.02816-12.68607-5.70597-12.99412-5.9507-.66073-.5249-.75921-3.02366-.11919-3.02366.37984 0 24.26679 10.47085 25.22414 11.057.19191.1175.29273-2.53267.22404-5.88925l-.12488-6.10287-12.77008-5.69344c-12.72707-5.67425-12.77058-5.69836-12.91051-7.14968-.0964-.99983.0512-1.45624.47079-1.45624.33615 0 6.03483 2.41959 12.66376 5.37688 6.62888 2.95728 12.21953 5.37687 12.42358 5.37687.2041 0 .31513-2.85721.24676-6.34937l-.1243-6.34937-12.77008-5.66997-12.77008-5.66997-.14262-1.70657c-.10615-1.27008.009-1.64728.44807-1.47477.32485.1275 6.08842 2.67477 12.80781 5.6606 6.71944 2.98584 12.31475 5.42879 12.43403 5.42879.11932 0 .21113-2.67163.20409-5.93697l-.013-5.93696-12.9813-5.77243-12.98131-5.77242v-1.50877c0-.82982.16494-1.50876.36657-1.50876s5.98079 2.52041 12.84267 5.60091c6.86184 3.08051 12.54421 5.60092 12.62751 5.60092.0833 0 .15149-2.69015.15149-5.97811v-5.97811l-12.43403-5.50574c-6.83871-3.02816-12.68607-5.70597-12.99412-5.9507-.66073-.5249-.75921-3.02366-.11919-3.02366.37984 0 24.26679 10.47085 25.22415 11.057.19191.1175.29272-2.53267.22403-5.88925l-.12488-6.10287-12.77008-5.69344c-12.72707-5.67425-12.77058-5.69836-12.91051-7.14968-.0964-.99983.0512-1.45624.47079-1.45624.33615 0 6.03483 2.41959 12.66376 5.37688 6.62888 2.95728 12.21676 5.37687 12.41749 5.37687.20074 0 .31177-6.47562.24676-14.39028l-.11821-14.39028-19.93925-8.88595c-10.96659-4.88727-20.09048-8.89655-20.27531-8.90951-.18483-.0129-.33605 38.08504-.33605 84.66224v84.68581h40.80221l-.12578-5.45339zm15.3327-33.52897c0-24.40632.15965-38.98236.42697-38.98236.23484 0 .94055.234 1.56826.52l1.14129.51999v76.92473h8.51338v-36.51796c0-20.08487.11081-36.51795.24627-36.51795.13545 0 .84116.30763 1.56825.68361l1.322.68362v71.66868H394.70282v-33.82952c0-18.60623.0707-33.82952.15718-33.82952.0864 0 .79215.22136 1.56825.49191l1.41108.49191v66.67522h8.96146v-31.14108c0-17.12759.0913-31.14108.20293-31.14108.11162 0 .71651.234 1.34422.52l1.14129.51999v61.24217h8.96146v-57.43584l1.45624.85043 1.45623.85044.11538 27.86748.11543 27.86749h8.50662v-51.93322l1.45624.61225 1.45623.61225.1157 25.35436.11573 25.35436h8.96012l-.11506-31.40997-.11502-31.40997-39.43044-17.63539c-21.68673-9.69947-39.58165-17.64378-39.76648-17.65403-.18483-.0103-.33606 22.06016-.33606 49.04536v49.064h8.96146v-38.98236zM245.94255 98.91418c0-57.03537-.15826-90.94044-.42407-90.84682-.23323.0822-13.13663 5.79508-28.67421 12.6954l-28.25015 12.54605-.003 11.76192c-.001 6.46906.12208 11.76192.2743 11.76192.26858 0 26.04213-11.36089 27.61578-12.17294.68071-.35127.78413-.17838.78413 1.31091v1.71555l-14.22632 6.31087-14.22632 6.31087v5.53742c0 4.7742.1012 5.55692.73425 5.67883.40384.0778 6.64921-2.49029 13.87859-5.7068 7.2296-3.21651 13.30103-5.8482 13.49228-5.8482.19126 0 .34774.68306.34774 1.51791v1.51791l-11.42586 5.07322c-6.28423 2.79026-11.42587 5.20137-11.42587 5.35802 0 .15665 9.22471 4.40984 20.49935 9.45155l20.49934 9.16675.22404 46.75851.22403 46.7585 4.70477 2.14674c2.58762 1.1807 4.85599 2.15693 5.04083 2.16941.18483.0125.33606-40.9256.33606-90.9735zm-16.68126 74.54518l-.12149-8.83376-14.33834-6.37473-14.33834-6.37472-.13907-1.59426c-.0765-.87684-.003-1.59426.16392-1.59426.16664 0 6.47984 2.74558 14.02933 6.10129 7.54949 3.35571 13.97839 6.20015 14.28644 6.32096.43119.16912.55923-1.1577.55635-5.76523l-.004-5.98491-14.55864-6.47434-14.55863-6.47434v-3.36851l3.02449 1.36754c9.62072 4.35004 26.04018 11.5891 26.28614 11.5891.15851 0 .23194-2.67163.16318-5.93697l-.12502-5.93696-14.56238-6.46675c-8.0093-3.55671-14.62616-6.51057-14.70412-6.56413-.078-.0536-.078-.81496 0-1.692l.14175-1.59462 14.54969 6.47847c8.00233 3.56316 14.6058 6.47848 14.67439 6.47848.0686 0 .1247-2.68004.1247-5.95563v-5.95563l-14.67439-6.50928-14.67439-6.50928-.14263-1.70908c-.10616-1.27216.008-1.64981.44807-1.47727.32489.1275 6.13561 2.69965 12.91271 5.7159 6.77711 3.01624 13.17895 5.8553 14.22632 6.30901l1.90431.82493V95.93861l-20.2753-9.02645c-11.15142-4.96455-20.42754-9.02501-20.6136-9.02326-.18606.002-.28688 19.36929-.22404 43.03897l.11426 43.0358 19.93925 9.15533c10.96659 5.03543 20.09474 9.15956 20.28478 9.16472.19004.005.29086-3.9658.22404-8.82436zm-46.68321-95.45472c-.10495-.10495-9.38112 3.89201-20.6137 8.88214l-20.42287 9.07296.0009 9.44919c.00043 5.19705.13439 15.67783.29769 23.29062l.2969 13.84143 3.25753 1.50507c1.79153.82779 3.37145 1.50507 3.51082 1.50507s.2534-8.26177.2534-18.35949v-18.35949l1.32197-.68362c.72709-.37598 1.4328-.68361 1.56826-.68361.13545 0 .24629 8.94394.24629 19.87543v19.87543l4.0518 1.85611c2.2285 1.02087 4.14401 1.85612 4.2567 1.85612.11268 0 .20488-10.65418.20488-23.67595v-23.67596l1.14127-.51999c.6277-.286 1.33341-.52 1.56825-.52.26551 0 .427 9.4652.427 25.02786v25.02787l3.6966 1.67802c2.03313.92291 3.94716 1.77935 4.25341 1.9032.43958.17777.58108-5.88587.67211-28.80144l.1153-29.02663 1.45624-.59416 1.45624-.59417v60.79427l3.47256 1.55316 3.47257 1.55316.11435-41.43089c.0629-22.78699.0285-41.51675-.0765-41.62171z" fill="#fff"/>
</svg>