<svg xmlns="http://www.w3.org/2000/svg" viewBox="0 0 31.67 30.57"><g data-name="Слой 2"><g data-name="Слой 1" fill="#747d98"><path d="M26.05 22.51A13 13 0 1126 8h2.71a15.29 15.29 0 100 14.51z"/><path d="M7.14 21v-2l3.73-3.06a10.38 10.38 0 001.52-1.46 2 2 0 00.41-1.22 1.4 1.4 0 00-.41-1.08 1.57 1.57 0 00-1.09-.38 2 2 0 00-1.13.34A6.25 6.25 0 009 13.3l-1.72-1.39a6.49 6.49 0 011.82-1.76 4.55 4.55 0 012.36-.56 4 4 0 012.8.95 3.27 3.27 0 011.06 2.54 3.66 3.66 0 01-.32 1.64 4.46 4.46 0 01-.95 1.28 17.26 17.26 0 01-1.68 1.41l-1.82 1.41h4.88V21zM19.17 21v-8.83l-2 .48-.51-2 3.21-1h1.73V21zM31.67 16.33h-2.91v3.05h-1.83v-3.05H24v-2h2.89v-3.05h1.85v3.07h2.91z"/></g></g></svg>