<svg xmlns="http://www.w3.org/2000/svg" viewBox="0 0 1353.41 1311.84"><defs><style>.cls-1{fill:#19b2ff;}</style></defs><title>Ресурс 1</title><g id="Слой_2" data-name="Слой 2"><g id="Layer_1" data-name="Layer 1"><path class="cls-1" d="M1204.93,375.63q-36.9,63.11-67.74,117.06a527.35,527.35,0,0,1,31.54,180.12c0,292.07-237.62,529.69-529.69,529.69S109.35,964.88,109.35,672.81,347,143.12,639,143.12A527.27,527.27,0,0,1,977.89,266q35.18-41,72.79-82A639.07,639.07,0,1,0,390.28,1261.6a639.36,639.36,0,0,0,837.55-837.55Q1217.36,399.29,1204.93,375.63Z"/><path class="cls-1" d="M819.81,932.47C868.48,878.08,903.17,741,1353.41,3.1c-10-13.35-52.62,20.73-52.62,20.73-3.32,3-10.9,9.37-14.14,12.43-400.52,378.09-518,636.51-607.07,766.6A8.06,8.06,0,0,1,668,804.37L432.89,473.61c-45.44-60.16-151.73-88.42-204.12-4.69-12.12,14.89-5.82,32.06,5,48.89L568.36,977.33a166.67,166.67,0,0,0,234.48-24l17-20.85Z"/></g></g></svg>