<svg width="28" height="44" viewBox="0 0 28 44" fill="none" xmlns="http://www.w3.org/2000/svg">
<path d="M10.9533 11.376C10.9533 9.23955 12.5285 7.31056 12.0725 5.79641C11.5544 4.03335 10.7875 2.83032 10.5388 0.94281L24.57 10.6707C26.2488 11.8323 23.8653 15.1095 23.8653 17.1215V20.5024C25.4198 20.3572 26.6426 21.0209 27.7203 21.9751C26.6426 22.9499 25.4198 23.5929 23.8653 23.4477V26.8287C23.8653 28.8614 26.2695 32.1178 24.57 33.3001L10.5388 43.028C10.7875 41.1405 11.5544 39.9375 12.0725 38.1745C12.5285 36.6603 10.9533 34.7313 10.9533 32.5949V26.5383L3.01544 32.1801C-0.632261 26.1234 -0.632261 17.8267 3.01544 11.7908L10.9533 17.4326V11.376Z" fill="#937E65"/>
<path d="M21.4404 9.88253C18.4145 8.22318 15.5337 6.48086 13.088 4.15778C13.6476 6.79199 14.9741 8.86618 17.1295 10.5878C17.5648 10.9404 17.3782 11.5834 16.5492 11.4589C14.829 11.21 14.601 9.73734 12.7564 9.40547V17.1214C14.601 16.7896 14.829 15.3376 16.5492 15.068C17.3782 14.9435 17.5648 15.6073 17.1295 15.9392C15.0362 17.6192 13.7305 19.6312 13.1502 22.1617L13.1088 22.1202L13.1295 22.2447L13.1088 22.3691L13.1502 22.3276C13.7305 24.8789 15.0362 26.8701 17.1295 28.5502C17.5648 28.9028 17.3782 29.5458 16.5492 29.4214C14.829 29.1725 14.601 27.6998 12.7564 27.3679V35.1254C14.601 34.7935 14.829 33.3416 16.5492 33.0719C17.3782 32.9475 17.5648 33.6112 17.1295 33.9431C14.9741 35.6647 13.6684 37.7388 13.088 40.3731C15.5337 38.05 18.4145 36.2869 21.4404 34.6483C22.1658 34.2542 22.1658 33.6112 21.3368 32.9475C21.1088 32.7815 21.0467 32.4497 21.399 32.3667C22.3731 32.1385 22.8705 31.7652 23.2436 31.2466C22.8498 30.7281 22.3731 30.3547 21.399 30.1266C21.0674 30.0436 21.1296 29.7117 21.3368 29.5458C22.1658 28.8821 22.1658 28.2391 21.4404 27.845C18.4767 26.2271 15.6373 24.5055 13.2124 22.2447C15.6373 19.9838 18.4767 18.2622 21.4404 16.6444C22.1658 16.2503 22.1658 15.6073 21.3368 14.9435C21.1088 14.7776 21.0467 14.425 21.399 14.3628C22.3731 14.1346 22.8705 13.7613 23.2436 13.2427C22.8498 12.7242 22.3731 12.3508 21.399 12.1226C21.0674 12.0397 21.1296 11.7078 21.3368 11.5419C22.1658 10.8989 22.1658 10.2766 21.4404 9.88253ZM21.5233 21.0831C22.0208 20.4609 22.4145 19.6934 22.4145 18.8223L16.4663 22.2239L22.4145 25.6256C22.4145 24.7544 22.0415 23.987 21.5233 23.3647C22.2073 23.0744 22.8498 22.6803 23.4301 22.2239C22.8291 21.7676 22.2073 21.3943 21.5233 21.0831ZM10.9119 18.8845C7.88592 17.2251 5.00507 15.4828 2.55945 13.1597C3.11904 15.794 4.44548 17.8681 6.60094 19.5897C7.03617 19.9423 6.82892 20.6268 6.02062 20.4609C4.3004 20.129 3.30557 18.5941 1.461 18.4074V26.1234C3.30557 25.9575 4.3004 24.4018 6.02062 24.07C6.82892 23.9248 7.03617 24.6092 6.60094 24.9411C4.44548 26.6627 3.13977 28.7369 2.55945 31.3711C5.00507 29.048 7.88592 27.285 10.9119 25.6463C11.6372 25.2522 11.6372 24.6092 10.8082 23.9455C10.5802 23.7796 10.5181 23.4477 10.8704 23.3647C11.8445 23.1366 12.3419 22.7632 12.7357 22.2447C12.3419 21.7261 11.8652 21.3528 10.8704 21.1246C10.5388 21.0416 10.601 20.7098 10.8082 20.5438C11.658 19.9008 11.6372 19.2786 10.9119 18.8845Z" fill="white"/>
</svg>
