<svg enable-background="new 0 0 171.1 168.9" version="1.1" viewBox="0 0 171.1 168.9" xml:space="preserve" xmlns="http://www.w3.org/2000/svg">
<style type="text/css">
	.st0q{fill:#74B5E8;}
</style>
	<path class="st0q" d="m171.1 84.3c-2.9-3.3-36.4-36.8-43.7-40.2-5.8-2.7-11.9 3.8-14.2 6.7-0.9 1.1-4.6 7.4-7.1 5.1-4-3.8 8.2-14.2 12.7-15.6 4.2-1.4 4.2-3.7 2.7-5-1.7-1.3-34.1-35.3-35.6-35.3-0.1 0-0.2 0.1-0.4 0.2-0.1-0.1-0.2-0.2-0.3-0.2-1.5 0-33.9 34-35.5 35.3s-0.4 3.8 2.2 4.3c3.5 0.7 17.9 12.5 13.2 16.3-2.4 1.9-4.6-1.7-6-4-1.5-2.3-7.7-10.7-15.3-7.8-7.6 3-40.9 36.9-43.8 40.2v0.1 0.1c2.9 3.3 36.1 37.4 43.7 40.2 6.1 2.2 13.4-4.5 15.1-6.9 2.3-3.2 3.3-6.9 6.2-4.9 5.9 4-10.7 16-14.2 16.2s-2.7 3.1-1.1 4.4 34 35.3 35.5 35.3c0.1 0 0.2-0.1 0.4-0.2 0.2 0.1 0.3 0.2 0.4 0.2 1.5 0 33.9-34 35.5-35.3s2.4-3.6-1.1-4.4c-3.7-0.9-19.4-12-14.2-16.2 3.2-2.7 6 3.9 6.9 5 2.2 2.6 8.8 9.2 14.4 6.8 7.4-3.2 40.8-36.9 43.7-40.2v-0.1c-0.1 0-0.1 0-0.1-0.1m-80.2-51.5c0.2-9.7 0-17 0-17 1.8-3.4 7.9 7.9 8.7 11s-1.2 5.1 2.4 5.8c2.5 0.4 5.5 3.5 4.7 6.9-0.8 3.3-6.9-1.5-9.5 5.8-2.7 7.3 2.5 12.3 7.8 14.2s11.4 0.8 15.3-1.9 3.7-9 6.6-8.7c5.6 0.4 1.1 9.1-3.5 13.1-4.2 3.7-10 2.2-11.1 4.1s1.4 6.8 7.1 7.3c5.2 0.5 9.7-1.6 9.9-6.1 0.1-2.3 1.1-3.9 3.9-3.4 2.6 0.4 5.1 4.3 5.8 6.8 5.9-1.1 11 2.1 14.3 5.7s-1.2 2.8-1.2 2.8h-30.9c-12.2 0-14.4-11.9-15.5-13.1s-5.6-1.7-10.6-6.9c-5.7-5.9-4.4-16.8-4.2-26.4zm-73 43.4c3.3-3.6 8.4-6.8 14.3-5.7 0.7-2.4 3.2-6.4 5.8-6.8 2.8-0.4 3.8 1.1 3.9 3.4 0.2 4.5 4.7 6.6 9.9 6.1 5.7-0.6 8.2-5.4 7.1-7.3s-6.9-0.4-11.1-4.1c-4.6-4-9.1-12.6-3.5-13.1 2.9-0.2 2.7 6.1 6.6 8.7 3.9 2.7 9.9 3.8 15.3 1.9 5.3-1.9 10.5-6.9 7.8-14.2s-8.8-2.4-9.5-5.8c-0.8-3.3 2.2-6.4 4.7-6.9 3.5-0.7 1.6-2.7 2.4-5.8s6.9-14.4 8.7-11c0 0-0.2 7.3 0 17s1.6 20.5-4 26.2c-5.1 5.2-9.5 5.7-10.7 6.9-1.2 1.4-3.4 13.3-15.6 13.3h-30.8s-4.6 0.7-1.3-2.8zm62.3 59.9c-0.2 9.7 0 17 0 17-1.8 3.4-7.9-7.9-8.7-11s1.2-5.1-2.4-5.8c-2.5-0.4-5.5-3.5-4.7-6.9 0.8-3.3 6.9 1.5 9.5-5.8 2.7-7.3-2.5-12.3-7.8-14.2s-11.4-0.8-15.3 1.9-3.7 9-6.6 8.7c-5.6-0.4-1.1-9.1 3.5-13.1 4.2-3.7 10-2.2 11.1-4.1s-1.4-6.8-7.1-7.3c-5.2-0.5-9.7 1.6-9.9 6.1-0.1 2.3-1.1 3.9-3.9 3.4-2.6-0.4-5.1-4.3-5.8-6.8-5.9 1.1-11-2.1-14.3-5.7s1.2-2.8 1.2-2.8h31c12.2 0 14.4 11.9 15.5 13.1s5.6 1.7 10.7 6.9c5.6 5.9 4.2 16.8 4 26.4zm5.4-34.4c-9.5 0-17.2-7.7-17.2-17.2s7.7-17.2 17.2-17.2 17.2 7.7 17.2 17.2-7.7 17.2-17.2 17.2zm67.6-9c-3.3 3.6-8.4 6.8-14.3 5.7-0.7 2.4-3.2 6.4-5.8 6.8-2.8 0.4-3.8-1.1-3.9-3.4-0.2-4.5-4.7-6.6-9.9-6.1-5.7 0.6-8.2 5.4-7.1 7.3s6.9 0.4 11.1 4.1c4.6 4 9.1 12.6 3.5 13.1-2.9 0.2-2.7-6.1-6.6-8.7-3.9-2.7-9.9-3.8-15.3-1.9-5.3 1.9-10.5 6.9-7.8 14.2s8.8 2.4 9.5 5.8c0.8 3.3-2.2 6.4-4.7 6.9-3.5 0.7-1.6 2.7-2.4 5.8s-6.9 14.4-8.7 11c0 0 0.2-7.3 0-17s-1.6-20.5 4-26.2c5.1-5.2 9.5-5.7 10.6-6.9s3.3-13.1 15.5-13.1h31.1c0-0.1 4.5-0.9 1.2 2.6z"/>
</svg>