<svg width="243" height="33" viewBox="0 0 243 33" fill="none" xmlns="http://www.w3.org/2000/svg">
<path fill-rule="evenodd" clip-rule="evenodd" d="M51.4593 20.3871V20.4501C51.4593 23.6351 48.8736 25.2577 44.9925 25.2269H36.7706V7.71146H44.8076C48.319 7.71146 50.5059 9.49087 50.5059 12.2391V12.3007C50.5059 14.2677 49.4586 15.3919 48.2265 16.0793C50.2285 16.8591 51.4606 18.0463 51.4606 20.3871H51.4593ZM43.9769 14.7996C45.6699 14.7996 46.7171 14.2677 46.7171 12.9572V12.8943C46.7171 11.7393 45.8244 11.084 44.2226 11.084H40.4655V14.7996H43.9769ZM44.9938 21.8865C46.6551 21.8865 47.6719 21.2929 47.6719 19.9825V19.9195C47.6719 18.7323 46.8096 18.0155 44.8696 18.0155H40.4655V21.8865H44.9938ZM59.4356 7.74228V25.2591H55.6165V7.74228H59.4356ZM79.8833 7.74228V25.2591H76.6506L68.2742 14.1136V25.2591H64.5158V7.74228H68.0285L76.1263 18.5461V7.74228H79.8846H79.8833ZM93.5262 7.61766L100.948 25.2577H96.9148L95.3433 21.3237H88.0458L86.4743 25.2577H82.5945L90.0161 7.61766H93.5275H93.5262ZM89.4311 17.9217H94.0201L91.7408 12.2391L89.4297 17.9203L89.4311 17.9217ZM119.057 7.74228V25.2591H115.824L107.446 14.1136V25.2591H103.689V7.74228H107.201L115.3 18.5461V7.74228H119.057ZM136.273 19.9503L138.706 22.4158C136.919 24.3533 134.949 25.5391 131.622 25.5391C126.54 25.5391 122.753 21.5421 122.753 16.5161V16.4531C122.753 11.49 126.48 7.39926 131.777 7.39926C135.041 7.39926 136.981 8.52345 138.583 10.1153L136.149 12.9559C134.794 11.7393 133.439 10.9902 131.715 10.9902C128.789 10.9902 126.695 13.4557 126.695 16.4531V16.5161C126.695 19.5135 128.758 22.0111 131.715 22.0111C133.716 22.0111 134.918 21.1991 136.273 19.9503ZM154.935 21.8235V25.2269H141.785V7.71146H154.813V11.1457H145.542V14.7058H153.703V18.1401H145.542V21.8248H154.935V21.8235ZM13.642 0.5L5.26565 5.40143L8.34523 7.21033L13.6407 4.12047L18.9389 7.21033L22.0184 5.40143L13.642 0.5ZM18.9375 9.77226L22.0184 11.5825V15.2043L16.7216 18.2955V24.4779L13.642 26.2881L10.5625 24.4779V18.2955L5.26565 15.2043V11.5825L8.34523 9.77226L13.6407 12.8635L18.9389 9.77226H18.9375ZM22.0184 17.7649V21.3867L18.9389 23.1969V19.5751L22.0184 17.7662V17.7649ZM18.9085 25.7575L24.204 22.6663V16.4853L27.2849 14.6737V24.4779L18.9085 29.3793V25.7575ZM24.204 10.3029L21.1257 8.49263L24.2053 6.68106L27.2849 8.49263V12.1144L24.2053 13.9247V10.3029H24.204ZM10.5638 30.6911V27.068L13.6434 28.8782L16.7229 27.068V30.6898L13.6434 32.5L10.5638 30.6898V30.6911ZM8.34259 23.1956L5.26565 21.3867V17.7649L8.34523 19.5751V23.1969L8.34259 23.1956ZM13.6407 10.3015L10.5612 8.49263L13.6407 6.68106L16.7203 8.49263L13.6407 10.3029V10.3015ZM6.15836 8.49263L3.07878 10.3029V13.9247L-0.000793457 12.1144V8.49263L3.07878 6.68106L6.15836 8.49263ZM-0.000793457 14.6737L3.07878 16.4853V22.6663L8.37428 25.7575V29.3793L0.000527116 24.4779V14.6737H-0.000793457ZM164.899 16.6648C164.899 21.723 168.656 25.72 173.707 25.72C176.972 25.72 178.942 24.5007 180.729 22.598L178.789 20.5988C177.31 22.0044 175.955 22.878 173.83 22.878C170.535 22.878 168.133 20.0682 168.133 16.6032C168.133 13.1368 170.505 10.39 173.83 10.39C175.802 10.39 177.28 11.2636 178.666 12.574L180.606 10.2962C178.942 8.70434 177.034 7.58014 173.83 7.58014C168.595 7.58014 164.899 11.6696 164.899 16.6648ZM186.426 25.4078V18.0074H194.679V25.4078H197.729V7.86019H194.679V15.1668H186.426V7.86019H183.378V25.4078H186.426ZM214.975 25.4078H218.178L210.509 7.73558H207.707L200.1 25.4078H203.21L204.997 21.1602H213.189L214.975 25.4078ZM206.137 18.4456L209.092 11.4204L212.079 18.4442H206.137V18.4456ZM223.69 25.4078V7.86019H220.642V25.4078H223.69ZM242.999 7.86019H239.982V19.9744L230.711 7.86153H227.909V25.4065H230.896V12.9184L240.444 25.4065H242.999V7.86019Z" fill="#F0B90B"/>
</svg>
