<svg width="141" height="41" viewBox="0 0 141 41" fill="none" xmlns="http://www.w3.org/2000/svg">
<g clip-path="url(#clip0)">
<path fill-rule="evenodd" clip-rule="evenodd" d="M25.9453 40.2004C33.4902 38.8747 39.9231 33.2498 41.8956 25.3383C44.5668 14.6233 38.0469 3.76972 27.332 1.09849C26.8623 0.981373 26.3924 0.881925 25.9229 0.799727C28.5951 0.33 31.4067 0.399772 34.2087 1.09849C44.9236 3.76972 51.4436 14.6233 48.7724 25.3383C46.2184 35.5821 36.1865 41.9924 25.9453 40.2004Z" fill="#76ABF4"/>
<path d="M39.396 25.3383C36.7247 36.0525 25.873 42.5731 15.1575 39.9012C4.44633 37.23 -2.07423 26.3776 0.598237 15.664C3.26821 4.94845 14.12 -1.57273 24.8324 1.09849C35.5473 3.76972 42.0672 14.6233 39.396 25.3383Z" fill="#0C6CF2"/>
<path d="M27.9151 15.3912C27.6481 12.7137 25.3327 11.8239 22.4127 11.5786L22.3994 7.86328L20.138 7.87157L20.1509 11.4889C19.5564 11.4911 18.9488 11.505 18.345 11.5192L18.3324 7.8779L16.0722 7.88583L16.0846 11.6001C15.595 11.6118 15.1142 11.6226 14.6453 11.6246L14.645 11.6131L11.5259 11.6231L11.5351 14.0383C11.5351 14.0383 13.2049 14.0006 13.1773 14.0314C14.0933 14.0285 14.3933 14.5592 14.4817 15.0178L14.4969 19.2503C14.5601 19.2504 14.6426 19.2527 14.736 19.2652C14.6607 19.2656 14.58 19.2653 14.4971 19.2663L14.5176 25.1956C14.4784 25.4841 14.3106 25.9443 13.6706 25.9477C13.6996 25.9732 12.0267 25.9531 12.0267 25.9531L11.587 28.6555L14.5299 28.6449C15.0776 28.6436 15.6165 28.651 16.1455 28.6524L16.1599 32.41L18.4188 32.4024L18.4056 28.6845C19.0259 28.6951 19.6262 28.698 20.2122 28.6954L20.2244 32.3961L22.4858 32.3878L22.4732 28.6369C26.2744 28.4053 28.932 27.438 29.2498 23.8665C29.5064 20.9906 28.1495 19.7127 25.9894 19.202C27.2982 18.5298 28.1137 17.3505 27.9151 15.3912ZM24.7797 23.437C24.7909 26.2451 19.9816 25.9428 18.449 25.9497L18.4319 20.9711C19.965 20.966 24.7695 20.5082 24.7797 23.437ZM23.703 16.4167C23.7113 18.9715 19.7004 18.6876 18.4237 18.6922L18.4079 14.1769C19.6844 14.1722 23.6932 13.752 23.703 16.4167Z" fill="white"/>
<path d="M56.9992 26.3188V13.1252H61.7119C63.4001 13.1252 64.6826 13.4363 65.5596 14.0586C66.4427 14.6808 66.8843 15.584 66.8843 16.7679C66.8843 17.4506 66.728 18.0336 66.4157 18.5168C66.1033 19.0001 65.6437 19.3565 65.037 19.5861C65.7218 19.7674 66.2475 20.1056 66.6139 20.601C66.9804 21.0963 67.1636 21.7005 67.1636 22.4133C67.1636 23.706 66.7551 24.6786 65.9381 25.331C65.1271 25.9775 63.9227 26.3067 62.3247 26.3188H56.9992ZM60.162 20.7097V23.8722H62.2346C62.8053 23.8722 63.2438 23.7423 63.5502 23.4826C63.8565 23.2167 64.0098 22.8452 64.0098 22.368C64.0098 21.2685 63.4661 20.7158 62.3788 20.7097H60.162ZM60.162 18.6256H61.811C62.5019 18.6196 62.9945 18.4927 63.2889 18.245C63.5832 17.9973 63.7304 17.6318 63.7304 17.1486C63.7304 16.5928 63.5712 16.194 63.2528 15.9524C62.9344 15.7048 62.4209 15.5809 61.7119 15.5809H60.162V18.6256ZM71.9755 26.3188H68.9298V16.5143H71.9755V26.3188ZM68.7495 13.9861C68.7495 13.5511 68.9058 13.1947 69.2181 12.9168C69.5304 12.639 69.936 12.5 70.4346 12.5C70.9332 12.5 71.3387 12.639 71.6511 12.9168C71.9635 13.1947 72.1196 13.5511 72.1196 13.9861C72.1196 14.421 71.9635 14.7774 71.6511 15.0553C71.3387 15.3332 70.9332 15.4721 70.4346 15.4721C69.936 15.4721 69.5304 15.3332 69.2181 15.0553C68.9058 14.7774 68.7495 14.421 68.7495 13.9861ZM77.3912 14.0767V16.5143H78.9949V18.6347H77.3912V23.12C77.3912 23.4886 77.4567 23.7454 77.5896 23.8903C77.7216 24.0353 77.9827 24.1078 78.373 24.1078C78.6738 24.1078 78.9257 24.0897 79.1306 24.0534V26.2372C78.5834 26.4124 78.0131 26.5 77.418 26.5C76.3728 26.5 75.6009 26.2523 75.1022 25.7569C74.6037 25.2616 74.3544 24.5095 74.3544 23.5007V18.6347H73.1108V16.5143H74.3544V14.0767H77.3912ZM84.3209 24.144C84.7472 24.144 85.0775 24.0293 85.3119 23.7997C85.5463 23.564 85.6598 23.2379 85.6542 22.8211H88.5017C88.5017 23.8963 88.117 24.7783 87.3483 25.467C86.5852 26.1557 85.5998 26.5 84.3929 26.5C82.9746 26.5 81.8572 26.0529 81.0406 25.1589C80.2231 24.2649 79.8152 23.0264 79.8152 21.4437V21.3169C79.8152 20.3262 79.9952 19.4532 80.3559 18.6981C80.7223 17.9369 81.2482 17.3539 81.9329 16.9492C82.6175 16.5384 83.4286 16.333 84.3652 16.333C85.633 16.333 86.6397 16.6864 87.3843 17.3933C88.129 18.1 88.5017 19.0575 88.5017 20.2657H85.6542C85.6542 19.7583 85.5306 19.3687 85.2851 19.0968C85.0388 18.8249 84.7084 18.689 84.2932 18.689C83.5061 18.689 83.0466 19.1935 82.9146 20.2023C82.8731 20.5225 82.8519 20.9634 82.8519 21.5253C82.8519 22.51 82.9691 23.1926 83.2035 23.5731C83.4378 23.9538 83.8097 24.144 84.3209 24.144ZM89.4023 21.3259C89.4023 20.3473 89.5915 19.4774 89.9707 18.7162C90.349 17.949 90.8925 17.36 91.6012 16.9492C92.3098 16.5384 93.1421 16.333 94.0971 16.333C95.5569 16.333 96.7075 16.7891 97.5491 17.7013C98.3897 18.6075 98.8104 19.8428 98.8104 21.4074V21.5162C98.8104 23.0446 98.3869 24.2588 97.5398 25.1589C96.6983 26.0529 95.5569 26.5 94.1156 26.5C92.7278 26.5 91.6132 26.0832 90.7726 25.2496C89.931 24.4098 89.478 23.2742 89.4116 21.8424L89.4023 21.3259ZM92.439 21.5162C92.439 22.4224 92.5802 23.0868 92.8625 23.5098C93.1449 23.9326 93.5629 24.144 94.1156 24.144C95.197 24.144 95.7497 23.3074 95.7737 21.634V21.3259C95.7737 19.568 95.2146 18.689 94.0971 18.689C93.0821 18.689 92.5322 19.4472 92.4482 20.9634L92.439 21.5162ZM103.352 26.3188H100.306V16.5143H103.352V26.3188ZM100.125 13.9861C100.125 13.5511 100.282 13.1947 100.594 12.9168C100.907 12.639 101.312 12.5 101.811 12.5C102.309 12.5 102.714 12.639 103.027 12.9168C103.34 13.1947 103.496 13.5511 103.496 13.9861C103.496 14.421 103.34 14.7774 103.027 15.0553C102.714 15.3332 102.309 15.4721 101.811 15.4721C101.312 15.4721 100.907 15.3332 100.594 15.0553C100.282 14.7774 100.125 14.421 100.125 13.9861ZM108.019 16.5143L108.119 17.665C108.792 16.777 109.72 16.333 110.903 16.333C111.918 16.333 112.675 16.6381 113.174 17.2482C113.678 17.8584 113.939 18.7766 113.958 20.003V26.3188H110.912V20.1298C110.912 19.6344 110.813 19.272 110.615 19.0424C110.416 18.8068 110.056 18.689 109.533 18.689C108.938 18.689 108.497 18.9246 108.208 19.3958V26.3188H105.172V16.5143H108.019ZM128.519 20.7278H123.545V23.8722H129.421V26.3188H120.383V13.1252H129.438V15.5809H123.545V18.3628H128.519V20.7278ZM140.999 13.1252V21.7609C140.999 22.7395 140.793 23.5883 140.378 24.3071C139.963 25.02 139.369 25.5637 138.594 25.9382C137.819 26.3128 136.902 26.5 135.845 26.5C134.248 26.5 132.989 26.0832 132.07 25.2496C131.151 24.4159 130.682 23.2742 130.664 21.8242V13.1252H133.844V21.8877C133.881 23.3315 134.548 24.0534 135.845 24.0534C136.5 24.0534 136.996 23.8722 137.332 23.5098C137.668 23.1472 137.837 22.5583 137.837 21.7428V13.1252H140.999Z" fill="#333333"/>
</g>
<defs>
<clipPath id="clip0">
<rect width="141" height="40" fill="white" transform="translate(-0.000793457 0.5)"/>
</clipPath>
</defs>
</svg>
