<svg width="132" height="25" viewBox="0 0 132 25" fill="none" xmlns="http://www.w3.org/2000/svg">
<path d="M9.375 18.7C7.675 18.7 6.10833 18.2917 4.675 17.475C3.24167 16.6583 2.1 15.5417 1.25 14.125C0.416667 12.6917 0 11.1 0 9.35C0 7.6 0.416667 6.01667 1.25 4.6C2.1 3.16667 3.24167 2.04167 4.675 1.225C6.10833 0.408334 7.675 0 9.375 0C10.725 0 11.9833 0.241667 13.15 0.725001C14.3167 1.20833 15.2917 1.88333 16.075 2.75L14.125 4.7C13.5417 4.05 12.8417 3.55 12.025 3.2C11.225 2.85 10.3333 2.675 9.35 2.675C8.2 2.675 7.125 2.95 6.125 3.5C5.125 4.05 4.325 4.83333 3.725 5.85C3.125 6.86667 2.825 8.03333 2.825 9.35C2.825 10.6667 3.125 11.8333 3.725 12.85C4.325 13.8667 5.125 14.65 6.125 15.2C7.125 15.75 8.20833 16.025 9.375 16.025C10.4417 16.025 11.3333 15.8667 12.05 15.55C12.7667 15.2333 13.4083 14.8083 13.975 14.275C14.3417 13.9083 14.65 13.45 14.9 12.9C15.1667 12.35 15.3417 11.75 15.425 11.1H9.35V8.6H18.075C18.1583 9.06667 18.2 9.55 18.2 10.05C18.2 11.1833 18.025 12.275 17.675 13.325C17.325 14.3583 16.7667 15.2583 16 16.025C14.3167 17.8083 12.1083 18.7 9.375 18.7Z" fill="black"/>
<path d="M26.8352 18.7C25.5518 18.7 24.4018 18.4083 23.3852 17.825C22.3685 17.225 21.5768 16.4083 21.0102 15.375C20.4435 14.3417 20.1602 13.1917 20.1602 11.925C20.1602 10.6583 20.4435 9.50833 21.0102 8.475C21.5768 7.44167 22.3685 6.63333 23.3852 6.05C24.4018 5.45 25.5518 5.15 26.8352 5.15C28.1185 5.15 29.2685 5.45 30.2852 6.05C31.3018 6.65 32.0935 7.46667 32.6602 8.5C33.2268 9.53333 33.5102 10.675 33.5102 11.925C33.5102 13.1917 33.2268 14.3417 32.6602 15.375C32.0935 16.4083 31.3018 17.225 30.2852 17.825C29.2685 18.4083 28.1185 18.7 26.8352 18.7ZM26.8352 16.175C27.5352 16.175 28.1852 16.0083 28.7852 15.675C29.3852 15.325 29.8602 14.8333 30.2102 14.2C30.5768 13.55 30.7602 12.7917 30.7602 11.925C30.7602 11.0583 30.5768 10.3083 30.2102 9.675C29.8602 9.04167 29.3852 8.55833 28.7852 8.225C28.1852 7.875 27.5352 7.7 26.8352 7.7C26.1352 7.7 25.4852 7.875 24.8852 8.225C24.2852 8.55833 23.8018 9.04167 23.4352 9.675C23.0852 10.3083 22.9102 11.0583 22.9102 11.925C22.9102 12.7917 23.0852 13.55 23.4352 14.2C23.8018 14.8333 24.2852 15.325 24.8852 15.675C25.4852 16.0083 26.1352 16.175 26.8352 16.175Z" fill="black"/>
<path d="M42.0207 18.7C40.7374 18.7 39.5874 18.4083 38.5707 17.825C37.554 17.225 36.7624 16.4083 36.1957 15.375C35.629 14.3417 35.3457 13.1917 35.3457 11.925C35.3457 10.6583 35.629 9.50833 36.1957 8.475C36.7624 7.44167 37.554 6.63333 38.5707 6.05C39.5874 5.45 40.7374 5.15 42.0207 5.15C43.304 5.15 44.454 5.45 45.4707 6.05C46.4874 6.65 47.279 7.46667 47.8457 8.5C48.4124 9.53333 48.6957 10.675 48.6957 11.925C48.6957 13.1917 48.4124 14.3417 47.8457 15.375C47.279 16.4083 46.4874 17.225 45.4707 17.825C44.454 18.4083 43.304 18.7 42.0207 18.7ZM42.0207 16.175C42.7207 16.175 43.3707 16.0083 43.9707 15.675C44.5707 15.325 45.0457 14.8333 45.3957 14.2C45.7624 13.55 45.9457 12.7917 45.9457 11.925C45.9457 11.0583 45.7624 10.3083 45.3957 9.675C45.0457 9.04167 44.5707 8.55833 43.9707 8.225C43.3707 7.875 42.7207 7.7 42.0207 7.7C41.3207 7.7 40.6707 7.875 40.0707 8.225C39.4707 8.55833 38.9874 9.04167 38.6207 9.675C38.2707 10.3083 38.0957 11.0583 38.0957 11.925C38.0957 12.7917 38.2707 13.55 38.6207 14.2C38.9874 14.8333 39.4707 15.325 40.0707 15.675C40.6707 16.0083 41.3207 16.175 42.0207 16.175Z" fill="black"/>
<path d="M56.9813 24.1C55.4146 24.1 54.1146 23.7417 53.0812 23.025C52.0646 22.3083 51.3812 21.4583 51.0312 20.475L53.6063 19.4C53.8729 20.0667 54.2979 20.6 54.8812 21C55.4812 21.4167 56.1813 21.625 56.9813 21.625C58.1479 21.625 59.0562 21.275 59.7062 20.575C60.3729 19.8917 60.7062 18.925 60.7062 17.675V16.5H60.5563C60.1396 17.1 59.5812 17.575 58.8812 17.925C58.1979 18.2583 57.4062 18.425 56.5062 18.425C55.4396 18.425 54.4479 18.15 53.5312 17.6C52.6146 17.05 51.8812 16.275 51.3312 15.275C50.7979 14.2583 50.5312 13.1 50.5312 11.8C50.5312 10.5 50.7979 9.35 51.3312 8.35C51.8812 7.33333 52.6146 6.55 53.5312 6C54.4479 5.43333 55.4396 5.15 56.5062 5.15C57.3896 5.15 58.1812 5.325 58.8812 5.675C59.5812 6.025 60.1396 6.5 60.5563 7.1H60.7062V5.55H63.3312V17.6C63.3312 18.9833 63.0646 20.1583 62.5312 21.125C61.9979 22.1083 61.2479 22.85 60.2812 23.35C59.3312 23.85 58.2313 24.1 56.9813 24.1ZM57.0062 15.925C57.6729 15.925 58.2896 15.7667 58.8563 15.45C59.4229 15.1167 59.8729 14.6417 60.2062 14.025C60.5396 13.3917 60.7062 12.65 60.7062 11.8C60.7062 10.5 60.3479 9.49167 59.6312 8.775C58.9312 8.04167 58.0562 7.675 57.0062 7.675C56.3229 7.675 55.6979 7.84167 55.1312 8.175C54.5646 8.49167 54.1146 8.95833 53.7812 9.575C53.4479 10.1917 53.2812 10.9333 53.2812 11.8C53.2812 12.6667 53.4479 13.4083 53.7812 14.025C54.1146 14.6417 54.5646 15.1167 55.1312 15.45C55.6979 15.7667 56.3229 15.925 57.0062 15.925Z" fill="black"/>
<path d="M66.5633 0.400001H69.3133V18.3H66.5633V0.400001Z" fill="black"/>
<path d="M78.2477 18.7C76.9977 18.7 75.8727 18.4083 74.8727 17.825C73.8893 17.2417 73.1143 16.4417 72.5477 15.425C71.9977 14.3917 71.7227 13.2333 71.7227 11.95C71.7227 10.7333 71.9893 9.60833 72.5227 8.575C73.0727 7.525 73.831 6.69167 74.7977 6.075C75.7643 5.45833 76.8643 5.15 78.0977 5.15C79.381 5.15 80.4893 5.43333 81.4227 6C82.3727 6.56667 83.0893 7.34167 83.5727 8.325C84.0727 9.30833 84.3227 10.4167 84.3227 11.65C84.3227 11.8833 84.2977 12.175 84.2477 12.525H74.4727C74.5727 13.7083 74.9893 14.625 75.7227 15.275C76.4727 15.9083 77.3393 16.225 78.3227 16.225C79.106 16.225 79.781 16.05 80.3477 15.7C80.931 15.3333 81.3977 14.8417 81.7477 14.225L84.0727 15.325C83.4727 16.375 82.6893 17.2 81.7227 17.8C80.756 18.4 79.5977 18.7 78.2477 18.7ZM81.5227 10.425C81.4893 9.975 81.3477 9.53333 81.0977 9.1C80.8477 8.65 80.4643 8.275 79.9477 7.975C79.4477 7.675 78.831 7.525 78.0977 7.525C77.2143 7.525 76.4643 7.79167 75.8477 8.325C75.2477 8.84167 74.831 9.54167 74.5977 10.425H81.5227Z" fill="black"/>
<path d="M93.1363 0.400001H95.9363V18.3H93.1363V0.400001Z" fill="black"/>
<path d="M99.5711 5.55H102.196V7.225H102.321C102.688 6.625 103.229 6.13333 103.946 5.75C104.679 5.35 105.454 5.15 106.271 5.15C107.821 5.15 108.996 5.60833 109.796 6.525C110.613 7.425 111.021 8.65833 111.021 10.225V18.3H108.271V10.6C108.271 9.6 108.021 8.86667 107.521 8.4C107.038 7.93333 106.363 7.7 105.496 7.7C104.879 7.7 104.329 7.875 103.846 8.225C103.363 8.55833 102.988 9.00833 102.721 9.575C102.454 10.1417 102.321 10.75 102.321 11.4V18.3H99.5711V5.55Z" fill="black"/>
<path d="M120.022 18.7C118.755 18.7 117.614 18.4083 116.597 17.825C115.597 17.2417 114.814 16.4417 114.247 15.425C113.697 14.3917 113.422 13.225 113.422 11.925C113.422 10.625 113.697 9.46667 114.247 8.45C114.814 7.41667 115.597 6.60833 116.597 6.025C117.614 5.44167 118.755 5.15 120.022 5.15C121.422 5.15 122.614 5.46667 123.597 6.1C124.58 6.73333 125.28 7.59167 125.697 8.675L123.172 9.725C122.605 8.375 121.53 7.7 119.947 7.7C119.264 7.7 118.63 7.875 118.047 8.225C117.48 8.575 117.022 9.075 116.672 9.725C116.339 10.3583 116.172 11.0917 116.172 11.925C116.172 12.7583 116.339 13.5 116.672 14.15C117.022 14.8 117.48 15.3 118.047 15.65C118.63 16 119.264 16.175 119.947 16.175C120.747 16.175 121.43 16 121.997 15.65C122.58 15.2833 123.022 14.7667 123.322 14.1L125.797 15.175C125.314 16.2583 124.58 17.1167 123.597 17.75C122.614 18.3833 121.422 18.7 120.022 18.7Z" fill="black"/>
<path d="M129.861 18.45C129.327 18.45 128.869 18.2667 128.486 17.9C128.119 17.5167 127.936 17.0583 127.936 16.525C127.936 15.9917 128.119 15.5417 128.486 15.175C128.869 14.8083 129.327 14.625 129.861 14.625C130.394 14.625 130.844 14.8083 131.211 15.175C131.594 15.5417 131.786 15.9917 131.786 16.525C131.786 17.0583 131.594 17.5167 131.211 17.9C130.844 18.2667 130.394 18.45 129.861 18.45Z" fill="black"/>
</svg>
