<svg width="24" height="24" viewBox="0 0 24 24" fill="none" xmlns="http://www.w3.org/2000/svg">
<path d="M20.5714 9.85714H14.1429V3.42857C14.1429 2.66964 13.4732 2 12.7143 2H11.2857C10.4821 2 9.85714 2.66964 9.85714 3.42857V9.85714H3.42857C2.625 9.85714 2 10.5268 2 11.2857V12.7143C2 13.5179 2.625 14.1429 3.42857 14.1429H9.85714V20.5714C9.85714 21.375 10.4821 22 11.2857 22H12.7143C13.4732 22 14.1429 21.375 14.1429 20.5714V14.1429H20.5714C21.3304 14.1429 22 13.5179 22 12.7143V11.2857C22 10.5268 21.3304 9.85714 20.5714 9.85714Z" fill="white"/>
</svg>
