<svg width="81" height="80" viewBox="0 0 81 80" fill="none" xmlns="http://www.w3.org/2000/svg">
<path fill-rule="evenodd" clip-rule="evenodd" d="M7.16667 16.6667C7.16667 14.0146 8.22024 11.471 10.0956 9.59568C11.971 7.72032 14.5145 6.66675 17.1667 6.66675H50.5C53.1522 6.66675 55.6957 7.72032 57.5711 9.59568C59.4464 11.471 60.5 14.0146 60.5 16.6667V36.6668C60.5 39.3189 59.4464 41.8625 57.5711 43.7378C55.6957 45.6132 53.1522 46.6668 50.5 46.6668H38.5467L26.19 59.0234C25.7238 59.4895 25.1299 59.8068 24.4834 59.9354C23.8369 60.0639 23.1668 59.9979 22.5578 59.7457C21.9488 59.4934 21.4283 59.0663 21.062 58.5183C20.6957 57.9702 20.5001 57.3259 20.5 56.6668V46.6668H17.1667C14.5145 46.6668 11.971 45.6132 10.0956 43.7378C8.22024 41.8625 7.16667 39.3189 7.16667 36.6668V16.6667ZM73.8333 30.0001V50.0001C73.8333 53.3334 71.8333 60.0001 63.8333 60.0001H60.5V70.0001C60.5 71.1101 59.8333 73.3334 57.1667 73.3334C56.49 73.3334 55.94 73.1901 55.5 72.9568L42.5433 60.0001H30.5L40.5 50.0001H50.5C54.9433 50.0001 63.8333 47.3334 63.8333 36.6668V20.0001C67.1667 20.0001 73.8333 22.0001 73.8333 30.0001Z" fill="#CFCFCF"/>
<path fill-rule="evenodd" clip-rule="evenodd" d="M73.8333 30V50C73.8333 53.3333 71.8333 60 63.8333 60H60.5V70C60.5 71.11 59.8333 73.3333 57.1667 73.3333C56.49 73.3333 55.94 73.19 55.5 72.9567L42.5433 60H30.5L40.5 50H50.5C54.9433 50 63.8333 47.3333 63.8333 36.6667V20C67.1667 20 73.8333 22 73.8333 30Z" fill="#EA4335"/>
</svg>
