<svg width="81" height="80" viewBox="0 0 81 80" fill="none" xmlns="http://www.w3.org/2000/svg">
<path d="M19.6667 10C17.2355 10 14.9039 10.9658 13.1849 12.6849C11.4658 14.4039 10.5 16.7355 10.5 19.1667V60.8333C10.5 63.2645 11.4658 65.5961 13.1849 67.3151C14.9039 69.0342 17.2355 70 19.6667 70H40.5733C39.5743 68.4416 38.78 66.7612 38.21 65H19.6667C17.3667 65 15.5 63.1333 15.5 60.8333V19.1667C15.5 16.8667 17.3667 15 19.6667 15H61.3333C63.6333 15 65.5 16.8667 65.5 19.1667V37.71C67.2612 38.28 68.9416 39.0743 70.5 40.0733V19.1667C70.5 16.7355 69.5342 14.4039 67.8151 12.6849C66.0961 10.9658 63.7645 10 61.3333 10H19.6667Z" fill="#CFCFCF"/>
<path d="M60.3567 36.7199C60.4999 36.3413 60.5489 35.9337 60.4995 35.532C60.4502 35.1303 60.3039 34.7466 60.0733 34.414C59.8427 34.0814 59.5347 33.8099 59.1759 33.6227C58.817 33.4356 58.418 33.3385 58.0133 33.3399H41.3333C40.6703 33.3399 40.0344 33.6033 39.5656 34.0721C39.0967 34.5409 38.8333 35.1768 38.8333 35.8399C38.8333 36.5029 39.0967 37.1388 39.5656 37.6076C40.0344 38.0765 40.6703 38.3399 41.3333 38.3399H50.4733C53.5954 37.033 56.9808 36.4781 60.3567 36.7199Z" fill="#CFCFCF"/>
<path d="M28 28.3398C26.0109 28.3398 24.1032 29.13 22.6967 30.5365C21.2902 31.9431 20.5 33.8507 20.5 35.8398C20.5 37.829 21.2902 39.7366 22.6967 41.1431C24.1032 42.5497 26.0109 43.3398 28 43.3398C29.9891 43.3398 31.8968 42.5497 33.3033 41.1431C34.7098 39.7366 35.5 37.829 35.5 35.8398C35.5 33.8507 34.7098 31.9431 33.3033 30.5365C31.8968 29.13 29.9891 28.3398 28 28.3398ZM25.5 35.8398C25.5 35.1768 25.7634 34.5409 26.2322 34.0721C26.7011 33.6032 27.337 33.3398 28 33.3398C28.663 33.3398 29.2989 33.6032 29.7678 34.0721C30.2366 34.5409 30.5 35.1768 30.5 35.8398C30.5 36.5029 30.2366 37.1388 29.7678 37.6076C29.2989 38.0765 28.663 38.3398 28 38.3398C27.337 38.3398 26.7011 38.0765 26.2322 37.6076C25.7634 37.1388 25.5 36.5029 25.5 35.8398Z" fill="#CFCFCF"/>
<path d="M20.5 54.1667C20.5 53.1818 20.694 52.2066 21.0709 51.2966C21.4478 50.3867 22.0003 49.5599 22.6967 48.8634C23.3931 48.167 24.2199 47.6146 25.1299 47.2377C26.0398 46.8607 27.0151 46.6667 28 46.6667C28.9849 46.6667 29.9602 46.8607 30.8701 47.2377C31.7801 47.6146 32.6069 48.167 33.3033 48.8634C33.9997 49.5599 34.5522 50.3867 34.9291 51.2966C35.306 52.2066 35.5 53.1818 35.5 54.1667C35.5 56.1559 34.7098 58.0635 33.3033 59.47C31.8968 60.8766 29.9891 61.6667 28 61.6667C26.0109 61.6667 24.1032 60.8766 22.6967 59.47C21.2902 58.0635 20.5 56.1559 20.5 54.1667ZM28 51.6667C27.337 51.6667 26.7011 51.9301 26.2322 52.399C25.7634 52.8678 25.5 53.5037 25.5 54.1667C25.5 54.8298 25.7634 55.4657 26.2322 55.9345C26.7011 56.4034 27.337 56.6667 28 56.6667C28.663 56.6667 29.2989 56.4034 29.7678 55.9345C30.2366 55.4657 30.5 54.8298 30.5 54.1667C30.5 53.5037 30.2366 52.8678 29.7678 52.399C29.2989 51.9301 28.663 51.6667 28 51.6667Z" fill="#CFCFCF"/>
<path d="M58.0133 25H23.0133C22.3503 25 21.7144 24.7366 21.2456 24.2678C20.7767 23.7989 20.5133 23.163 20.5133 22.5C20.5133 21.837 20.7767 21.2011 21.2456 20.7322C21.7144 20.2634 22.3503 20 23.0133 20H58.0133C58.6764 20 59.3123 20.2634 59.7811 20.7322C60.2499 21.2011 60.5133 21.837 60.5133 22.5C60.5133 23.163 60.2499 23.7989 59.7811 24.2678C59.3123 24.7366 58.6764 25 58.0133 25Z" fill="#CFCFCF"/>
<path d="M77.1667 58.3333C77.1667 53.471 75.2351 48.8079 71.797 45.3697C68.3588 41.9315 63.6956 40 58.8333 40C53.971 40 49.3079 41.9315 45.8697 45.3697C42.4315 48.8079 40.5 53.471 40.5 58.3333C40.5 63.1956 42.4315 67.8588 45.8697 71.297C49.3079 74.7351 53.971 76.6667 58.8333 76.6667C63.6956 76.6667 68.3588 74.7351 71.797 71.297C75.2351 67.8588 77.1667 63.1956 77.1667 58.3333ZM60.5033 68.3433C60.5033 68.7854 60.3277 69.2093 60.0152 69.5218C59.7026 69.8344 59.2787 70.01 58.8367 70.01C58.3946 70.01 57.9707 69.8344 57.6581 69.5218C57.3456 69.2093 57.17 68.7854 57.17 68.3433V60H48.82C48.378 60 47.954 59.8244 47.6415 59.5118C47.3289 59.1993 47.1533 58.7754 47.1533 58.3333C47.1533 57.8913 47.3289 57.4674 47.6415 57.1548C47.954 56.8423 48.378 56.6667 48.82 56.6667H57.1667V48.3333C57.1667 47.8913 57.3423 47.4674 57.6548 47.1548C57.9674 46.8423 58.3913 46.6667 58.8333 46.6667C59.2754 46.6667 59.6993 46.8423 60.0118 47.1548C60.3244 47.4674 60.5 47.8913 60.5 48.3333V56.6667H68.8433C69.2854 56.6667 69.7093 56.8423 70.0218 57.1548C70.3344 57.4674 70.51 57.8913 70.51 58.3333C70.51 58.7754 70.3344 59.1993 70.0218 59.5118C69.7093 59.8244 69.2854 60 68.8433 60H60.5033V68.3433Z" fill="#4285F4"/>
</svg>
