<svg width="81" height="80" viewBox="0 0 81 80" fill="none" xmlns="http://www.w3.org/2000/svg">
<path d="M40.5 40.0001C38.5222 40.0001 36.5888 40.5866 34.9443 41.6854C33.2998 42.7842 32.0181 44.346 31.2612 46.1732C30.5043 48.0005 30.3063 50.0112 30.6921 51.951C31.078 53.8908 32.0304 55.6726 33.4289 57.0712C34.8274 58.4697 36.6093 59.4221 38.5491 59.8079C40.4889 60.1938 42.4996 59.9958 44.3268 59.2389C46.1541 58.482 47.7159 57.2003 48.8147 55.5558C49.9135 53.9113 50.5 51.9779 50.5 50.0001C50.5 47.3479 49.4464 44.8044 47.5711 42.929C45.6957 41.0537 43.1521 40.0001 40.5 40.0001ZM40.5 53.3334C39.8407 53.3334 39.1962 53.1379 38.6481 52.7716C38.0999 52.4054 37.6727 51.8848 37.4204 51.2757C37.1681 50.6666 37.1021 49.9964 37.2307 49.3498C37.3593 48.7032 37.6768 48.1092 38.143 47.6431C38.6091 47.1769 39.2031 46.8594 39.8497 46.7308C40.4963 46.6022 41.1665 46.6682 41.7756 46.9205C42.3847 47.1728 42.9053 47.6 43.2716 48.1482C43.6378 48.6963 43.8333 49.3408 43.8333 50.0001C43.8333 50.8841 43.4821 51.732 42.857 52.3571C42.2319 52.9822 41.384 53.3334 40.5 53.3334ZM63.8333 50.0001C63.8333 49.3408 63.6378 48.6963 63.2716 48.1482C62.9053 47.6 62.3847 47.1728 61.7756 46.9205C61.1665 46.6682 60.4963 46.6022 59.8497 46.7308C59.2031 46.8594 58.6091 47.1769 58.143 47.6431C57.6768 48.1092 57.3593 48.7032 57.2307 49.3498C57.1021 49.9964 57.1681 50.6666 57.4204 51.2757C57.6727 51.8848 58.0999 52.4054 58.6481 52.7716C59.1963 53.1379 59.8407 53.3334 60.5 53.3334C61.384 53.3334 62.2319 52.9822 62.857 52.3571C63.4821 51.732 63.8333 50.8841 63.8333 50.0001ZM67.1667 26.6667H57.1667C56.2826 26.6667 55.4347 27.0179 54.8096 27.6431C54.1845 28.2682 53.8333 29.116 53.8333 30.0001C53.8333 30.8841 54.1845 31.732 54.8096 32.3571C55.4347 32.9822 56.2826 33.3334 57.1667 33.3334H67.1667C68.0507 33.3334 68.8986 33.6846 69.5237 34.3097C70.1488 34.9348 70.5 35.7827 70.5 36.6667V63.3334C70.5 64.2175 70.1488 65.0653 69.5237 65.6904C68.8986 66.3156 68.0507 66.6668 67.1667 66.6668H13.8333C12.9493 66.6668 12.1014 66.3156 11.4763 65.6904C10.8512 65.0653 10.5 64.2175 10.5 63.3334V36.6667C10.5 35.7827 10.8512 34.9348 11.4763 34.3097C12.1014 33.6846 12.9493 33.3334 13.8333 33.3334H23.8333C24.7174 33.3334 25.5652 32.9822 26.1903 32.3571C26.8155 31.732 27.1667 30.8841 27.1667 30.0001C27.1667 29.116 26.8155 28.2682 26.1903 27.6431C25.5652 27.0179 24.7174 26.6667 23.8333 26.6667H13.8333C11.1811 26.6667 8.63761 27.7203 6.76225 29.5957C4.88688 31.471 3.83331 34.0146 3.83331 36.6667V63.3334C3.83331 65.9856 4.88688 68.5291 6.76225 70.4045C8.63761 72.2799 11.1811 73.3334 13.8333 73.3334H67.1667C69.8188 73.3334 72.3624 72.2799 74.2377 70.4045C76.1131 68.5291 77.1667 65.9856 77.1667 63.3334V36.6667C77.1667 34.0146 76.1131 31.471 74.2377 29.5957C72.3624 27.7203 69.8188 26.6667 67.1667 26.6667ZM17.1666 50.0001C17.1666 50.6594 17.3621 51.3038 17.7284 51.852C18.0947 52.4002 18.6153 52.8274 19.2244 53.0797C19.8335 53.332 20.5037 53.398 21.1503 53.2694C21.7969 53.1408 22.3908 52.8233 22.857 52.3571C23.3232 51.8909 23.6407 51.297 23.7693 50.6504C23.8979 50.0038 23.8319 49.3336 23.5796 48.7245C23.3273 48.1154 22.9 47.5948 22.3519 47.2285C21.8037 46.8622 21.1593 46.6667 20.5 46.6667C19.6159 46.6667 18.7681 47.0179 18.143 47.6431C17.5178 48.2682 17.1666 49.116 17.1666 50.0001Z" fill="#CFCFCF"/>
<path d="M38.1333 32.3665C38.4503 32.67 38.8242 32.9079 39.2333 33.0665C39.6323 33.2429 40.0638 33.3339 40.5 33.3339C40.9362 33.3339 41.3677 33.2429 41.7667 33.0665C42.1758 32.9079 42.5496 32.67 42.8667 32.3665L50.5 24.8665C51.1453 24.2211 51.5079 23.3458 51.5079 22.4332C51.5079 21.5205 51.1453 20.6452 50.5 19.9998C49.8546 19.3545 48.9793 18.9919 48.0667 18.9919C47.154 18.9919 46.2787 19.3545 45.6333 19.9998L43.8333 21.9665V9.99984C43.8333 9.11578 43.4821 8.26794 42.857 7.64281C42.2319 7.01769 41.384 6.6665 40.5 6.6665C39.6159 6.6665 38.7681 7.01769 38.143 7.64281C37.5178 8.26794 37.1667 9.11578 37.1667 9.99984V21.9665L35.3667 19.9998C34.7213 19.3545 33.846 18.9919 32.9333 18.9919C32.0206 18.9919 31.1453 19.3545 30.5 19.9998C29.8546 20.6452 29.4921 21.5205 29.4921 22.4332C29.4921 23.3458 29.8546 24.2211 30.5 24.8665L38.1333 32.3665Z" fill="#34A853"/>
</svg>
