<svg width="81" height="80" viewBox="0 0 81 80" fill="none" xmlns="http://www.w3.org/2000/svg">
<path d="M10.5 22.5C10.5 19.1848 11.817 16.0054 14.1612 13.6612C16.5054 11.317 19.6848 10 23 10H58.01C61.3252 10 64.5046 11.317 66.8488 13.6612C69.193 16.0054 70.51 19.1848 70.51 22.5V35.0075L70.5 34.9975C68.5911 33.5629 66.4864 32.4095 64.25 31.5725V25H16.75V57.5C16.75 59.1576 17.4085 60.7473 18.5806 61.9194C19.7527 63.0915 21.3424 63.75 23 63.75H32.075C32.9121 65.9863 34.0655 68.0911 35.5 70L35.5075 70.01H23C19.6848 70.01 16.5054 68.693 14.1612 66.3488C11.817 64.0046 10.5 60.8252 10.5 57.51V22.5ZM40.5075 32.495V34.9925C38.6141 36.4139 36.9308 38.0955 35.5075 39.9875V34.995H25.52V55H30.5C30.5 56.71 30.6725 58.3825 31 60H23.0225C22.3595 60 21.7236 59.7366 21.2547 59.2678C20.7859 58.7989 20.5225 58.163 20.5225 57.5V32.495C20.5225 31.832 20.7859 31.1961 21.2547 30.7272C21.7236 30.2584 22.3595 29.995 23.0225 29.995H38.0075C38.6705 29.995 39.3064 30.2584 39.7753 30.7272C40.2441 31.1961 40.5075 31.832 40.5075 32.495Z" fill="#CFCFCF"/>
<path d="M42.1925 71.4249L42.3075 71.035C42.691 69.7355 42.8065 68.3717 42.647 67.0263C42.4874 65.6809 42.0561 64.382 41.3793 63.2083C40.7024 62.0347 39.7942 61.0108 38.7096 60.1989C37.625 59.3869 36.3868 58.8038 35.07 58.4849C34.7573 56.2022 34.8164 53.8838 35.245 51.62C36.5492 51.296 37.7748 50.7124 38.8484 49.9042C39.922 49.096 40.8218 48.0796 41.4938 46.9159C42.1659 45.7522 42.5965 44.4649 42.7599 43.131C42.9233 41.7971 42.8162 40.444 42.445 39.1525C44.1917 37.6478 46.1707 36.4363 48.305 35.565C49.2395 36.5455 50.3635 37.326 51.6088 37.859C52.854 38.392 54.1946 38.6665 55.5491 38.6658C56.9037 38.6651 58.2439 38.3892 59.4886 37.8549C60.7333 37.3206 61.8565 36.539 62.79 35.5575L63.07 35.2625C65.1541 36.0395 67.0934 37.16 68.8075 38.5775L68.6925 38.965C68.309 40.2644 68.1935 41.6282 68.353 42.9736C68.5126 44.319 68.9439 45.6179 69.6207 46.7916C70.2976 47.9652 71.2058 48.9891 72.2904 49.801C73.375 50.613 74.6132 51.1961 75.93 51.515C76.2432 53.7985 76.1841 56.1178 75.755 58.3825C74.4508 58.7064 73.2253 59.29 72.1516 60.0982C71.078 60.9064 70.1782 61.9228 69.5062 63.0865C68.8341 64.2502 68.4035 65.5375 68.2401 66.8714C68.0767 68.2053 68.1838 69.5584 68.555 70.8499C66.8084 72.3546 64.8294 73.5661 62.695 74.4375C61.7605 73.4569 60.6365 72.6764 59.3913 72.1434C58.146 71.6104 56.8054 71.3359 55.4509 71.3366C54.0964 71.3373 52.7561 71.6132 51.5114 72.1475C50.2667 72.6818 49.1435 73.4634 48.21 74.445L47.93 74.7375C45.8461 73.9612 43.9068 72.8416 42.1925 71.4249ZM52.6175 59.9975C55.2825 61.5375 58.735 60.5475 60.3275 57.7875C61.9225 55.03 61.0525 51.5425 58.385 50.005C55.7175 48.465 52.265 49.455 50.6725 52.2125C49.0775 54.9725 49.9475 58.4575 52.615 59.9975H52.6175Z" fill="#FBBC05"/>
</svg>
