<svg width="223" height="29" viewBox="0 0 223 29" fill="none" xmlns="http://www.w3.org/2000/svg">
<path d="M10.9663 10.4906V13.4749H18.0289C17.8127 15.1491 17.2602 16.3744 16.4194 17.2357C15.3864 18.279 13.7769 19.4194 10.9663 19.4194C6.6182 19.4194 3.21902 15.877 3.21902 11.4854C3.21902 7.09379 6.6182 3.5514 10.9663 3.5514C13.3085 3.5514 15.0261 4.48553 16.2873 5.68654L18.3652 3.5878C16.6116 1.86513 14.2574 0.554932 10.9663 0.554932C5.00869 0.554932 0 5.45604 0 11.4733C0 17.4905 5.00869 22.3916 10.9663 22.3916C14.1853 22.3916 16.6116 21.324 18.5093 19.3344C20.4552 17.3691 21.0677 14.591 21.0677 12.3588C21.0677 11.6674 21.0197 11.0244 20.9116 10.4906H10.9663V10.4906Z" fill="#4285F4"/>
<path d="M29.896 8.06409C26.0404 8.06409 22.8935 11.0242 22.8935 15.1125C22.8935 19.1644 26.0404 22.1609 29.896 22.1609C33.7516 22.1609 36.8986 19.1765 36.8986 15.1125C36.8986 11.0242 33.7516 8.06409 29.896 8.06409ZM29.896 19.3827C27.782 19.3827 25.9563 17.6237 25.9563 15.1125C25.9563 12.577 27.782 10.8422 29.896 10.8422C32.01 10.8422 33.8357 12.577 33.8357 15.1125C33.8357 17.6237 32.01 19.3827 29.896 19.3827Z" fill="#EA4335"/>
<path d="M64.2242 9.64118H64.1161C63.4315 8.81624 62.1102 8.06409 60.4407 8.06409C56.9574 8.06409 53.9185 11.1333 53.9185 15.1125C53.9185 19.0673 56.9574 22.1609 60.4407 22.1609C62.1102 22.1609 63.4315 21.4087 64.1161 20.5595H64.2242V21.5421C64.2242 24.2353 62.7949 25.679 60.5007 25.679C58.627 25.679 57.4619 24.3203 56.9814 23.1678L54.3149 24.2839C55.0836 26.1521 57.1135 28.445 60.5007 28.445C64.0921 28.445 67.1309 26.3098 67.1309 21.1054V8.42803H64.2242V9.64118ZM60.7049 19.3827C58.5909 19.3827 56.9814 17.563 56.9814 15.1125C56.9814 12.6255 58.5909 10.8422 60.7049 10.8422C62.7949 10.8422 64.4284 12.6619 64.4284 15.1367C64.4404 17.5994 62.7949 19.3827 60.7049 19.3827Z" fill="#4285F4"/>
<path d="M45.5107 8.06409C41.6551 8.06409 38.5081 11.0242 38.5081 15.1125C38.5081 19.1644 41.6551 22.1609 45.5107 22.1609C49.3663 22.1609 52.5133 19.1765 52.5133 15.1125C52.5133 11.0242 49.3663 8.06409 45.5107 8.06409ZM45.5107 19.3827C43.3967 19.3827 41.571 17.6237 41.571 15.1125C41.571 12.577 43.3967 10.8422 45.5107 10.8422C47.6247 10.8422 49.4504 12.577 49.4504 15.1125C49.4504 17.6237 47.6247 19.3827 45.5107 19.3827Z" fill="#FBBC05"/>
<path d="M69.5332 0.846069H72.5483V22.1611H69.5332V0.846069Z" fill="#34A853"/>
<path d="M81.8568 19.3827C80.2953 19.3827 79.1903 18.667 78.4696 17.2476L87.8023 13.3534L87.49 12.5527C86.9135 10.9756 85.1358 8.06409 81.5204 8.06409C77.9291 8.06409 74.9383 10.915 74.9383 15.1125C74.9383 19.0673 77.893 22.1609 81.8568 22.1609C85.0517 22.1609 86.9015 20.1834 87.6702 19.0431L85.292 17.4417C84.4992 18.6063 83.4182 19.3827 81.8568 19.3827V19.3827ZM81.6405 10.7087C82.8777 10.7087 83.9347 11.3517 84.283 12.2616L77.9771 14.8941C77.9771 11.934 80.0551 10.7087 81.6405 10.7087V10.7087Z" fill="#EA4335"/>
<path d="M97.7237 0.827347H110.255V3.27908H100.266V10.6948H109.286V13.1163H100.266V22.4995H97.7237V0.827347Z" fill="#5F6368"/>
<path d="M114.507 4.2174C114.003 4.2174 113.569 4.03579 113.205 3.67257C112.842 3.30935 112.661 2.8755 112.661 2.37103C112.661 1.86656 112.842 1.4428 113.205 1.09976C113.569 0.736542 114.003 0.554932 114.507 0.554932C115.012 0.554932 115.445 0.736542 115.809 1.09976C116.172 1.4428 116.353 1.86656 116.353 2.37103C116.353 2.8755 116.172 3.30935 115.809 3.67257C115.466 4.03579 115.032 4.2174 114.507 4.2174ZM113.236 7.06262H115.778V22.4995H113.236V7.06262Z" fill="#5F6368"/>
<path d="M119.822 7.06262H122.273V9.33274H122.395C122.818 8.56595 123.494 7.92022 124.423 7.39557C125.351 6.85074 126.34 6.57833 127.389 6.57833C129.245 6.57833 130.658 7.12316 131.626 8.21282C132.615 9.2823 133.11 10.7453 133.11 12.6017V22.4995H130.537V12.9952C130.537 11.5625 130.194 10.5233 129.508 9.87757C128.822 9.23185 127.883 8.90899 126.693 8.90899C125.865 8.90899 125.119 9.14105 124.453 9.60516C123.807 10.0693 123.303 10.6847 122.939 11.4515C122.576 12.1981 122.395 12.9851 122.395 13.8125V22.4995H119.822V7.06262Z" fill="#5F6368"/>
<path d="M141.574 22.9838C140.444 22.9838 139.436 22.7618 138.548 22.3179C137.66 21.8739 136.974 21.2686 136.489 20.5018C136.005 19.7148 135.763 18.8269 135.763 17.8381C135.763 16.2037 136.378 14.9324 137.609 14.0243C138.84 13.0961 140.394 12.632 142.271 12.632C143.199 12.632 144.056 12.7329 144.843 12.9347C145.651 13.1365 146.266 13.3685 146.69 13.6308V12.6925C146.69 11.5423 146.286 10.6242 145.479 9.93811C144.672 9.23185 143.653 8.87872 142.422 8.87872C141.554 8.87872 140.757 9.07042 140.031 9.45382C139.304 9.81704 138.729 10.3316 138.306 10.9975L136.368 9.54462C136.974 8.61639 137.801 7.88996 138.85 7.36531C139.92 6.84065 141.1 6.57833 142.392 6.57833C144.49 6.57833 146.135 7.13325 147.325 8.24309C148.536 9.33275 149.142 10.826 149.142 12.7228V22.4995H146.69V20.2899H146.569C146.125 21.0365 145.459 21.6721 144.571 22.1968C143.683 22.7214 142.684 22.9838 141.574 22.9838ZM141.817 20.7136C142.684 20.7136 143.491 20.4917 144.238 20.0477C144.985 19.6038 145.58 19.0085 146.024 18.2619C146.468 17.5153 146.69 16.698 146.69 15.8102C146.206 15.4873 145.61 15.225 144.904 15.0232C144.198 14.8214 143.451 14.7205 142.664 14.7205C141.252 14.7205 140.182 15.0131 139.456 15.5983C138.749 16.1835 138.396 16.9402 138.396 17.8684C138.396 18.7159 138.719 19.402 139.365 19.9267C140.011 20.4513 140.828 20.7136 141.817 20.7136Z" fill="#5F6368"/>
<path d="M152.721 7.06262H155.173V9.33274H155.294C155.717 8.56595 156.393 7.92022 157.322 7.39557C158.25 6.85074 159.239 6.57833 160.288 6.57833C162.144 6.57833 163.557 7.12316 164.525 8.21282C165.514 9.2823 166.009 10.7453 166.009 12.6017V22.4995H163.436V12.9952C163.436 11.5625 163.093 10.5233 162.407 9.87757C161.721 9.23185 160.782 8.90899 159.592 8.90899C158.764 8.90899 158.018 9.14105 157.352 9.60516C156.706 10.0693 156.202 10.6847 155.838 11.4515C155.475 12.1981 155.294 12.9851 155.294 13.8125V22.4995H152.721V7.06262Z" fill="#5F6368"/>
<path d="M176.68 22.9838C175.186 22.9838 173.844 22.6306 172.654 21.9244C171.463 21.1979 170.535 20.2193 169.869 18.9883C169.203 17.7373 168.87 16.3348 168.87 14.781C168.87 13.2273 169.203 11.8248 169.869 10.5737C170.535 9.32266 171.463 8.34398 172.654 7.63772C173.844 6.93146 175.186 6.57833 176.68 6.57833C178.354 6.57833 179.757 6.97182 180.887 7.75879C182.037 8.52559 182.854 9.55471 183.339 10.8462L181.008 11.8147C180.625 10.8663 180.049 10.15 179.283 9.6657C178.536 9.16122 177.628 8.90899 176.559 8.90899C175.65 8.90899 174.803 9.16122 174.016 9.6657C173.229 10.15 172.593 10.8361 172.109 11.7239C171.645 12.6118 171.413 13.6308 171.413 14.781C171.413 15.9312 171.645 16.9503 172.109 17.8381C172.593 18.726 173.229 19.4222 174.016 19.9267C174.803 20.411 175.65 20.6531 176.559 20.6531C177.648 20.6531 178.587 20.4009 179.373 19.8964C180.16 19.3919 180.746 18.6756 181.129 17.7473L183.429 18.7159C182.905 19.9872 182.057 21.0163 180.887 21.8033C179.737 22.5903 178.334 22.9838 176.68 22.9838Z" fill="#5F6368"/>
<path d="M192.934 22.9838C191.461 22.9838 190.139 22.6306 188.969 21.9244C187.799 21.2181 186.881 20.2495 186.215 19.0186C185.569 17.7675 185.246 16.3651 185.246 14.8113C185.246 13.3181 185.549 11.9459 186.154 10.6948C186.78 9.44373 187.657 8.44487 188.787 7.69826C189.917 6.95164 191.229 6.57833 192.722 6.57833C194.236 6.57833 195.547 6.92137 196.657 7.60745C197.767 8.27335 198.615 9.20158 199.2 10.3921C199.805 11.5827 200.108 12.9448 200.108 14.4784C200.108 14.781 200.077 15.0434 200.017 15.2653H187.819C187.879 16.4357 188.162 17.4245 188.666 18.2316C189.171 19.0388 189.806 19.6442 190.573 20.0477C191.36 20.4513 192.177 20.6531 193.025 20.6531C195.003 20.6531 196.526 19.7249 197.595 17.8684L199.775 18.9278C199.109 20.1789 198.201 21.1677 197.051 21.8941C195.921 22.6205 194.548 22.9838 192.934 22.9838ZM197.384 13.1466C197.343 12.5008 197.162 11.8551 196.839 11.2094C196.516 10.5637 196.001 10.0188 195.295 9.57489C194.609 9.13096 193.741 8.90899 192.692 8.90899C191.481 8.90899 190.452 9.30248 189.605 10.0895C188.777 10.8563 188.232 11.8753 187.97 13.1466H197.384Z" fill="#5F6368"/>
<path d="M223 15.02H217.491V20.5288H215.372V15.02H209.864V12.9012H215.372V7.39233H217.491V12.9012H223V15.02Z" fill="#5F6368"/>
</svg>
