<svg width="80" height="80" viewBox="0 0 80 80" fill="none" xmlns="http://www.w3.org/2000/svg">
<circle cx="40" cy="40" r="40" fill="#4285F4" fill-opacity="0.15"/>
<path d="M46.087 47.4534C46.087 48.2919 45.3261 48.9441 44.5652 48.9441H35.4348C34.5788 48.9441 33.913 48.2919 33.913 47.4534V42.9814H15.6522V56.3975C15.6522 58.8199 17.7446 60.8696 20.2174 60.8696H59.7826C62.1603 60.8696 64.3478 58.8199 64.3478 56.3975V42.9814H46.087V47.4534ZM59.7826 28.0745H52.1739V23.6025C52.1739 21.2733 49.9864 19.1304 47.6087 19.1304H32.3913C29.9185 19.1304 27.8261 21.2733 27.8261 23.6025V28.0745H20.2174C17.7446 28.0745 15.6522 30.2174 15.6522 32.5466V40H64.3478V32.5466C64.3478 30.2174 62.1603 28.0745 59.7826 28.0745ZM46.087 28.0745H33.913V25.0932H46.087V28.0745Z" fill="#4285F4"/>
</svg>
