<svg width="46" height="46" viewBox="0 0 46 46" fill="none" xmlns="http://www.w3.org/2000/svg">
<circle cx="23" cy="23" r="23" fill="#1BA160" fill-opacity="0.15"/>
<path d="M23.5562 9C19.2391 9 16.4329 10.8047 14.2204 14.0312C13.8426 14.5781 13.9505 15.3984 14.5441 15.7812L16.8646 17.5859C17.4043 18.0234 18.2137 17.9141 18.6454 17.3672C19.9946 15.6719 21.0199 14.6875 23.1245 14.6875C24.7974 14.6875 26.848 15.7266 26.848 17.3672C26.848 18.625 25.8227 19.2266 24.2038 20.1562C22.2611 21.25 19.7247 22.6172 19.7247 26.0078V26.5C19.7247 27.2656 20.3183 27.8125 21.0199 27.8125H24.9593C25.6608 27.8125 26.2544 27.2656 26.2544 26.5V26.2266C26.2544 23.875 33 23.7656 33 17.4219C33 12.6641 28.0892 9 23.5562 9ZM23.0166 29.4531C20.912 29.4531 19.2391 31.1484 19.2391 33.2266C19.2391 35.3047 20.912 37 23.0166 37C25.0672 37 26.7401 35.3047 26.7401 33.2266C26.7401 31.1484 25.0672 29.4531 23.0166 29.4531Z" fill="#1BA160"/>
</svg>
