<svg width="53" height="53" viewBox="0 0 53 53" fill="none" xmlns="http://www.w3.org/2000/svg">
<path fill-rule="evenodd" clip-rule="evenodd" d="M41.0031 48.6827C36.8362 51.4126 31.8535 53 26.5 53C11.8645 53 0 41.1355 0 26.5C0 11.8645 11.8645 0 26.5 0C41.1355 0 53 11.8645 53 26.5C53 31.3051 51.7211 35.8115 49.4852 39.6973C49.8284 38.4726 50 37.1645 50 35.773C50 33.1824 49.3006 31.0098 47.9017 29.2549C46.5029 27.4582 44.5742 26.2674 42.1156 25.6825C44.0231 25.1811 45.5279 24.1574 46.6301 22.6114C47.7746 21.0236 48.3468 19.1643 48.3468 17.0334C48.3468 13.4819 46.9692 10.5989 44.2139 8.3844C41.501 6.12813 37.9403 5 33.5318 5C28.8689 5 25.1811 6.31616 22.4682 8.94847C19.7553 11.539 18.314 15.1115 18.1445 19.6657H26.7283C26.7707 17.2424 27.3642 15.383 28.5087 14.0877C29.6955 12.7925 31.3487 12.1448 33.4682 12.1448C35.3334 12.1448 36.8169 12.6462 37.9191 13.649C39.0636 14.6518 39.6358 15.9889 39.6358 17.6602C39.6358 21.337 37.0501 23.1755 31.8786 23.1755C31.3276 23.1755 30.8189 23.1546 30.3526 23.1128V29.3802C30.9461 29.3385 31.6879 29.3176 32.578 29.3176C34.9519 29.3176 36.8805 29.8399 38.3642 30.8844C39.8902 31.8872 40.6532 33.5376 40.6532 35.8357C40.6532 37.7995 39.975 39.4081 38.6185 40.6616C37.262 41.8733 35.4817 42.4791 33.2775 42.4791C30.8613 42.4791 28.9961 41.7688 27.6821 40.3482C26.4104 38.8858 25.7533 36.7967 25.711 34.0808H17V34.7075C17 39.3872 18.4837 43.1059 21.4509 45.8635C24.4181 48.6212 28.4239 50 33.4682 50C36.2839 50 38.7955 49.5609 41.0031 48.6827Z" fill="white"/>
</svg>
