<svg width="53" height="51" viewBox="0 0 53 51" fill="none" xmlns="http://www.w3.org/2000/svg">
<path fill-rule="evenodd" clip-rule="evenodd" d="M16.1438 50.9C16.2753 49.5713 16.506 48.3219 16.836 47.152C17.38 45.3387 17.992 43.82 18.672 42.596C19.3973 41.372 20.4853 40.08 21.936 38.72C23.3867 37.36 24.656 36.272 25.744 35.456C26.8773 34.64 28.5093 33.5067 30.64 32.056C30.912 31.8747 31.6373 31.3987 32.816 30.628C33.9947 29.8573 34.8107 29.3133 35.264 28.996C35.7173 28.6787 36.3973 28.1347 37.304 27.364C38.2107 26.548 38.8453 25.8453 39.208 25.256C39.616 24.6667 40.0013 23.9413 40.364 23.08C40.7267 22.1733 40.908 21.244 40.908 20.292C40.908 18.2067 40.2733 16.552 39.004 15.328C37.78 14.0587 36.148 13.424 34.108 13.424C29.212 13.424 26.628 16.8693 26.356 23.76H17.108V22.74C17.108 17.3453 18.672 13.0613 21.8 9.888C24.928 6.66933 29.144 5.06 34.448 5.06C39.2533 5.06 43.152 6.42 46.144 9.14C49.136 11.8147 50.632 15.3053 50.632 19.612C50.632 23.1027 49.8387 25.8907 48.252 27.976C46.6653 30.0613 44.172 32.26 40.772 34.572C40.3187 34.8893 39.48 35.456 38.256 36.272C37.032 37.0427 36.0573 37.6773 35.332 38.176C34.652 38.6747 33.8133 39.3093 32.816 40.08C31.8187 40.8507 30.9573 41.6213 30.232 42.392C29.5067 43.1173 28.8947 43.8653 28.396 44.636H45.822C50.2734 39.8954 53 33.5161 53 26.5C53 11.8645 41.1355 0 26.5 0C11.8645 0 0 11.8645 0 26.5C0 37.4608 6.65448 46.8674 16.1438 50.9Z" fill="white"/>
</svg>
