<svg xmlns="http://www.w3.org/2000/svg" width="141" height="50" viewBox="0 0 141 50">
  <g id="img-logo" transform="translate(-23 -56)">
    <path id="Path_4726" data-name="Path 4726" d="M104.718,196.938c-.23.912-1.03,2.487-3.776,2.525H97.028v-3.9a12.212,12.212,0,0,1-9.723,4.365,9.476,9.476,0,0,1-6.027-1.739,5.706,5.706,0,0,1-2.207-4.749v-11.8c.158-.835.819-2.552,3.513-2.71H86.76v13.118q0,3.5,3.248,3.495,3.642,0,7.02-3.72v-9.9c.056-.612.491-2.814,3.558-2.992h4.131v18.009m21.715-18.469c3.414,0,6.09.9,8.05,2.7a9.686,9.686,0,0,1,2.934,7.461,10.653,10.653,0,0,1-3.312,8.219,12.456,12.456,0,0,1-8.837,3.074,13.03,13.03,0,0,1-8.116-2.566l-.234-.183a3.363,3.363,0,0,1-.748,1.585,3.124,3.124,0,0,1-1.991.7h-4.721V173.1s0-3.165,3.946-3.177h3.747v12.925q2.942-4.383,9.281-4.381m1.1,15.883a7.809,7.809,0,0,0,1.674-5.241q0-6.26-5.579-6.261-3.369,0-6.479,3.158v8.058a9.259,9.259,0,0,0,5.91,2.24,5.586,5.586,0,0,0,4.475-1.955M141.212,173v26.462h7.7V169.928h-3.753c-3.537.01-3.907,2.541-3.944,3.073m13.753,2.609h7.694V171h-7.694Zm7.694,20.678v-17.36h-7.694v20.534h3.819c3.866-.059,3.875-3.174,3.875-3.174m20.82-.133a9.031,9.031,0,0,1-6.037-1.919,6.357,6.357,0,0,1-2.266-5.115,6.422,6.422,0,0,1,2.094-5.012,7.968,7.968,0,0,1,5.523-1.874,35.685,35.685,0,0,1,7.522,1.078v-4a44.665,44.665,0,0,0-8.023-.844q-7.171,0-11.254,2.838a9.067,9.067,0,0,0-4.069,7.869,9.231,9.231,0,0,0,3.952,7.86q3.968,2.884,10.792,2.888a40.645,40.645,0,0,0,8.854-1.073v-3.776a24.743,24.743,0,0,1-7.087,1.08M72.985,173.466a5.983,5.983,0,0,1,3,5.662,7.832,7.832,0,0,1-4.012,6.992q-4.011,2.5-11.222,2.5H57.43v10.846H49.566V174.931l.013-.012a3.317,3.317,0,0,1,3.367-3.147H62.972q7.005,0,10.013,1.693m-7.568,10a4.2,4.2,0,0,0,2.359-3.759q0-4.159-7.247-4.157h-3.1v9.306h1.551a12.7,12.7,0,0,0,6.436-1.389" transform="translate(-26.566 -103.926)" fill="#ffffff"/>
  </g>
</svg>
