<svg version="1.1" xmlns="http://www.w3.org/2000/svg" xmlns:xlink="http://www.w3.org/1999/xlink" x="0px" y="0px" viewBox="0 0 64 64">

    <symbol id="share_facebook" viewBox="0 0 18 18" xmlns="http://www.w3.org/2000/svg">
        <path d="M18 9C18 4.02891 13.9711 0 9 0C4.02891 0 0 4.02891 0 9C0 13.9711 4.02891 18 9 18C9.05273 18 9.10547 18 9.1582 17.9965V10.9934H7.22461V8.73984H9.1582V7.08047C9.1582 5.15742 10.3324 4.10977 12.048 4.10977C12.8707 4.10977 13.5773 4.16953 13.7812 4.19766V6.20859H12.6C11.6684 6.20859 11.4855 6.65156 11.4855 7.30195V8.73633H13.718L13.4262 10.9898H11.4855V17.652C15.2473 16.5727 18 13.1098 18 9Z"/>
    </symbol>

    <symbol id="share_telegram" viewBox="0 0 18 18" xmlns="http://www.w3.org/2000/svg">
        <path fill-rule="evenodd" clip-rule="evenodd" d="M18 9C18 13.9706 13.9706 18 9 18C4.02944 18 0 13.9706 0 9C0 4.02944 4.02944 0 9 0C13.9706 0 18 4.02944 18 9ZM12.7957 5.45925L4.11824 8.80501C3.52349 9.03751 3.53399 9.36676 4.01624 9.51976L6.23774 10.2128L11.391 6.96825C11.6302 6.80925 11.8522 6.89925 11.6707 7.059L7.50074 10.8263L7.34099 13.116C7.57349 13.116 7.67474 13.0148 7.79474 12.8948L8.87999 11.8493L11.13 13.5075C11.5402 13.74 11.8335 13.62 11.943 13.1265L13.4205 6.16575L13.4197 6.1665C13.5502 5.5575 13.1985 5.31375 12.7957 5.45925Z"/>
    </symbol>

    <symbol id="share_twitter" viewBox="0 0 18 18" xmlns="http://www.w3.org/2000/svg">
        <path fill-rule="evenodd" clip-rule="evenodd" d="M18 9C18 13.9706 13.9706 18 9 18C4.02944 18 0 13.9706 0 9C0 4.02944 4.02944 0 9 0C13.9706 0 18 4.02944 18 9ZM12.7422 6.28528C13.1464 6.23392 13.5341 6.12812 13.898 5.96851C13.6252 6.37457 13.2907 6.72743 12.8926 7.00996C12.8969 7.09497 12.8999 7.18058 12.8999 7.26926C12.8999 9.91968 10.8818 12.9774 7.19057 12.9774C6.05493 12.9774 5.00185 12.6502 4.11328 12.0772C4.27106 12.0974 4.42884 12.1047 4.59334 12.1047C5.53145 12.1047 6.39801 11.783 7.08049 11.2492C6.20354 11.2302 5.46601 10.6462 5.20611 9.8518C5.32781 9.87871 5.45745 9.88604 5.58588 9.88604C5.77056 9.88604 5.94852 9.86464 6.1118 9.82C5.19999 9.63348 4.50467 8.8238 4.50467 7.849V7.82698C4.77252 7.97436 5.08869 8.06793 5.41098 8.07405C4.87771 7.71752 4.51996 7.10169 4.51996 6.40698C4.51996 6.037 4.62147 5.69331 4.79454 5.39305C5.78585 6.61063 7.2615 7.40991 8.92918 7.49125C8.89616 7.3457 8.8827 7.19281 8.8827 7.03381C8.8827 5.92876 9.77678 5.02734 10.8873 5.02734C11.4597 5.02734 11.9845 5.27013 12.3526 5.66212C12.8088 5.571 13.2369 5.40772 13.6246 5.17656C13.4754 5.64684 13.158 6.037 12.7422 6.28528Z"/>
    </symbol>

    <symbol id="share_facebook_color" viewBox="0 0 18 18" fill="none" xmlns="http://www.w3.org/2000/svg">
        <path d="M18 9C18 4.02891 13.9711 0 9 0C4.02891 0 0 4.02891 0 9C0 13.9711 4.02891 18 9 18C9.05273 18 9.10547 18 9.1582 17.9965V10.9934H7.22461V8.73984H9.1582V7.08047C9.1582 5.15742 10.3324 4.10977 12.048 4.10977C12.8707 4.10977 13.5773 4.16953 13.7812 4.19766V6.20859H12.6C11.6684 6.20859 11.4855 6.65156 11.4855 7.30195V8.73633H13.718L13.4262 10.9898H11.4855V17.652C15.2473 16.5727 18 13.1098 18 9Z" fill="#4267B2"/>
    </symbol>

    <symbol id="share_telegram_color" viewBox="0 0 18 18" fill="none" xmlns="http://www.w3.org/2000/svg">
        <path fill-rule="evenodd" clip-rule="evenodd" d="M18 9C18 13.9706 13.9706 18 9 18C4.02944 18 0 13.9706 0 9C0 4.02944 4.02944 0 9 0C13.9706 0 18 4.02944 18 9ZM12.7957 5.45925L4.11824 8.80501C3.52349 9.03751 3.53399 9.36676 4.01624 9.51976L6.23774 10.2128L11.391 6.96825C11.6302 6.80925 11.8522 6.89925 11.6707 7.059L7.50074 10.8263L7.34099 13.116C7.57349 13.116 7.67474 13.0148 7.79474 12.8948L8.87999 11.8493L11.13 13.5075C11.5402 13.74 11.8335 13.62 11.943 13.1265L13.4205 6.16575L13.4197 6.1665C13.5502 5.5575 13.1985 5.31375 12.7957 5.45925Z" fill="#039BE5"/>
    </symbol>

    <symbol id="share_vkontakte_color" viewBox="0 0 18 18" fill="none" xmlns="http://www.w3.org/2000/svg">
        <path fill-rule="evenodd" clip-rule="evenodd" d="M18 9C18 13.9706 13.9706 18 9 18C4.02944 18 0 13.9706 0 9C0 4.02944 4.02944 0 9 0C13.9706 0 18 4.02944 18 9ZM12.3626 8.93532C12.2449 9.12139 12.1978 9.214 12.3626 9.42216C12.375 9.43923 12.4374 9.50189 12.5318 9.59662C12.9307 9.99693 13.9002 10.9699 14.0717 11.4944C14.1643 11.8028 14.0033 11.9592 13.6855 11.9592H12.5708C12.2733 11.9592 12.1233 11.7954 11.7986 11.4411C11.6605 11.2904 11.4909 11.1052 11.2649 10.8835C10.6022 10.2569 10.3184 10.1754 10.1536 10.1754C9.85157 10.1754 9.85233 10.2599 9.85942 11.0459C9.86068 11.1853 9.86213 11.3469 9.86213 11.5339C9.86213 11.8028 9.77547 11.9592 9.0656 11.9592C7.8846 11.9592 6.58635 11.2553 5.66449 9.95616C4.28128 8.05297 3.90234 6.61241 3.90234 6.32269C3.90234 6.15871 3.96649 6.01214 4.28468 6.01214H5.39983C5.68574 6.01214 5.79321 6.13449 5.90324 6.43739C6.44829 7.99859 7.36802 9.36269 7.74696 9.36269C7.88927 9.36269 7.95342 9.29769 7.95342 8.94424V7.3312C7.92768 6.87161 7.76443 6.67293 7.64353 6.52577C7.56885 6.43489 7.51033 6.36367 7.51033 6.26279C7.51033 6.14171 7.61612 6.01172 7.79411 6.01172H9.54692C9.78184 6.01172 9.86129 6.13619 9.86129 6.41487V8.58357C9.86129 8.81594 9.96961 8.89751 10.0393 8.89751C10.1807 8.89751 10.3005 8.81594 10.5597 8.56148C11.3626 7.68083 11.9302 6.32226 11.9302 6.32226C12.0003 6.15828 12.1311 6.01172 12.4149 6.01172H13.5296C13.8665 6.01172 13.9362 6.1825 13.8665 6.41487L13.8656 6.4153C13.7254 7.05295 12.3647 8.9332 12.3626 8.93532Z" fill="#4B729F"/>
    </symbol>

    <symbol id="share_twitter_color" viewBox="0 0 18 18" fill="none" xmlns="http://www.w3.org/2000/svg">
        <path fill-rule="evenodd" clip-rule="evenodd" d="M18 9C18 13.9706 13.9706 18 9 18C4.02944 18 0 13.9706 0 9C0 4.02944 4.02944 0 9 0C13.9706 0 18 4.02944 18 9ZM12.7422 6.28528C13.1464 6.23392 13.5341 6.12812 13.898 5.96851C13.6252 6.37457 13.2907 6.72743 12.8926 7.00996C12.8969 7.09497 12.8999 7.18058 12.8999 7.26926C12.8999 9.91968 10.8818 12.9774 7.19057 12.9774C6.05493 12.9774 5.00185 12.6502 4.11328 12.0772C4.27106 12.0974 4.42884 12.1047 4.59334 12.1047C5.53145 12.1047 6.39801 11.783 7.08049 11.2492C6.20354 11.2302 5.46601 10.6462 5.20611 9.8518C5.32781 9.87871 5.45745 9.88604 5.58588 9.88604C5.77056 9.88604 5.94852 9.86464 6.1118 9.82C5.19999 9.63348 4.50467 8.8238 4.50467 7.849V7.82698C4.77252 7.97436 5.08869 8.06793 5.41098 8.07405C4.87771 7.71752 4.51996 7.10169 4.51996 6.40698C4.51996 6.037 4.62147 5.69331 4.79454 5.39305C5.78585 6.61063 7.2615 7.40991 8.92918 7.49125C8.89616 7.3457 8.88271 7.19281 8.88271 7.03381C8.88271 5.92876 9.77678 5.02734 10.8873 5.02734C11.4597 5.02734 11.9845 5.27013 12.3526 5.66212C12.8088 5.571 13.2369 5.40772 13.6246 5.17656C13.4754 5.64684 13.158 6.037 12.7422 6.28528Z" fill="#03A9F4"/>
    </symbol>

    <symbol id="share_odnoklassniki_color" viewBox="0 0 18 18" fill="none" xmlns="http://www.w3.org/2000/svg">
        <path fill-rule="evenodd" clip-rule="evenodd" d="M8.99159 17.9832C13.9575 17.9832 17.9832 13.9575 17.9832 8.99159C17.9832 4.02567 13.9575 0 8.99159 0C4.02567 0 0 4.02567 0 8.99159C0 13.9575 4.02567 17.9832 8.99159 17.9832ZM8.9754 9.41084C10.4975 9.41084 11.7315 8.17691 11.7315 6.65476C11.7315 5.13261 10.4976 3.8987 8.9754 3.8987C7.45325 3.8987 6.21934 5.13263 6.21934 6.65478C6.22121 8.17613 7.45405 9.40897 8.9754 9.41084ZM8.9754 5.17073C9.79501 5.17073 10.4594 5.83515 10.4594 6.65478C10.4594 7.4744 9.79503 8.13882 8.9754 8.13882C8.15578 8.13882 7.49136 7.4744 7.49136 6.65478C7.49136 5.83515 8.15579 5.17073 8.9754 5.17073ZM12.1556 9.82654C12.1552 10.1852 11.9747 10.5197 11.6752 10.717C11.2915 10.972 10.8737 11.1715 10.4341 11.3093C10.3589 11.3322 10.2816 11.3538 10.2022 11.3742L11.4815 12.6258C11.4849 12.6291 11.4882 12.6324 11.4916 12.6358C11.4952 12.6394 11.4987 12.643 11.5023 12.6466C11.8281 12.983 11.8196 13.5199 11.4832 13.8457C11.1468 14.1716 10.6099 14.163 10.2841 13.8266L8.97554 12.4723L7.66958 13.8241C7.66283 13.8311 7.65595 13.838 7.64895 13.8448C7.3128 14.171 6.77594 14.1628 6.4498 13.8267C6.12366 13.4905 6.13179 12.9537 6.46793 12.6275L7.74928 11.3746C7.66984 11.3548 7.59282 11.3333 7.51819 11.3101C7.07817 11.1718 6.65991 10.9719 6.27583 10.7165C5.97647 10.5191 5.79606 10.1847 5.79542 9.8261C5.7917 9.52856 5.95975 9.25554 6.22706 9.12479C6.50202 8.98857 6.83034 9.01943 7.07509 9.20452C8.20765 10.0302 9.74377 10.0302 10.8763 9.20452C11.1207 9.01846 11.4496 8.98755 11.7244 9.12479C11.9918 9.25556 12.1598 9.52888 12.1556 9.82654Z" fill="#FF9800"/>
    </symbol>

    <symbol id="share_more" viewBox="0 0 18 18" xmlns="http://www.w3.org/2000/svg">
        <path fill-rule="evenodd" clip-rule="evenodd" d="M4.5 7.5C3.675 7.5 3 8.175 3 9C3 9.825 3.675 10.5 4.5 10.5C5.325 10.5 6 9.825 6 9C6 8.175 5.325 7.5 4.5 7.5ZM13.5 7.5C12.675 7.5 12 8.175 12 9C12 9.825 12.675 10.5 13.5 10.5C14.325 10.5 15 9.825 15 9C15 8.175 14.325 7.5 13.5 7.5ZM9 7.5C8.175 7.5 7.5 8.175 7.5 9C7.5 9.825 8.175 10.5 9 10.5C9.825 10.5 10.5 9.825 10.5 9C10.5 8.175 9.825 7.5 9 7.5Z"/>
    </symbol>

    <symbol id="icon_18" viewBox="0 0 64 64">
        <path d="M20.2457 42.8985V25.523H16.229V21.0703H25.7884V42.8985H20.2457Z" fill="black"/>
        <path d="M46.6192 26.7054C46.6192 28.6048 45.5916 30.2862 43.8791 31.2205C46.2765 32.2167 47.7713 34.3032 47.7713 36.7319C47.7713 40.6552 44.2837 43.1464 38.8346 43.1464C33.3853 43.1464 29.8979 40.6863 29.8979 36.8255C29.8979 34.3343 31.5171 32.2167 34.0392 31.2205C32.2021 30.1928 31.0189 28.4493 31.0189 26.5499C31.0189 23.0621 34.0706 20.8516 38.8035 20.8516C43.5986 20.8516 46.6192 23.1246 46.6192 26.7054ZM35.129 36.265C35.129 38.1023 36.437 39.1299 38.8346 39.1299C41.2322 39.1299 42.5711 38.1336 42.5711 36.265C42.5711 34.4592 41.2322 33.4313 38.8346 33.4313C36.4368 33.4313 35.129 34.459 35.129 36.265ZM35.6897 27.0168C35.6897 28.574 36.8107 29.4455 38.8346 29.4455C40.8585 29.4455 41.9795 28.5739 41.9795 27.0168C41.9795 25.398 40.8585 24.4948 38.8346 24.4948C36.8105 24.4948 35.6897 25.398 35.6897 27.0168Z" fill="black"/>
        <path d="M56.9939 23.5345C57.9153 26.2542 58.3828 29.0988 58.3828 32C58.3828 46.5474 46.5474 58.3828 31.9998 58.3828C17.4522 58.3828 5.61662 46.5474 5.61662 32C5.61662 17.4522 17.452 5.6172 31.9996 5.6172C34.9012 5.6172 37.7458 6.08427 40.4651 7.00613V1.13496C37.7184 0.382018 34.8816 0 31.9998 0C14.3552 0 0 14.3552 0 32C0 49.6448 14.3552 64 31.9998 64C49.6444 64 63.9994 49.6448 63.9994 32C63.9994 29.1184 63.6176 26.2814 62.8646 23.5345H56.9939Z" fill="black"/>
        <path d="M55.3975 8.58408V2.44824H50.9853V8.58408H44.8862V12.9959H50.9853V19.1315H55.3975V12.9959H61.5329V8.58408H55.3975Z" fill="#E51A4B"/>
    </symbol>

    <symbol id="icon_zap" viewBox="0 0 24 24">
        <path fill-rule="evenodd" clip-rule="evenodd" d="M13.3982 1.08275C13.8054 1.25952 14.0474 1.68359 13.9923 2.12409L13.1328 9.00006H21C21.388 9.00006 21.741 9.22452 21.9056 9.5759C22.0702 9.92729 22.0166 10.3422 21.7682 10.6402L11.7682 22.6402C11.484 22.9813 11.009 23.0941 10.6018 22.9174C10.1946 22.7406 9.95267 22.3165 10.0077 21.876L10.8672 15.0001H3.00001C2.61199 15.0001 2.259 14.7756 2.09442 14.4242C1.92984 14.0728 1.98339 13.658 2.23179 13.3599L12.2318 1.35987C12.516 1.01884 12.991 0.905986 13.3982 1.08275ZM5.13505 13.0001H12C12.2868 13.0001 12.5599 13.1232 12.7497 13.3383C12.9395 13.5533 13.0279 13.8395 12.9923 14.1241L12.4154 18.7396L18.865 11.0001H12C11.7132 11.0001 11.4402 10.8769 11.2503 10.6619C11.0605 10.4468 10.9722 10.1606 11.0077 9.87602L11.5847 5.26051L5.13505 13.0001Z" fill="#E31E27"/>
    </symbol>


    <symbol id="icon_hot" viewBox="0 0 31 18">
        <rect width="31" height="18" rx="4" fill="#E51A4B"/>
        <path d="M11.4307 13H10.5322V9.66992H6.87012V13H5.97168V5.86133H6.87012V8.87891H10.5322V5.86133H11.4307V13ZM19.6143 9.4209C19.6143 10.5635 19.3245 11.4619 18.7451 12.1162C18.1689 12.7705 17.3617 13.0977 16.3232 13.0977C15.2718 13.0977 14.458 12.777 13.8818 12.1357C13.3089 11.4912 13.0225 10.583 13.0225 9.41113C13.0225 8.24902 13.3073 7.34896 13.877 6.71094C14.4499 6.06966 15.2686 5.74902 16.333 5.74902C17.3682 5.74902 18.1738 6.07454 18.75 6.72559C19.3262 7.37337 19.6143 8.27181 19.6143 9.4209ZM13.9697 9.4209C13.9697 10.3649 14.1699 11.0843 14.5703 11.5791C14.9707 12.0739 15.555 12.3213 16.3232 12.3213C17.0882 12.3213 17.6693 12.0771 18.0664 11.5889C18.4635 11.1006 18.6621 10.3779 18.6621 9.4209C18.6621 8.46712 18.4652 7.74935 18.0713 7.26758C17.6774 6.78255 17.098 6.54004 16.333 6.54004C15.5583 6.54004 14.9707 6.78581 14.5703 7.27734C14.1699 7.76562 13.9697 8.48014 13.9697 9.4209ZM23.3105 13H22.4072V6.65234H20.1758V5.86133H25.5273V6.65234H23.3105V13Z" fill="white"/>
    </symbol>


    <symbol id="icon__" viewBox="0 0 512 512">

    </symbol>
</svg>








