<svg id="Layer_2" data-name="Layer 2" xmlns="http://www.w3.org/2000/svg" xmlns:xlink="http://www.w3.org/1999/xlink" viewBox="0 0 2210.75 1916.73"><defs><style>.cls-1{fill:url(#linear-gradient);}.cls-2{fill:url(#linear-gradient-2);}.cls-3{fill:#f9f9f9;}.cls-4{fill:#666c82;}.cls-5{fill:#f1f4f9;}.cls-6{fill:#5c5a6c;}.cls-7,.cls-9{fill:#819dc5;}.cls-8{fill:#fff;}.cls-9{opacity:0.5;}.cls-10{fill:#f3a33a;}.cls-11{fill:#60b8eb;}.cls-12{fill:#484b56;}.cls-13{fill:#262a35;}.cls-14{fill:#7c5032;}.cls-15,.cls-22{fill:#323644;}.cls-16{fill:url(#linear-gradient-3);}.cls-17{fill:#bbe7f9;}.cls-18{fill:#cad4d8;}.cls-19{fill:#ffb39f;}.cls-20{fill:url(#linear-gradient-4);}.cls-21{fill:#f2a697;}.cls-22{opacity:0.2;}.cls-23{fill:#244259;opacity:0.3;}.cls-24{fill:url(#linear-gradient-5);}.cls-25{fill:url(#linear-gradient-6);}.cls-26{fill:url(#linear-gradient-7);}.cls-27{fill:url(#linear-gradient-8);}.cls-28{fill:url(#linear-gradient-9);}.cls-29{fill:url(#linear-gradient-10);}.cls-30{fill:#e4e8ea;}.cls-31{fill:url(#linear-gradient-11);}.cls-32{fill:url(#linear-gradient-12);}.cls-33{fill:url(#linear-gradient-13);}.cls-34{fill:url(#linear-gradient-14);}.cls-35{fill:url(#linear-gradient-15);}.cls-36{fill:url(#linear-gradient-16);}.cls-37{fill:url(#linear-gradient-17);}.cls-38{fill:url(#linear-gradient-18);}.cls-39{fill:url(#linear-gradient-19);}.cls-40{fill:url(#linear-gradient-20);}.cls-41{fill:url(#linear-gradient-21);}.cls-42{fill:#d1cccb;}.cls-43{fill:#e59989;}.cls-44{fill:url(#linear-gradient-22);}.cls-45{fill:url(#linear-gradient-23);}.cls-46{fill:url(#linear-gradient-24);}.cls-47{fill:url(#linear-gradient-25);}.cls-48{fill:url(#linear-gradient-26);}</style><linearGradient id="linear-gradient" x1="1655.27" y1="870.34" x2="2605.38" y2="870.34" gradientUnits="userSpaceOnUse"><stop offset="0" stop-color="#42b7e9"/><stop offset="1" stop-color="#30718b"/></linearGradient><linearGradient id="linear-gradient-2" x1="1652.95" y1="878.48" x2="2569.84" y2="878.48" gradientUnits="userSpaceOnUse"><stop offset="0" stop-color="#42b7e9"/><stop offset="1" stop-color="#bbe7f9"/></linearGradient><linearGradient id="linear-gradient-3" x1="782.22" y1="1133.04" x2="990.18" y2="1133.04" xlink:href="#linear-gradient"/><linearGradient id="linear-gradient-4" x1="1210.64" y1="729.08" x2="1739.84" y2="729.08" xlink:href="#linear-gradient"/><linearGradient id="linear-gradient-5" x1="1655.55" y1="1319.15" x2="527.75" y2="822.75" gradientUnits="userSpaceOnUse"><stop offset="0" stop-color="#5fc3ed"/><stop offset="1" stop-color="#bbe7f9"/></linearGradient><linearGradient id="linear-gradient-6" x1="1700.23" y1="1340.68" x2="1375.28" y2="1197.65" xlink:href="#linear-gradient"/><linearGradient id="linear-gradient-7" x1="1243.8" y1="1365.38" x2="417.93" y2="1001.87" xlink:href="#linear-gradient"/><linearGradient id="linear-gradient-8" x1="1216" y1="1121.02" x2="1652.44" y2="1121.02" gradientUnits="userSpaceOnUse"><stop offset="0" stop-color="#42b7e9"/><stop offset="1" stop-color="#fff"/></linearGradient><linearGradient id="linear-gradient-9" x1="1246.53" y1="1106.94" x2="1579.16" y2="1106.94" gradientUnits="userSpaceOnUse"><stop offset="0" stop-color="#3da3ce"/><stop offset="1" stop-color="#30718b"/></linearGradient><linearGradient id="linear-gradient-10" x1="1889.02" y1="1443.41" x2="2364.65" y2="1443.41" xlink:href="#linear-gradient"/><linearGradient id="linear-gradient-11" x1="524.27" y1="1269.53" x2="813.21" y2="1269.53" xlink:href="#linear-gradient"/><linearGradient id="linear-gradient-12" x1="1907.9" y1="1731.23" x2="2147.74" y2="1731.23" xlink:href="#linear-gradient"/><linearGradient id="linear-gradient-13" x1="1909.12" y1="1582.1" x2="2466.71" y2="1582.1" xlink:href="#linear-gradient"/><linearGradient id="linear-gradient-14" x1="1737.4" y1="1690.5" x2="1793.29" y2="1690.5" xlink:href="#linear-gradient"/><linearGradient id="linear-gradient-15" x1="1969.22" y1="1601.74" x2="2052.92" y2="1601.74" xlink:href="#linear-gradient"/><linearGradient id="linear-gradient-16" x1="1344.52" y1="1627.3" x2="1540.02" y2="1627.3" xlink:href="#linear-gradient"/><linearGradient id="linear-gradient-17" x1="1619" y1="1544.33" x2="1858.85" y2="1544.33" gradientTransform="matrix(-1, 0, 0, 1, 2575.41, 0)" xlink:href="#linear-gradient"/><linearGradient id="linear-gradient-18" x1="1620.22" y1="1395.2" x2="2177.8" y2="1395.2" gradientTransform="matrix(-1, 0, 0, 1, 2575.41, 0)" xlink:href="#linear-gradient"/><linearGradient id="linear-gradient-19" x1="1843.12" y1="1795.24" x2="1899.01" y2="1795.24" gradientTransform="matrix(-1, 0, 0, 1, 2180.78, -291.63)" xlink:href="#linear-gradient"/><linearGradient id="linear-gradient-20" x1="2074.95" y1="1706.47" x2="2158.65" y2="1706.47" gradientTransform="matrix(-1, 0, 0, 1, 2180.78, -291.63)" xlink:href="#linear-gradient"/><linearGradient id="linear-gradient-21" x1="1450.24" y1="1732.04" x2="1645.74" y2="1732.04" gradientTransform="matrix(-1, 0, 0, 1, 2180.78, -291.63)" xlink:href="#linear-gradient"/><linearGradient id="linear-gradient-22" x1="1071.53" y1="1760.61" x2="1311.37" y2="1760.61" gradientTransform="matrix(-1, 0, 0, 1, 2575.41, 0)" xlink:href="#linear-gradient"/><linearGradient id="linear-gradient-23" x1="1072.74" y1="1611.47" x2="1630.33" y2="1611.47" gradientTransform="matrix(-1, 0, 0, 1, 2575.41, 0)" xlink:href="#linear-gradient"/><linearGradient id="linear-gradient-24" x1="1295.65" y1="2011.51" x2="1351.54" y2="2011.51" gradientTransform="matrix(-1, 0, 0, 1, 2180.78, -291.63)" xlink:href="#linear-gradient"/><linearGradient id="linear-gradient-25" x1="1527.47" y1="1922.74" x2="1611.18" y2="1922.74" gradientTransform="matrix(-1, 0, 0, 1, 2180.78, -291.63)" xlink:href="#linear-gradient"/><linearGradient id="linear-gradient-26" x1="902.77" y1="1948.31" x2="1098.27" y2="1948.31" gradientTransform="matrix(-1, 0, 0, 1, 2180.78, -291.63)" xlink:href="#linear-gradient"/></defs><path class="cls-1" d="M1655.27,315l33.25,762.55s-1.81,30.74,21.69,38l847.22,333.57,25.46-10.84s22.49-10.07,22.31-40.69V623.25s3.62-16.52-21.69-29.17l-873.29-302s-12-2.21-22.31,2.67C1684.59,296.39,1655.27,307.71,1655.27,315Z" transform="translate(-394.62 -291.63)"/><path class="cls-2" d="M1653,328v767.31s-1.81,30.73,21.7,38l875.09,314.58s18.08,10.85,19.89-32.54V641s3.63-16.51-21.68-29.17L1674.69,309.9S1653,299.05,1653,328Z" transform="translate(-394.62 -291.63)"/><polygon class="cls-3" points="2152.98 782.55 1330.46 513.16 1330.46 91.96 2152.98 361.35 2152.98 782.55"/><polygon class="cls-3" points="1330.46 829.53 1293.02 817.28 1293.02 79.69 1330.46 91.96 1330.46 829.53"/><polygon class="cls-4" points="1330.46 226.42 1293.02 214.15 1293.02 180.71 1330.46 192.98 1330.46 226.42"/><polygon class="cls-5" points="2152.98 1098.92 1330.46 829.53 1330.46 513.16 2152.98 782.55 2152.98 1098.92"/><polygon class="cls-5" points="2152.98 444.62 1330.46 175.24 1330.46 128.12 2152.98 397.5 2152.98 444.62"/><polygon class="cls-5" points="1534.59 565.98 1344.07 503.59 1344.07 190.74 1534.59 253.13 1534.59 565.98"/><path class="cls-6" d="M1788.12,518.69c0,2.76-2.24,4.26-5,3.36l-29-9.48a7.56,7.56,0,0,1-5-6.64h0c0-2.76,2.24-4.26,5-3.36l29,9.48a7.58,7.58,0,0,1,5,6.64Z" transform="translate(-394.62 -291.63)"/><path class="cls-7" d="M1819.22,528.54c0,3.52-2.85,5.44-6.37,4.29l-13.78-4.52a9.59,9.59,0,0,1-6.37-8.46h0c0-3.52,2.84-5.43,6.37-4.28l13.78,4.52a9.6,9.6,0,0,1,6.37,8.45Z" transform="translate(-394.62 -291.63)"/><polygon class="cls-8" points="1526.8 348.77 1348.11 290.24 1348.11 226.57 1526.8 285.08 1526.8 348.77"/><path class="cls-7" d="M1790.28,545.47c0,2.21-1.8,3.42-4,2.69l-30.13-9.87a6,6,0,0,1-4-5.3h0c0-2.21,1.79-3.42,4-2.69l30.13,9.87a6.05,6.05,0,0,1,4,5.3Z" transform="translate(-394.62 -291.63)"/><path class="cls-7" d="M1916.65,586.87c0,2.2-1.79,3.4-4,2.68l-17.81-5.82a6.07,6.07,0,0,1-4-5.32h0c0-2.19,1.79-3.4,4-2.68l17.81,5.83a6,6,0,0,1,4,5.31Z" transform="translate(-394.62 -291.63)"/><path class="cls-9" d="M1916.65,624.56c0,1.76-1.79,2.59-4,1.86l-17.81-5.83c-2.21-.73-4-2.71-4-4.46h0c0-1.75,1.79-2.58,4-1.86l17.81,5.83c2.2.72,4,2.72,4,4.46Z" transform="translate(-394.62 -291.63)"/><path class="cls-9" d="M1847.36,577.4c0,1.7-1.74,2.5-3.89,1.8L1756,550.55c-2.15-.69-3.89-2.62-3.89-4.33h0c0-1.7,1.74-2.51,3.89-1.81l87.44,28.65c2.15.7,3.89,2.65,3.89,4.34Z" transform="translate(-394.62 -291.63)"/><path class="cls-9" d="M1847.36,589.68c0,1.71-1.74,2.5-3.89,1.8L1756,562.84c-2.15-.71-3.89-2.64-3.89-4.33h0c0-1.7,1.74-2.51,3.89-1.81l87.44,28.63c2.15.72,3.89,2.66,3.89,4.35Z" transform="translate(-394.62 -291.63)"/><path class="cls-9" d="M1847.36,602c0,1.7-1.74,2.51-3.89,1.81L1756,575.12c-2.15-.7-3.89-2.64-3.89-4.34h0c0-1.69,1.74-2.5,3.89-1.8l87.44,28.64c2.15.7,3.89,2.65,3.89,4.34Z" transform="translate(-394.62 -291.63)"/><path class="cls-9" d="M1915.63,599.76c0,1.69-1.74,2.5-3.89,1.81l-37-12.12c-2.14-.7-3.88-2.65-3.88-4.34h0c0-1.71,1.74-2.51,3.88-1.81l37,12.13c2.15.68,3.89,2.63,3.89,4.33Z" transform="translate(-394.62 -291.63)"/><polygon class="cls-10" points="1526.8 346.31 1348.11 287.79 1348.11 290.24 1526.8 348.77 1526.8 346.31"/><polygon class="cls-8" points="1526.8 419.38 1348.11 360.87 1348.11 297.2 1526.8 355.71 1526.8 419.38"/><path class="cls-7" d="M1790.28,616.1c0,2.2-1.8,3.41-4,2.68l-30.13-9.87a6,6,0,0,1-4-5.3h0c0-2.2,1.79-3.41,4-2.7l30.13,9.89a6,6,0,0,1,4,5.3Z" transform="translate(-394.62 -291.63)"/><path class="cls-7" d="M1916.65,657.49c0,2.21-1.79,3.41-4,2.69l-17.81-5.84a6,6,0,0,1-4-5.3h0c0-2.2,1.79-3.42,4-2.69l17.81,5.83a6,6,0,0,1,4,5.31Z" transform="translate(-394.62 -291.63)"/><path class="cls-9" d="M1916.65,695.19c0,1.74-1.79,2.58-4,1.85l-17.81-5.82c-2.21-.72-4-2.73-4-4.48h0c0-1.74,1.79-2.58,4-1.85l17.81,5.83c2.2.73,4,2.72,4,4.47Z" transform="translate(-394.62 -291.63)"/><path class="cls-9" d="M1847.36,648c0,1.69-1.74,2.5-3.89,1.79L1756,621.19c-2.15-.7-3.89-2.65-3.89-4.34h0c0-1.7,1.74-2.51,3.89-1.81l87.44,28.64c2.15.7,3.89,2.65,3.89,4.35Z" transform="translate(-394.62 -291.63)"/><path class="cls-9" d="M1847.36,660.31c0,1.7-1.74,2.51-3.89,1.8L1756,633.47c-2.15-.7-3.89-2.65-3.89-4.35h0c0-1.69,1.74-2.49,3.89-1.8L1843.47,656c2.15.7,3.89,2.64,3.89,4.34Z" transform="translate(-394.62 -291.63)"/><path class="cls-9" d="M1847.36,672.59c0,1.69-1.74,2.5-3.89,1.81L1756,645.75c-2.15-.71-3.89-2.65-3.89-4.34h0c0-1.71,1.74-2.5,3.89-1.8l87.44,28.64c2.15.7,3.89,2.64,3.89,4.34Z" transform="translate(-394.62 -291.63)"/><path class="cls-9" d="M1915.63,670.38c0,1.7-1.74,2.5-3.89,1.81l-37-12.13c-2.14-.69-3.88-2.64-3.88-4.33h0c0-1.71,1.74-2.52,3.88-1.81l37,12.11c2.15.71,3.89,2.65,3.89,4.35Z" transform="translate(-394.62 -291.63)"/><polygon class="cls-10" points="1526.8 416.94 1348.11 358.42 1348.11 360.87 1526.8 419.38 1526.8 416.94"/><polygon class="cls-8" points="1526.8 490.01 1348.11 431.49 1348.11 367.81 1526.8 426.34 1526.8 490.01"/><path class="cls-7" d="M1790.28,686.72c0,2.21-1.8,3.42-4,2.69l-30.13-9.87a6,6,0,0,1-4-5.31h0c0-2.2,1.79-3.4,4-2.67l30.13,9.85a6.08,6.08,0,0,1,4,5.31Z" transform="translate(-394.62 -291.63)"/><path class="cls-7" d="M1916.65,728.12c0,2.2-1.79,3.4-4,2.68L1894.85,725a6,6,0,0,1-4-5.31h0c0-2.19,1.79-3.4,4-2.68l17.81,5.83a6,6,0,0,1,4,5.31Z" transform="translate(-394.62 -291.63)"/><path class="cls-9" d="M1916.65,765.82c0,1.75-1.79,2.58-4,1.85l-17.81-5.83c-2.21-.72-4-2.73-4-4.46h0c0-1.76,1.79-2.59,4-1.86l17.81,5.82c2.2.73,4,2.73,4,4.48Z" transform="translate(-394.62 -291.63)"/><path class="cls-9" d="M1847.36,718.65c0,1.7-1.74,2.5-3.89,1.79L1756,691.81c-2.15-.7-3.89-2.65-3.89-4.35h0c0-1.69,1.74-2.49,3.89-1.8l87.44,28.65c2.15.7,3.89,2.64,3.89,4.34Z" transform="translate(-394.62 -291.63)"/><path class="cls-9" d="M1847.36,730.94c0,1.7-1.74,2.5-3.89,1.79L1756,704.09c-2.15-.7-3.89-2.64-3.89-4.35h0c0-1.68,1.74-2.5,3.89-1.8l87.44,28.64c2.15.72,3.89,2.66,3.89,4.36Z" transform="translate(-394.62 -291.63)"/><path class="cls-9" d="M1847.36,743.21c0,1.7-1.74,2.51-3.89,1.81L1756,716.38c-2.15-.71-3.89-2.64-3.89-4.35h0c0-1.69,1.74-2.51,3.89-1.81l87.44,28.65c2.15.7,3.89,2.66,3.89,4.34Z" transform="translate(-394.62 -291.63)"/><path class="cls-9" d="M1915.63,741c0,1.68-1.74,2.49-3.89,1.8l-37-12.12c-2.14-.71-3.88-2.64-3.88-4.34h0c0-1.7,1.74-2.5,3.88-1.8l37,12.12c2.15.7,3.89,2.63,3.89,4.34Z" transform="translate(-394.62 -291.63)"/><polygon class="cls-10" points="1526.8 487.56 1348.11 429.05 1348.11 431.49 1526.8 490.01 1526.8 487.56"/><polygon class="cls-8" points="1526.8 560.63 1348.11 502.11 1348.11 438.44 1526.8 496.97 1526.8 560.63"/><path class="cls-7" d="M1790.28,757.34c0,2.21-1.8,3.43-4,2.69l-30.13-9.87a6,6,0,0,1-4-5.3h0c0-2.21,1.79-3.41,4-2.69l30.13,9.87a6,6,0,0,1,4,5.3Z" transform="translate(-394.62 -291.63)"/><path class="cls-7" d="M1916.65,798.73c0,2.21-1.79,3.43-4,2.7l-17.81-5.83a6.06,6.06,0,0,1-4-5.31h0c0-2.21,1.79-3.42,4-2.68l17.81,5.82a6,6,0,0,1,4,5.3Z" transform="translate(-394.62 -291.63)"/><path class="cls-9" d="M1916.65,836.45c0,1.73-1.79,2.58-4,1.84l-17.81-5.82c-2.21-.73-4-2.73-4-4.48h0c0-1.74,1.79-2.58,4-1.85l17.81,5.83c2.2.72,4,2.72,4,4.48Z" transform="translate(-394.62 -291.63)"/><path class="cls-9" d="M1847.36,789.27c0,1.7-1.74,2.51-3.89,1.8L1756,762.43c-2.15-.7-3.89-2.65-3.89-4.33h0c0-1.7,1.74-2.5,3.89-1.81l87.44,28.64c2.15.7,3.89,2.65,3.89,4.34Z" transform="translate(-394.62 -291.63)"/><path class="cls-9" d="M1847.36,801.57c0,1.68-1.74,2.48-3.89,1.79L1756,774.71c-2.15-.7-3.89-2.65-3.89-4.34h0c0-1.69,1.74-2.5,3.89-1.79l87.44,28.64c2.15.7,3.89,2.65,3.89,4.35Z" transform="translate(-394.62 -291.63)"/><path class="cls-9" d="M1847.36,813.84c0,1.7-1.74,2.5-3.89,1.81L1756,787c-2.15-.7-3.89-2.66-3.89-4.34h0c0-1.71,1.74-2.5,3.89-1.8l87.44,28.64c2.15.7,3.89,2.64,3.89,4.34Z" transform="translate(-394.62 -291.63)"/><path class="cls-9" d="M1915.63,811.63c0,1.7-1.74,2.5-3.89,1.79l-37-12.11c-2.14-.69-3.88-2.65-3.88-4.33h0c0-1.7,1.74-2.5,3.88-1.8l37,12.11c2.15.7,3.89,2.64,3.89,4.34Z" transform="translate(-394.62 -291.63)"/><polygon class="cls-10" points="1526.8 558.19 1348.11 499.66 1348.11 502.11 1526.8 560.63 1526.8 558.19"/><polygon class="cls-5" points="1734.61 631.48 1544.09 569.1 1544.09 256.23 1734.61 318.63 1734.61 631.48"/><path class="cls-6" d="M1988.13,584.19c0,2.76-2.24,4.27-5,3.36l-29-9.48a7.55,7.55,0,0,1-5-6.63h0c0-2.77,2.25-4.27,5-3.36l29,9.48a7.54,7.54,0,0,1,5,6.63Z" transform="translate(-394.62 -291.63)"/><path class="cls-7" d="M2019.23,594.05c0,3.52-2.85,5.43-6.37,4.28l-13.78-4.51a9.62,9.62,0,0,1-6.37-8.46h0c0-3.52,2.84-5.43,6.37-4.28l13.78,4.51a9.63,9.63,0,0,1,6.37,8.46Z" transform="translate(-394.62 -291.63)"/><polygon class="cls-8" points="1726.8 414.27 1548.12 355.75 1548.12 292.07 1726.8 350.59 1726.8 414.27"/><path class="cls-7" d="M1990.29,611c0,2.2-1.79,3.4-4,2.68l-30.14-9.87a6,6,0,0,1-4-5.3h0c0-2.21,1.79-3.41,4-2.7l30.14,9.89a6,6,0,0,1,4,5.3Z" transform="translate(-394.62 -291.63)"/><path class="cls-7" d="M2116.67,652.38c0,2.19-1.79,3.4-4,2.67l-17.8-5.82a6,6,0,0,1-4-5.3h0c0-2.21,1.79-3.42,4-2.69l17.8,5.82a6.06,6.06,0,0,1,4,5.32Z" transform="translate(-394.62 -291.63)"/><path class="cls-9" d="M2116.67,690.08c0,1.74-1.79,2.57-4,1.84l-17.8-5.82c-2.21-.73-4-2.72-4-4.48h0c0-1.74,1.79-2.57,4-1.84l17.8,5.82c2.22.73,4,2.73,4,4.48Z" transform="translate(-394.62 -291.63)"/><path class="cls-9" d="M2047.37,642.92c0,1.69-1.74,2.49-3.88,1.79L1956,616.07c-2.14-.7-3.88-2.65-3.88-4.34h0c0-1.7,1.74-2.51,3.88-1.81l87.45,28.64c2.14.71,3.88,2.65,3.88,4.36Z" transform="translate(-394.62 -291.63)"/><path class="cls-9" d="M2047.37,655.19c0,1.7-1.74,2.5-3.88,1.8L1956,628.35c-2.14-.7-3.88-2.64-3.88-4.35h0c0-1.69,1.74-2.49,3.88-1.8l87.45,28.65c2.14.7,3.88,2.64,3.88,4.34Z" transform="translate(-394.62 -291.63)"/><path class="cls-9" d="M2047.37,667.47c0,1.69-1.74,2.5-3.88,1.8L1956,640.64c-2.14-.72-3.88-2.66-3.88-4.35h0c0-1.71,1.74-2.51,3.88-1.8l87.45,28.64c2.14.7,3.88,2.64,3.88,4.34Z" transform="translate(-394.62 -291.63)"/><path class="cls-9" d="M2115.64,665.28c0,1.69-1.74,2.49-3.89,1.79l-37-12.13c-2.14-.69-3.87-2.64-3.87-4.34h0c0-1.7,1.73-2.49,3.87-1.79l37,12.11c2.15.7,3.89,2.64,3.89,4.36Z" transform="translate(-394.62 -291.63)"/><polygon class="cls-10" points="1726.8 411.81 1548.12 353.3 1548.12 355.75 1726.8 414.27 1726.8 411.81"/><polygon class="cls-8" points="1726.8 484.89 1548.12 426.37 1548.12 362.69 1726.8 421.22 1726.8 484.89"/><path class="cls-7" d="M1990.29,681.61c0,2.21-1.79,3.4-4,2.69l-30.14-9.88a6,6,0,0,1-4-5.31h0c0-2.2,1.79-3.4,4-2.68l30.14,9.87a6,6,0,0,1,4,5.31Z" transform="translate(-394.62 -291.63)"/><path class="cls-7" d="M2116.67,723c0,2.22-1.79,3.41-4,2.68l-17.8-5.82a6,6,0,0,1-4-5.3h0c0-2.2,1.79-3.42,4-2.69l17.8,5.82a6,6,0,0,1,4,5.31Z" transform="translate(-394.62 -291.63)"/><path class="cls-9" d="M2116.67,760.7c0,1.75-1.79,2.59-4,1.86l-17.8-5.83c-2.21-.73-4-2.73-4-4.48h0c0-1.74,1.79-2.57,4-1.85l17.8,5.82c2.22.73,4,2.74,4,4.48Z" transform="translate(-394.62 -291.63)"/><path class="cls-9" d="M2047.37,713.53c0,1.7-1.74,2.51-3.88,1.8L1956,686.69c-2.14-.7-3.88-2.65-3.88-4.34h0c0-1.7,1.74-2.51,3.88-1.8l87.45,28.62c2.14.72,3.88,2.66,3.88,4.36Z" transform="translate(-394.62 -291.63)"/><path class="cls-9" d="M2047.37,725.81c0,1.7-1.74,2.51-3.88,1.8L1956,699c-2.14-.71-3.88-2.66-3.88-4.36h0c0-1.69,1.74-2.49,3.88-1.79l87.45,28.63c2.14.71,3.88,2.66,3.88,4.35Z" transform="translate(-394.62 -291.63)"/><path class="cls-9" d="M2047.37,738.1c0,1.69-1.74,2.5-3.88,1.8L1956,711.26c-2.14-.7-3.88-2.65-3.88-4.35h0c0-1.69,1.74-2.5,3.88-1.79l87.45,28.64c2.14.7,3.88,2.64,3.88,4.34Z" transform="translate(-394.62 -291.63)"/><path class="cls-9" d="M2115.64,735.9c0,1.68-1.74,2.49-3.89,1.79l-37-12.12c-2.14-.69-3.87-2.64-3.87-4.34h0c0-1.69,1.73-2.49,3.87-1.8l37,12.12c2.15.69,3.89,2.65,3.89,4.35Z" transform="translate(-394.62 -291.63)"/><polygon class="cls-10" points="1726.8 482.44 1548.12 423.92 1548.12 426.37 1726.8 484.89 1726.8 482.44"/><polygon class="cls-5" points="1934.61 696.99 1744.09 634.59 1744.09 321.73 1934.61 384.12 1934.61 696.99"/><path class="cls-6" d="M2188.14,649.7c0,2.76-2.24,4.27-5,3.36l-29-9.48a7.56,7.56,0,0,1-5-6.64h0c0-2.75,2.23-4.27,5-3.37l29,9.5a7.54,7.54,0,0,1,5,6.63Z" transform="translate(-394.62 -291.63)"/><path class="cls-7" d="M2219.24,659.55c0,3.52-2.85,5.43-6.37,4.29l-13.79-4.52a9.62,9.62,0,0,1-6.37-8.45h0c0-3.52,2.86-5.44,6.37-4.29l13.79,4.52a9.6,9.6,0,0,1,6.37,8.45Z" transform="translate(-394.62 -291.63)"/><polygon class="cls-8" points="1926.82 479.77 1748.13 421.25 1748.13 357.57 1926.82 416.09 1926.82 479.77"/><path class="cls-7" d="M2190.3,676.48c0,2.21-1.8,3.42-4,2.69l-30.14-9.87a6,6,0,0,1-4-5.3h0c0-2.21,1.78-3.42,4-2.69l30.14,9.86a6.08,6.08,0,0,1,4,5.31Z" transform="translate(-394.62 -291.63)"/><path class="cls-7" d="M2316.68,717.88c0,2.2-1.79,3.41-4,2.69l-17.82-5.84a6,6,0,0,1-4-5.3h0c0-2.2,1.79-3.41,4-2.69l17.82,5.83a6,6,0,0,1,4,5.31Z" transform="translate(-394.62 -291.63)"/><path class="cls-9" d="M2316.68,755.59c0,1.74-1.79,2.57-4,1.85l-17.82-5.84c-2.2-.73-4-2.72-4-4.47h0c0-1.75,1.79-2.58,4-1.85l17.82,5.83c2.21.72,4,2.73,4,4.48Z" transform="translate(-394.62 -291.63)"/><path class="cls-9" d="M2247.38,708.42c0,1.69-1.74,2.5-3.88,1.79L2156,681.57c-2.14-.7-3.87-2.64-3.87-4.34h0c0-1.7,1.73-2.51,3.87-1.81l87.46,28.65c2.14.7,3.88,2.64,3.88,4.35Z" transform="translate(-394.62 -291.63)"/><path class="cls-9" d="M2247.38,720.69c0,1.7-1.74,2.5-3.88,1.8L2156,693.85c-2.14-.71-3.87-2.64-3.87-4.34h0c0-1.69,1.73-2.5,3.87-1.8l87.46,28.64c2.14.71,3.88,2.65,3.88,4.34Z" transform="translate(-394.62 -291.63)"/><path class="cls-9" d="M2247.38,733c0,1.7-1.74,2.5-3.88,1.79L2156,706.13c-2.14-.7-3.87-2.64-3.87-4.34h0c0-1.7,1.73-2.5,3.87-1.8l87.46,28.65c2.14.69,3.88,2.63,3.88,4.34Z" transform="translate(-394.62 -291.63)"/><path class="cls-9" d="M2315.64,730.78c0,1.69-1.73,2.5-3.88,1.79l-37-12.11c-2.14-.7-3.88-2.66-3.88-4.34h0c0-1.7,1.74-2.5,3.88-1.81l37,12.12c2.15.7,3.88,2.65,3.88,4.35Z" transform="translate(-394.62 -291.63)"/><polygon class="cls-10" points="1926.82 477.32 1748.13 418.8 1748.13 421.25 1926.82 479.77 1926.82 477.32"/><polygon class="cls-8" points="1926.82 550.4 1748.13 491.88 1748.13 428.2 1926.82 486.73 1926.82 550.4"/><path class="cls-7" d="M2190.3,747.11c0,2.2-1.8,3.42-4,2.68l-30.14-9.87a6,6,0,0,1-4-5.3h0c0-2.19,1.78-3.41,4-2.69l30.14,9.87a6.06,6.06,0,0,1,4,5.31Z" transform="translate(-394.62 -291.63)"/><path class="cls-7" d="M2316.68,788.5c0,2.2-1.79,3.42-4,2.69l-17.82-5.84a6,6,0,0,1-4-5.29h0c0-2.21,1.79-3.43,4-2.69l17.82,5.83a6,6,0,0,1,4,5.3Z" transform="translate(-394.62 -291.63)"/><path class="cls-9" d="M2316.68,826.2c0,1.75-1.79,2.59-4,1.86l-17.82-5.82c-2.2-.73-4-2.73-4-4.49h0c0-1.74,1.79-2.58,4-1.85l17.82,5.84c2.21.72,4,2.73,4,4.46Z" transform="translate(-394.62 -291.63)"/><path class="cls-9" d="M2247.38,779c0,1.69-1.74,2.5-3.88,1.79L2156,752.2c-2.14-.71-3.87-2.65-3.87-4.35h0c0-1.7,1.73-2.5,3.87-1.8l87.46,28.64c2.14.7,3.88,2.65,3.88,4.35Z" transform="translate(-394.62 -291.63)"/><path class="cls-9" d="M2247.38,791.31c0,1.71-1.74,2.5-3.88,1.82L2156,764.48c-2.14-.7-3.87-2.65-3.87-4.35h0c0-1.69,1.73-2.5,3.87-1.8L2243.5,787c2.14.71,3.88,2.66,3.88,4.34Z" transform="translate(-394.62 -291.63)"/><path class="cls-9" d="M2247.38,803.6c0,1.69-1.74,2.5-3.88,1.8L2156,776.76c-2.14-.7-3.87-2.65-3.87-4.34h0c0-1.7,1.73-2.51,3.87-1.79l87.46,28.63c2.14.7,3.88,2.65,3.88,4.34Z" transform="translate(-394.62 -291.63)"/><path class="cls-9" d="M2315.64,801.4c0,1.7-1.73,2.5-3.88,1.8l-37-12.12c-2.14-.7-3.88-2.66-3.88-4.34h0c0-1.7,1.74-2.5,3.88-1.81l37,12.12c2.15.7,3.88,2.65,3.88,4.35Z" transform="translate(-394.62 -291.63)"/><polygon class="cls-10" points="1926.82 547.95 1748.13 489.43 1748.13 491.88 1926.82 550.4 1926.82 547.95"/><polygon class="cls-8" points="1926.82 621.02 1748.13 562.5 1748.13 498.82 1926.82 557.35 1926.82 621.02"/><path class="cls-7" d="M2190.3,817.73c0,2.21-1.8,3.42-4,2.7l-30.14-9.87a6,6,0,0,1-4-5.31h0c0-2.21,1.78-3.41,4-2.69l30.14,9.87a6,6,0,0,1,4,5.3Z" transform="translate(-394.62 -291.63)"/><path class="cls-7" d="M2316.68,859.12c0,2.21-1.79,3.42-4,2.69L2294.86,856a6,6,0,0,1-4-5.31h0c0-2.22,1.79-3.42,4-2.69l17.82,5.84a6,6,0,0,1,4,5.29Z" transform="translate(-394.62 -291.63)"/><path class="cls-9" d="M2316.68,896.84c0,1.74-1.79,2.57-4,1.84l-17.82-5.82c-2.2-.74-4-2.73-4-4.47h0c0-1.76,1.79-2.58,4-1.85l17.82,5.83c2.21.71,4,2.72,4,4.47Z" transform="translate(-394.62 -291.63)"/><path class="cls-9" d="M2247.38,849.67c0,1.68-1.74,2.5-3.88,1.79L2156,822.82c-2.14-.71-3.87-2.65-3.87-4.34h0c0-1.7,1.73-2.51,3.87-1.8l87.46,28.64c2.14.71,3.88,2.63,3.88,4.35Z" transform="translate(-394.62 -291.63)"/><path class="cls-9" d="M2247.38,861.94c0,1.7-1.74,2.51-3.88,1.81L2156,835.11c-2.14-.72-3.87-2.66-3.87-4.35h0c0-1.71,1.73-2.51,3.87-1.81l87.46,28.65c2.14.7,3.88,2.65,3.88,4.34Z" transform="translate(-394.62 -291.63)"/><path class="cls-9" d="M2247.38,874.23c0,1.69-1.74,2.51-3.88,1.79L2156,847.39c-2.14-.71-3.87-2.65-3.87-4.35h0c0-1.7,1.73-2.5,3.87-1.8l87.46,28.65c2.14.7,3.88,2.64,3.88,4.34Z" transform="translate(-394.62 -291.63)"/><path class="cls-9" d="M2315.64,872c0,1.69-1.73,2.49-3.88,1.79l-37-12.12c-2.14-.7-3.88-2.65-3.88-4.35h0c0-1.68,1.74-2.48,3.88-1.78l37,12.11c2.15.7,3.88,2.63,3.88,4.35Z" transform="translate(-394.62 -291.63)"/><polygon class="cls-10" points="1926.82 618.58 1748.13 560.05 1748.13 562.5 1926.82 621.02 1926.82 618.58"/><polygon class="cls-5" points="2134.62 762.5 1944.1 700.1 1944.1 387.24 2134.62 449.64 2134.62 762.5"/><path class="cls-6" d="M2388.15,715.2c0,2.76-2.23,4.27-5,3.37l-29-9.49a7.55,7.55,0,0,1-5-6.64h0c0-2.75,2.24-4.26,5-3.36l29,9.49a7.52,7.52,0,0,1,5,6.63Z" transform="translate(-394.62 -291.63)"/><path class="cls-7" d="M2419.25,725.06c0,3.52-2.85,5.43-6.37,4.29l-13.79-4.53a9.59,9.59,0,0,1-6.37-8.45h0c0-3.52,2.85-5.43,6.37-4.29l13.79,4.52a9.61,9.61,0,0,1,6.37,8.46Z" transform="translate(-394.62 -291.63)"/><polygon class="cls-8" points="2126.82 545.28 1948.14 486.75 1948.14 423.08 2126.82 481.61 2126.82 545.28"/><path class="cls-7" d="M2390.3,742c0,2.21-1.78,3.41-4,2.69l-30.14-9.88a6,6,0,0,1-4-5.3h0c0-2.19,1.78-3.41,4-2.69l30.14,9.88a6,6,0,0,1,4,5.3Z" transform="translate(-394.62 -291.63)"/><path class="cls-7" d="M2516.68,783.39c0,2.2-1.79,3.41-4,2.68l-17.8-5.84a6,6,0,0,1-4-5.29h0c0-2.21,1.79-3.42,4-2.69l17.8,5.83a6,6,0,0,1,4,5.31Z" transform="translate(-394.62 -291.63)"/><path class="cls-9" d="M2516.68,821.09c0,1.75-1.79,2.56-4,1.85l-17.8-5.83c-2.2-.72-4-2.72-4-4.47h0c0-1.75,1.79-2.57,4-1.85l17.8,5.82c2.21.73,4,2.73,4,4.48Z" transform="translate(-394.62 -291.63)"/><path class="cls-9" d="M2447.38,773.92c0,1.69-1.74,2.51-3.88,1.8l-87.44-28.64c-2.14-.69-3.88-2.66-3.88-4.34h0c0-1.7,1.74-2.51,3.88-1.81l87.44,28.64c2.14.71,3.88,2.65,3.88,4.35Z" transform="translate(-394.62 -291.63)"/><path class="cls-9" d="M2447.38,786.21c0,1.69-1.74,2.49-3.88,1.79l-87.44-28.64c-2.14-.71-3.88-2.65-3.88-4.35h0c0-1.69,1.74-2.49,3.88-1.79l87.44,28.64c2.14.7,3.88,2.65,3.88,4.35Z" transform="translate(-394.62 -291.63)"/><path class="cls-9" d="M2447.38,798.48c0,1.7-1.74,2.51-3.88,1.81l-87.44-28.65c-2.14-.7-3.88-2.65-3.88-4.34h0c0-1.71,1.74-2.51,3.88-1.8l87.44,28.64c2.14.7,3.88,2.65,3.88,4.34Z" transform="translate(-394.62 -291.63)"/><path class="cls-9" d="M2515.65,796.28c0,1.7-1.73,2.5-3.88,1.79l-37-12.11c-2.15-.69-3.88-2.65-3.88-4.34h0c0-1.69,1.73-2.5,3.88-1.8l37,12.11c2.15.71,3.88,2.65,3.88,4.35Z" transform="translate(-394.62 -291.63)"/><polygon class="cls-10" points="2126.82 542.82 1948.14 484.31 1948.14 486.75 2126.82 545.28 2126.82 542.82"/><polygon class="cls-8" points="2126.82 615.91 1948.14 557.38 1948.14 493.71 2126.82 552.23 2126.82 615.91"/><path class="cls-7" d="M2390.3,812.62c0,2.21-1.78,3.4-4,2.68l-30.14-9.87a6,6,0,0,1-4-5.31h0c0-2.2,1.78-3.41,4-2.68l30.14,9.87a6,6,0,0,1,4,5.31Z" transform="translate(-394.62 -291.63)"/><path class="cls-7" d="M2516.68,854c0,2.2-1.79,3.4-4,2.68l-17.8-5.83a6,6,0,0,1-4-5.3h0c0-2.21,1.79-3.41,4-2.7l17.8,5.84a6,6,0,0,1,4,5.31Z" transform="translate(-394.62 -291.63)"/><path class="cls-9" d="M2516.68,891.71c0,1.75-1.79,2.57-4,1.86l-17.8-5.83c-2.2-.73-4-2.73-4-4.47h0c0-1.76,1.79-2.58,4-1.86l17.8,5.83c2.21.72,4,2.73,4,4.47Z" transform="translate(-394.62 -291.63)"/><path class="cls-9" d="M2447.38,844.55c0,1.7-1.74,2.49-3.88,1.79l-87.44-28.64c-2.14-.7-3.88-2.65-3.88-4.34h0c0-1.7,1.74-2.51,3.88-1.8l87.44,28.63c2.14.72,3.88,2.65,3.88,4.36Z" transform="translate(-394.62 -291.63)"/><path class="cls-9" d="M2447.38,856.82c0,1.7-1.74,2.51-3.88,1.81L2356.06,830c-2.14-.71-3.88-2.65-3.88-4.35h0c0-1.7,1.74-2.51,3.88-1.8l87.44,28.64c2.14.7,3.88,2.66,3.88,4.34Z" transform="translate(-394.62 -291.63)"/><path class="cls-9" d="M2447.38,869.1c0,1.7-1.74,2.52-3.88,1.81l-87.44-28.64c-2.14-.7-3.88-2.65-3.88-4.34h0c0-1.7,1.74-2.51,3.88-1.81l87.44,28.64c2.14.7,3.88,2.65,3.88,4.34Z" transform="translate(-394.62 -291.63)"/><path class="cls-9" d="M2515.65,866.91c0,1.7-1.73,2.5-3.88,1.8l-37-12.12c-2.15-.71-3.88-2.65-3.88-4.34h0c0-1.71,1.73-2.51,3.88-1.81l37,12.11c2.15.72,3.88,2.66,3.88,4.36Z" transform="translate(-394.62 -291.63)"/><polygon class="cls-10" points="2126.82 613.46 1948.14 554.94 1948.14 557.38 2126.82 615.91 2126.82 613.46"/><path class="cls-9" d="M1812,478.54c0,2.73-2.21,4.22-4.93,3.32l-63.41-20.77a7.45,7.45,0,0,1-4.94-6.55h0c0-2.73,2.22-4.21,4.94-3.32L1807,472a7.44,7.44,0,0,1,4.93,6.55Z" transform="translate(-394.62 -291.63)"/><path class="cls-9" d="M1915.63,512.48c0,2.72-2.21,4.22-5,3.33L1847.29,495a7.43,7.43,0,0,1-4.94-6.54h0c0-2.73,2.2-4.22,4.94-3.33l63.39,20.77a7.42,7.42,0,0,1,5,6.54Z" transform="translate(-394.62 -291.63)"/><path class="cls-9" d="M1995.33,538.59c0,2.73-2.21,4.22-4.94,3.32L1954.12,530a7.48,7.48,0,0,1-4.94-6.56h0c0-2.72,2.22-4.2,4.94-3.31L1990.39,532a7.46,7.46,0,0,1,4.94,6.56Z" transform="translate(-394.62 -291.63)"/><path class="cls-9" d="M2057,558.8c0,2.73-2.21,4.22-4.94,3.32l-36.28-11.87a7.48,7.48,0,0,1-4.93-6.57h0c0-2.72,2.21-4.2,4.93-3.31l36.28,11.88a7.44,7.44,0,0,1,4.94,6.55Z" transform="translate(-394.62 -291.63)"/><path class="cls-9" d="M1756.6,414.13c0,2.65-2.16,4.09-4.81,3.23l-8.29-2.72a7.25,7.25,0,0,1-4.81-6.38h0c0-2.65,2.16-4.11,4.81-3.23l8.29,2.71a7.26,7.26,0,0,1,4.81,6.39Z" transform="translate(-394.62 -291.63)"/><path class="cls-9" d="M1933.54,472.07c0,2.66-2.15,4.11-4.81,3.23l-148.59-48.66a7.24,7.24,0,0,1-4.8-6.38h0c0-2.66,2.15-4.11,4.8-3.23l148.59,48.66a7.25,7.25,0,0,1,4.81,6.38Z" transform="translate(-394.62 -291.63)"/><path class="cls-11" d="M1717.74,410.41c0,3.83-3.09,5.92-6.92,4.67l-7.3-2.4c-3.83-1.25-6.93-5.37-6.93-9.2v-8.82c0-3.83,3.1-5.89,6.93-4.65l7.3,2.39c3.83,1.25,6.92,5.37,6.92,9.2Z" transform="translate(-394.62 -291.63)"/><polygon class="cls-8" points="2000.98 379.85 1951.93 363.79 1951.93 347.06 2000.98 363.11 2000.98 379.85"/><polygon class="cls-8" points="2058.38 398.65 2009.33 382.58 2009.33 365.86 2058.38 381.91 2058.38 398.65"/><path class="cls-12" d="M2524.93,662.78c0,3.67-3,5.66-6.64,4.46L2415.6,633.6a10,10,0,0,1-6.64-8.8h0c0-3.67,3-5.66,6.64-4.46L2518.29,654a10,10,0,0,1,6.64,8.8Z" transform="translate(-394.62 -291.63)"/><path class="cls-12" d="M2478.44,691.69c0,3.82-3.1,5.9-6.93,4.66l-1.66-.55c-3.83-1.25-6.93-5.36-6.93-9.19v-2.89c0-3.82,3.1-5.9,6.93-4.66l1.66.55c3.83,1.26,6.93,5.37,6.93,9.19Z" transform="translate(-394.62 -291.63)"/><path class="cls-12" d="M2501,699.1c0,3.81-3.1,5.9-6.92,4.65l-1.67-.54c-3.83-1.25-6.93-5.37-6.93-9.19v-2.89c0-3.83,3.1-5.91,6.93-4.66l1.67.54c3.82,1.26,6.92,5.38,6.92,9.2Z" transform="translate(-394.62 -291.63)"/><path class="cls-12" d="M2523.63,706.49c0,3.83-3.1,5.91-6.92,4.66l-1.66-.55c-3.83-1.25-6.93-5.37-6.93-9.18v-2.89c0-3.84,3.1-5.91,6.93-4.66l1.66.54c3.82,1.26,6.92,5.37,6.92,9.2Z" transform="translate(-394.62 -291.63)"/><path class="cls-13" d="M1376.56,1570s135.72-5.38,155.68,10.63-23.71,127.85-23.71,127.85l-148.19-57.26Z" transform="translate(-394.62 -291.63)"/><path class="cls-14" d="M1574.89,2044.75s0,29.52,11.86,31.57,37.51,18.15,44.92,4,0-43.34,0-43.34Z" transform="translate(-394.62 -291.63)"/><path class="cls-15" d="M1574.89,2050s2.44,29.41,35.45,30,31.38-31.47,42.21-25.33,13,15.94,32.47,15.92,33.87-1.72,41.28,9.41,6.56,22-28.32,23.94-124.44,13.91-128.77,0S1564.33,2062,1574.89,2050Z" transform="translate(-394.62 -291.63)"/><path class="cls-16" d="M873.13,981.74l-72.48,27.66s-24.13-2-17.17,32.07,63.75,242.87,63.75,242.87l142.95-26Z" transform="translate(-394.62 -291.63)"/><path class="cls-17" d="M867.31,1003l-46.59,15s-24.12-2-17.16,32.07S867.31,1293,867.31,1293l142.94-26Z" transform="translate(-394.62 -291.63)"/><path class="cls-15" d="M1016.42,663.84s7.7,34.14,45.24,50,50.64,76.78-19.57,115.09S941.5,663.84,941.5,663.84Z" transform="translate(-394.62 -291.63)"/><path class="cls-14" d="M974.64,1804s-15.71,55.28,0,65.11,63.19,5.88,61.06-14.73,0-53,0-53Z" transform="translate(-394.62 -291.63)"/><path class="cls-15" d="M962.42,1834.9s2.43,29.4,35.45,30,31.38-31.47,42.2-25.32,13,16,32.48,15.91,33.87-1.72,41.28,9.41,6.55,22-28.32,24-124.44,13.91-128.77,0S951.86,1846.85,962.42,1834.9Z" transform="translate(-394.62 -291.63)"/><path class="cls-18" d="M760.51,1341.37s93.09-10.27,155.09,17.34,96.08,65.1,96.08,65.1l-279.4-21Z" transform="translate(-394.62 -291.63)"/><path class="cls-14" d="M791.28,1750.55s-9.52,45.27,0,50.77,40.3,3.48,49.85-14.33,4.92-31.36,4.92-31.36Z" transform="translate(-394.62 -291.63)"/><path class="cls-19" d="M2030.87,1937.64s-4.37,28.45,0,29.68,41,9.37,43.94,0,4.33-34.62,4.33-34.62Z" transform="translate(-394.62 -291.63)"/><path class="cls-19" d="M1781.68,2021.12s-1.86,21.65,0,26.6,52.23,12.9,53.8,2.48,6.7-30.29,6.7-30.29Z" transform="translate(-394.62 -291.63)"/><path class="cls-15" d="M2285.91,1658s-7.83,83.38-82.76,75.74S1895,1704,1895,1707.38s-58.41,312.53-58.41,312.53-16.88,18.07-36.18,14.46-30.16-10.85-30.16-10.85-7.42-410.84,50.48-427.74S2160,1492.4,2160,1492.4Z" transform="translate(-394.62 -291.63)"/><path class="cls-19" d="M1304.71,1410.76s-8.07,35.31,5,39.6,39.28-.6,42-6,0-26.07,0-26.07Z" transform="translate(-394.62 -291.63)"/><path class="cls-19" d="M1468.49,1365.93s-9.34,33.62,0,34.56,53.24-3.75,53.24-3.75l-6.55-30.81Z" transform="translate(-394.62 -291.63)"/><path class="cls-15" d="M1312,914.53S1393.86,946,1456.8,924s81-53.64,81-53.64v274s-13.31,83.42-14.89,140.08,1.58,88.14,1.58,88.14-7.87,17.55-26.76,15.07-33-16.64-33-16.64-20.46-105.47-15.74-162.12,14.17-64.54,7.87-92.86-22-97.58-22-97.58l-28.35,185.72S1386,1273.56,1375,1334.85s-14.17,88.06-14.17,88.06-3.15,9.44-25.18,9.44-39.34-20.46-39.34-20.46-.42-55.09,8.45-133.79a1028.91,1028.91,0,0,1,26.17-141.64S1305.74,1040.45,1312,914.53Z" transform="translate(-394.62 -291.63)"/><path class="cls-20" d="M1739.84,643.84s-68.61,45.07-103.66,57.65c-1.42.47-2.76.94-4,1.34-32.7,9.88-100-52.47-103.54-55.77l-.13-.12,6,228.5s-13.18,47.77-74.13,60.95S1312,914.53,1312,914.53l-4.31-44.19s-60-11.92-89.47-27.11,35.86-230.88,44-249.18,77.56-45.74,77.56-45.74c7.4-3,94.18-19.45,94.18-19.45s48.78-11,68.08-10,101.65,114.82,124,115.84,94.52-36.53,94.52-36.53l9.15,11.15C1738.83,620.49,1739.84,643.84,1739.84,643.84Z" transform="translate(-394.62 -291.63)"/><path class="cls-21" d="M1349.81,501.33s.54,54.78,0,56.41,20.41,26.85,55.88,20.41,34.92-55.34,34.92-55.34Z" transform="translate(-394.62 -291.63)"/><path class="cls-15" d="M1304.71,1438.1s16.2,9.23,34.65,4.2,19.3-5.87,26,8.39,63.75,36.07,57,55.36-26,4.21-68-5.87-59.57-8.3-62.09-23.45S1295.2,1434.38,1304.71,1438.1Z" transform="translate(-394.62 -291.63)"/><path class="cls-15" d="M1467.73,1392s38.59,8.39,52,0,21-6.71,26.86,0,13.42,14.28,31.88,22.66,36.07,12.58,26,26.84-28.53,9.23-78.87,0-62.08-8.38-65.44-32.71S1467.73,1392,1467.73,1392Z" transform="translate(-394.62 -291.63)"/><path class="cls-8" d="M1402.09,578.63s-16.52,6.25-22.12,21.74l-5.59,15.49-41.44-63.65,16.86-6.49S1352.34,563.28,1402.09,578.63Z" transform="translate(-394.62 -291.63)"/><path class="cls-8" d="M1423,569.88s8.73-1.12,17.65,9.32l8.91,10.45s7.81-20.92,9.19-40.54-9.1-23.53-9.1-23.53Z" transform="translate(-394.62 -291.63)"/><path class="cls-19" d="M1449.74,408.88s5.9,33.3,0,41.9,6.33,26.33,2.62,51.57-1,47.28-24.65,46.74-69.83-21-81.65-33.84-11.29-88.12,0-106.37S1449.74,408.88,1449.74,408.88Z" transform="translate(-394.62 -291.63)"/><path class="cls-15" d="M1461.55,394.9c-3.18,18.27-11.64,30.63-42.63,29.83s-44.48-3.19-42.9,17.46,6.9,38.13-.12,39.73-11-27.81-22.91-27.81-8,19.06,0,35.75-3.18,36.12-3.18,36.12-56.59-46-51-103.14,53.71-70,108.52-66.08S1461.55,394.9,1461.55,394.9Z" transform="translate(-394.62 -291.63)"/><path class="cls-19" d="M1360.55,823.5a56.43,56.43,0,0,0-6.75,25.65c0,14.12,1.23,19.05,3.38,21.19s50.66-2.92,77.69-23.41,31.31-47.54,24.55-49.37-49.12,24.85-58.33,25.94-3.94-4.44,6.94-13,9-13,9-13-17.16,1.31-27,10.53S1360.55,823.5,1360.55,823.5Z" transform="translate(-394.62 -291.63)"/><path class="cls-19" d="M1726.89,606.51s6.59-19,18.76-28.77a116.48,116.48,0,0,1,26.28-15.32s4.39,7.05-5.35,13.87-8.25,14.11,6.34,2.91,30.17-34.57,41.85-30.18-3.4,48.68-24.34,64.27-54.16,16.48-54.16,16.48S1731.86,612.59,1726.89,606.51Z" transform="translate(-394.62 -291.63)"/><path class="cls-22" d="M1307.81,629.77s6,21.71,0,42.77-22.56,102.25-28.58,106.77-21,28.56-21,28.56,29.52-20.3,38.06-16.54,61.19,24.22,61.19,24.22-60.19-31.74-59-39.26,25.2-103.75,19.93-122.55S1307.81,629.77,1307.81,629.77Z" transform="translate(-394.62 -291.63)"/><path class="cls-15" d="M1523.5,585.24a28.09,28.09,0,0,1,1.08,3.23A27,27,0,0,1,1523.5,585.24Z" transform="translate(-394.62 -291.63)"/><path class="cls-22" d="M1636.18,701.49c-1.42.47-2.76.94-4,1.34-32.7,9.88-100-52.47-103.54-55.77l-.13-.12s3-20.27,0-39.3a180.53,180.53,0,0,0-3.77-18.91c3.43,9.08,14.13,32.71,39.49,58.21C1587.48,670.34,1619.76,691.39,1636.18,701.49Z" transform="translate(-394.62 -291.63)"/><polygon class="cls-23" points="818.7 1301.4 346.81 1491.78 1275.7 1868.97 1785.19 1669.2 818.7 1301.4"/><polygon class="cls-24" points="818.7 780.57 346.81 970.95 1275.7 1348.14 1785.19 1148.37 818.7 780.57"/><polygon class="cls-25" points="1275.7 1348.14 1275.7 1383.53 1785.19 1183.32 1785.19 1148.37 1275.7 1348.14"/><polygon class="cls-26" points="346.81 970.95 1275.7 1348.14 1275.7 1383.53 346.81 1001.85 346.81 970.95"/><polygon class="cls-27" points="1216 1133 1347.8 1205.7 1652.44 1097.86 1505.84 1036.34 1216 1133"/><polygon class="cls-28" points="1246.53 1133.77 1313.57 1168.92 1579.16 1077.23 1505.84 1044.96 1246.53 1133.77"/><polygon class="cls-8" points="1652.44 1097.86 1347.8 1205.7 1347.8 1214.82 1652.44 1105.72 1652.44 1097.86"/><path class="cls-19" d="M1910.35,1427.46s-32.12-8.25-41.63-19.31-22.2-22.35-41.22-14.73-41.22,17.92-39.64,27.44,37.26-9.78,42.81,6.6,15.85,29.07,27.74,32.23,32.65,3.28,32.65,3.28S1891.75,1434.86,1910.35,1427.46Z" transform="translate(-394.62 -291.63)"/><path class="cls-19" d="M2112.91,1038.52s-6.39,37.71.23,48.73-5.34,27.93-1.94,45.57,10.76,61.77,26.2,62.51,30.15-9.57,33.09,0,1,33.7,1,33.7,42.81-9.14,56-9.14,41.4-13.88,45.08-14.61-28.63-39.36-28.63-41.57-52.2-164.71-79.4-155.87a128.19,128.19,0,0,0-44.86,25.73Z" transform="translate(-394.62 -291.63)"/><path class="cls-15" d="M2281.75,1013c20.58,42.29-20,99.45-20.86,131.46s-3.14,37.72-21.43,38.86-48-11.61-51.44-32.1,13.82-44.49,12.05-59.36-21.19-12.57-28.05,5.72l-6.86,18.3-6.86,5.72s-2.23-61.77-19.65-62.92-25,13.49-42.76-29.26C2062.09,948,2261.18,970.74,2281.75,1013Z" transform="translate(-394.62 -291.63)"/><path class="cls-29" d="M2280.22,1661c-95.58,59.15-135.71,47.32-169,19.84-1.3-1.06-21.66-26.31-23.51-33.7-10.05-40.22,10.94-125.62,13.92-134.82a17.26,17.26,0,0,1-1,1.61c-2.91,4-25.72,18.91-56.85,10.34C1983.29,1507.57,1889,1475,1889,1475s0-18.93,1.24-37,18-24.39,18-24.39,117.57,34.07,136.93,30.46,32.61-65,37.33-129.42c5.91-80.71,77.21-78,77.38-78,0,0,4.56-16.2,32.34-28.25s68.58-24.93,68.58-24.93,6.11,7.48,20.6,19.53,50.88-18,75.91,68.73C2371.54,1320.71,2373.79,1603.05,2280.22,1661Z" transform="translate(-394.62 -291.63)"/><path class="cls-22" d="M2159.85,1408.16c-1.42,52.95-45.94,109.39-52.65,153.73-3.2,21.37-15.15,69.71-13.25,96.41-1.3-1.06-6.18-16-7.42-17.06-32.05-26.29,12.12-119.77,15.1-129a17.26,17.26,0,0,1-1,1.61l1.13-2.08.12-.3s38.46-60.43,46.41-114.73c6.77-46.11,2-65.47.47-70.28C2151.12,1332.67,2161.1,1361.57,2159.85,1408.16Z" transform="translate(-394.62 -291.63)"/><path class="cls-19" d="M2073.25,1379.53s-17.39-20.92-28-20.92-65.17-9.51-70,0,10.25,12.51,30.06,20.92,33.29,9.93,25.36,14.73-23.28,5.41-6.88,7.07,43.06,6.92,43.06,6.92Z" transform="translate(-394.62 -291.63)"/><path class="cls-13" d="M2003.4,1753.11l20.21,181.46s6.56,10.1,18.43,11.94,42.08-11,42.08-11V1768.34Z" transform="translate(-394.62 -291.63)"/><path class="cls-15" d="M1839.85,2034.86s-5.51,17.56-32.13,13.88-32.14-19.5-38.57-13.88-9.19,8.49-29.39,6.6-53.26-11-60.61,0S1658,2067.11,1726,2080s114.78,30.3,119.38,0S1846.28,2036.58,1839.85,2034.86Z" transform="translate(-394.62 -291.63)"/><path class="cls-15" d="M2084.12,1954.92s-16,8.86-30.4,8.86-23.25-13.66-29.67-4.43-17.64,14.06-45.72,16.47-54.48,5.31-53.7,16.69.77,20.82,46.48,19.71,108.93,7.71,113-7.53S2089.12,1952.48,2084.12,1954.92Z" transform="translate(-394.62 -291.63)"/><path class="cls-30" d="M774.21,1395.19s152.68-6.89,176.53,2.91,81.42,7.17,90.34,70.76-3,342.78-3,342.78-7.6,21.44-36.4,19.78-34.05-14.26-34.05-14.26-20.44-304.45-30.57-303.82-176.5,50.58-232.76,31-65.27-45.56-65.27-45.56Z" transform="translate(-394.62 -291.63)"/><path class="cls-31" d="M617.8,1053s2.55-23.79,17.85-20.39,72.21,19.54,73.91,26.34,0,18.75,0,18.75,60.32,30.52,71.36,55.16,32.29,137.64,32.29,137.64-6,22.09-18.69,26.34-28.89,0-28.89,0S792,1409,792,1419.21s-17.91,85.81-115.58,87.51-148.65-79.86-151.19-160.58-1.7-263.37,27.18-279.51S617.8,1053,617.8,1053Z" transform="translate(-394.62 -291.63)"/><path class="cls-32" d="M2139.81,1722s-227.72-27.27-230.69-21.29S1907,1717,1931,1729s191,44.5,208.86,29.94S2139.81,1722,2139.81,1722Z" transform="translate(-394.62 -291.63)"/><path class="cls-33" d="M2466.71,1405.43s-11.2-29.94-46.82-26.75-164.6,56.4-164.6,56.4-29.83,14.26-45.6,65.83S2146,1715.79,2139.81,1722s-12.47,26-47.32,22.89-170.83-37.46-176.17-33.29-15.74,26.66,6.11,33.61,194.79,47,229.13,39.62,121.41-172,156.77-208.46S2466.71,1405.43,2466.71,1405.43Z" transform="translate(-394.62 -291.63)"/><path class="cls-17" d="M2438,1400l-152.5,58.48s-24.56,16.43-34.9,48.42L2177,1757.3s-20.68,31-63.33,29.73c0,0,59.45,2.59,142.17-27.15s134.4-39.3,151.2-79.74,62-262.08,62-262.08S2476.8,1395.51,2438,1400Z" transform="translate(-394.62 -291.63)"/><polygon class="cls-34" points="1737.4 1493.87 1787.31 1887.36 1793.29 1887.36 1753.12 1493.64 1737.4 1493.87"/><polygon class="cls-35" points="1969.22 1428.81 2043.26 1782.94 2052.92 1782.94 1984.11 1420.53 1969.22 1428.81"/><polygon class="cls-36" points="1521.68 1450.74 1344.52 1803.86 1353.18 1803.86 1540.02 1456.96 1521.68 1450.74"/><path class="cls-37" d="M724.49,1535.12s227.72-27.27,230.7-21.28,2.12,16.25-21.84,28.23-191,44.48-208.86,29.94S724.49,1535.12,724.49,1535.12Z" transform="translate(-394.62 -291.63)"/><path class="cls-38" d="M397.6,1218.53s11.2-30,46.82-26.75,164.6,56.4,164.6,56.4,29.82,14.27,45.6,65.83,63.64,214.87,69.87,221.11,12.47,26,47.32,22.88,170.84-37.45,176.18-33.28,15.73,26.66-6.11,33.61-194.8,47-229.14,39.62S591.33,1425.9,556,1389.49,397.6,1218.53,397.6,1218.53Z" transform="translate(-394.62 -291.63)"/><path class="cls-17" d="M426.27,1213.1l152.5,58.47s24.56,16.43,34.9,48.43l73.67,250.41s20.68,31,63.32,29.71c0,0-59.45,2.59-142.16-27.14s-134.41-39.29-151.21-79.73-62-262.09-62-262.09S387.5,1208.61,426.27,1213.1Z" transform="translate(-394.62 -291.63)"/><polygon class="cls-39" points="337.66 1306.97 287.74 1700.45 281.77 1700.45 321.94 1306.75 337.66 1306.97"/><polygon class="cls-40" points="105.83 1241.91 31.79 1596.05 22.13 1596.05 90.95 1233.62 105.83 1241.91"/><polygon class="cls-41" points="553.37 1263.85 730.54 1616.97 721.88 1616.97 535.04 1270.07 553.37 1263.85"/><path class="cls-18" d="M799.89,1590.67,786.2,1750.55s-7.59,19.69,27,18.6S856,1755.63,856,1755.63l31.66-183.93Z" transform="translate(-394.62 -291.63)"/><path class="cls-14" d="M768.54,1297.5s16.93,2.46,28.81-7.07,13-12,13-12,32-5,60-19,85.5-32.39,92.86-46.78,29.48-21.16,29.48-21.16,9.58,2.49-2.95,9.42,2.58,6.92,6.45,4,40-25.78,43.67-19.16-17.93,48.27-43.61,57.3-60.31,34.83-83.15,43.66S806.13,1361.38,785.74,1356s-35.08-58.71-35.08-58.71Z" transform="translate(-394.62 -291.63)"/><path class="cls-15" d="M785.5,1766.78s1.09,25.81,27.71,20.21,26.62-30,37.47-17.8,14.43,25.27,42.78,32.6,52.46,1.81,54.87,20.85l2.41,19s-159.14,1.71-171.19-19S778.7,1767.87,785.5,1766.78Z" transform="translate(-394.62 -291.63)"/><path class="cls-14" d="M776.34,1125.52s15.82-11.9,21.8-26.86,21.67-31.39,21.67-31.39,6.73,8.23,0,18.69,23.92-37.39,29.16-18.69-7.48,50.83-21.68,64.28-35.43,38.21-35.43,38.21S783.72,1133.6,776.34,1125.52Z" transform="translate(-394.62 -291.63)"/><path class="cls-22" d="M750.66,1297.28s-14.23-65.26-18.38-90.59,0-44.8,0-44.8-21.17,73.06,0,153.9,30.22,113.18,29,137.44-10.59,31.68-10.59,31.68a168.71,168.71,0,0,0,25.68-31.68c12.52-19.74,15.63-34,15.63-34L776.34,1350S759.89,1332,750.66,1297.28Z" transform="translate(-394.62 -291.63)"/><polygon class="cls-30" points="1505.84 1036.34 1505.84 842.08 1216 935.13 1216 1133 1505.84 1036.34"/><polygon class="cls-8" points="1223.98 940.96 1497.85 853.03 1497.85 1030.59 1223.98 1121.91 1223.98 940.96"/><polygon class="cls-8" points="1505.84 842.08 1493.67 837.02 1204.09 928.05 1216 935.13 1505.84 842.08"/><polygon class="cls-8" points="1204.09 928.05 1216 935.13 1216 1142 1204.09 1134.77 1204.09 928.05"/><polygon class="cls-8" points="1216 1133 1347.8 1205.7 1347.8 1214.82 1216 1142 1216 1133"/><path class="cls-30" d="M927.67,824.8s18.31,20.88,47.08,12.62,28.79-23.08,28.79-23.08,74.87.87,85.4,18.31,131.54,226.69,91.42,252.85S1025.53,1148,1025.53,1148s-20.52,25.22-35.35,24.71-38.38,5-38.38,5l-97,39.13s-23.07-225.7-23.16-276.25,14-92.31,51.55-103.17S927.67,824.8,927.67,824.8Z" transform="translate(-394.62 -291.63)"/><path class="cls-42" d="M854.79,935.73a299.41,299.41,0,0,1,43.12,58.92c19.84,35.48,42.68,93.8,42.68,93.8s-7.81,12-7.81,24.66-.6,15.79-.6,15.79,6-26,18-33.83,28.86-22.85,37.88-39.09,12.57-24.64,12.57-24.64-38.43,41.48-45.64,40.28S925,1010.9,899.11,978.43,854.79,935.73,854.79,935.73Z" transform="translate(-394.62 -291.63)"/><path class="cls-42" d="M1071.53,904S1115,1022,1122,1029.66s28.36,16,28.36,16-12.26-7.12-28.36,0-81.08,37.33-81.08,37.33,72.1-37.93,71.51-47.41S1071.53,904,1071.53,904Z" transform="translate(-394.62 -291.63)"/><path class="cls-19" d="M1034.09,944.71s1.15,8.11,9.27,15.06,12.74,10,15.83,11.38S1095.88,959,1092,934.68s-11.58-44.8-10-49.82,21.25-37.46,19.31-43.63-20.46,13.34-29,32.35-13.91,31.35-16.6,27.49,1.16-9.27,1.16-18.92a30,30,0,0,0-4.25-15.83s-5.79,9.26-8.5,25.48S1034.09,944.71,1034.09,944.71Z" transform="translate(-394.62 -291.63)"/><path class="cls-19" d="M954.71,1154.73s-22.07,7-26,16.24,3.52,21.43,26,19.43,65.4-31.2,65.37-31.17S971.66,1172,954.71,1154.73Z" transform="translate(-394.62 -291.63)"/><path class="cls-43" d="M1003.6,790.69s5.08,31.42,0,36.16-12.06,19-39.8,19-38.61-20.35-38.61-20.35V762.81Z" transform="translate(-394.62 -291.63)"/><path class="cls-19" d="M1003.6,654.49s9.15,23.72,7.57,38,5.75,26.89,9.2,37.94,7.92,44.16-4.46,64.06-77.48,0-77.48,0-37.17-44.29-34.8-74.33S1003.6,654.49,1003.6,654.49Z" transform="translate(-394.62 -291.63)"/><path class="cls-15" d="M1034.09,642.11c11.72,22.46-14.82,38.63-42.41,39.81s-42.83,9.75-44.26,37.34-26.14,27.54-31.86,28.54,33.53,32.36,9.63,75.18-48.3,98.18-101,68.5,42-131.68,46.83-166.89,12.68-88.13,62.52-104C947.93,616,1020.07,615.24,1034.09,642.11Z" transform="translate(-394.62 -291.63)"/><path class="cls-14" d="M760.51,886.33s11.13,42.29,6.34,47.87-11.1,9.58-6.34,25.54,14.32,16.76,7.54,32.71-13.74,54.26-26.62,54.26-29-12.27-30.43,0L709.56,1059l-73.91-26.34s-1.25-35.9-6-60,12.77-77.55,32.72-86.32S760.51,886.33,760.51,886.33Z" transform="translate(-394.62 -291.63)"/><path class="cls-15" d="M785.74,861.33c3.42,20.72-17,37.77-35.08,42.55s-11.73,23.94-18.92,29.53-9.57,31.92-16,31.12-5.58-32.72-20.75-31.12-10.38,27.52-3.19,37.3,4,36.53-23.11,40.3-48.7,8.58-57.48-30.52-48.82-112.9,46.54-146.75C732.42,807.24,782.22,840.05,785.74,861.33Z" transform="translate(-394.62 -291.63)"/><path class="cls-14" d="M1380.49,1975.82s-15.72,55.27,0,65.1,63.18,5.89,61.06-14.74,0-52.93,0-52.93Z" transform="translate(-394.62 -291.63)"/><path class="cls-15" d="M1384,1793.59l-8.72,190.94s15,18.07,38.34,12.53,34.51-21.92,34.51-21.92l38-219.62Z" transform="translate(-394.62 -291.63)"/><path class="cls-15" d="M1182.22,1720.89s35.73,98.55,132.58,85.4,195.46-98.83,209.17-60.85,50.92,299.31,50.92,299.31,10.95,13.47,35.4,9,32.42-22.65,32.42-22.65,14.56-361.77-31-395.07c-69.37-50.71-297.57-32.24-297.57-32.24Z" transform="translate(-394.62 -291.63)"/><path class="cls-30" d="M1368.82,1217.67s43.67-.8,64.3,32.67,105.94,166.26,116,168.09,48.77-95.76,48.77-95.76,21.79-3.36,34.13,6.78l12.33,10.15s-44.63,150.32-68.93,163.48-156.69-95.78-156.69-95.78,6.42,44.39-35.59,56c-28,7.74,6.18,126.88,6.18,126.88s16.62,104.89-109.36,97-241.93-193.24-191.55-305S1368.82,1217.67,1368.82,1217.67Z" transform="translate(-394.62 -291.63)"/><path class="cls-14" d="M1424.26,1097.56s-6.72,17.62-4.84,25.1,7.25,24.55-6.78,47.19-11.29,29.13-26.21,34.86-56-10.53-56-10.53l39.22-111.47Z" transform="translate(-394.62 -291.63)"/><path class="cls-44" d="M1272,1751.4s227.72-27.27,230.69-21.29,2.12,16.26-21.83,28.23-191,44.49-208.86,30S1272,1751.4,1272,1751.4Z" transform="translate(-394.62 -291.63)"/><path class="cls-45" d="M945.07,1434.8s11.2-30,46.82-26.75,164.61,56.41,164.61,56.41,29.82,14.27,45.59,65.83,63.65,214.87,69.88,221.11,12.46,26,47.31,22.88,170.84-37.45,176.18-33.29,15.74,26.67-6.1,33.62-194.8,47-229.14,39.62-121.42-172-156.78-208.46S945.07,1434.8,945.07,1434.8Z" transform="translate(-394.62 -291.63)"/><path class="cls-17" d="M973.75,1429.37l152.51,58.48s24.55,16.42,34.89,48.42l73.66,250.41s20.68,31,63.33,29.72c0,0-59.45,2.59-142.16-27.13s-134.41-39.3-151.21-79.75-62-262.08-62-262.08S935,1424.88,973.75,1429.37Z" transform="translate(-394.62 -291.63)"/><polygon class="cls-46" points="885.13 1523.25 835.21 1916.73 829.24 1916.73 869.41 1523.02 885.13 1523.25"/><polygon class="cls-47" points="653.32 1458.19 579.27 1812.32 569.6 1812.32 638.42 1449.89 653.32 1458.19"/><polygon class="cls-48" points="1100.85 1480.12 1278.01 1833.24 1269.35 1833.24 1082.52 1486.34 1100.85 1480.12"/><path class="cls-15" d="M1443.36,1071.25c-1.37,21.64-17.34,37-40.76,37.14s-39.37,12.85-34.35,44.65,14.15,66.81-25.61,93.13-76.23,32.58-71,98.91-69.17,131.21-160,108.5-141.52-132-70.16-202.31c83.45-82.26,199.27-49,206.91-99.23s14.37-133.43,107.28-136C1434.21,1013.92,1444.07,1060,1443.36,1071.25Z" transform="translate(-394.62 -291.63)"/><path class="cls-14" d="M1602.56,1326.38s-12.45-29.26-8.62-50.34,8.62-41.35,8.62-41.35,10.76,6.85,7.77,21.22,8.52,18.94,11.39,13.3,30.42-72.7,34.48-62.16,8.62,54.6,0,79.51-23.37,55-23.37,55S1615,1328.84,1602.56,1326.38Z" transform="translate(-394.62 -291.63)"/><path class="cls-15" d="M1368.26,2006.7s2.44,29.41,35.45,30,31.39-31.47,42.2-25.32,13,15.94,32.48,15.91,33.87-1.72,41.28,9.41,6.56,22-28.31,24-124.45,13.9-128.77,0S1357.71,2018.64,1368.26,2006.7Z" transform="translate(-394.62 -291.63)"/></svg>