<svg width="181" height="48" viewBox="0 0 181 48" fill="none" xmlns="http://www.w3.org/2000/svg">
<g clip-path="url(#clip0_232_7186)">
<path d="M59.6074 33.9922H61.478V44.0975H59.6074V33.9922ZM70.2632 37.1548C70.8495 37.7255 71.138 38.5676 71.138 39.6811V44.0975H69.3419V39.915C69.3419 39.2413 69.1837 38.736 68.8673 38.3898C68.5509 38.053 68.1042 37.8752 67.5179 37.8752C66.8571 37.8752 66.3359 38.0717 65.9544 38.4741C65.5728 38.8764 65.3774 39.4472 65.3774 40.1957V44.0975H63.5812V36.3875H65.2936V37.3793C65.5914 37.0238 65.9637 36.7524 66.4104 36.5653C66.8571 36.3875 67.3689 36.2939 67.9366 36.2939C68.9045 36.2939 69.6769 36.5746 70.2632 37.1454V37.1548ZM80.0256 36.3875L76.7405 44.0975H74.8885L71.6034 36.3875H73.4739L75.8564 42.1045L78.3133 36.3875H80.0349H80.0256ZM87.6755 40.8226H81.6636C81.7659 41.3934 82.0451 41.8425 82.4918 42.17C82.9385 42.5068 83.4876 42.6659 84.1484 42.6659C84.9859 42.6659 85.6839 42.3852 86.233 41.8238L87.1916 42.9372C86.8472 43.3489 86.4098 43.667 85.8887 43.8729C85.3582 44.0881 84.7719 44.191 84.1111 44.191C83.2643 44.191 82.5291 44.0226 81.8869 43.6858C81.2448 43.3489 80.7515 42.8811 80.3979 42.2822C80.0443 41.6834 79.8767 41.0004 79.8767 40.2425C79.8767 39.4846 80.0443 38.8109 80.3886 38.2121C80.7236 37.6132 81.1982 37.1454 81.8032 36.8086C82.4081 36.4717 83.0874 36.3033 83.8413 36.3033C84.5951 36.3033 85.2558 36.4717 85.8421 36.7992C86.4284 37.1267 86.8938 37.5945 87.2195 38.2027C87.5452 38.8109 87.7127 39.5033 87.7127 40.2893C87.7127 40.4109 87.7034 40.5887 87.6848 40.8226H87.6755ZM82.3709 38.2589C81.9707 38.6051 81.7287 39.0542 81.645 39.6249H85.991C85.9166 39.0635 85.6746 38.6144 85.2838 38.2682C84.8929 37.922 84.3996 37.7442 83.8226 37.7442C83.2457 37.7442 82.7617 37.9127 82.3615 38.2589H82.3709ZM89.5368 43.9571C88.9412 43.7887 88.4665 43.5828 88.1129 43.3396L88.8016 41.9641C89.1459 42.198 89.5647 42.3852 90.0393 42.5162C90.5232 42.6565 90.9979 42.722 91.4725 42.722C92.5427 42.722 93.0825 42.4413 93.0825 41.8705C93.0825 41.5992 92.9429 41.4121 92.673 41.3091C92.4031 41.2062 91.9657 41.1033 91.3608 41.0097C90.728 40.9162 90.2161 40.8039 89.816 40.6822C89.4158 40.5606 89.0715 40.336 88.783 40.0273C88.4945 39.7185 88.3456 39.2787 88.3456 38.7173C88.3456 37.9875 88.6527 37.398 89.2576 36.9583C89.8625 36.5185 90.6908 36.3033 91.7238 36.3033C92.2542 36.3033 92.7754 36.3594 93.3059 36.4811C93.8363 36.6027 94.2644 36.7618 94.5994 36.9676L93.9108 38.3431C93.2593 37.9594 92.5241 37.7629 91.7145 37.7629C91.184 37.7629 90.7838 37.8378 90.5139 37.9969C90.2441 38.1559 90.1045 38.3618 90.1045 38.6238C90.1045 38.9138 90.2534 39.1197 90.5419 39.2413C90.8304 39.3629 91.2864 39.4752 91.9006 39.5782C92.5148 39.6717 93.0174 39.784 93.4082 39.915C93.7991 40.0366 94.1341 40.2518 94.4226 40.5513C94.7018 40.8507 94.8414 41.2717 94.8414 41.8238C94.8414 42.5442 94.5343 43.1243 93.9108 43.5548C93.2873 43.9852 92.4404 44.2004 91.3701 44.2004C90.7466 44.2004 90.1417 44.1162 89.5461 43.9571H89.5368ZM100.565 43.6858C100.351 43.8635 100.1 43.9852 99.8017 44.0787C99.5039 44.1629 99.1782 44.2097 98.8432 44.2097C97.9963 44.2097 97.3541 43.9852 96.8888 43.5454C96.4328 43.1056 96.2001 42.46 96.2001 41.6086V37.9033H94.9345V36.4624H96.2001V34.7033H97.9963V36.4624H100.053V37.9033H97.9963V41.5711C97.9963 41.9454 98.0893 42.2355 98.2662 42.432C98.443 42.6284 98.7129 42.7314 99.0572 42.7314C99.4574 42.7314 99.7924 42.6284 100.062 42.4132L100.565 43.6951V43.6858Z" fill="white"/>
<path d="M36.7602 0H10.9815C4.91377 0 0 4.94035 0 11.0409V36.9591C0 43.0596 4.91377 48 10.9815 48C17.0493 48 36.7602 48 36.7602 48C42.828 48 47.7418 43.0596 47.7418 36.9591V11.0409C47.7418 4.94035 42.828 0 36.7602 0ZM21.8793 33.5251C21.8793 35.0409 21.0324 36.4257 19.683 37.0994L13.9224 39.9906V31.4667C13.9224 29.9509 14.7692 28.5661 16.1187 27.8924L21.8793 25.0012V33.5251ZM33.8194 27.5275C33.8194 29.0433 32.9632 30.4281 31.6231 31.1111L25.8625 34.0023V14.4749C25.8625 12.9591 26.7093 11.5743 28.0588 10.9006L33.8194 8.00936V27.5275ZM70.0771 13.1368V7.6538C70.0771 6.3345 70.8216 5.12749 71.9942 4.53801L77.0104 2.02105C77.0104 8.44912 77.0104 14.8772 77.0104 21.2959C77.0104 22.7462 76.8522 24.1684 76.2752 25.5064C75.3818 27.6023 73.7438 28.8094 71.6127 29.4269C70.6076 29.717 69.5839 29.8667 68.5509 29.8854C67.0246 29.9134 65.8706 29.8947 64.3444 29.8947C64.2885 29.8947 59.7656 29.8947 59.6819 29.8854V23.8035H67.2201C68.8673 23.6912 69.8072 22.6152 69.9934 20.9591C70.0492 20.4725 70.0771 19.9766 70.0771 19.4901V13.1462V13.1368ZM126.865 18.7134C127.284 20.1825 127.358 21.7637 127.209 23.2889C126.976 25.6842 125.794 27.462 123.719 28.6316C121.932 29.6421 119.969 29.9977 117.968 30.1567C116.721 30.2503 115.315 30.2503 114.059 30.1567C112.049 30.007 110.095 29.6421 108.308 28.6316C106.232 27.462 105.041 25.6936 104.818 23.2889C104.743 22.5216 104.753 21.9415 104.753 21.1462H111.537C111.537 21.4082 111.537 21.4456 111.537 21.6889C111.556 23.186 112.114 23.9813 113.557 24.3275C115.12 24.7111 116.916 24.7111 118.48 24.3275C119.959 23.9626 120.508 23.0643 120.536 21.6795C120.536 21.455 120.499 21.2304 120.453 20.9871C120.313 20.3696 119.866 19.986 119.327 19.6959C118.489 19.2468 117.056 19.0596 116.134 18.8725C114.376 18.5076 112.617 18.1801 110.876 17.7591C109.62 17.4596 108.447 16.9544 107.396 16.1778C107.247 16.0655 107.107 15.9532 106.968 15.8316C106.111 15.0643 105.497 14.1099 105.172 12.9591C104.883 11.9579 104.753 10.9754 104.771 9.9462C104.771 9.51579 104.781 9.10409 104.827 8.61754C105.06 6.21286 106.242 4.44444 108.317 3.27485C110.104 2.26433 112.068 1.90877 114.068 1.74971C115.315 1.65614 116.721 1.65614 117.977 1.74971C119.987 1.89942 121.942 2.26433 123.728 3.27485C125.804 4.44444 126.995 6.21286 127.218 8.61754C127.293 9.3848 127.284 9.96491 127.284 10.7602H120.499C120.499 10.4982 120.499 10.4608 120.499 10.2175C120.481 8.72047 119.913 7.9345 118.48 7.57895C116.907 7.19532 115.129 7.19532 113.557 7.57895C112.496 7.84094 111.909 8.3462 111.677 9.19766C111.556 9.63743 111.565 10.1708 111.677 10.6854C111.816 11.3029 112.263 11.6865 112.803 11.9766C113.64 12.4257 114.99 12.6129 115.902 12.8C117.661 13.1649 119.42 13.4924 121.16 13.9135C122.416 14.2129 123.589 14.7275 124.64 15.4947C124.789 15.607 124.929 15.7193 125.069 15.8409C125.925 16.6082 126.539 17.5626 126.865 18.7134ZM138.144 21.0339L142.006 11.2749L145.868 21.0339H138.135H138.144ZM149.386 29.9041H156.748L145.71 2.02105H138.33L127.293 29.9041H134.654L136.162 26.1053H147.906L149.414 29.9041H149.386ZM95.2137 19.6678V2.0117H102.147V17.7029C102.147 20.8094 101.793 23.9813 99.8296 26.4982C99.1038 27.4246 98.2476 28.2386 97.2425 28.8281C95.6418 29.7544 92.7568 30.2035 90.8769 30.2035C88.997 30.2035 86.112 29.7544 84.5113 28.8281C83.4969 28.2386 82.6407 27.4246 81.9242 26.4982C79.9605 23.9813 79.6069 20.8187 79.6069 17.7029V2.0117H86.5401V19.6585C86.5401 22.3251 88.085 24.4491 90.8769 24.4491C93.6688 24.4491 95.2137 22.3158 95.2137 19.6585V19.6678ZM181 2.0117V29.8947H174.067C173.75 29.3427 165.496 14.3251 165.402 14.1661V29.8947H158.469V2.0117H165.402C165.402 2.0117 173.732 17.1602 174.067 17.7403V2.0117H181Z" fill="white"/>
</g>
<defs>
<clipPath id="clip0_232_7186">
<rect width="181" height="48" fill="white"/>
</clipPath>
</defs>
</svg>
