<svg width="60" height="60" viewBox="0 0 60 60" fill="none" xmlns="http://www.w3.org/2000/svg">
<path fill-rule="evenodd" clip-rule="evenodd" d="M18.5941 6.42684C18.5911 6.42584 18.5871 6.42584 18.5831 6.42584C16.2911 6.29884 13.8551 7.03084 11.8971 8.67484C9.93909 10.3178 8.79511 12.5888 8.52111 14.8678C8.52011 14.8718 8.5201 14.8758 8.5191 14.8798C8.3191 16.7388 7.34411 18.4278 5.83511 19.5308C5.83211 19.5328 5.8291 19.5348 5.8251 19.5378C3.9881 20.9138 2.59311 23.0398 2.14911 25.5578C1.70511 28.0758 2.28909 30.5508 3.54409 32.4728C3.54609 32.4758 3.54811 32.4788 3.55111 32.4828C4.59211 34.0358 4.9311 35.9548 4.4841 37.7708C4.4831 37.7748 4.48211 37.7788 4.48111 37.7818C3.95811 40.0168 4.25609 42.5428 5.53509 44.7568C6.81309 46.9708 8.85109 48.4918 11.0481 49.1568C11.0511 49.1588 11.0551 49.1598 11.0591 49.1608C12.8551 49.6808 14.3491 50.9338 15.1731 52.6118C15.1751 52.6158 15.1771 52.6188 15.1781 52.6228C16.2151 54.6708 18.0671 56.4138 20.4691 57.2878C22.8711 58.1628 25.4101 58.0178 27.5211 57.1158C27.5241 57.1138 27.5281 57.1118 27.5321 57.1108C29.2421 56.3548 31.1911 56.3548 32.9021 57.1098C32.9051 57.1118 32.9091 57.1128 32.9121 57.1148C35.0231 58.0178 37.5621 58.1628 39.9641 57.2878C42.3661 56.4138 44.2181 54.6708 45.2551 52.6228C45.2571 52.6198 45.2591 52.6158 45.2601 52.6118C46.0841 50.9338 47.5781 49.6808 49.3731 49.1598C49.3771 49.1588 49.3811 49.1578 49.3851 49.1568C51.5821 48.4918 53.6201 46.9708 54.8981 44.7568C56.1761 42.5428 56.4741 40.0178 55.9531 37.7818C55.9521 37.7778 55.9511 37.7738 55.9501 37.7698C55.5021 35.9548 55.8411 34.0348 56.8821 32.4818C56.8841 32.4788 56.8861 32.4758 56.8881 32.4718C58.1441 30.5508 58.7271 28.0758 58.2831 25.5578C57.8401 23.0398 56.4451 20.9138 54.6081 19.5368C54.6051 19.5348 54.6011 19.5328 54.5981 19.5298C53.0891 18.4268 52.1141 16.7388 51.9131 14.8798C51.9121 14.8758 51.9121 14.8718 51.9111 14.8678C51.6381 12.5888 50.4941 10.3178 48.5361 8.67484C46.5781 7.03184 44.1421 6.29884 41.8501 6.42484C41.8461 6.42484 41.8421 6.42584 41.8381 6.42584C39.9731 6.55084 38.1411 5.88484 36.7921 4.58984C36.7891 4.58684 36.7861 4.58484 36.7841 4.58184C35.1091 3.01184 32.7731 2.00684 30.2161 2.00684C27.6601 2.00684 25.3241 3.01184 23.6491 4.58084C23.6461 4.58384 23.6431 4.58684 23.6401 4.58984C22.2921 5.88484 20.4601 6.55184 18.5941 6.42684ZM18.4701 8.42284C20.8911 8.58184 23.2671 7.71684 25.0191 6.03784C26.3441 4.79684 28.1941 4.00684 30.2161 4.00684C32.2391 4.00684 34.0881 4.79684 35.4131 6.03884C37.1651 7.71684 39.5421 8.58184 41.9631 8.42184C43.7761 8.32284 45.7011 8.90684 47.2501 10.2068C48.7991 11.5068 49.7081 13.3008 49.9251 15.1038C50.1881 17.5158 51.4531 19.7058 53.4111 21.1388C54.8631 22.2288 55.9631 23.9138 56.3141 25.9048C56.6651 27.8968 56.2081 29.8558 55.2151 31.3758C53.8661 33.3928 53.4281 35.8838 54.0061 38.2398C54.4181 40.0088 54.1771 42.0058 53.1661 43.7568C52.1551 45.5078 50.5461 46.7148 48.8081 47.2418C46.4781 47.9198 44.5411 49.5458 43.4691 51.7218C42.6481 53.3418 41.1801 54.7168 39.2801 55.4088C37.3801 56.1008 35.3711 55.9908 33.7011 55.2768C31.4811 54.2988 28.9521 54.2988 26.7321 55.2778C25.0621 55.9908 23.0531 56.1008 21.1531 55.4088C19.2531 54.7168 17.7851 53.3418 16.9641 51.7218C15.8921 49.5458 13.9541 47.9198 11.6251 47.2428C9.88712 46.7148 8.27812 45.5078 7.26712 43.7568C6.25612 42.0058 6.0151 40.0088 6.4281 38.2398C7.0061 35.8838 6.5661 33.3928 5.2171 31.3768C4.2251 29.8558 3.76811 27.8968 4.11911 25.9048C4.47011 23.9138 5.57009 22.2288 7.02209 21.1398C8.98009 19.7058 10.2441 17.5158 10.5071 15.1038C10.7241 13.3008 11.6331 11.5068 13.1831 10.2068C14.7321 8.90684 16.6571 8.32284 18.4701 8.42284ZM30.0021 10.0068C18.9631 10.0068 10.0021 18.9688 10.0021 30.0068C10.0021 41.0448 18.9631 50.0068 30.0021 50.0068C41.0401 50.0068 50.0021 41.0448 50.0021 30.0068C50.0021 18.9688 41.0401 10.0068 30.0021 10.0068ZM30.0021 12.0068C39.9361 12.0068 48.0021 20.0728 48.0021 30.0068C48.0021 39.9408 39.9361 48.0068 30.0021 48.0068C20.0671 48.0068 12.0021 39.9408 12.0021 30.0068C12.0021 20.0728 20.0671 12.0068 30.0021 12.0068ZM28.1801 17.1018L24.9341 23.3018L18.0341 24.4738C17.2801 24.6018 16.6591 25.1378 16.4231 25.8658C16.1861 26.5928 16.3731 27.3918 16.9081 27.9388L21.8021 32.9418L20.7841 39.8658C20.6731 40.6228 20.9911 41.3788 21.6091 41.8288C22.2281 42.2778 23.0461 42.3468 23.7311 42.0068L30.0021 38.8998L36.2721 42.0068C36.9581 42.3468 37.7751 42.2778 38.3941 41.8288C39.0131 41.3788 39.3311 40.6228 39.2201 39.8658L38.2021 32.9418L43.0951 27.9388C43.6301 27.3918 43.8171 26.5928 43.5811 25.8658C43.3441 25.1378 42.7231 24.6018 41.9691 24.4738L35.0701 23.3018L31.8231 17.1018C31.4681 16.4248 30.7671 15.9998 30.0021 15.9998C29.2371 15.9998 28.5351 16.4248 28.1801 17.1018ZM26.4761 24.6688L29.9521 18.0298C29.9621 18.0118 29.9811 17.9998 30.0021 17.9998C30.0231 17.9998 30.0421 18.0118 30.0511 18.0298L33.5281 24.6688C33.6731 24.9458 33.9381 25.1388 34.2461 25.1908L41.6351 26.4458C41.6551 26.4488 41.6721 26.4638 41.6781 26.4838C41.6851 26.5038 41.6801 26.5248 41.6651 26.5398L36.4251 31.8978C36.2071 32.1208 36.1061 32.4338 36.1511 32.7428L37.2411 40.1568C37.2441 40.1778 37.2351 40.1978 37.2181 40.2108C37.2011 40.2228 37.1791 40.2248 37.1601 40.2148L30.4461 36.8878C30.1661 36.7488 29.8371 36.7488 29.5581 36.8878L22.8431 40.2148C22.8241 40.2248 22.8021 40.2228 22.7851 40.2108C22.7681 40.1978 22.7601 40.1778 22.7631 40.1568L23.8521 32.7428C23.8981 32.4338 23.7961 32.1208 23.5781 31.8978L18.3381 26.5398C18.3241 26.5248 18.3191 26.5038 18.3251 26.4838C18.3311 26.4638 18.3481 26.4488 18.3691 26.4458L25.7571 25.1908C26.0651 25.1388 26.3311 24.9458 26.4761 24.6688Z" fill="url(#paint0_linear_136_459)"/>
<defs>
<linearGradient id="paint0_linear_136_459" x1="17.0021" y1="19.0068" x2="48.7803" y2="49.0068" gradientUnits="userSpaceOnUse">
<stop stop-color="#0099FA"/>
<stop offset="1" stop-color="#0053FA"/>
</linearGradient>
</defs>
</svg>
