<svg width="56" height="56" xmlns="http://www.w3.org/2000/svg" xmlns:xlink="http://www.w3.org/1999/xlink"><defs><linearGradient x1="14.555%" y1="9.542%" x2="81.054%" y2="94.059%" id="linearGradient-2"><stop stop-color="#FFF" offset="0%"/><stop stop-color="#ADD9FF" offset="100%"/></linearGradient><linearGradient x1="78.693%" y1="3.049%" x2="60.623%" y2="87.212%" id="linearGradient-5"><stop stop-color="#002C57" offset="0%"/><stop stop-color="#002C57" stop-opacity=".405" offset="100%"/></linearGradient><filter x="-21%" y="-21%" width="142%" height="142%" filterUnits="objectBoundingBox" id="filter-1"><feOffset dy="2" in="SourceAlpha" result="shadowOffsetOuter1"/><feGaussianBlur stdDeviation="1.5" in="shadowOffsetOuter1" result="shadowBlurOuter1"/><feColorMatrix values="0 0 0 0 0.0862745098 0 0 0 0 0.325490196 0 0 0 0 0.745098039 0 0 0 0.397563374 0" in="shadowBlurOuter1" result="shadowMatrixOuter1"/><feMerge><feMergeNode in="shadowMatrixOuter1"/><feMergeNode in="SourceGraphic"/></feMerge></filter><path d="M24.986 49.98c13.801 0 24.99-11.189 24.99-24.99C49.976 11.188 38.787 0 24.986 0 11.336 0 .243 10.943 0 24.534c-.003.152.143.601.216.674l11.808 11.724a1 1 0 001.324.075l28.325-22.351a.5.5 0 01.702.701l-25.83 32.799c-.122.16-.082.329.037.375a24.947 24.947 0 008.404 1.449z" id="path-3"/></defs><g id="Page-1" stroke="none" stroke-width="1" fill="none" fill-rule="evenodd"><g id="IE_home_xl_long_form" transform="translate(-1412 -250)"><g id="Form_side" transform="translate(1215 231)"><g id="ic_ie_tag_1" filter="url(#filter-1)" transform="translate(200 20)"><mask id="mask-4" fill="#fff"><use xlink:href="#path-3"/></mask><use id="Oval-Copy-2" fill="url(#linearGradient-2)" fill-rule="nonzero" xlink:href="#path-3"/><path id="Rectangle" fill="url(#linearGradient-5)" fill-rule="nonzero" opacity=".483" style="mix-blend-mode:overlay" mask="url(#mask-4)" d="M41.947 15l.516.2-9.561 36.473H21.393l-6.712-3.855z"/></g></g></g></g></svg>