<?xml version="1.0" encoding="UTF-8"?>
<svg width="70px" height="62px" viewBox="0 0 70 62" version="1.1" xmlns="http://www.w3.org/2000/svg" xmlns:xlink="http://www.w3.org/1999/xlink">
    <!-- Generator: Sketch 52.4 (67378) - http://www.bohemiancoding.com/sketch -->
    <title>Group</title>
    <desc>Created with Sketch.</desc>
    <g id="Page-1" stroke="none" stroke-width="1" fill="none" fill-rule="evenodd">
        <g id="Depositphotos_96671494_vect" transform="translate(-309.000000, -233.000000)" fill="#BBBBBB">
            <g id="Group" transform="translate(309.000000, 233.000000)">
                <path d="M19.636,22.147 C20.157,21.66 20.714,21.243 21.321,20.891 C21.458,20.811 21.522,20.676 21.424,20.533 C21.311,20.368 21.119,20.282 20.973,20.441 C20.485,20.97 19.84,21.384 19.636,22.147 Z M24.82,20.784 C24.318,21.589 24.22,22.232 24.211,23.067 C24.861,22.41 25.104,21.806 24.82,20.784 Z M26.067,22.398 C26.62,21.781 26.889,21.063 26.805,20.266 C26.744,19.678 26.285,19.336 25.733,19.169 C25.488,19.094 25.215,19.092 25.05,19.342 C24.847,19.647 25.091,19.801 25.3,19.943 C25.951,20.385 26.129,20.993 25.966,21.737 C25.923,21.935 25.81,22.151 26.067,22.398 Z M9.034,19.028 C8.022,18.945 6.315,20.05 5.998,20.984 C5.94,21.156 5.911,21.339 6.073,21.477 C6.237,21.618 6.417,21.571 6.564,21.459 C7.415,20.81 8.255,20.147 8.957,19.33 C9.016,19.26 9.009,19.132 9.034,19.028 Z M16.378,23.063 C17.071,23.186 17.677,23.228 18.076,22.762 C18.895,21.807 19.67,20.815 20.6,19.959 C20.716,19.853 20.744,19.707 20.631,19.578 C20.413,19.328 20.157,19.129 19.807,19.118 C19.65,19.113 19.533,19.193 19.531,19.371 C19.524,20.008 19.012,20.283 18.615,20.63 C17.81,21.334 17.049,22.072 16.378,23.063 Z M18.077,18.758 C17.789,18.731 17.553,18.793 17.518,19.121 C17.472,19.569 17.132,19.798 16.85,20.068 C16.121,20.766 15.382,21.454 14.646,22.145 C14.439,22.34 14.151,22.512 14.499,22.833 C14.756,23.071 14.974,23.434 15.371,23.032 C16.562,21.828 17.757,20.626 18.94,19.413 C19.129,19.219 19.086,19.004 18.813,18.915 C18.576,18.838 18.323,18.809 18.077,18.758 Z M16.913,18.749 C15.483,18.355 14.005,18.22 12.495,18.294 C11.726,18.332 10.993,18.355 10.556,19.158 C10.448,19.355 10.166,19.462 9.956,19.599 C8.868,20.306 7.873,21.131 6.917,22.002 C6.484,22.396 6.558,22.631 7.108,22.832 C7.208,22.869 7.314,22.907 7.419,22.914 C9.091,23.031 10.753,23.441 12.446,22.999 C12.851,22.893 13.169,22.76 13.458,22.47 C14.497,21.426 15.551,20.397 16.596,19.359 C16.742,19.213 16.958,19.103 16.913,18.749 Z M14.219,13.996 C12.478,13.904 10.573,14.278 8.708,14.828 C6.609,15.446 4.986,16.697 4.066,18.735 C3.823,19.273 3.854,19.852 3.977,20.434 C4.07,20.872 4.344,20.965 4.727,21.061 C5.181,21.175 5.26,20.919 5.427,20.615 C6.002,19.57 6.864,18.778 7.956,18.347 C8.886,17.98 9.887,17.762 10.875,17.578 C13.402,17.107 15.896,17.619 18.402,17.882 C19.913,18.041 21.195,18.513 22.118,19.766 C22.16,19.824 22.21,19.878 22.265,19.924 C22.514,20.132 22.705,20.076 22.888,19.814 C23.573,18.833 23.454,16.908 22.581,16.089 C22.006,15.55 21.376,15.061 20.675,14.678 C20.124,14.375 19.568,14.161 18.925,14.382 C18.644,14.478 18.351,14.413 18.072,14.334 C16.883,13.994 15.677,13.84 14.219,13.996 Z M4.606,23.301 C4.452,23.554 4.508,23.684 4.547,23.823 C4.892,25.063 5.685,25.97 6.687,26.725 C8.295,27.937 9.981,28.913 12.104,28.817 C13.431,28.757 14.759,28.82 16.091,28.716 C17.221,28.628 18.3,28.415 19.37,28.091 C20.039,27.889 20.618,27.526 21.056,26.973 C22.144,25.603 22.798,24.004 23.434,22.399 C23.579,22.032 23.678,21.64 23.648,21.237 C23.63,21.001 23.714,20.664 23.369,20.627 C23.112,20.6 23.058,20.89 23.005,21.094 C22.904,21.487 22.798,21.941 22.397,22.063 C21.389,22.369 20.567,23.034 19.575,23.381 C17.175,24.22 14.685,24.317 12.211,24.231 C9.668,24.142 7.108,23.988 4.606,23.301 Z M3.872,25.269 C3.585,25.49 3.662,25.869 3.372,26.087 C2.758,26.549 2.432,27.251 2.021,27.885 C1.116,29.282 1.262,30.42 2.806,31.5 C4.148,32.44 5.677,33.155 7.336,33.424 C9.788,33.821 12.271,33.814 14.744,33.944 C16.794,34.051 18.747,33.584 20.708,33.124 C20.98,33.06 21.273,32.974 21.473,32.743 C21.85,32.307 22.366,32.14 22.9,32.037 C23.916,31.841 24.781,31.378 25.6,30.746 C26.321,30.19 26.965,29.542 27.513,28.855 C28.772,27.276 28.402,25.815 26.734,24.756 C26.15,24.386 25.55,24.352 24.941,24.854 C24.137,25.517 23.271,26.107 22.425,26.717 C22.121,26.936 21.899,27.203 21.772,27.555 C21.6,28.031 21.231,28.4 20.783,28.488 C19.582,28.724 18.461,29.245 17.223,29.36 C15.029,29.563 12.833,29.529 10.637,29.537 C9.895,29.539 8.986,29.626 8.462,29.128 C7.379,28.1 6.093,27.37 4.945,26.446 C4.525,26.108 4.414,25.494 3.872,25.269 Z M13.156,34.742 C11.385,34.893 9.391,34.569 7.393,34.272 C6.887,34.197 6.414,34.063 5.94,33.876 C5.074,33.534 4.231,33.141 3.342,32.839 C2.06,32.404 1.311,31.278 0.523,30.25 C0.425,30.122 0.387,29.891 0.422,29.729 C0.622,28.791 0.657,27.816 1.336,27.011 C2.051,26.165 2.442,25.069 3.369,24.369 C3.759,24.074 3.595,23.642 3.445,23.271 C2.896,21.916 3.116,20.498 3.112,19.105 C3.108,17.6 4.148,16.663 5.227,15.89 C6.813,14.753 8.549,13.847 10.508,13.519 C11.53,13.348 12.577,13.32 13.606,13.212 C15.504,13.014 17.345,13.391 19.196,13.567 C21.256,13.763 22.921,14.758 23.869,16.746 C24.216,17.473 24.637,18.079 25.709,18.042 C27.249,17.989 28.293,19.8 27.752,21.372 C27.542,21.983 27.316,22.605 26.921,23.122 C26.549,23.609 26.695,23.894 27.167,24.145 C27.293,24.212 27.403,24.31 27.522,24.39 C29.09,25.455 29.407,27.343 28.306,28.892 C27.354,30.23 26.212,31.42 24.861,32.291 C23.923,32.896 22.914,33.529 21.754,33.75 C18.998,34.275 16.259,34.933 13.156,34.742 Z" id="Fill-383"></path>
                <path d="M50.509,13.154 C50.515,13.334 50.495,13.539 50.66,13.651 C51.64,14.315 52.497,15.175 53.68,15.511 C53.991,15.6 54.318,15.683 54.589,15.849 C56.5,17.022 58.657,17.708 60.577,18.851 C62.087,19.749 63.691,20.525 64.89,21.887 C65.189,22.226 65.663,22.408 66.049,22.673 C66.304,22.849 66.721,23.015 66.434,23.403 C66.194,23.728 65.841,23.542 65.564,23.35 C65.029,22.98 64.534,22.567 64.069,22.107 C62.773,20.823 61.19,19.96 59.582,19.142 C59.431,19.065 59.243,19.06 59.084,19.024 C58.868,19.347 59.14,19.451 59.284,19.565 C60.381,20.444 61.505,21.288 62.705,22.023 C63.173,22.309 63.603,22.628 63.892,23.104 C63.971,23.235 63.979,23.378 63.86,23.498 C63.735,23.624 63.602,23.6 63.476,23.502 C62.058,22.4 60.517,21.463 59.15,20.291 C58.518,19.748 57.826,19.28 57.086,18.912 C55.723,18.236 54.446,17.425 53.204,16.558 C52.308,15.932 51.281,15.57 50.343,15.032 C48.186,13.796 46.011,12.593 43.864,11.338 C42.071,10.291 40.188,9.393 38.18,8.745 C36.752,8.285 35.438,7.476 34.073,6.821 C33.903,6.74 33.741,6.623 33.768,6.421 C33.808,6.131 34.064,6.19 34.271,6.151 C35.523,5.915 36.619,6.456 37.695,6.916 C39.06,7.5 40.5,7.832 41.885,8.338 C42.154,8.437 42.466,8.463 42.699,8.614 C44.07,9.511 45.66,9.917 47.115,10.626 C47.827,10.973 48.556,11.286 49.177,11.796 C49.778,12.288 50.544,12.434 51.227,12.756 C52.726,13.463 54.175,14.319 55.737,14.834 C57.369,15.373 58.786,16.273 60.307,16.993 C61.793,17.697 63.041,18.725 64.388,19.614 C65.087,20.074 65.765,20.514 66.568,20.777 C67.111,20.954 67.617,21.252 68.124,21.525 C68.545,21.752 68.63,22.109 68.411,22.534 C68.234,22.877 67.928,22.945 67.767,22.619 C67.388,21.856 66.687,21.614 65.978,21.336 C64.524,20.765 63.325,19.77 62.063,18.89 C61.441,18.456 60.871,17.959 60.133,17.723 C60.099,17.712 60.063,17.702 60.033,17.684 C57.071,15.958 53.81,14.876 50.752,13.357 C50.658,13.31 50.586,13.221 50.5,13.153 C50.259,13.27 50.05,12.909 49.805,13.114 C50.034,13.274 50.272,13.204 50.509,13.154" id="Fill-384"></path>
                <path d="M60.986,39.402 C60.655,40.31 60.173,40.942 59.817,41.631 C59.307,42.616 58.663,43.538 58.021,44.447 C57.541,45.128 57.113,45.811 56.831,46.609 C56.468,47.633 55.738,48.469 55.18,49.393 C54.174,51.055 52.946,52.567 51.811,54.142 C51.39,54.727 50.994,55.33 50.691,55.99 C50.165,57.136 49.185,58.013 48.776,59.233 C48.663,59.569 48.341,59.733 48.023,59.795 C47.014,59.99 45.998,60.235 44.965,59.992 C44.591,59.905 44.446,60.154 44.243,60.342 C43.879,60.678 43.649,61.119 43.157,61.365 C42.23,61.829 42.06,61.882 41.25,61.214 C40.803,60.846 40.392,60.447 39.804,60.542 C39.691,60.373 39.685,60.249 39.766,60.181 C41.038,59.101 42.007,57.755 43.045,56.469 C44.222,55.012 45.547,53.683 46.693,52.197 C48.149,50.309 49.459,48.33 50.643,46.263 C52.274,43.414 54.023,40.638 55.929,37.968 C57.692,35.498 59.182,32.865 60.724,30.264 C61.749,28.536 62.918,26.862 63.343,24.837 C63.385,24.637 63.452,24.367 63.746,24.462 C63.998,24.543 63.999,24.813 63.95,25.017 C63.69,26.111 63.26,27.139 62.687,28.109 C61.331,30.403 59.959,32.689 58.633,35.002 C57.841,36.384 56.83,37.61 55.956,38.934 C53.989,41.913 52.129,44.957 50.305,48.026 C48.793,50.572 47.062,52.96 45.057,55.155 C43.819,56.511 42.719,57.99 41.54,59.4 C41.276,59.716 41.158,60.006 41.407,60.367 C41.688,60.775 42.084,61.01 42.567,61.085 C42.72,61.108 42.799,60.961 42.901,60.856 C43.955,59.774 44.953,58.642 45.853,57.43 C47.595,55.084 49.673,53.006 51.328,50.595 C53.18,47.896 55.106,45.243 56.745,42.405 C57.683,40.783 58.579,39.134 59.426,37.463 C59.917,36.494 60.51,35.594 61.062,34.666 C62.633,32.023 63.91,29.239 65.019,26.376 C65.285,25.69 65.756,25.14 66.104,24.511 C66.21,24.318 66.42,24.147 66.637,24.293 C66.898,24.469 66.738,24.696 66.553,24.81 C66.033,25.131 65.985,25.692 65.777,26.183 C64.38,29.466 62.986,32.764 60.973,35.723 C59.887,37.318 59.227,39.105 58.289,40.761 C57.1,42.861 55.84,44.916 54.502,46.921 C53.081,49.049 51.798,51.298 50.066,53.181 C48.521,54.861 47.316,56.792 45.81,58.491 C45.585,58.745 45.162,59.049 45.349,59.394 C45.582,59.82 45.985,59.375 46.316,59.361 C46.567,59.351 46.814,59.275 47.065,59.256 C47.901,59.194 48.475,58.743 48.858,58.035 C50.074,55.781 51.414,53.625 53.014,51.602 C54.323,49.946 55.457,48.124 56.397,46.208 C56.924,45.135 57.648,44.19 58.325,43.212 C59,42.236 59.563,41.183 60.181,40.169 C60.344,39.903 60.435,39.566 60.986,39.402" id="Fill-385"></path>
                <path d="M24.694,38.266 C23.131,37.228 22.426,37.429 22.107,38.808 C22.066,38.984 21.999,39.163 22.162,39.306 C22.321,39.444 22.497,39.381 22.665,39.313 C23.33,39.044 23.839,38.511 24.694,38.266 Z M20.975,45.549 C21.338,44.874 21.847,44.634 22.436,44.537 C23.185,44.414 23.936,44.315 24.525,43.756 C24.628,43.658 24.794,43.667 24.983,43.828 C24.654,44.378 24.379,44.908 23.644,45.155 C23.187,45.309 22.912,45.22 22.566,45.022 C22.443,44.951 22.271,44.949 22.171,45.082 C22.066,45.223 22.155,45.365 22.256,45.461 C22.834,46.014 23.552,46.364 24.23,46.768 C24.43,46.887 24.656,46.824 24.815,46.638 C24.907,46.529 25.012,46.413 25.055,46.282 C25.571,44.726 26.591,43.444 27.356,42.024 C27.549,41.665 27.668,41.296 27.657,40.89 C27.64,40.314 26.388,38.928 25.806,38.828 C25.654,38.801 25.505,38.813 25.401,38.917 C24.615,39.697 23.529,39.806 22.569,40.196 C22.213,40.341 21.751,40.305 21.549,40.725 C21.266,41.314 21.052,41.933 21.042,42.59 C21.037,42.943 21.334,42.951 21.601,42.894 C22.587,42.685 23.574,42.479 24.557,42.252 C24.942,42.163 25.439,41.935 25.584,42.428 C25.732,42.934 25.152,43.041 24.803,43.12 C24.173,43.264 23.52,43.305 22.876,43.388 C22.233,43.471 21.594,43.556 20.97,43.755 C20.325,43.959 20.121,43.774 20.152,43.081 C20.182,42.429 20.417,41.806 20.484,41.166 C20.621,39.847 21.387,38.791 21.863,37.617 C22.083,37.076 22.592,36.85 23.193,36.863 C23.713,36.874 24.199,37.015 24.636,37.274 C25.626,37.863 26.656,38.389 27.567,39.108 C28.585,39.91 28.842,40.759 28.272,41.945 C27.931,42.652 27.585,43.361 27.068,43.987 C26.325,44.886 25.951,45.998 25.531,47.073 C25.011,48.405 24.921,48.421 23.897,47.48 C23.049,46.702 22.166,45.967 20.975,45.549 Z" id="Fill-386"></path>
                <path d="M45.906,25.462 C46.506,25.869 46.596,26.46 46.418,27.115 C46.284,27.606 46.17,28.098 46.174,28.604 C46.179,29.251 46.508,29.546 47.049,29.288 C47.568,29.042 48.162,29.006 48.632,28.637 C49.468,27.981 50.353,28.326 51.203,28.599 C51.586,28.722 51.724,29.083 51.599,29.487 C51.546,29.661 51.435,29.812 51.222,29.818 C51.03,29.822 51.026,29.654 50.958,29.533 C50.656,28.994 50.085,28.819 49.557,29.082 C49.258,29.231 49.258,29.486 49.361,29.725 C49.519,30.092 49.79,30.389 50.076,30.666 C50.502,31.078 50.78,31.587 50.944,32.142 C51.099,32.664 50.897,33.078 50.385,33.107 C49.349,33.167 48.301,33.121 47.407,32.468 C47.175,32.298 46.963,32.083 46.905,31.785 C46.869,31.603 46.911,31.419 47.114,31.338 C47.289,31.268 47.401,31.386 47.447,31.519 C47.634,32.056 48.129,32.242 48.55,32.504 C49.019,32.795 49.469,32.518 49.882,32.353 C50.167,32.24 50.081,31.914 49.92,31.698 C49.576,31.236 49.197,30.8 48.857,30.335 C48.207,29.444 48.214,29.437 47.164,29.869 C46.965,29.951 46.778,30.069 46.575,30.136 C45.979,30.333 45.585,30.135 45.405,29.55 C45.353,29.379 45.366,29.19 45.32,29.017 C45.23,28.678 45.028,28.638 44.764,28.847 C44.708,28.891 44.668,28.957 44.613,29.003 C43.751,29.727 43.235,29.543 43.035,28.422 C42.979,28.106 42.943,27.765 42.999,27.454 C43.199,26.341 43.102,25.239 43.041,24.121 C43,23.379 42.515,23.385 42.071,23.19 C41.546,22.959 41.258,23.238 40.987,23.609 C40.69,24.014 40.687,24.405 41.045,24.777 C41.12,24.855 41.205,24.925 41.273,25.008 C41.433,25.201 41.652,25.405 41.421,25.663 C41.225,25.883 41.035,25.688 40.853,25.583 C40.626,25.451 40.378,25.337 40.184,25.613 C39.942,25.957 40.059,26.231 40.422,26.396 C40.847,26.59 41.292,26.745 41.71,26.953 C41.928,27.061 42.202,27.242 42.042,27.535 C41.912,27.772 41.661,27.625 41.464,27.544 C40.501,27.143 39.537,26.741 38.574,26.338 C38.376,26.256 38.141,26.186 38.207,25.897 C38.259,25.669 38.465,25.642 38.638,25.697 C39.121,25.851 39.323,25.576 39.408,25.189 C39.617,24.237 40.226,23.527 40.759,22.756 C41.039,22.353 41.35,22.25 41.763,22.341 C42.475,22.497 43.116,22.834 43.734,23.209 C43.96,23.346 44.172,23.581 44.064,23.832 C43.689,24.709 44.017,25.623 43.871,26.508 C43.796,26.966 43.629,27.414 43.717,27.896 C43.789,28.294 43.955,28.493 44.38,28.311 C44.544,28.241 44.717,28.116 44.878,28.128 C45.453,28.17 45.528,27.795 45.565,27.376 C45.608,26.875 45.642,26.373 45.676,25.872 C45.686,25.725 45.7,25.586 45.906,25.462" id="Fill-387"></path>
                <path d="M39.507,14.882 C39.491,14.628 39.482,14.31 39.153,14.214 C38.882,14.135 38.668,14.34 38.541,14.549 C38.359,14.85 38.217,15.179 38.089,15.507 C38.02,15.682 38.06,15.861 38.291,15.915 C38.898,16.056 39.514,15.549 39.507,14.882 Z M42.591,17.018 C42.555,17.016 42.519,17.012 42.484,17.013 C41.841,17.038 41.516,17.271 41.485,17.728 C41.453,18.193 41.797,18.741 42.18,18.814 C42.768,18.926 42.867,18.436 43.066,18.076 C43.118,17.983 43.157,17.882 43.192,17.782 C43.43,17.096 43.361,17.009 42.591,17.018 Z M38.277,13.216 C39.399,12.929 39.853,13.087 40.147,13.865 C40.557,14.952 40.202,16.044 39.307,16.452 C39.274,16.467 39.237,16.477 39.209,16.498 C38.931,16.7 38.291,16.576 38.464,17.18 C38.613,17.701 39.68,18.042 40.087,17.74 C40.404,17.505 40.669,17.202 40.964,16.939 C41.556,16.411 42.125,15.853 42.96,15.712 C43.576,15.607 43.818,15.732 44.015,16.334 C44.191,16.872 44.125,17.394 43.935,17.923 C43.743,18.458 43.505,18.965 43.516,19.582 C43.526,20.126 43.003,20.497 42.693,20.924 C42.528,21.15 42.191,20.99 42.14,20.696 C41.974,19.729 41.972,19.73 41.299,19.21 C41.185,19.123 41.083,19.018 40.988,18.91 C40.682,18.564 40.453,18.543 40.136,18.955 C39.611,19.639 39.56,19.626 39.102,18.914 C38.645,18.204 37.897,17.909 37.213,17.53 C36.48,17.123 36.361,16.914 36.8,16.191 C37.384,15.231 37.821,14.203 38.303,13.195 L38.277,13.216 Z" id="Fill-388"></path>
                <path d="M14.154,49.087 C14.195,48.828 14.351,48.738 14.533,48.705 C14.799,48.655 15.015,48.784 15.234,48.923 C16.862,49.958 18.667,50.514 20.511,51.045 C23.543,51.918 26.724,52.307 29.571,53.81 C30.261,54.175 31.096,54.257 31.814,54.58 C34.018,55.573 36.113,56.759 37.995,58.294 C38.023,58.317 38.055,58.335 38.08,58.361 C38.24,58.534 38.575,58.695 38.352,58.959 C38.124,59.226 37.917,58.923 37.72,58.785 C35.019,56.912 32.203,55.261 29.059,54.225 C28.171,53.932 27.309,53.561 26.431,53.239 C25.518,52.903 24.582,52.666 23.623,52.472 C21.617,52.067 19.626,51.615 17.732,50.771 C16.686,50.305 15.594,49.929 14.538,49.473 C14.324,49.381 14.134,49.317 14.154,49.087" id="Fill-389"></path>
                <path d="M52.638,22.12 C52.538,22.07 52.427,22.045 52.364,21.976 C51.737,21.296 50.929,21.197 50.217,21.724 C49.499,22.255 49.329,23.029 49.744,23.826 C50.023,24.362 50.427,24.738 51.011,24.928 C51.518,25.093 52.014,25.293 52.532,25.484 C52.344,25.865 52.055,25.844 51.773,25.811 C50.517,25.662 49.504,25.121 48.912,23.958 C48.675,23.494 48.442,23.168 47.833,23.413 C47.47,23.559 47.227,23.294 47.076,22.974 C46.826,22.447 46.697,21.887 46.627,21.312 C46.601,21.098 46.596,20.881 46.581,20.665 C46.562,20.378 46.582,20.028 46.28,19.909 C45.898,19.758 45.704,20.117 45.513,20.36 C45.202,20.756 44.931,21.183 44.63,21.587 C44.493,21.77 44.298,21.888 44.071,21.745 C43.861,21.612 43.846,21.382 43.897,21.166 C43.929,21.032 43.997,20.887 44.093,20.791 C44.578,20.303 44.948,19.73 45.349,19.176 C45.894,18.423 46.614,18.496 47.04,19.309 C47.334,19.871 47.337,20.487 47.391,21.097 C47.421,21.442 47.362,21.931 47.764,22.021 C48.194,22.119 48.298,21.619 48.449,21.318 C48.689,20.839 48.948,20.359 48.968,19.797 C48.974,19.647 49.088,19.517 49.254,19.535 C49.489,19.561 49.5,19.741 49.478,19.935 C49.361,20.986 49.363,20.962 50.365,21.01 C50.774,21.029 51.145,20.895 51.537,20.865 C52.359,20.803 52.696,21.18 52.638,22.12" id="Fill-390"></path>
                <path d="M61.318,38.533 C61.587,37.731 62.027,36.998 62.501,36.311 C63.818,34.401 64.822,32.319 65.775,30.227 C66.669,28.266 67.609,26.314 68.284,24.256 C68.373,23.984 68.51,23.726 68.648,23.474 C68.737,23.311 68.899,23.18 69.088,23.289 C69.276,23.397 69.249,23.613 69.167,23.773 C68.259,25.531 67.951,27.554 66.761,29.19 C66.25,29.894 66.057,30.759 65.671,31.532 C64.512,33.857 63.158,36.065 61.814,38.282 C61.742,38.4 61.628,38.493 61.534,38.598 C61.462,38.576 61.39,38.554 61.318,38.533" id="Fill-391"></path>
                <path d="M38.303,13.195 C37.871,13.309 37.468,13.371 37.14,12.934 C36.827,12.517 36.295,12.404 35.873,12.136 C35.554,11.932 35.185,11.673 34.812,12.082 C34.455,12.475 34.417,13.171 34.758,13.571 C34.894,13.732 35.082,13.852 35.256,13.977 C35.435,14.104 35.612,14.232 35.669,14.454 C35.694,14.551 35.699,14.677 35.658,14.763 C35.587,14.908 35.428,14.944 35.289,14.881 C35.061,14.777 34.846,14.645 34.627,14.522 C33.892,14.108 33.834,14.128 33.597,14.897 C33.555,15.034 33.552,15.187 33.49,15.313 C33.377,15.541 33.171,15.579 32.941,15.507 C32.744,15.446 32.623,15.289 32.664,15.103 C32.739,14.754 32.828,14.399 32.978,14.077 C33.387,13.198 33.909,12.375 34.219,11.447 C34.386,10.946 34.774,10.811 35.257,10.976 C36.501,11.401 37.645,11.965 38.274,13.219 C38.277,13.216 38.303,13.195 38.303,13.195" id="Fill-392"></path>
                <path d="M58.136,23.508 C58.083,23.856 57.882,23.998 57.603,23.847 C57.29,23.679 57.037,23.4 56.726,23.226 C56.379,23.031 55.996,22.944 55.973,23.54 C55.958,23.921 55.717,24.094 55.462,24.309 C55.012,24.687 55.045,24.869 55.586,25.154 C55.871,25.303 56.205,25.369 56.426,25.626 C56.596,25.823 56.748,26.048 56.544,26.298 C56.367,26.515 56.17,26.412 55.975,26.283 C55.796,26.166 55.604,26.066 55.409,25.977 C54.921,25.753 54.5,25.734 54.285,26.355 C54.204,26.591 54.09,26.899 53.779,26.802 C53.384,26.679 53.403,26.321 53.501,25.989 C53.738,25.183 54.101,24.435 54.672,23.816 C54.966,23.497 55.09,23.184 55.043,22.749 C55,22.366 55.252,22.138 55.634,22.132 C56.602,22.119 57.346,22.616 58.024,23.236 C58.094,23.3 58.105,23.429 58.136,23.508" id="Fill-393"></path>
                <path d="M13.971,46.212 C14.037,45.975 14.086,45.685 14.196,45.422 C15.557,42.165 16.671,38.803 18.352,35.684 C18.521,35.369 18.606,34.708 19.084,34.962 C19.643,35.261 19.107,35.705 18.914,36.038 C17.881,37.821 17.126,39.73 16.345,41.628 C16.004,42.459 15.657,43.288 15.321,44.121 C15.023,44.858 14.8,45.617 14.688,46.407 C14.657,46.628 14.578,46.86 14.302,46.834 C13.956,46.801 13.98,46.509 13.971,46.212" id="Fill-394"></path>
                <path d="M31.926,7.28 C31.607,8.652 31.045,9.771 30.507,10.891 C29.712,12.543 28.849,14.161 28.046,15.808 C27.807,16.298 27.484,16.726 27.197,17.18 C27.084,17.36 26.913,17.553 26.675,17.382 C26.47,17.236 26.501,16.998 26.599,16.795 C26.724,16.536 26.861,16.281 27.017,16.041 C28.444,13.83 29.551,11.454 30.665,9.079 C30.955,8.462 31.087,7.716 31.926,7.28" id="Fill-395"></path>
                <path d="M9.317,11.654 C8.922,11.665 8.728,11.365 8.633,11.078 C8.321,10.131 7.968,9.217 8.605,8.194 C9.035,7.504 9.38,6.743 9.765,6.014 C10.527,4.573 10.421,3.029 9.983,1.5 C9.945,1.366 9.835,1.254 9.77,1.125 C9.656,0.9 9.691,0.697 9.926,0.583 C10.172,0.463 10.347,0.594 10.437,0.817 C10.725,1.524 10.871,2.269 10.916,3.025 C11.011,4.617 10.775,6.154 9.68,7.382 C8.613,8.579 8.555,9.805 9.271,11.155 C9.352,11.308 9.479,11.463 9.317,11.654" id="Fill-396"></path>
                <path d="M37.873,23.316 C37.86,23.892 37.672,24.374 37.294,24.776 C36.897,25.199 36.619,25.199 36.197,24.804 C35.893,24.52 35.769,24.174 35.717,23.759 C35.638,23.135 35.618,22.483 35.214,21.821 C34.694,22.409 34.226,22.938 33.66,23.357 C33.512,23.466 33.336,23.582 33.169,23.479 C32.941,23.338 32.984,23.089 33.101,22.905 C33.6,22.116 34.235,21.431 34.883,20.768 C35.213,20.43 35.75,20.67 35.939,21.263 C36.122,21.84 36.193,22.453 36.309,23.052 C36.349,23.262 36.342,23.487 36.413,23.685 C36.574,24.14 36.857,24.191 37.228,23.856 C37.425,23.677 37.481,23.336 37.873,23.316" id="Fill-397"></path>
                <path d="M15.023,7.994 C14.796,9.169 14.7,10.365 13.957,11.361 C13.829,11.532 13.691,11.698 13.538,11.846 C13.428,11.952 13.266,11.971 13.142,11.879 C13.021,11.789 12.971,11.629 13.038,11.492 C13.131,11.301 13.253,11.12 13.383,10.95 C14.226,9.848 14.381,8.601 14.204,7.268 C14.137,6.764 13.829,6.423 13.538,6.062 C13.043,5.45 12.776,4.765 12.835,3.97 C12.849,3.782 12.928,3.61 13.138,3.585 C13.399,3.554 13.59,3.719 13.56,3.954 C13.445,4.846 13.965,5.462 14.472,6.059 C14.967,6.643 14.824,7.354 15.023,7.994" id="Fill-398"></path>
                <path d="M15.966,3.169 C15.96,3.698 16.164,4.24 16.366,4.776 C16.721,5.718 17.103,6.65 17.474,7.586 C17.803,8.419 17.812,9.271 17.626,10.135 C17.533,10.569 17.33,10.946 17.015,11.256 C16.859,11.409 16.667,11.544 16.453,11.353 C16.286,11.204 16.361,11.029 16.454,10.867 C16.489,10.804 16.531,10.746 16.571,10.685 C17.347,9.507 17.2,8.331 16.64,7.108 C16.147,6.031 15.748,4.911 15.311,3.808 C15.158,3.421 15.132,3.038 15.398,2.681 C15.51,2.532 15.638,2.402 15.846,2.464 C16.073,2.532 16.065,2.711 16.025,2.897 C16.01,2.968 15.994,3.038 15.966,3.169" id="Fill-399"></path>
                <path d="M43.302,39.901 C43.272,39.656 43.359,39.554 43.502,39.491 C43.678,39.413 43.854,39.439 44.027,39.507 C44.967,39.875 45.909,40.238 46.845,40.617 C47.043,40.697 47.219,40.834 47.399,40.954 C47.637,41.113 47.759,41.335 47.59,41.595 C47.436,41.832 47.181,41.877 46.918,41.784 C46.818,41.749 46.718,41.694 46.641,41.623 C45.954,40.99 45.098,40.724 44.229,40.465 C43.865,40.356 43.465,40.239 43.302,39.901" id="Fill-400"></path>
                <path d="M35.163,35.235 C35.208,34.864 35.457,34.776 35.776,34.908 C36.442,35.184 37.098,35.486 37.753,35.787 C38.144,35.967 38.542,36.142 38.908,36.365 C39.172,36.527 39.33,36.805 39.096,37.097 C38.902,37.34 38.519,37.486 38.334,37.251 C37.627,36.352 36.523,36.273 35.604,35.822 C35.366,35.705 35.176,35.552 35.163,35.235" id="Fill-401"></path>
                <path d="M33.823,45.114 C33.424,44.921 33.011,44.635 32.558,44.421 C32.045,44.178 31.618,43.781 31.026,43.655 C30.702,43.586 30.452,43.289 30.61,42.907 C30.781,42.494 31.132,42.576 31.435,42.732 C32.262,43.159 32.993,43.76 33.91,44.025 C34.15,44.095 34.316,44.337 34.329,44.612 C34.343,44.903 34.201,45.09 33.823,45.114" id="Fill-402"></path>
                <path d="M34.002,37.164 C33.988,36.946 34.11,36.833 34.307,36.793 C34.375,36.779 34.461,36.774 34.519,36.803 C35.642,37.366 36.957,37.469 37.988,38.25 C38.188,38.402 38.446,38.544 38.291,38.85 C38.147,39.133 37.847,39.153 37.642,38.989 C36.764,38.289 35.643,38.219 34.663,37.788 C34.362,37.656 34.045,37.561 34.002,37.164" id="Fill-403"></path>
                <path d="M40.472,35.435 C40.293,35.421 40.073,35.428 39.978,35.273 C39.492,34.483 38.622,34.266 37.896,33.83 C37.613,33.66 37.123,33.534 37.361,33.072 C37.599,32.609 37.999,32.914 38.29,33.068 C39.137,33.519 39.969,34 40.8,34.482 C40.994,34.594 41.106,34.785 41.039,35.027 C40.961,35.311 40.733,35.398 40.472,35.435" id="Fill-404"></path>
                <path d="M47.75,35.991 C47.768,35.756 47.915,35.626 48.1,35.636 C48.308,35.648 48.533,35.71 48.714,35.814 C49.402,36.211 50.101,36.58 50.832,36.891 C51.026,36.973 51.206,37.114 51.355,37.265 C51.546,37.457 51.626,37.716 51.453,37.953 C51.235,38.252 50.888,38.212 50.694,37.996 C50.037,37.267 49.128,36.994 48.299,36.575 C48.034,36.441 47.784,36.308 47.75,35.991" id="Fill-405"></path>
                <path d="M42.03,41.819 C42.997,42.044 43.966,42.423 44.886,42.928 C45.051,43.019 45.169,43.153 45.219,43.334 C45.27,43.515 45.255,43.696 45.104,43.829 C44.954,43.962 44.749,43.998 44.607,43.876 C43.736,43.122 42.718,42.719 41.592,42.546 C41.4,42.516 41.245,42.393 41.292,42.176 C41.372,41.807 41.669,41.796 42.03,41.819" id="Fill-406"></path>
                <path d="M29.59,34.139 C29.527,34.129 29.436,34.143 29.391,34.103 C28.656,33.465 27.674,33.412 26.837,33.014 C26.548,32.876 26.293,32.748 26.44,32.392 C26.561,32.1 26.865,32.115 27.096,32.202 C27.834,32.48 28.576,32.738 29.341,32.938 C29.58,33 29.787,33.177 29.926,33.394 C30.111,33.683 29.917,34.108 29.59,34.139" id="Fill-407"></path>
                <path d="M29.796,28.447 C29.902,28.118 30.125,27.961 30.453,28.101 C31.213,28.424 31.968,28.762 32.709,29.126 C32.89,29.214 33.04,29.405 33.153,29.581 C33.309,29.824 33.253,30.066 33.014,30.244 C32.815,30.392 32.544,30.41 32.43,30.219 C31.966,29.439 31.131,29.382 30.407,29.102 C30.102,28.984 29.789,28.866 29.796,28.447" id="Fill-408"></path>
                <path d="M31.318,26.982 C31.31,26.753 31.429,26.662 31.553,26.595 C31.831,26.444 32.101,26.503 32.376,26.636 C33.052,26.963 33.737,27.272 34.414,27.597 C34.689,27.729 34.851,27.966 34.92,28.258 C34.965,28.449 34.89,28.617 34.744,28.737 C34.594,28.861 34.378,28.916 34.252,28.773 C33.53,27.955 32.546,27.606 31.576,27.226 C31.447,27.175 31.31,27.104 31.318,26.982" id="Fill-409"></path>
                <path d="M41.712,33.469 C41.643,33.438 41.525,33.417 41.456,33.348 C40.779,32.674 39.951,32.257 39.081,31.903 C38.846,31.808 38.583,31.686 38.704,31.363 C38.812,31.074 39.11,31.026 39.342,31.115 C40.212,31.449 41.031,31.896 41.799,32.422 C42.039,32.586 42.178,32.862 42.038,33.18 C41.981,33.309 41.903,33.431 41.712,33.469" id="Fill-410"></path>
                <path d="M46.651,37.158 C46.85,37.265 47.11,37.385 47.349,37.537 C47.953,37.922 48.553,38.314 49.143,38.72 C49.356,38.866 49.541,39.074 49.34,39.35 C49.172,39.581 48.876,39.663 48.676,39.484 C47.972,38.857 47.147,38.429 46.353,37.946 C46.17,37.836 46.027,37.648 46.139,37.4 C46.223,37.214 46.396,37.168 46.651,37.158" id="Fill-411"></path>
                <path d="M25.217,40.535 C25.695,40.542 25.992,40.513 26.046,40.839 C26.095,41.142 25.832,41.271 25.599,41.363 C25.435,41.427 25.25,41.462 25.074,41.462 C24.133,41.462 23.218,41.586 22.356,41.991 C22.188,42.07 21.998,42.12 21.875,41.938 C21.723,41.713 21.871,41.532 22.028,41.381 C22.103,41.309 22.202,41.241 22.301,41.217 C23.344,40.968 24.388,40.728 25.217,40.535" id="Fill-412"></path>
                <path d="M35.771,50.081 C36.554,50.307 37.388,50.398 38.11,50.85 C38.392,51.026 38.646,51.213 38.783,51.523 C38.844,51.662 38.849,51.8 38.734,51.919 C38.622,52.035 38.476,52.057 38.338,52.012 C38.205,51.969 38.067,51.9 37.964,51.806 C37.406,51.295 36.705,51.138 35.999,50.988 C35.858,50.959 35.713,50.944 35.577,50.899 C35.322,50.815 35.098,50.662 35.156,50.364 C35.219,50.038 35.502,50.055 35.771,50.081" id="Fill-413"></path>
                <path d="M33.549,52.043 C33.6,51.764 33.789,51.652 34.018,51.713 C35.088,51.993 36.144,52.32 37.157,52.768 C37.362,52.859 37.481,53.072 37.381,53.303 C37.271,53.554 37.06,53.508 36.837,53.438 C35.921,53.154 35.001,52.881 34.082,52.607 C33.787,52.519 33.561,52.374 33.549,52.043" id="Fill-414"></path>
                <path d="M41.226,49.03 C41.092,48.969 40.949,48.932 40.839,48.85 C40.022,48.245 39.123,47.793 38.183,47.415 C37.981,47.334 37.751,47.235 37.814,46.966 C37.877,46.696 38.113,46.685 38.336,46.747 C39.426,47.05 40.397,47.594 41.312,48.245 C41.501,48.379 41.584,48.59 41.482,48.816 C41.444,48.899 41.329,48.947 41.226,49.03" id="Fill-415"></path>
                <path d="M53.536,27.122 C54.383,27.397 55.31,27.682 56.105,28.273 C56.255,28.384 56.372,28.562 56.266,28.738 C56.164,28.91 55.951,28.919 55.782,28.829 C54.98,28.399 54.124,28.136 53.234,27.964 C52.974,27.913 52.71,27.786 52.749,27.483 C52.801,27.078 53.182,27.206 53.536,27.122" id="Fill-416"></path>
                <path d="M29.524,30.261 C29.732,30.321 29.991,30.353 30.208,30.466 C30.715,30.731 31.206,31.027 31.693,31.327 C31.992,31.512 32.204,31.783 31.963,32.125 C31.744,32.436 31.466,32.295 31.217,32.106 C30.643,31.671 30.045,31.278 29.332,31.107 C29.08,31.047 28.8,30.99 28.835,30.663 C28.875,30.289 29.184,30.261 29.524,30.261" id="Fill-417"></path>
                <path d="M36.518,48.695 C36.496,48.32 36.82,48.095 37.014,48.293 C37.703,48.993 38.669,49.285 39.364,49.962 C39.522,50.116 39.664,50.314 39.527,50.527 C39.372,50.769 39.127,50.659 38.964,50.534 C38.366,50.073 37.683,49.757 37.044,49.368 C36.765,49.198 36.567,48.941 36.518,48.695" id="Fill-418"></path>
                <path d="M29.467,46.461 C29.51,46.174 29.726,46.087 29.94,46.16 C30.752,46.435 31.603,46.651 32.216,47.316 C32.386,47.501 32.569,47.717 32.354,47.977 C32.127,48.251 31.899,48.113 31.718,47.914 C31.301,47.457 30.691,47.427 30.177,47.185 C29.852,47.032 29.508,46.89 29.467,46.461" id="Fill-419"></path>
                <path d="M31.337,49.347 C30.569,48.871 29.565,48.994 28.757,48.506 C28.528,48.368 28.405,48.129 28.544,47.862 C28.667,47.624 28.891,47.643 29.097,47.749 C29.674,48.047 30.314,48.151 30.921,48.353 C31.189,48.442 31.475,48.535 31.6,48.829 C31.697,49.057 31.668,49.247 31.337,49.347" id="Fill-420"></path>
                <path d="M30.7,44.408 C31.34,44.558 32.019,44.7 32.501,45.25 C32.671,45.444 32.802,45.699 32.614,45.935 C32.405,46.199 32.142,46.072 31.956,45.89 C31.626,45.568 31.238,45.431 30.791,45.394 C30.653,45.382 30.507,45.324 30.39,45.249 C30.162,45.103 30.023,44.892 30.127,44.61 C30.224,44.348 30.448,44.363 30.7,44.408" id="Fill-421"></path>
                <path d="M19.919,44.979 C19.875,45.004 19.822,45.057 19.771,45.056 C19.665,45.054 19.569,45.002 19.564,44.881 C19.561,44.8 19.628,44.76 19.709,44.784 C19.808,44.814 19.901,44.857 19.919,44.979" id="Fill-422"></path>
                <path d="M9.075,22.692 C9.012,22.656 8.908,22.627 8.901,22.584 C8.887,22.489 8.883,22.338 8.941,22.293 C10.132,21.344 10.947,20.027 12.119,19.062 C12.147,19.039 12.176,19.018 12.207,18.999 C12.403,18.88 12.624,18.797 12.785,19.008 C12.909,19.17 12.8,19.361 12.67,19.487 C12.18,19.963 11.763,20.505 11.214,20.93 C10.676,21.346 10.112,21.742 9.696,22.303 C9.549,22.501 9.343,22.663 9.075,22.692" id="Fill-423"></path>
                <path d="M14.849,19.397 C14.56,20.174 13.955,20.495 13.52,20.947 C12.946,21.543 12.312,22.083 11.693,22.634 C11.563,22.75 11.377,22.849 11.225,22.652 C11.128,22.526 11.173,22.378 11.257,22.254 C11.317,22.164 11.375,22.062 11.459,22.002 C12.255,21.426 12.847,20.638 13.575,19.994 C13.882,19.723 14.182,19.379 14.849,19.397" id="Fill-424"></path>
            </g>
        </g>
    </g>
</svg>