<svg width="60" height="60" viewBox="0 0 60 60" fill="none" xmlns="http://www.w3.org/2000/svg">
<path fill-rule="evenodd" clip-rule="evenodd" d="M16.0012 38.0001H14.3682C13.0612 38.0001 12.0012 39.0601 12.0012 40.3681V45.6322C12.0012 46.9402 13.0612 48.0002 14.3682 48.0002H16.0012V57.0002C16.0012 57.5522 16.4492 58.0002 17.0012 58.0002C17.5532 58.0002 18.0012 57.5522 18.0012 57.0002V48.0002H19.6332C20.9412 48.0002 22.0012 46.9402 22.0012 45.6322V40.3681C22.0012 39.0601 20.9412 38.0001 19.6332 38.0001H18.0012V27.0001C18.0012 26.4481 17.5532 26.0001 17.0012 26.0001C16.4492 26.0001 16.0012 26.4481 16.0012 27.0001V38.0001ZM52.0013 16.0001H50.3683C49.0613 16.0001 48.0013 17.0601 48.0013 18.3681V43.6322C48.0013 44.9402 49.0613 46.0002 50.3683 46.0002H52.0013V55.0002C52.0013 55.5522 52.4493 56.0002 53.0013 56.0002C53.5533 56.0002 54.0013 55.5522 54.0013 55.0002V46.0002H55.6333C56.9413 46.0002 58.0013 44.9402 58.0013 43.6322V18.3681C58.0013 17.0601 56.9413 16.0001 55.6333 16.0001H54.0013V7.00002C54.0013 6.44802 53.5533 6.00001 53.0013 6.00001C52.4493 6.00001 52.0013 6.44802 52.0013 7.00002V16.0001ZM4.00112 28.0001H2.36811C1.06111 28.0001 0.00110626 29.0601 0.00110626 30.3681C0.00110626 34.3131 0.00110626 45.6872 0.00110626 49.6322C0.00110626 50.9402 1.06111 52.0002 2.36811 52.0002H4.00112V55.0002C4.00112 55.5522 4.44912 56.0002 5.00112 56.0002C5.55313 56.0002 6.00113 55.5522 6.00113 55.0002V52.0002H7.63313C8.94114 52.0002 10.0011 50.9402 10.0011 49.6322V30.3681C10.0011 29.0601 8.94114 28.0001 7.63313 28.0001H6.00113V21.0001C6.00113 20.4481 5.55313 20.0001 5.00112 20.0001C4.44912 20.0001 4.00112 20.4481 4.00112 21.0001V28.0001ZM28.0012 21.5001H26.3682C25.0612 21.5001 24.0012 22.5601 24.0012 23.8681C24.0012 26.9731 24.0012 34.5271 24.0012 37.6321C24.0012 38.9401 25.0612 40.0001 26.3682 40.0001H28.0012V49.0002C28.0012 49.5522 28.4492 50.0002 29.0012 50.0002C29.5532 50.0002 30.0012 49.5522 30.0012 49.0002V40.0001H31.6332C32.9412 40.0001 34.0012 38.9401 34.0012 37.6321C34.0012 34.5271 34.0012 26.9731 34.0012 23.8681C34.0012 22.5601 32.9412 21.5001 31.6332 21.5001H30.0012V19.0001C30.0012 18.4481 29.5532 18.0001 29.0012 18.0001C28.4492 18.0001 28.0012 18.4481 28.0012 19.0001V21.5001ZM8.00114 30.3681V49.6322C8.00114 49.8352 7.83613 50.0002 7.63313 50.0002H2.36811C2.16511 50.0002 2.00111 49.8352 2.00111 49.6322V30.3681C2.00111 30.1651 2.16511 30.0001 2.36811 30.0001H7.63313C7.83613 30.0001 8.00114 30.1651 8.00114 30.3681ZM20.0012 40.3671V45.6322C20.0012 45.8352 19.8362 46.0002 19.6332 46.0002H14.3682C14.1652 46.0002 14.0012 45.8352 14.0012 45.6332C14.0012 45.6322 14.0012 40.3681 14.0012 40.3681C14.0012 40.1651 14.1652 40.0001 14.3682 40.0001H19.6332C19.8362 40.0001 20.0012 40.1651 20.0012 40.3671ZM56.0013 18.3671V43.6322C56.0013 43.8352 55.8363 44.0002 55.6333 44.0002H50.3683C50.1653 44.0002 50.0013 43.8352 50.0013 43.6332C50.0013 43.6322 50.0013 18.3681 50.0013 18.3681C50.0013 18.1651 50.1653 18.0001 50.3683 18.0001H55.6333C55.8363 18.0001 56.0013 18.1651 56.0013 18.3671ZM40.0012 8.00002H38.3682C37.0612 8.00002 36.0012 9.06003 36.0012 10.368C36.0012 13.714 36.0012 22.2861 36.0012 25.6321C36.0012 26.9401 37.0612 28.0001 38.3682 28.0001H40.0012V41.0001C40.0012 41.5521 40.4492 42.0001 41.0013 42.0001C41.5533 42.0001 42.0013 41.5521 42.0013 41.0001V28.0001H43.6333C44.9413 28.0001 46.0013 26.9401 46.0013 25.6321C46.0013 22.2861 46.0013 13.714 46.0013 10.368C46.0013 9.06003 44.9413 8.00002 43.6333 8.00002H42.0013V3C42.0013 2.448 41.5533 2 41.0013 2C40.4492 2 40.0012 2.448 40.0012 3V8.00002ZM32.0012 23.8681C32.0012 26.9731 32.0012 34.5271 32.0012 37.6321C32.0012 37.8351 31.8362 38.0001 31.6332 38.0001H26.3682C26.1652 38.0001 26.0012 37.8351 26.0012 37.6321C26.0012 34.5271 26.0012 26.9731 26.0012 23.8681C26.0012 23.6651 26.1652 23.5001 26.3682 23.5001H31.6332C31.8362 23.5001 32.0012 23.6651 32.0012 23.8681ZM44.0013 10.368C44.0013 13.714 44.0013 22.2861 44.0013 25.6321C44.0013 25.8351 43.8363 26.0001 43.6333 26.0001H38.3682C38.1652 26.0001 38.0012 25.8351 38.0012 25.6321C38.0012 22.2861 38.0012 13.714 38.0012 10.368C38.0012 10.165 38.1652 10 38.3682 10H43.6333C43.8363 10 44.0013 10.165 44.0013 10.368Z" fill="url(#paint0_linear_271_36)"/>
<defs>
<linearGradient id="paint0_linear_271_36" x1="14.0012" y1="26.0001" x2="55.0013" y2="48.0002" gradientUnits="userSpaceOnUse">
<stop stop-color="#0099FA"/>
<stop offset="1" stop-color="#0053FA"/>
</linearGradient>
</defs>
</svg>
