<svg xmlns="http://www.w3.org/2000/svg" width="456" height="189.57"><path d="M434.254 135.856c.777-1.338 1.295-4.056 1.295-6.86v-18.208c0-2.803-.518-5.521-1.295-6.859v-.216h20.625v6.126h-.174c-1.856-.949-4.831-1.38-8.802-1.38h-3.754v8.413h3.668c3.452 0 5.308-.215 7.032-.603h.217v6.298h-.217c-1.724-.387-3.58-.603-7.032-.603h-3.668v9.362h3.668c4.142 0 7.508-.56 9.967-1.813H456v6.56h-21.746zm-34.657-15.877c0-10.27 6.903-16.784 17.56-16.784 3.236 0 6.514.605 8.585 1.554v6.644h-.215c-2.072-1.942-5.134-3.064-8.456-3.064-6.731 0-10.657 4.143-10.657 11.433 0 7.551 4.272 11.736 11.692 11.736.992 0 1.985-.085 2.934-.301v-7.982c-2.934 0-4.574.216-6.084.518h-.216v-6.127h.216c1.553.302 3.28.517 6.428.517h6.56v.216c-.346.864-.519 2.632-.519 4.617v7.636c0 1.985.173 3.366.389 4.23v.214c-2.633.863-6.689 1.553-9.666 1.553-11.26 0-18.551-6.558-18.551-16.61zm-27.244-6.904v15.92c0 2.805.518 5.523 1.295 6.86v.217h-8.24v-.216c.776-1.338 1.294-4.056 1.294-6.86v-18.208c0-2.803-.518-5.521-1.295-6.859v-.216h8.802l13.202 20.882v-13.807c0-2.803-.518-5.521-1.294-6.859v-.216h8.241v.216c-.777 1.338-1.295 4.056-1.295 6.86v25.283h-5.91zm-22.41 9.233l-4.056-11.95-4.056 11.95zm9.244 7.723c.733 2.158 1.51 4.013 3.15 5.825v.216H351.94v-.216c1.034-1.856.992-3.884.344-5.738l-.906-2.631H339.73l-.907 2.631c-.647 1.854-.69 3.882.345 5.738v.216h-9.276v-.216c1.64-1.812 2.372-3.667 3.107-5.825l9.275-26.318h7.68zm-60.99-19.243c0-2.803-.518-5.521-1.295-6.859v-.216h9.19v.216c-.776 1.338-1.294 4.056-1.294 6.86v5.954h13.462v-5.955c0-2.803-.518-5.521-1.295-6.859v-.216h9.19v.216c-.777 1.338-1.295 4.056-1.295 6.86v18.206c0 2.805.518 5.523 1.295 6.86v.217h-9.19v-.216c.777-1.338 1.295-4.056 1.295-6.86v-6.903h-13.462v6.902c0 2.805.518 5.523 1.295 6.86v.217h-9.19v-.216c.776-1.338 1.294-4.056 1.294-6.86zm-33.432 9.19c0-10.095 6.73-16.783 16.783-16.783 3.407 0 6.73.647 9.319 2.028v6.73h-.216c-2.416-2.458-5.738-3.624-9.103-3.624-6.213 0-10.01 4.358-10.01 11.433 0 7.25 3.84 11.694 10.139 11.694 3.322 0 6.558-1.38 8.974-3.841h.216v6.946c-2.589 1.252-5.954 2.028-9.363 2.028-10.01 0-16.74-6.644-16.74-16.61zm-20.976-.647l-6.559-10.528c-1.208-1.897-2.33-3.536-4.099-4.874v-.216h11.305v.216c-.604 1.854-.086 3.623 1.078 5.609l3.15 5.306 3.192-5.306c1.209-1.986 1.512-3.755.907-5.609v-.216h10.14v.216c-1.77 1.338-2.935 2.977-4.143 4.874l-6.515 10.27 7.421 11.908c1.208 1.898 2.33 3.537 4.099 4.875v.216H252.46v-.216c.604-1.856.086-3.625-1.079-5.608l-4.013-6.774-4.055 6.774c-1.207 1.983-1.51 3.752-.906 5.608v.216H232.27v-.216c1.769-1.338 2.934-2.977 4.143-4.875zm-36.808 16.525c.776-1.338 1.294-4.056 1.294-6.86v-18.208c0-2.803-.518-5.521-1.294-6.859v-.216h20.624v6.126h-.174c-1.854-.949-4.831-1.38-8.8-1.38h-3.755v8.413h3.668c3.45 0 5.306-.215 7.033-.603h.215v6.298h-.215c-1.727-.387-3.582-.603-7.033-.603h-3.668v9.362h3.668c4.141 0 7.507-.56 9.967-1.813h.215v6.56H206.98zm122.828-51.05V66.597c0-2.803-.518-5.523-1.295-6.86v-.215h9.19v.216c-.777 1.336-1.295 4.056-1.295 6.86v7.119l8.63-9.363c1.38-1.467 2.416-3.149 2.416-4.616v-.216h10.138v.216c-1.854 1.121-3.623 2.76-5.22 4.4l-7.852 7.982 9.19 14.67c1.208 1.898 2.33 3.537 4.099 4.875v.216h-11.304v-.216c.604-1.856.087-3.625-1.079-5.609l-5.608-9.492-3.41 3.71v4.53c0 2.805.518 5.523 1.295 6.86v.217h-9.19v-.216c.777-1.338 1.295-4.056 1.295-6.86zm-33.433-9.018c0-10.096 6.73-16.783 16.784-16.783 3.407 0 6.73.647 9.319 2.027v6.732h-.215c-2.417-2.46-5.74-3.625-9.104-3.625-6.213 0-10.01 4.358-10.01 11.433 0 7.25 3.84 11.693 10.138 11.693 3.323 0 6.56-1.381 8.976-3.84h.215v6.946c-2.589 1.252-5.955 2.028-9.363 2.028-10.01 0-16.74-6.645-16.74-16.61zm-30.473-.259c0 7.379 3.495 11.736 9.45 11.736 5.911 0 9.362-4.228 9.362-11.391 0-7.377-3.495-11.735-9.45-11.735-5.91 0-9.362 4.228-9.362 11.39zm25.63 0c0 10.01-6.602 16.87-16.267 16.87-9.707 0-16.18-6.6-16.18-16.525 0-10.009 6.602-16.87 16.267-16.87 9.708 0 16.18 6.602 16.18 16.525zm-43.671-11.26h-1.295v20.536c0 2.805.518 5.523 1.295 6.86v.217h-9.19v-.216c.777-1.338 1.295-4.056 1.295-6.86V64.268h-1.295c-3.495 0-6.386.56-8.458 1.812H230v-6.558h26.534v6.558h-.216c-2.07-1.252-4.962-1.812-8.456-1.812zm-41.528 26.233v-7.077h.215c3.106 2.805 5.739 3.969 9.19 3.969 3.365 0 5.221-1.294 5.221-3.796 0-2.762-2.33-3.582-6.516-5.221-4.572-1.769-8.758-3.623-8.758-9.492 0-6.126 4.487-9.88 11.822-9.88 2.632 0 5.264.475 7.378 1.38v6.559h-.216c-2.416-1.985-4.703-2.934-7.377-2.934-3.193 0-5.005 1.337-5.005 3.84 0 2.761 2.33 3.58 6.515 5.22 4.572 1.77 8.757 3.625 8.757 9.492 0 6.084-4.616 9.837-12.08 9.837-3.192 0-6.558-.69-9.146-1.897zm176.145-65.806v15.92c0 2.804.518 5.522 1.295 6.86v.216h-8.24v-.217c.776-1.337 1.294-4.055 1.294-6.859V22.41c0-2.805-.518-5.523-1.295-6.86v-.217h8.802l13.203 20.884V22.409c0-2.805-.519-5.523-1.295-6.86v-.217h8.241v.217c-.776 1.337-1.294 4.055-1.294 6.86v25.283h-5.91zM345.1 31.34c0 7.378 3.495 11.735 9.45 11.735 5.91 0 9.362-4.228 9.362-11.39 0-7.377-3.495-11.736-9.45-11.736-5.91 0-9.362 4.23-9.362 11.391zm25.629 0c0 10.009-6.602 16.87-16.266 16.87-9.707 0-16.18-6.602-16.18-16.525 0-10.01 6.601-16.87 16.267-16.87 9.707 0 16.179 6.6 16.179 16.525zm-53.454-11.003h-5.869v22.35h5.954c6.127 0 9.363-3.84 9.363-11.002 0-7.377-3.28-11.348-9.448-11.348zm0 27.355H303.51v-.217c.777-1.337 1.295-4.055 1.295-6.859V22.41c0-2.805-.518-5.523-1.295-6.86v-.217h13.85c9.966 0 16.178 6.17 16.178 16.008 0 9.966-6.385 16.352-16.264 16.352zm-42.199-22.996v15.92c0 2.804.517 5.522 1.294 6.86v.216h-8.241v-.217c.777-1.337 1.295-4.055 1.295-6.859V22.41c0-2.805-.518-5.523-1.295-6.86v-.217h8.802l13.203 20.884V22.409c0-2.805-.518-5.523-1.295-6.86v-.217h8.241v.217c-.777 1.337-1.295 4.055-1.295 6.86v25.283h-5.91zm-37.38 6.644c0 7.378 3.495 11.735 9.45 11.735 5.91 0 9.362-4.228 9.362-11.39 0-7.377-3.494-11.736-9.448-11.736-5.912 0-9.364 4.23-9.364 11.391zm25.63 0c0 10.009-6.602 16.87-16.266 16.87-9.709 0-16.18-6.602-16.18-16.525 0-10.01 6.6-16.87 16.265-16.87 9.708 0 16.18 6.6 16.18 16.525zM206.98 47.475c.776-1.337 1.294-4.055 1.294-6.859V22.41c0-2.805-.518-5.523-1.294-6.86v-.217h9.19v.217c-.777 1.337-1.295 4.055-1.295 6.86v20.537h2.934c4.142 0 7.465-.604 9.967-1.856h.215v6.602h-21.01zm-58.077 80.968v9.71c-4.56-1.011-8.947-1.619-13.051-1.619-4.56 0-8.863.687-13.157 2.006-3.702 1.185-6.795 2.62-9.524 3.934-3.513 1.667-6.291 2.963-8.927 2.963a7.33 7.33 0 0 1-1.936-.252v-9.723a9.058 9.058 0 0 0 1.935.203c2.88 0 5.9-1.41 9.396-3.072 3.878-1.845 8.437-4.008 14.374-5.102l-.22-1.058a44.766 44.766 0 0 0-5.099 1.262c-3.705 1.156-6.796 2.618-9.523 3.915-3.149 1.488-5.705 2.716-8.1 2.946v-1.335c0-.82-.277-2.114-3.378-2.114s-6.523 2.01-6.523 4.276v2.765c-3.775 1.081-9.978 1.658-13.843 1.658-1.971 0-5.254-.256-8.597-.66-2.107-.254-3.876-.588-5.241-.997v-2.766c0-2.267-3.425-4.276-6.529-4.276-3.098 0-3.377 1.294-3.377 2.114v1.335c-2.395-.23-4.95-1.458-8.101-2.946-3.95-1.868-8.586-4.085-14.653-5.186l-.067 1.092c5.878 1.102 10.4 3.246 14.254 5.077 3.494 1.662 6.512 3.072 9.393 3.072a9.07 9.07 0 0 0 1.935-.203v9.723a7.314 7.314 0 0 1-1.935.252c-2.636 0-5.413-1.296-8.929-2.963-5.53-2.593-12.415-5.94-22.68-5.94-4.103 0-8.488.608-13.045 1.62v-9.711a61.955 61.955 0 0 1 7.655-1.329c.655.713 1.334.928 1.334.928-.026-.34 0-3.181.076-2.82.08.356.657 1.394.657 1.394.181.298 1.38 2.147 2.465 1.984.764-.116 1.017-.54 1.096-.74l-.027-.058c-.382-.694-.426-1.154-.426-1.154-.204-2.04 1.401-2.168 2.583-1.192 1.301 1.072 1.732.374 1.732.374-1.45-2.573.45-2.703.45-2.703-.038-2.17 1.091-1.845 1.091-1.845-.056-.55-.62-1.039-1.597-1.08-.951-.035-2.88 1.252-3.22 1.415s-.878-.458-.878-.458c-1.455-1.933-1.204-4.44-1.204-4.44 1.38-1.75 2.109-3.763 2.109-3.763-1.205-1.679-.878-3.564-.878-3.564 1.703 4.368 3.761 3.916 3.761 3.916-.853-4.115.905-7.352 1.58-8.58.425-.77-.177-2.444-.625-3.553 0 0-.866-2.03-1.042-2.82s-.331-1.975.85-3.488l-.015.112c-.063.463-.064.99.05 1.936s.623 2.212.983 2.88a13.18 13.18 0 0 0 .667 1.126c3.979 1.765 7.165 2.086 7.165 2.086.452 1.49-.04 4.791-.18 5.62-.135.83-.247 1.922-.247 1.922-.052.616.01 2.306 1.002 2.42s1.769.791 2.234 2.07 1.529 1.756 1.529 1.756c-.336-.69-.023-1.443-.023-1.443.989 2.823 5.808 2.596 5.808 2.596-.892-.777-1.255-1.908-1.255-1.908 2.697 2.564 5.532.378 5.532.378-1.13-.563-1.404-1.78-1.404-1.78 3.662 2.095 4.804-1.258 4.804-1.258-.978-.171-1.155-.966-1.155-.966 1.305.404 1.619-.232 1.619-.232-.601-1.471.353-2.2.353-2.2 1.768-1.642.803-2.886.803-2.886-2.11.215-2.084-2.144-2.084-2.144-.79-.327-1.92.451-1.92.451 1.004-1.404.427-2.01.427-2.01-2.27.253-2.284-1.413-2.284-1.413-.953-.064-1.266.626-1.393 1.216s-.1 2.183.402 3.338-.05 2.534-.05 2.534c-3.618-1.855-6.712-1.593-6.712-1.593l.477-1.908c-1.429-2.07-1.18-2.835-1.18-2.835 2.06 2.938 4.291 2.708 4.291 2.708l.215-.045h.018c-1.876-.785-2.134-5.814-4.16-8.007-1.135-1.23-3.27-1.998-4.917-2.294-5.492-.985-5.774-4.11-5.774-4.11l.01-.027c1.98-2.885 6.645-6.061 6.645-6.061-.38-.42-1.006-2.024-1.006-2.024-1.895.13-2.798-.49-2.798-.49-2.66-1.655-1.731-3.84-1.731-3.84.023.253.514 2.274 2.322 2.979 1.804.697 2.947-.114 2.947-.114s-.162.225.338 1.544c.501 1.313 2.485 3.738 2.485 3.738 1.83-1.793 1.229-4.797 1.229-4.797.714.654 5.028 4.372 5.028 4.372-.28-.006-2.206.218-2.206.218-1.622.31-1.09 1.283-1.09 1.283.43-.225.962-.235 1.293.415.329.645.003 1.542.003 1.542.441.615.85.415 1.57-.186s1.969-.381 2.283-.273.32.396.42.6c.173.346.862.848.625 1.24-.263.695-.25 1.32-.25 1.32s-.4.408-.47.889.212.948.68 1.51 1.094.183 1.094.183c.143-.075.693-.481 1.135.014.55.62.082 1.584.082 1.584.387.347.992-.089 1.12-.162s.666-.533 1.224-.391.632 1.15.632 1.15c.8-.368 1.1-1.025 1.1-1.025.676-1.333-.305-3.22-.604-3.632s-.528-.602-.68-.995-.427-1.31-.694-2.126c-.093-.283-.275-.601-.503-.927v-3.439h20.006v17.127H57.2c-1.05.965-.406 1.557-.724 2.372.355-.09.579-.165 1.061-.16 1.359-.849 4.416-2.244 6.26 1.07-1.128.193-2.54.301-3.537 1.069.287.685.285 1.838.183 2.496h16.721v23.822c-5.341-1.94-9.85-5.327-13.191-9.94-2.163-2.992-3.814-6.414-4.949-10.255-.307.286-.644.528-.976.548 1.168 3.857 2.852 7.318 5.041 10.343 4.366 6.037 10.632 10.038 18.13 11.583l.11.023.11-.023c7.496-1.545 13.765-5.546 18.128-11.583 2.193-3.025 3.877-6.486 5.042-10.343-.33-.02-.666-.262-.972-.546-1.14 3.84-2.788 7.264-4.951 10.253a27.89 27.89 0 0 1-13.187 9.939v-23.82h16.717c-.103-.659-.102-1.812.184-2.497-.995-.768-2.408-.876-3.534-1.07 1.84-3.313 4.893-1.918 6.255-1.069.483-.005.706.07 1.064.16-.32-.815.325-1.407-.723-2.372H85.498V85.056H105.5v3.414c-.234.333-.424.662-.52.952l-.694 2.126c-.151.393-.378.58-.68.995s-1.28 2.299-.602 3.632c0 0 .298.657 1.097 1.026 0 0 .075-1.007.633-1.151s1.095.315 1.223.391.734.509 1.121.162c0 0-.468-.964.082-1.584.442-.495.992-.09 1.135-.014 0 0 .626.379 1.094-.183s.748-1.027.68-1.51-.469-.89-.469-.89c.024-1.248-.582-1.33-.09-1.975.846-.888.416-1.017.883-1.184.315-.108 1.566-.325 2.285.273s1.128.801 1.57.186c0 0-.326-.897.002-1.542.331-.65.863-.64 1.294-.415 0 0 .531-.972-1.09-1.283 0 0-1.927-.224-2.208-.218l5.03-4.372s-.601 3.004 1.229 4.797c0 0 1.984-2.425 2.484-3.738.5-1.32.338-1.544.338-1.544s1.143.81 2.946.114c1.81-.705 2.3-2.726 2.323-2.978 0 0 .93 2.184-1.731 3.839 0 0-.903.62-2.798.49 0 0-.625 1.605-1.006 2.024 0 0 4.665 3.176 6.646 6.06l.01.027s-.282 3.126-5.774 4.111c-1.648.296-3.783 1.064-4.917 2.294-2.027 2.193-2.285 7.222-4.162 8.007h.02l.214.045s2.232.23 4.29-2.708c0 0 .25.765-1.18 2.835l.479 1.908s-3.095-.262-6.713 1.593c0 0-.553-1.383-.05-2.534s.525-2.748.401-3.338-.439-1.28-1.392-1.216c0 0-.014 1.666-2.284 1.414 0 0-.577.605.427 2.009 0 0-1.13-.778-1.92-.451 0 0 .025 2.359-2.083 2.144 0 0-.965 1.244.801 2.886 0 0 .956.729.354 2.2 0 0 .314.636 1.618.232 0 0-.176.795-1.155.966 0 0 1.143 3.353 4.805 1.259 0 0-.274 1.216-1.404 1.78 0 0 2.835 2.185 5.532-.379 0 0-.363 1.131-1.255 1.908 0 0 4.82.227 5.809-2.596 0 0 .312.752-.023 1.443 0 0 1.065-.477 1.529-1.756s1.243-1.954 2.233-2.07 1.053-1.804 1.003-2.42c0 0-.114-1.093-.249-1.922s-.631-4.13-.18-5.62c0 0 3.188-.32 7.165-2.086 0 0 .311-.456.67-1.125s.87-1.935.98-2.881.114-1.473.051-1.936l-.015-.112c1.182 1.513 1.026 2.695.85 3.487s-1.042 2.821-1.042 2.821c-.448 1.11-1.05 2.783-.626 3.552.675 1.229 2.434 4.466 1.58 8.58 0 0 2.06.453 3.763-3.915 0 0 .327 1.885-.879 3.564 0 0 .73 2.012 2.11 3.763 0 0 .25 2.507-1.206 4.44 0 0-.54.625-.876.458s-2.27-1.45-3.22-1.414c-.978.04-1.542.53-1.598 1.079 0 0 1.128-.325 1.09 1.845 0 0 1.9.13.45 2.703 0 0 .432.698 1.734-.374 1.181-.976 2.787-.848 2.582 1.192 0 0-.043.46-.425 1.154l-.028.059c.079.199.331.623 1.097.74 1.084.162 2.282-1.687 2.464-1.985 0 0 .578-1.038.656-1.393.076-.362.103 2.479.076 2.82 0 0 .68-.216 1.334-.927a61.49 61.49 0 0 1 7.675 1.327zm-51.712 15.435v4.076c-1.373.715-3.874 1.319-7.266 1.774-3.336.42-6.628.581-8.598.581s-5.26-.162-8.597-.581c-3.392-.455-5.893-1.059-7.267-1.774v-9.338c3.859 1.676 12.156 2.214 15.864 2.214s12.009-.538 15.864-2.214zM29.79 79.784c-.782.288-1.562-.165-2.078-.806-.182.104-.76.39-1.408.39-.978 0-1.627-.719-2-1.612-1.372.714-2.988-.654-2.738-2.179-1.365.149-2.34-1.47-1.793-2.73-.276-.03-.987-.207-1.334-1.168a1.845 1.845 0 0 1 .333-1.894c-.286-.162-1.14-.714-1.17-1.65-.034-1.006.43-1.8.862-2.207-.465-.395-3.123-2.813-3.339-6.439 0-.02-.003-.187.024-.284 0-.015.05-.453.05-.469.594 2.698 1.988 5.471 4.323 7.13-.731.389-1.128 1.129-1.114 2.042.017 1.028.556 1.492 1.186 1.56-.647 1.124-.299 2.003-.263 2.1.22.598.606.907 1.216.719-.426 1.116.114 1.962.173 2.06.346.57.744.688 1.022.688a.92.92 0 0 0 .404-.094c-.068 1.094.761 2.224 1.836 2.224a1.52 1.52 0 0 0 .685-.16c.2.644.655 1.181 1.182 1.307.096.024 1.177.361 1.894-.476.374.642.894 1.006 1.408 1.006.476 0 1.255.17 2.08-1.29.442 1.241-.696 1.946-1.441 2.232zm1.755-9.143l-2.473-2.362c.142-.195.31-.42.523-.682l-.424-.342a17.37 17.37 0 0 0-.494.646l-1.05-1c.315-.442.727-.946 1.234-1.502l1.344 1.447A33.763 33.763 0 0 1 32 65.056a31.03 31.03 0 0 1 .844-.774l-.358-.41a32.4 32.4 0 0 0-.842.77l-.942-1.097a46.226 46.226 0 0 1 2.005-1.764l1.21 1.588a43.012 43.012 0 0 1 3.086-2.37l-.31-.448a51.5 51.5 0 0 0-1.09.785l-.84-1.18a46.152 46.152 0 0 1 2.177-1.525l1.057 1.674c1.193-.77 1.902-1.202 3.09-1.786l-.238-.489a26.24 26.24 0 0 0-.891.46l-.637-1.278c.684-.366 1.297-.661 1.863-.893l2.523 5.13c-5.152 2.25-9.419 6.185-12.161 9.192zm31.046 8.14l4-6.27a2.032 2.032 0 1 1 3.23-2.197h10.362v-.015a1.146 1.146 0 0 1 2.292 0v.014h10.36a2.035 2.035 0 0 1 1.929-1.396c1.12 0 2.033.912 2.033 2.03a2.03 2.03 0 0 1-.73 1.563l4.002 6.271c.183.26.269.568.269.919 0 1.78-2.498 3.22-5.57 3.22s-5.564-1.44-5.564-3.22c0-.351.076-.66.255-.919l4.005-6.273a2.046 2.046 0 0 1-.667-1.046c-2.679.029-3.894.323-5.448 1.479-1.504-1.119-2.692-1.43-5.194-1.478.288 1.143.786 2.264 1.43 3.046-.886 1.174-1.482 1.879-2.257 3.601-.77-1.722-1.37-2.427-2.258-3.6.647-.783 1.144-1.904 1.433-3.047-2.504.048-3.695.359-5.197 1.478-1.552-1.156-2.769-1.45-5.448-1.48a2.055 2.055 0 0 1-.666 1.049l4.006 6.271c.182.258.268.568.268.919 0 1.78-2.495 3.22-5.57 3.22s-5.566-1.44-5.566-3.22c0-.351.083-.66.261-.919zM121.46 56.32c.566.232 1.177.527 1.862.893l-.637 1.277a26.65 26.65 0 0 0-.891-.459l-.238.489c1.176.578 1.882 1.008 3.09 1.786l1.057-1.674a45.25 45.25 0 0 1 2.177 1.526l-.841 1.179-1.088-.785-.31.448c1.1.765 2.043 1.498 3.085 2.37l1.21-1.588c.674.558 1.346 1.151 2.005 1.764l-.942 1.097c-.307-.29-.581-.542-.841-.77l-.36.41a40.882 40.882 0 0 1 2.64 2.564l1.343-1.447c.507.556.918 1.06 1.233 1.502l-1.048 1c-.137-.19-.297-.398-.495-.646l-.425.342a15.63 15.63 0 0 1 .524.682l-2.473 2.362c-2.742-3.007-7.01-6.941-12.162-9.192zm9.951 21.233c.44.78.685 1.29 2.08 1.29.391 0 .953-.226 1.408-1.006.107.126.6.795 1.894.476.352-.085.914-.446 1.182-1.307.186.085.38.16.685.16s.745-.088 1.174-.509c.564-.555.69-1.272.662-1.715.159.064.232.094.404.094.278 0 .676-.118 1.022-.688a2.32 2.32 0 0 0 .173-2.06c.61.188.997-.12 1.216-.72.205-.555.186-1.319-.264-2.1 1.087-.116 1.182-1.195 1.187-1.56.001-.127.059-1.418-1.114-2.042 2.323-1.65 3.724-4.412 4.322-7.129.001.016.05.454.05.469.314 1.11-.864 4.638-3.314 6.723.432.407.896 1.201.862 2.207-.03.936-.884 1.488-1.17 1.65a1.84 1.84 0 0 1 .333 1.894c-.347.961-1.057 1.138-1.333 1.168a2.077 2.077 0 0 1-.249 1.995 1.691 1.691 0 0 1-1.546.735c.176 1.067-.643 2.362-1.94 2.362a1.79 1.79 0 0 1-.797-.183c-.718 1.72-2.1 1.97-3.408 1.222-1.66 2.06-4.045.052-3.519-1.426zM33.2 46.764a1.78 1.78 0 0 1 .596-.222.662.662 0 0 0-.169.435.68.68 0 0 0 .675.677.676.676 0 0 0 .568-1.034c.204.061.42.143.657.273.322.177.964.031.964.031l-.022.037s-1.925 3.06-3.973.28l.704-.477zm92.971.197l-.02-.037s.641.146.963-.03c.238-.131.453-.213.657-.274a.676.676 0 0 0 .569 1.035.68.68 0 0 0 .674-.678.664.664 0 0 0-.168-.435c.296.058.51.166.595.222l.705.478c-2.05 2.78-3.975-.28-3.975-.28zm36.47 40.34c-1.527.712-2.423-1.858-4.14-2.788-.795-.434-1.683-.628-2.664-.617 0 0-3.096-.068-5.099 2.347 0 0-2.161 2.508-1.327 5.885 0 0 .358 1.995 1.844 5.329 0 0 1.26 2.946 1.202 5.427s-.712 4.716-2.875 5.096c0 0-1.698.308-3.387-2.174 0 0-1.751-2.78-2.692-6.225 0 0-1.311-5.168-2.215-7.048 0 0-.721-1.587-1.163-2.273 0 0-1.17-.074-2.173-.558s-1.48-.995-1.48-.995-.317 1.466-1.583 2.41c0 0-4.384-1.248-3.45-5.729 0 0 .222 3.534 3.355 4.54 0 0 .959-1.457 1.254-2.992 0 0 1.725 2.303 4.397 2.563 0 0 .839-1.004.85-3.179 0 0 1.903 1.251 4.433.756 0 0 .921-1.595.154-4.754 0 0 2.292.691 4.444-.44 0 0 .841-.408 1.276-.918 0 0-.343-.495-1.264-1.45-.923-.963-1.609-1.575-2.246-1.942 0 0 3.079.913 5.583.212 2.5-.707 3.636-2.85 3.765-3.252 0 0-3.341-.304-6.341-2.073 0 0 4.591-.44 7.776-4.818 0 0 1.32-1.893 1.781-3.34 0 0-3.335.931-7.074.304 0 0 7.554-1.507 7.304-8.281 0 0-1.154 1.456-5.048 1.884 0 0 6.402-7.027 3.291-12.672 0 0-.254 3.286-4.116 6.373 0 0 2.786-6.148.976-11.868 0 0-.6-2.158-1.777-3.336 0 0 .056 2.197-1.056 4.902s-2.535 4.795-2.705 5.046c0 0 .297-3.638-.757-5.96 0 0-.476-1.266-1.809-2.058 0 0 .417 7.69-5.983 17.814 0 0-2.603 4.16-2.936 5.383-.336 1.252-.751 2.86.678 5.61s-1.619 5.643-2.747 6.097-4.29 1.805-5.871-2.072l-.058-.159.099.108 4.655-4.44c-.593-.882-1.044-1.406-1.823-2.252.929-1.944 1.08-3.553 1.08-3.553s.444 1.266 1.393 1.936c0 0 1.146-1.933.752-4.794 0 0-.207-1.713-.62-2.484 0 0 .923.193 1.568-.303 0 0-.406-2.952-1.3-4.415s-2.206-2.16-2.206-2.16 2.818.161 4.7-2.218c0 0 .882-1.19.842-2.033 0 0-.652.515-2.403.507 0 0 2.065-.62 3.062-2.316s.618-3.88.458-4.264c0 0-3.436 4.224-8.743 4.89 0 0 1.391-.566 2.17-1.318 0 0-.063-3.676-2.083-4.365 0 0 .39 1.09-.4 2.384 0 0-.64 1.176-2.195 2.897 0 0-.389.402-.492.69 0 0-1.454-.013-2.257-.177s-1.859-.609-2.66-.387c0 0-.97.253-1.385 1.219 0 0-2.916-1.194-4.255 1.013-.984 1.626-.23 3.343-.23 3.343s.163-1.13 1.819-1.38c0 0 1.041-.226 1.774.679 0 0 .961 1.435 1.986 1.836.687.268 1.512.365 2.28.99 0 0 .77.58 1.154 1.219a4.31 4.31 0 0 0 .199.344s-.689-.244-2.076 0-1.587.396-2.155.485-1.224.206-1.694.041c0 0-.715-.174-1.399-.82 0 0-.284 2.358 1.603 3.195 0 0 .988.542 2.972.024 0 0 .883-.255 1.046-.33 0 0 1.643.712 2.596.703s1.826-.151 2.655-1.234c0 0 .596-.869.413-1.815 0 0-.081-.498-.139-.589 0 0 .959.961.363 2.869 0 0-.563 1.876-3.18 1.743 0 0-.576-.013-1.487-.232 0 0-1.985.664-4.009 1.693l.623-1.254c-1.045-.563-1.603-.869-2.847-1.357l-2.912 5.92c-.472.115-1.532.386-2.085.583-.62.221-3.836 1.41-5.57 4.027 0 0 1.192-.426 2.713-.124 0 0-3.777.97-4.618 3.266s.453 4.503.453 4.503.388-3.111 2.683-3.776c0 0-2.496 3.15-.852 7.592 0 0 1.43-1.99 4.724-1.726 0 0-2.617 2.613-3.953 5.327-1.337 2.706-3.726 4.439-4.159 4.889-.176.185-.583.582-1.028 1.06V63.84H92.63c-2.694-.013-4.906.683-6.26 1.156-1.74.616-2.695 1.57-5.12 2.695s-4.53.958-4.53.958c-3.722-.32-5.511-3.185-5.511-3.185s-.803-1.142-.954-1.629H56.07v23.35c-.452-.487-.867-.891-1.045-1.08-.433-.45-2.822-2.182-4.158-4.888-1.337-2.714-3.953-5.327-3.953-5.327 3.293-.264 4.722 1.726 4.722 1.726 1.645-4.443-.85-7.592-.85-7.592 2.294.665 2.683 3.776 2.683 3.776s1.292-2.209.451-4.503-4.617-3.266-4.617-3.266c1.52-.302 2.713.124 2.713.124-1.735-2.616-4.95-3.806-5.57-4.027-.552-.197-1.612-.468-2.085-.584l-2.912-5.92c-1.142.45-1.665.72-2.848 1.358l.624 1.254a33.294 33.294 0 0 0-4.009-1.693c-.91.22-1.488.232-1.488.232-2.616.133-3.18-1.743-3.18-1.743-.595-1.908.364-2.869.364-2.869-.057.09-.14.589-.14.589-.181.946.414 1.815.414 1.815.829 1.083 1.7 1.223 2.656 1.234s2.595-.702 2.595-.702c.164.074 1.046.33 1.046.33 1.984.517 2.972-.025 2.972-.025 1.887-.837 1.603-3.194 1.603-3.194-1.197 1.128-2.14.922-3.093.778-.465-.073-3.043-.908-4.231-.485.03-.074.2-.344.2-.344.967-1.609 2.823-1.972 3.432-2.21 1.026-.4 1.987-1.835 1.987-1.835.734-.905 1.774-.678 1.774-.678 1.656.25 1.82 1.379 1.82 1.379s.752-1.717-.231-3.343c-1.34-2.207-4.254-1.013-4.254-1.013-.417-.966-1.386-1.22-1.386-1.22-.801-.22-1.856.225-2.66.388s-2.258.176-2.258.176c-.101-.287-.49-.689-.49-.689-1.556-1.72-2.195-2.897-2.195-2.897-.79-1.293-.4-2.384-.4-2.384-2.02.689-2.085 4.365-2.085 4.365.78.752 2.171 1.318 2.171 1.318-5.306-.666-8.743-4.89-8.743-4.89-.16.384-.54 2.567.458 4.264s3.063 2.316 3.063 2.316c-1.752.008-2.403-.507-2.403-.507-.04.844.842 2.033.842 2.033 1.881 2.38 4.7 2.218 4.7 2.218s-1.316.7-2.208 2.16-1.298 4.415-1.298 4.415c.645.496 1.568.303 1.568.303-.414.771-.62 2.484-.62 2.484-.394 2.861.75 4.794.75 4.794.95-.67 1.394-1.936 1.394-1.936s.151 1.609 1.08 3.553c-.75.814-1.21 1.337-1.823 2.252l4.655 4.44.099-.108-.058.159c-1.58 3.877-4.743 2.523-5.87 2.072s-4.179-3.351-2.749-6.097 1.015-4.358.679-5.61c-.333-1.223-2.936-5.383-2.936-5.383-6.4-10.124-5.983-17.814-5.983-17.814-1.333.792-1.809 2.059-1.809 2.059-1.054 2.321-.758 5.959-.758 5.959-.17-.251-1.593-2.34-2.704-5.046s-1.056-4.902-1.056-4.902c-1.178 1.178-1.777 3.336-1.777 3.336-1.81 5.72.975 11.868.975 11.868-3.862-3.087-4.115-6.373-4.115-6.373C.4 51.18 6.803 58.208 6.803 58.208c-3.894-.428-5.048-1.884-5.048-1.884-.25 6.774 7.304 8.281 7.304 8.281-3.74.627-7.075-.303-7.075-.303.461 1.446 1.781 3.339 1.781 3.339 3.185 4.379 7.778 4.818 7.778 4.818-3 1.769-6.342 2.073-6.342 2.073.13.402 1.265 2.545 3.765 3.252 2.504.701 5.583-.212 5.583-.212-.638.367-1.324.979-2.246 1.941-.921.956-1.264 1.451-1.264 1.451.435.51 1.276.919 1.276.919 2.152 1.13 4.444.439 4.444.439-.767 3.159.154 4.754.154 4.754 2.53.495 4.433-.756 4.433-.756.011 2.175.85 3.179.85 3.179 2.672-.26 4.397-2.563 4.397-2.563.294 1.535 1.254 2.992 1.254 2.992 3.133-1.006 3.356-4.54 3.356-4.54.933 4.48-3.451 5.729-3.451 5.729-1.266-.944-1.584-2.41-1.584-2.41s-.473.508-1.478.995-2.174.558-2.174.558c-.442.686-1.162 2.273-1.162 2.273-.905 1.88-2.215 7.048-2.215 7.048-.941 3.446-2.693 6.225-2.693 6.225-1.688 2.482-3.387 2.174-3.387 2.174-2.162-.38-2.821-2.617-2.874-5.096-.059-2.48 1.2-5.427 1.2-5.427 1.487-3.334 1.844-5.33 1.844-5.33.835-3.376-1.327-5.884-1.327-5.884-2.002-2.415-5.097-2.347-5.097-2.347-.982-.01-1.87.183-2.665.617C2.28 85.52 1.568 88.032 0 87.3c.19.465.612.861.612.861.648.62 1.772.92 1.772.92s-.3.483-.515 1.059a2.265 2.265 0 0 0-.023 1.538c.335.922 1.338.992.953 2.172s-1.314 1.345-1.314 1.345c.574.732 1.473.85 1.473.85a10.12 10.12 0 0 0 .06 1.277c.3 2.585 1.686 3.092 1.686 3.092-.14-.433-.057-1.236.168-1.94s.823-2.435.823-2.435c.655-1.894.529-3.837.529-3.837l.285.537c.578 1.048.488 1.74.488 1.74 1.265-.561 1.47-2.345 1.47-2.345.456-3.34-1.541-4.014-1.541-4.014.01-.658 1.04-1.656 2.18-.754 1.466 1.154 1.454 2.436 1.359 3.71-.116 1.49-2.286 6.951-2.286 6.951-1.544 4.284-1.09 6.638-1.09 6.638.241 1.958 1.783 5.444 4.277 6.292s4.856.057 6.652-1.569 3.22-5.408 3.343-5.725.283-.756.283-.756c-.314 1.258.17 3.94.28 5.002.11 1.072-.737 2.51-1.562 2.989s-1.798.283-1.798.283c.261.525.332 1.093.332 1.093.294 1.68-.567 2.99-.961 3.445-.113.13-.4.39-.4.39-.176.184-.926.806-1.221 2.313-.308 1.589.737 2.937.737 2.937-.14-1.829.89-3.34.89-3.34.267 1.006-.14.884-.146 3.235-.008 2.344 1.221 3.447 1.221 3.447-.064-2.899 1.31-3.122 1.31-3.122-.133.493-.441 2.36.26 4.194.045.118.1.216.152.323a63.75 63.75 0 0 0-7.655 1.387l-.415.104v11.99l.673-.187c4.715-1.194 9.243-1.745 13.46-1.745 10.022 0 16.781 3.186 22.215 5.795 3.495 1.665 6.513 3.098 9.394 3.098 1.191 0 2.025-.224 3.023-.561v-3.355c1.01.052 2.034.34 2.942.723v5.232l.264.162c3.353 2.01 12.691 2.666 16.69 2.666s13.336-.655 16.688-2.666l.265-.162v-5.232c.909-.385 1.931-.671 2.94-.723v3.355c.938.317 1.772.56 3.023.56 2.881 0 5.901-1.432 9.396-3.097 5.43-2.609 12.194-5.795 22.212-5.795 4.221 0 8.75.551 13.478 1.745l.652.187v-11.99l-.41-.104a63.875 63.875 0 0 0-7.668-1.39c.05-.107.105-.203.15-.32.701-1.835.393-3.701.26-4.194 0 0 1.375.223 1.31 3.122 0 0 1.229-1.103 1.22-3.447-.005-2.351-.412-2.229-.145-3.235 0 0 1.03 1.511.89 3.34 0 0 1.045-1.348.738-2.937-.296-1.507-1.046-2.13-1.222-2.312 0 0-.287-.262-.4-.391-.394-.456-1.255-1.765-.96-3.445 0 0 .07-.568.33-1.093 0 0-.973.2-1.796-.283s-1.674-1.917-1.562-2.99c.11-1.06.593-3.743.279-5.001l.284.756c.122.317 1.543 4.095 3.342 5.725s4.158 2.415 6.652 1.569 4.036-4.334 4.277-6.292c0 0 .454-2.354-1.09-6.638 0 0-2.171-5.462-2.286-6.951-.096-1.274-.107-2.556 1.358-3.71 1.143-.902 2.172.096 2.181.754 0 0-1.997.674-1.542 4.014 0 0 .206 1.784 1.472 2.346 0 0-.09-.693.487-1.741l.286-.537s-.126 1.943.528 3.837l.824 2.435c.224.704.307 1.507.167 1.94 0 0 1.386-.507 1.686-3.092 0 0 .077-.66.06-1.276 0 0 .9-.119 1.473-.85 0 0-.93-.167-1.314-1.346-.458-1.405 1.695-1.7.93-3.71-.216-.576-.515-1.059-.515-1.059s1.124-.3 1.772-.92c0 0 .423-.396.612-.86zm-30.975-18.297l.398-.374a87.04 87.04 0 0 0-.589-.614l.528-.523-.383-.388-.525.522a50.498 50.498 0 0 0-1.523-1.47l.66-.711-.399-.371-.663.717a43.947 43.947 0 0 0-1.829-1.554l.54-.704-.43-.33-.537.699a37.9 37.9 0 0 0-1.857-1.358l.49-.733-.454-.3-.49.733a30.482 30.482 0 0 0-2.048-1.243l.469-.808-.47-.274-.478.819a27.042 27.042 0 0 0-1.294-.642l-.23.492c.824.38 1.652.82 2.477 1.313l-.433.74.47.277.43-.737c1.422.877 2.841 1.91 4.24 3.084l-.515.667.431.333.5-.646a45.81 45.81 0 0 1 1.648 1.497l-.554.597.397.37.548-.587c.497.484.988.986 1.475 1.507zM117.12 51.905s.715.144 1.976-.182 2.791-.829 4.818-.117l.324.13s-.896-2.713-4.575-1.884-4.024-1.624-4.024-1.624-1.337 3.015 1.48 3.677zm17.463 76.006c.838-.41 1.1-1.062 1.168-1.412.102-.52-.404-1.617-1.873-.837s-1.44 3.95-1.44 3.95l.123-.165c.441-.514 1.185-1.154 2.022-1.536zm-3.618-4.393c-2.459.755-2.448 3.971-2.448 3.971l.188-.245c.842-1.064 1.993-1.338 2.359-1.443.615-.178.842-2.566-.099-2.283zm-.386-1.335c-.39-.956-1.03-.449-1.03-.449-2.082 1.52-2.048 3.215-2.048 3.215l.17-.212c.715-.845 2.465-1.315 2.741-1.377s.555-.219.167-1.177zm-27.624-12.325c-2.082-.176-3.184 2.265-3.184 2.265l.18-.074c1.95-.638 3.22-.343 3.46-.266.257.083.257-.088.257-.088a3.34 3.34 0 0 0-.195-1.376c-.157-.448-.518-.461-.518-.461zm.229-3.379c.186.195.399.044.399.044.459-.278.814-.73.954-1.23.14-.49-.39-.756-.39-.756-2.6-1.673-4.424.53-4.424.53l.172-.026c1.9-.065 3.1 1.238 3.289 1.438zm3.87-3.558c.765-.192 1.101-.515 1.384-.864s-.141-.8-.141-.8c-2.066-2.309-4.234-.462-4.234-.462l.205.069c1.818.59 2.401 1.86 2.456 2s.33.057.33.057zm.376-3.495c-1.024-.973-.973-1.811-1.14-2.165-.117-.26-.263-.318-.554-.449-.471-.213-.8-.057-.8-.057-.86.428-.433 1.236-.433 1.236 1.013 1.914 2.927 1.435 2.927 1.435zm8.61-7.39l.139-.385c.037-.103.691-2.725-.245-3.431-.893-.68-1.383.159-1.383.798 0 .624.451 1.103.451 1.103a3.02 3.02 0 0 1 1.038 1.914zm-8.482 4.923c1.688 1.774 3.628.533 3.628.533s-1.502-.398-2.306-1.632c-.535-.829-1.195-.428-1.195-.428-.456.305-.28 1.13-.28 1.13.05.3.153.397.153.397zm1.389-30.17c.864-1.335 2.239-2.775 2.239-2.775s-.42-.316-1.06-.708-1.492-1.033-3.102-1.586c-1.61-.547-2.88-.522-2.88-.522l-3.863.198c-1.228.053-1.07.118-1.53.404-.217.139-.849.702-1.448 1.256h10.06v2.212c1.342.71 1.584 1.521 1.584 1.521zm-75.55.925l-.556-.597a47 47 0 0 1 1.65-1.497l.5.646.431-.333-.516-.667a36.2 36.2 0 0 1 4.24-3.084l.43.737.47-.278-.433-.74a26.697 26.697 0 0 1 2.477-1.312l-.23-.492c-.43.197-.861.415-1.294.642l-.477-.819-.47.274.468.808a30.25 30.25 0 0 0-2.048 1.243l-.49-.733-.453.3.489.733a38.22 38.22 0 0 0-1.857 1.358l-.536-.7-.431.331.54.704a44.297 44.297 0 0 0-1.829 1.554l-.663-.717-.399.371.66.712a50.93 50.93 0 0 0-1.523 1.47l-.525-.523-.383.388.528.523-.589.614.398.374c.487-.52.978-1.023 1.475-1.507l.549.587zm9.583-17.862c-3.679-.83-4.575 1.883-4.575 1.883l.325-.13c2.026-.71 3.559-.209 4.818.118s1.976.182 1.976.182c2.817-.662 1.48-3.677 1.48-3.677s-.35 2.455-4.024 1.624zm-12.898 79.595l.124.165s.027-3.168-1.44-3.95-1.976.316-1.874.837c.067.35.33 1.002 1.167 1.412.838.382 1.58 1.022 2.023 1.536zm1.596-5.93c-.941-.282-.714 2.106-.1 2.284.366.105 1.518.379 2.36 1.443l.188.245s.011-3.216-2.448-3.971zm1.416-1.783s-.64-.507-1.03.449-.11 1.116.167 1.177 2.026.532 2.74 1.377l.172.212s.032-1.696-2.05-3.215zm26.138-9.951c.24-.077 1.509-.372 3.46.266l.18.074s-1.1-2.441-3.183-2.265c0 0-.362.013-.52.46a3.34 3.34 0 0 0-.194 1.377s0 .17.257.088zm3.689-6.716s-1.825-2.203-4.424-.53c0 0-.529.267-.39.757.164.59.968 1.586 1.354 1.185 1.047-1.113 2.433-1.562 3.46-1.412zm-4.546-4.203l.206-.07s-2.17-1.846-4.235.462c0 0-.42.45-.14.801s.618.672 1.383.864c0 0 .272.082.33-.057s.638-1.41 2.456-2zm-.235-2.873c.347-.657-.235-1.63-1.233-1.179-.292.131-.437.19-.554.449-.184.387-.132 1.208-1.14 2.165 0 0 1.916.48 2.927-1.435zM46.708 88.22c-.936.706-.282 3.328-.244 3.431l.139.384s.076-1.098 1.036-1.914c0 0 .452-.48.452-1.103 0-.64-.49-1.479-1.383-.798zm8.53 8.343s.176-.826-.28-1.131c0 0-.661-.4-1.197.428-.803 1.234-2.305 1.632-2.305 1.632s1.94 1.241 3.628-.533c0 0 .104-.096.153-.396zM58.5 61.198s-1.272-.025-2.882.522c-1.61.553-2.459 1.193-3.101 1.586s-1.06.708-1.06.708 1.375 1.44 2.239 2.775c0 0 .241-.81 1.584-1.52v-2.213h10.059c-.6-.554-1.23-1.117-1.449-1.256-.459-.286-.301-.351-1.53-.404l-3.86-.198zm19.212-45.72c-1.262-.343-1.665.693-1.678 1.132.588-.513 1.301.332 1.678-1.132zm-10.8-.47c.073 1.8.971 1.056 1.384 1.552.096-.435-.044-1.567-1.383-1.552zm4.111 2.77l.189.227V16.67h-1.99l.95.414c0 .79.851.694.851.694zm3.23-.694l.952-.414H73.21v1.335l.189-.227s.853.096.853-.694zm-49.05 10.8c1.41.9 3.155 1.422 4.968 1.422a9.76 9.76 0 0 0 1.045-.056l1.964-.218-.688-1.851c-.87-2.367-.585-6.251.613-8.147.021-.042.047-.079.07-.119.33.77.822 1.542 1.465 2.278 1.808 2.06 4.47 3.447 7.236 3.777-1.328 1.607-2.227 4.201-2.828 5.338-1.245 2.355-2.424 4.588-7.179 4.588-1.84 0-3.92-1.34-5.3-3.42-.777-1.17-1.239-2.414-1.366-3.592zm64.69 12.326c-.418-.483-1.377-1.976-1.377-1.976s.597-.122 1.258-.152c0 0 1.994.02 2.714 1.307l.016.026c.087.28.093.631-.03 1.082-.396 1.449-2.158.194-2.58-.287zm-1.701.621c-.676.294-2.024-.292-2.56-1.55s-1.299-1.852-1.299-1.852.103-.09.24-.154c.47-.215.849-.28 1.54-.04.78.275 1.417 1.627 1.724 2.242a9.85 9.85 0 0 0 .698 1.166zm-3.863-.503c-.652.372-2.087-.072-2.772-1.29S80.029 37.3 80.029 37.3s.094-.104.223-.182l.02-.01a7.39 7.39 0 0 0 1.235-.251c.1.014.193.021.307.048.824.19 1.622 1.495 2.003 2.085s.842 1.108.842 1.108zm-3.874-.209c-.611.434-2.082.13-2.88-1.015s-1.69-1.586-1.69-1.586.085-.111.206-.2c.24-.18.469-.293.746-.35a12.1 12.1 0 0 0 1.274.17c.688.38 1.356 1.255 1.707 1.701.436.55.944 1.021.944 1.021zm-3.825.414c-.639.453-2.169.134-3.002-1.057s-1.76-1.646-1.76-1.646.087-.119.214-.214c.442-.328.821-.478 1.595-.376.874.113 1.836 1.384 2.289 1.958a10.54 10.54 0 0 0 .98 1.063zm-4.194.205c-1.337.576-3.75.06-4.037-1.177.115-.097.207-.19.24-.252.513.267.87.03 1.199-.059-.119-.303-.166-.714-.007-.968.066-.006.132-.036.2-.053 1.291.506 2.828 2.252 2.828 2.252zm-4.364-3.725c.07-.387.622-.437.813-.351.153.065.498.312.444.702-.152.295-.147.336-.177.434a2.209 2.209 0 0 0-.071.314c-.035.15-.039.452.059.607-.498-.055-1.183-.926-1.068-1.706zm-1.168.638a.472.472 0 0 1 .319-.465c.17-.045.367.07.49.317v.023c.01.02.029.042.037.066-.076.666.05 1.174.17 1.43l.006.019c-.617-.056-.956-.78-1.022-1.39zm.277 1.633c-.428.021-.981-.263-1.243-.808-.184-.396-.036-.893.14-.962.22-.082.438.046.555.259.025.424.25 1.035.424 1.34l.01.019a.728.728 0 0 0 .114.152zm22.254-7.273a20.3 20.3 0 0 0 1.204.04c.38 0 .853-.008 1.317-.055.083.406.231.818.516 1.21.136.39.164.548.09.974-.016.088-.036.164-.046.228a1.592 1.592 0 0 1-.358-.303c-.256-.264-.638-.658-1.27-.658-.468 0-.893.284-1.201.61zm-23.806 6.314c-.247-.24-.393-.749-.37-1.241.043-.819.682-1.393 1.475-1.367.598-1.14 1.565-1.14 2.159-.867 1.065-.495 1.823-2.11 2.467-2.536.012-.24-.024-.532-.038-.848.553.208 1.095.311 1.49.315-.532-1.319-.153-1.728.266-2.352 1.318.24 2.446-.546 3.075-1.303 1.384-.881 2.229-2.644 2.413-4.021 3.272-.701 7.867.243 10.707.622 3.199.423 4.758-.908 4.758-2.266 0-.795-.765-1.76-1.857-1.76s-1.957.946-1.635 2.285c-2.006 0-2.106-1.46-1.346-2.085a2.89 2.89 0 0 0 1.446-.725l.384-.345c.79-.04 1.402-.303 1.915-.567 1.684.31 3.08 1.108 3.08 3.026 0 2.78-2.984 3.913-4.295 3.913a5.87 5.87 0 0 1-2.773-.713c.866.554 1.498 1.795 1.702 2.856 1.052.522 2.09.617 2.765.68 1.64-.518 2.503 1.344 2.63 2.257-.224-.32-1.016-.615-1.466-.59 1.17.651 1.671 1.973 1.61 3.25-.19-.42-.66-.966-1.09-.922 1.017 1.216.548 3.052-.27 3.598.012-.467-.066-1.033-.24-1.434.177.927-.799 2.765-1.864 2.351-.823-.38-1.506-.52-2.25-.602-.032-.004-.052-.003-.08-.004-.279-.023-.56.001-.697.4-.332-.479-.125-1.216.16-1.645a.768.768 0 0 1-.014-.332c.075-.562.67-1.132 1.041-1.132.69 0 .817 1.015 1.908 1.015.224 0 .368-.057.522-.918.115-.639.041-.92-.16-1.478-.433-.55-.502-1.195-.521-1.728-1.311.31-4.21.144-5.15-.16l-.02-.007c-.436-.689-.884-2.602-1.878-3.437-1.347 1.682-.604 3.202.453 4.61.287.085.794 1.131-.37 1.52a.175.175 0 0 0-.06-.12c-.07-.063-.199-.09-.346-.079-.367.028-.855.283-.891.797a1.428 1.428 0 0 0-.51-.015c-.872.137-.967 1.01-1.605 1.453l-.03-.004c-.275-.034-.558-.039-.84-.056-1.226-.078-1.902.157-2.49.514-.883-.542-2.026-.513-2.95-.286.078-.725.696-2.148 1.409-2.148.669.001 1.89.445 2.136.422l.03-.005c1.097-.117.65-.393 1.994-1.642.557-.517 1.199-.963 1.726-.978-1.807-.05-2.13-1.562-2.13-2.381 0-1.076 1.317-2.36 2.06-2.63a2.527 2.527 0 0 0-.619-.091c-1.348-.024-2.082 1.148-2.463 1.802a.96.96 0 0 1-.193.236c-.243.237-.636.47-1.129.72-.658.331-1.49.69-2.396 1.125a.184.184 0 0 1-.037-.025c-.018.34-.071.674-.18.968s-.269.54-.494.702c-.062-.161-.283-.69-.61-.888.54 1.492-.465 3.09-1.295 3.573.165-.251.18-1.061-.095-1.502a3.83 3.83 0 0 1-.516 1.458 4.93 4.93 0 0 1-2.049 1.846c-.303.471-.88 1.116-1.43 1.116.266-.767-.301-1.325-.806-1.452-.44-.111-.993.197-1.132.883-.485-.578-1.05-.216-1.07.32-.058-.122-.455-.328-.71-.22-.316.133-.512.595-.321 1.274zm4.86-8.095c-.032-.028-.061-.058-.092-.086-1.295-1.244-1.094-3.265-.164-4.456-1.057.334-1.414 1.662-1.376 2.91-2.294-2.783-.46-4.63.344-5.374-.832.088-1.697 1.217-2.144 2.12-1.012-1.74-.585-3.207.506-4.039-.726.282-1.386.246-1.586.033 0 0 1.09-1.32 1.271-2.186 0 0 .015-.044.075-.449l.01-.077c-.594.064-.913-.335-1.101-.732a3.46 3.46 0 0 0 .274-.136c.376-.148.737-.226.916-.027l1.044 1.411s-.189 1.223 1.009 1.776c.346.3.825.813.989 1.43.267 1.004 1.161 1.399 1.685 1.395.695-.007 1.451-.38 1.718-1.386.163-.622.613-1.141.959-1.444 1.252-.541 1.062-1.795 1.062-1.795l1.17-1.463c.09-.063.205-.035.333.042.353.455.63.626 1.015.862-.23.367-.766.392-1.351.254.099.735.442 1.907.797 2.595a.57.57 0 0 1 .019.039c.012.025.028.046.04.07.081.147.208.365.36.506-.19.154-.682.154-1.245-.065l.013.017c.252.217.453.496.595.976.32 1.168-.118 2.822-.742 3.587.03-.893-.164-2.258-1.19-2.702 1.31 1.799-.145 4.672-2.062 5.032.3-.506 1.121-2.192-.215-3.88 1.856 3.247-2.43 3.632-1.336 6.155-.589-.206-.873-.405-.97-.451-.862-2.589.532-5.283.532-5.283s-2.057 2.26-1.162 4.82zm-1.578-.52c-.136.293-.272.562-.918-.044s-.634-.631-1.398-.996c-.498-.239-.778-.45-1.205-1.044.327.1.522.07.886-.094-.56 0-1.411-.792-1.74-1.48.23.1.464.082.687 0-.852-.559-.884-1.475-1.139-2.427-1.428-.284-1.792-1.413-1.732-2.136.559.06 1.14-.056 1.314-.343.126-.21.104-.515.02-.76a.88.88 0 0 0 1.028-.743c.409.208 1.079.096 1.271-.837.142.132.247.352.322.598-.346.645-.96 1.517-1.347 1.983l.458.481a1.18 1.18 0 0 0 .464.298c-.416.873-.28 3.104 1.07 4.262.207.86.642 2.443 2.12 2.962l.013.028c-.075.11-.139.215-.174.292zm-7.562-8.613c.174-1.127 1.304-1.004 1.869-.721a.43.43 0 0 1 .017.598c-.084.099-.458.18-.749.065-.276-.201-.784-.17-1.137.058zm2.718-1.802c.195.195.195.379.1.5-.2.245-.443.278-.664.258-.241-.357-.83-.547-1.464-.367.52-.832 1.54-.713 2.028-.391zm1.393-.792c-.009.364-.319.813-.726.667l-.02-.089c-.067-.346-.713-.796-1.001-.857.757-.314 1.475-.03 1.747.279zm6.757 2.651c.212.022.954.071.8.628-.2.713-.81.653-.81.653s-.616.06-.814-.653c-.168-.602.668-.62.824-.628zm-.01 1.654c1.26 0 1.253-1.785 1.314-1.969l.148.066a1.5 1.5 0 0 0 .538.044c-.711.631-.288 1.168-1.064 1.826l-.037.033c-.287.197-.571.303-.9.305a2.422 2.422 0 0 1-.586-.102c-.78-.235-.685-1.39-1.556-1.94.281.02.532.003.654-.017l.124-.04s.11 1.794 1.364 1.794zm-5.496-8.22c.245-.152 1.014.158 1.736.704.212-.293.212-.606.212-.606.059-.836-.302-1.236-.302-1.236s.618-.11 1.3.37c.168.117.479.462.479.462s.077-.33-.071-.975c-.152-.657-.784-.999-1.052-.999 0 0 .5-1.193 1.71-.224.283.224.822 1.2.822 1.2s-.15-1.01.16-1.504c.208-.335.349-.391.349-.391s-.03.48.373.97.985.712.985.712.224-.857.912-.883c.423-.016.652.2.652.2s-.436.635.15 1.858c0 0 .85-1.342 1.61-1.22 0 0-.426.229-.391 1.308l.03.588.018.189c.64-.123 1.257-.054 1.554.183-.016.198-.186 1.128-.427 1.356l-2.403 2.148s.46.948-.229 1.631c-.299.174-1.23.582-1.976-.512a4.357 4.357 0 0 0-.153-.217.494.494 0 0 0 .495-.293c.15-.337.62-.383.62-.383l-.536-.3s-.407.486-.785.486h-.715c-.377 0-.775-.487-.775-.487l-.499.311s.61.055.774.386c.15.3.484.274.484.274l-.111.163c-.597.845-1.284 1.216-2.164.672-.805-.696-.294-1.758-.294-1.758l-1.546-1.31c-1.325-1.147-1.108-2.676-.996-2.874zm24.734 7.223a.906.906 0 0 1 .729-.336c.789 0 1.084.75 1.084.986 0 .721-.87 1.56-3.041 1.56a6.71 6.71 0 0 1-.844-.055l-.961-.138-.13-1.058c.364.566 1.207 1.265 3.048.765-.239-.954-.073-1.49.115-1.724zm-7.583-4.951l.088-.003c1.465.017 2.222.597 3.325.597 2.02 0 1.108-2.106.587-2.306 1.66-.865 2.649 1.264 2.232 1.888 2.555-1.835 5.439.922 5.275 2.308-.63-.571-1.776-.901-2.371-.825-1.148.15-1.44.98-3.174.449-.404-.125-.564-.163-1.192-.453.096.04.297.467.545.734a1.09 1.09 0 0 0 .946.36c-.734.661-1.62.645-2.232.472-1.419-.403-1.423-1.296-2.84-1.551-1.325-.238-3.454-.158-3.454 1.182 0 .833.871 1.193 2.19 1.193.748 0 1.898-.449 2.598-.72a3.775 3.775 0 0 0 1.719.728l-.051.02c-1.547.494-2.454 1.687-5.004 1.687-1.713 0-3.416-.968-3.416-2.803 0-1.922 2.14-2.957 4.23-2.957zm-3.886-5.206c0-.765.503-1.94 1.44-1.94s1.438 1.175 1.438 1.94v1.836h-2.878zm46.926 9.539c.64-.736 1.136-1.507 1.46-2.278l.078.12c1.188 1.895 1.48 5.779.608 8.146l-.686 1.851 1.96.218c.344.037.698.056 1.043.056 1.82 0 3.563-.522 4.975-1.422-.132 1.178-.594 2.422-1.37 3.593-1.381 2.08-3.458 3.419-5.297 3.419-4.76 0-5.938-2.233-7.18-4.588-.603-1.137-1.5-3.73-2.83-5.338 2.764-.33 5.432-1.717 7.239-3.777zM31.869 36.439c9.544 0 7.657-9.042 12.748-9.042 2.236 0 6.55 3.439 8.222 9.146-6.016-3.937-12.95 1.14-13.433 4.515 10.193-3.358 17.787 3.406 19.14 4.7 2.714 2.578 1.456 11.343-3.296 12.396 5.193 2.66 10.21.151 13.043-3.396.73.677 1.741 1.15 2.837 1.27.928.81 1.633 1.987 1.65 4.27-1.301.413-2.432 1.745-1.655 3.338.816 1.829 3.898 3.397 5.455 3.395 3.91-.01 5.14-1.286 8.398-3.007 3.62-1.913 7.743-2.066 10.069-1.632-1.196-.907-2.107-2.608-2.606-4.443-.49-1.801-.582-3.73-.378-5.25.91 2.9 6.942 9.207 14.231 5.455-4.758-1.053-5.713-9.568-3.525-12.597 1.273-1.764 4.41-4.347 8.169-3.965 1.313.137 2.647 1.606 2.018 3.416 1.602-.628 4.95-2.926 4.95-6.2s-4.321-6.687-7.947-5.016c1.672-5.709 5.575-5.78 7.805-5.78 4.384 0 2.365 8.427 11.91 8.427 4.977 0 9.834-6.803 7.736-11.792-1.23 2.121-4.077 3.385-6.918 3.069 1.356-3.671.45-10.862-3.2-11.216.198 2.71-3.437 6.682-8.342 6.988-2.212-2.303-5.5-3.307-7.289-3.307-2.325 0-6.517 3.275-5.977 9.437-.789-2.492-5.479-3.26-6.89-2.176 2.927 1.883 3.568 17.502-2.404 17.502-1.52 0-3.052-.423-5.017-2.656 1.09.114 2.238-.233 2.52-2.06.122-.792-.05-1.429-.403-1.932a1.95 1.95 0 0 0 .525-.236l.036-.016 1.206-.784c.523-.347.92-.983 1.097-1.736.56-.727.56-1.99.37-2.98.36-2.48-1.143-4.377-2.753-4.377a2.3 2.3 0 0 0-.625.084c-.56-.059-1.283-.143-2.03-.446a5.838 5.838 0 0 0-.309-.873 7.01 7.01 0 0 0 .716.042c1.709 0 5.066-1.417 5.066-4.684 0-1.018-.307-1.842-.924-2.47.472-.792-.081-2.385-1.096-3.151-1.008-.76-2.368-1.377-3.971-.76-.122-.312-.318-.722-.529-.963-.73-.82-1.766-1.003-2.766-.48l-.24.125-.695-5.577.047-.051c-2.38-.988-7.253-1.348-10.432-.033l.086.092-.484 3.855c-.332.222-.495.54-.495.54-.137-1.135.407-1.274.407-1.274-1.46-1.045-2.459.13-2.459.13-1.062-.719-.817-1.617-.817-1.617-1.219.155-1.378 1.012-1.378 1.012-2.089-1.505-2.702.99-2.702.99a17.51 17.51 0 0 0 .564.282c-.374-.102-.827-.09-1.342.207 0 0 .812.713.698 1.571l-.093-.085c-.271-.247-.812-.522-.812-.522s-1.323-.677-1.304.415c.02 1.105.3 2.423.3 2.423-.228.206-.378.306-1.068.626a2.367 2.367 0 0 0-.897-.185c-.319 0-.776.049-1.075.17-.3.093-.606.358-.962.735.267.098.399.196.424.287-.686.12-1.13.424-1.323.735-.75.78-.953 2.171-.574 3.088.183-.255.516-.594.781-.68.019.59.195 1.178.553 1.681a1.9 1.9 0 0 0 1.328.827c.211 1.215.757 3.114 1.283 3.807.484.636.83.95 1.477 1.258.649.314.578.282 1.217.88.275.256.648.547 1.079.547.473 0 .724-.311.857-.543.288.404.674.727 1.095.973a6.644 6.644 0 0 0 .035.812c-.234.23-.452.518-.69.831-.334.442-.704.927-1.085 1.207a2.363 2.363 0 0 0-.592-.079c-.472 0-1.298.149-1.935 1.058a2.171 2.171 0 0 0-1.79 2.06c-.035.707.176 1.388.553 1.791.113.118.237.212.375.282.375.537 1.009.9 1.64.932.006.028.01.053.018.081.488 1.725 1.998 2.174 3.448 2.158-.677 2.423.66 4.169 2.143 4.593.502-1.783 2.722-4.238 4.634-4.572-1.006 1.067-2.337 2.79-2.46 4.642 6.453-.291 11.384-2.463 14.624-5.11l.81.928c2.43 3.034 4.44 3.315 6.138 3.298 1.325-.012 2.662-.061 4.214-.669l.394-.153-.23.355c-1.348 2.056-1.553 8.612 1.373 11.67l.22.229h-.318c-3.573 0-9.85-4.551-10.252-9.297-.737.854-1.632 4.324-1.604 6.445l.008.405-.245-.32c-3.106-3.987-2.071-8.722-.946-11.005-6.656 4.687-21.84 8.54-20.24.005-1.22.915-2.439 2.848-2.439 4.678 0 4.227 6.343 5.775 18.859.798-2.315 1.808-5.838 3.864-9.737 4.549 1.128 2.25 1.413 6.672.94 9.091-.335-1.342-1.09-6.998-3.523-8.86-1.877.006-3.795-.365-5.671-1.28l-.044-.031-.004.021c-1.445 2.738-4.898 4.666-7.695 4.666 2.9-3.033 2.802-9.678 1.39-11.838 1.194.468 2.557.673 3.88.673l.388.004c.224 0 .454-.005.687-.019a6.46 6.46 0 0 1 .77-1.658c-.714.14-1.343.134-1.845.134-6.135 0-5.878-14.251-1.483-14.947-.925-2.316-5.672-3.932-6.6 2.663.543-6.166-1.968-12.195-6.785-12.195-1.783 0-5.075 1.004-7.286 3.307-4.906-.306-8.535-4.278-8.343-6.988-3.647.354-4.553 7.545-3.197 11.216-2.847.316-5.69-.948-6.919-3.07-2.1 4.99 2.758 11.793 7.74 11.793zM75.406 8.083c3.405-1.582 9.21-1.308 11.985.035l1.567-1.713 1.62-5.061a23.239 23.239 0 0 0-4.185-1.01l-.535 2.318a20.375 20.375 0 0 0-2.073-.236V.057a34.84 34.84 0 0 0-4.735.052v2.37a44.33 44.33 0 0 0-2.214.237L76.301.417a32.178 32.178 0 0 0-4.072.864l1.64 5.124zm15.717 69.741c.87-.239 1.975-.341 3.195-.36V72.93c-.021-.007-.04-.01-.059-.013zm3.641-5.985a.89.89 0 0 0 .89-.891.889.889 0 1 0-1.776 0c0 .49.393.891.886.891zm-4.436 7.23c.01.416 1.757.758 3.99.795V78.26c-1.892.037-3.434.288-3.867.617zm4.88.795c2.238-.037 3.98-.382 3.98-.798l-.001-.018-.098-.154c-.399-.338-1.957-.598-3.88-.635zM68.344 72.93v4.535c1.216.019 2.321.121 3.19.358l-3.132-4.907c-.018.004-.038.008-.058.014zm26.866.002v4.533c1.217.019 2.324.12 3.194.358l-3.137-4.907-.057.016zm-27.763 6.933V78.26c-1.892.037-3.433.288-3.868.62l-.121.19c.012.416 1.756.758 3.989.795zm0-6.934c-.02-.004-.04-.01-.058-.015l-3.136 4.91c.87-.24 1.976-.342 3.194-.361zm.447-1.09a.89.89 0 0 0 0-1.782.89.89 0 0 0 0 1.781zm.45 8.024c2.233-.037 3.975-.382 3.975-.798l-.002-.018-.096-.152c-.398-.34-1.956-.6-3.877-.637zM66.673 96.8c.066.466.166 1.065.25 1.551a1.219 1.219 0 0 0 .91 2.046 1.226 1.226 0 0 0 .914-2.048A45.94 45.94 0 0 0 69 96.8a7.935 7.935 0 0 0 2.297-.651v-2.275c-.846.455-1.475.68-2.232.778v-3.74c0-1.693-.251-3.983-1.232-4.488-.972.505-1.224 2.795-1.224 4.487v3.741c-.756-.097-1.386-.323-2.233-.778v2.275a7.9 7.9 0 0 0 2.298.651zm47.435 40.936l.166-.522.32-1.03.102-.365a6.39 6.39 0 0 0 .301.485c.1.128.195.262.295.429l.231.386zm2.721-.779c-.282-.443-.565-.792-.844-1.241l-1.417-1.991-.105.059-.08.016-1.582 4.861c-.336 1.061-.467 1.257-.604 1.511l-.193.397c1.673-.851 1.311-.545 1.73-.735l-.024-.124a2.13 2.13 0 0 1 .093-.92l2.204-.958.009.014c.224.302.275.533.295.759l.017.199c.38-.16 1.222-.514 1.637-.645l-.18-.086c-.206-.19-.485-.459-.956-1.116zm23.021-7.43l-.315-.022c.418.513.306.334.694.816v3.265c0 .837-.139 1.138-.224 1.32l-.08.203 1.66.125-.084-.231c-.198-.449-.214-.993-.214-1.139v-2.239l1.63 2.194 1.614-1.854v2.15c0 .551-.064.903-.213 1.254l-.073.15 1.66.229-.094-.208c-.222-.545-.222-1.035-.222-1.385v-2.6c0-.723.17-.896.373-1.114l.176-.19-1.356-.221-.046.08c-.157.264-.219.331-.364.493l-1.437 1.628-1.337-1.8c-.273-.377-.349-.539-.434-.737l-.031-.08-1.283-.087zm-2.471.11l.07-.188c-.58-.01-.886-.004-1.545.007l.092.198c.176.353.176.914.176 1.138v2.098c0 .322-.01.4-.036.498-.13.467-.613.838-1.095.854h-.022c-.08 0-.792-.022-1.075-.693-.07-.182-.1-.373-.1-.68v-1.94c0-.705.045-.891.168-1.222l.068-.196-1.538.102.075.177c.085.196.153.365.153 1.137v2.094c0 1.249.635 2.12 1.886 2.094.655-.015 1.208-.318 1.545-.506l-.046.406h1.263l-.031-.17c-.138-.698-.138-.99-.138-1.347v-2.833c-.004-.688.054-.827.13-1.029zm-11.316.823l-.401 1.34.288-.16c.874-.471 1.221-.574 1.516-.625v3.267a5.31 5.31 0 0 1-.152 1.326l-.046.192c.732-.13 1.092-.163 1.452-.21l-.043-.136c-.098-.34-.144-.745-.144-1.212v-3.388a3.21 3.21 0 0 1 .43-.035c.236 0 .434.043.805.137l.112.031.52-1.173c-1.765.188-2.772.368-4.337.646zm-2.436 4.804l-.017-.364-.217.271c-.265.283-.662.708-1.433.95a1.93 1.93 0 0 1-.563.092c-.772 0-1.305-.582-1.388-1.444a2.342 2.342 0 0 1 1.693-2.482c.21-.057.411-.084.614-.084.255 0 .41.024.913.158l-.113-1.154c-.203-.016-.31-.029-.49-.029a3.16 3.16 0 0 0-.82.115 4.013 4.013 0 0 0-2.228 1.577c-.487.714-.73 1.55-.662 2.292.101 1.03.793 2.04 2.11 2.04.29 0 .604-.035.932-.13.87-.268 1.34-.644 1.652-.852l.056-.045-.039-.91zm-15.11 3.819v-1.46c0-.166.012-.35.024-.475.62-.31.972-.355 1.24-.137a.64.64 0 0 1 .274.58c0 .741-1.032 1.404-1.538 1.492zm1.231-2.994c-.27 0-.549.065-.828.16-.26.092-.731.245-1.109.404l-.589.264.068.15c.074.135.185.3.185 1.224v2.201c0 .82-.125 1.306-.215 1.737l-.074.294c.49-.164.474-.163 1.56-.624l-.03-.132a6.037 6.037 0 0 1-.199-1.344v-.505c1.31-.424 2.629-1.508 2.632-2.656 0-.728-.574-1.173-1.4-1.173zm-21.077 7.152v3.238c0 .78-.12 1.122-.23 1.39l-.092.216c.937-.109 1.231-.162 1.681-.224l-.08-.169c-.199-.42-.212-.937-.212-1.087v-2.308c.544.605 1.057 1.134 1.558 1.677l.117.12 1.614-2.35v2.088c0 .533-.067.934-.223 1.313l-.097.236 1.68-.373-.077-.151c-.219-.45-.219-.947-.219-1.282v-2.609c0-.715.18-1.01.391-1.298l.206-.27-.35.091a12.42 12.42 0 0 1-1.025.196l-.066.009-.029.047c-.139.31-.207.422-.342.642l-.02.024c-.456.618-.658.95-1.478 2.09-.458-.456-.903-.967-1.332-1.414-.275-.333-.352-.47-.434-.628l-.043-.08-.102.012c-.743.092-.988.112-1.48.16l.2.175a12.48 12.48 0 0 0 .484.52zm-6.91 1.044v2.09c0 1.307.703 2.144 1.792 2.144l.089-.003c.645-.012 1.181-.312 1.542-.534a4.82 4.82 0 0 1-.024.24l-.02.167 1.263-.108-.032-.138c-.142-.691-.142-.998-.142-1.356v-2.809c0-.682.058-.83.136-1.073l.074-.224c-.65.055-.447.052-1.557.13l.094.207c.181.36.181.916.181 1.148v2.082c0 .34-.014.408-.039.495-.124.418-.55.873-1.098.901h-.034c-.077 0-.773-.022-1.058-.705-.071-.176-.096-.364-.096-.68v-1.933c0-.748.048-.906.16-1.214l.063-.212c-.484.028-.612.022-1.526.04l.08.227c.082.193.152.353.152 1.118zm-4.085 3.33v-1.652c.419.062.693.16 1.139.305.337-.503.395-.64.638-1.01l-1.777-.089v-1.603c.452.024.743.119 1.28.414l.123.06c.386-.832.304-.572.56-1.14-1.436-.038-2.908-.189-3.285-.217l.063.212a4.82 4.82 0 0 1 .193 1.331v2.596c0 .686-.112 1.046-.193 1.308l-.052.15.17.017c.863.077 1.78.135 2.803.172l.092.005.555-1.221-.287.083c-1.097.334-1.444.313-2.022.279zm-4.163-5.19l-.088-.01-.047.064c-.152.212-.21.296-.367.474a32.54 32.54 0 0 1-1.462 1.56 42.763 42.763 0 0 1-1.344-1.93c-.279-.38-.356-.578-.44-.823l-.027-.051-.074-.012c-.805-.129-.982-.177-1.55-.314l.223.28c.083.08.163.187.242.309l.252.373v3.242c0 .803-.137 1.108-.227 1.302l-.07.15.164.038a48.98 48.98 0 0 0 1.25.267l.25.053-.097-.235c-.204-.488-.22-1.025-.22-1.17v-2.226l1.638 2.348.115-.119 1.536-1.676v2.162c0 .545-.063.896-.216 1.225l-.079.167 1.688.236-.089-.22c-.213-.508-.228-.96-.228-1.382v-2.6c0-.697.174-.904.385-1.162l.181-.177-1.299-.142zm-23.92-6.72v3.29c0 .872-.136 1.066-.226 1.264l-.074.157.149.058c.436.17.857.299 1.247.385l.278.115-.103-.22a3.84 3.84 0 0 1-.213-1.242v-2.2l1.52 2.555.083.051.124-.017c.518-.508 1.031-.906 1.52-1.362v2.242c0 .531-.064.87-.213 1.121l-.07.149.137.064c.45.216.856.377 1.237.524l.299.138-.113-.278c-.21-.605-.227-1.016-.227-1.492v-2.61c0-.67.162-.816.357-.99l.174-.117-.198-.071c-.353-.15-.71-.326-1.013-.474l-.1-.049-.065.104c-.139.22-.201.276-.35.386-.44.33-.876.748-1.316 1.065l-.116.11-.334-.515c-.338-.58-.675-1.14-1.014-1.648a6.989 6.989 0 0 1-.445-.88l-.022-.061-.06-.023a15.009 15.009 0 0 0-1.195-.445l-.385-.12.23.327a7.12 7.12 0 0 0 .498.71zm-7.462-2.293v2.085c0 1.3.702 2.388 1.835 2.74a2.56 2.56 0 0 0 .971.193c.254 0 .47-.039.633-.074-.005.078-.017.174-.036.346l-.015.136.1.046c.313.11.616.168.936.318l.237.11-.045-.277c-.138-.75-.138-.972-.138-1.391v-2.836c0-.676.055-.797.128-.956l.058-.125-.272-.106-.996-.412-.29-.111.114.3c.18.447.18 1.015.18 1.236v2.08c0 .377-.009.445-.03.495a.73.73 0 0 1-.681.43.947.947 0 0 1-.369-.08c-.307-.13-.88-.452-1.147-1.177-.068-.181-.098-.41-.098-.736v-1.913c0-.724.048-.88.159-1.162l.052-.14-1.54-.521.1.283c.081.236.154.448.154 1.219zm-5.71-2.215c.192 0 .33.021.477.05v3.305c-.003.634-.074.982-.149 1.27l-.036.157 1.457.304-.059-.219a5.127 5.127 0 0 1-.148-1.281v-3.326c.492.115.686.212 1.2.531l.121.08.069-.13c.137-.252.265-.505.376-.73l.076-.154-.168-.04a63.095 63.095 0 0 0-4.013-.796l-.114-.018-.402 1.176.231-.046c.463-.09.806-.133 1.082-.133zm-4.783 3.04a1.97 1.97 0 0 1-.242-.017c-1.277-.148-1.853-1.092-1.853-2.014 0-1.052.693-1.784 1.687-1.784a1.9 1.9 0 0 1 .195.01c.564.059.977.27 1.337.49l.209.139v-1.185l-.08-.036c-.256-.11-.61-.275-1.196-.332a3.302 3.302 0 0 0-.342-.016c-1.44 0-2.929 1.036-2.929 2.76 0 .3.056 1.045.587 1.747.5.666 1.266 1.057 2.218 1.141.134.014.267.023.392.023.644 0 1.049-.172 1.344-.29l.083-.03.064-1.154-.225.14c-.25.153-.628.408-1.249.408zm-5.685-4.72l.062-.2-1.579.04.072.184c.121.297.196.593.196 1.2v2.517c0 .847-.095 1.174-.196 1.474l-.06.187 1.56-.04-.049-.16c-.152-.525-.192-.824-.192-1.422v-2.435c0-.77.091-1.043.186-1.345zm-6.747 5.08c-.023-.305-.023-.544-.023-1.033v-2.115c0-.224 0-.549.025-.833 1.63.07 1.759 1.348 1.759 1.752 0 1.268-.916 1.993-1.76 2.229zm.308-4.762a5.945 5.945 0 0 0-1.48.19l-.13.036.032.132c.008.035.018.072.03.115.068.257.17.63.17 1.253v2.24c0 .975-.097 1.286-.197 1.613l-.067.188 1.459-.2c1.639-.224 2.829-1.518 2.829-3.05 0-.623-.193-1.187-.56-1.622-.499-.61-1.18-.895-2.086-.895zm422.858 57.342l1.182-1.68c.994 1.15 2.891 2.145 4.943 2.145 2.3 0 3.574-1.087 3.574-2.58 0-3.637-9.294-1.4-9.294-6.963 0-2.362 1.989-4.32 5.564-4.32 2.58 0 4.383.963 5.564 2.175l-1.088 1.617c-.9-1.09-2.518-1.897-4.476-1.897-2.052 0-3.325 1.025-3.325 2.363 0 3.264 9.294 1.119 9.294 6.964 0 2.517-2.02 4.537-5.876 4.537-2.487 0-4.539-.776-6.062-2.361zm-14.453 0l1.182-1.68c.994 1.15 2.89 2.145 4.942 2.145 2.3 0 3.575-1.087 3.575-2.58 0-3.637-9.295-1.4-9.295-6.963 0-2.362 1.99-4.32 5.564-4.32 2.58 0 4.384.963 5.564 2.175l-1.088 1.617c-.901-1.09-2.516-1.897-4.476-1.897-2.05 0-3.326 1.025-3.326 2.363 0 3.264 9.295 1.119 9.295 6.964 0 2.517-2.02 4.537-5.876 4.537-2.487 0-4.537-.776-6.06-2.361zm-9.728-11.472c-3.201 0-4.787 2.704-4.911 4.974h9.855c-.032-2.206-1.524-4.974-4.944-4.974zm-7.367 5.938c0-4.352 3.108-7.864 7.4-7.864 4.537 0 7.21 3.543 7.21 8.05v.591H413.31c.187 2.829 2.146 5.192 5.379 5.192 1.74 0 3.451-.684 4.662-1.928l1.12 1.523c-1.523 1.493-3.544 2.331-5.969 2.331-4.476 0-7.678-3.2-7.678-7.895zm-6.122 7.523v-9.823c0-2.674-1.368-3.482-3.39-3.482-1.832 0-3.543 1.118-4.444 2.33v10.975h-2.33V174.15h2.33v2.176c1.056-1.275 3.11-2.548 5.378-2.548 3.109 0 4.756 1.584 4.756 4.848v10.539zm-17.159 0V174.15h2.331v15.015zm-.404-18.714a1.59 1.59 0 0 1 1.586-1.585c.87 0 1.554.714 1.554 1.585a1.54 1.54 0 0 1-1.554 1.555c-.872 0-1.586-.685-1.586-1.555zm-15.325 16.725l1.183-1.68c.994 1.15 2.89 2.145 4.942 2.145 2.3 0 3.574-1.087 3.574-2.58 0-3.637-9.294-1.4-9.294-6.963 0-2.362 1.989-4.32 5.564-4.32 2.58 0 4.383.963 5.564 2.175l-1.088 1.617c-.901-1.09-2.518-1.897-4.476-1.897-2.052 0-3.326 1.025-3.326 2.363 0 3.264 9.295 1.119 9.295 6.964 0 2.517-2.02 4.537-5.876 4.537-2.487 0-4.539-.776-6.062-2.361zm-5.718 1.989v-2.115c-1.15 1.306-3.11 2.487-5.347 2.487-3.14 0-4.787-1.553-4.787-4.787v-10.6h2.331v9.886c0 2.642 1.338 3.419 3.388 3.419 1.804 0 3.545-1.056 4.415-2.27v-11.035h2.331v15.015zm-16.816-5.876c0-1.897-1.305-3.575-3.823-3.575h-6.372v7.15h6.372c2.394 0 3.823-1.368 3.823-3.575zm-.404-9.2c0-1.867-1.243-3.358-3.575-3.358h-6.216v6.683h6.216c2.332 0 3.575-1.43 3.575-3.326zm-12.372 15.076v-20.734h9.233c3.606 0 5.813 2.176 5.813 5.284 0 2.611-1.741 4.352-3.638 4.757 2.208.341 4.041 2.61 4.041 5.097 0 3.326-2.205 5.596-5.998 5.596zm-31.052-10.352c0-6.465 4.755-10.724 10.663-10.724 3.699 0 6.247 1.617 8.05 3.854l-2.05 1.306c-1.307-1.678-3.515-2.86-6-2.86-4.54 0-7.99 3.45-7.99 8.424 0 4.911 3.45 8.424 7.99 8.424 2.485 0 4.537-1.181 5.595-2.237v-4.198h-7.15v-2.3h9.698v7.46c-1.928 2.176-4.755 3.607-8.143 3.607-5.908 0-10.663-4.321-10.663-10.756zm-16.847 10.352v-20.734h13.584v2.3h-11.003v6.683h10.785v2.3h-10.785v7.15h11.003v2.3zm-19.459-2.923l1.555-1.989c1.337 1.554 3.576 2.984 6.497 2.984 3.699 0 4.88-1.99 4.88-3.606 0-5.347-12.278-2.363-12.278-9.76 0-3.42 3.045-5.782 7.15-5.782 3.14 0 5.594 1.088 7.335 2.922l-1.554 1.896c-1.554-1.741-3.73-2.487-6-2.487-2.454 0-4.258 1.336-4.258 3.295 0 4.663 12.278 1.989 12.278 9.73 0 2.983-2.05 6.092-7.647 6.092-3.574 0-6.248-1.367-7.958-3.295zm-14.422 2.923v-20.734h2.58v18.433h9.637v2.3zm-14.795 0v-9.823c0-2.674-1.367-3.482-3.388-3.482-1.833 0-3.543 1.118-4.444 2.33v10.975h-2.332V174.15h2.332v2.176c1.057-1.275 3.108-2.548 5.377-2.548 3.11 0 4.756 1.584 4.756 4.848v10.539zm-22.722-18.092l-4.382 11.19h8.797zm6.995 18.092l-1.835-4.631h-10.32l-1.834 4.63h-2.953l8.363-20.733h3.201l8.33 20.734h-2.952" fill="#001eff"/></svg>