<svg xmlns="http://www.w3.org/2000/svg" viewBox="0 0 116 56"><path d="M104.1 20.1c0-5.4-2.6-8.2-5-8.2-1.3 0-2.2.6-3.7 2.4-1 1.2-2.8 3.8-4 5.6 1.4 2.2 2.9 4.4 3.7 5.4C96.5 27 97.3 28 99 28c2.6.1 5.1-2.9 5.1-7.9zm-16.6.2c-1.5-2.2-3.1-4.5-4-5.5-1.4-1.7-2.1-2.9-3.8-2.9-2.6 0-5.1 3-5.1 8 0 5.4 2.6 8.2 5 8.2 1.3 0 2.2-.6 3.7-2.4 1-1.2 2.9-3.7 4.2-5.4zm20.4-.6c0 7.7-4 12.1-8.8 12.1-2.4 0-4.8-1.4-6.8-4-.9-1.2-2-2.8-2.9-4.3-.9 1.3-2.5 3.4-3.8 4.9-1.8 2.2-3.7 3.3-6 3.3-4.5 0-8.7-3.7-8.7-11.5 0-7.9 4-12.1 8.8-12.1 2.4 0 4.5 1.4 6.5 4.2 1 1.3 2.1 2.9 3.2 4.5.9-1.4 2.4-3.8 3.8-5.4 1.8-2.2 3.7-3.3 6-3.3 4.5.1 8.7 3.8 8.7 11.6zm-83.7 7.7L16.4 8.8h-6v22.6H14V13.1l7.9 18.3h4.2L34 13.2v18.2h3.8V8.8h-5.6l-8 18.6zM60.9 8.8h4.3v22.6h-3.8V14l-12 17.4h-4.2V8.8H49v17.4L60.9 8.8z"/></svg>