<svg xmlns="http://www.w3.org/2000/svg" viewBox="0 0 141 50"><path d="M121.9 25.1c0-6.1-3-9.3-5.6-9.3-1.5 0-2.4.7-4.2 2.7-1.1 1.3-3.1 4.2-4.5 6.4 1.6 2.4 3.3 5 4.2 6.1 1.6 2 2.5 3.1 4.4 3.1 2.9 0 5.7-3.4 5.7-9zm-18.8.3c-1.7-2.5-3.5-5.1-4.5-6.3-1.6-2-2.4-3.2-4.3-3.2-2.9 0-5.7 3.4-5.7 9 0 6.1 3 9.3 5.6 9.3 1.5 0 2.4-.7 4.2-2.7 1.2-1.4 3.3-4.2 4.7-6.1zm23-.7c0 8.7-4.5 13.7-10 13.7-2.7 0-5.4-1.6-7.6-4.5-1-1.4-2.2-3.1-3.3-4.8-1.1 1.5-2.8 3.8-4.3 5.6-2.1 2.5-4.1 3.7-6.8 3.7-5.1 0-9.8-4.2-9.8-13 0-8.9 4.5-13.7 10-13.7 2.7 0 5 1.5 7.3 4.7 1.1 1.5 2.4 3.3 3.6 5.1 1-1.6 2.8-4.3 4.2-6.1 2.1-2.5 4.1-3.7 6.8-3.7 5.2 0 9.9 4.2 9.9 13zm-94.4 8.6l-8.8-21h-6.8v25.5h4.2V17.2l8.9 20.6h4.7l8.9-20.6v20.6h4.3V12.3h-6.3l-9.1 21zm41.4-21H78v25.5h-4.3V18.2L60.1 37.9h-4.8V12.3h4.3v19.6l13.5-19.6z"/></svg>