<svg width="32" height="32" viewBox="0 0 32 32" fill="none" xmlns="http://www.w3.org/2000/svg"><path fill-rule="evenodd" clip-rule="evenodd" d="M19.902 7l.015-1.028a3.917 3.917 0 1 0-7.834 0L12.098 7h7.804zm1.973 2l.041-3a5.917 5.917 0 1 0-11.832 0l.041 3h11.75z" fill="#000"/><path d="M5.5 7.5h21A1.5 1.5 0 0 1 28 9v14.23c0 .572.11 1.14.322 1.67l.617 1.543a1.5 1.5 0 0 1-1.393 2.057H4.454a1.5 1.5 0 0 1-1.393-2.057l.617-1.542A4.5 4.5 0 0 0 4 23.23V9a1.5 1.5 0 0 1 1.5-1.5z" fill="#000" stroke="#000"/></svg>