<?xml version="1.0" encoding="UTF-8"?> <svg xmlns="http://www.w3.org/2000/svg" width="43" height="38" viewBox="0 0 43 38" fill="none"> <path d="M17.9403 0.904919C18.0475 0.797734 18.2083 0.744141 18.4226 0.744141C18.7442 0.744141 19.0122 0.958514 19.2265 1.38726C19.4409 1.81601 19.3873 2.13757 19.0657 2.35194C15.0998 5.35316 11.9914 8.40797 9.74053 11.5164C7.5968 14.5176 6.25697 17.7868 5.72104 21.3239C5.50666 22.6102 5.39948 23.5213 5.39948 24.0572C5.39948 25.0219 5.56026 25.933 5.88182 26.7904C6.8465 25.7186 8.29351 25.1826 10.2229 25.1826C12.1522 25.1826 13.6528 25.8258 14.7247 27.112C15.9037 28.2911 16.4933 29.7381 16.4933 31.453C16.4933 33.4896 15.7966 35.0974 14.4031 36.2764C13.1169 37.3483 11.2947 37.8842 8.93663 37.8842C6.25697 37.8842 4.11324 37.0267 2.50544 35.3118C0.897648 33.4896 0.09375 30.9707 0.09375 27.7551C0.09375 18.4299 6.0426 9.47984 17.9403 0.904919ZM41.2533 0.904919C41.3605 0.797734 41.5213 0.744141 41.7357 0.744141C42.0572 0.744141 42.3252 0.958514 42.5396 1.38726C42.7539 1.81601 42.7004 2.13757 42.3788 2.35194C38.4129 5.35316 35.3045 8.40797 33.0536 11.5164C30.9098 14.5176 29.57 17.7868 29.0341 21.3239C28.8197 22.6102 28.7125 23.5213 28.7125 24.0572C28.7125 25.0219 28.8733 25.933 29.1949 26.7904C30.1595 25.7186 31.6066 25.1826 33.5359 25.1826C35.4653 25.1826 36.9659 25.8258 38.0377 27.112C39.2168 28.2911 39.8063 29.7381 39.8063 31.453C39.8063 33.4896 39.1096 35.0974 37.7162 36.2764C36.4299 37.3483 34.6078 37.8842 32.2497 37.8842C29.57 37.8842 27.4263 37.0267 25.8185 35.3118C24.2107 33.4896 23.4068 30.9707 23.4068 27.7551C23.4068 18.4299 29.3556 9.47984 41.2533 0.904919Z" fill="black"></path> </svg> 