<svg width="13" height="13" viewBox="0 0 13 13" fill="none" xmlns="http://www.w3.org/2000/svg">
<g clip-path="url(#clip0_3_1355)">
<path d="M6.35091 12.7018C9.85843 12.7018 12.7018 9.85843 12.7018 6.35091C12.7018 2.8434 9.85843 0 6.35091 0C2.8434 0 0 2.8434 0 6.35091C0 9.85843 2.8434 12.7018 6.35091 12.7018Z" fill="#2b3990 "/>
<path d="M6.35091 12.7018C9.85843 12.7018 12.7018 9.85843 12.7018 6.35091C12.7018 2.8434 9.85843 0 6.35091 0C2.8434 0 0 2.8434 0 6.35091C0 9.85843 2.8434 12.7018 6.35091 12.7018Z" fill="url(#paint0_radial_3_1355)" fill-opacity="0.4"/>
<path d="M6.35704 4.25989C6.37642 4.10456 6.44439 3.97836 6.56088 3.88128C6.67737 3.7842 6.81086 3.73566 6.96134 3.73566C7.1021 3.73566 7.21132 3.78177 7.289 3.874C7.37151 3.96137 7.40305 4.07058 7.38362 4.20164C7.36423 4.35211 7.29383 4.47832 7.1725 4.58025C7.05601 4.67733 6.92252 4.72587 6.77205 4.72587C6.63129 4.72587 6.52207 4.68218 6.44439 4.59481C6.36671 4.50259 6.33761 4.39095 6.35704 4.25989ZM6.11673 6.16752C6.20896 5.88594 6.17742 5.74518 6.02211 5.74518C5.91533 5.74518 5.82066 5.80104 5.73815 5.91265C5.65563 6.01943 5.57068 6.19178 5.48328 6.4296L5.36679 6.73539H5.22847L5.41776 6.19661C5.49061 5.99761 5.57795 5.84469 5.6799 5.73791C5.78184 5.63113 5.89101 5.55589 6.00751 5.5122C6.12888 5.46855 6.24538 5.44667 6.35704 5.44667C6.51718 5.44667 6.63856 5.47821 6.72107 5.54135C6.80359 5.60442 6.85456 5.68694 6.87394 5.78888C6.89337 5.89083 6.89337 6.00244 6.87394 6.12382C6.85456 6.24031 6.82541 6.35436 6.78659 6.46602L6.01483 8.67942C5.96625 8.81535 5.9517 8.91968 5.97113 8.99253C5.99057 9.06532 6.04149 9.1017 6.124 9.1017C6.2114 9.1017 6.29635 9.05561 6.37886 8.96338C6.46138 8.86632 6.55361 8.6843 6.65555 8.41733L6.77205 8.11877H6.91036L6.72107 8.65032C6.65311 8.84444 6.56815 8.99492 6.46621 9.1017C6.36432 9.20853 6.2551 9.28376 6.1386 9.32741C6.02694 9.37594 5.91289 9.40026 5.79639 9.40026C5.58767 9.40026 5.43964 9.35412 5.35224 9.26189C5.26973 9.16483 5.2333 9.03618 5.24302 8.87598C5.25274 8.71096 5.29155 8.53138 5.35951 8.33721L6.11673 6.16752Z" fill="white"/>
</g>
<defs>
<radialGradient id="paint0_radial_3_1355" cx="0" cy="0" r="1" gradientUnits="userSpaceOnUse" gradientTransform="translate(3.73583 1.24528) rotate(77.1419) scale(11.7512)">
<stop stop-color="white"/>
<stop offset="1" stop-color="white" stop-opacity="0"/>
</radialGradient>
<clipPath id="clip0_3_1355">
<rect width="12.99" height="12.99" fill="white"/>
</clipPath>
</defs>
</svg>
