<svg width="414" height="679" viewBox="0 0 414 679" fill="none" xmlns="http://www.w3.org/2000/svg">
<g opacity="0.6">
<path d="M409.024 668.877C405.692 663.198 351.031 571.1 287.486 464.189L171.871 269.749L317.593 269.378L463.191 269.131L466.152 264.44C470.471 257.897 621.251 3.33295 621.991 1.6048C622.485 0.370178 601.756 0 520.936 0L419.264 0L350.414 115.307C312.534 178.762 279.959 233.206 277.985 236.415L274.407 241.971L214.317 241.724L154.104 241.354L82.5383 120.739L10.9737 0H-90.4515C-146.346 0 -192 0.246826 -192 0.617004C-192 1.11127 -101.31 153.824 9.36908 340.117L210.862 679H312.904H415.069L409.024 668.877Z" fill="url(#paint0_linear_41_1919)" fill-opacity="0.1"/>
</g>
<defs>
<linearGradient id="paint0_linear_41_1919" x1="215" y1="-2.21061e-05" x2="215.332" y2="679" gradientUnits="userSpaceOnUse">
<stop stop-color="white" stop-opacity="0.51"/>
<stop offset="1" stop-color="white" stop-opacity="0.32"/>
</linearGradient>
</defs>
</svg>
