<?xml version="1.0" standalone="no"?>
<!DOCTYPE svg PUBLIC "-//W3C//DTD SVG 20010904//EN"
 "http://www.w3.org/TR/2001/REC-SVG-20010904/DTD/svg10.dtd">
<svg version="1.0" xmlns="http://www.w3.org/2000/svg"
 width="988.000000pt" height="988.000000pt" viewBox="0 0 988.000000 988.000000"
 preserveAspectRatio="xMidYMid meet">
<metadata>
Created by potrace 1.11, written by Peter Selinger 2001-2013
</metadata>
<g transform="translate(0.000000,988.000000) scale(0.100000,-0.100000)"
fill="#000000" stroke="none">
<path d="M0 6865 l0 -3015 596 0 595 0 16 37 c8 21 39 79 68 128 229 390 610
667 1190 863 83 28 375 115 650 192 574 162 609 172 689 212 70 35 158 115
194 177 20 35 27 61 30 126 4 73 1 89 -23 143 -67 150 -247 242 -532 273 -189
20 -413 0 -568 -53 -110 -37 -177 -79 -260 -163 -95 -94 -139 -177 -164 -302
l-16 -83 -663 0 -663 0 6 58 c94 859 677 1295 1830 1372 303 20 657 10 940
-26 842 -108 1345 -470 1435 -1036 16 -101 8 -352 -14 -433 -46 -169 -123
-300 -248 -421 -105 -102 -205 -169 -372 -250 -244 -118 -492 -191 -1136 -333
-554 -123 -748 -182 -940 -282 -96 -51 -211 -136 -238 -177 l-14 -22 1261 0
1260 0 1058 1139 1058 1140 838 0 837 1 0 -1140 0 -1140 590 0 590 0 0 3015 0
3015 -4940 0 -4940 0 0 -3015z m3410 2123 c257 -73 437 -242 520 -488 34 -100
39 -271 12 -378 -65 -255 -237 -436 -497 -524 l-70 -23 -1075 -3 -1075 -3 -17
22 c-17 20 -18 69 -18 705 l0 683 23 16 c20 14 127 15 1082 12 925 -2 1067 -5
1115 -19z m1408 6 l22 -15 0 -694 c0 -679 0 -695 -20 -705 -12 -7 -132 -9
-347 -8 l-327 3 -13 25 c-10 19 -13 175 -13 698 0 659 0 672 20 692 19 19 33
20 338 20 271 0 321 -2 340 -16z m2346 0 c23 -22 19 -42 -18 -104 l-32 -55
-470 -5 c-449 -5 -472 -7 -535 -28 -180 -60 -327 -226 -360 -407 -15 -83 -6
-207 21 -278 62 -163 225 -308 390 -346 27 -6 222 -11 498 -11 l452 0 0 298
c0 218 3 301 12 310 9 9 99 12 344 12 296 0 333 -2 345 -17 20 -23 21 -755 1
-775 -11 -11 -221 -13 -1100 -13 -1223 0 -1136 -5 -1302 77 -111 55 -247 187
-302 293 -112 218 -116 447 -12 664 39 79 60 108 132 180 126 125 245 187 402
209 36 5 392 10 792 11 648 1 728 -1 742 -15z m1526 -4 c20 -20 20 -33 20
-702 0 -620 -1 -683 -17 -700 -15 -17 -39 -18 -344 -18 -284 0 -330 2 -343 16
-14 14 -16 91 -16 702 0 378 4 692 8 698 4 6 14 14 22 17 8 3 158 6 333 6 304
1 318 0 337 -19z"/>
<path d="M1910 8284 l0 -535 453 3 452 3 67 26 c173 67 301 203 343 364 23 91
19 226 -9 306 -45 128 -146 250 -255 308 -115 61 -114 61 -603 61 l-448 0 0
-536z"/>
<path d="M6916 4572 l-669 -717 668 -3 c367 -1 670 -1 672 1 2 2 2 326 1 720
l-3 716 -669 -717z"/>
<path d="M5 3018 c-3 -7 -4 -688 -3 -1513 l3 -1500 4935 0 4935 0 0 1510 0
1510 -585 0 -585 0 -3 -542 -2 -543 -555 0 -555 0 0 545 0 545 -3790 0 c-3023
0 -3792 -3 -3795 -12z m3945 -1028 l0 -240 275 0 275 0 0 240 0 240 145 0 145
0 0 -650 0 -650 -145 0 -145 0 0 280 0 280 -275 0 -275 0 0 -280 0 -280 -145
0 -145 0 0 650 0 650 145 0 145 0 0 -240z m1820 212 c258 -73 417 -231 464
-464 82 -402 -154 -730 -572 -793 -66 -10 -179 -15 -354 -15 l-258 0 0 651 0
651 323 -5 c289 -4 330 -6 397 -25z"/>
<path d="M5340 1586 l0 -386 110 0 c324 0 478 112 497 360 15 191 -88 332
-282 387 -27 8 -112 17 -187 20 l-138 6 0 -387z"/>
</g>
</svg>
