<?xml version="1.0"?>
<svg xmlns="http://www.w3.org/2000/svg"  viewBox="0 0 30 30" width="30px" height="30px" style="fill: white;">
    <path d="M 2 2 A 1.0001 1.0001 0 1 0 2 4 L 3.8789062 4 C 4.1048086 4 4.2933102 4.1414634 4.3574219 4.359375 L 8.6191406 18.847656 C 8.993174 20.11937 10.169409 21 11.496094 21 L 22.472656 21 C 23.821072 21 25.011657 20.088693 25.367188 18.789062 L 27.964844 9.2636719 A 1.0001 1.0001 0 0 0 27 8 L 7.5136719 8 L 6.2773438 3.7949219 A 1.0001 1.0001 0 0 0 6.2753906 3.7949219 C 5.9634991 2.7348335 4.9830041 2 3.8789062 2 L 2 2 z M 14 3 C 13.39797 3 12.864628 3.2708554 12.498047 3.6914062 L 12.492188 3.6914062 L 10 6 L 18 6 L 24 6 L 21.513672 3.6914062 L 21.501953 3.6914062 C 21.135372 3.2708554 20.60203 3 20 3 C 19.39797 3 18.864628 3.2708554 18.498047 3.6914062 L 18.492188 3.6914062 L 17.001953 5.0722656 L 15.513672 3.6914062 L 15.501953 3.6914062 C 15.135372 3.2708554 14.60203 3 14 3 z M 12 23 A 2 2 0 0 0 10 25 A 2 2 0 0 0 12 27 A 2 2 0 0 0 14 25 A 2 2 0 0 0 12 23 z M 22 23 A 2 2 0 0 0 20 25 A 2 2 0 0 0 22 27 A 2 2 0 0 0 24 25 A 2 2 0 0 0 22 23 z"/>
</svg>