<svg xmlns="http://www.w3.org/2000/svg" viewBox="0 0 61.92 59.1"><defs><style>.cls-1{fill:#efefef;}.cls-2{fill:#fff;}.cls-3{fill:#4d4d4d;}.cls-4{fill:#f44c81;}.cls-5{fill:#e0e0e0;}.cls-6{fill:#ccc;}.cls-7{fill:#aaa;}.cls-8{fill:#e0447c;}.cls-9{fill:#f79;}.cls-10{fill:#ef608f;}</style></defs><title>Credit card</title><g id="Layer_2" data-name="Layer 2"><g id="Layer_1-2" data-name="Layer 1"><path class="cls-1" d="M41.7,10.12C48,14.89,55.57,19.79,57,26.17s-3.18,14.24-9.43,19.4S33.5,53.21,24.79,54.06,6.52,54.15,2.52,49,.07,34.27,1.79,26.41s3.58-14,7.58-18.76S19.51-.54,25,.07,35.45,5.34,41.7,10.12Z"/><path class="cls-2" d="M10.12,39.29A2.42,2.42,0,0,1,7.7,36.86V21.65A.25.25,0,0,1,8,21.4h46.3a.25.25,0,0,1,.25.25V36.86a2.43,2.43,0,0,1-2.38,2.43h-42Z"/><path class="cls-3" d="M54.25,21.65V36.86A2.17,2.17,0,0,1,52.08,39h-42A2.17,2.17,0,0,1,8,36.86V21.65h46.3m0-.5H8a.5.5,0,0,0-.5.5V36.86a2.68,2.68,0,0,0,2.67,2.68h42a2.68,2.68,0,0,0,2.63-2.68V21.65a.5.5,0,0,0-.5-.5Z"/><rect class="cls-2" x="14.87" y="27.92" width="46.8" height="30.93" rx="2.42" ry="2.42"/><path class="cls-3" d="M59.25,28.17a2.17,2.17,0,0,1,2.17,2.17V56.43a2.17,2.17,0,0,1-2.17,2.17h-42a2.17,2.17,0,0,1-2.17-2.17V30.34a2.17,2.17,0,0,1,2.17-2.17h42m0-.5h-42a2.68,2.68,0,0,0-2.67,2.67V56.43a2.68,2.68,0,0,0,2.67,2.67h42a2.68,2.68,0,0,0,2.67-2.67V30.34a2.68,2.68,0,0,0-2.67-2.67Z"/><path class="cls-2" d="M8,15.38a.25.25,0,0,1-.25-.25V10.78a2.42,2.42,0,0,1,2.42-2.43h42a2.43,2.43,0,0,1,2.42,2.43v4.35a.25.25,0,0,1-.25.25Z"/><path class="cls-3" d="M52.08,8.6a2.18,2.18,0,0,1,2.17,2.18v4.35H8V10.78A2.18,2.18,0,0,1,10.12,8.6h42m0-.5h-42a2.68,2.68,0,0,0-2.67,2.68v4.35a.5.5,0,0,0,.5.5h46.3a.5.5,0,0,0,.5-.5V10.78A2.68,2.68,0,0,0,52.08,8.1Z"/><path class="cls-4" d="M49.9,43.64a4.58,4.58,0,0,1-3.44-1.56c-.09,0-.07-.07-.07-.17V36.16a.28.28,0,0,1,.1-.2,4.59,4.59,0,0,1,3.41-1.52h.29a4.6,4.6,0,0,1,4.3,4.26,4.54,4.54,0,0,1-1.22,3.46A4.64,4.64,0,0,1,49.9,43.64Z"/><path class="cls-3" d="M49.9,34.69h.28a4.35,4.35,0,1,1-3.54,7.21h0V36.16h0a4.35,4.35,0,0,1,3.26-1.47m0-.5a4.85,4.85,0,0,0-3.63,1.64.51.51,0,0,0-.13.33v5.75a.51.51,0,0,0,.15.36,4.83,4.83,0,0,0,3.61,1.62,4.87,4.87,0,0,0,3.55-1.55,4.81,4.81,0,0,0,1.29-3.65,4.86,4.86,0,0,0-4.53-4.49Z"/><rect class="cls-3" x="20.34" y="52.01" width="5.99" height="1.09" rx="0.5" ry="0.5"/><rect class="cls-3" x="29.39" y="52.01" width="5.99" height="1.09" rx="0.5" ry="0.5"/><rect class="cls-3" x="38.43" y="52.01" width="5.99" height="1.09" rx="0.5" ry="0.5"/><rect class="cls-3" x="47.47" y="52.01" width="5.99" height="1.09" rx="0.5" ry="0.5"/><rect class="cls-3" x="20.34" y="44.7" width="11.21" height="1.09" rx="0.5" ry="0.5"/><path class="cls-5" d="M17.12,56.43V30.34a2.17,2.17,0,0,1,2.17-2.17h-2a2.17,2.17,0,0,0-2.17,2.17V56.43a2.17,2.17,0,0,0,2.17,2.17h2A2.17,2.17,0,0,1,17.12,56.43Z"/><path class="cls-5" d="M10,36.86V21.65H8V36.86A2.17,2.17,0,0,0,10.12,39h2A2.17,2.17,0,0,1,10,36.86Z"/><path class="cls-5" d="M12.12,8.6h-2A2.18,2.18,0,0,0,8,10.78v4.35h2V10.78A2.18,2.18,0,0,1,12.12,8.6Z"/><rect class="cls-6" x="7.7" y="14.88" width="46.8" height="7.02" rx="0.25" ry="0.25"/><path class="cls-3" d="M54.25,15.13v6.52H8V15.13h46.3m0-.5H8a.5.5,0,0,0-.5.5v6.52a.5.5,0,0,0,.5.5h46.3a.5.5,0,0,0,.5-.5V15.13a.5.5,0,0,0-.5-.5Z"/><rect class="cls-7" x="7.95" y="15.13" width="2" height="6.52"/><path class="cls-8" d="M47.64,41.91h0V36.16h0a4.37,4.37,0,0,1,2.74-1.43l-.2,0a4.35,4.35,0,0,0-3.54,1.46h0v5.75h0a4.32,4.32,0,0,0,3.26,1.48,4.18,4.18,0,0,0,.51-.06A4.32,4.32,0,0,1,47.64,41.91Z"/><circle class="cls-9" cx="43.38" cy="39.04" r="4.6"/><path class="cls-3" d="M43.38,34.69A4.35,4.35,0,1,1,39,39a4.35,4.35,0,0,1,4.35-4.35m0-.5A4.85,4.85,0,1,0,48.23,39a4.86,4.86,0,0,0-4.85-4.85Z"/><path class="cls-10" d="M40,39a4.34,4.34,0,0,1,3.85-4.3,4.23,4.23,0,0,0-.5-.05,4.35,4.35,0,0,0,0,8.7,4.23,4.23,0,0,0,.5,0A4.35,4.35,0,0,1,40,39Z"/></g></g></svg>