<svg width="308" height="38" viewBox="0 0 308 38" fill="none" xmlns="http://www.w3.org/2000/svg">
<path d="M8.67188 27.2578C8.67188 28.2109 8.59896 29.0547 8.45312 29.7891C8.30729 30.5234 8.08594 31.1406 7.78906 31.6406C7.49219 32.1406 7.11458 32.5182 6.65625 32.7734C6.19792 33.0286 5.65625 33.1562 5.03125 33.1562C4.23958 33.1562 3.57292 32.9349 3.03125 32.4922C2.48958 32.0495 2.07812 31.3906 1.79688 30.5156C1.52083 29.6406 1.38281 28.5547 1.38281 27.2578C1.38281 26.1016 1.5 25.0833 1.73438 24.2031C1.97396 23.3229 2.36198 22.6354 2.89844 22.1406C3.4349 21.6458 4.14844 21.3984 5.03906 21.3984C5.92448 21.3984 6.63281 21.6406 7.16406 22.125C7.70052 22.6094 8.08594 23.2917 8.32031 24.1719C8.55469 25.0469 8.67188 26.0755 8.67188 27.2578ZM2.17969 27.2578C2.17969 28.4297 2.28125 29.401 2.48438 30.1719C2.6875 30.9375 3 31.5104 3.42188 31.8906C3.84375 32.2708 4.38021 32.4609 5.03125 32.4609C5.70312 32.4609 6.2474 32.2708 6.66406 31.8906C7.08073 31.5104 7.38542 30.9349 7.57812 30.1641C7.77604 29.3932 7.875 28.4245 7.875 27.2578C7.875 26.1849 7.78906 25.263 7.61719 24.4922C7.45052 23.7214 7.16146 23.1302 6.75 22.7188C6.33854 22.3073 5.76823 22.1016 5.03906 22.1016C4.32552 22.1016 3.76042 22.3125 3.34375 22.7344C2.92708 23.1562 2.6276 23.7526 2.44531 24.5234C2.26823 25.2943 2.17969 26.2057 2.17969 27.2578ZM12.7422 21.4141C13.5026 21.4141 14.0703 21.7214 14.4453 22.3359C14.8203 22.9505 15.0078 23.8333 15.0078 24.9844C15.0078 26.1615 14.8125 27.0573 14.4219 27.6719C14.0312 28.2812 13.4661 28.5859 12.7266 28.5859C12.0026 28.5859 11.4479 28.276 11.0625 27.6562C10.6823 27.0365 10.4922 26.1458 10.4922 24.9844C10.4922 23.8229 10.6849 22.9375 11.0703 22.3281C11.4609 21.7188 12.0182 21.4141 12.7422 21.4141ZM12.7422 22.0391C12.2422 22.0391 11.8594 22.2839 11.5938 22.7734C11.3333 23.263 11.2031 24 11.2031 24.9844C11.2031 25.9635 11.3307 26.7057 11.5859 27.2109C11.8464 27.7109 12.2266 27.9609 12.7266 27.9609C13.2526 27.9609 13.6458 27.7083 13.9062 27.2031C14.1719 26.6927 14.3047 25.9531 14.3047 24.9844C14.3047 24.0208 14.1797 23.2891 13.9297 22.7891C13.6797 22.2891 13.2839 22.0391 12.7422 22.0391ZM19.6094 21.5781L13.2734 33H12.5312L18.8672 21.5781H19.6094ZM19.3828 25.9922C20.1328 25.9922 20.6953 26.2995 21.0703 26.9141C21.4505 27.5286 21.6406 28.4115 21.6406 29.5625C21.6406 30.7396 21.4453 31.6328 21.0547 32.2422C20.6641 32.8516 20.099 33.1562 19.3594 33.1562C18.6354 33.1562 18.0807 32.849 17.6953 32.2344C17.3151 31.6146 17.125 30.724 17.125 29.5625C17.125 28.401 17.3177 27.5156 17.7031 26.9062C18.0938 26.2969 18.6536 25.9922 19.3828 25.9922ZM19.3828 26.6172C18.8776 26.6172 18.4922 26.862 18.2266 27.3516C17.9661 27.8359 17.8359 28.5729 17.8359 29.5625C17.8359 30.5417 17.9635 31.2812 18.2188 31.7812C18.4792 32.2812 18.8594 32.5312 19.3594 32.5312C19.8854 32.5312 20.2786 32.2812 20.5391 31.7812C20.8047 31.276 20.9375 30.5365 20.9375 29.5625C20.9375 28.599 20.8125 27.8672 20.5625 27.3672C20.3125 26.8672 19.9193 26.6172 19.3828 26.6172Z" fill="white"/>
<path d="M170.656 33H169.883V24.375C169.883 24.0677 169.883 23.7995 169.883 23.5703C169.883 23.3359 169.885 23.1276 169.891 22.9453C169.896 22.7578 169.904 22.5807 169.914 22.4141C169.773 22.5547 169.638 22.6771 169.508 22.7812C169.378 22.8854 169.211 23.0182 169.008 23.1797L167.32 24.4609L166.883 23.8984L169.992 21.5781H170.656V33ZM182.672 27.2578C182.672 28.2109 182.599 29.0547 182.453 29.7891C182.307 30.5234 182.086 31.1406 181.789 31.6406C181.492 32.1406 181.115 32.5182 180.656 32.7734C180.198 33.0286 179.656 33.1562 179.031 33.1562C178.24 33.1562 177.573 32.9349 177.031 32.4922C176.49 32.0495 176.078 31.3906 175.797 30.5156C175.521 29.6406 175.383 28.5547 175.383 27.2578C175.383 26.1016 175.5 25.0833 175.734 24.2031C175.974 23.3229 176.362 22.6354 176.898 22.1406C177.435 21.6458 178.148 21.3984 179.039 21.3984C179.924 21.3984 180.633 21.6406 181.164 22.125C181.701 22.6094 182.086 23.2917 182.32 24.1719C182.555 25.0469 182.672 26.0755 182.672 27.2578ZM176.18 27.2578C176.18 28.4297 176.281 29.401 176.484 30.1719C176.688 30.9375 177 31.5104 177.422 31.8906C177.844 32.2708 178.38 32.4609 179.031 32.4609C179.703 32.4609 180.247 32.2708 180.664 31.8906C181.081 31.5104 181.385 30.9349 181.578 30.1641C181.776 29.3932 181.875 28.4245 181.875 27.2578C181.875 26.1849 181.789 25.263 181.617 24.4922C181.451 23.7214 181.161 23.1302 180.75 22.7188C180.339 22.3073 179.768 22.1016 179.039 22.1016C178.326 22.1016 177.76 22.3125 177.344 22.7344C176.927 23.1562 176.628 23.7526 176.445 24.5234C176.268 25.2943 176.18 26.2057 176.18 27.2578ZM191.812 27.2578C191.812 28.2109 191.74 29.0547 191.594 29.7891C191.448 30.5234 191.227 31.1406 190.93 31.6406C190.633 32.1406 190.255 32.5182 189.797 32.7734C189.339 33.0286 188.797 33.1562 188.172 33.1562C187.38 33.1562 186.714 32.9349 186.172 32.4922C185.63 32.0495 185.219 31.3906 184.938 30.5156C184.661 29.6406 184.523 28.5547 184.523 27.2578C184.523 26.1016 184.641 25.0833 184.875 24.2031C185.115 23.3229 185.503 22.6354 186.039 22.1406C186.576 21.6458 187.289 21.3984 188.18 21.3984C189.065 21.3984 189.773 21.6406 190.305 22.125C190.841 22.6094 191.227 23.2917 191.461 24.1719C191.695 25.0469 191.812 26.0755 191.812 27.2578ZM185.32 27.2578C185.32 28.4297 185.422 29.401 185.625 30.1719C185.828 30.9375 186.141 31.5104 186.562 31.8906C186.984 32.2708 187.521 32.4609 188.172 32.4609C188.844 32.4609 189.388 32.2708 189.805 31.8906C190.221 31.5104 190.526 30.9349 190.719 30.1641C190.917 29.3932 191.016 28.4245 191.016 27.2578C191.016 26.1849 190.93 25.263 190.758 24.4922C190.591 23.7214 190.302 23.1302 189.891 22.7188C189.479 22.3073 188.909 22.1016 188.18 22.1016C187.466 22.1016 186.901 22.3125 186.484 22.7344C186.068 23.1562 185.768 23.7526 185.586 24.5234C185.409 25.2943 185.32 26.2057 185.32 27.2578ZM195.883 21.4141C196.643 21.4141 197.211 21.7214 197.586 22.3359C197.961 22.9505 198.148 23.8333 198.148 24.9844C198.148 26.1615 197.953 27.0573 197.562 27.6719C197.172 28.2812 196.607 28.5859 195.867 28.5859C195.143 28.5859 194.589 28.276 194.203 27.6562C193.823 27.0365 193.633 26.1458 193.633 24.9844C193.633 23.8229 193.826 22.9375 194.211 22.3281C194.602 21.7188 195.159 21.4141 195.883 21.4141ZM195.883 22.0391C195.383 22.0391 195 22.2839 194.734 22.7734C194.474 23.263 194.344 24 194.344 24.9844C194.344 25.9635 194.471 26.7057 194.727 27.2109C194.987 27.7109 195.367 27.9609 195.867 27.9609C196.393 27.9609 196.786 27.7083 197.047 27.2031C197.312 26.6927 197.445 25.9531 197.445 24.9844C197.445 24.0208 197.32 23.2891 197.07 22.7891C196.82 22.2891 196.424 22.0391 195.883 22.0391ZM202.75 21.5781L196.414 33H195.672L202.008 21.5781H202.75ZM202.523 25.9922C203.273 25.9922 203.836 26.2995 204.211 26.9141C204.591 27.5286 204.781 28.4115 204.781 29.5625C204.781 30.7396 204.586 31.6328 204.195 32.2422C203.805 32.8516 203.24 33.1562 202.5 33.1562C201.776 33.1562 201.221 32.849 200.836 32.2344C200.456 31.6146 200.266 30.724 200.266 29.5625C200.266 28.401 200.458 27.5156 200.844 26.9062C201.234 26.2969 201.794 25.9922 202.523 25.9922ZM202.523 26.6172C202.018 26.6172 201.633 26.862 201.367 27.3516C201.107 27.8359 200.977 28.5729 200.977 29.5625C200.977 30.5417 201.104 31.2812 201.359 31.7812C201.62 32.2812 202 32.5312 202.5 32.5312C203.026 32.5312 203.419 32.2812 203.68 31.7812C203.945 31.276 204.078 30.5365 204.078 29.5625C204.078 28.599 203.953 27.8672 203.703 27.3672C203.453 26.8672 203.06 26.6172 202.523 26.6172Z" fill="white"/>
<path d="M241.227 27.0156H244.602V27.6953H241.227V31.1016H240.547V27.6953H237.18V27.0156H240.547V23.6016H241.227V27.0156ZM253.5 33H246.352V32.3281L249.711 28.8281C250.247 28.2708 250.698 27.7682 251.062 27.3203C251.432 26.8672 251.711 26.4141 251.898 25.9609C252.091 25.5078 252.188 25 252.188 24.4375C252.188 23.7031 251.971 23.1328 251.539 22.7266C251.112 22.3203 250.531 22.1172 249.797 22.1172C249.302 22.1172 248.826 22.2057 248.367 22.3828C247.914 22.5599 247.471 22.8203 247.039 23.1641L246.602 22.6094C246.919 22.349 247.253 22.1302 247.602 21.9531C247.956 21.776 248.318 21.6432 248.688 21.5547C249.057 21.4609 249.427 21.4141 249.797 21.4141C250.448 21.4141 251.01 21.5391 251.484 21.7891C251.964 22.0339 252.336 22.3802 252.602 22.8281C252.867 23.276 253 23.8021 253 24.4062C253 25.0312 252.891 25.599 252.672 26.1094C252.458 26.6146 252.154 27.1094 251.758 27.5938C251.362 28.0781 250.893 28.599 250.352 29.1562L247.375 32.2344V32.2656H253.5V33ZM262.734 26.4141C262.734 27.2734 262.667 28.0573 262.531 28.7656C262.401 29.474 262.206 30.1042 261.945 30.6562C261.685 31.2031 261.357 31.6641 260.961 32.0391C260.565 32.4141 260.102 32.6979 259.57 32.8906C259.039 33.0833 258.44 33.1797 257.773 33.1797C257.497 33.1797 257.208 33.1615 256.906 33.125C256.604 33.0938 256.352 33.0495 256.148 32.9922V32.2578C256.346 32.3255 256.589 32.3828 256.875 32.4297C257.167 32.4766 257.464 32.5 257.766 32.5C258.656 32.5 259.406 32.2917 260.016 31.875C260.625 31.4531 261.091 30.8307 261.414 30.0078C261.737 29.1849 261.914 28.1693 261.945 26.9609H261.891C261.745 27.237 261.531 27.5052 261.25 27.7656C260.974 28.026 260.63 28.2396 260.219 28.4062C259.807 28.5677 259.323 28.6484 258.766 28.6484C258.078 28.6484 257.487 28.5104 256.992 28.2344C256.497 27.9531 256.117 27.5547 255.852 27.0391C255.591 26.5182 255.461 25.901 255.461 25.1875C255.461 24.4323 255.602 23.7734 255.883 23.2109C256.164 22.6432 256.565 22.2031 257.086 21.8906C257.612 21.5729 258.24 21.4141 258.969 21.4141C259.604 21.4141 260.156 21.5417 260.625 21.7969C261.094 22.0469 261.484 22.401 261.797 22.8594C262.109 23.3125 262.344 23.8411 262.5 24.4453C262.656 25.0495 262.734 25.7057 262.734 26.4141ZM258.969 22.1094C258.115 22.1094 257.448 22.3776 256.969 22.9141C256.495 23.4453 256.258 24.2005 256.258 25.1797C256.258 26.0443 256.474 26.7292 256.906 27.2344C257.344 27.7344 258.008 27.9844 258.898 27.9844C259.508 27.9844 260.034 27.862 260.477 27.6172C260.924 27.3672 261.268 27.0599 261.508 26.6953C261.753 26.3307 261.875 25.9714 261.875 25.6172C261.875 25.2943 261.826 24.9323 261.727 24.5312C261.633 24.1302 261.474 23.7474 261.25 23.3828C261.031 23.013 260.734 22.7083 260.359 22.4688C259.99 22.2292 259.526 22.1094 258.969 22.1094ZM266.883 21.4141C267.643 21.4141 268.211 21.7214 268.586 22.3359C268.961 22.9505 269.148 23.8333 269.148 24.9844C269.148 26.1615 268.953 27.0573 268.562 27.6719C268.172 28.2812 267.607 28.5859 266.867 28.5859C266.143 28.5859 265.589 28.276 265.203 27.6562C264.823 27.0365 264.633 26.1458 264.633 24.9844C264.633 23.8229 264.826 22.9375 265.211 22.3281C265.602 21.7188 266.159 21.4141 266.883 21.4141ZM266.883 22.0391C266.383 22.0391 266 22.2839 265.734 22.7734C265.474 23.263 265.344 24 265.344 24.9844C265.344 25.9635 265.471 26.7057 265.727 27.2109C265.987 27.7109 266.367 27.9609 266.867 27.9609C267.393 27.9609 267.786 27.7083 268.047 27.2031C268.312 26.6927 268.445 25.9531 268.445 24.9844C268.445 24.0208 268.32 23.2891 268.07 22.7891C267.82 22.2891 267.424 22.0391 266.883 22.0391ZM273.75 21.5781L267.414 33H266.672L273.008 21.5781H273.75ZM273.523 25.9922C274.273 25.9922 274.836 26.2995 275.211 26.9141C275.591 27.5286 275.781 28.4115 275.781 29.5625C275.781 30.7396 275.586 31.6328 275.195 32.2422C274.805 32.8516 274.24 33.1562 273.5 33.1562C272.776 33.1562 272.221 32.849 271.836 32.2344C271.456 31.6146 271.266 30.724 271.266 29.5625C271.266 28.401 271.458 27.5156 271.844 26.9062C272.234 26.2969 272.794 25.9922 273.523 25.9922ZM273.523 26.6172C273.018 26.6172 272.633 26.862 272.367 27.3516C272.107 27.8359 271.977 28.5729 271.977 29.5625C271.977 30.5417 272.104 31.2812 272.359 31.7812C272.62 32.2812 273 32.5312 273.5 32.5312C274.026 32.5312 274.419 32.2812 274.68 31.7812C274.945 31.276 275.078 30.5365 275.078 29.5625C275.078 28.599 274.953 27.8672 274.703 27.3672C274.453 26.8672 274.06 26.6172 273.523 26.6172Z" fill="white"/>
<path d="M12 7.99984C12 5.78202 13.782 3.97576 15.9996 3.94579L300.001 0.108094C304.401 0.0486329 308 3.59931 308 8C308 12.4007 304.401 15.9514 300.001 15.8919L15.9996 12.0539C13.782 12.0239 12 10.2177 12 7.99984Z" fill="#B3B3B3" fill-opacity="0.7"/>
<path d="M12 7.99985C12 5.78018 13.7801 3.97066 15.9995 3.93428L248.001 0.131125C252.397 0.0590569 256 3.60309 256 8C256 12.3969 252.397 15.9409 248.001 15.8689L15.9995 12.0654C13.7801 12.029 12 10.2195 12 7.99985Z" fill="#00FF29" fill-opacity="0.7"/>
<path d="M12 7.99193C12 5.69541 13.8417 3.82323 16.1379 3.78557L179.001 1.11477C182.848 1.05169 186 4.15256 186 7.99967C186 11.847 182.847 14.948 179.001 14.8846L16.1376 12.1983C13.8415 12.1604 12 10.2883 12 7.99193Z" fill="white"/>
</svg>
