<svg width="16" height="16" viewBox="0 0 16 16" fill="none" xmlns="http://www.w3.org/2000/svg">
<path d="M8.83754 2.878V6.882C8.83754 7.30667 8.81654 7.72433 8.77454 8.135C8.73254 8.541 8.67654 8.97267 8.60654 9.43H7.43754C7.36754 8.97267 7.31154 8.541 7.26954 8.135C7.22754 7.72433 7.20654 7.30667 7.20654 6.882V2.878H8.83754ZM6.94054 12.048C6.94054 11.9033 6.96621 11.7657 7.01754 11.635C7.07354 11.5043 7.14821 11.3923 7.24154 11.299C7.33954 11.2057 7.45387 11.131 7.58454 11.075C7.71521 11.019 7.85521 10.991 8.00454 10.991C8.14921 10.991 8.28687 11.019 8.41754 11.075C8.54821 11.131 8.66021 11.2057 8.75354 11.299C8.84687 11.3923 8.92154 11.5043 8.97754 11.635C9.03354 11.7657 9.06154 11.9033 9.06154 12.048C9.06154 12.1973 9.03354 12.3373 8.97754 12.468C8.92154 12.594 8.84687 12.7037 8.75354 12.797C8.66021 12.8903 8.54821 12.9627 8.41754 13.014C8.28687 13.07 8.14921 13.098 8.00454 13.098C7.85521 13.098 7.71521 13.07 7.58454 13.014C7.45387 12.9627 7.33954 12.8903 7.24154 12.797C7.14821 12.7037 7.07354 12.594 7.01754 12.468C6.96621 12.3373 6.94054 12.1973 6.94054 12.048Z" fill="#FAFAFF"/>
<circle cx="8" cy="8" r="7.5" stroke="#FAFAFF"/>
</svg>
