<svg xmlns="http://www.w3.org/2000/svg" viewBox="0 0 32 32">
  <defs>
    <clipPath id="a">
      <path d="M0 62h62V0H0v62z"/>
    </clipPath>
  </defs>
  <g clip-path="url(#a)" transform="matrix(1.25,0,0,-1.25,0,32) scale(0.41290323,0.41290323)" fill="#fff">
    <path d="M60 8c0-1.103-.897-2-2-2s-2 .897-2 2v1.127l-8.745 34.007c1.479.316 2.753 1.18 3.609 2.367L60 9.874V8zM49 24v4h-6v-4h-1.11L46 39.984 50.11 24H49zm-2-4h-2v6h2v-6zM36.031 9.249L36 8c0-1.103-.897-2-2-2s-2 .897-2 2v1.874l9.135 35.628c.856-1.187 2.131-2.051 3.609-2.367L36.031 9.249zM30.737 13H21v18h14.352l-1.795-7H30v-2h3.045l-2.308-9zm5.128 20h-12.99l9.139 4.875 4.521-2.261-.67-2.614zM14 14v31h24.942l-1.898-7.404-5.058 2.529-15.456-8.242.941-1.766 1.529.816V11h11.224l-.193-.752L30.014 9H11.889C13.19 10.272 14 12.042 14 14M2 14c0 2.757 2.243 5 5 5s5-2.243 5-5-2.243-5-5-5-5 2.243-5 5m0 32c0 2.757 2.243 5 5 5s5-2.243 5-5V18.889C10.728 20.19 8.958 21 7 21c-1.958 0-3.728-.81-5-2.111V46zm44 7c2.206 0 4-1.794 4-4s-1.794-4-4-4-4 1.794-4 4 1.794 4 4 4m-2 7h4v-5.35c-.627.222-1.298.35-2 .35s-1.373-.128-2-.35V60zm18-36h-3.557l-6.451 25.157c-.044 1.708-.804 3.236-1.992 4.303V62h-8v-8.54c-1.188-1.066-1.948-2.595-1.992-4.302L39.455 47H13.92c-.488 3.386-3.401 6-6.92 6-3.859 0-7-3.141-7-7V14c0-3.859 3.141-7 7-7h23.142c.364-1.399 1.459-2.495 2.858-2.858V0h2v4.142c1.721.447 3 1.999 3 3.858v.873L41.376 22H43v-4h6v4h1.624L54 8.873V8c0-1.859 1.279-3.411 3-3.858V0h2v4.142c1.721.447 3 1.999 3 3.858v2.126L58.955 22H62v2z"/>
    <path d="M4 25h2v-2H4v2zM4 42h2V27H4v15z"/>
  </g>
</svg>