<?xml version="1.0" standalone="no"?>
<!DOCTYPE svg PUBLIC "-//W3C//DTD SVG 1.1//EN" "http://www.w3.org/Graphics/SVG/1.1/DTD/svg11.dtd" >
<svg xmlns="http://www.w3.org/2000/svg">
<metadata></metadata>
<defs>
<font id="museo_cyrl500" horiz-adv-x="1181" >
<font-face units-per-em="2048" ascent="1536" descent="-512" />
<missing-glyph horiz-adv-x="550" />
<glyph horiz-adv-x="0" />
<glyph unicode="&#xd;" horiz-adv-x="681" />
<glyph unicode=" "  horiz-adv-x="550" />
<glyph unicode="&#x09;" horiz-adv-x="550" />
<glyph unicode="&#xa0;" horiz-adv-x="550" />
<glyph unicode="!" horiz-adv-x="548" d="M172 1446h205l-12 -1049h-179zM174 0v199h203v-199h-203z" />
<glyph unicode="&#x22;" horiz-adv-x="706" d="M131 1085v385h156v-385h-156zM418 1085v385h157v-385h-157z" />
<glyph unicode="#" horiz-adv-x="1447" d="M76 391l24 152h269l61 344h-266l24 149h267l71 410h166l-71 -410h317l72 410h168l-72 -410h266l-24 -149h-269l-61 -344h266l-24 -152h-267l-67 -391h-168l69 391h-317l-70 -391h-166l70 391h-268zM535 543h317l61 344h-317z" />
<glyph unicode="$" d="M109 256l145 121q4 -8 14.5 -22.5t43 -52.5t69.5 -65.5t97.5 -51t125.5 -23.5q111 0 179.5 60.5t68.5 154.5q0 84 -71.5 145.5t-175 106.5t-206 98t-174 146.5t-71.5 222.5q0 143 104 244.5t272 123.5v193h150v-191q82 -10 153.5 -35.5t128 -85t56.5 -141.5v-119h-189v68 q0 55 -62 93t-151 38q-115 0 -184.5 -53t-69.5 -133q0 -61 39 -108.5t100.5 -81.5t135.5 -65.5t148.5 -70.5t136 -87t100.5 -126t39 -176q0 -152 -104.5 -266.5t-276.5 -134.5v-191h-150v189q-82 10 -155.5 41.5t-119.5 70.5t-81 76t-51 61z" />
<glyph unicode="%" horiz-adv-x="1531" d="M84 1167q0 125 91 214t220 89q127 0 219.5 -89t92.5 -214t-92.5 -214t-219.5 -89q-131 0 -221 88t-90 215zM117 0l1106 1446h192l-1106 -1446h-192zM244 1167q0 -66 44 -108.5t107.5 -42.5t107.5 44t44 107.5t-44 108.5t-107.5 45t-107.5 -45t-44 -109zM827 279 q0 125 90.5 214t219.5 89t220 -89.5t91 -214t-91 -214t-220 -89.5t-219.5 88.5t-90.5 215.5zM987 278.5q0 -63.5 43 -107.5t106.5 -44t107.5 43t44 109q0 63 -44 108t-107.5 45t-106.5 -45t-43 -108.5z" />
<glyph unicode="&#x26;" horiz-adv-x="1306" d="M88 414q0 119 67.5 223t184.5 137v4q-8 2 -20.5 8.5t-45 32t-57 58t-45 92t-20.5 129.5q0 168 119.5 270t314.5 102q43 0 89 -6t70 -10l25 -6l-51 -162q-61 14 -111 14q-111 0 -181.5 -63t-70.5 -160q0 -39 11.5 -74.5t38 -72.5t82 -58.5t135.5 -21.5h260v186h198v-186 h185v-176h-185v-193q0 -240 -130 -373t-359 -133q-221 0 -362.5 125.5t-141.5 313.5zM297 416q0 -106 80 -180t215 -74q137 0 214 81t77 246v185h-258q-158 0 -243 -67.5t-85 -190.5z" />
<glyph unicode="'" horiz-adv-x="419" d="M131 1085v385h158v-385h-158z" />
<glyph unicode="(" horiz-adv-x="555" d="M84 674q0 475 231 831h174q-225 -377 -225 -817q0 -471 236 -883h-174q-242 373 -242 869z" />
<glyph unicode=")" horiz-adv-x="555" d="M55 -195q236 412 236 883q0 440 -228 817h177q231 -356 231 -831q0 -492 -242 -869h-174z" />
<glyph unicode="*" horiz-adv-x="989" d="M88 1085l55 172l273 -102l-17 291h187l-17 -291l275 102l57 -172l-283 -75v-4l183 -226l-148 -106l-157 241h-4l-158 -241l-148 106l183 226v4z" />
<glyph unicode="+" d="M49 504v160h459v503h168v-503h457v-160h-457v-504h-168v504h-459z" />
<glyph unicode="," horiz-adv-x="509" d="M49 -207l127 422h199l-172 -422h-154z" />
<glyph unicode="-" horiz-adv-x="839" d="M121 496v176h598v-176h-598z" />
<glyph unicode="." horiz-adv-x="444" d="M121 0v211h203v-211h-203z" />
<glyph unicode="/" horiz-adv-x="845" d="M76 -86l520 1610h176l-520 -1610h-176z" />
<glyph unicode="0" horiz-adv-x="1226" d="M102 725q0 745 510 745q512 0 512 -745q0 -750 -512 -750q-510 0 -510 750zM309 725q0 -563 303 -563q305 0 306 563q0 559 -306 559q-303 0 -303 -559z" />
<glyph unicode="1" horiz-adv-x="952" d="M80 1110l344 336h188v-1270h314v-176h-836v176h318v934l2 88h-4q-16 -31 -68 -82l-137 -133z" />
<glyph unicode="2" horiz-adv-x="1167" d="M76 166q0 109 41 196t105.5 145t142 107.5t156.5 93.5t143.5 90t105.5 110.5t41 144.5q0 100 -69.5 164.5t-184.5 64.5q-94 0 -158.5 -41t-64.5 -96v-64h-189v123q0 88 72 151.5t164 89t184 25.5q199 0 327 -115.5t128 -299.5q0 -137 -76 -243.5t-183.5 -173.5t-215 -125 t-183 -133t-75.5 -165q0 -39 51 -39h514q45 0 45 45v92h188v-182q0 -70 -30.5 -100.5t-100.5 -30.5h-741q-82 0 -109.5 37t-27.5 129z" />
<glyph unicode="3" horiz-adv-x="1138" d="M70 178l110 154q16 -18 47 -46t126.5 -73t193.5 -45q121 0 205 74.5t84 189.5q0 117 -91.5 187.5t-222.5 70.5h-100l-45 109l301 379q18 27 39.5 50t34.5 34l12 10v4q-43 -6 -123 -6h-281q-45 0 -45 -45v-92h-186v182q0 70 27.5 100.5t95.5 30.5h762v-129l-379 -459 q162 -18 285.5 -124.5t123.5 -299.5q0 -188 -139 -323.5t-358 -135.5q-133 0 -252 51.5t-172 100.5z" />
<glyph unicode="4" horiz-adv-x="1200" d="M37 383v131l653 932h234v-887h225v-176h-225v-383h-205v383h-682zM260 553q59 6 123 6h338v498l8 147h-4q-35 -68 -72 -121l-319 -434l-74 -92v-4z" />
<glyph unicode="5" horiz-adv-x="1122" d="M76 178l112 150q4 -6 13.5 -17.5t41 -39t67.5 -48t94.5 -38t119.5 -17.5q135 0 223.5 83t88.5 206q0 131 -99.5 213t-242.5 82q-72 0 -141.5 -18.5t-102.5 -37.5l-33 -18l-84 39l57 598q6 72 35 101.5t97 29.5h505q68 0 98.5 -31t30.5 -100v-182h-186v92q0 45 -45 45 h-303q-39 0 -45 -45l-29 -264l-10 -76h4q80 43 186 43q231 0 373.5 -136.5t142.5 -338.5q0 -197 -145 -337.5t-375 -140.5q-133 0 -244.5 51.5t-156.5 100.5z" />
<glyph unicode="6" horiz-adv-x="1169" d="M90 641q0 147 40 289.5t117 265.5t206 198.5t288 75.5q76 0 146.5 -14t103.5 -31l31 -14l-66 -174q-90 47 -204 47q-186 0 -297 -144.5t-138 -351.5h5q41 63 131 102.5t188 39.5q201 0 328 -135.5t127 -335.5q0 -213 -131 -348.5t-334 -135.5q-233 0 -387 183.5 t-154 482.5zM305 555q0 -145 96.5 -269t229.5 -124q121 0 192.5 84t71.5 213q0 133 -80 216t-217 83q-119 0 -206 -61.5t-87 -141.5z" />
<glyph unicode="7" horiz-adv-x="1081" d="M68 1133v182q0 70 27.5 100.5t94.5 30.5h881v-139l-702 -1307h-226l613 1139l84 133v4q-33 -6 -105 -6h-436q-45 0 -45 -45v-92h-186z" />
<glyph unicode="8" horiz-adv-x="1185" d="M88 414q0 66 24.5 129t60.5 105t71 74t59 48l25 14v4q-8 4 -19.5 11.5t-42 35t-54.5 58.5t-43 83t-19 107q0 160 120.5 273.5t329.5 113.5q205 0 329 -109.5t124 -281.5q0 -94 -44 -180t-87 -125l-45 -39v-4q217 -125 217 -332q0 -174 -142.5 -299t-359.5 -125 q-209 0 -356.5 122t-147.5 317zM295 424q0 -117 87 -189.5t210 -72.5q119 0 206 69.5t87 174.5q0 86 -60.5 137t-181.5 100q-131 53 -149 53q-49 0 -124 -85t-75 -187zM350 1079q0 -86 58.5 -133t179.5 -94q76 -35 110 -35q41 0 97.5 80t56.5 170q0 98 -69.5 157.5 t-182.5 59.5q-115 0 -182.5 -58.5t-67.5 -146.5z" />
<glyph unicode="9" horiz-adv-x="1169" d="M74 987q0 213 131 348t334 135q233 0 386.5 -183t153.5 -482q0 -147 -40 -289.5t-116.5 -265.5t-204.5 -199t-290 -76q-76 0 -146.5 14.5t-101.5 30.5l-33 15l66 176q92 -49 207 -49q184 0 296.5 145.5t137.5 351.5h-4q-43 -66 -132 -103.5t-188 -37.5q-203 0 -329.5 134 t-126.5 335zM274 987q0 -131 80 -215t217 -84q119 0 206 61.5t87 141.5q0 145 -95 269t-228 124q-123 0 -195 -84t-72 -213z" />
<glyph unicode=":" horiz-adv-x="444" d="M121 0v211h203v-211h-203zM121 825v211h203v-211h-203z" />
<glyph unicode=";" horiz-adv-x="548" d="M94 -207l105 422h198l-149 -422h-154zM203 825v211h203v-211h-203z" />
<glyph unicode="&#x3c;" d="M88 516v135l954 426v-182l-731 -309v-4l731 -310v-182z" />
<glyph unicode="=" d="M102 309v160h977v-160h-977zM102 696v160h977v-160h-977z" />
<glyph unicode="&#x3e;" d="M137 90v182l731 310v4l-731 309v182l955 -426v-135z" />
<glyph unicode="?" horiz-adv-x="948" d="M76 1343q14 14 42.5 36t122 59t191.5 37q180 0 304 -104.5t124 -270.5q0 -94 -37 -169t-90 -125t-107.5 -96t-91 -103.5t-36.5 -125.5v-84h-193v97q0 86 36 156.5t87 119.5t102.5 94t87 101.5t35.5 119.5q0 86 -67.5 144.5t-167.5 58.5q-57 0 -115.5 -21.5t-89.5 -41.5 l-29 -23zM299 0v199h205v-199h-205z" />
<glyph unicode="@" horiz-adv-x="1601" d="M98 493.5q0 317.5 217 537.5t531 220q276 0 404 -117.5t128 -297.5v-580h148v-150h-559q-186 0 -305 114t-119 274q0 158 117.5 270.5t306.5 112.5h221q-4 92 -91 151t-241 59q-236 0 -397.5 -175t-161.5 -418q0 -248 163 -418t419 -170v-162q-340 0 -560.5 216 t-220.5 533.5zM743 496q0 -100 68 -170t170 -70h207v483h-203q-106 0 -174 -70.5t-68 -172.5z" />
<glyph unicode="A" horiz-adv-x="1361" d="M25 0v176h28q53 0 68 45l452 1225h215l453 -1225q14 -45 68 -45h28v-176h-112q-76 0 -110 23.5t-60 95.5l-109 297h-530l-109 -297q-27 -72 -60.5 -95.5t-109.5 -23.5h-112zM465 588h432l-158 440l-57 203h-4q-31 -127 -55 -203z" />
<glyph unicode="B" horiz-adv-x="1247" d="M68 1270v176h620q186 0 303 -98.5t117 -270.5q0 -113 -51 -192.5t-129 -118.5v-4q111 -33 174 -129t63 -221q0 -197 -132 -304.5t-333 -107.5h-366q-70 0 -101.5 30.5t-31.5 100.5v1139h-133zM406 221q0 -45 45 -45h260q113 0 178 67.5t65 178t-67.5 179.5t-177.5 69 h-303v-449zM406 838h282q96 0 153.5 61.5t57.5 157.5t-57.5 154.5t-157.5 58.5h-278v-432z" />
<glyph unicode="C" horiz-adv-x="1429" d="M72 735q0 313 207.5 524t517.5 211q80 0 168 -17t175 -51t143 -98.5t56 -146.5v-141h-188v82q0 84 -112.5 133t-237.5 49q-221 0 -368.5 -151.5t-147.5 -393.5q0 -238 150.5 -402.5t371.5 -164.5q80 0 156.5 20.5t129 49t92.5 57.5t60 49l19 21l110 -148 q-8 -10 -24.5 -26.5t-70.5 -57.5t-115.5 -72.5t-159 -58.5t-199.5 -27q-319 0 -526 218t-207 542z" />
<glyph unicode="D" horiz-adv-x="1462" d="M68 1270v176h585q334 0 533.5 -191.5t199.5 -529.5q0 -340 -199.5 -532.5t-533.5 -192.5h-319q-70 0 -101.5 30.5t-31.5 100.5v1139h-133zM406 221q0 -45 45 -45h188q248 0 391.5 143.5t143.5 405.5q0 260 -144.5 402.5t-390.5 142.5h-233v-1049z" />
<glyph unicode="E" horiz-adv-x="1169" d="M68 1270v176h852q70 0 100.5 -31t30.5 -100v-182h-189v92q0 45 -45 45h-411v-453h507v-176h-507v-420q0 -45 45 -45h423q45 0 46 45v92h186v-182q0 -70 -31 -100.5t-100 -30.5h-641q-70 0 -101.5 30.5t-31.5 100.5v1139h-133z" />
<glyph unicode="F" horiz-adv-x="1046" d="M68 1270v176h798q70 0 100.5 -31t30.5 -100v-182h-186v92q0 45 -45 45h-360v-475h495v-177h-495v-618h-205v1270h-133z" />
<glyph unicode="G" horiz-adv-x="1490" d="M72 729q0 313 208.5 527t520.5 214q154 0 282.5 -45t182.5 -90l51 -43l-117 -149q-18 16 -50 38.5t-135.5 61.5t-209.5 39q-219 0 -369.5 -156.5t-150.5 -396.5q0 -248 149.5 -404.5t374.5 -156.5q72 0 141.5 18.5t115.5 45t83 53t55 45.5l17 18v146q0 45 -45 45h-89v176 h189q70 0 101.5 -31t31.5 -100v-584h-180v90l2 62h-4q-6 -6 -19.5 -18.5t-56.5 -43.5t-91 -53.5t-126 -42t-158 -19.5q-297 0 -500.5 211t-203.5 543z" />
<glyph unicode="H" horiz-adv-x="1550" d="M70 1270v176h206q70 0 101 -31t31 -100v-506h735v506q0 70 31.5 100.5t101.5 30.5h205v-176h-88q-45 0 -45 -45v-1225h-205v635h-735v-635h-205v1225q0 45 -45 45h-88z" />
<glyph unicode="I" horiz-adv-x="651" d="M86 0v176h141v1094h-141v176h477v-176h-139v-1094h139v-176h-477z" />
<glyph unicode="J" horiz-adv-x="1046" d="M33 416v71h205v-55q0 -139 66.5 -201.5t162.5 -62.5q94 0 159.5 62.5t65.5 193.5v801q0 45 -45 45h-354v176h471q70 0 101.5 -31t31.5 -100v-899q0 -219 -127 -330t-305 -111t-305 112t-127 329z" />
<glyph unicode="K" horiz-adv-x="1253" d="M70 1270v176h206q70 0 101 -31t31 -100v-477h137q90 0 119 49l321 559h229l-350 -600q-18 -33 -38.5 -56.5t-30.5 -31.5l-13 -6v-4q41 -10 82 -91l217 -434q23 -47 103 -47h39v-176h-113q-88 0 -128 20.5t-73 88.5l-250 501q-29 53 -129 54h-122v-664h-205v1225 q0 45 -45 45h-88z" />
<glyph unicode="L" horiz-adv-x="1107" d="M68 1270v176h206q70 0 101 -31t31 -100v-1094q0 -45 45 -45h401q45 0 45 45v92h186v-182q0 -70 -30.5 -100.5t-100.5 -30.5h-618q-70 0 -101.5 30.5t-31.5 100.5v1094q0 45 -45 45h-88z" />
<glyph unicode="M" horiz-adv-x="1765" d="M47 0v176h68q41 0 45 45l98 1225h211l340 -764l72 -184h4q37 104 71 184l340 764h211l99 -1225q4 -45 45 -45h69v-176h-182q-70 0 -98.5 29.5t-34.5 101.5l-57 764l-5 213h-4q-43 -135 -77 -213l-293 -635h-172l-291 635q-16 33 -35.5 87t-32.5 91l-10 37h-4v-62 q0 -89 -4 -153l-60 -764q-4 -70 -33.5 -100.5t-97.5 -30.5h-182z" />
<glyph unicode="N" horiz-adv-x="1550" d="M70 0v176h88q45 0 45 45v1225h186l643 -916l121 -196h4q-14 117 -14 196v785q0 70 31.5 100.5t101.5 30.5h205v-176h-88q-45 0 -45 -45v-1225h-185l-645 915l-119 197h-4q12 -117 13 -197v-784q0 -70 -31 -100.5t-101 -30.5h-206z" />
<glyph unicode="O" horiz-adv-x="1624" d="M70 733q0 311 214 524t527 213t528 -213t215 -524q0 -319 -215 -538.5t-528 -219.5t-527 219.5t-214 538.5zM283 733q0 -238 153.5 -401.5t374.5 -163.5t375.5 164t154.5 401q0 231 -154.5 389t-375.5 158t-374.5 -158t-153.5 -389z" />
<glyph unicode="P" horiz-adv-x="1198" d="M68 1270v176h637q201 0 327.5 -124t126.5 -329t-127 -331.5t-327 -126.5h-299v-535h-205v1270h-133zM406 711h266q129 0 202.5 75.5t73.5 206.5q0 129 -72.5 203t-201.5 74h-268v-559z" />
<glyph unicode="Q" horiz-adv-x="1624" d="M70 731q0 313 213 526t526 213q315 0 530 -213t215 -526q0 -268 -170 -475l166 -162l-123 -131l-165 166q-190 -154 -453 -154q-313 0 -526 219.5t-213 536.5zM283 731q0 -238 152.5 -400.5t373.5 -162.5q84 0 161 24.5t111 49.5l33 26l-160 156l123 133l158 -162 q106 145 106 336q0 233 -153.5 390t-378.5 157q-223 0 -374.5 -157t-151.5 -390z" />
<glyph unicode="R" horiz-adv-x="1273" d="M68 1270v176h632q193 0 313 -114.5t120 -309.5q0 -164 -84 -263.5t-179 -119.5v-4q37 -18 62 -66l174 -346q25 -47 104 -47h27v-176h-100q-90 0 -129 20.5t-74 88.5l-197 389q-25 49 -52.5 63t-88.5 14h-190v-575h-205v1270h-133zM406 752h268q117 0 182.5 69.5 t65.5 192.5q0 121 -65.5 188.5t-180.5 67.5h-270v-518z" />
<glyph unicode="S" horiz-adv-x="1075" d="M59 190l119 146q6 -6 17.5 -18.5t49.5 -42t77.5 -53t100 -42t120.5 -18.5q102 0 173.5 59.5t71.5 155.5q0 82 -71.5 143.5t-174 106.5t-204.5 97t-174 143t-72 216q0 166 130 276.5t333 110.5q88 0 176 -23.5t161 -87t73 -155.5v-119h-189v68q0 55 -66.5 93t-156.5 38 q-113 0 -183.5 -55t-70.5 -139q0 -68 52 -120t129 -85t168 -77t168 -90t129 -132t52 -199q0 -172 -124.5 -292t-333.5 -120q-86 0 -168 22.5t-135.5 53.5t-95.5 62.5t-62 54.5z" />
<glyph unicode="T" horiz-adv-x="1294" d="M27 1133v190q0 70 26.5 96.5t96.5 26.5h995q70 0 96.5 -26.5t26.5 -96.5v-190h-183v92q0 45 -45 45h-290v-1270h-205v1270h-289q-45 0 -45 -45v-92h-184z" />
<glyph unicode="U" horiz-adv-x="1474" d="M53 1270v176h205q70 0 101.5 -31t31.5 -100v-801q0 -162 93.5 -254t252.5 -92q158 0 252 93t94 255v799q0 70 31 100.5t100 30.5h207v-176h-88q-45 0 -45 -45v-719q0 -238 -151.5 -384.5t-397.5 -146.5q-248 0 -400.5 146.5t-152.5 384.5v719q0 45 -45 45h-88z" />
<glyph unicode="V" horiz-adv-x="1366" d="M23 1270v176h116q78 0 111 -23.5t57 -95.5l318 -891l55 -198h4q29 121 55 198l318 891q27 72 59.5 95.5t110.5 23.5h116v-176h-28q-51 0 -70 -45l-454 -1225h-218l-452 1225q-18 45 -70 45h-28z" />
<glyph unicode="W" horiz-adv-x="1980" d="M33 1270v176h119q80 0 119.5 -24.5t56.5 -94.5l225 -930l27 -153h4q14 74 34 153l293 1045h183l270 -1045l31 -153h4q10 76 28 153l226 930q16 70 55 94.5t121 24.5h119v-176h-31q-59 0 -72 -45l-315 -1225h-240l-246 913l-40 199h-5q-18 -104 -45 -197l-264 -915h-239 l-316 1225q-12 45 -72 45h-30z" />
<glyph unicode="X" horiz-adv-x="1218" d="M25 0l454 745l-291 474q-20 33 -39.5 42t-56.5 9h-51v176h119q78 0 116.5 -21.5t77.5 -89.5l162 -274l92 -170h4q41 90 88 170l164 274q39 68 78 89.5t115 21.5h121v-176h-54q-63 0 -94 -51l-293 -474l457 -745h-231l-265 440l-90 164h-4q-43 -86 -88 -166l-262 -438 h-229z" />
<glyph unicode="Y" horiz-adv-x="1241" d="M23 1270v176h94q76 0 114.5 -20.5t79.5 -90.5l219 -364l88 -162h5q41 82 88 162l217 364q41 70 80 90.5t114 20.5h97v-176h-41q-59 0 -91 -51l-364 -588v-631h-205v631l-366 588q-29 51 -89 51h-40z" />
<glyph unicode="Z" horiz-adv-x="1228" d="M66 0v135l712 1004q25 35 52.5 68.5t41.5 49.5l15 15v4q-39 -6 -109 -6h-465q-45 0 -45 -45v-92h-186v182q0 70 30.5 100.5t100.5 30.5h926v-133l-713 -1006q-25 -35 -52.5 -67.5t-41.5 -46.5l-15 -17v-4q39 4 109 4h510q45 0 45 45v92h186v-182q0 -70 -30.5 -100.5 t-100.5 -30.5h-970z" />
<glyph unicode="[" horiz-adv-x="577" d="M160 -63v1437q0 70 30.5 100.5t100.5 30.5h209v-149h-121q-45 0 -45 -45v-1309q0 -45 45 -45h121v-152h-209q-70 0 -100.5 31t-30.5 101z" />
<glyph unicode="\" horiz-adv-x="845" d="M74 1524h176l520 -1610h-176z" />
<glyph unicode="]" horiz-adv-x="577" d="M80 -43h119q45 0 45 45v1309q0 45 -45 45h-119v149h207q70 0 101.5 -30.5t31.5 -100.5v-1437q0 -70 -32 -101t-101 -31h-207v152z" />
<glyph unicode="^" horiz-adv-x="1255" d="M141 506l410 940h129l410 -940h-181l-295 721l-292 -721h-181z" />
<glyph unicode="_" horiz-adv-x="1157" d="M29 0h1101v-160h-1101v160z" />
<glyph unicode="`" horiz-adv-x="776" d="M170 1806h201l149 -260h-155z" />
<glyph unicode="a" horiz-adv-x="1083" d="M57 283q0 362 627 362h45v14q0 131 -54 187.5t-175 56.5q-57 0 -113.5 -17.5t-56.5 -62.5v-59h-189v104q0 57 41 99.5t103.5 61t114 25.5t96.5 7q240 0 336 -106.5t96 -299.5v-440q0 -45 45 -45h84v-170h-189q-127 0 -127 119l2 61h-4q2 0 -9 -21.5t-36.5 -51 t-62.5 -59.5t-96.5 -51.5t-128.5 -21.5q-143 0 -246 83.5t-103 224.5zM256 301q0 -68 51 -118t144 -50q123 0 200.5 102.5t77.5 227.5v39h-53q-420 0 -420 -201z" />
<glyph unicode="b" horiz-adv-x="1193" d="M8 1276v170h195q70 0 101.5 -31t31.5 -100v-338l-4 -86h4q4 6 11 18.5t36 41t63.5 51t94 41t127.5 18.5q207 0 331.5 -149.5t124.5 -393.5t-133 -393.5t-340 -149.5q-66 0 -123 18.5t-92 43t-61.5 50.5t-38.5 44l-10 19h-4q4 -33 4 -78v-72h-189v1231q0 45 -45 45h-84z M330 514q0 -150 76.5 -259.5t216.5 -109.5q127 0 213 99.5t86 271.5q0 168 -81 269.5t-212 101.5q-127 0 -213 -93.5t-86 -279.5z" />
<glyph unicode="c" horiz-adv-x="1085" d="M68 518q0 231 154.5 387t402.5 156q53 0 112.5 -11.5t120 -36t100 -71.5t39.5 -108v-107h-180v57q0 51 -62.5 79t-129.5 28q-154 0 -255.5 -103.5t-101.5 -267.5q0 -170 106.5 -269t260.5 -99q86 0 167 35.5t118 70.5l36 37l84 -141q-6 -8 -17 -19.5t-51 -42.5t-85 -54.5 t-117 -43t-149 -19.5q-244 0 -398.5 153.5t-154.5 389.5z" />
<glyph unicode="d" horiz-adv-x="1230" d="M72 518q0 246 130 394.5t337 148.5q68 0 125 -16.5t90.5 -40t59.5 -47t34 -39.5l10 -17h4q-2 31 -2 70v260q0 45 -45 45h-84v170h195q70 0 101.5 -31t31.5 -100v-1100q0 -45 45 -45h84v-170h-191q-127 0 -127 111l2 53h-4q-4 -8 -11 -20.5t-35.5 -45t-63.5 -57.5 t-96.5 -45.5t-133.5 -20.5q-209 0 -332.5 149.5t-123.5 393.5zM272 518q0 -168 82 -269.5t213 -101.5q127 0 212 93.5t85 279.5q0 152 -75.5 260.5t-217.5 108.5q-127 0 -213 -100.5t-86 -270.5z" />
<glyph unicode="e" horiz-adv-x="1103" d="M68 518q0 244 147 393.5t373 149.5q211 0 328.5 -138.5t117.5 -347.5q0 -35 -6 -83h-756q8 -162 110.5 -253.5t248.5 -91.5q33 0 64.5 5.5t59 15.5t50 19.5t46 23.5t36 22.5t31.5 20.5l18 14l84 -145q-35 -29 -82 -57.5t-138 -59.5t-182 -31q-242 0 -396 155t-154 388z M281 635h555q-4 129 -75 200.5t-177 71.5q-117 0 -200 -72.5t-103 -199.5z" />
<glyph unicode="f" horiz-adv-x="647" d="M45 877v159h129v35q0 98 28.5 171t70.5 113t98.5 63.5t101.5 30.5t92 7l76 -6v-170q-20 4 -51 4q-27 0 -52.5 -4t-57 -17.5t-54.5 -36t-38 -63.5t-15 -96v-31h245v-159h-245v-877h-199v877h-129z" />
<glyph unicode="g" horiz-adv-x="1216" d="M72 542.5q0 229.5 121.5 374t332.5 144.5q74 0 134.5 -16.5t96.5 -41t60.5 -48t34.5 -40.5l8 -16h4q-2 16 -2 33q0 104 117 104h192v-170h-84q-45 0 -45 -41v-782q0 -123 -44 -217t-118.5 -148.5t-165.5 -81t-194 -26.5q-184 0 -352 86l65 160q129 -70 283 -70 q147 0 238.5 70.5t91.5 218.5v69l2 66h-4q-96 -158 -307 -158t-338 150.5t-127 380zM274 547q0 -164 81 -263.5t220 -99.5q121 0 198 84t77 273q0 348 -293 348q-133 0 -208 -91t-75 -251z" />
<glyph unicode="h" horiz-adv-x="1239" d="M8 1276v170h195q133 0 133 -127v-404l-4 -86h4q41 90 141.5 161t241.5 71q356 0 356 -397v-449q0 -45 45 -45h84v-170h-196q-70 0 -100.5 30.5t-30.5 100.5v487q0 125 -40 193t-155 68q-117 0 -207 -72t-123 -184q-16 -55 -16 -138v-485h-199v1231q0 45 -45 45h-84z" />
<glyph unicode="i" horiz-adv-x="542" d="M43 866v170h195q70 0 101.5 -30.5t31.5 -100.5v-690q0 -45 45 -45h84v-170h-197q-70 0 -100.5 30.5t-30.5 100.5v690q0 45 -45 45h-84zM176 1239v207h178v-207h-178z" />
<glyph unicode="j" horiz-adv-x="501" d="M-96 -248q18 -2 45 -2q37 0 69.5 8.5t70.5 28.5t60.5 69t22.5 121v844q0 45 -45 45h-84v170h197q70 0 100.5 -30.5t30.5 -100.5v-940q0 -98 -30 -172t-72 -113.5t-100 -64.5t-103.5 -31t-92.5 -6l-69 4v170zM176 1239v207h178v-207h-178z" />
<glyph unicode="k" horiz-adv-x="1050" d="M8 1276v170h195q72 0 102.5 -25.5t30.5 -93.5v-672h92q74 0 107 45l239 336h230l-283 -385q-20 -29 -39.5 -48t-30.5 -25l-8 -5v-4q35 -12 70 -77l153 -281q23 -41 90 -41h62v-170h-144q-72 0 -104.5 18.5t-64.5 77.5l-191 348q-23 43 -102 43h-76v-487h-199v1231 q0 45 -45 45h-84z" />
<glyph unicode="l" horiz-adv-x="509" d="M10 1276v170h195q70 0 100.5 -31t30.5 -100v-1100q0 -45 45 -45h84v-170h-195q-70 0 -101.5 30.5t-31.5 100.5v1100q0 45 -45 45h-82z" />
<glyph unicode="m" horiz-adv-x="1912" d="M45 866v170h191q131 0 131 -114v-39l-2 -60h4q39 96 138 167t216 71q258 0 313 -236h4q43 98 144.5 167t222.5 69q342 0 342 -397v-449q0 -45 45 -45h84v-170h-197q-70 0 -100.5 30.5t-30.5 100.5v490q0 125 -37.5 192.5t-144.5 67.5q-102 0 -182 -78t-107 -189 q-18 -63 -18 -141v-473h-199v621q0 123 -35.5 191.5t-142 68.5t-186.5 -79t-111 -196q-14 -57 -14 -133v-473h-199v821q0 45 -45 45h-84z" />
<glyph unicode="n" horiz-adv-x="1275" d="M45 866v170h191q131 0 131 -114v-39l-5 -60h5q41 88 140 163t251 75q354 0 354 -397v-449q0 -45 45 -45h84v-170h-197q-70 0 -100.5 30.5t-30.5 100.5v487q0 125 -39.5 193t-154.5 68q-117 0 -206 -71t-122 -183q-18 -53 -18 -140v-485h-199v821q0 45 -45 45h-84z" />
<glyph unicode="o" horiz-adv-x="1251" d="M68 520.5q0 233.5 161.5 387t395.5 153.5q236 0 397.5 -153.5t161.5 -387t-163 -389.5t-396.5 -156t-395 156t-161.5 389.5zM268 520q0 -160 104.5 -266.5t252.5 -106.5q150 0 253 105.5t103 267.5q0 160 -103.5 264.5t-252.5 104.5q-147 0 -252 -104.5t-105 -264.5z" />
<glyph unicode="p" horiz-adv-x="1230" d="M45 866v170h186q127 0 127 -104l-2 -55h4q4 8 11.5 20t36 44t64.5 56.5t98.5 44t134.5 19.5q209 0 332.5 -149.5t123.5 -393.5t-132 -393.5t-339 -149.5q-63 0 -119.5 17.5t-91.5 41t-60.5 48t-35.5 41.5l-10 18h-4q4 -37 4 -90v-461h-199v1231q0 45 -45 45h-84zM367 514 q0 -150 78.5 -259.5t216.5 -109.5q127 0 211.5 100.5t84.5 270.5q0 168 -80.5 269.5t-211.5 101.5q-127 0 -213 -93.5t-86 -279.5z" />
<glyph unicode="q" horiz-adv-x="1232" d="M72 518q0 246 130 394.5t337 148.5q70 0 129 -18.5t95 -44t62.5 -51t36.5 -44.5l10 -18h5q-2 23 -3 53q0 98 127 98h187v-170h-84q-45 0 -45 -45v-1231h-199v469l4 91h-4q-4 -6 -11 -18.5t-36 -42.5t-62.5 -53.5t-94 -42t-128.5 -18.5q-209 0 -332.5 149.5t-123.5 393.5z M272 518q0 -168 82 -269.5t213 -101.5q127 0 212 93.5t85 279.5q0 152 -75.5 260.5t-217.5 108.5q-127 0 -213 -100.5t-86 -270.5z" />
<glyph unicode="r" horiz-adv-x="770" d="M45 866v170h191q131 0 131 -121v-65l-5 -72h5q39 119 126 195t201 76l54 -5v-196q-27 6 -58 6q-98 0 -177 -64.5t-116 -179.5q-24 -77 -24 -178v-8v-424h-199v821q0 45 -45 45h-84z" />
<glyph unicode="s" horiz-adv-x="919" d="M57 158l101 133q4 -6 14 -16.5t42 -37t65.5 -47t87 -37t106.5 -16.5q76 0 127 35t51 98q0 51 -58 90t-141 71t-165 71t-140.5 107.5t-58.5 160.5q0 141 108.5 216t276.5 75q121 0 230.5 -48t109.5 -153v-98h-178v51q0 41 -50 64.5t-106 23.5q-90 0 -142 -31.5t-52 -91.5 q0 -53 58 -93t142 -69.5t167 -66.5t141.5 -105.5t58.5 -164.5q0 -137 -107.5 -220.5t-273.5 -83.5q-78 0 -148.5 18.5t-116.5 45.5t-82 54.5t-50 45.5z" />
<glyph unicode="t" horiz-adv-x="671" d="M35 877v159h139v285h195v-285h249v-159h-249v-476q0 -59 16 -103t40 -68.5t55.5 -39t57 -18.5t52.5 -4l47 4v-176q-29 -4 -70 -4q-49 0 -94 6t-102.5 30.5t-99.5 64.5t-71.5 114t-29.5 172v498h-135z" />
<glyph unicode="u" horiz-adv-x="1263" d="M35 866v170h194q70 0 100.5 -30.5t30.5 -96.5v-491q0 -123 41 -190.5t154 -67.5q154 0 246 114.5t92 276.5v485h199v-821q0 -45 45 -45h84v-170h-191q-131 0 -131 115v39l2 59h-4q-39 -90 -140.5 -164t-240.5 -74q-176 0 -264 97.5t-88 300.5v448q0 45 -45 45h-84z" />
<glyph unicode="v" horiz-adv-x="1093" d="M29 866v170h102q70 0 102.5 -21.5t55.5 -82.5l223 -596l37 -135h4q16 78 37 135l221 596q23 61 56.5 82.5t101.5 21.5h96v-170h-21q-51 0 -65 -41l-317 -825h-230l-319 825q-14 41 -64 41h-20z" />
<glyph unicode="w" horiz-adv-x="1730" d="M31 866v170h125q70 0 102.5 -22.5t52.5 -87.5l183 -617l24 -110h4q12 57 29 110l223 723h184l224 -723l26 -110h4q10 57 27 110l182 617q20 66 52 88t102 22h125v-170h-29q-47 0 -63 -41l-273 -825h-223l-215 666l-29 112h-4q-12 -59 -28 -112l-215 -666h-224l-272 825 q-14 41 -66 41h-28z" />
<glyph unicode="x" horiz-adv-x="1034" d="M41 0l350 532l-198 295q-27 39 -87 39h-59v170h127q72 0 106.5 -19.5t75.5 -84.5l125 -201l33 -65h4q18 39 35 65l125 201q41 66 75.5 85t106.5 19h127v-170h-59q-59 0 -86 -37l-199 -297l350 -532h-225l-217 338l-33 55h-4q-14 -31 -31 -55l-217 -338h-225z" />
<glyph unicode="y" horiz-adv-x="1112" d="M4 -328l82 144q2 -6 20.5 -22.5t55.5 -34t76 -17.5q119 0 182 149l47 113l-354 821q-18 41 -64 41h-26v170h116q63 0 94 -21.5t56 -82.5l233 -584l37 -125h4q16 72 35 125l217 584q20 61 53 82.5t97 21.5h118v-170h-26q-47 0 -66 -41l-407 -1011q-49 -119 -137 -181.5 t-199 -62.5q-68 0 -129.5 25.5t-87.5 52.5z" />
<glyph unicode="z" horiz-adv-x="1054" d="M76 0v115l530 655l84 96v4q-31 -4 -98 -4h-285q-45 0 -45 -45v-69h-182v153q0 70 31.5 100.5t101.5 30.5h739v-114l-530 -658l-86 -94v-4q33 4 100 4h330q45 0 45 45v70h182v-154q0 -70 -30.5 -100.5t-100.5 -30.5h-786z" />
<glyph unicode="{" horiz-adv-x="661" d="M51 578v176q6 0 18.5 2t42 16t53 36.5t42 68t18.5 104.5v172q0 92 25.5 160.5t61.5 104.5t86.5 58.5t86 27.5t72.5 5l47 -2v-151h-29q-27 0 -50 -7.5t-55 -26.5t-51.5 -65.5t-19.5 -115.5v-211q0 -57 -17 -104.5t-42 -75t-48.5 -47t-41.5 -27.5l-17 -6v-4q6 -2 17.5 -6.5 t40 -25t50 -47t40 -74.5t18.5 -107v-236q0 -70 19.5 -116t51.5 -65.5t55.5 -26.5t49.5 -7h29v-152q-18 -4 -47 -4q-37 0 -72.5 5.5t-86 28t-86.5 58t-61.5 105.5t-25.5 162v196q0 59 -18.5 103.5t-43 66t-50 34.5t-43.5 15z" />
<glyph unicode="|" horiz-adv-x="489" d="M158 -326v1948h174v-1948h-174z" />
<glyph unicode="}" horiz-adv-x="661" d="M57 -45h29q27 0 50.5 7t55 26.5t51 65.5t19.5 116v236q0 59 17.5 107t41 75.5t48 46t41.5 24.5l18 7v4q-6 2 -17.5 7t-40 25.5t-50 47t-40 74.5t-18.5 106v211q0 70 -19.5 116t-51 65t-55 26.5t-50.5 7.5h-29v151q18 2 47 2q37 0 73 -5t86 -27.5t86 -58.5t61.5 -104.5 t25.5 -160.5v-172q0 -59 18.5 -104.5t43 -68t50 -35.5t44.5 -15l18 -4v-176q-6 0 -18 -2.5t-42 -16.5t-53.5 -35.5t-42 -65.5t-18.5 -104v-196q0 -92 -25.5 -162t-61.5 -105.5t-86 -58t-86 -28t-73 -5.5l-47 4v152z" />
<glyph unicode="~" horiz-adv-x="1210" d="M119 418q0 174 75.5 260t211.5 86q72 0 130 -32t88.5 -68.5t77 -68.5t97.5 -32q72 0 103.5 57.5t31.5 135.5h162q0 -346 -285 -346q-72 0 -130 30.5t-89 68.5t-77 68.5t-97 30.5q-72 0 -103.5 -57t-31.5 -133h-164z" />
<glyph unicode="&#xa2;" d="M121 723q0 227 112.5 388t305.5 187v226h149v-226q258 -39 373 -317l-182 -70q-84 203 -258 203q-139 0 -218 -109.5t-79 -281.5q0 -176 77.5 -282.5t219.5 -106.5q176 0 258 203l182 -72q-53 -125 -147.5 -213t-225.5 -102v-228h-149v228q-193 27 -305.5 187.5 t-112.5 385.5z" />
<glyph unicode="&#xa3;" d="M94 0v176h125v477h-90v144h90v278q0 170 126 282.5t319 112.5q92 0 177 -32.5t126 -65.5l39 -33l-117 -141q-98 88 -223 88q-111 0 -176.5 -62.5t-65.5 -156.5v-270h377v-144h-377v-477h442q45 0 45 45v92h189v-182q0 -70 -31 -100.5t-100 -30.5h-875z" />
<glyph unicode="&#xa5;" horiz-adv-x="1263" d="M33 1270v176h90q78 0 119 -20.5t82 -90.5l217 -364l88 -160h4q41 80 88 160l219 364q39 70 80 90.5t119 20.5h90v-176h-35q-63 0 -92 -45l-228 -371v-4h187v-129h-270l-58 -90v-84h328v-129h-328v-418h-205v418h-327v129h327v84l-55 90h-278v129h192v4l-229 371 q-27 45 -90 45h-35z" />
<glyph unicode="&#xa8;" horiz-adv-x="1026" d="M291 1599v207h151v-207h-151zM629 1599v207h149v-207h-149z" />
<glyph unicode="&#xa9;" horiz-adv-x="1644" d="M90 723q0 311 213 529t514 218q307 0 521 -218t214 -529t-214 -529.5t-521 -218.5q-301 0 -514 218.5t-213 529.5zM242 723q0 -256 165.5 -432t409.5 -176q248 0 417 176t169 432t-169 432t-417 176q-244 0 -409.5 -176t-165.5 -432zM430 721q0 168 111.5 288.5 t292.5 120.5q66 0 124 -20t95 -51t64.5 -60.5t37.5 -50.5l12 -20l-125 -68q-8 14 -23 36t-68.5 57.5t-112.5 35.5q-115 0 -184.5 -79t-69.5 -189q0 -115 67.5 -191.5t186.5 -76.5q39 0 73.5 13t57 31.5t40 38t25.5 33.5l8 13l125 -68q-4 -8 -12 -21.5t-38 -49t-65.5 -62.5 t-94 -48.5t-123.5 -21.5q-180 0 -292 120t-112 290z" />
<glyph unicode="&#xab;" horiz-adv-x="1124" d="M84 578l336 421h198l-335 -421l335 -420h-198zM498 578l336 421h198l-336 -421l336 -420h-198z" />
<glyph unicode="&#xad;" horiz-adv-x="839" d="M121 496v176h598v-176h-598z" />
<glyph unicode="&#xae;" horiz-adv-x="1644" d="M90 723q0 311 213 529t514 218q307 0 521 -218t214 -529t-214 -529.5t-521 -218.5q-301 0 -514 218.5t-213 529.5zM242 723q0 -256 165.5 -432t409.5 -176q248 0 417 176t169 432t-169 432t-417 176q-244 0 -409.5 -176t-165.5 -432zM500 1001v111h366q111 0 177.5 -64.5 t66.5 -170.5q0 -82 -44 -136.5t-97 -68.5v-4q25 -6 43 -41l80 -154q14 -27 49 -27h22v-106h-80q-45 0 -68.5 10t-41.5 47l-105 203q-20 39 -71 39h-84v-299h-146v661h-67zM713 745h123q59 0 92 35t33 97q0 59 -33 91.5t-90 32.5h-125v-256z" />
<glyph unicode="&#xb4;" horiz-adv-x="794" d="M244 1546l149 260h201l-195 -260h-155z" />
<glyph unicode="&#xb8;" horiz-adv-x="851" d="M229 -291q41 -14 88 -14q96 0 96.5 63.5t-108.5 63.5l-35 -2l58 227l100 -20v-17l-22 -112q63 -8 104 -47t41 -103q0 -88 -59.5 -130t-149.5 -42q-29 0 -56.5 3t-41.5 7l-15 4v119z" />
<glyph unicode="&#xbb;" horiz-adv-x="1124" d="M92 158l336 420l-336 421h199l336 -421l-336 -420h-199zM506 158l336 420l-336 421h199l335 -421l-335 -420h-199z" />
<glyph unicode="&#x2c6;" horiz-adv-x="993" d="M227 1546l179 260h182l180 -260h-162l-106 164h-4l-109 -164h-160z" />
<glyph unicode="&#x2da;" horiz-adv-x="778" d="M223 1673q0 70 48 112t118 42q68 0 117 -42t49 -112q0 -68 -49 -109.5t-117 -41.5q-70 0 -118 42t-48 109zM319 1673q0 -29 19.5 -48t50.5 -19t50.5 19.5t19.5 47.5q0 33 -19.5 52.5t-50.5 19.5t-50.5 -19.5t-19.5 -52.5z" />
<glyph unicode="&#x2dc;" horiz-adv-x="1062" d="M188 1548q0 260 211 260q59 0 106.5 -34.5t83.5 -69.5t73 -35q43 0 63 41t20 92h134q0 -260 -211 -260q-59 0 -105.5 35t-83.5 69.5t-73 34.5q-43 0 -62.5 -39.5t-19.5 -93.5h-136z" />
<glyph unicode="&#x400;" horiz-adv-x="1169" d="M68 1270v176h852q70 0 100.5 -31t30.5 -100v-182h-189v92q0 45 -45 45h-411v-453h507v-176h-507v-420q0 -45 45 -45h423q45 0 46 45v92h186v-182q0 -70 -31 -100.5t-100 -30.5h-641q-70 0 -101.5 30.5t-31.5 100.5v1139h-133zM389 1806h201l149 -260h-155z" />
<glyph unicode="&#x401;" horiz-adv-x="1169" d="M68 1270v176h852q70 0 100.5 -31t30.5 -100v-182h-189v92q0 45 -45 45h-411v-453h507v-176h-507v-420q0 -45 45 -45h423q45 0 46 45v92h186v-182q0 -70 -31 -100.5t-100 -30.5h-641q-70 0 -101.5 30.5t-31.5 100.5v1139h-133zM377 1599v207h151v-207h-151zM715 1599v207 h149v-207h-149z" />
<glyph unicode="&#x402;" horiz-adv-x="1529" d="M29 1133v190q0 70 27.5 96.5t97.5 26.5h993v-168h-469v-412l-2 -63h4q172 84 358 84q217 0 335 -121t118 -317q0 -221 -127 -347.5t-328 -126.5q-18 0 -55 2.5t-41 2.5v172q12 -4 70 -5q115 0 197.5 68t82.5 221q0 125 -73.5 198t-219.5 73q-78 0 -157.5 -21.5 t-120.5 -42.5l-41 -20v-623h-205v1278h-229q-45 0 -45 -45v-100h-170z" />
<glyph unicode="&#x403;" horiz-adv-x="1052" d="M68 1270v176h827q70 0 100.5 -31t30.5 -100v-182h-186v92q0 45 -45 45h-389v-1270h-205v1270h-133zM479 1546l150 260h200l-194 -260h-156z" />
<glyph unicode="&#x404;" horiz-adv-x="1421" d="M70 731q0 315 206.5 527t511.5 212q84 0 174.5 -17t177.5 -51t143 -98.5t56 -146.5v-133h-188v82q0 84 -112.5 132t-239.5 48q-209 0 -350.5 -135t-161.5 -350h757v-168h-753q25 -207 167 -340t349 -133q125 0 237.5 47t163.5 94l52 47l106 -139q-8 -10 -23.5 -25.5 t-69.5 -55.5t-114.5 -70.5t-157 -56.5t-198.5 -26q-319 0 -526 219.5t-207 536.5z" />
<glyph unicode="&#x405;" horiz-adv-x="1075" d="M59 190l119 146q6 -6 17.5 -18.5t49.5 -42t77.5 -53t100 -42t120.5 -18.5q102 0 173.5 59.5t71.5 155.5q0 82 -71.5 143.5t-174 106.5t-204.5 97t-174 143t-72 216q0 166 130 276.5t333 110.5q88 0 176 -23.5t161 -87t73 -155.5v-119h-189v68q0 55 -66.5 93t-156.5 38 q-113 0 -183.5 -55t-70.5 -139q0 -68 52 -120t129 -85t168 -77t168 -90t129 -132t52 -199q0 -172 -124.5 -292t-333.5 -120q-86 0 -168 22.5t-135.5 53.5t-95.5 62.5t-62 54.5z" />
<glyph unicode="&#x406;" horiz-adv-x="645" d="M84 0v176h141v1094h-141v176h477v-176h-139v-1094h139v-176h-477z" />
<glyph unicode="&#x407;" horiz-adv-x="645" d="M80 1599v207h151v-207h-151zM84 0v176h141v1094h-141v176h477v-176h-139v-1094h139v-176h-477zM418 1599v207h149v-207h-149z" />
<glyph unicode="&#x408;" horiz-adv-x="1046" d="M33 416v71h205v-55q0 -139 66.5 -201.5t162.5 -62.5q94 0 159.5 62.5t65.5 193.5v801q0 45 -45 45h-354v176h471q70 0 101.5 -31t31.5 -100v-899q0 -219 -127 -330t-305 -111t-305 112t-127 329z" />
<glyph unicode="&#x409;" horiz-adv-x="1910" d="M20 -14v186q121 12 193 121.5t100.5 297t28.5 480.5v199h-135v176h801q70 0 101.5 -31t31.5 -100v-465h254q92 0 173 -21.5t150.5 -67.5t110.5 -129t41 -196q0 -213 -135.5 -324.5t-348.5 -111.5h-319q-70 0 -100.5 30.5t-30.5 100.5v1094q0 45 -45 45h-346v-199 q0 -168 -8.5 -298t-29 -256t-59 -216t-95 -160.5t-140.5 -109.5t-193 -45zM1141 217q0 -45 45 -45h211q125 0 193.5 69.5t68.5 188.5t-67.5 183.5t-192.5 64.5h-258v-461z" />
<glyph unicode="&#x40a;" horiz-adv-x="2052" d="M70 1270v176h206q70 0 101 -31t31 -100v-471h671v602h205v-602h260q197 0 333 -98.5t136 -307.5q0 -213 -135 -325.5t-346 -112.5h-322q-70 0 -100.5 30.5t-30.5 100.5v541h-671v-672h-205v1225q0 45 -45 45h-88zM1284 217q0 -45 45 -45h215q121 0 189.5 71.5t68.5 190.5 q0 111 -67.5 174.5t-188.5 63.5h-262v-455z" />
<glyph unicode="&#x40b;" horiz-adv-x="1603" d="M29 1133v190q0 70 27.5 96.5t97.5 26.5h993v-168h-469v-420l-4 -65h4q178 96 373 96q205 0 306 -109.5t101 -312.5v-254q0 -37 45 -37h88v-176h-205q-70 0 -101.5 30.5t-31.5 100.5v293q0 141 -59 211t-188 70q-182 0 -328 -103v-602h-205v1278h-229q-45 0 -45 -45v-100 h-170z" />
<glyph unicode="&#x40c;" horiz-adv-x="1253" d="M70 1270v176h206q70 0 101 -31t31 -100v-477h137q90 0 119 49l321 559h229l-350 -600q-18 -33 -38.5 -56.5t-30.5 -31.5l-13 -6v-4q41 -10 82 -91l217 -434q23 -47 103 -47h39v-176h-113q-88 0 -128 20.5t-73 88.5l-250 501q-29 53 -129 54h-122v-664h-205v1225 q0 45 -45 45h-88zM571 1546l150 260h201l-195 -260h-156z" />
<glyph unicode="&#x40d;" horiz-adv-x="1562" d="M70 1270v176h206q70 0 101 -31t31 -100v-793l-13 -207h4q78 131 129 209l631 922h201v-1225q0 -45 45 -45h88v-176h-205q-70 0 -101.5 30.5t-31.5 100.5v795l12 211h-4q-72 -133 -123 -211l-634 -926h-203v1225q0 45 -45 45h-88zM528 1806h201l150 -260h-156z" />
<glyph unicode="&#x40e;" horiz-adv-x="1273" d="M20 1270v176h125q70 0 102 -24.5t64 -94.5l293 -625l76 -178h4q25 78 61 178l228 625q27 72 59.5 95.5t110.5 23.5h110v-176h-32q-51 0 -70 -43l-393 -996q-100 -256 -320 -256q-86 0 -162.5 34t-107.5 65l94 151q74 -63 152 -63q63 0 98 39t66 123l-449 901 q-23 45 -68 45h-41zM336 1776v30h160v-28q0 -63 43 -99.5t100 -36.5q59 0 102 36t43 102v26h158v-30q0 -121 -88 -192t-215 -71q-125 0 -214 71t-89 192z" />
<glyph unicode="&#x40f;" horiz-adv-x="1515" d="M68 1270v176h206q70 0 101 -31t31 -100v-1094q0 -45 45 -45h614q45 0 45 45v1094q0 70 30.5 100.5t100.5 30.5h207v-176h-88q-45 0 -45 -45v-1094q0 -70 -32 -100.5t-101 -30.5h-332v-287h-184v287h-332q-70 0 -101.5 30.5t-31.5 100.5v1094q0 45 -45 45h-88z" />
<glyph unicode="&#x410;" horiz-adv-x="1361" d="M25 0v176h28q53 0 68 45l452 1225h215l453 -1225q14 -45 68 -45h28v-176h-112q-76 0 -110 23.5t-60 95.5l-109 297h-530l-109 -297q-27 -72 -60.5 -95.5t-109.5 -23.5h-112zM465 588h432l-158 440l-57 203h-4q-31 -127 -55 -203z" />
<glyph unicode="&#x411;" horiz-adv-x="1216" d="M68 1270v176h845q70 0 100.5 -31t30.5 -100v-182h-186v92q0 45 -45 45h-407v-418h268q203 0 344 -104.5t141 -315.5q0 -209 -137 -320.5t-348 -111.5h-340q-70 0 -101.5 30.5t-31.5 100.5v1139h-133zM406 217q0 -45 45 -45h235q121 0 191.5 69.5t70.5 186.5t-70.5 184.5 t-191.5 67.5h-280v-463z" />
<glyph unicode="&#x412;" horiz-adv-x="1259" d="M68 1270v176h632q186 0 303 -98.5t117 -270.5q0 -113 -51 -192.5t-129 -118.5v-4q111 -33 174.5 -129t63.5 -221q0 -197 -132.5 -304.5t-332.5 -107.5h-379q-70 0 -101.5 30.5t-31.5 100.5v1139h-133zM403 221q0 -45 46 -45h276q113 0 178.5 67.5t65.5 178t-66.5 179.5 t-177.5 69h-322v-449zM403 838h299q96 0 153.5 61.5t57.5 157.5t-56 154.5t-157 58.5h-297v-432z" />
<glyph unicode="&#x413;" horiz-adv-x="1052" d="M68 1270v176h827q70 0 100.5 -31t30.5 -100v-182h-186v92q0 45 -45 45h-389v-1270h-205v1270h-133z" />
<glyph unicode="&#x414;" horiz-adv-x="1478" d="M20 47q0 70 30 99.5t100 29.5h32q135 190 179.5 432t44.5 541v121h-132v176h850q70 0 100.5 -31t30.5 -100v-1139h45q70 0 100 -29.5t30 -99.5v-334h-189v242q0 45 -43 45h-946q-43 0 -43 -45v-242h-189v334zM395 176h658v1049q0 45 -45 45h-406v-133q0 -648 -207 -961z " />
<glyph unicode="&#x415;" horiz-adv-x="1169" d="M68 1270v176h852q70 0 100.5 -31t30.5 -100v-182h-189v92q0 45 -45 45h-411v-453h507v-176h-507v-420q0 -45 45 -45h423q45 0 46 45v92h186v-182q0 -70 -31 -100.5t-100 -30.5h-641q-70 0 -101.5 30.5t-31.5 100.5v1139h-133z" />
<glyph unicode="&#x416;" horiz-adv-x="1810" d="M14 0l385 655q18 33 42 56.5t38 29.5l13 9v4q-39 14 -80 90l-209 379q-25 47 -103 47h-41v176h103q86 0 123 -20.5t73 -88.5l244 -446q20 -35 48 -46t77 -11h80v612h197v-612h75q96 0 129 57l244 446q37 68 74 88.5t123 20.5h102v-176h-41q-78 0 -104 -47l-207 -379 q-18 -33 -38 -55.5t-30 -28.5l-12 -6v-4q49 -23 90 -95l387 -655h-225l-352 608q-35 59 -117 60h-98v-668h-197v668h-98q-82 0 -117 -60l-352 -608h-226z" />
<glyph unicode="&#x417;" horiz-adv-x="1083" d="M41 168l121 143q55 -59 145 -106t189 -47q127 0 213 69.5t86 188.5q0 113 -77 177t-192 64h-172v168h148q104 0 177 66.5t73 171.5q0 100 -63.5 162.5t-184.5 62.5q-94 0 -161 -40t-67 -97v-59h-188v112q0 90 72.5 153.5t166 88t193.5 24.5q209 0 323.5 -103t114.5 -273 q0 -221 -208 -328v-4q119 -33 187.5 -128t68.5 -226q0 -190 -140.5 -311.5t-365.5 -121.5q-147 0 -265 55.5t-194 137.5z" />
<glyph unicode="&#x418;" horiz-adv-x="1562" d="M70 1270v176h206q70 0 101 -31t31 -100v-793l-13 -207h4q78 131 129 209l631 922h201v-1225q0 -45 45 -45h88v-176h-205q-70 0 -101.5 30.5t-31.5 100.5v795l12 211h-4q-72 -133 -123 -211l-634 -926h-203v1225q0 45 -45 45h-88z" />
<glyph unicode="&#x419;" horiz-adv-x="1562" d="M70 1270v176h206q70 0 101 -31t31 -100v-793l-13 -207h4q78 131 129 209l631 922h201v-1225q0 -45 45 -45h88v-176h-205q-70 0 -101.5 30.5t-31.5 100.5v795l12 211h-4q-72 -133 -123 -211l-634 -926h-203v1225q0 45 -45 45h-88zM471 1776v30h160v-28q0 -63 43 -99.5 t100 -36.5q59 0 102.5 36t43.5 102v26h157v-30q0 -121 -88 -192t-215 -71q-125 0 -214 71t-89 192z" />
<glyph unicode="&#x41a;" horiz-adv-x="1253" d="M70 1270v176h206q70 0 101 -31t31 -100v-477h137q90 0 119 49l321 559h229l-350 -600q-18 -33 -38.5 -56.5t-30.5 -31.5l-13 -6v-4q41 -10 82 -91l217 -434q23 -47 103 -47h39v-176h-113q-88 0 -128 20.5t-73 88.5l-250 501q-29 53 -129 54h-122v-664h-205v1225 q0 45 -45 45h-88z" />
<glyph unicode="&#x41b;" horiz-adv-x="1398" d="M20 -10v186q178 25 254 252t76 682v160h-135v176h850q70 0 100.5 -31t30.5 -100v-1094q0 -45 45 -45h88v-176h-207q-70 0 -100.5 30.5t-30.5 100.5v1094q0 45 -45 45h-401v-162q0 -547 -119 -824.5t-406 -293.5z" />
<glyph unicode="&#x41c;" horiz-adv-x="1765" d="M47 0v176h68q41 0 45 45l98 1225h211l340 -764l72 -184h4q37 104 71 184l340 764h211l99 -1225q4 -45 45 -45h69v-176h-182q-70 0 -98.5 29.5t-34.5 101.5l-57 764l-5 213h-4q-43 -135 -77 -213l-293 -635h-172l-291 635q-16 33 -35.5 87t-32.5 91l-10 37h-4 q2 -129 -4 -215l-60 -764q-4 -70 -33.5 -100.5t-97.5 -30.5h-182z" />
<glyph unicode="&#x41d;" horiz-adv-x="1550" d="M70 1270v176h206q70 0 101 -31t31 -100v-506h735v506q0 70 31.5 100.5t101.5 30.5h205v-176h-88q-45 0 -45 -45v-1225h-205v635h-735v-635h-205v1225q0 45 -45 45h-88z" />
<glyph unicode="&#x41e;" horiz-adv-x="1624" d="M70 733q0 311 214 524t527 213t528 -213t215 -524q0 -319 -215 -538.5t-528 -219.5t-527 219.5t-214 538.5zM283 733q0 -238 153.5 -401.5t374.5 -163.5t375.5 164t154.5 401q0 231 -154.5 389t-375.5 158t-374.5 -158t-153.5 -389z" />
<glyph unicode="&#x41f;" horiz-adv-x="1525" d="M68 1270v176h1124q70 0 100.5 -31t30.5 -100v-1094q0 -45 45 -45h88v-176h-205q-70 0 -101.5 30.5t-31.5 100.5v1094q0 45 -45 45h-667v-1270h-205v1270h-133z" />
<glyph unicode="&#x420;" horiz-adv-x="1198" d="M68 1270v176h637q201 0 327.5 -124t126.5 -329t-127 -331.5t-327 -126.5h-299v-535h-205v1270h-133zM406 711h266q129 0 202.5 75.5t73.5 206.5q0 129 -72.5 203t-201.5 74h-268v-559z" />
<glyph unicode="&#x421;" horiz-adv-x="1429" d="M72 735q0 313 207.5 524t517.5 211q80 0 168 -17t175 -51t143 -98.5t56 -146.5v-141h-188v82q0 84 -112.5 133t-237.5 49q-221 0 -368.5 -151.5t-147.5 -393.5q0 -238 150.5 -402.5t371.5 -164.5q80 0 156.5 20.5t129 49t92.5 57.5t60 49l19 21l110 -148 q-8 -10 -24.5 -26.5t-70.5 -57.5t-115.5 -72.5t-159 -58.5t-199.5 -27q-319 0 -526 218t-207 542z" />
<glyph unicode="&#x422;" horiz-adv-x="1294" d="M27 1133v190q0 70 26.5 96.5t96.5 26.5h995q70 0 96.5 -26.5t26.5 -96.5v-190h-183v92q0 45 -45 45h-290v-1270h-205v1270h-289q-45 0 -45 -45v-92h-184z" />
<glyph unicode="&#x423;" horiz-adv-x="1273" d="M20 1270v176h125q70 0 102 -24.5t64 -94.5l293 -625l76 -178h4q25 78 61 178l228 625q27 72 59.5 95.5t110.5 23.5h110v-176h-32q-51 0 -70 -43l-393 -996q-100 -256 -320 -256q-86 0 -162.5 34t-107.5 65l94 151q74 -63 152 -63q63 0 98 39t66 123l-449 901 q-23 45 -68 45h-41z" />
<glyph unicode="&#x424;" horiz-adv-x="1679" d="M63 770q0 272 183.5 436t490.5 164v166h205v-166q305 0 488.5 -165t183.5 -435q0 -276 -182.5 -442t-489.5 -166v-187h-205v187q-307 0 -490.5 166t-183.5 442zM274 770q0 -203 123 -318.5t340 -115.5v860q-217 0 -340 -113.5t-123 -312.5zM942 336q215 0 338 115.5 t123 318.5q0 199 -123 312.5t-338 113.5v-860z" />
<glyph unicode="&#x425;" horiz-adv-x="1218" d="M25 0l454 745l-291 474q-20 33 -39.5 42t-56.5 9h-51v176h119q78 0 116.5 -21.5t77.5 -89.5l162 -274l92 -170h4q41 90 88 170l164 274q39 68 78 89.5t115 21.5h121v-176h-54q-63 0 -94 -51l-293 -474l457 -745h-231l-265 440l-90 164h-4q-43 -86 -88 -166l-262 -438 h-229z" />
<glyph unicode="&#x426;" horiz-adv-x="1538" d="M68 1270v176h206q70 0 101 -31t31 -100v-1094q0 -45 45 -45h661v1270h205v-1270h39q70 0 99.5 -29.5t29.5 -99.5v-334h-185v242q0 45 -40 45h-926q-70 0 -101.5 30.5t-31.5 100.5v1094q0 45 -45 45h-88z" />
<glyph unicode="&#x427;" horiz-adv-x="1333" d="M29 1270v176h207q70 0 100.5 -31t30.5 -100v-295q0 -141 67.5 -211t218.5 -70q176 0 308 99v608h204v-1446h-204v586l4 67h-4q-181 -100 -355 -100q-223 0 -333.5 109.5t-110.5 312.5v250q0 45 -45 45h-88z" />
<glyph unicode="&#x428;" horiz-adv-x="2078" d="M68 1270v176h206q70 0 101 -31t31 -100v-1094q0 -45 45 -45h485v1270h205v-1270h487q45 0 45 45v1094q0 70 31 100.5t100 30.5h207v-176h-88q-45 0 -45 -45v-1094q0 -70 -31.5 -100.5t-101.5 -30.5h-1411q-70 0 -101.5 30.5t-31.5 100.5v1094q0 45 -45 45h-88z" />
<glyph unicode="&#x429;" horiz-adv-x="2107" d="M68 1270v176h206q70 0 101 -31t31 -100v-1094q0 -45 45 -45h485v1270h205v-1270h530v1270h205v-1270h57q70 0 99.5 -29.5t29.5 -99.5v-334h-184v242q0 45 -41 45h-1503q-70 0 -101.5 30.5t-31.5 100.5v1094q0 45 -45 45h-88z" />
<glyph unicode="&#x42a;" horiz-adv-x="1503" d="M29 1133v190q0 70 26.5 96.5t96.5 26.5h688v-176h-133v-377h292q203 0 333 -111.5t130 -331t-139 -335t-356 -115.5h-334q-70 0 -100.5 30.5t-30.5 100.5v1139h-246q-45 0 -45 -45v-92h-182zM707 221q0 -45 45 -45h227q125 0 198.5 71.5t73.5 201t-72.5 199t-199.5 69.5 h-272v-496z" />
<glyph unicode="&#x42b;" horiz-adv-x="1751" d="M68 1270v176h206q70 0 101 -31t31 -100v-414h276q201 0 331 -112.5t130 -327.5q0 -225 -137.5 -343t-356.5 -118h-315q-70 0 -101.5 30.5t-31.5 100.5v1094q0 45 -45 45h-88zM406 221q0 -45 45 -45h211q125 0 197.5 74t72.5 205q0 129 -73 199.5t-197 70.5h-256v-504z M1343 131v1315h205v-1225q0 -45 45 -45h88v-176h-206q-70 0 -101 30.5t-31 100.5z" />
<glyph unicode="&#x42c;" horiz-adv-x="1193" d="M68 1270v176h206q70 0 101 -31t31 -100v-414h284q203 0 332 -111.5t129 -328.5q0 -225 -137 -343t-357 -118h-323q-70 0 -101.5 30.5t-31.5 100.5v1094q0 45 -45 45h-88zM406 221q0 -45 45 -45h219q125 0 197.5 75t72.5 208q0 127 -71.5 196.5t-198.5 69.5h-264v-504z " />
<glyph unicode="&#x42d;" horiz-adv-x="1423" d="M57 199l107 143q55 -61 182 -121.5t272 -60.5q209 0 352.5 135t164.5 342h-746v168h746q-14 211 -154.5 346t-351.5 135q-129 0 -245 -48t-116 -132v-82h-188v133q0 139 167 226t378 87q324 0 525.5 -207.5t201.5 -521.5q0 -322 -207 -544t-527 -222q-180 0 -332.5 71 t-228.5 153z" />
<glyph unicode="&#x42e;" horiz-adv-x="2164" d="M70 1270v176h206q70 0 101 -31t31 -100v-506h245q23 285 226.5 473t488.5 188q307 0 517 -213t210 -524q0 -319 -210 -538.5t-517 -219.5q-281 0 -481.5 187.5t-229.5 472.5h-249v-635h-205v1225q0 45 -45 45h-88zM856 733q0 -238 149.5 -401.5t362.5 -163.5 q215 0 364.5 164t149.5 401q0 231 -149.5 389t-364.5 158q-213 0 -362.5 -158t-149.5 -389z" />
<glyph unicode="&#x42f;" horiz-adv-x="1275" d="M39 0v176h27q78 0 104 47l190 322q14 23 33 40t29 23l12 6v4q-14 0 -46 11.5t-77 41t-85 71.5t-68.5 113t-28.5 157q0 199 131 316.5t338 117.5h610v-176h-133v-1270h-205v555h-172q-59 0 -87.5 -15.5t-59.5 -70.5l-211 -358q-39 -68 -77 -89.5t-124 -21.5h-100z M340 1003.5q0 -124.5 79 -198.5t202 -74h249v539h-249q-129 0 -205 -71t-76 -195.5z" />
<glyph unicode="&#x430;" horiz-adv-x="1083" d="M57 283q0 362 627 362h45v14q0 131 -54 187.5t-175 56.5q-57 0 -113.5 -17.5t-56.5 -62.5v-59h-189v104q0 57 41 99.5t103.5 61t114 25.5t96.5 7q240 0 336 -106.5t96 -299.5v-440q0 -45 45 -45h84v-170h-189q-127 0 -127 119l2 61h-4q2 0 -9 -21.5t-36.5 -51 t-62.5 -59.5t-96.5 -51.5t-128.5 -21.5q-143 0 -246 83.5t-103 224.5zM256 301q0 -68 51 -118t144 -50q123 0 200.5 102.5t77.5 227.5v39h-53q-420 0 -420 -201z" />
<glyph unicode="&#x431;" horiz-adv-x="1165" d="M92 610q0 268 76 424t276 244l228 100q72 31 95.5 52.5t23.5 56.5v49h192v-90q0 -94 -46 -136t-167 -89l-244 -105q-238 -102 -243 -366h2q125 193 360 192q197 0 321 -130t124 -347q0 -221 -140.5 -355.5t-359.5 -134.5q-135 0 -233.5 50.5t-155 139.5t-83 199.5 t-26.5 245.5zM301 465q0 -147 84 -233.5t209 -86.5t208 85t83 231q0 147 -82 231t-205 84q-131 0 -214 -88t-83 -223z" />
<glyph unicode="&#x432;" horiz-adv-x="1062" d="M41 866v170h557q160 0 252 -68.5t92 -197.5q0 -166 -145 -225v-4q94 -20 145 -89t51 -157q0 -141 -103.5 -218t-277.5 -77h-327q-61 0 -88 27t-27 86v753h-129zM369 182q0 -41 39 -41h172q211 0 211 164q0 78 -55.5 120t-155.5 42h-211v-285zM369 600h194q86 0 132 41 t46 111q0 145 -184 145h-188v-297z" />
<glyph unicode="&#x433;" horiz-adv-x="899" d="M45 866v170h686q72 0 102.5 -28.5t30.5 -98.5v-157h-166v69q0 45 -45 45h-280v-866h-199v866h-129z" />
<glyph unicode="&#x434;" horiz-adv-x="1208" d="M20 37q0 68 29 98.5t96 30.5h17q172 199 172 653v47h-127v170h686q70 0 100.5 -30.5t30.5 -100.5v-739h33q68 0 96.5 -31t28.5 -98v-283h-183v201q0 45 -43 45h-710q-43 0 -43 -45v-201h-183v283zM362 166h463v655q0 45 -45 45h-258v-45q0 -452 -160 -655z" />
<glyph unicode="&#x435;" horiz-adv-x="1103" d="M68 518q0 244 147 393.5t373 149.5q211 0 328.5 -137.5t117.5 -348.5q0 -39 -6 -77h-756q8 -164 110.5 -257.5t248.5 -93.5q168 0 305 121l84 -145q-74 -68 -183.5 -108t-218.5 -40q-242 0 -396 155t-154 388zM281 629h555q-4 131 -75 203.5t-177 72.5q-117 0 -200 -73.5 t-103 -202.5z" />
<glyph unicode="&#x436;" horiz-adv-x="1542" d="M33 0l248 426q23 39 52 63.5t48 30.5l18 6v4q-49 14 -82 82l-106 213q-18 41 -92 41h-53v170h122q76 0 111 -17.5t63 -78.5l134 -268q33 -61 118 -62h62v426h192v-426h60q86 0 119 62l133 268q29 61 63.5 78.5t110.5 17.5h123v-170h-54q-41 0 -60.5 -8t-31.5 -33 l-106 -213q-14 -31 -35 -51t-35 -24l-12 -7v-4q68 -14 119 -100l249 -426h-231l-205 360q-49 82 -145 82h-62v-442h-192v442h-62q-96 0 -147 -82l-203 -360h-231z" />
<glyph unicode="&#x437;" horiz-adv-x="903" d="M47 127l94 131q121 -121 275 -121q92 0 153.5 44t61.5 128q0 156 -211 156h-131v137h104q203 0 203 158q0 76 -49 113.5t-131 37.5q-63 0 -115.5 -25.5t-52.5 -74.5v-47h-166v96q0 98 102.5 149.5t247.5 51.5q168 0 266.5 -73t98.5 -208q0 -90 -44 -149.5t-110 -83.5v-4 q82 -20 134 -84t52 -162q0 -152 -115.5 -237t-285.5 -85q-219 0 -381 152z" />
<glyph unicode="&#x438;" horiz-adv-x="1267" d="M47 866v170h182q70 0 100.5 -29.5t30.5 -99.5v-493q0 -102 -8 -144h4q20 41 97 144l446 622h197v-821q0 -45 43 -45h82v-170h-183q-70 0 -100.5 30.5t-30.5 100.5v492q0 80 8 145h-4q-16 -39 -96 -145l-446 -623h-197v821q0 45 -43 45h-82z" />
<glyph unicode="&#x439;" horiz-adv-x="1267" d="M47 866v170h182q70 0 100.5 -29.5t30.5 -99.5v-493q0 -102 -8 -144h4q20 41 97 144l446 622h197v-821q0 -45 43 -45h82v-170h-183q-70 0 -100.5 30.5t-30.5 100.5v492q0 80 8 145h-4q-16 -39 -96 -145l-446 -623h-197v821q0 45 -43 45h-82zM328 1417v31h159v-29 q0 -63 43 -99t101 -36q59 0 102 36t43 101v27h158v-31q0 -121 -88 -191.5t-215 -70.5q-125 0 -214 70.5t-89 191.5z" />
<glyph unicode="&#x43a;" horiz-adv-x="1091" d="M45 866v170h197q70 0 100.5 -30.5t30.5 -100.5v-276h86q78 0 108 47l248 360h223l-284 -411q-20 -29 -40 -48.5t-30 -23.5l-8 -6v-4q39 -14 78 -78l151 -254q25 -41 90 -41h62v-170h-144q-74 0 -106.5 18.5t-65.5 77.5l-184 322q-25 41 -100 41h-84v-459h-199v821 q0 45 -45 45h-84z" />
<glyph unicode="&#x43b;" horiz-adv-x="1116" d="M27 -6v176q66 2 116 61.5t76.5 155.5t38.5 196.5t12 202.5v80h-129v170h670q70 0 100.5 -30.5t30.5 -100.5v-690q0 -45 45 -45h84v-170h-194q-70 0 -102 30.5t-32 100.5v690q0 45 -45 45h-237v-82q0 -76 -6 -150.5t-21.5 -169.5t-47.5 -175t-77 -148.5t-117.5 -107.5 t-164.5 -39z" />
<glyph unicode="&#x43c;" horiz-adv-x="1488" d="M39 0v170h53q37 0 39 39l72 827h217l270 -594l53 -129h2q29 68 56 129l268 594h217l72 -827q2 -39 39 -39h53v-170h-152q-61 0 -84.5 26.5t-27.5 86.5l-39 489l-4 184h-4q-25 -76 -62 -155l-241 -506h-189l-237 506l-60 157h-4q0 -123 -4 -186l-39 -489q-4 -59 -27.5 -86 t-85.5 -27h-151z" />
<glyph unicode="&#x43d;" horiz-adv-x="1269" d="M45 866v170h197q70 0 100.5 -30.5t30.5 -100.5v-293h524v424h199v-821q0 -45 45 -45h82v-170h-195q-70 0 -100.5 30.5t-30.5 100.5v315h-524v-446h-199v821q0 45 -45 45h-84z" />
<glyph unicode="&#x43e;" horiz-adv-x="1251" d="M68 520.5q0 233.5 161.5 387t395.5 153.5q236 0 397.5 -153.5t161.5 -387t-163 -389.5t-396.5 -156t-395 156t-161.5 389.5zM268 520q0 -160 104.5 -266.5t252.5 -106.5q150 0 253 105.5t103 267.5q0 160 -103.5 264.5t-252.5 104.5q-147 0 -252 -104.5t-105 -264.5z" />
<glyph unicode="&#x43f;" horiz-adv-x="1243" d="M45 866v170h895q70 0 100.5 -30.5t30.5 -100.5v-690q0 -45 45 -45h84v-170h-196q-70 0 -101 30.5t-31 100.5v690q0 45 -45 45h-454v-866h-199v866h-129z" />
<glyph unicode="&#x440;" horiz-adv-x="1230" d="M45 866v170h186q127 0 127 -104l-2 -55h4q4 8 11.5 20t36 44t64.5 56.5t98.5 44t134.5 19.5q209 0 332.5 -149.5t123.5 -393.5t-132 -393.5t-339 -149.5q-63 0 -119.5 17.5t-91.5 41t-60.5 48t-35.5 41.5l-10 18h-4q4 -37 4 -90v-461h-199v1231q0 45 -45 45h-84zM367 514 q0 -150 78.5 -259.5t216.5 -109.5q127 0 211.5 100.5t84.5 270.5q0 168 -80.5 269.5t-211.5 101.5q-127 0 -213 -93.5t-86 -279.5z" />
<glyph unicode="&#x441;" horiz-adv-x="1085" d="M68 518q0 231 154.5 387t402.5 156q53 0 112.5 -11.5t120 -36t100 -71.5t39.5 -108v-107h-180v57q0 51 -62.5 79t-129.5 28q-154 0 -255.5 -103.5t-101.5 -267.5q0 -170 106.5 -269t260.5 -99q86 0 167 35.5t118 70.5l36 37l84 -141q-6 -8 -17 -19.5t-51 -42.5t-85 -54.5 t-117 -43t-149 -19.5q-244 0 -398.5 153.5t-154.5 389.5z" />
<glyph unicode="&#x442;" horiz-adv-x="1089" d="M37 752v157q0 68 30.5 97.5t100.5 29.5h754q70 0 100.5 -29.5t30.5 -97.5v-157h-164v69q0 45 -45 45h-201v-866h-197v866h-200q-45 0 -45 -45v-69h-164z" />
<glyph unicode="&#x443;" horiz-adv-x="1112" d="M6 -328l82 144q2 -6 20.5 -22.5t55.5 -34t76 -17.5q119 0 182 149l47 113l-354 821q-18 41 -64 41h-26v170h116q63 0 94 -21.5t56 -82.5l233 -584l37 -125h4q16 72 35 125l217 584q20 61 53 82.5t97 21.5h118v-170h-26q-47 0 -66 -41l-407 -1011q-49 -119 -137 -181.5 t-199 -62.5q-68 0 -129.5 25.5t-87.5 52.5z" />
<glyph unicode="&#x444;" horiz-adv-x="1501" d="M70 520.5q0 231.5 159.5 372.5t421.5 143v195q0 45 -45 45h-84v170h197q70 0 100.5 -31t30.5 -100v-279q262 -2 422 -143t160 -372.5t-161 -375t-421 -145.5v-410h-199v410q-260 2 -420.5 145.5t-160.5 375zM270 520q0 -160 103.5 -259t277.5 -99v710q-174 0 -277.5 -97 t-103.5 -255zM850 162q174 0 276.5 99t102.5 259q0 158 -102.5 255t-276.5 97v-710z" />
<glyph unicode="&#x445;" horiz-adv-x="1036" d="M41 0l350 532l-198 295q-27 39 -87 39h-59v170h127q72 0 106.5 -19.5t75.5 -84.5l125 -201l33 -65h4q18 39 35 65l125 201q41 66 75.5 85t106.5 19h127v-170h-59q-59 0 -86 -37l-199 -297l350 -532h-225l-217 338l-33 55h-4q-14 -31 -31 -55l-217 -338h-225z" />
<glyph unicode="&#x446;" horiz-adv-x="1241" d="M43 866v170h197q70 0 100.5 -30.5t30.5 -100.5v-694q0 -45 43 -45h442v870h199v-870h32q68 0 97.5 -31t29.5 -98v-283h-184v201q0 45 -41 45h-686q-70 0 -100.5 29.5t-30.5 99.5v692q0 45 -45 45h-84z" />
<glyph unicode="&#x447;" horiz-adv-x="1107" d="M35 866v170h186q72 0 100.5 -33.5t28.5 -97.5v-178q0 -90 42 -142.5t155 -52.5q123 0 231 74v430h199v-1036h-199v375l2 65h-2q-121 -80 -291 -80q-162 0 -246.5 80t-84.5 232v149q0 45 -47 45h-74z" />
<glyph unicode="&#x448;" horiz-adv-x="1697" d="M43 866v170h197q70 0 100.5 -30.5t30.5 -100.5v-694q0 -45 43 -45h334v870h198v-870h338q43 0 43 45v694q0 70 31 100.5t100 30.5h197v-170h-84q-45 0 -45 -45v-690q0 -70 -31 -100.5t-100 -30.5h-1092q-70 0 -100.5 30.5t-30.5 100.5v690q0 45 -45 45h-84z" />
<glyph unicode="&#x449;" horiz-adv-x="1712" d="M43 866v170h197q70 0 100.5 -30.5t30.5 -100.5v-698q0 -45 43 -45h334v874h198v-874h381v874h199v-874h43q68 0 96.5 -31t28.5 -98v-279h-183v201q0 45 -45 45h-1163q-70 0 -100.5 30.5t-30.5 100.5v690q0 45 -45 45h-84z" />
<glyph unicode="&#x44a;" horiz-adv-x="1222" d="M37 754v155q0 70 30.5 98.5t100.5 28.5h295q70 0 100.5 -30.5t30.5 -100.5v-246h209q178 0 278.5 -90t100.5 -241q0 -150 -104.5 -239t-274.5 -89h-293q-61 0 -88 27t-27 86v718q0 45 -41 46h-114q-43 0 -43 -46v-77h-160zM594 184q0 -41 39 -41h145q94 0 148.5 51.5 t54.5 135.5q0 86 -53.5 136t-149.5 50h-184v-332z" />
<glyph unicode="&#x44b;" horiz-adv-x="1482" d="M43 866v170h197q131 0 131 -118v-261h204q176 0 274.5 -89t98.5 -240q0 -150 -103.5 -239t-269.5 -89h-290q-59 0 -86 27t-27 86v708q0 45 -45 45h-84zM371 184q0 -41 39 -41h141q92 0 144.5 51.5t52.5 135.5q0 86 -51.5 135t-145.5 49h-180v-330zM1110 131v905h199v-821 q0 -45 45 -45h82v-170h-195q-70 0 -100.5 30.5t-30.5 100.5z" />
<glyph unicode="&#x44c;" horiz-adv-x="993" d="M43 866v170h197q129 0 131 -118v-261h209q174 0 271 -89t97 -240q0 -150 -102.5 -239t-265.5 -89h-295q-59 0 -86 27t-27 86v708q0 45 -45 45h-84zM371 184q0 -41 39 -41h145q90 0 142.5 51.5t52.5 135.5q0 86 -50.5 135t-144.5 49h-184v-330z" />
<glyph unicode="&#x44d;" horiz-adv-x="1085" d="M53 131l78 141q133 -135 328 -135q141 0 242.5 86t119.5 223h-487v140h489q-18 143 -117.5 228t-230.5 85q-86 0 -158.5 -29.5t-72.5 -78.5v-52h-170v86q0 98 113.5 167t291.5 69q236 0 387.5 -154.5t151.5 -386.5q0 -238 -154.5 -391.5t-396.5 -153.5q-252 0 -414 156z " />
<glyph unicode="&#x44e;" horiz-adv-x="1697" d="M45 866v170h197q70 0 100.5 -30.5t30.5 -100.5v-305h192q23 203 169.5 332t352.5 129q229 0 386 -153.5t157 -387t-156.5 -389.5t-383.5 -156q-207 0 -355.5 132.5t-171.5 336.5h-190v-444h-199v821q0 45 -45 45h-84zM750 520q0 -162 98 -267.5t241.5 -105.5t240.5 105.5 t97 267.5q0 160 -97 264.5t-240.5 104.5t-241.5 -104.5t-98 -264.5z" />
<glyph unicode="&#x44f;" horiz-adv-x="1073" d="M45 0v170h33q68 0 96 41l117 162q25 35 53 53v4q-102 25 -165.5 99.5t-63.5 191.5q0 141 97 228t251 87h565v-170h-129v-866h-199v377h-114q-41 0 -60.5 -12.5t-50.5 -57.5l-151 -211q-47 -63 -78 -79.5t-107 -16.5h-94zM313 711q0 -86 58.5 -138.5t154.5 -52.5h174v379 h-180q-98 0 -152.5 -51t-54.5 -137z" />
<glyph unicode="&#x450;" horiz-adv-x="1103" d="M68 518q0 244 147 393.5t373 149.5q211 0 328.5 -138.5t117.5 -347.5q0 -35 -6 -83h-756q8 -162 110.5 -253.5t248.5 -91.5q33 0 64.5 5.5t59 15.5t50 19.5t46 23.5t36 22.5t31.5 20.5l18 14l84 -145q-35 -29 -82 -57.5t-138 -59.5t-182 -31q-242 0 -396 155t-154 388z M281 635h555q-4 129 -75 200.5t-177 71.5q-117 0 -200 -72.5t-103 -199.5zM340 1448h201l149 -260h-155z" />
<glyph unicode="&#x451;" horiz-adv-x="1103" d="M68 518q0 244 147 393.5t373 149.5q211 0 328.5 -138.5t117.5 -347.5q0 -35 -6 -83h-756q8 -162 110.5 -253.5t248.5 -91.5q33 0 64.5 5.5t59 15.5t50 19.5t46 23.5t36 22.5t31.5 20.5l18 14l84 -145q-35 -29 -82 -57.5t-138 -59.5t-182 -31q-242 0 -396 155t-154 388z M281 635h555q-4 129 -75 200.5t-177 71.5q-117 0 -200 -72.5t-103 -199.5zM332 1241v207h151v-207h-151zM670 1241v207h149v-207h-149z" />
<glyph unicode="&#x452;" horiz-adv-x="1196" d="M8 1133v145h129v168h199v-168h422v-145h-422v-336l-4 -86h4q43 92 132 161.5t228 69.5q184 0 281.5 -100.5t97.5 -296.5v-588q0 -121 -42 -204t-110.5 -119.5t-126 -50t-118.5 -13.5l-70 6v170q18 -4 45 -4q37 0 70 8t70.5 29.5t60.5 71t23 120.5v529q0 258 -220 258 q-115 0 -193.5 -68.5t-111.5 -185.5q-16 -55 -16 -137v-367h-199v1133h-129z" />
<glyph unicode="&#x453;" horiz-adv-x="899" d="M45 866v170h686q72 0 102.5 -28.5t30.5 -98.5v-157h-166v69q0 45 -45 45h-280v-866h-199v866h-129zM381 1188l149 260h201l-194 -260h-156z" />
<glyph unicode="&#x454;" horiz-adv-x="1083" d="M68 518q0 231 154.5 387t402.5 156q53 0 112.5 -11.5t120 -36t100 -71.5t39.5 -108v-95h-170v54q0 49 -67.5 78.5t-143.5 29.5q-141 0 -239 -84t-115 -225h498v-139h-498q18 -143 120.5 -229.5t244.5 -86.5q92 0 176 34t123 69l37 34l77 -137l-17 -17t-51 -39t-85 -49.5 t-117 -39t-149 -17.5q-244 0 -398.5 153.5t-154.5 389.5z" />
<glyph unicode="&#x455;" horiz-adv-x="919" d="M57 158l101 133q4 -6 14 -16.5t42 -37t65.5 -47t87 -37t106.5 -16.5q76 0 127 35t51 98q0 51 -58 90t-141 71t-165 71t-140.5 107.5t-58.5 160.5q0 141 108.5 216t276.5 75q121 0 230.5 -48t109.5 -153v-98h-178v51q0 41 -50 64.5t-106 23.5q-90 0 -142 -31.5t-52 -91.5 q0 -53 58 -93t142 -69.5t167 -66.5t141.5 -105.5t58.5 -164.5q0 -137 -107.5 -220.5t-273.5 -83.5q-78 0 -148.5 18.5t-116.5 45.5t-82 54.5t-50 45.5z" />
<glyph unicode="&#x456;" horiz-adv-x="542" d="M43 866v170h195q70 0 101.5 -30.5t31.5 -100.5v-690q0 -45 45 -45h84v-170h-197q-70 0 -100.5 30.5t-30.5 100.5v690q0 45 -45 45h-84zM176 1239v207h178v-207h-178z" />
<glyph unicode="&#x457;" horiz-adv-x="542" d="M33 1239v207h151v-207h-151zM43 866v170h195q70 0 101.5 -30.5t31.5 -100.5v-690q0 -45 45 -45h84v-170h-197q-70 0 -100.5 30.5t-30.5 100.5v690q0 45 -45 45h-84zM319 1239v207h150v-207h-150z" />
<glyph unicode="&#x458;" horiz-adv-x="501" d="M-96 -248q18 -2 45 -2q37 0 69.5 8.5t70.5 28.5t60.5 69t22.5 121v844q0 45 -45 45h-84v170h197q70 0 100.5 -30.5t30.5 -100.5v-940q0 -98 -30 -172t-72 -113.5t-100 -64.5t-103.5 -31t-92.5 -6l-69 4v170zM176 1239v207h178v-207h-178z" />
<glyph unicode="&#x459;" horiz-adv-x="1519" d="M20 -8v176q68 2 119 61.5t80 155.5t43 199.5t14 210.5v71h-129v170h613q131 0 131 -118v-267h205q182 0 282.5 -87t100.5 -240q0 -145 -99.5 -234.5t-283.5 -89.5h-291q-59 0 -86 26.5t-27 86.5v716q0 45 -45 45h-182v-73q0 -100 -9.5 -196.5t-38 -212.5t-74.5 -201 t-130 -142t-193 -57zM891 184q0 -41 39 -41h145q98 0 153.5 49.5t55.5 131.5q0 84 -54 133t-157 49h-182v-322z" />
<glyph unicode="&#x45a;" horiz-adv-x="1677" d="M45 866v170h197q70 0 100.5 -30.5t30.5 -100.5v-262h483v393h199v-391h205q176 0 275 -86t99 -229q0 -154 -102 -242t-272 -88h-291q-59 0 -86 26.5t-27 86.5v372h-483v-485h-199v821q0 45 -45 45h-84zM1055 184q0 -41 39 -41h145q96 0 148.5 49.5t52.5 133.5 q0 80 -52.5 125t-148.5 45h-184v-312z" />
<glyph unicode="&#x45b;" horiz-adv-x="1243" d="M8 1133v145h129v168h199v-168h422v-145h-422v-334l-4 -86h4q41 88 141.5 159.5t241.5 71.5q356 0 356 -397v-332q0 -45 45 -45h84v-170h-196q-70 0 -100.5 30.5t-30.5 100.5v371q0 125 -40 192.5t-155 67.5q-117 0 -207 -72t-123 -184q-16 -55 -16 -137v-369h-199v1133 h-129z" />
<glyph unicode="&#x45c;" horiz-adv-x="1091" d="M45 866v170h197q70 0 100.5 -30.5t30.5 -100.5v-276h86q78 0 108 47l248 360h223l-284 -411q-20 -29 -40 -48.5t-30 -23.5l-8 -6v-4q39 -14 78 -78l151 -254q25 -41 90 -41h62v-170h-144q-74 0 -106.5 18.5t-65.5 77.5l-184 322q-25 41 -100 41h-84v-459h-199v821 q0 45 -45 45h-84zM471 1188l150 260h200l-194 -260h-156z" />
<glyph unicode="&#x45d;" horiz-adv-x="1267" d="M47 866v170h182q70 0 100.5 -29.5t30.5 -99.5v-493q0 -102 -8 -144h4q20 41 97 144l446 622h197v-821q0 -45 43 -45h82v-170h-183q-70 0 -100.5 30.5t-30.5 100.5v492q0 80 8 145h-4q-16 -39 -96 -145l-446 -623h-197v821q0 45 -43 45h-82zM408 1448h200l150 -260h-156z " />
<glyph unicode="&#x45e;" horiz-adv-x="1112" d="M6 -328l82 144q2 -6 20.5 -22.5t55.5 -34t76 -17.5q119 0 182 149l47 113l-354 821q-18 41 -64 41h-26v170h116q63 0 94 -21.5t56 -82.5l233 -584l37 -125h4q16 72 35 125l217 584q20 61 53 82.5t97 21.5h118v-170h-26q-47 0 -66 -41l-407 -1011q-49 -119 -137 -181.5 t-199 -62.5q-68 0 -129.5 25.5t-87.5 52.5zM258 1417v31h160v-29q0 -63 43 -99t100 -36q59 0 102.5 36t43.5 101v27h157v-31q0 -121 -88 -191.5t-215 -70.5q-125 0 -214 70.5t-89 191.5z" />
<glyph unicode="&#x45f;" horiz-adv-x="1210" d="M43 866v170h197q70 0 100.5 -30.5t30.5 -100.5v-694q0 -45 43 -45h383q43 0 43 45v694q0 70 31.5 100.5t101.5 30.5h194v-170h-84q-45 0 -45 -45v-692q0 -70 -29.5 -99.5t-99.5 -29.5h-215v-246h-178v246h-213q-70 0 -100.5 29.5t-30.5 99.5v692q0 45 -45 45h-84z" />
<glyph unicode="&#x462;" horiz-adv-x="1390" d="M25 1075v178h360v193h205v-193h397v-178h-397v-227h289q201 0 337 -101.5t136 -306.5q0 -213 -137.5 -326.5t-335.5 -113.5h-361q-70 0 -101.5 30.5t-31.5 100.5v944h-360zM590 217q0 -45 45 -45h239q121 0 194 69.5t73 194.5q0 117 -73 178.5t-194 61.5h-284v-459z" />
<glyph unicode="&#x463;" horiz-adv-x="1099" d="M20 940v150h248v356h199v-356h338v-150h-338v-274h215q176 0 277.5 -90.5t101.5 -237.5q0 -158 -104.5 -248t-274.5 -90h-301q-59 0 -86 27t-27 86v827h-248zM467 184q0 -41 39 -41h151q94 0 148.5 53.5t54.5 137.5q0 88 -53 138t-150 50h-190v-338z" />
<glyph unicode="&#x472;" horiz-adv-x="1624" d="M70 733q0 313 212 525t529 212t530 -211.5t213 -525.5q0 -322 -213 -540t-530 -218t-529 218t-212 540zM281 811h1060q-27 207 -175 342t-355 135t-355.5 -135t-174.5 -342zM283 649q27 -213 174 -351t354 -138t354.5 138t175.5 351h-1058z" />
<glyph unicode="&#x473;" horiz-adv-x="1247" d="M66 520q0 231 161.5 386t395.5 155q236 0 397.5 -153.5t161.5 -387t-162 -389.5t-395.5 -156t-396 156t-162.5 389zM260 461q20 -145 122.5 -235.5t242 -90.5t242 91t122.5 235h-729zM260 588h727q-20 139 -122.5 226t-240 87t-239.5 -87t-125 -226z" />
<glyph unicode="&#x474;" horiz-adv-x="1417" d="M29 1446h229l358 -1010l56 -198h4q29 121 55 198l287 848q35 104 82 133t160 29h135v-176h-45q-74 0 -100.5 -17.5t-47.5 -81.5l-420 -1171h-217z" />
<glyph unicode="&#x475;" horiz-adv-x="1150" d="M31 1036h217l262 -700l37 -135h4q16 78 37 135l176 510q37 109 93 149.5t167 40.5h106v-172h-53q-66 0 -96.5 -22.5t-54.5 -91.5l-275 -750h-221z" />
<glyph unicode="&#x48a;" horiz-adv-x="1622" d="M70 1270v176h206q70 0 101 -31t31 -100v-793l-13 -207h4q78 131 129 209l631 922h201v-1225q0 -45 45 -45h178v-117l-147 -346h-150l82 287h-80q-70 0 -101.5 30.5t-31.5 100.5v795l12 211h-4q-72 -133 -123 -211l-634 -926h-203v1225q0 45 -45 45h-88zM492 1776v30h159 v-28q0 -63 43 -99.5t101 -36.5q59 0 102 36t43 102v26h158v-30q0 -121 -88 -192t-215 -71q-125 0 -214 71t-89 192z" />
<glyph unicode="&#x48b;" horiz-adv-x="1320" d="M47 866v170h182q70 0 100.5 -29.5t30.5 -99.5v-493q0 -102 -8 -144h4q20 41 97 144l446 622h197v-821q0 -45 43 -45h147v-111l-129 -305h-141l67 246h-45q-70 0 -100.5 30.5t-30.5 100.5v492q0 80 8 145h-4q-16 -39 -96 -145l-446 -623h-197v821q0 45 -43 45h-82z M336 1417v31h160v-29q0 -63 43 -99t100 -36q59 0 102 36t43 101v27h158v-31q0 -121 -88 -191.5t-215 -70.5q-125 0 -214 70.5t-89 191.5z" />
<glyph unicode="&#x48c;" horiz-adv-x="1353" d="M18 1167v158h324v211h207v-211h375v-158h-375v-286h280q205 0 346.5 -108.5t141.5 -324t-138.5 -332t-338.5 -116.5h-365q-70 0 -100.5 30.5t-30.5 100.5v1036h-326zM549 217q0 -45 45 -45h240q125 0 198.5 73.5t73.5 198.5q0 123 -77 194t-204 71h-276v-492z" />
<glyph unicode="&#x48d;" horiz-adv-x="1099" d="M20 940v150h248v356h199v-356h338v-150h-338v-274h215q176 0 277.5 -90.5t101.5 -237.5q0 -158 -104.5 -248t-274.5 -90h-299q-61 0 -88 27t-27 86v827h-248zM467 184q0 -41 39 -41h151q94 0 148.5 53.5t54.5 137.5q0 88 -53 138t-150 50h-190v-338z" />
<glyph unicode="&#x48e;" horiz-adv-x="1249" d="M68 1270v176h655q201 0 327 -124t126 -329q0 -211 -136 -340l125 -166l-110 -90l-135 176q-84 -39 -197 -38h-317v-535h-205v1270h-133zM406 692h290q66 0 119 19l-137 180l115 90l137 -184q53 72 53 184q0 135 -76 212t-209 77h-292v-578z" />
<glyph unicode="&#x48f;" horiz-adv-x="1253" d="M45 866v170h186q127 0 127 -104l-2 -55h4q4 8 11.5 20t36 44t64.5 56.5t98.5 44t134.5 19.5q209 0 332.5 -149.5t123.5 -393.5q0 -233 -123 -383l111 -133l-111 -96l-112 133q-104 -63 -236 -64q-63 0 -119.5 17.5t-91.5 41t-60.5 48t-35.5 41.5l-10 18h-4q4 -37 4 -90 v-461h-199v1231q0 45 -45 45h-84zM367 512q0 -154 78.5 -264.5t218.5 -110.5q82 0 147 39l-141 172l110 96l135 -161q57 98 58 231q0 168 -86 270.5t-219 102.5q-127 0 -214 -94.5t-87 -280.5z" />
<glyph unicode="&#x490;" horiz-adv-x="1026" d="M68 1270v176h698q45 0 45 45v102h188v-192q0 -70 -31.5 -100.5t-101.5 -30.5h-460v-1270h-205v1270h-133z" />
<glyph unicode="&#x491;" horiz-adv-x="854" d="M47 866v170h567q45 0 45 45v93h168v-181q0 -68 -30.5 -97.5t-100.5 -29.5h-323v-866h-199v866h-127z" />
<glyph unicode="&#x492;" horiz-adv-x="1048" d="M74 618v156h133v496h-133v176h809q70 0 101.5 -31t31.5 -100v-182h-189v92q0 45 -45 45h-370v-496h315v-156h-315v-618h-205v618h-133z" />
<glyph unicode="&#x493;" horiz-adv-x="905" d="M45 866v170h686q72 0 102.5 -28.5t30.5 -98.5v-157h-166v69q0 45 -45 45h-280v-321h264v-142h-264v-403h-199v403h-127v142h127v321h-129z" />
<glyph unicode="&#x494;" horiz-adv-x="1241" d="M68 1278v168h843q70 0 99.5 -28.5t29.5 -98.5v-166h-170v80q0 45 -45 45h-419v-483q127 59 280 59q494 0 494 -582q0 -326 -138.5 -481.5t-384.5 -155.5v166q313 0 314 471q0 215 -78 310.5t-246 95.5q-117 0 -241 -57v-621h-205v1278h-133z" />
<glyph unicode="&#x495;" horiz-adv-x="1038" d="M47 866v170h703q72 0 101.5 -22.5t29.5 -89.5v-172h-166v75q0 39 -37 39h-305v-364q111 53 229 53q197 0 290 -122t93 -302q0 -358 -307 -555l-98 141q213 127 213 394q0 123 -54.5 200.5t-177.5 77.5q-100 0 -188 -53v-336h-199v866h-127z" />
<glyph unicode="&#x496;" horiz-adv-x="1888" d="M14 0l385 655q18 33 42 56.5t38 29.5l13 9v4q-39 14 -80 90l-209 379q-25 47 -103 47h-41v176h103q86 0 123 -20.5t73 -88.5l244 -446q20 -35 48 -46t77 -11h80v612h197v-612h75q96 0 129 57l244 446q37 68 74 88.5t123 20.5h102v-176h-41q-78 0 -104 -47l-207 -379 q-18 -33 -38 -55.5t-30 -28.5l-12 -6v-4q49 -23 90 -95l283 -479h75q70 0 99.5 -29.5t29.5 -99.5v-334h-184v242q0 41 -35 45h-106l-352 608q-35 59 -117 60h-98v-668h-197v668h-98q-82 0 -117 -60l-352 -608h-226z" />
<glyph unicode="&#x497;" horiz-adv-x="1599" d="M33 0l248 426q23 39 52 63.5t48 30.5l18 6v4q-49 14 -82 82l-106 213q-18 41 -92 41h-53v170h122q76 0 111 -17.5t63 -78.5l134 -268q33 -61 118 -62h62v426h192v-426h60q86 0 119 62l133 268q29 61 63.5 78.5t110.5 17.5h123v-170h-54q-41 0 -60.5 -8t-31.5 -33 l-106 -213q-14 -31 -35 -51t-35 -24l-12 -7v-4q68 -14 119 -100l151 -260h47q68 0 96.5 -31t28.5 -98v-283h-182v201q0 45 -39 45h-84l-205 360q-49 82 -145 82h-62v-442h-192v442h-62q-96 0 -147 -82l-203 -360h-231z" />
<glyph unicode="&#x498;" horiz-adv-x="1085" d="M41 168l121 143q55 -59 145 -106t189 -47q127 0 213 69.5t86 188.5q0 113 -77 177t-192 64h-172v168h148q104 0 177 66.5t73 171.5q0 100 -63.5 162.5t-184.5 62.5q-94 0 -161 -40t-67 -97v-59h-188v112q0 90 72.5 153.5t166 88t193.5 24.5q209 0 323.5 -103t114.5 -273 q0 -221 -208 -328v-4q119 -33 187.5 -128t68.5 -226q0 -166 -107.5 -280t-286.5 -142v-273h-184v267q-240 24 -387 188z" />
<glyph unicode="&#x499;" horiz-adv-x="905" d="M47 127l94 131q121 -121 275 -121q92 0 153.5 44t61.5 128q0 156 -211 156h-131v137h104q203 0 203 158q0 76 -49 113.5t-131 37.5q-63 0 -115.5 -25.5t-52.5 -74.5v-47h-166v96q0 98 102.5 149.5t247.5 51.5q168 0 266.5 -73t98.5 -208q0 -90 -44 -149.5t-110 -83.5v-4 q82 -20 134 -84t52 -162q0 -125 -79.5 -205t-208.5 -104v-234h-179v226q-180 18 -315 147z" />
<glyph unicode="&#x49a;" horiz-adv-x="1296" d="M70 1270v176h206q70 0 101 -31t31 -100v-477h137q90 0 119 49l321 559h229l-350 -600q-18 -33 -38.5 -56.5t-30.5 -31.5l-13 -6v-4q43 -10 82 -91l240 -481h61q70 0 98.5 -29.5t28.5 -99.5v-334h-182v242q0 45 -43 45h-104l-304 610q-25 53 -129 54h-122v-664h-205v1225 q0 45 -45 45h-88z" />
<glyph unicode="&#x49b;" horiz-adv-x="1101" d="M45 866v170h197q72 0 101.5 -25.5t29.5 -92.5v-281h92q76 0 108 47l242 352h223l-278 -403q-20 -29 -40 -47.5t-28 -24.5l-10 -4v-4q33 -16 68 -80l180 -307h43q115 0 114 -129v-283h-182v201q0 45 -33 45h-75l-246 426q-23 41 -100 41h-78v-467h-199v821q0 45 -45 45 h-84z" />
<glyph unicode="&#x49c;" horiz-adv-x="1429" d="M70 1270v176h206q70 0 101 -31t31 -100v-477h147v245h152v-245h20q92 0 119 49l313 559h230l-345 -600q-16 -33 -36.5 -56.5t-32.5 -31.5l-12 -6v-4q43 -10 81 -91l211 -434q23 -47 103 -47h41v-176h-115q-88 0 -128 20.5t-73 88.5l-243 501q-16 33 -46 43.5t-83 10.5h-4 v-250h-152v250h-147v-664h-205v1225q0 45 -45 45h-88z" />
<glyph unicode="&#x49d;" horiz-adv-x="1218" d="M45 866v170h195q72 0 102.5 -25.5t30.5 -92.5v-279h110v188h144v-188q68 0 96 43l225 354h223l-264 -403q-20 -29 -38.5 -47.5t-28.5 -24.5l-9 -4v-4q37 -20 70 -84l127 -258q12 -25 30.5 -33t59.5 -8h62v-170h-144q-72 0 -105.5 18.5t-66.5 77.5l-162 330q-23 35 -75 39 v-232h-144v234h-110v-467h-199v821q0 45 -45 45h-84z" />
<glyph unicode="&#x49e;" horiz-adv-x="1269" d="M41 1075v154h168v217h205v-217h192v-154h-192v-237h147q90 0 119 49l319 559h230l-350 -600q-16 -33 -37 -56.5t-33 -31.5l-12 -6v-4q43 -10 82 -91l217 -434q23 -47 102 -47h41v-176h-115q-88 0 -127 20.5t-73 88.5l-250 501q-25 53 -129 54h-131v-664h-205v1075h-168z " />
<glyph unicode="&#x49f;" horiz-adv-x="1073" d="M12 1081v142h144v223h198v-223h240v-142h-240v-426h92q74 0 107 45l240 336h229l-283 -385q-20 -29 -39.5 -48t-27.5 -25l-10 -5v-4q35 -12 69 -77l154 -281q23 -41 90 -41h61v-170h-143q-72 0 -105.5 18.5t-66.5 77.5l-189 348q-23 43 -102 43h-76v-487h-198v1081h-144z " />
<glyph unicode="&#x4a0;" horiz-adv-x="1548" d="M27 1133v192q0 68 28.5 94.5t98.5 26.5h688v-176h-133v-432h131q90 0 118 49l320 559h229l-350 -600q-16 -33 -36.5 -56.5t-33.5 -31.5l-12 -6v-4q43 -10 82 -91l217 -434q23 -47 103 -47h41v-176h-115q-88 0 -127 20.5t-74 88.5l-250 501q-25 53 -129 54h-114v-664h-205 v1270h-244q-45 0 -45 -45v-92h-188z" />
<glyph unicode="&#x4a1;" horiz-adv-x="1306" d="M37 754v170q0 68 29.5 90t101.5 22h297q72 0 101.5 -25.5t29.5 -92.5v-289h80q76 0 106 47l246 360h227l-286 -411q-20 -29 -40 -48.5t-28 -23.5l-10 -6v-4q41 -14 78 -78l153 -254q23 -41 90 -41h60v-170h-144q-72 0 -105.5 18.5t-66.5 77.5l-184 322q-25 41 -98 41h-78 v-459h-199v836q0 41 -37 41h-124q-37 0 -37 -41v-82h-162z" />
<glyph unicode="&#x4a2;" horiz-adv-x="1599" d="M70 1270v176h206q70 0 101 -31t31 -100v-506h735v506q0 70 31.5 100.5t101.5 30.5h205v-176h-88q-45 0 -45 -45v-1049h71q70 0 99.5 -29.5t29.5 -99.5v-334h-184v242q0 45 -43 45h-178v635h-735v-635h-205v1225q0 45 -45 45h-88z" />
<glyph unicode="&#x4a3;" horiz-adv-x="1296" d="M45 866v170h197q70 0 100.5 -30.5t30.5 -100.5v-291h524v422h199v-870h49q66 0 94.5 -31t28.5 -98v-283h-183v201q0 45 -36 45h-152v449h-524v-449h-199v821q0 45 -45 45h-84z" />
<glyph unicode="&#x4a4;" horiz-adv-x="1927" d="M70 1270v176h206q70 0 101 -31t31 -100v-506h688v461h-133v176h813q70 0 98.5 -28.5t28.5 -98.5v-186h-189v92q0 45 -45 45h-369v-1270h-204v635h-688v-635h-205v1225q0 45 -45 45h-88z" />
<glyph unicode="&#x4a5;" horiz-adv-x="1550" d="M45 866v170h197q70 0 100.5 -30.5t30.5 -100.5v-313h475v285h-127v159h661q72 0 101.5 -22.5t29.5 -89.5v-164h-163v76q0 41 -39 41h-264v-877h-199v424h-475v-424h-199v821q0 45 -45 45h-84z" />
<glyph unicode="&#x4a6;" horiz-adv-x="2033" d="M68 1270v176h1011q70 0 100.5 -31t30.5 -100v-492q127 59 279 60q496 0 496 -602q0 -645 -525 -646v166q313 0 314 480q0 229 -78 331.5t-246 102.5q-96 0 -240 -56v-659h-204v1225q0 45 -45 45h-553v-1270h-205v1270h-135z" />
<glyph unicode="&#x4a7;" horiz-adv-x="1665" d="M55 866v170h1045v-170h-115v-303q111 53 225 53q215 0 314.5 -132t99.5 -339q0 -367 -307 -569l-98 141q213 137 213 428q0 299 -261 299q-98 0 -186 -49v-395h-199v866h-415v-866h-199v866h-117z" />
<glyph unicode="&#x4a8;" horiz-adv-x="1857" d="M72 745q0 154 48 285t127 218t165 142.5t176 82.5l69 -185q-156 -53 -268.5 -193.5t-112.5 -355.5q0 -242 140.5 -409.5t394.5 -167.5q113 0 223 35q-150 113 -234.5 276.5t-84.5 364.5q0 281 157.5 444.5t374.5 163.5q229 0 374.5 -160t145.5 -434q0 -186 -94 -357 t-254 -298q100 -29 236 -29h94v-168h-98q-223 0 -412 80q-205 -104 -430 -105q-326 0 -531.5 212t-205.5 558zM924 840q0 -180 76.5 -324.5t218.5 -232.5q154 98 247 248.5t93 318.5q0 203 -89.5 307.5t-224.5 104.5q-125 0 -223 -108.5t-98 -313.5z" />
<glyph unicode="&#x4a9;" horiz-adv-x="1566" d="M68 535q0 207 113.5 341t262.5 185l68 -162q-104 -41 -180 -137t-76 -232q0 -164 104.5 -277.5t307.5 -113.5q88 0 180 25q-248 176 -248 457q0 186 126 313t321 127q193 0 309.5 -117t116.5 -299q0 -264 -256 -473q70 -14 157 -14h111v-158h-103q-178 0 -342 61 q-178 -86 -372 -86q-283 0 -441.5 158t-158.5 402zM791 625q0 -125 63.5 -224.5t173.5 -160.5q115 68 184.5 170t69.5 225t-64.5 194.5t-175.5 71.5q-109 0 -180 -78.5t-71 -197.5z" />
<glyph unicode="&#x4aa;" horiz-adv-x="1429" d="M72 735q0 313 207.5 524t517.5 211q80 0 168 -17t175 -51t143 -98.5t56 -146.5v-141h-188v82q0 84 -112.5 133t-237.5 49q-221 0 -368.5 -151.5t-147.5 -393.5q0 -238 150.5 -402.5t371.5 -164.5q80 0 156.5 20.5t129 49t92.5 57.5t60 49l19 21l110 -148 q-8 -8 -21.5 -22.5t-61.5 -51.5t-100 -67.5t-136 -59t-172 -36.5v-267h-185v271q-281 37 -453.5 246.5t-172.5 504.5z" />
<glyph unicode="&#x4ab;" horiz-adv-x="1089" d="M68 518q0 231 154.5 387t402.5 156q53 0 112.5 -11.5t120 -36t100 -71.5t39.5 -108v-107h-180v57q0 51 -62.5 79t-129.5 28q-154 0 -255.5 -103.5t-101.5 -267.5q0 -170 106.5 -269t260.5 -99q86 0 167 35.5t118 70.5l36 37l84 -141q-14 -16 -40.5 -42t-117.5 -73 t-192 -59v-226h-178v232q-201 33 -322.5 179t-121.5 353z" />
<glyph unicode="&#x4ac;" horiz-adv-x="1302" d="M27 1133v190q0 70 26.5 96.5t96.5 26.5h995q70 0 96.5 -26.5t26.5 -96.5v-190h-183v92q0 45 -45 45h-290v-1094h71q70 0 98.5 -29.5t28.5 -99.5v-334h-182v242q0 41 -37 45h-184v1270h-289q-45 0 -45 -45v-92h-184z" />
<glyph unicode="&#x4ad;" horiz-adv-x="1097" d="M37 752v157q0 68 30.5 97.5t100.5 29.5h754q70 0 100.5 -29.5t30.5 -97.5v-157h-164v69q0 45 -45 45h-201v-700h53q66 0 94.5 -31t28.5 -98v-283h-182v201q0 45 -37 45h-154v866h-200q-45 0 -45 -45v-69h-164z" />
<glyph unicode="&#x4ae;" horiz-adv-x="1241" d="M23 1270v176h94q76 0 114.5 -20.5t79.5 -90.5l219 -364l88 -162h5q41 82 88 162l217 364q41 70 80 90.5t114 20.5h97v-176h-41q-59 0 -91 -51l-364 -588v-631h-205v631l-366 588q-29 51 -89 51h-40z" />
<glyph unicode="&#x4af;" horiz-adv-x="1091" d="M27 866v170h102q68 0 100.5 -22.5t57.5 -81.5l217 -549l41 -127h4q23 72 43 127l215 549q25 61 57.5 82.5t100.5 21.5h102v-170h-20q-47 0 -66 -41l-336 -778v-457h-196v457l-338 778q-18 41 -64 41h-20z" />
<glyph unicode="&#x4b0;" horiz-adv-x="1239" d="M23 1270v176h94q78 0 115.5 -20.5t78.5 -90.5l219 -362l88 -164h5q41 82 88 164l217 362q43 70 81 90.5t113 20.5h97v-176h-41q-61 0 -91 -51l-364 -588v-4h244v-150h-244v-477h-205v477h-248v150h248v4l-364 588q-31 51 -91 51h-40z" />
<glyph unicode="&#x4b1;" horiz-adv-x="1093" d="M27 866v170h102q68 0 100.5 -22.5t57.5 -81.5l217 -549l41 -127h4q23 72 43 127l215 549q25 61 57.5 82.5t100.5 21.5h102v-170h-20q-47 0 -66 -41l-295 -680h199v-145h-240v-410h-196v410h-238v145h195l-295 680q-18 41 -64 41h-20z" />
<glyph unicode="&#x4b2;" horiz-adv-x="1284" d="M25 0l454 745l-291 474q-20 33 -39.5 42t-56.5 9h-51v176h119q78 0 116.5 -21.5t77.5 -89.5l162 -274l92 -170h4q41 90 88 170l164 274q39 68 78 89.5t115 21.5h121v-176h-54q-63 0 -94 -51l-293 -474l348 -569h76q70 0 98.5 -29.5t28.5 -99.5v-334h-182v242q0 41 -37 45 h-106l-265 440l-90 164h-4q-43 -86 -88 -166l-262 -438h-229z" />
<glyph unicode="&#x4b3;" horiz-adv-x="1079" d="M41 0l350 532l-198 295q-27 39 -87 39h-59v170h127q72 0 106.5 -19.5t75.5 -84.5l125 -201l33 -65h4q18 39 35 65l125 201q41 66 75.5 85t106.5 19h127v-170h-59q-59 0 -86 -37l-199 -297l240 -366h51q66 0 94.5 -31t28.5 -98v-283h-185v201q0 43 -28 45h-76l-217 338 l-33 55h-4q-14 -31 -31 -55l-217 -338h-225z" />
<glyph unicode="&#x4b4;" horiz-adv-x="1882" d="M29 1133v190q0 70 26.5 96.5t96.5 26.5h913q70 0 97.5 -26.5t27.5 -96.5v-190h-176v92q0 45 -45 45h-254v-1049q0 -45 45 -45h690v1270h205v-1270h49q70 0 98.5 -29.5t28.5 -99.5v-334h-182v242q0 45 -43 45h-963q-70 0 -101.5 30.5t-31.5 100.5v1139h-254q-45 0 -45 -45 v-92h-182z" />
<glyph unicode="&#x4b5;" horiz-adv-x="1527" d="M35 760v162q0 68 29.5 91t101.5 23h651q72 0 101.5 -23.5t29.5 -90.5v-162h-139v74q0 41 -37 40h-178v-663q0 -45 43 -45h502v870h198v-870h31q68 0 96.5 -31t28.5 -98v-283h-182v201q0 45 -43 45h-742q-70 0 -100.5 29.5t-30.5 99.5v745h-182q-39 0 -39 -40v-74h-139z " />
<glyph unicode="&#x4b6;" horiz-adv-x="1409" d="M29 1270v176h207q70 0 100.5 -31t30.5 -100v-295q0 -141 67.5 -211t218.5 -70q176 0 308 99v608h204v-1270h72q70 0 99.5 -28.5t29.5 -100.5v-334h-182v242q0 41 -37 45h-186v586l4 67h-4q-181 -100 -355 -100q-223 0 -333.5 109.5t-110.5 312.5v250q0 45 -45 45h-88z " />
<glyph unicode="&#x4b7;" horiz-adv-x="1177" d="M35 866v170h186q72 0 100.5 -33.5t28.5 -97.5v-178q0 -90 42 -142.5t155 -52.5q123 0 231 74v430h199v-870h49q66 0 94.5 -31t28.5 -98v-283h-182v201q0 41 -31 45h-158v375l2 65h-2q-121 -80 -291 -80q-162 0 -246.5 80t-84.5 232v149q0 45 -47 45h-74z" />
<glyph unicode="&#x4b8;" horiz-adv-x="1368" d="M27 1270v176h206q70 0 101 -31t31 -100v-289q0 -264 233 -283v283h152v-278q147 23 247 92v606h205v-1446h-205v588l4 67h-4q-109 -59 -247 -84v-227h-152v215h-6q-213 0 -322.5 107.5t-109.5 308.5v250q0 45 -45 45h-88z" />
<glyph unicode="&#x4b9;" horiz-adv-x="1165" d="M33 866v170h188q129 0 129 -133v-162q0 -86 36 -140t132 -66v249h144v-243q94 18 172 65v430h198v-1036h-198v383l4 63h-4q-82 -45 -172 -63v-180h-144v162h-14q-166 0 -258 86t-92 237v133q0 45 -45 45h-76z" />
<glyph unicode="&#x4ba;" horiz-adv-x="1343" d="M70 1270v176h206q70 0 101 -31t31 -100v-404l-5 -67h5q168 94 368 94q209 0 311.5 -108.5t102.5 -313.5v-295q0 -45 45 -45h88v-176h-207q-70 0 -100.5 30.5t-30.5 100.5v342q0 141 -61.5 211t-194.5 70q-94 0 -182 -30t-139 -67v-657h-205v1225q0 45 -45 45h-88z" />
<glyph unicode="&#x4bb;" horiz-adv-x="1239" d="M8 1276v170h195q133 0 133 -127v-404l-4 -86h4q41 90 141.5 161t241.5 71q356 0 356 -397v-449q0 -45 45 -45h84v-170h-196q-70 0 -100.5 30.5t-30.5 100.5v487q0 125 -40 193t-155 68q-117 0 -207 -72t-123 -184q-16 -55 -16 -138v-485h-199v1231q0 45 -45 45h-84z" />
<glyph unicode="&#x4bc;" horiz-adv-x="1738" d="M49 1053q0 109 14 170l17 80h186l-18 -82q-14 -66 -15 -150q0 -90 39 -148.5t123 -58.5h8q41 272 221.5 439t436.5 167q274 0 435 -181t161 -490l-6 -97h-1045q4 -250 148.5 -395t353.5 -145q106 0 212.5 40t153 71.5t74.5 58.5l99 -156q-12 -12 -30 -27.5t-71 -49 t-112.5 -58.5t-153.5 -45.5t-195 -20.5q-295 0 -491.5 204t-200.5 526h-6q-158 0 -248 90t-90 258zM610 864h842q0 180 -100.5 303t-290.5 123q-186 0 -307 -125t-144 -301z" />
<glyph unicode="&#x4bd;" horiz-adv-x="1345" d="M43 799q0 74 23 151h163q-25 -74 -24 -141q0 -170 119 -172q35 195 174 309.5t333 114.5q211 0 329 -138.5t118 -347.5l-4 -83h-758q8 -162 109.5 -253.5t248.5 -91.5q80 0 155 31t110 62l37 30l86 -143q-16 -16 -49 -42t-137.5 -68t-213.5 -42q-236 0 -388 147.5 t-161 371.5q-270 0 -270 305zM524 635h553q-4 125 -74.5 196.5t-171.5 71.5q-119 0 -203 -70.5t-104 -197.5z" />
<glyph unicode="&#x4be;" horiz-adv-x="1738" d="M49 1053q0 109 14 170l17 80h186l-18 -82q-14 -66 -15 -150q0 -90 39 -148.5t123 -58.5h8q41 272 221.5 439t436.5 167q274 0 435 -181t161 -490l-6 -97h-1045q4 -250 148.5 -395t353.5 -145q106 0 212.5 40t153 71.5t74.5 58.5l99 -156q-12 -12 -27.5 -25.5t-63 -44 t-99.5 -54t-134 -46t-170 -29.5v-264h-182v273q-254 39 -414 234.5t-164 484.5h-6q-158 0 -248 90t-90 258zM610 864h842q0 180 -100.5 303t-290.5 123q-186 0 -307 -125t-144 -301z" />
<glyph unicode="&#x4bf;" horiz-adv-x="1349" d="M45 799q0 74 23 151h163q-25 -74 -24 -141q0 -170 119 -172q35 195 174 309.5t334 114.5q211 0 328.5 -138.5t117.5 -347.5l-4 -83h-758q8 -162 109.5 -253.5t249.5 -91.5q80 0 154.5 31t111.5 62l35 30l86 -143q-14 -14 -43 -36.5t-119 -63.5t-184 -50v-223h-179v234 q-184 37 -299.5 176t-124.5 330q-270 0 -270 305zM526 635h553q-4 125 -74.5 196.5t-170.5 71.5q-119 0 -203.5 -70.5t-104.5 -197.5z" />
<glyph unicode="&#x4c0;" horiz-adv-x="651" d="M86 0v176h141v1094h-141v176h477v-176h-139v-1094h139v-176h-477z" />
<glyph unicode="&#x4c1;" horiz-adv-x="1810" d="M14 0l385 655q18 33 42 56.5t38 29.5l13 9v4q-39 14 -80 90l-209 379q-25 47 -103 47h-41v176h103q86 0 123 -20.5t73 -88.5l244 -446q20 -35 48 -46t77 -11h80v612h197v-612h75q96 0 129 57l244 446q37 68 74 88.5t123 20.5h102v-176h-41q-78 0 -104 -47l-207 -379 q-18 -33 -38 -55.5t-30 -28.5l-12 -6v-4q49 -23 90 -95l387 -655h-225l-352 608q-35 59 -117 60h-98v-668h-197v668h-98q-82 0 -117 -60l-352 -608h-226zM606 1776v30h160v-28q0 -63 43 -99.5t100 -36.5q59 0 102.5 36t43.5 102v26h157v-30q0 -121 -88 -192t-215 -71 q-125 0 -214 71t-89 192z" />
<glyph unicode="&#x4c2;" horiz-adv-x="1542" d="M33 0l248 426q23 39 52 63.5t48 30.5l18 6v4q-49 14 -82 82l-106 213q-18 41 -92 41h-53v170h122q76 0 111 -17.5t63 -78.5l134 -268q33 -61 118 -62h62v426h192v-426h60q86 0 119 62l133 268q29 61 63.5 78.5t110.5 17.5h123v-170h-54q-41 0 -60.5 -8t-31.5 -33 l-106 -213q-14 -31 -35 -51t-35 -24l-12 -7v-4q68 -14 119 -100l249 -426h-231l-205 360q-49 82 -145 82h-62v-442h-192v442h-62q-96 0 -147 -82l-203 -360h-231zM471 1417v31h160v-29q0 -63 43 -99t100 -36q59 0 102.5 36t43.5 101v27h157v-31q0 -121 -88 -191.5 t-215 -70.5q-125 0 -214 70.5t-89 191.5z" />
<glyph unicode="&#x4c3;" horiz-adv-x="1296" d="M70 1270v176h206q70 0 101 -31t31 -100v-477h137q90 0 119 49l329 559h230l-324 -545q-39 -68 -86 -102v-2q127 -39 213 -112t123 -160t50 -153.5t13 -133.5q0 -279 -137 -441t-368 -162v170q123 0 208.5 103.5t85.5 331.5q0 207 -118.5 315.5t-323.5 108.5h-151v-664 h-205v1225q0 45 -45 45h-88z" />
<glyph unicode="&#x4c4;" horiz-adv-x="1087" d="M45 866v170h197q131 0 131 -118v-302h67q76 0 119 62l242 358h225l-270 -391q-35 -49 -68 -72v-4q180 -49 254 -178t74 -280q0 -190 -91 -325.5t-223 -209.5l-94 143q215 113 215 392q0 158 -91 245.5t-257 87.5h-102v-444h-199v821q0 45 -45 45h-84z" />
<glyph unicode="&#x4c5;" horiz-adv-x="1456" d="M20 -10v186q178 25 254 252t76 682v160h-135v176h850q70 0 100.5 -31t30.5 -100v-1094q0 -45 45 -45h178v-117l-149 -346h-148l82 287h-82q-70 0 -100.5 30.5t-30.5 100.5v1094q0 45 -45 45h-401v-162q0 -547 -119 -824.5t-406 -293.5z" />
<glyph unicode="&#x4c6;" horiz-adv-x="1167" d="M27 -6v176q66 2 116 61.5t76.5 155.5t38.5 196.5t12 202.5v80h-129v170h670q70 0 100.5 -30.5t30.5 -100.5v-690q0 -45 45 -45h156v-111l-129 -305h-142l68 246h-63q-70 0 -102 30.5t-32 100.5v690q0 45 -45 45h-237v-82q0 -76 -6 -150.5t-21.5 -169.5t-47.5 -175 t-77 -148.5t-117.5 -107.5t-164.5 -39z" />
<glyph unicode="&#x4c7;" horiz-adv-x="1562" d="M70 1270v176h206q70 0 101 -31t31 -100v-506h749v506q0 70 31 100.5t100 30.5h207v-176h-88q-45 0 -45 -45v-1121q0 -147 -39 -246.5t-106.5 -145.5t-133 -62.5t-145.5 -16.5v172q219 0 219 297v533h-749v-635h-205v1225q0 45 -45 45h-88z" />
<glyph unicode="&#x4c8;" horiz-adv-x="1271" d="M45 866v170h197q70 0 100.5 -30.5t30.5 -100.5v-291h524v291q0 70 32 100.5t101 30.5h197v-170h-84q-45 0 -45 -45v-723q0 -203 -78 -317.5t-232 -204.5l-102 145q104 57 157.5 140.5t53.5 234.5v348h-524v-444h-199v821q0 45 -45 45h-84z" />
<glyph unicode="&#x4c9;" horiz-adv-x="1611" d="M70 1270v176h206q70 0 101 -31t31 -100v-506h735v506q0 70 31.5 100.5t101.5 30.5h205v-176h-88q-45 0 -45 -45v-1049h225v-117l-148 -346h-149l88 287h-221v635h-735v-635h-205v1225q0 45 -45 45h-88z" />
<glyph unicode="&#x4ca;" horiz-adv-x="1296" d="M45 866v170h197q70 0 100.5 -30.5t30.5 -100.5v-293h524v424h199v-821q0 -45 45 -45h119v-111l-130 -305h-139l68 246h-31q-70 0 -100.5 30.5t-30.5 100.5v315h-524v-446h-199v821q0 45 -45 45h-84z" />
<glyph unicode="&#x4cb;" horiz-adv-x="1331" d="M29 1270v176h207q70 0 100.5 -31t30.5 -100v-295q0 -141 67.5 -211t218.5 -70q176 0 308 99v608h204v-1446h-221q-43 0 -43 -45v-242h-182v334q0 70 28.5 99.5t98.5 29.5h115v410l4 67h-4q-181 -100 -355 -100q-223 0 -333.5 109.5t-110.5 312.5v250q0 45 -45 45h-88z " />
<glyph unicode="&#x4cc;" horiz-adv-x="1107" d="M33 866v170h188q72 0 100.5 -33.5t28.5 -97.5v-162q0 -90 41 -142t156 -52q123 0 229 76v411h199v-1036h-162q-29 -2 -29 -45v-201h-182v264q0 68 27.5 97.5t95.5 29.5h51v248l4 64h-4q-121 -78 -291 -78q-162 0 -246.5 80t-84.5 231v131q0 45 -45 45h-76z" />
<glyph unicode="&#x4cd;" horiz-adv-x="1826" d="M47 0v176h68q41 0 45 45l98 1225h211l340 -764l72 -184h4q37 104 71 184l340 764h211l99 -1225q4 -45 45 -45h182v-117l-147 -346h-148l80 287h-80q-70 0 -98.5 29.5t-34.5 101.5l-57 764l-5 213h-4q-43 -135 -77 -213l-293 -635h-172l-291 635q-16 33 -35.5 87t-32.5 91 l-10 37h-4q2 -129 -4 -215l-60 -764q-4 -70 -33.5 -100.5t-97.5 -30.5h-182z" />
<glyph unicode="&#x4ce;" horiz-adv-x="1552" d="M39 0v170h53q37 0 39 39l72 827h217l270 -594l53 -129h2q29 68 56 129l268 594h217l72 -827q2 -39 39 -39h155v-111l-129 -305h-141l68 246h-52q-61 0 -84.5 26.5t-27.5 86.5l-39 489l-4 184h-4q-25 -76 -62 -155l-241 -506h-189l-237 506l-60 157h-4q0 -123 -4 -186 l-39 -489q-4 -59 -27.5 -86t-85.5 -27h-151z" />
<glyph unicode="&#x4cf;" horiz-adv-x="651" d="M86 0v170h141v1106h-141v170h477v-170h-139v-1106h139v-170h-477z" />
<glyph unicode="&#x4d0;" horiz-adv-x="1361" d="M25 0v176h28q53 0 68 45l452 1225h215l453 -1225q14 -45 68 -45h28v-176h-112q-76 0 -110 23.5t-60 95.5l-109 297h-530l-109 -297q-27 -72 -60.5 -95.5t-109.5 -23.5h-112zM375 1776v30h160v-28q0 -63 43 -99.5t100 -36.5q59 0 102 36t43 102v26h158v-30 q0 -121 -88 -192t-215 -71q-125 0 -214 71t-89 192zM465 588h432l-158 440l-57 203h-4q-31 -127 -55 -203z" />
<glyph unicode="&#x4d1;" horiz-adv-x="1083" d="M57 283q0 362 627 362h45v14q0 131 -54 187.5t-175 56.5q-57 0 -113.5 -17.5t-56.5 -62.5v-59h-189v104q0 57 41 99.5t103.5 61t114 25.5t96.5 7q240 0 336 -106.5t96 -299.5v-440q0 -45 45 -45h84v-170h-189q-127 0 -127 119l2 61h-4q2 0 -9 -21.5t-36.5 -51 t-62.5 -59.5t-96.5 -51.5t-128.5 -21.5q-143 0 -246 83.5t-103 224.5zM240 1417v31h159v-29q0 -63 43 -99t101 -36q59 0 102 36t43 101v27h158v-31q0 -121 -88 -191.5t-215 -70.5q-125 0 -214 70.5t-89 191.5zM256 301q0 -68 51 -118t144 -50q123 0 200.5 102.5t77.5 227.5 v39h-53q-420 0 -420 -201z" />
<glyph unicode="&#x4d2;" horiz-adv-x="1361" d="M25 0v176h28q53 0 68 45l452 1225h215l453 -1225q14 -45 68 -45h28v-176h-112q-76 0 -110 23.5t-60 95.5l-109 297h-530l-109 -297q-27 -72 -60.5 -95.5t-109.5 -23.5h-112zM436 1599v207h152v-207h-152zM465 588h432l-158 440l-57 203h-4q-31 -127 -55 -203zM774 1599 v207h150v-207h-150z" />
<glyph unicode="&#x4d3;" horiz-adv-x="1083" d="M57 283q0 362 627 362h45v14q0 131 -54 187.5t-175 56.5q-57 0 -113.5 -17.5t-56.5 -62.5v-59h-189v104q0 57 41 99.5t103.5 61t114 25.5t96.5 7q240 0 336 -106.5t96 -299.5v-440q0 -45 45 -45h84v-170h-189q-127 0 -127 119l2 61h-4q2 0 -9 -21.5t-36.5 -51 t-62.5 -59.5t-96.5 -51.5t-128.5 -21.5q-143 0 -246 83.5t-103 224.5zM256 301q0 -68 51 -118t144 -50q123 0 200.5 102.5t77.5 227.5v39h-53q-420 0 -420 -201zM281 1241v207h151v-207h-151zM618 1241v207h150v-207h-150z" />
<glyph unicode="&#x4d4;" horiz-adv-x="1767" d="M20 0v176h23q51 0 70 45l485 1225h918q70 0 100.5 -31t30.5 -100v-182h-187v92q0 45 -45 45h-399v-453h495v-176h-495v-420q0 -45 53 -45h401q45 0 46 45v92h188v-182q0 -70 -31 -100.5t-100 -30.5h-617q-80 0 -113.5 27.5t-33.5 103.5v510h-326l-194 -522 q-27 -72 -60.5 -95.5t-109.5 -23.5h-99zM551 817h258v453h-88z" />
<glyph unicode="&#x4d5;" horiz-adv-x="1738" d="M59 289q0 352 611 352h59v23q0 131 -54 185t-175 54q-59 0 -114.5 -17.5t-55.5 -62.5v-59h-189v104q0 70 60.5 115t136.5 61.5t162 16.5q270 0 352 -182h4q127 182 369 182q205 0 324.5 -137.5t119.5 -343.5l-4 -84h-745q8 -168 104 -258.5t242 -90.5q80 0 155.5 31 t110.5 62l37 30l84 -143q-16 -16 -49 -42t-137.5 -68t-213.5 -42q-311 0 -444 258h-4q-10 -29 -32.5 -63.5t-68 -81.5t-121 -79t-169.5 -32q-150 0 -252.5 83.5t-102.5 228.5zM260 301q0 -70 51 -118t146 -48q121 0 197.5 103.5t76.5 228.5v29h-96q-375 0 -375 -195z M928 641h538q-6 123 -75.5 191.5t-167.5 68.5q-117 0 -194.5 -67.5t-100.5 -192.5z" />
<glyph unicode="&#x4d6;" horiz-adv-x="1169" d="M68 1270v176h852q70 0 100.5 -31t30.5 -100v-182h-189v92q0 45 -45 45h-411v-453h507v-176h-507v-420q0 -45 45 -45h423q45 0 46 45v92h186v-182q0 -70 -31 -100.5t-100 -30.5h-641q-70 0 -101.5 30.5t-31.5 100.5v1139h-133zM315 1776v30h160v-28q0 -63 43 -99.5 t100 -36.5q59 0 102.5 36t43.5 102v26h158v-30q0 -121 -88.5 -192t-215.5 -71q-125 0 -214 71t-89 192z" />
<glyph unicode="&#x4d7;" horiz-adv-x="1103" d="M68 518q0 244 147 393.5t373 149.5q211 0 328.5 -138.5t117.5 -347.5q0 -35 -6 -83h-756q8 -162 110.5 -253.5t248.5 -91.5q33 0 64.5 5.5t59 15.5t50 19.5t46 23.5t36 22.5t31.5 20.5l18 14l84 -145q-35 -29 -82 -57.5t-138 -59.5t-182 -31q-242 0 -396 155t-154 388z M272 1417v31h160v-29q0 -63 43 -99t100 -36q59 0 102.5 36t43.5 101v27h158v-31q0 -121 -88.5 -191.5t-215.5 -70.5q-125 0 -214 70.5t-89 191.5zM281 635h555q-4 129 -75 200.5t-177 71.5q-117 0 -200 -72.5t-103 -199.5z" />
<glyph unicode="&#x4d8;" horiz-adv-x="1421" d="M78 694l6 103h1051q-10 217 -142.5 352t-339.5 135q-111 0 -217 -36t-154.5 -66.5t-72.5 -53.5l-100 152q16 14 31.5 26.5t71.5 46t114.5 56.5t152.5 42t195 19q297 0 485.5 -210.5t188.5 -530.5q0 -330 -180.5 -542t-477.5 -212q-285 0 -448.5 186.5t-163.5 532.5z M283 635q0 -229 103 -353t316 -124q190 0 309 131t122 346h-850z" />
<glyph unicode="&#x4d9;" horiz-adv-x="1107" d="M70 481l6 92h758q-8 145 -103.5 234.5t-230.5 89.5q-84 0 -167 -28.5t-124 -57.5l-39 -31l-78 142q209 139 430 139q231 0 372.5 -152.5t141.5 -388.5q0 -250 -142 -397.5t-364 -147.5q-219 0 -339.5 139.5t-120.5 366.5zM276 430q4 -154 75 -225.5t184 -71.5 q119 0 201.5 77t90.5 220h-551z" />
<glyph unicode="&#x4da;" horiz-adv-x="1421" d="M78 694l6 103h1051q-10 217 -142.5 352t-339.5 135q-111 0 -217 -36t-154.5 -66.5t-72.5 -53.5l-100 152q16 14 31.5 26.5t71.5 46t114.5 56.5t152.5 42t195 19q297 0 485.5 -210.5t188.5 -530.5q0 -330 -180.5 -542t-477.5 -212q-285 0 -448.5 186.5t-163.5 532.5z M283 635q0 -229 103 -353t316 -124q190 0 309 131t122 346h-850zM457 1597v207h151v-207h-151zM795 1597v207h151v-207h-151z" />
<glyph unicode="&#x4db;" horiz-adv-x="1105" d="M70 481l6 92h758q-8 145 -103.5 234.5t-230.5 89.5q-84 0 -167 -28.5t-124 -57.5l-39 -31l-78 142q209 139 430 139q231 0 372.5 -152.5t141.5 -388.5q0 -250 -142 -397.5t-364 -147.5q-219 0 -339.5 139.5t-120.5 366.5zM276 430q4 -154 75 -225.5t184 -71.5 q119 0 201.5 77t90.5 220h-551zM281 1241v207h151v-207h-151zM618 1241v207h150v-207h-150z" />
<glyph unicode="&#x4dc;" horiz-adv-x="1810" d="M14 0l385 655q18 33 42 56.5t38 29.5l13 9v4q-39 14 -80 90l-209 379q-25 47 -103 47h-41v176h103q86 0 123 -20.5t73 -88.5l244 -446q20 -35 48 -46t77 -11h80v612h197v-612h75q96 0 129 57l244 446q37 68 74 88.5t123 20.5h102v-176h-41q-78 0 -104 -47l-207 -379 q-18 -33 -38 -55.5t-30 -28.5l-12 -6v-4q49 -23 90 -95l387 -655h-225l-352 608q-35 59 -117 60h-98v-668h-197v668h-98q-82 0 -117 -60l-352 -608h-226zM668 1599v207h151v-207h-151zM1006 1599v207h149v-207h-149z" />
<glyph unicode="&#x4dd;" horiz-adv-x="1542" d="M33 0l248 426q23 39 52 63.5t48 30.5l18 6v4q-49 14 -82 82l-106 213q-18 41 -92 41h-53v170h122q76 0 111 -17.5t63 -78.5l134 -268q33 -61 118 -62h62v426h192v-426h60q86 0 119 62l133 268q29 61 63.5 78.5t110.5 17.5h123v-170h-54q-41 0 -60.5 -8t-31.5 -33 l-106 -213q-14 -31 -35 -51t-35 -24l-12 -7v-4q68 -14 119 -100l249 -426h-231l-205 360q-49 82 -145 82h-62v-442h-192v442h-62q-96 0 -147 -82l-203 -360h-231zM528 1241v207h152v-207h-152zM866 1241v207h150v-207h-150z" />
<glyph unicode="&#x4de;" horiz-adv-x="1083" d="M41 168l121 143q55 -59 145 -106t189 -47q127 0 213 69.5t86 188.5q0 113 -77 177t-192 64h-172v168h148q104 0 177 66.5t73 171.5q0 100 -63.5 162.5t-184.5 62.5q-94 0 -161 -40t-67 -97v-59h-188v112q0 90 72.5 153.5t166 88t193.5 24.5q209 0 323.5 -103t114.5 -273 q0 -221 -208 -328v-4q119 -33 187.5 -128t68.5 -226q0 -190 -140.5 -311.5t-365.5 -121.5q-147 0 -265 55.5t-194 137.5zM291 1599v207h151v-207h-151zM629 1599v207h149v-207h-149z" />
<glyph unicode="&#x4df;" horiz-adv-x="903" d="M47 127l94 131q121 -121 275 -121q92 0 153.5 44t61.5 128q0 156 -211 156h-131v137h104q203 0 203 158q0 76 -49 113.5t-131 37.5q-63 0 -115.5 -25.5t-52.5 -74.5v-47h-166v96q0 98 102.5 149.5t247.5 51.5q168 0 266.5 -73t98.5 -208q0 -90 -44 -149.5t-110 -83.5v-4 q82 -20 134 -84t52 -162q0 -152 -115.5 -237t-285.5 -85q-219 0 -381 152zM199 1241v207h151v-207h-151zM537 1241v207h149v-207h-149z" />
<glyph unicode="&#x4e0;" horiz-adv-x="1034" d="M49 111l84 153q59 -49 145.5 -80.5t165.5 -31.5q143 0 230.5 72.5t87.5 189.5q0 100 -53.5 156.5t-173.5 70.5q-51 8 -297 8v133l376 416l86 78l-2 4q-59 -4 -129 -4h-270q-45 0 -45 -45v-70h-174v156q0 70 30.5 99.5t100.5 29.5h709v-162l-392 -424l-57 -51v-4 q113 -2 172 -14q317 -57 318 -367q0 -205 -142.5 -324.5t-363.5 -119.5q-223 0 -406 131z" />
<glyph unicode="&#x4e1;" horiz-adv-x="966" d="M10 -299l84 154q59 -49 145.5 -81t166.5 -32q143 0 230 72.5t87 189.5q0 100 -53.5 156.5t-173.5 70.5q-51 8 -297 9v133l376 415l87 78l-3 4q-59 -4 -129 -4h-270q-45 0 -45 -45v-69h-174v155q0 70 30.5 99.5t100.5 29.5h709v-162l-392 -423l-57 -52v-4q113 -2 172 -14 q317 -57 318 -367q0 -205 -142.5 -324.5t-363.5 -119.5q-223 0 -406 131z" />
<glyph unicode="&#x4e2;" horiz-adv-x="1562" d="M70 1270v176h206q70 0 101 -31t31 -100v-793l-13 -207h4q78 131 129 209l631 922h201v-1225q0 -45 45 -45h88v-176h-205q-70 0 -101.5 30.5t-31.5 100.5v795l12 211h-4q-72 -133 -123 -211l-634 -926h-203v1225q0 45 -45 45h-88zM535 1608v139h520v-139h-520z" />
<glyph unicode="&#x4e3;" horiz-adv-x="1267" d="M47 866v170h182q70 0 100.5 -29.5t30.5 -99.5v-493q0 -102 -8 -144h4q20 41 97 144l446 622h197v-821q0 -45 43 -45h82v-170h-183q-70 0 -100.5 30.5t-30.5 100.5v492q0 80 8 145h-4q-16 -39 -96 -145l-446 -623h-197v821q0 45 -43 45h-82zM379 1249v140h520v-140h-520z " />
<glyph unicode="&#x4e4;" horiz-adv-x="1562" d="M70 1270v176h206q70 0 101 -31t31 -100v-793l-13 -207h4q78 131 129 209l631 922h201v-1225q0 -45 45 -45h88v-176h-205q-70 0 -101.5 30.5t-31.5 100.5v795l12 211h-4q-72 -133 -123 -211l-634 -926h-203v1225q0 45 -45 45h-88zM539 1599v207h151v-207h-151zM877 1599 v207h149v-207h-149z" />
<glyph unicode="&#x4e5;" horiz-adv-x="1267" d="M47 866v170h182q70 0 100.5 -29.5t30.5 -99.5v-493q0 -102 -8 -144h4q20 41 97 144l446 622h197v-821q0 -45 43 -45h82v-170h-183q-70 0 -100.5 30.5t-30.5 100.5v492q0 80 8 145h-4q-16 -39 -96 -145l-446 -623h-197v821q0 45 -43 45h-82zM397 1241v207h152v-207h-152z M735 1241v207h150v-207h-150z" />
<glyph unicode="&#x4e6;" horiz-adv-x="1624" d="M70 733q0 311 214 524t527 213t528 -213t215 -524q0 -319 -215 -538.5t-528 -219.5t-527 219.5t-214 538.5zM283 733q0 -238 153.5 -401.5t374.5 -163.5t375.5 164t154.5 401q0 231 -154.5 389t-375.5 158t-374.5 -158t-153.5 -389zM565 1599v207h152v-207h-152z M903 1599v207h150v-207h-150z" />
<glyph unicode="&#x4e7;" horiz-adv-x="1247" d="M68 520.5q0 233.5 161.5 387t395.5 153.5q236 0 397.5 -153.5t161.5 -387t-163 -389.5t-396.5 -156t-395 156t-161.5 389.5zM268 520q0 -160 104.5 -266.5t252.5 -106.5q150 0 253 105.5t103 267.5q0 160 -103.5 264.5t-252.5 104.5q-147 0 -252 -104.5t-105 -264.5z M381 1239v207h151v-207h-151zM719 1239v207h149v-207h-149z" />
<glyph unicode="&#x4e8;" horiz-adv-x="1624" d="M70 733q0 313 212 525t529 212t530 -211.5t213 -525.5q0 -322 -213 -540t-530 -218t-529 218t-212 540zM281 811h1060q-27 207 -175 342t-355 135t-355.5 -135t-174.5 -342zM283 649q27 -213 174 -351t354 -138t354.5 138t175.5 351h-1058z" />
<glyph unicode="&#x4e9;" horiz-adv-x="1247" d="M66 520q0 231 161.5 386t395.5 155q236 0 397.5 -153.5t161.5 -387t-162 -389.5t-395.5 -156t-396 156t-162.5 389zM260 461q20 -145 122.5 -235.5t242 -90.5t242 91t122.5 235h-729zM260 588h727q-20 139 -122.5 226t-240 87t-239.5 -87t-125 -226z" />
<glyph unicode="&#x4ea;" horiz-adv-x="1624" d="M70 733q0 313 212 525t529 212t530 -211.5t213 -525.5q0 -322 -213 -540t-530 -218t-529 218t-212 540zM281 811h1060q-27 207 -175 342t-355 135t-355.5 -135t-174.5 -342zM283 649q27 -213 174 -351t354 -138t354.5 138t175.5 351h-1058zM567 1599v207h152v-207h-152z M905 1599v207h150v-207h-150z" />
<glyph unicode="&#x4eb;" horiz-adv-x="1251" d="M66 520q0 231 161.5 386t395.5 155q236 0 397.5 -153.5t161.5 -387t-162 -389.5t-395.5 -156t-396 156t-162.5 389zM260 461q20 -145 122.5 -235.5t242 -90.5t242 91t122.5 235h-729zM260 588h727q-20 139 -122.5 226t-240 87t-239.5 -87t-125 -226zM387 1198v207h152 v-207h-152zM725 1198v207h149v-207h-149z" />
<glyph unicode="&#x4ec;" horiz-adv-x="1423" d="M57 199l107 143q55 -61 182 -121.5t272 -60.5q209 0 352.5 135t164.5 342h-746v168h746q-14 211 -154.5 346t-351.5 135q-129 0 -245 -48t-116 -132v-82h-188v133q0 139 167 226t378 87q324 0 525.5 -207.5t201.5 -521.5q0 -322 -207 -544t-527 -222q-180 0 -332.5 71 t-228.5 153zM414 1599v207h151v-207h-151zM752 1599v207h149v-207h-149z" />
<glyph unicode="&#x4ed;" horiz-adv-x="1085" d="M53 131l78 141q133 -135 328 -135q141 0 242.5 86t119.5 223h-487v140h489q-18 143 -117.5 228t-230.5 85q-86 0 -158.5 -29.5t-72.5 -78.5v-52h-170v86q0 98 113.5 167t291.5 69q236 0 387.5 -154.5t151.5 -386.5q0 -238 -154.5 -391.5t-396.5 -153.5q-252 0 -414 156z M270 1241v207h152v-207h-152zM608 1241v207h150v-207h-150z" />
<glyph unicode="&#x4ee;" horiz-adv-x="1273" d="M20 1270v176h125q70 0 102 -24.5t64 -94.5l293 -625l76 -178h4q25 78 61 178l228 625q27 72 59.5 95.5t110.5 23.5h110v-176h-32q-51 0 -70 -43l-393 -996q-100 -256 -320 -256q-86 0 -162.5 34t-107.5 65l94 151q74 -63 152 -63q63 0 98 39t66 123l-449 901 q-23 45 -68 45h-41zM391 1608v139h520v-139h-520z" />
<glyph unicode="&#x4ef;" horiz-adv-x="1112" d="M6 -328l84 144q0 -2 18.5 -19.5t55.5 -36t76 -18.5q119 0 182 149l49 113l-356 821q-18 41 -64 41h-26v170h116q63 0 94 -21.5t56 -82.5l233 -584l37 -125h4q16 72 35 125l217 584q20 59 53 81.5t97 22.5h118v-170h-24q-49 0 -68 -41l-407 -1011q-47 -117 -136.5 -180.5 t-199.5 -63.5q-68 0 -129.5 25.5t-87.5 52.5zM303 1249v140h520v-140h-520z" />
<glyph unicode="&#x4f0;" horiz-adv-x="1273" d="M20 1270v176h125q70 0 102 -24.5t64 -94.5l293 -625l76 -178h4q25 78 61 178l228 625q27 72 59.5 95.5t110.5 23.5h110v-176h-32q-51 0 -70 -43l-393 -996q-100 -256 -320 -256q-86 0 -162.5 34t-107.5 65l94 151q74 -63 152 -63q63 0 98 39t66 123l-449 901 q-23 45 -68 45h-41zM406 1599v207h151v-207h-151zM743 1599v207h150v-207h-150z" />
<glyph unicode="&#x4f1;" horiz-adv-x="1112" d="M6 -328l82 144q0 -2 18.5 -19.5t56.5 -36t77 -18.5q119 0 182 149l47 113l-354 821q-18 41 -64 41h-26v170h116q63 0 94 -21.5t56 -82.5l233 -584l37 -125h4q16 72 35 125l217 584q20 61 53 82.5t97 21.5h118v-170h-26q-47 0 -66 -41l-407 -1011q-49 -119 -137.5 -181.5 t-198.5 -62.5q-68 0 -129.5 25.5t-87.5 52.5zM313 1241v207h152v-207h-152zM651 1241v207h150v-207h-150z" />
<glyph unicode="&#x4f2;" horiz-adv-x="1273" d="M20 1270v176h125q70 0 102 -24.5t64 -94.5l293 -625l76 -178h4q25 78 61 178l228 625q27 72 59.5 95.5t110.5 23.5h110v-176h-32q-51 0 -70 -43l-393 -996q-100 -256 -320 -256q-86 0 -162.5 34t-107.5 65l94 151q74 -63 152 -63q63 0 98 39t66 123l-449 901 q-23 45 -68 45h-41zM397 1546l142 260h172l-144 -260h-170zM711 1546l147 260h203l-197 -260h-153z" />
<glyph unicode="&#x4f3;" horiz-adv-x="1112" d="M6 -328l82 144q0 -2 18.5 -19.5t56.5 -36t77 -18.5q119 0 182 149l47 113l-354 821q-18 41 -64 41h-26v170h116q63 0 94 -21.5t56 -82.5l233 -584l37 -125h4q16 72 35 125l217 584q20 61 53 82.5t97 21.5h118v-170h-26q-47 0 -66 -41l-407 -1011q-49 -119 -137.5 -181.5 t-198.5 -62.5q-68 0 -129.5 25.5t-87.5 52.5zM309 1188l142 260h172l-144 -260h-170zM623 1188l147 260h203l-197 -260h-153z" />
<glyph unicode="&#x4f4;" horiz-adv-x="1333" d="M29 1270v176h207q70 0 100.5 -31t30.5 -100v-295q0 -141 67.5 -211t218.5 -70q176 0 308 99v608h204v-1446h-204v586l4 67h-4q-181 -100 -355 -100q-223 0 -333.5 109.5t-110.5 312.5v250q0 45 -45 45h-88zM387 1599v207h152v-207h-152zM725 1599v207h149v-207h-149z" />
<glyph unicode="&#x4f5;" horiz-adv-x="1107" d="M35 866v170h186q72 0 100.5 -33.5t28.5 -97.5v-178q0 -90 42 -142.5t155 -52.5q123 0 231 74v430h199v-1036h-199v375l2 65h-2q-121 -80 -291 -80q-162 0 -246.5 80t-84.5 232v149q0 45 -47 45h-74zM305 1241v207h152v-207h-152zM643 1241v207h150v-207h-150z" />
<glyph unicode="&#x4f6;" horiz-adv-x="1058" d="M68 1270v176h827q70 0 100.5 -31t30.5 -100v-182h-186v92q0 45 -45 45h-389v-1094h71q70 0 99.5 -29.5t29.5 -99.5v-334h-184v242q0 45 -41 45h-180v1270h-133z" />
<glyph unicode="&#x4f7;" horiz-adv-x="903" d="M45 866v170h686q72 0 102.5 -28.5t30.5 -98.5v-157h-166v69q0 45 -45 45h-280v-700h49q68 0 96.5 -31t28.5 -98v-283h-185v201q0 45 -36 45h-152v866h-129z" />
<glyph unicode="&#x4f8;" horiz-adv-x="1751" d="M68 1270v176h206q70 0 101 -31t31 -100v-414h276q201 0 331 -112.5t130 -327.5q0 -225 -137.5 -343t-356.5 -118h-315q-70 0 -101.5 30.5t-31.5 100.5v1094q0 45 -45 45h-88zM406 221q0 -45 45 -45h211q125 0 197.5 74t72.5 205q0 129 -73 199.5t-197 70.5h-256v-504z M637 1599v207h151v-207h-151zM975 1599v207h149v-207h-149zM1343 131v1315h205v-1225q0 -45 45 -45h88v-176h-206q-70 0 -101 30.5t-31 100.5z" />
<glyph unicode="&#x4f9;" horiz-adv-x="1482" d="M43 866v170h197q131 0 131 -118v-261h204q176 0 274.5 -89t98.5 -240q0 -150 -103.5 -239t-269.5 -89h-290q-59 0 -86 27t-27 86v708q0 45 -45 45h-84zM371 184q0 -41 39 -41h141q92 0 144.5 51.5t52.5 135.5q0 86 -51.5 135t-145.5 49h-180v-330zM494 1241v207h151v-207 h-151zM831 1241v207h150v-207h-150zM1110 131v905h199v-821q0 -45 45 -45h82v-170h-195q-70 0 -100.5 30.5t-30.5 100.5z" />
<glyph unicode="&#x2000;" horiz-adv-x="913" />
<glyph unicode="&#x2001;" horiz-adv-x="1827" />
<glyph unicode="&#x2002;" horiz-adv-x="913" />
<glyph unicode="&#x2003;" horiz-adv-x="1827" />
<glyph unicode="&#x2004;" horiz-adv-x="609" />
<glyph unicode="&#x2005;" horiz-adv-x="456" />
<glyph unicode="&#x2006;" horiz-adv-x="304" />
<glyph unicode="&#x2007;" horiz-adv-x="304" />
<glyph unicode="&#x2008;" horiz-adv-x="228" />
<glyph unicode="&#x2009;" horiz-adv-x="365" />
<glyph unicode="&#x200a;" horiz-adv-x="101" />
<glyph unicode="&#x2010;" horiz-adv-x="839" d="M121 496v176h598v-176h-598z" />
<glyph unicode="&#x2011;" horiz-adv-x="839" d="M121 496v176h598v-176h-598z" />
<glyph unicode="&#x2012;" horiz-adv-x="839" d="M121 496v176h598v-176h-598z" />
<glyph unicode="&#x2013;" horiz-adv-x="1325" d="M123 504v160h1079v-160h-1079z" />
<glyph unicode="&#x2014;" horiz-adv-x="1734" d="M123 504v160h1489v-160h-1489z" />
<glyph unicode="&#x2018;" horiz-adv-x="454" d="M98 1069l135 399h142l-88 -399h-189z" />
<glyph unicode="&#x2019;" horiz-adv-x="444" d="M109 1071l88 399h188l-133 -399h-143z" />
<glyph unicode="&#x201a;" horiz-adv-x="487" d="M80 -184l88 399h188l-133 -399h-143z" />
<glyph unicode="&#x201c;" horiz-adv-x="737" d="M98 1069l135 399h142l-88 -399h-189zM383 1069l133 399h143l-88 -399h-188z" />
<glyph unicode="&#x201d;" horiz-adv-x="727" d="M109 1071l88 399h188l-133 -399h-143zM393 1071l88 399h187l-133 -399h-142z" />
<glyph unicode="&#x201e;" horiz-adv-x="772" d="M80 -184l88 399h188l-133 -399h-143zM365 -184l88 399h186l-133 -399h-141z" />
<glyph unicode="&#x2026;" horiz-adv-x="1507" d="M121 0v211h203v-211h-203zM651 0v211h205v-211h-205zM1184 0v211h202v-211h-202z" />
<glyph unicode="&#x202f;" horiz-adv-x="365" />
<glyph unicode="&#x2039;" horiz-adv-x="712" d="M84 578l336 421h198l-335 -421l335 -420h-198z" />
<glyph unicode="&#x203a;" horiz-adv-x="712" d="M92 158l336 420l-336 421h199l336 -421l-336 -420h-199z" />
<glyph unicode="&#x205f;" horiz-adv-x="456" />
<glyph unicode="&#x20ac;" d="M51 528v129h123q-4 37 -4 68l4 80h-123v131h146q63 238 253.5 386t440.5 148q49 0 97 -6t73 -12l24 -6l-47 -186q-72 23 -151 22q-170 0 -297 -94t-178 -252h567l-27 -131h-569q-6 -35 -6 -76l6 -72h543l-27 -129h-481q47 -164 176 -262t299 -98q47 0 95 7t73 13l22 9 l41 -187q-100 -35 -233 -35q-260 0 -448.5 153t-247.5 400h-144z" />
<glyph unicode="&#x2122;" horiz-adv-x="2052" d="M119 1229v125q0 53 19.5 72.5t76.5 19.5h586q55 0 75.5 -19.5t20.5 -72.5v-125h-135v61q0 18 -19 19h-157v-764h-156v764h-156q-18 0 -18 -19v-61h-137zM905 545v137h47q20 0 23 18l57 746h144l213 -471l28 -86h4q10 49 27 86l213 471h143l60 -746q0 -18 20 -18h49v-137 h-121q-55 0 -76.5 18.5t-23.5 73.5l-35 446l2 62h-4l-194 -434h-125l-195 434h-4l2 -62l-35 -446q-2 -55 -23.5 -73.5t-76.5 -18.5h-119z" />
<glyph unicode="&#x25fc;" horiz-adv-x="1034" d="M0 0v1034h1034v-1034h-1034z" />
</font>
</defs>
</svg>
