<svg width="325" height="36" viewBox="0 0 325 36" fill="none" xmlns="http://www.w3.org/2000/svg">
<path d="M64.0786 6.58063V35.5727H56.9587V0.415039H79.9364V6.58063H64.0786Z" fill="white"/>
<path d="M106.489 35.5711V32.3888C103.561 35.2957 101.249 35.9229 97.0577 35.9229C89.1673 35.9229 84.7598 32.1134 84.7598 25.3206C84.7598 18.9408 89.3676 15.1313 96.919 15.1313H106.412V12.561C106.412 7.98653 104.039 6.04352 98.4447 6.04352C96.4258 6.04352 94.9464 6.31891 93.6981 6.94618C92.6502 7.43575 91.8796 8.12422 90.8317 9.43996L86.1467 5.07967C88.1039 2.99898 89.0132 2.17282 90.7546 1.40786C92.7734 0.444003 95.3008 0.015625 98.645 0.015625C108.493 0.015625 113.455 4.10052 113.455 12.0714V35.5711H106.489V35.5711ZM106.428 20.1035H98.044C93.8522 20.1035 91.6947 21.7711 91.6947 25.0911C91.6947 28.4875 93.8522 30.0786 98.6758 30.0786C104.193 30.0786 106.428 27.9979 106.428 22.8727V20.1035Z" fill="white"/>
<path d="M133.273 35.9838C127.679 35.9838 122.594 34.7293 118.402 30.9198L122.655 26.4065C125.445 28.9768 128.45 29.9406 132.302 29.9406C135.939 29.9406 139.777 28.2118 139.777 24.9531C139.777 21.6943 137.326 20.2409 133.628 20.2409H128.326V14.9015H133.566C136.987 14.9015 139.222 13.1726 139.222 10.1893C139.222 7.20594 136.494 5.75251 132.302 5.75251C129.236 5.75251 126.369 6.65517 123.78 8.46048L119.804 3.9472C123.719 0.963851 128.388 0 133.489 0C140.332 0 146.203 3.33523 146.203 9.50083C146.203 12.8973 144.246 15.8806 141.04 17.1963C144.462 18.4509 146.773 21.4954 146.773 25.3814C146.758 31.8224 140.47 35.9838 133.273 35.9838Z" fill="white"/>
<path d="M159.21 20.1032C159.349 25.9934 161.861 29.9559 168.503 29.9559C172.063 29.9559 174.298 28.7014 176.81 26.2841L181.279 30.522C177.303 34.408 173.881 35.9991 168.226 35.9991C157.608 35.9991 152.167 29.757 152.167 17.8236C152.167 6.79287 157.9 0 167.178 0C176.332 0 182.126 6.59398 182.126 16.921V20.1032H159.21V20.1032ZM167.178 5.89021C161.445 5.89021 159.349 10.2505 159.21 15.1157H175.13C174.791 10.327 172.972 5.89021 167.178 5.89021Z" fill="white"/>
<path d="M204.918 6.58063V35.5727H197.798V6.58063H186.548V0.415039H215.752V6.58063H204.918Z" fill="white"/>
<path d="M241.426 35.5711V32.3888C238.498 35.2957 236.186 35.9229 231.995 35.9229C224.104 35.9229 219.697 32.1134 219.697 25.3206C219.697 18.9408 224.305 15.1313 231.856 15.1313H241.349V12.561C241.349 7.98653 238.976 6.04352 233.382 6.04352C231.363 6.04352 229.883 6.31891 228.635 6.94618C227.587 7.43575 226.817 8.12422 225.769 9.43996L221.084 5.07967C223.041 2.99898 223.95 2.17282 225.692 1.40786C227.71 0.444003 230.238 0.015625 233.582 0.015625C243.43 0.015625 248.392 4.10052 248.392 12.0714V35.5711H241.426V35.5711ZM241.349 20.1035H232.966C228.774 20.1035 226.616 21.7711 226.616 25.0911C226.616 28.4875 228.774 30.0786 233.597 30.0786C239.115 30.0786 241.349 27.9979 241.349 22.8727V20.1035Z" fill="white"/>
<path d="M261.415 30.4302H256.252V35.5554H261.415V30.4302Z" fill="white"/>
<path d="M289.201 35.5719V31.7624C286.75 34.5315 283.329 36.0003 279.492 36.0003C275.793 36.0003 272.711 34.8834 270.615 32.8027C268.165 30.4466 267.117 27.1879 267.117 23.2254V1.45459H272.141V22.4604C272.141 28.4883 275.346 31.5482 280.524 31.5482C285.687 31.5482 289.123 28.4271 289.123 22.4604V1.45459H294.147V35.5719H289.201Z" fill="white"/>
<path d="M299.773 35.5719V31.2728L318.914 5.89137H300.821V1.45459H324.708V5.67718L305.506 31.1351H324.708V35.5719H299.773Z" fill="white"/>
<path d="M40.7784 22.6743H0.278564V35.6175H40.7784V22.6743Z" fill="url(#paint0_linear)"/>
<path d="M40.7784 0.335938H0.278564V13.2791H40.7784V0.335938Z" fill="url(#paint1_linear)"/>
<defs>
<linearGradient id="paint0_linear" x1="-0.113915" y1="29.1455" x2="40.6537" y2="29.1455" gradientUnits="userSpaceOnUse">
<stop offset="0.2" stop-color="white" stop-opacity="0"/>
<stop offset="1" stop-color="white"/>
</linearGradient>
<linearGradient id="paint1_linear" x1="-0.113915" y1="6.80716" x2="40.6537" y2="6.80716" gradientUnits="userSpaceOnUse">
<stop stop-color="white" stop-opacity="0"/>
<stop offset="0.8402" stop-color="white"/>
</linearGradient>
</defs>
</svg>
