<?xml version="1.0" encoding="UTF-8"?>
<!DOCTYPE svg PUBLIC "-//W3C//DTD SVG 1.1//EN" "http://www.w3.org/Graphics/SVG/1.1/DTD/svg11.dtd">
<!-- Creator: CorelDRAW 2020 (64-Bit) -->
<svg xmlns="http://www.w3.org/2000/svg" xml:space="preserve" width="123.535mm" height="50.1789mm" version="1.1" style="shape-rendering:geometricPrecision; text-rendering:geometricPrecision; image-rendering:optimizeQuality; fill-rule:evenodd; clip-rule:evenodd"
viewBox="0 0 6705.92 2723.88"
 xmlns:xlink="http://www.w3.org/1999/xlink"
 xmlns:xodm="http://www.corel.com/coreldraw/odm/2003">
 <defs>
  <style type="text/css">
   <![CDATA[
    .fil2 {fill:#FEFEFE}
    .fil3 {fill:#72C16D}
    .fil1 {fill:#40B766}
    .fil0 {fill:#10614A}
   ]]>
  </style>
 </defs>
 <g id="Слой_x0020_1">
  <metadata id="CorelCorpID_0Corel-Layer"/>
  <rect class="fil0" x="-0" y="-0" width="6705.92" height="2723.88"/>
  <g id="_2455009698240">
   <path class="fil1" d="M967.7 1889.42l111.29 0 0 -247.46c0,-373.5 305.56,-679.07 679.07,-679.07l136.17 0 0 154.64 -136.17 0c-288.15,0 -524.44,236.28 -524.44,524.43l0 247.46 111.6 0c9.88,-365.5 311.87,-660.61 678.76,-660.61l147.23 0 0 136.17c0,373.51 -305.58,679.08 -679.09,679.08l-679.07 0 0 -679.08c0,-373.51 305.56,-679.07 679.06,-679.07l136.18 0 0 154.63 -136.18 0c-288.14,0 -524.44,236.29 -524.44,524.44l0 524.44 0.02 0zm532.22 -0.05c278.02,-4.11 506.51,-228.36 516.28,-505.86 -278.03,4.11 -506.5,228.35 -516.28,505.86z"/>
   <path class="fil1" d="M2635.21 1058.7l0 716.98 -219.53 0 0 -716.98 219.53 0zm763.28 0l0 716.98 -210.46 0 -178.23 -305.12c-16.78,-28.87 -34.92,-64.79 -54.37,-107.76 4.7,42.98 7.05,97.68 7.05,164.15l1 248.73 -212.48 0 0 -716.98 217.5 0 155.08 268.88c31.55,53.7 55.05,98.67 70.5,134.93 -4.02,-54.38 -6.05,-109.43 -6.05,-165.15l-1.02 -238.66 211.48 0 0.01 0zm120.84 0l320.21 0c110.78,0 198.72,31.72 263.83,95.16 65.13,63.44 97.68,150.54 97.68,261.31 0,118.15 -31.38,207.78 -94.16,268.87 -62.77,61.09 -153.23,91.64 -271.39,91.64l-316.18 0 0 -716.97 0.01 -0.01zm215.51 180.25l0 355.47 86.6 0c53.03,0 93.15,-15.45 120.32,-46.33 27.2,-30.88 40.79,-73.85 40.79,-128.89 0,-59.75 -15.95,-104.73 -47.83,-134.94 -31.89,-30.21 -76.71,-45.32 -134.44,-45.32l-65.45 0 0 -0.01z"/>
   <path class="fil2" d="M2620.11 684.85l0 61.45 -67.16 0 0 177.66 -73.22 0 0 -177.66 -66.83 0 0 -61.45 207.22 0zm141.39 0l87.99 239.11 -74.24 0 -11.75 -33.91 -76.9 0 -11.76 33.91 -74.23 0 88.33 -239.11 72.55 0zm-14.11 153.82l-12.75 -40.98c-2.93,-9.62 -5.94,-21.71 -9.08,-36.27 -3.58,14.33 -6.94,26.52 -10.07,36.61 -3.37,10.97 -7.72,24.51 -13.09,40.64l45 0zm306.28 -81.28l-68.84 0c-0.23,-7.16 -3.04,-12.76 -8.4,-16.8 -5.38,-4.03 -12.76,-6.04 -22.17,-6.04 -16.12,0 -24.18,4.93 -24.18,14.77 0,2.69 1.33,5.27 4.02,7.74 2.7,2.46 6.44,4.53 11.26,6.2 4.82,1.68 9.23,3.08 13.27,4.2 4.02,1.12 8.56,2.19 13.59,3.19 5.03,1 8.01,1.62 8.91,1.85 9.4,2.46 17.46,4.81 24.17,7.05 6.73,2.24 14,5.44 21.84,9.58 7.84,4.15 14.16,8.73 18.97,13.77 4.81,5.04 8.91,11.43 12.26,19.15 3.35,7.72 5.04,16.4 5.04,26.03 0,24.85 -9.4,44.61 -28.22,59.27 -18.8,14.67 -44.21,22 -76.24,22 -33.36,0 -59.66,-7.66 -78.92,-22.99 -19.27,-15.34 -29.11,-36.33 -29.57,-62.98l73.56 0c1.12,20.61 13.53,30.9 37.27,30.9 9.19,0 16.45,-1.79 21.83,-5.37 5.38,-3.58 8.06,-8.4 8.06,-14.44 0,-3.8 -1.57,-7.05 -4.7,-9.73 -2.92,-2.46 -8.52,-5.15 -16.8,-8.06 -8.27,-2.92 -18.08,-5.99 -29.38,-9.24 -11.31,-3.24 -18.41,-5.43 -21.32,-6.54 -9.62,-3.36 -17.58,-6.61 -23.86,-9.74 -6.25,-3.13 -12.31,-7.21 -18.12,-12.26 -5.82,-5.04 -10.14,-11.2 -12.94,-18.48 -2.8,-7.27 -4.2,-15.83 -4.2,-25.69 0,-22.39 8.91,-40.47 26.72,-54.23 17.79,-13.78 41.12,-20.65 70.01,-20.65 30.45,0 54.13,6.77 71.04,20.32 16.91,13.55 25.57,32.64 26.02,57.27l0 -0.02zm252.22 -72.53l0 239.11 -73.21 0 0 -94.37 -69.18 0 0 94.37 -73.56 0 0 -239.11 73.56 0 0 80.27 69.18 0 0 -80.27 73.21 0zm270.36 0l-86.64 93.02 100.42 146.09 -91.7 0 -58.44 -93.03 -21.49 22.5 0 70.52 -72.22 0 0 -239.11 72.56 0 -0.34 48.36c0,3.58 -0.34,15.79 -1.02,36.61l68.19 -84.96 90.67 0 -0.01 0zm228.38 0l0 58.1 -125.94 0 0 29.89 114.18 0 0 55.42 -114.18 0 0 34.92 129.31 0 0 60.79 -201.51 0 0 -239.11 198.15 0zm253.91 0l0 239.11 -70.2 0 -59.44 -101.76c-5.6,-9.64 -11.64,-21.61 -18.13,-35.94 1.56,14.33 2.35,32.58 2.35,54.75l0.34 82.94 -70.87 0 0 -239.11 72.55 0 51.73 89.66c10.52,17.91 18.35,32.91 23.5,45.02 -1.34,-18.15 -2.02,-36.51 -2.02,-55.08l-0.33 -79.59 70.54 0 -0.02 -0.01zm235.09 0l0 61.45 -67.17 0 0 177.66 -73.22 0 0 -177.66 -66.82 0 0 -61.45 207.21 0z"/>
   <polygon class="fil3" points="4887.82,1058.99 4887.82,1233.19 4510.21,1233.19 4510.21,1322.82 4852.58,1322.82 4852.58,1488.97 4510.21,1488.97 4510.21,1593.7 4897.9,1593.7 4897.9,1775.96 4293.71,1775.96 4293.71,1058.99 "/>
   <polygon class="fil3" points="5695.87,1059.56 5437.72,1059.56 5335.5,1212.62 5231.65,1059.7 4973.5,1059.7 5207.5,1404.27 4959.07,1776.1 5217.21,1776.1 5337.65,1595.92 5634.72,2031.9 5892.87,2031.9 5465.64,1404.27 "/>
   <path class="fil2" d="M2435.75 1914.28l0 119.68 -21.19 0 0 -119.68 21.19 0zm148.51 0l0 119.68 -21.69 0 -55.8 -88.08 0 88.08 -19.84 0 0 -119.68 22.02 0 55.14 88.25 0 -88.25 20.17 0 -0.01 0zm50.52 0l45.56 0c8.28,0 15.57,0.86 21.84,2.61 6.27,1.73 12.05,4.95 17.31,9.67 11.76,10.54 17.65,25.72 17.65,45.55 0,21.18 -5.61,37.37 -16.82,48.58 -4.93,4.93 -10.28,8.38 -16.05,10.34 -5.76,1.95 -13.36,2.94 -22.77,2.94l-46.73 0 0 -119.68zm20.83 17.82l0 84.22 24.73 0c13.1,0 22.35,-3.81 27.72,-11.43 5.4,-7.63 8.08,-18.22 8.08,-31.77 0,-12.9 -3.04,-22.95 -9.09,-30.17 -6.04,-7.24 -15.4,-10.85 -28.07,-10.85l-23.37 0zm223.82 -17.82l0 73.28c0,32.5 -16.24,48.75 -48.74,48.75 -16.91,0 -29.39,-4.03 -37.39,-12.11 -8.02,-8.07 -12.02,-20.4 -12.02,-36.98l0 -72.96 21.02 0 0 77.15c0,18.39 9.58,27.58 28.74,27.58 5.82,0 10.62,-0.79 14.36,-2.35 3.76,-1.56 6.54,-3.98 8.32,-7.24 1.8,-3.25 3.02,-6.74 3.7,-10.49 0.68,-3.76 1.02,-8.45 1.02,-14.04l0 -70.6 21 0 -0.01 0zm136.42 35.3l-20 0c-1.25,-14.01 -9.92,-21.01 -26.06,-21.01 -7.18,0 -12.78,1.48 -16.81,4.45 -4.03,2.96 -6.05,7.02 -6.05,12.18 0,4.83 1.49,8.14 4.46,9.92 2.96,1.79 9.55,3.98 19.74,6.56 2.69,0.79 4.78,1.34 6.22,1.67 13.33,3.37 22.41,6.39 27.23,9.08 10.65,5.71 15.96,14.63 15.96,26.72 0,5.27 -0.88,10.04 -2.69,14.29 -1.79,4.26 -4.2,7.82 -7.23,10.68 -3.03,2.85 -6.61,5.23 -10.76,7.14 -4.14,1.9 -8.46,3.27 -12.92,4.11 -4.5,0.85 -9.14,1.26 -13.96,1.26 -15.02,0 -27.17,-3.59 -36.46,-10.75 -9.33,-7.18 -13.96,-17.71 -13.96,-31.61l20.68 0c0,8.76 2.86,15.22 8.57,19.42 5.72,4.21 13.16,6.31 22.36,6.31 8.06,0 14.37,-1.66 18.91,-4.96 4.53,-3.31 6.79,-7.93 6.79,-13.87 0,-3.82 -1.2,-6.92 -3.61,-9.33 -2.4,-2.41 -5,-4.11 -7.82,-5.13 -2.79,-1.01 -7.66,-2.4 -14.62,-4.19 -0.78,-0.24 -1.4,-0.4 -1.83,-0.51 -14.92,-3.81 -24.72,-6.95 -29.43,-9.42 -9.73,-5.03 -14.96,-12.83 -15.63,-23.36 0,-0.78 0,-1.57 0,-2.35 0,-10.64 4.02,-19.13 12.02,-25.46 8.02,-6.33 18.74,-9.49 32.18,-9.49 13.01,0 23.59,3.08 31.78,9.24 8.17,6.16 12.48,15.63 12.92,28.41l0.01 0zm134.91 -35.3l0 18.15 -38.16 0 0 101.54 -21.02 0 0 -101.54 -38.16 0 0 -18.15 97.34 0zm39.74 0l56.66 0c11.87,0 21.58,2.65 29.09,7.99 7.51,5.32 11.25,13.76 11.25,25.3 0,7.18 -1.74,13.31 -5.21,18.41 -3.47,5.1 -8.34,8.76 -14.62,11 2.92,0.67 5.43,1.68 7.56,3.03 2.14,1.35 3.79,2.8 4.96,4.38 1.18,1.55 2.16,3.58 2.95,6.05 0.77,2.46 1.31,4.62 1.6,6.47 0.27,1.86 0.52,4.29 0.74,7.31 0.11,0.79 0.25,2.29 0.42,4.55 0.18,2.23 0.29,3.71 0.34,4.45 0.05,0.72 0.17,1.98 0.34,3.78 0.16,1.79 0.3,3.06 0.42,3.79 0.1,0.73 0.3,1.79 0.59,3.19 0.27,1.41 0.52,2.46 0.74,3.19 0.24,0.74 0.53,1.57 0.86,2.53 0.34,0.95 0.73,1.76 1.18,2.44 0.43,0.65 0.94,1.28 1.51,1.84l-22.52 0c-0.36,-0.45 -0.65,-0.99 -0.93,-1.6 -0.29,-0.62 -0.52,-1.3 -0.76,-2.02 -0.22,-0.74 -0.38,-1.41 -0.5,-2.02 -0.09,-0.63 -0.24,-1.45 -0.41,-2.52 -0.17,-1.06 -0.28,-1.93 -0.34,-2.59 -0.06,-0.68 -0.14,-1.69 -0.25,-3.03 -0.11,-1.35 -0.21,-2.36 -0.26,-3.02 -0.06,-0.67 -0.14,-1.85 -0.26,-3.53 -0.11,-1.68 -0.16,-2.86 -0.16,-3.54 -0.55,-9.74 -2.61,-16.44 -6.13,-20.08 -3.52,-3.63 -10.22,-5.46 -20.08,-5.46l-27.92 0 0 49.42 -20.84 0 0 -119.68 0 0.01zm20.84 17.14l0 37.49 27.74 0c4.03,0 7.44,-0.23 10.24,-0.68 2.8,-0.44 5.63,-1.26 8.5,-2.43 2.86,-1.18 5.04,-3.11 6.56,-5.8 1.51,-2.69 2.26,-6.11 2.26,-10.25 0,-3.82 -0.66,-6.98 -2.01,-9.49 -1.36,-2.52 -3.29,-4.39 -5.8,-5.63 -2.51,-1.25 -5.1,-2.07 -7.73,-2.52 -2.65,-0.45 -5.74,-0.67 -9.33,-0.67l-30.43 0 0 -0.01zm145.15 -17.14l0 119.68 -21.17 0 0 -119.68 21.17 0zm106.17 -0.17l46.22 119.86 -22.53 0 -11.43 -31.78 -47.4 0 -11.76 31.78 -21.68 0 46.21 -119.86 22.37 0zm6.71 72.29l-17.82 -50.43 -18.65 50.43 36.47 0zm158.78 29.42l0 18.15 -82.03 0 0 -119.68 21.17 0 0 101.53 60.86 0zm173.56 -101.53l0 17.65 -65.39 0 0 31.77 60.67 0 0 16.97 -60.67 0 0 35.31 66.4 0 0 17.99 -87.26 0 0 -119.68 86.25 0zm32.36 119.68l42.7 -62.03 -39.68 -57.65 25.06 0 27.22 42.35 28.41 -42.35 23.53 0 -39.68 57.65 42.53 62.03 -25.56 0 -29.93 -45.72 -30.41 45.72 -24.21 0 0.02 0zm149.02 -119.68l51.93 0c12.9,0 23.06,3.05 30.51,9.16 7.46,6.11 11.19,15.21 11.19,27.31 0,11.44 -3.47,20.48 -10.43,27.16 -6.93,6.66 -16.42,9.99 -28.41,9.99l-33.78 0 0 46.06 -21.02 0 0 -119.68 0.01 0zm21.01 17.49l0 39.16 29.24 0c15.24,0 22.85,-6.55 22.85,-19.67 0,-13.01 -8.23,-19.49 -24.71,-19.49l-27.39 0 0.01 0zm168.52 -20.34c16.92,0 30.67,5.8 41.26,17.39 10.59,11.59 15.88,26.7 15.88,45.31 0,18.6 -5.33,33.69 -15.96,45.29 -10.64,11.61 -24.48,17.4 -41.52,17.4 -17.14,0 -31.01,-5.77 -41.61,-17.32 -10.59,-11.54 -15.87,-26.66 -15.87,-45.39 0,-18.15 5.17,-33.14 15.55,-44.96 10.37,-11.82 24.47,-17.73 42.28,-17.73l0 0.01zm-0.34 17.64c-10.99,0 -19.78,4.06 -26.39,12.19 -6.62,8.12 -9.93,18.96 -9.93,32.53 0,13.89 3.3,24.93 9.84,33.1 6.56,8.19 15.5,12.28 26.81,12.28 10.87,0 19.58,-4.12 26.15,-12.36 6.55,-8.24 9.83,-19.18 9.83,-32.87 0,-13.66 -3.27,-24.57 -9.83,-32.69 -6.56,-8.13 -15.38,-12.18 -26.47,-12.18zm102.47 -14.79l56.64 0c11.88,0 21.58,2.65 29.09,7.99 7.5,5.32 11.26,13.76 11.26,25.3 0,7.18 -1.74,13.31 -5.21,18.41 -3.48,5.1 -8.34,8.76 -14.63,11 2.92,0.67 5.43,1.68 7.56,3.03 2.14,1.35 3.79,2.8 4.96,4.38 1.18,1.55 2.16,3.58 2.95,6.05 0.77,2.46 1.31,4.62 1.6,6.47 0.28,1.86 0.53,4.29 0.75,7.31 0.12,0.79 0.25,2.29 0.41,4.55 0.17,2.23 0.29,3.71 0.35,4.45 0.05,0.72 0.16,1.98 0.34,3.78 0.16,1.79 0.3,3.06 0.41,3.79 0.13,0.73 0.31,1.79 0.6,3.19 0.27,1.41 0.53,2.46 0.74,3.19 0.24,0.74 0.51,1.57 0.85,2.53 0.34,0.95 0.74,1.76 1.18,2.44 0.44,0.65 0.96,1.28 1.52,1.84l-22.53 0c-0.33,-0.45 -0.65,-0.99 -0.92,-1.6 -0.28,-0.62 -0.54,-1.3 -0.76,-2.02 -0.23,-0.74 -0.4,-1.41 -0.5,-2.02 -0.11,-0.63 -0.25,-1.45 -0.42,-2.52 -0.16,-1.06 -0.28,-1.93 -0.34,-2.59 -0.05,-0.68 -0.14,-1.69 -0.25,-3.03 -0.11,-1.35 -0.2,-2.36 -0.26,-3.02 -0.05,-0.67 -0.15,-1.85 -0.26,-3.53 -0.1,-1.68 -0.16,-2.86 -0.16,-3.54 -0.57,-9.74 -2.61,-16.44 -6.14,-20.08 -3.53,-3.63 -10.22,-5.46 -20.08,-5.46l-27.91 0 0 49.42 -20.83 0 0 -119.68 -0.01 0.01zm20.83 17.14l0 37.49 27.74 0c4.04,0 7.45,-0.23 10.25,-0.68 2.81,-0.44 5.62,-1.26 8.49,-2.43 2.86,-1.18 5.04,-3.11 6.56,-5.8 1.52,-2.69 2.27,-6.11 2.27,-10.25 0,-3.82 -0.67,-6.98 -2.02,-9.49 -1.35,-2.52 -3.28,-4.39 -5.81,-5.63 -2.51,-1.25 -5.08,-2.07 -7.72,-2.52 -2.64,-0.45 -5.74,-0.67 -9.33,-0.67l-30.43 0 0 -0.01zm206.67 -17.14l0 18.15 -38.14 0 0 101.54 -21.03 0 0 -101.54 -38.13 0 0 -18.15 97.31 0zm189.2 74.12c-1.12,14.69 -6.35,26.43 -15.7,35.22 -9.36,8.79 -21.5,13.19 -36.4,13.19 -16.93,0 -30.49,-5.72 -40.69,-17.14 -10.2,-11.43 -15.3,-26.61 -15.3,-45.54 0,-11.44 2.19,-21.83 6.56,-31.18 4.36,-9.36 10.93,-16.93 19.66,-22.69 8.75,-5.78 19,-8.67 30.76,-8.67 12.66,0 23.71,3.51 33.12,10.51 9.42,7 15.07,17.11 16.97,30.34l-20.84 0c-1.45,-7.18 -4.81,-12.8 -10.09,-16.9 -5.27,-4.09 -11.76,-6.13 -19.49,-6.13 -7.96,0 -14.71,2.24 -20.25,6.72 -5.55,4.48 -9.48,10.01 -11.77,16.56 -2.3,6.57 -3.45,13.71 -3.45,21.44 0,5.83 0.68,11.32 2.02,16.48 1.35,5.15 3.37,9.88 6.04,14.19 2.69,4.33 6.37,7.78 11.01,10.34 4.65,2.58 10.05,3.88 16.21,3.88 17.82,0 28.02,-10.21 30.59,-30.61l21.02 0zm131.03 -74.12l0 17.65 -65.38 0 0 31.77 60.69 0 0 16.97 -60.69 0 0 35.31 66.39 0 0 17.99 -87.24 0 0 -119.68 86.23 0zm142.96 0l0 119.68 -21.68 0 -55.8 -88.08 0 88.08 -19.84 0 0 -119.68 22.02 0 55.14 88.25 0 -88.25 20.17 0 -0.01 0zm136.42 0l0 18.15 -38.16 0 0 101.54 -21 0 0 -101.54 -38.16 0 0 -18.15 97.31 0zm125.99 0l0 17.65 -65.39 0 0 31.77 60.68 0 0 16.97 -60.68 0 0 35.31 66.39 0 0 17.99 -87.24 0 0 -119.68 86.25 0zm45.82 0l56.63 0c11.89,0 21.58,2.65 29.09,7.99 7.51,5.32 11.26,13.76 11.26,25.3 0,7.18 -1.74,13.31 -5.21,18.41 -3.47,5.1 -8.34,8.76 -14.63,11 2.92,0.67 5.44,1.68 7.56,3.03 2.14,1.35 3.79,2.8 4.95,4.38 1.18,1.55 2.17,3.58 2.95,6.05 0.77,2.46 1.32,4.62 1.61,6.47 0.27,1.86 0.52,4.29 0.74,7.31 0.11,0.79 0.25,2.29 0.42,4.55 0.17,2.23 0.28,3.71 0.34,4.45 0.05,0.72 0.17,1.98 0.34,3.78 0.17,1.79 0.31,3.06 0.42,3.79 0.11,0.73 0.3,1.79 0.6,3.19 0.27,1.41 0.52,2.46 0.74,3.19 0.24,0.74 0.51,1.57 0.85,2.53 0.34,0.95 0.73,1.76 1.18,2.44 0.44,0.65 0.95,1.28 1.51,1.84l-22.52 0c-0.34,-0.45 -0.66,-0.99 -0.93,-1.6 -0.27,-0.62 -0.53,-1.3 -0.75,-2.02 -0.23,-0.74 -0.39,-1.41 -0.49,-2.02 -0.12,-0.63 -0.26,-1.45 -0.43,-2.52 -0.16,-1.06 -0.29,-1.93 -0.34,-2.59 -0.06,-0.68 -0.14,-1.69 -0.25,-3.03 -0.11,-1.35 -0.21,-2.36 -0.25,-3.02 -0.07,-0.67 -0.15,-1.85 -0.26,-3.53 -0.11,-1.68 -0.17,-2.86 -0.17,-3.54 -0.54,-9.74 -2.59,-16.44 -6.13,-20.08 -3.53,-3.63 -10.22,-5.46 -20.09,-5.46l-27.9 0 0 49.42 -20.83 0 0 -119.68 -0.01 0.01zm20.83 17.14l0 37.49 27.74 0c4.04,0 7.45,-0.23 10.24,-0.68 2.8,-0.44 5.63,-1.26 8.49,-2.43 2.87,-1.18 5.04,-3.11 6.56,-5.8 1.52,-2.69 2.28,-6.11 2.28,-10.25 0,-3.82 -0.68,-6.98 -2.02,-9.49 -1.35,-2.52 -3.29,-4.39 -5.8,-5.63 -2.53,-1.25 -5.11,-2.07 -7.73,-2.52 -2.64,-0.45 -5.75,-0.67 -9.34,-0.67l-30.41 0 0 -0.01z"/>
  </g>
 </g>
</svg>
