<svg width="71" height="71" viewBox="0 0 71 71" fill="none" xmlns="http://www.w3.org/2000/svg">
<g clip-path="url(#clip0_50_2052)">
<path d="M26.6662 4.15927L4.16677 26.6587C-0.716164 31.5416 -0.716164 39.4584 4.16677 44.3413L26.6662 66.8407C31.5491 71.7237 39.4659 71.7237 44.3488 66.8407L66.8482 44.3413C71.7312 39.4584 71.7312 31.5416 66.8482 26.6587L44.3488 4.15927C39.4659 -0.723661 31.5491 -0.723661 26.6662 4.15927Z" stroke="#B2ADA6"/>
<path d="M39.211 15.4543C40.0013 16.2446 41.0716 16.6947 42.1919 16.6947H45.3228C45.8829 16.6947 46.4231 16.9147 46.8132 17.3149C47.2133 17.715 47.4334 18.2451 47.4334 18.8053V21.9362C47.4334 23.0565 47.8735 24.1268 48.6737 24.917C49.3439 25.5872 50.1841 26.4274 50.8843 27.1276C51.2844 27.5277 51.5045 28.0579 51.5045 28.618C51.5045 29.1782 51.2844 29.7183 50.8843 30.1085C50.1741 30.8187 49.3439 31.6489 48.6737 32.3191C47.8835 33.1093 47.4334 34.1796 47.4334 35.2999V38.4308C47.4334 38.991 47.2133 39.5311 46.8132 39.9212C46.4131 40.3213 45.8829 40.5414 45.3228 40.5414H42.1919C41.0716 40.5414 40.0013 40.9815 39.211 41.7817C38.5409 42.4519 37.7006 43.2922 37.0004 43.9924C36.6003 44.3925 36.0702 44.6125 35.51 44.6125C34.9498 44.6125 34.4097 44.3925 34.0196 43.9924C33.3094 43.2822 32.4792 42.4519 31.809 41.7817C31.0187 40.9915 29.9484 40.5414 28.8281 40.5414H25.6972C25.1371 40.5414 24.5969 40.3213 24.2068 39.9212C23.8167 39.5211 23.5866 38.991 23.5866 38.4308V35.2999C23.5866 34.1796 23.1465 33.1093 22.3463 32.3191C21.6761 31.6489 20.8359 30.8087 20.1357 30.1085C19.7356 29.7083 19.5155 29.1782 19.5155 28.618C19.5155 28.0579 19.7356 27.5177 20.1357 27.1276C20.8459 26.4174 21.6761 25.5872 22.3463 24.917C23.1365 24.1268 23.5866 23.0565 23.5866 21.9362V18.8053C23.5866 18.2451 23.8067 17.705 24.2068 17.3149C24.6069 16.9247 25.1371 16.6947 25.6972 16.6947H28.8281C29.9484 16.6947 31.0187 16.2546 31.809 15.4543C32.4792 14.7841 33.3194 13.9439 34.0196 13.2437C34.4197 12.8436 34.9498 12.6235 35.51 12.6235C36.0702 12.6235 36.6103 12.8436 37.0004 13.2437C37.7106 13.9539 38.5409 14.7841 39.211 15.4543Z" stroke="#B2ADA6"/>
<path d="M38.1707 24.977L36.2502 20.5257C36.1302 20.2257 35.8101 19.9756 35.5 19.9756C35.1899 19.9756 34.8698 20.2257 34.7498 20.5257L32.8292 24.977H28.298C27.8979 24.977 27.4977 25.2771 27.4977 25.7772C27.4977 26.0073 27.6278 26.2273 27.8078 26.3874C29.7084 27.9878 31.2988 29.5783 31.2988 29.5783C31.2988 29.5783 30.5586 32.2891 29.9584 34.5897C29.8184 35.0498 29.9384 35.49 30.3986 35.68C30.6986 35.8 30.9987 35.78 31.2388 35.63C32.8793 34.5697 34.5697 33.4694 35.49 32.8492C36.4203 33.4594 38.1107 34.5597 39.7412 35.63C39.9813 35.78 40.2813 35.8 40.5814 35.68C41.0416 35.5 41.1616 35.0498 41.0215 34.5897C40.4214 32.2891 39.6812 29.5783 39.6812 29.5783C39.6812 29.5783 41.2716 27.9878 43.1722 26.3874C43.3522 26.2373 43.4822 26.0073 43.4822 25.7772C43.4822 25.3771 43.0821 24.977 42.682 24.977H38.1507H38.1707Z" stroke="#B2ADA6"/>
<path d="M43.5022 40.6313V57.7262C43.5022 58.6164 42.4219 59.0665 41.7918 58.4364L36.2002 52.8448C35.8101 52.4547 35.1799 52.4547 34.7898 52.8448L29.1982 58.4364C28.568 59.0665 27.4877 58.6164 27.4877 57.7262V50.134" stroke="#B2ADA6"/>
</g>
<defs>
<clipPath id="clip0_50_2052">
<rect width="71" height="71" fill="white"/>
</clipPath>
</defs>
</svg>
