<svg width="71" height="71" viewBox="0 0 71 71" fill="none" xmlns="http://www.w3.org/2000/svg">
<g clip-path="url(#clip0_50_2057)">
<path d="M48.1336 25.1272C43.5223 25.1272 39.9513 28.2581 38.741 29.8185L39.5312 30.4287C40.6515 28.9983 43.9524 26.1175 48.1436 26.1175C50.7043 26.1175 52.6949 27.3878 54.0553 29.2283C55.4257 31.0789 56.1459 33.4695 56.1459 35.6201C56.1459 37.7708 55.0956 39.8413 53.5351 41.4618C51.9747 43.0822 49.9641 44.1225 48.1436 44.1225C44.4226 44.1225 40.5515 41.3318 36.0602 34.3498C31.5289 27.2978 27.8979 25.1172 24.1368 25.1172C22.2463 25.1172 19.7556 26.0474 17.745 27.8079C15.7145 29.5784 14.134 32.2092 14.134 35.6201C14.134 39.0311 15.8645 41.4518 17.9651 42.9622C20.0457 44.4626 22.5264 45.1228 24.1368 45.1228C27.3378 45.1228 29.9685 43.5024 32.5192 40.4415L31.749 39.8013C29.2983 42.7422 26.9276 44.1225 24.1268 44.1225C22.7365 44.1225 20.4558 43.5324 18.5453 42.152C16.6447 40.7916 15.1243 38.681 15.1243 35.6201C15.1243 32.5593 16.5447 30.1686 18.3952 28.5582C20.2558 26.9377 22.5164 26.1175 24.1268 26.1175C27.3678 26.1175 30.7387 27.938 35.21 34.8899C39.7212 41.9119 43.8524 45.1228 48.1336 45.1228C50.3142 45.1228 52.5549 43.9125 54.2453 42.152C55.9358 40.4015 57.1361 38.0308 57.1361 35.6201C57.1361 33.2095 56.3559 30.6587 54.8455 28.6282C53.3351 26.5876 51.0644 25.1172 48.1336 25.1172V25.1272Z" fill="#B2ADA6"/>
<path d="M67.1889 26.3074L44.6926 3.81107C39.6112 -1.27036 31.3788 -1.27036 26.3074 3.81107L3.81107 26.3074C-1.27036 31.3888 -1.27036 39.6212 3.81107 44.6926L26.3074 67.1889C31.3888 72.2704 39.6212 72.2704 44.6926 67.1889L67.1889 44.6926C72.2704 39.6112 72.2704 31.3788 67.1889 26.3074ZM66.4787 43.9924L43.9824 66.4887C39.2911 71.18 31.6989 71.18 27.0076 66.4887L4.51127 43.9924C-0.170047 39.3011 -0.170047 31.6989 4.51127 27.0176L27.0176 4.51127C31.6989 -0.170047 39.3011 -0.170047 43.9924 4.51127L66.4887 27.0076C71.18 31.6989 71.18 39.2911 66.4887 43.9824L66.4787 43.9924Z" fill="#B2ADA6"/>
</g>
<defs>
<clipPath id="clip0_50_2057">
<rect width="71" height="71" fill="white"/>
</clipPath>
</defs>
</svg>
