<svg width="72" height="71" viewBox="0 0 72 71" fill="none" xmlns="http://www.w3.org/2000/svg">
<g clip-path="url(#clip0_50_2034)">
<path d="M49.84 33.3496C50.16 33.3496 50.43 33.2482 50.64 33.0352C50.85 32.8222 50.95 32.5585 50.95 32.2339C50.95 31.9093 50.85 31.6456 50.64 31.4326C50.43 31.2196 50.17 31.1182 49.84 31.1182C49.51 31.1182 49.25 31.2196 49.04 31.4326C48.83 31.6456 48.73 31.9093 48.73 32.2339C48.73 32.5585 48.83 32.8222 49.04 33.0352C49.25 33.2482 49.51 33.3496 49.84 33.3496Z" fill="#B2ADA6"/>
<path d="M23.19 33.3496C23.51 33.3496 23.78 33.2482 23.99 33.0352C24.2 32.8222 24.3 32.5585 24.3 32.2339C24.3 31.9093 24.2 31.6456 23.99 31.4326C23.78 31.2196 23.52 31.1182 23.19 31.1182C22.86 31.1182 22.6 31.2196 22.39 31.4326C22.18 31.6456 22.08 31.9093 22.08 32.2339C22.08 32.5585 22.18 32.8222 22.39 33.0352C22.6 33.2482 22.86 33.3496 23.19 33.3496Z" fill="#B2ADA6"/>
<path d="M39.85 24.4543C39.53 24.4543 39.26 24.5558 39.05 24.7688C38.84 24.9818 38.74 25.2455 38.74 25.5701C38.74 25.8946 38.84 26.1583 39.05 26.3713C39.26 26.5843 39.52 26.6858 39.85 26.6858C40.18 26.6858 40.44 26.5843 40.65 26.3713C40.86 26.1583 40.96 25.8946 40.96 25.5701C40.96 25.2455 40.86 24.9818 40.65 24.7688C40.44 24.5558 40.18 24.4543 39.85 24.4543Z" fill="#B2ADA6"/>
<path d="M39.85 37.7922C39.53 37.7922 39.26 37.8937 39.05 38.1067C38.84 38.3197 38.74 38.5834 38.74 38.908C38.74 39.2325 38.84 39.4962 39.05 39.7092C39.26 39.9222 39.52 40.0237 39.85 40.0237C40.18 40.0237 40.44 39.9222 40.65 39.7092C40.86 39.4962 40.96 39.2325 40.96 38.908C40.96 38.5834 40.86 38.3197 40.65 38.1067C40.44 37.8937 40.18 37.7922 39.85 37.7922Z" fill="#B2ADA6"/>
<path d="M39.85 31.1182C39.53 31.1182 39.26 31.2196 39.05 31.4326C38.84 31.6456 38.74 31.9093 38.74 32.2339C38.74 32.5585 38.84 32.8222 39.05 33.0352C39.26 33.2482 39.52 33.3496 39.85 33.3496C40.18 33.3496 40.44 33.2482 40.65 33.0352C40.86 32.8222 40.96 32.5585 40.96 32.2339C40.96 31.9093 40.86 31.6456 40.65 31.4326C40.44 31.2196 40.18 31.1182 39.85 31.1182Z" fill="#B2ADA6"/>
<path d="M23.19 40.0137C23.51 40.0137 23.78 39.9122 23.99 39.6992C24.2 39.4862 24.3 39.2225 24.3 38.8979C24.3 38.5734 24.2 38.3097 23.99 38.0967C23.78 37.8837 23.52 37.7822 23.19 37.7822C22.86 37.7822 22.6 37.8837 22.39 38.0967C22.18 38.3097 22.08 38.5734 22.08 38.8979C22.08 39.2225 22.18 39.4862 22.39 39.6992C22.6 39.9122 22.86 40.0137 23.19 40.0137Z" fill="#B2ADA6"/>
<path d="M33.18 37.7922C32.86 37.7922 32.59 37.8937 32.38 38.1067C32.17 38.3197 32.07 38.5834 32.07 38.908C32.07 39.2325 32.17 39.4962 32.38 39.7092C32.59 39.9222 32.85 40.0237 33.18 40.0237C33.51 40.0237 33.77 39.9222 33.98 39.7092C34.19 39.4962 34.29 39.2325 34.29 38.908C34.29 38.5834 34.19 38.3197 33.98 38.1067C33.77 37.8937 33.51 37.7922 33.18 37.7922Z" fill="#B2ADA6"/>
<path d="M49.84 40.0137C50.16 40.0137 50.43 39.9122 50.64 39.6992C50.85 39.4862 50.95 39.2225 50.95 38.8979C50.95 38.5734 50.85 38.3097 50.64 38.0967C50.43 37.8837 50.17 37.7822 49.84 37.7822C49.51 37.7822 49.25 37.8837 49.04 38.0967C48.83 38.3097 48.73 38.5734 48.73 38.8979C48.73 39.2225 48.83 39.4862 49.04 39.6992C49.25 39.9122 49.51 40.0137 49.84 40.0137Z" fill="#B2ADA6"/>
<path d="M68.37 26.8887L45.05 3.53986C43.94 2.42414 42.64 1.562 41.16 0.933143C39.68 0.304286 38.13 0 36.51 0C34.89 0 33.33 0.314429 31.83 0.933143C30.33 1.562 29 2.42414 27.84 3.53986L4.51998 26.8887C2.15998 29.2926 0.97998 32.1934 0.97998 35.571C0.97998 38.9486 2.15998 41.8494 4.51998 44.2533L27.84 67.592C28.95 68.7077 30.21 69.5496 31.62 70.1277C33.03 70.7059 34.52 71 36.1 71C37.86 71 39.51 70.6146 41.06 69.8539C42.61 69.0931 43.94 68.0383 45.05 66.6893L68.37 43.3506C70.78 41.4031 71.98 38.7761 71.98 35.4696C71.98 32.163 70.78 29.3027 68.37 26.8887ZM67.81 42.4479L44.28 65.9996C43.26 67.2471 42.04 68.2107 40.6 68.8801C39.17 69.5496 37.66 69.8843 36.09 69.8843C34.7 69.8843 33.36 69.6206 32.06 69.083C30.76 68.5454 29.61 67.7949 28.59 66.8211L5.27998 43.4926C3.14998 41.3119 2.08998 38.6747 2.08998 35.571C2.08998 32.4673 3.14998 29.8301 5.27998 27.6494L28.6 4.31071C29.66 3.29643 30.89 2.50529 32.28 1.94743C33.67 1.38957 35.08 1.11571 36.51 1.11571C37.94 1.11571 39.41 1.38957 40.78 1.94743C42.15 2.50529 43.36 3.28629 44.42 4.31071L67.74 27.6494C68.85 28.7651 69.67 30.033 70.2 31.4733C70.73 32.9136 70.97 34.3944 70.93 35.9159C70.88 37.1634 70.59 38.3603 70.06 39.4963C69.53 40.6323 68.78 41.6161 67.8 42.4479H67.81Z" fill="#B2ADA6"/>
<path d="M33.98 24.7688C33.77 24.5558 33.51 24.4543 33.18 24.4543C32.85 24.4543 32.59 24.5558 32.38 24.7688C32.17 24.9818 32.07 25.2455 32.07 25.5701C32.07 25.8946 32.17 26.1583 32.38 26.3713C32.59 26.5843 32.85 26.6858 33.18 26.6858C33.51 26.6858 33.77 26.5843 33.98 26.3713C34.19 26.1583 34.29 25.8946 34.29 25.5701C34.29 25.2455 34.19 24.9818 33.98 24.7688Z" fill="#B2ADA6"/>
<path d="M33.98 31.4326C33.77 31.2196 33.51 31.1182 33.18 31.1182C32.85 31.1182 32.59 31.2196 32.38 31.4326C32.17 31.6456 32.07 31.9093 32.07 32.2339C32.07 32.5585 32.17 32.8222 32.38 33.0352C32.59 33.2482 32.85 33.3496 33.18 33.3496C33.51 33.3496 33.77 33.2482 33.98 33.0352C34.19 32.8222 34.29 32.5585 34.29 32.2339C34.29 31.9093 34.19 31.6456 33.98 31.4326Z" fill="#B2ADA6"/>
<path d="M54.28 26.1179H45.95V17.7805C45.95 17.5979 45.9 17.4559 45.81 17.3647C45.72 17.2734 45.58 17.2227 45.39 17.2227H27.62C27.44 17.2227 27.3 17.2734 27.2 17.3647C27.11 17.4559 27.06 17.5979 27.06 17.7805V26.1179H18.73C18.54 26.1179 18.41 26.1687 18.31 26.2599C18.22 26.3512 18.17 26.4932 18.17 26.6758V48.9089C18.17 49.0915 18.22 49.2335 18.31 49.3248C18.4 49.4161 18.54 49.4668 18.73 49.4668H34.28C34.47 49.4668 34.6 49.4161 34.7 49.3248C34.79 49.2335 34.84 49.0915 34.84 48.9089V45.0141H38.17V48.9089C38.17 49.0915 38.22 49.2335 38.31 49.3248C38.4 49.4161 38.54 49.4668 38.73 49.4668C38.92 49.4668 39.05 49.4161 39.15 49.3248C39.24 49.2335 39.29 49.0915 39.29 48.9089V44.4664C39.29 44.2838 39.24 44.1418 39.15 44.0505C39.06 43.9592 38.92 43.9085 38.73 43.9085H34.29C34.1 43.9085 33.97 43.9592 33.87 44.0505C33.78 44.1418 33.73 44.2838 33.73 44.4664V48.3612H28.18V18.3485H44.84V48.9191C44.84 49.1017 44.89 49.2437 44.98 49.3349C45.07 49.4262 45.21 49.4769 45.4 49.4769H54.28C54.46 49.4769 54.6 49.4262 54.7 49.3349C54.79 49.2437 54.84 49.1017 54.84 48.9191V26.6859C54.84 26.5034 54.79 26.3614 54.7 26.2701C54.61 26.1788 54.47 26.1281 54.28 26.1281V26.1179ZM27.07 48.3511H19.3V27.2337H27.07V48.3511ZM53.72 48.3511H45.95V27.2337H53.72V48.3511Z" fill="#B2ADA6"/>
</g>
<defs>
<clipPath id="clip0_50_2034">
<rect width="71" height="71" fill="white" transform="translate(0.97998)"/>
</clipPath>
</defs>
</svg>
