<svg width="126" height="22" viewBox="0 0 183 32" fill="currentColor" xmlns="http://www.w3.org/2000/svg" class="rim-svg-logo" role="img" aria-label="Logo RIMOWA">
<path d="M19.9921 31.2236L10.2153 17.725H2.93764V31.2236H0V0.776255H8.68058C14.0733 0.776255 15.4322 0.776253 17.3613 1.42341C22.4467 3.19103 22.7979 7.97838 22.7979 9.48807C22.7979 12.6792 21.3949 14.4473 20.4741 15.3531C18.2384 17.423 15.3012 17.5957 13.635 17.725L23.6749 31.2236H19.9921ZM10.2153 15.2238C12.2321 15.2238 14.1168 15.1807 15.4322 14.9215C18.7206 14.2749 19.9041 11.8165 19.9041 9.35839C19.9041 6.38268 18.4138 4.14013 15.3887 3.53608C14.5114 3.36364 14.1168 3.36364 10.2153 3.32088H2.93764V15.2238H10.2153Z"></path>
<path d="M33.54 0.776426H36.4772V31.2236H33.54V0.776426Z"></path>
<path d="M76.6368 0.776255V31.2236H73.6992V5.39099L63.6598 31.2236H61.3796L51.3397 5.39099V31.2236H48.4026V0.776255H52.1724L62.5195 26.6096L72.8661 0.776255H76.6368Z"></path>
<path d="M99.1288 32C92.3767 32 85.7126 27.3425 85.7126 15.9569C85.7126 7.54717 89.9216 0 99.1288 0C109.432 0 112.369 8.88391 112.369 15.7844C112.281 23.7195 108.467 32 99.1288 32ZM99.1288 2.50151C91.2368 2.50151 88.826 10.1779 88.826 16.0002C88.826 21.6495 91.1057 29.4126 98.9969 29.4126C108.555 29.4126 109.256 18.2858 109.256 15.8272C109.256 10.3072 107.02 2.50151 99.1288 2.50151Z"></path>
<path d="M154.634 0.776255L145.514 31.2236H143.147L135.78 6.59853L128.416 31.2236H126.048L116.929 0.776255H120.086L127.275 26.0488L134.729 0.776255H136.834L144.287 26.0488L151.476 0.776255H154.634Z"></path>
<path d="M183 31.2236H179.711L176.204 22.0371H162.087L158.58 31.2236H155.291L167.918 0.776255H170.373L183 31.2236ZM169.146 4.35602L163.139 19.7087H175.152L169.146 4.35602Z"></path>
</svg>