<svg width="36" height="36" viewBox="0 0 36 36" fill="none"
  xmlns="http://www.w3.org/2000/svg">
  <path d="M15.3903 18.6429H10.4593L9.51862 21H7L11.7338 10H14.1614L18 19.0357L16.331 21L15.3903 18.6429ZM14.6166 16.71L12.9324 12.4986L11.2483 16.71H14.6166Z" fill="#2657A2"/>
  <path d="M28 15V26H25.6159V23.0771H23.4106L21.5629 26H19.0149L21.1904 22.6843C20.4851 22.3805 19.9437 21.9248 19.5662 21.3171C19.1887 20.699 19 19.9605 19 19.1014C19 18.2529 19.1838 17.5248 19.5513 16.9171C19.9189 16.299 20.4404 15.8276 21.1159 15.5029C21.7914 15.1676 22.5861 15 23.5 15H28ZM23.5596 17.0743C22.8742 17.0743 22.3477 17.2419 21.9801 17.5771C21.6225 17.9124 21.4437 18.41 21.4437 19.07C21.4437 19.709 21.6175 20.2014 21.9652 20.5471C22.3129 20.8929 22.8245 21.0657 23.5 21.0657H25.6159V17.0743H23.5596Z" fill="#2657A2"/>
  <path d="M21 10H23L16 26H14L21 10Z" fill="#2657A2"/>
  <circle cx="18" cy="18" r="17.5" stroke="#2657A2"/>
</svg>
