<?xml version="1.0" encoding="utf-8"?>
<!-- Generator: Adobe Illustrator 21.0.2, SVG Export Plug-In . SVG Version: 6.00 Build 0)  -->
<svg version="1.0" id="Layer_1" xmlns="http://www.w3.org/2000/svg"  x="0px" y="0px"
	 width="26px" height="20px" viewBox="0 0 26 20" style="enable-background:new 0 0 26 20;" xml:space="preserve">
<style type="text/css">
	.st0{fill-rule:evenodd;clip-rule:evenodd;fill:#7F8D99;}
</style>
<g>
	<g>
		<path class="st0" d="M12.5,18c2,0,2-2,2-2h-4C10.5,16,10.5,18,12.5,18z M19,13c-0.8,0-1-1-1-2V7c0-1.6-0.6-4-2-4c-0.5,0-1,0-1,0V2
			c0,0,0-2-2-2s-2,2-2,2v1c0,0-0.4,0-1,0C8.5,3,8,5.5,8,7v4c0,1,0,2-1,2c-0.5,0-1,0-1,0v2h14v-2C20,13,19.4,13,19,13z M13.9,3h-2
			c0,0-0.2-1.7,1-1.7C14.3,1.3,13.9,3,13.9,3z"/>
	</g>
</g>
</svg>
