<?xml version="1.0" encoding="utf-8"?>
<!-- Generator: Adobe Illustrator 19.1.0, SVG Export Plug-In . SVG Version: 6.00 Build 0)  -->
<svg version="1.0" id="Layer_1" xmlns="http://www.w3.org/2000/svg" xmlns:xlink="http://www.w3.org/1999/xlink" x="0px" y="0px"
	 viewBox="0 0 26 26" style="enable-background:new 0 0 26 26;" xml:space="preserve">
<style type="text/css">
	.st0{fill-rule:evenodd;clip-rule:evenodd;fill:#FFFFFF;}
</style>
<g>
	<g>
		<path class="st0" d="M13,0C5.8,0,0,5.8,0,13c0,7.2,5.8,13,13,13c7.2,0,13-5.8,13-13C26,5.8,20.2,0,13,0z M13,24
			C6.9,24,2,19.1,2,13C2,6.9,6.9,2,13,2s11,4.9,11,11C24,19.1,19,24,13,24z M16.8,7.8L13,11.6L9.2,7.8L7.8,9.2l3.8,3.8l-3.8,3.8
			l1.4,1.4l3.8-3.8l3.8,3.8l1.4-1.4L14.4,13l3.8-3.8L16.8,7.8z"/>
	</g>
</g>
</svg>
