<?xml version="1.0" encoding="utf-8"?>
<!-- Generator: Adobe Illustrator 19.1.0, SVG Export Plug-In . SVG Version: 6.00 Build 0)  -->
<svg version="1.0" id="Layer_1" xmlns="http://www.w3.org/2000/svg" xmlns:xlink="http://www.w3.org/1999/xlink" x="0px" y="0px"
	 viewBox="0 0 12 12" style="enable-background:new 0 0 12 12;" xml:space="preserve">
<style type="text/css">
	.st0{fill-rule:evenodd;clip-rule:evenodd;fill:#FFFFFF;}
</style>
<g>
	<g>
		<path class="st0" d="M6,1C3,1,1,3,1,6c0,3,2,5,5,5c3,0,5-2,5-5C11,3,9,1,6,1z M6,9.8C4,9.8,2.2,8,2.2,6C2.2,4,4,2.2,6,2.2
			S9.8,4,9.8,6C9.8,8,8,9.8,6,9.8z M5,4v4h1l2-2L6,4H5z"/>
	</g>
</g>
</svg>
