<?xml version="1.0" encoding="UTF-8"?>
<!DOCTYPE svg PUBLIC "-//W3C//DTD SVG 1.1//EN" "http://www.w3.org/Graphics/SVG/1.1/DTD/svg11.dtd">
<!-- Creator: CorelDRAW X8 -->
<svg xmlns="http://www.w3.org/2000/svg" xml:space="preserve" width="580px" height="220px" version="1.1" style="shape-rendering:geometricPrecision; text-rendering:geometricPrecision; image-rendering:optimizeQuality; fill-rule:evenodd; clip-rule:evenodd"
viewBox="0 0 58000 22000"
 xmlns:xlink="http://www.w3.org/1999/xlink">
 <defs>
  <style>
   <![CDATA[
    .fil1 {fill:#9D9E9E;fill-rule:nonzero}
    .fil0 {fill:#898989;fill-rule:nonzero}
   ]]>
  </style>
 </defs>
 <g id="Слой_x0020_1">
  <metadata id="CorelCorpID_0Corel-Layer"/>
  <g>
   <path class="fil0" d="M18203 11320l0 -118 236 4 0 118 -236 -4zm-592 -22l4 -118 236 12 -4 118 -236 -12zm-591 -46l8 -118 236 20 -8 118 -236 -20zm-590 -74l17 -117 103 16 129 15 -12 118 -134 -16 -103 -16zm-584 -100l21 -116 229 44 1 0 -17 117 -4 -1 -230 -44zm-579 -124l24 -116 231 53 -25 115 -230 -52zm-575 -153l33 -114 65 20 160 43 -28 115 -165 -44 -65 -20zm-564 -181l37 -113 210 73 11 4 -33 113 -15 -5 -210 -72zm-555 -208l41 -111 220 86 -41 111 -220 -86zm-544 -240l49 -108 120 58 92 40 -45 109 -96 -41 -120 -58zm-529 -269l53 -105 209 111 -53 105 -209 -111zm-513 -301l62 -101 89 58 110 64 -57 103 -115 -67 -89 -57zm-491 -333l66 -98 193 137 -66 98 -193 -137zm-467 -369l75 -92 106 92 73 57 -70 95 -78 -61 -106 -91zm-438 -401l79 -88 172 163 -80 88 -171 -163zm-401 -441l88 -79 151 178 0 -1 -84 84 -4 -5 -151 -177zm-359 -477l96 -68 72 107 62 83 -92 74 -67 -88 -71 -108zm-310 -511l104 -56 20 40 95 162 -101 63 -98 -168 -20 -41zm-247 -540l107 -49 91 218 -107 49 -91 -218zm-179 -571l113 -34 60 228 -113 35 -60 -229zm-103 -589l116 -18 21 182 9 48 -115 26 -11 -56 -20 -182zm-29 -479l118 0 0 0 4 112 -118 9 -4 -121 0 0zm1 -101l118 3 0 2 0 3 0 4 0 3 0 4 0 2 0 3 0 3 0 2 0 5 -1 3 0 3 0 3 0 2 0 4 0 3 0 2 0 3 0 5 0 3 0 2 0 3 0 3 0 4 0 3 0 3 0 3 0 3 0 3 0 3 0 3 0 3 -118 0 0 -3 0 -3 0 -3 0 -3 0 -3 0 -3 0 -5 0 -3 0 -2 0 -3 0 -3 0 -4 0 -4 0 -2 0 -3 0 -4 0 -3 0 -2 0 -4 0 -3 0 -3 0 -4 0 -2 0 -4 1 -3 0 -3 0 -4 0 -2 0 -3 0 -4 0 -3 0 -3zm86 -1073l517 1102 -1088 -27 571 -1075z"/>
  </g>
  <g>
   <path class="fil0" d="M18223 11366l-19 -117 78 -12 154 -27 20 116 -154 27 -79 13zm-585 89l-17 -117 22 -3 163 -24 48 -7 18 117 -49 7 -164 24 -21 3zm-587 75l-14 -118 104 -12 130 -16 15 117 -130 16 -105 13zm-588 63l-12 -117 172 -18 62 -6 13 117 -63 7 -172 17zm-590 53l-9 -118 44 -3 181 -16 9 -1 11 118 -10 1 -182 15 -44 4zm-590 42l-8 -118 81 -5 155 -10 8 117 -156 11 -80 5zm-590 34l-6 -118 105 -5 130 -7 7 117 -131 8 -105 5zm-591 24l-4 -118 121 -4 114 -5 5 119 -114 4 -122 4zm-591 16l-3 -118 130 -2 106 -3 3 118 -106 3 -130 2zm-591 8l-2 -118 133 -1 103 -1 2 118 -104 1 -132 1zm-592 0l0 -118 237 1 0 118 -237 -1zm-591 -9l2 -118 207 4 29 1 -1 118 -30 -1 -207 -4zm-591 -17l4 -118 96 4 139 4 -3 118 -140 -4 -96 -4zm-591 -25l6 -118 0 0 235 11 -5 118 -236 -11 0 0zm-590 -35l7 -118 235 15 -7 118 -235 -15zm-590 -44l9 -118 182 15 53 4 -8 118 -54 -4 -182 -15zm-590 -54l12 -117 131 13 103 10 -10 117 -104 -9 -132 -14zm-588 -64l14 -118 102 13 132 15 -13 117 -133 -15 -102 -12zm-587 -77l17 -117 97 14 136 18 -15 117 -137 -18 -98 -14zm-585 -90l19 -117 118 20 115 18 -18 117 -116 -18 -118 -20zm-582 -106l22 -116 167 32 64 12 -20 116 -66 -12 -167 -32zm-580 -125l27 -116 8 2 222 51 -26 115 -223 -51 -8 -1zm-573 -151l31 -114 133 38 94 25 -29 115 -96 -26 -133 -38zm-565 -184l39 -112 100 37 121 41 -36 113 -124 -42 -100 -37zm-550 -237l54 -105 1 0 141 69 68 30 -46 109 -72 -32 -145 -71 -1 0zm-1034 -661l1215 73 -544 942 -671 -1015z"/>
  </g>
  <path class="fil1" d="M20410 9224l228 -2332 830 0c226,0 403,53 529,160 126,107 180,254 161,443 -23,242 -155,417 -394,523 285,105 415,290 389,557 -20,206 -111,366 -272,479 -161,113 -368,170 -621,170l-850 0zm410 -343l487 0c135,0 244,-29 326,-87 83,-57 129,-139 139,-246 11,-107 -20,-189 -92,-248 -72,-59 -181,-89 -328,-89l-466 0 -66 670zm98 -996l403 0c129,0 233,-28 313,-85 80,-57 125,-138 135,-245 10,-102 -16,-181 -80,-236 -63,-56 -157,-84 -281,-84l-427 0 -63 650z"/>
  <path id="1" class="fil1" d="M23985 9224l173 -1766 373 0 -173 1766 -373 0zm-1539 0l172 -1766 377 0 -61 623 297 0c202,0 358,47 469,140 111,94 157,233 139,417 -19,193 -92,339 -219,438 -127,99 -292,148 -494,148l-680 0zm406 -303l290 0c89,0 162,-24 220,-73 58,-49 91,-115 99,-197 9,-89 -10,-156 -58,-203 -48,-47 -116,-70 -205,-70l-293 0 -53 543z"/>
  <path id="2" class="fil1" d="M25534 9261c-246,0 -432,-86 -558,-257 -125,-171 -173,-409 -143,-716l4 -43c13,-131 27,-243 41,-337 15,-93 39,-194 73,-301 34,-108 75,-198 125,-270 49,-72 114,-137 194,-195 80,-58 174,-99 283,-123l869 -194 36 310 -842 197c-143,33 -249,90 -317,170 -67,80 -111,182 -129,306 52,-82 130,-153 234,-213 103,-60 226,-90 368,-90 202,0 367,81 494,243 128,162 180,368 155,617l-1 10c-25,259 -118,472 -279,638 -160,165 -363,248 -607,248zm35 -327c127,0 234,-51 320,-155 87,-103 138,-236 154,-398l1 -13c16,-162 -11,-295 -81,-400 -69,-104 -165,-156 -287,-156 -122,0 -228,51 -315,155 -88,103 -140,237 -156,401l-1 13c-16,160 11,292 81,397 70,104 164,156 284,156z"/>
  <path id="3" class="fil1" d="M27420 9261c-233,0 -419,-82 -558,-247 -138,-164 -194,-382 -167,-653l2 -26c26,-265 119,-482 279,-652 160,-170 350,-255 569,-255 234,0 406,87 518,259 112,172 155,394 128,668 -6,60 -11,104 -16,133l-1113 0c3,146 42,259 115,336 74,78 170,117 287,117 156,0 304,-61 445,-183l153 236c-184,178 -398,267 -642,267zm-336 -1036l750 0c5,-145 -20,-261 -76,-350 -55,-89 -137,-133 -243,-133 -105,0 -195,42 -273,128 -77,85 -130,204 -158,355z"/>
  <path id="4" class="fil1" d="M28407 9727l222 -2269 376 0 -28 284c156,-211 339,-317 548,-317 193,0 349,78 468,235 119,157 165,376 137,658l-4 47c-28,282 -116,501 -266,658 -150,156 -321,234 -514,234 -200,0 -363,-99 -487,-299l-75 769 -377 0zm588 -958c71,104 166,155 283,155 118,0 222,-51 312,-153 90,-102 143,-239 160,-410l3 -36c17,-171 -10,-308 -79,-412 -70,-103 -164,-155 -282,-155 -118,0 -222,53 -313,157 -92,104 -145,241 -162,410l-3 36c-17,169 10,305 81,408z"/>
  <polygon id="5" class="fil1" points="32007,7458 31834,9224 31468,9224 31581,8065 30762,9224 30402,9224 30574,7458 30944,7458 30831,8611 31644,7458 "/>
  <polygon id="6" class="fil1" points="32591,9224 32732,7782 32245,7782 32277,7458 33619,7458 33588,7782 33105,7782 32964,9224 "/>
  <path id="7" class="fil1" d="M34409 9261c-233,0 -419,-82 -557,-247 -138,-164 -194,-382 -168,-653l3 -26c26,-265 119,-482 278,-652 160,-170 350,-255 570,-255 233,0 406,87 518,259 112,172 155,394 128,668 -6,60 -12,104 -16,133l-1113 0c3,146 42,259 115,336 74,78 169,117 287,117 155,0 303,-61 444,-183l154 236c-184,178 -398,267 -643,267zm-335 -1036l750 0c5,-145 -20,-261 -76,-350 -56,-89 -137,-133 -244,-133 -104,0 -195,42 -272,128 -77,85 -130,204 -158,355z"/>
  <polygon id="8" class="fil1" points="21706,10213 21534,11979 21168,11979 21281,10820 20461,11979 20101,11979 20274,10213 20644,10213 20531,11366 21343,10213 "/>
  <polygon id="9" class="fil1" points="23549,10213 23376,11979 23000,11979 23071,11253 22415,11253 22344,11979 21967,11979 22139,10213 22516,10213 22446,10933 23102,10933 23172,10213 "/>
  <polygon id="10" class="fil1" points="24133,11979 24273,10536 23787,10536 23818,10213 25161,10213 25130,10536 24647,10536 24506,11979 "/>
  <path id="11" class="fil1" d="M25951 12015c-233,0 -419,-82 -557,-246 -138,-164 -194,-382 -168,-653l3 -27c26,-264 119,-481 278,-651 160,-170 350,-255 570,-255 233,0 406,86 518,258 112,173 154,395 128,668 -6,60 -12,105 -17,134l-1112 0c3,146 42,258 115,336 73,78 169,117 287,117 155,0 303,-61 444,-184l154 237c-184,178 -398,266 -643,266zm-335 -1036l750 0c5,-144 -20,-261 -76,-349 -56,-89 -137,-134 -244,-134 -104,0 -195,43 -272,129 -77,85 -130,203 -158,354z"/>
  <path id="12" class="fil1" d="M26939 12482l221 -2269 377 0 -28 283c156,-211 338,-316 547,-316 194,0 350,78 469,235 119,156 164,376 137,658l-5 46c-27,282 -116,502 -265,658 -150,157 -322,235 -515,235 -200,0 -362,-100 -487,-300l-75 770 -376 0zm588 -958c71,103 165,155 283,155 118,0 221,-51 311,-153 90,-102 144,-239 160,-410l4 -37c17,-171 -10,-308 -80,-411 -70,-103 -164,-155 -281,-155 -118,0 -222,52 -314,157 -91,104 -145,241 -161,409l-4 37c-16,169 11,305 82,408z"/>
  <path id="13" class="fil1" d="M29659 12015c-233,0 -419,-82 -557,-246 -138,-164 -194,-382 -168,-653l3 -27c26,-264 119,-481 278,-651 160,-170 350,-255 570,-255 233,0 406,86 518,258 112,173 154,395 128,668 -6,60 -11,105 -17,134l-1112 0c3,146 42,258 115,336 74,78 169,117 287,117 155,0 303,-61 444,-184l154 237c-184,178 -398,266 -643,266zm-335 -1036l750 0c5,-144 -20,-261 -76,-349 -56,-89 -137,-134 -244,-134 -104,0 -195,43 -272,129 -77,85 -130,203 -158,354z"/>
  <path id="14" class="fil1" d="M31412 12015c-231,0 -414,-84 -548,-253 -135,-169 -190,-384 -164,-646l3 -30c26,-262 123,-478 293,-648 170,-170 370,-255 601,-255 223,0 402,76 538,227l-201 286c-111,-117 -232,-176 -363,-176 -124,0 -232,51 -325,155 -92,103 -146,238 -163,404l-3 34c-16,171 12,307 85,409 73,103 177,154 310,154 131,0 263,-58 397,-174l141 264c-179,166 -379,249 -601,249z"/>
  <path id="15" class="fil1" d="M32571 12492c-131,0 -251,-30 -361,-90l142 -290c69,40 139,60 211,60 97,0 179,-63 245,-190l-461 -1769 397 0 285 1309 525 -1309 389 0 -792 1802c-75,172 -157,294 -246,367 -89,73 -200,110 -334,110z"/>
  <path id="16" class="fil1" d="M35466 12015c-206,0 -372,-69 -496,-208 -124,-139 -188,-321 -193,-548l-263 0 -70 720 -377 0 173 -1766 376 0 -70 723 263 0c51,-224 152,-405 304,-543 153,-138 331,-206 535,-206 229,0 407,84 534,253 126,169 177,385 151,649l-2 24c-26,262 -119,478 -280,648 -161,170 -356,254 -585,254zm-239 -488c63,108 155,162 275,162 120,0 221,-54 305,-163 84,-109 135,-250 152,-423 17,-174 -7,-315 -72,-423 -65,-109 -157,-164 -274,-164 -122,0 -224,54 -306,160 -81,107 -131,249 -148,427 -17,175 6,317 68,424z"/>
  <polygon id="17" class="fil1" points="38647,12365 38685,11979 36599,11979 36772,10213 37148,10213 37007,11656 37560,11656 37701,10213 38074,10213 37933,11656 38490,11656 38631,10213 39004,10213 38863,11656 39076,11656 38973,12365 "/>
  <path id="18" class="fil1" d="M39584 12492c-131,0 -251,-30 -361,-90l142 -290c69,40 139,60 210,60 98,0 180,-63 246,-190l-461 -1769 397 0 285 1309 524 -1309 390 0 -792 1802c-75,172 -157,294 -246,367 -89,73 -200,110 -334,110z"/>
  <path id="19" class="fil1" d="M42479 12015c-206,0 -372,-69 -496,-208 -124,-139 -188,-321 -193,-548l-263 0 -70 720 -377 0 173 -1766 376 0 -70 723 263 0c51,-224 152,-405 304,-543 153,-138 331,-206 535,-206 229,0 407,84 534,253 126,169 177,385 151,649l-2 24c-26,262 -119,478 -280,648 -161,170 -356,254 -585,254zm-239 -488c63,108 155,162 275,162 119,0 221,-54 305,-163 84,-109 135,-250 152,-423 17,-174 -8,-315 -72,-423 -65,-109 -157,-164 -274,-164 -123,0 -224,54 -306,160 -81,107 -131,249 -148,427 -17,175 6,317 68,424z"/>
  <path id="20" class="fil1" d="M19872 14734l228 -2333 830 0c226,0 403,54 529,160 126,107 180,255 161,444 -23,242 -155,416 -394,523 285,104 415,289 389,556 -20,206 -111,366 -272,480 -161,113 -368,170 -621,170l-850 0zm410 -344l487 0c135,0 244,-28 326,-86 83,-58 129,-140 139,-247 11,-106 -20,-189 -92,-248 -72,-59 -181,-88 -328,-88l-466 0 -66 669zm98 -996l403 0c129,0 233,-28 313,-85 80,-56 125,-138 135,-245 10,-102 -16,-181 -80,-236 -63,-56 -157,-83 -281,-83l-427 0 -63 649z"/>
  <path id="21" class="fil1" d="M22348 14767c-154,0 -278,-48 -374,-145 -96,-97 -136,-227 -120,-391l2 -20c18,-185 89,-325 212,-422 124,-97 283,-145 476,-145 144,0 278,23 400,70l7 -70c23,-242 -94,-363 -352,-363 -135,0 -286,33 -452,100l-43 -310c185,-82 380,-123 585,-123 228,0 396,59 504,176 107,118 150,289 128,513l-107 1097 -370 0 21 -217c-138,167 -311,250 -517,250zm141 -283c111,0 205,-32 284,-95 78,-64 122,-145 132,-245l18 -180c-92,-42 -200,-63 -324,-63 -109,0 -196,25 -261,76 -65,51 -102,122 -111,213l-1 21c-9,86 11,153 60,201 48,48 116,72 203,72z"/>
  <path id="22" class="fil1" d="M24343 14770c-231,0 -414,-84 -548,-253 -135,-169 -189,-384 -164,-646l3 -30c26,-262 124,-478 293,-648 170,-170 371,-255 602,-255 222,0 401,75 537,226l-201 287c-111,-118 -232,-177 -363,-177 -124,0 -232,52 -324,155 -93,103 -147,238 -163,405l-4 33c-16,171 12,308 85,410 74,102 177,153 310,153 131,0 263,-57 397,-173l141 263c-179,167 -379,250 -601,250z"/>
  <path id="23" class="fil1" d="M26359 15247c-131,0 -252,-30 -361,-90l141 -290c70,40 140,60 211,60 98,0 179,-64 245,-190l-460 -1769 396 0 286 1309 524 -1309 390 0 -793 1802c-74,171 -156,293 -245,367 -90,73 -201,110 -334,110z"/>
  <path id="24" class="fil1" d="M28471 14770c-231,0 -414,-84 -548,-253 -135,-169 -189,-384 -164,-646l3 -30c26,-262 123,-478 293,-648 170,-170 371,-255 602,-255 222,0 401,75 537,226l-201 287c-111,-118 -232,-177 -363,-177 -124,0 -232,52 -325,155 -92,103 -146,238 -162,405l-4 33c-16,171 12,308 85,410 73,102 177,153 310,153 131,0 263,-57 397,-173l141 263c-179,167 -379,250 -601,250z"/>
  <path id="25" class="fil1" d="M29311 14427c40,0 74,-8 102,-23 28,-16 59,-51 92,-107 33,-55 62,-134 88,-236 26,-103 52,-245 80,-427 28,-182 54,-404 80,-666l1189 0 -172 1766 -377 0 141 -1443 -459 0c-31,313 -67,568 -108,765 -42,196 -93,344 -155,444 -62,100 -126,167 -191,200 -66,34 -150,50 -252,50 -42,0 -113,-6 -211,-20l51 -316c30,9 64,13 102,13z"/>
  <path id="26" class="fil1" d="M31463 15247c-131,0 -252,-30 -361,-90l141 -290c70,40 140,60 211,60 98,0 180,-64 245,-190l-460 -1769 396 0 286 1309 524 -1309 390 0 -793 1802c-74,171 -156,293 -245,367 -90,73 -201,110 -334,110z"/>
  <polygon id="27" class="fil1" points="32959,14734 33131,12968 34224,12968 34192,13291 33476,13291 33335,14734 "/>
  <path id="28" class="fil1" d="M34584 15247c-131,0 -251,-30 -361,-90l142 -290c69,40 140,60 211,60 97,0 179,-64 245,-190l-460 -1769 396 0 285 1309 525 -1309 389 0 -792 1802c-74,171 -156,293 -246,367 -89,73 -200,110 -334,110z"/>
 </g>
</svg>
