<?xml version="1.0" encoding="UTF-8"?>
<!DOCTYPE svg PUBLIC "-//W3C//DTD SVG 1.1//EN" "http://www.w3.org/Graphics/SVG/1.1/DTD/svg11.dtd">
<!-- Creator: CorelDRAW X8 -->
<svg xmlns="http://www.w3.org/2000/svg" xml:space="preserve" width="400px" height="52px" version="1.1" style="shape-rendering:geometricPrecision; text-rendering:geometricPrecision; image-rendering:optimizeQuality; fill-rule:evenodd; clip-rule:evenodd"
viewBox="0 0 40000 5200"
 xmlns:xlink="http://www.w3.org/1999/xlink">
 <defs>
  <style>
   <![CDATA[
    .fil0 {fill:#FEFEFE;fill-rule:nonzero}
   ]]>
  </style>
 </defs>
 <g id="Слой_x0020_1">
  <metadata id="CorelCorpID_0Corel-Layer"/>
  <g id="_2054126795680">
   <path class="fil0" d="M2451 4322l0 -1678 -543 1806c-36,0 -75,-25 -116,-76 -42,-50 -74,-107 -96,-169 -19,66 -50,123 -93,172 -43,49 -89,73 -139,73l-510 -1771 0 1643c0,167 26,273 77,318 51,45 150,67 296,67l0 328 -70 0c-172,0 -294,-15 -367,-44 -73,-29 -132,-93 -176,-190 -50,97 -111,161 -183,190 -72,29 -193,44 -365,44l-66 0 0 -328c157,0 260,-25 309,-76 48,-50 72,-154 72,-309l0 -2736c0,-156 -24,-259 -72,-307 -49,-49 -152,-73 -309,-73l0 -328 66 0c172,0 293,14 365,41 72,28 133,90 183,187 44,-97 103,-159 176,-187 73,-27 195,-41 367,-41l70 0 0 328c-121,0 -182,25 -182,76 0,8 1,16 4,26 3,10 6,21 8,32l606 2169 626 -2093c8,-43 12,-74 12,-93 0,-78 -112,-117 -336,-117l0 -328 150 0c174,0 297,14 369,41 72,28 134,90 183,187 47,-97 108,-159 179,-187 72,-27 195,-41 367,-41l158 0 0 328c-162,0 -268,24 -319,73 -50,48 -75,151 -75,307l0 2736c0,155 27,259 82,309 54,51 158,76 312,76l0 328 -158 0c-173,0 -295,-15 -367,-44 -73,-29 -133,-93 -180,-190 -50,97 -111,161 -184,190 -72,29 -195,44 -371,44l-154 0 0 -328c156,0 261,-25 314,-76 54,-50 80,-154 80,-309zm1936 -3116l0 -328 199 0c296,0 487,76 572,228 45,-85 111,-145 199,-178 89,-33 206,-50 353,-50l145 0 0 328 -29 0c-83,0 -149,8 -197,26 -48,17 -72,63 -72,137 0,28 3,67 10,117 7,51 13,92 18,123l490 2824c19,97 49,167 89,210 40,43 106,64 197,64l37 0 0 328 -74 0c-186,0 -317,-18 -394,-53 -78,-35 -139,-95 -183,-181 -38,86 -97,146 -174,181 -77,35 -181,53 -311,53l-133 0 0 -328c105,0 180,-13 224,-40 45,-28 67,-80 67,-158 0,-35 -2,-74 -7,-117 -4,-43 -11,-100 -22,-170l-79 -514 -693 0 -99 561c-17,94 -25,170 -25,228 0,78 22,132 66,164 45,31 108,46 191,46l0 328 -149 0c-108,0 -189,-18 -243,-53 -54,-35 -99,-95 -134,-181 -42,86 -89,146 -142,181 -52,35 -147,53 -286,53l-170 0 0 -328c141,0 244,-32 307,-96 64,-64 115,-188 154,-371l530 -2625c20,-90 31,-151 36,-184 4,-33 6,-64 6,-91 0,-89 -73,-134 -220,-134l-54 0zm324 2081l530 0 -240 -1543 -290 1543zm1857 1748l0 -328c155,0 257,-25 307,-76 50,-50 75,-154 75,-309l0 -2736c0,-156 -25,-259 -73,-307 -48,-49 -151,-73 -309,-73l0 -328 158 0c85,0 157,3 215,9 58,6 107,17 148,32 40,16 73,39 99,70 26,32 52,71 77,117 25,-46 51,-85 79,-117 27,-31 61,-54 101,-70 40,-15 89,-26 147,-32 58,-6 132,-9 220,-9l25 0 0 328c-94,0 -159,30 -195,90 -36,61 -54,157 -54,290l0 1841 755 -1841c0,-133 -19,-229 -56,-290 -36,-60 -99,-90 -189,-90l0 -328 25 0c85,0 157,3 215,9 58,6 106,17 146,32 41,16 75,39 104,70 29,32 55,71 80,117 25,-46 51,-85 77,-117 26,-31 59,-54 99,-70 40,-15 88,-26 145,-32 56,-6 127,-9 213,-9l161 0 0 328c-156,0 -259,24 -308,73 -49,48 -74,151 -74,307l0 2736c0,155 26,259 76,309 51,51 152,76 306,76l0 328 -161 0c-86,0 -157,-3 -213,-9 -57,-6 -105,-18 -145,-35 -40,-18 -73,-42 -99,-73 -26,-31 -52,-70 -77,-117 -25,47 -51,86 -80,117 -29,31 -63,55 -104,73 -40,17 -88,29 -146,35 -58,6 -130,9 -215,9l-25 0 0 -328c90,0 153,-30 189,-90 37,-61 56,-159 56,-295l0 -1836 -755 1836c0,136 18,234 54,295 36,60 101,90 195,90l0 328 -25 0c-88,0 -162,-3 -220,-9 -58,-6 -107,-18 -147,-35 -40,-18 -74,-42 -101,-73 -28,-31 -54,-70 -79,-117 -25,47 -51,86 -77,117 -26,31 -59,55 -99,73 -41,17 -90,29 -148,35 -58,6 -130,9 -215,9l-158 0zm1567 -4922l349 0c0,155 -51,283 -154,382 -102,100 -224,150 -365,150 -146,0 -268,-50 -366,-150 -99,-99 -150,-227 -156,-382l357 0c16,105 71,157 165,157 97,0 154,-52 170,-157zm3492 4974c-53,-50 -102,-98 -148,-143 -45,-45 -89,-85 -130,-120 -138,176 -296,263 -473,263 -188,0 -350,-55 -487,-166 -137,-111 -250,-262 -338,-453 -89,-191 -154,-416 -197,-675 -43,-260 -64,-537 -64,-834 0,-300 21,-578 64,-835 43,-258 109,-483 199,-676 90,-193 203,-344 338,-453 135,-109 297,-164 485,-164 180,0 337,90 473,269 41,-39 85,-80 130,-125 46,-45 95,-93 148,-144l157 129c-52,66 -90,134 -112,202 -22,68 -33,139 -33,213 0,109 7,195 21,257 14,63 21,117 21,164 0,140 -31,258 -92,354 -61,95 -150,143 -269,143 -119,0 -208,-55 -268,-164 -59,-109 -89,-218 -89,-327 0,-117 44,-249 133,-398 -61,-132 -149,-198 -266,-198 -107,0 -190,47 -246,143 -57,95 -85,231 -85,406l0 2409c0,175 28,311 85,406 56,95 139,143 246,143 117,0 205,-66 266,-198 -89,-149 -133,-281 -133,-398 0,-109 33,-212 98,-310 65,-97 144,-146 238,-146 130,0 226,43 288,129 62,85 94,198 94,339 0,46 -7,100 -21,160 -14,61 -21,146 -21,255 0,74 11,145 33,213 22,68 60,136 112,202l-157 128zm974 -3747c116,172 174,326 174,462 0,136 -32,247 -97,330 -65,84 -146,126 -243,126 -99,0 -187,-43 -263,-129 -76,-85 -114,-198 -114,-339 0,-15 3,-42 8,-79 6,-37 13,-77 21,-119 8,-43 15,-85 21,-126 5,-41 8,-71 8,-91 0,-140 -55,-278 -166,-415l158 -129c44,39 85,78 124,115 39,37 76,75 112,114 174,-152 350,-229 526,-229 169,0 338,77 506,229 166,-152 333,-229 502,-229 174,0 351,77 531,229 36,-39 73,-78 112,-117 38,-39 81,-76 128,-112l150 129c-111,137 -166,275 -166,415 0,55 9,128 29,219 19,92 29,157 29,196 0,141 -38,254 -114,339 -76,86 -166,129 -268,129 -97,0 -177,-42 -240,-126 -64,-83 -96,-194 -96,-330 0,-70 15,-143 44,-219 29,-76 75,-157 139,-243 -69,-97 -148,-146 -236,-146 -101,0 -163,46 -188,137 -24,92 -36,206 -36,342l0 2649c0,155 24,259 74,309 50,51 152,76 307,76l0 328 -157 0c-85,0 -157,-3 -215,-9 -58,-6 -107,-18 -147,-35 -40,-18 -73,-42 -99,-73 -26,-31 -52,-70 -76,-117 -50,97 -111,161 -182,190 -72,29 -193,44 -364,44l-161 0 0 -328c154,0 256,-25 306,-76 50,-50 75,-154 75,-309l0 -2649c0,-159 -14,-279 -41,-359 -28,-80 -90,-120 -187,-120 -91,0 -167,49 -228,146zm3375 1701l0 1187c0,175 17,299 50,371 33,72 99,108 199,108 63,0 125,-19 184,-58 60,-39 118,-95 177,-170 -92,-140 -137,-266 -137,-380 0,-132 35,-250 105,-353 71,-103 154,-155 251,-155 103,0 194,38 276,114 82,76 122,207 122,394 0,67 -13,138 -39,214 -26,76 -40,151 -40,225 0,148 54,284 162,409l-149 129c-55,-47 -107,-94 -156,-141 -48,-46 -96,-95 -143,-146 -121,113 -227,189 -317,228 -90,39 -195,59 -317,59 -254,0 -438,-92 -551,-275 -25,47 -51,86 -77,117 -26,31 -59,55 -100,73 -40,17 -89,29 -147,35 -58,6 -130,9 -215,9l-158 0 0 -328c158,0 261,-25 309,-76 48,-50 72,-154 72,-309l0 -2736c0,-156 -23,-259 -70,-307 -47,-49 -151,-73 -311,-73l0 -328 158 0c85,0 157,3 215,9 58,6 107,17 147,32 41,16 74,39 100,70 26,32 52,71 77,117 94,-183 287,-275 580,-275 246,0 462,80 647,240 39,-35 79,-73 122,-114 43,-41 88,-83 135,-126l149 129c-108,137 -162,275 -162,415 0,82 9,149 27,202 18,53 27,124 27,213 0,164 -36,283 -110,357 -73,74 -160,111 -263,111 -94,0 -175,-49 -242,-146 -68,-98 -102,-201 -102,-310 0,-129 58,-279 174,-450 -113,-98 -224,-146 -331,-146 -122,0 -207,30 -255,90 -49,61 -73,165 -73,313l0 1011 199 0c86,0 171,-2 255,-8 84,-6 160,-15 226,-27 0,63 -12,113 -37,152 -25,39 -57,72 -96,100 45,23 78,57 100,102 22,45 33,89 33,132 -75,-12 -152,-20 -232,-24 -80,-4 -163,-6 -249,-6l-199 0zm1903 1281l0 -2736c0,-156 -24,-259 -72,-307 -49,-49 -152,-73 -309,-73l0 -328 157 0c86,0 158,3 216,9 58,6 107,17 147,32 40,16 73,39 100,70 26,32 51,71 76,117 141,-183 362,-275 664,-275 160,0 304,29 431,85 127,57 231,142 311,255 149,198 224,483 224,853 0,382 -97,674 -290,877 -188,187 -410,281 -664,281 -83,0 -200,-12 -352,-35l0 1175c0,155 25,259 76,309 52,51 153,76 305,76l0 328 -153 0c-89,0 -163,-3 -222,-9 -60,-6 -109,-18 -149,-35 -40,-18 -74,-42 -102,-73 -28,-31 -54,-70 -79,-117 -25,47 -50,86 -76,117 -27,31 -60,55 -100,73 -40,17 -89,29 -147,35 -58,6 -130,9 -216,9l-157 0 0 -328c155,0 257,-25 307,-76 49,-50 74,-154 74,-309zm639 -2748l0 1117c36,7 70,13 101,17 32,4 62,6 89,6 161,0 275,-42 345,-126 69,-84 103,-223 103,-418l0 -415c0,-171 -31,-306 -93,-403 -62,-98 -150,-146 -263,-146 -188,0 -282,123 -282,368zm1923 2748l0 -2736c0,-156 -24,-259 -72,-307 -48,-49 -151,-73 -309,-73l0 -328 158 0c85,0 157,3 215,9 58,6 107,17 147,32 41,16 74,39 100,70 26,32 52,71 77,117 25,-46 51,-85 78,-117 28,-31 62,-54 102,-70 40,-15 89,-26 147,-32 58,-6 131,-9 220,-9l25 0 0 328c-102,19 -170,54 -201,105 -32,51 -48,142 -48,275l0 1034 634 0 0 -1034c0,-133 -17,-224 -51,-275 -34,-51 -101,-86 -202,-105l0 -328 34 0c85,0 157,3 215,9 58,6 107,17 148,32 40,16 73,39 101,70 28,32 54,71 79,117 47,-97 106,-159 178,-187 72,-27 192,-41 361,-41l157 0 0 328c-157,0 -260,24 -308,73 -49,48 -73,151 -73,307l0 2736c0,155 26,259 77,309 51,51 152,76 304,76l0 328 -157 0c-169,0 -289,-15 -361,-44 -72,-29 -131,-93 -178,-190 -25,47 -51,86 -79,117 -28,31 -61,55 -101,73 -41,17 -90,29 -148,35 -58,6 -130,9 -215,9l-34 0 0 -328c101,-19 168,-54 202,-105 34,-50 51,-144 51,-280l0 -1281 -634 0 0 1281c0,136 16,230 48,280 31,51 99,86 201,105l0 328 -25 0c-89,0 -162,-3 -220,-9 -58,-6 -107,-18 -147,-35 -40,-18 -74,-42 -102,-73 -27,-31 -53,-70 -78,-117 -25,47 -51,86 -77,117 -26,31 -59,55 -100,73 -40,17 -89,29 -147,35 -58,6 -130,9 -215,9l-158 0 0 -328c155,0 257,-25 307,-76 50,-50 74,-154 74,-309zm5109 385l0 328 -158 0c-172,0 -294,-15 -364,-44 -71,-29 -130,-93 -177,-190 -25,47 -52,86 -81,117 -29,31 -64,55 -104,73 -40,17 -89,29 -145,35 -58,6 -129,9 -214,9l-167 0 0 -328c160,0 265,-25 315,-76 50,-50 75,-154 75,-309l0 -1281 -187 0c-157,0 -270,75 -338,225 -67,150 -101,372 -101,664l0 1105c-147,-12 -259,-90 -336,-234 -36,90 -89,151 -158,184 -69,33 -175,50 -319,50l-116 0 0 -328 25 0c110,0 186,-30 226,-90 40,-61 60,-177 60,-348l0 -450c0,-250 27,-450 83,-602 55,-152 163,-277 323,-374 -160,-78 -276,-192 -346,-342 -70,-150 -106,-350 -106,-600 0,-148 20,-286 60,-415 41,-128 101,-241 181,-339 81,-97 179,-174 297,-231 118,-56 253,-85 405,-85 158,0 296,25 414,74 117,48 202,116 255,201 47,-97 105,-159 177,-187 70,-27 191,-41 363,-41l158 0 0 328c-159,0 -264,24 -315,73 -50,48 -75,151 -75,307l0 2736c0,155 26,259 77,309 52,51 157,76 313,76zm-1020 -3086c0,-156 -22,-264 -64,-325 -43,-60 -120,-90 -231,-90 -113,0 -197,41 -250,123 -54,81 -81,212 -81,391l0 339c0,207 31,352 95,436 64,83 175,125 336,125l195 0 0 -999zm3566 1526l-150 280 0 895c0,148 23,249 69,304 45,54 136,81 271,81l0 328 -112 0c-88,0 -162,-3 -222,-9 -59,-6 -109,-18 -149,-35 -40,-18 -74,-42 -101,-73 -28,-31 -54,-70 -79,-117 -25,47 -51,86 -77,117 -26,31 -59,55 -99,73 -40,17 -90,29 -148,35 -58,6 -129,9 -215,9l-158 0 0 -328c158,0 261,-25 309,-76 49,-50 73,-154 73,-309l0 -2736c0,-156 -24,-259 -73,-307 -48,-49 -151,-73 -309,-73l0 -328 158 0c86,0 157,3 215,9 58,6 108,17 148,32 40,16 73,39 99,70 26,32 52,71 77,117 25,-46 51,-85 79,-117 27,-31 61,-54 101,-70 40,-15 90,-26 149,-32 60,-6 134,-9 222,-9l112 0 0 328c-135,0 -226,25 -271,76 -46,50 -69,152 -69,304l0 1181 655 -1216c42,-82 63,-148 63,-199 0,-98 -56,-146 -166,-146l0 -328 58 0c135,0 232,11 290,33 58,21 101,71 129,149 66,-121 167,-182 302,-182l145 0 0 328c-85,0 -154,18 -205,55 -51,37 -103,104 -155,202l-506 970 630 1976c36,113 73,191 112,234 39,43 106,64 203,64l0 328 -108 0c-132,0 -230,-12 -292,-35 -62,-24 -114,-68 -155,-135 -75,106 -169,162 -282,170l-568 -1888zm1957 1175l0 -2736c0,-156 -25,-259 -73,-307 -48,-49 -151,-73 -309,-73l0 -328 158 0c85,0 157,3 215,9 58,6 107,17 147,32 41,16 74,39 100,70 26,32 52,71 77,117 141,-183 362,-275 663,-275 160,0 304,29 431,85 127,57 231,142 311,255 150,198 224,483 224,853 0,382 -97,674 -290,877 -188,187 -409,281 -663,281 -83,0 -201,-12 -353,-35l0 1175c0,155 26,259 77,309 51,51 152,76 305,76l0 328 -154 0c-88,0 -162,-3 -222,-9 -59,-6 -109,-18 -149,-35 -40,-18 -74,-42 -102,-73 -27,-31 -53,-70 -78,-117 -25,47 -51,86 -77,117 -26,31 -59,55 -100,73 -40,17 -89,29 -147,35 -58,6 -130,9 -215,9l-158 0 0 -328c155,0 257,-25 307,-76 50,-50 75,-154 75,-309zm638 -2748l0 1117c36,7 70,13 102,17 31,4 61,6 89,6 160,0 275,-42 344,-126 69,-84 104,-223 104,-418l0 -415c0,-171 -31,-306 -94,-403 -62,-98 -150,-146 -263,-146 -188,0 -282,123 -282,368zm1912 -368l0 -328 199 0c295,0 486,76 572,228 44,-85 110,-145 199,-178 88,-33 206,-50 352,-50l145 0 0 328 -29 0c-83,0 -148,8 -197,26 -48,17 -72,63 -72,137 0,28 3,67 10,117 7,51 13,92 19,123l489 2824c19,97 49,167 89,210 40,43 106,64 197,64l37 0 0 328 -74 0c-185,0 -317,-18 -394,-53 -77,-35 -138,-95 -182,-181 -39,86 -97,146 -175,181 -77,35 -181,53 -311,53l-132 0 0 -328c105,0 179,-13 224,-40 44,-28 66,-80 66,-158 0,-35 -2,-74 -6,-117 -4,-43 -12,-100 -23,-170l-79 -514 -692 0 -100 561c-16,94 -25,170 -25,228 0,78 22,132 67,164 44,31 107,46 190,46l0 328 -149 0c-108,0 -189,-18 -242,-53 -54,-35 -99,-95 -135,-181 -42,86 -89,146 -141,181 -53,35 -148,53 -286,53l-170 0 0 -328c141,0 243,-32 307,-96 63,-64 114,-188 153,-371l531 -2625c19,-90 31,-151 35,-184 4,-33 6,-64 6,-91 0,-89 -73,-134 -220,-134l-53 0zm323 2081l531 0 -241 -1543 -290 1543z"/>
   <path class="fil0" d="M36624 5087c-52,-50 -101,-98 -147,-143 -45,-45 -89,-85 -130,-120 -139,176 -296,263 -473,263 -188,0 -351,-55 -487,-166 -137,-111 -250,-262 -338,-453 -89,-191 -154,-416 -197,-675 -43,-260 -64,-537 -64,-834 0,-300 21,-578 64,-835 43,-258 109,-483 199,-676 90,-193 202,-344 338,-453 135,-109 297,-164 485,-164 180,0 337,90 473,269 41,-39 85,-80 130,-125 46,-45 95,-93 147,-144l158 129c-53,66 -90,134 -112,202 -22,68 -33,139 -33,213 0,109 7,195 21,257 13,63 20,117 20,164 0,140 -30,258 -91,354 -61,95 -151,143 -269,143 -119,0 -208,-55 -268,-164 -59,-109 -89,-218 -89,-327 0,-117 44,-249 133,-398 -61,-132 -150,-198 -266,-198 -107,0 -190,47 -246,143 -57,95 -85,231 -85,406l0 2409c0,175 28,311 85,406 56,95 139,143 246,143 116,0 205,-66 266,-198 -89,-149 -133,-281 -133,-398 0,-109 32,-212 97,-310 65,-97 145,-146 239,-146 130,0 226,43 288,129 62,85 93,198 93,339 0,46 -7,100 -20,160 -14,61 -21,146 -21,255 0,74 11,145 33,213 22,68 59,136 112,202l-158 128zm481 -52l0 -328c155,0 257,-25 307,-76 50,-50 75,-154 75,-309l0 -2736c0,-156 -24,-259 -73,-307 -48,-49 -151,-73 -309,-73l0 -328 158 0c86,0 157,3 215,9 59,6 108,17 148,32 40,16 73,39 99,70 27,32 52,71 77,117 25,-46 51,-85 79,-117 27,-31 61,-54 101,-70 40,-15 89,-26 147,-32 58,-6 132,-9 220,-9l25 0 0 328c-94,0 -159,30 -195,90 -36,61 -54,157 -54,290l0 1841 755 -1841c0,-133 -19,-229 -55,-290 -37,-60 -100,-90 -190,-90l0 -328 25 0c85,0 157,3 215,9 58,6 107,17 147,32 40,16 74,39 103,70 29,32 56,71 80,117 25,-46 51,-85 77,-117 26,-31 60,-54 99,-70 40,-15 88,-26 145,-32 57,-6 127,-9 213,-9l161 0 0 328c-156,0 -259,24 -308,73 -49,48 -74,151 -74,307l0 2736c0,155 26,259 77,309 50,51 152,76 305,76l0 328 -161 0c-86,0 -156,-3 -213,-9 -57,-6 -105,-18 -145,-35 -39,-18 -73,-42 -99,-73 -26,-31 -52,-70 -77,-117 -24,47 -51,86 -80,117 -29,31 -63,55 -103,73 -40,17 -89,29 -147,35 -58,6 -130,9 -215,9l-25 0 0 -328c90,0 153,-30 190,-90 36,-61 55,-159 55,-295l0 -1836 -755 1836c0,136 18,234 54,295 36,60 101,90 195,90l0 328 -25 0c-88,0 -162,-3 -220,-9 -58,-6 -107,-18 -147,-35 -40,-18 -74,-42 -101,-73 -28,-31 -54,-70 -79,-117 -25,47 -50,86 -77,117 -26,31 -59,55 -99,73 -40,17 -89,29 -148,35 -58,6 -129,9 -215,9l-158 0z"/>
  </g>
 </g>
</svg>
