<svg width="20" height="19" fill="none" xmlns="http://www.w3.org/2000/svg"><path d="M9.654 3.943c1.527 0 2.966.67 4.02 1.718v.003c0-.503.342-.883.814-.883h.12c.746 0 .895.696.895.916l.003 7.82c-.051.512.535.777.86.447 1.266-1.289 2.783-6.634-.788-9.728-3.33-2.888-7.799-2.411-10.175-.79-2.526 1.728-4.14 5.545-2.572 9.132 1.713 3.91 6.608 5.077 9.522 3.914 1.475-.59 2.155 1.382.622 2.027-2.31.976-8.75.877-11.758-4.28C-.814 10.754-.707 4.625 4.684 1.451c4.12-2.43 9.558-1.757 12.835 1.631 3.425 3.546 3.227 10.18-.117 12.758-1.514 1.173-3.763.033-3.747-1.676l-.017-.557a5.66 5.66 0 01-3.984 1.64c-3.02 0-5.68-2.633-5.68-5.622 0-3.02 2.66-5.682 5.68-5.682zm3.8 5.467c-.115-2.189-1.756-3.507-3.738-3.507h-.075c-2.285 0-3.554 1.783-3.554 3.803 0 2.266 1.533 3.697 3.545 3.697 2.245 0 3.72-1.627 3.827-3.552l-.006-.44z" fill="#fff"/></svg>