<svg width="21" height="17" id="Слой_1" data-name="Слой 1" xmlns="http://www.w3.org/2000/svg" viewBox="0 0 20.18 17"><defs><style>.cls-1{fill:#3c3c3c;}</style></defs><title>все иконки</title><path class="cls-1" d="M17.14,4.57l.28-2.4-3.88-.46V0H0V12.08H2.61l-.06.49,2.56.3L4.8,14.72,18.14,17l2-11.91Zm-3.6-1.36,2.26.27-1.07,9-3.45-.41h2.26Zm-12,7.35V1.49H12.08v9.07ZM17,15.26,6.57,13.48l.08-.42L16,14.17l1-8.12,1.53.26Z"/><path class="cls-1" d="M8.63,6.6a2.26,2.26,0,0,0,.42-1.3,2.29,2.29,0,0,0-4.58,0A2.25,2.25,0,0,0,4.9,6.63,3.13,3.13,0,0,0,3.67,9H5.16A1.63,1.63,0,0,1,8.42,9H9.91A3.12,3.12,0,0,0,8.63,6.6ZM6.76,6.08a.78.78,0,1,1,.78-.78A.77.77,0,0,1,6.76,6.08Z"/></svg>
