<svg width="18" height="18" id="Слой_1" data-name="Слой 1" xmlns="http://www.w3.org/2000/svg" viewBox="0 0 17.76 18"><defs><style>.cls-1{fill:#3c3c3c;}</style></defs><title>все иконки</title><path class="cls-1" d="M12.16,11.32h-1c-.05,0-.31-.13-.31-.72,0-.44.22-.53.36-.54H13V9.19h-.85V8.28h-.87v.91h-.07A1.28,1.28,0,0,0,10,10.6c0,1.2.78,1.59,1.16,1.59h1c.11,0,.36.06.36.64s-.31.63-.39.64H10.4v.87h.84v.88h.87v-.88h0a1.37,1.37,0,0,0,1.27-1.51C13.4,11.64,12.62,11.32,12.16,11.32Z"/><path class="cls-1" d="M12.35,5.61a6.19,6.19,0,1,0-6.93,6.8,6.19,6.19,0,1,0,6.93-6.8Zm-11,.66A4.82,4.82,0,0,1,11,5.58,6.22,6.22,0,0,0,6.48,8.22,1.75,1.75,0,0,1,4.91,7H7.05V6.35H4.78a.71.71,0,0,1,0-.15c0-.1,0-.21,0-.31H7.08V5.24H5a1.71,1.71,0,0,1,1.52-1,1.45,1.45,0,0,1,.81.24l.43-.94A2.5,2.5,0,0,0,6.5,3.16,2.8,2.8,0,0,0,3.88,5.24H3.33v.65h.42c0,.1,0,.21,0,.31a.71.71,0,0,0,0,.15H3.3V7h.54a2.91,2.91,0,0,0,2.1,2.18A6.22,6.22,0,0,0,5.42,11,4.82,4.82,0,0,1,1.37,6.27Zm10.2,10.29a4.82,4.82,0,1,1,4.82-4.82A4.82,4.82,0,0,1,11.57,16.56Z"/><path class="cls-1" d="M15,2.74h.44a.89.89,0,0,1,.66.21,1,1,0,0,1,.23.64v2h1.37V3.64A2.39,2.39,0,0,0,17.12,2a2.19,2.19,0,0,0-1.66-.64H15V0L12.38,2.13,15,4.26Z"/><path class="cls-1" d="M2.7,15.26H2.26a.89.89,0,0,1-.66-.21,1,1,0,0,1-.23-.64v-2H0v1.91A2.39,2.39,0,0,0,.6,16a2.19,2.19,0,0,0,1.66.64H2.7V18l2.64-2.13L2.7,13.74Z"/></svg>
