<svg width="59" height="29" id="Слой_1" data-name="Слой 1" xmlns="http://www.w3.org/2000/svg" viewBox="0 0 59 29"><defs><style>.cls-1{fill:#c3cace;}.cls-2{fill:#3c3c3c;}</style></defs><title>все иконки</title><rect class="cls-1" width="59" height="29"/><path class="cls-2" d="M41.81,6.87a10.12,10.12,0,0,1-2.9.79,5.06,5.06,0,0,0,2.22-2.79,10,10,0,0,1-3.21,1.22,5.06,5.06,0,0,0-8.74,3.46,4.89,4.89,0,0,0,.14,1.15A14.32,14.32,0,0,1,18.91,5.42,5,5,0,0,0,18.22,8a5.08,5.08,0,0,0,2.25,4.21,5.06,5.06,0,0,1-2.29-.64v.07a5.06,5.06,0,0,0,4.05,5,5.27,5.27,0,0,1-1.33.17,5,5,0,0,1-.95-.09,5.06,5.06,0,0,0,4.72,3.51A10.17,10.17,0,0,1,18.4,22.3a9.71,9.71,0,0,1-1.21-.07A14.36,14.36,0,0,0,39.3,10.13c0-.21,0-.43,0-.65a10.42,10.42,0,0,0,2.52-2.61Z"/></svg>
