<svg width="59" height="29" id="Слой_1" data-name="Слой 1" xmlns="http://www.w3.org/2000/svg" viewBox="0 0 59 29"><defs><style>.cls-1{fill:#c3cace;}.cls-2{fill:#3c3c3c;fill-rule:evenodd;}</style></defs><title>все иконки</title><rect class="cls-1" width="59" height="29"/><path class="cls-2" d="M29.5,14.55a5.1,5.1,0,0,0,5.17-5,5.17,5.17,0,0,0-10.34,0A5.1,5.1,0,0,0,29.5,14.55Zm0-7.64a2.62,2.62,0,1,1-2.69,2.62A2.65,2.65,0,0,1,29.5,6.91Zm4.9,7.54a1.32,1.32,0,0,0-.59.15.16.16,0,0,0-.1,0,8.87,8.87,0,0,1-4.22,1.45,8.46,8.46,0,0,1-4.18-1.45l-.1,0a1.29,1.29,0,0,0-.61-.16,1.33,1.33,0,0,0-1.35,1.31,1.26,1.26,0,0,0,.62,1.07.13.13,0,0,0,.05.06,13.29,13.29,0,0,0,4.44,1.7l-3.78,3.67a1.29,1.29,0,0,0-.41.93,1.35,1.35,0,0,0,2.29.93h0l3-2.93,3,2.93h0a1.31,1.31,0,0,0,.94.38,1.33,1.33,0,0,0,1.34-1.31,1.29,1.29,0,0,0-.41-.93L30.6,18.6a12.8,12.8,0,0,0,4.5-1.73.35.35,0,0,0,.09-.07,1.29,1.29,0,0,0,.56-1A1.33,1.33,0,0,0,34.4,14.45Z"/></svg>
