<svg width="23" height="14" id="Слой_1" data-name="Слой 1" xmlns="http://www.w3.org/2000/svg" viewBox="0 0 23.91 14"><defs><style>.cls-1{fill:#3c3c3c;fill-rule:evenodd;}</style></defs><title>все иконки</title><path class="cls-1" d="M19.86,6.86S23,2.42,23.33,1c.1-.52-.13-.81-.67-.81H19.93a1,1,0,0,0-1.05.66A25.13,25.13,0,0,1,15.61,6c-.58.64-.87.83-1.19.83S14,6.57,14,6V.92C14,.21,14,0,13.37,0H9a.48.48,0,0,0-.54.46c0,.67,1,.82,1,2.63V6.82c0,.75,0,1-.39,1C8.14,7.87,5.9,4.63,4.65,1,4.4.21,4.13,0,3.42,0H.69A.65.65,0,0,0,0,.67C0,1.4.86,4.78,4.21,9.31,6.47,12.35,9.43,14,12.1,14c1.63,0,2-.27,2-1V10.7c0-.58.22-.83.56-.83s1,.12,2.59,1.65c1.83,1.75,2,2.48,3,2.48h3.07c.31,0,.6-.15.6-.67,0-.69-.9-1.92-2.27-3.38C21.07,9.2,20.15,8.39,19.86,8s-.29-.69,0-1.15Z"/></svg>
