<svg width="16" height="12" id="Слой_1" data-name="Слой 1" xmlns="http://www.w3.org/2000/svg" viewBox="0 0 17.14 12"><defs><style>.cls-1{fill:#3c3c3c;}</style></defs><title>все иконки</title><path class="cls-1" d="M16.78,1.87A2.13,2.13,0,0,0,15.27.36,51,51,0,0,0,8.57,0a51,51,0,0,0-6.7.36A2.17,2.17,0,0,0,.36,1.87,22.25,22.25,0,0,0,0,6a22.25,22.25,0,0,0,.36,4.13,2.17,2.17,0,0,0,1.51,1.51,51,51,0,0,0,6.7.36,51,51,0,0,0,6.7-.36,2.13,2.13,0,0,0,1.51-1.51A22.25,22.25,0,0,0,17.14,6,22.25,22.25,0,0,0,16.78,1.87ZM6.86,8.57V3.43L11.31,6Z"/></svg>
