<svg width="16" height="16" id="Слой_1" data-name="Слой 1" xmlns="http://www.w3.org/2000/svg" viewBox="0 0 15.43 16"><defs><style>.cls-1{fill:#3c3c3c;}</style></defs><title>все иконки</title><path class="cls-1" d="M10.54,8.94A4.9,4.9,0,1,0,5,8.9,7.72,7.72,0,0,0,0,16H1.38A6.36,6.36,0,0,1,6.75,9.86l.4,1.29H8.43l.39-1.26A6.33,6.33,0,0,1,14.05,16h1.38A7.71,7.71,0,0,0,10.54,8.94Zm-6.26-4A3.52,3.52,0,1,1,7.8,8.41,3.52,3.52,0,0,1,4.28,4.89Z"/><polygon class="cls-1" points="7.15 11.85 6.45 16 9.13 16 8.43 11.85 7.15 11.85"/></svg>
