<svg width="18" height="18" id="Слой_1" data-name="Слой 1" xmlns="http://www.w3.org/2000/svg" viewBox="0 0 18.06 18"><defs><style>.cls-1{fill:#3c3c3c;}</style></defs><title>все иконки</title><path class="cls-1" d="M2.8,13.37A7.58,7.58,0,0,1,12.52,2.28V.71A9,9,0,0,0,1.84,14.45H0v1.39H4.18V11.65H2.8Z"/><path class="cls-1" d="M18.06,2.05H13.88V6.23h1.38V4.71A7.58,7.58,0,0,1,5.6,15.78v1.55A9,9,0,0,0,16.07,3.43h2Z"/><path class="cls-1" d="M9.72,14.48V13.07h0a2.17,2.17,0,0,0,2-2.4c0-1.9-1.23-2.4-2-2.4H8.2c-.08,0-.5-.2-.5-1.14,0-.71.35-.85.57-.87h2.81V4.88H9.72V3.43H8.34V4.88H8.23A2,2,0,0,0,6.32,7.13c0,1.9,1.24,2.52,1.84,2.52H9.81c.17,0,.57.1.57,1s-.49,1-.63,1H7v1.39H8.34v1.41Z"/></svg>
