<svg width="9" height="14" id="Слой_1" data-name="Слой 1" xmlns="http://www.w3.org/2000/svg" viewBox="0 0 9.38 15"><defs><style>.cls-1{fill:#3c3c3c;fill-rule:evenodd;}</style></defs><title>все иконки</title><path class="cls-1" d="M4.69,7.54A3.83,3.83,0,0,0,8.57,3.77,3.83,3.83,0,0,0,4.69,0,3.83,3.83,0,0,0,.81,3.77,3.83,3.83,0,0,0,4.69,7.54Zm0-5.73a2,2,0,0,1,2,2,2,2,0,0,1-2,2,2,2,0,0,1-2-2A2,2,0,0,1,4.69,1.81ZM8.37,7.46a1.11,1.11,0,0,0-.45.11l-.08,0A6.55,6.55,0,0,1,4.68,8.69,6.48,6.48,0,0,1,1.54,7.61l-.07,0A1,1,0,0,0,1,7.46a1,1,0,0,0-1,1,1,1,0,0,0,.46.81.11.11,0,0,0,0,0,9.67,9.67,0,0,0,3.32,1.28L1,13.32a1,1,0,0,0-.31.7,1,1,0,0,0,1,1,1.05,1.05,0,0,0,.71-.28h0l2.26-2.19,2.26,2.19h0a1,1,0,0,0,.7.28,1,1,0,0,0,1-1,1,1,0,0,0-.31-.7L5.51,10.57A9.52,9.52,0,0,0,8.89,9.28L9,9.22a1,1,0,0,0,.43-.78A1,1,0,0,0,8.37,7.46Z"/></svg>
