<svg width="59" height="29" id="Слой_1" data-name="Слой 1" xmlns="http://www.w3.org/2000/svg" viewBox="0 0 59 29"><defs><style>.cls-1{fill:#c3cace;}.cls-2{fill:#3c3c3c;}</style></defs><title>все иконки</title><rect class="cls-1" width="59" height="29"/><path class="cls-2" d="M33.44,4.5H25.56a5.81,5.81,0,0,0-5.8,5.8v8.4a5.81,5.81,0,0,0,5.8,5.8h7.88a5.81,5.81,0,0,0,5.8-5.8V10.3A5.81,5.81,0,0,0,33.44,4.5Zm4,14.2a4,4,0,0,1-4,4H25.56a4,4,0,0,1-4-4V10.3a4,4,0,0,1,4-4h7.88a4,4,0,0,1,4,4Z"/><path class="cls-2" d="M29.53,9.22a5.25,5.25,0,1,0,0,10.5,5.28,5.28,0,0,0,5.25-5.23C34.81,11.54,32.88,9.32,29.53,9.22Zm3.38,5.23a3.41,3.41,0,1,1-6.82,0,3.38,3.38,0,0,1,3.29-3.41C31.51,11.06,33,12.28,32.91,14.45Z"/><circle class="cls-2" cx="34.83" cy="9.12" r="0.92"/></svg>
