<?xml version="1.0" encoding="utf-8"?>
<!-- Generator: Adobe Illustrator 22.1.0, SVG Export Plug-In . SVG Version: 6.00 Build 0)  -->
<svg width="96" version="1.1" id="Слой_1" xmlns="http://www.w3.org/2000/svg" xmlns:xlink="http://www.w3.org/1999/xlink" x="0px" y="0px"
	 viewBox="0 0 96.1 44" style="enable-background:new 0 0 96.1 44;" xml:space="preserve">
<style type="text/css">
	.st0{fill-rule:evenodd;clip-rule:evenodd;fill:#026666;}
</style>
<path class="st0" d="M47.9,2.6c-6.4,0-12.6,0.6-18.1,1.7c2.5,3.8,10.2,6,18.1,6.2V2.6z M26.8,23.9h-0.6v1.7h0.2c0.1,0,0.3,0,0.3,0
	c0.9,0,1.4-0.3,1.4-0.8C28.1,24.2,27.3,23.9,26.8,23.9z M48.9,10.5c7.8,0.1,15.6-1.9,18.1-6.1c-5.5-1.1-11.6-1.7-18.1-1.8V10.5z
	 M28.8,4.5c-4.9,1-9.3,2.4-13.1,4c9.7,3.7,20.9,5.6,32.2,5.6v-2.4C39.7,11.5,31.7,9,28.8,4.5z M48.9,14c11-0.1,22-2,31.6-5.6
	c-3.6-1.6-7.8-2.9-12.5-3.9c-2.8,4.9-10.9,7.2-19,7.1V14z M14.5,9c-7,3.3-11.3,7.6-11.6,12.4h19.6v-1.7h-1l1-4.2h5.4v-0.4h3.4
	l-1,4.6h-4.1v1.7h0.4l0.1-0.5c0.9,0,2.2,0.1,3,0.5h3.6v-1.8h-1l1-4.2H38V15h3.4l-0.9,4.6h-3.4v0.9h4.2l-0.2,0.9h3.2l0.6-1.8H44
	l0.8-4.2h3.1V15C36.3,15,24.7,13,14.5,9z M50.7,21.4h5.9v-1.8h-3.1l0.9-4.2h6l0.3-0.4H64l-1,4.6h-2.7v1.8h6.3l0.5-1.8h-1l1-4.2h5.2
	l1.5,6h19.5c-0.3-4.8-4.7-9.1-11.7-12.4c-10,3.9-21.4,5.9-32.8,6v0.5L50.7,21.4z M69.8,21.4h0.6l-0.3-1.3L69.8,21.4z M2.8,22.3
	c0.2,4.8,4.6,9.2,11.6,12.5c9.8-3.9,21.6-5.8,33.4-5.8v-5.2l-0.4-1.6h-0.1l-1.7,6.4h-3.7l2-6.4h-3.1l-0.3,1.4h-3.4v1h4.4l-0.8,4
	h-7.3v-6.4c-4.1,0-1.5-0.2-1.5,2.5c0,3-2,3.9-4.8,3.9h-4.6v-6.4H2.8z M26.4,22.3h-0.2v1L26.4,22.3z M48.9,29.1
	c11.6,0.1,23.2,2.1,32.8,5.8c7.1-3.3,11.5-7.8,11.7-12.6H74.1l1.7,6.4H72l-0.4-1.6h-3.2l-0.4,1.6h-3.5l1.8-6.4h-6v6.4h-3.7v-6.4H51
	l2,6.4h-3.9l-0.3-1V29.1z M70.6,22.3h-1l-0.2,1h1.5L70.6,22.3z M15.7,35.4c3.8,1.6,8.2,3,13.1,4c3-4.7,11-7.3,19.1-7.5v-1.9
	C36.7,30.1,25.5,31.9,15.7,35.4z M48.9,31.9c8.1,0,16.1,2.3,19,7.4c4.7-1,8.9-2.3,12.5-3.9c-9.6-3.5-20.6-5.3-31.6-5.4V31.9z
	 M29.8,39.6c5.5,1.1,11.7,1.6,18.1,1.7v-8.4C40.2,33.1,32.6,35.4,29.8,39.6z M48.9,41.3c6.4,0,12.5-0.7,18-1.7
	c-2.7-4.6-10.3-6.7-18-6.7V41.3z M48,0c26.5,0,48,9.9,48,22S74.5,44,48,44C21.6,44,0,34.1,0,22S21.6,0,48,0z M48,1.4
	c25.7,0,46.7,9.3,46.7,20.6S73.7,42.6,48,42.6S1.4,33.4,1.4,22S22.3,1.4,48,1.4z"/>
</svg>
