<svg width="20" height="15" id="Слой_1" data-name="Слой 1" xmlns="http://www.w3.org/2000/svg" viewBox="0 0 20 15"><defs><style>.cls-1{fill:#fff;fill-rule:evenodd;}</style></defs><title>адаптив иконки</title><path class="cls-1" d="M1.36,2.72H18.64a1.36,1.36,0,0,0,0-2.72H1.36a1.36,1.36,0,0,0,0,2.72Zm17.28,3.4H1.36A1.37,1.37,0,0,0,0,7.49v0A1.36,1.36,0,0,0,1.36,8.87H18.64A1.36,1.36,0,0,0,20,7.51v0A1.37,1.37,0,0,0,18.64,6.12Zm0,6.16H1.36a1.36,1.36,0,1,0,0,2.72H18.64a1.36,1.36,0,0,0,0-2.72Z"/></svg>
