<svg width="14" height="15" id="Слой_1" data-name="Слой 1" xmlns="http://www.w3.org/2000/svg" viewBox="0 0 14 14"><defs><style>.cls-1{fill:#fff;}</style></defs><title>дополнительные иконки</title><path class="cls-1" d="M7,0a7,7,0,1,0,7,7A7,7,0,0,0,7,0ZM7,13.18a6.16,6.16,0,0,1-2.35-.47l.54-1.63c.08-.21-.07-.41-.16-.59H7a.42.42,0,0,0,.37-.6L6.49,8.13a.4.4,0,0,0-.37-.22H4.54l-1.2-1.2a.4.4,0,0,0-.29-.12H1.85L.91,6A6.16,6.16,0,0,1,3.54,1.89h0l1,.63,0,0L6,3.21l-.62.93a.43.43,0,0,0,0,.41l.88,1.76a.4.4,0,0,0,.37.22H8.1l.75,1.14a.42.42,0,0,0,.69,0l.88-1.32a.39.39,0,0,0,0-.36l-.25-.77H11A.42.42,0,0,0,11.3,5l.87-1.32,0,0a6.12,6.12,0,0,1,1,3.16l-1.4.2a.46.46,0,0,0-.26.15L9.75,9.38a.41.41,0,0,0,0,.48l.84,1.25.16.81A6.14,6.14,0,0,1,7,13.18Z"/></svg>
