<svg width="18" height="19" id="Слой_1" data-name="Слой 1" xmlns="http://www.w3.org/2000/svg" viewBox="0 0 18 18"><defs><style>.cls-1{fill:#fff;fill-rule:evenodd;}</style></defs><title>дополнительные иконки</title><path class="cls-1" d="M18,16.41,13.09,11.7a6.93,6.93,0,0,0,1.76-4.59A7.28,7.28,0,0,0,7.42,0,7.27,7.27,0,0,0,0,7.11a7.27,7.27,0,0,0,7.42,7.11,7.57,7.57,0,0,0,3.88-1.06l5,4.84ZM1.56,7.11A5.74,5.74,0,0,1,7.42,1.5a5.74,5.74,0,0,1,5.86,5.61,5.74,5.74,0,0,1-5.86,5.61A5.74,5.74,0,0,1,1.56,7.11Z"/></svg>
