<svg xmlns="http://www.w3.org/2000/svg" id="Layer_1" data-name="Layer 1" viewBox="0 0 278.696 56"><defs><style>.cls-2{fill:#fff}</style></defs><g id="_-Header" data-name="##-Header"><g id="header-logo-mm-draft-0"><g id="Logo"><g id="Group"><path id="Path" d="M277.445 12.136H159.01l-36.415 42.616h154.85V12.136z" style="fill:#1d1e1c"/><path id="Shape" d="M278.696 56H119.869l38.565-45.126h120.262V56Zm-153.374-2.524h150.872V13.397H159.586l-34.264 40.094v-.015Z" class="cls-2"/><path id="Shape-2" d="M206.302 29.29v.213c0 2.48 1.574 3.743 3.008 4.863l.38.297c1.264 1.007 1.995 2 1.995 2.807v.057c0 1.148-.506 1.404-1.012 1.404s-1.054-.482-1.054-1.475v-1.19h-3.457v1.048c0 2.552 1.813 4.268 4.497 4.268 2.881 0 4.596-1.56 4.596-4.168v-.142c0-2.538-1.139-3.516-2.952-5.019l-.28-.24-.52-.426c-.9-.723-1.617-1.404-1.617-2.283v-.085c0-.482.169-1.332 1.026-1.332.801 0 .984.992.984 1.502v1.078h3.359v-1.092c0-2.623-1.7-4.324-4.329-4.324-2.22 0-4.61 1.333-4.61 4.253l-.014-.014Zm18.102-3.941v2.75h2.614v13.157h3.528V28.099h2.235v-2.75h-8.377Zm14.729 0v12.065c0 1.205-.66 1.375-1.012 1.375-.604 0-1.012-.482-1.012-1.375V25.349h-3.513v12.447c0 2.283 1.785 3.757 4.525 3.757s4.54-1.474 4.54-3.757V25.35h-3.528Zm22.852 0 .183 11.398h-.084l-2.685-11.398h-4.624v15.92h3.514l-.281-11.44h.084l2.727 11.44h4.581V25.35h-3.415Zm-43.596 0-2.91 15.92h3.64l1.56-12.32h.17l1.49 12.32h3.625l-2.909-15.92h-4.666Zm29.809 7.826v.24l1.982 7.84h3.612l-2.123-6.918v-.042l.085-.057c.97-.78 1.532-2.197 1.532-3.955v-.27c0-1.446-.464-2.651-1.35-3.487-.815-.78-1.897-1.191-3.204-1.177h-4.525v15.907h3.471V27.943h.562c1.293 0 1.56 1.305 1.588 2.212v.78c-.07 1.53-.759 2.07-1.293 2.169h-.014l-.295.057-.028.014Z" class="cls-2" data-name="Shape"/><path id="Path-2" d="M197.069 32.707s.028.326.042.553v.397l.042.028c1.911 1.588 3.935 3.729 4.287 5.317.098.439.07.836-.099 1.176-.197.397-.59.68-1.11.865-2.74.936-9.262-.865-14.588-3.53-3.81-1.9-7.14-4.154-9.403-6.366-2.094-2.055-2.67-3.657-2.122-4.621.21-.369.562-.638 1.04-.823 1.743-.68 5.074-.198 8.348.78-1.546 1.163-2.628 2.75-3.134 4.324v.014c-.154 1.446 1.926 3.332 4.006 4.381 0 0 .112.043.112.028 0 0-.028-.141-.028-.156-.492-3.586 2.207-8.96 5.031-10.136.183-.071.338-.114.366-.128-.014 0-.351-.028-.366-.028a10.73 10.73 0 0 0-.674-.029 8.5 8.5 0 0 0-4.554 1.205c-5.467-1.9-9.472-2.112-11.145-1.545-.66.227-1.11.567-1.335 1.02-.239.469-.239 1.064 0 1.759.759 2.297 4.09 5.444 8.306 8.237.619 3.246 3.5 6.578 7.632 7.018l.182.014h.07l-.224-.185c-1.28-.992-2.432-2.636-2.825-4.054l.253.127s.126.057.197.1c6.661 3.331 13.66 5.018 16.752 3.97.689-.242 1.209-.568 1.434-1.036.225-.453.182-1.049-.042-1.73-.577-1.757-3.078-4.437-6.255-6.819-.07-.042-.126-.099-.196-.141v.014Z" data-name="Path" style="fill:#ec7e0c"/><path id="Path-3" d="M0 42.603h148.258L184.673 0H0v42.603z" data-name="Path" style="fill:#e00c19"/><path id="Shape-3" d="m179.993 2.155-32.719 38.293H2.15V2.155h177.857M184.673 0H0v42.617h148.258L184.673 0Z" class="cls-2" data-name="Shape"/><path id="Shape-4" d="M127.922 18.43a.387.387 0 0 0-.085-.24c-.07-.086-.168-.114-.28-.114H125.7a.35.35 0 0 0-.351.283l-.14.724c-.408-.383-.83-.624-1.42-.851l-.183-.085s-.042-.014-.07-.029c-2.024-.453-4.048.17-5.706 1.758a7.973 7.973 0 0 0-1.87 2.666l1.856-10.165c.014-.085 0-.185-.056-.241a.252.252 0 0 0-.211-.1h-2.474a.268.268 0 0 0-.197.1s-7.448 10.023-8.629 11.384c.422-1.673 1.968-11.13 1.968-11.13v-.056a.357.357 0 0 0-.057-.198.252.252 0 0 0-.21-.1h-2.6a.245.245 0 0 0-.197.1l-12.48 14.772c-.211-2.155-1.209-4.494-1.209-4.494-1.63-3.445-5.242-4.607-7.378-2.75-.127.042-.24.1-.338.156 1.617-2.283 5.355-2.098 7.786.765 0 0 1.11 1.361 1.898 3.403.21-.723.337-1.46.38-2.226-1.308-1.8-2.77-2.864-2.77-2.864-3.05-2.112-6.675-1.318-7.687 1.276-.113.128-.197.27-.253.44.28-2.807 3.612-4.565 7.111-3.332 0 0 1.7.638 3.415 2.056-.028-.114-.042-.227-.07-.34a8.856 8.856 0 0 0-.801-2.113c-1.996-.893-3.767-1.049-3.767-1.049-3.78-.27-6.577 2.424-6 5.274v.156c0 .085 0 .17.013.255-1.264-2.594.773-5.926 4.47-6.663 0 0 1.728-.312 3.865.014a9.15 9.15 0 0 0-1.842-1.531c-2.136.255-3.738 1.02-3.738 1.02-3.401 1.702-4.525 5.473-2.614 7.642.056.128.14.255.225.355-2.39-1.603-2.249-5.53.604-8.067 0 0 1.35-1.149 3.345-1.957a8.647 8.647 0 0 0-2.544-.383c-1.672 1.305-2.642 2.722-2.642 2.722-2.136 3.233-1.237 7.117 1.532 7.982l.042.029c.084.056.169.113.253.156-2.839-.17-4.638-3.644-3.415-7.302 0 0 .576-1.588 1.827-3.26a9.17 9.17 0 0 0-2.038.822c-.815 1.985-.97 3.714-.97 3.714-.267 3.842 2.32 6.706 5.088 6.153h.169c.098 0 .196 0 .28-.028-2.53 1.276-5.762-.808-6.478-4.594 0 0-.295-1.715 0-3.842a9.288 9.288 0 0 0-1.574 2.028c.267 2.098.97 3.643.97 3.643 1.672 3.516 5.396 4.65 7.504 2.637h.014l.043-.042a1.79 1.79 0 0 0 .267-.185c-1.546 2.467-5.411 2.34-7.899-.595 0 0-1.209-1.659-1.883-3.559a.57.57 0 0 0-.127-.24.439.439 0 0 0-.295-.1h-1.855c-.169 0-.31.1-.393.284 0 0-.099.227-.17.666-.407-.383-.885-.595-1.334-.794 0 0-.24-.085-.267-.085-2.01-.496-4.048.156-5.706 1.73a7.896 7.896 0 0 0-2.066 3.204s0 .028-.042.07l.843-4.664c.014-.113 0-.212-.085-.297a.353.353 0 0 0-.28-.128H62.02a.362.362 0 0 0-.351.298l-2.052 11.44c-.014.114 0 .213.084.298.07.085.17.071.282.085h2.051c.17 0 .324-.07.352-.24l.815-4.65s.042.978.126 1.445c.31 1.744 1.827 3.375 3.458 3.715 1.42.27 2.951-.1 4.44-1.05-.027.17-.07.412-.07.412v.07c0 .086.015.128.07.2.071.084.184.113.296.113h1.841c.169 0 .323-.057.352-.241l1.616-9.003c1.222 1.475 2.81 2.736 2.81 2.736 3.064 2.113 6.719 1.319 7.702-1.318.099-.114.183-.241.24-.383-.282 2.807-3.613 4.551-7.112 3.318 0 0-1.56-.582-3.19-1.872 0 .057.028.128.042.184.196.78.477 1.503.843 2.184 1.911.808 3.542.95 3.542.95 3.738.269 6.535-2.382 6-5.218a1.76 1.76 0 0 0 .029-.283v-.1c1.18 2.58-.857 5.842-4.512 6.579 0 0-1.63.298-3.682 0a8.818 8.818 0 0 0 1.659 1.403c2.122-.269 3.696-1.006 3.696-1.006 3.33-1.659 4.47-5.317 2.726-7.514a1.312 1.312 0 0 0-.253-.425c2.291 1.63 2.123 5.5-.688 8.01 0 0-1.364 1.162-3.401 1.984a9.12 9.12 0 0 0 2.46.483c1.756-1.333 2.782-2.836 2.782-2.836 2.122-3.232 1.237-7.089-1.504-7.968a1.982 1.982 0 0 0-.337-.184c2.853.156 4.666 3.63 3.429 7.301 0 0-.618 1.73-1.996 3.474.113-.028.211-.043.324-.071a9.457 9.457 0 0 0 1.967-.766c.857-2.027 1.012-3.827 1.012-3.827.253-3.786-2.249-6.621-4.961-6.182a1.374 1.374 0 0 0-.337-.042h-.07c2.515-1.12 5.635.95 6.338 4.664 0 0 .421 1.758.112 3.842a4.617 4.617 0 0 1-.421 1.205c-.07.128-.17.284-.267.454v.014a.301.301 0 0 0-.014.27c.042.099.14.155.238.155h2.924c.084 0 .168-.028.21-.099 0 0 9.656-10.633 10.766-11.994-.422 2.254-1.279 7.684-2.066 11.767v.057c0 .057.014.128.056.17.057.071.127.1.211.1h2.291a.245.245 0 0 0 .197-.1s7.772-10.604 8.924-11.994c-.478 2.254-1.293 7.74-2.08 11.753v.071c0 .057.014.128.056.17.057.071.127.114.211.114h2.263c.126 0 .225-.1.267-.213l.83-4.948v.312c0 .468-.17.936-.085 1.403.309 1.744 1.827 3.375 3.457 3.715 1.42.27 2.952-.1 4.441-1.05l-.07.412v.07c0 .086.028.17.084.228.07.085.169.07.281.085h1.842c.168 0 .323-.071.35-.241l1.66-9.06.393-2.438-.028-.043Zm-55.543 6.012c-.421 1.488-1.686 2.878-3.035 3.218-1.012.198-1.898.085-2.432-.27-.562-.397-.857-1.035-1.04-1.687-.07-.297-.07-.44-.07-.652 0-1.36.717-2.665 2.024-3.672.745-.538 1.77-.737 2.67-.538a2.41 2.41 0 0 1 1.63 1.233c.24.44.366.978.366 1.517 0 .298-.042.581-.113.85m52.142 0c-.45 1.49-1.8 2.921-3.148 3.247-1.026.17-1.785.043-2.305-.312-.563-.397-.886-1.049-1.054-1.687a3.408 3.408 0 0 1-.057-.652c0-1.361.717-2.665 2.024-3.672.745-.539 1.771-.737 2.67-.539a2.41 2.41 0 0 1 1.63 1.234c.24.44.366.978.366 1.517 0 .297-.028.581-.112.85" class="cls-2" data-name="Shape"/><path id="Shape-5" d="M148.174 18.204a.345.345 0 0 0-.267-.128h-2.094c.112-.652.576-3.147.576-3.147v-.057a.387.387 0 0 0-.084-.241.345.345 0 0 0-.267-.128h-2.066a.361.361 0 0 0-.352.312s-.506 2.793-.59 3.29h-1.152a.372.372 0 0 0-.31.155.347.347 0 0 0-.295-.156h-2.375a.33.33 0 0 0-.267.114s-1.672 2.169-2.656 3.26c.28-1.73 1.166-6.535 1.166-6.535v-.057a.387.387 0 0 0-.084-.24.345.345 0 0 0-.267-.129h-2.038a.362.362 0 0 0-.351.298c-.042.284-.323 1.63-.605 3.318v-.015c-.07-.085-.168-.155-.28-.155-.858.028-1.786.382-2.46.822l.042-.27c.014-.113 0-.212-.07-.297a.33.33 0 0 0-.267-.114h-1.855c-.17 0-.324.1-.352.284l-.056.283-1.982 11.13a.345.345 0 0 0 .085.283c.07.085.182.128.28.128h1.772a.36.36 0 0 0 .35-.284l1.364-6.904c.45-1.744 1.588-2.269 2.586-2.425.056 0 .253 0 .295-.028l-1.518 9.23c-.014.113 0 .212.085.283.07.085.168.128.267.128h1.996c.154 0 .295-.1.337-.256.056-.198.59-3.048.871-4.749.745 1.148 2.91 4.849 2.91 4.849.07.099.182.156.295.156h2.234s.085-.043.127-.071c.056.028.112.07.168.07h2.333a.362.362 0 0 0 .352-.297s1.56-8.662 1.658-9.23h2.235a.362.362 0 0 0 .351-.297l.31-1.857v-.057a.387.387 0 0 0-.085-.241m-7.154 10.973c-.829-1.36-3.162-5.316-3.387-5.67.281-.341 3.205-3.999 3.795-4.708l-.267 1.418c-.014.113 0 .213.07.298.07.085.169.127.281.127h1.012c-.098.653-1.223 6.607-1.532 8.52" class="cls-2" data-name="Shape"/><path id="Shape-6" d="M61.628 14.63a.366.366 0 0 0-.281-.14h-1.855a.362.362 0 0 0-.352.297s-.646 3.176-.857 4.225c-.408-.383-.9-.596-1.35-.794l-.182-.085s-.042-.015-.07-.029c-2.024-.453-4.048.17-5.706 1.758a7.787 7.787 0 0 0-2.08 3.204 7.012 7.012 0 0 0-.66-2.68s0-.013-.015-.028c-.97-1.644-2.6-2.466-4.694-2.353h-.028c-2.32.298-4.652 1.871-5.79 4.126-.015.028-.043.07-.057.099l1.771-9.882a.298.298 0 0 0-.056-.24.252.252 0 0 0-.21-.1h-2.418a.268.268 0 0 0-.197.1s-7.505 10.008-8.685 11.37c.35-1.702 1.939-11.13 1.939-11.13v-.056a.314.314 0 0 0-.056-.185.252.252 0 0 0-.211-.099h-2.347a.245.245 0 0 0-.197.1l-14.897 17.58c-.07.084-.085.198-.043.297s.141.184.24.184h2.993a.274.274 0 0 0 .21-.1s9.445-10.972 10.556-12.333c-.422 2.254-1.308 8.024-2.165 12.093v.057c0 .056.014.127.056.17.057.07.127.113.211.113h2.291a.245.245 0 0 0 .197-.1s7.856-10.958 9.009-12.347c-.478 2.254-1.223 8.095-2.165 12.107v.07c0 .057.014.128.056.17.057.072.127.1.211.1h2.22c.127 0 .226-.085.268-.213l.857-4.65c0 .993.183 1.971.604 2.765.83 1.474 2.32 2.367 4.09 2.438 2.544 0 4.975-1.573 6.058-3.898a.392.392 0 0 0-.014-.355.352.352 0 0 0-.31-.17h-1.911a.345.345 0 0 0-.267.128c-.9 1.035-1.925 1.573-3.022 1.602a2.572 2.572 0 0 1-2.487-1.63c0-.043-.042-.128-.042-.128-.057-.199-.099-.369-.099-.51v-.1h8.56a.338.338 0 0 0 .238-.1c0 .469.028.937.113 1.404.309 1.744 1.827 3.375 3.457 3.715 1.42.27 2.951-.1 4.441-1.05l-.07.412v.07c0 .086.028.17.084.228.07.085.169.07.281.07h1.841c.169 0 .324-.07.352-.24l2.712-15.014c.014-.114 0-.213-.07-.298m-21.096 8.081c.563-1.077 1.743-1.744 2.755-1.9 1.11-.085 1.602.199 2.094.624.436.454.647.865.689 1.276h-5.538m17.217.907c0 .369-.042.553-.113.823-.379 1.517-1.742 2.892-3.091 3.232-1.04.213-1.856.071-2.376-.283-.562-.397-.913-1.035-1.054-1.688-.056-.269-.056-.439-.056-.666 0-1.36.745-2.68 2.052-3.686.745-.539 1.77-.737 2.67-.539.506.114 1.125.468 1.588 1.248.253.425.38.978.366 1.545" class="cls-2" data-name="Shape"/><path id="Path-4" d="M62.232 17.736h2.052c.169 0 .323-.185.351-.355l.45-2.452a.366.366 0 0 0-.351-.44h-2.066c-.169 0-.323.142-.351.312l-.436 2.439c-.014.113 0 .269.07.354.07.085.169.128.281.128" class="cls-2" data-name="Path"/></g></g></g></g></svg>