<svg width="127" height="55" viewBox="0 0 127 55" fill="none" xmlns="http://www.w3.org/2000/svg">
<g clip-path="url(#clip0_4_13)">
<path fill-rule="evenodd" clip-rule="evenodd" d="M25.4986 33.2588H25.5174L27.134 21.4132L29.3918 4.78382H15.4651L11.5988 33.2588L11.0007 37.6602H11.0465L10.7043 40.1795C13.8384 38.524 17.325 37.6594 20.8644 37.6602H24.9409L25.4393 33.9883H25.3989L25.4986 33.2588ZM31.2212 18.4409H41.9417C46.522 18.4409 49.7551 22.2078 49.122 26.8126L48.2894 32.9496C47.6644 37.5598 43.4101 41.3212 38.8352 41.3212H42.257C46.7219 41.3077 51.078 39.9327 54.7512 37.3776C58.4243 34.8224 61.2421 31.207 62.8331 27.0078C62.9005 15.108 53.1338 4.77026 40.7401 4.77026H33.0776L31.2212 18.4409Z" fill="#e52529"/>
<path fill-rule="evenodd" clip-rule="evenodd" d="M5.63103 47.019C3.18639 49.2235 1.26244 51.9504 0 55.0001H40.0315C45.3284 54.9903 50.4445 53.0599 54.4426 49.5626C58.4407 46.0653 61.0531 41.2352 61.8013 35.9571L62.6338 29.831C62.7614 28.9017 62.828 27.9649 62.8332 27.0269C61.2421 31.226 58.4244 34.8415 54.7512 37.3966C51.0781 39.9517 46.722 41.3267 42.257 41.3403H20.3229C14.8949 41.3467 9.66131 43.3754 5.63103 47.0352" fill="#e52529"/>
<path fill-rule="evenodd" clip-rule="evenodd" d="M89.415 25.8661H79.2118C75.9787 25.8661 73.6885 23.1975 74.1304 19.9406L74.7204 15.6015C75.1623 12.3472 78.1718 9.67603 81.4103 9.67603H78.9855C75.8276 9.68696 72.7471 10.6607 70.1499 12.4688C67.5527 14.2769 65.5607 16.8347 64.4364 19.805C64.3879 28.2254 71.2987 35.534 80.0632 35.534H91.4142L92.729 25.8606L89.415 25.8661ZM94.0303 35.5394H96.7057L98.0205 25.8661H95.3451L94.0303 35.5394Z" fill="#e52529"/>
<path fill-rule="evenodd" clip-rule="evenodd" d="M100.836 5.64888C102.565 4.08742 103.926 2.15766 104.82 0L80.5585 0C76.8101 0.00654009 73.1894 1.37236 70.3601 3.84722C67.5307 6.32207 65.682 9.74023 65.1527 13.4754L64.5626 17.8145C64.472 18.4714 64.4252 19.1336 64.4225 19.7969C65.5468 16.8266 67.5388 14.2688 70.136 12.4607C72.7332 10.6525 75.8137 9.67885 78.9716 9.66792H90.4196C94.2602 9.66495 97.9638 8.23139 100.817 5.64346" fill="#e52529"/>
<path d="M109.762 34.5252C109.767 34.66 109.744 34.7944 109.695 34.9199C109.646 35.0454 109.571 35.1594 109.476 35.2547C109.381 35.3483 109.268 35.4217 109.144 35.4706C109.02 35.5195 108.888 35.5429 108.754 35.5394H105.33C105.196 35.5456 105.062 35.5236 104.937 35.4748C104.812 35.426 104.699 35.3515 104.604 35.2561C104.509 35.1607 104.435 35.0464 104.386 34.9205C104.338 34.7947 104.316 34.66 104.322 34.5252V22.883C104.316 22.7482 104.338 22.6135 104.386 22.4877C104.435 22.3618 104.509 22.2475 104.604 22.1521C104.699 22.0567 104.812 21.9822 104.937 21.9334C105.062 21.8846 105.196 21.8626 105.33 21.8688H108.754C108.888 21.8638 109.021 21.8867 109.146 21.9359C109.27 21.9851 109.383 22.0597 109.478 22.1548C109.572 22.25 109.646 22.3638 109.695 22.4891C109.744 22.6144 109.767 22.7485 109.762 22.883V26.0342H108.552V22.9427H105.532V34.4655H108.552V31.1028H109.762V34.5252ZM113.16 35.5394H111.95V21.8688H113.16V35.5394ZM120.089 22.9427H117.99V35.5394H116.781V22.9427H114.668V21.8579H120.089V22.9427ZM127 21.9474L125.34 27.4743C125.13 28.0293 124.854 28.9531 124.511 30.2458V35.5394H123.303V30.2458C123.214 29.7703 123.087 29.3025 122.926 28.8465C122.657 28.0085 122.498 27.5529 122.474 27.4743L120.814 21.9474V21.8688H122.051L123.937 28.7082L125.809 21.8688H127.019V21.9474" fill="#e52529"/>
<path d="M75.0466 52.5349C75.0569 52.8631 74.9995 53.19 74.878 53.4948C74.7565 53.7996 74.5736 54.0757 74.3407 54.3057C74.1054 54.536 73.8265 54.7162 73.5205 54.8354C73.2145 54.9547 72.8877 55.0107 72.5597 55H69.4613V41.3673H72.5597C72.8889 41.3552 73.2171 41.4108 73.5242 41.5307C73.8313 41.6505 74.1109 41.832 74.3461 42.0642C74.5776 42.2944 74.7594 42.5703 74.88 42.8746C75.0005 43.1789 75.0572 43.505 75.0466 43.8324V52.5349ZM73.8395 52.4128V43.9327C73.848 43.7325 73.815 43.5326 73.7427 43.3459C73.6703 43.1591 73.5602 42.9896 73.4192 42.848C73.2761 42.7102 73.107 42.6026 72.9219 42.5318C72.7368 42.461 72.5394 42.4284 72.3415 42.4358H70.6711V53.9288H72.2715C72.6884 53.946 73.0958 53.8002 73.4084 53.522C73.5569 53.3796 73.6729 53.2064 73.7482 53.0144C73.8236 52.8224 73.8566 52.6162 73.8449 52.4101L73.8395 52.4128ZM82.7764 53.9884C82.7817 54.1233 82.759 54.2578 82.7098 54.3834C82.6607 54.509 82.5861 54.6229 82.4908 54.7179C82.3953 54.8097 82.2823 54.881 82.1587 54.9276C82.0351 54.9742 81.9034 54.9951 81.7715 54.9891H78.1611C78.0274 54.9957 77.8938 54.9741 77.7689 54.9256C77.644 54.8771 77.5306 54.8028 77.436 54.7075C77.3413 54.6122 77.2675 54.4981 77.2193 54.3724C77.1711 54.2466 77.1496 54.1122 77.1562 53.9776V41.3673H78.3605V53.9315H81.5694V41.3673H82.7764V53.9884ZM90.2207 53.9884C90.2277 54.1231 90.2065 54.2578 90.1584 54.3837C90.1104 54.5096 90.0366 54.6239 89.9419 54.7193C89.8471 54.8147 89.7335 54.8889 89.6084 54.9373C89.4833 54.9856 89.3496 55.007 89.2157 55H85.891C85.7575 55.0057 85.6243 54.9835 85.4998 54.9347C85.3753 54.8859 85.2622 54.8116 85.1677 54.7165C85.0732 54.6214 84.9994 54.5076 84.9509 54.3823C84.9024 54.2569 84.8803 54.1228 84.8861 53.9884V50.5742H86.0904V53.9315H89.0164V50.6772L85.274 46.1348C85.0255 45.8496 84.8877 45.4836 84.8861 45.1043V42.3924C84.8803 42.258 84.9024 42.1239 84.9509 41.9986C84.9994 41.8732 85.0732 41.7594 85.1677 41.6643C85.2622 41.5692 85.3753 41.4949 85.4998 41.4461C85.6243 41.3973 85.7575 41.3751 85.891 41.3808H89.2157C89.3496 41.3738 89.4833 41.3952 89.6084 41.4435C89.7335 41.4919 89.8471 41.5661 89.9419 41.6615C90.0366 41.7569 90.1104 41.8712 90.1584 41.9971C90.2065 42.123 90.2277 42.2577 90.2207 42.3924V45.5219H89.0164V42.4385H86.0904V45.3212L89.8624 49.8555C90.1029 50.139 90.2348 50.4997 90.2342 50.8725L90.2207 53.9884ZM98.0206 55H96.8163V48.4508H93.5535V55H92.3492V41.3673H93.5535V47.3633H96.8163V41.3673H98.0206V55ZM105.643 55H104.455L103.978 51.9844H101.283L100.807 55H99.6534V54.9647L102.065 41.332H103.253L105.643 55ZM103.821 50.9132L102.633 43.5151L101.434 50.9132H103.821ZM112.855 55H112.025L108.407 44.966V55H107.27V41.3673H108.173L111.721 51.2196V41.3673H112.855V55ZM120.434 53.9884C120.441 54.123 120.419 54.2575 120.371 54.3832C120.323 54.5089 120.249 54.6231 120.155 54.7184C120.06 54.8136 119.946 54.8879 119.822 54.9364C119.697 54.9849 119.563 55.0066 119.429 55H115.019V41.3673H119.402C119.535 41.3608 119.668 41.3816 119.792 41.4282C119.917 41.4748 120.031 41.5463 120.127 41.6385C120.219 41.7351 120.291 41.8496 120.337 41.9751C120.383 42.1006 120.404 42.2343 120.397 42.368V46.8318C120.397 47.0785 120.238 47.2846 119.914 47.4501L118.966 47.8433L119.984 48.2799C120.111 48.3144 120.222 48.389 120.303 48.4926C120.383 48.5962 120.429 48.7233 120.432 48.8548L120.434 53.9884ZM119.195 46.528V42.4385H116.223V47.3443H118.009L119.195 46.528ZM119.23 53.9315V49.2019L118.009 48.3884H116.215V53.9206L119.23 53.9315ZM126.992 55H122.549V41.3673H126.946V42.452H123.756V47.5368H126.663V48.6216H123.756V53.9396H126.989L126.992 55Z" fill="#e52529"/>
</g>
<defs>
<clipPath id="clip0_4_13">
<rect width="127" height="55" fill="white"/>
</clipPath>
</defs>
</svg>
