<svg width="25" height="24" viewBox="0 0 25 24" fill="none" xmlns="http://www.w3.org/2000/svg">
<path d="M8.90039 11C8.62425 11 8.40039 11.2239 8.40039 11.5V13.5C8.40039 13.7761 8.62425 14 8.90039 14H10.9004C11.1765 14 11.4004 13.7761 11.4004 13.5V11.5C11.4004 11.2239 11.1765 11 10.9004 11H8.90039Z" fill="#6A7186"/>
<path fill-rule="evenodd" clip-rule="evenodd" d="M9.15039 4C9.15039 3.58579 8.8146 3.25 8.40039 3.25C7.98618 3.25 7.65039 3.58579 7.65039 4V5.25H6.40039C5.43389 5.25 4.65039 6.0335 4.65039 7V18C4.65039 18.9665 5.43389 19.75 6.40039 19.75H18.4004C19.3669 19.75 20.1504 18.9665 20.1504 18V7C20.1504 6.0335 19.3669 5.25 18.4004 5.25H17.1504V4C17.1504 3.58579 16.8146 3.25 16.4004 3.25C15.9862 3.25 15.6504 3.58579 15.6504 4V5.25H9.15039V4ZM6.15039 18V9H18.6504V18C18.6504 18.1381 18.5385 18.25 18.4004 18.25H6.40039C6.26232 18.25 6.15039 18.1381 6.15039 18Z" fill="#6A7186"/>
</svg>
