<svg width="24" height="24" viewBox="0 0 24 24" fill="none" xmlns="http://www.w3.org/2000/svg">
<path fill-rule="evenodd" clip-rule="evenodd" d="M5 18.9999C4.70711 18.7071 4.70711 18.2322 5 17.9393L17.9393 4.99994C18.2322 4.70705 18.7071 4.70705 19 4.99994C19.2929 5.29284 19.2929 5.76771 19 6.0606L6.06067 18.9999C5.76777 19.2928 5.2929 19.2928 5 18.9999Z" fill="#6A7186"/>
<path fill-rule="evenodd" clip-rule="evenodd" d="M5.00001 4.99994C5.2929 4.70705 5.76777 4.70705 6.06067 4.99994L19 17.9393C19.2929 18.2322 19.2929 18.7071 19 18.9999C18.7071 19.2928 18.2322 19.2928 17.9393 18.9999L5.00001 6.0606C4.70711 5.76771 4.70711 5.29284 5.00001 4.99994Z" fill="#6A7186"/>
</svg>
