<svg width="24" height="24" viewBox="0 0 24 24" fill="none" xmlns="http://www.w3.org/2000/svg">
<path fill-rule="evenodd" clip-rule="evenodd" d="M7 16.9999C6.70711 16.707 6.70711 16.2322 7 15.9393L15.9393 6.99994C16.2322 6.70705 16.7071 6.70705 17 6.99994C17.2929 7.29284 17.2929 7.76771 17 8.0606L8.06066 16.9999C7.76777 17.2928 7.2929 17.2928 7 16.9999Z" fill="#32384A"/>
<path fill-rule="evenodd" clip-rule="evenodd" d="M7 6.99994C7.2929 6.70705 7.76777 6.70705 8.06067 6.99994L17 15.9393C17.2929 16.2322 17.2929 16.707 17 16.9999C16.7071 17.2928 16.2322 17.2928 15.9393 16.9999L7 8.0606C6.70711 7.76771 6.70711 7.29284 7 6.99994Z" fill="#32384A"/>
</svg>
