<svg width="19" height="14" viewBox="0 0 19 14" fill="none" xmlns="http://www.w3.org/2000/svg">
<path fill-rule="evenodd" clip-rule="evenodd" d="M16.2866 0.9807C17.0729 1.19306 17.691 1.8127 17.8999 2.59815C18.28 4.02361 18.28 6.99961 18.28 6.99961C18.28 6.99961 18.28 9.97561 17.8999 11.4011C17.6881 12.1894 17.07 12.8091 16.2866 13.0185C14.8648 13.3996 9.16004 13.3996 9.16004 13.3996C9.16004 13.3996 3.45823 13.3996 2.0335 13.0185C1.24714 12.8062 0.629081 12.1865 0.42016 11.4011C0.0400391 9.97561 0.0400391 6.99961 0.0400391 6.99961C0.0400391 6.99961 0.0400391 4.02361 0.42016 2.59815C0.631983 1.80979 1.25004 1.19015 2.0335 0.9807C3.45823 0.599609 9.16004 0.599609 9.16004 0.599609C9.16004 0.599609 14.8648 0.599609 16.2866 0.9807ZM12.0763 6.99913L7.33789 9.7424V4.25586L12.0763 6.99913Z" fill="white"/>
</svg>
