<svg width="17" height="17" viewBox="0 0 17 17" fill="none" xmlns="http://www.w3.org/2000/svg">
<path d="M5.33696 8.04129C5.33696 6.56728 6.53121 5.37204 8.0048 5.37204C9.47839 5.37204 10.6733 6.56728 10.6733 8.04129C10.6733 9.5153 9.47839 10.7105 8.0048 10.7105C6.53121 10.7105 5.33696 9.5153 5.33696 8.04129ZM3.89443 8.04129C3.89443 10.3121 5.73464 12.1528 8.0048 12.1528C10.275 12.1528 12.1152 10.3121 12.1152 8.04129C12.1152 5.77047 10.275 3.92974 8.0048 3.92974C5.73464 3.92974 3.89443 5.77047 3.89443 8.04129ZM11.3173 3.76671C11.3172 3.95675 11.3735 4.14254 11.479 4.3006C11.5845 4.45865 11.7344 4.58187 11.9099 4.65466C12.0854 4.72746 12.2786 4.74656 12.4649 4.70956C12.6513 4.67256 12.8225 4.58112 12.9568 4.44679C13.0912 4.31247 13.1828 4.1413 13.2199 3.95492C13.2571 3.76855 13.2381 3.57535 13.1655 3.39975C13.0929 3.22414 12.9698 3.07403 12.8119 2.96839C12.654 2.86274 12.4683 2.80632 12.2783 2.80624H12.2779C12.0232 2.80636 11.779 2.90758 11.5989 3.08766C11.4188 3.26775 11.3175 3.51198 11.3173 3.76671ZM4.77086 14.5589C3.99042 14.5233 3.56623 14.3933 3.28434 14.2834C2.91061 14.1379 2.64395 13.9646 2.36359 13.6845C2.08323 13.4045 1.90969 13.138 1.76483 12.7641C1.65494 12.4823 1.52495 12.0578 1.48947 11.2772C1.45066 10.4332 1.44291 10.1796 1.44291 8.04135C1.44291 5.90307 1.4513 5.65024 1.48947 4.80552C1.52501 4.02486 1.65597 3.60125 1.76483 3.31857C1.91033 2.94473 2.08362 2.678 2.36359 2.39756C2.64357 2.11712 2.90997 1.94352 3.28434 1.79863C3.56611 1.6887 3.99042 1.55867 4.77086 1.52318C5.61463 1.48436 5.86809 1.47661 8.0048 1.47661C10.1415 1.47661 10.3952 1.485 11.2397 1.52318C12.0201 1.55873 12.4436 1.68973 12.7262 1.79863C13.1 1.94352 13.3666 2.1175 13.647 2.39756C13.9273 2.67762 14.1002 2.94473 14.2457 3.31857C14.3556 3.60042 14.4856 4.02486 14.5211 4.80552C14.5599 5.65024 14.5676 5.90307 14.5676 8.04135C14.5676 10.1796 14.5599 10.4325 14.5211 11.2772C14.4856 12.0578 14.3549 12.4822 14.2457 12.7641C14.1002 13.138 13.9269 13.4047 13.647 13.6845C13.367 13.9643 13.1 14.1379 12.7262 14.2834C12.4445 14.3934 12.0201 14.5234 11.2397 14.5589C10.3959 14.5977 10.1425 14.6055 8.0048 14.6055C5.86713 14.6055 5.61437 14.5977 4.77086 14.5589ZM4.70458 0.0826707C3.85242 0.121489 3.27012 0.256649 2.76159 0.454585C2.23494 0.658991 1.7891 0.933218 1.34359 1.37816C0.898075 1.8231 0.624631 2.26976 0.420284 2.79657C0.222405 3.30556 0.0872843 3.88771 0.0484771 4.74012C0.00902942 5.59387 0 5.86682 0 8.04129C0 10.2158 0.00902942 10.4887 0.0484771 11.3425C0.0872843 12.1949 0.222405 12.777 0.420284 13.286C0.624631 13.8125 0.898139 14.2597 1.34359 14.7044C1.78904 15.1492 2.23494 15.423 2.76159 15.628C3.27108 15.8259 3.85242 15.9611 4.70458 15.9999C5.55853 16.0387 5.83095 16.0484 8.0048 16.0484C10.1786 16.0484 10.4515 16.0394 11.305 15.9999C12.1572 15.9611 12.7392 15.8259 13.248 15.628C13.7743 15.423 14.2205 15.1494 14.666 14.7044C15.1115 14.2595 15.3844 13.8125 15.5893 13.286C15.7872 12.777 15.923 12.1949 15.9611 11.3425C15.9999 10.4881 16.009 10.2158 16.009 8.04129C16.009 5.86682 15.9999 5.59387 15.9611 4.74012C15.9223 3.88765 15.7872 3.30524 15.5893 2.79657C15.3844 2.27009 15.1108 1.8238 14.666 1.37816C14.2212 0.932513 13.7743 0.658991 13.2486 0.454585C12.7392 0.256649 12.1572 0.120849 11.3057 0.0826707C10.4522 0.0438523 10.1793 0.0341797 8.00544 0.0341797C5.83159 0.0341797 5.55853 0.0432117 4.70458 0.0826707Z" fill="white"/>
</svg>
