<svg width="15" height="14" viewBox="0 0 15 14" fill="none" xmlns="http://www.w3.org/2000/svg">
<path d="M0.902458 6.43306C0.902458 6.43306 7.41276 3.69104 9.67064 2.7255C10.5362 2.33932 13.4715 1.10343 13.4715 1.10343C13.4715 1.10343 14.8262 0.562773 14.7133 1.87585C14.6757 2.41656 14.3746 4.30893 14.0736 6.35583C13.622 9.25238 13.1328 12.4192 13.1328 12.4192C13.1328 12.4192 13.0575 13.3075 12.4178 13.462C11.7781 13.6165 10.7243 12.9214 10.5362 12.7668C10.3856 12.651 7.7138 10.913 6.73538 10.0634C6.47195 9.83168 6.17091 9.36826 6.77298 8.82756C8.12775 7.55307 9.7459 5.96965 10.7243 4.96552C11.1759 4.50205 11.6275 3.42068 9.7459 4.73376C7.07407 6.62618 4.43985 8.40273 4.43985 8.40273C4.43985 8.40273 3.83772 8.78891 2.70878 8.44132C1.57979 8.09378 0.262677 7.63031 0.262677 7.63031C0.262677 7.63031 -0.640432 7.05101 0.902458 6.43306Z" fill="white"/>
</svg>
