<svg width="20" height="12" viewBox="0 0 20 12" fill="none" xmlns="http://www.w3.org/2000/svg">
<path fill-rule="evenodd" clip-rule="evenodd" d="M19.337 1.39207C19.4722 0.969044 19.337 0.658203 18.6933 0.658203H16.5651C16.024 0.658203 15.7745 0.926723 15.6392 1.22282C15.6392 1.22282 14.5569 3.69749 13.0237 5.30494C12.5277 5.77025 12.3022 5.9183 12.0316 5.9183C11.8963 5.9183 11.7005 5.77025 11.7005 5.34726V1.39207C11.7005 0.88444 11.5434 0.658203 11.0925 0.658203H7.74806C7.4099 0.658203 7.20652 0.893806 7.20652 1.11709C7.20652 1.59832 7.97308 1.70929 8.0521 3.06297V6.00294C8.0521 6.64751 7.92801 6.76438 7.65744 6.76438C6.93595 6.76438 5.18093 4.27866 4.14004 1.43435C3.93605 0.881519 3.73145 0.658203 3.18753 0.658203H1.05928C0.45121 0.658203 0.32959 0.926723 0.32959 1.22282C0.32959 1.75161 1.05111 4.37432 3.68912 7.84305C5.44778 10.2119 7.92562 11.496 10.1803 11.496C11.5332 11.496 11.7005 11.2108 11.7005 10.7195V8.92916C11.7005 8.35875 11.8287 8.24491 12.2571 8.24491C12.5727 8.24491 13.1139 8.39296 14.3765 9.5351C15.8196 10.8887 16.0575 11.496 16.8691 11.496H18.9974C19.6055 11.496 19.9095 11.2108 19.7341 10.648C19.5422 10.087 18.8532 9.27314 17.939 8.30835C17.443 7.75844 16.6989 7.16624 16.4734 6.87007C16.1578 6.48941 16.248 6.32016 16.4734 5.98178C16.4734 5.98178 19.0664 2.55534 19.337 1.39207Z" fill="white"/>
</svg>
