<svg width="18" height="14" viewBox="0 0 18 14" fill="none" xmlns="http://www.w3.org/2000/svg">
<path d="M16.9421 1.93337C16.4137 2.16096 15.8582 2.31944 15.2894 2.4049C15.5553 2.35926 15.9467 1.88013 16.1024 1.68619C16.3391 1.39366 16.5195 1.05971 16.6343 0.7013C16.6343 0.674681 16.6609 0.636654 16.6343 0.617641C16.6209 0.610319 16.6059 0.606481 16.5907 0.606481C16.5754 0.606481 16.5604 0.610319 16.547 0.617641C15.9293 0.952437 15.2719 1.20796 14.5903 1.37818C14.5666 1.38544 14.5413 1.38609 14.5172 1.38006C14.4931 1.37403 14.4711 1.36155 14.4536 1.34395C14.4005 1.28072 14.3434 1.22102 14.2826 1.16523C14.0046 0.915941 13.6892 0.711912 13.348 0.560601C12.8873 0.371447 12.3897 0.289529 11.8928 0.321032C11.4107 0.35151 10.9399 0.480949 10.5099 0.7013C10.0864 0.933614 9.71422 1.24922 9.41569 1.62915C9.10167 2.0202 8.87496 2.47402 8.75081 2.96009C8.64844 3.42244 8.63682 3.90029 8.71662 4.36708C8.71662 4.44693 8.71662 4.45834 8.64823 4.44693C5.93933 4.04765 3.71675 3.08558 1.90068 1.02072C1.8209 0.92946 1.77911 0.92946 1.71452 1.02072C0.924265 2.22237 1.30799 4.1237 2.29581 5.06296C2.42879 5.18845 2.56556 5.31014 2.70993 5.42422C2.25703 5.39204 1.81518 5.26919 1.41057 5.06296C1.33459 5.01353 1.2928 5.04015 1.289 5.13141C1.27823 5.25794 1.27823 5.38515 1.289 5.51168C1.36827 6.11805 1.60703 6.69247 1.98085 7.1762C2.35467 7.65993 2.85014 8.0356 3.4166 8.26481C3.55469 8.32401 3.69858 8.36862 3.84592 8.39791C3.42664 8.48053 2.99662 8.49338 2.57316 8.43593C2.48198 8.41692 2.44778 8.46636 2.48198 8.55382C3.04047 10.0749 4.25245 10.5388 5.14148 10.7974C5.26306 10.8164 5.38464 10.8164 5.52141 10.8468C5.52141 10.8468 5.52141 10.8468 5.49862 10.8696C5.23646 11.3488 4.17646 11.672 3.69015 11.8393C2.80251 12.1584 1.85612 12.2804 0.916666 12.1968C0.768494 12.174 0.7343 12.1778 0.696307 12.1968C0.658314 12.2158 0.696307 12.2576 0.738099 12.2956C0.928064 12.4211 1.11803 12.5314 1.31559 12.6379C1.90374 12.959 2.52553 13.214 3.16965 13.3984C6.50543 14.3187 10.2591 13.6418 12.7629 11.151C14.7309 9.19647 15.4224 6.50037 15.4224 3.80048C15.4224 3.6978 15.5477 3.63696 15.6199 3.58372C16.1178 3.19543 16.5568 2.73687 16.9231 2.22237C16.9865 2.14568 17.0191 2.04803 17.0143 1.94858C17.0143 1.89154 17.0143 1.90294 16.9421 1.93337Z" fill="white"/>
</svg>
