<svg width="24" height="24" viewBox="0 0 24 24" fill="none" xmlns="http://www.w3.org/2000/svg">
<path fill-rule="evenodd" clip-rule="evenodd" d="M12 4.4165C7.81183 4.4165 4.41666 7.81168 4.41666 11.9998C4.41666 16.188 7.81183 19.5832 12 19.5832C16.1881 19.5832 19.5833 16.188 19.5833 11.9998C19.5833 7.81168 16.1881 4.4165 12 4.4165ZM2.91666 11.9998C2.91666 6.98325 6.9834 2.9165 12 2.9165C17.0166 2.9165 21.0833 6.98325 21.0833 11.9998C21.0833 17.0164 17.0166 21.0832 12 21.0832C6.9834 21.0832 2.91666 17.0164 2.91666 11.9998Z" fill="#32384A"/>
<path fill-rule="evenodd" clip-rule="evenodd" d="M2.91666 11.9998C2.91666 11.5856 3.25244 11.2499 3.66666 11.2499H20.3333C20.7475 11.2499 21.0833 11.5856 21.0833 11.9998C21.0833 12.4141 20.7475 12.7499 20.3333 12.7499H3.66666C3.25244 12.7499 2.91666 12.4141 2.91666 11.9998Z" fill="#32384A"/>
<path fill-rule="evenodd" clip-rule="evenodd" d="M9.41683 11.9998C9.47475 14.6166 10.3862 17.1346 12 19.176C13.6138 17.1346 14.5252 14.6166 14.5831 11.9998C14.5252 9.38309 13.6138 6.86509 12 4.8237C10.3862 6.86509 9.47475 9.38309 9.41683 11.9998ZM12 3.6665L11.4462 3.16069C9.23922 5.57688 7.98498 8.71248 7.91682 11.9842C7.9166 11.9946 7.9166 12.005 7.91682 12.0155C7.98498 15.2872 9.23922 18.4228 11.4462 20.839C11.5883 20.9946 11.7893 21.0832 12 21.0832C12.2107 21.0832 12.4117 20.9946 12.5537 20.839C14.7608 18.4228 16.015 15.2872 16.0832 12.0155C16.0834 12.005 16.0834 11.9946 16.0832 11.9842C16.015 8.71248 14.7608 5.57688 12.5537 3.16069L12 3.6665Z" fill="#32384A"/>
</svg>
