<svg width="25" height="24" viewBox="0 0 25 24" fill="none" xmlns="http://www.w3.org/2000/svg">
<circle cx="12.5" cy="12" r="10" fill="#F1F2F4"/>
<path d="M13.0367 16.6975C12.835 16.8992 12.5884 17 12.2967 17C12.005 17 11.7584 16.8992 11.5567 16.6975C11.3556 16.4964 11.255 16.25 11.255 15.9583C11.255 15.6667 11.3556 15.4203 11.5567 15.2192C11.7584 15.0175 12.005 14.9167 12.2967 14.9167C12.5884 14.9167 12.835 15.0175 13.0367 15.2192C13.2378 15.4203 13.3384 15.6667 13.3384 15.9583C13.3384 16.25 13.2378 16.4964 13.0367 16.6975Z" fill="#6A7186"/>
<path d="M13.3592 8.73917C13.1231 8.52417 12.8106 8.41667 12.4217 8.41667C12.1439 8.41667 11.8975 8.47222 11.6825 8.58333C11.467 8.69444 11.2828 8.85417 11.13 9.0625C10.9911 9.25694 10.8142 9.375 10.5992 9.41667C10.3836 9.45833 10.1856 9.42361 10.005 9.3125C9.83836 9.20139 9.74114 9.05889 9.71336 8.885C9.68558 8.71167 9.72031 8.53472 9.81753 8.35417C10.0675 7.89583 10.4184 7.55556 10.87 7.33333C11.3211 7.11111 11.8384 7 12.4217 7C13.2689 7 13.96 7.22556 14.495 7.67667C15.0295 8.12833 15.2967 8.70833 15.2967 9.41667C15.2967 9.81944 15.21 10.1875 15.0367 10.5208C14.8628 10.8542 14.5606 11.2222 14.13 11.625C13.7967 11.9444 13.5572 12.205 13.4117 12.4067C13.2656 12.6078 13.1717 12.8264 13.13 13.0625C13.0884 13.2708 12.9911 13.4444 12.8384 13.5833C12.6856 13.7222 12.512 13.7917 12.3175 13.7917C12.1231 13.7917 11.9531 13.7256 11.8075 13.5933C11.6614 13.4617 11.5884 13.2986 11.5884 13.1042C11.5884 12.7708 11.6856 12.4375 11.88 12.1042C12.0745 11.7708 12.38 11.4236 12.7967 11.0625C13.0884 10.7986 13.3142 10.545 13.4742 10.3017C13.6336 10.0589 13.7134 9.81944 13.7134 9.58333C13.7134 9.23611 13.5953 8.95472 13.3592 8.73917Z" fill="#6A7186"/>
</svg>
