<svg width="20" height="20" viewBox="0 0 20 20" fill="none" xmlns="http://www.w3.org/2000/svg">
<path d="M9.99984 14.1667C10.2359 14.1667 10.434 14.0867 10.594 13.9267C10.7534 13.7672 10.8332 13.5695 10.8332 13.3334V9.97919C10.8332 9.74308 10.7534 9.54863 10.594 9.39585C10.434 9.24308 10.2359 9.16669 9.99984 9.16669C9.76373 9.16669 9.56595 9.24641 9.4065 9.40585C9.2465 9.56585 9.1665 9.76391 9.1665 10V13.3542C9.1665 13.5903 9.2465 13.7847 9.4065 13.9375C9.56595 14.0903 9.76373 14.1667 9.99984 14.1667ZM9.99984 7.50002C10.2359 7.50002 10.434 7.42002 10.594 7.26002C10.7534 7.10058 10.8332 6.9028 10.8332 6.66669C10.8332 6.43058 10.7534 6.23252 10.594 6.07252C10.434 5.91308 10.2359 5.83335 9.99984 5.83335C9.76373 5.83335 9.56595 5.91308 9.4065 6.07252C9.2465 6.23252 9.1665 6.43058 9.1665 6.66669C9.1665 6.9028 9.2465 7.10058 9.4065 7.26002C9.56595 7.42002 9.76373 7.50002 9.99984 7.50002ZM9.99984 18.3334C8.84706 18.3334 7.76373 18.1145 6.74984 17.6767C5.73595 17.2395 4.854 16.6459 4.104 15.8959C3.354 15.1459 2.76039 14.2639 2.32317 13.25C1.88539 12.2361 1.6665 11.1528 1.6665 10C1.6665 8.84724 1.88539 7.76391 2.32317 6.75002C2.76039 5.73613 3.354 4.85419 4.104 4.10419C4.854 3.35419 5.73595 2.7603 6.74984 2.32252C7.76373 1.8853 8.84706 1.66669 9.99984 1.66669C11.1526 1.66669 12.2359 1.8853 13.2498 2.32252C14.2637 2.7603 15.1457 3.35419 15.8957 4.10419C16.6457 4.85419 17.2393 5.73613 17.6765 6.75002C18.1143 7.76391 18.3332 8.84724 18.3332 10C18.3332 11.1528 18.1143 12.2361 17.6765 13.25C17.2393 14.2639 16.6457 15.1459 15.8957 15.8959C15.1457 16.6459 14.2637 17.2395 13.2498 17.6767C12.2359 18.1145 11.1526 18.3334 9.99984 18.3334ZM9.99984 16.6667C11.8471 16.6667 13.4201 16.0175 14.719 14.7192C16.0173 13.4203 16.6665 11.8472 16.6665 10C16.6665 8.1528 16.0173 6.57974 14.719 5.28085C13.4201 3.98252 11.8471 3.33335 9.99984 3.33335C8.15262 3.33335 6.57984 3.98252 5.2815 5.28085C3.98261 6.57974 3.33317 8.1528 3.33317 10C3.33317 11.8472 3.98261 13.4203 5.2815 14.7192C6.57984 16.0175 8.15262 16.6667 9.99984 16.6667Z" fill="#B5B9C5"/>
</svg>
