<svg width="16" height="16" viewBox="0 0 16 16" fill="none" xmlns="http://www.w3.org/2000/svg">
<mask id="mask0_5117_25863" style="mask-type:alpha" maskUnits="userSpaceOnUse" x="0" y="0" width="16" height="16">
<rect width="16" height="16" fill="#D9D9D9"/>
</mask>
<g mask="url(#mask0_5117_25863)">
<path d="M10.6668 5.60065L4.7501 11.534C4.61676 11.6673 4.45832 11.734 4.27476 11.734C4.09165 11.734 3.93343 11.6673 3.8001 11.534C3.66676 11.4007 3.6001 11.2422 3.6001 11.0587C3.6001 10.8755 3.66676 10.7173 3.8001 10.584L9.73343 4.66732H5.66676C5.47788 4.66732 5.31943 4.60354 5.19143 4.47598C5.06388 4.34798 5.0001 4.18954 5.0001 4.00065C5.0001 3.81176 5.06388 3.65332 5.19143 3.52532C5.31943 3.39776 5.47788 3.33398 5.66676 3.33398H11.3334C11.5223 3.33398 11.6805 3.39776 11.8081 3.52532C11.9361 3.65332 12.0001 3.81176 12.0001 4.00065V9.66732C12.0001 9.85621 11.9361 10.0144 11.8081 10.142C11.6805 10.27 11.5223 10.334 11.3334 10.334C11.1445 10.334 10.9863 10.27 10.8588 10.142C10.7308 10.0144 10.6668 9.85621 10.6668 9.66732V5.60065Z" fill="#32384A"/>
</g>
</svg>
