<svg width="133" height="32" viewBox="0 0 133 32" fill="none" xmlns="http://www.w3.org/2000/svg">
<g clip-path="url(#clip0)">
<path fill-rule="evenodd" clip-rule="evenodd" d="M0 16.0476L26.0672 32C26.6445 28.1421 23.0108 25.8652 22.9768 25.5313C22.9372 25.1044 25.8697 24.04 26.0859 21.119C26.4514 16.2432 19.6679 15.933 19.4352 19.5791C19.3112 21.4854 21.4666 21.5286 21.5336 20.1129C21.6269 18.2175 23.6221 18.5752 23.9316 20.7084C24.2443 22.8448 21.7158 23.7493 20.705 23.7212C19.1312 23.6737 17.0372 22.4115 16.8474 20.5463C16.5851 17.9776 19.5329 17.6458 15.7301 17.9625C14.2365 18.0857 13.1467 17.3 12.4531 16.0357C13.3146 14.8599 14.2365 14.043 15.7301 14.1683C19.5329 14.4871 16.5851 14.1521 16.8474 11.5586C17.0372 9.67717 19.1312 8.40093 20.705 8.35447C21.7158 8.32421 24.2443 9.23735 23.9316 11.3954C23.6221 13.547 21.6269 13.9079 21.5336 11.9962C21.4666 10.5655 19.3112 10.6108 19.4352 12.5355C19.6679 16.214 26.4514 15.9028 26.0859 10.9804C25.873 8.09079 23.0481 6.99934 22.9779 6.55088C22.9416 6.31422 26.6324 3.81469 26.0672 -0.00321953" fill="#B9966E"/>
<path d="M129.954 20.6411C129.522 20.8529 128.876 20.9945 128.205 20.9945C126.505 20.9945 125.499 20.2877 125.499 18.6365C125.499 16.3261 127.199 15.7361 129.954 15.4054V20.6411ZM132.683 21.6785V13.8017C132.683 10.5241 130.576 9.41646 127.918 9.41646C125.882 9.41646 124.326 9.98271 123.487 10.3826L124.158 12.0338C124.948 11.6566 126.145 11.2557 127.391 11.2557C128.9 11.2557 129.954 11.7031 129.954 13.3543V14.0384C126.026 14.4155 122.745 15.3827 122.745 18.7305C122.745 21.1836 124.492 22.5981 128.013 22.5981C130.026 22.5981 131.653 22.221 132.683 21.6785ZM120.254 22.3626V13.3068C120.254 11.2557 118.984 9.41646 115.129 9.41646C112.949 9.41646 111.298 9.76983 110.076 10.3361V22.3626H112.998V11.5853C113.548 11.3735 114.051 11.2319 115.009 11.2319C116.854 11.2319 117.333 12.3169 117.333 13.3543V22.3626H120.254ZM104.232 20.6411C103.802 20.8529 103.155 20.9945 102.485 20.9945C100.784 20.9945 99.7784 20.2877 99.7784 18.6365C99.7784 16.3261 101.478 15.7361 104.232 15.4054V20.6411ZM106.964 21.6785V13.8017C106.964 10.5241 104.855 9.41646 102.197 9.41646C100.161 9.41646 98.6052 9.98271 97.7668 10.3826L98.4373 12.0338C99.2275 11.6566 100.425 11.2557 101.67 11.2557C103.18 11.2557 104.232 11.7031 104.232 13.3543V14.0384C100.305 14.4155 97.0238 15.3827 97.0238 18.7305C97.0238 21.1836 98.772 22.5981 102.294 22.5981C104.304 22.5981 105.933 22.221 106.964 21.6785ZM95.2041 22.2448V20.452C94.9649 20.5233 94.7728 20.5698 94.5094 20.5698C93.5042 20.5698 93.097 19.9095 93.097 18.9186V11.4913H95.2041V9.65204H93.097V6.04377L90.1744 6.84561V9.65204H88.7378V11.4913H90.1744V19.0612C90.1744 20.8291 91.1808 22.5041 93.7193 22.5041C94.414 22.5041 94.9408 22.3626 95.2041 22.2448ZM86.9895 18.7067C86.9895 17.2219 86.4156 15.9479 83.9002 14.958C82.7752 14.5095 81.9851 13.9908 81.9851 12.9534C81.9851 12.0575 82.6315 11.2795 83.8277 11.2795C84.7386 11.2795 85.5047 11.6804 85.8877 11.9862L86.6065 10.3123C85.7681 9.76983 84.6914 9.41646 83.2537 9.41646C80.7866 9.41646 79.1591 11.0666 79.1591 13.095C79.1591 14.4155 79.6617 15.7361 82.1047 16.6557C83.4217 17.1506 83.9967 17.6693 83.9967 18.7543C83.9967 19.7917 83.2055 20.5471 82.0092 20.5471C80.9545 20.5471 80.0689 20.1937 79.5904 19.8155L78.8232 21.6547C79.5904 22.1735 80.8832 22.5744 82.3922 22.5744C85.2171 22.5744 86.9895 20.7827 86.9895 18.7067ZM73.7705 20.6411C73.3391 20.8529 72.6927 20.9945 72.0222 20.9945C70.3222 20.9945 69.3158 20.2877 69.3158 18.6365C69.3158 16.3261 71.0158 15.7361 73.7705 15.4054V20.6411ZM76.4999 21.6785V13.8017C76.4999 10.5241 74.3927 9.41646 71.7346 9.41646C69.6988 9.41646 68.1426 9.98271 67.3041 10.3826L67.9747 12.0338C68.7649 11.6566 69.9622 11.2557 71.2079 11.2557C72.7158 11.2557 73.7705 11.7031 73.7705 13.3543V14.0384C69.8426 14.4155 66.5611 15.3827 66.5611 18.7305C66.5611 21.1836 68.3094 22.5981 71.8301 22.5981C73.8429 22.5981 75.4704 22.221 76.4999 21.6785ZM58.7548 9.44023C55.4975 9.34513 53.8688 9.6985 52.5277 10.3361V22.3626H55.4492V11.6329C56.1209 11.2557 57.1975 11.2082 58.1797 11.5388L58.7548 9.44023ZM49.3187 22.3626V9.65204H46.3972V22.3626H49.3187ZM49.4625 6.04377C49.4625 5.24301 48.7678 4.60543 47.858 4.60543C46.9723 4.60543 46.2535 5.24301 46.2535 6.04377C46.2535 6.82183 46.9723 7.45941 47.858 7.45941C48.7678 7.45941 49.4625 6.82183 49.4625 6.04377ZM40.4577 20.6411C40.0264 20.8529 39.38 20.9945 38.7094 20.9945C37.0094 20.9945 36.003 20.2877 36.003 18.6365C36.003 16.3261 37.703 15.7361 40.4577 15.4054V20.6411ZM43.1871 21.6785V13.8017C43.1871 10.5241 41.0811 9.41646 38.4219 9.41646C36.3861 9.41646 34.8298 9.98271 33.9914 10.3826L34.6619 12.0338C35.4521 11.6566 36.6506 11.2557 37.8951 11.2557C39.4041 11.2557 40.4577 11.7031 40.4577 13.3543V14.0384C36.5298 14.4155 33.2495 15.3827 33.2495 18.7305C33.2495 21.1836 34.9978 22.5981 38.5185 22.5981C40.5301 22.5981 42.1577 22.221 43.1871 21.6785Z" fill="#002A47"/>
</g>
<defs>
<clipPath id="clip0">
<rect width="132.683" height="32" fill="white"/>
</clipPath>
</defs>
</svg>
