<svg width="27" height="32" viewBox="0 0 27 32" fill="none" xmlns="http://www.w3.org/2000/svg">
<g clip-path="url(#clip0)">
<path fill-rule="evenodd" clip-rule="evenodd" d="M0 16.0476L26.0672 32C26.6445 28.1421 23.0108 25.8652 22.9767 25.5313C22.9372 25.1044 25.8697 24.04 26.0859 21.119C26.4514 16.2432 19.6679 15.933 19.4352 19.5791C19.3112 21.4854 21.4666 21.5286 21.5336 20.1129C21.6269 18.2175 23.6221 18.5752 23.9316 20.7084C24.2443 22.8448 21.7157 23.7493 20.705 23.7212C19.1312 23.6737 17.0372 22.4115 16.8473 20.5463C16.5851 17.9776 19.5329 17.6458 15.7301 17.9625C14.2365 18.0857 13.1467 17.3 12.4531 16.0357C13.3146 14.8599 14.2365 14.043 15.7301 14.1683C19.5329 14.4871 16.5851 14.1521 16.8473 11.5586C17.0372 9.67717 19.1312 8.40093 20.705 8.35447C21.7157 8.32421 24.2443 9.23735 23.9316 11.3954C23.6221 13.547 21.6269 13.9079 21.5336 11.9962C21.4666 10.5655 19.3112 10.6108 19.4352 12.5355C19.6679 16.214 26.4514 15.9028 26.0859 10.9804C25.873 8.09079 23.0481 6.99934 22.9778 6.55088C22.9416 6.31422 26.6324 3.81469 26.0672 -0.00321953" fill="#B9966E"/>
</g>
<defs>
<clipPath id="clip0">
<rect width="27" height="32" fill="white"/>
</clipPath>
</defs>
</svg>
