<svg width="24" height="24" viewBox="0 0 24 24" fill="none" xmlns="http://www.w3.org/2000/svg">
<path fill-rule="evenodd" clip-rule="evenodd" d="M3.75 12C3.75 11.5858 4.08579 11.25 4.5 11.25H19.5C19.9142 11.25 20.25 11.5858 20.25 12C20.25 12.4142 19.9142 12.75 19.5 12.75H4.5C4.08579 12.75 3.75 12.4142 3.75 12Z" fill="#32384A"/>
<path fill-rule="evenodd" clip-rule="evenodd" d="M3.75 7C3.75 6.58579 4.08579 6.25 4.5 6.25H19.5C19.9142 6.25 20.25 6.58579 20.25 7C20.25 7.41421 19.9142 7.75 19.5 7.75H4.5C4.08579 7.75 3.75 7.41421 3.75 7Z" fill="#32384A"/>
<path fill-rule="evenodd" clip-rule="evenodd" d="M3.75 17C3.75 16.5858 4.08579 16.25 4.5 16.25H19.5C19.9142 16.25 20.25 16.5858 20.25 17C20.25 17.4142 19.9142 17.75 19.5 17.75H4.5C4.08579 17.75 3.75 17.4142 3.75 17Z" fill="#32384A"/>
</svg>
