<svg width="20" height="20" viewBox="0 0 20 20" fill="none" xmlns="http://www.w3.org/2000/svg">
<path d="M11.9467 15.0306L8.06376 15.0571C7.90517 15.6854 7.56017 16.2517 7.0736 16.6825C6.58703 17.1133 5.98138 17.3886 5.33537 17.4727C4.68936 17.5568 4.03285 17.4457 3.45117 17.1539C2.8695 16.8621 2.38954 16.4031 2.07367 15.8365C1.75781 15.2699 1.62065 14.622 1.68002 13.9769C1.73938 13.3318 1.99253 12.7194 2.40656 12.2192C2.82059 11.719 3.37635 11.3542 4.00163 11.1723C4.62691 10.9903 5.29279 10.9995 5.91273 11.1987L7.9937 7.93828C7.45285 7.36517 7.1408 6.61561 7.11602 5.83011C7.09125 5.0446 7.35546 4.27707 7.85912 3.6714C8.36279 3.06572 9.07133 2.66348 9.85194 2.54007C10.6325 2.41666 11.4316 2.58055 12.0994 3.00103C12.7672 3.42151 13.2578 4.0697 13.4793 4.82411C13.7007 5.57852 13.6379 6.38734 13.3025 7.09898C12.9671 7.81062 12.3822 8.3762 11.6574 8.68972C10.9326 9.00324 10.1177 9.04317 9.36543 8.80203L7.28446 12.0625C7.65137 12.4522 7.91558 12.9261 8.05356 13.442L11.9365 13.4155C12.1295 12.6534 12.5954 11.9874 13.2469 11.5424C13.8984 11.0974 14.6907 10.9039 15.4754 10.9982C16.2601 11.0926 16.9833 11.4682 17.5094 12.0547C18.0355 12.6412 18.3283 13.3984 18.3331 14.1843C18.3379 14.9702 18.0542 15.7308 17.5353 16.3236C17.0164 16.9164 16.2978 17.3007 15.5143 17.4044C14.7308 17.5082 13.9362 17.3242 13.2793 16.8871C12.6225 16.4499 12.1489 15.7903 11.9467 15.0306ZM5.70112 15.6827C6.07777 15.4751 6.35605 15.1273 6.47475 14.7157C6.59345 14.3041 6.54285 13.8625 6.33407 13.488C6.12529 13.1135 5.77544 12.8368 5.36148 12.7188C4.94752 12.6007 4.50337 12.6511 4.12672 12.8586C3.75007 13.0662 3.47179 13.4141 3.35309 13.8257C3.23439 14.2373 3.28499 14.6789 3.49377 15.0534C3.70255 15.4279 4.0524 15.7046 4.46636 15.8226C4.88032 15.9406 5.32448 15.8903 5.70112 15.6827ZM11.1503 7.14178C11.527 6.9342 11.8053 6.58635 11.924 6.17476C12.0427 5.76317 11.9921 5.32155 11.7833 4.94706C11.5745 4.57256 11.2247 4.29587 10.8107 4.17785C10.3967 4.05983 9.95258 4.11014 9.57593 4.31773C9.19929 4.52531 8.921 4.87316 8.8023 5.28475C8.6836 5.69634 8.73421 6.13796 8.94299 6.51245C9.15177 6.88695 9.50162 7.16364 9.91557 7.28166C10.3295 7.39968 10.7737 7.34936 11.1503 7.14178ZM15.8735 15.6139C16.2502 15.4063 16.5285 15.0585 16.6472 14.6469C16.7659 14.2353 16.7153 13.7937 16.5065 13.4192C16.2977 13.0447 15.9479 12.768 15.5339 12.65C15.1199 12.532 14.6758 12.5823 14.2991 12.7899C13.9225 12.9975 13.6442 13.3453 13.5255 13.7569C13.4068 14.1685 13.4574 14.6101 13.6662 14.9846C13.875 15.3591 14.2248 15.6358 14.6388 15.7538C15.0527 15.8718 15.4969 15.8215 15.8735 15.6139Z" fill="#B5B9C5"/>
</svg>
