<svg width="24" height="24" viewBox="0 0 24 24" fill="none" xmlns="http://www.w3.org/2000/svg">
<path fill-rule="evenodd" clip-rule="evenodd" d="M11.1667 5.25C7.89898 5.25 5.25 7.89898 5.25 11.1667C5.25 14.4344 7.89898 17.0833 11.1667 17.0833C14.4344 17.0833 17.0833 14.4344 17.0833 11.1667C17.0833 7.89898 14.4344 5.25 11.1667 5.25ZM3.75 11.1667C3.75 7.07055 7.07055 3.75 11.1667 3.75C15.2628 3.75 18.5833 7.07055 18.5833 11.1667C18.5833 15.2628 15.2628 18.5833 11.1667 18.5833C7.07055 18.5833 3.75 15.2628 3.75 11.1667Z" fill="#32384A"/>
<path fill-rule="evenodd" clip-rule="evenodd" d="M15.3447 15.3445C15.6376 15.0516 16.1125 15.0516 16.4054 15.3445L20.0304 18.9695C20.3233 19.2624 20.3233 19.7373 20.0304 20.0302C19.7375 20.3231 19.2626 20.3231 18.9697 20.0302L15.3447 16.4052C15.0518 16.1123 15.0518 15.6374 15.3447 15.3445Z" fill="#32384A"/>
</svg>
