<svg width="24" height="24" viewBox="0 0 24 24" fill="none" xmlns="http://www.w3.org/2000/svg">
<path fill-rule="evenodd" clip-rule="evenodd" d="M10.8746 2.77501C6.4011 2.77501 2.77461 6.4015 2.77461 10.875C2.77461 15.3485 6.4011 18.975 10.8746 18.975C15.3481 18.975 18.9746 15.3485 18.9746 10.875C18.9746 6.4015 15.3481 2.77501 10.8746 2.77501ZM0.974609 10.875C0.974609 5.40739 5.40699 0.975006 10.8746 0.975006C16.3422 0.975006 20.7746 5.40739 20.7746 10.875C20.7746 16.3426 16.3422 20.775 10.8746 20.775C5.40699 20.775 0.974609 16.3426 0.974609 10.875Z" fill="white"/>
<path fill-rule="evenodd" clip-rule="evenodd" d="M16.5947 16.5946C16.9461 16.2431 17.516 16.2431 17.8675 16.5946L22.7612 21.4883C23.1127 21.8398 23.1127 22.4096 22.7612 22.7611C22.4097 23.1126 21.8399 23.1126 21.4884 22.7611L16.5947 17.8674C16.2432 17.5159 16.2432 16.946 16.5947 16.5946Z" fill="white"/>
</svg>
