<svg width="24" height="24" viewBox="0 0 24 24" fill="none" xmlns="http://www.w3.org/2000/svg">
<path d="M4.4689 21C2.92823 21 1.96611 19.3313 2.73804 17.9979L10.2691 4.98965C11.0395 3.65908 12.9605 3.65908 13.7309 4.98965L21.262 17.9979C22.0339 19.3313 21.0718 21 19.5311 21H4.4689ZM12 18C12.2833 18 12.521 17.904 12.713 17.712C12.9043 17.5207 13 17.2833 13 17C13 16.7167 12.9043 16.4793 12.713 16.288C12.521 16.096 12.2833 16 12 16C11.7167 16 11.4793 16.096 11.288 16.288C11.096 16.4793 11 16.7167 11 17C11 17.2833 11.096 17.5207 11.288 17.712C11.4793 17.904 11.7167 18 12 18ZM11 13.5C11 14.0523 11.4477 14.5 12 14.5C12.5523 14.5 13 14.0523 13 13.5V10.5C13 9.94772 12.5523 9.5 12 9.5C11.4477 9.5 11 9.94772 11 10.5V13.5Z" fill="#F2994A"/>
</svg>
