<svg width="24" height="24" viewBox="0 0 24 24" fill="none" xmlns="http://www.w3.org/2000/svg">
<path fill-rule="evenodd" clip-rule="evenodd" d="M5.77932 14.946C6.5451 14.1802 7.58371 13.75 8.66668 13.75H15.3333C16.4163 13.75 17.4549 14.1802 18.2207 14.946C18.9865 15.7118 19.4167 16.7504 19.4167 17.8333V19.5C19.4167 19.9142 19.0809 20.25 18.6667 20.25C18.2525 20.25 17.9167 19.9142 17.9167 19.5V17.8333C17.9167 17.1482 17.6445 16.4911 17.16 16.0066C16.6756 15.5222 16.0185 15.25 15.3333 15.25H8.66668C7.98153 15.25 7.32445 15.5222 6.83998 16.0066C6.35552 16.4911 6.08334 17.1482 6.08334 17.8333V19.5C6.08334 19.9142 5.74756 20.25 5.33334 20.25C4.91913 20.25 4.58334 19.9142 4.58334 19.5V17.8333C4.58334 16.7504 5.01355 15.7118 5.77932 14.946Z" fill="#32384A"/>
<path fill-rule="evenodd" clip-rule="evenodd" d="M12 5.25C10.5733 5.25 9.41667 6.4066 9.41667 7.83333C9.41667 9.26007 10.5733 10.4167 12 10.4167C13.4267 10.4167 14.5833 9.26007 14.5833 7.83333C14.5833 6.4066 13.4267 5.25 12 5.25ZM7.91667 7.83333C7.91667 5.57817 9.74484 3.75 12 3.75C14.2552 3.75 16.0833 5.57817 16.0833 7.83333C16.0833 10.0885 14.2552 11.9167 12 11.9167C9.74484 11.9167 7.91667 10.0885 7.91667 7.83333Z" fill="#32384A"/>
</svg>
