<svg width="31" height="20" viewBox="0 0 31 20" fill="none" xmlns="http://www.w3.org/2000/svg">
<path fill-rule="evenodd" clip-rule="evenodd" d="M0.87836 0.9812C1.44094 0.378666 2.20387 0.0401809 2.99936 0.0401809C3.79485 0.0401809 4.55778 0.378666 5.12036 0.9812L14.9994 11.5649L24.8784 0.9812C25.1551 0.674229 25.4861 0.429378 25.8521 0.260935C26.2182 0.0924923 26.6118 0.00382973 27.0102 0.000121352C27.4085 -0.00358703 27.8035 0.0777322 28.1722 0.239335C28.5409 0.400939 28.8759 0.639589 29.1575 0.941361C29.4392 1.24313 29.662 1.60198 29.8128 1.99697C29.9637 2.39196 30.0396 2.81518 30.0361 3.24194C30.0326 3.66869 29.9499 4.09043 29.7927 4.48255C29.6354 4.87468 29.4069 5.22933 29.1204 5.52581L17.1204 18.3818C16.5578 18.9844 15.7949 19.3229 14.9994 19.3229C14.2039 19.3229 13.4409 18.9844 12.8784 18.3818L0.87836 5.52581C0.315947 4.92309 0 4.10574 0 3.2535C0 2.40126 0.315947 1.58392 0.87836 0.9812Z" fill="white" fill-opacity="0.42"/>
</svg>
