<svg width="40" height="40" viewBox="0 0 40 40" fill="none" xmlns="http://www.w3.org/2000/svg">
<path fill-rule="evenodd" clip-rule="evenodd" d="M31.4151 8.586C31.7901 8.96106 32.0007 9.46967 32.0007 10C32.0007 10.5303 31.7901 11.0389 31.4151 11.414L21.4151 21.414C21.0401 21.7889 20.5315 21.9996 20.0011 21.9996C19.4708 21.9996 18.9622 21.7889 18.5871 21.414L8.58714 11.414C8.22282 11.0368 8.02123 10.5316 8.02579 10.0072C8.03035 9.4828 8.24069 8.98118 8.6115 8.61036C8.98232 8.23955 9.48394 8.02921 10.0083 8.02465C10.5327 8.02009 11.0379 8.22168 11.4151 8.586L20.0011 17.172L28.5871 8.586C28.9622 8.21106 29.4708 8.00043 30.0011 8.00043C30.5315 8.00043 31.0401 8.21106 31.4151 8.586ZM31.4151 20.586C31.7901 20.9611 32.0007 21.4697 32.0007 22C32.0007 22.5303 31.7901 23.0389 31.4151 23.414L21.4151 33.414C21.0401 33.7889 20.5315 33.9996 20.0011 33.9996C19.4708 33.9996 18.9622 33.7889 18.5871 33.414L8.58714 23.414C8.39612 23.2295 8.24375 23.0088 8.13894 22.7648C8.03412 22.5208 7.97895 22.2584 7.97664 21.9928C7.97433 21.7272 8.02493 21.4639 8.1255 21.2181C8.22606 20.9723 8.37456 20.749 8.56235 20.5612C8.75013 20.3734 8.97344 20.2249 9.21923 20.1244C9.46502 20.0238 9.72838 19.9732 9.99394 19.9755C10.2595 19.9778 10.5219 20.033 10.7659 20.1378C11.01 20.2426 11.2306 20.395 11.4151 20.586L20.0011 29.172L28.5871 20.586C28.9622 20.2111 29.4708 20.0004 30.0011 20.0004C30.5315 20.0004 31.0401 20.2111 31.4151 20.586V20.586Z" fill="white"/>
</svg>
