<svg width="14" height="17" viewBox="0 0 14 17" fill="none" xmlns="http://www.w3.org/2000/svg">
<path fill-rule="evenodd" clip-rule="evenodd" d="M2.05038 2.05031C3.36312 0.73752 5.14358 0 7.00007 0C8.85657 0 10.637 0.73752 11.9498 2.05031C13.2625 3.36311 14 5.14364 14 7.00021C14 8.85678 13.2625 10.6373 11.9498 11.9501L7.00007 16.9L2.05038 11.9501C1.40033 11.3001 0.884685 10.5284 0.532879 9.6791C0.181073 8.82979 0 7.9195 0 7.00021C0 6.08092 0.181073 5.17062 0.532879 4.32132C0.884685 3.47201 1.40033 2.70032 2.05038 2.05031ZM7.00007 9.00017C7.53047 9.00017 8.03915 8.78946 8.4142 8.41439C8.78925 8.03933 8.99995 7.53063 8.99995 7.00021C8.99995 6.46979 8.78925 5.96109 8.4142 5.58603C8.03915 5.21096 7.53047 5.00025 7.00007 5.00025C6.46967 5.00025 5.961 5.21096 5.58595 5.58603C5.2109 5.96109 5.0002 6.46979 5.0002 7.00021C5.0002 7.53063 5.2109 8.03933 5.58595 8.41439C5.961 8.78946 6.46967 9.00017 7.00007 9.00017Z" fill="white"/>
</svg>
