<svg width="32" height="32" viewBox="0 0 32 32" fill="none" xmlns="http://www.w3.org/2000/svg">
<path d="M4 13.7857L24 18.5357L28 12.4286M20 12H22M8 26H24C25.0609 26 26.0783 25.571 26.8284 24.8075C27.5786 24.044 28 23.0084 28 21.9286V11.0714C28 9.99162 27.5786 8.95603 26.8284 8.19249C26.0783 7.42895 25.0609 7 24 7H8C6.93913 7 5.92172 7.42895 5.17157 8.19249C4.42143 8.95603 4 9.99162 4 11.0714V21.9286C4 23.0084 4.42143 24.044 5.17157 24.8075C5.92172 25.571 6.93913 26 8 26Z" stroke="white" stroke-width="2" stroke-linecap="round" stroke-linejoin="round"/>
</svg>
