<svg width="1936" height="237" viewBox="0 0 1936 237" fill="none" xmlns="http://www.w3.org/2000/svg">
<path fill-rule="evenodd" clip-rule="evenodd" d="M1785.77 190.09V18.1554C1785.77 7.75057 1782.51 4.60908 1771.71 4.60908L1696.77 4.6079C1685.98 4.6079 1682.72 7.75066 1682.72 18.1567V216.861C1682.72 227.432 1690.49 234.926 1701.46 234.925H1715.18L1715.23 234.926H1767.03H1921.24C1932.03 234.926 1935.28 231.782 1935.28 221.371V203.644C1935.28 193.233 1932.03 190.09 1921.24 190.09H1785.77V190.09ZM104.057 1.67513L206.11 1.67513C226.913 1.67513 244.284 4.38963 258.245 9.13019L258.391 9.17847L258.549 9.23394C262.442 10.6678 262.571 14.6703 262.571 14.6703C262.571 14.6703 262.571 44.1387 262.571 47.1355C262.571 50.1323 254.414 49.7584 254.414 49.7584C254.414 49.7584 186.063 43.016 167.034 43.3898C148.004 43.7648 130.528 44.8888 117.323 50.1322C104.119 55.3769 117.323 65.8663 117.323 65.8663C117.323 65.8663 132.858 75.9804 166.645 86.0946C186.708 92.1002 205.949 99.2937 218.271 104.148C257.949 118.057 288.333 141.107 284.966 174.992C280.674 218.211 181.435 235.434 152.599 235.434H65.1295C41.6272 235.434 22.0045 232.526 6.23003 227.45L6.06496 227.397L5.88743 227.338C1.48903 225.803 1.34402 221.516 1.34402 221.516C1.34402 221.516 1.34402 189.957 1.34402 186.748C1.34402 183.539 10.5572 183.939 10.5572 183.939C10.5572 183.939 74.7615 191.16 96.2609 190.76C117.76 190.358 144.683 189.155 159.601 183.538C174.519 177.921 180.04 162.063 166.781 154.135C153.524 146.206 149.232 143.303 111.061 132.472C100.931 129.597 48.6887 112.173 35.9198 104.821C13.9616 94.359 0 81.5459 0 58.1132C0 27.0723 58.4869 1.67513 104.057 1.67513V1.67513ZM426.618 234.926C437.582 234.926 445.353 227.432 445.353 216.861V18.1567C445.353 7.75066 442.094 4.6079 431.302 4.6079L356.359 4.6079C345.566 4.6079 342.307 7.75066 342.307 18.1567V216.861C342.307 227.432 350.079 234.926 361.043 234.926H426.618V234.926ZM577.539 234.926C587.725 234.926 594.943 227.432 594.943 216.861V107.103L705.518 228.009C706.823 229.365 708.222 230.508 709.684 231.433C712.573 233.66 716.261 234.926 720.45 234.926H776.317C786.503 234.926 793.721 227.432 793.721 216.861V18.1567C793.721 7.75066 790.693 4.6079 780.667 4.6079L711.05 4.6079C701.025 4.6079 697.998 7.75066 697.998 18.1567V120.497L595.825 10.9777C594.731 9.88032 593.702 8.93126 592.725 8.1281C591.532 6.54952 589.792 5.58476 587.356 5.07344C586.88 4.94681 586.41 4.86719 585.941 4.83343L585.897 4.83107C584.706 4.67792 583.375 4.6079 581.889 4.6079L512.272 4.6079C502.248 4.6079 499.219 7.75066 499.219 18.1567V216.861C499.219 227.432 506.437 234.926 516.623 234.926H577.539V234.926ZM992.254 0L1026.32 0C1088.74 0 1139.81 37.4217 1139.81 83.1727V153.361C1139.81 199.112 1088.74 236.535 1026.32 236.535H992.254H958.182C895.768 236.535 844.699 199.112 844.699 153.361V83.1727C844.699 37.4217 895.768 0 958.182 0L992.254 0ZM992.254 193.586H999.713C1021.27 193.586 1038.91 178.247 1038.91 159.498V77.0369C1038.91 58.2881 1021.27 42.9485 999.713 42.9485H992.254H984.793C963.236 42.9485 945.601 58.2881 945.601 77.0369V159.498C945.601 178.247 963.236 193.586 984.793 193.586H992.254ZM1333.21 0L1367.28 0C1429.69 0 1480.76 37.4217 1480.76 83.1727V153.361C1480.76 199.112 1429.69 236.535 1367.28 236.535H1333.21H1299.14C1236.72 236.535 1185.65 199.112 1185.65 153.361V83.1727C1185.65 37.4217 1236.72 0 1299.14 0L1333.21 0ZM1333.21 193.586H1340.67C1362.23 193.586 1379.86 178.247 1379.86 159.498V77.0369C1379.86 58.2881 1362.23 42.9485 1340.67 42.9485H1333.21H1325.75C1304.19 42.9485 1286.56 58.2881 1286.56 77.0369V159.498C1286.56 178.247 1304.19 193.586 1325.75 193.586H1333.21ZM1612.55 234.926C1623.51 234.926 1631.29 227.432 1631.29 216.861V18.1567C1631.29 7.75066 1628.02 4.6079 1617.23 4.6079L1542.29 4.6079C1531.5 4.6079 1528.24 7.75066 1528.24 18.1567V216.861C1528.24 227.432 1536.01 234.926 1546.97 234.926H1612.55V234.926Z" fill="white"/>
</svg>
