<svg width="60" height="60" viewBox="0 0 60 60" fill="none" xmlns="http://www.w3.org/2000/svg">
<path fill-rule="evenodd" clip-rule="evenodd" d="M16.001 38.0001H14.368C13.061 38.0001 12.001 39.0601 12.001 40.3681V45.6322C12.001 46.9402 13.061 48.0002 14.368 48.0002H16.001V57.0002C16.001 57.5522 16.449 58.0002 17.001 58.0002C17.553 58.0002 18.001 57.5522 18.001 57.0002V48.0002H19.633C20.941 48.0002 22.0011 46.9402 22.0011 45.6322V40.3681C22.0011 39.0601 20.941 38.0001 19.633 38.0001H18.001V27.0001C18.001 26.4481 17.553 26.0001 17.001 26.0001C16.449 26.0001 16.001 26.4481 16.001 27.0001V38.0001ZM52.0012 16.0001H50.3682C49.0612 16.0001 48.0011 17.0601 48.0011 18.3681V43.6322C48.0011 44.9402 49.0612 46.0002 50.3682 46.0002H52.0012V55.0002C52.0012 55.5522 52.4492 56.0002 53.0012 56.0002C53.5532 56.0002 54.0012 55.5522 54.0012 55.0002V46.0002H55.6332C56.9412 46.0002 58.0012 44.9402 58.0012 43.6322V18.3681C58.0012 17.0601 56.9412 16.0001 55.6332 16.0001H54.0012V7.00002C54.0012 6.44802 53.5532 6.00001 53.0012 6.00001C52.4492 6.00001 52.0012 6.44802 52.0012 7.00002V16.0001ZM4.00099 28.0001H2.36798C1.06098 28.0001 0.000976562 29.0601 0.000976562 30.3681C0.000976562 34.3131 0.000976562 45.6872 0.000976562 49.6322C0.000976562 50.9402 1.06098 52.0002 2.36798 52.0002H4.00099V55.0002C4.00099 55.5522 4.44899 56.0002 5.001 56.0002C5.553 56.0002 6.001 55.5522 6.001 55.0002V52.0002H7.633C8.94101 52.0002 10.001 50.9402 10.001 49.6322V30.3681C10.001 29.0601 8.94101 28.0001 7.633 28.0001H6.001V21.0001C6.001 20.4481 5.553 20.0001 5.001 20.0001C4.44899 20.0001 4.00099 20.4481 4.00099 21.0001V28.0001ZM28.0011 21.5001H26.3681C25.0611 21.5001 24.0011 22.5601 24.0011 23.8681C24.0011 26.9731 24.0011 34.5271 24.0011 37.6321C24.0011 38.9401 25.0611 40.0001 26.3681 40.0001H28.0011V49.0002C28.0011 49.5522 28.4491 50.0002 29.0011 50.0002C29.5531 50.0002 30.0011 49.5522 30.0011 49.0002V40.0001H31.6331C32.9411 40.0001 34.0011 38.9401 34.0011 37.6321C34.0011 34.5271 34.0011 26.9731 34.0011 23.8681C34.0011 22.5601 32.9411 21.5001 31.6331 21.5001H30.0011V19.0001C30.0011 18.4481 29.5531 18.0001 29.0011 18.0001C28.4491 18.0001 28.0011 18.4481 28.0011 19.0001V21.5001ZM8.00101 30.3681V49.6322C8.00101 49.8352 7.836 50.0002 7.633 50.0002H2.36798C2.16498 50.0002 2.00098 49.8352 2.00098 49.6322V30.3681C2.00098 30.1651 2.16498 30.0001 2.36798 30.0001H7.633C7.836 30.0001 8.00101 30.1651 8.00101 30.3681ZM20.0011 40.3671V45.6322C20.0011 45.8352 19.836 46.0002 19.633 46.0002H14.368C14.165 46.0002 14.001 45.8352 14.001 45.6332C14.001 45.6322 14.001 40.3681 14.001 40.3681C14.001 40.1651 14.165 40.0001 14.368 40.0001H19.633C19.836 40.0001 20.0011 40.1651 20.0011 40.3671ZM56.0012 18.3671V43.6322C56.0012 43.8352 55.8362 44.0002 55.6332 44.0002H50.3682C50.1652 44.0002 50.0012 43.8352 50.0012 43.6332C50.0012 43.6322 50.0012 18.3681 50.0012 18.3681C50.0012 18.1651 50.1652 18.0001 50.3682 18.0001H55.6332C55.8362 18.0001 56.0012 18.1651 56.0012 18.3671ZM40.0011 8.00002H38.3681C37.0611 8.00002 36.0011 9.06003 36.0011 10.368C36.0011 13.714 36.0011 22.2861 36.0011 25.6321C36.0011 26.9401 37.0611 28.0001 38.3681 28.0001H40.0011V41.0001C40.0011 41.5521 40.4491 42.0001 41.0011 42.0001C41.5531 42.0001 42.0011 41.5521 42.0011 41.0001V28.0001H43.6331C44.9411 28.0001 46.0011 26.9401 46.0011 25.6321C46.0011 22.2861 46.0011 13.714 46.0011 10.368C46.0011 9.06003 44.9411 8.00002 43.6331 8.00002H42.0011V3C42.0011 2.448 41.5531 2 41.0011 2C40.4491 2 40.0011 2.448 40.0011 3V8.00002ZM32.0011 23.8681C32.0011 26.9731 32.0011 34.5271 32.0011 37.6321C32.0011 37.8351 31.8361 38.0001 31.6331 38.0001H26.3681C26.1651 38.0001 26.0011 37.8351 26.0011 37.6321C26.0011 34.5271 26.0011 26.9731 26.0011 23.8681C26.0011 23.6651 26.1651 23.5001 26.3681 23.5001H31.6331C31.8361 23.5001 32.0011 23.6651 32.0011 23.8681ZM44.0011 10.368C44.0011 13.714 44.0011 22.2861 44.0011 25.6321C44.0011 25.8351 43.8361 26.0001 43.6331 26.0001H38.3681C38.1651 26.0001 38.0011 25.8351 38.0011 25.6321C38.0011 22.2861 38.0011 13.714 38.0011 10.368C38.0011 10.165 38.1651 10 38.3681 10H43.6331C43.8361 10 44.0011 10.165 44.0011 10.368Z" fill="url(#paint0_linear_136_434)"/>
<defs>
<linearGradient id="paint0_linear_136_434" x1="14.001" y1="26.0001" x2="55.0012" y2="48.0002" gradientUnits="userSpaceOnUse">
<stop stop-color="#0099FA"/>
<stop offset="1" stop-color="#0053FA"/>
</linearGradient>
</defs>
</svg>
