<svg width="61" height="60" viewBox="0 0 61 60" fill="none" xmlns="http://www.w3.org/2000/svg">
<path fill-rule="evenodd" clip-rule="evenodd" d="M22.2846 37.7171C21.2175 37.9031 20.1205 38.0001 19.0015 38.0001C8.5145 38.0001 0.00146484 29.4861 0.00146484 19.0001C0.00146484 8.51403 8.5145 0 19.0015 0C29.4876 0 38.0016 8.51403 38.0016 19.0001C38.0016 20.1201 37.9036 21.2171 37.7176 22.2831C38.7836 22.0971 39.8816 22.0001 41.0016 22.0001C51.4877 22.0001 60.0017 30.5141 60.0017 41.0002C60.0017 51.4862 51.4877 60.0002 41.0016 60.0002C30.5146 60.0002 22.0015 51.4862 22.0015 41.0002C22.0015 39.8801 22.0986 38.7831 22.2846 37.7171ZM41.0016 24.0001C50.3837 24.0001 58.0017 31.6171 58.0017 41.0002C58.0017 50.3832 50.3837 58.0002 41.0016 58.0002C31.6186 58.0002 24.0016 50.3832 24.0016 41.0002C24.0016 31.6171 31.6186 24.0001 41.0016 24.0001ZM36.0016 34.0001H33.0016C32.4496 34.0001 32.0016 33.5521 32.0016 33.0001C32.0016 32.4481 32.4496 32.0001 33.0016 32.0001H36.0016V29.0001C36.0016 28.4481 36.4496 28.0001 37.0016 28.0001C37.5526 28.0001 38.0016 28.4481 38.0016 29.0001V32.0001H40.0016V29.0001C40.0016 28.4481 40.4496 28.0001 41.0016 28.0001C41.5526 28.0001 42.0016 28.4481 42.0016 29.0001V32.0001H43.0036C45.7636 32.0001 48.0016 34.2381 48.0016 36.9981V37.0021C48.0016 38.2721 47.5276 39.4311 46.7476 40.3131C48.6476 41.0212 50.0016 42.8512 50.0016 44.9982V45.0002C50.0016 46.3262 49.4747 47.5982 48.5366 48.5362C47.5986 49.4732 46.3276 50.0002 45.0016 50.0002H42.0016V53.0002C42.0016 53.5522 41.5526 54.0002 41.0016 54.0002C40.4496 54.0002 40.0016 53.5522 40.0016 53.0002V50.0002H38.0016V53.0002C38.0016 53.5522 37.5526 54.0002 37.0016 54.0002C36.4496 54.0002 36.0016 53.5522 36.0016 53.0002V50.0002H33.0016C32.4496 50.0002 32.0016 49.5522 32.0016 49.0002C32.0016 48.4482 32.4496 48.0002 33.0016 48.0002H36.0016V34.0001ZM38.0016 48.0002V42.0002H45.0036C46.6586 42.0002 48.0016 43.3422 48.0016 44.9982V45.0002C48.0016 45.7962 47.6846 46.5592 47.1226 47.1212C46.5596 47.6842 45.7966 48.0002 45.0016 48.0002H38.0016ZM43.0036 40.0001H38.0016V34.0001H43.0036C44.6586 34.0001 46.0016 35.3421 46.0016 36.9981V37.0021C46.0016 38.6581 44.6586 40.0001 43.0036 40.0001ZM35.5766 22.7871C35.8546 21.5691 36.0016 20.3011 36.0016 19.0001C36.0016 9.61703 28.3836 2.00001 19.0015 2.00001C9.6185 2.00001 2.00147 9.61703 2.00147 19.0001C2.00147 28.3831 9.6185 36.0001 19.0015 36.0001C20.3025 36.0001 21.5705 35.8531 22.7875 35.5761C24.6126 29.4481 29.4486 24.6121 35.5766 22.7871ZM18.0015 10H17.1295L16.4735 10.027L15.6625 10.181L14.9425 10.442L14.2295 10.837L13.6195 11.316L13.0885 11.885L12.6335 12.563L12.3255 13.222L12.1295 13.8691L12.0205 14.5501L12.0015 15.0021C12.0015 17.7621 14.2385 20.0001 16.9995 20.0001H21.0015C21.7965 20.0001 22.5596 20.3161 23.1226 20.8791C23.6846 21.4411 24.0016 22.2041 24.0016 23.0001V23.0021C24.0016 24.6451 22.6795 25.9791 21.0415 26.0001H17.0015C16.2055 26.0001 15.4425 25.6841 14.8795 25.1211C14.3175 24.5591 14.0015 23.7961 14.0015 23.0001V23.0021L13.9985 22.9371C13.9845 22.6371 13.8625 22.4321 13.7085 22.2931C13.5275 22.1121 13.2775 22.0001 13.0015 22.0001C13.0015 22.0001 12.0215 22.0611 12.0015 22.9741V23.0021C12.0015 25.7621 14.2385 28.0001 16.9995 28.0001H18.0015V31.0001C18.0015 31.5521 18.4495 32.0001 19.0015 32.0001C19.5525 32.0001 20.0015 31.5521 20.0015 31.0001V27.9991H21.0835L21.7835 27.9391L22.5476 27.7571L23.2785 27.4531L23.9685 27.0261L24.5546 26.5181L25.0596 25.9231L25.4816 25.2231L25.7576 24.5471L25.9226 23.8871L25.9996 23.1311L26.0016 22.9981C26.0016 20.2381 23.7636 18.0001 21.0035 18.0001H17.0015C16.2055 18.0001 15.4425 17.6841 14.8795 17.1211C14.3175 16.5591 14.0015 15.7961 14.0015 15.0001V14.9981C14.0015 13.355 15.3225 12.021 16.9605 12H21.0015C21.7965 12 22.5596 12.316 23.1226 12.879C23.6846 13.441 24.0016 14.2041 24.0016 15.0001V14.9981L24.0036 15.0631C24.0186 15.3631 24.1395 15.5681 24.2935 15.7071C24.4745 15.8881 24.7246 16.0001 25.0016 16.0001C25.0016 16.0001 25.9806 15.9391 26.0006 15.0261L26.0016 14.9981C26.0016 12.238 23.7636 10 21.0035 10H20.0015V7.00003C20.0015 6.44802 19.5525 6.00002 19.0015 6.00002C18.4495 6.00002 18.0015 6.44802 18.0015 7.00003V10Z" fill="url(#paint0_linear_136_444)"/>
<defs>
<linearGradient id="paint0_linear_136_444" x1="18.0015" y1="23.0001" x2="47.0016" y2="41.0002" gradientUnits="userSpaceOnUse">
<stop stop-color="#0099FA"/>
<stop offset="1" stop-color="#0053FA"/>
</linearGradient>
</defs>
</svg>
