<svg width="72" height="73" viewBox="0 0 72 73" fill="none" xmlns="http://www.w3.org/2000/svg">
<circle cx="36" cy="36.6943" r="34" stroke="#F14635" stroke-width="4"/>
<path fill-rule="evenodd" clip-rule="evenodd" d="M50.6667 18.3611C52.5997 18.3611 54.1834 19.8569 54.3234 21.7541L54.3334 22.0278V29.3611C54.3334 31.2941 52.8376 32.8777 50.9404 33.0177L50.6667 33.0277H48.8334V51.3611C48.8334 53.3861 47.1918 55.0278 45.1668 55.0278H26.8334C24.8084 55.0278 23.1667 53.3861 23.1667 51.3611L23.1667 33.0277H21.3334C19.4004 33.0277 17.8168 31.532 17.6768 29.6347L17.6667 29.3611V22.0278C17.6667 20.0948 19.1625 18.5111 21.0598 18.3711L21.3334 18.3611H50.6667ZM50.6667 29.3611H48.8334V25.6944H23.1667L23.1667 29.3611H21.3334V22.0278H50.6667V29.3611ZM45.1667 29.3611H26.8334V51.3611H45.1667V29.3611ZM43.3334 35.8611C43.3334 35.3088 42.8857 34.8611 42.3334 34.8611H40.6667C40.1145 34.8611 39.6667 35.3088 39.6667 35.8611V44.8611C39.6667 45.4134 40.1145 45.8611 40.6667 45.8611H42.3334C42.8857 45.8611 43.3334 45.4134 43.3334 44.8611V35.8611ZM34.1667 44.8611V42.1944H28.6667V38.5278H34.1667V35.8611C34.1667 35.3088 34.6145 34.8611 35.1667 34.8611H36.8334C37.3857 34.8611 37.8334 35.3088 37.8334 35.8611V44.8611C37.8334 45.4134 37.3857 45.8611 36.8334 45.8611H35.1667C34.6145 45.8611 34.1667 45.4134 34.1667 44.8611Z" fill="#F14635"/>
</svg>
