<svg width="400" height="201" viewBox="0 0 400 201" fill="none" xmlns="http://www.w3.org/2000/svg">
<path d="M298.5 167.835C328.047 167.835 352 143.763 352 114.068C352 84.3726 328.047 60.3 298.5 60.3C268.953 60.3 245 84.3726 245 114.068C245 143.763 268.953 167.835 298.5 167.835Z" fill="#DDDDDD"/>
<path fill-rule="evenodd" clip-rule="evenodd" d="M275 89.4351C275 88.3305 275.895 87.4351 277 87.4351H319C320.105 87.4351 321 88.3305 321 89.4351V92.4701C321 93.5746 320.105 94.4701 319 94.4701H277C275.895 94.4701 275 93.5746 275 92.4701V89.4351ZM275 101.495C275 100.39 275.895 99.4951 277 99.4951H319C320.105 99.4951 321 100.39 321 101.495V104.53C321 105.635 320.105 106.53 319 106.53H302V140.71C302 141.815 301.105 142.71 300 142.71H296C294.895 142.71 294 141.815 294 140.71V106.53H277C275.895 106.53 275 105.635 275 104.53V101.495Z" fill="white"/>
<rect x="64" width="92" height="201" rx="8" fill="#DDDDDD"/>
<path d="M74 29.125C74 26.9159 75.7909 25.125 78 25.125H142C144.209 25.125 146 26.9159 146 29.125V77.385H78C75.7909 77.385 74 75.5941 74 73.385V29.125Z" fill="white"/>
<rect x="122" y="87.4351" width="24" height="12.06" rx="2" fill="#C4C4C4"/>
<rect x="74" y="87.4351" width="40" height="25.125" rx="2" fill="#C4C4C4"/>
<path d="M74 105.525H114V110.56C114 111.664 113.105 112.56 112 112.56H76C74.8954 112.56 74 111.664 74 110.56V105.525Z" fill="white"/>
<g clip-path="url(#clip0_9642_7047)">
<rect x="138" y="104.52" width="124" height="96.48" rx="16" fill="#A3DB5A"/>
</g>
<path fill-rule="evenodd" clip-rule="evenodd" d="M235.667 133.648V146.855L235.667 146.964C235.668 147.375 235.669 147.756 235.5 148.106C238.387 150.522 247 158.554 247 167.081V181.527C247 183.125 245.731 184.416 244.167 184.416C242.603 184.416 241.333 183.125 241.333 181.527V169.971V167.081C241.333 163.498 238.497 159.432 235.667 156.329V175.748C235.667 175.944 235.616 176.123 235.566 176.303C235.553 176.349 235.54 176.395 235.528 176.442L237.953 179.822C238.877 181.108 238.602 182.917 237.338 183.862C236.072 184.801 234.301 184.523 233.38 183.232L220.851 165.76C220.321 164.989 218.956 163.48 216.799 164.789C215.927 165.624 215.414 166.578 216.884 168.898L223.88 179.961C224.73 181.302 224.35 183.09 223.036 183.957C222.56 184.266 222.03 184.416 221.503 184.416C220.571 184.416 219.661 183.951 219.12 183.093L212.124 172.033C208.359 166.098 211.181 162.146 213.198 160.317C213.303 160.221 213.416 160.132 213.535 160.054C218.412 156.823 223.135 159.008 225.461 162.4L230 168.73V149.745V146.855V133.648C230 132.975 229.351 132.409 228.583 132.409H169.083C168.315 132.409 167.667 132.975 167.667 133.648V171.62C167.667 172.293 168.315 172.859 169.083 172.859H207.333C208.897 172.859 210.167 174.151 210.167 175.748C210.167 177.346 208.897 178.638 207.333 178.638H169.083C165.179 178.638 162 175.488 162 171.62V133.648C162 129.779 165.179 126.63 169.083 126.63H228.583C232.488 126.63 235.667 129.779 235.667 133.648ZM187.554 146.701C185.958 146.701 184.665 147.994 184.665 149.59C184.665 151.186 185.958 152.479 187.554 152.479H196.003V164.093C196.003 165.658 197.272 166.926 198.837 166.926C200.401 166.926 201.67 165.658 201.67 164.093V152.479H210.109C211.705 152.479 212.998 151.186 212.998 149.59C212.998 147.994 211.705 146.701 210.109 146.701H198.837H187.554ZM184.665 140.924C184.665 139.328 185.958 138.035 187.554 138.035H210.109C211.705 138.035 212.998 139.328 212.998 140.924C212.998 142.52 211.705 143.813 210.109 143.813H187.554C185.958 143.813 184.665 142.52 184.665 140.924Z" fill="white"/>
<circle cx="110" cy="16" r="5" fill="white"/>
<rect x="174" width="96" height="56" rx="8" fill="#DDDDDD"/>
<circle cx="222" cy="29" r="8" fill="white"/>
<mask id="path-14-inside-1_9642_7047" fill="white">
<rect x="181" y="7" width="82" height="42" rx="4"/>
</mask>
<rect x="181" y="7" width="82" height="42" rx="4" stroke="white" stroke-width="14" mask="url(#path-14-inside-1_9642_7047)"/>
<defs>
<clipPath id="clip0_9642_7047">
<rect x="138" y="104.52" width="124" height="96.48" rx="16" fill="white"/>
</clipPath>
</defs>
</svg>
