<svg width="60" height="60" viewBox="0 0 60 60" fill="none" xmlns="http://www.w3.org/2000/svg">
<path fill-rule="evenodd" clip-rule="evenodd" d="M18.594 6.42684C18.591 6.42584 18.587 6.42584 18.583 6.42584C16.291 6.29884 13.855 7.03084 11.897 8.67484C9.93897 10.3178 8.79499 12.5888 8.52099 14.8678C8.51999 14.8718 8.51998 14.8758 8.51898 14.8798C8.31898 16.7388 7.34399 18.4278 5.83499 19.5308C5.83199 19.5328 5.82898 19.5348 5.82498 19.5378C3.98798 20.9138 2.59298 23.0398 2.14898 25.5578C1.70498 28.0758 2.28897 30.5508 3.54397 32.4728C3.54597 32.4758 3.54799 32.4788 3.55099 32.4828C4.59199 34.0358 4.93097 35.9548 4.48397 37.7708C4.48298 37.7748 4.48198 37.7788 4.48098 37.7818C3.95798 40.0168 4.25597 42.5428 5.53497 44.7568C6.81297 46.9708 8.85097 48.4918 11.048 49.1568C11.051 49.1588 11.055 49.1598 11.059 49.1608C12.855 49.6808 14.349 50.9338 15.173 52.6118C15.175 52.6158 15.177 52.6188 15.178 52.6228C16.215 54.6708 18.067 56.4138 20.469 57.2878C22.871 58.1628 25.41 58.0178 27.521 57.1158C27.524 57.1138 27.528 57.1118 27.532 57.1108C29.242 56.3548 31.191 56.3548 32.902 57.1098C32.905 57.1118 32.909 57.1128 32.912 57.1148C35.023 58.0178 37.562 58.1628 39.964 57.2878C42.366 56.4138 44.218 54.6708 45.255 52.6228C45.257 52.6198 45.259 52.6158 45.26 52.6118C46.084 50.9338 47.578 49.6808 49.373 49.1598C49.377 49.1588 49.381 49.1578 49.385 49.1568C51.582 48.4918 53.62 46.9708 54.898 44.7568C56.176 42.5428 56.474 40.0178 55.953 37.7818C55.952 37.7778 55.951 37.7738 55.95 37.7698C55.502 35.9548 55.841 34.0348 56.882 32.4818C56.884 32.4788 56.886 32.4758 56.888 32.4718C58.144 30.5508 58.727 28.0758 58.283 25.5578C57.84 23.0398 56.445 20.9138 54.608 19.5368C54.605 19.5348 54.601 19.5328 54.598 19.5298C53.089 18.4268 52.114 16.7388 51.913 14.8798C51.912 14.8758 51.912 14.8718 51.911 14.8678C51.638 12.5888 50.494 10.3178 48.536 8.67484C46.578 7.03184 44.142 6.29884 41.85 6.42484C41.846 6.42484 41.842 6.42584 41.838 6.42584C39.973 6.55084 38.141 5.88484 36.792 4.58984C36.789 4.58684 36.786 4.58484 36.784 4.58184C35.109 3.01184 32.773 2.00684 30.216 2.00684C27.66 2.00684 25.324 3.01184 23.649 4.58084C23.646 4.58384 23.643 4.58684 23.64 4.58984C22.292 5.88484 20.46 6.55184 18.594 6.42684ZM18.47 8.42284C20.891 8.58184 23.267 7.71684 25.019 6.03784C26.344 4.79684 28.194 4.00684 30.216 4.00684C32.239 4.00684 34.088 4.79684 35.413 6.03884C37.165 7.71684 39.542 8.58184 41.963 8.42184C43.776 8.32284 45.701 8.90684 47.25 10.2068C48.799 11.5068 49.708 13.3008 49.925 15.1038C50.188 17.5158 51.453 19.7058 53.411 21.1388C54.863 22.2288 55.963 23.9138 56.314 25.9048C56.665 27.8968 56.208 29.8558 55.215 31.3758C53.866 33.3928 53.428 35.8838 54.006 38.2398C54.418 40.0088 54.177 42.0058 53.166 43.7568C52.155 45.5078 50.546 46.7148 48.808 47.2418C46.478 47.9198 44.541 49.5458 43.469 51.7218C42.648 53.3418 41.18 54.7168 39.28 55.4088C37.38 56.1008 35.371 55.9908 33.701 55.2768C31.481 54.2988 28.952 54.2988 26.732 55.2778C25.062 55.9908 23.053 56.1008 21.153 55.4088C19.253 54.7168 17.785 53.3418 16.964 51.7218C15.892 49.5458 13.954 47.9198 11.625 47.2428C9.887 46.7148 8.278 45.5078 7.26699 43.7568C6.25599 42.0058 6.01498 40.0088 6.42798 38.2398C7.00598 35.8838 6.56598 33.3928 5.21698 31.3768C4.22498 29.8558 3.76798 27.8968 4.11898 25.9048C4.46998 23.9138 5.56997 22.2288 7.02197 21.1398C8.97997 19.7058 10.244 17.5158 10.507 15.1038C10.724 13.3008 11.633 11.5068 13.183 10.2068C14.732 8.90684 16.657 8.32284 18.47 8.42284ZM30.002 10.0068C18.963 10.0068 10.002 18.9688 10.002 30.0068C10.002 41.0448 18.963 50.0068 30.002 50.0068C41.04 50.0068 50.002 41.0448 50.002 30.0068C50.002 18.9688 41.04 10.0068 30.002 10.0068ZM30.002 12.0068C39.936 12.0068 48.002 20.0728 48.002 30.0068C48.002 39.9408 39.936 48.0068 30.002 48.0068C20.067 48.0068 12.002 39.9408 12.002 30.0068C12.002 20.0728 20.067 12.0068 30.002 12.0068ZM28.18 17.1018L24.934 23.3018L18.034 24.4738C17.28 24.6018 16.659 25.1378 16.423 25.8658C16.186 26.5928 16.373 27.3918 16.908 27.9388L21.802 32.9418L20.784 39.8658C20.673 40.6228 20.991 41.3788 21.609 41.8288C22.228 42.2778 23.046 42.3468 23.731 42.0068L30.002 38.8998L36.272 42.0068C36.958 42.3468 37.775 42.2778 38.394 41.8288C39.013 41.3788 39.331 40.6228 39.22 39.8658L38.202 32.9418L43.095 27.9388C43.63 27.3918 43.817 26.5928 43.581 25.8658C43.344 25.1378 42.723 24.6018 41.969 24.4738L35.07 23.3018L31.823 17.1018C31.468 16.4248 30.767 15.9998 30.002 15.9998C29.237 15.9998 28.535 16.4248 28.18 17.1018ZM26.476 24.6688L29.952 18.0298C29.962 18.0118 29.981 17.9998 30.002 17.9998C30.023 17.9998 30.042 18.0118 30.051 18.0298L33.528 24.6688C33.673 24.9458 33.938 25.1388 34.246 25.1908L41.635 26.4458C41.655 26.4488 41.672 26.4638 41.678 26.4838C41.685 26.5038 41.68 26.5248 41.665 26.5398L36.425 31.8978C36.207 32.1208 36.106 32.4338 36.151 32.7428L37.241 40.1568C37.244 40.1778 37.235 40.1978 37.218 40.2108C37.201 40.2228 37.179 40.2248 37.16 40.2148L30.446 36.8878C30.166 36.7488 29.837 36.7488 29.558 36.8878L22.843 40.2148C22.824 40.2248 22.802 40.2228 22.785 40.2108C22.768 40.1978 22.76 40.1778 22.763 40.1568L23.852 32.7428C23.898 32.4338 23.796 32.1208 23.578 31.8978L18.338 26.5398C18.324 26.5248 18.319 26.5038 18.325 26.4838C18.331 26.4638 18.348 26.4488 18.369 26.4458L25.757 25.1908C26.065 25.1388 26.331 24.9458 26.476 24.6688Z" fill="url(#paint0_linear_262_14)"/>
<defs>
<linearGradient id="paint0_linear_262_14" x1="17.002" y1="19.0068" x2="48.7802" y2="49.0068" gradientUnits="userSpaceOnUse">
<stop stop-color="#0099FA"/>
<stop offset="1" stop-color="#0053FA"/>
</linearGradient>
</defs>
</svg>
