<svg width="197" height="154" viewBox="0 0 197 154" fill="none" xmlns="http://www.w3.org/2000/svg">
<g clip-path="url(#clip0_7_1679)">
<g clip-path="url(#clip1_7_1679)">
<path d="M178 63.5H179V67.5C179 67.5 179 68.5 180.5 68.5C182 68.5 182 67.5 182 67.5V63.5H183V67.5C183 67.5 183 68.5 184.5 68.5C186 68.5 186 67.5 186 67.5V63.5H187C188 63.5 188 62.5 188 62.5V53.5H177V62.5C177 62.5 177 63.5 178 63.5ZM173 54.5V61.5C173 61.5 173 62.5 174.5 62.5C176 62.5 176 61.5 176 61.5V54.5C176 54.5 176 53.5 174.5 53.5C173 53.5 173 54.5 173 54.5ZM190.5 53.5C189 53.5 189 54.5 189 54.5V61.5C189 61.5 189 62.5 190.5 62.5C192 62.5 192 61.5 192 61.5V54.5C192 54.5 192 53.5 190.5 53.5ZM187 47.5V46.5H186L185 47.5C184.242 47.51 180.758 47.51 180 47.5L179 46.5C179 46.5 178 46.478 178 46.5V47.5L179 48.5C177.917 49.317 177 50.78 177 52.5H188C188 50.78 187.083 49.23 186 48.5L187 47.5ZM181 51.5H180V50.5H181V51.5ZM185 51.5H184V50.5H185V51.5Z" fill="white"/>
</g>
<g clip-path="url(#clip2_7_1679)">
<path d="M123.086 67.5C124.144 67.5 125 66.643 125 65.586V47.413C125 46.3551 124.143 45.5 123.086 45.5H104.913C103.856 45.5 103 46.3561 103 47.413V65.587C103 66.6439 103.856 67.5 104.913 67.5H113.224V59.7593H110.616V56.5H113.224V54.5439C113.224 52.156 114.528 49.9813 117.786 49.9813H120.394V53.2407H118.688C117.329 53.2407 117.135 53.684 117.135 54.5592V56.5H120.394L120.007 59.7593H117.135V67.5H123.086Z" fill="white"/>
</g>
<g clip-path="url(#clip3_7_1679)">
<path d="M119.703 34.72C119.738 38.2 122.963 39.358 123 39.373C122.973 39.455 122.484 41.023 121.3 42.643C120.276 44.045 119.214 45.441 117.54 45.47C115.895 45.498 115.366 44.557 113.486 44.557C111.606 44.557 111.019 45.441 109.462 45.499C107.846 45.554 106.616 43.982 105.584 42.586C103.474 39.73 101.864 34.516 104.027 30.998C105.102 29.25 107.024 28.145 109.11 28.116C110.696 28.088 112.193 29.116 113.163 29.116C114.133 29.116 115.953 27.879 117.865 28.061C118.665 28.091 120.915 28.364 122.357 30.341C122.241 30.411 119.675 31.808 119.703 34.718M116.613 26.168C117.47 25.2 118.046 23.847 117.89 22.5C116.654 22.547 115.16 23.27 114.272 24.243C113.477 25.103 112.782 26.481 112.969 27.801C114.345 27.901 115.753 27.147 116.611 26.174" fill="white"/>
</g>
<g clip-path="url(#clip4_7_1679)">
<path d="M90.8159 98.221C89.8334 98.6564 88.7838 98.9505 87.678 99.086C88.807 98.4086 89.6754 97.3335 90.0818 96.0569C89.0264 96.6845 87.8586 97.1419 86.6116 97.385C85.6112 96.3163 84.1899 95.6505 82.6215 95.6505C79.6023 95.6505 77.1585 98.1018 77.1585 101.126C77.1585 101.555 77.2037 101.974 77.2992 102.375C72.7562 102.149 68.7267 99.9666 66.0346 96.6492C65.5657 97.4586 65.2959 98.4034 65.2959 99.4021C65.2959 101.301 66.2662 102.979 67.7333 103.962C66.8301 103.939 65.9849 103.69 65.2496 103.278V103.348C65.2496 106.003 67.1358 108.213 69.6351 108.714C69.1777 108.839 68.6932 108.907 68.1964 108.907C67.8462 108.907 67.5017 108.873 67.1688 108.805C67.8635 110.981 69.8841 112.563 72.2769 112.609C70.408 114.077 68.0494 114.953 65.487 114.953C65.047 114.953 64.6127 114.925 64.1843 114.874C66.5927 116.446 69.4655 117.349 72.5461 117.349C82.6082 117.349 88.1059 109.003 88.1059 101.764C88.1059 101.527 88.1001 101.289 88.0885 101.058C89.1543 100.282 90.0806 99.3228 90.8159 98.221Z" fill="white"/>
</g>
<g clip-path="url(#clip5_7_1679)">
<g filter="url(#filter0_d_7_1679)">
<path d="M39.777 62.32L43.313 58.784L15.03 30.5L7.95801 37.57L29.17 58.785L7.96001 79.997L15.03 87.067L39.78 62.32H39.777Z" fill="white"/>
</g>
</g>
<g clip-path="url(#clip6_7_1679)">
<g filter="url(#filter1_d_7_1679)">
<path d="M62.858 55.25L59.322 58.785L87.606 87.07L94.676 79.998L73.464 58.785L94.677 37.572L87.607 30.502L62.858 55.25Z" fill="white"/>
</g>
</g>
<g clip-path="url(#clip7_7_1679)">
<path d="M125 45.5H133V60.5H125V45.5Z" fill="#0097C3"/>
<path d="M125 60.5H133V75.5H125V60.5Z" fill="#E00034"/>
<path d="M125 75.5H133V90.5H125V75.5Z" fill="#00AE65"/>
</g>
<g clip-path="url(#clip8_7_1679)">
<path d="M133 45.5H141V60.5H133V45.5Z" fill="white"/>
<path d="M133 60.5H141V75.5H133V60.5Z" fill="#0039A6"/>
<path d="M133 75.5H141V90.5H133V75.5Z" fill="#D52B1E"/>
</g>
<g clip-path="url(#clip9_7_1679)">
<path d="M45.9617 1.73178C47.8747 1.73178 49.6871 1.73178 51.4994 1.73178C53.1103 1.73178 53.6137 2.33703 53.7144 4.15275C53.7144 7.58246 53.7144 11.0122 53.7144 14.4419C53.7144 15.0471 53.8151 15.7532 54.0165 16.3585C54.7213 18.1742 56.8356 18.4768 58.7486 17.6698C61.5678 16.5602 62.5746 14.2401 62.6753 11.4157C62.776 8.59119 62.6753 5.76673 62.6753 2.94227C62.6753 2.63965 62.6753 2.23615 62.6753 1.83266H68.0116V2.84139C68.0116 7.27984 68.0116 11.8192 68.0116 16.3585C68.0116 17.9724 67.9109 17.8716 69.4212 17.8716C69.6225 17.8716 69.8239 17.8716 70.0253 17.8716C70.126 19.3847 70.126 20.7969 70.2266 22.2091C68.3136 22.2091 66.4006 22.31 64.5883 22.2091C63.5815 22.1083 62.776 20.696 62.6753 19.3847C62.6753 19.1829 62.6753 18.9812 62.6753 18.5777C61.4671 20.1917 59.9569 21.4022 58.3459 21.8056C56.2315 22.4109 54.4192 22.5118 52.5062 21.7048C50.5932 20.8978 49.4857 19.1829 49.385 17.2663C49.1836 14.1392 49.1836 10.9113 49.1836 7.98595C49.1836 6.37197 48.8816 6.06935 47.2706 6.06935C46.4652 6.06935 46.1631 5.8676 46.2638 5.06061C46.2638 4.55625 46.1631 4.05188 46.1631 3.44664C45.9617 2.74052 45.9617 2.23615 45.9617 1.73178ZM122.884 1.02567C122.784 2.13528 122.683 3.24489 122.482 4.25362C122.482 4.55625 122.18 4.75799 121.978 5.06061C118.656 9.09556 115.132 13.3323 111.91 17.3672C111.91 17.4681 111.809 17.569 111.809 17.569C113.521 17.569 115.333 17.569 117.045 17.569C118.454 17.569 118.454 17.569 118.454 16.1567C118.454 15.955 118.454 15.7532 118.454 15.5515H123.69C123.489 17.3672 123.287 19.0821 122.985 20.7969C122.884 21.6039 122.18 22.1083 121.374 22.2091C121.072 22.31 120.669 22.31 120.367 22.31C115.333 22.31 110.299 22.31 105.265 22.31C105.063 22.31 104.862 22.31 104.761 22.31C104.258 20.3934 104.963 18.8803 106.171 17.4681C109.393 13.8366 112.615 9.90255 115.736 5.96848C113.521 5.96848 111.608 5.96848 109.594 5.96848C109.393 5.96848 109.091 6.37197 108.99 6.67459C108.889 6.97721 108.99 7.27984 109.091 7.7842H104.661C104.862 5.96848 105.063 4.15275 105.365 2.33703C105.466 1.53004 106.07 1.02567 106.976 1.02567C112.111 1.02567 117.347 1.02567 122.381 1.02567C122.582 0.924794 122.784 0.924794 122.884 1.02567ZM12.0312 1.32829C15.7565 1.32829 18.6763 2.23615 20.7907 4.55625C23.2071 7.07809 23.8112 9.80168 23.6099 13.0296C23.1064 17.9724 18.777 21.6039 13.8435 22.0074C9.61475 22.4109 5.99012 20.9987 3.47302 17.569C-0.352984 12.5253 1.56002 5.76673 6.59423 2.63965C8.30586 1.73178 10.4202 1.22741 12.0312 1.32829ZM18.5756 11.7183C18.8777 7.88508 15.7565 5.26236 12.2325 5.36324C9.21201 5.46411 6.39286 8.38945 6.49354 12.0209C6.59423 14.6436 9.11133 17.9724 12.736 17.8716C15.4544 17.7707 18.6763 15.6524 18.5756 11.7183ZM24.8181 1.63091C26.429 1.73178 27.9393 1.83266 29.6509 1.93353C30.6578 1.93353 31.1612 2.63965 31.7653 3.34576C32.5708 4.95974 33.6783 6.47285 34.4837 8.1877C35.3899 6.67459 36.2961 5.26236 37.2022 3.74926C37.8063 2.4379 38.8132 1.83266 40.2227 1.83266C41.3303 1.83266 42.5385 1.83266 43.646 1.83266C43.646 3.14401 43.7467 4.55625 43.8474 5.96848C43.1426 5.96848 42.6392 5.8676 42.0351 5.96848C41.733 6.06935 41.2296 6.2711 40.9275 6.57372C39.82 8.08682 38.8132 9.59993 37.907 11.113C37.5043 11.6174 37.8063 12.0209 38.1084 12.4244C40.3234 15.6524 42.2364 18.8803 44.4515 22.0074C44.4515 22.0074 44.4515 22.1083 44.4515 22.31C42.6392 22.31 40.7262 22.31 38.9139 22.31C38.7125 22.31 38.4104 22.0074 38.2091 21.7048C37.0009 19.4856 35.692 17.4681 34.5844 15.148C33.6783 16.5602 32.8728 17.9724 31.866 19.2838C31.5639 19.6873 31.2619 20.0908 31.1612 20.4943C30.5571 22.1083 29.3489 22.4109 27.8386 22.2091C26.9324 22.1083 25.9256 22.2091 24.8181 22.2091C25.8249 20.5952 26.6304 19.1829 27.6372 17.7707C28.8454 15.8541 30.0536 14.0384 31.1612 12.1218C31.2619 11.92 31.2619 11.4157 31.1612 11.113C30.1543 9.59993 29.0468 8.08682 28.1406 6.57372C27.5365 5.8676 26.9324 5.96848 26.2276 5.96848C25.3215 5.96848 24.9188 5.46411 24.9188 4.65712C24.9188 3.74926 24.9188 2.84139 24.9188 1.83266C24.7174 1.83266 24.7174 1.83266 24.8181 1.63091ZM78.6841 17.7707V22.31C77.2745 22.31 75.865 22.31 74.6567 22.31C74.4554 22.31 74.1533 21.9065 74.1533 21.7048C74.1533 20.3934 74.1533 19.0821 74.1533 17.7707H78.6841ZM99.8278 5.46411H99.3244C98.821 5.46411 98.7203 5.56498 98.5189 6.06935L92.8806 22.2091H87.4436L81.5033 6.17022C81.3019 5.66586 81.2012 5.56498 80.6978 5.56498H80.1944V1.12654H83.517C84.9265 1.12654 85.6313 1.53004 86.0341 2.84139L86.9402 5.66586H93.082L93.9881 2.84139C94.3909 1.53004 94.995 1.12654 96.5052 1.12654H99.8278V5.46411ZM88.0477 9.80168L89.0546 13.3323C89.4573 14.6436 89.8601 16.762 89.8601 16.762H90.0614C90.0614 16.762 90.4642 14.5427 90.8669 13.3323L91.8737 9.80168H88.0477Z" fill="white"/>
</g>
<g clip-path="url(#clip10_7_1679)">
<path d="M79 121.5H97V124.5H79V121.5ZM79 127.5H97V130.5H79V127.5ZM79 133.5H97V136.5H79V133.5Z" fill="white"/>
</g>
<g clip-path="url(#clip11_7_1679)">
<path fill-rule="evenodd" clip-rule="evenodd" d="M63.6508 99.3417L62.4146 98.1223L50.7042 109.676C49.2133 111.147 46.7876 111.147 45.2959 109.676L33.5855 98.1223L32.3494 99.3417L41.0938 107.967L32.3494 116.594L33.5855 117.813L42.3285 109.188L44.0605 110.895C45.1126 111.933 46.5119 112.505 48.0001 112.505C49.4883 112.505 50.8876 111.933 51.9396 110.895L53.6709 109.187L62.4139 117.813L63.6501 116.594L54.907 107.968L63.6501 99.3431" fill="white"/>
<path fill-rule="evenodd" clip-rule="evenodd" d="M61.1528 120.05H34.8473C33.2917 120.05 32.0278 118.802 32.0278 117.269V98.732C32.0278 97.1986 33.2917 95.9514 34.8473 95.9514H61.1528C62.7084 95.9514 63.9723 97.1986 63.9723 98.732V117.269C63.9723 118.802 62.7084 120.05 61.1528 120.05ZM34.8473 97.8056C34.3285 97.8056 33.907 98.2222 33.907 98.732V117.269C33.907 117.78 34.3285 118.196 34.8466 118.196H61.1521C61.6709 118.196 62.0924 117.779 62.0924 117.269V98.732C62.0924 98.2216 61.6709 97.8049 61.1528 97.8049H34.8473V97.8056Z" fill="white"/>
</g>
<g clip-path="url(#clip12_7_1679)">
<path fill-rule="evenodd" clip-rule="evenodd" d="M61.216 153.5C62.7548 153.5 64 152.253 64 150.716V124.284C64 122.745 62.7534 121.5 61.216 121.5H34.784C33.2452 121.5 32 122.747 32 124.284V150.716C32 152.255 33.2466 153.5 34.784 153.5H46.8717V142.241H43.079V137.5H46.8717V134.655C46.8717 131.181 48.768 128.018 53.5082 128.018H57.3009V132.759H54.8195C52.8417 132.759 52.5607 133.404 52.5607 134.677V137.5H57.3009L56.7374 142.241H52.5607V153.5H61.216Z" fill="white"/>
</g>
<g clip-path="url(#clip13_7_1679)">
<path fill-rule="evenodd" clip-rule="evenodd" d="M147.667 45.7183H166.333V50.9783H147.667V45.7183ZM141 52.3755V64.0464H147.667V73.3343H166.333V64.0464H173V52.3755H141ZM163.667 70.7042H150.333V61.4985H163.667V70.7042ZM169 58.8691C167.895 58.8691 167 57.9857 167 56.8959C167 55.8067 167.895 54.9234 169 54.9234C170.105 54.9234 171 55.8067 171 56.8959C171 57.9857 170.105 58.8691 169 58.8691Z" fill="white"/>
</g>
<g clip-path="url(#clip14_7_1679)">
<path fill-rule="evenodd" clip-rule="evenodd" d="M31.7368 98.7158C30.5757 99.2303 29.3352 99.5779 28.0284 99.738C29.3626 98.9375 30.3889 97.6669 30.8692 96.1582C29.6219 96.8999 28.2418 97.4404 26.768 97.7278C25.5871 96.4648 23.906 95.6779 22.0525 95.6779C18.4843 95.6779 15.5962 98.5755 15.5962 102.148C15.5962 102.656 15.6496 103.151 15.7632 103.625C10.3942 103.358 5.63209 100.78 2.45051 96.8595C1.8963 97.8147 1.57677 98.93 1.57677 100.112C1.57677 102.356 2.72419 104.34 4.4573 105.502C3.38993 105.474 2.39098 105.18 1.5234 104.693V104.774C1.5234 107.912 3.75119 110.524 6.70561 111.118C6.16509 111.264 5.5924 111.344 5.00535 111.344C4.59209 111.344 4.18567 111.305 3.79156 111.225C4.61261 113.796 7.00051 115.665 9.82835 115.72C7.61835 117.455 4.83088 118.489 1.80256 118.489C1.28256 118.489 0.769403 118.457 0.261719 118.396C3.11009 120.253 6.50446 121.321 10.1451 121.321C22.0367 121.321 28.534 111.458 28.534 102.902C28.534 102.622 28.5271 102.341 28.5135 102.068C29.7745 101.153 30.8685 100.019 31.7361 98.7151" fill="white"/>
</g>
<g clip-path="url(#clip15_7_1679)">
<path fill-rule="evenodd" clip-rule="evenodd" d="M32 137.088C32 145.697 24.967 152.676 16.2908 152.676C13.536 152.676 10.9482 151.972 8.69704 150.736L0 153.5L2.83548 145.137C1.40522 142.787 0.581565 140.032 0.581565 137.088C0.581565 128.479 7.61461 121.5 16.2908 121.5C24.9683 121.5 32 128.479 32 137.088ZM16.2226 123.888C8.85704 123.888 2.86609 129.88 2.86609 137.245C2.86609 140.166 3.81078 142.874 5.41009 145.076L3.74052 150.036L8.87443 148.392C10.9823 149.787 13.5089 150.601 16.2226 150.601C23.5868 150.601 29.5791 144.61 29.5791 137.245C29.5791 129.881 23.5868 123.888 16.2226 123.888ZM24.3019 140.697C24.2045 140.54 23.9471 140.445 23.559 140.255C23.1708 140.068 21.2633 139.151 20.9085 139.026C20.5537 138.9 20.2943 138.836 20.0362 139.214C19.7788 139.594 19.0344 140.445 18.8083 140.698C18.5816 140.951 18.3562 140.983 17.968 140.793C17.5798 140.604 16.3304 140.204 14.8494 138.915C13.6967 137.913 12.9183 136.675 12.6915 136.297C12.4661 135.917 12.6678 135.712 12.8619 135.524C13.0358 135.355 13.2501 135.083 13.4435 134.862C13.6383 134.641 13.7023 134.484 13.831 134.23C13.961 133.978 13.8963 133.757 13.799 133.567C13.7016 133.38 12.9259 131.517 12.6024 130.76C12.2803 130.004 11.9576 130.13 11.7308 130.13C11.5047 130.13 11.2459 130.098 10.9864 130.098C10.729 130.098 10.3089 130.192 9.9527 130.571C9.59791 130.95 8.59617 131.865 8.59617 133.726C8.59617 135.588 9.98539 137.385 10.1795 137.638C10.3743 137.89 12.8612 141.835 16.8035 143.35C20.7464 144.863 20.7464 144.358 21.4574 144.294C22.167 144.232 23.751 143.38 24.0758 142.497C24.3979 141.613 24.3979 140.855 24.3012 140.698L24.3019 140.697Z" fill="white"/>
</g>
<g clip-path="url(#clip16_7_1679)">
<path d="M187.138 109.295L186.195 108.305L191.725 102.5L186.195 96.695L187.137 95.705L193.607 102.5L187.137 109.295" fill="#888888"/>
</g>
<g clip-path="url(#clip17_7_1679)">
<path d="M106 121.5H112V123.5H106V121.5ZM105.06 135.5L104.18 132.34H99.7399L98.8799 135.5H97.1799L101.22 121.58H102.72L106.78 135.5H105.06ZM102.78 127.24L102 124.16H101.92L101.14 127.22L100.12 130.84H103.8L102.78 127.24Z" fill="#999999"/>
</g>
<g clip-path="url(#clip18_7_1679)">
<path d="M119 70.5H116V72.5H119V75.5H121V72.5H124V70.5H121V67.5H119V70.5ZM115.09 88.5L113.77 83.76H107.11L105.82 88.5H103.27L109.33 67.62H111.58L117.67 88.5H115.09ZM111.67 76.11L110.5 71.49H110.38L109.21 76.08L107.68 81.51H113.2L111.67 76.11Z" fill="#999999"/>
</g>
<g clip-path="url(#clip19_7_1679)">
<path fill-rule="evenodd" clip-rule="evenodd" d="M104.768 107.12L105.221 107.573L109.929 112.278L111 113.352L108.853 115.5L107.779 114.425L103.071 109.72L102.618 109.267C101.44 110.047 100.022 110.5 98.5 110.5C94.36 110.5 91 107.14 91 103C91 98.856 94.36 95.5 98.5 95.5C102.644 95.5 106 98.856 106 103C106 104.52 105.548 105.937 104.77 107.12H104.768ZM93 103C93 99.962 95.462 97.5 98.5 97.5C101.538 97.5 104 99.962 104 103C104 106.038 101.538 108.5 98.5 108.5C95.462 108.5 93 106.038 93 103Z" fill="white"/>
</g>
<g clip-path="url(#clip20_7_1679)">
<path d="M133.083 95.655L133.523 95.682C134.046 95.729 134.573 95.762 135.093 95.832C135.749 95.922 136.403 96.032 137.051 96.156C137.826 96.303 138.591 96.491 139.325 96.781C139.56 96.876 139.788 96.991 140.008 97.115C140.298 97.279 140.43 97.542 140.43 97.877V105.55C140.43 105.85 140.32 106.084 140.08 106.27C139.146 106.992 138.173 107.657 137.143 108.24C136.169 108.793 135.283 109.458 134.523 110.288C134.369 110.458 134.23 110.642 134.089 110.824C133.854 111.124 133.732 111.479 133.625 111.839C133.515 112.206 133.395 112.571 133.215 112.912C133.021 113.278 132.768 113.587 132.395 113.782C132.172 113.899 131.935 113.962 131.687 113.982L131.617 113.994H131.347L131.293 113.982C130.793 113.934 130.385 113.712 130.067 113.326C129.715 112.899 129.564 112.392 129.513 111.852C129.458 111.27 129.523 110.697 129.66 110.132C129.895 109.172 130.317 108.302 130.87 107.489L130.93 107.399L130.892 107.387L129.007 106.903C128.621 106.803 128.244 106.678 127.901 106.465C127.301 106.093 126.885 105.583 126.716 104.888L126.65 104.525V104.155L126.66 104.115C126.688 103.815 126.772 103.529 126.902 103.258C127.157 102.723 127.544 102.3 128.002 101.938L128.087 101.82L128.457 100.83C128.875 99.74 129.315 98.662 129.853 97.627C130.079 97.192 130.323 96.77 130.628 96.387C130.85 96.107 131.113 95.882 131.468 95.801C131.698 95.749 131.928 95.717 132.162 95.684L132.529 95.654H133.082L133.083 95.655Z" fill="#DE0201"/>
</g>
<g clip-path="url(#clip21_7_1679)">
<path d="M148.083 95.655L148.523 95.682C149.046 95.729 149.573 95.762 150.093 95.832C150.749 95.922 151.403 96.032 152.051 96.156C152.826 96.303 153.591 96.491 154.325 96.781C154.56 96.876 154.788 96.991 155.008 97.115C155.298 97.279 155.43 97.542 155.43 97.877V105.55C155.43 105.85 155.32 106.084 155.08 106.27C154.146 106.992 153.173 107.657 152.143 108.24C151.169 108.793 150.283 109.458 149.523 110.288C149.369 110.458 149.23 110.642 149.089 110.824C148.854 111.124 148.732 111.479 148.625 111.839C148.515 112.206 148.395 112.571 148.215 112.912C148.021 113.278 147.768 113.587 147.395 113.782C147.172 113.899 146.935 113.962 146.687 113.982L146.617 113.994H146.347L146.293 113.982C145.793 113.934 145.385 113.712 145.067 113.326C144.715 112.899 144.564 112.392 144.513 111.852C144.458 111.27 144.523 110.697 144.66 110.132C144.895 109.172 145.317 108.302 145.87 107.489L145.93 107.399L145.892 107.389L144.007 106.904C143.621 106.804 143.244 106.679 142.901 106.466C142.301 106.094 141.885 105.584 141.716 104.889L141.65 104.528V104.158L141.66 104.118C141.688 103.818 141.772 103.532 141.902 103.261C142.157 102.729 142.544 102.306 143.002 101.941L143.087 101.826L143.457 100.836C143.875 99.746 144.315 98.668 144.853 97.633C145.079 97.2 145.323 96.778 145.628 96.393C145.85 96.113 146.113 95.89 146.468 95.809C146.698 95.757 146.928 95.725 147.162 95.692L147.53 95.66L148.084 95.658L148.083 95.655Z" fill="#999999"/>
</g>
<g clip-path="url(#clip22_7_1679)">
<path d="M163.083 95.655L163.523 95.682C164.046 95.729 164.573 95.762 165.093 95.832C165.749 95.922 166.403 96.032 167.051 96.156C167.826 96.303 168.591 96.491 169.325 96.781C169.56 96.876 169.788 96.991 170.008 97.115C170.298 97.279 170.43 97.542 170.43 97.877V105.55C170.43 105.85 170.32 106.084 170.08 106.27C169.146 106.992 168.173 107.657 167.143 108.24C166.169 108.793 165.283 109.458 164.523 110.288C164.369 110.458 164.23 110.642 164.089 110.824C163.854 111.124 163.732 111.479 163.625 111.839C163.515 112.206 163.395 112.571 163.215 112.912C163.021 113.278 162.768 113.587 162.395 113.782C162.172 113.899 161.935 113.962 161.687 113.982L161.617 113.994H161.347L161.293 113.982C160.793 113.934 160.385 113.712 160.067 113.326C159.715 112.899 159.564 112.392 159.513 111.852C159.458 111.27 159.523 110.697 159.66 110.132C159.895 109.172 160.317 108.302 160.87 107.489L160.93 107.399L160.892 107.389L159.007 106.904C158.621 106.804 158.244 106.679 157.901 106.466C157.301 106.094 156.885 105.584 156.716 104.889L156.65 104.528V104.158L156.66 104.118C156.688 103.818 156.772 103.532 156.902 103.261C157.157 102.729 157.544 102.306 158.002 101.941L158.087 101.826L158.457 100.836C158.875 99.746 159.315 98.668 159.853 97.633C160.079 97.2 160.323 96.778 160.628 96.393C160.85 96.113 161.113 95.89 161.468 95.809C161.698 95.757 161.928 95.725 162.162 95.692L162.53 95.66L163.084 95.658L163.083 95.655Z" fill="white"/>
</g>
<g clip-path="url(#clip23_7_1679)">
<path d="M178.622 113.993L178.182 113.966C177.659 113.919 177.132 113.886 176.612 113.816C175.956 113.726 175.302 113.616 174.654 113.492C173.881 113.345 173.116 113.157 172.382 112.867C172.147 112.774 171.919 112.66 171.699 112.535C171.406 112.371 171.275 112.108 171.275 111.773V104.1C171.275 103.8 171.385 103.565 171.623 103.38C172.558 102.657 173.531 101.992 174.561 101.408C175.535 100.856 176.421 100.191 177.181 99.361C177.335 99.191 177.474 99.009 177.615 98.827C177.849 98.527 177.971 98.172 178.078 97.812C178.188 97.445 178.308 97.08 178.488 96.739C178.681 96.373 178.934 96.064 179.308 95.869C179.53 95.752 179.768 95.689 180.015 95.669L180.085 95.657H180.355L180.409 95.669C180.909 95.717 181.319 95.939 181.636 96.325C181.988 96.752 182.139 97.259 182.19 97.799C182.246 98.381 182.18 98.954 182.044 99.519C181.81 100.479 181.388 101.349 180.836 102.162L180.776 102.252L180.813 102.262L182.699 102.746C183.084 102.846 183.461 102.971 183.804 103.184C184.404 103.556 184.82 104.066 184.989 104.761L185.055 105.121V105.491L185.043 105.531C185.016 105.831 184.933 106.117 184.803 106.388C184.547 106.922 184.16 107.345 183.701 107.708L183.617 107.825L183.247 108.815C182.829 109.905 182.389 110.983 181.851 112.018C181.625 112.452 181.381 112.874 181.076 113.258C180.854 113.538 180.591 113.762 180.236 113.843C180.006 113.895 179.776 113.927 179.542 113.96L179.175 113.99H178.62L178.622 113.993Z" fill="#028F1D"/>
</g>
<g clip-path="url(#clip24_7_1679)">
<path d="M71.6219 139.993L71.1819 139.966C70.6589 139.919 70.1319 139.886 69.6119 139.816C68.9559 139.726 68.3019 139.616 67.6539 139.492C66.8809 139.345 66.1159 139.157 65.3819 138.867C65.1469 138.774 64.9189 138.66 64.6989 138.535C64.4059 138.371 64.2749 138.108 64.2749 137.773V130.1C64.2749 129.8 64.3849 129.565 64.6229 129.38C65.5579 128.657 66.5309 127.992 67.5609 127.408C68.5349 126.856 69.4209 126.191 70.1809 125.361C70.3349 125.191 70.4739 125.009 70.6149 124.827C70.8489 124.527 70.9709 124.172 71.0779 123.812C71.1879 123.445 71.3079 123.08 71.4879 122.739C71.6809 122.373 71.9339 122.064 72.3079 121.869C72.5299 121.752 72.7679 121.689 73.0149 121.669L73.0849 121.657H73.3549L73.4089 121.669C73.9089 121.717 74.3189 121.939 74.6359 122.325C74.9879 122.752 75.1389 123.259 75.1899 123.799C75.2459 124.381 75.1799 124.954 75.0439 125.519C74.8099 126.479 74.3879 127.349 73.8359 128.162L73.7759 128.25L73.8129 128.26L75.6989 128.745C76.0839 128.845 76.4609 128.97 76.8039 129.183C77.4039 129.557 77.8199 130.067 77.9889 130.763L78.0549 131.123V131.493L78.0429 131.533C78.0159 131.833 77.9329 132.12 77.8029 132.391C77.5469 132.925 77.1599 133.348 76.7009 133.711L76.6169 133.828L76.2469 134.818C75.8289 135.908 75.3889 136.986 74.8509 138.021C74.6249 138.455 74.3809 138.877 74.0759 139.261C73.8539 139.541 73.5909 139.765 73.2359 139.846C73.0059 139.898 72.7759 139.93 72.5419 139.963L72.1749 139.993H71.6199H71.6219Z" fill="#999999"/>
</g>
<g clip-path="url(#clip25_7_1679)">
<path d="M118.622 113.993L118.182 113.966C117.659 113.919 117.132 113.886 116.612 113.816C115.956 113.726 115.302 113.616 114.654 113.492C113.881 113.345 113.116 113.157 112.382 112.867C112.147 112.774 111.919 112.66 111.699 112.535C111.406 112.371 111.275 112.108 111.275 111.773V104.1C111.275 103.8 111.385 103.565 111.623 103.38C112.558 102.657 113.531 101.992 114.561 101.408C115.535 100.856 116.421 100.191 117.181 99.361C117.335 99.191 117.474 99.009 117.615 98.827C117.849 98.527 117.971 98.172 118.078 97.812C118.188 97.445 118.308 97.08 118.488 96.739C118.681 96.373 118.934 96.064 119.308 95.869C119.53 95.752 119.768 95.689 120.015 95.669L120.085 95.657H120.355L120.409 95.669C120.909 95.717 121.319 95.939 121.636 96.325C121.988 96.752 122.139 97.259 122.19 97.799C122.246 98.381 122.18 98.954 122.044 99.519C121.81 100.479 121.388 101.349 120.836 102.162L120.776 102.25L120.813 102.26L122.699 102.745C123.084 102.845 123.461 102.97 123.804 103.183C124.404 103.557 124.82 104.067 124.989 104.763L125.055 105.123V105.493L125.043 105.533C125.016 105.833 124.933 106.12 124.803 106.391C124.547 106.925 124.16 107.348 123.701 107.711L123.617 107.828L123.247 108.818C122.829 109.908 122.389 110.986 121.851 112.021C121.625 112.455 121.381 112.877 121.076 113.261C120.854 113.541 120.591 113.765 120.236 113.846C120.006 113.898 119.776 113.93 119.542 113.963L119.175 113.993H118.62H118.622Z" fill="white"/>
</g>
<g clip-path="url(#clip26_7_1679)">
<path d="M151.5 73.5C145.632 73.5 141 79.5 141 79.5C141 79.5 145.63 85.5 151.5 85.5C155.99 85.5 162 79.5 162 79.5C162 79.5 155.99 73.5 151.5 73.5ZM151.5 83.238C149.44 83.238 147.76 81.561 147.76 79.498C147.76 77.438 149.44 75.758 151.5 75.758C153.56 75.758 155.24 77.438 155.24 79.498C155.24 81.56 153.56 83.238 151.5 83.238ZM151.5 77.318C150.295 77.318 149.318 78.294 149.318 79.498C149.318 80.705 150.295 81.682 151.5 81.682C152.706 81.682 153.683 80.704 153.683 79.497C153.683 78.294 152.705 77.317 151.5 77.317V77.318Z" fill="#999999"/>
</g>
<g clip-path="url(#clip27_7_1679)">
<path d="M165.5 4.98999L161 0.48999L125 36.49L134 45.49L161 18.49L188 45.49L197 36.49L165.5 4.98999Z" fill="#1894A0"/>
</g>
<path d="M145.191 153.246H121.179C120.655 153.257 120.134 153.161 119.648 152.964C119.162 152.766 118.722 152.472 118.353 152.097C117.979 151.728 117.685 151.286 117.488 150.798C117.292 150.31 117.197 149.787 117.209 149.261V125.246C117.191 124.72 117.28 124.196 117.471 123.706C117.662 123.217 117.95 122.771 118.319 122.397C118.691 122.019 119.138 121.722 119.63 121.524C120.122 121.326 120.649 121.233 121.179 121.249H145.202C145.732 121.233 146.259 121.327 146.751 121.525C147.243 121.722 147.689 122.019 148.062 122.397C148.434 122.766 148.727 123.206 148.924 123.692C149.12 124.178 149.216 124.698 149.206 125.223V149.238C149.219 149.764 149.124 150.287 148.927 150.775C148.73 151.263 148.436 151.705 148.062 152.074C147.69 152.458 147.242 152.76 146.748 152.962C146.254 153.163 145.724 153.26 145.191 153.246ZM139.036 145.539C139.264 145.56 139.49 145.493 139.671 145.352C139.851 145.212 139.972 145.008 140.008 144.781L143.177 129.564C143.186 129.466 143.172 129.367 143.137 129.275C143.101 129.184 143.044 129.102 142.971 129.036C142.844 128.915 142.677 128.845 142.502 128.84C142.441 128.84 136.138 131.18 123.593 135.858C123.451 135.903 123.328 135.994 123.244 136.117C123.159 136.239 123.117 136.386 123.124 136.535C123.132 136.674 123.184 136.807 123.272 136.915C123.361 137.022 123.481 137.098 123.616 137.133L128.191 138.557L130.033 144.104C130.081 144.255 130.178 144.386 130.309 144.475C130.439 144.565 130.596 144.608 130.754 144.598C130.839 144.597 130.924 144.58 131.002 144.546C131.081 144.513 131.152 144.464 131.211 144.402L133.808 141.922L138.487 145.367C138.65 145.476 138.84 145.536 139.036 145.539ZM130.674 142.737L129.29 138.143C135.94 133.894 139.288 131.769 139.334 131.769C139.505 131.769 139.597 131.769 139.597 131.953C139.6 131.976 139.6 131.999 139.597 132.022C139.597 132.022 136.725 134.663 130.994 139.831L130.674 142.737Z" fill="white"/>
<path d="M197 142.3C197 143.8 197.1 145.4 197 146.9C196.8 150.4 194.2 153.1 190.7 153.2C187.6 153.3 184.6 153.3 181.5 153.2C177.9 153.1 175.3 150.5 175.1 147C175 143.9 175 140.7 175.1 137.6C175.2 134 177.8 131.4 181.4 131.3C184.5 131.2 187.5 131.2 190.6 131.3C194.3 131.4 196.9 134 197 137.7C197 139.3 197 140.8 197 142.3ZM186.1 136.6C183 136.6 180.4 139.2 180.4 142.3C180.4 145.3 182.9 147.9 185.9 148C189 148.1 191.7 145.5 191.7 142.4C191.8 139.2 189.2 136.6 186.1 136.6Z" fill="white"/>
<path d="M186 138.3C188.1 138.3 189.9 140 189.9 142.2C189.9 144.4 188.1 146.3 185.9 146.2C183.8 146.1 182 144.3 182.1 142.2C182.1 140.1 183.9 138.3 186 138.3Z" fill="white"/>
</g>
<defs>
<filter id="filter0_d_7_1679" x="-0.0419922" y="22.5" width="51.355" height="72.567" filterUnits="userSpaceOnUse" color-interpolation-filters="sRGB">
<feFlood flood-opacity="0" result="BackgroundImageFix"/>
<feColorMatrix in="SourceAlpha" type="matrix" values="0 0 0 0 0 0 0 0 0 0 0 0 0 0 0 0 0 0 127 0" result="hardAlpha"/>
<feOffset/>
<feGaussianBlur stdDeviation="4"/>
<feColorMatrix type="matrix" values="0 0 0 0 0 0 0 0 0 0 0 0 0 0 0 0 0 0 0.35 0"/>
<feBlend mode="normal" in2="BackgroundImageFix" result="effect1_dropShadow_7_1679"/>
<feBlend mode="normal" in="SourceGraphic" in2="effect1_dropShadow_7_1679" result="shape"/>
</filter>
<filter id="filter1_d_7_1679" x="51.322" y="22.502" width="51.355" height="72.568" filterUnits="userSpaceOnUse" color-interpolation-filters="sRGB">
<feFlood flood-opacity="0" result="BackgroundImageFix"/>
<feColorMatrix in="SourceAlpha" type="matrix" values="0 0 0 0 0 0 0 0 0 0 0 0 0 0 0 0 0 0 127 0" result="hardAlpha"/>
<feOffset/>
<feGaussianBlur stdDeviation="4"/>
<feColorMatrix type="matrix" values="0 0 0 0 0 0 0 0 0 0 0 0 0 0 0 0 0 0 0.35 0"/>
<feBlend mode="normal" in2="BackgroundImageFix" result="effect1_dropShadow_7_1679"/>
<feBlend mode="normal" in="SourceGraphic" in2="effect1_dropShadow_7_1679" result="shape"/>
</filter>
<clipPath id="clip0_7_1679">
<rect width="197" height="153" fill="white" transform="translate(0 0.5)"/>
</clipPath>
<clipPath id="clip1_7_1679">
<rect width="19" height="23" fill="white" transform="translate(173 45.5)"/>
</clipPath>
<clipPath id="clip2_7_1679">
<rect width="22" height="22" fill="white" transform="translate(103 45.5)"/>
</clipPath>
<clipPath id="clip3_7_1679">
<rect width="20" height="23" fill="white" transform="translate(103 22.5)"/>
</clipPath>
<clipPath id="clip4_7_1679">
<rect width="27" height="22" fill="white" transform="translate(64 95.5)"/>
</clipPath>
<clipPath id="clip5_7_1679">
<rect width="51" height="73" fill="white" transform="translate(0 22.5)"/>
</clipPath>
<clipPath id="clip6_7_1679">
<rect width="52" height="73" fill="white" transform="translate(51 22.5)"/>
</clipPath>
<clipPath id="clip7_7_1679">
<rect width="8" height="45" fill="white" transform="translate(125 45.5)"/>
</clipPath>
<clipPath id="clip8_7_1679">
<rect width="8" height="45" fill="white" transform="translate(133 45.5)"/>
</clipPath>
<clipPath id="clip9_7_1679">
<rect width="125" height="22" fill="white" transform="translate(0 0.5)"/>
</clipPath>
<clipPath id="clip10_7_1679">
<rect width="18" height="15" fill="white" transform="translate(79 121.5)"/>
</clipPath>
<clipPath id="clip11_7_1679">
<rect width="32" height="25" fill="white" transform="translate(32 95.5)"/>
</clipPath>
<clipPath id="clip12_7_1679">
<rect width="32" height="32" fill="white" transform="translate(32 121.5)"/>
</clipPath>
<clipPath id="clip13_7_1679">
<rect width="32" height="28" fill="white" transform="translate(141 45.5)"/>
</clipPath>
<clipPath id="clip14_7_1679">
<rect width="32" height="26" fill="white" transform="translate(0 95.5)"/>
</clipPath>
<clipPath id="clip15_7_1679">
<rect width="32" height="32" fill="white" transform="translate(0 121.5)"/>
</clipPath>
<clipPath id="clip16_7_1679">
<rect width="8" height="14" fill="white" transform="translate(186 95.5)"/>
</clipPath>
<clipPath id="clip17_7_1679">
<rect width="15" height="14" fill="white" transform="translate(97 121.5)"/>
</clipPath>
<clipPath id="clip18_7_1679">
<rect width="21" height="21" fill="white" transform="translate(103 67.5)"/>
</clipPath>
<clipPath id="clip19_7_1679">
<rect width="20" height="20" fill="white" transform="translate(91 95.5)"/>
</clipPath>
<clipPath id="clip20_7_1679">
<rect width="15" height="19" fill="white" transform="translate(126 95.5)"/>
</clipPath>
<clipPath id="clip21_7_1679">
<rect width="15" height="19" fill="white" transform="translate(141 95.5)"/>
</clipPath>
<clipPath id="clip22_7_1679">
<rect width="15" height="19" fill="white" transform="translate(156 95.5)"/>
</clipPath>
<clipPath id="clip23_7_1679">
<rect width="15" height="19" fill="white" transform="translate(171 95.5)"/>
</clipPath>
<clipPath id="clip24_7_1679">
<rect width="15" height="19" fill="white" transform="translate(64 121.5)"/>
</clipPath>
<clipPath id="clip25_7_1679">
<rect width="15" height="19" fill="white" transform="translate(111 95.5)"/>
</clipPath>
<clipPath id="clip26_7_1679">
<rect width="21" height="12" fill="white" transform="translate(141 73.5)"/>
</clipPath>
<clipPath id="clip27_7_1679">
<rect width="72" height="45" fill="white" transform="translate(125 0.5)"/>
</clipPath>
</defs>
</svg>
