<svg xmlns="http://www.w3.org/2000/svg" width="112" height="75" viewBox="0 0 112 75">
    <defs>
        <linearGradient id="tlhsqgdoba" x1="1.444%" x2="100%" y1="28.701%" y2="71.932%">
            <stop offset="0%" stop-color="#04D189"/>
            <stop offset="51.937%" stop-color="#0FC5A4"/>
            <stop offset="100%" stop-color="#1991FF"/>
        </linearGradient>
    </defs>
    <g fill="none" fill-rule="evenodd" opacity=".699">
        <g fill="url(#tlhsqgdoba)" fill-rule="nonzero" transform="translate(-469.000000, -3749.000000)">
            <g>
                <g>
                    <path d="M29.2 74.023c10.741 0 18.31-3.01 22.704-9.033 4.395-6.022 6.592-15.527 6.592-28.515 0-5.795-.667-11.361-2.002-16.7-.683-2.8-1.587-5.249-2.71-7.348-1.123-2.1-2.661-4.102-4.614-6.006-1.953-1.904-4.476-3.45-7.568-4.639C38.509.594 34.554 0 29.736 0 19.71 0 12.248 2.718 7.35 8.154 2.449 13.59 0 23.112 0 36.72c0 5.534.48 10.587 1.44 15.16.96 4.574 2.303 8.18 4.029 10.816 2.376 3.711 5.42 6.527 9.13 8.448 3.712 1.92 8.578 2.88 14.6 2.88zm-.05-13.574c-3.06 0-5.395-1.668-7.006-5.005-1.612-3.336-2.417-9.562-2.417-18.676 0-9.017.732-15.194 2.197-18.53 1.465-3.337 3.841-5.006 7.129-5.006 3.222 0 5.64 1.636 7.25 4.908 1.612 3.271 2.418 9.66 2.418 19.165 0 6.478-.35 11.246-1.05 14.306-.7 3.06-1.79 5.298-3.272 6.714-1.48 1.416-3.23 2.124-5.249 2.124zm82.618 12.354V0H95.312c-2.115 4.492-5.045 8.268-8.789 11.328-3.743 3.06-9 5.68-15.771 7.861v16.309c4.59-1.4 8.407-2.865 11.45-4.394 3.044-1.53 6.193-3.532 9.448-6.006v47.705h20.118z" transform="translate(242.000000, 3603.000000) translate(227.000000, 146.000000)"/>
                </g>
            </g>
        </g>
    </g>
</svg>
