<svg xmlns="http://www.w3.org/2000/svg" width="124" height="75" viewBox="0 0 124 75">
    <defs>
        <linearGradient id="wzir2wtq4a" x1="1.444%" x2="100%" y1="32.696%" y2="67.818%">
            <stop offset="0%" stop-color="#04D189"/>
            <stop offset="51.937%" stop-color="#0FC5A4"/>
            <stop offset="100%" stop-color="#1991FF"/>
        </linearGradient>
    </defs>
    <g fill="none" fill-rule="evenodd" opacity=".699">
        <g fill="url(#wzir2wtq4a)" fill-rule="nonzero" transform="translate(-686.000000, -3937.000000)">
            <g>
                <g>
                    <path d="M28.988 74.023c10.665 0 18.179-3.01 22.541-9.033 4.363-6.022 6.544-15.527 6.544-28.515 0-5.795-.662-11.361-1.987-16.7-.679-2.8-1.575-5.249-2.69-7.348-1.115-2.1-2.642-4.102-4.581-6.006-1.94-1.904-4.444-3.45-7.514-4.639C38.231.594 34.304 0 29.521 0 19.569 0 12.16 2.718 7.297 8.154 2.432 13.59 0 23.112 0 36.72c0 5.534.477 10.587 1.43 15.16.953 4.574 2.286 8.18 4 10.816 2.358 3.711 5.38 6.527 9.064 8.448 3.684 1.92 8.516 2.88 14.494 2.88zM28.94 60.45c-3.038 0-5.357-1.668-6.956-5.005-1.6-3.336-2.4-9.562-2.4-18.676 0-9.017.727-15.194 2.181-18.53 1.455-3.337 3.814-5.006 7.078-5.006 3.2 0 5.599 1.636 7.198 4.908 1.6 3.271 2.4 9.66 2.4 19.165 0 6.478-.347 11.246-1.042 14.306-.695 3.06-1.778 5.298-3.248 6.714-1.47 1.416-3.208 2.124-5.211 2.124zM124 72.803V56.592H93.17c1.81-1.79 3.385-3.24 4.726-4.346 1.341-1.107 4-3.044 7.974-5.81 6.69-4.753 11.303-9.115 13.84-13.086 2.537-3.972 3.805-8.138 3.805-12.5 0-4.102-1.107-7.805-3.32-11.109-2.214-3.304-5.252-5.753-9.114-7.348C107.22.798 101.814 0 94.866 0 88.21 0 82.998.838 79.233 2.515 75.468 4.19 72.551 6.6 70.483 9.74c-2.068 3.141-3.49 7.512-4.266 13.11l19.778 1.612c.55-4.037 1.624-6.852 3.224-8.447 1.6-1.595 3.66-2.393 6.18-2.393 2.424 0 4.436.773 6.036 2.32 1.6 1.546 2.4 3.41 2.4 5.59 0 2.018-.809 4.15-2.425 6.397-1.615 2.246-5.316 5.534-11.1 9.863-9.47 7.064-15.925 13.192-19.366 18.384-3.442 5.192-5.502 10.734-6.18 16.626H124z" transform="translate(242.000000, 3603.000000) translate(444.000000, 334.000000)"/>
                </g>
            </g>
        </g>
    </g>
</svg>
