<svg xmlns="http://www.w3.org/2000/svg" width="126" height="75" viewBox="0 0 126 75">
    <defs>
        <linearGradient id="vlsv17rk5a" x1="1.444%" x2="100%" y1="33.038%" y2="67.466%">
            <stop offset="0%" stop-color="#04D189"/>
            <stop offset="51.937%" stop-color="#0FC5A4"/>
            <stop offset="100%" stop-color="#1991FF"/>
        </linearGradient>
    </defs>
    <g fill="none" fill-rule="evenodd" opacity=".699">
        <g fill="url(#vlsv17rk5a)" fill-rule="nonzero" transform="translate(-456.000000, -4125.000000)">
            <g>
                <g>
                    <path d="M29.2 74.023c10.741 0 18.31-3.01 22.704-9.033 4.395-6.022 6.592-15.527 6.592-28.515 0-5.795-.667-11.361-2.002-16.7-.683-2.8-1.587-5.249-2.71-7.348-1.123-2.1-2.661-4.102-4.614-6.006-1.953-1.904-4.476-3.45-7.568-4.639C38.509.594 34.554 0 29.736 0 19.71 0 12.248 2.718 7.35 8.154 2.449 13.59 0 23.112 0 36.72c0 5.534.48 10.587 1.44 15.16.96 4.574 2.303 8.18 4.029 10.816 2.376 3.711 5.42 6.527 9.13 8.448 3.712 1.92 8.578 2.88 14.6 2.88zm-.05-13.574c-3.06 0-5.395-1.668-7.006-5.005-1.612-3.336-2.417-9.562-2.417-18.676 0-9.017.732-15.194 2.197-18.53 1.465-3.337 3.841-5.006 7.129-5.006 3.222 0 5.64 1.636 7.25 4.908 1.612 3.271 2.418 9.66 2.418 19.165 0 6.478-.35 11.246-1.05 14.306-.7 3.06-1.79 5.298-3.272 6.714-1.48 1.416-3.23 2.124-5.249 2.124zm67.237 13.574c6.673 0 12.06-1.033 16.162-3.1 4.101-2.067 7.243-5.013 9.424-8.838 2.18-3.825 3.271-7.82 3.271-11.987 0-3.32-.659-6.177-1.977-8.57-1.319-2.392-3.166-4.321-5.542-5.786-1.465-.911-3.581-1.709-6.348-2.392 3.418-1.888 5.973-4.086 7.666-6.592 1.693-2.507 2.539-5.306 2.539-8.399 0-5.273-2.083-9.651-6.25-13.134C111.165 1.742 104.411 0 95.068 0 86.93 0 80.64 1.595 76.196 4.785c-4.443 3.19-7.446 7.78-9.008 13.77l18.798 3.369c.521-3.548 1.514-6.03 2.979-7.446 1.465-1.416 3.369-2.124 5.713-2.124 2.278 0 4.069.65 5.37 1.953 1.303 1.302 1.954 3.043 1.954 5.224 0 2.279-.87 4.248-2.612 5.908-1.742 1.66-3.915 2.49-6.519 2.49-.618 0-1.481-.08-2.588-.243l-1.025 14.209c2.734-.782 4.883-1.172 6.445-1.172 2.93 0 5.25.911 6.958 2.734 1.71 1.823 2.564 4.395 2.564 7.715 0 3.255-.887 5.86-2.662 7.812-1.774 1.953-3.995 2.93-6.665 2.93-2.539 0-4.63-.773-6.274-2.32-1.644-1.545-2.856-4.32-3.638-8.324l-19.873 2.636c1.302 4.46 3.166 8.163 5.591 11.109 2.425 2.946 5.518 5.184 9.277 6.714 3.76 1.53 8.895 2.294 15.406 2.294z" transform="translate(242.000000, 3603.000000) translate(214.000000, 522.000000)"/>
                </g>
            </g>
        </g>
    </g>
</svg>
