<?xml version="1.0" encoding="UTF-8"?>
<svg width="34px" height="32px" viewBox="0 0 34 32" version="1.1" xmlns="http://www.w3.org/2000/svg" xmlns:xlink="http://www.w3.org/1999/xlink">
    <title>locker-bigger</title>
    <g id="Page-1" stroke="none" stroke-width="1" fill="none" fill-rule="evenodd">
        <g id="SM-/-Why-choose-Switch-Markets---V2" transform="translate(-879.000000, -1425.000000)" fill="#04D189" fill-rule="nonzero">
            <g id="why-trade-sm-copy" transform="translate(63.000000, 1302.000000)">
                <g id="locker-bigger" transform="translate(817.000000, 124.000000)">
                    <path d="M29.7142857,28.4611765 L2.28571429,28.4611765 C1.0239757,28.4596829 0.00151136747,27.4492475 0,26.2023529 L0,2.25882353 C0.00151136747,1.01192893 1.0239757,0.00149358667 2.28571429,4.26325641e-14 L29.7142857,4.26325641e-14 C30.9760243,0.00149358667 31.9984886,1.01192893 32,2.25882353 L32,26.2023529 C31.9984886,27.4492475 30.9760243,28.4596829 29.7142857,28.4611765 Z M2.28571429,0.903529412 C1.5282952,0.903529412 0.914285714,1.51031526 0.914285714,2.25882353 L0.914285714,26.2023529 C0.914285714,26.9508612 1.5282952,27.5576471 2.28571429,27.5576471 L29.7142857,27.5576471 C30.4717048,27.5576471 31.0857143,26.9508612 31.0857143,26.2023529 L31.0857143,2.25882353 C31.0857143,1.51031526 30.4717048,0.903529412 29.7142857,0.903529412 L2.28571429,0.903529412 Z" id="Shape" stroke="#04D189" stroke-width="2"></path>
                    <path d="M27.4285714,24.3952941 L4.57142857,24.3952941 C4.31895554,24.3952941 4.11428571,24.1930322 4.11428571,23.9435294 L4.11428571,20.5552941 C4.11428571,20.3057914 4.31895554,20.1035294 4.57142857,20.1035294 C4.8239016,20.1035294 5.02857143,20.3057914 5.02857143,20.5552941 L5.02857143,23.4917647 L26.9714286,23.4917647 L26.9714286,4.96941176 L5.02857143,4.96941176 L5.02857143,7.90588235 C5.02857143,8.15538511 4.8239016,8.35764706 4.57142857,8.35764706 C4.31895554,8.35764706 4.11428571,8.15538511 4.11428571,7.90588235 L4.11428571,4.51764706 C4.11428571,4.2681443 4.31895554,4.06588235 4.57142857,4.06588235 L27.4285714,4.06588235 C27.6810445,4.06588235 27.8857143,4.2681443 27.8857143,4.51764706 L27.8857143,23.9435294 C27.8857143,24.1930322 27.6810445,24.3952941 27.4285714,24.3952941 Z" id="Path" stroke="#04D189" stroke-width="1.5"></path>
                    <g id="locker" transform="translate(2.000000, 7.000000)">
                        <path d="M6.68571429,20.5576471 C6.93818731,20.5576471 7.14285714,20.759909 7.14285714,21.0094118 L7.14285714,23.2682353 C7.14285714,23.5177381 6.93818731,23.72 6.68571429,23.72 L3.02857143,23.72 C2.7760984,23.72 2.57142857,23.5177381 2.57142857,23.2682353 L2.57142857,21.0094118 C2.57142857,20.759909 2.7760984,20.5576471 3.02857143,20.5576471 L6.68571429,20.5576471 Z M24.9714286,20.5576471 C25.2239016,20.5576471 25.4285714,20.759909 25.4285714,21.0094118 L25.4285714,23.2682353 C25.4285714,23.5177381 25.2239016,23.72 24.9714286,23.72 L21.3142857,23.72 C21.0618127,23.72 20.8571429,23.5177381 20.8571429,23.2682353 L20.8571429,21.0094118 C20.8571429,20.759909 21.0618127,20.5576471 21.3142857,20.5576471 L24.9714286,20.5576471 Z M6.22857143,21.4611765 L3.48571429,21.4611765 L3.48571429,22.8164706 L6.22857143,22.8164706 L6.22857143,21.4611765 Z M24.5142857,21.4611765 L21.7714286,21.4611765 L21.7714286,22.8164706 L24.5142857,22.8164706 L24.5142857,21.4611765 Z M2.57142857,4.06823529 C2.8239016,4.06823529 3.02857143,4.27049724 3.02857143,4.52 L3.02857143,9.94117647 C3.02857143,10.1906792 2.8239016,10.3929412 2.57142857,10.3929412 C2.31895554,10.3929412 2.11428571,10.1906792 2.11428571,9.94117647 L2.11428571,4.52 C2.11428571,4.27049724 2.31895554,4.06823529 2.57142857,4.06823529 Z" id="Combined-Shape" stroke="#04D189" stroke-width="0.5"></path>
                        <path d="M3.23794286,4.97176482 L1.90491429,4.97176482 C1.39996823,4.97176482 0.990628571,4.56724081 0.990628571,4.06823529 L0.990628571,1.35764706 C0.990628571,0.858641544 1.39996823,0.454117647 1.90491429,0.454117647 L3.2384,0.454117647 C3.74334606,0.454117647 4.15268571,0.858641544 4.15268571,1.35764706 L4.15268571,4.06823529 C4.15268571,4.30794449 4.05629674,4.53782922 3.88473602,4.70728684 C3.71317531,4.87674447 3.4805057,4.97188456 3.23794286,4.97176482 Z M3.23794286,1.35764706 L1.90491429,1.35764706 L1.90491429,4.06823529 L3.2384,4.06823529 L3.23794286,1.35764706 Z" id="Shape" stroke="#04D189"></path>
                        <path d="M3.23794286,14.0070589 L1.90491429,14.0070589 C1.39996823,14.0070589 0.990628571,13.6025349 0.990628571,13.1035294 L0.990628571,10.3929412 C0.990628571,9.89393566 1.39996823,9.48941176 1.90491429,9.48941176 L3.2384,9.48941176 C3.74334606,9.48941176 4.15268571,9.89393566 4.15268571,10.3929412 L4.15268571,13.1035294 C4.15268571,13.3432386 4.05629674,13.5731233 3.88473602,13.742581 C3.71317531,13.9120386 3.4805057,14.0071787 3.23794286,14.0070589 Z M3.23794286,10.3929412 L1.90491429,10.3929412 L1.90491429,13.1035294 L3.2384,13.1035294 L3.23794286,10.3929412 Z" id="Shape" stroke="#04D189"></path>
                        <path d="M15.0000877,13 C12.5733497,13 10.3855639,11.5381683 9.45689151,9.29615473 C8.52821908,7.05414115 9.04154611,4.4734719 10.757509,2.75750901 C12.4734719,1.04154611 15.0541412,0.528219079 17.2961547,1.45689151 C19.5381683,2.38556394 21,4.57334969 21,7.00008769 C20.9960824,10.3121237 18.3121237,12.9960824 15.0000877,13 L15.0000877,13 Z M15.0000877,2.09395212 C12.2905038,2.09395212 10.0939521,4.29050383 10.0939521,7.00008769 C10.0939521,9.70967154 12.2905038,11.9062233 15.0000877,11.9062233 C17.7096715,11.9062233 19.9062233,9.70967154 19.9062233,7.00008769 C19.9032093,4.29175323 17.7084221,2.09696607 15.0000877,2.09395212 L15.0000877,2.09395212 Z" id="Shape" stroke="#04D189"></path>
                        <path d="M14.998326,10.0000001 C13.3416901,9.99907554 11.9993842,8.65552061 12.0000002,6.99888434 C12.0006166,5.34224808 13.3439217,3.99969212 15.0005578,4.00000005 C16.657194,4.00030809 18.0000002,5.34336341 18.0000002,7.00000005 C17.9981533,8.65674221 16.655069,9.99907754 14.998326,10.0000001 L14.998326,10.0000001 Z M14.998326,5.11607109 C13.9580794,5.11699548 13.1154558,5.96086798 13.1160716,7.00111487 C13.1166881,8.04136177 13.9603107,8.88423552 15.0005576,8.88392775 C16.0408046,8.88361981 16.8839286,8.04024687 16.8839286,6.99999979 C16.8826972,5.95939157 16.0389348,5.11637824 14.998326,5.11607109 Z" id="Shape"></path>
                        <path d="M14.9991801,8.84453456 C15.3010438,8.84453456 15.5457527,9.08933262 15.5457527,9.39130633 L15.5457527,12.4532282 C15.5457527,12.7552019 15.3010438,13 14.9991801,13 C14.6973165,13 14.4526076,12.7552019 14.4526076,12.4532282 L14.4526076,9.39130633 C14.4526076,9.08933262 14.6973165,8.84453456 14.9991801,8.84453456 Z M17.0767023,8.30596437 L19.2394899,10.4695403 C19.3957593,10.6259138 19.4424989,10.8610489 19.3579201,11.0653326 C19.2733413,11.2696163 19.0740948,11.4028325 18.8530631,11.4028797 L18.8530631,11.4034264 C18.7081149,11.4034264 18.5691147,11.345769 18.4666363,11.2432223 L16.3038488,9.07909965 C16.096713,8.86455795 16.0996753,8.52353318 16.3105068,8.31262483 C16.5213383,8.10171648 16.8622388,8.09875306 17.0767023,8.30596437 Z M13.6821624,8.31832654 C13.8909071,8.52699969 13.8963735,8.86375653 13.6945115,9.07909965 L11.531724,11.2426755 C11.4293352,11.3454228 11.2903239,11.4032505 11.1452972,11.4034264 C10.9242655,11.4033792 10.725019,11.2701631 10.6404402,11.0658794 C10.5558614,10.8615956 10.602601,10.6264606 10.7588704,10.470087 L12.9216579,8.30651114 C13.1367797,8.10442329 13.4734176,8.10965338 13.6821624,8.31832654 Z M12.6073787,6.45459516 C12.9092424,6.45459516 13.1539513,6.69939322 13.1539513,7.00136693 C13.1539513,7.30334064 12.9092424,7.5481387 12.6073787,7.5481387 L9.54657253,7.5481387 C9.24470886,7.5481387 9,7.30334064 9,7.00136693 C9,6.69939322 9.24470886,6.45459516 9.54657253,6.45459516 L12.6073787,6.45459516 Z M20.4534275,6.45459516 C20.7552911,6.45459516 21,6.69939322 21,7.00136693 C21,7.30334064 20.7552911,7.5481387 20.4534275,7.5481387 L17.3926213,7.5481387 C17.0907576,7.5481387 16.8460487,7.30334064 16.8460487,7.00136693 C16.8460487,6.69939322 17.0907576,6.45459516 17.3926213,6.45459516 L20.4534275,6.45459516 Z M11.531724,2.75951155 L13.6945115,4.92363421 C13.8507809,5.08000779 13.8975205,5.31514282 13.8129417,5.51942656 C13.728363,5.7237103 13.5291164,5.85692641 13.3080847,5.85697362 C13.1631365,5.85639588 13.0241363,5.79876942 12.9216579,5.69622272 L10.7588704,3.53264683 C10.5517346,3.31810513 10.5546969,2.97708036 10.7655284,2.76617201 C10.9763599,2.55526366 11.3172605,2.55230025 11.531724,2.75951155 Z M19.2328318,2.76617201 C19.4436633,2.97708036 19.4466257,3.31810513 19.2394899,3.53264683 L17.0767023,5.69622272 C16.974224,5.79876942 16.8352238,5.85642685 16.6902756,5.85642685 C16.4692439,5.85637963 16.2699973,5.72316353 16.1854185,5.51887979 C16.1008398,5.31459604 16.1475794,5.07946102 16.3038488,4.92308744 L18.4666363,2.75951155 C18.6810998,2.55230025 19.0220003,2.55526366 19.2328318,2.76617201 Z M14.9991801,1 C15.3010438,1 15.5457527,1.24479806 15.5457527,1.54677177 L15.5457527,4.60869367 C15.5457527,4.91066738 15.3010438,5.15546544 14.9991801,5.15546544 C14.6973165,5.15546544 14.4526076,4.91066738 14.4526076,4.60869367 L14.4526076,1.54677177 C14.4526076,1.24479806 14.6973165,1 14.9991801,1 Z" id="Combined-Shape" opacity="0.445262364"></path>
                    </g>
                </g>
            </g>
        </g>
    </g>
</svg>