<svg width="20" height="20" viewBox="0 0 20 20" fill="none" xmlns="http://www.w3.org/2000/svg">
<path d="M19.7002 12.4192C18.3646 17.7764 12.9384 21.0364 7.58055 19.7008C2.22524 18.3652 -1.03507 12.9389 0.300863 7.58206C1.63586 2.22425 7.0618 -1.03638 12.418 0.299249C17.7755 1.63487 21.0356 7.06175 19.6999 12.4192H19.7002Z" fill="#6F5024"/>
<path fill-rule="evenodd" clip-rule="evenodd" d="M13.0119 8.83814C13.1467 7.93546 12.4594 7.45021 11.5196 7.12649L11.8245 5.9037L11.0799 5.7182L10.7831 6.90877C10.5877 6.86001 10.3867 6.81401 10.187 6.76843L10.4859 5.57002L9.74204 5.38452L9.43698 6.60689C9.27501 6.57 9.11602 6.53354 8.96168 6.49517L8.96253 6.49135L7.93605 6.23505L7.73804 7.03003C7.73804 7.03003 8.29029 7.15659 8.27863 7.16444C8.58009 7.23969 8.63479 7.43918 8.62546 7.59733L8.27821 8.99035C8.29898 8.99565 8.32591 9.00328 8.35559 9.01516L8.27715 8.99565L7.7902 10.9471C7.75331 11.0387 7.65982 11.176 7.44909 11.1239C7.45651 11.1347 6.90808 10.9888 6.90808 10.9888L6.53857 11.8411L7.50739 12.0825C7.61677 12.1099 7.72481 12.1381 7.83167 12.166L7.8317 12.166C7.90089 12.1841 7.96958 12.202 8.03781 12.2195L7.72978 13.4565L8.47324 13.642L8.77852 12.4183C8.9814 12.4734 9.17855 12.5243 9.37147 12.5722L9.06747 13.7901L9.81178 13.9756L10.1198 12.7412C11.389 12.9814 12.3436 12.8845 12.745 11.7368C13.0687 10.8125 12.7291 10.2793 12.0613 9.9314C12.5476 9.81883 12.9139 9.49893 13.0116 8.83814H13.0119ZM11.311 11.2229C11.0997 12.0712 9.77158 11.7202 9.16444 11.5597L9.16437 11.5597C9.11003 11.5454 9.06146 11.5325 9.01999 11.5222L9.42872 9.8837C9.47943 9.89636 9.54138 9.91026 9.61156 9.92601C10.2397 10.067 11.5269 10.3558 11.3112 11.2229H11.311ZM9.73779 9.16567C10.2444 9.30083 11.3487 9.59543 11.541 8.82478C11.7377 8.03639 10.6639 7.79876 10.1395 7.68271C10.0805 7.66967 10.0285 7.65816 9.98604 7.64757L9.61547 9.13366C9.65054 9.1424 9.69169 9.15337 9.73779 9.16567Z" fill="#F7931A"/>
</svg>
