<svg width="20" height="20" viewBox="0 0 20 20" fill="none" xmlns="http://www.w3.org/2000/svg">
<g clip-path="url(#clip0_444_13356)">
<path d="M10 20C4.47715 20 0 15.5228 0 10C0 4.47715 4.47715 0 10 0C15.5228 0 20 4.47715 20 10C20 15.5228 15.5228 20 10 20Z" fill="#F0F0F0"/>
<path d="M10.4351 10.0001H0.0002985C0.0002985 9.09749 0.120611 8.22312 0.34479 7.39136H10.4351V10.0001Z" fill="#D80027"/>
<path d="M10.4351 4.78254H1.46803C2.08018 3.78363 2.86288 2.9007 3.77545 2.17383H10.4351V4.78254Z" fill="#D80027"/>
<path d="M10.0003 19.9998C7.64678 19.9998 5.48361 19.1864 3.77541 17.8259H16.2251C14.5169 19.1864 12.3537 19.9998 10.0003 19.9998Z" fill="#D80027"/>
<path d="M18.5325 15.2174H1.46799C0.976542 14.4154 0.595407 13.5389 0.344744 12.6086H19.6558C19.4051 13.5389 19.024 14.4154 18.5325 15.2174Z" fill="#D80027"/>
<path d="M15.3678 1.56164H14.4565L15.3042 2.17746L14.9804 3.17391L15.828 2.55809L16.6756 3.17391L16.3959 2.31309C17.1423 2.93477 17.7964 3.66313 18.3355 4.47469H18.0435L18.583 4.86668C18.6671 5.00691 18.7477 5.14937 18.825 5.29395L18.5673 6.08695L19.048 5.7377C19.1675 5.99086 19.2768 6.24973 19.3751 6.51398L19.0912 7.38773H18.0435L18.8911 8.00356L18.5673 9L19.415 8.38418L19.9227 8.75309C19.9735 9.1616 20 9.57769 20 10H10C10 4.47719 10 3.82609 10 0C11.9755 0 13.817 0.573047 15.3678 1.56164ZM14.9804 9L15.828 8.38418L16.6756 9L16.3518 8.00356L17.1995 7.38773H16.1518L15.828 6.39129L15.5043 7.38773H14.4565L15.3042 8.00356L14.9804 9ZM15.3042 5.09051L14.9804 6.08695L15.828 5.47113L16.6756 6.08695L16.3518 5.09051L17.1995 4.47469H16.1518L15.828 3.47824L15.5043 4.47469H14.4565L15.3042 5.09051ZM11.3934 9L12.2411 8.38418L13.0887 9L12.7649 8.00356L13.6125 7.38773H12.5648L12.2411 6.39129L11.9173 7.38773H10.8696L11.7172 8.00356L11.3934 9ZM11.7172 5.09051L11.3934 6.08695L12.2411 5.47113L13.0887 6.08695L12.7649 5.09051L13.6125 4.47469H12.5648L12.2411 3.47824L11.9173 4.47469H10.8696L11.7172 5.09051ZM11.7172 2.17746L11.3934 3.17391L12.2411 2.55809L13.0887 3.17391L12.7649 2.17746L13.6125 1.56164H12.5648L12.2411 0.565195L11.9173 1.56164H10.8696L11.7172 2.17746Z" fill="#0052B4"/>
</g>
<defs>
<clipPath id="clip0_444_13356">
<rect width="20" height="20" fill="white" transform="matrix(-1 0 0 1 20 0)"/>
</clipPath>
</defs>
</svg>
