<?xml version="1.0" encoding="UTF-8"?>
<svg width="48px" height="48px" viewBox="0 0 48 48" version="1.1" xmlns="http://www.w3.org/2000/svg" xmlns:xlink="http://www.w3.org/1999/xlink">
    <title>icon-graph</title>
    <defs>
        <path d="M16.2498403,20.002 C15.7260903,20.002 15.2548403,19.6745 15.0760903,19.1795 L11.2310903,8.61075 L8.67109033,15.442 C8.50234033,15.89075 8.09109033,16.20325 7.61359033,16.247 C7.13109033,16.2945 6.67484033,16.057 6.42859033,15.64575 L3.69484033,11.0895 L2.28984033,13.19575 C1.90609033,13.7695 1.12984033,13.92325 0.556090334,13.542 C-0.0176596656,13.15825 -0.172659666,12.38325 0.209840334,11.80825 L2.70984033,8.05825 C2.94609033,7.702 3.33234033,7.48325 3.77984033,7.502 C4.20859033,7.512 4.60109033,7.74075 4.82109033,8.10825 L7.23984033,12.13825 L10.0785903,4.56325 C10.2623403,4.0745 10.7285903,3.752 11.2498403,3.752 L11.2560903,3.752 C11.7798403,3.7545 12.2460903,4.08325 12.4248403,4.5745 L16.1073403,14.702 L20.0473403,0.90825 C20.1985903,0.382 20.6748403,0.0145 21.2235903,0.002 C21.7598403,-0.0305 22.2635903,0.337 22.4348403,0.857 L24.9348403,8.357 C25.1535903,9.012 24.7998403,9.7195 24.1448403,9.93825 C23.4848403,10.15825 22.7835903,9.802 22.5648403,9.147 L21.3410903,5.48075 L17.4523403,19.0945 C17.3035903,19.61575 16.8360903,19.982 16.2935903,20.00075 C16.2785903,20.002 16.2648403,20.002 16.2498403,20.002" id="path-1"></path>
    </defs>
    <g id="Page-1" stroke="none" stroke-width="1" fill="none" fill-rule="evenodd">
        <g id="Desktop-/-Switch-Markets-/-Homepage-V2.1" transform="translate(-574.000000, -1227.000000)">
            <g id="price-section" transform="translate(322.000000, 926.000000)">
                <g id="Pro-account" transform="translate(0.000000, 189.000000)">
                    <g id="icon-graph" transform="translate(252.000000, 112.000000)">
                        <rect id="Rectangle-Copy-38" fill="#06114F" x="0" y="0" width="48" height="48" rx="23"></rect>
                        <g id="Polaris-icon/Major/Mono/Wearable" transform="translate(12.000000, 14.000000)">
                            <mask id="mask-2" fill="white">
                                <use xlink:href="#path-1"></use>
                            </mask>
                            <use id="Icon" fill="#FFFFFF" xlink:href="#path-1"></use>
                        </g>
                    </g>
                </g>
            </g>
        </g>
    </g>
</svg>