<?xml version="1.0" encoding="UTF-8"?>
<svg width="48px" height="48px" viewBox="0 0 48 48" version="1.1" xmlns="http://www.w3.org/2000/svg" xmlns:xlink="http://www.w3.org/1999/xlink">
    <title>icon-percentage</title>
    <defs>
        <path d="M23.8296169,9.66924233 L22.9531971,8.79405636 C22.6743931,8.51399685 22.5131119,8.12516422 22.5131119,7.73008027 L22.5131119,6.49106699 C22.5131119,4.28309781 20.7165138,2.48771631 18.508586,2.48771631 L17.2708462,2.48771631 C16.8695184,2.48771631 16.4919453,2.3314331 16.2068901,2.04637253 L15.3317205,1.17118656 C13.7701679,-0.391645534 11.2296757,-0.389145003 9.66812318,1.17118656 L8.79295362,2.04637253 C8.50789839,2.3314331 8.13032524,2.48771631 7.72899748,2.48771631 L6.49125767,2.48771631 C4.28332989,2.48771631 2.4867318,4.28309781 2.4867318,6.49106699 L2.4867318,7.73008027 C2.4867318,8.12516422 2.32545055,8.51399685 2.04664653,8.79405636 L1.17022673,9.66924233 C-0.390075576,11.2308242 -0.390075576,13.7701137 1.17022673,15.3316956 L2.04664653,16.2068815 C2.32545055,16.486941 2.4867318,16.8745234 2.4867318,17.2708576 L2.4867318,18.5098709 C2.4867318,20.7178401 4.28332989,22.5132216 6.49125767,22.5132216 L7.72899748,22.5132216 C8.13032524,22.5132216 8.50789839,22.6695048 8.79295362,22.9545654 L9.66812318,23.8297513 C10.4495246,24.6111674 11.4747232,25 12.4999218,25 C13.5251205,25 14.5503191,24.6099171 15.3317205,23.8297513 L16.2068901,22.9545654 C16.4919453,22.6695048 16.8695184,22.5132216 17.2708462,22.5132216 L18.508586,22.5132216 C20.7165138,22.5132216 22.5131119,20.7178401 22.5131119,18.5098709 L22.5131119,17.2708576 C22.5131119,16.8745234 22.6743931,16.486941 22.9531971,16.2068815 L23.8308672,15.3316956 C25.3899192,13.7701137 25.3899192,11.2308242 23.8296169,9.66924233 M15.3642268,7.86323357 L7.8627734,15.3648276 C7.37392868,15.8536815 7.37392868,16.6438494 7.8627734,17.1327033 C8.10657063,17.3765051 8.42663264,17.4990311 8.74669466,17.4990311 C9.06675667,17.4990311 9.38681868,17.3765051 9.63061591,17.1327033 L17.1320693,9.63110923 C17.620914,9.14225535 17.620914,8.35208744 17.1320693,7.86323357 C16.6432246,7.37437969 15.8530715,7.37437969 15.3642268,7.86323357 M9.3719408,11.2477027 C10.4071414,11.2477027 11.2473041,10.4075242 11.2473041,9.37230423 C11.2473041,8.33708426 10.4071414,7.49690572 9.3719408,7.49690572 C8.33674023,7.49690572 7.49657745,8.33708426 7.49657745,9.37230423 C7.49657745,10.4075242 8.33674023,11.2477027 9.3719408,11.2477027 M15.623152,13.7482341 C14.5879514,13.7482341 13.7477886,14.5884126 13.7477886,15.6236326 C13.7477886,16.6588526 14.5879514,17.4990311 15.623152,17.4990311 C16.6583525,17.4990311 17.4985153,16.6588526 17.4985153,15.6236326 C17.4985153,14.5884126 16.6583525,13.7482341 15.623152,13.7482341 M22.0617744,13.5638199 L21.1853546,14.4390059 C20.4289581,15.1954166 20.0126274,16.2006302 20.0126274,17.2708576 L20.0126274,18.5098709 C20.0126274,19.338797 19.3387468,20.0126902 18.508586,20.0126902 L17.2708462,20.0126902 C16.2018891,20.0126902 15.1954441,20.4290287 14.4390475,21.1866897 L13.563878,22.0618757 C12.9775144,22.6482503 12.0223293,22.6482503 11.4359657,22.0618757 L10.5607961,21.1866897 C9.80439958,20.4290287 8.79920483,20.0126902 7.72899748,20.0126902 L6.49125767,20.0126902 C5.66109683,20.0126902 4.98721626,19.338797 4.98721626,18.5098709 L4.98721626,17.2708576 C4.98721626,16.2006302 4.5708856,15.1954166 3.81448905,14.4390059 L2.93931949,13.5638199 C2.35170564,12.9774453 2.35170564,12.0234926 2.93806925,11.437118 L3.81448905,10.561932 C4.5708856,9.80552129 4.98721626,8.79905742 4.98721626,7.73008027 L4.98721626,6.49106699 C4.98721626,5.66214085 5.66109683,4.98824765 6.49125767,4.98824765 L7.72899748,4.98824765 C8.79920483,4.98824765 9.80439958,4.57190918 10.5607961,3.81424819 L11.4359657,2.93906222 C12.0223293,2.35268762 12.9775144,2.35268762 13.563878,2.93906222 L14.4390475,3.81424819 C15.1954441,4.57190918 16.2018891,4.98824765 17.2708462,4.98824765 L18.508586,4.98824765 C19.3387468,4.98824765 20.0126274,5.66214085 20.0126274,6.49106699 L20.0126274,7.73008027 C20.0126274,8.79905742 20.4289581,9.80552129 21.1853546,10.561932 L22.0617744,11.437118 C22.648138,12.0234926 22.648138,12.9774453 22.0617744,13.5638199" id="path-1"></path>
    </defs>
    <g id="Page-1" stroke="none" stroke-width="1" fill="none" fill-rule="evenodd">
        <g id="Desktop-/-Switch-Markets-/-Homepage-V2.1" transform="translate(-947.000000, -1227.000000)">
            <g id="price-section" transform="translate(322.000000, 926.000000)">
                <g id="Pro-account-Copy" transform="translate(373.000000, 189.000000)">
                    <g id="icon-percentage" transform="translate(252.000000, 112.000000)">
                        <rect id="Rectangle-Copy-38" fill="#06114F" x="0" y="0" width="48" height="48" rx="23"></rect>
                        <g id="Monotone" transform="translate(12.000000, 12.000000)">
                            <mask id="mask-2" fill="white">
                                <use xlink:href="#path-1"></use>
                            </mask>
                            <use id="Icon" fill="#FFFFFF" xlink:href="#path-1"></use>
                        </g>
                    </g>
                </g>
            </g>
        </g>
    </g>
</svg>