<?xml version="1.0" encoding="UTF-8"?>
<svg width="46px" height="19px" viewBox="0 0 46 19" version="1.1" xmlns="http://www.w3.org/2000/svg" xmlns:xlink="http://www.w3.org/1999/xlink">
    <title>graph-up-sm</title>
    <defs>
        <rect id="path-1" x="0" y="0" width="45" height="17.1"></rect>
        <linearGradient x1="50%" y1="0%" x2="50%" y2="100%" id="linearGradient-3">
            <stop stop-color="#4AE020" stop-opacity="0.665072354" offset="0%"></stop>
            <stop stop-color="#D8D8D8" stop-opacity="0" offset="100%"></stop>
        </linearGradient>
    </defs>
    <g id="Page-1" stroke="none" stroke-width="1" fill="none" fill-rule="evenodd">
        <g id="Desktop-/-Switch-Markets-/-Homepage" transform="translate(-1101.000000, -252.000000)">
            <g id="Currency-Cards" transform="translate(666.000000, 229.000000)">
                <g id="gbpusd" transform="translate(287.000000, 0.000000)">
                    <g id="graph-up-sm" transform="translate(148.200000, 23.400000)">
                        <mask id="mask-2" fill="white">
                            <use xlink:href="#path-1"></use>
                        </mask>
                        <g id="Mask" transform="translate(22.500000, 8.550000) scale(-1, 1) translate(-22.500000, -8.550000) "></g>
                        <g id="Group-28" mask="url(#mask-2)">
                            <g transform="translate(18.400000, 9.000000) scale(-1, 1) translate(-18.400000, -9.000000) translate(-18.100000, 0.000000)">
                                <path d="M0,8.52632103 C1.03007992,11.0749315 2.1712179,11.0159307 3.42341393,8.34931864 C5.30170798,4.34940051 4.64172932,0.737089786 5.40803305,6.43522455 C6.17433678,12.1333593 6.3469199,-0.523711646 7.07645215,5.80482383 C7.80598441,12.1333593 8.62137459,4.24830715 11.6916196,7.75929529 C14.7618646,11.2702834 15.2735432,-4.37144838 15.7319725,1.22009135 C16.1904018,6.81163108 16.4174483,9.86895994 17.0063123,6.43522455 C17.5951763,3.00148916 18.2927937,10.8938135 19.6018237,8.34931864 C20.9108536,5.80482383 21.9449647,16.1956615 23.2245081,11.315443 C24.5040514,6.43522455 24.923281,3.79235551 25.5539465,6.43522455 C26.1846121,9.07809358 28.2124203,4.36888562 28.5109284,8.52632103 C28.7099338,11.2979446 28.7933634,12.3856724 28.7612173,11.7895044 L33.0804784,11.7895044 C35.3310548,10.3654865 36.9219415,10.4934005 37.8531388,12.1732465 C38.784336,13.8530925 40.1130814,13.9595347 41.8393751,12.4925731 C43.4694617,11.3427222 45.1333711,11.6527265 46.8311033,13.4225861 C49.3777016,16.0773754 50.0933579,15.6599355 50.732349,13.916591 C51.3713402,12.1732465 52.3358977,10.9896978 53.2654182,13.916591 C54.1949387,16.8434842 56.1060149,15.6056064 56.402615,14.7610987 C56.6992152,13.916591 56.4490997,11.7395308 58.7859966,13.916591 L60.9275883,14.0676579 L68.3722516,16.624334 L72.9,16.624334 L72.9,17.1" id="Path" stroke="#04D189" stroke-width="0.9" fill="none"></path>
                                <path d="M0,8.52632103 C1.03007992,11.0749315 2.1712179,11.0159307 3.42341393,8.34931864 C5.30170798,4.34940051 4.64172932,0.737089786 5.40803305,6.43522455 C6.17433678,12.1333593 6.3469199,-0.523711646 7.07645215,5.80482383 C7.80598441,12.1333593 8.62137459,4.24830715 11.6916196,7.75929529 C14.7618646,11.2702834 15.2735432,-4.37144838 15.7319725,1.22009135 C16.1904018,6.81163108 16.4174483,9.86895994 17.0063123,6.43522455 C17.5951763,3.00148916 18.2927937,10.8938135 19.6018237,8.34931864 C20.9108536,5.80482383 21.9449647,16.1956615 23.2245081,11.315443 C24.5040514,6.43522455 24.923281,3.79235551 25.5539465,6.43522455 C26.1846121,9.07809358 28.2124203,4.36888562 28.5109284,8.52632103 C28.7099338,11.2979446 28.7933634,12.3856724 28.7612173,11.7895044 L33.0804784,11.7895044 C35.3310548,10.3654865 36.9219415,10.4934005 37.8531388,12.1732465 C38.784336,13.8530925 40.1130814,13.9595347 41.8393751,12.4925731 C43.4694617,11.3427222 45.1333711,11.6527265 46.8311033,13.4225861 C49.3777016,16.0773754 50.0933579,15.6599355 50.732349,13.916591 C51.3713402,12.1732465 52.3358977,10.9896978 53.2654182,13.916591 C54.1949387,16.8434842 56.1060149,15.6056064 56.402615,14.7610987 C56.6992152,13.916591 56.4490997,11.7395308 58.7859966,13.916591 L60.9275883,14.0676579 L68.3722516,16.624334 L72.9,16.624334 L72.9,17.1 L0,17.1 L0,8.52632103 Z" id="Path-3-Copy" stroke="none" fill="url(#linearGradient-3)" fill-rule="evenodd"></path>
                            </g>
                        </g>
                    </g>
                </g>
            </g>
        </g>
    </g>
</svg>