<svg xmlns="http://www.w3.org/2000/svg" width="24" height="24" fill="none" viewBox="0 0 24 24">
  <mask id="a" width="16" height="16" x="8" y="8" maskUnits="userSpaceOnUse">
    <circle cx="16" cy="16" r="7.5" fill="#fff" stroke="#fff"/>
  </mask>
  <g mask="url(#a)">
    <path fill="#F8F9FD" d="M8 8h16v16H8V8z"/>
    <path fill="#EF5350" d="M17.778 11.556H24V8h-6.222v3.556zM8 24h16v-3.556H8V24zm9.778-6.222H24v-3.556h-6.222v3.556z"/>
    <path fill="#1E88E5" d="M8 8h9.778v9.778H8V8z"/>
    <path fill="#F8F9FD" d="M10.151 9.084a.08.08 0 01.071-.043.08.08 0 01.071.043l.24.632c.01.035.045.053.071.053l.676.035c.071 0 .098.09.044.143l-.533.417a.08.08 0 00-.018.09l.178.64a.08.08 0 01-.124.088l-.56-.364a.08.08 0 00-.09 0l-.56.364a.08.08 0 01-.094.002.08.08 0 01-.03-.09l.178-.65a.08.08 0 00-.027-.088l-.524-.41a.08.08 0 01.044-.142l.676-.035c.027 0 .062-.018.071-.053l.24-.623v-.009zm0 2.667a.08.08 0 01.071-.043.08.08 0 01.071.043l.24.631c.01.036.045.054.071.054l.676.035c.071 0 .098.089.044.142l-.533.418a.08.08 0 00-.018.089l.178.64a.08.08 0 01-.124.089l-.56-.365a.081.081 0 00-.09 0l-.56.365a.08.08 0 01-.124-.089l.178-.649a.08.08 0 00-.027-.089l-.524-.409a.08.08 0 01.044-.142l.676-.035c.027 0 .062-.018.071-.054l.24-.622v-.009zm0 2.667a.08.08 0 01.113-.032.08.08 0 01.03.032l.24.63c.008.036.044.054.07.054l.676.036c.071 0 .098.089.044.142l-.533.418a.08.08 0 00-.018.089l.178.64a.08.08 0 01-.124.089l-.56-.365a.08.08 0 00-.09 0l-.56.365a.08.08 0 01-.094.001.08.08 0 01-.03-.09l.178-.65a.08.08 0 00-.027-.088l-.524-.409a.08.08 0 01.044-.142l.676-.036c.027 0 .062-.018.071-.053l.24-.622v-.01zm2.667-5.334a.08.08 0 01.142 0l.24.632c.009.035.044.053.071.053l.676.035c.07 0 .097.09.044.143l-.533.417a.08.08 0 00-.018.09l.178.64a.08.08 0 01-.125.089l-.56-.365a.08.08 0 00-.089 0l-.56.364a.08.08 0 01-.095.002.08.08 0 01-.029-.09l.178-.65a.08.08 0 00-.027-.088l-.524-.41a.08.08 0 01.044-.142l.676-.035c.026 0 .062-.018.07-.053l.24-.623v-.009zm0 2.667a.08.08 0 01.142 0l.24.631c.009.036.044.054.071.054l.676.035c.07 0 .097.089.044.142l-.533.418a.08.08 0 00-.018.089l.178.64a.08.08 0 01-.03.09.08.08 0 01-.095-.001l-.56-.365a.08.08 0 00-.089 0l-.56.365a.08.08 0 01-.124-.089l.178-.649a.08.08 0 00-.027-.089l-.524-.409a.08.08 0 010-.125.08.08 0 01.044-.017l.676-.035c.026 0 .062-.018.07-.054l.24-.622v-.009zm0 2.667a.08.08 0 01.142 0l.24.63c.009.036.044.054.071.054l.676.036c.07 0 .097.089.044.142l-.533.418a.08.08 0 00-.018.089l.178.64a.08.08 0 01-.03.09.081.081 0 01-.095-.001l-.56-.365a.08.08 0 00-.089 0l-.56.365a.08.08 0 01-.095.001.08.08 0 01-.029-.09l.178-.65a.08.08 0 00-.027-.088l-.524-.409a.08.08 0 01.044-.142l.676-.036c.026 0 .062-.018.07-.053l.24-.622v-.01zm2.666-5.334a.08.08 0 01.072-.043.08.08 0 01.07.043l.24.632c.01.035.045.053.072.053l.675.035c.071 0 .098.09.045.143l-.534.417a.08.08 0 00-.017.09l.177.64a.08.08 0 01-.124.088l-.56-.364a.08.08 0 00-.089 0l-.56.364a.08.08 0 01-.095.002.08.08 0 01-.03-.09l.178-.65a.08.08 0 00-.026-.088l-.525-.41a.08.08 0 01-.026-.086.08.08 0 01.07-.056l.676-.035c.027 0 .063-.018.071-.053l.24-.623v-.009zm0 2.667a.08.08 0 01.072-.043.08.08 0 01.07.043l.24.631c.01.036.045.054.072.054l.675.035c.071 0 .098.089.045.142l-.534.418a.08.08 0 00-.017.089l.177.64a.08.08 0 01-.124.089l-.56-.365a.08.08 0 00-.089 0l-.56.365a.08.08 0 01-.124-.089l.177-.649a.08.08 0 00-.026-.089l-.525-.409a.08.08 0 01-.026-.086.08.08 0 01.07-.056l.676-.035c.027 0 .063-.018.071-.054l.24-.622v-.009zm0 2.667a.081.081 0 01.072-.044.08.08 0 01.07.044l.24.63c.01.036.045.054.072.054l.675.036c.071 0 .098.089.045.142l-.534.418a.08.08 0 00-.017.089l.177.64a.08.08 0 01-.124.089l-.56-.365a.08.08 0 00-.089 0l-.56.365a.08.08 0 01-.095.001.08.08 0 01-.03-.09l.178-.65a.08.08 0 00-.026-.088l-.525-.409a.08.08 0 01-.026-.086.08.08 0 01.07-.056l.676-.036c.027 0 .063-.018.071-.053l.24-.622v-.01z"/>
  </g>
  <g>
    <mask id="b" width="17" height="17" x="0" y="0" maskUnits="userSpaceOnUse">
      <circle cx="8.5" cy="8.5" r="8" fill="#fff" stroke="#fff"/>
    </mask>
    <g mask="url(#b)">
      <path fill="#1565C0" d="M0 0h17v17H0V0z"/>
      <path fill="#FDD835" d="M8.453 1.889l.35 1.077h1.133l-.917.66.35 1.077-.916-.66-.907.66.34-1.067-.907-.661h1.134l.33-1.086h.01zM3.816 3.816l1.01.51.793-.794-.17 1.115 1.002.51-1.115.18-.18 1.114-.51-1.002-1.114.17.794-.793-.51-1.01zM1.889 8.453l1.077-.35V6.97l.66.916 1.087-.33-.661.906.66.916-1.066-.35-.662.917V8.812l-1.095-.36zm1.927 4.637l.51-1.001-.794-.803 1.115.18.51-1.011.18 1.124 1.114.17-1.002.52.17 1.114-.793-.803-1.01.51zm4.637 1.927l-.35-1.077H6.97l.916-.661-.33-1.077.906.661.916-.66-.35 1.076.917.661H8.812l-.35 1.077h-.01zm4.637-1.927l-1.001-.51-.803.803.18-1.115-1.011-.52 1.124-.17.17-1.123.52 1.01 1.114-.179-.803.803.51 1.001zm1.927-4.637l-1.077.35v1.133l-.661-.917-1.077.35.661-.916-.66-.907 1.076.34.661-.907v1.134l1.077.34zM13.09 3.816l-.51 1.01.803.793-1.115-.17-.52 1.002-.17-1.115-1.123-.18 1.01-.51-.179-1.114.803.794 1.001-.51z"/>
      <circle cx="8.5" cy="8.5" r="8.25" stroke="#fff" stroke-width=".5"/>
    </g>
  </g>
</svg>
