<svg width="20" height="20" viewBox="0 0 20 20" fill="none" xmlns="http://www.w3.org/2000/svg">
<path d="M10 20C15.5228 20 20 15.5228 20 10C20 4.47715 15.5228 0 10 0C4.47715 0 0 4.47715 0 10C0 15.5228 4.47715 20 10 20Z" fill="#C8A849"/>
<path d="M5.08526 14.792C5.12737 14.8564 5.18281 14.9088 5.24699 14.945C5.31117 14.9812 5.38226 15 5.45437 15H14.5458C14.6178 14.9999 14.6887 14.9811 14.7528 14.945C14.8168 14.9088 14.8722 14.8565 14.9143 14.7922C14.9563 14.728 14.9839 14.6537 14.9948 14.5754C15.0057 14.4971 14.9995 14.4171 14.9767 14.342L14.0676 11.342C14.0374 11.2425 13.9796 11.1559 13.9023 11.0945C13.8249 11.0331 13.732 11.0001 13.6366 11H12.6002L11.7947 8.342C11.7646 8.24248 11.7068 8.1559 11.6294 8.09452C11.5521 8.03315 11.4591 8.00008 11.3638 8H8.63636C8.541 8.00008 8.44807 8.03315 8.37073 8.09452C8.29339 8.1559 8.23556 8.24248 8.20543 8.342L7.39993 11H6.36351C6.26814 11.0001 6.17522 11.0331 6.09788 11.0945C6.02054 11.1559 5.96271 11.2425 5.93258 11.342L5.02344 14.342C5.00064 14.417 4.99436 14.497 5.0051 14.5752C5.01585 14.6534 5.04332 14.7277 5.08526 14.792ZM10.0001 12.9195L9.72142 12H10.2787L10.0001 12.9195ZM12.2729 12H13.3089L13.9148 14H10.631L11.237 12H12.2729ZM8.96411 9H11.036L11.642 11H8.35816L8.96411 9ZM6.69126 12H8.76319L9.36913 14H6.08531L6.69126 12Z" fill="white"/>
<path d="M10.455 6.5V5.5C10.455 5.36739 10.4071 5.24021 10.3219 5.14645C10.2366 5.05268 10.121 5 10.0005 5C9.87991 5 9.76429 5.05268 9.67904 5.14645C9.59379 5.24021 9.5459 5.36739 9.5459 5.5V6.5C9.5459 6.63261 9.59379 6.75979 9.67904 6.85355C9.76429 6.94732 9.87991 7 10.0005 7C10.121 7 10.2366 6.94732 10.3219 6.85355C10.4071 6.75979 10.455 6.63261 10.455 6.5Z" fill="white"/>
<path d="M12.5716 6.46441L11.9288 7.17141C11.8854 7.21754 11.8508 7.27271 11.8269 7.33371C11.8031 7.39471 11.7906 7.46032 11.7901 7.52671C11.7895 7.5931 11.801 7.65894 11.8239 7.72039C11.8467 7.78184 11.8805 7.83766 11.9232 7.88461C11.9659 7.93156 12.0166 7.96868 12.0725 7.99382C12.1283 8.01896 12.1882 8.03161 12.2486 8.03104C12.3089 8.03046 12.3686 8.01667 12.424 7.99046C12.4795 7.96426 12.5296 7.92617 12.5716 7.87841L13.2143 7.17141C13.2578 7.12529 13.2924 7.07012 13.3162 7.00911C13.34 6.94811 13.3526 6.8825 13.3531 6.81611C13.3536 6.74972 13.3421 6.68388 13.3193 6.62243C13.2964 6.56099 13.2627 6.50516 13.22 6.45821C13.1773 6.41127 13.1265 6.37414 13.0707 6.349C13.0148 6.32386 12.955 6.31121 12.8946 6.31179C12.8342 6.31236 12.7746 6.32616 12.7191 6.35236C12.6637 6.37857 12.6135 6.41666 12.5716 6.46441V6.46441Z" fill="white"/>
<path d="M7.75044 8.02507C7.84033 8.02505 7.9282 7.99572 8.00293 7.94078C8.07767 7.88583 8.13592 7.80775 8.17031 7.7164C8.20471 7.62505 8.21371 7.52454 8.19618 7.42756C8.17865 7.33058 8.13537 7.2415 8.07182 7.17157L7.42906 6.46457C7.34332 6.3735 7.2285 6.3231 7.10931 6.32424C6.99012 6.32538 6.87611 6.37796 6.79183 6.47067C6.70755 6.56337 6.65974 6.68878 6.65871 6.81987C6.65767 6.95097 6.70349 7.07727 6.78629 7.17157L7.42906 7.87857C7.47115 7.92516 7.52123 7.9621 7.5764 7.98725C7.63157 8.0124 7.69072 8.02525 7.75044 8.02507V8.02507Z" fill="white"/>
<path d="M5.45459 10C5.45459 10.1326 5.50248 10.2598 5.58773 10.3536C5.67298 10.4473 5.7886 10.5 5.90916 10.5H6.8183C6.93886 10.5 7.05448 10.4473 7.13973 10.3536C7.22498 10.2598 7.27287 10.1326 7.27287 10C7.27287 9.86739 7.22498 9.74021 7.13973 9.64645C7.05448 9.55268 6.93886 9.5 6.8183 9.5H5.90916C5.7886 9.5 5.67298 9.55268 5.58773 9.64645C5.50248 9.74021 5.45459 9.86739 5.45459 10V10Z" fill="white"/>
<path d="M12.7275 10C12.7275 10.1326 12.7754 10.2598 12.8607 10.3536C12.9459 10.4473 13.0615 10.5 13.1821 10.5H14.0912C14.2118 10.5 14.3274 10.4473 14.4127 10.3536C14.4979 10.2598 14.5458 10.1326 14.5458 10C14.5458 9.86739 14.4979 9.74021 14.4127 9.64645C14.3274 9.55268 14.2118 9.5 14.0912 9.5H13.1821C13.0615 9.5 12.9459 9.55268 12.8607 9.64645C12.7754 9.74021 12.7275 9.86739 12.7275 10Z" fill="white"/>
</svg>
