<?xml version="1.0" encoding="UTF-8"?>
<svg width="45px" height="13px" viewBox="0 0 45 13" version="1.1" xmlns="http://www.w3.org/2000/svg" xmlns:xlink="http://www.w3.org/1999/xlink">
    <title>Group 28</title>
    <defs>
        <rect id="path-1" x="0.2" y="0.4" width="44" height="12"></rect>
        <linearGradient x1="50%" y1="0%" x2="50%" y2="100%" id="linearGradient-3">
            <stop stop-color="#E02020" stop-opacity="0.448289991" offset="0%"></stop>
            <stop stop-color="#FF0000" stop-opacity="0" offset="100%"></stop>
        </linearGradient>
    </defs>
    <g id="Page-1" stroke="none" stroke-width="1" fill="none" fill-rule="evenodd">
        <g id="Desktop-/-Switch-Markets-/-Homepage" transform="translate(-1105.000000, -402.000000)">
            <g id="Currency-Cards" transform="translate(666.000000, 229.000000)">
                <g id="usdjpy" transform="translate(287.000000, 149.000000)">
                    <g id="Group-28" transform="translate(151.200000, 23.400000)">
                        <g transform="translate(0.800000, 0.600000)">
                            <mask id="mask-2" fill="white">
                                <use xlink:href="#path-1"></use>
                            </mask>
                            <g id="Mask"></g>
                            <path d="M0,7.47369003 C1.14453325,10.3054795 2.41246433,10.239923 3.80379326,7.27702072 C5.89078664,2.83266723 5.15747703,-1.18101135 6.00892562,5.1502495 C6.86037421,11.4815103 7.05213322,-2.58190183 7.86272462,4.44980426 C8.67331601,11.4815103 9.5793051,2.72034128 12.9906884,6.62143921 C16.4020717,10.5225371 16.9706035,-6.85716486 17.4799694,-0.644342942 C17.9893353,5.56847898 18.2416093,8.96551104 18.8959026,5.1502495 C19.5501959,1.33498795 20.3253264,10.1042372 21.7798041,7.27702072 C23.2342818,4.44980426 24.3832941,15.9951795 25.805009,10.5727145 C27.2267238,5.1502495 27.6925344,2.21372834 28.3932739,5.1502495 C29.0940134,8.08677065 31.3471337,2.85431735 31.6788094,7.47369003 C31.8999265,10.5532718 31.992626,11.7618582 31.9569081,11.0994493 L36.7560871,11.0994493 C39.2567275,9.51720718 41.0243795,9.65933389 42.0590431,11.5258294 C43.0937066,13.392325 44.5700905,13.5105941 46.4881946,11.8806368 C48.2994019,10.6030247 50.1481901,10.9474739 52.0345592,12.9139845 C54.8641129,15.8637505 55.6592865,15.3999284 56.3692767,13.4628789 C57.0792669,11.5258294 58.1509974,10.2107753 59.183798,13.4628789 C60.2165986,16.7149825 62.3400166,15.3395627 62.6695723,14.4012208 C62.999128,13.4628789 62.7212219,11.0439231 65.317774,13.4628789 L67.6973203,13.630731 L75.9691684,16.4714822 L81,16.4714822 L81,17" id="Path" stroke="#FF3F3F" mask="url(#mask-2)"></path>
                            <path d="M0,7.47369003 C1.14453325,10.3054795 2.41246433,10.239923 3.80379326,7.27702072 C5.89078664,2.83266723 5.15747703,-1.18101135 6.00892562,5.1502495 C6.86037421,11.4815103 7.05213322,-2.58190183 7.86272462,4.44980426 C8.67331601,11.4815103 9.5793051,2.72034128 12.9906884,6.62143921 C16.4020717,10.5225371 16.9706035,-6.85716486 17.4799694,-0.644342942 C17.9893353,5.56847898 18.2416093,8.96551104 18.8959026,5.1502495 C19.5501959,1.33498795 20.3253264,10.1042372 21.7798041,7.27702072 C23.2342818,4.44980426 24.3832941,15.9951795 25.805009,10.5727145 C27.2267238,5.1502495 27.6925344,2.21372834 28.3932739,5.1502495 C29.0940134,8.08677065 31.3471337,2.85431735 31.6788094,7.47369003 C31.8999265,10.5532718 31.992626,11.7618582 31.9569081,11.0994493 L36.7560871,11.0994493 C39.2567275,9.51720718 41.0243795,9.65933389 42.0590431,11.5258294 C43.0937066,13.392325 44.5700905,13.5105941 46.4881946,11.8806368 C48.2994019,10.6030247 50.1481901,10.9474739 52.0345592,12.9139845 C54.8641129,15.8637505 55.6592865,15.3999284 56.3692767,13.4628789 C57.0792669,11.5258294 58.1509974,10.2107753 59.183798,13.4628789 C60.2165986,16.7149825 62.3400166,15.3395627 62.6695723,14.4012208 C62.999128,13.4628789 62.7212219,11.0439231 65.317774,13.4628789 L67.6973203,13.630731 L75.9691684,16.4714822 L81,16.4714822 L81,17 L0,17 L0,7.47369003 Z" id="Path-3-Copy" fill="url(#linearGradient-3)" mask="url(#mask-2)"></path>
                        </g>
                    </g>
                </g>
            </g>
        </g>
    </g>
</svg>