<svg width="20" height="21" viewBox="0 0 20 21" fill="none" xmlns="http://www.w3.org/2000/svg">
<path d="M19.701 12.4206C18.3652 17.7784 12.9384 21.0388 7.57994 19.703C2.22402 18.3673 -1.03666 12.9404 0.299432 7.58291C1.63458 2.2245 7.06113 -1.03649 12.418 0.299282C17.7761 1.63506 21.0365 7.06254 19.7007 12.4206H19.701Z" fill="white"/>
<path d="M9.99883 17L8.46505 7.37147C7.00309 7.37147 6.54195 7.55041 6.47537 8.2808C6.47537 8.2808 5.49464 7.87263 5 7.04364C6.93024 6.04527 8.86968 6.00024 8.86968 6.00024L10.0014 7.53883L9.99883 7.53863L11.1305 6C11.1305 6 13.07 6.04507 15 7.04345C14.5058 7.87244 13.5247 8.28061 13.5247 8.28061C13.4577 7.55017 12.9971 7.37122 11.545 7.37007L9.99883 17Z" fill="#E82127"/>
<path d="M10 5.78021C8.29216 5.76619 6.33736 6.0638 4.33622 7C4.06876 6.48326 4 6.25489 4 6.25489C6.18754 5.3259 8.23613 5.00797 10.0002 5C11.7642 5.00797 13.8127 5.32595 16 6.25489C16 6.25489 15.9024 6.53619 15.664 7C13.6633 6.0638 11.7081 5.76619 10.0002 5.78021H10" fill="#E82127"/>
</svg>
