<svg xmlns="http://www.w3.org/2000/svg" width="159" height="42"><defs><linearGradient id="a" x1="110.316%" x2="-14.686%" y1="56.872%" y2="36.601%"><stop offset="0%" stop-color="#0AA4DD"/><stop offset="21.062%" stop-color="#0378AD"/><stop offset="46.709%" stop-color="#006194"/><stop offset="100%" stop-color="#00E792"/></linearGradient><linearGradient id="b" x1="50%" x2="50%" y1="0%" y2="100%"><stop offset="0%" stop-color="#00F198"/><stop offset="100%" stop-color="#00DA8A"/></linearGradient><linearGradient id="c" x1="50%" x2="50%" y1="0%" y2="100%"><stop offset="0%" stop-color="#007BEE"/><stop offset="100%" stop-color="#00AECA"/></linearGradient></defs><g fill="none" fill-rule="evenodd"><path fill="#FFF" fill-rule="nonzero" stroke="#FFF" stroke-width=".567" d="M103.26 29.009c2.104 0 3.834 1.043 4.747 2.709l.105.202v-2.46h1.242v11.354h-1.242v-2.438c-.88 1.76-2.663 2.89-4.853 2.89-3.408 0-5.869-2.574-5.869-6.118 0-3.566 2.46-6.14 5.87-6.14zm31.04 0c3.375 0 5.801 2.436 5.91 5.833l.004.239v.474h-10.722c.18 2.663 2.144 4.56 4.785 4.56 1.87 0 3.655-1.131 4.309-2.706l.07-.184 1.219.203c-.722 2.212-3.047 3.837-5.553 3.837-3.544 0-6.094-2.595-6.094-6.184 0-3.522 2.55-6.072 6.072-6.072zm9.843-2.145v2.619h3.047v1.06h-3.047v7.675c0 1.151.7 1.919 1.783 1.941.358 0 .825-.062 1.232-.162l.236-.063v1.083c-.452.158-1.13.248-1.693.248-1.633 0-2.72-1.112-2.795-2.83l-.004-.194v-7.698h-1.942v-1.06h1.987l.135-2.619h1.061zm9.161 2.145c2.617 0 4.57 1.602 4.57 3.814l-1.22-.022c0-1.535-1.42-2.619-3.35-2.619-1.663 0-2.972.948-2.972 2.28 0 1.163.995 1.58 2.743 1.869l.849.132.37.064c1.862.339 3.823.98 3.823 3.127 0 2.1-1.885 3.611-4.48 3.611-2.795 0-4.791-1.738-4.791-4.13h1.198c0 1.738 1.508 2.98 3.593 2.98 1.907 0 3.282-1.017 3.282-2.37 0-1.546-1.835-1.937-3.338-2.145l-.166-.023-.615-.096c-2.016-.336-3.666-.887-3.666-3.041 0-1.987 1.797-3.431 4.17-3.431zm-72.761-4.064l6.365 14.108 6.365-14.108h1.942v15.869h-1.332V26.661l-6.388 14.153h-1.151l-6.388-14.13v14.13h-1.332V24.945h1.919zm35.952 4.086c.465 0 .962.1 1.422.27l.226.091v1.197c-.587-.271-1.196-.407-1.716-.407-1.813 0-2.991 1.586-3.066 3.938l-.003.238v6.456h-1.264V29.46h1.218v1.783c.61-1.377 1.716-2.212 3.183-2.212zm4.546-4.763v9.977l5.44-4.785h1.738l-6.095 5.35 6.298 6.004h-1.715l-5.666-5.417v5.417h-1.264V24.268h1.264zm-17.669 5.914c-2.754 0-4.74 2.077-4.74 4.966 0 2.867 1.986 4.966 4.74 4.966 2.686 0 4.74-2.099 4.74-4.966 0-2.866-2.054-4.966-4.74-4.966zm30.882 0c-2.495 0-4.375 1.635-4.713 4.018l-.027.226h9.413c-.248-2.506-2.144-4.244-4.673-4.244z"/><path fill="#FFF" fill-rule="nonzero" d="M85.614.318c4.13 0 7.138 2.424 7.264 5.79l.005.22h-3.561c.024-1.703-1.513-2.92-3.61-2.92-1.927 0-3.195.9-3.195 2.166 0 1.39 1.26 1.772 2.992 2.035l.202.03.732.1.632.078c3.157.416 6.222 1.291 6.222 5.033 0 3.552-2.951 6.01-7.366 6.01-4.323 0-7.453-2.543-7.581-6.076l-.004-.226h3.683c0 1.873 1.683 3.212 4.024 3.212 2 0 3.244-.998 3.244-2.385 0-1.33-1.251-1.737-2.879-1.988l-.6-.084-.974-.126c-3.281-.448-6.328-1.28-6.328-5.15 0-3.383 2.903-5.72 7.098-5.72zm12.143 6.18l2.39 8.74 2.277-8.74h3.188l2.437 8.813 2.368-8.812h3.438l-3.552 12.361h-4.326l-1.959-8.136-1.958 8.136h-4.326L94.204 6.5h3.553zm21.438 0V18.86h-4.058V6.5h4.058zm6.855-3.708v3.136h2.745v2.772h-2.745v5.275c0 1.046.615 1.75 1.61 1.75.275 0 .683-.05 1.044-.137l.21-.057v2.942a8.374 8.374 0 01-2.438.39c-2.343 0-3.883-1.764-3.971-4.291l-.004-.232v-5.64h-1.704V5.926h1.87l.402-3.136h2.981zm11.502 2.472c3.293 0 6.06 1.988 6.572 4.779l.036.222-3.53.443c-.329-1.354-1.615-2.34-3.053-2.34-1.84 0-3.278 1.552-3.278 3.695s1.412 3.695 3.278 3.695c1.424 0 2.616-.901 3.026-2.165l.051-.175 3.531.444c-.479 2.906-3.304 5-6.633 5-4.06 0-7.037-2.857-7.037-6.799 0-3.941 2.951-6.799 7.037-6.799zm11.937-4.12v6.877c.839-1.194 2.344-1.863 3.874-1.863 2.834 0 4.71 1.945 4.808 4.711l.005.232v7.761h-3.702v-7.02c0-1.48-.889-2.508-2.37-2.531-1.375 0-2.524 1.037-2.61 2.497l-.005.177v6.877h-3.702V1.142h3.702zm-32.323.206c1.314 0 2.242.896 2.242 2.15 0 1.28-.928 2.176-2.242 2.176-1.315 0-2.243-.896-2.243-2.176 0-1.254.928-2.15 2.243-2.15z"/><path fill="url(#a)" d="M42.483 11.78l13.726.385a.386.386 0 01.346.533l-8.382 20.399a.799.799 0 01-.76.495l-32.763-.878a.4.4 0 01-.312-.634l7.278-10.028A24.92 24.92 0 0142.483 11.78z" transform="rotate(40 37.655 20.347)"/><path fill="url(#b)" d="M30.899 2.318h39.048a.799.799 0 01.627 1.293l-4.589 5.82a19.867 19.867 0 01-15.6 7.566H13.2a.4.4 0 01-.311-.65l7.133-8.833A13.98 13.98 0 0130.9 2.318z" transform="translate(-.845 -2)"/><path fill="url(#c)" d="M21.735 27.968h36.057a.4.4 0 01.32.64l-5.18 6.87a18.869 18.869 0 01-15.066 7.51H1.462a.4.4 0 01-.316-.644l5.302-6.866a19.315 19.315 0 0115.287-7.51z" transform="translate(-.845 -2)"/></g></svg>