<?xml version="1.0" encoding="UTF-8"?>
<svg width="419px" height="67px" viewBox="0 0 419 67" version="1.1" xmlns="http://www.w3.org/2000/svg" xmlns:xlink="http://www.w3.org/1999/xlink">
    <title>toast-success</title>
    <g id="Page-1" stroke="none" stroke-width="1" fill="none" fill-rule="evenodd">
        <g id="Desktop-/-Switch-Markets-/-Homepage" transform="translate(-696.000000, -4890.000000)">
            <g id="toast-success" transform="translate(696.000000, 4890.000000)">
                <rect id="toast-bg" fill="#1991FF" x="0" y="0" width="419" height="67" rx="12"></rect>
                <path d="M395.942733,33 L398.804733,30.138 C399.0654,29.8773333 399.0654,29.456 398.804733,29.1953333 C398.544067,28.9346667 398.122733,28.9346667 397.862067,29.1953333 L395.000067,32.0573333 L392.138067,29.1953333 C391.8774,28.9346667 391.456067,28.9346667 391.1954,29.1953333 C390.934733,29.456 390.934733,29.8773333 391.1954,30.138 L394.0574,33 L391.1954,35.862 C390.934733,36.1226667 390.934733,36.544 391.1954,36.8046667 C391.3254,36.9346667 391.496067,37 391.666733,37 C391.8374,37 392.008067,36.9346667 392.138067,36.8046667 L395.000067,33.9426667 L397.862067,36.8046667 C397.992067,36.9346667 398.162733,37 398.3334,37 C398.504067,37 398.674733,36.9346667 398.804733,36.8046667 C399.0654,36.544 399.0654,36.1226667 398.804733,35.862 L395.942733,33 Z" id="icon-/-close" fill="#FFFFFF"></path>
                <path d="M71.6875,38 L71.6875,34.3154297 L75.1259766,28.1357422 L72.890625,28.1357422 L70.6826172,32.3466797 L70.6347656,32.3466797 L68.4199219,28.1357422 L66.1914062,28.1357422 L69.6230469,34.3154297 L69.6230469,38 L71.6875,38 Z M77.9193359,38.1503906 C80.1341797,38.1503906 81.5492187,36.7285156 81.5492187,34.3359375 L81.5492187,34.3222656 C81.5492187,31.9501953 80.1068359,30.5214844 77.9125,30.5214844 C75.725,30.5214844 74.2894531,31.9638672 74.2894531,34.3222656 L74.2894531,34.3359375 C74.2894531,36.7216797 75.6908203,38.1503906 77.9193359,38.1503906 Z M77.9261719,36.5849609 C76.9417969,36.5849609 76.3197266,35.7714844 76.3197266,34.3359375 L76.3197266,34.3222656 C76.3197266,32.9072266 76.9486328,32.0869141 77.9125,32.0869141 C78.8832031,32.0869141 79.5189453,32.9072266 79.5189453,34.3222656 L79.5189453,34.3359375 C79.5189453,35.7646484 78.896875,36.5849609 77.9261719,36.5849609 Z M85.1697266,38.1503906 C86.2771484,38.1503906 87.0291016,37.6308594 87.4050781,36.7900391 L87.4460938,36.7900391 L87.4460938,38 L89.4421875,38 L89.4421875,30.671875 L87.4460938,30.671875 L87.4460938,34.8828125 C87.4460938,35.8398438 86.8787109,36.4960938 85.9832031,36.4960938 C85.0876953,36.4960938 84.6365234,35.9423828 84.6365234,34.9853516 L84.6365234,30.671875 L82.6404297,30.671875 L82.6404297,35.4023438 C82.6404297,37.1181641 83.5564453,38.1503906 85.1697266,38.1503906 Z M92.8371094,38 L92.8371094,33.8984375 C92.8371094,32.8320312 93.4113281,32.2441406 94.3957031,32.2441406 C94.6828125,32.2441406 94.95625,32.2851562 95.1203125,32.3535156 L95.1203125,30.5966797 C94.9699219,30.5556641 94.7648437,30.5214844 94.5460937,30.5214844 C93.6916016,30.5214844 93.096875,31.0478516 92.878125,31.9501953 L92.8371094,31.9501953 L92.8371094,30.671875 L90.8410156,30.671875 L90.8410156,38 L92.8371094,38 Z M103.120117,38.9912109 L103.120117,37.8496094 C105.102539,37.7402344 106.503906,36.7216797 106.503906,34.9921875 L106.503906,34.9785156 C106.503906,33.4951172 105.560547,32.7158203 103.660156,32.3125 L103.120117,32.203125 L103.120117,29.8310547 C103.933594,29.9267578 104.432617,30.3369141 104.535156,31.0136719 L104.548828,31.0751953 L106.374023,31.0751953 L106.360352,30.9589844 C106.223633,29.3798828 105.013672,28.4091797 103.120117,28.2929688 L103.120117,27.1445312 L102.436523,27.1445312 L102.436523,28.2861328 C100.488281,28.3818359 99.1689453,29.4550781 99.1689453,31.0546875 L99.1689453,31.0683594 C99.1689453,32.5175781 100.098633,33.3652344 101.923828,33.7480469 L102.436523,33.8574219 L102.436523,36.3046875 C101.445312,36.2158203 100.980469,35.7646484 100.864258,35.1357422 L100.850586,35.0605469 L99.0253906,35.0605469 L99.0322266,35.1630859 C99.1416016,36.7763672 100.474609,37.7470703 102.436523,37.8496094 L102.436523,38.9912109 L103.120117,38.9912109 Z M102.436523,32.0595703 C101.452148,31.8408203 101.076172,31.4716797 101.076172,30.9179688 L101.076172,30.9042969 C101.076172,30.3574219 101.53418,29.90625 102.436523,29.8242188 L102.436523,32.0595703 Z M103.120117,36.3183594 L103.120117,34.0009766 C104.254883,34.2470703 104.59668,34.5820312 104.59668,35.1699219 L104.59668,35.1835938 C104.59668,35.7988281 104.145508,36.2431641 103.120117,36.3183594 Z M111.894922,38.1708984 C114.150781,38.1708984 115.709375,36.7695312 115.709375,34.7050781 L115.709375,34.6914062 C115.709375,32.8320312 114.355859,31.4853516 112.482812,31.4853516 C111.484766,31.4853516 110.671289,31.8886719 110.261133,32.5517578 L110.220117,32.5517578 L110.459375,29.7763672 L115.114648,29.7763672 L115.114648,28.1357422 L108.81875,28.1357422 L108.367578,33.9257812 L110.16543,33.9257812 C110.281641,33.7207031 110.438867,33.5292969 110.637109,33.3789062 C110.97207,33.1123047 111.402734,32.9619141 111.908594,32.9619141 C112.975,32.9619141 113.733789,33.6933594 113.740625,34.7324219 L113.740625,34.7460938 C113.740625,35.7988281 112.981836,36.5371094 111.901758,36.5371094 C110.951562,36.5371094 110.261133,35.9628906 110.117578,35.2177734 L110.103906,35.1699219 L108.19668,35.1699219 L108.203516,35.2724609 C108.326562,36.9199219 109.748437,38.1708984 111.894922,38.1708984 Z M117.839648,40.0576172 L118.844531,36.2773438 L116.957813,36.2773438 L116.458789,40.0576172 L117.839648,40.0576172 Z M124.050977,38.1708984 C126.55293,38.1708984 128.070508,36.2089844 128.070508,33.0712891 L128.070508,33.0576172 C128.070508,29.9199219 126.55293,27.9648438 124.050977,27.9648438 C121.549023,27.9648438 120.031445,29.9199219 120.031445,33.0576172 L120.031445,33.0712891 C120.031445,36.2089844 121.549023,38.1708984 124.050977,38.1708984 Z M124.050977,36.5166016 C122.820508,36.5166016 122.116406,35.2382812 122.116406,33.0712891 L122.116406,33.0576172 C122.116406,30.890625 122.820508,29.6191406 124.050977,29.6191406 C125.281445,29.6191406 125.985547,30.890625 125.985547,33.0576172 L125.985547,33.0712891 C125.985547,35.2382812 125.281445,36.5166016 124.050977,36.5166016 Z M133.331641,38.1708984 C135.833594,38.1708984 137.351172,36.2089844 137.351172,33.0712891 L137.351172,33.0576172 C137.351172,29.9199219 135.833594,27.9648438 133.331641,27.9648438 C130.829688,27.9648438 129.312109,29.9199219 129.312109,33.0576172 L129.312109,33.0712891 C129.312109,36.2089844 130.829688,38.1708984 133.331641,38.1708984 Z M133.331641,36.5166016 C132.101172,36.5166016 131.39707,35.2382812 131.39707,33.0712891 L131.39707,33.0576172 C131.39707,30.890625 132.101172,29.6191406 133.331641,29.6191406 C134.562109,29.6191406 135.266211,30.890625 135.266211,33.0576172 L135.266211,33.0712891 C135.266211,35.2382812 134.562109,36.5166016 133.331641,36.5166016 Z M142.612305,38.1708984 C145.114258,38.1708984 146.631836,36.2089844 146.631836,33.0712891 L146.631836,33.0576172 C146.631836,29.9199219 145.114258,27.9648438 142.612305,27.9648438 C140.110352,27.9648438 138.592773,29.9199219 138.592773,33.0576172 L138.592773,33.0712891 C138.592773,36.2089844 140.110352,38.1708984 142.612305,38.1708984 Z M142.612305,36.5166016 C141.381836,36.5166016 140.677734,35.2382812 140.677734,33.0712891 L140.677734,33.0576172 C140.677734,30.890625 141.381836,29.6191406 142.612305,29.6191406 C143.842773,29.6191406 144.546875,30.890625 144.546875,33.0576172 L144.546875,33.0712891 C144.546875,35.2382812 143.842773,36.5166016 142.612305,36.5166016 Z M154.166797,38.1503906 C156.121875,38.1503906 157.386523,36.9335938 157.482227,35.3339844 L157.482227,35.2929688 L155.622852,35.2929688 L155.616016,35.3544922 C155.479297,36.0927734 154.980273,36.5849609 154.180469,36.5849609 C153.196094,36.5849609 152.580859,35.7714844 152.580859,34.3359375 L152.580859,34.3291016 C152.580859,32.9277344 153.196094,32.0869141 154.173633,32.0869141 C155.000781,32.0869141 155.486133,32.6201172 155.60918,33.3173828 L155.622852,33.3789062 L157.475391,33.3789062 L157.475391,33.3310547 C157.400195,31.7451172 156.135547,30.5214844 154.146289,30.5214844 C151.951953,30.5214844 150.550586,31.9775391 150.550586,34.3222656 L150.550586,34.3291016 C150.550586,36.6943359 151.931445,38.1503906 154.166797,38.1503906 Z M160.542187,38 L160.542187,33.8984375 C160.542187,32.8320312 161.116406,32.2441406 162.100781,32.2441406 C162.387891,32.2441406 162.661328,32.2851562 162.825391,32.3535156 L162.825391,30.5966797 C162.675,30.5556641 162.469922,30.5214844 162.251172,30.5214844 C161.39668,30.5214844 160.801953,31.0478516 160.583203,31.9501953 L160.542187,31.9501953 L160.542187,30.671875 L158.546094,30.671875 L158.546094,38 L160.542187,38 Z M166.835547,38.1503906 C168.927344,38.1503906 169.939062,36.9130859 170.164648,35.8330078 L170.185156,35.7578125 L168.353125,35.7578125 L168.339453,35.7988281 C168.195898,36.2089844 167.696875,36.6601562 166.876562,36.6601562 C165.858008,36.6601562 165.222266,35.9765625 165.201758,34.8076172 L170.24668,34.8076172 L170.24668,34.1923828 C170.24668,31.9775391 168.9,30.5214844 166.753516,30.5214844 C164.607031,30.5214844 163.233008,32.0117188 163.233008,34.3427734 L163.233008,34.3496094 C163.233008,36.6943359 164.593359,38.1503906 166.835547,38.1503906 Z M168.332617,33.5498047 L165.222266,33.5498047 C165.352148,32.5585938 165.967383,32.0117188 166.787695,32.0117188 C167.614844,32.0117188 168.20957,32.5380859 168.332617,33.5498047 Z M174.085937,38.1503906 C175.145508,38.1503906 175.952148,37.6171875 176.341797,36.7490234 L176.382812,36.7490234 L176.382812,38 L178.378906,38 L178.378906,28.1357422 L176.382812,28.1357422 L176.382812,31.9433594 L176.341797,31.9433594 C175.945312,31.0546875 175.125,30.5214844 174.085937,30.5214844 C172.240234,30.5214844 171.105469,31.9433594 171.105469,34.3291016 L171.105469,34.3359375 C171.105469,36.7148438 172.240234,38.1503906 174.085937,38.1503906 Z M174.755859,36.4960938 C173.757812,36.4960938 173.135742,35.6689453 173.135742,34.3359375 L173.135742,34.3291016 C173.135742,32.9892578 173.764648,32.1757812 174.755859,32.1757812 C175.719727,32.1757812 176.389648,33.0097656 176.389648,34.3291016 L176.389648,34.3359375 C176.389648,35.6621094 175.726562,36.4960938 174.755859,36.4960938 Z M180.850977,29.7285156 C181.452539,29.7285156 181.917383,29.2568359 181.917383,28.6894531 C181.917383,28.1220703 181.452539,27.6503906 180.850977,27.6503906 C180.249414,27.6503906 179.78457,28.1220703 179.78457,28.6894531 C179.78457,29.2568359 180.249414,29.7285156 180.850977,29.7285156 Z M181.849023,38 L181.849023,30.671875 L179.85293,30.671875 L179.85293,38 L181.849023,38 Z M186.194141,38.1503906 C186.611133,38.1503906 186.932422,38.109375 187.158008,38.0751953 L187.158008,36.6123047 C187.034961,36.6259766 186.905078,36.6464844 186.727344,36.6464844 C186.125781,36.6464844 185.818164,36.4140625 185.818164,35.7304688 L185.818164,32.1757812 L187.158008,32.1757812 L187.158008,30.671875 L185.818164,30.671875 L185.818164,28.8808594 L183.801562,28.8808594 L183.801562,30.671875 L182.783008,30.671875 L182.783008,32.1757812 L183.801562,32.1757812 L183.801562,35.9492188 C183.801562,37.5214844 184.567187,38.1503906 186.194141,38.1503906 Z M195.567969,38.1503906 C197.413672,38.1503906 198.555273,36.7148438 198.555273,34.3359375 L198.555273,34.3291016 C198.555273,31.9433594 197.413672,30.5214844 195.574805,30.5214844 C194.528906,30.5214844 193.71543,31.0546875 193.312109,31.9433594 L193.271094,31.9433594 L193.271094,28.1357422 L191.275,28.1357422 L191.275,38 L193.271094,38 L193.271094,36.7490234 L193.312109,36.7490234 C193.708594,37.6171875 194.515234,38.1503906 195.567969,38.1503906 Z M194.904883,36.4960938 C193.93418,36.4960938 193.271094,35.6621094 193.271094,34.3359375 L193.271094,34.3291016 C193.271094,33.0097656 193.941016,32.1757812 194.904883,32.1757812 C195.896094,32.1757812 196.525,32.9892578 196.525,34.3291016 L196.525,34.3359375 C196.525,35.6689453 195.896094,36.4960938 194.904883,36.4960938 Z M203.043945,38.1503906 C205.258789,38.1503906 206.673828,36.7285156 206.673828,34.3359375 L206.673828,34.3222656 C206.673828,31.9501953 205.231445,30.5214844 203.037109,30.5214844 C200.849609,30.5214844 199.414062,31.9638672 199.414062,34.3222656 L199.414062,34.3359375 C199.414062,36.7216797 200.81543,38.1503906 203.043945,38.1503906 Z M203.050781,36.5849609 C202.066406,36.5849609 201.444336,35.7714844 201.444336,34.3359375 L201.444336,34.3222656 C201.444336,32.9072266 202.073242,32.0869141 203.037109,32.0869141 C204.007812,32.0869141 204.643555,32.9072266 204.643555,34.3222656 L204.643555,34.3359375 C204.643555,35.7646484 204.021484,36.5849609 203.050781,36.5849609 Z M209.795312,38 L209.795312,33.7890625 C209.795312,32.8320312 210.362695,32.1757812 211.258203,32.1757812 C212.153711,32.1757812 212.604883,32.7226562 212.604883,33.6796875 L212.604883,38 L214.600977,38 L214.600977,33.2695312 C214.600977,31.5537109 213.684961,30.5214844 212.07168,30.5214844 C210.964258,30.5214844 210.212305,31.0341797 209.836328,31.875 L209.795312,31.875 L209.795312,30.671875 L207.799219,30.671875 L207.799219,38 L209.795312,38 Z M218.460742,38.1503906 C219.568164,38.1503906 220.320117,37.6308594 220.696094,36.7900391 L220.737109,36.7900391 L220.737109,38 L222.733203,38 L222.733203,30.671875 L220.737109,30.671875 L220.737109,34.8828125 C220.737109,35.8398438 220.169727,36.4960938 219.274219,36.4960938 C218.378711,36.4960938 217.927539,35.9423828 217.927539,34.9853516 L217.927539,30.671875 L215.931445,30.671875 L215.931445,35.4023438 C215.931445,37.1181641 216.847461,38.1503906 218.460742,38.1503906 Z M227.14668,38.1503906 C229.033398,38.1503906 230.352734,37.2070312 230.352734,35.7714844 L230.352734,35.7646484 C230.352734,34.6845703 229.723828,34.0830078 228.192578,33.7617188 L226.948437,33.4951172 C226.210156,33.3378906 225.957227,33.0917969 225.957227,32.7158203 L225.957227,32.7089844 C225.957227,32.2373047 226.387891,31.9296875 227.07832,31.9296875 C227.816602,31.9296875 228.247266,32.3261719 228.315625,32.8525391 L228.322461,32.9072266 L230.161328,32.9072266 L230.161328,32.8388672 C230.113477,31.5537109 229.026562,30.5214844 227.07832,30.5214844 C225.212109,30.5214844 224.008984,31.4238281 224.008984,32.8183594 L224.008984,32.8251953 C224.008984,33.9189453 224.726758,34.6298828 226.148633,34.9306641 L227.392773,35.1904297 C228.110547,35.3476562 228.356641,35.5732422 228.356641,35.9628906 L228.356641,35.9697266 C228.356641,36.4414062 227.898633,36.7353516 227.14668,36.7353516 C226.346875,36.7353516 225.916211,36.4003906 225.786328,35.8261719 L225.772656,35.7646484 L223.824414,35.7646484 L223.83125,35.8261719 C223.988477,37.2138672 225.116406,38.1503906 227.14668,38.1503906 Z M237.046875,38 L238.646484,32.4970703 L238.673828,32.4970703 L240.280273,38 L241.490234,38 L243.472656,30.890625 L242.296875,30.890625 L240.875,36.6738281 L240.847656,36.6738281 L239.234375,30.890625 L238.085937,30.890625 L236.479492,36.6738281 L236.452148,36.6738281 L235.030273,30.890625 L233.847656,30.890625 L235.836914,38 L237.046875,38 Z M246.484766,38.1367188 C247.434961,38.1367188 248.289453,37.6240234 248.706445,36.8447266 L248.733789,36.8447266 L248.733789,38 L249.923242,38 L249.923242,33.0849609 C249.923242,31.6630859 248.870508,30.7539062 247.188867,30.7539062 C245.514062,30.7539062 244.495508,31.6972656 244.392969,32.8662109 L244.386133,32.9414062 L245.53457,32.9414062 L245.548242,32.8798828 C245.684961,32.2441406 246.25918,31.8066406 247.175195,31.8066406 C248.166406,31.8066406 248.733789,32.3330078 248.733789,33.2011719 L248.733789,33.7958984 L246.69668,33.9121094 C245.062891,34.0078125 244.119531,34.7666016 244.119531,35.9765625 L244.119531,35.9902344 C244.119531,37.2822266 245.069727,38.1367188 246.484766,38.1367188 Z M246.751367,37.1044922 C245.896875,37.1044922 245.336328,36.6738281 245.336328,35.9902344 L245.336328,35.9765625 C245.336328,35.3134766 245.883203,34.8896484 246.833398,34.8349609 L248.733789,34.71875 L248.733789,35.2998047 C248.733789,36.3320312 247.872461,37.1044922 246.751367,37.1044922 Z M254.056445,38.1367188 C255.642383,38.1367188 256.818164,37.2617188 256.818164,36.0175781 L256.818164,36.0107422 C256.818164,34.9990234 256.298633,34.4316406 254.863086,34.0830078 L253.735156,33.8095703 C252.949023,33.6181641 252.627734,33.2832031 252.627734,32.7978516 L252.627734,32.7910156 C252.627734,32.1621094 253.160937,31.7451172 254.022266,31.7451172 C254.904102,31.7451172 255.430469,32.203125 255.526172,32.8935547 L255.533008,32.9414062 L256.667773,32.9414062 L256.660937,32.8525391 C256.57207,31.6630859 255.580859,30.7539062 254.022266,30.7539062 C252.48418,30.7539062 251.410937,31.6220703 251.410937,32.8457031 L251.410937,32.8525391 C251.410937,33.8779297 252.060352,34.5 253.400195,34.8212891 L254.528125,35.0947266 C255.334766,35.2929688 255.601367,35.5800781 255.601367,36.0927734 L255.601367,36.0996094 C255.601367,36.7421875 255.027148,37.1455078 254.063281,37.1455078 C253.092578,37.1455078 252.566211,36.7285156 252.422656,36.0175781 L252.408984,35.9492188 L251.219531,35.9492188 L251.226367,36.0107422 C251.369922,37.2822266 252.381641,38.1367188 254.056445,38.1367188 Z M263.197852,38.1367188 C264.148047,38.1367188 265.002539,37.6240234 265.419531,36.8447266 L265.446875,36.8447266 L265.446875,38 L266.636328,38 L266.636328,33.0849609 C266.636328,31.6630859 265.583594,30.7539062 263.901953,30.7539062 C262.227148,30.7539062 261.208594,31.6972656 261.106055,32.8662109 L261.099219,32.9414062 L262.247656,32.9414062 L262.261328,32.8798828 C262.398047,32.2441406 262.972266,31.8066406 263.888281,31.8066406 C264.879492,31.8066406 265.446875,32.3330078 265.446875,33.2011719 L265.446875,33.7958984 L263.409766,33.9121094 C261.775977,34.0078125 260.832617,34.7666016 260.832617,35.9765625 L260.832617,35.9902344 C260.832617,37.2822266 261.782812,38.1367188 263.197852,38.1367188 Z M263.464453,37.1044922 C262.609961,37.1044922 262.049414,36.6738281 262.049414,35.9902344 L262.049414,35.9765625 C262.049414,35.3134766 262.596289,34.8896484 263.546484,34.8349609 L265.446875,34.71875 L265.446875,35.2998047 C265.446875,36.3320312 264.585547,37.1044922 263.464453,37.1044922 Z M269.436523,40.3925781 L269.436523,36.8105469 L269.463867,36.8105469 C269.908203,37.6308594 270.735352,38.1367188 271.740234,38.1367188 C273.524414,38.1367188 274.741211,36.6943359 274.741211,34.4521484 L274.741211,34.4453125 C274.741211,32.203125 273.538086,30.7539062 271.719727,30.7539062 C270.701172,30.7539062 269.908203,31.2666016 269.463867,32.09375 L269.436523,32.09375 L269.436523,30.890625 L268.24707,30.890625 L268.24707,40.3925781 L269.436523,40.3925781 Z M271.487305,37.0839844 C270.291016,37.0839844 269.429687,36.0380859 269.429687,34.4521484 L269.429687,34.4453125 C269.429687,32.8525391 270.28418,31.8066406 271.487305,31.8066406 C272.745117,31.8066406 273.524414,32.8115234 273.524414,34.4453125 L273.524414,34.4521484 C273.524414,36.0722656 272.745117,37.0839844 271.487305,37.0839844 Z M277.226953,40.3925781 L277.226953,36.8105469 L277.254297,36.8105469 C277.698633,37.6308594 278.525781,38.1367188 279.530664,38.1367188 C281.314844,38.1367188 282.531641,36.6943359 282.531641,34.4521484 L282.531641,34.4453125 C282.531641,32.203125 281.328516,30.7539062 279.510156,30.7539062 C278.491602,30.7539062 277.698633,31.2666016 277.254297,32.09375 L277.226953,32.09375 L277.226953,30.890625 L276.0375,30.890625 L276.0375,40.3925781 L277.226953,40.3925781 Z M279.277734,37.0839844 C278.081445,37.0839844 277.220117,36.0380859 277.220117,34.4521484 L277.220117,34.4453125 C277.220117,32.8525391 278.074609,31.8066406 279.277734,31.8066406 C280.535547,31.8066406 281.314844,32.8115234 281.314844,34.4453125 L281.314844,34.4521484 C281.314844,36.0722656 280.535547,37.0839844 279.277734,37.0839844 Z M285.078906,38 L285.078906,28.1357422 L283.889453,28.1357422 L283.889453,38 L285.078906,38 Z M287.455273,29.6875 C287.872266,29.6875 288.200391,29.3525391 288.200391,28.9423828 C288.200391,28.5253906 287.872266,28.1972656 287.455273,28.1972656 C287.045117,28.1972656 286.710156,28.5253906 286.710156,28.9423828 C286.710156,29.3525391 287.045117,29.6875 287.455273,29.6875 Z M288.05,38 L288.05,30.890625 L286.860547,30.890625 L286.860547,38 L288.05,38 Z M292.695898,38.1367188 C294.247656,38.1367188 295.409766,37.2070312 295.642187,36.03125 L295.655859,35.9628906 L294.486914,35.9628906 L294.466406,36.0244141 C294.261328,36.6328125 293.625586,37.0839844 292.723242,37.0839844 C291.458594,37.0839844 290.651953,36.2294922 290.624609,34.7666016 L295.744727,34.7666016 L295.744727,34.3291016 C295.744727,32.1962891 294.562109,30.7539062 292.620703,30.7539062 C290.679297,30.7539062 289.421484,32.2646484 289.421484,34.4658203 L289.421484,34.4726562 C289.421484,36.7080078 290.651953,38.1367188 292.695898,38.1367188 Z M294.534766,33.8369141 L290.645117,33.8369141 C290.775,32.5107422 291.581641,31.8066406 292.613867,31.8066406 C293.65293,31.8066406 294.418555,32.4560547 294.534766,33.8369141 Z M299.713867,38.1367188 C300.732422,38.1367188 301.525391,37.6240234 301.969727,36.796875 L301.99707,36.796875 L301.99707,38 L303.186523,38 L303.186523,28.1357422 L301.99707,28.1357422 L301.99707,32.0800781 L301.969727,32.0800781 C301.525391,31.2597656 300.698242,30.7539062 299.693359,30.7539062 C297.90918,30.7539062 296.692383,32.1962891 296.692383,34.4384766 L296.692383,34.4453125 C296.692383,36.6875 297.895508,38.1367188 299.713867,38.1367188 Z M299.946289,37.0839844 C298.688477,37.0839844 297.90918,36.0791016 297.90918,34.4453125 L297.90918,34.4384766 C297.90918,32.8183594 298.688477,31.8066406 299.946289,31.8066406 C301.142578,31.8066406 302.003906,32.8525391 302.003906,34.4384766 L302.003906,34.4453125 C302.003906,36.0380859 301.149414,37.0839844 299.946289,37.0839844 Z M305.624414,38.0957031 C306.061914,38.0957031 306.403711,37.7539062 306.403711,37.3164062 C306.403711,36.8789062 306.061914,36.5371094 305.624414,36.5371094 C305.186914,36.5371094 304.845117,36.8789062 304.845117,37.3164062 C304.845117,37.7539062 305.186914,38.0957031 305.624414,38.0957031 Z" id="Your$5,000creditbonuswasapplied." fill="#FFFFFF" fill-rule="nonzero"></path>
                <g id="toast-icon" transform="translate(20.000000, 16.000000)" fill="#FFFFFF">
                    <circle id="bg" opacity="0.25" cx="17" cy="17" r="17"></circle>
                    <path d="M14.36568,14.03424 C14.18728,13.85664 13.94168,13.77424 13.68408,13.80864 C13.43448,13.84464 13.21608,13.99744 13.09608,14.21984 L9.20328,21.41984 C9.18408,21.45424 9.16888,21.49024 9.15528,21.52624 C8.81368,22.46304 9.04968,23.52384 9.75448,24.22864 C10.24568,24.71984 10.90808,24.98304 11.58008,24.98304 C11.87528,24.98304 12.17208,24.93184 12.45688,24.82784 C12.49288,24.81504 12.52808,24.79904 12.56248,24.78144 L19.77928,20.90464 C20.00168,20.78544 20.15448,20.56704 20.19128,20.31664 C20.22808,20.06624 20.14488,19.81344 19.96568,19.63424 L14.36568,14.03424 Z M11.86328,23.34064 C11.52008,23.44704 11.14168,23.35344 10.88568,23.09744 C10.63048,22.84224 10.53848,22.46384 10.64328,22.12144 L13.99288,15.92464 L18.07368,20.00464 L11.86328,23.34064 Z M21,12.2 C21.4416,12.2 21.8,12.5584 21.8,13 C21.8,13.4424 22.1576,13.8 22.6,13.8 C23.0424,13.8 23.4,13.4424 23.4,13 C23.4,12.5584 23.7584,12.2 24.2,12.2 C24.6424,12.2 25,11.8424 25,11.4 C25,10.9576 24.6424,10.6 24.2,10.6 C23.7584,10.6 23.4,10.2416 23.4,9.8 C23.4,9.3576 23.0424,9 22.6,9 C22.1576,9 21.8,9.3576 21.8,9.8 C21.8,10.2416 21.4416,10.6 21,10.6 C20.5576,10.6 20.2,10.9576 20.2,11.4 C20.2,11.8424 20.5576,12.2 21,12.2 M9.8,12.2 C10.2416,12.2 10.6,12.5584 10.6,13 C10.6,13.4424 10.9576,13.8 11.4,13.8 C11.8424,13.8 12.2,13.4424 12.2,13 C12.2,12.5584 12.5584,12.2 13,12.2 C13.4424,12.2 13.8,11.8424 13.8,11.4 C13.8,10.9576 13.4424,10.6 13,10.6 C12.5584,10.6 12.2,10.2416 12.2,9.8 C12.2,9.3576 11.8424,9 11.4,9 C10.9576,9 10.6,9.3576 10.6,9.8 C10.6,10.2416 10.2416,10.6 9.8,10.6 C9.3576,10.6 9,10.9576 9,11.4 C9,11.8424 9.3576,12.2 9.8,12.2 M24.2,21.8 C23.7584,21.8 23.4,21.4416 23.4,21 C23.4,20.5576 23.0424,20.2 22.6,20.2 C22.1576,20.2 21.8,20.5576 21.8,21 C21.8,21.4416 21.4416,21.8 21,21.8 C20.5576,21.8 20.2,22.1576 20.2,22.6 C20.2,23.0424 20.5576,23.4 21,23.4 C21.4416,23.4 21.8,23.7584 21.8,24.2 C21.8,24.6424 22.1576,25 22.6,25 C23.0424,25 23.4,24.6424 23.4,24.2 C23.4,23.7584 23.7584,23.4 24.2,23.4 C24.6424,23.4 25,23.0424 25,22.6 C25,22.1576 24.6424,21.8 24.2,21.8 M18.6,16.2 C18.8048,16.2 19.0096,16.1216 19.1656,15.9656 L19.9656,15.1656 C20.2784,14.8528 20.2784,14.3472 19.9656,14.0344 C19.6528,13.7216 19.1472,13.7216 18.8344,14.0344 L18.0344,14.8344 C17.7216,15.1472 17.7216,15.6528 18.0344,15.9656 C18.1904,16.1216 18.3952,16.2 18.6,16.2 M23.94688,16.24144 L21.54688,17.04144 C21.12848,17.18064 20.90128,17.63344 21.04128,18.05344 C21.15328,18.38864 21.46448,18.59984 21.79968,18.59984 C21.88368,18.59984 21.96848,18.58704 22.05328,18.55824 L24.45328,17.75824 C24.87168,17.61984 25.09808,17.16624 24.95888,16.74704 C24.81888,16.32784 24.37008,16.10144 23.94688,16.24144 M15.94688,12.95856 C16.03088,12.98656 16.11648,13.00016 16.19968,13.00016 C16.53488,13.00016 16.84688,12.78816 16.95888,12.45296 L17.75888,10.05296 C17.89808,9.63376 17.67168,9.18016 17.25328,9.04176 C16.83008,8.90096 16.38128,9.12816 16.24128,9.54656 L15.44128,11.94656 C15.30128,12.36656 15.52848,12.81936 15.94688,12.95856" id="Icon"></path>
                </g>
            </g>
        </g>
    </g>
</svg>