<?xml version="1.0" encoding="utf-8"?>
<!-- Generator: Adobe Illustrator 15.0.0, SVG Export Plug-In . SVG Version: 6.00 Build 0)  -->
<!DOCTYPE svg PUBLIC "-//W3C//DTD SVG 1.1//EN" "http://www.w3.org/Graphics/SVG/1.1/DTD/svg11.dtd">
<svg version="1.1" id="Layer_1" xmlns="http://www.w3.org/2000/svg" xmlns:xlink="http://www.w3.org/1999/xlink" x="0px" y="0px"
	 width="371px" height="552px" viewBox="97.5 -61.5 371 552" enable-background="new 97.5 -61.5 371 552" xml:space="preserve">
<g>
	<path fill="#922BA0" d="M204.713,228.373c5.639,0,10.957-3.427,13.096-9.007c2.773-7.231-0.842-15.341-8.074-18.113
		c-122.09-49.301-89.3-228.335,42.66-230.53c58.032,0,107.406,41.414,117.399,98.475c1.336,7.627,8.604,12.729,16.231,11.394
		c7.627-1.334,12.729-8.603,11.394-16.23c-5.902-33.704-23.597-64.519-49.826-86.768C253.065-103.204,104.732-34.58,105.156,89.917
		c-0.707,59.852,38.568,116.729,94.54,137.522C201.348,228.072,203.044,228.373,204.713,228.373L204.713,228.373z"/>
	<path fill="#27DDA6" d="M464.137,120.766v62.401c-0.74,18.605-27.312,18.591-28.046,0v-27.702l-44.628,44.628
		c-2.629,2.63-6.196,4.107-9.915,4.107h-70.761l-93.351,93.352c-5.476,5.477-14.355,5.477-19.831,0
		c-5.477-5.477-5.477-14.355,0-19.831l97.458-97.458c2.629-2.63,6.196-4.106,9.916-4.106h70.759l41.368-41.366h-30.095
		c-18.605-0.742-18.592-27.313,0-28.046h63.102C457.858,106.744,464.137,113.021,464.137,120.766z"/>
	<path fill="#922BA0" d="M293.396,76.304c9.484-5.346,14.611-16.05,12.842-26.786c-2.165-16.355-21.429-22.663-36.914-24.092V2.571
		c0-4.094-3.526-7.414-7.876-7.414h-1.051c-4.35,0-7.876,3.319-7.876,7.414v22.576h-8.154V2.571c0-4.094-3.526-7.414-7.877-7.414
		h-1.05c-3.564,0-6.573,2.23-7.544,5.289h-0.256V1.6c-0.045,0.318-0.076,0.641-0.076,0.972v22.415h-30.017
		c-4.094,0-7.414,3.526-7.414,7.877v1.05c0,4.35,3.319,7.876,7.414,7.876h15.399c1.971,0.821,2.946,2.395,2.946,4.983v68.392
		c0,4.317-1.633,6.371-3.758,7.118h-14.586c-4.094,0-7.414,3.527-7.414,7.877v1.051c0,4.349,3.319,7.875,7.414,7.875h30.017v29.539
		c0,4.094,3.526,7.413,7.876,7.413h1.05c4.351,0,7.877-3.319,7.877-7.413v-29.748h8.154v29.748c0,4.094,3.526,7.413,7.876,7.413
		h1.051c4.35,0,7.876-3.319,7.876-7.413v-29.748h2.885c31.616,0,42.156-15.479,42.156-36.556
		C314.109,89.895,305.492,79.202,293.396,76.304z M253.983,42.053c7.686,0,22.833,1.317,22.833,13.832
		c0.527,8.167-5.389,15.325-13.502,16.356h-18.948V42.053H253.983z M260.021,121.094v-0.109h-15.655V88.051h18.398
		c4.612,0,21.956,1.536,21.956,13.832S276.489,121.094,260.021,121.094z"/>
</g>
<g>
	<path d="M142.767,391.568c-8.294,0-14.982-3.207-20.067-9.62c-5.086-6.414-7.628-15.354-7.628-26.821s2.429-20.407,7.288-26.821
		c4.859-6.413,11.37-9.62,19.533-9.62c5.831,0,11.305,1.005,16.423,3.013c0.646,0.194,0.972,0.68,0.972,1.457
		c0,0.26-0.097,0.454-0.292,0.583c-0.194,0.131-0.422,0.163-0.68,0.098c-5.184-2.138-10.658-3.207-16.423-3.207
		c-7.774,0-13.864,3.061-18.269,9.184c-4.407,6.122-6.608,14.562-6.608,25.314c0,10.626,2.316,19.031,6.948,25.218
		c4.631,6.188,10.899,9.28,18.804,9.28c5.505,0,10.85-1.069,16.034-3.207c0.258-0.063,0.486-0.032,0.68,0.098
		s0.292,0.324,0.292,0.583c0,0.777-0.325,1.263-0.972,1.457C153.682,390.564,148.337,391.568,142.767,391.568z"/>
	<path d="M177.944,390.597c-0.648,0-0.972-0.323-0.972-0.972v-63.943c0-1.618,0.518-3.044,1.555-4.275
		c1.036-1.229,2.333-1.943,3.887-2.138c3.304-0.389,6.672-0.583,10.106-0.583c17.492,0,26.238,6.316,26.238,18.949
		c0,9.718-5.799,15.582-17.395,17.589c-0.131,0-0.194,0.034-0.194,0.098c0,0.131,0.063,0.194,0.194,0.194
		c1.749,0.714,3.304,2.041,4.665,3.984c1.36,1.943,3.207,5.507,5.539,10.689l8.746,19.436c0.063,0.26,0.032,0.485-0.097,0.68
		c-0.131,0.194-0.325,0.292-0.583,0.292c-0.648,0-1.134-0.323-1.458-0.972l-8.357-18.658c-1.426-3.174-2.56-5.539-3.401-7.094
		c-0.843-1.555-1.701-2.964-2.575-4.228s-1.96-2.089-3.255-2.478c-1.297-0.389-2.609-0.664-3.936-0.826
		c-1.329-0.161-3.353-0.243-6.073-0.243h-10.787c-0.583,0-0.875,0.292-0.875,0.875v32.651
		C178.916,390.273,178.591,390.597,177.944,390.597z M178.916,322.67v30.61c0,0.583,0.292,0.875,0.875,0.875h10.787
		c9.134,0,15.791-1.36,19.97-4.082c4.179-2.721,6.268-6.866,6.268-12.438c0-11.336-8.099-17.006-24.294-17.006
		c-4.276,0-8.552,0.356-12.828,1.069C179.174,321.828,178.916,322.151,178.916,322.67z"/>
	<path d="M248.787,358.14l-24.586-37.511c-0.131-0.194-0.146-0.404-0.049-0.632c0.097-0.227,0.275-0.34,0.535-0.34
		c0.841,0,1.458,0.325,1.846,0.972l23.517,36.15h0.195h0.194l23.517-36.15c0.452-0.646,1.069-0.972,1.847-0.972
		c0.258,0,0.437,0.113,0.534,0.34c0.097,0.228,0.08,0.438-0.049,0.632l-24.586,37.511c-0.325,0.519-0.485,1.037-0.485,1.555v29.931
		c0,0.648-0.325,0.972-0.972,0.972c-0.648,0-0.973-0.323-0.973-0.972v-29.931C249.272,359.177,249.11,358.658,248.787,358.14z"/>
	<path d="M289.6,390.597c-0.647,0-0.972-0.323-0.972-0.972v-63.846c0-1.619,0.519-3.045,1.556-4.276
		c1.035-1.229,2.332-1.943,3.887-2.138c3.433-0.452,7.126-0.68,11.078-0.68c8.486,0,14.98,1.798,19.484,5.394
		c4.502,3.595,6.754,8.762,6.754,15.499c0,6.803-2.284,12.067-6.852,15.792c-4.567,3.726-11.029,5.587-19.387,5.587
		c-4.47,0-9.037-0.258-13.702-0.777c-0.583-0.129-0.874,0.098-0.874,0.681v28.765C290.572,390.273,290.247,390.597,289.6,390.597z
		 M290.572,322.767v34.498c0,0.52,0.291,0.843,0.874,0.972c4.665,0.52,9.232,0.777,13.702,0.777c7.838,0,13.848-1.667,18.026-5.004
		c4.179-3.336,6.269-8.146,6.269-14.432c0-6.219-2.058-10.933-6.171-14.139c-4.115-3.207-10.155-4.811-18.124-4.811
		c-4.729,0-9.297,0.389-13.702,1.166C290.863,321.926,290.572,322.249,290.572,322.767z"/>
	<path d="M341.298,321.601c-0.648,0-0.972-0.323-0.972-0.972c0-0.646,0.323-0.972,0.972-0.972h46.645
		c0.647,0,0.973,0.325,0.973,0.972c0,0.648-0.325,0.972-0.973,0.972h-21.476c-0.583,0-0.875,0.292-0.875,0.875v67.149
		c0,0.648-0.325,0.972-0.972,0.972c-0.648,0-0.972-0.323-0.972-0.972v-67.149c0-0.583-0.292-0.875-0.875-0.875H341.298z"/>
	<path d="M446.589,382.045c-5.087,6.35-12.262,9.523-21.525,9.523c-9.265,0-16.439-3.174-21.524-9.523
		c-5.087-6.349-7.629-15.32-7.629-26.918c0-11.596,2.542-20.568,7.629-26.918c5.085-6.349,12.26-9.523,21.524-9.523
		c9.264,0,16.438,3.175,21.525,9.523c5.085,6.35,7.628,15.322,7.628,26.918C454.217,366.725,451.674,375.696,446.589,382.045z
		 M445.276,329.521c-4.664-5.928-11.402-8.892-20.213-8.892s-15.548,2.964-20.213,8.892c-4.664,5.928-6.996,14.464-6.996,25.606
		c0,11.144,2.332,19.679,6.996,25.606c4.665,5.928,11.402,8.892,20.213,8.892s15.549-2.964,20.213-8.892
		c4.665-5.928,6.997-14.463,6.997-25.606C452.273,343.984,449.941,335.448,445.276,329.521z"/>
</g>
<g>
	<g>
		<path d="M124.204,481.704c-1.491,0-2.77-0.55-3.839-1.652c-1.069-1.101-1.603-2.396-1.603-3.887v-59.376
			c0-1.555,0.518-2.947,1.555-4.179c1.036-1.229,2.332-1.91,3.887-2.04c5.505-0.518,10.818-0.777,15.937-0.777
			c9.718,0,17.006,1.928,21.865,5.782s7.289,9.442,7.289,16.763c0,8.1-2.349,14.222-7.045,18.366
			c-4.698,4.147-11.646,6.22-20.845,6.22c-2.138,0-4.956-0.129-8.455-0.389c-0.519,0-0.777,0.26-0.777,0.777v18.853
			c0,1.491-0.551,2.786-1.652,3.887c-1.103,1.103-2.397,1.652-3.887,1.652H124.204z M132.172,421.843v23.42
			c0,0.454,0.258,0.745,0.777,0.874c2.461,0.325,4.859,0.486,7.191,0.486c5.248,0,9.247-1.149,12.001-3.45
			c2.753-2.299,4.13-5.587,4.13-9.863c0-8.615-5.378-12.925-16.131-12.925c-2.333,0-4.73,0.163-7.191,0.486
			C132.43,421.002,132.172,421.325,132.172,421.843z"/>
		<path d="M185.328,481.704c-1.491,0-2.787-0.55-3.887-1.652c-1.103-1.101-1.652-2.396-1.652-3.887v-59.376
			c0-1.555,0.518-2.947,1.555-4.179c1.036-1.229,2.332-1.91,3.887-2.04c5.505-0.518,10.818-0.777,15.937-0.777
			c9.523,0,16.649,1.766,21.379,5.296c4.729,3.532,7.094,8.503,7.094,14.917c0,4.601-1.248,8.648-3.742,12.146
			c-2.495,3.499-5.847,5.962-10.058,7.386c-0.065,0-0.097,0.033-0.097,0.098c0,0.13,0.032,0.194,0.097,0.194
			c3.109,1.943,5.765,5.767,7.968,11.467l5.831,15.257c0.452,1.231,0.307,2.397-0.438,3.498c-0.746,1.103-1.766,1.652-3.061,1.652
			h-3.013c-1.685,0-3.207-0.469-4.567-1.409c-1.36-0.938-2.332-2.187-2.915-3.741l-5.442-14.966
			c-1.167-3.109-2.495-5.15-3.984-6.122c-1.491-0.972-4.05-1.457-7.677-1.457h-4.47c-0.583,0-0.875,0.291-0.875,0.874v21.282
			c0,1.491-0.534,2.786-1.604,3.887c-1.069,1.103-2.349,1.652-3.838,1.652H185.328z M193.199,421.843v21.088
			c0,0.519,0.292,0.777,0.875,0.777h4.859c11.531,0,17.298-4.113,17.298-12.342c0-7.32-5.345-10.981-16.034-10.981
			c-1.944,0-3.984,0.163-6.123,0.486C193.49,421.002,193.199,421.325,193.199,421.843z"/>
		<path d="M292.075,473.056c-5.799,6.413-13.687,9.62-23.662,9.62c-9.978,0-17.866-3.207-23.663-9.62
			c-5.799-6.414-8.697-15.354-8.697-26.821s2.898-20.407,8.697-26.821c5.797-6.413,13.685-9.62,23.663-9.62
			c9.976,0,17.863,3.207,23.662,9.62c5.798,6.414,8.697,15.354,8.697,26.821S297.873,466.642,292.075,473.056z M286.876,446.234
			c0-16.844-6.155-25.267-18.463-25.267c-12.309,0-18.463,8.423-18.463,25.267c0,16.845,6.154,25.266,18.463,25.266
			C280.721,471.5,286.876,463.079,286.876,446.234z"/>
		<path d="M317.195,481.704c-1.491,0-2.77-0.55-3.839-1.652c-1.068-1.101-1.604-2.396-1.604-3.887v-59.861
			c0-1.489,0.535-2.785,1.604-3.888c1.069-1.101,2.348-1.651,3.839-1.651h32.068c1.489,0,2.785,0.551,3.887,1.651
			c1.102,1.103,1.652,2.398,1.652,3.888c0,1.491-0.551,2.77-1.652,3.839c-1.102,1.068-2.397,1.603-3.887,1.603h-23.128
			c-0.52,0-0.777,0.292-0.777,0.875v17.006c0,0.52,0.258,0.777,0.777,0.777h21.476c1.425,0,2.656,0.503,3.693,1.507
			c1.035,1.005,1.555,2.252,1.555,3.741c0,1.491-0.52,2.737-1.555,3.741c-1.037,1.005-2.269,1.506-3.693,1.506h-21.476
			c-0.52,0-0.777,0.26-0.777,0.777v24.489c0,1.491-0.552,2.786-1.652,3.887c-1.103,1.103-2.397,1.652-3.887,1.652H317.195z"/>
		<path d="M376.183,481.704c-1.491,0-2.787-0.55-3.888-1.652c-1.103-1.101-1.652-2.396-1.652-3.887v-59.861
			c0-1.489,0.55-2.785,1.652-3.888c1.101-1.101,2.396-1.651,3.888-1.651h3.887c1.489,0,2.785,0.551,3.887,1.651
			c1.102,1.103,1.652,2.398,1.652,3.888v59.861c0,1.491-0.551,2.786-1.652,3.887c-1.102,1.103-2.397,1.652-3.887,1.652H376.183z"/>
		<path d="M406.015,422.037c-1.491,0-2.787-0.534-3.888-1.604c-1.103-1.069-1.651-2.348-1.651-3.839v-0.291
			c0-1.489,0.549-2.785,1.651-3.888c1.101-1.101,2.396-1.651,3.888-1.651h41.397c1.489,0,2.784,0.551,3.887,1.651
			c1.101,1.103,1.652,2.398,1.652,3.888v0.291c0,1.491-0.552,2.77-1.652,3.839c-1.103,1.069-2.397,1.604-3.887,1.604H434.39
			c-0.519,0-0.777,0.291-0.777,0.875v53.253c0,1.491-0.551,2.786-1.651,3.887c-1.103,1.103-2.397,1.652-3.888,1.652h-2.721
			c-1.491,0-2.786-0.55-3.887-1.652c-1.103-1.101-1.652-2.396-1.652-3.887v-53.253c0-0.584-0.26-0.875-0.777-0.875H406.015z"/>
	</g>
</g>
</svg>
