<svg width="60" height="60" viewBox="0 0 60 60" fill="none" xmlns="http://www.w3.org/2000/svg">
<path fill-rule="evenodd" clip-rule="evenodd" d="M2.55845 20.103C2.49545 20.134 2.43545 20.172 2.38045 20.215L2.36645 20.227L2.34145 20.248L2.32845 20.259L2.30945 20.277L2.28345 20.303L2.26845 20.319L2.25245 20.337L2.24445 20.345L2.23345 20.358C2.09545 20.523 2.00945 20.734 2.00145 20.9641L2.00045 20.984C2.00045 20.989 2.00045 20.995 2.00045 21V32.1711C0.835446 32.5821 0.000442505 33.6941 0.000442505 35.0001V45.0001C0.000442505 45.5521 0.448444 46.0001 1.00045 46.0001H5.00046C5.55246 46.0001 6.00046 45.5521 6.00046 45.0001V34.9981C6.00046 33.6921 5.16546 32.5811 4.00046 32.1701V22.6451L12.0005 26.7931V42.7221C12.0005 44.5421 12.9395 46.2341 14.4845 47.1971C14.4855 47.1981 14.4865 47.1981 14.4875 47.1991C24.8305 53.5862 35.1656 53.5642 45.5006 47.1851C45.5006 47.1851 45.5016 47.1851 45.5026 47.1841C47.0476 46.2251 47.9866 44.5351 47.9866 42.7171C47.9996 38.2441 48.0006 28.5951 48.0006 26.7931L57.4607 21.8881C57.7927 21.7161 58.0007 21.3731 58.0007 21C58.0007 20.627 57.7927 20.284 57.4607 20.112L30.4606 6.11199C30.1726 5.96299 29.8286 5.96299 29.5406 6.11199L2.55845 20.103ZM14.0005 27.8301V42.7221C14.0005 43.8511 14.5825 44.9011 15.5405 45.4991C25.1815 51.4522 34.8146 51.4302 44.4486 45.4841C45.4046 44.8901 45.9866 43.8441 45.9866 42.7171C45.9866 42.7161 45.9866 42.7151 45.9866 42.7141C45.9976 38.8071 45.9996 30.9581 46.0006 27.8301L30.4606 35.8881C30.1726 36.0371 29.8286 36.0371 29.5406 35.8881L14.0005 27.8301ZM4.00046 34.9981V44.0001H2.00045V35.0001C2.00045 34.4481 2.44845 34.0001 3.00045 34.0001H3.00245C3.55346 34.0001 4.00046 34.4471 4.00046 34.9981ZM7.10147 20H29.0005C29.5526 20 30.0006 20.448 30.0006 21C30.0006 21.5521 29.5526 22.0001 29.0005 22.0001H7.10147L30.0006 33.8741L54.8286 21L30.0006 8.126L7.10147 20Z" fill="url(#paint0_linear_259_8)"/>
<defs>
<linearGradient id="paint0_linear_259_8" x1="35.0006" y1="44.0001" x2="14.0005" y2="19" gradientUnits="userSpaceOnUse">
<stop stop-color="#0053FA"/>
<stop offset="1" stop-color="#0099FA"/>
</linearGradient>
</defs>
</svg>
