<svg width="59" height="29" id="Слой_1" data-name="Слой 1" xmlns="http://www.w3.org/2000/svg" viewBox="0 0 59 29"><defs><style>.cls-1{fill:#c3cace;}.cls-2{fill:#3c3c3c;}</style></defs><title>все иконки</title><rect class="cls-1" width="59" height="29"/><path class="cls-2" d="M19.55,4.5V8.33A16.15,16.15,0,0,1,35.63,24.5h3.83A20,20,0,0,0,19.55,4.5Z"/><path class="cls-2" d="M19.54,11.3v3.83a9.23,9.23,0,0,1,6.59,2.74,9.33,9.33,0,0,1,2.73,6.63h3.83A13.19,13.19,0,0,0,19.54,11.3Z"/><path class="cls-2" d="M22.19,19.17a2.66,2.66,0,1,0,2.66,2.65A2.65,2.65,0,0,0,22.19,19.17Z"/></svg>
