<svg width="15" height="15" id="Слой_1" data-name="Слой 1" xmlns="http://www.w3.org/2000/svg" viewBox="0 0 14 14"><defs><style>.cls-1{fill:#3c3c3c;}</style></defs><title>все иконки</title><path class="cls-1" d="M14,6.92C14,4.13,14,2,13,1S10,0,7.08,0c.09,3.1.17,4.52,1.27,5.65S10.9,6.83,14,6.92Z"/><path class="cls-1" d="M5.65,5.65C6.75,4.52,6.83,3.1,6.92,0h0C4,0,2,0,1,1S0,4.13,0,6.92c2.71-.08,4.14-.15,5.21-.9A3.75,3.75,0,0,0,5.65,5.65Z"/><path class="cls-1" d="M14,7.08c-2.57.08-4,.15-5,.8a3.28,3.28,0,0,0-.38.27l-.24.2c-.84.87-1.08,1.9-1.19,3.72,0,.57-.06,1.2-.08,1.93C10,14,12,14,13,13s1-3.12,1-5.91Z"/><path class="cls-1" d="M5.65,8.35C4.52,7.25,3.1,7.17,0,7.08,0,9.87,0,12,1,13s3,1,5.91,1C6.83,10.9,6.75,9.48,5.65,8.35Z"/></svg>
