<svg height="15" width="21" id="Слой_1" data-name="Слой 1" xmlns="http://www.w3.org/2000/svg" viewBox="0 0 20.83 15"><defs><style>.cls-1{fill:#3c3c3c;}</style></defs><title>все иконки</title><path class="cls-1" d="M18.53,7.83a3.29,3.29,0,0,0-3.29-3.29h-.17a4.18,4.18,0,0,0-3.76-2.37,3.68,3.68,0,0,0-.58,0l-1-1L8.2,2.82a4,4,0,0,0-1.46-.58V0H5.26V2.27a3.69,3.69,0,0,0-1.4.62L2.23,1.26l-1,1.05L2.83,4a3.69,3.69,0,0,0-.55,1.34H0V6.77H2.27a3.71,3.71,0,0,0,.57,1.41L1.19,9.84l.41.41a3.45,3.45,0,0,0-.15,1A3.73,3.73,0,0,0,5.17,15H17.1a3.73,3.73,0,0,0,1.43-7.17ZM6.08,3.69a2.37,2.37,0,0,1,1.59.62,4.28,4.28,0,0,0-.44,1.14A2.64,2.64,0,0,0,4.7,7.58a2.53,2.53,0,0,0-.38.07,2.37,2.37,0,0,1,1.76-4Zm11,9.8H5.17a2.22,2.22,0,0,1-.28-4.42L6,8.93l.21-1.06A1.13,1.13,0,0,1,7.26,7l1.19,0L8.7,5.78a2.69,2.69,0,0,1,2.61-2.09,2.65,2.65,0,0,1,2.4,1.51l.44.9,1,0h.11A1.79,1.79,0,0,1,17,7.84v1l.92.38a2.22,2.22,0,0,1-.85,4.27Z"/></svg>
