<svg width="59" height="29" id="Слой_1" data-name="Слой 1" xmlns="http://www.w3.org/2000/svg" viewBox="0 0 59 29"><defs><style>.cls-1{fill:#c3cace;}.cls-2{fill:#3c3c3c;}</style></defs><title>все иконки</title><rect class="cls-1" width="59" height="29"/><path class="cls-2" d="M43.19,7.62A3.58,3.58,0,0,0,40.66,5.1c-2.23-.6-11.16-.6-11.16-.6s-8.93,0-11.16.6a3.58,3.58,0,0,0-2.53,2.52,37,37,0,0,0-.6,6.88,37,37,0,0,0,.6,6.88,3.58,3.58,0,0,0,2.53,2.52c2.23.6,11.16.6,11.16.6s8.93,0,11.16-.6a3.58,3.58,0,0,0,2.53-2.52,37,37,0,0,0,.6-6.88A37,37,0,0,0,43.19,7.62ZM26.64,18.79V10.21l7.43,4.29Z"/></svg>
