<?xml version="1.0" encoding="utf-8"?>
<!-- Generator: Adobe Illustrator 22.1.0, SVG Export Plug-In . SVG Version: 6.00 Build 0)  -->
<svg version="1.1" id="Слой_1" xmlns="http://www.w3.org/2000/svg" xmlns:xlink="http://www.w3.org/1999/xlink" x="0px" y="0px"
	 viewBox="0 0 30 30" style="enable-background:new 0 0 30 30;" xml:space="preserve">
<style type="text/css">
	.st0{fill:#006666;}
</style>
<g>
	<path class="st0" d="M12,27.2h12.9c1.5,0,2.6-1.1,2.6-2.6c0-1.3-0.9-2.8-2.4-2.9c-0.1-3.3-2.9-5.9-6.5-5.9c-3.1,0-5.8,2-6.4,4.7H12
		c-1.8,0-3.2,1.6-3.2,3.5C8.8,25.8,10.2,27.2,12,27.2L12,27.2z M12,21h0.8l0-0.2c0.5-2.6,3-4.5,5.9-4.5c3.3,0,5.9,2.5,5.9,5.6v0.3
		h0.3c1.2,0,2.1,1.2,2.1,2.4c0,1.2-0.9,2.1-2.1,2.1H12c-1.5,0-2.6-1.1-2.6-2.6C9.4,22.4,10.6,21,12,21L12,21z M12,21"/>
</g>
<rect x="12.6" class="st0" width="0.8" height="4.1"/>
<rect x="21.9" y="12.6" class="st0" width="4.1" height="0.8"/>
<rect y="12.6" class="st0" width="4.1" height="0.8"/>
<rect x="19" y="5" transform="matrix(0.7071 -0.7071 0.7071 0.7071 2.1283 16.0499)" class="st0" width="2.8" height="0.9"/>
<rect x="4" y="20.1" transform="matrix(0.7071 -0.7071 0.7071 0.7071 -12.9146 9.8686)" class="st0" width="2.8" height="0.9"/>
<polygon class="st0" points="6.8,6.1 4.8,4.2 4.2,4.8 6.2,6.8 "/>
<path class="st0" d="M13.1,19.9c0.1-0.3,0.3-0.6,0.4-0.9c-0.2,0-0.4,0-0.6,0c-3.4,0-6.1-2.8-6.1-6.1c0-3.4,2.7-6.1,6.1-6.1
	c3.4,0,6.1,2.8,6.1,6.1c0,1.3-0.4,2.4-1.1,3.4c0.3,0,0.5-0.1,0.8-0.1c0.1,0,0.2,0,0.3,0c0.6-1,0.9-2.1,0.9-3.4
	c0-3.8-3.1-6.9-6.9-6.9c-3.8,0-6.9,3.1-6.9,6.9c0,3.8,3.1,6.9,6.9,6.9C13,19.9,13.1,19.9,13.1,19.9z"/>
</svg>
