<svg id="OBJECTS" xmlns="http://www.w3.org/2000/svg" viewBox="0 0 118.69 146.32"><defs><style>.cls-1{fill:#fff;}.cls-2{fill:#0a72a0;}.cls-3{fill:#57e7ff;opacity:0.21;}.cls-4{fill:#04a879;}.cls-5{fill:#50ffc9;opacity:0.16;}</style></defs><polygon class="cls-1" points="12.67 128.2 60.91 143.86 60.91 146.32 0 137.24 0.01 38.75 3.15 39.56 12.68 42.01 12.67 128.2"/><polygon class="cls-1" points="60.91 140.18 60.91 143.86 17.9 122.95 17.91 43.35 24.28 44.99 24.27 118.42 60.91 140.18"/><polygon class="cls-1" points="103.93 43.37 103.92 122.97 60.91 143.86 60.91 140.18 61.51 140.18 97.54 118.64 97.55 45.01 103.93 43.37"/><polygon class="cls-1" points="118.69 39.58 118.68 130.68 60.91 146.32 60.91 143.86 109.11 128.22 109.12 42.04 118.69 39.58"/><polygon class="cls-2" points="12.67 128.2 60.91 143.86 60.91 146.32 3.14 130.66 3.15 38.75 12.68 41.33 12.67 128.2"/><polygon class="cls-2" points="60.91 140.18 60.91 143.86 17.9 122.95 17.91 42.75 24.28 44.48 24.27 118.42 60.91 140.18"/><polygon class="cls-2" points="103.93 42.77 103.92 122.97 60.91 143.86 60.91 140.18 61.51 140.18 97.54 118.64 97.55 44.49 103.93 42.77"/><polygon class="cls-2" points="118.69 38.77 118.68 130.68 60.91 146.32 60.91 143.86 109.11 128.22 109.12 41.36 118.69 38.77"/><polygon class="cls-3" points="3.15 38.75 12.68 41.33 12.67 111.54 3.14 105.88 3.15 38.75"/><polygon class="cls-3" points="24.28 33.28 24.27 118.42 17.9 114.64 17.91 30.04 24.28 33.28"/><polygon class="cls-3" points="103.94 30.06 103.92 115.15 61.73 140.18 61.51 140.18 97.54 118.64 97.55 33.3 103.94 30.06"/><polygon class="cls-3" points="118.69 38.77 118.68 106.38 109.11 112.07 109.12 41.36 118.69 38.77"/><polygon class="cls-3" points="3.15 38.75 12.68 41.33 12.68 67.24 3.15 61.58 3.15 38.75"/><polygon class="cls-3" points="24.28 33.28 24.28 74.13 17.91 70.34 17.91 30.04 24.28 33.28"/><polygon class="cls-3" points="103.94 30.06 103.93 70.85 97.55 74.64 97.55 33.3 103.94 30.06"/><polygon class="cls-3" points="118.69 38.77 118.69 62.08 109.12 67.77 109.12 41.36 118.69 38.77"/><polygon class="cls-1" points="60.91 140.18 60.91 143.86 17.9 122.95 17.91 37.99 24.28 40.05 24.27 118.42 60.91 140.18"/><polygon class="cls-2" points="60.91 140.18 60.91 143.86 17.9 122.95 17.91 30.04 24.28 33.28 24.27 118.42 60.91 140.18"/><polygon class="cls-1" points="24.27 118.42 60.91 140.18 60.91 140.54 24.27 118.64 24.27 118.42"/><polygon class="cls-1" points="103.93 38 103.92 122.97 60.91 143.86 60.91 140.18 61.51 140.18 97.54 118.64 97.55 40.06 103.93 38"/><polygon class="cls-2" points="103.94 30.06 103.92 122.97 60.91 143.86 60.91 140.18 61.51 140.18 97.54 118.64 97.55 33.3 103.94 30.06"/><polygon class="cls-1" points="61.51 140.18 60.91 140.54 60.91 140.18 61.51 140.18"/><polygon class="cls-4" points="47.48 12.4 47.48 126.01 29.69 115.61 29.69 0 47.48 12.4"/><polygon class="cls-4" points="92.15 0 92.15 115.61 74.36 126.01 74.36 12.4 92.15 0"/><polygon class="cls-4" points="60.92 19.32 60.92 133.94 52.67 129.13 52.67 13.53 60.92 19.32"/><polygon class="cls-4" points="69.17 13.53 69.17 129.13 60.92 133.94 60.92 19.32 69.17 13.53"/><polygon class="cls-5" points="47.48 12.4 47.48 92.76 29.69 82.32 29.69 0 47.48 12.4"/><polygon class="cls-5" points="69.17 13.53 69.17 95.81 60.92 100.65 52.67 95.81 52.67 13.53 60.92 19.32 69.17 13.53"/><polygon class="cls-5" points="92.15 0 92.15 82.32 74.36 92.76 74.36 12.4 92.15 0"/><polygon class="cls-5" points="47.48 12.4 47.48 52.21 43.69 49.98 43.68 49.98 42.94 49.54 42.93 49.54 29.91 41.89 29.69 41.76 29.69 0 47.48 12.4"/><polygon class="cls-5" points="69.17 13.53 69.17 55.26 60.92 60.1 52.67 55.26 52.67 13.53 60.92 19.32 69.17 13.53"/><polygon class="cls-5" points="92.15 0 92.15 41.76 91.97 41.87 91.96 41.87 78.91 49.54 78.9 49.54 78.16 49.98 78.15 49.98 74.36 52.21 74.36 12.4 92.15 0"/></svg>