<?xml version="1.0" encoding="UTF-8"?>
<svg xmlns="http://www.w3.org/2000/svg" viewBox="0 0 339.68 26.14">
  <defs>
    <style>
      .cls-1 {fill:#006ED2}
    </style>
  </defs>
  <path d="M125 1v7.4h-.6c-1.6-4.8-3-6.7-4.8-6.7h-.4v21c0 1.5.5 2.5 2.7 2.5v.5h-9.2v-.5c2.1-.1 2.7-1 2.7-2.5v-21h-.4c-1.8 0-3.1 1.9-4.8 6.7h-.6V1zM125.94 25.27c2-.1 2.4-1 2.4-2.5V3.87c0-1.5-.4-2.4-2.4-2.5V1h8.4v.4c-1.6.1-2.2.9-2.2 2.5v8.6h6.5V3.87c0-1.6-.6-2.4-2.2-2.5V1h8.4v.4c-2 .1-2.4 1-2.4 2.5v18.9c0 1.5.4 2.4 2.4 2.5v.5h-8.4v-.5c1.6-.1 2.2-.9 2.2-2.5v-9.5h-6.5v9.5c0 1.6.6 2.4 2.2 2.5v.5h-8.4zM168.34 17.37h.6c2.4 6 4 8 6.1 8s3.3-2.1 3.3-4.3c0-3.7-2.4-5.1-4.8-6.5s-4.9-2.8-4.9-6.8c0-4.6 3-7.5 6.5-7.5a8.59 8.59 0 0 1 3.9 1l.7-1.3h.5v8.1h-.6c-2.1-5.8-3.4-7.2-5-7.2s-3.1 1.2-3.1 4.2c0 3.3 2.2 4.4 4.5 5.7s5 2.9 5 7.2c0 3.7-2.1 8-6.5 8a9.34 9.34 0 0 1-4.7-1.5l-1 1.7h-.5zM197.44 1v7.4h-.6c-1.6-4.8-3-6.7-4.8-6.7h-.4v21c0 1.5.5 2.5 2.7 2.5v.5h-9.1v-.5c2.1-.1 2.7-1 2.7-2.5v-21h-.4c-1.8 0-3.1 1.9-4.8 6.7h-.5V1zM228.14 19.77c-.2-3.8-1.2-6.1-4.8-6.4v-.1c3.8-.8 5.1-3.2 5.1-6.3 0-3.4-1.7-6-6.7-6h-8.5v.4c2 .1 2.4 1 2.4 2.5v18.8c0 1.5-.7 2.5-2.1 2.5s-2.1-1-2.8-3.7l-5-20.8h-2.4l-4.5 18.6c-1.2 4.6-1.9 5.2-3.5 5.9v.5h6v-.5c-2.2-.5-2.8-1.3-1.6-6.1l.5-2.1h5.6l1.2 5.2c.5 2.2.2 2.9-2.1 3v.5h16.8v-.5c-1.6-.1-2.2-.9-2.2-2.5v-9h1.2c2.7 0 3.2.7 3.5 4.3l.2 3.4c.2 3.3.7 4.6 3.9 4.6a8.51 8.51 0 0 0 2.6-.5V25c-2.1.07-2.7-1.43-2.8-5.23zm-27.9-3.5l2.6-11.1h.1l2.6 11.1zm20.7-3.3h-1.5V1.67h1.2c3 0 3.8 2.1 3.8 5.4 0 3.5-.6 5.93-3.5 5.93zM145.94 25.27c2-.1 2.4-1 2.4-2.5V3.87c0-1.5-.4-2.5-2.4-2.5V1h14.5v7.4h-.6c-1.5-3.9-2.1-6.7-5.7-6.7H152v11h.7c1.8 0 2.9-.9 3.7-4.8h.6v10.2h-.6c-.8-3.9-1.9-4.8-3.7-4.8h-.7V25h2.2c3.6 0 4.9-2.5 6.3-7.7h.6l-.1 8.4h-15.1v-.4z"/>
  <path class="cls-1" d="M104.44.87h-17.3l5.6 12.5-5.6 12.3h17.3V.87zM235.24 25.67h17.3l-5.6-12.3 5.6-12.5h-17.3v24.8z"/>
</svg>