<svg xmlns="http://www.w3.org/2000/svg" x="0" y="0" viewBox="0 0 400 57.2"><path fill="#121212" d="M328 40v2.5h-7.4v4.1h6.6v2.5h-6.6v5.1h7.4v2.6h-10.2V40zM292.8 48.4c0 5.2 3.5 8.7 8.1 8.7 1.9.1 3.7-.4 5.3-1.5v-3c-1.5 1.3-3.3 1.9-5.3 1.8-3.2 0-5.3-2.5-5.3-6.1s2.1-6.2 5.3-6.2c1.9-.1 3.8.6 5.3 1.9v-3c-1.6-1.1-3.4-1.6-5.3-1.5-4.7.2-8.1 3.7-8.1 8.9zM267.5 56.8h2.7V45.9L281.7 57V40H279v10.7l-11.5-10.9zM255.5 40v2.5h-7.4v4.1h6.6v2.5h-6.6v5.1h7.4v2.6h-10.1V40zM227 54.6c-3.3 0-5.3-2.6-5.3-6.2s2.2-6.2 5.6-6.2c2-.1 3.9.6 5.4 1.9v-3c-1.6-1-3.5-1.5-5.4-1.5-4.8 0-8.4 3.5-8.4 8.7S222 57 227 57c2.6 0 5.3-.8 6.9-2.5v-6.7H228v2.4h3.2v3.2c-1.3.9-2.7 1.3-4.2 1.2zM204.7 40h2.8v16.7h-2.8zM182.4 56.8h10.8v-2.6h-8V40h-2.8zM160.1 56.8h10.8v-2.6h-8V40h-2.8zM147.4 40v2.5H140v4.1h6.6v2.5H140v5.1h7.4v2.6h-10.2V40zM112.5 42.6h5.5v14.2h2.8V42.6h5.6V40h-13.9zM88.3 56.8H91V45.9L102.5 57V40h-2.7v10.7L88.3 39.8zM72.1 40h2.8v16.7h-2.8zM57.5 6.9c0 4.2 2.6 6 5.9 7.2l3.7 1.3c2.3.9 3.5 1.7 3.5 3.6 0 2.3-2 3.3-4.9 3.3-2.9 0-5.7-1.1-8-2.9v4.5c2.4 1.5 5.2 2.3 8 2.2 5.2 0 9.1-2.6 9.1-7.2 0-3.7-1.8-5.9-5.8-7.3l-4-1.4c-2.1-.7-3.3-1.5-3.3-3.3 0-2.1 1.9-3 4.5-3 2.7 0 5.3 1 7.4 2.7V2.1C71.3.7 68.7 0 66.1 0c-4.7 0-8.5 2.4-8.6 6.9M186.2 6.9c0 4.2 2.6 6 5.9 7.2l3.7 1.3c2.3.9 3.5 1.7 3.5 3.6 0 2.3-2 3.3-4.9 3.3-2.9 0-5.7-1.1-8-2.9v4.5c2.4 1.5 5.2 2.3 8 2.2 5.1 0 9-2.6 9-7.2 0-3.7-1.8-5.9-5.8-7.3l-4.1-1.5c-2.1-.8-3.3-1.5-3.3-3.3 0-2.1 1.9-3.1 4.4-3.1 2.7 0 5.3 1 7.4 2.7V2.1C199.8.7 197.2 0 194.6 0c-4.5 0-8.4 2.4-8.4 6.9M160.4 6.9c0 4.2 2.6 6 5.9 7.2l3.7 1.3c2.3.9 3.5 1.6 3.5 3.6 0 2.3-2 3.3-4.9 3.3-2.9 0-5.7-1.1-8-2.9v4.5c2.4 1.5 5.2 2.3 8 2.2 5.1 0 9.1-2.6 9.1-7.2 0-3.7-1.8-5.9-5.8-7.3l-4.1-1.5c-2.1-.8-3.3-1.5-3.3-3.3 0-2.1 1.9-3.1 4.4-3.1 2.7 0 5.3 1 7.4 2.7V2.1C174.1.7 171.5 0 168.8 0c-4.6 0-8.4 2.4-8.4 6.9M135.3.4v25.3h15.3v-3.8h-11.1V14h10v-3.8h-10v-6h11.1V.4h-15.3zM4.2 14.6h5.4c2.9 0 4.4 1.4 4.4 3.7S12.5 22 9.6 22H4.2v-7.4zm0-10.5h4.7c2.9 0 4.5 1 4.5 3.4S11.8 11 8.9 11H4.2V4.1zM0 .4v25.3h9.7c5.3 0 8.6-2.5 8.6-7.2 0-2.6-1.6-5-4.1-5.8 2.1-.9 3.4-3.1 3.3-5.4 0-4.5-3.3-6.9-8.6-6.9H0zM85.9 25.8h4.3V.4h-4.3v25.4zM43.4.4v14.8c0 4.9-2.1 7.1-5.8 7.1s-5.8-2.3-5.8-7.1V.4h-4.3v15.2c0 7 4.1 10.5 10.1 10.5s10.1-3.5 10.1-10.5V.4h-4.3zM119.7.4v16.2L102.4 0v25.8h4.1V9.3l17.3 16.8V.4zM273.6 6.9c0 4.2 2.6 6 6 7.2l3.7 1.3c2.3.9 3.6 1.6 3.6 3.6 0 2.3-2 3.3-5 3.3-2.9 0-5.8-1.1-8.1-2.9v4.5c2.4 1.5 5.2 2.3 8.1 2.2 5.2 0 9.1-2.5 9.1-7.2 0-3.7-1.8-5.9-5.8-7.4l-4.1-1.5c-2.1-.8-3.3-1.5-3.3-3.3 0-2 1.9-3 4.5-3 2.7 0 5.3 1 7.4 2.7V2c-2.3-1.4-4.9-2.1-7.5-2-4.6 0-8.6 2.5-8.6 6.9M302.2.4h4.3v25.3h-4.3zM224.3.4h4.3v25.3h-4.3zM323.5 4.2h5.3c5.4 0 8.2 3.4 8.2 8.9s-2.9 8.8-8.2 8.8h-5.3V4.2zM319.2.4v25.3h9.8c7.5 0 12.4-5 12.4-12.7S336.5.4 329 .4h-9.8zM350.5.4v25.4h15.4v-3.9h-11.2v-7.8h10.1v-3.8h-10.1V4.2h11.2V.4zM383.2 4.2h4.8c2.9 0 4.5 1.5 4.5 3.9S390.9 12 388 12h-4.8V4.2zM378.9.4v25.3h4.3V15.5h3.1l8.9 10.3h4.9l-9.2-10.4c4-.6 5.9-3.1 5.9-7.3 0-5-3.4-7.6-8.7-7.6l-9.2-.1zM241.1 25.8h4.1V9.3l17.5 16.8V.4h-4.1v16.2L241.1 0z"/></svg>