<svg version="1.1" xmlns="http://www.w3.org/2000/svg" viewBox="0 0 16 16" fill="#1691db"><path d="M15.875 13.376l-3.533-3.561c0.575-0.999 0.875-2.11 0.875-3.229 0-3.631-2.967-6.587-6.608-6.587s-6.608 2.955-6.608 6.587c0 3.631 2.967 6.587 6.608 6.587 1.162 0 2.313-0.319 3.338-0.928l3.517 3.548c0.079 0.079 0.192 0.129 0.304 0.129s0.225-0.046 0.304-0.129l1.804-1.816c0.167-0.17 0.167-0.435 0-0.601v0zM6.608 2.566c2.225 0 4.033 1.803 4.033 4.021s-1.808 4.021-4.033 4.021c-2.225 0-4.033-1.803-4.033-4.021s1.808-4.021 4.033-4.021v0z"></path></svg>