<svg
    aria-labelledby="title desc"
    role="img"
    xmlns="http://www.w3.org/2000/svg"
    viewBox="0 0 100 81.2"
>

  <title id="title">Twitter icon</title>
  <desc id="desc">A stylized bird with an open mouth, tweeting.</desc>

  <path d="M100 9.6c-2.8 4.1-6.3 7.7-10.3 10.6 0 .6.1 1.5.1 2.7 0 5.5-.8 11-2.4 16.5-1.6 5.5-4.1 10.7-7.3 15.8-3.3 5-7.2 9.5-11.7 13.4-4.5 3.9-10 7-16.4 9.3-6.4 2.3-13.2 3.5-20.5 3.5C20 81.2 9.5 78.1 0 72c1.5.2 3.1.3 5 .3 9.5 0 18-2.9 25.4-8.8-4.4-.1-8.4-1.4-11.9-4.1-3.5-2.6-5.9-6-7.2-10.1 1.4.2 2.7.3 3.9.3 1.8 0 3.6-.2 5.4-.7-4.7-1-8.7-3.3-11.8-7.1-3.1-3.7-4.7-8.1-4.7-13v-.3c2.9 1.6 6 2.5 9.3 2.6-2.8-1.9-5-4.3-6.7-7.3-1.6-3-2.5-6.3-2.5-9.8 0-3.7.9-7.2 2.8-10.3C12.1 10 18.3 15 25.7 18.8c7.3 3.8 15.2 5.9 23.6 6.3-.3-1.6-.5-3.2-.5-4.7 0-5.7 2-10.5 6-14.5s8.8-6 14.5-6c5.9 0 10.9 2.2 15 6.5 4.6-.9 8.9-2.5 13-5-1.6 4.9-4.6 8.6-9 11.3 3.8-.3 7.8-1.4 11.7-3.1z"/>
</svg>
