<svg
    aria-labelledby="title desc"
    role="img"
    xmlns="http://www.w3.org/2000/svg"
    viewBox="0 0 100 71.4"
>

  <title id="title">YouTube icon</title>
  <desc id="desc">A play button in the shape of a television screen.</desc>

  <path
      d="M99.9 27.3c0 2 .1 4.8.1 8.4 0 3.6 0 6.4-.1 8.4 0 2-.2 4.5-.5 7.6-.3 3.1-.7 5.8-1.3 8.2-.6 2.7-1.9 5-3.9 6.9-2 1.9-4.3 2.9-6.9 3.2-8.1 1-20.6 1.4-37.3 1.4S20.8 71 12.6 70c-2.6-.3-5-1.4-6.9-3.2-2-1.9-3.3-4.2-3.9-6.9-.5-2.4-.9-5.2-1.2-8.2-.3-3.1-.4-5.6-.5-7.6 0-2-.1-4.8-.1-8.4 0-3.6 0-6.4.1-8.4 0-2 .2-4.5.5-7.6.3-3.1.7-5.8 1.3-8.2.6-2.7 1.9-5 3.9-6.9 2-1.9 4.3-2.9 6.9-3.2C20.8.5 33.3 0 50 0s29.2.5 37.4 1.4c2.6.3 5 1.4 6.9 3.2 2 1.9 3.3 4.2 3.9 6.9.5 2.4.9 5.2 1.2 8.2.3 3.1.5 5.6.5 7.6zm-28.5 8.4c0-1.4-.6-2.4-1.7-3L41.2 14.8c-1.2-.7-2.4-.8-3.6-.1-1.2.7-1.8 1.7-1.8 3.1v35.7c0 1.4.6 2.5 1.8 3.1.6.3 1.2.4 1.7.4.7 0 1.4-.2 1.9-.6l28.6-17.9c1.1-.4 1.6-1.4 1.6-2.8z"
  ></path>
</svg>