<svg xmlns="http://www.w3.org/2000/svg" width="16" height="13" viewBox="0 0 16 13">
  <defs>
    <style>
      .cls-1 {
        fill: #8e8e8e;
        fill-rule: evenodd;
      }
    </style>
  </defs>
  <path id="Forma_1" data-name="Forma 1" class="cls-1" d="M851.974,4530.42a0.341,0.341,0,0,0-.073-0.11l-4-4.1a0.317,0.317,0,0,0-.471,0,0.344,0.344,0,0,0,0,.48l3.43,3.52h-6.528a7.779,7.779,0,0,1-7.667-7.87,0.333,0.333,0,1,0-.666,0,8.45,8.45,0,0,0,8.333,8.55h6.528l-3.43,3.53a0.344,0.344,0,0,0,0,.48,0.328,0.328,0,0,0,.472,0l4-4.11a0.374,0.374,0,0,0,.072-0.11A0.344,0.344,0,0,0,851.974,4530.42Z" transform="translate(-836 -4522)"/>
</svg>
