<svg id="Скрол" xmlns="http://www.w3.org/2000/svg" width="96" height="96" viewBox="0 0 96 96">
  <metadata><?xpacket begin="﻿" id="W5M0MpCehiHzreSzNTczkc9d"?>
<x:xmpmeta xmlns:x="adobe:ns:meta/" x:xmptk="Adobe XMP Core 5.6-c138 79.159824, 2016/09/14-01:09:01        ">
   <rdf:RDF xmlns:rdf="http://www.w3.org/1999/02/22-rdf-syntax-ns#">
      <rdf:Description rdf:about=""/>
   </rdf:RDF>
</x:xmpmeta>
                                                                                                    
                                                                                                    
                                                                                                    
                                                                                                    
                                                                                                    
                                                                                                    
                                                                                                    
                                                                                                    
                                                                                                    
                                                                                                    
                                                                                                    
                                                                                                    
                                                                                                    
                                                                                                    
                                                                                                    
                                                                                                    
                                                                                                    
                                                                                                    
                                                                                                    
                                                                                                    
                           
<?xpacket end="w"?></metadata>
<defs>
    <style>
      .cls-1 {
        opacity: 0.5;
      }

      .cls-2 {
        fill: #fff;
        fill-rule: evenodd;
      }
    </style>
  </defs>
  <rect id="Rectangle_738_copy" data-name="Rectangle 738 copy" class="cls-1" width="96" height="96"/>
  <path id="Forma_1_copy" data-name="Forma 1 copy" class="cls-2" d="M261.986,5093.75h9.539l-4.19,4.48,1.654,1.77,7.013-7.5-7.013-7.5-1.654,1.77,4.19,4.48h-9.539" transform="translate(-206 -5054)"/>
  <path id="Forma_1_copy_2" data-name="Forma 1 copy 2" class="cls-2" d="M247.013,5093.75h-9.538l4.19,4.48-1.654,1.77L233,5092.5l7.013-7.5,1.654,1.77-4.19,4.48h9.538" transform="translate(-206 -5054)"/>
  <path id="Forma_1" data-name="Forma 1" class="cls-2" d="M263.192,5119.5H250.276a0.84,0.84,0,0,0-.806.87v1.75a0.843,0.843,0,0,0,.806.88h12.918a0.843,0.843,0,0,0,.806-0.88v-1.75A0.841,0.841,0,0,0,263.192,5119.5Zm-1.008-14.88a1.791,1.791,0,0,0-1.816,1.75v-0.87a1.818,1.818,0,0,0-3.633,0v-0.88a1.817,1.817,0,0,0-3.632,0v-7.87a1.818,1.818,0,0,0-3.633,0v12.97l-2.21-2.68a1.831,1.831,0,0,0-2.543-.28,1.678,1.678,0,0,0-.292,2.45l6.224,8.54h12.092a3.437,3.437,0,0,0,1.259-2.63v-8.75A1.791,1.791,0,0,0,262.184,5104.62Z" transform="translate(-206 -5054)"/>
</svg>
