<?xml version="1.0" encoding="UTF-8"?>
<svg width="25px" height="28px" viewBox="0 0 25 28" version="1.1" xmlns="http://www.w3.org/2000/svg" xmlns:xlink="http://www.w3.org/1999/xlink">
    <!-- Generator: Sketch 52.4 (67378) - http://www.bohemiancoding.com/sketch -->
    <title>swipe</title>
    <desc>Created with Sketch.</desc>
    <g id="Page-1" stroke="none" stroke-width="1" fill="none" fill-rule="evenodd">
        <g id="Mobile-Главная" transform="translate(-175.000000, -1960.000000)" fill="#DDDDDD">
            <g id="Услуги" transform="translate(0.000000, 1367.000000)">
                <g id="Навигация-услуг" transform="translate(115.000000, 593.000000)">
                    <g id="swipe" transform="translate(60.000000, 0.000000)">
                        <path d="M23.1808463,2.43045657 L16.0538976,2.43045657 C15.7260579,2.43045657 15.4599666,2.69654788 15.4599666,3.02438753 C15.4599666,3.35222717 15.7260579,3.61831849 16.0538976,3.61831849 L23.1808463,3.61831849 C23.508686,3.61831849 23.7747773,3.35222717 23.7747773,3.02438753 C23.7747773,2.69654788 23.508686,2.43045657 23.1808463,2.43045657 Z" id="Path"></path>
                        <path d="M23.6013363,2.60506682 L21.2256682,0.229398664 C20.9940423,-0.00222717149 20.6174833,-0.00222717149 20.3858575,0.229398664 C20.1542316,0.461024499 20.1542316,0.837583519 20.3858575,1.06920935 L22.3410356,3.02438753 L20.3846882,4.98073497 C20.1530624,5.2123608 20.1530624,5.58891982 20.3846882,5.82054566 C20.5011136,5.9357461 20.653118,5.99398664 20.8051782,5.99398664 C20.9572383,5.99398664 21.1092428,5.93580178 21.2256682,5.82054566 L23.6013363,3.44487751 C23.8329621,3.21319599 23.8329621,2.83669265 23.6013363,2.60506682 Z" id="Path"></path>
                        <path d="M7.73914254,2.43045657 L0.612193764,2.43045657 C0.28435412,2.43045657 0.0182628062,2.69654788 0.0182628062,3.02438753 C0.0182628062,3.35222717 0.28435412,3.61831849 0.612193764,3.61831849 L7.73914254,3.61831849 C8.06698218,3.61831849 8.3330735,3.35222717 8.3330735,3.02438753 C8.3330735,2.69654788 8.06698218,2.43045657 7.73914254,2.43045657 Z" id="Path"></path>
                        <path d="M1.45194878,3.02433185 L3.40712695,1.06915367 C3.63875278,0.83752784 3.63875278,0.46096882 3.40712695,0.229342984 C3.17550111,-0.00228285078 2.79894209,-0.00228285078 2.56731626,0.229342984 L0.191703786,2.60506682 C-0.039922049,2.83669265 -0.039922049,3.21325167 0.191703786,3.44487751 L2.56737194,5.82054566 C2.68379733,5.9357461 2.83580178,5.99398664 2.98786192,5.99398664 C3.13992205,5.99398664 3.2919265,5.93580178 3.40718263,5.81937639 C3.63880846,5.58775056 3.63880846,5.21119154 3.40718263,4.9795657 L1.45194878,3.02433185 Z" id="Path"></path>
                        <path d="M22.5869154,11.9330178 C22.0987194,11.9330178 21.6437639,12.0815145 21.2660356,12.3345212 C20.9405902,11.410412 20.0580178,10.7452116 19.023441,10.7452116 C18.535245,10.7452116 18.0802895,10.8937082 17.7025612,11.1467149 C17.3771158,10.2226058 16.4945434,9.55740535 15.4599666,9.55740535 C15.0276169,9.55740535 14.6213808,9.67383073 14.2721604,9.87694878 L14.2721604,5.99393096 C14.2721604,4.68374165 13.2066815,3.61826281 11.8964922,3.61826281 C10.5863029,3.61826281 9.52082405,4.68374165 9.52082405,5.99393096 L9.52082405,16.0904232 L7.45640312,14.542706 C6.23296214,13.6244989 4.49159243,13.746882 3.40712695,14.8301782 C2.71224944,15.5250557 2.71224944,16.6546771 3.40712695,17.3495546 L11.8656459,25.8092428 C12.8752784,26.8188753 14.2187082,27.3747773 15.6464922,27.3747773 L18.4295657,27.3747773 C22.031069,27.3747773 24.9625835,24.4444321 24.9625835,20.8417595 L24.9625835,14.308686 C24.9625835,12.9984967 23.8971047,11.9330178 22.5869154,11.9330178 Z M23.7747773,20.8417038 C23.7747773,23.7886971 21.376559,26.1869154 18.4295657,26.1869154 L15.6464922,26.1869154 C14.5346882,26.1869154 13.4905902,25.7545657 12.7054566,24.9693764 L4.24693764,16.5097439 C4.0153118,16.278118 4.0153118,15.901559 4.24693764,15.6699332 C4.61514477,15.3028953 5.10690423,15.1140312 5.60105791,15.1140312 C6.00256125,15.1140312 6.40640312,15.2387528 6.74493318,15.4929287 L9.75846325,17.7533408 C9.93903118,17.8887528 10.1813474,17.9089644 10.380902,17.8091871 C10.5816258,17.7082405 10.7087416,17.5027283 10.7087416,17.2782294 L10.7087416,5.99393096 C10.7087416,5.33942094 11.2408686,4.80612472 11.8965479,4.80612472 C12.5522272,4.80612472 13.0843541,5.33947661 13.0843541,5.99393096 L13.0843541,14.9026169 C13.0843541,15.2304566 13.3504454,15.4965479 13.6782851,15.4965479 C14.0061247,15.4965479 14.272216,15.2304566 14.272216,14.9026169 L14.272216,11.9330735 C14.272216,11.2785635 14.804343,10.7452673 15.4600223,10.7452673 C16.1157016,10.7452673 16.6478285,11.2786192 16.6478285,11.9330735 L16.6478285,14.9026169 C16.6478285,15.2304566 16.9139198,15.4965479 17.2417595,15.4965479 C17.5695991,15.4965479 17.8356904,15.2304566 17.8356904,14.9026169 L17.8356904,13.1208797 C17.8356904,12.4663697 18.3678174,11.9330735 19.0234967,11.9330735 C19.6791759,11.9330735 20.2113029,12.4664254 20.2113029,13.1208797 L20.2113029,14.9026169 C20.2113029,15.2304566 20.4773942,15.4965479 20.8052339,15.4965479 C21.1330735,15.4965479 21.3991648,15.2304566 21.3991648,14.9026169 L21.3991648,14.308686 C21.3991648,13.6541759 21.9312918,13.1208797 22.586971,13.1208797 C23.2426503,13.1208797 23.7747773,13.6542316 23.7747773,14.308686 L23.7747773,20.8417038 Z" id="Shape" fill-rule="nonzero"></path>
                    </g>
                </g>
            </g>
        </g>
    </g>
</svg>