<?xml version="1.0" encoding="UTF-8"?>
<svg width="100px" height="92px" viewBox="0 0 100 92" version="1.1" xmlns="http://www.w3.org/2000/svg" xmlns:xlink="http://www.w3.org/1999/xlink">
    <!-- Generator: Sketch 52.4 (67378) - http://www.bohemiancoding.com/sketch -->
    <title>Group 8</title>
    <desc>Created with Sketch.</desc>
    <defs>
        <path d="M33.7913898,2.18542888 L63.6627172,52.736906 C64.0841624,53.4501209 63.8476363,54.3699446 63.1344214,54.7913898 C62.9033065,54.9279577 62.6397764,55 62.3713274,55 L2.62867259,55 C1.80024547,55 1.12867259,54.3284271 1.12867259,53.5 C1.12867259,53.231551 1.20071491,52.9680209 1.3372828,52.736906 L31.2086102,2.18542888 C31.6300554,1.47221399 32.5498791,1.23568789 33.263094,1.65713306 C33.4809317,1.78585536 33.6626675,1.96759113 33.7913898,2.18542888 Z" id="path-1"></path>
        <filter x="-46.0%" y="-50.1%" width="191.9%" height="210.1%" filterUnits="objectBoundingBox" id="filter-2">
            <feOffset dx="0" dy="2" in="SourceAlpha" result="shadowOffsetOuter1"></feOffset>
            <feGaussianBlur stdDeviation="10" in="shadowOffsetOuter1" result="shadowBlurOuter1"></feGaussianBlur>
            <feColorMatrix values="0 0 0 0 0.949019608   0 0 0 0 0.764705882   0 0 0 0 0.0431372549  0 0 0 0.25 0" type="matrix" in="shadowBlurOuter1"></feColorMatrix>
        </filter>
    </defs>
    <g id="Page-1" stroke="none" stroke-width="1" fill="none" fill-rule="evenodd">
        <g id="Коммерческая" transform="translate(-67.000000, -734.000000)">
            <g id="Group-8" transform="translate(85.000000, 749.000000)">
                <g id="Triangle">
                    <use fill="black" fill-opacity="1" filter="url(#filter-2)" xlink:href="#path-1"></use>
                    <use fill="#F2C30B" fill-rule="evenodd" xlink:href="#path-1"></use>
                </g>
                <path d="M29.272,18.6 L35.488,18.6 L34.438,38.256 L30.28,38.256 L29.272,18.6 Z M32.38,48.294 C31.3999951,48.294 30.5880032,47.9790031 29.944,47.349 C29.2999968,46.7189968 28.978,45.9420046 28.978,45.018 C28.978,44.0939954 29.2999968,43.3240031 29.944,42.708 C30.5880032,42.0919969 31.3999951,41.784 32.38,41.784 C33.3320048,41.784 34.1229968,42.0919969 34.753,42.708 C35.3830032,43.3240031 35.698,44.0939954 35.698,45.018 C35.698,45.9420046 35.3830032,46.7189968 34.753,47.349 C34.1229968,47.9790031 33.3320048,48.294 32.38,48.294 Z" id="!" fill="#FFFFFF"></path>
            </g>
        </g>
    </g>
</svg>