<svg width="113" height="224" viewBox="0 0 113 224" fill="none" xmlns="http://www.w3.org/2000/svg">
<path d="M117.053 96.6414H108.793V127.344H117.053V96.6414Z" fill="#E2E5EB"/>
<path d="M128.275 107.863H97.5723V116.122H128.275V107.863Z" fill="#E2E5EB"/>
<path d="M153.161 50.2748C151.815 46.4639 149.319 43.1647 146.019 40.8321C142.718 38.4996 138.775 37.2486 134.734 37.2519C133.492 37.2437 132.273 37.5913 131.222 38.2535C130.172 38.9158 129.333 39.8651 128.804 40.9891C128.276 42.1131 128.081 43.3649 128.241 44.5965C128.402 45.8281 128.912 46.9879 129.711 47.9389C129.835 48.0936 129.967 48.2414 130.108 48.3817L130.245 48.5038C130.344 48.6083 130.452 48.7053 130.566 48.7939C130.645 48.8684 130.732 48.9349 130.825 48.9923L131.054 49.1603C131.176 49.2455 131.303 49.322 131.436 49.3893L131.588 49.4962L132.062 49.7252C132.245 49.8097 132.434 49.8811 132.627 49.9389C133.269 50.1416 133.938 50.2446 134.611 50.2443C136.284 50.3253 137.861 51.0466 139.016 52.2589C140.171 53.4712 140.815 55.0813 140.815 56.7557C140.815 58.4301 140.171 60.0402 139.016 61.2525C137.861 62.4648 136.284 63.1861 134.611 63.2671C130.572 63.2672 126.633 62.0148 123.335 59.6825C120.038 57.3502 117.544 54.0526 116.199 50.2443C115.449 48.1475 115.067 45.9368 115.069 43.7099C115.087 39.3828 116.54 35.1839 119.201 31.7716C121.861 28.3593 125.579 25.9265 129.772 24.855C135.558 24.1374 139.817 22.1221 139.726 19.9389C139.619 17.374 133.619 15.5572 126.382 15.8626C123.33 15.938 120.307 16.4839 117.421 17.4809C117.421 16.9466 117.421 16.3969 117.421 15.8321C117.558 7.08397 115.405 0 112.84 0C110.276 0 108.26 7.08397 108.26 15.8321C108.26 16.3969 108.26 16.9466 108.26 17.4809C105.354 16.4791 102.31 15.9332 99.2374 15.8626C91.9702 15.5572 86.0007 17.3893 85.8938 19.9389C85.8022 22.1221 90.0465 24.1374 95.848 24.855C98.464 25.543 100.909 26.7657 103.029 28.4461C105.148 30.1264 106.896 32.2279 108.163 34.6179C109.43 37.0078 110.187 39.6344 110.388 42.3318C110.589 45.0292 110.228 47.739 109.329 50.2901C107.979 54.0984 105.483 57.3952 102.183 59.7271C98.8831 62.0591 94.942 63.3117 90.9015 63.313C89.2291 63.2319 87.652 62.5106 86.497 61.2983C85.342 60.086 84.6978 58.4759 84.6978 56.8015C84.6978 55.1271 85.342 53.517 86.497 52.3047C87.652 51.0924 89.2291 50.3711 90.9015 50.2901C91.5699 50.2915 92.2344 50.1885 92.8709 49.9847C93.0649 49.9295 93.2539 49.858 93.4358 49.771H93.5274L94.0007 49.542L94.1534 49.4351C94.2755 49.3588 94.4129 49.2977 94.5351 49.2061L94.7641 49.0381L95.1152 48.8549L95.4358 48.5649L95.5732 48.4427C95.7135 48.3025 95.846 48.1547 95.9702 48C96.7691 47.049 97.2789 45.8892 97.4395 44.6576C97.6001 43.426 97.4047 42.1742 96.8764 41.0502C96.3481 39.9261 95.509 38.9769 94.4583 38.3146C93.4076 37.6523 92.1893 37.3047 90.9473 37.313C86.9067 37.3142 82.9657 38.5669 79.666 40.8988C76.3663 43.2308 73.8698 46.5275 72.5198 50.3359C71.4888 53.2805 71.1778 56.4292 71.6128 59.5186C72.0478 62.6081 73.2162 65.5485 75.0203 68.0939C76.8243 70.6393 79.2116 72.7158 81.9825 74.1497C84.7534 75.5836 87.8274 76.3332 90.9473 76.3358C96.1275 76.3318 101.094 74.2711 104.756 70.6067C108.417 66.9423 110.474 61.9741 110.474 56.7939H115.192C115.19 59.3607 115.694 61.9028 116.675 64.2746C117.656 66.6465 119.096 68.8016 120.911 70.6166C122.726 72.4316 124.881 73.871 127.253 74.8524C129.625 75.8338 132.167 76.3379 134.734 76.3358C137.859 76.3358 140.939 75.5861 143.714 74.1497C146.49 72.7133 148.881 70.632 150.686 68.0807C152.491 65.5293 153.658 62.5821 154.089 59.4866C154.519 56.391 154.201 53.2373 153.161 50.2901" fill="#E2E5EB"/>
<path d="M112.85 71.4596L96.668 87.6421L112.85 103.825L129.033 87.6421L112.85 71.4596Z" fill="#E2E5EB"/>
<path d="M116.976 54.7021H108.717V85.4044H116.976V54.7021Z" fill="#E2E5EB"/>
<path d="M72.5343 173.695C73.8843 177.503 76.3808 180.8 79.6805 183.132C82.9802 185.464 86.9212 186.716 90.9618 186.718C92.2038 186.726 93.4221 186.378 94.4728 185.716C95.5235 185.054 96.3626 184.104 96.8909 182.98C97.4192 181.856 97.6146 180.604 97.454 179.373C97.2934 178.141 96.7836 176.981 95.9847 176.03C95.8625 175.878 95.7251 175.74 95.5877 175.588L95.4503 175.466L95.1297 175.176L94.8702 174.977L94.6412 174.809C94.519 174.718 94.3816 174.656 94.2595 174.58L94.1068 174.489L93.6335 174.244H93.5419L92.9771 174.03C92.3405 173.827 91.676 173.724 91.0076 173.725C89.3352 173.644 87.7581 172.923 86.6031 171.711C85.4481 170.498 84.8039 168.888 84.8039 167.214C84.8039 165.539 85.4481 163.929 86.6031 162.717C87.7581 161.505 89.3352 160.783 91.0076 160.702C95.0482 160.703 98.9892 161.956 102.289 164.288C105.589 166.62 108.085 169.917 109.435 173.725C110.334 176.275 110.695 178.984 110.494 181.68C110.293 184.377 109.535 187.002 108.269 189.391C107.002 191.78 105.253 193.88 103.134 195.559C101.014 197.238 98.5695 198.459 95.9542 199.145C90.1526 199.863 85.9084 201.878 86 204.061C86.1068 206.626 92.1068 208.443 99.3435 208.153C102.396 208.064 105.418 207.513 108.305 206.519C108.305 207.053 108.305 207.603 108.305 208.168C108.305 216.916 110.382 224 112.885 224C115.389 224 117.466 216.916 117.466 208.168C117.466 207.603 117.466 207.053 117.466 206.519C120.353 207.515 123.375 208.065 126.427 208.153C133.695 208.443 139.664 206.626 139.771 204.061C139.863 201.878 135.603 199.863 129.817 199.145C125.615 198.056 121.895 195.597 119.246 192.157C116.598 188.718 115.171 184.494 115.191 180.153C115.187 177.931 115.569 175.725 116.321 173.634C117.666 169.825 120.159 166.528 123.457 164.195C126.754 161.863 130.694 160.611 134.733 160.611C136.405 160.692 137.982 161.413 139.137 162.625C140.292 163.838 140.936 165.448 140.936 167.122C140.936 168.796 140.292 170.407 139.137 171.619C137.982 172.831 136.405 173.553 134.733 173.634C134.059 173.633 133.39 173.736 132.748 173.939L132.183 174.153L131.71 174.397L131.557 174.489C131.425 174.556 131.297 174.632 131.176 174.718L130.947 174.885L130.687 175.084C130.565 175.176 130.473 175.282 130.366 175.374L130.229 175.496C130.092 175.649 129.954 175.786 129.832 175.939C129.033 176.89 128.523 178.05 128.363 179.281C128.202 180.513 128.397 181.765 128.926 182.889C129.454 184.013 130.293 184.962 131.344 185.624C132.395 186.287 133.613 186.634 134.855 186.626C138.894 186.626 142.834 185.374 146.131 183.041C149.429 180.709 151.922 177.411 153.267 173.603C154.292 170.652 154.595 167.499 154.15 164.407C153.705 161.316 152.526 158.376 150.71 155.834C148.895 153.292 146.497 151.222 143.717 149.798C140.937 148.374 137.856 147.637 134.733 147.649C129.553 147.653 124.586 149.714 120.924 153.378C117.263 157.042 115.206 162.011 115.206 167.191H110.489C110.489 162.011 108.432 157.042 104.77 153.378C101.109 149.714 96.142 147.653 90.9618 147.649C87.8377 147.651 84.7597 148.403 81.986 149.84C79.2122 151.278 76.8235 153.359 75.0201 155.91C73.2168 158.461 72.0513 161.408 71.6214 164.502C71.1916 167.596 71.5098 170.749 72.5496 173.695" fill="#E2E5EB"/>
<path d="M112.835 120.146L96.6523 136.329L112.835 152.511L129.017 136.329L112.835 120.146Z" fill="#E2E5EB"/>
<path d="M116.976 138.565H108.717V169.267H116.976V138.565Z" fill="#E2E5EB"/>
<path d="M50.2748 71.9541C46.4664 73.3042 43.1697 75.8006 40.8377 79.1003C38.5058 82.4 37.2531 86.3411 37.2519 90.3816C37.2437 91.6236 37.5913 92.842 38.2535 93.8927C38.9158 94.9433 39.8651 95.7824 40.9891 96.3107C42.1131 96.839 43.3649 97.0344 44.5965 96.8739C45.8281 96.7133 46.9879 96.2034 47.9389 95.4045L48.3817 95.0076L48.5038 94.8702L48.7939 94.5496L48.9923 94.29L49.1603 94.061C49.2477 93.9408 49.3244 93.8131 49.3893 93.6793L49.4962 93.5267L49.7252 93.0534C49.7318 93.0232 49.7318 92.9919 49.7252 92.9618C49.8122 92.7798 49.8837 92.5909 49.9389 92.3969C50.1416 91.7548 50.2446 91.0855 50.2443 90.4122C50.3253 88.7397 51.0466 87.1626 52.2589 86.0077C53.4712 84.8527 55.0813 84.2085 56.7557 84.2085C58.4301 84.2085 60.0402 84.8527 61.2525 86.0077C62.4648 87.1626 63.1861 88.7397 63.2671 90.4122C63.2682 94.4532 62.0164 98.3953 59.6841 101.695C57.3519 104.996 54.0539 107.492 50.2443 108.84C48.1475 109.59 45.9368 109.972 43.7099 109.969C39.3878 109.965 35.189 108.529 31.7694 105.885C28.3499 103.242 25.9023 99.5403 24.8092 95.3587C24.0916 89.5572 22.0763 85.3129 19.8931 85.4045C17.3282 85.5114 15.5114 91.5114 15.8168 98.748C15.8905 101.802 16.4417 104.826 17.4504 107.71H15.7863C7.08397 107.634 0 109.71 0 112.259C0 114.809 7.08397 116.84 15.8321 116.84H17.4962C16.486 119.723 15.9348 122.747 15.8626 125.801C15.5572 133.069 17.3893 139.038 19.9389 139.145C22.1221 139.237 24.1374 134.977 24.855 129.191C25.9481 125.009 28.3957 121.308 31.8152 118.664C35.2348 116.021 39.4336 114.585 43.7557 114.58C45.9826 114.577 48.1933 114.96 50.2901 115.71C54.0972 117.057 57.3935 119.551 59.7255 122.848C62.0575 126.145 63.3108 130.084 63.313 134.122C63.2319 135.794 62.5106 137.372 61.2983 138.527C60.086 139.682 58.4759 140.326 56.8015 140.326C55.1271 140.326 53.517 139.682 52.3047 138.527C51.0924 137.372 50.3711 135.794 50.2901 134.122C50.2904 133.449 50.1874 132.779 49.9847 132.137C49.9268 131.949 49.8554 131.766 49.771 131.588C49.7776 131.558 49.7776 131.526 49.771 131.496L49.542 131.023C49.51 130.969 49.4743 130.918 49.4351 130.87C49.3735 130.735 49.2967 130.607 49.2061 130.488L49.0381 130.259C48.9807 130.167 48.9142 130.08 48.8397 130L48.5496 129.679L48.4275 129.542L47.9847 129.145C47.0337 128.346 45.8739 127.836 44.6423 127.676C43.4107 127.515 42.1589 127.71 41.0349 128.239C39.9109 128.767 38.9616 129.606 38.2993 130.657C37.6371 131.708 37.2895 132.926 37.2977 134.168C37.2989 138.208 38.5516 142.149 40.8835 145.449C43.2155 148.749 46.5122 151.245 50.3206 152.595C53.2673 153.63 56.419 153.943 59.5117 153.509C62.6044 153.074 65.5479 151.905 68.0957 150.099C70.6435 148.293 72.7212 145.902 74.1549 143.128C75.5886 140.353 76.3365 137.276 76.3358 134.153C76.3358 131.587 75.8303 129.047 74.848 126.677C73.8657 124.306 72.4261 122.153 70.6112 120.34C68.7964 118.526 66.642 117.088 64.2711 116.108C61.9003 115.127 59.3594 114.624 56.7939 114.626V109.924C61.9767 109.924 66.9473 107.865 70.6121 104.2C74.277 100.535 76.3358 95.5645 76.3358 90.3816C76.3366 87.2544 75.5869 84.1727 74.1497 81.3953C72.7124 78.6179 70.6296 76.2261 68.0762 74.4206C65.5229 72.6151 62.5735 71.4488 59.4759 71.0196C56.3782 70.5905 53.2229 70.9109 50.2748 71.9541Z" fill="#E2E5EB"/>
<path d="M87.6473 96.0856L71.4648 112.268L87.6473 128.451L103.83 112.268L87.6473 96.0856Z" fill="#E2E5EB"/>
<path d="M85.4054 108.137H54.7031V116.397H85.4054V108.137Z" fill="#E2E5EB"/>
</svg>
