<svg width="16" height="16" viewBox="0 0 16 16" fill="none" xmlns="http://www.w3.org/2000/svg">
<path fill-rule="evenodd" clip-rule="evenodd" d="M8.19526 4.19526C8.45561 3.93491 8.87772 3.93491 9.13807 4.19526L12.4714 7.5286C12.7318 7.78894 12.7318 8.21106 12.4714 8.4714L9.13807 11.8047C8.87772 12.0651 8.45561 12.0651 8.19526 11.8047C7.93491 11.5444 7.93491 11.1223 8.19526 10.8619L11.0572 8L8.19526 5.13807C7.93491 4.87772 7.93491 4.45561 8.19526 4.19526Z" fill="#ADB5BD"/>
<path fill-rule="evenodd" clip-rule="evenodd" d="M3.52827 4.19526C3.78862 3.93491 4.21073 3.93491 4.47108 4.19526L7.80441 7.5286C8.06476 7.78894 8.06476 8.21106 7.80441 8.4714L4.47108 11.8047C4.21073 12.0651 3.78862 12.0651 3.52827 11.8047C3.26792 11.5444 3.26792 11.1223 3.52827 10.8619L6.3902 8L3.52827 5.13807C3.26792 4.87772 3.26792 4.45561 3.52827 4.19526Z" fill="#ADB5BD"/>
</svg>
