<svg width="40" height="40" viewBox="0 0 40 40" fill="none" xmlns="http://www.w3.org/2000/svg">
<circle cx="20" cy="20" r="20" fill="#FF0000"/>
<path d="M27 27C27.5523 27 28 27.4477 28 28C28 28.5523 27.5523 29 27 29H13C12.4477 29 12 28.5523 12 28C12 27.4477 12.4477 27 13 27H27ZM20 10C20.5523 10 21 10.4477 21 11V21.585L25.2929 17.2929C25.6534 16.9324 26.2206 16.9047 26.6129 17.2097L26.7071 17.2929C27.0976 17.6834 27.0976 18.3166 26.7071 18.7071L20.7071 24.7071C20.6786 24.7356 20.6485 24.7623 20.6167 24.7872C20.6098 24.7927 20.6026 24.7982 20.5953 24.8037C20.5711 24.8215 20.5463 24.8383 20.5207 24.8539C20.5086 24.8614 20.4964 24.8685 20.4841 24.8753C20.4643 24.8862 20.4439 24.8966 20.4231 24.9063C20.4061 24.9143 20.3888 24.9218 20.3713 24.9288C20.3516 24.9367 20.3318 24.9439 20.3117 24.9505C20.2969 24.9553 20.2815 24.9599 20.266 24.9642C20.2444 24.9702 20.2227 24.9754 20.2008 24.9798C20.1834 24.9833 20.1659 24.9864 20.1485 24.989C20.1281 24.9921 20.1071 24.9946 20.0858 24.9964C20.0679 24.9979 20.0506 24.9989 20.0332 24.9995C20.0224 24.9998 20.0112 25 20 25L19.9677 24.9995C19.9497 24.9989 19.9317 24.9978 19.9138 24.9963L20 25C19.9494 25 19.8996 24.9962 19.851 24.989C19.8341 24.9864 19.8166 24.9833 19.7993 24.9798C19.7773 24.9754 19.7556 24.9702 19.7342 24.9643C19.7185 24.9599 19.7031 24.9553 19.6879 24.9503C19.6682 24.9439 19.6484 24.9367 19.6289 24.9289C19.6112 24.9218 19.5939 24.9143 19.5768 24.9063C19.5561 24.8966 19.5357 24.8862 19.5157 24.8751C19.5036 24.8685 19.4914 24.8614 19.4793 24.854C19.4537 24.8383 19.4289 24.8215 19.4048 24.8037C19.3657 24.7747 19.3283 24.7425 19.2929 24.7071L19.3833 24.7872C19.3515 24.7623 19.3214 24.7356 19.2929 24.7071L13.2929 18.7071C12.9024 18.3166 12.9024 17.6834 13.2929 17.2929C13.6834 16.9024 14.3166 16.9024 14.7071 17.2929L19 21.585V11C19 10.4477 19.4477 10 20 10Z" fill="white"/>
</svg>
