<svg width="16" height="16" viewBox="0 0 16 16" fill="none" xmlns="http://www.w3.org/2000/svg">
<path d="M15.9646 8.74829H0.0361328V8.74853H15.9646V8.74829Z" fill="#C42126"/>
<path d="M15.1343 4.38098H0.865723V4.38122H15.1343V4.38098Z" fill="#C42126"/>
<path d="M15.7011 5.83655H0.298218V5.83678H15.7011V5.83655Z" fill="#C42126"/>
<path d="M3.43849 14.5706H12.5618L12.5623 14.5701H3.43799L3.43849 14.5706Z" fill="#C42126"/>
<path d="M7.99962 0C7.84249 0 7.6866 0.00567475 7.53186 0.0145247H8.46748C8.31261 0.00567475 8.15676 0 7.99962 0Z" fill="#C42126"/>
<path d="M15.9665 7.29236H0.032959V7.29259H15.9665V7.29236Z" fill="#C42126"/>
<path d="M10.3645 2.92552H14.1846C13.7308 2.37314 13.2035 1.88417 12.6193 1.47021H9.75073C9.98809 1.88782 10.1922 2.38057 10.3645 2.92552Z" fill="#E7E7E7"/>
<path d="M9.75062 1.4702H12.6191C11.4333 0.629832 10.0096 0.103566 8.46775 0.0145264H8.22144C8.94713 0.105863 9.28046 0.642938 9.75062 1.4702Z" fill="#DC3027"/>
<path d="M15.7017 5.83665C15.5595 5.32937 15.3687 4.84266 15.1343 4.38135H10.7395C10.8285 4.8486 10.8988 5.33667 10.9508 5.83665H15.7017Z" fill="#E7E7E7"/>
<path d="M10.4925 4.3812H15.1344C14.8699 3.86091 14.5521 3.37268 14.1848 2.92566H10.1299C10.2729 3.37825 10.3943 3.86649 10.4925 4.3812Z" fill="#DC3027"/>
<path d="M11.1189 8.74789H15.9638C15.9868 8.50171 15.9998 8.25222 15.9998 8.0001C15.9998 7.76149 15.9873 7.52592 15.9668 7.29248H11.12C11.1358 7.77652 11.1355 8.26411 11.1189 8.74789Z" fill="#E7E7E7"/>
<path d="M15.9672 7.29222C15.9234 6.79237 15.8333 6.30606 15.7018 5.83691H10.7468C10.7966 6.31349 10.8294 6.80108 10.8455 7.29222H15.9672Z" fill="#DC3027"/>
<path d="M10.656 11.6592H15.1135C15.3512 11.1983 15.5449 10.7113 15.6902 10.2036H10.8715C10.8184 10.7043 10.7464 11.1923 10.656 11.6592Z" fill="#E7E7E7"/>
<path d="M15.69 10.2035C15.8243 9.73446 15.9175 9.24816 15.9638 8.74817H10.9679C10.9508 9.23968 10.917 9.72713 10.8662 10.2035H15.69Z" fill="#DC3027"/>
<path d="M12.5622 14.5701C13.1549 14.1578 13.6897 13.6683 14.1506 13.1147H10.3971C10.2217 13.662 10.0134 14.1539 9.77173 14.5701H12.5622Z" fill="#E7E7E7"/>
<path d="M10.2559 13.1147H14.1506C14.5222 12.6682 14.8448 12.18 15.1132 11.6592H10.6231C10.5234 12.1743 10.4008 12.6627 10.2559 13.1147Z" fill="#DC3027"/>
<path d="M7.71013 15.9943C7.69395 15.9938 7.6778 15.9931 7.66162 15.9926C7.6778 15.993 7.69398 15.9938 7.71013 15.9943Z" fill="#DC3027"/>
<path d="M8 16.0001C9.69604 16.0001 11.2675 15.4707 12.5618 14.5707H9.66649C9.15262 15.456 8.81358 16.0001 8 16.0001Z" fill="#DC3027"/>
<path d="M8.00009 15.9999C7.90294 15.9999 7.80644 15.9977 7.71021 15.9943C7.80745 15.9975 7.90406 15.9999 8.00009 15.9999Z" fill="#C42126"/>
<path d="M10.0155 1.47021H3.38088C2.79655 1.88417 2.26931 2.37311 1.81543 2.92552H10.6292C10.4569 2.38057 10.2529 1.88782 10.0155 1.47021Z" fill="#F3F4F5"/>
<path d="M3.3811 1.4702H10.0157C9.54547 0.642938 8.94736 0.105863 8.22167 0.0145264H7.53235C5.99054 0.103566 4.56682 0.629832 3.3811 1.4702Z" fill="#E73625"/>
<path d="M0.298462 5.83665H11.2031C11.1511 5.33656 11.0808 4.8486 10.9918 4.38135H0.86587C0.631415 4.84269 0.440702 5.32937 0.298462 5.83665Z" fill="#F3F4F5"/>
<path d="M1.81523 2.92554C1.44816 3.37256 1.13011 3.86076 0.865723 4.38108H10.9915C10.8933 3.86647 10.772 3.37827 10.629 2.92554C10.629 2.92554 1.81523 2.92554 1.81523 2.92554Z" fill="#E73625"/>
<path d="M0.00012207 8.00012C0.00012207 8.25224 0.0132618 8.50173 0.0361297 8.74791H11.3009C11.3176 8.2641 11.3178 7.77665 11.302 7.2926H0.0330897C0.01262 7.52594 0.00012207 7.76151 0.00012207 8.00012Z" fill="#F3F4F5"/>
<path d="M0.032959 7.29222H11.3018C11.2857 6.80098 11.2528 6.31353 11.2031 5.83691H0.29822C0.166721 6.30616 0.0766681 6.79237 0.032959 7.29222Z" fill="#E73625"/>
<path d="M11.1993 10.2035H0.310059C0.455339 10.7113 0.649226 11.1982 0.886823 11.659H10.9838C11.0743 11.1923 11.1461 10.7043 11.1993 10.2035Z" fill="#F3F4F5"/>
<path d="M0.310096 10.2035H11.1993C11.25 9.72713 11.284 9.23954 11.301 8.74817H0.0362549C0.0825987 9.24826 0.175962 9.73446 0.310096 10.2035Z" fill="#E73625"/>
<path d="M3.43791 14.5701H9.9912C10.2329 14.1538 10.4413 13.662 10.6166 13.1147H1.84949C2.31043 13.6683 2.8451 14.1578 3.43791 14.5701Z" fill="#F3F4F5"/>
<path d="M0.886963 11.6591C1.1554 12.1799 1.47798 12.6681 1.84961 13.1146H10.6167C10.7615 12.6626 10.8842 12.1742 10.9838 11.6591H0.886963Z" fill="#E73625"/>
<path d="M7.66161 15.9925C7.67779 15.993 7.69393 15.9938 7.71011 15.9943C7.80638 15.9977 7.90289 16 8 16C8.81362 16 9.47702 15.4559 9.99099 14.5706H3.43848C4.64595 15.4104 6.09531 15.9272 7.66161 15.9925Z" fill="#E73625"/>
<path d="M7.8347 0.00415039C3.73513 0.087549 0.393783 3.25288 0.0341797 7.27922H7.83484V0.00415039H7.8347Z" fill="#283991"/>
<path d="M1.60039 4.53271L1.72227 4.90799H2.11714L1.79769 5.14005L1.9197 5.5156L1.60039 5.2834L1.28119 5.5156L1.40296 5.14005L1.08362 4.90799H1.47849L1.60039 4.53271Z" fill="#EFEFEF"/>
<path d="M1.60039 5.85852L1.72227 6.23403H2.11714L1.79769 6.46609L1.9197 6.84164L1.60039 6.60945L1.28119 6.84164L1.40296 6.46609L1.08362 6.23403H1.47849L1.60039 5.85852Z" fill="#EFEFEF"/>
<path d="M2.92658 2.54346L3.04848 2.91887H3.44322L3.12388 3.15106L3.24578 3.52634L2.92658 3.29442L2.60724 3.52634L2.72914 3.15106L2.40967 2.91887H2.80454L2.92658 2.54346Z" fill="#EFEFEF"/>
<path d="M2.92658 3.86951L3.04848 4.24492H3.44322L3.12388 4.47684L3.24578 4.85239L2.92658 4.62047L2.60724 4.85239L2.72914 4.47684L2.40967 4.24492H2.80454L2.92658 3.86951Z" fill="#EFEFEF"/>
<path d="M2.92658 5.19556L3.04848 5.5711H3.44322L3.12388 5.80289L3.24578 6.17844L2.92658 5.94628L2.60724 6.17844L2.72914 5.80289L2.40967 5.5711H2.80454L2.92658 5.19556Z" fill="#EFEFEF"/>
<path d="M0.593787 6.17844L0.47178 5.8029L0.79112 5.57097H0.396488L0.387639 5.54358C0.344301 5.67761 0.305152 5.81326 0.269043 5.95044L0.274616 5.94628L0.593787 6.17844Z" fill="#EFEFEF"/>
<path d="M1.28143 4.18941L1.60063 3.95725L1.91997 4.18941L1.79796 3.81386L2.1173 3.5817H1.72244L1.60053 3.20642L1.47862 3.5817H1.33311C1.30609 3.62264 1.27994 3.66382 1.25366 3.70536L1.40323 3.81386L1.28143 4.18941Z" fill="#EFEFEF"/>
<path d="M2.92679 1.96829L3.24599 2.20021L3.12409 1.82493L3.44329 1.59277H3.21529C3.02164 1.73755 2.83481 1.89077 2.65531 2.05243L2.60718 2.20021L2.92679 1.96829Z" fill="#EFEFEF"/>
<path d="M3.93335 1.53727L4.25269 1.30511L4.57189 1.53727L4.44998 1.16173L4.76919 0.929805H4.37446L4.3579 0.879272C4.22414 0.947606 4.09177 1.01871 3.9624 1.09437L4.05512 1.16169L3.93335 1.53727Z" fill="#EFEFEF"/>
<path d="M4.25284 1.88049L4.37475 2.25567H4.76948L4.45014 2.48782L4.57205 2.86337L4.25284 2.63118L3.9335 2.86337L4.05541 2.48782L3.73596 2.25567H4.1308L4.25284 1.88049Z" fill="#EFEFEF"/>
<path d="M4.25284 3.20654L4.37475 3.58172H4.76948L4.45014 3.81388L4.57205 4.18942L4.25284 3.95723L3.9335 4.18942L4.05541 3.81388L3.73596 3.58172H4.1308L4.25284 3.20654Z" fill="#EFEFEF"/>
<path d="M4.25284 4.53271L4.37475 4.90799H4.76948L4.45014 5.14005L4.57205 5.5156L4.25284 5.2834L3.9335 5.5156L4.05541 5.14005L3.73596 4.90799H4.1308L4.25284 4.53271Z" fill="#EFEFEF"/>
<path d="M4.25284 5.85852L4.37475 6.23403H4.76948L4.45014 6.46609L4.57205 6.84164L4.25284 6.60945L3.9335 6.84164L4.05541 6.46609L3.73596 6.23403H4.1308L4.25284 5.85852Z" fill="#EFEFEF"/>
<path d="M5.57864 1.21729L5.70055 1.5927H6.09528L5.77608 1.82489L5.89785 2.20017L5.57864 1.96825L5.2592 2.20017L5.38121 1.82489L5.06177 1.5927H5.4566L5.57864 1.21729Z" fill="#EFEFEF"/>
<path d="M5.57864 2.54346L5.70055 2.91887H6.09528L5.77608 3.15106L5.89785 3.52634L5.57864 3.29442L5.2592 3.52634L5.38121 3.15106L5.06177 2.91887H5.4566L5.57864 2.54346Z" fill="#EFEFEF"/>
<path d="M5.57864 3.86951L5.70055 4.24492H6.09528L5.77608 4.47684L5.89785 4.85239L5.57864 4.62047L5.2592 4.85239L5.38121 4.47684L5.06177 4.24492H5.4566L5.57864 3.86951Z" fill="#EFEFEF"/>
<path d="M5.57864 5.19556L5.70055 5.5711H6.09528L5.77608 5.80289L5.89785 6.17844L5.57864 5.94628L5.2592 6.17844L5.38121 5.80289L5.06177 5.5711H5.4566L5.57864 5.19556Z" fill="#EFEFEF"/>
<path d="M6.90494 0.554443L7.02684 0.929856H7.42158L7.10224 1.16178L7.22414 1.53733L6.90494 1.30513L6.5855 1.53733L6.7075 1.16178L6.38806 0.929856H6.78279L6.90494 0.554443Z" fill="#EFEFEF"/>
<path d="M6.90494 1.88049L7.02684 2.25567H7.42158L7.10224 2.48782L7.22414 2.86337L6.90494 2.63118L6.5855 2.86337L6.7075 2.48782L6.38806 2.25567H6.78279L6.90494 1.88049Z" fill="#EFEFEF"/>
<path d="M6.90494 3.20654L7.02684 3.58172H7.42158L7.10224 3.81388L7.22414 4.18942L6.90494 3.95723L6.5855 4.18942L6.7075 3.81388L6.38806 3.58172H6.78279L6.90494 3.20654Z" fill="#EFEFEF"/>
<path d="M6.90494 4.53271L7.02684 4.90799H7.42158L7.10224 5.14005L7.22414 5.5156L6.90494 5.2834L6.5855 5.5156L6.7075 5.14005L6.38806 4.90799H6.78279L6.90494 4.53271Z" fill="#EFEFEF"/>
<path d="M6.90494 5.85852L7.02684 6.23403H7.42158L7.10224 6.46609L7.22414 6.84164L6.90494 6.60945L6.5855 6.84164L6.7075 6.46609L6.38806 6.23403H6.78279L6.90494 5.85852Z" fill="#EFEFEF"/>
</svg>
