<svg width="24" height="24" viewBox="0 0 24 24" fill="none" xmlns="http://www.w3.org/2000/svg">
<path d="M20.3195 8.28157C21.5745 9.52662 22.2856 11.1409 22.2856 12.8571C22.2856 13.9453 22 14.9964 21.4626 15.9417C21.5493 16.4589 21.7991 17.2439 22.2133 18.27L22.4349 18.8047L22.4837 18.9486L22.5051 19.0328C22.6173 19.5884 22.3245 20.1511 21.7972 20.3747C21.6294 20.4458 21.4477 20.4778 21.2658 20.4683C19.6303 20.3823 18.3256 19.9835 17.3744 19.2481C16.4894 19.5546 15.5424 19.7143 14.5713 19.7143C13.5817 19.7143 12.6165 19.5485 11.7153 19.2295C11.269 19.0715 11.0353 18.5817 11.1933 18.1355C11.3512 17.6892 11.841 17.4555 12.2873 17.6135C13.0048 17.8674 13.7766 18 14.5713 18C15.5025 18 16.4015 17.8179 17.217 17.4732C17.5398 17.3367 17.9132 17.4105 18.1598 17.6595C18.6309 18.1351 19.3354 18.4664 20.2869 18.6375L20.5299 18.6769C20.0382 17.4294 19.7684 16.4872 19.7217 15.8113C19.7092 15.6292 19.755 15.4479 19.8527 15.2936C20.323 14.551 20.5713 13.72 20.5713 12.8571C20.5713 11.611 20.0511 10.4301 19.1122 9.49855C18.7761 9.16514 18.774 8.62244 19.1074 8.28638C19.4408 7.95032 19.9835 7.94817 20.3195 8.28157ZM9.42831 2.57141C13.6652 2.57141 17.1426 5.61411 17.1426 9.42856C17.1426 13.243 13.6652 16.2857 9.42831 16.2857C8.45718 16.2857 7.51017 16.126 6.62524 15.8195C5.674 16.555 4.36929 16.9537 2.73386 17.0397C2.55191 17.0493 2.37017 17.0173 2.20243 16.9461C1.67514 16.7226 1.38232 16.1598 1.49447 15.6042L1.51595 15.5201L1.56475 15.3761L1.67928 15.1029C2.12098 14.0369 2.39809 13.2097 2.51195 12.648L2.53702 12.5131L2.40793 12.2747C1.95399 11.3924 1.71402 10.426 1.71402 9.42856C1.71402 5.61411 5.19139 2.57141 9.42831 2.57141ZM9.42831 4.2857C6.09103 4.2857 3.42831 6.61558 3.42831 9.42856C3.42831 10.2914 3.67658 11.1224 4.14691 11.8651C4.24458 12.0193 4.29046 12.2007 4.27788 12.3828C4.2345 13.0104 3.99885 13.8675 3.57165 14.9856L3.46967 15.2483L3.7127 15.2089C4.6642 15.0379 5.36872 14.7066 5.83983 14.2309C6.08645 13.9819 6.45981 13.9081 6.7826 14.0446C7.59806 14.3894 8.49707 14.5714 9.42831 14.5714C12.7656 14.5714 15.4283 12.2415 15.4283 9.42856C15.4283 6.61558 12.7656 4.2857 9.42831 4.2857Z" fill="white"/>
</svg>
