<svg width="36" height="36" viewBox="0 0 36 36" fill="none" xmlns="http://www.w3.org/2000/svg">
<path d="M18.6424 2.57141C22.8217 2.57141 26.7209 4.24614 29.5714 7.10838L29.571 5.14284L29.5797 4.9929C29.6539 4.35346 30.1974 3.85713 30.8567 3.85713C31.5668 3.85713 32.1424 4.43276 32.1424 5.14284V10.2857L32.1338 10.4356C32.0595 11.0751 31.5161 11.5714 30.8567 11.5714H25.7139L25.5639 11.5628C24.9245 11.4885 24.4282 10.9451 24.4282 10.2857C24.4282 9.57562 25.0038 8.99998 25.7139 8.99998L27.8259 9.00046C25.4435 6.56745 22.1635 5.14284 18.6424 5.14284C11.5416 5.14284 5.7853 10.8992 5.7853 18C5.7853 25.1008 11.5416 30.8571 18.6424 30.8571C22.1007 30.8571 25.3387 29.4872 27.7353 27.0899C28.2373 26.5877 29.0514 26.5875 29.5536 27.0896C30.0558 27.5916 30.0559 28.4057 29.5539 28.9078C26.6798 31.7828 22.7898 33.4286 18.6424 33.4286C10.1215 33.4286 3.21387 26.5209 3.21387 18C3.21387 9.47902 10.1215 2.57141 18.6424 2.57141ZM17.9996 10.2857C18.7097 10.2857 19.2853 10.8613 19.2853 11.5714V17.4674L22.7659 20.948C23.268 21.4501 23.268 22.2642 22.7659 22.7663C22.2638 23.2684 21.4497 23.2684 20.9476 22.7663L17.0904 18.9091C16.8493 18.668 16.7139 18.341 16.7139 18V11.5714C16.7139 10.8613 17.2895 10.2857 17.9996 10.2857Z" fill="#888888"/>
</svg>
