<svg width="22" height="20" viewBox="0 0 22 20" fill="none" xmlns="http://www.w3.org/2000/svg">
<path fill-rule="evenodd" clip-rule="evenodd" d="M8.19717 20H9.60494V19.9775L10.853 17.7644C10.8676 17.7396 10.8882 17.719 10.9129 17.7045C10.9376 17.69 10.9656 17.6822 10.9941 17.6818C11.0228 17.6815 11.0511 17.689 11.0759 17.7035C11.1008 17.7181 11.1213 17.7391 11.1353 17.7644L12.3796 19.9775V20H13.8171C13.1857 18.8803 12.5554 17.7619 11.9265 16.6448V16.6222H11.8893C11.7978 16.4764 11.6713 16.3562 11.5217 16.273C11.372 16.1898 11.2039 16.1461 11.0331 16.1461C10.8623 16.1461 10.6943 16.1898 10.5446 16.273C10.395 16.3562 10.2685 16.4764 10.177 16.6222H10.1398V16.6448C9.47122 17.7619 8.82367 18.8803 8.19717 20ZM2.71465 20H3.56526L2.82237 18.6812C2.75016 18.5503 2.71225 18.4028 2.71225 18.2529C2.71225 18.1029 2.75016 17.9555 2.82237 17.8245L3.19382 17.0956C3.26904 16.9612 3.37651 16.848 3.50634 16.7666C3.63617 16.6851 3.78417 16.6381 3.9367 16.6297H5.54134C5.69388 16.6381 5.84188 16.6851 5.97171 16.7666C6.10153 16.848 6.20901 16.9612 6.28423 17.0956L6.40681 17.3098C6.46013 17.4049 6.48828 17.5123 6.48853 17.6217C6.48902 17.7027 6.4736 17.7831 6.44316 17.8581C6.41272 17.933 6.36787 18.0012 6.3112 18.0585C6.25454 18.1158 6.18719 18.1612 6.11306 18.192C6.03893 18.2227 5.95949 18.2383 5.87936 18.2378C5.78688 18.2297 5.69751 18.2 5.61825 18.1511C5.53899 18.1023 5.47198 18.0355 5.42248 17.9561C5.37968 17.8818 5.31842 17.8202 5.24478 17.7774C5.17114 17.7345 5.0877 17.7119 5.00275 17.7118H4.5533C4.46736 17.7117 4.3829 17.7345 4.30852 17.7781C4.23414 17.8216 4.1725 17.8843 4.12985 17.9598L4.10757 17.9974C4.07017 18.0685 4.05061 18.1479 4.05061 18.2285C4.05061 18.309 4.07017 18.3884 4.10757 18.4595L4.51987 19.211C4.56174 19.2874 4.62311 19.3511 4.69759 19.3954C4.77207 19.4396 4.85693 19.4629 4.94332 19.4627H6.86368C6.94722 19.4624 7.02928 19.4404 7.10209 19.399C7.1749 19.3576 7.23603 19.298 7.2797 19.226L7.78486 18.328C7.84609 18.1937 7.87778 18.0476 7.87773 17.8997C7.87843 17.7465 7.84544 17.5951 7.78115 17.4563L5.51906 13.4586C5.44686 13.327 5.40897 13.1789 5.40897 13.0284C5.40897 12.8779 5.44686 12.7298 5.51906 12.5982L5.9165 11.8994C5.99172 11.7649 6.0992 11.6517 6.22903 11.5703C6.35885 11.4889 6.50686 11.4418 6.65939 11.4335H8.2826C8.43513 11.4418 8.58313 11.4889 8.71296 11.5703C8.84279 11.6517 8.95027 11.7649 9.02549 11.8994L9.14806 12.1173C9.2019 12.2108 9.2301 12.3172 9.22978 12.4254C9.22771 12.5565 9.18432 12.6836 9.10594 12.788C9.02755 12.8925 8.91826 12.969 8.79395 13.0063C8.66964 13.0436 8.53681 13.0398 8.41478 12.9955C8.29275 12.9511 8.18789 12.8686 8.11545 12.7598C8.07265 12.6855 8.01138 12.6239 7.93775 12.5811C7.86411 12.5383 7.78067 12.5157 7.69572 12.5156H7.2797C7.19291 12.5159 7.10774 12.5393 7.03275 12.5835C6.95776 12.6277 6.89561 12.6911 6.85254 12.7673V12.8011C6.81483 12.8715 6.79508 12.9503 6.79508 13.0303C6.79508 13.1103 6.81483 13.1891 6.85254 13.2595L7.36885 14.1988C7.41101 14.275 7.47245 14.3384 7.54687 14.3827C7.62128 14.4269 7.70598 14.4503 7.79229 14.4505H9.69409C9.77861 14.4504 9.86167 14.4283 9.93521 14.3861C10.0088 14.344 10.0703 14.2833 10.1138 14.2101L10.8307 12.9401C10.8363 12.9053 10.8363 12.8698 10.8307 12.8349C10.8316 12.7864 10.8201 12.7386 10.7973 12.6959L8.39403 8.36379C8.32806 8.21985 8.29638 8.06227 8.30154 7.9037C8.3067 7.74514 8.34856 7.59001 8.42375 7.45077L10.099 4.47879C10.1824 4.30493 10.3125 4.15834 10.4744 4.05577C10.6363 3.95321 10.8235 3.89882 11.0146 3.89882C11.2056 3.89882 11.3928 3.95321 11.5547 4.05577C11.7166 4.15834 11.8468 4.30493 11.9302 4.47879L13.5942 7.44702C13.667 7.58707 13.7075 7.74196 13.7126 7.90008C13.7177 8.05819 13.6874 8.21544 13.624 8.36003L11.1984 12.6771C11.1745 12.7195 11.1617 12.7673 11.1613 12.8161C11.163 12.8522 11.1705 12.8877 11.1836 12.9213L11.9005 14.1913C11.944 14.2646 12.0055 14.3252 12.0791 14.3673C12.1526 14.4095 12.2357 14.4317 12.3202 14.4318H14.2703C14.3571 14.4318 14.4425 14.4086 14.5175 14.3643C14.5926 14.3201 14.6547 14.2565 14.6974 14.18L15.2137 13.2407C15.2515 13.1703 15.2712 13.0916 15.2712 13.0115C15.2712 12.9315 15.2515 12.8527 15.2137 12.7823V12.7485C15.1719 12.6721 15.1105 12.6084 15.036 12.5641C14.9615 12.5198 14.8767 12.4966 14.7903 12.4968H14.3149C14.2299 12.4969 14.1465 12.5195 14.0728 12.5623C13.9992 12.6052 13.9379 12.6668 13.8951 12.741C13.8405 12.8285 13.7648 12.9006 13.6752 12.9506C13.5856 13.0005 13.4849 13.0266 13.3825 13.0265C13.3011 13.027 13.2204 13.0111 13.1451 12.9797C13.0698 12.9483 13.0015 12.9021 12.9441 12.8437C12.8867 12.7852 12.8414 12.7158 12.8108 12.6395C12.7802 12.5632 12.7649 12.4814 12.7659 12.3991C12.7656 12.2909 12.7938 12.1845 12.8476 12.091L12.9702 11.8731C13.0471 11.736 13.1575 11.6211 13.2908 11.5395C13.4241 11.458 13.5759 11.4124 13.7317 11.4072H15.34C15.4926 11.4155 15.6406 11.4626 15.7704 11.544C15.9002 11.6254 16.0077 11.7386 16.0829 11.8731L16.4804 12.5719C16.5526 12.7035 16.5905 12.8516 16.5905 13.0021C16.5905 13.1526 16.5526 13.3007 16.4804 13.4323L14.2406 17.4563C14.1763 17.5951 14.1433 17.7465 14.144 17.8997C14.1421 18.0478 14.1738 18.1943 14.2368 18.328L14.742 19.226C14.7856 19.2993 14.8471 19.3599 14.9206 19.4021C14.9942 19.4442 15.0772 19.4664 15.1617 19.4665H17.0821C17.1685 19.4667 17.2534 19.4434 17.3278 19.3991C17.4023 19.3549 17.4637 19.2912 17.5056 19.2147L17.9179 18.4633C17.9553 18.3921 17.9748 18.3128 17.9748 18.2322C17.9748 18.1516 17.9553 18.0723 17.9179 18.0011L17.8956 17.9636C17.8529 17.8881 17.7913 17.8254 17.7169 17.7818C17.6425 17.7383 17.5581 17.7154 17.4721 17.7156H17.0338C16.9488 17.7153 16.8652 17.7378 16.7915 17.7806C16.7178 17.8235 16.6566 17.8853 16.6141 17.9598C16.5593 18.0469 16.4835 18.1185 16.3938 18.1677C16.3041 18.217 16.2036 18.2425 16.1015 18.2416C16.0214 18.2421 15.9419 18.2265 15.8678 18.1957C15.7937 18.1649 15.7263 18.1196 15.6697 18.0622C15.613 18.0049 15.5681 17.9368 15.5377 17.8618C15.5073 17.7868 15.4918 17.7065 15.4923 17.6254C15.4926 17.5161 15.5207 17.4087 15.574 17.3136L15.6966 17.0994C15.7718 16.9649 15.8793 16.8517 16.0091 16.7703C16.139 16.6889 16.287 16.6418 16.4395 16.6335H18.0516C18.2041 16.6418 18.3521 16.6889 18.4819 16.7703C18.6118 16.8517 18.7192 16.9649 18.7945 17.0994L19.1882 17.7982C19.2604 17.9292 19.2983 18.0766 19.2983 18.2266C19.2983 18.3765 19.2604 18.524 19.1882 18.6549L18.4453 19.9737H19.3293C21.5023 19.9737 22.6723 17.8358 21.5914 15.9497L13.2934 1.40535C12.2088 -0.495818 9.79066 -0.450731 8.71348 1.43541L0.400556 16.006C-0.687776 17.9072 0.560276 20 2.71465 20ZM9.61608 7.80771L10.8641 5.59469C10.8787 5.56987 10.8994 5.54923 10.9241 5.53476C10.9488 5.52029 10.9767 5.51247 11.0053 5.51203C11.034 5.51171 11.0622 5.51922 11.0871 5.53376C11.1119 5.54831 11.1324 5.56936 11.1464 5.59469L12.3908 7.80771C12.4127 7.84528 12.4242 7.88809 12.4242 7.9317C12.4242 7.97531 12.4127 8.01812 12.3908 8.05569L11.1353 10.2837C11.1203 10.3045 11.1007 10.3213 11.0782 10.3331C11.0556 10.3448 11.0307 10.3511 11.0053 10.3514C10.9799 10.3511 10.955 10.3448 10.9324 10.3331C10.9098 10.3213 10.8903 10.3045 10.8753 10.2837L9.61608 8.05569C9.5942 8.01812 9.58265 7.97531 9.58265 7.9317C9.58265 7.88809 9.5942 7.84528 9.61608 7.80771Z" fill="url(#paint0_linear)"/>
<defs>
<linearGradient id="paint0_linear" x1="4.47699e-09" y1="20.184" x2="22.112" y2="0.0859539" gradientUnits="userSpaceOnUse">
<stop stop-color="#FF0000"/>
<stop offset="1" stop-color="#850000"/>
</linearGradient>
</defs>
</svg>
