<svg width="18" height="16" viewBox="0 0 18 16" fill="none" xmlns="http://www.w3.org/2000/svg">
<path fill-rule="evenodd" clip-rule="evenodd" d="M6.55773 16H7.68395V15.982L8.68239 14.2115C8.69407 14.1917 8.71057 14.1752 8.73034 14.1636C8.75011 14.152 8.77248 14.1458 8.79531 14.1454C8.81827 14.1452 8.84088 14.1512 8.86075 14.1628C8.88062 14.1744 8.89702 14.1913 8.90823 14.2115L9.9037 15.982V16H11.0537C10.5485 15.1043 10.0444 14.2095 9.54117 13.3158V13.2978H9.51146C9.43824 13.1811 9.33707 13.085 9.21733 13.0184C9.09758 12.9518 8.96316 12.9169 8.82652 12.9169C8.68987 12.9169 8.55544 12.9518 8.4357 13.0184C8.31596 13.085 8.21479 13.1811 8.14157 13.2978H8.11186V13.3158C7.57698 14.2095 7.05894 15.1043 6.55773 16ZM2.17172 16H2.85221L2.2579 14.945C2.20013 14.8402 2.1698 14.7223 2.1698 14.6023C2.1698 14.4824 2.20013 14.3644 2.2579 14.2596L2.55505 13.6765C2.61523 13.5689 2.70121 13.4784 2.80507 13.4133C2.90893 13.3481 3.02734 13.3105 3.14936 13.3038H4.43307C4.5551 13.3105 4.6735 13.3481 4.77736 13.4133C4.88123 13.4784 4.96721 13.5689 5.02738 13.6765L5.12545 13.8478C5.16811 13.9239 5.19063 14.0099 5.19082 14.0973C5.19122 14.1622 5.17888 14.2265 5.15453 14.2864C5.13018 14.3464 5.09429 14.4009 5.04896 14.4468C5.00363 14.4926 4.94975 14.5289 4.89045 14.5536C4.83114 14.5782 4.76759 14.5907 4.70349 14.5903C4.6295 14.5838 4.55801 14.56 4.4946 14.5209C4.43119 14.4818 4.37759 14.4284 4.33798 14.3648C4.30374 14.3055 4.25473 14.2562 4.19582 14.2219C4.13691 14.1876 4.07016 14.1695 4.0022 14.1695H3.64264C3.57389 14.1693 3.50632 14.1876 3.44682 14.2225C3.38732 14.2573 3.338 14.3075 3.30388 14.3678L3.28605 14.3979C3.25614 14.4548 3.24049 14.5183 3.24049 14.5828C3.24049 14.6472 3.25614 14.7107 3.28605 14.7676L3.6159 15.3688C3.64939 15.4299 3.69849 15.4809 3.75807 15.5163C3.81766 15.5517 3.88554 15.5703 3.95465 15.5702H5.49095C5.55777 15.5699 5.62343 15.5524 5.68167 15.5192C5.73992 15.4861 5.78883 15.4384 5.82376 15.3808L6.22789 14.6624C6.27687 14.555 6.30222 14.4381 6.30218 14.3198C6.30274 14.1972 6.27635 14.076 6.22492 13.9651L4.41525 10.7669C4.35749 10.6616 4.32718 10.5432 4.32718 10.4227C4.32718 10.3023 4.35749 10.1839 4.41525 10.0786L4.7332 9.51949C4.79338 9.4119 4.87936 9.32137 4.98322 9.25623C5.08708 9.19109 5.20548 9.15345 5.32751 9.14677H6.62608C6.74811 9.15345 6.86651 9.19109 6.97037 9.25623C7.07423 9.32137 7.16021 9.4119 7.22039 9.51949L7.31845 9.69383C7.36152 9.76865 7.38408 9.85373 7.38383 9.9403C7.38217 10.0452 7.34746 10.1469 7.28475 10.2304C7.22204 10.314 7.1346 10.3752 7.03516 10.405C6.93571 10.4349 6.82945 10.4318 6.73182 10.3964C6.6342 10.3609 6.55031 10.2948 6.49236 10.2078C6.45812 10.1484 6.40911 10.0992 6.3502 10.0649C6.29129 10.0306 6.22454 10.0125 6.15658 10.0124H5.82376C5.75433 10.0127 5.68619 10.0314 5.6262 10.0668C5.56621 10.1021 5.51648 10.1529 5.48203 10.2138V10.2409C5.45186 10.2972 5.43606 10.3602 5.43606 10.4242C5.43606 10.4883 5.45186 10.5513 5.48203 10.6076L5.89508 11.359C5.92881 11.42 5.97796 11.4708 6.03749 11.5061C6.09702 11.5415 6.16478 11.5603 6.23383 11.5604H7.75527C7.82289 11.5604 7.88933 11.5426 7.94817 11.5089C8.007 11.4752 8.05622 11.4267 8.09105 11.3681L8.66456 10.3521C8.66906 10.3242 8.66906 10.2958 8.66456 10.2679C8.66526 10.2292 8.65605 10.1908 8.63782 10.1567L6.71523 6.69103C6.66245 6.57588 6.63711 6.44982 6.64123 6.32296C6.64536 6.19611 6.67885 6.07201 6.739 5.96062L8.07917 3.58303C8.1459 3.44395 8.25 3.32667 8.37953 3.24462C8.50907 3.16257 8.65882 3.11905 8.81166 3.11905C8.96449 3.11905 9.11425 3.16257 9.24378 3.24462C9.37332 3.32667 9.47741 3.44395 9.54414 3.58303L10.8754 5.95761C10.9336 6.06965 10.966 6.19357 10.9701 6.32006C10.9742 6.44656 10.95 6.57235 10.8992 6.68802L8.95875 10.1417C8.93961 10.1756 8.92938 10.2139 8.92903 10.2529C8.93039 10.2818 8.93642 10.3102 8.94686 10.3371L9.52037 11.353C9.55521 11.4116 9.60443 11.4602 9.66326 11.4939C9.72209 11.5276 9.78854 11.5453 9.85616 11.5454H11.4162C11.4857 11.5455 11.554 11.5268 11.614 11.4915C11.6741 11.4561 11.7237 11.4052 11.758 11.344L12.171 10.5926C12.2012 10.5363 12.217 10.4732 12.217 10.4092C12.217 10.3452 12.2012 10.2821 12.171 10.2259V10.1988C12.1375 10.1376 12.0884 10.0867 12.0288 10.0513C11.9692 10.0159 11.9014 9.99726 11.8322 9.99741H11.4519C11.3839 9.99749 11.3172 10.0156 11.2583 10.0499C11.1993 10.0841 11.1503 10.1334 11.1161 10.1928C11.0724 10.2628 11.0119 10.3205 10.9402 10.3605C10.8684 10.4004 10.7879 10.4213 10.706 10.4212C10.6409 10.4216 10.5763 10.4089 10.5161 10.3838C10.4559 10.3587 10.4012 10.3217 10.3553 10.2749C10.3094 10.2282 10.2731 10.1727 10.2486 10.1116C10.2241 10.0505 10.212 9.98515 10.2127 9.91926C10.2125 9.83268 10.2351 9.7476 10.2781 9.67279L10.3762 9.49845C10.4377 9.38877 10.526 9.29689 10.6327 9.23163C10.7393 9.16637 10.8608 9.1299 10.9853 9.12573H12.272C12.3941 9.13241 12.5125 9.17005 12.6163 9.23519C12.7202 9.30032 12.8062 9.39086 12.8663 9.49845L13.1843 10.0575C13.2421 10.1628 13.2724 10.2813 13.2724 10.4017C13.2724 10.5221 13.2421 10.6406 13.1843 10.7459L11.3925 13.9651C11.341 14.076 11.3146 14.1972 11.3152 14.3198C11.3136 14.4382 11.3391 14.5555 11.3895 14.6624L11.7936 15.3808C11.8284 15.4394 11.8777 15.4879 11.9365 15.5216C11.9953 15.5554 12.0618 15.5731 12.1294 15.5732H13.6657C13.7348 15.5733 13.8027 15.5547 13.8623 15.5193C13.9219 15.4839 13.971 15.4329 14.0044 15.3718L14.3343 14.7706C14.3642 14.7137 14.3799 14.6502 14.3799 14.5858C14.3799 14.5213 14.3642 14.4578 14.3343 14.4009L14.3165 14.3709C14.2823 14.3105 14.233 14.2603 14.1735 14.2255C14.114 14.1906 14.0465 14.1723 13.9777 14.1725H13.6271C13.559 14.1723 13.4922 14.1902 13.4332 14.2245C13.3742 14.2588 13.3253 14.3083 13.2913 14.3678C13.2474 14.4375 13.1868 14.4948 13.1151 14.5342C13.0433 14.5736 12.9628 14.594 12.8812 14.5933C12.8171 14.5937 12.7535 14.5812 12.6942 14.5566C12.6349 14.5319 12.5811 14.4956 12.5357 14.4498C12.4904 14.4039 12.4545 14.3494 12.4302 14.2894C12.4058 14.2295 12.3935 14.1652 12.3939 14.1003C12.3941 14.0129 12.4166 13.9269 12.4592 13.8509L12.5573 13.6795C12.6175 13.5719 12.7035 13.4814 12.8073 13.4163C12.9112 13.3511 13.0296 13.3135 13.1516 13.3068H14.4413C14.5633 13.3135 14.6817 13.3511 14.7856 13.4163C14.8894 13.4814 14.9754 13.5719 15.0356 13.6795L15.3506 14.2386C15.4083 14.3434 15.4387 14.4613 15.4387 14.5813C15.4387 14.7012 15.4083 14.8192 15.3506 14.9239L14.7562 15.979H15.4635C17.2018 15.979 18.1379 14.2687 17.2732 12.7597L10.6347 1.12428C9.76701 -0.396654 7.83253 -0.360585 6.97078 1.14833L0.320445 12.8048C-0.55022 14.3258 0.448221 16 2.17172 16ZM7.69287 6.24617L8.69131 4.47575C8.70298 4.45589 8.71949 4.43939 8.73925 4.42781C8.75902 4.41624 8.78139 4.40997 8.80423 4.40962C8.82719 4.40937 8.84979 4.41537 8.86966 4.42701C8.88953 4.43865 8.90594 4.45548 8.91715 4.47575L9.91262 6.24617C9.93013 6.27623 9.93936 6.31048 9.93936 6.34536C9.93936 6.38025 9.93013 6.4145 9.91262 6.44455L8.90823 8.22699C8.89624 8.24356 8.8806 8.25707 8.86255 8.26646C8.84449 8.27586 8.82453 8.28086 8.80423 8.2811C8.78393 8.28086 8.76396 8.27586 8.74591 8.26646C8.72786 8.25707 8.71222 8.24356 8.70022 8.22699L7.69287 6.44455C7.67536 6.4145 7.66612 6.38025 7.66612 6.34536C7.66612 6.31048 7.67536 6.27623 7.69287 6.24617Z" fill="#850000"/>
</svg>
