<svg width="35" height="20" viewBox="0 0 35 20" fill="none" xmlns="http://www.w3.org/2000/svg">
<path d="M14.7312 16.322L10.5183 12.8619L10.5238 18.3926L6.97546 15.3763L10.7113 10.5046L12.917 10.5046L17.2346 13.3885L17.2346 6.61153L12.8867 9.50924L10.7279 9.50924L6.96443 4.62366L10.5238 1.59912L10.5183 7.12986L14.7312 3.66971L10.5762 9.07444e-06L6.33581 3.8048L6.33857 3.80756L6.33581 3.8048L-4.35788e-07 10.0221L6.33581 16.209L6.34408 16.1952L10.5762 19.9917L14.7312 16.322Z" fill="#CED4DA"/>
<path d="M19.7378 3.67522L23.9507 7.13814L23.9452 1.60739L27.4935 4.62366L23.7577 9.49546L21.5492 9.49546L17.2344 6.61153L17.2344 13.3885L21.5823 10.4908L23.7411 10.4908L27.5046 15.3763L23.9452 18.4009L23.9507 12.8701L19.7378 16.3303L23.8928 20L28.1332 16.1952L34.469 9.97795L28.1332 3.79102L28.1249 3.8048L23.8928 0.00827951L19.7378 3.67522Z" fill="#CED4DA"/>
</svg>
