<svg width="16" height="16" viewBox="0 0 16 16" fill="none" xmlns="http://www.w3.org/2000/svg">
<path d="M12.5 0H3.5C1.567 0 0 1.567 0 3.5V12.5C0 14.433 1.567 16 3.5 16H12.5C14.433 16 16 14.433 16 12.5V3.5C16 1.567 14.433 0 12.5 0Z" fill="#FF4B55"/>
<path d="M12.4535 9.25578C12.4535 9.25578 11.6147 9.11597 10.9934 8.60068C10.8101 8.44868 10.5441 8.3325 10.2849 8.24668C10.4933 8.23743 10.7142 8.24325 10.9229 8.28547C11.7878 8.46034 12.6264 8.0405 12.6264 8.0405C12.6264 8.0405 11.7803 8.12587 11.0454 7.79184C10.8467 7.7015 10.5889 7.65893 10.3373 7.641C10.5183 7.58893 10.7103 7.54821 10.8999 7.53771C11.7809 7.48887 12.4865 6.87125 12.4865 6.87125C12.4865 6.87125 11.6893 7.16715 10.894 7.02918C10.6624 6.989 10.378 7.01909 10.1134 7.07225C10.2875 6.96297 10.4791 6.86078 10.678 6.79497C11.5157 6.51781 12.0355 5.73734 12.0355 5.73734C12.0355 5.73734 11.3433 6.23112 10.5395 6.30559C10.3008 6.32771 10.0289 6.43484 9.7837 6.55825C9.92523 6.40309 10.0867 6.24953 10.2656 6.13081C11.0008 5.64293 11.2969 4.75315 11.2969 4.75315C11.2969 4.75315 10.759 5.41178 10.0032 5.69521C9.79713 5.7725 9.58357 5.92721 9.39182 6.09396C9.48348 5.92734 9.59126 5.76056 9.71923 5.61743C10.3073 4.95962 10.369 4.0239 10.369 4.0239C10.369 4.0239 10.0149 4.79706 9.35523 5.26225C9.16291 5.39784 8.98316 5.62059 8.8337 5.84556C8.87938 5.64493 8.94251 5.43687 9.0366 5.24943C9.43244 4.46087 9.24757 3.5415 9.24757 3.5415C9.24757 3.5415 9.10773 4.38028 8.59245 5.00162C8.44045 5.18493 8.32426 5.45093 8.23845 5.71009C8.2292 5.50175 8.23501 5.28087 8.27723 5.07206C8.4521 4.20721 8.03229 3.36865 8.03229 3.36865C8.03229 3.36865 8.11763 4.21475 7.78363 4.94959C7.69329 5.14831 7.65073 5.40612 7.63279 5.65768C7.58073 5.47675 7.54001 5.28468 7.52951 5.09512C7.4807 4.21412 6.86304 3.5085 6.86304 3.5085C6.86304 3.5085 7.15895 4.30571 7.02095 5.10106C6.98076 5.33268 7.01085 5.61703 7.06401 5.88162C6.95473 5.70756 6.85254 5.51597 6.78673 5.31706C6.50957 4.47937 5.72913 3.95947 5.72913 3.95947C5.72913 3.95947 6.22291 4.65178 6.29738 5.45553C6.31951 5.69422 6.42663 5.96609 6.55004 6.21137C6.39488 6.06981 6.24129 5.90831 6.12257 5.72937C5.6347 4.99418 4.74488 4.69809 4.74488 4.69809C4.74488 4.69809 5.40351 5.236 5.68694 5.99181C5.76423 6.19784 5.91895 6.41143 6.0857 6.60315C5.91907 6.5115 5.75232 6.40371 5.6092 6.27575C4.95138 5.68768 4.01563 5.626 4.01563 5.626C4.01563 5.626 4.78879 5.98006 5.25398 6.63971C5.38957 6.832 5.61226 7.01178 5.8372 7.16125C5.6366 7.11556 5.42857 7.05247 5.24116 6.95837C4.4526 6.56256 3.5332 6.7474 3.5332 6.7474C3.5332 6.7474 4.37198 6.88725 4.99332 7.4025C5.17663 7.5545 5.44263 7.67068 5.70179 7.7565C5.49345 7.76578 5.27257 7.75993 5.06376 7.71772C4.19891 7.54284 3.36035 7.96265 3.36035 7.96265C3.36035 7.96265 4.20645 7.87731 4.94129 8.21131C5.14001 8.30165 5.39782 8.34422 5.64938 8.36215C5.46845 8.41422 5.27638 8.45493 5.08679 8.46543C4.20579 8.51425 3.50016 9.1319 3.50016 9.1319C3.50016 9.1319 4.29738 8.836 5.09273 8.97396C5.32435 9.01415 5.60866 8.98406 5.87329 8.9309C5.69923 9.04021 5.50763 9.14237 5.30873 9.20818C4.47104 9.48534 3.95113 10.2658 3.95113 10.2658C3.95113 10.2658 4.64341 9.77203 5.4472 9.69753C5.68588 9.6754 5.95776 9.56828 6.20304 9.44484C6.06151 9.6 5.89998 9.75359 5.72107 9.87231C4.98588 10.3602 4.68976 11.25 4.68976 11.25C4.68976 11.25 5.22766 10.5914 5.98348 10.3079C6.18951 10.2307 6.40307 10.0759 6.59482 9.90918C6.50316 10.0758 6.39538 10.2425 6.26741 10.3857C5.67935 11.0435 5.61766 11.9792 5.61766 11.9792C5.61766 11.9792 5.97173 11.2061 6.63141 10.7409C6.82373 10.6052 7.00345 10.3826 7.15295 10.1576C7.10726 10.3582 7.04416 10.5662 6.95007 10.7537C6.55423 11.5423 6.7391 12.4617 6.7391 12.4617C6.7391 12.4617 6.87891 11.6228 7.3942 11.0015C7.5462 10.8182 7.66238 10.5522 7.7482 10.2931C7.75745 10.5014 7.75163 10.7223 7.70941 10.9311C7.53454 11.7959 7.95435 12.6345 7.95435 12.6345C7.95435 12.6345 7.86901 11.7884 8.20301 11.0536C8.29335 10.8549 8.33591 10.597 8.35385 10.3455C8.40591 10.5264 8.44663 10.7185 8.45713 10.9081C8.50594 11.7891 9.1236 12.4947 9.1236 12.4947C9.1236 12.4947 8.8277 11.6974 8.9657 10.9021C9.00588 10.6705 8.97579 10.3862 8.92263 10.1216C9.03191 10.2957 9.1341 10.4872 9.19991 10.6861C9.47707 11.5238 10.2575 12.0437 10.2575 12.0437C10.2575 12.0437 9.76376 11.3514 9.68929 10.5476C9.66716 10.3089 9.56004 10.0371 9.43663 9.79178C9.59179 9.93331 9.74535 10.0948 9.8641 10.2738C10.352 11.009 11.2418 11.3051 11.2418 11.3051C11.2418 11.3051 10.5832 10.7672 10.2997 10.0113C10.2224 9.80531 10.0677 9.59175 9.90101 9.4C10.0676 9.49165 10.2344 9.5994 10.3775 9.72737C11.0353 10.3154 11.971 10.3771 11.971 10.3771C11.971 10.3771 11.1979 10.0231 10.7327 9.3634C10.597 9.17109 10.3744 8.99131 10.1494 8.84187C10.35 8.88756 10.558 8.95065 10.7455 9.04475C11.5341 9.44062 12.4535 9.25578 12.4535 9.25578ZM7.99888 10.138C6.81823 10.138 5.86113 9.18093 5.86113 8.00028C5.86113 6.81962 6.81823 5.86253 7.99888 5.86253C9.17954 5.86253 10.1366 6.81962 10.1366 8.00028C10.1366 9.1809 9.17954 10.138 7.99888 10.138Z" fill="#FFE15A"/>
<path d="M7.32097 7.13515C7.36653 7.09955 7.41191 7.0638 7.45803 7.03208C7.15516 6.89433 6.88253 6.82821 6.69125 6.79858C6.66081 6.83168 6.63334 6.86724 6.60547 6.90255C6.79322 6.93899 7.04556 7.00865 7.32097 7.13515Z" fill="#FFE15A"/>
<path d="M6.7832 6.70422C6.9887 6.72743 7.28623 6.78865 7.61633 6.93062C7.67164 6.89765 7.7267 6.86843 7.78186 6.84025C7.42545 6.6939 7.10364 6.63937 6.88217 6.62256C6.84892 6.64953 6.81439 6.67493 6.7832 6.70422Z" fill="#FFE15A"/>
<path d="M7.85336 7.69506C7.81074 7.65478 7.76755 7.61669 7.72399 7.58069C7.32377 7.96159 6.97361 8.51709 6.81555 9.32316C6.87302 9.37459 6.93008 9.4266 6.99386 9.47028C7.10999 8.6505 7.45036 8.08469 7.85336 7.69506Z" fill="#FFE15A"/>
<path d="M7.69837 7.34098C7.74374 7.30451 7.78905 7.26785 7.83499 7.23526C7.77899 7.19951 7.72321 7.1682 7.66758 7.13757C7.61996 7.17023 7.57221 7.20179 7.52515 7.23848C7.5828 7.2702 7.64043 7.30392 7.69837 7.34098Z" fill="#FFE15A"/>
<path d="M8.80432 7.23782C9.14748 7.53922 9.46107 7.96357 9.68429 8.55205C9.74154 8.3773 9.78032 8.19414 9.78032 8.00029C9.78032 7.63223 9.66851 7.29038 9.47729 7.00647C9.30029 7.04175 9.0627 7.11047 8.80432 7.23782Z" fill="#FFE15A"/>
<path d="M7.86658 7.45554C7.91126 7.48876 7.95507 7.52623 7.99901 7.56313C8.04294 7.52623 8.08675 7.48876 8.13144 7.45554C8.08744 7.41891 8.0436 7.38288 7.99901 7.34998C7.95442 7.38288 7.91057 7.41894 7.86658 7.45554Z" fill="#FFE15A"/>
<path d="M7.99904 6.9397C7.9431 6.96804 7.88706 7.00007 7.83081 7.03335C7.88678 7.06279 7.94269 7.09439 7.99904 7.12892C8.05538 7.09439 8.11129 7.06282 8.16726 7.03335C8.11101 7.00007 8.05498 6.96804 7.99904 6.9397Z" fill="#FFE15A"/>
<path d="M6.62184 9.11734C6.81031 8.34777 7.16556 7.82049 7.56309 7.45784C7.5075 7.41856 7.45212 7.38259 7.39665 7.34924C7.01409 7.68565 6.66784 8.17181 6.45459 8.87221C6.50375 8.95906 6.55931 9.04037 6.62184 9.11734Z" fill="#FFE15A"/>
<path d="M7.19362 7.23782C6.93525 7.11047 6.69768 7.04175 6.52068 7.00647C6.32946 7.29038 6.21765 7.63223 6.21765 8.00029C6.21765 8.19414 6.2564 8.3773 6.31368 8.55205C6.53687 7.9636 6.85046 7.53922 7.19362 7.23782Z" fill="#FFE15A"/>
<path d="M7.99877 6.73969C8.37777 6.58309 8.72739 6.5275 8.97605 6.51281C8.69523 6.32794 8.36008 6.21875 7.99877 6.21875C7.63745 6.21875 7.3023 6.32794 7.02148 6.51281C7.27014 6.5275 7.61977 6.58309 7.99877 6.73969Z" fill="#FFE15A"/>
<path d="M7.99905 7.8457C7.64371 8.23946 7.3505 8.80477 7.25537 9.6144C7.48231 9.71922 7.73265 9.78169 7.99905 9.78169C8.26545 9.78169 8.5158 9.71922 8.74273 9.6144C8.64761 8.80477 8.35439 8.23942 7.99905 7.8457Z" fill="#FFE15A"/>
<path d="M8.60162 7.34924C8.54612 7.38262 8.49077 7.41859 8.43518 7.45784C8.83271 7.82049 9.18796 8.34777 9.37643 9.11734C9.43896 9.04034 9.49452 8.95906 9.54368 8.87218C9.33043 8.17181 8.98418 7.68565 8.60162 7.34924Z" fill="#FFE15A"/>
<path d="M9.18198 9.32317C9.02391 8.5171 8.67376 7.9616 8.27354 7.58069C8.22998 7.61672 8.18679 7.65481 8.14417 7.69506C8.54713 8.08472 8.88754 8.65054 9.00366 9.4703C9.06748 9.42661 9.12451 9.37461 9.18198 9.32317Z" fill="#FFE15A"/>
<path d="M8.21582 6.84025C8.27098 6.86843 8.32604 6.89765 8.38135 6.93062C8.71148 6.78862 9.00898 6.72743 9.21448 6.70422C9.18326 6.67493 9.14876 6.64953 9.11551 6.62256C8.89404 6.63937 8.57223 6.6939 8.21582 6.84025Z" fill="#FFE15A"/>
<path d="M8.29922 7.34098C8.35716 7.30392 8.41478 7.2702 8.47244 7.23848C8.42541 7.20179 8.37763 7.17023 8.33 7.13757C8.27438 7.1682 8.21863 7.19954 8.1626 7.23526C8.20854 7.26785 8.25385 7.30451 8.29922 7.34098Z" fill="#FFE15A"/>
<path d="M8.67677 7.13515C8.95214 7.00865 9.20449 6.93899 9.39224 6.90255C9.36436 6.86721 9.33689 6.83165 9.30645 6.79858C9.11517 6.82821 8.84258 6.89433 8.53967 7.03208C8.58583 7.0638 8.6312 7.09955 8.67677 7.13515Z" fill="#FFE15A"/>
</svg>
