<svg width="20" height="20" viewBox="0 0 20 20" fill="none" xmlns="http://www.w3.org/2000/svg">
<path d="M4.28516 7.85827C4.28516 10.0808 5.85328 13.3116 8.98953 17.5507L8.98952 17.5507C9.40217 18.1084 10.1888 18.2261 10.7466 17.8134C10.8467 17.7393 10.9353 17.6508 11.0093 17.5507C14.1456 13.3116 15.7137 10.0808 15.7137 7.85827C15.7137 4.69845 13.1586 2.14282 9.99944 2.14282C6.84026 2.14282 4.28516 4.69845 4.28516 7.85827ZM7.95863 7.85827C7.95863 6.73151 8.87291 5.81704 9.99944 5.81704C11.126 5.81704 12.0403 6.73151 12.0403 7.85827C12.0403 8.98503 11.126 9.89951 9.99944 9.89951C8.87291 9.89951 7.95863 8.98503 7.95863 7.85827Z" fill="#8B98A7"/>
</svg>
