<svg width="39" height="36" viewBox="0 0 39 36" fill="none" xmlns="http://www.w3.org/2000/svg">
<g clip-path="url(#clip0)">
<path d="M1.16998 23.2315H0V18.86H1.16998V23.2315ZM1.16998 24.9506H0V29.3211H1.16998V24.9506ZM1.16998 31.0765H0V35.447H1.16998V31.0765ZM1.16998 12.7666H0V17.1371H1.16998V12.7666ZM1.16998 6.67507H0V11.0455H1.16998V6.67507ZM1.16998 0.583536H0V4.95591H1.16998V0.583536ZM20.7492 21.0615C20.7492 20.5169 20.5877 19.9845 20.2852 19.5317C19.9826 19.0789 19.5526 18.726 19.0494 18.5176C18.5463 18.3092 17.9926 18.2547 17.4585 18.3609C16.9244 18.4671 16.4338 18.7294 16.0487 19.1145C15.6636 19.4996 15.4013 19.9902 15.2951 20.5243C15.1889 21.0585 15.2434 21.6121 15.4518 22.1152C15.6602 22.6184 16.0131 23.0484 16.4659 23.351C16.9187 23.6535 17.4511 23.815 17.9957 23.815C18.726 23.8143 19.4263 23.5242 19.9432 23.0083C20.4602 22.4924 20.7517 21.7928 20.754 21.0625L20.7492 21.0615ZM19.6136 21.0615C19.6142 21.2696 19.5737 21.4758 19.4944 21.6682C19.415 21.8606 19.2984 22.0355 19.1512 22.1826C19.004 22.3298 18.8292 22.4464 18.6368 22.5258C18.4444 22.6051 18.2382 22.6457 18.0301 22.645C17.8189 22.6502 17.6089 22.6131 17.4123 22.5359C17.2157 22.4587 17.0365 22.3429 16.8853 22.1954C16.7341 22.0479 16.614 21.8716 16.5319 21.6769C16.4499 21.4823 16.4077 21.2732 16.4077 21.062C16.4077 20.8508 16.4499 20.6417 16.5319 20.447C16.614 20.2524 16.7341 20.0761 16.8853 19.9286C17.0365 19.7811 17.2157 19.6653 17.4123 19.5881C17.6089 19.5109 17.8189 19.4737 18.0301 19.4789C18.2386 19.4777 18.4453 19.5177 18.6383 19.5968C18.8312 19.6759 19.0066 19.7924 19.1543 19.9396C19.302 20.0869 19.419 20.2619 19.4987 20.4546C19.5783 20.6473 19.619 20.8539 19.6184 21.0625L19.6136 21.0615ZM20.7492 27.153C20.7492 26.6084 20.5877 26.0761 20.2852 25.6233C19.9826 25.1705 19.5526 24.8175 19.0494 24.6091C18.5463 24.4007 17.9926 24.3462 17.4585 24.4524C16.9244 24.5587 16.4338 24.8209 16.0487 25.206C15.6636 25.5911 15.4013 26.0817 15.2951 26.6159C15.1889 27.15 15.2434 27.7036 15.4518 28.2068C15.6602 28.7099 16.0131 29.1399 16.4659 29.4425C16.9187 29.7451 17.4511 29.9065 17.9957 29.9065C18.7259 29.9058 19.426 29.6159 19.9429 29.1002C20.4598 28.5845 20.7515 27.8851 20.754 27.1549L20.7492 27.153ZM19.6136 27.153C19.6142 27.3612 19.5737 27.5674 19.4944 27.7598C19.415 27.9522 19.2984 28.127 19.1512 28.2742C19.004 28.4213 18.8292 28.538 18.6368 28.6173C18.4444 28.6967 18.2382 28.7372 18.0301 28.7366C17.6116 28.7318 17.2115 28.5635 16.9156 28.2675C16.6196 27.9716 16.4513 27.5715 16.4465 27.153C16.4567 26.7399 16.6279 26.3471 16.9237 26.0585C17.2195 25.7699 17.6164 25.6084 18.0296 25.6084C18.4428 25.6084 18.8397 25.7699 19.1355 26.0585C19.4313 26.3471 19.6025 26.7399 19.6127 27.153H19.6136ZM20.7492 33.2446C20.7492 32.7 20.5877 32.1676 20.2852 31.7148C19.9826 31.262 19.5526 30.9091 19.0494 30.7007C18.5463 30.4922 17.9926 30.4377 17.4585 30.544C16.9244 30.6502 16.4338 30.9125 16.0487 31.2975C15.6636 31.6826 15.4013 32.1733 15.2951 32.7074C15.1889 33.2415 15.2434 33.7951 15.4518 34.2983C15.6602 34.8014 16.0131 35.2315 16.4659 35.534C16.9187 35.8366 17.4511 35.9981 17.9957 35.9981C18.7259 35.9973 19.426 35.7074 19.9429 35.1917C20.4598 34.676 20.7515 33.9766 20.754 33.2465L20.7492 33.2446ZM19.6136 33.2446C19.6142 33.4527 19.5737 33.6589 19.4944 33.8513C19.415 34.0437 19.2984 34.2185 19.1512 34.3657C19.004 34.5129 18.8292 34.6295 18.6368 34.7088C18.4444 34.7882 18.2382 34.8287 18.0301 34.8281C17.6116 34.8234 17.2115 34.655 16.9156 34.3591C16.6196 34.0631 16.4513 33.6631 16.4465 33.2446C16.4567 32.8314 16.6279 32.4387 16.9237 32.1501C17.2195 31.8615 17.6164 31.6999 18.0296 31.6999C18.4428 31.6999 18.8397 31.8615 19.1355 32.1501C19.4313 32.4387 19.6025 32.8314 19.6127 33.2446H19.6136ZM20.7492 14.9346C20.7492 14.39 20.5877 13.8577 20.2852 13.4049C19.9826 12.9521 19.5526 12.5991 19.0494 12.3907C18.5463 12.1823 17.9926 12.1278 17.4585 12.234C16.9244 12.3403 16.4338 12.6025 16.0487 12.9876C15.6636 13.3727 15.4013 13.8633 15.2951 14.3975C15.1889 14.9316 15.2434 15.4852 15.4518 15.9884C15.6602 16.4915 16.0131 16.9215 16.4659 17.2241C16.9187 17.5267 17.4511 17.6881 17.9957 17.6881C18.7259 17.6874 19.426 17.3975 19.9429 16.8818C20.4598 16.3661 20.7515 15.6667 20.754 14.9365L20.7492 14.9346ZM19.6136 14.9346C19.6142 15.1428 19.5737 15.349 19.4944 15.5414C19.415 15.7338 19.2984 15.9086 19.1512 16.0558C19.004 16.2029 18.8292 16.3196 18.6368 16.3989C18.4444 16.4783 18.2382 16.5188 18.0301 16.5182C17.7169 16.5182 17.4107 16.4253 17.1503 16.2513C16.8899 16.0773 16.6869 15.83 16.5671 15.5406C16.4472 15.2513 16.4159 14.9329 16.477 14.6257C16.5381 14.3185 16.6889 14.0364 16.9104 13.8149C17.1318 13.5935 17.414 13.4426 17.7212 13.3815C18.0283 13.3204 18.3467 13.3518 18.6361 13.4716C18.9254 13.5915 19.1727 13.7945 19.3467 14.0549C19.5207 14.3153 19.6136 14.6214 19.6136 14.9346ZM18.5812 6.67507H17.4112V11.0455H18.5812V6.67507ZM18.5812 0.583536H17.4112V4.95591H18.5812V0.583536ZM26.5657 21.0615C26.5657 20.5169 26.4042 19.9845 26.1016 19.5317C25.7991 19.0789 25.369 18.726 24.8659 18.5176C24.3627 18.3092 23.8091 18.2547 23.275 18.3609C22.7409 18.4671 22.2502 18.7294 21.8651 19.1145C21.4801 19.4996 21.2178 19.9902 21.1116 20.5243C21.0053 21.0585 21.0598 21.6121 21.2683 22.1152C21.4767 22.6184 21.8296 23.0484 22.2824 23.351C22.7352 23.6535 23.2676 23.815 23.8122 23.815C24.5425 23.8143 25.2428 23.5242 25.7597 23.0083C26.2767 22.4924 26.5682 21.7928 26.5704 21.0625L26.5657 21.0615ZM25.3957 21.0615C25.3963 21.2696 25.3558 21.4758 25.2764 21.6682C25.1971 21.8606 25.0805 22.0355 24.9333 22.1826C24.7861 22.3298 24.6113 22.4464 24.4189 22.5258C24.2265 22.6051 24.0203 22.6457 23.8122 22.645C23.601 22.6502 23.3909 22.6131 23.1943 22.5359C22.9977 22.4587 22.8186 22.3429 22.6674 22.1954C22.5162 22.0479 22.3961 21.8716 22.314 21.6769C22.232 21.4823 22.1897 21.2732 22.1897 21.062C22.1897 20.8508 22.232 20.6417 22.314 20.447C22.3961 20.2524 22.5162 20.0761 22.6674 19.9286C22.8186 19.7811 22.9977 19.6653 23.1943 19.5881C23.3909 19.5109 23.601 19.4737 23.8122 19.4789C24.0207 19.4777 24.2274 19.5177 24.4204 19.5968C24.6133 19.6759 24.7887 19.7924 24.9364 19.9396C25.0841 20.0869 25.2011 20.2619 25.2808 20.4546C25.3604 20.6473 25.4011 20.8539 25.4005 21.0625L25.3957 21.0615ZM26.5657 27.153C26.5657 26.6084 26.4042 26.0761 26.1016 25.6233C25.7991 25.1705 25.369 24.8175 24.8659 24.6091C24.3627 24.4007 23.8091 24.3462 23.275 24.4524C22.7409 24.5587 22.2502 24.8209 21.8651 25.206C21.4801 25.5911 21.2178 26.0817 21.1116 26.6159C21.0053 27.15 21.0598 27.7036 21.2683 28.2068C21.4767 28.7099 21.8296 29.1399 22.2824 29.4425C22.7352 29.7451 23.2676 29.9065 23.8122 29.9065C24.5423 29.9058 25.2425 29.6159 25.7594 29.1002C26.2763 28.5845 26.5679 27.8851 26.5704 27.1549L26.5657 27.153ZM25.3957 27.153C25.3963 27.3612 25.3558 27.5674 25.2764 27.7598C25.1971 27.9522 25.0805 28.127 24.9333 28.2742C24.7861 28.4213 24.6113 28.538 24.4189 28.6173C24.2265 28.6967 24.0203 28.7372 23.8122 28.7366C23.3936 28.7318 22.9936 28.5635 22.6976 28.2675C22.4017 27.9716 22.2333 27.5715 22.2286 27.153C22.2388 26.7399 22.41 26.3471 22.7058 26.0585C23.0016 25.7699 23.3984 25.6084 23.8117 25.6084C24.2249 25.6084 24.6218 25.7699 24.9176 26.0585C25.2133 26.3471 25.3846 26.7399 25.3947 27.153H25.3957ZM26.5657 33.2446C26.5657 32.7 26.4042 32.1676 26.1016 31.7148C25.7991 31.262 25.369 30.9091 24.8659 30.7007C24.3627 30.4922 23.8091 30.4377 23.275 30.544C22.7409 30.6502 22.2502 30.9125 21.8651 31.2975C21.4801 31.6826 21.2178 32.1733 21.1116 32.7074C21.0053 33.2415 21.0598 33.7951 21.2683 34.2983C21.4767 34.8014 21.8296 35.2315 22.2824 35.534C22.7352 35.8366 23.2676 35.9981 23.8122 35.9981C24.5423 35.9973 25.2425 35.7074 25.7594 35.1917C26.2763 34.676 26.5679 33.9766 26.5704 33.2465L26.5657 33.2446ZM25.3957 33.2446C25.3963 33.4527 25.3558 33.6589 25.2764 33.8513C25.1971 34.0437 25.0805 34.2185 24.9333 34.3657C24.7861 34.5129 24.6113 34.6295 24.4189 34.7088C24.2265 34.7882 24.0203 34.8287 23.8122 34.8281C23.3936 34.8234 22.9936 34.655 22.6976 34.3591C22.4017 34.0631 22.2333 33.6631 22.2286 33.2446C22.2388 32.8314 22.41 32.4387 22.7058 32.1501C23.0016 31.8615 23.3984 31.6999 23.8117 31.6999C24.2249 31.6999 24.6218 31.8615 24.9176 32.1501C25.2133 32.4387 25.3846 32.8314 25.3947 33.2446H25.3957ZM24.4024 12.7685H23.2324V17.139H24.4024V12.7685ZM26.5704 8.84502C26.5704 8.30042 26.409 7.76806 26.1064 7.31525C25.8038 6.86244 25.3738 6.50951 24.8707 6.30111C24.3675 6.0927 23.8139 6.03817 23.2798 6.14442C22.7456 6.25066 22.255 6.51291 21.8699 6.89799C21.4848 7.28308 21.2226 7.77371 21.1163 8.30784C21.0101 8.84196 21.0646 9.3956 21.273 9.89874C21.4814 10.4019 21.8344 10.8319 22.2872 11.1345C22.74 11.437 23.2724 11.5985 23.8169 11.5985C24.5466 11.5965 25.2458 11.3058 25.7617 10.7898C26.2777 10.2739 26.5684 9.57467 26.5704 8.84502ZM25.4005 8.84502C25.4011 9.05315 25.3606 9.25935 25.2812 9.45175C25.2019 9.64416 25.0852 9.81898 24.9381 9.96615C24.7909 10.1133 24.6161 10.2299 24.4237 10.3093C24.2313 10.3886 24.0251 10.4292 23.8169 10.4285C23.5037 10.4285 23.1976 10.3357 22.9372 10.1617C22.6768 9.98767 22.4738 9.74036 22.3539 9.45101C22.2341 9.16166 22.2027 8.84326 22.2638 8.53609C22.3249 8.22891 22.4757 7.94675 22.6972 7.72529C22.9187 7.50383 23.2008 7.35302 23.508 7.29191C23.8152 7.23081 24.1336 7.26217 24.4229 7.38203C24.7123 7.50188 24.9596 7.70485 25.1336 7.96526C25.3076 8.22567 25.4005 8.53183 25.4005 8.84502ZM24.4024 0.585447H23.2324V4.95591H24.4024V0.585447ZM36.0009 18.861H34.831V23.2315H36.0009V18.861ZM38.2034 27.1549C38.2034 26.6104 38.0419 26.078 37.7393 25.6252C37.4368 25.1724 37.0067 24.8194 36.5036 24.611C36.0004 24.4026 35.4468 24.3481 34.9127 24.4543C34.3786 24.5606 33.8879 24.8228 33.5028 25.2079C33.1178 25.593 32.8555 26.0836 32.7493 26.6178C32.643 27.1519 32.6975 27.7055 32.906 28.2087C33.1144 28.7118 33.4673 29.1418 33.9201 29.4444C34.3729 29.747 34.9053 29.9085 35.4499 29.9085C36.1795 29.9064 36.8787 29.6157 37.3947 29.0997C37.9106 28.5838 38.2014 27.8846 38.2034 27.1549ZM37.0334 27.1549C37.0334 27.4681 36.9405 27.7743 36.7665 28.0347C36.5925 28.2951 36.3452 28.4981 36.0559 28.6179C35.7665 28.7378 35.4481 28.7691 35.1409 28.708C34.8338 28.6469 34.5516 28.4961 34.3301 28.2747C34.1087 28.0532 33.9579 27.771 33.8968 27.4639C33.8357 27.1567 33.867 26.8383 33.9869 26.549C34.1067 26.2596 34.3097 26.0123 34.5701 25.8383C34.8305 25.6643 35.1367 25.5714 35.4499 25.5714C35.6588 25.5679 35.8663 25.6065 36.06 25.6848C36.2537 25.7632 36.4296 25.8797 36.5774 26.0274C36.7251 26.1752 36.8416 26.3512 36.92 26.5448C36.9983 26.7385 37.0369 26.946 37.0334 27.1549ZM38.2034 33.2465C38.2034 32.7019 38.0419 32.1695 37.7393 31.7167C37.4368 31.2639 37.0067 30.911 36.5036 30.7026C36.0004 30.4942 35.4468 30.4396 34.9127 30.5459C34.3786 30.6521 33.8879 30.9144 33.5028 31.2994C33.1178 31.6845 32.8555 32.1752 32.7493 32.7093C32.643 33.2434 32.6975 33.7971 32.906 34.3002C33.1144 34.8033 33.4673 35.2334 33.9201 35.5359C34.3729 35.8385 34.9053 36 35.4499 36C36.1795 35.998 36.8787 35.7072 37.3947 35.1913C37.9106 34.6753 38.2014 33.9761 38.2034 33.2465ZM37.0334 33.2465C37.0334 33.5597 36.9405 33.8658 36.7665 34.1262C36.5925 34.3866 36.3452 34.5896 36.0559 34.7095C35.7665 34.8293 35.4481 34.8607 35.1409 34.7996C34.8338 34.7385 34.5516 34.5877 34.3301 34.3662C34.1087 34.1447 33.9579 33.8626 33.8968 33.5554C33.8357 33.2482 33.867 32.9298 33.9869 32.6405C34.1067 32.3511 34.3097 32.1038 34.5701 31.9298C34.8305 31.7558 35.1367 31.6629 35.4499 31.6629C35.6588 31.6595 35.8663 31.698 36.06 31.7764C36.2537 31.8547 36.4296 31.9712 36.5774 32.119C36.7251 32.2667 36.8416 32.4427 36.92 32.6364C36.9983 32.8301 37.0369 33.0376 37.0334 33.2465ZM38.2034 14.9365C38.2034 14.392 38.0419 13.8596 37.7393 13.4068C37.4368 12.954 37.0067 12.601 36.5036 12.3926C36.0004 12.1842 35.4468 12.1297 34.9127 12.2359C34.3786 12.3422 33.8879 12.6044 33.5028 12.9895C33.1178 13.3746 32.8555 13.8652 32.7493 14.3994C32.643 14.9335 32.6975 15.4871 32.906 15.9903C33.1144 16.4934 33.4673 16.9234 33.9201 17.226C34.3729 17.5286 34.9053 17.6901 35.4499 17.6901C36.1795 17.688 36.8787 17.3973 37.3947 16.8813C37.9106 16.3654 38.2014 15.6662 38.2034 14.9365ZM37.0334 14.9365C37.0233 15.3497 36.852 15.7425 36.5562 16.031C36.2605 16.3196 35.8636 16.4812 35.4503 16.4812C35.0371 16.4812 34.6402 16.3196 34.3445 16.031C34.0487 15.7425 33.8774 15.3497 33.8673 14.9365C33.8774 14.5234 34.0487 14.1306 34.3445 13.842C34.6402 13.5534 35.0371 13.3919 35.4503 13.3919C35.8636 13.3919 36.2605 13.5534 36.5562 13.842C36.852 14.1306 37.0233 14.5234 37.0334 14.9365ZM36.0009 6.67698H34.831V11.0474H36.0009V6.67698ZM36.0009 0.585447H34.831V4.95591H36.0009V0.585447ZM9.15543 21.0625C9.15543 20.5179 8.99394 19.9855 8.69138 19.5327C8.38882 19.0799 7.9588 18.727 7.45566 18.5185C6.95252 18.3101 6.39888 18.2556 5.86475 18.3619C5.33062 18.4681 4.83999 18.7304 4.4549 19.1154C4.06982 19.5005 3.80757 19.9911 3.70132 20.5253C3.59508 21.0594 3.64961 21.613 3.85802 22.1162C4.06642 22.6193 4.41936 23.0494 4.87217 23.3519C5.32498 23.6545 5.85733 23.816 6.40193 23.816C7.13158 23.814 7.83077 23.5232 8.34672 23.0073C8.86267 22.4913 9.15341 21.7921 9.15543 21.0625ZM7.98546 21.0625C7.97531 21.4756 7.80407 21.8684 7.5083 22.157C7.21252 22.4456 6.81565 22.6071 6.40241 22.6071C5.98916 22.6071 5.59229 22.4456 5.29652 22.157C5.00074 21.8684 4.8295 21.4756 4.81935 21.0625C4.82528 20.6454 4.99366 20.2472 5.28866 19.9523C5.58367 19.6575 5.98204 19.4894 6.39907 19.4837C6.60773 19.48 6.81502 19.5182 7.00862 19.5961C7.20222 19.6741 7.37818 19.7901 7.52606 19.9374C7.67395 20.0846 7.79073 20.2601 7.86949 20.4534C7.94824 20.6467 7.98735 20.8538 7.9845 21.0625H7.98546ZM6.9874 24.9516H5.81647V29.3211H6.98644L6.9874 24.9516ZM6.9874 31.0775H5.81647V35.4479H6.98644L6.9874 31.0775ZM9.15543 14.9365C9.15543 14.392 8.99394 13.8596 8.69138 13.4068C8.38882 12.954 7.9588 12.601 7.45566 12.3926C6.95252 12.1842 6.39888 12.1297 5.86475 12.2359C5.33062 12.3422 4.83999 12.6044 4.4549 12.9895C4.06982 13.3746 3.80757 13.8652 3.70132 14.3994C3.59508 14.9335 3.64961 15.4871 3.85802 15.9903C4.06642 16.4934 4.41936 16.9234 4.87217 17.226C5.32498 17.5286 5.85733 17.6901 6.40193 17.6901C7.13158 17.688 7.83077 17.3973 8.34672 16.8813C8.86267 16.3654 9.15341 15.6662 9.15543 14.9365ZM7.98546 14.9365C7.97531 15.3497 7.80407 15.7425 7.5083 16.031C7.21252 16.3196 6.81565 16.4812 6.40241 16.4812C5.98916 16.4812 5.59229 16.3196 5.29652 16.031C5.00074 15.7425 4.8295 15.3497 4.81935 14.9365C4.8295 14.5234 5.00074 14.1306 5.29652 13.842C5.59229 13.5534 5.98916 13.3919 6.40241 13.3919C6.81565 13.3919 7.21252 13.5534 7.5083 13.842C7.80407 14.1306 7.97531 14.5234 7.98546 14.9365ZM6.9874 6.67698H5.81647V11.0474H6.98644L6.9874 6.67698ZM9.15543 2.75349C9.15543 2.20902 8.99402 1.67677 8.69159 1.22402C8.38915 0.771269 7.95928 0.418344 7.45631 0.209853C6.95334 0.00136291 6.39985 -0.0533328 5.8658 0.0526799C5.33175 0.158693 4.84112 0.420655 4.45592 0.805453C4.07072 1.19025 3.80824 1.68061 3.70167 2.21455C3.59511 2.74849 3.64923 3.30204 3.8572 3.80523C4.06517 4.30841 4.41765 4.73865 4.87008 5.04156C5.32252 5.34446 5.8546 5.50643 6.39907 5.507C7.12922 5.50574 7.82915 5.21532 8.34572 4.69929C8.86228 4.18327 9.15341 3.48364 9.15543 2.75349ZM7.98546 2.75349C7.97531 3.16661 7.80407 3.55939 7.5083 3.84799C7.21252 4.13659 6.81565 4.29813 6.40241 4.29813C5.98916 4.29813 5.59229 4.13659 5.29652 3.84799C5.00074 3.55939 4.8295 3.16661 4.81935 2.75349C4.8295 2.34037 5.00074 1.94758 5.29652 1.65899C5.59229 1.37039 5.98916 1.20885 6.40241 1.20885C6.81565 1.20885 7.21252 1.37039 7.5083 1.65899C7.80407 1.94758 7.97531 2.34037 7.98546 2.75349ZM14.9719 21.0634C14.9719 20.5188 14.8104 19.9865 14.5079 19.5336C14.2053 19.0808 13.7753 18.7279 13.2721 18.5195C12.769 18.3111 12.2153 18.2566 11.6812 18.3628C11.1471 18.4691 10.6564 18.7313 10.2714 19.1164C9.88628 19.5015 9.62404 19.9921 9.5178 20.5262C9.41155 21.0604 9.46607 21.614 9.67448 22.1171C9.88288 22.6203 10.2358 23.0503 10.6886 23.3529C11.1414 23.6554 11.6738 23.8169 12.2184 23.8169C12.9482 23.8149 13.6476 23.524 14.1635 23.0079C14.6795 22.4917 14.9701 21.7923 14.9719 21.0625V21.0634ZM13.8019 21.0634C13.7918 21.4765 13.6205 21.8693 13.3248 22.1579C13.029 22.4465 12.6321 22.6081 12.2189 22.6081C11.8056 22.6081 11.4088 22.4465 11.113 22.1579C10.8172 21.8693 10.646 21.4765 10.6358 21.0634C10.6405 20.6449 10.8089 20.2449 11.1048 19.9489C11.4008 19.653 11.8008 19.4846 12.2193 19.4799C12.428 19.4767 12.6352 19.5154 12.8286 19.5938C13.022 19.6722 13.1977 19.7887 13.3452 19.9363C13.4928 20.0839 13.6091 20.2597 13.6874 20.4531C13.7657 20.6466 13.8043 20.8538 13.801 21.0625L13.8019 21.0634ZM12.7695 24.9525H11.5995V29.3211H12.7695V24.9525ZM12.7695 31.0784H11.5995V35.4489H12.7695V31.0784ZM12.7695 12.7685H11.5995V17.139H12.7695V12.7685ZM14.9719 8.84502C14.9719 8.30042 14.8104 7.76806 14.5079 7.31525C14.2053 6.86244 13.7753 6.50951 13.2721 6.30111C12.769 6.0927 12.2153 6.03817 11.6812 6.14442C11.1471 6.25066 10.6564 6.51291 10.2714 6.89799C9.88628 7.28308 9.62404 7.77371 9.5178 8.30784C9.41155 8.84196 9.46607 9.3956 9.67448 9.89874C9.88288 10.4019 10.2358 10.8319 10.6886 11.1345C11.1414 11.437 11.6738 11.5985 12.2184 11.5985C12.948 11.5965 13.6473 11.3058 14.1632 10.7898C14.6791 10.2739 14.9699 9.57467 14.9719 8.84502ZM13.8019 8.84502C13.7918 9.25814 13.6205 9.65092 13.3248 9.93952C13.029 10.2281 12.6321 10.3897 12.2189 10.3897C11.8056 10.3897 11.4088 10.2281 11.113 9.93952C10.8172 9.65092 10.646 9.25814 10.6358 8.84502C10.646 8.4319 10.8172 8.03911 11.113 7.75051C11.4088 7.46192 11.8056 7.30037 12.2189 7.30037C12.6321 7.30037 13.029 7.46192 13.3248 7.75051C13.6205 8.03911 13.7918 8.4319 13.8019 8.84502ZM14.9719 2.75349C14.9719 2.2089 14.8104 1.67653 14.5079 1.22372C14.2053 0.770909 13.7753 0.417985 13.2721 0.209578C12.769 0.00117157 12.2153 -0.0533571 11.6812 0.0528877C11.1471 0.159132 10.6564 0.421379 10.2714 0.806464C9.88628 1.19155 9.62404 1.68218 9.5178 2.21631C9.41155 2.75043 9.46607 3.30407 9.67448 3.80721C9.88288 4.31035 10.2358 4.74039 10.6886 5.04295C11.1414 5.34551 11.6738 5.507 12.2184 5.507C12.948 5.50498 13.6473 5.21423 14.1632 4.69829C14.6791 4.18234 14.9699 3.48314 14.9719 2.75349ZM13.8019 2.75349C13.7918 3.16661 13.6205 3.55939 13.3248 3.84799C13.029 4.13659 12.6321 4.29813 12.2189 4.29813C11.8056 4.29813 11.4088 4.13659 11.113 3.84799C10.8172 3.55939 10.646 3.16661 10.6358 2.75349C10.646 2.34037 10.8172 1.94758 11.113 1.65899C11.4088 1.37039 11.8056 1.20885 12.2189 1.20885C12.6321 1.20885 13.029 1.37039 13.3248 1.65899C13.6205 1.94758 13.7918 2.34037 13.8019 2.75349ZM32.3869 21.0625C32.3869 20.5179 32.2254 19.9855 31.9229 19.5327C31.6203 19.0799 31.1903 18.727 30.6871 18.5185C30.184 18.3101 29.6303 18.2556 29.0962 18.3619C28.5621 18.4681 28.0715 18.7304 27.6864 19.1154C27.3013 19.5005 27.039 19.9911 26.9328 20.5253C26.8266 21.0594 26.8811 21.613 27.0895 22.1162C27.2979 22.6193 27.6508 23.0494 28.1036 23.3519C28.5564 23.6545 29.0888 23.816 29.6334 23.816C30.3631 23.814 31.0623 23.5232 31.5782 23.0073C32.0941 22.4913 32.3849 21.7921 32.3869 21.0625ZM31.2169 21.0625C31.2176 21.2706 31.177 21.4768 31.0977 21.6692C31.0183 21.8616 30.9017 22.0364 30.7545 22.1836C30.6074 22.3308 30.4325 22.4474 30.2401 22.5267C30.0477 22.6061 29.8415 22.6466 29.6334 22.646C29.4222 22.6512 29.2122 22.6141 29.0156 22.5368C28.819 22.4596 28.6398 22.3438 28.4886 22.1963C28.3375 22.0488 28.2173 21.8725 28.1353 21.6779C28.0532 21.4833 28.011 21.2742 28.011 21.0629C28.011 20.8517 28.0532 20.6426 28.1353 20.448C28.2173 20.2533 28.3375 20.0771 28.4886 19.9295C28.6398 19.782 28.819 19.6663 29.0156 19.589C29.2122 19.5118 29.4222 19.4747 29.6334 19.4799C29.8415 19.4793 30.0476 19.5198 30.2399 19.5991C30.4323 19.6783 30.607 19.7949 30.7542 19.9419C30.9013 20.089 31.018 20.2637 31.0974 20.456C31.1768 20.6483 31.2174 20.8544 31.2169 21.0625ZM32.3869 27.154C32.3869 26.6094 32.2254 26.077 31.9229 25.6242C31.6203 25.1714 31.1903 24.8185 30.6871 24.6101C30.184 24.4017 29.6303 24.3471 29.0962 24.4534C28.5621 24.5596 28.0715 24.8219 27.6864 25.207C27.3013 25.592 27.039 26.0827 26.9328 26.6168C26.8266 27.1509 26.8811 27.7046 27.0895 28.2077C27.2979 28.7108 27.6508 29.1409 28.1036 29.4434C28.5564 29.746 29.0888 29.9075 29.6334 29.9075C30.3629 29.9055 31.0619 29.6149 31.5779 29.0991C32.0938 28.5834 32.3846 27.8844 32.3869 27.1549V27.154ZM31.2169 27.154C31.2176 27.3621 31.177 27.5683 31.0977 27.7607C31.0183 27.9531 30.9017 28.1279 30.7545 28.2751C30.6074 28.4223 30.4325 28.5389 30.2401 28.6183C30.0477 28.6976 29.8415 28.7381 29.6334 28.7375C29.2149 28.7328 28.8148 28.5645 28.5189 28.2685C28.2229 27.9725 28.0546 27.5725 28.0499 27.154C28.06 26.7409 28.2313 26.3481 28.527 26.0595C28.8228 25.7709 29.2197 25.6093 29.6329 25.6093C30.0462 25.6093 30.443 25.7709 30.7388 26.0595C31.0346 26.3481 31.2058 26.7409 31.216 27.154H31.2169ZM32.3869 33.2455C32.3869 32.7009 32.2254 32.1686 31.9229 31.7157C31.6203 31.2629 31.1903 30.91 30.6871 30.7016C30.184 30.4932 29.6303 30.4387 29.0962 30.5449C28.5621 30.6512 28.0715 30.9134 27.6864 31.2985C27.3013 31.6836 27.039 32.1742 26.9328 32.7083C26.8266 33.2425 26.8811 33.7961 27.0895 34.2992C27.2979 34.8024 27.6508 35.2324 28.1036 35.535C28.5564 35.8375 29.0888 35.999 29.6334 35.999C30.3629 35.997 31.0619 35.7064 31.5779 35.1907C32.0938 34.6749 32.3846 33.976 32.3869 33.2465V33.2455ZM31.2169 33.2455C31.2176 33.4536 31.177 33.6598 31.0977 33.8523C31.0183 34.0447 30.9017 34.2195 30.7545 34.3666C30.6074 34.5138 30.4325 34.6304 30.2401 34.7098C30.0477 34.7891 29.8415 34.8297 29.6334 34.829C29.2149 34.8243 28.8148 34.656 28.5189 34.36C28.2229 34.0641 28.0546 33.664 28.0499 33.2455C28.06 32.8324 28.2313 32.4396 28.527 32.151C28.8228 31.8624 29.2197 31.7009 29.6329 31.7009C30.0462 31.7009 30.443 31.8624 30.7388 32.151C31.0346 32.4396 31.2058 32.8324 31.216 33.2455H31.2169ZM32.3869 14.9356C32.3869 14.391 32.2254 13.8586 31.9229 13.4058C31.6203 12.953 31.1903 12.6001 30.6871 12.3917C30.184 12.1833 29.6303 12.1287 29.0962 12.235C28.5621 12.3412 28.0715 12.6035 27.6864 12.9886C27.3013 13.3737 27.039 13.8643 26.9328 14.3984C26.8266 14.9325 26.8811 15.4862 27.0895 15.9893C27.2979 16.4925 27.6508 16.9225 28.1036 17.2251C28.5564 17.5276 29.0888 17.6891 29.6334 17.6891C30.3629 17.6871 31.0619 17.3965 31.5779 16.8807C32.0938 16.365 32.3846 15.666 32.3869 14.9365V14.9356ZM31.2169 14.9356C31.2176 15.1437 31.177 15.3499 31.0977 15.5423C31.0183 15.7347 30.9017 15.9096 30.7545 16.0567C30.6074 16.2039 30.4325 16.3205 30.2401 16.3999C30.0477 16.4792 29.8415 16.5198 29.6334 16.5191C29.3202 16.5191 29.014 16.4263 28.7536 16.2522C28.4932 16.0782 28.2903 15.8309 28.1704 15.5416C28.0506 15.2522 28.0192 14.9338 28.0803 14.6267C28.1414 14.3195 28.2922 14.0373 28.5137 13.8159C28.7351 13.5944 29.0173 13.4436 29.3245 13.3825C29.6317 13.3214 29.95 13.3527 30.2394 13.4726C30.5287 13.5925 30.7761 13.7954 30.9501 14.0558C31.1241 14.3162 31.2169 14.6224 31.2169 14.9356ZM32.3869 8.84406C32.3869 8.29947 32.2254 7.76711 31.9229 7.3143C31.6203 6.86148 31.1903 6.50856 30.6871 6.30015C30.184 6.09175 29.6303 6.03722 29.0962 6.14346C28.5621 6.24971 28.0715 6.51195 27.6864 6.89704C27.3013 7.28212 27.039 7.77275 26.9328 8.30688C26.8266 8.84101 26.8811 9.39465 27.0895 9.89779C27.2979 10.4009 27.6508 10.831 28.1036 11.1335C28.5564 11.4361 29.0888 11.5976 29.6334 11.5976C30.3629 11.5956 31.0619 11.3049 31.5779 10.7892C32.0938 10.2735 32.3846 9.57451 32.3869 8.84502V8.84406ZM31.2169 8.84406C31.2176 9.05219 31.177 9.25839 31.0977 9.4508C31.0183 9.64321 30.9017 9.81802 30.7545 9.96519C30.6074 10.1124 30.4325 10.229 30.2401 10.3083C30.0477 10.3877 29.8415 10.4282 29.6334 10.4276C29.3202 10.4276 29.014 10.3347 28.7536 10.1607C28.4932 9.98672 28.2903 9.73941 28.1704 9.45005C28.0506 9.1607 28.0192 8.84231 28.0803 8.53513C28.1414 8.22796 28.2922 7.9458 28.5137 7.72434C28.7351 7.50288 29.0173 7.35206 29.3245 7.29096C29.6317 7.22986 29.95 7.26122 30.2394 7.38107C30.5287 7.50093 30.7761 7.70389 30.9501 7.9643C31.1241 8.22471 31.2169 8.53087 31.2169 8.84406ZM32.3869 2.75253C32.3869 2.20794 32.2254 1.67558 31.9229 1.22277C31.6203 0.769954 31.1903 0.41703 30.6871 0.208623C30.184 0.000216495 29.6303 -0.0543122 29.0962 0.0519326C28.5621 0.158177 28.0715 0.420424 27.6864 0.805509C27.3013 1.19059 27.039 1.68122 26.9328 2.21535C26.8266 2.74948 26.8811 3.30312 27.0895 3.80626C27.2979 4.30939 27.6508 4.73943 28.1036 5.04199C28.5564 5.34455 29.0888 5.50604 29.6334 5.50604C30.3629 5.50403 31.0619 5.21341 31.5779 4.69767C32.0938 4.18193 32.3846 3.48298 32.3869 2.75349V2.75253ZM31.2169 2.75253C31.2176 2.96066 31.177 3.16686 31.0977 3.35927C31.0183 3.55168 30.9017 3.72649 30.7545 3.87366C30.6074 4.02083 30.4325 4.13745 30.2401 4.21681C30.0477 4.29617 29.8415 4.33669 29.6334 4.33606C29.2149 4.33135 28.8148 4.163 28.5189 3.86705C28.2229 3.57109 28.0546 3.17105 28.0499 2.75253C28.06 2.33941 28.2313 1.94663 28.527 1.65803C28.8228 1.36943 29.2197 1.20789 29.6329 1.20789C30.0462 1.20789 30.443 1.36943 30.7388 1.65803C31.0346 1.94663 31.2058 2.33941 31.216 2.75253H31.2169Z" fill="#6E7782"/>
</g>
<defs>
<clipPath id="clip0">
<rect width="38.2034" height="36" fill="white"/>
</clipPath>
</defs>
</svg>
