<svg width="48" height="48" viewBox="0 0 48 48" fill="none" xmlns="http://www.w3.org/2000/svg">
<path d="M14.1392 30.8817C14.1392 30.0845 13.5861 29.6091 12.6101 29.6091C12.2116 29.6091 11.9417 29.6485 11.8005 29.6861V32.2437C11.9677 32.2813 12.1732 32.2939 12.4564 32.2939C13.4967 32.2939 14.1392 31.7683 14.1392 30.8817Z" fill="#ADB5BD"/>
<path d="M20.181 29.636C19.7439 29.636 19.4615 29.6737 19.2944 29.7128V35.3772C19.4616 35.4164 19.7315 35.4164 19.9755 35.4164C21.7485 35.429 22.9048 34.453 22.9048 32.385C22.9174 30.5867 21.8637 29.636 20.181 29.636Z" fill="#ADB5BD"/>
<path d="M31.4058 0H12.127C9.31057 0 7.01829 2.29387 7.01829 5.10872V23.9999H6.51932C5.38258 23.9999 4.46069 24.9209 4.46069 26.0586V38.5434C4.46069 39.681 5.38248 40.6019 6.51932 40.6019H7.01829V42.8912C7.01829 45.7091 9.31057 47.9999 12.127 47.9999H38.432C41.2467 47.9999 43.5393 45.709 43.5393 42.8912V12.091L31.4058 0ZM9.86132 28.3117C10.4646 28.2097 11.3126 28.1329 12.5074 28.1329C13.7148 28.1329 14.5754 28.3633 15.1536 28.8263C15.706 29.2625 16.0787 29.9826 16.0787 30.83C16.0787 31.6773 15.7963 32.3976 15.2823 32.8855C14.6139 33.5147 13.6254 33.7971 12.4691 33.7971C12.2117 33.7971 11.9811 33.7844 11.8007 33.7594V36.8552H9.86132V28.3117ZM38.432 44.8713H12.127C11.0365 44.8713 10.1484 43.9832 10.1484 42.8912V40.6019H34.6701C35.807 40.6019 36.7288 39.681 36.7288 38.5434V26.0586C36.7288 24.9209 35.807 23.9999 34.6701 23.9999H10.1484V5.10872C10.1484 4.01978 11.0366 3.13174 12.127 3.13174L30.2353 3.11282V9.80628C30.2353 11.7614 31.8216 13.3492 33.7782 13.3492L40.3352 13.3304L40.4089 42.8911C40.4089 43.9832 39.5225 44.8713 38.432 44.8713ZM17.3292 36.816V28.3117C18.0485 28.1972 18.986 28.1329 19.9754 28.1329C21.6197 28.1329 22.6859 28.4279 23.5214 29.057C24.4205 29.7254 24.9853 30.7908 24.9853 32.3205C24.9853 33.9774 24.382 35.1213 23.5464 35.8273C22.6348 36.5851 21.2471 36.9445 19.5517 36.9445C18.5364 36.9445 17.8171 36.8802 17.3292 36.816ZM31.3494 31.7809V33.3734H28.2403V36.8552H26.275V28.1972H31.5674V29.8022H28.2403V31.7809H31.3494Z" fill="#ADB5BD"/>
</svg>
