<svg width="16" height="16" viewBox="0 0 16 16" fill="none" xmlns="http://www.w3.org/2000/svg">
<path d="M7.99965 15.9998C12.4177 15.9998 15.9993 12.4182 15.9993 8.00015C15.9993 3.58206 12.4177 0.000488281 7.99965 0.000488281C3.58156 0.000488281 0 3.58206 0 8.00015C0 12.4182 3.58156 15.9998 7.99965 15.9998Z" fill="white"/>
<path d="M15.5423 5.33276H10.6133C10.8274 7.04169 10.8287 8.92468 10.6174 10.6357H15.5529C15.841 9.81027 15.9994 8.9238 15.9994 8.00018C15.9995 7.06443 15.8374 6.16708 15.5423 5.33276Z" fill="#2B479D"/>
<path d="M10.6141 5.33277H15.5431C15.5424 5.33024 15.5416 5.32811 15.5406 5.32582C14.5168 2.4389 11.8831 0.314905 8.71875 0.032959C9.94341 0.704197 10.3011 2.83086 10.6141 5.33277Z" fill="#EFECEC"/>
<path d="M8.71875 15.9667C11.8888 15.6842 14.5261 13.5529 15.546 10.6582C15.5486 10.6505 15.5509 10.6429 15.5537 10.6355H10.6182C10.3075 13.151 9.94831 15.2926 8.71875 15.9667Z" fill="#E63026"/>
<path d="M0 7.99993C0 8.92369 0.158656 9.81003 0.446512 10.6355H11.0296C11.2411 8.9243 11.2396 7.04145 11.0257 5.33252H0.457153C0.162067 6.16687 0 7.06421 0 7.99993Z" fill="#3757A6"/>
<path d="M0.459565 5.32569C0.458821 5.32795 0.458045 5.33011 0.457031 5.33265H11.0256C10.7124 2.8307 9.94283 0.70407 8.71834 0.0328323C8.48149 0.0118561 8.242 3.84997e-10 7.99974 3.84997e-10C4.51962 -3.37777e-05 1.56016 2.2226 0.459565 5.32569Z" fill="#EFEFEF"/>
<path d="M11.0284 10.6355H0.445312C0.447981 10.643 0.450481 10.6505 0.453014 10.6582C1.54921 13.7693 4.51294 15.9998 7.99863 15.9998C8.24092 15.9998 8.48041 15.9879 8.71723 15.9667C9.94692 15.2927 10.7178 13.151 11.0284 10.6355Z" fill="#E73B36"/>
</svg>
