<svg width="20" height="20" viewBox="0 0 20 20" fill="none" xmlns="http://www.w3.org/2000/svg">
<path d="M8.95768 2.91675C12.2944 2.91675 14.9993 5.62169 14.9993 8.95841C14.9993 10.3261 14.5449 11.5876 13.7788 12.6003L17.2553 16.0775C17.5807 16.4029 17.5807 16.9306 17.2553 17.256C16.9298 17.5814 16.4022 17.5814 16.0768 17.256L12.5995 13.7795C11.5869 14.5456 10.3254 15.0001 8.95768 15.0001C5.62096 15.0001 2.91602 12.2951 2.91602 8.95841C2.91602 5.62169 5.62096 2.91675 8.95768 2.91675ZM8.95768 4.58341C6.54144 4.58341 4.58268 6.54217 4.58268 8.95841C4.58268 11.3747 6.54144 13.3334 8.95768 13.3334C11.3739 13.3334 13.3327 11.3747 13.3327 8.95841C13.3327 6.54217 11.3739 4.58341 8.95768 4.58341Z" fill="#2B2A29"/>
</svg>
