<svg width="20" height="20" viewBox="0 0 20 20" fill="none" xmlns="http://www.w3.org/2000/svg">
<path d="M8.95963 2.91663C12.2964 2.91663 15.0013 5.62157 15.0013 8.95829C15.0013 10.326 14.5468 11.5875 13.7807 12.6001L17.2572 16.0774C17.5827 16.4028 17.5827 16.9304 17.2572 17.2559C16.9318 17.5813 16.4041 17.5813 16.0787 17.2559L12.6015 13.7794C11.5889 14.5455 10.3273 15 8.95963 15C5.62291 15 2.91797 12.295 2.91797 8.95829C2.91797 5.62157 5.62291 2.91663 8.95963 2.91663ZM8.95963 4.58329C6.54339 4.58329 4.58464 6.54205 4.58464 8.95829C4.58464 11.3745 6.54339 13.3333 8.95963 13.3333C11.3759 13.3333 13.3346 11.3745 13.3346 8.95829C13.3346 6.54205 11.3759 4.58329 8.95963 4.58329Z" fill="#BABABA"/>
</svg>
