<svg width="40" height="40" viewBox="0 0 40 40" fill="none" xmlns="http://www.w3.org/2000/svg">
<circle cx="20" cy="20" r="20" fill="#FF0000"/>
<path d="M20 13.1428C25.1377 13.1428 29.8571 17.0485 29.8571 20C29.8571 22.9514 25.1377 26.8571 20 26.8571C14.8622 26.8571 10.1428 22.9514 10.1428 20C10.1428 17.0485 14.8622 13.1428 20 13.1428ZM20 14.8571C15.7449 14.8571 11.8571 18.0746 11.8571 20C11.8571 21.9254 15.7449 25.1428 20 25.1428C24.2551 25.1428 28.1428 21.9254 28.1428 20C28.1428 18.0746 24.2551 14.8571 20 14.8571ZM20 16.5714C21.8935 16.5714 23.4285 18.1064 23.4285 20C23.4285 21.8935 21.8935 23.4285 20 23.4285C18.1064 23.4285 16.5714 21.8935 16.5714 20C16.5714 18.1064 18.1064 16.5714 20 16.5714ZM20 18.2857C19.0532 18.2857 18.2857 19.0532 18.2857 20C18.2857 20.9467 19.0532 21.7143 20 21.7143C20.9467 21.7143 21.7143 20.9467 21.7143 20C21.7143 19.0532 20.9467 18.2857 20 18.2857Z" fill="white"/>
</svg>
