<svg id="Modo_de_aislamiento" data-name="Modo de aislamiento" xmlns="http://www.w3.org/2000/svg" viewBox="0 0 39.61 39.67"><defs><style>.cls-1{fill:#fff;}</style></defs><polygon class="cls-1" points="33.03 18.73 20.91 18.73 20.91 6.61 18.7 6.61 18.7 18.73 18.7 20.94 20.91 20.94 33.03 20.94 33.03 18.73"/><circle class="cls-1" cx="19.8" cy="38.57" r="1.1"/><circle class="cls-1" cx="12.18" cy="36.95" r="1.1"/><circle class="cls-1" cx="8.79" cy="34.99" r="1.1"/><circle class="cls-1" cx="5.88" cy="32.37" r="1.1"/><path class="cls-1" d="M3,28.25a1.1,1.1,0,0,0,1.1,1.91,1.1,1.1,0,0,0,.4-1.51A1.09,1.09,0,0,0,3,28.25Z"/><path class="cls-1" d="M3,25.28a1.1,1.1,0,1,0-.71,1.39A1.11,1.11,0,0,0,3,25.28Z"/><circle class="cls-1" cx="1.17" cy="21.79" r="1.1"/><circle class="cls-1" cx="38.43" cy="21.79" r="1.1"/><path class="cls-1" d="M38,24.58A1.1,1.1,0,1,0,38.67,26,1.1,1.1,0,0,0,38,24.58Z"/><circle class="cls-1" cx="36.03" cy="29.2" r="1.1"/><circle class="cls-1" cx="33.73" cy="32.37" r="1.1"/><circle class="cls-1" cx="30.81" cy="34.99" r="1.1"/><circle class="cls-1" cx="27.42" cy="36.95" r="1.1"/><path class="cls-1" d="M23.47,37.08a1.1,1.1,0,0,0-.85,1.31,1.1,1.1,0,1,0,.85-1.31Z"/><circle class="cls-1" cx="15.91" cy="38.16" r="1.1"/><path class="cls-1" d="M37.4,18.73h2.21A19.84,19.84,0,0,0,0,18.73H2.21a17.63,17.63,0,0,1,35.19,0Z"/></svg>