<svg xmlns="http://www.w3.org/2000/svg" width="1599.5" height="1010" viewBox="0 0 1599.5 1010">
  <metadata><?xpacket begin="﻿" id="W5M0MpCehiHzreSzNTczkc9d"?>
<x:xmpmeta xmlns:x="adobe:ns:meta/" x:xmptk="Adobe XMP Core 5.6-c138 79.159824, 2016/09/14-01:09:01        ">
   <rdf:RDF xmlns:rdf="http://www.w3.org/1999/02/22-rdf-syntax-ns#">
      <rdf:Description rdf:about=""/>
   </rdf:RDF>
</x:xmpmeta>
                                                                                                    
                                                                                                    
                                                                                                    
                                                                                                    
                                                                                                    
                                                                                                    
                                                                                                    
                                                                                                    
                                                                                                    
                                                                                                    
                                                                                                    
                                                                                                    
                                                                                                    
                                                                                                    
                                                                                                    
                                                                                                    
                                                                                                    
                                                                                                    
                                                                                                    
                                                                                                    
                           
<?xpacket end="w"?></metadata>
<defs>
    <style>
      .cls-1 {
        stroke: #000;
        stroke-width: 1px;
        fill-rule: evenodd;
        opacity: 0.07;
      }
    </style>
  </defs>
  <path id="Rounded_Rectangle_3_copy_2" data-name="Rounded Rectangle 3 copy 2" class="cls-1" d="M4.208,2112.01l121.22-70.02c4.782-2.76,13.135-2.41,18.657.78l40.616,23.46c5.522,3.19,6.121,8.01,1.339,10.77L64.82,2147.02c-4.782,2.76-13.135,2.41-18.657-.78L5.548,2122.79C0.026,2119.6-.574,2114.77,4.208,2112.01Zm77.93,45.01,43.293-25c4.782-2.77,13.135-2.42,18.657.77l40.616,23.46c5.521,3.19,6.121,8.01,1.339,10.77l-43.293,25.01c-4.782,2.76-13.135,2.42-18.656-.77L83.478,2167.8C77.956,2164.61,77.356,2159.78,82.138,2157.02ZM255.309,2057l43.293-25.01c4.782-2.76,13.135-2.41,18.657.78l40.616,23.46c5.522,3.19,6.121,8.01,1.339,10.77l-43.293,25.01c-4.781,2.76-13.134,2.41-18.656-.77l-40.616-23.46C251.127,2064.59,250.527,2059.76,255.309,2057Zm0-90.02,43.292-25.01c4.782-2.76,13.135-2.41,18.657.78l40.616,23.46c5.522,3.19,6.122,8.01,1.34,10.77l-43.293,25.01c-4.782,2.76-13.135,2.41-18.657-.78l-40.616-23.46C251.124,1974.57,250.525,1969.74,255.307,1966.98Zm173.18,190.05,121.22-70.02c4.782-2.76,13.135-2.42,18.656.77l40.616,23.46c5.522,3.19,6.122,8.02,1.34,10.78L489.1,2192.03c-4.782,2.77-13.135,2.42-18.657-.77l-40.616-23.46C424.305,2164.61,423.705,2159.79,428.487,2157.03ZM255.316,2257.05l43.292-25.01c4.783-2.76,13.135-2.41,18.657.77l40.616,23.46c5.522,3.19,6.122,8.02,1.34,10.78l-43.293,25.01c-4.782,2.76-13.135,2.41-18.657-.78l-40.616-23.46C251.133,2264.63,250.534,2259.81,255.316,2257.05Zm173.174,10,43.293-25c4.782-2.77,13.135-2.42,18.657.77l40.616,23.46c5.522,3.19,6.121,8.01,1.339,10.77L489.1,2302.06c-4.782,2.76-13.135,2.42-18.657-.77l-40.616-23.46C424.308,2274.64,423.708,2269.81,428.49,2267.05Zm173.174-10,43.293-25c4.782-2.77,13.135-2.42,18.657.77l40.616,23.46c5.522,3.19,6.121,8.01,1.339,10.77l-43.292,25.01c-4.782,2.76-13.135,2.41-18.657-.77L603,2267.83C597.482,2264.64,596.882,2259.81,601.664,2257.05ZM679.6,2412.09l43.293-25.01c4.782-2.76,13.134-2.41,18.656.78l40.616,23.45c5.522,3.19,6.122,8.02,1.34,10.78L740.21,2447.1c-4.782,2.76-13.135,2.41-18.657-.78l-40.616-23.46C675.415,2419.67,674.816,2414.85,679.6,2412.09Zm95.25,145.03,121.22-70.01c4.782-2.76,13.135-2.42,18.657.77l40.616,23.46c5.521,3.19,6.121,8.01,1.339,10.78l-121.22,70.01c-4.782,2.76-13.135,2.42-18.656-.77l-40.616-23.46C770.666,2564.71,770.066,2559.88,774.848,2557.12Zm173.169-190.04,43.292-25.01c4.782-2.76,13.131-2.41,18.661.78l40.61,23.46c5.52,3.19,6.12,8.01,1.34,10.77l-43.29,25.01c-4.78,2.76-13.136,2.41-18.658-.78l-40.616-23.45C943.834,2374.67,943.235,2369.84,948.017,2367.08Zm95.253,145.03,43.29-25c4.78-2.76,13.13-2.42,18.66.77l40.61,23.46c5.52,3.19,6.12,8.02,1.34,10.78l-43.29,25c-4.78,2.77-13.14,2.42-18.66-.77l-40.61-23.46C1039.08,2519.7,1038.49,2514.88,1043.27,2512.11Zm692.68-400.08,121.22-70.02c4.78-2.76,13.14-2.41,18.66.78l40.61,23.46c5.53,3.19,6.13,8.01,1.34,10.77l-121.22,70.02c-4.78,2.76-13.13,2.41-18.65-.78l-40.62-23.46C1731.77,2119.61,1731.17,2114.79,1735.95,2112.03ZM1718.63,2012l43.29-25c4.79-2.76,13.14-2.42,18.66.77l40.62,23.46c5.52,3.19,6.12,8.02,1.34,10.78l-43.3,25c-4.78,2.77-13.13,2.42-18.65-.77l-40.62-23.46C1714.45,2019.59,1713.85,2014.77,1718.63,2012Zm-173.17,100.03,43.29-25.01c4.79-2.76,13.14-2.41,18.66.77l40.62,23.46c5.52,3.19,6.12,8.02,1.34,10.78l-43.3,25.01c-4.78,2.76-13.13,2.41-18.65-.78l-40.62-23.46C1541.28,2119.61,1540.68,2114.79,1545.46,2112.03Zm17.32,100.02,43.29-25.01c4.79-2.76,13.14-2.41,18.66.78l40.62,23.46c5.52,3.19,6.12,8.01,1.34,10.77l-43.3,25.01c-4.78,2.76-13.13,2.41-18.65-.77l-40.62-23.46C1558.6,2219.64,1558,2214.81,1562.78,2212.05Zm-268.42-155.04L1415.58,1987c4.78-2.77,13.13-2.42,18.65.77l40.62,23.46c5.52,3.19,6.12,8.01,1.34,10.77l-121.22,70.02c-4.78,2.76-13.14,2.42-18.66-.77l-40.61-23.46C1290.17,2064.6,1289.57,2059.77,1294.36,2057.01Zm251.09-145.03,43.3-25.01c4.78-2.76,13.13-2.41,18.65.78l40.62,23.46c5.52,3.19,6.12,8.01,1.34,10.77l-43.29,25.01c-4.79,2.76-13.14,2.41-18.66-.78l-40.62-23.45C1541.27,1919.57,1540.67,1914.74,1545.45,1911.98Zm-155.85,0,43.29-25.01c4.78-2.76,13.13-2.41,18.66.78l40.61,23.46c5.52,3.18,6.12,8.01,1.34,10.77l-43.29,25.01c-4.78,2.76-13.14,2.41-18.66-.78l-40.61-23.46C1385.41,1919.56,1384.82,1914.74,1389.6,1911.98Zm-190.49,0,43.29-25.01c4.78-2.76,13.13-2.42,18.65.77l40.62,23.46c5.52,3.19,6.12,8.02,1.34,10.78l-43.29,25c-4.78,2.77-13.14,2.42-18.66-.77l-40.62-23.46C1194.92,1919.56,1194.32,1914.74,1199.11,1911.98Zm-77.94-155.04,43.29-25.01c4.79-2.76,13.14-2.41,18.66.78l40.62,23.46c5.52,3.19,6.12,8.01,1.34,10.77l-43.3,25.01c-4.78,2.76-13.13,2.41-18.65-.78l-40.62-23.46C1116.99,1764.52,1116.39,1759.7,1121.17,1756.94ZM948,1656.91l121.215-70.01c4.79-2.76,13.14-2.42,18.66.77l40.62,23.46c5.52,3.19,6.12,8.01,1.34,10.78l-121.22,70.01c-4.79,2.76-13.138,2.42-18.66-.77l-40.616-23.46C943.812,1664.5,943.213,1659.68,948,1656.91Zm-77.924,155.04,43.293-25.01c4.782-2.76,13.135-2.41,18.656.78l40.616,23.46c5.522,3.19,6.122,8.01,1.34,10.77l-43.293,25.01c-4.782,2.76-13.135,2.41-18.657-.78l-40.616-23.46C865.889,1819.54,865.289,1814.71,870.071,1811.95ZM774.82,1666.91l43.293-25c4.782-2.76,13.135-2.42,18.657.77l40.616,23.46c5.522,3.19,6.121,8.01,1.339,10.78l-43.292,25c-4.782,2.76-13.135,2.42-18.657-.77l-40.616-23.46C770.638,1674.5,770.038,1669.68,774.82,1666.91Zm692.72,690.17,43.29-25c4.78-2.76,13.14-2.42,18.66.77l40.61,23.46c5.53,3.19,6.13,8.01,1.34,10.78l-43.29,25c-4.78,2.76-13.13,2.42-18.66-.77l-40.61-23.46C1463.36,2364.67,1462.76,2359.84,1467.54,2357.08Zm-173.17,10,43.29-25c4.78-2.76,13.13-2.42,18.65.77l40.62,23.46c5.52,3.19,6.12,8.01,1.34,10.78l-43.29,25c-4.78,2.76-13.14,2.42-18.66-.77l-40.62-23.46C1290.18,2374.67,1289.58,2369.85,1294.37,2367.08Zm-251.12-255.06,43.3-25c4.78-2.77,13.13-2.42,18.65.77l118.55,68.47c5.52,3.19,6.12,8.01,1.34,10.78l-43.29,25c-4.79,2.76-13.14,2.42-18.66-.77l-118.55-68.47C1039.07,2119.61,1038.47,2114.78,1043.25,2112.02Zm-346.344,0,43.293-25.01c4.782-2.76,13.135-2.41,18.656.78L877.4,2156.26c5.522,3.19,6.122,8.01,1.34,10.77l-43.293,25.01c-4.782,2.76-13.135,2.41-18.657-.78l-118.546-68.47C692.724,2119.6,692.124,2114.78,696.906,2112.02Zm77.921-245.06,43.293-25c4.781-2.77,13.134-2.42,18.656.77l40.616,23.46c5.522,3.19,6.122,8.01,1.34,10.77l-43.293,25.01c-4.782,2.76-13.135,2.41-18.657-.77l-40.616-23.46C770.644,1874.55,770.045,1869.72,774.827,1866.96Zm-173.175-10,43.293-25.01c4.782-2.76,13.135-2.41,18.656.77l40.616,23.46c5.522,3.19,6.122,8.02,1.34,10.78l-43.293,25.01c-4.782,2.76-13.135,2.41-18.657-.78l-40.616-23.46C597.47,1864.54,596.87,1859.72,601.652,1856.96ZM948.01,2167.03l43.293-25c4.782-2.76,13.137-2.42,18.657.77l40.62,23.46c5.52,3.19,6.12,8.01,1.34,10.78l-43.3,25c-4.78,2.76-13.132,2.42-18.654-.77l-40.616-23.46C943.828,2174.62,943.228,2169.79,948.01,2167.03Z" transform="translate(-0.5 -1584.5)"/>
</svg>