<svg xmlns="http://www.w3.org/2000/svg" width="1600" height="1010" viewBox="0 0 1600 1010">
  <metadata><?xpacket begin="﻿" id="W5M0MpCehiHzreSzNTczkc9d"?>
<x:xmpmeta xmlns:x="adobe:ns:meta/" x:xmptk="Adobe XMP Core 5.6-c138 79.159824, 2016/09/14-01:09:01        ">
   <rdf:RDF xmlns:rdf="http://www.w3.org/1999/02/22-rdf-syntax-ns#">
      <rdf:Description rdf:about=""/>
   </rdf:RDF>
</x:xmpmeta>
                                                                                                    
                                                                                                    
                                                                                                    
                                                                                                    
                                                                                                    
                                                                                                    
                                                                                                    
                                                                                                    
                                                                                                    
                                                                                                    
                                                                                                    
                                                                                                    
                                                                                                    
                                                                                                    
                                                                                                    
                                                                                                    
                                                                                                    
                                                                                                    
                                                                                                    
                                                                                                    
                           
<?xpacket end="w"?></metadata>
<defs>
    <style>
      .cls-1 {
        stroke: #000;
        stroke-width: 1px;
        fill-rule: evenodd;
        opacity: 0.07;
      }
    </style>
  </defs>
  <path id="Rounded_Rectangle_3_copy_3" data-name="Rounded Rectangle 3 copy 3" class="cls-1" d="M-158.792,6518.01l121.22-70.02c4.782-2.76,13.135-2.41,18.657.78L21.7,6472.23c5.522,3.19,6.121,8.01,1.34,10.77l-121.22,70.02c-4.782,2.76-13.134,2.41-18.656-.77l-40.616-23.46C-162.974,6525.6-163.574,6520.77-158.792,6518.01Zm77.93,45.01,43.293-25c4.782-2.77,13.135-2.42,18.657.77L21.7,6562.25c5.522,3.19,6.122,8.01,1.34,10.78l-43.293,25c-4.782,2.76-13.135,2.42-18.657-.77l-40.616-23.46C-85.044,6570.61-85.644,6565.78-80.862,6563.02ZM92.31,6463l43.293-25.01c4.782-2.76,13.135-2.41,18.657.78l40.616,23.46c5.522,3.19,6.121,8.01,1.339,10.77l-43.292,25.01c-4.782,2.76-13.135,2.41-18.657-.78l-40.616-23.45C88.127,6470.59,87.528,6465.76,92.31,6463Zm0-90.02,43.292-25.01c4.782-2.76,13.135-2.41,18.657.78l40.616,23.46c5.522,3.19,6.122,8.01,1.34,10.77l-43.293,25.01c-4.782,2.76-13.135,2.41-18.657-.78l-40.616-23.46C88.124,6380.57,87.525,6375.74,92.307,6372.98Zm173.18,190.04,121.22-70.01c4.782-2.76,13.135-2.42,18.656.77l40.616,23.46c5.522,3.19,6.122,8.02,1.34,10.78L326.1,6598.03c-4.782,2.77-13.135,2.42-18.657-.77l-40.616-23.46C261.305,6570.61,260.705,6565.79,265.487,6563.02ZM92.316,6663.05l43.292-25.01c4.782-2.76,13.135-2.41,18.657.78l40.616,23.45c5.522,3.19,6.122,8.02,1.34,10.78l-43.293,25.01c-4.782,2.76-13.135,2.41-18.657-.78l-40.616-23.46C88.133,6670.63,87.534,6665.81,92.316,6663.05Zm173.174,10,43.293-25c4.782-2.77,13.135-2.42,18.657.77l40.616,23.46c5.522,3.19,6.121,8.01,1.339,10.77L326.1,6708.06c-4.782,2.76-13.135,2.42-18.657-.77l-40.616-23.46C261.308,6680.64,260.708,6675.81,265.49,6673.05Zm173.174-10,43.293-25.01c4.782-2.76,13.135-2.41,18.657.78l40.616,23.46c5.522,3.19,6.121,8.01,1.339,10.77l-43.292,25.01c-4.782,2.76-13.135,2.41-18.657-.77L440,6673.83C434.482,6670.64,433.882,6665.81,438.664,6663.05ZM516.6,6818.09l43.293-25.01c4.782-2.76,13.134-2.41,18.656.78l40.616,23.46c5.522,3.18,6.122,8.01,1.34,10.77L577.21,6853.1c-4.782,2.76-13.135,2.41-18.657-.78l-40.616-23.46C512.415,6825.67,511.816,6820.85,516.6,6818.09Zm95.25,145.03,121.22-70.01c4.782-2.76,13.135-2.42,18.657.77l40.616,23.46c5.521,3.19,6.121,8.01,1.339,10.78l-121.22,70.01c-4.782,2.76-13.135,2.42-18.656-.77l-40.616-23.46C607.666,6970.71,607.066,6965.88,611.848,6963.12Zm173.169-190.04,43.292-25.01c4.782-2.76,13.135-2.41,18.657.78l40.616,23.46c5.522,3.19,6.121,8.01,1.34,10.77l-43.293,25.01c-4.782,2.76-13.135,2.41-18.657-.78l-40.616-23.45C780.834,6780.67,780.235,6775.84,785.017,6773.08Zm95.25,145.03,43.293-25c4.782-2.76,13.135-2.42,18.656.77l40.617,23.46c5.521,3.19,6.121,8.02,1.339,10.78l-43.293,25c-4.782,2.77-13.135,2.42-18.656-.77l-40.617-23.46C876.085,6925.7,875.485,6920.88,880.267,6918.11Zm692.683-400.08,121.22-70.02c4.78-2.76,13.14-2.41,18.66.78l40.61,23.46c5.53,3.18,6.13,8.01,1.34,10.77l-121.22,70.02c-4.78,2.76-13.13,2.41-18.65-.78l-40.62-23.46C1568.77,6525.61,1568.17,6520.79,1572.95,6518.03ZM1555.63,6418l43.29-25c4.79-2.76,13.14-2.42,18.66.77l40.62,23.46c5.52,3.19,6.12,8.02,1.34,10.78l-43.3,25c-4.78,2.77-13.13,2.42-18.65-.77l-40.62-23.46C1551.45,6425.59,1550.85,6420.77,1555.63,6418Zm-173.17,100.03,43.29-25.01c4.79-2.76,13.14-2.41,18.66.77l40.62,23.46c5.52,3.19,6.12,8.02,1.34,10.78l-43.3,25c-4.78,2.77-13.13,2.42-18.65-.77l-40.62-23.46C1378.28,6525.61,1377.68,6520.79,1382.46,6518.03Zm17.32,100.02,43.29-25.01c4.79-2.76,13.14-2.41,18.66.78l40.62,23.46c5.52,3.19,6.12,8.01,1.34,10.77l-43.3,25.01c-4.78,2.76-13.13,2.41-18.65-.78l-40.62-23.45C1395.6,6625.64,1395,6620.81,1399.78,6618.05Zm-268.42-155.04L1252.58,6393c4.78-2.77,13.13-2.42,18.65.77l40.62,23.46c5.52,3.19,6.12,8.01,1.34,10.77l-121.22,70.02c-4.78,2.76-13.14,2.41-18.66-.77l-40.61-23.46C1127.17,6470.6,1126.57,6465.77,1131.36,6463.01Zm251.09-145.03,43.3-25.01c4.78-2.76,13.13-2.41,18.65.78l40.62,23.46c5.52,3.19,6.12,8.01,1.34,10.77l-43.29,25.01c-4.79,2.76-13.14,2.41-18.66-.78l-40.62-23.46C1378.27,6325.57,1377.67,6320.74,1382.45,6317.98Zm-155.85,0,43.29-25.01c4.78-2.76,13.13-2.41,18.66.78l40.61,23.46c5.52,3.18,6.12,8.01,1.34,10.77l-43.29,25.01c-4.78,2.76-13.14,2.41-18.66-.78l-40.61-23.46C1222.41,6325.56,1221.82,6320.74,1226.6,6317.98Zm-190.49,0,43.29-25.01c4.78-2.76,13.13-2.42,18.65.77l40.62,23.46c5.52,3.19,6.12,8.02,1.34,10.78l-43.29,25c-4.78,2.77-13.14,2.42-18.66-.77l-40.62-23.46C1031.92,6325.56,1031.32,6320.74,1036.11,6317.98Zm-77.938-155.04,43.288-25.01c4.79-2.76,13.14-2.41,18.66.78l40.62,23.46c5.52,3.19,6.12,8.01,1.34,10.77l-43.3,25.01c-4.78,2.76-13.13,2.41-18.65-.78l-40.619-23.46C953.99,6170.53,953.39,6165.7,958.172,6162.94ZM785,6062.91l121.219-70.01c4.782-2.76,13.135-2.42,18.657.77l40.616,23.46c5.522,3.19,6.122,8.01,1.34,10.78l-121.22,70.01c-4.782,2.76-13.135,2.42-18.657-.77l-40.616-23.46C780.812,6070.5,780.212,6065.67,785,6062.91Zm-77.924,155.04,43.293-25.01c4.782-2.76,13.134-2.41,18.656.78l40.616,23.46c5.522,3.19,6.122,8.01,1.34,10.77l-43.293,25.01c-4.782,2.76-13.135,2.41-18.657-.78l-40.616-23.46C702.889,6225.54,702.289,6220.71,707.071,6217.95ZM611.82,6072.91l43.293-25c4.782-2.76,13.135-2.42,18.657.77l40.616,23.46c5.522,3.19,6.121,8.02,1.339,10.78l-43.292,25c-4.782,2.76-13.135,2.42-18.657-.77l-40.616-23.46C607.638,6080.5,607.038,6075.68,611.82,6072.91Zm692.72,690.17,43.29-25c4.78-2.76,13.14-2.42,18.66.77l40.61,23.46c5.53,3.19,6.13,8.01,1.34,10.78l-43.29,25c-4.78,2.76-13.13,2.42-18.66-.77l-40.61-23.46C1300.36,6770.67,1299.76,6765.84,1304.54,6763.08Zm-173.17,10,43.29-25c4.78-2.76,13.13-2.42,18.65.77l40.62,23.46c5.52,3.19,6.12,8.01,1.34,10.78l-43.29,25c-4.78,2.76-13.14,2.42-18.66-.77l-40.62-23.46C1127.18,6780.67,1126.58,6775.85,1131.37,6773.08ZM880.255,6518.02l43.292-25c4.782-2.77,13.135-2.42,18.657.77l118.546,68.47c5.52,3.19,6.12,8.01,1.34,10.78l-43.29,25c-4.79,2.76-13.14,2.42-18.66-.77L881.594,6528.8C876.072,6525.61,875.473,6520.78,880.255,6518.02Zm-346.349,0,43.293-25.01c4.782-2.76,13.135-2.41,18.656.78L714.4,6562.26c5.522,3.19,6.122,8.01,1.34,10.77l-43.293,25.01c-4.782,2.76-13.135,2.41-18.657-.78l-118.546-68.47C529.724,6525.6,529.124,6520.78,533.906,6518.02Zm77.921-245.06,43.293-25c4.781-2.77,13.134-2.42,18.656.77l40.616,23.46c5.522,3.19,6.122,8.01,1.34,10.77l-43.293,25.01c-4.782,2.76-13.135,2.42-18.657-.77l-40.616-23.46C607.644,6280.55,607.045,6275.72,611.827,6272.96Zm-173.175-10,43.293-25.01c4.782-2.76,13.135-2.41,18.656.77l40.616,23.46c5.522,3.19,6.122,8.02,1.34,10.78l-43.293,25.01c-4.782,2.76-13.135,2.41-18.657-.78l-40.616-23.46C434.47,6270.54,433.87,6265.72,438.652,6262.96ZM785.01,6573.03l43.293-25c4.782-2.76,13.135-2.42,18.657.77l40.616,23.46c5.522,3.19,6.121,8.01,1.339,10.78l-43.292,25c-4.782,2.76-13.135,2.42-18.657-.77l-40.616-23.46C780.828,6580.62,780.228,6575.8,785.01,6573.03ZM185.017,6033.08l43.292-25.01c4.782-2.76,13.135-2.41,18.657.78l40.616,23.46c5.522,3.19,6.121,8.01,1.34,10.77l-43.293,25.01c-4.782,2.76-13.135,2.41-18.657-.78l-40.616-23.45C180.834,6040.67,180.235,6035.84,185.017,6033.08Zm95.25,145.03,43.293-25c4.782-2.76,13.135-2.42,18.656.77l40.617,23.46c5.521,3.19,6.121,8.02,1.339,10.78l-43.293,25c-4.782,2.77-13.135,2.42-18.656-.77l-40.617-23.46C276.085,6185.7,275.485,6180.88,280.267,6178.11Zm424.272-155.03,43.293-25c4.782-2.76,13.135-2.42,18.657.77l40.616,23.46c5.522,3.19,6.121,8.01,1.339,10.78l-43.292,25c-4.782,2.76-13.135,2.42-18.657-.77l-40.616-23.46C700.357,6030.67,699.757,6025.84,704.539,6023.08Zm-173.174,10,43.293-25c4.782-2.76,13.135-2.42,18.657.77l40.616,23.46c5.522,3.19,6.121,8.01,1.339,10.78l-43.292,25c-4.783,2.76-13.135,2.42-18.657-.77l-40.616-23.46C527.183,6040.67,526.583,6035.85,531.365,6033.08Zm564.125,129.94,121.22-70.01c4.78-2.76,13.13-2.42,18.65.77l40.62,23.46c5.52,3.19,6.12,8.02,1.34,10.78l-121.22,70.01c-4.78,2.77-13.14,2.42-18.66-.77l-40.61-23.46C1091.3,6170.61,1090.71,6165.79,1095.49,6163.02Zm268.42-45,43.29-25.01c4.78-2.76,13.13-2.41,18.66.78l118.54,68.47c5.52,3.19,6.12,8.01,1.34,10.77l-43.29,25.01c-4.78,2.76-13.14,2.41-18.66-.78l-118.54-68.47C1359.72,6125.6,1359.12,6120.78,1363.91,6118.02Z" transform="translate(0 -5990.5)"/>
</svg>