<svg width="20" height="25" viewBox="0 0 20 25" fill="none" xmlns="http://www.w3.org/2000/svg">
<path d="M16.5637 12.9624C16.536 9.88298 19.0851 8.38484 19.2017 8.31509C17.758 6.21025 15.5204 5.92266 14.734 5.89973C12.8547 5.70195 11.0317 7.02429 10.0743 7.02429C9.09785 7.02429 7.6236 5.91883 6.03469 5.95132C3.99004 5.98285 2.07723 7.16665 1.02815 9.00493C-1.13689 12.7531 0.477815 18.2613 2.55209 21.291C3.5897 22.7748 4.80217 24.4316 6.38916 24.3733C7.94176 24.3093 8.52172 23.3834 10.3953 23.3834C12.2518 23.3834 12.7964 24.3733 14.4149 24.336C16.0812 24.3093 17.1303 22.8455 18.1316 21.3483C19.3307 19.6476 19.8122 17.9727 19.8313 17.8868C19.7922 17.8734 16.5952 16.6533 16.5637 12.9624Z" fill="white"/>
<path d="M13.5062 3.90682C14.3413 2.86252 14.9127 1.44177 14.7541 0C13.5454 0.053505 12.0339 0.836016 11.1635 1.85739C10.3934 2.75742 9.70548 4.23263 9.8832 5.61994C11.2409 5.72121 12.6349 4.93488 13.5062 3.90682Z" fill="white"/>
</svg>
