<svg width="42" height="27" viewBox="0 0 42 27" fill="none" xmlns="http://www.w3.org/2000/svg">
<rect x="0.5" y="0.5" width="41" height="26" rx="3.5" fill="white" stroke="#9B9B9B"/>
<path d="M13.0036 23.0332V21.7623C13.0036 21.2762 12.7074 20.9578 12.1991 20.9578C11.9449 20.9578 11.6685 21.0417 11.4785 21.3181C11.3304 21.0862 11.1182 20.9578 10.7999 20.9578C10.5876 20.9578 10.3754 21.022 10.2076 21.254V20.9998H9.76343V23.0332H10.2076V21.9104C10.2076 21.5501 10.3976 21.3798 10.6938 21.3798C10.9899 21.3798 11.138 21.5698 11.138 21.9104V23.0332H11.5821V21.9104C11.5821 21.5501 11.7944 21.3798 12.0683 21.3798C12.3644 21.3798 12.5125 21.5698 12.5125 21.9104V23.0332H13.0036ZM19.5924 20.9998H18.8718V20.3853H18.4276V20.9998H18.0254V21.402H18.4276V22.3348C18.4276 22.8012 18.6176 23.0752 19.126 23.0752C19.316 23.0752 19.5282 23.011 19.6763 22.9271L19.548 22.5446C19.4196 22.6285 19.2716 22.6507 19.1655 22.6507C18.9532 22.6507 18.8693 22.5224 18.8693 22.3126V21.402H19.5899V20.9998H19.5924ZM23.3631 20.9554C23.1089 20.9554 22.9386 21.0837 22.8325 21.2515V20.9973H22.3883V23.0307H22.8325V21.8857C22.8325 21.5476 22.9806 21.3551 23.257 21.3551C23.3409 21.3551 23.447 21.3774 23.5334 21.3971L23.6617 20.9726C23.5728 20.9554 23.447 20.9554 23.3631 20.9554ZM17.6651 21.1676C17.4529 21.0195 17.1567 20.9554 16.8384 20.9554C16.3301 20.9554 15.992 21.2095 15.992 21.6118C15.992 21.9499 16.2462 22.1424 16.6903 22.204L16.9026 22.2263C17.1345 22.2682 17.2629 22.3324 17.2629 22.4385C17.2629 22.5865 17.0926 22.6927 16.7965 22.6927C16.5003 22.6927 16.2659 22.5865 16.1178 22.4804L15.9056 22.8185C16.1376 22.9888 16.4559 23.0727 16.7742 23.0727C17.3665 23.0727 17.707 22.7963 17.707 22.4163C17.707 22.056 17.4307 21.866 17.0087 21.8018L16.7965 21.7796C16.6064 21.7574 16.4584 21.7154 16.4584 21.5896C16.4584 21.4415 16.6064 21.3576 16.8409 21.3576C17.095 21.3576 17.3492 21.4637 17.4775 21.5279L17.6651 21.1676ZM29.483 20.9554C29.2289 20.9554 29.0586 21.0837 28.9525 21.2515V20.9973H28.5083V23.0307H28.9525V21.8857C28.9525 21.5476 29.1005 21.3551 29.3769 21.3551C29.4608 21.3551 29.5669 21.3774 29.6533 21.3971L29.7816 20.9776C29.6953 20.9554 29.5694 20.9554 29.483 20.9554ZM23.8073 22.0165C23.8073 22.631 24.2317 23.0752 24.8881 23.0752C25.1843 23.0752 25.3965 23.011 25.6087 22.8432L25.3965 22.4829C25.2262 22.6112 25.0584 22.6729 24.8659 22.6729C24.5056 22.6729 24.2515 22.4187 24.2515 22.0165C24.2515 21.634 24.5056 21.3798 24.8659 21.3601C25.0559 21.3601 25.2262 21.4242 25.3965 21.5501L25.6087 21.1898C25.3965 21.0195 25.1843 20.9578 24.8881 20.9578C24.2317 20.9554 23.8073 21.402 23.8073 22.0165ZM27.916 22.0165V20.9998H27.4718V21.254C27.3238 21.064 27.1116 20.9578 26.8352 20.9578C26.2627 20.9578 25.8185 21.402 25.8185 22.0165C25.8185 22.631 26.2627 23.0752 26.8352 23.0752C27.1313 23.0752 27.3435 22.969 27.4718 22.779V23.0332H27.916V22.0165ZM26.2849 22.0165C26.2849 21.6562 26.5168 21.3601 26.8993 21.3601C27.2596 21.3601 27.5138 21.6365 27.5138 22.0165C27.5138 22.3768 27.2596 22.6729 26.8993 22.6729C26.5193 22.6507 26.2849 22.3743 26.2849 22.0165ZM20.9694 20.9554C20.3771 20.9554 19.9527 21.3798 19.9527 22.014C19.9527 22.6507 20.3771 23.0727 20.9916 23.0727C21.2877 23.0727 21.5838 22.9888 21.8183 22.7963L21.6061 22.478C21.4358 22.6063 21.2236 22.6902 21.0138 22.6902C20.7374 22.6902 20.4635 22.5619 20.3993 22.204H21.9022C21.9022 22.1399 21.9022 22.0979 21.9022 22.0338C21.9219 21.3798 21.5394 20.9554 20.9694 20.9554ZM20.9694 21.3379C21.2458 21.3379 21.4358 21.5081 21.4777 21.824H20.4191C20.461 21.5501 20.651 21.3379 20.9694 21.3379ZM32.0051 22.0165V20.1953H31.5609V21.254C31.4128 21.064 31.2006 20.9578 30.9242 20.9578C30.3517 20.9578 29.9075 21.402 29.9075 22.0165C29.9075 22.631 30.3517 23.0752 30.9242 23.0752C31.2203 23.0752 31.4326 22.969 31.5609 22.779V23.0332H32.0051V22.0165ZM30.3739 22.0165C30.3739 21.6562 30.6059 21.3601 30.9884 21.3601C31.3486 21.3601 31.6028 21.6365 31.6028 22.0165C31.6028 22.3768 31.3486 22.6729 30.9884 22.6729C30.6059 22.6507 30.3739 22.3743 30.3739 22.0165ZM15.5034 22.0165V20.9998H15.0592V21.254C14.9111 21.064 14.6989 20.9578 14.4225 20.9578C13.85 20.9578 13.4058 21.402 13.4058 22.0165C13.4058 22.631 13.85 23.0752 14.4225 23.0752C14.7186 23.0752 14.9309 22.969 15.0592 22.779V23.0332H15.5034V22.0165ZM13.8525 22.0165C13.8525 21.6562 14.0844 21.3601 14.4669 21.3601C14.8272 21.3601 15.0814 21.6365 15.0814 22.0165C15.0814 22.3768 14.8272 22.6729 14.4669 22.6729C14.0844 22.6507 13.8525 22.3743 13.8525 22.0165Z" fill="black"/>
<path d="M24.1898 5.55664H17.5171V17.5449H24.1898V5.55664Z" fill="#FF5A00"/>
<path d="M17.9611 11.5511C17.9611 9.11541 19.1062 6.95368 20.8632 5.55695C19.5701 4.54025 17.9389 3.92578 16.1597 3.92578C11.9448 3.92578 8.53442 7.33618 8.53442 11.5511C8.53442 15.7659 11.9448 19.1763 16.1597 19.1763C17.9389 19.1763 19.5701 18.5619 20.8632 17.5452C19.1037 16.1682 17.9611 13.9867 17.9611 11.5511Z" fill="#EB001B"/>
<path d="M33.1921 11.5511C33.1921 15.7659 29.7817 19.1763 25.5668 19.1763C23.7875 19.1763 22.1564 18.5619 20.8633 17.5452C22.6425 16.146 23.7653 13.9867 23.7653 11.5511C23.7653 9.11541 22.6203 6.95368 20.8633 5.55695C22.1539 4.54025 23.7851 3.92578 25.5643 3.92578C29.7817 3.92578 33.1921 7.35839 33.1921 11.5511Z" fill="#F79E1B"/>
</svg>
