<?xml version="1.0" encoding="utf-8"?>
<!-- Generator: Adobe Illustrator 17.0.0, SVG Export Plug-In . SVG Version: 6.00 Build 0)  -->
<!DOCTYPE svg PUBLIC "-//W3C//DTD SVG 1.1//EN" "http://www.w3.org/Graphics/SVG/1.1/DTD/svg11.dtd">
<svg version="1.1" id="Layer_1" xmlns="http://www.w3.org/2000/svg" xmlns:xlink="http://www.w3.org/1999/xlink" x="0px" y="0px"
	 width="284.402px" height="186.134px" viewBox="0 0 284.402 186.134" enable-background="new 0 0 284.402 186.134"
	 xml:space="preserve">
<g>
	<path fill="#F47730" d="M82.947,148.749c-0.161-0.713-0.582-1.644-1.114-2.548c-0.185-0.28-0.376-0.58-0.571-0.897
		c-0.594-0.859-1.244-1.608-1.798-1.983c-1.395-0.944-2.249-3.375-2.137-3.824c0.112-0.451,0.96-1.859-1.234-4.109
		c-2.194-2.252-1.651-6.26-1.651-6.26l0.004-0.006c-0.491,0.29-1.217,0.581-2.276,0.581c-1.052,0.005-2.492,1.724-4.466,2.207
		c-0.898-1.316-2.524,0.135-3.263,0.662c-0.935,0.664-2.447-0.894-3.334-1.242c-2.004-0.784-3.327,1.664-4.677,0.73
		c-2.971-2.052-3.434-0.411-5.233-0.804c-1.462-0.319-1.706-0.63-2.547-1.305c-1.681-1.198-2.618-1.063-3.428-0.807
		c-3.535-2.052-5.374-7.817-5.374-7.817c-0.42,2.299,0.085,3.966,0.76,5.527c-2.152-2.109-3.384-4.156-3.699-7.378
		c0,0-1.702,2.273,0.667,6.526c-1.948-2.254-3.635-4.928-3.972-8.346c0,0-1.578,2.619,0.379,5.823
		c-0.887-0.565-1.413-1.235-1.802-1.709c-5.658-6.947-6.732-25.679-6.732-26.786c-0.065-0.641-0.098-1.364-0.1-2.15
		c-0.024-7.589,2.867-21.055,9.961-24.249c0.116-3.13,3.982-5.092,5.537-6.002c-3.376,0.253-6.495-3.998-6.711-4.307
		c-0.024-0.01-0.034-0.031-0.044-0.052c-0.014,0.005-0.023,0-0.022-0.042c-0.92-1.277-1.371-2.353-2.211-3.503
		c-1.08-1.469-2.271-2.115-3.24-2.154c-1.345,0-2.334,0.949-3.972,0.949c-1.227,0-1.85-1.424-2.461-2.112
		c-0.321-0.425-0.625-0.551-1.13-0.58c-0.856-0.053-1.233-1.324-1.182-2.276v-0.003c0.052-0.957,0.595-2.811,1.067-3.505
		c0.978-1.445,1.767-0.97,2.669-1.904c0.398-0.424,0.341-0.63,0.92-0.991c1.181-0.743,2.747-1.12,6.08-1.153
		c2.889-0.028,10.446,0.302,16.727,0.994l0.974,0.082c0.017-3.364,1.95-4.346,1.95-4.346s0.616-0.612,1.443-0.388
		c1.423,0.427,2.113,0.388,2.113,0.388c0.071,0,0.129,0,0.18,0c0.035,0,0.065,0,0.091,0c0.806,0,1.055,0.489,1.494,0.327
		c0.438-0.161,0.966-0.422,1.57-0.14c0.604,0.282,0.726,0.377,1.384,0.267c0.759-0.127,0.845-0.716,1.856,0.126
		c0.591,0.493,0.464,1.266,1.067,0.897c0.594-0.364,1.147,0.113,1.288,0.784c0.005,0.028,0.021,0.047,0.028,0.073
		c0.13-0.062,0.294-0.174,0.552-0.117c1.556,0.084,2.778,0.424,3.286,0.998c-1.813,0.116-1.927,1.432-1.927,1.432
		c0.823-0.103,1.577-0.1,2.004,0.227c-1.071,0.498-1.22,1.133-1.22,1.133c0.07,0.465,0.715,0.409,1.059,0.752
		c0.001,0.016,0.655,0.831,0.789,1.153c0.182,0.443,0.337,1.885,0.337,1.885c0.977,0.657,0.898,1.778,1.519,2.376
		c1.266,1.224,1.222,3.067,1.222,3.067c0.181,0.314,0.203,0.636,0.358,1.248c1.434,0.047,2.619,0.744,3.16,2.065
		c0.165,0.406,0.255,0.815,0.276,1.218c0.087,1.746-1.005,2.88-3.229,3.621c0.733,1.102,1.33,3.402,1.341,5.243
		c-0.454-1.184-1.011-2.506-2.735-3.086c0,0,2.337,3.075,1.942,5.101c-0.414-0.483-1.251-2.179-2.111-2.456
		c0,0,0.942,2.068,1.133,3.173c0.052,0.298,0.326,1.015,0.042,1.772c-0.422,1.123-0.55,1.065-0.547,1.725
		c0.001,0.722,0.212,1.582-0.801,2.764c-0.96,1.12-1.008,1.463-0.955,2.476c0.187,0.551,0.391,0.733,0.675,1.181
		c1.007,1.599,1.796,2.632,3.166,2.609c1.159,0,2.272-2.361,3.243-5.096l0.214-0.611c0.74-2.165,1.388-4.468,1.902-5.966
		c1.222-3.573,3.337-8.08,5.41-11.218c0.48-0.726,1.347-1.788,1.51-2.806c-0.002-0.093,0.021-0.172,0.052-0.243
		c0.217-0.986,0.785-4.227,1.062-4.866c0.001-0.002-0.334-1.397-0.232-2.455c0.048-0.512,1.08-1.983,0.594-2.996
		c-0.25-0.522-0.408-1.263-0.099-1.719c-0.052-0.517-0.559-0.538-1.536-0.786c0,0,1.23-1.11,2.409-0.918
		c-0.408-0.643-0.811-0.77-1.988-0.961c0,0,1.021-1.311,2.216-0.827c0.03-0.639,0.889-1.008,1.069-1.18
		c0.295-0.154,0.507-0.281,0.599-0.313c0.587-0.213,0.769-0.5,0.837-0.93c0.105-0.67,0.42-0.694,0.947-0.813
		c0.318-0.071,0.922-0.191,1.147-0.278c0,0,0.175-0.025,0.374-0.428c0.484-0.561,1.238-0.13,1.983,0.176
		c1.059-0.191,0.741-0.577,1.308-0.792c0.717-0.271,0.953,0.345,2.024,0.449c0.429,0.041,0.572-0.16,1.274-0.377
		c0.15-0.046,0,0,0.15-0.046c0.671-0.199,0.819,0.215,1.705,0.89c0.631,0.032,1.379-0.323,2.856,0.057c0,0-1.759,1.224-1.553,1.737
		c0,0,1.805-0.457,2.988,0.162c0,0-1.136-0.124-1.536,1.136c-0.335,1.054,0.049,1.018,0.101,1.212
		c0.57,0.468,1.078,2.007,1.279,2.321c0.135,0.211,0.33,1.089,0.453,1.279c0.825,1.289,1.31,2.044,1.677,2.658
		c0.861,1.435,1.809,2.392,2.505,4.225c0.11,0.29,0.595,1.102,0.656,1.324c1.918,6.986,3.131,8.829,6.035,7.495
		c1.945-0.894,1.162-3.624,1.942-4.599c0.323-0.401,0.359-1.232,0.357-2.184c0-0.135,0-0.274-0.001-0.414l-0.001-0.185
		c-0.001-0.15-0.001-0.3-0.001-0.451c0.003-1.06,0.064-2.136,0.477-2.874c0.709-1.271,0.657-2.527,0.89-3.492
		c0.029-0.367,0.138-0.838,0.199-1.239c0.111-0.707,0.001-0.23,0.095-0.823c0.026-0.172,0.045-0.325,0.084-0.488
		c0.148-0.62-0.559-1.147-0.232-1.638c-0.063-0.77-1.118-0.668-1.118-0.668c0.074-0.57,1.358-1.009,1.863-1.245
		c0.002-0.036,0.003-0.07,0.004-0.107c-0.299-0.765-1.987-0.596-1.987-0.596c1.013-0.844,1.837-0.707,1.837-0.707
		s0.315,0.045,0.415-0.819c0.028-0.096,0.058-0.188,0.093-0.278c0.002-0.005,0.005-0.012,0.006-0.018v0.005
		c0.177-0.45,0.438-0.784,0.835-0.87c1.098-0.241,0.86,0.554,2.027,0.434c1.42-0.147,0.422-1.6,2.362-0.844
		c1.377,0.536,1.127-1.747,3.264-0.227c0.074,0.053,0.132,0.107,0.198,0.159v-0.009c0,0,0.001,0.007,0.002,0.012
		c0.145,0.12,0.275,0.239,0.385,0.356c0.098,0.038,0.218,0.069,0.371,0.077c0.675,0.042,2.139-0.119,2.214,0.863
		c0.082,1.058,1.291,1.219,1.291,1.219c0.434-0.074,1.053,0.898,1.135,1.504c0.036,0.264,0.121,0.979,0.099,1.291
		c-0.033,0.437-0.011,0.956,0.106,1.41c0.651,1.64,2.169,1.514,3.032,3.584c0.081,0.192,0.392,1.147,0.446,1.273
		c1.101,2.598,4.254,6.588,8.195,7.588C138.042,23.342,109.054,0,74.612,0C33.406,0,0,33.402,0,74.611
		c0,41.199,33.406,74.602,74.612,74.602C77.43,149.213,80.209,149.052,82.947,148.749L82.947,148.749z"/>
	<polygon fill="#00AAAD" points="118.131,134.729 104.953,134.729 104.953,125.918 142.778,125.918 140.119,134.729 
		128.569,134.729 128.569,170.909 118.131,170.909 118.131,134.729 	"/>
	<path fill="#00AAAD" d="M137.922,154.661c0-9.831,6.959-16.862,16.996-16.862c10.045,0,17.002,7.031,17.002,16.862
		c0,9.832-6.957,16.939-17.002,16.934C144.881,171.595,137.922,164.493,137.922,154.661L137.922,154.661z M161.41,154.661
		c0-4.979-1.909-8.732-6.492-8.732c-4.573,0-6.483,3.753-6.483,8.732c0,4.99,1.91,8.808,6.483,8.808
		C159.501,163.469,161.41,159.651,161.41,154.661L161.41,154.661z"/>
	<path fill="#00AAAD" d="M177.033,125.918h10.32v34.141c0,1.981,0.878,2.522,2.307,2.522c0.346,0,1.308-0.066,2.054-0.333
		l1.979,7.915c-2.313,0.954-5.053,1.292-7.1,1.292c-6.285,0-9.56-2.933-9.56-8.806V125.918L177.033,125.918z"/>
	<path fill="#00AAAD" d="M234.242,154.661c0-9.831,6.962-16.862,17.002-16.862c10.035,0,17.002,7.031,17.002,16.862
		c0,9.832-6.967,16.939-17.002,16.939C241.204,171.6,234.242,164.493,234.242,154.661L234.242,154.661z M257.734,154.661
		c0-4.979-1.92-8.732-6.49-8.732c-4.576,0-6.485,3.753-6.485,8.732c0,4.99,1.909,8.808,6.485,8.808
		C255.814,163.469,257.734,159.651,257.734,154.661L257.734,154.661z"/>
	<path fill="#00AAAD" d="M272.112,128.853c0-3.206,2.664-5.873,6.153-5.873c3.473,0,6.137,2.529,6.137,5.873
		c0,3.21-2.664,5.942-6.137,5.942C274.776,134.795,272.112,132.197,272.112,128.853L272.112,128.853z M273.07,138.622h10.314v32.284
		H273.07V138.622L273.07,138.622z"/>
	<path fill="#00AAAD" d="M229.477,167.066c0,6.404-1.29,11.646-5.103,14.985c-3.608,3.133-8.582,4.083-13.482,4.083
		c-4.428,0-9.414-1.05-12.408-2.685l2.466-7.732c2.112,1.226,5.717,2.518,9.668,2.518c4.903,0,8.647-2.587,8.647-8.784v-2.108
		h-0.137c-1.975,2.722-5.174,4.288-8.985,4.288c-8.241,0-14.098-6.674-14.098-16.202c0-10.76,6.878-17.567,15.119-17.567
		c4.565,0,6.68,1.081,8.732,3.687l0,0l1.437-3.072h8.669c-0.649,2.204-0.525,5.103-0.525,10.076V167.066L229.477,167.066z
		 M219.06,152.135c0-0.583-0.066-1.237-0.198-1.825c-0.718-2.611-2.611-4.37-5.348-4.37c-4.267,0-6.52,3.257-6.52,9.067
		c0,4.76,2.076,8.478,6.456,8.478c2.606,0,4.629-1.698,5.28-3.977c0.264-0.788,0.33-1.827,0.33-2.676V152.135L219.06,152.135z"/>
	<path fill="#00AAAD" d="M235.888,105.356c-5.665,14.536-11.251,16.166-17.527,16.166c-2.806,0-5.731-0.609-8.26-1.767l2.595-7.917
		c1.706,0.886,3.344,1.43,5.116,1.43c3.207,0,5.731-1.836,8.189-8.455L211.193,73.09h10.915l8.595,20.467h0.137l7.031-20.467h10.572
		L235.888,105.356L235.888,105.356z"/>
	<path fill="#00AAAD" d="M253.721,99.491c-0.75-1.77-1.224-4.03-1.224-7.368V73.09h10.295v18.415c0,1.435,0.214,2.524,0.686,3.418
		c0.818,1.498,2.252,2.455,4.578,2.455c1.904,0,3.608-0.622,4.906-1.78V73.09h10.3v26.332c0,1.567,0,4.162,0.544,5.934h-8.661
		l-1.44-3.07c-2.183,1.981-5.314,3.745-9.547,3.745C261.025,106.031,256.041,104.813,253.721,99.491L253.721,99.491z"/>
	<path fill="#00AAAD" d="M162.42,82.963c0-13.642,9.492-23.067,23.208-23.067c13.724,0,23.218,9.425,23.218,23.067
		c0,13.653-9.494,23.076-23.218,23.076C171.912,106.039,162.42,96.616,162.42,82.963L162.42,82.963z M197.711,82.963
		c0-9.546-4.979-14.396-12.083-14.396c-7.1,0-12.078,4.85-12.078,14.396c0,9.56,4.978,14.405,12.078,14.405
		C192.732,97.368,197.711,92.523,197.711,82.963L197.711,82.963z"/>
</g>
</svg>
