<?xml version="1.0" standalone="no"?>
<!DOCTYPE svg PUBLIC "-//W3C//DTD SVG 20010904//EN"
 "http://www.w3.org/TR/2001/REC-SVG-20010904/DTD/svg10.dtd">
<svg version="1.0" xmlns="http://www.w3.org/2000/svg"
 width="728.000000pt" height="478.000000pt" viewBox="0 0 728.000000 478.000000"
 preserveAspectRatio="xMidYMid meet">

<g transform="translate(0.000000,478.000000) scale(0.100000,-0.100000)"
fill="#000000" stroke="none">
<path d="M5205 4394 c-149 -16 -336 -68 -473 -130 -400 -182 -717 -563 -825
-990 -46 -182 -49 -243 -45 -959 4 -646 5 -673 26 -767 45 -196 118 -366 233
-538 77 -115 262 -304 371 -378 171 -117 388 -208 593 -248 126 -25 414 -26
540 0 273 54 519 175 725 356 240 212 409 511 477 845 16 82 18 152 18 780 0
380 -4 711 -8 737 -9 52 -15 56 -135 79 -44 8 -66 18 -73 31 -10 19 -8 20 33
13 23 -4 44 -11 46 -16 2 -4 9 -6 16 -3 7 3 32 -2 55 -10 l42 -14 -6 41 c-4
23 -18 76 -31 117 -22 72 -25 76 -56 78 -17 1 -36 7 -42 11 -6 5 -41 12 -78
16 l-66 7 -12 45 c-12 51 -54 138 -70 148 -19 12 1 25 38 25 20 0 51 1 67 2
17 1 40 -2 53 -6 23 -8 23 -7 9 21 -49 94 -200 270 -305 354 l-75 61 -13 -24
c-7 -12 -13 -20 -14 -15 0 4 -16 0 -36 -8 -20 -8 -46 -15 -58 -15 -12 0 -26
-4 -31 -8 -6 -5 -30 -14 -54 -21 -36 -10 -45 -10 -52 1 -5 7 -9 9 -9 3 0 -5
-5 -4 -11 2 -8 8 -3 23 21 57 18 25 37 43 42 40 5 -3 15 -1 22 6 19 15 76 31
76 20 0 -11 39 -20 45 -10 16 26 -195 141 -357 194 -56 19 -143 42 -193 51
-88 16 -341 27 -420 19z m247 -304 c23 -25 28 -38 23 -59 -9 -37 -33 -59 -76
-72 -103 -31 -204 53 -148 125 30 38 54 46 118 42 47 -2 59 -8 83 -36z m406
10 c-7 -11 -21 -20 -32 -20 -15 0 -16 3 -6 15 7 8 16 12 21 9 5 -3 9 0 9 5 0
6 5 11 10 11 6 0 5 -8 -2 -20z m-93 0 c3 -5 1 -10 -4 -10 -6 0 -11 5 -11 10 0
6 2 10 4 10 3 0 8 -4 11 -10z m-578 -47 c-1 -27 4 -63 12 -80 39 -94 217 -110
291 -26 29 33 35 57 30 125 -1 27 -1 27 32 16 63 -21 100 -69 112 -147 10 -63
-21 -123 -82 -159 -47 -27 -49 -27 -227 -27 -201 0 -215 4 -274 70 -30 35 -36
58 -31 130 4 58 47 113 105 133 17 6 31 11 32 11 1 1 1 -20 0 -46z m509 25
c-1 -7 -5 -18 -9 -24 -8 -14 26 -27 64 -24 31 1 53 -22 45 -47 -3 -11 -24 -39
-46 -63 -21 -24 -37 -47 -33 -53 3 -5 -4 -4 -16 2 -15 8 -21 21 -21 45 0 18
-6 54 -14 79 -10 34 -11 47 -2 51 6 2 3 5 -6 5 -10 1 -18 5 -18 10 0 4 11 6
25 3 14 -2 25 -1 24 4 -2 13 0 24 5 24 2 0 3 -6 2 -12z m-698 -15 c2 -9 -7
-13 -26 -13 -27 0 -75 -28 -94 -55 -5 -5 1 -17 12 -27 12 -9 20 -28 20 -46 0
-46 9 -61 49 -81 50 -26 88 -68 74 -82 -19 -19 -142 -7 -191 19 -59 30 -88 28
-123 -9 -16 -17 -29 -35 -29 -39 0 -13 -38 -22 -60 -15 -28 9 -25 22 10 40 16
8 39 32 50 53 11 20 30 49 41 63 24 31 19 64 -12 74 -10 4 -19 12 -19 18 1 21
118 87 154 87 19 0 47 7 62 15 33 17 75 16 82 -2z m796 2 c15 -8 46 -15 67
-15 21 0 41 -5 44 -10 4 -6 29 -22 56 -35 50 -26 63 -51 32 -62 -41 -15 -42
-42 -5 -85 15 -18 33 -45 39 -60 7 -14 24 -32 40 -40 36 -17 36 -42 0 -46 -23
-3 -36 5 -68 42 -48 54 -68 57 -135 21 -38 -20 -61 -25 -120 -25 -44 0 -76 5
-80 12 -8 13 44 59 92 83 36 17 44 32 44 80 0 25 6 38 21 46 21 11 21 11 -8
41 -19 19 -43 31 -62 33 -36 2 -46 9 -36 24 9 15 45 13 79 -4z m-315 -109
c-13 -14 -26 -22 -29 -19 -5 4 37 43 47 43 3 0 -5 -11 -18 -24z m686 -41 c56
-33 148 -113 201 -176 117 -136 164 -238 164 -353 0 -53 4 -66 24 -85 49 -46
120 -241 103 -284 -16 -41 -120 1 -180 73 -26 31 -27 34 -11 51 33 37 6 46
-164 54 -193 8 -241 17 -315 55 -31 17 -67 30 -80 30 -12 0 -53 21 -90 47
l-69 48 -114 5 c-141 7 -156 16 -130 81 13 32 14 45 5 53 -8 8 -13 8 -16 0
-15 -43 -47 -56 -138 -56 -74 0 -116 13 -127 38 -6 13 -15 24 -19 24 -18 0
-18 -21 -3 -60 26 -64 10 -74 -129 -80 -116 -5 -134 -11 -197 -60 -19 -15 -51
-31 -70 -35 -19 -4 -60 -20 -90 -35 -74 -37 -136 -48 -317 -56 -112 -5 -156
-11 -165 -21 -8 -10 -8 -17 0 -25 21 -21 13 -45 -27 -81 -52 -47 -96 -69 -129
-65 -23 2 -28 9 -30 37 -6 60 56 220 101 261 18 17 22 32 23 83 2 130 73 265
213 405 123 123 230 179 269 140 25 -25 13 -59 -36 -107 -27 -25 -60 -61 -75
-79 -31 -39 -47 -34 -47 13 0 24 9 45 30 68 17 19 30 38 30 41 0 17 -49 -10
-88 -48 -95 -92 -142 -207 -142 -351 0 -143 33 -200 102 -176 25 9 164 94 169
104 0 1 4 43 9 92 9 102 12 121 25 132 4 4 5 2 1 -4 -9 -16 4 -16 38 -3 18 6
26 17 26 33 0 13 6 31 13 41 12 17 28 19 150 17 106 -1 143 2 166 14 48 25
114 19 178 -15 52 -28 58 -29 74 -14 28 25 90 29 130 8 39 -20 53 -20 89 6 14
10 44 23 67 30 37 11 48 10 100 -9 51 -19 77 -22 187 -20 78 1 131 -2 138 -9
5 -5 13 -25 17 -43 5 -25 14 -35 39 -43 44 -15 52 -30 52 -106 0 -96 5 -106
79 -155 90 -60 124 -72 156 -51 72 47 58 307 -24 433 -42 64 -122 143 -146
143 -19 0 -19 -14 1 -31 36 -30 58 -109 34 -124 -6 -4 -20 6 -32 22 -12 15
-45 51 -75 80 -59 57 -68 91 -31 117 25 18 45 14 103 -19z m-918 -181 c-3 -3
-12 -4 -19 -1 -8 3 -5 6 6 6 11 1 17 -2 13 -5z m267 -5 c-2 -4 -16 -5 -31 -3
-24 5 -25 3 -12 -13 13 -17 12 -17 -6 -2 -26 21 -146 17 -182 -6 -14 -9 -27
-14 -31 -11 -3 3 1 6 8 6 7 0 10 3 7 7 -4 3 -2 12 3 18 11 14 252 17 244 4z
m550 -52 c-7 -41 -16 -58 -27 -54 -14 4 -21 41 -13 62 8 22 45 14 40 -8z m181
-7 c10 8 15 8 21 -1 4 -7 3 -9 -4 -5 -6 3 -13 2 -17 -3 -3 -6 -12 -8 -20 -5
-8 4 -12 11 -8 17 5 8 8 7 11 -1 3 -10 7 -10 17 -2z m62 -14 c-4 -10 -1 -13 7
-10 8 3 17 0 22 -7 5 -8 3 -10 -7 -5 -8 5 -8 2 2 -6 23 -19 20 -43 -6 -43 -15
0 -21 5 -17 14 3 9 1 12 -6 7 -7 -4 -12 -1 -12 7 0 8 -8 18 -17 22 -16 6 -15
8 7 20 32 18 33 18 27 1z m-142 -18 c5 11 9 13 12 5 3 -9 10 -10 22 -3 32 17
12 -37 -26 -70 -42 -37 -48 -37 -62 0 -5 17 -17 33 -26 36 -8 3 -15 10 -15 15
0 4 7 5 17 2 10 -4 14 -2 10 4 -4 6 1 10 11 9 10 0 16 5 14 14 -1 10 5 7 17
-7 17 -21 20 -21 26 -5z m-1677 -28 c2 -12 17 -34 33 -47 40 -34 37 -47 -11
-40 -48 6 -52 -7 -14 -52 29 -35 30 -77 1 -95 -43 -27 -106 53 -115 147 -4 42
-2 49 11 44 10 -4 24 7 42 34 28 43 48 47 53 9z m1781 1 c12 -16 21 -34 21
-41 0 -7 8 -9 20 -5 52 17 -4 -165 -60 -192 -22 -12 -27 -10 -47 13 -29 32
-29 34 7 79 41 52 39 64 -10 58 -48 -7 -51 6 -10 40 17 14 30 34 30 45 0 40
22 42 49 3z m-1669 -11 c-6 -11 -13 -20 -16 -20 -2 0 0 9 6 20 6 11 13 20 16
20 2 0 0 -9 -6 -20z m1546 -75 c-3 -9 0 -15 9 -15 8 0 15 -5 15 -10 0 -7 7 -7
21 0 11 7 23 9 27 6 3 -3 0 -6 -7 -6 -7 0 -9 -5 -5 -12 4 -6 3 -8 -3 -5 -9 6
-30 -25 -31 -47 0 -11 -23 -26 -40 -26 -10 0 -12 15 -10 59 2 32 6 57 11 54 4
-2 7 1 7 6 0 6 3 11 6 11 3 0 4 -7 0 -15z m224 -45 c0 -23 -4 -30 -20 -30 -23
0 -23 0 -10 34 13 35 30 33 30 -4z m-1022 -34 c62 0 106 5 121 13 19 11 22 11
15 -1 -5 -7 -8 -22 -6 -33 2 -19 1 -19 -6 -1 -6 13 -11 16 -16 8 -4 -6 9 -21
31 -36 34 -24 47 -26 139 -26 l102 0 61 -41 c33 -22 61 -43 61 -46 0 -11 -72
9 -120 34 -44 22 -63 26 -152 27 -92 1 -106 3 -128 24 -21 18 -36 22 -94 22
-57 0 -74 -4 -92 -21 -19 -18 -36 -21 -125 -22 -90 -2 -111 -6 -157 -28 -28
-14 -52 -22 -52 -18 0 4 5 11 11 14 6 4 8 14 5 22 -3 8 -2 12 3 9 4 -3 17 1
27 9 13 10 47 14 114 15 129 0 164 26 129 93 -12 22 -12 22 10 3 18 -17 37
-20 119 -20z m86 -84 c15 -18 15 -19 -9 -30 -14 -6 -25 -19 -25 -27 0 -15 57
-96 72 -103 4 -2 22 -14 40 -27 94 -68 131 -85 194 -85 74 0 114 25 114 70 0
44 -22 55 -51 24 -22 -24 -29 -26 -84 -21 -33 3 -80 13 -105 22 -25 10 -55 17
-68 17 -14 0 -35 15 -57 43 -41 50 -45 75 -11 75 19 0 24 -6 29 -38 4 -21 14
-46 23 -57 16 -20 16 -20 9 0 -18 50 -27 96 -20 103 4 4 47 6 96 6 73 -1 99
-6 142 -27 28 -14 71 -30 94 -36 74 -20 144 -129 122 -189 -9 -25 -46 -42 -90
-42 -38 0 -39 -24 -1 -44 81 -43 171 -228 172 -354 0 -15 16 -51 35 -81 19
-30 49 -94 66 -143 30 -82 34 -88 60 -88 40 0 45 17 18 66 -22 42 -23 44 -5
63 10 11 27 23 37 26 25 8 24 21 -2 43 -36 30 -64 85 -69 137 -5 46 -7 50 -38
56 -41 8 -71 34 -88 76 -21 48 -17 93 13 152 l26 54 -26 19 c-30 22 -36 55
-11 65 10 4 23 -2 33 -15 9 -12 30 -24 46 -27 29 -5 165 7 232 21 27 5 37 1
76 -35 24 -23 53 -41 64 -41 37 0 213 -90 213 -108 0 -35 -16 -47 -45 -34 -36
17 -72 15 -79 -4 -10 -27 -7 -34 19 -34 56 0 106 -53 78 -81 -7 -7 3 -35 28
-85 48 -92 50 -134 12 -173 -16 -15 -50 -35 -78 -45 -88 -31 -95 -35 -95 -54
0 -9 30 -48 66 -86 36 -37 69 -78 74 -90 6 -18 15 -250 11 -290 -1 -5 -11 0
-23 11 -50 46 -98 32 -98 -27 0 -48 16 -77 47 -84 38 -10 73 -34 73 -50 0 -8
-12 -28 -26 -45 -37 -44 -67 -41 -134 14 -63 51 -85 58 -76 20 16 -63 26 -75
92 -107 36 -17 83 -49 105 -70 37 -36 39 -41 39 -99 l0 -60 -57 62 c-43 47
-76 70 -128 94 -39 18 -77 40 -84 49 -8 10 -34 29 -58 42 -80 48 -137 139
-145 233 l-3 33 60 3 c50 3 64 0 83 -18 24 -22 28 -43 12 -67 -9 -13 -13 -12
-28 7 -12 16 -21 20 -32 13 -18 -11 -7 -34 31 -62 33 -25 47 -17 87 42 48 70
42 86 -48 135 -42 22 -96 54 -122 70 -52 34 -58 51 -58 168 0 38 -4 67 -10 67
-5 0 -13 1 -16 3 -3 1 -7 -68 -8 -153 -3 -175 -17 -235 -87 -371 -103 -199
-298 -355 -519 -416 -101 -27 -320 -25 -423 5 -239 69 -424 227 -530 454 -53
115 -82 284 -69 406 7 64 6 72 -9 72 -15 0 -18 -14 -21 -101 -2 -87 -6 -103
-22 -113 -10 -6 -41 -26 -69 -45 -28 -18 -74 -44 -103 -57 -77 -34 -79 -60
-12 -146 32 -41 56 -41 89 0 25 32 9 55 -20 28 -24 -22 -41 -13 -41 20 0 45
31 63 102 60 62 -4 63 -4 62 -32 -4 -83 -70 -196 -134 -229 -16 -8 -49 -33
-75 -55 -25 -22 -54 -40 -64 -40 -29 0 -104 -54 -153 -109 -25 -29 -48 -49
-52 -43 -3 5 -3 33 1 63 5 45 12 60 43 90 20 19 67 51 103 70 65 33 74 44 92
107 10 34 -11 27 -73 -23 -65 -54 -100 -58 -138 -18 -36 39 -28 63 30 93 54
28 71 57 61 108 -5 28 -10 32 -39 32 -20 0 -40 -8 -51 -20 -10 -11 -21 -20
-26 -20 -7 0 -2 218 7 277 3 21 26 54 74 105 89 93 88 104 -8 138 -87 30 -122
63 -122 117 0 33 31 107 64 155 11 16 12 25 3 38 -19 31 4 63 54 75 46 11 56
30 27 49 -12 7 -27 7 -54 -3 -39 -14 -54 -6 -54 31 0 18 176 108 213 108 11 0
40 18 64 41 37 34 49 40 71 35 52 -13 217 -27 242 -21 14 4 32 16 41 27 10 13
23 19 33 15 25 -10 19 -36 -15 -68 l-32 -30 21 -19 c28 -27 45 -85 39 -137 -6
-55 -45 -99 -99 -114 -36 -9 -38 -12 -38 -52 0 -44 -23 -91 -69 -141 -17 -18
-22 -30 -14 -33 25 -9 63 -45 63 -60 0 -8 -9 -26 -20 -40 -27 -34 -25 -51 4
-59 35 -8 42 -1 61 59 10 28 39 94 66 145 27 51 49 105 49 120 0 35 36 165 57
206 24 47 85 116 116 132 37 20 36 44 -2 44 -44 0 -81 17 -90 42 -23 63 57
179 134 193 22 3 54 15 71 26 37 23 170 44 219 35 40 -8 44 -25 21 -81 -17
-41 -48 -62 -118 -81 -83 -22 -130 -18 -158 11 -29 31 -53 17 -48 -28 4 -44
45 -70 110 -70 78 0 166 50 260 148 54 55 60 80 23 97 -24 11 -24 12 -9 30 13
14 32 18 79 18 47 0 66 -4 79 -18z m-144 -57 c0 -23 -52 -92 -78 -104 l-24
-11 20 25 c11 14 23 43 27 65 6 34 11 40 31 40 15 0 24 -6 24 -15z m591 -42
c13 -16 12 -17 -3 -4 -17 13 -22 21 -14 21 2 0 10 -8 17 -17z m215 -70 c12 -4
-2 -12 -46 -24 -48 -13 -66 -14 -76 -5 -9 8 1 14 44 22 32 7 58 12 59 13 1 1
9 -2 19 -6z m-1064 -40 c40 3 91 13 113 21 l40 16 -35 -30 c-47 -42 -93 -60
-150 -60 -52 0 -100 28 -100 59 0 29 12 32 36 10 21 -20 31 -21 96 -16z m766
-16 c-12 -23 -49 -37 -96 -37 -41 0 -129 37 -151 63 -17 21 -8 21 48 1 24 -8
69 -16 100 -18 49 -3 58 0 75 22 18 23 20 24 27 6 3 -10 2 -27 -3 -37z m172
19 c0 -3 -4 -8 -10 -11 -5 -3 -10 -1 -10 4 0 6 5 11 10 11 6 0 10 -2 10 -4z
m-1239 -69 c-10 -9 -11 -8 -5 6 3 10 9 15 12 12 3 -3 0 -11 -7 -18z m105 -57
l49 -6 -30 -16 c-44 -23 -111 -111 -136 -176 -11 -32 -29 -95 -39 -142 -12
-56 -34 -115 -63 -172 -25 -47 -51 -105 -58 -127 -10 -34 -17 -41 -37 -41 -24
0 -24 1 -8 23 43 59 43 67 3 102 l-37 32 21 19 c28 24 69 111 69 144 0 20 9
30 43 45 58 28 87 74 87 142 0 30 -7 68 -16 84 -9 18 -12 38 -8 47 4 10 6 20
6 25 -1 4 2 6 7 5 5 -2 10 2 11 7 2 6 14 20 28 32 l25 21 17 -21 c12 -14 34
-23 66 -27z m-311 -982 c2 -7 6 -37 8 -66 5 -53 -5 -74 -26 -52 -9 9 -7 15 8
27 20 15 20 15 -2 9 -12 -4 -24 -2 -28 4 -3 5 -14 10 -23 9 -12 0 -13 -2 -3
-6 11 -5 11 -7 0 -15 -10 -7 -8 -8 9 -5 12 3 22 1 22 -4 0 -10 -21 -12 -45 -3
-13 5 -14 8 -3 15 10 7 10 9 -2 9 -13 0 -13 1 0 10 10 6 11 10 3 10 -7 0 -13
5 -13 10 0 6 7 6 19 -1 24 -16 51 -5 51 20 0 15 -5 18 -22 14 -22 -4 -22 -3 2
11 31 19 39 20 45 4z m-42 -35 c-7 -2 -19 -2 -25 0 -7 3 -2 5 12 5 14 0 19 -2
13 -5z"/>
<path d="M5690 3890 c0 -5 5 -10 11 -10 5 0 7 5 4 10 -3 6 -8 10 -11 10 -2 0
-4 -4 -4 -10z"/>
<path d="M4995 3648 c-11 -6 -35 -24 -53 -41 -30 -29 -35 -30 -63 -20 -27 11
-31 10 -41 -12 -6 -13 -8 -30 -5 -39 13 -33 268 -44 325 -13 43 23 41 50 -7
98 -34 35 -44 39 -87 39 -27 0 -58 -6 -69 -12z m100 -67 c0 -8 -8 -19 -17 -25
-22 -13 -44 5 -34 29 7 20 51 16 51 -4z m83 -25 c-2 -1 -12 -8 -23 -16 -18
-14 -19 -13 -8 1 7 9 10 19 6 23 -4 4 1 4 10 0 10 -3 17 -7 15 -8z"/>
<path d="M5559 3621 c-47 -47 -50 -75 -10 -95 48 -25 107 -29 218 -16 109 14
123 22 104 59 -9 16 -18 19 -42 14 -25 -5 -36 0 -62 25 -39 37 -75 52 -129 52
-34 0 -47 -6 -79 -39z m208 -32 c28 -24 41 -29 64 -24 24 6 29 3 29 -13 0 -17
-11 -20 -97 -30 -70 -8 -99 -8 -104 0 -4 6 -12 7 -19 3 -9 -6 -11 -4 -6 4 5 7
14 10 21 8 7 -3 24 14 40 39 15 24 30 44 33 44 2 0 20 -14 39 -31z m-99 -1 c8
-8 9 -15 1 -25 -15 -17 -34 -17 -49 2 -23 28 21 50 48 23z m-124 -34 c3 -8 2
-12 -4 -9 -6 3 -10 10 -10 16 0 14 7 11 14 -7z"/>
<path d="M5317 3202 c-28 -2 -40 -9 -51 -30 -8 -15 -32 -43 -53 -63 -44 -41
-154 -119 -169 -119 -5 0 -33 -18 -62 -39 -28 -22 -66 -42 -83 -46 -33 -7 -97
-67 -134 -125 -23 -35 -41 -90 -29 -90 3 0 34 24 67 54 76 66 154 116 232 149
49 21 61 30 65 53 4 22 19 36 68 64 67 39 138 103 148 132 11 37 53 21 113
-42 31 -33 83 -75 116 -93 48 -26 61 -39 65 -62 4 -23 14 -33 55 -49 89 -37
163 -84 233 -151 38 -36 73 -65 77 -65 15 0 -9 68 -42 117 -39 58 -87 99 -136
115 -17 6 -49 23 -69 39 -20 16 -48 33 -61 38 -62 24 -197 134 -221 180 -16
31 -50 39 -129 33z m103 -22 c0 -20 85 -102 157 -153 53 -37 70 -54 62 -61 -8
-7 -13 -8 -15 -1 -9 21 -21 31 -77 60 -64 33 -132 93 -142 125 -9 28 -91 30
-99 2 -10 -30 -87 -99 -151 -134 -47 -26 -61 -40 -63 -60 -3 -23 -17 -33 -97
-72 -81 -40 -146 -84 -228 -154 -16 -15 -17 -14 -11 4 12 33 73 111 102 130
15 10 49 29 76 41 26 13 62 34 78 48 16 14 37 25 47 25 10 0 26 9 36 20 10 12
35 30 54 42 48 28 109 87 127 121 14 25 19 27 79 27 38 0 65 -4 65 -10z"/>
<path d="M4325 2990 c-28 -11 -48 -37 -42 -54 3 -8 19 -17 36 -21 75 -16 129
28 81 67 -24 19 -43 22 -75 8z"/>
<path d="M6312 2985 c-51 -37 -1 -84 74 -70 42 7 53 30 28 56 -28 27 -74 33
-102 14z"/>
<path d="M4472 2978 c-7 -7 -12 -25 -12 -40 0 -21 5 -28 19 -28 10 0 21 -7 25
-15 8 -23 -5 -76 -20 -82 -16 -6 -19 -33 -5 -33 41 0 151 118 151 161 0 38
-62 63 -88 37 -10 -10 -17 -10 -32 0 -24 15 -23 15 -38 0z"/>
<path d="M6097 2972 c-26 -28 -21 -50 23 -108 34 -46 85 -84 112 -84 13 0 9
22 -6 34 -8 6 -18 28 -21 48 -7 34 -5 39 19 48 18 6 26 17 26 34 0 34 -23 51
-49 34 -16 -10 -23 -10 -33 0 -18 18 -52 15 -71 -6z"/>
<path d="M4583 2823 c-56 -59 -64 -78 -35 -85 26 -7 59 8 76 34 18 27 33 108
20 107 -5 0 -33 -26 -61 -56z m42 -10 c-3 -16 -14 -36 -22 -45 -17 -19 -53
-25 -53 -9 0 9 70 81 79 81 2 0 0 -12 -4 -27z"/>
<path d="M6060 2855 c0 -42 29 -102 57 -114 29 -13 63 -6 63 14 0 12 -104 125
-115 125 -3 0 -5 -11 -5 -25z"/>
<path d="M5280 2824 c-70 -11 -140 -28 -185 -47 -148 -62 -288 -192 -355 -331
-194 -401 15 -859 446 -977 66 -18 97 -21 198 -17 101 4 134 10 201 34 483
176 616 787 251 1146 -140 137 -375 218 -556 192z m138 -66 c-24 -29 -53 -62
-65 -75 -12 -12 -30 -36 -40 -53 -10 -17 -28 -33 -41 -37 -13 -3 -86 -3 -162
1 -76 4 -155 4 -174 1 l-35 -7 -3 -100 c-2 -55 0 -105 4 -112 5 -9 20 -11 50
-7 48 7 177 5 185 -3 3 -2 -7 -21 -22 -40 -15 -20 -24 -36 -20 -36 3 0 -1 -7
-9 -16 -9 -8 -14 -19 -11 -24 3 -5 1 -10 -4 -12 -12 -4 -118 -220 -176 -355
-26 -62 -50 -113 -55 -113 -4 0 -11 7 -14 17 -6 14 -8 14 -22 -3 -13 -16 -15
-16 -10 -2 3 12 1 15 -10 11 -9 -3 -14 1 -14 12 0 10 5 14 13 9 6 -4 9 -4 5 0
-3 4 -9 7 -13 6 -9 -2 -54 70 -55 85 0 6 36 78 80 159 72 134 98 188 70 146
-9 -13 -12 -13 -21 3 -5 9 -18 17 -27 16 -14 0 -14 -2 -2 -6 26 -10 42 -45 18
-41 -7 2 -13 -3 -14 -9 -1 -7 -3 -16 -4 -20 -1 -5 -2 -11 -2 -14 1 -3 -5 -6
-12 -6 -6 0 -13 14 -13 31 -2 26 0 28 7 11 8 -19 9 -19 9 2 1 12 -6 28 -14 37
-12 12 -13 20 -3 40 6 14 15 26 20 26 16 0 8 19 -12 30 -16 9 -22 7 -28 -7 -4
-10 -25 -45 -47 -78 -32 -48 -40 -56 -43 -39 -6 42 28 169 69 253 34 70 57
101 128 171 141 141 279 198 474 199 l108 1 -43 -52z m372 -273 l0 -95 -155 0
-155 0 0 -70 c0 -67 5 -80 26 -62 5 5 39 26 77 46 l67 37 0 -78 0 -78 -81 -45
c-45 -25 -83 -50 -86 -56 -2 -6 -3 -32 -1 -57 l3 -45 83 49 82 49 0 -79 0 -79
-85 -48 -85 -49 0 -152 0 -153 -125 0 -125 0 0 79 0 80 -69 -40 c-37 -21 -71
-39 -75 -39 -4 0 -6 35 -4 77 l3 78 72 40 73 40 0 53 0 53 -75 -41 -75 -41 0
78 0 78 75 43 75 44 0 144 0 144 -155 0 -155 0 0 73 c0 39 -3 82 -6 95 l-6 22
441 0 441 0 0 -95z m-582 -167 c-3 -57 -22 -74 -37 -35 -5 14 -16 27 -23 30
-7 3 -4 6 8 6 12 1 25 9 29 19 5 14 4 15 -6 5 -18 -18 -25 -16 -25 7 0 15 7
20 29 20 28 0 28 -1 25 -52z m-377 -581 c-10 -9 -11 -8 -5 6 3 10 9 15 12 12
3 -3 0 -11 -7 -18z"/>
<path d="M4816 2365 c-3 -8 -1 -15 4 -15 6 0 10 7 10 15 0 8 -2 15 -4 15 -2 0
-6 -7 -10 -15z"/>
<path d="M4841 1804 c0 -11 3 -14 6 -6 3 7 2 16 -1 19 -3 4 -6 -2 -5 -13z"/>
<path d="M4077 2638 c-21 -29 -41 -68 -47 -86 -8 -29 -6 -37 15 -58 19 -19 35
-24 75 -24 58 0 74 18 44 51 -11 12 -21 45 -26 86 -4 37 -12 71 -16 75 -5 5
-25 -14 -45 -44z"/>
<path d="M6580 2664 c-6 -14 -10 -45 -10 -68 0 -28 -7 -52 -20 -69 -11 -14
-20 -30 -20 -36 0 -35 112 -28 141 8 14 17 16 28 8 54 -8 29 -76 137 -85 137
-3 0 -9 -12 -14 -26z"/>
<path d="M4304 2638 c-63 -42 -67 -66 -20 -118 31 -34 36 -47 36 -89 0 -57
-22 -86 -39 -52 -6 11 -11 29 -11 40 0 25 -27 28 -56 7 -18 -14 -18 -15 10
-45 25 -26 28 -34 22 -74 -5 -34 -3 -49 12 -68 10 -13 31 -48 47 -76 15 -29
34 -53 42 -53 18 0 16 14 -7 52 -23 38 -26 114 -7 139 7 10 29 24 50 32 51 22
77 90 40 104 -32 11 -63 46 -63 70 0 14 11 39 24 56 36 47 43 83 18 96 -32 17
-46 14 -98 -21z m91 -25 c-3 -15 -17 -40 -31 -56 -32 -38 -31 -70 5 -100 17
-14 27 -28 23 -32 -4 -5 -2 -6 3 -2 6 3 17 2 23 -2 22 -13 -4 -60 -41 -76 -19
-8 -39 -21 -46 -29 -7 -8 -19 -12 -27 -9 -8 3 -14 0 -14 -6 0 -6 5 -11 12 -11
9 0 9 -3 1 -11 -6 -6 -9 -17 -7 -24 9 -23 -15 -26 -26 -4 -7 12 -8 19 -2 15 5
-3 12 1 16 9 3 8 0 15 -6 15 -6 0 -3 10 8 22 10 12 14 18 7 15 -6 -4 -14 -3
-17 2 -6 9 49 33 57 25 2 -3 3 11 0 31 -2 22 1 35 8 35 8 0 9 4 0 13 -6 8 -8
17 -5 20 4 3 -2 21 -13 39 -19 33 -19 33 0 53 10 11 23 19 29 17 5 -1 7 2 3 8
-5 8 32 68 44 69 2 1 0 -11 -4 -26z m-141 -215 c-3 -4 -11 -5 -19 -1 -21 7
-19 12 4 10 11 0 18 -5 15 -9z"/>
<path d="M6308 2659 c-26 -15 -22 -39 13 -92 38 -58 34 -89 -16 -119 -55 -32
-44 -83 25 -118 22 -11 44 -30 51 -41 16 -31 6 -103 -20 -135 -16 -20 -18 -30
-10 -40 16 -19 26 -10 58 55 16 31 37 63 46 71 13 11 15 24 10 63 -6 44 -4 51
20 77 24 25 25 29 10 44 -28 28 -53 20 -61 -20 -5 -25 -11 -34 -23 -32 -12 2
-17 17 -19 55 -3 47 0 55 33 92 46 50 43 76 -10 113 -48 32 -84 42 -107 27z"/>
<path d="M4511 2014 c0 -11 3 -14 6 -6 3 7 2 16 -1 19 -3 4 -6 -2 -5 -13z"/>
<path d="M2689 1934 c-22 -52 -23 -64 -8 -64 5 0 7 4 4 10 -4 6 1 7 12 3 15
-6 13 -8 -10 -18 -31 -13 -56 -42 -57 -67 0 -10 -5 -17 -11 -15 -6 1 -17 -7
-25 -19 -12 -18 -12 -23 -1 -33 12 -9 14 -7 12 11 -1 13 0 16 2 7 9 -34 96
-57 113 -29 4 7 5 21 2 32 -3 12 0 18 8 16 7 -2 20 9 29 25 14 24 14 29 1 37
-11 7 -8 8 12 6 37 -4 192 -83 225 -115 15 -14 23 -20 18 -12 -5 9 -3 12 6 9
8 -3 13 -11 11 -17 -1 -6 3 -11 9 -11 5 0 8 -4 4 -9 -3 -5 0 -13 6 -17 7 -4 9
-3 5 4 -3 5 0 12 6 15 19 6 48 -11 48 -28 0 -8 5 -15 11 -15 5 0 7 6 3 13 -4
6 2 4 12 -6 17 -16 17 -18 2 -33 -12 -13 -20 -14 -37 -5 -24 13 -27 31 -9 49
7 7 9 12 5 12 -4 0 -16 -9 -28 -21 -16 -16 -18 -23 -8 -35 6 -8 19 -14 29 -14
16 0 30 -18 30 -40 0 -4 -7 -11 -16 -14 -10 -4 -13 -2 -8 7 5 7 0 6 -10 -3
-15 -12 -16 -16 -4 -23 22 -14 -46 -143 -74 -139 -18 2 -19 0 -8 -13 7 -9 11
-18 8 -20 -5 -6 -247 192 -315 258 -23 22 -41 44 -40 50 1 5 -4 12 -12 15 -9
3 -11 0 -7 -9 4 -8 -2 -3 -15 11 -12 14 -25 24 -29 23 -5 -1 -13 4 -19 11 -10
11 -22 4 -64 -37 -58 -56 -180 -139 -233 -159 -19 -6 -34 -15 -34 -19 0 -4 14
-40 30 -80 17 -41 74 -186 127 -324 53 -137 97 -252 99 -253 7 -9 199 91 292
151 57 37 108 64 114 61 7 -4 8 -2 4 5 -5 7 10 27 39 53 25 23 67 63 92 89 39
41 47 46 59 34 16 -16 18 -41 4 -50 -6 -4 -7 -11 -4 -17 4 -7 2 -8 -5 -4 -6 4
-9 10 -7 14 2 4 -2 16 -10 27 -15 19 -15 19 -11 -5 2 -14 7 -33 12 -43 5 -12
2 -24 -7 -34 -14 -13 -18 -12 -36 11 -17 23 -21 24 -32 11 -11 -13 -10 -14 5
-9 14 6 16 4 9 -7 -4 -8 -10 -22 -11 -33 -3 -16 0 -15 16 5 l19 24 11 -28 c15
-39 14 -44 -5 -21 -15 18 -15 18 -9 -3 12 -42 -171 -205 -350 -313 -44 -26
-90 -51 -102 -54 -13 -4 -23 -13 -23 -19 0 -21 54 -157 63 -157 5 0 39 18 75
39 200 117 388 299 507 491 45 74 45 74 25 95 -19 21 -19 21 1 22 14 1 19 -3
15 -13 -3 -8 -1 -14 4 -14 6 0 10 8 10 18 0 11 9 29 20 42 11 12 17 27 14 31
-3 5 -1 9 4 9 5 0 12 9 15 21 4 17 3 18 -9 8 -12 -10 -13 -9 -8 6 5 12 4 16
-4 11 -6 -3 -14 -1 -18 5 -5 8 -3 9 6 4 9 -6 12 -4 8 6 -3 8 3 25 13 38 11 13
19 19 19 13 0 -5 -6 -15 -14 -22 -17 -13 -10 -40 10 -40 8 0 11 6 7 17 -5 12
-3 14 7 8 10 -6 12 -4 7 8 -3 9 -2 19 4 23 6 3 8 13 5 21 -3 8 -1 11 5 8 6 -4
8 3 4 22 -5 19 -4 24 3 14 11 -16 59 173 64 252 l3 49 -50 19 c-139 55 -325
117 -325 108 0 -26 24 -48 83 -78 94 -48 135 -91 143 -152 4 -27 10 -46 15
-44 4 3 19 0 34 -7 22 -10 25 -16 19 -41 -3 -17 -19 -58 -34 -91 -15 -34 -25
-67 -22 -75 3 -8 0 -11 -7 -7 -6 4 -11 3 -11 -2 0 -5 -18 -37 -40 -71 -41 -64
-47 -77 -30 -66 6 3 10 -1 10 -9 0 -8 -4 -18 -10 -21 -5 -3 -10 -1 -10 4 0 6
-7 11 -16 11 -8 0 -31 15 -51 34 l-35 33 54 74 c30 41 70 101 90 134 34 55 35
61 23 86 -22 42 -111 116 -163 135 -26 10 -71 38 -100 61 -29 24 -56 43 -61
43 -13 0 -58 49 -91 99 -25 37 -41 49 -81 63 l-50 17 -20 -45z m14 -91 c-5
-15 -3 -16 8 -5 7 6 18 12 23 12 6 0 0 -8 -14 -17 -17 -12 -25 -13 -28 -5 -2
7 -8 12 -13 12 -6 0 -6 -8 1 -19 13 -25 13 -81 0 -81 -5 0 -10 12 -10 26 0 14
-4 23 -10 19 -5 -3 -10 -15 -10 -25 0 -12 -5 -17 -13 -14 -11 4 -11 12 -3 39
6 19 14 35 18 35 5 0 8 6 8 14 0 8 10 17 23 19 12 2 23 5 24 6 1 0 0 -7 -4
-16z m667 -313 c0 -5 -5 -10 -11 -10 -5 0 -7 5 -4 10 3 6 8 10 11 10 2 0 4 -4
4 -10z"/>
<path d="M2610 1709 c0 -5 5 -7 10 -4 6 3 10 8 10 11 0 2 -4 4 -10 4 -5 0 -10
-5 -10 -11z"/>
<path d="M2963 1705 c0 -8 4 -12 9 -9 5 3 6 10 3 15 -9 13 -12 11 -12 -6z"/>
<path d="M2995 1681 c-3 -5 -2 -12 3 -15 5 -3 9 1 9 9 0 17 -3 19 -12 6z"/>
<path d="M3127 1633 c-4 -3 -7 -11 -7 -17 0 -6 5 -5 12 2 6 6 9 14 7 17 -3 3
-9 2 -12 -2z"/>
<path d="M3056 1565 c4 -8 8 -15 10 -15 2 0 4 7 4 15 0 8 -4 15 -10 15 -5 0
-7 -7 -4 -15z"/>
<path d="M1975 1440 c3 -5 -2 -10 -12 -11 -16 0 -16 -1 2 -9 19 -7 19 -8 2
-15 -15 -6 -16 -10 -5 -16 10 -7 10 -9 1 -9 -7 0 -13 -5 -13 -11 0 -5 3 -8 8
-5 4 2 16 -2 27 -10 18 -14 18 -14 -4 -14 -12 0 -20 -4 -17 -9 3 -5 -4 -12
-17 -17 -16 -6 -7 -9 37 -11 32 -2 59 -3 61 -1 1 2 -2 36 -8 76 -10 71 -10 72
-39 72 -17 0 -27 -4 -23 -10z"/>
<path d="M2990 1416 c0 -2 7 -7 16 -10 8 -3 12 -2 9 4 -6 10 -25 14 -25 6z"/>
<path d="M2051 1244 c0 -11 3 -14 6 -6 3 7 2 16 -1 19 -3 4 -6 -2 -5 -13z"/>
<path d="M3082 1210 c14 -22 24 -19 15 5 -4 8 -11 15 -17 15 -6 0 -6 -7 2 -20z"/>
<path d="M3031 1186 c-8 -10 -6 -18 8 -34 22 -26 31 -28 31 -7 0 8 -5 15 -11
15 -6 0 -9 7 -6 15 8 20 -8 28 -22 11z"/>
<path d="M2082 1020 c-1 -14 3 -43 7 -65 6 -26 9 -31 9 -15 1 14 -3 43 -7 65
-6 26 -9 31 -9 15z"/>
<path d="M2101 894 c0 -11 3 -14 6 -6 3 7 2 16 -1 19 -3 4 -6 -2 -5 -13z"/>
<path d="M2058 863 c7 -3 16 -2 19 1 4 3 -2 6 -13 5 -11 0 -14 -3 -6 -6z"/>
<path d="M2090 865 c6 -29 -1 -64 -12 -61 -7 1 -10 1 -5 -1 12 -7 8 -41 -5
-45 -7 -3 -6 -7 5 -11 13 -5 17 -1 18 21 0 15 5 36 10 47 6 14 7 6 3 -27 -4
-39 -2 -47 9 -42 11 4 12 16 6 56 -5 28 -13 56 -19 62 -7 7 -11 7 -10 1z"/>
<path d="M2040 840 c20 -13 40 -13 40 0 0 6 -12 10 -27 10 -22 0 -25 -2 -13
-10z"/>
<path d="M2035 560 c-44 -3 -75 -7 -70 -8 6 -1 9 -35 7 -86 l-3 -85 36 -7 c34
-6 164 2 173 11 2 2 -2 44 -8 94 -12 83 -15 91 -34 89 -12 -1 -57 -5 -101 -8z"/>
</g>
</svg>
