<?xml version="1.0" standalone="no"?>
<!DOCTYPE svg PUBLIC "-//W3C//DTD SVG 20010904//EN"
 "http://www.w3.org/TR/2001/REC-SVG-20010904/DTD/svg10.dtd">
<svg version="1.0" xmlns="http://www.w3.org/2000/svg"
 width="1500.000000pt" height="1060.000000pt" viewBox="0 0 1500.000000 1060.000000"
 preserveAspectRatio="xMidYMid meet">

<g transform="translate(0.000000,1060.000000) scale(0.100000,-0.100000)"
fill="#000000" stroke="none">
<path d="M9135 7314 c-661 -72 -1187 -557 -1322 -1219 -16 -82 -18 -153 -18
-805 0 -705 0 -716 23 -817 44 -198 117 -369 233 -543 76 -115 261 -302 371
-378 170 -116 388 -207 593 -248 125 -25 413 -25 540 0 543 107 979 487 1149
1003 70 211 69 201 73 927 4 655 -2 820 -29 837 -7 4 -51 16 -99 25 -67 14
-89 22 -92 36 -3 10 -4 18 -3 18 1 0 42 -9 92 -20 49 -11 93 -20 97 -20 11 0
-1 60 -30 153 -24 76 -24 77 -58 77 -19 0 -36 4 -40 9 -3 6 -37 13 -75 17 -48
4 -70 11 -70 20 0 24 -40 122 -65 158 -25 37 -24 43 10 42 11 -1 23 4 27 9 5
6 8 5 8 -3 0 -9 5 -10 18 -3 11 6 33 6 57 1 22 -5 41 -7 43 -6 1 2 -20 37 -47
77 -87 131 -224 276 -320 341 -24 16 -26 16 -38 -3 -8 -10 -23 -19 -33 -19
-10 0 -22 -4 -25 -10 -3 -5 -21 -10 -40 -10 -19 0 -36 -4 -40 -9 -8 -15 -115
-25 -127 -13 -7 7 -1 24 22 55 35 49 59 59 147 59 l53 0 -38 30 c-94 76 -329
173 -505 209 -100 20 -347 33 -442 23z m247 -304 c23 -25 28 -38 23 -59 -9
-37 -33 -59 -76 -72 -103 -31 -204 53 -148 125 30 38 54 46 118 42 47 -2 59
-8 83 -36z m402 5 c-20 -30 -20 -30 -20 -6 0 11 4 18 7 15 4 -2 10 0 14 6 3 5
8 10 11 10 2 0 -3 -11 -12 -25z m-667 -42 c-1 -27 4 -63 12 -80 39 -94 217
-110 291 -26 29 33 35 57 30 125 -1 26 -1 26 35 15 49 -15 91 -65 104 -125 17
-82 -9 -141 -81 -183 -39 -22 -56 -24 -195 -27 -188 -5 -243 8 -297 68 -36 40
-41 58 -37 129 3 62 46 118 106 139 17 6 31 11 32 11 1 1 1 -20 0 -46z m515
34 c-8 -9 -7 -20 1 -37 10 -20 19 -24 43 -22 36 4 59 -18 49 -47 -8 -26 -94
-113 -104 -106 -5 2 -11 28 -14 57 -6 61 -10 81 -17 88 -3 3 -11 16 -19 30
-13 23 -13 24 2 12 14 -12 19 -10 38 12 23 26 41 37 21 13z m-707 -27 c0 -10
-8 -14 -23 -12 -24 4 -88 -33 -97 -56 -2 -7 4 -18 15 -24 13 -9 20 -24 20 -46
0 -39 15 -72 34 -72 7 0 33 -18 57 -39 57 -51 47 -65 -48 -59 -45 2 -83 11
-111 26 -64 33 -88 29 -136 -24 -32 -34 -49 -45 -66 -42 -35 5 -35 25 -1 43
17 8 40 32 51 53 11 20 30 49 41 63 24 31 19 64 -12 74 -10 4 -19 12 -19 18 1
12 64 57 79 57 5 0 14 7 21 15 7 8 29 15 50 15 21 0 51 7 66 15 35 19 79 16
79 -5z m799 5 c15 -8 43 -15 61 -15 37 0 155 -66 155 -87 0 -7 -8 -17 -17 -20
-41 -15 -42 -42 -5 -85 15 -18 33 -45 39 -60 7 -14 24 -32 40 -40 36 -17 36
-42 0 -46 -23 -3 -36 5 -68 42 -48 54 -68 57 -135 21 -38 -20 -61 -25 -120
-25 -45 0 -76 4 -80 12 -9 14 60 75 94 84 28 8 42 33 42 78 0 26 6 38 21 47
21 11 21 11 -8 41 -20 19 -42 31 -64 33 -22 1 -35 8 -37 19 -4 21 42 22 82 1z
m-314 -110 c-13 -14 -26 -23 -28 -20 -5 5 36 45 46 45 3 0 -5 -11 -18 -25z
m685 -40 c56 -33 148 -113 201 -176 117 -136 164 -238 164 -353 0 -53 4 -66
24 -85 49 -46 120 -241 103 -284 -16 -41 -120 1 -180 73 -26 31 -27 34 -11 51
33 37 6 46 -164 54 -192 9 -238 17 -314 55 -32 16 -69 30 -81 30 -22 0 -34 7
-117 65 -40 28 -51 30 -156 35 -141 7 -156 16 -130 81 13 32 14 45 5 53 -8 8
-13 8 -16 0 -15 -43 -47 -56 -138 -56 -74 0 -116 13 -127 38 -6 13 -15 24 -19
24 -18 0 -18 -21 -3 -60 26 -64 10 -74 -129 -80 -116 -5 -134 -11 -197 -60
-19 -15 -51 -31 -70 -35 -19 -4 -60 -20 -91 -35 -70 -36 -137 -47 -321 -56
-108 -5 -151 -10 -159 -21 -9 -10 -9 -17 -1 -25 21 -21 13 -45 -27 -81 -52
-47 -96 -69 -129 -65 -25 3 -27 6 -27 53 1 61 55 202 93 240 22 22 26 36 27
88 3 131 75 266 214 405 123 123 230 179 269 140 25 -25 13 -59 -41 -111 -30
-29 -63 -65 -75 -80 -25 -34 -42 -28 -42 16 0 22 11 45 31 70 33 40 33 53 0
42 -27 -8 -127 -117 -151 -165 -44 -87 -64 -264 -39 -353 14 -51 48 -73 91
-58 54 19 165 99 172 123 3 13 6 52 6 88 0 76 8 91 52 106 25 8 34 18 39 43 4
18 11 37 17 43 6 6 65 9 141 9 97 -1 140 2 167 14 58 24 117 19 180 -14 l55
-30 35 21 c40 23 103 21 133 -6 18 -16 11 -18 99 29 48 26 84 28 141 5 46 -18
72 -21 183 -19 79 1 133 -2 140 -9 5 -5 13 -25 17 -43 5 -25 14 -35 39 -43 44
-15 52 -30 52 -106 0 -36 3 -75 6 -88 7 -24 118 -104 172 -123 43 -15 77 7 91
58 25 89 5 266 -39 353 -24 48 -124 157 -151 165 -30 10 -35 -2 -12 -28 29
-31 43 -61 43 -91 0 -37 -18 -41 -42 -9 -12 15 -45 51 -75 80 -59 57 -68 91
-31 117 25 18 45 14 103 -19z m-918 -181 c-3 -3 -12 -4 -19 -1 -8 3 -5 6 6 6
11 1 17 -2 13 -5z m153 -5 c0 -4 -20 -7 -45 -7 -25 0 -57 -7 -70 -16 -34 -22
-38 -20 -19 9 14 21 22 24 75 23 32 -1 59 -5 59 -9z m86 -2 c5 -4 0 -5 -11 -1
-18 7 -19 6 -5 -12 14 -17 14 -18 -2 -6 -10 8 -19 9 -22 3 -3 -5 -1 -12 4 -14
6 -3 5 -4 -2 -2 -7 1 -12 8 -10 14 1 6 -5 11 -13 11 -8 0 -15 3 -15 8 0 10 66
9 76 -1z m574 -61 c0 -27 -15 -50 -28 -42 -14 8 -20 65 -8 69 20 7 36 -5 36
-27z m205 -6 c-3 -5 2 -9 12 -8 45 3 65 -2 59 -17 -3 -8 -1 -15 5 -15 6 0 9
-7 6 -15 -4 -8 -2 -17 3 -20 6 -4 10 -12 10 -18 0 -7 -5 -4 -11 6 -5 9 -19 17
-30 17 -13 0 -18 4 -13 13 4 6 4 9 0 5 -10 -8 -56 44 -49 54 2 5 6 8 9 8 3 0
2 -4 -1 -10z m-64 -20 c28 16 11 -34 -22 -66 -27 -25 -40 -64 -21 -64 4 0 13
-9 20 -20 11 -18 10 -25 -8 -50 -30 -43 -50 -39 -50 8 0 21 3 42 7 46 11 10
14 46 4 46 -5 0 -14 14 -20 30 -5 17 -17 33 -26 36 -8 3 -15 10 -15 15 0 4 7
5 17 2 10 -4 14 -2 10 4 -4 6 9 9 33 9 32 -1 37 1 27 14 -8 10 -5 10 8 -2 14
-11 25 -14 36 -8z m-1713 -30 c2 -12 17 -34 33 -47 40 -34 37 -47 -11 -40 -48
6 -52 -7 -14 -52 29 -35 30 -77 1 -95 -43 -27 -106 53 -115 147 -4 43 -3 49
11 44 11 -4 21 1 28 16 30 58 61 71 67 27z m1781 1 c12 -16 21 -34 21 -41 0
-7 8 -9 20 -5 52 17 -4 -165 -60 -192 -22 -12 -27 -10 -47 13 -29 32 -29 34 7
79 41 52 39 64 -10 58 -48 -7 -51 6 -10 40 17 14 30 34 30 45 0 40 22 42 49 3z
m101 -133 c0 -22 -5 -28 -21 -28 -16 0 -19 4 -14 23 4 12 9 30 12 41 7 26 23
1 23 -36z m-158 25 c-6 -2 -10 -9 -6 -14 3 -5 1 -9 -5 -9 -5 0 -12 4 -15 9 -6
9 10 19 29 19 6 0 4 -2 -3 -5z m-851 -57 c69 0 103 4 115 15 16 12 17 12 9 -1
-16 -27 -11 -55 15 -72 19 -14 46 -18 119 -18 102 0 144 -13 206 -66 l30 -25
-35 6 c-19 3 -59 17 -89 32 -47 23 -68 27 -159 29 -90 2 -107 6 -126 23 -32
30 -150 30 -182 0 -19 -18 -36 -21 -126 -22 -92 -2 -110 -5 -157 -29 -67 -35
-71 -35 -36 2 15 16 32 27 37 24 5 -3 7 0 6 8 -2 10 22 14 103 18 111 5 139
16 139 52 0 11 -5 28 -11 39 -10 20 -10 20 17 2 22 -14 47 -18 125 -17z m73
-84 c15 -18 15 -19 -9 -30 -32 -15 -32 -36 0 -76 42 -54 64 -71 170 -136 94
-57 225 -34 225 40 0 43 -22 55 -50 25 -26 -28 -75 -33 -145 -15 -103 27 -126
47 -140 123 -7 35 -6 36 31 43 50 9 179 -11 218 -35 17 -11 49 -23 71 -26 77
-14 157 -130 134 -193 -9 -25 -46 -42 -90 -42 -38 0 -39 -24 -1 -44 36 -19 98
-95 121 -148 23 -54 51 -165 51 -204 0 -16 16 -53 35 -83 19 -30 49 -94 66
-143 30 -82 34 -88 60 -88 40 0 45 17 18 66 -22 42 -23 44 -5 63 10 11 27 23
37 26 25 8 24 20 -5 47 -41 39 -66 90 -66 135 0 40 -2 43 -38 53 -95 25 -127
125 -75 230 l26 53 -26 21 c-30 24 -35 53 -11 63 10 4 23 -2 33 -15 9 -12 30
-24 46 -27 29 -5 165 7 232 21 27 5 37 1 76 -35 24 -23 53 -41 64 -41 37 0
213 -90 213 -108 0 -35 -16 -47 -45 -34 -36 17 -72 15 -79 -4 -8 -21 1 -34 24
-34 52 0 100 -54 73 -81 -7 -7 3 -35 28 -85 66 -128 49 -174 -81 -222 -98 -36
-100 -47 -15 -136 37 -37 70 -78 75 -90 6 -18 15 -250 11 -290 -1 -5 -11 0
-23 11 -50 46 -98 32 -98 -27 0 -48 16 -77 47 -84 38 -10 73 -34 73 -50 0 -8
-12 -28 -26 -45 -37 -44 -67 -41 -134 14 -63 51 -85 58 -76 20 16 -63 26 -75
88 -105 35 -17 81 -46 102 -64 38 -31 40 -36 44 -101 l5 -69 -59 64 c-44 48
-76 71 -129 95 -39 18 -77 40 -84 49 -8 10 -34 29 -58 42 -80 48 -143 148
-147 238 -1 28 0 29 59 31 50 3 64 0 83 -18 23 -22 29 -61 11 -73 -7 -4 -19 3
-28 14 -12 16 -20 19 -31 12 -18 -11 -7 -34 31 -62 33 -25 47 -17 88 42 42 63
38 94 -17 117 -20 8 -74 38 -118 66 -92 59 -94 62 -94 183 0 64 -2 74 -17 74
-16 0 -18 -14 -18 -148 0 -168 -16 -238 -86 -373 -103 -199 -298 -355 -519
-416 -101 -27 -320 -25 -424 5 -233 67 -435 241 -530 456 -55 123 -81 285 -67
409 6 59 5 67 -10 67 -15 0 -18 -14 -21 -101 -2 -87 -6 -103 -22 -113 -10 -6
-41 -26 -69 -45 -28 -18 -74 -44 -103 -57 -77 -34 -79 -60 -12 -146 32 -41 56
-41 89 0 25 32 9 55 -20 28 -24 -22 -41 -13 -41 20 0 45 31 63 102 60 62 -4
63 -4 62 -32 -4 -83 -70 -196 -134 -229 -16 -8 -49 -33 -75 -55 -25 -22 -54
-40 -64 -40 -29 0 -104 -54 -153 -109 -25 -29 -48 -49 -52 -43 -3 5 -3 33 1
63 5 45 12 60 43 90 20 19 67 51 103 70 65 33 74 44 92 107 10 35 -15 27 -74
-23 -63 -54 -99 -59 -137 -18 -36 39 -28 63 30 93 54 28 71 57 61 108 -8 42
-51 48 -91 11 -11 -10 -23 -19 -26 -19 -7 0 0 225 8 277 3 22 26 55 72 104 88
94 88 106 -6 138 -131 46 -152 101 -83 226 29 54 36 74 27 87 -19 30 7 66 56
75 45 9 56 28 26 47 -12 7 -27 7 -54 -3 -39 -14 -54 -6 -54 31 0 18 176 108
213 108 11 0 40 18 64 41 37 34 49 40 71 35 52 -13 217 -27 242 -21 14 4 32
16 41 27 10 13 23 19 33 15 25 -10 19 -38 -16 -69 -31 -26 -32 -29 -16 -41 25
-19 48 -79 48 -122 0 -64 -42 -119 -102 -135 -36 -10 -38 -13 -38 -53 0 -44
-23 -92 -66 -138 l-25 -26 36 -27 c40 -31 43 -47 15 -83 -27 -34 -25 -51 4
-59 35 -8 42 -1 61 59 10 28 39 95 65 147 32 63 51 117 58 160 5 36 20 90 31
122 25 64 93 153 134 174 41 22 34 41 -18 46 -57 7 -75 22 -75 65 0 68 73 163
124 163 13 0 44 11 70 25 55 29 178 51 232 40 35 -6 36 -7 31 -42 -13 -78 -73
-119 -192 -130 -62 -6 -68 -4 -94 21 -24 23 -30 25 -40 12 -19 -23 -9 -67 20
-88 33 -25 124 -26 171 -3 88 45 218 162 218 197 0 10 -11 24 -25 30 -24 11
-24 12 -9 30 13 14 32 18 79 18 47 0 66 -4 79 -18z m-144 -57 c0 -23 -52 -92
-78 -104 l-24 -11 21 26 c12 15 24 44 27 66 6 32 10 38 30 38 15 0 24 -6 24
-15z m184 -23 c3 -22 16 -51 28 -67 21 -27 21 -27 1 -16 -28 14 -83 85 -83
105 0 10 9 16 24 16 20 0 24 -6 30 -38z m623 -90 c7 -4 -21 -16 -68 -29 -43
-11 -79 -17 -79 -13 0 9 50 31 95 41 17 3 32 7 35 8 3 0 10 -3 17 -7z m-1091
-42 c27 0 74 6 104 14 30 8 56 13 58 12 4 -5 -61 -51 -91 -64 -45 -19 -120
-15 -151 9 -25 20 -34 48 -19 62 3 4 16 -2 28 -13 15 -14 35 -20 71 -20z m794
-10 c-24 -45 -108 -52 -185 -16 -51 23 -103 68 -60 52 44 -17 150 -35 176 -29
15 3 36 14 45 25 15 16 19 17 26 4 5 -9 4 -24 -2 -36z m-1030 -82 c12 -15 33
-24 66 -28 l49 -6 -30 -16 c-44 -23 -111 -111 -136 -176 -11 -32 -29 -95 -39
-142 -12 -56 -34 -115 -63 -172 -25 -47 -51 -105 -58 -127 -10 -34 -17 -41
-37 -41 -24 0 -24 1 -8 23 43 59 43 67 3 102 -36 32 -37 32 -17 50 27 25 70
114 70 146 0 22 6 30 33 38 19 7 47 25 63 42 27 28 29 36 29 109 0 50 -5 84
-12 92 -19 18 -16 34 10 59 12 12 15 19 7 15 -8 -4 -7 -1 4 8 10 8 15 19 11
25 -3 7 0 8 9 5 9 -3 16 -1 16 5 0 17 10 13 30 -11z m-245 -1010 c2 -7 6 -37
8 -66 5 -53 -5 -74 -26 -53 -6 6 -22 11 -36 12 l-26 0 24 10 c19 8 21 12 11
24 -7 9 -15 13 -19 10 -3 -3 1 -10 9 -15 8 -6 10 -10 4 -10 -7 0 -19 11 -27
24 -15 22 -15 25 1 38 20 18 54 37 65 38 4 0 10 -6 12 -12z"/>
<path d="M8925 6568 c-11 -6 -35 -24 -53 -41 -30 -29 -35 -30 -63 -20 -27 11
-31 10 -41 -12 -6 -13 -8 -30 -5 -39 13 -33 268 -44 325 -13 43 23 41 50 -7
98 -34 35 -44 39 -87 39 -27 0 -58 -6 -69 -12z m100 -67 c0 -8 -8 -19 -17 -25
-22 -13 -44 5 -34 29 7 20 51 16 51 -4z m79 -16 c3 -8 -3 -19 -13 -25 -20 -10
-23 2 -8 28 10 16 14 15 21 -3z"/>
<path d="M9489 6541 c-47 -47 -50 -75 -10 -95 48 -25 107 -29 218 -16 109 14
123 22 104 59 -9 16 -18 19 -42 14 -25 -5 -36 0 -62 25 -39 37 -75 52 -129 52
-34 0 -47 -6 -79 -39z m208 -32 c28 -24 41 -29 64 -24 24 6 29 3 29 -13 0 -16
-12 -20 -96 -31 -86 -10 -97 -10 -112 6 -16 16 -16 16 0 10 13 -5 24 5 44 38
14 25 28 45 31 45 3 0 21 -14 40 -31z m-99 -1 c8 -8 9 -15 1 -25 -15 -17 -34
-17 -49 2 -23 28 21 50 48 23z"/>
<path d="M9196 6093 c-8 -16 -32 -44 -53 -64 -45 -42 -154 -119 -170 -119 -5
0 -30 -16 -54 -35 -24 -19 -60 -40 -79 -47 -48 -16 -81 -41 -124 -98 -34 -45
-62 -108 -51 -118 2 -2 32 20 67 51 77 67 155 117 233 150 49 21 61 30 65 53
4 22 19 36 70 65 36 21 88 63 116 93 28 31 59 56 68 56 9 0 44 -28 79 -63 34
-35 87 -77 117 -93 43 -23 56 -35 58 -56 3 -23 17 -33 106 -77 78 -37 121 -67
178 -120 42 -39 79 -71 82 -71 12 0 6 35 -14 76 -29 58 -111 140 -157 154 -21
7 -55 25 -75 41 -20 16 -48 33 -61 38 -29 11 -130 82 -174 121 -18 17 -39 44
-48 60 -15 29 -17 30 -90 30 -71 0 -75 -1 -89 -27z m154 7 c0 -20 85 -102 157
-153 52 -36 70 -54 62 -61 -7 -8 -13 -6 -20 6 -5 9 -35 31 -66 48 -83 47 -117
75 -139 115 -17 31 -23 35 -61 35 -31 0 -43 -4 -47 -18 -10 -30 -87 -99 -151
-134 -47 -26 -61 -40 -63 -60 -3 -23 -17 -33 -97 -72 -80 -39 -145 -83 -227
-153 -31 -28 -10 20 36 79 33 41 59 62 112 87 37 18 81 43 97 57 16 13 37 24
47 24 9 0 23 7 31 16 7 9 33 29 58 46 61 41 110 87 127 121 14 25 19 27 79 27
38 0 65 -4 65 -10z"/>
<path d="M8251 5907 c-32 -16 -49 -43 -35 -57 17 -17 76 -23 107 -11 33 13 36
44 5 65 -27 19 -45 20 -77 3z"/>
<path d="M10242 5905 c-51 -37 -1 -84 74 -70 42 7 53 30 28 56 -28 27 -74 33
-102 14z"/>
<path d="M8402 5898 c-19 -19 -15 -59 7 -65 11 -3 22 -11 25 -19 8 -22 -5 -75
-20 -81 -16 -6 -19 -33 -5 -33 41 0 151 118 151 161 0 38 -62 63 -88 37 -10
-10 -17 -10 -32 0 -24 15 -23 15 -38 0z"/>
<path d="M10027 5892 c-26 -28 -21 -50 23 -108 34 -46 85 -84 112 -84 13 0 9
22 -7 34 -9 6 -18 28 -21 48 -6 34 -4 39 20 48 18 6 26 17 26 34 0 34 -23 51
-49 34 -16 -10 -23 -10 -33 0 -18 18 -52 15 -71 -6z"/>
<path d="M8513 5743 c-56 -59 -64 -78 -35 -85 26 -7 59 8 76 34 18 27 33 108
20 107 -5 0 -33 -26 -61 -56z m42 -16 c-9 -34 -38 -59 -66 -55 -20 3 -19 6 22
45 23 23 45 41 47 39 1 -2 0 -15 -3 -29z"/>
<path d="M9990 5775 c0 -39 26 -92 54 -110 27 -18 66 -13 66 9 0 13 -103 126
-114 126 -3 0 -6 -11 -6 -25z"/>
<path d="M9185 5741 c-276 -45 -498 -244 -566 -508 -25 -98 -27 -242 -5 -336
47 -201 192 -376 387 -466 96 -45 171 -61 284 -61 214 0 404 90 538 255 99
122 150 270 150 435 1 364 -284 664 -650 684 -48 3 -110 1 -138 -3z m188 -33
c-11 -13 -31 -36 -44 -52 -13 -16 -31 -36 -40 -45 -8 -9 -26 -32 -39 -51 -13
-19 -29 -38 -35 -43 -5 -4 -92 -6 -192 -5 -100 2 -184 1 -186 -2 -6 -6 -9 -70
-8 -158 l1 -63 113 2 c96 1 112 -1 115 -15 2 -9 -2 -16 -8 -16 -6 0 -9 -4 -6
-9 3 -4 -3 -19 -14 -31 -18 -21 -22 -29 -19 -46 0 -4 -4 -10 -9 -13 -10 -6
-142 -264 -142 -277 0 -7 -58 -143 -70 -166 -6 -10 -10 -26 -10 -35 0 -14 -2
-15 -9 -4 -5 8 -18 12 -29 9 -17 -5 -27 6 -58 67 l-37 72 62 117 c60 113 67
144 32 131 -12 -5 -13 -4 -4 6 9 9 16 9 26 1 10 -9 17 -4 31 21 11 18 13 26 5
20 -25 -24 -56 -15 -68 18 -13 39 -14 82 -2 75 5 -4 7 3 4 14 -5 20 -23 28
-23 10 0 -5 -21 -42 -47 -82 -37 -56 -49 -68 -51 -52 -6 42 29 169 69 253 57
117 178 240 291 296 116 57 186 73 312 74 l109 1 -20 -22z m347 -303 l0 -95
-155 0 -155 0 0 -70 c0 -38 2 -70 5 -70 2 0 27 13 55 30 27 16 64 36 80 45
l30 16 0 -78 0 -78 -81 -45 c-45 -25 -83 -50 -86 -56 -2 -6 -3 -32 -1 -57 l3
-45 83 49 82 49 0 -80 0 -79 -85 -47 -85 -48 0 -153 0 -153 -125 0 -125 0 0
79 0 80 -69 -40 c-37 -21 -71 -39 -75 -39 -3 0 -6 34 -6 75 l0 75 75 42 74 43
1 53 0 53 -75 -41 -75 -41 0 78 0 79 75 43 75 42 0 145 0 144 -155 0 -155 0 0
73 c0 39 -3 82 -6 95 l-6 22 441 0 441 0 0 -95z m-599 -137 c11 -14 18 -39 19
-62 l0 -39 -24 22 c-19 18 -24 33 -23 62 1 22 3 39 5 39 2 0 12 -10 23 -22z
m19 6 c0 -8 -4 -12 -10 -9 -5 3 -10 10 -10 16 0 5 5 9 10 9 6 0 10 -7 10 -16z
m-433 -136 c-3 -8 -6 -5 -6 6 -1 11 2 17 5 13 3 -3 4 -12 1 -19z m23 -37 c0
-6 -4 -13 -10 -16 -5 -3 -10 1 -10 9 0 9 5 16 10 16 6 0 10 -4 10 -9z"/>
<path d="M8762 4720 c0 -14 2 -19 5 -12 2 6 2 18 0 25 -3 6 -5 1 -5 -13z"/>
<path d="M8006 5558 c-20 -30 -41 -69 -46 -87 -8 -28 -6 -36 15 -57 19 -19 35
-24 75 -24 58 0 74 18 44 51 -11 12 -21 45 -26 86 -4 37 -12 71 -17 76 -6 6
-23 -11 -45 -45z"/>
<path d="M10510 5584 c-6 -14 -10 -45 -10 -68 0 -29 -7 -52 -21 -70 -23 -29
-19 -55 8 -57 128 -8 157 48 82 160 -22 33 -43 61 -45 61 -3 0 -9 -12 -14 -26z"/>
<path d="M8234 5558 c-63 -42 -67 -66 -20 -118 31 -34 36 -47 36 -88 0 -53
-15 -78 -37 -61 -7 7 -13 24 -13 40 0 33 -23 39 -56 15 -18 -14 -18 -15 10
-45 25 -26 28 -34 22 -74 -5 -34 -3 -49 12 -68 10 -13 31 -48 47 -76 15 -29
34 -53 42 -53 18 0 16 14 -7 52 -29 47 -27 118 3 146 13 12 29 22 36 22 6 0
23 11 36 25 29 28 33 73 8 82 -32 11 -63 46 -63 70 0 14 11 39 24 56 36 47 43
83 18 96 -32 17 -46 14 -98 -21z m67 -67 c-17 -26 -31 -56 -31 -65 0 -19 55
-79 78 -87 25 -8 -4 -57 -44 -74 -20 -8 -40 -12 -45 -9 -5 3 -6 -1 -3 -9 2 -7
-7 -26 -22 -40 -30 -30 -41 -34 -41 -12 0 8 4 12 9 9 4 -3 8 3 8 13 0 15 2 16
10 3 5 -8 10 -11 10 -6 0 5 -7 17 -15 26 -14 16 -14 18 0 24 11 4 14 2 10 -7
-4 -6 0 -4 9 7 8 10 19 16 23 13 5 -3 9 25 8 63 -1 52 -6 74 -20 90 -10 11
-14 20 -9 20 5 1 27 25 49 55 48 64 60 54 16 -14z m-111 -165 c0 -3 -4 -8 -10
-11 -5 -3 -10 -1 -10 4 0 6 5 11 10 11 6 0 10 -2 10 -4z m37 -162 c-3 -3 -12
-4 -19 -1 -8 3 -5 6 6 6 11 1 17 -2 13 -5z"/>
<path d="M10238 5579 c-26 -15 -22 -39 13 -92 38 -58 34 -89 -16 -119 -55 -32
-44 -83 25 -118 22 -11 44 -30 51 -41 16 -30 6 -101 -20 -137 -17 -25 -18 -32
-7 -41 16 -14 24 -6 59 65 14 27 33 56 42 64 13 11 15 24 10 63 -6 44 -4 51
20 77 24 25 25 29 10 44 -33 33 -65 15 -65 -36 0 -13 -6 -18 -17 -16 -14 2
-19 15 -21 55 -3 47 0 55 33 92 48 53 44 77 -19 119 -51 34 -70 38 -98 21z"/>
<path d="M8410 4954 c-22 -12 -23 -14 -5 -14 15 0 17 -2 6 -9 -9 -6 -10 -11
-2 -15 6 -4 12 -2 12 3 1 6 2 17 3 24 1 6 8 11 15 9 7 -1 10 2 6 8 -3 5 -7 10
-8 9 -1 -1 -13 -7 -27 -15z"/>
<path d="M8375 4920 c3 -5 8 -10 11 -10 2 0 4 5 4 10 0 6 -5 10 -11 10 -5 0
-7 -4 -4 -10z"/>
<path d="M8435 4880 c-3 -6 1 -7 9 -4 18 7 21 14 7 14 -6 0 -13 -4 -16 -10z"/>
<path d="M6619 4854 c-22 -52 -23 -64 -8 -64 5 0 7 4 4 10 -3 6 1 7 10 3 12
-4 13 -8 5 -13 -7 -4 -9 -16 -6 -28 4 -12 2 -31 -4 -43 -8 -15 -9 -24 -2 -28
6 -4 7 -12 3 -20 -12 -19 -2 -51 14 -44 8 2 28 32 46 66 17 34 33 63 34 65 1
1 52 -24 114 -56 61 -32 108 -62 104 -66 -5 -4 -3 -6 2 -5 6 2 20 0 32 -5 15
-5 20 -12 16 -24 -6 -15 -5 -15 10 -3 14 11 18 11 23 -3 4 -10 12 -15 20 -12
7 3 17 -1 23 -8 8 -10 7 -17 -6 -27 -17 -13 -17 -13 -3 6 14 18 14 19 -1 7 -9
-7 -21 -11 -25 -10 -5 2 -10 -1 -12 -6 -1 -6 9 -11 22 -13 17 -2 30 4 40 19 9
12 16 17 16 11 0 -6 -7 -16 -15 -23 -8 -7 -12 -17 -8 -23 4 -7 0 -8 -12 -3
-14 5 -15 3 -8 -6 6 -8 7 -22 2 -33 -4 -11 -8 -16 -8 -11 -1 5 -24 -36 -52
-92 -43 -85 -54 -100 -67 -92 -39 21 -328 277 -339 300 -11 22 -10 27 10 42
24 18 19 27 -25 45 -22 10 -27 9 -31 -7 -2 -10 0 -24 5 -31 8 -11 9 -10 4 3
-3 10 -2 20 3 22 4 3 7 -11 7 -30 -1 -26 -3 -31 -11 -21 -5 7 -18 16 -29 20
-18 7 -18 8 -1 27 10 11 16 23 12 26 -3 3 -11 -4 -17 -16 -6 -12 -13 -20 -16
-18 -2 3 -27 -18 -56 -45 -60 -57 -183 -140 -234 -159 -19 -6 -34 -15 -34 -19
0 -4 20 -56 44 -115 24 -60 81 -206 126 -324 45 -118 83 -216 85 -218 8 -8
206 94 287 148 103 69 141 99 225 180 32 30 62 55 68 55 5 1 9 6 7 13 -3 16 3
15 18 -4 11 -12 11 -15 -1 -12 -8 2 -13 -3 -11 -9 1 -7 -2 -13 -7 -13 -5 0
-12 6 -15 13 -4 6 -4 2 -2 -10 2 -13 1 -23 -4 -23 -4 0 -10 -7 -14 -15 -6 -17
13 -65 26 -65 5 0 3 -6 -4 -14 -9 -9 -17 -11 -25 -4 -8 6 -10 3 -6 -11 13 -50
-264 -278 -429 -354 -26 -12 -48 -26 -48 -32 -1 -20 55 -155 63 -155 14 0 138
75 207 126 86 62 209 182 281 272 68 85 139 201 142 231 1 12 4 21 7 21 10 0
40 57 33 64 -3 3 -1 6 7 6 9 0 10 4 2 13 -8 9 -8 17 0 27 8 12 9 12 4 -2 -3
-10 -1 -18 4 -18 10 0 14 21 11 49 -2 7 2 10 8 6 6 -3 11 -2 11 3 0 17 -13 22
-27 10 -11 -8 -12 -7 -7 6 4 11 13 15 25 11 18 -6 23 3 22 43 -1 6 3 12 8 12
5 0 9 7 9 16 0 9 -5 13 -12 9 -7 -4 -6 0 3 7 19 15 57 160 61 231 l3 49 -50
19 c-139 55 -325 117 -325 108 0 -26 24 -48 83 -78 93 -47 135 -91 143 -151 4
-32 10 -47 19 -44 6 3 22 -3 34 -13 l23 -19 -33 -84 c-17 -47 -47 -109 -66
-138 -18 -29 -33 -56 -33 -60 -1 -14 -45 -59 -65 -66 -11 -4 -16 -4 -12 0 4 4
-7 22 -24 40 l-32 33 44 57 c24 31 65 91 91 133 46 75 46 76 30 104 -27 46
-108 114 -160 133 -26 10 -71 38 -100 61 -29 24 -56 43 -61 43 -13 0 -58 49
-91 99 -25 37 -41 49 -81 63 l-50 17 -20 -45z m678 -431 c-3 -10 -5 -4 -5 12
0 17 2 24 5 18 2 -7 2 -21 0 -30z m-83 -198 c-4 -8 -11 -12 -16 -9 -6 4 -5 10
3 15 19 12 19 11 13 -6z m-47 -109 c-3 -7 -1 -18 5 -24 6 -6 6 -12 -3 -17 -8
-5 -10 -4 -5 4 4 6 1 14 -8 17 -12 5 -13 9 -3 20 16 17 20 17 14 0z"/>
<path d="M6580 4767 c0 -6 -8 -19 -17 -30 -17 -19 -17 -20 5 -8 12 6 22 16 22
21 0 6 5 10 11 10 7 0 5 -10 -5 -25 -9 -14 -14 -30 -11 -35 3 -6 1 -10 -4 -10
-6 0 -11 5 -11 11 0 5 -5 7 -10 4 -16 -10 -1 -25 25 -25 19 0 22 4 18 21 -3
12 0 25 7 29 16 10 4 47 -15 47 -8 0 -15 -5 -15 -10z"/>
<path d="M5893 4315 c4 -39 2 -55 -6 -55 -7 0 -6 -4 3 -10 13 -9 13 -10 0 -11
-28 -1 23 -18 58 -18 27 -1 32 2 28 17 -3 9 -8 43 -12 75 l-6 57 -36 0 -35 0
6 -55z"/>
<path d="M6920 4300 c0 -5 5 -10 11 -10 5 0 7 5 4 10 -3 6 -8 10 -11 10 -2 0
-4 -4 -4 -10z"/>
<path d="M5930 4206 c0 -2 11 -6 25 -8 14 -3 25 -1 25 3 0 5 -11 9 -25 9 -14
0 -25 -2 -25 -4z"/>
<path d="M5981 4163 c-1 -6 -4 -20 -7 -30 -5 -17 -5 -17 6 0 6 10 9 23 6 30
-3 9 -5 9 -5 0z"/>
<path d="M6931 4066 c-9 -10 -8 -15 3 -19 9 -4 18 -1 22 5 5 7 2 8 -6 3 -10
-6 -12 -4 -7 8 8 21 3 22 -12 3z"/>
<path d="M6960 4036 c0 -2 8 -10 18 -17 15 -13 16 -12 3 4 -13 16 -21 21 -21
13z"/>
<path d="M6022 3870 c0 -19 2 -27 5 -17 2 9 2 25 0 35 -3 9 -5 1 -5 -18z"/>
<path d="M6032 3810 c0 -14 2 -19 5 -12 2 6 2 18 0 25 -3 6 -5 1 -5 -13z"/>
<path d="M5953 3783 c9 -2 25 -2 35 0 9 3 1 5 -18 5 -19 0 -27 -2 -17 -5z"/>
<path d="M5989 3761 c7 -5 10 -14 7 -20 -4 -6 -1 -11 6 -11 8 -1 6 -6 -6 -15
-20 -15 -20 -15 0 -15 18 -1 18 -1 1 -14 -16 -13 -16 -14 -1 -20 21 -8 23 -6
26 32 1 18 6 32 11 32 5 0 6 -13 2 -30 -5 -22 -3 -30 7 -30 10 0 12 11 10 43
-5 43 -21 65 -34 44 -6 -9 -8 -9 -8 1 0 6 -8 12 -17 12 -14 0 -15 -2 -4 -9z"/>
<path d="M5972 3483 l-73 -4 3 -84 c3 -78 1 -85 -17 -88 -45 -8 100 -19 161
-12 l66 7 -6 41 c-3 23 -8 66 -12 95 -6 45 -9 52 -28 50 -11 -1 -54 -4 -94 -5z"/>
</g>
</svg>
