<?xml version="1.0" encoding="utf-8"?>
<!-- Generator: Adobe Illustrator 19.1.0, SVG Export Plug-In . SVG Version: 6.00 Build 0)  -->
<svg version="1.0" id="Layer_1" xmlns="http://www.w3.org/2000/svg" xmlns:xlink="http://www.w3.org/1999/xlink" x="0px" y="0px"
	 viewBox="0 0 60 60" style="enable-background:new 0 0 60 60;" xml:space="preserve">
<style type="text/css">
	.st0{fill-rule:evenodd;clip-rule:evenodd;fill:#efefef;}
</style>
<g id="shape">
	<g>
		<path class="st0" d="M30,0C13.4,0,0,13.4,0,30c0,16.6,13.4,30,30,30c16.6,0,30-13.4,30-30C60,13.4,46.6,0,30,0z M41,32L26,49
			c0,0-1.7,1.3-3,0c-1.4-1.4,0-3,0-3l14-16L23,14c0,0-1.4-1.6,0-3c1.3-1.3,3,0,3,0l15,17c0,0,1,1,1,2C42,31,41,32,41,32z"/>
	</g>
</g>
</svg>
