<?xml version="1.0" encoding="utf-8"?>
<!-- Generator: Adobe Illustrator 21.0.2, SVG Export Plug-In . SVG Version: 6.00 Build 0)  -->
<svg version="1.0" id="Layer_1" xmlns="http://www.w3.org/2000/svg"  x="0px" y="0px"
	 width="26px" height="20px" viewBox="0 0 26 20" style="enable-background:new 0 0 26 20;" xml:space="preserve">
<style type="text/css">
	.st0{fill-rule:evenodd;clip-rule:evenodd;fill:#7F8D99;}
</style>
<g>
	<g>
		<path class="st0" d="M4.5,10c0,0-1.5,2-1.5,4s1.5,4,1.5,4l1-1c0,0-1-1-1-3s1-3,1-3L4.5,10z M3.5,9l-1-1c0,0-2.5,2.7-2.5,6
			c0,3.3,2.5,6,2.5,6l1-1c0,0-2-2-2-5C1.5,11,3.5,9,3.5,9z M12.5,18c2,0,2-2,2-2h-4C10.5,16,10.5,18,12.5,18z M18,11V7
			c0-1.6-0.6-4-2-4c-0.5,0-1,0-1,0V2c0,0,0-2-2-2s-2,2-2,2v1c0,0-0.4,0-1,0C8.5,3,8,5.5,8,7v4c0,1,0,2-1,2c-0.5,0-1,0-1,0v2h14v-2
			c0,0-0.6,0-1,0C18.2,13,18,12,18,11z M13.9,3h-2c0,0-0.2-1.7,1-1.7C14.3,1.3,13.9,3,13.9,3z M21.5,10l-1,1c0,0,1,1,1,3s-1,3-1,3
			l1,1c0,0,1.5-2,1.5-4S21.5,10,21.5,10z M23.5,8l-1,1c0,0,2,2,2,5c0,3-2,5-2,5l1,1c0,0,2.5-2.7,2.5-6C26,10.7,23.5,8,23.5,8z"/>
	</g>
</g>
</svg>
