<?xml version="1.0" encoding="utf-8"?>
<!-- Generator: Adobe Illustrator 19.1.0, SVG Export Plug-In . SVG Version: 6.00 Build 0)  -->
<svg version="1.0" id="Layer_1" xmlns="http://www.w3.org/2000/svg" xmlns:xlink="http://www.w3.org/1999/xlink" x="0px" y="0px"
	 viewBox="0 0 17 10" style="enable-background:new 0 0 17 10;" xml:space="preserve">
<style type="text/css">
	.st0{fill-rule:evenodd;clip-rule:evenodd;fill:#FFFFFF;}
</style>
<g>
	<g>
		<path class="st0" d="M8.5,2c-1.5,0-3,1.5-3,3c0,1.4,1.4,3,3,3c1.7,0,3-1.5,3-3C11.6,3.3,10,2,8.5,2z M9.5,5L8.7,3.7L9.5,3l1,2H9.5
			z M8.5,0C2.4,0,0,5,0,5s2.4,5,8.5,5c6.1,0,8.5-5,8.5-5S14.6,0,8.5,0z M8.5,8.7c-4,0-6.7-3.6-6.7-3.6s1.8-3.7,6.7-3.7
			c4.9,0,6.7,3.7,6.7,3.7S12.5,8.7,8.5,8.7z"/>
	</g>
</g>
</svg>
