<?xml version="1.0" encoding="utf-8"?>
<!-- Generator: Adobe Illustrator 19.2.1, SVG Export Plug-In . SVG Version: 6.00 Build 0)  -->
<svg version="1.0" xmlns="http://www.w3.org/2000/svg" xmlns:xlink="http://www.w3.org/1999/xlink" x="0px" y="0px"
	 viewBox="0 0 22 22" style="enable-background:new 0 0 22 22;" xml:space="preserve">
<style type="text/css">
	.st0{fill-rule:evenodd;clip-rule:evenodd;fill:#0757A8;}
	.st1{display:none;}
	.st2{display:inline;}
</style>
<g id="Layer_1">
	<g>
		<path class="st0" d="M11,0C4.9,0,0,4.9,0,11s4.9,11,11,11s11-4.9,11-11S17.1,0,11,0z M18.6,6.2C18.6,6.2,18.6,6.2,18.6,6.2
			C18.6,6.2,18.6,6.2,18.6,6.2C18.6,6.2,18.6,6.2,18.6,6.2z M2,11.5c1,0.5,2.1,0.9,3.1,1.4c-0.1,0.2-0.2,0.4-0.3,0.6
			c0.2,1.7,0.9,3.4,1.3,5.1C3.8,17.1,2.2,14.5,2,11.5z M18.7,15.6c-0.8-0.2-1.6-0.4-2.4-0.6c-0.7,0.8-1.3,1.5-2,2.3
			c0.9,0.2,1.7,0.3,2.6,0.5C15.3,19.2,13.3,20,11,20c-1.1,0-2.1-0.2-3.1-0.6C8.5,17.6,9,15.8,9.6,14c-1.3-0.4-2.9-2.3-4.2-2.6
			c0,0-0.1,0.1-0.2,0.3c-0.1-0.2-0.2-0.3-0.3-0.5c0.4-1.3,0.8-2.6,1.2-3.9C5.6,6.8,5,6.3,4.4,5.9c0-0.2,0-0.3,0-0.5
			c-0.1,0-0.2-0.1-0.3-0.1C5.7,3.3,8.2,2,11,2c2,0,3.9,0.7,5.4,1.8c-0.3,0.5-0.9,1.2-2.1,1c-1.2-0.2-2.2-1.1-3.2-0.9
			C9,4.4,8.2,6.8,8.2,7.3c1.1,1.5,2.2,2.9,3.3,4.4c-0.4,0.2-0.8,0.3-1.1,0.5c-0.1,0.2-0.2,0.5-0.2,0.7c0.4,0.6,1.4,1.1,1.8,1.9
			c0.5,0.9-0.6,2.4,0.9,2.9c1.5-1,2.7-4.5,3.3-5.9c-0.4-0.4-2.2,0-2.6-0.4c1.6-0.9,2.8-0.6,4.3-1.5c0.2,0.1,0.9-1,1.1-0.9
			c-0.1,0.3-0.3,1.4-0.4,1.8c0.1,0,0.8,0.1,1,0.1c0.1-0.1,0.2-0.2,0.4-0.4c0,0.2,0,0.5,0,0.7C20,12.7,19.5,14.3,18.7,15.6z"/>
		<path class="st0" d="M8.3,4c-0.5-0.1-1-0.3-1.5-0.4c0,0-0.1,0-0.1,0C6.6,3.7,6.4,3.8,6.3,3.9c0.3,0.1-0.4,1.6,0,1.7
			c0.4,0.1,1.8-1.2,2.2-1.1C8.4,4.3,8.3,4.2,8.3,4z"/>
	</g>
</g>
<g id="Layer_2" class="st1">
	<g class="st2">
		<path class="st0" d="M19.4,7.2c0.1-0.1,0.3-0.2,0.4-0.4c0,0,0-0.1,0-0.1c-0.4-0.2-0.8-0.3-1.2-0.5c0.2-0.5,0.4-1,0.6-1.5
			c-0.2-0.1-0.4-0.4-0.5-0.5l-1.7-1.1c-0.3-0.1-0.6,2-2.6,1.7c-1.2-0.2-2.2-1.1-3.2-0.9C9,4.4,8.2,6.8,8.2,7.3
			c1.1,1.5,2.2,2.9,3.3,4.4c-0.4,0.2-0.8,0.3-1.1,0.5c-0.1,0.2-0.2,0.5-0.2,0.7c0.4,0.6,1.4,1.1,1.8,1.9c0.5,0.9-0.6,2.4,0.9,2.9
			c1.5-1,2.7-4.5,3.3-5.9c-0.4-0.4-2.2,0-2.6-0.4c1.6-0.9,2.8-0.6,4.3-1.5c0.2,0.1,0.9-1,1.1-0.9c-0.1,0.3-0.3,1.4-0.4,1.8
			c0.1,0,0.8,0.1,1,0.1c0.2-0.2,0.8-0.9,1-1.1C20.4,8.9,19.5,7.9,19.4,7.2z"/>
		<path class="st0" d="M6.3,5.6c0.4,0.1,1.8-1.2,2.2-1.1C8.4,4.3,8.3,4.2,8.3,4c-0.5-0.1-1-0.3-1.5-0.4c0,0-0.1,0-0.1,0
			C6.6,3.7,6.4,3.8,6.3,3.9C6.6,4,5.9,5.5,6.3,5.6z"/>
		<path class="st0" d="M5.2,11.7c-0.1-0.2-0.2-0.3-0.3-0.5c0.4-1.3,0.8-2.6,1.2-3.9C5.6,6.8,5,6.3,4.4,5.9c0-0.2,0-0.3,0-0.5
			C3.9,5.2,3.5,5.1,3.1,4.9c0,0-0.5,0.5-0.7,0.7C1.7,7.5,1.5,9.1,0.8,11c1.5,0.6,2.9,1.3,4.4,1.9c-0.1,0.2-0.2,0.4-0.3,0.6
			c0.3,2.1,1.3,4.3,1.6,6.4c0.4,0.2,0.8,0.3,1.2,0.5c0.7-2.1,1.3-4.2,2-6.4c-1.3-0.4-2.9-2.3-4.2-2.6C5.4,11.4,5.3,11.5,5.2,11.7z"
			/>
		<path class="st0" d="M19,16c-0.1-0.1-0.2-0.2-0.3-0.4c-0.8-0.2-1.6-0.4-2.4-0.6c-0.7,0.8-1.3,1.5-2,2.3c1.5,0.3,3,0.6,4.5,0.9
			c0.2-0.5,0.5-1,0.7-1.5c0-0.1-0.1-0.2-0.1-0.2L19,16z"/>
	</g>
</g>
</svg>
