<svg id="Layer_1" data-name="Layer 1" xmlns="http://www.w3.org/2000/svg" viewBox="0 0 453.42 483.58"><defs><style>.cls-1{fill:#0068b3;}.cls-2{fill:#8fbf21;}</style></defs><path class="cls-1" d="M2097,2018.83v49.76c59.63,30.93,100.49,93.21,100.49,164.89,0,102.38-83.3,185.66-185.67,185.66-73.42,0-137-42.84-167.12-104.84L1921,2266l121.54,36.87,99.51-77.71,17.16,21.84,13.76-75.29-76.1-4.05,17.17,21.85-80.86,63.14-118.9-36.06-84.44,53.51-40.4,25.59a228.18,228.18,0,0,0,16.87,43c38.33,74.62,116,125.82,205.55,125.82,127.37,0,231-103.63,231-231C2242.83,2136.19,2182.33,2052.81,2097,2018.83Z" transform="translate(-1789.41 -1980.89)"/><polygon class="cls-2" points="125.69 216.69 180.07 232.3 180.07 69.73 98.44 69.73 98.44 230.6 122.11 215.6 125.69 216.69"/><polygon class="cls-2" points="289.24 212.85 289.24 0 201.42 0 201.42 239.66 239.94 251.35 289.24 212.85"/><polygon class="cls-2" points="77.08 134.93 0 134.93 0 292.98 77.08 244.13 77.08 134.93"/></svg>