<?xml version="1.0" encoding="UTF-8" standalone="no"?>
<svg width="255px" height="55px" viewBox="0 0 255 55" version="1.1" xmlns="http://www.w3.org/2000/svg" xmlns:xlink="http://www.w3.org/1999/xlink" xmlns:sketch="http://www.bohemiancoding.com/sketch/ns">
    <!-- Generator: sketchtool 3.4 (375) - http://www.bohemiancoding.com/sketch -->
    <title>Netology</title>
    <desc>Created with sketchtool.</desc>
    <defs></defs>
    <g id="Design-2" stroke="none" stroke-width="1" fill="none" fill-rule="evenodd" sketch:type="MSPage">
        <g id="Main" sketch:type="MSArtboardGroup" transform="translate(-51.000000, -40.000000)" fill="#FFFFFF">
            <g id="Netology-+-Netology" sketch:type="MSLayerGroup" transform="translate(51.000000, 40.000000)">
                <g id="Netology" sketch:type="MSShapeGroup">
                    <g id="Слой_1">
                        <g id="Group">
                            <g id="Shape">
                                <g>
                                    <path d="M21.2407407,6.25925926 C21.2407407,2.81481481 24.0555556,0.0555555556 27.5,0.0555555556 C30.9444444,0.0555555556 33.7037037,2.87037037 33.7037037,6.31481481 C33.7037037,9.07407407 31.8888889,11.4259259 29.3703704,12.2407407 L29.3703704,27.3703704 C29.3703704,27.4259259 29.2777778,27.462963 29.1851852,27.462963 L25.7407407,27.462963 C25.6481481,27.462963 25.5555556,27.4074074 25.5555556,27.3703704 L25.5555556,12.2222222 C23.0185185,11.4074074 21.2037037,9.07407407 21.2407407,6.25925926 L21.2407407,6.25925926 Z"></path>
                                    <path d="M8.07407407,16.8888889 C5.64814815,14.462963 5.64814815,10.5 8.07407407,8.11111111 C10.5,5.68518519 14.462963,5.68518519 16.9074074,8.11111111 C18.8703704,10.0740741 19.2407407,13.0185185 18.0555556,15.3703704 L28.7407407,26.0555556 C28.7962963,26.1111111 28.7407407,26.2037037 28.6851852,26.2407407 L26.2592593,28.6666667 C26.1666667,28.7592593 26.1111111,28.7592593 26.0740741,28.7222222 L15.3333333,18.037037 C12.9814815,19.2407407 10.037037,18.8518519 8.07407407,16.8888889 L8.07407407,16.8888889 Z"></path>
                                    <path d="M6.25925926,33.7037037 C2.81481481,33.7037037 0.0555555556,30.8888889 0.0555555556,27.4444444 C0.0555555556,24 2.87037037,21.2407407 6.31481481,21.2407407 C9.07407407,21.2407407 11.4259259,23.0555556 12.2407407,25.5740741 L27.3703704,25.5740741 C27.4259259,25.5740741 27.462963,25.6666667 27.462963,25.7592593 L27.462963,29.2037037 C27.462963,29.2962963 27.4074074,29.3888889 27.3703704,29.3888889 L12.2222222,29.3888889 C11.4074074,31.8888889 9.03703704,33.7037037 6.25925926,33.7037037 L6.25925926,33.7037037 Z"></path>
                                    <path d="M16.8518519,46.8148148 C14.4259259,49.2407407 10.462963,49.2407407 8.07407407,46.8148148 C5.64814815,44.3888889 5.64814815,40.4259259 8.07407407,38.037037 C10.037037,36.0740741 12.9814815,35.7037037 15.3333333,36.8888889 L26.0185185,26.1481481 C26.0740741,26.0925926 26.1666667,26.1481481 26.2037037,26.2037037 L28.6296296,28.6296296 C28.7222222,28.7222222 28.7222222,28.8148148 28.6851852,28.8148148 L18,39.5 C19.2407407,41.9074074 18.8518519,44.8703704 16.8518519,46.8148148 L16.8518519,46.8148148 Z"></path>
                                    <path d="M33.6481481,48.6296296 C33.6481481,52.0740741 30.8333333,54.8333333 27.3888889,54.8333333 C23.9444444,54.8333333 21.1851852,52.0185185 21.1851852,48.5740741 C21.1851852,45.8148148 23,43.462963 25.5185185,42.6481481 L25.5185185,27.5185185 C25.5185185,27.462963 25.6111111,27.4259259 25.7037037,27.4259259 L29.1481481,27.4259259 C29.2407407,27.4259259 29.3333333,27.4814815 29.3333333,27.5185185 L29.3333333,42.6481481 C31.8333333,43.4814815 33.7037037,45.8703704 33.6481481,48.6296296 L33.6481481,48.6296296 Z"></path>
                                    <path d="M46.8333333,38.037037 C49.2592593,40.462963 49.2592593,44.4259259 46.8333333,46.8148148 C44.4074074,49.2407407 40.4444444,49.2407407 38.0555556,46.8148148 C36.0925926,44.8518519 35.7222222,41.9074074 36.9074074,39.5555556 L26.1666667,28.8703704 C26.1111111,28.8148148 26.1666667,28.7222222 26.2222222,28.6851852 L28.6481481,26.2592593 C28.7407407,26.1666667 28.7962963,26.1666667 28.8333333,26.2037037 L39.5185185,36.8888889 C41.9074074,35.6481481 44.8703704,36.0740741 46.8333333,38.037037 L46.8333333,38.037037 Z"></path>
                                    <path d="M48.6296296,21.2407407 C52.0740741,21.2407407 54.8333333,24.0555556 54.8333333,27.5 C54.8333333,30.9444444 52.0185185,33.7037037 48.5925926,33.7037037 C45.8333333,33.7037037 43.4814815,31.8888889 42.6666667,29.3703704 L27.537037,29.3703704 C27.4814815,29.3703704 27.4444444,29.2777778 27.4444444,29.1851852 L27.4444444,25.7407407 C27.4444444,25.6481481 27.5,25.5555556 27.537037,25.5555556 L42.6666667,25.5555556 C43.4814815,23.0555556 45.8703704,21.2407407 48.6296296,21.2407407 L48.6296296,21.2407407 Z"></path>
                                    <path d="M38.037037,8.07407407 C40.462963,5.64814815 44.4259259,5.64814815 46.8148148,8.07407407 C49.2407407,10.5 49.2407407,14.462963 46.8148148,16.8518519 C44.8518519,18.8148148 41.9074074,19.1851852 39.5555556,18 L28.8703704,28.7407407 C28.8148148,28.7962963 28.7222222,28.7407407 28.6851852,28.6851852 L26.2592593,26.2592593 C26.1666667,26.1666667 26.1666667,26.1111111 26.2037037,26.0740741 L36.8888889,15.3888889 C35.6666667,12.9814815 36.037037,10.0185185 38.037037,8.07407407 L38.037037,8.07407407 Z"></path>
                                </g>
                                <path d="M21.1111111,27.4444444 C21.1111111,23.7222222 24.1111111,20.7222222 27.8333333,20.7592593 C31.5555556,20.7592593 34.5555556,23.7592593 34.5555556,27.4814815 C34.5555556,31.2037037 31.5555556,34.2037037 27.8333333,34.1666667 C24.0555556,34.1666667 21.0555556,31.1666667 21.1111111,27.4444444 L21.1111111,27.4444444 Z"></path>
                            </g>
                            <path d="M121.166667,36.6481481 L121.166667,33.9814815 L123.259259,33.9814815 L123.259259,21.4814815 L119.203704,21.4814815 L119.203704,23.2037037 L116.203704,23.2037037 L116.203704,18.4814815 L116.203704,18.4814815 L134.333333,18.4814815 L134.333333,23.2037037 L131.333333,23.2037037 L131.333333,21.4814815 L127.222222,21.4814815 L127.222222,33.9444444 L129.314815,33.9444444 L129.314815,36.6111111 L121.148148,36.6111111 L121.148148,36.6481481 L121.166667,36.6481481 Z" id="Shape"></path>
                            <path d="M198.518519,36.6481481 L198.518519,33.9814815 L200.240741,33.9814815 L200.240741,21.4259259 L198.518519,21.4259259 L198.518519,18.462963 L212.592593,18.462963 L212.592593,23.1481481 L209.592593,23.1481481 L209.592593,21.4259259 L204.203704,21.4259259 L204.203704,33.9259259 L205.925926,33.9259259 L205.925926,36.5925926 L198.518519,36.5925926 L198.518519,36.6481481 L198.518519,36.6481481 Z" id="Shape"></path>
                            <path d="M248.444444,36.6481481 L248.444444,30.1111111 L244.666667,30.1111111 L242.12963,35.0740741 L240.944444,36.5925926 L237.166667,36.5925926 L237.166667,33.9259259 L238.833333,33.9259259 L241.222222,29.3888889 C238.5,28.4259259 237.351852,26.6666667 237.351852,24.2407407 C237.351852,20.7592593 239.685185,18.462963 244.981481,18.462963 L254.092593,18.462963 L254.092593,21.4259259 L252.37037,21.4259259 L252.37037,33.9259259 L254.092593,33.9259259 L254.092593,36.5925926 L248.407407,36.5925926 L248.407407,36.6481481 L248.444444,36.6481481 Z M244.814815,27.537037 L248.388889,27.537037 L248.388889,21.4259259 L245.333333,21.4259259 C242.425926,21.4259259 241.12963,22.5185185 241.12963,24.2962963 C241.148148,26.4814815 242.574074,27.537037 244.814815,27.537037 L244.814815,27.537037 Z" id="Shape"></path>
                            <path d="M186.685185,17.8518519 C192.166667,17.8518519 196.611111,21.9074074 196.611111,27.4444444 C196.611111,33.0185185 192.166667,37.1296296 186.685185,37.1296296 C181.203704,37.1296296 176.759259,33.0740741 176.759259,27.4444444 C176.759259,21.8518519 181.203704,17.8518519 186.685185,17.8518519 L186.685185,17.8518519 Z M186.685185,34.037037 C190.12963,34.037037 192.981481,31.2777778 192.981481,27.4074074 C192.981481,23.5925926 190.111111,20.8703704 186.685185,20.8703704 C183.203704,20.8703704 180.333333,23.5925926 180.333333,27.4074074 C180.351852,31.2592593 183.203704,34.037037 186.685185,34.037037 L186.685185,34.037037 Z" id="Shape"></path>
                            <path d="M145.277778,17.8518519 C150.759259,17.8518519 155.203704,21.9074074 155.203704,27.4444444 C155.203704,33.0185185 150.759259,37.1296296 145.277778,37.1296296 C139.796296,37.1296296 135.351852,33.0740741 135.351852,27.4444444 C135.388889,21.8518519 139.833333,17.8518519 145.277778,17.8518519 L145.277778,17.8518519 Z M145.277778,34.037037 C148.722222,34.037037 151.62963,31.2777778 151.62963,27.4074074 C151.62963,23.5925926 148.759259,20.8703704 145.277778,20.8703704 C141.796296,20.8703704 138.981481,23.5925926 138.981481,27.4074074 C138.981481,31.2592593 141.796296,34.037037 145.277778,34.037037 L145.277778,34.037037 Z" id="Shape"></path>
                            <path d="M173.185185,33.9259259 L173.185185,18.462963 L159.148148,18.462963 L159.148148,21.4259259 L160.814815,21.4259259 C160.425926,30.2592593 160.055556,33.5555556 155.796296,33.5555556 L155.796296,36.7037037 L156.703704,36.7037037 C162.055556,36.7037037 163.907407,32.6481481 164.240741,21.4259259 L169.148148,21.4259259 L169.148148,33.8888889 L167.425926,33.8888889 L167.425926,36.5555556 L174.87037,36.5555556 L174.87037,33.8888889 L173.148148,33.8888889 L173.148148,33.9259259 L173.185185,33.9259259 Z" id="Shape"></path>
                            <path d="M110.296296,31.6481481 C109.148148,33.1296296 107.333333,34.037037 105.388889,34.037037 C102.333333,34.037037 99.7592593,31.8888889 99.1851852,28.7962963 L115.074074,28.7962963 C115.833333,23.2222222 111.981481,17.8148148 105.388889,17.8148148 C99.9074074,17.8148148 95.5555556,21.8703704 95.5555556,27.4074074 C95.5555556,32.9814815 99.8888889,37.0925926 105.388889,37.0925926 C109.351852,37.0925926 112.740741,34.9444444 114.351852,31.6481481 L110.296296,31.6481481 L110.296296,31.6481481 L110.296296,31.6481481 Z M105.425926,20.8518519 C108.388889,20.8518519 110.962963,22.8518519 111.574074,25.8703704 L99.2592593,25.8703704 C99.8888889,22.9074074 102.425926,20.8518519 105.425926,20.8518519 L105.425926,20.8518519 Z" id="Shape"></path>
                            <path d="M85.4814815,18.4814815 L85.4814815,18.4814815 L85.4259259,18.4814815 L85.4259259,21.1481481 L87.1481481,21.1481481 L87.1481481,25.8703704 L78.7037037,25.8703704 L78.7037037,18.4814815 L73.0185185,18.4814815 L73.0185185,18.4814815 L73.0185185,20.7222222 L73.0185185,21.1481481 L74.7407407,21.1481481 L74.7407407,33.9259259 L73.0185185,33.9259259 L73.0185185,36.6481481 L80.4259259,36.6481481 L80.4259259,33.9259259 L78.7037037,33.9259259 L78.7037037,28.7407407 L87.1481481,28.7407407 L87.1481481,36.6481481 L92.8703704,36.6481481 L92.8703704,33.9259259 L92.8703704,33.9259259 L91.1111111,33.9259259 L91.1111111,21.1481481 L92.8703704,21.1481481 L92.8703704,20.7222222 L92.8703704,18.4814815 L92.8703704,18.4814815 L85.4814815,18.4814815 Z" id="Shape"></path>
                            <path d="M232.796296,33.9259259 L232.796296,18.4814815 L229.166667,18.4814815 L219.851852,30.6851852 L219.851852,21.1481481 L221.574074,21.1481481 L221.574074,18.4814815 L214.185185,18.4814815 L214.185185,18.4814815 L214.185185,21.1481481 L215.888889,21.1481481 L215.888889,36.6481481 L218.814815,36.6481481 L218.814815,36.5555556 L228.833333,23.537037 L228.833333,33.9259259 L227.166667,33.9259259 L227.166667,36.6111111 L234.555556,36.6481481 L234.555556,36.6111111 L234.555556,33.9259259 L234.555556,33.9259259 L232.796296,33.9259259 Z" id="Shape"></path>
                        </g>
                    </g>
                </g>
            </g>
        </g>
    </g>
</svg>