<?xml version="1.0" encoding="UTF-8" standalone="no"?>
<svg width="30px" height="30px" viewBox="0 0 30 30" version="1.1" xmlns="http://www.w3.org/2000/svg" xmlns:xlink="http://www.w3.org/1999/xlink" xmlns:sketch="http://www.bohemiancoding.com/sketch/ns">
    <!-- Generator: sketchtool 3.4 (375) - http://www.bohemiancoding.com/sketch -->
    <title>Calendar</title>
    <desc>Created with sketchtool.</desc>
    <defs></defs>
    <g id="Design-2" stroke="none" stroke-width="1" fill="none" fill-rule="evenodd" sketch:type="MSPage">
        <g id="Main" sketch:type="MSArtboardGroup" transform="translate(-668.000000, -373.000000)" fill="#ffffff">
            <g id="calendar-icons-+-Time" sketch:type="MSLayerGroup" transform="translate(668.000000, 373.000000)">
                <g id="calendar-icons" transform="translate(5.000000, 5.000000)" sketch:type="MSShapeGroup">
                    <g id="calendar_1_" transform="translate(0.175189, 0.146780)">
                        <path d="M17.7781818,1.81818182 L15.1515152,1.81818182 L15.1515152,0.606060606 C15.1515152,0.270909091 14.8806061,-2.75640621e-13 14.5454545,-2.75640621e-13 C14.210303,-2.75640621e-13 13.9393939,0.270909091 13.9393939,0.606060606 L13.9393939,1.81818182 L10.3030303,1.81818182 L10.3030303,0.606060606 C10.3030303,0.270909091 10.0315152,-2.75640621e-13 9.6969697,-2.75640621e-13 C9.36242424,-2.75640621e-13 9.09090909,0.270909091 9.09090909,0.606060606 L9.09090909,1.81818182 L5.45454545,1.81818182 L5.45454545,0.606060606 C5.45454545,0.270909091 5.1830303,-2.75640621e-13 4.84848485,-2.75640621e-13 C4.51393939,-2.75640621e-13 4.24242424,0.270909091 4.24242424,0.606060606 L4.24242424,1.81818182 L1.61636364,1.81818182 C0.723636364,1.81818182 -1.72084569e-14,2.54121212 -1.72084569e-14,3.43393939 L-1.72084569e-14,17.7775758 C-1.72084569e-14,18.670303 0.723636364,19.3939394 1.61636364,19.3939394 L17.7781818,19.3939394 C18.6709091,19.3939394 19.3939394,18.670303 19.3939394,17.7775758 L19.3939394,3.43393939 C19.3939394,2.54121212 18.6709091,1.81818182 17.7781818,1.81818182 L17.7781818,1.81818182 Z M18.1818182,17.7775758 C18.1818182,18.0006061 18.0006061,18.1818182 17.7781818,18.1818182 L1.61636364,18.1818182 C1.39333333,18.1818182 1.21212121,18.0006061 1.21212121,17.7775758 L1.21212121,3.43393939 C1.21212121,3.21151515 1.39333333,3.03030303 1.61636364,3.03030303 L4.24242424,3.03030303 L4.24242424,4.24242424 C4.24242424,4.57757576 4.51393939,4.84848485 4.84848485,4.84848485 C5.1830303,4.84848485 5.45454545,4.57757576 5.45454545,4.24242424 L5.45454545,3.03030303 L9.09090909,3.03030303 L9.09090909,4.24242424 C9.09090909,4.57757576 9.36242424,4.84848485 9.6969697,4.84848485 C10.0315152,4.84848485 10.3030303,4.57757576 10.3030303,4.24242424 L10.3030303,3.03030303 L13.9393939,3.03030303 L13.9393939,4.24242424 C13.9393939,4.57757576 14.210303,4.84848485 14.5454545,4.84848485 C14.8806061,4.84848485 15.1515152,4.57757576 15.1515152,4.24242424 L15.1515152,3.03030303 L17.7781818,3.03030303 C18.0006061,3.03030303 18.1818182,3.21151515 18.1818182,3.43393939 L18.1818182,17.7775758 L18.1818182,17.7775758 Z" id="Shape"></path>
                        <rect id="Rectangle-path" x="4.24242424" y="7.27272727" width="2.42424242" height="1.81818182"></rect>
                        <rect id="Rectangle-path" x="4.24242424" y="10.3030303" width="2.42424242" height="1.81818182"></rect>
                        <rect id="Rectangle-path" x="4.24242424" y="13.3333333" width="2.42424242" height="1.81818182"></rect>
                        <rect id="Rectangle-path" x="8.48484848" y="13.3333333" width="2.42424242" height="1.81818182"></rect>
                        <rect id="Rectangle-path" x="8.48484848" y="10.3030303" width="2.42424242" height="1.81818182"></rect>
                        <rect id="Rectangle-path" x="8.48484848" y="7.27272727" width="2.42424242" height="1.81818182"></rect>
                        <rect id="Rectangle-path" x="12.7272727" y="13.3333333" width="2.42424242" height="1.81818182"></rect>
                        <rect id="Rectangle-path" x="12.7272727" y="10.3030303" width="2.42424242" height="1.81818182"></rect>
                        <rect id="Rectangle-path" x="12.7272727" y="7.27272727" width="2.42424242" height="1.81818182"></rect>
                    </g>
                </g>
            </g>
        </g>
    </g>
</svg>