<?xml version="1.0" encoding="UTF-8" standalone="no"?>
<svg width="270px" height="270px" viewBox="0 0 270 270" version="1.1" xmlns="http://www.w3.org/2000/svg" xmlns:xlink="http://www.w3.org/1999/xlink" xmlns:sketch="http://www.bohemiancoding.com/sketch/ns">
    <!-- Generator: sketchtool 3.4 (375) - http://www.bohemiancoding.com/sketch -->
    <title>Sent</title>
    <desc>Created with sketchtool.</desc>
    <defs></defs>
    <g id="Design-2" stroke="none" stroke-width="1" fill="none" fill-rule="evenodd" sketch:type="MSPage">
        <g id="Artboard-2" sketch:type="MSArtboardGroup" transform="translate(-723.000000, -543.000000)" stroke="#E0CF4D" stroke-width="2">
            <g id="Group" sketch:type="MSLayerGroup" transform="translate(595.000000, 463.000000)">
                <g id="Oval-44-+-Rectangle-43-+-Rectangle-44-+-Rectangle-44-+-Path-238-+-Path-238-+-Path-238" transform="translate(128.000000, 80.000000)" sketch:type="MSShapeGroup">
                    <circle id="Oval-44" cx="135" cy="135" r="109"></circle>
                    <g id="Rectangle-43-+-Rectangle-44-+-Rectangle-44" transform="translate(179.104811, 122.450824) rotate(-20.000000) translate(-179.104811, -122.450824) translate(105.104811, 78.950824)">
                        <rect id="Rectangle-43" fill="#FFFFFF" x="-2.27373675e-13" y="0.154639175" width="147.154639" height="86.8453608"></rect>
                        <path d="M129.868851,26.6907216 L73.5773196,54.5507363 L17.285788,26.6907216" id="Rectangle-44"></path>
                        <path d="M17.285788,62.8762887 L55.0610557,44.1804124 M92.0935835,44.1804124 L92.0935835,44.1804124 L129.868851,62.8762887" id="Rectangle-44"></path>
                    </g>
                    <g id="Path-238-+-Path-238-+-Path-238" transform="translate(71.746158, 166.724748) scale(-1, 1) rotate(-340.000000) translate(-71.746158, -166.724748) translate(44.246158, 145.724748)">
                        <path d="M0.55859375,1 L22.8885937,1" id="Path-238"></path>
                        <path d="M10.5585938,21 L54.8885956,21" id="Path-238"></path>
                        <path d="M0.55859375,41 L13.8885937,41" id="Path-238"></path>
                    </g>
                </g>
            </g>
        </g>
    </g>
</svg>