<svg width="196" height="36" fill="none" xmlns="http://www.w3.org/2000/svg"><path d="M21.404 3.167H3.871a4.391 4.391 0 01-1.458-.221 3.929 3.929 0 01-1.248-.679 3.28 3.28 0 01-.847-1.033A2.83 2.83 0 010 .003h25.276a2.83 2.83 0 01-.318 1.23c-.2.39-.488.74-.848 1.034-.36.294-.783.525-1.247.679a4.37 4.37 0 01-1.459.22zM10.238 27.948V11.29c0-2.57 1.728-5.031 4.8-6.85v23.508h-4.8zM55.914.003c0 1.48-1.734 2.684-3.84 2.684h-19.28v22.54h19.197c2.17 0 3.923 1.219 3.923 2.722H28.872V.003h27.042zm-3.98 13.564h-8.037c-3.492.015-6.863-1.092-9.439-3.098h17.476v3.098zm23.478 11.485a11.226 11.226 0 003.756-.621 9.33 9.33 0 002.962-1.634l.327-.305a7.218 7.218 0 012.453-1.534 8.254 8.254 0 012.98-.53h.07a7.748 7.748 0 01-1.486 3.06 9.271 9.271 0 01-2.763 2.332c-2.428 1.464-5.343 2.227-8.319 2.178H63.1l-4.166-2.946h16.478zM69.428 3.008a8.835 8.835 0 00-2.725.403 6.62 6.62 0 00-2.17 1.139c-1.389 1.076-3.208 1.66-5.087 1.633h-.512c.508-1.826 1.82-3.417 3.667-4.443C64.605.563 66.994-.045 69.429.003h14.397l4.16 3.005H69.427zm13.579 9.971c2.751 1.39 4.402 3.258 4.953 5.604h-4.307c-.296-.878-.854-1.675-1.619-2.315a8.846 8.846 0 00-2.982-1.634 11.882 11.882 0 00-3.775-.593h-5.759c-2.554.036-5.057-.607-7.16-1.84-1.727-.967-2.952-2.46-3.424-4.172h4.307c.465.956 1.297 1.749 2.36 2.25a8.584 8.584 0 003.898.86h5.759c2.739-.046 5.434.594 7.749 1.84zM95.344.003V16.04c0 2.445-1.632 4.786-4.524 6.534V.003h4.524zm22.524 27.946H90.814c-.03-.9.362-1.771 1.088-2.425.726-.653 1.727-1.035 2.783-1.06h23.177l.006 3.485zM136.816.003a8.225 8.225 0 011.07 4.027 8.227 8.227 0 01-1.07 4.027l-10.879 19.892h-4.357L136.816.003zm4.722 11.272l9.022 16.674h-4.568l-3.353-6.164h-11.397c.96-1.727 3.353-2.865 6.028-2.865h3.782l-4.083-7.623 4.569-.022z" fill="#E52529"/><g filter="url(#filter0_d_427_5112)"><path d="M162.533.003h5.228l24.226 27.946h-5.138L162.533.003zm.064 27.946l11.198-12.895c.789.843 1.223 1.887 1.233 2.965.011 1.078-.403 2.127-1.175 2.981l-6.028 6.949h-5.228zM192 .003l-10.808 12.464c-.75-.832-1.156-1.85-1.156-2.9 0-1.048.406-2.067 1.156-2.9l5.83-6.664H192z" fill="#ECECEC"/></g><defs><filter id="filter0_d_427_5112" x="158.533" y=".003" width="37.467" height="35.946" filterUnits="userSpaceOnUse" color-interpolation-filters="sRGB"><feFlood flood-opacity="0" result="BackgroundImageFix"/><feColorMatrix in="SourceAlpha" values="0 0 0 0 0 0 0 0 0 0 0 0 0 0 0 0 0 0 127 0" result="hardAlpha"/><feOffset dy="4"/><feGaussianBlur stdDeviation="2"/><feComposite in2="hardAlpha" operator="out"/><feColorMatrix values="0 0 0 0 0 0 0 0 0 0 0 0 0 0 0 0 0 0 0.25 0"/><feBlend in2="BackgroundImageFix" result="effect1_dropShadow_427_5112"/><feBlend in="SourceGraphic" in2="effect1_dropShadow_427_5112" result="shape"/></filter></defs></svg>