<svg xmlns="http://www.w3.org/2000/svg" xmlns:xlink="http://www.w3.org/1999/xlink"><defs>
<filter id="filter0_d_427_5112" x="158.533" y="0.00268555" width="37.467" height="35.946" filterUnits="userSpaceOnUse" color-interpolation-filters="sRGB">
<feFlood flood-opacity="0" result="BackgroundImageFix"/>
<feColorMatrix in="SourceAlpha" type="matrix" values="0 0 0 0 0 0 0 0 0 0 0 0 0 0 0 0 0 0 127 0" result="hardAlpha"/>
<feOffset dy="4"/>
<feGaussianBlur stdDeviation="2"/>
<feComposite in2="hardAlpha" operator="out"/>
<feColorMatrix type="matrix" values="0 0 0 0 0 0 0 0 0 0 0 0 0 0 0 0 0 0 0.25 0"/>
<feBlend mode="normal" in2="BackgroundImageFix" result="effect1_dropShadow_427_5112"/>
<feBlend mode="normal" in="SourceGraphic" in2="effect1_dropShadow_427_5112" result="shape"/>
</filter>

<clipPath id="clip0_337_1746">
<rect width="137" height="137" fill="white"/>
</clipPath>
</defs><symbol id="1000" viewBox="0 0 75 17">
<path d="M2.13 8.00357H5.72C5.72 7.74357 5.72 7.54357 5.72 7.41357H11.84V5.52357H6.29C6.69177 4.76196 7.30228 4.13063 8.05 3.70357C8.83831 3.24154 9.73627 2.99978 10.65 3.00357C11.3913 2.99646 12.1249 3.15428 12.7977 3.46559C13.4704 3.77691 14.0656 4.23393 14.54 4.80357L16.81 2.69357C16.0716 1.82407 15.1401 1.13918 14.09 0.693569C12.9438 0.216343 11.7113 -0.0185808 10.47 0.00356872C9.25344 -0.00568247 8.04703 0.225405 6.92 0.683569C5.86152 1.11716 4.91215 1.77967 4.14 2.62357C3.37321 3.44968 2.80841 4.44234 2.49 5.52357H0V7.37357H2.16C2.13448 7.58254 2.12446 7.79312 2.13 8.00357Z" fill="white"/>
<path d="M20.81 14.1836L18.54 12.0736C18.0675 12.6469 17.4733 13.1077 16.8004 13.4225C16.1275 13.7373 15.3929 13.8983 14.65 13.8936C13.74 13.9095 12.8422 13.6816 12.05 13.2336C11.3023 12.8065 10.6918 12.1752 10.29 11.4136H15.86V9.56358H9.74C9.74 9.43358 9.74 9.23358 9.74 8.96358H6.13C6.11613 9.16334 6.11613 9.36382 6.13 9.56358L4 9.56357V11.4136L6.49 11.4136C6.81075 12.4938 7.37525 13.486 8.14 14.3136C8.91215 15.1575 9.86152 15.82 10.92 16.2536C12.047 16.7117 13.2534 16.9428 14.47 16.9336C15.7127 16.9494 16.9453 16.7077 18.09 16.2236C19.1457 15.7691 20.0781 15.0698 20.81 14.1836Z" fill="white"/>
<path d="M17.75 0.263565V3.12356H20.83V7.96356H24.4V0.263565H17.75Z" fill="white"/>
<path d="M28.39 8.96358H24.83V16.6636H28.39V8.96358Z" fill="white"/>
<path d="M37.09 1.00358C36.3264 0.511216 35.4651 0.190138 34.5656 0.0624359C33.666 -0.0652659 32.7494 0.00344014 31.8789 0.263827C31.0084 0.524213 30.2047 0.970098 29.523 1.5708C28.8413 2.1715 28.2978 2.91276 27.93 3.74358C27.3325 5.08242 27.0421 6.53796 27.08 8.00358H30.69C30.6043 6.70682 30.8813 5.41181 31.49 4.26358C31.7242 3.89174 32.0488 3.58533 32.4335 3.37296C32.8183 3.1606 33.2505 3.04922 33.69 3.04922C34.1294 3.04922 34.5617 3.1606 34.9464 3.37296C35.3312 3.58533 35.6558 3.89174 35.89 4.26358C36.5098 5.40798 36.7908 6.70528 36.7 8.00358H40.28C40.3194 6.5346 40.0289 5.07548 39.43 3.73358C38.9333 2.61464 38.1198 1.66561 37.09 1.00358Z" fill="white"/>
<path d="M43.43 13.2436C44.0242 11.9107 44.3146 10.4624 44.28 9.00357H40.7C40.793 10.302 40.5119 11.5999 39.89 12.7436C39.6558 13.1154 39.3312 13.4218 38.9465 13.6342C38.5617 13.8465 38.1294 13.9579 37.69 13.9579C37.2506 13.9579 36.8183 13.8465 36.4336 13.6342C36.0488 13.4218 35.7242 13.1154 35.49 12.7436C34.8768 11.597 34.5995 10.3007 34.69 9.00357H31.08C31.0394 10.4759 31.3299 11.9385 31.93 13.2836C32.4129 14.4006 33.2179 15.3484 34.2422 16.0056C35.2664 16.6629 36.4633 16.9999 37.68 16.9736C38.8967 16.9999 40.0936 16.6629 41.1179 16.0056C42.1421 15.3484 42.9471 14.4006 43.43 13.2836V13.2436Z" fill="white"/>
<path d="M52 1.00358C51.2364 0.511216 50.3751 0.190138 49.4756 0.0624359C48.576 -0.0652659 47.6594 0.00344014 46.7889 0.263827C45.9184 0.524213 45.1147 0.970098 44.433 1.5708C43.7513 2.1715 43.2078 2.91276 42.84 3.74358C42.246 5.08321 41.959 6.53872 42 8.00358H45.61C45.5167 6.70628 45.7942 5.4092 46.41 4.26358C46.6442 3.89174 46.9688 3.58533 47.3535 3.37296C47.7383 3.1606 48.1706 3.04922 48.61 3.04922C49.0494 3.04922 49.4817 3.1606 49.8665 3.37296C50.2512 3.58533 50.5758 3.89174 50.81 4.26358C51.4328 5.40715 51.7172 6.70435 51.63 8.00358H55.22C55.2594 6.5346 54.9689 5.07548 54.37 3.73358C53.8652 2.61062 53.0409 1.66115 52 1.00358Z" fill="white"/>
<path d="M58.37 13.2436C58.9642 11.9107 59.2546 10.4624 59.22 9.00357H55.63C55.7255 10.301 55.4479 11.5987 54.83 12.7436C54.5958 13.1154 54.2712 13.4218 53.8865 13.6342C53.5017 13.8465 53.0694 13.9579 52.63 13.9579C52.1906 13.9579 51.7583 13.8465 51.3736 13.6342C50.9888 13.4218 50.6642 13.1154 50.43 12.7436C49.8121 11.5987 49.5345 10.301 49.63 9.00357H46C45.9594 10.4759 46.2499 11.9385 46.85 13.2836C47.3329 14.4006 48.1379 15.3484 49.1622 16.0056C50.1864 16.6629 51.3833 16.9999 52.6 16.9736C53.8167 16.9999 55.0136 16.6629 56.0378 16.0056C57.0621 15.3484 57.8671 14.4006 58.35 13.2836L58.37 13.2436Z" fill="white"/>
<path d="M67 1.00357C65.971 0.382591 64.7919 0.0543976 63.59 0.0543976C62.3881 0.0543976 61.209 0.382591 60.18 1.00357C59.1443 1.65251 58.3179 2.58654 57.8 3.69357C57.2178 5.05338 56.9446 6.52541 57 8.00357H60.6C60.5092 6.70527 60.7902 5.40797 61.41 4.26357C61.6269 3.88386 61.9395 3.56768 62.3168 3.34658C62.6941 3.12549 63.1227 3.00721 63.56 3.00357C64.0016 2.99659 64.4375 3.10444 64.8249 3.31655C65.2123 3.52866 65.538 3.83776 65.77 4.21357C66.3878 5.3765 66.6651 6.69013 66.57 8.00357H70.16C70.1957 6.53491 69.9054 5.0766 69.31 3.73357C68.815 2.62255 68.0138 1.67558 67 1.00357Z" fill="white"/>
<path d="M73.31 13.2436C73.9011 11.9097 74.1913 10.4622 74.16 9.00357H70.57C70.6605 10.3007 70.3832 11.597 69.77 12.7436C69.541 13.1222 69.2159 13.4335 68.8278 13.646C68.4397 13.8585 68.0023 13.9646 67.56 13.9536C67.1205 13.9641 66.686 13.8576 66.3012 13.645C65.9164 13.4324 65.595 13.1213 65.37 12.7436C64.7481 11.5999 64.467 10.302 64.56 9.00357H61C60.9617 10.4747 61.2485 11.9361 61.84 13.2836C62.3342 14.3924 63.1358 15.3364 64.15 16.0036C65.1709 16.6433 66.3554 16.9733 67.56 16.9536C68.7745 16.9768 69.9696 16.6468 71 16.0036C72.0182 15.3235 72.8199 14.3656 73.31 13.2436Z" fill="white"/>
</symbol><symbol id="18000" viewBox="0 0 89 17">
<path d="M2.13 8.00357H5.72C5.72 7.74357 5.72 7.54357 5.72 7.41357H11.84V5.52357H6.29C6.69177 4.76196 7.30228 4.13063 8.05 3.70357C8.83831 3.24154 9.73627 2.99978 10.65 3.00357C11.3913 2.99646 12.1249 3.15428 12.7977 3.46559C13.4704 3.77691 14.0656 4.23393 14.54 4.80357L16.81 2.69357C16.0716 1.82407 15.1401 1.13918 14.09 0.693569C12.9438 0.216343 11.7113 -0.0185808 10.47 0.00356872C9.25344 -0.00568247 8.04703 0.225405 6.92 0.683569C5.86152 1.11716 4.91215 1.77967 4.14 2.62357C3.37321 3.44968 2.80841 4.44234 2.49 5.52357H0V7.37357H2.16C2.13448 7.58254 2.12446 7.79312 2.13 8.00357Z" fill="white"/>
<path d="M20.81 14.1836L18.54 12.0736C18.0675 12.6469 17.4733 13.1077 16.8004 13.4225C16.1275 13.7373 15.3929 13.8983 14.65 13.8936C13.74 13.9095 12.8422 13.6816 12.05 13.2336C11.3023 12.8065 10.6918 12.1752 10.29 11.4136H15.86V9.56358H9.74C9.74 9.43358 9.74 9.23358 9.74 8.96358H6.13C6.11613 9.16334 6.11613 9.36382 6.13 9.56358L4 9.56357V11.4136L6.49 11.4136C6.81075 12.4938 7.37525 13.486 8.14 14.3136C8.91215 15.1575 9.86152 15.82 10.92 16.2536C12.0467 16.7128 13.2533 16.9439 14.47 16.9336C15.7127 16.9494 16.9453 16.7077 18.09 16.2236C19.1457 15.7691 20.0781 15.0698 20.81 14.1836Z" fill="white"/>
<path d="M17.75 0.263565V3.12356H20.83V7.96356H24.4V0.263565H17.75Z" fill="white"/>
<path d="M28.39 8.96358H24.83V16.6636H28.39V8.96358Z" fill="white"/>
<path d="M39 6.24357C39.3141 5.68202 39.4729 5.04689 39.46 4.40357C39.476 3.56671 39.2159 2.74787 38.72 2.07357C38.1619 1.37114 37.4165 0.840761 36.57 0.543574C35.5772 0.167247 34.5216 -0.016035 33.46 0.00357398C32.4082 -0.0151608 31.3627 0.168156 30.38 0.543574C29.5565 0.852874 28.8337 1.38206 28.29 2.07357C27.7871 2.74485 27.5231 3.56499 27.54 4.40357C27.5287 5.04356 27.6887 5.67493 28.0034 6.23229C28.3181 6.78966 28.7761 7.25274 29.33 7.57357C29.1039 7.6872 28.8867 7.81757 28.68 7.96357H38.27C38.0634 7.81757 37.8461 7.6872 37.62 7.57357C38.1886 7.25876 38.6644 6.80012 39 6.24357ZM35.26 5.94357C34.7468 6.30545 34.1272 6.48501 33.5 6.45357C32.8788 6.48677 32.265 6.30685 31.76 5.94357C31.5533 5.77754 31.3886 5.5652 31.2792 5.32374C31.1697 5.08227 31.1186 4.81844 31.13 4.55357C31.1182 4.28333 31.17 4.01409 31.2812 3.76747C31.3923 3.52086 31.5597 3.30375 31.77 3.13357C32.2726 2.77321 32.8823 2.59347 33.5 2.62357C34.1272 2.59214 34.7468 2.77169 35.26 3.13357C35.4752 3.3006 35.6473 3.51659 35.7621 3.76359C35.8769 4.01058 35.931 4.28143 35.92 4.55357C35.9258 4.82483 35.865 5.09337 35.743 5.33569C35.621 5.57801 35.4414 5.78673 35.22 5.94357H35.26Z" fill="white"/>
<path d="M43.16 14.7036C43.7146 13.9892 44.0107 13.1079 44 12.2036C44.0147 11.4468 43.806 10.7024 43.4 10.0636C43.0923 9.64678 42.7131 9.28789 42.28 9.00357H32.68C32.2571 9.30269 31.8913 9.67526 31.6 10.1036C31.202 10.7312 30.9937 11.4604 31 12.2036C30.9807 13.1043 31.2661 13.9852 31.81 14.7036C32.3923 15.4538 33.1762 16.0226 34.07 16.3436C35.1556 16.7543 36.3095 16.9546 37.47 16.9336C38.6338 16.9546 39.791 16.7544 40.88 16.3436C41.7778 16.0196 42.5674 15.4517 43.16 14.7036ZM39.58 13.7036C38.9476 14.0949 38.2187 14.3023 37.475 14.3023C36.7313 14.3023 36.0024 14.0949 35.37 13.7036C35.123 13.5111 34.9247 13.2634 34.7909 12.9802C34.6572 12.6971 34.5918 12.3866 34.6 12.0736C34.5901 11.7632 34.6549 11.4549 34.7889 11.1748C34.9229 10.8946 35.1222 10.6507 35.37 10.4636C35.9825 10.0417 36.7173 9.83423 37.46 9.87357C38.2122 9.83281 38.957 10.0401 39.58 10.4636C39.8341 10.6461 40.0391 10.8886 40.1769 11.1695C40.3147 11.4504 40.381 11.7609 40.37 12.0736C40.3825 12.3907 40.317 12.7061 40.1793 12.992C40.0416 13.2779 39.8358 13.5257 39.58 13.7136V13.7036Z" fill="white"/>
<path d="M51.61 1.00358C50.8464 0.511216 49.9851 0.190138 49.0855 0.0624359C48.186 -0.0652659 47.2694 0.00344014 46.3989 0.263827C45.5284 0.524213 44.7247 0.970098 44.043 1.5708C43.3613 2.1715 42.8178 2.91276 42.45 3.74358C41.8525 5.08242 41.5621 6.53796 41.6 8.00358H45.21C45.1137 6.69443 45.3874 5.38458 46 4.22358C46.2342 3.85174 46.5588 3.54533 46.9435 3.33296C47.3283 3.1206 47.7606 3.00922 48.2 3.00922C48.6394 3.00922 49.0717 3.1206 49.4564 3.33296C49.8412 3.54533 50.1658 3.85174 50.4 4.22358C51.0308 5.37864 51.3155 6.69097 51.22 8.00358H54.8C54.8611 6.52501 54.5877 5.05171 54 3.69358C53.4833 2.58266 52.6524 1.64747 51.61 1.00358Z" fill="white"/>
<path d="M58 13.2436C58.5771 11.9068 58.8503 10.4587 58.8 9.00357H55.22C55.313 10.302 55.0319 11.5999 54.41 12.7436C54.1758 13.1154 53.8512 13.4218 53.4664 13.6342C53.0817 13.8465 52.6494 13.9579 52.21 13.9579C51.7706 13.9579 51.3383 13.8465 50.9535 13.6342C50.5688 13.4218 50.2442 13.1154 50.01 12.7436C49.3968 11.597 49.1195 10.3007 49.21 9.00357H45.6C45.5594 10.4759 45.8499 11.9385 46.45 13.2836C46.9329 14.4006 47.7379 15.3484 48.7622 16.0056C49.7864 16.6629 50.9833 16.9999 52.2 16.9736C53.4296 17.0067 54.6407 16.6686 55.6754 16.0032C56.71 15.3379 57.5201 14.3762 58 13.2436Z" fill="white"/>
<path d="M66.55 1.00358C65.7864 0.511216 64.9251 0.190138 64.0255 0.0624359C63.126 -0.0652659 62.2094 0.00344014 61.3389 0.263827C60.4684 0.524213 59.6647 0.970098 58.983 1.5708C58.3013 2.1715 57.7578 2.91276 57.39 3.74358C56.7925 5.08242 56.5021 6.53796 56.54 8.00358H60.15C60.0642 6.68808 60.3593 5.37573 61 4.22358C61.2342 3.85174 61.5588 3.54533 61.9435 3.33296C62.3283 3.1206 62.7606 3.00922 63.2 3.00922C63.6394 3.00922 64.0717 3.1206 64.4565 3.33296C64.8412 3.54533 65.1658 3.85174 65.4 4.22358C66.006 5.38603 66.2663 6.6978 66.15 8.00358H69.74C69.7794 6.5346 69.4889 5.07548 68.89 3.73358C68.3932 2.61464 67.5798 1.66561 66.55 1.00358Z" fill="white"/>
<path d="M72.89 13.2436C73.4842 11.9107 73.7746 10.4624 73.74 9.00357H70.15C70.2455 10.301 69.9679 11.5987 69.35 12.7436C69.1158 13.1154 68.7912 13.4218 68.4064 13.6342C68.0217 13.8465 67.5894 13.9579 67.15 13.9579C66.7105 13.9579 66.2783 13.8465 65.8935 13.6342C65.5088 13.4218 65.1842 13.1154 64.95 12.7436C64.3321 11.5987 64.0545 10.301 64.15 9.00357H60.54C60.4994 10.4759 60.7899 11.9385 61.39 13.2836C61.8729 14.4006 62.6779 15.3484 63.7021 16.0056C64.7264 16.6629 65.9233 16.9999 67.14 16.9736C68.3567 16.9999 69.5536 16.6629 70.5778 16.0056C71.6021 15.3484 72.4071 14.4006 72.89 13.2836V13.2436Z" fill="white"/>
<path d="M81.49 1.00357C80.461 0.382591 79.2819 0.0543976 78.08 0.0543976C76.8781 0.0543976 75.699 0.382591 74.67 1.00357C73.6381 1.67033 72.8218 2.62213 72.32 3.74357C71.7314 5.08491 71.4446 6.53918 71.48 8.00357H75.08C74.9892 6.70527 75.2702 5.40797 75.89 4.26357C76.1102 3.87797 76.4292 3.558 76.8141 3.33655C77.199 3.1151 77.636 3.00016 78.08 3.00357C78.5216 2.99659 78.9575 3.10444 79.3449 3.31655C79.7323 3.52866 80.058 3.83776 80.29 4.21357C80.9078 5.3765 81.1851 6.69013 81.09 8.00357H84.68C84.7157 6.53491 84.4254 5.0766 83.83 3.73357C83.3269 2.61865 82.5148 1.67126 81.49 1.00357Z" fill="white"/>
<path d="M87.83 13.2436C88.4211 11.9097 88.7113 10.4622 88.68 9.00357H85.09C85.1805 10.3007 84.9033 11.597 84.29 12.7436C84.061 13.1222 83.7359 13.4335 83.3478 13.646C82.9597 13.8585 82.5224 13.9646 82.08 13.9536C81.6405 13.9641 81.2061 13.8576 80.8212 13.645C80.4364 13.4324 80.115 13.1213 79.89 12.7436C79.2681 11.5999 78.987 10.302 79.08 9.00357H75.48C75.4417 10.4747 75.7285 11.9361 76.32 13.2836C76.825 14.3977 77.6411 15.3422 78.67 16.0036C79.6878 16.642 80.8687 16.9719 82.07 16.9536C83.2777 16.9729 84.4653 16.643 85.49 16.0036C86.5193 15.3278 87.3317 14.3695 87.83 13.2436Z" fill="white"/>
</symbol><symbol id="200" viewBox="0 0 62 17">
<path d="M4.14 2.62148C3.37321 3.44759 2.80841 4.44025 2.49 5.52148H0V7.37148H2.16C2.1464 7.56791 2.1464 7.76505 2.16 7.96148H5.72C5.72 7.70148 5.72 7.50148 5.72 7.37148H11.84V5.52148H6.29C6.69177 4.75987 7.30228 4.12854 8.05 3.70148C8.83831 3.23944 9.73627 2.99768 10.65 3.00148C11.3913 2.99437 12.1249 3.15219 12.7977 3.4635C13.4704 3.77481 14.0656 4.23184 14.54 4.80148L16.81 2.69148C16.0716 1.82197 15.1401 1.13709 14.09 0.691477C12.9474 0.213936 11.7181 -0.0210283 10.48 0.00147657C9.25998 -0.0101566 8.04984 0.220995 6.92 0.681477C5.86152 1.11507 4.91215 1.77758 4.14 2.62148Z" fill="white"/>
<path d="M4.16 9.56148H2V11.4115H4.49C4.81075 12.4917 5.37525 13.4839 6.14 14.3115C6.91215 15.1554 7.86152 15.8179 8.92 16.2515C10.047 16.7096 11.2534 16.9407 12.47 16.9315C13.7127 16.9473 14.9453 16.7056 16.09 16.2215C17.1416 15.7785 18.0736 15.0932 18.81 14.2215L16.54 12.1115C16.0675 12.6848 15.4733 13.1456 14.8004 13.4604C14.1275 13.7752 13.3929 13.9362 12.65 13.9315C11.74 13.9474 10.8422 13.7195 10.05 13.2715C9.30228 12.8444 8.69177 12.2131 8.29 11.4515H13.86V9.56148H7.74C7.74 9.43148 7.74 9.23148 7.74 8.96148H4.13C4.1261 9.16193 4.13612 9.36241 4.16 9.56148Z" fill="white"/>
<path d="M17.31 2.86148L19.91 4.53148C20.2562 4.03697 20.7248 3.64074 21.27 3.38148C21.8437 3.11897 22.4692 2.98908 23.1 3.00148C23.752 2.95756 24.3999 3.13361 24.94 3.50148C25.1472 3.67317 25.3113 3.89108 25.419 4.13771C25.5266 4.38433 25.5749 4.65278 25.56 4.92148C25.5537 5.36837 25.4406 5.80726 25.23 6.20148C24.9059 6.77789 24.4905 7.29797 24 7.74148L23.72 8.00148H27.94C28.1998 7.69189 28.4276 7.35686 28.62 7.00148C28.9719 6.26466 29.153 5.45799 29.15 4.64148C29.1697 3.78548 28.9177 2.94525 28.43 2.24148C27.9281 1.5321 27.2343 0.980545 26.43 0.651477C25.4792 0.260351 24.4579 0.069706 23.43 0.0914766C22.1848 0.0363729 20.9435 0.265497 19.8 0.761477C18.7939 1.22111 17.9328 1.94735 17.31 2.86148Z" fill="white"/>
<path d="M20 14.3515V16.6615H31.66V13.7615H25L28.55 10.4215C29.0476 9.98298 29.5122 9.50836 29.94 9.00148H25.72L20 14.3515Z" fill="white"/>
<path d="M31.93 3.69148C31.3341 5.04817 31.0472 6.52032 31.09 8.00148H34.69C34.5992 6.70318 34.8802 5.40588 35.5 4.26148C35.7202 3.87588 36.0392 3.55591 36.4241 3.33446C36.809 3.11301 37.246 2.99807 37.69 3.00148C38.1326 2.99554 38.5691 3.10491 38.9566 3.31882C39.344 3.53273 39.6692 3.84381 39.9 4.22148C40.516 5.38147 40.7932 6.69138 40.7 8.00148H44.29C44.3237 6.53299 44.0335 5.07511 43.44 3.73148C42.9369 2.61656 42.1249 1.66917 41.1 1.00148C40.0836 0.346268 38.8993 -0.00101571 37.69 0.00147657C36.4837 -0.00194739 35.3024 0.345491 34.29 1.00148C33.2617 1.65336 32.4425 2.58711 31.93 3.69148Z" fill="white"/>
<path d="M41.9 12.7015C41.6702 13.0794 41.345 13.3901 40.9571 13.6025C40.5691 13.8149 40.1321 13.9215 39.69 13.9115C39.2505 13.922 38.816 13.8155 38.4312 13.6029C38.0464 13.3903 37.725 13.0792 37.5 12.7015C36.8856 11.5696 36.6047 10.2866 36.69 9.00148H33.09C33.0517 10.4726 33.3385 11.934 33.93 13.2815C34.435 14.3956 35.251 15.3401 36.28 16.0015C37.309 16.6225 38.4881 16.9506 39.69 16.9506C40.8919 16.9506 42.071 16.6225 43.1 16.0015C44.1263 15.3311 44.9385 14.3801 45.44 13.2615C46.0321 11.9209 46.3222 10.4666 46.29 9.00148H42.7C42.7829 10.2852 42.5059 11.5667 41.9 12.7015Z" fill="white"/>
<path d="M46.87 3.69148C46.2638 5.04581 45.9667 6.51806 46 8.00148H49.61C49.5243 6.70472 49.8013 5.40971 50.41 4.26148C50.6442 3.88964 50.9688 3.58323 51.3535 3.37086C51.7383 3.1585 52.1706 3.04712 52.61 3.04712C53.0494 3.04712 53.4817 3.1585 53.8665 3.37086C54.2512 3.58323 54.5758 3.88964 54.81 4.26148C55.4367 5.40383 55.7247 6.70124 55.64 8.00148H59.22C59.2577 6.5369 58.9708 5.08212 58.38 3.74148C57.8701 2.61605 57.043 1.66382 56 1.00148C54.9962 0.351048 53.8261 0.00384684 52.63 0.00147657C51.4207 -0.00101571 50.2364 0.346268 49.22 1.00148C48.1973 1.65695 47.3822 2.58996 46.87 3.69148Z" fill="white"/>
<path d="M57.64 9.00148C57.733 10.2999 57.4519 11.5979 56.83 12.7415C56.5958 13.1133 56.2712 13.4197 55.8865 13.6321C55.5017 13.8445 55.0694 13.9558 54.63 13.9558C54.1906 13.9558 53.7583 13.8445 53.3736 13.6321C52.9888 13.4197 52.6642 13.1133 52.43 12.7415C51.8168 11.5949 51.5395 10.2986 51.63 9.00148H48C47.9648 10.4733 48.2551 11.9348 48.85 13.2815C49.3601 14.3953 50.1792 15.3394 51.21 16.0015C52.2356 16.6167 53.4091 16.9416 54.605 16.9416C55.8009 16.9416 56.9744 16.6167 58 16.0015C59.0319 15.3347 59.8482 14.3829 60.35 13.2615C60.9511 11.9232 61.2483 10.4683 61.22 9.00148H57.64Z" fill="white"/>
</symbol><symbol id="326000" viewBox="0 0 111 18">
<path d="M2.13 8.25926H5.72C5.72 7.99704 5.72 7.79533 5.72 7.66422H11.84V5.75807H6.29C6.69177 4.98995 7.30228 4.35322 8.05 3.92251C8.83831 3.45653 9.73627 3.2127 10.65 3.21653C11.3913 3.20936 12.1249 3.36853 12.7977 3.6825C13.4704 3.99648 14.0656 4.4574 14.54 5.03191L16.81 2.90388C16.0716 2.02694 15.1401 1.33621 14.09 0.886785C12.9438 0.40548 11.7113 0.168548 10.47 0.190887C9.25344 0.181557 8.04703 0.414619 6.92 0.876699C5.86152 1.31399 4.91215 1.98217 4.14 2.83328C3.37321 3.66645 2.80841 4.6676 2.49 5.75807H0V7.62388H2.16C2.13448 7.83464 2.12446 8.04701 2.13 8.25926Z" fill="white"/>
<path d="M19.81 14.4921L17.54 12.3641C17.0675 12.9423 16.4733 13.407 15.8004 13.7245C15.1275 14.042 14.3929 14.2043 13.65 14.1996C12.74 14.2157 11.8422 13.9859 11.05 13.534C10.3023 13.1033 9.69177 12.4665 9.29 11.6984H14.86V9.83261H8.74C8.74 9.7015 8.74 9.49978 8.74 9.22748H5.13C5.11613 9.42894 5.11613 9.63114 5.13 9.83261H3V11.6984H5.49C5.81075 12.7879 6.37525 13.7885 7.14 14.6232C7.91215 15.4743 8.86152 16.1425 9.92 16.5798C11.047 17.0419 12.2534 17.2749 13.47 17.2656C14.7127 17.2816 15.9453 17.0377 17.09 16.5495C18.1457 16.0912 19.0781 15.3859 19.81 14.4921Z" fill="white"/>
<path d="M28.86 2.78285V0.453106H18.08V3.33755H24.64L21.47 6.95823V8.25926H28.4C27.5796 7.46597 26.5277 6.96027 25.4 6.81704L28.86 2.78285Z" fill="white"/>
<path d="M31.86 14.7442C32.3203 14.0108 32.5663 13.1614 32.57 12.2935C32.6216 11.1804 32.2332 10.0923 31.49 9.26781H24.47V10.3772H26.1C28 10.3369 29 10.9823 29 12.2935C29.0091 12.5851 28.943 12.8742 28.808 13.1323C28.673 13.3905 28.4738 13.6088 28.23 13.7659C27.5927 14.1453 26.8591 14.3276 26.12 14.2904C25.3154 14.293 24.5155 14.167 23.75 13.9172C23.0318 13.6969 22.3556 13.356 21.75 12.9087L20.36 15.662C21.1664 16.2029 22.0596 16.5987 23 16.8319C24.0421 17.1228 25.1187 17.2687 26.2 17.2656C27.4122 17.3001 28.6172 17.066 29.73 16.5798C30.6017 16.1895 31.3418 15.5517 31.86 14.7442Z" fill="white"/>
<path d="M30.27 3.07533L32.87 4.7596C33.2138 4.25864 33.6831 3.85846 34.23 3.59977C34.8034 3.33402 35.4291 3.20298 36.06 3.21652C36.7119 3.17379 37.3592 3.35122 37.9 3.7208C38.1072 3.89395 38.2713 4.11373 38.379 4.36246C38.4866 4.6112 38.5349 4.88194 38.52 5.15293C38.5137 5.60364 38.4006 6.04629 38.19 6.44387C37.8547 7.03179 37.4256 7.55995 36.92 8.00712L36.68 8.25926H40.89C41.156 7.94966 41.3874 7.61143 41.58 7.25071C41.9319 6.5076 42.113 5.69403 42.11 4.87054C42.1297 4.00723 41.8777 3.15982 41.39 2.45003C40.8881 1.73459 40.1943 1.17832 39.39 0.846437C38.4386 0.453904 37.4177 0.261706 36.39 0.281651C35.1379 0.254564 33.8962 0.516752 32.76 1.04815C31.7649 1.48666 30.9049 2.1868 30.27 3.07533Z" fill="white"/>
<path d="M34 14.6635V16.9933H45.61V14.0685H39L42.54 10.6999C43.0288 10.2614 43.4804 9.78233 43.89 9.26781H39.68L34 14.6635Z" fill="white"/>
<path d="M45 4.03345C44.3508 5.33204 44.0085 6.76461 44 8.21892H55.82C55.3738 7.63576 54.7984 7.16603 54.14 6.84729C53.3051 6.43933 52.3877 6.23219 51.46 6.24216C50.766 6.19957 50.0707 6.29915 49.4159 6.53488C48.7611 6.77061 48.1604 7.13762 47.65 7.61379C47.622 6.38037 48.0619 5.18269 48.88 4.26541C49.2962 3.87135 49.7872 3.56634 50.3234 3.36874C50.8596 3.17115 51.4299 3.08506 52 3.11567C53.0152 3.08007 54.0179 3.35044 54.88 3.89225L56.2 1.25994C55.6023 0.888491 54.9463 0.622462 54.26 0.473275C53.488 0.280924 52.6952 0.186066 51.9 0.190882C50.4672 0.168426 49.0524 0.515589 47.79 1.19943C46.5981 1.83902 45.6256 2.82685 45 4.03345Z" fill="white"/>
<path d="M59 14.8249C59.5197 14.011 59.7877 13.0596 59.77 12.0917C59.7883 11.1937 59.5449 10.31 59.07 9.55021L58.82 9.26781H47.06C47.06 9.38884 47.06 9.48969 47.06 9.60063C46.9116 11.6706 47.5599 13.7187 48.87 15.3191C49.5204 16.0019 50.309 16.5355 51.1821 16.8835C52.0553 17.2316 52.9925 17.386 53.93 17.3362C54.9647 17.3553 55.9903 17.1381 56.93 16.7008C57.7821 16.2857 58.4999 15.6352 59 14.8249ZM55.6 13.9576C55.0763 14.3877 54.4149 14.6101 53.74 14.5829C53.0173 14.6233 52.3052 14.3935 51.74 13.9374C51.5099 13.7257 51.326 13.4679 51.2002 13.1805C51.0745 12.8931 51.0095 12.5824 51.0095 12.2682C51.0095 11.9541 51.0745 11.6434 51.2002 11.356C51.326 11.0686 51.5099 10.8108 51.74 10.5991C52.2901 10.1802 52.9607 9.9536 53.65 9.9536C54.3393 9.9536 55.0099 10.1802 55.56 10.5991C55.8049 10.8051 55.9998 11.0649 56.1298 11.3586C56.2598 11.6522 56.3214 11.972 56.31 12.2935C56.3205 12.6074 56.2613 12.9198 56.1368 13.2077C56.0122 13.4956 55.8254 13.7518 55.59 13.9576H55.6Z" fill="white"/>
<path d="M65.13 3.91242C64.5307 5.27992 64.2404 6.76468 64.28 8.25926H67.89C67.8043 6.95142 68.0813 5.64534 68.69 4.4873C68.9242 4.11228 69.2488 3.80325 69.6336 3.58907C70.0183 3.37489 70.4506 3.26256 70.89 3.26256C71.3295 3.26256 71.7617 3.37489 72.1465 3.58907C72.5312 3.80325 72.8558 4.11228 73.09 4.4873C73.7098 5.64148 73.9908 6.94986 73.9 8.25926H77.48C77.5169 6.77898 77.2301 5.30867 76.64 3.95276C76.1366 2.82545 75.3204 1.86919 74.29 1.19943C73.261 0.573149 72.0819 0.24215 70.88 0.24215C69.6781 0.24215 68.499 0.573149 67.47 1.19943C66.4484 1.85896 65.6362 2.80065 65.13 3.91242Z" fill="white"/>
<path d="M79.64 13.5441C80.2258 12.1974 80.5125 10.7379 80.48 9.26781H76.9C76.993 10.5774 76.7119 11.8864 76.09 13.0398C75.8558 13.4148 75.5312 13.7238 75.1465 13.938C74.7617 14.1522 74.3294 14.2645 73.89 14.2645C73.4506 14.2645 73.0183 14.1522 72.6336 13.938C72.2488 13.7238 71.9242 13.4148 71.69 13.0398C71.0768 11.8834 70.7995 10.576 70.89 9.26781H67.28C67.2448 10.7522 67.5351 12.2262 68.13 13.5844C68.6347 14.7051 69.4466 15.657 70.47 16.3276C71.499 16.9539 72.6781 17.2849 73.88 17.2849C75.0819 17.2849 76.261 16.9539 77.29 16.3276C78.3249 15.6498 79.1415 14.6825 79.64 13.5441Z" fill="white"/>
<path d="M80.07 3.91243C79.4652 5.27815 79.1746 6.7642 79.22 8.25926H82.83C82.7443 6.95142 83.0213 5.64535 83.63 4.4873C83.8642 4.11228 84.1888 3.80325 84.5736 3.58907C84.9583 3.3749 85.3906 3.26256 85.83 3.26256C86.2695 3.26256 86.7017 3.3749 87.0865 3.58907C87.4712 3.80325 87.7958 4.11228 88.03 4.4873C88.6498 5.64148 88.9308 6.94987 88.84 8.25926H92.42C92.4594 6.77773 92.1689 5.30614 91.57 3.95277C91.0764 2.83019 90.2704 1.87622 89.2497 1.20663C88.229 0.537044 87.0376 0.180624 85.82 0.180624C84.6024 0.180624 83.411 0.537044 82.3903 1.20663C81.3696 1.87622 80.5636 2.83019 80.07 3.95277V3.91243Z" fill="white"/>
<path d="M94.57 13.5441C95.1642 12.1998 95.4546 10.7392 95.42 9.26781H91.84C91.9162 10.5668 91.6249 11.8609 91 12.9994C90.7658 13.3745 90.4412 13.6835 90.0565 13.8977C89.6717 14.1118 89.2395 14.2242 88.8 14.2242C88.3606 14.2242 87.9283 14.1118 87.5436 13.8977C87.1588 13.6835 86.8342 13.3745 86.6 12.9994C86.0045 11.8519 85.7379 10.5597 85.83 9.26781H82.22C82.1795 10.7527 82.4699 12.2278 83.07 13.5844C83.5636 14.707 84.3696 15.6609 85.3903 16.3305C86.411 17.0001 87.6024 17.3565 88.82 17.3565C90.0376 17.3565 91.229 17.0001 92.2497 16.3305C93.2704 15.6609 94.0764 14.707 94.57 13.5844V13.5441Z" fill="white"/>
<path d="M104.17 1.19944C103.409 0.699545 102.55 0.3717 101.652 0.238433C100.753 0.105165 99.8372 0.169633 98.9659 0.427407C98.0946 0.685182 97.289 1.13015 96.6044 1.73174C95.9198 2.33332 95.3725 3.07726 95 3.91243C94.3986 5.27896 94.1114 6.76498 94.16 8.25927H97.77C97.6767 6.95088 97.9542 5.64271 98.57 4.4873C98.7902 4.09841 99.1092 3.7757 99.4941 3.55236C99.879 3.32902 100.316 3.2131 100.76 3.21653C101.208 3.20315 101.651 3.31002 102.045 3.52621C102.439 3.7424 102.768 4.06015 103 4.44696C103.609 5.60501 103.886 6.91108 103.8 8.21892H107.39C107.429 6.73739 107.139 5.2658 106.54 3.91243C106.029 2.79473 105.205 1.85185 104.17 1.19944Z" fill="white"/>
<path d="M106 12.9994C105.766 13.3745 105.441 13.6835 105.056 13.8977C104.672 14.1118 104.239 14.2242 103.8 14.2242C103.361 14.2242 102.928 14.1118 102.544 13.8977C102.159 13.6835 101.834 13.3745 101.6 12.9994C100.982 11.8448 100.704 10.536 100.8 9.22748H97.16C97.1163 10.7116 97.4034 12.1867 98 13.5441C98.4936 14.6666 99.2996 15.6206 100.32 16.2902C101.341 16.9598 102.532 17.3162 103.75 17.3162C104.968 17.3162 106.159 16.9598 107.18 16.2902C108.2 15.6206 109.006 14.6666 109.5 13.5441C110.098 12.2006 110.391 10.7399 110.36 9.26782H106.77C106.867 10.56 106.6 11.8536 106 12.9994Z" fill="white"/>
</symbol><symbol id="7500" viewBox="0 0 76 18">
<path d="M13.47 17.9245C14.2313 17.924 14.99 17.8326 15.73 17.6522H11.25C11.9767 17.8314 12.7219 17.9228 13.47 17.9245Z" fill="white"/>
<path d="M11.86 8.28278V6.41697H6.29C6.69177 5.64885 7.30228 5.01213 8.05 4.58141C8.83831 4.11543 9.73627 3.87161 10.65 3.87543C11.3913 3.86826 12.1249 4.02743 12.7977 4.3414C13.4704 4.65538 14.0656 5.11631 14.54 5.69082L16.81 3.56278C16.0716 2.68585 15.1401 1.99511 14.09 1.54569C12.9438 1.06438 11.7113 0.827452 10.47 0.849791C9.25344 0.84046 8.04703 1.07352 6.92 1.5356C5.86152 1.9729 4.91215 2.64107 4.14 3.49218C3.37321 4.32536 2.80841 5.3265 2.49 6.41697H0V8.28278H2.16C2.14823 8.4372 2.14823 8.5923 2.16 8.74671H5.72C5.72 8.55509 5.72 8.39372 5.72 8.28278H11.86Z" fill="white"/>
<path d="M19.81 15.151L17.54 13.023C17.0675 13.6012 16.4733 14.0659 15.8004 14.3834C15.1275 14.7009 14.3929 14.8632 13.65 14.8585C12.74 14.8746 11.8422 14.6448 11.05 14.1929C10.3023 13.7622 9.69177 13.1254 9.29 12.3573H14.86V10.4915H8.74C8.74 10.3604 8.74 10.1587 8.74 9.88638V9.75527H5.14C5.14 9.80569 5.14 9.83595 5.14 9.88638C5.12613 10.0878 5.12613 10.29 5.14 10.4915H3V12.3573H5.49C5.81075 13.4468 6.37525 14.4474 7.14 15.2821C7.91215 16.1332 8.86152 16.8014 9.92 17.2387C10.3514 17.4128 10.7963 17.5511 11.25 17.6522H15.73C16.196 17.547 16.6512 17.3984 17.09 17.2084C18.1457 16.7501 19.0781 16.0448 19.81 15.151Z" fill="white"/>
<path d="M30.29 1.11201H17.95V6.57833H21.12V4.04688H26.22L24.16 8.74671H28L30.29 3.44175V1.11201Z" fill="white"/>
<path d="M27.16 9.75527L23.7 17.6522H27.57L31 9.75527H27.16Z" fill="white"/>
<path d="M39.74 17.9245C40.5148 17.9282 41.2871 17.8367 42.04 17.6522H37.35C38.1356 17.8235 38.9363 17.9147 39.74 17.9245Z" fill="white"/>
<path d="M36.78 6.9515H35.53L35.77 3.99645H42.2V1.11201H32.8L32.11 8.74671H42.11C41.9636 8.57548 41.8067 8.41379 41.64 8.26261C40.2226 7.26419 38.5023 6.8001 36.78 6.9515Z" fill="white"/>
<path d="M45.44 15.3628C45.9091 14.5818 46.1516 13.6838 46.14 12.7708C46.1737 11.6606 45.7876 10.579 45.06 9.74518H35.06L35 10.8647H39C39.9553 10.788 40.9139 10.9654 41.78 11.379C42.0361 11.5326 42.2459 11.7536 42.3869 12.0184C42.5278 12.2831 42.5946 12.5816 42.58 12.8818C42.5917 13.1767 42.5267 13.4695 42.3917 13.7313C42.2566 13.9931 42.0561 14.2148 41.81 14.3744C41.1762 14.763 40.4407 14.9493 39.7 14.9089C38.902 14.9114 38.1087 14.7855 37.35 14.5358C36.6318 14.3155 35.9556 13.9745 35.35 13.5272L33.95 16.2806C34.7596 16.849 35.664 17.2658 36.62 17.511C36.89 17.5816 37.16 17.6219 37.43 17.6724H42C42.4297 17.5739 42.8485 17.432 43.25 17.2488C44.1476 16.8503 44.9092 16.1945 45.44 15.3628Z" fill="white"/>
<path d="M54.19 17.9245C54.8299 17.9289 55.4669 17.8372 56.08 17.6522H52.31C52.9198 17.8363 53.5534 17.9281 54.19 17.9245Z" fill="white"/>
<path d="M54.6 1.85833C53.571 1.23205 52.3919 0.901054 51.19 0.901054C49.9881 0.901054 48.809 1.23205 47.78 1.85833C46.751 2.5314 45.9381 3.49144 45.44 4.62175C44.8602 5.93471 44.5734 7.3601 44.6 8.79714H48.21C48.1235 7.51624 48.3973 6.23672 49 5.10586C49.2342 4.73084 49.5588 4.42181 49.9436 4.20763C50.3283 3.99345 50.7606 3.88112 51.2 3.88112C51.6395 3.88112 52.0717 3.99345 52.4565 4.20763C52.8412 4.42181 53.1658 4.73084 53.4 5.10586C53.9975 6.22072 54.2745 7.48165 54.2 8.74671H57.79C57.8275 7.31381 57.558 5.88961 57 4.57133C56.4767 3.45215 55.6431 2.50984 54.6 1.85833Z" fill="white"/>
<path d="M60 14.203C60.5686 12.8525 60.8382 11.3931 60.79 9.92672V9.75527H57.2C57.2 9.80569 57.2 9.84603 57.2 9.88638C57.293 11.1959 57.0119 12.5049 56.39 13.6583C56.1558 14.0334 55.8312 14.3424 55.4464 14.5566C55.0617 14.7707 54.6294 14.8831 54.19 14.8831C53.7505 14.8831 53.3183 14.7707 52.9335 14.5566C52.5488 14.3424 52.2242 14.0334 51.99 13.6583C51.3876 12.5128 51.114 11.2205 51.2 9.92672C51.2 9.92672 51.2 9.84603 51.2 9.79561H47.6C47.6 9.84603 47.6 9.88638 47.6 9.92672C47.5648 11.4111 47.8551 12.8851 48.45 14.2433C48.952 15.3627 49.7603 16.3144 50.78 16.9865C51.2546 17.2883 51.7699 17.5193 52.31 17.6724H56.08C56.6176 17.5211 57.1299 17.29 57.6 16.9865C58.6534 16.3162 59.488 15.3481 60 14.203Z" fill="white"/>
<path d="M69.13 17.9245C69.7632 17.9269 70.3933 17.8352 71 17.6522H67.24C67.8532 17.8364 68.4901 17.9282 69.13 17.9245Z" fill="white"/>
<path d="M69.54 1.85835C68.7764 1.36178 67.9151 1.03795 67.0156 0.909161C66.116 0.780368 65.1994 0.849661 64.3289 1.11227C63.4584 1.37488 62.6547 1.82458 61.973 2.43042C61.2913 3.03626 60.7478 3.78385 60.38 4.62176C59.8002 5.93472 59.5134 7.36011 59.54 8.79715H63.14C63.0702 7.53247 63.347 6.27283 63.94 5.1563C64.1742 4.78128 64.4988 4.47225 64.8836 4.25807C65.2683 4.04389 65.7006 3.93156 66.14 3.93156C66.5795 3.93156 67.0117 4.04389 67.3965 4.25807C67.7812 4.47225 68.1058 4.78128 68.34 5.1563C68.933 6.27283 69.2098 7.53247 69.14 8.79715H72.73C72.7486 7.35981 72.4586 5.93543 71.88 4.62176C71.3849 3.48956 70.5713 2.52874 69.54 1.85835Z" fill="white"/>
<path d="M74.88 14.203C75.4762 12.8594 75.7666 11.3982 75.73 9.92672V9.75527H72.14C72.14 9.80569 72.14 9.84603 72.14 9.88638C72.233 11.1959 71.9519 12.5049 71.33 13.6583C71.0958 14.0334 70.7712 14.3424 70.3865 14.5566C70.0017 14.7707 69.5694 14.8831 69.13 14.8831C68.6906 14.8831 68.2583 14.7707 67.8736 14.5566C67.4888 14.3424 67.1642 14.0334 66.93 13.6583C66.3276 12.5128 66.054 11.2205 66.14 9.92672V9.75527H62.54C62.54 9.80569 62.54 9.84603 62.54 9.88638C62.4994 11.3713 62.7899 12.8464 63.39 14.203C63.8791 15.3412 64.6894 16.3093 65.72 16.9865C66.192 17.2865 66.7037 17.5174 67.24 17.6724H71C71.5446 17.523 72.0637 17.2918 72.54 16.9865C73.5743 16.3108 74.3882 15.3426 74.88 14.203Z" fill="white"/>
</symbol><symbol id="78000" viewBox="0 0 93 18">
<path d="M2.13 8.01022H5.72C5.72 7.75022 5.72 7.55022 5.72 7.42022H11.84V5.53022H6.29C6.69177 4.76861 7.30228 4.13728 8.05 3.71022C8.83831 3.24819 9.73627 3.00643 10.65 3.01022C11.3913 3.00311 12.1249 3.16093 12.7977 3.47225C13.4704 3.78356 14.0656 4.24058 14.54 4.81022L16.81 2.70022C16.0716 1.83072 15.1401 1.14584 14.09 0.700222C12.9438 0.222996 11.7113 -0.011928 10.47 0.0102215C9.25344 0.000970361 8.04703 0.232058 6.92 0.690222C5.86152 1.12381 4.91215 1.78632 4.14 2.63022C3.37321 3.45633 2.80841 4.449 2.49 5.53022H0V7.38022H2.16C2.13448 7.58919 2.12446 7.79977 2.13 8.01022Z" fill="white"/>
<path d="M19.81 14.1902L17.54 12.0802C17.0675 12.6535 16.4733 13.1143 15.8004 13.4291C15.1275 13.744 14.3929 13.9049 13.65 13.9002C12.74 13.9162 11.8422 13.6883 11.05 13.2402C10.3023 12.8132 9.69177 12.1818 9.29 11.4202H14.86V9.57022H8.74C8.74 9.44022 8.74 9.24022 8.74 8.97021H5.13C5.11613 9.16997 5.11613 9.37046 5.13 9.57022H3V11.4202H5.49C5.81075 12.5004 6.37525 13.4926 7.14 14.3202C7.91215 15.1641 8.86152 15.8266 9.92 16.2602C11.047 16.7184 12.2534 16.9495 13.47 16.9402C14.7127 16.956 15.9453 16.7143 17.09 16.2302C18.1457 15.7758 19.0781 15.0765 19.81 14.1902Z" fill="white"/>
<path d="M30.29 0.270264H17.95V5.69026H21.12V3.18026H26.2199L24.11 7.97026H27.94L30.29 2.58026V0.270264Z" fill="white"/>
<path d="M23.7 16.6702H27.57L30.94 8.97021H27.11L23.7 16.6702Z" fill="white"/>
<path d="M32.71 2.08022C32.2206 2.75624 31.9708 3.57619 32 4.41022C31.9871 5.05353 32.1458 5.68867 32.46 6.25022C32.7827 6.79627 33.2364 7.25335 33.78 7.58022C33.5423 7.70535 33.3149 7.84913 33.1 8.01022H42.7C42.4767 7.85106 42.2429 7.70739 42 7.58022C42.5672 7.26967 43.0391 6.8105 43.365 6.25201C43.6909 5.69352 43.8586 5.0568 43.85 4.41022C43.8669 3.57164 43.6029 2.75149 43.1 2.08022C42.5543 1.38648 41.8276 0.857001 41 0.550219C40.0037 0.173823 38.9448 -0.00943982 37.88 0.0102185C36.8282 -0.00851624 35.7826 0.1748 34.8 0.550219C33.9765 0.859519 33.2536 1.38871 32.71 2.08022ZM36.16 3.14022C36.6581 2.77841 37.2652 2.59839 37.88 2.63022C38.5073 2.59722 39.1275 2.77692 39.64 3.14022C39.8551 3.30724 40.0273 3.52324 40.1421 3.77023C40.2569 4.01723 40.311 4.28807 40.3 4.56022C40.3103 4.82797 40.2557 5.09425 40.1408 5.33631C40.0258 5.57836 39.854 5.789 39.64 5.95022C39.1275 6.31352 38.5073 6.49322 37.88 6.46022C37.2617 6.4952 36.6504 6.31499 36.15 5.95022C35.9402 5.7863 35.7727 5.57463 35.6614 5.33284C35.5501 5.09105 35.4982 4.82615 35.51 4.56022C35.4978 4.28892 35.5504 4.01861 35.6634 3.77168C35.7764 3.52475 35.9467 3.30829 36.16 3.14022Z" fill="white"/>
<path d="M46.58 14.7103C47.124 13.9914 47.4125 13.1116 47.4 12.2103C47.4112 11.4525 47.199 10.7082 46.79 10.0703C46.4913 9.65608 46.1224 9.29734 45.7 9.01025H36.1C35.6734 9.2956 35.301 9.65452 35 10.0703C34.594 10.7091 34.3853 11.4534 34.4 12.2103C34.3779 13.1098 34.6597 13.9906 35.2 14.7103C35.7823 15.4605 36.5662 16.0293 37.46 16.3503C39.6618 17.137 42.0682 17.137 44.27 16.3503C45.1799 16.0337 45.9811 15.4649 46.58 14.7103ZM43.01 13.7103C42.3765 14.1036 41.6457 14.312 40.9 14.312C40.1543 14.312 39.4235 14.1036 38.79 13.7103C38.5421 13.5219 38.3416 13.2783 38.2044 12.9988C38.0673 12.7193 37.9973 12.4116 38 12.1003C37.9901 11.7899 38.0549 11.4816 38.1889 11.2015C38.3229 10.9213 38.5222 10.6774 38.77 10.4903C39.3831 10.0697 40.1175 9.86242 40.86 9.90025C41.6153 9.86024 42.363 10.0674 42.99 10.4903C43.2409 10.6751 43.4431 10.9184 43.579 11.1989C43.7149 11.4794 43.7804 11.7887 43.77 12.1003C43.7766 12.4116 43.7105 12.7202 43.5768 13.0014C43.4431 13.2827 43.2456 13.5288 43 13.7203L43.01 13.7103Z" fill="white"/>
<path d="M46.87 3.7002C46.2638 5.05453 45.9666 6.52678 46 8.0102H49.61C49.5243 6.71345 49.8013 5.41844 50.41 4.2702C50.6442 3.89836 50.9688 3.59195 51.3535 3.37959C51.7382 3.16723 52.1705 3.05584 52.61 3.05584C53.0494 3.05584 53.4817 3.16723 53.8664 3.37959C54.2511 3.59195 54.5758 3.89836 54.81 4.2702C55.4367 5.41256 55.7246 6.70997 55.64 8.0102H59.22C59.2568 6.54246 58.97 5.08461 58.38 3.7402C57.8685 2.61846 57.0415 1.66987 56 1.0102C54.9709 0.389228 53.7919 0.0610352 52.59 0.0610352C51.3881 0.0610352 50.209 0.389228 49.18 1.0102C48.172 1.67142 47.3713 2.60388 46.87 3.7002Z" fill="white"/>
<path d="M61.3801 13.2503C61.9658 11.9151 62.2525 10.4679 62.2201 9.01025H58.64C58.7331 10.3087 58.452 11.6066 57.8301 12.7503C57.5959 13.1221 57.2712 13.4285 56.8865 13.6409C56.5018 13.8532 56.0695 13.9646 55.6301 13.9646C55.1906 13.9646 54.7583 13.8532 54.3736 13.6409C53.9889 13.4285 53.6642 13.1221 53.43 12.7503C52.8168 11.6037 52.5395 10.3074 52.6301 9.01025H49C48.9649 10.4821 49.2551 11.9436 49.85 13.2903C50.3602 14.4041 51.1793 15.3482 52.21 16.0103C53.2356 16.6254 54.4091 16.9504 55.605 16.9504C56.801 16.9504 57.9745 16.6254 59 16.0103C60.046 15.3426 60.8734 14.383 61.3801 13.2503Z" fill="white"/>
<path d="M61.81 3.70018C61.2189 5.05752 60.942 6.53084 61 8.01018H64.61C64.5243 6.71342 64.8013 5.41841 65.41 4.27018C65.6442 3.89834 65.9688 3.59193 66.3535 3.37956C66.7383 3.1672 67.1705 3.05582 67.61 3.05582C68.0494 3.05582 68.4817 3.1672 68.8664 3.37956C69.2512 3.59193 69.5758 3.89834 69.81 4.27018C70.4159 5.41866 70.683 6.71573 70.58 8.01018H74.16C74.1994 6.5412 73.9089 5.08208 73.31 3.74018C72.8164 2.62711 72.0104 1.68122 70.9897 1.01731C69.969 0.353399 68.7776 0 67.56 0C66.3424 0 65.1509 0.353399 64.1303 1.01731C63.1096 1.68122 62.3036 2.62711 61.81 3.74018V3.70018Z" fill="white"/>
<path d="M76.3099 13.2503C76.9042 11.9174 77.1945 10.4691 77.16 9.01025H73.5799C73.673 10.3087 73.3919 11.6066 72.7699 12.7503C72.5357 13.1221 72.2111 13.4285 71.8264 13.6409C71.4417 13.8532 71.0094 13.9646 70.5699 13.9646C70.1305 13.9646 69.6982 13.8532 69.3135 13.6409C68.9288 13.4285 68.6041 13.1221 68.3699 12.7503C67.7567 11.6037 67.4794 10.3074 67.5699 9.01025H63.9999C63.9594 10.4826 64.2499 11.9452 64.8499 13.2903C65.3435 14.4033 66.1496 15.3492 67.1702 16.0131C68.1909 16.677 69.3823 17.0304 70.5999 17.0304C71.8175 17.0304 73.009 16.677 74.0296 16.0131C75.0503 15.3492 75.8564 14.4033 76.3499 13.2903L76.3099 13.2503Z" fill="white"/>
<path d="M85.91 1.01017C85.1464 0.517807 84.2851 0.19673 83.3856 0.0690277C82.486 -0.0586741 81.5694 0.0100319 80.6989 0.270418C79.8284 0.530805 79.0247 0.97669 78.343 1.57739C77.6613 2.1781 77.1178 2.91936 76.75 3.75017C76.1525 5.08901 75.8621 6.54455 75.9 8.01017H79.51C79.4167 6.71287 79.6942 5.41579 80.31 4.27017C80.5303 3.88457 80.8492 3.5646 81.2341 3.34315C81.619 3.1217 82.056 3.00677 82.5 3.01017C82.942 3.0012 83.3786 3.1082 83.7663 3.32049C84.1541 3.53279 84.4795 3.84298 84.71 4.22017C85.3279 5.3831 85.6051 6.69674 85.51 8.01017H89.1C89.1394 6.54119 88.849 5.08208 88.25 3.74017C87.7533 2.62124 86.9398 1.67221 85.91 1.01017Z" fill="white"/>
<path d="M87.71 12.7103C87.4758 13.0821 87.1511 13.3885 86.7664 13.6009C86.3817 13.8132 85.9494 13.9246 85.51 13.9246C85.0705 13.9246 84.6382 13.8132 84.2535 13.6009C83.8688 13.3885 83.5442 13.0821 83.31 12.7103C82.6995 11.5771 82.4221 10.2944 82.51 9.01025H78.9C78.8594 10.4826 79.1499 11.9452 79.75 13.2903C80.2436 14.4033 81.0496 15.3492 82.0703 16.0131C83.0909 16.677 84.2824 17.0304 85.5 17.0304C86.7176 17.0304 87.909 16.677 88.9297 16.0131C89.9503 15.3492 90.7564 14.4033 91.25 13.2903C91.8501 11.9452 92.1405 10.4826 92.1 9.01025H88.51C88.5929 10.294 88.3158 11.5754 87.71 12.7103Z" fill="white"/>
</symbol><symbol id="9dots" viewBox="0 0 48 48">
<circle cx="44" cy="4" r="4" transform="rotate(90 44 4)" fill="#FC4E39"/>
<circle cx="44" cy="24" r="4" transform="rotate(90 44 24)" fill="#FC4E39"/>
<circle cx="44" cy="44" r="4" transform="rotate(90 44 44)" fill="#FC4E39"/>
<circle cx="24" cy="4" r="4" transform="rotate(90 24 4)" fill="#FC4E39"/>
<circle cx="24" cy="24" r="4" transform="rotate(90 24 24)" fill="#FC4E39"/>
<circle cx="24" cy="44" r="4" transform="rotate(90 24 44)" fill="#FC4E39"/>
<circle cx="4" cy="4" r="4" transform="rotate(90 4 4)" fill="#FC4E39"/>
<circle cx="4" cy="24" r="4" transform="rotate(90 4 24)" fill="#FC4E39"/>
<circle cx="4" cy="44" r="4" transform="rotate(90 4 44)" fill="#FC4E39"/>
</symbol><symbol id="android" viewBox="0 0 44 26">
<path d="M7.66422 0.581963C7.82208 0.495726 7.9954 0.441471 8.17425 0.422302C8.35311 0.403132 8.53399 0.419426 8.70653 0.47025C8.87908 0.521075 9.03991 0.605432 9.17982 0.718491C9.31973 0.831551 9.43596 0.971094 9.52186 1.12913L13.032 7.56385C15.8897 6.44728 18.932 5.87836 22.0001 5.88677C25.0682 5.87836 28.1105 6.44728 30.9682 7.56385L34.4783 1.12913C34.5615 0.966674 34.6764 0.822515 34.8162 0.705147C34.956 0.587778 35.1179 0.499576 35.2923 0.445735C35.4667 0.391893 35.6501 0.373503 35.8317 0.391647C36.0134 0.409791 36.1895 0.464101 36.3498 0.551379C36.5101 0.638658 36.6514 0.757138 36.7652 0.899841C36.879 1.04254 36.9631 1.20658 37.0126 1.38229C37.062 1.558 37.0758 1.74183 37.0531 1.92294C37.0304 2.10406 36.9716 2.2788 36.8804 2.43687L33.4551 8.71564C39.7147 12.0862 43.8869 18.1352 43.8869 25.0377H0.113281C0.113281 18.1352 4.28545 12.0862 10.5451 8.71564L7.11705 2.4396C6.94376 2.12104 6.90404 1.74671 7.00665 1.39888C7.10925 1.05105 7.34577 0.758199 7.66422 0.584698V0.581963ZM13.7925 19.566C14.5181 19.566 15.214 19.2778 15.7271 18.7647C16.2401 18.2516 16.5284 17.5558 16.5284 16.8302C16.5284 16.1046 16.2401 15.4087 15.7271 14.8956C15.214 14.3826 14.5181 14.0943 13.7925 14.0943C13.0669 14.0943 12.3711 14.3826 11.858 14.8956C11.3449 15.4087 11.0567 16.1046 11.0567 16.8302C11.0567 17.5558 11.3449 18.2516 11.858 18.7647C12.3711 19.2778 13.0669 19.566 13.7925 19.566ZM30.2076 19.566C30.9332 19.566 31.6291 19.2778 32.1422 18.7647C32.6552 18.2516 32.9435 17.5558 32.9435 16.8302C32.9435 16.1046 32.6552 15.4087 32.1422 14.8956C31.6291 14.3826 30.9332 14.0943 30.2076 14.0943C29.482 14.0943 28.7862 14.3826 28.2731 14.8956C27.76 15.4087 27.4718 16.1046 27.4718 16.8302C27.4718 17.5558 27.76 18.2516 28.2731 18.7647C28.7862 19.2778 29.482 19.566 30.2076 19.566Z" fill="#F2F2F4"/>
</symbol><symbol id="apple" viewBox="0 0 53 40">
<path d="M43.3215 29.1492C42.4015 31.1862 41.9615 32.0969 40.78 33.8969C39.1292 36.4108 36.7985 39.5477 33.9169 39.5692C31.3538 39.5908 30.6923 37.8969 27.2138 37.9246C23.7354 37.9415 23.0108 39.6 20.4446 39.5738C17.5631 39.5477 15.3569 36.7215 13.7046 34.2123C9.08461 27.1738 8.59692 18.9246 11.4523 14.5354C13.4723 11.4231 16.6692 9.59538 19.6708 9.59538C22.7277 9.59538 24.6492 11.2754 27.1769 11.2754C29.6292 11.2754 31.1231 9.59077 34.6585 9.59077C37.3323 9.59077 40.16 11.0477 42.18 13.5615C35.5708 17.1831 36.6446 26.6231 43.3215 29.1492ZM31.9754 6.78154C33.2615 5.13077 34.2369 2.80154 33.8831 0.426155C31.7846 0.569232 29.3308 1.90923 27.8969 3.64462C26.5985 5.22462 25.5215 7.57231 25.9415 9.84308C28.2308 9.91692 30.6 8.55231 31.9754 6.78154Z" fill="#F2F2F4"/>
</symbol><symbol id="arrow-next" viewBox="0 0 31 58">
<path d="M1.08184 0.679486C0.647945 1.12371 0.405029 1.72005 0.405029 2.34102C0.405029 2.96199 0.647945 3.55832 1.08184 4.00255L25.3233 28.8708L1.08184 53.734C0.647945 54.1783 0.405029 54.7746 0.405029 55.3956C0.405029 56.0165 0.647945 56.6129 1.08184 57.0571C1.29275 57.2737 1.54491 57.4459 1.82345 57.5634C2.10199 57.681 2.40125 57.7416 2.70358 57.7416C3.0059 57.7416 3.30517 57.681 3.58371 57.5634C3.86224 57.4459 4.11441 57.2737 4.32531 57.0571L30.1039 30.6069C30.5567 30.1424 30.8101 29.5194 30.8101 28.8708C30.8101 28.2221 30.5567 27.5991 30.1039 27.1346L4.32531 0.684462C4.11441 0.467849 3.86224 0.295682 3.58371 0.178124C3.30517 0.0605663 3.0059 0 2.70358 0C2.40125 0 2.10199 0.0605663 1.82345 0.178124C1.54491 0.295682 1.29275 0.467849 1.08184 0.684462V0.679486Z" fill="#696767"/>
</symbol><symbol id="arrow-prev" viewBox="0 0 31 58">
<path d="M26.4847 0.684462L0.706156 27.1297C0.253394 27.5942 0 28.2172 0 28.8658C0 29.5145 0.253394 30.1375 0.706156 30.602L26.4847 57.0571C26.6957 57.2737 26.9478 57.4459 27.2263 57.5634C27.5049 57.681 27.8041 57.7416 28.1065 57.7416C28.4088 57.7416 28.7081 57.681 28.9866 57.5634C29.2651 57.4459 29.5173 57.2737 29.7282 57.0571C30.1621 56.6129 30.405 56.0165 30.405 55.3956C30.405 54.7746 30.1621 54.1783 29.7282 53.734L5.48679 28.8658L29.7282 4.00255C30.1606 3.55855 30.4026 2.96327 30.4026 2.3435C30.4026 1.72374 30.1606 1.12846 29.7282 0.684462C29.5173 0.467849 29.2651 0.295682 28.9866 0.178124C28.7081 0.0605663 28.4088 0 28.1065 0C27.8041 0 27.5049 0.0605663 27.2263 0.178124C26.9478 0.295682 26.6957 0.467849 26.4847 0.684462Z" fill="#696767"/>
</symbol><symbol id="benefit1" viewBox="0 0 71 70">
<path fill-rule="evenodd" clip-rule="evenodd" d="M35.7568 67.9681C17.5491 67.9681 2.78878 53.2078 2.78878 35C2.78878 16.7922 17.5491 2.03194 35.7568 2.03194C53.9646 2.03194 68.7249 16.7922 68.7249 35C68.7249 53.2078 53.9646 67.9681 35.7568 67.9681ZM35.7568 70C16.4269 70 0.756836 54.33 0.756836 35C0.756836 15.67 16.4269 0 35.7568 0C55.0868 0 70.7568 15.67 70.7568 35C70.7568 54.33 55.0868 70 35.7568 70ZM51.74 32.3698C52.0503 32.5523 52.2409 32.8855 52.2409 33.2455V35.349C52.2409 35.6947 52.0651 36.0167 51.7743 36.2036L32.7928 48.406C32.6289 48.5114 32.4382 48.5674 32.2434 48.5674H30.4971C29.936 48.5674 29.4811 48.1125 29.4811 47.5514V29.7403C29.4811 29.1792 29.936 28.7243 30.4971 28.7243H32.4231C32.5607 28.7243 32.6968 28.7523 32.8233 28.8065L41.4168 32.4894C41.7903 32.6495 42.0325 33.0168 42.0325 33.4232V35.0826C42.0325 35.4981 41.7796 35.8717 41.3939 36.0259L35.3795 38.4317L36.1342 40.3183L42.1485 37.9126C43.3057 37.4497 44.0645 36.3289 44.0645 35.0826V33.4232C44.0645 32.2039 43.3379 31.102 42.2172 30.6217L33.6237 26.9388C33.2443 26.7762 32.8359 26.6924 32.4231 26.6924H30.4971C28.8138 26.6924 27.4492 28.057 27.4492 29.7403V47.5514C27.4492 49.2347 28.8138 50.5993 30.4971 50.5993H32.2434C32.8278 50.5993 33.3999 50.4313 33.8916 50.1152L52.8731 37.9128C53.7455 37.352 54.2728 36.3861 54.2728 35.349V33.2455C54.2728 32.1654 53.7012 31.166 52.7702 30.6184L29.4572 16.9048C28.9888 16.6293 28.4553 16.484 27.9119 16.484H23.2054C21.5221 16.484 20.1575 17.8486 20.1575 19.5319V55.4167H22.1895V19.5319C22.1895 18.9708 22.6443 18.516 23.2054 18.516H27.9119C28.093 18.516 28.2708 18.5644 28.427 18.6562L51.74 32.3698Z" fill="#ECEDEE"/>
</symbol><symbol id="benefit2" viewBox="0 0 71 70">
<path fill-rule="evenodd" clip-rule="evenodd" d="M35.1592 67.9681C53.3669 67.9681 68.1272 53.2078 68.1272 35C68.1272 16.7922 53.3669 2.03194 35.1592 2.03194C16.9514 2.03194 2.19112 16.7922 2.19112 35C2.19112 53.2078 16.9514 67.9681 35.1592 67.9681ZM35.1592 70C54.4891 70 70.1592 54.33 70.1592 35C70.1592 15.67 54.4891 0 35.1592 0C15.8292 0 0.15918 15.67 0.15918 35C0.15918 54.33 15.8292 70 35.1592 70ZM32.6854 58.7757H33.7014H43.9098V60.8076H34.7174V64.1667H32.6854V59.7917V58.7757ZM51.2008 45.6507H50.1849V46.6667V54.4007H26.4092H25.3932V55.4167V61.25H27.4252V56.4326H51.2008H52.2168V55.4167V47.6826H57.0342V45.6507H51.2008ZM46.3829 36.016V49.5833V50.5993H45.3669H20.1329V56.875H18.101V49.5833V48.5674H19.1169H44.351V35H45.3669V33.984H52.6586H53.6746V35V39.8174H57.476V24.7917V23.7757H58.4919H61.4086V25.8076H59.5079V40.8333V41.8493H58.4919H52.6586H51.6426V40.8333V36.016H46.3829ZM40.5507 23.3333V43.75V44.766H39.5347H20.5764H19.5604V43.75V40.391H12.8424V46.6667H10.8104V39.375V38.359H11.8264H20.5764H21.5924V39.375V42.734H38.5188V23.3333H40.5507ZM34.7168 13.125V8.75H32.6849V12.109H24.9508H23.9349V13.125V17.9424H16.2008H15.1849V18.9583V32.5257H8.90918V34.5576H16.2008H17.2168V33.5417V19.9743H24.9508H25.9668V18.9583V14.141H33.7008H34.7168V13.125ZM40.5502 11.6667V18.9583V19.9743H39.5342H31.8002V24.7917V25.8076H30.7842H23.0502V32.5257H27.8675H28.8835V33.5417V36.9007H34.1432V30.1826H27.8675V28.1507H35.1592H36.1752V29.1667V37.9167V38.9326H35.1592H27.8675H26.8515V37.9167V34.5576H22.0342H21.0182V33.5417V24.7917V23.7757H22.0342H29.7682V18.9583V17.9424H30.7842H38.5182V11.6667H40.5502ZM42.8932 11.6667V16.0417V17.0576H43.9092H50.1849V19.4007H45.3675H44.3515V20.4167V24.7917V25.8076H45.3675H51.6432V29.609H45.3675V31.641H52.6592H53.6752V30.625V24.7917V23.7757H52.6592H46.3835V21.4326H51.2008H52.2168V20.4167V16.0417V15.0257H51.2008H44.9252V11.6667H42.8932Z" fill="#ECEDEE"/>
</symbol><symbol id="benefit3" viewBox="0 0 71 70">
<path fill-rule="evenodd" clip-rule="evenodd" d="M35.1592 67.9681C53.3669 67.9681 68.1272 53.2078 68.1272 35C68.1272 16.7922 53.3669 2.03194 35.1592 2.03194C16.9514 2.03194 2.19112 16.7922 2.19112 35C2.19112 53.2078 16.9514 67.9681 35.1592 67.9681ZM35.1592 70C54.4891 70 70.1592 54.33 70.1592 35C70.1592 15.67 54.4891 0 35.1592 0C15.8292 0 0.15918 15.67 0.15918 35C0.15918 54.33 15.8292 70 35.1592 70ZM46.0345 24.0005C43.8501 21.8408 41.078 20.3859 38.0764 19.8095V20.7113C40.8437 21.2761 43.3947 22.6343 45.4127 24.6293C47.4703 26.6636 48.8721 29.2595 49.4484 32.0833H50.3498C49.762 29.0217 48.2609 26.2018 46.0345 24.0005ZM47.4631 22.5556C44.899 20.0205 41.6193 18.3438 38.0764 17.7449V15.1569V13.125H36.0445H34.275H32.2431V15.1569V17.7447C28.7422 18.3362 25.4961 19.9806 22.9436 22.4689C20.2843 25.0612 18.5215 28.4293 17.9039 32.0833H15.3161H13.2842V34.1153V35.8847V37.9167H15.3161H17.9039C18.5165 41.5412 20.2562 44.886 22.8824 47.4712C25.4432 49.9921 28.7129 51.6588 32.2431 52.2553V55.1347V57.1666H34.275H36.0445H38.0764V55.1347V52.2551C41.5726 51.6641 44.8149 50.0231 47.366 47.5397C50.03 44.9464 51.7961 41.5749 52.4144 37.9167H55.0017H57.0336V35.8847V34.1153V32.0833H55.0017H52.4144C51.804 28.472 50.0746 25.1376 47.4631 22.5556ZM38.0764 50.1905C41.0371 49.6219 43.7764 48.1983 45.9487 46.0837C48.2209 43.8717 49.7541 41.0193 50.3498 37.9167H49.4484C48.8699 40.7512 47.4597 43.3558 45.3901 45.393C43.3754 47.3762 40.8329 48.7261 38.0764 49.2887V50.1905ZM38.0764 47.2078C40.292 46.6785 42.3301 45.5538 43.9647 43.9449C45.6465 42.2893 46.8224 40.1985 47.3676 37.9167H45.3669V35.8847V34.1153V32.0833H47.3676C46.8246 29.8107 45.6558 27.7271 43.9841 26.0743C42.3466 24.4553 40.3011 23.3237 38.0764 22.7922V24.7917H36.0445H34.275H32.2431V22.7922C30.0778 23.3095 28.0803 24.3958 26.463 25.9499C24.7249 27.6201 23.5092 29.7509 22.9519 32.0833H24.9508V34.1153V35.8847V37.9167H22.9519C23.4746 40.1043 24.5779 42.1199 26.1563 43.745C27.8201 45.458 29.9332 46.656 32.2431 47.2078V45.4999H34.275H36.0445H38.0764V47.2078ZM32.2431 49.2887C29.3754 48.7034 26.7447 47.2672 24.6987 45.1607C22.7517 43.1562 21.427 40.6402 20.871 37.9167H19.9686C20.5586 40.9898 22.0687 43.8189 24.3079 46.0232C26.4893 48.1705 29.2526 49.6167 32.2431 50.1907V49.2887ZM24.3619 23.9239C26.5356 21.8049 29.2783 20.3784 32.2431 19.8093V20.7113C29.5459 21.2618 27.0512 22.5667 25.0551 24.4848C22.9189 26.5376 21.4618 29.1891 20.8711 32.0833H19.9686C20.5635 28.9844 22.0938 26.1349 24.3619 23.9239ZM22.9189 34.1153H15.3161V35.8847H22.9189V34.1153ZM47.3989 34.1153H55.0017V35.8847H47.3989V34.1153ZM36.0445 22.7597V15.1569H34.275V22.7597H36.0445ZM36.0445 47.5319V55.1347H34.275V47.5319H36.0445Z" fill="#ECEDEE"/>
</symbol><symbol id="benefit4" viewBox="0 0 71 70">
<path fill-rule="evenodd" clip-rule="evenodd" d="M68.7854 35C68.7854 53.2078 54.0251 67.9681 35.8174 67.9681C17.6096 67.9681 2.84933 53.2078 2.84933 35C2.84933 16.7922 17.6096 2.03194 35.8174 2.03194C54.0251 2.03194 68.7854 16.7922 68.7854 35ZM70.8174 35C70.8174 54.33 55.1474 70 35.8174 70C16.4874 70 0.817383 54.33 0.817383 35C0.817383 15.67 16.4874 0 35.8174 0C55.1474 0 70.8174 15.67 70.8174 35ZM35.8042 40.2597H35.8312C35.9954 36.8688 37.6073 33.8578 40.0621 31.8315L39.8039 31.3842C38.5599 31.8366 37.2171 32.0833 35.8167 32.0833C34.4172 32.0833 33.0752 31.8369 31.8317 31.385L31.5738 31.8319C34.0283 33.8581 35.64 36.869 35.8042 40.2597ZM41.8316 51.0417C38.6482 49.2752 36.3779 46.0629 35.9076 42.2917H35.7278C35.2575 46.0629 32.9873 49.2752 29.8039 51.0417H41.8316ZM47.4833 52.5L47.484 52.5C53.9274 52.5 59.1507 47.2766 59.1507 40.8333C59.1507 36.5899 56.8852 32.8755 53.4977 30.8339L47.4837 20.4164L47.4834 20.417C47.4834 20.4169 47.4834 20.4168 47.4834 20.4167C47.4834 13.9733 42.26 8.75 35.8167 8.75C29.3734 8.75 24.15 13.9733 24.15 20.4167V20.4202L18.1368 30.8345C14.7498 32.8763 12.4847 36.5903 12.4847 40.8333C12.4847 47.2762 17.7073 52.4993 24.15 52.5H47.4833ZM47.2185 22.9C46.5131 26.1541 44.45 28.9021 41.652 30.5214L41.7411 30.6757C43.4365 29.7151 45.3962 29.1667 47.484 29.1667C48.7324 29.1667 49.935 29.3627 51.0626 29.7258L47.2185 22.9ZM20.4354 29.771L24.4115 22.8841C25.1138 26.1459 27.1799 28.9008 29.9834 30.5226L29.8948 30.676C28.1993 29.7152 26.2394 29.1667 24.1514 29.1667C22.8522 29.1667 21.6025 29.379 20.4354 29.771ZM24.1514 50.4681C28.9767 50.4681 32.9736 46.9208 33.6765 42.2917H25.5348H23.1885L24.3617 40.2597L28.8786 32.4361C27.4821 31.6482 25.8692 31.1986 24.1514 31.1986C18.8303 31.1986 14.5167 35.5122 14.5167 40.8333C14.5167 46.1544 18.8303 50.4681 24.1514 50.4681ZM26.7079 40.2597L30.5405 33.6216C32.3977 35.2682 33.6144 37.6213 33.7693 40.2597H26.7079ZM35.8167 30.0514C34.7879 30.0514 33.7968 29.8901 32.8672 29.5915L35.8181 24.4806L38.7685 29.5908C37.8382 29.8899 36.8463 30.0514 35.8167 30.0514ZM36.9912 22.4486L40.6359 28.7614C43.5147 27.0952 45.4514 23.9821 45.4514 20.4167C45.4514 15.0956 41.1378 10.7819 35.8167 10.7819C30.4956 10.7819 26.182 15.0956 26.182 20.4167C26.182 23.983 28.1196 27.0967 30.9996 28.7626L34.6449 22.4486L35.8181 20.4167L36.9912 22.4486ZM47.484 31.1986C45.7664 31.1986 44.1538 31.6481 42.7573 32.4358L47.2744 40.2597L48.4476 42.2917H46.1013H37.959C38.6618 46.9208 42.6587 50.4681 47.484 50.4681C52.8052 50.4681 57.1188 46.1544 57.1188 40.8333C57.1188 35.5122 52.8052 31.1986 47.484 31.1986ZM44.9282 40.2597L41.0954 33.6212C39.2379 35.2678 38.021 37.6211 37.8661 40.2597H44.9282Z" fill="#ECEDEE"/>
</symbol><symbol id="comment" viewBox="0 0 15 15">
<path fill-rule="evenodd" clip-rule="evenodd" d="M6.5 10.25C6.77614 10.25 7 10.4739 7 10.75V12.7079C9.74874 11.1024 11.4025 9.96659 12.3999 8.97494C12.9787 8.39946 13.2971 7.9087 13.482 7.44074C13.6679 6.97021 13.75 6.44448 13.75 5.75C13.75 3.26472 11.7353 1.25 9.25 1.25H5.75C3.26472 1.25 1.25 3.26472 1.25 5.75C1.25 8.23528 3.26472 10.25 5.75 10.25H6.5ZM7 14.1529C13.6641 10.3177 15 8.74691 15 5.75C15 2.57436 12.4256 0 9.25 0H5.75C2.57436 0 0 2.57436 0 5.75C0 8.92564 2.57436 11.5 5.75 11.5V14.0086C5.75 14.3911 6.16196 14.6318 6.4943 14.4424C6.66618 14.3445 6.83473 14.248 7 14.1529Z" fill="#888888"/>
</symbol><symbol id="heart" viewBox="0 0 16 14">
<path d="M6.0511 0.375254L6.425 0.562194C7.04166 0.870508 7.54167 1.3705 7.85 1.98713C7.9118 2.11073 8.0882 2.11073 8.15 1.98713C8.45833 1.3705 8.95835 0.870508 9.575 0.562194L9.9489 0.375254C10.7078 -0.00419754 11.5775 -0.0996561 12.4007 0.10613C13.1927 0.304123 13.8924 0.768694 14.3822 1.42177L14.5921 1.70156C15.1814 2.48733 15.5 3.44304 15.5 4.42525V4.73774C15.5 5.18554 15.4451 5.63165 15.3365 6.06609L15.2633 6.35877C15.007 7.38382 14.5484 8.3473 13.9144 9.19258L13.4881 9.761C13.1631 10.1943 12.8078 10.604 12.4248 10.9869L11.9924 11.4193C11.0039 12.4077 9.86257 13.2303 8.61225 13.8555C8.22683 14.0482 7.77317 14.0482 7.38775 13.8555C6.13743 13.2303 4.99607 12.4077 4.00761 11.4193L3.57522 10.9869C3.19222 10.604 2.83689 10.1943 2.51191 9.761L2.08558 9.19258C1.45159 8.3473 0.992983 7.38382 0.736708 6.35877L0.663535 6.06609C0.554922 5.63165 0.5 5.18554 0.5 4.73774V4.42525C0.5 3.44304 0.818585 2.48733 1.40794 1.70156L1.61779 1.42177C2.10762 0.768694 2.80733 0.304123 3.59934 0.10613C4.42252 -0.0996561 5.29217 -0.00419754 6.0511 0.375254Z" fill="#888888"/>
</symbol><symbol id="ios" viewBox="0 0 52 26">
<path d="M0.443171 25.4857H4.72659V7.18006H0.443171V25.4857ZM2.57638 4.77953C3.91807 4.77953 4.96737 3.74339 4.96737 2.44827C4.96737 1.13547 3.91807 0.0995331 2.57638 0.0995331C1.2517 0.0995331 0.202393 1.13567 0.202393 2.44827C0.202393 3.74339 1.2517 4.77953 2.57638 4.77953ZM18.9877 0.151127C11.7458 0.151127 7.20418 5.10758 7.20418 13.0345C7.20418 20.9613 11.7454 25.9005 18.9879 25.9005C26.2127 25.9005 30.7543 20.9613 30.7543 13.0345C30.7543 5.10758 26.2131 0.151127 18.9879 0.151127H18.9877ZM18.9877 3.95058C23.4088 3.95058 26.2299 7.47358 26.2299 13.0343C26.2299 18.5778 23.4088 22.101 18.9879 22.101C14.5497 22.101 11.7458 18.578 11.7458 13.0343C11.7458 7.47358 14.5499 3.95058 18.9879 3.95058H18.9877ZM32.5614 18.4742C32.7505 23.0681 36.5006 25.9001 42.2117 25.9001C48.2154 25.9001 52 22.9298 52 18.1978C52 14.4848 49.867 12.3953 44.8267 11.2383L41.9711 10.5822C38.9262 9.85684 37.6705 8.88977 37.6705 7.23186C37.6705 5.15938 39.5627 3.77792 42.3667 3.77792C45.205 3.77792 47.1489 5.17685 47.3555 7.50811H51.5871C51.4839 3.12163 47.8714 0.151127 42.4011 0.151127C36.9996 0.151127 33.1635 3.13869 33.1635 7.55991C33.1635 11.1174 35.3309 13.3278 39.9065 14.3815L43.1234 15.1411C46.2542 15.884 47.5272 16.9201 47.5272 18.7161C47.5272 20.7884 45.4456 22.2737 42.4527 22.2737C39.4252 22.2737 37.1374 20.7712 36.8622 18.4742H32.5614Z" fill="#F2F2F4"/>
</symbol><symbol id="logo" viewBox="0 0 196 36">
<path d="M21.4044 3.1665H3.87135C3.37302 3.17517 2.87756 3.1002 2.41328 2.94588C1.94899 2.79156 1.52499 2.56091 1.16548 2.26711C0.805968 1.9733 0.518 1.6221 0.318024 1.23357C0.118048 0.845029 0.00998239 0.426772 0 0.00268555L25.2758 0.00268555C25.2658 0.426772 25.1577 0.845029 24.9578 1.23357C24.7578 1.6221 24.4698 1.9733 24.1103 2.26711C23.7508 2.56091 23.3268 2.79156 22.8625 2.94588C22.3982 3.1002 21.9028 3.17517 21.4044 3.1665ZM10.2383 27.9488V11.2911C10.2383 8.72088 11.966 6.25953 15.0375 4.44074V27.9488H10.2383Z" fill="#E52529"/>
<path d="M55.9138 0.00268555C55.9138 1.48385 54.1797 2.6873 52.0745 2.6873H32.7945V25.2261H51.9913C54.1605 25.2261 55.9138 26.4459 55.9138 27.9488H28.8719V0.00268555H55.9138ZM51.9337 13.5674H43.8966C40.4045 13.5818 37.0343 12.4754 34.4582 10.4689H51.9337V13.5674Z" fill="#E52529"/>
<path d="M75.4115 25.0517C76.6995 25.0585 77.9762 24.8475 79.1676 24.4309C80.2718 24.0575 81.2786 23.5023 82.1303 22.7973L82.4567 22.4923C83.1357 21.8373 83.9722 21.3141 84.9095 20.958C85.8468 20.602 86.863 20.4214 87.8894 20.4285H87.9598C87.7087 21.5225 87.2036 22.5628 86.474 23.4886C85.7444 24.4143 84.805 25.2068 83.7109 25.8195C81.2831 27.2841 78.3675 28.0475 75.3923 27.9977H63.0999L58.9342 25.0517H75.4115ZM69.4285 3.00845C68.4985 3.00023 67.5747 3.1368 66.7025 3.41141C65.8965 3.66223 65.1586 4.04938 64.5333 4.54951C63.1445 5.62629 61.3246 6.2107 59.4461 6.18315H58.9342C59.4423 4.35693 60.7548 2.76636 62.6008 1.73965C64.605 0.56335 66.9944 -0.0445659 69.4285 0.00254532H83.8261L87.9854 3.00845H69.4285ZM83.007 12.9791C85.7585 14.3695 87.4095 16.2373 87.9598 18.5825H83.6533C83.3569 17.7053 82.7992 16.9081 82.0344 16.2682C81.1854 15.5524 80.1696 14.9959 79.0525 14.6345C77.849 14.2366 76.5682 14.0352 75.2771 14.041H69.518C66.9642 14.0771 64.4609 13.4337 62.3576 12.2004C60.631 11.2343 59.4056 9.74133 58.9342 8.02917H63.2407C63.7055 8.98489 64.5381 9.77788 65.6019 10.2781C66.7849 10.8608 68.1321 11.1583 69.4988 11.1385H75.2579C77.997 11.093 80.6915 11.733 83.007 12.9791Z" fill="#E52529"/>
<path d="M95.3441 0.00268555V16.0396C95.3441 18.4846 93.7124 20.8262 90.8201 22.5742V0.00268555H95.3441ZM117.868 27.9488H90.8137C90.7844 27.0499 91.1757 26.1779 91.9017 25.5244C92.6276 24.8709 93.6287 24.4894 94.685 24.4637H117.862L117.868 27.9488Z" fill="#E52529"/>
<path d="M136.816 0.00268555C137.52 1.2604 137.886 2.63621 137.886 4.02961C137.886 5.42302 137.52 6.79882 136.816 8.05654L125.937 27.9488H121.58L136.816 0.00268555ZM141.538 11.2748L150.56 27.9488H145.992L142.639 21.7846H131.242C132.202 20.0584 134.595 18.9202 137.27 18.9202H141.052L136.969 11.2966L141.538 11.2748Z" fill="#E52529"/>
<g filter="url(#filter0_d_427_5112)">
<path d="M162.533 0.00268555H167.761L191.987 27.9488H186.849L162.533 0.00268555ZM162.597 27.9488L173.795 15.054C174.584 15.8973 175.018 16.941 175.028 18.0187C175.039 19.0965 174.625 20.1462 173.853 21.0004L167.825 27.9488H162.597ZM192 0.00268555L181.192 12.4674C180.442 11.6354 180.036 10.6162 180.036 9.56765C180.036 8.51915 180.442 7.49993 181.192 6.66794L187.022 0.00268555H192Z" fill="#ECECEC"/>
</g>

</symbol><symbol id="money" viewBox="0 0 69 69">
<path d="M38.4242 49.1121C40.0253 49.1121 41.5904 48.6373 42.9217 47.7478C44.2529 46.8582 45.2905 45.5939 45.9032 44.1147C46.5158 42.6355 46.6761 41.0078 46.3637 39.4375C46.0513 37.8672 45.2803 36.4248 44.1481 35.2927C43.0159 34.1606 41.5735 33.3896 40.0032 33.0774C38.4328 32.7651 36.8051 32.9255 35.326 33.5382C33.8468 34.151 32.5825 35.1887 31.6931 36.52C30.8037 37.8513 30.329 39.4164 30.3291 41.0175C30.3317 43.1636 31.1854 45.2211 32.703 46.7386C34.2206 48.2561 36.2781 49.1097 38.4242 49.1121ZM38.4242 34.8086C39.6521 34.8086 40.8524 35.1727 41.8733 35.8549C42.8943 36.537 43.69 37.5066 44.16 38.641C44.6299 39.7754 44.7528 41.0237 44.5133 42.228C44.2738 43.4323 43.6826 44.5385 42.8144 45.4068C41.9462 46.2751 40.84 46.8664 39.6357 47.106C38.4315 47.3456 37.1832 47.2227 36.0487 46.7529C34.9143 46.2831 33.9446 45.4875 33.2624 44.4666C32.5801 43.4457 32.2159 42.2454 32.2158 41.0175C32.2177 39.3715 32.8723 37.7934 34.0362 36.6294C35.2001 35.4654 36.7782 34.8106 38.4242 34.8086Z" fill="inherit"/>
<path d="M65.6006 24.9106H62.9052L62.1134 18.8963C62.0806 18.6483 61.9508 18.4235 61.7524 18.2711C61.554 18.1188 61.3032 18.0515 61.0552 18.0839L58.3809 18.4359L56.8111 12.5758C56.7461 12.3342 56.5879 12.1284 56.3712 12.0033C56.1545 11.8783 55.8971 11.8444 55.6554 11.909L3.15609 25.9785C3.03643 26.0105 2.92425 26.0658 2.82597 26.1412C2.72769 26.2166 2.64523 26.3106 2.5833 26.4179C2.52138 26.5252 2.4812 26.6436 2.46506 26.7665C2.44893 26.8893 2.45715 27.0141 2.48927 27.1337C2.48927 27.1337 10.344 56.4334 10.3461 56.4398C10.4017 56.6367 10.5199 56.81 10.6828 56.9337C10.8457 57.0573 11.0445 57.1245 11.249 57.125H65.6006C65.8507 57.125 66.0907 57.0256 66.2676 56.8487C66.4445 56.6718 66.5439 56.4318 66.5439 56.1816V25.854C66.5439 25.6038 66.4445 25.3638 66.2676 25.1869C66.0907 25.01 65.8507 24.9106 65.6006 24.9106ZM61.0013 24.9106H23.6566L60.3668 20.0779L61.0013 24.9106ZM10.3057 26.668V41.787L8.34942 26.9256L10.3057 26.668ZM56.4942 18.6839L19.4676 23.557L55.2328 13.9757L56.4942 18.6839ZM6.46216 27.0437L8.43567 42.0339L4.5555 27.5542L6.46216 27.0437ZM64.6572 55.2367H12.1924V26.7973H64.6572V55.2367Z" fill="inherit"/>
<path d="M15.6074 48.9935C16.3573 48.994 17.0763 49.292 17.6066 49.8221C18.1369 50.3522 18.4352 51.0711 18.4359 51.8209C18.4359 52.0711 18.5353 52.3111 18.7122 52.488C18.8891 52.6649 19.129 52.7643 19.3792 52.7643H57.4726C57.7228 52.7643 57.9628 52.6649 58.1397 52.488C58.3166 52.3111 58.416 52.0711 58.416 51.8209C58.4167 51.0714 58.7147 50.3527 59.2447 49.8226C59.7747 49.2926 60.4933 48.9944 61.2428 48.9935C61.493 48.9935 61.733 48.8942 61.9099 48.7172C62.0868 48.5403 62.1862 48.3004 62.1862 48.0502V33.9807C62.1863 33.8567 62.1619 33.734 62.1145 33.6196C62.0672 33.5051 61.9977 33.4011 61.9101 33.3134C61.8224 33.2258 61.7184 33.1563 61.6039 33.109C61.4894 33.0616 61.3667 33.0372 61.2428 33.0373C60.4933 33.0366 59.7747 32.7385 59.2447 32.2085C58.7148 31.6786 58.4167 30.96 58.416 30.2104C58.416 29.9603 58.3166 29.7203 58.1397 29.5434C57.9628 29.3665 57.7228 29.2671 57.4726 29.2671H19.3776C19.1274 29.2671 18.8875 29.3665 18.7106 29.5434C18.5337 29.7203 18.4343 29.9603 18.4343 30.2104C18.4336 30.96 18.1355 31.6786 17.6055 32.2085C17.0755 32.7385 16.3569 33.0366 15.6074 33.0373C15.4835 33.0372 15.3608 33.0616 15.2463 33.109C15.1318 33.1563 15.0278 33.2258 14.9402 33.3134C14.8526 33.4011 14.7831 33.5051 14.7357 33.6196C14.6883 33.734 14.664 33.8567 14.6641 33.9807V48.0502C14.6641 48.3004 14.7635 48.5403 14.9404 48.7172C15.1173 48.8942 15.3572 48.9935 15.6074 48.9935ZM16.5492 34.8313C17.4539 34.6451 18.2844 34.198 18.9378 33.5451C19.5913 32.8922 20.0391 32.0622 20.2261 31.1576H56.6225C56.8091 32.0623 57.2566 32.8925 57.9098 33.5457C58.563 34.1988 59.3932 34.6463 60.2979 34.8329V47.2017C59.3931 47.3882 58.5628 47.8358 57.9096 48.4891C57.2564 49.1424 56.8089 49.9728 56.6225 50.8776H20.2261C20.0396 49.9725 19.5919 49.142 18.9384 48.4887C18.2849 47.8354 17.4543 47.388 16.5492 47.2017V34.8313Z" fill="inherit"/>
</symbol><symbol id="more" viewBox="0 0 28 28">
<g clip-path="url(#clip0_474_6989)">
<path d="M13.9997 24.6666C19.8907 24.6666 24.6663 19.891 24.6663 14C24.6663 8.10894 19.8907 3.33331 13.9997 3.33331C8.10864 3.33331 3.33301 8.10894 3.33301 14C3.33301 19.891 8.10864 24.6666 13.9997 24.6666Z" stroke="#696767" stroke-width="1.33333" stroke-linecap="round" stroke-linejoin="round"/>
<path d="M13.9997 15.3333V14L15.885 12.1146C16.3851 11.6147 16.6662 10.9365 16.6663 10.2293V9.99998C16.6663 9.18265 16.205 8.43598 15.4743 8.07065L15.1917 7.92931C14.8215 7.74436 14.4134 7.64807 13.9997 7.64807C13.5859 7.64807 13.1778 7.74436 12.8077 7.92931L12.6663 7.99998C11.849 8.40798 11.333 9.24398 11.333 10.1573V11.3333" stroke="#696767" stroke-width="1.33333" stroke-linecap="round" stroke-linejoin="round"/>
<path d="M13.9993 20.6667C14.7357 20.6667 15.3327 20.0697 15.3327 19.3333C15.3327 18.597 14.7357 18 13.9993 18C13.263 18 12.666 18.597 12.666 19.3333C12.666 20.0697 13.263 20.6667 13.9993 20.6667Z" fill="#696767"/>
</g>
</symbol><symbol id="play" viewBox="0 0 137 137">
<g clip-path="url(#clip0_337_1746)">
<circle cx="68" cy="68" r="50" fill="#151413"/>
<path d="M68.5 137C30.6709 137 0 106.329 0 68.5C0 30.6709 30.6709 0 68.5 0C106.329 0 137 30.6709 137 68.5C137 106.329 106.329 137 68.5 137ZM51.375 34.3014V102.699L102.75 68.5L51.375 34.3014Z" fill="white"/>
</g>

</symbol><symbol id="quote-begin" viewBox="0 0 33 22">
<path d="M24.7496 22C28.8265 22 32.1316 18.6711 32.1316 14.5647C32.1316 10.6169 29.1159 7.33364 25.2573 7.09014C25.4461 5.85913 26.5697 2.76274 29.71 0.00893974C26.1166 -0.207432 16.9769 3.47086 17.2894 14.5647C17.2894 18.6711 20.6726 22 24.7496 22Z" fill="#E9463B"/>
<path d="M8.3364 22C12.4134 22 15.7184 18.6711 15.7184 14.5647C15.7184 10.6169 12.7028 7.33364 8.84416 7.09014C9.03294 5.85913 10.1565 2.76274 13.2968 0.00893974C9.70344 -0.207432 0.563784 3.47086 0.876251 14.5647C0.876251 18.6711 4.25942 22 8.3364 22Z" fill="#E9463B"/>
</symbol><symbol id="retweet" viewBox="0 0 19 15">
<path fill-rule="evenodd" clip-rule="evenodd" d="M4.03033 0.792912C3.73744 0.500019 3.26256 0.500019 2.96967 0.792912L0.381282 3.3813C0.0395728 3.72301 0.0395728 4.27703 0.381282 4.61874C0.72299 4.96045 1.27701 4.96045 1.61872 4.61874L2.625 3.61246V10.5C2.625 12.364 4.13604 13.875 6 13.875H10C10.4832 13.875 10.875 13.4833 10.875 13C10.875 12.5168 10.4832 12.125 10 12.125H6C5.10254 12.125 4.375 11.3975 4.375 10.5V3.61246L5.38128 4.61874C5.72299 4.96045 6.27701 4.96045 6.61872 4.61874C6.96043 4.27703 6.96043 3.72301 6.61872 3.3813L4.03033 0.792912ZM8.625 0.749981C8.14175 0.749981 7.75 1.14173 7.75 1.62498C7.75 2.10823 8.14175 2.49998 8.625 2.49998H12.625C13.5225 2.49998 14.25 3.22752 14.25 4.12498V11.0125L13.2437 10.0063C12.902 9.66455 12.348 9.66455 12.0063 10.0063C11.6646 10.348 11.6646 10.902 12.0063 11.2437L14.5947 13.8321C14.8876 14.125 15.3624 14.125 15.6553 13.8321L18.2437 11.2437C18.5854 10.902 18.5854 10.348 18.2437 10.0063C17.902 9.66455 17.348 9.66455 17.0063 10.0063L16 11.0125V4.12498C16 2.26102 14.489 0.749981 12.625 0.749981H8.625Z" fill="#888888"/>
</symbol><symbol id="share" viewBox="0 0 16 15">
<path fill-rule="evenodd" clip-rule="evenodd" d="M7.77145 0.146447C7.96671 -0.0488154 8.28329 -0.0488157 8.47855 0.146446L12.0669 3.73484C12.311 3.97891 12.311 4.37464 12.0669 4.61872C11.8229 4.8628 11.4271 4.8628 11.1831 4.61872L8.75 2.18566V9.67678C8.75 10.022 8.47018 10.3018 8.125 10.3018C7.77982 10.3018 7.5 10.022 7.5 9.67678V2.18566L5.06694 4.61872C4.82286 4.8628 4.42714 4.8628 4.18306 4.61872C3.93898 4.37464 3.93898 3.97891 4.18306 3.73484L7.77145 0.146447ZM1.125 8.05178C1.47018 8.05178 1.75 8.3316 1.75 8.67678V12.6768C1.75 13.16 2.14175 13.5518 2.625 13.5518H13.625C14.1082 13.5518 14.5 13.16 14.5 12.6768V8.67678C14.5 8.3316 14.7798 8.05178 15.125 8.05178C15.4702 8.05178 15.75 8.3316 15.75 8.67678V12.6768C15.75 13.8504 14.7986 14.8018 13.625 14.8018H2.625C1.4514 14.8018 0.5 13.8504 0.5 12.6768V8.67678C0.5 8.3316 0.779822 8.05178 1.125 8.05178Z" fill="#888888"/>
</symbol><symbol id="wallet" viewBox="0 0 40 32">
<path d="M37.5 0.5H2.5C1.39543 0.5 0.5 1.39543 0.5 2.5V29.5C0.5 30.6046 1.39543 31.5 2.5 31.5H37.5C38.6046 31.5 39.5 30.6046 39.5 29.5V2.5C39.5 1.39543 38.6046 0.5 37.5 0.5Z" stroke="black" stroke-linecap="round" stroke-linejoin="round"/>
<path d="M14.34 8.8C13.387 8.80265 12.4738 9.1831 11.8009 9.85794C11.1279 10.5328 10.75 11.447 10.75 12.4V12.4C10.75 13.353 11.1279 14.2672 11.8009 14.9421C12.4738 15.6169 13.387 15.9974 14.34 16H15.56M15.56 16H16.78C17.2523 16 17.7199 16.0932 18.1561 16.2742C18.5924 16.4553 18.9886 16.7206 19.3221 17.055C19.6555 17.3894 19.9198 17.7864 20.0996 18.2231C20.2794 18.6598 20.3713 19.1277 20.37 19.6C20.3713 20.0723 20.2794 20.5402 20.0996 20.9769C19.9198 21.4136 19.6555 21.8106 19.3221 22.145C18.9886 22.4794 18.5924 22.7447 18.1561 22.9258C17.7199 23.1068 17.2523 23.2 16.78 23.2M20 10C19 9.17 17.94 8.79 15.53 8.79H14.34M11.09 22C12.09 22.83 13.16 23.21 15.56 23.21H16.78M15.56 25V7M32.35 12.4H39.5V19.6H32.35C31.5941 19.6 30.8692 19.2997 30.3347 18.7653C29.8003 18.2308 29.5 17.5059 29.5 16.75V15.25C29.5 14.4941 29.8003 13.7692 30.3347 13.2347C30.8692 12.7003 31.5941 12.4 32.35 12.4Z" stroke="black" stroke-linecap="round" stroke-linejoin="round"/>
<path d="M32.47 16.7999C32.9119 16.7999 33.27 16.4418 33.27 16C33.27 15.5581 32.9119 15.2 32.47 15.2C32.0282 15.2 31.67 15.5581 31.67 16C31.67 16.4418 32.0282 16.7999 32.47 16.7999Z" fill="black"/>
</symbol><symbol id="windows" viewBox="0 0 53 40">
<path d="M22.8875 3.4375L6.5 5.5925V19.2175H22.8875V3.4375ZM6.5 34.4875L22.8875 36.82V20.7825H6.5V34.4875ZM24.695 20.9875L24.76 36.9325L46.5 40V20.9875H24.695ZM46.5 0L24.825 3.11V19.145H46.5V0Z" fill="#F2F2F4"/>
</symbol></svg>