<svg xmlns="http://www.w3.org/2000/svg" xmlns:xlink="http://www.w3.org/1999/xlink" width="78" height="28" viewBox="0 0 78 28"><defs><linearGradient id="a" x1="0.26" y1="0.189" x2="0.71" y2="0.97" gradientUnits="objectBoundingBox"><stop offset="0" stop-color="#e41f13"/><stop offset="1" stop-color="#e30613"/></linearGradient><linearGradient id="b" x1="0.022" y1="0.226" x2="0.851" y2="0.729" gradientUnits="objectBoundingBox"><stop offset="0" stop-color="#e42313"/><stop offset="1" stop-color="#e41f13"/></linearGradient><linearGradient id="c" x1="0.98" y1="0.213" x2="0.148" y2="0.749" gradientUnits="objectBoundingBox"><stop offset="0" stop-color="#e42313"/><stop offset="1" stop-color="#e52d12"/></linearGradient><linearGradient id="d" x1="0.718" y1="0.139" x2="0.232" y2="0.948" gradientUnits="objectBoundingBox"><stop offset="0" stop-color="#e52d12"/><stop offset="1" stop-color="#e74018"/></linearGradient><linearGradient id="e" x1="0.223" y1="0.021" x2="0.732" y2="0.88" gradientUnits="objectBoundingBox"><stop offset="0" stop-color="#e74018"/><stop offset="1" stop-color="#e84617"/></linearGradient><linearGradient id="f" x1="0.135" y1="0.293" x2="0.969" y2="0.756" gradientUnits="objectBoundingBox"><stop offset="0" stop-color="#e84617"/><stop offset="1" stop-color="#ea561f"/></linearGradient><linearGradient id="g" x1="0.05" y1="1.04" x2="0.736" y2="0.086" gradientUnits="objectBoundingBox"><stop offset="0.27" stop-color="#ea561f"/><stop offset="1" stop-color="#e9531e" stop-opacity="0"/></linearGradient><linearGradient id="h" x1="0.659" y1="0.844" x2="0.278" y2="0.249" gradientUnits="objectBoundingBox"><stop offset="0" stop-color="#006fb9"/><stop offset="1" stop-color="#0078c0"/></linearGradient><linearGradient id="i" x1="0.789" y1="0.676" x2="0.098" y2="0.274" gradientUnits="objectBoundingBox"><stop offset="0" stop-color="#0078c0"/><stop offset="1" stop-color="#0085ca"/></linearGradient><linearGradient id="j" x1="0.201" y1="0.693" x2="0.903" y2="0.275" gradientUnits="objectBoundingBox"><stop offset="0" stop-color="#0091d0"/><stop offset="1" stop-color="#0085ca"/></linearGradient><linearGradient id="k" x1="0.276" y1="0.893" x2="0.68" y2="0.206" gradientUnits="objectBoundingBox"><stop offset="0" stop-color="#009dd7"/><stop offset="1" stop-color="#0091d0"/></linearGradient><linearGradient id="l" x1="0.273" y1="0.1" x2="0.692" y2="0.792" gradientUnits="objectBoundingBox"><stop offset="0" stop-color="#009dd7"/><stop offset="1" stop-color="#00a9dd"/></linearGradient><linearGradient id="m" x1="0.144" y1="0.295" x2="0.887" y2="0.723" gradientUnits="objectBoundingBox"><stop offset="0.006" stop-color="#00a9dd"/><stop offset="0.942" stop-color="#70c5e9"/></linearGradient><linearGradient id="n" x1="0.001" y1="1.164" x2="0.742" y2="0.036" gradientUnits="objectBoundingBox"><stop offset="0.319" stop-color="#70c5e9"/><stop offset="1" stop-color="#70c5e9" stop-opacity="0"/></linearGradient><linearGradient id="o" x1="0.5" y1="0.009" x2="0.5" y2="1.002" gradientUnits="objectBoundingBox"><stop offset="0" stop-color="#009767"/><stop offset="1" stop-color="#73ba64"/></linearGradient><linearGradient id="p" x1="0.452" y1="0.396" x2="0.932" y2="0.731" gradientUnits="objectBoundingBox"><stop offset="0" stop-color="#73ba64"/><stop offset="1" stop-color="#73ba64" stop-opacity="0"/></linearGradient><linearGradient id="q" x1="-0.006" y1="0.501" x2="0.998" y2="0.501" gradientUnits="objectBoundingBox"><stop offset="0.005" stop-color="#e60064"/><stop offset="0.996" stop-color="#e54c88"/></linearGradient><linearGradient id="r" x1="0.502" y1="0.393" x2="0.502" y2="0.962" gradientUnits="objectBoundingBox"><stop offset="0.021" stop-color="#e54c88"/><stop offset="1" stop-color="#e54c88" stop-opacity="0"/></linearGradient></defs><g transform="translate(0 0)"><path d="M29.327,22.4h3.339a10.934,10.934,0,0,0-3.1-5.9L27.3,18.826A7.405,7.405,0,0,1,29.327,22.4Z" transform="translate(-11.166 -6.905)" fill="url(#a)"/><path d="M18.26,14.48a7.621,7.621,0,0,1,5.426,2.266l2.326-2.326a10.916,10.916,0,0,0-7.692-3.22H18.2v3.28Z" transform="translate(-7.347 -4.685)" fill="url(#b)"/><path d="M13.052,14.48V11.2A10.759,10.759,0,0,0,5.3,14.48l2.326,2.266A7.658,7.658,0,0,1,13.052,14.48Z" transform="translate(-2.14 -4.685)" fill="url(#c)"/><path d="M3.28,24.352a7.519,7.519,0,0,1,2.266-5.426L3.22,16.6A10.708,10.708,0,0,0,0,24.352v.119H3.28Z" transform="translate(0 -6.971)" fill="url(#d)"/><path d="M3.28,29.6H0a11,11,0,0,0,3.28,7.812l2.266-2.326A7.656,7.656,0,0,1,3.28,29.6Z" transform="translate(0 -12.513)" fill="url(#e)"/><path d="M13.052,40.866A7.621,7.621,0,0,1,7.626,38.6L5.3,40.926a10.916,10.916,0,0,0,7.692,3.22h.119v-3.28Z" transform="translate(-2.14 -16.146)" fill="url(#f)"/><g transform="translate(10.853 21.739)"><path d="M24.282,37.4A7.487,7.487,0,0,1,18.2,40.382v3.28a10.788,10.788,0,0,0,8.647-4.293Z" transform="translate(-18.2 -37.4)" fill="url(#g)"/></g><path d="M109.027,22.4h3.339a10.934,10.934,0,0,0-3.1-5.9L107,18.826A7.914,7.914,0,0,1,109.027,22.4Z" transform="translate(-43.848 -6.905)" fill="url(#h)"/><path d="M97.86,14.48a7.621,7.621,0,0,1,5.426,2.266l2.326-2.326a10.916,10.916,0,0,0-7.692-3.22H97.8v3.28Z" transform="translate(-40.019 -4.685)" fill="url(#i)"/><path d="M92.652,14.48V11.2A10.759,10.759,0,0,0,84.9,14.48l2.326,2.266A7.658,7.658,0,0,1,92.652,14.48Z" transform="translate(-34.74 -4.685)" fill="url(#j)"/><path d="M82.88,24.352a7.519,7.519,0,0,1,2.266-5.426L82.82,16.6a10.916,10.916,0,0,0-3.22,7.692v.119h3.28Z" transform="translate(-32.558 -6.97)" fill="url(#k)"/><path d="M82.88,29.6H79.6a11,11,0,0,0,3.28,7.812l2.266-2.326A7.909,7.909,0,0,1,82.88,29.6Z" transform="translate(-32.558 -12.513)" fill="url(#l)"/><path d="M92.692,40.866A7.621,7.621,0,0,1,87.266,38.6L85,40.926a10.916,10.916,0,0,0,7.692,3.22h.119v-3.28Z" transform="translate(-34.781 -16.146)" fill="url(#m)"/><g transform="translate(57.725 21.739)"><path d="M103.982,37.4A7.487,7.487,0,0,1,97.9,40.382v3.28a10.788,10.788,0,0,0,8.646-4.293Z" transform="translate(-97.9 -37.4)" fill="url(#n)"/></g><rect width="3.28" height="9.839" transform="translate(71.739 11.047)" fill="url(#o)"/><path d="M124.72,35.6c0,2.326,1.073,3.339,2.982,4.651l-1.849,2.683c-2.8-1.849-4.353-3.876-4.353-7.335Z" transform="translate(-49.702 -14.935)" fill="url(#p)"/><g transform="translate(27.947 6.48)"><path d="M54.515,11.26A10.188,10.188,0,0,0,47.3,14.241V20.86c.417-2.624,2.743-6.381,7.215-6.381h.239V11.2A.451.451,0,0,1,54.515,11.26Z" transform="translate(-47.3 -11.2)" fill="url(#q)"/></g><path d="M68.445,21.337h-3.28V20.264A5.766,5.766,0,0,0,59.5,14.48V11.2a8.984,8.984,0,0,1,8.945,9Z" transform="translate(-24.352 -4.726)" fill="url(#r)"/><rect width="3.28" height="11.39" transform="translate(24.71 7.382)" fill="#bcbcb6"/><rect width="3.28" height="11.39" transform="translate(71.739)" fill="#bcbcb6"/><rect width="3.28" height="11.39" transform="translate(40.848 16.253)" fill="#bcbcb6"/><rect width="11.39" height="3.28" transform="translate(10.257 15.392)" fill="#bcbcb6"/><rect width="11.39" height="3.28" transform="translate(57.129 15.392)" fill="#bcbcb6"/></g></svg>