<?xml version="1.0" standalone="no"?>
<!DOCTYPE svg PUBLIC "-//W3C//DTD SVG 20010904//EN"
 "http://www.w3.org/TR/2001/REC-SVG-20010904/DTD/svg10.dtd">
<svg version="1.0" xmlns="http://www.w3.org/2000/svg"
 width="300.000000pt" height="300.000000pt" viewBox="0 0 300.000000 300.000000"
 preserveAspectRatio="xMidYMid meet">

<g transform="translate(0.000000,300.000000) scale(0.100000,-0.100000)"
fill="#fff" stroke="none">
<path d="M1360 2515 c-217 -44 -403 -178 -496 -358 l-39 -76 50 -51 49 -50
-59 0 -59 0 34 -35 34 -35 -39 0 -38 0 23 -25 23 -25 -23 0 -24 0 29 -30 29
-30 -29 0 -28 0 23 -25 c21 -23 22 -25 5 -25 -16 0 -13 -6 15 -35 32 -33 38
-35 97 -35 l64 0 -57 -70 c-31 -38 -54 -76 -51 -82 11 -31 99 -127 151 -166
66 -50 169 -103 246 -127 82 -25 276 -31 370 -11 217 46 422 210 497 398 l17
42 -49 43 -49 43 57 0 c31 0 57 3 57 7 0 3 -15 19 -32 34 l-33 28 39 1 39 0
-21 23 c-28 29 -28 37 1 37 21 1 21 1 -5 23 -35 29 -35 37 -1 37 l27 0 -22 16
c-26 18 -29 34 -4 34 12 0 7 8 -18 28 -26 20 -49 28 -93 32 l-59 5 52 69 c61
80 61 81 -25 174 -166 180 -433 266 -675 217z m345 -69 c44 -14 109 -42 144
-63 66 -40 169 -132 190 -170 l12 -23 -120 0 -120 0 -110 -131 -111 -131 0
-184 0 -184 25 0 c23 0 25 4 25 43 0 56 28 100 82 126 77 37 170 19 227 -43
22 -23 32 -26 93 -26 67 0 69 -1 62 -22 -16 -52 -62 -118 -135 -190 -127 -126
-280 -188 -470 -188 -191 0 -340 61 -474 195 l-80 80 121 3 122 3 111 133 111
134 0 186 0 186 -25 0 c-23 0 -25 -3 -25 -49 0 -84 -67 -142 -164 -143 -59 -1
-117 23 -145 58 -17 21 -27 24 -90 24 -45 0 -71 4 -71 11 0 33 73 142 138 206
57 57 92 82 165 117 50 24 117 49 147 55 30 6 64 13 75 15 51 12 213 -4 290
-28z m-667 -406 c15 -24 75 -55 124 -64 50 -9 115 9 161 45 50 40 50 12 0 -30
-78 -65 -201 -78 -291 -32 -23 12 -52 21 -65 21 -14 0 -38 16 -62 40 l-39 40
80 0 c68 0 81 -3 92 -20z m1097 -20 c18 -20 17 -20 -136 -20 -167 0 -223 -10
-316 -55 -65 -32 -80 -27 -26 9 85 56 198 83 359 85 89 1 103 -1 119 -19z
m-801 -67 c-71 -57 -192 -82 -283 -59 -35 9 -81 16 -103 16 -39 0 -98 30 -98
51 0 5 31 9 70 9 51 0 80 -6 110 -21 86 -45 222 -33 295 25 18 15 32 20 34 13
2 -6 -9 -21 -25 -34z m812 16 l19 -22 -150 7 c-170 8 -228 0 -318 -44 -67 -34
-72 -17 -6 20 75 42 161 59 305 59 121 1 132 -1 150 -20z m-786 -34 c0 -38
-181 -100 -268 -91 -31 3 -91 8 -132 11 -74 6 -120 20 -120 37 0 14 140 9 198
-8 84 -25 168 -15 251 29 36 19 67 35 69 36 1 1 2 -6 2 -14z m780 -21 l25 -24
-70 0 c-38 0 -105 5 -149 11 -96 14 -166 3 -251 -40 -45 -23 -55 -25 -53 -12
4 21 105 69 181 86 42 9 98 12 177 8 104 -5 117 -8 140 -29z m-780 -28 c0 -19
-88 -61 -169 -82 -91 -23 -311 -12 -337 17 -17 19 -15 20 177 17 l194 -3 60
31 c72 37 75 38 75 20z m785 -28 l20 -20 -105 7 c-215 15 -290 12 -340 -14
-25 -13 -53 -31 -64 -40 -17 -15 -18 -15 -15 4 5 22 62 58 129 80 36 12 78 14
200 9 138 -5 157 -8 175 -26z m-785 -18 c0 -13 -95 -60 -155 -76 -73 -20 -325
-19 -351 1 -17 13 -1 15 151 13 148 -1 178 2 235 20 36 12 74 28 85 36 23 18
35 20 35 6z m615 -5 c22 -8 61 -15 86 -15 36 0 51 -5 69 -25 l23 -25 -75 0
c-55 0 -88 6 -124 21 -94 42 -236 21 -289 -42 l-20 -23 25 17 c93 65 200 77
296 33 31 -14 64 -26 73 -26 10 0 32 -16 51 -35 l34 -35 -75 0 c-65 0 -79 3
-95 21 -28 32 -93 59 -144 59 -51 0 -117 -27 -147 -59 l-20 -22 0 41 c0 35 5
45 32 66 76 58 213 80 300 49z m-595 -30 c0 -9 -89 -56 -146 -76 -82 -30 -352
-40 -373 -15 -12 15 -1 16 126 16 150 0 265 21 327 59 29 18 66 27 66 16z"/>
<path d="M1123 2230 c-90 -55 -74 -181 28 -211 78 -24 156 23 166 99 13 101
-103 168 -194 112z m126 -56 c27 -35 26 -59 -4 -89 -39 -40 -96 -32 -120 16
-27 51 7 98 72 99 22 0 38 -8 52 -26z"/>
<path d="M1440 1870 l0 -310 60 0 60 0 0 310 0 310 -60 0 -60 0 0 -310z"/>
<path d="M1734 1701 c-58 -36 -70 -127 -23 -177 64 -69 191 -45 219 41 16 49
4 89 -36 125 -28 24 -44 30 -82 30 -28 0 -59 -8 -78 -19z m125 -44 c54 -44 15
-127 -60 -127 -27 0 -69 44 -69 73 0 23 31 59 60 70 18 6 50 -1 69 -16z"/>
<path d="M418 885 c-38 -87 -43 -105 -29 -105 12 0 17 8 16 28 0 24 4 27 37
30 29 2 39 -1 48 -18 6 -11 8 -25 5 -30 -4 -6 9 -10 29 -10 l35 0 -38 83 c-20
45 -41 92 -47 105 -8 19 -15 10 -56 -83z m35 -33 c-34 -5 -38 2 -23 39 l13 31
18 -33 17 -34 -25 -3z"/>
<path d="M605 885 c0 -63 4 -105 10 -105 6 0 9 24 7 58 -2 32 -2 73 0 92 3 32
6 28 42 -59 l39 -93 13 30 c11 26 10 36 -1 59 -8 15 -23 49 -34 76 -17 40 -24
47 -48 47 l-28 0 0 -105z"/>
<path d="M765 954 c-19 -46 -19 -57 0 -24 14 23 15 19 13 -63 l-3 -87 30 0 30
0 0 105 0 105 -27 0 c-22 0 -31 -7 -43 -36z"/>
<path d="M913 955 c-33 -33 -35 -39 -30 -82 5 -49 40 -93 74 -93 14 0 14 3 -2
20 -23 26 -31 115 -13 150 19 36 62 39 84 6 23 -36 16 -143 -11 -162 -18 -13
-18 -14 2 -14 34 0 73 55 73 101 0 51 -13 75 -50 94 -49 25 -88 19 -127 -20z"/>
<path d="M1135 885 l0 -105 30 0 c30 0 30 0 27 50 l-4 50 37 0 37 0 -4 -50
c-3 -50 -3 -50 27 -50 l30 0 0 105 0 105 -30 0 c-30 0 -30 0 -27 -50 l4 -50
-37 0 -37 0 4 50 c3 50 3 50 -27 50 l-30 0 0 -105z"/>
<path d="M1439 952 c-20 -54 -22 -59 -10 -42 8 12 12 9 21 -14 6 -16 13 -33
16 -37 3 -5 -9 -9 -26 -9 -28 0 -31 2 -24 23 10 33 -1 18 -29 -40 -22 -47 -23
-53 -8 -53 12 0 17 8 16 28 0 25 3 27 43 30 43 3 46 0 45 -45 -1 -8 12 -13 32
-13 l34 0 -45 102 c-24 56 -46 103 -47 105 -2 1 -10 -14 -18 -35z"/>
<path d="M1557 983 c-4 -3 -7 -15 -7 -25 0 -17 1 -17 20 2 11 11 27 20 36 20
13 0 15 -15 12 -100 l-3 -100 30 0 30 0 -3 100 c-4 106 2 117 40 83 17 -15 18
-15 18 5 0 21 -5 22 -83 22 -46 0 -87 -3 -90 -7z"/>
<path d="M1768 981 c10 -6 13 -33 10 -105 l-3 -96 63 0 c64 0 102 20 102 55 0
27 -38 55 -75 55 -35 0 -35 0 -35 46 l0 47 37 -6 c20 -4 40 -12 45 -19 5 -9 8
-6 8 10 0 21 -4 22 -82 22 -49 0 -78 -4 -70 -9z m107 -125 c20 -30 6 -66 -25
-66 -17 0 -20 7 -20 45 0 52 19 61 45 21z"/>
<path d="M2001 964 c-36 -30 -49 -81 -31 -125 14 -32 45 -59 69 -59 11 0 10 4
-4 20 -43 48 -22 180 29 180 37 0 56 -35 56 -102 0 -45 -5 -63 -20 -78 -19
-19 -19 -20 -1 -20 32 0 71 56 71 101 0 51 -13 75 -50 94 -43 22 -84 19 -119
-11z"/>
<path d="M2215 885 l0 -105 30 0 c30 0 30 0 27 50 l-4 50 37 0 37 0 -4 -50
c-3 -50 -3 -50 27 -50 l30 0 0 105 0 105 -30 0 c-30 0 -30 0 -27 -50 l4 -50
-37 0 -37 0 4 50 c3 50 3 50 -27 50 l-30 0 0 -105z"/>
<path d="M2455 885 l0 -105 30 0 c30 0 30 0 26 52 -3 45 -1 51 11 40 8 -6 23
-30 33 -52 15 -33 23 -40 46 -40 l28 0 -21 38 c-12 20 -28 44 -35 54 -12 13
-12 23 -2 57 13 44 23 50 37 25 10 -18 32 -11 32 11 0 19 -38 29 -54 15 -8 -6
-17 -23 -21 -38 -8 -34 -23 -52 -42 -52 -12 0 -14 11 -11 50 3 50 3 50 -27 50
l-30 0 0 -105z"/>
<path d="M736 885 c-9 -26 -7 -32 5 -12 6 10 9 21 6 23 -2 3 -7 -2 -11 -11z"/>
<path d="M650 650 c0 -32 4 -40 19 -40 22 0 45 25 36 40 -3 5 -15 10 -26 10
-26 0 -24 18 4 23 19 4 18 4 -5 6 -26 1 -28 -2 -28 -39z m38 -12 c-6 -18 -28
-21 -28 -4 0 9 7 16 16 16 9 0 14 -5 12 -12z"/>
<path d="M723 654 c-3 -8 2 -23 11 -32 14 -15 18 -15 31 -1 9 9 13 23 9 32 -8
21 -43 22 -51 1z m37 -14 c0 -11 -4 -20 -9 -20 -14 0 -23 18 -16 30 10 17 25
11 25 -10z"/>
<path d="M792 640 c0 -19 2 -27 5 -17 2 9 11 17 18 17 7 0 16 -8 18 -17 3 -10
5 -2 5 17 0 19 -2 29 -5 23 -2 -7 -11 -13 -18 -13 -7 0 -16 6 -18 13 -3 6 -5
-4 -5 -23z"/>
<path d="M860 643 c0 -18 2 -33 4 -33 9 0 13 39 5 51 -6 10 -9 4 -9 -18z"/>
<path d="M880 659 c0 -5 5 -7 10 -4 6 3 10 8 10 11 0 2 -4 4 -10 4 -5 0 -10
-5 -10 -11z"/>
<path d="M911 648 c-1 -31 16 -38 26 -10 6 14 8 13 14 -8 6 -23 7 -22 8 9 1
33 0 34 -18 17 -18 -17 -19 -17 -24 1 -3 12 -5 9 -6 -9z"/>
<path d="M1017 653 c-2 -10 -8 -25 -11 -33 -5 -12 2 -15 29 -15 25 0 34 4 30
13 -3 8 -5 22 -5 33 0 24 -36 26 -43 2z m33 -13 c0 -19 -11 -26 -23 -14 -8 8
3 34 14 34 5 0 9 -9 9 -20z"/>
<path d="M1093 663 c18 -5 18 -5 0 -18 -15 -11 -16 -16 -5 -27 11 -11 12 -10
7 5 -8 19 10 24 18 5 3 -7 6 -1 6 15 1 22 -3 27 -21 26 -19 -1 -19 -2 -5 -6z"/>
<path d="M1140 639 c0 -26 3 -30 23 -27 16 2 23 11 25 31 3 23 0 27 -22 27
-22 0 -26 -4 -26 -31z m37 15 c-3 -3 -12 -4 -19 -1 -8 3 -5 6 6 6 11 1 17 -2
13 -5z m3 -24 c0 -5 -4 -10 -9 -10 -6 0 -13 5 -16 10 -3 6 1 10 9 10 9 0 16
-4 16 -10z"/>
<path d="M1211 638 c1 -30 2 -30 8 -9 9 35 29 37 34 4 4 -27 4 -27 6 5 1 28
-2 32 -24 32 -22 0 -25 -4 -24 -32z"/>
<path d="M1294 661 c18 -7 18 -8 3 -14 -18 -7 -24 -37 -7 -37 5 0 7 7 4 15 -4
8 -2 15 4 15 6 0 13 -6 15 -12 3 -7 6 -1 6 15 1 22 -3 27 -21 26 -21 0 -21 -1
-4 -8z"/>
<path d="M1336 662 c7 -4 14 -18 17 -32 l4 -25 2 27 c0 14 7 29 14 31 6 3 -1
6 -18 6 -16 0 -25 -3 -19 -7z"/>
<path d="M1391 648 c-1 -28 12 -37 24 -18 3 6 2 10 -4 10 -5 0 -12 8 -14 18
-3 10 -5 6 -6 -10z"/>
<path d="M1426 661 c-4 -5 -2 -20 3 -33 9 -21 10 -21 10 10 1 32 -3 39 -13 23z"/>
<path d="M1461 640 l0 -35 19 23 19 22 4 -22 c3 -16 5 -13 6 11 1 33 0 34 -18
17 -18 -17 -19 -17 -24 1 -3 10 -5 2 -6 -17z"/>
<path d="M1573 663 c18 -5 18 -5 0 -18 -15 -11 -16 -16 -5 -27 11 -11 12 -10
7 5 -8 19 10 24 18 5 3 -7 6 -1 6 15 1 22 -3 27 -21 26 -19 -1 -19 -2 -5 -6z"/>
<path d="M1621 638 c1 -19 3 -25 6 -15 5 18 5 18 19 0 10 -14 13 -15 13 -3 0
16 -22 50 -33 50 -3 0 -5 -15 -5 -32z"/>
<path d="M1665 660 c-3 -5 -1 -18 4 -27 9 -16 10 -14 11 10 0 28 -5 34 -15 17z"/>
<path d="M1707 664 c-13 -13 -7 -42 10 -48 21 -8 36 6 31 30 -3 19 -29 30 -41
18z m31 -21 c-4 -22 -22 -20 -26 1 -2 10 3 16 13 16 10 0 15 -7 13 -17z"/>
<path d="M1772 640 c0 -19 2 -27 5 -17 5 20 14 22 31 5 9 -9 12 -5 11 18 0 16
-3 23 -6 17 -2 -7 -11 -13 -18 -13 -7 0 -16 6 -18 13 -3 6 -5 -4 -5 -23z"/>
<path d="M1855 661 c19 -8 19 -8 -3 -15 -28 -9 -24 -31 6 -32 18 -1 22 4 22
27 0 24 -4 29 -22 28 -22 0 -22 -1 -3 -8z m15 -25 c0 -3 -4 -8 -10 -11 -5 -3
-10 -1 -10 4 0 6 5 11 10 11 6 0 10 -2 10 -4z"/>
<path d="M1896 662 c7 -4 14 -18 17 -32 l4 -25 2 27 c0 14 7 29 14 31 6 3 -1
6 -18 6 -16 0 -25 -3 -19 -7z"/>
<path d="M1951 638 c2 -31 2 -31 6 -5 3 18 10 27 23 27 23 0 37 -49 18 -61
-10 -7 -10 -9 -1 -9 7 0 19 13 28 30 18 35 20 65 1 31 -13 -23 -13 -23 -19 -2
-3 15 -13 21 -31 21 -23 0 -26 -4 -25 -32z"/>
<path d="M2068 663 c6 -2 12 -13 12 -24 0 -13 -5 -17 -17 -12 -14 4 -15 3 -7
-6 6 -6 17 -9 26 -6 20 8 11 55 -11 54 -10 0 -11 -2 -3 -6z"/>
<path d="M2117 664 c-13 -13 -7 -42 10 -48 21 -8 36 6 31 30 -3 19 -29 30 -41
18z m31 -21 c-4 -22 -22 -20 -26 1 -2 10 3 16 13 16 10 0 15 -7 13 -17z"/>
<path d="M2181 628 c0 -24 3 -36 7 -28 4 8 14 15 22 15 9 0 15 9 15 25 0 18
-6 26 -22 28 -21 3 -23 -1 -22 -40z m37 15 c-4 -22 -22 -20 -26 1 -2 10 3 16
13 16 10 0 15 -7 13 -17z"/>
<path d="M2250 638 c0 -23 3 -29 9 -19 8 12 4 51 -5 51 -2 0 -4 -15 -4 -32z"/>
<path d="M2276 661 c-8 -12 3 -41 15 -41 5 0 9 11 9 25 0 25 -14 34 -24 16z"/>
<path d="M2311 648 c-1 -28 12 -37 24 -18 3 6 2 10 -4 10 -5 0 -12 8 -14 18
-3 10 -5 6 -6 -10z"/>
<path d="M2346 661 c-4 -5 -2 -20 3 -33 9 -21 10 -21 10 10 1 32 -3 39 -13 23z"/>
<path d="M880 631 c0 -5 5 -13 10 -16 6 -3 10 -2 10 4 0 5 -4 13 -10 16 -5 3
-10 2 -10 -4z"/>
<path d="M921 553 c-1 -16 6 -24 23 -29 13 -3 27 -15 30 -27 9 -36 15 -14 9
33 -5 37 -7 40 -14 22 -11 -28 -27 -28 -39 1 l-9 22 0 -22z"/>
<path d="M1473 563 c11 -3 18 -15 18 -36 l2 -32 4 30 c3 16 10 33 16 37 7 4
-4 7 -23 7 -19 -1 -27 -3 -17 -6z"/>
<path d="M1004 513 c1 -24 4 -43 9 -43 4 0 7 2 7 4 0 2 7 20 15 40 9 21 11 36
5 36 -5 0 -10 -7 -10 -15 0 -21 -18 -19 -23 3 -2 9 -3 -2 -3 -25z"/>
<path d="M1061 523 c0 -16 3 -22 6 -14 4 11 7 11 13 0 7 -10 11 -10 24 0 9 8
16 21 16 30 -1 14 -3 13 -15 -3 -13 -17 -15 -17 -21 -3 -10 26 -24 20 -23 -10z"/>
<path d="M1144 519 c-1 -23 2 -27 12 -18 9 7 15 5 23 -8 9 -16 10 -16 11 -1 0
9 -5 20 -10 23 -8 5 -8 11 0 20 8 9 5 12 -12 12 -18 0 -23 -5 -24 -28z"/>
<path d="M1201 545 c0 -5 4 -19 8 -30 5 -11 4 -25 -1 -32 -7 -9 -7 -13 1 -13
14 0 45 69 36 78 -3 3 -9 -4 -12 -17 l-6 -23 -13 23 c-7 13 -13 20 -13 14z"/>
<path d="M1260 516 c0 -19 5 -38 10 -41 6 -4 10 8 10 29 0 20 5 36 11 36 7 0
9 -11 6 -26 -4 -22 -3 -24 10 -12 19 20 6 48 -23 48 -21 0 -24 -5 -24 -34z"/>
<path d="M1331 528 c-1 -31 16 -38 26 -10 6 14 8 13 14 -8 6 -23 7 -22 8 9 1
33 0 34 -18 17 -18 -17 -19 -17 -24 1 -3 12 -5 9 -6 -9z"/>
<path d="M1401 520 l-1 -35 19 24 19 25 5 -25 c3 -20 5 -18 6 9 1 34 -12 43
-24 15 -7 -17 -8 -16 -15 2 -7 16 -9 13 -9 -15z"/>
<path d="M1533 534 c-3 -8 2 -23 11 -32 14 -15 18 -15 31 -1 9 9 13 23 9 32
-8 21 -43 22 -51 1z m37 -14 c0 -11 -4 -20 -9 -20 -14 0 -23 18 -16 30 10 17
25 11 25 -10z"/>
<path d="M1600 535 c0 -8 4 -15 10 -15 5 0 7 7 4 15 -4 8 -8 15 -10 15 -2 0
-4 -7 -4 -15z"/>
<path d="M1637 537 c-4 -10 -2 -28 4 -39 15 -28 19 -19 10 22 -5 28 -8 31 -14
17z"/>
<path d="M1670 524 c0 -14 4 -23 9 -20 5 3 7 15 4 26 -7 28 -13 25 -13 -6z"/>
<path d="M1695 540 c-3 -5 -1 -18 4 -27 9 -16 10 -14 11 10 0 28 -5 34 -15 17z"/>
<path d="M1731 524 c0 -16 3 -23 6 -16 4 10 8 10 19 1 20 -17 17 -6 -6 21
l-20 23 1 -29z"/>
<path d="M1791 521 c-1 -24 2 -32 9 -25 7 7 7 19 1 35 -9 23 -10 22 -10 -10z"/>
<path d="M1817 537 c-2 -6 2 -18 9 -25 12 -11 14 -8 14 13 0 26 -14 34 -23 12z"/>
<path d="M1853 534 c-3 -8 2 -23 11 -32 13 -14 18 -14 28 -3 11 11 10 13 -4 8
-9 -3 -19 0 -22 8 -6 17 9 29 24 20 6 -3 10 -1 10 4 0 17 -40 13 -47 -5z"/>
<path d="M1916 542 c7 -4 14 -18 17 -32 l4 -25 2 27 c0 14 7 29 14 31 6 3 -1
6 -18 6 -16 0 -25 -3 -19 -7z"/>
<path d="M1977 544 c-12 -12 -8 -42 6 -47 21 -8 39 8 35 29 -3 19 -29 30 -41
18z m31 -21 c-4 -22 -22 -20 -26 1 -2 10 3 16 13 16 10 0 15 -7 13 -17z"/>
<path d="M2041 520 c1 -19 3 -27 6 -17 5 18 23 24 23 7 0 -5 5 -10 10 -10 6 0
10 11 10 25 0 26 -15 34 -23 13 -4 -10 -8 -9 -16 2 -8 12 -10 7 -10 -20z"/>
</g>
</svg>
