<?xml version="1.0" encoding="utf-8"?>
<!-- Generator: Adobe Illustrator 19.2.1, SVG Export Plug-In . SVG Version: 6.00 Build 0)  -->
<svg version="1.1" id="Layer_1" xmlns="http://www.w3.org/2000/svg" xmlns:xlink="http://www.w3.org/1999/xlink" x="0px" y="0px"
	 viewBox="0 0 40 40" style="enable-background:new 0 0 40 40;" xml:space="preserve">
<style type="text/css">
	.st0{fill:#FFD200;}
	.st1{fill:#1E1E1E;}
</style>
<g>
	<path class="st0" d="M22.6,17.6c0,3.5-2.9,6.4-6.4,6.4c-0.5,0-1-0.1-1.5-0.2c-2.8-0.7-4.9-3.2-4.9-6.2c0-3.5,2.9-6.4,6.4-6.4
		S22.6,14.1,22.6,17.6"/>
</g>
<g>
	<rect x="15.3" y="2.3" class="st1" width="1.7" height="4.9"/>
	<rect x="22.8" y="7.7" transform="matrix(0.7071 -0.7071 0.7071 0.7071 1.3363 20.3243)" class="st1" width="4.9" height="1.7"/>
	<rect x="6.2" y="6.1" transform="matrix(0.7071 -0.7071 0.7071 0.7071 -3.984 7.4806)" class="st1" width="1.7" height="4.9"/>
	<rect x="0.8" y="16.8" class="st1" width="4.9" height="1.7"/>
	<rect x="4.6" y="25.9" transform="matrix(0.7071 -0.7071 0.7071 0.7071 -16.8281 12.8002)" class="st1" width="4.9" height="1.7"/>
	<path class="st1" d="M32.8,20.5c-0.4,0-0.7,0-1.1,0.1c-1.2-3.4-4.3-5.6-7.9-5.6c-4.6,0-8.4,3.8-8.4,8.4c0,0.3,0,0.5,0,0.8
		c-2.3,0.7-3.9,2.9-3.9,5.3c0,3.1,2.5,5.5,5.5,5.5h15.7c4,0,7.2-3.2,7.2-7.2C40,23.8,36.7,20.5,32.8,20.5z M32.8,33.3H17.1
		c-2.1,0-3.8-1.7-3.8-3.8c0-1.9,1.4-3.5,3.3-3.8l0.9-0.1l-0.2-0.9c-0.1-0.4-0.1-0.9-0.1-1.3c0-3.7,3-6.7,6.7-6.7
		c3.1,0,5.8,2.1,6.5,5.1l0.2,0.9l0.9-0.2c0.5-0.1,1-0.2,1.5-0.2c3,0,5.5,2.5,5.5,5.5S35.8,33.3,32.8,33.3z"/>
</g>
</svg>
