<?xml version="1.0" encoding="utf-8"?>
<!-- Generator: Adobe Illustrator 22.0.0, SVG Export Plug-In . SVG Version: 6.00 Build 0)  -->
<svg version="1.1" id="Layer_1" xmlns="http://www.w3.org/2000/svg" xmlns:xlink="http://www.w3.org/1999/xlink" x="0px" y="0px"
	 viewBox="0 0 841.9 595.3" style="enable-background:new 0 0 841.9 595.3;" xml:space="preserve">
<g>
	<defs>
		<rect id="SVGID_1_" x="184.1" y="59.9" width="482.4" height="483.7"/>
	</defs>
	<clipPath id="SVGID_2_">
		<use xlink:href="#SVGID_1_"  style="overflow:visible;"/>
	</clipPath>
	<path style="clip-path:url(#SVGID_2_);fill:#434341;" d="M480.1,153.8c-5.9,0-10.6-4.7-10.6-10.6V91c0-5.8,4.7-10.6,10.6-10.6
		c5.9,0,10.6,4.7,10.6,10.6v52.2C490.7,149,486,153.8,480.1,153.8"/>
	<path style="clip-path:url(#SVGID_2_);fill:#434341;" d="M425.3,153.8c-5.9,0-10.6-4.7-10.6-10.6V70.5c0-5.8,4.7-10.6,10.6-10.6
		c5.9,0,10.6,4.7,10.6,10.6v72.7C435.9,149,431.2,153.8,425.3,153.8"/>
	<path style="clip-path:url(#SVGID_2_);fill:#434341;" d="M370.5,153.8c-5.9,0-10.6-4.7-10.6-10.6V91c0-5.8,4.7-10.6,10.6-10.6
		c5.9,0,10.6,4.7,10.6,10.6v52.2C381.1,149,376.4,153.8,370.5,153.8"/>
	<path style="clip-path:url(#SVGID_2_);fill:#434341;" d="M330.6,503.1c-5.9,0-10.6-4.7-10.6-10.6v-27.1c0-5.8,4.7-10.6,10.6-10.6
		c5.9,0,10.6,4.7,10.6,10.6v27.1C341.2,498.3,336.5,503.1,330.6,503.1"/>
	<path style="clip-path:url(#SVGID_2_);fill:#434341;" d="M606.6,543.6H264.4c-8,0-14.6-6.5-14.6-14.6c0-8,6.5-14.6,14.6-14.6h342.2
		c8,0,14.6,6.5,14.6,14.6C621.2,537.1,614.7,543.6,606.6,543.6"/>
	<path style="clip-path:url(#SVGID_2_);fill:#434341;" d="M400.9,503.1c-5.9,0-10.6-4.7-10.6-10.6v-27.1c0-5.8,4.7-10.6,10.6-10.6
		c5.9,0,10.6,4.7,10.6,10.6v27.1C411.5,498.3,406.8,503.1,400.9,503.1"/>
	<path style="clip-path:url(#SVGID_2_);fill:#434341;" d="M471.2,503.1c-5.9,0-10.6-4.7-10.6-10.6v-27.1c0-5.8,4.7-10.6,10.6-10.6
		c5.9,0,10.6,4.7,10.6,10.6v27.1C481.8,498.3,477.1,503.1,471.2,503.1"/>
	<path style="clip-path:url(#SVGID_2_);fill:#434341;" d="M541.5,503.1c-5.9,0-10.6-4.7-10.6-10.6v-27.1c0-5.8,4.7-10.6,10.6-10.6
		c5.9,0,10.6,4.7,10.6,10.6v27.1C552.1,498.3,547.4,503.1,541.5,503.1"/>
	<path style="clip-path:url(#SVGID_2_);fill:#434341;" d="M655.9,179.5h-36.8H231.5h-36.8c-5.8,0-10.6,4.4-10.6,9.9
		c0,5.4,4.7,9.9,10.6,9.9h26.2v175c0,28.1,28.2,50.9,62.9,50.9h282.9c34.7,0,62.9-22.8,62.9-50.9v-175h26.2c5.8,0,10.6-4.4,10.6-9.9
		C666.5,184,661.7,179.5,655.9,179.5"/>
</g>
</svg>
