<?xml version="1.0" encoding="utf-8"?>
<!-- Generator: Adobe Illustrator 22.0.0, SVG Export Plug-In . SVG Version: 6.00 Build 0)  -->
<svg version="1.1" id="Layer_1" xmlns="http://www.w3.org/2000/svg" xmlns:xlink="http://www.w3.org/1999/xlink" x="0px" y="0px"
	 viewBox="0 0 841.9 595.3" style="enable-background:new 0 0 841.9 595.3;" xml:space="preserve">
<g>
	<defs>
		<rect id="SVGID_1_" x="166" y="42.6" width="500.5" height="500.5"/>
	</defs>
	<clipPath id="SVGID_2_">
		<use xlink:href="#SVGID_1_"  style="overflow:visible;"/>
	</clipPath>
	<path style="clip-path:url(#SVGID_2_);fill:#434341;" d="M272,377.7l18.6,117.5h7l16.8-19.9h193.2l150.9-88.1
		c0,0,13.7-10.6,5.5-21.5c-10.6-14-30-4.4-30-4.4s-95.4,40.7-123.5,42.9c-28.1,2.2-112.3,3.9-107-5.3c5.3-9.2,86.8-26.5,86.8-26.5
		c19.7-6.4,7.6-24.5-5-24.5c-19.4,0-45.5,0-98.4,0.4C335.6,348.7,272,377.7,272,377.7 M253.5,365.8L166,378.6v164.5l111.6-23.7
		L253.5,365.8z M423.5,85.5c2.8-16.4,17.1-29,34.3-29c17.1,0,31.3,12.4,34.3,28.6c-10.8-1.8-22-2.6-33.4-2.6
		C446.6,82.4,434.9,83.5,423.5,85.5 M278,236.6h361.3C627.9,157,575.1,104.4,506.2,88c-1.8-25.3-22.7-45.4-48.4-45.4
		c-25.9,0-46.9,20.3-48.5,45.8C341.3,105.2,289.4,157.7,278,236.6 M666.5,280c0-7.7-6.2-13.9-13.9-13.9H264.2
		c-7.7,0-13.9,6.2-13.9,13.9s6.2,13.9,13.9,13.9h17.6c0,15.3,36.5,27.7,51.8,27.7h249.7c15.3,0,51.8-12.4,51.8-27.7h17.6
		C660.3,293.9,666.5,287.7,666.5,280"/>
</g>
</svg>
