<?xml version="1.0" encoding="utf-8"?>
<!-- Generator: Adobe Illustrator 22.0.0, SVG Export Plug-In . SVG Version: 6.00 Build 0)  -->
<svg version="1.1" id="Layer_1" xmlns="http://www.w3.org/2000/svg" xmlns:xlink="http://www.w3.org/1999/xlink" x="0px" y="0px"
	 viewBox="0 0 841.9 595.3" style="enable-background:new 0 0 841.9 595.3;" xml:space="preserve">
<g>
	<defs>
		<rect id="SVGID_1_" x="175.8" y="68.6" width="470.5" height="469.2"/>
	</defs>
	<clipPath id="SVGID_2_">
		<use xlink:href="#SVGID_1_"  style="overflow:visible;"/>
	</clipPath>
	<path style="clip-path:url(#SVGID_2_);fill:#434341;" d="M233.7,253.2l-50.1-50.1l-5.5,5.5c-3,3-3,7.9,0,10.9l39.2,39.2
		c1.4,1.5,3.4,2.3,5.5,2.3c2.1,0,4-0.8,5.5-2.3L233.7,253.2z M274.5,191.2c2.4,2.4,2.4,6.4,0,8.8c-2.4,2.4-6.4,2.5-8.8,0
		c-2.4-2.4-2.4-6.4,0-8.9C268.1,188.8,272.1,188.8,274.5,191.2 M260,214.6c-2.5,2.5-6.4,2.5-8.9,0c-2.5-2.4-2.5-6.4,0-8.9
		c2.4-2.4,6.4-2.4,8.9,0C262.5,208.2,262.5,212.1,260,214.6 M260,185.6c-2.4,2.4-6.4,2.4-8.9,0c-2.4-2.5-2.4-6.4,0-8.9
		c2.4-2.5,6.4-2.5,8.8,0C262.5,179.2,262.5,183.2,260,185.6 M245.5,229.1c-2.4,2.4-6.4,2.4-8.9,0c-2.4-2.4-2.4-6.4,0-8.9
		c2.4-2.4,6.4-2.4,8.9,0C248,222.7,248,226.6,245.5,229.1 M245.5,200.1c-2.4,2.5-6.4,2.4-8.9,0c-2.4-2.4-2.4-6.4,0-8.9
		c2.4-2.4,6.4-2.4,8.9,0C248,193.7,248,197.7,245.5,200.1 M245.5,171.1c-2.4,2.4-6.4,2.5-8.9,0c-2.4-2.4-2.4-6.4,0-8.9
		c2.4-2.5,6.4-2.4,8.9,0C248,164.7,248,168.7,245.5,171.1 M231,214.6c-2.4,2.4-6.4,2.4-8.9,0c-2.5-2.4-2.4-6.4,0-8.9
		c2.4-2.4,6.4-2.5,8.9,0C233.5,208.2,233.5,212.1,231,214.6 M231,185.6c-2.4,2.5-6.4,2.5-8.9,0c-2.4-2.5-2.5-6.4,0-8.9
		c2.4-2.4,6.4-2.4,8.9,0C233.5,179.2,233.5,183.2,231,185.6 M216.5,200.1c-2.4,2.4-6.4,2.5-8.9,0c-2.4-2.4-2.4-6.4,0-8.9
		c2.4-2.4,6.4-2.4,8.9,0C219,193.7,219,197.6,216.5,200.1 M293.6,193.3l-50.1-50.1l-54.9,54.9l50.1,50.1L293.6,193.3z M355,95.6
		c-3.8,3.8-10,3.8-13.8,0c-3.8-3.8-3.8-10,0-13.8c3.8-3.8,10-3.8,13.8,0C358.8,85.6,358.8,91.8,355,95.6 M362.8,74
		c-7.2-7.2-18.9-7.2-26.2,0l-48,48c-2.8,2.8-2.8,7.2,0,10l0.9,0.9l-8.5,8.5l-23.6-6.6c-2.7-0.7-5.6,0-7.5,2l-1.4,1.4l50.1,50.1
		l1.4-1.4c2-2,2.7-4.9,2-7.5l-6.6-23.6l8.5-8.5l0.9,0.9c2.8,2.8,7.2,2.8,10,0l48-48C370,93,370,81.2,362.8,74"/>
	<path style="clip-path:url(#SVGID_2_);fill:#434341;" d="M412.4,423.4c17-16.7,26.4-38.9,26.4-62.5c0-23.6-9.4-45.8-26.4-62.5
		c-17-16.7-39.6-25.9-63.7-25.9c-24,0-46.6,9.2-63.6,25.9c-17,16.7-26.4,38.9-26.4,62.5c0,23.6,9.4,45.8,26.4,62.5
		c17,16.7,39.6,25.9,63.7,25.9C372.8,449.3,395.5,440.1,412.4,423.4 M616.5,122.2c-6.8,6.7-17.9,6.7-24.7,0
		c-6.8-6.7-6.8-17.6,0-24.3c6.8-6.7,17.9-6.7,24.7,0C623.3,104.6,623.3,115.5,616.5,122.2 M453.5,360.9c0,27.4-10.9,53.3-30.7,72.7
		c-19.8,19.4-46.1,30.1-74,30.1c-28,0-54.2-10.7-74-30.1c-19.8-19.4-30.7-45.2-30.7-72.7c0-27.5,10.9-53.3,30.7-72.7
		c19.8-19.4,46.1-30.1,74-30.1c28,0,54.3,10.7,74,30.1C442.6,307.6,453.5,333.4,453.5,360.9 M635.6,79.1
		c-14.3-14.1-37.6-14.1-51.9,0l-80,78.6c-10.6,10.5-13.3,25.7-8.2,38.6l-62.7,61.6c-52.8-41.7-130.2-38.5-179.1,9.6
		c-52.5,51.6-52.5,135.2,0,186.8c52.5,51.6,137.6,51.6,190.1,0c49-48.1,52.2-124.1,9.8-176l62.7-61.6c4.3,1.6,8.8,2.5,13.4,2.5
		c9.4,0,18.8-3.5,25.9-10.6l80-78.6C649.9,116,649.9,93.2,635.6,79.1"/>
	<path style="clip-path:url(#SVGID_2_);fill:#434341;" d="M530,449l-14.1-13c-3.3-3-8.3-3-11.1,0l-69.9,69.9
		c-2.8,3.1-2.4,8,0.9,11.1l20.1,18.5c3.3,3,8.3,3,11.1,0l63.9-75.5C533.7,457,533.3,452,530,449 M646.3,327.9
		c0,0-53.3-10.7-112.9,48.2c-5.1,5-7.9,11.8-7.9,18.9l0.2,27.1l-3.3,3.6c0.5,0.4,1.1,0.8,1.6,1.2l14.1,13c0.9,0.8,1.7,1.8,2.4,2.7
		L646.3,327.9z"/>
</g>
</svg>
