<?xml version="1.0" encoding="utf-8"?>
<!-- Generator: Adobe Illustrator 22.0.0, SVG Export Plug-In . SVG Version: 6.00 Build 0)  -->
<svg version="1.1" id="Layer_1" xmlns="http://www.w3.org/2000/svg" xmlns:xlink="http://www.w3.org/1999/xlink" x="0px" y="0px"
	 viewBox="0 0 841.9 595.3" style="enable-background:new 0 0 841.9 595.3;" xml:space="preserve">
<g>
	<defs>
		<rect id="SVGID_1_" x="160.2" y="38.6" width="515.7" height="511.2"/>
	</defs>
	<clipPath id="SVGID_2_">
		<use xlink:href="#SVGID_1_"  style="overflow:visible;"/>
	</clipPath>
	<path style="clip-path:url(#SVGID_2_);fill:#434341;" d="M429.6,325.4c0-7.3-5.9-13.2-13.2-13.2c-7.3,0-13.2,5.9-13.2,13.2
		c0,7.3,5.9,13.2,13.2,13.2C423.7,338.6,429.6,332.7,429.6,325.4 M477.1,399.3c0,7.3,5.9,13.2,13.2,13.2c7.3,0,13.2-5.9,13.2-13.2
		c0-7.3-5.9-13.2-13.2-13.2C483,386.1,477.1,392,477.1,399.3 M403.2,473.1c0,7.3,5.9,13.2,13.2,13.2c7.3,0,13.2-5.9,13.2-13.2
		c0-7.3-5.9-13.2-13.2-13.2C409.1,459.9,403.2,465.8,403.2,473.1 M395.8,415.4c7,9.7,20.5,11.9,30.2,4.9c2.6-1.9,4.7-4.3,6.2-6.9
		l30.9-54.8c2.1-3.8,0.8-8.5-3-10.7c-2.7-1.5-6-1.3-8.4,0.5l-51,36.9C391,392.2,388.8,405.7,395.8,415.4 M342.5,386.1
		c-7.3,0-13.2,5.9-13.2,13.2c0,7.3,5.9,13.2,13.2,13.2c7.3,0,13.2-5.9,13.2-13.2C355.7,392,349.8,386.1,342.5,386.1 M309.6,399.3
		c0-59,47.8-106.8,106.8-106.8c59,0,106.8,47.8,106.8,106.8s-47.8,106.8-106.8,106.8C357.4,506.1,309.6,458.3,309.6,399.3
		 M205.5,502.5c-2.7,12.1,0.2,23.6,8,33.2c7.8,9.7,19.5,14.1,31.9,14.1h340.9c12.4,0,24.1-4.8,31.9-14.4c7.8-9.7,10.7-21.5,8-33.6
		l-48.7-219.7c-6.2-27.8-30.8-48.8-59.2-48.8H313.4c-28.4,0-53,21.1-59.2,48.8L205.5,502.5z M285.5,180.6l-57.7-70l57.7-70h-44.8
		L194.4,102V40.6h-34.2v140h34.2v-61.8l47.2,61.8H285.5z M340.8,139.5c-6.7-7.3-10.1-17.1-10.1-29.3c0-12.2,3.4-22,10.1-29.3
		c6.7-7.3,16-11,27.7-11S388.7,75,394,85.3h40.8C430,70.6,421.5,59.2,409.4,51c-12.1-8.2-26-12.4-41.6-12.4
		c-20.1,0-37.1,6.7-51.1,20.2c-13.9,13.5-20.9,30.6-20.9,51.3s7,37.9,20.9,51.3c13.9,13.5,30.9,20.2,51.1,20.2
		c15.6,0,29.4-4.1,41.6-12.4c12.1-8.2,20.6-19.7,25.4-34.3H394c-5.3,10.2-13.9,15.4-25.6,15.4S347.5,146.8,340.8,139.5 M529.5,131.1
		h-33.2l16.6-49.8L529.5,131.1z M545.9,180.6h36.6L533.9,40.2h-41.6l-48.8,140.4h36.4l7.8-23.5h50.4L545.9,180.6z M675.9,180.6
		v-25.9h-42.6V40.6h-34.2v140H675.9z"/>
</g>
</svg>
