<?xml version="1.0" encoding="utf-8"?>
<!-- Generator: Adobe Illustrator 21.1.0, SVG Export Plug-In . SVG Version: 6.00 Build 0)  -->
<svg version="1.1" id="Layer_1" xmlns="http://www.w3.org/2000/svg" xmlns:xlink="http://www.w3.org/1999/xlink" x="0px" y="0px"
	 viewBox="0 0 68.1 28" style="enable-background:new 0 0 68.1 28;" xml:space="preserve">
<g>
	<polygon style="fill:#1E1E1E;" points="3.6,12.9 3.2,12.4 3.2,10.2 3.8,9.7 6.9,9.7 7.5,10.2 7.5,11.4 10.4,11.4 10.4,9.3 8.6,7.5 
		2.1,7.5 0.3,9.3 0.3,13.6 1.9,15.2 7.1,15.2 7.5,15.6 7.5,17.9 6.9,18.5 3.7,18.5 3.2,17.9 3.2,16.7 0.2,16.7 0.2,18.8 2,20.6 
		8.6,20.6 10.4,18.8 10.4,14.4 8.9,12.9 	"/>
	<path style="fill:#1E1E1E;" d="M14.8,7.5v13h2.9V16h5.4l1.9-1.9V9.4l-1.9-1.9C23.1,7.5,14.8,7.5,14.8,7.5z M22.1,13.3L21.4,14h-3.8
		V9.7h3.8l0.7,0.7V13.3z"/>
	<path style="fill:#1E1E1E;" d="M30.8,7.5l-2,1.9v9.2l1.9,1.9h6.6l1.9-1.9V9.4l-1.9-1.9C37.3,7.5,30.8,7.5,30.8,7.5z M36.3,17.6
		l-0.8,0.8h-3.1l-0.8-0.8v-7.2l0.8-0.8h3.1l0.8,0.8V17.6z"/>
	<path style="fill:#1E1E1E;" d="M54.1,13.4V9.3l-1.8-1.8h-8.4v13h2.9v-5.1h3l1.6,5.1h3L52.5,15L54.1,13.4z M51.2,12.7l-0.7,0.7h-3.8
		V9.6h3.8l0.6,0.6L51.2,12.7L51.2,12.7z"/>
	<polygon style="fill:#1E1E1E;" points="57.6,7.5 57.6,9.9 61.2,9.9 61.2,20.6 64.1,20.6 64.1,9.9 67.7,9.9 67.7,7.5 	"/>
</g>
</svg>
