<svg xmlns="http://www.w3.org/2000/svg" width="29" height="29" viewBox="0 0 29 29">
  <defs>
    <style>
      .cls-1 {
        fill: #fff;
        fill-rule: evenodd;
      }
    </style>
  </defs>
  <path id="video_icon" data-name="video icon" class="cls-1" d="M291.5,575.013a14.5,14.5,0,1,1,14.5-14.5A14.517,14.517,0,0,1,291.5,575.013Zm0-27.966a13.465,13.465,0,1,0,13.466,13.466A13.481,13.481,0,0,0,291.5,547.047Zm5.764,19.062h-11.3a1.246,1.246,0,0,1-1.256-1.227V558.13a1.245,1.245,0,0,1,1.256-1.227h1.883l1-1.842h5.53l1,1.842h1.883a1.245,1.245,0,0,1,1.256,1.227v6.752A1.246,1.246,0,0,1,297.264,566.109Zm-5.649-7.978a2.762,2.762,0,1,0,2.825,2.762A2.794,2.794,0,0,0,291.615,558.131Z" transform="translate(-277 -546)"/>
</svg>
