<?xml version="1.0" encoding="utf-8"?>
<!-- Generator: Adobe Illustrator 22.0.0, SVG Export Plug-In . SVG Version: 6.00 Build 0)  -->
<svg version="1.1" id="Layer_1" xmlns="http://www.w3.org/2000/svg" xmlns:xlink="http://www.w3.org/1999/xlink" x="0px" y="0px"
	 viewBox="0 0 841.9 595.3" style="enable-background:new 0 0 841.9 595.3;" xml:space="preserve">
<g>
	<defs>
		<rect id="SVGID_1_" x="168.9" y="41.7" width="494.8" height="498.6"/>
	</defs>
	<clipPath id="SVGID_2_">
		<use xlink:href="#SVGID_1_"  style="overflow:visible;"/>
	</clipPath>
	<path style="clip-path:url(#SVGID_2_);fill:#434341;" d="M253.4,429.9l-24.1,15.5c30.5,48.4,77.1,81.1,128.7,94.8l7.2-27.9
		C320.3,500.4,279.9,472,253.4,429.9 M287.5,338.9c-7.6-15.1-1.5-33.5,13.5-41c15.1-7.6,33.5-1.5,41,13.5c0,0.1,26.7-12.9,38.3-18.5
		l-105-35.6c-0.1,0.6,0,1.2-0.2,1.8c-3.3,10.1-14.2,15.5-24.3,12.2c-10.1-3.3-15.6-14.2-12.3-24.3c0.2-0.7,0.7-1.2,1-1.8l-19-6.4
		c-13.8,44.5-8.8,90.5,10.5,129.4C231.1,368.2,287.5,339,287.5,338.9 M206.3,233.9l-27.2-9.2C161.4,280.9,167.4,339,191.8,388
		l25.7-13C196.5,332.6,191.2,282.4,206.3,233.9 M336.9,68.7L327,41.7c-50.5,18.7-94,56-119.7,107.6l25.6,12.8
		C255.3,117.3,293.1,85,336.9,68.7 M298,194.6l103.5,51.1c0,0-17.2-45.5-17.4-45.4c-15.8,5.8-33.4-2.4-39.2-18.2
		c-5.8-15.9,2.4-33.4,18.3-39.2c0.2-0.1-21.1-59.9-21.1-59.9c-40.3,15-75,44.7-95.5,85.9l17.8,8.9c0.1-0.4,0.1-0.9,0.3-1.3
		c4.4-9.6,15.9-13.8,25.5-9.3c9.6,4.5,13.8,15.9,9.3,25.5C299.2,193.4,298.5,194,298,194.6 M400.4,377.1l12.2-47.2l-98.1,60.7
		c0.6,0.6,1.2,1.1,1.7,1.9c5.4,9.2,2.3,21-6.8,26.3c-9.2,5.4-21,2.3-26.3-6.9c-0.2-0.3-0.2-0.6-0.3-0.9l-16.6,10.7
		c24.4,38.8,61.6,64.9,102.9,75.9l16-61.6c-0.2-0.1-0.5,0-0.7-0.1c-16.3-4.2-26.1-20.9-21.9-37.3c4.2-16.3,20.9-26.1,37.3-21.9
		C399.9,376.9,400.1,377,400.4,377.1 M445.7,419.8c0,0-0.8,0.1-0.5,0.1C445.4,419.8,445.5,419.8,445.7,419.8L445.7,419.8z
		 M445.7,358.7c-0.1,0-0.1,0-0.2,0C445.3,358.7,445.7,358.8,445.7,358.7L445.7,358.7z M447.4,283.7c0-15,12.1-27.1,27.1-27.1
		c15,0,27.1,12.1,27.1,27.1c0,15-12.1,27.1-27.1,27.1C459.6,310.8,447.4,298.7,447.4,283.7 M501.6,197.7c0-12.4,10.1-22.5,22.5-22.5
		c12.4,0,22.5,10.1,22.5,22.5c0,12.4-10.1,22.5-22.5,22.5C511.7,220.2,501.6,210.2,501.6,197.7 M515.9,358.7
		c0-11.1,9.1-20.2,20.2-20.2c11.2,0,20.2,9,20.2,20.2c0,11.1-9,20.2-20.2,20.2C524.9,378.8,515.9,369.8,515.9,358.7 M564.2,283.7
		c-7.3,0-13.2-5.9-13.2-13.2s5.9-13.2,13.2-13.2c7.3,0,13.2,5.9,13.2,13.2S571.5,283.7,564.2,283.7 M445.7,117v241.7
		c16.8,0.1,29.4,13.7,29.4,30.5c0,16.7-12.8,30.2-29.4,30.5v47c97.4-0.4,174.1-78.6,174.1-174.8C619.9,195.7,543.2,117.4,445.7,117
		 M663.7,291.9c0-120.5-104.3-218.3-218-218.7v28.7c97.4,0.4,189.3,85.5,189.3,190c0,104.5-91.8,189.6-189.3,190v28.7
		C559.4,510.1,663.7,412.4,663.7,291.9"/>
</g>
</svg>
