<svg width="141" height="53" viewBox="0 0 141 53" fill="none" xmlns="http://www.w3.org/2000/svg">
<path d="M29.169 12.8269H22.299L13.1359 35.3786H19.014L25.734 17.9602L32.4539 35.3786H38.3321L29.169 12.8269Z" fill="#39B980"/>
<path fill-rule="evenodd" clip-rule="evenodd" d="M23.2506 51.9516L23.203 51.9461H23.192L23.1884 51.9443C19.7351 51.5984 16.4135 50.5534 13.4159 48.9155C7.62925 45.755 3.04862 40.3911 1.04837 33.5724C-0.953711 26.7517 -0.00025195 19.7664 3.15842 13.9834C4.78351 11.0059 6.99422 8.34871 9.6844 6.19657L9.73747 6.15264C9.7393 6.15081 9.74113 6.14898 9.74296 6.14715C13.727 2.88234 18.6023 0.708231 23.8856 0.0237907C23.9131 0.0201306 24.0869 0.00366011 24.1144 0L26.3288 5.45173C26.2976 5.45356 26.1165 5.47003 26.0854 5.47186C21.373 5.76467 17.001 7.53617 13.4854 10.3636C13.4305 10.4075 13.3738 10.4533 13.3189 10.4972C13.231 10.5704 13.1432 10.6418 13.0572 10.7168L13.0517 10.7205L13.0444 10.726L13.0371 10.7333L13.0316 10.7369C13.0096 10.7571 12.9858 10.7754 12.9639 10.7937C10.9673 12.4371 9.32388 14.4428 8.10323 16.6755C5.63632 21.192 4.89332 26.6529 6.45618 31.982C8.02271 37.3148 11.595 41.5056 16.1079 43.9707C18.4998 45.2756 21.1552 46.0991 23.9167 46.3535C29.9285 46.8476 35.5943 44.9132 39.9297 41.3592C40.1402 41.1872 40.3488 41.0097 40.5519 40.8304L42.7718 46.2912C37.3896 50.4125 30.5123 52.6031 23.2506 51.9516Z" fill="#39B980"/>
<path d="M67.5635 25.1797C67.5635 26.7408 67.0658 28.0364 66.0684 29.0997C65.0728 30.163 63.5283 30.6955 61.9654 30.6955C60.4044 30.6955 59.1325 30.1721 58.1461 29.0997C57.1725 28.0456 56.6839 26.7408 56.6839 25.1797C56.6839 23.6516 57.1725 22.3468 58.1461 21.2927C59.1325 20.2221 60.4044 19.6987 61.9654 19.6987C63.5283 19.6987 65.0728 20.2294 66.0684 21.2927C67.0658 22.3559 67.5635 23.6516 67.5635 25.1797ZM67.4647 17.8522C65.8543 16.4613 63.876 15.744 61.5847 15.744C59.0263 15.744 56.5832 16.6425 54.8904 18.403C53.1958 20.1635 52.3649 22.4218 52.3649 25.1138C52.3649 27.804 53.1958 30.0971 54.8904 31.9235C56.5832 33.7517 58.9934 34.6484 61.5847 34.6484C63.9437 34.6484 65.6932 33.9676 67.4647 32.5512V34.2165H71.5842V16.1759H67.4647V17.8522Z" fill="white"/>
<path fill-rule="evenodd" clip-rule="evenodd" d="M75.4511 34.4819C77.6105 34.4819 79.2704 33.5852 80.4343 31.7917C80.8662 31.0926 81.2981 30.0641 81.5635 29.3651C81.8618 28.6019 82.1619 27.1068 82.2936 26.4425C82.3943 26.1094 82.4931 25.5787 82.5938 24.8137L82.7933 23.2856C82.8262 23.0203 82.925 22.4548 83.0257 21.591L83.2251 20.0299H87.2439V34.2165H91.5629V16.1759H79.4699L79.3381 17.5063C78.9721 20.9596 78.6061 23.6187 78.2748 25.5128C77.9418 27.3721 77.444 28.8014 76.7467 29.764C76.0824 30.6607 75.1857 31.1274 74.0877 31.1274L74.3201 34.3483C74.8197 34.449 75.1857 34.4819 75.4511 34.4819Z" fill="white"/>
<path d="M130.236 19.4992C134.388 19.5322 136.815 21.6916 136.815 25.1797C136.815 28.7337 134.322 30.895 130.236 30.9279V19.4992ZM119.572 25.1797C119.572 21.6916 121.997 19.5322 126.149 19.4992V30.9279C122.063 30.8273 119.572 28.7337 119.572 25.1797ZM141 25.2127C141 22.3559 140.003 20.0977 138.043 18.403C136.083 16.7084 133.458 15.8117 130.236 15.711V10.8614H126.149V15.711C122.893 15.8117 120.269 16.7084 118.309 18.403C116.349 20.0977 115.385 22.3559 115.385 25.1797C115.385 28.0035 116.349 30.2636 118.309 31.9235C120.269 33.5852 122.86 34.4819 126.149 34.6155V39.4651H130.236V34.6155C133.524 34.5148 136.116 33.6181 138.076 31.9564C140.037 30.2966 141 28.0364 141 25.2127Z" fill="white"/>
<path d="M98.0468 34.2165L108.18 22.9544V34.2165H112.365V16.1759H109.642L99.509 27.5716V16.1759H95.2889V34.2165H98.0468Z" fill="white"/>
</svg>
