<svg xmlns="http://www.w3.org/2000/svg" viewBox="0 0 100 15.1"><path fill="#111" d="M0 .2h2.5v14.6H0V.2zm20.1 9.4L10 0v14.8h2.4V5.3L22.5 15V.2h-2.4v9.4zm15.4-2.9l-2.4-.9c-1.2-.4-1.9-.9-1.9-1.9 0-1.2 1.1-1.8 2.6-1.8 1.7 0 3.1.6 4.3 1.6V1.2C36.9.4 35.4 0 33.7 0c-2.7 0-4.9 1.4-4.9 4 0 2.4 1.5 3.4 3.4 4.2l2.1.8c1.3.5 2.1.9 2.1 2.1 0 1.3-1.2 1.9-2.8 1.9-1.7 0-3.3-.6-4.7-1.7v2.6c1 .7 2.7 1.3 4.7 1.3 3 0 5.3-1.5 5.3-4.1-.1-2.3-1.1-3.6-3.4-4.4zM44.4.2h2.5v14.6h-2.5V.2zm15.8 0h-5.6v14.6h5.6c4.3 0 7.1-2.8 7.1-7.3 0-4.4-2.8-7.3-7.1-7.3zm-.1 12.4h-3V2.4h3c3.1 0 4.7 2 4.7 5.1 0 3.1-1.6 5.1-4.7 5.1zm12.8 2.2h8.9v-2.2h-6.5V8.1h5.8V5.9h-5.8V2.4h6.5V.2h-8.9v14.6zm21.8-6c2.3-.4 3.4-1.8 3.4-4.2 0-2.8-2-4.4-5-4.4h-5.3v14.6h2.5V8.9h1.8l5.1 5.9h2.8l-5.3-6zm-4.4-2V2.4h2.8c1.6 0 2.6.9 2.6 2.2 0 1.4-.9 2.2-2.6 2.2h-2.8z"/></svg>