<svg
    aria-labelledby="title desc"
    role="img"
    xmlns="http://www.w3.org/2000/svg"
    viewBox="0 0 100 100"
>

  <title id="title">Instagram icon</title>
  <desc id="desc">A stylized camera.</desc>

  <path
      d="M100 50c0 9.9-.1 16.8-.3 20.6-.4 9-3.1 16-8.1 21-4.9 5-11.9 7.6-21 8.1-3.8.2-10.7.3-20.6.3-9.9 0-16.8-.1-20.6-.3-9-.4-16-3.1-21-8.1C3.5 86.7.8 79.7.3 70.6.1 66.8 0 59.9 0 50s.1-16.8.3-20.6c.4-9 3.1-16 8.1-21C13.3 3.5 20.3.8 29.4.3 33.2.1 40.1 0 50 0c9.9 0 16.8.1 20.6.3 9 .4 16 3.1 21 8.1 4.9 5 7.6 11.9 8.1 21 .2 3.8.3 10.7.3 20.6zM55 9H38.1c-1.6 0-3.7.1-6.3.2-2.6.1-4.9.3-6.7.7-1.8.3-3.4.7-4.7 1.2-2.2.9-4.1 2.1-5.7 3.8-1.6 1.7-2.9 3.6-3.8 5.7-.5 1.3-.9 2.8-1.2 4.7-.3 1.8-.5 4.1-.7 6.7v30c0 1.6.1 3.7.2 6.3.1 2.6.3 4.9.7 6.7s.7 3.4 1.2 4.7c.9 2.2 2.1 4.1 3.8 5.7 1.6 1.7 3.6 2.9 5.7 3.8 1.3.5 2.8.9 4.7 1.2 1.8.3 4.1.5 6.7.7 2.6.1 4.7.2 6.3.2H62.1c1.6 0 3.7-.1 6.3-.2s4.9-.3 6.7-.7c1.8-.3 3.4-.7 4.7-1.2 2.2-.9 4.1-2.1 5.7-3.8 1.6-1.6 2.9-3.6 3.8-5.7.5-1.3.9-2.8 1.2-4.7.3-1.8.5-4.1.7-6.7.1-2.6.2-4.7.2-6.3v-6.9-5-5-6.9c0-1.6-.1-3.7-.2-6.3-.1-2.6-.3-4.9-.7-6.7-.3-1.8-.7-3.4-1.2-4.7-.9-2.2-2.1-4.1-3.8-5.7-1.7-1.6-3.6-2.9-5.7-3.8-1.3-.5-2.8-.9-4.7-1.2-1.8-.3-4.1-.5-6.7-.7-2.9-.1-5-.1-6.5-.1-1.6-.1-3.9-.1-6.9 0zm13.2 22.8c5 5 7.5 11 7.5 18.2s-2.5 13.2-7.5 18.2-11 7.5-18.2 7.5c-7.1 0-13.2-2.5-18.2-7.5s-7.5-11-7.5-18.2 2.5-13.2 7.5-18.2 11-7.5 18.2-7.5c7.1 0 13.2 2.5 18.2 7.5zm-6.4 30c3.3-3.3 4.9-7.2 4.9-11.8s-1.6-8.5-4.9-11.8c-3.3-3.3-7.2-4.9-11.8-4.9-4.6 0-8.5 1.6-11.8 4.9-3.3 3.3-4.9 7.2-4.9 11.8s1.6 8.5 4.9 11.8c3.3 3.3 7.2 4.9 11.8 4.9 4.6 0 8.5-1.7 11.8-4.9zm19.1-42.7c1.2 1.2 1.8 2.6 1.8 4.2 0 1.7-.6 3.1-1.8 4.2-1.2 1.2-2.6 1.8-4.2 1.8s-3.1-.6-4.2-1.8c-1.2-1.2-1.8-2.6-1.8-4.2s.6-3.1 1.8-4.2c1.2-1.2 2.6-1.8 4.2-1.8s3.1.6 4.2 1.8z"
  ></path>
</svg>