<svg width="475" height="430" viewBox="0 0 475 430" fill="none" xmlns="http://www.w3.org/2000/svg">
<g clip-path="url(#clip0_11_134)">
<g opacity="0.08">
<path opacity="0.08" d="M13.3016 235.093C13.3016 235.093 28.1569 307.882 103.503 347.327C178.836 386.77 272.487 377.36 348.609 371.551C424.732 365.741 476.095 318.936 474.986 259.108C473.879 199.283 413.427 190.058 370.999 127.65C328.572 65.2544 327.681 42.9279 254.704 11.0529C181.725 -20.8105 82.5754 18.7265 40.1481 96.5506C-2.26651 174.375 13.3016 235.093 13.3016 235.093Z" fill="#00B533"/>
<path opacity="0.7" d="M13.3016 235.093C13.3016 235.093 28.1569 307.882 103.503 347.327C178.836 386.77 272.487 377.36 348.609 371.551C424.732 365.741 476.095 318.936 474.986 259.108C473.879 199.283 413.427 190.058 370.999 127.65C328.572 65.2544 327.681 42.9279 254.704 11.0529C181.725 -20.8105 82.5754 18.7265 40.1481 96.5506C-2.26651 174.375 13.3016 235.093 13.3016 235.093Z" fill="#00B533"/>
</g>
<path d="M462.819 186.285L425.355 186.574C425.355 186.574 422.809 186.285 422.263 187.975C422.263 187.975 415.758 202.904 415.452 208.252C415.146 213.599 416.726 212.754 414.18 219.826C411.633 226.897 404.582 243.473 400.56 256.99C395.149 275.15 393.736 294.433 393.392 313.183C393.392 316.193 391.355 342.119 396.511 342.119C400.788 342.119 440.211 346.875 440.682 339.965C442.578 312.419 437.104 285.509 447.619 258.727C451.705 248.31 456.389 237.338 459.865 226.458C463.341 215.578 463.938 204.259 466.23 193.126C467.771 185.439 462.819 186.285 462.819 186.285Z" fill="#00B533" stroke="#2E353A" stroke-linecap="round" stroke-linejoin="round"/>
<path d="M385.435 408.565L385.18 408.38V376.574H390.209V356.47H371.623V376.574H376.64V408.923L332.164 421.817V425.012C332.164 427.036 333.958 428.669 336.186 428.669C338.412 428.669 340.208 427.036 340.208 425.012V424.56L377.403 420.625V425.474C377.403 427.233 378.983 428.669 380.93 428.658C382.864 428.658 384.43 427.233 384.43 425.474V420.462L423.127 424.56V425.012C423.127 427.036 424.923 428.669 427.149 428.669C429.378 428.669 431.172 427.036 431.172 425.012V421.817L385.435 408.565Z" fill="#00B533"/>
<path d="M328.013 336.864H438.466C441.279 336.864 443.558 338.935 443.558 341.492V355.556C443.558 358.114 441.279 360.184 438.466 360.184H328.013C325.2 360.184 322.921 358.114 322.921 355.556V341.492C322.921 338.935 325.2 336.864 328.013 336.864Z" fill="#00B533" stroke="#2E353A" stroke-linecap="round" stroke-linejoin="round"/>
<path d="M3.67877 186.285L41.1415 186.574C41.1415 186.574 43.6876 186.285 44.2476 187.975C44.2476 187.975 50.7524 202.904 51.0578 208.252C51.3634 213.599 49.7849 212.754 52.3307 219.826C54.8768 226.897 61.9288 243.473 65.9514 256.99C71.3742 275.15 72.7743 294.433 73.118 313.183C73.118 316.193 75.1548 342.119 69.9993 342.119C65.7349 342.119 26.3117 346.875 25.828 339.965C23.9441 312.419 29.405 285.509 18.8905 258.727C14.8043 248.31 10.1199 237.338 6.65747 226.458C3.19505 215.578 2.58405 204.259 0.292736 193.126C-1.20934 185.439 3.67877 186.285 3.67877 186.285Z" fill="#2E353A"/>
<path d="M81.0609 408.565L81.3155 408.38V376.574H76.2237V356.47H94.8214V376.574H89.7934V408.923L134.27 421.817V425.01C134.27 427.036 132.475 428.669 130.248 428.669C128.02 428.669 126.225 427.036 126.225 425.01V424.56L89.1695 420.625V425.474C89.055 427.246 87.3876 428.588 85.4399 428.484C83.6577 428.391 82.2447 427.096 82.1302 425.474V420.462L43.3435 424.56V425.01C43.4709 427.025 41.7778 428.751 39.5502 428.866C37.3352 428.981 35.4385 427.442 35.3113 425.416C35.2984 425.277 35.2984 425.138 35.3113 424.999V421.806L81.0609 408.565Z" fill="#2E353A"/>
<path d="M138.484 360.173H28.0303C25.2172 360.173 22.9386 358.101 22.9386 355.543V341.481C22.9386 338.923 25.2172 336.851 28.0303 336.851H138.484C141.297 336.851 143.576 338.923 143.576 341.481V355.543C143.576 358.101 141.284 360.173 138.484 360.173Z" fill="#2E353A"/>
<path d="M416.318 271.365H113.865V429.422H416.318V271.365Z" fill="#CACACA"/>
<path d="M416.088 275.161H114.018V279.537H416.088V275.161Z" fill="#2E353A"/>
<path d="M418.559 268.772H107.131V275.684H418.559V268.772Z" fill="#CACACA"/>
<path d="M194.391 255.046C194.391 255.046 197.955 269.525 197.752 273.565C197.548 277.604 189.159 288.426 188.943 285.948C189.019 283.854 189.516 281.782 190.42 279.849C190.42 279.849 187.479 283.472 186.435 283.322C185.391 283.172 187.275 278.171 187.275 278.171C187.275 278.171 184.131 281.029 183.075 280.486C182.018 279.941 185.379 275.717 185.379 275.717C185.379 275.717 181.56 279.341 181.407 278.193C181.254 277.048 184.755 272.292 184.755 272.292C184.755 272.292 181.191 265.429 180.936 262.569C180.962 260.567 181.687 258.634 183.024 257.049L194.391 255.046Z" fill="white"/>
<path d="M194.391 255.046C194.391 255.046 197.955 269.525 197.752 273.565C197.548 277.604 189.159 288.426 188.943 285.948C189.019 283.854 189.516 281.782 190.42 279.849C190.42 279.849 187.479 283.472 186.435 283.322C185.391 283.172 187.275 278.171 187.275 278.171C187.275 278.171 184.131 281.029 183.075 280.486C182.018 279.941 185.379 275.717 185.379 275.717C185.379 275.717 181.56 279.341 181.407 278.193C181.254 277.048 184.755 272.292 184.755 272.292C184.755 272.292 181.191 265.429 180.936 262.569C180.962 260.567 181.687 258.634 183.024 257.049L194.391 255.046Z" fill="#D7D7D7"/>
<path d="M194.391 255.046C194.391 255.046 197.955 269.525 197.752 273.565C197.548 277.604 189.159 288.426 188.943 285.948C189.019 283.854 189.516 281.782 190.42 279.849C190.42 279.849 187.479 283.472 186.435 283.322C185.391 283.172 187.275 278.171 187.275 278.171C187.275 278.171 184.131 281.029 183.075 280.486C182.018 279.941 185.379 275.717 185.379 275.717C185.379 275.717 181.56 279.341 181.407 278.193C181.254 277.048 184.755 272.292 184.755 272.292C184.755 272.292 181.191 265.429 180.936 262.569C180.962 260.567 181.687 258.634 183.024 257.049L194.391 255.046Z" stroke="#2E353A" stroke-linecap="round" stroke-linejoin="round"/>
<path d="M193.552 255.046C193.552 255.046 196.098 265.151 195.869 268.009C195.639 270.869 192.508 279.248 190.204 277.719C187.9 276.192 191.668 270.487 191.668 270.487C191.668 270.487 185.201 266.354 183.712 262.476C182.223 258.599 183.075 256.957 183.075 256.957L193.552 255.046Z" fill="white"/>
<path d="M193.552 255.046C193.552 255.046 196.098 265.151 195.869 268.009C195.639 270.869 192.508 279.248 190.204 277.719C187.9 276.192 191.668 270.487 191.668 270.487C191.668 270.487 185.201 266.354 183.712 262.476C182.223 258.599 183.075 256.957 183.075 256.957L193.552 255.046Z" fill="#D7D7D7"/>
<path d="M193.552 255.046C193.552 255.046 196.098 265.151 195.869 268.009C195.639 270.869 192.508 279.248 190.204 277.719C187.9 276.192 191.668 270.487 191.668 270.487C191.668 270.487 185.201 266.354 183.712 262.476C182.223 258.599 183.075 256.957 183.075 256.957L193.552 255.046Z" stroke="#2E353A" stroke-linecap="round" stroke-linejoin="round"/>
<path d="M185.875 207.696L194.798 256.019L182.222 258.599L169.645 221.342L185.875 207.696Z" fill="#2E353A" stroke="#2E353A" stroke-linecap="round" stroke-linejoin="round"/>
<path d="M141.998 115.312C141.998 115.312 135.06 120.96 133.864 122.916C132.667 124.872 118.105 143.75 117.863 157.245C117.621 170.74 128.632 211.551 128.632 211.551L112.084 249.826L116.87 251.563L121.643 246.783V253.957C121.643 253.957 127.143 258.519 141.476 262.858C155.809 267.199 174.216 262.211 174.216 262.211L179.702 230.45V261.783L186.156 257.87L186.678 205.694C186.678 205.694 191.936 177.673 191.936 169.814C191.936 161.956 177.36 137.407 170.906 130.277C164.453 123.148 153.696 117.245 150.539 115.069C147.382 112.893 141.998 115.312 141.998 115.312Z" stroke="#2E353A" stroke-linecap="round" stroke-linejoin="round"/>
<path d="M180.707 77.9398C180.707 77.9398 186.512 81.9906 187.237 85.9027C187.963 89.8148 185.799 94.1667 186.041 95.6828C186.283 97.1991 190.573 100.683 190.343 102.419C190.114 104.155 186.525 104.803 186.525 104.803C186.525 104.803 182.63 117.697 181.675 119.85C180.72 122.002 175.934 121.366 172.357 120.938L165.903 138.299L144.619 115.532L147.967 106.4C147.967 106.4 138.891 96.412 138.165 85.7639C137.44 75.1156 146.771 67.7315 160.149 66.2152C173.528 64.6991 184.768 70.5556 186.194 72.9514C187.619 75.3471 180.707 77.9398 180.707 77.9398Z" stroke="#2E353A" stroke-linecap="round" stroke-linejoin="round"/>
<path d="M246.456 202.778C246.456 202.778 237.035 197.685 235.508 198.148C233.981 198.61 219.216 208.333 220.233 210.648C221.252 212.963 229.144 215.971 233.727 217.593C238.309 219.213 247.728 215.74 247.728 215.74L246.456 202.778Z" fill="white" stroke="#2E353A" stroke-linecap="round" stroke-linejoin="round"/>
<path d="M219.01 200.927C219.01 200.927 227.158 196.758 228.43 196.758C229.702 196.758 237.086 202.778 237.086 202.778L234.03 206.945C234.03 206.945 243.706 211.343 242.686 212.963C241.669 214.583 237.851 217.13 233.777 217.593C229.702 218.056 218.247 211.343 218.247 211.343L219.01 200.927Z" fill="white"/>
<path d="M219.01 200.927C219.01 200.927 227.158 196.758 228.43 196.758C229.702 196.758 237.086 202.778 237.086 202.778L234.03 206.945C234.03 206.945 243.706 211.343 242.686 212.963C241.669 214.583 237.851 217.13 233.777 217.593C229.702 218.056 218.247 211.343 218.247 211.343L219.01 200.927Z" stroke="#2E353A" stroke-linecap="round" stroke-linejoin="round"/>
<path d="M213.359 199.073L220.488 200.232L218.196 211.343L212.086 209.49L213.359 199.073Z" fill="white" stroke="#2E353A" stroke-linecap="round" stroke-linejoin="round"/>
<path d="M130.629 134.49C130.629 134.49 123.756 146.528 122.992 152.546C122.228 158.565 150.233 206.482 152.27 208.101C154.306 209.721 213.868 211.343 213.868 211.343L216.412 199.537L165.496 186.342L148.183 137.963" stroke="#2E353A" stroke-linecap="round" stroke-linejoin="round"/>
<path d="M237.545 199.305C237.545 199.305 233.981 196.527 232.707 199.768C231.435 203.008 223.542 210.88 227.107 211.111C230.671 211.343 237.29 204.63 237.29 204.63" fill="white"/>
<path d="M237.545 199.305C237.545 199.305 233.981 196.527 232.707 199.768C231.435 203.008 223.542 210.88 227.107 211.111C230.671 211.343 237.29 204.63 237.29 204.63" stroke="#2E353A" stroke-linecap="round" stroke-linejoin="round"/>
<path d="M221.76 212.268C221.76 212.268 220.844 216.17 223.034 217.825C224.573 218.981 225.439 215.74 225.07 213.426C224.701 211.112 222.524 210.416 221.76 212.268Z" fill="white" stroke="#2E353A" stroke-linecap="round" stroke-linejoin="round"/>
<path d="M225.374 213.195C225.374 213.195 224.459 217.094 226.648 218.75C228.188 219.908 229.054 216.666 228.685 214.351C228.316 212.036 226.088 211.341 225.374 213.195Z" fill="white" stroke="#2E353A" stroke-linecap="round" stroke-linejoin="round"/>
<path d="M228.889 214.583C228.889 214.583 227.971 218.483 230.161 220.138C231.702 221.296 232.569 218.054 232.198 215.739C231.829 213.424 229.653 212.731 228.889 214.583Z" fill="white" stroke="#2E353A" stroke-linecap="round" stroke-linejoin="round"/>
<path d="M232.414 216.47C232.414 216.47 231.574 219.096 233.586 220.208C234.999 220.994 235.8 218.807 235.457 217.244C235.113 215.682 233.115 215.219 232.414 216.47Z" fill="white" stroke="#2E353A" stroke-linecap="round" stroke-linejoin="round"/>
<path d="M246.456 202.778L247.218 217.593L252.82 216.203L251.546 202.547L246.456 202.778Z" fill="#00B533" stroke="#2E353A" stroke-linecap="round" stroke-linejoin="round"/>
<path d="M250.274 201.388L252.82 218.981L295.336 214.815L296.355 191.899L250.274 201.388Z" fill="#00B533" stroke="#2E353A" stroke-linecap="round" stroke-linejoin="round"/>
<path d="M182.222 231.307C182.222 231.307 183.037 288.854 184.246 304.351C185.455 319.85 181 340.508 176.952 346.411C172.904 352.315 155.032 389.235 155.847 391.422C156.662 393.611 160.315 400.278 160.315 402.119V409.86C160.315 409.86 180.593 422.038 182.222 422.038C183.852 422.038 185.876 424.988 181.815 427.211C177.754 429.433 132.31 429.422 130.286 427.939C128.949 426.851 127.969 425.452 127.447 423.889C127.447 423.889 120.955 426.098 121.363 420.566C121.77 415.035 129.064 391.422 129.064 391.422C129.064 391.422 124.609 365.589 126.225 348.993C127.842 332.396 133.532 312.465 133.532 308.414C133.532 304.362 127.855 277.419 127.04 272.998C126.225 268.576 114.463 256.019 119.733 246.064C125.003 236.111 129.064 220.23 130.693 219.131C132.323 218.032 154.23 217.28 163.154 219.131C172.077 220.983 181.815 220.972 182.222 231.307Z" fill="#2E353A" stroke="#2E353A" stroke-linecap="round" stroke-linejoin="round"/>
<path d="M141.998 115.312C141.998 115.312 135.06 120.96 133.864 122.916C132.667 124.872 118.105 143.75 117.863 157.245C117.621 170.74 128.632 211.551 128.632 211.551L112.084 249.826L116.87 251.563L121.643 246.783V253.958C121.643 253.958 127.143 258.519 141.476 262.858C155.809 267.199 174.216 262.211 174.216 262.211L179.702 230.45V261.783L186.156 257.87L186.678 205.694C186.678 205.694 191.936 177.673 191.936 169.814C191.936 161.956 177.36 137.407 170.906 130.277C164.453 123.148 153.696 117.245 150.539 115.069C147.382 112.893 141.998 115.312 141.998 115.312Z" fill="#2E353A"/>
<path d="M140.559 116.574L167.087 142.651L182.617 169.595C182.617 169.595 179.269 149.607 176.405 144.132C173.541 138.657 160.633 125.093 159.182 122.049C157.731 119.005 140.559 116.574 140.559 116.574Z" fill="white" stroke="#2E353A" stroke-linecap="round" stroke-linejoin="round"/>
<path d="M175.272 156.886L182.617 169.618C182.617 169.618 180.338 155.995 177.919 148.182L176.405 144.189C174.368 140.949 172.064 137.847 169.505 134.93L165.343 134.178L167.087 142.696L172.459 146.689L175.272 156.886Z" fill="#2E353A" stroke="#2E353A" stroke-linecap="round" stroke-linejoin="round"/>
<path d="M168.195 126.4L169.569 127.847L173.885 132.476L176.431 144.236L165.369 134.201C165.369 134.201 166.82 128.148 168.195 126.4Z" fill="white" stroke="#2E353A" stroke-linecap="round" stroke-linejoin="round"/>
<path d="M180.707 77.9398C180.707 77.9398 186.512 81.9906 187.237 85.9027C187.963 89.8148 185.799 94.1667 186.041 95.6828C186.283 97.1991 190.573 100.683 190.343 102.419C190.114 104.155 186.525 104.803 186.525 104.803C186.525 104.803 182.63 117.697 181.675 119.85C180.72 122.002 175.934 121.366 172.357 120.938L165.903 138.299L144.619 115.532L147.967 106.4C147.967 106.4 138.891 96.412 138.165 85.7639C137.44 75.1157 146.771 67.7315 160.149 66.2152C173.528 64.6991 184.768 70.5556 186.194 72.9514C187.619 75.3471 180.707 77.9398 180.707 77.9398Z" fill="white"/>
<path d="M180.708 77.9398C180.708 77.9398 187.633 75.3357 186.194 72.9514C184.756 70.5671 173.529 64.6874 160.15 66.2152C146.771 67.743 137.453 75.1157 138.166 85.7639C138.879 96.412 147.968 106.4 147.968 106.4L147.459 107.789C152.41 109.988 157.528 106.4 157.528 106.4C155.606 107.28 153.289 106.933 151.787 105.532C148.922 103.148 148.681 95.544 152.27 94.8842C155.86 94.2245 158.24 95.544 158.24 97.9283C158.24 100.312 158.953 98.7963 160.876 98.5764C162.798 98.3564 161.105 93.1481 162.301 92.2801C164.236 91.1921 165.929 89.7917 167.317 88.1482C169.468 85.5439 163.256 83.3797 162.543 80.9837C161.83 78.5879 180.708 77.9398 180.708 77.9398Z" fill="#2E353A" stroke="#2E353A" stroke-linecap="round" stroke-linejoin="round"/>
<path d="M182.413 94.9072L177.984 96.2499H181.993" stroke="#2E353A" stroke-linecap="round" stroke-linejoin="round"/>
<path d="M184.106 90.8793C184.106 90.8793 182.209 88.3909 180.096 89.5367C177.983 90.6825 177.78 91.458 177.78 91.458" stroke="#2E353A" stroke-linecap="round" stroke-linejoin="round"/>
<path d="M179.549 108.333C180.848 109.143 182.426 109.467 183.979 109.259" stroke="#2E353A" stroke-linecap="round" stroke-linejoin="round"/>
<path d="M143.665 111.401L170.422 135.301L168.042 145.509L139.604 117.697L143.665 111.401Z" fill="white" stroke="#2E353A" stroke-linecap="round" stroke-linejoin="round"/>
<path d="M130.629 134.49C130.629 134.49 123.756 146.528 122.992 152.546C122.228 158.565 150.233 206.482 152.27 208.101C154.306 209.721 213.868 211.343 213.868 211.343L216.412 199.537L165.496 186.342L148.183 137.963" fill="#2E353A"/>
<path d="M130.286 427.917C132.31 429.398 177.754 429.398 181.815 427.186C185.875 424.977 183.838 422.013 182.222 422.013C180.605 422.013 160.315 409.838 160.315 409.838C160.315 409.838 149.354 417.593 143.27 419.433C137.185 421.274 127.447 421.643 127.447 421.643V423.865C127.969 425.428 128.949 426.829 130.286 427.917Z" fill="white" stroke="#2E353A" stroke-linecap="round" stroke-linejoin="round"/>
<path d="M181.815 427.21C183.953 426.054 184.36 424.664 184.106 423.633C178.136 424.71 172.076 425.288 165.992 425.359C153.733 425.659 134.448 424.977 127.803 424.721C128.351 425.961 129.229 427.071 130.349 427.939C132.31 429.422 177.754 429.422 181.815 427.21Z" fill="white" stroke="#2E353A" stroke-linecap="round" stroke-linejoin="round"/>
<path d="M126.263 424.178L127.447 421.667L129.064 391.424C129.064 391.424 121.757 415.035 121.362 420.566C121.057 424.595 124.418 424.514 126.263 424.178Z" fill="#2E353A" stroke="#2E353A" stroke-linecap="round" stroke-linejoin="round"/>
<path d="M301.511 262.291C301.511 262.291 297.462 317.268 301.511 339.398C305.558 361.528 315.755 399.907 317.333 404.699C318.325 407.558 318.758 410.556 318.605 413.553L341.327 416.505C341.327 416.505 334.429 343.831 334.429 335.346C334.429 326.863 342.143 263.403 342.143 263.403L301.511 262.291Z" fill="#00B533" stroke="#2E353A" stroke-linecap="round" stroke-linejoin="round"/>
<path d="M318.554 413.552C318.554 413.552 293.809 423.148 290.957 424.988C288.105 426.829 297.054 429.422 308.002 429.422C318.949 429.422 329.921 428.263 329.921 428.263L334.378 426.054L334.785 428.634H346.546C346.546 428.634 348.583 419.78 347.82 417.569C347.247 416.053 346.56 414.572 345.796 413.137L318.554 413.552Z" fill="#2E353A" stroke="#2E353A" stroke-linecap="round" stroke-linejoin="round"/>
<path d="M297.856 257.87C297.856 257.87 299.894 310.625 304.756 329.445C309.618 348.263 318.148 394.004 318.148 398.795C318.173 401.538 317.765 404.27 316.937 406.899L315.308 411.712C315.59 412.859 316.01 413.981 316.582 415.035C316.582 415.035 327.122 417.245 334.021 417.245C338.337 417.211 342.614 416.62 346.75 415.497C346.75 415.497 346.966 403.924 347.374 398.426C347.782 392.927 345.757 357.476 345.757 348.993C345.757 340.51 343.313 335.706 343.313 325.382C343.313 315.058 341.288 287.385 341.696 282.951C342.104 278.518 347.782 273.691 349.003 268.194C350.226 262.697 351.435 256.76 351.435 256.76L297.856 257.87Z" fill="#00B533" stroke="#2E353A" stroke-linecap="round" stroke-linejoin="round"/>
<path d="M288.119 216.181C288.119 216.181 286.604 230.289 286.604 241.076C286.604 247.094 286.541 254.964 286.478 260.66C286.439 265.497 290.182 269.675 295.387 270.624C298.047 271.158 300.773 271.458 303.496 271.515L293.962 217.836C293.962 217.836 289.646 211.204 288.119 216.181Z" fill="#00B533" stroke="#2E353A" stroke-linecap="round" stroke-linejoin="round"/>
<path d="M333.169 120.046C335.497 121.157 337.611 122.592 339.456 124.294C341.087 126.238 342.524 128.298 343.759 130.463C343.759 130.463 361.008 148.541 361.414 150.382C361.822 152.222 351.677 210.335 351.677 210.335L363.234 265.301C363.234 265.301 344.573 274.711 330.368 275.267C320.374 275.66 305.341 272.753 297.27 270.994C293.974 270.288 291.556 267.744 291.25 264.676C290.461 256.943 288.983 241.528 288.119 226.932C287.126 209.977 289.952 176.389 291.937 164.583C293.923 152.777 300.263 136.736 305.125 130.092C309.987 123.449 323.391 116.574 333.169 120.046Z" fill="#00B533" stroke="#2E353A" stroke-linecap="round" stroke-linejoin="round"/>
<path d="M343.759 130.463C342.538 128.333 341.111 126.296 339.507 124.375C337.662 122.673 335.55 121.238 333.22 120.127C325.124 117.222 314.532 121.435 308.385 126.759C307.57 128.402 301.154 141.713 298.112 152.592C294.865 164.166 295.273 178.796 295.273 178.796C295.273 178.796 306.028 166.25 320.629 151.493C327.923 144.12 335.88 137.314 344.434 131.157L343.759 130.463Z" fill="#00B533" stroke="#2E353A" stroke-linecap="round" stroke-linejoin="round"/>
<path d="M343.759 130.463C342.538 128.333 341.111 126.296 339.507 124.375C337.662 122.673 335.55 121.238 333.22 120.127C325.124 117.222 314.532 121.435 308.385 126.759C307.57 128.402 301.154 141.713 298.112 152.592C294.865 164.166 295.273 178.796 295.273 178.796C295.273 178.796 306.028 166.25 320.629 151.493C327.923 144.12 335.88 137.314 344.434 131.157L343.759 130.463Z" stroke="#2E353A" stroke-linecap="round" stroke-linejoin="round"/>
<path d="M306.997 135.243C306.997 135.243 301.511 150.879 299.843 155.301C298.176 159.722 298.011 166.655 298.011 166.655C298.011 166.655 318.556 138.703 323.571 134.004C328.586 129.305 335.142 121.967 335.142 121.967L330.724 120.81L306.997 135.243Z" fill="white" stroke="#2E353A" stroke-linecap="round" stroke-linejoin="round"/>
<path d="M308.511 129.571C308.511 129.571 306.081 136.076 306.081 136.516C306.081 136.956 305.47 143.159 305.47 143.159L314.138 132.5L308.511 129.571Z" fill="white" stroke="#2E353A" stroke-linecap="round" stroke-linejoin="round"/>
<path d="M330.571 116.574L306.844 134.144L310.497 143.82L334.836 121.273L330.571 116.574Z" fill="white" stroke="#2E353A" stroke-linecap="round" stroke-linejoin="round"/>
<path d="M327.503 255.926C327.503 255.926 324.129 263.553 323.124 266.053C322.119 268.554 322.627 278.345 322.755 279.374C322.882 280.405 324.882 280.625 324.882 280.625C324.882 280.625 325.505 288.473 326.256 288.727C327.032 288.901 327.834 289.016 328.637 289.062C328.637 289.062 330.011 293.056 331.768 292.708C332.849 292.407 333.625 291.562 333.766 290.543C334.936 290.649 336.082 290.161 336.771 289.294C337.482 288.334 338.082 287.303 338.526 286.226C338.526 286.226 341.531 284.86 341.774 283.832C342.014 282.801 342.779 279.202 342.779 279.202C342.779 279.202 343.657 278.97 343.657 276.585C343.657 274.201 341.657 259.514 341.657 259.514L327.503 255.926Z" fill="white" stroke="#2E353A" stroke-linecap="round" stroke-linejoin="round"/>
<path d="M324.882 280.625L325.251 273.704" stroke="#2E353A" stroke-linecap="round" stroke-linejoin="round"/>
<path d="M328.637 289.04L329.452 278.796" stroke="#2E353A" stroke-linecap="round" stroke-linejoin="round"/>
<path d="M333.766 290.521L334.351 279.433" stroke="#2E353A" stroke-linecap="round" stroke-linejoin="round"/>
<path d="M338.528 286.204L339.254 278.484" stroke="#2E353A" stroke-linecap="round" stroke-linejoin="round"/>
<path d="M352.238 145.347L361.365 150.324L358.323 207.696L342.092 261.92L326.678 258.241L331.54 215.417L329.108 172.257C329.108 172.257 332.557 162.199 340.463 156.666" fill="#00B533"/>
<path d="M352.238 145.347L361.365 150.324L358.323 207.696L342.092 261.92L326.678 258.241L331.54 215.417L329.108 172.257C329.108 172.257 332.557 162.199 340.463 156.666" stroke="#2E353A" stroke-linecap="round" stroke-linejoin="round"/>
<path d="M292.843 81.4236C292.843 81.4236 287.966 94.0161 288.425 95.8217C288.884 97.6273 289.34 100.382 289.34 100.382C289.34 100.382 281.704 108.958 282.645 109.931C283.587 110.903 287.813 112.002 287.813 112.002C287.813 112.002 291.314 125.289 292.69 126.528C294.064 127.766 302.579 125.011 302.579 125.011L311.706 135.521L330.419 119.201L328.141 110.625C328.141 110.625 338.031 94.8496 337.878 87.3726C337.725 79.8958 320.847 69.942 308.817 70.081C296.787 70.2199 285.534 74.2361 287.813 77.1412C289.151 78.8656 290.855 80.3241 292.843 81.4236Z" fill="white"/>
<path d="M292.843 81.4236C292.843 81.4236 287.966 94.0161 288.425 95.8217C288.884 97.6274 289.34 100.382 289.34 100.382C289.34 100.382 281.704 108.958 282.645 109.931C283.587 110.903 287.813 112.002 287.813 112.002C287.813 112.002 291.314 125.289 292.69 126.528C294.064 127.766 302.579 125.011 302.579 125.011L311.706 135.521L330.419 119.201L328.141 110.625C328.141 110.625 338.031 94.8496 337.878 87.3726C337.725 79.8958 320.847 69.942 308.817 70.081C296.787 70.2199 285.534 74.2361 287.813 77.1412C289.151 78.8656 290.855 80.3241 292.843 81.4236Z" stroke="#2E353A" stroke-linecap="round" stroke-linejoin="round"/>
<path d="M328.139 110.625C328.139 110.625 338.031 94.8496 337.878 87.3726C337.725 79.8958 320.845 69.942 308.817 70.081C296.787 70.2199 285.534 74.2361 287.813 77.1412C289.149 78.8656 290.867 80.3241 292.841 81.4236C292.841 81.4236 300.3 84.6065 300.3 85.4398C300.3 86.2731 295.884 90.6943 297.411 92.6388C298.938 94.5832 306.232 96.9212 306.232 96.9212C306.232 96.9212 304.96 100.66 306.844 101.076C308.728 101.493 309.58 99.8263 310.789 98.7615C312 97.6967 316.277 96.1227 316.886 100.833C317.243 104.213 316.277 107.593 314.138 110.382C313.539 110.787 321.903 115.914 325.593 114.387C326.549 113.993 327.668 113.472 328.79 112.928L328.139 110.625Z" fill="#2E353A" stroke="#2E353A" stroke-linecap="round" stroke-linejoin="round"/>
<path d="M291.619 103.843C292.211 103.843 292.688 102.169 292.688 100.104C292.688 98.0394 292.211 96.3657 291.619 96.3657C291.028 96.3657 290.549 98.0394 290.549 100.104C290.549 102.169 291.028 103.843 291.619 103.843Z" stroke="#2E353A" stroke-linecap="round" stroke-linejoin="round"/>
<path d="M292.841 98.5881L310.791 98.7279" stroke="#2E353A" stroke-linecap="round" stroke-linejoin="round"/>
<path d="M289.889 94.0855C289.889 94.0855 291.593 91.6088 293.299 94.699" stroke="#2E353A" stroke-linecap="round" stroke-linejoin="round"/>
<path d="M289.544 114.259C291.391 113.576 293.11 112.639 294.637 111.47" stroke="#2E353A" stroke-linecap="round" stroke-linejoin="round"/>
</g>
<defs>
<clipPath id="clip0_11_134">
<rect width="475" height="430" fill="white"/>
</clipPath>
</defs>
</svg>
