<?xml version="1.0" encoding="UTF-8"?>
<svg width="84px" height="84px" viewBox="0 0 84 84" version="1.1" xmlns="http://www.w3.org/2000/svg" xmlns:xlink="http://www.w3.org/1999/xlink">
    <!-- Generator: Sketch 52.4 (67378) - http://www.bohemiancoding.com/sketch -->
    <title>Fill 971</title>
    <desc>Created with Sketch.</desc>
    <g id="Page-1" stroke="none" stroke-width="1" fill="none" fill-rule="evenodd">
        <g id="Главная" transform="translate(-1038.000000, -3622.000000)" fill="#FFE1EC">
            <g id="How-we-work" transform="translate(-3.000000, 3216.000000)">
                <g id="Group-4" transform="translate(2.000000, 364.000000)">
                    <g id="Пункт" transform="translate(1035.000000, 0.000000)">
                        <g id="Group-9" transform="translate(0.000000, 38.000000)">
                            <path d="M48.8721543,62.9850452 C48.8891543,62.9850452 48.8891543,62.9850452 48.9061543,62.9850452 C48.7021543,62.9170452 48.5321543,62.9850452 48.3451543,62.9850452 C47.5461543,62.9000452 46.7811543,62.7810452 46.0161543,62.9850452 C46.0671543,62.9850452 46.0671543,62.9850452 46.0841543,62.9850452 C45.8461543,63.0020452 45.6421543,62.9850452 45.4041543,62.9850452 C45.4551543,62.9850452 45.4721543,62.9850452 45.5061543,62.9850452 C45.6421543,62.9850452 45.7611543,62.9850452 45.8461543,62.9850452 C45.9141543,62.9340452 45.9821543,62.9170452 46.0161543,62.9850452 C46.4411543,62.9340452 46.9001543,62.9000452 47.3761543,62.8830452 C47.8861543,62.9000452 48.4131543,62.9850452 48.9061543,62.9850452 C48.9571543,62.9340452 49.0421543,62.9340452 49.1101543,62.9850452 C49.1951543,62.9850452 49.2631543,62.9850452 49.3481543,62.9850452 C49.2121543,62.9850452 49.0421543,62.9850452 48.8721543,62.9850452 Z M90.4430594,40.1833979 C89.732551,40.2337955 89.038566,40.1833979 88.3280576,40.1833979 C88.3280576,40.2169963 88.3280576,40.2169963 88.3280576,40.2337955 C88.3280576,40.2169963 88.3280576,40.2169963 88.3280576,40.2169963 L88.3280576,40.1833979 C87.6340726,39.7130203 86.8409469,40.0322051 86.0973916,39.9482091 C86.4113372,39.6458235 86.8574704,39.528229 87.1218456,39.1250482 C87.3696974,38.7554658 87.2870801,38.4194817 86.8574704,38.4362809 C85.9156336,38.4530801 85.0068438,37.9995017 84.065007,38.1674937 C83.8997725,38.1674937 83.7675849,38.1674937 83.6023504,38.1674937 C83.1231703,38.1674937 82.5778964,38.1674937 82.0821928,38.1674937 C82.1648101,38.2514897 82.2969977,38.3354857 82.379615,38.4194817 C82.3300446,38.4362809 82.2969977,38.4194817 82.2804743,38.4362809 C82.2143804,38.3354857 82.197857,38.2010921 82.0821928,38.1674937 C81.9995756,38.1674937 81.9169583,38.1674937 81.8343411,38.1338953 C81.8343411,38.1170961 81.8343411,38.1170961 81.7682472,38.0834977 C81.7021534,38.0498993 81.6525831,38.0834977 81.6030127,38.1674937 C81.4873486,38.1338953 81.4543017,38.1338953 81.3386375,38.1338953 C80.7437932,37.6467185 80.0167614,38.0331001 79.3558233,37.8819073 C79.1905888,37.529124 78.942737,37.2939352 78.612268,37.1259432 C78.5296507,37.1259432 78.4470334,37.1259432 78.3809396,37.1259432 C78.4470334,36.9579512 78.5296507,36.77316 78.612268,36.6051679 C78.8270728,36.6051679 78.9923073,36.5547703 79.1079715,36.3699791 C79.3558233,36.3699791 79.6201985,36.3699791 79.8515268,36.3699791 C80.0663317,36.3699791 80.2150428,36.3027823 80.3472304,36.1347903 C80.5124649,36.1347903 80.6942229,36.1347903 80.8594574,36.1347903 C81.1073092,36.2691839 81.3386375,36.2691839 81.6030127,36.1347903 C81.68563,36.1011919 81.7682472,36.1011919 81.8343411,36.1011919 C81.9995756,36.1011919 82.1648101,36.1011919 82.3300446,36.1011919 C82.4952791,35.9331999 82.710084,36.0003967 82.8257482,35.8660031 C83.0901234,35.8492039 83.3214517,35.8492039 83.6023504,35.8492039 C83.8502022,35.6476134 84.098054,35.6476134 84.3624292,35.8492039 C84.5276637,35.8492039 84.6598513,35.8492039 84.8581327,35.8492039 C85.4199301,35.7652079 86.0478213,36.0675935 86.6096186,35.614015 C87.353174,35.5972158 88.0802058,35.5972158 88.8237612,35.5972158 C88.9063784,35.4964206 88.9889957,35.4124246 89.0716129,35.3284286 C89.3194647,35.3284286 89.5673165,35.3284286 89.8151683,35.3284286 C89.9473559,35.1604366 90.1786842,35.2276334 90.3108718,35.0932398 C90.6578643,35.0764406 90.9718099,35.0764406 91.3188024,35.0596414 C91.4014196,34.9924446 91.4675134,34.9084486 91.5501307,34.8244526 C92.144975,34.8244526 92.7067723,34.8244526 93.3016166,34.7908541 C93.4503277,34.6564605 93.6651325,34.7068581 93.8138436,34.5724645 C94.0616954,34.5724645 94.2930237,34.5724645 94.5573989,34.5556653 C95.2844308,34.5220669 95.2844308,34.5220669 95.0531025,34.0348901 C94.8052507,34.0348901 94.5573989,34.0348901 94.2930237,34.0348901 C94.0451719,33.6653076 93.6651325,33.8165004 93.3016166,33.782902 C93.1529055,33.782902 92.9546241,33.782902 92.8224365,33.782902 C92.8224365,33.7997012 92.7893896,33.8332996 92.7067723,33.8668981 C92.6737254,33.8836973 92.6076316,33.8668981 92.5415378,33.782902 C91.9797405,33.782902 91.4014196,33.782902 90.8065754,33.782902 C90.5752471,33.4637172 90.2282546,33.5645124 89.914309,33.5141148 C89.1211833,33.5141148 88.3445811,33.5141148 87.5845023,33.5141148 C87.2705567,33.5141148 86.9235642,33.5141148 86.6096186,33.5141148 C86.3121965,33.1613316 85.9321571,33.3125244 85.6016881,33.278926 C84.1806712,33.278926 82.7761778,33.278926 81.3386375,33.2621268 C80.9751216,32.8757451 80.5124649,33.0773356 80.0993786,33.0101388 C79.9341441,33.0101388 79.7689096,33.0101388 79.6201985,33.0101388 C79.1740653,32.4725643 78.4635569,33.0101388 78.0009002,32.5901587 C78.3974631,31.3302186 78.3478927,31.1454274 77.0755869,31.2462226 C75.5554294,31.3806162 74.1178891,30.8766401 72.7133957,30.5238569 C71.1106208,30.1542745 69.507846,30.1542745 67.9215947,30.0030816 C66.3353433,29.868688 64.716045,29.8518888 63.0967467,29.9022864 C60.6017055,30.0198808 58.0901408,29.952684 55.5785762,29.952684 C55.2481071,29.952684 54.8845912,29.9022864 54.5871691,29.9694832 C52.7365425,30.3054673 50.8693924,30.2718689 49.0352893,30.4734593 C48.4569685,30.5070577 47.8951711,30.6078529 47.3498972,30.6750497 C46.8046233,30.6414513 46.2758728,30.5238569 45.7305989,30.4734593 C43.8964958,30.2718689 42.0128223,30.3390657 40.1952426,30.0030816 C39.8647735,29.9358848 39.5343045,29.9694832 39.2038355,29.9694832 C36.6922708,29.952684 34.1476592,30.03668 31.6360945,29.9358848 C30.0333197,29.868688 28.4140214,29.868688 26.8442935,30.0198808 C25.2580421,30.1710737 23.6552673,30.1710737 22.069016,30.5574553 C20.6645225,30.8766401 19.2269822,31.3806162 17.7068247,31.2630218 C16.4179954,31.1622266 16.3519016,31.363817 16.7649879,32.6237571 C16.2858078,33.0101388 15.5918229,32.5061627 15.1622131,33.0101388 C14.9969786,33.0101388 14.8482675,33.0437372 14.6499861,33.0437372 C14.2534233,33.0941348 13.7577197,32.8757451 13.4437741,33.278926 C11.9897104,33.278926 10.585217,33.278926 9.18072356,33.2957252 C8.85025452,33.3125244 8.45369168,33.1613316 8.172793,33.5141148 C7.85884742,33.5141148 7.51185493,33.5645124 7.19790934,33.5645124 C6.42130711,33.5645124 5.66122833,33.5645124 4.86810264,33.5645124 C4.55415706,33.5645124 4.19064112,33.4805164 3.97583625,33.782902 C3.38099198,33.782902 2.78614772,33.7997012 2.2078269,33.7997012 C2.1417331,33.8668981 2.10868619,33.8836973 2.04259239,33.8668981 C1.97649858,33.8332996 1.94345168,33.8165004 1.94345168,33.7997012 C1.79474061,33.7997012 1.61298264,33.7997012 1.43122467,33.7997012 C1.11727909,33.8332996 0.753763148,33.6653076 0.456341016,34.0516893 C0.208489239,34.0516893 -0.0558859897,34.0516893 -0.303737766,34.0516893 C-0.51854264,34.5220669 -0.502019188,34.5220669 0.208489239,34.5724645 C0.456341016,34.5724645 0.687669341,34.5724645 0.952044569,34.5724645 C1.10075564,34.7404565 1.31556051,34.6564605 1.43122467,34.8244526 C2.04259239,34.858051 2.63743665,34.858051 3.19923401,34.858051 C3.29837472,34.9084486 3.38099198,34.9924446 3.46360924,35.0764406 C3.77755482,35.0932398 4.14107076,35.0932398 4.4384929,35.0932398 C4.58720396,35.2444326 4.83505574,35.1772358 4.9507199,35.3284286 C5.21509513,35.3452278 5.46294691,35.3452278 5.69427523,35.3452278 C5.79341594,35.4124246 5.8760332,35.4964206 5.95865046,35.614015 C6.70220579,35.614015 7.44576112,35.614015 8.172793,35.614015 C8.71806691,36.0675935 9.34595808,35.7652079 9.92427889,35.8660031 C10.0895134,35.8660031 10.2382245,35.8660031 10.4199824,35.8660031 C10.6678342,35.6476134 10.915686,35.6476134 11.1635378,35.8660031 C11.427913,35.8660031 11.6757648,35.8660031 11.9236166,35.8660031 C12.0723276,36.0171959 12.2871325,35.9499991 12.4193201,36.1347903 C12.6010781,36.1011919 12.782836,36.1011919 12.9480706,36.1011919 C13.0141644,36.1011919 13.0802582,36.1347903 13.1628754,36.1347903 C13.4107272,36.2691839 13.6420555,36.2691839 13.8899073,36.1347903 C14.0551418,36.1347903 14.2534233,36.1347903 14.4351812,36.1347903 C14.5343219,36.3363807 14.7160799,36.3699791 14.9143613,36.3867783 C15.1622131,36.3867783 15.3935414,36.3867783 15.6579167,36.3867783 C15.7570574,36.5547703 15.9553388,36.6051679 16.1370968,36.6219671 C16.2362375,36.77316 16.3353782,36.9579512 16.401472,37.1259432 C16.3353782,37.1427424 16.2527609,37.1427424 16.1701437,37.1427424 C15.8066277,37.2939352 15.5918229,37.529124 15.3935414,37.9155057 C14.7656503,38.0331001 14.0055715,37.6635177 13.4107272,38.1674937 C13.32811,38.1674937 13.2454927,38.1674937 13.1628754,38.1674937 C13.0967816,38.1170961 13.0802582,38.0834977 12.9976409,38.1170961 C12.9480706,38.1170961 12.9315471,38.1338953 12.9315471,38.1674937 C12.8324064,38.1674937 12.782836,38.1674937 12.6836953,38.1674937 C12.5680312,38.2178913 12.5680312,38.3522849 12.4854139,38.4362809 C12.452367,38.4362809 12.4358436,38.4530801 12.4027967,38.4362809 C12.4854139,38.3354857 12.6010781,38.2514897 12.6836953,38.1674937 C12.1714683,38.1674937 11.6427179,38.1674937 11.1304909,38.1674937 C10.9817798,38.1674937 10.8495922,38.1674937 10.7008811,38.1674937 C9.77556782,37.9995017 8.85025452,38.4530801 7.89189432,38.4362809 C7.49533148,38.4362809 7.39619077,38.7554658 7.66056599,39.1418474 C7.89189432,39.528229 8.33802752,39.6458235 8.68502,39.9482091 C7.94146467,40.0322051 7.14833899,39.7130203 6.45435401,40.2169963 C6.45435401,40.2337955 6.45435401,40.2337955 6.45435401,40.2505947 C6.45435401,40.2337955 6.45435401,40.2169963 6.45435401,40.2169963 C5.74384559,40.2169963 5.03333716,40.2505947 4.33935219,40.2169963 C2.67048355,40.1162011 1.05118528,40.3177915 -0.584636447,40.4521851 C-1.08034,40.5361812 -1.59256701,40.2673939 -2.12131746,40.4521851 C-2.15436437,40.9057636 -1.85694223,41.1409524 -1.60909046,41.1409524 C-0.849011675,41.0905548 -0.0889328933,41.6281293 0.687669341,41.2249484 C0.86942731,41.2249484 1.05118528,41.2417476 1.19989635,41.2921452 C2.38958487,41.5105349 3.59579685,41.8969165 4.78548538,41.9809125 C7.36314386,42.1825029 9.85818508,42.8208726 12.3367028,43.3248487 C12.7332657,43.4088447 12.9811175,43.6608327 13.1628754,44.0304151 C13.1628754,44.0472143 13.1793989,44.0472143 13.1793989,44.0472143 L13.1793989,44.0808127 L13.1628754,44.0304151 C12.815883,44.0976119 12.4193201,43.9296199 12.1549449,44.3160016 L12.2045152,44.3328008 C12.2045152,44.3328008 12.1714683,44.3328008 12.1549449,44.3328008 L12.1549449,44.3160016 C10.2382245,44.1648087 8.42064478,44.6351864 6.50392437,44.5847888 C6.10736153,44.5511904 5.69427523,44.7191824 5.33075929,44.853576 C4.86810264,45.0047688 4.86810264,45.2903553 5.21509513,45.5927409 C5.29771239,45.8111305 5.46294691,45.8447289 5.66122833,45.8615281 C5.8760332,46.1975122 6.10736153,46.4495002 6.45435401,46.6174922 L6.48740092,46.600693 C6.47087747,46.6174922 6.45435401,46.6174922 6.45435401,46.6174922 C6.42130711,47.1718659 6.55349472,47.6086451 7.19790934,47.6590427 C7.19790934,47.6422435 7.19790934,47.6086451 7.2144328,47.6086451 L7.19790934,47.6590427 C7.29705005,47.8438339 7.49533148,47.9110307 7.6936129,47.9110307 L7.6936129,47.8774323 C7.6936129,47.8774323 7.6936129,47.8774323 7.71013635,47.8774323 C7.6936129,47.8942315 7.6936129,47.9110307 7.6936129,47.9110307 C8.58587929,48.34781 9.34595808,49.1541717 10.4199824,49.1877701 L10.4530293,49.1541717 L10.4199824,49.1877701 C11.246155,49.4229589 11.5766241,50.2125214 12.1549449,50.7164974 C12.1714683,50.7164974 12.2045152,50.6996982 12.2045152,50.682899 C12.2045152,50.6996982 12.2045152,50.6996982 12.2045152,50.6996982 L12.1549449,50.7164974 C12.2871325,50.9348871 12.4358436,50.9684855 12.6506484,50.9852847 C12.6506484,50.9684855 12.6671719,50.9684855 12.6671719,50.9684855 L12.6506484,50.9852847 C12.815883,51.2204735 12.9976409,51.2204735 13.1628754,50.9684855 C13.5924852,50.9684855 14.0055715,50.9684855 14.4021343,50.9684855 C14.7160799,51.1700759 14.9639317,51.4220639 15.1622131,51.7412487 L15.1622131,51.9764376 C15.2448304,52.0772328 15.3109242,52.178028 15.4265883,52.2452248 C15.4596352,52.6652048 15.7240105,53.1859801 14.9969786,53.3035745 C14.4351812,53.4043697 14.3690874,53.925145 14.1873294,54.3283258 L14.1873294,54.3115266 C13.9725246,54.6307114 13.7246728,54.8994987 13.4437741,55.0842899 C13.32811,55.1514867 13.2454927,55.2354827 13.1628754,55.3194787 C11.3287723,55.3194787 9.72599747,55.9578484 8.30498061,57.1841901 C7.94146467,57.5537726 8.05712884,57.9401542 8.38759787,58.1585438 C8.38759787,58.2089414 8.37107442,58.2089414 8.33802752,58.2089414 C8.38759787,58.2089414 8.38759787,58.2425398 8.45369168,58.2089414 C8.51978549,58.259339 8.51978549,58.343335 8.63544965,58.4105318 C8.71806691,58.4105318 8.81720762,58.4105318 8.88330143,58.4105318 C9.32943462,58.4105318 9.77556782,58.4945279 10.1721307,58.6121223 C10.2382245,58.6793191 10.2382245,58.8473111 10.3208417,58.9313071 C10.4199824,59.2672911 10.7008811,59.5360784 10.6513108,59.9056608 C10.6678342,59.92246 10.6843577,59.92246 10.7008811,59.9560584 L10.6843577,59.9560584 L10.6513108,59.92246 C9.85818508,59.8888616 9.47814569,60.5776289 8.93287178,60.9640105 C8.71806691,61.1991993 8.38759787,60.9976089 8.172793,61.2327977 C7.82580051,61.2831953 7.44576112,61.1152033 7.19790934,61.4847858 C7.01615137,61.4847858 6.85091686,61.4847858 6.70220579,61.4847858 C6.33868985,61.5183842 5.95865046,61.6359786 5.76036904,62.005561 C5.74384559,62.089557 5.76036904,62.2911475 5.82646285,62.3583443 C6.18997878,62.5935331 6.60306508,62.6271315 6.93353412,62.2575491 C6.98310447,62.173553 7.04919828,62.173553 7.11529208,62.173553 C7.16486244,62.2071514 7.19790934,62.2407499 7.19790934,62.2575491 C7.2805266,62.2575491 7.36314386,62.2575491 7.44576112,62.2575491 C7.85884742,62.173553 8.30498061,62.4255411 8.68502,62.005561 C8.85025452,62.005561 9.01548904,62.005561 9.18072356,62.005561 C9.9903727,61.9551634 10.8165453,62.089557 11.609671,61.9047658 C11.94014,61.8207698 12.3532263,61.8879666 12.5184608,62.173553 C12.7167422,62.5935331 12.2375621,62.6775291 11.9897104,62.8623203 C11.4609599,63.3158988 10.8330687,63.6182844 10.1390838,63.8702724 C10.6678342,64.3742485 11.3948661,64.2062565 11.9236166,64.5422405 C12.815883,64.9958189 13.7577197,64.9790197 14.6499861,64.5422405 C14.7326034,64.5422405 14.7986972,64.5422405 14.8813144,64.5422405 C15.3109242,64.5086421 15.7901043,64.7438309 16.1370968,64.2902525 C16.5667065,64.2398549 17.0624101,64.4750437 17.4094025,64.0550636 C17.9877234,63.9542684 18.5990911,64.2902525 19.144365,63.7862764 C19.2269822,63.7694772 19.2765526,63.7694772 19.3591699,63.7862764 C19.7226858,63.7694772 20.1027252,63.9038708 20.3836239,63.5342884 C20.4662411,63.5342884 20.5488584,63.5342884 20.6149522,63.5342884 C20.7967102,63.3830956 20.9619447,63.3830956 21.1271792,63.5342884 C21.2097965,63.5678868 21.2593668,63.6182844 21.2924137,63.6014852 C21.3419841,63.5678868 21.375031,63.5510876 21.375031,63.5342884 C21.4576482,63.5342884 21.5402655,63.5510876 21.6228828,63.5510876 C21.7220235,63.6350836 21.8046407,63.7022804 21.8707345,63.7862764 C22.0524925,63.7862764 22.217727,63.7862764 22.4160084,63.8198748 C23.3247983,64.1390597 24.1840178,64.2398549 25.0928076,63.7862764 C25.3076125,63.7862764 25.5224174,63.752678 25.6215581,63.5342884 C25.7041753,63.50069 25.7702691,63.50069 25.8694099,63.5342884 C26.4807776,64.0718628 27.0921453,63.3998948 27.7365599,63.4838908 C28.1661697,63.5342884 28.5627325,63.2151036 29.0419126,63.4502924 C29.2732409,63.6014852 29.5210927,63.4502924 29.7193741,63.2655012 C29.8846086,63.1479067 30.0994135,62.9631155 30.2811715,63.0639107 C30.8760158,63.3830956 31.4047662,63.0807099 31.9665636,63.0135131 C32.0822277,63.0135131 32.2144153,63.0135131 32.346603,63.0135131 C33.3049632,63.1647059 34.2798468,63.2655012 35.2712539,63.0303123 C35.3869181,63.0135131 35.5191057,63.0135131 35.6512933,63.0135131 C35.7008637,63.0303123 35.750434,63.0639107 35.7834809,63.0639107 C35.9487154,63.1143083 36.0478562,63.1815052 36.1635203,63.3998948 C35.6182464,63.5678868 35.1060194,63.752678 34.577269,63.9038708 C36.5105128,63.8198748 38.4107098,64.2902525 40.3109067,63.836674 C40.8066103,63.752678 41.3188373,63.7862764 41.7980174,63.7862764 C42.5085258,63.7862764 43.2190342,63.8198748 43.8964958,63.5678868 C44.7226683,63.2151036 45.6479816,63.2319028 46.540248,63.248702 C46.722006,63.2655012 46.903764,63.2655012 47.0689985,63.2655012 C47.2177096,63.2655012 47.3498972,63.2655012 47.5151317,63.2655012 C47.74646,63.248702 48.0273587,63.2655012 48.2752105,63.248702 C49.1674769,63.2319028 50.0266964,63.2151036 50.8693924,63.5510876 C51.5633774,63.8198748 52.2738858,63.7694772 52.9513473,63.7862764 C53.4470509,63.7862764 53.9592779,63.7190796 54.4715049,63.8198748 C56.338655,64.2902525 58.2718988,63.8198748 60.1886192,63.9038708 C59.6598688,63.7190796 59.1311183,63.5510876 58.6023678,63.3998948 C58.7015086,63.1815052 58.8336962,63.0975091 58.9658838,63.0639107 C58.9989307,63.0303123 59.048501,63.0135131 59.1145949,63.0135131 C59.2633059,63.0135131 59.3789701,63.0135131 59.5111577,63.0135131 C60.5025648,63.248702 61.460925,63.1479067 62.4358087,63.0135131 C62.5514728,63.0135131 62.6836604,63.0135131 62.8158481,63.0135131 C63.3445985,63.0639107 63.9063959,63.3830956 64.5012401,63.0639107 C64.6664747,62.9463163 64.8812795,63.1143083 65.046514,63.2655012 C65.2613189,63.4502924 65.4761238,63.5678868 65.7239756,63.4502924 C66.1866322,63.2151036 66.616242,63.5342884 67.0458517,63.4502924 C67.6737429,63.3830956 68.2685871,64.0718628 68.8964783,63.50069 C68.9790956,63.50069 69.0617128,63.50069 69.1278066,63.5342884 C69.2765177,63.752678 69.4747991,63.7862764 69.6565571,63.7694772 C70.5653469,64.2230557 71.4741368,64.1390597 72.3664032,63.8198748 C72.5316377,63.7862764 72.7133957,63.7862764 72.8786302,63.7862764 C72.944724,63.7022804 73.0273413,63.6182844 73.126482,63.5510876 C73.2256227,63.5342884 73.3082399,63.5342884 73.3908572,63.50069 C73.3908572,63.5342884 73.3908572,63.5510876 73.4734745,63.5678868 C73.5230448,63.6182844 73.5560917,63.5678868 73.6221855,63.50069 C73.78742,63.3830956 73.9857015,63.3830956 74.150936,63.50069 C74.2335532,63.50069 74.3161705,63.50069 74.3987878,63.5342884 C74.6301161,63.9038708 75.0597258,63.752678 75.3901949,63.7694772 C75.4728121,63.7694772 75.5554294,63.7694772 75.6380466,63.7862764 C76.1502736,64.2902525 76.7946883,63.9374692 77.3730091,64.0550636 L77.3730091,64.0214652 C77.7034781,64.4582445 78.1826582,64.2230557 78.612268,64.2902525 C78.9757839,64.7270317 79.4219171,64.4750437 79.8845737,64.5254413 C79.9837145,64.5254413 80.0167614,64.5254413 80.0993786,64.5422405 C81.0246919,64.9622205 81.9334818,64.9790197 82.8257482,64.5254413 L82.8257482,64.5422405 C83.3710221,64.1726581 84.098054,64.3742485 84.6433279,63.8702724 C83.9493429,63.6182844 83.3214517,63.3158988 82.7927013,62.8623203 C82.528326,62.6439307 82.0491459,62.5599347 82.2474274,62.173553 C82.379615,61.8879666 82.8257482,61.8207698 83.1727407,61.8879666 C83.9493429,62.0559586 84.7755155,61.9551634 85.6016881,61.9719626 C85.7669226,62.005561 85.9321571,62.005561 86.0973916,62.005561 C86.4443841,62.3919427 86.9235642,62.173553 87.353174,62.2407499 C87.4192678,62.2407499 87.501885,62.2407499 87.5845023,62.2575491 C87.5845023,62.2407499 87.5845023,62.173553 87.6671195,62.173553 C87.7166899,62.1399546 87.7993072,62.173553 87.8323541,62.2575491 L87.8323541,62.2407499 C88.1628231,62.6271315 88.5593859,62.5599347 88.9229019,62.3415451 C88.9889957,62.2911475 89.038566,62.089557 88.9889957,62.005561 C88.8072377,61.6191794 88.4602452,61.501585 88.0802058,61.4847858 C87.9314948,61.4511874 87.7497368,61.4847858 87.5845023,61.4847858 C87.353174,61.1152033 86.9235642,61.2495969 86.6096186,61.2327977 C86.3948137,60.9976089 86.0312978,61.1991993 85.8495398,60.9640105 C85.2877425,60.5440305 84.9077031,59.8888616 84.1145774,59.9056608 L84.065007,59.92246 C84.065007,59.92246 84.098054,59.9056608 84.1145774,59.9056608 C84.0484836,59.5360784 84.3624292,59.2504919 84.4450464,58.9145079 C84.4946168,58.8473111 84.5276637,58.6793191 84.610281,58.6121223 C85.0068438,58.4945279 85.4364535,58.4105318 85.8825867,58.4105318 C85.965204,58.4105318 86.0478213,58.4105318 86.1304385,58.3769334 C86.2461027,58.343335 86.2626261,58.2425398 86.3452434,58.2089414 C86.3617668,58.2089414 86.3948137,58.2089414 86.4113372,58.2089414 C86.3948137,58.175343 86.3948137,58.175343 86.3948137,58.1585438 C86.7087593,57.9065558 86.8409469,57.5201742 86.4443841,57.1673909 C85.0729376,55.92425 83.4536393,55.3194787 81.6030127,55.3194787 C81.4873486,55.2354827 81.4543017,55.1514867 81.3386375,55.0842899 C81.0577388,54.8659003 80.809887,54.6139122 80.5950822,54.3115266 C80.3802773,53.925145 80.29766,53.3875705 79.7689096,53.2867753 C79.0584012,53.1691809 79.3227764,52.6484056 79.3558233,52.2116264 C79.4219171,52.1444296 79.5045344,52.0604336 79.6201985,51.9596384 L79.6201985,51.7412487 C79.785433,51.3884655 80.0332848,51.1364775 80.3472304,50.9684855 C80.7603167,50.9684855 81.173403,50.9684855 81.6030127,50.9684855 C81.7682472,51.2204735 81.9334818,51.2204735 82.1152397,50.9684855 L82.0821928,50.9684855 L82.1152397,50.9684855 C82.2969977,50.9684855 82.4952791,50.9012887 82.5944198,50.7164974 L82.5778964,50.682899 C82.5778964,50.682899 82.5778964,50.6996982 82.5944198,50.7164974 C83.2057876,50.2125214 83.5362566,49.4061597 84.3624292,49.1877701 L84.3293823,49.1541717 L84.3293823,49.1205733 C84.3293823,49.1541717 84.3624292,49.1541717 84.3624292,49.1877701 C85.4364535,49.1541717 86.1800089,48.34781 87.0887987,47.9110307 C87.0887987,47.8942315 87.0722753,47.8774323 87.0392284,47.8774323 C87.0722753,47.8774323 87.0722753,47.8774323 87.0722753,47.8774323 L87.0887987,47.9110307 C87.2870801,47.8942315 87.4523147,47.8438339 87.5845023,47.6422435 L87.5349319,47.6086451 C87.5349319,47.6086451 87.5349319,47.6086451 87.5349319,47.5918459 C87.5679788,47.6086451 87.5845023,47.6422435 87.5845023,47.6422435 C88.19587,47.5918459 88.3445811,47.1718659 88.3280576,46.6174922 C88.3115342,46.600693 88.2950107,46.600693 88.2950107,46.600693 L88.2950107,46.5838938 L88.3280576,46.6174922 C88.6750501,46.4495002 88.9063784,46.1639138 89.1046598,45.8447289 C89.2864178,45.8279297 89.4846992,45.7775321 89.5673165,45.5927409 C89.914309,45.2567569 89.914309,45.0047688 89.4351289,44.853576 C89.0550895,44.7191824 88.6750501,44.5511904 88.2454403,44.5511904 C86.3452434,44.6183872 84.4946168,44.1144111 82.5944198,44.2992024 C82.5944198,44.3160016 82.5944198,44.3160016 82.5944198,44.3328008 C82.5778964,44.3328008 82.5778964,44.3328008 82.5778964,44.3328008 L82.5944198,44.2992024 C82.3300446,43.9296199 81.9665287,44.0808127 81.6195362,44.0304151 L81.6030127,44.0472143 C81.6030127,44.0304151 81.6030127,44.0304151 81.6195362,44.0304151 C81.7847707,43.6608327 82.0491459,43.3752463 82.4126619,43.2912502 C84.9242265,42.8040734 87.4192678,42.1825029 89.9638793,41.9809125 C91.1700913,41.8465189 92.3597798,41.5105349 93.5494684,41.2417476 C93.6981794,41.2249484 93.8964609,41.2249484 94.0616954,41.2081492 C94.8713445,41.6281293 95.5983764,41.0905548 96.3915021,41.1241532 C96.6228304,41.1241532 96.9202525,40.8721652 96.8706822,40.4521851 C96.3419317,40.2673939 95.8627516,40.5025828 95.3505246,40.4521851 C93.6981794,40.3177915 92.0788812,40.1162011 90.4430594,40.1833979 Z" id="Fill-971" transform="translate(47.376154, 47.376154) rotate(-45.000000) translate(-47.376154, -47.376154) "></path>
                        </g>
                    </g>
                </g>
            </g>
        </g>
    </g>
</svg>