<svg id="Play_лю_copy_2" data-name="Play_лю copy 2" xmlns="http://www.w3.org/2000/svg" width="40" height="40" viewBox="0 0 40 40">
  <defs>
    <style>
      .cls-1 {
        opacity: 0.45;
      }

      .cls-2 {
        fill: #fff;
        fill-rule: evenodd;
      }
    </style>
  </defs>
  <rect class="cls-1" width="40" height="40"/>
  <path id="Forma_1_copy_15" data-name="Forma 1 copy 15" class="cls-2" d="M645.848,725.614l-12.279-7.351a0.477,0.477,0,0,0-.438-0.023,0.363,0.363,0,0,0-.226.324v14.705a0.365,0.365,0,0,0,.226.326,0.5,0.5,0,0,0,.2.041,0.474,0.474,0,0,0,.241-0.065l12.279-7.351A0.342,0.342,0,0,0,645.848,725.614ZM635,730v-8l7,4Z" transform="translate(-619 -706)"/>
</svg>
