<svg id="OBJECTS" xmlns="http://www.w3.org/2000/svg" viewBox="0 0 47.18 69.85"><defs><style>.cls-1{fill:#96dbbf;}.cls-2{fill:#75cca6;}.cls-3{fill:#1c9585;}.cls-4{fill:#fff;}</style></defs><rect class="cls-1" width="47.18" height="69.85" rx="3.59"/><rect class="cls-2" x="5.05" y="5.41" width="37.07" height="48.49"/><circle class="cls-3" cx="23.59" cy="29.66" r="8.34"/><path class="cls-3" d="M95,71.7h0V62.41h9.29A9.29,9.29,0,0,1,95,71.7Z" transform="translate(-89.92 -57)"/><path class="cls-3" d="M132,71.7h0V62.41h-9.29A9.29,9.29,0,0,0,132,71.7Z" transform="translate(-89.92 -57)"/><path class="cls-3" d="M132,101.61h0v9.29h-9.29A9.29,9.29,0,0,1,132,101.61Z" transform="translate(-89.92 -57)"/><path class="cls-3" d="M95,101.61h0v9.29h9.29A9.29,9.29,0,0,0,95,101.61Z" transform="translate(-89.92 -57)"/><path class="cls-4" d="M116.76,119.86a3.26,3.26,0,1,1-3.25-3.25A3.25,3.25,0,0,1,116.76,119.86Z" transform="translate(-89.92 -57)"/></svg>