<svg id="Halyk" xmlns="http://www.w3.org/2000/svg" viewBox="0 0 946.04 256.61"><defs><style>.cls-1{fill:#fff;}</style></defs><path class="cls-1" d="M236.84,107.49,209.44,80.3c3.22-10.5,4.76-23,4.76-37.61,0-7.55-4.69-12.5-13-12.5H159L134.69,6.12C130.91,2.35,126.49,0,121.29,0c-5,0-9.37,2.09-13.41,6.12L83.94,30.19H52.06c-13.28,0-21.61,8.33-21.61,21.61V83.68L6.51,107.49C2.35,111.66,0,116.08,0,121c0,5.2,2.35,9.63,6.51,13.79L34.5,163a110.65,110.65,0,0,0-5.87,36.67c0,7.8,4.69,12.75,13,12.75h42L108,236.84c3.78,3.78,8.33,6,13.28,6,5.2,0,9.62-2.08,13.53-6l24.46-24.46H191c13,0,21.34-8.33,21.34-21.34V158.89L237,135c4-4,6.38-8.72,6.38-13.92C243.35,116.08,241,111.66,236.84,107.49ZM15,126.62c-2-2-2.73-3.77-2.73-5.59s.78-3.39,2.73-5.34L116.08,14.84c2.21-2.21,3.38-2.86,5.34-2.86,1.69,0,3.38.91,5.33,2.86l17.87,17.73.11.12C156.38,44.48,165,55.58,165,72.36c0,22.51-13.14,37.6-41.12,40.08l-4.43.39c-21.86,2-45.54,1.69-66.23,21a64.77,64.77,0,0,0-13.63,17.6Zm213.41-.13L126.88,228.12c-1.95,2-3.77,2.74-5.59,2.74s-3.39-.78-5.34-2.74l-15.66-15.74h0C87.06,199.1,80.94,187.65,80.94,172c0-27.2,18.35-42.82,61.69-46.33l2.86-.26c29.58-2.72,48.79-13.15,59.17-33.29l23.72,23.53c2.22,2.21,2.74,3.51,2.74,5.34S230.33,124.54,228.38,126.49Z"/><path class="cls-1" d="M827.23,212.37H856.9V146.65l53.22,65.72H946l-60.38-75,55.56-57.13H906.48l-49.58,51V30.18H827.23ZM675.92,80.28,726.29,207l-1.3,3.52c-5.6,14.83-14.58,17.95-22,17.95a31.79,31.79,0,0,1-8.59-1v26.81a44.69,44.69,0,0,0,15.1,2.34c24.33,0,36.31-16.13,46.59-42.68L807.75,80.28H776.26L742.55,173.2,707.68,80.28Zm-53.59,94.35c0,25.24,11.32,40.08,35.66,40.08a42.88,42.88,0,0,0,14.84-2.34V185.43a24.46,24.46,0,0,1-7.29,1.17c-8.07,0-13.41-5.34-13.41-15.87V30.18h-29.8ZM492.28,146.26c0-26.16,18-40.34,36.44-40.34s36.43,14.18,36.43,40.34S547.2,186.6,528.72,186.6s-36.44-14.18-36.44-40.34m-30.84,0c0,43.72,30.45,68.45,61.94,68.45,21.47,0,35.27-11.19,41.39-20.43v18.09h29.79V80.28H564.77v18c-6.12-9.11-19.92-20.3-41.39-20.3-31.49,0-61.94,24.47-61.94,68.32m-169.3,66.11h30.71V132.86h86.28v79.51h30.71V30.18H409.13v74.57H322.85V30.18H292.14Z"/></svg>