<svg width="2060" height="301" viewBox="0 0 2200 301" fill="none" xmlns="http://www.w3.org/2000/svg">
<path fill-rule="evenodd" clip-rule="evenodd" d="M369.816 61.1251H521.345V94.3685H465.422V241.516H425.737V94.3685H369.813V61.1251H369.816ZM1249.35 61.2537H1289.04V241.641H1249.35V61.2537ZM1156.32 61.2537C1170.92 61.2537 1183.08 63.8737 1192.78 69.1137C1202.49 74.3536 1209.75 81.3134 1214.56 89.9868C1219.37 98.6633 1221.78 108.153 1221.78 118.466C1221.78 125.506 1220.53 132.424 1218.04 139.207C1215.55 145.997 1211.68 152.179 1206.44 157.766C1201.27 163.278 1194.58 167.665 1186.39 170.916L1225.38 241.644H1181.31L1147.01 175.932H1117.41V241.644H1077.72V61.2567H1156.32L1156.32 61.2537ZM1181.31 118.466C1181.31 111.075 1179.12 105.234 1174.75 100.939C1170.36 96.6445 1163.53 94.4971 1154.26 94.4971H1117.41V142.689H1154.26C1160.44 142.689 1165.51 141.744 1169.46 139.853C1173.41 137.963 1176.38 135.173 1178.35 131.479C1180.33 127.782 1181.31 123.449 1181.31 118.466V118.466ZM1014.58 119.495C1009.6 110.39 1003.29 103.733 995.641 99.5217C987.994 95.3136 979.449 93.208 970.001 93.208C960.035 93.208 951.057 95.7443 943.068 100.814C935.077 105.877 928.811 112.795 924.256 121.555C919.704 130.319 917.425 140.284 917.425 151.449C917.425 163.134 919.662 173.312 924.127 181.989C928.595 190.665 934.864 197.451 942.94 202.347C951.015 207.243 960.463 209.693 971.287 209.693C977.989 209.693 984.172 208.532 989.842 206.215C995.513 203.894 1000.58 200.672 1005.04 196.551C1009.51 192.427 1013.29 187.701 1016.39 182.374V174.111H970.001V142.671H1053.75V189.591C1049.63 199.042 1043.61 207.848 1035.71 216.007C1027.81 224.169 1018.27 230.781 1007.11 235.851C995.938 240.917 983.223 243.454 968.966 243.454C955.564 243.454 943.281 241.217 932.113 236.751C920.945 232.286 911.239 225.93 902.991 217.682C894.745 209.436 888.344 199.686 883.792 188.434C879.24 177.179 876.964 164.851 876.964 151.449C876.964 138.05 879.24 125.725 883.792 114.47C888.344 103.215 894.703 93.4682 902.862 85.2194C911.024 76.9736 920.688 70.6181 931.855 66.1497C943.023 61.6844 955.307 59.4502 968.706 59.4502C981.249 59.4502 993.06 61.4242 1004.14 65.3751C1015.22 69.329 1024.89 75.0415 1033.13 82.5127C1041.38 89.9868 1047.48 99.0521 1051.43 109.703L1014.58 119.495H1014.58ZM853.262 61.2567V241.644H813.059L739.872 126.607V241.644H700.187V61.2567H740.387L813.316 176.808V61.2567H853.262V61.2567ZM676.221 94.5001H584.997V135.732H653.287V167.175H584.997V208.407H676.221V241.65H545.311V61.2627H676.221V94.506V94.5001Z" fill="black"/>
<path fill-rule="evenodd" clip-rule="evenodd" d="M94.0576 301H206.756L94.0576 215.426V301ZM0.138672 94.3856H94.0576L206.756 179.96V94.3856H300.666V0.472656H0.138672V94.3856V94.3856Z" fill="#03AB02"/>
<path d="M1510.69 61.2519V241.684H1489.81L1393.41 94.244V241.684H1372.78V61.2519H1393.66L1490.06 208.435V61.2519H1510.69V61.2519ZM1667.77 79.2957H1570.08V140.898H1643.54V158.942H1570.08V223.64H1667.77V241.684H1549.46V61.2519H1667.77V79.2957V79.2957ZM1760.15 241.687H1737.47L1686.69 61.2548H1708.6L1748.81 216.687L1793.15 61.2548H1816.09L1860.17 216.43L1900.64 61.2548H1922.29L1871.51 241.687H1848.82L1804.49 92.1833L1760.15 241.687ZM1956.67 195.805C1957.7 200.443 1959.89 205.04 1963.25 209.595C1966.6 214.147 1971.24 217.931 1977.16 220.937C1983.09 223.946 1990.7 225.447 1999.98 225.447C2013.21 225.447 2023.01 222.354 2029.36 216.169C2035.72 209.981 2038.9 202.678 2038.9 194.258C2038.9 187.556 2037.1 182.056 2033.49 177.761C2029.88 173.463 2024.98 169.898 2018.79 167.062C2012.61 164.227 2005.65 161.694 1997.92 159.46C1991.04 157.569 1984.21 155.464 1977.42 153.143C1970.63 150.822 1964.49 147.903 1958.99 144.38C1953.49 140.857 1949.11 136.26 1945.84 130.589C1942.58 124.918 1940.95 117.872 1940.95 109.453C1940.95 99.3135 1943.35 90.5054 1948.17 83.0313C1952.98 75.5541 1959.76 69.7549 1968.53 65.6305C1977.29 61.5061 1987.52 59.4424 1999.2 59.4424C2009.34 59.4424 2018.19 60.9049 2025.75 63.827C2033.32 66.7461 2039.63 70.8286 2044.7 76.0686C2049.77 81.3115 2053.51 87.368 2055.91 94.244L2037.61 101.204C2036.41 97.2498 2034.09 93.4275 2030.65 89.7308C2027.21 86.0371 2022.75 82.9864 2017.25 80.5818C2011.75 78.1741 2005.48 76.9718 1998.43 76.9718C1991.56 76.9718 1985.33 78.1741 1979.74 80.5818C1974.16 82.9864 1969.73 86.4229 1966.47 90.8912C1963.2 95.3596 1961.57 100.773 1961.57 107.132C1961.57 114.005 1963.5 119.46 1967.37 123.501C1971.24 127.538 1976.39 130.804 1982.84 133.296C1989.28 135.787 1996.37 138.15 2004.1 140.384C2011.15 142.618 2017.98 145.023 2024.59 147.601C2031.21 150.179 2037.14 153.358 2042.38 157.139C2047.62 160.919 2051.79 165.645 2054.88 171.315C2057.97 176.986 2059.52 183.946 2059.52 192.195C2059.52 201.305 2057.37 209.766 2053.08 217.587C2048.78 225.405 2042.29 231.677 2033.62 236.402C2024.94 241.128 2013.81 243.491 2000.23 243.491C1988.89 243.491 1978.93 241.729 1970.33 238.206C1961.74 234.686 1954.69 229.915 1949.2 223.901C1943.7 217.886 1939.92 211.013 1937.85 203.279L1956.67 195.805V195.805Z" fill="black"/>
</svg>
