<svg width="16" height="16" viewBox="0 0 16 16" fill="none" xmlns="http://www.w3.org/2000/svg">
<rect width="16" height="16" fill="black"/>
<path fill-rule="evenodd" clip-rule="evenodd" d="M13.2732 10.6571C13.2595 10.6268 13.2467 10.6016 13.2348 10.5815C13.0382 10.2182 12.6624 9.77233 12.1078 9.2437L12.0961 9.23159L12.0902 9.22566L12.0843 9.21957H12.0783C11.8266 8.97342 11.6672 8.8079 11.6004 8.72317C11.4783 8.56175 11.4509 8.39836 11.5176 8.2328C11.5648 8.10772 11.742 7.84356 12.0487 7.43997C12.2101 7.22608 12.3379 7.05466 12.4322 6.9255C13.1128 5.99735 13.4079 5.40425 13.3174 5.14596L13.2822 5.08561C13.2586 5.04927 13.1976 5.01603 13.0994 4.98571C13.001 4.95546 12.8751 4.95045 12.7216 4.97062L11.0223 4.98266C10.9947 4.97265 10.9554 4.97358 10.9042 4.98571C10.8531 4.99784 10.8275 5.00392 10.8275 5.00392L10.7979 5.01908L10.7744 5.03729C10.7547 5.04933 10.7331 5.07051 10.7095 5.10079C10.686 5.13095 10.6663 5.16636 10.6506 5.2067C10.4656 5.69497 10.2552 6.14893 10.0192 6.56857C9.87359 6.8188 9.73992 7.03566 9.61783 7.21928C9.49591 7.40283 9.39363 7.53807 9.31108 7.62475C9.22841 7.71153 9.1538 7.78104 9.08679 7.83356C9.01989 7.88609 8.96882 7.90829 8.93346 7.90017C8.89802 7.89205 8.86464 7.88399 8.83304 7.87594C8.778 7.8396 8.73373 7.79018 8.70035 7.72764C8.66683 7.6651 8.64426 7.58638 8.63246 7.49155C8.62072 7.39666 8.61377 7.31504 8.61179 7.24641C8.60995 7.17787 8.6108 7.08092 8.61479 6.95584C8.61888 6.83069 8.62072 6.74602 8.62072 6.70163C8.62072 6.54826 8.62363 6.38182 8.62948 6.20225C8.63543 6.02268 8.64025 5.88041 8.64428 5.77559C8.64829 5.67067 8.65015 5.55967 8.65015 5.44264C8.65015 5.32562 8.6432 5.23384 8.62948 5.16723C8.61592 5.1007 8.59511 5.03613 8.56768 4.97352C8.54009 4.91098 8.49971 4.8626 8.44672 4.82826C8.39362 4.79395 8.32761 4.76673 8.24905 4.74651C8.04053 4.69811 7.77501 4.67192 7.45237 4.66785C6.72071 4.6598 6.25058 4.70826 6.04209 4.81318C5.95948 4.85751 5.88472 4.91808 5.81789 4.9947C5.74706 5.08351 5.73718 5.13197 5.78831 5.13994C6.02438 5.17622 6.1915 5.26299 6.28985 5.40018L6.3253 5.47287C6.35287 5.52532 6.3804 5.61818 6.40795 5.75132C6.43546 5.88446 6.45321 6.03174 6.46102 6.19307C6.48066 6.48769 6.48066 6.73989 6.46102 6.94969C6.44133 7.15958 6.42273 7.32297 6.40497 7.43999C6.38722 7.55702 6.36068 7.65185 6.3253 7.72446C6.28985 7.79709 6.26627 7.84149 6.25445 7.8576C6.24265 7.87371 6.23281 7.88387 6.225 7.88785C6.17387 7.90795 6.12069 7.91819 6.06565 7.91819C6.01053 7.91819 5.94369 7.88991 5.86503 7.83339C5.78639 7.77687 5.70477 7.69923 5.62018 7.60035C5.53558 7.50145 5.44018 7.36325 5.33393 7.18572C5.22776 7.00818 5.1176 6.79836 5.00352 6.55626L4.90913 6.38067C4.85012 6.26772 4.76952 6.10325 4.66723 5.88741C4.56488 5.67148 4.47442 5.46261 4.39578 5.26085C4.36435 5.17611 4.31712 5.1116 4.25419 5.0672L4.22465 5.04899C4.20502 5.03288 4.1735 5.01577 4.13026 4.99754C4.08696 4.97933 4.04178 4.96627 3.99454 4.95823L2.37772 4.97028C2.21251 4.97028 2.1004 5.00867 2.04138 5.08535L2.01775 5.12163C2.00595 5.14183 2 5.1741 2 5.21851C2 5.26291 2.0118 5.31739 2.03542 5.3819C2.27145 5.95092 2.52812 6.49969 2.80544 7.0283C3.08276 7.55691 3.32375 7.98272 3.52825 8.30535C3.7328 8.62821 3.9413 8.93292 4.15374 9.21934C4.36618 9.50586 4.50681 9.68948 4.57561 9.77015C4.6445 9.85096 4.6986 9.91138 4.73794 9.95173L4.88548 10.097C4.97989 10.1938 5.11853 10.3098 5.30146 10.445C5.48443 10.5802 5.687 10.7134 5.90926 10.8446C6.13156 10.9757 6.39017 11.0826 6.68525 11.1653C6.98028 11.2481 7.26744 11.2813 7.54676 11.2653H8.22536C8.36299 11.2531 8.46726 11.2087 8.53813 11.1321L8.56161 11.1017C8.5774 11.0777 8.59218 11.0402 8.60582 10.9899C8.61962 10.9395 8.62648 10.8839 8.62648 10.8234C8.62245 10.65 8.63533 10.4936 8.66476 10.3544C8.69417 10.2152 8.72769 10.1103 8.76518 10.0397C8.80266 9.96907 8.84494 9.9095 8.892 9.8612C8.93917 9.8128 8.97277 9.78348 8.99249 9.77339C9.01208 9.76324 9.02773 9.75635 9.03953 9.75221C9.13394 9.71994 9.24505 9.75119 9.37302 9.84611C9.50089 9.94094 9.62083 10.058 9.73301 10.1972C9.84513 10.3365 9.97985 10.4927 10.1372 10.6662C10.2946 10.8398 10.4322 10.9688 10.5502 11.0536L10.6682 11.1263C10.747 11.1747 10.8493 11.2191 10.9752 11.2595C11.1008 11.2998 11.211 11.3099 11.3055 11.2897L12.8161 11.2656C12.9655 11.2656 13.0817 11.2402 13.1642 11.1898C13.2468 11.1394 13.2959 11.0838 13.3117 11.0234C13.3275 10.9629 13.3284 10.8942 13.3147 10.8175C13.3007 10.7409 13.287 10.6874 13.2732 10.6571Z" fill="white"/>
</svg>
