<svg width="24" height="24" viewBox="0 0 24 24" fill="none" xmlns="http://www.w3.org/2000/svg">
<path opacity="0.3" fill-rule="evenodd" clip-rule="evenodd" d="M22.1851 12.5923H20.5552C20.1054 12.5923 19.7403 12.2277 19.7403 11.7774C19.7403 11.3276 20.1054 10.9633 20.5552 10.9633H22.1851C22.6349 10.9633 23 11.328 23 11.7774C23 12.2277 22.6349 12.5923 22.1851 12.5923ZM18.9837 7.16823C18.6654 7.48645 18.1496 7.48645 17.8314 7.16823C17.5131 6.85041 17.5131 6.33415 17.8314 6.01634L18.9837 4.86404C19.3019 4.54581 19.8177 4.54581 20.136 4.86404C20.4542 5.18186 20.4542 5.69811 20.136 6.01634L18.9837 7.16823ZM17.7829 13.5275C18.4955 14.3774 18.9262 15.471 18.9262 16.6669C18.9262 19.3664 16.7373 21.5556 14.0371 21.5556C12.9064 21.5556 8.8212 21.5556 7.51855 21.5556C3.91864 21.5556 1 18.6374 1 15.0371C1 11.4368 3.91864 8.51855 7.51855 8.51855C8.15907 8.51855 8.7776 8.61308 9.36149 8.78503C10.2559 7.63314 11.6506 6.88871 13.2222 6.88871C15.9224 6.88871 18.1113 9.07799 18.1113 11.7774C18.1109 12.3947 17.9915 12.9839 17.7829 13.5275ZM2.62943 15.0371C2.62943 17.7373 4.8179 19.9258 7.51814 19.9258C8.99152 19.9258 12.8066 19.9258 14.0367 19.9258C15.8368 19.9258 17.296 18.4663 17.296 16.6669C17.296 14.8668 15.8368 13.4073 14.0367 13.4073C13.3848 13.4073 12.7805 13.6037 12.2712 13.9333C11.7696 11.7672 9.837 10.1484 7.51814 10.1484C4.8179 10.1484 2.62943 12.3369 2.62943 15.0371ZM13.2218 8.51855C12.3205 8.51855 11.5043 8.88445 10.9147 9.47567C11.8682 10.0608 12.6607 10.8826 13.2083 11.8609C13.4789 11.8149 13.7531 11.7774 14.0367 11.7774C14.9025 11.7774 15.715 12.0052 16.4203 12.3996C16.4594 12.1983 16.4815 11.9905 16.4815 11.7774C16.4815 9.97807 15.0219 8.51855 13.2218 8.51855ZM13.2218 5.25887C12.7719 5.25887 12.4073 4.89419 12.4073 4.44435V2.81492C12.4073 2.36468 12.7723 2 13.2218 2C13.672 2 14.0367 2.36468 14.0367 2.81492V4.44435C14.0367 4.8946 13.6724 5.25887 13.2218 5.25887ZM7.46028 7.16823L6.30839 6.01634C5.99017 5.69811 5.99017 5.18186 6.30839 4.86404C6.62621 4.54581 7.14246 4.54581 7.46028 4.86404L8.61258 6.01634C8.93081 6.33415 8.93081 6.85041 8.61258 7.16823C8.29476 7.48645 7.77851 7.48645 7.46028 7.16823Z" fill="#CCCCCC"/>
<path fill-rule="evenodd" clip-rule="evenodd" d="M22.1852 12.5923H20.5553C20.1055 12.5923 19.7404 12.2277 19.7404 11.7774C19.7404 11.3276 20.1055 10.9633 20.5553 10.9633H22.1852C22.635 10.9633 23.0001 11.328 23.0001 11.7774C23.0001 12.2277 22.635 12.5923 22.1852 12.5923ZM18.9838 7.16823C18.6655 7.48645 18.1497 7.48645 17.8315 7.16823C17.5132 6.85041 17.5132 6.33415 17.8315 6.01634L18.9838 4.86404C19.302 4.54581 19.8178 4.54581 20.1361 4.86404C20.4543 5.18186 20.4543 5.69811 20.1361 6.01634L18.9838 7.16823ZM13.2219 5.25887C12.772 5.25887 12.4074 4.89419 12.4074 4.44435V2.81492C12.4074 2.36468 12.7724 2 13.2219 2C13.6721 2 14.0368 2.36468 14.0368 2.81492V4.44435C14.0368 4.8946 13.6725 5.25887 13.2219 5.25887ZM7.46038 7.16823L6.30849 6.01634C5.99027 5.69811 5.99027 5.18186 6.30849 4.86404C6.62631 4.54581 7.14256 4.54581 7.46038 4.86404L8.61268 6.01634C8.93091 6.33415 8.93091 6.85041 8.61268 7.16823C8.29486 7.48645 7.77861 7.48645 7.46038 7.16823Z" fill="#FEC658"/>
<path d="M9.36159 8.78503C10.256 7.63314 11.6507 6.88871 13.2223 6.88871C15.9225 6.88871 18.1114 9.07799 18.1114 11.7774C18.111 12.3947 17.9916 12.9839 17.783 13.5275C17.5203 13.0117 16.7651 12.5607 16.4204 12.3996C16.4595 12.1983 16.4816 11.9905 16.4816 11.7774C16.4816 9.97807 15.022 8.51855 13.2219 8.51855C12.3206 8.51855 11.5044 8.88445 10.9148 9.47567C10.6843 9.34047 10.0509 9.01305 9.36159 8.78503Z" fill="#FEC658"/>
</svg>
