<svg width="24" height="24" viewBox="0 0 24 24" fill="none" xmlns="http://www.w3.org/2000/svg">
<path fill-rule="evenodd" clip-rule="evenodd" d="M16.9459 5.64331C16.5978 5.64331 16.2613 5.68932 15.9293 5.74582C14.5612 3.29965 11.9485 1.64404 8.94632 1.64404C4.52852 1.64404 0.946777 5.22529 0.946777 9.64309C0.946777 12.6393 2.59689 15.247 5.03556 16.6171C5.17357 15.986 5.48159 15.3845 5.97212 14.8944L6.00062 14.8659C4.1785 13.8354 2.94741 11.8842 2.94741 9.64309C2.94741 6.32986 5.6336 3.64368 8.94682 3.64368C11.7925 3.64368 14.1637 5.63081 14.7797 8.28899C15.4048 7.88397 16.1463 7.64345 16.9464 7.64345C19.1555 7.64345 20.9461 9.43407 20.9461 11.6432C20.9461 13.3648 19.8551 14.8289 18.3285 15.3925C18.7225 15.9655 18.9255 16.6281 18.9395 17.2961C21.2722 16.4736 22.9468 14.2569 22.9468 11.6432C22.9458 8.3295 20.2596 5.64331 16.9459 5.64331Z" fill="#DEDEDE"/>
<path d="M15.7127 13.2682L15.3984 12.954L14.5747 13.7778H14.2222V13.4253L15.046 12.6016L14.7318 12.2873L14.2222 12.7969V12H13.7778V12.7969L13.2682 12.2873L12.954 12.6016L13.7778 13.4253V13.7778H13.4253L12.6016 12.954L12.2873 13.2682L12.7969 13.7778H12V14.2222H12.7969L12.2873 14.7318L12.6016 15.046L13.4253 14.2222H13.7778V14.5747L12.954 15.3984L13.2682 15.7127L13.7778 15.2031V16H14.2222V15.2031L14.7318 15.7127L15.046 15.3984L14.2222 14.5747V14.2222H14.5747L15.3984 15.046L15.7127 14.7318L15.2031 14.2222H16V13.7778H15.2031L15.7127 13.2682Z" fill="#5DB3FB"/>
<path d="M10.7127 17.2682L10.3984 16.954L9.57467 17.7778H9.22222V17.4253L10.046 16.6016L9.73178 16.2873L9.22222 16.7969V16H8.77778V16.7969L8.26822 16.2873L7.954 16.6016L8.77778 17.4253V17.7778H8.42533L7.60156 16.954L7.28733 17.2682L7.79689 17.7778H7V18.2222H7.79689L7.28733 18.7318L7.60156 19.046L8.42533 18.2222H8.77778V18.5747L7.954 19.3984L8.26822 19.7127L8.77778 19.2031V20H9.22222V19.2031L9.73178 19.7127L10.046 19.3984L9.22222 18.5747V18.2222H9.57467L10.3984 19.046L10.7127 18.7318L10.2031 18.2222H11V17.7778H10.2031L10.7127 17.2682Z" fill="#5DB3FB"/>
<path d="M15.7127 19.2682L15.3984 18.954L14.5747 19.7778H14.2222V19.4253L15.046 18.6016L14.7318 18.2873L14.2222 18.7969V18H13.7778V18.7969L13.2682 18.2873L12.954 18.6016L13.7778 19.4253V19.7778H13.4253L12.6016 18.954L12.2873 19.2682L12.7969 19.7778H12V20.2222H12.7969L12.2873 20.7318L12.6016 21.046L13.4253 20.2222H13.7778V20.5747L12.954 21.3984L13.2682 21.7127L13.7778 21.2031V22H14.2222V21.2031L14.7318 21.7127L15.046 21.3984L14.2222 20.5747V20.2222H14.5747L15.3984 21.046L15.7127 20.7318L15.2031 20.2222H16V19.7778H15.2031L15.7127 19.2682Z" fill="#5DB3FB"/>
</svg>
