<svg id="Layer_1" data-name="Layer 1" xmlns="http://www.w3.org/2000/svg" viewBox="0 0 70.62 69.45"><defs><style>.cls-1{fill:#3aaa35;}.cls-2{fill:#302d2a;}</style></defs><polygon class="cls-1" points="47.27 20.49 42.23 20.48 42.2 56.93 47.24 51.89 47.27 20.49"/><polygon class="cls-1" points="28.4 41.48 23.37 41.47 23.36 51.87 28.39 56.9 28.4 41.48"/><path class="cls-1" d="M505.75,518.46l0-31h-5l0,34.11A50.38,50.38,0,0,1,505.75,518.46Z" transform="translate(-464.69 -460.51)"/><path class="cls-1" d="M499.37,521.6l0-29.07h-5l0,26A51.52,51.52,0,0,1,499.37,521.6Z" transform="translate(-464.69 -460.51)"/><path class="cls-2" d="M490.85,516.75l-20.93-20.92L500,465.75l30.08,30.08-20.93,20.92a60.37,60.37,0,0,1,8.36-3.12l17.8-17.8L500,460.51l-35.31,35.32,17.8,17.8A60.37,60.37,0,0,1,490.85,516.75Z" transform="translate(-464.69 -460.51)"/><path class="cls-2" d="M500,523.45s-14.48-11.66-34.71-10.89c0,0,17.35,0,34.71,17.41,17.36-17.44,34.71-17.41,34.71-17.41C514.48,511.79,500,523.45,500,523.45Z" transform="translate(-464.69 -460.51)"/></svg>