<?xml version="1.0" standalone="no"?>
<!DOCTYPE svg PUBLIC "-//W3C//DTD SVG 20010904//EN"
 "http://www.w3.org/TR/2001/REC-SVG-20010904/DTD/svg10.dtd">
<svg version="1.0" xmlns="http://www.w3.org/2000/svg"
 width="263.000000pt" height="263.000000pt" viewBox="0 0 263.000000 263.000000"
 preserveAspectRatio="xMidYMid meet">
<metadata>
Created by potrace 1.14, written by Peter Selinger 2001-2017
</metadata>
<g transform="translate(0.000000,263.000000) scale(0.100000,-0.100000)"
fill="#000000" stroke="none">
<path d="M1201 2554 c-14 -56 -67 -162 -113 -226 -18 -25 -77 -93 -130 -150
-117 -125 -127 -138 -166 -208 -58 -103 -92 -242 -91 -370 l0 -65 18 55 c43
128 106 237 216 370 204 248 263 362 283 553 9 88 0 110 -17 41z"/>
<path d="M1210 2353 c-33 -104 -85 -188 -259 -417 -121 -159 -172 -245 -208
-349 -66 -188 -15 -403 146 -619 39 -54 49 -57 25 -9 -26 52 -44 132 -44 196
0 68 28 144 80 221 154 227 181 275 222 393 20 59 44 166 53 241 9 78 9 380
-1 380 -1 0 -8 -17 -14 -37z"/>
<path d="M1251 2166 c0 -67 -3 -132 -6 -146 -3 -14 -7 -44 -10 -68 -3 -23 -6
-48 -8 -54 -1 -9 19 -13 68 -15 288 -9 524 -186 612 -458 43 -133 35 -308 -19
-437 l-20 -47 151 -151 c84 -83 156 -148 162 -145 15 10 94 173 117 245 58
177 66 414 19 592 -113 431 -500 764 -922 794 -44 3 -94 7 -111 8 l-32 3 -1
-121z"/>
<path d="M885 2206 c-154 -64 -246 -126 -364 -246 -147 -151 -255 -354 -286
-545 -13 -75 -16 -111 -15 -195 1 -127 6 -168 36 -280 71 -270 277 -534 511
-654 l33 -16 0 261 -1 261 -39 52 c-116 153 -157 367 -107 551 13 48 19 104
19 178 1 261 93 472 276 629 53 47 40 47 -63 4z"/>
<path d="M1231 1679 c-28 -41 -65 -94 -83 -119 -67 -94 -169 -265 -189 -319
-76 -197 39 -407 246 -449 226 -46 428 109 428 328 0 99 -54 207 -229 461 -58
85 -110 158 -114 163 -4 4 -31 -25 -59 -65z m218 -294 c28 -35 51 -67 51 -70
0 -8 -110 -6 -111 3 -4 49 -3 132 2 132 4 0 30 -29 58 -65z"/>
<path d="M1715 905 c-39 -38 -32 -96 14 -119 80 -42 155 62 87 121 -35 30 -71
29 -101 -2z"/>
<path d="M892 740 c-12 -12 -22 -26 -23 -33 0 -7 -2 -20 -4 -29 -4 -22 22 -57
51 -68 28 -11 71 2 90 28 53 69 -50 161 -114 102z"/>
<path d="M1055 735 c-55 -54 -8 -142 68 -128 69 13 84 113 21 141 -38 18 -62
14 -89 -13z"/>
<path d="M1229 747 c-62 -48 -33 -139 44 -139 43 0 66 20 74 64 10 66 -67 114
-118 75z"/>
<path d="M1385 735 c-41 -40 -30 -96 22 -124 54 -28 120 31 102 91 -17 60 -81
77 -124 33z"/>
<path d="M1564 748 c-41 -19 -52 -79 -22 -115 34 -42 107 -33 128 16 29 72
-36 133 -106 99z"/>
<path d="M1715 735 c-24 -24 -31 -57 -19 -90 9 -22 57 -45 85 -40 26 5 59 39
59 61 0 8 5 14 11 14 6 0 9 -6 6 -14 -7 -17 33 -57 59 -58 38 -3 71 12 82 37
18 40 14 64 -14 90 -43 40 -95 32 -121 -19 -11 -22 -18 -26 -21 -16 -18 59
-86 77 -127 35z"/>
<path d="M892 570 c-12 -12 -22 -24 -23 -28 0 -4 -2 -18 -3 -31 -4 -30 31 -69
67 -75 38 -7 87 35 87 75 0 65 -81 102 -128 59z"/>
<path d="M1055 565 c-67 -66 14 -163 95 -114 16 10 31 23 31 29 6 55 -6 89
-38 101 -39 15 -62 11 -88 -16z"/>
<path d="M1225 573 c-51 -51 -32 -126 36 -136 73 -12 117 76 64 128 -28 29
-76 33 -100 8z"/>
<path d="M1385 565 c-62 -61 9 -159 86 -120 15 8 30 24 34 35 7 23 25 27 25 6
0 -21 48 -55 71 -51 45 9 57 17 69 44 23 56 -13 111 -72 111 -27 0 -68 -30
-68 -50 0 -17 -18 -11 -25 8 -6 21 -45 42 -76 42 -11 0 -31 -11 -44 -25z"/>
<path d="M1716 569 c-18 -14 -26 -30 -26 -53 0 -41 17 -64 56 -75 52 -15 94
19 94 75 0 37 -38 74 -75 74 -12 0 -34 -9 -49 -21z"/>
<path d="M1882 571 c-35 -29 -38 -73 -10 -106 34 -38 82 -39 115 -1 30 36 29
71 -3 101 -32 30 -73 32 -102 6z"/>
<path d="M2042 567 c-22 -23 -28 -60 -16 -92 7 -17 52 -42 72 -39 6 1 17 2 22
3 23 3 50 43 50 74 0 68 -83 103 -128 54z"/>
<path d="M892 400 c-12 -12 -23 -27 -23 -35 -1 -8 -2 -21 -3 -27 -5 -31 46
-77 79 -73 30 3 53 18 63 41 17 36 15 58 -9 88 -26 33 -75 35 -107 6z"/>
<path d="M1055 395 c-58 -57 -11 -136 75 -126 8 1 27 17 42 34 19 22 28 27 28
16 0 -20 32 -50 56 -51 56 -4 94 30 94 83 0 30 -44 69 -78 69 -40 0 -79 -38
-73 -72 0 -5 -3 -8 -9 -8 -5 0 -10 9 -10 20 0 28 -39 60 -72 60 -17 0 -39 -10
-53 -25z"/>
<path d="M1385 395 c-58 -58 -6 -145 74 -123 23 6 36 18 44 39 6 16 15 29 20
29 4 0 6 -4 3 -8 -8 -14 23 -52 51 -63 40 -15 91 15 99 57 17 89 -101 132
-142 52 l-17 -33 -9 24 c-20 54 -82 68 -123 26z"/>
<path d="M1711 394 c-48 -60 -2 -141 72 -127 59 11 78 95 31 132 -37 29 -78
27 -103 -5z"/>
<path d="M1881 403 c-54 -46 -23 -133 48 -135 40 -1 81 38 81 78 0 59 -83 95
-129 57z"/>
<path d="M1716 229 c-45 -35 -31 -106 25 -128 36 -13 86 10 96 46 10 37 6 53
-20 81 -26 28 -66 28 -101 1z"/>
</g>
</svg>
