<svg width="47" height="58" viewBox="0 0 47 58" fill="none" xmlns="http://www.w3.org/2000/svg">
<circle cx="23.5" cy="23.5" r="23.5" fill="url(#paint0_linear_77_14)"/>
<mask id="mask0_77_14" style="mask-type:alpha" maskUnits="userSpaceOnUse" x="0" y="0" width="47" height="47">
<circle cx="23.5" cy="23.5" r="23.5" fill="url(#paint1_linear_77_14)"/>
</mask>
<g mask="url(#mask0_77_14)">
<path d="M23.4773 21.0909V10.1818H24.1761V21.0909H23.4773ZM25.8296 13.4546C25.7784 13.0227 25.571 12.6875 25.2074 12.4489C24.8438 12.2102 24.3977 12.0909 23.8693 12.0909C23.483 12.0909 23.1449 12.1534 22.8551 12.2784C22.5682 12.4034 22.3438 12.5753 22.1818 12.794C22.0227 13.0128 21.9432 13.2614 21.9432 13.5398C21.9432 13.7727 21.9986 13.973 22.1094 14.1406C22.223 14.3054 22.3679 14.4432 22.544 14.554C22.7202 14.6619 22.9048 14.7514 23.098 14.8224C23.2912 14.8906 23.4688 14.946 23.6307 14.9886L24.5171 15.2273C24.7443 15.2869 24.9972 15.3693 25.2756 15.4744C25.5568 15.5796 25.8253 15.723 26.081 15.9048C26.3395 16.0838 26.5526 16.3139 26.7202 16.5952C26.8878 16.8764 26.9716 17.2216 26.9716 17.6307C26.9716 18.1023 26.848 18.5284 26.6009 18.9091C26.3565 19.2898 25.9986 19.5923 25.527 19.8168C25.0582 20.0412 24.4886 20.1534 23.8182 20.1534C23.1932 20.1534 22.652 20.0526 22.1946 19.8509C21.7401 19.6492 21.3821 19.3679 21.1207 19.0071C20.8622 18.6463 20.7159 18.2273 20.6818 17.75H21.7727C21.8011 18.0796 21.9119 18.3523 22.1051 18.5682C22.3011 18.7813 22.5483 18.9403 22.8466 19.0455C23.1477 19.1477 23.4716 19.1989 23.8182 19.1989C24.2216 19.1989 24.5838 19.1335 24.9048 19.0028C25.2259 18.8693 25.4801 18.6847 25.6676 18.4489C25.8551 18.2102 25.9489 17.9318 25.9489 17.6136C25.9489 17.3239 25.8679 17.0881 25.706 16.9063C25.544 16.7244 25.331 16.5767 25.0668 16.4631C24.8026 16.3494 24.5171 16.25 24.2102 16.1648L23.1364 15.858C22.4546 15.6619 21.9148 15.3821 21.5171 15.0185C21.1193 14.6548 20.9205 14.179 20.9205 13.5909C20.9205 13.1023 21.0526 12.6761 21.3168 12.3125C21.5838 11.946 21.9418 11.6619 22.3906 11.4602C22.8423 11.2557 23.3466 11.1534 23.9034 11.1534C24.4659 11.1534 24.9659 11.2543 25.4034 11.456C25.8409 11.6548 26.1875 11.9276 26.4432 12.2742C26.7017 12.6207 26.8381 13.0142 26.8523 13.4546H25.8296Z" fill="white"/>
<ellipse cx="23.5" cy="45" rx="4.5" ry="22" fill="white"/>
<ellipse cx="23.5" cy="-14" rx="4.5" ry="22" fill="white"/>
</g>
<path d="M5.544 50.112C5.912 50.112 6.24 50.16 6.528 50.256C6.816 50.3467 7.056 50.48 7.248 50.656C7.44533 50.8267 7.59467 51.0347 7.696 51.28C7.79733 51.52 7.848 51.792 7.848 52.096C7.848 52.336 7.81067 52.576 7.736 52.816C7.66667 53.056 7.54933 53.2747 7.384 53.472C7.224 53.6693 7.01067 53.8293 6.744 53.952C6.47733 54.0693 6.14667 54.128 5.752 54.128H4.92V56H3.76V50.112H5.544ZM5.744 53.008C5.92 53.008 6.06667 52.9787 6.184 52.92C6.30133 52.8613 6.392 52.7867 6.456 52.696C6.52533 52.6053 6.57333 52.512 6.6 52.416C6.632 52.3147 6.648 52.2213 6.648 52.136C6.648 52.072 6.63733 51.992 6.616 51.896C6.6 51.7947 6.56267 51.6933 6.504 51.592C6.44533 51.4907 6.35467 51.4053 6.232 51.336C6.11467 51.2667 5.95467 51.232 5.752 51.232H4.92V53.008H5.744ZM6.832 53.728L8.288 56H6.936L5.448 53.76L6.832 53.728ZM8.68125 53.064C8.68125 52.6587 8.75858 52.2747 8.91325 51.912C9.06792 51.5493 9.28125 51.2293 9.55325 50.952C9.83058 50.6693 10.1506 50.448 10.5133 50.288C10.8759 50.128 11.2653 50.048 11.6813 50.048C12.0919 50.048 12.4786 50.128 12.8413 50.288C13.2039 50.448 13.5239 50.6693 13.8013 50.952C14.0839 51.2293 14.3026 51.5493 14.4573 51.912C14.6173 52.2747 14.6973 52.6587 14.6973 53.064C14.6973 53.48 14.6173 53.8693 14.4573 54.232C14.3026 54.5947 14.0839 54.9147 13.8013 55.192C13.5239 55.464 13.2039 55.6773 12.8413 55.832C12.4786 55.9867 12.0919 56.064 11.6813 56.064C11.2653 56.064 10.8759 55.9867 10.5133 55.832C10.1506 55.6773 9.83058 55.464 9.55325 55.192C9.28125 54.9147 9.06792 54.5947 8.91325 54.232C8.75858 53.8693 8.68125 53.48 8.68125 53.064ZM9.88125 53.064C9.88125 53.3253 9.92658 53.5707 10.0173 53.8C10.1133 54.024 10.2439 54.224 10.4093 54.4C10.5799 54.5707 10.7746 54.704 10.9933 54.8C11.2173 54.896 11.4599 54.944 11.7213 54.944C11.9719 54.944 12.2039 54.896 12.4173 54.8C12.6359 54.704 12.8253 54.5707 12.9852 54.4C13.1453 54.224 13.2706 54.024 13.3613 53.8C13.4519 53.5707 13.4973 53.3253 13.4973 53.064C13.4973 52.7973 13.4493 52.5493 13.3533 52.32C13.2626 52.0907 13.1346 51.8907 12.9693 51.72C12.8093 51.544 12.6199 51.408 12.4013 51.312C12.1826 51.216 11.9453 51.168 11.6893 51.168C11.4333 51.168 11.1959 51.216 10.9773 51.312C10.7586 51.408 10.5666 51.544 10.4013 51.72C10.2359 51.8907 10.1079 52.0907 10.0173 52.32C9.92658 52.5493 9.88125 52.7973 9.88125 53.064Z" fill="#175FC3"/>
<path d="M15.9258 50.216H16.7018V56H15.9258V50.216ZM23.3713 56.184L18.8993 51.648L19.1233 51.704L19.1393 56H18.3633V50.04H18.4033L22.8273 54.592L22.6433 54.552L22.6273 50.216H23.3953V56.184H23.3713ZM25.4746 50.216L27.3786 55L26.9386 54.912L28.7466 50.216H29.6506L27.0986 56.264L24.5546 50.216H25.4746ZM30.8086 50.216H34.5686V50.96H31.5846V52.72H34.2486V53.464H31.5846V55.256H34.6806V56H30.8086V50.216ZM39.0193 51.248C38.822 51.1467 38.606 51.0587 38.3713 50.984C38.1366 50.9093 37.9073 50.872 37.6833 50.872C37.374 50.872 37.126 50.944 36.9393 51.088C36.758 51.232 36.6673 51.424 36.6673 51.664C36.6673 51.8453 36.726 52 36.8433 52.128C36.9606 52.2507 37.1153 52.3573 37.3073 52.448C37.4993 52.5387 37.6993 52.624 37.9073 52.704C38.0886 52.7733 38.2673 52.8507 38.4433 52.936C38.6193 53.0213 38.7766 53.128 38.9153 53.256C39.0593 53.384 39.1713 53.5413 39.2513 53.728C39.3366 53.9147 39.3793 54.1467 39.3793 54.424C39.3793 54.728 39.302 55.0053 39.1473 55.256C38.998 55.5067 38.782 55.704 38.4993 55.848C38.2166 55.992 37.8806 56.064 37.4913 56.064C37.2353 56.064 36.99 56.0347 36.7553 55.976C36.526 55.9173 36.3126 55.8427 36.1153 55.752C35.918 55.656 35.742 55.5573 35.5873 55.456L35.9313 54.848C36.0593 54.9387 36.206 55.0267 36.3713 55.112C36.5366 55.192 36.71 55.2587 36.8913 55.312C37.0726 55.36 37.2486 55.384 37.4193 55.384C37.6006 55.384 37.7793 55.352 37.9553 55.288C38.1366 55.2187 38.286 55.1147 38.4033 54.976C38.5206 54.8373 38.5793 54.6533 38.5793 54.424C38.5793 54.2267 38.526 54.064 38.4193 53.936C38.318 53.8027 38.182 53.6907 38.0113 53.6C37.8406 53.504 37.6593 53.4187 37.4673 53.344C37.286 53.2747 37.102 53.2 36.9153 53.12C36.7286 53.0347 36.5553 52.9333 36.3953 52.816C36.2353 52.6933 36.1073 52.544 36.0113 52.368C35.9153 52.192 35.8673 51.9787 35.8673 51.728C35.8673 51.424 35.9393 51.16 36.0833 50.936C36.2326 50.7067 36.4353 50.528 36.6913 50.4C36.9473 50.2667 37.2406 50.1947 37.5713 50.184C37.9446 50.184 38.2726 50.2293 38.5553 50.32C38.8433 50.4107 39.0966 50.5227 39.3153 50.656L39.0193 51.248ZM40.2205 50.216H44.0605V50.96H42.5085V56H41.7325V50.96H40.2205V50.216Z" fill="black"/>
<defs>
<linearGradient id="paint0_linear_77_14" x1="23.5" y1="0" x2="23.5" y2="47" gradientUnits="userSpaceOnUse">
<stop stop-color="#2076EF"/>
<stop offset="1" stop-color="#0A3F89"/>
</linearGradient>
<linearGradient id="paint1_linear_77_14" x1="23.5" y1="0" x2="23.5" y2="47" gradientUnits="userSpaceOnUse">
<stop stop-color="#2076EF"/>
<stop offset="1" stop-color="#0A3F89"/>
</linearGradient>
</defs>
</svg>
