<svg fill="none" height="48" viewBox="0 0 48 48" width="48" xmlns="http://www.w3.org/2000/svg" xmlns:xlink="http://www.w3.org/1999/xlink"><mask id="a" height="48" maskUnits="userSpaceOnUse" width="48" x="0" y="0"><circle cx="24.1807" cy="24.0193" fill="#002f71" r="23.329"/></mask><circle cx="24.1807" cy="24.0193" fill="#002f71" r="23.329"/><g fill="#fff" mask="url(#a)"><path d="m31.5511 20.9658c.3626.3548.2224 1.1678.0476 2.0982-.1762.9292-.7303 2.1601-.8885 2.2977-.1581.1376-.5953-.0353-.5953-.0353s-.3175 1.799-1.647 3.4174c-.0373.0442-.0746.0897-.1131.1339-.0347.0403-.0695.0795-.1055.1199-.0758.0833-.153.1666-.234.2474-.0501.0505-.1002.0998-.1517.149-1.8411 1.7422-3.3352 2.2118-4.4975 2.1436-1.1147-.0656-3.1474-.8875-4.203-2.7698-.045-.0795-.0887-.1616-.1299-.2462-.0103-.0214-.0218-.0441-.0321-.0656-.0283-.0568-.0553-.1136-.0823-.1704-.0347-.0733-.0694-.1452-.1016-.2172-.8383-1.8141-1.0954-3.0602-1.0954-3.0602s-.495.2651-.6956.1351c-.2019-.1288-.3394-.813-.6634-1.39-.324-.5769-.6751-2.184-.4308-2.7572.2443-.5731.7432-.9127 1.1405-.558-.2649-.5656-1.0595-2.5211-.9489-3.4553.1106-.933.0592-3.521 1.557-4.5487 1.4979-1.0276 2.4468-1.8532 4.0141-1.0857 0 0 2.0006-1.90881 4.6299-.8723 2.6293 1.0352 4.4473 2.1121 4.9874 3.5538.54 1.4417.6004 3.4541.2597 4.6231-.3356 1.1514-.666 2.2383-.6763 2.2724.018-.0176.3047-.303.6557.0404z"/><path d="m43.8645 47.3499h-40.09674s1.34359-6.4701 1.94017-8.0948c.49243-1.3395 1.1263-2.0086 1.95302-2.5591 1.20344-.5239 3.43935-1.4101 5.04395-2.0464.5014-.1528.9463-.2777 1.2741-.356 1.3436-.3194 3.0279-1.2006 4.2095-2.0313.9116-.6401.9154-2.4265.972-3.4945 1.0556 1.8823 3.0883 2.7042 4.2031 2.7698 1.1623.0682 2.6563-.4014 4.4975-2.1436.0514-.0492.1028-.0985.1517-.149.081-.082.1594-.1641.234-.2474.036-.0392.0707-.0796.1054-.12.0386-.0441.0759-.0896.1131-.1338.0386 1.0592-.0527 2.8292.9759 3.5185 1.2009.8054 2.8659 1.7119 4.2095 2.0313.3279.0783.7727.202 1.2742.356 1.6033.6363 3.8391 1.5225 5.0439 2.0464.8267.5517 1.4606 1.2208 1.953 2.5591.5992 1.6247 1.9427 8.0948 1.9427 8.0948z"/></g></svg>