<svg fill="none" height="48" viewBox="0 0 48 48" width="48" xmlns="http://www.w3.org/2000/svg" xmlns:xlink="http://www.w3.org/1999/xlink"><mask id="a" height="48" maskUnits="userSpaceOnUse" width="48" x="0" y="0"><circle cx="24.1807" cy="24.1807" fill="#002f71" r="23.329"/></mask><circle cx="24.1807" cy="24.1807" fill="#002f71" r="23.329"/><g fill="#f2f2f2" mask="url(#a)"><path d="m16.1582 20.5148c-.3619.3397-.222 1.1196-.0475 2.0105.1759.891.7291 2.0693.887 2.2013.1579.1319.5943-.034.5943-.034s.3171 1.7231 1.6443 3.2738c.0372.0431.0744.0862.113.128.0346.0379.0693.0771.1052.1149.0757.0797.1528.1594.2336.2378.0501.0483.1001.0954.1515.1424 1.8381 1.6696 3.3296 2.1189 4.49 2.0536 1.1129-.0627 3.1422-.8504 4.1961-2.6532.0449-.0771.0885-.1555.1296-.2352.0103-.0209.0218-.0418.0321-.0627.0283-.0548.0552-.1097.0822-.1633.0346-.0705.0693-.1398.1014-.209.8369-1.7375 1.0936-2.9315 1.0936-2.9315s.4942.2534.6944.1293c.2015-.1241.3389-.7786.6624-1.3312.3247-.5539.6751-2.0928.4312-2.6415-.2438-.5486-.7419-.8739-1.1385-.5343.2644-.5421 1.0577-2.4155.9473-3.3103-.1104-.8936-.0591-3.3731-1.5544-4.3581-1.4954-.985-2.4427-1.7754-4.0074-1.0399 0 0-1.9973-1.8289-4.6223-.8361-2.6249.9929-4.4399 2.0236-4.979 3.4045-.5391 1.3808-.5995 3.3103-.2593 4.4299.335 1.1026.6649 2.1451.6751 2.1777-.0192-.0196-.3054-.2926-.6559.0366z"/><path d="m5.22585 47.5097h37.18065s-.5455-6.0942-1.1411-7.7755c-.4916-1.3861-1.1245-2.0784-1.9498-2.648-1.2015-.5422-2.7148-1.2398-4.3424-1.8303-.4942-.1789-5.4887-.9954-6.6696-1.855-.91-.6623-.4518-4.0132-.5083-5.1184-1.0538 1.9478-2.3515 2.119-3.4644 2.1869-1.1604.0705-1.9973.2639-3.8354-1.5389-.0513-.051-.1027-.1019-.1515-.1542-.0808-.0849-.1591-.1698-.2336-.256-.0359-.0405-.0706-.0823-.1052-.1241-.0385-.0458-.0758-.0928-.113-.1385-.0385 1.096.5532 4.4299-.4736 5.1432-1.1989.8335-6.1369 1.7936-6.6311 1.9726-1.6263.5905-3.10116 1.1705-4.30388 1.7127-.82536.5709-1.45817 1.2632-1.94978 2.648-.59559 1.6813-1.30799 7.7755-1.30799 7.7755z"/><path d="m15.9118 16.8478c.0462-2.4103 1.1886-4.8271 3.0781-6.302.3363-.2652.7085-.4716 1.1-.6231 1.6315-.63098 3.5967-.30569 4.9983.7185.2799.2051.5379.4376.7638.6976 1.607-.6506 3.5324-.324 4.7134 1.0739.8215.9667 1.4119 2.1163 1.4247 3.3573 0 2.2078-.2438 4.4156-.0783 6.6286.0154.3958.0373.7929.0732 1.2005.0308.3658.0693.7172.1335 1.0804.1669 1.3194.5776 2.5344.8728 3.8799.1541.7447.1798 1.5416-.308 2.1425-.5135.6271-1.3606.6009-2.0794.5225-.8087-.0783-1.6045-.1698-2.4196-.2377-.4352-.0353-.869-.0679-1.3042-.0928-.4351-.0248-.8689-.0405-1.3041-.0431-.2914-.0026-.5879-.0039-.8857-.0078-.5968 0-1.2014 0-1.797 0-.3299.0052-.6534.0078-.9704.0104-.3594.0013-.715.0092-1.0718.0235-.3556.0131-.7111.0327-1.0654.0562-1.5198-.0235-3.2141.7734-4.5876-.2978-.5647-.4442-.5262-1.1888-.3722-1.829.3722-1.5545.7316-3.0438.8484-4.5945.0257-.3161.0463-.6336.0604-.951.0141-.3175.0231-.6349.0282-.9537.0539-1.8211.2465-3.6369.1489-5.4593z"/></g></svg>