<svg xmlns="http://www.w3.org/2000/svg" width="30" height="30"><desc>Created with Sketch.</desc><path fill="#FEFEFE" fill-rule="evenodd" d="M19.8575 9.783c-0.4534 -0.3975 -1.1054 -0.3884 -1.4795 -0.273c0.245 -0.3008 0.816 -0.5476 0.984 -0.5775c0.128 0.048 0.4955 0.4255 0.4955 0.8505zm1.4476 -1.646c-0.2982 -1.595 -4.0048 -0.538 -5.8715 -1.2155c-0.0357 0.465 0.5747 1.21 1.1586 1.4856c-0.998 0.8663 -1.894 2.6116 -2.075 4.7438c-0.1802 -2.1322 -1.0763 -3.8775 -2.0743 -4.7437c0.5838 -0.2756 1.1948 -1.0206 1.1585 -1.4855c-1.8666 0.6775 -5.5733 -0.3794 -5.872 1.2156c-0.0628 0.3377 0.0996 0.852 0.275 1c0.0314 -0.107 0.1953 -0.457 0.712 -0.5354c2.6114 -0.3946 4.7917 3.6302 2.8236 5.2575c-0.03 0.025 -0.013 0.0705 0.0275 0.0705l5.9006 0c0.04 0 0.057 -0.0456 0.0274 -0.0704c-1.9686 -1.6272 0.2117 -5.652 2.8232 -5.2574c0.517 0.0784 0.6805 0.4283 0.712 0.5353c0.1754 -0.148 0.3378 -0.6623 0.2745 -1zm0.6352 -3.6605c-0.047 -0.1507 1.4843 -0.1545 1.4843 0.804c0 0.6422 -0.916 0.9464 -0.916 1.613c0 0.3104 0.334 0.538 0.4365 0.538c-0.236 -1.07 0.7395 -0.51 1.003 -0.31c-0.5235 -1.439 0.6548 -1.43 0.5388 -2.0898c-0.0807 -0.461 -1.105 -0.3218 -1.4756 -0.5552c-0.6578 -0.414 -1.436 -2.0253 -1.9488 -0.414c0.956 0.8875 0.3997 2.194 -0.814 2.194c0 0 -0.0067 0.1915 0.0044 0.2067c1.4476 -0.0708 1.9522 -1.1348 1.6874 -1.9867zm-16.8887 2.645c0.2634 -0.2 1.2388 -0.76 1.0034 0.31c0.102 0 0.436 -0.2276 0.436 -0.538c0 -0.6666 -0.916 -0.9708 -0.916 -1.613c0 -0.9585 1.5312 -0.9547 1.4843 -0.804c-0.2644 0.852 0.2402 1.916 1.6878 1.9867c0.0107 -0.0152 0.004 -0.2068 0.004 -0.2068c-1.2132 0 -1.7695 -1.3064 -0.814 -2.194c-0.5128 -1.6112 -1.291 0 -1.9488 0.414c-0.3707 0.2335 -1.395 0.0942 -1.4756 0.5553c-0.1155 0.66 1.0624 0.651 0.539 2.09zm4.1103 2.6615c0.4538 -0.3975 1.106 -0.3884 1.4795 -0.273c-0.244 -0.3008 -0.816 -0.5476 -0.9836 -0.5775c-0.128 0.048 -0.496 0.4255 -0.496 0.8505zm6.044 -8.922l-0.706 -0.861l-0.7062 0.861l0.706 0.906l0.7063 -0.906zm4.031 2.6033l-0.502 -0.6118l-0.5018 0.6118l0.5017 0.598l0.5022 -0.598zm4.073 17.6862l-0.6364 -0.6736l-0.6366 0.6735l0.6366 0.591l0.6365 -0.591zm-12.543 -17.6862l-0.502 -0.6118l-0.5017 0.6118l0.5018 0.598l0.502 -0.598zm-1.4383 2.999l1.873 0c1.5747 0 2.2832 -0.9666 2.4973 -1.8048l1.6023 0c0.2142 0.8382 0.9223 1.8047 2.4975 1.8047l1.873 0c0 0 0.3276 -0.4445 0.4098 -0.6646c0.2958 -0.792 -0.0822 -1.1615 -0.6337 -1.1615l-0.713 0.6462l-0.7128 -0.646c-0.5515 0 -0.9295 0.3693 -0.6337 1.1614c0.0378 0.1012 0.1282 0.25 0.2138 0.3808c-0.6646 -0.0913 -1.513 -0.5463 -1.699 -1.521c0 0 0.491 -0.78 0.6144 -1.0957c0.4427 -1.1353 -0.1228 -1.5993 -0.9498 -1.5993l-1.0677 1.255l-1.0677 -1.255c-0.827 0 -1.3924 0.464 -0.9492 1.5993c0.1227 0.3157 0.6143 1.0958 0.6143 1.0958c-0.1865 0.9746 -1.0347 1.4296 -1.6993 1.521c0.086 -0.131 0.176 -0.2797 0.2136 -0.381c0.2953 -0.792 -0.0817 -1.1614 -0.6336 -1.1614l-0.713 0.6462l-0.713 -0.646c-0.5518 0 -0.9288 0.3693 -0.6335 1.1614c0.0822 0.22 0.4103 0.6646 0.4103 0.6646zm19.3638 5.8056c-0.3615 0.183 -2.4824 1.1765 -5.1992 0.809a6.0428 6.0428 0 0 0 0.0716 -0.3912c1.8082 -0.2163 3.278 -0.523 4.2147 -1.044c1.0677 -0.5943 1.5346 -2.013 0.9957 -3.0683c-0.014 -0.0266 -0.0527 -0.0314 -0.072 -0.009c-0.2954 0.34 -2.1523 2.36 -5.078 2.988a5.4035 5.4035 0 0 0 -0.0415 -0.4532c1.421 -0.8058 2.8082 -1.7343 3.469 -2.5833c0.9984 -1.2836 0.9066 -2.921 -0.0436 -3.7558a0.0452 0.0452 0 0 0 -0.0673 0.0095c-0.3006 0.496 -3.1146 5.044 -6.204 7.0076a5.1272 5.1272 0 0 1 -0.114 0.0708c-0.0886 0.0538 -0.0983 0.169 -0.023 0.2373c0.3564 0.3228 0.5777 0.772 0.5777 1.2708c0 0.8673 -0.6684 1.5885 -1.552 1.745c-0.449 0.087 -1.097 0.0617 -1.7197 -0.1442c-0.028 -0.009 -0.057 0.0095 -0.057 0.0376l0 2.7464c0 0.0442 0.0672 0.0552 0.083 0.013c0.3786 -1.0028 1.5115 -1.2158 2.007 -1.2158c0.1783 1.0716 0.4968 1.9592 0.9105 2.437c0.6738 0.7763 1.774 0.7654 2.251 0.2287a0.039 0.039 0 0 0 -0.0107 -0.06c-0.2803 -0.161 -1.884 -1.1457 -2.205 -2.7592a3.1663 3.1663 0 0 0 0.3688 -0.1517c0.5177 0.8567 1.2712 1.6197 1.8778 1.9112c1.019 0.4887 1.9518 0.251 2.3655 -0.4645c0.015 -0.0252 -0.0034 -0.0566 -0.0338 -0.0594c-0.6303 -0.0503 -2.5646 -0.6047 -3.3882 -1.9553a3.9593 3.9593 0 0 0 0.2726 -0.273c0.862 0.6562 2.0804 1.2362 2.9528 1.3546c1.0208 0.1388 2.1774 -0.187 2.2054 -1.374c0.0005 -0.0237 -0.0208 -0.0432 -0.046 -0.0418c-0.363 0.022 -2.7655 0.1265 -4.4775 -0.8562a5.4194 5.4194 0 0 0 0.1663 -0.3452c0 0 2.5868 0.6115 3.8125 0.409c1.218 -0.201 1.9314 -1.109 1.7937 -2.2387c-0.004 -0.028 -0.0368 -0.0447 -0.063 -0.0314zm-22.8418 1.861a5.4247 5.4247 0 0 0 0.1667 0.3453c-1.7115 0.9822 -4.113 0.8785 -4.4776 0.8562c-0.0256 -0.0014 -0.047 0.019 -0.0464 0.0423c0.0285 1.1866 1.1847 1.5123 2.2055 1.3735c0.872 -0.1184 2.091 -0.6984 2.9527 -1.3545a4.0702 4.0702 0 0 0 0.2726 0.273c-0.824 1.3505 -2.758 1.905 -3.3882 1.9553c-0.0305 0.003 -0.0483 0.0343 -0.0338 0.0595c0.4137 0.7155 1.3465 0.9532 2.366 0.4645c0.606 -0.2915 1.3595 -1.0545 1.877 -1.9112a3.2372 3.2372 0 0 0 0.369 0.1517c-0.321 1.6135 -1.9247 2.598 -2.205 2.7593a0.0392 0.0392 0 0 0 -0.0107 0.06c0.477 0.5366 1.5776 0.5475 2.2514 -0.2288c0.4137 -0.4778 0.7318 -1.3654 0.91 -2.437c0.496 0 1.6285 0.213 2.007 1.2157c0.0163 0.0423 0.0835 0.0313 0.0835 -0.013l0 -2.7463c0 -0.028 -0.0295 -0.0466 -0.0575 -0.0376c-0.6225 0.206 -1.2707 0.231 -1.7192 0.144c-0.884 -0.1563 -1.5525 -0.8775 -1.5525 -1.7447c0 -0.4986 0.222 -0.9483 0.5776 -1.271c0.076 -0.068 0.0657 -0.1832 -0.0222 -0.237a5.3965 5.3965 0 0 1 -0.115 -0.0707c-3.0876 -1.9625 -5.9 -6.5074 -6.2032 -7.0066a0.046 0.046 0 0 0 -0.0686 -0.01c-0.9488 0.8353 -1.041 2.472 -0.0425 3.7553c0.6608 0.849 2.048 1.7775 3.4685 2.5833a5.4033 5.4033 0 0 0 -0.041 0.453c-2.9233 -0.6274 -4.7788 -2.644 -5.077 -2.9864c-0.02 -0.0234 -0.0595 -0.0187 -0.073 0.008c-0.538 1.056 -0.071 2.4735 0.9956 3.0678c0.9368 0.521 2.4067 0.8277 4.2148 1.044a6.0428 6.0428 0 0 0 0.0715 0.3912c-2.714 0.367 -4.8338 -0.6242 -5.1982 -0.8086c-0.027 -0.0138 -0.0598 0.0033 -0.0632 0.0318c-0.1373 1.1296 0.5756 2.0367 1.7936 2.2378c1.2253 0.2025 3.812 -0.409 3.812 -0.409zm16.823 8.479l-0.9426 -0.7416c-0.3762 0.224 -0.6526 0.5796 -0.76 0.9965c-0.567 0.0793 -2.1126 -0.264 -1.9623 -0.4917c1.694 -2.3827 0.3983 -3.8014 -1.159 -3.7224l0 1.6c0 0.514 -0.4485 0.9305 -1.001 0.9305l-1.0754 0c-0.7714 0 -1.2736 0.7754 -1.2736 0.7754c0 0 -0.5022 -0.7755 -1.2736 -0.7755l-1.0753 0c-0.553 0 -1.0005 -0.4165 -1.0005 -0.9304l0 -1.6c-1.5573 -0.079 -2.854 1.3396 -1.1595 3.7223c0.149 0.2254 -1.4398 0.5862 -2.185 0.495c-0.1964 -0.2036 -0.4796 -0.332 -0.7967 -0.332a1.1374 1.1374 0 0 0 -0.395 0.071c0 0 -2.9284 -2.7727 -2.982 -2.7998l0.024 -0.056c0.167 -0.312 -0.0883 -0.652 -0.2497 -0.628c0.1875 -0.225 0.1962 -1.2095 -0.844 -1.4373c0.0305 0.1978 0.046 0.6014 0.046 0.6014c0 0 -0.8028 -0.434 -1.206 -0.0594c-0.3542 0.4193 0.1373 1.18 0.1373 1.18c0 0 -0.4108 0.01 -0.6133 -0.0072c0.2977 1.007 1.2963 0.9357 1.5123 0.737c-0.014 0.16 0.347 0.3883 0.653 0.2053l0.1344 -0.065c0.0237 0.0317 2.8758 2.7264 2.8758 2.7264c-0.131 0.1944 -0.1933 0.433 -0.1503 0.6874c0.0677 0.3975 0.3987 0.727 0.8217 0.8126c0.2987 0.06 0.5795 0.002 0.8047 -0.1298l0.755 0.7007c0.067 0.061 0.158 0.099 0.2594 0.0918c0.1847 -0.0124 0.323 -0.162 0.309 -0.3337c-0.006 -0.0775 -0.0456 -0.144 -0.1002 -0.1945c-0.012 -0.0132 -0.769 -0.716 -0.769 -0.716c0.6245 -0.4377 1.788 -0.7462 2.7536 -0.7462c0.1696 0 0.2494 -0.1436 0.191 -0.2843c-0.4375 -1.052 0.503 -1.8142 1.476 -1.1938c0.4244 0.2705 0.8555 0.8034 1.1803 1.6925c-1.5963 0.3865 -3.6007 1.4514 -4.0062 2.6138c-0.1562 0.4488 0.3596 1.0606 0.986 1.1837a0.0425 0.0425 0 0 0 0.0507 -0.0328c0.3272 -1.7353 2.1934 -3.0284 3.1644 -3.248c0.0487 0.1307 0.0328 0.0884 0.0816 0.2186c-1.0576 0.5002 -2.0832 1.555 -2.376 2.8092c-0.1345 0.5743 0.506 1.092 1.0347 1.2337c0.0266 0.007 0.0527 -0.0114 0.0542 -0.037c0.1005 -1.586 0.8008 -2.933 1.4282 -3.5457a5.0907 5.0907 0 0 1 0.0387 0.361c0 0 -0.6424 1.7898 -0.6424 3.0957c0 0.6076 0.903 1.0317 1.0363 1.091c0.1667 -0.0593 1.069 -0.4834 1.069 -1.091c0 -1.306 -0.6422 -3.0958 -0.6422 -3.0958a5.0895 5.0895 0 0 1 0.0392 -0.361c0.627 0.613 1.3277 1.9593 1.4278 3.5453a0.043 0.043 0 0 0 0.054 0.0375c0.5294 -0.1417 1.1693 -0.6594 1.0354 -1.2337c-0.2934 -1.254 -1.3185 -2.309 -2.376 -2.8092c0.0483 -0.1302 0.0323 -0.088 0.0812 -0.2187c0.9715 0.2196 2.837 1.5127 3.1643 3.248a0.0427 0.0427 0 0 0 0.0507 0.0327c0.626 -0.123 1.1426 -0.735 0.9855 -1.1837c-0.4045 -1.1624 -2.4094 -2.2273 -4.006 -2.6138c0.3254 -0.889 0.7566 -1.422 1.181 -1.6925c0.9724 -0.6204 1.913 0.1417 1.4755 1.1938c-0.0584 0.1407 0.0208 0.2843 0.191 0.2843c1.0923 0 2.438 0.3945 2.9705 0.9237c0.3403 0.5106 0.969 0.8372 1.6786 0.7673c0.8062 -0.079 1.4636 -0.6846 1.5544 -1.4334c0.0793 -0.656 -0.26 -1.245 -0.8008 -1.566l-0.943 0.7417zm-6.947 -4.7792c0.3358 -0.1246 0.8622 -0.0238 0.8443 0.461c-0.0043 0.11 0.1498 0.11 0.161 -0.0023c0.1005 -0.726 -0.39 -0.935 -0.9034 -0.85c-0.0638 -0.2496 -0.116 -0.4678 -0.1754 -0.684c-0.0474 -0.175 -0.0648 -0.5036 0.1377 -0.5036c0.1092 0 0.0653 0.3056 0.055 0.4373c-0.009 0.1155 0.0325 0.1854 0.1263 0.1887c0.0584 0.0024 0.1314 -0.0722 0.175 -0.1217c0.2938 -0.3323 0.362 -0.8467 0.0178 -1.0948c-0.288 -0.2083 -1.0092 -0.0533 -1.2074 0.2434c-0.03 -0.1118 -0.173 -0.2963 -0.2416 -0.3766c-0.0667 -0.0785 -0.084 -0.1322 0.0082 -0.201c0.0435 -0.0334 0.175 -0.1642 0.175 -0.2992c0 -0.0798 -0.062 -0.2272 -0.2586 -0.2272c-0.1552 0 -0.3277 0.1074 -0.3277 0.347c0 0.0533 0.013 0.1103 0.0473 0.1717c-0.098 -0.0162 -0.3644 -0.0096 -0.5012 0.0242l1.8913 5.19c0.5414 -0.2672 0.9383 -0.6903 0.9383 -1.1444c0 -0.387 -0.57 -0.2586 -0.8468 0.0433c-0.089 -0.4907 -0.1682 -0.9438 -0.2548 -1.3954c-0.0236 -0.1246 0.0397 -0.1693 0.1397 -0.2068zm-2.6744 -3.5257l0.3974 1.104c-0.3402 0.081 -0.8874 0.329 -0.8874 0.6575c0 0.4374 0.774 0.7222 1.2214 0.688c-0.0222 0.0998 0.0034 0.1887 0.073 0.27c-0.1624 0 -0.4688 0.0756 -0.5694 0.184c-0.2373 -0.221 -0.6085 -0.3015 -0.785 -0.167c-0.1773 0.1356 -0.1826 0.3652 0.0025 0.6248c0.129 0.1797 0.1774 0.357 0.0324 0.5652c0.5393 0 0.3407 -0.7012 0.552 -0.7012c-0.0277 0.136 -0.0108 0.2933 0.0506 0.4678c0.0406 0.116 0.0406 0.1984 -0.029 0.31c-0.174 0.2782 -0.4446 0.917 -0.408 1.4948c-0.1768 -0.001 -0.2667 -0.0442 -0.2044 -0.2858c0.0232 -0.0898 -0.0323 -0.154 -0.1058 -0.0432c-0.0812 0.1222 -0.1204 0.331 -0.1204 0.4202c0 0.5144 0.613 0.618 0.8468 0.5092c0.6767 0.655 2.006 0.4802 2.451 0.2605l-2.3403 -6.4213c-0.0478 -0.1213 -0.2194 -0.0633 -0.1774 0.0627zm-0.081 5.2895c-0.0484 -0.2643 0.3194 -0.7368 0.7873 -1.1928c-0.0996 0.2972 -0.0377 0.8092 0.1576 0.9856c-0.3394 0 -0.7425 0.0637 -0.945 0.2072l0 0z"/></svg>