<svg width="163" height="27" viewBox="0 0 163 27" fill="none" xmlns="http://www.w3.org/2000/svg">
<g clip-path="url(#clip0)">
<path d="M7.6053 20.9821H1.51642V27H7.6053V20.9821Z" fill="#001540"/>
<path d="M12.3644 20.9821H8.21185V27H14.3007V22.8958H13.1809L12.3644 20.9821Z" fill="#001540"/>
<path d="M14.9072 22.8958V27H20.9961V20.9821H16.5403L15.7471 22.8958H14.9072Z" fill="#001540"/>
<path d="M27.5516 20.9821H21.4627V27H27.5516V20.9821Z" fill="#001540"/>
<path d="M7.30201 14.2032H1.21313V20.2212H7.30201V14.2032Z" fill="#002571"/>
<path d="M7.90851 14.3647V20.3826H12.1311L9.63486 14.3647H7.90851Z" fill="#002571"/>
<path d="M20.8329 20.3826V14.3647H19.2465L16.7969 20.3826H20.8329Z" fill="#002571"/>
<path d="M27.5516 14.4338H21.4627V20.4517H27.5516V14.4338Z" fill="#001540"/>
<path d="M0.606567 7.26303V13.281H6.69545V7.28609L6.67212 7.26303H0.606567Z" fill="#0038A9"/>
<path d="M13.9974 13.719V7.70111H11.6179L13.9274 13.719H13.9974Z" fill="#0038A9"/>
<path d="M7.90851 13.7191H9.35491L7.90851 10.2144V13.7191Z" fill="#0038A9"/>
<path d="M14.7673 7.70111V13.719H14.9306L17.2168 7.70111H14.7673Z" fill="#002571"/>
<path d="M20.8329 13.7191V10.468L19.5031 13.7191H20.8329Z" fill="#002571"/>
<path d="M21.4627 13.9035H27.5283V7.88556H21.906L21.4627 8.96925V13.9035Z" fill="#001540"/>
<path d="M11.1979 6.61742H13.5308V0.599487H7.46527V5.21093H10.6614L11.1979 6.61742Z" fill="#0038A9"/>
<path d="M20.6929 5.21094V1.06064H14.604V7.07857H17.4501L18.15 5.21094H20.6929Z" fill="#002571"/>
<path d="M22.1159 7.37832H27.5283V1.36038H21.4627V5.21094H23.0024L22.1159 7.37832Z" fill="#001540"/>
<path d="M6.67212 7.26303L6.69545 7.28609V7.26303H6.67212Z" fill="white"/>
<path d="M21.4627 8.96925L21.906 7.88556H21.4627V8.96925Z" fill="white"/>
<path d="M6.08888 5.21093V0H0V6.01793H6.08888V5.81042L5.83226 5.21093H6.08888Z" fill="#165DC4"/>
<path d="M36.6266 26.0777L31.3542 9.93765H35.9267L39.0994 21.0512L42.2955 9.93765H46.868L41.5956 26.0777H36.6266Z" fill="black"/>
<path d="M52.3036 22.2041H58.6258V26.0777H48.1277V9.93765H58.5092V13.7882H52.3036V16.0248H57.9259V19.8292H52.3036V22.2041Z" fill="black"/>
<path d="M69.1239 26.0777L66.2777 20.8668H64.7847V26.0777H60.6088V9.93765H67.1409C68.7973 9.93765 70.197 10.468 71.3168 11.5286C72.4599 12.5662 73.0198 13.9035 73.0198 15.5175C73.0198 17.4543 71.9467 19.1605 70.2437 20.1059L73.603 26.0777H69.1239ZM64.7847 13.7421V17.3621H67.0942C68.1207 17.3851 68.8439 16.6473 68.8439 15.5636C68.8439 14.4799 68.1207 13.7421 67.0942 13.7421H64.7847Z" fill="black"/>
<path d="M73.9763 22.4116L77.5457 20.3595C78.1522 21.7891 79.2254 22.5038 80.7651 22.5038C82.0482 22.5038 82.678 22.1349 82.678 21.4201C82.678 20.9359 82.3048 20.567 81.5816 20.2673C81.2783 20.152 80.5784 19.9445 79.5286 19.6447C76.5425 18.7916 74.6762 17.3621 74.6762 14.5952C74.6762 13.0965 75.2128 11.8975 76.2859 10.9752C77.3824 10.0529 78.7354 9.5918 80.3451 9.5918C83.0746 9.5918 85.2909 10.883 86.4107 13.281L82.9113 15.31C82.3981 14.111 81.5583 13.5115 80.3685 13.5115C79.3653 13.5115 78.8521 13.9496 78.8521 14.5722C78.8521 15.2869 79.4353 15.6789 81.6516 16.3245C82.4448 16.5551 83.0746 16.7626 83.5646 16.9701C84.0545 17.1776 84.5677 17.4543 85.1509 17.8463C86.294 18.5841 86.8539 19.7831 86.8539 21.374C86.8539 22.965 86.294 24.187 85.1509 25.0862C84.0078 25.9855 82.5147 26.4236 80.6484 26.4236C77.1957 26.4236 74.8862 24.8787 73.9763 22.4116Z" fill="black"/>
<path d="M99.2184 9.93765V13.9266H95.1825V26.0777H91.0066V13.9266H86.9706V9.93765H99.2184Z" fill="black"/>
<path d="M114.289 26.0777H109.623L104.934 18.8608V26.0777H100.758V9.93765H104.934V16.7165L109.39 9.93765H114.056L108.877 17.7771L114.289 26.0777Z" fill="black"/>
<path d="M122.104 26.4236C119.701 26.4236 117.672 25.6166 116.015 24.0026C114.359 22.3655 113.542 20.3826 113.542 18.0077C113.542 15.6328 114.359 13.6499 116.015 12.0359C117.672 10.3988 119.701 9.5918 122.104 9.5918C124.507 9.5918 126.513 10.3988 128.17 12.0359C129.826 13.6499 130.666 15.6328 130.666 18.0077C130.666 20.3826 129.826 22.3655 128.17 24.0026C126.537 25.6166 124.53 26.4236 122.104 26.4236ZM122.104 22.3886C123.364 22.3886 124.414 21.9735 125.254 21.1665C126.093 20.3365 126.513 19.2758 126.513 18.0077C126.513 16.7395 126.093 15.6789 125.254 14.8719C124.414 14.0418 123.364 13.6268 122.104 13.6268C120.844 13.6268 119.795 14.0418 118.955 14.8719C118.115 15.6789 117.695 16.7395 117.695 18.0077C117.695 19.2758 118.115 20.3365 118.955 21.1665C119.795 21.9735 120.844 22.3886 122.104 22.3886Z" fill="black"/>
<path d="M135.775 26.0777L130.503 9.93765H135.075L138.248 21.0512L141.444 9.93765H146.04L140.767 26.0777H135.775Z" fill="black"/>
<path d="M154.438 26.4236C152.035 26.4236 150.006 25.6166 148.349 24.0026C146.693 22.3655 145.876 20.3826 145.876 18.0077C145.876 15.6328 146.693 13.6499 148.349 12.0359C150.006 10.3988 152.035 9.5918 154.438 9.5918C156.841 9.5918 158.847 10.3988 160.504 12.0359C162.16 13.6499 163 15.6328 163 18.0077C163 20.3826 162.16 22.3655 160.504 24.0026C158.847 25.6166 156.841 26.4236 154.438 26.4236ZM154.438 22.3886C155.698 22.3886 156.748 21.9735 157.588 21.1665C158.427 20.3365 158.847 19.2758 158.847 18.0077C158.847 16.7395 158.427 15.6789 157.588 14.8719C156.748 14.0418 155.698 13.6268 154.438 13.6268C153.178 13.6268 152.129 14.0418 151.289 14.8719C150.449 15.6789 150.029 16.7395 150.029 18.0077C150.029 19.2758 150.449 20.3365 151.289 21.1665C152.105 21.9735 153.178 22.3886 154.438 22.3886Z" fill="black"/>
<path d="M36.6266 2.44406H37.2565L36.1833 5.90264H35.5535L34.7369 3.34329L33.9204 5.90264H33.2905L32.2174 2.44406H32.8473L33.6171 5.07258L34.4337 2.44406H35.0169L35.8334 5.07258L36.6266 2.44406Z" fill="black"/>
<path d="M38.1896 4.45004C38.3063 5.07259 38.7962 5.41845 39.4494 5.41845C39.916 5.41845 40.2426 5.25705 40.4525 4.91119L40.9658 5.21093C40.6159 5.74125 40.1026 5.99488 39.4261 5.99488C38.8662 5.99488 38.4229 5.81042 38.073 5.48762C37.7231 5.14176 37.5598 4.70367 37.5598 4.17336C37.5598 3.64304 37.7231 3.22801 38.073 2.88215C38.4229 2.53629 38.8662 2.35184 39.4027 2.35184C39.916 2.35184 40.3359 2.53629 40.6625 2.88215C40.9891 3.22801 41.1524 3.6661 41.1524 4.17336C41.1524 4.26559 41.1524 4.35782 41.1291 4.45004H38.1896ZM38.1896 3.91973H40.5225C40.4059 3.27413 39.9626 2.92827 39.4027 2.92827C38.7495 2.92827 38.283 3.32024 38.1896 3.91973Z" fill="black"/>
<path d="M45.0251 2.88216C45.375 3.22802 45.5383 3.6661 45.5383 4.17336C45.5383 4.68062 45.3517 5.11871 45.0251 5.46457C44.6751 5.81043 44.2552 5.99488 43.7653 5.99488C43.1821 5.99488 42.7388 5.76431 42.4355 5.30317V5.90265H41.829V1.06064H42.4355V3.04356C42.7388 2.58241 43.1821 2.35184 43.7653 2.35184C44.2552 2.35184 44.6751 2.5363 45.0251 2.88216ZM44.5585 5.04954C44.7918 4.81896 44.9084 4.51922 44.9084 4.17336C44.9084 3.8275 44.7918 3.52776 44.5585 3.29719C44.3252 3.06662 44.0219 2.92827 43.672 2.92827C43.322 2.92827 43.0188 3.04356 42.7855 3.29719C42.5522 3.52776 42.4355 3.8275 42.4355 4.17336C42.4355 4.51922 42.5522 4.81896 42.7855 5.04954C43.0188 5.28011 43.322 5.39539 43.672 5.39539C44.0452 5.41845 44.3252 5.30317 44.5585 5.04954Z" fill="black"/>
<path d="M51.2072 2.88215C51.5572 3.22801 51.7205 3.6661 51.7205 4.17336C51.7205 4.68062 51.5339 5.1187 51.2072 5.46456C50.8573 5.81042 50.4374 5.99488 49.9475 5.99488C49.3643 5.99488 48.921 5.7643 48.6177 5.30316V7.28608H48.0112V2.44407H48.6177V3.04355C48.921 2.58241 49.3643 2.35184 49.9475 2.35184C50.4374 2.35184 50.8573 2.53629 51.2072 2.88215ZM50.7407 5.04953C50.974 4.81896 51.0906 4.51921 51.0906 4.17336C51.0906 3.8275 50.974 3.52775 50.7407 3.29718C50.5074 3.06661 50.2041 2.92827 49.8542 2.92827C49.5042 2.92827 49.2009 3.04355 48.9677 3.29718C48.7344 3.52775 48.6177 3.8275 48.6177 4.17336C48.6177 4.51921 48.7344 4.81896 48.9677 5.04953C49.2009 5.2801 49.5042 5.39539 49.8542 5.39539C50.2274 5.41845 50.5074 5.30316 50.7407 5.04953Z" fill="black"/>
<path d="M53.0502 3.02048C53.2602 2.58239 53.6101 2.37488 54.1467 2.37488V2.99742C53.8434 2.97437 53.5868 3.06659 53.3768 3.22799C53.1669 3.41245 53.0502 3.66608 53.0502 4.05805V5.87957H52.4437V2.42099H53.0502V3.02048Z" fill="black"/>
<path d="M56.1996 5.99488C55.6864 5.99488 55.2431 5.81042 54.8932 5.46456C54.5433 5.1187 54.3566 4.68062 54.3566 4.17336C54.3566 3.6661 54.5433 3.22801 54.8932 2.88215C55.2431 2.53629 55.6864 2.35184 56.1996 2.35184C56.7129 2.35184 57.1561 2.53629 57.506 2.88215C57.856 3.22801 58.0426 3.6661 58.0426 4.17336C58.0426 4.68062 57.856 5.1187 57.506 5.46456C57.1561 5.81042 56.7129 5.99488 56.1996 5.99488ZM57.0861 5.04953C57.3194 4.81896 57.4361 4.51922 57.4361 4.17336C57.4361 3.8275 57.3194 3.52776 57.0861 3.29718C56.8528 3.06661 56.5496 2.95132 56.1996 2.95132C55.8497 2.95132 55.5697 3.06661 55.3131 3.29718C55.0565 3.52776 54.9632 3.8275 54.9632 4.17336C54.9632 4.51922 55.0798 4.81896 55.3131 5.04953C55.5464 5.2801 55.8497 5.39539 56.1996 5.39539C56.5496 5.39539 56.8295 5.2801 57.0861 5.04953Z" fill="black"/>
<path d="M61.6587 1.06064H62.2652V5.90265H61.6587V5.30317C61.3554 5.76431 60.9121 5.99488 60.3289 5.99488C59.839 5.99488 59.4191 5.81043 59.0691 5.46457C58.7192 5.11871 58.5559 4.68062 58.5559 4.17336C58.5559 3.6661 58.7425 3.25107 59.0691 2.88216C59.4191 2.5363 59.839 2.35184 60.3289 2.35184C60.9121 2.35184 61.3554 2.58241 61.6587 3.04356V1.06064ZM61.3087 5.04954C61.542 4.81896 61.6587 4.51922 61.6587 4.17336C61.6587 3.8275 61.542 3.52776 61.3087 3.29719C61.0754 3.06662 60.7722 2.92827 60.4222 2.92827C60.0723 2.92827 59.769 3.04356 59.5357 3.29719C59.3024 3.52776 59.1858 3.8275 59.1858 4.17336C59.1858 4.51922 59.3024 4.81896 59.5357 5.04954C59.769 5.28011 60.0723 5.39539 60.4222 5.39539C60.7722 5.41845 61.0754 5.30317 61.3087 5.04954Z" fill="black"/>
<path d="M65.6013 2.44405H66.2078V5.90263H65.6013V5.39537C65.3446 5.78734 64.9714 5.9718 64.4581 5.9718C63.6416 5.9718 63.105 5.41843 63.105 4.54225V2.42099H63.7116V4.5192C63.7116 5.07257 64.0382 5.39537 64.5748 5.39537C65.1813 5.39537 65.6013 5.02646 65.6013 4.24251V2.44405Z" fill="black"/>
<path d="M67.4676 5.46456C67.1177 5.1187 66.9543 4.68062 66.9543 4.17336C66.9543 3.6661 67.141 3.22801 67.4676 2.88215C67.8175 2.53629 68.2608 2.35184 68.774 2.35184C69.4739 2.35184 70.0571 2.6977 70.3137 3.25107L69.8005 3.55081C69.6372 3.1819 69.2406 2.95132 68.774 2.95132C68.4241 2.95132 68.1208 3.06661 67.8875 3.29718C67.6542 3.52776 67.5376 3.8275 67.5376 4.17336C67.5376 4.51922 67.6542 4.81896 67.8875 5.04953C68.1208 5.2801 68.4241 5.39539 68.774 5.39539C69.2406 5.39539 69.6372 5.16482 69.8238 4.7959L70.3371 5.09565C70.0338 5.64902 69.4505 5.99488 68.774 5.99488C68.2608 5.99488 67.8175 5.81042 67.4676 5.46456Z" fill="black"/>
<path d="M72.8566 3.02048H71.9234V4.88811C71.9234 5.41843 72.2267 5.37232 72.8566 5.34926V5.87958C71.7835 6.01792 71.3169 5.74123 71.3169 4.88811V3.02048H70.617V2.44405H71.3169V1.6601L71.9234 1.47565V2.44405H72.8566V3.02048Z" fill="black"/>
<path d="M73.4865 1.40648C73.4865 1.17591 73.6731 0.991455 73.9064 0.991455C74.1397 0.991455 74.303 1.17591 74.303 1.40648C74.303 1.63706 74.1163 1.79846 73.9064 1.79846C73.6731 1.82151 73.4865 1.63706 73.4865 1.40648ZM73.5798 5.90264V2.44406H74.1863V5.90264H73.5798Z" fill="black"/>
<path d="M76.7759 5.99488C76.2627 5.99488 75.8194 5.81042 75.4695 5.46456C75.1196 5.1187 74.9329 4.68062 74.9329 4.17336C74.9329 3.6661 75.1196 3.22801 75.4695 2.88215C75.8194 2.53629 76.2627 2.35184 76.7759 2.35184C77.2892 2.35184 77.7324 2.53629 78.0823 2.88215C78.4323 3.22801 78.6189 3.6661 78.6189 4.17336C78.6189 4.68062 78.4323 5.1187 78.0823 5.46456C77.7324 5.81042 77.2892 5.99488 76.7759 5.99488ZM77.6624 5.04953C77.8957 4.81896 78.0123 4.51922 78.0123 4.17336C78.0123 3.8275 77.8957 3.52776 77.6624 3.29718C77.4291 3.06661 77.1258 2.95132 76.7759 2.95132C76.426 2.95132 76.146 3.06661 75.8894 3.29718C75.6328 3.52776 75.5395 3.8275 75.5395 4.17336C75.5395 4.51922 75.6561 4.81896 75.8894 5.04953C76.1227 5.2801 76.426 5.39539 76.7759 5.39539C77.1258 5.39539 77.4058 5.2801 77.6624 5.04953Z" fill="black"/>
<path d="M82.4448 3.78139V5.90265H81.8382V3.80445C81.8382 3.25107 81.5116 2.92827 80.9751 2.92827C80.3685 2.92827 79.9486 3.29719 79.9486 4.08113V5.90265H79.342V2.44407H79.9486V2.95133C80.2052 2.55936 80.5785 2.3749 81.0917 2.3749C81.9082 2.35184 82.4448 2.90522 82.4448 3.78139Z" fill="black"/>
</g>
<defs>
<clipPath id="clip0">
<rect width="163" height="27" fill="white"/>
</clipPath>
</defs>
</svg>
