<?xml version="1.0" standalone="no"?>
<!DOCTYPE svg PUBLIC "-//W3C//DTD SVG 20010904//EN"
 "http://www.w3.org/TR/2001/REC-SVG-20010904/DTD/svg10.dtd">
<svg version="1.0" xmlns="http://www.w3.org/2000/svg"
 width="50.000000pt" height="36.000000pt" viewBox="0 0 50.000000 36.000000"
 preserveAspectRatio="xMidYMid meet">

<g transform="translate(0.000000,36.000000) scale(0.100000,-0.100000)"
fill="#fff" stroke="none">
<path d="M11 336 c-15 -18 -4 -45 23 -51 11 -3 115 -4 230 -3 179 3 210 5 219
19 6 9 7 24 4 33 -6 14 -33 16 -235 16 -182 0 -232 -3 -241 -14z"/>
<path d="M9 194 c-11 -14 -10 -19 10 -35 21 -17 42 -19 230 -19 219 0 247 5
239 46 -3 18 -15 19 -234 22 -204 2 -233 0 -245 -14z"/>
<path d="M16 64 c-9 -8 -16 -19 -16 -23 0 -27 35 -31 256 -29 217 3 229 4 232
22 8 41 -20 46 -244 46 -180 0 -215 -2 -228 -16z"/>
</g>
</svg>
