<svg version="1.2" baseProfile="tiny-ps" xmlns="http://www.w3.org/2000/svg" viewBox="0 0 12 25" width="12" height="25">
	<title>audioboost-logo</title>
	<defs>
		<linearGradient id="grd1" gradientUnits="userSpaceOnUse"  x1="0.096" y1="6.318" x2="11.926" y2="6.318">
			<stop offset="0" stop-color="#9c7bff"  />
			<stop offset="1" stop-color="#dd94ff"  />
		</linearGradient>
		<linearGradient id="grd2" gradientUnits="userSpaceOnUse"  x1="2618.363" y1="5225.487" x2="2939.833" y2="5225.487">
			<stop offset="0" stop-color="#9c7bff"  />
			<stop offset="1" stop-color="#dd94ff"  />
		</linearGradient>
		<linearGradient id="grd3" gradientUnits="userSpaceOnUse"  x1="3009.877" y1="5185.346" x2="3331.347" y2="5185.346">
			<stop offset="0" stop-color="#9c7bff"  />
			<stop offset="1" stop-color="#dd94ff"  />
		</linearGradient>
	</defs>
	<style>
		tspan { white-space:pre }
		.shp0 { fill: none;stroke: url(#grd1);stroke-width: 1.731 } 
		.shp1 { fill: url(#grd2) } 
		.shp2 { fill: url(#grd3) } 
	</style>
	<path id="Layer" class="shp0" d="M11.06 12.61L11.06 6.65C11.06 3.47 8.8 0.89 6.01 0.89C3.23 0.89 0.97 3.47 0.97 6.65L0.97 12.61" />
	<path id="Layer" fill-rule="evenodd" class="shp1" d="M0.05 21.2L0.05 13.4C0.05 11.03 1 9.67 2.76 9.67C4.51 9.67 5.47 11.03 5.47 13.4L5.47 21.2C5.47 23.57 4.51 24.92 2.76 24.92C1 24.92 0.05 23.57 0.05 21.2ZM3.69 13.25C3.69 12.19 3.33 11.79 2.76 11.79C2.19 11.79 1.83 12.19 1.83 13.25L1.83 21.35C1.83 22.4 2.19 22.81 2.76 22.81C3.33 22.81 3.69 22.4 3.69 21.35L3.69 13.25Z" />
	<path id="Layer" fill-rule="evenodd" class="shp2" d="M6.55 21.23L6.55 13.52C6.55 11.17 7.5 9.83 9.26 9.83C11.01 9.83 11.97 11.17 11.97 13.52L11.97 21.23C11.97 23.58 11.01 24.92 9.26 24.92C7.5 24.92 6.55 23.58 6.55 21.23ZM10.18 13.37C10.18 12.32 9.83 11.92 9.26 11.92C8.69 11.92 8.33 12.32 8.33 13.37L8.33 21.38C8.33 22.43 8.69 22.83 9.26 22.83C9.83 22.83 10.18 22.43 10.18 21.38L10.18 13.37Z" />
</svg>