<?xml version="1.0" standalone="no"?>
<!DOCTYPE svg PUBLIC "-//W3C//DTD SVG 20010904//EN"
 "http://www.w3.org/TR/2001/REC-SVG-20010904/DTD/svg10.dtd">
<svg version="1.0" xmlns="http://www.w3.org/2000/svg"
 width="40.000000pt" height="43.000000pt" viewBox="0 0 40.000000 43.000000"
 preserveAspectRatio="xMidYMid meet">

<g transform="translate(0.000000,43.000000) scale(0.100000,-0.100000)"
fill="#fff" stroke="none">
<path d="M104 411 c-48 -22 -80 -59 -95 -112 -10 -32 -9 -46 5 -83 32 -83 109
-124 194 -105 l45 10 48 -47 c48 -47 49 -47 69 -29 l21 19 -47 47 -46 46 18
49 c23 65 13 114 -31 163 -31 34 -88 61 -126 61 -8 0 -32 -9 -55 -19z m139
-81 c40 -45 37 -92 -8 -137 -32 -32 -40 -35 -76 -30 -77 10 -118 81 -85 146
35 67 118 77 169 21z"/>
</g>
</svg>
