<svg xmlns="http://www.w3.org/2000/svg" xml:space="preserve" id="Layer_1" x="0" y="0" version="1.1" viewBox="0 0 170 23">
  <style>
    .st0{fill:#0079c1}
  </style>
  <path d="M14 9.1c-.7-.4-2.8-1-6.6-2.1C6 6.7 4.3 6 4.3 4.9c0-.8.5-1.6 1.2-1.9.8-.4 1.7-.6 2.6-.6 1.3-.1 2.5.3 3.5.9 1.2.8 2.2 1.8 3 2.9l.8-.4-1.1-5-.1-.6-.5.3c-.5.2-.9.3-1.4.3-.2 0-1.9-.2-2.4-.3C9.3.4 8.8.4 8.2.4c-1.8-.1-3.5.3-5 1.1C1.6 2.3.6 4 .7 5.9.7 8 2 9.5 4.5 10.6l6.5 2c2.1.8 3.2 1.9 3.2 3.4 0 1.4-.7 2.6-1.8 3.4-1.1.9-2.5 1.3-3.9 1.3-1.5.1-3-.5-4.2-1.3-1.3-1-2.4-2.3-3.3-3.6l-.8.3L1.5 22l.2.7.6-.5c.3-.2.7-.4 1.1-.3 1 .2 1.8.3 2.6.4.9.1 1.8.2 2.7.2 2.3.1 4.5-.7 6.4-2 1.9-1.3 2.9-3.4 2.9-5.6-.2-2.5-1.4-4.5-4-5.8zm20.3 12.1c-.1-.2-.2-.4-.2-.6V13c0-1.7-.3-2.9-.9-3.7-.5-.8-1.6-1.3-3-1.3-1.3 0-2.5.4-3.6 1-.7.4-1.3.7-1.8 1.2V2.6l-.6.2-3.8.9.1.9c.2.1.4.2.5.4s.1.4.1.6v15.1c0 .2-.1.5-.2.6-.1.2-.2.3-.4.4l.2.9H25l.3-.9c-.2-.1-.3-.2-.4-.3-.1-.1-.1-.2-.2-.3v-6.6c.1-1 .5-2 1.2-2.7.7-.8 1.6-1.2 2.7-1.3.5 0 1 .2 1.3.6.4.4.6.9.6 1.4v8.2c0 .2-.1.4-.2.6-.1.2-.3.3-.4.4l.3.9h4.4l.2-.9c-.2-.2-.4-.3-.5-.5zm17.3.4c-.4-.2-.6-.5-.7-.9-.1-.2-.1-.4-.1-.6v-8.5c.1-1.4-.7-2.7-2-3.3-1.2-.5-2.5-.8-3.7-.7-.9 0-1.7.1-2.6.3-.7.1-1.4.3-2.1.6l-.2.1c-.1 0-.3-.1-.3-.2l-.1-.1-.7-1-.2 1.2-.7 4.5.9.3c.4-1.1 1.1-2 2.1-2.6 1-.6 2-.9 3.1-.9.6 0 1.3.2 1.8.4.4.2.7.7.7 1.2v1.2c-2.3.2-4.5.8-6.5 1.9-2 1.1-3.1 2.5-3.1 4.2 0 1.2.6 2.4 1.7 3 1 .7 2.2 1 3.3 1 1.1 0 2.1-.3 3.1-.8.7-.4 1.3-.7 1.9-1.1.1.2.2.3.2.5.3.8.8 1 1.1 1h4.4l-1.3-.7zm-4.7-6.8v2.1c0 1-.5 1.9-1.2 2.5-.7.7-1.6 1.1-2.6 1.1-.5 0-1-.2-1.4-.6-.4-.3-.6-.8-.6-1.2 0-1.2.7-2.1 2.1-2.9 1.2-.6 2.4-.9 3.7-1zM62.5 8c-.4 0-.8.1-1.2.2-.6.2-1.1.3-1.6.6s-1 .7-1.4 1.1l-.6.6-.3-.9c-.1-.3-.3-.6-.4-.9.1-.2 0-.4 0-.5l-.2-.3-.3.1-3.1.7-1 .2.8.6c.5.4.9.9 1.2 1.5.2.3.2.7.3 1 .1.3.1.7.1 1v8c0 .2-.1.4-.1.6-.1.2-.2.3-.4.4l.2.9h5.6l-1.4-.9c-.2-.1-.3-.2-.4-.4-.1-.2-.1-.4-.1-.6v-7.2c0-.5.2-1 .5-1.4.3-.4.7-.8 1.1-1.1.4-.3.7-.4 1.2-.4.3 0 .6.1.9.2.2.1.4.2.5.4l.6 1.1.2-1.2.5-2.7-.2-.7h-1zm15.6 12.7c-.1-.2-.1-.4-.1-.6v-8.5c.1-1.4-.7-2.7-2-3.3-1.2-.5-2.5-.8-3.7-.7-.9 0-1.7.1-2.6.3-.7.1-1.4.3-2.1.6h-.1c-.1 0-.3-.1-.3-.2l-.1-.1-.7-.8-.2 1-.7 4.5.9.3c.4-1.1 1.1-2 2.1-2.6 1-.6 2-.9 3.1-.9.6 0 1.3.2 1.8.4.4.2.7.7.7 1.2v1.2c-2.3.2-4.5.8-6.5 1.9-2.1 1.1-3.1 2.5-3.1 4.2 0 1.2.6 2.4 1.7 3 1 .7 2.1 1 3.3 1 1.1 0 2.1-.3 3.1-.8.7-.4 1.3-.7 1.9-1.1.1.2.2.3.3.5.3.7.6 1 1.1 1h4.4l-1.3-.8c-.5 0-.8-.3-.9-.7zm-4-3.8c0 1-.5 1.9-1.2 2.5-.7.7-1.6 1.1-2.6 1.1-.5 0-1-.2-1.4-.6-.4-.3-.6-.8-.6-1.2 0-1.1.7-2.1 2.1-2.9 1.1-.6 2.3-1 3.6-1.1l.1 2.2zM90.8 2.7c-.5-.3-1-.5-1.5-.6-.6-.1-1.1-.1-1.7-.1-1.8 0-3.2.5-4.2 1.5-1.1 1.1-1.6 2.7-1.6 4.8 0 0-.1.2-.5.5-.2.2-.5.4-.7.5l.2.9h1v10.5c0 .3-.1.5-.2.8-.1.2-.3.3-.5.4l.2.9H86l.2-.9c-.2-.1-.4-.3-.5-.4-.1-.2-.2-.5-.2-.7V10.1H88l.1-.3.6-1.2.4-.6h-3.5V6.4c0-.7.2-1.4.6-2 .3-.5.8-.7 1.4-.7.4 0 .9.1 1.2.4.4.4.6.8.7 1.3l.4 1.3.5-1.3.6-2.2.2-.4-.4-.1zM96.2.3h9.8v5.4h-9.8zM160 10h9.8v5.5H160z" class="st0"/>
  <path d="M131.6 11.1C131.6.8 116.1.3 116.1.3h-8.3v5.4h7.6c7 0 6.6 5.9 6.6 5.9-.2 5.3-7.1 5.4-7.1 5.4H106V7.4h-9.8v14.9h17.4c3 0 6.4-.3 6.4-.3 12.1-2.2 11.6-10.9 11.6-10.9zM169.8.3v5.4h-17.6s-8.1-.4-8.1 5.6c0 0-.4 5.7 7.9 5.7h17.8v5.2h-18.7s-16.9.1-16.9-11.3c0 0-.3-9.8 14.7-10.6h20.9z" class="st0"/>
</svg>