<?xml version="1.0" encoding="UTF-8"?>
<svg width="12px" height="12px" viewBox="0 0 12 12" version="1.1" xmlns="http://www.w3.org/2000/svg" xmlns:xlink="http://www.w3.org/1999/xlink">
    <!-- Generator: Sketch 52.6 (67491) - http://www.bohemiancoding.com/sketch -->
    <title>offnet-icon</title>
    <desc>Created with Sketch.</desc>
    <g id="Page-1" stroke="none" stroke-width="1" fill="none" fill-rule="evenodd">
        <g id="offnet-icon" transform="translate(1.000000, 1.000000)" fill="#999999" stroke="#999999">
            <path d="M9.44052457,0 L5.33639102,0 C5.02955477,0 4.77995223,0.24963434 4.77995223,0.556438792 C4.77995223,0.863243243 5.02955477,1.11287758 5.33639102,1.11287758 L8.09718593,1.11287758 L3.99302059,5.01306831 C3.88786956,5.11815576 3.82999992,5.25786959 3.82999992,5.40655003 C3.82999992,5.55523048 3.88783776,5.69491251 3.992957,5.79990456 C4.09807624,5.90511919 4.23775827,5.96302062 4.38643872,5.96302062 C4.53505557,5.96302062 4.6748012,5.90515099 4.77995223,5.79999995 L8.88408577,1.89977742 L8.88408577,4.66057234 C8.88408577,4.96737679 9.13372011,5.21701113 9.44052457,5.21701113 C9.74732902,5.21701113 9.99696336,4.96737679 9.99696336,4.66057234 L9.99696336,0.556438792 C9.99696336,0.24963434 9.74732902,0 9.44052457,0 Z" id="Shape" stroke-width="0.1"></path>
            <path d="M6.96165478,8.96165478 L1.03834522,8.96165478 L1.03834522,3.03834522 L4.49322696,3.03834522 L5.53157218,2 L0.519172612,2 C0.232450884,2 0,2.23245088 0,2.51917261 L0,9.48082739 C0,9.76754912 0.232450884,10 0.519172612,10 L7.48082739,10 C7.76754912,10 8,9.76754912 8,9.48082739 L8,4.46842782 L6.96165478,5.50677304 L6.96165478,8.96165478 Z" id="Shape" stroke-width="0.3"></path>
        </g>
    </g>
</svg>