<svg width="61" height="60" viewBox="0 0 61 60" fill="none" xmlns="http://www.w3.org/2000/svg">
<path fill-rule="evenodd" clip-rule="evenodd" d="M22.2844 37.7171C21.2174 37.9031 20.1204 38.0001 19.0014 38.0001C8.51437 38.0001 0.00134277 29.4861 0.00134277 19.0001C0.00134277 8.51403 8.51437 0 19.0014 0C29.4875 0 38.0015 8.51403 38.0015 19.0001C38.0015 20.1201 37.9035 21.2171 37.7175 22.2831C38.7835 22.0971 39.8815 22.0001 41.0015 22.0001C51.4875 22.0001 60.0016 30.5141 60.0016 41.0002C60.0016 51.4862 51.4875 60.0002 41.0015 60.0002C30.5145 60.0002 22.0014 51.4862 22.0014 41.0002C22.0014 39.8801 22.0984 38.7831 22.2844 37.7171ZM41.0015 24.0001C50.3835 24.0001 58.0016 31.6171 58.0016 41.0002C58.0016 50.3832 50.3835 58.0002 41.0015 58.0002C31.6185 58.0002 24.0014 50.3832 24.0014 41.0002C24.0014 31.6171 31.6185 24.0001 41.0015 24.0001ZM36.0015 34.0001H33.0015C32.4495 34.0001 32.0015 33.5521 32.0015 33.0001C32.0015 32.4481 32.4495 32.0001 33.0015 32.0001H36.0015V29.0001C36.0015 28.4481 36.4495 28.0001 37.0015 28.0001C37.5525 28.0001 38.0015 28.4481 38.0015 29.0001V32.0001H40.0015V29.0001C40.0015 28.4481 40.4495 28.0001 41.0015 28.0001C41.5525 28.0001 42.0015 28.4481 42.0015 29.0001V32.0001H43.0035C45.7635 32.0001 48.0015 34.2381 48.0015 36.9981V37.0021C48.0015 38.2721 47.5275 39.4311 46.7475 40.3131C48.6475 41.0212 50.0015 42.8512 50.0015 44.9982V45.0002C50.0015 46.3262 49.4745 47.5982 48.5365 48.5362C47.5985 49.4732 46.3275 50.0002 45.0015 50.0002H42.0015V53.0002C42.0015 53.5522 41.5525 54.0002 41.0015 54.0002C40.4495 54.0002 40.0015 53.5522 40.0015 53.0002V50.0002H38.0015V53.0002C38.0015 53.5522 37.5525 54.0002 37.0015 54.0002C36.4495 54.0002 36.0015 53.5522 36.0015 53.0002V50.0002H33.0015C32.4495 50.0002 32.0015 49.5522 32.0015 49.0002C32.0015 48.4482 32.4495 48.0002 33.0015 48.0002H36.0015V34.0001ZM38.0015 48.0002V42.0002H45.0035C46.6585 42.0002 48.0015 43.3422 48.0015 44.9982V45.0002C48.0015 45.7962 47.6845 46.5592 47.1225 47.1212C46.5595 47.6842 45.7965 48.0002 45.0015 48.0002H38.0015ZM43.0035 40.0001H38.0015V34.0001H43.0035C44.6585 34.0001 46.0015 35.3421 46.0015 36.9981V37.0021C46.0015 38.6581 44.6585 40.0001 43.0035 40.0001ZM35.5765 22.7871C35.8545 21.5691 36.0015 20.3011 36.0015 19.0001C36.0015 9.61703 28.3834 2.00001 19.0014 2.00001C9.61838 2.00001 2.00135 9.61703 2.00135 19.0001C2.00135 28.3831 9.61838 36.0001 19.0014 36.0001C20.3024 36.0001 21.5704 35.8531 22.7874 35.5761C24.6124 29.4481 29.4484 24.6121 35.5765 22.7871ZM18.0014 10H17.1294L16.4734 10.027L15.6624 10.181L14.9424 10.442L14.2294 10.837L13.6194 11.316L13.0884 11.885L12.6334 12.563L12.3254 13.222L12.1294 13.8691L12.0204 14.5501L12.0014 15.0021C12.0014 17.7621 14.2384 20.0001 16.9994 20.0001H21.0014C21.7964 20.0001 22.5594 20.3161 23.1224 20.8791C23.6844 21.4411 24.0014 22.2041 24.0014 23.0001V23.0021C24.0014 24.6451 22.6794 25.9791 21.0414 26.0001H17.0014C16.2054 26.0001 15.4424 25.6841 14.8794 25.1211C14.3174 24.5591 14.0014 23.7961 14.0014 23.0001V23.0021L13.9984 22.9371C13.9844 22.6371 13.8624 22.4321 13.7084 22.2931C13.5274 22.1121 13.2774 22.0001 13.0014 22.0001C13.0014 22.0001 12.0214 22.0611 12.0014 22.9741V23.0021C12.0014 25.7621 14.2384 28.0001 16.9994 28.0001H18.0014V31.0001C18.0014 31.5521 18.4494 32.0001 19.0014 32.0001C19.5524 32.0001 20.0014 31.5521 20.0014 31.0001V27.9991H21.0834L21.7834 27.9391L22.5474 27.7571L23.2784 27.4531L23.9684 27.0261L24.5544 26.5181L25.0594 25.9231L25.4814 25.2231L25.7574 24.5471L25.9224 23.8871L25.9994 23.1311L26.0014 22.9981C26.0014 20.2381 23.7634 18.0001 21.0034 18.0001H17.0014C16.2054 18.0001 15.4424 17.6841 14.8794 17.1211C14.3174 16.5591 14.0014 15.7961 14.0014 15.0001V14.9981C14.0014 13.355 15.3224 12.021 16.9604 12H21.0014C21.7964 12 22.5594 12.316 23.1224 12.879C23.6844 13.441 24.0014 14.2041 24.0014 15.0001V14.9981L24.0034 15.0631C24.0184 15.3631 24.1394 15.5681 24.2934 15.7071C24.4744 15.8881 24.7244 16.0001 25.0014 16.0001C25.0014 16.0001 25.9804 15.9391 26.0004 15.0261L26.0014 14.9981C26.0014 12.238 23.7634 10 21.0034 10H20.0014V7.00003C20.0014 6.44802 19.5524 6.00002 19.0014 6.00002C18.4494 6.00002 18.0014 6.44802 18.0014 7.00003V10Z" fill="url(#paint0_linear_274_49)"/>
<defs>
<linearGradient id="paint0_linear_274_49" x1="18.0014" y1="23.0001" x2="47.0015" y2="41.0002" gradientUnits="userSpaceOnUse">
<stop stop-color="#0099FA"/>
<stop offset="1" stop-color="#0053FA"/>
</linearGradient>
</defs>
</svg>
