<svg width="60" height="60" viewBox="0 0 60 60" fill="none" xmlns="http://www.w3.org/2000/svg">
<path fill-rule="evenodd" clip-rule="evenodd" d="M60.0003 9.36802C60.0003 7.94401 59.4343 6.57901 58.4283 5.57201C57.4213 4.566 56.0563 4 54.6323 4C43.8632 4 16.1361 4 5.36808 4C3.94408 4 2.57907 4.566 1.57207 5.57201C0.565064 6.57901 6.10352e-05 7.94401 6.10352e-05 9.36802C6.10352e-05 19.1711 6.10352e-05 42.8291 6.10352e-05 52.6322C6.10352e-05 54.0562 0.565064 55.4212 1.57207 56.4282C2.57907 57.4342 3.94408 58.0002 5.36808 58.0002C16.1361 58.0002 43.8632 58.0002 54.6323 58.0002C56.0563 58.0002 57.4213 57.4342 58.4283 56.4282C59.4343 55.4212 60.0003 54.0562 60.0003 52.6322V9.36802ZM58.0003 16V52.6322C58.0003 53.5252 57.6453 54.3822 57.0133 55.0142C56.3823 55.6452 55.5253 56.0002 54.6323 56.0002C43.8632 56.0002 16.1361 56.0002 5.36808 56.0002C4.47408 56.0002 3.61807 55.6452 2.98607 55.0142C2.35507 54.3822 2.00007 53.5252 2.00007 52.6322V16H58.0003ZM54.0003 49.0002C54.0003 48.2042 53.6842 47.4412 53.1213 46.8792C52.5592 46.3162 51.7962 46.0002 51.0002 46.0002C49.2572 46.0002 46.7432 46.0002 45.0002 46.0002C44.2042 46.0002 43.4412 46.3162 42.8792 46.8792C42.3162 47.4412 42.0002 48.2042 42.0002 49.0002L43.0002 50.0002C42.4482 50.0002 42.0002 49.5522 42.0002 49.0002C42.0002 49.7962 42.3162 50.5592 42.8792 51.1212C43.4412 51.6842 44.2042 52.0002 45.0002 52.0002C46.7432 52.0002 49.2572 52.0002 51.0002 52.0002C51.7962 52.0002 52.5592 51.6842 53.1213 51.1212C53.6842 50.5592 54.0003 49.7962 54.0003 49.0002ZM52.0002 49.0002C52.0002 49.2652 51.8952 49.5202 51.7072 49.7072C51.5192 49.8952 51.2652 50.0002 51.0002 50.0002H45.0002C44.7352 50.0002 44.4802 49.8952 44.2932 49.7072C44.1052 49.5202 44.0002 49.2652 44.0002 49.0002C44.0002 49.5522 43.5522 50.0002 43.0002 50.0002L44.0002 49.0002C44.0002 48.7352 44.1052 48.4802 44.2932 48.2932C44.4802 48.1052 44.7352 48.0002 45.0002 48.0002H51.0002C51.2652 48.0002 51.5192 48.1052 51.7072 48.2932C51.8952 48.4802 52.0002 48.7352 52.0002 49.0002ZM34.0002 48.0002H22.0001V47.0002C22.0001 46.4482 21.5521 46.0002 21.0001 46.0002C20.4481 46.0002 20.0001 46.4482 20.0001 47.0002V48.0002H8.00009V47.0002C8.00009 46.4482 7.55209 46.0002 7.00009 46.0002C6.44808 46.0002 6.00008 46.4482 6.00008 47.0002V49.0002V49.0062C6.00308 49.5552 6.45008 50.0002 7.00009 50.0002H35.0002C35.0232 50.0002 35.0472 49.9992 35.0702 49.9982L35.1032 49.9952L35.1092 49.9942C35.3752 49.9652 35.6102 49.8322 35.7712 49.6362L35.7912 49.6122L35.8092 49.5872L35.8272 49.5622L35.8472 49.5322L35.8642 49.5032L35.8822 49.4712L35.8962 49.4442L35.9092 49.4172L35.9212 49.3892L35.9332 49.3612L35.9412 49.3382L35.9492 49.3152L35.9572 49.2912L35.9642 49.2682L35.9702 49.2442L35.9762 49.2202L35.9812 49.1952L35.9852 49.1712L35.9892 49.1462L35.9932 49.1212L35.9952 49.0962L35.9982 49.0642L35.9992 49.0322L36.0002 49.0002V47.0002C36.0002 46.4482 35.5522 46.0002 35.0002 46.0002C34.4482 46.0002 34.0002 46.4482 34.0002 47.0002V48.0002ZM54.0003 41.0001C54.0003 40.2041 53.6842 39.4411 53.1213 38.8791C52.5592 38.3161 51.7962 38.0001 51.0002 38.0001C49.2562 38.0001 46.7412 38.0001 44.9982 38.0001C43.3422 38.0001 42.0002 39.3421 42.0002 40.9981V41.0021C42.0002 42.6581 43.3422 44.0001 44.9982 44.0001C46.7412 44.0001 49.2562 44.0001 51.0002 44.0001C51.7962 44.0001 52.5592 43.6841 53.1213 43.1211C53.6842 42.5591 54.0003 41.7961 54.0003 41.0001ZM52.0002 41.0001C52.0002 41.2651 51.8952 41.5201 51.7072 41.7071C51.5192 41.8951 51.2652 42.0001 51.0002 42.0001H44.9982C44.4472 42.0001 44.0002 41.5531 44.0002 41.0021V40.9981C44.0002 40.4471 44.4472 40.0001 44.9982 40.0001C46.7412 40.0001 49.2562 40.0001 51.0002 40.0001C51.2652 40.0001 51.5192 40.1051 51.7072 40.2931C51.8952 40.4801 52.0002 40.7351 52.0002 41.0001ZM7.78109 39.6251L15.1561 30.4061L24.3751 37.7811C24.8001 38.1211 25.4202 38.0581 25.7682 37.6401L35.7682 25.6401C36.1212 25.2161 36.0642 24.5851 35.6402 24.2321C35.2162 23.8781 34.5852 23.9361 34.2322 24.3601L24.8592 35.6071L15.6251 28.2191C15.1931 27.8741 14.5641 27.9441 14.2191 28.3751L6.21908 38.3751C5.87408 38.8061 5.94408 39.4361 6.37508 39.7811C6.80609 40.1261 7.43609 40.0561 7.78109 39.6251ZM43.0002 34.0001H53.0002C53.5522 34.0001 54.0003 33.5521 54.0003 33.0001C54.0003 32.4481 53.5522 32.0001 53.0002 32.0001H43.0002C42.4482 32.0001 42.0002 32.4481 42.0002 33.0001C42.0002 33.5521 42.4482 34.0001 43.0002 34.0001ZM47.0002 20.0001C44.2402 20.0001 42.0002 22.2401 42.0002 25.0001C42.0002 27.7601 44.2402 30.0001 47.0002 30.0001C49.7592 30.0001 52.0002 27.7601 52.0002 25.0001C52.0002 22.2401 49.7592 20.0001 47.0002 20.0001ZM47.0002 22.0001C48.6562 22.0001 50.0002 23.3441 50.0002 25.0001C50.0002 26.6561 48.6562 28.0001 47.0002 28.0001C45.3442 28.0001 44.0002 26.6561 44.0002 25.0001C44.0002 23.3441 45.3442 22.0001 47.0002 22.0001ZM58.0003 14H2.00007V9.36802C2.00007 8.47502 2.35507 7.61801 2.98607 6.98601C3.61807 6.35501 4.47408 6.00001 5.36808 6.00001C16.1361 6.00001 43.8632 6.00001 54.6323 6.00001C55.5253 6.00001 56.3823 6.35501 57.0133 6.98601C57.6453 7.61801 58.0003 8.47502 58.0003 9.36802V14ZM18.0001 8.00001C16.8961 8.00001 16.0001 8.89602 16.0001 10C16.0001 11.104 16.8961 12 18.0001 12C19.1041 12 20.0001 11.104 20.0001 10C20.0001 8.89602 19.1041 8.00001 18.0001 8.00001ZM12.0001 8.00001C10.8961 8.00001 10.0001 8.89602 10.0001 10C10.0001 11.104 10.8961 12 12.0001 12C13.1041 12 14.0001 11.104 14.0001 10C14.0001 8.89602 13.1041 8.00001 12.0001 8.00001ZM6.00008 8.00001C4.89608 8.00001 4.00008 8.89602 4.00008 10C4.00008 11.104 4.89608 12 6.00008 12C7.10409 12 8.00009 11.104 8.00009 10C8.00009 8.89602 7.10409 8.00001 6.00008 8.00001Z" fill="url(#paint0_linear_275_62)"/>
<defs>
<linearGradient id="paint0_linear_275_62" x1="14" y1="27.0001" x2="48.0001" y2="47.0002" gradientUnits="userSpaceOnUse">
<stop stop-color="#0099FA"/>
<stop offset="1" stop-color="#0053FA"/>
</linearGradient>
</defs>
</svg>
