<svg width="60" height="60" viewBox="0 0 60 60" fill="none" xmlns="http://www.w3.org/2000/svg">
<path fill-rule="evenodd" clip-rule="evenodd" d="M22.8775 10L40.8126 5.51601C42.1086 5.19201 43.4816 5.40901 44.6136 6.11802C45.7466 6.82702 46.5416 7.96602 46.8166 9.27303L46.9696 10C46.9806 10 46.9906 10 47.0006 10C47.0006 10 47.8926 10 48.9876 10C50.3176 10 51.5926 10.528 52.5326 11.468C53.4726 12.408 54.0006 13.683 54.0006 15.013V28.0001H54.9826C55.7836 28.0001 56.5507 28.3181 57.1167 28.8841C57.6827 29.4501 58.0007 30.2171 58.0007 31.0181V38.9821C58.0007 39.7831 57.6827 40.5501 57.1167 41.1161C56.5507 41.6822 55.7836 42.0001 54.9826 42.0001H54.0006V49.3082C54.0006 50.5532 53.5066 51.7462 52.6266 52.6262C51.7466 53.5062 50.5536 54.0002 49.3086 54.0002C40.0546 54.0002 15.9465 54.0002 6.69247 54.0002C5.44746 54.0002 4.25446 53.5062 3.37446 52.6262C2.49445 51.7462 2.00045 50.5532 2.00045 49.3082V15C2.00745 12.237 4.24846 10 7.01347 10H22.8775ZM52.0006 28.0001V22.6921C52.0006 21.9781 51.7166 21.2931 51.2126 20.7881C50.7076 20.2841 50.0226 20.0001 49.3086 20.0001H7.00047C5.83846 20.0001 4.81446 19.6781 4.00046 19.1071V49.3082C4.00046 50.0222 4.28446 50.7072 4.78846 51.2122C5.29346 51.7162 5.97846 52.0002 6.69247 52.0002H49.3086C50.0226 52.0002 50.7076 51.7162 51.2126 51.2122C51.7166 50.7072 52.0006 50.0222 52.0006 49.3082V42.0001H44.6836C42.0976 42.0001 40.0006 39.9031 40.0006 37.3171C40.0006 35.8461 40.0006 34.1541 40.0006 32.6831C40.0006 30.0971 42.0976 28.0001 44.6836 28.0001H52.0006ZM56.0006 31.0181V38.9821C56.0006 39.2521 55.8937 39.5111 55.7026 39.7021C55.5116 39.8931 55.2526 40.0001 54.9826 40.0001H44.6836C43.2016 40.0001 42.0006 38.7991 42.0006 37.3171C42.0006 35.8461 42.0006 34.1541 42.0006 32.6831C42.0006 31.2011 43.2016 30.0001 44.6836 30.0001H54.9826C55.2526 30.0001 55.5116 30.1071 55.7026 30.2981C55.8937 30.4891 56.0006 30.7481 56.0006 31.0181ZM47.0006 33.0001C45.8966 33.0001 45.0006 33.8961 45.0006 35.0001C45.0006 36.1041 45.8966 37.0001 47.0006 37.0001C48.1046 37.0001 49.0006 36.1041 49.0006 35.0001C49.0006 33.8961 48.1046 33.0001 47.0006 33.0001ZM14.8775 12H7.01347C5.35246 12 4.00646 13.343 4.00046 15.002L4.00146 15.0821C4.03946 16.8021 5.26446 18.0001 7.00047 18.0001H49.3086C50.2786 18.0001 51.2166 18.3001 52.0006 18.8491V15.012C52.0006 14.214 51.6836 13.447 51.1186 12.882C50.5536 12.317 49.7866 12 48.9876 12H47.3906L47.9796 14.794C48.0416 15.0891 47.9666 15.3961 47.7776 15.6301C47.5876 15.8641 47.3016 16.0001 47.0006 16.0001H7.00047C6.49547 16.0001 6.06947 15.6231 6.00746 15.1221C5.94646 14.621 6.26847 14.152 6.75747 14.03L14.8775 12ZM23.2255 11.975C23.2375 11.972 23.2495 11.969 23.2615 11.965L41.2976 7.45602C42.0666 7.26402 42.8806 7.39302 43.5526 7.81402C44.2246 8.23403 44.6966 8.91003 44.8596 9.68503L45.7686 14H15.1235L23.2255 11.975Z" fill="url(#paint0_linear_259_3)"/>
<defs>
<linearGradient id="paint0_linear_259_3" x1="18.0005" y1="27.0001" x2="48.0006" y2="47.0002" gradientUnits="userSpaceOnUse">
<stop stop-color="#0099FA"/>
<stop offset="1" stop-color="#0053FA"/>
</linearGradient>
</defs>
</svg>
