<?xml version="1.0" encoding="UTF-8"?>
<svg xmlns="http://www.w3.org/2000/svg" xmlns:xlink="http://www.w3.org/1999/xlink" width="111pt" height="25pt" viewBox="0 0 111 25" version="1.1">
<g id="surface1">
<path style=" stroke:none;fill-rule:nonzero;fill:rgb(100%,100%,100%);fill-opacity:1;" d="M 29.636719 9.054688 C 28.855469 9.054688 28.214844 9.230469 27.707031 9.585938 C 27.207031 9.941406 26.882812 10.453125 26.738281 11.128906 L 30.59375 11.128906 L 30.59375 12.457031 L 26.59375 12.457031 L 26.574219 12.722656 L 26.574219 13.074219 L 26.59375 13.324219 L 29.992188 13.324219 L 29.992188 14.667969 L 26.753906 14.667969 C 27.078125 15.894531 28.101562 16.503906 29.828125 16.503906 C 30.742188 16.503906 31.617188 16.359375 32.457031 16.074219 L 32.457031 18.007812 C 31.71875 18.300781 30.785156 18.453125 29.65625 18.453125 C 28.089844 18.453125 26.804688 18.117188 25.796875 17.449219 C 24.785156 16.777344 24.152344 15.851562 23.890625 14.667969 L 22.582031 14.667969 L 22.582031 13.324219 L 23.710938 13.324219 C 23.683594 13.210938 23.667969 13.054688 23.667969 12.859375 L 23.691406 12.457031 L 22.582031 12.457031 L 22.582031 11.128906 L 23.855469 11.128906 C 24.089844 9.910156 24.722656 8.953125 25.753906 8.246094 C 26.789062 7.539062 28.082031 7.183594 29.636719 7.183594 C 30.835938 7.183594 31.960938 7.390625 33.007812 7.800781 L 32.066406 9.554688 C 31.625 9.398438 31.210938 9.277344 30.828125 9.191406 C 30.445312 9.101562 30.050781 9.054688 29.636719 9.054688 Z M 29.636719 9.054688 "/>
<path style=" stroke:none;fill-rule:nonzero;fill:rgb(100%,100%,100%);fill-opacity:1;" d="M 41.234375 18.300781 L 38.277344 18.300781 L 38.277344 11.914062 L 38.304688 10.867188 L 38.351562 9.714844 C 37.859375 10.105469 37.519531 10.359375 37.328125 10.480469 L 35.722656 11.5 L 34.292969 10.097656 L 38.808594 7.265625 L 41.234375 7.265625 Z M 41.234375 18.300781 "/>
<path style=" stroke:none;fill-rule:nonzero;fill:rgb(100%,100%,100%);fill-opacity:1;" d="M 49.933594 7.125 C 51.269531 7.125 52.351562 7.363281 53.171875 7.84375 C 53.996094 8.320312 54.40625 8.96875 54.40625 9.785156 C 54.40625 10.351562 54.207031 10.855469 53.808594 11.296875 C 53.410156 11.734375 52.773438 12.125 51.894531 12.472656 C 52.941406 12.914062 53.695312 13.375 54.152344 13.855469 C 54.605469 14.335938 54.832031 14.863281 54.832031 15.441406 C 54.832031 16.34375 54.382812 17.074219 53.484375 17.625 C 52.582031 18.175781 51.398438 18.453125 49.933594 18.453125 C 48.398438 18.453125 47.195312 18.195312 46.320312 17.679688 C 45.445312 17.167969 45.011719 16.441406 45.011719 15.5 C 45.011719 14.871094 45.222656 14.3125 45.644531 13.824219 C 46.070312 13.335938 46.753906 12.90625 47.695312 12.53125 C 46.898438 12.136719 46.320312 11.710938 45.96875 11.257812 C 45.617188 10.804688 45.445312 10.3125 45.445312 9.769531 C 45.445312 8.984375 45.859375 8.34375 46.683594 7.855469 C 47.511719 7.367188 48.597656 7.125 49.933594 7.125 Z M 47.75 15.363281 C 47.75 15.796875 47.941406 16.132812 48.320312 16.375 C 48.707031 16.617188 49.230469 16.738281 49.898438 16.738281 C 50.628906 16.738281 51.179688 16.613281 51.542969 16.363281 C 51.902344 16.113281 52.085938 15.785156 52.085938 15.378906 C 52.085938 15.042969 51.902344 14.722656 51.542969 14.429688 C 51.183594 14.136719 50.601562 13.828125 49.789062 13.492188 C 48.429688 13.984375 47.75 14.609375 47.75 15.363281 Z M 49.910156 8.828125 C 49.410156 8.828125 49.003906 8.929688 48.691406 9.136719 C 48.386719 9.339844 48.230469 9.609375 48.230469 9.949219 C 48.230469 10.253906 48.351562 10.523438 48.597656 10.761719 C 48.84375 11.003906 49.289062 11.25 49.933594 11.5 C 50.558594 11.269531 51 11.035156 51.246094 10.789062 C 51.496094 10.550781 51.617188 10.269531 51.617188 9.949219 C 51.617188 9.601562 51.457031 9.328125 51.136719 9.128906 C 50.820312 8.929688 50.410156 8.828125 49.910156 8.828125 Z M 49.910156 8.828125 "/>
<path style=" stroke:none;fill-rule:nonzero;fill:rgb(100%,100%,100%);fill-opacity:1;" d="M 66.007812 12.78125 C 66.007812 14.710938 65.601562 16.136719 64.800781 17.0625 C 64 17.988281 62.765625 18.453125 61.097656 18.453125 C 59.484375 18.453125 58.265625 17.972656 57.445312 17.019531 C 56.628906 16.0625 56.21875 14.648438 56.21875 12.78125 C 56.21875 10.835938 56.617188 9.402344 57.417969 8.480469 C 58.214844 7.554688 59.441406 7.089844 61.097656 7.089844 C 62.710938 7.089844 63.933594 7.574219 64.761719 8.539062 C 65.589844 9.503906 66.007812 10.917969 66.007812 12.78125 Z M 59.15625 12.78125 C 59.15625 14.136719 59.304688 15.105469 59.597656 15.691406 C 59.894531 16.277344 60.398438 16.570312 61.097656 16.570312 C 61.789062 16.570312 62.289062 16.273438 62.59375 15.679688 C 62.898438 15.085938 63.054688 14.121094 63.054688 12.78125 C 63.054688 11.429688 62.898438 10.457031 62.585938 9.867188 C 62.277344 9.277344 61.78125 8.980469 61.097656 8.980469 C 60.40625 8.980469 59.90625 9.277344 59.605469 9.867188 C 59.304688 10.457031 59.15625 11.429688 59.15625 12.78125 Z M 59.15625 12.78125 "/>
<path style=" stroke:none;fill-rule:nonzero;fill:rgb(100%,100%,100%);fill-opacity:1;" d="M 77.195312 12.78125 C 77.195312 14.710938 76.789062 16.136719 75.988281 17.0625 C 75.183594 17.988281 73.953125 18.453125 72.285156 18.453125 C 70.671875 18.453125 69.453125 17.972656 68.632812 17.019531 C 67.8125 16.0625 67.40625 14.648438 67.40625 12.78125 C 67.40625 10.835938 67.804688 9.402344 68.605469 8.480469 C 69.402344 7.554688 70.628906 7.089844 72.285156 7.089844 C 73.898438 7.089844 75.121094 7.574219 75.949219 8.539062 C 76.777344 9.503906 77.195312 10.917969 77.195312 12.78125 Z M 70.34375 12.78125 C 70.34375 14.136719 70.492188 15.105469 70.785156 15.691406 C 71.082031 16.277344 71.585938 16.570312 72.285156 16.570312 C 72.976562 16.570312 73.476562 16.273438 73.78125 15.679688 C 74.085938 15.085938 74.242188 14.121094 74.242188 12.78125 C 74.242188 11.429688 74.085938 10.457031 73.773438 9.867188 C 73.464844 9.277344 72.96875 8.980469 72.285156 8.980469 C 71.59375 8.980469 71.09375 9.277344 70.792969 9.867188 C 70.492188 10.457031 70.34375 11.429688 70.34375 12.78125 Z M 70.34375 12.78125 "/>
<path style=" stroke:none;fill-rule:nonzero;fill:rgb(100%,100%,100%);fill-opacity:1;" d="M 88.378906 12.78125 C 88.378906 14.710938 87.976562 16.136719 87.175781 17.0625 C 86.371094 17.988281 85.140625 18.453125 83.472656 18.453125 C 81.859375 18.453125 80.640625 17.972656 79.820312 17.019531 C 79 16.0625 78.59375 14.648438 78.59375 12.78125 C 78.59375 10.835938 78.992188 9.402344 79.792969 8.480469 C 80.589844 7.554688 81.816406 7.089844 83.472656 7.089844 C 85.085938 7.089844 86.308594 7.574219 87.136719 8.539062 C 87.964844 9.503906 88.378906 10.917969 88.378906 12.78125 Z M 81.53125 12.78125 C 81.53125 14.136719 81.679688 15.105469 81.972656 15.691406 C 82.269531 16.277344 82.773438 16.570312 83.472656 16.570312 C 84.164062 16.570312 84.664062 16.273438 84.96875 15.679688 C 85.273438 15.085938 85.429688 14.121094 85.429688 12.78125 C 85.429688 11.429688 85.273438 10.457031 84.960938 9.867188 C 84.652344 9.277344 84.15625 8.980469 83.472656 8.980469 C 82.78125 8.980469 82.28125 9.277344 81.980469 9.867188 C 81.679688 10.457031 81.53125 11.429688 81.53125 12.78125 Z M 81.53125 12.78125 "/>
</g>
</svg>
