<?xml version="1.0" encoding="UTF-8"?>
<svg xmlns="http://www.w3.org/2000/svg" xmlns:xlink="http://www.w3.org/1999/xlink" width="111pt" height="25pt" viewBox="0 0 111 25" version="1.1">
<g id="surface1">
<path style=" stroke:none;fill-rule:nonzero;fill:rgb(100%,100%,100%);fill-opacity:1;" d="M 38.257812 9.054688 C 37.476562 9.054688 36.835938 9.230469 36.332031 9.585938 C 35.828125 9.941406 35.507812 10.453125 35.359375 11.128906 L 39.214844 11.128906 L 39.214844 12.457031 L 35.214844 12.457031 L 35.195312 12.722656 L 35.195312 13.074219 L 35.214844 13.324219 L 38.617188 13.324219 L 38.617188 14.667969 L 35.375 14.667969 C 35.699219 15.894531 36.722656 16.503906 38.449219 16.503906 C 39.363281 16.503906 40.238281 16.359375 41.078125 16.074219 L 41.078125 18.007812 C 40.339844 18.300781 39.40625 18.453125 38.277344 18.453125 C 36.710938 18.453125 35.425781 18.117188 34.417969 17.449219 C 33.40625 16.777344 32.773438 15.851562 32.511719 14.667969 L 31.203125 14.667969 L 31.203125 13.324219 L 32.332031 13.324219 C 32.304688 13.210938 32.289062 13.054688 32.289062 12.859375 L 32.3125 12.457031 L 31.203125 12.457031 L 31.203125 11.128906 L 32.476562 11.128906 C 32.710938 9.910156 33.34375 8.953125 34.375 8.246094 C 35.410156 7.539062 36.707031 7.183594 38.257812 7.183594 C 39.457031 7.183594 40.582031 7.390625 41.628906 7.800781 L 40.6875 9.554688 C 40.246094 9.398438 39.832031 9.277344 39.449219 9.191406 C 39.066406 9.101562 38.671875 9.054688 38.257812 9.054688 Z M 38.257812 9.054688 "/>
<path style=" stroke:none;fill-rule:nonzero;fill:rgb(100%,100%,100%);fill-opacity:1;" d="M 57.417969 18.300781 L 47.632812 18.300781 L 47.632812 16.675781 L 51.148438 13.878906 C 52.1875 13.035156 52.863281 12.453125 53.179688 12.128906 C 53.5 11.804688 53.734375 11.503906 53.875 11.230469 C 54.015625 10.953125 54.089844 10.664062 54.089844 10.367188 C 54.089844 9.925781 53.933594 9.597656 53.621094 9.378906 C 53.3125 9.164062 52.898438 9.054688 52.382812 9.054688 C 51.839844 9.054688 51.3125 9.152344 50.796875 9.347656 C 50.289062 9.542969 49.757812 9.824219 49.203125 10.1875 L 47.597656 8.6875 C 48.285156 8.222656 48.855469 7.894531 49.304688 7.703125 C 49.757812 7.511719 50.253906 7.367188 50.792969 7.265625 C 51.328125 7.160156 51.929688 7.105469 52.59375 7.105469 C 53.464844 7.105469 54.238281 7.234375 54.90625 7.488281 C 55.578125 7.734375 56.097656 8.085938 56.46875 8.539062 C 56.839844 8.992188 57.027344 9.511719 57.027344 10.097656 C 57.027344 10.605469 56.914062 11.082031 56.683594 11.527344 C 56.457031 11.972656 56.105469 12.429688 55.628906 12.894531 C 55.15625 13.363281 54.320312 14.03125 53.117188 14.898438 L 51.320312 16.230469 L 51.320312 16.335938 L 57.417969 16.335938 Z M 57.417969 18.300781 "/>
<path style=" stroke:none;fill-rule:nonzero;fill:rgb(100%,100%,100%);fill-opacity:1;" d="M 68.53125 12.78125 C 68.53125 14.710938 68.128906 16.136719 67.328125 17.0625 C 66.523438 17.988281 65.289062 18.453125 63.625 18.453125 C 62.007812 18.453125 60.789062 17.972656 59.96875 17.019531 C 59.152344 16.0625 58.746094 14.648438 58.746094 12.78125 C 58.746094 10.835938 59.144531 9.402344 59.941406 8.480469 C 60.742188 7.554688 61.96875 7.089844 63.625 7.089844 C 65.238281 7.089844 66.460938 7.574219 67.285156 8.539062 C 68.113281 9.503906 68.53125 10.917969 68.53125 12.78125 Z M 61.683594 12.78125 C 61.683594 14.136719 61.828125 15.105469 62.125 15.691406 C 62.421875 16.277344 62.921875 16.570312 63.625 16.570312 C 64.316406 16.570312 64.816406 16.273438 65.117188 15.679688 C 65.425781 15.085938 65.578125 14.121094 65.578125 12.78125 C 65.578125 11.429688 65.421875 10.457031 65.109375 9.867188 C 64.804688 9.277344 64.308594 8.980469 63.625 8.980469 C 62.929688 8.980469 62.433594 9.277344 62.128906 9.867188 C 61.832031 10.457031 61.683594 11.429688 61.683594 12.78125 Z M 61.683594 12.78125 "/>
<path style=" stroke:none;fill-rule:nonzero;fill:rgb(100%,100%,100%);fill-opacity:1;" d="M 79.71875 12.78125 C 79.71875 14.710938 79.316406 16.136719 78.515625 17.0625 C 77.710938 17.988281 76.476562 18.453125 74.8125 18.453125 C 73.195312 18.453125 71.976562 17.972656 71.15625 17.019531 C 70.339844 16.0625 69.933594 14.648438 69.933594 12.78125 C 69.933594 10.835938 70.332031 9.402344 71.128906 8.480469 C 71.929688 7.554688 73.15625 7.089844 74.8125 7.089844 C 76.425781 7.089844 77.648438 7.574219 78.472656 8.539062 C 79.300781 9.503906 79.71875 10.917969 79.71875 12.78125 Z M 72.871094 12.78125 C 72.871094 14.136719 73.015625 15.105469 73.3125 15.691406 C 73.609375 16.277344 74.109375 16.570312 74.8125 16.570312 C 75.503906 16.570312 76.003906 16.273438 76.304688 15.679688 C 76.609375 15.085938 76.765625 14.121094 76.765625 12.78125 C 76.765625 11.429688 76.609375 10.457031 76.296875 9.867188 C 75.988281 9.277344 75.496094 8.980469 74.8125 8.980469 C 74.117188 8.980469 73.621094 9.277344 73.316406 9.867188 C 73.019531 10.457031 72.871094 11.429688 72.871094 12.78125 Z M 72.871094 12.78125 "/>
</g>
</svg>
