<?xml version="1.0" encoding="UTF-8"?>
<svg xmlns="http://www.w3.org/2000/svg" xmlns:xlink="http://www.w3.org/1999/xlink" width="111pt" height="25pt" viewBox="0 0 111 25" version="1.1">
<g id="surface1">
<path style=" stroke:none;fill-rule:nonzero;fill:rgb(100%,100%,100%);fill-opacity:1;" d="M 35.226562 9.054688 C 34.445312 9.054688 33.800781 9.230469 33.296875 9.585938 C 32.796875 9.941406 32.472656 10.453125 32.328125 11.128906 L 36.183594 11.128906 L 36.183594 12.457031 L 32.183594 12.457031 L 32.164062 12.722656 L 32.164062 13.074219 L 32.183594 13.324219 L 35.582031 13.324219 L 35.582031 14.667969 L 32.339844 14.667969 C 32.667969 15.894531 33.691406 16.503906 35.417969 16.503906 C 36.332031 16.503906 37.207031 16.359375 38.046875 16.074219 L 38.046875 18.007812 C 37.308594 18.300781 36.375 18.453125 35.246094 18.453125 C 33.679688 18.453125 32.394531 18.117188 31.386719 17.449219 C 30.375 16.777344 29.738281 15.851562 29.480469 14.667969 L 28.171875 14.667969 L 28.171875 13.324219 L 29.300781 13.324219 C 29.273438 13.210938 29.257812 13.054688 29.257812 12.859375 L 29.277344 12.457031 L 28.171875 12.457031 L 28.171875 11.128906 L 29.445312 11.128906 C 29.679688 9.910156 30.3125 8.953125 31.34375 8.246094 C 32.378906 7.539062 33.671875 7.183594 35.226562 7.183594 C 36.425781 7.183594 37.550781 7.390625 38.597656 7.800781 L 37.65625 9.554688 C 37.214844 9.398438 36.800781 9.277344 36.417969 9.191406 C 36.035156 9.101562 35.636719 9.054688 35.226562 9.054688 Z M 35.226562 9.054688 "/>
<path style=" stroke:none;fill-rule:nonzero;fill:rgb(100%,100%,100%);fill-opacity:1;" d="M 40.898438 18.300781 L 46.160156 9.246094 L 39.253906 9.246094 L 39.253906 7.28125 L 49.296875 7.28125 L 49.296875 8.746094 L 44.003906 18.300781 Z M 40.898438 18.300781 "/>
<path style=" stroke:none;fill-rule:nonzero;fill:rgb(100%,100%,100%);fill-opacity:1;" d="M 55.789062 11.25 C 57.140625 11.25 58.21875 11.554688 59.019531 12.152344 C 59.820312 12.75 60.222656 13.570312 60.222656 14.609375 C 60.222656 15.84375 59.742188 16.792969 58.777344 17.457031 C 57.8125 18.121094 56.433594 18.453125 54.640625 18.453125 C 53.085938 18.453125 51.828125 18.253906 50.871094 17.855469 L 50.871094 15.835938 C 51.375 16.050781 51.960938 16.222656 52.632812 16.355469 C 53.300781 16.492188 53.933594 16.558594 54.539062 16.558594 C 56.34375 16.558594 57.25 15.976562 57.25 14.804688 C 57.25 13.691406 56.3125 13.132812 54.441406 13.132812 C 54.101562 13.132812 53.726562 13.160156 53.320312 13.214844 C 52.910156 13.269531 52.578125 13.328125 52.328125 13.382812 L 51.144531 12.890625 L 51.675781 7.265625 L 59.265625 7.265625 L 59.265625 9.246094 L 54.269531 9.246094 L 54.007812 11.410156 L 54.34375 11.355469 C 54.734375 11.289062 55.214844 11.25 55.789062 11.25 Z M 55.789062 11.25 "/>
<path style=" stroke:none;fill-rule:nonzero;fill:rgb(100%,100%,100%);fill-opacity:1;" d="M 71.59375 12.78125 C 71.59375 14.710938 71.191406 16.136719 70.390625 17.0625 C 69.585938 17.988281 68.355469 18.453125 66.6875 18.453125 C 65.074219 18.453125 63.855469 17.972656 63.035156 17.019531 C 62.214844 16.0625 61.808594 14.648438 61.808594 12.78125 C 61.808594 10.835938 62.207031 9.402344 63.007812 8.480469 C 63.804688 7.554688 65.03125 7.089844 66.6875 7.089844 C 68.300781 7.089844 69.523438 7.574219 70.351562 8.539062 C 71.179688 9.503906 71.59375 10.917969 71.59375 12.78125 Z M 64.746094 12.78125 C 64.746094 14.136719 64.894531 15.105469 65.1875 15.691406 C 65.484375 16.277344 65.988281 16.570312 66.6875 16.570312 C 67.378906 16.570312 67.878906 16.273438 68.183594 15.679688 C 68.488281 15.085938 68.644531 14.121094 68.644531 12.78125 C 68.644531 11.429688 68.488281 10.457031 68.175781 9.867188 C 67.867188 9.277344 67.371094 8.980469 66.6875 8.980469 C 65.996094 8.980469 65.496094 9.277344 65.195312 9.867188 C 64.894531 10.457031 64.746094 11.429688 64.746094 12.78125 Z M 64.746094 12.78125 "/>
<path style=" stroke:none;fill-rule:nonzero;fill:rgb(100%,100%,100%);fill-opacity:1;" d="M 82.78125 12.78125 C 82.78125 14.710938 82.378906 16.136719 81.578125 17.0625 C 80.773438 17.988281 79.542969 18.453125 77.875 18.453125 C 76.261719 18.453125 75.042969 17.972656 74.222656 17.019531 C 73.402344 16.0625 72.996094 14.648438 72.996094 12.78125 C 72.996094 10.835938 73.394531 9.402344 74.195312 8.480469 C 74.992188 7.554688 76.21875 7.089844 77.875 7.089844 C 79.488281 7.089844 80.710938 7.574219 81.539062 8.539062 C 82.367188 9.503906 82.78125 10.917969 82.78125 12.78125 Z M 75.933594 12.78125 C 75.933594 14.136719 76.082031 15.105469 76.375 15.691406 C 76.671875 16.277344 77.171875 16.570312 77.875 16.570312 C 78.566406 16.570312 79.066406 16.273438 79.371094 15.679688 C 79.675781 15.085938 79.832031 14.121094 79.832031 12.78125 C 79.832031 11.429688 79.671875 10.457031 79.363281 9.867188 C 79.054688 9.277344 78.558594 8.980469 77.875 8.980469 C 77.183594 8.980469 76.683594 9.277344 76.382812 9.867188 C 76.082031 10.457031 75.933594 11.429688 75.933594 12.78125 Z M 75.933594 12.78125 "/>
</g>
</svg>
