<?xml version="1.0" encoding="UTF-8"?>
<svg xmlns="http://www.w3.org/2000/svg" xmlns:xlink="http://www.w3.org/1999/xlink" width="111pt" height="25pt" viewBox="0 0 111 25" version="1.1">
<g id="surface1">
<path style=" stroke:none;fill-rule:nonzero;fill:rgb(100%,100%,100%);fill-opacity:1;" d="M 27.515625 7.199219 C 26.667969 7.199219 25.976562 7.394531 25.429688 7.78125 C 24.886719 8.164062 24.535156 8.71875 24.375 9.445312 L 28.554688 9.445312 L 28.554688 10.882812 L 24.21875 10.882812 L 24.199219 11.171875 L 24.199219 11.554688 L 24.21875 11.828125 L 27.898438 11.828125 L 27.898438 13.28125 L 24.398438 13.28125 C 24.75 14.605469 25.859375 15.265625 27.722656 15.265625 C 28.710938 15.265625 29.660156 15.113281 30.570312 14.800781 L 30.570312 16.886719 C 29.773438 17.210938 28.761719 17.371094 27.535156 17.371094 C 25.84375 17.371094 24.449219 17.011719 23.359375 16.285156 C 22.265625 15.5625 21.578125 14.5625 21.300781 13.28125 L 19.875 13.28125 L 19.875 11.828125 L 21.101562 11.828125 C 21.074219 11.699219 21.058594 11.53125 21.058594 11.316406 L 21.078125 10.882812 L 19.875 10.882812 L 19.875 9.445312 L 21.257812 9.445312 C 21.507812 8.128906 22.195312 7.089844 23.316406 6.324219 C 24.433594 5.558594 25.835938 5.175781 27.515625 5.175781 C 28.8125 5.175781 30.027344 5.398438 31.164062 5.84375 L 30.152344 7.742188 C 29.671875 7.570312 29.226562 7.441406 28.808594 7.34375 C 28.394531 7.246094 27.964844 7.199219 27.515625 7.199219 Z M 27.515625 7.199219 "/>
<path style=" stroke:none;fill-rule:nonzero;fill:rgb(100%,100%,100%);fill-opacity:1;" d="M 33.660156 17.207031 L 39.351562 7.40625 L 31.875 7.40625 L 31.875 5.277344 L 42.742188 5.277344 L 42.742188 6.867188 L 37.015625 17.207031 Z M 33.660156 17.207031 "/>
<path style=" stroke:none;fill-rule:nonzero;fill:rgb(100%,100%,100%);fill-opacity:1;" d="M 49.484375 5.109375 C 50.941406 5.109375 52.109375 5.371094 52.996094 5.890625 C 53.886719 6.410156 54.332031 7.109375 54.332031 7.992188 C 54.332031 8.601562 54.113281 9.148438 53.683594 9.625 C 53.257812 10.101562 52.566406 10.527344 51.613281 10.898438 C 52.746094 11.378906 53.558594 11.882812 54.050781 12.402344 C 54.542969 12.921875 54.792969 13.492188 54.792969 14.109375 C 54.792969 15.089844 54.304688 15.878906 53.332031 16.476562 C 52.359375 17.074219 51.078125 17.371094 49.484375 17.371094 C 47.828125 17.371094 46.527344 17.09375 45.578125 16.542969 C 44.628906 15.984375 44.160156 15.195312 44.160156 14.175781 C 44.160156 13.496094 44.386719 12.894531 44.847656 12.363281 C 45.308594 11.835938 46.046875 11.371094 47.0625 10.96875 C 46.199219 10.539062 45.578125 10.078125 45.199219 9.589844 C 44.816406 9.101562 44.628906 8.5625 44.628906 7.976562 C 44.628906 7.121094 45.078125 6.429688 45.976562 5.902344 C 46.875 5.375 48.042969 5.109375 49.484375 5.109375 Z M 47.125 14.03125 C 47.125 14.5 47.332031 14.863281 47.746094 15.125 C 48.160156 15.386719 48.730469 15.515625 49.445312 15.515625 C 50.242188 15.515625 50.835938 15.382812 51.226562 15.113281 C 51.621094 14.84375 51.820312 14.488281 51.820312 14.046875 C 51.820312 13.679688 51.625 13.339844 51.234375 13.019531 C 50.84375 12.703125 50.210938 12.363281 49.335938 12.003906 C 47.863281 12.539062 47.125 13.210938 47.125 14.03125 Z M 49.464844 6.953125 C 48.917969 6.953125 48.476562 7.066406 48.144531 7.285156 C 47.808594 7.507812 47.640625 7.804688 47.640625 8.175781 C 47.640625 8.5 47.773438 8.792969 48.039062 9.054688 C 48.304688 9.3125 48.789062 9.574219 49.484375 9.847656 C 50.164062 9.597656 50.636719 9.34375 50.902344 9.082031 C 51.175781 8.816406 51.308594 8.515625 51.308594 8.175781 C 51.308594 7.800781 51.136719 7.503906 50.792969 7.285156 C 50.449219 7.066406 50.003906 6.953125 49.464844 6.953125 Z M 49.464844 6.953125 "/>
<path style=" stroke:none;fill-rule:nonzero;fill:rgb(100%,100%,100%);fill-opacity:1;" d="M 66.882812 11.234375 C 66.882812 13.324219 66.449219 14.867188 65.582031 15.867188 C 64.714844 16.871094 63.378906 17.371094 61.578125 17.371094 C 59.828125 17.371094 58.507812 16.855469 57.617188 15.820312 C 56.734375 14.785156 56.289062 13.257812 56.289062 11.234375 C 56.289062 9.128906 56.722656 7.574219 57.585938 6.574219 C 58.453125 5.578125 59.78125 5.078125 61.578125 5.078125 C 63.324219 5.078125 64.644531 5.601562 65.539062 6.644531 C 66.433594 7.691406 66.882812 9.222656 66.882812 11.234375 Z M 59.476562 11.234375 C 59.476562 12.699219 59.636719 13.75 59.960938 14.386719 C 60.277344 15.019531 60.820312 15.335938 61.578125 15.335938 C 62.324219 15.335938 62.863281 15.015625 63.195312 14.375 C 63.527344 13.734375 63.695312 12.6875 63.695312 11.234375 C 63.695312 9.769531 63.527344 8.71875 63.195312 8.078125 C 62.859375 7.4375 62.320312 7.117188 61.578125 7.117188 C 60.824219 7.117188 60.285156 7.4375 59.960938 8.078125 C 59.636719 8.71875 59.476562 9.769531 59.476562 11.234375 Z M 59.476562 11.234375 "/>
<path style=" stroke:none;fill-rule:nonzero;fill:rgb(100%,100%,100%);fill-opacity:1;" d="M 78.992188 11.234375 C 78.992188 13.324219 78.558594 14.867188 77.691406 15.867188 C 76.824219 16.871094 75.492188 17.371094 73.6875 17.371094 C 71.9375 17.371094 70.621094 16.855469 69.730469 15.820312 C 68.84375 14.785156 68.402344 13.257812 68.402344 11.234375 C 68.402344 9.128906 68.832031 7.574219 69.695312 6.574219 C 70.5625 5.578125 71.894531 5.078125 73.6875 5.078125 C 75.4375 5.078125 76.757812 5.601562 77.652344 6.644531 C 78.546875 7.691406 78.992188 9.222656 78.992188 11.234375 Z M 71.589844 11.234375 C 71.589844 12.699219 71.75 13.75 72.070312 14.386719 C 72.390625 15.019531 72.929688 15.335938 73.6875 15.335938 C 74.433594 15.335938 74.972656 15.015625 75.304688 14.375 C 75.636719 13.734375 75.808594 12.6875 75.808594 11.234375 C 75.808594 9.769531 75.636719 8.71875 75.304688 8.078125 C 74.96875 7.4375 74.429688 7.117188 73.6875 7.117188 C 72.933594 7.117188 72.394531 7.4375 72.070312 8.078125 C 71.75 8.71875 71.589844 9.769531 71.589844 11.234375 Z M 71.589844 11.234375 "/>
<path style=" stroke:none;fill-rule:nonzero;fill:rgb(100%,100%,100%);fill-opacity:1;" d="M 91.105469 11.234375 C 91.105469 13.324219 90.671875 14.867188 89.804688 15.867188 C 88.9375 16.871094 87.601562 17.371094 85.796875 17.371094 C 84.050781 17.371094 82.730469 16.855469 81.839844 15.820312 C 80.953125 14.785156 80.511719 13.257812 80.511719 11.234375 C 80.511719 9.128906 80.941406 7.574219 81.808594 6.574219 C 82.675781 5.578125 84.003906 5.078125 85.796875 5.078125 C 87.546875 5.078125 88.867188 5.601562 89.761719 6.644531 C 90.65625 7.691406 91.105469 9.222656 91.105469 11.234375 Z M 83.699219 11.234375 C 83.699219 12.699219 83.859375 13.75 84.179688 14.386719 C 84.5 15.019531 85.042969 15.335938 85.796875 15.335938 C 86.546875 15.335938 87.085938 15.015625 87.414062 14.375 C 87.75 13.734375 87.917969 12.6875 87.917969 11.234375 C 87.917969 9.769531 87.75 8.71875 87.414062 8.078125 C 87.082031 7.4375 86.542969 7.117188 85.796875 7.117188 C 85.042969 7.117188 84.507812 7.4375 84.179688 8.078125 C 83.859375 8.71875 83.699219 9.769531 83.699219 11.234375 Z M 83.699219 11.234375 "/>
</g>
</svg>
