<?xml version="1.0" encoding="UTF-8"?>
<svg width="56px" height="56px" viewBox="0 0 56 56" version="1.1" xmlns="http://www.w3.org/2000/svg" xmlns:xlink="http://www.w3.org/1999/xlink">
    <!-- Generator: sketchtool 53 (72520) - https://sketchapp.com -->
    <title>FF5DAF7D-BF95-4006-B957-A2E881879312</title>
    <desc>Created with sketchtool.</desc>
    <defs>
        <filter x="-21.0%" y="-21.0%" width="142.0%" height="142.0%" filterUnits="objectBoundingBox" id="filter-1">
            <feOffset dx="0" dy="2" in="SourceAlpha" result="shadowOffsetOuter1"></feOffset>
            <feGaussianBlur stdDeviation="1.5" in="shadowOffsetOuter1" result="shadowBlurOuter1"></feGaussianBlur>
            <feColorMatrix values="0 0 0 0 0.0862745098   0 0 0 0 0.325490196   0 0 0 0 0.745098039  0 0 0 0.397563374 0" type="matrix" in="shadowBlurOuter1" result="shadowMatrixOuter1"></feColorMatrix>
            <feMerge>
                <feMergeNode in="shadowMatrixOuter1"></feMergeNode>
                <feMergeNode in="SourceGraphic"></feMergeNode>
            </feMerge>
        </filter>
        <linearGradient x1="14.5545989%" y1="9.54220831%" x2="81.0540239%" y2="94.0589003%" id="linearGradient-2">
            <stop stop-color="#FFFFFF" offset="0%"></stop>
            <stop stop-color="#ADD9FF" offset="100%"></stop>
        </linearGradient>
        <path d="M24.9857718,49.9796002 C38.7872573,49.9796002 49.9755719,38.7912856 49.9755719,24.9898001 C49.9755719,11.1883146 38.7872573,7.10542736e-15 24.9857718,7.10542736e-15 C11.3363962,7.10542736e-15 0.24290801,10.9430547 3.73156873e-05,24.5344341 C-0.00266925773,24.6858977 0.142532907,25.1353148 0.215813502,25.2080722 C4.15187722,29.1160319 8.08794093,33.0239916 12.0240046,36.9319514 L12.0240046,36.9319514 C12.3828242,37.2882089 12.9511186,37.3205618 13.3480521,37.0073291 L41.6725209,14.6556041 C41.8892963,14.4845398 42.2037026,14.521596 42.3747669,14.7383715 C42.5179769,14.9198495 42.5181035,15.1758424 42.3750731,15.3574619 C33.7651803,26.2902753 25.1552874,37.2230888 16.5453946,48.1559023 C16.4230002,48.3158314 16.4628855,48.4848773 16.5817017,48.531297 C19.2080517,49.4689621 22.0372788,49.9796002 24.9857718,49.9796002 Z" id="path-3"></path>
        <linearGradient x1="78.6926913%" y1="3.04949278%" x2="60.6227352%" y2="87.2117898%" id="linearGradient-5">
            <stop stop-color="#002C57" offset="0%"></stop>
            <stop stop-color="#002C57" stop-opacity="0.40463833" offset="100%"></stop>
        </linearGradient>
    </defs>
    <g id="Page-1" stroke="none" stroke-width="1" fill="none" fill-rule="evenodd">
        <g id="IE_home_xl_long_form" transform="translate(-1412.000000, -250.000000)">
            <g id="Form_side" transform="translate(1215.000000, 231.000000)">
                <g id="ic_ie_tag_1" filter="url(#filter-1)" transform="translate(200.000000, 20.000000)">
                    <mask id="mask-4" fill="white">
                        <use xlink:href="#path-3"></use>
                    </mask>
                    <use id="Oval-Copy-2" fill="url(#linearGradient-2)" fill-rule="nonzero" xlink:href="#path-3"></use>
                    <polygon id="Rectangle" fill="url(#linearGradient-5)" fill-rule="nonzero" opacity="0.482986902" style="mix-blend-mode: overlay;" mask="url(#mask-4)" points="41.947464 15 42.4626111 15.2001397 32.9015926 51.673453 21.392979 51.673453 14.6813188 47.8178839"></polygon>
                </g>
            </g>
        </g>
    </g>
</svg>