<svg enable-background="new 0 0 583.1 119" version="1.1" viewBox="0 0 583.1 119" xml:space="preserve" xmlns="http://www.w3.org/2000/svg">
<style type="text/css">
	.st0{fill:#54514C;}
</style>
	<path d="m44.1 2.6v0.6c-1.5 0.1-2.8 0.3-4 0.5-1.1 0.3-2.3 0.9-3.4 2-0.8 0.8-1.4 1.3-1.7 1.6s-0.6 0.6-1 0.9l-18.1 18 21.7 24.5c1.7 1.9 3.1 3.1 4.3 3.5 1.2 0.5 2.7 0.8 4.6 1.1v0.6h-11.5l-23.8-27v20.5c0 3.8 1.9 5.7 5.7 5.9v0.6h-16.9v-0.6c1.1-0.1 2-0.2 2.8-0.6 0.8-0.3 1.5-0.9 2-1.8s0.8-2 0.8-3.5v-40.4c0-2.2-0.6-3.8-1.7-4.5-1-0.8-2.4-1.2-3.9-1.3v-0.6h16.9v0.6c-3.8 0.1-5.7 2-5.7 5.8v19.7l20.4-20.4c0 0.1 0.1 0 0.1-0.2 1.1-1 1.7-1.9 1.7-2.7s-0.3-1.4-1-1.6-1.7-0.4-3-0.5v-0.7h14.7z"/>
	<path d="m73.8 2l15.9 45.6c0.8 2.4 1.6 4.1 2.4 5.1 0.7 1.1 1.5 1.7 2.1 2 0.7 0.3 1.6 0.5 2.6 0.6v0.6h-17.3v-0.6c1.8 0 3.2-0.2 4.1-0.5 1-0.3 1.4-1.3 1.4-2.8 0-0.8-0.2-1.9-0.7-3.3-0.1-0.2-0.1-0.3-0.1-0.4l-4.7-14.1h-18.4l-4.2 13.1c-0.6 1.7-0.9 3.2-0.9 4.3 0 1.5 0.4 2.5 1.1 3s1.8 0.7 3.2 0.7v0.6h-12.5v-0.6c1.8-0.2 3.2-0.8 4.3-2s2-3 2.8-5.4l15-45.9h3.9zm-12.1 30.3h16.9l-8.6-25.3h-0.1l-8.2 25.3z"/>
	<path d="m135.6 4.7h-25.5c-2.1 0-3.8 0.2-5.2 0.7-1.3 0.5-2.4 1.3-3.2 2.4s-1.4 2.6-1.7 4.6h-0.6v-9.8h43.6v1l-36.8 50.2h25.5c2.8 0 5.1-0.3 6.7-0.9s2.8-1.4 3.4-2.3c0.7-0.9 1.4-2.2 2.2-3.7h0.6l-2.5 8.9h-43.3v-1.1l36.8-50z"/>
	<path d="m172.5 2l15.9 45.6c0.8 2.4 1.6 4.1 2.4 5.1 0.7 1.1 1.5 1.7 2.1 2 0.7 0.3 1.6 0.5 2.6 0.6v0.6h-17.4v-0.6c1.8 0 3.2-0.2 4.1-0.5 1-0.3 1.4-1.3 1.4-2.8 0-0.8-0.2-1.9-0.7-3.3-0.1-0.2-0.1-0.3-0.1-0.4l-4.7-14.1h-18.4l-4.2 13.1c-0.6 1.8-0.9 3.2-0.9 4.3 0 1.5 0.4 2.5 1.1 3s1.8 0.7 3.2 0.7v0.6h-12.5v-0.6c1.8-0.2 3.2-0.8 4.3-2s2-3 2.8-5.4l15-45.8h4zm-12.1 30.3h16.9l-8.6-25.3h-0.1l-8.2 25.3z"/>
	<path d="m243.1 2.6v0.6c-1.5 0.1-2.8 0.3-4 0.5-1.1 0.3-2.3 0.9-3.4 2-0.8 0.8-1.4 1.3-1.7 1.6s-0.6 0.6-1 0.9l-18.1 17.9 21.7 24.5c1.7 1.9 3.1 3.1 4.3 3.5 1.2 0.5 2.7 0.8 4.6 1.1v0.6h-11.5l-23.8-26.9v20.5c0 3.8 1.9 5.7 5.7 5.9v0.6h-16.9v-0.6c1.1-0.1 2-0.2 2.8-0.6 0.8-0.3 1.5-0.9 2-1.8s0.8-2 0.8-3.5v-40.4c0-2.2-0.6-3.8-1.7-4.5-1.1-0.8-2.5-1.2-4-1.2v-0.7h16.9v0.6c-3.8 0.1-5.7 2-5.7 5.8v19.7l20.4-20.4c0 0.1 0 0 0.1-0.2 1.1-1 1.7-1.9 1.7-2.7s-0.3-1.4-1-1.6-1.7-0.4-3-0.5v-0.7h14.8z"/>
	<path d="m290 27v-17.8c0-1.7-0.5-3.2-1.4-4.3s-2.4-1.7-4.4-1.7v-0.6h16.9v0.6c-2 0-3.4 0.6-4.3 1.6-0.9 1.1-1.4 2.5-1.4 4.3v40.2c0 3.9 1.9 5.9 5.7 5.9v0.6h-16.9v-0.6c1.8 0 3.2-0.5 4.2-1.5s1.5-2.4 1.5-4.3v-20.8h-30.5v20.8c0 1.9 0.5 3.3 1.6 4.3s2.5 1.5 4.2 1.5v0.6h-16.9v-0.6c1.8 0 3.2-0.5 4.2-1.5s1.5-2.5 1.5-4.3v-40.2c0-4-1.9-5.9-5.7-5.9v-0.7h16.9v0.6c-2 0-3.5 0.6-4.4 1.6-0.9 1.1-1.4 2.5-1.4 4.3v17.9h30.6z"/>
	<path d="m347.9 2.6v0.6c-1.6 0-2.9 0.4-4 1.3s-1.7 2.4-1.7 4.4v40.4c0 2 0.6 3.5 1.8 4.5 1.2 0.9 2.5 1.4 3.9 1.4v0.6h-16.9v-0.6c1.5 0 2.9-0.5 4-1.4s1.7-2.4 1.7-4.5v-40.3c0-2.2-0.6-3.7-1.7-4.6-1.1-0.8-2.4-1.2-4-1.2v-0.6h16.9z"/>
	<path d="m408.4 2.6v0.6c-1.4 0.2-2.4 0.5-3.2 0.8s-1.4 1-1.8 2.1c-0.4 1-0.7 2.5-0.7 4.4v46.7h-0.4l-40.9-45.6v32.7c0 2.7 0.1 4.7 0.3 6.1 0.2 1.3 0.5 2.3 0.9 2.8 0.9 1.3 2.4 1.9 4.7 2v0.6h-13.3v-0.6c1.5-0.1 2.7-0.4 3.5-1s1.4-1.6 1.8-3.1c0.3-1.5 0.5-3.8 0.5-6.8v-34.6l-1.8-2c-1.6-1.8-2.8-2.9-3.8-3.4-0.9-0.5-2.1-0.8-3.5-1.1v-0.6h10l40.2 45.1v-34.3c0-2.6-0.1-4.5-0.3-5.8s-0.7-2.3-1.6-3.1-2.3-1.2-4.1-1.3v-0.6h13.5z"/>
	<path d="m460.8 2.6v0.6c-1.4 0.2-2.5 0.6-3.4 1.4-0.9 0.7-1.7 1.7-2.3 2.9s-1.3 2.8-2.1 4.7c-0.1 0.1-0.2 0.4-0.4 0.9l-15.4 44.1h-0.5l-18-47.7c0-0.1-0.1-0.2-0.1-0.4-0.7-2-1.6-3.5-2.8-4.5-1.1-0.9-2.6-1.4-4.3-1.4v-0.6h17.5v0.6c-1.5 0.1-2.7 0.4-3.5 0.9-0.9 0.4-1.3 1.5-1.3 3.1 0 0.4 0.2 1.3 0.6 2.7 0 0.1 0.1 0.2 0.1 0.4 0 0.1 0.1 0.2 0.1 0.3l14 37.4h0.1l12-34.8c0.8-2.4 1.3-4.2 1.3-5.4 0-1.9-0.4-3.1-1.2-3.6s-2-0.8-3.6-0.9v-0.7h13.2z"/>
	<path d="m464.3 3.2v-0.6h31.7v8.4h-0.5c0-4.5-3-6.7-9-6.7h-11.1v24.2h9.8c1.9 0 3.7-0.3 5.2-0.9s2.4-2.1 2.6-4.3h0.5v12.1h-0.5c-0.2-1.4-0.6-2.4-1.2-3.2-0.6-0.7-1.2-1.2-1.8-1.5-0.6-0.2-1.1-0.4-1.6-0.4-0.9-0.1-1.8-0.2-2.7-0.2h-10.2v18.9c0 1.4 0.3 2.7 0.8 3.7s1.8 1.5 3.8 1.5h7.9c1.9 0 3.5-0.3 4.7-0.8 1.2-0.6 2.2-1.3 2.9-2.3s1.3-2.2 1.8-3.6h0.5l-1.8 8.3h-31.7v-0.6h0.7c1.1 0 2.2-0.5 3.3-1.4s1.6-2.4 1.6-4.5v-40c0-1.6-0.4-3.1-1.1-4.3s-2-1.8-3.9-1.8h-0.7z"/>
	<path d="m529.4 12.9h-0.6c-0.3-2.6-1.5-4.8-3.4-6.8-1.9-1.9-4.4-2.9-7.6-2.9-2 0-3.9 0.5-5.5 1.4-1.6 1-2.8 2.3-3.7 3.9-0.9 1.7-1.3 3.6-1.3 5.7 0 1.7 0.3 3.1 0.8 4.4s1.3 2.4 2.3 3.4 2.2 1.9 3.6 2.8 3.2 1.9 5.6 3.2c3.9 2.1 6.9 4.3 9.1 6.4s3.3 5.1 3.3 8.8c0 2.3-0.6 4.4-1.8 6.6-1.2 2.1-2.9 3.8-5.3 5.2s-5.3 2-8.8 2c-2.2 0-4.1-0.2-5.8-0.7s-3.4-1.1-5.1-2c-0.7-0.2-1.2-0.4-1.5-0.4-0.5 0-0.8 0.2-1 0.5-0.2 0.4-0.4 1.1-0.6 2.3h-0.6v-13.1h0.6c0.9 3.9 2.6 6.9 5.1 8.9s5.5 3 9.1 3c2.7 0 4.9-0.5 6.5-1.5s2.7-2.2 3.4-3.7c0.6-1.4 0.9-2.9 0.9-4.3 0-3-0.9-5.4-2.7-7.3s-4.6-3.8-8.3-5.8c-2.6-1.4-4.4-2.5-5.7-3.3-1.2-0.8-2.5-1.8-3.7-3-1.3-1.2-2.3-2.7-3-4.4s-1.1-3.6-1.1-5.8c0-2.5 0.7-4.9 2-7.2s3.2-4.1 5.6-5.5 5.2-2.1 8.3-2.1c2.3 0 4.7 0.4 7.2 1.2 0.4 0.2 0.9 0.3 1.6 0.3 0.8 0 1.3-0.5 1.6-1.6h0.6v11.4z"/>
	<path d="m582.2 13h-0.6c-0.3-3.5-1.3-5.7-3-6.7-1.8-1-3.9-1.5-6.5-1.5h-10.6v44.7c0 3.8 1.9 5.7 5.8 5.9v0.6h-16.9v-0.6c1.6 0 2.9-0.5 4-1.4s1.6-2.4 1.6-4.5v-44.8h-10.6c-2.6 0-4.7 0.5-6.5 1.5-1.7 1-2.8 3.3-3.1 6.7h-0.6v-12.9h0.6c0.4 0.6 0.7 1 1 1.3s0.7 0.5 1.1 0.7c0.5 0.2 1 0.3 1.6 0.4s1.3 0.1 2.2 0.1h34.5c2.3 0 4.1-0.9 5.3-2.6h0.6v13.1z"/>
	<path class="st0" d="m458.4 116.4h1.9v-9.1l6.3-10.7h-2.1l-5.1 8.9-5.1-8.9h-2.1l6.3 10.7v9.1zm-31.6 0h1.9v-15.7l15 16.5v-20.5h-1.9v15.7l-15-16.5v20.5zm-20.8-8l3.5-8.1 3.5 8.1h-7zm-5.4 8h2l2.7-6.4h8.3l2.7 6.4h2l-8.9-20.4-8.8 20.4zm-16.7-18.2h3.5c0.7 0 4-0.1 4 3.6 0 3.4-2.6 3.7-4 3.7h-3.5v-7.3zm-2 18.2h1.9v-9.3h3.6c2.1 0 5.9-0.5 5.9-5.3 0-4.7-3.8-5.2-5.9-5.2h-5.5v19.8zm-31.2 0h1.8l1.9-14.6 7.3 15.4 7.3-15.4 1.9 14.6h1.8l-2.7-20.6-8.3 17.6-8.3-17.6-2.7 20.6zm-19.1-1c-4.8 0-8.6-3.7-8.6-8.9s3.8-8.9 8.6-8.9 8.7 3.7 8.7 8.9-3.8 8.9-8.7 8.9zm0 1.6c5.9 0 10.7-4.2 10.7-10.5 0-6.2-4.8-10.5-10.7-10.5s-10.7 4.2-10.7 10.5c0.1 6.3 4.9 10.5 10.7 10.5zm-18.7-4.5c-1.9 1.8-4.5 2.9-7.2 2.9-4.8 0-8.2-4.1-8.2-8.9 0-5.1 3.8-8.9 8.2-8.9 2 0 4.6 0.5 7.2 3v-2.2c-2.7-2-5.2-2.4-7.2-2.4-5.6 0-10.2 4.3-10.2 10.5 0 5.9 4.2 10.5 10.2 10.5 2.2 0 4.9-0.6 7.2-2.3v-2.2zm-39.8 3.9h8.3v-1.6h-6.4v-18.1h-1.9v19.7zm-20.8-8l3.5-8.1 3.5 8.1h-7zm-5.4 8h2l2.7-6.4h8.3l2.7 6.4h2l-8.9-20.4-8.8 20.4zm-25.4 0h1.9v-15.7l15 16.5v-20.5h-1.9v15.7l-15-16.5v20.5zm-20.4-1c-4.8 0-8.6-3.7-8.6-8.9s3.8-8.9 8.6-8.9 8.7 3.7 8.7 8.9c-0.1 5.2-3.9 8.9-8.7 8.9zm0 1.6c5.9 0 10.7-4.2 10.7-10.5 0-6.2-4.8-10.5-10.7-10.5s-10.7 4.2-10.7 10.5 4.8 10.5 10.7 10.5zm-22.4-0.6h1.9v-19.7h-1.9v19.7zm-15.6 0h1.9v-18.2h5.3v-1.6h-12.5v1.6h5.3v18.2zm-23.9-8l3.5-8.1 3.5 8.1h-7zm-5.4 8h2l2.7-6.4h8.3l2.7 6.4h2l-8.9-20.4-8.8 20.4zm-25.4 0h1.9v-15.7l15 16.5v-20.5h-1.9v15.7l-15-16.5v20.5z"/>
</svg>
