<?xml version="1.0" encoding="UTF-8"?>
<svg width="129px" height="44px" viewBox="0 0 129 44" version="1.1" xmlns="http://www.w3.org/2000/svg" xmlns:xlink="http://www.w3.org/1999/xlink">
    <title>newsletter_button_huawei</title>
    <g id="Page-1" stroke="none" stroke-width="1" fill="none" fill-rule="evenodd">
        <g id="newsletter_button_huawei" transform="translate(0.500000, 0.500000)" fill-rule="nonzero">
            <rect id="bg" stroke="#FFFFFF" fill="#000000" x="0" y="0" width="128" height="43" rx="4"></rect>
            <g id="Group" transform="translate(8.148148, 9.200000)">
                <g transform="translate(32.189783, 9.866667)" fill="#FFFFFF">
                    <path d="M7.54137931,9.16111111 L3.0724138,9.16111111 L1.95517242,12.1833333 L-3.33066907e-16,12.1833333 L4.37586207,0.850000003 L6.23793104,0.850000003 L10.7068966,12.1833333 L8.65862069,12.1833333 L7.54137931,9.16111111 Z M3.63103449,7.65 L6.98275863,7.65 L5.7724138,4.43888889 C5.5862069,3.96666666 5.49310345,3.49444444 5.30689656,2.92777777 C5.12068966,3.4 5.02758621,3.87222222 4.84137931,4.43888889 L3.63103449,7.65 Z" id="Shape"></path>
                    <path d="M11.5448276,5.85555555 C11.5448276,5.19444444 11.5448276,4.53333333 11.4517242,3.77777777 L13.2206897,3.77777777 C13.3137931,4.15555555 13.3137931,4.43888889 13.3137931,4.81666666 C14.0586207,3.96666666 14.8965518,3.58888889 15.8275862,3.58888889 C16.3862069,3.58888889 16.8517242,3.77777777 17.4103449,4.06111111 C17.8758621,4.34444444 18.2482759,4.81666666 18.5275862,5.38333333 C18.8068966,5.95 18.9931035,6.8 18.9931035,7.74444444 C18.9931035,8.68888889 18.8068966,9.53888893 18.5275862,10.2944444 C18.1551724,10.9555555 17.6896552,11.5222222 17.1310345,11.9 C16.5724138,12.2777777 15.8275862,12.4666666 15.0827587,12.4666666 C14.524138,12.4666666 13.9655173,12.3722222 13.4068966,12.1833333 L13.4068966,15.6777777 L11.5448276,15.8666666 L11.5448276,5.85555555 L11.5448276,5.85555555 Z M16.5724138,10.1055555 C16.9448276,9.53888893 17.1310345,8.78333333 17.1310345,7.74444444 C17.1310345,6.8 16.9448276,6.13888889 16.6655173,5.66666666 C16.3862069,5.38333333 15.9206897,5.1 15.362069,5.1 C14.9896552,5.1 14.6172414,5.19444444 14.3379311,5.38333333 C14.0586207,5.57222222 13.6862069,5.76111111 13.4068966,6.13888889 L13.4068966,10.6722222 C13.5931035,10.7666666 13.7793104,10.8611111 14.0586207,10.8611111 C14.3379311,10.8611111 14.524138,10.9555555 14.8034483,10.9555555 C15.6413793,10.9555555 16.2,10.6722222 16.5724138,10.1055555 Z" id="Shape"></path>
                    <path d="M20.2965518,5.85555555 C20.2965518,5.19444444 20.2965518,4.53333333 20.2034483,3.77777777 L21.9724138,3.77777777 C22.0655173,4.15555555 22.0655173,4.43888889 22.0655173,4.81666666 C22.8103449,3.96666666 23.6482759,3.58888889 24.5793104,3.58888889 C25.1379311,3.58888889 25.6034483,3.77777777 26.162069,4.06111111 C26.6275862,4.34444444 27,4.81666666 27.2793104,5.38333333 C27.5586207,5.95 27.7448276,6.8 27.7448276,7.74444444 C27.7448276,8.68888889 27.5586207,9.53888893 27.2793104,10.2944444 C26.9068966,10.9555555 26.4413793,11.5222222 25.8827587,11.9 C25.324138,12.2777777 24.5793104,12.4666666 23.8344828,12.4666666 C23.2758621,12.4666666 22.7172414,12.3722222 22.1586207,12.1833333 L22.1586207,15.6777777 L20.2965518,15.8666666 L20.2965518,5.85555555 Z M25.324138,10.1055555 C25.6965518,9.53888893 25.8827587,8.78333333 25.8827587,7.74444444 C25.8827587,6.8 25.6965518,6.13888889 25.4172414,5.66666666 C25.1379311,5.28888889 24.6724138,5.00555555 24.1137931,5.00555555 C23.7413793,5.00555555 23.3689656,5.1 23.0896552,5.28888889 C22.8103449,5.47777777 22.4379311,5.66666666 22.1586207,6.04444444 L22.1586207,10.5777777 C22.3448276,10.6722222 22.5310345,10.7666666 22.8103449,10.7666666 C23.0896552,10.7666666 23.2758621,10.8611111 23.5551724,10.8611111 C24.3931035,10.9555555 24.9517242,10.6722222 25.324138,10.1055555 Z" id="Shape"></path>
                    <path d="M31.4689656,11.6166666 C30.6310345,11.1444444 29.9793104,10.4833333 29.6068966,9.63333333 C29.1413793,8.78333333 28.9551724,7.74444444 28.9551724,6.61111111 C28.9551724,5.38333333 29.2344828,4.25 29.7,3.4 C30.1655173,2.55 30.9103449,1.88888889 31.7482759,1.41666666 C32.5862069,0.944444443 33.6103449,0.755555553 34.7275862,0.755555553 C35.3793104,0.755555553 35.9379311,0.850000003 36.5896552,0.944444443 C37.2413793,1.03888889 37.7068966,1.32222222 38.2655173,1.51111111 L37.8,3.02222222 C36.7758621,2.55 35.8448276,2.26666666 34.9137931,2.26666666 C34.1689656,2.26666666 33.424138,2.45555555 32.8655173,2.73888889 C32.3068966,3.11666666 31.8413793,3.58888889 31.4689656,4.25 C31.1896552,4.91111111 31.0034483,5.66666666 31.0034483,6.61111111 C31.0034483,7.46111111 31.0965518,8.12222222 31.3758621,8.78333333 C31.6551724,9.44444443 32.0275862,9.91666663 32.5862069,10.2944444 C33.1448276,10.6722222 33.7965518,10.8611111 34.6344828,10.8611111 C35.0068966,10.8611111 35.3793104,10.8611111 35.7517242,10.7666666 C36.124138,10.6722222 36.4965518,10.5777777 36.7758621,10.4833333 L36.7758621,8.21666666 L34.1689656,8.21666666 L34.1689656,6.70555555 L38.6379311,6.70555555 L38.6379311,11.4277777 C37.9862069,11.7111111 37.3344828,11.9944444 36.5896552,12.0888889 C35.8448276,12.2777777 35.1931035,12.3722222 34.5413793,12.3722222 C33.2379311,12.3722222 32.3068966,12.0888889 31.4689656,11.6166666 Z" id="Path"></path>
                    <path d="M45.3413793,12.1833333 C45.2482759,11.9 45.2482759,11.5222222 45.2482759,11.05 C44.9689656,11.4277777 44.5965518,11.7111111 44.1310345,11.9944444 C43.6655173,12.2777777 43.1068966,12.3722222 42.5482759,12.3722222 C42.0827587,12.3722222 41.6172414,12.2777777 41.2448276,12.0888889 C40.8724138,11.9 40.5,11.6166666 40.3137931,11.2388889 C40.1275862,10.8611111 39.9413793,10.3888889 39.9413793,9.82222223 C39.9413793,8.97222222 40.2206897,8.31111111 40.7793104,7.83888889 C41.3379311,7.36666666 42.362069,7.08333333 43.6655173,7.08333333 C44.1310345,7.08333333 44.6896552,7.08333333 45.1551724,7.17777777 L45.1551724,6.98888889 C45.1551724,6.23333333 44.9689656,5.76111111 44.6896552,5.38333333 C44.4103449,5.1 43.9448276,4.91111111 43.3862069,4.91111111 C43.0137931,4.91111111 42.5482759,5.00555555 42.0827587,5.1 C41.6172414,5.19444444 41.2448276,5.38333333 40.8724138,5.57222222 L40.5931035,4.15555555 C40.9655173,3.96666666 41.3379311,3.87222222 41.8965518,3.68333333 C42.4551724,3.58888889 43.0137931,3.49444444 43.6655173,3.49444444 C44.4103449,3.49444444 44.9689656,3.58888889 45.5275862,3.87222222 C45.9931035,4.06111111 46.4586207,4.43888889 46.7379311,5.00555555 C47.0172414,5.57222222 47.2034483,6.23333333 47.2034483,7.17777777 L47.2034483,10.5777777 C47.2034483,10.9555555 47.2034483,11.4277777 47.2965518,12.1833333 L45.3413793,12.1833333 Z M44.224138,10.6722222 C44.5965518,10.4833333 44.9689656,10.2 45.1551724,9.91666663 L45.1551724,8.31111111 C44.5965518,8.21666666 44.224138,8.21666666 43.8517242,8.21666666 C43.1068966,8.21666666 42.5482759,8.31111111 42.1758621,8.59444444 C41.8965518,8.87777777 41.7103449,9.16111111 41.7103449,9.63333333 C41.7103449,10.0111111 41.8034483,10.3888889 42.0827587,10.5777777 C42.2689656,10.7666666 42.6413793,10.8611111 43.0137931,10.8611111 C43.3862069,10.9555555 43.7586207,10.8611111 44.224138,10.6722222 Z" id="Shape"></path>
                    <path d="M48.6931035,10.2 L48.6931035,0.188888889 L50.5551724,2.22044605e-16 L50.5551724,9.82222223 C50.5551724,10.2 50.6482759,10.3888889 50.7413793,10.5777777 C50.8344828,10.7666666 51.0206897,10.7666666 51.3,10.7666666 C51.3931035,10.7666666 51.5793104,10.7666666 51.7655173,10.6722222 L51.9517242,12.0888889 C51.7655173,12.1833333 51.5793104,12.1833333 51.3,12.2777777 C51.0206897,12.2777777 50.8344828,12.3722222 50.5551724,12.3722222 C49.3448276,12.3722222 48.6931035,11.6166666 48.6931035,10.2 Z" id="Path"></path>
                    <path d="M53.4413793,10.2 L53.4413793,0.188888889 L55.3034483,2.22044605e-16 L55.3034483,9.82222223 C55.3034483,10.2 55.3965518,10.3888889 55.4896552,10.5777777 C55.5827587,10.7666666 55.7689656,10.7666666 56.0482759,10.7666666 C56.1413793,10.7666666 56.3275862,10.7666666 56.5137931,10.6722222 L56.7,12.0888889 C56.5137931,12.1833333 56.3275862,12.1833333 56.0482759,12.2777777 C55.7689656,12.2777777 55.5827587,12.3722222 55.3034483,12.3722222 C54.0931035,12.3722222 53.4413793,11.6166666 53.4413793,10.2 Z" id="Path"></path>
                    <path d="M64.7068966,8.21666666 L59.3068966,8.21666666 C59.4,10.0111111 60.2379311,10.8611111 61.8206897,10.8611111 C62.1931035,10.8611111 62.5655173,10.7666666 63.0310345,10.6722222 C63.4034483,10.5777777 63.8689656,10.4833333 64.2413793,10.2944444 L64.6137931,11.6166666 C63.6827587,12.0888889 62.6586207,12.2777777 61.4482759,12.2777777 C60.6103449,12.2777777 59.8655173,12.0888889 59.2137931,11.8055555 C58.562069,11.4277777 58.1896552,10.9555555 57.8172414,10.3888889 C57.5379311,9.72777773 57.3517242,8.97222222 57.3517242,8.12222222 C57.3517242,7.17777777 57.5379311,6.42222222 57.8172414,5.76111111 C58.0965518,5.1 58.562069,4.53333333 59.2137931,4.25 C59.7724138,3.87222222 60.424138,3.68333333 61.1689656,3.68333333 C61.9137931,3.68333333 62.5655173,3.87222222 63.124138,4.25 C63.6827587,4.62777777 64.0551724,5.1 64.3344828,5.76111111 C64.6137931,6.42222222 64.7068966,7.08333333 64.7068966,7.83888889 L64.7068966,8.21666666 L64.7068966,8.21666666 Z M62.8448276,6.98888889 C62.8448276,6.32777777 62.6586207,5.85555555 62.3793104,5.47777777 C62.1,5.1 61.7275862,5.00555555 61.1689656,5.00555555 C60.7034483,5.00555555 60.2379311,5.19444444 59.9586207,5.47777777 C59.6793104,5.85555555 59.4,6.32777777 59.3068966,6.98888889 L62.8448276,6.98888889 Z" id="Shape"></path>
                    <path d="M66.2896552,5.85555555 C66.2896552,5.38333333 66.2896552,4.72222222 66.1965518,3.77777777 L67.9655173,3.77777777 C67.9655173,3.96666666 68.0586207,4.25 68.0586207,4.62777777 C68.0586207,4.91111111 68.1517242,5.19444444 68.1517242,5.38333333 C68.3379311,5.00555555 68.6172414,4.72222222 68.8034483,4.43888889 C68.9896552,4.15555555 69.2689656,3.96666666 69.5482759,3.77777777 C69.8275862,3.58888889 70.2,3.49444444 70.4793104,3.49444444 C70.7586207,3.49444444 71.0379311,3.49444444 71.224138,3.58888889 L70.9448276,5.28888889 C70.7586207,5.19444444 70.5724138,5.19444444 70.2931035,5.19444444 C69.8275862,5.19444444 69.4551724,5.28888889 69.0827587,5.57222222 C68.7103449,5.85555555 68.4310345,6.13888889 68.0586207,6.70555555 L68.0586207,12.0888889 L66.1965518,12.0888889 L66.1965518,5.85555555 L66.2896552,5.85555555 Z" id="Path"></path>
                    <path d="M72.4344828,15.6777777 C72.1551724,15.5833333 71.9689656,15.5833333 71.7827587,15.4888889 L72.1551724,14.0722222 C72.2482759,14.0722222 72.4344828,14.1666666 72.6206897,14.1666666 C72.8068966,14.1666666 72.9931035,14.2611111 73.1793104,14.2611111 C74.0172414,14.2611111 74.6689656,13.6944444 75.0413793,12.6555555 L75.1344828,12.3722222 L72.062069,3.87222222 L74.1103449,3.87222222 L75.6931035,8.59444444 C75.9724138,9.44444443 76.0655173,10.0111111 76.1586207,10.4833333 C76.3448276,9.91666663 76.4379311,9.25555555 76.624138,8.68888889 L78.2068966,3.87222222 L80.162069,3.87222222 L77.0896552,12.3722222 C76.8103449,13.2222222 76.5310345,13.7888889 76.1586207,14.3555555 C75.7862069,14.8277777 75.4137931,15.2055555 74.9482759,15.4888889 C74.4827587,15.7722222 73.924138,15.8666666 73.2724138,15.8666666 C72.9931035,15.6777777 72.6206897,15.6777777 72.4344828,15.6777777 Z" id="Path"></path>
                </g>
                <g transform="translate(32.196467, 0.000000)" fill="#FFFFFF">
                    <polygon id="Path" points="-8.8817842e-16 2.22044605e-16 3.47230769 2.22044605e-16 3.37846153 0.7875 1.03230769 0.7875 1.03230769 2.275 3.28461538 2.275 3.28461538 2.975 1.03230769 2.975 1.03230769 4.6375 3.47230769 4.6375 3.37846153 5.425 -8.8817842e-16 5.425"></polygon>
                    <polygon id="Path" points="5.81846153 2.7125 4.03538461 2.22044605e-16 5.16153846 2.22044605e-16 6.38153846 2.0125 7.69538461 2.22044605e-16 8.82153846 2.22044605e-16 7.03846153 2.625 9.00923076 5.425 7.88307692 5.425 6.47538461 3.2375 5.0676923 5.425 3.8476923 5.425"></polygon>
                    <path d="M9.66615381,2.22044605e-16 L11.2615384,2.22044605e-16 C12.0123077,2.22044605e-16 12.5753846,0.175 12.9507692,0.4375 C13.3261538,0.7 13.5138461,1.1375 13.5138461,1.6625 C13.5138461,2.0125 13.42,2.3625 13.2323077,2.625 C13.0446154,2.8875 12.7630769,3.0625 12.4815384,3.2375 C12.2,3.4125 11.8246154,3.4125 11.3553846,3.4125 C11.1676923,3.4125 10.8861538,3.4125 10.6046154,3.325 L10.6046154,5.425 L9.57230771,5.425 L9.57230771,2.22044605e-16 L9.66615381,2.22044605e-16 Z M12.2,2.45 C12.3876923,2.275 12.4815384,2.0125 12.4815384,1.6625 C12.4815384,1.3125 12.3876923,1.05 12.1061538,0.9625 C11.9184615,0.7875 11.5430769,0.7 11.1676923,0.7 L10.6046154,0.7 L10.6046154,2.625 C10.8861538,2.625 11.0738461,2.7125 11.1676923,2.7125 C11.7307692,2.8 12.0123077,2.7125 12.2,2.45 Z" id="Shape"></path>
                    <polygon id="Path" points="14.5461538 2.22044605e-16 15.5784615 2.22044605e-16 15.5784615 4.6375 18.0184615 4.6375 17.9246154 5.5125 14.5461538 5.5125"></polygon>
                    <path d="M19.52,5.25 C19.0507692,4.9875 18.7692308,4.725 18.5815384,4.2875 C18.3938461,3.85 18.2061538,3.4125 18.2061538,2.8 C18.2061538,2.1875 18.3,1.75 18.5815384,1.3125 C18.8630769,0.875 19.1446154,0.525 19.6138461,0.35 C20.0830769,0.0875 20.6461538,2.22044605e-16 21.2092308,2.22044605e-16 C21.7723077,2.22044605e-16 22.3353846,0.0875 22.7107692,0.35 C23.18,0.6125 23.4615384,0.875 23.6492308,1.3125 C23.8369231,1.75 24.0246154,2.1875 24.0246154,2.7125 C24.0246154,3.325 23.9307692,3.85 23.6492308,4.2875 C23.3676923,4.725 23.0861538,5.075 22.6169231,5.25 C22.1476923,5.5125 21.6784615,5.6 21.0215384,5.6 C20.5523077,5.6 19.9892308,5.5125 19.52,5.25 Z M22.2415384,4.55 C22.5230769,4.375 22.7107692,4.1125 22.8984615,3.85 C22.9923077,3.5 23.0861538,3.15 23.0861538,2.8 C23.0861538,2.45 22.9923077,2.0125 22.8984615,1.75 C22.8046154,1.4 22.6169231,1.225 22.3353846,1.05 C22.0538461,0.875 21.6784615,0.7875 21.3030769,0.7875 C20.9276923,0.7875 20.5523077,0.875 20.2707692,1.05 C19.9892308,1.225 19.8015384,1.4875 19.6138461,1.8375 C19.4261538,2.1875 19.4261538,2.45 19.4261538,2.8875 C19.4261538,3.325 19.52,3.675 19.6138461,3.9375 C19.7076923,4.2875 19.9892308,4.4625 20.2707692,4.6375 C20.5523077,4.8125 20.9276923,4.9 21.3030769,4.9 C21.5846154,4.8125 21.8661538,4.725 22.2415384,4.55 Z" id="Shape"></path>
                    <path d="M25.2446154,2.22044605e-16 L27.1215384,2.22044605e-16 C27.7784615,2.22044605e-16 28.3415384,0.0875 28.6230769,0.35 C28.9984615,0.6125 29.1861538,0.9625 29.1861538,1.4 C29.1861538,1.6625 29.0923077,1.925 28.9984615,2.1875 C28.9046154,2.45 28.7169231,2.625 28.5292308,2.7125 C28.3415384,2.8875 28.1538461,2.975 27.9661538,3.0625 L29.7492308,5.5125 L28.5292308,5.5125 L27.0276923,3.325 L26.2769231,3.325 L26.2769231,5.5125 L25.2446154,5.5125 L25.2446154,2.22044605e-16 L25.2446154,2.22044605e-16 Z M26.84,2.625 C27.1215384,2.625 27.3092308,2.5375 27.4969231,2.45 C27.6846154,2.3625 27.8723077,2.275 27.9661538,2.1 C28.06,1.925 28.1538461,1.75 28.1538461,1.575 C28.1538461,1.3125 28.06,1.1375 27.8723077,0.9625 C27.6846154,0.875 27.4030769,0.7875 27.0276923,0.7875 L26.2769231,0.7875 L26.2769231,2.625 L26.84,2.625 Z" id="Shape"></path>
                    <polygon id="Path" points="30.5 2.22044605e-16 33.9723077 2.22044605e-16 33.8784615 0.7875 31.5323077 0.7875 31.5323077 2.275 33.7846154 2.275 33.7846154 2.975 31.5323077 2.975 31.5323077 4.6375 33.9723077 4.6375 33.8784615 5.5125 30.5 5.5125"></polygon>
                    <polygon id="Path" points="37.7261538 2.22044605e-16 38.7584615 2.22044605e-16 38.7584615 5.5125 37.7261538 5.5125"></polygon>
                    <polygon id="Path" points="41.3861538 0.875 39.6030769 0.875 39.6969231 0.0875 44.2953846 0.0875 44.2015384 0.875 42.5123077 0.875 42.5123077 5.6 41.3861538 5.6"></polygon>
                    <path d="M48.7061538,5.25 C48.2369231,4.9875 47.9553846,4.725 47.7676923,4.2875 C47.58,3.85 47.3923077,3.4125 47.3923077,2.8 C47.3923077,2.1875 47.4861538,1.75 47.7676923,1.3125 C48.0492308,0.875 48.3307692,0.525 48.8,0.35 C49.2692308,0.0875 49.8323077,2.22044605e-16 50.3953846,2.22044605e-16 C50.9584615,2.22044605e-16 51.5215384,0.0875 51.8969231,0.35 C52.3661538,0.6125 52.6476923,0.875 52.8353846,1.3125 C53.0230769,1.75 53.2107692,2.1875 53.2107692,2.7125 C53.2107692,3.325 53.1169231,3.85 52.8353846,4.2875 C52.5538461,4.725 52.2723077,5.075 51.8030769,5.25 C51.3338461,5.5125 50.8646154,5.6 50.2076923,5.6 C49.6446154,5.6 49.0815384,5.5125 48.7061538,5.25 Z M51.3338461,4.55 C51.6153846,4.375 51.8030769,4.1125 51.9907692,3.85 C52.0846154,3.5 52.1784615,3.15 52.1784615,2.8 C52.1784615,2.45 52.0846154,2.0125 51.9907692,1.75 C51.8969231,1.4 51.7092308,1.225 51.4276923,1.05 C51.1461538,0.875 50.7707692,0.7875 50.3953846,0.7875 C50.02,0.7875 49.6446154,0.875 49.3630769,1.05 C49.0815384,1.225 48.8938461,1.4875 48.7061538,1.8375 C48.5184615,2.1875 48.5184615,2.45 48.5184615,2.8875 C48.5184615,3.325 48.6123077,3.675 48.7061538,3.9375 C48.8,4.2875 49.0815384,4.4625 49.3630769,4.6375 C49.6446154,4.8125 50.02,4.9 50.3953846,4.9 C50.6769231,4.8125 51.0523077,4.725 51.3338461,4.55 Z" id="Shape"></path>
                    <path d="M54.3369231,2.22044605e-16 L55.4630769,2.22044605e-16 L58.3723077,4.2 C58.3723077,3.7625 58.3723077,3.4125 58.3723077,3.0625 L58.3723077,2.22044605e-16 L59.3107692,2.22044605e-16 L59.3107692,5.5125 L58.1846154,5.5125 L55.2753846,1.225 C55.2753846,1.75 55.2753846,2.1875 55.2753846,2.5375 L55.2753846,5.5125 L54.3369231,5.5125 L54.3369231,2.22044605e-16 Z" id="Path"></path>
                </g>
                <g transform="translate(0.000000, 0.042857)">
                    <g id="形状_1_拷贝_25_32_" fill="#C8102E">
                        <path d="M17.5925926,0 L6.85185185,0 C1.85185185,0 0,1.85714286 0,6.87142857 L0,17.55 C0,22.5642858 1.85185185,24.4214286 6.85185185,24.4214286 L17.5,24.4214286 C22.5,24.4214286 24.3518519,22.5642858 24.3518519,17.55 L24.3518519,6.87142857 C24.4444445,1.85714286 22.5925926,0 17.5925926,0 Z" id="Path"></path>
                    </g>
                    <path d="M4.81481481,12.2571429 L5.46296296,12.2571429 L5.46296296,15.5071429 L4.81481481,15.5071429 L4.81481481,14.2071429 L3.42592592,14.2071429 L3.42592592,15.5071429 L2.77777778,15.5071429 L2.77777778,12.2571429 L3.42592592,12.2571429 L3.42592592,13.5571429 L4.90740741,13.5571429 L4.90740741,12.2571429 L4.81481481,12.2571429 Z M8.51851852,14.1142858 C8.51851852,14.6714286 8.24074074,14.95 7.77777778,14.95 C7.31481481,14.95 7.03703704,14.6714286 7.03703704,14.1142858 L7.03703704,12.2571429 L6.38888889,12.2571429 L6.38888889,14.1142858 C6.38888889,15.0428572 6.85185185,15.5071429 7.77777778,15.5071429 C8.61111111,15.5071429 9.16666666,14.95 9.16666666,14.0214286 L9.16666666,12.2571429 L8.51851852,12.2571429 L8.51851852,14.1142858 Z M16.0185186,14.4857143 L15.2777778,12.2571429 L14.7222223,12.2571429 L13.9814815,14.4857143 L13.3333334,12.2571429 L12.6851852,12.2571429 L13.7962963,15.5071429 L14.3518519,15.5071429 L15.0925926,13.3714286 L15.8333334,15.5071429 L16.3888889,15.5071429 L17.5,12.2571429 L16.8518519,12.2571429 L16.0185186,14.4857143 Z M18.5185186,14.1142858 L19.7222223,14.1142858 L19.7222223,13.5571429 L18.5185186,13.5571429 L18.5185186,12.9071429 L20.1851852,12.9071429 L20.1851852,12.2571429 L17.8703704,12.2571429 L17.8703704,15.4142858 L20.2777778,15.4142858 L20.2777778,14.8571429 L18.5185186,14.8571429 L18.5185186,14.1142858 L18.5185186,14.1142858 Z M21.1111112,15.4142858 L21.7592593,15.4142858 L21.7592593,12.2571429 L21.1111112,12.2571429 L21.1111112,15.4142858 Z M10.462963,14.7642858 L10.1851852,15.4142858 L9.53703705,15.4142858 L10.925926,12.2571429 L11.4814815,12.2571429 L12.8703704,15.4142858 L12.2222223,15.4142858 L11.9444445,14.7642858 L10.462963,14.7642858 Z M10.6481482,14.2071429 L11.6666667,14.2071429 L11.2037038,13.0928572 L10.6481482,14.2071429 Z" id="Shape" fill="#FFFFFF"></path>
                    <path d="M12.2222223,8.17142857 C9.99999995,8.17142857 8.14814815,6.31428572 8.14814815,4.08571429 L8.7037037,4.08571429 C8.7037037,6.03571429 10.2777778,7.61428572 12.2222223,7.61428572 C14.1666667,7.61428572 15.7407408,6.03571429 15.7407408,4.08571429 L16.2962963,4.08571429 C16.2962963,6.31428572 14.4444445,8.17142857 12.2222223,8.17142857 Z" id="Path" fill="#FFFFFF"></path>
                </g>
            </g>
        </g>
    </g>
</svg>