<svg width="560" height="15" viewBox="0 0 560 15" fill="none" xmlns="http://www.w3.org/2000/svg">
<g clip-path="url(#clip0)">
<path fill-rule="evenodd" clip-rule="evenodd" d="M557.649 8.26141C558.315 8.92541 559.434 8.70641 559.29 10.5534C559.29 13.3714 557.524 13.4534 556.29 13.4534C555.056 13.4534 553.337 9.25341 551.526 9.06041C551.239 8.98302 550.938 8.976 550.648 9.03995C550.357 9.1039 550.087 9.23692 549.859 9.42773C549.631 9.61854 549.453 9.8615 549.339 10.136C549.225 10.4105 549.179 10.7084 549.205 11.0044C549.156 11.3645 549.239 11.7302 549.438 12.0337C549.638 12.3372 549.942 12.5577 550.292 12.6544C550.799 12.6544 550.945 12.1694 550.945 11.4894C550.945 10.8094 550.583 11.7804 550.292 11.1974C550.001 10.6144 550.727 10.2254 551.163 10.2254C551.599 10.2254 551.742 11.6824 551.416 12.6544C552.394 12.8544 552.468 12.9454 554.134 11.5844C553.481 12.5594 553.334 12.6524 553.7 13.7254C552.757 12.6554 550.836 13.4564 550.347 13.4924C550.085 13.5081 549.823 13.4576 549.585 13.3454C549.347 13.2332 549.142 13.063 548.987 12.8504C548.646 12.3393 548.441 11.75 548.39 11.1378C548.34 10.5257 548.445 9.91065 548.697 9.35041C549.014 8.78166 549.529 8.34896 550.144 8.13426C550.759 7.91956 551.431 7.93776 552.033 8.18541L556.355 12.3004C556.573 12.4266 556.822 12.4886 557.074 12.4794C557.325 12.4703 557.569 12.3902 557.777 12.2486C557.985 12.1069 558.149 11.9093 558.25 11.6786C558.351 11.4479 558.384 11.1934 558.347 10.9444C558.491 9.09841 555.914 8.46541 555.056 8.13741C555.992 7.69741 558.577 7.20741 558.432 5.36141C558.36 3.61041 556.948 3.27441 556.44 3.56141L552.033 7.78541C551.43 8.03117 550.758 8.04776 550.144 7.83203C549.529 7.61631 549.015 7.1832 548.698 6.61441C548.446 6.05429 548.34 5.43918 548.391 4.82692C548.441 4.21467 548.647 3.62536 548.988 3.11441C549.142 2.90164 549.348 2.73115 549.586 2.61861C549.823 2.50607 550.085 2.45511 550.348 2.47041C550.837 2.50641 552.758 3.30841 553.701 2.23841C553.338 3.31141 553.482 3.40641 554.135 4.37841C552.469 3.01741 552.395 3.11541 551.417 3.30841C551.743 4.28041 551.599 5.74041 551.164 5.74041C550.729 5.74041 550.003 5.34841 550.293 4.76541C550.583 4.18241 550.946 5.15441 550.946 4.47641C550.946 3.79841 550.8 3.30841 550.293 3.30841C549.942 3.40515 549.638 3.62618 549.438 3.93031C549.238 4.23443 549.156 4.6009 549.206 4.96141C549.18 5.25727 549.227 5.55493 549.341 5.82914C549.455 6.10334 549.633 6.34599 549.861 6.5365C550.089 6.727 550.359 6.85974 550.649 6.92344C550.939 6.98714 551.24 6.97993 551.527 6.90241C553.338 6.70941 555.316 2.40241 556.547 2.40241C557.778 2.40241 559.29 2.70241 559.29 5.52041C559.434 7.37241 558.315 7.59141 557.649 8.26141ZM531.795 8.04241C531.13 8.70641 529.157 9.25241 529.301 11.0984C529.301 13.9174 530.901 14.9844 532.129 14.9844C533.357 14.9844 543.438 9.25241 545.249 9.05941C545.536 8.98197 545.837 8.97493 546.127 9.03887C546.418 9.10281 546.688 9.23585 546.916 9.42669C547.143 9.61752 547.322 9.86051 547.436 10.135C547.549 10.4095 547.595 10.7074 547.569 11.0034C547.618 11.3635 547.536 11.7292 547.336 12.0327C547.136 12.3362 546.832 12.5567 546.482 12.6534C545.976 12.6534 545.83 12.1684 545.83 11.4884C545.83 10.8084 546.192 11.7794 546.482 11.1964C546.772 10.6134 546.048 10.2244 545.612 10.2244C545.176 10.2244 545.033 11.6814 545.358 12.6534C544.381 12.8534 544.306 12.9444 542.641 11.5834C543.294 12.5584 543.441 12.6514 543.075 13.7244C544.018 12.6544 545.939 13.4554 546.428 13.4914C546.69 13.5072 546.952 13.4567 547.19 13.3445C547.428 13.2323 547.633 13.062 547.788 12.8494C548.129 12.3383 548.334 11.749 548.385 11.1368C548.435 10.5247 548.33 9.90965 548.078 9.34941C547.761 8.78107 547.246 8.34876 546.631 8.13426C546.017 7.91976 545.345 7.93796 544.743 8.18541L532.492 13.7244C531.983 14.0154 530.316 13.2394 530.244 11.4914C530.099 9.64541 532.081 9.01241 532.944 8.68441L532.756 11.1994C532.971 11.2531 533.196 11.2531 533.411 11.1994C533.473 10.3555 533.584 9.51583 533.741 8.68441L535.041 8.58441V9.82741L535.619 9.72741C535.583 9.34727 535.583 8.96456 535.619 8.58441C536.047 8.47513 536.486 8.40814 536.927 8.38441C537.023 8.12296 537.023 7.83586 536.927 7.57441C536.486 7.5517 536.048 7.48708 535.619 7.38141C535.583 7.00027 535.583 6.61656 535.619 6.23541L535.041 6.13541V7.38541L533.741 7.28541C533.583 6.45367 533.473 5.61365 533.411 4.76941C533.196 4.71735 532.971 4.71735 532.756 4.76941L532.939 7.28541C532.081 6.95741 530.099 6.32441 530.239 4.48541C530.311 2.73441 531.978 1.95841 532.487 2.25041L544.743 7.78541C545.346 8.03243 546.018 8.05021 546.633 7.83539C547.248 7.62057 547.763 7.18802 548.081 6.61941C548.333 6.05929 548.439 5.44418 548.388 4.83192C548.338 4.21967 548.132 3.63036 547.791 3.11941C547.637 2.90664 547.431 2.73615 547.193 2.62361C546.956 2.51107 546.694 2.46011 546.431 2.47541C545.942 2.51141 544.021 3.31341 543.078 2.24341C543.441 3.31641 543.297 3.41141 542.644 4.38341C544.309 3.02241 544.384 3.12041 545.361 3.31341C545.036 4.28541 545.18 5.74541 545.615 5.74541C546.05 5.74541 546.776 5.35341 546.485 4.77041C546.194 4.18741 545.833 5.15941 545.833 4.48141C545.833 3.80341 545.979 3.31341 546.485 3.31341C546.836 3.41015 547.14 3.63118 547.34 3.93531C547.54 4.23943 547.622 4.6059 547.572 4.96641C547.598 5.2623 547.552 5.56008 547.438 5.83443C547.324 6.10879 547.146 6.35161 546.918 6.54226C546.691 6.73292 546.42 6.86576 546.13 6.92951C545.84 6.99325 545.539 6.98602 545.252 6.90841C543.438 6.71741 533.36 0.985413 532.129 0.985413C530.898 0.985413 529.301 2.05241 529.301 4.87141C529.157 6.71741 531.13 7.37241 531.795 8.04241ZM526.788 8.04241C527.453 8.70641 529.426 9.25241 529.282 11.0984C529.282 13.9164 527.682 14.9844 526.454 14.9844C525.226 14.9844 515.145 9.25241 513.334 9.05941C513.047 8.98197 512.746 8.97493 512.456 9.03887C512.165 9.10281 511.895 9.23585 511.667 9.42669C511.44 9.61752 511.261 9.86051 511.147 10.135C511.034 10.4095 510.988 10.7074 511.014 11.0034C510.965 11.3635 511.048 11.7292 511.247 12.0327C511.447 12.3362 511.751 12.5567 512.101 12.6534C512.607 12.6534 512.753 12.1684 512.753 11.4884C512.753 10.8084 512.391 11.7794 512.101 11.1964C511.811 10.6134 512.535 10.2244 512.971 10.2244C513.407 10.2244 513.55 11.6814 513.225 12.6534C514.202 12.8534 514.277 12.9444 515.942 11.5834C515.289 12.5584 515.142 12.6514 515.508 13.7244C514.565 12.6544 512.644 13.4554 512.155 13.4914C511.893 13.5071 511.631 13.4566 511.393 13.3444C511.155 13.2322 510.95 13.062 510.795 12.8494C510.454 12.3383 510.249 11.749 510.198 11.1368C510.148 10.5247 510.253 9.90965 510.505 9.34941C510.822 8.78107 511.337 8.34876 511.952 8.13426C512.566 7.91976 513.238 7.93796 513.84 8.18541L526.091 13.7244C526.6 14.0154 528.267 13.2394 528.339 11.4914C528.483 9.64541 526.502 9.01241 525.644 8.68441L525.832 11.1994C525.617 11.2531 525.392 11.2531 525.177 11.1994C525.115 10.3555 525.004 9.51583 524.847 8.68441L523.542 8.58441V9.82741L522.964 9.72741C523 9.34727 523 8.96456 522.964 8.58441C522.536 8.47514 522.097 8.40815 521.656 8.38441C521.56 8.12326 521.56 7.83656 521.656 7.57541C522.097 7.5527 522.535 7.48808 522.964 7.38241C523 7.00127 523 6.61756 522.964 6.23641L523.542 6.13641V7.38541L524.847 7.28541C525.005 6.45367 525.115 5.61365 525.177 4.76941C525.392 4.71735 525.617 4.71735 525.832 4.76941L525.644 7.28541C526.502 6.95741 528.483 6.32441 528.339 4.48541C528.267 2.73441 526.6 1.95841 526.091 2.24941L513.84 7.78541C513.237 8.03117 512.565 8.04776 511.951 7.83203C511.336 7.61631 510.822 7.1832 510.505 6.61441C510.253 6.05429 510.147 5.43918 510.198 4.82692C510.248 4.21467 510.454 3.62536 510.795 3.11441C510.95 2.90164 511.155 2.73115 511.393 2.61861C511.63 2.50607 511.893 2.45511 512.155 2.47041C512.644 2.50641 514.565 3.30841 515.508 2.23841C515.145 3.31141 515.289 3.40641 515.942 4.37841C514.277 3.01741 514.202 3.11541 513.225 3.30841C513.55 4.28041 513.406 5.74041 512.971 5.74041C512.536 5.74041 511.81 5.34841 512.101 4.76541C512.392 4.18241 512.753 5.15441 512.753 4.47641C512.753 3.79841 512.607 3.30841 512.101 3.30841C511.75 3.40515 511.446 3.62618 511.246 3.93031C511.046 4.23443 510.964 4.6009 511.014 4.96141C510.988 5.25722 511.034 5.55488 511.148 5.8291C511.262 6.10332 511.44 6.34601 511.668 6.53654C511.896 6.72707 512.166 6.85983 512.456 6.92352C512.746 6.98722 513.047 6.97998 513.334 6.90241C515.145 6.71741 525.223 0.985413 526.454 0.985413C527.685 0.985413 529.281 2.05241 529.281 4.87141C529.426 6.71741 527.453 7.37241 526.788 8.04241ZM493.599 8.04241C492.933 8.70641 490.96 9.25241 491.099 11.0984C491.099 13.9174 492.699 14.9844 493.928 14.9844C495.157 14.9844 505.236 9.25241 507.048 9.05941C507.335 8.98197 507.636 8.97493 507.926 9.03887C508.217 9.10281 508.487 9.23585 508.715 9.42669C508.942 9.61752 509.121 9.86051 509.235 10.135C509.348 10.4095 509.394 10.7074 509.368 11.0034C509.417 11.3635 509.334 11.7292 509.135 12.0327C508.935 12.3362 508.631 12.5567 508.281 12.6534C507.775 12.6534 507.629 12.1684 507.629 11.4884C507.629 10.8084 507.991 11.7794 508.281 11.1964C508.571 10.6134 507.847 10.2244 507.41 10.2244C506.973 10.2244 506.832 11.6814 507.157 12.6534C506.179 12.8534 506.105 12.9444 504.44 11.5834C505.092 12.5584 505.24 12.6514 504.874 13.7244C505.817 12.6544 507.738 13.4554 508.227 13.4914C508.489 13.5073 508.751 13.4568 508.989 13.3446C509.226 13.2324 509.432 13.0621 509.586 12.8494C509.927 12.3384 510.133 11.7492 510.184 11.137C510.234 10.5248 510.129 9.90969 509.877 9.34941C509.56 8.78225 509.046 8.35076 508.433 8.13633C507.819 7.92191 507.148 7.93936 506.547 8.18541L494.295 13.7244C493.787 14.0154 492.119 13.2394 492.047 11.4914C491.903 9.64541 493.885 9.01241 494.747 8.68441L494.559 11.1994C494.774 11.2532 494.999 11.2532 495.214 11.1994C495.276 10.3555 495.386 9.51581 495.543 8.68441L496.849 8.58441V9.82741L497.427 9.72741C497.391 9.34727 497.391 8.96456 497.427 8.58441C497.855 8.47513 498.294 8.40814 498.735 8.38441C498.831 8.12296 498.831 7.83586 498.735 7.57441C498.294 7.5517 497.856 7.48708 497.427 7.38141C497.391 7.00027 497.391 6.61656 497.427 6.23541L496.849 6.13541V7.38541L495.543 7.28541C495.386 6.45369 495.276 5.61366 495.214 4.76941C494.999 4.71731 494.774 4.71731 494.559 4.76941L494.743 7.28541C493.885 6.95741 491.903 6.32441 492.043 4.48541C492.115 2.73441 493.783 1.95841 494.291 2.25041L506.547 7.78541C507.149 8.0313 507.821 8.04849 508.435 7.83373C509.049 7.61896 509.563 7.18708 509.881 6.61941C510.133 6.05925 510.239 5.44407 510.188 4.83177C510.137 4.21947 509.931 3.6302 509.59 3.11941C509.436 2.90659 509.23 2.73603 508.993 2.62348C508.755 2.51093 508.493 2.46 508.231 2.47541C507.742 2.51141 505.821 3.31341 504.878 2.24341C505.24 3.31641 505.096 3.41141 504.444 4.38341C506.109 3.02241 506.183 3.12041 507.161 3.31341C506.836 4.28541 506.98 5.74541 507.414 5.74541C507.848 5.74541 508.576 5.35341 508.285 4.77041C507.994 4.18741 507.633 5.15941 507.633 4.48141C507.633 3.80341 507.779 3.31341 508.285 3.31341C508.636 3.41015 508.94 3.63118 509.14 3.93531C509.34 4.23943 509.422 4.6059 509.372 4.96641C509.398 5.2623 509.352 5.56008 509.238 5.83443C509.124 6.10879 508.946 6.35161 508.718 6.54226C508.491 6.73292 508.22 6.86576 507.93 6.92951C507.64 6.99325 507.339 6.98602 507.052 6.90841C505.241 6.71741 495.164 0.985413 493.933 0.985413C492.702 0.985413 491.104 2.05241 491.104 4.87141C490.96 6.71741 492.933 7.37241 493.599 8.04241ZM488.591 8.04241C489.257 8.70641 491.23 9.25241 491.091 11.0984C491.091 13.9164 489.491 14.9844 488.262 14.9844C487.033 14.9844 476.954 9.25241 475.142 9.05941C474.855 8.98197 474.554 8.97493 474.264 9.03887C473.973 9.10281 473.703 9.23585 473.475 9.42669C473.248 9.61752 473.069 9.86051 472.955 10.135C472.842 10.4095 472.796 10.7074 472.822 11.0034C472.773 11.3635 472.856 11.7292 473.055 12.0327C473.255 12.3362 473.559 12.5567 473.909 12.6534C474.415 12.6534 474.562 12.1684 474.562 11.4884C474.562 10.8084 474.199 11.7794 473.909 11.1964C473.619 10.6134 474.344 10.2244 474.78 10.2244C475.216 10.2244 475.358 11.6814 475.033 12.6534C476.011 12.8534 476.085 12.9444 477.751 11.5834C477.098 12.5584 476.951 12.6514 477.316 13.7244C476.373 12.6544 474.453 13.4554 473.964 13.4914C473.702 13.5072 473.44 13.4567 473.202 13.3445C472.964 13.2323 472.759 13.062 472.604 12.8494C472.263 12.3384 472.058 11.7491 472.007 11.1369C471.956 10.5247 472.062 9.9096 472.314 9.34941C472.631 8.78209 473.145 8.35047 473.758 8.13602C474.372 7.92157 475.043 7.93914 475.644 8.18541L487.895 13.7244C488.404 14.0154 490.071 13.2394 490.143 11.4914C490.287 9.64541 488.305 9.01241 487.443 8.68441L487.631 11.1994C487.416 11.2532 487.191 11.2532 486.976 11.1994C486.916 10.3559 486.807 9.51655 486.651 8.68541L485.346 8.58541V9.82741L484.767 9.72741C484.803 9.34727 484.803 8.96456 484.767 8.58441C484.339 8.47515 483.901 8.40816 483.46 8.38441C483.364 8.12326 483.364 7.83656 483.46 7.57541C483.901 7.5527 484.338 7.48807 484.767 7.38241C484.803 7.00127 484.803 6.61756 484.767 6.23641L485.346 6.13641V7.38541L486.651 7.28541C486.808 6.45369 486.918 5.61366 486.98 4.76941C487.195 4.71731 487.42 4.71731 487.635 4.76941L487.447 7.28541C488.305 6.95741 490.287 6.32441 490.147 4.48541C490.075 2.73441 488.408 1.95841 487.899 2.24941L475.644 7.78541C475.041 8.03117 474.369 8.04776 473.755 7.83203C473.14 7.61631 472.626 7.1832 472.309 6.61441C472.056 6.05433 471.951 5.4392 472.001 4.8269C472.052 4.21461 472.258 3.62529 472.599 3.11441C472.753 2.90157 472.959 2.73103 473.197 2.61848C473.434 2.50594 473.696 2.45502 473.959 2.47041C474.448 2.50641 476.368 3.30841 477.311 2.23841C476.949 3.31141 477.093 3.40641 477.746 4.37841C476.08 3.01741 476.006 3.11541 475.028 3.30841C475.353 4.28041 475.209 5.74041 474.775 5.74041C474.341 5.74041 473.614 5.34841 473.904 4.76541C474.194 4.18241 474.557 5.15441 474.557 4.47641C474.557 3.79841 474.41 3.30841 473.904 3.30841C473.553 3.40515 473.249 3.62618 473.049 3.93031C472.849 4.23443 472.767 4.6009 472.817 4.96141C472.791 5.25716 472.838 5.5547 472.952 5.82881C473.066 6.10291 473.244 6.34549 473.472 6.53597C473.699 6.72645 473.97 6.85922 474.259 6.92301C474.549 6.9868 474.85 6.97973 475.137 6.90241C476.949 6.71741 487.026 0.985413 488.257 0.985413C489.488 0.985413 491.086 2.05341 491.086 4.87141C491.23 6.71741 489.257 7.37241 488.591 8.04241ZM462.734 8.26041C462.069 8.92441 460.949 8.70641 461.093 10.5524C461.093 13.3704 462.859 13.4524 464.093 13.4524C465.327 13.4524 467.046 9.25241 468.858 9.05941C469.145 8.98197 469.446 8.97493 469.736 9.03887C470.027 9.10281 470.297 9.23585 470.525 9.42669C470.752 9.61752 470.931 9.86051 471.045 10.135C471.158 10.4095 471.204 10.7074 471.178 11.0034C471.227 11.3635 471.144 11.7292 470.945 12.0327C470.745 12.3362 470.441 12.5567 470.091 12.6534C469.584 12.6534 469.438 12.1684 469.438 11.4884C469.438 10.8084 469.801 11.7794 470.091 11.1964C470.381 10.6134 469.657 10.2244 469.22 10.2244C468.783 10.2244 468.642 11.6814 468.967 12.6534C467.989 12.8534 467.915 12.9444 466.249 11.5834C466.902 12.5584 467.049 12.6504 466.684 13.7234C467.627 12.6534 469.547 13.4544 470.036 13.4904C470.298 13.5062 470.56 13.4557 470.798 13.3435C471.036 13.2313 471.241 13.061 471.396 12.8484C471.737 12.3375 471.943 11.7482 471.993 11.1359C472.044 10.5236 471.938 9.90854 471.686 9.34841C471.368 8.78002 470.854 8.34774 470.239 8.13342C469.624 7.9191 468.952 7.93759 468.35 8.18541L464.029 12.3014C463.811 12.4274 463.562 12.4894 463.31 12.4802C463.059 12.4709 462.815 12.3909 462.607 12.2493C462.398 12.1077 462.235 11.9102 462.134 11.6795C462.033 11.4489 461.999 11.1944 462.036 10.9454C461.892 9.09941 464.47 8.46641 465.327 8.13841C464.391 7.69841 461.807 7.20841 461.951 5.36241C462.023 3.61141 463.435 3.27541 463.944 3.56241L468.35 7.78541C468.952 8.03069 469.623 8.04754 470.236 7.8328C470.85 7.61806 471.363 7.18653 471.681 6.61941C471.934 6.0594 472.04 5.44421 471.989 4.83187C471.938 4.21952 471.733 3.63018 471.391 3.11941C471.236 2.90664 471.031 2.73615 470.793 2.62361C470.556 2.51107 470.294 2.46011 470.031 2.47541C469.542 2.51141 467.622 3.31341 466.679 2.24341C467.041 3.31641 466.897 3.41141 466.244 4.38341C467.91 3.02241 467.984 3.11941 468.962 3.31341C468.637 4.28541 468.781 5.74541 469.215 5.74541C469.649 5.74541 470.376 5.35341 470.086 4.77041C469.796 4.18741 469.433 5.15941 469.433 4.48141C469.433 3.80341 469.579 3.31341 470.086 3.31341C470.439 3.4086 470.745 3.6294 470.947 3.93434C471.148 4.23928 471.232 4.60736 471.181 4.96941C471.206 5.26516 471.16 5.5627 471.046 5.83681C470.932 6.11091 470.754 6.35349 470.526 6.54397C470.299 6.73445 470.028 6.86722 469.739 6.93101C469.449 6.9948 469.148 6.98773 468.861 6.91041C467.049 6.71741 465.072 2.41041 463.841 2.41041C462.61 2.41041 461.097 2.71041 461.097 5.52841C460.949 7.37241 462.069 7.59141 462.734 8.26041ZM459.434 8.26041C460.1 8.92441 461.219 8.70541 461.075 10.5524C461.075 13.3704 459.309 13.4524 458.075 13.4524C456.841 13.4524 455.122 9.25241 453.311 9.05941C453.024 8.98202 452.723 8.975 452.433 9.03895C452.142 9.1029 451.872 9.23592 451.644 9.42673C451.416 9.61754 451.238 9.8605 451.124 10.135C451.01 10.4095 450.964 10.7074 450.99 11.0034C450.941 11.3635 451.024 11.7292 451.223 12.0327C451.423 12.3362 451.727 12.5567 452.077 12.6534C452.584 12.6534 452.73 12.1684 452.73 11.4884C452.73 10.8084 452.368 11.7794 452.077 11.1964C451.786 10.6134 452.512 10.2244 452.948 10.2244C453.384 10.2244 453.527 11.6814 453.201 12.6534C454.179 12.8534 454.253 12.9444 455.919 11.5834C455.266 12.5584 455.119 12.6514 455.484 13.7244C454.542 12.6544 452.621 13.4554 452.132 13.4914C451.87 13.5072 451.608 13.4567 451.37 13.3445C451.132 13.2323 450.927 13.062 450.772 12.8494C450.431 12.3383 450.226 11.749 450.175 11.1368C450.125 10.5247 450.23 9.90965 450.482 9.34941C450.799 8.78202 451.313 8.35036 451.927 8.13592C452.54 7.92148 453.211 7.93908 453.813 8.18541L458.135 12.3004C458.353 12.4266 458.602 12.4886 458.854 12.4794C459.105 12.4703 459.349 12.3902 459.557 12.2486C459.765 12.1069 459.929 11.9093 460.03 11.6786C460.131 11.4479 460.164 11.1934 460.127 10.9444C460.271 9.09841 457.694 8.46541 456.836 8.13741C457.772 7.69741 460.356 7.20741 460.213 5.36141C460.14 3.61041 458.728 3.27441 458.22 3.56141L453.813 7.78541C453.211 8.03074 452.54 8.04763 451.926 7.8329C451.313 7.61816 450.799 7.18661 450.481 6.61941C450.229 6.05929 450.123 5.44418 450.174 4.83192C450.224 4.21967 450.43 3.63036 450.771 3.11941C450.925 2.90657 451.131 2.73603 451.369 2.62348C451.606 2.51094 451.868 2.46002 452.131 2.47541C452.62 2.51141 454.541 3.31341 455.483 2.24341C455.121 3.31641 455.265 3.41141 455.918 4.38341C454.252 3.02241 454.178 3.12041 453.2 3.31341C453.526 4.28541 453.382 5.74541 452.947 5.74541C452.512 5.74541 451.786 5.35341 452.076 4.77041C452.366 4.18741 452.729 5.15941 452.729 4.48141C452.729 3.80341 452.583 3.31341 452.076 3.31341C451.725 3.41015 451.421 3.63118 451.221 3.93531C451.021 4.23943 450.939 4.6059 450.989 4.96641C450.963 5.26227 451.01 5.55993 451.124 5.83414C451.238 6.10834 451.416 6.35099 451.644 6.5415C451.872 6.732 452.142 6.86474 452.432 6.92844C452.722 6.99214 453.023 6.98493 453.31 6.90741C455.121 6.71441 457.099 2.40741 458.33 2.40741C459.561 2.40741 461.073 2.70741 461.073 5.52541C461.214 7.37241 460.095 7.59141 459.429 8.26141L459.434 8.26041ZM433.58 8.04141C432.915 8.70541 430.942 9.25141 431.086 11.0974C431.086 13.9164 432.681 14.9834 433.914 14.9834C435.147 14.9834 445.223 9.25141 447.034 9.05841C447.321 8.98097 447.622 8.97393 447.912 9.03787C448.202 9.10181 448.473 9.23485 448.701 9.42569C448.928 9.61652 449.107 9.85952 449.221 10.134C449.334 10.4085 449.38 10.7064 449.354 11.0024C449.403 11.3625 449.32 11.7282 449.121 12.0317C448.921 12.3352 448.617 12.5557 448.267 12.6524C447.761 12.6524 447.615 12.1674 447.615 11.4874C447.615 10.8074 447.977 11.7784 448.267 11.1954C448.557 10.6124 447.833 10.2234 447.397 10.2234C446.961 10.2234 446.818 11.6804 447.143 12.6524C446.166 12.8524 446.091 12.9434 444.426 11.5824C445.079 12.5574 445.226 12.6504 444.86 13.7234C445.803 12.6534 447.724 13.4544 448.213 13.4904C448.475 13.5062 448.737 13.4557 448.975 13.3435C449.213 13.2313 449.418 13.061 449.573 12.8484C449.914 12.3373 450.119 11.748 450.17 11.1358C450.22 10.5237 450.115 9.90865 449.863 9.34841C449.545 8.77907 449.03 8.34613 448.414 8.13175C447.798 7.91737 447.126 7.93647 446.523 8.18541L434.272 13.7244C433.763 14.0154 432.096 13.2394 432.024 11.4914C431.881 9.64241 433.861 9.00941 434.719 8.68541L434.531 11.2004C434.746 11.2541 434.971 11.2541 435.186 11.2004C435.248 10.3565 435.359 9.51683 435.516 8.68541L436.821 8.58541V9.82741L437.399 9.72741C437.363 9.34727 437.363 8.96456 437.399 8.58441C437.827 8.47513 438.265 8.40814 438.707 8.38441C438.803 8.12296 438.803 7.83586 438.707 7.57441C438.266 7.5517 437.828 7.48708 437.399 7.38141C437.363 7.00027 437.363 6.61656 437.399 6.23541L436.821 6.13541V7.38541L435.516 7.28541C435.358 6.45367 435.248 5.61365 435.186 4.76941C434.971 4.71735 434.746 4.71735 434.531 4.76941L434.719 7.28541C433.861 6.95741 431.879 6.32441 432.024 4.48541C432.096 2.73441 433.763 1.95841 434.272 2.25041L446.523 7.78541C447.126 8.03117 447.798 8.04776 448.412 7.83203C449.027 7.61631 449.541 7.1832 449.858 6.61441C450.11 6.05429 450.216 5.43918 450.165 4.82692C450.115 4.21467 449.909 3.62536 449.568 3.11441C449.413 2.90164 449.208 2.73115 448.97 2.61861C448.733 2.50607 448.471 2.45511 448.208 2.47041C447.719 2.50641 445.798 3.30841 444.855 2.23841C445.218 3.31141 445.074 3.40641 444.421 4.37841C446.086 3.01741 446.161 3.11541 447.138 3.30841C446.813 4.28041 446.957 5.74041 447.392 5.74041C447.827 5.74041 448.553 5.34841 448.262 4.76541C447.971 4.18241 447.61 5.15441 447.61 4.47641C447.61 3.79841 447.756 3.30841 448.262 3.30841C448.613 3.40515 448.917 3.62618 449.117 3.93031C449.317 4.23443 449.399 4.6009 449.349 4.96141C449.375 5.2573 449.329 5.55508 449.215 5.82943C449.101 6.10379 448.923 6.34661 448.695 6.53726C448.468 6.72792 448.197 6.86076 447.907 6.92451C447.617 6.98825 447.316 6.98102 447.029 6.90341C445.218 6.71741 435.14 0.985413 433.909 0.985413C432.678 0.985413 431.081 2.05241 431.081 4.87141C430.937 6.71741 432.91 7.37241 433.575 8.04241L433.58 8.04141ZM428.573 8.04141C429.238 8.70541 431.211 9.25141 431.067 11.0974C431.067 13.9154 429.467 14.9834 428.238 14.9834C427.009 14.9834 416.93 9.25141 415.119 9.05841C414.832 8.98102 414.531 8.974 414.241 9.03795C413.95 9.1019 413.68 9.23492 413.452 9.42573C413.224 9.61654 413.046 9.8595 412.932 10.134C412.818 10.4085 412.772 10.7064 412.798 11.0024C412.749 11.3626 412.832 11.7284 413.032 12.0319C413.232 12.3354 413.536 12.5559 413.886 12.6524C414.392 12.6524 414.538 12.1674 414.538 11.4874C414.538 10.8074 414.176 11.7784 413.886 11.1954C413.596 10.6124 414.32 10.2234 414.756 10.2234C415.192 10.2234 415.335 11.6804 415.01 12.6524C415.987 12.8524 416.062 12.9434 417.727 11.5824C417.074 12.5574 416.927 12.6504 417.293 13.7234C416.35 12.6534 414.429 13.4544 413.94 13.4904C413.678 13.5061 413.416 13.4556 413.178 13.3434C412.94 13.2312 412.735 13.061 412.58 12.8484C412.239 12.3373 412.034 11.748 411.983 11.1358C411.933 10.5237 412.038 9.90865 412.29 9.34841C412.607 8.78143 413.121 8.35015 413.735 8.13591C414.348 7.92168 415.019 7.93928 415.62 8.18541L427.871 13.7244C428.38 14.0154 430.047 13.2394 430.119 11.4914C430.263 9.64541 428.282 9.01241 427.419 8.68441L427.606 11.1994C427.391 11.2532 427.167 11.2532 426.952 11.1994C426.89 10.3555 426.779 9.51583 426.622 8.68441L425.317 8.58441V9.82741L424.738 9.72741C424.775 9.34729 424.775 8.96453 424.738 8.58441C424.31 8.47507 423.872 8.40808 423.431 8.38441C423.335 8.12326 423.335 7.83656 423.431 7.57541C423.872 7.55277 424.309 7.48814 424.738 7.38241C424.775 7.00129 424.775 6.61753 424.738 6.23641L425.317 6.13641V7.38541L426.622 7.28541C426.78 6.45367 426.89 5.61365 426.952 4.76941C427.167 4.71736 427.391 4.71736 427.606 4.76941L427.424 7.28541C428.282 6.95741 430.263 6.32441 430.124 4.48541C430.047 2.73341 428.381 1.95741 427.871 2.24841L415.62 7.78541C415.017 8.03271 414.344 8.05063 413.729 7.8358C413.114 7.62097 412.599 7.18825 412.281 6.61941C412.029 6.05929 411.923 5.44418 411.974 4.83192C412.024 4.21967 412.23 3.63036 412.571 3.11941C412.726 2.90664 412.931 2.73615 413.169 2.62361C413.406 2.51107 413.668 2.46011 413.931 2.47541C414.42 2.51141 416.341 3.31341 417.284 2.24341C416.921 3.31641 417.065 3.41141 417.718 4.38341C416.053 3.02241 415.978 3.12041 415.001 3.31341C415.326 4.28541 415.182 5.74541 414.747 5.74541C414.312 5.74541 413.586 5.35341 413.877 4.77041C414.168 4.18741 414.529 5.15941 414.529 4.48141C414.529 3.80341 414.383 3.31341 413.877 3.31341C413.526 3.40995 413.222 3.6309 413.022 3.93504C412.822 4.23919 412.739 4.60577 412.789 4.96641C412.763 5.26227 412.81 5.55993 412.924 5.83414C413.038 6.10834 413.216 6.35099 413.444 6.5415C413.672 6.732 413.942 6.86474 414.232 6.92844C414.522 6.99214 414.823 6.98493 415.11 6.90741C416.925 6.71741 427.003 0.985413 428.233 0.985413C429.463 0.985413 431.062 2.05341 431.062 4.87141C431.206 6.71741 429.233 7.37241 428.568 8.04241L428.573 8.04141ZM395.384 8.04141C394.718 8.70541 392.745 9.25141 392.884 11.0974C392.884 13.9164 394.484 14.9834 395.713 14.9834C396.942 14.9834 407.021 9.25141 408.833 9.05841C409.12 8.98097 409.421 8.97393 409.711 9.03787C410.002 9.10181 410.272 9.23485 410.5 9.42569C410.727 9.61652 410.906 9.85952 411.02 10.134C411.133 10.4085 411.179 10.7064 411.153 11.0024C411.202 11.3625 411.119 11.7282 410.92 12.0317C410.72 12.3352 410.416 12.5557 410.066 12.6524C409.56 12.6524 409.414 12.1674 409.414 11.4874C409.414 10.8074 409.776 11.7784 410.066 11.1954C410.356 10.6124 409.632 10.2234 409.195 10.2234C408.758 10.2234 408.617 11.6804 408.942 12.6524C407.964 12.8524 407.89 12.9434 406.225 11.5824C406.877 12.5574 407.025 12.6504 406.659 13.7234C407.602 12.6534 409.523 13.4544 410.011 13.4904C410.273 13.5063 410.536 13.4558 410.773 13.3436C411.011 13.2314 411.217 13.0611 411.371 12.8484C411.712 12.3374 411.918 11.7482 411.969 11.136C412.019 10.5238 411.914 9.90869 411.662 9.34841C411.345 8.78025 410.83 8.34815 410.215 8.13384C409.601 7.91953 408.929 7.93788 408.327 8.18541L396.075 13.7244C395.567 14.0154 393.899 13.2394 393.827 11.4914C393.683 9.64541 395.665 9.01241 396.527 8.68441L396.339 11.1994C396.554 11.2532 396.779 11.2532 396.994 11.1994C397.056 10.3555 397.166 9.51581 397.323 8.68441L398.629 8.58441V9.82741L399.207 9.72741C399.171 9.34727 399.171 8.96456 399.207 8.58441C399.635 8.47513 400.074 8.40814 400.515 8.38441C400.61 8.12272 400.61 7.83611 400.515 7.57441C400.074 7.5517 399.636 7.48708 399.207 7.38141C399.171 7.00027 399.171 6.61656 399.207 6.23541L398.629 6.13541V7.38541L397.323 7.28541C397.166 6.45369 397.056 5.61366 396.994 4.76941C396.779 4.71731 396.554 4.71731 396.339 4.76941L396.523 7.28541C395.665 6.95741 393.683 6.32441 393.823 4.48541C393.895 2.73441 395.563 1.95841 396.071 2.25041L408.327 7.78541C408.93 8.03117 409.602 8.04776 410.216 7.83203C410.831 7.61631 411.345 7.1832 411.662 6.61441C411.914 6.05425 412.02 5.43907 411.969 4.82677C411.918 4.21447 411.712 3.6252 411.371 3.11441C411.217 2.90157 411.011 2.73103 410.773 2.61848C410.536 2.50594 410.274 2.45502 410.011 2.47041C409.523 2.50641 407.602 3.30841 406.659 2.23841C407.021 3.31141 406.877 3.40641 406.225 4.37841C407.89 3.01741 407.964 3.11541 408.942 3.30841C408.617 4.28041 408.761 5.74041 409.195 5.74041C409.629 5.74041 410.356 5.34841 410.066 4.76541C409.776 4.18241 409.414 5.15441 409.414 4.47641C409.414 3.79841 409.56 3.30841 410.066 3.30841C410.417 3.40515 410.721 3.62618 410.921 3.93031C411.121 4.23443 411.203 4.6009 411.153 4.96141C411.179 5.2573 411.133 5.55508 411.019 5.82943C410.905 6.10379 410.727 6.34661 410.499 6.53726C410.272 6.72792 410.001 6.86076 409.711 6.92451C409.421 6.98825 409.12 6.98102 408.833 6.90341C407.021 6.71741 396.944 0.985413 395.713 0.985413C394.482 0.985413 392.881 2.05241 392.881 4.87141C392.74 6.71741 394.713 7.37241 395.381 8.04241L395.384 8.04141ZM390.376 8.04141C391.042 8.70541 393.015 9.25141 392.876 11.0974C392.876 13.9154 391.276 14.9834 390.047 14.9834C388.818 14.9834 378.739 9.25141 376.927 9.05841C376.64 8.98097 376.339 8.97393 376.049 9.03787C375.758 9.10181 375.488 9.23485 375.26 9.42569C375.033 9.61652 374.854 9.85952 374.74 10.134C374.627 10.4085 374.581 10.7064 374.607 11.0024C374.558 11.3625 374.641 11.7282 374.84 12.0317C375.04 12.3352 375.344 12.5557 375.694 12.6524C376.2 12.6524 376.347 12.1674 376.347 11.4874C376.347 10.8074 375.984 11.7784 375.694 11.1954C375.404 10.6124 376.128 10.2234 376.565 10.2234C377.002 10.2234 377.143 11.6804 376.818 12.6524C377.796 12.8524 377.87 12.9434 379.536 11.5824C378.883 12.5574 378.736 12.6504 379.101 13.7234C378.158 12.6534 376.238 13.4544 375.749 13.4904C375.487 13.5062 375.225 13.4557 374.987 13.3435C374.749 13.2313 374.544 13.061 374.389 12.8484C374.048 12.3375 373.842 11.7482 373.792 11.1359C373.741 10.5236 373.847 9.90854 374.099 9.34841C374.416 8.78244 374.929 8.35186 375.541 8.13767C376.154 7.92348 376.823 7.94046 377.424 8.18541L389.675 13.7244C390.183 14.0154 391.851 13.2394 391.923 11.4914C392.067 9.64541 390.085 9.01241 389.223 8.68441L389.411 11.1994C389.196 11.2532 388.971 11.2532 388.756 11.1994C388.696 10.3559 388.587 9.51655 388.431 8.68541L387.125 8.58541V9.82741L386.547 9.72741C386.583 9.34727 386.583 8.96456 386.547 8.58441C386.119 8.47515 385.681 8.40816 385.24 8.38441C385.144 8.12326 385.144 7.83656 385.24 7.57541C385.681 7.5527 386.118 7.48807 386.547 7.38241C386.583 7.00127 386.583 6.61756 386.547 6.23641L387.125 6.13641V7.38541L388.431 7.28541C388.588 6.45369 388.698 5.61366 388.76 4.76941C388.975 4.71731 389.2 4.71731 389.415 4.76941L389.227 7.28541C390.085 6.95741 392.067 6.32441 391.927 4.48541C391.855 2.73441 390.187 1.95841 389.679 2.24941L377.424 7.78541C376.821 8.03117 376.149 8.04776 375.535 7.83203C374.92 7.61631 374.406 7.1832 374.089 6.61441C373.836 6.0544 373.73 5.43921 373.781 4.82687C373.832 4.21452 374.037 3.62518 374.379 3.11441C374.533 2.90157 374.739 2.73103 374.977 2.61848C375.214 2.50594 375.476 2.45502 375.739 2.47041C376.228 2.50641 378.148 3.30841 379.091 2.23841C378.729 3.31141 378.873 3.40641 379.526 4.37841C377.86 3.01741 377.786 3.11541 376.808 3.30841C377.133 4.28041 376.989 5.74041 376.555 5.74041C376.121 5.74041 375.394 5.34841 375.684 4.76541C375.974 4.18241 376.337 5.15441 376.337 4.47641C376.337 3.79841 376.19 3.30841 375.684 3.30841C375.333 3.40515 375.029 3.62618 374.829 3.93031C374.629 4.23443 374.547 4.6009 374.597 4.96141C374.571 5.25716 374.618 5.5547 374.732 5.82881C374.846 6.10291 375.024 6.34549 375.252 6.53597C375.479 6.72645 375.75 6.85922 376.039 6.92301C376.329 6.9868 376.63 6.97973 376.917 6.90241C378.729 6.71741 388.806 0.985413 390.037 0.985413C391.268 0.985413 392.866 2.05341 392.866 4.87141C393.01 6.71741 391.037 7.37241 390.371 8.04241L390.376 8.04141ZM364.519 8.25941C363.854 8.92341 362.734 8.70541 362.878 10.5514C362.878 13.3694 364.644 13.4514 365.878 13.4514C367.112 13.4514 368.831 9.25141 370.643 9.05841C370.93 8.98097 371.231 8.97393 371.521 9.03787C371.812 9.10181 372.082 9.23485 372.31 9.42569C372.537 9.61652 372.716 9.85952 372.83 10.134C372.943 10.4085 372.989 10.7064 372.963 11.0024C373.012 11.3625 372.929 11.7282 372.73 12.0317C372.53 12.3352 372.226 12.5557 371.876 12.6524C371.369 12.6524 371.223 12.1674 371.223 11.4874C371.223 10.8074 371.586 11.7784 371.876 11.1954C372.166 10.6124 371.442 10.2234 371.005 10.2234C370.568 10.2234 370.427 11.6804 370.752 12.6524C369.774 12.8524 369.7 12.9434 368.034 11.5824C368.687 12.5574 368.834 12.6494 368.469 13.7224C369.412 12.6524 371.332 13.4534 371.821 13.4894C372.083 13.5052 372.345 13.4547 372.583 13.3425C372.821 13.2303 373.026 13.06 373.181 12.8474C373.522 12.3364 373.727 11.7471 373.778 11.1349C373.829 10.5227 373.723 9.9076 373.471 9.34741C373.153 8.77801 372.637 8.34512 372.022 8.13091C371.406 7.91671 370.733 7.9361 370.13 8.18541L365.809 12.3014C365.591 12.4274 365.342 12.4894 365.09 12.4802C364.839 12.4709 364.595 12.3909 364.387 12.2493C364.178 12.1077 364.015 11.9102 363.914 11.6795C363.813 11.4489 363.779 11.1944 363.816 10.9454C363.672 9.09941 366.25 8.46641 367.107 8.13841C366.171 7.69841 363.587 7.20841 363.731 5.36241C363.803 3.61141 365.215 3.27541 365.724 3.56241L370.13 7.78541C370.733 8.0314 371.405 8.04809 372.02 7.83235C372.634 7.61661 373.148 7.18336 373.465 6.61441C373.718 6.05433 373.823 5.4392 373.773 4.8269C373.722 4.21461 373.516 3.62529 373.175 3.11441C373.02 2.90164 372.815 2.73115 372.577 2.61861C372.34 2.50607 372.077 2.45511 371.815 2.47041C371.326 2.50641 369.406 3.30841 368.463 2.23841C368.825 3.31141 368.681 3.40641 368.028 4.37841C369.694 3.01741 369.768 3.11441 370.746 3.30841C370.421 4.28041 370.565 5.74041 370.999 5.74041C371.433 5.74041 372.16 5.34841 371.87 4.76541C371.58 4.18241 371.217 5.15441 371.217 4.47641C371.217 3.79841 371.363 3.30841 371.87 3.30841C372.221 3.40515 372.525 3.62618 372.725 3.93031C372.925 4.23443 373.007 4.6009 372.957 4.96141C372.982 5.25716 372.936 5.5547 372.822 5.82881C372.708 6.10291 372.53 6.34549 372.302 6.53597C372.075 6.72645 371.804 6.85922 371.515 6.92301C371.225 6.9868 370.924 6.97973 370.637 6.90241C368.825 6.70941 366.848 2.40241 365.617 2.40241C364.386 2.40241 362.873 2.70241 362.873 5.52041C362.729 7.37241 363.849 7.59141 364.514 8.26041L364.519 8.25941ZM361.214 8.25941C361.879 8.92341 362.999 8.70441 362.855 10.5514C362.855 13.3694 361.089 13.4514 359.855 13.4514C358.621 13.4514 356.902 9.25141 355.091 9.05841C354.804 8.98102 354.503 8.974 354.213 9.03795C353.922 9.1019 353.652 9.23492 353.424 9.42573C353.196 9.61654 353.018 9.8595 352.904 10.134C352.79 10.4085 352.744 10.7064 352.77 11.0024C352.721 11.3625 352.804 11.7282 353.003 12.0317C353.203 12.3352 353.507 12.5557 353.857 12.6524C354.364 12.6524 354.51 12.1674 354.51 11.4874C354.51 10.8074 354.148 11.7784 353.857 11.1954C353.566 10.6124 354.292 10.2234 354.728 10.2234C355.164 10.2234 355.307 11.6804 354.981 12.6524C355.959 12.8524 356.033 12.9434 357.699 11.5824C357.046 12.5574 356.899 12.6504 357.264 13.7234C356.322 12.6534 354.401 13.4544 353.912 13.4904C353.65 13.5062 353.388 13.4557 353.15 13.3435C352.912 13.2313 352.707 13.061 352.552 12.8484C352.211 12.3374 352.006 11.7481 351.955 11.1359C351.904 10.5237 352.01 9.9086 352.262 9.34841C352.579 8.78103 353.093 8.34945 353.707 8.13518C354.321 7.92091 354.992 7.93878 355.593 8.18541L359.915 12.3004C360.133 12.4266 360.382 12.4886 360.634 12.4794C360.885 12.4703 361.129 12.3902 361.337 12.2486C361.545 12.1069 361.709 11.9093 361.81 11.6786C361.911 11.4479 361.944 11.1934 361.907 10.9444C362.051 9.09841 359.474 8.46541 358.616 8.13741C359.552 7.69741 362.136 7.20741 361.992 5.36141C361.92 3.61041 360.508 3.27441 360 3.56141L355.593 7.78541C354.99 8.03117 354.318 8.04776 353.704 7.83203C353.089 7.61631 352.575 7.1832 352.258 6.61441C352.005 6.05433 351.9 5.4392 351.95 4.8269C352.001 4.21461 352.207 3.62529 352.548 3.11441C352.702 2.90157 352.908 2.73103 353.146 2.61848C353.383 2.50594 353.645 2.45502 353.908 2.47041C354.397 2.50641 356.318 3.30841 357.26 2.23841C356.898 3.31141 357.042 3.40641 357.695 4.37841C356.029 3.01741 355.955 3.11541 354.977 3.30841C355.303 4.28041 355.158 5.74041 354.724 5.74041C354.29 5.74041 353.563 5.34841 353.853 4.76541C354.143 4.18241 354.506 5.15441 354.506 4.47641C354.506 3.79841 354.36 3.30841 353.853 3.30841C353.502 3.40515 353.198 3.62618 352.998 3.93031C352.798 4.23443 352.716 4.6009 352.766 4.96141C352.74 5.25727 352.787 5.55493 352.901 5.82914C353.015 6.10334 353.193 6.34599 353.421 6.5365C353.649 6.727 353.919 6.85974 354.209 6.92344C354.499 6.98714 354.8 6.97993 355.087 6.90241C356.898 6.70941 358.876 2.40241 360.107 2.40241C361.338 2.40241 362.85 2.70241 362.85 5.52041C362.994 7.37241 361.874 7.59141 361.209 8.26141L361.214 8.25941ZM335.36 8.04041C334.695 8.70441 332.722 9.25041 332.866 11.0964C332.866 13.9154 334.466 14.9824 335.694 14.9824C336.922 14.9824 347.003 9.25041 348.814 9.05741C349.101 8.97997 349.402 8.97293 349.692 9.03687C349.982 9.10081 350.253 9.23385 350.481 9.42469C350.708 9.61552 350.887 9.85851 351.001 10.133C351.114 10.4075 351.16 10.7054 351.134 11.0014C351.183 11.3615 351.1 11.7272 350.901 12.0307C350.701 12.3342 350.397 12.5547 350.047 12.6514C349.541 12.6514 349.395 12.1664 349.395 11.4864C349.395 10.8064 349.757 11.7774 350.047 11.1944C350.337 10.6114 349.613 10.2224 349.177 10.2224C348.741 10.2224 348.598 11.6794 348.923 12.6514C347.945 12.8514 347.871 12.9424 346.206 11.5814C346.859 12.5564 347.006 12.6494 346.64 13.7224C347.583 12.6524 349.504 13.4534 349.993 13.4894C350.255 13.5053 350.517 13.4548 350.755 13.3426C350.992 13.2304 351.198 13.0601 351.352 12.8474C351.693 12.3364 351.899 11.7472 351.95 11.135C352 10.5228 351.895 9.90769 351.643 9.34741C351.325 8.77825 350.81 8.34552 350.194 8.13133C349.578 7.91714 348.905 7.93638 348.303 8.18541L336.052 13.7244C335.543 14.0154 333.876 13.2394 333.803 11.4914C333.659 9.64541 335.641 9.01241 336.503 8.68441L336.315 11.1994C336.53 11.2531 336.755 11.2531 336.97 11.1994C337.032 10.3555 337.142 9.51574 337.3 8.68441L338.605 8.58441V9.82741L339.183 9.72741C339.147 9.34727 339.147 8.96456 339.183 8.58441C339.611 8.47513 340.049 8.40814 340.491 8.38441C340.587 8.12296 340.587 7.83586 340.491 7.57441C340.049 7.55314 339.611 7.48985 339.181 7.38541C339.145 7.00427 339.145 6.62056 339.181 6.23941L338.603 6.13941V7.38541L337.298 7.28541C337.14 6.45376 337.03 5.61371 336.968 4.76941C336.753 4.71735 336.528 4.71735 336.313 4.76941L336.499 7.28541C335.641 6.95741 333.659 6.32441 333.799 4.48541C333.872 2.73441 335.539 1.95841 336.048 2.25041L348.303 7.78541C348.906 8.03117 349.578 8.04776 350.192 7.83203C350.807 7.61631 351.321 7.1832 351.638 6.61441C351.89 6.05425 351.996 5.43907 351.945 4.82677C351.894 4.21447 351.688 3.6252 351.347 3.11441C351.193 2.90159 350.987 2.73103 350.75 2.61848C350.512 2.50593 350.25 2.455 349.988 2.47041C349.499 2.50641 347.578 3.30841 346.635 2.23841C346.998 3.31141 346.854 3.40641 346.201 4.37841C347.866 3.01741 347.94 3.11541 348.918 3.30841C348.593 4.28041 348.737 5.74041 349.172 5.74041C349.607 5.74041 350.333 5.34841 350.042 4.76541C349.751 4.18241 349.39 5.15441 349.39 4.47641C349.39 3.79841 349.536 3.30841 350.042 3.30841C350.393 3.40515 350.697 3.62618 350.897 3.93031C351.097 4.23443 351.179 4.6009 351.129 4.96141C351.155 5.2573 351.109 5.55508 350.995 5.82943C350.881 6.10379 350.703 6.34661 350.475 6.53726C350.248 6.72792 349.977 6.86076 349.687 6.92451C349.397 6.98825 349.096 6.98102 348.809 6.90341C346.998 6.71741 336.92 0.985413 335.689 0.985413C334.458 0.985413 332.861 2.05241 332.861 4.87141C332.717 6.71741 334.69 7.37241 335.355 8.04241L335.36 8.04041ZM330.352 8.04041C331.018 8.70441 332.991 9.25041 332.852 11.0964C332.852 13.9144 331.257 14.9824 330.023 14.9824C328.789 14.9824 318.715 9.25041 316.904 9.05741C316.617 8.98002 316.316 8.973 316.026 9.03695C315.735 9.1009 315.465 9.23392 315.237 9.42473C315.009 9.61554 314.831 9.8585 314.717 10.133C314.603 10.4075 314.557 10.7054 314.583 11.0014C314.534 11.3615 314.617 11.7272 314.816 12.0307C315.016 12.3342 315.32 12.5547 315.67 12.6514C316.177 12.6514 316.323 12.1664 316.323 11.4864C316.323 10.8064 315.961 11.7774 315.67 11.1944C315.379 10.6114 316.105 10.2224 316.541 10.2224C316.977 10.2224 317.12 11.6794 316.794 12.6514C317.772 12.8514 317.847 12.9424 319.512 11.5814C318.859 12.5564 318.712 12.6494 319.078 13.7224C318.135 12.6524 316.214 13.4534 315.725 13.4894C315.463 13.5052 315.201 13.4547 314.963 13.3425C314.725 13.2303 314.52 13.06 314.365 12.8474C314.024 12.3363 313.819 11.747 313.768 11.1348C313.718 10.5227 313.823 9.90765 314.075 9.34741C314.392 8.78178 314.905 8.35154 315.518 8.13756C316.13 7.92359 316.799 7.9406 317.4 8.18541L329.651 13.7244C330.16 14.0154 331.827 13.2394 331.899 11.4914C332.043 9.64541 330.061 9.01241 329.204 8.68441L329.391 11.1994C329.176 11.2532 328.952 11.2532 328.737 11.1994C328.675 10.3555 328.564 9.51583 328.407 8.68441L327.107 8.58441V9.82741L326.528 9.72741C326.565 9.34729 326.565 8.96453 326.528 8.58441C326.1 8.47515 325.662 8.40816 325.221 8.38441C325.125 8.12326 325.125 7.83656 325.221 7.57541C325.662 7.5527 326.099 7.48807 326.528 7.38241C326.565 7.00129 326.565 6.61753 326.528 6.23641L327.107 6.13641V7.38541L328.407 7.28541C328.565 6.45367 328.675 5.61365 328.737 4.76941C328.952 4.71736 329.176 4.71736 329.391 4.76941L329.204 7.28541C330.061 6.95741 332.043 6.32441 331.899 4.48541C331.827 2.73441 330.16 1.95841 329.651 2.24941L317.4 7.78541C316.797 8.03117 316.125 8.04776 315.511 7.83203C314.896 7.61631 314.382 7.1832 314.065 6.61441C313.813 6.05429 313.707 5.43918 313.758 4.82692C313.808 4.21467 314.014 3.62536 314.355 3.11441C314.509 2.90157 314.715 2.73103 314.953 2.61848C315.19 2.50594 315.452 2.45502 315.715 2.47041C316.204 2.50641 318.125 3.30841 319.068 2.23841C318.705 3.31141 318.849 3.40641 319.502 4.37841C317.837 3.01741 317.762 3.11541 316.784 3.30841C317.11 4.28041 316.966 5.74041 316.531 5.74041C316.096 5.74041 315.37 5.34841 315.66 4.76541C315.95 4.18241 316.313 5.15441 316.313 4.47641C316.313 3.79841 316.167 3.30841 315.66 3.30841C315.309 3.40515 315.005 3.62618 314.805 3.93031C314.605 4.23443 314.523 4.6009 314.573 4.96141C314.547 5.25727 314.594 5.55493 314.708 5.82914C314.822 6.10334 315 6.34599 315.228 6.5365C315.456 6.727 315.726 6.85974 316.016 6.92344C316.306 6.98714 316.607 6.97993 316.894 6.90241C318.705 6.71741 328.781 0.985413 330.013 0.985413C331.245 0.985413 332.842 2.05341 332.842 4.87141C332.986 6.71741 331.013 7.37241 330.347 8.04241L330.352 8.04041ZM297.164 8.04041C296.498 8.70441 294.525 9.25041 294.664 11.0964C294.664 13.9154 296.264 14.9824 297.493 14.9824C298.722 14.9824 308.801 9.25041 310.613 9.05741C310.9 8.97997 311.201 8.97293 311.491 9.03687C311.782 9.10081 312.052 9.23385 312.28 9.42469C312.507 9.61552 312.686 9.85851 312.8 10.133C312.913 10.4075 312.959 10.7054 312.933 11.0014C312.982 11.3615 312.899 11.7272 312.7 12.0307C312.5 12.3342 312.196 12.5547 311.846 12.6514C311.34 12.6514 311.193 12.1664 311.193 11.4864C311.193 10.8064 311.556 11.7774 311.846 11.1944C312.136 10.6114 311.412 10.2224 310.975 10.2224C310.538 10.2224 310.397 11.6794 310.722 12.6514C309.744 12.8514 309.67 12.9424 308.005 11.5814C308.657 12.5564 308.805 12.6494 308.439 13.7224C309.382 12.6524 311.303 13.4534 311.792 13.4894C312.054 13.5052 312.316 13.4547 312.554 13.3425C312.791 13.2303 312.997 13.06 313.151 12.8474C313.492 12.3364 313.698 11.7472 313.749 11.135C313.799 10.5228 313.694 9.90769 313.442 9.34741C313.124 8.77943 312.61 8.34754 311.995 8.13341C311.381 7.91929 310.709 7.93779 310.107 8.18541L297.855 13.7244C297.347 14.0154 295.679 13.2394 295.607 11.4914C295.463 9.64541 297.445 9.01241 298.307 8.68441L298.119 11.1994C298.334 11.2532 298.559 11.2532 298.774 11.1994C298.836 10.3555 298.946 9.51581 299.103 8.68441L300.409 8.58441V9.82741L300.987 9.72741C300.951 9.34727 300.951 8.96456 300.987 8.58441C301.415 8.47513 301.853 8.40815 302.294 8.38441C302.39 8.12296 302.39 7.83586 302.294 7.57441C301.851 7.55339 301.412 7.4901 300.981 7.38541C300.945 7.00427 300.945 6.62056 300.981 6.23941L300.403 6.13941V7.38541L299.097 7.28541C298.94 6.45369 298.83 5.61366 298.768 4.76941C298.553 4.71731 298.328 4.71731 298.113 4.76941L298.303 7.28541C297.445 6.95741 295.463 6.32441 295.603 4.48541C295.675 2.73441 297.343 1.95841 297.851 2.25041L310.107 7.78541C310.71 8.03117 311.382 8.04776 311.996 7.83203C312.611 7.61631 313.125 7.1832 313.442 6.61441C313.694 6.05425 313.8 5.43907 313.749 4.82677C313.698 4.21447 313.492 3.6252 313.151 3.11441C312.997 2.90165 312.791 2.73115 312.554 2.6186C312.316 2.50606 312.054 2.4551 311.792 2.47041C311.303 2.50641 309.382 3.30841 308.439 2.23841C308.801 3.31141 308.657 3.40641 308.005 4.37841C309.67 3.01741 309.744 3.11541 310.722 3.30841C310.397 4.28041 310.541 5.74041 310.975 5.74041C311.409 5.74041 312.136 5.34841 311.846 4.76541C311.556 4.18241 311.193 5.15441 311.193 4.47641C311.193 3.79841 311.34 3.30841 311.846 3.30841C312.197 3.40515 312.501 3.62618 312.701 3.93031C312.901 4.23443 312.983 4.6009 312.933 4.96141C312.959 5.2573 312.913 5.55508 312.799 5.82943C312.685 6.10379 312.507 6.34661 312.279 6.53726C312.052 6.72792 311.781 6.86076 311.491 6.92451C311.201 6.98825 310.9 6.98102 310.613 6.90341C308.801 6.71741 298.724 0.985413 297.493 0.985413C296.262 0.985413 294.664 2.05241 294.664 4.87141C294.52 6.71741 296.493 7.37241 297.159 8.04241L297.164 8.04041ZM292.156 8.04041C292.822 8.70441 294.795 9.25041 294.656 11.0964C294.656 13.9144 293.056 14.9824 291.827 14.9824C290.598 14.9824 280.519 9.25041 278.707 9.05741C278.42 8.97997 278.119 8.97293 277.829 9.03687C277.538 9.10081 277.268 9.23385 277.04 9.42469C276.813 9.61552 276.634 9.85851 276.52 10.133C276.407 10.4075 276.361 10.7054 276.387 11.0014C276.338 11.3615 276.421 11.7272 276.62 12.0307C276.82 12.3342 277.124 12.5547 277.474 12.6514C277.98 12.6514 278.127 12.1664 278.127 11.4864C278.127 10.8064 277.764 11.7774 277.474 11.1944C277.184 10.6114 277.908 10.2224 278.345 10.2224C278.782 10.2224 278.923 11.6794 278.598 12.6514C279.576 12.8514 279.65 12.9424 281.316 11.5814C280.663 12.5564 280.516 12.6494 280.881 13.7224C279.938 12.6524 278.018 13.4534 277.529 13.4894C277.267 13.5052 277.005 13.4547 276.767 13.3425C276.529 13.2303 276.324 13.06 276.169 12.8474C275.828 12.3365 275.622 11.7472 275.572 11.1349C275.521 10.5226 275.627 9.90754 275.879 9.34741C276.196 8.78162 276.709 8.35125 277.322 8.13725C277.934 7.92325 278.603 7.94038 279.204 8.18541L291.455 13.7244C291.963 14.0154 293.631 13.2394 293.703 11.4914C293.847 9.64541 291.865 9.01241 291.003 8.68441L291.191 11.1994C290.976 11.2532 290.751 11.2532 290.536 11.1994C290.476 10.3559 290.367 9.51655 290.211 8.68541L288.905 8.58541V9.82741L288.327 9.72741C288.363 9.34727 288.363 8.96456 288.327 8.58441C287.899 8.47515 287.461 8.40816 287.02 8.38441C286.924 8.12326 286.924 7.83656 287.02 7.57541C287.461 7.5527 287.898 7.48807 288.327 7.38241C288.363 7.00127 288.363 6.61756 288.327 6.23641L288.905 6.13641V7.38541L290.211 7.28541C290.368 6.45369 290.478 5.61366 290.54 4.76941C290.755 4.71731 290.98 4.71731 291.195 4.76941L291.007 7.28541C291.865 6.95741 293.847 6.32441 293.707 4.48541C293.635 2.73441 291.967 1.95841 291.459 2.24941L279.204 7.78541C278.601 8.03117 277.929 8.04776 277.315 7.83203C276.7 7.61631 276.186 7.1832 275.869 6.61441C275.616 6.0544 275.51 5.43921 275.561 4.82687C275.612 4.21452 275.817 3.62518 276.159 3.11441C276.313 2.90157 276.519 2.73103 276.757 2.61848C276.994 2.50594 277.256 2.45502 277.519 2.47041C278.008 2.50641 279.928 3.30841 280.871 2.23841C280.509 3.31141 280.653 3.40641 281.306 4.37841C279.64 3.01741 279.566 3.11541 278.588 3.30841C278.913 4.28041 278.769 5.74041 278.335 5.74041C277.901 5.74041 277.174 5.34841 277.464 4.76541C277.754 4.18241 278.117 5.15441 278.117 4.47641C278.117 3.79841 277.97 3.30841 277.464 3.30841C277.112 3.40609 276.808 3.62867 276.609 3.93444C276.41 4.24021 276.329 4.60818 276.381 4.96941C276.355 5.26516 276.402 5.5627 276.516 5.83681C276.63 6.11091 276.808 6.35349 277.036 6.54397C277.263 6.73445 277.534 6.86722 277.823 6.93101C278.113 6.9948 278.414 6.98773 278.701 6.91041C280.509 6.71741 290.586 0.985413 291.817 0.985413C293.048 0.985413 294.646 2.05341 294.646 4.87141C294.79 6.71741 292.817 7.37241 292.151 8.04241L292.156 8.04041ZM266.299 8.25841C265.634 8.92241 264.514 8.70441 264.658 10.5504C264.658 13.3684 266.424 13.4504 267.658 13.4504C268.892 13.4504 270.611 9.25041 272.423 9.05741C272.71 8.97997 273.011 8.97293 273.301 9.03687C273.592 9.10081 273.862 9.23385 274.09 9.42469C274.317 9.61552 274.496 9.85851 274.61 10.133C274.723 10.4075 274.769 10.7054 274.743 11.0014C274.792 11.3615 274.709 11.7272 274.51 12.0307C274.31 12.3342 274.006 12.5547 273.656 12.6514C273.149 12.6514 273.003 12.1664 273.003 11.4864C273.003 10.8064 273.366 11.7774 273.656 11.1944C273.946 10.6114 273.221 10.2224 272.785 10.2224C272.349 10.2224 272.206 11.6794 272.532 12.6514C271.554 12.8514 271.48 12.9424 269.814 11.5814C270.467 12.5564 270.614 12.6484 270.249 13.7214C271.192 12.6514 273.112 13.4524 273.601 13.4884C273.863 13.5042 274.125 13.4537 274.363 13.3415C274.601 13.2293 274.806 13.059 274.961 12.8464C275.302 12.3354 275.507 11.7461 275.558 11.1339C275.609 10.5217 275.503 9.9066 275.251 9.34641C274.933 8.77719 274.417 8.34451 273.801 8.13049C273.185 7.91648 272.512 7.93602 271.91 8.18541L267.589 12.3014C267.371 12.4274 267.122 12.4894 266.87 12.4802C266.619 12.4709 266.375 12.3909 266.167 12.2493C265.958 12.1077 265.795 11.9102 265.694 11.6795C265.593 11.4489 265.559 11.1944 265.596 10.9454C265.452 9.09941 268.03 8.46641 268.887 8.13841C267.951 7.69841 265.367 7.20841 265.511 5.36241C265.583 3.61141 266.995 3.27541 267.503 3.56241L271.91 7.78541C272.513 8.0314 273.185 8.04809 273.8 7.83235C274.414 7.61661 274.928 7.18336 275.245 6.61441C275.498 6.05433 275.603 5.4392 275.553 4.8269C275.502 4.21461 275.296 3.62529 274.955 3.11441C274.8 2.90164 274.595 2.73115 274.357 2.61861C274.12 2.50607 273.857 2.45511 273.595 2.47041C273.106 2.50641 271.186 3.30841 270.243 2.23841C270.605 3.31141 270.461 3.40641 269.808 4.37841C271.474 3.01741 271.548 3.11441 272.526 3.30841C272.2 4.28041 272.345 5.74041 272.779 5.74041C273.213 5.74041 273.94 5.34841 273.65 4.76541C273.36 4.18241 272.997 5.15441 272.997 4.47641C272.997 3.79841 273.143 3.30841 273.65 3.30841C274.001 3.40515 274.305 3.62618 274.505 3.93031C274.705 4.23443 274.787 4.6009 274.737 4.96141C274.762 5.25716 274.716 5.5547 274.602 5.82881C274.488 6.10291 274.31 6.34549 274.082 6.53597C273.855 6.72645 273.584 6.85922 273.295 6.92301C273.005 6.9868 272.704 6.97973 272.417 6.90241C270.605 6.70941 268.628 2.40241 267.396 2.40241C266.164 2.40241 264.653 2.70241 264.653 5.52041C264.509 7.37241 265.629 7.59141 266.294 8.26041L266.299 8.25841ZM262.999 8.25841C263.664 8.92241 264.784 8.70341 264.64 10.5504C264.64 13.3684 262.874 13.4504 261.64 13.4504C260.406 13.4504 258.687 9.25041 256.875 9.05741C256.588 8.97997 256.287 8.97293 255.997 9.03687C255.706 9.10081 255.436 9.23385 255.208 9.42469C254.981 9.61552 254.802 9.85851 254.688 10.133C254.575 10.4075 254.529 10.7054 254.555 11.0014C254.506 11.3615 254.589 11.7272 254.788 12.0307C254.988 12.3342 255.292 12.5547 255.642 12.6514C256.149 12.6514 256.295 12.1664 256.295 11.4864C256.295 10.8064 255.933 11.7774 255.642 11.1944C255.351 10.6114 256.077 10.2224 256.513 10.2224C256.949 10.2224 257.091 11.6794 256.766 12.6514C257.744 12.8514 257.818 12.9424 259.484 11.5814C258.831 12.5564 258.684 12.6494 259.049 13.7224C258.106 12.6524 256.186 13.4534 255.697 13.4894C255.435 13.5052 255.173 13.4547 254.935 13.3425C254.697 13.2303 254.492 13.06 254.337 12.8474C253.996 12.3364 253.791 11.7471 253.74 11.1349C253.689 10.5227 253.795 9.9076 254.047 9.34741C254.364 8.78155 254.878 8.35114 255.49 8.13715C256.103 7.92316 256.772 7.94032 257.373 8.18541L261.694 12.3004C261.912 12.4264 262.161 12.4884 262.413 12.4792C262.664 12.4699 262.908 12.3899 263.116 12.2483C263.324 12.1067 263.488 11.9092 263.589 11.6785C263.69 11.4479 263.724 11.1934 263.687 10.9444C263.831 9.09841 261.254 8.46541 260.396 8.13741C261.332 7.69741 263.916 7.20741 263.772 5.36141C263.7 3.61041 262.288 3.27441 261.78 3.56141L257.373 7.78541C256.77 8.03117 256.098 8.04776 255.484 7.83203C254.869 7.61631 254.355 7.1832 254.038 6.61441C253.785 6.05433 253.68 5.4392 253.73 4.8269C253.781 4.21461 253.987 3.62529 254.328 3.11441C254.482 2.90157 254.688 2.73103 254.926 2.61848C255.163 2.50594 255.425 2.45502 255.688 2.47041C256.177 2.50641 258.097 3.30841 259.04 2.23841C258.678 3.31141 258.822 3.40641 259.475 4.37841C257.809 3.01741 257.735 3.11541 256.757 3.30841C257.082 4.28041 256.938 5.74041 256.504 5.74041C256.07 5.74041 255.343 5.34841 255.633 4.76541C255.923 4.18241 256.286 5.15441 256.286 4.47641C256.286 3.79841 256.14 3.30841 255.633 3.30841C255.282 3.40515 254.978 3.62618 254.778 3.93031C254.578 4.23443 254.496 4.6009 254.546 4.96141C254.52 5.25716 254.567 5.5547 254.681 5.82881C254.795 6.10291 254.973 6.34549 255.201 6.53597C255.428 6.72645 255.699 6.85922 255.988 6.92301C256.278 6.9868 256.579 6.97973 256.866 6.90241C258.678 6.70941 260.655 2.40241 261.887 2.40241C263.119 2.40241 264.63 2.70241 264.63 5.52041C264.774 7.37241 263.654 7.59141 262.989 8.26141L262.999 8.25841ZM237.145 8.03941C236.48 8.70341 234.506 9.24941 234.651 11.0954C234.651 13.9144 236.246 14.9814 237.479 14.9814C238.712 14.9814 248.788 9.24941 250.599 9.05641C250.886 8.97897 251.187 8.97193 251.477 9.03587C251.768 9.09981 252.038 9.23285 252.266 9.42369C252.493 9.61452 252.672 9.85752 252.786 10.132C252.899 10.4065 252.945 10.7044 252.919 11.0004C252.968 11.3605 252.885 11.7262 252.686 12.0297C252.486 12.3332 252.182 12.5537 251.832 12.6504C251.326 12.6504 251.18 12.1654 251.18 11.4854C251.18 10.8054 251.542 11.7764 251.832 11.1934C252.122 10.6104 251.398 10.2214 250.961 10.2214C250.524 10.2214 250.383 11.6784 250.708 12.6504C249.73 12.8504 249.656 12.9414 247.991 11.5804C248.643 12.5554 248.791 12.6484 248.425 13.7214C249.368 12.6514 251.289 13.4524 251.778 13.4884C252.04 13.5043 252.302 13.4538 252.54 13.3416C252.777 13.2294 252.983 13.0591 253.137 12.8464C253.478 12.3354 253.684 11.7462 253.735 11.134C253.785 10.5218 253.68 9.90669 253.428 9.34641C253.11 8.77577 252.593 8.34209 251.976 8.12799C251.359 7.91388 250.684 7.93432 250.081 8.18541L237.831 13.7214C237.323 14.0124 235.656 13.2364 235.583 11.4884C235.439 9.64241 237.421 9.00941 238.281 8.68541L238.093 11.2004C238.308 11.2542 238.533 11.2542 238.748 11.2004C238.811 10.3564 238.922 9.51668 239.081 8.68541L240.386 8.58541V9.82741L240.964 9.72741C240.928 9.34727 240.928 8.96456 240.964 8.58441C241.392 8.47513 241.83 8.40814 242.272 8.38441C242.368 8.12296 242.368 7.83586 242.272 7.57441C241.831 7.5517 241.393 7.48708 240.964 7.38141C240.928 7.00027 240.928 6.61656 240.964 6.23541L240.386 6.13541V7.38541L239.081 7.28541C238.923 6.45376 238.813 5.61371 238.751 4.76941C238.536 4.71731 238.311 4.71731 238.096 4.76941L238.281 7.28541C237.423 6.95741 235.441 6.32441 235.581 4.48541C235.654 2.73441 237.321 1.95841 237.829 2.25041L250.081 7.78541C250.684 8.03117 251.356 8.04776 251.97 7.83203C252.585 7.61631 253.099 7.1832 253.416 6.61441C253.668 6.05425 253.774 5.43907 253.723 4.82677C253.672 4.21447 253.466 3.6252 253.125 3.11441C252.971 2.90159 252.765 2.73103 252.528 2.61848C252.29 2.50593 252.028 2.455 251.766 2.47041C251.277 2.50641 249.356 3.30841 248.413 2.23841C248.776 3.31141 248.631 3.40641 247.979 4.37841C249.644 3.01741 249.718 3.11541 250.696 3.30841C250.371 4.28041 250.515 5.74041 250.949 5.74041C251.383 5.74041 252.111 5.34841 251.82 4.76541C251.529 4.18241 251.168 5.15441 251.168 4.47641C251.168 3.79841 251.314 3.30841 251.82 3.30841C252.171 3.40515 252.475 3.62618 252.675 3.93031C252.875 4.23443 252.957 4.6009 252.907 4.96141C252.933 5.2573 252.887 5.55508 252.773 5.82943C252.659 6.10379 252.481 6.34661 252.253 6.53726C252.026 6.72792 251.755 6.86076 251.465 6.92451C251.175 6.98825 250.874 6.98102 250.587 6.90341C248.781 6.71741 238.7 0.985413 237.469 0.985413C236.238 0.985413 234.641 2.05241 234.641 4.87141C234.496 6.71741 236.47 7.37241 237.135 8.04241L237.145 8.03941ZM232.137 8.03941C232.803 8.70341 234.776 9.24941 234.637 11.0954C234.637 13.9134 233.042 14.9814 231.808 14.9814C230.574 14.9814 220.481 9.25241 218.674 9.05941C218.387 8.98202 218.086 8.975 217.796 9.03895C217.505 9.1029 217.235 9.23592 217.007 9.42673C216.779 9.61754 216.601 9.8605 216.487 10.135C216.373 10.4095 216.327 10.7074 216.353 11.0034C216.304 11.3635 216.387 11.7292 216.586 12.0327C216.786 12.3362 217.09 12.5567 217.44 12.6534C217.947 12.6534 218.093 12.1684 218.093 11.4884C218.093 10.8084 217.731 11.7794 217.44 11.1964C217.149 10.6134 217.875 10.2244 218.311 10.2244C218.747 10.2244 218.89 11.6814 218.564 12.6534C219.542 12.8534 219.616 12.9444 221.282 11.5834C220.629 12.5584 220.482 12.6514 220.848 13.7244C219.905 12.6544 217.984 13.4554 217.495 13.4914C217.233 13.5072 216.971 13.4567 216.733 13.3445C216.495 13.2323 216.29 13.062 216.135 12.8494C215.794 12.3383 215.589 11.749 215.538 11.1368C215.488 10.5247 215.593 9.90965 215.845 9.34941C216.162 8.78084 216.677 8.34835 217.292 8.13384C217.907 7.91933 218.579 7.93768 219.181 8.18541L231.432 13.7244C231.941 14.0154 233.608 13.2394 233.68 11.4914C233.824 9.64541 231.842 9.01241 230.985 8.68441L231.172 11.1994C230.957 11.2532 230.733 11.2532 230.518 11.1994C230.456 10.3555 230.345 9.51583 230.188 8.68441L228.881 8.58541V9.82741L228.302 9.72741C228.338 9.34727 228.338 8.96456 228.302 8.58441C227.874 8.47515 227.436 8.40816 226.995 8.38441C226.899 8.12326 226.899 7.83656 226.995 7.57541C227.436 7.5527 227.873 7.48807 228.302 7.38241C228.338 7.00127 228.338 6.61756 228.302 6.23641L228.881 6.13641V7.38541L230.186 7.28541C230.344 6.45367 230.454 5.61365 230.516 4.76941C230.731 4.71736 230.955 4.71736 231.17 4.76941L230.981 7.28541C231.838 6.95741 233.82 6.32441 233.676 4.48541C233.604 2.73441 231.937 1.95841 231.428 2.24941L219.181 7.78541C218.578 8.03117 217.906 8.04776 217.292 7.83203C216.677 7.61631 216.163 7.1832 215.846 6.61441C215.594 6.05429 215.488 5.43918 215.539 4.82692C215.589 4.21467 215.795 3.62536 216.136 3.11441C216.29 2.90157 216.496 2.73103 216.734 2.61848C216.971 2.50594 217.233 2.45502 217.496 2.47041C217.985 2.50641 219.906 3.30841 220.849 2.23841C220.486 3.31141 220.63 3.40641 221.283 4.37841C219.617 3.01741 219.543 3.11541 218.565 3.30841C218.891 4.28041 218.747 5.74041 218.312 5.74041C217.877 5.74041 217.151 5.34841 217.441 4.76541C217.731 4.18241 218.094 5.15441 218.094 4.47641C218.094 3.79841 217.948 3.30841 217.441 3.30841C217.09 3.40515 216.786 3.62618 216.586 3.93031C216.386 4.23443 216.304 4.6009 216.354 4.96141C216.328 5.25727 216.375 5.55493 216.489 5.82914C216.603 6.10334 216.781 6.34599 217.009 6.5365C217.237 6.727 217.507 6.85974 217.797 6.92344C218.087 6.98714 218.388 6.97993 218.675 6.90241C220.481 6.71741 230.562 0.985413 231.793 0.985413C233.024 0.985413 234.622 2.05341 234.622 4.87141C234.766 6.71741 232.793 7.37241 232.127 8.04241L232.137 8.03941ZM198.949 8.03941C198.283 8.70341 196.31 9.24941 196.454 11.0954C196.454 13.9144 198.054 14.9814 199.283 14.9814C200.512 14.9814 210.591 9.24941 212.403 9.05641C212.69 8.97897 212.991 8.97193 213.281 9.03587C213.572 9.09981 213.842 9.23285 214.07 9.42369C214.297 9.61452 214.476 9.85752 214.59 10.132C214.703 10.4065 214.749 10.7044 214.723 11.0004C214.772 11.3605 214.689 11.7262 214.49 12.0297C214.29 12.3332 213.986 12.5537 213.636 12.6504C213.13 12.6504 212.983 12.1654 212.983 11.4854C212.983 10.8054 213.346 11.7764 213.636 11.1934C213.926 10.6104 213.202 10.2214 212.765 10.2214C212.328 10.2214 212.187 11.6784 212.512 12.6504C211.534 12.8504 211.46 12.9414 209.795 11.5804C210.447 12.5554 210.595 12.6484 210.229 13.7214C211.172 12.6514 213.092 13.4524 213.581 13.4884C213.843 13.5043 214.106 13.4538 214.343 13.3416C214.581 13.2294 214.787 13.0591 214.941 12.8464C215.282 12.3355 215.488 11.7462 215.538 11.1339C215.589 10.5216 215.483 9.90654 215.231 9.34641C214.913 8.77608 214.397 8.3426 213.78 8.1285C213.163 7.91441 212.489 7.93466 211.886 8.18541L199.635 13.7244C199.127 14.0154 197.459 13.2394 197.387 11.4914C197.243 9.64541 199.225 9.01241 200.087 8.68441L199.899 11.1994C200.114 11.2532 200.339 11.2532 200.554 11.1994C200.615 10.3559 200.724 9.51651 200.881 8.68541L202.187 8.58541V9.82741L202.765 9.72741C202.729 9.34727 202.729 8.96456 202.765 8.58441C203.193 8.47513 203.631 8.40815 204.072 8.38441C204.168 8.12296 204.168 7.83586 204.072 7.57441C203.631 7.5517 203.194 7.48707 202.765 7.38141C202.729 7.00027 202.729 6.61656 202.765 6.23541L202.187 6.13541V7.38541L200.881 7.28541C200.724 6.45369 200.614 5.61366 200.552 4.76941C200.337 4.71731 200.112 4.71731 199.897 4.76941L200.081 7.28541C199.223 6.95741 197.241 6.32441 197.381 4.48541C197.453 2.73441 199.121 1.95841 199.629 2.25041L211.886 7.78541C212.489 8.03117 213.161 8.04776 213.775 7.83203C214.39 7.61631 214.904 7.1832 215.221 6.61441C215.474 6.0544 215.58 5.43921 215.529 4.82687C215.478 4.21452 215.273 3.62518 214.931 3.11441C214.777 2.90157 214.571 2.73103 214.333 2.61848C214.096 2.50594 213.833 2.45502 213.571 2.47041C213.082 2.50641 211.162 3.30841 210.219 2.23841C210.581 3.31141 210.437 3.40641 209.785 4.37841C211.45 3.01741 211.524 3.11541 212.502 3.30841C212.177 4.28041 212.321 5.74041 212.755 5.74041C213.189 5.74041 213.916 5.34841 213.626 4.76541C213.336 4.18241 212.973 5.15441 212.973 4.47641C212.973 3.79841 213.12 3.30841 213.626 3.30841C213.977 3.40515 214.281 3.62618 214.481 3.93031C214.681 4.23443 214.763 4.6009 214.713 4.96141C214.739 5.2573 214.693 5.55508 214.579 5.82943C214.465 6.10379 214.287 6.34661 214.059 6.53726C213.832 6.72792 213.561 6.86076 213.271 6.92451C212.981 6.98825 212.68 6.98102 212.393 6.90341C210.581 6.71741 200.504 0.985413 199.273 0.985413C198.042 0.985413 196.444 2.05241 196.444 4.87141C196.3 6.71741 198.273 7.37241 198.939 8.04241L198.949 8.03941ZM193.941 8.03941C194.607 8.70341 196.58 9.24941 196.441 11.0954C196.441 13.9134 194.841 14.9814 193.612 14.9814C192.383 14.9814 182.289 9.25241 180.481 9.05941C180.194 8.98197 179.893 8.97493 179.603 9.03887C179.312 9.10281 179.042 9.23585 178.814 9.42669C178.587 9.61752 178.408 9.86051 178.294 10.135C178.181 10.4095 178.135 10.7074 178.161 11.0034C178.112 11.3635 178.195 11.7292 178.394 12.0327C178.594 12.3362 178.898 12.5567 179.248 12.6534C179.754 12.6534 179.901 12.1684 179.901 11.4884C179.901 10.8084 179.538 11.7794 179.248 11.1964C178.958 10.6134 179.682 10.2244 180.119 10.2244C180.556 10.2244 180.697 11.6814 180.372 12.6534C181.35 12.8534 181.424 12.9444 183.089 11.5834C182.437 12.5584 182.289 12.6514 182.655 13.7244C181.712 12.6544 179.792 13.4554 179.303 13.4914C179.041 13.5072 178.779 13.4567 178.541 13.3445C178.303 13.2323 178.098 13.062 177.943 12.8494C177.602 12.3385 177.396 11.7492 177.346 11.1369C177.295 10.5246 177.401 9.90954 177.653 9.34941C177.97 8.78256 178.483 8.35127 179.096 8.13685C179.71 7.92243 180.38 7.9397 180.981 8.18541L193.232 13.7244C193.74 14.0154 195.408 13.2394 195.48 11.4914C195.624 9.64541 193.642 9.01241 192.78 8.68441L192.968 11.1994C192.753 11.2532 192.528 11.2532 192.313 11.1994C192.254 10.356 192.146 9.51661 191.991 8.68541L190.681 8.58541V9.82741L190.103 9.72741C190.139 9.34727 190.139 8.96456 190.103 8.58441C189.675 8.47515 189.237 8.40816 188.796 8.38441C188.7 8.12326 188.7 7.83656 188.796 7.57541C189.237 7.5527 189.674 7.48807 190.103 7.38241C190.139 7.00127 190.139 6.61756 190.103 6.23641L190.681 6.13641V7.38541L191.987 7.28541C192.144 6.45369 192.254 5.61366 192.316 4.76941C192.531 4.71731 192.756 4.71731 192.971 4.76941L192.787 7.28541C193.645 6.95741 195.627 6.32441 195.487 4.48541C195.415 2.73441 193.747 1.95841 193.239 2.24941L180.981 7.78541C180.378 8.03117 179.706 8.04776 179.092 7.83203C178.477 7.61631 177.963 7.1832 177.646 6.61441C177.393 6.0544 177.287 5.43921 177.338 4.82687C177.389 4.21452 177.594 3.62518 177.936 3.11441C178.09 2.90157 178.296 2.73103 178.534 2.61848C178.771 2.50594 179.033 2.45502 179.296 2.47041C179.785 2.50641 181.705 3.30841 182.648 2.23841C182.286 3.31141 182.43 3.40641 183.082 4.37841C181.417 3.01741 181.343 3.11541 180.365 3.30841C180.69 4.28041 180.546 5.74041 180.112 5.74041C179.678 5.74041 178.951 5.34841 179.241 4.76541C179.531 4.18241 179.894 5.15441 179.894 4.47641C179.894 3.79841 179.747 3.30841 179.241 3.30841C178.89 3.40515 178.586 3.62618 178.386 3.93031C178.186 4.23443 178.104 4.6009 178.154 4.96141C178.128 5.25722 178.174 5.55488 178.288 5.8291C178.402 6.10332 178.58 6.34601 178.808 6.53654C179.036 6.72707 179.306 6.85983 179.596 6.92352C179.886 6.98722 180.187 6.97998 180.474 6.90241C182.289 6.71741 192.366 0.985413 193.597 0.985413C194.828 0.985413 196.426 2.05341 196.426 4.87141C196.57 6.71741 194.597 7.37241 193.931 8.04241L193.941 8.03941ZM168.084 8.25741C167.419 8.92141 166.299 8.70341 166.443 10.5494C166.443 13.3674 168.209 13.4494 169.443 13.4494C170.677 13.4494 172.396 9.24941 174.207 9.05641C174.494 8.97902 174.795 8.972 175.085 9.03595C175.376 9.0999 175.646 9.23292 175.874 9.42373C176.102 9.61454 176.28 9.8575 176.394 10.132C176.508 10.4065 176.554 10.7044 176.528 11.0004C176.577 11.3605 176.494 11.7262 176.295 12.0297C176.095 12.3332 175.791 12.5537 175.441 12.6504C174.934 12.6504 174.788 12.1654 174.788 11.4854C174.788 10.8054 175.15 11.7764 175.441 11.1934C175.732 10.6104 175.006 10.2214 174.57 10.2214C174.134 10.2214 173.991 11.6784 174.317 12.6504C173.339 12.8504 173.265 12.9414 171.599 11.5804C172.252 12.5554 172.399 12.6474 172.034 13.7204C172.977 12.6504 174.897 13.4514 175.386 13.4874C175.648 13.5032 175.91 13.4527 176.148 13.3405C176.386 13.2283 176.591 13.058 176.746 12.8454C177.087 12.3344 177.292 11.7451 177.343 11.1329C177.394 10.5207 177.288 9.9056 177.036 9.34541C176.718 8.77519 176.201 8.34188 175.584 8.12798C174.967 7.91408 174.293 7.93452 173.69 8.18541L169.369 12.3014C169.151 12.4263 168.902 12.4873 168.651 12.4772C168.399 12.4672 168.156 12.3866 167.949 12.2446C167.741 12.1027 167.578 11.9051 167.477 11.6746C167.377 11.4441 167.344 11.19 167.381 10.9414C167.237 9.09541 169.815 8.46241 170.672 8.13441C169.736 7.69441 167.152 7.20441 167.296 5.35841C167.368 3.60741 168.78 3.27141 169.288 3.55841L173.69 7.78541C174.293 8.0314 174.965 8.04809 175.58 7.83235C176.194 7.61661 176.708 7.18336 177.025 6.61441C177.278 6.05433 177.383 5.4392 177.333 4.8269C177.282 4.21461 177.076 3.62529 176.735 3.11441C176.58 2.90164 176.375 2.73115 176.137 2.61861C175.9 2.50607 175.637 2.45511 175.375 2.47041C174.886 2.50641 172.966 3.30841 172.023 2.23841C172.385 3.31141 172.241 3.40641 171.588 4.37841C173.254 3.01741 173.328 3.11441 174.306 3.30841C173.98 4.28041 174.125 5.74041 174.559 5.74041C174.993 5.74041 175.72 5.34841 175.43 4.76541C175.14 4.18241 174.781 5.16241 174.781 4.48541C174.781 3.80841 174.927 3.31741 175.434 3.31741C175.785 3.41415 176.089 3.63518 176.289 3.93931C176.489 4.24343 176.571 4.6099 176.521 4.97041C176.547 5.26627 176.5 5.56393 176.386 5.83814C176.272 6.11234 176.094 6.35499 175.866 6.5455C175.638 6.736 175.368 6.86874 175.078 6.93244C174.788 6.99614 174.487 6.98893 174.2 6.91141C172.389 6.71841 170.411 2.41141 169.181 2.41141C167.951 2.41141 166.437 2.71141 166.437 5.52941C166.289 7.37241 167.409 7.59141 168.074 8.26041L168.084 8.25741ZM164.779 8.25741C165.444 8.92141 166.564 8.70241 166.42 10.5494C166.42 13.3674 164.654 13.4494 163.42 13.4494C162.186 13.4494 160.467 9.24941 158.655 9.05641C158.368 8.97897 158.067 8.97193 157.777 9.03587C157.486 9.09981 157.216 9.23285 156.988 9.42369C156.761 9.61452 156.582 9.85752 156.468 10.132C156.355 10.4065 156.309 10.7044 156.335 11.0004C156.286 11.3605 156.368 11.7262 156.568 12.0297C156.768 12.3332 157.072 12.5537 157.422 12.6504C157.929 12.6504 158.075 12.1654 158.075 11.4854C158.075 10.8054 157.712 11.7764 157.422 11.1934C157.132 10.6104 157.857 10.2214 158.293 10.2214C158.729 10.2214 158.871 11.6784 158.546 12.6504C159.524 12.8504 159.598 12.9414 161.264 11.5804C160.611 12.5554 160.464 12.6484 160.829 13.7214C159.886 12.6514 157.966 13.4524 157.477 13.4884C157.215 13.5042 156.952 13.4537 156.715 13.3415C156.477 13.2293 156.272 13.059 156.117 12.8464C155.776 12.3354 155.571 11.7461 155.52 11.1339C155.469 10.5217 155.575 9.9066 155.827 9.34641C156.144 8.78056 156.658 8.35024 157.27 8.13641C157.883 7.92259 158.552 7.94002 159.153 8.18541L163.474 12.3004C163.692 12.4264 163.941 12.4884 164.193 12.4792C164.444 12.4699 164.688 12.3899 164.896 12.2483C165.104 12.1067 165.268 11.9092 165.369 11.6785C165.47 11.4479 165.504 11.1934 165.467 10.9444C165.611 9.09841 163.033 8.46541 162.176 8.13741C163.112 7.69741 165.696 7.20741 165.552 5.36141C165.48 3.61041 164.068 3.27441 163.56 3.56141L159.153 7.78541C158.55 8.03117 157.878 8.04776 157.264 7.83203C156.649 7.61631 156.135 7.1832 155.818 6.61441C155.565 6.05433 155.46 5.4392 155.51 4.8269C155.561 4.21461 155.767 3.62529 156.108 3.11441C156.262 2.90157 156.468 2.73103 156.706 2.61848C156.943 2.50594 157.205 2.45502 157.468 2.47041C157.957 2.50641 159.877 3.30841 160.82 2.23841C160.458 3.31141 160.602 3.40641 161.255 4.37841C159.589 3.01741 159.515 3.11541 158.537 3.30841C158.862 4.28041 158.718 5.74041 158.284 5.74041C157.85 5.74041 157.123 5.34841 157.413 4.76541C157.703 4.18241 158.066 5.15441 158.066 4.47641C158.066 3.79841 157.92 3.30841 157.413 3.30841C157.062 3.40515 156.758 3.62618 156.558 3.93031C156.358 4.23443 156.276 4.6009 156.326 4.96141C156.3 5.25716 156.347 5.5547 156.461 5.82881C156.575 6.10291 156.753 6.34549 156.981 6.53597C157.208 6.72645 157.479 6.85922 157.768 6.92301C158.058 6.9868 158.359 6.97973 158.646 6.90241C160.458 6.70941 162.435 2.40241 163.666 2.40241C164.897 2.40241 166.41 2.70241 166.41 5.52041C166.554 7.37241 165.434 7.59141 164.769 8.26141L164.779 8.25741ZM138.925 8.03841C138.259 8.70241 136.286 9.24841 136.43 11.0944C136.43 13.9134 138.03 14.9804 139.259 14.9804C140.488 14.9804 150.567 9.24841 152.379 9.05541C152.666 8.97797 152.967 8.97093 153.257 9.03487C153.548 9.09881 153.818 9.23185 154.046 9.42269C154.273 9.61352 154.452 9.85651 154.566 10.131C154.679 10.4055 154.725 10.7034 154.699 10.9994C154.748 11.3595 154.665 11.7252 154.466 12.0287C154.266 12.3322 153.962 12.5527 153.612 12.6494C153.106 12.6494 152.96 12.1644 152.96 11.4844C152.96 10.8044 153.322 11.7754 153.612 11.1924C153.902 10.6094 153.178 10.2204 152.741 10.2204C152.304 10.2204 152.163 11.6774 152.488 12.6494C151.51 12.8494 151.436 12.9404 149.771 11.5794C150.423 12.5544 150.571 12.6474 150.205 13.7204C151.148 12.6504 153.069 13.4514 153.558 13.4874C153.82 13.5033 154.082 13.4528 154.32 13.3406C154.557 13.2284 154.763 13.0581 154.917 12.8454C155.258 12.3344 155.464 11.7452 155.515 11.133C155.565 10.5208 155.46 9.90569 155.208 9.34541C154.89 8.77542 154.373 8.34229 153.756 8.1284C153.14 7.91452 152.466 7.93481 151.863 8.18541L139.611 13.7214C139.103 14.0124 137.435 13.2364 137.363 11.4884C137.219 9.64241 139.201 9.00941 140.063 8.68141L139.875 11.1964C140.09 11.2502 140.315 11.2502 140.53 11.1964C140.592 10.3525 140.702 9.51274 140.86 8.68141L142.165 8.58141V9.82741L142.743 9.72741C142.707 9.34727 142.707 8.96456 142.743 8.58441C143.171 8.47513 143.609 8.40814 144.051 8.38441C144.147 8.12296 144.147 7.83586 144.051 7.57441C143.61 7.5517 143.172 7.48708 142.743 7.38141C142.707 7.00027 142.707 6.61656 142.743 6.23541L142.165 6.13541V7.38541L140.86 7.28541C140.702 6.45376 140.592 5.61371 140.53 4.76941C140.315 4.71731 140.09 4.71731 139.875 4.76941L140.059 7.28541C139.201 6.95741 137.219 6.32441 137.359 4.48541C137.431 2.73441 139.099 1.95841 139.607 2.25041L151.863 7.78541C152.466 8.03117 153.138 8.04776 153.752 7.83203C154.367 7.61631 154.881 7.1832 155.198 6.61441C155.45 6.05425 155.556 5.43907 155.505 4.82677C155.454 4.21447 155.248 3.6252 154.907 3.11441C154.753 2.90159 154.547 2.73103 154.31 2.61848C154.072 2.50593 153.81 2.455 153.548 2.47041C153.059 2.50641 151.138 3.30841 150.195 2.23841C150.557 3.31141 150.413 3.40641 149.761 4.37841C151.426 3.01741 151.5 3.11541 152.478 3.30841C152.153 4.28041 152.297 5.74041 152.731 5.74041C153.165 5.74041 153.892 5.34841 153.602 4.76541C153.312 4.18241 152.95 5.15441 152.95 4.47641C152.95 3.79841 153.096 3.30841 153.602 3.30841C153.953 3.40515 154.257 3.62618 154.457 3.93031C154.657 4.23443 154.739 4.6009 154.689 4.96141C154.715 5.2573 154.669 5.55508 154.555 5.82943C154.441 6.10379 154.263 6.34661 154.035 6.53726C153.808 6.72792 153.537 6.86076 153.247 6.92451C152.957 6.98825 152.656 6.98102 152.369 6.90341C150.557 6.71741 140.481 0.985413 139.249 0.985413C138.017 0.985413 136.42 2.05241 136.42 4.87141C136.281 6.71741 138.249 7.37241 138.915 8.04241L138.925 8.03841ZM133.917 8.03841C134.583 8.70241 136.556 9.24841 136.417 11.0944C136.417 13.9124 134.817 14.9804 133.588 14.9804C132.359 14.9804 122.28 9.24841 120.469 9.05541C120.182 8.97802 119.881 8.971 119.591 9.03495C119.3 9.0989 119.03 9.23192 118.802 9.42273C118.574 9.61354 118.396 9.8565 118.282 10.131C118.168 10.4055 118.122 10.7034 118.148 10.9994C118.099 11.3595 118.182 11.7252 118.381 12.0287C118.581 12.3322 118.885 12.5527 119.235 12.6494C119.742 12.6494 119.888 12.1644 119.888 11.4844C119.888 10.8044 119.526 11.7754 119.235 11.1924C118.944 10.6094 119.67 10.2204 120.106 10.2204C120.542 10.2204 120.685 11.6774 120.359 12.6494C121.337 12.8494 121.411 12.9404 123.077 11.5794C122.424 12.5544 122.277 12.6474 122.642 13.7204C121.699 12.6504 119.779 13.4514 119.29 13.4874C119.028 13.5032 118.766 13.4527 118.528 13.3405C118.29 13.2283 118.085 13.058 117.93 12.8454C117.589 12.3343 117.384 11.745 117.333 11.1328C117.283 10.5207 117.388 9.90565 117.64 9.34541C117.958 8.7813 118.47 8.35232 119.081 8.13879C119.692 7.92526 120.36 7.94184 120.96 8.18541L133.211 13.7244C133.72 14.0154 135.387 13.2394 135.459 11.4914C135.603 9.64541 133.621 9.01241 132.764 8.68441L132.951 11.1994C132.736 11.2532 132.511 11.2532 132.296 11.1994C132.234 10.3555 132.124 9.5158 131.967 8.68441L130.662 8.58441V9.82741L130.083 9.72741C130.119 9.34727 130.119 8.96456 130.083 8.58441C129.655 8.47515 129.217 8.40816 128.776 8.38441C128.68 8.12326 128.68 7.83656 128.776 7.57541C129.216 7.55356 129.653 7.48994 130.081 7.38541C130.117 7.00427 130.117 6.62056 130.081 6.23941L130.66 6.13941V7.38541L131.965 7.28541C132.122 6.45369 132.232 5.61366 132.294 4.76941C132.509 4.71731 132.734 4.71731 132.949 4.76941L132.764 7.28541C133.621 6.95741 135.603 6.32441 135.459 4.48541C135.387 2.73441 133.72 1.95841 133.211 2.24941L120.96 7.78541C120.357 8.03117 119.685 8.04776 119.071 7.83203C118.456 7.61631 117.942 7.1832 117.625 6.61441C117.373 6.05429 117.267 5.43918 117.318 4.82692C117.368 4.21467 117.574 3.62536 117.915 3.11441C118.069 2.90157 118.275 2.73103 118.513 2.61848C118.75 2.50594 119.012 2.45502 119.275 2.47041C119.764 2.50641 121.684 3.30841 122.627 2.23841C122.265 3.31141 122.409 3.40641 123.062 4.37841C121.396 3.01741 121.322 3.11541 120.344 3.30841C120.67 4.28041 120.526 5.74041 120.091 5.74041C119.656 5.74041 118.93 5.34841 119.22 4.76541C119.51 4.18241 119.873 5.15441 119.873 4.47641C119.873 3.79841 119.727 3.30841 119.22 3.30841C118.869 3.40515 118.565 3.62618 118.365 3.93031C118.165 4.23443 118.083 4.6009 118.133 4.96141C118.107 5.25727 118.154 5.55493 118.268 5.82914C118.382 6.10334 118.56 6.34599 118.788 6.5365C119.016 6.727 119.286 6.85974 119.576 6.92344C119.866 6.98714 120.167 6.97993 120.454 6.90241C122.265 6.71741 132.342 0.985413 133.573 0.985413C134.804 0.985413 136.402 2.05341 136.402 4.87141C136.546 6.71741 134.573 7.37241 133.907 8.04241L133.917 8.03841ZM100.729 8.03841C100.063 8.70241 98.09 9.24841 98.234 11.0944C98.234 13.9134 99.834 14.9804 101.063 14.9804C102.292 14.9804 112.371 9.24841 114.183 9.05541C114.47 8.97797 114.771 8.97093 115.061 9.03487C115.352 9.09881 115.622 9.23185 115.85 9.42269C116.077 9.61352 116.256 9.85651 116.37 10.131C116.483 10.4055 116.529 10.7034 116.503 10.9994C116.552 11.3595 116.469 11.7252 116.27 12.0287C116.07 12.3322 115.766 12.5527 115.416 12.6494C114.91 12.6494 114.763 12.1644 114.763 11.4844C114.763 10.8044 115.126 11.7754 115.416 11.1924C115.706 10.6094 114.982 10.2204 114.545 10.2204C114.108 10.2204 113.957 11.6854 114.281 12.6534C113.303 12.8534 113.229 12.9444 111.563 11.5834C112.216 12.5584 112.363 12.6514 111.998 13.7244C112.941 12.6544 114.861 13.4554 115.35 13.4914C115.612 13.5073 115.875 13.4568 116.112 13.3446C116.35 13.2324 116.556 13.0621 116.71 12.8494C117.051 12.3385 117.257 11.7492 117.307 11.1369C117.358 10.5246 117.252 9.90954 117 9.34941C116.683 8.78115 116.168 8.34886 115.554 8.13435C114.94 7.91985 114.268 7.93802 113.666 8.18541L101.415 13.7244C100.907 14.0154 99.239 13.2394 99.167 11.4914C99.023 9.64541 101.005 9.01241 101.867 8.68441L101.679 11.1994C101.894 11.2532 102.119 11.2532 102.334 11.1994C102.396 10.3555 102.506 9.51581 102.663 8.68441L103.969 8.58441V9.82741L104.547 9.72741C104.511 9.34727 104.511 8.96456 104.547 8.58441C104.975 8.47513 105.413 8.40815 105.854 8.38441C105.95 8.12296 105.95 7.83586 105.854 7.57441C105.413 7.5517 104.976 7.48707 104.547 7.38141C104.511 7.00027 104.511 6.61656 104.547 6.23541L103.969 6.13541V7.38541L102.663 7.28541C102.506 6.45369 102.396 5.61366 102.334 4.76941C102.119 4.71731 101.894 4.71731 101.679 4.76941L101.863 7.28541C101.005 6.95741 99.023 6.32441 99.163 4.48541C99.235 2.73441 100.903 1.95841 101.411 2.25041L113.666 7.78541C114.269 8.03117 114.941 8.04776 115.555 7.83203C116.17 7.61631 116.684 7.1832 117.001 6.61441C117.254 6.0544 117.36 5.43921 117.309 4.82687C117.258 4.21452 117.053 3.62518 116.711 3.11441C116.557 2.90157 116.351 2.73103 116.113 2.61848C115.876 2.50594 115.614 2.45502 115.351 2.47041C114.862 2.50641 112.942 3.30841 111.999 2.23841C112.361 3.31141 112.217 3.40641 111.564 4.37841C113.23 3.01741 113.304 3.11541 114.282 3.30841C113.957 4.28041 114.101 5.74041 114.535 5.74041C114.969 5.74041 115.696 5.34841 115.406 4.76541C115.116 4.18241 114.753 5.15441 114.753 4.47641C114.753 3.79841 114.9 3.30841 115.406 3.30841C115.757 3.40515 116.061 3.62618 116.261 3.93031C116.461 4.23443 116.543 4.6009 116.493 4.96141C116.519 5.2573 116.473 5.55508 116.359 5.82943C116.245 6.10379 116.067 6.34661 115.839 6.53726C115.612 6.72792 115.341 6.86076 115.051 6.92451C114.761 6.98825 114.46 6.98102 114.173 6.90341C112.361 6.71741 102.281 0.985413 101.053 0.985413C99.825 0.985413 98.224 2.05241 98.224 4.87141C98.081 6.71741 100.053 7.37241 100.719 8.04241L100.729 8.03841ZM95.721 8.03841C96.387 8.70241 98.36 9.24841 98.216 11.0944C98.216 13.9124 96.616 14.9804 95.387 14.9804C94.158 14.9804 84.069 9.25241 82.257 9.05941C81.9701 8.98197 81.6688 8.97493 81.3786 9.03887C81.0885 9.10281 80.818 9.23585 80.5903 9.42669C80.3625 9.61752 80.1842 9.86051 80.0705 10.135C79.9567 10.4095 79.9109 10.7074 79.937 11.0034C79.8876 11.3635 79.9705 11.7292 80.1704 12.0327C80.3704 12.3362 80.6737 12.5567 81.024 12.6534C81.53 12.6534 81.677 12.1684 81.677 11.4884C81.677 10.8084 81.315 11.7794 81.024 11.1964C80.733 10.6134 81.458 10.2244 81.895 10.2244C82.332 10.2244 82.474 11.6814 82.148 12.6534C83.126 12.8534 83.2 12.9444 84.865 11.5834C84.212 12.5584 84.065 12.6514 84.431 13.7244C83.488 12.6544 81.567 13.4554 81.078 13.4914C80.8156 13.5073 80.5535 13.4568 80.3158 13.3446C80.0781 13.2324 79.8725 13.0621 79.718 12.8494C79.3771 12.3384 79.1717 11.7491 79.121 11.1369C79.0703 10.5247 79.1759 9.9096 79.428 9.34941C79.7453 8.78084 80.2601 8.34835 80.8749 8.13384C81.4897 7.91933 82.1618 7.93768 82.764 8.18541L95.015 13.7244C95.524 14.0154 97.191 13.2394 97.263 11.4914C97.407 9.64541 95.425 9.01241 94.563 8.68441L94.751 11.1994C94.536 11.2532 94.311 11.2532 94.096 11.1994C94.0355 10.3559 93.927 9.51656 93.771 8.68541L92.466 8.58541V9.82741L91.888 9.72741C91.9242 9.34727 91.9242 8.96455 91.888 8.58441C91.4599 8.4755 91.0221 8.40884 90.581 8.38541C90.4851 8.12426 90.4851 7.83756 90.581 7.57641C91.0214 7.55427 91.4587 7.49032 91.887 7.38541C91.9232 7.00427 91.9232 6.62055 91.887 6.23941L92.465 6.13941V7.38541L93.77 7.28541C93.9277 6.4537 94.0379 5.61367 94.1 4.76941C94.3152 4.71727 94.5398 4.71727 94.755 4.76941L94.567 7.28541C95.425 6.95741 97.407 6.32441 97.267 4.48541C97.191 2.73341 95.523 1.95741 95.015 2.24841L82.764 7.78541C82.161 8.03117 81.4889 8.04776 80.8745 7.83203C80.2602 7.61631 79.746 7.1832 79.429 6.61441C79.1764 6.05433 79.0705 5.4392 79.1213 4.8269C79.172 4.21461 79.3777 3.62529 79.719 3.11441C79.8734 2.90157 80.079 2.73103 80.3166 2.61848C80.5543 2.50594 80.8165 2.45502 81.079 2.47041C81.568 2.50641 83.489 3.30841 84.432 2.23841C84.07 3.31141 84.214 3.40641 84.866 4.37841C83.201 3.01741 83.126 3.11541 82.149 3.30841C82.474 4.28041 82.33 5.74041 81.896 5.74041C81.462 5.74041 80.735 5.34841 81.025 4.76541C81.315 4.18241 81.681 5.16241 81.681 4.48541C81.681 3.80841 81.535 3.31741 81.028 3.31741C80.6771 3.41415 80.3733 3.63518 80.1733 3.93931C79.9734 4.24343 79.8908 4.6099 79.941 4.97041C79.9152 5.26622 79.9613 5.56388 80.0751 5.8381C80.189 6.11232 80.3674 6.35501 80.5951 6.54554C80.8229 6.73607 81.0932 6.86883 81.3832 6.93252C81.6733 6.99622 81.9744 6.98898 82.261 6.91141C84.069 6.71741 94.146 0.985413 95.381 0.985413C96.616 0.985413 98.21 2.05341 98.21 4.87141C98.35 6.71741 96.381 7.37241 95.711 8.04241L95.721 8.03841ZM69.864 8.25641C69.198 8.92041 68.079 8.70241 68.223 10.5484C68.223 13.3664 69.989 13.4484 71.223 13.4484C72.457 13.4484 74.176 9.24841 75.988 9.05541C76.2749 8.97797 76.5762 8.97093 76.8663 9.03487C77.1565 9.09881 77.427 9.23185 77.6547 9.42269C77.8825 9.61352 78.0608 9.85651 78.1745 10.131C78.2882 10.4055 78.334 10.7034 78.308 10.9994C78.3574 11.3595 78.2745 11.7252 78.0745 12.0287C77.8746 12.3322 77.5713 12.5527 77.221 12.6494C76.715 12.6494 76.568 12.1644 76.568 11.4844C76.568 10.8044 76.93 11.7754 77.221 11.1924C77.512 10.6094 76.787 10.2204 76.35 10.2204C75.913 10.2204 75.76 11.6854 76.081 12.6534C75.103 12.8534 75.029 12.9444 73.364 11.5834C74.017 12.5584 74.164 12.6504 73.798 13.7234C74.741 12.6534 76.662 13.4544 77.151 13.4904C77.4134 13.5062 77.6755 13.4557 77.9132 13.3435C78.1508 13.2313 78.3565 13.061 78.511 12.8484C78.8518 12.3373 79.0571 11.748 79.1079 11.1359C79.1586 10.5237 79.053 9.90863 78.801 9.34841C78.4836 8.78119 77.9696 8.34975 77.3559 8.1355C76.7423 7.92125 76.0714 7.939 75.47 8.18541L71.148 12.3014C70.93 12.4274 70.6809 12.4894 70.4293 12.4802C70.1777 12.4709 69.9338 12.3909 69.7257 12.2493C69.5175 12.1077 69.3535 11.9102 69.2526 11.6795C69.1516 11.4489 69.1178 11.1944 69.155 10.9454C69.011 9.09941 71.589 8.46641 72.446 8.13841C71.51 7.69841 68.926 7.20841 69.069 5.36241C69.141 3.61141 70.553 3.27541 71.062 3.56241L75.47 7.78541C76.073 8.03117 76.7451 8.04776 77.3594 7.83203C77.9738 7.61631 78.488 7.1832 78.805 6.61441C79.0575 6.05431 79.1633 5.43919 79.1126 4.82691C79.0619 4.21464 78.8562 3.62533 78.515 3.11441C78.3605 2.90164 78.1549 2.73115 77.9173 2.61861C77.6796 2.50607 77.4175 2.45511 77.155 2.47041C76.666 2.50641 74.745 3.30841 73.802 2.23841C74.164 3.31141 74.02 3.40641 73.368 4.37841C75.033 3.01741 75.108 3.11441 76.085 3.30841C75.76 4.28041 75.904 5.74041 76.338 5.74041C76.772 5.74041 77.499 5.34841 77.209 4.76541C76.919 4.18241 76.556 5.15441 76.556 4.47641C76.556 3.79841 76.702 3.30841 77.209 3.30841C77.5599 3.40515 77.8636 3.62618 78.0636 3.93031C78.2636 4.23443 78.3462 4.6009 78.296 4.96141C78.3226 5.25726 78.2775 5.55516 78.1644 5.82983C78.0513 6.1045 77.8736 6.34781 77.6463 6.53912C77.4191 6.73043 77.1491 6.86408 76.8591 6.92872C76.5692 6.99336 76.268 6.98708 75.981 6.91041C74.17 6.71741 72.192 2.41041 70.961 2.41041C69.73 2.41041 68.217 2.71041 68.217 5.52841C68.069 7.37241 69.189 7.59141 69.854 8.26041L69.864 8.25641ZM66.558 8.25641C67.224 8.92041 68.343 8.70141 68.199 10.5484C68.199 13.3664 66.433 13.4484 65.199 13.4484C63.965 13.4484 62.246 9.24841 60.434 9.05541C60.1471 8.97797 59.8458 8.97093 59.5556 9.03487C59.2655 9.09881 58.995 9.23185 58.7673 9.42269C58.5395 9.61352 58.3612 9.85651 58.2475 10.131C58.1337 10.4055 58.088 10.7034 58.114 10.9994C58.0646 11.3595 58.1475 11.7252 58.3474 12.0287C58.5474 12.3322 58.8507 12.5527 59.201 12.6494C59.707 12.6494 59.853 12.1644 59.853 11.4844C59.853 10.8044 59.491 11.7754 59.201 11.1924C58.911 10.6094 59.635 10.2204 60.072 10.2204C60.509 10.2204 60.65 11.6774 60.325 12.6494C61.303 12.8494 61.377 12.9404 63.043 11.5794C62.39 12.5544 62.243 12.6474 62.609 13.7204C61.666 12.6504 59.745 13.4514 59.257 13.4874C58.9946 13.5032 58.7325 13.4527 58.4948 13.3405C58.2571 13.2283 58.0515 13.058 57.897 12.8454C57.5561 12.3344 57.3507 11.7451 57.3 11.1329C57.2493 10.5207 57.3549 9.9056 57.607 9.34541C57.9247 8.7799 58.4381 8.34992 59.0506 8.13631C59.6631 7.92269 60.3325 7.94016 60.933 8.18541L65.255 12.3004C65.473 12.4264 65.7221 12.4884 65.9737 12.4792C66.2253 12.4699 66.4692 12.3899 66.6773 12.2483C66.8855 12.1067 67.0495 11.9092 67.1504 11.6785C67.2514 11.4479 67.2852 11.1934 67.248 10.9444C67.392 9.09841 64.814 8.46541 63.957 8.13741C64.893 7.69741 67.477 7.20741 67.334 5.36141C67.262 3.61041 65.85 3.27441 65.341 3.56141L60.933 7.78541C60.33 8.03117 59.6579 8.04776 59.0435 7.83203C58.4292 7.61631 57.915 7.1832 57.598 6.61441C57.3454 6.05433 57.2395 5.4392 57.2903 4.8269C57.341 4.21461 57.5467 3.62529 57.888 3.11441C58.0424 2.90157 58.248 2.73103 58.4856 2.61848C58.7233 2.50594 58.9855 2.45502 59.248 2.47041C59.737 2.50641 61.658 3.30841 62.6 2.23841C62.238 3.31141 62.382 3.40641 63.034 4.37841C61.368 3.01741 61.294 3.11541 60.316 3.30841C60.641 4.28041 60.497 5.74041 60.063 5.74041C59.629 5.74041 58.902 5.34841 59.192 4.76541C59.482 4.18241 59.844 5.15441 59.844 4.47641C59.844 3.79841 59.698 3.30841 59.192 3.30841C58.8411 3.40515 58.5373 3.62618 58.3373 3.93031C58.1374 4.23443 58.0548 4.6009 58.105 4.96141C58.0792 5.25722 58.1253 5.55488 58.2391 5.8291C58.353 6.10332 58.5314 6.34601 58.7591 6.53654C58.9869 6.72707 59.2572 6.85983 59.5473 6.92352C59.8373 6.98722 60.1384 6.97998 60.425 6.90241C62.237 6.70941 64.214 2.40241 65.445 2.40241C66.676 2.40241 68.189 2.70241 68.189 5.52041C68.334 7.37241 67.214 7.59141 66.549 8.26141L66.558 8.25641ZM40.695 8.04241C40.029 8.70641 38.056 9.25241 38.2 11.0984C38.2 13.9174 39.8 14.9844 41.029 14.9844C42.258 14.9844 52.337 9.25241 54.149 9.05941C54.4359 8.98197 54.7372 8.97493 55.0273 9.03887C55.3175 9.10281 55.588 9.23585 55.8157 9.42669C56.0435 9.61752 56.2218 9.86051 56.3355 10.135C56.4492 10.4095 56.495 10.7074 56.469 11.0034C56.5184 11.3635 56.4355 11.7292 56.2355 12.0327C56.0356 12.3362 55.7323 12.5567 55.382 12.6534C54.876 12.6534 54.729 12.1684 54.729 11.4884C54.729 10.8084 55.091 11.7794 55.382 11.1964C55.673 10.6134 54.948 10.2244 54.511 10.2244C54.074 10.2244 53.933 11.6814 54.258 12.6534C53.28 12.8534 53.206 12.9444 51.54 11.5834C52.193 12.5584 52.34 12.6514 51.974 13.7244C52.917 12.6544 54.838 13.4554 55.326 13.4914C55.5884 13.5073 55.8505 13.4568 56.0882 13.3446C56.3259 13.2324 56.5315 13.0621 56.686 12.8494C57.0269 12.3384 57.2323 11.7491 57.283 11.1369C57.3337 10.5247 57.2281 9.9096 56.976 9.34941C56.6587 8.78155 56.1444 8.34956 55.5303 8.13509C54.9162 7.92062 54.2448 7.93852 53.643 8.18541L41.391 13.7214C40.883 14.0124 39.215 13.2364 39.143 11.4884C38.999 9.64241 40.981 9.00941 41.839 8.68541L41.651 11.1964C41.866 11.2502 42.091 11.2502 42.306 11.1964C42.3681 10.3525 42.4782 9.51279 42.636 8.68141L43.941 8.58141V9.82741L44.519 9.72741C44.4828 9.34727 44.4828 8.96455 44.519 8.58441C44.9471 8.47515 45.3848 8.40816 45.826 8.38441C45.9222 8.12298 45.9222 7.83585 45.826 7.57441C45.3853 7.553 44.9477 7.48971 44.519 7.38541C44.4828 7.00427 44.4828 6.62055 44.519 6.23941L43.941 6.13941V7.38541L42.636 7.28541C42.4782 6.45371 42.368 5.61368 42.306 4.76941C42.0908 4.71731 41.8662 4.71731 41.651 4.76941L41.839 7.28541C40.981 6.95741 38.999 6.32441 39.139 4.48541C39.215 2.73341 40.881 1.95741 41.391 2.24941L53.643 7.78541C54.2458 8.03243 54.9181 8.05021 55.5331 7.83539C56.1481 7.62057 56.6631 7.18802 56.981 6.61941C57.2336 6.05933 57.3395 5.4442 57.2887 4.8319C57.238 4.21961 57.0323 3.63029 56.691 3.11941C56.5365 2.90657 56.331 2.73603 56.0934 2.62348C55.8557 2.51094 55.5935 2.46002 55.331 2.47541C54.842 2.51141 52.921 3.31341 51.979 2.24341C52.341 3.31641 52.197 3.41141 51.545 4.38341C53.21 3.02241 53.285 3.12041 54.263 3.31341C53.933 4.28541 54.081 5.74841 54.511 5.74841C54.941 5.74841 55.672 5.35641 55.382 4.77341C55.092 4.19041 54.729 5.16241 54.729 4.48441C54.729 3.80641 54.875 3.31641 55.382 3.31641C55.7329 3.41315 56.0366 3.63418 56.2366 3.93831C56.4366 4.24243 56.5192 4.6089 56.469 4.96941C56.4947 5.26524 56.4486 5.5629 56.3348 5.83714C56.2209 6.11138 56.0425 6.35409 55.8148 6.54469C55.5871 6.73529 55.3168 6.86815 55.0268 6.93199C54.7368 6.99583 54.4357 6.98877 54.149 6.91141C52.337 6.71741 42.26 0.985413 41.029 0.985413C39.798 0.985413 38.2 2.05241 38.2 4.87141C38.056 6.71741 40.029 7.37241 40.695 8.04241ZM35.687 8.04241C36.353 8.70641 38.326 9.25241 38.182 11.0984C38.182 13.9164 36.582 14.9844 35.353 14.9844C34.124 14.9844 24.045 9.25241 22.234 9.05941C21.9471 8.98197 21.6458 8.97493 21.3556 9.03887C21.0655 9.10281 20.795 9.23585 20.5673 9.42669C20.3395 9.61752 20.1612 9.86051 20.0475 10.135C19.9337 10.4095 19.8879 10.7074 19.914 11.0034C19.8646 11.3635 19.9475 11.7292 20.1474 12.0327C20.3474 12.3362 20.6507 12.5567 21.001 12.6534C21.507 12.6534 21.653 12.1684 21.653 11.4884C21.653 10.8084 21.291 11.7794 21.001 11.1964C20.711 10.6134 21.435 10.2244 21.872 10.2244C22.309 10.2244 22.451 11.6814 22.125 12.6534C23.103 12.8534 23.177 12.9444 24.842 11.5834C24.189 12.5584 24.042 12.6514 24.408 13.7244C23.465 12.6544 21.544 13.4554 21.055 13.4914C20.7926 13.5073 20.5305 13.4568 20.2928 13.3446C20.0551 13.2324 19.8495 13.0621 19.695 12.8494C19.3541 12.3384 19.1487 11.7491 19.098 11.1369C19.0473 10.5247 19.1529 9.9096 19.405 9.34941C19.7223 8.78107 20.2369 8.34876 20.8515 8.13426C21.4661 7.91976 22.1379 7.93796 22.74 8.18541L34.991 13.7214C35.5 14.0124 37.167 13.2364 37.239 11.4884C37.381 9.64241 35.401 9.00941 34.544 8.68541L34.732 11.2004C34.517 11.2542 34.292 11.2542 34.077 11.2004C34.0149 10.3565 33.9048 9.51678 33.747 8.68541L32.442 8.58541V9.82741L31.864 9.72741C31.9002 9.34727 31.9002 8.96455 31.864 8.58441C31.4359 8.47516 30.9982 8.40817 30.557 8.38441C30.4612 8.12325 30.4612 7.83658 30.557 7.57541C30.9974 7.5536 31.4347 7.48998 31.863 7.38541C31.8992 7.00427 31.8992 6.62055 31.863 6.23941L32.441 6.13941V7.38541L33.746 7.28541C33.9038 6.45371 34.014 5.61368 34.076 4.76941C34.2912 4.71731 34.5158 4.71731 34.731 4.76941L34.544 7.28541C35.402 6.95741 37.384 6.32441 37.244 4.48541C37.167 2.73341 35.5 1.95741 34.991 2.24841L22.74 7.78541C22.137 8.03117 21.4649 8.04776 20.8505 7.83203C20.2362 7.61631 19.722 7.1832 19.405 6.61441C19.1524 6.05433 19.0465 5.4392 19.0973 4.8269C19.148 4.21461 19.3537 3.62529 19.695 3.11441C19.8494 2.90157 20.055 2.73103 20.2926 2.61848C20.5303 2.50594 20.7925 2.45502 21.055 2.47041C21.544 2.50641 23.465 3.30841 24.408 2.23841C24.046 3.31141 24.19 3.40641 24.842 4.37841C23.177 3.01741 23.102 3.11541 22.125 3.30841C22.45 4.28041 22.306 5.74041 21.872 5.74041C21.438 5.74041 20.711 5.34841 21.001 4.76541C21.291 4.18241 21.653 5.15441 21.653 4.47641C21.653 3.79841 21.507 3.30841 21.001 3.30841C20.6501 3.40515 20.3463 3.62618 20.1463 3.93031C19.9464 4.23443 19.8638 4.6009 19.914 4.96141C19.8885 5.25716 19.9346 5.5547 20.0486 5.82881C20.1626 6.10291 20.3409 6.34549 20.5686 6.53597C20.7963 6.72645 21.0665 6.85922 21.3565 6.92301C21.6464 6.9868 21.9474 6.97973 22.234 6.90241C24.045 6.71741 34.122 0.985413 35.353 0.985413C36.584 0.985413 38.181 2.05241 38.181 4.87141C38.326 6.71741 36.353 7.37241 35.687 8.04241ZM2.49899 8.04241C1.83299 8.70641 -0.140007 9.25241 0.00399257 11.0984C0.00399257 13.9174 1.60399 14.9844 2.83299 14.9844C4.06199 14.9844 14.141 9.25241 15.953 9.05941C16.2399 8.98197 16.5412 8.97493 16.8313 9.03887C17.1215 9.10281 17.392 9.23585 17.6197 9.42669C17.8475 9.61752 18.0258 9.86051 18.1395 10.135C18.2532 10.4095 18.299 10.7074 18.273 11.0034C18.3224 11.3635 18.2395 11.7292 18.0395 12.0327C17.8396 12.3362 17.5363 12.5567 17.186 12.6534C16.68 12.6534 16.534 12.1684 16.534 11.4884C16.534 10.8084 16.896 11.7794 17.186 11.1964C17.476 10.6134 16.752 10.2244 16.315 10.2244C15.878 10.2244 15.737 11.6814 16.062 12.6534C15.084 12.8534 15.01 12.9444 13.345 11.5834C13.998 12.5584 14.145 12.6514 13.779 13.7244C14.722 12.6544 16.643 13.4554 17.132 13.4914C17.3944 13.5073 17.6565 13.4568 17.8942 13.3446C18.1319 13.2324 18.3375 13.0621 18.492 12.8494C18.8328 12.3383 19.0381 11.749 19.0889 11.1369C19.1396 10.5247 19.034 9.90963 18.782 9.34941C18.4646 8.78084 17.9498 8.34835 17.3351 8.13384C16.7203 7.91933 16.0482 7.93768 15.446 8.18541L3.19499 13.7214C2.68599 14.0124 1.01899 13.2364 0.946993 11.4884C0.802993 9.64241 2.78099 9.00941 3.64299 8.68541L3.45499 11.1964C3.67001 11.2502 3.89497 11.2502 4.10999 11.1964C4.1719 10.3538 4.28174 9.51549 4.43899 8.68541L5.74399 8.58541V9.82741L6.32199 9.72741C6.28581 9.34727 6.28581 8.96455 6.32199 8.58441C6.75007 8.47516 7.18783 8.40817 7.62899 8.38441C7.72517 8.12298 7.72517 7.83585 7.62899 7.57441C7.18865 7.55293 6.75136 7.48964 6.32299 7.38541C6.28678 7.00427 6.28678 6.62055 6.32299 6.23941L5.74499 6.13941V7.38541L4.43899 7.28541C4.2812 6.45371 4.17102 5.61368 4.10899 4.76941C3.89377 4.71731 3.66922 4.71731 3.45399 4.76941L3.64299 7.28541C2.78499 6.95741 0.802993 6.32441 0.942993 4.48541C1.01899 2.73341 2.68699 1.95741 3.19499 2.24941L15.446 7.78541C16.0484 8.03159 16.7201 8.04892 17.3344 7.83414C17.9487 7.61936 18.4632 7.18731 18.781 6.61941C19.0335 6.05931 19.1393 5.44419 19.0886 4.83191C19.0378 4.21964 18.8322 3.63033 18.491 3.11941C18.3365 2.90657 18.131 2.73603 17.8934 2.62348C17.6557 2.51094 17.3935 2.46002 17.131 2.47541C16.642 2.51141 14.721 3.31341 13.778 2.24341C14.14 3.31641 13.996 3.41141 13.344 4.38341C15.009 3.02241 15.084 3.12041 16.061 3.31341C15.736 4.28541 15.88 5.74541 16.314 5.74541C16.748 5.74541 17.481 5.35541 17.181 4.77341C16.881 4.19141 16.529 5.16241 16.529 4.48441C16.529 3.80641 16.681 3.31641 17.181 3.31641C17.5319 3.41315 17.8356 3.63418 18.0356 3.93831C18.2356 4.24243 18.3182 4.6089 18.268 4.96941C18.2937 5.26524 18.2476 5.5629 18.1338 5.83714C18.0199 6.11138 17.8415 6.35409 17.6138 6.54469C17.3861 6.73529 17.1158 6.86815 16.8258 6.93199C16.5358 6.99583 16.2347 6.98877 15.948 6.91141C14.141 6.71741 4.06399 0.985413 2.83299 0.985413C1.60199 0.985413 0.00399257 2.05241 0.00399257 4.87141C-0.140007 6.71741 1.83299 7.37241 2.49899 8.04241Z" fill="#C4C4C4"/>
</g>
<defs>
<clipPath id="clip0">
<rect width="559.281" height="14" fill="white" transform="translate(0 0.985413)"/>
</clipPath>
</defs>
</svg>
