<?xml version="1.0" encoding="utf-8"?>
<!-- Generator: Adobe Illustrator 23.0.1, SVG Export Plug-In . SVG Version: 6.00 Build 0)  -->
<svg version="1.1" id="Слой_1" xmlns="http://www.w3.org/2000/svg" xmlns:xlink="http://www.w3.org/1999/xlink" x="0px" y="0px"
	 viewBox="0 0 664.3 298.7" style="enable-background:new 0 0 664.3 298.7;" xml:space="preserve">
<style type="text/css">
	.st0{clip-path:url(#SVGID_2_);fill:#A88C6D;}
	.st1{fill:#A88C6D;}
	.st2{fill:#FFFFFF;}
	.st3{fill:#17335D;}
</style>
<g>
	<g>
		<defs>
			<rect id="SVGID_1_" width="664.3" height="298.7"/>
		</defs>
		<clipPath id="SVGID_2_">
			<use xlink:href="#SVGID_1_"  style="overflow:visible;"/>
		</clipPath>
		<path class="st0" d="M45.6,161.3l-45.7,0.9v-5.5l45.7,1.1c0,0.7,0,1.4,0,2.1C45.6,160.4,45.6,160.8,45.6,161.3 M124.9,78.2
			l-1.1-44.1h5.6l-0.9,44.1c-0.6,0-1.3,0-1.9,0C126.1,78.2,125.5,78.2,124.9,78.2 M207.6,157.8l45.7-1.1v5.5l-45.7-0.9
			c0-0.5,0-1,0-1.5C207.7,159.2,207.7,158.5,207.6,157.8 M46.2,169.7l-45.3,5.6l-0.6-5.5l45.5-3.6C45.9,167.3,46,168.5,46.2,169.7
			 M116.4,78.8l-5.7-43.8l5.5-0.6l3.8,44C118.8,78.6,117.6,78.7,116.4,78.8 M207,149.5l45.4-5.8l0.6,5.5l-45.6,3.8
			C207.3,151.8,207.2,150.7,207,149.5 M47.6,177.9L3.2,188.1L2,182.7l44.8-8.2C47.1,175.6,47.3,176.8,47.6,177.9 M108,80.4l-10.3-43
			l5.5-1.1l8.4,43.4C110.3,79.8,109.2,80.1,108,80.4 M205.5,141.3l44.5-10.5l1.2,5.4l-44.9,8.5C206.1,143.6,205.8,142.4,205.5,141.3
			 M49.8,186L6.9,200.6l-1.7-5.3l43.6-12.8C49.1,183.7,49.4,184.9,49.8,186 M99.8,82.8L85,41l5.3-1.7l12.9,42.3
			C102.1,82,100.9,82.4,99.8,82.8 M203.3,133.2l43.1-15l1.7,5.3l-43.8,13.1C204,135.5,203.6,134.4,203.3,133.2 M52.9,193.8l-41,18.9
			l-2.3-5l41.9-17.1C51.9,191.6,52.4,192.7,52.9,193.8 M91.9,86L72.8,45.9l5.1-2.2l17.3,40.8C94.1,85,93,85.5,91.9,86 M200.1,125.5
			l41.2-19.3l2.3,5l-42.1,17.5C201.1,127.6,200.6,126.5,200.1,125.5 M56.8,201.3l-38.7,22.9l-2.8-4.8L55,198.2
			C55.6,199.2,56.2,200.3,56.8,201.3 M84.5,90.1l-23.3-38l4.8-2.7l21.6,38.9C86.5,88.9,85.5,89.5,84.5,90.1 M196.2,118l38.9-23.4
			l2.8,4.8l-40,21.7C197.4,120.1,196.8,119.1,196.2,118 M173.7,226.8l-0.2-0.3c1-0.7,1.9-1.4,2.9-2.2l1.9,2.4H173.7z M61.4,208.3
			l-24.8,18.5h-8.8l31.6-21.4C60,206.4,60.7,207.4,61.4,208.3 M77.5,94.9L50.2,59.4l4.5-3.2l25.6,36.6
			C79.4,93.5,78.4,94.2,77.5,94.9 M191.6,111l36.2-27.2l3.3,4.5l-37.4,25.6C193,113,192.3,112,191.6,111 M184.9,226.8l-4.8-5.6
			c0.9-0.8,1.8-1.6,2.6-2.4l7.6,8.1H184.9z M66.7,214.9l-12.9,11.9H47l17.4-14.6C65.2,213.1,65.9,214,66.7,214.9 M71.1,100.4
			l-31-32.6l4.2-3.7L73.7,98C72.8,98.8,71.9,99.6,71.1,100.4 M186.2,104.6l33-30.7L223,78l-34.4,29.2
			C187.8,106.3,187,105.4,186.2,104.6 M198.5,226.8l-12.3-11.6c0.8-0.9,1.6-1.8,2.4-2.7l16.5,14.3H198.5z M72.8,220.9l-5.2,5.9h-5.5
			l8.1-8.3C71,219.3,71.9,220.1,72.8,220.9 M65.2,106.5L30.9,77.2l3.8-4.1l32.9,30.8C66.8,104.7,66,105.6,65.2,106.5 M180.2,98.6
			l29.5-33.8l4.1,3.7l-31.1,32.5C182,100.2,181.1,99.4,180.2,98.6 M215.3,226.8l-23.7-18.1c0.7-1,1.4-1.9,2.1-2.9l30.2,21H215.3z
			 M79.4,226.3l-0.4,0.5h-4.6l2.1-2.7C77.5,224.8,78.4,225.6,79.4,226.3 M60.1,113.2L22.8,87.5l3.3-4.5l36.1,27.3
			C61.5,111.3,60.8,112.2,60.1,113.2 M173.6,93.3l25.8-36.6l4.5,3.3l-27.4,35.4C175.6,94.7,174.6,94,173.6,93.3 M234.6,225.1
			l-38.3-23.5c0.6-1,1.2-2.1,1.7-3.1l39.4,21.8L234.6,225.1z M55.7,120.3L15.8,98.6l2.8-4.8l38.9,23.5
			C56.8,118.3,56.3,119.3,55.7,120.3 M166.5,88.7l21.7-38.9l4.8,2.8l-23.4,38C168.5,90,167.5,89.3,166.5,88.7 M240.9,213.6
			l-40.7-19.5c0.5-1.1,1-2.2,1.4-3.3l41.6,17.7L240.9,213.6z M52,127.9l-42-17.6l2.3-5l41.2,19.4C53,125.7,52.5,126.8,52,127.9
			 M158.9,84.9l17.4-40.8l5.1,2.3l-19.3,40.1C161.1,85.9,160,85.4,158.9,84.9 M246,201.6l-42.7-15.2c0.4-1.1,0.7-2.2,1.1-3.4
			l43.4,13.4L246,201.6z M49.2,135.7L5.5,122.5l1.8-5.2l43.1,15.1C49.9,133.5,49.5,134.6,49.2,135.7 M150.9,81.9l13-42.3l5.3,1.7
			l-14.9,41.7C153.2,82.7,152,82.3,150.9,81.9 M249.8,189.1l-44.2-10.8c0.3-1.1,0.5-2.3,0.7-3.5l44.7,8.8L249.8,189.1z M47.1,143.8
			l-44.9-8.6l1.2-5.4l44.5,10.6C47.6,141.5,47.4,142.7,47.1,143.8 M142.6,79.8l8.5-43.4l5.4,1.2l-10.4,43
			C145,80.3,143.8,80,142.6,79.8 M252.2,176.3l-45.2-6.2c0.2-1.2,0.3-2.3,0.4-3.5l45.5,4.2L252.2,176.3z M45.9,152.1l-45.6-4
			l0.6-5.5l45.4,5.9C46.2,149.7,46,150.9,45.9,152.1 M134.2,78.5l3.9-44l5.6,0.6L137.8,79C136.6,78.8,135.4,78.7,134.2,78.5"/>
	</g>
	<path class="st1" d="M184.1,101.6c6.3,1,11.7,4.2,16.5,8.5l5.2,4.6l-5.2,4.6c-4.8,4.3-10.2,7.5-16.5,8.5v10.3
		c0,3.7,2.5,9.7,3.8,13.3c2.7,7.9,5.1,17.2-3,22.9l-76.5,54.2l-0.3-4.4c-1.1-15.5,3-19.5,7.1-33.2c0.6-2.1-1.1-6.5-1.8-8.4
		c-2-5.5-3.9-10.7-3.9-16.7v-17.2l-34,24.1L72,167c-18.8-31.1-18.8-73.6,0-104.7l3.4-5.7l34,24.1V63.5c0-5.9,1.9-11.1,3.9-16.7
		c0.7-2,2.4-6.4,1.8-8.4c-4.1-13.7-8.1-17.7-7.1-33.2l0.3-4.4L184.9,55c2.2,1.6,3.9,3.6,4.8,6.2c1.9,5.3,0,11.6-1.8,16.7
		c-1.2,3.6-3.8,9.5-3.8,13.3V101.6z M184.1,101.6"/>
	<path class="st2" d="M181.6,103.8c6.6,0.5,12.2,3.5,17.3,8.1l3.1,2.8l-3.1,2.8c-5.1,4.6-10.7,7.7-17.3,8.1v12.6
		c0,9.5,13,26.5,1.8,34.2L110.5,224c-1.1-15.6,2.8-18.2,7-32.3c0.8-2.8-0.9-7.3-1.8-10c-1.9-5.2-3.7-10.2-3.7-15.8v-22l-35.7,25.3
		l-2.1-3.4c-18.3-30.3-18.3-71.8,0-102.1l2.1-3.4l35.7,25.3v-22c0-5.6,1.9-10.6,3.7-15.8c1-2.7,2.7-7.1,1.8-10
		c-4.2-14.1-8.1-16.7-7-32.3L183.5,57c11.2,7.7-1.8,24.7-1.8,34.2V103.8z M181.6,103.8"/>
	<path class="st3" d="M115.6,63.5c0-10.3,7.6-19.6,5.4-26.9c-2.5-8.5-6.2-14.3-7.4-23.4l67.7,46.9c8.1,5.6-3.4,21.4-3.4,31.1v16.3
		c7.5-0.7,13.4,2.5,18.6,7.1c-5.2,4.7-11.1,7.8-18.6,7.1v16.3c0,9.8,11.6,25.5,3.4,31.2l-67.7,46.9c1.2-9.1,4.9-14.9,7.4-23.4
		c2.2-7.3-5.4-16.6-5.4-26.9v-29.2l-38.3,27.2c-17.6-29.2-17.6-69.2,0-98.3l38.3,27.2V63.5z M115.6,63.5"/>
	<path class="st2" d="M166.2,56.3c-14.6-8-28.5-16.4-40.3-27.6c2.7,12.7,9.1,22.7,19.5,31c2.1,1.7,1.2,4.8-2.8,4.2
		c-8.3-1.2-9.4-8.3-18.3-9.9v37.2c8.9-1.6,10-8.6,18.3-9.9c4-0.6,4.9,2.6,2.8,4.2c-10.1,8.1-16.4,17.8-19.2,30l-0.2-0.2l0.1,0.6
		l-0.1,0.6l0.2-0.2c2.8,12.3,9.1,21.9,19.2,30c2.1,1.7,1.2,4.8-2.8,4.2c-8.3-1.2-9.4-8.3-18.3-9.9V178c8.9-1.6,10-8.6,18.3-9.9
		c4-0.6,4.9,2.6,2.8,4.2c-10.4,8.3-16.7,18.3-19.5,31c11.8-11.2,25.7-19.7,40.3-27.6c3.5-1.9,3.5-5-0.5-8.2
		c-1.1-0.8-1.4-2.4,0.3-2.8c4.7-1.1,7.1-2.9,8.9-5.4c-1.9-2.5-4.2-4.3-8.9-5.4c-1.6-0.4-1.3-2-0.3-2.8c4-3.2,4-6.3,0.5-8.2
		c-14.3-7.8-28-16.1-39.7-27c11.7-10.9,25.4-19.2,39.7-27c3.5-1.9,3.5-5-0.5-8.2c-1.1-0.8-1.4-2.5,0.3-2.8c4.7-1.1,7.1-2.9,8.9-5.4
		c-1.9-2.5-4.2-4.3-8.9-5.4c-1.6-0.4-1.3-2-0.3-2.8C169.7,61.2,169.7,58.2,166.2,56.3 M166.6,110.3c2.4-3,4.3-6.7,4.3-10.9
		l-28.7,16.4l28.7,16.4c0-4.2-1.8-7.9-4.3-10.9c3.3-1.4,6.4-3.3,9.2-5.5C172.9,113.6,169.9,111.8,166.6,110.3 M115.4,99.7
		c-14.6-8-28.5-16.4-40.3-27.6c2.7,12.7,9.1,22.7,19.5,31c2.1,1.7,1.1,5-2.8,4.2c-8.3-1.6-13.1-9-22-9.9v37.2
		c8.9-0.8,13.7-8.3,22-9.9c3.9-0.7,4.9,2.6,2.8,4.2c-10.4,8.3-16.7,18.3-19.5,31c11.8-11.2,25.7-19.7,40.3-27.6
		c3.5-1.9,3.5-5-0.5-8.2c-1.1-0.8-1.4-2.4,0.3-2.8c4.7-1.1,7.1-2.9,9-5.4c-1.9-2.5-4.2-4.3-9-5.4c-1.6-0.4-1.3-2-0.3-2.8
		C119,104.6,118.9,101.6,115.4,99.7"/>
	<path class="st3" d="M176,274.8c25.1-7.6,42.2-23.2,54.9-42.5h-30.7c-3.8,9.4-11.8,12.4-23.3,9.9c3.1,8.2,2.6,22.3-9.6,25.6
		c-16.3,4.4-25.1-10-17.6-17.6c5,9.6,13.6,4.5,14.5-1.9c1.1-7.8-14.5-12.6-21.5-4.5c-7,8.1-8.8,24.8,10.8,33.8
		c12.1,5.5,20.5,9.5,25.2,20.5C181.1,292.8,181.8,282,176,274.8 M111.8,286.3h29.4c-7.6-4.3-10.7-8.6-14.7-15.7
		C122.5,277.7,119.4,282,111.8,286.3 M116,232.3h21.1c-5.4,3-7.7,6-10.5,10.9C123.6,238.3,121.4,235.3,116,232.3 M78,274.8
		c-25.1-7.6-42.2-23.2-55-42.5h30.7c3.8,9.4,11.8,12.4,23.3,9.9c-3.1,8.2-2.6,22.3,9.6,25.6c16.3,4.4,25.1-10,17.6-17.6
		c-5,9.6-13.6,4.5-14.5-1.9c-1.1-7.8,14.5-12.6,21.5-4.5c7,8.1,8.8,24.8-10.8,33.8c-12.1,5.5-20.5,9.5-25.2,20.5
		C72.8,292.8,72.1,282,78,274.8"/>
	<path class="st1" d="M280.6,96.4h381.6v3.6H280.6V96.4z M280.6,181.9h381.6v3.6H280.6V181.9z M282.3,160.4
		c-0.1,1.4-0.3,2.6-0.4,3.6c-0.1,0.9-0.3,1.7-0.5,2.6c-0.1,0.7-0.4,1.6-0.7,2.6c-0.4,1.2-0.8,2.4-1.2,3.6l3.7,1.7c1,0.5,2,0.8,3,1.1
		c1.1,0.3,2.2,0.6,3.3,0.8c1.2,0.2,2.5,0.4,3.7,0.5c1.2,0.1,2.4,0.2,3.5,0.2c3.6,0,6.8-0.5,9.7-1.5c2.9-1,5.4-2.4,7.7-4.3
		c2.5-2.2,4.3-4.7,5.6-7.5c1.3-2.8,1.9-5.8,1.9-9.1c0-1.1-0.1-2.1-0.2-3.2c-0.2-1.1-0.4-2.1-0.7-3.1c-0.3-1.1-0.7-2.1-1.2-3
		c-0.5-0.9-1-1.8-1.5-2.5c-1.1-1.4-2.7-2.8-4.9-4.3c-2.2-1.5-4.9-3-8.1-4.7c-1.4-0.7-2.8-1.5-4.2-2.2c-1.2-0.7-2.4-1.4-3.6-2.1
		c-1.7-1.1-3-2.3-3.8-3.7c-0.9-1.4-1.3-3-1.3-4.7c0-1.4,0.2-2.6,0.7-3.7c0.5-1.1,1.3-2.1,2.4-2.9c1-0.8,2-1.4,3.2-1.7
		c1.2-0.4,2.5-0.6,4-0.5c1.3,0,2.5,0.2,3.7,0.5c1.2,0.4,2.3,0.9,3.4,1.6c0.8,0.4,1.5,1.2,2.2,2.2c0.7,1,1.4,2.3,2.1,3.9h1.8
		c0.3-1.2,0.6-2.2,0.8-3.1c0.2-0.9,0.4-1.6,0.5-2.2l1.8-4.6l-2.5-1.5c-2-1-4.2-1.8-6.4-2.3c-2.2-0.5-4.5-0.7-6.9-0.7
		c-3.1,0-6,0.5-8.6,1.3c-2.6,0.8-4.9,2.1-7,3.8c-1.3,1-2.4,2.1-3.3,3.3c-0.9,1.2-1.7,2.5-2.2,3.9c-0.5,1.2-0.9,2.6-1.2,4
		c-0.3,1.6-0.4,3.2-0.4,4.8c0,1.3,0.1,2.6,0.3,3.8c0.2,1.2,0.4,2.3,0.8,3.5c1.5,4.3,4.7,7.8,9.7,10.5l6.3,3.4
		c1.2,0.6,2.3,1.2,3.5,1.9c1.1,0.6,2.2,1.2,3.3,1.9c1.9,1.2,3.4,2.6,4.4,4c1,1.4,1.5,3,1.5,4.6c0,1.5-0.3,2.9-1,4.2
		c-0.6,1.3-1.5,2.5-2.7,3.5c-0.9,0.8-2.1,1.3-3.5,1.7c-1.4,0.4-3,0.6-4.8,0.6c-3.2,0-5.8-0.8-8-2.5c-2.2-1.7-3.8-4.3-5-7.8H282.3z
		 M325.6,168.6l-3.6,7.2l5.4-0.2l5.1,0.2l2-6.9c0.5-1.5,0.9-2.9,1.4-4.4c0.5-1.4,0.9-2.8,1.4-4.2l1.6-4.3l5.1-0.6
		c0.8-0.1,1.7-0.1,2.8-0.2c1.1,0,2.3,0,3.7,0c1.4,0,2.7,0,3.8,0.1c1.2,0,2.1,0.1,2.9,0.1l5.3,0.6l1.4,4.4l3.1,8.6l2,6.7l8.3-0.2
		l9.6,0.2l-3.6-7.4c-5.8-12.3-11.7-26.4-17.6-42.1l-4.7-12.6l-2.5-6.7l-4.4,0.3l-3.5-0.3l-2.4,6.7l-4.9,12.8
		c-3.2,7.9-6.3,15.4-9.3,22.4C331.6,155.5,328.6,162.1,325.6,168.6 M342,148.2l1.6-3.9l4.8-12.2l2.4-5.7l2.3,5.7l4.9,12.2l1.6,3.9
		l-3.2,0.5c-0.8,0.1-1.5,0.1-2.4,0.2c-0.8,0-1.7,0-2.7,0c-2.2,0-4.2-0.1-6-0.3L342,148.2z M396.3,175.6l4.8,0.2l0.2-6.1
		c0.1-2.3,0.3-4.8,0.5-7.7c0.2-2.8,0.5-6,0.8-9.4l1.5-13.8l0.9-8.1l4,7.8l5.1,10.6l6.3,13c0.9,1.9,1.7,3.6,2.4,5.1
		c0.6,1.3,1.2,2.6,1.8,3.9l1.9,4.6l2-0.2l2.1,0.2l3.1-7.5c1.1-2.5,2.2-5,3.4-7.5c1.6-3.3,3.2-6.7,4.9-9.9l6.2-11.9l4.1-8.4l0.8,8.2
		l1.6,13.8c0.1,1,0.3,3,0.5,5.8c0.2,2.9,0.5,6.7,0.8,11.4l0.4,6.2l8.8-0.2l8,0.2l-1.6-8.8c-0.8-4.2-1.5-8.5-2.1-12.7
		c-0.7-4.6-1.4-9.6-2.1-15c-0.7-4.9-1.2-9.4-1.7-13.6c-0.5-4.2-0.9-8.1-1.2-11.8l-0.8-6.9l-3.9,0.3l-4-0.3l-2.9,7.1
		c-1,2.2-2.2,4.8-3.6,7.7c-1.6,3.4-3.3,6.8-5,10.2l-8.1,15.8l-3.6,6.6l-3.6-6.9c-1.3-2.5-2.6-4.9-3.8-7.4c-1.4-2.7-2.7-5.5-4-8.3
		l-6.9-14.7l-4.6-10.2l-3.8,0.3l-4.2-0.3l-1,9.1l-2.9,22.9l-1.7,12.1c-0.5,2.8-0.9,5.5-1.3,8.3c-0.5,3.1-1,6.4-1.7,10l-1.2,6.4
		L396.3,175.6z M485.2,107.2l-7.7-0.3l0.5,4.2c0.1,1.3,0.2,2.8,0.2,4.6c0,1.8,0.1,3.8,0.1,6v37.1c0,2.3-0.1,4.6-0.1,6.9
		c0,1.9,0,3.4-0.1,4.5l-0.6,5.6l7.9-0.2l8.2,0.2l-0.4-5.5c-0.2-3.1-0.3-6.9-0.3-11.4l-0.1-11.5v-4l2.6,4c1.5,2.3,2.8,4.3,3.9,6.2
		c1.1,1.7,2.1,3.5,3,5.2l6.4,11.4l3,5.5l8.6-0.2l9.8,0.2l-4-5.3c-2.2-3.2-4.6-6.8-7-10.7c-2.6-4.2-5.2-8.4-7.7-12.6l-3-5.4
		c2.1-0.5,3.9-1.1,5.4-1.6c1.5-0.6,2.6-1.2,3.4-1.8c1.3-0.9,2.5-1.9,3.5-3.2c1-1.2,1.8-2.6,2.4-4.3c0.4-1.1,0.7-2.2,0.9-3.3
		c0.2-1.1,0.3-2.3,0.3-3.5c0-2.7-0.6-5.2-1.6-7.3c-1-2.2-2.5-4.1-4.5-5.7c-1.7-1.3-3.7-2.3-6-3c-2.4-0.7-5.1-1-8.1-1l-8.9,0.2
		L485.2,107.2z M492.8,139.4v-26l3.6-0.3c3.8,0,6.7,1,8.7,2.9c1.9,2,2.9,4.9,2.9,8.7c0,1.9-0.3,3.7-0.8,5.4
		c-0.5,1.7-1.2,3.1-2.2,4.5c-1.2,1.6-2.5,2.8-4,3.6c-1.5,0.8-3.1,1.2-4.8,1.3L492.8,139.4z M550.7,111.2l0.3-4.3l-8.2,0.3l-8-0.3
		l0.4,4l0.3,7.1l0.1,12.3v16.3c0,2.5,0.1,4.8,0.2,6.8c0.2,2,0.4,3.8,0.8,5.3c0.4,2,1.1,3.9,2.2,5.6c1,1.7,2.3,3.3,4,4.7
		c2.8,2.6,6.2,4.6,9.9,5.9c3.8,1.3,8,1.9,12.7,1.9c2,0,4-0.1,5.9-0.4c1.9-0.2,3.8-0.7,5.6-1.2c2-0.6,3.8-1.4,5.5-2.3
		c1.7-0.9,3.2-2,4.6-3.3c2.2-1.9,4-4.4,5.3-7.5c1.3-3.1,2.2-6.9,2.6-11.3c0.2-1.2,0.3-3.6,0.4-7.1c0.1-3.5,0.2-8.1,0.2-13.9l0.2-12
		l0.2-6.7l0.4-4.3l-4.7,0.3l-5.2-0.3l0.4,4.4l0.2,6.6l0.2,11.9v12.8c-0.1,4.1-0.4,7.7-1,10.7c-0.6,3.1-1.4,5.6-2.5,7.6
		c-1.6,2.9-3.6,5-6.2,6.4c-2.5,1.4-5.6,2.1-9.2,2.1c-3.4,0-6.3-0.6-8.7-1.7c-2.4-1.1-4.4-2.8-5.9-5.1c-0.7-1.1-1.3-2.2-1.7-3.4
		c-0.5-1.3-0.8-2.7-1-4.2c-0.3-1.9-0.6-3.9-0.8-5.9c-0.2-2.2-0.3-4.3-0.3-6.5l0.1-12.2l0.3-12.4L550.7,111.2z M617.3,107.2l-8-0.3
		l0.3,5.4l0.2,7.7l0.2,11.8l-0.1,19.6l-0.1,9.8l-0.2,8.6l-0.3,6l8.4-0.2l7.7,0.2l-0.5-6.1c-0.1-1.3-0.2-2.7-0.3-4.1
		c-0.1-1.6-0.1-3.1-0.1-4.7v-9.5l0.1-6.6l4.4,6.6l6.1,9.5c1.4,2.1,2.6,4,3.6,5.6c0.8,1.3,1.6,2.6,2.4,4l3,5.3l9.9-0.2l9.6,0.2
		l-4.1-5.4l-7-10.2l-10.6-15.5l-5.8-9l3.6-4.3l9.5-10.5l7.5-8.1l5.8-5.9l-6.7,0.3l-6.4-0.3l-3.8,5.6c-1,1.5-2.2,3.1-3.7,5
		c-1.7,2.1-3.3,4.2-5,6.2l-6.4,7.9l-6,6.6v-6.8l0.4-11.3l0.1-7.7l0.4-5.5L617.3,107.2z M617.3,107.2"/>
	<path class="st3" d="M285,190.3l-3.9-0.1l0.1,2.6l0.1,3.7l0.1,5.7l-0.1,9.5l0,4.7l-0.1,4.2l-0.1,2.9l4.1-0.1l3.7,0.1l-0.2-3
		c-0.1-0.7-0.1-1.3-0.1-2c0-0.8,0-1.5,0-2.3v-4.6l0-3.2l2.1,3.2l3,4.6c0.7,1,1.3,1.9,1.8,2.7c0.4,0.6,0.8,1.3,1.2,1.9l1.5,2.6
		l4.8-0.1l4.7,0.1l-2-2.6l-3.4-5l-5.2-7.5l-2.8-4.4l1.7-2.1l4.6-5.1l3.6-3.9l2.8-2.9l-3.3,0.1l-3.1-0.1l-1.9,2.7
		c-0.5,0.7-1.1,1.5-1.8,2.4c-0.8,1-1.6,2-2.5,3l-3.1,3.8l-2.9,3.2v-3.3l0.2-5.5l0-3.7l0.2-2.7L285,190.3z M348.6,220.2l-1.8,3.5
		l2.6-0.1l2.5,0.1l1-3.4c0.2-0.7,0.5-1.4,0.7-2.1c0.2-0.7,0.5-1.4,0.7-2l0.8-2.1l2.5-0.3c0.4,0,0.9-0.1,1.4-0.1c0.5,0,1.1,0,1.8,0
		c0.7,0,1.3,0,1.8,0c0.6,0,1,0,1.4,0.1l2.6,0.3l0.7,2.1l1.5,4.2l1,3.3l4.1-0.1l4.7,0.1l-1.8-3.6c-2.8-6-5.7-12.8-8.6-20.5l-2.3-6.1
		l-1.2-3.3l-2.1,0.1l-1.7-0.1l-1.2,3.3l-2.4,6.2c-1.5,3.6-3,7.3-4.5,10.9C351.5,213.8,350,217,348.6,220.2 M356.6,210.2l0.8-1.9
		l2.3-5.9l1.2-2.8l1.1,2.8l2.4,5.9l0.8,1.9l-1.6,0.2c-0.4,0-0.7,0.1-1.1,0.1c-0.4,0-0.8,0-1.3,0c-1,0-1.9,0-2.9-0.1L356.6,210.2z
		 M433.9,193.4h2.3l-2.1,3.9l-4.1,7.2l-5.1,8.7c-0.9,1.4-1.7,2.9-2.6,4.3c-0.8,1.3-1.5,2.3-2.1,3.2l-1.5,2.2l0.5,1.1l4.7-0.3
		c0.8,0,1.5,0,2.3,0c0.9,0,2.1,0,3.4,0c3.1,0,5.7,0,7.9,0.1c2.2,0,3.9,0.1,5.2,0.1l3.2,0.2l-0.1-2.2l0.1-2.4
		c-0.7,0.2-1.4,0.3-1.9,0.4c-0.5,0.1-1,0.2-1.3,0.3c-0.6,0.1-1.3,0.2-2.2,0.3c-0.9,0.1-1.9,0.1-3.1,0.1c-1.2,0-2.2,0.1-3.2,0.1
		c-1,0-1.9,0-2.8,0l-2.4,0l2-3.8l4.1-7.1l4.6-7.9l4.7-7.6l1.8-3l-0.4-1.1l-5.2,0.2c-3.2,0.1-6.5,0.1-9.8,0.1c-3,0-5.4,0-7.2-0.1
		l-2.9-0.2l0.1,1.7l-0.1,2.1l2.8-0.1l5.5-0.2L433.9,193.4z M491.9,190.3l-5-0.1l1.6,2.5c0.5,0.8,1,1.6,1.5,2.4
		c0.4,0.7,0.8,1.5,1.2,2.1l4.5,8.6l2.1,3.9v6.9l-0.1,4.1l-0.2,3l4-0.1l3.8,0.1l-0.3-2.8c-0.1-1.2-0.1-2.8-0.1-5c0-0.8,0-1.5,0-2.1
		c0-0.6,0-1.1,0.1-1.5l0.3-2.5l1.9-4.2l4.4-8.6c0.6-1.2,1-2.1,1.4-2.8c0.4-0.7,0.7-1.2,0.9-1.5l1.5-2.4l-2.6,0.1l-2.6-0.1l-0.9,2.4
		c-0.3,0.8-0.6,1.6-0.9,2.3c-0.3,0.7-0.5,1.3-0.8,2c-0.3,0.8-0.7,1.6-1.1,2.4c-0.4,0.9-0.9,1.8-1.3,2.7l-1.9,3.8l-1.9-3.7
		c-0.5-0.9-0.9-1.8-1.3-2.6c-0.4-0.8-0.7-1.6-1.1-2.4c-0.4-0.8-0.7-1.6-1.1-2.4c-0.3-0.7-0.6-1.5-0.9-2.1l-0.9-2.4L491.9,190.3z
		 M559.2,221.7l-0.1,1.9l2.2-0.1l2,0.1l-0.1-2c-0.1-1.6-0.1-4-0.1-7.1l-0.1-7.2l0-5.1l0.1-1.9l2.5,2.7l5.7,6.1
		c2.5,2.7,4.6,4.9,6.2,6.8c0.8,0.9,1.6,1.8,2.3,2.7c0.7,0.8,1.3,1.6,2,2.4l1.9,2.5l2.4-0.1l2.1,0.1l-0.1-2.5v-5l0-9.1l0.1-9.6
		l0.2-5.1v-2.1l-2.1,0.1l-2-0.1l0.1,2.5l0.1,5.3l0.2,6l0.1,5.4l0.1,4.2l-2.4-2.5c-0.9-0.9-1.8-1.8-2.6-2.8c-1-1-1.9-2.1-2.9-3.1
		l-5.6-6.1c-1.2-1.4-2.3-2.6-3.2-3.6c-0.7-0.8-1.4-1.6-2.1-2.4l-2.3-2.9l-2.4,0.1l-2.4-0.1l0.1,3.1l0.2,4.8l0,7.8l-0.1,8.8
		c-0.1,1.3-0.1,2.6-0.1,4C559.2,219.8,559.2,220.8,559.2,221.7 M633.6,220.2l-1.7,3.5l2.6-0.1l2.5,0.1l1-3.4
		c0.2-0.7,0.5-1.4,0.7-2.1c0.2-0.7,0.5-1.4,0.7-2l0.8-2.1l2.5-0.3c0.4,0,0.9-0.1,1.4-0.1c0.5,0,1.1,0,1.8,0c0.7,0,1.3,0,1.9,0
		c0.6,0,1,0,1.4,0.1l2.6,0.3l0.7,2.1l1.5,4.2l1,3.3l4.1-0.1l4.7,0.1l-1.7-3.6c-2.8-6-5.7-12.8-8.6-20.5l-2.3-6.1l-1.2-3.3l-2.1,0.1
		l-1.7-0.1l-1.2,3.3l-2.4,6.2c-1.5,3.6-3,7.3-4.5,10.9C636.5,213.8,635.1,217,633.6,220.2 M641.6,210.2l0.8-1.9l2.4-5.9l1.2-2.8
		l1.1,2.8l2.4,5.9l0.8,1.9l-1.6,0.2c-0.4,0-0.8,0.1-1.2,0.1c-0.4,0-0.8,0-1.3,0c-1.1,0-2,0-2.9-0.1L641.6,210.2z M641.6,210.2"/>
</g>
</svg>
