<svg width="35" height="34" viewBox="0 0 35 34" fill="none" xmlns="http://www.w3.org/2000/svg">
<path d="M14.485 12.914L11.1745 20.8132H9.0144L7.38344 14.5092C7.2863 14.1232 7.19939 13.98 6.89774 13.8164C6.40691 13.548 5.59655 13.3 4.88333 13.1441L4.9319 12.914H8.40855C8.85078 12.914 9.24958 13.208 9.35184 13.7193L10.2133 18.2926L12.3377 12.914H14.485ZM22.9491 18.2363C22.9567 16.153 20.068 16.0354 20.086 15.1048C20.0911 14.821 20.3621 14.5194 20.9526 14.4428C21.2465 14.4044 22.0517 14.3737 22.9669 14.7954L23.3248 13.1185C22.834 12.9396 22.2001 12.7683 21.4153 12.7683C19.3957 12.7683 17.9744 13.842 17.9616 15.3784C17.9488 16.5159 18.9765 17.1499 19.751 17.5283C20.5487 17.9143 20.8145 18.1648 20.812 18.5098C20.8069 19.0391 20.1755 19.2742 19.59 19.2844C18.5624 19.2997 17.9667 19.0058 17.4912 18.7859L17.1181 20.5166C17.5961 20.7365 18.478 20.9256 19.3907 20.9359C21.5379 20.9384 22.9439 19.8775 22.9491 18.2363ZM28.2842 20.8132H30.1733L28.5219 12.914H26.7784C26.3975 12.9115 26.0525 13.139 25.9068 13.4943L22.8391 20.8132H24.9865L25.4133 19.6347H28.0362L28.2842 20.8132ZM26.0039 18.0165L27.0801 15.0512L27.6988 18.0165H26.0039ZM17.4044 12.914L15.7146 20.8132H13.6721L15.3618 12.914H17.4044Z" fill="#E2E2E2"/>
</svg>
