<svg width="35" height="34" viewBox="0 0 35 34" fill="none" xmlns="http://www.w3.org/2000/svg">
<g clip-path="url(#clip0_1_458)">
<path fill-rule="evenodd" clip-rule="evenodd" d="M0.475525 14.5835C0.475525 14.4955 0.489079 14.465 0.587349 14.465C1.09564 14.4717 1.60054 14.4582 2.10882 14.4751C2.85432 14.4988 3.53205 14.7158 4.08438 15.2409C4.45713 15.5933 4.70789 16.0543 4.79598 16.5625C4.98236 17.5859 4.69433 18.4567 3.91495 19.1515C3.48799 19.531 2.97631 19.7206 2.41381 19.7681C1.79369 19.819 1.1668 19.7783 0.546685 19.7919C0.472136 19.7953 0.478913 19.7547 0.478913 19.7072C0.478913 19.182 0.478913 15.4308 0.475525 14.5835ZM1.51244 18.7889C1.51244 18.8599 1.52599 18.8837 1.60393 18.8837C1.81063 18.8803 2.02073 18.8837 2.22743 18.8599C2.60357 18.8193 2.95598 18.7109 3.23385 18.433C3.69469 17.9688 3.86412 17.4063 3.73536 16.7692C3.6066 16.1321 3.23724 15.6713 2.59339 15.4714C2.28165 15.3732 1.95634 15.3799 1.63104 15.3765C1.53955 15.3765 1.50566 15.3934 1.50905 15.4951C1.51582 16.0407 1.51582 18.2365 1.51244 18.7889Z" fill="#E2E2E2"/>
<path fill-rule="evenodd" clip-rule="evenodd" d="M31.925 17.5588L33.5924 19.7885H33.3687C33.0569 19.7885 32.7418 19.785 32.4266 19.7919C32.3318 19.7953 32.2843 19.758 32.2334 19.6868C31.7997 19.0362 31.3626 18.3856 30.9222 17.7384C30.9153 17.7316 30.9085 17.7214 30.9052 17.7112C30.878 17.6469 30.8204 17.6503 30.7729 17.6604C30.7256 17.6706 30.7458 17.7249 30.7425 17.7554C30.7425 18.3924 30.7391 19.0294 30.7425 19.6664C30.7425 19.7715 30.712 19.7919 30.6138 19.7919C30.3392 19.785 30.0648 19.7885 29.7903 19.7919C29.7226 19.7919 29.6921 19.7817 29.6921 19.7003C29.6954 17.9858 29.6954 16.2711 29.6921 14.5565C29.6921 14.4989 29.6988 14.4684 29.7699 14.4684C30.3663 14.482 30.9594 14.4446 31.5489 14.4887C31.959 14.5192 32.3453 14.6311 32.6604 14.9088C33.0399 15.2443 33.145 15.6848 33.1179 16.1694C33.0807 16.881 32.6909 17.3521 31.9996 17.5283C31.9793 17.5351 31.959 17.5452 31.925 17.5588ZM30.7458 16.1152C30.7458 16.3525 30.7492 16.5863 30.7425 16.8234C30.7391 16.9048 30.7662 16.9218 30.8408 16.9183C30.9932 16.9115 31.1491 16.9149 31.305 16.898C31.7557 16.8505 32.0133 16.5896 32.0471 16.1389C32.0743 15.773 31.8878 15.4985 31.5422 15.3867C31.3151 15.3121 31.078 15.319 30.8442 15.3156C30.7662 15.3156 30.7425 15.3324 30.7425 15.4138C30.7527 15.6442 30.7458 15.8814 30.7458 16.1152Z" fill="#E2E2E2"/>
<path fill-rule="evenodd" clip-rule="evenodd" d="M26.0832 14.5735C26.0832 14.4921 26.1001 14.4684 26.1848 14.4684C27.0997 14.4718 28.0146 14.4718 28.9296 14.4684C29.0008 14.4684 29.0278 14.482 29.0244 14.5598C29.021 14.8073 29.021 15.0513 29.0244 15.2986C29.0244 15.3732 28.9973 15.3833 28.933 15.3833C28.367 15.3799 27.7979 15.3833 27.2319 15.3799C27.1371 15.3799 27.1167 15.4071 27.1167 15.4985C27.1235 15.8204 27.1201 16.1389 27.1167 16.461C27.1167 16.5423 27.1371 16.5592 27.2183 16.5592C27.7639 16.5558 28.3094 16.5592 28.855 16.5558C28.9397 16.5558 28.9567 16.5829 28.9567 16.6609C28.95 16.8981 28.95 17.1318 28.9567 17.369C28.9567 17.4436 28.9363 17.4606 28.8652 17.4606C28.323 17.4571 27.7809 17.4606 27.2387 17.4571C27.1371 17.4571 27.1201 17.4876 27.1201 17.5792C27.1235 17.9791 27.1235 18.3823 27.1201 18.7822C27.1201 18.8634 27.1371 18.8871 27.2218 18.8871C27.7876 18.8837 28.3569 18.8871 28.9228 18.8837C29.0076 18.8837 29.0244 18.9075 29.0244 18.9888C29.0177 19.2327 29.021 19.4734 29.0244 19.7173C29.0244 19.7749 29.0109 19.7953 28.95 19.7953C28.0214 19.7919 27.0896 19.7919 26.1612 19.7953C26.0765 19.7953 26.0832 19.7547 26.0832 19.7005C26.0832 18.8364 26.0866 15.4206 26.0832 14.5735Z" fill="#E2E2E2"/>
<path fill-rule="evenodd" clip-rule="evenodd" d="M7.41875 18.2501C7.55768 18.511 7.74405 18.7245 8.01514 18.8431C8.30655 18.9718 8.60814 19.0159 8.91312 18.8804C9.18759 18.7584 9.33669 18.5381 9.35024 18.2366C9.3638 17.9349 9.20453 17.7418 8.94701 17.6131C8.6522 17.4674 8.33367 17.3793 8.03209 17.2471C7.73728 17.1184 7.45602 16.9691 7.25271 16.7082C7.13071 16.5524 7.05616 16.366 7.03244 16.1696C6.92401 15.2952 7.4018 14.6717 8.13035 14.465C8.8894 14.2516 9.57051 14.4379 10.1838 14.9191C10.2279 14.953 10.2448 14.9801 10.2008 15.0343C10.0449 15.2309 9.89242 15.4274 9.74671 15.6274C9.70266 15.6883 9.68233 15.6713 9.64167 15.6274C9.47563 15.451 9.28587 15.3053 9.03849 15.2715C8.72675 15.2275 8.43194 15.2681 8.21167 15.5256C8.01853 15.7561 8.05919 16.0475 8.30655 16.2236C8.52682 16.3796 8.78097 16.4576 9.03172 16.5558C9.26554 16.6439 9.49257 16.749 9.70943 16.8676C10.1533 17.1184 10.3973 17.4876 10.4278 18.0027C10.482 18.8736 10.0212 19.6124 9.17066 19.8325C8.25912 20.0663 7.3713 19.8054 6.78508 18.9447C6.76136 18.9075 6.75796 18.8871 6.79185 18.8566C6.99517 18.6601 7.20526 18.4568 7.41875 18.2501Z" fill="#E2E2E2"/>
<path fill-rule="evenodd" clip-rule="evenodd" d="M20.509 14.4683C20.8715 14.4683 21.2137 14.4717 21.5593 14.465C21.6272 14.465 21.6542 14.4887 21.6779 14.5497C21.9964 15.3528 22.9114 17.6536 23.0503 18.0095C23.1147 17.9383 24.0296 15.6204 24.46 14.5463C24.477 14.5022 24.4905 14.465 24.5514 14.465C24.904 14.4683 25.2563 14.465 25.6223 14.465C25.5376 14.6649 24.0296 18.2433 23.3621 19.8392C23.335 19.9037 23.3045 19.924 23.2402 19.9206C23.1079 19.9172 22.9724 19.9172 22.8403 19.9206C22.7894 19.9275 22.7453 19.8968 22.7318 19.8461C22.3185 18.8431 20.8681 15.3393 20.5597 14.5903C20.5395 14.5564 20.5258 14.5158 20.509 14.4683Z" fill="#E2E2E2"/>
<path fill-rule="evenodd" clip-rule="evenodd" d="M14.8499 15.9085C14.6534 15.7222 14.467 15.5628 14.24 15.4579C13.3556 15.0478 12.2916 15.4884 11.9527 16.4269C11.6884 17.1488 11.7765 17.8367 12.3051 18.4229C12.6575 18.816 13.1218 18.9583 13.6436 18.9514C14.057 18.948 14.3959 18.7786 14.6975 18.5143C14.7415 18.4737 14.7856 18.433 14.8262 18.3957C14.8636 18.4161 14.8466 18.4466 14.8499 18.4737C14.8499 18.8227 14.8499 19.1717 14.8499 19.5207C14.8499 19.575 14.8432 19.6054 14.7856 19.6326C13.7182 20.1476 12.3661 19.9443 11.5325 19.087C11.0175 18.5584 10.7633 17.9179 10.7464 17.1793C10.7193 15.9288 11.5529 14.8377 12.7118 14.4887C13.4234 14.2752 14.118 14.3159 14.789 14.6513C14.8262 14.6683 14.8533 14.6853 14.8533 14.736C14.8499 15.1156 14.8499 15.4985 14.8499 15.9085Z" fill="#E2E2E2"/>
<path fill-rule="evenodd" clip-rule="evenodd" d="M6.36492 19.6731C6.36492 19.7614 6.35136 19.7952 6.25309 19.7919C5.97184 19.785 5.69059 19.7884 5.40934 19.7919C5.34156 19.7919 5.32123 19.7749 5.32123 19.7038C5.32461 17.9891 5.32461 16.2744 5.32123 14.5598C5.32123 14.4818 5.34833 14.4683 5.41611 14.4683C5.69397 14.4717 5.97184 14.4751 6.24971 14.4683C6.34119 14.465 6.3683 14.4887 6.36492 14.5835C6.36153 15.4341 6.36153 18.8294 6.36492 19.6731Z" fill="#E2E2E2"/>
<path fill-rule="evenodd" clip-rule="evenodd" d="M33.7888 14.4311C33.5619 14.4277 33.3754 14.6106 33.3754 14.8377C33.372 15.0647 33.555 15.251 33.782 15.251C34.0091 15.2544 34.1955 15.0715 34.1955 14.8444V14.8411C34.1989 14.6174 34.0158 14.4344 33.7888 14.4311ZM33.7888 15.1766C33.6092 15.1732 33.4635 15.024 33.4669 14.8411C33.4601 14.6649 33.5991 14.5158 33.7786 14.5089C33.9548 14.5022 34.1039 14.6411 34.1108 14.8207C34.1108 14.8276 34.1108 14.8343 34.1108 14.8411C34.1142 15.024 33.9718 15.1732 33.7888 15.1766Z" fill="#E2E2E2"/>
<path fill-rule="evenodd" clip-rule="evenodd" d="M33.8262 14.8852C33.877 14.9529 33.9278 15.0172 33.9752 15.0851H33.9549C33.9277 15.0851 33.8973 15.0851 33.8701 15.0851C33.8634 15.0851 33.8567 15.0816 33.8533 15.0748L33.7347 14.8986C33.7347 14.8986 33.7347 14.8986 33.7347 14.8953C33.7312 14.8885 33.7278 14.8885 33.7211 14.8919C33.7143 14.8953 33.7177 14.8986 33.7177 14.8986C33.7177 14.9562 33.7177 15.0138 33.7177 15.0715C33.7177 15.0816 33.7143 15.0816 33.7076 15.0816C33.6838 15.0816 33.6567 15.0816 33.633 15.0816C33.6262 15.0816 33.6229 15.0816 33.6229 15.0748C33.6229 14.919 33.6229 14.7664 33.6229 14.6106C33.6229 14.6039 33.6229 14.6039 33.6296 14.6039C33.6838 14.6039 33.7381 14.6005 33.7888 14.6072C33.8262 14.6072 33.8634 14.6207 33.8905 14.6445C33.921 14.675 33.938 14.7157 33.9311 14.7563C33.9311 14.8173 33.8871 14.8682 33.8295 14.8783L33.8262 14.8852ZM33.7177 14.7529C33.7177 14.7733 33.7177 14.7935 33.7177 14.8173C33.7177 14.824 33.7211 14.8275 33.7278 14.8275C33.7414 14.8275 33.7549 14.8275 33.7686 14.824C33.8058 14.824 33.8363 14.7935 33.8363 14.7563C33.8397 14.7258 33.8194 14.6953 33.7923 14.6886C33.7719 14.6818 33.7516 14.6818 33.7278 14.6818C33.7211 14.6818 33.7177 14.6818 33.7177 14.692C33.7177 14.7123 33.7177 14.7326 33.7177 14.7529Z" fill="#E2E2E2"/>
<path d="M17.9912 19.9511C19.5445 19.9511 20.8038 18.6873 20.8038 17.1284C20.8038 15.5695 19.5445 14.3057 17.9912 14.3057C16.4379 14.3057 15.1787 15.5695 15.1787 17.1284C15.1787 18.6873 16.4379 19.9511 17.9912 19.9511Z" fill="#E2E2E2"/>
</g>
<defs>
<clipPath id="clip0_1_458">
<rect width="33.72" height="33.72" fill="white" transform="translate(0.475525 0.123291)"/>
</clipPath>
</defs>
</svg>
