<svg width="129" height="34" viewBox="0 0 129 34" fill="none" xmlns="http://www.w3.org/2000/svg">
<path fill-rule="evenodd" clip-rule="evenodd" d="M39.1789 30.0306C42.9317 29.2964 45.216 25.5438 45.7871 21.8728C45.9503 20.9754 44.7266 20.4859 43.9107 20.8938C43.0949 21.3017 42.7686 21.5464 41.7896 22.3622C39.9132 23.9122 38.6894 25.9517 38.1999 28.3991C38.0368 29.2149 38.6894 30.1122 39.1789 30.0306ZM65.5301 30.6833C66.5091 30.928 67.3249 30.1122 67.4881 29.378C67.9776 27.7464 67.7329 26.0333 67.0802 24.5649C66.8354 24.8096 64.7143 27.257 64.0616 28.2359C63.6537 28.7254 64.388 30.357 65.5301 30.6833ZM89.5154 29.378C89.7602 30.1938 90.9023 30.1122 91.4734 29.7859C94.5735 28.3991 96.6947 24.8912 96.8579 21.5464C96.8579 20.8938 95.9604 20.4859 95.2262 20.8122C93.4314 21.4649 92.2076 22.7701 91.0655 24.4017C90.0049 25.9517 89.1075 27.6649 89.5154 29.378ZM117.58 21.3833C117.58 21.4649 120.68 19.0991 122.556 16.7333C124.433 14.3675 125.249 11.8386 125.249 11.8386C125.249 11.8386 123.127 13.3886 121.251 15.7543C118.967 18.6096 117.58 21.3833 117.58 21.3833ZM56.4744 17.2228L56.556 17.1412C57.3719 15.9991 57.6982 14.4491 56.556 13.878C56.3929 13.7965 56.1481 14.2859 56.1481 14.5307C55.9034 15.5096 55.9034 16.407 56.4744 17.2228ZM54.8428 19.8333C53.7822 17.8754 53.2927 15.6728 54.1901 13.6333C55.006 11.5938 58.1061 10.8596 59.2483 13.1438C60.472 15.6728 58.6772 17.8754 58.1877 18.8543C58.0245 19.1807 59.6562 18.6912 60.2272 18.6912C61.451 18.6096 62.1852 19.8333 61.6142 20.8122C59.7378 23.9122 56.556 26.0333 56.1481 29.7859C56.0665 30.6833 58.3509 30.1938 61.1247 27.9096C61.2062 27.828 66.1012 21.8728 69.854 17.2228C70.6698 16.1622 73.6068 17.2228 72.6278 18.6096C71.812 19.8333 70.9962 20.7307 70.5067 21.4649C69.7724 22.5254 71.6488 23.2596 71.4857 27.257C72.8726 26.1964 75.1569 24.728 75.2385 24.5649C77.6044 19.6701 80.0518 13.9596 82.4177 8.90173C82.9888 7.67804 86.1705 8.24909 85.4363 9.88067C83.9678 13.2254 82.4177 16.8149 81.0308 20.078C80.9492 20.2412 83.5599 18.6096 83.7231 18.4464C85.5179 17.8754 86.2521 19.4254 86.4969 20.5675C87.1495 23.178 84.2941 26.7675 82.9888 29.2964C82.6625 29.9491 83.3967 29.6228 83.7231 29.378C84.702 28.807 86.2521 27.3385 86.2521 27.1754C88.5364 20.9754 96.042 16.1622 98.979 19.7517C99.2237 19.4254 99.4685 18.9359 99.5501 18.9359C100.203 18.2833 102.813 18.528 102.405 19.7517C102.405 19.8333 99.7132 25.1359 98.2448 27.9096C97.9184 28.5622 98.2448 30.1938 99.1422 29.5412C100.529 28.5622 102.569 26.4412 102.65 26.1964C104.282 21.628 109.585 12.4096 116.682 8.65699C117.906 8.00436 120.109 8.82015 119.375 10.6965C116.927 17.2228 113.99 20.078 109.585 23.3412C109.503 23.4228 109.422 23.4228 109.422 23.5043C108.524 24.157 105.832 25.707 105.669 26.278C105.669 26.3596 105.098 28.1543 105.424 29.0517C105.832 30.4385 107.219 30.2754 108.198 29.5412C111.869 26.8491 113.256 22.7701 115.622 19.0175C117.498 15.9991 119.619 13.3886 122.638 10.9412C124.025 9.79909 125.412 8.33067 127.288 8.57541C128.104 8.65699 128.512 9.55436 128.43 10.0438C127.043 15.7543 123.617 19.5886 120.027 22.4438C118.396 23.7491 116.764 24.9728 115.296 25.9517C114.888 26.1964 113.99 31.3359 117.743 29.5412C119.538 28.7254 121.414 26.0333 122.475 24.728C123.046 24.0754 123.943 24.9728 123.535 25.8701C122.393 28.1543 120.925 30.0306 118.885 31.5806C117.417 32.8043 115.54 33.3754 113.745 32.6412C112.359 32.0701 111.869 30.6833 111.543 29.5412C110.237 31.0912 108.361 32.3964 106.403 32.8859C103.384 33.7017 102.161 31.5806 102.079 29.7859C100.203 31.3359 96.5315 35.1701 94.6551 31.0912C92.534 32.2333 88.8628 34.7622 86.3337 30.6017C84.6205 31.7438 82.5809 33.7833 80.6229 32.5596C79.3176 31.7438 78.7465 30.2754 79.3992 28.9701C80.4597 26.6043 82.5809 22.7701 82.7441 22.5254C82.9888 22.0359 82.3362 21.7912 81.9282 22.1175C80.215 23.5043 78.8281 24.6464 78.7465 24.8096C77.8491 26.7675 76.2175 30.2754 75.4016 32.0701C74.9121 33.2122 72.791 33.1306 72.2199 32.3148C71.4041 31.1727 72.5462 30.0306 73.0357 28.9701C70.6698 30.6017 68.9566 32.3148 66.4275 32.8043C64.388 33.2122 62.2668 32.3149 61.451 30.4385C59.0851 31.6622 56.3929 34.028 53.8638 32.1517C51.6611 30.5201 52.8032 26.4412 57.8614 21.5464C57.9429 21.4649 57.9429 21.3833 57.8614 21.3017L57.0455 20.9754C55.1691 23.5043 51.1716 29.6227 48.7241 31.3359C46.0319 33.1306 44.2371 33.6201 43.0133 31.3359C40.3211 33.2938 36.6499 33.6201 35.1814 30.5201C32.9787 32.3148 31.5102 33.5385 28.2469 32.8859C26.6968 32.5596 25.881 31.0912 25.7178 29.6227C25.4731 27.257 25.881 24.8912 26.2073 22.5254C24.1677 25.9517 22.2913 29.7859 19.4359 32.7227C18.9464 33.2122 17.2332 32.8859 17.3964 31.907C18.049 28.0728 20.1702 22.6885 19.9254 19.0991C17.07 25.4622 12.7462 35.3333 4.17998 32.478C-1.85713 30.4385 -0.388645 19.5886 8.01437 22.9333C8.99336 23.3412 8.42228 25.1359 7.52487 24.8096C3.44574 23.178 2.54833 29.9491 6.70904 30.1938C9.31969 30.357 11.1145 28.7254 12.0119 27.3385C17.5595 18.9359 19.1912 10.778 25.7178 1.07016C26.6152 -0.316682 28.8995 1.07016 28.1653 2.53858C27.1047 4.57805 26.2073 6.86226 25.3099 9.71751C24.3309 12.9807 23.7598 15.9991 23.8414 19.2622C28.1653 12.6544 32.4892 6.20962 38.6894 0.825422C38.9342 0.580685 39.5053 0.662264 39.9132 0.825422C40.5658 1.07016 40.6474 1.80437 40.3211 2.29384C33.7945 12.4912 27.5942 22.9333 29.0627 29.1333C29.389 30.4385 30.2864 30.1938 31.347 30.0306C32.4076 29.8675 34.7735 27.7464 35.0182 27.257C36.5683 23.178 39.6684 19.9149 43.9107 18.8543C45.2976 18.4464 46.7661 18.8543 47.8267 19.8333C48.3978 18.6096 50.111 18.4464 50.9268 19.3438C51.09 19.507 51.09 20.078 50.9268 20.3228C49.3768 23.2596 48.0714 25.7885 46.5214 28.4806C46.4398 28.7254 46.6845 29.1333 47.0109 29.0517C49.2136 28.3175 52.2322 23.5859 54.8428 19.8333ZM108.035 21.5464C108.116 21.628 110.89 19.6701 112.766 17.4675C114.235 15.7543 116.193 12.0017 116.111 11.8386C115.948 11.757 113.745 13.7965 111.787 15.9991C110.319 17.7938 108.035 21.5464 108.035 21.5464Z" fill="white"/>
</svg>
