<?xml version="1.0" standalone="no"?><!-- Generator: Gravit.io --><svg xmlns="http://www.w3.org/2000/svg" xmlns:xlink="http://www.w3.org/1999/xlink" style="isolation:isolate" viewBox="0 0 24 24" width="24" height="24"><defs><clipPath id="_clipPath_DhwRJ1pKCybklZ3Q4PQ0PjTjpDDmRlmu"><rect width="24" height="24"/></clipPath></defs><g clip-path="url(#_clipPath_DhwRJ1pKCybklZ3Q4PQ0PjTjpDDmRlmu)"><clipPath id="_clipPath_aXMcYofniJ8An2eqcgX0Qo5bo6Dotifz"><rect x="0" y="3" width="24" height="18" transform="matrix(1,0,0,1,0,0)" fill="#333333"/></clipPath><g clip-path="url(#_clipPath_aXMcYofniJ8An2eqcgX0Qo5bo6Dotifz)"><g id="Group"><g id="other_icons/close_gold"><g id="Page-1"><path d=" M 10.939 10.904 L 0.746 10.903 L 0.745 13.096 L 10.94 13.095 L 13.059 13.096 L 23.255 13.096 L 23.254 10.903 L 13.06 10.903 L 10.939 10.904 Z " fill-rule="evenodd" fill="#333333"/></g></g></g></g><clipPath id="_clipPath_zfm21XLA3D3u6sNQcD74pnf1yUV9Dm8Z"><rect x="0" y="-5" width="24" height="18" transform="matrix(1,0,0,1,0,0)" fill="#333333"/></clipPath><g clip-path="url(#_clipPath_zfm21XLA3D3u6sNQcD74pnf1yUV9Dm8Z)"><g id="Group"><g id="other_icons/close_gold"><g id="Page-1"><path d=" M 10.939 2.904 L 0.746 2.903 L 0.745 5.096 L 10.94 5.095 L 13.059 5.096 L 23.255 5.096 L 23.254 2.903 L 13.06 2.903 L 10.939 2.904 Z " fill-rule="evenodd" fill="#333333"/></g></g></g></g><clipPath id="_clipPath_WaO8MO75aQtBpQfQNqwYeADBlFB9g6kH"><rect x="0" y="11" width="24" height="18" transform="matrix(1,0,0,1,0,0)" fill="#333333"/></clipPath><g clip-path="url(#_clipPath_WaO8MO75aQtBpQfQNqwYeADBlFB9g6kH)"><g id="Group"><g id="other_icons/close_gold"><g id="Page-1"><path d=" M 10.939 18.904 L 0.746 18.903 L 0.745 21.096 L 10.94 21.095 L 13.059 21.096 L 23.255 21.096 L 23.254 18.903 L 13.06 18.903 L 10.939 18.904 Z " fill-rule="evenodd" fill="#333333"/></g></g></g></g></g></svg>
