<svg width="157" height="25" viewBox="0 0 157 25" fill="none" xmlns="http://www.w3.org/2000/svg">
<path d="M14.1342 25L14.1341 24.9997L3.125 25L10.7348 12.5L3.15619 0L153.013 0L145.403 12.5L152.982 25H14.1342Z" fill="#006ED2"/>
<path d="M148.703 12.5L156.25 25H154.597L147.018 12.5L154.597 0H156.25L148.703 12.5Z" fill="#006ED2"/>
<path d="M7.54744 12.5L3.03984e-05 0H1.65297L9.23157 12.5L1.65297 25H3.03984e-05L7.54744 12.5Z" fill="#006ED2"/>
<path d="M81.8744 10.875L81.5937 10.9375C80.9076 9.03125 80.0031 8.09375 78.5685 8.09375H77.9136V16.5625C77.9136 17.0937 78.319 17.4687 79.6289 17.4687V17.6875H74.171V17.4687C75.4809 17.4062 75.8864 17.0937 75.8864 16.5625V8.0625H75.2314C73.828 8.0625 72.83 9 72.2062 10.9062L71.9255 10.8437L72.2062 7.71875H81.5937L81.8744 10.875Z" fill="white"/>
<path d="M71.7073 7.96875C70.2726 8.1875 70.0231 8.71875 70.0231 10.0938V17.9063H69.2435L62.6941 9.4375H62.6629V15.2813C62.6629 16.6563 62.9747 17.25 64.5029 17.4375V17.6563H60.4174V17.4375C61.852 17.2188 62.1951 16.625 62.1951 15.2813V9.53125C62.1951 8.6875 61.7584 8 60.4174 7.96875V7.75H64.0039L69.5241 14.9375H69.5553V10.0938C69.5553 8.71875 69.1499 8.15625 67.6217 7.96875V7.75H71.7073V7.96875Z" fill="white"/>
<path d="M29.1361 10.875L28.8554 10.9375C28.1693 9.03125 27.2648 8.09375 25.8302 8.09375H25.1753V16.5625C25.1753 17.0937 25.5807 17.4687 26.8906 17.4687V17.6875H21.4328V17.4687C22.7426 17.4062 23.1481 17.0937 23.1481 16.5625V8.0625H22.4931C21.0897 8.0625 20.0917 9 19.4679 10.9062L19.1873 10.8437L19.4679 7.71875H28.8554L29.1361 10.875Z" fill="white"/>
<path d="M90.2015 12.75C90.2015 9.3125 89.1411 7.84375 87.3011 7.84375C85.461 7.84375 84.4006 9.34375 84.4006 12.75C84.4006 16.2187 85.461 17.6562 87.3011 17.6562C89.1099 17.625 90.2015 16.1875 90.2015 12.75ZM92.3535 12.6875C92.3535 15.8125 89.9832 17.9375 87.2699 17.9375C84.463 17.9375 82.1863 15.9062 82.1863 12.75C82.1863 9.625 84.5254 7.53125 87.2699 7.53125C90.0768 7.53125 92.3535 9.5625 92.3535 12.6875Z" fill="white"/>
<path d="M58.203 12.75C58.203 9.3125 57.1426 7.84375 55.3025 7.84375C53.4624 7.84375 52.4021 9.3125 52.4021 12.7187C52.4021 16.1875 53.4624 17.625 55.3025 17.625C57.1114 17.625 58.203 16.1875 58.203 12.75ZM60.3549 12.6875C60.3549 15.8125 57.9847 17.9375 55.2713 17.9375C52.4644 17.9375 50.1877 15.9062 50.1877 12.75C50.1877 9.625 52.5268 7.53125 55.2713 7.53125C58.0782 7.53125 60.3549 9.5625 60.3549 12.6875Z" fill="white"/>
<path d="M47.0378 10.2813C47.0378 8.96875 46.3517 8.0625 44.4493 8.0625H43.4824V12.6563H44.4181C46.1958 12.6563 47.0378 11.75 47.0378 10.2813ZM51.5289 17.6563H48.0358C47.6304 17.25 47.0067 16.5313 46.3205 15.4375C44.9171 13.2188 44.6676 12.9688 43.8255 12.9688H43.5136V16.5313C43.5136 17.0938 43.732 17.4063 45.0418 17.4375V17.6563H39.8335V17.4375C41.1746 17.4063 41.3929 17.0625 41.3929 16.5313V8.875C41.3929 8.34375 41.2058 8 39.8335 7.96875V7.75H44.73C47.5368 7.75 49.0962 8.65625 49.0962 10.25C49.0962 11.4375 47.9735 12.5313 45.8839 12.875V12.9063C46.6948 13.0625 47.2562 13.4688 48.0047 14.5L48.8779 15.6563C49.8135 16.9063 50.4373 17.4375 51.4977 17.4375L51.5289 17.6563Z" fill="white"/>
<path d="M37.4321 12.75C37.4321 9.3125 36.3717 7.84375 34.5316 7.84375C32.6916 7.84375 31.6312 9.34375 31.6312 12.75C31.6312 16.2187 32.6916 17.6562 34.5316 17.6562C36.3405 17.625 37.4321 16.1875 37.4321 12.75ZM39.584 12.6875C39.584 15.8125 37.2138 17.9375 34.5005 17.9375C31.6936 17.9375 29.4169 15.9062 29.4169 12.75C29.4169 9.625 31.7559 7.53125 34.5005 7.53125C37.3073 7.53125 39.584 9.5625 39.584 12.6875Z" fill="white"/>
<path d="M116.462 10.875L116.181 10.9375C115.495 9.03125 114.59 8.09375 113.156 8.09375H112.501V16.5625C112.501 17.0937 112.781 17.4687 114.122 17.4687V17.6875H108.758V17.4687C110.068 17.4062 110.474 17.0937 110.474 16.5625V8.0625H109.819C108.415 8.0625 107.417 9 106.793 10.9062L106.513 10.8437L106.793 7.71875H116.181L116.462 10.875Z" fill="white"/>
<path d="M106.762 14.875C106.762 16.6875 105.203 17.9375 102.396 17.9375C100.868 17.9375 99.7761 17.5313 99.0587 17.1875L98.5597 17.7813H98.4038L98.0919 14.4687L98.3414 14.4063C99.3082 16.625 100.306 17.625 102.427 17.625C104.018 17.625 105.078 16.7188 105.078 15.625C105.078 14.5625 104.517 14.0625 102.552 13.4062L101.148 12.9375C99.6513 12.4375 98.435 11.625 98.435 10.0625C98.435 8.3125 100.026 7.5 102.24 7.5C103.581 7.5 104.579 7.90625 105.14 8.25L105.483 7.71875H105.671L105.951 10.875L105.671 10.9375C105.016 8.96875 104.018 7.84375 102.24 7.84375C100.899 7.84375 100.15 8.5625 100.15 9.40625C100.15 10.4062 100.899 10.7813 102.24 11.1875L103.893 11.7188C105.515 12.2812 106.762 13.1563 106.762 14.875Z" fill="white"/>
<path d="M133.24 10.2813C133.24 8.96875 132.554 8.0625 130.652 8.0625H129.685V12.6563H130.621C132.398 12.6563 133.24 11.75 133.24 10.2813ZM137.731 17.6563H134.238C133.833 17.25 133.209 16.5313 132.523 15.4375C131.12 13.2188 130.87 12.9688 130.028 12.9688H129.716V16.5313C129.716 17.0938 129.935 17.4063 131.244 17.4375V17.6563H126.098V17.4375C127.44 17.4063 127.658 17.0625 127.658 16.5313V8.875C127.658 8.34375 127.471 8 126.098 7.96875V7.75H130.995C133.802 7.75 135.361 8.65625 135.361 10.25C135.361 11.4375 134.238 12.5313 132.149 12.875V12.9063C132.96 13.0625 133.521 13.4688 134.27 14.5L135.143 15.6563C136.078 16.9063 136.702 17.4375 137.763 17.4375L137.731 17.6563Z" fill="white"/>
<path d="M121.264 13.6875L119.674 9.3125H119.611L117.958 13.6875H121.264ZM126.098 17.6563H120.953V17.4375C122.013 17.375 122.356 17.2188 122.356 16.8438C122.356 16.6875 122.294 16.5313 122.231 16.3125L121.358 14H117.834L117.397 15.125C117.148 15.7188 117.054 16.1875 117.054 16.5C117.054 17.0938 117.428 17.3438 118.302 17.4688V17.6875H114.871V17.4688C115.869 17.2813 116.399 16.6875 117.023 15.1563L120.048 7.46875H121.046L124.321 16.125C124.664 17 124.945 17.3125 126.098 17.4688V17.6563Z" fill="white"/>
</svg>
