<svg width="308" height="38" viewBox="0 0 308 38" fill="none" xmlns="http://www.w3.org/2000/svg">
<path d="M8.67188 27.2578C8.67188 28.2109 8.59896 29.0547 8.45312 29.7891C8.30729 30.5234 8.08594 31.1406 7.78906 31.6406C7.49219 32.1406 7.11458 32.5182 6.65625 32.7734C6.19792 33.0286 5.65625 33.1562 5.03125 33.1562C4.23958 33.1562 3.57292 32.9349 3.03125 32.4922C2.48958 32.0495 2.07812 31.3906 1.79688 30.5156C1.52083 29.6406 1.38281 28.5547 1.38281 27.2578C1.38281 26.1016 1.5 25.0833 1.73438 24.2031C1.97396 23.3229 2.36198 22.6354 2.89844 22.1406C3.4349 21.6458 4.14844 21.3984 5.03906 21.3984C5.92448 21.3984 6.63281 21.6406 7.16406 22.125C7.70052 22.6094 8.08594 23.2917 8.32031 24.1719C8.55469 25.0469 8.67188 26.0755 8.67188 27.2578ZM2.17969 27.2578C2.17969 28.4297 2.28125 29.401 2.48438 30.1719C2.6875 30.9375 3 31.5104 3.42188 31.8906C3.84375 32.2708 4.38021 32.4609 5.03125 32.4609C5.70312 32.4609 6.2474 32.2708 6.66406 31.8906C7.08073 31.5104 7.38542 30.9349 7.57812 30.1641C7.77604 29.3932 7.875 28.4245 7.875 27.2578C7.875 26.1849 7.78906 25.263 7.61719 24.4922C7.45052 23.7214 7.16146 23.1302 6.75 22.7188C6.33854 22.3073 5.76823 22.1016 5.03906 22.1016C4.32552 22.1016 3.76042 22.3125 3.34375 22.7344C2.92708 23.1562 2.6276 23.7526 2.44531 24.5234C2.26823 25.2943 2.17969 26.2057 2.17969 27.2578ZM12.7422 21.4141C13.5026 21.4141 14.0703 21.7214 14.4453 22.3359C14.8203 22.9505 15.0078 23.8333 15.0078 24.9844C15.0078 26.1615 14.8125 27.0573 14.4219 27.6719C14.0312 28.2812 13.4661 28.5859 12.7266 28.5859C12.0026 28.5859 11.4479 28.276 11.0625 27.6562C10.6823 27.0365 10.4922 26.1458 10.4922 24.9844C10.4922 23.8229 10.6849 22.9375 11.0703 22.3281C11.4609 21.7188 12.0182 21.4141 12.7422 21.4141ZM12.7422 22.0391C12.2422 22.0391 11.8594 22.2839 11.5938 22.7734C11.3333 23.263 11.2031 24 11.2031 24.9844C11.2031 25.9635 11.3307 26.7057 11.5859 27.2109C11.8464 27.7109 12.2266 27.9609 12.7266 27.9609C13.2526 27.9609 13.6458 27.7083 13.9062 27.2031C14.1719 26.6927 14.3047 25.9531 14.3047 24.9844C14.3047 24.0208 14.1797 23.2891 13.9297 22.7891C13.6797 22.2891 13.2839 22.0391 12.7422 22.0391ZM19.6094 21.5781L13.2734 33H12.5312L18.8672 21.5781H19.6094ZM19.3828 25.9922C20.1328 25.9922 20.6953 26.2995 21.0703 26.9141C21.4505 27.5286 21.6406 28.4115 21.6406 29.5625C21.6406 30.7396 21.4453 31.6328 21.0547 32.2422C20.6641 32.8516 20.099 33.1562 19.3594 33.1562C18.6354 33.1562 18.0807 32.849 17.6953 32.2344C17.3151 31.6146 17.125 30.724 17.125 29.5625C17.125 28.401 17.3177 27.5156 17.7031 26.9062C18.0938 26.2969 18.6536 25.9922 19.3828 25.9922ZM19.3828 26.6172C18.8776 26.6172 18.4922 26.862 18.2266 27.3516C17.9661 27.8359 17.8359 28.5729 17.8359 29.5625C17.8359 30.5417 17.9635 31.2812 18.2188 31.7812C18.4792 32.2812 18.8594 32.5312 19.3594 32.5312C19.8854 32.5312 20.2786 32.2812 20.5391 31.7812C20.8047 31.276 20.9375 30.5365 20.9375 29.5625C20.9375 28.599 20.8125 27.8672 20.5625 27.3672C20.3125 26.8672 19.9193 26.6172 19.3828 26.6172Z" fill="white"/>
<path d="M170.656 33H169.883V24.375C169.883 24.0677 169.883 23.7995 169.883 23.5703C169.883 23.3359 169.885 23.1276 169.891 22.9453C169.896 22.7578 169.904 22.5807 169.914 22.4141C169.773 22.5547 169.638 22.6771 169.508 22.7812C169.378 22.8854 169.211 23.0182 169.008 23.1797L167.32 24.4609L166.883 23.8984L169.992 21.5781H170.656V33ZM182.672 27.2578C182.672 28.2109 182.599 29.0547 182.453 29.7891C182.307 30.5234 182.086 31.1406 181.789 31.6406C181.492 32.1406 181.115 32.5182 180.656 32.7734C180.198 33.0286 179.656 33.1562 179.031 33.1562C178.24 33.1562 177.573 32.9349 177.031 32.4922C176.49 32.0495 176.078 31.3906 175.797 30.5156C175.521 29.6406 175.383 28.5547 175.383 27.2578C175.383 26.1016 175.5 25.0833 175.734 24.2031C175.974 23.3229 176.362 22.6354 176.898 22.1406C177.435 21.6458 178.148 21.3984 179.039 21.3984C179.924 21.3984 180.633 21.6406 181.164 22.125C181.701 22.6094 182.086 23.2917 182.32 24.1719C182.555 25.0469 182.672 26.0755 182.672 27.2578ZM176.18 27.2578C176.18 28.4297 176.281 29.401 176.484 30.1719C176.688 30.9375 177 31.5104 177.422 31.8906C177.844 32.2708 178.38 32.4609 179.031 32.4609C179.703 32.4609 180.247 32.2708 180.664 31.8906C181.081 31.5104 181.385 30.9349 181.578 30.1641C181.776 29.3932 181.875 28.4245 181.875 27.2578C181.875 26.1849 181.789 25.263 181.617 24.4922C181.451 23.7214 181.161 23.1302 180.75 22.7188C180.339 22.3073 179.768 22.1016 179.039 22.1016C178.326 22.1016 177.76 22.3125 177.344 22.7344C176.927 23.1562 176.628 23.7526 176.445 24.5234C176.268 25.2943 176.18 26.2057 176.18 27.2578ZM191.812 27.2578C191.812 28.2109 191.74 29.0547 191.594 29.7891C191.448 30.5234 191.227 31.1406 190.93 31.6406C190.633 32.1406 190.255 32.5182 189.797 32.7734C189.339 33.0286 188.797 33.1562 188.172 33.1562C187.38 33.1562 186.714 32.9349 186.172 32.4922C185.63 32.0495 185.219 31.3906 184.938 30.5156C184.661 29.6406 184.523 28.5547 184.523 27.2578C184.523 26.1016 184.641 25.0833 184.875 24.2031C185.115 23.3229 185.503 22.6354 186.039 22.1406C186.576 21.6458 187.289 21.3984 188.18 21.3984C189.065 21.3984 189.773 21.6406 190.305 22.125C190.841 22.6094 191.227 23.2917 191.461 24.1719C191.695 25.0469 191.812 26.0755 191.812 27.2578ZM185.32 27.2578C185.32 28.4297 185.422 29.401 185.625 30.1719C185.828 30.9375 186.141 31.5104 186.562 31.8906C186.984 32.2708 187.521 32.4609 188.172 32.4609C188.844 32.4609 189.388 32.2708 189.805 31.8906C190.221 31.5104 190.526 30.9349 190.719 30.1641C190.917 29.3932 191.016 28.4245 191.016 27.2578C191.016 26.1849 190.93 25.263 190.758 24.4922C190.591 23.7214 190.302 23.1302 189.891 22.7188C189.479 22.3073 188.909 22.1016 188.18 22.1016C187.466 22.1016 186.901 22.3125 186.484 22.7344C186.068 23.1562 185.768 23.7526 185.586 24.5234C185.409 25.2943 185.32 26.2057 185.32 27.2578ZM195.883 21.4141C196.643 21.4141 197.211 21.7214 197.586 22.3359C197.961 22.9505 198.148 23.8333 198.148 24.9844C198.148 26.1615 197.953 27.0573 197.562 27.6719C197.172 28.2812 196.607 28.5859 195.867 28.5859C195.143 28.5859 194.589 28.276 194.203 27.6562C193.823 27.0365 193.633 26.1458 193.633 24.9844C193.633 23.8229 193.826 22.9375 194.211 22.3281C194.602 21.7188 195.159 21.4141 195.883 21.4141ZM195.883 22.0391C195.383 22.0391 195 22.2839 194.734 22.7734C194.474 23.263 194.344 24 194.344 24.9844C194.344 25.9635 194.471 26.7057 194.727 27.2109C194.987 27.7109 195.367 27.9609 195.867 27.9609C196.393 27.9609 196.786 27.7083 197.047 27.2031C197.312 26.6927 197.445 25.9531 197.445 24.9844C197.445 24.0208 197.32 23.2891 197.07 22.7891C196.82 22.2891 196.424 22.0391 195.883 22.0391ZM202.75 21.5781L196.414 33H195.672L202.008 21.5781H202.75ZM202.523 25.9922C203.273 25.9922 203.836 26.2995 204.211 26.9141C204.591 27.5286 204.781 28.4115 204.781 29.5625C204.781 30.7396 204.586 31.6328 204.195 32.2422C203.805 32.8516 203.24 33.1562 202.5 33.1562C201.776 33.1562 201.221 32.849 200.836 32.2344C200.456 31.6146 200.266 30.724 200.266 29.5625C200.266 28.401 200.458 27.5156 200.844 26.9062C201.234 26.2969 201.794 25.9922 202.523 25.9922ZM202.523 26.6172C202.018 26.6172 201.633 26.862 201.367 27.3516C201.107 27.8359 200.977 28.5729 200.977 29.5625C200.977 30.5417 201.104 31.2812 201.359 31.7812C201.62 32.2812 202 32.5312 202.5 32.5312C203.026 32.5312 203.419 32.2812 203.68 31.7812C203.945 31.276 204.078 30.5365 204.078 29.5625C204.078 28.599 203.953 27.8672 203.703 27.3672C203.453 26.8672 203.06 26.6172 202.523 26.6172Z" fill="white"/>
<path d="M250.227 27.0156H253.602V27.6953H250.227V31.1016H249.547V27.6953H246.18V27.0156H249.547V23.6016H250.227V27.0156ZM262.133 24.2109C262.133 24.7161 262.029 25.1615 261.82 25.5469C261.612 25.9323 261.326 26.2474 260.961 26.4922C260.602 26.737 260.188 26.9036 259.719 26.9922V27.0391C260.615 27.1536 261.299 27.4479 261.773 27.9219C262.247 28.3906 262.484 29.0312 262.484 29.8438C262.484 30.4844 262.333 31.0547 262.031 31.5547C261.729 32.0547 261.273 32.4479 260.664 32.7344C260.06 33.0156 259.299 33.1562 258.383 33.1562C257.763 33.1562 257.188 33.099 256.656 32.9844C256.125 32.8698 255.641 32.7109 255.203 32.5078V31.7344C255.635 31.9479 256.133 32.125 256.695 32.2656C257.263 32.401 257.828 32.4688 258.391 32.4688C259.495 32.4688 260.315 32.2318 260.852 31.7578C261.388 31.2786 261.656 30.638 261.656 29.8359C261.656 29.2526 261.513 28.7865 261.227 28.4375C260.94 28.0833 260.536 27.8255 260.016 27.6641C259.5 27.5026 258.893 27.4219 258.195 27.4219H256.945V26.7266H258.203C258.792 26.7266 259.32 26.6354 259.789 26.4531C260.258 26.2656 260.628 25.9896 260.898 25.625C261.174 25.2552 261.312 24.7969 261.312 24.25C261.312 23.5417 261.086 23.0078 260.633 22.6484C260.185 22.2891 259.586 22.1094 258.836 22.1094C258.435 22.1094 258.057 22.151 257.703 22.2344C257.354 22.3177 257.016 22.4401 256.688 22.6016C256.365 22.7578 256.042 22.9479 255.719 23.1719L255.312 22.6016C255.76 22.2578 256.276 21.974 256.859 21.75C257.448 21.526 258.104 21.4141 258.828 21.4141C259.865 21.4141 260.674 21.6641 261.258 22.1641C261.841 22.6641 262.133 23.3464 262.133 24.2109ZM272.523 30.0859H270.555V33H269.781V30.0859H263.984V29.4609L269.727 21.5156H270.555V29.3594H272.523V30.0859ZM269.781 29.3594V24.9688C269.781 24.6458 269.781 24.3672 269.781 24.1328C269.786 23.8984 269.792 23.6875 269.797 23.5C269.802 23.3073 269.807 23.1224 269.812 22.9453C269.818 22.7682 269.823 22.5859 269.828 22.3984H269.781C269.635 22.6484 269.497 22.8802 269.367 23.0938C269.242 23.3021 269.081 23.5391 268.883 23.8047L264.852 29.3594H269.781ZM275.883 21.4141C276.643 21.4141 277.211 21.7214 277.586 22.3359C277.961 22.9505 278.148 23.8333 278.148 24.9844C278.148 26.1615 277.953 27.0573 277.562 27.6719C277.172 28.2812 276.607 28.5859 275.867 28.5859C275.143 28.5859 274.589 28.276 274.203 27.6562C273.823 27.0365 273.633 26.1458 273.633 24.9844C273.633 23.8229 273.826 22.9375 274.211 22.3281C274.602 21.7188 275.159 21.4141 275.883 21.4141ZM275.883 22.0391C275.383 22.0391 275 22.2839 274.734 22.7734C274.474 23.263 274.344 24 274.344 24.9844C274.344 25.9635 274.471 26.7057 274.727 27.2109C274.987 27.7109 275.367 27.9609 275.867 27.9609C276.393 27.9609 276.786 27.7083 277.047 27.2031C277.312 26.6927 277.445 25.9531 277.445 24.9844C277.445 24.0208 277.32 23.2891 277.07 22.7891C276.82 22.2891 276.424 22.0391 275.883 22.0391ZM282.75 21.5781L276.414 33H275.672L282.008 21.5781H282.75ZM282.523 25.9922C283.273 25.9922 283.836 26.2995 284.211 26.9141C284.591 27.5286 284.781 28.4115 284.781 29.5625C284.781 30.7396 284.586 31.6328 284.195 32.2422C283.805 32.8516 283.24 33.1562 282.5 33.1562C281.776 33.1562 281.221 32.849 280.836 32.2344C280.456 31.6146 280.266 30.724 280.266 29.5625C280.266 28.401 280.458 27.5156 280.844 26.9062C281.234 26.2969 281.794 25.9922 282.523 25.9922ZM282.523 26.6172C282.018 26.6172 281.633 26.862 281.367 27.3516C281.107 27.8359 280.977 28.5729 280.977 29.5625C280.977 30.5417 281.104 31.2812 281.359 31.7812C281.62 32.2812 282 32.5312 282.5 32.5312C283.026 32.5312 283.419 32.2812 283.68 31.7812C283.945 31.276 284.078 30.5365 284.078 29.5625C284.078 28.599 283.953 27.8672 283.703 27.3672C283.453 26.8672 283.06 26.6172 282.523 26.6172Z" fill="white"/>
<path d="M12 7.99984C12 5.78202 13.782 3.97576 15.9996 3.94579L300.001 0.108094C304.401 0.0486329 308 3.59931 308 8C308 12.4007 304.401 15.9514 300.001 15.8919L15.9996 12.0539C13.782 12.0239 12 10.2177 12 7.99984Z" fill="#B3B3B3" fill-opacity="0.7"/>
<path d="M12 7.99985C12 5.78059 13.7805 3.9718 15.9995 3.93686L258.001 0.125964C262.398 0.0567191 266 3.60224 266 8C266 12.3978 262.398 15.9433 258.001 15.874L15.9995 12.0628C13.7805 12.0279 12 10.2191 12 7.99985Z" fill="#00FF29" fill-opacity="0.7"/>
<path d="M12 7.99193C12 5.69541 13.8417 3.82323 16.1379 3.78557L179.001 1.11477C182.848 1.05169 186 4.15256 186 7.99967C186 11.847 182.847 14.948 179.001 14.8846L16.1376 12.1983C13.8415 12.1604 12 10.2883 12 7.99193Z" fill="white"/>
</svg>
