<svg width="308" height="38" viewBox="0 0 308 38" fill="none" xmlns="http://www.w3.org/2000/svg">
<path d="M8.67188 27.2578C8.67188 28.2109 8.59896 29.0547 8.45312 29.7891C8.30729 30.5234 8.08594 31.1406 7.78906 31.6406C7.49219 32.1406 7.11458 32.5182 6.65625 32.7734C6.19792 33.0286 5.65625 33.1562 5.03125 33.1562C4.23958 33.1562 3.57292 32.9349 3.03125 32.4922C2.48958 32.0495 2.07812 31.3906 1.79688 30.5156C1.52083 29.6406 1.38281 28.5547 1.38281 27.2578C1.38281 26.1016 1.5 25.0833 1.73438 24.2031C1.97396 23.3229 2.36198 22.6354 2.89844 22.1406C3.4349 21.6458 4.14844 21.3984 5.03906 21.3984C5.92448 21.3984 6.63281 21.6406 7.16406 22.125C7.70052 22.6094 8.08594 23.2917 8.32031 24.1719C8.55469 25.0469 8.67188 26.0755 8.67188 27.2578ZM2.17969 27.2578C2.17969 28.4297 2.28125 29.401 2.48438 30.1719C2.6875 30.9375 3 31.5104 3.42188 31.8906C3.84375 32.2708 4.38021 32.4609 5.03125 32.4609C5.70312 32.4609 6.2474 32.2708 6.66406 31.8906C7.08073 31.5104 7.38542 30.9349 7.57812 30.1641C7.77604 29.3932 7.875 28.4245 7.875 27.2578C7.875 26.1849 7.78906 25.263 7.61719 24.4922C7.45052 23.7214 7.16146 23.1302 6.75 22.7188C6.33854 22.3073 5.76823 22.1016 5.03906 22.1016C4.32552 22.1016 3.76042 22.3125 3.34375 22.7344C2.92708 23.1562 2.6276 23.7526 2.44531 24.5234C2.26823 25.2943 2.17969 26.2057 2.17969 27.2578ZM12.7422 21.4141C13.5026 21.4141 14.0703 21.7214 14.4453 22.3359C14.8203 22.9505 15.0078 23.8333 15.0078 24.9844C15.0078 26.1615 14.8125 27.0573 14.4219 27.6719C14.0312 28.2812 13.4661 28.5859 12.7266 28.5859C12.0026 28.5859 11.4479 28.276 11.0625 27.6562C10.6823 27.0365 10.4922 26.1458 10.4922 24.9844C10.4922 23.8229 10.6849 22.9375 11.0703 22.3281C11.4609 21.7188 12.0182 21.4141 12.7422 21.4141ZM12.7422 22.0391C12.2422 22.0391 11.8594 22.2839 11.5938 22.7734C11.3333 23.263 11.2031 24 11.2031 24.9844C11.2031 25.9635 11.3307 26.7057 11.5859 27.2109C11.8464 27.7109 12.2266 27.9609 12.7266 27.9609C13.2526 27.9609 13.6458 27.7083 13.9062 27.2031C14.1719 26.6927 14.3047 25.9531 14.3047 24.9844C14.3047 24.0208 14.1797 23.2891 13.9297 22.7891C13.6797 22.2891 13.2839 22.0391 12.7422 22.0391ZM19.6094 21.5781L13.2734 33H12.5312L18.8672 21.5781H19.6094ZM19.3828 25.9922C20.1328 25.9922 20.6953 26.2995 21.0703 26.9141C21.4505 27.5286 21.6406 28.4115 21.6406 29.5625C21.6406 30.7396 21.4453 31.6328 21.0547 32.2422C20.6641 32.8516 20.099 33.1562 19.3594 33.1562C18.6354 33.1562 18.0807 32.849 17.6953 32.2344C17.3151 31.6146 17.125 30.724 17.125 29.5625C17.125 28.401 17.3177 27.5156 17.7031 26.9062C18.0938 26.2969 18.6536 25.9922 19.3828 25.9922ZM19.3828 26.6172C18.8776 26.6172 18.4922 26.862 18.2266 27.3516C17.9661 27.8359 17.8359 28.5729 17.8359 29.5625C17.8359 30.5417 17.9635 31.2812 18.2188 31.7812C18.4792 32.2812 18.8594 32.5312 19.3594 32.5312C19.8854 32.5312 20.2786 32.2812 20.5391 31.7812C20.8047 31.276 20.9375 30.5365 20.9375 29.5625C20.9375 28.599 20.8125 27.8672 20.5625 27.3672C20.3125 26.8672 19.9193 26.6172 19.3828 26.6172Z" fill="white"/>
<path d="M170.656 33H169.883V24.375C169.883 24.0677 169.883 23.7995 169.883 23.5703C169.883 23.3359 169.885 23.1276 169.891 22.9453C169.896 22.7578 169.904 22.5807 169.914 22.4141C169.773 22.5547 169.638 22.6771 169.508 22.7812C169.378 22.8854 169.211 23.0182 169.008 23.1797L167.32 24.4609L166.883 23.8984L169.992 21.5781H170.656V33ZM182.672 27.2578C182.672 28.2109 182.599 29.0547 182.453 29.7891C182.307 30.5234 182.086 31.1406 181.789 31.6406C181.492 32.1406 181.115 32.5182 180.656 32.7734C180.198 33.0286 179.656 33.1562 179.031 33.1562C178.24 33.1562 177.573 32.9349 177.031 32.4922C176.49 32.0495 176.078 31.3906 175.797 30.5156C175.521 29.6406 175.383 28.5547 175.383 27.2578C175.383 26.1016 175.5 25.0833 175.734 24.2031C175.974 23.3229 176.362 22.6354 176.898 22.1406C177.435 21.6458 178.148 21.3984 179.039 21.3984C179.924 21.3984 180.633 21.6406 181.164 22.125C181.701 22.6094 182.086 23.2917 182.32 24.1719C182.555 25.0469 182.672 26.0755 182.672 27.2578ZM176.18 27.2578C176.18 28.4297 176.281 29.401 176.484 30.1719C176.688 30.9375 177 31.5104 177.422 31.8906C177.844 32.2708 178.38 32.4609 179.031 32.4609C179.703 32.4609 180.247 32.2708 180.664 31.8906C181.081 31.5104 181.385 30.9349 181.578 30.1641C181.776 29.3932 181.875 28.4245 181.875 27.2578C181.875 26.1849 181.789 25.263 181.617 24.4922C181.451 23.7214 181.161 23.1302 180.75 22.7188C180.339 22.3073 179.768 22.1016 179.039 22.1016C178.326 22.1016 177.76 22.3125 177.344 22.7344C176.927 23.1562 176.628 23.7526 176.445 24.5234C176.268 25.2943 176.18 26.2057 176.18 27.2578ZM191.812 27.2578C191.812 28.2109 191.74 29.0547 191.594 29.7891C191.448 30.5234 191.227 31.1406 190.93 31.6406C190.633 32.1406 190.255 32.5182 189.797 32.7734C189.339 33.0286 188.797 33.1562 188.172 33.1562C187.38 33.1562 186.714 32.9349 186.172 32.4922C185.63 32.0495 185.219 31.3906 184.938 30.5156C184.661 29.6406 184.523 28.5547 184.523 27.2578C184.523 26.1016 184.641 25.0833 184.875 24.2031C185.115 23.3229 185.503 22.6354 186.039 22.1406C186.576 21.6458 187.289 21.3984 188.18 21.3984C189.065 21.3984 189.773 21.6406 190.305 22.125C190.841 22.6094 191.227 23.2917 191.461 24.1719C191.695 25.0469 191.812 26.0755 191.812 27.2578ZM185.32 27.2578C185.32 28.4297 185.422 29.401 185.625 30.1719C185.828 30.9375 186.141 31.5104 186.562 31.8906C186.984 32.2708 187.521 32.4609 188.172 32.4609C188.844 32.4609 189.388 32.2708 189.805 31.8906C190.221 31.5104 190.526 30.9349 190.719 30.1641C190.917 29.3932 191.016 28.4245 191.016 27.2578C191.016 26.1849 190.93 25.263 190.758 24.4922C190.591 23.7214 190.302 23.1302 189.891 22.7188C189.479 22.3073 188.909 22.1016 188.18 22.1016C187.466 22.1016 186.901 22.3125 186.484 22.7344C186.068 23.1562 185.768 23.7526 185.586 24.5234C185.409 25.2943 185.32 26.2057 185.32 27.2578ZM195.883 21.4141C196.643 21.4141 197.211 21.7214 197.586 22.3359C197.961 22.9505 198.148 23.8333 198.148 24.9844C198.148 26.1615 197.953 27.0573 197.562 27.6719C197.172 28.2812 196.607 28.5859 195.867 28.5859C195.143 28.5859 194.589 28.276 194.203 27.6562C193.823 27.0365 193.633 26.1458 193.633 24.9844C193.633 23.8229 193.826 22.9375 194.211 22.3281C194.602 21.7188 195.159 21.4141 195.883 21.4141ZM195.883 22.0391C195.383 22.0391 195 22.2839 194.734 22.7734C194.474 23.263 194.344 24 194.344 24.9844C194.344 25.9635 194.471 26.7057 194.727 27.2109C194.987 27.7109 195.367 27.9609 195.867 27.9609C196.393 27.9609 196.786 27.7083 197.047 27.2031C197.312 26.6927 197.445 25.9531 197.445 24.9844C197.445 24.0208 197.32 23.2891 197.07 22.7891C196.82 22.2891 196.424 22.0391 195.883 22.0391ZM202.75 21.5781L196.414 33H195.672L202.008 21.5781H202.75ZM202.523 25.9922C203.273 25.9922 203.836 26.2995 204.211 26.9141C204.591 27.5286 204.781 28.4115 204.781 29.5625C204.781 30.7396 204.586 31.6328 204.195 32.2422C203.805 32.8516 203.24 33.1562 202.5 33.1562C201.776 33.1562 201.221 32.849 200.836 32.2344C200.456 31.6146 200.266 30.724 200.266 29.5625C200.266 28.401 200.458 27.5156 200.844 26.9062C201.234 26.2969 201.794 25.9922 202.523 25.9922ZM202.523 26.6172C202.018 26.6172 201.633 26.862 201.367 27.3516C201.107 27.8359 200.977 28.5729 200.977 29.5625C200.977 30.5417 201.104 31.2812 201.359 31.7812C201.62 32.2812 202 32.5312 202.5 32.5312C203.026 32.5312 203.419 32.2812 203.68 31.7812C203.945 31.276 204.078 30.5365 204.078 29.5625C204.078 28.599 203.953 27.8672 203.703 27.3672C203.453 26.8672 203.06 26.6172 202.523 26.6172Z" fill="white"/>
<path d="M232.227 27.0156H235.602V27.6953H232.227V31.1016H231.547V27.6953H228.18V27.0156H231.547V23.6016H232.227V27.0156ZM244.5 33H237.352V32.3281L240.711 28.8281C241.247 28.2708 241.698 27.7682 242.062 27.3203C242.432 26.8672 242.711 26.4141 242.898 25.9609C243.091 25.5078 243.188 25 243.188 24.4375C243.188 23.7031 242.971 23.1328 242.539 22.7266C242.112 22.3203 241.531 22.1172 240.797 22.1172C240.302 22.1172 239.826 22.2057 239.367 22.3828C238.914 22.5599 238.471 22.8203 238.039 23.1641L237.602 22.6094C237.919 22.349 238.253 22.1302 238.602 21.9531C238.956 21.776 239.318 21.6432 239.688 21.5547C240.057 21.4609 240.427 21.4141 240.797 21.4141C241.448 21.4141 242.01 21.5391 242.484 21.7891C242.964 22.0339 243.336 22.3802 243.602 22.8281C243.867 23.276 244 23.8021 244 24.4062C244 25.0312 243.891 25.599 243.672 26.1094C243.458 26.6146 243.154 27.1094 242.758 27.5938C242.362 28.0781 241.893 28.599 241.352 29.1562L238.375 32.2344V32.2656H244.5V33ZM250 26.1172C250.771 26.1172 251.435 26.2474 251.992 26.5078C252.555 26.7682 252.987 27.1484 253.289 27.6484C253.596 28.1432 253.75 28.75 253.75 29.4688C253.75 30.2292 253.581 30.8854 253.242 31.4375C252.904 31.9896 252.424 32.4141 251.805 32.7109C251.19 33.0078 250.464 33.1562 249.625 33.1562C249.021 33.1562 248.471 33.099 247.977 32.9844C247.487 32.8646 247.073 32.7057 246.734 32.5078V31.7109C247.099 31.9297 247.534 32.1094 248.039 32.25C248.549 32.3906 249.081 32.4609 249.633 32.4609C250.299 32.4609 250.88 32.349 251.375 32.125C251.87 31.8958 252.253 31.5625 252.523 31.125C252.799 30.6875 252.938 30.151 252.938 29.5156C252.938 28.6667 252.68 28.0052 252.164 27.5312C251.648 27.0521 250.87 26.8125 249.828 26.8125C249.401 26.8125 248.992 26.8438 248.602 26.9062C248.216 26.9635 247.857 27.0365 247.523 27.125L247.07 26.8047L247.531 21.5781H253.016V22.3125H248.211L247.859 26.3828C248.094 26.3255 248.388 26.2682 248.742 26.2109C249.102 26.1484 249.521 26.1172 250 26.1172ZM257.883 21.4141C258.643 21.4141 259.211 21.7214 259.586 22.3359C259.961 22.9505 260.148 23.8333 260.148 24.9844C260.148 26.1615 259.953 27.0573 259.562 27.6719C259.172 28.2812 258.607 28.5859 257.867 28.5859C257.143 28.5859 256.589 28.276 256.203 27.6562C255.823 27.0365 255.633 26.1458 255.633 24.9844C255.633 23.8229 255.826 22.9375 256.211 22.3281C256.602 21.7188 257.159 21.4141 257.883 21.4141ZM257.883 22.0391C257.383 22.0391 257 22.2839 256.734 22.7734C256.474 23.263 256.344 24 256.344 24.9844C256.344 25.9635 256.471 26.7057 256.727 27.2109C256.987 27.7109 257.367 27.9609 257.867 27.9609C258.393 27.9609 258.786 27.7083 259.047 27.2031C259.312 26.6927 259.445 25.9531 259.445 24.9844C259.445 24.0208 259.32 23.2891 259.07 22.7891C258.82 22.2891 258.424 22.0391 257.883 22.0391ZM264.75 21.5781L258.414 33H257.672L264.008 21.5781H264.75ZM264.523 25.9922C265.273 25.9922 265.836 26.2995 266.211 26.9141C266.591 27.5286 266.781 28.4115 266.781 29.5625C266.781 30.7396 266.586 31.6328 266.195 32.2422C265.805 32.8516 265.24 33.1562 264.5 33.1562C263.776 33.1562 263.221 32.849 262.836 32.2344C262.456 31.6146 262.266 30.724 262.266 29.5625C262.266 28.401 262.458 27.5156 262.844 26.9062C263.234 26.2969 263.794 25.9922 264.523 25.9922ZM264.523 26.6172C264.018 26.6172 263.633 26.862 263.367 27.3516C263.107 27.8359 262.977 28.5729 262.977 29.5625C262.977 30.5417 263.104 31.2812 263.359 31.7812C263.62 32.2812 264 32.5312 264.5 32.5312C265.026 32.5312 265.419 32.2812 265.68 31.7812C265.945 31.276 266.078 30.5365 266.078 29.5625C266.078 28.599 265.953 27.8672 265.703 27.3672C265.453 26.8672 265.06 26.6172 264.523 26.6172Z" fill="white"/>
<path d="M12 7.99984C12 5.78202 13.782 3.97576 15.9996 3.94579L300.001 0.108094C304.401 0.0486329 308 3.59931 308 8C308 12.4007 304.401 15.9514 300.001 15.8919L15.9996 12.0539C13.782 12.0239 12 10.2177 12 7.99984Z" fill="#B3B3B3" fill-opacity="0.7"/>
<path d="M12 7.99985C12 5.77978 13.7797 3.96955 15.9994 3.93177L239.001 0.136145C243.397 0.0613319 247 3.60392 247 7.99999C247 12.3961 243.397 15.9387 239.001 15.8638L15.9994 12.0679C13.7797 12.0301 12 10.2199 12 7.99985Z" fill="#00FF29" fill-opacity="0.7"/>
<path d="M12 7.99193C12 5.69541 13.8417 3.82323 16.1379 3.78557L179.001 1.11477C182.848 1.05169 186 4.15256 186 7.99967C186 11.847 182.847 14.948 179.001 14.8846L16.1376 12.1983C13.8415 12.1604 12 10.2883 12 7.99193Z" fill="white"/>
</svg>
