<svg width="32" height="32" viewBox="0 0 32 32" fill="none" xmlns="http://www.w3.org/2000/svg">
    <path d="M8 0C6.9 0 6 0.9 6 2V30C6 31.1 6.9 32 8 32H28C29.1 32 30 31.1 30 30V8L22 0H8Z" fill="#E2E5E7"/>
    <path d="M24 8H30L22 0V6C22 7.1 22.9 8 24 8Z" fill="#B0B7BD"/>
    <path d="M30 14L24 8H30V14Z" fill="#CAD1D8"/>
    <path d="M26 26C26 26.55 25.55 27 25 27H3C2.45 27 2 26.55 2 26V16C2 15.45 2.45 15 3 15H25C25.55 15 26 15.45 26 16V26Z"
          fill="#F15642"/>
    <path d="M6.35901 18.947C6.35901 18.683 6.56701 18.395 6.90201 18.395H8.74901C9.78901 18.395 10.725 19.091 10.725 20.425C10.725 21.689 9.78901 22.393 8.74901 22.393H7.41401V23.449C7.41401 23.801 7.19001 24 6.90201 24C6.63801 24 6.35901 23.801 6.35901 23.449V18.947ZM7.41401 19.402V21.394H8.74901C9.28501 21.394 9.70901 20.921 9.70901 20.425C9.70901 19.866 9.28501 19.402 8.74901 19.402H7.41401Z"
          fill="white"/>
    <path d="M12.291 24C12.027 24 11.739 23.856 11.739 23.505V18.963C11.739 18.676 12.027 18.467 12.291 18.467H14.122C17.776 18.467 17.696 24 14.194 24H12.291ZM12.795 19.443V23.025H14.122C16.281 23.025 16.377 19.443 14.122 19.443H12.795Z"
          fill="white"/>
    <path d="M18.992 19.5071V20.7781H21.031C21.319 20.7781 21.607 21.0661 21.607 21.3451C21.607 21.6091 21.319 21.8251 21.031 21.8251H18.992V23.5041C18.992 23.7841 18.793 23.9991 18.513 23.9991C18.161 23.9991 17.946 23.7841 17.946 23.5041V18.9621C17.946 18.6751 18.162 18.4661 18.513 18.4661H21.32C21.672 18.4661 21.88 18.6751 21.88 18.9621C21.88 19.2181 21.672 19.5061 21.32 19.5061H18.992V19.5071Z"
          fill="white"/>
    <path d="M25 27H6V28H25C25.55 28 26 27.55 26 27V26C26 26.55 25.55 27 25 27Z" fill="#CAD1D8"/>
</svg>