<svg width="20" height="20" viewBox="0 0 20 20" fill="none" xmlns="http://www.w3.org/2000/svg">
    <g clip-path="url(#clip0_8002_58207)">
        <path d="M18.931 13.931C18.9935 13.8685 19.0783 13.8334 19.1667 13.8334C19.2551 13.8334 19.3399 13.8685 19.4024 13.931C19.4649 13.9935 19.5 14.0783 19.5 14.1667V17.5C19.5 18.0305 19.2893 18.5392 18.9142 18.9143C18.5391 19.2893 18.0304 19.5 17.5 19.5H2.5C1.96957 19.5 1.46086 19.2893 1.08579 18.9143C0.710714 18.5392 0.5 18.0305 0.5 17.5V14.1667C0.5 14.0783 0.535119 13.9935 0.597631 13.931C0.660143 13.8685 0.744927 13.8334 0.833333 13.8334C0.92174 13.8334 1.00652 13.8685 1.06904 13.931C1.13155 13.9935 1.16667 14.0783 1.16667 14.1667V17.5C1.16667 17.8537 1.30714 18.1928 1.55719 18.4429C1.80724 18.6929 2.14638 18.8334 2.5 18.8334H17.5C17.8536 18.8334 18.1928 18.6929 18.4428 18.4429C18.6929 18.1928 18.8333 17.8537 18.8333 17.5V14.1667C18.8333 14.0783 18.8685 13.9935 18.931 13.931Z"
              fill="#0092A1" stroke="#0092A1"/>
        <path d="M4.41078 11.2817L8.23245 15.1042C8.70202 15.5714 9.33751 15.8337 9.99995 15.8337C10.6624 15.8337 11.2979 15.5714 11.7674 15.1042L15.5891 11.2825C15.6687 11.2056 15.7322 11.1137 15.7759 11.012C15.8195 10.9103 15.8425 10.801 15.8435 10.6903C15.8444 10.5797 15.8234 10.47 15.7815 10.3675C15.7396 10.2651 15.6777 10.1721 15.5994 10.0938C15.5212 10.0156 15.4282 9.95372 15.3257 9.91182C15.2233 9.86992 15.1136 9.84883 15.0029 9.84979C14.8923 9.85075 14.7829 9.87374 14.6813 9.91742C14.5796 9.96109 14.4877 10.0246 14.4108 10.1042L10.8333 13.68V0.833333C10.8333 0.61232 10.7455 0.400358 10.5892 0.244078C10.4329 0.0877974 10.221 0 9.99995 0C9.77893 0 9.56697 0.0877974 9.41069 0.244078C9.25441 0.400358 9.16661 0.61232 9.16661 0.833333V13.6808L5.58911 10.1033C5.51224 10.0237 5.42029 9.96026 5.31862 9.91658C5.21695 9.87291 5.1076 9.84992 4.99695 9.84896C4.8863 9.848 4.77656 9.86908 4.67415 9.91098C4.57174 9.95288 4.47869 10.0148 4.40045 10.093C4.32221 10.1712 4.26033 10.2643 4.21843 10.3667C4.17653 10.4691 4.15544 10.5789 4.1564 10.6895C4.15737 10.8002 4.18035 10.9095 4.22403 11.0112C4.2677 11.1128 4.33119 11.2048 4.41078 11.2817Z"
              fill="#0092A1"/>
    </g>
    <defs>
        <clipPath id="clip0_8002_58207">
            <rect width="20" height="20" fill="white"/>
        </clipPath>
    </defs>
</svg>