<svg id="Слой_1" data-name="Слой 1" xmlns="http://www.w3.org/2000/svg" xmlns:xlink="http://www.w3.org/1999/xlink"
     viewBox="0 0 2066 1817">
    <defs>
        <style>
            .cls-1,.cls-3{fill:url(#Безымянный_градиент_8);}.cls-1,.cls-2{clip-rule:evenodd;}.cls-2,.cls-6,.cls-8{fill:#fc0;}.cls-3,.cls-6{fill-rule:evenodd;}.cls-4{clip-path:url(#clip-path);}.cls-5{fill:url(#Безымянный_градиент_8-3);}.cls-7{clip-path:url(#clip-path-2);}
        </style>
        <linearGradient id="Безымянный_градиент_8" x1="1104.05" y1="915.55" x2="2033" y2="915.55"
                        gradientUnits="userSpaceOnUse">
            <stop offset="0" stop-color="#007b82"/>
            <stop offset="1" stop-color="#007b82"/>
        </linearGradient>
        <clipPath id="clip-path">
            <path class="cls-1"
                  d="M2033,248.86A224.93,224.93,0,0,0,1967.16,89C1879.39,1.22,1735.77,1.27,1648,89L1169.88,567.13c-87.77,87.78-87.78,231.38,0,319.16h0c87.76,87.74,231.4,87.76,319.15,0l92.62-92.64v788.65c0,124.1,101.57,225.6,225.68,225.6h0c124.08,0,225.64-101.5,225.64-225.6Z"/>
        </clipPath>
        <linearGradient id="Безымянный_градиент_8-3" x1="1512.79" y1="996.19" x2="2102.4" y2="-209.84"
                        xlink:href="#Безымянный_градиент_8"/>
        <clipPath id="clip-path-2">
            <path class="cls-2"
                  d="M32.79,248.86A225,225,0,0,1,98.62,89C186.38,1.22,330,1.27,417.77,89L895.9,567.13c87.76,87.78,87.77,231.38,0,319.16h0c-87.75,87.74-231.4,87.76-319.16,0L484.1,793.66v788.65c0,124.1-101.55,225.6-225.65,225.6h0c-124.09,0-225.66-101.5-225.66-225.6Z"/>
        </clipPath>
    </defs>
    <path class="cls-3"
          d="M2033,248.86A224.93,224.93,0,0,0,1967.16,89C1879.39,1.22,1735.77,1.27,1648,89L1169.88,567.13c-87.77,87.78-87.78,231.38,0,319.16h0c87.76,87.74,231.4,87.76,319.15,0l92.62-92.64v788.65c0,124.1,101.57,225.6,225.68,225.6h0c124.08,0,225.64-101.5,225.64-225.6Z"/>
    <g class="cls-4">
        <rect class="cls-5" x="1082.1" y="1.22" width="950.96" height="1806.69"/>
    </g>
    <path class="cls-6"
          d="M32.79,248.86A225,225,0,0,1,98.62,89C186.38,1.22,330,1.27,417.77,89L895.9,567.13c87.76,87.78,87.77,231.38,0,319.16h0c-87.75,87.74-231.4,87.76-319.16,0L484.1,793.66v788.65c0,124.1-101.55,225.6-225.65,225.6h0c-124.09,0-225.66-101.5-225.66-225.6Z"/>
    <g class="cls-7">
        <rect class="cls-8" x="32.72" y="1.22" width="950.95" height="1806.69"/>
    </g>
</svg>