<svg width="60" height="60" viewBox="0 0 60 60" fill="none" xmlns="http://www.w3.org/2000/svg">
<path fill-rule="evenodd" clip-rule="evenodd" d="M30.0326 58.0002H29.9726C29.9046 57.9992 29.8376 57.9862 29.7716 57.9712H29.7686H29.7716L29.7626 57.9692C14.1575 54.2862 3.54247 38.0001 4.01648 12.981C4.02148 12.701 4.14349 12.437 4.35249 12.251C4.56249 12.066 4.83949 11.977 5.11749 12.005C13.2135 12.834 22.2546 9.21903 27.2816 2.406C27.4696 2.151 27.7686 2 28.0856 2H31.9306C32.2486 2 32.5476 2.151 32.7356 2.406C37.7626 9.21903 46.7886 12.834 54.8837 12.005C55.1627 11.977 55.4397 12.066 55.6487 12.251C55.8587 12.437 55.9807 12.701 55.9857 12.981C56.4597 38.0021 45.8416 54.2892 30.2376 57.9702L30.1946 57.9752L30.2326 57.9712L30.1926 57.9762C30.1406 57.9872 30.0876 57.9982 30.0326 58.0002ZM28.5836 4.00001H31.4336C36.6966 10.811 45.6936 14.552 53.9997 14.081C54.1417 37.1871 44.5116 52.4162 30.0006 55.9692C15.4905 52.4162 5.85949 37.1871 6.00249 14.081C14.3095 14.552 23.3195 10.811 28.5836 4.00001ZM18.4415 37.8971C16.9025 35.6491 16.0005 32.9291 16.0005 30.0001C16.0005 22.2731 22.2746 16.0001 30.0006 16.0001C37.7276 16.0001 44.0006 22.2731 44.0006 30.0001C44.0006 37.3661 38.2996 43.4112 31.0736 43.9592C30.7966 43.9782 30.5256 43.8802 30.3236 43.6912C30.1216 43.5022 30.0066 43.2372 30.0066 42.9602C30.0006 42.9592 30.0006 42.9592 30.0006 42.9582C30.0016 42.4311 30.4106 41.9941 30.9366 41.9591C37.1226 41.4861 42.0006 36.3081 42.0006 30.0001C42.0006 23.3771 36.6236 18.0001 30.0006 18.0001C23.3776 18.0001 18.0005 23.3771 18.0005 30.0001C18.0005 32.5051 18.7695 34.8311 20.0845 36.7561L20.4285 35.2791C20.5535 34.7411 21.0916 34.4061 21.6286 34.5311C22.1666 34.6571 22.5015 35.1951 22.3765 35.7321L21.4695 39.6281C21.3445 40.1661 20.8066 40.5001 20.2686 40.3751L16.3725 39.4691C15.8355 39.3431 15.5005 38.8051 15.6255 38.2681C15.7505 37.7301 16.2885 37.3961 16.8265 37.5211L18.4415 37.8971ZM24.2936 31.7071L28.2936 35.7071C28.4986 35.9121 28.7826 36.0181 29.0716 35.9971C29.3606 35.9771 29.6266 35.8321 29.8006 35.6001L35.8006 27.6001C36.1316 27.1581 36.0426 26.5311 35.6006 26.2001C35.1596 25.8691 34.5316 25.9581 34.2006 26.4001L28.8926 33.4781L25.7076 30.2931C25.3176 29.9031 24.6836 29.9031 24.2936 30.2931C23.9036 30.6831 23.9036 31.3171 24.2936 31.7071Z" fill="url(#paint0_linear_275_69)"/>
<defs>
<linearGradient id="paint0_linear_275_69" x1="38.0006" y1="45.0002" x2="14.0005" y2="21.0001" gradientUnits="userSpaceOnUse">
<stop stop-color="#0053FA"/>
<stop offset="1" stop-color="#0099FA"/>
</linearGradient>
</defs>
</svg>
