<svg width="60" height="60" viewBox="0 0 60 60" fill="none" xmlns="http://www.w3.org/2000/svg">
<path fill-rule="evenodd" clip-rule="evenodd" d="M24.0009 38.0001V13C24.0009 12.448 23.5529 12 23.0009 12H11.0009C10.4489 12 10.0009 12.448 10.0009 13V38.0001H5.00089C4.63188 38.0001 4.29388 38.2031 4.11888 38.5281C3.94488 38.8531 3.96488 39.2481 4.16888 39.5551L16.1689 57.5552C16.3549 57.8332 16.6669 58.0002 17.0009 58.0002C17.3359 58.0002 17.6479 57.8332 17.8329 57.5552L29.833 39.5551C30.038 39.2481 30.057 38.8531 29.883 38.5281C29.709 38.2031 29.37 38.0001 29.001 38.0001H24.0009ZM22.0009 39.0001C22.0009 39.5521 22.4489 40.0001 23.0009 40.0001H27.133L17.0009 55.1972L6.86989 40.0001H11.0009C11.5529 40.0001 12.0009 39.5521 12.0009 39.0001V14H22.0009V39.0001ZM36.001 22.0001V47.0002C36.001 47.5522 36.449 48.0002 37.001 48.0002H49.001C49.553 48.0002 50.001 47.5522 50.001 47.0002V22.0001H55.0011C55.3701 22.0001 55.7091 21.7971 55.8831 21.4721C56.0571 21.1471 56.0381 20.7521 55.8331 20.4451L43.833 2.445C43.648 2.167 43.336 2 43.001 2C42.667 2 42.355 2.167 42.169 2.445L30.169 20.4451C29.965 20.7521 29.945 21.1471 30.119 21.4721C30.294 21.7971 30.632 22.0001 31.001 22.0001H36.001ZM38.001 21.0001C38.001 20.4481 37.553 20.0001 37.001 20.0001H32.87L43.001 4.80301L53.1331 20.0001H49.001C48.449 20.0001 48.001 20.4481 48.001 21.0001V46.0002H38.001V21.0001Z" fill="url(#paint0_linear_271_43)"/>
<defs>
<linearGradient id="paint0_linear_271_43" x1="41.001" y1="43.0002" x2="15.0009" y2="19.0001" gradientUnits="userSpaceOnUse">
<stop stop-color="#0053FA"/>
<stop offset="1" stop-color="#0099FA"/>
</linearGradient>
</defs>
</svg>
