<svg width="15" height="15" viewBox="0 0 15 15" fill="none" xmlns="http://www.w3.org/2000/svg">
<path d="M7.49584 15C5.44697 15 5.20544 14.9892 4.40589 14.9543C3.78237 14.9338 3.16694 14.8072 2.58606 14.58C1.58105 14.1895 0.786347 13.3956 0.395614 12.3919C0.176824 11.8097 0.0588155 11.1947 0.0466408 10.573C0 9.77628 0 9.51514 0 7.48503C0 5.4333 0.0108273 5.19378 0.0466408 4.39953C0.0590819 3.77871 0.177086 3.16451 0.395614 2.58317C0.785923 1.57812 1.58191 0.783576 2.58856 0.394212C3.17044 0.174819 3.78568 0.0566736 4.40755 0.0449102C5.20294 0 5.46446 0 7.49584 0C9.56135 0 9.79872 0.0108117 10.5858 0.0449102C11.2093 0.0567753 11.8261 0.174908 12.4098 0.394212C13.4161 0.784018 14.212 1.57841 14.6027 2.58317C14.8252 3.17298 14.9438 3.79678 14.9534 4.42698C15 5.22372 15 5.48403 15 7.51331C15 9.54258 14.9883 9.80871 14.9534 10.5963C14.941 11.2186 14.8227 11.8342 14.6036 12.4168C14.2118 13.4212 13.4159 14.2154 12.4098 14.6058C11.827 14.8238 11.2114 14.9417 10.5891 14.9543C9.79373 15 9.53304 15 7.49584 15ZM7.46752 1.31653C5.43032 1.31653 5.21877 1.32651 4.42338 1.36228C3.94863 1.36856 3.47847 1.45604 3.03331 1.62092C2.37597 1.8721 1.85582 2.38938 1.60161 3.04474C1.43521 3.49409 1.34759 3.96871 1.34259 4.44777C1.29845 5.25366 1.29845 5.4649 1.29845 7.48503C1.29845 9.48104 1.30594 9.72305 1.34259 10.524C1.35004 10.9982 1.43761 11.4677 1.60161 11.9128C1.8562 12.5678 2.37626 13.0847 3.03331 13.3358C3.47816 13.5018 3.94852 13.5893 4.42338 13.5945C5.22959 13.6411 5.44198 13.6411 7.46752 13.6411C9.51055 13.6411 9.7221 13.6311 10.5108 13.5945C10.9859 13.5887 11.4564 13.5012 11.9017 13.3358C12.5551 13.0825 13.0718 12.5668 13.3259 11.9145C13.492 11.4648 13.5796 10.9899 13.585 10.5106H13.5941C13.6299 9.71557 13.6299 9.50349 13.6299 7.47172C13.6299 5.43995 13.6208 5.22621 13.585 4.43197C13.5775 3.95829 13.4899 3.48928 13.3259 3.04474C13.0724 2.39153 12.5556 1.87483 11.9017 1.62092C11.4565 1.45521 10.9859 1.3677 10.5108 1.36228C9.70544 1.31653 9.49473 1.31653 7.46752 1.31653ZM7.49584 11.3265C5.93836 11.3275 4.53366 10.3915 3.93686 8.95497C3.34007 7.51844 3.66872 5.86438 4.76954 4.76419C5.87037 3.664 7.52654 3.33439 8.96565 3.92908C10.4048 4.52378 11.3434 5.92564 11.3437 7.48087C11.3414 9.60251 9.62054 11.3224 7.49584 11.3265ZM7.49584 4.9842C6.11589 4.9842 4.99722 6.10125 4.99722 7.47921C4.99722 8.85716 6.11589 9.97422 7.49584 9.97422C8.87578 9.97422 9.99445 8.85716 9.99445 7.47921C9.99124 6.10258 8.87445 4.9874 7.49584 4.9842ZM11.4936 4.39122C10.9984 4.38938 10.5982 3.98751 10.5991 3.49302C10.6 2.99853 11.0017 2.59814 11.4969 2.59814C11.9922 2.59814 12.3939 2.99852 12.3948 3.49301C12.395 3.73159 12.3001 3.96043 12.131 4.12897C11.9619 4.29751 11.7325 4.39188 11.4936 4.39122Z" fill="#BF3072"/>
</svg>
