<svg width="26" height="26" viewBox="0 0 26 26" fill="none" xmlns="http://www.w3.org/2000/svg">
<g clip-path="url(#clip0_8_32)">
<path d="M19.8828 17.3333C19.3963 17.3352 18.9153 17.4353 18.4685 17.6277C18.0217 17.8201 17.6184 18.1007 17.2828 18.4528L8.47889 14.0472C8.69546 13.3906 8.69546 12.6817 8.47889 12.025L17.2972 7.54001C17.9289 8.20563 18.7854 8.61263 19.7004 8.68189C20.6154 8.75115 21.5235 8.47773 22.2481 7.91477C22.9728 7.35181 23.4622 6.53953 23.6213 5.63582C23.7804 4.7321 23.5978 3.80151 23.109 3.02492C22.6202 2.24833 21.8601 1.68122 20.9765 1.43381C20.0929 1.18641 19.1488 1.27639 18.3278 1.68627C17.5068 2.09614 16.8676 2.79663 16.5343 3.65157C16.201 4.50652 16.1975 5.45485 16.5244 6.31224L7.79278 10.7539C7.32121 10.1772 6.6828 9.76041 5.96506 9.56074C5.24733 9.36107 4.48541 9.38828 3.78375 9.63862C3.08209 9.88897 2.47503 10.3502 2.04578 10.9591C1.61654 11.568 1.38612 12.2948 1.38612 13.0397C1.38612 13.7847 1.61654 14.5115 2.04578 15.1204C2.47503 15.7293 3.08209 16.1905 3.78375 16.4409C4.48541 16.6912 5.24733 16.7184 5.96506 16.5187C6.6828 16.3191 7.32121 15.9023 7.79278 15.3256L16.5028 19.7095C16.3556 20.1046 16.2798 20.5228 16.2789 20.9445C16.2789 21.6587 16.4907 22.3568 16.8875 22.9507C17.2843 23.5445 17.8482 24.0074 18.5081 24.2807C19.1679 24.554 19.894 24.6255 20.5945 24.4862C21.295 24.3468 21.9384 24.0029 22.4434 23.4979C22.9485 22.9929 23.2924 22.3494 23.4317 21.649C23.5711 20.9485 23.4996 20.2224 23.2262 19.5625C22.9529 18.9027 22.4901 18.3387 21.8962 17.9419C21.3024 17.5451 20.6042 17.3333 19.89 17.3333H19.8828ZM19.8828 2.8889C20.3113 2.8889 20.7302 3.01598 21.0865 3.25405C21.4428 3.49213 21.7205 3.83051 21.8845 4.22642C22.0485 4.62233 22.0914 5.05797 22.0078 5.47826C21.9242 5.89856 21.7179 6.28462 21.4148 6.58763C21.1118 6.89065 20.7258 7.097 20.3055 7.1806C19.8852 7.26421 19.4495 7.2213 19.0536 7.05731C18.6577 6.89332 18.3193 6.61561 18.0813 6.2593C17.8432 5.903 17.7161 5.4841 17.7161 5.05557C17.7161 4.48093 17.9444 3.92983 18.3507 3.5235C18.757 3.11718 19.3081 2.8889 19.8828 2.8889ZM5.05556 15.1667C4.62703 15.1667 4.20813 15.0396 3.85183 14.8015C3.49552 14.5635 3.21781 14.2251 3.05382 13.8292C2.88983 13.4333 2.84692 12.9976 2.93053 12.5773C3.01413 12.157 3.22048 11.771 3.5235 11.4679C3.82651 11.1649 4.21257 10.9586 4.63287 10.875C5.05316 10.7914 5.4888 10.8343 5.88471 10.9983C6.28061 11.1623 6.619 11.44 6.85708 11.7963C7.09515 12.1526 7.22223 12.5715 7.22223 13C7.22223 13.5747 6.99395 14.1258 6.58763 14.5321C6.1813 14.9384 5.6302 15.1667 5.05556 15.1667ZM19.8828 23.1111C19.4543 23.1111 19.0354 22.9841 18.679 22.746C18.3227 22.5079 18.045 22.1695 17.881 21.7736C17.7171 21.3777 17.6741 20.9421 17.7577 20.5218C17.8413 20.1015 18.0477 19.7154 18.3507 19.4124C18.6537 19.1094 19.0398 18.903 19.4601 18.8194C19.8804 18.7358 20.316 18.7787 20.7119 18.9427C21.1078 19.1067 21.4462 19.3844 21.6843 19.7407C21.9224 20.097 22.0494 20.5159 22.0494 20.9445C22.0494 21.5191 21.8212 22.0702 21.4148 22.4765C21.0085 22.8829 20.4574 23.1111 19.8828 23.1111Z" fill="#6680FF"/>
</g>
<defs>
<clipPath id="clip0_8_32">
<rect width="26" height="26" fill="white"/>
</clipPath>
</defs>
</svg>
