<svg width="17" height="15" viewBox="0 0 17 15" fill="none" xmlns="http://www.w3.org/2000/svg">
<path fill-rule="evenodd" clip-rule="evenodd" d="M7.11491 9.76732L7.11428 9.76684L13.937 3.40487C14.2364 3.13027 13.8716 2.99637 13.4741 3.24544L5.05395 8.73448L1.41691 7.5615C0.631465 7.313 0.625825 6.75531 1.59325 6.35436L15.766 0.707455C16.4133 0.403794 17.0381 0.868104 16.791 1.89182L14.3773 13.6444C14.2088 14.4795 13.7204 14.6793 13.0438 14.2935L9.3653 11.4853L7.59749 13.2615C7.59192 13.2671 7.58637 13.2727 7.58086 13.2782C7.3832 13.4771 7.21967 13.6416 6.86182 13.6416L7.11219 9.76562L7.11491 9.76732Z" fill="#BF3072"/>
</svg>
