<svg width="18" height="14" viewBox="0 0 18 14" fill="none" xmlns="http://www.w3.org/2000/svg">
<path fill-rule="evenodd" clip-rule="evenodd" d="M8.4304 3.75565L8.46739 4.35542L7.85081 4.28198C5.60646 4.00045 3.64573 3.04571 1.98096 1.44224L1.16708 0.646621L0.957441 1.23415C0.513503 2.54386 0.79713 3.92701 1.722 4.85727C2.21526 5.37136 2.10428 5.4448 1.2534 5.13879C0.957441 5.04087 0.698477 4.96743 0.673814 5.00415C0.587493 5.08983 0.883451 6.2037 1.11775 6.64434C1.43837 7.25636 2.09195 7.85613 2.80718 8.2111L3.41143 8.49262L2.6962 8.50486C2.00563 8.50486 1.98096 8.5171 2.05495 8.77415C2.30159 9.56977 3.27578 10.4143 4.36096 10.7816L5.12552 11.0386L4.45962 11.4303C3.47309 11.9933 2.31392 12.3116 1.15475 12.3361C0.599824 12.3483 0.143555 12.3973 0.143555 12.434C0.143555 12.5564 1.64801 13.2418 2.52356 13.5111C5.15019 14.3067 8.27008 13.964 10.6131 12.6053C12.2779 11.6384 13.9426 9.71665 14.7195 7.85613C15.1388 6.86467 15.5581 5.05311 15.5581 4.18405C15.5581 3.621 15.5951 3.54756 16.2856 2.87435C16.6926 2.48266 17.0749 2.05425 17.1488 1.93185C17.2722 1.69928 17.2598 1.69928 16.6309 1.90737C15.5827 2.27457 15.4347 2.22561 15.9527 1.6748C16.335 1.28311 16.7912 0.573179 16.7912 0.365095C16.7912 0.328374 16.6063 0.389575 16.3966 0.499737C16.1746 0.62214 15.6814 0.805744 15.3114 0.915906L14.6455 1.12399L14.0413 0.720062C13.7083 0.499737 13.2397 0.254932 12.9931 0.181491C12.3642 0.0101273 11.4023 0.0346078 10.8351 0.230452C9.29361 0.781263 8.31941 2.20113 8.4304 3.75565Z" fill="#BF3072"/>
</svg>
