<svg width="20" height="16" viewBox="0 0 20 16" fill="none" xmlns="http://www.w3.org/2000/svg">
<path fill-rule="evenodd" clip-rule="evenodd" d="M17.8473 1.38722C18.6946 1.61829 19.3619 2.29912 19.5884 3.16373C19.9999 4.73072 19.9999 8.00025 19.9999 8.00025C19.9999 8.00025 19.9999 11.2697 19.5884 12.8368C19.3619 13.7014 18.6946 14.3822 17.8473 14.6134C16.3118 15.0332 10.1538 15.0332 10.1538 15.0332C10.1538 15.0332 3.99579 15.0332 2.46012 14.6134C1.61279 14.3822 0.945491 13.7014 0.71903 12.8368C0.307617 11.2697 0.307617 8.00025 0.307617 8.00025C0.307617 8.00025 0.307617 4.73072 0.71903 3.16373C0.945491 2.29912 1.61279 1.61829 2.46012 1.38722C3.99579 0.967285 10.1538 0.967285 10.1538 0.967285C10.1538 0.967285 16.3118 0.967285 17.8473 1.38722ZM8.30765 5.24792V11.3635L13.2307 8.30585L8.30765 5.24792Z" fill="#BF3072"/>
</svg>
