<svg xmlns="http://www.w3.org/2000/svg" width="24" height="24" fill="none"><path fill="#fff" d="M12.63 13.66s.3.03.46-.17l.31-.4c.15-.2.52-.32.88-.12a8.7 8.7 0 0 1 1.51 1.08c.23.2.29.49.13.8-.16.29-.38.55-.66.8v.01c-.31.26-.67.4-1.05.28a12.7 12.7 0 0 1-3.37-1.87 10.69 10.69 0 0 1-3.26-4.76l-.01-.01c-.13-.38.02-.74.28-1.05.26-.28.53-.5.81-.66.31-.16.6-.1.8.13.26.27.74.9 1.08 1.51.2.36.07.73-.12.88l-.4.31c-.2.16-.17.46-.17.46s.58 2.22 2.78 2.78Zm3.45-1.84a.21.21 0 0 1-.22-.2 4.12 4.12 0 0 0-1.15-3.05 3.95 3.95 0 0 0-2.83-1.12.21.21 0 0 1-.2-.22c0-.12.09-.21.2-.21 1.24 0 2.3.43 3.13 1.24a4.54 4.54 0 0 1 1.28 3.35c0 .12-.1.21-.21.21Zm-1.12-.44h-.01a.21.21 0 0 1-.2-.21c0-.73-.2-1.32-.65-1.8a2.65 2.65 0 0 0-1.85-.82.21.21 0 0 1-.2-.23c0-.11.1-.2.23-.2a3.1 3.1 0 0 1 2.14.95c.51.57.77 1.27.75 2.1 0 .12-.1.21-.21.21Zm-1.1-.36a.21.21 0 0 1-.21-.2c-.04-.73-.38-1.08-1.08-1.12a.21.21 0 1 1 .03-.43c.92.05 1.43.58 1.47 1.52 0 .12-.08.22-.2.23h-.01Zm4.8 2.44c-.43 3.43-2.94 3.64-3.4 3.79-.2.06-2.03.52-4.33.37 0 0-1.71 2.07-2.25 2.6-.08.09-.18.12-.24.1-.1-.02-.12-.13-.12-.29l.01-2.82c-3.34-.93-3.15-4.43-3.11-6.26.04-1.83.38-3.32 1.4-4.33 1.84-1.66 5.62-1.42 5.62-1.42 3.19.02 4.72.98 5.07 1.3 1.18 1 1.78 3.42 1.34 6.96Zm-.47-7.82c-.42-.38-2.11-1.61-5.88-1.63 0 0-4.45-.27-6.62 1.72C4.48 6.94 4.05 8.71 4 10.9c-.04 2.2-.1 6.3 3.85 7.41v1.7s-.02.69.43.83c.55.17.87-.35 1.4-.92l.98-1.1c2.7.22 4.79-.3 5.02-.38.55-.18 3.64-.57 4.15-4.68.52-4.23-.25-6.9-1.65-8.12Z"/></svg>
