<svg width="126" height="28" viewBox="0 0 126 28" fill="none" xmlns="http://www.w3.org/2000/svg">
<rect width="126" height="28" rx="3" fill="#FC4C02"/>
<path d="M13.5142 18H15.3762V13.324L19.2262 18H21.4242L17.0702 12.764L21.2142 7.976H19.2122L15.3762 12.526V7.99H13.5142V18ZM22.5344 18H25.7544C27.5044 18 28.4844 17.244 28.4844 15.844V15.802C28.4844 14.85 27.8684 14.346 26.8604 14.15C27.7564 13.94 28.1624 13.31 28.1624 12.54V12.512C28.1624 11.168 27.0284 10.678 25.4884 10.678H22.5344V18ZM25.1944 11.812C25.9924 11.812 26.4264 12.008 26.4264 12.68V12.708C26.4264 13.38 26.0624 13.674 25.2504 13.674H24.2284V11.812H25.1944ZM25.4884 14.808C26.3424 14.808 26.7484 15.13 26.7484 15.83V15.858C26.7484 16.572 26.3004 16.866 25.4324 16.866H24.2284V14.808H25.4884ZM32.4326 16.922C31.5926 16.922 31.2566 16.516 31.2566 15.9C31.2566 15.004 32.0826 14.71 33.3706 14.71H34.2386V15.438C34.2386 16.376 33.4686 16.922 32.4326 16.922ZM32.0266 18.14C33.1466 18.14 33.7906 17.734 34.2666 17.104V18H35.9326V13.198C35.9326 11.196 34.6446 10.524 33.0066 10.524C31.3686 10.524 30.0106 11.238 29.8706 12.946H31.5086C31.5926 12.218 32.0266 11.798 32.9086 11.798C33.9026 11.798 34.2386 12.288 34.2386 13.268V13.646H33.3286C31.2286 13.646 29.5766 14.262 29.5766 15.97C29.5766 17.496 30.6826 18.14 32.0266 18.14ZM41.5422 16.796C40.3102 16.796 39.5122 16.026 39.5122 14.388V14.276C39.5122 12.652 40.3522 11.854 41.5282 11.854C42.6342 11.854 43.4742 12.652 43.4742 14.276V14.388C43.4742 15.956 42.7882 16.796 41.5422 16.796ZM37.8742 20.506H39.5682V16.852C39.9602 17.566 40.8002 18.14 41.9622 18.14C43.8522 18.14 45.2102 16.712 45.2102 14.36V14.248C45.2102 11.882 43.7962 10.524 41.9622 10.524C40.8842 10.524 39.9742 11.154 39.5682 11.854V10.678H37.8742V20.506ZM52.0709 10.678H45.8969V11.938H48.1369V18H49.8309V11.938H52.0709V10.678ZM55.0858 18L58.2498 12.82V18H59.9298V10.678H58.2498L55.0858 15.858V10.678H53.3918V18H55.0858ZM65.55 16.796C64.318 16.796 63.52 16.026 63.52 14.388V14.276C63.52 12.652 64.36 11.854 65.536 11.854C66.642 11.854 67.482 12.652 67.482 14.276V14.388C67.482 15.956 66.796 16.796 65.55 16.796ZM61.882 20.506H63.576V16.852C63.968 17.566 64.808 18.14 65.97 18.14C67.86 18.14 69.218 16.712 69.218 14.36V14.248C69.218 11.882 67.804 10.524 65.97 10.524C64.892 10.524 63.982 11.154 63.576 11.854V10.678H61.882V20.506ZM77.3074 18H79.0014V10.678H77.3074V18ZM70.7414 18H73.6394C75.3614 18 76.4954 17.188 76.4954 15.564V15.522C76.4954 13.87 75.3194 13.086 73.6814 13.086H72.4354V10.678H70.7414V18ZM72.4354 16.768V14.318H73.4434C74.4094 14.318 74.8014 14.738 74.8014 15.508V15.55C74.8014 16.404 74.3674 16.768 73.4434 16.768H72.4354ZM90.7146 18H92.5906V7.99H84.4986V18H86.3746V9.488H90.7146V18ZM96.7515 18L101.4 10.454V18H103.276V7.99H101.4L96.7515 15.494V7.99H94.8755V18H96.7515ZM105.553 18H107.415V13.324L111.265 18H113.463L109.109 12.764L113.253 7.976H111.251L107.415 12.526V7.99H105.553V18Z" fill="white"/>
</svg>
