<?xml version="1.0" encoding="UTF-8"?>
<svg width="19px" height="23px" viewBox="0 0 19 23" version="1.1" xmlns="http://www.w3.org/2000/svg" xmlns:xlink="http://www.w3.org/1999/xlink">
    <!-- Generator: Sketch 58 (84663) - https://sketch.com -->
    <title>exit</title>
    <desc>Created with Sketch.</desc>
    <g id="🚧-Workshop" stroke="none" stroke-width="1" fill="none" fill-rule="evenodd">
        <g id="Меню-РБК-Pro-375" transform="translate(-20.000000, -552.000000)" fill="#000000">
            <g id="exit" transform="translate(20.000000, 552.000000)">
                <g id="icons/exit">
                    <path d="M3,17.5 L3,5.5 L0,5.5 L0,2 L0,2 C0,0.8954305 0.8954305,0 2,0 L17,0 C18.1045695,0 19,0.8954305 19,2 L19,21 C19,22.1045695 18.1045695,23 17,23 L2,23 C0.8954305,23 0,22.1045695 0,21 L0,17.5 L3,17.5 Z M16,3 L3,3 L3,6.75 L3,11.5 L3,16.25 L3,20 L16,20 L16,3 Z" id="Rectangle" fill-rule="nonzero"></path>
                    <rect id="Rectangle" fill-rule="evenodd" x="0" y="10" width="11" height="3"></rect>
                    <rect id="rm" fill-rule="evenodd" transform="translate(10.560660, 9.596194) rotate(-45.000000) translate(-10.560660, -9.596194) " x="9.06066017" y="5.59619408" width="3" height="8"></rect>
                    <rect id="rm-copy" fill-rule="evenodd" transform="translate(10.560660, 13.181981) scale(1, -1) rotate(-45.000000) translate(-10.560660, -13.181981) " x="9.06066017" y="9.18198052" width="3" height="8"></rect>
                </g>
            </g>
        </g>
    </g>
</svg>