<svg xmlns="http://www.w3.org/2000/svg" width="24" height="24" fill="none"><path fill="#fff" d="m4 20.076 1.13-4.128a7.95 7.95 0 0 1-1.063-3.983C4.069 7.574 7.643 4 12.033 4c2.131 0 4.131.83 5.636 2.336A7.92 7.92 0 0 1 20 11.972c-.002 4.393-3.576 7.966-7.966 7.966a7.972 7.972 0 0 1-3.81-.97L4 20.076Zm4.419-2.55c1.123.667 2.194 1.066 3.612 1.067 3.65 0 6.622-2.97 6.624-6.622a6.62 6.62 0 0 0-6.619-6.626 6.631 6.631 0 0 0-6.624 6.62c0 1.491.436 2.607 1.17 3.775l-.67 2.443 2.507-.657Zm7.628-3.66c-.05-.083-.183-.132-.382-.232-.2-.1-1.178-.582-1.36-.648-.183-.066-.316-.1-.449.1-.133.199-.514.648-.63.78-.116.133-.233.15-.432.05-.199-.1-.84-.31-1.6-.988a5.992 5.992 0 0 1-1.108-1.38c-.116-.198-.012-.306.087-.405.09-.09.2-.233.3-.35.1-.115.133-.198.2-.331.066-.133.034-.25-.017-.349-.05-.1-.448-1.08-.613-1.478-.162-.387-.327-.335-.448-.341l-.382-.007a.73.73 0 0 0-.53.25c-.183.199-.697.68-.697 1.66 0 .98.713 1.926.812 2.059.1.133 1.403 2.143 3.4 3.005.475.206.846.328 1.135.42.477.151.911.13 1.254.079.382-.057 1.178-.482 1.344-.947.166-.465.166-.864.116-.947Z"/></svg>
