<svg width="48" height="48" viewBox="0 0 48 48" fill="none" xmlns="http://www.w3.org/2000/svg">
<path d="M2.3242 33.8074C1.30473 33.2339 1.30472 31.7661 2.3242 31.1926L22.5292 19.8273C23.4425 19.3136 24.5575 19.3136 25.4708 19.8273L45.6758 31.1926C46.6953 31.7661 46.6953 33.2339 45.6758 33.8074L25.4708 45.1727C24.5575 45.6864 23.4425 45.6864 22.5292 45.1727L2.3242 33.8074Z" fill="black"/>
<path d="M2.3242 24.8074C1.30473 24.2339 1.30472 22.7661 2.3242 22.1926L22.5292 10.8273C23.4425 10.3136 24.5575 10.3136 25.4708 10.8273L45.6758 22.1926C46.6953 22.7661 46.6953 24.2339 45.6758 24.8074L25.4708 36.1727C24.5575 36.6864 23.4425 36.6864 22.5292 36.1727L2.3242 24.8074Z" fill="#FFCC66"/>
<path d="M2.3242 15.8074C1.30473 15.2339 1.30472 13.7661 2.3242 13.1926L22.5292 1.82732C23.4425 1.31362 24.5575 1.31362 25.4708 1.82732L45.6758 13.1926C46.6953 13.7661 46.6953 15.2339 45.6758 15.8074L25.4708 27.1727C24.5575 27.6864 23.4425 27.6864 22.5292 27.1727L2.3242 15.8074Z" fill="#E3E3E3"/>
</svg>
