<svg width="48" height="48" viewBox="0 0 48 48" fill="none" xmlns="http://www.w3.org/2000/svg">
<path d="M15.3148 45H2.4594C1.75671 45 1.27317 44.2943 1.52684 43.639L12.7032 14.7668C12.8821 14.3046 13.3267 14 13.8223 14H26.5406C27.2433 14 27.7268 14.7057 27.4732 15.361L16.2474 44.361C16.0983 44.7461 15.7278 45 15.3148 45Z" fill="black"/>
<path d="M35.1777 34H22.4594C21.7567 34 21.2732 33.2943 21.5268 32.639L32.7526 3.63901C32.9017 3.25387 33.2722 3 33.6852 3H46.5406C47.2433 3 47.7268 3.70568 47.4732 4.36099L36.2968 33.2332C36.1179 33.6954 35.6733 34 35.1777 34Z" fill="#FFCC66"/>
<path d="M22.0742 34H35.2695C36.0751 34 36.6074 33.1626 36.2655 32.4331L27.9218 14.6331C27.7407 14.2468 27.3525 14 26.9258 14H13.7305C12.9249 14 12.3925 14.8374 12.7345 15.5669L21.0782 33.3669C21.2593 33.7532 21.6475 34 22.0742 34Z" fill="#E3E3E3"/>
</svg>
