<svg xmlns="http://www.w3.org/2000/svg" width="24" height="24" fill="none"><path fill="#fff" d="M12.68 16.16c.35 0 .5-.23.5-.53-.02-1.12.41-1.72 1.2-.94.86.87 1.04 1.47 2.1 1.47h1.86c.47 0 .66-.15.66-.39 0-.5-.83-1.39-1.53-2.04-.98-.91-1.03-.94-.18-2.03 1.05-1.37 2.42-3.12 1.2-3.12h-2.32c-.45 0-.48.26-.64.64-.58 1.36-1.68 3.14-2.1 2.87-.44-.29-.24-1.4-.2-3.07 0-.44 0-.74-.67-.9A4.7 4.7 0 0 0 11.5 8c-1.32 0-2.24.56-1.72.65.92.17.83 2.16.62 3.01-.38 1.5-1.77-1.18-2.36-2.5-.14-.33-.18-.58-.68-.58h-1.9c-.29 0-.46.1-.46.3 0 .36 1.73 3.92 3.38 5.7 1.6 1.74 3.2 1.58 4.3 1.58Z"/></svg>
