<svg width="106" height="40" viewBox="0 0 106 40" fill="none" xmlns="http://www.w3.org/2000/svg">
<path d="M8.18609 23.4034H5.06197L3.61227 27.2776L1.79507 26.6487L2.99969 23.4034H1.40723V21.3752H3.75525L4.81689 18.5352H1.40723V16.5066H5.59279L7.04269 12.6325L8.85968 13.2811L7.65506 16.5068H10.7381L12.1878 12.6323L14.0052 13.2605L12.8006 16.5064H14.5564V18.535H12.0448L10.983 21.375H14.5562V23.4031H10.2278L8.79867 27.2774L6.98127 26.6283L8.18609 23.4034ZM5.81732 21.3752H8.94124L9.98254 18.5352H6.87896L5.81732 21.3752ZM28.4697 25.6748C27.5714 26.6285 25.7542 27.2776 23.8961 27.2776C19.5267 27.2776 16.5252 24.3774 16.5252 19.9552C16.5252 15.8774 19.1181 12.6323 23.8346 12.6323C25.6927 12.6323 27.2445 13.2203 28.1839 14.0721L27.0609 15.9182C26.2032 15.3505 25.2642 14.9652 23.8346 14.9652C21.1803 14.9652 19.1795 16.8715 19.1795 19.9552C19.1795 22.9166 21.2011 24.945 24.1208 24.945C25.3254 24.945 26.53 24.5597 27.5099 23.8091L28.4697 25.6748ZM38.6607 17.7034C41.7028 17.7034 43.6628 19.7523 43.6628 22.4905C43.6628 25.2291 41.7028 27.2776 38.6607 27.2776C35.6181 27.2776 33.6579 25.2291 33.6579 22.4905C33.6581 19.7523 35.6183 17.7034 38.6607 17.7034ZM38.6607 25.107C40.1102 25.107 41.172 24.0725 41.172 22.4905C41.172 20.9489 40.0896 19.8938 38.6607 19.8938C37.272 19.8938 36.1695 20.9085 36.1695 22.4905C36.1695 24.0119 37.2311 25.107 38.6607 25.107ZM53.5477 27.054H51.1993V25.9389C50.6481 26.608 49.6884 27.2776 48.2592 27.2776C46.4626 27.2776 45.0332 26.1215 45.0332 23.5048V17.9266H47.381V23.0178C47.381 24.2346 47.8508 25.107 49.137 25.107C49.9131 25.107 50.6687 24.6809 51.1993 23.9913V17.9264H53.5477V27.054ZM62.0844 26.1009C61.4718 26.7507 60.6347 27.217 59.4504 27.217C56.8167 27.217 55.1217 25.3713 55.1217 22.5919C55.1217 19.7115 57.2045 17.7034 60.1651 17.7034C60.9821 17.7034 61.5739 17.8448 62.0846 18.1499V12.8548H64.4326V27.054H62.0846V26.1009H62.0844ZM62.0844 24.1134V20.4413C61.4924 20.0764 60.8999 19.8938 60.2672 19.8938C58.8787 19.8938 57.633 20.827 57.633 22.5107C57.633 24.1336 58.6949 25.0458 59.9406 25.0458C60.7976 25.0458 61.5534 24.6403 62.0844 24.1134ZM67.2525 12.8548H69.7842L74.6639 19.4882L79.3195 12.8548H81.6878V27.054H79.197V16.7909L74.6846 23.0989H74.3169L69.7639 16.8511V27.054H67.2523V12.8548H67.2525ZM83.0533 12.8548H94.8349V15.1885H90.1999V27.0542H87.6885V15.1885H83.0535V12.8548H83.0533ZM95.4656 16.5472C95.4656 14.4172 97.1398 12.6323 99.917 12.6323C101.673 12.6323 103.143 13.2203 104 14.1538L102.653 16.0197C101.958 15.3505 101.264 14.9652 100.121 14.9652C98.8754 14.9652 98.1199 15.5944 98.1199 16.5266C98.1199 19.4676 104.593 18.5352 104.593 23.2609C104.593 25.6546 102.49 27.2776 99.8149 27.2776C97.9771 27.2776 95.8331 26.4866 95.1389 25.0458L96.5679 23.3425C97.4054 24.4174 98.753 24.945 99.8555 24.945C101.04 24.945 101.938 24.3568 101.938 23.2815C101.938 20.4821 95.4656 21.1725 95.4656 16.5472ZM32.1672 12.8548H29.6437V27.0542H32.1672V12.8548ZM59.7405 15.5134C59.5554 10.9646 55.7778 7.31947 51.1545 7.31947C50.038 7.31947 48.9347 7.53784 47.9044 7.95866C45.6585 3.86825 41.3458 1.28906 36.5828 1.28906C30.7604 1.28906 25.838 5.14539 24.2395 10.4193H26.8472C28.346 6.52396 32.1415 3.74763 36.5828 3.74763C43.3101 3.74763 46.1298 9.45049 46.8064 11.0572C47.9548 10.4711 49.2773 9.77743 51.1545 9.77743C54.278 9.77743 57.0759 12.1789 57.2684 15.5131H59.7405V15.5134Z" fill="#EC2227"/>
</svg>
