<svg xmlns="http://www.w3.org/2000/svg" width="17" height="17" fill="none"><path fill="#000" fill-opacity=".545" fill-rule="evenodd" d="m15.667 9 .42-.269v-.002l-.002-.003-.008-.012-.028-.043c-.025-.037-.06-.09-.107-.156a15.514 15.514 0 0 0-1.88-2.207c-1.23-1.19-3.02-2.474-5.062-2.474-2.042 0-3.831 1.284-5.061 2.474A15.516 15.516 0 0 0 1.952 8.67l-.029.043-.007.012-.003.003v.002l.42.27-.42-.27a.5.5 0 0 0 0 .54l.42-.27-.42.27.003.004.007.012.029.043a14.03 14.03 0 0 0 .51.705c.347.451.851 1.054 1.477 1.658 1.23 1.19 3.019 2.474 5.061 2.474 2.043 0 3.832-1.284 5.062-2.474a15.512 15.512 0 0 0 1.987-2.363l.028-.043.008-.012.002-.003V9.27l-.42-.27Zm0 0 .421.27a.5.5 0 0 0 0-.539l-.421.27ZM7.939 7.94a1.5 1.5 0 1 1 2.122 2.121A1.5 1.5 0 0 1 7.939 7.94Zm-.707-.708a2.5 2.5 0 1 1 3.536 3.536 2.5 2.5 0 0 1-3.536-3.536Z" clip-rule="evenodd"/></svg>