<svg xmlns="http://www.w3.org/2000/svg" width="14" height="9" viewBox="0 0 14 9">
  <path fill="#CCCCCC" fill-rule="evenodd" d="M10,2.97639192 L13.1834726,0.686495854 C13.6299727,0.365324924 14,0.547596823 14,1.10076983 C14,1.10076983 14,2.77119558 14,4.10721261 L14,7.9095261 C14,8.44988173 13.6097447,8.68814761 13.1283404,8.4183511 L10,6.66511523 L10,7.0026083 C10,8.10414219 9.10474188,9 8.00038502,9 L1.99961498,9 C0.88743329,9 0,8.10573727 0,7.0026083 L0,1.9973917 C0,0.895857811 0.895258123,0 1.99961498,0 L8.00038502,0 C9.11256671,0 10,0.894262725 10,1.9973917 L10,2.97639192 Z M3,7 L8,4.5 L3,2 L3,7 Z"/>
</svg>
