<?xml version="1.0" encoding="UTF-8"?>
<svg width="20px" height="21px" viewBox="0 0 20 21" version="1.1" xmlns="http://www.w3.org/2000/svg" xmlns:xlink="http://www.w3.org/1999/xlink">
    <!-- Generator: Sketch 52.5 (67469) - http://www.bohemiancoding.com/sketch -->
    <title>Fill 182 Copy</title>
    <desc>Created with Sketch.</desc>
    <g id="work" stroke="none" stroke-width="1" fill="none" fill-rule="evenodd">
        <g id="1280_Главная_рассылка" transform="translate(-326.000000, -6913.000000)" fill="#FF4444">
            <g id="Fill-182-Copy" transform="translate(326.000000, 6913.000000)">
                <path d="M10.0252312,16.4340875 L10.0072339,16.4340875 C9.46331625,16.4340875 9.01638389,15.9980875 9.00738525,15.4520875 C8.99838662,14.9000875 9.43732018,14.4440875 9.9902365,14.4350875 C9.99623559,14.4350875 10.0022347,14.4340875 10.0072339,14.4340875 C10.5521514,14.4340875 10.998084,14.8710875 11.0070826,15.4170875 C11.0170811,15.9690875 10.5509166,16.4240875 10,16.4340875 L10.0252312,16.4340875 Z M10,5 C10.5522847,5 11,5.44771525 11,6 L11,12 C11,12.5522847 10.5522847,13 10,13 C9.44771525,13 9,12.5522847 9,12 L9,6 C9,5.44771525 9.44771525,5 10,5 Z M10.1706957,0.8715875 L9.99243478,0.8733375 C7.31330435,0.9205875 4.79243478,2.0099625 2.89417391,3.9410875 C0.982,5.8853375 -0.0440869565,8.4324625 0.00113043478,11.1117125 C0.0976521739,16.6565875 4.41504348,21.0000875 9.83069565,21.0000875 L10.0072174,20.9983375 C15.6124348,20.9012125 20.0950435,16.3074625 19.9985217,10.7608375 C19.9028696,5.2159625 15.5854783,0.8715875 10.1706957,0.8715875 L10.1706957,0.8715875 Z" id="Fill-182"></path>
            </g>
        </g>
    </g>
</svg>