<svg width="254" height="254" viewBox="0 0 254 254" fill="none" xmlns="http://www.w3.org/2000/svg">
    <path opacity="0.7" d="M254 0H0V254H254V0Z" fill="#F8F8F8"/>
    <path d="M41 160H55.8617V135.636H64.2616C79.3078 135.636 89 128.889 89 114.74V114.365C89 100.215 79.8615 93 63.7998 93H41V160ZM55.8617 125.048V104.526H63.4307C70.5384 104.526 74.6001 107.337 74.6001 114.458V114.833C74.6001 121.487 70.7229 125.048 63.4307 125.048H55.8617Z" fill="#EAEAEA"/>
    <path d="M147 139.291V138.916C147 125.516 137.94 118.863 122.685 118.863H112.793L112.885 104.807H141.083V93H98V160H122.223C138.587 160 147 152.41 147 139.291ZM112.793 148.474V129.545H121.298C128.972 129.545 132.67 132.825 132.67 138.822V139.197C132.67 145.288 128.972 148.474 121.668 148.474H112.793Z" fill="#EAEAEA"/>
    <path d="M156 160H171.171V129.962L194.301 160H212L184.187 124.722L210.689 93H194.582L171.171 121.915V93.0938H156V160Z" fill="#EAEAEA"/>
</svg>
