<svg width="30" height="30" viewBox="0 0 30 30" fill="none" xmlns="http://www.w3.org/2000/svg">
<circle cx="15" cy="15" r="13.5" fill="#EF4E4E" stroke="white" stroke-width="3"/>
<path fill-rule="evenodd" clip-rule="evenodd" d="M19.8212 13.3338H17.0003V9.17608C17.0003 8.06758 16.4168 7.85384 15.6971 8.6918L9.71537 15.6558C9.23443 16.2157 9.44333 16.6671 10.1794 16.6671H13.0003V20.8249C13.0003 21.9334 13.5838 22.1471 14.3035 21.3092L20.2852 14.3452C20.7662 13.7853 20.5573 13.3338 19.8212 13.3338ZM11.7513 15.3338L15.6738 10.7647L15.6679 14.0007C15.6672 14.3674 15.9656 14.6671 16.3343 14.6671H18.2594L14.3316 19.2319L14.333 15.9994C14.3332 15.6332 14.0356 15.3338 13.6684 15.3338H11.7513Z" fill="white"/>
</svg>
