<svg width="1280" height="160" viewBox="0 0 1280 160" fill="none" xmlns="http://www.w3.org/2000/svg">
<g clip-path="url(#clip0_1_48)">
<rect width="1280" height="160" fill="#101010"/>
<path d="M821.707 0L908 160H745.293L659 0H821.707Z" fill="#04AB63"/>
<path d="M915.707 0L1002 160H839.293L753 0H915.707Z" fill="#04AB63"/>
<path d="M1057.71 0L1144 160H981.293L895 0H1057.71Z" fill="#04AB63"/>
<path d="M1202.71 0L1289 160H1126.29L1040 0H1202.71Z" fill="#04AB63"/>
<path d="M1306.71 0L1393 160H1230.29L1144 0H1306.71Z" fill="#04AB63"/>
<path d="M374.448 82.144C374.256 84.48 373.872 86.432 373.072 87.904H381.52V73.216H374.896C374.8 75.904 374.672 79.296 374.448 82.144ZM370.608 92L370.448 96.16H365.936V87.904H367.376C368.848 87.296 369.488 85.248 369.84 81.856C370.128 78.4 370.224 73.984 370.224 69.12H386.672V87.904H389.456V96.16H384.944L384.784 92H370.608ZM399.444 92.352C394.388 92.352 390.708 89.184 390.708 83.84V83.584C390.708 78.304 394.452 74.88 399.316 74.88C403.636 74.88 407.476 77.408 407.476 83.392V84.672H395.412C395.54 87.456 397.044 89.056 399.572 89.056C401.716 89.056 402.772 88.128 403.06 86.72H407.444C406.9 90.336 404.02 92.352 399.444 92.352ZM395.476 81.824H402.964C402.804 79.296 401.524 78.08 399.316 78.08C397.236 78.08 395.828 79.456 395.476 81.824ZM421.169 92V85.12H414.961V92H410.385V75.264H414.961V81.824H421.169V75.264H425.745V92H421.169ZM429.756 92V75.264H434.332V80.576H437.372C441.276 80.576 443.836 82.656 443.836 86.336V86.432C443.836 90.112 441.404 92 437.244 92H429.756ZM434.332 88.768H436.348C438.268 88.768 439.164 88.032 439.164 86.4V86.304C439.164 84.608 438.236 83.808 436.348 83.808H434.332V88.768ZM461.305 92.352C456.313 92.352 452.505 89.024 452.505 83.808V83.552C452.505 78.304 456.313 74.88 461.337 74.88C466.361 74.88 470.137 78.24 470.137 83.456V83.712C470.137 88.992 466.329 92.352 461.305 92.352ZM461.337 88.832C463.929 88.832 465.433 86.912 465.433 83.744V83.52C465.433 80.32 463.929 78.4 461.337 78.4C458.777 78.4 457.241 80.256 457.241 83.456V83.712C457.241 86.912 458.713 88.832 461.337 88.832ZM485.612 75.264V78.56H480.652V92H476.044V78.56H471.084V75.264H485.612ZM498.229 92L492.661 84.096V92H488.053V75.264H492.661V82.432L498.069 75.264H502.997L496.885 82.912L503.477 92H498.229ZM514.251 88.736C516.811 88.736 518.219 87.008 518.219 83.744V83.488C518.219 80.096 516.555 78.432 514.219 78.432C511.787 78.432 510.123 80.128 510.123 83.488V83.744C510.123 87.104 511.723 88.736 514.251 88.736ZM505.643 97.696V75.264H510.283V77.888C511.211 76.288 513.163 74.88 515.627 74.88C519.723 74.88 522.923 77.92 522.923 83.456V83.712C522.923 89.248 519.787 92.352 515.627 92.352C513.035 92.352 511.147 91.072 510.283 89.44V97.696H505.643ZM541.282 92V75.264H545.858V92H541.282ZM525.89 92V75.264H530.466V80.576H533.282C537.154 80.576 539.746 82.592 539.746 86.272V86.368C539.746 90.016 537.314 92 533.122 92H525.89ZM530.466 88.736H532.29C534.146 88.736 535.074 88.064 535.074 86.336V86.24C535.074 84.64 534.21 83.808 532.29 83.808H530.466V88.736ZM562.847 75.264V78.56H557.887V92H553.279V78.56H548.319V75.264H562.847ZM580.712 92V75.264H585.288V92H580.712ZM565.32 92V75.264H569.896V80.576H572.712C576.584 80.576 579.176 82.592 579.176 86.272V86.368C579.176 90.016 576.744 92 572.552 92H565.32ZM569.896 88.736H571.72C573.576 88.736 574.504 88.064 574.504 86.336V86.24C574.504 84.64 573.64 83.808 571.72 83.808H569.896V88.736ZM587.749 92L593.477 83.456L588.133 75.264H593.445L596.581 80.288L599.653 75.264H604.453L599.109 83.104L604.997 92H599.653L596.133 86.368L592.517 92H587.749ZM373.264 122.512C373.104 124.272 372.848 125.648 372.336 126.704H378.064V116.528H373.584C373.552 118.48 373.456 120.72 373.264 122.512ZM370.448 130L370.384 134.064H366.384V126.704H367.344C368.432 126.256 368.912 124.72 369.2 122.16C369.456 120.016 369.584 116.816 369.584 113.264H382.608V126.704H384.976V134.064H380.976L380.912 130H370.448ZM387.358 130V113.264H394.654C398.398 113.264 400.926 114.48 400.926 117.392V117.456C400.926 119.376 399.902 120.688 397.726 121.2C400.158 121.616 401.598 122.8 401.598 125.008V125.04C401.598 128.176 399.39 130 395.166 130H387.358ZM393.566 116.176H391.934V119.984H393.758C395.422 119.984 396.19 119.376 396.19 118V117.968C396.19 116.56 395.262 116.176 393.566 116.176ZM394.366 122.864H391.934V127.12H394.142C395.966 127.12 396.894 126.512 396.894 125.008V124.976C396.894 123.568 396.094 122.864 394.366 122.864ZM412.284 130.352C407.228 130.352 403.548 127.184 403.548 121.84V121.584C403.548 116.304 407.292 112.88 412.156 112.88C416.476 112.88 420.316 115.408 420.316 121.392V122.672H408.252C408.38 125.456 409.884 127.056 412.412 127.056C414.556 127.056 415.612 126.128 415.9 124.72H420.284C419.74 128.336 416.86 130.352 412.284 130.352ZM408.316 119.824H415.804C415.644 117.296 414.364 116.08 412.156 116.08C410.076 116.08 408.668 117.456 408.316 119.824ZM431.801 126.736C434.361 126.736 435.769 125.008 435.769 121.744V121.488C435.769 118.096 434.105 116.432 431.769 116.432C429.337 116.432 427.673 118.128 427.673 121.488V121.744C427.673 125.104 429.273 126.736 431.801 126.736ZM423.193 135.696V113.264H427.833V115.888C428.761 114.288 430.713 112.88 433.177 112.88C437.273 112.88 440.473 115.92 440.473 121.456V121.712C440.473 127.248 437.337 130.352 433.177 130.352C430.585 130.352 428.697 129.072 427.833 127.44V135.696H423.193ZM451.12 130.352C446.064 130.352 442.384 127.184 442.384 121.84V121.584C442.384 116.304 446.128 112.88 450.992 112.88C455.312 112.88 459.152 115.408 459.152 121.392V122.672H447.088C447.216 125.456 448.72 127.056 451.248 127.056C453.392 127.056 454.448 126.128 454.736 124.72H459.12C458.576 128.336 455.696 130.352 451.12 130.352ZM447.152 119.824H454.64C454.48 117.296 453.2 116.08 450.992 116.08C448.912 116.08 447.504 117.456 447.152 119.824ZM469.741 110.832C466.829 110.832 465.037 108.976 464.845 106.16H468.173C468.269 107.184 468.685 108.08 469.741 108.08C470.829 108.08 471.341 107.216 471.469 106.16H474.733C474.541 108.976 472.621 110.832 469.741 110.832ZM466.637 130H462.061V113.264H466.637V124.432L473.101 113.264H477.677V130H473.101V118.832L466.637 130ZM488.522 130V113.264H495.818C499.562 113.264 502.09 114.48 502.09 117.392V117.456C502.09 119.376 501.066 120.688 498.89 121.2C501.322 121.616 502.762 122.8 502.762 125.008V125.04C502.762 128.176 500.554 130 496.33 130H488.522ZM494.73 116.176H493.098V119.984H494.922C496.586 119.984 497.354 119.376 497.354 118V117.968C497.354 116.56 496.426 116.176 494.73 116.176ZM495.53 122.864H493.098V127.12H495.306C497.13 127.12 498.058 126.512 498.058 125.008V124.976C498.058 123.568 497.258 122.864 495.53 122.864ZM513.086 130V107.12H520.99C526.558 107.12 529.726 109.584 529.726 114.416V114.544C529.726 119.376 526.366 121.68 521.15 121.68H518.238V130H513.086ZM518.238 118.064H520.862C523.39 118.064 524.734 116.848 524.734 114.576V114.448C524.734 112.016 523.326 111.056 520.862 111.056H518.238V118.064ZM549.918 122.928C549.918 127.408 547.006 130 541.342 130H532.958V107.12H547.87V111.152H538.11L538.078 115.952H541.502C546.782 115.952 549.918 118.224 549.918 122.8V122.928ZM538.078 126.064H541.15C543.678 126.064 544.958 124.976 544.958 122.896V122.768C544.958 120.72 543.678 119.6 541.022 119.6H538.078V126.064ZM553.235 130V107.12H558.419V116.976L566.419 107.088H571.923L562.867 117.936L572.371 130H566.323L558.419 119.728V130H553.235Z" fill="white"/>
<path d="M373.944 42.24C368.952 42.24 367.224 38.736 367.224 34.2V33.792C367.224 27.84 370.224 24.6 374.328 24.6C377.448 24.6 379.512 26.136 379.92 29.136H376.944C376.632 27.84 375.96 27.072 374.304 27.072C372 27.072 370.488 29.112 370.392 33.024C371.184 31.704 372.6 30.816 374.64 30.816C377.928 30.816 380.28 33.072 380.28 36.408C380.28 39.888 377.832 42.24 373.944 42.24ZM373.896 39.888C375.816 39.888 377.112 38.52 377.112 36.48C377.112 34.416 375.864 33.024 373.896 33.024C371.952 33.024 370.584 34.392 370.584 36.288C370.584 38.568 371.952 39.888 373.896 39.888ZM392.806 40.152C394.582 40.152 395.902 39.216 395.902 37.608V36.36H394.414C392.206 36.36 390.79 36.864 390.79 38.4C390.79 39.456 391.366 40.152 392.806 40.152ZM392.11 42.24C389.806 42.24 387.91 41.136 387.91 38.52C387.91 35.592 390.742 34.536 394.342 34.536H395.902V33.888C395.902 32.208 395.326 31.368 393.622 31.368C392.11 31.368 391.366 32.088 391.222 33.336H388.414C388.654 30.408 390.982 29.184 393.79 29.184C396.598 29.184 398.806 30.336 398.806 33.768V42H395.95V40.464C395.134 41.544 394.03 42.24 392.11 42.24ZM402.134 42V29.448H407.198C409.838 29.448 411.782 30.288 411.782 32.592V32.64C411.782 33.96 411.086 35.04 409.55 35.4C411.278 35.736 412.334 36.6 412.334 38.232V38.304C412.334 40.704 410.654 42 407.654 42H402.134ZM406.694 31.392H405.038V34.584H406.79C408.182 34.584 408.806 34.08 408.806 32.928V32.88C408.806 31.728 408.062 31.392 406.694 31.392ZM407.198 36.528H405.038V40.056H407.102C408.59 40.056 409.358 39.552 409.358 38.328V38.28C409.358 37.08 408.662 36.528 407.198 36.528ZM423.377 31.608H417.905V42H415.001V29.448H423.377V31.608ZM427.315 46.296L429.595 40.728L424.627 29.448H427.771L431.107 37.536L434.179 29.448H437.011L430.171 46.296H427.315ZM444.216 42.24C440.616 42.24 437.88 39.888 437.88 35.88V35.688C437.88 31.704 440.712 29.184 444.216 29.184C447 29.184 449.616 30.432 449.952 33.888H447.144C446.904 32.208 445.8 31.512 444.264 31.512C442.272 31.512 440.856 33.048 440.856 35.64V35.832C440.856 38.568 442.2 40.008 444.336 40.008C445.872 40.008 447.192 39.096 447.36 37.32H450.024C449.808 40.2 447.624 42.24 444.216 42.24ZM461.909 29.448V31.608H458.069V42H455.165V31.608H451.325V29.448H461.909ZM468.04 40.152C469.816 40.152 471.136 39.216 471.136 37.608V36.36H469.648C467.44 36.36 466.024 36.864 466.024 38.4C466.024 39.456 466.6 40.152 468.04 40.152ZM467.344 42.24C465.04 42.24 463.144 41.136 463.144 38.52C463.144 35.592 465.976 34.536 469.576 34.536H471.136V33.888C471.136 32.208 470.56 31.368 468.856 31.368C467.344 31.368 466.6 32.088 466.456 33.336H463.648C463.888 30.408 466.216 29.184 469.024 29.184C471.832 29.184 474.04 30.336 474.04 33.768V42H471.184V40.464C470.368 41.544 469.264 42.24 467.344 42.24ZM481.719 42V41.424L488.199 34.584C489.831 32.856 490.815 31.344 490.815 29.712C490.815 28.104 489.903 27.096 488.247 27.096C486.543 27.096 485.463 28.08 485.175 30.504H482.247C482.463 26.76 484.719 24.6 488.343 24.6C491.895 24.6 494.007 26.64 494.007 29.664C494.007 31.896 492.687 33.84 490.647 35.808L486.831 39.528H494.127V42H481.719ZM503.541 42.24C499.173 42.24 496.341 39.024 496.341 33.864V33C496.341 27.792 499.221 24.6 503.541 24.6C507.885 24.6 510.717 27.768 510.717 32.928V33.792C510.717 38.952 508.029 42.24 503.541 42.24ZM503.613 39.696C506.253 39.696 507.525 37.68 507.525 33.792V32.952C507.525 29.304 506.133 27.096 503.565 27.096C500.973 27.096 499.557 29.16 499.557 32.976V33.84C499.557 37.728 501.045 39.696 503.613 39.696ZM512.305 42V41.424L518.785 34.584C520.417 32.856 521.401 31.344 521.401 29.712C521.401 28.104 520.489 27.096 518.833 27.096C517.129 27.096 516.049 28.08 515.761 30.504H512.833C513.049 26.76 515.305 24.6 518.929 24.6C522.481 24.6 524.593 26.64 524.593 29.664C524.593 31.896 523.273 33.84 521.233 35.808L517.417 39.528H524.713V42H512.305ZM533.116 42.24C529.036 42.24 526.804 39.984 526.66 36.696H529.564C529.732 38.496 530.74 39.84 533.044 39.84C535.276 39.84 536.308 38.76 536.308 37.056C536.308 35.184 535.3 34.248 533.212 34.248H531.892V31.968H533.116C535.084 31.968 535.972 31.056 535.972 29.448C535.972 28.056 535.084 27.024 533.308 27.024C531.484 27.024 530.308 28.128 530.116 29.856H527.284C527.452 26.88 529.684 24.6 533.356 24.6C536.932 24.6 539.02 26.664 539.02 29.208C539.02 31.152 537.892 32.328 536.236 32.952C538.228 33.408 539.548 34.824 539.548 37.104C539.548 40.272 537.052 42.24 533.116 42.24ZM542.777 44.952L540.977 44.16L543.161 38.472L545.921 39.576L542.777 44.952ZM554.999 42V24.84H559.271L563.783 36.552L568.199 24.84H572.423V42H569.231V29.04L564.119 42H563.087L557.879 29.04V42H554.999ZM581.586 42.24C577.89 42.24 575.154 39.672 575.154 35.856V35.664C575.154 31.776 577.914 29.184 581.61 29.184C585.282 29.184 588.042 31.752 588.042 35.592V35.784C588.042 39.696 585.282 42.24 581.586 42.24ZM581.61 39.984C583.77 39.984 585.066 38.376 585.066 35.808V35.64C585.066 33.048 583.77 31.464 581.61 31.464C579.45 31.464 578.13 33.024 578.13 35.616V35.808C578.13 38.376 579.402 39.984 581.61 39.984ZM596.162 42.24C592.562 42.24 589.826 39.888 589.826 35.88V35.688C589.826 31.704 592.658 29.184 596.162 29.184C598.946 29.184 601.562 30.432 601.898 33.888H599.09C598.85 32.208 597.746 31.512 596.21 31.512C594.218 31.512 592.802 33.048 592.802 35.64V35.832C592.802 38.568 594.146 40.008 596.282 40.008C597.818 40.008 599.138 39.096 599.306 37.32H601.97C601.754 40.2 599.57 42.24 596.162 42.24ZM612.078 42L607.374 35.856V42H604.47V29.448H607.374V35.016L611.862 29.448H615.03L610.158 35.256L615.438 42H612.078ZM617.431 42V29.448H622.495C625.135 29.448 627.079 30.288 627.079 32.592V32.64C627.079 33.96 626.383 35.04 624.847 35.4C626.575 35.736 627.631 36.6 627.631 38.232V38.304C627.631 40.704 625.951 42 622.951 42H617.431ZM621.991 31.392H620.335V34.584H622.087C623.479 34.584 624.103 34.08 624.103 32.928V32.88C624.103 31.728 623.359 31.392 621.991 31.392ZM622.495 36.528H620.335V40.056H622.399C623.887 40.056 624.655 39.552 624.655 38.328V38.28C624.655 37.08 623.959 36.528 622.495 36.528ZM634.4 40.152C636.176 40.152 637.496 39.216 637.496 37.608V36.36H636.008C633.8 36.36 632.384 36.864 632.384 38.4C632.384 39.456 632.96 40.152 634.4 40.152ZM633.704 42.24C631.4 42.24 629.504 41.136 629.504 38.52C629.504 35.592 632.336 34.536 635.936 34.536H637.496V33.888C637.496 32.208 636.92 31.368 635.216 31.368C633.704 31.368 632.96 32.088 632.816 33.336H630.008C630.248 30.408 632.576 29.184 635.384 29.184C638.192 29.184 640.4 30.336 640.4 33.768V42H637.544V40.464C636.728 41.544 635.624 42.24 633.704 42.24Z" fill="#04AB63"/>
<path d="M788.26 24.0995H804.969C816.621 24.0995 824.229 29.3572 824.229 40.5112V40.806C824.229 52.0092 816.284 56.972 805.161 56.972H797.891V77.1672H788.212V24.0995H788.26ZM805.017 49.8472C811.421 49.8472 814.84 46.6533 814.84 40.806V40.5112C814.84 34.2217 811.18 31.7649 805.017 31.7649H797.987V49.8472H805.017V49.8472Z" fill="white"/>
<path d="M849.265 77.1181H830.727V24.0995H863.373V31.8631H840.309V45.2775H849.457C860.869 45.2775 867.851 50.2403 867.851 60.8538V61.1486C867.899 71.4182 861.206 77.1181 849.265 77.1181ZM848.976 69.551C855.38 69.551 858.558 66.6028 858.558 61.0995V60.8047C858.558 55.3996 855.38 52.4023 848.59 52.4023H840.309V69.551H848.976Z" fill="white"/>
<path d="M874.879 24.0983H884.558V48.1261L904.492 24H914.893L893.369 49.3545L916 77.1168H904.588L884.606 52.3519V77.1168H874.927V24.0983H874.879Z" fill="white"/>
<path d="M773.717 24.0995H726V72.6466L773.717 24.0995Z" fill="white"/>
<path d="M730.283 77.1652H778.001V28.569L730.283 77.1652Z" fill="white"/>
</g>
<defs>
<clipPath id="clip0_1_48">
<rect width="1280" height="160" fill="white"/>
</clipPath>
</defs>
</svg>
