<svg width="48" height="48" viewBox="0 0 48 48" fill="none" xmlns="http://www.w3.org/2000/svg">
<path d="M3 10.32C3 9.15737 4.11283 8.31795 5.23076 8.63736L24 14V44L5.53848 38.7253C4.03592 38.296 3 36.9226 3 35.3599V10.32Z" fill="#FFCC66"/>
<path d="M45 10.32C45 9.15737 43.8872 8.31795 42.7692 8.63736L24 14V44L42.4615 38.7253C43.9641 38.296 45 36.9226 45 35.3599V10.32Z" fill="black"/>
<path d="M39 3.82055C39 3.08685 38.1513 2.67895 37.5784 3.13729L24 14V44L37.0296 33.5763C38.275 32.58 39 31.0716 39 29.4767V3.82055Z" fill="#E3E3E3"/>
<path d="M15 11.5336L10 10V21.2465C10.0001 26.305 15 25.8473 15 22.2689V11.5336Z" fill="black"/>
</svg>
