<svg xmlns="http://www.w3.org/2000/svg" width="24" height="24" fill="none"><path fill="#fff" fill-rule="evenodd" d="M15.49 18.362c.201.142.46.178.692.09a.725.725 0 0 0 .452-.525c.543-2.552 1.86-9.013 2.355-11.334a.488.488 0 0 0-.162-.474.5.5 0 0 0-.498-.088c-2.62.97-10.691 3.998-13.99 5.219a.517.517 0 0 0-.339.5.518.518 0 0 0 .37.477c1.48.442 3.422 1.058 3.422 1.058s.908 2.74 1.38 4.134c.06.175.197.313.377.36a.541.541 0 0 0 .507-.13l1.935-1.826s2.233 1.637 3.499 2.539Zm-6.881-5.423 1.05 3.46.232-2.191 6.366-5.741a.173.173 0 0 0 .02-.236.178.178 0 0 0-.235-.04L8.61 12.94Z" clip-rule="evenodd"/></svg>
