<svg xmlns="http://www.w3.org/2000/svg" width="50" height="30" viewBox="0 0 50 30">
  <path fill="#2F2F2F" fill-rule="evenodd" d="M380,120.667665 L393.242049,113.56669 C394.210509,113.047358 395,113.519329 395,114.623775 L395,137.375813 C395,138.485516 394.212938,138.955441 393.242049,138.437161 L380,131.368301 L380,137.999981 C380,139.652681 378.657208,141 377.000789,141 L347.999211,141 C346.350596,141 345,139.656846 345,137.999981 L345,114.000019 C345,112.347319 346.342792,111 347.999211,111 L377.000789,111 C378.649404,111 380,112.343154 380,114.000019 L380,120.667665 Z M355,134 L372,126 L355,118 L355,134 Z" transform="translate(-345 -111)"/>
</svg>
