<svg xmlns="http://www.w3.org/2000/svg" width="48" height="48" viewBox="0 0 48 48" fill="none">
    <path d="M24 35L18 35C9.16344 35 2.00001 27.8366 2.00001 19L2.00001 12L8.03642 12.0137C16.8587 12.0338 24 19.1914 24 28.0137L24 35Z" fill="#FFCC66"/>
    <path d="M46 12V18.9999C46 27.8364 38.8365 34.9999 30 34.9999L24 34.9999L24 28.0137C24 19.1914 31.1412 12.0339 39.9635 12.0138L46 12Z" fill="black"/>
    <path d="M24.0015 3.00004L28 7.00005C34.3711 13.3699 34.3699 24.629 28 31L24.0015 35L20 31C13.6289 24.6301 13.6301 13.3711 20 7.00002L24.0015 3.00004Z" fill="#E3E3E3"/>
    <circle cx="24" cy="41" r="3" fill="black"/>
</svg>