<?xml version="1.0" encoding="UTF-8"?>
<svg width="22px" height="16px" viewBox="0 0 22 16" version="1.1" xmlns="http://www.w3.org/2000/svg" xmlns:xlink="http://www.w3.org/1999/xlink">
    <!-- Generator: Sketch 52.5 (67469) - http://www.bohemiancoding.com/sketch -->
    <title>download (1)</title>
    <desc>Created with Sketch.</desc>
    <g id="Page-1" stroke="none" stroke-width="1" fill="none" fill-rule="evenodd">
        <g id="1280_Для-агрегаторов_1" transform="translate(-355.031250, -296.000000)" fill-rule="nonzero">
            <g id="download-(1)" transform="translate(355.000000, 296.000000)">
                <polygon id="Shape" fill="#CCCCCC" points="0.338461538 15.9578947 18.9961538 15.9578947 21.6615385 4.46315789 2.80753846 4.46315789"></polygon>
                <polygon id="Shape" fill="#E2E2E2" points="0.338461538 15.9578947 18.9961538 15.9578947 18.9961538 0.0421052632 0.338461538 0.0421052632"></polygon>
                <path d="M3.00384615,4.02105263 L16.3307692,4.02105263 L16.3307692,2.25263158 L3.00384615,2.25263158 L3.00384615,4.02105263 Z M10.1115385,6.23157895 L16.3307692,6.23157895 L16.3307692,5.34736842 L10.1115385,5.34736842 L10.1115385,6.23157895 Z M10.1115385,8 L16.3307692,8 L16.3307692,7.11578947 L10.1115385,7.11578947 L10.1115385,8 Z M10.1115385,9.76842105 L16.3307692,9.76842105 L16.3307692,8.88421053 L10.1115385,8.88421053 L10.1115385,9.76842105 Z M10.1115385,11.5368421 L16.3307692,11.5368421 L16.3307692,10.6526316 L10.1115385,10.6526316 L10.1115385,11.5368421 Z M10.1115385,13.3052632 L16.3307692,13.3052632 L16.3307692,12.4210526 L10.1115385,12.4210526 L10.1115385,13.3052632 Z" id="Shape" fill="#000000"></path>
                <polygon id="Shape" fill="#FF3333" points="3.00384615 13.3052632 9.19515385 13.3052632 9.22307692 5.34736842 3.03176923 5.34736842"></polygon>
            </g>
        </g>
    </g>
</svg>