<svg xmlns="http://www.w3.org/2000/svg" width="13" height="10" viewBox="0 0 13 10">
  <path fill="#CCCCCC" fill-rule="evenodd" d="M3.45907163,1.11111111 C3.78719302,0.45364679 4.4673754,0 5.25325226,0 L7.74674774,0 C8.52833485,0 9.2110445,0.452563356 9.540476,1.11111111 L10.9972399,1.11111111 C12.1064574,1.11111111 13,2.00423148 13,3.10595128 L13,8.00515983 C13,9.0987689 12.1033337,10 10.9972399,10 L2.00276013,10 C0.893542647,10 0,9.10687963 0,8.00515983 L0,3.10595128 C0,2.01234221 0.896666251,1.11111111 2.00276013,1.11111111 L3.45907163,1.11111111 Z M6.5,8.88888889 C8.29492553,8.88888889 9.75,7.39650481 9.75,5.55555556 C9.75,3.7146063 8.29492553,2.22222222 6.5,2.22222222 C4.70507447,2.22222222 3.25,3.7146063 3.25,5.55555556 C3.25,7.39650481 4.70507447,8.88888889 6.5,8.88888889 Z M6.5,7.77777778 C5.30338298,7.77777778 4.33333333,6.78285506 4.33333333,5.55555556 C4.33333333,4.32825605 5.30338298,3.33333333 6.5,3.33333333 C7.69661702,3.33333333 8.66666667,4.32825605 8.66666667,5.55555556 C8.66666667,6.78285506 7.69661702,7.77777778 6.5,7.77777778 Z"/>
</svg>
