<svg xmlns="http://www.w3.org/2000/svg" width="80" height="80" viewBox="0 0 80 80" xmlns:xlink="http://www.w3.org/1999/xlink">
  <defs>
    <circle id="b" cx="40" cy="40" r="30"/>
    <filter id="a" width="153.3%" height="153.3%" x="-26.7%" y="-23.3%" filterUnits="objectBoundingBox">
      <feOffset dy="2" in="SourceAlpha" result="shadowOffsetOuter1"/>
      <feGaussianBlur stdDeviation="5" in="shadowOffsetOuter1" result="shadowBlurOuter1"/>
      <feColorMatrix values="0 0 0 0 0 0 0 0 0 0 0 0 0 0 0 0 0 0 0.18 0" in="shadowBlurOuter1"/>
    </filter>
  </defs>
  <g fill="none" fill-rule="evenodd">
    <use fill="black" filter="url(#a)" xlink:href="#b"/>
    <use fill="#FFFFFF" xlink:href="#b"/>
    <path fill="#262626" d="M34.1245196,33 C34.5662445,31.2748802 36.1320148,30 37.9958262,30 L42.0041738,30 C43.8615737,30 45.4316894,31.2751235 45.8749817,33 L49.0089096,33 C50.6582294,33 52,34.3432023 52,36.0001262 L52,46.9998738 C52,48.6660385 50.6608432,50 49.0089096,50 L30.9910904,50 C29.3417706,50 28,48.6567977 28,46.9998738 L28,36.0001262 C28,34.3339615 29.3391568,33 30.9910904,33 L34.1245196,33 Z M40,47.5 C43.5898511,47.5 46.5,44.5898511 46.5,41 C46.5,37.4101489 43.5898511,34.5 40,34.5 C36.4101489,34.5 33.5,37.4101489 33.5,41 C33.5,44.5898511 36.4101489,47.5 40,47.5 Z M40,46 C37.2385761,46 35,43.7614239 35,41 C35,38.2385761 37.2385761,36 40,36 C42.7614239,36 45,38.2385761 45,41 C45,43.7614239 42.7614239,46 40,46 Z"/>
  </g>
</svg>
