<svg width="1280" height="800" viewBox="0 0 1280 800" fill="none" xmlns="http://www.w3.org/2000/svg">
    <path d="M1280 0H0V800H1280V0Z" fill="#F8F8F8"/>
    <path d="M440 478.179H474.95V421.103H494.704C530.088 421.103 552.881 405.297 552.881 372.149V371.271C552.881 338.123 531.39 321.22 493.618 321.22H440V478.179ZM474.95 396.297V348.221H492.75C509.465 348.221 519.017 354.807 519.017 371.49V372.368C519.017 387.955 509.899 396.297 492.75 396.297H474.95Z" fill="#EAEAEA"/>
    <path d="M688.767 429.664V428.786C688.767 397.394 667.494 381.808 631.676 381.808H608.448L608.665 348.879H674.874V321.22H573.715V478.179H630.59C669.013 478.179 688.767 460.397 688.767 429.664ZM608.448 451.177V406.834H628.419C646.437 406.834 655.12 414.517 655.12 428.567V429.445C655.12 443.714 646.437 451.177 629.288 451.177H608.448Z" fill="#EAEAEA"/>
    <path d="M710.188 478.179H745.354V407.712L798.972 478.179H840L775.529 395.418L836.961 321H799.623L745.354 388.833V321.22H710.188V478.179Z" fill="#EAEAEA"/>
</svg>
