<?xml version="1.0" standalone="no"?>
<!DOCTYPE svg PUBLIC "-//W3C//DTD SVG 20010904//EN"
 "http://www.w3.org/TR/2001/REC-SVG-20010904/DTD/svg10.dtd">
<svg version="1.0" xmlns="http://www.w3.org/2000/svg"
 width="700.000000pt" height="700.000000pt" viewBox="0 0 700.000000 700.000000"
 preserveAspectRatio="xMidYMid meet">
<metadata>
Created by potrace 1.11, written by Peter Selinger 2001-2013
</metadata>
<g transform="translate(0.000000,700.000000) scale(0.100000,-0.100000)"
fill="#000000" stroke="none">
<path d="M3464 6341 c-65 -28 -102 -130 -80 -222 13 -54 60 -175 77 -195 6 -7
-16 -64 -60 -155 -38 -79 -81 -180 -97 -224 -15 -44 -30 -83 -33 -87 -4 -4
-28 20 -55 52 l-48 60 21 78 c36 136 21 224 -44 254 -58 26 -124 -45 -125
-135 0 -42 32 -112 78 -170 31 -38 31 -38 16 -85 -8 -26 -26 -94 -40 -152 -14
-58 -28 -111 -30 -118 -3 -10 -15 -6 -46 13 -24 15 -62 35 -85 46 -37 17 -43
24 -43 52 -1 47 -31 107 -74 145 -61 54 -150 40 -171 -27 -16 -51 65 -139 163
-177 l42 -17 0 -163 c0 -90 5 -186 11 -213 13 -62 58 -126 105 -148 31 -15 43
-16 107 -4 270 49 542 55 772 19 77 -12 162 -22 189 -23 45 0 51 3 91 47 57
63 67 108 72 313 l4 169 61 33 c126 67 169 143 113 198 -35 36 -102 35 -145
-1 -37 -31 -67 -88 -76 -141 -5 -35 -12 -41 -77 -78 -40 -22 -77 -41 -84 -43
-7 -2 -16 20 -23 55 -6 32 -24 102 -40 157 l-28 98 33 47 c51 71 65 106 65
156 0 118 -84 183 -150 117 -40 -40 -47 -89 -25 -181 29 -129 30 -120 -21
-184 l-46 -58 -48 118 c-26 65 -73 169 -104 231 l-56 112 26 52 c65 129 80
227 45 305 -28 60 -89 93 -137 74z m94 -91 c20 -29 23 -44 20 -90 -4 -54 -62
-210 -78 -210 -10 0 -76 155 -83 196 -8 40 9 100 34 125 31 31 78 22 107 -21z
m-408 -410 c14 -14 20 -33 20 -64 0 -52 -20 -146 -31 -146 -12 0 -57 62 -74
104 -34 80 31 160 85 106z m424 -122 c62 -130 109 -246 122 -300 4 -19 0 -36
-14 -55 -69 -98 -99 -212 -83 -314 6 -34 8 -66 4 -71 -9 -15 -69 -38 -100 -38
-15 0 -44 8 -63 18 l-35 17 3 102 c5 120 -9 170 -69 263 l-39 61 26 77 c51
147 156 372 175 372 6 0 39 -60 73 -132z m350 110 c28 -39 20 -97 -20 -157
-20 -29 -39 -49 -44 -45 -12 14 -30 100 -30 145 0 71 59 107 94 57z m-722
-375 l43 -56 1 -116 c1 -128 22 -214 69 -283 29 -43 25 -59 -26 -102 -25 -22
-40 -26 -73 -24 l-41 3 3 67 c4 92 -21 179 -65 226 l-35 37 12 60 c13 68 61
245 66 245 2 0 23 -26 46 -57z m694 -101 l37 -143 -31 -32 c-61 -63 -85 -160
-70 -282 3 -17 -4 -20 -38 -23 -33 -2 -48 2 -73 24 -53 44 -55 57 -22 116 46
82 63 166 59 284 l-3 101 44 57 c24 31 48 53 52 49 4 -4 25 -72 45 -151z
m-1132 127 c30 -24 66 -88 66 -119 0 -17 -4 -20 -22 -15 -50 15 -123 62 -137
87 -14 24 -14 28 3 47 24 27 56 27 90 0z m1564 9 c34 -34 -8 -92 -96 -129 -53
-23 -62 -23 -62 -4 0 26 48 113 72 129 27 19 69 21 86 4z m-987 -243 c24 -51
29 -72 29 -137 0 -43 -4 -78 -9 -78 -29 0 -91 220 -77 276 9 33 13 28 57 -61z
m376 5 c-7 -79 -32 -166 -58 -201 l-17 -23 -7 38 c-12 59 1 129 35 195 41 82
54 80 47 -9z m-751 -35 l62 -35 4 -97 c3 -88 7 -104 37 -160 37 -69 35 -80
-22 -109 -38 -20 -77 -11 -115 29 -48 50 -55 79 -60 256 -5 188 -14 176 94
116z m1162 -127 c-4 -182 -7 -198 -56 -250 -43 -47 -101 -47 -154 -1 -16 14
-15 18 8 53 37 56 55 126 53 206 -1 39 1 76 5 82 7 12 126 82 139 82 5 0 7
-78 5 -172z m-1024 10 c29 -51 40 -112 27 -153 l-9 -30 -25 55 c-23 51 -31 88
-28 148 1 31 7 28 35 -20z m834 -27 c-5 -70 -41 -166 -59 -155 -15 9 -10 111
6 151 15 35 42 73 53 73 3 0 2 -31 0 -69z m-523 -172 c49 -29 119 -29 175 0
23 12 46 19 49 14 3 -4 18 -21 33 -38 l27 -30 -193 0 -193 0 31 37 c17 21 32
38 33 38 1 0 18 -10 38 -21z m-261 -90 c-30 -12 -37 -10 -24 5 6 8 19 12 27 9
14 -6 14 -8 -3 -14z m721 1 c3 -5 -1 -10 -9 -10 -8 0 -18 5 -21 10 -3 6 1 10
9 10 8 0 18 -4 21 -10z"/>
<path d="M2407 5300 c-12 -44 -8 -66 18 -90 29 -27 31 -49 11 -89 -18 -35 -12
-64 27 -118 28 -40 29 -46 22 -100 -5 -32 -9 -90 -9 -129 l-1 -71 -36 12 c-71
25 -112 52 -138 91 -27 40 -56 59 -102 68 -25 5 -35 20 -59 82 -8 23 -23 36
-51 47 -27 11 -43 25 -53 47 -9 21 -15 27 -19 18 -10 -27 6 -70 35 -91 28 -21
29 -23 22 -84 l-6 -62 48 -51 48 -52 7 -106 c3 -59 9 -115 14 -125 7 -16 4
-17 -21 -12 -103 23 -138 38 -169 72 -26 29 -41 36 -81 40 -58 7 -69 14 -94
63 -15 30 -26 39 -62 46 -32 7 -48 17 -65 43 -26 39 -31 20 -9 -33 8 -20 25
-37 45 -45 29 -13 31 -17 31 -65 0 -59 15 -81 77 -119 45 -29 47 -32 63 -126
6 -36 21 -83 32 -104 l19 -39 -83 3 c-75 4 -88 7 -118 33 -31 26 -39 28 -89
23 -54 -6 -54 -6 -98 40 -33 34 -50 44 -65 40 -27 -7 -83 16 -97 40 -8 13 -10
14 -11 3 0 -26 39 -80 58 -80 33 0 62 -29 62 -63 0 -45 21 -71 77 -95 62 -26
78 -45 103 -117 11 -32 32 -73 46 -92 14 -19 23 -37 19 -41 -3 -4 -39 -8 -79
-10 -57 -3 -79 0 -100 13 -25 17 -39 17 -121 0 -24 -5 -38 0 -70 25 -35 28
-44 31 -85 25 -37 -5 -51 -2 -72 14 -36 29 -42 26 -21 -9 12 -21 30 -34 58
-41 22 -6 45 -13 52 -15 7 -1 15 -19 19 -39 8 -42 42 -72 93 -81 66 -11 72
-15 115 -82 24 -37 55 -78 70 -91 14 -14 26 -27 26 -31 0 -4 -27 -15 -61 -25
-53 -16 -66 -17 -111 -6 -47 12 -54 12 -100 -10 l-50 -23 -41 22 c-48 25 -65
27 -101 10 -21 -9 -34 -8 -68 6 l-43 16 32 -32 c27 -27 40 -32 73 -31 37 2 43
-2 65 -37 30 -48 52 -60 104 -60 60 0 81 -12 157 -87 38 -37 77 -73 88 -78 16
-9 11 -15 -43 -44 -45 -24 -73 -32 -104 -31 -67 3 -74 1 -105 -25 -32 -27 -68
-31 -117 -14 -26 10 -37 8 -73 -10 -36 -18 -49 -20 -80 -12 l-37 10 29 -25
c26 -23 35 -25 78 -20 47 7 49 5 87 -34 l39 -41 73 6 74 7 56 -44 c30 -24 74
-52 97 -62 41 -19 42 -20 25 -39 -36 -40 -106 -77 -146 -77 -32 0 -46 -7 -79
-41 -40 -40 -41 -41 -95 -34 -48 6 -56 4 -84 -19 -20 -17 -43 -26 -67 -26 -35
-1 -36 -2 -18 -15 24 -18 58 -19 102 -3 30 11 35 9 69 -20 40 -36 60 -39 112
-17 51 22 92 18 143 -12 25 -14 72 -34 104 -43 l60 -17 -60 -61 c-39 -40 -68
-62 -83 -62 -35 0 -59 -18 -81 -59 -22 -44 -35 -51 -95 -51 -36 0 -47 -5 -67
-30 -13 -16 -41 -36 -63 -43 l-40 -15 37 -7 c30 -6 45 -2 74 16 l37 23 38 -22
c49 -28 73 -28 127 4 50 30 88 32 151 10 24 -9 68 -19 98 -22 29 -4 53 -10 53
-13 0 -3 -13 -29 -30 -57 -30 -53 -72 -94 -96 -94 -17 0 -54 -48 -54 -71 0
-27 -27 -48 -76 -60 -35 -9 -50 -20 -72 -52 -17 -26 -40 -45 -62 -52 l-34 -12
33 -6 c35 -7 62 3 99 36 20 18 26 19 55 9 55 -20 82 -14 132 27 l48 40 121 -2
c116 -2 123 -1 176 27 30 16 74 42 97 58 l43 29 -41 54 c-47 63 -48 63 -124
-14 -55 -57 -80 -63 -141 -34 l-36 18 -37 -43 c-32 -39 -41 -43 -71 -40 l-35
4 27 11 c15 7 38 33 55 65 l28 53 69 5 c59 4 71 8 85 30 9 14 30 41 47 60 l31
35 -46 91 c-53 104 -52 103 -140 40 -69 -50 -77 -50 -133 -15 l-49 32 -32 -30
c-40 -38 -68 -47 -92 -30 -17 13 -16 14 14 20 22 5 38 17 52 42 29 49 50 58
100 45 55 -15 74 -8 137 49 l53 49 -27 91 c-32 106 -34 107 -132 61 -35 -17
-70 -30 -78 -30 -8 0 -32 17 -55 37 l-41 37 -39 -22 c-44 -26 -77 -28 -105 -7
-18 13 -17 14 17 15 27 0 45 9 73 35 42 39 57 42 109 20 53 -22 69 -19 136 23
l61 37 -6 90 c-4 50 -9 93 -13 98 -7 7 -56 -1 -141 -21 -48 -12 -73 -1 -100
43 -20 33 -26 36 -54 30 -84 -17 -101 -17 -118 2 -17 18 -16 19 18 15 26 -3
44 2 72 22 48 33 66 33 114 0 42 -29 57 -29 147 4 31 12 58 28 62 39 3 10 8
53 11 96 5 75 4 78 -19 83 -14 4 -55 4 -93 2 -37 -3 -75 -1 -85 4 -9 6 -25 30
-36 55 l-19 45 -56 -7 c-45 -5 -59 -3 -75 11 -28 25 -24 30 20 26 22 -2 51 3
69 12 45 23 56 21 108 -25 38 -32 52 -39 73 -35 14 4 51 9 82 12 l55 6 22 87
c13 47 22 89 22 93 0 10 -57 26 -120 33 -74 10 -88 19 -96 63 -11 64 -20 72
-72 72 -53 0 -64 5 -81 38 l-12 23 32 -16 c26 -14 39 -15 69 -6 62 19 78 14
111 -31 17 -24 36 -46 42 -50 7 -3 49 -5 94 -5 l82 2 41 84 c22 46 39 85 38
86 -13 11 -92 44 -130 55 -60 16 -71 30 -78 94 l-5 51 -44 7 c-49 8 -81 32
-81 60 0 18 1 18 16 4 20 -20 49 -27 98 -24 36 3 42 0 60 -31 38 -62 72 -91
108 -92 18 0 51 -6 73 -13 l40 -12 57 80 c55 77 56 81 40 99 -9 11 -39 30 -67
44 -79 40 -85 48 -85 115 l0 59 -44 19 c-45 19 -66 44 -66 77 0 15 3 14 19 -6
13 -17 36 -28 77 -36 l59 -11 21 -59 c23 -65 22 -64 113 -99 l64 -25 73 66
c41 37 74 70 74 74 0 6 -33 37 -108 101 -36 29 -39 49 -17 101 8 20 15 39 15
42 0 2 -18 16 -40 30 -46 29 -70 69 -53 86 8 8 13 5 17 -9 7 -20 61 -52 89
-52 24 0 38 -26 44 -84 6 -62 7 -63 90 -113 50 -30 61 -33 78 -22 11 7 45 28
75 46 30 18 58 37 63 42 12 12 -7 47 -54 98 -44 48 -48 73 -19 121 27 44 26
50 -15 88 -25 23 -35 40 -35 62 0 17 5 34 10 37 6 3 10 -3 10 -14 0 -18 23
-41 86 -85 25 -18 26 -22 20 -78 l-7 -59 58 -57 59 -58 37 16 38 15 -7 55
c-11 90 -25 113 -101 162 -79 52 -89 62 -106 114 -11 31 -23 44 -62 64 -50 27
-63 45 -64 95 -1 22 -11 39 -42 65 -27 23 -43 47 -48 70 -7 33 -7 34 -14 10z"/>
<path d="M4580 5296 c0 -22 -12 -40 -45 -70 -25 -24 -45 -51 -45 -62 0 -47
-21 -79 -67 -104 -36 -19 -49 -34 -60 -64 -17 -51 -23 -58 -105 -112 -77 -50
-91 -74 -102 -165 l-6 -56 37 -14 37 -14 59 56 60 57 -8 57 c-8 64 -1 76 52
102 19 8 42 30 51 47 l17 31 3 -34 c3 -29 -2 -40 -32 -67 -20 -18 -36 -37 -36
-41 0 -4 9 -21 20 -38 21 -32 27 -90 10 -100 -16 -10 -90 -105 -90 -115 0 -5
38 -34 85 -64 l84 -55 56 34 c81 48 85 53 85 99 0 58 18 87 65 103 22 7 50 24
62 38 13 15 23 20 26 12 9 -23 -13 -56 -53 -82 -22 -14 -40 -28 -40 -30 0 -3
7 -22 15 -42 8 -19 15 -43 15 -52 0 -9 -32 -45 -71 -81 l-71 -66 73 -70 72
-71 56 24 c103 44 105 45 119 98 19 66 24 72 78 78 28 3 54 13 70 28 21 19 24
20 24 5 0 -32 -19 -54 -57 -67 -49 -15 -53 -23 -46 -81 7 -56 -2 -70 -61 -100
-23 -11 -55 -31 -73 -44 l-32 -24 47 -63 c26 -35 54 -73 62 -85 14 -20 17 -21
70 -7 30 8 64 15 76 15 24 0 44 20 69 70 23 46 30 50 91 50 37 0 59 6 79 22
l27 21 -7 -24 c-10 -35 -43 -59 -81 -59 -39 0 -45 -7 -50 -68 -3 -25 -10 -52
-16 -59 -5 -7 -40 -22 -77 -33 -36 -11 -76 -26 -87 -34 l-22 -15 43 -89 42
-88 74 4 c105 4 115 8 139 47 31 50 53 60 107 45 34 -10 50 -10 70 -1 37 17
43 3 9 -26 -23 -20 -35 -23 -66 -18 -43 7 -54 -3 -64 -56 -9 -50 -31 -65 -101
-73 -78 -9 -127 -25 -122 -40 2 -6 14 -50 27 -98 13 -48 27 -85 32 -82 4 3 34
0 66 -7 85 -17 98 -15 142 25 45 40 58 43 102 20 18 -9 47 -14 69 -12 45 4 49
-5 14 -28 -22 -14 -47 -15 -112 -1 -5 1 -19 -20 -33 -48 l-25 -50 -109 -3
-109 -3 7 -37 c3 -20 6 -65 6 -99 0 -51 3 -63 16 -63 8 0 44 -12 80 -26 59
-23 66 -24 91 -10 100 54 86 53 142 16 40 -25 57 -31 78 -25 27 6 27 6 9 -14
-23 -25 -46 -26 -87 -5 -39 20 -58 12 -91 -36 -31 -45 -46 -48 -122 -25 -27 8
-64 15 -81 15 l-33 0 -7 -77 c-3 -43 -9 -88 -12 -100 -3 -15 -1 -23 8 -23 8 0
40 -17 73 -37 l60 -36 47 16 c66 24 81 22 122 -18 26 -25 45 -35 69 -35 31 -1
32 -1 14 -15 -27 -20 -55 -19 -91 5 -42 28 -56 25 -94 -16 -38 -40 -43 -40
-136 0 -68 29 -105 33 -105 11 0 -8 -10 -47 -23 -87 l-24 -74 60 -53 c64 -56
71 -58 154 -35 18 5 32 -4 70 -44 27 -28 59 -53 73 -55 l25 -3 -28 -12 c-32
-14 -55 -5 -99 36 l-27 25 -47 -32 c-26 -17 -51 -31 -55 -31 -4 0 -31 16 -60
36 -30 20 -66 42 -81 50 l-28 14 -42 -82 c-24 -46 -44 -86 -46 -91 -2 -4 9
-23 25 -41 15 -19 36 -46 46 -60 16 -23 25 -26 72 -26 73 0 84 -6 106 -56 11
-27 31 -52 51 -64 l33 -20 -37 0 c-30 0 -42 6 -65 35 -30 38 -53 43 -93 20
-44 -25 -64 -18 -128 45 -34 33 -66 60 -71 60 -10 0 -81 -93 -81 -106 0 -13
109 -81 160 -100 30 -11 70 -15 120 -14 41 1 91 3 110 3 26 1 48 -9 83 -36 52
-39 80 -45 134 -25 30 11 35 10 60 -14 35 -33 60 -40 98 -29 17 5 22 10 12 10
-34 2 -75 30 -85 60 -9 24 -20 32 -67 46 -54 15 -58 19 -77 66 -17 41 -29 54
-67 72 -34 17 -54 37 -78 77 -18 30 -33 58 -33 62 0 4 18 8 39 8 22 0 68 9
103 20 82 26 99 25 156 -5 57 -31 82 -31 131 -3 l38 22 30 -22 c32 -23 77 -28
101 -13 10 6 4 10 -21 15 -21 4 -46 20 -66 41 -28 31 -37 35 -81 35 -42 0 -52
4 -67 26 -37 54 -71 84 -98 84 -18 0 -41 15 -75 50 -28 27 -50 53 -50 58 0 6
15 13 33 16 19 3 65 22 103 41 78 40 87 41 137 20 55 -23 90 -19 132 15 44 35
38 34 77 14 33 -17 68 -13 102 12 20 15 20 15 -11 9 -33 -7 -79 11 -103 40
-10 12 -25 14 -69 9 -56 -6 -56 -5 -94 35 -31 33 -46 41 -73 41 -19 0 -49 7
-67 16 -32 16 -97 73 -97 84 0 4 17 12 38 18 20 6 62 32 92 57 61 50 57 49
156 45 l72 -2 28 37 c27 36 29 37 80 30 46 -5 55 -3 80 19 l29 25 -38 -10
c-32 -9 -43 -7 -77 12 -35 20 -44 21 -78 11 -58 -18 -75 -15 -117 18 -34 27
-43 30 -85 24 -40 -5 -56 -1 -110 26 l-64 32 29 21 c17 12 57 49 91 84 58 60
63 63 108 63 65 0 111 22 132 62 22 42 30 47 69 41 26 -4 38 1 66 27 23 22 28
30 14 25 -43 -16 -68 -17 -104 -5 -33 11 -41 10 -72 -9 -43 -26 -62 -26 -116
0 -38 18 -48 19 -74 9 -35 -15 -108 -8 -163 15 l-40 17 32 25 c18 13 50 55 72
92 40 68 70 91 114 91 40 0 88 41 100 85 11 36 15 40 54 47 53 9 59 12 77 48
l15 29 -35 -20 c-28 -17 -45 -20 -76 -15 -35 6 -45 2 -79 -25 -30 -24 -45 -30
-67 -26 -15 4 -42 9 -60 13 -23 4 -45 0 -79 -16 -42 -21 -51 -22 -111 -12 -36
6 -68 13 -70 16 -3 3 6 19 20 35 14 17 37 61 51 99 28 74 46 95 86 107 49 14
90 54 90 86 0 44 15 66 55 79 22 7 41 23 50 40 17 33 20 65 4 37 -14 -25 -60
-46 -97 -45 -26 1 -40 -8 -71 -41 -38 -41 -39 -41 -92 -35 -50 6 -57 4 -93
-25 -36 -29 -44 -31 -118 -31 -44 0 -78 3 -76 8 25 47 39 89 47 140 12 78 23
97 71 127 56 36 73 65 65 115 -6 38 -5 41 29 61 41 24 56 46 56 81 0 22 -1 22
-25 -8 -17 -22 -36 -33 -64 -38 -33 -5 -44 -13 -57 -39 -28 -56 -44 -67 -91
-67 -39 0 -50 -5 -84 -40 -37 -37 -112 -70 -162 -70 -17 0 -18 5 -11 43 4 23
6 70 5 105 -1 73 7 92 62 146 l39 38 -6 62 c-7 59 -6 62 23 90 25 24 31 38 31
70 l0 41 -18 -35 c-10 -21 -33 -43 -57 -56 -31 -16 -43 -30 -55 -64 -16 -45
-33 -59 -95 -77 -18 -5 -40 -25 -59 -52 -22 -33 -44 -51 -92 -72 -35 -16 -66
-29 -69 -29 -3 0 -5 25 -5 55 0 30 -5 86 -12 124 l-12 70 31 44 c42 57 48 87
29 125 -22 43 -20 65 9 92 26 25 33 72 15 100 -7 12 -10 8 -10 -14z"/>
<path d="M3145 4670 c-101 -16 -355 -104 -355 -124 0 -3 32 6 70 19 78 27 225
60 310 70 30 3 63 9 73 11 11 4 17 0 17 -10 0 -11 -9 -16 -27 -16 -41 0 -204
-46 -286 -80 -110 -46 -248 -140 -345 -236 -48 -47 -73 -76 -57 -65 171 124
422 260 572 310 161 54 265 30 233 -54 -11 -29 -29 -35 -88 -28 -55 6 -153
-16 -210 -47 -20 -12 -30 -19 -21 -16 75 22 143 28 196 17 80 -16 113 -14 151
9 37 23 79 103 84 160 3 31 -1 36 -41 58 -34 20 -60 25 -130 28 -47 1 -113 -1
-146 -6z"/>
<path d="M3607 4670 c-101 -26 -113 -48 -77 -143 35 -94 49 -101 213 -108 111
-5 154 -11 197 -27 69 -27 74 -27 30 0 -57 35 -138 59 -234 69 -94 11 -126 26
-126 61 0 10 10 28 21 39 34 34 161 23 304 -25 121 -41 309 -128 377 -173 67
-46 77 -48 33 -9 -134 121 -382 240 -543 262 -52 7 -81 19 -70 29 14 14 310
-46 443 -90 51 -17 -16 17 -89 46 -152 59 -386 92 -479 69z"/>
<path d="M3484 4448 c-7 -12 -16 -151 -18 -286 -1 -39 -3 -72 -6 -72 -3 0 -16
20 -29 45 -33 63 -109 131 -162 146 -101 27 -187 -17 -349 -182 -113 -115
-199 -236 -276 -394 -68 -140 -104 -251 -130 -400 -14 -86 -14 -103 0 -200 19
-133 64 -266 124 -374 26 -46 106 -158 179 -249 73 -90 148 -196 168 -233 41
-79 75 -171 75 -205 0 -17 11 -29 40 -44 21 -11 42 -20 45 -20 3 0 5 61 5 135
l0 136 61 -41 c86 -59 197 -110 256 -117 67 -7 142 17 246 79 44 26 82 46 84
45 2 -2 6 -49 9 -103 3 -54 7 -109 10 -121 l4 -22 49 20 c48 20 49 22 65 87
28 119 94 233 230 402 147 182 206 278 251 403 46 129 59 212 52 326 -13 236
-102 494 -240 701 -55 83 -245 278 -321 330 -57 39 -117 48 -186 30 -37 -10
-61 -28 -127 -98 -46 -47 -83 -84 -84 -82 0 3 -2 61 -5 130 -7 193 -9 240 -11
240 -1 0 -5 -5 -9 -12z m-99 -377 c33 -17 67 -36 77 -43 13 -10 30 -5 90 23
67 31 81 34 168 34 86 0 100 -3 148 -29 30 -17 70 -50 91 -75 63 -76 219 -334
236 -388 l6 -22 -58 21 c-117 43 -270 21 -434 -61 -59 -29 -72 -53 -39 -71 18
-10 38 -4 128 39 176 82 275 100 361 65 56 -22 78 -81 101 -269 19 -153 -20
-309 -135 -534 -116 -229 -211 -355 -343 -458 -115 -90 -221 -143 -287 -143
-101 0 -321 136 -427 264 -105 126 -242 360 -298 509 -38 101 -60 209 -60 291
0 84 28 244 52 293 19 40 71 63 144 63 76 0 142 -19 266 -76 105 -49 153 -55
153 -19 0 26 -55 56 -172 95 -130 44 -208 48 -305 17 -43 -14 -78 -23 -78 -22
0 16 50 112 105 201 167 272 246 338 390 330 43 -2 77 -12 120 -35z"/>
<path d="M2930 3454 c-20 -8 -60 -45 -60 -55 0 -4 24 -1 53 8 111 33 227 3
316 -81 42 -40 43 -40 28 -10 -26 50 -81 91 -154 114 -72 23 -158 34 -183 24z"/>
<path d="M3910 3444 c-88 -23 -155 -60 -184 -102 -36 -52 -33 -55 13 -12 93
89 228 113 356 64 30 -12 -1 33 -35 51 -36 18 -78 18 -150 -1z"/>
<path d="M2834 3347 c5 -21 0 -26 -34 -37 -22 -7 -40 -17 -40 -23 0 -9 53 -3
86 10 26 10 14 -17 -21 -49 -46 -40 -37 -49 15 -14 61 40 83 16 33 -36 -36
-38 -25 -44 22 -12 51 35 67 18 29 -32 l-29 -37 33 17 c18 9 36 24 39 32 6 15
39 19 47 5 3 -5 -5 -25 -19 -45 l-25 -36 30 15 c16 8 34 24 40 35 11 21 48 45
57 36 3 -3 -4 -21 -15 -40 -29 -49 -2 -36 36 18 37 51 104 77 147 58 37 -17
31 5 -7 28 -28 17 -51 20 -146 20 -130 0 -160 9 -225 69 -51 47 -62 51 -53 18z"/>
<path d="M4090 3329 c-67 -61 -94 -69 -220 -69 -120 0 -180 -15 -180 -46 0
-14 3 -15 12 -6 7 7 21 12 32 12 35 -1 99 -28 109 -46 5 -9 22 -30 39 -48 l29
-31 -15 32 c-33 67 -16 70 46 8 52 -51 83 -61 44 -14 -50 60 -20 82 41 29 47
-41 62 -38 24 6 -31 34 -33 54 -7 54 7 0 21 -9 30 -19 10 -10 26 -21 37 -24
16 -4 14 1 -11 30 -25 27 -29 38 -19 49 12 14 16 13 62 -19 44 -30 46 -9 3 28
-42 35 -36 51 12 34 17 -6 39 -9 49 -6 13 3 6 9 -25 23 -35 16 -42 23 -39 42
6 30 -1 28 -53 -19z"/>
<path d="M3407 2856 c-6 -15 6 -29 36 -39 19 -7 22 5 7 34 -13 22 -36 25 -43
5z"/>
<path d="M3532 2858 c-7 -7 -12 -20 -12 -30 0 -14 5 -16 23 -9 12 5 22 16 22
26 0 23 -17 29 -33 13z"/>
<path d="M3349 2663 c-59 -30 -58 -39 1 -23 32 9 49 9 71 -1 19 -7 46 -9 77
-4 26 4 72 7 102 7 50 -2 53 -1 33 13 -43 30 -76 37 -115 24 -27 -8 -48 -9
-77 -1 -36 9 -47 7 -92 -15z"/>
<path d="M3257 2613 c-56 -6 -34 -23 31 -23 31 0 79 -7 106 -15 62 -19 113
-19 185 0 32 8 81 14 111 12 80 -3 75 19 -5 26 -46 5 -88 1 -136 -10 -61 -15
-75 -15 -117 -3 -52 15 -117 20 -175 13z"/>
<path d="M3300 2552 c0 -12 61 -68 90 -83 14 -7 52 -13 85 -13 70 0 144 30
169 69 l15 23 -45 -25 c-54 -30 -153 -41 -207 -24 -20 7 -52 23 -72 36 -19 14
-35 21 -35 17z"/>
<path d="M3400 2365 l-25 -15 30 7 c36 8 93 8 132 -1 26 -6 27 -6 9 9 -25 19
-113 19 -146 0z"/>
<path d="M2924 4225 c-235 -123 -456 -363 -551 -601 -78 -192 -110 -411 -93
-631 11 -139 35 -275 57 -317 19 -37 115 -178 118 -174 2 2 -8 46 -21 98 -59
231 -70 556 -25 751 82 360 303 694 591 891 46 31 -5 20 -76 -17z"/>
<path d="M4020 4215 c102 -75 240 -221 319 -339 244 -366 315 -766 215 -1214
-14 -62 -32 -131 -40 -154 -8 -23 -13 -43 -11 -45 6 -5 125 164 162 232 45 80
58 164 58 360 0 174 -20 299 -70 445 -81 237 -246 467 -457 637 -98 79 -149
109 -201 119 l-40 7 65 -48z"/>
<path d="M2020 3698 c-29 -81 -62 -201 -83 -303 -32 -159 -31 -462 2 -615 28
-132 78 -267 147 -398 92 -175 178 -290 392 -527 50 -55 90 -101 88 -102 -1
-1 -49 13 -106 32 -165 53 -251 68 -385 68 -118 0 -194 -12 -276 -47 -30 -12
-20 -13 99 -8 243 9 394 -26 804 -187 285 -112 378 -144 493 -172 107 -25 273
-38 364 -28 351 39 735 374 973 849 32 63 58 118 58 123 0 4 -41 -27 -91 -70
-68 -58 -98 -92 -119 -134 -81 -158 -234 -351 -383 -482 l-65 -57 5 76 c4 44
0 111 -7 160 -13 81 -15 85 -36 80 -57 -15 -74 -26 -74 -48 0 -40 29 -299 34
-307 7 -11 -32 -45 -81 -71 -22 -11 -97 -32 -164 -46 -122 -26 -125 -26 -199
-9 -157 35 -205 53 -254 96 -37 33 -46 47 -42 63 11 36 36 219 36 258 0 34 -4
39 -37 53 -20 8 -37 14 -38 13 -1 -2 -10 -46 -19 -99 -14 -78 -15 -108 -7
-155 6 -32 11 -62 11 -67 0 -15 -177 141 -237 209 -85 96 -164 210 -217 313
-43 84 -94 144 -157 189 -16 11 -15 5 6 -42 106 -240 257 -477 404 -638 29
-32 50 -58 45 -58 -4 0 -40 25 -81 55 -313 236 -575 624 -699 1035 -19 63 -51
152 -70 198 -60 140 -77 248 -70 442 5 147 28 314 51 373 4 9 5 17 2 17 -3 0
-10 -15 -17 -32z"/>
<path d="M4971 3688 c-1 -4 6 -38 14 -77 21 -100 38 -334 30 -416 -8 -89 -37
-216 -65 -280 -12 -27 -30 -95 -41 -150 -91 -458 -371 -892 -770 -1191 -252
-190 -434 -254 -720 -254 -243 0 -385 33 -942 216 -209 69 -427 136 -485 150
-229 54 -403 67 -553 40 -124 -22 -171 -48 -389 -216 -146 -112 -214 -144
-311 -145 -70 0 -81 3 -170 48 -51 26 -103 47 -114 47 -31 -1 -98 -35 -125
-65 l-25 -27 40 17 c78 33 87 35 112 29 14 -4 50 -22 80 -40 90 -54 145 -69
258 -68 81 0 114 5 173 26 94 34 198 99 297 188 44 39 103 83 130 98 48 26 56
27 195 27 99 -1 172 -7 230 -19 165 -34 508 -125 773 -205 499 -150 577 -166
827 -165 179 0 203 3 294 27 197 53 405 172 613 352 606 521 861 1157 722
1801 -17 81 -76 270 -78 252z"/>
<path d="M2545 2655 c13 -77 54 -234 75 -294 20 -52 32 -68 89 -114 69 -56
210 -154 236 -163 23 -9 18 15 -20 96 -45 92 -82 143 -196 267 -49 54 -113
132 -140 173 -50 73 -51 73 -44 35z"/>
<path d="M4388 2601 c-21 -31 -81 -103 -134 -161 -116 -127 -184 -227 -213
-311 -11 -34 -20 -64 -18 -65 5 -5 131 77 220 144 l87 66 25 78 c34 109 77
278 73 293 -2 7 -20 -13 -40 -44z"/>
<path d="M2741 2078 c17 -34 68 -119 112 -186 l81 -124 19 38 c12 23 21 67 24
113 l5 76 -93 47 c-52 26 -113 59 -137 73 l-43 27 32 -64z"/>
<path d="M4180 2080 c-36 -21 -89 -49 -117 -61 -45 -18 -53 -26 -59 -54 -6
-36 25 -176 41 -178 11 -1 134 180 183 272 18 33 30 61 25 61 -4 -1 -37 -18
-73 -40z"/>
<path d="M4831 1850 c-171 -19 -194 -27 -252 -86 -29 -30 -51 -54 -47 -54 3 0
66 15 139 34 191 49 275 59 446 53 81 -2 159 -8 173 -11 15 -4 12 0 -10 10
-101 46 -301 71 -449 54z"/>
<path d="M5220 1724 c-122 -15 -339 -50 -482 -80 -316 -65 -345 -73 -389 -110
-22 -18 -70 -52 -105 -75 -35 -23 -63 -43 -61 -45 2 -2 54 12 117 31 474 144
852 212 1124 203 151 -5 188 -21 323 -137 105 -91 200 -150 293 -182 53 -19
85 -23 175 -23 123 1 163 12 258 70 65 40 108 42 182 10 l40 -18 -25 27 c-66
71 -125 75 -235 14 -78 -43 -82 -44 -170 -44 -128 0 -181 27 -460 230 -44 32
-114 74 -155 94 l-75 36 -160 1 c-88 1 -176 0 -195 -2z"/>
<path d="M1695 1520 c-53 -11 -158 -51 -225 -85 -30 -16 -91 -43 -135 -62
-118 -49 -40 -31 170 40 168 57 186 61 270 61 70 0 109 -6 175 -27 160 -52
161 -52 35 -66 -60 -6 -231 -36 -380 -66 -417 -84 -510 -97 -679 -99 l-149 -1
73 -17 c174 -40 350 -33 710 28 375 65 444 74 580 80 165 7 241 -6 555 -101
415 -126 565 -155 805 -155 231 0 377 28 791 154 433 131 501 133 1049 37 338
-60 381 -64 560 -64 127 1 182 5 239 19 l74 19 -149 1 c-168 2 -261 15 -679
99 -148 29 -319 59 -379 66 -59 7 -102 15 -95 19 8 4 50 20 94 36 70 25 95 28
195 29 113 0 117 -1 285 -56 209 -69 288 -86 170 -36 -44 19 -132 57 -195 85
-243 108 -338 98 -993 -103 -370 -114 -546 -159 -715 -185 -200 -29 -252 -32
-363 -20 -232 25 -396 63 -739 167 -393 120 -434 132 -583 168 -150 37 -299
51 -372 35z"/>
<path d="M1885 1125 c-82 -7 -224 -17 -315 -21 l-165 -8 65 -15 c51 -11 139
-14 400 -12 213 1 355 -3 390 -10 64 -13 272 -71 268 -75 -2 -1 -71 7 -153 17
-198 27 -384 23 -503 -10 -46 -13 -81 -25 -79 -27 2 -2 61 1 130 7 92 7 163 7
256 -1 228 -19 376 -50 871 -180 206 -54 275 -64 435 -64 177 0 235 10 559 96
504 133 802 173 1086 146 92 -9 67 4 -60 33 -134 29 -299 25 -590 -16 -32 -4
-33 -4 -10 6 14 6 85 26 159 45 l134 35 341 -2 c266 -2 355 1 406 12 l65 15
-155 7 c-85 4 -236 14 -335 22 -99 8 -205 15 -236 15 -127 0 -339 -52 -759
-186 -289 -93 -380 -113 -540 -121 -195 -9 -363 22 -645 117 -124 42 -450 137
-565 165 -92 22 -279 26 -455 10z"/>
</g>
</svg>
