<svg width="28" height="29" viewBox="0 0 28 29" fill="none" xmlns="http://www.w3.org/2000/svg">
<circle cx="14" cy="14.4141" r="14" fill="#BEBEB6" fill-opacity="0.2"/>
<path d="M18.2516 10.1579C17.1236 9.03398 15.6234 8.41469 14.025 8.41406C10.7318 8.41406 8.05142 11.0814 8.0501 14.36C8.04968 15.408 8.3248 16.431 8.84765 17.3327L8 20.4141L11.1674 19.5872C12.0401 20.0609 13.0226 20.3105 14.0227 20.311H14.0251C17.3181 20.311 19.9987 17.6433 20 14.3647C20.0006 12.7759 19.3797 11.2819 18.2516 10.1579ZM14.0251 19.3067H14.0231C13.132 19.3063 12.258 19.0681 11.4955 18.6178L11.3141 18.5107L9.43455 19.0014L9.93625 17.1776L9.81814 16.9906C9.32103 16.2037 9.05848 15.2942 9.05887 14.3604C9.05994 11.6354 11.2878 9.41835 14.027 9.41835C15.3535 9.41885 16.6004 9.93363 17.538 10.8678C18.4756 11.802 18.9917 13.0437 18.9912 14.3643C18.9901 17.0896 16.7623 19.3067 14.0251 19.3067ZM16.7491 15.6052C16.5998 15.5308 15.8658 15.1713 15.729 15.1218C15.5922 15.0722 15.4926 15.0474 15.3931 15.1961C15.2936 15.3449 15.0075 15.6795 14.9204 15.7787C14.8333 15.8779 14.7462 15.8903 14.5969 15.8159C14.4476 15.7415 13.9666 15.5846 13.3963 15.0784C12.9525 14.6845 12.6529 14.1979 12.5658 14.0492C12.4787 13.9004 12.5565 13.82 12.6313 13.7459C12.6984 13.6794 12.7806 13.5724 12.8552 13.4856C12.9299 13.3989 12.9547 13.3369 13.0045 13.2377C13.0543 13.1386 13.0294 13.0518 12.9921 12.9774C12.9548 12.9031 12.6562 12.1718 12.5318 11.8743C12.4106 11.5846 12.2875 11.6238 12.1958 11.6192C12.1089 11.6149 12.0092 11.614 11.9097 11.614C11.8102 11.614 11.6484 11.6512 11.5116 11.7999C11.3748 11.9487 10.9891 12.3081 10.9891 13.0394C10.9891 13.7707 11.524 14.4772 11.5987 14.5764C11.6733 14.6755 12.6514 16.1763 14.149 16.8199C14.5052 16.9729 14.7833 17.0644 15.0001 17.1328C15.3578 17.2459 15.6832 17.2299 15.9405 17.1917C16.2273 17.1491 16.8237 16.8323 16.9482 16.4852C17.0726 16.1381 17.0726 15.8407 17.0353 15.7787C16.9979 15.7167 16.8984 15.6795 16.7491 15.6052Z" fill="#AAADB2"/>
</svg>
