<svg width="135" height="26" xmlns="http://www.w3.org/2000/svg"><g fill="none" fill-rule="evenodd"><path fill="#FDB717" d="M40.013 21.221h4.27v-8.006h.04l4.497 8.006h4.393V6.564h-4.27v7.842h-.041l-4.27-7.842h-4.619V21.22M31.008 6.306a7.618 7.618 0 0 0-6.675 3.944l3.408 2.724a3.404 3.404 0 1 1-.036 1.775l-3.432 2.744a7.62 7.62 0 1 0 6.735-11.186"/><path fill="#FDB717" d="M17.96 8.498v10.699l7.559-5.35-7.56-5.35M56.927 20.02h2.977c4.208.02 6.035-1.766 6.035-6.139 0-4.372-1.827-6.158-6.035-6.138h-2.977V20.02zM55.531 6.552h5.071c4.413.102 6.733 2.525 6.733 7.328 0 4.804-2.32 7.226-6.733 7.329h-5.07V6.553zM68.772 6.553h10.12v1.19h-8.724v5.297h8.17v1.19h-8.17v5.79h8.827v1.19H68.772V6.553M80.678 6.553h2.053l5.07 12.85 5.05-12.85h2.053V21.21h-1.396V8.544h-.041L88.458 21.21h-1.314L82.115 8.544h-.04V21.21h-1.397V6.553M99.625 15.462h5.768l-2.833-7.513-2.935 7.513zm2.217-8.91h1.56l5.748 14.658h-1.499l-1.785-4.557h-6.672l-1.766 4.557H95.93l5.912-14.657zM110.259 6.553h1.56l8.54 12.399h.04v-12.4h1.396V21.21h-1.56l-8.54-12.4h-.04v12.4h-1.396V6.553M124.587 20.02h2.977c4.207.02 6.035-1.766 6.035-6.139 0-4.372-1.828-6.158-6.035-6.138h-2.977V20.02zM123.19 6.552h5.07c4.414.102 6.734 2.525 6.734 7.328 0 4.804-2.32 7.226-6.734 7.329h-5.07V6.553z"/><path d="M17.744-.067s-3.97 3.445-7.38 10.672c2.052-5.314 1.918-9.043 1.918-9.043S9.4 4.06 6.894 9.303c1.456-3.85 1.36-6.538 1.36-6.538S6.163 4.58 4.32 8.38c1.032-2.79.962-4.727.962-4.727S3.48 5.217 2.047 8.511C.615 11.804.7 14.19.7 14.19s1.462-1.268 2.798-3.923c-1.52 3.937-1.42 6.699-1.42 6.699s2.032-1.764 3.855-5.458c-2.127 5.411-1.989 9.226-1.989 9.226s2.818-2.444 5.305-7.568C6.288 20.59 6.478 25.844 6.478 25.844s4.437-3.847 7.958-11.944c3.52-8.097 3.308-13.967 3.308-13.967" fill="#FFF"/></g></svg>