<?xml version="1.0" encoding="utf-8"?>
<!-- Generator: Adobe Illustrator 24.0.1, SVG Export Plug-In . SVG Version: 6.00 Build 0)  -->
<svg version="1.1" id="layer" xmlns="http://www.w3.org/2000/svg" xmlns:xlink="http://www.w3.org/1999/xlink" x="0px" y="0px"
	 viewBox="0 0 652 520" style="enable-background:new 0 0 652 520;" xml:space="preserve">
<style type="text/css">
	.st0{fill:#FFFFFF;}
	.st1{fill:#ED1D24;}
	.st2{fill:#00A651;}
</style>
<path class="st0" d="M260.3,312.8c-9.3-7-16.4-17.2-21.9-28.1c-9.1-4.3-17.1-9.2-23.6-16.2c-4.9-5.2-9.3-11-12.2-18.2
	c-1-2.5-1.6-5.1-2.1-8.2c-2-12-2.5-25.8-1.1-38.5c1.3-12.3,4.1-23.4,7.5-33.6c6.6-20.2,16.6-37.7,28-53.2c5.7-7.7,11.8-15,18.6-21.7
	c6.9-6.5,14.1-12.7,21.8-18.4c7.5-5.5,15.7-10.9,24.8-14.9c8.6-3.8,20.5-7.7,32.8-5.5c5.6,1.1,10.2,3.1,13.8,6
	c1,0.8,1.9,1.4,2.6,2.4c2,3,3.6,6.8,4.3,11.1c1.1,6.3,0.2,13-1.2,18.5c-1.4,5.6-3.3,10.3-5.4,15c-4.2,9.2-9.5,17.6-14.9,25.6
	s-11.5,15.5-17.6,22.8c-9.2,11-18.7,21.3-29.2,31.1c-1.6,1.6-3.3,3.2-4.8,5.3c-1.3,1.8-3,4.5-2.9,7.3c0.1,3.7,3.8,4.5,7.5,4.4
	c18.5-10.8,35.6-23.4,51.4-37.3c15.6-13.8,29.8-29.9,40.5-49c5.3-9.4,10.1-19.9,13.2-32c1.5-6,2.8-12.8,2.8-20s-0.7-14.4-2.1-20.8
	c-5.5-24.4-21.6-39-51.2-37.5c-5.4,0.2-10.7,1.1-15.6,2.1c-4.8,1-12.7,2.9-17,4.3c-58.9,19-97.9,65.4-123.5,122.7
	c-7.4,16.5-13,35.4-16.1,56.7c-1.6,11.1-2.6,23.3-0.9,34.1c5,31.7,19.9,52.6,41.5,66.6c14.3,9.3,31.2,15.5,52.8,17.5
	C261.1,313.2,260.5,312.9,260.3,312.8"/>
<path class="st0" d="M242.3,193.6c-3.5,10.6-6,22.6-6.5,36.1c-0.5,14.3,1.7,26.5,5.2,37.4c3.5,10.6,8.2,19.7,14.3,27.7
	c3.1,4,6.3,7.8,10,10.9c3.7,3.1,7.8,6,12.1,8.7c16.7,10.8,35.9,19.3,60.6,21.4c12.8,1.1,26.1,0,37.6-2.2c22.4-4.5,41.1-13,58.7-23.6
	c14.7-8.9,29-19.8,40.9-31.8c0.7-0.7,1.6-1.8,2.1-3.1c0.5-1.4,1-3.5,0.3-4.3c-1.7-1.9-5.8,1.2-6.4,1.6c-17.8,15.1-37.7,27.5-61.4,36
	c-8.7,3.1-17.9,5.7-27.8,7.2c-10.4,1.6-22,2-32.7,1.2c-32.5-2.6-55.1-14.9-70.2-35.9c-5.1-7.1-9.1-15.1-11.8-24.3
	c-1.4-4.8-2.3-9.9-2.3-15.9s0.4-11.7,1.1-17.3c2.7-21.3,10.3-38.3,19.6-53c10.3-16.4,23.4-30.8,38.2-42.2c0.8-0.6,1.8-1.2,2.5-1.9
	c0.7-0.8,1.3-1.7,1.9-2.5c5-6.7,9.1-12.3,12.3-21.1c1.2-3.2,3.2-9,3.3-12.9c0.1-1.4,0.2-3-0.4-4.3c-1,0.3-2.6,0.9-4.1,1.5
	c-18.3,6.9-34.3,18.4-47.4,30.3C282.7,125.9,258.2,150.8,242.3,193.6"/>
<path class="st0" d="M397.7,91.5c0,0-4,20.7-12.8,31c0,0,86.6,41.7,0,112.8c0,0-35.1,30.5-97.3,37.8c0,0,3.9,8.5,25.4,26.5
	c0,0,100.9-20,136.9-96.4C449.9,203.2,483.2,126.2,397.7,91.5"/>
<path class="st1" d="M260.3,312.8c-9.3-7-16.4-17.2-21.9-28.1c-9.1-4.3-17.1-9.2-23.6-16.2c-4.9-5.2-9.3-11-12.2-18.2
	c-1-2.5-1.6-5.1-2.1-8.2c-2-12-2.5-25.8-1.1-38.5c1.3-12.3,4.1-23.4,7.5-33.6c6.6-20.2,16.6-37.7,28-53.2c5.7-7.7,11.8-15,18.6-21.7
	c6.9-6.5,14.1-12.7,21.8-18.4c7.5-5.5,15.7-10.9,24.8-14.9c8.6-3.8,20.5-7.7,32.8-5.5c5.6,1.1,10.2,3.1,13.8,6
	c1,0.8,1.9,1.4,2.6,2.4c2,3,3.6,6.8,4.3,11.1c1.1,6.3,0.2,13-1.2,18.5c-1.4,5.6-3.3,10.3-5.4,15c-4.2,9.2-9.5,17.6-14.9,25.6
	s-11.5,15.5-17.6,22.8c-9.2,11-18.7,21.3-29.2,31.1c-1.6,1.6-3.3,3.2-4.8,5.3c-1.3,1.8-3,4.5-2.9,7.3c0.1,3.7,3.8,4.5,7.5,4.4
	c18.5-10.8,35.6-23.4,51.4-37.3c15.6-13.8,29.8-29.9,40.5-49c5.3-9.4,10.1-19.9,13.2-32c1.5-6,2.8-12.8,2.8-20s-0.7-14.4-2.1-20.8
	c-5.5-24.4-21.6-39-51.2-37.5c-5.4,0.2-10.7,1.1-15.6,2.1c-4.8,1-12.7,2.9-17,4.3c-58.9,19-97.9,65.4-123.5,122.7
	c-7.4,16.5-13,35.4-16.1,56.7c-1.6,11.1-2.6,23.3-0.9,34.1c5,31.7,19.9,52.6,41.5,66.6c14.3,9.3,31.2,15.5,52.8,17.5
	C261.1,313.2,260.5,312.9,260.3,312.8"/>
<path d="M242.3,193.6c-3.5,10.6-6,22.6-6.5,36.1c-0.5,14.3,1.7,26.5,5.2,37.4c3.5,10.6,8.2,19.7,14.3,27.7c3.1,4,6.3,7.8,10,10.9
	c3.7,3.1,7.8,6,12.1,8.7c16.7,10.8,35.9,19.3,60.6,21.4c12.8,1.1,26.1,0,37.6-2.2c22.4-4.5,41.1-13,58.7-23.6
	c14.7-8.9,29-19.8,40.9-31.8c0.7-0.7,1.6-1.8,2.1-3.1c0.5-1.4,1-3.5,0.3-4.3c-1.7-1.9-5.8,1.2-6.4,1.6c-17.8,15.1-37.7,27.5-61.4,36
	c-8.7,3.1-17.9,5.7-27.8,7.2c-10.4,1.6-22,2-32.7,1.2c-32.5-2.6-55.1-14.9-70.2-35.9c-5.1-7.1-9.1-15.1-11.8-24.3
	c-1.4-4.8-2.3-9.9-2.3-15.9s0.4-11.7,1.1-17.3c2.7-21.3,10.3-38.3,19.6-53c10.3-16.4,23.4-30.8,38.2-42.2c0.8-0.6,1.8-1.2,2.5-1.9
	c0.7-0.8,1.3-1.7,1.9-2.5c5-6.7,9.1-12.3,12.3-21.1c1.2-3.2,3.2-9,3.3-12.9c0.1-1.4,0.2-3-0.4-4.3c-1,0.3-2.6,0.9-4.1,1.5
	c-18.3,6.9-34.3,18.4-47.4,30.3C282.7,125.9,258.2,150.8,242.3,193.6"/>
<path class="st2" d="M397.7,91.5c0,0-4,20.7-12.8,31c0,0,86.6,41.7,0,112.8c0,0-35.1,30.5-97.3,37.8c0,0,3.9,8.5,25.4,26.5
	c0,0,100.9-20,136.9-96.4C449.9,203.2,483.2,126.2,397.7,91.5"/>
<path d="M30.2,486.5c0,2.9,2.2,4.1,7.6,4.1c5.9,0,8.8-1.7,10.1-7.5h1.2c-0.6,3.8-1.7,7.1-3.2,10.4c-1.9,0.3-5,0.3-6.9,0.3
	c-8.9-0.1-15.9-0.5-19.5-0.5V492c4.3-0.3,5-2.3,5-12.2c0-22.6-0.1-24.4-1.9-26.4c-0.8-0.9-2-1.1-3.2-1.1v-1.2
	c4.6,0,9.3,0.5,13.8,0.5c4.6,0,9.2-0.5,13.8-0.5c-0.3,2.7-0.3,6.3-0.4,8.9h-1.2c0.3-3.7-1.9-5.3-5.8-5.3h-9.5v15.6h6
	c8,0,8.6-1,9.3-4.4h1.1c-0.2,2.9-0.5,9-0.3,11.8H45c-0.1-2.7-0.8-4.3-6-4.3h-8.9v13.1H30.2z"/>
<path d="M53.4,464c3.1,0,6.3-0.2,8.7-1.1h0.4v3.4c2.3-2.4,4.4-3.6,7.3-3.6c3.1,0,5.1,1.2,7.1,3.7c2.5-2.6,5-3.7,7.8-3.7
	c3.1,0,9,1.4,9,8.9v14.5c0,4.3,0.6,6.5,4.3,6.5v1.2c-2,0-3.8-0.4-5.7-0.4c-2,0-3.9,0.4-5.8,0.4v-1.2c1.8,0,2.1-0.8,2.2-6.1V473
	c0-4.1-1.2-7.5-5.7-7.5c-1.9,0-3.8,0.5-4.8,2.5v21.4c0,1.9,1.1,2.7,2.4,3.1v1.2c-1.6,0-3.2-0.4-4.9-0.4c-1.6,0-3.1,0.4-4.8,0.4v-1.2
	c1.8,0,2.2-0.8,2.2-6.1v-14.3c0-3.2-1.3-6.6-5.1-6.6c-2.1,0-3.7,1-5.3,3.3v19.8c0,2.8,0.7,3.4,2.4,3.9v1.2c-1.9,0-3.9-0.4-5.8-0.4
	c-1.9,0-3.9,0.4-5.8,0.4v-1.2c4,0,4.1-1.9,4.1-6.1v-14.1c0-5.6-0.5-7.1-4.1-7.1L53.4,464L53.4,464z"/>
<path d="M102.9,464.8c3.2,0,6.1-0.2,8.7-1.1h0.8c-0.3,1.4-0.4,3.5-0.4,5.3v19.6c0,2.2,0.5,3.9,3.4,3.9v1.3c-2.1,0-4.1-0.4-6.2-0.4
	s-4.1,0.4-6.2,0.4v-1.3c3.2,0,3.9-0.9,3.9-6v-14.2c0-5.7-1.4-6.3-3.9-6.3v-1.2H102.9z M113.4,454.7c0,1.9-1.2,3.7-3,3.7
	c-1.6,0-3-1.5-3-3.5c0-2.1,1.3-3.5,3-3.5C112.6,451.3,113.4,453.3,113.4,454.7"/>
<path d="M123.2,472.2c0-5.7-1.2-6.7-3.8-6.6v-1.2c3.2,0,6.1-0.2,8.6-1.1h0.8c-0.2,1.1-0.5,3.5-0.4,5.4c2.5-3.5,4.9-5.4,8.1-5.4
	c1.6,0,3.9,0.8,3.9,1.9c0,0.9-1.6,3.5-3.1,3.5c-1.3,0-2-1-3.6-1c-2.1,0-3.9,1.8-5.4,3.9v13.7c0,4.4,1.4,7.3,6.8,7.4v1.3
	c-2.6,0-5.3-0.4-7.9-0.4s-5.2,0.4-7.8,0.4v-1.3c3.7-0.5,3.8-2.3,3.8-6.1C123.2,486.6,123.2,472.2,123.2,472.2z"/>
<path d="M147,465.5c1.5-1.2,5-2.7,9.1-2.7c9.6,0,10.2,6.4,10.2,10.4v14.5c0,2.5,0.7,4.1,3.3,4.4l0.1,1.2h-3.4
	c-1.6,0-3.2,0.1-4.6,0.4l-0.4-2.4c-3.2,2.5-6,2.7-8,2.7c-5.7,0-8.1-2.9-8.1-7.2c0-8.1,12-9.4,16-11.7v-3.4c0-2.2-0.4-6.1-6-6.1
	c-3.7,0-6.5,1.8-6.7,6.4h-1.1L147,465.5z M161.2,478c-6.2,1.8-10.7,2.5-10.7,7.9c0,3.4,2.4,5.2,5.3,5.2c1.5,0,2.6-0.1,5.4-1.7V478z"
	/>
<path d="M178.5,458.4c1.5-0.1,3-0.3,4.1-0.8h1v6.9h7.9l-1.1,3c-1.2-0.1-2.6-0.3-4-0.3h-2.8v17.6c0,2.7,0.9,6,4.5,6
	c1,0,1.9-0.3,2.4-0.5l1.1,1.9c-2.3,1.7-4.6,1.9-5.5,1.9c-4.2,0-7.7-2.1-7.7-9.4v-17.4l-4,0.2l1-3h3v-6.1H178.5z"/>
<path d="M217.3,491.5c-2.6,1.6-5.1,2.6-9,2.6c-8.7,0-12.7-6.5-12.7-15.4c0-7.4,3.3-16,12.5-16c6.1,0,9.3,5.2,9.3,10.4
	c0,0.9-0.1,1.8-0.3,2.7h-15.9v3c0,7,3.8,12.7,9,12.7c1.1,0,3-0.2,6-2L217.3,491.5z M209.6,473.5c2.3,0,2.8-0.4,2.8-2.2
	c0-2.1-1.6-5.9-5.4-5.9c-4.3,0-5.6,5.8-5.6,8h8.2V473.5z"/>
<path d="M224.7,485.4c0.3,4.9,5.9,5.9,8.3,5.9c3,0,5.3-1.6,5.3-4.5c0-1.3-0.6-2.6-1.5-3.6c-2.5-2.4-8.2-3.7-10.8-6.4
	c-1.4-1.4-2.4-3.2-2.4-5.3c0-3.2,2.1-8.8,11.1-8.8c2.4,0,5.6,0.5,7.6,0.5c-0.3,2.4-0.4,5.6-0.3,7.9h-1.2c-0.3-3.8-3.3-5.8-7-5.8
	c-3.8,0-5.3,2.6-5.3,4.3c0,1,0.4,2.2,1.1,2.9c2.2,2.2,7.7,2.9,11.1,6.3c1.7,1.7,2.7,3.8,2.7,6.2c0,4.1-2.2,9-10.2,9
	c-1.2,0-4.8-0.3-8.7-0.6c-0.4-1.9-1-6-1.1-8L224.7,485.4z"/>
<path d="M306.2,499.3c-1.9,1.4-3.9,2.1-5.7,2.1c-4.9,0-9.3-3.6-12.9-7.1c-0.7,0.1-1.6,0.1-2.3,0.1c-11.2,0-19.9-8.9-19.9-22.5
	c0-16.9,12.3-21.7,19.5-21.7c8.4,0,19.8,5.8,19.8,23.2c0,8.5-4.1,15.5-11.6,19.3c3.5,2.5,7.7,5.5,13,5.3v1.3H306.2z M271.8,471.3
	c0,11.4,5.3,20.4,14,20.4c5.8,0,12.5-4.7,12.5-17.9c0-14.4-7.6-20.6-14.1-20.6C277.9,453.2,271.8,458.9,271.8,471.3"/>
<path d="M318.3,483.4c0,6.2,4.3,7.6,6.9,7.6c1.5,0,3.4-0.4,5-1.9v-18.9c0-3.1-0.9-5-3.7-5.2v-1c2.1,0,6.2-0.2,8.2-1.3h1.1
	c-0.2,1.4-0.5,3.3-0.5,7.4v17.5c0,2.8,0.9,4.4,3.4,4.6v1.2c-3.2,0-5.3,0.1-6.8,0.4H331l-0.7-2.2c-2.2,1.5-5.1,2.5-7.7,2.5
	c-7.9,0-9.4-6.4-9.4-11.2v-12.8c0-2.8-1-4.9-3.5-4.9v-1.3c3.5,0.1,5.9-0.2,8.1-1.2h0.9c-0.3,2-0.5,4.9-0.5,7.3v13.4H318.3z"/>
<path d="M346.7,465.5c1.5-1.2,5-2.7,9-2.7c9.6,0,10.2,6.4,10.2,10.4v14.5c0,2.5,0.7,4.1,3.3,4.4l0.1,1.2H366c-1.6,0-3.2,0.1-4.6,0.4
	l-0.4-2.4c-3.2,2.5-6,2.7-8.1,2.7c-5.7,0-8.1-2.9-8.1-7.2c0-8.1,11.9-9.4,16.1-11.7v-3.4c0-2.2-0.4-6.1-6-6.1
	c-3.7,0-6.5,1.8-6.8,6.4H347L346.7,465.5z M360.9,478c-6.2,1.8-10.7,2.5-10.7,7.9c0,3.4,2.4,5.2,5.4,5.2c1.4,0,2.5-0.1,5.3-1.7
	L360.9,478L360.9,478z"/>
<path d="M374.7,446.9c3-0.2,6.3-0.8,8.2-1.3h1.3c-0.3,2.4-0.4,10.4-0.4,11.5v28.2c0,6,0.5,7.1,3.4,7.2v1.3c-2.1,0-4.1-0.4-6.2-0.4
	c-2,0-4.2,0.4-6.2,0.4v-1.3c2.6,0,3.8-1.8,3.8-6.6v-31.6c0-5.7-1.2-6.1-3.8-6.1L374.7,446.9L374.7,446.9z"/>
<path d="M392.4,464.8c3.2,0,6.1-0.2,8.6-1.1h0.9c-0.3,1.4-0.5,3.5-0.5,5.3v19.6c0,2.2,0.5,3.9,3.4,3.9v1.3c-2.1,0-4.2-0.4-6.3-0.4
	c-2.1,0-4.1,0.4-6.2,0.4v-1.3c3.2,0,3.9-0.9,3.9-6v-14.2c0-5.7-1.4-6.3-3.9-6.3v-1.2H392.4z M402.9,454.7c0,1.9-1.2,3.7-2.9,3.7
	c-1.7,0-3.1-1.5-3.1-3.5c0-2.1,1.3-3.5,3-3.5C402.1,451.3,402.9,453.3,402.9,454.7"/>
<path d="M413.3,458.4c1.5-0.1,3-0.3,4.1-0.8h1.1v6.9h7.9l-1,3c-1.3-0.1-2.6-0.3-4-0.3h-2.8v17.6c0,2.7,0.9,6,4.5,6
	c1,0,1.9-0.3,2.4-0.5l1.1,1.9c-2.3,1.7-4.6,1.9-5.5,1.9c-4.2,0-7.7-2.1-7.7-9.4v-17.4l-4,0.2l1-3h3v-6.1H413.3z"/>
<path d="M430.1,463.3c1.7,0,3.5,0.3,5.3,0.3c1.7,0,3.6-0.3,5.3-0.3v1.2c-1.1,0.1-1.8,0.6-1.8,1.6c0,3.7,5.2,18.5,6.3,21.1
	c1.4-3.4,6.3-18.4,6.3-20.9c0-1.3-0.7-1.8-2-1.8v-1.2c1.7,0,3.4,0.3,4.9,0.3c1.7,0,3.3-0.3,4.9-0.3v1.2c-2.6-0.1-3.2,0.9-4.1,3.3
	c-1.8,4.5-5.3,16.7-9.8,27.5c-2.4,5.6-5.4,14-13.8,14c-1.1,0-2.9-0.3-2.9-1.3c0-0.8,0.7-2,1.6-2.8c1-1,1.9-1,3.5-1
	c3.9,0,4.8-1.1,8.9-10.2c-2.8-6.5-6.7-16.8-8.8-24.7c-0.8-3.1-1.6-4.7-3.8-4.7V463.3z"/>
<path d="M477.9,451.3c2,0,4.1,0.4,6.2,0.4s4.2-0.4,6.2-0.4l15.3,35l15.1-35c1.9,0,3.9,0.4,5.9,0.4s4-0.4,6-0.4v1.2
	c-6,0.7-6.5,3.7-6.5,9c0,2.9,1.4,19.7,1.7,24.1c0.3,3.9,1.5,6.6,5.3,7.1v1.2c-2.9,0-5.9-0.4-8.8-0.4c-3,0-6,0.4-8.9,0.4v-1.2
	c4.8-0.1,6.4-2.1,6.4-6.9c0-4.4-1-21.3-1.5-25.6l-14.3,34h-3.4L487.9,460l-1.4,25c-0.3,5,1,7,5.6,7.6v1.2c-2.4,0-4.9-0.4-7.2-0.4
	c-2.4,0-4.8,0.4-7.2,0.4v-1.2c3.6-0.5,5.1-2.4,5.7-10.7c0.5-6.1,1.5-21.3,1.5-24.3s-0.2-4.6-7-5.1V451.3z"/>
<path d="M539.8,465.5c1.5-1.2,5-2.7,9.1-2.7c9.6,0,10.2,6.4,10.2,10.4v14.5c0,2.5,0.7,4.1,3.3,4.4l0.1,1.2h-3.4
	c-1.6,0-3.2,0.1-4.7,0.4l-0.4-2.4c-3.2,2.5-6,2.7-8,2.7c-5.7,0-8-2.9-8-7.2c0-8.1,11.9-9.4,16.1-11.7v-3.4c0-2.2-0.4-6.1-6.1-6.1
	c-3.7,0-6.5,1.8-6.8,6.4h-1.1L539.8,465.5z M554,478c-6.2,1.8-10.7,2.5-10.7,7.9c0,3.4,2.4,5.2,5.3,5.2c1.5,0,2.5-0.1,5.4-1.7V478z"
	/>
<path d="M570.7,472.2c0-5.7-1.3-6.7-3.9-6.6v-1.2c3.2,0,6.1-0.2,8.6-1.1h0.8c-0.2,1.1-0.5,3.5-0.4,5.4c2.5-3.5,4.9-5.4,8.1-5.4
	c1.7,0,3.9,0.8,3.9,1.9c0,0.9-1.5,3.5-3.1,3.5c-1.3,0-2-1-3.5-1c-2.2,0-3.9,1.8-5.4,3.9v13.7c0,4.4,1.4,7.3,6.8,7.4v1.3
	c-2.7,0-5.3-0.4-7.9-0.4c-2.6,0-5.3,0.4-7.9,0.4v-1.3c3.8-0.5,3.9-2.3,3.9-6.1L570.7,472.2L570.7,472.2z"/>
<path d="M590.6,446.9c3.2,0.1,5.8-0.4,8.3-1.3h0.9c-0.2,1-0.5,6.6-0.5,7.7v32.6c0,3.1,0.5,5.6,1.8,6.6v1.3c-1.8,0-3.6-0.4-5.4-0.4
	c-1.8,0-3.7,0.4-5.6,0.4v-1.3c2.6,0,4-1.2,4-5.6v-32.6c0-5.7-0.9-6.1-3.6-6.1L590.6,446.9L590.6,446.9z M608,463.3
	c1.7,0,3.5,0.3,5.2,0.3c1.8,0,3.5-0.3,5.2-0.3v1.2c-1.6,0-3.3,0.8-5.3,2.8l-7.7,8.3l9.7,13.4c2.1,3,2.8,3.4,4.2,3.4v1.3
	c-1.2,0-2.3-0.4-3.5-0.4c-1,0-2.3,0.4-3.4,0.4L600,476.6c5.4-5.4,9.5-9.3,9.5-11.1c0-0.6-0.5-1-1.5-1.1V463.3z"/>
<path d="M46.7,416.8h5.1v5.4h-29v-11.5c0-3.5,1-6.4,3.2-8.7c2.3-2.4,5.5-3.6,9.5-3.6h5.7v-0.8c0-1-0.3-1.6-0.8-2.1
	c-0.6-0.4-1.4-0.7-2.5-0.7h-1.4v-1.6l10.2-1.8V416.8z M28.4,385.1c0.9,0,1.7,0.3,2.3,0.9c0.6,0.6,0.9,1.4,0.9,2.3s-0.3,1.7-0.9,2.3
	c-0.6,0.6-1.4,0.9-2.3,0.9s-1.7-0.3-2.3-0.9c-0.6-0.6-1-1.4-1-2.3s0.4-1.6,1-2.2C26.7,385.5,27.5,385.1,28.4,385.1 M28.3,416.8h8.2
	c1.7,0,3-0.4,3.6-1.1c0.8-0.8,1.1-2,1.1-3.7v-10.2h-5.7c-2.3,0-4,0.9-5.4,2.9c-1.2,1.7-1.8,3.7-1.8,6
	C28.3,410.7,28.3,416.8,28.3,416.8z M36.3,383.9c0.9,0,1.6,0.3,2.3,0.9c0.6,0.6,0.9,1.4,0.9,2.3c0,0.8-0.3,1.6-1,2.2
	c-0.6,0.7-1.4,0.9-2.2,0.9c-0.9,0-1.7-0.3-2.3-0.9c-0.7-0.6-1-1.4-1-2.3s0.3-1.7,1-2.3C34.6,384.2,35.4,383.9,36.3,383.9"/>
<path d="M63.3,416.8V408c0-0.5-0.1-0.9-0.2-1.2c-0.4-1.1-1.5-1.6-3.2-1.6h-1.3v-1.6l10.2-1.8v14.9h5.1v5.4H51.8v-5.4h11.5V416.8z
	 M58.7,430.4c0.9,0,1.7,0.3,2.3,0.9s0.9,1.4,0.9,2.3s-0.3,1.6-0.9,2.3c-0.6,0.6-1.4,0.9-2.3,0.9c-0.9,0-1.6-0.3-2.3-0.9
	c-0.6-0.6-0.9-1.4-0.9-2.3s0.3-1.7,0.9-2.3C57.1,430.7,57.9,430.4,58.7,430.4 M66.7,429c0.9,0,1.6,0.3,2.3,0.9c0.6,0.6,1,1.4,1,2.3
	c0,0.8-0.4,1.6-1,2.2c-0.6,0.7-1.4,1-2.3,1s-1.6-0.3-2.3-0.9c-0.7-0.6-1-1.4-1-2.3s0.3-1.7,1-2.3C65,429.4,65.8,429,66.7,429"/>
<path d="M85.4,416.8V408c0-0.4-0.1-0.9-0.3-1.2c-0.4-1.1-1.4-1.6-3.2-1.6h-1.4v-1.6l10.2-1.8v14.9c0,1.3,0.6,2.5,1.7,3.3
	c0.4,0.3,0.9,0.6,1.7,1v1.1H73.9v-5.4h11.5V416.8z M79.5,393.3c0.9,0,1.7,0.3,2.3,1c0.6,0.6,0.9,1.4,0.9,2.3s-0.3,1.6-0.9,2.3
	c-0.6,0.6-1.4,0.9-2.3,0.9s-1.6-0.3-2.3-0.9c-0.7-0.7-1-1.4-1-2.3s0.3-1.7,1-2.3C77.9,393.6,78.6,393.3,79.5,393.3 M87.4,392
	c0.9,0,1.7,0.3,2.3,0.9c0.6,0.6,0.9,1.4,0.9,2.3s-0.3,1.6-0.9,2.3c-0.6,0.6-1.4,0.9-2.3,0.9s-1.6-0.3-2.3-0.9c-0.6-0.6-1-1.4-1-2.3
	s0.4-1.7,1-2.3C85.8,392.3,86.5,392,87.4,392"/>
<path d="M114.6,422.2h-12.3v-1.1c0.8-0.3,1.4-0.7,1.7-0.9c1.1-0.9,1.7-2.1,1.7-3.4v-30.6c0-1-0.3-1.7-0.8-2.1
	c-0.6-0.5-1.4-0.7-2.5-0.7H101v-1.6l10.2-1.8v36.8c0,1.3,0.6,2.5,1.7,3.4c0.4,0.3,0.9,0.6,1.7,1
	C114.6,421.2,114.6,422.2,114.6,422.2z"/>
<path d="M138.4,420c0,5.1-1.6,9.5-4.9,13.3c-3,3.4-7,6.1-12.2,7.9v-0.5c1.5-1,3.1-2.4,4.5-4c2-2.2,3.6-4.5,4.8-6.9
	c1.4-3,2.2-6.1,2.2-9.2V408c0-0.9-0.3-1.6-0.9-2.1c-0.6-0.5-1.4-0.7-2.5-0.7h-1.3v-1.6l10.2-1.8L138.4,420L138.4,420z"/>
<path d="M160.5,422.2h-14v-1.1c0.8-0.3,1.3-0.7,1.7-0.9c1.1-0.9,1.7-2.1,1.7-3.4v-30.6c0-1-0.3-1.7-0.9-2.1
	c-0.6-0.5-1.4-0.7-2.5-0.7h-1.4v-1.6l10.2-1.8v36.8h5.1L160.5,422.2L160.5,422.2z"/>
<path d="M194.5,422.2h-34v-5.4h25.1v-11.5h-4.7c-2.6,0-4.6,0.8-6.1,2.4c-1.4,1.4-2,3.1-2,5v2.1h-5.5V412c0-3,1.1-5.4,3.3-7.2
	c2.3-2,5.5-2.9,9.6-2.9h11v14.9c0,1,0.3,1.8,1.1,2.6c0.7,0.7,1.5,1.1,2.3,1.1v1.7H194.5z"/>
<path d="M228.1,416.8c0,1.6-0.6,3-1.7,3.9c-1.2,1-2.9,1.5-5.1,1.5h-12.6c-1.6,0-3.1-0.5-4.6-1.4c-1.4-0.9-2.2-1.8-2.2-2.5
	c0-0.8,1.3-2,4-3.8c2.7-1.7,5.1-2.9,7.3-3.6v0.8c-1.5,1.1-2.7,2-3.4,2.6c-0.8,0.6-1.1,1-1.1,1.3s0.4,0.6,1.2,0.9
	c0.8,0.2,1.4,0.3,1.9,0.3h6c0.8,0,1.4-0.1,1.8-0.4c0.5-0.3,0.7-0.7,0.7-1.2c0-0.3-0.1-0.7-0.2-1l-11-21.9c-0.6-1.2-1.6-2.2-3-3.1
	c-1.6-1-3.2-1.5-4.9-1.5v-2.3h4.9c1.6,0,3,0.8,4.4,2.4c0.9,1.1,1.9,2.6,2.9,4.5l9.2,18.4v-24.4c0-1-0.3-1.7-0.9-2.1
	c-0.6-0.5-1.4-0.7-2.5-0.7H218v-1.6l10.1-1.8V416.8z M221.3,435.8h-10.7v-2.7h2.1l-1.6-3.2c1.7-1.4,2.7-2.2,3.2-2.5
	c1.3-0.8,2.7-1.3,4.2-1.3h1.7v2.5c-0.9,0-1.8,0.1-2.5,0.4s-1.5,0.8-2.2,1.5c0.8,0.8,1.7,1.4,2.5,1.9c0.9,0.4,1.7,0.7,2.6,0.7h0.9
	v2.7H221.3z"/>
<path d="M248.5,422.2h-12.2v-1.1c0.8-0.3,1.3-0.7,1.7-0.9c1.2-0.9,1.7-2.1,1.7-3.4v-30.6c0-1-0.3-1.7-0.9-2.1
	c-0.6-0.5-1.4-0.7-2.5-0.7h-1.4v-1.6l10.2-1.8v36.8c0,1.3,0.6,2.5,1.7,3.4c0.4,0.3,0.9,0.6,1.7,1V422.2z"/>
<path d="M301.2,414.4c0,2.5-0.7,4.4-2,5.8c-1.4,1.3-3.4,2-6,2h-15.7v-11.5c0-3.5,1.1-6.4,3.2-8.7c2.3-2.4,5.5-3.6,9.5-3.6h5.7v-0.8
	c0-1-0.3-1.6-0.9-2.1c-0.6-0.4-1.4-0.7-2.5-0.7h-1.4v-1.6l10.1-1.8L301.2,414.4L301.2,414.4z M283,385.1c0.9,0,1.7,0.3,2.3,0.9
	c0.6,0.6,1,1.4,1,2.3s-0.4,1.7-1,2.3c-0.6,0.6-1.4,0.9-2.3,0.9s-1.6-0.3-2.3-0.9c-0.6-0.6-1-1.4-1-2.3s0.3-1.6,1-2.2
	C281.4,385.5,282.1,385.1,283,385.1 M282.9,416.8h8.1c1.7,0,3-0.4,3.7-1.1c0.7-0.8,1.1-2,1.1-3.7v-10.2h-5.7c-2.2,0-4,0.9-5.4,2.9
	c-1.2,1.7-1.8,3.7-1.8,6L282.9,416.8L282.9,416.8z M290.9,383.9c0.9,0,1.7,0.3,2.3,0.9c0.6,0.6,1,1.4,1,2.3c0,0.8-0.3,1.6-1,2.2
	c-0.6,0.7-1.4,0.9-2.3,0.9s-1.7-0.3-2.3-0.9c-0.7-0.6-1-1.4-1-2.3s0.3-1.7,1-2.3C289.2,384.2,290,383.9,290.9,383.9"/>
<path d="M345.5,422.2H308v-5.4h28.6v-4.9c0-1.9-0.9-3.5-2.8-4.9c-1.6-1.2-3.5-1.8-5.4-1.8h-17v-3.4h17c5,0,8.6,0.8,10.7,2.5
	c1.9,1.6,3,4.2,3,7.7v4.7c0,0.8,0.3,1.6,1.1,2.3c0.7,0.8,1.5,1.3,2.3,1.4L345.5,422.2L345.5,422.2z"/>
<path d="M378,416.8h5.2v5.4h-6.4c-1.4,3.6-3.6,7.1-6.5,10.3c-3.5,3.9-7.4,6.8-11.8,8.6v-0.5c3.2-2.6,6.3-6.2,9.3-10.9
	c3.2-5,4.8-9.2,4.8-12.4v-2.9c0-2.5-0.8-4.7-2.4-6.5s-3.5-2.7-5.8-2.7c-2.1,0-3.7,0.6-5,1.7c-1.2,1.1-1.8,2.4-1.8,4.1
	c0,1.6,0.6,2.9,1.8,4.1c1.2,1.2,2.8,1.7,4.6,1.7h5.8v0.6c0,1-0.2,2.1-0.6,3.3c-0.1,0.4-0.4,0.9-0.6,1.6h-4.3c-2.7,0-5.2-0.6-7.5-1.9
	c-3.1-1.8-4.6-4.5-4.6-7.9c0-3.2,1.3-5.8,3.9-7.8c2.3-1.8,4.9-2.7,7.8-2.7c4.3,0,7.7,1,10.2,3.1c2.6,2.2,3.9,5.3,3.9,9.4V416.8z"/>
<path d="M422.3,422.2h-39.1v-5.4h28.6v-4.9c0-2-1-3.6-2.8-4.9c-1.6-1.2-3.4-1.8-5.4-1.8H390v-3.4h13.6c5,0,8.6,0.8,10.6,2.5
	c2,1.6,3,4.2,3,7.7v4.8h5.1L422.3,422.2L422.3,422.2z M400.2,430.5c0.9,0,1.7,0.3,2.3,0.9c0.6,0.6,0.9,1.4,0.9,2.3s-0.3,1.6-0.9,2.3
	c-0.6,0.7-1.4,0.9-2.3,0.9s-1.7-0.3-2.3-0.9c-0.7-0.6-1-1.4-1-2.3s0.3-1.7,0.9-2.3C398.5,430.8,399.3,430.5,400.2,430.5"/>
<path d="M430.4,416.8v-30.6c0-0.5-0.1-0.9-0.2-1.2c-0.5-1.1-1.5-1.6-3.2-1.6h-1.4v-1.6l10.2-1.8v36.8c0,1.3,0.6,2.5,1.7,3.3
	c0.4,0.3,1,0.6,1.7,1v1.1h-17v-5.4L430.4,416.8L430.4,416.8z"/>
<path d="M459.7,422.2h-12.3v-1.1c0.8-0.3,1.3-0.7,1.7-0.9c1.1-0.9,1.7-2.1,1.7-3.4v-30.6c0-1-0.3-1.7-0.8-2.1
	c-0.6-0.5-1.4-0.7-2.5-0.7h-1.4v-1.6l10.2-1.8v36.8c0,1.3,0.5,2.5,1.7,3.4c0.4,0.3,0.9,0.6,1.7,1L459.7,422.2L459.7,422.2z"/>
<path d="M512.4,416.8h5.1v5.4h-28.9v-11.5c0-3.5,1.1-6.4,3.2-8.7c2.3-2.4,5.5-3.6,9.6-3.6h5.6v-0.8c0-1-0.3-1.6-0.8-2.1
	c-0.6-0.4-1.5-0.7-2.5-0.7h-1.4v-1.6l10.2-1.8v25.4H512.4z M494.2,385.1c0.9,0,1.7,0.3,2.3,0.9c0.6,0.6,1,1.4,1,2.3s-0.3,1.7-1,2.3
	c-0.6,0.6-1.4,0.9-2.3,0.9s-1.7-0.3-2.3-0.9c-0.7-0.6-1-1.4-1-2.3s0.3-1.6,1-2.2C492.5,385.5,493.3,385.1,494.2,385.1 M494.1,416.8
	h8.2c1.7,0,3-0.4,3.7-1.1c0.7-0.8,1.1-2,1.1-3.7v-10.2h-5.7c-2.2,0-4.1,0.9-5.4,2.9c-1.2,1.7-1.8,3.7-1.8,6v6.1H494.1z M502.1,383.9
	c0.9,0,1.6,0.3,2.3,0.9c0.6,0.6,0.9,1.4,0.9,2.3c0,0.8-0.3,1.6-0.9,2.2c-0.6,0.7-1.4,0.9-2.3,0.9s-1.6-0.3-2.3-0.9
	c-0.6-0.6-1-1.4-1-2.3s0.3-1.7,1-2.3C500.4,384.2,501.2,383.9,502.1,383.9"/>
<path d="M551.5,422.2h-34v-5.4h25.2v-11.5h-4.8c-2.6,0-4.6,0.8-6.2,2.4c-1.3,1.4-2,3.1-2,5v2.1h-5.4V412c0-3,1.1-5.4,3.3-7.2
	c2.3-2,5.5-2.9,9.6-2.9h11v14.9c0,1,0.4,1.8,1.1,2.6c0.7,0.7,1.5,1.1,2.3,1.1L551.5,422.2L551.5,422.2z"/>
<path d="M585.2,416.8h5.1v5.4h-24.5c-1.6,0-3.1-0.5-4.6-1.4s-2.2-1.8-2.2-2.5c0-0.8,1.3-2,4-3.8c2.7-1.7,5.1-2.9,7.3-3.6v0.8
	c-1.6,1.1-2.6,2-3.4,2.6c-0.7,0.6-1.1,1-1.1,1.3s0.4,0.6,1.2,0.9s1.4,0.4,2,0.4h6c0.8,0,1.4-0.1,1.8-0.4c0.5-0.3,0.7-0.7,0.7-1.2
	c0-0.3-0.1-0.7-0.3-1l-11-21.9c-0.6-1.2-1.6-2.2-3-3.1c-1.6-1-3.2-1.5-4.9-1.5v-2.3h4.9c1.6,0,3,0.8,4.4,2.4c1,1.1,1.9,2.6,2.8,4.5
	l9.2,18.4v-24.4c0-1-0.3-1.7-0.8-2.1c-0.6-0.5-1.4-0.7-2.5-0.7H575V382l10.1-1.8L585.2,416.8L585.2,416.8z"/>
<path d="M617.5,422.2h-27.2v-5.4h6.8V412c0-3.6,1-6.3,3.1-8c1.7-1.5,4.1-2.2,7.1-2.2h13.6v3.4h-10.2c-1.8,0-3.5,0.5-5,1.4
	c-2.1,1.3-3.1,3.1-3.1,5.4v4.7h21.8v1.8c-1.2,0-2.3,0.6-3.5,1.8C619.8,421.6,618.6,422.2,617.5,422.2"/>
</svg>
