<svg xmlns="http://www.w3.org/2000/svg" viewBox="0 0 32 32">
  <defs>
    <clipPath id="a">
      <path d="M0 28.346h28.346V0H0v28.346z"/>
    </clipPath>
  </defs>
  <g clip-path="url(#a)" transform="matrix(1.25,0,0,-1.25,0,32) scale(0.90312566,0.90312566)" fill="#fff">
    <path d="M.052 14.983c.012.028.024.054.04.082.028.047.065.087.106.125.017.015.024.036.043.049.008.006.02.006.028.012.011.007.017.018.029.025l2.651 1.515c-.354.342-.587.803-.587 1.325 0 .706.394 1.341 1.025 1.659l4.328 2.164-.502 1.255-.34.17c-.176-.106-.379-.164-.591-.164-.107 0-.217.014-.326.045l-4.552 1.301C.578 24.784 0 25.549 0 26.409c0 1.068.869 1.937 1.937 1.937h.543c.44 0 .87-.151 1.211-.424l3.312-2.649c.274-.22.408-.536.42-.864l.519-.258c.13-.065.231-.175.284-.31l.55-1.372 1.65.824c1.26.631 2.876.29 3.774-.789l5.032-6.038 8.675-2.313c.033-.01.058-.03.089-.044.017-.008.039-.005.056-.015.011-.006.016-.019.025-.025.075-.05.14-.11.184-.186.005-.008.008-.016.012-.024.039-.074.059-.155.064-.24 0-.013.009-.024.009-.037V5.315c0-.212-.113-.408-.297-.513L19.781.077C19.69.026 19.589 0 19.488 0c-.058 0-.118.008-.176.027L.415 5.932C.168 6.009 0 6.237 0 6.496v8.267c0 .02.012.037.013.057.006.057.018.11.039.163M2.952 27c-.133.106-.3.165-.472.165h-.544c-.417 0-.756-.339-.756-.756 0-.335.226-.634.548-.726l4.239-1.212c.001.002.001.003.001.006.013.027.037.043.053.067L2.952 27zm10.34-5.252c-.367.44-.906.692-1.479.692-.296 0-.594-.07-.863-.201l-1.735-.867.119-.298 5.735-3.442c.278-.167.369-.53.201-.81-.111-.185-.305-.287-.506-.287-.104 0-.209.027-.304.085l-5.905 3.543c-.111.066-.196.167-.245.287l-.156.39-4.241-2.12c-.229-.116-.372-.346-.372-.607 0-.31.21-.578.51-.653l.287-.072c.001 0 .004-.001.005-.001l15.894-3.974-6.945 8.335zm9.058-9.661c-.109-.175-.3-.276-.5-.276-.047 0-.095.005-.144.018l-1.984.497-1.702-1.022c-.096-.057-.201-.084-.303-.084-.2 0-.396.102-.507.286-.168.28-.078.642.202.81l.691.415-2.27.567-1.356-.813c-.096-.057-.201-.084-.304-.084-.199 0-.395.102-.506.286-.168.28-.078.642.202.81l.343.206-2.271.568-1.006-.605c-.097-.057-.202-.084-.305-.084-.2 0-.396.102-.507.286-.166.279-.078.639.199.808l-2.272.568-.66-.396c-.095-.058-.201-.085-.303-.085-.2 0-.396.102-.507.286-.108.18-.099.39-.012.565l-2.295.574-2.213-1.265 17.359-5.425 6.796 3.883-5.674 1.513 1.763-2.115c.163-.197.182-.476.046-.692M20.079 1.608l7.086 4.049v6.907l-7.086-4.049V1.608zM1.181 6.93l17.717-5.537v7.031L1.181 13.96V6.93z"/>
  </g>
</svg>