<svg width="9" height="11" viewBox="0 0 9 11" fill="none" xmlns="http://www.w3.org/2000/svg">
<path d="M4.914 10.168C4.27933 10.168 3.70533 10.056 3.192 9.832C2.67867 9.608 2.24 9.28133 1.876 8.852C1.512 8.41333 1.22733 7.88133 1.022 7.256C0.826 6.63067 0.728 5.91667 0.728 5.114C0.728 4.31133 0.826 3.59733 1.022 2.972C1.22733 2.34667 1.512 1.81933 1.876 1.39C2.24 0.951333 2.67867 0.619999 3.192 0.395999C3.70533 0.171999 4.27933 0.0599995 4.914 0.0599995C5.362 0.0599995 5.754 0.111333 6.09 0.213999C6.43533 0.307333 6.734 0.438 6.986 0.606C7.24733 0.764666 7.47133 0.955999 7.658 1.18C7.854 1.39467 8.02667 1.628 8.176 1.88L6.832 2.818C6.636 2.41667 6.384 2.10867 6.076 1.894C5.768 1.67 5.38067 1.558 4.914 1.558C4.37267 1.558 3.91067 1.72133 3.528 2.048C3.15467 2.37467 2.90267 2.82267 2.772 3.392H6.104V4.554H2.674V5.674H6.09V6.836H2.772C2.90267 7.424 3.15467 7.87667 3.528 8.194C3.90133 8.51133 4.36333 8.67 4.914 8.67C5.39 8.67 5.79133 8.55333 6.118 8.32C6.454 8.08667 6.734 7.746 6.958 7.298L8.302 8.278C8.162 8.52067 7.994 8.75867 7.798 8.992C7.602 9.216 7.364 9.41667 7.084 9.594C6.81333 9.77133 6.496 9.91133 6.132 10.014C5.77733 10.1167 5.37133 10.168 4.914 10.168Z" fill="#2B2B2B"/>
</svg>
