<svg width="44" height="22" viewBox="0 0 44 22" fill="none" xmlns="http://www.w3.org/2000/svg">
<path d="M1.55286 18.7267C1.36616 18.7267 1.32194 18.772 1.32194 18.9531C1.32194 19.0045 1.32194 21.0933 1.32194 21.0933C1.32194 21.2793 1.36616 21.3258 1.55409 21.3258H4.25266V21.9914H1.01487C0.362644 21.9914 0.00889476 21.7589 0.00889476 20.9562C0.00889476 20.9562 0.000296679 20.4778 0.000296679 20.0324C0.000296679 19.587 0.00889476 19.1159 0.00889476 19.1159C0.00889476 18.3046 0.363873 18.0745 1.01487 18.0745H4.15685V18.7292C4.15685 18.7292 1.55409 18.7292 1.55286 18.7292M8.13776 18.0745V19.6127H6.03369V18.0745H4.70713V21.9939H6.03369V20.2404H8.13899V21.9939H9.46432V18.0745H8.13899H8.13776ZM18.7183 18.0745L17.4372 21.2793C17.4126 21.3343 17.3868 21.3417 17.2996 21.3405C17.2124 21.3405 17.1842 21.3343 17.1621 21.2793L15.8895 18.0733H11.1274C10.4764 18.0733 10.1202 18.3046 10.1202 19.1159C10.1202 19.1159 10.1129 19.587 10.1129 20.0324C10.1129 20.4778 10.1202 20.9587 10.1202 20.9587C10.1202 21.7614 10.474 21.9927 11.1274 21.9927H14.4684V21.327H11.6654C11.4775 21.327 11.4333 21.2817 11.4333 21.0945C11.4333 21.0945 11.4333 20.7029 11.4333 20.2453H14.2166V19.598H11.4333V18.9531C11.4333 18.7732 11.4775 18.7267 11.6642 18.7267C11.6642 18.7267 13.9525 18.7267 14.6551 18.7267C15.0654 19.7106 15.7974 21.4065 15.8625 21.5534C15.9534 21.7565 16.1131 21.9914 16.4582 21.9914H17.6939C18.0391 21.9914 18.1558 21.7614 18.2466 21.557C18.3375 21.3527 19.7255 18.0721 19.7255 18.0721H18.7171L18.7183 18.0745ZM26.6507 18.7231C26.4664 18.7231 26.4222 18.7696 26.4222 18.9482C26.4222 18.9996 26.4222 21.1031 26.4222 21.1031C26.4222 21.2878 26.4652 21.3356 26.6482 21.3356H28.342C28.5263 21.3356 28.5692 21.2866 28.5692 21.1031C28.5692 21.1031 28.5692 18.9996 28.5692 18.9482C28.5692 18.7696 28.525 18.7243 28.3408 18.7231H26.6494M29.8823 19.1122C29.8823 19.1122 29.8909 19.5833 29.8909 20.0299C29.8909 20.4766 29.8823 20.9623 29.8823 20.9623C29.8823 21.7663 29.5273 21.9976 28.8751 21.9988H26.1114C25.4617 21.9988 25.1067 21.7651 25.1067 20.9636C25.1067 20.9636 25.0981 20.4778 25.0981 20.0311C25.0981 19.5845 25.1067 19.1146 25.1067 19.1146C25.1067 18.3021 25.4629 18.0733 26.1114 18.0733C26.1114 18.0733 26.8902 18.0696 27.4908 18.0696C28.0914 18.0696 28.8751 18.0733 28.8751 18.0733C29.5261 18.0733 29.8811 18.3021 29.8811 19.1146M31.8697 21.3331V18.0758H30.5517V21.9976L34.6321 21.9951V21.3331H31.8697ZM35.7744 18.077C35.1247 18.077 34.7697 18.307 34.7697 19.1195C34.7697 19.1195 34.7611 19.5894 34.7611 20.036C34.7611 20.4827 34.7685 20.9599 34.7685 20.9599C34.7685 21.7626 35.1247 21.9939 35.7744 21.9939C35.9022 21.9939 39.1179 21.9927 39.1179 21.9927V21.3343H36.3149C36.127 21.3343 36.0815 21.2878 36.0815 21.1018V20.249H38.8525V19.598H36.0803V18.9568C36.0803 18.7769 36.1257 18.7316 36.3124 18.7316C36.3137 18.7316 40.6852 18.728 40.6852 18.728V21.9939H42.0056V18.728H43.5188V18.077H35.7744ZM23.0689 20.3175C23.0296 20.2881 23.0517 20.2685 23.0898 20.2685C23.1046 20.2685 23.6831 20.2685 23.6831 20.2685C24.124 20.2685 24.5355 20.1327 24.565 19.5331C24.5933 19.374 24.5736 18.9788 24.5736 18.9788C24.5736 18.3303 24.2383 18.0917 23.7347 18.0917H19.8569V21.9963H21.1626V18.7316H23.0972C23.2176 18.7316 23.2495 18.7659 23.2544 18.8369C23.2606 18.9188 23.2642 19.0865 23.2642 19.2297C23.2642 19.3961 23.2642 19.5233 23.2556 19.5894C23.247 19.6543 23.1819 19.6946 23.096 19.6946H21.536V20.293L23.4632 22H25.2799C25.2799 22 23.0886 20.3322 23.0702 20.3187M27.0806 4.87013V1.77796H16.4484V4.86278H6.96351L4.70713 9.26548H16.4496V12.3503H27.0818V9.26548H36.5691L38.8255 4.86278H27.083L27.0806 4.87013ZM43.3457 3.07136C43.5029 3.07136 43.5655 3.19862 43.4857 3.35525L39.6743 10.7926C39.5944 10.9492 39.4016 11.0765 39.2444 11.0765H28.8665V13.8578C28.8665 14.0145 28.7388 14.1417 28.5815 14.1417H14.9401C14.7828 14.1417 14.6551 14.0145 14.6551 13.8578V11.0765H0.174715C0.0174928 11.0765 -0.0451503 10.9492 0.034689 10.7926L3.84609 3.34791C3.92593 3.19128 4.11878 3.06402 4.276 3.06402H14.6551V0.283887C14.6551 0.12726 14.7828 0 14.9401 0H28.584C28.7412 0 28.869 0.12726 28.869 0.283887V3.06402H43.3481" fill="white"/>
</svg>
