<svg width="24" height="24" viewBox="0 0 24 24" fill="none" xmlns="http://www.w3.org/2000/svg">
<path fill-rule="evenodd" clip-rule="evenodd" d="M19.003 17.6518V15.461C20.1976 14.7684 21.0027 13.4793 21.0027 11.9996C21.0027 9.79138 19.212 8.00018 17.0027 8.00018C16.2027 8.00018 15.4611 8.24021 14.836 8.64575C14.2204 5.98695 11.8487 3.99973 9.00284 3.99973C5.68896 3.99973 3.00316 6.68653 3.00316 10.0004C3.00316 11.7751 3.77824 13.3653 5.00338 14.4629V16.9212C2.61461 15.537 1.00293 12.9597 1.00293 10.0004C1.00293 5.5819 4.58484 2 9.00284 2C12.0052 2 14.618 3.65619 15.9861 6.10247C16.3182 6.04596 16.6547 5.99995 17.0027 5.99995C20.3166 5.99995 23.0029 8.68676 23.0029 11.9996C23.0029 14.6114 21.3312 16.8267 19.003 17.6518Z" fill="#DEDEDE"/>
<path d="M9.00266 15.0006C9.00266 14.4485 8.55511 14.0005 8.00254 14.0005C7.45048 14.0005 7.00293 14.4485 7.00293 15.0006C7.00293 15.5532 7.45048 16.0007 8.00254 16.0007C8.55511 16.0007 9.00266 15.5532 9.00266 15.0006Z" fill="#5DB3FB"/>
<path d="M9.00266 19.0011C9.00266 18.4485 8.55511 18.0009 8.00254 18.0009C7.45048 18.0009 7.00293 18.448 7.00293 19.0011C7.00293 19.5526 7.45048 20.0002 8.00254 20.0002C8.55511 20.0002 9.00266 19.5531 9.00266 19.0011Z" fill="#5DB3FB"/>
<path d="M13.0031 17.0008C13.0031 16.4483 12.5551 16.0007 12.003 16.0007C11.4504 16.0007 11.0029 16.4478 11.0029 17.0008C11.0029 17.5529 11.4504 18.0009 12.003 18.0009C12.5551 18.0009 13.0031 17.5529 13.0031 17.0008Z" fill="#5DB3FB"/>
<path d="M13.0031 21.0003C13.0031 20.4482 12.5551 20.0002 12.003 20.0002C11.4504 20.0002 11.0029 20.4482 11.0029 21.0003C11.0029 21.5528 11.4504 22.0004 12.003 22.0004C12.5551 22.0004 13.0031 21.5528 13.0031 21.0003Z" fill="#5DB3FB"/>
<path d="M17.0026 15.0006C17.0026 14.4485 16.555 14.0005 16.0025 14.0005C15.4509 14.0005 15.0028 14.4485 15.0028 15.0006C15.0028 15.5532 15.4504 16.0007 16.0025 16.0007C16.555 16.0007 17.0026 15.5532 17.0026 15.0006Z" fill="#5DB3FB"/>
<path d="M17.0026 19.0011C17.0026 18.4485 16.555 18.0009 16.0025 18.0009C15.4509 18.0009 15.0028 18.448 15.0028 19.0011C15.0028 19.5526 15.4504 20.0002 16.0025 20.0002C16.555 20.0002 17.0026 19.5531 17.0026 19.0011Z" fill="#5DB3FB"/>
</svg>
