<svg width="24" height="24" viewBox="0 0 24 24" fill="none" xmlns="http://www.w3.org/2000/svg">
<rect width="24" height="24" fill="black"/>
<g filter="url(#filter0_d_601_17086)">
<path d="M5 18.5L5.75 17L7 18.3852L5 18.5Z" fill="white"/>
<path d="M5 18.5L5.75 17L7 18.3852L5 18.5Z" stroke="white"/>
</g>
<circle cx="12" cy="12" r="8" fill="white"/>
<path d="M11.1432 9.71328L10.3574 8.14169C9.96448 7.74884 7.86636 8.1417 7.86636 9.71328C7.86636 12.0709 11.7955 16 14.153 16C15.7247 16 16.2511 14.0355 15.8582 13.6425C15.8582 13.6425 15.0724 13.2497 14.2865 12.8566C13.8936 12.8568 12.9999 14 12.9999 14C12.2141 14.0002 9.85661 11.6426 9.85661 10.8567C10.2495 10.4639 10.9696 10.2342 11.1432 9.71328Z" fill="black" stroke="black"/>
<defs>
<filter id="filter0_d_601_17086" x="0.166626" y="16.1211" width="11.9033" height="10.9276" filterUnits="userSpaceOnUse" color-interpolation-filters="sRGB">
<feFlood flood-opacity="0" result="BackgroundImageFix"/>
<feColorMatrix in="SourceAlpha" type="matrix" values="0 0 0 0 0 0 0 0 0 0 0 0 0 0 0 0 0 0 127 0" result="hardAlpha"/>
<feOffset dy="4"/>
<feGaussianBlur stdDeviation="2"/>
<feComposite in2="hardAlpha" operator="out"/>
<feColorMatrix type="matrix" values="0 0 0 0 0 0 0 0 0 0 0 0 0 0 0 0 0 0 0.25 0"/>
<feBlend mode="normal" in2="BackgroundImageFix" result="effect1_dropShadow_601_17086"/>
<feBlend mode="normal" in="SourceGraphic" in2="effect1_dropShadow_601_17086" result="shape"/>
</filter>
</defs>
</svg>
