<svg width="45" height="46" viewBox="0 0 45 46" fill="none" xmlns="http://www.w3.org/2000/svg">
<g clip-path="url(#clip0_158_24)">
<path d="M43.4597 21.7298C43.4597 33.7309 33.7309 43.4597 21.7298 43.4597C9.72878 43.4597 0 33.7309 0 21.7298C0 9.72878 9.72878 0 21.7298 0C33.7309 0 43.4597 9.72878 43.4597 21.7298Z" fill="#000000"/>
<path d="M37.8096 29.4159C38.939 28.2378 40.9201 28.724 41.3757 30.2911L44.9133 42.4589C45.3689 44.026 43.9572 45.4986 42.3723 45.1096L30.0659 42.0893C28.4809 41.7003 27.9115 39.7415 29.0408 38.5634L37.8096 29.4159Z" fill="#000000"/>
<path d="M20.1434 25.6752C20.1591 24.7455 20.2645 24.0112 20.4598 23.4721C20.6552 22.933 21.0536 22.3354 21.6552 21.6791L23.1903 20.0971C23.8466 19.3549 24.1747 18.558 24.1747 17.7065C24.1747 16.8862 23.9598 16.2455 23.5302 15.7846C23.1005 15.3159 22.4755 15.0815 21.6552 15.0815C20.8583 15.0815 20.2177 15.2924 19.7333 15.7143C19.2489 16.1362 19.0067 16.7026 19.0067 17.4135H16.8387C16.8544 16.1479 17.3036 15.1284 18.1864 14.3549C19.077 13.5737 20.2333 13.183 21.6552 13.183C23.1317 13.183 24.2802 13.5815 25.1005 14.3784C25.9286 15.1674 26.3427 16.2534 26.3427 17.6362C26.3427 19.0034 25.7098 20.351 24.4442 21.6791L23.1669 22.9448C22.5966 23.5776 22.3114 24.4877 22.3114 25.6752H20.1434ZM20.0497 29.3901C20.0497 29.0385 20.1552 28.7455 20.3661 28.5112C20.5848 28.269 20.9052 28.1479 21.327 28.1479C21.7489 28.1479 22.0692 28.269 22.288 28.5112C22.5067 28.7455 22.6161 29.0385 22.6161 29.3901C22.6161 29.7416 22.5067 30.0346 22.288 30.269C22.0692 30.4955 21.7489 30.6088 21.327 30.6088C20.9052 30.6088 20.5848 30.4955 20.3661 30.269C20.1552 30.0346 20.0497 29.7416 20.0497 29.3901Z" fill="white"/>
</g>
<defs>
<clipPath id="clip0_158_24">
<rect width="45" height="45.1728" fill="white"/>
</clipPath>
</defs>
</svg>
