<svg width="600" height="168" viewBox="0 0 600 168" fill="none" xmlns="http://www.w3.org/2000/svg">
<g clip-path="url(#clip0_1_13)">
<rect width="600" height="168" fill="#101010"/>
<path d="M595.88 -27L765 168H446.12L277 -27H595.88Z" fill="#04AB63"/>
<path d="M480.354 22.0805H493.868C503.292 22.0805 509.445 26.3327 509.445 35.3537V35.5922C509.445 44.653 503.019 48.6667 494.023 48.6667H488.143V65H480.315V22.0805H480.354ZM493.907 42.9044C499.086 42.9044 501.851 40.3213 501.851 35.5922V35.3537C501.851 30.267 498.891 28.28 493.907 28.28H488.221V42.9044H493.907V42.9044Z" fill="white"/>
<path d="M529.693 64.9603H514.7V22.0805H541.103V28.3595H522.449V39.2086H529.849C539.078 39.2086 544.725 43.2223 544.725 51.8062V52.0447C544.764 60.3504 539.351 64.9603 529.693 64.9603ZM529.459 58.8403C534.639 58.8403 537.209 56.4558 537.209 52.0049V51.7665C537.209 47.3951 534.638 44.9709 529.148 44.9709H522.449V58.8403H529.459Z" fill="white"/>
<path d="M550.409 22.0795H558.237V41.5125L574.359 22H582.771L565.363 42.506L583.666 64.9593H574.437L558.276 44.9301V64.9593H550.448V22.0795H550.409Z" fill="white"/>
<path d="M468.592 22.0805H430V61.3439L468.592 22.0805Z" fill="white"/>
<path d="M433.464 64.9984H472.057V25.6953L433.464 64.9984Z" fill="white"/>
<path d="M25.448 90.144C25.256 92.48 24.872 94.432 24.072 95.904H32.52V81.216H25.896C25.8 83.904 25.672 87.296 25.448 90.144ZM21.608 100L21.448 104.16H16.936V95.904H18.376C19.848 95.296 20.488 93.248 20.84 89.856C21.128 86.4 21.224 81.984 21.224 77.12H37.672V95.904H40.456V104.16H35.944L35.784 100H21.608ZM50.4438 100.352C45.3878 100.352 41.7078 97.184 41.7078 91.84V91.584C41.7078 86.304 45.4518 82.88 50.3158 82.88C54.6358 82.88 58.4758 85.408 58.4758 91.392V92.672H46.4118C46.5398 95.456 48.0438 97.056 50.5718 97.056C52.7158 97.056 53.7718 96.128 54.0598 94.72H58.4438C57.8998 98.336 55.0198 100.352 50.4438 100.352ZM46.4758 89.824H53.9638C53.8038 87.296 52.5238 86.08 50.3158 86.08C48.2358 86.08 46.8278 87.456 46.4758 89.824ZM72.169 100V93.12H65.961V100H61.385V83.264H65.961V89.824H72.169V83.264H76.745V100H72.169ZM80.7563 100V83.264H85.3323V88.576H88.3723C92.2763 88.576 94.8363 90.656 94.8363 94.336V94.432C94.8363 98.112 92.4043 100 88.2443 100H80.7563ZM85.3323 96.768H87.3483C89.2683 96.768 90.1643 96.032 90.1643 94.4V94.304C90.1643 92.608 89.2363 91.808 87.3483 91.808H85.3323V96.768ZM112.305 100.352C107.313 100.352 103.505 97.024 103.505 91.808V91.552C103.505 86.304 107.313 82.88 112.337 82.88C117.361 82.88 121.137 86.24 121.137 91.456V91.712C121.137 96.992 117.329 100.352 112.305 100.352ZM112.337 96.832C114.929 96.832 116.433 94.912 116.433 91.744V91.52C116.433 88.32 114.929 86.4 112.337 86.4C109.777 86.4 108.241 88.256 108.241 91.456V91.712C108.241 94.912 109.713 96.832 112.337 96.832ZM136.612 83.264V86.56H131.652V100H127.044V86.56H122.084V83.264H136.612ZM149.229 100L143.661 92.096V100H139.053V83.264H143.661V90.432L149.069 83.264H153.997L147.885 90.912L154.477 100H149.229ZM165.251 96.736C167.811 96.736 169.219 95.008 169.219 91.744V91.488C169.219 88.096 167.555 86.432 165.219 86.432C162.787 86.432 161.123 88.128 161.123 91.488V91.744C161.123 95.104 162.723 96.736 165.251 96.736ZM156.643 105.696V83.264H161.283V85.888C162.211 84.288 164.163 82.88 166.627 82.88C170.723 82.88 173.923 85.92 173.923 91.456V91.712C173.923 97.248 170.787 100.352 166.627 100.352C164.035 100.352 162.147 99.072 161.283 97.44V105.696H156.643ZM192.282 100V83.264H196.858V100H192.282ZM176.89 100V83.264H181.466V88.576H184.282C188.154 88.576 190.746 90.592 190.746 94.272V94.368C190.746 98.016 188.314 100 184.122 100H176.89ZM181.466 96.736H183.29C185.146 96.736 186.074 96.064 186.074 94.336V94.24C186.074 92.64 185.21 91.808 183.29 91.808H181.466V96.736ZM213.847 83.264V86.56H208.887V100H204.279V86.56H199.319V83.264H213.847ZM231.712 100V83.264H236.288V100H231.712ZM216.32 100V83.264H220.896V88.576H223.712C227.584 88.576 230.176 90.592 230.176 94.272V94.368C230.176 98.016 227.744 100 223.552 100H216.32ZM220.896 96.736H222.72C224.576 96.736 225.504 96.064 225.504 94.336V94.24C225.504 92.64 224.64 91.808 222.72 91.808H220.896V96.736ZM238.749 100L244.477 91.456L239.133 83.264H244.445L247.581 88.288L250.653 83.264H255.453L250.109 91.104L255.997 100H250.653L247.133 94.368L243.517 100H238.749ZM24.264 130.512C24.104 132.272 23.848 133.648 23.336 134.704H29.064V124.528H24.584C24.552 126.48 24.456 128.72 24.264 130.512ZM21.448 138L21.384 142.064H17.384V134.704H18.344C19.432 134.256 19.912 132.72 20.2 130.16C20.456 128.016 20.584 124.816 20.584 121.264H33.608V134.704H35.976V142.064H31.976L31.912 138H21.448ZM38.3575 138V121.264H45.6535C49.3975 121.264 51.9255 122.48 51.9255 125.392V125.456C51.9255 127.376 50.9015 128.688 48.7255 129.2C51.1575 129.616 52.5975 130.8 52.5975 133.008V133.04C52.5975 136.176 50.3895 138 46.1655 138H38.3575ZM44.5655 124.176H42.9335V127.984H44.7575C46.4215 127.984 47.1895 127.376 47.1895 126V125.968C47.1895 124.56 46.2615 124.176 44.5655 124.176ZM45.3655 130.864H42.9335V135.12H45.1415C46.9655 135.12 47.8935 134.512 47.8935 133.008V132.976C47.8935 131.568 47.0935 130.864 45.3655 130.864ZM63.2838 138.352C58.2278 138.352 54.5478 135.184 54.5478 129.84V129.584C54.5478 124.304 58.2918 120.88 63.1558 120.88C67.4758 120.88 71.3158 123.408 71.3158 129.392V130.672H59.2518C59.3798 133.456 60.8838 135.056 63.4118 135.056C65.5558 135.056 66.6118 134.128 66.8998 132.72H71.2838C70.7398 136.336 67.8598 138.352 63.2838 138.352ZM59.3158 127.824H66.8038C66.6438 125.296 65.3638 124.08 63.1558 124.08C61.0758 124.08 59.6678 125.456 59.3158 127.824ZM82.801 134.736C85.361 134.736 86.769 133.008 86.769 129.744V129.488C86.769 126.096 85.105 124.432 82.769 124.432C80.337 124.432 78.673 126.128 78.673 129.488V129.744C78.673 133.104 80.273 134.736 82.801 134.736ZM74.193 143.696V121.264H78.833V123.888C79.761 122.288 81.713 120.88 84.177 120.88C88.273 120.88 91.473 123.92 91.473 129.456V129.712C91.473 135.248 88.337 138.352 84.177 138.352C81.585 138.352 79.697 137.072 78.833 135.44V143.696H74.193ZM102.12 138.352C97.064 138.352 93.384 135.184 93.384 129.84V129.584C93.384 124.304 97.128 120.88 101.992 120.88C106.312 120.88 110.152 123.408 110.152 129.392V130.672H98.088C98.216 133.456 99.72 135.056 102.248 135.056C104.392 135.056 105.448 134.128 105.736 132.72H110.12C109.576 136.336 106.696 138.352 102.12 138.352ZM98.152 127.824H105.64C105.48 125.296 104.2 124.08 101.992 124.08C99.912 124.08 98.504 125.456 98.152 127.824ZM120.741 118.832C117.829 118.832 116.037 116.976 115.845 114.16H119.173C119.269 115.184 119.685 116.08 120.741 116.08C121.829 116.08 122.341 115.216 122.469 114.16H125.733C125.541 116.976 123.621 118.832 120.741 118.832ZM117.637 138H113.061V121.264H117.637V132.432L124.101 121.264H128.677V138H124.101V126.832L117.637 138ZM139.522 138V121.264H146.818C150.562 121.264 153.09 122.48 153.09 125.392V125.456C153.09 127.376 152.066 128.688 149.89 129.2C152.322 129.616 153.762 130.8 153.762 133.008V133.04C153.762 136.176 151.554 138 147.33 138H139.522ZM145.73 124.176H144.098V127.984H145.922C147.586 127.984 148.354 127.376 148.354 126V125.968C148.354 124.56 147.426 124.176 145.73 124.176ZM146.53 130.864H144.098V135.12H146.306C148.13 135.12 149.058 134.512 149.058 133.008V132.976C149.058 131.568 148.258 130.864 146.53 130.864ZM164.086 138V115.12H171.99C177.558 115.12 180.726 117.584 180.726 122.416V122.544C180.726 127.376 177.366 129.68 172.15 129.68H169.238V138H164.086ZM169.238 126.064H171.862C174.39 126.064 175.734 124.848 175.734 122.576V122.448C175.734 120.016 174.326 119.056 171.862 119.056H169.238V126.064ZM200.918 130.928C200.918 135.408 198.006 138 192.342 138H183.958V115.12H198.87V119.152H189.11L189.078 123.952H192.502C197.782 123.952 200.918 126.224 200.918 130.8V130.928ZM189.078 134.064H192.15C194.678 134.064 195.958 132.976 195.958 130.896V130.768C195.958 128.72 194.678 127.6 192.022 127.6H189.078V134.064ZM204.235 138V115.12H209.419V124.976L217.419 115.088H222.923L213.867 125.936L223.371 138H217.323L209.419 127.728V138H204.235Z" fill="white"/>
<path d="M24.944 39.24C19.952 39.24 18.224 35.736 18.224 31.2V30.792C18.224 24.84 21.224 21.6 25.328 21.6C28.448 21.6 30.512 23.136 30.92 26.136H27.944C27.632 24.84 26.96 24.072 25.304 24.072C23 24.072 21.488 26.112 21.392 30.024C22.184 28.704 23.6 27.816 25.64 27.816C28.928 27.816 31.28 30.072 31.28 33.408C31.28 36.888 28.832 39.24 24.944 39.24ZM24.896 36.888C26.816 36.888 28.112 35.52 28.112 33.48C28.112 31.416 26.864 30.024 24.896 30.024C22.952 30.024 21.584 31.392 21.584 33.288C21.584 35.568 22.952 36.888 24.896 36.888ZM43.8058 37.152C45.5818 37.152 46.9018 36.216 46.9018 34.608V33.36H45.4138C43.2058 33.36 41.7898 33.864 41.7898 35.4C41.7898 36.456 42.3658 37.152 43.8058 37.152ZM43.1098 39.24C40.8058 39.24 38.9098 38.136 38.9098 35.52C38.9098 32.592 41.7418 31.536 45.3418 31.536H46.9018V30.888C46.9018 29.208 46.3258 28.368 44.6218 28.368C43.1098 28.368 42.3658 29.088 42.2218 30.336H39.4138C39.6538 27.408 41.9818 26.184 44.7898 26.184C47.5978 26.184 49.8058 27.336 49.8058 30.768V39H46.9498V37.464C46.1338 38.544 45.0298 39.24 43.1098 39.24ZM53.1343 39V26.448H58.1983C60.8383 26.448 62.7823 27.288 62.7823 29.592V29.64C62.7823 30.96 62.0863 32.04 60.5503 32.4C62.2783 32.736 63.3343 33.6 63.3343 35.232V35.304C63.3343 37.704 61.6543 39 58.6543 39H53.1343ZM57.6943 28.392H56.0383V31.584H57.7903C59.1823 31.584 59.8063 31.08 59.8063 29.928V29.88C59.8063 28.728 59.0623 28.392 57.6943 28.392ZM58.1983 33.528H56.0383V37.056H58.1023C59.5903 37.056 60.3583 36.552 60.3583 35.328V35.28C60.3583 34.08 59.6623 33.528 58.1983 33.528ZM74.3774 28.608H68.9054V39H66.0014V26.448H74.3774V28.608ZM78.3153 43.296L80.5953 37.728L75.6273 26.448H78.7713L82.1073 34.536L85.1793 26.448H88.0113L81.1713 43.296H78.3153ZM95.2162 39.24C91.6162 39.24 88.8802 36.888 88.8802 32.88V32.688C88.8802 28.704 91.7122 26.184 95.2162 26.184C98.0002 26.184 100.616 27.432 100.952 30.888H98.1442C97.9042 29.208 96.8002 28.512 95.2642 28.512C93.2722 28.512 91.8562 30.048 91.8562 32.64V32.832C91.8562 35.568 93.2002 37.008 95.3362 37.008C96.8722 37.008 98.1922 36.096 98.3602 34.32H101.024C100.808 37.2 98.6242 39.24 95.2162 39.24ZM112.909 26.448V28.608H109.069V39H106.165V28.608H102.325V26.448H112.909ZM119.04 37.152C120.816 37.152 122.136 36.216 122.136 34.608V33.36H120.648C118.44 33.36 117.024 33.864 117.024 35.4C117.024 36.456 117.6 37.152 119.04 37.152ZM118.344 39.24C116.04 39.24 114.144 38.136 114.144 35.52C114.144 32.592 116.976 31.536 120.576 31.536H122.136V30.888C122.136 29.208 121.56 28.368 119.856 28.368C118.344 28.368 117.6 29.088 117.456 30.336H114.648C114.888 27.408 117.216 26.184 120.024 26.184C122.832 26.184 125.04 27.336 125.04 30.768V39H122.184V37.464C121.368 38.544 120.264 39.24 118.344 39.24ZM132.719 39V38.424L139.199 31.584C140.831 29.856 141.815 28.344 141.815 26.712C141.815 25.104 140.903 24.096 139.247 24.096C137.543 24.096 136.463 25.08 136.175 27.504H133.247C133.463 23.76 135.719 21.6 139.343 21.6C142.895 21.6 145.007 23.64 145.007 26.664C145.007 28.896 143.687 30.84 141.647 32.808L137.831 36.528H145.127V39H132.719ZM154.541 39.24C150.173 39.24 147.341 36.024 147.341 30.864V30C147.341 24.792 150.221 21.6 154.541 21.6C158.885 21.6 161.717 24.768 161.717 29.928V30.792C161.717 35.952 159.029 39.24 154.541 39.24ZM154.613 36.696C157.253 36.696 158.525 34.68 158.525 30.792V29.952C158.525 26.304 157.133 24.096 154.565 24.096C151.973 24.096 150.557 26.16 150.557 29.976V30.84C150.557 34.728 152.045 36.696 154.613 36.696ZM163.305 39V38.424L169.785 31.584C171.417 29.856 172.401 28.344 172.401 26.712C172.401 25.104 171.489 24.096 169.833 24.096C168.129 24.096 167.049 25.08 166.761 27.504H163.833C164.049 23.76 166.305 21.6 169.929 21.6C173.481 21.6 175.593 23.64 175.593 26.664C175.593 28.896 174.273 30.84 172.233 32.808L168.417 36.528H175.713V39H163.305ZM184.116 39.24C180.036 39.24 177.804 36.984 177.66 33.696H180.564C180.732 35.496 181.74 36.84 184.044 36.84C186.276 36.84 187.308 35.76 187.308 34.056C187.308 32.184 186.3 31.248 184.212 31.248H182.892V28.968H184.116C186.084 28.968 186.972 28.056 186.972 26.448C186.972 25.056 186.084 24.024 184.308 24.024C182.484 24.024 181.308 25.128 181.116 26.856H178.284C178.452 23.88 180.684 21.6 184.356 21.6C187.932 21.6 190.02 23.664 190.02 26.208C190.02 28.152 188.892 29.328 187.236 29.952C189.228 30.408 190.548 31.824 190.548 34.104C190.548 37.272 188.052 39.24 184.116 39.24ZM193.777 41.952L191.977 41.16L194.161 35.472L196.921 36.576L193.777 41.952ZM205.999 39V21.84H210.271L214.783 33.552L219.199 21.84H223.423V39H220.231V26.04L215.119 39H214.087L208.879 26.04V39H205.999ZM232.586 39.24C228.89 39.24 226.154 36.672 226.154 32.856V32.664C226.154 28.776 228.914 26.184 232.61 26.184C236.282 26.184 239.042 28.752 239.042 32.592V32.784C239.042 36.696 236.282 39.24 232.586 39.24ZM232.61 36.984C234.77 36.984 236.066 35.376 236.066 32.808V32.64C236.066 30.048 234.77 28.464 232.61 28.464C230.45 28.464 229.13 30.024 229.13 32.616V32.808C229.13 35.376 230.402 36.984 232.61 36.984ZM247.162 39.24C243.562 39.24 240.826 36.888 240.826 32.88V32.688C240.826 28.704 243.658 26.184 247.162 26.184C249.946 26.184 252.562 27.432 252.898 30.888H250.09C249.85 29.208 248.746 28.512 247.21 28.512C245.218 28.512 243.802 30.048 243.802 32.64V32.832C243.802 35.568 245.146 37.008 247.282 37.008C248.818 37.008 250.138 36.096 250.306 34.32H252.97C252.754 37.2 250.57 39.24 247.162 39.24ZM263.078 39L258.374 32.856V39H255.47V26.448H258.374V32.016L262.862 26.448H266.03L261.158 32.256L266.438 39H263.078ZM268.431 39V26.448H273.495C276.135 26.448 278.079 27.288 278.079 29.592V29.64C278.079 30.96 277.383 32.04 275.847 32.4C277.575 32.736 278.631 33.6 278.631 35.232V35.304C278.631 37.704 276.951 39 273.951 39H268.431ZM272.991 28.392H271.335V31.584H273.087C274.479 31.584 275.103 31.08 275.103 29.928V29.88C275.103 28.728 274.359 28.392 272.991 28.392ZM273.495 33.528H271.335V37.056H273.399C274.887 37.056 275.655 36.552 275.655 35.328V35.28C275.655 34.08 274.959 33.528 273.495 33.528ZM285.4 37.152C287.176 37.152 288.496 36.216 288.496 34.608V33.36H287.008C284.8 33.36 283.384 33.864 283.384 35.4C283.384 36.456 283.96 37.152 285.4 37.152ZM284.704 39.24C282.4 39.24 280.504 38.136 280.504 35.52C280.504 32.592 283.336 31.536 286.936 31.536H288.496V30.888C288.496 29.208 287.92 28.368 286.216 28.368C284.704 28.368 283.96 29.088 283.816 30.336H281.008C281.248 27.408 283.576 26.184 286.384 26.184C289.192 26.184 291.4 27.336 291.4 30.768V39H288.544V37.464C287.728 38.544 286.624 39.24 284.704 39.24Z" fill="#04AB63"/>
</g>
<defs>
<clipPath id="clip0_1_13">
<rect width="600" height="168" fill="white"/>
</clipPath>
</defs>
</svg>
