<svg width="16" height="16" viewBox="0 0 16 16" fill="none" xmlns="http://www.w3.org/2000/svg">
<path fill-rule="evenodd" clip-rule="evenodd" d="M6.62948 15.899L7.7659 15.39C7.91451 15.3235 8.08447 15.3235 8.23308 15.39L9.3695 15.899C9.86373 16.1204 10.4455 15.9645 10.7628 15.5257L11.4925 14.5167C11.5879 14.3847 11.7351 14.2997 11.8971 14.2831L13.1357 14.1557C13.6744 14.1003 14.1003 13.6744 14.1557 13.1357L14.2831 11.8971C14.2997 11.7351 14.3847 11.5879 14.5167 11.4925L15.5257 10.7628C15.9645 10.4455 16.1204 9.86373 15.899 9.3695L15.39 8.23308C15.3235 8.08447 15.3235 7.91451 15.39 7.7659L15.899 6.62948C16.1204 6.13525 15.9645 5.55351 15.5257 5.23618L14.5167 4.50652C14.3847 4.4111 14.2997 4.26391 14.2831 4.10193L14.1557 2.86325C14.1003 2.32456 13.6744 1.8987 13.1357 1.84329L11.8971 1.71589C11.7351 1.69923 11.5879 1.61426 11.4925 1.4823L10.7628 0.473278C10.4455 0.0344568 9.86373 -0.121419 9.3695 0.0999461L8.23308 0.608953C8.08447 0.675518 7.91451 0.675518 7.7659 0.608953L6.62948 0.0999461C6.13525 -0.121419 5.55351 0.0344568 5.23618 0.473278L4.50652 1.4823C4.4111 1.61426 4.26391 1.69923 4.10193 1.71589L2.86325 1.84329C2.32456 1.8987 1.8987 2.32456 1.84329 2.86325L1.71589 4.10193C1.69923 4.26391 1.61426 4.4111 1.4823 4.50652L0.473278 5.23618C0.0344568 5.55351 -0.121419 6.13525 0.0999461 6.62948L0.608953 7.7659C0.675518 7.91451 0.675518 8.08447 0.608953 8.23308L0.0999461 9.3695C-0.121419 9.86373 0.0344568 10.4455 0.473278 10.7628L1.4823 11.4925C1.61426 11.5879 1.69923 11.7351 1.71589 11.8971L1.84329 13.1357C1.8987 13.6744 2.32456 14.1003 2.86325 14.1557L4.10193 14.2831C4.26391 14.2997 4.4111 14.3847 4.50652 14.5167L5.23618 15.5257C5.55351 15.9645 6.13525 16.1204 6.62948 15.899ZM7.20014 11.465L12.7964 5.98934C12.856 5.93118 12.889 5.85252 12.889 5.77106C12.889 5.68889 12.8558 5.61041 12.7964 5.55277L11.7563 4.5351C11.6334 4.41422 11.4338 4.41422 11.3108 4.5351L6.97722 8.77501L5.13389 6.97145C5.01106 6.85109 4.81124 6.85109 4.68805 6.97145L3.64795 7.98912C3.52476 8.11 3.52476 8.30533 3.64795 8.42569L6.7543 11.465C6.81572 11.5251 6.89629 11.5556 6.9774 11.5556C7.05797 11.5556 7.13855 11.5251 7.20014 11.465Z" fill="#00AA70"/>
</svg>
