<svg xmlns="http://www.w3.org/2000/svg" width="24" height="24" fill="none"><path fill="#fff" d="M11.02 15.27a6.22 6.22 0 0 1-3.32-1.18c-.12-.1-.24-.19-.35-.3-.42-.4-.46-.85-.13-1.33.28-.4.76-.51 1.26-.28.1.04.18.1.27.16a5.44 5.44 0 0 0 6.03.06c.17-.14.36-.25.58-.3a.92.92 0 0 1 1.06.41c.26.43.26.85-.06 1.18-.5.5-1.1.88-1.76 1.13-.62.24-1.3.37-1.99.45l.22.23 2.76 2.77c.31.32.38.71.2 1.08-.18.4-.6.67-1.02.64a1 1 0 0 1-.64-.33c-.7-.7-1.4-1.39-2.09-2.1-.2-.2-.3-.17-.47.01-.7.72-1.4 1.43-2.12 2.14-.32.31-.7.37-1.08.19-.4-.2-.64-.6-.63-1a1 1 0 0 1 .34-.68l2.73-2.73.2-.22Z"/><path fill="#fff" d="M11.77 12.1a4.05 4.05 0 1 1 .08-8.1 4.05 4.05 0 0 1-.08 8.1Zm2.01-4.05c0-1.1-.88-1.98-1.98-1.98s-1.99.89-1.98 2c0 1.1.9 1.97 2 1.96 1.1 0 1.97-.88 1.96-1.98Z"/></svg>
