<?xml version="1.0" encoding="UTF-8"?>
<svg width="60px" height="60px" viewBox="0 0 60 60" version="1.1" xmlns="http://www.w3.org/2000/svg" xmlns:xlink="http://www.w3.org/1999/xlink">
    <!-- Generator: Sketch 52.5 (67469) - http://www.bohemiancoding.com/sketch -->
    <title>Fill 11</title>
    <desc>Created with Sketch.</desc>
    <g id="work" stroke="none" stroke-width="1" fill="none" fill-rule="evenodd">
        <g id="1280_Главная_рассылка" transform="translate(-1102.000000, -3411.000000)" fill="#11BB88">
            <g id="Group-11" transform="translate(1003.000000, 3411.000000)">
                <g id="Fill-11" transform="translate(99.000000, 0.000000)">
                    <path d="M42.6887385,21.8257231 L24.2272,39.0564923 C23.9908923,39.2755692 23.6881231,39.3863385 23.3878154,39.3863385 C23.0727385,39.3863385 22.7576615,39.2657231 22.5188923,39.0269538 L16.3650462,32.8731077 C15.8825846,32.3906462 15.8825846,31.6128 16.3650462,31.1328 C16.8450462,30.6503385 17.6228923,30.6503385 18.1053538,31.1328 L23.4173538,36.4448 L41.0099692,20.0263385 C41.5047385,19.5635692 42.2850462,19.5881846 42.7478154,20.0829538 C43.2130462,20.5826462 43.1859692,21.3604923 42.6887385,21.8257231 M29.5416615,0.00172307692 C13.2536615,0.00172307692 0.0032,13.2546462 0.0032,29.5401846 C0.0032,45.8257231 13.2536615,59.0786462 29.5416615,59.0786462 C45.8272,59.0786462 59.0801231,45.8257231 59.0801231,29.5401846 C59.0801231,13.2546462 45.8272,0.00172307692 29.5416615,0.00172307692"></path>
                </g>
            </g>
        </g>
    </g>
</svg>