<svg width="259" height="70" viewBox="0 0 259 70" fill="none" xmlns="http://www.w3.org/2000/svg">
<path fill-rule="evenodd" clip-rule="evenodd" d="M0 24.8242H14.5009C25.047 24.8242 31.0955 29.9077 31.0955 38.9016V39.1362C31.0955 47.9737 25.1245 52.979 14.656 52.979H8.91766V69.7936H0V24.8242ZM14.5009 46.2531C19.6189 46.2531 22.3329 43.7505 22.3329 39.1362V38.9016C22.3329 34.2091 19.8515 32.0193 14.5009 32.0193H8.99521V46.2531H14.5009Z" fill="black"/>
<path fill-rule="evenodd" clip-rule="evenodd" d="M45.5964 42.4992H52.8856C63.1215 42.4992 68.7823 47.2698 68.7823 55.8727V56.1073C68.7823 64.7883 62.8889 69.7936 52.7305 69.7936H36.6787V24.8242H64.9826V32.0975H45.5964V42.4992ZM52.1101 49.225H45.5188V62.6767H52.4203C57.5383 62.6767 60.0973 60.4087 60.0973 56.0291V55.7945C60.0973 51.3366 57.5383 49.225 52.1101 49.225Z" fill="black"/>
<path d="M90.8057 46.3235L109.261 24.8164H99.4132L83.2063 44.1337V24.8946H74.3662V69.864H83.2839V49.9211L99.4908 69.7858H110.114L90.8057 46.3235Z" fill="black"/>
<g clip-path="url(#clip0)">
<path d="M142.263 23.2634L119.03 45.7508H119C119 44.0175 119.098 42.3155 119.49 40.6988C119.538 40.4905 119.708 40.3113 119.756 40.1113L136.359 24.2303C136.542 24.1844 136.607 23.9282 136.794 23.8886C138.287 23.5474 139.809 23.3416 141.342 23.274C141.626 23.2364 141.876 23.263 142.263 23.2634Z" fill="#222222"/>
<path d="M150.793 25.2219L129.521 46.5271H124.428L146.879 24.0391C148.216 24.3141 149.527 24.71 150.793 25.2219Z" fill="#222222"/>
<path d="M157.772 29.2656L139.763 46.5269H134.509L154.736 27.1406C155.805 27.7713 156.82 28.4818 157.772 29.2656Z" fill="#222222"/>
<path d="M162.425 34.6633L149.714 46.5265H145.485H144.59L160.232 31.793C161.041 32.6936 161.775 33.6534 162.425 34.6633Z" fill="#222222"/>
<path d="M165.527 41.6355L160.306 46.5223H156.292L155.446 46.5237L164.341 37.7227C164.857 38.9884 165.254 40.2982 165.527 41.6355Z" fill="#222222"/>
<path d="M142.263 0H119V23.321V46.5269C119 40.1137 121.716 34.4219 125.929 30.2276C128.951 27.1798 132.751 25.016 136.918 23.9708C138.663 23.5392 140.466 23.2649 142.263 23.2635V0Z" fill="black"/>
<path d="M165.527 0H142.264V23.2635H165.527V0Z" fill="#FFCC66"/>
<path d="M142.264 69.7908C145.319 69.7908 148.344 69.1891 151.167 68.0199C153.989 66.8508 156.554 65.1372 158.714 62.977C160.874 60.8167 162.588 58.2522 163.757 55.4297C164.926 52.6073 165.527 49.5822 165.527 46.5273H142.266L142.264 69.7908Z" fill="#FFCC66"/>
<path d="M235.781 64.3633L236.092 64.8732V69.286L235.781 69.7913C234.063 69.7974 232.348 69.6342 230.664 69.3042L235.781 64.3633Z" fill="#222222"/>
<path d="M235.317 53.5078V54.6722V58.9242L226.346 68.2413C225.156 67.7585 224.006 67.1779 222.91 66.5054L235.317 53.5078Z" fill="#222222"/>
<path d="M235.811 45.2721L236.092 45.6308V47.4583L235.811 47.9366L220.046 64.3628C219.124 63.5431 218.266 62.6476 217.481 61.6848L233.233 45.2721L233.679 44.9766H235.486L235.811 45.2721Z" fill="#222222"/>
<path d="M227.563 46.0287L215.345 58.1611C214.669 57.0626 214.087 55.91 213.604 54.7153L222.349 46.0396L222.968 45.7539H226.96L227.563 46.0287Z" fill="#222222"/>
<path d="M216.706 46.0651L212.484 51.182C212.197 49.4986 212.052 47.784 212.054 46.0651L212.352 45.7539H216.29L216.706 46.0651Z" fill="#222222"/>
<path d="M239.97 23.762L234.851 28.6938L234.542 28.0853V23.6088L234.855 23.2656C236.573 23.2638 238.287 23.4301 239.97 23.762Z" fill="#FFCC66"/>
<path d="M246.949 26.5584L234.825 38.7745L234.542 38.0276V33.9658L234.83 33.5594L243.507 24.8164L246.949 26.5584Z" fill="#FFCC66"/>
<path d="M237.821 46.5306L253.153 31.3213C252.345 30.3786 251.464 29.5005 250.517 28.6953L235.317 43.7501V46.5306H237.821Z" fill="#FFCC66"/>
<path d="M257.03 37.7817L248.287 47.0002L247.735 47.3037H243.494L243.072 47.0002L255.286 34.1211C255.964 35.2872 256.548 36.5118 257.03 37.7817Z" fill="#FFCC66"/>
<path d="M258.58 46.5277L258.212 47.3031H253.736L253.152 46.9921L258.082 41.875C258.414 43.5588 258.581 44.8089 258.58 46.5277Z" fill="#FFCC66"/>
<path d="M193.444 23.7327L188.791 28.6938V23.2656C190.264 23.2639 192.001 23.4204 193.444 23.7327Z" fill="black"/>
<path d="M201.198 26.5353L188.791 38.7745V33.8442L197.756 24.8164C197.756 24.8164 198.872 25.2041 199.647 25.5919C200.423 25.9796 201.198 26.5353 201.198 26.5353Z" fill="black"/>
<path d="M206.626 31.2593L191.223 46.5306H189.422H188.791V45.8151V43.9753L189.074 43.6921L204.076 28.6953C204.992 29.4815 205.845 30.3388 206.626 31.2593Z" fill="black"/>
<path d="M210.504 37.5663L201.343 46.5283H197.163H196.546L208.784 34.1211C209.453 35.2186 210.028 36.3711 210.504 37.5663Z" fill="black"/>
<path d="M212.054 46.527H211.708H207.499L206.626 46.5277L211.585 41.875C211.898 43.318 212.055 45.054 212.054 46.527Z" fill="black"/>
<path d="M235.317 23.2617C229.15 23.2611 223.235 25.7114 218.873 30.0737C214.511 34.4361 212.058 40.3536 212.054 46.5252H235.317V23.2617Z" fill="#FFCC66"/>
<path d="M235.317 69.7908C241.484 69.7914 247.399 67.3412 251.762 62.9788C256.124 58.6164 258.577 52.699 258.581 46.5273H235.326V69.7908H235.317Z" fill="black"/>
<path d="M184.138 69.2928L188.79 64.3633C188.79 64.3633 188.79 69.016 188.788 69.7914C187.239 69.7914 185.689 69.7139 184.138 69.2928Z" fill="#222222"/>
<path d="M188.79 54.2852V59.4577L180.122 68.1296C178.929 67.6513 177.779 67.0733 176.684 66.4017L188.79 54.2852Z" fill="#222222"/>
<path d="M181.036 46.5273L168.821 58.9345C168.144 57.8112 167.561 56.6321 167.078 55.4097L175.825 46.5273H181.036Z" fill="#222222"/>
<path d="M170.955 46.5273L166.024 51.18C165.692 49.649 165.526 48.0901 165.527 46.5273H170.955Z" fill="#222222"/>
<path d="M188.79 46.5273V49.1261L173.561 64.3627C172.625 63.5643 171.754 62.6931 170.955 61.7573L186.175 46.5273H188.79Z" fill="#222222"/>
<path d="M188.791 23.2617C182.624 23.2617 176.709 25.7122 172.346 30.0745C167.984 34.4368 165.531 40.3539 165.527 46.5252H188.791V23.2617Z" fill="#FFCC66"/>
<path d="M188.79 69.7908C194.957 69.7914 200.872 67.3412 205.234 62.9788C209.597 58.6164 212.049 52.699 212.054 46.5273H188.79V69.7908Z" fill="#FFCC66"/>
</g>
<defs>
<clipPath id="clip0">
<rect width="139.581" height="69.7904" fill="white" transform="translate(119)"/>
</clipPath>
</defs>
</svg>
