<svg version="1.1" id="Calque_1" xmlns="http://www.w3.org/2000/svg" x="0" y="0" viewBox="0 0 1000 300" style="enable-background:new 0 0 1000 300" xml:space="preserve"><style>.st0{fill:#eebb7d}</style><path class="st0" d="M193.2 129.3c-.3 1.6-1.3 3.3-2.7 4.8l-36.2 36.2c-1.3 1.3-2.4 2.7-3.1 4.5-.8 2.2.1 4.2.5 6.2 2.8 15.6 5.7 31.2 8.5 46.9.4 2.1.2 4.4 0 6.5-.2 2-1.7 3-3.6 2.7-2.8-.4-5.4-1.2-7.9-2.5-14.3-7.3-28.7-14.6-42.6-22.7-3-1.7-6.1-1.8-9.1-.2-8.1 4.2-16.2 8.4-24.2 12.7-7.5 4.1-15.1 8.1-22.3 12.7-2.3 1.5-5.3.5-6.3-2.2-.7-1.9-.6-4-.3-5.9 1.2-7.6 2.6-15.3 3.7-22.9 1.3-9.3 3.2-18.4 4.8-27.6.5-3-.4-5.7-2.6-8-11.5-11.7-23.8-22.7-35.4-34.2-1.8-1.8-3.2-3.6-3.6-6.2-.1-.9.1-1.4.7-2 2.7-2.3 5.8-3.5 9.3-3.9 9.8-1.3 19.6-2.8 29.4-4.3 5.9-.9 11.8-1.6 17.7-2.5 2.5-.4 4.5-1.6 5.6-4 4.1-8.5 8.2-17.1 12.4-25.6 3.5-7.2 7-14.4 10.5-21.5.4-.7.8-1.5 1.3-2.1 2.3-3 4.6-3.1 7.4-.6 1.3 1.1 2.2 2.4 3 4 7.4 14.7 14.6 29.5 21.6 44.4 1.7 3.7 5.1 5.3 9 5.8 10.5 1.5 21 3.1 31.6 4.7 6.3.9 12.7 1.8 19 2.7 2.5.3 3.9 1.7 3.9 4.1zM242.7 231.5c.4-4.1 1.1-8.4 1.8-12.6 1.2-6.7 2.3-13.5 3.3-20.3.9-6.3 2.3-12.6 3.5-18.9.7-3.7 0-6.9-2.8-9.7-11.9-11.8-24.3-23.1-36.2-34.9l-1.1-1.1c-2-2.4-1.5-3.8.8-5.8 2.9-2.5 6.4-2.5 9.8-3 8.1-1.3 16.3-2.4 24.5-3.6 7.2-1 14.3-2 21.5-3.1 2.4-.3 3.9-1.8 4.9-3.9 6.5-13.6 13.1-27.2 19.7-40.7 1.1-2.3 2.2-4.5 3.4-6.7.4-.7.8-1.5 1.4-2.1 2-2 4-3.2 6.6-.7 1.3 1.2 2.5 2.5 3.3 4.1 7.4 14.8 14.7 29.6 21.7 44.6 1.9 4.1 5.6 5.5 9.9 6.1 8.1 1.1 16.2 2.3 24.3 3.5 7.2 1.1 14.3 2.1 21.5 3.2 1.5.2 3.1.4 4.6.7 2.8.6 3.9 2.8 2.8 5.4-.6 1.5-1.6 2.8-2.7 4-10.3 10.3-20.6 20.6-31 30.9-2.1 2.1-4.3 4.1-6.2 6.3-1.6 1.9-2.1 4-1.7 6.4 1.9 10.2 3.8 20.4 5.6 30.6 1.2 6.5 2.4 12.9 3.5 19.4.4 2.2.3 4.4-.1 6.7-.2 1.2-1 1.9-2.2 2-2.2.1-4.4 0-6.4-1-15.3-7.6-30.6-15.4-45.5-24.1-3-1.8-6.1-1.8-9.2-.2-7.8 4.1-15.7 8.1-23.4 12.3-7 3.8-13.9 7.7-20.8 11.6-2.3 1.3-4.5 1.2-6.7.2s-2.3-3.2-2.4-5.6zM642.2 231.5c.5-5.6 1.5-11.2 2.5-16.7 1.5-7.9 2.3-15.9 3.9-23.7.8-3.9 1.4-7.8 2.2-11.7.6-3.5-.1-6.4-2.6-9-12.2-12.4-25.2-23.9-37.4-36.2-1.1-1.1-1.9-2.3-2.5-3.7-.5-1.2-.1-1.8.8-2.7 3.3-3.1 7.4-3.3 11.4-3.9 7.3-1.1 14.5-2.1 21.8-3.2 7.5-1.1 15-2.2 22.5-3.2 2.7-.4 4.7-1.5 5.9-4 5.2-10.9 10.5-21.7 15.7-32.6 2.4-4.9 4.7-9.7 7.1-14.6.4-.8.8-1.6 1.4-2.3 2.2-2.3 4.2-3.4 7.1-.6 1.4 1.3 2.5 2.8 3.4 4.5 7.2 14.5 14.3 29 21.2 43.7 1.8 3.8 5.1 5.6 9.2 6.1 9.7 1.4 19.4 2.9 29.1 4.3 7.1 1 14.2 2.1 21.3 3.1 3.6.5 4.9 2.8 3.3 6.1-.7 1.4-1.6 2.5-2.7 3.6-11.9 11.9-23.7 23.8-35.6 35.5-2.8 2.7-3.6 5.6-2.9 9.5 1.8 9.7 3.5 19.4 5.4 29.1 1.1 6 2.2 11.9 3.2 17.9.5 2.7.3 5.4.1 8-.1 1.5-1.7 2.4-3.4 2.2-2.7-.4-5.2-1.1-7.6-2.3-14.5-7.4-29.1-14.7-43.2-23-2.7-1.6-5.7-1.7-8.5-.3-15.2 7.7-30.3 15.8-45.1 24.4-.2.1-.6.3-.7.5-.2 1-.6 1.6-1.8 1.5-1.4-.2-2.8-.4-3.7-1.6-.7-1.4-.8-3-.8-4.7z"/><path d="M841.2 231.8c.4-4.3 1.1-8.5 1.8-12.7 1.2-6.7 2.3-13.5 3.3-20.3.9-6.3 2.3-12.6 3.5-18.9.7-3.8 0-7.2-2.9-10.1-12.1-12-24.8-23.5-36.9-35.6-1.2-1.2-2.1-2.6-2.7-4.2-.3-.9-.1-1.3.6-2 3.3-3.2 7.6-3.6 11.8-4.2 7.3-1 14.7-2.1 22-3.2 7.5-1.1 15-2.1 22.5-3.2 2.6-.4 4.6-1.5 5.8-4 5.1-10.7 10.3-21.3 15.4-32l7.5-15.3c.3-.7.7-1.4 1.2-2 2.5-2.8 4.4-3.4 7.4-.6 1.2 1.1 2.2 2.3 2.9 3.8 7.2 14.4 14.4 28.9 21.1 43.6 1.9 4.2 5.3 6.3 9.7 6.9 10.4 1.5 20.7 3.1 31.1 4.6 6.4.9 12.9 1.9 19.4 2.8 3.2.4 4.7 2.8 3.3 5.8-.6 1.3-1.5 2.5-2.5 3.5-12.1 12-24.1 24.1-36.2 36.2-2 2-3.6 4.2-3 7.1.8 3.8 1.3 7.7 2 11.5 2.4 13 4.8 26.1 7.2 39.1.4 2.1.3 4.2-.1 6.3-.4 1.9-1.6 2.7-3.5 2.4-2.7-.4-5.3-1.2-7.7-2.4-14.2-7.2-28.4-14.4-42.1-22.4-3.7-2.2-7.1-2-10.9.1-6.4 3.6-13 6.7-19.4 10.2-7.9 4.2-15.8 8.6-23.6 13.1-.6.3-1.3.6-1.3 1.6 0 .6-.5.6-1 .7-2.7.3-4.7-1-5.4-3.7-.2-.9-.4-1.6-.3-2.5z" style="fill:#d7d7d7"/><path class="st0" d="M443 232c.4-4.1 1-8.2 1.7-12.2 1.4-7.5 2.5-15.1 3.7-22.6.9-5.8 2.2-11.6 3.2-17.4.7-3.8 0-7.1-2.9-9.9-12.1-12-24.6-23.4-36.7-35.3-1.1-1.1-2-2.4-2.7-3.8-.7-1.4-.2-2.1.8-3.1 3.2-3 7.3-3.2 11.3-3.8 8.2-1.2 16.3-2.4 24.5-3.6 6.7-1 13.3-1.9 20-2.8 2.7-.4 4.7-1.6 5.9-4.1 7.6-15.7 15.2-31.5 22.9-47.2.8-1.6 1.8-3 3.4-3.9 1.4-.8 2.7-.8 4 .3 1.9 1.5 3.3 3.2 4.4 5.3 7.2 14.5 14.4 29.1 21.3 43.8 1.8 3.9 5.3 5.5 9.4 6.1 8.8 1.2 17.6 2.6 26.5 3.9 7.9 1.2 15.8 2.3 23.7 3.4 3.5.5 4.9 2.8 3.4 6.1-.6 1.2-1.4 2.3-2.4 3.2l-35.8 35.8c-2.7 2.7-3.7 5.6-3 9.6 2.8 16.2 6.2 32.3 8.8 48.5.3 2 .2 4 0 6s-1.6 3.1-3.6 2.8c-2.7-.4-5.3-1.1-7.7-2.4-14.2-7.2-28.4-14.4-42.1-22.4-3.7-2.2-7.2-2-10.9.1-6.7 3.7-13.5 6.9-20.2 10.6-7.7 4.2-15.3 8.5-23 12.8-.4.2-.8.4-1.1.7-2.1 2-4.8 1.5-6-1.3-.6-1.1-.7-2.2-.8-3.2z"/></svg>