<svg width="48" height="32" viewBox="0 0 48 32" fill="none" xmlns="http://www.w3.org/2000/svg">
<rect y="-0.00012207" width="48" height="32" rx="4" fill="white"/>
<path d="M8.88 17.8999V26.0599H17.14L18 24.8399L18.84 26.0599H23.89V24.2199H24.45C24.9584 24.2244 25.4643 24.1502 25.95 23.9999V26.0599H29.38V24.5999L30.54 26.0599H46.16C46.802 26.0711 47.4338 25.8976 47.98 25.5599V28.9999C47.5224 30.7722 45.9203 32.0077 44.09 31.9999H4C1.79086 31.9999 0 30.2091 0 27.9999V15.3999H2.28L2.75 14.1799H3.87L4.33 15.3999H22.67V13.9399L23.83 15.3999H28.64V14.6599C29.3453 15.162 30.1945 15.4217 31.06 15.3999H33.93L34.39 14.1799H35.51L36 15.3999H40.9V13.8199L41.9 15.3999H45.28V7.23993H41.69V8.89993L40.62 7.23993H37.48V9.33993L36.48 7.23993H31.14C30.2366 7.21375 29.3524 7.50377 28.64 8.05993V7.23993H11L10.4 8.99993L9.8 7.19993H5.8V9.29993L4.86 7.19993H1.6L0 10.9999V3.99993C0 1.79079 1.79086 -7.13946e-05 4 -7.13946e-05H44.09C45.9278 -0.0170588 47.5406 1.22043 48 2.99993V17.8999H18.86L18 19.0999L17.16 17.8999H8.88Z" fill="#296DB6"/>
<path fill-rule="evenodd" clip-rule="evenodd" d="M21.3202 19.1999H24.4302V19.1599C24.9481 19.1164 25.4597 19.2976 25.8347 19.6573C26.2098 20.0171 26.4121 20.5207 26.3902 21.0399C26.403 21.5654 26.1929 22.0717 25.8118 22.4337C25.4307 22.7958 24.9143 22.9797 24.3902 22.9399H22.6902V24.7999H21.3202V19.1999ZM14.7102 20.3599V19.1599H10.1802V24.7999H14.7102V23.5999H11.5402V22.5999H14.6502V21.3799H11.5402V20.3799L14.7102 20.3599ZM18.8002 21.9999L21.0602 19.1999H19.4002L18.0002 20.9399L16.6102 19.1599H14.9102L17.2002 21.9999L15.0002 24.7999H16.6402L18.0002 22.9999L19.3602 24.8199H21.0802L18.8002 21.9999ZM24.3102 21.7799H22.6902V20.3599H24.3102C24.6913 20.3599 25.0002 20.6689 25.0002 21.0499C25.0002 21.431 24.6913 21.7399 24.3102 21.7399V21.7799ZM32.1702 20.7899C32.2862 21.773 31.5832 22.664 30.6002 22.7799L32.4902 24.7999H30.7802L29.1002 22.7999H28.4802V24.7999H27.1202V19.2199H30.1802C31.1632 19.104 32.0542 19.8069 32.1702 20.7899ZM30.0602 21.6599H28.4802V20.3599H30.0602C30.238 20.3368 30.4171 20.3917 30.5513 20.5106C30.6855 20.6295 30.7617 20.8006 30.7602 20.9799C30.7651 21.1603 30.6899 21.3336 30.5549 21.4533C30.4198 21.5729 30.2386 21.6266 30.0602 21.5999V21.6599ZM37.3602 19.2199V20.4199L34.1902 20.3799V21.3799H37.2802V22.5999H34.1902V23.5999H37.3602V24.7999H32.8102V19.2199H37.3602ZM41.1302 21.4199H39.8202C39.6177 21.4606 39.4107 21.3752 39.2958 21.2036C39.181 21.0319 39.181 20.8079 39.2958 20.6363C39.4107 20.4647 39.6177 20.3792 39.8202 20.4199H42.2502L42.7902 19.2199H39.8602C39.3616 19.1622 38.8625 19.3225 38.4908 19.6597C38.1191 19.9969 37.9111 20.4782 37.9202 20.9799C37.8898 21.4468 38.0692 21.903 38.4096 22.224C38.75 22.545 39.2158 22.6975 39.6802 22.6399H41.0002C41.2027 22.5992 41.4097 22.6847 41.5245 22.8563C41.6394 23.0279 41.6394 23.2519 41.5245 23.4236C41.4097 23.5952 41.2027 23.6806 41.0002 23.6399H38.0802V24.8399H41.0002C41.5041 24.8811 42.0012 24.7024 42.3635 24.3497C42.7258 23.997 42.9179 23.5048 42.8902 22.9999C42.9154 22.5377 42.7328 22.0884 42.3922 21.7749C42.0516 21.4614 41.5887 21.3165 41.1302 21.3799V21.4199ZM47.4602 20.4199H45.0302L45.0002 20.3799C44.7977 20.3392 44.5907 20.4247 44.4758 20.5963C44.361 20.7679 44.361 20.9919 44.4758 21.1636C44.5907 21.3352 44.7977 21.4206 45.0002 21.3799H46.3602C47.0519 21.3088 47.7119 21.6871 48.0002 22.3199V23.6599C47.7248 24.4223 46.9668 24.9002 46.1602 24.8199H43.2902V23.6199H46.1802C46.3827 23.6606 46.5897 23.5752 46.7045 23.4036C46.8194 23.2319 46.8194 23.0079 46.7045 22.8363C46.5897 22.6647 46.3827 22.5792 46.1802 22.6199H44.8902C44.4258 22.6775 43.96 22.525 43.6196 22.204C43.2792 21.883 43.0998 21.4268 43.1302 20.9599C43.1211 20.4582 43.3291 19.9769 43.7008 19.6397C44.0725 19.3025 44.5716 19.1422 45.0702 19.1999H48.0002L47.4602 20.4199Z" fill="#296DB6"/>
<path fill-rule="evenodd" clip-rule="evenodd" d="M25.45 10.2799C25.4719 11.1814 24.8053 11.952 23.91 12.0599L25.79 14.1399H24.09L22.41 12.1399H21.79V14.1399H20.4V8.4999H23.45C23.9596 8.43307 24.473 8.59102 24.8569 8.93269C25.2408 9.27436 25.4573 9.76603 25.45 10.2799ZM4.23 8.4999H2.45L0 14.1399H1.48L2 12.9999H4.63L5.11 14.1799H6.65L4.23 8.4999ZM2.38 11.8599L2.93 10.5399L3.29 9.6599L3.65 10.5399L4.19 11.8599H2.38ZM10.6 11.7599L11.7 8.4999H13.89V14.1399H12.57V10.4399V9.5799L12.31 10.4399L11 14.1399H9.8L8.52 10.4399L8.24 9.5799V10.4399V14.1399H6.91V8.4999H9.12L10.24 11.7599L10.42 12.3799L10.6 11.7599ZM19.5 9.6999V8.4999H15V14.1399H19.5V12.9399H16.33V11.9399H19.42V10.7199H16.33V9.7199L19.5 9.6999ZM23.37 10.9399H21.79V9.6999H23.37C23.5471 9.68009 23.7243 9.73623 23.8577 9.85439C23.9912 9.97255 24.0683 10.1417 24.07 10.3199C24.0749 10.5003 23.9998 10.6736 23.8647 10.7933C23.7296 10.9129 23.5485 10.9666 23.37 10.9399ZM26.11 14.1399V8.4999H27.48V14.1399H26.11ZM31.11 9.7199H32.58V8.4999H31C30.2562 8.45289 29.5291 8.73361 29.0099 9.26822C28.4907 9.80283 28.2313 10.5378 28.3 11.2799V11.3599C28.2164 12.0914 28.4596 12.8225 28.9645 13.3583C29.4694 13.894 30.1849 14.18 30.92 14.1399H31L31.55 12.9399H31.1C30.685 12.9612 30.2819 12.7971 29.9999 12.4919C29.7179 12.1867 29.586 11.7719 29.64 11.3599V11.2799C29.5925 10.8711 29.7272 10.462 30.0085 10.1615C30.2897 9.86104 30.6889 9.69951 31.1 9.7199H31.11ZM34.09 8.4999H35.89L38.3 14.1799H36.76L36.28 12.9999H33.61L33.13 14.1399H31.67L34.09 8.4999ZM34.05 11.8599L34.57 10.5399L34.93 9.6599L35.27 10.5399L35.81 11.8599H34.05ZM42.61 11.4999V8.4999H44V14.1399H42.35L40.26 10.9599L39.9 10.3399V10.9999V14.1799H38.56V8.5399H40.23L42.23 11.5399L42.61 12.1799V11.4999Z" fill="#296DB6"/>
</svg>
