<svg xmlns="http://www.w3.org/2000/svg" viewBox="0 0 73.54 71.47"><defs><style>.cls-1{fill:#efefef;}.cls-2{fill:#ccc;}.cls-3{fill:#4d4d4d;}.cls-4{fill:#f44c81;}.cls-5{fill:#aaa;}.cls-6{fill:#fff;}.cls-7{fill:#f79;}.cls-8{fill:#e0e0e0;}.cls-9{fill:#ef608f;}.cls-10{fill:#e0447c;}</style></defs><title>Delivery box</title><g id="Layer_2" data-name="Layer 2"><g id="Layer_1-2" data-name="Layer 1"><path class="cls-1" d="M53.17.13c8.79-1.34,18.21,7.59,20,17.54S69.26,38.55,63,47.24,50.14,62.36,41.43,66.73,22,73.4,14.73,69.42,3.8,55.17,1.64,45.56-1.14,27,3.52,23.66s14.6-1.14,23.64-5.85S44.38,1.48,53.17.13Z"/><polygon class="cls-2" points="51.49 10.51 18.74 10.51 10.12 24.3 10.12 60.51 60.12 60.51 60.12 24.3 51.49 10.51"/><path class="cls-3" d="M60.12,60.75h-50a.25.25,0,0,1-.25-.25V24.3a.28.28,0,0,1,0-.13l8.62-13.8a.27.27,0,0,1,.22-.12H51.49a.27.27,0,0,1,.22.12l8.62,13.8a.28.28,0,0,1,0,.13V60.5A.25.25,0,0,1,60.12,60.75Zm-49.75-.5h49.5V24.37L51.36,10.75H18.87l-8.5,13.62Z"/><polygon class="cls-4" points="38.56 57.06 35.12 53.61 31.67 57.06 29.94 55.33 29.94 60.51 40.29 60.51 40.29 55.33 38.56 57.06"/><path class="cls-3" d="M40.29,60.75H29.94a.25.25,0,0,1-.25-.25V55.33a.25.25,0,0,1,.16-.23.23.23,0,0,1,.27.06l1.55,1.54,3.27-3.27a.24.24,0,0,1,.35,0l3.27,3.27,1.55-1.54a.23.23,0,0,1,.27-.06.25.25,0,0,1,.16.23V60.5A.25.25,0,0,1,40.29,60.75Zm-10.1-.5H40V55.94l-1.3,1.29a.24.24,0,0,1-.35,0L35.12,54l-3.28,3.27a.24.24,0,0,1-.35,0l-1.3-1.29Z"/><polygon class="cls-4" points="31.67 28.61 35.12 32.06 38.56 28.61 40.29 30.33 40.29 24.3 29.94 24.3 29.94 30.33 31.67 28.61"/><path class="cls-3" d="M35.12,32.31a.25.25,0,0,1-.18-.08L31.67,29l-1.55,1.55a.26.26,0,0,1-.43-.18v-6a.25.25,0,0,1,.25-.25H40.29a.25.25,0,0,1,.25.25v6a.26.26,0,0,1-.43.18L38.56,29l-3.27,3.27A.25.25,0,0,1,35.12,32.31Zm-3.45-4a.22.22,0,0,1,.17.07l3.28,3.27,3.27-3.27a.26.26,0,0,1,.35,0l1.3,1.3V24.55H30.19v5.18l1.3-1.3A.24.24,0,0,1,31.67,28.36Z"/><polygon class="cls-5" points="20.46 10.51 18.74 10.51 10.12 24.3 10.12 60.51 11.84 60.51 11.84 24.3 20.46 10.51"/><polygon class="cls-6" points="18.74 10.51 10.12 24.3 60.12 24.3 51.49 10.51 18.74 10.51"/><path class="cls-3" d="M60.12,24.55h-50a.24.24,0,0,1-.22-.13.25.25,0,0,1,0-.25l8.62-13.8a.27.27,0,0,1,.22-.12H51.49a.27.27,0,0,1,.22.12l8.62,13.8a.23.23,0,0,1,0,.25A.23.23,0,0,1,60.12,24.55Zm-49.55-.5H59.66l-8.3-13.3H18.87Z"/><rect class="cls-7" x="29.94" y="10.5" width="10.34" height="13.79"/><path class="cls-3" d="M40.29,24.55H29.94a.25.25,0,0,1-.25-.25V10.5a.26.26,0,0,1,.25-.25H40.29a.25.25,0,0,1,.25.25V24.3A.25.25,0,0,1,40.29,24.55Zm-10.1-.5H40V10.75H30.19Z"/><path class="cls-3" d="M60.12,60.75h-50a.25.25,0,0,1-.25-.25V24.3a.28.28,0,0,1,0-.13l8.62-13.8a.27.27,0,0,1,.22-.12H51.49a.27.27,0,0,1,.22.12l8.62,13.8a.28.28,0,0,1,0,.13V60.5A.25.25,0,0,1,60.12,60.75Zm-49.75-.5h49.5V24.37L51.36,10.75H18.87l-8.5,13.62Z"/><polygon class="cls-8" points="18.74 10.51 10.12 24.3 11.84 24.3 20.46 10.51 18.74 10.51"/><path class="cls-3" d="M60.12,24.55h-50a.24.24,0,0,1-.22-.13.25.25,0,0,1,0-.25l8.62-13.8a.27.27,0,0,1,.22-.12H51.49a.27.27,0,0,1,.22.12l8.62,13.8a.23.23,0,0,1,0,.25A.23.23,0,0,1,60.12,24.55Zm-49.55-.5H59.66l-8.3-13.3H18.87Z"/><rect class="cls-9" x="29.94" y="10.5" width="1.72" height="13.79"/><path class="cls-3" d="M40.29,24.55H29.94a.25.25,0,0,1-.25-.25V10.5a.26.26,0,0,1,.25-.25H40.29a.25.25,0,0,1,.25.25V24.3A.25.25,0,0,1,40.29,24.55Zm-10.1-.5H40V10.75H30.19Z"/><polygon class="cls-10" points="31.67 24.3 29.94 24.3 29.94 30.33 31.67 28.61 31.67 24.3"/><path class="cls-3" d="M35.12,32.31a.25.25,0,0,1-.18-.08L31.67,29l-1.55,1.55a.26.26,0,0,1-.43-.18v-6a.25.25,0,0,1,.25-.25H40.29a.25.25,0,0,1,.25.25v6a.26.26,0,0,1-.43.18L38.56,29l-3.27,3.27A.25.25,0,0,1,35.12,32.31Zm-3.45-4a.22.22,0,0,1,.17.07l3.28,3.27,3.27-3.27a.26.26,0,0,1,.35,0l1.3,1.3V24.55H30.19v5.18l1.3-1.3A.24.24,0,0,1,31.67,28.36Z"/><polygon class="cls-10" points="29.94 55.33 29.94 60.51 31.67 60.51 31.67 57.06 29.94 55.33"/><path class="cls-3" d="M40.29,60.75H29.94a.25.25,0,0,1-.25-.25V55.33a.25.25,0,0,1,.16-.23.23.23,0,0,1,.27.06l1.55,1.54,3.27-3.27a.24.24,0,0,1,.35,0l3.27,3.27,1.55-1.54a.23.23,0,0,1,.27-.06.25.25,0,0,1,.16.23V60.5A.25.25,0,0,1,40.29,60.75Zm-10.1-.5H40V55.94l-1.3,1.29a.24.24,0,0,1-.35,0L35.12,54l-3.28,3.27a.24.24,0,0,1-.35,0l-1.3-1.29Z"/></g></g></svg>