<svg xmlns="http://www.w3.org/2000/svg" viewBox="0 0 69.2 68.25"><defs><style>.cls-1{fill:#efefef;}.cls-2{fill:#f79;}.cls-3{fill:#4d4d4d;}.cls-4{fill:none;}.cls-5{fill:#ccc;}.cls-6{fill:#aaa;}.cls-7{fill:#ef608f;}</style></defs><title>Call service</title><g id="Layer_2" data-name="Layer 2"><g id="Layer_1-2" data-name="Layer 1"><path class="cls-1" d="M58.38,55.16A44,44,0,0,1,39.23,66.34c-7.77,2.3-17,3.14-22.55-1S9.33,52.05,8.48,43.86,7.76,28.39,11,23.37,20.71,15.58,27.41,11,41.12,0,48,0,61.64,6.29,65.41,13.57a35.06,35.06,0,0,1,3.11,22.78A37.33,37.33,0,0,1,58.38,55.16Z"/><path class="cls-2" d="M29.42,40.32h-.1a.26.26,0,0,1-.15-.24V33.19H27.6a3.36,3.36,0,0,1-3.36-3.36V15.25a3.36,3.36,0,0,1,3.36-3.36H58.89a3.36,3.36,0,0,1,3.35,3.36V29.83a3.36,3.36,0,0,1-3.35,3.36H36.65l-7.06,7.06A.23.23,0,0,1,29.42,40.32Z"/><path class="cls-3" d="M58.89,12.14A3.11,3.11,0,0,1,62,15.25V29.83a3.1,3.1,0,0,1-3.1,3.11H36.55l-7.13,7.13V32.94H27.6a3.11,3.11,0,0,1-3.11-3.11V15.25a3.11,3.11,0,0,1,3.11-3.11H58.89m0-.5H27.6A3.61,3.61,0,0,0,24,15.25V29.83a3.61,3.61,0,0,0,3.61,3.61h1.32v6.63a.51.51,0,0,0,.3.47l.19,0a.52.52,0,0,0,.36-.14l7-7H58.89a3.61,3.61,0,0,0,3.6-3.61V15.25a3.61,3.61,0,0,0-3.6-3.61Z"/><path class="cls-4" d="M40.11,22a.88.88,0,0,1,0-.16l-.38.76h.36Z"/><polygon class="cls-3" points="33.53 23.44 33.53 23.44 33.53 23.44 33.53 23.44"/><path class="cls-3" d="M35.82,20.05A2.17,2.17,0,0,0,35,18.32a3,3,0,0,0-1.85-.61,2.35,2.35,0,0,0-2.57,2.16c0,.67.3.76.63.76.54,0,.78-.27.78-.47a1.18,1.18,0,0,1,2.36-.05c0,.88-.92,1.56-1.9,2.28s-2,1.48-2,2.39V26c0,.18.35.36.61.36h4.44c.14,0,.35-.26.35-.62s-.21-.6-.35-.6H32v-.35c0-.57.66-1,1.42-1.55h0C34.47,22.49,35.82,21.57,35.82,20.05Z"/><path class="cls-3" d="M41.84,23.11h-.77V22c0-.17-.23-.35-.74-.35s-.73.18-.73.35v1.11H37.9l2.38-4.77a.4.4,0,0,0,0-.13c0-.16-.16-.28-.25-.34a1.09,1.09,0,0,0-.48-.16.64.64,0,0,0-.6.37l-2.88,5.65A.54.54,0,0,0,36,24a.4.4,0,0,0,.41.44H39.6V26c0,.17.26.36.73.36s.74-.19.74-.36V24.43h.77c.12,0,.36-.3.36-.66S42,23.11,41.84,23.11Z"/><path class="cls-3" d="M48.33,17.2a.33.33,0,0,0-.31.17l-4.38,9a.3.3,0,0,0,0,.13.46.46,0,0,0,.46.42.41.41,0,0,0,.35-.17l4.39-9a.25.25,0,0,0,0-.13A.47.47,0,0,0,48.33,17.2Z"/><path class="cls-3" d="M55.45,17.71H51c-.32,0-.61.22-.61.36V20c0,.17.32.36.72.36s.75-.21.75-.36V18.93h2.71V20.1l0,.06-3.07,5.31a.38.38,0,0,0-.05.21c0,.42.52.74,1,.74.27,0,.32-.09.34-.13l2.92-5.59a2.91,2.91,0,0,0,.37-1.07V18.07A.66.66,0,0,0,55.45,17.71Z"/><path class="cls-5" d="M33.84,62.39c-7.25,0-16-4.39-22.85-11.47C.22,39.79-3,25.36,3.88,18.73a1.34,1.34,0,0,1,1-.34c1.41,0,3.77,1.46,5.88,3.64,2.29,2.38,6.1,7.64,4.89,8.82a7,7,0,0,0-.17,9.83l5.92,6.12a7,7,0,0,0,9.83.16.87.87,0,0,1,.64-.22c1.73,0,5.84,3.14,8,5.4,2.83,2.91,4.15,5.9,3.07,6.94a12.73,12.73,0,0,1-9.08,3.31Z"/><path class="cls-3" d="M4.84,18.64c1.31,0,3.58,1.38,5.7,3.56,2.64,2.73,5.83,7.56,4.89,8.47a7.24,7.24,0,0,0-.17,10.19L21.18,47a7.22,7.22,0,0,0,10.19.17.64.64,0,0,1,.46-.15c1.53,0,5.5,2.9,7.84,5.32,2.64,2.73,4,5.68,3.08,6.59h0a12.46,12.46,0,0,1-8.9,3.23c-7,0-15.58-4.07-22.67-11.4C.48,39.7-2.7,25.45,4.05,18.91a1.11,1.11,0,0,1,.79-.27m0-.5a1.59,1.59,0,0,0-1.14.41C.31,21.84-.8,27.06.58,33.25s5,12.44,10.23,17.84c6.89,7.13,15.72,11.55,23,11.55a12.94,12.94,0,0,0,9.25-3.38c.44-.43.78-1.32-.08-3.18A16,16,0,0,0,40,52c-2.21-2.28-6.4-5.47-8.2-5.47h0a1.13,1.13,0,0,0-.81.29,6.71,6.71,0,0,1-9.48-.16l-5.92-6.11A6.74,6.74,0,0,1,15.78,31c.41-.39.75-1.26-1-4.17a29.48,29.48,0,0,0-3.86-5c-2.18-2.26-4.56-3.72-6.05-3.72Z"/><path class="cls-6" d="M14,50.54C3.51,39.72.26,25.83,6.5,19.13c-1.1-.53-2-.65-2.45-.22C-2.7,25.45.48,39.7,11.17,50.74c8,8.31,18,12.43,25.37,11.18C29.59,61.88,21,57.84,14,50.54Z"/><path class="cls-6" d="M33.44,47.52c-1-.5-1.75-.69-2.07-.38a7.16,7.16,0,0,1-3.1,1.73A7.17,7.17,0,0,0,33.44,47.52Z"/><path class="cls-7" d="M31.47,38V32.94H29.65a3.11,3.11,0,0,1-3.11-3.11V15.25a3.11,3.11,0,0,1,3.11-3.11h-2a3.11,3.11,0,0,0-3.11,3.11V29.83a3.11,3.11,0,0,0,3.11,3.11h1.82v7.13Z"/></g></g></svg>