<svg width="40" height="40" viewBox="0 0 40 40" fill="none" xmlns="http://www.w3.org/2000/svg">
<path fill-rule="evenodd" clip-rule="evenodd" d="M19.9795 3.18359C10.6795 3.18359 3.17871 10.7234 3.17871 20.0034C3.17871 29.2834 10.6795 36.8237 19.9795 36.8237C29.2795 36.8237 36.7802 29.2834 36.7802 20.0034C36.7802 10.7234 29.2795 3.18359 19.9795 3.18359ZM19.9795 5.18359C28.1795 5.18359 34.7802 11.8234 34.7802 20.0034C34.7802 28.1834 28.1795 34.8237 19.9795 34.8237C11.7795 34.8237 5.17871 28.1834 5.17871 20.0034C5.17871 11.8234 11.7795 5.18359 19.9795 5.18359ZM19.9795 25.8237C20.7795 25.8237 21.4795 26.4834 21.4795 27.2934C21.4795 28.0934 20.7795 28.7534 19.9795 28.7534C19.1795 28.7534 18.4795 28.0934 18.4795 27.2934C18.4795 26.4834 19.1795 25.8237 19.9795 25.8237ZM18.9795 11.3638V22.4936C18.9795 23.0436 19.3795 23.4936 19.9795 23.4936C20.5795 23.4936 20.9795 23.0436 20.9795 22.4936V11.3638C20.9795 10.8138 20.5795 10.3638 19.9795 10.3638C19.3795 10.3638 18.9795 10.8138 18.9795 11.3638Z" fill="#96aec1"/>
</svg>
