<svg width="26" height="26" viewBox="0 0 26 26" fill="none" xmlns="http://www.w3.org/2000/svg">
<path fill-rule="evenodd" clip-rule="evenodd" d="M12.0246 6.61379C11.9508 6.58544 11.8755 6.55693 11.7986 6.52877C11.067 6.26112 10.233 5.99802 9.2541 5.9456C9.21901 5.94374 9.18386 5.94369 9.14874 5.94553C5.82321 6.11828 3.65512 8.05744 2.71876 10.8043C1.41343 14.6336 2.61482 20.1722 6.69404 24.3719C6.70751 24.3857 6.72139 24.3992 6.73563 24.4123C7.46508 25.081 8.16564 25.4639 8.97221 25.5764C9.73186 25.6824 10.6114 25.5427 11.7511 25.0517C12.9613 24.5435 14.0093 24.5743 15.1551 25.0517C16.801 25.7656 18.5168 25.9426 20.089 24.5104C20.1211 24.4883 20.1519 24.4639 20.1813 24.4377C21.892 22.9121 22.9314 20.8607 23.7267 18.7724C23.9207 18.2632 23.6712 17.6925 23.1658 17.4889C20.19 16.2904 19.4425 12.0192 22.6823 10.0715C22.9203 9.92847 23.0881 9.69289 23.1455 9.4212C23.2029 9.1495 23.1448 8.86619 22.985 8.6391C21.8422 7.01468 20.1442 6.08598 17.8558 5.90096C17.8527 5.9007 17.8496 5.90047 17.8465 5.90024C17.6553 5.8866 17.4661 5.88423 17.2785 5.89204C18.341 4.71615 19.0643 3.09878 18.8621 1.27992C18.8021 0.740487 18.3228 0.34738 17.782 0.394157C14.6834 0.6622 11.9892 3.32893 12.0246 6.61379ZM18.8216 22.9575C18.6602 23.1142 18.8501 22.9451 18.8501 22.9451C20.0895 21.8398 20.8931 20.3974 21.5241 18.8966C18.1637 16.8573 17.321 11.9102 20.6879 9.04731C19.9241 8.37135 18.9252 7.99481 17.7 7.89489C17.0193 7.84712 16.3768 8.02309 15.7431 8.22858C14.9501 8.48573 14.1696 8.79397 13.3735 8.95587C13.2849 8.9739 13.1942 8.9798 13.104 8.97346C12.6114 8.93874 12.0776 8.76585 11.4854 8.54575C10.842 8.30664 10.1019 8.00409 9.19531 7.94606C6.82749 8.08986 5.28222 9.48289 4.61182 11.4496C3.50114 14.7078 4.6464 19.3794 8.11454 22.963C8.48978 23.3034 8.83162 23.5375 9.24839 23.5956C9.72069 23.6615 10.2562 23.5186 10.9654 23.2124C10.9684 23.2112 10.9713 23.2099 10.9742 23.2087C12.7362 22.4681 14.2614 22.5113 15.9297 23.2078C15.9343 23.2097 15.9389 23.2116 15.9434 23.2136C16.9003 23.6299 17.9117 23.8405 18.8216 22.9575ZM14.1037 5.75944C14.3977 4.3204 15.4756 3.1573 16.8149 2.64874C16.5757 3.7429 15.8446 4.64842 15.0391 5.23168C14.7295 5.45585 14.4099 5.64024 14.1037 5.75944Z" fill="#0099FA"/>
</svg>
