<svg width="22" height="28" viewBox="0 0 22 28" fill="none" xmlns="http://www.w3.org/2000/svg">
<path fill-rule="evenodd" clip-rule="evenodd" d="M6.71899 17.3802H1.50919C1.24255 17.3802 0.996504 17.2294 0.87344 16.9897C0.750376 16.7499 0.770846 16.4615 0.934932 16.2429L12.4003 0.298696C12.6054 0.0256988 12.9541 -0.0741882 13.2618 0.0579005C13.5694 0.190194 13.7542 0.519391 13.6926 0.849818L11.8467 10.6798H12.8926H15.436H20.502C20.7687 10.6798 21.0149 10.8315 21.138 11.0721C21.261 11.3129 21.2406 11.6019 21.0765 11.8204L9.50836 27.7046C9.30326 27.9785 8.95461 28.0757 8.62644 27.9379C8.31878 27.8 8.1547 27.4647 8.21623 27.1332L10.2877 17.3802H9.2622V17.3855H6.71899V17.3802Z" fill="url(#paint0_linear_209_357)"/>
<defs>
<linearGradient id="paint0_linear_209_357" x1="11.0057" y1="16.0397" x2="8.1255" y2="2.41415" gradientUnits="userSpaceOnUse">
<stop stop-color="#0099FA"/>
<stop offset="1" stop-color="#4ADFFF"/>
</linearGradient>
</defs>
</svg>
