<svg width="26" height="26" viewBox="0 0 26 26" fill="none" xmlns="http://www.w3.org/2000/svg">
<path fill-rule="evenodd" clip-rule="evenodd" d="M24.988 6.03251C24.988 4.96251 24.564 3.93651 23.807 3.18051C23.051 2.42451 22.025 1.99951 20.956 1.99951C16.761 1.99951 9.23094 1.99951 5.03593 1.99951C3.96593 1.99951 2.93993 2.42451 2.18393 3.18051C1.42793 3.93651 1.00293 4.96251 1.00293 6.03251C1.00293 9.81052 1.00293 16.2265 1.00293 20.0045C1.00293 21.0746 1.42793 22.0995 2.18393 22.8565C2.93993 23.6125 3.96593 24.0375 5.03593 24.0375C9.23094 24.0375 16.761 24.0375 20.956 24.0375C22.025 24.0375 23.051 23.6125 23.807 22.8565C24.564 22.0995 24.988 21.0746 24.988 20.0045C24.988 16.2265 24.988 9.81052 24.988 6.03251ZM3.00293 9.99953H22.988V20.0045C22.988 20.5436 22.774 21.0605 22.393 21.4425C22.012 21.8235 21.495 22.0375 20.956 22.0375C16.761 22.0375 9.23094 22.0375 5.03593 22.0375C4.49693 22.0375 3.97994 21.8235 3.59794 21.4425C3.21693 21.0605 3.00293 20.5436 3.00293 20.0045V9.99953ZM22.988 7.99952H3.00293V6.03251C3.00293 5.49351 3.21693 4.97652 3.59794 4.59452C3.97994 4.21352 4.49693 3.99952 5.03593 3.99952C9.23094 3.99952 16.761 3.99952 20.956 3.99952C21.495 3.99952 22.012 4.21352 22.393 4.59452C22.774 4.97652 22.988 5.49351 22.988 6.03251V7.99952ZM5.00294 4.99952C5.55494 4.99952 6.00294 5.44752 6.00294 5.99952C6.00294 6.55152 5.55494 6.99952 5.00294 6.99952C4.45094 6.99952 4.00293 6.55152 4.00293 5.99952C4.00293 5.44752 4.45094 4.99952 5.00294 4.99952ZM8.00294 4.99952C8.55494 4.99952 9.00294 5.44752 9.00294 5.99952C9.00294 6.55152 8.55494 6.99952 8.00294 6.99952C7.45094 6.99952 7.00294 6.55152 7.00294 5.99952C7.00294 5.44752 7.45094 4.99952 8.00294 4.99952ZM11.0029 4.99952C11.5549 4.99952 12.0029 5.44752 12.0029 5.99952C12.0029 6.55152 11.5549 6.99952 11.0029 6.99952C10.4509 6.99952 10.0029 6.55152 10.0029 5.99952C10.0029 5.44752 10.4509 4.99952 11.0029 4.99952Z" fill="#0099FA"/>
</svg>
