<svg width="166" height="107" viewBox="0 0 166 107" fill="none" xmlns="http://www.w3.org/2000/svg">
<path fill-rule="evenodd" clip-rule="evenodd" d="M83.5095 52.4858V29.7615L94.8632 25.2166V41.0503L101.996 38.1182V22.4311L113.058 17.7396V35.0394L116.406 36.5055V14.3676L81.7627 0L47.4105 14.3676V47.7943C53.0873 50.3355 68.2547 54.8315 83.5095 52.4858ZM91.952 22.7243L81.7627 27.1225L53.8151 15.2473L63.8588 11.1422L91.952 22.7243ZM110.001 15.3939L100.831 19.3523L72.4469 7.62363L81.7627 3.81182L110.001 15.3939Z" fill="#2D3D8A"/>
<path d="M113.058 44.8621L110.001 37.5317L133 45.302L122.229 67L119.317 60.1094C100.249 67 56.2897 73.3042 33 43.3961C44.7419 52.9256 77.1921 66.5602 113.058 44.8621Z" fill="#5A6FD7"/>
<path d="M1.13778 88V74.9091H6.37926C7.34233 74.9091 8.1456 75.0518 8.78906 75.3374C9.43253 75.6229 9.91619 76.0192 10.2401 76.5263C10.5639 77.0291 10.7259 77.6087 10.7259 78.2649C10.7259 78.7763 10.6236 79.2259 10.419 79.6136C10.2145 79.9972 9.93324 80.3125 9.57528 80.5597C9.22159 80.8026 8.81676 80.9751 8.3608 81.0774V81.2053C8.85938 81.2266 9.32599 81.3672 9.76065 81.6271C10.1996 81.8871 10.5554 82.2514 10.8281 82.7202C11.1009 83.1847 11.2372 83.7386 11.2372 84.3821C11.2372 85.0767 11.0646 85.6967 10.7195 86.2422C10.3786 86.7834 9.87358 87.2116 9.20455 87.527C8.53551 87.8423 7.71094 88 6.73082 88H1.13778ZM3.90554 85.7372H6.16193C6.93324 85.7372 7.49574 85.5902 7.84943 85.2962C8.20313 84.9979 8.37997 84.6016 8.37997 84.1072C8.37997 83.745 8.29261 83.4254 8.1179 83.1484C7.94318 82.8714 7.69389 82.6541 7.37003 82.4964C7.05043 82.3388 6.66903 82.2599 6.22585 82.2599H3.90554V85.7372ZM3.90554 80.3871H5.95739C6.33665 80.3871 6.6733 80.321 6.96733 80.1889C7.26563 80.0526 7.5 79.8608 7.67045 79.6136C7.84517 79.3665 7.93253 79.0703 7.93253 78.7251C7.93253 78.2521 7.7642 77.8707 7.42756 77.581C7.09517 77.2912 6.62216 77.1463 6.00852 77.1463H3.90554V80.3871ZM21.1241 74.9091H23.8919V83.4105C23.8919 84.3651 23.6639 85.2003 23.2079 85.9162C22.7562 86.6321 22.1234 87.1903 21.3095 87.5909C20.4956 87.9872 19.5474 88.1854 18.465 88.1854C17.3784 88.1854 16.4281 87.9872 15.6142 87.5909C14.8002 87.1903 14.1674 86.6321 13.7157 85.9162C13.264 85.2003 13.0382 84.3651 13.0382 83.4105V74.9091H15.8059V83.174C15.8059 83.6726 15.9146 84.1158 16.1319 84.5036C16.3535 84.8913 16.6646 85.196 17.0652 85.4176C17.4657 85.6392 17.9324 85.75 18.465 85.75C19.002 85.75 19.4686 85.6392 19.8649 85.4176C20.2654 85.196 20.5744 84.8913 20.7917 84.5036C21.0133 84.1158 21.1241 83.6726 21.1241 83.174V74.9091ZM26.169 88V74.9091H28.9368V80.3104H34.5554V74.9091H37.3168V88H34.5554V82.5923H28.9368V88H26.169ZM39.5987 88V74.9091H42.3665V85.718H47.9787V88H39.5987ZM49.8116 88V74.9091H58.6326V77.1911H52.5794V80.3104H58.1788V82.5923H52.5794V85.718H58.6582V88H49.8116ZM60.8331 88V74.9091H65.9979C66.9865 74.9091 67.8303 75.0859 68.5291 75.4396C69.2322 75.7891 69.767 76.2855 70.1335 76.929C70.5043 77.5682 70.6896 78.3203 70.6896 79.1854C70.6896 80.0547 70.5021 80.8026 70.1271 81.429C69.7521 82.0511 69.2088 82.5284 68.4972 82.8608C67.7898 83.1932 66.9332 83.3594 65.9276 83.3594H62.4695V81.1349H65.4801C66.0085 81.1349 66.4474 81.0625 66.7969 80.9176C67.1463 80.7727 67.4063 80.5554 67.5767 80.2656C67.7514 79.9759 67.8388 79.6158 67.8388 79.1854C67.8388 78.7507 67.7514 78.3842 67.5767 78.0859C67.4063 77.7876 67.1442 77.5618 66.7905 77.4084C66.4411 77.2507 66 77.1719 65.4673 77.1719H63.6009V88H60.8331ZM67.9027 82.0426L71.1562 88H68.1009L64.9176 82.0426H67.9027ZM84.196 79.4922H81.3963C81.3452 79.13 81.2408 78.8082 81.0831 78.527C80.9254 78.2415 80.723 77.9986 80.4759 77.7983C80.2287 77.598 79.9432 77.4446 79.6193 77.3381C79.2997 77.2315 78.9524 77.1783 78.5774 77.1783C77.8999 77.1783 77.3097 77.3466 76.8068 77.6832C76.304 78.0156 75.9141 78.5014 75.6371 79.1406C75.3601 79.7756 75.2216 80.5469 75.2216 81.4545C75.2216 82.3878 75.3601 83.1719 75.6371 83.8068C75.9183 84.4418 76.3104 84.9212 76.8132 85.245C77.3161 85.5689 77.8977 85.7308 78.5582 85.7308C78.929 85.7308 79.272 85.6818 79.5874 85.5838C79.907 85.4858 80.1903 85.343 80.4375 85.1555C80.6847 84.9638 80.8892 84.7315 81.0511 84.4588C81.2173 84.1861 81.3324 83.875 81.3963 83.5256L84.196 83.5384C84.1236 84.1392 83.9425 84.7188 83.6527 85.277C83.3672 85.831 82.9815 86.3274 82.4957 86.7663C82.0142 87.201 81.4389 87.5462 80.7699 87.8018C80.1051 88.0533 79.353 88.179 78.5135 88.179C77.3459 88.179 76.3018 87.9148 75.3814 87.3864C74.4652 86.858 73.7408 86.093 73.2081 85.0916C72.6797 84.0902 72.4155 82.8778 72.4155 81.4545C72.4155 80.027 72.6839 78.8125 73.2209 77.8111C73.7578 76.8097 74.4865 76.0469 75.407 75.5227C76.3274 74.9943 77.3629 74.7301 78.5135 74.7301C79.272 74.7301 79.9751 74.8366 80.6229 75.0497C81.2749 75.2628 81.8523 75.5739 82.3551 75.983C82.858 76.3878 83.267 76.8842 83.5824 77.4723C83.902 78.0604 84.1065 78.7337 84.196 79.4922ZM98.2106 81.4545C98.2106 82.8821 97.94 84.0966 97.3988 85.098C96.8619 86.0994 96.1289 86.8643 95.1999 87.3928C94.2752 87.9169 93.2354 88.179 92.0806 88.179C90.9173 88.179 89.8732 87.9148 88.9485 87.3864C88.0238 86.858 87.293 86.093 86.756 85.0916C86.2191 84.0902 85.9506 82.8778 85.9506 81.4545C85.9506 80.027 86.2191 78.8125 86.756 77.8111C87.293 76.8097 88.0238 76.0469 88.9485 75.5227C89.8732 74.9943 90.9173 74.7301 92.0806 74.7301C93.2354 74.7301 94.2752 74.9943 95.1999 75.5227C96.1289 76.0469 96.8619 76.8097 97.3988 77.8111C97.94 78.8125 98.2106 80.027 98.2106 81.4545ZM95.4045 81.4545C95.4045 80.5298 95.266 79.75 94.989 79.1151C94.7163 78.4801 94.3306 77.9986 93.832 77.6705C93.3335 77.3423 92.7496 77.1783 92.0806 77.1783C91.4116 77.1783 90.8278 77.3423 90.3292 77.6705C89.8306 77.9986 89.4428 78.4801 89.1658 79.1151C88.8931 79.75 88.7567 80.5298 88.7567 81.4545C88.7567 82.3793 88.8931 83.1591 89.1658 83.794C89.4428 84.429 89.8306 84.9105 90.3292 85.2386C90.8278 85.5668 91.4116 85.7308 92.0806 85.7308C92.7496 85.7308 93.3335 85.5668 93.832 85.2386C94.3306 84.9105 94.7163 84.429 94.989 83.794C95.266 83.1591 95.4045 82.3793 95.4045 81.4545ZM100.261 74.9091H103.674L107.279 83.7045H107.433L111.038 74.9091H114.451V88H111.767V79.4794H111.658L108.27 87.9361H106.442L103.054 79.4474H102.945V88H100.261V74.9091ZM116.732 88V74.9091H121.896C122.889 74.9091 123.735 75.0987 124.434 75.478C125.133 75.853 125.665 76.375 126.032 77.044C126.403 77.7088 126.588 78.4759 126.588 79.3452C126.588 80.2145 126.401 80.9815 126.026 81.6463C125.651 82.3111 125.107 82.8288 124.396 83.1996C123.688 83.5703 122.832 83.7557 121.826 83.7557H118.534V81.5376H121.379C121.911 81.5376 122.35 81.446 122.695 81.2628C123.045 81.0753 123.305 80.8175 123.475 80.4893C123.65 80.157 123.737 79.7756 123.737 79.3452C123.737 78.9105 123.65 78.5312 123.475 78.2074C123.305 77.8793 123.045 77.6257 122.695 77.4467C122.346 77.2635 121.903 77.1719 121.366 77.1719H119.499V88H116.732ZM129.131 88H126.165L130.684 74.9091H134.251L138.763 88H135.797L132.518 77.9006H132.416L129.131 88ZM128.945 82.8544H135.951V85.0149H128.945V82.8544ZM151.289 74.9091V88H148.898L143.203 79.7607H143.107V88H140.339V74.9091H142.768L148.419 83.142H148.534V74.9091H151.289ZM152.808 74.9091H155.908L158.893 80.5469H159.021L162.006 74.9091H165.107L160.332 83.3722V88H157.583V83.3722L152.808 74.9091Z" fill="#3A3A44"/>
<path d="M1.96591 105V97.7273H4.41974C4.89323 97.7273 5.28741 97.8101 5.60227 97.9759C5.91951 98.1416 6.15743 98.3677 6.31605 98.6541C6.47467 98.9406 6.55398 99.2661 6.55398 99.6307C6.55398 99.9337 6.50308 100.193 6.40128 100.408C6.29948 100.624 6.16099 100.798 5.9858 100.93C5.81061 101.063 5.61529 101.159 5.39986 101.218V101.275C5.63423 101.291 5.86151 101.374 6.08168 101.523C6.30185 101.67 6.48295 101.876 6.625 102.141C6.76705 102.406 6.83807 102.724 6.83807 103.093C6.83807 103.46 6.75639 103.788 6.59304 104.077C6.42969 104.363 6.17874 104.589 5.8402 104.755C5.50402 104.918 5.07552 105 4.55469 105H1.96591ZM2.62997 104.403H4.55469C5.11577 104.403 5.53007 104.279 5.79759 104.031C6.06747 103.782 6.20241 103.469 6.20241 103.093C6.20241 102.816 6.13494 102.565 6 102.34C5.86742 102.113 5.67921 101.933 5.43537 101.8C5.19389 101.668 4.9098 101.602 4.5831 101.602H2.62997V104.403ZM2.62997 101.012H4.48011C4.76657 101.012 5.01752 100.953 5.23295 100.835C5.44839 100.716 5.61648 100.553 5.73722 100.344C5.85795 100.136 5.91832 99.8982 5.91832 99.6307C5.91832 99.2448 5.79285 98.9311 5.5419 98.6896C5.29096 98.4458 4.9169 98.3239 4.41974 98.3239H2.62997V101.012ZM13.2878 97.7273H13.9519V102.543C13.9519 103.037 13.8359 103.48 13.6039 103.871C13.3719 104.259 13.0487 104.566 12.6344 104.79C12.2225 105.013 11.7431 105.124 11.1962 105.124C10.6517 105.124 10.1723 105.012 9.75799 104.787C9.34369 104.562 9.02054 104.255 8.78853 103.867C8.55652 103.479 8.44052 103.037 8.44052 102.543V97.7273H9.10458V102.496C9.10458 102.882 9.19099 103.227 9.36381 103.53C9.53664 103.83 9.7793 104.067 10.0918 104.24C10.4067 104.413 10.7748 104.499 11.1962 104.499C11.6176 104.499 11.9857 104.413 12.3006 104.24C12.6155 104.067 12.8581 103.83 13.0286 103.53C13.2014 103.227 13.2878 102.882 13.2878 102.496V97.7273ZM15.8819 105V97.7273H16.546V101.062H20.6724V97.7273H21.3365V105H20.6724V101.658H16.546V105H15.8819ZM23.2647 105V97.7273H23.9288V104.403H27.3947V105H23.2647ZM28.8897 105V97.7273H33.1085V98.3239H29.5538V101.062H32.8848V101.658H29.5538V104.403H33.1795V105H28.8897ZM34.8272 105V97.7273H37.1745C37.6906 97.7273 38.1215 97.8208 38.4672 98.0078C38.8152 98.1925 39.0768 98.4493 39.252 98.7784C39.4295 99.1051 39.5183 99.4804 39.5183 99.9041C39.5183 100.328 39.4295 100.702 39.252 101.026C39.0768 101.351 38.8163 101.604 38.4707 101.786C38.1251 101.969 37.6966 102.06 37.1852 102.06H35.1859V101.452H37.1674C37.5462 101.452 37.8611 101.39 38.112 101.264C38.3654 101.139 38.5536 100.96 38.6767 100.728C38.8021 100.496 38.8649 100.221 38.8649 99.9041C38.8649 99.5869 38.8021 99.3099 38.6767 99.0732C38.5512 98.834 38.3618 98.6494 38.1085 98.5192C37.8575 98.389 37.5403 98.3239 37.1568 98.3239H35.4913V105H34.8272ZM38.0339 101.719L39.8237 105H39.0566L37.2846 101.719H38.0339ZM46.8319 100H46.1642C46.1145 99.7514 46.0246 99.5218 45.8944 99.3111C45.7665 99.098 45.6055 98.9122 45.4114 98.7536C45.2173 98.5949 44.9971 98.4718 44.7509 98.3842C44.5047 98.2966 44.2383 98.2528 43.9519 98.2528C43.4926 98.2528 43.0736 98.3724 42.6948 98.6115C42.3184 98.8506 42.0165 99.2022 41.7892 99.6662C41.5643 100.128 41.4519 100.694 41.4519 101.364C41.4519 102.038 41.5643 102.607 41.7892 103.068C42.0165 103.53 42.3184 103.88 42.6948 104.119C43.0736 104.356 43.4926 104.474 43.9519 104.474C44.2383 104.474 44.5047 104.431 44.7509 104.343C44.9971 104.255 45.2173 104.134 45.4114 103.977C45.6055 103.819 45.7665 103.633 45.8944 103.42C46.0246 103.207 46.1145 102.976 46.1642 102.727H46.8319C46.7727 103.061 46.6614 103.372 46.498 103.661C46.3371 103.948 46.1311 104.199 45.8801 104.414C45.6316 104.629 45.3451 104.798 45.0208 104.918C44.6964 105.039 44.3401 105.099 43.9519 105.099C43.3411 105.099 42.7989 104.947 42.3255 104.641C41.852 104.334 41.4803 103.9 41.2104 103.342C40.9429 102.783 40.8091 102.124 40.8091 101.364C40.8091 100.604 40.9429 99.9444 41.2104 99.3857C41.4803 98.8269 41.852 98.3949 42.3255 98.0895C42.7989 97.7817 43.3411 97.6278 43.9519 97.6278C44.3401 97.6278 44.6964 97.6882 45.0208 97.8089C45.3451 97.9273 45.6316 98.0954 45.8801 98.3132C46.1311 98.5286 46.3371 98.7796 46.498 99.0661C46.6614 99.3525 46.7727 99.6638 46.8319 100ZM54.354 101.364C54.354 102.121 54.2191 102.781 53.9492 103.342C53.6793 103.9 53.3076 104.334 52.8342 104.641C52.363 104.947 51.8209 105.099 51.2077 105.099C50.5946 105.099 50.0513 104.947 49.5778 104.641C49.1067 104.334 48.7362 103.9 48.4663 103.342C48.1987 102.781 48.065 102.121 48.065 101.364C48.065 100.606 48.1987 99.9479 48.4663 99.3892C48.7362 98.8281 49.1078 98.3949 49.5813 98.0895C50.0548 97.7817 50.5969 97.6278 51.2077 97.6278C51.8209 97.6278 52.363 97.7817 52.8342 98.0895C53.3076 98.3949 53.6793 98.8281 53.9492 99.3892C54.2191 99.9479 54.354 100.606 54.354 101.364ZM53.7077 101.364C53.7077 100.713 53.5988 100.155 53.381 99.6911C53.1632 99.2247 52.8661 98.8684 52.4897 98.6222C52.1133 98.3759 51.686 98.2528 51.2077 98.2528C50.7319 98.2528 50.3058 98.3759 49.9293 98.6222C49.5529 98.8684 49.2546 99.2235 49.0344 99.6875C48.8166 100.152 48.7077 100.71 48.7077 101.364C48.7077 102.015 48.8166 102.572 49.0344 103.036C49.2522 103.5 49.5494 103.857 49.9258 104.105C50.3022 104.351 50.7295 104.474 51.2077 104.474C51.686 104.474 52.1133 104.351 52.4897 104.105C52.8685 103.859 53.1668 103.504 53.3846 103.04C53.6024 102.573 53.7101 102.015 53.7077 101.364ZM55.96 97.7273H56.7271L59.3656 104.062H59.4295L62.068 97.7273H62.835V105H62.21V99.13H62.1532L59.6994 105H59.0957L56.6419 99.13H56.585V105H55.96V97.7273ZM64.7686 105V97.7273H67.1159C67.632 97.7273 68.0629 97.8267 68.4086 98.0256C68.7566 98.2221 69.0182 98.4896 69.1934 98.8281C69.3709 99.1667 69.4597 99.5478 69.4597 99.9716C69.4597 100.395 69.3721 100.778 69.1969 101.119C69.0217 101.457 68.7613 101.726 68.4157 101.925C68.07 102.121 67.6403 102.219 67.1266 102.219H65.28V101.623H67.1088C67.49 101.623 67.806 101.552 68.057 101.41C68.3079 101.265 68.495 101.069 68.6181 100.82C68.7435 100.572 68.8063 100.289 68.8063 99.9716C68.8063 99.6544 68.7435 99.3714 68.6181 99.1229C68.495 98.8743 68.3068 98.679 68.0534 98.5369C67.8025 98.3949 67.4841 98.3239 67.0982 98.3239H65.4327V105H64.7686ZM70.2871 105H69.5911L72.2367 97.7273H72.9469L75.5925 105H74.8965L72.6167 98.5902H72.5669L70.2871 105ZM70.7878 102.212H74.3958V102.809H70.7878V102.212ZM82.503 97.7273V105H81.8567L77.5598 98.9098H77.503V105H76.839V97.7273H77.4817L81.7928 103.825H81.8496V97.7273H82.503ZM83.7548 97.7273H84.5218L86.6774 101.179H86.7413L88.8968 97.7273H89.6639L87.0396 101.85V105H86.3791V101.85L83.7548 97.7273ZM94.3878 97.7273V105H93.7237V97.7273H94.3878ZM100.27 99.5455C100.23 99.1406 100.051 98.8187 99.734 98.5795C99.4168 98.3404 99.0179 98.2209 98.5373 98.2209C98.1987 98.2209 97.9004 98.2789 97.6424 98.3949C97.3867 98.5109 97.1855 98.6719 97.0387 98.8778C96.8943 99.0814 96.8221 99.3134 96.8221 99.5739C96.8221 99.7656 96.8635 99.9337 96.9464 100.078C97.0292 100.223 97.1405 100.347 97.2802 100.451C97.4222 100.553 97.5785 100.64 97.7489 100.714C97.9218 100.787 98.0958 100.849 98.271 100.898L99.038 101.119C99.27 101.183 99.502 101.264 99.734 101.364C99.966 101.463 100.178 101.589 100.37 101.74C100.564 101.889 100.719 102.073 100.835 102.29C100.953 102.506 101.012 102.765 101.012 103.068C101.012 103.456 100.912 103.806 100.711 104.116C100.509 104.426 100.221 104.672 99.8441 104.854C99.4677 105.034 99.0167 105.124 98.4911 105.124C97.9963 105.124 97.5666 105.043 97.2021 104.879C96.8375 104.714 96.551 104.485 96.3427 104.194C96.1344 103.903 96.0172 103.565 95.9911 103.182H96.6729C96.6966 103.468 96.7913 103.711 96.957 103.91C97.1228 104.109 97.3382 104.26 97.6033 104.364C97.8685 104.466 98.1644 104.517 98.4911 104.517C98.8533 104.517 99.1753 104.457 99.457 104.336C99.7411 104.213 99.9637 104.042 100.125 103.825C100.288 103.604 100.37 103.349 100.37 103.058C100.37 102.811 100.306 102.605 100.178 102.44C100.05 102.272 99.8713 102.131 99.6417 102.017C99.4144 101.903 99.1504 101.803 98.8498 101.715L97.9798 101.46C97.4092 101.289 96.9665 101.054 96.6516 100.753C96.3368 100.452 96.1793 100.069 96.1793 99.6023C96.1793 99.2116 96.2835 98.8684 96.4918 98.5724C96.7025 98.2741 96.9866 98.0421 97.3441 97.8764C97.704 97.7083 98.1076 97.6243 98.555 97.6243C99.0072 97.6243 99.4073 97.7071 99.7553 97.8729C100.103 98.0386 100.379 98.267 100.583 98.5582C100.789 98.8471 100.899 99.1761 100.913 99.5455H100.27ZM104.983 98.3239V97.7273H110.256V98.3239H107.951V105H107.287V98.3239H104.983ZM111.751 105V97.7273H112.415V101.062H116.542V97.7273H117.206V105H116.542V101.658H112.415V105H111.751ZM119.134 105V97.7273H123.353V98.3239H119.798V101.062H123.129V101.658H119.798V104.403H123.424V105H119.134ZM127.884 105V97.7273H130.231C130.747 97.7273 131.178 97.8267 131.524 98.0256C131.872 98.2221 132.133 98.4896 132.309 98.8281C132.486 99.1667 132.575 99.5478 132.575 99.9716C132.575 100.395 132.487 100.778 132.312 101.119C132.137 101.457 131.877 101.726 131.531 101.925C131.185 102.121 130.756 102.219 130.242 102.219H128.395V101.623H130.224C130.605 101.623 130.921 101.552 131.172 101.41C131.423 101.265 131.61 101.069 131.733 100.82C131.859 100.572 131.922 100.289 131.922 99.9716C131.922 99.6544 131.859 99.3714 131.733 99.1229C131.61 98.8743 131.422 98.679 131.169 98.5369C130.918 98.3949 130.599 98.3239 130.213 98.3239H128.548V105H127.884ZM134.134 105V97.7273H138.353V98.3239H134.798V101.062H138.129V101.658H134.798V104.403H138.424V105H134.134ZM146.034 101.364C146.034 102.121 145.899 102.781 145.629 103.342C145.359 103.9 144.987 104.334 144.514 104.641C144.043 104.947 143.501 105.099 142.887 105.099C142.274 105.099 141.731 104.947 141.257 104.641C140.786 104.334 140.416 103.9 140.146 103.342C139.878 102.781 139.745 102.121 139.745 101.364C139.745 100.606 139.878 99.9479 140.146 99.3892C140.416 98.8281 140.788 98.3949 141.261 98.0895C141.734 97.7817 142.277 97.6278 142.887 97.6278C143.501 97.6278 144.043 97.7817 144.514 98.0895C144.987 98.3949 145.359 98.8281 145.629 99.3892C145.899 99.9479 146.034 100.606 146.034 101.364ZM145.387 101.364C145.387 100.713 145.279 100.155 145.061 99.6911C144.843 99.2247 144.546 98.8684 144.169 98.6222C143.793 98.3759 143.366 98.2528 142.887 98.2528C142.412 98.2528 141.985 98.3759 141.609 98.6222C141.233 98.8684 140.934 99.2235 140.714 99.6875C140.496 100.152 140.387 100.71 140.387 101.364C140.387 102.015 140.496 102.572 140.714 103.036C140.932 103.5 141.229 103.857 141.605 104.105C141.982 104.351 142.409 104.474 142.887 104.474C143.366 104.474 143.793 104.351 144.169 104.105C144.548 103.859 144.846 103.504 145.064 103.04C145.282 102.573 145.39 102.015 145.387 101.364ZM147.64 105V97.7273H149.987C150.503 97.7273 150.934 97.8267 151.28 98.0256C151.628 98.2221 151.889 98.4896 152.064 98.8281C152.242 99.1667 152.331 99.5478 152.331 99.9716C152.331 100.395 152.243 100.778 152.068 101.119C151.893 101.457 151.632 101.726 151.287 101.925C150.941 102.121 150.511 102.219 149.998 102.219H148.151V101.623H149.98C150.361 101.623 150.677 101.552 150.928 101.41C151.179 101.265 151.366 101.069 151.489 100.82C151.615 100.572 151.677 100.289 151.677 99.9716C151.677 99.6544 151.615 99.3714 151.489 99.1229C151.366 98.8743 151.178 98.679 150.925 98.5369C150.674 98.3949 150.355 98.3239 149.969 98.3239H148.304V105H147.64ZM153.89 105V97.7273H154.554V104.403H158.02V105H153.89ZM159.515 105V97.7273H163.733V98.3239H160.179V101.062H163.51V101.658H160.179V104.403H163.805V105H159.515Z" fill="#3A3A44"/>
</svg>
