<svg xmlns="http://www.w3.org/2000/svg" xml:space="preserve" id="Vrstva_1" x="0" y="0" style="enable-background:new 0 0 50 50" version="1.1" viewBox="0 0 50 50"><style>.st1{fill:#ffa726}.st4{fill:#784719}</style><path d="m25 38-5-6v-6h10v6z" style="fill:#ff9800"/><circle cx="34" cy="20" r="2" class="st1"/><circle cx="16" cy="20" r="2" class="st1"/><path d="M34 14c0-7.6-18-5-18 0v7c0 5 4 9 9 9s9-4 9-9v-7z" style="fill:#ffb74d"/><path d="M25 5c-6.1 0-10 4.9-10 11v2.3l2 1.7v-5l12-4 4 4v5l2-1.7V16c0-4-1-8-6-9l-1-2h-3z" style="fill:#ff5722"/><circle cx="29" cy="20" r="1" class="st4"/><circle cx="21" cy="20" r="1" class="st4"/><path d="m30 32-5 1-5-1S9 34 9 45h32c0-11-11-13-11-13z" style="fill:#cfd8dc"/><path d="m24 36-1 9h4l-1-9 1-1-2-2-2 2z" style="fill:#3f51b5"/></svg>