<svg xmlns="http://www.w3.org/2000/svg" xml:space="preserve" id="Vrstva_1" x="0" y="0" style="enable-background:new 0 0 50 50" version="1.1" viewBox="0 0 50 50"><style>.st0{fill:#aed581}.st1{fill:#558b2f}</style><path d="m21.69 34.187 3.142-13.54 21.041 4.884-3.143 13.54z" class="st0"/><path d="m46.6 25-22.4-5.2-3.5 14.9 22.4 5.2L46.6 25zm-24.1 8.7 2.8-12.2L44.9 26l-2.8 12.2-19.6-4.5z" class="st1"/><path d="M41.3 38.7c-1.1-.3-2-.7-1.7-1.8.3-1.1 1.3-1.8 2.5-1.5 1.1.3 1.2 1.2.9 2.3-.3 1.1-.5 1.3-1.7 1zm4.2-11.8c-.3 1.1-.7 2-1.8 1.7-1.1-.3-1.8-1.3-1.5-2.5.3-1.2 1.2-1.2 2.3-.9 1.1.3 1.3.5 1 1.7z" class="st1"/><circle cx="39.5" cy="31.2" r="1.4" class="st1"/><circle cx="31.4" cy="29.3" r="4.2" class="st1"/><path d="m23.541 18.82 20.957-5.23 3.367 13.485-20.957 5.232z" class="st0"/><path d="m44.9 12.7-22.3 5.6 3.7 14.8 22.3-5.6-3.7-14.8zM27.4 31.4l-3.1-12.2 19.6-4.9L47 26.6l-19.6 4.8z" class="st1"/><path d="M46.5 27.4c-1.1.3-2.1.3-2.4-.8-.3-1.1.3-2.2 1.5-2.5 1.1-.3 1.6.6 1.9 1.7.3 1 .2 1.3-1 1.6zm-1.7-12.5c.3 1.1.3 2.1-.8 2.4-1.1.3-2.2-.3-2.5-1.5-.3-1.2.6-1.6 1.7-1.9 1.1-.3 1.3-.1 1.6 1z" class="st1"/><circle cx="41.4" cy="21.5" r="1.4" class="st1"/><circle cx="33.3" cy="23.5" r="4.2" class="st1"/><path d="M23.164 18.783 38.437 3.509l9.83 9.829-15.274 15.274z" class="st0"/><path d="M38.4 2.5 22.1 18.8 33 29.6l16.2-16.2L38.4 2.5zM33 27.6l-8.8-8.8L38.4 4.5l8.8 8.8L33 27.6z" class="st1"/><path d="M47.3 14.3c-.8.8-1.6 1.3-2.4.5-.8-.8-.8-2.1 0-2.9.8-.8 1.6-.3 2.4.5.8.8.8 1.1 0 1.9zm-7.9-9.8c.8.8 1.3 1.6.5 2.4s-2.1.8-2.9 0c-.9-.8-.3-1.6.5-2.4s1.1-.8 1.9 0z" class="st1"/><circle cx="39.9" cy="11.9" r="1.4" class="st1"/><circle cx="34" cy="17.8" r="4.2" class="st1"/><path d="m18.739 22.3 5.307-20.937L37.52 4.778l-5.307 20.938z" class="st0"/><path d="m23.5.6-5.6 22.3 14.8 3.8 5.6-22.3L23.5.6zm8.2 24.3-12.1-3.1 4.9-19.6 12.1 3.1-4.9 19.6z" class="st1"/><path d="M37.2 6.2c-.3 1.1-.7 1.9-1.9 1.7-1.1-.3-1.8-1.4-1.5-2.5s1.3-1.1 2.4-.8c1.1.2 1.3.5 1 1.6zM25.4 1.8c1.1.3 1.9.7 1.7 1.9-.3 1.2-1.4 1.8-2.5 1.5s-1.1-1.3-.8-2.4c.2-1.1.4-1.4 1.6-1z" class="st1"/><circle cx="29.6" cy="7.8" r="1.4" class="st1"/><circle cx="27.5" cy="15.9" r="4.2" class="st1"/><path d="m25 6.2 4.2 3.3 5.2-.7 1.9 4.9 4.9 1.9-.7 5.2 3.3 4.2-3.3 4.2.7 5.2-4.9 1.9-1.9 4.9-5.2-.7-4.2 3.3-4.2-3.3-5.2.7-1.9-4.9-4.9-1.9.7-5.2L6.2 25l3.3-4.2-.7-5.2 4.9-1.9 1.9-4.9 5.2.7z" style="fill:#8bc34a"/><path d="M34.5 16.6 22.3 28.7l-5-4.9-2.5 2.4 7.5 7.6L37 19.1z" style="fill:#ccff90"/></svg>