<svg width="11" height="8" viewBox="0 0 11 8" fill="none" xmlns="http://www.w3.org/2000/svg">
<path d="M3.825 7.6C3.95833 7.6 4.08333 7.579 4.2 7.537C4.31667 7.495 4.425 7.42433 4.525 7.325L10.2 1.65C10.3833 1.46667 10.475 1.24167 10.475 0.974999C10.475 0.708333 10.375 0.475 10.175 0.275C9.99167 0.0916663 9.75833 0 9.475 0C9.19167 0 8.95833 0.0916663 8.775 0.275L3.825 5.225L1.65 3.05C1.46667 2.86667 1.24167 2.775 0.975 2.775C0.708333 2.775 0.475 2.875 0.275 3.075C0.0916668 3.25833 0 3.49167 0 3.775C0 4.05833 0.0916668 4.29167 0.275 4.475L3.125 7.325C3.225 7.425 3.33333 7.49567 3.45 7.537C3.56667 7.57833 3.69167 7.59933 3.825 7.6Z" fill="#F3F3F3"/>
</svg>
