<svg width="20" height="20" fill="none" xmlns="http://www.w3.org/2000/svg"><path d="M16.667 10V8.578c0-3.702-2.9-6.801-6.463-6.909-1.837-.042-3.542.614-4.847 1.88a6.611 6.611 0 00-2.024 4.784V10c-.919 0-1.666.748-1.666 1.667V15c0 .92.747 1.667 1.666 1.667H5V8.333c0-1.364.538-2.638 1.518-3.588a4.981 4.981 0 013.635-1.41C12.827 3.416 15 5.769 15 8.579v8.089h1.667c.919 0 1.666-.748 1.666-1.667v-3.333c0-.92-.747-1.667-1.666-1.667z" fill="#383838"/><path d="M5.833 10H7.5v6.667H5.833V10zm6.667 0h1.667v6.667H12.5V10z" fill="#383838"/></svg>