<svg width="65" height="38" fill="none" xmlns="http://www.w3.org/2000/svg"><path d="M3 22.5l10 5 10-15 10 4 10-4 10 10 10-20" stroke="#404040"/><path stroke="#C4C4C4" d="M2.5 36.5v-15m10 15v-9m10 9v-23m10 23v-20m10 20v-24m10 24v-15m10 15v-34"/><circle cx="2.5" cy="22" r="2" fill="#F5F5F5" stroke="#404040"/><circle cx="12.5" cy="27" r="2" fill="#F5F5F5" stroke="#404040"/><circle cx="22.5" cy="13" r="2" fill="#F5F5F5" stroke="#404040"/><circle cx="32.5" cy="16" r="2" fill="#F5F5F5" stroke="#404040"/><circle cx="42.5" cy="13" r="2" fill="#F5F5F5" stroke="#404040"/><circle cx="52.5" cy="22" r="2" fill="#F5F5F5" stroke="#404040"/><circle cx="62.5" cy="3" r="2" fill="#F5F5F5" stroke="#404040"/><path fill="#404040" d="M0 35.5h65v2H0z"/></svg>