<svg width="30" height="30" fill="none" xmlns="http://www.w3.org/2000/svg"><rect width="30" height="30" rx="5" fill="#00B25D"/><path d="M5.753 8.723c-.142.271-.2.562-.227.886-.026.313-.026.698-.026 1.17v8.442c0 .471 0 .856.026 1.17.027.323.085.614.227.885.223.424.576.767 1.008.98.273.136.567.191.897.218.32.025.715.025 1.201.025H21.14c.487 0 .882 0 1.202-.025.33-.027.624-.082.897-.218a2.276 2.276 0 001.008-.98c.142-.271.2-.562.227-.886.026-.313.026-.698.026-1.17v-8.441c0-.471 0-.856-.026-1.17-.027-.323-.085-.614-.227-.885a2.276 2.276 0 00-1.008-.98c-.273-.136-.567-.191-.897-.218A16.45 16.45 0 0021.14 7.5H8.86c-.487 0-.882 0-1.202.025-.33.027-.624.082-.897.218a2.276 2.276 0 00-1.008.98z" stroke="#fff"/><path d="M6 20l6.5-6M24 20l-6.5-6" stroke="#fff" stroke-linecap="square"/><path d="M24 8l-6.343 5.638a4 4 0 01-5.315 0L6 8" stroke="#fff"/></svg>