<?xml version="1.0" encoding="utf-8"?><svg viewBox="0 0 54 79" xmlns="http://www.w3.org/2000/svg" xmlns:xlink="http://www.w3.org/1999/xlink"><style>:root>svg{display:none}:root>svg:target{display:block}</style><svg fill="none" viewBox="0 0 8 16" id="FaceBook" xmlns="http://www.w3.org/2000/svg"><path fill-rule="evenodd" clip-rule="evenodd" d="M4.836 15.196H1.732v-7.32H.18V5.356h1.55V3.84c0-2.058.876-3.282 3.365-3.282h2.07v2.523H5.873c-.968 0-1.032.353-1.032 1.01l-.005 1.263h2.346l-.275 2.522h-2.07v7.319z" fill="#404040"/></svg><svg fill="none" viewBox="0 0 15 14" id="Telegram" xmlns="http://www.w3.org/2000/svg"><path fill-rule="evenodd" clip-rule="evenodd" d="M14.72.586l-2 12a.493.493 0 01-.492.414.526.526 0 01-.188-.04l-3.539-1.444-1.89 2.304a.46.46 0 01-.383.18.49.49 0 01-.41-.215.488.488 0 01-.09-.285v-2.727l6.75-8.273-8.352 7.227L1.04 8.46a.459.459 0 01-.312-.43.463.463 0 01.25-.46l13-7.5a.485.485 0 01.531.016.488.488 0 01.21.5z" fill="#404040"/></svg><svg fill="none" viewBox="0 0 14 13" id="Twitter" xmlns="http://www.w3.org/2000/svg"><path fill-rule="evenodd" clip-rule="evenodd" d="M12.425 2.72a2.87 2.87 0 001.205-1.6 5.317 5.317 0 01-1.741.702A2.669 2.669 0 009.888.91c-1.514 0-2.74 1.295-2.74 2.891 0 .227.022.448.069.659-2.278-.12-4.298-1.27-5.65-3.021a3.006 3.006 0 00-.372 1.454c0 1.003.484 1.888 1.22 2.407a2.644 2.644 0 01-1.242-.361v.036c0 1.4.944 2.57 2.2 2.835-.23.067-.472.101-.723.101-.177 0-.35-.017-.516-.05.348 1.147 1.361 1.985 2.561 2.007a5.322 5.322 0 01-4.059 1.198 7.476 7.476 0 004.203 1.299c5.043 0 7.8-4.406 7.8-8.228 0-.125-.002-.25-.007-.374A5.731 5.731 0 0014 2.265c-.492.23-1.02.386-1.575.455z" fill="#404040"/></svg><svg fill="none" viewBox="0 0 18 12" id="VK" xmlns="http://www.w3.org/2000/svg"><path d="M17.276 10.655c-.028-.046-.041-.09-.055-.121-.304-.59-.87-1.314-1.712-2.175l-.014-.016-.013-.015-.014-.015h-.014a17.82 17.82 0 01-.732-.8c-.179-.257-.234-.53-.124-.801.07-.196.345-.635.815-1.284a26.4 26.4 0 00.58-.831c1.034-1.51 1.49-2.477 1.352-2.9l-.055-.091c-.042-.06-.124-.121-.276-.166a1.41 1.41 0 00-.58-.03l-2.581.015a.35.35 0 00-.18 0 .845.845 0 00-.124.03l-.041.03-.041.03a.335.335 0 00-.097.106.372.372 0 00-.083.166c-.276.8-.607 1.526-.966 2.22-.221.409-.428.756-.607 1.058a5.15 5.15 0 01-.47.665 2.245 2.245 0 01-.345.332c-.096.091-.18.121-.234.106a2.106 2.106 0 01-.152-.045.679.679 0 01-.207-.242 1.318 1.318 0 01-.11-.378c-.014-.15-.028-.287-.028-.392v-.469c0-.196.014-.347.014-.408 0-.256 0-.513.013-.815.014-.287.014-.529.028-.695 0-.166.014-.348.014-.544 0-.196-.014-.332-.028-.453-.014-.106-.055-.212-.096-.317a.622.622 0 00-.18-.242.835.835 0 00-.304-.136A5.303 5.303 0 008.415.91c-1.132-.015-1.836.06-2.167.242a1.293 1.293 0 00-.345.302c-.11.15-.124.226-.042.242.36.06.622.196.76.423l.055.12c.041.091.083.242.124.454.041.211.069.453.083.725.027.483.027.891 0 1.223-.028.348-.055.605-.083.801a1.69 1.69 0 01-.235.68c-.013.03-.027.045-.041.045a.72.72 0 01-.249.045c-.082 0-.179-.045-.303-.136a1.769 1.769 0 01-.373-.377 5.486 5.486 0 01-.442-.68 9.396 9.396 0 01-.496-1.027l-.138-.287c-.097-.182-.207-.453-.373-.8-.152-.348-.29-.696-.414-1.013a.638.638 0 00-.221-.317l-.041-.03c-.028-.03-.083-.061-.138-.091a1.071 1.071 0 00-.207-.06L.672 1.41c-.249 0-.428.06-.51.18l-.042.061a.41.41 0 00-.028.151c0 .076.014.166.055.272.36.922.746 1.813 1.173 2.674.428.861.787 1.556 1.105 2.085.317.529.635 1.027.952 1.48.317.469.538.77.649.891.11.136.193.227.248.303l.221.241c.138.151.359.348.635.56.276.226.593.437.925.649.345.211.731.393 1.187.529.455.136.883.18 1.31.166h1.036a.706.706 0 00.483-.212l.042-.045c.027-.045.04-.106.069-.181.027-.076.027-.167.027-.272 0-.287.014-.544.055-.77a2.18 2.18 0 01.152-.514c.055-.121.124-.212.193-.287a.745.745 0 01.152-.136c.028-.015.055-.03.07-.03.137-.046.317 0 .51.15.193.152.373.348.552.575.166.226.373.483.621.77.235.287.456.499.635.635l.18.12c.124.076.275.151.469.212.193.06.359.075.497.045l2.305-.045c.22 0 .4-.045.524-.121.124-.075.207-.166.22-.272a.676.676 0 000-.332c-.027-.151-.04-.242-.068-.287z" fill="#404040"/></svg><svg fill="none" viewBox="0 0 14 14" id="Whatsapp" xmlns="http://www.w3.org/2000/svg"><path fill-rule="evenodd" clip-rule="evenodd" d="M10.267 8.4c-.934.933-.934 1.867-1.867 1.867-.933 0-1.867-.934-2.8-1.867-.933-.933-1.867-1.867-1.867-2.8 0-.933.934-.933 1.867-1.867C6.533 2.8 3.733 0 2.8 0 1.867 0 0 2.8 0 2.8c0 1.867 1.918 5.651 3.733 7.467C5.548 12.082 9.333 14 11.2 14c0 0 2.8-1.867 2.8-2.8 0-.933-2.8-3.733-3.733-2.8z" fill="#404040"/></svg><svg fill="none" viewBox="0 0 54 79" id="comments-modal-logo-kapital" xmlns="http://www.w3.org/2000/svg"><path d="M23.308 58.008h-6.996V78.84H1V24.43h15.312v21.143h7.385l12.98-21.142h16.167L35.822 50.702 53 78.839H35.667l-12.36-20.83z" fill="#fff"/><path d="M.063.334h53.774v13.05H.062V.333z" fill="#00B25D"/></svg><svg fill="none" viewBox="0 0 7 8" id="count" xmlns="http://www.w3.org/2000/svg"><path d="M3.5 4.389A1.944 1.944 0 103.5.5a1.944 1.944 0 000 3.889zM3.5 4.389h1.944c.86 0 1.556.696 1.556 1.555V7.5H0V5.944C0 5.085.696 4.39 1.556 4.39H3.5z" fill="#777"/></svg><svg fill="none" viewBox="0 0 38 24" id="digest-email-icon" xmlns="http://www.w3.org/2000/svg"><path fill-rule="evenodd" clip-rule="evenodd" d="M19.034 15.225l-4.444-2.963L3.73 22h30.436l-11.21-9.716-3.921 2.94zm5.568-4.16L36 20.943V2.707l-11.398 8.358zM38 24H0V0h38v24zM33.582 2H4.29l10.79 8.185 3.885 2.59 3.443-2.582L33.582 2zM12.93 11.064L2 2.772v18.092l10.93-9.8z" fill="#00B35D"/></svg><svg fill="none" viewBox="0 0 14 14" id="icon-comments-answer" xmlns="http://www.w3.org/2000/svg"><path d="M5.5 9.334H1v-8h12v8h-3v2.315L5.979 9.456l-.224-.122H5.5z" stroke="#777" stroke-width="2"/></svg><svg fill="none" viewBox="0 0 14 14" id="icon-comments-answer-hover" xmlns="http://www.w3.org/2000/svg"><path d="M0 .334h14v10h-3v3l-5.5-3H0v-10z" fill="#00B35D"/></svg><svg fill="none" viewBox="0 0 13 10" id="icon-comments-arrow" xmlns="http://www.w3.org/2000/svg"><path d="M.998 5.334h11m0 0l-4-4m4 4l-4 4" stroke="#777"/></svg><svg fill="none" viewBox="0 0 9 16" id="icon-comments-arrow-btn" xmlns="http://www.w3.org/2000/svg"><path d="M1 1.334l7 7-7 7" stroke="#777"/></svg><svg fill="none" viewBox="0 0 10 17" id="icon-comments-arrow-btn-hover" xmlns="http://www.w3.org/2000/svg"><path d="M1 1.334l7 7-7 7" stroke="#fff" stroke-width="2"/></svg><svg fill="none" viewBox="0 0 22 21" id="icon-comments-complaint" xmlns="http://www.w3.org/2000/svg"><path fill="#777" d="M13 12.334h2v2h-2zM9 12.334h2v2H9z"/><path fill="#777" d="M5 12.334h12v2H5zM13 8.334h2v2h-2zM9 8.334h2v2H9z"/><path fill="#777" d="M5 8.334h12v2H5zM13 4.334h2v2h-2zM9 4.334h2v2H9z"/><path fill="#777" d="M5 4.334h12v2H5z"/></svg><svg fill="none" viewBox="0 0 22 21" id="icon-comments-complaint-hover" xmlns="http://www.w3.org/2000/svg"><path fill="#E30000" d="M13 12.334h2v2h-2zM9 12.334h2v2H9z"/><path fill="#E30000" d="M5 12.334h12v2H5zM13 8.334h2v2h-2zM9 8.334h2v2H9z"/><path fill="#E30000" d="M5 8.334h12v2H5zM13 4.334h2v2h-2zM9 4.334h2v2H9z"/><path fill="#E30000" d="M5 4.334h12v2H5z"/></svg><svg fill="none" viewBox="0 0 14 14" id="instagram" xmlns="http://www.w3.org/2000/svg"><path d="M7 9.333a2.333 2.333 0 100-4.666 2.333 2.333 0 000 4.666z" fill="#404040"/><path fill-rule="evenodd" clip-rule="evenodd" d="M0 4.2A4.2 4.2 0 014.2 0h5.6A4.2 4.2 0 0114 4.2v5.6A4.2 4.2 0 019.8 14H4.2A4.2 4.2 0 010 9.8V4.2zm11.2-.467a.933.933 0 100-1.866.933.933 0 000 1.866zm-4.2 7a3.733 3.733 0 100-7.466 3.733 3.733 0 000 7.466z" fill="#404040"/></svg><svg fill="none" viewBox="0 0 11 18" id="special-slider-arrow" xmlns="http://www.w3.org/2000/svg"><path d="M10 1L2 9l8 8" stroke="#00B35D" stroke-width="2"/></svg></svg>