<svg width="287" height="76" fill="none" xmlns="http://www.w3.org/2000/svg"><path d="M9.891 72.41V76H8.26v-2.094H.182v-9.519h1.74v8.023h4.8v-8.022h1.755v8.022h1.414zm10.633.014v1.482h-7.138v-9.519h6.948v1.483h-5.18v2.474h4.595V69.8h-4.596v2.625h5.371zm12.306-8.036v9.518h-1.768v-4.08h-4.923v4.08h-1.767v-9.519h1.767v3.93h4.923v-3.93h1.767zm11.454 1.495h-3.155v8.023h-1.754v-8.023h-3.141v-1.495h8.05v1.495zm7.316-1.495c.826 0 1.542.135 2.15.407.616.272 1.087.662 1.413 1.17.327.507.49 1.11.49 1.808 0 .69-.163 1.292-.49 1.809-.326.508-.797.897-1.414 1.17-.607.271-1.323.407-2.148.407h-2.149v2.747h-1.767v-9.519H51.6zm-.08 5.275c.77 0 1.354-.163 1.753-.49.4-.325.599-.792.599-1.4 0-.607-.2-1.074-.599-1.4-.399-.327-.983-.49-1.754-.49h-2.067v3.78h2.067zm22.886 2.747v3.522h-1.632v-2.026h-7.302v2.026h-1.645l.014-3.522h.407c.599-.027 1.016-.467 1.251-1.319.245-.861.395-2.09.45-3.685l.108-3.019h6.976v8.023h1.373zm-6.908-4.84c-.045 1.232-.145 2.261-.299 3.086-.154.816-.399 1.4-.734 1.754h4.827v-6.527h-3.726l-.068 1.686zm17.588 4.854v1.482h-7.14v-9.519h6.95v1.483h-5.181v2.474h4.596V69.8h-4.596v2.625h5.37zm11.978-8.036v9.518h-1.74v-8.023H91.57l-.082 2.38c-.045 1.332-.154 2.416-.326 3.25-.172.825-.449 1.455-.83 1.89-.38.426-.906.639-1.577.639-.236 0-.557-.045-.965-.136l.122-1.537c.118.037.254.055.408.055.553 0 .943-.327 1.17-.98.235-.661.38-1.699.434-3.113l.136-3.944h7.003zm8.96 9.654c-.97 0-1.844-.209-2.624-.626a4.742 4.742 0 01-1.836-1.754c-.444-.752-.666-1.59-.666-2.515s.222-1.759.666-2.502a4.617 4.617 0 011.836-1.754c.78-.427 1.654-.64 2.624-.64.97 0 1.845.213 2.625.64a4.65 4.65 0 011.835 1.74c.445.743.667 1.582.667 2.516 0 .933-.222 1.772-.667 2.515a4.747 4.747 0 01-1.835 1.754c-.78.417-1.655.626-2.625.626zm0-1.55a3.48 3.48 0 001.714-.422c.507-.29.906-.689 1.196-1.196a3.47 3.47 0 00.435-1.727c0-.635-.145-1.206-.435-1.714a3.04 3.04 0 00-1.196-1.196 3.393 3.393 0 00-1.714-.435c-.634 0-1.205.145-1.713.435-.508.28-.907.68-1.197 1.196a3.392 3.392 0 00-.435 1.714c0 .634.145 1.21.435 1.727.29.507.689.906 1.197 1.196a3.478 3.478 0 001.713.422zm15.226-3.536c.607.163 1.07.444 1.387.843.317.39.476.88.476 1.469 0 .834-.308 1.482-.925 1.945-.616.462-1.509.693-2.678.693h-4.515v-9.519h4.256c1.07 0 1.904.213 2.502.64.599.426.898 1.028.898 1.808 0 .499-.123.93-.367 1.292-.236.363-.581.639-1.034.83zm-4.514-.503h2.366c.571 0 1.006-.113 1.305-.34.299-.226.449-.562.449-1.006 0-.444-.15-.78-.449-1.006-.299-.236-.734-.354-1.305-.354h-2.366v2.706zm2.719 4.093c1.251 0 1.877-.471 1.877-1.414 0-.925-.626-1.387-1.877-1.387h-2.719v2.801h2.719zm11.954 1.496c-.97 0-1.845-.209-2.624-.626a4.742 4.742 0 01-1.836-1.754c-.444-.752-.666-1.59-.666-2.515s.222-1.759.666-2.502a4.617 4.617 0 011.836-1.754c.779-.427 1.654-.64 2.624-.64.97 0 1.845.213 2.624.64.78.417 1.392.997 1.836 1.74.444.743.666 1.582.666 2.516 0 .933-.222 1.772-.666 2.515a4.742 4.742 0 01-1.836 1.754c-.779.417-1.654.626-2.624.626zm0-1.55c.635 0 1.206-.14 1.713-.422a3.16 3.16 0 001.197-1.196 3.47 3.47 0 00.435-1.727c0-.635-.145-1.206-.435-1.714a3.036 3.036 0 00-1.197-1.196 3.387 3.387 0 00-1.713-.435c-.635 0-1.206.145-1.713.435-.508.28-.907.68-1.197 1.196a3.392 3.392 0 00-.435 1.714c0 .634.145 1.21.435 1.727.29.507.689.906 1.197 1.196a3.472 3.472 0 001.713.422zm8.971-8.104h1.74v6.758l5.113-6.758h1.645v9.518h-1.74v-6.745l-5.113 6.745h-1.645v-9.519zm4.229-.64c-.816 0-1.433-.167-1.85-.503-.408-.335-.616-.825-.625-1.468h1.237c.009.335.118.593.327.775.208.181.512.272.911.272.39 0 .693-.09.911-.272.226-.181.344-.44.353-.775h1.224c-.009.634-.227 1.124-.653 1.468-.417.336-1.029.503-1.835.503zm14.463.64h1.74v6.758l5.113-6.758h1.645v9.518h-1.74v-6.745l-5.113 6.745h-1.645v-9.519zm21.502 0v9.518h-1.768v-4.08h-4.923v4.08h-1.767v-9.519h1.767v3.93h4.923v-3.93h1.768zm15.424 4.745c0 1.251-.435 2.24-1.305 2.964-.87.726-2.108 1.12-3.712 1.184v1.006h-1.632V73.28c-1.605-.081-2.846-.48-3.726-1.196-.87-.716-1.305-1.7-1.305-2.95 0-1.252.435-2.236 1.305-2.952.88-.725 2.121-1.128 3.726-1.21v-.965h1.632v.965c1.604.082 2.842.485 3.712 1.21.87.716 1.305 1.7 1.305 2.951zm-5.017 2.76c1.088-.081 1.913-.353 2.475-.815.562-.472.843-1.124.843-1.959 0-.834-.286-1.482-.857-1.944-.562-.462-1.382-.73-2.461-.802v5.52zm-4.936-2.76c0 .825.281 1.469.843 1.931.571.462 1.391.739 2.461.83v-5.521c-2.203.163-3.304 1.083-3.304 2.76zm18.092 4.909c-.97 0-1.845-.209-2.624-.626a4.742 4.742 0 01-1.836-1.754c-.444-.752-.666-1.59-.666-2.515s.222-1.759.666-2.502a4.617 4.617 0 011.836-1.754c.779-.427 1.654-.64 2.624-.64.97 0 1.845.213 2.624.64.78.417 1.392.997 1.836 1.74.444.743.666 1.582.666 2.516 0 .933-.222 1.772-.666 2.515a4.742 4.742 0 01-1.836 1.754c-.779.417-1.654.626-2.624.626zm0-1.55c.634 0 1.206-.14 1.713-.422a3.16 3.16 0 001.197-1.196 3.47 3.47 0 00.435-1.727c0-.635-.145-1.206-.435-1.714a3.036 3.036 0 00-1.197-1.196 3.39 3.39 0 00-1.713-.435c-.635 0-1.206.145-1.713.435-.508.28-.907.68-1.197 1.196a3.392 3.392 0 00-.435 1.714c0 .634.145 1.21.435 1.727.29.507.689.906 1.197 1.196a3.472 3.472 0 001.713.422zm12.873-8.104c.825 0 1.541.135 2.149.407.616.272 1.088.662 1.414 1.17.326.507.489 1.11.489 1.808 0 .69-.163 1.292-.489 1.809-.326.508-.798.897-1.414 1.17-.608.271-1.324.407-2.149.407h-2.148v2.747h-1.768v-9.519h3.916zm-.081 5.275c.77 0 1.355-.163 1.754-.49.399-.325.598-.792.598-1.4 0-.607-.199-1.074-.598-1.4-.399-.327-.984-.49-1.754-.49h-2.067v3.78h2.067zm16.426 4.243l-.014-6.31-3.127 5.222h-.789l-3.128-5.14v6.228h-1.672v-9.519h1.455l3.766 6.296 3.726-6.296h1.442l.027 9.519h-1.686zm12.535-2.203h-4.759l-.938 2.203h-1.822l4.283-9.519h1.741l4.297 9.519h-1.85l-.952-2.203zm-.584-1.387l-1.795-4.16-1.782 4.16h3.577zm16.444 2.094V76h-1.632v-2.094h-8.077v-9.519h1.741v8.023h4.8v-8.022h1.754v8.022h1.414zm3.508-8.022h1.741v6.758l5.112-6.758h1.646v9.518h-1.741v-6.745l-5.113 6.745h-1.645v-9.519zm13.058 0h1.74v6.758l5.113-6.758h1.645v9.518h-1.74v-6.745l-5.113 6.745h-1.645v-9.519zM15.61 40.816h-4.895v14.577H0V17.319h10.715v14.794h5.167l9.084-14.794h11.313L24.367 35.703l12.02 19.69H24.26l-8.65-14.577z" fill="#404040"/><path d="M65.21 47.996h-16.1l-2.99 7.397H35.131L51.94 17.319h10.606l16.861 38.074H68.202l-2.992-7.397zm-3.154-7.942L57.16 27.871l-4.896 12.183h9.79zm57.449-22.735v38.074h-10.661V25.858H94.376v29.535H83.77V17.319h35.735zm8.139 0h10.606v22.355l15.719-22.355h10.117v38.074H153.48v-22.3l-15.665 22.3h-10.171V17.319zm75.294 8.539h-11.639v29.535h-10.607V25.858h-11.694V17.32h33.94v8.54zm29.324 22.138h-16.1l-2.992 7.397h-10.987l16.807-38.074h10.606l16.862 38.074h-11.205l-2.991-7.397zm-3.155-7.942l-4.895-12.183-4.895 12.183h9.79zm57.656-22.735v38.074h-10.606V25.858h-10.933l-.217 6.201c-.181 5.44-.635 9.863-1.36 13.272-.689 3.408-1.885 6.055-3.59 7.94-1.704 1.85-4.115 2.774-7.234 2.774-1.45 0-3.082-.217-4.895-.652l.598-8.812c.472.11.961.164 1.469.164 1.414 0 2.502-.562 3.263-1.686.762-1.125 1.306-2.684 1.632-4.678.326-2.03.544-4.66.653-7.887l.544-15.175h30.676z" fill="#404040"/><path d="M.045 0h36.23v8.549H.045V0z" fill="#00B25D"/></svg>