<?xml version="1.0" standalone="no"?>
<!DOCTYPE svg PUBLIC "-//W3C//DTD SVG 20010904//EN"
 "http://www.w3.org/TR/2001/REC-SVG-20010904/DTD/svg10.dtd">
<svg version="1.0" xmlns="http://www.w3.org/2000/svg"
 width="903.000000pt" height="903.000000pt" viewBox="0 0 903.000000 903.000000"
 preserveAspectRatio="xMidYMid meet">
<metadata>
Created by potrace 1.11, written by Peter Selinger 2001-2013
</metadata>
<g transform="translate(0.000000,903.000000) scale(0.100000,-0.100000)"
fill="#000000" stroke="none">
<path d="M629 9026 c-2 -2 -22 -6 -45 -9 -52 -7 -165 -50 -224 -84 -158 -92
-274 -241 -332 -425 l-23 -73 0 -3920 0 -3920 23 -75 c79 -250 264 -430 512
-497 62 -17 268 -18 3975 -18 3721 0 3913 1 3975 18 245 67 429 244 508 487
l27 85 0 3920 c0 3772 -1 3922 -18 3980 -42 137 -122 268 -214 348 -99 87
-179 129 -334 175 -24 7 -7822 15 -7830 8z"/>
</g>
</svg>
