<svg width="48" height="48" viewBox="0 0 48 48" fill="none" xmlns="http://www.w3.org/2000/svg">
<path fill-rule="evenodd" clip-rule="evenodd" d="M29.6839 16.116L25.994 27.6639C25.6762 28.6584 24.752 29.3334 23.7079 29.3334H17.0142L13.9436 36.5408C13.5666 37.4257 12.6976 38.0001 11.7356 38.0001H6C4.89543 38.0001 4 37.1047 4 36.0001C4 34.8955 4.89543 34.0001 6 34.0001H10.6781L13.7487 26.7928C14.1257 25.9078 14.9947 25.3334 15.9567 25.3334H22.5394L27.2814 10.4928C27.9751 8.32186 31.0203 8.24943 31.8164 10.385L37.3889 25.3334H42C43.1046 25.3334 44 26.2289 44 27.3334C44 28.438 43.1046 29.3334 42 29.3334H36.2778C35.2756 29.3334 34.379 28.7108 34.029 27.7717L29.6839 16.116Z" fill="url(#paint0_linear_66_13938)"/>
<defs>
<linearGradient id="paint0_linear_66_13938" x1="4" y1="9.80057" x2="28.7326" y2="47.183" gradientUnits="userSpaceOnUse">
<stop stop-color="#274786"/>
<stop offset="0.489583" stop-color="#8B17AA"/>
<stop offset="1" stop-color="#A5347B"/>
</linearGradient>
</defs>
</svg>
