<svg width="48" height="48" viewBox="0 0 48 48" fill="none" xmlns="http://www.w3.org/2000/svg">
<path d="M22.0001 37.9984C22.0001 36.8946 22.8949 35.9999 23.9986 35.9999C25.1023 35.9999 25.9971 36.8946 25.9971 37.9984C25.9971 39.1021 25.1023 39.9968 23.9986 39.9968C22.8949 39.9968 22.0001 39.1021 22.0001 37.9984Z" fill="url(#paint0_linear_66_13955)"/>
<path fill-rule="evenodd" clip-rule="evenodd" d="M10 8C10 4.68629 12.6863 2 16 2H32C35.3137 2 38 4.68629 38 8V40C38 43.3137 35.3137 46 32 46H16C12.6863 46 10 43.3137 10 40V8ZM18 6L16 6C14.8954 6 14 6.89543 14 8V40C14 41.1046 14.8954 42 16 42H32C33.1046 42 34 41.1046 34 40V8C34 6.89543 33.1046 6 32 6H30C30 8.20914 28.2091 10 26 10H22C19.7909 10 18 8.20914 18 6Z" fill="url(#paint1_linear_66_13955)"/>
<defs>
<linearGradient id="paint0_linear_66_13955" x1="10" y1="3.47386" x2="48.1071" y2="30.2093" gradientUnits="userSpaceOnUse">
<stop stop-color="#274786"/>
<stop offset="0.489583" stop-color="#8B17AA"/>
<stop offset="1" stop-color="#A5347B"/>
</linearGradient>
<linearGradient id="paint1_linear_66_13955" x1="10" y1="3.47386" x2="48.1071" y2="30.2093" gradientUnits="userSpaceOnUse">
<stop stop-color="#274786"/>
<stop offset="0.489583" stop-color="#8B17AA"/>
<stop offset="1" stop-color="#A5347B"/>
</linearGradient>
</defs>
</svg>
