<svg width="16" height="16" viewBox="0 0 16 16" fill="none" xmlns="http://www.w3.org/2000/svg">
<path d="M13.9615 12.0716C13.738 12.5809 13.4736 13.0498 13.1672 13.4808C12.7495 14.0684 12.4075 14.4751 12.1439 14.701C11.7354 15.0717 11.2977 15.2615 10.8289 15.2723C10.4924 15.2723 10.0866 15.1779 9.6142 14.9862C9.14026 14.7954 8.70472 14.701 8.30647 14.701C7.8888 14.701 7.44085 14.7954 6.96171 14.9862C6.48184 15.1779 6.09527 15.2777 5.79971 15.2876C5.35021 15.3065 4.90217 15.1113 4.45495 14.701C4.16951 14.4553 3.81248 14.0342 3.38478 13.4376C2.92588 12.8005 2.54861 12.0617 2.25305 11.2195C1.93651 10.3098 1.77783 9.42881 1.77783 8.57595C1.77783 7.599 1.99178 6.75639 2.4203 6.05029C2.75708 5.48312 3.20512 5.03573 3.76588 4.70729C4.32664 4.37885 4.93253 4.21148 5.58503 4.20077C5.94206 4.20077 6.41026 4.30974 6.99208 4.5239C7.57226 4.73878 7.94479 4.84775 8.10812 4.84775C8.23023 4.84775 8.64407 4.72033 9.34564 4.46631C10.0091 4.23073 10.569 4.13319 11.0277 4.17161C12.2707 4.2706 13.2045 4.75408 13.8256 5.62512C12.7139 6.28974 12.164 7.22062 12.175 8.41479C12.185 9.34495 12.527 10.119 13.1991 10.7336C13.5037 11.0188 13.8438 11.2393 14.2223 11.3959C14.1402 11.6307 14.0536 11.8557 13.9615 12.0716ZM11.1107 1.00275C11.1107 1.73181 10.8408 2.41253 10.3027 3.04259C9.65342 3.79161 8.86805 4.22443 8.01638 4.15614C8.00553 4.06867 7.99923 3.97662 7.99923 3.87989C7.99923 3.18 8.30802 2.43097 8.85637 1.81854C9.13014 1.50846 9.47832 1.25063 9.90055 1.04496C10.3219 0.842349 10.7204 0.730301 11.0952 0.711117C11.1062 0.808578 11.1107 0.906048 11.1107 1.00274V1.00275Z" fill="white"/>
</svg>
