<svg width="24" height="24" viewBox="0 0 24 24" fill="none" xmlns="http://www.w3.org/2000/svg">
<path fill-rule="evenodd" clip-rule="evenodd" d="M15 5C13.8954 5 13 5.89543 13 7C13 8.10457 13.8954 9 15 9C16.1046 9 17 8.10457 17 7C17 5.89543 16.1046 5 15 5ZM11.126 6C11.5701 4.27477 13.1362 3 15 3C16.8638 3 18.4299 4.27477 18.874 6H20C20.5523 6 21 6.44772 21 7C21 7.55228 20.5523 8 20 8H18.874C18.4299 9.72523 16.8638 11 15 11C13.1362 11 11.5701 9.72523 11.126 8L4 8C3.44772 8 3 7.55228 3 7C3 6.44771 3.44772 6 4 6L11.126 6Z" fill="white"/>
<path fill-rule="evenodd" clip-rule="evenodd" d="M11 17C11 15.8954 10.1046 15 9 15C7.89543 15 7 15.8954 7 17C7 18.1046 7.89543 19 9 19C10.1046 19 11 18.1046 11 17ZM9 13C11.2091 13 13 14.7909 13 17C13 19.2091 11.2091 21 9 21C6.79086 21 5 19.2091 5 17C5 14.7909 6.79086 13 9 13Z" fill="white"/>
<path fill-rule="evenodd" clip-rule="evenodd" d="M11 17C11 16.4477 11.4477 16 12 16H20C20.5523 16 21 16.4477 21 17C21 17.5523 20.5523 18 20 18H12C11.4477 18 11 17.5523 11 17Z" fill="white"/>
<path fill-rule="evenodd" clip-rule="evenodd" d="M3 17C3 16.4477 3.44772 16 4 16H6C6.55228 16 7 16.4477 7 17C7 17.5523 6.55228 18 6 18H4C3.44772 18 3 17.5523 3 17Z" fill="white"/>
</svg>
