<svg width="16" height="16" viewBox="0 0 16 16" fill="none" xmlns="http://www.w3.org/2000/svg">
<path d="M2.05029 0.905815C2.62043 0.591416 3.29414 0.584083 3.86794 0.901232L10.9772 4.82526L8.73241 7.07005L2.05029 0.905815Z" fill="white"/>
<path d="M1.12532 2.432C1.12532 2.10843 1.21882 1.8032 1.38198 1.53646L8.08426 7.71903L1.36456 14.4387C1.21057 14.1775 1.12532 13.8787 1.12532 13.5652V2.432Z" fill="white"/>
<path d="M13.9534 6.46782L11.8122 5.2863L9.40609 7.6915L12.3548 10.4111L13.9543 9.5284C14.53 9.20942 14.8746 8.63745 14.8746 7.99765C14.8737 7.35785 14.53 6.78589 13.9534 6.46782Z" fill="white"/>
<path d="M2.02002 15.0785L8.75805 8.3405L11.5097 10.8786L3.86791 15.096C3.58101 15.2545 3.26753 15.3334 2.95588 15.3334C2.63323 15.3334 2.31242 15.2454 2.02002 15.0785Z" fill="white"/>
</svg>
