<svg width="24" height="24" viewBox="0 0 24 24" fill="none" xmlns="http://www.w3.org/2000/svg">
<g clip-path="url(#clip0_79_5046)">
<g filter="url(#filter0_d_79_5046)">
<path d="M16.7135 10.5474C16.7135 10.6961 16.7879 10.133 17.0216 9.7611C17.1118 9.4934 17.3046 9.2725 17.5577 9.147C17.683 9.0848 17.8193 9.0479 17.9589 9.0384C18.0984 9.029 18.2385 9.0471 18.371 9.0917C18.5036 9.1364 18.626 9.2067 18.7314 9.2987C18.8368 9.3907 18.923 9.5025 18.9852 9.6278C19.0473 9.7531 19.0842 9.8894 19.0937 10.0289C19.1031 10.1685 19.085 10.3085 19.0404 10.4411C19.0404 11.1424 19.0404 11.1105 19.0404 11.578C19.0404 12.0455 19.0404 12.4492 19.0404 12.853C18.9996 13.4745 18.9143 14.0923 18.7854 14.7017C18.6145 15.2181 18.3789 15.7108 18.0841 16.168C17.5676 16.7451 17.1413 17.3971 16.8198 18.1017C16.7362 18.4494 16.7004 18.8069 16.7135 19.1642C16.7139 19.4942 16.7568 19.8227 16.841 20.1417C16.4067 20.1895 15.9685 20.1895 15.5341 20.1417C15.1198 20.078 14.5991 19.2492 14.4716 18.9942C14.4393 18.9242 14.3876 18.8649 14.3227 18.8234C14.2577 18.7818 14.1822 18.7597 14.1051 18.7597C14.028 18.7597 13.9525 18.7818 13.8875 18.8234C13.8225 18.8649 13.7708 18.9242 13.7385 18.9942C13.5048 19.398 12.9948 20.1311 12.6229 20.1736C11.9216 20.2586 10.4448 20.1736 9.29731 20.1736C9.29731 20.1736 9.48851 19.1111 9.05291 18.7286C8.61731 18.3461 8.17101 17.8999 7.83101 17.6024L6.9491 16.6249C6.3285 16.0466 5.87361 15.3129 5.63161 14.4999C5.40851 13.5011 5.42981 13.0124 5.63161 12.6192C5.85481 12.2926 6.19221 12.0614 6.57731 11.9711C6.88601 11.9167 7.20331 11.9386 7.50161 12.0349C7.71021 12.1222 7.8904 12.2656 8.0223 12.4492C8.2666 12.7786 8.341 12.938 8.256 12.5767C8.171 12.2155 8.04351 11.6842 7.82041 10.9299C7.63981 10.3455 7.45911 10.0161 7.32101 9.623C7.18291 9.2299 7.0023 8.858 6.7898 8.3692C6.5973 7.8702 6.4376 7.3591 6.3116 6.8392C6.2635 6.6251 6.2623 6.4032 6.3082 6.1886C6.3541 5.974 6.44581 5.7718 6.57731 5.5961C6.76401 5.4124 6.996 5.2812 7.2498 5.2159C7.5035 5.1506 7.77 5.1535 8.0223 5.2242C8.4232 5.398 8.76081 5.6911 8.98911 6.0636C9.30681 6.5775 9.56361 7.1266 9.75411 7.6999C10.1044 8.612 10.3538 9.5597 10.4979 10.5261C10.4719 9.9559 10.5184 9.3847 10.636 8.8261C10.695 8.6565 10.7916 8.5025 10.9185 8.3755C11.0455 8.2485 11.1996 8.152 11.3691 8.093C11.6848 7.9918 12.0205 7.9699 12.3466 8.0292C12.6718 8.1015 12.9591 8.2905 13.1541 8.5605C13.3981 9.1815 13.5381 9.8384 13.5685 10.5049C13.5995 9.9353 13.6994 9.3716 13.866 8.8261C14.0442 8.5766 14.3032 8.3964 14.5991 8.3161C14.9505 8.2526 15.3103 8.2526 15.6616 8.3161C15.9491 8.4136 16.2007 8.5949 16.3841 8.8367C16.6088 9.4003 16.745 9.9953 16.7879 10.6005" fill="white"/>
<path d="M16.7135 10.5474C16.7135 10.6961 16.7879 10.133 17.0216 9.7611C17.1118 9.4934 17.3046 9.2725 17.5577 9.147C17.683 9.0848 17.8193 9.0479 17.9589 9.0384C18.0984 9.029 18.2385 9.0471 18.371 9.0917C18.5036 9.1364 18.626 9.2067 18.7314 9.2987C18.8368 9.3907 18.923 9.5025 18.9852 9.6278C19.0473 9.7531 19.0842 9.8894 19.0937 10.0289C19.1031 10.1685 19.085 10.3086 19.0404 10.4411C19.0404 11.1424 19.0404 11.1105 19.0404 11.578C19.0404 12.0455 19.0404 12.4492 19.0404 12.853C18.9996 13.4745 18.9143 14.0923 18.7854 14.7017C18.6145 15.2181 18.3789 15.7108 18.0841 16.168C17.5676 16.7451 17.1413 17.3971 16.8198 18.1017C16.7362 18.4494 16.7004 18.8069 16.7135 19.1642C16.7139 19.4942 16.7568 19.8227 16.841 20.1417C16.4067 20.1895 15.9685 20.1895 15.5341 20.1417C15.1198 20.078 14.5991 19.2492 14.4716 18.9942C14.4393 18.9242 14.3876 18.8649 14.3227 18.8234C14.2577 18.7818 14.1822 18.7597 14.1051 18.7597C14.028 18.7597 13.9525 18.7818 13.8875 18.8234C13.8225 18.8649 13.7708 18.9242 13.7385 18.9942C13.5048 19.398 12.9948 20.1311 12.6229 20.1736C11.9216 20.2586 10.4448 20.1736 9.29731 20.1736C9.29731 20.1736 9.48851 19.1111 9.05291 18.7286C8.61731 18.3461 8.17101 17.8999 7.83101 17.6024L6.9491 16.6249C6.3285 16.0466 5.87361 15.3129 5.63161 14.4999C5.40851 13.5011 5.42981 13.0124 5.63161 12.6192C5.85481 12.2926 6.19221 12.0614 6.57731 11.9711C6.88601 11.9167 7.20331 11.9386 7.50161 12.0349C7.71021 12.1222 7.8904 12.2656 8.0223 12.4492C8.2666 12.7786 8.341 12.938 8.256 12.5767C8.171 12.2155 8.04351 11.6842 7.82041 10.9299C7.63981 10.3455 7.45911 10.0161 7.32101 9.623C7.18291 9.2299 7.0023 8.858 6.7898 8.3692C6.5973 7.8702 6.4376 7.3591 6.3116 6.8392C6.2635 6.6251 6.2623 6.4032 6.3082 6.1886C6.3541 5.974 6.44581 5.7718 6.57731 5.5961C6.76401 5.4124 6.996 5.2812 7.2498 5.2159C7.5035 5.1506 7.77 5.1535 8.0223 5.2242C8.4232 5.398 8.76081 5.6911 8.98911 6.0636C9.30681 6.5775 9.56361 7.1266 9.75411 7.6999C10.1044 8.612 10.3538 9.5597 10.4979 10.5261C10.4719 9.9559 10.5184 9.3847 10.636 8.8261C10.695 8.6565 10.7916 8.5025 10.9185 8.3755C11.0455 8.2485 11.1996 8.152 11.3691 8.093C11.6848 7.9918 12.0205 7.9699 12.3466 8.0292C12.6718 8.1015 12.9591 8.2905 13.1541 8.5605C13.3981 9.1815 13.5381 9.8384 13.5685 10.5049C13.5995 9.9353 13.6994 9.3716 13.866 8.8261C14.0442 8.5766 14.3032 8.3964 14.5991 8.3161C14.9505 8.2526 15.3103 8.2526 15.6616 8.3161C15.9491 8.4136 16.2007 8.5949 16.3841 8.8367C16.5782 9.3875 16.6892 9.964 16.7135 10.5474Z" stroke="black" stroke-width="0.75" stroke-linejoin="round"/>
<path d="M15.6829 17.0074V13.3311" stroke="black" stroke-width="0.75" stroke-linecap="round"/>
<path d="M13.5367 17.018L13.5261 13.3311" stroke="black" stroke-width="0.75" stroke-linecap="round"/>
<path d="M11.4221 13.363L11.4434 16.9967" stroke="black" stroke-width="0.75" stroke-linecap="round"/>
</g>
</g>
<defs>
<filter id="filter0_d_79_5046" x="3.09717" y="4.79396" width="18.374" height="19.7924" filterUnits="userSpaceOnUse" color-interpolation-filters="sRGB">
<feFlood flood-opacity="0" result="BackgroundImageFix"/>
<feColorMatrix in="SourceAlpha" type="matrix" values="0 0 0 0 0 0 0 0 0 0 0 0 0 0 0 0 0 0 127 0" result="hardAlpha"/>
<feOffset dy="2"/>
<feGaussianBlur stdDeviation="1"/>
<feColorMatrix type="matrix" values="0 0 0 0 0 0 0 0 0 0 0 0 0 0 0 0 0 0 0.25 0"/>
<feBlend mode="normal" in2="BackgroundImageFix" result="effect1_dropShadow_79_5046"/>
<feBlend mode="normal" in="SourceGraphic" in2="effect1_dropShadow_79_5046" result="shape"/>
</filter>
<clipPath id="clip0_79_5046">
<rect width="24" height="24" fill="white"/>
</clipPath>
</defs>
</svg>
