<svg xmlns="http://www.w3.org/2000/svg" xmlns:xlink="http://www.w3.org/1999/xlink" width="806" height="577"><defs><rect id="c" width="530.967" height="2.693" x="-263.957" y="287.658" rx="1.347"/><filter id="a" width="112.5%" height="2572.4%" x="-6.3%" y="-1236.2%" filterUnits="objectBoundingBox"><feGaussianBlur in="SourceGraphic" stdDeviation="10.0986959 0"/></filter><filter id="b" width="113.1%" height="2683.8%" x="-6.6%" y="-1291.9%" filterUnits="objectBoundingBox"><feOffset dy="1" in="SourceAlpha" result="shadowOffsetOuter1"/><feGaussianBlur in="shadowOffsetOuter1" result="shadowBlurOuter1" stdDeviation=".5"/><feComposite in="shadowBlurOuter1" in2="SourceAlpha" operator="out" result="shadowBlurOuter1"/><feColorMatrix in="shadowBlurOuter1" result="shadowMatrixOuter1" values="0 0 0 0 0 0 0 0 0 0 0 0 0 0 0 0 0 0 0.5 0"/><feOffset dy="-1" in="SourceAlpha" result="shadowOffsetOuter2"/><feGaussianBlur in="shadowOffsetOuter2" result="shadowBlurOuter2" stdDeviation="1"/><feComposite in="shadowBlurOuter2" in2="SourceAlpha" operator="out" result="shadowBlurOuter2"/><feColorMatrix in="shadowBlurOuter2" result="shadowMatrixOuter2" values="0 0 0 0 0 0 0 0 0 0 0 0 0 0 0 0 0 0 0.5 0"/><feMerge><feMergeNode in="shadowMatrixOuter1"/><feMergeNode in="shadowMatrixOuter2"/></feMerge></filter><linearGradient id="e" x1="1.333%" y1="6.297%" y2="6.297%"><stop offset="0%" stop-color="#A0A4A7"/><stop offset="1.772%" stop-color="#B7BCBE"/><stop offset="3.479%" stop-color="#262B30"/><stop offset="49.589%" stop-color="#7B8185"/><stop offset="79.601%" stop-color="#61686C"/><stop offset="96.752%" stop-color="#262C31"/><stop offset="98.497%" stop-color="#CED2D3"/><stop offset="100%" stop-color="#C0C3C6"/></linearGradient><path id="d" d="M25.25 0h525.215c13.945 0 25.25 11.313 25.25 25.276v754.835c0 13.96-11.305 25.276-25.25 25.276H25.25C11.304 805.387 0 794.074 0 780.11V25.276C0 11.316 11.305 0 25.25 0z"/><linearGradient id="f" x1="0%" x2="98.791%" y1="6.067%" y2="6.067%"><stop offset="0%" stop-color="#090F14"/><stop offset="9.105%" stop-color="#454C4F"/><stop offset="28.182%" stop-color="#B5B1B1"/><stop offset="55.63%" stop-color="#8B8E91"/><stop offset="87.123%" stop-color="#50565C"/><stop offset="100%" stop-color="#141B20"/></linearGradient><linearGradient id="h" x1="62.424%" x2="62.424%" y1="2.603%" y2="97.721%"><stop offset="0%" stop-color="#0A0F14"/><stop offset="6.202%" stop-color="#343B3F"/><stop offset="27.357%" stop-color="#808589"/><stop offset="69.812%" stop-color="#808589"/><stop offset="98.152%" stop-color="#252D31"/><stop offset="100%" stop-color="#9BA0A3"/></linearGradient><linearGradient id="i" x1="37.785%" x2="37.785%" y1="2.172%" y2="98.305%"><stop offset="0%" stop-color="#151B21"/><stop offset="9.672%" stop-color="#78787E"/><stop offset="17.893%" stop-color="#92979B"/><stop offset="44.965%" stop-color="#A3A8A9"/><stop offset="62.565%" stop-color="#B1B4B7"/><stop offset="80.235%" stop-color="#43494D"/><stop offset="97.134%" stop-color="#24292F"/><stop offset="98.661%" stop-color="#A6ABAD"/><stop offset="100%" stop-color="#C0C3C6"/></linearGradient><path id="k" d="M25.25 0h525.215c13.945 0 25.25 11.313 25.25 25.276v754.835c0 13.96-11.305 25.276-25.25 25.276H25.25C11.304 805.387 0 794.074 0 780.11V25.276C0 11.316 11.305 0 25.25 0z"/><filter id="j" width="100.5%" height="100.4%" x="-.3%" y="-.2%" filterUnits="objectBoundingBox"><feGaussianBlur in="SourceAlpha" result="shadowBlurInner1" stdDeviation="1"/><feOffset dy="-1" in="shadowBlurInner1" result="shadowOffsetInner1"/><feComposite in="shadowOffsetInner1" in2="SourceAlpha" k2="-1" k3="1" operator="arithmetic" result="shadowInnerInner1"/><feColorMatrix in="shadowInnerInner1" values="0 0 0 0 0 0 0 0 0 0 0 0 0 0 0 0 0 0 0.5 0"/></filter><linearGradient id="o" x1="11.403%" x2="11.403%" y1="0%" y2="100%"><stop offset="0%" stop-color="#5B5F64"/><stop offset=".627%" stop-color="#242A2F"/><stop offset="23.774%" stop-color="#7C8083"/><stop offset="49.149%" stop-color="#DBDBDB"/><stop offset="73.794%" stop-color="#85898B"/><stop offset="98.308%" stop-color="#575D61"/><stop offset="99.021%" stop-color="#96999D"/><stop offset="100%" stop-color="#545758"/></linearGradient><path id="m" d="M118.804 665.917c0 12.008 9.721 21.739 21.714 21.739h525.216c11.992 0 21.714-9.733 21.714-21.739V-88.917c0-12.008-9.72-21.739-21.714-21.739H140.518c-11.992 0-21.714 9.733-21.714 21.739v754.834z"/><filter id="l" width="101.3%" height="100.9%" x="-.7%" y="-.5%" filterUnits="objectBoundingBox"><feMorphology in="SourceAlpha" operator="dilate" radius="1.258" result="shadowSpreadOuter1"/><feOffset in="shadowSpreadOuter1" result="shadowOffsetOuter1"/><feGaussianBlur in="shadowOffsetOuter1" result="shadowBlurOuter1" stdDeviation=".5"/><feComposite in="shadowBlurOuter1" in2="SourceAlpha" operator="out" result="shadowBlurOuter1"/><feColorMatrix in="shadowBlurOuter1" values="0 0 0 0 0 0 0 0 0 0 0 0 0 0 0 0 0 0 0.3 0"/></filter><filter id="n" width="101.1%" height="100.8%" x="-.6%" y="-.4%" filterUnits="objectBoundingBox"><feMorphology in="SourceAlpha" radius="1" result="shadowSpreadInner1"/><feOffset in="shadowSpreadInner1" result="shadowOffsetInner1"/><feComposite in="shadowOffsetInner1" in2="SourceAlpha" k2="-1" k3="1" operator="arithmetic" result="shadowInnerInner1"/><feColorMatrix in="shadowInnerInner1" values="0 0 0 0 1 0 0 0 0 1 0 0 0 0 1 0 0 0 0.4 0"/></filter><path id="q" d="M28.28 14.152C28.28 6.336 21.95 0 14.14 0 6.33 0 0 6.336 0 14.152c0 7.816 6.33 14.152 14.14 14.152 7.81 0 14.14-6.336 14.14-14.152z"/><filter id="p" width="110.6%" height="110.6%" x="-5.3%" y="-5.3%" filterUnits="objectBoundingBox"><feMorphology in="SourceAlpha" operator="dilate" radius=".5" result="shadowSpreadOuter1"/><feOffset in="shadowSpreadOuter1" result="shadowOffsetOuter1"/><feColorMatrix in="shadowOffsetOuter1" values="0 0 0 0 1 0 0 0 0 1 0 0 0 0 1 0 0 0 0.1 0"/></filter><path id="s" d="M1.664 14.152c0-6.897 5.586-12.487 12.476-12.487 6.891 0 12.477 5.59 12.477 12.487 0 6.896-5.586 12.487-12.477 12.487-6.89 0-12.476-5.59-12.476-12.487z"/><filter id="r" width="100%" height="100%" x="0%" y="0%" filterUnits="objectBoundingBox"><feOffset in="SourceAlpha" result="shadowOffsetInner1"/><feComposite in="shadowOffsetInner1" in2="SourceAlpha" k2="-1" k3="1" operator="arithmetic" result="shadowInnerInner1"/><feColorMatrix in="shadowInnerInner1" values="0 0 0 0 1 0 0 0 0 1 0 0 0 0 1 0 0 0 0.1 0"/></filter><path id="t" d="M28.28 14.152c0 7.816-6.33 14.152-14.14 14.152C6.33 28.304 0 21.968 0 14.152 0 6.336 6.33 0 14.14 0c7.81 0 14.14 6.336 14.14 14.152zm-26.616 0c0 6.896 5.586 12.487 12.476 12.487 6.891 0 12.477-5.59 12.477-12.487S21.031 1.665 14.14 1.665c-6.89 0-12.476 5.59-12.476 12.487z"/><linearGradient id="w" x1="24.627%" x2="72.273%" y1="20.78%" y2="100%"><stop offset="0%" stop-color="#1F1F1F"/><stop offset="100%" stop-color="#6A6A6C"/></linearGradient><ellipse id="v" cx="4.293" cy="4.296" rx="4.293" ry="4.296"/><filter id="u" width="100%" height="100%" x="0%" y="0%" filterUnits="objectBoundingBox"><feOffset in="SourceAlpha" result="shadowOffsetOuter1"/><feColorMatrix in="shadowOffsetOuter1" values="0 0 0 0 1 0 0 0 0 1 0 0 0 0 1 0 0 0 0.1 0"/></filter><filter id="x" width="123.3%" height="123.3%" x="-11.6%" y="-11.6%" filterUnits="objectBoundingBox"><feGaussianBlur in="SourceAlpha" result="shadowBlurInner1" stdDeviation=".5"/><feOffset dy="1" in="shadowBlurInner1" result="shadowOffsetInner1"/><feComposite in="shadowOffsetInner1" in2="SourceAlpha" k2="-1" k3="1" operator="arithmetic" result="shadowInnerInner1"/><feColorMatrix in="shadowInnerInner1" result="shadowMatrixInner1" values="0 0 0 0 0 0 0 0 0 0 0 0 0 0 0 0 0 0 0.5 0"/><feMorphology in="SourceAlpha" radius="1" result="shadowSpreadInner2"/><feGaussianBlur in="shadowSpreadInner2" result="shadowBlurInner2" stdDeviation=".5"/><feOffset in="shadowBlurInner2" result="shadowOffsetInner2"/><feComposite in="shadowOffsetInner2" in2="SourceAlpha" k2="-1" k3="1" operator="arithmetic" result="shadowInnerInner2"/><feColorMatrix in="shadowInnerInner2" result="shadowMatrixInner2" values="0 0 0 0 0 0 0 0 0 0 0 0 0 0 0 0 0 0 0.2 0"/><feMerge><feMergeNode in="shadowMatrixInner1"/><feMergeNode in="shadowMatrixInner2"/></feMerge></filter><ellipse id="y" cx="4.293" cy="4.296" rx="2.273" ry="2.274"/><filter id="z" width="232%" height="231.9%" x="-66%" y="-66%" filterUnits="objectBoundingBox"><feMorphology in="SourceAlpha" operator="dilate" radius=".5" result="shadowSpreadOuter1"/><feOffset in="shadowSpreadOuter1" result="shadowOffsetOuter1"/><feGaussianBlur in="shadowOffsetOuter1" result="shadowBlurOuter1" stdDeviation=".5"/><feColorMatrix in="shadowBlurOuter1" values="0 0 0 0 0 0 0 0 0 0 0 0 0 0 0 0 0 0 1 0"/></filter><filter id="A" width="151.1%" height="236%" x="-25.5%" y="-68%" filterUnits="objectBoundingBox"><feGaussianBlur in="SourceGraphic" stdDeviation=".344"/></filter><filter id="C" width="158.3%" height="236%" x="-29.2%" y="-68%" filterUnits="objectBoundingBox"><feGaussianBlur in="SourceGraphic" stdDeviation=".344"/></filter><ellipse id="D" cx="4.293" cy="4.296" rx="2.273" ry="2.274"/><filter id="E" width="155.1%" height="155.1%" x="-27.6%" y="-27.5%" filterUnits="objectBoundingBox"><feGaussianBlur in="SourceAlpha" result="shadowBlurInner1" stdDeviation=".5"/><feOffset in="shadowBlurInner1" result="shadowOffsetInner1"/><feComposite in="shadowOffsetInner1" in2="SourceAlpha" k2="-1" k3="1" operator="arithmetic" result="shadowInnerInner1"/><feColorMatrix in="shadowInnerInner1" result="shadowMatrixInner1" values="0 0 0 0 1 0 0 0 0 1 0 0 0 0 1 0 0 0 0.2 0"/><feGaussianBlur in="SourceAlpha" result="shadowBlurInner2" stdDeviation=".5"/><feOffset dx="1" dy="1" in="shadowBlurInner2" result="shadowOffsetInner2"/><feComposite in="shadowOffsetInner2" in2="SourceAlpha" k2="-1" k3="1" operator="arithmetic" result="shadowInnerInner2"/><feColorMatrix in="shadowInnerInner2" result="shadowMatrixInner2" values="0 0 0 0 0 0 0 0 0 0 0 0 0 0 0 0 0 0 0.2 0"/><feGaussianBlur in="SourceAlpha" result="shadowBlurInner3" stdDeviation=".5"/><feOffset in="shadowBlurInner3" result="shadowOffsetInner3"/><feComposite in="shadowOffsetInner3" in2="SourceAlpha" k2="-1" k3="1" operator="arithmetic" result="shadowInnerInner3"/><feColorMatrix in="shadowInnerInner3" result="shadowMatrixInner3" values="0 0 0 0 0 0 0 0 0 0 0 0 0 0 0 0 0 0 0.2 0"/><feMerge><feMergeNode in="shadowMatrixInner1"/><feMergeNode in="shadowMatrixInner2"/><feMergeNode in="shadowMatrixInner3"/></feMerge></filter></defs><g fill="none" fill-rule="evenodd"><g fill="#000" filter="url(#a)" transform="rotate(90 1.527 289.005)"><use filter="url(#b)" xlink:href="#c"/><use fill-opacity=".6" xlink:href="#c"/></g><g transform="rotate(90 402.588 403.231)"><mask id="g" fill="#fff"><use xlink:href="#d"/></mask><use fill="url(#e)" xlink:href="#d"/><use fill="#000" fill-opacity=".7" xlink:href="#d"/><path fill="url(#f)" d="M0 779.863h574.704v48.52H0z" mask="url(#g)" opacity=".3"/><path fill="url(#h)" d="M12.629 15.477l-22.726-26.924v825.351l22.726-20.866z" mask="url(#g)" opacity=".3"/><path fill="url(#i)" d="M556.019 792.265l22.758 30.053L581.269 0l-15.28 14.197z" mask="url(#g)" opacity=".3"/><g fill="#000" mask="url(#g)"><use filter="url(#j)" xlink:href="#k"/></g></g><g fill-rule="nonzero" transform="rotate(90 403.126 288.5)"><use fill="#000" filter="url(#l)" xlink:href="#m"/><use fill="#131313" fill-rule="evenodd" xlink:href="#m"/><use fill="#000" filter="url(#n)" xlink:href="#m"/><path stroke="url(#o)" stroke-width=".758" d="M118.425 665.917V-88.917c0-12.215 9.892-22.117 22.093-22.117h525.216c12.204 0 22.093 9.9 22.093 22.117v754.834c0 12.215-9.891 22.117-22.093 22.117H140.518c-12.203 0-22.093-9.9-22.093-22.117z"/><use stroke="#000" stroke-opacity=".5" stroke-width=".9" xlink:href="#m"/></g><g fill="#000" fill-rule="nonzero" transform="rotate(90 -116.227 157.975)"><use filter="url(#p)" xlink:href="#q"/><use fill-rule="evenodd" xlink:href="#q"/></g><use fill="#000" filter="url(#r)" transform="rotate(90 -116.227 157.975)" xlink:href="#s"/><g transform="rotate(90 -116.227 157.975)"><use xlink:href="#t"/><use fill="#000" fill-opacity=".4" xlink:href="#t"/></g><g transform="rotate(90 248.297 532.757)"><use fill="#000" filter="url(#u)" xlink:href="#v"/><use fill="url(#w)" xlink:href="#v"/><use fill="#000" filter="url(#x)" xlink:href="#v"/><mask id="B" fill="#fff"><use xlink:href="#y"/></mask><use fill="#000" filter="url(#z)" xlink:href="#y"/><use fill="#10141E" xlink:href="#y"/><path fill="#207EC7" d="M4.094 3.388c1.209-.279 2.037-.754 1.96-1.085-.076-.332-1.028-.396-2.237-.117-1.209.28-1.867.715-1.79 1.047.076.331.858.434 2.067.155z" filter="url(#A)" mask="url(#B)" style="mix-blend-mode:overlay"/><path fill="#2482B5" d="M5.063 6.38c1.048-.241 1.57-.634 1.497-.953-.073-.32-.716-.443-1.763-.201-1.048.241-1.837.696-1.763 1.015.073.32.982.382 2.03.14z" filter="url(#C)" mask="url(#B)"/><ellipse cx="1.263" cy="3.791" fill="#FFF" fill-opacity=".4" mask="url(#B)" rx="1.489" ry="3.904" style="mix-blend-mode:overlay" transform="rotate(73 1.263 3.79)"/><ellipse cx="6.06" cy="3.791" fill="#FFF" mask="url(#B)" rx="1" ry="1" style="mix-blend-mode:overlay"/><ellipse cx="4.293" cy="4.296" fill="#000" fill-opacity=".5" mask="url(#B)" rx="1" ry="1" style="mix-blend-mode:overlay"/><ellipse cx="3.535" cy="4.549" fill="#FFF" fill-opacity=".5" mask="url(#B)" rx="1" ry="1" style="mix-blend-mode:overlay"/><ellipse cx="3.535" cy="4.549" fill="#FFF" fill-opacity=".15" mask="url(#B)" rx="1" ry="1" style="mix-blend-mode:screen"/><use fill="#000" filter="url(#E)" xlink:href="#D"/><use stroke="#2E3032" stroke-width=".505" xlink:href="#D"/></g><g stroke="#000" stroke-linecap="round" stroke-linejoin="round" stroke-width=".505" opacity=".3"><path stroke-dasharray="0.1010526309959721,0.5052631482743379" d="M774.484 277.39a2.02 2.02 0 1 0 4.041-.002 2.02 2.02 0 0 0-4.041.002z"/><path stroke-dasharray="0.1010526309959721,0.5052631482743379" d="M775.061 277.39a1.443 1.443 0 1 0 2.887-.001 1.443 1.443 0 0 0-2.887 0z"/><path stroke-dasharray="0.1010526309959721,0.5052631482743379" d="M775.639 277.39a.866.866 0 1 0 1.732-.001.866.866 0 0 0-1.732 0z"/><path stroke-dasharray="0.1010526309959721,0.252631574137169" d="M776.217 277.39a.289.289 0 1 1 .577 0 .289.289 0 0 1-.577 0z"/></g><rect width="521.173" height="694.447" x="142.414" y="-58.724" fill="#111010" rx="2.021" transform="rotate(90 403 288.5)"/></g></svg>