<?xml version="1.0" encoding="UTF-8"?>
<svg width="446" height="219" viewBox="0 0 446 219" xmlns="http://www.w3.org/2000/svg" xmlns:xlink="http://www.w3.org/1999/xlink"><title>Black Copy</title><defs><path d="M0 94.69V75.113c.346-.738.356-3.09.507-4.825v-8.85s0-4.437-.507-5.56V37.93C0 13.194 13.238 0 38.038 0h140.39c24.8 0 38.037 13.194 38.037 37.928v55.245c-.243.257-.43.875-.488 1.64h-.02v30.593l.13 1.517c.09.404.222.717.378.882v279.76c0 24.73-13.236 37.93-38.038 37.93h-57.2c-.53-.282-1.49-.477-2.602-.503l-20.278-.003h-.253c-1.22 0-2.285.202-2.855.504H38.037C13.236 445.494 0 432.294 0 407.566V168.764c.295-.312.507-1.155.507-2.146V96.33h-.02C.43 95.565.245 94.947 0 94.69z" id="a"/><path d="M178.427 0c24.8 0 38.038 13.194 38.038 37.928v369.638c0 24.728-13.236 37.928-38.038 37.928H38.037c-24.8 0-38.037-13.2-38.037-37.928V37.928C0 13.194 13.238 0 38.038 0h140.39z" id="d"/><filter x="-1.4%" y="-.7%" width="102.8%" height="101.3%" filterUnits="objectBoundingBox" id="c"><feMorphology radius="1" in="SourceAlpha" result="shadowSpreadInner1"/><feGaussianBlur stdDeviation="2.5" in="shadowSpreadInner1" result="shadowBlurInner1"/><feOffset in="shadowBlurInner1" result="shadowOffsetInner1"/><feComposite in="shadowOffsetInner1" in2="SourceAlpha" operator="arithmetic" k2="-1" k3="1" result="shadowInnerInner1"/><feColorMatrix values="0 0 0 0 0 0 0 0 0 0 0 0 0 0 0 0 0 0 0.5 0" in="shadowInnerInner1" result="shadowMatrixInner1"/><feMorphology radius="1" in="SourceAlpha" result="shadowSpreadInner2"/><feGaussianBlur stdDeviation="1.5" in="shadowSpreadInner2" result="shadowBlurInner2"/><feOffset in="shadowBlurInner2" result="shadowOffsetInner2"/><feComposite in="shadowOffsetInner2" in2="SourceAlpha" operator="arithmetic" k2="-1" k3="1" result="shadowInnerInner2"/><feColorMatrix values="0 0 0 0 0 0 0 0 0 0 0 0 0 0 0 0 0 0 0.564679574 0" in="shadowInnerInner2" result="shadowMatrixInner2"/><feMerge><feMergeNode in="shadowMatrixInner1"/><feMergeNode in="shadowMatrixInner2"/></feMerge></filter><linearGradient x1="50%" y1="94.818%" x2="50%" y2="100%" id="f"><stop stop-opacity="0" offset="0%"/><stop stop-opacity=".5" offset="100%"/></linearGradient><path d="M173.413 0c25.117 0 36.97 11.824 36.97 36.895v366.142c0 25.066-11.852 36.895-36.97 36.895H36.97c-25.12 0-36.97-11.83-36.97-36.895V36.895C0 11.825 11.852 0 36.97 0h136.443z" id="e"/><filter x="-37.4%" y="-37.5%" width="174.9%" height="175.1%" filterUnits="objectBoundingBox" id="g"><feGaussianBlur stdDeviation="2.531" in="SourceGraphic"/></filter><filter x="-37.4%" y="-37.5%" width="174.9%" height="175.1%" filterUnits="objectBoundingBox" id="i"><feGaussianBlur stdDeviation="2.531" in="SourceGraphic"/></filter><filter x="-35.7%" y="-35.8%" width="171.3%" height="171.5%" filterUnits="objectBoundingBox" id="j"><feGaussianBlur stdDeviation="2.531" in="SourceGraphic"/></filter><filter x="-35.7%" y="-35.8%" width="171.3%" height="171.5%" filterUnits="objectBoundingBox" id="k"><feGaussianBlur stdDeviation="2.531" in="SourceGraphic"/></filter><path d="M171.084 0c25.12 0 35.242 10.107 35.242 35.204v365.48c0 25.09-10.12 35.203-36.256 35.203H35.242C10.628 435.887 0 425.774 0 401.187V35.205C0 10.107 10.122 0 35.242 0h135.842z" id="l"/><filter x="-.7%" y="-.3%" width="101.5%" height="100.7%" filterUnits="objectBoundingBox" id="m"><feMorphology radius=".5" operator="dilate" in="SourceAlpha" result="shadowSpreadOuter1"/><feOffset in="shadowSpreadOuter1" result="shadowOffsetOuter1"/><feColorMatrix values="0 0 0 0 0 0 0 0 0 0 0 0 0 0 0 0 0 0 0.6 0" in="shadowOffsetOuter1"/></filter><path d="M186.392 434.02c14.14-3.943 19.934-14.353 19.934-33.337V35.203c0-16.772-4.52-26.85-15.02-31.69 8.09 4.932 11.472 14.12 11.472 28.657v371.04c0 17.056-4.67 26.71-16.386 30.81z" id="o"/><filter x="-15%" y="-.7%" width="130.1%" height="101.4%" filterUnits="objectBoundingBox" id="p"><feGaussianBlur stdDeviation="1.5" in="SourceAlpha" result="shadowBlurInner1"/><feOffset dx="3" in="shadowBlurInner1" result="shadowOffsetInner1"/><feComposite in="shadowOffsetInner1" in2="SourceAlpha" operator="arithmetic" k2="-1" k3="1" result="shadowInnerInner1"/><feColorMatrix values="0 0 0 0 0.17254902 0 0 0 0 0.17254902 0 0 0 0 0.17254902 0 0 0 1 0" in="shadowInnerInner1" result="shadowMatrixInner1"/><feOffset dx="-1" in="SourceAlpha" result="shadowOffsetInner2"/><feComposite in="shadowOffsetInner2" in2="SourceAlpha" operator="arithmetic" k2="-1" k3="1" result="shadowInnerInner2"/><feColorMatrix values="0 0 0 0 1 0 0 0 0 1 0 0 0 0 1 0 0 0 0.5 0" in="shadowInnerInner2" result="shadowMatrixInner2"/><feMerge><feMergeNode in="shadowMatrixInner1"/><feMergeNode in="shadowMatrixInner2"/></feMerge></filter><path d="M0 401.188V35.204C0 18.43 4.52 8.354 15.02 3.514 6.93 8.444 3.55 17.634 3.55 32.17v371.547c0 16.7 4.907 26.357 16.505 30.408C6.187 430.28 0 419.947 0 401.188z" id="q"/><filter x="-17.5%" y="-.8%" width="134.9%" height="101.6%" filterUnits="objectBoundingBox" id="r"><feGaussianBlur stdDeviation="2" in="SourceAlpha" result="shadowBlurInner1"/><feOffset dx="-3" in="shadowBlurInner1" result="shadowOffsetInner1"/><feComposite in="shadowOffsetInner1" in2="SourceAlpha" operator="arithmetic" k2="-1" k3="1" result="shadowInnerInner1"/><feColorMatrix values="0 0 0 0 0.17254902 0 0 0 0 0.17254902 0 0 0 0 0.17254902 0 0 0 1 0" in="shadowInnerInner1" result="shadowMatrixInner1"/><feOffset dx="1" in="SourceAlpha" result="shadowOffsetInner2"/><feComposite in="shadowOffsetInner2" in2="SourceAlpha" operator="arithmetic" k2="-1" k3="1" result="shadowInnerInner2"/><feColorMatrix values="0 0 0 0 1 0 0 0 0 1 0 0 0 0 1 0 0 0 0.5 0" in="shadowInnerInner2" result="shadowMatrixInner2"/><feMerge><feMergeNode in="shadowMatrixInner1"/><feMergeNode in="shadowMatrixInner2"/></feMerge></filter><filter x="-54.5%" y="-54.6%" width="208.9%" height="209.2%" filterUnits="objectBoundingBox" id="s"><feGaussianBlur stdDeviation="5.063" in="SourceGraphic"/></filter><filter x="-55.5%" y="-55.6%" width="211%" height="211.2%" filterUnits="objectBoundingBox" id="t"><feGaussianBlur stdDeviation="5.063" in="SourceGraphic"/></filter><linearGradient x1="24.627%" y1="20.78%" x2="72.273%" y2="100%" id="w"><stop stop-color="#1F1F1F" offset="0%"/><stop stop-color="#6A6A6C" offset="100%"/></linearGradient><linearGradient x1="29.109%" y1="14.282%" x2="81.233%" y2="85.139%" id="y"><stop offset="0%"/><stop stop-color="#3B3B3B" offset="100%"/></linearGradient><ellipse id="v" cx="3.549" cy="3.54" rx="3.549" ry="3.54"/><filter x="-24.7%" y="-24.8%" width="149.4%" height="149.5%" filterUnits="objectBoundingBox" id="u"><feMorphology radius=".753" operator="dilate" in="SourceAlpha" result="shadowSpreadOuter1"/><feOffset in="shadowSpreadOuter1" result="shadowOffsetOuter1"/><feComposite in="shadowOffsetOuter1" in2="SourceAlpha" operator="out" result="shadowOffsetOuter1"/><feColorMatrix values="0 0 0 0 1 0 0 0 0 1 0 0 0 0 1 0 0 0 0.5 0" in="shadowOffsetOuter1"/></filter><filter x="-31.7%" y="-31.8%" width="163.5%" height="163.7%" filterUnits="objectBoundingBox" id="x"><feGaussianBlur stdDeviation=".5" in="SourceAlpha" result="shadowBlurInner1"/><feOffset dy="1" in="shadowBlurInner1" result="shadowOffsetInner1"/><feComposite in="shadowOffsetInner1" in2="SourceAlpha" operator="arithmetic" k2="-1" k3="1" result="shadowInnerInner1"/><feColorMatrix values="0 0 0 0 0 0 0 0 0 0 0 0 0 0 0 0 0 0 0.5 0" in="shadowInnerInner1"/></filter><ellipse id="z" cx="3.549" cy="3.54" rx="2.535" ry="2.528"/><filter x="-29.6%" y="-29.7%" width="159.2%" height="159.3%" filterUnits="objectBoundingBox" id="A"><feOffset in="SourceAlpha" result="shadowOffsetOuter1"/><feGaussianBlur stdDeviation=".5" in="shadowOffsetOuter1" result="shadowBlurOuter1"/><feColorMatrix values="0 0 0 0 0 0 0 0 0 0 0 0 0 0 0 0 0 0 1 0" in="shadowBlurOuter1"/></filter><linearGradient x1="27.1%" y1="31.891%" x2="77.014%" y2="62.708%" id="B"><stop stop-color="#B7DEF4" offset="0%"/><stop stop-color="#2986F3" offset="100%"/></linearGradient><filter x="-74.9%" y="-75.1%" width="249.8%" height="250.2%" filterUnits="objectBoundingBox" id="C"><feGaussianBlur stdDeviation=".253" in="SourceGraphic"/></filter><filter x="-15.5%" y="-50.1%" width="131%" height="200.1%" filterUnits="objectBoundingBox" id="E"><feGaussianBlur stdDeviation=".253" in="SourceGraphic"/></filter><filter x="-17.3%" y="-62.1%" width="134.6%" height="224.2%" filterUnits="objectBoundingBox" id="F"><feGaussianBlur stdDeviation=".253" in="SourceGraphic"/></filter><filter x="-199.7%" y="-75.1%" width="499.5%" height="250.2%" filterUnits="objectBoundingBox" id="G"><feGaussianBlur stdDeviation=".506" in="SourceGraphic"/></filter><ellipse id="H" cx="3.549" cy="3.54" rx="2.535" ry="2.528"/><filter x="-9.9%" y="-9.9%" width="119.7%" height="119.8%" filterUnits="objectBoundingBox" id="I"><feGaussianBlur stdDeviation=".5" in="SourceAlpha" result="shadowBlurInner1"/><feOffset in="shadowBlurInner1" result="shadowOffsetInner1"/><feComposite in="shadowOffsetInner1" in2="SourceAlpha" operator="arithmetic" k2="-1" k3="1" result="shadowInnerInner1"/><feColorMatrix values="0 0 0 0 0 0 0 0 0 0 0 0 0 0 0 0 0 0 0.5 0" in="shadowInnerInner1" result="shadowMatrixInner1"/><feGaussianBlur stdDeviation=".5" in="SourceAlpha" result="shadowBlurInner2"/><feOffset in="shadowBlurInner2" result="shadowOffsetInner2"/><feComposite in="shadowOffsetInner2" in2="SourceAlpha" operator="arithmetic" k2="-1" k3="1" result="shadowInnerInner2"/><feColorMatrix values="0 0 0 0 0 0 0 0 0 0 0 0 0 0 0 0 0 0 0.5 0" in="shadowInnerInner2" result="shadowMatrixInner2"/><feMerge><feMergeNode in="shadowMatrixInner1"/><feMergeNode in="shadowMatrixInner2"/></feMerge></filter><path d="M126.736 416.67c0 9.496-7.717 17.194-17.236 17.194-9.52 0-17.236-7.698-17.236-17.193 0-9.494 7.717-17.192 17.236-17.192 9.52 0 17.236 7.698 17.236 17.193zm-32.444 0c0 8.38 6.81 15.17 15.208 15.17 8.4 0 15.208-6.79 15.208-15.17 0-8.377-6.81-15.17-15.208-15.17-8.4 0-15.208 6.793-15.208 15.17z" id="K"/><filter x="0%" y="0%" width="100%" height="100%" filterUnits="objectBoundingBox" id="J"><feOffset in="SourceAlpha" result="shadowOffsetOuter1"/><feColorMatrix values="0 0 0 0 1 0 0 0 0 1 0 0 0 0 1 0 0 0 0.1 0" in="shadowOffsetOuter1"/></filter><filter x="-1.5%" y="-1.5%" width="102.9%" height="102.9%" filterUnits="objectBoundingBox" id="L"><feGaussianBlur stdDeviation=".5" in="SourceAlpha" result="shadowBlurInner1"/><feOffset in="shadowBlurInner1" result="shadowOffsetInner1"/><feComposite in="shadowOffsetInner1" in2="SourceAlpha" operator="arithmetic" k2="-1" k3="1" result="shadowInnerInner1"/><feColorMatrix values="0 0 0 0 0 0 0 0 0 0 0 0 0 0 0 0 0 0 0.1 0" in="shadowInnerInner1"/></filter><ellipse id="N" cx="109.753" cy="13.653" rx="2.535" ry="2.528"/><filter x="-29.6%" y="-29.7%" width="159.2%" height="159.3%" filterUnits="objectBoundingBox" id="M"><feMorphology radius=".5" operator="dilate" in="SourceAlpha" result="shadowSpreadOuter1"/><feOffset in="shadowSpreadOuter1" result="shadowOffsetOuter1"/><feComposite in="shadowOffsetOuter1" in2="SourceAlpha" operator="out" result="shadowOffsetOuter1"/><feColorMatrix values="0 0 0 0 1 0 0 0 0 1 0 0 0 0 1 0 0 0 0.5 0" in="shadowOffsetOuter1"/></filter><filter x="-29.6%" y="-29.7%" width="159.2%" height="159.3%" filterUnits="objectBoundingBox" id="O"><feGaussianBlur stdDeviation=".5" in="SourceAlpha" result="shadowBlurInner1"/><feOffset in="shadowBlurInner1" result="shadowOffsetInner1"/><feComposite in="shadowOffsetInner1" in2="SourceAlpha" operator="arithmetic" k2="-1" k3="1" result="shadowInnerInner1"/><feColorMatrix values="0 0 0 0 0 0 0 0 0 0 0 0 0 0 0 0 0 0 0.3 0" in="shadowInnerInner1"/></filter><linearGradient x1="50%" y1="100%" x2="50%" y2="0%" id="S"><stop stop-color="#FFF" stop-opacity=".2" offset="0%"/><stop offset="100%"/></linearGradient><rect id="Q" x="92.771" y="26.548" width="33.965" height="3.034" rx="1.517"/><filter x="-4.4%" y="-49.4%" width="108.8%" height="198.9%" filterUnits="objectBoundingBox" id="P"><feMorphology radius=".5" operator="dilate" in="SourceAlpha" result="shadowSpreadOuter1"/><feOffset in="shadowSpreadOuter1" result="shadowOffsetOuter1"/><feComposite in="shadowOffsetOuter1" in2="SourceAlpha" operator="out" result="shadowOffsetOuter1"/><feColorMatrix values="0 0 0 0 1 0 0 0 0 1 0 0 0 0 1 0 0 0 0.5 0" in="shadowOffsetOuter1"/></filter><filter x="-5.9%" y="-65.9%" width="111.8%" height="231.8%" filterUnits="objectBoundingBox" id="R"><feGaussianBlur stdDeviation=".5" in="SourceAlpha" result="shadowBlurInner1"/><feOffset dy="1" in="shadowBlurInner1" result="shadowOffsetInner1"/><feComposite in="shadowOffsetInner1" in2="SourceAlpha" operator="arithmetic" k2="-1" k3="1" result="shadowInnerInner1"/><feColorMatrix values="0 0 0 0 0 0 0 0 0 0 0 0 0 0 0 0 0 0 0.5 0" in="shadowInnerInner1"/></filter><linearGradient x1="50%" y1="100%" x2="50%" y2="0%" id="V"><stop stop-color="#676767" offset="0%"/><stop stop-color="#878787" offset="6.431%"/><stop stop-color="#A1A1A1" offset="17.515%"/><stop stop-color="#A8A8A8" offset="22.672%"/><stop stop-color="#E3E3E3" offset="52.276%"/><stop stop-color="#ADADAD" offset="78.832%"/><stop stop-color="#939393" offset="92.048%"/><stop stop-color="#B6B6B6" offset="96.969%"/><stop stop-color="#6B6B6B" offset="100%"/></linearGradient><path d="M0 5.326C0 2.738.345 0 .345 0h1.032l.49.47v32.023l-.523.55-1 .004S.09 31.07 0 28.887V5.326z" id="T"/><filter x="0%" y="0%" width="100%" height="100%" filterUnits="objectBoundingBox" id="U"><feOffset in="SourceAlpha" result="shadowOffsetOuter1"/><feColorMatrix values="0 0 0 0 0 0 0 0 0 0 0 0 0 0 0 0 0 0 0.498641304 0" in="shadowOffsetOuter1"/></filter><filter x="-26.8%" y="-1.5%" width="153.6%" height="103%" filterUnits="objectBoundingBox" id="W"><feGaussianBlur stdDeviation=".5" in="SourceAlpha" result="shadowBlurInner1"/><feOffset in="shadowBlurInner1" result="shadowOffsetInner1"/><feComposite in="shadowOffsetInner1" in2="SourceAlpha" operator="arithmetic" k2="-1" k3="1" result="shadowInnerInner1"/><feColorMatrix values="0 0 0 0 0.368627451 0 0 0 0 0.368627451 0 0 0 0 0.368627451 0 0 0 1 0" in="shadowInnerInner1" result="shadowMatrixInner1"/><feGaussianBlur stdDeviation=".5" in="SourceAlpha" result="shadowBlurInner2"/><feOffset in="shadowBlurInner2" result="shadowOffsetInner2"/><feComposite in="shadowOffsetInner2" in2="SourceAlpha" operator="arithmetic" k2="-1" k3="1" result="shadowInnerInner2"/><feColorMatrix values="0 0 0 0 0 0 0 0 0 0 0 0 0 0 0 0 0 0 0.5 0" in="shadowInnerInner2" result="shadowMatrixInner2"/><feMerge><feMergeNode in="shadowMatrixInner1"/><feMergeNode in="shadowMatrixInner2"/></feMerge></filter><linearGradient x1="49.883%" y1="1.989%" x2="50%" y2="96.272%" id="X"><stop stop-color="#FFF" offset="0%"/><stop offset="3.065%"/><stop offset="5.295%"/><stop stop-color="#A4A3A8" offset="10.057%"/><stop stop-color="#A4A3A8" offset="82.673%"/><stop stop-color="#727175" offset="90.031%"/><stop offset="95.408%"/><stop stop-color="#FFF" offset="97.941%"/><stop offset="100%"/></linearGradient><path d="M0 5.297C0 2.723.375 0 .375 0h1.122l.53.47v31.848l-.566.547-1.085.003S.097 30.902 0 28.73V5.297z" id="Z"/><filter x="0%" y="0%" width="100%" height="100%" filterUnits="objectBoundingBox" id="aa"><feOffset in="SourceAlpha" result="shadowOffsetOuter1"/><feColorMatrix values="0 0 0 0 0 0 0 0 0 0 0 0 0 0 0 0 0 0 0.498641304 0" in="shadowOffsetOuter1"/></filter><filter x="-24.7%" y="-1.5%" width="149.3%" height="103%" filterUnits="objectBoundingBox" id="ab"><feGaussianBlur stdDeviation=".5" in="SourceAlpha" result="shadowBlurInner1"/><feOffset in="shadowBlurInner1" result="shadowOffsetInner1"/><feComposite in="shadowOffsetInner1" in2="SourceAlpha" operator="arithmetic" k2="-1" k3="1" result="shadowInnerInner1"/><feColorMatrix values="0 0 0 0 0.368627451 0 0 0 0 0.368627451 0 0 0 0 0.368627451 0 0 0 1 0" in="shadowInnerInner1" result="shadowMatrixInner1"/><feGaussianBlur stdDeviation=".5" in="SourceAlpha" result="shadowBlurInner2"/><feOffset in="shadowBlurInner2" result="shadowOffsetInner2"/><feComposite in="shadowOffsetInner2" in2="SourceAlpha" operator="arithmetic" k2="-1" k3="1" result="shadowInnerInner2"/><feColorMatrix values="0 0 0 0 0 0 0 0 0 0 0 0 0 0 0 0 0 0 0.5 0" in="shadowInnerInner2" result="shadowMatrixInner2"/><feMerge><feMergeNode in="shadowMatrixInner1"/><feMergeNode in="shadowMatrixInner2"/></feMerge></filter><path d="M0 5.326C0 2.738.345 0 .345 0h1.032l.49.47v32.023l-.523.55-1 .004S.09 31.07 0 28.887V5.326z" id="ad"/><filter x="0%" y="0%" width="100%" height="100%" filterUnits="objectBoundingBox" id="ae"><feOffset in="SourceAlpha" result="shadowOffsetOuter1"/><feColorMatrix values="0 0 0 0 0 0 0 0 0 0 0 0 0 0 0 0 0 0 0.498641304 0" in="shadowOffsetOuter1"/></filter><filter x="-26.8%" y="-1.5%" width="153.6%" height="103%" filterUnits="objectBoundingBox" id="af"><feGaussianBlur stdDeviation=".5" in="SourceAlpha" result="shadowBlurInner1"/><feOffset in="shadowBlurInner1" result="shadowOffsetInner1"/><feComposite in="shadowOffsetInner1" in2="SourceAlpha" operator="arithmetic" k2="-1" k3="1" result="shadowInnerInner1"/><feColorMatrix values="0 0 0 0 0.368627451 0 0 0 0 0.368627451 0 0 0 0 0.368627451 0 0 0 1 0" in="shadowInnerInner1" result="shadowMatrixInner1"/><feGaussianBlur stdDeviation=".5" in="SourceAlpha" result="shadowBlurInner2"/><feOffset in="shadowBlurInner2" result="shadowOffsetInner2"/><feComposite in="shadowOffsetInner2" in2="SourceAlpha" operator="arithmetic" k2="-1" k3="1" result="shadowInnerInner2"/><feColorMatrix values="0 0 0 0 0 0 0 0 0 0 0 0 0 0 0 0 0 0 0.5 0" in="shadowInnerInner2" result="shadowMatrixInner2"/><feMerge><feMergeNode in="shadowMatrixInner1"/><feMergeNode in="shadowMatrixInner2"/></feMerge></filter><path d="M0 5.382C0 1.645.46 0 .46 0h1.246l.474.47v16.853l-.506.55-1.215.004S0 15.19 0 13.772v-8.39z" id="ah"/><filter x="0%" y="0%" width="100%" height="100%" filterUnits="objectBoundingBox" id="ai"><feOffset in="SourceAlpha" result="shadowOffsetOuter1"/><feColorMatrix values="0 0 0 0 0 0 0 0 0 0 0 0 0 0 0 0 0 0 0.498641304 0" in="shadowOffsetOuter1"/></filter><filter x="-22.9%" y="-2.8%" width="145.9%" height="105.6%" filterUnits="objectBoundingBox" id="aj"><feGaussianBlur stdDeviation=".5" in="SourceAlpha" result="shadowBlurInner1"/><feOffset in="shadowBlurInner1" result="shadowOffsetInner1"/><feComposite in="shadowOffsetInner1" in2="SourceAlpha" operator="arithmetic" k2="-1" k3="1" result="shadowInnerInner1"/><feColorMatrix values="0 0 0 0 0.368627451 0 0 0 0 0.368627451 0 0 0 0 0.368627451 0 0 0 1 0" in="shadowInnerInner1" result="shadowMatrixInner1"/><feGaussianBlur stdDeviation=".5" in="SourceAlpha" result="shadowBlurInner2"/><feOffset in="shadowBlurInner2" result="shadowOffsetInner2"/><feComposite in="shadowOffsetInner2" in2="SourceAlpha" operator="arithmetic" k2="-1" k3="1" result="shadowInnerInner2"/><feColorMatrix values="0 0 0 0 0 0 0 0 0 0 0 0 0 0 0 0 0 0 0.5 0" in="shadowInnerInner2" result="shadowMatrixInner2"/><feMerge><feMergeNode in="shadowMatrixInner1"/><feMergeNode in="shadowMatrixInner2"/></feMerge></filter></defs><g fill="none" fill-rule="evenodd"><g transform="rotate(-90 108.74 108.74)"><mask id="b" fill="#fff"><use xlink:href="#a"/></mask><use fill="#282829" xlink:href="#a"/><g mask="url(#b)" fill="#414247"><path d="M0 33.88s2.053.174 3.55-.253v6.068c-1.436.914-3.55.76-3.55.76V33.88zM0 404.535s1.52.49 3.55.253v6.574c-2.03.19-3.55-.253-3.55-.253v-6.575zM212.917 33.88s2.053.174 3.548-.253v6.068c-1.435.914-3.548.76-3.548.76V33.88zM212.917 404.535s1.52.49 3.548.253v6.574c-2.028.19-3.548-.253-3.548-.253v-6.575z"/></g><use filter="url(#c)" xlink:href="#d" mask="url(#b)" fill="#000"/></g><g transform="rotate(-90 108.736 105.702)"><mask id="h" fill="#fff"><use xlink:href="#e"/></mask><use fill="#313133" xlink:href="#e"/><use fill="url(#f)" xlink:href="#e"/><path stroke-opacity=".5" stroke="#FFF" stroke-width=".506" d="M173.413-.253c25.258 0 37.222 11.938 37.222 37.148v366.142c0 25.207-11.965 37.148-37.222 37.148H36.97c-25.258 0-37.223-11.94-37.223-37.148V36.895C-.253 11.685 11.71-.253 36.97-.253h136.443z"/><ellipse fill-opacity=".5" fill="#000" filter="url(#g)" mask="url(#h)" cx="21.799" cy="5.562" rx="10.139" ry="10.113"/><ellipse fill-opacity=".5" fill="#000" filter="url(#i)" mask="url(#h)" cx="189.597" cy="3.034" rx="10.139" ry="10.113"/><ellipse fill-opacity=".5" fill="#000" filter="url(#j)" mask="url(#h)" cx="26.361" cy="438.415" rx="10.646" ry="10.619"/><ellipse fill-opacity=".5" fill="#000" filter="url(#k)" mask="url(#h)" cx="192.132" cy="438.415" rx="10.646" ry="10.619"/></g><g transform="rotate(-90 108.733 103.677)"><mask id="n" fill="#fff"><use xlink:href="#l"/></mask><g fill="#000"><use filter="url(#m)" xlink:href="#l"/><use xlink:href="#l"/></g><g mask="url(#n)" fill-rule="nonzero"><use fill="#A1A1A1" fill-rule="evenodd" xlink:href="#o"/><use fill="#000" filter="url(#p)" xlink:href="#o"/></g><g mask="url(#n)"><use fill="#A1A1A1" xlink:href="#q"/><use fill="#000" filter="url(#r)" xlink:href="#q"/></g><ellipse fill-opacity=".4" fill="#000" filter="url(#s)" mask="url(#n)" cx="197.962" cy="6.827" rx="13.941" ry="13.906"/><ellipse fill-opacity=".4" fill="#000" filter="url(#t)" mask="url(#n)" cx="5.576" cy="6.068" rx="13.688" ry="13.653"/></g><g transform="rotate(-90 86.023 61.498)"><use fill="#000" filter="url(#u)" xlink:href="#v"/><use fill="url(#w)" xlink:href="#v"/><use fill="#000" filter="url(#x)" xlink:href="#v"/><use stroke="url(#y)" stroke-width=".506" xlink:href="#v"/><mask id="D" fill="#fff"><use xlink:href="#z"/></mask><use fill="#000" filter="url(#A)" xlink:href="#z"/><use fill="#10141E" xlink:href="#z"/><ellipse fill="url(#B)" filter="url(#C)" mask="url(#D)" cx="2.535" cy="4.045" rx="1" ry="1"/><path d="M2.912 2.758c1.47 0 2.553-.34 2.553-.76 0-.417-1.083-.757-2.553-.757S.567 1.58.567 2c0 .418.875.758 2.345.758z" fill="#365191" filter="url(#E)" mask="url(#D)" transform="rotate(-13 3.016 2)"/><path d="M4.34 5.655c1.3 0 2.025-.273 2.025-.61 0-.34-.724-.612-2.026-.612-1.304 0-2.36.273-2.36.61 0 .34 1.056.612 2.36.612z" fill="#24396B" filter="url(#F)" mask="url(#D)" transform="rotate(-13 4.173 5.044)"/><ellipse fill-opacity=".2" fill="#FFF" style="mix-blend-mode:overlay" filter="url(#G)" mask="url(#D)" transform="rotate(-15 5.703 3.034)" cx="5.703" cy="3.034" rx="1" ry="1.011"/><ellipse fill-opacity=".5" fill="#FFF" style="mix-blend-mode:overlay" mask="url(#D)" transform="rotate(-15 5.703 3.034)" cx="5.703" cy="3.034" rx="1" ry="1.011"/><ellipse fill="#FFF" style="mix-blend-mode:overlay" mask="url(#D)" cx="3.549" cy="3.54" rx="1" ry="1"/><g fill="#000"><use filter="url(#I)" xlink:href="#H"/></g></g><g fill-rule="nonzero" transform="matrix(0 -1 1 0 0 219)"><use fill="#000" filter="url(#J)" xlink:href="#K"/><use fill-rule="evenodd" xlink:href="#K"/><use fill="#000" filter="url(#L)" xlink:href="#K"/></g><g transform="matrix(0 -1 1 0 0 219)"><use fill="#000" filter="url(#M)" xlink:href="#N"/><use fill="#000" xlink:href="#N"/><use fill="#000" filter="url(#O)" xlink:href="#N"/><ellipse stroke="#000" stroke-width=".506" cx="109.753" cy="13.653" rx="2.282" ry="2.275"/></g><g transform="matrix(0 -1 1 0 0 219)"><use fill="#000" filter="url(#P)" xlink:href="#Q"/><use fill="#191919" xlink:href="#Q"/><use fill="#000" filter="url(#R)" xlink:href="#Q"/><rect stroke="url(#S)" stroke-width=".506" x="93.024" y="26.801" width="33.459" height="2.528" rx="1.264"/></g><g transform="rotate(-90 176.753 41.74)"><mask id="Y" fill="#fff"><use xlink:href="#T"/></mask><g transform="matrix(-1 0 0 1 1.866 0)"><use fill="#000" filter="url(#U)" xlink:href="#T"/><use fill="#65666B" xlink:href="#T"/><use fill-opacity=".5" fill="url(#V)" style="mix-blend-mode:multiply" xlink:href="#T"/><use fill="#000" filter="url(#W)" xlink:href="#T"/></g><path d="M.93-.506S.03-.58-.082 4.7v24.37c0 4.23.877 4.455 1.014 4.69l.084-.74c-.507-1.056-.59-2.343-.59-4.352V5.104C.424 2.71.79.384.93.396v-.902z" fill="url(#X)" mask="url(#Y)" transform="matrix(-1 0 0 1 .93 0)"/></g><g transform="matrix(0 1 1 0 94.054 0)"><mask id="ac" fill="#fff"><use xlink:href="#Z"/></mask><g transform="matrix(-1 0 0 1 2.028 0)"><use fill="#000" filter="url(#aa)" xlink:href="#Z"/><use fill="#65666B" xlink:href="#Z"/><use fill-opacity=".5" fill="url(#V)" style="mix-blend-mode:multiply" xlink:href="#Z"/><use fill="#000" filter="url(#ab)" xlink:href="#Z"/></g><path d="M.93-.506S.03-.58-.082 4.7v24.37c0 4.23.877 4.455 1.014 4.69l.084-.74c-.507-1.056-.59-2.343-.59-4.352V5.104C.424 2.71.79.384.93.396v-.902z" fill="url(#X)" mask="url(#ac)" transform="matrix(-1 0 0 1 .93 0)"/></g><g transform="rotate(-90 157.032 61.46)"><mask id="ag" fill="#fff"><use xlink:href="#ad"/></mask><g transform="matrix(-1 0 0 1 1.866 0)"><use fill="#000" filter="url(#ae)" xlink:href="#ad"/><use fill="#65666B" xlink:href="#ad"/><use fill-opacity=".5" fill="url(#V)" style="mix-blend-mode:multiply" xlink:href="#ad"/><use fill="#000" filter="url(#af)" xlink:href="#ad"/></g><path d="M.93-.506S.03-.58-.082 4.7v24.37c0 4.23.877 4.455 1.014 4.69l.084-.74c-.507-1.056-.59-2.343-.59-4.352V5.104C.424 2.71.79.384.93.396v-.902z" fill="url(#X)" mask="url(#ag)" transform="matrix(-1 0 0 1 .93 0)"/></g><g transform="rotate(-90 137.817 81.183)"><mask id="ak" fill="#fff"><use xlink:href="#ah"/></mask><g transform="matrix(-1 0 0 1 2.18 0)"><use fill="#000" filter="url(#ai)" xlink:href="#ah"/><use fill="#65666B" xlink:href="#ah"/><use fill-opacity=".5" fill="url(#V)" style="mix-blend-mode:multiply" xlink:href="#ah"/><use fill="#000" filter="url(#aj)" xlink:href="#ah"/></g><path d="M.93-.506S.03-.58-.082 4.7v9.2c0 4.23.877 4.455 1.014 4.69l.084-.74c-.507-1.056-.59-2.343-.59-4.352V5.104C.424 2.71.79.384.93.396v-.902z" fill="url(#X)" mask="url(#ak)" transform="matrix(-1 0 0 1 .93 0)"/></g><g><path d="M391.135 205.82c1.43 0 1.77-.342 1.77-1.777V14.45c0-1.435-.34-1.776-1.77-1.776H54.36c-1.43 0-1.77.34-1.77 1.776v189.593c0 .928.34 1.776 1.77 1.776h336.775z" fill="#0F0F0F" fill-rule="nonzero"/><path fill="#000" d="M54.107 204.3V14.452l337.28-.26V204.3"/></g></g></svg>