<svg width="24" height="24" viewBox="0 0 24 24" fill="none" xmlns="http://www.w3.org/2000/svg">
<path fill-rule="evenodd" clip-rule="evenodd" d="M2 5C2 3.89543 2.89543 3 4 3H20C21.1046 3 22 3.89543 22 5V16C22 17.1046 21.1046 18 20 18H13L13 20H14C14.5523 20 15 20.4477 15 21C15 21.5523 14.5523 22 14 22H10C9.44772 22 9 21.5523 9 21C9 20.4477 9.44772 20 10 20H11L11 18H4C2.89543 18 2 17.1046 2 16V5ZM20 16V5H4V16H20ZM16 8.5C16.5523 8.5 17 8.94772 17 9.5L17 12C17 12.5523 16.5523 13 16 13C15.4477 13 15 12.5523 15 12L15 9.5C15 8.94772 15.4477 8.5 16 8.5ZM12 9.5C12.5523 9.5 13 9.94772 13 10.5L13.0523 13.5C13.0523 14.0523 12.6046 14.5 12.0523 14.5C11.5 14.5 11.0523 14.0523 11.0523 13.5L11 10.5C11 9.94772 11.4477 9.5 12 9.5ZM8 7C8.55228 7 9 7.44772 9 8V11.5C9 12.0523 8.55228 12.5 8 12.5C7.44772 12.5 7 12.0523 7 11.5V8C7 7.44772 7.44772 7 8 7Z" fill="white"/>
</svg>
