<svg width="168" height="24" viewBox="0 0 168 24" fill="none" xmlns="http://www.w3.org/2000/svg">
<g opacity="0.7">
<path fill-rule="evenodd" clip-rule="evenodd" d="M24.2535 4.54932V16.9701H30.7606V21.1127H20.1127V4.54932H24.2535Z" fill="#9CB0C2"/>
<path fill-rule="evenodd" clip-rule="evenodd" d="M38.5099 9.87326L41.4036 4.54932H46.1408V5.14087L40.5211 14.0123V21.1127H36.3803V14.0123L30.7606 5.14087V4.54932H35.4956L38.3915 9.87326H38.5099Z" fill="#9CB0C2"/>
<path fill-rule="evenodd" clip-rule="evenodd" d="M50.8707 4.54932L56.7887 11.6479L62.7045 4.54932H65.0704V21.1127H60.9296V13.422L57.0854 17.5634H56.493L52.6479 13.422V21.1127H48.507V4.54932H50.8707Z" fill="#9CB0C2"/>
<path fill-rule="evenodd" clip-rule="evenodd" d="M75.7167 4.54932C83.6062 4.54932 83.6062 16.385 75.7167 16.385L72.7641 16.3837V21.1127H68.6197V4.54932H75.7167ZM76.0124 8.09764H72.7596V12.8279H76.0124C78.4727 12.8279 78.4727 8.09764 76.0124 8.09764Z" fill="#9CB0C2"/>
<path fill-rule="evenodd" clip-rule="evenodd" d="M88.7324 8.69016V4.54932H100.563V8.69016H96.7183V21.1127H92.5775V8.69016H88.7324Z" fill="#9CB0C2"/>
<path fill-rule="evenodd" clip-rule="evenodd" d="M111.211 4.54932C118.31 4.54932 119.486 12.831 114.761 15.1938L118.31 20.5211V21.1127H113.577L110.619 16.3803H108.254V21.1127H104.127L104.113 4.54932H111.211ZM111.507 8.0986C109.927 8.09926 108.843 8.09926 108.254 8.0986V12.2394H111.507C113.877 12.2394 113.877 8.09764 111.507 8.0986Z" fill="#9CB0C2"/>
<path fill-rule="evenodd" clip-rule="evenodd" d="M130.141 4.54932L137.239 20.5211V21.1127H133.099L132.176 19.0374H125.735L124.817 21.1127H120.676V20.5211L127.775 4.54932H130.141ZM128.958 11.0577L126.887 15.7888H131.028L128.958 11.0577Z" fill="#9CB0C2"/>
<path fill-rule="evenodd" clip-rule="evenodd" d="M145.817 4.54932C156.465 4.54932 156.465 21.1127 145.817 21.1127H139.606V4.54932H145.817ZM145.817 8.69016H143.746V16.9719H145.817C151.064 16.9719 151.064 8.69016 145.817 8.69016Z" fill="#9CB0C2"/>
<path fill-rule="evenodd" clip-rule="evenodd" d="M161.493 17.5634H168V21.1127H157.352V4.54932H168V8.09861H161.493V11.0564H166.817V14.6057H161.493V17.5634Z" fill="#9CB0C2"/>
<path fill-rule="evenodd" clip-rule="evenodd" d="M16.5634 12.8315C16.5634 15.6257 15.5027 17.7128 13.9181 19.0928L11.2073 16.082C11.9398 15.3434 12.4226 14.2599 12.4226 12.8315C12.4226 6.91551 4.14086 6.91551 4.14086 12.8315C4.14086 14.2599 4.62366 15.3434 5.35613 16.082L2.6465 19.0938C1.06125 17.7138 0 15.6264 0 12.8315C0.00124581 1.7886 16.5634 1.7886 16.5634 12.8315Z" fill="#9CB0C2"/>
<path fill-rule="evenodd" clip-rule="evenodd" d="M62.7042 1.00004L56.7899 8.09863L50.8732 1.00004H62.7042Z" fill="#9CB0C2"/>
<path d="M2.36621 22.2959L8.2817 15.1973L14.1972 22.2959H2.36621Z" fill="#9CB0C2"/>
</g>
</svg>
