<?xml version="1.0" encoding="utf-8"?>
<!-- Generator: Adobe Illustrator 26.1.0, SVG Export Plug-In . SVG Version: 6.00 Build 0)  -->
<svg version="1.1" id="Слой_1" xmlns="http://www.w3.org/2000/svg" xmlns:xlink="http://www.w3.org/1999/xlink" x="0px" y="0px"
	 viewBox="0 0 142 18" style="enable-background:new 0 0 142 18;" xml:space="preserve">
<style type="text/css">
	.st0{fill-rule:evenodd;clip-rule:evenodd;fill:#FFFFFF;}
	.st1{fill-rule:evenodd;clip-rule:evenodd;fill:#F15131;}
	.st2{fill:#1FBF75;}
</style>
<desc>Created with Sketch.</desc>
<polygon id="Path_00000167385846990559227010000013255712806401270656_" class="st0" points="20.5,3 20.5,13.5 26,13.5 26,17 17,17 
	17,3 "/>
<polygon id="Path_00000176013957647075077090000004785185504889842839_" class="st0" points="32.5,7.5 35,3 39,3 39,3.5 34.2,11 
	34.2,17 30.8,17 30.8,11 26,3.5 26,3 30,3 32.5,7.5 "/>
<polygon id="Path_00000139981205172667537340000008818712458661809569_" class="st0" points="43,3 48,9 53,3 55,3 55,17 51.5,17 
	51.5,10.5 48.3,14 47.8,14 44.5,10.5 44.5,17 41,17 41,3 "/>
<path id="Combined-Shape_00000179621705475552577960000017331233234066016932_" class="st0" d="M64,3c6.7,0,6.7,10,0,10l-2.5,0v4H58
	V3H64z M64.2,6h-2.7v4h2.7C66.3,10,66.3,6,64.2,6z"/>
<polygon id="Path_00000023251943109837251910000002439621537827559344_" class="st0" points="75,6.5 75,3 85,3 85,6.5 81.8,6.5 
	81.8,17 78.2,17 78.2,6.5 "/>
<path id="Combined-Shape_00000078737998551087790130000004043669859474579383_" class="st0" d="M94,3c6,0,7,7,3,9l3,4.5V17h-4
	l-2.5-4h-2v4H88l0-14H94z M94.2,6c-1.3,0-2.3,0-2.8,0v3.5h2.8C96.3,9.5,96.3,6,94.2,6z"/>
<path id="Combined-Shape_00000035489555368450639860000003230413672761155770_" class="st0" d="M110,3l6,13.5V17h-3.5l-0.8-1.8h-5.4
	l-0.8,1.8H102v-0.5L108,3H110z M109,8.5l-1.8,4h3.5L109,8.5z"/>
<path id="Combined-Shape_00000183224439912819385730000001725463435155169448_" class="st0" d="M123.2,3c9,0,9,14,0,14H118V3H123.2z
	 M123.2,6.5h-1.8v7h1.8C127.7,13.5,127.7,6.5,123.2,6.5z"/>
<polygon id="Path_00000004522857839864784890000010127864503847530919_" class="st0" points="136.5,14 142,14 142,17 133,17 133,3 
	142,3 142,6 136.5,6 136.5,8.5 141,8.5 141,11.5 136.5,11.5 "/>
<path id="Combined-Shape_00000165212090186424892250000014108115905787331753_" class="st0" d="M14,10c0,2.4-0.9,4.1-2.2,5.3
	l-2.3-2.5c0.6-0.6,1-1.5,1-2.7c0-5-7-5-7,0c0,1.2,0.4,2.1,1,2.7l-2.3,2.5C0.9,14.1,0,12.4,0,10C0,0.7,14,0.7,14,10z"/>
<polygon id="Path_00000163074461573074885590000005820217430082996864_" class="st1" points="53,0 48,6 43,0 "/>
<polygon id="Path-Copy-6" class="st2" points="2,18 7,12 12,18 "/>
</svg>
