<?xml version="1.0" encoding="UTF-8"?>
<svg width="22px" height="23px" viewBox="0 0 14 15" version="1.1" xmlns="http://www.w3.org/2000/svg" xmlns:xlink="http://www.w3.org/1999/xlink">
    <!-- Generator: Sketch 62 (91390) - https://sketch.com -->
    <title>OT_glyph_mono white</title>
    <desc>Created with Sketch.</desc>
    <defs>
        <polygon id="path-1" points="0.903703787 0.59455 9.09669912 0.59455 9.09669912 6 0.903703787 6"></polygon>
        <polygon id="path-3" points="0.0004 0.75 13.999812 0.75 13.999812 13.1518855 0.0004 13.1518855"></polygon>
    </defs>
    <g id="Page-1" stroke="none" stroke-width="1" fill="none" fill-rule="evenodd">
        <g id="OT_glyph_mono-white" transform="translate(0.000000, -1.000000)">
            <g id="Group-7">
                <g id="Group-3" transform="translate(2.000000, 9.250000)">
                    <mask id="mask-2" fill="white">
                        <use xlink:href="#path-1"></use>
                    </mask>
                    <g id="Clip-2"></g>
                    <path d="M4.8828,0.6523 L0.9348,5.7603 C0.8598,5.8583 0.9288,6.0003 1.0528,6.0003 L8.9468,6.0003 C9.0708,6.0003 9.1408,5.8583 9.0658,5.7603 L5.1168,0.6523 C5.0578,0.5753 4.9428,0.5753 4.8828,0.6523" id="Fill-1" fill="#FFFFFF" mask="url(#mask-2)"></path>
                </g>
                <g id="Group-6" transform="translate(0.000000, 0.250000)">
                    <mask id="mask-4" fill="white">
                        <use xlink:href="#path-3"></use>
                    </mask>
                    <g id="Clip-5"></g>
                    <path d="M2.7324,13.0918 L4.6864,10.5308 C4.7324,10.4718 4.7224,10.3888 4.6664,10.3378 C3.7664,9.5278 3.2754,8.2748 3.6004,6.9048 C3.8984,5.6478 4.9204,4.6278 6.1814,4.3418 C8.4704,3.8238 10.5004,5.5498 10.5004,7.7498 C10.5004,8.7808 10.0444,9.6978 9.3344,10.3378 C9.2774,10.3888 9.2674,10.4718 9.3134,10.5318 L11.2674,13.0918 C11.3194,13.1598 11.4204,13.1728 11.4864,13.1168 C12.9674,11.8788 13.9304,10.0408 13.9964,7.9748 C14.1184,4.1398 10.9524,0.8128 7.1164,0.7508 C3.1974,0.6878 0.0004,3.8448 0.0004,7.7498 C0.0004,9.9068 0.9784,11.8338 2.5134,13.1168 C2.5794,13.1728 2.6804,13.1598 2.7324,13.0918" id="Fill-4" fill="#FFFFFF" mask="url(#mask-4)"></path>
                </g>
            </g>
        </g>
    </g>
</svg>