<svg width="269" height="541" viewBox="0 0 269 541" fill="none" xmlns="http://www.w3.org/2000/svg">
<path fill-rule="evenodd" clip-rule="evenodd" d="M265.632 165.992C265.708 164.108 266.118 161.062 266.118 161.062H266.923C267.604 161.062 268.153 161.609 268.15 162.29L267.846 224.16C267.842 224.838 267.294 225.388 266.611 225.388L265.907 225.387C265.87 225.37 265.721 225.149 265.624 222.778L265.604 178.799C265.605 172.119 265.61 167.148 265.622 166.323L265.632 165.992Z" fill="url(#paint0_linear_902_29399)"/>
<mask id="mask0_902_29399" style="mask-type:alpha" maskUnits="userSpaceOnUse" x="265" y="161" width="4" height="65">
<path fill-rule="evenodd" clip-rule="evenodd" d="M265.632 165.992C265.708 164.108 266.118 161.062 266.118 161.062H266.923C267.604 161.062 268.153 161.609 268.15 162.29L267.846 224.16C267.842 224.838 267.294 225.388 266.611 225.388L265.907 225.387C265.87 225.37 265.721 225.149 265.624 222.778L265.604 178.799C265.605 172.119 265.61 167.148 265.622 166.323L265.632 165.992Z" fill="white"/>
</mask>
<g mask="url(#mask0_902_29399)">
<path fill-rule="evenodd" clip-rule="evenodd" d="M268.963 160.629C268.963 160.629 267.568 159.567 267.568 165.941C267.568 198.798 267.568 219.604 267.568 219.499C267.568 224.717 268.174 225.433 268.411 225.723L269.106 224.349C268.228 223.046 268.085 221.457 268.085 218.979C268.085 216.973 268.411 169.919 268.411 168.392C268.411 165.437 268.719 162.597 268.963 162.609V160.629Z" fill="#8AA9BE"/>
</g>
<path fill-rule="evenodd" clip-rule="evenodd" d="M2.51435 203.991C2.4383 202.108 2.02897 199.062 2.02897 199.062H1.22327C0.54237 199.062 -0.00531309 199.61 3.88929e-05 200.293V238.196C0.0053667 238.877 0.852986 239.483 1.53598 239.483L2.23907 239.482C2.27644 239.465 2.42602 239.244 2.52287 236.873L2.54256 211.635C2.54166 207.866 2.53662 205.003 2.52418 204.315L2.51435 203.991Z" fill="url(#paint1_linear_902_29399)"/>
<mask id="mask1_902_29399" style="mask-type:alpha" maskUnits="userSpaceOnUse" x="0" y="199" width="3" height="41">
<path fill-rule="evenodd" clip-rule="evenodd" d="M2.51435 203.991C2.4383 202.108 2.02897 199.062 2.02897 199.062H1.22327C0.54237 199.062 -0.00531309 199.61 3.88929e-05 200.293V238.196C0.0053667 238.877 0.852986 239.483 1.53598 239.483L2.23907 239.482C2.27644 239.465 2.42602 239.244 2.52287 236.873L2.54256 211.635C2.54166 207.866 2.53662 205.003 2.52418 204.315L2.51435 203.991Z" fill="white"/>
</mask>
<g mask="url(#mask1_902_29399)">
<path fill-rule="evenodd" clip-rule="evenodd" d="M-0.816171 200.609V198.628L-0.780641 198.607C-0.566107 198.495 0.548202 198.182 0.577489 203.716L0.578077 233.593C0.578077 238.811 -0.0272649 239.528 -0.264885 239.818L-0.959473 238.443C-0.112803 237.187 0.050684 235.665 0.0612816 233.336L0.0618569 206.418C0.0618569 203.463 -0.573022 200.596 -0.816171 200.609Z" fill="url(#paint2_linear_902_29399)"/>
</g>
<path fill-rule="evenodd" clip-rule="evenodd" d="M2.51435 152.504C2.4383 150.621 2.02897 147.575 2.02897 147.575H1.22327C0.54237 147.575 -0.00531309 148.123 3.88929e-05 148.806V186.747C0.0053667 187.428 0.852986 187.996 1.53598 187.996L2.23907 187.995C2.27645 187.978 2.42602 187.757 2.52287 185.386L2.54256 160.148C2.54166 156.379 2.53662 153.516 2.52418 152.828L2.51435 152.504Z" fill="url(#paint3_linear_902_29399)"/>
<mask id="mask2_902_29399" style="mask-type:alpha" maskUnits="userSpaceOnUse" x="0" y="147" width="3" height="41">
<path fill-rule="evenodd" clip-rule="evenodd" d="M2.51435 152.504C2.4383 150.621 2.02897 147.575 2.02897 147.575H1.22327C0.54237 147.575 -0.00531309 148.123 3.88929e-05 148.806V186.747C0.0053667 187.428 0.852986 187.996 1.53598 187.996L2.23907 187.995C2.27645 187.978 2.42602 187.757 2.52287 185.386L2.54256 160.148C2.54166 156.379 2.53662 153.516 2.52418 152.828L2.51435 152.504Z" fill="white"/>
</mask>
<g mask="url(#mask2_902_29399)">
<path fill-rule="evenodd" clip-rule="evenodd" d="M-0.816171 149.122V147.141L-0.780641 147.12C-0.566107 147.008 0.548202 146.695 0.577489 152.229L0.578077 182.106C0.578077 187.325 -0.0272649 188.041 -0.264885 188.331L-0.959473 186.956C-0.112803 185.7 0.050684 184.178 0.0612816 181.849L0.0618569 154.931C0.0618569 151.976 -0.573022 149.109 -0.816171 149.122Z" fill="url(#paint4_linear_902_29399)"/>
</g>
<path fill-rule="evenodd" clip-rule="evenodd" d="M2.51435 113.276C2.4383 111.393 2.02897 108.347 2.02897 108.347H1.22327C0.54237 108.347 -0.00531309 108.895 3.88929e-05 109.578L0.0348878 127.846C0.0402156 128.526 0.852986 129.153 1.53598 129.153L2.23907 129.153C2.27644 129.135 2.42602 128.914 2.52287 126.544L2.54256 120.92C2.54166 117.151 2.53662 114.287 2.52418 113.6L2.51435 113.276Z" fill="url(#paint5_linear_902_29399)"/>
<mask id="mask3_902_29399" style="mask-type:alpha" maskUnits="userSpaceOnUse" x="0" y="108" width="3" height="22">
<path fill-rule="evenodd" clip-rule="evenodd" d="M2.51435 113.276C2.4383 111.393 2.02897 108.347 2.02897 108.347H1.22327C0.54237 108.347 -0.00531309 108.895 3.88929e-05 109.578L0.0348878 127.846C0.0402156 128.526 0.852986 129.153 1.53598 129.153L2.23907 129.153C2.27644 129.135 2.42602 128.914 2.52287 126.544L2.54256 120.92C2.54166 117.151 2.53662 114.287 2.52418 113.6L2.51435 113.276Z" fill="white"/>
</mask>
<g mask="url(#mask3_902_29399)">
<path fill-rule="evenodd" clip-rule="evenodd" d="M0.242084 109.625C0.242084 109.625 0.125314 108.982 0.000182152 108.77C-0.215472 108.404 -0.780273 107.892 -0.780273 107.892C-0.561755 107.768 0.859493 107.514 0.88878 113.049L0.889368 123.312C0.889368 128.53 -0.026897 129.198 -0.264518 129.489L-0.20305 128.675C0.52776 127.364 0.401607 125.641 0.412205 123.312V115.874C0.412205 112.919 0.310558 109.957 0.242084 109.625Z" fill="url(#paint6_linear_902_29399)"/>
</g>
<path fill-rule="evenodd" clip-rule="evenodd" d="M219.068 0C250.041 0 266.573 16.4731 266.573 47.3531V494.032C266.573 523.913 247.058 540.037 216.593 540.037H51.1159C18.4093 540.037 1.0813 519.264 1.69598 493.36V47.2352C1.69598 16.3552 19.458 0 50.4307 0L219.068 0Z" fill="#414A56"/>
<mask id="mask4_902_29399" style="mask-type:alpha" maskUnits="userSpaceOnUse" x="1" y="0" width="266" height="541">
<path fill-rule="evenodd" clip-rule="evenodd" d="M219.068 0C250.041 0 266.573 16.4731 266.573 47.3531V494.032C266.573 523.913 247.058 540.037 216.593 540.037H51.1159C18.4093 540.037 1.0813 519.264 1.69598 493.36V47.2352C1.69598 16.3552 19.458 0 50.4307 0L219.068 0Z" fill="white"/>
</mask>
<g mask="url(#mask4_902_29399)">
<path fill-rule="evenodd" clip-rule="evenodd" d="M217.095 0.786072C251.143 1.06649 265.508 19.1913 265.508 47.9978L265.804 496.486C265.189 522.055 246.395 538.984 217.095 538.984H51.7953C22.1054 538.984 2.35156 521.17 2.35156 496.486V47.9978C2.35156 18.2778 18.8095 0.786072 51.7953 0.786072L217.095 0.786072Z" fill="#E2E9F1"/>
<path fill-rule="evenodd" clip-rule="evenodd" d="M217.095 1.39899C251.143 1.67941 264.279 19.1913 264.279 47.9978L264.575 496.486C263.96 522.055 246.395 538.372 217.095 538.372H51.7955C22.1056 538.372 3.58105 521.17 3.58105 496.486L3.58105 47.9978C3.58105 18.2778 18.8097 1.39899 51.7955 1.39899L217.095 1.39899Z" fill="url(#paint7_linear_902_29399)"/>
<g filter="url(#filter0_ii_902_29399)">
<path d="M216.228 3.2486C247.601 3.2486 262.264 18.8994 262.264 50.2325V492.944C262.264 520.711 243.378 536.029 214.962 536.029H53.2706C25.1795 535.962 6.09229 519.499 6.09229 493.587V50.2446C6.09229 18.9115 21.898 3.2486 53.2706 3.2486L216.228 3.2486Z" fill="url(#paint8_linear_902_29399)"/>
</g>
<path d="M216.228 3.2486C247.601 3.2486 262.264 18.8994 262.264 50.2325V492.944C262.264 520.711 243.378 536.029 214.962 536.029H53.2706C25.1795 535.962 6.09229 519.499 6.09229 493.587V50.2446C6.09229 18.9115 21.898 3.2486 53.2706 3.2486L216.228 3.2486Z" stroke="black" stroke-width="0.5"/>
<mask id="mask5_902_29399" style="mask-type:alpha" maskUnits="userSpaceOnUse" x="5" y="2" width="258" height="535">
<path d="M216.228 3.2486C247.601 3.2486 262.264 18.8994 262.264 50.2325V492.944C262.264 520.711 243.378 536.029 214.962 536.029H53.2706C25.1795 535.962 6.09229 519.499 6.09229 493.587V50.2446C6.09229 18.9115 21.898 3.2486 53.2706 3.2486L216.228 3.2486Z" fill="white" stroke="white" stroke-width="0.5"/>
</mask>
<g mask="url(#mask5_902_29399)">
<g filter="url(#filter1_ii_902_29399)">
<path d="M216.228 3.38907C247.601 3.38907 262.264 19.0399 262.264 50.373V493.084C262.264 520.852 243.378 536.17 214.962 536.17L53.3248 536.158C25.2337 536.09 6.14648 519.628 6.14648 493.716V50.373C6.14648 19.0399 21.9522 3.37697 53.3248 3.37697C53.3248 3.37697 88.3837 3.37662 111.753 3.37662C112.023 3.37662 113.112 3.30453 113.537 3.97188C113.853 4.46789 113.872 6.41869 113.872 6.41869C113.872 7.43424 114.698 8.25751 115.716 8.25751H152.186C153.205 8.25751 154.03 7.35429 154.03 6.41869C154.03 6.41869 153.91 4.65695 154.174 3.9745C154.437 3.29206 156.14 3.37295 156.496 3.37697C180.775 3.37697 216.228 3.38907 216.228 3.38907Z" fill="url(#paint9_linear_902_29399)" fill-opacity="0.01"/>
</g>
</g>
<path fill-rule="evenodd" clip-rule="evenodd" d="M54.8599 536.095L58.6586 536.184V540.359H54.8599V536.095Z" fill="url(#paint10_linear_902_29399)"/>
<path fill-rule="evenodd" clip-rule="evenodd" d="M1.38623 54.852H5.96814V58.64H1.38623V54.852Z" fill="url(#paint11_linear_902_29399)"/>
<path fill-rule="evenodd" clip-rule="evenodd" d="M1.38623 480.845L5.96814 480.845V484.633H1.38623V480.845Z" fill="url(#paint12_linear_902_29399)"/>
<path fill-rule="evenodd" clip-rule="evenodd" d="M266.926 54.852H262.414V58.64H266.926V54.852Z" fill="url(#paint13_linear_902_29399)"/>
<path fill-rule="evenodd" clip-rule="evenodd" d="M266.926 480.232H262.414V484.02H266.926V480.232Z" fill="url(#paint14_linear_902_29399)"/>
<path fill-rule="evenodd" clip-rule="evenodd" d="M208.997 -0.308594H212.795V3.11453H208.997V-0.308594Z" fill="url(#paint15_linear_902_29399)"/>
</g>
<g filter="url(#filter2_d_902_29399)">
<ellipse rx="3.78879" ry="3.7979" transform="matrix(0.27636 -0.961054 0.961468 0.274917 98.3544 19.9788)" fill="url(#paint16_linear_902_29399)"/>
<ellipse rx="3.78879" ry="3.7979" transform="matrix(0.27636 -0.961054 0.961468 0.274917 98.3544 19.9788)" stroke="url(#paint17_linear_902_29399)" stroke-width="0.515"/>
</g>
<g filter="url(#filter3_d_902_29399)">
<ellipse rx="2.52586" ry="2.53193" transform="matrix(0.27636 -0.961054 0.961468 0.274917 98.3546 19.9788)" fill="url(#paint18_linear_902_29399)"/>
</g>
<mask id="mask6_902_29399" style="mask-type:alpha" maskUnits="userSpaceOnUse" x="95" y="17" width="6" height="6">
<ellipse rx="2.52586" ry="2.53193" transform="matrix(0.27636 -0.961054 0.961468 0.274917 98.3546 19.9788)" fill="white"/>
</mask>
<g mask="url(#mask6_902_29399)">
<g filter="url(#filter4_d_902_29399)">
<ellipse rx="2.05226" ry="2.0572" transform="matrix(0.27636 -0.961054 0.961468 0.274917 98.3669 20.0103)" fill="url(#paint19_linear_902_29399)"/>
</g>
<ellipse rx="1.42079" ry="1.42421" transform="matrix(0.27636 -0.961054 0.961468 0.274917 98.367 20.0103)" fill="url(#paint20_radial_902_29399)"/>
<g filter="url(#filter5_f_902_29399)">
<ellipse rx="0.631464" ry="0.632983" transform="matrix(0.27636 -0.961054 0.961468 0.274917 99.8803 19.4725)" fill="#0D1343"/>
</g>
<ellipse opacity="0.351795" rx="0.473598" ry="0.474737" transform="matrix(0.27636 -0.961054 0.961468 0.274917 97.5629 19.1896)" fill="#8361FF"/>
<ellipse opacity="0.28111" rx="0.631464" ry="0.632983" transform="matrix(0.27636 -0.961054 0.961468 0.274917 98.9877 20.6101)" fill="#37759E"/>
<g opacity="0.773996" filter="url(#filter6_f_902_29399)">
<ellipse rx="0.631464" ry="0.632983" transform="matrix(0.27636 -0.961054 0.961468 0.274917 98.9877 19.3475)" fill="#513CDA"/>
</g>
</g>
<g filter="url(#filter7_i_902_29399)">
<path fill-rule="evenodd" clip-rule="evenodd" d="M115.962 4.43121C115.081 4.43121 114.366 5.14608 114.366 6.02792C114.366 6.90976 115.081 7.62463 115.962 7.62463H151.783C152.665 7.62463 153.379 6.90976 153.379 6.02792C153.379 5.14608 152.665 4.43121 151.783 4.43121H115.962Z" fill="#242424"/>
</g>
<path fill-rule="evenodd" clip-rule="evenodd" d="M115.962 4.43121C115.081 4.43121 114.366 5.14608 114.366 6.02792C114.366 6.90976 115.081 7.62463 115.962 7.62463H151.783C152.665 7.62463 153.379 6.90976 153.379 6.02792C153.379 5.14608 152.665 4.43121 151.783 4.43121H115.962Z" stroke="url(#paint21_linear_902_29399)" stroke-width="0.5"/>
<defs>
<filter id="filter0_ii_902_29399" x="5.34229" y="2.4986" width="257.672" height="534.28" filterUnits="userSpaceOnUse" color-interpolation-filters="sRGB">
<feFlood flood-opacity="0" result="BackgroundImageFix"/>
<feBlend mode="normal" in="SourceGraphic" in2="BackgroundImageFix" result="shape"/>
<feColorMatrix in="SourceAlpha" type="matrix" values="0 0 0 0 0 0 0 0 0 0 0 0 0 0 0 0 0 0 127 0" result="hardAlpha"/>
<feOffset dx="0.5" dy="0.5"/>
<feGaussianBlur stdDeviation="0.5"/>
<feComposite in2="hardAlpha" operator="arithmetic" k2="-1" k3="1"/>
<feColorMatrix type="matrix" values="0 0 0 0 1 0 0 0 0 1 0 0 0 0 1 0 0 0 0.303568 0"/>
<feBlend mode="normal" in2="shape" result="effect1_innerShadow_902_29399"/>
<feColorMatrix in="SourceAlpha" type="matrix" values="0 0 0 0 0 0 0 0 0 0 0 0 0 0 0 0 0 0 127 0" result="hardAlpha"/>
<feOffset dx="-0.5" dy="-0.5"/>
<feGaussianBlur stdDeviation="0.5"/>
<feComposite in2="hardAlpha" operator="arithmetic" k2="-1" k3="1"/>
<feColorMatrix type="matrix" values="0 0 0 0 1 0 0 0 0 1 0 0 0 0 1 0 0 0 0.5 0"/>
<feBlend mode="normal" in2="effect1_innerShadow_902_29399" result="effect2_innerShadow_902_29399"/>
</filter>
<filter id="filter1_ii_902_29399" x="5.64648" y="2.87207" width="257.118" height="533.798" filterUnits="userSpaceOnUse" color-interpolation-filters="sRGB">
<feFlood flood-opacity="0" result="BackgroundImageFix"/>
<feBlend mode="normal" in="SourceGraphic" in2="BackgroundImageFix" result="shape"/>
<feColorMatrix in="SourceAlpha" type="matrix" values="0 0 0 0 0 0 0 0 0 0 0 0 0 0 0 0 0 0 127 0" result="hardAlpha"/>
<feOffset dx="0.5" dy="0.5"/>
<feGaussianBlur stdDeviation="0.5"/>
<feComposite in2="hardAlpha" operator="arithmetic" k2="-1" k3="1"/>
<feColorMatrix type="matrix" values="0 0 0 0 1 0 0 0 0 1 0 0 0 0 1 0 0 0 0.15049 0"/>
<feBlend mode="normal" in2="shape" result="effect1_innerShadow_902_29399"/>
<feColorMatrix in="SourceAlpha" type="matrix" values="0 0 0 0 0 0 0 0 0 0 0 0 0 0 0 0 0 0 127 0" result="hardAlpha"/>
<feOffset dx="-0.5" dy="-0.5"/>
<feGaussianBlur stdDeviation="0.5"/>
<feComposite in2="hardAlpha" operator="arithmetic" k2="-1" k3="1"/>
<feColorMatrix type="matrix" values="0 0 0 0 1 0 0 0 0 1 0 0 0 0 1 0 0 0 0.280772 0"/>
<feBlend mode="normal" in2="effect1_innerShadow_902_29399" result="effect2_innerShadow_902_29399"/>
</filter>
<filter id="filter2_d_902_29399" x="93.2969" y="14.9324" width="10.1147" height="10.0928" filterUnits="userSpaceOnUse" color-interpolation-filters="sRGB">
<feFlood flood-opacity="0" result="BackgroundImageFix"/>
<feColorMatrix in="SourceAlpha" type="matrix" values="0 0 0 0 0 0 0 0 0 0 0 0 0 0 0 0 0 0 127 0" result="hardAlpha"/>
<feMorphology radius="1" operator="dilate" in="SourceAlpha" result="effect1_dropShadow_902_29399"/>
<feOffset/>
<feColorMatrix type="matrix" values="0 0 0 0 0.0874943 0 0 0 0 0.0874943 0 0 0 0 0.0874943 0 0 0 1 0"/>
<feBlend mode="normal" in2="BackgroundImageFix" result="effect1_dropShadow_902_29399"/>
<feBlend mode="normal" in="SourceGraphic" in2="effect1_dropShadow_902_29399" result="shape"/>
</filter>
<filter id="filter3_d_902_29399" x="94.8213" y="16.4528" width="7.06641" height="7.05194" filterUnits="userSpaceOnUse" color-interpolation-filters="sRGB">
<feFlood flood-opacity="0" result="BackgroundImageFix"/>
<feColorMatrix in="SourceAlpha" type="matrix" values="0 0 0 0 0 0 0 0 0 0 0 0 0 0 0 0 0 0 127 0" result="hardAlpha"/>
<feMorphology radius="1" operator="dilate" in="SourceAlpha" result="effect1_dropShadow_902_29399"/>
<feOffset/>
<feColorMatrix type="matrix" values="0 0 0 0 0 0 0 0 0 0 0 0 0 0 0 0 0 0 0.5 0"/>
<feBlend mode="normal" in2="BackgroundImageFix" result="effect1_dropShadow_902_29399"/>
<feBlend mode="normal" in="SourceGraphic" in2="effect1_dropShadow_902_29399" result="shape"/>
</filter>
<filter id="filter4_d_902_29399" x="96.3086" y="17.9579" width="4.11621" height="4.10468" filterUnits="userSpaceOnUse" color-interpolation-filters="sRGB">
<feFlood flood-opacity="0" result="BackgroundImageFix"/>
<feColorMatrix in="SourceAlpha" type="matrix" values="0 0 0 0 0 0 0 0 0 0 0 0 0 0 0 0 0 0 127 0" result="hardAlpha"/>
<feOffset/>
<feColorMatrix type="matrix" values="0 0 0 0 0.129412 0 0 0 0 0.45098 0 0 0 0 0.533333 0 0 0 0.27046 0"/>
<feBlend mode="normal" in2="BackgroundImageFix" result="effect1_dropShadow_902_29399"/>
<feBlend mode="normal" in="SourceGraphic" in2="effect1_dropShadow_902_29399" result="shape"/>
</filter>
<filter id="filter5_f_902_29399" x="96.4472" y="16.0412" width="6.86626" height="6.8626" filterUnits="userSpaceOnUse" color-interpolation-filters="sRGB">
<feFlood flood-opacity="0" result="BackgroundImageFix"/>
<feBlend mode="normal" in="SourceGraphic" in2="BackgroundImageFix" result="shape"/>
<feGaussianBlur stdDeviation="1.39992" result="effect1_foregroundBlur_902_29399"/>
</filter>
<filter id="filter6_f_902_29399" x="95.5547" y="15.9162" width="6.86626" height="6.8626" filterUnits="userSpaceOnUse" color-interpolation-filters="sRGB">
<feFlood flood-opacity="0" result="BackgroundImageFix"/>
<feBlend mode="normal" in="SourceGraphic" in2="BackgroundImageFix" result="shape"/>
<feGaussianBlur stdDeviation="1.39992" result="effect1_foregroundBlur_902_29399"/>
</filter>
<filter id="filter7_i_902_29399" x="114.116" y="4.18121" width="39.5137" height="4.69342" filterUnits="userSpaceOnUse" color-interpolation-filters="sRGB">
<feFlood flood-opacity="0" result="BackgroundImageFix"/>
<feBlend mode="normal" in="SourceGraphic" in2="BackgroundImageFix" result="shape"/>
<feColorMatrix in="SourceAlpha" type="matrix" values="0 0 0 0 0 0 0 0 0 0 0 0 0 0 0 0 0 0 127 0" result="hardAlpha"/>
<feOffset dy="1"/>
<feGaussianBlur stdDeviation="1.5"/>
<feComposite in2="hardAlpha" operator="arithmetic" k2="-1" k3="1"/>
<feColorMatrix type="matrix" values="0 0 0 0 0 0 0 0 0 0 0 0 0 0 0 0 0 0 0.5 0"/>
<feBlend mode="normal" in2="shape" result="effect1_innerShadow_902_29399"/>
</filter>
<linearGradient id="paint0_linear_902_29399" x1="264.368" y1="161.844" x2="264.368" y2="225.997" gradientUnits="userSpaceOnUse">
<stop stop-color="#7F9EB2"/>
<stop offset="0.014816" stop-color="#0E2535"/>
<stop offset="0.0329131" stop-color="#1D3446"/>
<stop offset="0.0515587" stop-color="#40596B"/>
<stop offset="0.92982" stop-color="#3D586B"/>
<stop offset="0.957707" stop-color="#0E2534"/>
<stop offset="0.979319" stop-color="#84A3B7"/>
<stop offset="1" stop-color="#59564C"/>
<stop offset="1" stop-color="#12232D"/>
</linearGradient>
<linearGradient id="paint1_linear_902_29399" x1="-1.23498" y1="199.552" x2="-1.23498" y2="239.891" gradientUnits="userSpaceOnUse">
<stop stop-color="#7F9EB2"/>
<stop offset="0.014816" stop-color="#0E2535"/>
<stop offset="0.0329131" stop-color="#1D3446"/>
<stop offset="0.0515587" stop-color="#40596B"/>
<stop offset="0.92982" stop-color="#3D586B"/>
<stop offset="0.957707" stop-color="#0E2534"/>
<stop offset="0.979319" stop-color="#84A3B7"/>
<stop offset="1" stop-color="#59564C"/>
<stop offset="1" stop-color="#12232D"/>
</linearGradient>
<linearGradient id="paint2_linear_902_29399" x1="-0.86903" y1="201.099" x2="-0.86903" y2="237.501" gradientUnits="userSpaceOnUse">
<stop stop-color="#2D414A"/>
<stop offset="0.0549778" stop-color="#8DABBA"/>
<stop offset="0.942581" stop-color="#819BAA"/>
<stop offset="1" stop-color="#2D414A"/>
</linearGradient>
<linearGradient id="paint3_linear_902_29399" x1="-1.23498" y1="148.065" x2="-1.23498" y2="188.404" gradientUnits="userSpaceOnUse">
<stop stop-color="#7F9EB2"/>
<stop offset="0.014816" stop-color="#0E2535"/>
<stop offset="0.0329131" stop-color="#1D3446"/>
<stop offset="0.0515587" stop-color="#40596B"/>
<stop offset="0.92982" stop-color="#3D586B"/>
<stop offset="0.957707" stop-color="#0E2534"/>
<stop offset="0.979319" stop-color="#84A3B7"/>
<stop offset="1" stop-color="#59564C"/>
<stop offset="1" stop-color="#12232D"/>
</linearGradient>
<linearGradient id="paint4_linear_902_29399" x1="-0.86903" y1="149.612" x2="-0.86903" y2="186.014" gradientUnits="userSpaceOnUse">
<stop stop-color="#2D414A"/>
<stop offset="0.0549778" stop-color="#8DABBA"/>
<stop offset="0.942581" stop-color="#819BAA"/>
<stop offset="1" stop-color="#2D414A"/>
</linearGradient>
<linearGradient id="paint5_linear_902_29399" x1="-1.23498" y1="108.599" x2="-1.23498" y2="129.363" gradientUnits="userSpaceOnUse">
<stop stop-color="#7F9EB2"/>
<stop offset="0.014816" stop-color="#0E2535"/>
<stop offset="0.0329131" stop-color="#1D3446"/>
<stop offset="0.0515587" stop-color="#40596B"/>
<stop offset="0.92982" stop-color="#3D586B"/>
<stop offset="0.957707" stop-color="#0E2534"/>
<stop offset="0.979319" stop-color="#84A3B7"/>
<stop offset="1" stop-color="#59564C"/>
<stop offset="1" stop-color="#12232D"/>
</linearGradient>
<linearGradient id="paint6_linear_902_29399" x1="-0.682061" y1="109.177" x2="-0.682061" y2="128.273" gradientUnits="userSpaceOnUse">
<stop stop-color="#2D414A"/>
<stop offset="0.0549778" stop-color="#8DABBA"/>
<stop offset="0.942581" stop-color="#819BAA"/>
<stop offset="1" stop-color="#2D414A"/>
</linearGradient>
<linearGradient id="paint7_linear_902_29399" x1="3.58105" y1="1.39899" x2="3.58105" y2="538.372" gradientUnits="userSpaceOnUse">
<stop stop-color="#63758C"/>
<stop offset="0.206295" stop-color="#576981"/>
<stop offset="0.907716" stop-color="#44596D"/>
<stop offset="1" stop-color="#4C6076"/>
</linearGradient>
<linearGradient id="paint8_linear_902_29399" x1="6.09229" y1="3.2486" x2="6.09229" y2="536.026" gradientUnits="userSpaceOnUse">
<stop stop-color="#060606"/>
<stop offset="1" stop-color="#0A0A0A"/>
</linearGradient>
<linearGradient id="paint9_linear_902_29399" x1="6.14648" y1="3.37115" x2="6.14648" y2="536.17" gradientUnits="userSpaceOnUse">
<stop stop-color="#060606"/>
<stop offset="1" stop-color="#0A0A0A"/>
</linearGradient>
<linearGradient id="paint10_linear_902_29399" x1="54.8599" y1="536.095" x2="54.8599" y2="540.359" gradientUnits="userSpaceOnUse">
<stop stop-color="#3A4864"/>
<stop offset="0.0361948" stop-color="#6C778E"/>
<stop offset="0.566279" stop-color="#7E8DAC"/>
<stop offset="0.697931" stop-color="#92A0BE"/>
<stop offset="1" stop-color="#4E5E80"/>
</linearGradient>
<linearGradient id="paint11_linear_902_29399" x1="1.38623" y1="58.64" x2="5.96814" y2="58.64" gradientUnits="userSpaceOnUse">
<stop stop-color="#4E5E80"/>
<stop offset="0.250326" stop-color="#92A0BE"/>
<stop offset="0.530644" stop-color="#7E8DAC"/>
<stop offset="0.963805" stop-color="#6C778E"/>
<stop offset="1" stop-color="#3A4864"/>
</linearGradient>
<linearGradient id="paint12_linear_902_29399" x1="1.38623" y1="484.633" x2="5.96814" y2="484.633" gradientUnits="userSpaceOnUse">
<stop stop-color="#4E5E80"/>
<stop offset="0.250326" stop-color="#92A0BE"/>
<stop offset="0.530644" stop-color="#7E8DAC"/>
<stop offset="0.963805" stop-color="#6C778E"/>
<stop offset="1" stop-color="#3A4864"/>
</linearGradient>
<linearGradient id="paint13_linear_902_29399" x1="262.414" y1="58.4818" x2="266.549" y2="58.4818" gradientUnits="userSpaceOnUse">
<stop stop-color="#3A4864"/>
<stop offset="0.0361948" stop-color="#6C778E"/>
<stop offset="0.469356" stop-color="#7E8DAC"/>
<stop offset="0.749674" stop-color="#92A0BE"/>
<stop offset="1" stop-color="#4E5E80"/>
</linearGradient>
<linearGradient id="paint14_linear_902_29399" x1="262.414" y1="483.862" x2="266.549" y2="483.862" gradientUnits="userSpaceOnUse">
<stop stop-color="#3A4864"/>
<stop offset="0.0361948" stop-color="#6C778E"/>
<stop offset="0.469356" stop-color="#7E8DAC"/>
<stop offset="0.749674" stop-color="#92A0BE"/>
<stop offset="1" stop-color="#4E5E80"/>
</linearGradient>
<linearGradient id="paint15_linear_902_29399" x1="208.997" y1="-0.308594" x2="208.997" y2="3.11453" gradientUnits="userSpaceOnUse">
<stop stop-color="#4E5E80"/>
<stop offset="0.302069" stop-color="#92A0BE"/>
<stop offset="0.433721" stop-color="#7E8DAC"/>
<stop offset="0.963805" stop-color="#6C778E"/>
<stop offset="1" stop-color="#3A4864"/>
</linearGradient>
<linearGradient id="paint16_linear_902_29399" x1="1.33851" y1="-0.394697" x2="-0.895827" y2="5.607" gradientUnits="userSpaceOnUse">
<stop/>
<stop offset="0.544578" stop-color="#0F0F0F"/>
<stop offset="1" stop-color="#272727"/>
</linearGradient>
<linearGradient id="paint17_linear_902_29399" x1="0.956336" y1="-0.742076" x2="-0.53118" y2="7.90356" gradientUnits="userSpaceOnUse">
<stop/>
<stop offset="1" stop-color="#3C3C3C"/>
</linearGradient>
<linearGradient id="paint18_linear_902_29399" x1="-0.139317" y1="0.684228" x2="1.23194" y2="5.4882" gradientUnits="userSpaceOnUse">
<stop stop-color="#003472"/>
<stop offset="0.605134" stop-color="#00050B" stop-opacity="0.0965401"/>
<stop offset="1" stop-color="#305379"/>
</linearGradient>
<linearGradient id="paint19_linear_902_29399" x1="-0.247459" y1="0.623228" x2="1.00144" y2="4.52613" gradientUnits="userSpaceOnUse">
<stop stop-color="#217388"/>
<stop offset="0.186067" stop-color="#1D4455"/>
<stop offset="0.581198" stop-opacity="0.01"/>
<stop offset="1" stop-color="#6299E0"/>
</linearGradient>
<radialGradient id="paint20_radial_902_29399" cx="0" cy="0" r="1" gradientUnits="userSpaceOnUse" gradientTransform="translate(1.42079 1.42421) rotate(73.1135) scale(1.48839 6.98016)">
<stop/>
<stop offset="1" stop-color="#003B81"/>
</radialGradient>
<linearGradient id="paint21_linear_902_29399" x1="114.366" y1="7.98637" x2="153.379" y2="7.98637" gradientUnits="userSpaceOnUse">
<stop stop-color="#101010"/>
<stop offset="0.0653278" stop-color="#3E3E3E"/>
<stop offset="0.944178" stop-color="#333333"/>
<stop offset="1" stop-color="#151515"/>
</linearGradient>
</defs>
</svg>
