<svg width="112" height="40" viewBox="0 0 112 40" fill="none" xmlns="http://www.w3.org/2000/svg">
<path d="M1 9C1 4.58172 4.58172 1 9 1H103C107.418 1 111 4.58172 111 9V31C111 35.4183 107.418 39 103 39H9C4.58172 39 1 35.4183 1 31V9Z" fill="#141619"/>
<g clip-path="url(#clip0_288_19874)">
<path d="M22.0234 12.0168H15.6239C14.2495 12.0168 13.1353 13.1311 13.1353 14.5055V20.905C13.1353 22.2794 14.2495 23.3937 15.6239 23.3937H22.0234C23.3978 23.3937 24.5121 22.2794 24.5121 20.905V14.5055C24.5121 13.1311 23.3978 12.0168 22.0234 12.0168Z" fill="#0A48B6"/>
<path fill-rule="evenodd" clip-rule="evenodd" d="M19.0054 14.5209L18.9105 14.2364C18.8983 14.1995 18.8462 14.1995 18.8339 14.2364L18.739 14.5209L18.4391 14.5232C18.4003 14.5235 18.3842 14.5731 18.4155 14.5961L18.6567 14.7743L18.5662 15.0602C18.5545 15.0973 18.5967 15.1279 18.6283 15.1053L18.8722 14.9309L19.1162 15.1053C19.1478 15.1279 19.1899 15.0973 19.1782 15.0602L19.0878 14.7743L19.329 14.5961C19.3603 14.5731 19.3442 14.5235 19.3053 14.5232L19.0054 14.5209ZM19.0054 20.6292L18.9105 20.3447C18.8983 20.3079 18.8462 20.3079 18.8339 20.3447L18.739 20.6292L18.4391 20.6316C18.4003 20.6318 18.3842 20.6814 18.4155 20.7045L18.6567 20.8826L18.5662 21.1686C18.5545 21.2056 18.5967 21.2362 18.6283 21.2136L18.8722 21.0392L19.1162 21.2136C19.1478 21.2362 19.1899 21.2056 19.1782 21.1686L19.0878 20.8826L19.329 20.7045C19.3603 20.6814 19.3442 20.6319 19.3053 20.6316L19.0054 20.6292ZM21.9644 17.2906L22.0593 17.5751L22.3592 17.5774C22.398 17.5777 22.4141 17.6272 22.3829 17.6503L22.1416 17.8285L22.2321 18.1144C22.2438 18.1514 22.2016 18.1821 22.1701 18.1595L21.9261 17.9851L21.6821 18.1595C21.6505 18.1821 21.6083 18.1514 21.6201 18.1144L21.7105 17.8285L21.4693 17.6503C21.438 17.6273 21.4541 17.5777 21.493 17.5774L21.7928 17.5751L21.8877 17.2906C21.9 17.2537 21.9521 17.2537 21.9644 17.2906ZM15.9516 17.5751L15.8568 17.2906C15.8445 17.2537 15.7924 17.2537 15.7801 17.2906L15.6852 17.5751L15.3853 17.5774C15.3465 17.5777 15.3304 17.6273 15.3616 17.6503L15.6029 17.8285L15.5124 18.1144C15.5007 18.1514 15.5428 18.1821 15.5744 18.1595L15.8184 17.9851L16.0624 18.1595C16.094 18.1821 16.1361 18.1514 16.1244 18.1144L16.034 17.8285L16.2752 17.6503C16.3064 17.6272 16.2903 17.5777 16.2515 17.5774L15.9516 17.5751ZM16.3159 15.6955L16.4108 15.98L16.7107 15.9823C16.7496 15.9826 16.7657 16.0322 16.7344 16.0552L16.4932 16.2334L16.5836 16.5193C16.5953 16.5563 16.5532 16.5869 16.5216 16.5644L16.2776 16.39L16.0337 16.5644C16.0021 16.5869 15.9599 16.5563 15.9716 16.5193L16.0621 16.2334L15.8209 16.0552C15.7896 16.0322 15.8057 15.9826 15.8445 15.9823L16.1444 15.98L16.2393 15.6955C16.2516 15.6587 16.3037 15.6587 16.3159 15.6955ZM21.7 19.0342L21.6051 18.7497C21.5929 18.7129 21.5408 18.7129 21.5285 18.7497L21.4336 19.0342L21.1337 19.0365C21.0949 19.0368 21.0788 19.0864 21.11 19.1094L21.3513 19.2876L21.2608 19.5735C21.2491 19.6105 21.2912 19.6412 21.3228 19.6186L21.5668 19.4442L21.8108 19.6186C21.8424 19.6412 21.8845 19.6105 21.8728 19.5735L21.7824 19.2876L22.0236 19.1094C22.0548 19.0864 22.0387 19.0368 21.9999 19.0365L21.7 19.0342ZM20.4868 14.5776L20.5816 14.8621L20.8815 14.8645C20.9203 14.8648 20.9364 14.9143 20.9052 14.9374L20.664 15.1156L20.7544 15.4015C20.7661 15.4385 20.724 15.4691 20.6924 15.4465L20.4484 15.2722L20.2044 15.4465C20.1728 15.4691 20.1307 15.4385 20.1424 15.4015L20.2329 15.1156L19.9916 14.9374C19.9604 14.9143 19.9765 14.8648 20.0153 14.8645L20.3152 14.8621L20.4101 14.5776C20.4224 14.5408 20.4745 14.5408 20.4868 14.5776ZM17.5278 20.1521L17.4329 19.8676C17.4206 19.8307 17.3685 19.8307 17.3563 19.8676L17.2614 20.1521L16.9615 20.1544C16.9227 20.1547 16.9066 20.2042 16.9378 20.2273L17.179 20.4055L17.0886 20.6914C17.0769 20.7284 17.119 20.759 17.1506 20.7365L17.3946 20.5621L17.6386 20.7365C17.6702 20.759 17.7123 20.7284 17.7006 20.6914L17.6101 20.4055L17.8514 20.2273C17.8826 20.2042 17.8665 20.1547 17.8277 20.1544L17.5278 20.1521ZM21.5285 15.6955L21.4336 15.98L21.1337 15.9823C21.0949 15.9826 21.0788 16.0322 21.11 16.0552L21.3513 16.2334L21.2608 16.5193C21.2491 16.5563 21.2913 16.5869 21.3228 16.5644L21.5668 16.39L21.8108 16.5644C21.8424 16.5869 21.8845 16.5563 21.8728 16.5193L21.7824 16.2334L22.0236 16.0552C22.0548 16.0322 22.0387 15.9826 21.9999 15.9823L21.7 15.98L21.6051 15.6955C21.5929 15.6587 21.5408 15.6587 21.5285 15.6955ZM16.1444 19.0342L16.2393 18.7497C16.2516 18.7129 16.3037 18.7129 16.316 18.7497L16.4109 19.0342L16.7108 19.0365C16.7496 19.0368 16.7657 19.0864 16.7344 19.1094L16.4932 19.2876L16.5837 19.5735C16.5953 19.6105 16.5532 19.6412 16.5216 19.6186L16.2776 19.4442L16.0337 19.6186C16.0021 19.6412 15.9599 19.6105 15.9716 19.5735L16.0621 19.2876L15.8209 19.1094C15.7896 19.0864 15.8057 19.0368 15.8445 19.0365L16.1444 19.0342ZM17.3563 14.5776L17.2614 14.8621L16.9615 14.8645C16.9227 14.8648 16.9066 14.9143 16.9378 14.9374L17.179 15.1156L17.0886 15.4015C17.0769 15.4385 17.119 15.4691 17.1506 15.4465L17.3946 15.2722L17.6386 15.4465C17.6702 15.4691 17.7123 15.4385 17.7006 15.4015L17.6101 15.1156L17.8514 14.9374C17.8826 14.9143 17.8665 14.8648 17.8277 14.8645L17.5278 14.8621L17.4329 14.5776C17.4206 14.5408 17.3685 14.5408 17.3563 14.5776ZM20.3152 20.1521L20.4101 19.8676C20.4224 19.8307 20.4745 19.8307 20.4867 19.8676L20.5816 20.1521L20.8815 20.1544C20.9203 20.1547 20.9364 20.2042 20.9052 20.2273L20.6639 20.4055L20.7544 20.6914C20.7661 20.7284 20.724 20.759 20.6924 20.7365L20.4484 20.5621L20.2044 20.7365C20.1728 20.759 20.1307 20.7284 20.1424 20.6914L20.2329 20.4055L19.9916 20.2273C19.9604 20.2042 19.9765 20.1547 20.0153 20.1544L20.3152 20.1521Z" fill="#FFE15A"/>
<path fill-rule="evenodd" clip-rule="evenodd" d="M20.5558 16.6846H30.7445C30.9602 16.9376 31.1262 17.2343 31.2272 17.5597H20.0731C20.1741 17.2343 20.3401 16.9376 20.5558 16.6846ZM19.9613 18.4348H31.3381V19.3098H19.9613V18.4348ZM31.3381 20.1852H19.9613V21.0602H31.3381V20.1852ZM19.9613 21.9352H31.3381V22.8103H19.9613V21.9352ZM31.3381 23.6858H19.9613V24.5609H31.3381V23.6858ZM20.0731 25.436H31.2272C31.1262 25.7614 30.9602 26.0581 30.7445 26.3112H20.5558C20.3401 26.0581 20.1741 25.7614 20.0731 25.436Z" fill="#F5F5F5"/>
<path fill-rule="evenodd" clip-rule="evenodd" d="M28.8496 15.8091H22.4501C21.6913 15.8091 21.012 16.1488 20.5555 16.6842H30.7441C30.2877 16.1488 29.6083 15.8091 28.8496 15.8091ZM31.3383 19.3095H19.9615V20.1846H31.3383V19.3095ZM31.2269 17.5597C31.2993 17.793 31.3383 18.0409 31.3383 18.2981V18.4348H19.9615V18.2981C19.9615 18.0409 20.0005 17.793 20.0728 17.5597H31.2269ZM31.3383 21.0599H19.9615V21.935H31.3383V21.0599ZM31.3383 24.5607V24.6975C31.3383 24.9546 31.2993 25.2026 31.2269 25.4359H20.0728C20.0005 25.2026 19.9615 24.9546 19.9615 24.6975V24.5607H31.3383ZM30.7441 26.3108H20.5555C21.012 26.8462 21.6913 27.1859 22.4501 27.1859H28.8495C29.6083 27.1859 30.2877 26.8462 30.7441 26.3108ZM19.9615 22.8103H31.3383V23.6854H19.9615V22.8103Z" fill="#FA4051"/>
<path d="M26.0292 15.8091H22.4265C21.0652 15.8091 19.9615 16.9233 19.9615 18.2978V21.9351H26.0292V15.8091Z" fill="#1939C9"/>
<path fill-rule="evenodd" clip-rule="evenodd" d="M21.9431 16.3563L21.9903 16.4978L22.1394 16.499C22.1587 16.4991 22.1668 16.5238 22.1512 16.5352L22.0312 16.6239L22.0762 16.7661C22.082 16.7845 22.0611 16.7998 22.0453 16.7885L21.9239 16.7018L21.8026 16.7885C21.7868 16.7998 21.7659 16.7845 21.7717 16.7661L21.8167 16.6239L21.6967 16.5352C21.6811 16.5238 21.6891 16.4991 21.7085 16.499L21.8576 16.4978L21.9048 16.3563C21.911 16.338 21.9369 16.338 21.9431 16.3563ZM20.6214 16.7663C20.6156 16.7847 20.6366 16.7999 20.6523 16.7887L20.7737 16.702L20.8951 16.7887C20.9108 16.7999 20.9317 16.7847 20.9259 16.7663L20.8809 16.624L21.001 16.5354C21.0165 16.5239 21.0085 16.4993 20.9892 16.4991L20.84 16.4979L20.8145 16.4216C20.7506 16.4773 20.6896 16.5364 20.6316 16.5983L20.6665 16.624L20.6214 16.7663ZM20.7928 17.5367L20.84 17.6783L20.9892 17.6794C21.0085 17.6796 21.0165 17.7042 21.001 17.7157L20.881 17.8044L20.926 17.9466C20.9318 17.965 20.9108 17.9803 20.8951 17.969L20.7737 17.8823L20.6523 17.969C20.6366 17.9803 20.6156 17.965 20.6214 17.9466L20.6664 17.8044L20.5464 17.7157C20.5309 17.7043 20.5389 17.6796 20.5582 17.6794L20.7074 17.6783L20.7546 17.5367C20.7608 17.5184 20.7867 17.5184 20.7928 17.5367ZM20.84 18.988L20.7928 18.8464C20.7867 18.8281 20.7608 18.8281 20.7546 18.8464L20.7074 18.988L20.5582 18.9891C20.5389 18.9893 20.5309 19.014 20.5464 19.0254L20.6664 19.1141L20.6214 19.2563C20.6156 19.2747 20.6366 19.29 20.6523 19.2787L20.7737 19.192L20.8951 19.2787C20.9108 19.29 20.9318 19.2747 20.926 19.2563L20.881 19.1141L21.001 19.0254C21.0165 19.0139 21.0085 18.9893 20.9892 18.9891L20.84 18.988ZM20.7928 20.0499L20.84 20.1914L20.9892 20.1926C21.0085 20.1927 21.0165 20.2173 21.001 20.2288L20.881 20.3175L20.926 20.4597C20.9318 20.4781 20.9108 20.4934 20.8951 20.4821L20.7737 20.3954L20.6523 20.4821C20.6366 20.4934 20.6156 20.4781 20.6214 20.4597L20.6664 20.3175L20.5464 20.2288C20.5309 20.2174 20.5389 20.1927 20.5582 20.1926L20.7074 20.1914L20.7546 20.0499C20.7608 20.0315 20.7867 20.0315 20.7928 20.0499ZM20.84 21.2859L20.7928 21.1444C20.7867 21.1261 20.7608 21.1261 20.7546 21.1444L20.7074 21.2859L20.5582 21.2871C20.5389 21.2872 20.5309 21.3119 20.5464 21.3234L20.6664 21.412L20.6214 21.5543C20.6156 21.5727 20.6366 21.5879 20.6523 21.5767L20.7737 21.4899L20.8951 21.5767C20.9108 21.5879 20.9318 21.5727 20.926 21.5543L20.881 21.412L21.001 21.3234C21.0165 21.3119 21.0085 21.2872 20.9892 21.2871L20.84 21.2859ZM21.3668 16.9153L21.414 17.0568L21.5631 17.058C21.5825 17.0582 21.5905 17.0828 21.5749 17.0943L21.4549 17.1829L21.4999 17.3252C21.5057 17.3436 21.4848 17.3588 21.469 17.3476L21.3477 17.2608L21.2263 17.3476C21.2106 17.3588 21.1896 17.3436 21.1954 17.3252L21.2404 17.1829L21.1204 17.0943C21.1049 17.0828 21.1129 17.0581 21.1322 17.058L21.2814 17.0568L21.3286 16.9153C21.3347 16.897 21.3607 16.897 21.3668 16.9153ZM21.414 18.3662L21.3668 18.2246C21.3607 18.2063 21.3348 18.2063 21.3286 18.2246L21.2814 18.3662L21.1322 18.3673C21.1129 18.3675 21.1049 18.3922 21.1204 18.4036L21.2404 18.4923L21.1954 18.6345C21.1896 18.6529 21.2106 18.6682 21.2263 18.6569L21.3477 18.5702L21.4691 18.6569C21.4848 18.6682 21.5058 18.6529 21.5 18.6345L21.455 18.4923L21.575 18.4036C21.5905 18.3921 21.5825 18.3675 21.5632 18.3673L21.414 18.3662ZM21.3668 19.4688L21.414 19.6103L21.5632 19.6115C21.5825 19.6116 21.5905 19.6363 21.575 19.6478L21.455 19.7364L21.5 19.8787C21.5058 19.8971 21.4848 19.9123 21.4691 19.9011L21.3477 19.8143L21.2263 19.9011C21.2106 19.9123 21.1896 19.8971 21.1954 19.8787L21.2404 19.7364L21.1204 19.6478C21.1049 19.6363 21.1129 19.6116 21.1322 19.6115L21.2814 19.6103L21.3286 19.4688C21.3348 19.4505 21.3607 19.4505 21.3668 19.4688ZM21.414 20.7278L21.3668 20.5863C21.3607 20.568 21.3348 20.568 21.3286 20.5863L21.2814 20.7278L21.1322 20.729C21.1129 20.7291 21.1049 20.7538 21.1204 20.7653L21.2404 20.8539L21.1954 20.9962C21.1896 21.0146 21.2106 21.0298 21.2263 21.0186L21.3477 20.9318L21.4691 21.0186C21.4848 21.0298 21.5058 21.0146 21.5 20.9962L21.455 20.8539L21.575 20.7653C21.5905 20.7538 21.5825 20.7291 21.5632 20.729L21.414 20.7278ZM21.9903 17.6783L21.9431 17.5367C21.9369 17.5184 21.911 17.5184 21.9048 17.5367L21.8576 17.6783L21.7085 17.6794C21.6891 17.6796 21.6811 17.7043 21.6967 17.7157L21.8167 17.8044L21.7717 17.9466C21.7659 17.965 21.7868 17.9803 21.8026 17.969L21.9239 17.8823L22.0453 17.969C22.0611 17.9803 22.082 17.965 22.0762 17.9466L22.0312 17.8044L22.1512 17.7157C22.1668 17.7042 22.1587 17.6796 22.1394 17.6794L21.9903 17.6783ZM21.9431 18.8464L21.9903 18.988L22.1394 18.9891C22.1587 18.9893 22.1668 19.0139 22.1512 19.0254L22.0312 19.1141L22.0762 19.2563C22.082 19.2747 22.0611 19.29 22.0453 19.2787L21.9239 19.192L21.8026 19.2787C21.7868 19.29 21.7659 19.2747 21.7717 19.2563L21.8167 19.1141L21.6967 19.0254C21.6811 19.014 21.6891 18.9893 21.7085 18.9891L21.8576 18.988L21.9048 18.8464C21.911 18.8281 21.9369 18.8281 21.9431 18.8464ZM21.9903 20.1914L21.9431 20.0499C21.9369 20.0315 21.911 20.0315 21.9048 20.0499L21.8576 20.1914L21.7085 20.1926C21.6891 20.1927 21.6811 20.2174 21.6967 20.2288L21.8167 20.3175L21.7717 20.4597C21.7659 20.4781 21.7868 20.4934 21.8026 20.4821L21.9239 20.3954L22.0453 20.4821C22.0611 20.4934 22.082 20.4781 22.0762 20.4597L22.0312 20.3175L22.1512 20.2288C22.1668 20.2173 22.1587 20.1927 22.1394 20.1926L21.9903 20.1914ZM21.9431 21.1444L21.9903 21.2859L22.1394 21.2871C22.1587 21.2872 22.1668 21.3119 22.1512 21.3234L22.0312 21.412L22.0762 21.5543C22.082 21.5727 22.0611 21.5879 22.0453 21.5767L21.9239 21.4899L21.8026 21.5767C21.7868 21.5879 21.7659 21.5727 21.7717 21.5543L21.8167 21.412L21.6967 21.3234C21.6811 21.3119 21.6891 21.2872 21.7085 21.2871L21.8576 21.2859L21.9048 21.1444C21.911 21.1261 21.9369 21.1261 21.9431 21.1444ZM22.5636 17.0568L22.5164 16.9153C22.5103 16.897 22.4843 16.897 22.4781 16.9153L22.4309 17.0568L22.2818 17.058C22.2624 17.0581 22.2544 17.0828 22.27 17.0943L22.39 17.1829L22.345 17.3252C22.3392 17.3436 22.3602 17.3588 22.3759 17.3476L22.4973 17.2608L22.6186 17.3476C22.6344 17.3588 22.6553 17.3436 22.6495 17.3252L22.6045 17.1829L22.7245 17.0943C22.7401 17.0828 22.7321 17.0582 22.7127 17.058L22.5636 17.0568ZM22.5164 18.2246L22.5636 18.3662L22.7127 18.3673C22.7321 18.3675 22.7401 18.3921 22.7245 18.4036L22.6045 18.4923L22.6495 18.6345C22.6553 18.6529 22.6344 18.6682 22.6186 18.6569L22.4973 18.5702L22.3759 18.6569C22.3602 18.6682 22.3392 18.6529 22.345 18.6345L22.39 18.4923L22.27 18.4036C22.2544 18.3922 22.2624 18.3675 22.2818 18.3673L22.4309 18.3662L22.4781 18.2246C22.4843 18.2063 22.5103 18.2063 22.5164 18.2246ZM22.5636 19.6103L22.5164 19.4688C22.5103 19.4505 22.4843 19.4505 22.4781 19.4688L22.4309 19.6103L22.2818 19.6115C22.2624 19.6116 22.2544 19.6363 22.27 19.6478L22.39 19.7364L22.345 19.8787C22.3392 19.8971 22.3602 19.9123 22.3759 19.9011L22.4973 19.8143L22.6186 19.9011C22.6344 19.9123 22.6553 19.8971 22.6495 19.8787L22.6045 19.7364L22.7245 19.6478C22.7401 19.6363 22.7321 19.6116 22.7127 19.6115L22.5636 19.6103ZM22.5164 20.5863L22.5636 20.7278L22.7127 20.729C22.7321 20.7291 22.7401 20.7538 22.7245 20.7653L22.6045 20.8539L22.6495 20.9962C22.6553 21.0146 22.6344 21.0298 22.6186 21.0186L22.4973 20.9318L22.3759 21.0186C22.3602 21.0298 22.3392 21.0146 22.345 20.9962L22.39 20.8539L22.27 20.7653C22.2544 20.7538 22.2624 20.7291 22.2818 20.729L22.4309 20.7278L22.4781 20.5863C22.4843 20.568 22.5103 20.568 22.5164 20.5863ZM23.1398 16.4978L23.0926 16.3563C23.0865 16.338 23.0606 16.338 23.0544 16.3563L23.0072 16.4978L22.858 16.499C22.8387 16.4991 22.8307 16.5238 22.8462 16.5352L22.9662 16.6239L22.9212 16.7661C22.9154 16.7845 22.9364 16.7998 22.9521 16.7885L23.0735 16.7018L23.1949 16.7885C23.2106 16.7998 23.2316 16.7845 23.2257 16.7661L23.1807 16.6239L23.3008 16.5352C23.3163 16.5238 23.3083 16.4991 23.289 16.499L23.1398 16.4978ZM23.0926 17.5367L23.1398 17.6783L23.2889 17.6794C23.3083 17.6796 23.3163 17.7042 23.3007 17.7157L23.1807 17.8044L23.2257 17.9466C23.2316 17.965 23.2106 17.9802 23.1949 17.969L23.0735 17.8822L22.9521 17.969C22.9364 17.9803 22.9154 17.965 22.9212 17.9466L22.9662 17.8043L22.8462 17.7157C22.8307 17.7042 22.8387 17.6796 22.858 17.6794L23.0072 17.6783L23.0544 17.5367C23.0605 17.5184 23.0865 17.5184 23.0926 17.5367ZM23.1398 18.988L23.0926 18.8464C23.0865 18.8281 23.0606 18.8281 23.0544 18.8464L23.0072 18.988L22.858 18.9891C22.8387 18.9893 22.8307 19.014 22.8462 19.0254L22.9662 19.1141L22.9212 19.2563C22.9154 19.2747 22.9364 19.29 22.9521 19.2787L23.0735 19.192L23.1949 19.2787C23.2106 19.29 23.2316 19.2747 23.2257 19.2563L23.1807 19.1141L23.3008 19.0254C23.3163 19.0139 23.3083 18.9893 23.289 18.9891L23.1398 18.988ZM23.0926 20.0499L23.1398 20.1914L23.289 20.1926C23.3083 20.1927 23.3163 20.2173 23.3008 20.2288L23.1807 20.3175L23.2257 20.4597C23.2316 20.4781 23.2106 20.4934 23.1949 20.4821L23.0735 20.3954L22.9521 20.4821C22.9364 20.4934 22.9154 20.4781 22.9212 20.4597L22.9662 20.3175L22.8462 20.2288C22.8307 20.2174 22.8387 20.1927 22.858 20.1926L23.0072 20.1914L23.0544 20.0499C23.0606 20.0315 23.0865 20.0315 23.0926 20.0499ZM23.1398 21.2859L23.0926 21.1444C23.0865 21.1261 23.0606 21.1261 23.0544 21.1444L23.0072 21.2859L22.858 21.2871C22.8387 21.2872 22.8307 21.3119 22.8462 21.3234L22.9662 21.412L22.9212 21.5543C22.9154 21.5727 22.9364 21.5879 22.9521 21.5767L23.0735 21.4899L23.1949 21.5767C23.2106 21.5879 23.2316 21.5727 23.2257 21.5543L23.1807 21.412L23.3008 21.3234C23.3163 21.3119 23.3083 21.2872 23.289 21.2871L23.1398 21.2859ZM23.6666 16.9153L23.7138 17.0568L23.863 17.058C23.8823 17.0582 23.8903 17.0828 23.8748 17.0943L23.7548 17.1829L23.7998 17.3252C23.8056 17.3436 23.7846 17.3588 23.7689 17.3476L23.6475 17.2608L23.5261 17.3476C23.5104 17.3588 23.4894 17.3436 23.4953 17.3252L23.5402 17.1829L23.4202 17.0943C23.4047 17.0828 23.4127 17.0581 23.432 17.058L23.5812 17.0568L23.6284 16.9153C23.6346 16.897 23.6605 16.897 23.6666 16.9153ZM23.7138 18.3662L23.6666 18.2246C23.6605 18.2063 23.6346 18.2063 23.6284 18.2246L23.5812 18.3662L23.432 18.3673C23.4127 18.3675 23.4047 18.3922 23.4202 18.4036L23.5402 18.4923L23.4953 18.6345C23.4894 18.6529 23.5104 18.6682 23.5261 18.6569L23.6475 18.5702L23.7689 18.6569C23.7846 18.6682 23.8056 18.6529 23.7998 18.6345L23.7548 18.4923L23.8748 18.4036C23.8903 18.3921 23.8823 18.3675 23.863 18.3673L23.7138 18.3662ZM23.6666 19.4688L23.7138 19.6103L23.863 19.6115C23.8823 19.6116 23.8903 19.6363 23.8748 19.6478L23.7548 19.7364L23.7998 19.8787C23.8056 19.8971 23.7846 19.9123 23.7689 19.9011L23.6475 19.8143L23.5261 19.9011C23.5104 19.9123 23.4894 19.8971 23.4953 19.8787L23.5402 19.7364L23.4202 19.6478C23.4047 19.6363 23.4127 19.6116 23.432 19.6115L23.5812 19.6103L23.6284 19.4688C23.6346 19.4505 23.6605 19.4505 23.6666 19.4688ZM23.7138 20.7278L23.6666 20.5863C23.6605 20.568 23.6346 20.568 23.6284 20.5863L23.5812 20.7278L23.432 20.729C23.4127 20.7291 23.4047 20.7538 23.4202 20.7653L23.5402 20.8539L23.4953 20.9962C23.4894 21.0146 23.5104 21.0298 23.5261 21.0186L23.6475 20.9318L23.7689 21.0186C23.7846 21.0298 23.8056 21.0146 23.7998 20.9962L23.7548 20.8539L23.8748 20.7653C23.8903 20.7538 23.8823 20.7291 23.863 20.729L23.7138 20.7278ZM24.2414 16.3563L24.2886 16.4978L24.4378 16.499C24.4571 16.4991 24.4651 16.5238 24.4496 16.5352L24.3296 16.6239L24.3745 16.7661C24.3804 16.7845 24.3594 16.7998 24.3437 16.7885L24.2223 16.7018L24.1009 16.7885C24.0852 16.7998 24.0642 16.7845 24.07 16.7661L24.115 16.6239L23.995 16.5352C23.9795 16.5238 23.9875 16.4991 24.0068 16.499L24.156 16.4978L24.2032 16.3563C24.2094 16.338 24.2353 16.338 24.2414 16.3563ZM24.2886 17.6783L24.2414 17.5367C24.2353 17.5184 24.2094 17.5184 24.2032 17.5367L24.156 17.6783L24.0068 17.6794C23.9875 17.6796 23.9795 17.7043 23.995 17.7157L24.115 17.8044L24.07 17.9466C24.0642 17.965 24.0852 17.9803 24.1009 17.969L24.2223 17.8823L24.3437 17.969C24.3594 17.9803 24.3804 17.965 24.3745 17.9466L24.3296 17.8044L24.4496 17.7157C24.4651 17.7042 24.4571 17.6796 24.4378 17.6794L24.2886 17.6783ZM24.2414 18.8464L24.2886 18.988L24.4378 18.9891C24.4571 18.9893 24.4651 19.0139 24.4496 19.0254L24.3296 19.1141L24.3745 19.2563C24.3804 19.2747 24.3594 19.29 24.3437 19.2787L24.2223 19.192L24.1009 19.2787C24.0852 19.29 24.0642 19.2747 24.07 19.2563L24.115 19.1141L23.995 19.0254C23.9795 19.014 23.9875 18.9893 24.0068 18.9891L24.156 18.988L24.2032 18.8464C24.2094 18.8281 24.2353 18.8281 24.2414 18.8464ZM24.2886 20.1914L24.2414 20.0499C24.2353 20.0315 24.2094 20.0315 24.2032 20.0499L24.156 20.1914L24.0068 20.1926C23.9875 20.1927 23.9795 20.2174 23.995 20.2288L24.115 20.3175L24.07 20.4597C24.0642 20.4781 24.0852 20.4934 24.1009 20.4821L24.2223 20.3954L24.3437 20.4821C24.3594 20.4934 24.3804 20.4781 24.3745 20.4597L24.3296 20.3175L24.4496 20.2288C24.4651 20.2173 24.4571 20.1927 24.4378 20.1926L24.2886 20.1914ZM24.2414 21.1444L24.2886 21.2859L24.4378 21.2871C24.4571 21.2872 24.4651 21.3119 24.4496 21.3234L24.3296 21.412L24.3745 21.5543C24.3804 21.5727 24.3594 21.5879 24.3437 21.5767L24.2223 21.4899L24.1009 21.5767C24.0852 21.5879 24.0642 21.5727 24.07 21.5543L24.115 21.412L23.995 21.3234C23.9795 21.3119 23.9875 21.2872 24.0068 21.2871L24.156 21.2859L24.2032 21.1444C24.2094 21.1261 24.2353 21.1261 24.2414 21.1444ZM24.8619 17.0568L24.8147 16.9153C24.8086 16.897 24.7827 16.897 24.7765 16.9153L24.7293 17.0568L24.5801 17.058C24.5608 17.0581 24.5528 17.0828 24.5683 17.0943L24.6883 17.1829L24.6433 17.3252C24.6375 17.3436 24.6585 17.3588 24.6742 17.3476L24.7956 17.2608L24.917 17.3476C24.9327 17.3588 24.9537 17.3436 24.9478 17.3252L24.9028 17.1829L25.0229 17.0943C25.0384 17.0828 25.0304 17.0582 25.0111 17.058L24.8619 17.0568ZM24.8147 18.2246L24.8619 18.3662L25.0111 18.3673C25.0304 18.3675 25.0384 18.3921 25.0229 18.4036L24.9028 18.4923L24.9478 18.6345C24.9537 18.6529 24.9327 18.6682 24.917 18.6569L24.7956 18.5702L24.6742 18.6569C24.6585 18.6682 24.6375 18.6529 24.6433 18.6345L24.6883 18.4923L24.5683 18.4036C24.5528 18.3922 24.5608 18.3675 24.5801 18.3673L24.7293 18.3662L24.7765 18.2246C24.7827 18.2063 24.8086 18.2063 24.8147 18.2246ZM24.8619 19.6103L24.8147 19.4688C24.8086 19.4505 24.7827 19.4505 24.7765 19.4688L24.7293 19.6103L24.5801 19.6115C24.5608 19.6116 24.5528 19.6363 24.5683 19.6478L24.6883 19.7364L24.6433 19.8787C24.6375 19.8971 24.6585 19.9123 24.6742 19.9011L24.7956 19.8143L24.917 19.9011C24.9327 19.9123 24.9537 19.8971 24.9478 19.8787L24.9028 19.7364L25.0229 19.6478C25.0384 19.6363 25.0304 19.6116 25.0111 19.6115L24.8619 19.6103ZM24.8147 20.5863L24.8619 20.7278L25.0111 20.729C25.0304 20.7291 25.0384 20.7538 25.0229 20.7653L24.9028 20.8539L24.9478 20.9962C24.9537 21.0146 24.9327 21.0298 24.917 21.0186L24.7956 20.9318L24.6742 21.0186C24.6585 21.0298 24.6375 21.0146 24.6433 20.9962L24.6883 20.8539L24.5683 20.7653C24.5528 20.7538 24.5608 20.7291 24.5801 20.729L24.7293 20.7278L24.7765 20.5863C24.7827 20.568 24.8086 20.568 24.8147 20.5863ZM25.4374 16.4978L25.3902 16.3563C25.3841 16.338 25.3582 16.338 25.352 16.3563L25.3048 16.4978L25.1556 16.499C25.1363 16.4991 25.1283 16.5238 25.1438 16.5352L25.2638 16.6239L25.2188 16.7661C25.213 16.7845 25.234 16.7998 25.2497 16.7885L25.3711 16.7018L25.4925 16.7885C25.5082 16.7998 25.5292 16.7845 25.5233 16.7661L25.4783 16.6239L25.5984 16.5352C25.6139 16.5238 25.6059 16.4991 25.5866 16.499L25.4374 16.4978ZM25.3902 17.5367L25.4374 17.6783L25.5866 17.6794C25.6059 17.6796 25.6139 17.7042 25.5984 17.7157L25.4783 17.8044L25.5233 17.9466C25.5292 17.965 25.5082 17.9803 25.4925 17.969L25.3711 17.8823L25.2497 17.969C25.234 17.9803 25.213 17.965 25.2188 17.9466L25.2638 17.8044L25.1438 17.7157C25.1283 17.7043 25.1363 17.6796 25.1556 17.6794L25.3048 17.6783L25.352 17.5367C25.3582 17.5184 25.3841 17.5184 25.3902 17.5367ZM25.4374 18.988L25.3902 18.8464C25.3841 18.8281 25.3582 18.8281 25.352 18.8464L25.3048 18.988L25.1556 18.9891C25.1363 18.9893 25.1283 19.014 25.1438 19.0254L25.2638 19.1141L25.2188 19.2563C25.213 19.2747 25.234 19.29 25.2497 19.2787L25.3711 19.192L25.4925 19.2787C25.5082 19.29 25.5292 19.2747 25.5233 19.2563L25.4783 19.1141L25.5984 19.0254C25.6139 19.0139 25.6059 18.9893 25.5866 18.9891L25.4374 18.988ZM25.3902 20.0499L25.4374 20.1914L25.5866 20.1926C25.6059 20.1927 25.6139 20.2173 25.5984 20.2288L25.4783 20.3175L25.5233 20.4597C25.5292 20.4781 25.5082 20.4934 25.4925 20.4821L25.3711 20.3954L25.2497 20.4821C25.234 20.4934 25.213 20.4781 25.2188 20.4597L25.2638 20.3175L25.1438 20.2288C25.1283 20.2174 25.1363 20.1927 25.1556 20.1926L25.3048 20.1914L25.352 20.0499C25.3582 20.0315 25.3841 20.0315 25.3902 20.0499ZM25.4374 21.2859L25.3902 21.1444C25.3841 21.1261 25.3582 21.1261 25.352 21.1444L25.3048 21.2859L25.1556 21.2871C25.1363 21.2872 25.1283 21.3119 25.1438 21.3234L25.2638 21.412L25.2188 21.5543C25.213 21.5727 25.234 21.5879 25.2497 21.5767L25.3711 21.4899L25.4925 21.5767C25.5082 21.5879 25.5292 21.5727 25.5233 21.5543L25.4783 21.412L25.5984 21.3234C25.6139 21.3119 25.6059 21.2872 25.5866 21.2871L25.4374 21.2859Z" fill="#F5F5F5"/>
</g>
<path d="M43.9652 22.1135V23.5H39.373V22.1135H43.9652ZM39.9537 14.8726V23.5H38.1761V14.8726H39.9537ZM43.3668 18.3864V19.7374H39.373V18.3864H43.3668ZM43.9593 14.8726V16.2651H39.373V14.8726H43.9593ZM49.7662 14.8726H51.5379V20.5728C51.5379 21.2365 51.3957 21.7955 51.1113 22.2497C50.8308 22.704 50.4417 23.0457 49.944 23.2748C49.4502 23.504 48.8814 23.6185 48.2375 23.6185C47.5936 23.6185 47.0208 23.504 46.5191 23.2748C46.0214 23.0457 45.6303 22.704 45.3459 22.2497C45.0654 21.7955 44.9252 21.2365 44.9252 20.5728V14.8726H46.7028V20.5728C46.7028 20.96 46.764 21.276 46.8865 21.5209C47.0089 21.7658 47.1847 21.9456 47.4138 22.0601C47.6469 22.1747 47.9214 22.232 48.2375 22.232C48.5614 22.232 48.8359 22.1747 49.0611 22.0601C49.2902 21.9456 49.464 21.7658 49.5825 21.5209C49.705 21.276 49.7662 20.96 49.7662 20.5728V14.8726ZM53.0015 14.8726H56.219C56.8787 14.8726 57.4456 14.9713 57.9196 15.1689C58.3976 15.3664 58.765 15.6587 59.0217 16.0458C59.2785 16.4329 59.4069 16.909 59.4069 17.4738C59.4069 17.936 59.3279 18.333 59.1699 18.6649C59.0158 18.9927 58.7966 19.2673 58.5121 19.4885C58.2317 19.7058 57.9018 19.8796 57.5226 20.0099L56.9597 20.3062H54.1629L54.151 18.9196H56.2309C56.5429 18.9196 56.8017 18.8643 57.0071 18.7537C57.2125 18.6431 57.3666 18.4891 57.4693 18.2916C57.5759 18.094 57.6293 17.8649 57.6293 17.6042C57.6293 17.3277 57.5779 17.0887 57.4752 16.8872C57.3725 16.6858 57.2165 16.5317 57.0071 16.425C56.7977 16.3184 56.535 16.2651 56.219 16.2651H54.7791V23.5H53.0015V14.8726ZM57.8248 23.5L55.8576 19.6544L57.7359 19.6425L59.7269 23.417V23.5H57.8248ZM64.3546 14.8726L61.1904 24.2407H59.9224L63.0866 14.8726H64.3546ZM70.043 14.8726H71.8147V20.5728C71.8147 21.2365 71.6725 21.7955 71.3881 22.2497C71.1076 22.704 70.7185 23.0457 70.2208 23.2748C69.727 23.504 69.1582 23.6185 68.5143 23.6185C67.8704 23.6185 67.2976 23.504 66.7959 23.2748C66.2982 23.0457 65.9071 22.704 65.6227 22.2497C65.3422 21.7955 65.2019 21.2365 65.2019 20.5728V14.8726H66.9796V20.5728C66.9796 20.96 67.0408 21.276 67.1633 21.5209C67.2857 21.7658 67.4615 21.9456 67.6906 22.0601C67.9237 22.1747 68.1982 22.232 68.5143 22.232C68.8382 22.232 69.1127 22.1747 69.3379 22.0601C69.567 21.9456 69.7408 21.7658 69.8593 21.5209C69.9818 21.276 70.043 20.96 70.043 20.5728V14.8726ZM77.7698 21.2424C77.7698 21.0884 77.7461 20.9501 77.6987 20.8276C77.6552 20.7012 77.5723 20.5867 77.4498 20.484C77.3273 20.3773 77.1555 20.2726 76.9343 20.1699C76.7131 20.0672 76.4267 19.9605 76.0751 19.8499C75.684 19.7235 75.3127 19.5813 74.9611 19.4233C74.6135 19.2653 74.3054 19.0816 74.0368 18.8722C73.7721 18.6589 73.5627 18.412 73.4087 18.1316C73.2585 17.8511 73.1835 17.5252 73.1835 17.1539C73.1835 16.7944 73.2625 16.4685 73.4205 16.1762C73.5785 15.8799 73.7997 15.6271 74.0842 15.4177C74.3686 15.2044 74.7044 15.0405 75.0915 14.9259C75.4826 14.8114 75.9112 14.7541 76.3773 14.7541C77.0133 14.7541 77.5683 14.8686 78.0423 15.0978C78.5164 15.3269 78.8838 15.6409 79.1445 16.0399C79.4091 16.4389 79.5415 16.8951 79.5415 17.4087H77.7757C77.7757 17.1558 77.7224 16.9346 77.6157 16.745C77.513 16.5515 77.355 16.3994 77.1417 16.2888C76.9323 16.1782 76.6676 16.1228 76.3477 16.1228C76.0395 16.1228 75.7828 16.1703 75.5774 16.2651C75.3719 16.3559 75.2179 16.4803 75.1152 16.6384C75.0125 16.7924 74.9611 16.9662 74.9611 17.1598C74.9611 17.306 74.9967 17.4383 75.0678 17.5568C75.1428 17.6753 75.2534 17.7859 75.3996 17.8886C75.5458 17.9913 75.7255 18.0881 75.9388 18.179C76.1521 18.2698 76.399 18.3587 76.6795 18.4456C77.1496 18.5878 77.5624 18.7478 77.9179 18.9256C78.2774 19.1033 78.5776 19.3028 78.8186 19.524C79.0595 19.7453 79.2413 19.9961 79.3637 20.2766C79.4862 20.557 79.5474 20.875 79.5474 21.2306C79.5474 21.6058 79.4743 21.9416 79.3282 22.2379C79.182 22.5342 78.9707 22.785 78.6941 22.9904C78.4176 23.1958 78.0878 23.3519 77.7046 23.4585C77.3214 23.5652 76.8928 23.6185 76.4188 23.6185C75.9921 23.6185 75.5714 23.5632 75.1567 23.4526C74.7419 23.338 74.3646 23.1662 74.0249 22.9371C73.6891 22.708 73.4205 22.4156 73.219 22.0601C73.0176 21.7046 72.9168 21.2839 72.9168 20.798H74.7004C74.7004 21.0666 74.7419 21.2938 74.8248 21.4794C74.9078 21.6651 75.0243 21.8152 75.1744 21.9298C75.3285 22.0443 75.5102 22.1273 75.7196 22.1786C75.9329 22.23 76.166 22.2557 76.4188 22.2557C76.7269 22.2557 76.9797 22.2122 77.1772 22.1253C77.3787 22.0384 77.5268 21.9179 77.6216 21.7639C77.7204 21.6098 77.7698 21.436 77.7698 21.2424ZM83.4048 23.5H81.5265L81.5383 22.1135H83.4048C83.871 22.1135 84.264 22.0088 84.584 21.7994C84.904 21.5861 85.1449 21.276 85.3069 20.8691C85.4728 20.4622 85.5558 19.9704 85.5558 19.3937V18.973C85.5558 18.5305 85.5084 18.1414 85.4136 17.8057C85.3227 17.4699 85.1864 17.1874 85.0047 16.9583C84.823 16.7292 84.5998 16.5574 84.3351 16.4428C84.0705 16.3243 83.7663 16.2651 83.4226 16.2651H81.4909V14.8726H83.4226C83.9994 14.8726 84.5267 14.9713 85.0047 15.1689C85.4866 15.3624 85.9034 15.6409 86.255 16.0043C86.6066 16.3678 86.8771 16.8023 87.0668 17.3079C87.2603 17.8096 87.3571 18.3686 87.3571 18.9848V19.3937C87.3571 20.006 87.2603 20.5649 87.0668 21.0706C86.8771 21.5762 86.6066 22.0107 86.255 22.3742C85.9074 22.7336 85.4906 23.0121 85.0047 23.2097C84.5228 23.4032 83.9895 23.5 83.4048 23.5ZM82.5338 14.8726V23.5H80.7562V14.8726H82.5338Z" fill="white"/>
<path d="M9 2H103V0H9V2ZM110 9V31H112V9H110ZM103 38H9V40H103V38ZM2 31V9H0V31H2ZM9 38C5.13401 38 2 34.866 2 31H0C0 35.9706 4.02944 40 9 40V38ZM110 31C110 34.866 106.866 38 103 38V40C107.971 40 112 35.9706 112 31H110ZM103 2C106.866 2 110 5.13401 110 9H112C112 4.02944 107.971 0 103 0V2ZM9 0C4.02944 0 0 4.02944 0 9H2C2 5.13401 5.13401 2 9 2V0Z" fill="#0094FF"/>
<path d="M1 9C1 4.58172 4.58172 1 9 1H102C106.418 1 110 4.58172 110 9V31C110 35.4183 106.418 39 102 39H9C4.58172 39 1 35.4183 1 31V9Z" fill="#141619"/>
<g clip-path="url(#clip1_288_19874)">
<path fill-rule="evenodd" clip-rule="evenodd" d="M15.445 13.1841H29.0299C29.3175 13.5215 29.5388 13.9171 29.6734 14.3509H14.8015C14.9361 13.9171 15.1574 13.5215 15.445 13.1841ZM14.6521 15.5176H29.8211V16.6843H14.6521V15.5176ZM29.8211 17.8515H14.6521V19.0182H29.8211V17.8515ZM14.6521 20.1848H29.8211V21.3515H14.6521V20.1848ZM29.8211 22.519H14.6521V23.6857H29.8211V22.519ZM14.8015 24.8525H29.6734C29.5388 25.2864 29.3175 25.682 29.0298 26.0194H15.445C15.1574 25.682 14.9361 25.2864 14.8015 24.8525Z" fill="#F5F5F5"/>
<path fill-rule="evenodd" clip-rule="evenodd" d="M26.503 12.0168H17.9704C16.9587 12.0168 16.0529 12.4697 15.4443 13.1837H29.0291C28.4205 12.4697 27.5147 12.0168 26.503 12.0168ZM29.8213 16.684H14.6523V17.8507H29.8213V16.684ZM29.6728 14.3509C29.7693 14.662 29.8213 14.9926 29.8213 15.3354V15.5177H14.6523V15.3354C14.6523 14.9926 14.7042 14.662 14.8008 14.3509H29.6728ZM29.8213 19.0179H14.6523V20.1846H29.8213V19.0179ZM29.8213 23.6855V23.8678C29.8213 24.2106 29.7693 24.5413 29.6728 24.8523H14.8008C14.7042 24.5413 14.6523 24.2106 14.6523 23.8678V23.6855H29.8213ZM29.0291 26.0188H15.4443C16.0529 26.7327 16.9587 27.1856 17.9704 27.1856H26.503C27.5147 27.1856 28.4205 26.7327 29.0291 26.0188ZM14.6523 21.3518H29.8213V22.5185H14.6523V21.3518Z" fill="#FA4051"/>
<path d="M22.7424 12.0168H17.9389C16.1238 12.0168 14.6523 13.5024 14.6523 15.335V20.1847H22.7424V12.0168Z" fill="#1939C9"/>
<path fill-rule="evenodd" clip-rule="evenodd" d="M17.2945 12.7463L17.3574 12.9351L17.5563 12.9366C17.582 12.9368 17.5927 12.9697 17.572 12.985L17.412 13.1031L17.472 13.2928C17.4797 13.3174 17.4518 13.3377 17.4308 13.3227L17.269 13.207L17.1071 13.3227C17.0862 13.3377 17.0582 13.3174 17.066 13.2928L17.126 13.1031L16.966 12.985C16.9453 12.9697 16.9559 12.9368 16.9817 12.9366L17.1806 12.9351L17.2435 12.7463C17.2517 12.7219 17.2863 12.7219 17.2945 12.7463ZM15.5318 13.293C15.5241 13.3175 15.552 13.3378 15.573 13.3229L15.7348 13.2072L15.8967 13.3229C15.9176 13.3378 15.9456 13.3175 15.9378 13.293L15.8778 13.1033L16.0379 12.9851C16.0586 12.9698 16.0479 12.9369 16.0221 12.9367L15.8232 12.9352L15.7893 12.8334C15.704 12.9077 15.6227 12.9864 15.5454 13.069L15.5919 13.1033L15.5318 13.293ZM15.7606 14.3203L15.8235 14.509L16.0224 14.5106C16.0482 14.5108 16.0589 14.5436 16.0381 14.5589L15.8781 14.6771L15.9381 14.8668C15.9459 14.8914 15.9179 14.9116 15.8969 14.8967L15.7351 14.781L15.5732 14.8967C15.5523 14.9117 15.5243 14.8914 15.5321 14.8668L15.5921 14.6771L15.432 14.5589C15.4113 14.5437 15.422 14.5108 15.4477 14.5106L15.6467 14.509L15.7096 14.3203C15.7179 14.2959 15.7524 14.2959 15.7606 14.3203ZM15.8235 16.2552L15.7606 16.0664C15.7524 16.042 15.7179 16.042 15.7096 16.0664L15.6467 16.2552L15.4477 16.2567C15.422 16.2569 15.4113 16.2898 15.432 16.3051L15.5921 16.4233L15.5321 16.6129C15.5243 16.6375 15.5523 16.6578 15.5732 16.6428L15.7351 16.5272L15.8969 16.6428C15.9179 16.6578 15.9459 16.6375 15.9381 16.6129L15.8781 16.4233L16.0381 16.3051C16.0589 16.2898 16.0482 16.2569 16.0224 16.2567L15.8235 16.2552ZM15.7606 17.6711L15.8235 17.8598L16.0224 17.8614C16.0482 17.8616 16.0589 17.8945 16.0381 17.9098L15.8781 18.0279L15.9381 18.2176C15.9459 18.2422 15.9179 18.2625 15.8969 18.2475L15.7351 18.1318L15.5732 18.2475C15.5523 18.2625 15.5243 18.2422 15.5321 18.2176L15.5921 18.0279L15.432 17.9098C15.4113 17.8945 15.422 17.8616 15.4477 17.8614L15.6467 17.8598L15.7096 17.6711C15.7179 17.6467 15.7524 17.6467 15.7606 17.6711ZM15.8235 19.3192L15.7606 19.1304C15.7524 19.106 15.7179 19.106 15.7096 19.1304L15.6467 19.3192L15.4477 19.3207C15.422 19.3209 15.4113 19.3538 15.432 19.3691L15.5921 19.4873L15.5321 19.6769C15.5243 19.7015 15.5523 19.7218 15.5732 19.7068L15.7351 19.5912L15.8969 19.7068C15.9179 19.7218 15.9459 19.7015 15.9381 19.6769L15.8781 19.4873L16.0381 19.3691C16.0589 19.3538 16.0482 19.3209 16.0224 19.3207L15.8235 19.3192ZM16.5256 13.4917L16.5885 13.6804L16.7874 13.6819C16.8132 13.6821 16.8239 13.715 16.8032 13.7303L16.6431 13.8485L16.7031 14.0381C16.7109 14.0627 16.6829 14.083 16.662 14.068L16.5002 13.9523L16.3383 14.068C16.3174 14.083 16.2894 14.0627 16.2972 14.0381L16.3572 13.8485L16.1971 13.7303C16.1764 13.715 16.1871 13.6821 16.2129 13.6819L16.4118 13.6804L16.4747 13.4917C16.4829 13.4672 16.5174 13.4672 16.5256 13.4917ZM16.5886 15.4262L16.5256 15.2374C16.5175 15.213 16.4829 15.213 16.4747 15.2374L16.4118 15.4262L16.2129 15.4277C16.1871 15.4279 16.1764 15.4608 16.1971 15.4761L16.3572 15.5943L16.2972 15.7839C16.2894 15.8085 16.3174 15.8288 16.3383 15.8138L16.5002 15.6981L16.662 15.8138C16.683 15.8288 16.7109 15.8085 16.7032 15.7839L16.6432 15.5943L16.8032 15.4761C16.8239 15.4608 16.8132 15.4279 16.7875 15.4277L16.5886 15.4262ZM16.5256 16.8964L16.5886 17.0851L16.7875 17.0866C16.8132 17.0868 16.8239 17.1197 16.8032 17.135L16.6432 17.2532L16.7032 17.4429C16.7109 17.4674 16.683 17.4877 16.662 17.4727L16.5002 17.3571L16.3383 17.4727C16.3174 17.4877 16.2894 17.4674 16.2972 17.4429L16.3572 17.2532L16.1971 17.135C16.1764 17.1197 16.1871 17.0868 16.2129 17.0866L16.4118 17.0851L16.4747 16.8964C16.4829 16.8719 16.5175 16.8719 16.5256 16.8964ZM16.5886 18.575L16.5256 18.3863C16.5175 18.3618 16.4829 18.3618 16.4747 18.3863L16.4118 18.575L16.2129 18.5765C16.1871 18.5767 16.1764 18.6096 16.1971 18.6249L16.3572 18.7431L16.2972 18.9327C16.2894 18.9573 16.3174 18.9776 16.3383 18.9626L16.5002 18.847L16.662 18.9626C16.683 18.9776 16.7109 18.9573 16.7032 18.9327L16.6432 18.7431L16.8032 18.6249C16.8239 18.6096 16.8132 18.5767 16.7875 18.5765L16.5886 18.575ZM17.3574 14.509L17.2945 14.3203C17.2863 14.2959 17.2517 14.2959 17.2435 14.3203L17.1806 14.509L16.9817 14.5106C16.9559 14.5108 16.9453 14.5437 16.966 14.5589L17.126 14.6771L17.066 14.8668C17.0582 14.8914 17.0862 14.9117 17.1071 14.8967L17.269 14.781L17.4308 14.8967C17.4518 14.9116 17.4797 14.8914 17.472 14.8668L17.412 14.6771L17.572 14.5589C17.5927 14.5436 17.582 14.5108 17.5563 14.5106L17.3574 14.509ZM17.2945 16.0664L17.3574 16.2552L17.5563 16.2567C17.582 16.2569 17.5927 16.2898 17.572 16.3051L17.412 16.4233L17.472 16.6129C17.4797 16.6375 17.4518 16.6578 17.4308 16.6428L17.269 16.5272L17.1071 16.6428C17.0862 16.6578 17.0582 16.6375 17.066 16.6129L17.126 16.4233L16.966 16.3051C16.9453 16.2898 16.9559 16.2569 16.9817 16.2567L17.1806 16.2552L17.2435 16.0664C17.2517 16.042 17.2863 16.042 17.2945 16.0664ZM17.3574 17.8598L17.2945 17.6711C17.2863 17.6467 17.2517 17.6467 17.2435 17.6711L17.1806 17.8598L16.9817 17.8614C16.9559 17.8616 16.9453 17.8945 16.966 17.9098L17.126 18.0279L17.066 18.2176C17.0582 18.2422 17.0862 18.2625 17.1071 18.2475L17.269 18.1318L17.4308 18.2475C17.4518 18.2625 17.4797 18.2422 17.472 18.2176L17.412 18.0279L17.572 17.9098C17.5927 17.8945 17.582 17.8616 17.5563 17.8614L17.3574 17.8598ZM17.2945 19.1304L17.3574 19.3192L17.5563 19.3207C17.582 19.3209 17.5927 19.3538 17.572 19.3691L17.412 19.4873L17.472 19.6769C17.4797 19.7015 17.4518 19.7218 17.4308 19.7068L17.269 19.5912L17.1071 19.7068C17.0862 19.7218 17.0582 19.7015 17.066 19.6769L17.126 19.4873L16.966 19.3691C16.9453 19.3538 16.9559 19.3209 16.9817 19.3207L17.1806 19.3192L17.2435 19.1304C17.2517 19.106 17.2863 19.106 17.2945 19.1304ZM18.1213 13.6804L18.0584 13.4917C18.0502 13.4672 18.0157 13.4672 18.0074 13.4917L17.9445 13.6804L17.7456 13.6819C17.7198 13.6821 17.7091 13.715 17.7298 13.7303L17.8899 13.8485L17.8299 14.0381C17.8221 14.0627 17.8501 14.083 17.871 14.068L18.0329 13.9523L18.1947 14.068C18.2157 14.083 18.2436 14.0627 18.2359 14.0381L18.1759 13.8485L18.3359 13.7303C18.3566 13.715 18.3459 13.6821 18.3202 13.6819L18.1213 13.6804ZM18.0584 15.2374L18.1213 15.4262L18.3202 15.4277C18.3459 15.4279 18.3566 15.4608 18.3359 15.4761L18.1759 15.5943L18.2359 15.7839C18.2436 15.8085 18.2157 15.8288 18.1947 15.8138L18.0329 15.6981L17.871 15.8138C17.8501 15.8288 17.8221 15.8085 17.8299 15.7839L17.8899 15.5943L17.7298 15.4761C17.7091 15.4608 17.7198 15.4279 17.7456 15.4277L17.9445 15.4262L18.0074 15.2374C18.0157 15.213 18.0502 15.213 18.0584 15.2374ZM18.1213 17.0851L18.0584 16.8964C18.0502 16.8719 18.0157 16.8719 18.0074 16.8964L17.9445 17.0851L17.7456 17.0866C17.7198 17.0868 17.7091 17.1197 17.7298 17.135L17.8899 17.2532L17.8299 17.4429C17.8221 17.4674 17.8501 17.4877 17.871 17.4727L18.0329 17.3571L18.1947 17.4727C18.2157 17.4877 18.2436 17.4674 18.2359 17.4429L18.1759 17.2532L18.3359 17.135C18.3566 17.1197 18.3459 17.0868 18.3202 17.0866L18.1213 17.0851ZM18.0584 18.3863L18.1213 18.575L18.3202 18.5765C18.3459 18.5767 18.3566 18.6096 18.3359 18.6249L18.1759 18.7431L18.2359 18.9327C18.2436 18.9573 18.2157 18.9776 18.1947 18.9626L18.0329 18.847L17.871 18.9626C17.8501 18.9776 17.8221 18.9573 17.8299 18.9327L17.8899 18.7431L17.7298 18.6249C17.7091 18.6096 17.7198 18.5767 17.7456 18.5765L17.9445 18.575L18.0074 18.3863C18.0157 18.3618 18.0502 18.3618 18.0584 18.3863ZM18.8901 12.9351L18.8271 12.7463C18.819 12.7219 18.7845 12.7219 18.7762 12.7463L18.7133 12.9351L18.5144 12.9366C18.4886 12.9368 18.4779 12.9697 18.4986 12.985L18.6587 13.1031L18.5987 13.2928C18.5909 13.3174 18.6189 13.3377 18.6398 13.3227L18.8017 13.207L18.9635 13.3227C18.9845 13.3377 19.0124 13.3174 19.0047 13.2928L18.9447 13.1031L19.1047 12.985C19.1254 12.9697 19.1147 12.9368 19.089 12.9366L18.8901 12.9351ZM18.8271 14.3203L18.89 14.509L19.089 14.5106C19.1147 14.5108 19.1254 14.5436 19.1047 14.5589L18.9446 14.6771L19.0047 14.8668C19.0124 14.8913 18.9845 14.9116 18.9635 14.8967L18.8017 14.781L18.6398 14.8967C18.6189 14.9117 18.5909 14.8913 18.5987 14.8668L18.6587 14.6771L18.4986 14.5589C18.4779 14.5436 18.4886 14.5107 18.5144 14.5105L18.7133 14.509L18.7762 14.3203C18.7844 14.2959 18.819 14.2959 18.8271 14.3203ZM18.8901 16.2552L18.8271 16.0664C18.819 16.042 18.7845 16.042 18.7762 16.0664L18.7133 16.2552L18.5144 16.2567C18.4886 16.2569 18.4779 16.2898 18.4986 16.3051L18.6587 16.4233L18.5987 16.6129C18.5909 16.6375 18.6189 16.6578 18.6398 16.6428L18.8017 16.5272L18.9635 16.6428C18.9845 16.6578 19.0124 16.6375 19.0047 16.6129L18.9447 16.4233L19.1047 16.3051C19.1254 16.2898 19.1147 16.2569 19.089 16.2567L18.8901 16.2552ZM18.8271 17.6711L18.8901 17.8598L19.089 17.8614C19.1147 17.8616 19.1254 17.8945 19.1047 17.9098L18.9447 18.0279L19.0047 18.2176C19.0124 18.2422 18.9845 18.2625 18.9635 18.2475L18.8017 18.1318L18.6398 18.2475C18.6189 18.2625 18.5909 18.2422 18.5987 18.2176L18.6587 18.0279L18.4986 17.9098C18.4779 17.8945 18.4886 17.8616 18.5144 17.8614L18.7133 17.8598L18.7762 17.6711C18.7845 17.6467 18.819 17.6467 18.8271 17.6711ZM18.8901 19.3192L18.8271 19.1304C18.819 19.106 18.7845 19.106 18.7762 19.1304L18.7133 19.3192L18.5144 19.3207C18.4886 19.3209 18.4779 19.3538 18.4986 19.3691L18.6587 19.4873L18.5987 19.6769C18.5909 19.7015 18.6189 19.7218 18.6398 19.7068L18.8017 19.5912L18.9635 19.7068C18.9845 19.7218 19.0124 19.7015 19.0047 19.6769L18.9447 19.4873L19.1047 19.3691C19.1254 19.3538 19.1147 19.3209 19.089 19.3207L18.8901 19.3192ZM19.5923 13.4917L19.6552 13.6804L19.8541 13.6819C19.8799 13.6821 19.8906 13.715 19.8698 13.7303L19.7098 13.8485L19.7698 14.0381C19.7775 14.0627 19.7496 14.083 19.7286 14.068L19.5668 13.9523L19.4049 14.068C19.384 14.083 19.356 14.0627 19.3638 14.0381L19.4238 13.8485L19.2638 13.7303C19.243 13.715 19.2537 13.6821 19.2795 13.6819L19.4784 13.6804L19.5413 13.4917C19.5496 13.4672 19.5841 13.4672 19.5923 13.4917ZM19.6552 15.4262L19.5923 15.2374C19.5841 15.213 19.5496 15.213 19.5413 15.2374L19.4784 15.4262L19.2795 15.4277C19.2537 15.4279 19.243 15.4608 19.2638 15.4761L19.4238 15.5943L19.3638 15.7839C19.356 15.8085 19.384 15.8288 19.4049 15.8138L19.5668 15.6981L19.7286 15.8138C19.7496 15.8288 19.7775 15.8085 19.7698 15.7839L19.7098 15.5943L19.8698 15.4761C19.8906 15.4608 19.8799 15.4279 19.8541 15.4277L19.6552 15.4262ZM19.5923 16.8964L19.6552 17.0851L19.8541 17.0866C19.8799 17.0868 19.8906 17.1197 19.8698 17.135L19.7098 17.2532L19.7698 17.4429C19.7775 17.4674 19.7496 17.4877 19.7286 17.4727L19.5668 17.3571L19.4049 17.4727C19.384 17.4877 19.356 17.4674 19.3638 17.4429L19.4238 17.2532L19.2638 17.135C19.243 17.1197 19.2537 17.0868 19.2795 17.0866L19.4784 17.0851L19.5413 16.8964C19.5496 16.8719 19.5841 16.8719 19.5923 16.8964ZM19.6552 18.575L19.5923 18.3863C19.5841 18.3618 19.5496 18.3618 19.5413 18.3863L19.4784 18.575L19.2795 18.5765C19.2537 18.5767 19.243 18.6096 19.2638 18.6249L19.4238 18.7431L19.3638 18.9327C19.356 18.9573 19.384 18.9776 19.4049 18.9626L19.5668 18.847L19.7286 18.9626C19.7496 18.9776 19.7775 18.9573 19.7698 18.9327L19.7098 18.7431L19.8698 18.6249C19.8906 18.6096 19.8799 18.5767 19.8541 18.5765L19.6552 18.575ZM20.3587 12.7463L20.4216 12.9351L20.6205 12.9366C20.6462 12.9368 20.6569 12.9697 20.6362 12.985L20.4762 13.1031L20.5362 13.2928C20.5439 13.3174 20.5159 13.3377 20.495 13.3227L20.3332 13.207L20.1713 13.3227C20.1504 13.3377 20.1224 13.3174 20.1301 13.2928L20.1901 13.1031L20.0301 12.985C20.0094 12.9697 20.0201 12.9368 20.0458 12.9366L20.2447 12.9351L20.3077 12.7463C20.316 12.7219 20.3505 12.7219 20.3587 12.7463ZM20.4216 14.509L20.3587 14.3203C20.3505 14.2959 20.316 14.2959 20.3077 14.3203L20.2447 14.509L20.0458 14.5106C20.0201 14.5108 20.0094 14.5437 20.0301 14.5589L20.1901 14.6771L20.1301 14.8668C20.1224 14.8914 20.1504 14.9117 20.1713 14.8967L20.3332 14.781L20.495 14.8967C20.5159 14.9116 20.5439 14.8914 20.5362 14.8668L20.4762 14.6771L20.6362 14.5589C20.6569 14.5436 20.6462 14.5108 20.6205 14.5106L20.4216 14.509ZM20.3587 16.0664L20.4216 16.2552L20.6205 16.2567C20.6462 16.2569 20.6569 16.2898 20.6362 16.3051L20.4762 16.4233L20.5362 16.6129C20.5439 16.6375 20.5159 16.6578 20.495 16.6428L20.3332 16.5272L20.1713 16.6428C20.1504 16.6578 20.1224 16.6375 20.1301 16.6129L20.1901 16.4233L20.0301 16.3051C20.0094 16.2898 20.0201 16.2569 20.0458 16.2567L20.2447 16.2552L20.3077 16.0664C20.316 16.042 20.3505 16.042 20.3587 16.0664ZM20.4216 17.8598L20.3587 17.6711C20.3505 17.6467 20.316 17.6467 20.3077 17.6711L20.2447 17.8598L20.0458 17.8614C20.0201 17.8616 20.0094 17.8945 20.0301 17.9098L20.1901 18.0279L20.1301 18.2176C20.1224 18.2422 20.1504 18.2625 20.1713 18.2475L20.3332 18.1318L20.495 18.2475C20.5159 18.2625 20.5439 18.2422 20.5362 18.2176L20.4762 18.0279L20.6362 17.9098C20.6569 17.8945 20.6462 17.8616 20.6205 17.8614L20.4216 17.8598ZM20.3587 19.1304L20.4216 19.3192L20.6205 19.3207C20.6462 19.3209 20.6569 19.3538 20.6362 19.3691L20.4762 19.4873L20.5362 19.6769C20.5439 19.7015 20.5159 19.7218 20.495 19.7068L20.3332 19.5912L20.1713 19.7068C20.1504 19.7218 20.1224 19.7015 20.1301 19.6769L20.1901 19.4873L20.0301 19.3691C20.0094 19.3538 20.0201 19.3209 20.0458 19.3207L20.2447 19.3192L20.3077 19.1304C20.316 19.106 20.3505 19.106 20.3587 19.1304ZM21.1859 13.6804L21.123 13.4917C21.1148 13.4672 21.0803 13.4672 21.072 13.4917L21.0091 13.6804L20.8102 13.6819C20.7844 13.6821 20.7738 13.715 20.7945 13.7303L20.9545 13.8485L20.8945 14.0381C20.8868 14.0627 20.9147 14.083 20.9357 14.068L21.0975 13.9523L21.2594 14.068C21.2803 14.083 21.3083 14.0627 21.3005 14.0381L21.2405 13.8485L21.4006 13.7303C21.4213 13.715 21.4106 13.6821 21.3849 13.6819L21.1859 13.6804ZM21.123 15.2374L21.1859 15.4262L21.3849 15.4277C21.4106 15.4279 21.4213 15.4608 21.4006 15.4761L21.2405 15.5943L21.3005 15.7839C21.3083 15.8085 21.2803 15.8288 21.2594 15.8138L21.0975 15.6981L20.9357 15.8138C20.9147 15.8288 20.8868 15.8085 20.8945 15.7839L20.9545 15.5943L20.7945 15.4761C20.7738 15.4608 20.7844 15.4279 20.8102 15.4277L21.0091 15.4262L21.072 15.2374C21.0803 15.213 21.1148 15.213 21.123 15.2374ZM21.1859 17.0851L21.123 16.8964C21.1148 16.8719 21.0803 16.8719 21.072 16.8964L21.0091 17.0851L20.8102 17.0866C20.7844 17.0868 20.7738 17.1197 20.7945 17.135L20.9545 17.2532L20.8945 17.4429C20.8868 17.4674 20.9147 17.4877 20.9357 17.4727L21.0975 17.3571L21.2594 17.4727C21.2803 17.4877 21.3083 17.4674 21.3005 17.4429L21.2405 17.2532L21.4006 17.135C21.4213 17.1197 21.4106 17.0868 21.3849 17.0866L21.1859 17.0851ZM21.123 18.3863L21.1859 18.575L21.3849 18.5765C21.4106 18.5767 21.4213 18.6096 21.4006 18.6249L21.2405 18.7431L21.3005 18.9327C21.3083 18.9573 21.2803 18.9776 21.2594 18.9626L21.0975 18.847L20.9357 18.9626C20.9147 18.9776 20.8868 18.9573 20.8945 18.9327L20.9545 18.7431L20.7945 18.6249C20.7738 18.6096 20.7844 18.5767 20.8102 18.5765L21.0091 18.575L21.072 18.3863C21.0803 18.3618 21.1148 18.3618 21.123 18.3863ZM21.9531 12.9351L21.8902 12.7463C21.882 12.7219 21.8475 12.7219 21.8392 12.7463L21.7763 12.9351L21.5773 12.9366C21.5516 12.9368 21.5409 12.9697 21.5616 12.985L21.7217 13.1031L21.6617 13.2928C21.6539 13.3174 21.6819 13.3377 21.7028 13.3227L21.8647 13.207L22.0265 13.3227C22.0475 13.3377 22.0755 13.3174 22.0677 13.2928L22.0077 13.1031L22.1677 12.985C22.1885 12.9697 22.1778 12.9368 22.152 12.9366L21.9531 12.9351ZM21.8902 14.3203L21.9531 14.509L22.152 14.5106C22.1778 14.5108 22.1885 14.5436 22.1677 14.5589L22.0077 14.6771L22.0677 14.8668C22.0755 14.8914 22.0475 14.9116 22.0265 14.8967L21.8647 14.781L21.7028 14.8967C21.6819 14.9117 21.6539 14.8914 21.6617 14.8668L21.7217 14.6771L21.5616 14.5589C21.5409 14.5437 21.5516 14.5108 21.5773 14.5106L21.7763 14.509L21.8392 14.3203C21.8475 14.2959 21.882 14.2959 21.8902 14.3203ZM21.9531 16.2552L21.8902 16.0664C21.882 16.042 21.8475 16.042 21.8392 16.0664L21.7763 16.2552L21.5773 16.2567C21.5516 16.2569 21.5409 16.2898 21.5616 16.3051L21.7217 16.4233L21.6617 16.6129C21.6539 16.6375 21.6819 16.6578 21.7028 16.6428L21.8647 16.5272L22.0265 16.6428C22.0475 16.6578 22.0755 16.6375 22.0677 16.6129L22.0077 16.4233L22.1677 16.3051C22.1885 16.2898 22.1778 16.2569 22.152 16.2567L21.9531 16.2552ZM21.8902 17.6711L21.9531 17.8598L22.152 17.8614C22.1778 17.8616 22.1885 17.8945 22.1677 17.9098L22.0077 18.0279L22.0677 18.2176C22.0755 18.2422 22.0475 18.2625 22.0265 18.2475L21.8647 18.1318L21.7028 18.2475C21.6819 18.2625 21.6539 18.2422 21.6617 18.2176L21.7217 18.0279L21.5616 17.9098C21.5409 17.8945 21.5516 17.8616 21.5773 17.8614L21.7763 17.8598L21.8392 17.6711C21.8475 17.6467 21.882 17.6467 21.8902 17.6711ZM21.9531 19.3192L21.8902 19.1304C21.882 19.106 21.8475 19.106 21.8392 19.1304L21.7763 19.3192L21.5773 19.3207C21.5516 19.3209 21.5409 19.3538 21.5616 19.3691L21.7217 19.4873L21.6617 19.6769C21.6539 19.7015 21.6819 19.7218 21.7028 19.7068L21.8647 19.5912L22.0265 19.7068C22.0475 19.7218 22.0755 19.7015 22.0677 19.6769L22.0077 19.4873L22.1677 19.3691C22.1885 19.3538 22.1778 19.3209 22.152 19.3207L21.9531 19.3192Z" fill="#F5F5F5"/>
</g>
<path d="M40.8248 23.5H38.9464L38.9583 22.1135H40.8248C41.2909 22.1135 41.6839 22.0088 42.0039 21.7994C42.3239 21.5861 42.5649 21.276 42.7268 20.8691C42.8927 20.4622 42.9757 19.9704 42.9757 19.3937V18.973C42.9757 18.5305 42.9283 18.1414 42.8335 17.8057C42.7426 17.4699 42.6063 17.1874 42.4246 16.9583C42.2429 16.7292 42.0197 16.5574 41.7551 16.4428C41.4904 16.3243 41.1862 16.2651 40.8425 16.2651H38.9108V14.8726H40.8425C41.4193 14.8726 41.9466 14.9713 42.4246 15.1689C42.9066 15.3624 43.3233 15.6409 43.6749 16.0043C44.0265 16.3678 44.2971 16.8023 44.4867 17.3079C44.6802 17.8096 44.777 18.3686 44.777 18.9848V19.3937C44.777 20.006 44.6802 20.5649 44.4867 21.0706C44.2971 21.5762 44.0265 22.0107 43.6749 22.3742C43.3273 22.7336 42.9105 23.0121 42.4246 23.2097C41.9427 23.4032 41.4094 23.5 40.8248 23.5ZM39.9537 14.8726V23.5H38.1761V14.8726H39.9537ZM45.6895 20.3595V20.2351C45.6895 19.765 45.7567 19.3325 45.891 18.9374C46.0253 18.5384 46.2208 18.1928 46.4776 17.9005C46.7344 17.6082 47.0504 17.381 47.4257 17.2191C47.801 17.0531 48.2315 16.9702 48.7174 16.9702C49.2033 16.9702 49.6359 17.0531 50.0151 17.2191C50.3943 17.381 50.7123 17.6082 50.9691 17.9005C51.2298 18.1928 51.4273 18.5384 51.5616 18.9374C51.6959 19.3325 51.7631 19.765 51.7631 20.2351V20.3595C51.7631 20.8257 51.6959 21.2582 51.5616 21.6572C51.4273 22.0522 51.2298 22.3979 50.9691 22.6941C50.7123 22.9865 50.3963 23.2136 50.021 23.3756C49.6457 23.5375 49.2152 23.6185 48.7293 23.6185C48.2434 23.6185 47.8108 23.5375 47.4316 23.3756C47.0563 23.2136 46.7383 22.9865 46.4776 22.6941C46.2208 22.3979 46.0253 22.0522 45.891 21.6572C45.7567 21.2582 45.6895 20.8257 45.6895 20.3595ZM47.3961 20.2351V20.3595C47.3961 20.6281 47.4198 20.879 47.4672 21.1121C47.5146 21.3451 47.5896 21.5505 47.6923 21.7283C47.799 21.9021 47.9372 22.0384 48.1071 22.1372C48.277 22.2359 48.4844 22.2853 48.7293 22.2853C48.9663 22.2853 49.1697 22.2359 49.3396 22.1372C49.5095 22.0384 49.6457 21.9021 49.7484 21.7283C49.8512 21.5505 49.9262 21.3451 49.9736 21.1121C50.025 20.879 50.0506 20.6281 50.0506 20.3595V20.2351C50.0506 19.9744 50.025 19.7295 49.9736 19.5003C49.9262 19.2673 49.8492 19.0619 49.7425 18.8841C49.6398 18.7024 49.5035 18.5602 49.3337 18.4575C49.1638 18.3548 48.9584 18.3034 48.7174 18.3034C48.4765 18.3034 48.271 18.3548 48.1012 18.4575C47.9353 18.5602 47.799 18.7024 47.6923 18.8841C47.5896 19.0619 47.5146 19.2673 47.4672 19.5003C47.4198 19.7295 47.3961 19.9744 47.3961 20.2351ZM54.6428 21.8409L55.9761 17.0887H57.0604L56.7108 18.9552L55.3776 23.5H54.471L54.6428 21.8409ZM53.9673 17.0887L54.9213 21.835L55.0102 23.5H53.9436L52.3201 17.0887H53.9673ZM58.2811 21.7579L59.2113 17.0887H60.8645L59.241 23.5H58.1803L58.2811 21.7579ZM57.2086 17.0887L58.5358 21.8053L58.7195 23.5H57.807L56.4738 18.9611L56.1361 17.0887H57.2086ZM68.3424 20.8513V14.8726H70.1141V20.8513C70.1141 21.4281 69.9877 21.9238 69.7349 22.3386C69.4821 22.7494 69.1364 23.0655 68.6979 23.2867C68.2634 23.5079 67.7736 23.6185 67.2284 23.6185C66.6636 23.6185 66.1638 23.5237 65.7293 23.3341C65.2948 23.1445 64.9531 22.8541 64.7042 22.4631C64.4553 22.068 64.3309 21.5683 64.3309 20.9639H66.1145C66.1145 21.2799 66.1579 21.5308 66.2448 21.7164C66.3357 21.9021 66.4641 22.0344 66.63 22.1135C66.7959 22.1925 66.9954 22.232 67.2284 22.232C67.4536 22.232 67.6491 22.1786 67.8151 22.072C67.981 21.9653 68.1094 21.8093 68.2002 21.6039C68.295 21.3985 68.3424 21.1476 68.3424 20.8513ZM71.2518 20.3595V20.2351C71.2518 19.765 71.319 19.3325 71.4533 18.9374C71.5876 18.5384 71.7831 18.1928 72.0399 17.9005C72.2967 17.6082 72.6127 17.381 72.988 17.2191C73.3632 17.0531 73.7938 16.9702 74.2797 16.9702C74.7656 16.9702 75.1981 17.0531 75.5774 17.2191C75.9566 17.381 76.2746 17.6082 76.5314 17.9005C76.7921 18.1928 76.9896 18.5384 77.1239 18.9374C77.2582 19.3325 77.3254 19.765 77.3254 20.2351V20.3595C77.3254 20.8257 77.2582 21.2582 77.1239 21.6572C76.9896 22.0522 76.7921 22.3979 76.5314 22.6941C76.2746 22.9865 75.9586 23.2136 75.5833 23.3756C75.208 23.5375 74.7774 23.6185 74.2915 23.6185C73.8057 23.6185 73.3731 23.5375 72.9939 23.3756C72.6186 23.2136 72.3006 22.9865 72.0399 22.6941C71.7831 22.3979 71.5876 22.0522 71.4533 21.6572C71.319 21.2582 71.2518 20.8257 71.2518 20.3595ZM72.9583 20.2351V20.3595C72.9583 20.6281 72.982 20.879 73.0294 21.1121C73.0768 21.3451 73.1519 21.5505 73.2546 21.7283C73.3613 21.9021 73.4995 22.0384 73.6694 22.1372C73.8392 22.2359 74.0466 22.2853 74.2915 22.2853C74.5286 22.2853 74.732 22.2359 74.9019 22.1372C75.0717 22.0384 75.208 21.9021 75.3107 21.7283C75.4134 21.5505 75.4885 21.3451 75.5359 21.1121C75.5872 20.879 75.6129 20.6281 75.6129 20.3595V20.2351C75.6129 19.9744 75.5872 19.7295 75.5359 19.5003C75.4885 19.2673 75.4115 19.0619 75.3048 18.8841C75.2021 18.7024 75.0658 18.5602 74.8959 18.4575C74.7261 18.3548 74.5207 18.3034 74.2797 18.3034C74.0387 18.3034 73.8333 18.3548 73.6635 18.4575C73.4975 18.5602 73.3613 18.7024 73.2546 18.8841C73.1519 19.0619 73.0768 19.2673 73.0294 19.5003C72.982 19.7295 72.9583 19.9744 72.9583 20.2351ZM80.0451 18.4575V23.5H78.3386V17.0887H79.9385L80.0451 18.4575ZM79.7963 20.0692H79.3341C79.3341 19.5951 79.3953 19.1685 79.5178 18.7893C79.6402 18.4061 79.8121 18.0802 80.0333 17.8116C80.2545 17.539 80.5172 17.3316 80.8214 17.1894C81.1295 17.0433 81.4732 16.9702 81.8524 16.9702C82.1526 16.9702 82.4272 17.0136 82.676 17.1005C82.9249 17.1874 83.1382 17.3257 83.316 17.5153C83.4977 17.7049 83.6359 17.9558 83.7307 18.2679C83.8295 18.5799 83.8789 18.9611 83.8789 19.4115V23.5H82.1605V19.4055C82.1605 19.1211 82.121 18.8999 82.042 18.7419C81.963 18.5839 81.8465 18.4733 81.6924 18.4101C81.5423 18.3429 81.3566 18.3093 81.1354 18.3093C80.9063 18.3093 80.7068 18.3548 80.5369 18.4456C80.371 18.5365 80.2328 18.6629 80.1222 18.8248C80.0155 18.9829 79.9345 19.1685 79.8792 19.3818C79.8239 19.5951 79.7963 19.8243 79.7963 20.0692ZM88.1274 23.6185C87.6297 23.6185 87.1833 23.5395 86.7883 23.3815C86.3932 23.2195 86.0575 22.9963 85.7809 22.7119C85.5084 22.4275 85.299 22.0977 85.1528 21.7224C85.0067 21.3431 84.9336 20.9402 84.9336 20.5136V20.2766C84.9336 19.7907 85.0027 19.3463 85.141 18.9434C85.2793 18.5404 85.4768 18.1908 85.7335 17.8946C85.9943 17.5983 86.3103 17.3711 86.6816 17.2131C87.0529 17.0512 87.4717 16.9702 87.9378 16.9702C88.3921 16.9702 88.795 17.0452 89.1466 17.1954C89.4982 17.3455 89.7925 17.5588 90.0295 17.8353C90.2704 18.1118 90.4521 18.4436 90.5746 18.8308C90.6971 19.2139 90.7583 19.6406 90.7583 20.1107V20.8217H85.6624V19.684H89.0814V19.5537C89.0814 19.3167 89.0379 19.1053 88.951 18.9196C88.8681 18.73 88.7417 18.5799 88.5718 18.4693C88.402 18.3587 88.1847 18.3034 87.92 18.3034C87.6949 18.3034 87.5013 18.3528 87.3393 18.4515C87.1774 18.5503 87.045 18.6886 86.9423 18.8663C86.8436 19.0441 86.7685 19.2534 86.7172 19.4944C86.6698 19.7314 86.6461 19.9921 86.6461 20.2766V20.5136C86.6461 20.7704 86.6816 21.0074 86.7527 21.2246C86.8278 21.4419 86.9324 21.6295 87.0668 21.7876C87.205 21.9456 87.3709 22.068 87.5645 22.1549C87.762 22.2418 87.9852 22.2853 88.2341 22.2853C88.5422 22.2853 88.8286 22.226 89.0933 22.1075C89.3619 21.9851 89.593 21.8014 89.7865 21.5565L90.6161 22.4571C90.4818 22.6507 90.2981 22.8364 90.065 23.0141C89.8359 23.1919 89.5594 23.338 89.2355 23.4526C88.9115 23.5632 88.5422 23.6185 88.1274 23.6185ZM95.1964 21.7283C95.1964 21.6058 95.1609 21.4952 95.0898 21.3965C95.0187 21.2977 94.8863 21.2069 94.6928 21.1239C94.5032 21.037 94.2286 20.958 93.8691 20.8869C93.5452 20.8158 93.243 20.7269 92.9626 20.6202C92.686 20.5096 92.4451 20.3773 92.2397 20.2232C92.0382 20.0692 91.8802 19.8875 91.7656 19.6781C91.6511 19.4648 91.5938 19.2218 91.5938 18.9493C91.5938 18.6807 91.6511 18.4278 91.7656 18.1908C91.8841 17.9538 92.052 17.7444 92.2693 17.5627C92.4905 17.3771 92.7591 17.2329 93.0751 17.1302C93.3951 17.0235 93.7546 16.9702 94.1536 16.9702C94.7106 16.9702 95.1885 17.0591 95.5875 17.2368C95.9904 17.4146 96.2986 17.6595 96.5119 17.9716C96.7291 18.2797 96.8378 18.6313 96.8378 19.0263H95.1313C95.1313 18.8604 95.0957 18.7123 95.0246 18.5819C94.9574 18.4476 94.8508 18.3429 94.7046 18.2679C94.5624 18.1888 94.3768 18.1493 94.1476 18.1493C93.958 18.1493 93.7941 18.1829 93.6558 18.2501C93.5176 18.3133 93.4109 18.4002 93.3359 18.5108C93.2647 18.6175 93.2292 18.736 93.2292 18.8663C93.2292 18.9651 93.2489 19.054 93.2885 19.133C93.3319 19.208 93.401 19.2771 93.4958 19.3404C93.5906 19.4036 93.7131 19.4628 93.8632 19.5181C94.0173 19.5695 94.2069 19.6169 94.4321 19.6603C94.8942 19.7551 95.307 19.8796 95.6705 20.0336C96.0339 20.1837 96.3223 20.3892 96.5356 20.6499C96.7489 20.9066 96.8556 21.2444 96.8556 21.6631C96.8556 21.9475 96.7924 22.2083 96.6659 22.4453C96.5395 22.6823 96.3578 22.8897 96.1208 23.0674C95.8838 23.2413 95.5994 23.3775 95.2675 23.4763C94.9397 23.5711 94.5703 23.6185 94.1595 23.6185C93.563 23.6185 93.0574 23.5119 92.6426 23.2985C92.2318 23.0852 91.9197 22.8146 91.7064 22.4868C91.497 22.1549 91.3923 21.8152 91.3923 21.4676H93.01C93.0179 21.7006 93.0771 21.8883 93.1877 22.0305C93.3023 22.1727 93.4465 22.2754 93.6203 22.3386C93.798 22.4018 93.9896 22.4334 94.195 22.4334C94.4163 22.4334 94.5999 22.4038 94.7461 22.3445C94.8923 22.2813 95.0029 22.1984 95.0779 22.0957C95.1569 21.989 95.1964 21.8666 95.1964 21.7283Z" fill="white"/>
<defs>
<clipPath id="clip0_288_19874">
<rect width="18.2031" height="18.2029" fill="white" transform="translate(13.1353 10.5)"/>
</clipPath>
<clipPath id="clip1_288_19874">
<rect width="18.2031" height="18.2029" fill="white" transform="translate(13.1353 10.5)"/>
</clipPath>
</defs>
</svg>
