<svg width="275" height="77" viewBox="0 0 275 77" fill="none" xmlns="http://www.w3.org/2000/svg">
<g filter="url(#filter0_d_291_26964)">
<path d="M16 21.4767C16 16.7952 19.7952 13 24.4767 13H250.523C255.205 13 259 16.7952 259 21.4767V49.7326C259 54.4141 255.205 58.2093 250.523 58.2093H24.4767C19.7952 58.2093 16 54.4141 16 49.7326V21.4767Z" fill="#272930"/>
<g clip-path="url(#clip0_291_26964)">
<path d="M38.3397 26.1865H30.3928C28.686 26.1865 27.3023 27.5702 27.3023 29.277V37.224C27.3023 38.9308 28.686 40.3144 30.3928 40.3144H38.3397C40.0465 40.3144 41.4301 38.9308 41.4301 37.224V29.277C41.4301 27.5702 40.0465 26.1865 38.3397 26.1865Z" fill="#0A48B6"/>
<path fill-rule="evenodd" clip-rule="evenodd" d="M34.5919 29.2958L34.4741 28.9425C34.4588 28.8968 34.3941 28.8968 34.3789 28.9425L34.2611 29.2958L33.8887 29.2987C33.8405 29.2991 33.8205 29.3606 33.8593 29.3893L34.1589 29.6105L34.0465 29.9656C34.032 30.0116 34.0843 30.0496 34.1235 30.0216L34.4265 29.805L34.7295 30.0216C34.7687 30.0496 34.821 30.0116 34.8065 29.9656L34.6942 29.6105L34.9938 29.3893C35.0326 29.3606 35.0125 29.2991 34.9643 29.2987L34.5919 29.2958ZM34.5919 36.8813L34.4741 36.528C34.4588 36.4822 34.3941 36.4822 34.3789 36.528L34.2611 36.8813L33.8887 36.8842C33.8405 36.8845 33.8205 36.9461 33.8593 36.9747L34.1589 37.1959L34.0465 37.551C34.032 37.597 34.0843 37.635 34.1235 37.607L34.4265 37.3904L34.7295 37.607C34.7687 37.635 34.821 37.597 34.8065 37.551L34.6942 37.1959L34.9938 36.9747C35.0326 36.9461 35.0125 36.8846 34.9643 36.8842L34.5919 36.8813ZM38.2664 32.7353L38.3842 33.0886L38.7566 33.0915C38.8048 33.0918 38.8248 33.1534 38.786 33.182L38.4864 33.4033L38.5988 33.7583C38.6133 33.8043 38.561 33.8423 38.5218 33.8143L38.2188 33.5977L37.9158 33.8143C37.8766 33.8423 37.8242 33.8043 37.8388 33.7583L37.9511 33.4033L37.6515 33.182C37.6127 33.1534 37.6327 33.0918 37.6809 33.0915L38.0533 33.0886L38.1712 32.7353C38.1864 32.6895 38.2511 32.6895 38.2664 32.7353ZM30.7997 33.0886L30.6819 32.7353C30.6666 32.6895 30.6019 32.6895 30.5867 32.7353L30.4689 33.0886L30.0965 33.0915C30.0482 33.0918 30.0282 33.1534 30.067 33.182L30.3666 33.4033L30.2543 33.7583C30.2397 33.8043 30.2921 33.8423 30.3313 33.8143L30.6343 33.5977L30.9372 33.8143C30.9765 33.8423 31.0288 33.8043 31.0143 33.7583L30.9019 33.4033L31.2015 33.182C31.2403 33.1534 31.2203 33.0918 31.1721 33.0915L30.7997 33.0886ZM31.2521 30.7547L31.3699 31.108L31.7424 31.1109C31.7906 31.1113 31.8106 31.1728 31.7718 31.2014L31.4722 31.4227L31.5845 31.7777C31.5991 31.8237 31.5467 31.8617 31.5075 31.8337L31.2045 31.6171L30.9016 31.8337C30.8623 31.8617 30.81 31.8237 30.8245 31.7777L30.9369 31.4227L30.6373 31.2014C30.5985 31.1728 30.6185 31.1112 30.6667 31.1109L31.0391 31.108L31.1569 30.7547C31.1721 30.709 31.2368 30.709 31.2521 30.7547ZM37.9381 34.9008L37.8203 34.5475C37.805 34.5017 37.7403 34.5017 37.7251 34.5475L37.6072 34.9008L37.2348 34.9037C37.1866 34.904 37.1666 34.9656 37.2054 34.9942L37.505 35.2154L37.3927 35.5705C37.3781 35.6165 37.4305 35.6545 37.4697 35.6265L37.7727 35.4099L38.0756 35.6265C38.1148 35.6545 38.1672 35.6165 38.1526 35.5705L38.0403 35.2154L38.3399 34.9942C38.3787 34.9656 38.3587 34.904 38.3105 34.9037L37.9381 34.9008ZM36.4314 29.3661L36.5493 29.7194L36.9217 29.7223C36.9699 29.7226 36.9899 29.7842 36.9511 29.8128L36.6515 30.0341L36.7638 30.3891C36.7784 30.4351 36.726 30.4731 36.6868 30.4451L36.3838 30.2286L36.0809 30.4451C36.0416 30.4731 35.9893 30.4351 36.0038 30.3891L36.1161 30.0341L35.8166 29.8128C35.7778 29.7842 35.7978 29.7226 35.846 29.7223L36.2184 29.7194L36.3362 29.3661C36.3515 29.3203 36.4162 29.3203 36.4314 29.3661ZM32.757 36.2887L32.6392 35.9354C32.6239 35.8897 32.5592 35.8897 32.544 35.9354L32.4261 36.2887L32.0537 36.2916C32.0055 36.292 31.9855 36.3535 32.0243 36.3822L32.3239 36.6034L32.2116 36.9585C32.197 37.0044 32.2494 37.0425 32.2886 37.0144L32.5916 36.7979L32.8945 37.0144C32.9338 37.0425 32.9861 37.0044 32.9716 36.9585L32.8592 36.6034L33.1588 36.3822C33.1976 36.3535 33.1776 36.292 33.1294 36.2916L32.757 36.2887ZM37.7251 30.7547L37.6072 31.108L37.2348 31.1109C37.1866 31.1113 37.1666 31.1728 37.2054 31.2014L37.505 31.4227L37.3927 31.7777C37.3781 31.8237 37.4305 31.8617 37.4697 31.8337L37.7727 31.6171L38.0756 31.8337C38.1149 31.8617 38.1672 31.8237 38.1526 31.7777L38.0403 31.4227L38.3399 31.2014C38.3787 31.1728 38.3587 31.1112 38.3105 31.1109L37.9381 31.108L37.8203 30.7547C37.805 30.709 37.7403 30.709 37.7251 30.7547ZM31.0391 34.9008L31.1569 34.5475C31.1722 34.5017 31.2369 34.5017 31.2521 34.5475L31.37 34.9008L31.7424 34.9037C31.7906 34.904 31.8106 34.9656 31.7718 34.9942L31.4722 35.2154L31.5845 35.5705C31.5991 35.6165 31.5467 35.6545 31.5075 35.6265L31.2045 35.4099L30.9016 35.6265C30.8623 35.6545 30.81 35.6165 30.8245 35.5705L30.9369 35.2154L30.6373 34.9942C30.5985 34.9656 30.6185 34.904 30.6667 34.9037L31.0391 34.9008ZM32.544 29.3661L32.4261 29.7194L32.0537 29.7223C32.0055 29.7226 31.9855 29.7842 32.0243 29.8128L32.3239 30.0341L32.2116 30.3891C32.197 30.4351 32.2494 30.4731 32.2886 30.4451L32.5916 30.2286L32.8945 30.4451C32.9338 30.4731 32.9861 30.4351 32.9715 30.3891L32.8592 30.0341L33.1588 29.8128C33.1976 29.7842 33.1776 29.7226 33.1294 29.7223L32.757 29.7194L32.6391 29.3661C32.6239 29.3203 32.5592 29.3203 32.544 29.3661ZM36.2184 36.2887L36.3362 35.9354C36.3515 35.8897 36.4162 35.8897 36.4314 35.9354L36.5492 36.2887L36.9216 36.2916C36.9698 36.292 36.9898 36.3535 36.951 36.3822L36.6515 36.6034L36.7638 36.9585C36.7784 37.0044 36.726 37.0425 36.6868 37.0144L36.3838 36.7979L36.0808 37.0144C36.0416 37.0425 35.9893 37.0044 36.0038 36.9585L36.1161 36.6034L35.8166 36.3822C35.7778 36.3535 35.7978 36.292 35.846 36.2916L36.2184 36.2887Z" fill="#FFE15A"/>
<path fill-rule="evenodd" clip-rule="evenodd" d="M36.5172 31.9824H49.1695C49.4374 32.2967 49.6436 32.6651 49.7689 33.0692H35.9178C36.0432 32.6651 36.2493 32.2967 36.5172 31.9824ZM35.7789 34.1561H49.9067V35.2427H35.7789V34.1561ZM49.9067 36.3298H35.7789V37.4164H49.9067V36.3298ZM35.7789 38.5028H49.9067V39.5894H35.7789V38.5028ZM49.9067 40.6765H35.7789V41.7631H49.9067V40.6765ZM35.9178 42.8501H49.7689C49.6436 43.2542 49.4374 43.6227 49.1695 43.9369H36.5172C36.2493 43.6227 36.0432 43.2542 35.9178 42.8501Z" fill="#F5F5F5"/>
<path fill-rule="evenodd" clip-rule="evenodd" d="M46.8164 30.8945H38.8695C37.9272 30.8945 37.0836 31.3164 36.5167 31.9813H49.1691C48.6022 31.3164 47.7586 30.8945 46.8164 30.8945ZM49.9069 35.2412H35.7791V36.3278H49.9069V35.2412ZM49.7686 33.0682C49.8585 33.3579 49.9069 33.6659 49.9069 33.9852V34.155H35.7791V33.9852C35.7791 33.6659 35.8275 33.3579 35.9174 33.0682H49.7686ZM49.9069 37.4149H35.7791V38.5015H49.9069V37.4149ZM49.9069 41.7623V41.9321C49.9069 42.2514 49.8585 42.5593 49.7686 42.849H35.9174C35.8275 42.5593 35.7791 42.2514 35.7791 41.9321V41.7623H49.9069ZM49.1691 43.9359H36.5167C37.0836 44.6009 37.9272 45.0227 38.8695 45.0227H46.8164C47.7586 45.0227 48.6022 44.6009 49.1691 43.9359ZM35.7791 39.5886H49.9069V40.6752H35.7791V39.5886Z" fill="#FA4051"/>
<path d="M43.314 30.8955H38.8402C37.1496 30.8955 35.7791 32.2792 35.7791 33.986V38.5028H43.314V30.8955Z" fill="#1939C9"/>
<path fill-rule="evenodd" clip-rule="evenodd" d="M38.2399 31.5737L38.2985 31.7495L38.4837 31.7509C38.5077 31.7511 38.5177 31.7817 38.4984 31.7959L38.3493 31.906L38.4052 32.0827C38.4124 32.1055 38.3864 32.1244 38.3669 32.1105L38.2161 32.0027L38.0654 32.1105C38.0459 32.1245 38.0198 32.1055 38.0271 32.0827L38.083 31.906L37.9339 31.7959C37.9146 31.7817 37.9246 31.7511 37.9485 31.7509L38.1338 31.7495L38.1924 31.5737C38.2001 31.551 38.2323 31.551 38.2399 31.5737ZM36.5987 32.0826C36.5914 32.1055 36.6175 32.1244 36.637 32.1105L36.7877 32.0027L36.9385 32.1105C36.958 32.1244 36.984 32.1055 36.9768 32.0826L36.9209 31.906L37.07 31.7959C37.0893 31.7816 37.0793 31.751 37.0553 31.7508L36.8701 31.7494L36.8384 31.6546C36.759 31.7238 36.6833 31.7971 36.6114 31.874L36.6546 31.906L36.5987 32.0826ZM36.8115 33.0396L36.8701 33.2154L37.0554 33.2168C37.0793 33.217 37.0893 33.2476 37.07 33.2619L36.921 33.372L36.9768 33.5486C36.9841 33.5715 36.958 33.5904 36.9385 33.5765L36.7878 33.4687L36.637 33.5765C36.6175 33.5904 36.5915 33.5715 36.5987 33.5486L36.6546 33.372L36.5055 33.2619C36.4862 33.2477 36.4962 33.217 36.5201 33.2168L36.7054 33.2154L36.764 33.0396C36.7717 33.0169 36.8039 33.0169 36.8115 33.0396ZM36.8701 34.842L36.8115 34.6663C36.8039 34.6435 36.7717 34.6435 36.764 34.6663L36.7054 34.842L36.5201 34.8435C36.4962 34.8437 36.4862 34.8743 36.5055 34.8885L36.6546 34.9986L36.5987 35.1753C36.5915 35.1981 36.6175 35.217 36.637 35.2031L36.7878 35.0954L36.9385 35.2031C36.958 35.217 36.9841 35.1981 36.9768 35.1753L36.921 34.9986L37.07 34.8885C37.0893 34.8743 37.0793 34.8437 37.0554 34.8435L36.8701 34.842ZM36.8115 36.1605L36.8701 36.3362L37.0554 36.3377C37.0793 36.3379 37.0893 36.3685 37.07 36.3827L36.921 36.4928L36.9768 36.6694C36.9841 36.6923 36.958 36.7112 36.9385 36.6973L36.7878 36.5895L36.637 36.6973C36.6175 36.7112 36.5915 36.6923 36.5987 36.6694L36.6546 36.4928L36.5055 36.3827C36.4862 36.3685 36.4962 36.3379 36.5201 36.3377L36.7054 36.3362L36.764 36.1605C36.7717 36.1377 36.8039 36.1377 36.8115 36.1605ZM36.8701 37.6952L36.8115 37.5194C36.8039 37.4967 36.7717 37.4967 36.764 37.5194L36.7054 37.6952L36.5201 37.6966C36.4962 37.6968 36.4862 37.7275 36.5055 37.7417L36.6546 37.8518L36.5987 38.0284C36.5915 38.0513 36.6175 38.0702 36.637 38.0563L36.7878 37.9485L36.9385 38.0563C36.958 38.0702 36.9841 38.0513 36.9768 38.0284L36.921 37.8518L37.07 37.7417C37.0893 37.7274 37.0793 37.6968 37.0554 37.6966L36.8701 37.6952ZM37.5242 32.2677L37.5828 32.4435L37.7681 32.4449C37.7921 32.4451 37.802 32.4757 37.7828 32.4899L37.6337 32.6L37.6896 32.7767C37.6968 32.7995 37.6708 32.8185 37.6513 32.8045L37.5006 32.6967L37.3498 32.8045C37.3303 32.8185 37.3043 32.7995 37.3115 32.7767L37.3674 32.6L37.2183 32.4899C37.1991 32.4757 37.209 32.4451 37.233 32.4449L37.4182 32.4435L37.4768 32.2677C37.4844 32.2449 37.5167 32.2449 37.5242 32.2677ZM37.5829 34.0694L37.5243 33.8936C37.5167 33.8709 37.4845 33.8709 37.4768 33.8936L37.4182 34.0694L37.233 34.0708C37.209 34.071 37.1991 34.1017 37.2183 34.1159L37.3674 34.226L37.3115 34.4026C37.3043 34.4255 37.3303 34.4444 37.3498 34.4305L37.5006 34.3227L37.6513 34.4305C37.6708 34.4444 37.6969 34.4255 37.6896 34.4026L37.6338 34.226L37.7828 34.1159C37.8021 34.1016 37.7921 34.071 37.7682 34.0708L37.5829 34.0694ZM37.5243 35.4389L37.5829 35.6146L37.7682 35.6161C37.7921 35.6163 37.8021 35.6469 37.7828 35.6611L37.6338 35.7712L37.6896 35.9479C37.6969 35.9707 37.6708 35.9896 37.6513 35.9757L37.5006 35.8679L37.3498 35.9757C37.3303 35.9897 37.3043 35.9707 37.3115 35.9479L37.3674 35.7712L37.2183 35.6611C37.1991 35.6469 37.209 35.6163 37.233 35.6161L37.4182 35.6146L37.4768 35.4389C37.4845 35.4161 37.5167 35.4161 37.5243 35.4389ZM37.5829 37.0026L37.5243 36.8268C37.5167 36.8041 37.4845 36.8041 37.4768 36.8268L37.4182 37.0026L37.233 37.004C37.209 37.0042 37.1991 37.0349 37.2183 37.0491L37.3674 37.1592L37.3115 37.3358C37.3043 37.3587 37.3303 37.3776 37.3498 37.3637L37.5006 37.2559L37.6513 37.3637C37.6708 37.3776 37.6969 37.3587 37.6896 37.3358L37.6338 37.1592L37.7828 37.0491C37.8021 37.0348 37.7921 37.0042 37.7682 37.004L37.5829 37.0026ZM38.2985 33.2154L38.2399 33.0396C38.2323 33.0169 38.2001 33.0169 38.1924 33.0396L38.1338 33.2154L37.9485 33.2168C37.9246 33.217 37.9146 33.2477 37.9339 33.2619L38.083 33.372L38.0271 33.5486C38.0198 33.5715 38.0459 33.5904 38.0654 33.5765L38.2161 33.4687L38.3669 33.5765C38.3864 33.5904 38.4124 33.5715 38.4052 33.5486L38.3493 33.372L38.4984 33.2619C38.5177 33.2476 38.5077 33.217 38.4837 33.2168L38.2985 33.2154ZM38.2399 34.6663L38.2985 34.842L38.4837 34.8435C38.5077 34.8437 38.5177 34.8743 38.4984 34.8885L38.3493 34.9986L38.4052 35.1753C38.4124 35.1981 38.3864 35.217 38.3669 35.2031L38.2161 35.0954L38.0654 35.2031C38.0459 35.217 38.0198 35.1981 38.0271 35.1753L38.083 34.9986L37.9339 34.8885C37.9146 34.8743 37.9246 34.8437 37.9485 34.8435L38.1338 34.842L38.1924 34.6663C38.2001 34.6435 38.2323 34.6435 38.2399 34.6663ZM38.2985 36.3362L38.2399 36.1605C38.2323 36.1377 38.2001 36.1377 38.1924 36.1605L38.1338 36.3362L37.9485 36.3377C37.9246 36.3379 37.9146 36.3685 37.9339 36.3827L38.083 36.4928L38.0271 36.6694C38.0198 36.6923 38.0459 36.7112 38.0654 36.6973L38.2161 36.5895L38.3669 36.6973C38.3864 36.7112 38.4124 36.6923 38.4052 36.6694L38.3493 36.4928L38.4984 36.3827C38.5177 36.3685 38.5077 36.3379 38.4837 36.3377L38.2985 36.3362ZM38.2399 37.5194L38.2985 37.6952L38.4837 37.6966C38.5077 37.6968 38.5177 37.7274 38.4984 37.7417L38.3493 37.8518L38.4052 38.0284C38.4124 38.0513 38.3864 38.0702 38.3669 38.0563L38.2161 37.9485L38.0654 38.0563C38.0459 38.0702 38.0198 38.0513 38.0271 38.0284L38.083 37.8518L37.9339 37.7417C37.9146 37.7275 37.9246 37.6968 37.9485 37.6966L38.1338 37.6952L38.1924 37.5194C38.2001 37.4967 38.2323 37.4967 38.2399 37.5194ZM39.0104 32.4435L38.9518 32.2677C38.9442 32.2449 38.9121 32.2449 38.9044 32.2677L38.8457 32.4435L38.6605 32.4449C38.6365 32.4451 38.6265 32.4757 38.6458 32.4899L38.7949 32.6L38.739 32.7767C38.7318 32.7995 38.7578 32.8185 38.7773 32.8045L38.9281 32.6967L39.0788 32.8045C39.0984 32.8185 39.1244 32.7995 39.1172 32.7767L39.0613 32.6L39.2103 32.4899C39.2296 32.4757 39.2197 32.4451 39.1957 32.4449L39.0104 32.4435ZM38.9518 33.8936L39.0104 34.0694L39.1957 34.0708C39.2197 34.071 39.2296 34.1016 39.2103 34.1159L39.0613 34.226L39.1172 34.4026C39.1244 34.4255 39.0984 34.4444 39.0788 34.4305L38.9281 34.3227L38.7773 34.4305C38.7578 34.4444 38.7318 34.4255 38.739 34.4026L38.7949 34.226L38.6458 34.1159C38.6265 34.1017 38.6365 34.071 38.6605 34.0708L38.8457 34.0694L38.9044 33.8936C38.9121 33.8709 38.9442 33.8709 38.9518 33.8936ZM39.0104 35.6146L38.9518 35.4389C38.9442 35.4161 38.9121 35.4161 38.9044 35.4389L38.8457 35.6146L38.6605 35.6161C38.6365 35.6163 38.6265 35.6469 38.6458 35.6611L38.7949 35.7712L38.739 35.9479C38.7318 35.9707 38.7578 35.9897 38.7773 35.9757L38.9281 35.8679L39.0788 35.9757C39.0984 35.9896 39.1244 35.9707 39.1172 35.9479L39.0613 35.7712L39.2103 35.6611C39.2296 35.6469 39.2197 35.6163 39.1957 35.6161L39.0104 35.6146ZM38.9518 36.8268L39.0104 37.0026L39.1957 37.004C39.2197 37.0042 39.2296 37.0348 39.2103 37.0491L39.0613 37.1592L39.1172 37.3358C39.1244 37.3587 39.0984 37.3776 39.0788 37.3637L38.9281 37.2559L38.7773 37.3637C38.7578 37.3776 38.7318 37.3587 38.739 37.3358L38.7949 37.1592L38.6458 37.0491C38.6265 37.0349 38.6365 37.0042 38.6605 37.004L38.8457 37.0026L38.9044 36.8268C38.9121 36.8041 38.9442 36.8041 38.9518 36.8268ZM39.726 31.7495L39.6674 31.5737C39.6598 31.551 39.6276 31.551 39.6199 31.5737L39.5613 31.7495L39.3761 31.7509C39.3521 31.7511 39.3421 31.7817 39.3614 31.7959L39.5104 31.906L39.4546 32.0827C39.4473 32.1055 39.4734 32.1245 39.4929 32.1105L39.6436 32.0027L39.7944 32.1105C39.8139 32.1244 39.8399 32.1055 39.8327 32.0827L39.7768 31.906L39.9259 31.7959C39.9452 31.7817 39.9352 31.7511 39.9112 31.7509L39.726 31.7495ZM39.6673 33.0396L39.7259 33.2154L39.9112 33.2168C39.9352 33.217 39.9451 33.2476 39.9258 33.2619L39.7768 33.372L39.8327 33.5486C39.8399 33.5715 39.8139 33.5904 39.7944 33.5764L39.6436 33.4687L39.4929 33.5764C39.4734 33.5904 39.4473 33.5715 39.4546 33.5486L39.5104 33.3719L39.3614 33.2619C39.3421 33.2476 39.3521 33.217 39.3761 33.2168L39.5613 33.2154L39.6199 33.0396C39.6276 33.0169 39.6597 33.0169 39.6673 33.0396ZM39.726 34.842L39.6674 34.6663C39.6598 34.6435 39.6276 34.6435 39.6199 34.6663L39.5613 34.842L39.3761 34.8435C39.3521 34.8437 39.3421 34.8743 39.3614 34.8885L39.5104 34.9986L39.4546 35.1753C39.4473 35.1981 39.4734 35.217 39.4929 35.2031L39.6436 35.0954L39.7944 35.2031C39.8139 35.217 39.8399 35.1981 39.8327 35.1753L39.7768 34.9986L39.9259 34.8885C39.9452 34.8743 39.9352 34.8437 39.9112 34.8435L39.726 34.842ZM39.6674 36.1605L39.726 36.3362L39.9112 36.3377C39.9352 36.3379 39.9452 36.3685 39.9259 36.3827L39.7768 36.4928L39.8327 36.6694C39.8399 36.6923 39.8139 36.7112 39.7944 36.6973L39.6436 36.5895L39.4929 36.6973C39.4734 36.7112 39.4473 36.6923 39.4546 36.6694L39.5104 36.4928L39.3614 36.3827C39.3421 36.3685 39.3521 36.3379 39.3761 36.3377L39.5613 36.3362L39.6199 36.1605C39.6276 36.1377 39.6598 36.1377 39.6674 36.1605ZM39.726 37.6952L39.6674 37.5194C39.6598 37.4967 39.6276 37.4967 39.6199 37.5194L39.5613 37.6952L39.3761 37.6966C39.3521 37.6968 39.3421 37.7275 39.3614 37.7417L39.5104 37.8518L39.4546 38.0284C39.4473 38.0513 39.4734 38.0702 39.4929 38.0563L39.6436 37.9485L39.7944 38.0563C39.8139 38.0702 39.8399 38.0513 39.8327 38.0284L39.7768 37.8518L39.9259 37.7417C39.9452 37.7274 39.9352 37.6968 39.9112 37.6966L39.726 37.6952ZM40.3802 32.2677L40.4388 32.4435L40.6241 32.4449C40.6481 32.4451 40.658 32.4757 40.6387 32.4899L40.4897 32.6L40.5455 32.7767C40.5528 32.7995 40.5267 32.8185 40.5072 32.8045L40.3565 32.6967L40.2057 32.8045C40.1862 32.8185 40.1602 32.7995 40.1674 32.7767L40.2233 32.6L40.0742 32.4899C40.055 32.4757 40.0649 32.4451 40.0889 32.4449L40.2741 32.4435L40.3327 32.2677C40.3405 32.2449 40.3726 32.2449 40.3802 32.2677ZM40.4388 34.0694L40.3802 33.8936C40.3726 33.8709 40.3405 33.8709 40.3327 33.8936L40.2741 34.0694L40.0889 34.0708C40.0649 34.071 40.055 34.1017 40.0742 34.1159L40.2233 34.226L40.1674 34.4026C40.1602 34.4255 40.1862 34.4444 40.2057 34.4305L40.3565 34.3227L40.5072 34.4305C40.5267 34.4444 40.5528 34.4255 40.5455 34.4026L40.4897 34.226L40.6387 34.1159C40.658 34.1016 40.6481 34.071 40.6241 34.0708L40.4388 34.0694ZM40.3802 35.4389L40.4388 35.6146L40.6241 35.6161C40.6481 35.6163 40.658 35.6469 40.6387 35.6611L40.4897 35.7712L40.5455 35.9479C40.5528 35.9707 40.5267 35.9896 40.5072 35.9757L40.3565 35.8679L40.2057 35.9757C40.1862 35.9897 40.1602 35.9707 40.1674 35.9479L40.2233 35.7712L40.0742 35.6611C40.055 35.6469 40.0649 35.6163 40.0889 35.6161L40.2741 35.6146L40.3327 35.4389C40.3405 35.4161 40.3726 35.4161 40.3802 35.4389ZM40.4388 37.0026L40.3802 36.8268C40.3726 36.8041 40.3405 36.8041 40.3327 36.8268L40.2741 37.0026L40.0889 37.004C40.0649 37.0042 40.055 37.0349 40.0742 37.0491L40.2233 37.1592L40.1674 37.3358C40.1602 37.3587 40.1862 37.3776 40.2057 37.3637L40.3565 37.2559L40.5072 37.3637C40.5267 37.3776 40.5528 37.3587 40.5455 37.3358L40.4897 37.1592L40.6387 37.0491C40.658 37.0348 40.6481 37.0042 40.6241 37.004L40.4388 37.0026ZM41.094 31.5737L41.1526 31.7495L41.3379 31.7509C41.3618 31.7511 41.3718 31.7817 41.3525 31.7959L41.2034 31.906L41.2593 32.0827C41.2665 32.1055 41.2405 32.1244 41.221 32.1105L41.0702 32.0027L40.9195 32.1105C40.9 32.1245 40.8739 32.1055 40.8812 32.0827L40.937 31.906L40.788 31.7959C40.7687 31.7817 40.7786 31.7511 40.8026 31.7509L40.9879 31.7495L41.0465 31.5737C41.0542 31.551 41.0864 31.551 41.094 31.5737ZM41.1526 33.2154L41.094 33.0396C41.0864 33.0169 41.0542 33.0169 41.0465 33.0396L40.9879 33.2154L40.8026 33.2168C40.7786 33.217 40.7687 33.2477 40.788 33.2619L40.937 33.372L40.8812 33.5486C40.8739 33.5715 40.9 33.5904 40.9195 33.5765L41.0702 33.4687L41.221 33.5765C41.2405 33.5904 41.2665 33.5715 41.2593 33.5486L41.2034 33.372L41.3525 33.2619C41.3718 33.2476 41.3618 33.217 41.3379 33.2168L41.1526 33.2154ZM41.094 34.6663L41.1526 34.842L41.3379 34.8435C41.3618 34.8437 41.3718 34.8743 41.3525 34.8885L41.2034 34.9986L41.2593 35.1753C41.2665 35.1981 41.2405 35.217 41.221 35.2031L41.0702 35.0954L40.9195 35.2031C40.9 35.217 40.8739 35.1981 40.8812 35.1753L40.937 34.9986L40.788 34.8885C40.7687 34.8743 40.7786 34.8437 40.8026 34.8435L40.9879 34.842L41.0465 34.6663C41.0542 34.6435 41.0864 34.6435 41.094 34.6663ZM41.1526 36.3362L41.094 36.1605C41.0864 36.1377 41.0542 36.1377 41.0465 36.1605L40.9879 36.3362L40.8026 36.3377C40.7786 36.3379 40.7687 36.3685 40.788 36.3827L40.937 36.4928L40.8812 36.6694C40.8739 36.6923 40.9 36.7112 40.9195 36.6973L41.0702 36.5895L41.221 36.6973C41.2405 36.7112 41.2665 36.6923 41.2593 36.6694L41.2034 36.4928L41.3525 36.3827C41.3718 36.3685 41.3618 36.3379 41.3379 36.3377L41.1526 36.3362ZM41.094 37.5194L41.1526 37.6952L41.3379 37.6966C41.3618 37.6968 41.3718 37.7274 41.3525 37.7417L41.2034 37.8518L41.2593 38.0284C41.2665 38.0513 41.2405 38.0702 41.221 38.0563L41.0702 37.9485L40.9195 38.0563C40.9 38.0702 40.8739 38.0513 40.8812 38.0284L40.937 37.8518L40.788 37.7417C40.7687 37.7275 40.7786 37.6968 40.8026 37.6966L40.9879 37.6952L41.0465 37.5194C41.0542 37.4967 41.0864 37.4967 41.094 37.5194ZM41.8645 32.4435L41.8059 32.2677C41.7983 32.2449 41.7661 32.2449 41.7584 32.2677L41.6998 32.4435L41.5145 32.4449C41.4905 32.4451 41.4806 32.4757 41.4999 32.4899L41.649 32.6L41.5931 32.7767C41.5859 32.7995 41.6119 32.8185 41.6314 32.8045L41.7822 32.6967L41.9329 32.8045C41.9524 32.8185 41.9785 32.7995 41.9712 32.7767L41.9153 32.6L42.0644 32.4899C42.0837 32.4757 42.0738 32.4451 42.0498 32.4449L41.8645 32.4435ZM41.8059 33.8936L41.8645 34.0694L42.0498 34.0708C42.0738 34.071 42.0837 34.1016 42.0644 34.1159L41.9153 34.226L41.9712 34.4026C41.9785 34.4255 41.9524 34.4444 41.9329 34.4305L41.7822 34.3227L41.6314 34.4305C41.6119 34.4444 41.5859 34.4255 41.5931 34.4026L41.649 34.226L41.4999 34.1159C41.4806 34.1017 41.4905 34.071 41.5145 34.0708L41.6998 34.0694L41.7584 33.8936C41.7661 33.8709 41.7983 33.8709 41.8059 33.8936ZM41.8645 35.6146L41.8059 35.4389C41.7983 35.4161 41.7661 35.4161 41.7584 35.4389L41.6998 35.6146L41.5145 35.6161C41.4905 35.6163 41.4806 35.6469 41.4999 35.6611L41.649 35.7712L41.5931 35.9479C41.5859 35.9707 41.6119 35.9897 41.6314 35.9757L41.7822 35.8679L41.9329 35.9757C41.9524 35.9896 41.9785 35.9707 41.9712 35.9479L41.9153 35.7712L42.0644 35.6611C42.0837 35.6469 42.0738 35.6163 42.0498 35.6161L41.8645 35.6146ZM41.8059 36.8268L41.8645 37.0026L42.0498 37.004C42.0738 37.0042 42.0837 37.0348 42.0644 37.0491L41.9153 37.1592L41.9712 37.3358C41.9785 37.3587 41.9524 37.3776 41.9329 37.3637L41.7822 37.2559L41.6314 37.3637C41.6119 37.3776 41.5859 37.3587 41.5931 37.3358L41.649 37.1592L41.4999 37.0491C41.4806 37.0349 41.4905 37.0042 41.5145 37.004L41.6998 37.0026L41.7584 36.8268C41.7661 36.8041 41.7983 36.8041 41.8059 36.8268ZM42.5792 31.7495L42.5205 31.5737C42.513 31.551 42.4808 31.551 42.4731 31.5737L42.4145 31.7495L42.2292 31.7509C42.2052 31.7511 42.1953 31.7817 42.2146 31.7959L42.3636 31.906L42.3077 32.0827C42.3005 32.1055 42.3266 32.1245 42.3461 32.1105L42.4968 32.0027L42.6476 32.1105C42.6671 32.1244 42.6931 32.1055 42.6859 32.0827L42.63 31.906L42.7791 31.7959C42.7984 31.7817 42.7884 31.7511 42.7644 31.7509L42.5792 31.7495ZM42.5205 33.0396L42.5792 33.2154L42.7644 33.2168C42.7884 33.217 42.7984 33.2476 42.7791 33.2619L42.63 33.372L42.6859 33.5486C42.6931 33.5715 42.6671 33.5904 42.6476 33.5765L42.4968 33.4687L42.3461 33.5765C42.3266 33.5904 42.3005 33.5715 42.3077 33.5486L42.3636 33.372L42.2146 33.2619C42.1953 33.2477 42.2052 33.217 42.2292 33.2168L42.4145 33.2154L42.4731 33.0396C42.4808 33.0169 42.513 33.0169 42.5205 33.0396ZM42.5792 34.842L42.5205 34.6663C42.513 34.6435 42.4808 34.6435 42.4731 34.6663L42.4145 34.842L42.2292 34.8435C42.2052 34.8437 42.1953 34.8743 42.2146 34.8885L42.3636 34.9986L42.3077 35.1753C42.3005 35.1981 42.3266 35.217 42.3461 35.2031L42.4968 35.0954L42.6476 35.2031C42.6671 35.217 42.6931 35.1981 42.6859 35.1753L42.63 34.9986L42.7791 34.8885C42.7984 34.8743 42.7884 34.8437 42.7644 34.8435L42.5792 34.842ZM42.5205 36.1605L42.5792 36.3362L42.7644 36.3377C42.7884 36.3379 42.7984 36.3685 42.7791 36.3827L42.63 36.4928L42.6859 36.6694C42.6931 36.6923 42.6671 36.7112 42.6476 36.6973L42.4968 36.5895L42.3461 36.6973C42.3266 36.7112 42.3005 36.6923 42.3077 36.6694L42.3636 36.4928L42.2146 36.3827C42.1953 36.3685 42.2052 36.3379 42.2292 36.3377L42.4145 36.3362L42.4731 36.1605C42.4808 36.1377 42.513 36.1377 42.5205 36.1605ZM42.5792 37.6952L42.5205 37.5194C42.513 37.4967 42.4808 37.4967 42.4731 37.5194L42.4145 37.6952L42.2292 37.6966C42.2052 37.6968 42.1953 37.7275 42.2146 37.7417L42.3636 37.8518L42.3077 38.0284C42.3005 38.0513 42.3266 38.0702 42.3461 38.0563L42.4968 37.9485L42.6476 38.0563C42.6671 38.0702 42.6931 38.0513 42.6859 38.0284L42.63 37.8518L42.7791 37.7417C42.7984 37.7274 42.7884 37.6968 42.7644 37.6966L42.5792 37.6952Z" fill="#F5F5F5"/>
</g>
<path d="M65.7912 29.508V30.4766H62.5835V29.508H65.7912ZM62.9891 24.4501V30.4766H61.7474V24.4501H62.9891ZM65.3732 26.9046V27.8483H62.5835V26.9046H65.3732ZM65.7871 24.4501V25.4228H62.5835V24.4501H65.7871ZM69.8433 24.4501H71.0809V28.4319C71.0809 28.8955 70.9816 29.2859 70.7829 29.6032C70.587 29.9206 70.3152 30.1592 69.9675 30.3193C69.6226 30.4793 69.2252 30.5593 68.7755 30.5593C68.3257 30.5593 67.9256 30.4793 67.5751 30.3193C67.2275 30.1592 66.9543 29.9206 66.7556 29.6032C66.5597 29.2859 66.4617 28.8955 66.4617 28.4319V24.4501H67.7035V28.4319C67.7035 28.7023 67.7462 28.923 67.8318 29.0941C67.9173 29.2652 68.0401 29.3908 68.2001 29.4708C68.3629 29.5508 68.5547 29.5908 68.7755 29.5908C69.0017 29.5908 69.1935 29.5508 69.3508 29.4708C69.5108 29.3908 69.6322 29.2652 69.715 29.0941C69.8006 28.923 69.8433 28.7023 69.8433 28.4319V24.4501ZM72.1032 24.4501H74.3507C74.8116 24.4501 75.2075 24.5191 75.5386 24.6571C75.8725 24.795 76.1291 24.9992 76.3085 25.2697C76.4879 25.5401 76.5775 25.8726 76.5775 26.2672C76.5775 26.59 76.5224 26.8673 76.412 27.0991C76.3044 27.3281 76.1512 27.5199 75.9525 27.6744C75.7566 27.8262 75.5262 27.9476 75.2613 28.0387L74.8681 28.2456H72.9145L72.9062 27.2771H74.359C74.577 27.2771 74.7577 27.2385 74.9012 27.1612C75.0447 27.0839 75.1523 26.9763 75.2241 26.8384C75.2986 26.7004 75.3358 26.5403 75.3358 26.3582C75.3358 26.1651 75.3 25.9981 75.2282 25.8574C75.1565 25.7167 75.0475 25.6091 74.9012 25.5346C74.755 25.4601 74.5715 25.4228 74.3507 25.4228H73.345V30.4766H72.1032V24.4501ZM75.4724 30.4766L74.0983 27.7903L75.4103 27.7821L76.801 30.4186V30.4766H75.4724ZM80.0336 24.4501L77.8234 30.9939H76.9376L79.1479 24.4501H80.0336ZM84.0071 24.4501H85.2447V28.4319C85.2447 28.8955 85.1453 29.2859 84.9467 29.6032C84.7508 29.9206 84.479 30.1592 84.1313 30.3193C83.7864 30.4793 83.389 30.5593 82.9392 30.5593C82.4895 30.5593 82.0894 30.4793 81.7389 30.3193C81.3912 30.1592 81.1181 29.9206 80.9194 29.6032C80.7235 29.2859 80.6255 28.8955 80.6255 28.4319V24.4501H81.8672V28.4319C81.8672 28.7023 81.91 28.923 81.9955 29.0941C82.0811 29.2652 82.2039 29.3908 82.3639 29.4708C82.5267 29.5508 82.7185 29.5908 82.9392 29.5908C83.1655 29.5908 83.3573 29.5508 83.5146 29.4708C83.6746 29.3908 83.796 29.2652 83.8788 29.0941C83.9643 28.923 84.0071 28.7023 84.0071 28.4319V24.4501ZM89.4044 28.8996C89.4044 28.792 89.3879 28.6954 89.3547 28.6099C89.3244 28.5216 89.2664 28.4415 89.1809 28.3698C89.0954 28.2953 88.9753 28.2222 88.8208 28.1504C88.6663 28.0787 88.4662 28.0042 88.2206 27.9269C87.9475 27.8386 87.6881 27.7393 87.4425 27.6289C87.1997 27.5185 86.9845 27.3902 86.7968 27.244C86.6119 27.095 86.4657 26.9225 86.3581 26.7266C86.2532 26.5307 86.2008 26.303 86.2008 26.0437C86.2008 25.7926 86.256 25.5649 86.3664 25.3607C86.4767 25.1538 86.6313 24.9772 86.8299 24.8309C87.0286 24.6819 87.2631 24.5674 87.5336 24.4874C87.8067 24.4074 88.1061 24.3673 88.4317 24.3673C88.876 24.3673 89.2637 24.4474 89.5948 24.6074C89.9259 24.7675 90.1825 24.9868 90.3647 25.2655C90.5495 25.5442 90.642 25.8629 90.642 26.2216H89.4085C89.4085 26.045 89.3713 25.8905 89.2968 25.7581C89.2251 25.6229 89.1147 25.5166 88.9657 25.4394C88.8194 25.3621 88.6345 25.3235 88.411 25.3235C88.1958 25.3235 88.0165 25.3566 87.873 25.4228C87.7295 25.4863 87.6219 25.5732 87.5501 25.6836C87.4784 25.7912 87.4425 25.9126 87.4425 26.0478C87.4425 26.1499 87.4673 26.2423 87.517 26.3251C87.5694 26.4079 87.6467 26.4852 87.7488 26.5569C87.8509 26.6286 87.9764 26.6962 88.1254 26.7597C88.2745 26.8232 88.4469 26.8853 88.6428 26.946C88.9712 27.0453 89.2595 27.1571 89.5079 27.2812C89.759 27.4054 89.9687 27.5447 90.137 27.6993C90.3053 27.8538 90.4323 28.029 90.5178 28.2249C90.6034 28.4208 90.6461 28.643 90.6461 28.8913C90.6461 29.1535 90.5951 29.388 90.493 29.5949C90.3909 29.8019 90.2433 29.9771 90.0501 30.1206C89.8569 30.2641 89.6265 30.3731 89.3589 30.4476C89.0912 30.5221 88.7918 30.5593 88.4607 30.5593C88.1627 30.5593 87.8688 30.5207 87.5791 30.4435C87.2894 30.3634 87.0258 30.2434 86.7885 30.0834C86.554 29.9233 86.3664 29.7191 86.2256 29.4708C86.0849 29.2224 86.0145 28.9286 86.0145 28.5892H87.2604C87.2604 28.7768 87.2894 28.9355 87.3473 29.0652C87.4053 29.1948 87.4867 29.2997 87.5915 29.3797C87.6991 29.4597 87.8261 29.5177 87.9723 29.5536C88.1213 29.5894 88.2841 29.6074 88.4607 29.6074C88.6759 29.6074 88.8525 29.577 88.9905 29.5163C89.1312 29.4556 89.2347 29.3714 89.3009 29.2638C89.3699 29.1562 89.4044 29.0348 89.4044 28.8996ZM93.3406 30.4766H92.0286L92.0368 29.508H93.3406C93.6662 29.508 93.9408 29.4349 94.1643 29.2887C94.3878 29.1397 94.5561 28.923 94.6693 28.6388C94.7852 28.3546 94.8431 28.0111 94.8431 27.6082V27.3143C94.8431 27.0053 94.81 26.7335 94.7438 26.4989C94.6803 26.2644 94.5851 26.0671 94.4582 25.9071C94.3312 25.747 94.1753 25.627 93.9905 25.547C93.8056 25.4642 93.5931 25.4228 93.3531 25.4228H92.0037V24.4501H93.3531C93.7559 24.4501 94.1243 24.5191 94.4582 24.6571C94.7948 24.7923 95.0859 24.9868 95.3315 25.2407C95.5771 25.4945 95.7661 25.7981 95.8986 26.1513C96.0338 26.5017 96.1014 26.8922 96.1014 27.3226V27.6082C96.1014 28.0359 96.0338 28.4264 95.8986 28.7796C95.7661 29.1328 95.5771 29.4363 95.3315 29.6901C95.0887 29.9412 94.7976 30.1358 94.4582 30.2737C94.1215 30.409 93.749 30.4766 93.3406 30.4766ZM92.7322 24.4501V30.4766H91.4905V24.4501H92.7322Z" fill="white"/>
<path d="M210.88 24.4501V30.4766H209.639V24.4501H210.88ZM213.281 27.0246V27.9931H210.541V27.0246H213.281ZM213.571 24.4501V25.4228H210.541V24.4501H213.571ZM217.407 24.4501V30.4766H216.17V24.4501H217.407ZM219.261 24.4501V25.4228H214.344V24.4501H219.261ZM223.069 24.4501V30.4766H221.831V24.4501H223.069ZM224.923 24.4501V25.4228H220.006V24.4501H224.923Z" fill="#70808C"/>
<path fill-rule="evenodd" clip-rule="evenodd" d="M237.309 25.2157C237.585 24.9398 238.032 24.9398 238.308 25.2157L242.047 28.9546L245.785 25.2157C246.061 24.9398 246.509 24.9398 246.784 25.2157C247.06 25.4916 247.06 25.9388 246.784 26.2147L243.045 29.9536L246.784 33.6924C247.06 33.9683 247.06 34.4156 246.784 34.6914C246.509 34.9673 246.061 34.9673 245.785 34.6914L242.047 30.9525L238.308 34.6914C238.032 34.9673 237.585 34.9673 237.309 34.6914C237.033 34.4156 237.033 33.9683 237.309 33.6924L241.048 29.9536L237.309 26.2147C237.033 25.9388 237.033 25.4916 237.309 25.2157Z" fill="#70808C"/>
<path d="M24.4767 14H250.523V12H24.4767V14ZM258 21.4767V49.7326H260V21.4767H258ZM250.523 57.2093H24.4767V59.2093H250.523V57.2093ZM17 49.7326V21.4767H15V49.7326H17ZM24.4767 57.2093C20.3475 57.2093 17 53.8618 17 49.7326H15C15 54.9664 19.2429 59.2093 24.4767 59.2093V57.2093ZM258 49.7326C258 53.8619 254.653 57.2093 250.523 57.2093V59.2093C255.757 59.2093 260 54.9664 260 49.7326H258ZM250.523 14C254.653 14 258 17.3475 258 21.4767H260C260 16.2429 255.757 12 250.523 12V14ZM24.4767 12C19.2429 12 15 16.2429 15 21.4767H17C17 17.3474 20.3475 14 24.4767 14V12Z" fill="#0094FF"/>
</g>
<path d="M21 25C21 20.5817 24.5817 17 29 17H123C127.418 17 131 20.5817 131 25V47C131 51.4183 127.418 55 123 55H29C24.5817 55 21 51.4183 21 47V25Z" fill="#272930"/>
<g clip-path="url(#clip1_291_26964)">
<path d="M42.0234 28.0166H35.6239C34.2495 28.0166 33.1353 29.1308 33.1353 30.5053V36.9047C33.1353 38.2792 34.2495 39.3934 35.6239 39.3934H42.0234C43.3978 39.3934 44.5121 38.2792 44.5121 36.9047V30.5053C44.5121 29.1308 43.3978 28.0166 42.0234 28.0166Z" fill="#0A48B6"/>
<path fill-rule="evenodd" clip-rule="evenodd" d="M39.0054 30.5211L38.9105 30.2366C38.8983 30.1998 38.8462 30.1998 38.8339 30.2366L38.739 30.5211L38.4391 30.5235C38.4003 30.5238 38.3842 30.5733 38.4155 30.5964L38.6567 30.7745L38.5662 31.0605C38.5545 31.0975 38.5967 31.1281 38.6283 31.1055L38.8722 30.9312L39.1162 31.1055C39.1478 31.1281 39.1899 31.0975 39.1782 31.0605L39.0878 30.7745L39.329 30.5964C39.3603 30.5733 39.3442 30.5237 39.3053 30.5235L39.0054 30.5211ZM39.0054 36.6295L38.9105 36.345C38.8983 36.3081 38.8462 36.3081 38.8339 36.345L38.739 36.6295L38.4391 36.6318C38.4003 36.6321 38.3842 36.6816 38.4155 36.7047L38.6567 36.8829L38.5662 37.1688C38.5545 37.2058 38.5967 37.2364 38.6283 37.2139L38.8722 37.0395L39.1162 37.2139C39.1478 37.2364 39.1899 37.2058 39.1782 37.1688L39.0878 36.8829L39.329 36.7047C39.3603 36.6816 39.3442 36.6321 39.3053 36.6318L39.0054 36.6295ZM41.9644 33.2904L42.0593 33.5749L42.3592 33.5773C42.398 33.5776 42.4141 33.6271 42.3829 33.6502L42.1416 33.8284L42.2321 34.1143C42.2438 34.1513 42.2016 34.1819 42.1701 34.1594L41.9261 33.985L41.6821 34.1594C41.6505 34.1819 41.6083 34.1513 41.6201 34.1143L41.7105 33.8284L41.4693 33.6502C41.438 33.6271 41.4541 33.5776 41.493 33.5773L41.7928 33.5749L41.8877 33.2904C41.9 33.2536 41.9521 33.2536 41.9644 33.2904ZM35.9516 33.5749L35.8568 33.2904C35.8445 33.2536 35.7924 33.2536 35.7801 33.2904L35.6852 33.5749L35.3853 33.5773C35.3465 33.5776 35.3304 33.6271 35.3616 33.6502L35.6029 33.8284L35.5124 34.1143C35.5007 34.1513 35.5428 34.1819 35.5744 34.1594L35.8184 33.985L36.0624 34.1594C36.094 34.1819 36.1361 34.1513 36.1244 34.1143L36.034 33.8284L36.2752 33.6502C36.3064 33.6271 36.2903 33.5776 36.2515 33.5773L35.9516 33.5749ZM36.3159 31.6957L36.4108 31.9802L36.7107 31.9826C36.7496 31.9829 36.7657 32.0324 36.7344 32.0555L36.4932 32.2336L36.5836 32.5196C36.5953 32.5566 36.5532 32.5872 36.5216 32.5646L36.2776 32.3902L36.0337 32.5646C36.0021 32.5872 35.9599 32.5566 35.9716 32.5196L36.0621 32.2336L35.8209 32.0555C35.7896 32.0324 35.8057 31.9828 35.8445 31.9825L36.1444 31.9802L36.2393 31.6957C36.2516 31.6589 36.3037 31.6589 36.3159 31.6957ZM41.7 35.0341L41.6051 34.7496C41.5929 34.7127 41.5408 34.7127 41.5285 34.7496L41.4336 35.0341L41.1337 35.0364C41.0949 35.0367 41.0788 35.0862 41.11 35.1093L41.3513 35.2875L41.2608 35.5734C41.2491 35.6104 41.2912 35.641 41.3228 35.6185L41.5668 35.4441L41.8108 35.6185C41.8424 35.641 41.8845 35.6104 41.8728 35.5734L41.7824 35.2875L42.0236 35.1093C42.0548 35.0862 42.0387 35.0367 41.9999 35.0364L41.7 35.0341ZM40.4868 30.5781L40.5816 30.8626L40.8815 30.8649C40.9203 30.8652 40.9364 30.9147 40.9052 30.9378L40.664 31.116L40.7544 31.4019C40.7661 31.4389 40.724 31.4696 40.6924 31.447L40.4484 31.2726L40.2044 31.447C40.1728 31.4696 40.1307 31.4389 40.1424 31.4019L40.2329 31.116L39.9916 30.9378C39.9604 30.9148 39.9765 30.8652 40.0153 30.8649L40.3152 30.8626L40.4101 30.5781C40.4224 30.5412 40.4745 30.5412 40.4868 30.5781ZM37.5278 36.1525L37.4329 35.868C37.4206 35.8311 37.3685 35.8311 37.3563 35.868L37.2614 36.1525L36.9615 36.1548C36.9227 36.1551 36.9066 36.2047 36.9378 36.2277L37.179 36.4059L37.0886 36.6918C37.0769 36.7288 37.119 36.7595 37.1506 36.7369L37.3946 36.5625L37.6386 36.7369C37.6702 36.7595 37.7123 36.7288 37.7006 36.6918L37.6101 36.4059L37.8514 36.2277C37.8826 36.2047 37.8665 36.1551 37.8277 36.1548L37.5278 36.1525ZM41.5285 31.6957L41.4336 31.9802L41.1337 31.9826C41.0949 31.9829 41.0788 32.0324 41.11 32.0555L41.3513 32.2336L41.2608 32.5196C41.2491 32.5566 41.2913 32.5872 41.3228 32.5646L41.5668 32.3902L41.8108 32.5646C41.8424 32.5872 41.8845 32.5566 41.8728 32.5196L41.7824 32.2336L42.0236 32.0555C42.0548 32.0324 42.0387 31.9828 41.9999 31.9825L41.7 31.9802L41.6051 31.6957C41.5929 31.6589 41.5408 31.6589 41.5285 31.6957ZM36.1444 35.0341L36.2393 34.7496C36.2516 34.7127 36.3037 34.7127 36.316 34.7496L36.4109 35.0341L36.7108 35.0364C36.7496 35.0367 36.7657 35.0862 36.7344 35.1093L36.4932 35.2875L36.5837 35.5734C36.5953 35.6104 36.5532 35.641 36.5216 35.6185L36.2776 35.4441L36.0337 35.6185C36.0021 35.641 35.9599 35.6104 35.9716 35.5734L36.0621 35.2875L35.8209 35.1093C35.7896 35.0862 35.8057 35.0367 35.8445 35.0364L36.1444 35.0341ZM37.3563 30.5781L37.2614 30.8626L36.9615 30.8649C36.9227 30.8652 36.9066 30.9147 36.9378 30.9378L37.179 31.116L37.0886 31.4019C37.0769 31.4389 37.119 31.4696 37.1506 31.447L37.3946 31.2726L37.6386 31.447C37.6702 31.4696 37.7123 31.4389 37.7006 31.4019L37.6101 31.116L37.8514 30.9378C37.8826 30.9148 37.8665 30.8652 37.8277 30.8649L37.5278 30.8626L37.4329 30.5781C37.4206 30.5412 37.3685 30.5412 37.3563 30.5781ZM40.3152 36.1525L40.4101 35.868C40.4224 35.8311 40.4745 35.8311 40.4867 35.868L40.5816 36.1525L40.8815 36.1548C40.9203 36.1551 40.9364 36.2047 40.9052 36.2277L40.6639 36.4059L40.7544 36.6918C40.7661 36.7288 40.724 36.7595 40.6924 36.7369L40.4484 36.5625L40.2044 36.7369C40.1728 36.7595 40.1307 36.7288 40.1424 36.6918L40.2329 36.4059L39.9916 36.2277C39.9604 36.2047 39.9765 36.1551 40.0153 36.1548L40.3152 36.1525Z" fill="#FFE15A"/>
<path fill-rule="evenodd" clip-rule="evenodd" d="M40.5558 32.6846H50.7445C50.9602 32.9376 51.1262 33.2343 51.2272 33.5597H40.0731C40.1741 33.2343 40.3401 32.9376 40.5558 32.6846ZM39.9613 34.4348H51.3381V35.3098H39.9613V34.4348ZM51.3381 36.185H39.9613V37.0601H51.3381V36.185ZM39.9613 37.9352H51.3381V38.8103H39.9613V37.9352ZM51.3381 39.6855H39.9613V40.5605H51.3381V39.6855ZM40.0731 41.4364H51.2272C51.1262 41.7618 50.9602 42.0585 50.7445 42.3115H40.5558C40.3401 42.0585 40.1741 41.7618 40.0731 41.4364Z" fill="#F5F5F5"/>
<path fill-rule="evenodd" clip-rule="evenodd" d="M48.8495 31.8096H42.45C41.6913 31.8096 41.0119 32.1493 40.5554 32.6847H50.7441C50.2876 32.1493 49.6083 31.8096 48.8495 31.8096ZM51.3383 35.31H39.9614V36.1851H51.3383V35.31ZM51.2269 33.5605C51.2993 33.7938 51.3383 34.0418 51.3383 34.2989V34.4357H39.9614V34.2989C39.9614 34.0418 40.0004 33.7938 40.0728 33.5605H51.2269ZM51.3383 37.0602H39.9614V37.9353H51.3383V37.0602ZM51.3383 40.5614V40.6982C51.3383 40.9553 51.2993 41.2033 51.2269 41.4366H40.0728C40.0004 41.2033 39.9614 40.9553 39.9614 40.6982V40.5614H51.3383ZM50.7441 42.3109H40.5554C41.0119 42.8464 41.6913 43.1861 42.45 43.1861H48.8495C49.6083 43.1861 50.2876 42.8464 50.7441 42.3109ZM39.9614 38.8105H51.3383V39.6855H39.9614V38.8105Z" fill="#FA4051"/>
<path d="M46.0292 31.8086H42.4265C41.0651 31.8086 39.9615 32.9228 39.9615 34.2973V37.9346H46.0292V31.8086Z" fill="#1939C9"/>
<path fill-rule="evenodd" clip-rule="evenodd" d="M41.9431 32.3555L41.9903 32.4971L42.1394 32.4982C42.1587 32.4984 42.1668 32.523 42.1512 32.5345L42.0312 32.6231L42.0762 32.7654C42.082 32.7838 42.0611 32.799 42.0453 32.7878L41.9239 32.701L41.8026 32.7878C41.7868 32.799 41.7659 32.7838 41.7717 32.7654L41.8167 32.6231L41.6967 32.5345C41.6811 32.523 41.6891 32.4984 41.7085 32.4982L41.8576 32.4971L41.9048 32.3555C41.911 32.3372 41.9369 32.3372 41.9431 32.3555ZM40.6214 32.7657C40.6156 32.7842 40.6366 32.7994 40.6523 32.7882L40.7737 32.7014L40.8951 32.7882C40.9108 32.7994 40.9317 32.7842 40.9259 32.7657L40.8809 32.6235L41.001 32.5348C41.0165 32.5234 41.0085 32.4987 40.9892 32.4986L40.84 32.4974L40.8145 32.421C40.7506 32.4768 40.6896 32.5358 40.6316 32.5977L40.6665 32.6235L40.6214 32.7657ZM40.7928 33.5362L40.84 33.6777L40.9892 33.6789C41.0085 33.679 41.0165 33.7037 41.001 33.7152L40.881 33.8038L40.926 33.9461C40.9318 33.9645 40.9108 33.9797 40.8951 33.9685L40.7737 33.8817L40.6523 33.9685C40.6366 33.9797 40.6156 33.9645 40.6214 33.9461L40.6664 33.8038L40.5464 33.7152C40.5309 33.7037 40.5389 33.679 40.5582 33.6789L40.7074 33.6777L40.7546 33.5362C40.7608 33.5179 40.7867 33.5179 40.7928 33.5362ZM40.84 34.9872L40.7928 34.8457C40.7867 34.8274 40.7608 34.8274 40.7546 34.8457L40.7074 34.9872L40.5582 34.9884C40.5389 34.9886 40.5309 35.0132 40.5464 35.0247L40.6664 35.1133L40.6214 35.2556C40.6156 35.274 40.6366 35.2892 40.6523 35.278L40.7737 35.1913L40.8951 35.278C40.9108 35.2892 40.9318 35.274 40.926 35.2556L40.881 35.1133L41.001 35.0247C41.0165 35.0132 41.0085 34.9886 40.9892 34.9884L40.84 34.9872ZM40.7928 36.0493L40.84 36.1908L40.9892 36.192C41.0085 36.1922 41.0165 36.2168 41.001 36.2283L40.881 36.3169L40.926 36.4592C40.9318 36.4776 40.9108 36.4928 40.8951 36.4816L40.7737 36.3948L40.6523 36.4816C40.6366 36.4928 40.6156 36.4776 40.6214 36.4592L40.6664 36.3169L40.5464 36.2283C40.5309 36.2168 40.5389 36.1922 40.5582 36.192L40.7074 36.1908L40.7546 36.0493C40.7608 36.031 40.7867 36.031 40.7928 36.0493ZM40.84 37.2848L40.7928 37.1433C40.7867 37.125 40.7608 37.125 40.7546 37.1433L40.7074 37.2848L40.5582 37.286C40.5389 37.2861 40.5309 37.3108 40.5464 37.3223L40.6664 37.4109L40.6214 37.5532C40.6156 37.5716 40.6366 37.5868 40.6523 37.5756L40.7737 37.4888L40.8951 37.5756C40.9108 37.5868 40.9318 37.5716 40.926 37.5532L40.881 37.4109L41.001 37.3223C41.0165 37.3108 41.0085 37.2861 40.9892 37.286L40.84 37.2848ZM41.3668 32.9148L41.414 33.0563L41.5631 33.0575C41.5825 33.0576 41.5905 33.0823 41.5749 33.0937L41.4549 33.1824L41.4999 33.3246C41.5057 33.343 41.4848 33.3583 41.469 33.347L41.3477 33.2603L41.2263 33.347C41.2106 33.3583 41.1896 33.343 41.1954 33.3246L41.2404 33.1824L41.1204 33.0937C41.1049 33.0823 41.1129 33.0576 41.1322 33.0575L41.2814 33.0563L41.3286 32.9148C41.3347 32.8964 41.3607 32.8964 41.3668 32.9148ZM41.414 34.3651L41.3668 34.2235C41.3607 34.2052 41.3348 34.2052 41.3286 34.2235L41.2814 34.3651L41.1322 34.3662C41.1129 34.3664 41.1049 34.3911 41.1204 34.4025L41.2404 34.4912L41.1954 34.6334C41.1896 34.6518 41.2106 34.6671 41.2263 34.6558L41.3477 34.5691L41.4691 34.6558C41.4848 34.6671 41.5058 34.6518 41.5 34.6334L41.455 34.4912L41.575 34.4025C41.5905 34.391 41.5825 34.3664 41.5632 34.3662L41.414 34.3651ZM41.3668 35.4679L41.414 35.6094L41.5632 35.6106C41.5825 35.6107 41.5905 35.6354 41.575 35.6468L41.455 35.7355L41.5 35.8777C41.5058 35.8962 41.4848 35.9114 41.4691 35.9002L41.3477 35.8134L41.2263 35.9002C41.2106 35.9114 41.1896 35.8962 41.1954 35.8777L41.2404 35.7355L41.1204 35.6468C41.1049 35.6354 41.1129 35.6107 41.1322 35.6106L41.2814 35.6094L41.3286 35.4679C41.3348 35.4495 41.3607 35.4495 41.3668 35.4679ZM41.414 36.7271L41.3668 36.5856C41.3607 36.5672 41.3348 36.5672 41.3286 36.5856L41.2814 36.7271L41.1322 36.7283C41.1129 36.7284 41.1049 36.7531 41.1204 36.7645L41.2404 36.8532L41.1954 36.9954C41.1896 37.0139 41.2106 37.0291 41.2263 37.0179L41.3477 36.9311L41.4691 37.0179C41.4848 37.0291 41.5058 37.0139 41.5 36.9954L41.455 36.8532L41.575 36.7645C41.5905 36.7531 41.5825 36.7284 41.5632 36.7283L41.414 36.7271ZM41.9903 33.6777L41.9431 33.5362C41.9369 33.5179 41.911 33.5179 41.9048 33.5362L41.8576 33.6777L41.7085 33.6789C41.6891 33.679 41.6811 33.7037 41.6967 33.7152L41.8167 33.8038L41.7717 33.9461C41.7659 33.9645 41.7868 33.9797 41.8026 33.9685L41.9239 33.8817L42.0453 33.9685C42.0611 33.9797 42.082 33.9645 42.0762 33.9461L42.0312 33.8038L42.1512 33.7152C42.1668 33.7037 42.1587 33.679 42.1394 33.6789L41.9903 33.6777ZM41.9431 34.8457L41.9903 34.9872L42.1394 34.9884C42.1587 34.9886 42.1668 35.0132 42.1512 35.0247L42.0312 35.1133L42.0762 35.2556C42.082 35.274 42.0611 35.2892 42.0453 35.278L41.9239 35.1913L41.8026 35.278C41.7868 35.2892 41.7659 35.274 41.7717 35.2556L41.8167 35.1133L41.6967 35.0247C41.6811 35.0132 41.6891 34.9886 41.7085 34.9884L41.8576 34.9872L41.9048 34.8457C41.911 34.8274 41.9369 34.8274 41.9431 34.8457ZM41.9903 36.1908L41.9431 36.0493C41.9369 36.031 41.911 36.031 41.9048 36.0493L41.8576 36.1908L41.7085 36.192C41.6891 36.1922 41.6811 36.2168 41.6967 36.2283L41.8167 36.3169L41.7717 36.4592C41.7659 36.4776 41.7868 36.4928 41.8026 36.4816L41.9239 36.3948L42.0453 36.4816C42.0611 36.4928 42.082 36.4776 42.0762 36.4592L42.0312 36.3169L42.1512 36.2283C42.1668 36.2168 42.1587 36.1922 42.1394 36.192L41.9903 36.1908ZM41.9431 37.1433L41.9903 37.2848L42.1394 37.286C42.1587 37.2861 42.1668 37.3108 42.1512 37.3223L42.0312 37.4109L42.0762 37.5532C42.082 37.5716 42.0611 37.5868 42.0453 37.5756L41.9239 37.4888L41.8026 37.5756C41.7868 37.5868 41.7659 37.5716 41.7717 37.5532L41.8167 37.4109L41.6967 37.3223C41.6811 37.3108 41.6891 37.2861 41.7085 37.286L41.8576 37.2848L41.9048 37.1433C41.911 37.125 41.9369 37.125 41.9431 37.1433ZM42.5636 33.0563L42.5164 32.9148C42.5103 32.8964 42.4843 32.8964 42.4781 32.9148L42.4309 33.0563L42.2818 33.0575C42.2624 33.0576 42.2544 33.0823 42.27 33.0937L42.39 33.1824L42.345 33.3246C42.3392 33.343 42.3602 33.3583 42.3759 33.347L42.4973 33.2603L42.6186 33.347C42.6344 33.3583 42.6553 33.343 42.6495 33.3246L42.6045 33.1824L42.7245 33.0937C42.7401 33.0823 42.7321 33.0576 42.7127 33.0575L42.5636 33.0563ZM42.5164 34.2235L42.5636 34.3651L42.7127 34.3662C42.7321 34.3664 42.7401 34.391 42.7245 34.4025L42.6045 34.4912L42.6495 34.6334C42.6553 34.6518 42.6344 34.6671 42.6186 34.6558L42.4973 34.5691L42.3759 34.6558C42.3602 34.6671 42.3392 34.6518 42.345 34.6334L42.39 34.4912L42.27 34.4025C42.2544 34.3911 42.2624 34.3664 42.2818 34.3662L42.4309 34.3651L42.4781 34.2235C42.4843 34.2052 42.5103 34.2052 42.5164 34.2235ZM42.5636 35.6094L42.5164 35.4679C42.5103 35.4495 42.4843 35.4495 42.4781 35.4679L42.4309 35.6094L42.2818 35.6106C42.2624 35.6107 42.2544 35.6354 42.27 35.6468L42.39 35.7355L42.345 35.8777C42.3392 35.8962 42.3602 35.9114 42.3759 35.9002L42.4973 35.8134L42.6186 35.9002C42.6344 35.9114 42.6553 35.8962 42.6495 35.8777L42.6045 35.7355L42.7245 35.6468C42.7401 35.6354 42.7321 35.6107 42.7127 35.6106L42.5636 35.6094ZM42.5164 36.5856L42.5636 36.7271L42.7127 36.7283C42.7321 36.7284 42.7401 36.7531 42.7245 36.7645L42.6045 36.8532L42.6495 36.9954C42.6553 37.0139 42.6344 37.0291 42.6186 37.0179L42.4973 36.9311L42.3759 37.0179C42.3602 37.0291 42.3392 37.0139 42.345 36.9954L42.39 36.8532L42.27 36.7645C42.2544 36.7531 42.2624 36.7284 42.2818 36.7283L42.4309 36.7271L42.4781 36.5856C42.4843 36.5672 42.5103 36.5672 42.5164 36.5856ZM43.1398 32.4971L43.0926 32.3555C43.0865 32.3372 43.0606 32.3372 43.0544 32.3555L43.0072 32.4971L42.858 32.4982C42.8387 32.4984 42.8307 32.523 42.8462 32.5345L42.9662 32.6231L42.9212 32.7654C42.9154 32.7838 42.9364 32.799 42.9521 32.7878L43.0735 32.701L43.1949 32.7878C43.2106 32.799 43.2316 32.7838 43.2257 32.7654L43.1807 32.6231L43.3008 32.5345C43.3163 32.523 43.3083 32.4984 43.289 32.4982L43.1398 32.4971ZM43.0926 33.5362L43.1398 33.6777L43.2889 33.6789C43.3083 33.679 43.3163 33.7037 43.3007 33.7152L43.1807 33.8038L43.2257 33.946C43.2316 33.9645 43.2106 33.9797 43.1949 33.9685L43.0735 33.8817L42.9521 33.9685C42.9364 33.9797 42.9154 33.9645 42.9212 33.946L42.9662 33.8038L42.8462 33.7152C42.8307 33.7037 42.8387 33.679 42.858 33.6789L43.0072 33.6777L43.0544 33.5362C43.0605 33.5179 43.0865 33.5179 43.0926 33.5362ZM43.1398 34.9872L43.0926 34.8457C43.0865 34.8274 43.0606 34.8274 43.0544 34.8457L43.0072 34.9872L42.858 34.9884C42.8387 34.9886 42.8307 35.0132 42.8462 35.0247L42.9662 35.1133L42.9212 35.2556C42.9154 35.274 42.9364 35.2892 42.9521 35.278L43.0735 35.1913L43.1949 35.278C43.2106 35.2892 43.2316 35.274 43.2257 35.2556L43.1807 35.1133L43.3008 35.0247C43.3163 35.0132 43.3083 34.9886 43.289 34.9884L43.1398 34.9872ZM43.0926 36.0493L43.1398 36.1908L43.289 36.192C43.3083 36.1922 43.3163 36.2168 43.3008 36.2283L43.1807 36.3169L43.2257 36.4592C43.2316 36.4776 43.2106 36.4928 43.1949 36.4816L43.0735 36.3948L42.9521 36.4816C42.9364 36.4928 42.9154 36.4776 42.9212 36.4592L42.9662 36.3169L42.8462 36.2283C42.8307 36.2168 42.8387 36.1922 42.858 36.192L43.0072 36.1908L43.0544 36.0493C43.0606 36.031 43.0865 36.031 43.0926 36.0493ZM43.1398 37.2848L43.0926 37.1433C43.0865 37.125 43.0606 37.125 43.0544 37.1433L43.0072 37.2848L42.858 37.286C42.8387 37.2861 42.8307 37.3108 42.8462 37.3223L42.9662 37.4109L42.9212 37.5532C42.9154 37.5716 42.9364 37.5868 42.9521 37.5756L43.0735 37.4888L43.1949 37.5756C43.2106 37.5868 43.2316 37.5716 43.2257 37.5532L43.1807 37.4109L43.3008 37.3223C43.3163 37.3108 43.3083 37.2861 43.289 37.286L43.1398 37.2848ZM43.6666 32.9148L43.7138 33.0563L43.863 33.0575C43.8823 33.0576 43.8903 33.0823 43.8748 33.0937L43.7548 33.1824L43.7998 33.3246C43.8056 33.343 43.7846 33.3583 43.7689 33.347L43.6475 33.2603L43.5261 33.347C43.5104 33.3583 43.4894 33.343 43.4953 33.3246L43.5402 33.1824L43.4202 33.0937C43.4047 33.0823 43.4127 33.0576 43.432 33.0575L43.5812 33.0563L43.6284 32.9148C43.6346 32.8964 43.6605 32.8964 43.6666 32.9148ZM43.7138 34.3651L43.6666 34.2235C43.6605 34.2052 43.6346 34.2052 43.6284 34.2235L43.5812 34.3651L43.432 34.3662C43.4127 34.3664 43.4047 34.3911 43.4202 34.4025L43.5402 34.4912L43.4953 34.6334C43.4894 34.6518 43.5104 34.6671 43.5261 34.6558L43.6475 34.5691L43.7689 34.6558C43.7846 34.6671 43.8056 34.6518 43.7998 34.6334L43.7548 34.4912L43.8748 34.4025C43.8903 34.391 43.8823 34.3664 43.863 34.3662L43.7138 34.3651ZM43.6666 35.4679L43.7138 35.6094L43.863 35.6106C43.8823 35.6107 43.8903 35.6354 43.8748 35.6468L43.7548 35.7355L43.7998 35.8777C43.8056 35.8962 43.7846 35.9114 43.7689 35.9002L43.6475 35.8134L43.5261 35.9002C43.5104 35.9114 43.4894 35.8962 43.4953 35.8777L43.5402 35.7355L43.4202 35.6468C43.4047 35.6354 43.4127 35.6107 43.432 35.6106L43.5812 35.6094L43.6284 35.4679C43.6346 35.4495 43.6605 35.4495 43.6666 35.4679ZM43.7138 36.7271L43.6666 36.5856C43.6605 36.5672 43.6346 36.5672 43.6284 36.5856L43.5812 36.7271L43.432 36.7283C43.4127 36.7284 43.4047 36.7531 43.4202 36.7645L43.5402 36.8532L43.4953 36.9954C43.4894 37.0139 43.5104 37.0291 43.5261 37.0179L43.6475 36.9311L43.7689 37.0179C43.7846 37.0291 43.8056 37.0139 43.7998 36.9954L43.7548 36.8532L43.8748 36.7645C43.8903 36.7531 43.8823 36.7284 43.863 36.7283L43.7138 36.7271ZM44.2414 32.3555L44.2886 32.4971L44.4378 32.4982C44.4571 32.4984 44.4651 32.523 44.4496 32.5345L44.3296 32.6231L44.3745 32.7654C44.3804 32.7838 44.3594 32.799 44.3437 32.7878L44.2223 32.701L44.1009 32.7878C44.0852 32.799 44.0642 32.7838 44.07 32.7654L44.115 32.6231L43.995 32.5345C43.9795 32.523 43.9875 32.4984 44.0068 32.4982L44.156 32.4971L44.2032 32.3555C44.2094 32.3372 44.2353 32.3372 44.2414 32.3555ZM44.2886 33.6777L44.2414 33.5362C44.2353 33.5179 44.2094 33.5179 44.2032 33.5362L44.156 33.6777L44.0068 33.6789C43.9875 33.679 43.9795 33.7037 43.995 33.7152L44.115 33.8038L44.07 33.9461C44.0642 33.9645 44.0852 33.9797 44.1009 33.9685L44.2223 33.8817L44.3437 33.9685C44.3594 33.9797 44.3804 33.9645 44.3745 33.9461L44.3296 33.8038L44.4496 33.7152C44.4651 33.7037 44.4571 33.679 44.4378 33.6789L44.2886 33.6777ZM44.2414 34.8457L44.2886 34.9872L44.4378 34.9884C44.4571 34.9886 44.4651 35.0132 44.4496 35.0247L44.3296 35.1133L44.3745 35.2556C44.3804 35.274 44.3594 35.2892 44.3437 35.278L44.2223 35.1913L44.1009 35.278C44.0852 35.2892 44.0642 35.274 44.07 35.2556L44.115 35.1133L43.995 35.0247C43.9795 35.0132 43.9875 34.9886 44.0068 34.9884L44.156 34.9872L44.2032 34.8457C44.2094 34.8274 44.2353 34.8274 44.2414 34.8457ZM44.2886 36.1908L44.2414 36.0493C44.2353 36.031 44.2094 36.031 44.2032 36.0493L44.156 36.1908L44.0068 36.192C43.9875 36.1922 43.9795 36.2168 43.995 36.2283L44.115 36.3169L44.07 36.4592C44.0642 36.4776 44.0852 36.4928 44.1009 36.4816L44.2223 36.3948L44.3437 36.4816C44.3594 36.4928 44.3804 36.4776 44.3745 36.4592L44.3296 36.3169L44.4496 36.2283C44.4651 36.2168 44.4571 36.1922 44.4378 36.192L44.2886 36.1908ZM44.2414 37.1433L44.2886 37.2848L44.4378 37.286C44.4571 37.2861 44.4651 37.3108 44.4496 37.3223L44.3296 37.4109L44.3745 37.5532C44.3804 37.5716 44.3594 37.5868 44.3437 37.5756L44.2223 37.4888L44.1009 37.5756C44.0852 37.5868 44.0642 37.5716 44.07 37.5532L44.115 37.4109L43.995 37.3223C43.9795 37.3108 43.9875 37.2861 44.0068 37.286L44.156 37.2848L44.2032 37.1433C44.2094 37.125 44.2353 37.125 44.2414 37.1433ZM44.8619 33.0563L44.8147 32.9148C44.8086 32.8964 44.7827 32.8964 44.7765 32.9148L44.7293 33.0563L44.5801 33.0575C44.5608 33.0576 44.5528 33.0823 44.5683 33.0937L44.6883 33.1824L44.6433 33.3246C44.6375 33.343 44.6585 33.3583 44.6742 33.347L44.7956 33.2603L44.917 33.347C44.9327 33.3583 44.9537 33.343 44.9478 33.3246L44.9028 33.1824L45.0229 33.0937C45.0384 33.0823 45.0304 33.0576 45.0111 33.0575L44.8619 33.0563ZM44.8147 34.2235L44.8619 34.3651L45.0111 34.3662C45.0304 34.3664 45.0384 34.391 45.0229 34.4025L44.9028 34.4912L44.9478 34.6334C44.9537 34.6518 44.9327 34.6671 44.917 34.6558L44.7956 34.5691L44.6742 34.6558C44.6585 34.6671 44.6375 34.6518 44.6433 34.6334L44.6883 34.4912L44.5683 34.4025C44.5528 34.3911 44.5608 34.3664 44.5801 34.3662L44.7293 34.3651L44.7765 34.2235C44.7827 34.2052 44.8086 34.2052 44.8147 34.2235ZM44.8619 35.6094L44.8147 35.4679C44.8086 35.4495 44.7827 35.4495 44.7765 35.4679L44.7293 35.6094L44.5801 35.6106C44.5608 35.6107 44.5528 35.6354 44.5683 35.6468L44.6883 35.7355L44.6433 35.8777C44.6375 35.8962 44.6585 35.9114 44.6742 35.9002L44.7956 35.8134L44.917 35.9002C44.9327 35.9114 44.9537 35.8962 44.9478 35.8777L44.9028 35.7355L45.0229 35.6468C45.0384 35.6354 45.0304 35.6107 45.0111 35.6106L44.8619 35.6094ZM44.8147 36.5856L44.8619 36.7271L45.0111 36.7283C45.0304 36.7284 45.0384 36.7531 45.0229 36.7645L44.9028 36.8532L44.9478 36.9954C44.9537 37.0139 44.9327 37.0291 44.917 37.0179L44.7956 36.9311L44.6742 37.0179C44.6585 37.0291 44.6375 37.0139 44.6433 36.9954L44.6883 36.8532L44.5683 36.7645C44.5528 36.7531 44.5608 36.7284 44.5801 36.7283L44.7293 36.7271L44.7765 36.5856C44.7827 36.5672 44.8086 36.5672 44.8147 36.5856ZM45.4374 32.4971L45.3902 32.3555C45.3841 32.3372 45.3582 32.3372 45.352 32.3555L45.3048 32.4971L45.1556 32.4982C45.1363 32.4984 45.1283 32.523 45.1438 32.5345L45.2638 32.6231L45.2188 32.7654C45.213 32.7838 45.234 32.799 45.2497 32.7878L45.3711 32.701L45.4925 32.7878C45.5082 32.799 45.5292 32.7838 45.5233 32.7654L45.4783 32.6231L45.5984 32.5345C45.6139 32.523 45.6059 32.4984 45.5866 32.4982L45.4374 32.4971ZM45.3902 33.5362L45.4374 33.6777L45.5866 33.6789C45.6059 33.679 45.6139 33.7037 45.5984 33.7152L45.4783 33.8038L45.5233 33.9461C45.5292 33.9645 45.5082 33.9797 45.4925 33.9685L45.3711 33.8817L45.2497 33.9685C45.234 33.9797 45.213 33.9645 45.2188 33.9461L45.2638 33.8038L45.1438 33.7152C45.1283 33.7037 45.1363 33.679 45.1556 33.6789L45.3048 33.6777L45.352 33.5362C45.3582 33.5179 45.3841 33.5179 45.3902 33.5362ZM45.4374 34.9872L45.3902 34.8457C45.3841 34.8274 45.3582 34.8274 45.352 34.8457L45.3048 34.9872L45.1556 34.9884C45.1363 34.9886 45.1283 35.0132 45.1438 35.0247L45.2638 35.1133L45.2188 35.2556C45.213 35.274 45.234 35.2892 45.2497 35.278L45.3711 35.1913L45.4925 35.278C45.5082 35.2892 45.5292 35.274 45.5233 35.2556L45.4783 35.1133L45.5984 35.0247C45.6139 35.0132 45.6059 34.9886 45.5866 34.9884L45.4374 34.9872ZM45.3902 36.0493L45.4374 36.1908L45.5866 36.192C45.6059 36.1922 45.6139 36.2168 45.5984 36.2283L45.4783 36.3169L45.5233 36.4592C45.5292 36.4776 45.5082 36.4928 45.4925 36.4816L45.3711 36.3948L45.2497 36.4816C45.234 36.4928 45.213 36.4776 45.2188 36.4592L45.2638 36.3169L45.1438 36.2283C45.1283 36.2168 45.1363 36.1922 45.1556 36.192L45.3048 36.1908L45.352 36.0493C45.3582 36.031 45.3841 36.031 45.3902 36.0493ZM45.4374 37.2848L45.3902 37.1433C45.3841 37.125 45.3582 37.125 45.352 37.1433L45.3048 37.2848L45.1556 37.286C45.1363 37.2861 45.1283 37.3108 45.1438 37.3223L45.2638 37.4109L45.2188 37.5532C45.213 37.5716 45.234 37.5868 45.2497 37.5756L45.3711 37.4888L45.4925 37.5756C45.5082 37.5868 45.5292 37.5716 45.5233 37.5532L45.4783 37.4109L45.5984 37.3223C45.6139 37.3108 45.6059 37.2861 45.5866 37.286L45.4374 37.2848Z" fill="#F5F5F5"/>
</g>
<path d="M63.9652 38.1135V39.5H59.373V38.1135H63.9652ZM59.9537 30.8726V39.5H58.1761V30.8726H59.9537ZM63.3668 34.3864V35.7374H59.373V34.3864H63.3668ZM63.9593 30.8726V32.2651H59.373V30.8726H63.9593ZM69.7662 30.8726H71.5379V36.5728C71.5379 37.2365 71.3957 37.7955 71.1113 38.2497C70.8308 38.704 70.4417 39.0457 69.944 39.2748C69.4502 39.504 68.8814 39.6185 68.2375 39.6185C67.5936 39.6185 67.0208 39.504 66.5191 39.2748C66.0214 39.0457 65.6303 38.704 65.3459 38.2497C65.0654 37.7955 64.9252 37.2365 64.9252 36.5728V30.8726H66.7028V36.5728C66.7028 36.96 66.764 37.276 66.8865 37.5209C67.0089 37.7658 67.1847 37.9456 67.4138 38.0601C67.6469 38.1747 67.9214 38.232 68.2375 38.232C68.5614 38.232 68.8359 38.1747 69.0611 38.0601C69.2902 37.9456 69.464 37.7658 69.5825 37.5209C69.705 37.276 69.7662 36.96 69.7662 36.5728V30.8726ZM73.0015 30.8726H76.219C76.8787 30.8726 77.4456 30.9713 77.9196 31.1689C78.3976 31.3664 78.765 31.6587 79.0217 32.0458C79.2785 32.4329 79.4069 32.909 79.4069 33.4738C79.4069 33.936 79.3279 34.333 79.1699 34.6649C79.0158 34.9927 78.7966 35.2673 78.5121 35.4885C78.2317 35.7058 77.9018 35.8796 77.5226 36.0099L76.9597 36.3062H74.1629L74.151 34.9196H76.2309C76.5429 34.9196 76.8017 34.8643 77.0071 34.7537C77.2125 34.6431 77.3666 34.4891 77.4693 34.2916C77.5759 34.094 77.6293 33.8649 77.6293 33.6042C77.6293 33.3277 77.5779 33.0887 77.4752 32.8872C77.3725 32.6858 77.2165 32.5317 77.0071 32.425C76.7977 32.3184 76.535 32.2651 76.219 32.2651H74.7791V39.5H73.0015V30.8726ZM77.8248 39.5L75.8576 35.6544L77.7359 35.6425L79.7269 39.417V39.5H77.8248ZM84.3546 30.8726L81.1904 40.2407H79.9224L83.0866 30.8726H84.3546ZM90.043 30.8726H91.8147V36.5728C91.8147 37.2365 91.6725 37.7955 91.3881 38.2497C91.1076 38.704 90.7185 39.0457 90.2208 39.2748C89.727 39.504 89.1582 39.6185 88.5143 39.6185C87.8704 39.6185 87.2976 39.504 86.7959 39.2748C86.2982 39.0457 85.9071 38.704 85.6227 38.2497C85.3422 37.7955 85.2019 37.2365 85.2019 36.5728V30.8726H86.9796V36.5728C86.9796 36.96 87.0408 37.276 87.1633 37.5209C87.2857 37.7658 87.4615 37.9456 87.6906 38.0601C87.9237 38.1747 88.1982 38.232 88.5143 38.232C88.8382 38.232 89.1127 38.1747 89.3379 38.0601C89.567 37.9456 89.7408 37.7658 89.8593 37.5209C89.9818 37.276 90.043 36.96 90.043 36.5728V30.8726ZM97.7698 37.2424C97.7698 37.0884 97.7461 36.9501 97.6987 36.8276C97.6552 36.7012 97.5723 36.5867 97.4498 36.484C97.3273 36.3773 97.1555 36.2726 96.9343 36.1699C96.7131 36.0672 96.4267 35.9605 96.0751 35.8499C95.684 35.7235 95.3127 35.5813 94.9611 35.4233C94.6135 35.2653 94.3054 35.0816 94.0368 34.8722C93.7721 34.6589 93.5627 34.412 93.4087 34.1316C93.2585 33.8511 93.1835 33.5252 93.1835 33.1539C93.1835 32.7944 93.2625 32.4685 93.4205 32.1762C93.5785 31.8799 93.7997 31.6271 94.0842 31.4177C94.3686 31.2044 94.7044 31.0405 95.0915 30.9259C95.4826 30.8114 95.9112 30.7541 96.3773 30.7541C97.0133 30.7541 97.5683 30.8686 98.0423 31.0978C98.5164 31.3269 98.8838 31.6409 99.1445 32.0399C99.4091 32.4389 99.5415 32.8951 99.5415 33.4087H97.7757C97.7757 33.1558 97.7224 32.9346 97.6157 32.745C97.513 32.5515 97.355 32.3994 97.1417 32.2888C96.9323 32.1782 96.6676 32.1228 96.3477 32.1228C96.0395 32.1228 95.7828 32.1703 95.5774 32.2651C95.3719 32.3559 95.2179 32.4803 95.1152 32.6384C95.0125 32.7924 94.9611 32.9662 94.9611 33.1598C94.9611 33.306 94.9967 33.4383 95.0678 33.5568C95.1428 33.6753 95.2534 33.7859 95.3996 33.8886C95.5458 33.9913 95.7255 34.0881 95.9388 34.179C96.1521 34.2698 96.399 34.3587 96.6795 34.4456C97.1496 34.5878 97.5624 34.7478 97.9179 34.9256C98.2774 35.1033 98.5776 35.3028 98.8186 35.524C99.0595 35.7453 99.2413 35.9961 99.3637 36.2766C99.4862 36.557 99.5474 36.875 99.5474 37.2306C99.5474 37.6058 99.4743 37.9416 99.3282 38.2379C99.182 38.5342 98.9707 38.785 98.6941 38.9904C98.4176 39.1958 98.0878 39.3519 97.7046 39.4585C97.3214 39.5652 96.8928 39.6185 96.4188 39.6185C95.9921 39.6185 95.5714 39.5632 95.1567 39.4526C94.7419 39.338 94.3646 39.1662 94.0249 38.9371C93.6891 38.708 93.4205 38.4156 93.219 38.0601C93.0176 37.7046 92.9168 37.2839 92.9168 36.798H94.7004C94.7004 37.0666 94.7419 37.2938 94.8248 37.4794C94.9078 37.6651 95.0243 37.8152 95.1744 37.9298C95.3285 38.0443 95.5102 38.1273 95.7196 38.1786C95.9329 38.23 96.166 38.2557 96.4188 38.2557C96.7269 38.2557 96.9797 38.2122 97.1772 38.1253C97.3787 38.0384 97.5268 37.9179 97.6216 37.7639C97.7204 37.6098 97.7698 37.436 97.7698 37.2424ZM103.405 39.5H101.526L101.538 38.1135H103.405C103.871 38.1135 104.264 38.0088 104.584 37.7994C104.904 37.5861 105.145 37.276 105.307 36.8691C105.473 36.4622 105.556 35.9704 105.556 35.3937V34.973C105.556 34.5305 105.508 34.1414 105.414 33.8057C105.323 33.4699 105.186 33.1874 105.005 32.9583C104.823 32.7292 104.6 32.5574 104.335 32.4428C104.07 32.3243 103.766 32.2651 103.423 32.2651H101.491V30.8726H103.423C103.999 30.8726 104.527 30.9713 105.005 31.1689C105.487 31.3624 105.903 31.6409 106.255 32.0043C106.607 32.3678 106.877 32.8023 107.067 33.3079C107.26 33.8096 107.357 34.3686 107.357 34.9848V35.3937C107.357 36.006 107.26 36.5649 107.067 37.0706C106.877 37.5762 106.607 38.0107 106.255 38.3742C105.907 38.7336 105.491 39.0121 105.005 39.2097C104.523 39.4032 103.989 39.5 103.405 39.5ZM102.534 30.8726V39.5H100.756V30.8726H102.534Z" fill="white"/>
<path d="M21 25C21 20.5817 24.5817 17 29 17H168C172.418 17 176 20.5817 176 25V47C176 51.4183 172.418 55 168 55H29C24.5817 55 21 51.4183 21 47V25Z" fill="#272930"/>
<g clip-path="url(#clip2_291_26964)">
<path fill-rule="evenodd" clip-rule="evenodd" d="M35.445 29.1836H49.0299C49.3175 29.521 49.5388 29.9166 49.6734 30.3504H34.8015C34.9361 29.9166 35.1574 29.521 35.445 29.1836ZM34.6521 31.5175H49.8211V32.6842H34.6521V31.5175ZM49.8211 33.8513H34.6521V35.018H49.8211V33.8513ZM34.6521 36.1845H49.8211V37.3512H34.6521V36.1845ZM49.8211 38.5184H34.6521V39.6851H49.8211V38.5184ZM34.8015 40.8522H49.6734C49.5388 41.2861 49.3175 41.6817 49.0298 42.019H35.445C35.1574 41.6817 34.9361 41.2861 34.8015 40.8522Z" fill="#F5F5F5"/>
<path fill-rule="evenodd" clip-rule="evenodd" d="M46.503 28.0166H37.9704C36.9587 28.0166 36.0529 28.4695 35.4443 29.1834H49.0291C48.4205 28.4695 47.5147 28.0166 46.503 28.0166ZM49.8213 32.6836H34.6523V33.8503H49.8213V32.6836ZM49.6728 30.3505C49.7693 30.6615 49.8213 30.9922 49.8213 31.335V31.5173H34.6523V31.335C34.6523 30.9922 34.7043 30.6615 34.8008 30.3505H49.6728ZM49.8213 35.0175H34.6523V36.1842H49.8213V35.0175ZM49.8213 39.6852V39.8676C49.8213 40.2104 49.7693 40.541 49.6728 40.8521H34.8008C34.7043 40.541 34.6523 40.2104 34.6523 39.8676V39.6852H49.8213ZM49.0291 42.0184H35.4443C36.0529 42.7323 36.9587 43.1852 37.9704 43.1852H46.503C47.5147 43.1852 48.4205 42.7323 49.0291 42.0184ZM34.6523 37.3514H49.8213V38.5181H34.6523V37.3514Z" fill="#FA4051"/>
<path d="M42.7425 28.0166H37.939C36.1238 28.0166 34.6523 29.5022 34.6523 31.3348V36.1844H42.7425V28.0166Z" fill="#1939C9"/>
<path fill-rule="evenodd" clip-rule="evenodd" d="M37.2945 28.7468L37.3574 28.9355L37.5563 28.9371C37.582 28.9373 37.5927 28.9702 37.572 28.9854L37.412 29.1036L37.472 29.2933C37.4797 29.3178 37.4518 29.3381 37.4308 29.3232L37.269 29.2075L37.1071 29.3232C37.0862 29.3382 37.0582 29.3178 37.066 29.2933L37.126 29.1036L36.966 28.9854C36.9453 28.9702 36.9559 28.9373 36.9817 28.9371L37.1806 28.9355L37.2435 28.7468C37.2517 28.7224 37.2863 28.7224 37.2945 28.7468ZM35.5318 29.2933C35.524 29.3178 35.552 29.3381 35.573 29.3232L35.7348 29.2075L35.8967 29.3232C35.9176 29.3381 35.9456 29.3178 35.9378 29.2933L35.8778 29.1036L36.0379 28.9854C36.0586 28.9701 36.0479 28.9372 36.0221 28.937L35.8232 28.9355L35.7893 28.8337C35.704 28.908 35.6227 28.9867 35.5454 29.0693L35.5919 29.1036L35.5318 29.2933ZM35.7606 30.3208L35.8235 30.5095L36.0224 30.5111C36.0482 30.5113 36.0589 30.5441 36.0381 30.5594L35.8781 30.6776L35.9381 30.8673C35.9459 30.8918 35.9179 30.9121 35.8969 30.8972L35.7351 30.7815L35.5732 30.8972C35.5523 30.9122 35.5243 30.8918 35.5321 30.8673L35.5921 30.6776L35.432 30.5594C35.4113 30.5441 35.422 30.5113 35.4477 30.5111L35.6467 30.5095L35.7096 30.3208C35.7179 30.2963 35.7524 30.2963 35.7606 30.3208ZM35.8235 32.256L35.7606 32.0673C35.7524 32.0429 35.7179 32.0429 35.7096 32.0673L35.6467 32.256L35.4477 32.2576C35.422 32.2578 35.4113 32.2907 35.432 32.3059L35.5921 32.4241L35.5321 32.6138C35.5243 32.6384 35.5523 32.6587 35.5732 32.6437L35.7351 32.528L35.8969 32.6437C35.9179 32.6587 35.9459 32.6384 35.9381 32.6138L35.8781 32.4241L36.0381 32.3059C36.0589 32.2906 36.0482 32.2578 36.0224 32.2576L35.8235 32.256ZM35.7606 33.6716L35.8235 33.8603L36.0224 33.8619C36.0482 33.8621 36.0589 33.8949 36.0381 33.9103L35.8781 34.0284L35.9381 34.2181C35.9459 34.2427 35.9179 34.263 35.8969 34.248L35.7351 34.1323L35.5732 34.248C35.5523 34.263 35.5243 34.2427 35.5321 34.2181L35.5921 34.0284L35.432 33.9103C35.4113 33.895 35.422 33.8621 35.4477 33.8619L35.6467 33.8603L35.7096 33.6716C35.7179 33.6472 35.7524 33.6472 35.7606 33.6716ZM35.8235 35.3195L35.7606 35.1307C35.7524 35.1063 35.7179 35.1063 35.7096 35.1307L35.6467 35.3195L35.4477 35.321C35.422 35.3212 35.4113 35.3541 35.432 35.3694L35.5921 35.4876L35.5321 35.6772C35.5243 35.7018 35.5523 35.7221 35.5732 35.7071L35.7351 35.5915L35.8969 35.7071C35.9179 35.7221 35.9459 35.7018 35.9381 35.6772L35.8781 35.4876L36.0381 35.3694C36.0589 35.3541 36.0482 35.3212 36.0224 35.321L35.8235 35.3195ZM36.5256 29.492L36.5885 29.6807L36.7874 29.6822C36.8132 29.6824 36.8239 29.7153 36.8032 29.7306L36.6431 29.8488L36.7031 30.0384C36.7109 30.063 36.6829 30.0833 36.6619 30.0683L36.5002 29.9526L36.3383 30.0683C36.3174 30.0833 36.2894 30.063 36.2972 30.0384L36.3572 29.8488L36.1971 29.7306C36.1764 29.7153 36.1871 29.6824 36.2128 29.6822L36.4118 29.6807L36.4747 29.492C36.4829 29.4675 36.5174 29.4675 36.5256 29.492ZM36.5886 31.4265L36.5256 31.2377C36.5175 31.2133 36.4829 31.2133 36.4747 31.2377L36.4118 31.4265L36.2128 31.428C36.1871 31.4282 36.1764 31.4611 36.1971 31.4764L36.3572 31.5946L36.2972 31.7842C36.2894 31.8088 36.3174 31.8291 36.3383 31.8141L36.5002 31.6984L36.662 31.8141C36.683 31.8291 36.7109 31.8088 36.7032 31.7842L36.6432 31.5946L36.8032 31.4764C36.8239 31.4611 36.8132 31.4282 36.7875 31.428L36.5886 31.4265ZM36.5256 32.8968L36.5886 33.0856L36.7875 33.0871C36.8132 33.0873 36.8239 33.1202 36.8032 33.1355L36.6432 33.2537L36.7032 33.4433C36.7109 33.4679 36.683 33.4882 36.662 33.4732L36.5002 33.3575L36.3383 33.4732C36.3174 33.4882 36.2894 33.4679 36.2972 33.4433L36.3572 33.2537L36.1971 33.1355C36.1764 33.1202 36.1871 33.0873 36.2128 33.0871L36.4118 33.0856L36.4747 32.8968C36.4829 32.8724 36.5175 32.8724 36.5256 32.8968ZM36.5886 34.5758L36.5256 34.3871C36.5175 34.3627 36.4829 34.3627 36.4747 34.3871L36.4118 34.5758L36.2128 34.5774C36.1871 34.5776 36.1764 34.6105 36.1971 34.6258L36.3572 34.7439L36.2972 34.9336C36.2894 34.9582 36.3174 34.9785 36.3383 34.9635L36.5002 34.8478L36.662 34.9635C36.683 34.9785 36.7109 34.9582 36.7032 34.9336L36.6432 34.7439L36.8032 34.6258C36.8239 34.6104 36.8132 34.5776 36.7875 34.5774L36.5886 34.5758ZM37.3574 30.5095L37.2945 30.3208C37.2863 30.2963 37.2517 30.2963 37.2435 30.3208L37.1806 30.5095L36.9817 30.5111C36.9559 30.5113 36.9453 30.5441 36.966 30.5594L37.126 30.6776L37.066 30.8673C37.0582 30.8918 37.0862 30.9122 37.1071 30.8972L37.269 30.7815L37.4308 30.8972C37.4518 30.9121 37.4797 30.8918 37.472 30.8673L37.412 30.6776L37.572 30.5594C37.5927 30.5441 37.582 30.5113 37.5563 30.5111L37.3574 30.5095ZM37.2945 32.0673L37.3574 32.256L37.5563 32.2576C37.582 32.2578 37.5927 32.2906 37.572 32.3059L37.412 32.4241L37.472 32.6138C37.4797 32.6384 37.4518 32.6587 37.4308 32.6437L37.269 32.528L37.1071 32.6437C37.0862 32.6587 37.0582 32.6384 37.066 32.6138L37.126 32.4241L36.966 32.3059C36.9453 32.2907 36.9559 32.2578 36.9817 32.2576L37.1806 32.256L37.2435 32.0673C37.2517 32.0429 37.2863 32.0429 37.2945 32.0673ZM37.3574 33.8603L37.2945 33.6716C37.2863 33.6472 37.2517 33.6472 37.2435 33.6716L37.1806 33.8603L36.9817 33.8619C36.9559 33.8621 36.9453 33.895 36.966 33.9103L37.126 34.0284L37.066 34.2181C37.0582 34.2427 37.0862 34.263 37.1071 34.248L37.269 34.1323L37.4308 34.248C37.4518 34.263 37.4797 34.2427 37.472 34.2181L37.412 34.0284L37.572 33.9103C37.5927 33.8949 37.582 33.8621 37.5563 33.8619L37.3574 33.8603ZM37.2945 35.1307L37.3574 35.3195L37.5563 35.321C37.582 35.3212 37.5927 35.3541 37.572 35.3694L37.412 35.4876L37.472 35.6772C37.4797 35.7018 37.4518 35.7221 37.4308 35.7071L37.269 35.5915L37.1071 35.7071C37.0862 35.7221 37.0582 35.7018 37.066 35.6772L37.126 35.4876L36.966 35.3694C36.9453 35.3541 36.9559 35.3212 36.9817 35.321L37.1806 35.3195L37.2435 35.1307C37.2517 35.1063 37.2863 35.1063 37.2945 35.1307ZM38.1213 29.6807L38.0584 29.492C38.0502 29.4675 38.0157 29.4675 38.0074 29.492L37.9445 29.6807L37.7456 29.6822C37.7198 29.6824 37.7091 29.7153 37.7298 29.7306L37.8899 29.8488L37.8299 30.0384C37.8221 30.063 37.8501 30.0833 37.871 30.0683L38.0329 29.9526L38.1947 30.0683C38.2157 30.0833 38.2436 30.063 38.2359 30.0384L38.1759 29.8488L38.3359 29.7306C38.3566 29.7153 38.3459 29.6824 38.3202 29.6822L38.1213 29.6807ZM38.0584 31.2377L38.1213 31.4265L38.3202 31.428C38.3459 31.4282 38.3566 31.4611 38.3359 31.4764L38.1759 31.5946L38.2359 31.7842C38.2436 31.8088 38.2157 31.8291 38.1947 31.8141L38.0329 31.6984L37.871 31.8141C37.8501 31.8291 37.8221 31.8088 37.8299 31.7842L37.8899 31.5946L37.7298 31.4764C37.7091 31.4611 37.7198 31.4282 37.7456 31.428L37.9445 31.4265L38.0074 31.2377C38.0157 31.2133 38.0502 31.2133 38.0584 31.2377ZM38.1213 33.0856L38.0584 32.8968C38.0502 32.8724 38.0157 32.8724 38.0074 32.8968L37.9445 33.0856L37.7456 33.0871C37.7198 33.0873 37.7091 33.1202 37.7298 33.1355L37.8899 33.2537L37.8299 33.4433C37.8221 33.4679 37.8501 33.4882 37.871 33.4732L38.0329 33.3575L38.1947 33.4732C38.2157 33.4882 38.2436 33.4679 38.2359 33.4433L38.1759 33.2537L38.3359 33.1355C38.3566 33.1202 38.3459 33.0873 38.3202 33.0871L38.1213 33.0856ZM38.0584 34.3871L38.1213 34.5758L38.3202 34.5774C38.3459 34.5776 38.3566 34.6104 38.3359 34.6258L38.1759 34.7439L38.2359 34.9336C38.2436 34.9582 38.2157 34.9785 38.1947 34.9635L38.0329 34.8478L37.871 34.9635C37.8501 34.9785 37.8221 34.9582 37.8299 34.9336L37.8899 34.7439L37.7298 34.6258C37.7091 34.6105 37.7198 34.5776 37.7456 34.5774L37.9445 34.5758L38.0074 34.3871C38.0157 34.3627 38.0502 34.3627 38.0584 34.3871ZM38.8901 28.9355L38.8272 28.7468C38.819 28.7224 38.7845 28.7224 38.7762 28.7468L38.7133 28.9355L38.5144 28.9371C38.4886 28.9373 38.4779 28.9702 38.4987 28.9854L38.6587 29.1036L38.5987 29.2933C38.5909 29.3178 38.6189 29.3382 38.6398 29.3232L38.8017 29.2075L38.9635 29.3232C38.9845 29.3381 39.0124 29.3178 39.0047 29.2933L38.9447 29.1036L39.1047 28.9854C39.1254 28.9702 39.1147 28.9373 39.089 28.9371L38.8901 28.9355ZM38.8271 30.3208L38.8901 30.5095L39.089 30.5111C39.1147 30.5113 39.1254 30.5441 39.1047 30.5594L38.9447 30.6776L39.0047 30.8673C39.0124 30.8918 38.9845 30.9121 38.9635 30.8972L38.8017 30.7815L38.6398 30.8972C38.6189 30.9121 38.5909 30.8918 38.5987 30.8673L38.6587 30.6776L38.4987 30.5594C38.4779 30.5441 38.4886 30.5112 38.5144 30.511L38.7133 30.5095L38.7762 30.3208C38.7844 30.2963 38.819 30.2963 38.8271 30.3208ZM38.8901 32.256L38.8272 32.0673C38.819 32.0429 38.7845 32.0429 38.7762 32.0673L38.7133 32.256L38.5144 32.2576C38.4886 32.2578 38.4779 32.2907 38.4987 32.3059L38.6587 32.4241L38.5987 32.6138C38.5909 32.6384 38.6189 32.6587 38.6398 32.6437L38.8017 32.528L38.9635 32.6437C38.9845 32.6587 39.0124 32.6384 39.0047 32.6138L38.9447 32.4241L39.1047 32.3059C39.1254 32.2906 39.1147 32.2578 39.089 32.2576L38.8901 32.256ZM38.8272 33.6716L38.8901 33.8603L39.089 33.8619C39.1147 33.8621 39.1254 33.8949 39.1047 33.9103L38.9447 34.0284L39.0047 34.2181C39.0124 34.2427 38.9845 34.263 38.9635 34.248L38.8017 34.1323L38.6398 34.248C38.6189 34.263 38.5909 34.2427 38.5987 34.2181L38.6587 34.0284L38.4987 33.9103C38.4779 33.895 38.4886 33.8621 38.5144 33.8619L38.7133 33.8603L38.7762 33.6716C38.7845 33.6472 38.819 33.6472 38.8272 33.6716ZM38.8901 35.3195L38.8272 35.1307C38.819 35.1063 38.7845 35.1063 38.7762 35.1307L38.7133 35.3195L38.5144 35.321C38.4886 35.3212 38.4779 35.3541 38.4987 35.3694L38.6587 35.4876L38.5987 35.6772C38.5909 35.7018 38.6189 35.7221 38.6398 35.7071L38.8017 35.5915L38.9635 35.7071C38.9845 35.7221 39.0124 35.7018 39.0047 35.6772L38.9447 35.4876L39.1047 35.3694C39.1254 35.3541 39.1147 35.3212 39.089 35.321L38.8901 35.3195ZM39.5923 29.492L39.6552 29.6807L39.8541 29.6822C39.8799 29.6824 39.8906 29.7153 39.8698 29.7306L39.7098 29.8488L39.7698 30.0384C39.7775 30.063 39.7496 30.0833 39.7286 30.0683L39.5668 29.9526L39.4049 30.0683C39.384 30.0833 39.356 30.063 39.3638 30.0384L39.4238 29.8488L39.2638 29.7306C39.243 29.7153 39.2537 29.6824 39.2795 29.6822L39.4784 29.6807L39.5413 29.492C39.5496 29.4675 39.5841 29.4675 39.5923 29.492ZM39.6552 31.4265L39.5923 31.2377C39.5841 31.2133 39.5496 31.2133 39.5413 31.2377L39.4784 31.4265L39.2795 31.428C39.2537 31.4282 39.243 31.4611 39.2638 31.4764L39.4238 31.5946L39.3638 31.7842C39.356 31.8088 39.384 31.8291 39.4049 31.8141L39.5668 31.6984L39.7286 31.8141C39.7496 31.8291 39.7775 31.8088 39.7698 31.7842L39.7098 31.5946L39.8698 31.4764C39.8906 31.4611 39.8799 31.4282 39.8541 31.428L39.6552 31.4265ZM39.5923 32.8968L39.6552 33.0856L39.8541 33.0871C39.8799 33.0873 39.8906 33.1202 39.8698 33.1355L39.7098 33.2537L39.7698 33.4433C39.7775 33.4679 39.7496 33.4882 39.7286 33.4732L39.5668 33.3575L39.4049 33.4732C39.384 33.4882 39.356 33.4679 39.3638 33.4433L39.4238 33.2537L39.2638 33.1355C39.243 33.1202 39.2537 33.0873 39.2795 33.0871L39.4784 33.0856L39.5413 32.8968C39.5496 32.8724 39.5841 32.8724 39.5923 32.8968ZM39.6552 34.5758L39.5923 34.3871C39.5841 34.3627 39.5496 34.3627 39.5413 34.3871L39.4784 34.5758L39.2795 34.5774C39.2537 34.5776 39.243 34.6105 39.2638 34.6258L39.4238 34.7439L39.3638 34.9336C39.356 34.9582 39.384 34.9785 39.4049 34.9635L39.5668 34.8478L39.7286 34.9635C39.7496 34.9785 39.7775 34.9582 39.7698 34.9336L39.7098 34.7439L39.8698 34.6258C39.8906 34.6104 39.8799 34.5776 39.8541 34.5774L39.6552 34.5758ZM40.3587 28.7468L40.4216 28.9355L40.6205 28.9371C40.6462 28.9373 40.6569 28.9702 40.6362 28.9854L40.4762 29.1036L40.5362 29.2933C40.5439 29.3178 40.5159 29.3381 40.495 29.3232L40.3332 29.2075L40.1713 29.3232C40.1504 29.3382 40.1224 29.3178 40.1301 29.2933L40.1901 29.1036L40.0301 28.9854C40.0094 28.9702 40.0201 28.9373 40.0458 28.9371L40.2447 28.9355L40.3077 28.7468C40.316 28.7224 40.3505 28.7224 40.3587 28.7468ZM40.4216 30.5095L40.3587 30.3208C40.3505 30.2963 40.316 30.2963 40.3077 30.3208L40.2447 30.5095L40.0458 30.5111C40.0201 30.5113 40.0094 30.5441 40.0301 30.5594L40.1901 30.6776L40.1301 30.8673C40.1224 30.8918 40.1504 30.9122 40.1713 30.8972L40.3332 30.7815L40.495 30.8972C40.5159 30.9121 40.5439 30.8918 40.5362 30.8673L40.4762 30.6776L40.6362 30.5594C40.6569 30.5441 40.6462 30.5113 40.6205 30.5111L40.4216 30.5095ZM40.3587 32.0673L40.4216 32.256L40.6205 32.2576C40.6462 32.2578 40.6569 32.2906 40.6362 32.3059L40.4762 32.4241L40.5362 32.6138C40.5439 32.6384 40.5159 32.6587 40.495 32.6437L40.3332 32.528L40.1713 32.6437C40.1504 32.6587 40.1224 32.6384 40.1301 32.6138L40.1901 32.4241L40.0301 32.3059C40.0094 32.2907 40.0201 32.2578 40.0458 32.2576L40.2447 32.256L40.3077 32.0673C40.316 32.0429 40.3505 32.0429 40.3587 32.0673ZM40.4216 33.8603L40.3587 33.6716C40.3505 33.6472 40.316 33.6472 40.3077 33.6716L40.2447 33.8603L40.0458 33.8619C40.0201 33.8621 40.0094 33.895 40.0301 33.9103L40.1901 34.0284L40.1301 34.2181C40.1224 34.2427 40.1504 34.263 40.1713 34.248L40.3332 34.1323L40.495 34.248C40.5159 34.263 40.5439 34.2427 40.5362 34.2181L40.4762 34.0284L40.6362 33.9103C40.6569 33.8949 40.6462 33.8621 40.6205 33.8619L40.4216 33.8603ZM40.3587 35.1307L40.4216 35.3195L40.6205 35.321C40.6462 35.3212 40.6569 35.3541 40.6362 35.3694L40.4762 35.4876L40.5362 35.6772C40.5439 35.7018 40.5159 35.7221 40.495 35.7071L40.3332 35.5915L40.1713 35.7071C40.1504 35.7221 40.1224 35.7018 40.1301 35.6772L40.1901 35.4876L40.0301 35.3694C40.0094 35.3541 40.0201 35.3212 40.0458 35.321L40.2447 35.3195L40.3077 35.1307C40.316 35.1063 40.3505 35.1063 40.3587 35.1307ZM41.1859 29.6807L41.123 29.492C41.1148 29.4675 41.0803 29.4675 41.072 29.492L41.0091 29.6807L40.8102 29.6822C40.7844 29.6824 40.7738 29.7153 40.7945 29.7306L40.9545 29.8488L40.8945 30.0384C40.8868 30.063 40.9147 30.0833 40.9357 30.0683L41.0975 29.9526L41.2594 30.0683C41.2803 30.0833 41.3083 30.063 41.3005 30.0384L41.2405 29.8488L41.4006 29.7306C41.4213 29.7153 41.4106 29.6824 41.3849 29.6822L41.1859 29.6807ZM41.123 31.2377L41.1859 31.4265L41.3849 31.428C41.4106 31.4282 41.4213 31.4611 41.4006 31.4764L41.2405 31.5946L41.3005 31.7842C41.3083 31.8088 41.2803 31.8291 41.2594 31.8141L41.0975 31.6984L40.9357 31.8141C40.9147 31.8291 40.8868 31.8088 40.8945 31.7842L40.9545 31.5946L40.7945 31.4764C40.7738 31.4611 40.7844 31.4282 40.8102 31.428L41.0091 31.4265L41.072 31.2377C41.0803 31.2133 41.1148 31.2133 41.123 31.2377ZM41.1859 33.0856L41.123 32.8968C41.1148 32.8724 41.0803 32.8724 41.072 32.8968L41.0091 33.0856L40.8102 33.0871C40.7844 33.0873 40.7738 33.1202 40.7945 33.1355L40.9545 33.2537L40.8945 33.4433C40.8868 33.4679 40.9147 33.4882 40.9357 33.4732L41.0975 33.3575L41.2594 33.4732C41.2803 33.4882 41.3083 33.4679 41.3005 33.4433L41.2405 33.2537L41.4006 33.1355C41.4213 33.1202 41.4106 33.0873 41.3849 33.0871L41.1859 33.0856ZM41.123 34.3871L41.1859 34.5758L41.3849 34.5774C41.4106 34.5776 41.4213 34.6104 41.4006 34.6258L41.2405 34.7439L41.3005 34.9336C41.3083 34.9582 41.2803 34.9785 41.2594 34.9635L41.0975 34.8478L40.9357 34.9635C40.9147 34.9785 40.8868 34.9582 40.8945 34.9336L40.9545 34.7439L40.7945 34.6258C40.7738 34.6105 40.7844 34.5776 40.8102 34.5774L41.0091 34.5758L41.072 34.3871C41.0803 34.3627 41.1148 34.3627 41.123 34.3871ZM41.9531 28.9355L41.8902 28.7468C41.882 28.7224 41.8475 28.7224 41.8392 28.7468L41.7763 28.9355L41.5773 28.9371C41.5516 28.9373 41.5409 28.9702 41.5616 28.9854L41.7217 29.1036L41.6617 29.2933C41.6539 29.3178 41.6819 29.3382 41.7028 29.3232L41.8647 29.2075L42.0265 29.3232C42.0475 29.3381 42.0755 29.3178 42.0677 29.2933L42.0077 29.1036L42.1677 28.9854C42.1885 28.9702 42.1778 28.9373 42.152 28.9371L41.9531 28.9355ZM41.8902 30.3208L41.9531 30.5095L42.152 30.5111C42.1778 30.5113 42.1885 30.5441 42.1677 30.5594L42.0077 30.6776L42.0677 30.8673C42.0755 30.8918 42.0475 30.9121 42.0265 30.8972L41.8647 30.7815L41.7028 30.8972C41.6819 30.9122 41.6539 30.8918 41.6617 30.8673L41.7217 30.6776L41.5616 30.5594C41.5409 30.5441 41.5516 30.5113 41.5773 30.5111L41.7763 30.5095L41.8392 30.3208C41.8475 30.2963 41.882 30.2963 41.8902 30.3208ZM41.9531 32.256L41.8902 32.0673C41.882 32.0429 41.8475 32.0429 41.8392 32.0673L41.7763 32.256L41.5773 32.2576C41.5516 32.2578 41.5409 32.2907 41.5616 32.3059L41.7217 32.4241L41.6617 32.6138C41.6539 32.6384 41.6819 32.6587 41.7028 32.6437L41.8647 32.528L42.0265 32.6437C42.0475 32.6587 42.0755 32.6384 42.0677 32.6138L42.0077 32.4241L42.1677 32.3059C42.1885 32.2906 42.1778 32.2578 42.152 32.2576L41.9531 32.256ZM41.8902 33.6716L41.9531 33.8603L42.152 33.8619C42.1778 33.8621 42.1885 33.8949 42.1677 33.9103L42.0077 34.0284L42.0677 34.2181C42.0755 34.2427 42.0475 34.263 42.0265 34.248L41.8647 34.1323L41.7028 34.248C41.6819 34.263 41.6539 34.2427 41.6617 34.2181L41.7217 34.0284L41.5616 33.9103C41.5409 33.895 41.5516 33.8621 41.5773 33.8619L41.7763 33.8603L41.8392 33.6716C41.8475 33.6472 41.882 33.6472 41.8902 33.6716ZM41.9531 35.3195L41.8902 35.1307C41.882 35.1063 41.8475 35.1063 41.8392 35.1307L41.7763 35.3195L41.5773 35.321C41.5516 35.3212 41.5409 35.3541 41.5616 35.3694L41.7217 35.4876L41.6617 35.6772C41.6539 35.7018 41.6819 35.7221 41.7028 35.7071L41.8647 35.5915L42.0265 35.7071C42.0475 35.7221 42.0755 35.7018 42.0677 35.6772L42.0077 35.4876L42.1677 35.3694C42.1885 35.3541 42.1778 35.3212 42.152 35.321L41.9531 35.3195Z" fill="#F5F5F5"/>
</g>
<path d="M60.8248 39.5H58.9464L58.9583 38.1135H60.8248C61.2909 38.1135 61.6839 38.0088 62.0039 37.7994C62.3239 37.5861 62.5649 37.276 62.7268 36.8691C62.8927 36.4622 62.9757 35.9704 62.9757 35.3937V34.973C62.9757 34.5305 62.9283 34.1414 62.8335 33.8057C62.7426 33.4699 62.6063 33.1874 62.4246 32.9583C62.2429 32.7292 62.0197 32.5574 61.7551 32.4428C61.4904 32.3243 61.1862 32.2651 60.8425 32.2651H58.9108V30.8726H60.8425C61.4193 30.8726 61.9466 30.9713 62.4246 31.1689C62.9066 31.3624 63.3233 31.6409 63.6749 32.0043C64.0265 32.3678 64.2971 32.8023 64.4867 33.3079C64.6802 33.8096 64.777 34.3686 64.777 34.9848V35.3937C64.777 36.006 64.6802 36.5649 64.4867 37.0706C64.2971 37.5762 64.0265 38.0107 63.6749 38.3742C63.3273 38.7336 62.9105 39.0121 62.4246 39.2097C61.9427 39.4032 61.4094 39.5 60.8248 39.5ZM59.9537 30.8726V39.5H58.1761V30.8726H59.9537ZM65.6895 36.3595V36.2351C65.6895 35.765 65.7567 35.3325 65.891 34.9374C66.0253 34.5384 66.2208 34.1928 66.4776 33.9005C66.7344 33.6082 67.0504 33.381 67.4257 33.2191C67.801 33.0531 68.2315 32.9702 68.7174 32.9702C69.2033 32.9702 69.6359 33.0531 70.0151 33.2191C70.3943 33.381 70.7123 33.6082 70.9691 33.9005C71.2298 34.1928 71.4273 34.5384 71.5616 34.9374C71.6959 35.3325 71.7631 35.765 71.7631 36.2351V36.3595C71.7631 36.8257 71.6959 37.2582 71.5616 37.6572C71.4273 38.0522 71.2298 38.3979 70.9691 38.6941C70.7123 38.9865 70.3963 39.2136 70.021 39.3756C69.6457 39.5375 69.2152 39.6185 68.7293 39.6185C68.2434 39.6185 67.8108 39.5375 67.4316 39.3756C67.0563 39.2136 66.7383 38.9865 66.4776 38.6941C66.2208 38.3979 66.0253 38.0522 65.891 37.6572C65.7567 37.2582 65.6895 36.8257 65.6895 36.3595ZM67.3961 36.2351V36.3595C67.3961 36.6281 67.4198 36.879 67.4672 37.1121C67.5146 37.3451 67.5896 37.5505 67.6923 37.7283C67.799 37.9021 67.9372 38.0384 68.1071 38.1372C68.277 38.2359 68.4844 38.2853 68.7293 38.2853C68.9663 38.2853 69.1697 38.2359 69.3396 38.1372C69.5095 38.0384 69.6457 37.9021 69.7484 37.7283C69.8512 37.5505 69.9262 37.3451 69.9736 37.1121C70.025 36.879 70.0506 36.6281 70.0506 36.3595V36.2351C70.0506 35.9744 70.025 35.7295 69.9736 35.5003C69.9262 35.2673 69.8492 35.0619 69.7425 34.8841C69.6398 34.7024 69.5035 34.5602 69.3337 34.4575C69.1638 34.3548 68.9584 34.3034 68.7174 34.3034C68.4765 34.3034 68.271 34.3548 68.1012 34.4575C67.9353 34.5602 67.799 34.7024 67.6923 34.8841C67.5896 35.0619 67.5146 35.2673 67.4672 35.5003C67.4198 35.7295 67.3961 35.9744 67.3961 36.2351ZM74.6428 37.8409L75.9761 33.0887H77.0604L76.7108 34.9552L75.3776 39.5H74.471L74.6428 37.8409ZM73.9673 33.0887L74.9213 37.835L75.0102 39.5H73.9436L72.3201 33.0887H73.9673ZM78.2811 37.7579L79.2113 33.0887H80.8645L79.241 39.5H78.1803L78.2811 37.7579ZM77.2086 33.0887L78.5358 37.8053L78.7195 39.5H77.807L76.4738 34.9611L76.1361 33.0887H77.2086ZM88.3424 36.8513V30.8726H90.1141V36.8513C90.1141 37.4281 89.9877 37.9238 89.7349 38.3386C89.4821 38.7494 89.1364 39.0655 88.6979 39.2867C88.2634 39.5079 87.7736 39.6185 87.2284 39.6185C86.6636 39.6185 86.1638 39.5237 85.7293 39.3341C85.2948 39.1445 84.9531 38.8541 84.7042 38.4631C84.4553 38.068 84.3309 37.5683 84.3309 36.9639H86.1145C86.1145 37.2799 86.1579 37.5308 86.2448 37.7164C86.3357 37.9021 86.4641 38.0344 86.63 38.1135C86.7959 38.1925 86.9954 38.232 87.2284 38.232C87.4536 38.232 87.6491 38.1786 87.8151 38.072C87.981 37.9653 88.1094 37.8093 88.2002 37.6039C88.295 37.3985 88.3424 37.1476 88.3424 36.8513ZM91.2518 36.3595V36.2351C91.2518 35.765 91.319 35.3325 91.4533 34.9374C91.5876 34.5384 91.7831 34.1928 92.0399 33.9005C92.2967 33.6082 92.6127 33.381 92.988 33.2191C93.3632 33.0531 93.7938 32.9702 94.2797 32.9702C94.7656 32.9702 95.1981 33.0531 95.5774 33.2191C95.9566 33.381 96.2746 33.6082 96.5314 33.9005C96.7921 34.1928 96.9896 34.5384 97.1239 34.9374C97.2582 35.3325 97.3254 35.765 97.3254 36.2351V36.3595C97.3254 36.8257 97.2582 37.2582 97.1239 37.6572C96.9896 38.0522 96.7921 38.3979 96.5314 38.6941C96.2746 38.9865 95.9586 39.2136 95.5833 39.3756C95.208 39.5375 94.7774 39.6185 94.2915 39.6185C93.8057 39.6185 93.3731 39.5375 92.9939 39.3756C92.6186 39.2136 92.3006 38.9865 92.0399 38.6941C91.7831 38.3979 91.5876 38.0522 91.4533 37.6572C91.319 37.2582 91.2518 36.8257 91.2518 36.3595ZM92.9583 36.2351V36.3595C92.9583 36.6281 92.982 36.879 93.0294 37.1121C93.0768 37.3451 93.1519 37.5505 93.2546 37.7283C93.3613 37.9021 93.4995 38.0384 93.6694 38.1372C93.8392 38.2359 94.0466 38.2853 94.2915 38.2853C94.5286 38.2853 94.732 38.2359 94.9019 38.1372C95.0717 38.0384 95.208 37.9021 95.3107 37.7283C95.4134 37.5505 95.4885 37.3451 95.5359 37.1121C95.5872 36.879 95.6129 36.6281 95.6129 36.3595V36.2351C95.6129 35.9744 95.5872 35.7295 95.5359 35.5003C95.4885 35.2673 95.4115 35.0619 95.3048 34.8841C95.2021 34.7024 95.0658 34.5602 94.8959 34.4575C94.7261 34.3548 94.5207 34.3034 94.2797 34.3034C94.0387 34.3034 93.8333 34.3548 93.6635 34.4575C93.4975 34.5602 93.3613 34.7024 93.2546 34.8841C93.1519 35.0619 93.0768 35.2673 93.0294 35.5003C92.982 35.7295 92.9583 35.9744 92.9583 36.2351ZM100.045 34.4575V39.5H98.3386V33.0887H99.9385L100.045 34.4575ZM99.7963 36.0692H99.3341C99.3341 35.5951 99.3953 35.1685 99.5178 34.7893C99.6402 34.4061 99.8121 34.0802 100.033 33.8116C100.254 33.539 100.517 33.3316 100.821 33.1894C101.129 33.0433 101.473 32.9702 101.852 32.9702C102.153 32.9702 102.427 33.0136 102.676 33.1005C102.925 33.1874 103.138 33.3257 103.316 33.5153C103.498 33.7049 103.636 33.9558 103.731 34.2679C103.83 34.5799 103.879 34.9611 103.879 35.4115V39.5H102.161V35.4055C102.161 35.1211 102.121 34.8999 102.042 34.7419C101.963 34.5839 101.846 34.4733 101.692 34.4101C101.542 34.3429 101.357 34.3093 101.135 34.3093C100.906 34.3093 100.707 34.3548 100.537 34.4456C100.371 34.5365 100.233 34.6629 100.122 34.8248C100.016 34.9829 99.9345 35.1685 99.8792 35.3818C99.8239 35.5951 99.7963 35.8243 99.7963 36.0692ZM108.127 39.6185C107.63 39.6185 107.183 39.5395 106.788 39.3815C106.393 39.2195 106.057 38.9963 105.781 38.7119C105.508 38.4275 105.299 38.0977 105.153 37.7224C105.007 37.3431 104.934 36.9402 104.934 36.5136V36.2766C104.934 35.7907 105.003 35.3463 105.141 34.9434C105.279 34.5404 105.477 34.1908 105.734 33.8946C105.994 33.5983 106.31 33.3711 106.682 33.2131C107.053 33.0512 107.472 32.9702 107.938 32.9702C108.392 32.9702 108.795 33.0452 109.147 33.1954C109.498 33.3455 109.792 33.5588 110.029 33.8353C110.27 34.1118 110.452 34.4436 110.575 34.8308C110.697 35.2139 110.758 35.6406 110.758 36.1107V36.8217H105.662V35.684H109.081V35.5537C109.081 35.3167 109.038 35.1053 108.951 34.9196C108.868 34.73 108.742 34.5799 108.572 34.4693C108.402 34.3587 108.185 34.3034 107.92 34.3034C107.695 34.3034 107.501 34.3528 107.339 34.4515C107.177 34.5503 107.045 34.6886 106.942 34.8663C106.844 35.0441 106.769 35.2534 106.717 35.4944C106.67 35.7314 106.646 35.9921 106.646 36.2766V36.5136C106.646 36.7704 106.682 37.0074 106.753 37.2246C106.828 37.4419 106.932 37.6295 107.067 37.7876C107.205 37.9456 107.371 38.068 107.564 38.1549C107.762 38.2418 107.985 38.2853 108.234 38.2853C108.542 38.2853 108.829 38.226 109.093 38.1075C109.362 37.9851 109.593 37.8014 109.787 37.5565L110.616 38.4571C110.482 38.6507 110.298 38.8364 110.065 39.0141C109.836 39.1919 109.559 39.338 109.235 39.4526C108.912 39.5632 108.542 39.6185 108.127 39.6185ZM115.196 37.7283C115.196 37.6058 115.161 37.4952 115.09 37.3965C115.019 37.2977 114.886 37.2069 114.693 37.1239C114.503 37.037 114.229 36.958 113.869 36.8869C113.545 36.8158 113.243 36.7269 112.963 36.6202C112.686 36.5096 112.445 36.3773 112.24 36.2232C112.038 36.0692 111.88 35.8875 111.766 35.6781C111.651 35.4648 111.594 35.2218 111.594 34.9493C111.594 34.6807 111.651 34.4278 111.766 34.1908C111.884 33.9538 112.052 33.7444 112.269 33.5627C112.49 33.3771 112.759 33.2329 113.075 33.1302C113.395 33.0235 113.755 32.9702 114.154 32.9702C114.711 32.9702 115.189 33.0591 115.588 33.2368C115.99 33.4146 116.299 33.6595 116.512 33.9716C116.729 34.2797 116.838 34.6313 116.838 35.0263H115.131C115.131 34.8604 115.096 34.7123 115.025 34.5819C114.957 34.4476 114.851 34.3429 114.705 34.2679C114.562 34.1888 114.377 34.1493 114.148 34.1493C113.958 34.1493 113.794 34.1829 113.656 34.2501C113.518 34.3133 113.411 34.4002 113.336 34.5108C113.265 34.6175 113.229 34.736 113.229 34.8663C113.229 34.9651 113.249 35.054 113.288 35.133C113.332 35.208 113.401 35.2771 113.496 35.3404C113.591 35.4036 113.713 35.4628 113.863 35.5181C114.017 35.5695 114.207 35.6169 114.432 35.6603C114.894 35.7551 115.307 35.8796 115.67 36.0336C116.034 36.1837 116.322 36.3892 116.536 36.6499C116.749 36.9066 116.856 37.2444 116.856 37.6631C116.856 37.9475 116.792 38.2083 116.666 38.4453C116.54 38.6823 116.358 38.8897 116.121 39.0674C115.884 39.2413 115.599 39.3775 115.268 39.4763C114.94 39.5711 114.57 39.6185 114.159 39.6185C113.563 39.6185 113.057 39.5119 112.643 39.2985C112.232 39.0852 111.92 38.8146 111.706 38.4868C111.497 38.1549 111.392 37.8152 111.392 37.4676H113.01C113.018 37.7006 113.077 37.8883 113.188 38.0305C113.302 38.1727 113.446 38.2754 113.62 38.3386C113.798 38.4018 113.99 38.4334 114.195 38.4334C114.416 38.4334 114.6 38.4038 114.746 38.3445C114.892 38.2813 115.003 38.1984 115.078 38.0957C115.157 37.989 115.196 37.8666 115.196 37.7283Z" fill="white"/>
<defs>
<filter id="filter0_d_291_26964" x="0.872093" y="0.697675" width="273.256" height="75.4648" filterUnits="userSpaceOnUse" color-interpolation-filters="sRGB">
<feFlood flood-opacity="0" result="BackgroundImageFix"/>
<feColorMatrix in="SourceAlpha" type="matrix" values="0 0 0 0 0 0 0 0 0 0 0 0 0 0 0 0 0 0 127 0" result="hardAlpha"/>
<feOffset dy="2.82558"/>
<feGaussianBlur stdDeviation="7.06395"/>
<feColorMatrix type="matrix" values="0 0 0 0 0 0 0 0 0 0 0 0 0 0 0 0 0 0 0.3 0"/>
<feBlend mode="normal" in2="BackgroundImageFix" result="effect1_dropShadow_291_26964"/>
<feBlend mode="normal" in="SourceGraphic" in2="effect1_dropShadow_291_26964" result="shape"/>
</filter>
<clipPath id="clip0_291_26964">
<rect width="22.6047" height="22.6047" fill="white" transform="translate(27.3023 24.3027)"/>
</clipPath>
<clipPath id="clip1_291_26964">
<rect width="18.2031" height="18.2029" fill="white" transform="translate(33.1353 26.5)"/>
</clipPath>
<clipPath id="clip2_291_26964">
<rect width="18.2031" height="18.2029" fill="white" transform="translate(33.1353 26.5)"/>
</clipPath>
</defs>
</svg>
