<svg width="48" height="264" viewBox="0 0 48 264" fill="none" xmlns="http://www.w3.org/2000/svg">
<g clip-path="url(#clip0_54_3703)">
<g clip-path="url(#clip1_54_3703)">
<rect y="-16" width="48" height="546" fill="#090A0A"/>
<path fill-rule="evenodd" clip-rule="evenodd" d="M20.0671 10.25L24 10.25C24.1989 10.25 24.3897 10.329 24.5303 10.4697C24.671 10.6103 24.75 10.8011 24.75 11L24.75 14.9807C24.75 15.395 24.4142 15.7307 24 15.7307C23.5858 15.7307 23.25 15.395 23.25 14.9807L23.25 12.8107L18.5303 17.5303C18.2374 17.8232 17.7626 17.8232 17.4697 17.5303C17.1768 17.2374 17.1768 16.7626 17.4697 16.4697L22.1893 11.75L20.0671 11.75C19.6529 11.75 19.3171 11.4142 19.3171 11C19.3171 10.5858 19.6529 10.25 20.0671 10.25ZM30.5303 16.4697C30.8232 16.7626 30.8232 17.2374 30.5303 17.5303L25.8107 22.25L27.9329 22.25C28.3471 22.25 28.6829 22.5858 28.6829 23C28.6829 23.4142 28.3471 23.75 27.9329 23.75L24 23.75C23.8011 23.75 23.6103 23.671 23.4697 23.5303C23.329 23.3897 23.25 23.1989 23.25 23L23.25 19.0193C23.25 18.605 23.5858 18.2693 24 18.2693C24.4142 18.2693 24.75 18.605 24.75 19.0193L24.75 21.1893L29.4697 16.4697C29.7626 16.1768 30.2374 16.1768 30.5303 16.4697Z" fill="#5B728C"/>
<path d="M15.5142 31.2959H13.4575V37H12.6182V31.2959H10.5659V30.6016H15.5142V31.2959ZM18.3003 32.9746C18.1772 32.9541 18.0439 32.9438 17.9004 32.9438C17.3672 32.9438 17.0054 33.1709 16.8149 33.625V37H16.002V32.2451H16.793L16.8062 32.7944C17.0728 32.3696 17.4507 32.1572 17.9399 32.1572C18.0981 32.1572 18.2183 32.1777 18.3003 32.2188V32.9746ZM21.8115 37C21.7646 36.9062 21.7266 36.7393 21.6973 36.499C21.3193 36.8916 20.8682 37.0879 20.3438 37.0879C19.875 37.0879 19.4897 36.9561 19.188 36.6924C18.8892 36.4258 18.7397 36.0889 18.7397 35.6816C18.7397 35.1865 18.9272 34.8027 19.3022 34.5303C19.6802 34.2549 20.2104 34.1172 20.8931 34.1172H21.6841V33.7437C21.6841 33.4595 21.5991 33.2339 21.4292 33.0669C21.2593 32.897 21.0088 32.812 20.6777 32.812C20.3877 32.812 20.1445 32.8853 19.9482 33.0317C19.752 33.1782 19.6538 33.3555 19.6538 33.5635H18.8364C18.8364 33.3262 18.9199 33.0977 19.0869 32.8779C19.2568 32.6553 19.4854 32.4795 19.7725 32.3506C20.0625 32.2217 20.3804 32.1572 20.7261 32.1572C21.2739 32.1572 21.7031 32.2949 22.0137 32.5703C22.3242 32.8428 22.4854 33.2192 22.4971 33.6997V35.8882C22.4971 36.3247 22.5527 36.6719 22.6641 36.9297V37H21.8115ZM20.4624 36.3804C20.7173 36.3804 20.959 36.3145 21.1875 36.1826C21.416 36.0508 21.5815 35.8794 21.6841 35.6685V34.6929H21.0469C20.0508 34.6929 19.5527 34.9844 19.5527 35.5674C19.5527 35.8223 19.6377 36.0215 19.8076 36.165C19.9775 36.3086 20.1958 36.3804 20.4624 36.3804ZM23.5737 34.583C23.5737 33.8535 23.7466 33.2676 24.0923 32.8252C24.438 32.3799 24.8906 32.1572 25.4502 32.1572C26.0068 32.1572 26.4478 32.3477 26.7729 32.7285V30.25H27.5859V37H26.8389L26.7993 36.4902C26.4741 36.8887 26.0215 37.0879 25.4414 37.0879C24.8906 37.0879 24.4409 36.8623 24.0923 36.4111C23.7466 35.96 23.5737 35.3711 23.5737 34.6445V34.583ZM24.3867 34.6753C24.3867 35.2144 24.498 35.6362 24.7207 35.9409C24.9434 36.2456 25.251 36.3979 25.6436 36.3979C26.1592 36.3979 26.5356 36.1665 26.7729 35.7036V33.5195C26.5298 33.0713 26.1562 32.8472 25.6523 32.8472C25.2539 32.8472 24.9434 33.001 24.7207 33.3086C24.498 33.6162 24.3867 34.0718 24.3867 34.6753ZM30.8247 37.0879C30.1802 37.0879 29.6558 36.877 29.2515 36.4551C28.8472 36.0303 28.645 35.4634 28.645 34.7544V34.605C28.645 34.1333 28.7344 33.7129 28.9131 33.3438C29.0947 32.9717 29.3467 32.6816 29.6689 32.4736C29.9941 32.2627 30.3457 32.1572 30.7236 32.1572C31.3418 32.1572 31.8223 32.3608 32.165 32.7681C32.5078 33.1753 32.6792 33.7583 32.6792 34.5171V34.8555H29.458C29.4697 35.3242 29.606 35.7036 29.8667 35.9937C30.1304 36.2808 30.4644 36.4243 30.8687 36.4243C31.1558 36.4243 31.3989 36.3657 31.5981 36.2485C31.7974 36.1313 31.9717 35.9761 32.1211 35.7827L32.6177 36.1694C32.2192 36.7817 31.6216 37.0879 30.8247 37.0879ZM30.7236 32.8252C30.3955 32.8252 30.1201 32.9453 29.8975 33.1855C29.6748 33.4229 29.5371 33.7568 29.4844 34.1875H31.8662V34.126C31.8428 33.7129 31.7314 33.3936 31.5322 33.168C31.333 32.9395 31.0635 32.8252 30.7236 32.8252ZM36.3926 35.7388C36.3926 35.519 36.3091 35.3491 36.1421 35.229C35.978 35.106 35.6895 35.0005 35.2764 34.9126C34.8662 34.8247 34.5396 34.7192 34.2964 34.5962C34.0562 34.4731 33.8774 34.3267 33.7603 34.1567C33.646 33.9868 33.5889 33.7847 33.5889 33.5503C33.5889 33.1606 33.7529 32.8311 34.0811 32.5615C34.4121 32.292 34.834 32.1572 35.3467 32.1572C35.8857 32.1572 36.3223 32.2964 36.6562 32.5747C36.9932 32.853 37.1616 33.209 37.1616 33.6426H36.3442C36.3442 33.4199 36.249 33.228 36.0586 33.0669C35.8711 32.9058 35.6338 32.8252 35.3467 32.8252C35.0508 32.8252 34.8193 32.8896 34.6523 33.0186C34.4854 33.1475 34.4019 33.3159 34.4019 33.5239C34.4019 33.7202 34.4795 33.8682 34.6348 33.9678C34.79 34.0674 35.0698 34.1626 35.4741 34.2534C35.8813 34.3442 36.2109 34.4526 36.4629 34.5786C36.7148 34.7046 36.9009 34.8569 37.021 35.0356C37.144 35.2114 37.2056 35.4268 37.2056 35.6816C37.2056 36.1064 37.0356 36.4478 36.6958 36.7056C36.356 36.9604 35.915 37.0879 35.373 37.0879C34.9922 37.0879 34.6553 37.0205 34.3623 36.8857C34.0693 36.751 33.8394 36.5635 33.6724 36.3232C33.5083 36.0801 33.4263 35.8179 33.4263 35.5366H34.2393C34.2539 35.8091 34.3623 36.0259 34.5645 36.187C34.7695 36.3452 35.0391 36.4243 35.373 36.4243C35.6807 36.4243 35.9268 36.3628 36.1113 36.2397C36.2988 36.1138 36.3926 35.9468 36.3926 35.7388Z" fill="#5B728C"/>
<path fill-rule="evenodd" clip-rule="evenodd" d="M17.9272 65.5747C18.016 64.8193 18.6563 64.25 19.4169 64.25H28.583C29.3436 64.25 29.9839 64.8193 30.0727 65.5747L31.1992 75.1495C31.409 76.933 30.0155 78.5 28.2197 78.5H19.7802C17.9844 78.5 16.5909 76.933 16.8007 75.1495L17.9272 65.5747ZM28.583 65.75H19.4169L18.2905 75.3247C18.1855 76.2165 18.8823 77 19.7802 77H28.2197C29.1176 77 29.8144 76.2165 29.7095 75.3247L28.583 65.75ZM21 67.25C21.4142 67.25 21.75 67.5858 21.75 68C21.75 69.2426 22.7573 70.25 24 70.25C25.2426 70.25 26.25 69.2426 26.25 68C26.25 67.5858 26.5857 67.25 27 67.25C27.4142 67.25 27.75 67.5858 27.75 68C27.75 70.0711 26.071 71.75 24 71.75C21.9289 71.75 20.25 70.0711 20.25 68C20.25 67.5858 20.5857 67.25 21 67.25Z" fill="#5B728C"/>
<path d="M11.8359 84.6016L13.9277 89.8223L16.0195 84.6016H17.1138V91H16.27V88.5083L16.3491 85.8188L14.2485 91H13.6025L11.5063 85.832L11.5898 88.5083V91H10.7461V84.6016H11.8359ZM21.4116 91C21.3647 90.9062 21.3267 90.7393 21.2974 90.499C20.9194 90.8916 20.4683 91.0879 19.9438 91.0879C19.4751 91.0879 19.0898 90.9561 18.7881 90.6924C18.4893 90.4258 18.3398 90.0889 18.3398 89.6816C18.3398 89.1865 18.5273 88.8027 18.9023 88.5303C19.2803 88.2549 19.8105 88.1172 20.4932 88.1172H21.2842V87.7437C21.2842 87.4595 21.1992 87.2339 21.0293 87.0669C20.8594 86.897 20.6089 86.812 20.2778 86.812C19.9878 86.812 19.7446 86.8853 19.5483 87.0317C19.3521 87.1782 19.2539 87.3555 19.2539 87.5635H18.4365C18.4365 87.3262 18.52 87.0977 18.687 86.8779C18.8569 86.6553 19.0854 86.4795 19.3726 86.3506C19.6626 86.2217 19.9805 86.1572 20.3262 86.1572C20.874 86.1572 21.3032 86.2949 21.6138 86.5703C21.9243 86.8428 22.0854 87.2192 22.0972 87.6997V89.8882C22.0972 90.3247 22.1528 90.6719 22.2642 90.9297V91H21.4116ZM20.0625 90.3804C20.3174 90.3804 20.5591 90.3145 20.7876 90.1826C21.0161 90.0508 21.1816 89.8794 21.2842 89.6685V88.6929H20.647C19.6509 88.6929 19.1528 88.9844 19.1528 89.5674C19.1528 89.8223 19.2378 90.0215 19.4077 90.165C19.5776 90.3086 19.7959 90.3804 20.0625 90.3804ZM25.6699 86.9746C25.5469 86.9541 25.4136 86.9438 25.27 86.9438C24.7368 86.9438 24.375 87.1709 24.1846 87.625V91H23.3716V86.2451H24.1626L24.1758 86.7944C24.4424 86.3696 24.8203 86.1572 25.3096 86.1572C25.4678 86.1572 25.5879 86.1777 25.6699 86.2188V86.9746ZM27.7485 88.7983L27.2388 89.3301V91H26.4258V84.25H27.2388V88.3325L27.6738 87.8096L29.1548 86.2451H30.1436L28.2935 88.2314L30.3589 91H29.4053L27.7485 88.7983ZM32.8682 91.0879C32.2236 91.0879 31.6992 90.877 31.2949 90.4551C30.8906 90.0303 30.6885 89.4634 30.6885 88.7544V88.605C30.6885 88.1333 30.7778 87.7129 30.9565 87.3438C31.1382 86.9717 31.3901 86.6816 31.7124 86.4736C32.0376 86.2627 32.3892 86.1572 32.7671 86.1572C33.3853 86.1572 33.8657 86.3608 34.2085 86.7681C34.5513 87.1753 34.7227 87.7583 34.7227 88.5171V88.8555H31.5015C31.5132 89.3242 31.6494 89.7036 31.9102 89.9937C32.1738 90.2808 32.5078 90.4243 32.9121 90.4243C33.1992 90.4243 33.4424 90.3657 33.6416 90.2485C33.8408 90.1313 34.0151 89.9761 34.1646 89.7827L34.6611 90.1694C34.2627 90.7817 33.665 91.0879 32.8682 91.0879ZM32.7671 86.8252C32.439 86.8252 32.1636 86.9453 31.9409 87.1855C31.7183 87.4229 31.5806 87.7568 31.5278 88.1875H33.9097V88.126C33.8862 87.7129 33.7749 87.3936 33.5757 87.168C33.3765 86.9395 33.1069 86.8252 32.7671 86.8252ZM36.7705 85.0938V86.2451H37.6582V86.8735H36.7705V89.8223C36.7705 90.0127 36.8101 90.1562 36.8892 90.2529C36.9683 90.3467 37.103 90.3936 37.2935 90.3936C37.3872 90.3936 37.5161 90.376 37.6802 90.3408V91C37.4663 91.0586 37.2583 91.0879 37.0562 91.0879C36.6929 91.0879 36.4189 90.978 36.2344 90.7583C36.0498 90.5386 35.9575 90.2266 35.9575 89.8223V86.8735H35.0918V86.2451H35.9575V85.0938H36.7705Z" fill="#5B728C"/>
<path fill-rule="evenodd" clip-rule="evenodd" d="M19.5 120.5C19.5 119.672 20.1716 119 21 119H27C27.8284 119 28.5 119.672 28.5 120.5V120.517H30.1C30.3851 120.517 30.7422 120.569 31.0505 120.777C31.4019 121.015 31.6 121.397 31.6 121.841V123.447C31.6 124.321 31.3666 125.025 30.9789 125.576C30.596 126.12 30.0941 126.469 29.621 126.693C29.1498 126.916 28.6883 127.024 28.3513 127.077C28.181 127.104 28.0375 127.118 27.9338 127.125C27.8819 127.128 27.8396 127.13 27.8085 127.131C27.7929 127.132 27.7801 127.132 27.7703 127.132L27.7579 127.132L27.7534 127.132L27.7507 127.132C27.6427 127.132 27.5393 127.11 27.4465 127.068C27.2587 127.319 27.0569 127.547 26.8509 127.752C26.0944 128.506 25.2546 128.987 24.75 129.236V130.25H27C27.4142 130.25 27.75 130.586 27.75 131C27.75 131.414 27.4142 131.75 27 131.75H21C20.5858 131.75 20.25 131.414 20.25 131C20.25 130.586 20.5858 130.25 21 130.25H23.25V129.236C22.7454 128.987 21.9056 128.506 21.1491 127.752C20.9512 127.555 20.7572 127.337 20.5757 127.098C20.5045 127.12 20.4287 127.132 20.35 127.132L20.3467 127.132L20.3422 127.132L20.3297 127.132C20.3199 127.132 20.3071 127.132 20.2916 127.131C20.2605 127.13 20.2182 127.128 20.1662 127.125C20.0626 127.118 19.9191 127.104 19.7487 127.077C19.4117 127.024 18.9502 126.916 18.4791 126.693C18.0059 126.469 17.504 126.12 17.1211 125.576C16.7334 125.025 16.5 124.321 16.5 123.447V121.841C16.5 121.397 16.6982 121.015 17.0495 120.777C17.3578 120.569 17.715 120.517 18 120.517H19.5V120.5ZM19.5 122.017H18L18 123.447C18 124.041 18.1541 124.437 18.3476 124.712C18.546 124.994 18.8191 125.195 19.121 125.338C19.3357 125.439 19.5553 125.507 19.7519 125.551C19.5937 125.073 19.5 124.546 19.5 123.969V122.017ZM28.2406 125.574C28.4033 125.09 28.5 124.555 28.5 123.969V122.017H30.1V123.447C30.1 124.041 29.946 124.437 29.7524 124.712C29.5541 124.994 29.2809 125.195 28.9791 125.338C28.7242 125.458 28.4625 125.531 28.2406 125.574ZM27 120.5H21V123.969C21 125.129 21.5354 126.019 22.208 126.69C22.8561 127.335 23.6 127.743 24 127.932C24.4 127.743 25.1439 127.335 25.792 126.69C26.4646 126.019 27 125.129 27 123.969V120.5Z" fill="#5B728C"/>
<path d="M15.0483 142.042H12.2754V144.31H15.4966V145H11.4316V138.602H15.4526V139.296H12.2754V141.353H15.0483V142.042ZM17.874 143.897L19.0518 140.245H19.8823L18.1772 145H17.5576L15.835 140.245H16.6655L17.874 143.897ZM22.5762 145.088C21.9316 145.088 21.4072 144.877 21.0029 144.455C20.5986 144.03 20.3965 143.463 20.3965 142.754V142.605C20.3965 142.133 20.4858 141.713 20.6646 141.344C20.8462 140.972 21.0981 140.682 21.4204 140.474C21.7456 140.263 22.0972 140.157 22.4751 140.157C23.0933 140.157 23.5737 140.361 23.9165 140.768C24.2593 141.175 24.4307 141.758 24.4307 142.517V142.855H21.2095C21.2212 143.324 21.3574 143.704 21.6182 143.994C21.8818 144.281 22.2158 144.424 22.6201 144.424C22.9072 144.424 23.1504 144.366 23.3496 144.249C23.5488 144.131 23.7231 143.976 23.8726 143.783L24.3691 144.169C23.9707 144.782 23.373 145.088 22.5762 145.088ZM22.4751 140.825C22.147 140.825 21.8716 140.945 21.6489 141.186C21.4263 141.423 21.2886 141.757 21.2358 142.188H23.6177V142.126C23.5942 141.713 23.4829 141.394 23.2837 141.168C23.0845 140.939 22.8149 140.825 22.4751 140.825ZM26.1445 140.245L26.1709 140.843C26.5342 140.386 27.0088 140.157 27.5947 140.157C28.5996 140.157 29.1064 140.724 29.1152 141.858V145H28.3022V141.854C28.2993 141.511 28.2202 141.257 28.0649 141.093C27.9126 140.929 27.6738 140.847 27.3486 140.847C27.085 140.847 26.8535 140.917 26.6543 141.058C26.4551 141.199 26.2998 141.383 26.1885 141.612V145H25.3755V140.245H26.1445ZM31.4443 139.094V140.245H32.332V140.874H31.4443V143.822C31.4443 144.013 31.4839 144.156 31.563 144.253C31.6421 144.347 31.7769 144.394 31.9673 144.394C32.061 144.394 32.1899 144.376 32.354 144.341V145C32.1401 145.059 31.9321 145.088 31.73 145.088C31.3667 145.088 31.0928 144.978 30.9082 144.758C30.7236 144.539 30.6313 144.227 30.6313 143.822V140.874H29.7656V140.245H30.6313V139.094H31.4443ZM36.0542 143.739C36.0542 143.519 35.9707 143.349 35.8037 143.229C35.6396 143.106 35.3511 143 34.938 142.913C34.5278 142.825 34.2012 142.719 33.958 142.596C33.7178 142.473 33.5391 142.327 33.4219 142.157C33.3076 141.987 33.2505 141.785 33.2505 141.55C33.2505 141.161 33.4146 140.831 33.7427 140.562C34.0737 140.292 34.4956 140.157 35.0083 140.157C35.5474 140.157 35.9839 140.296 36.3179 140.575C36.6548 140.853 36.8232 141.209 36.8232 141.643H36.0059C36.0059 141.42 35.9106 141.228 35.7202 141.067C35.5327 140.906 35.2954 140.825 35.0083 140.825C34.7124 140.825 34.481 140.89 34.314 141.019C34.147 141.147 34.0635 141.316 34.0635 141.524C34.0635 141.72 34.1411 141.868 34.2964 141.968C34.4517 142.067 34.7314 142.163 35.1357 142.253C35.543 142.344 35.8726 142.453 36.1245 142.579C36.3765 142.705 36.5625 142.857 36.6826 143.036C36.8057 143.211 36.8672 143.427 36.8672 143.682C36.8672 144.106 36.6973 144.448 36.3574 144.706C36.0176 144.96 35.5767 145.088 35.0347 145.088C34.6538 145.088 34.3169 145.021 34.0239 144.886C33.731 144.751 33.501 144.563 33.334 144.323C33.1699 144.08 33.0879 143.818 33.0879 143.537H33.9009C33.9155 143.809 34.0239 144.026 34.2261 144.187C34.4312 144.345 34.7007 144.424 35.0347 144.424C35.3423 144.424 35.5884 144.363 35.7729 144.24C35.9604 144.114 36.0542 143.947 36.0542 143.739Z" fill="#5B728C"/>
<path fill-rule="evenodd" clip-rule="evenodd" d="M24 173C20.6863 173 18 175.686 18 179C18 182.314 20.6863 185 24 185H29.2054L28.8525 183.205C28.8131 183.004 28.8427 182.796 28.9382 182.613C29.0461 182.407 29.4082 181.701 29.55 181.288C29.7312 180.76 30 179.769 30 179C30 175.686 27.3137 173 24 173ZM16.5 179C16.5 174.858 19.8579 171.5 24 171.5C28.1421 171.5 31.5 174.858 31.5 179C31.5 180.021 31.1656 181.201 30.9687 181.775C30.8219 182.203 30.5283 182.799 30.3646 183.12L30.8179 185.426C30.9272 185.982 30.5016 186.5 29.9348 186.5H24C19.8579 186.5 16.5 183.142 16.5 179Z" fill="#5B728C"/>
<path fill-rule="evenodd" clip-rule="evenodd" d="M24.0949 176.759C23.5991 176.759 23.1973 177.161 23.1973 177.657C23.1973 178.071 22.8615 178.407 22.4473 178.407C22.0331 178.407 21.6973 178.071 21.6973 177.657C21.6973 176.333 22.7707 175.259 24.0949 175.259C25.419 175.259 26.4925 176.333 26.4925 177.657C26.4925 178.33 26.214 178.94 25.7678 179.374L24.5069 180.635C24.214 180.928 23.7392 180.928 23.4463 180.635C23.1534 180.342 23.1534 179.868 23.4463 179.575L24.7151 178.306L24.7194 178.302C24.8887 178.138 24.9925 177.91 24.9925 177.657C24.9925 177.161 24.5906 176.759 24.0949 176.759Z" fill="#5B728C"/>
<path d="M24.7494 182.419C24.7494 182.833 24.4139 183.169 24 183.169C23.5861 183.169 23.2505 182.833 23.2505 182.419C23.2505 182.005 23.5861 181.67 24 181.67C24.4139 181.67 24.7494 182.005 24.7494 182.419Z" fill="#5B728C"/>
<path d="M20.4448 199H19.5967V196.042H16.3711V199H15.5273V192.602H16.3711V195.353H19.5967V192.602H20.4448V199ZM23.7891 199.088C23.1445 199.088 22.6201 198.877 22.2158 198.455C21.8115 198.03 21.6094 197.463 21.6094 196.754V196.605C21.6094 196.133 21.6987 195.713 21.8774 195.344C22.0591 194.972 22.311 194.682 22.6333 194.474C22.9585 194.263 23.3101 194.157 23.688 194.157C24.3062 194.157 24.7866 194.361 25.1294 194.768C25.4722 195.175 25.6436 195.758 25.6436 196.517V196.855H22.4224C22.4341 197.324 22.5703 197.704 22.8311 197.994C23.0947 198.281 23.4287 198.424 23.833 198.424C24.1201 198.424 24.3633 198.366 24.5625 198.249C24.7617 198.131 24.936 197.976 25.0854 197.783L25.582 198.169C25.1836 198.782 24.5859 199.088 23.7891 199.088ZM23.688 194.825C23.3599 194.825 23.0845 194.945 22.8618 195.186C22.6392 195.423 22.5015 195.757 22.4487 196.188H24.8306V196.126C24.8071 195.713 24.6958 195.394 24.4966 195.168C24.2974 194.939 24.0278 194.825 23.688 194.825ZM27.4717 199H26.6587V192.25H27.4717V199ZM32.7935 196.675C32.7935 197.399 32.6279 197.982 32.2969 198.424C31.9658 198.867 31.5176 199.088 30.9521 199.088C30.375 199.088 29.9209 198.905 29.5898 198.539V200.828H28.7769V194.245H29.5195L29.5591 194.772C29.8901 194.362 30.3501 194.157 30.939 194.157C31.5103 194.157 31.9614 194.373 32.2925 194.803C32.6265 195.234 32.7935 195.833 32.7935 196.601V196.675ZM31.9805 196.583C31.9805 196.047 31.8662 195.624 31.6377 195.313C31.4092 195.002 31.0957 194.847 30.6973 194.847C30.2051 194.847 29.8359 195.065 29.5898 195.502V197.774C29.833 198.208 30.2051 198.424 30.7061 198.424C31.0957 198.424 31.4048 198.271 31.6333 197.963C31.8647 197.652 31.9805 197.192 31.9805 196.583Z" fill="#5B728C"/>
<path d="M23.2397 240.477C22.4222 240.477 21.7472 239.818 21.7247 239.007L21.7097 238.385L20.4722 237.672C20.4797 237.68 20.4347 237.68 20.4122 237.68L19.8797 237.965C19.1672 238.348 18.2522 238.092 17.8472 237.395L17.0822 236.082C16.6697 235.377 16.9097 234.455 17.6072 234.035L18.1472 233.705V232.288L17.5997 231.95C16.8947 231.523 16.6622 230.6 17.0747 229.895L17.8397 228.582C18.2447 227.885 19.1597 227.63 19.8722 228.012L20.4272 228.312C20.4272 228.305 20.4722 228.305 20.4872 228.305L21.6947 227.615L21.7247 226.977C21.7397 226.16 22.4222 225.5 23.2397 225.5H24.7697C25.5872 225.5 26.2622 226.16 26.2847 226.97L26.2997 227.592L27.5372 228.305C27.5297 228.297 27.5747 228.298 27.5972 228.298L28.1297 228.012C28.8422 227.63 29.7572 227.885 30.1622 228.582L30.9272 229.895C31.3397 230.6 31.0997 231.523 30.4022 231.943L29.8622 232.273L29.8547 233.69L30.4022 234.035C31.0997 234.462 31.3397 235.377 30.9272 236.082L30.1622 237.395C29.7497 238.092 28.8422 238.348 28.1222 237.965L27.5672 237.665C27.5747 237.672 27.5297 237.672 27.5072 237.68L26.3072 238.37L26.2772 239.007C26.2547 239.818 25.5722 240.477 24.7622 240.477H23.2397ZM20.4497 236.172C20.7197 236.172 20.9897 236.24 21.2147 236.368L22.4447 237.073C22.8797 237.32 23.1947 237.845 23.2097 238.347L23.2247 238.97L24.7772 238.977L24.8147 238.34C24.8297 237.838 25.1447 237.312 25.5797 237.065L26.8022 236.368C27.2372 236.12 27.8522 236.113 28.2872 236.352L28.8422 236.653L29.6372 235.332L29.0897 234.995C28.6547 234.733 28.3547 234.2 28.3547 233.698V232.295C28.3547 231.793 28.6547 231.26 29.0897 230.997L29.6297 230.668L28.8722 229.34L28.2872 229.633C27.8447 229.872 27.2372 229.865 26.8022 229.61L25.5722 228.913C25.1372 228.665 24.8222 228.14 24.8072 227.637L24.7922 227.007L23.2397 227L23.2022 227.637C23.1872 228.14 22.8722 228.665 22.4372 228.913L21.2072 229.617C20.7722 229.865 20.1647 229.872 19.7222 229.633L19.1672 229.332L18.3722 230.653L18.9197 230.99C19.3472 231.253 19.6472 231.785 19.6472 232.288V233.69C19.6472 234.193 19.3472 234.725 18.9122 234.987L18.3722 235.318L19.1672 236.645L19.7222 236.345C19.9397 236.225 20.1947 236.172 20.4497 236.172Z" fill="#5B728C"/>
<path d="M24.0047 235.993C22.3472 235.993 21.0047 234.65 21.0047 232.993C21.0047 231.335 22.3472 229.993 24.0047 229.993C25.6622 229.993 27.0047 231.335 27.0047 232.993C27.0047 234.65 25.6622 235.993 24.0047 235.993ZM24.0047 231.493C23.1797 231.493 22.5047 232.168 22.5047 232.993C22.5047 233.818 23.1797 234.493 24.0047 234.493C24.8297 234.493 25.5047 233.818 25.5047 232.993C25.5047 232.168 24.8297 231.493 24.0047 231.493Z" fill="#5B728C"/>
<path d="M10.2012 250.148C9.47754 249.94 8.9502 249.685 8.61914 249.383C8.29102 249.079 8.12695 248.704 8.12695 248.258C8.12695 247.754 8.32764 247.338 8.729 247.01C9.1333 246.679 9.65771 246.514 10.3022 246.514C10.7417 246.514 11.1328 246.599 11.4756 246.769C11.8213 246.938 12.0879 247.173 12.2754 247.472C12.4658 247.771 12.561 248.097 12.561 248.452H11.7129C11.7129 248.065 11.5898 247.762 11.3438 247.542C11.0977 247.319 10.7505 247.208 10.3022 247.208C9.88623 247.208 9.56104 247.3 9.32666 247.485C9.09521 247.667 8.97949 247.92 8.97949 248.245C8.97949 248.506 9.08936 248.727 9.30908 248.909C9.53174 249.087 9.9082 249.251 10.4385 249.401C10.9717 249.55 11.3877 249.716 11.6865 249.897C11.9883 250.076 12.2109 250.286 12.3545 250.526C12.501 250.766 12.5742 251.049 12.5742 251.374C12.5742 251.893 12.3721 252.309 11.9678 252.622C11.5635 252.933 11.0229 253.088 10.3462 253.088C9.90674 253.088 9.49658 253.004 9.11572 252.837C8.73486 252.667 8.44043 252.436 8.23242 252.143C8.02734 251.85 7.9248 251.518 7.9248 251.146H8.77295C8.77295 251.532 8.91504 251.838 9.19922 252.064C9.48633 252.287 9.86865 252.398 10.3462 252.398C10.7915 252.398 11.1328 252.307 11.3701 252.125C11.6074 251.944 11.7261 251.696 11.7261 251.383C11.7261 251.069 11.6162 250.828 11.3965 250.658C11.1768 250.485 10.7783 250.315 10.2012 250.148ZM15.5054 253.088C14.8608 253.088 14.3364 252.877 13.9321 252.455C13.5278 252.03 13.3257 251.463 13.3257 250.754V250.605C13.3257 250.133 13.415 249.713 13.5938 249.344C13.7754 248.972 14.0273 248.682 14.3496 248.474C14.6748 248.263 15.0264 248.157 15.4043 248.157C16.0225 248.157 16.5029 248.361 16.8457 248.768C17.1885 249.175 17.3599 249.758 17.3599 250.517V250.855H14.1387C14.1504 251.324 14.2866 251.704 14.5474 251.994C14.811 252.281 15.145 252.424 15.5493 252.424C15.8364 252.424 16.0796 252.366 16.2788 252.249C16.478 252.131 16.6523 251.976 16.8018 251.783L17.2983 252.169C16.8999 252.782 16.3022 253.088 15.5054 253.088ZM15.4043 248.825C15.0762 248.825 14.8008 248.945 14.5781 249.186C14.3555 249.423 14.2178 249.757 14.165 250.188H16.5469V250.126C16.5234 249.713 16.4121 249.394 16.2129 249.168C16.0137 248.939 15.7441 248.825 15.4043 248.825ZM19.4077 247.094V248.245H20.2954V248.874H19.4077V251.822C19.4077 252.013 19.4473 252.156 19.5264 252.253C19.6055 252.347 19.7402 252.394 19.9307 252.394C20.0244 252.394 20.1533 252.376 20.3174 252.341V253C20.1035 253.059 19.8955 253.088 19.6934 253.088C19.3301 253.088 19.0562 252.978 18.8716 252.758C18.687 252.539 18.5947 252.227 18.5947 251.822V248.874H17.729V248.245H18.5947V247.094H19.4077ZM22.3521 247.094V248.245H23.2397V248.874H22.3521V251.822C22.3521 252.013 22.3916 252.156 22.4707 252.253C22.5498 252.347 22.6846 252.394 22.875 252.394C22.9688 252.394 23.0977 252.376 23.2617 252.341V253C23.0479 253.059 22.8398 253.088 22.6377 253.088C22.2744 253.088 22.0005 252.978 21.8159 252.758C21.6313 252.539 21.5391 252.227 21.5391 251.822V248.874H20.6733V248.245H21.5391V247.094H22.3521ZM25.0767 253H24.2637V248.245H25.0767V253ZM24.1978 246.984C24.1978 246.852 24.2373 246.741 24.3164 246.65C24.3984 246.559 24.5186 246.514 24.6768 246.514C24.835 246.514 24.9551 246.559 25.0371 246.65C25.1191 246.741 25.1602 246.852 25.1602 246.984C25.1602 247.116 25.1191 247.226 25.0371 247.313C24.9551 247.401 24.835 247.445 24.6768 247.445C24.5186 247.445 24.3984 247.401 24.3164 247.313C24.2373 247.226 24.1978 247.116 24.1978 246.984ZM27.1509 248.245L27.1772 248.843C27.5405 248.386 28.0151 248.157 28.6011 248.157C29.606 248.157 30.1128 248.724 30.1216 249.858V253H29.3086V249.854C29.3057 249.511 29.2266 249.257 29.0713 249.093C28.9189 248.929 28.6802 248.847 28.355 248.847C28.0913 248.847 27.8599 248.917 27.6606 249.058C27.4614 249.199 27.3062 249.383 27.1948 249.612V253H26.3818V248.245H27.1509ZM31.1543 250.583C31.1543 249.842 31.3257 249.253 31.6685 248.816C32.0112 248.377 32.4653 248.157 33.0308 248.157C33.6108 248.157 34.0635 248.362 34.3887 248.772L34.4282 248.245H35.1709V252.886C35.1709 253.501 34.9878 253.986 34.6216 254.34C34.2583 254.695 33.769 254.872 33.1538 254.872C32.811 254.872 32.4756 254.799 32.1475 254.652C31.8193 254.506 31.5688 254.305 31.396 254.05L31.8179 253.562C32.1665 253.993 32.5928 254.208 33.0967 254.208C33.4922 254.208 33.7998 254.097 34.0195 253.875C34.2422 253.652 34.3535 253.338 34.3535 252.934V252.525C34.0283 252.9 33.5845 253.088 33.022 253.088C32.4653 253.088 32.0142 252.864 31.6685 252.416C31.3257 251.967 31.1543 251.356 31.1543 250.583ZM31.9717 250.675C31.9717 251.211 32.0815 251.633 32.3013 251.941C32.521 252.246 32.8286 252.398 33.2241 252.398C33.7368 252.398 34.1133 252.165 34.3535 251.699V249.528C34.1045 249.074 33.731 248.847 33.2329 248.847C32.8374 248.847 32.5283 249.001 32.3057 249.309C32.083 249.616 31.9717 250.072 31.9717 250.675ZM39.1699 251.739C39.1699 251.519 39.0864 251.349 38.9194 251.229C38.7554 251.106 38.4668 251 38.0537 250.913C37.6436 250.825 37.3169 250.719 37.0737 250.596C36.8335 250.473 36.6548 250.327 36.5376 250.157C36.4233 249.987 36.3662 249.785 36.3662 249.55C36.3662 249.161 36.5303 248.831 36.8584 248.562C37.1895 248.292 37.6113 248.157 38.124 248.157C38.6631 248.157 39.0996 248.296 39.4336 248.575C39.7705 248.853 39.939 249.209 39.939 249.643H39.1216C39.1216 249.42 39.0264 249.228 38.8359 249.067C38.6484 248.906 38.4111 248.825 38.124 248.825C37.8281 248.825 37.5967 248.89 37.4297 249.019C37.2627 249.147 37.1792 249.316 37.1792 249.524C37.1792 249.72 37.2568 249.868 37.4121 249.968C37.5674 250.067 37.8472 250.163 38.2515 250.253C38.6587 250.344 38.9883 250.453 39.2402 250.579C39.4922 250.705 39.6782 250.857 39.7983 251.036C39.9214 251.211 39.9829 251.427 39.9829 251.682C39.9829 252.106 39.813 252.448 39.4731 252.706C39.1333 252.96 38.6924 253.088 38.1504 253.088C37.7695 253.088 37.4326 253.021 37.1396 252.886C36.8467 252.751 36.6167 252.563 36.4497 252.323C36.2856 252.08 36.2036 251.818 36.2036 251.537H37.0166C37.0312 251.809 37.1396 252.026 37.3418 252.187C37.5469 252.345 37.8164 252.424 38.1504 252.424C38.458 252.424 38.7041 252.363 38.8887 252.24C39.0762 252.114 39.1699 251.947 39.1699 251.739Z" fill="#5B728C"/>
</g>
</g>
<rect x="0.5" y="0.5" width="47" height="263" rx="7.5" stroke="#0094FF"/>
<defs>
<clipPath id="clip0_54_3703">
<rect width="48" height="264" rx="8" fill="white"/>
</clipPath>
<clipPath id="clip1_54_3703">
<rect width="48" height="546" fill="white" transform="translate(0 -16)"/>
</clipPath>
</defs>
</svg>
