<svg width="133" height="168" viewBox="0 0 133 168" fill="none" xmlns="http://www.w3.org/2000/svg">
<rect x="0.5" y="0.5" width="132" height="167" rx="8.5" fill="#0C0D0F" stroke="#0094FF"/>
<mask id="mask0_63_3794" style="mask-type:alpha" maskUnits="userSpaceOnUse" x="1" y="1" width="131" height="166">
<rect x="1" y="1" width="131" height="166" rx="8" fill="#0C0D0F"/>
</mask>
<g mask="url(#mask0_63_3794)">
<rect x="1" y="-48" width="130.532" height="370.209" rx="8" fill="#0C0D0F"/>
<g clip-path="url(#clip0_63_3794)">
<rect x="13.1682" y="85.1129" width="105.263" height="40.5607" rx="2.58114" fill="#101114" stroke="#1D1F24" stroke-width="0.737468"/>
<path d="M25.3293 99.6436V93.352H27.1052C27.6526 93.352 28.1365 93.473 28.5571 93.715C28.9777 93.957 29.3018 94.3012 29.5294 94.7477C29.7598 95.1943 29.8765 95.707 29.8794 96.2861V96.6879C29.8794 97.2814 29.7642 97.8013 29.5337 98.2478C29.3061 98.6944 28.9792 99.0372 28.5528 99.2763C28.1293 99.5154 27.6353 99.6378 27.0707 99.6436H25.3293ZM26.1589 94.0348V98.9651H27.0318C27.6713 98.9651 28.1682 98.7664 28.5226 98.3688C28.8798 97.9713 29.0584 97.4052 29.0584 96.6706V96.3033C29.0584 95.5889 28.8899 95.0344 28.5528 94.6397C28.2186 94.2422 27.7433 94.0405 27.1268 94.0348H26.1589ZM33.898 99.1812C33.5869 99.5471 33.1303 99.73 32.5282 99.73C32.0299 99.73 31.6496 99.5859 31.3875 99.2979C31.1282 99.0069 30.9971 98.5777 30.9942 98.0102V94.9681H31.7936V97.9886C31.7936 98.6972 32.0817 99.0516 32.6579 99.0516C33.2686 99.0516 33.6748 98.824 33.8764 98.3688V94.9681H34.6758V99.6436H33.9153L33.898 99.1812ZM38.1543 95.6854C38.0333 95.6653 37.9022 95.6552 37.7611 95.6552C37.2368 95.6552 36.881 95.8784 36.6938 96.3249V99.6436H35.8944V94.9681H36.6722L36.6851 95.5083C36.9473 95.0906 37.3189 94.8817 37.8 94.8817C37.9555 94.8817 38.0736 94.9019 38.1543 94.9422V95.6854ZM41.6069 99.6436C41.5608 99.5514 41.5233 99.3872 41.4945 99.1509C41.1229 99.537 40.6793 99.73 40.1636 99.73C39.7027 99.73 39.3239 99.6003 39.0272 99.3411C38.7333 99.0789 38.5864 98.7476 38.5864 98.3472C38.5864 97.8604 38.7708 97.483 39.1395 97.2151C39.5111 96.9443 40.0325 96.8089 40.7037 96.8089H41.4815V96.4416C41.4815 96.1622 41.398 95.9404 41.2309 95.7762C41.0638 95.6091 40.8175 95.5255 40.492 95.5255C40.2068 95.5255 39.9677 95.5976 39.7747 95.7416C39.5817 95.8856 39.4852 96.0599 39.4852 96.2645H38.6815C38.6815 96.0311 38.7636 95.8064 38.9278 95.5904C39.0949 95.3714 39.3196 95.1986 39.6019 95.0718C39.8871 94.9451 40.1996 94.8817 40.5395 94.8817C41.0782 94.8817 41.5003 95.0171 41.8056 95.2879C42.111 95.5558 42.2694 95.926 42.281 96.3984V98.5503C42.281 98.9795 42.3357 99.3209 42.4452 99.5744V99.6436H41.6069ZM40.2803 99.0343C40.5309 99.0343 40.7686 98.9695 40.9933 98.8398C41.218 98.7102 41.3807 98.5417 41.4815 98.3343V97.375H40.855C39.8755 97.375 39.3858 97.6616 39.3858 98.2349C39.3858 98.4855 39.4694 98.6814 39.6364 98.8225C39.8035 98.9637 40.0181 99.0343 40.2803 99.0343ZM44.6187 93.836V94.9681H45.4915V95.586H44.6187V98.4855C44.6187 98.6727 44.6576 98.8139 44.7353 98.909C44.8131 99.0012 44.9456 99.0472 45.1329 99.0472C45.2251 99.0472 45.3518 99.03 45.5131 98.9954V99.6436C45.3028 99.7012 45.0983 99.73 44.8995 99.73C44.5423 99.73 44.273 99.6219 44.0915 99.4059C43.91 99.1898 43.8193 98.883 43.8193 98.4855V95.586H42.968V94.9681H43.8193V93.836H44.6187ZM47.2978 99.6436H46.4983V94.9681H47.2978V99.6436ZM46.4335 93.728C46.4335 93.5983 46.4724 93.4889 46.5502 93.3996C46.6309 93.3103 46.749 93.2656 46.9045 93.2656C47.0601 93.2656 47.1782 93.3103 47.2589 93.3996C47.3395 93.4889 47.3799 93.5983 47.3799 93.728C47.3799 93.8576 47.3395 93.9656 47.2589 94.052C47.1782 94.1385 47.0601 94.1817 46.9045 94.1817C46.749 94.1817 46.6309 94.1385 46.5502 94.052C46.4724 93.9656 46.4335 93.8576 46.4335 93.728ZM48.3694 97.2626C48.3694 96.8046 48.4587 96.3926 48.6373 96.0268C48.8188 95.6609 49.0694 95.3786 49.3892 95.1799C49.7118 94.9811 50.0791 94.8817 50.491 94.8817C51.1277 94.8817 51.6419 95.1021 52.0337 95.5428C52.4283 95.9836 52.6257 96.5698 52.6257 97.3015V97.3577C52.6257 97.8128 52.5378 98.2219 52.3621 98.5849C52.1892 98.945 51.9401 99.2258 51.6145 99.4275C51.2919 99.6292 50.9203 99.73 50.4997 99.73C49.8659 99.73 49.3517 99.5096 48.9571 99.0688C48.5653 98.6281 48.3694 98.0447 48.3694 97.3188V97.2626ZM49.1731 97.3577C49.1731 97.8762 49.2927 98.2925 49.5318 98.6065C49.7737 98.9205 50.0964 99.0775 50.4997 99.0775C50.9059 99.0775 51.2285 98.919 51.4676 98.6022C51.7067 98.2824 51.8263 97.8359 51.8263 97.2626C51.8263 96.7499 51.7038 96.335 51.459 96.0181C51.217 95.6984 50.8943 95.5385 50.491 95.5385C50.0964 95.5385 49.7781 95.6955 49.5361 96.0095C49.2941 96.3235 49.1731 96.7729 49.1731 97.3577ZM54.3844 94.9681L54.4103 95.5558C54.7675 95.1064 55.2342 94.8817 55.8103 94.8817C56.7984 94.8817 57.2968 95.4391 57.3054 96.554V99.6436H56.506V96.5496C56.5031 96.2126 56.4254 95.9634 56.2727 95.8021C56.1229 95.6408 55.8881 95.5601 55.5683 95.5601C55.3091 95.5601 55.0815 95.6293 54.8856 95.7675C54.6897 95.9058 54.537 96.0873 54.4276 96.312V99.6436H53.6282V94.9681H54.3844Z" fill="#5D6C79"/>
<path d="M28.5602 115.443H27.4886V108.339L25.3396 109.129V108.161L28.3931 107.014H28.5602V115.443ZM35.7217 109.209L35.7505 109.901C36.2076 109.363 36.8241 109.094 37.6 109.094C38.4719 109.094 39.0653 109.428 39.3803 110.097C39.5877 109.797 39.8565 109.555 40.1869 109.371C40.521 109.186 40.9147 109.094 41.368 109.094C42.7354 109.094 43.4306 109.818 43.4536 111.266V115.443H42.3877V111.33C42.3877 110.884 42.286 110.552 42.0824 110.333C41.8788 110.11 41.537 109.999 41.0568 109.999C40.6612 109.999 40.3328 110.118 40.0716 110.356C39.8104 110.59 39.6587 110.907 39.6165 111.307V115.443H38.5448V111.358C38.5448 110.452 38.1012 109.999 37.2139 109.999C36.5149 109.999 36.0367 110.296 35.7793 110.892V115.443H34.7135V109.209H35.7217ZM46.2249 115.443H45.159V109.209H46.2249V115.443ZM45.0726 107.556C45.0726 107.383 45.1244 107.237 45.2282 107.118C45.3357 106.999 45.4932 106.939 45.7006 106.939C45.908 106.939 46.0655 106.999 46.173 107.118C46.2806 107.237 46.3344 107.383 46.3344 107.556C46.3344 107.729 46.2806 107.873 46.173 107.988C46.0655 108.103 45.908 108.161 45.7006 108.161C45.4932 108.161 45.3357 108.103 45.2282 107.988C45.1244 107.873 45.0726 107.729 45.0726 107.556ZM48.9443 109.209L48.9789 109.993C49.4551 109.394 50.0774 109.094 50.8456 109.094C52.163 109.094 52.8275 109.837 52.839 111.324V115.443H51.7732V111.318C51.7693 110.869 51.6656 110.537 51.4621 110.321C51.2623 110.106 50.9493 109.999 50.5229 109.999C50.1773 109.999 49.8738 110.091 49.6126 110.275C49.3514 110.46 49.1479 110.702 49.0019 111.001V115.443H47.936V109.209H48.9443Z" fill="white"/>
<rect x="68.8472" y="131.942" width="50.1478" height="17.6992" rx="2.94987" fill="#141619"/>
<path fill-rule="evenodd" clip-rule="evenodd" d="M93.8471 137.255C94.2544 137.255 94.5846 137.585 94.5846 137.992V140.205H96.797C97.2043 140.205 97.5345 140.535 97.5345 140.942C97.5345 141.35 97.2043 141.68 96.797 141.68H94.5846V143.892C94.5846 144.299 94.2544 144.63 93.8471 144.63C93.4398 144.63 93.1097 144.299 93.1097 143.892V141.68H90.8973C90.49 141.68 90.1598 141.35 90.1598 140.942C90.1598 140.535 90.49 140.205 90.8973 140.205H93.1097V137.992C93.1097 137.585 93.4398 137.255 93.8471 137.255Z" fill="white"/>
<rect x="12.7994" y="131.942" width="50.1478" height="17.6992" rx="2.94987" fill="#141619"/>
<path fill-rule="evenodd" clip-rule="evenodd" d="M34.1121 140.943C34.1121 140.535 34.4422 140.205 34.8495 140.205H40.7493C41.1566 140.205 41.4867 140.535 41.4867 140.943C41.4867 141.35 41.1566 141.68 40.7493 141.68H34.8495C34.4422 141.68 34.1121 141.35 34.1121 140.943Z" fill="white"/>
<rect x="13.1682" y="8.41659" width="105.263" height="40.5607" rx="2.58114" fill="#141619" stroke="#1C1E23" stroke-width="0.737468"/>
<path d="M28.8034 21.3062H26.1676L25.5756 22.9482H24.72L27.1225 16.6567H27.8485L30.2553 22.9482H29.4041L28.8034 21.3062ZM26.4182 20.6235H28.5571L27.4855 17.6808L26.4182 20.6235ZM31.7288 18.2728L31.7504 18.7913C32.0932 18.388 32.5556 18.1864 33.1375 18.1864C33.7914 18.1864 34.2365 18.437 34.4727 18.9383C34.6283 18.7136 34.8299 18.5321 35.0777 18.3938C35.3283 18.2555 35.6236 18.1864 35.9635 18.1864C36.989 18.1864 37.5105 18.7294 37.5277 19.8154V22.9482H36.7283V19.863C36.7283 19.5288 36.652 19.2796 36.4993 19.1154C36.3466 18.9483 36.0903 18.8648 35.7302 18.8648C35.4334 18.8648 35.1871 18.9541 34.9913 19.1327C34.7954 19.3084 34.6816 19.5461 34.6499 19.8457V22.9482H33.8462V19.8846C33.8462 19.2047 33.5134 18.8648 32.848 18.8648C32.3237 18.8648 31.965 19.0881 31.772 19.5346V22.9482H30.9726V18.2728H31.7288ZM38.5259 20.5673C38.5259 20.1093 38.6152 19.6973 38.7938 19.3315C38.9753 18.9656 39.2259 18.6833 39.5457 18.4845C39.8683 18.2858 40.2356 18.1864 40.6476 18.1864C41.2842 18.1864 41.7984 18.4068 42.1902 18.8475C42.5849 19.2883 42.7822 19.8745 42.7822 20.6062V20.6624C42.7822 21.1175 42.6943 21.5266 42.5186 21.8896C42.3458 22.2497 42.0966 22.5305 41.7711 22.7322C41.4484 22.9338 41.0768 23.0347 40.6562 23.0347C40.0225 23.0347 39.5082 22.8143 39.1136 22.3735C38.7218 21.9328 38.5259 21.3494 38.5259 20.6235V20.5673ZM39.3296 20.6624C39.3296 21.1809 39.4492 21.5972 39.6883 21.9112C39.9303 22.2252 40.2529 22.3822 40.6562 22.3822C41.0624 22.3822 41.385 22.2237 41.6241 21.9069C41.8632 21.5871 41.9828 21.1406 41.9828 20.5673C41.9828 20.0545 41.8604 19.6397 41.6155 19.3228C41.3735 19.0031 41.0509 18.8432 40.6476 18.8432C40.2529 18.8432 39.9346 19.0002 39.6926 19.3142C39.4506 19.6282 39.3296 20.0776 39.3296 20.6624ZM46.6712 22.4859C46.3601 22.8517 45.9035 23.0347 45.3014 23.0347C44.803 23.0347 44.4228 22.8906 44.1606 22.6026C43.9014 22.3116 43.7703 21.8824 43.7674 21.3149V18.2728H44.5668V21.2933C44.5668 22.0019 44.8549 22.3563 45.431 22.3563C46.0418 22.3563 46.4479 22.1287 46.6496 21.6735V18.2728H47.449V22.9482H46.6885L46.6712 22.4859ZM49.4237 18.2728L49.4497 18.8605C49.8069 18.4111 50.2735 18.1864 50.8497 18.1864C51.8378 18.1864 52.3362 18.7438 52.3448 19.8587V22.9482H51.5454V19.8543C51.5425 19.5173 51.4647 19.2681 51.3121 19.1068C51.1623 18.9455 50.9275 18.8648 50.6077 18.8648C50.3484 18.8648 50.1209 18.9339 49.925 19.0722C49.7291 19.2105 49.5764 19.392 49.4669 19.6167V22.9482H48.6675V18.2728H49.4237ZM54.635 17.1407V18.2728H55.5078V18.8907H54.635V21.7902C54.635 21.9774 54.6739 22.1186 54.7517 22.2137C54.8294 22.3058 54.9619 22.3519 55.1492 22.3519C55.2414 22.3519 55.3681 22.3346 55.5295 22.3001V22.9482C55.3192 23.0059 55.1146 23.0347 54.9159 23.0347C54.5586 23.0347 54.2893 22.9266 54.1078 22.7106C53.9263 22.4945 53.8356 22.1877 53.8356 21.7902V18.8907H52.9843V18.2728H53.8356V17.1407H54.635ZM58.8956 22.9482V20.0704H58.0659V19.4179H58.8956V16.6567H60.6716C61.2189 16.6567 61.7029 16.7777 62.1235 17.0197C62.544 17.2617 62.8681 17.6059 63.0957 18.0524C63.3262 18.4989 63.4428 19.0117 63.4457 19.5907V19.9926C63.4457 20.586 63.3305 21.106 63.1 21.5525C62.8724 21.999 62.5455 22.3418 62.1191 22.5809C61.6957 22.82 61.2016 22.9425 60.637 22.9482H58.8956ZM60.8142 20.0704H59.7252V22.2698H60.5938C61.2333 22.2698 61.7302 22.0725 62.0846 21.6778C62.4418 21.2832 62.6218 20.7272 62.6247 20.0099V19.608C62.6247 18.8936 62.4562 18.3391 62.1191 17.9444C61.785 17.5469 61.3096 17.3452 60.6932 17.3395H59.7252V19.4179H60.8142V20.0704Z" fill="#5D6C79"/>
<path d="M26.1085 34.0342H26.9094C27.4126 34.0265 27.8082 33.894 28.0963 33.6366C28.3843 33.3793 28.5284 33.0317 28.5284 32.5938C28.5284 31.6105 28.0386 31.1189 27.0592 31.1189C26.5983 31.1189 26.2295 31.2514 25.953 31.5164C25.6803 31.7776 25.5439 32.1252 25.5439 32.5593H24.478C24.478 31.8948 24.72 31.3436 25.204 30.9057C25.6918 30.464 26.3102 30.2431 27.0592 30.2431C27.8504 30.2431 28.4707 30.4525 28.9201 30.8711C29.3695 31.2898 29.5942 31.8717 29.5942 32.6169C29.5942 32.9818 29.4752 33.3351 29.237 33.677C29.0027 34.0188 28.682 34.2742 28.2749 34.4433C28.7358 34.5892 29.0911 34.8312 29.3407 35.1692C29.5942 35.5072 29.721 35.9201 29.721 36.4079C29.721 37.1607 29.4752 37.758 28.9835 38.1997C28.4919 38.6414 27.8524 38.8623 27.0649 38.8623C26.2775 38.8623 25.6361 38.6491 25.1406 38.2228C24.649 37.7964 24.4032 37.2337 24.4032 36.5347H25.4748C25.4748 36.9764 25.6188 37.3297 25.9069 37.5948C26.195 37.8598 26.581 37.9923 27.0649 37.9923C27.5796 37.9923 27.9733 37.8579 28.2461 37.589C28.5188 37.3201 28.6551 36.9341 28.6551 36.431C28.6551 35.9432 28.5053 35.5687 28.2057 35.3075C27.9061 35.0463 27.474 34.9119 26.9094 34.9042H26.1085V34.0342Z" fill="white"/>
<rect x="68.8472" y="55.2461" width="50.1478" height="17.6992" rx="2.94987" fill="#141619"/>
<path fill-rule="evenodd" clip-rule="evenodd" d="M93.8471 60.5586C94.2544 60.5586 94.5846 60.8888 94.5846 61.2961V63.5085H96.797C97.2043 63.5085 97.5345 63.8386 97.5345 64.2459C97.5345 64.6532 97.2043 64.9834 96.797 64.9834H94.5846V67.1958C94.5846 67.6031 94.2544 67.9333 93.8471 67.9333C93.4398 67.9333 93.1097 67.6031 93.1097 67.1958V64.9834H90.8973C90.49 64.9834 90.1598 64.6532 90.1598 64.2459C90.1598 63.8386 90.49 63.5085 90.8973 63.5085H93.1097V61.2961C93.1097 60.8888 93.4398 60.5586 93.8471 60.5586Z" fill="white"/>
<rect x="12.7994" y="55.2461" width="50.1478" height="17.6992" rx="2.94987" fill="#141619"/>
<path fill-rule="evenodd" clip-rule="evenodd" d="M34.1121 64.2463C34.1121 63.839 34.4422 63.5088 34.8495 63.5088H40.7493C41.1566 63.5088 41.4867 63.839 41.4867 64.2463C41.4867 64.6535 41.1566 64.9837 40.7493 64.9837H34.8495C34.4422 64.9837 34.1121 64.6535 34.1121 64.2463Z" fill="white"/>
</g>
</g>
<defs>
<clipPath id="clip0_63_3794">
<rect width="106.195" height="141.594" fill="white" transform="translate(12.7994 8.04785)"/>
</clipPath>
</defs>
</svg>
