<svg width="24" height="24" viewBox="0 0 24 24" fill="none" xmlns="http://www.w3.org/2000/svg">
<path fill-rule="evenodd" clip-rule="evenodd" d="M17 4.77485C17 4.09229 16.3313 3.61033 15.6838 3.82617L9.16228 6H17V4.77485ZM19 6V4.77485C19 2.72718 16.9939 1.28127 15.0513 1.9288L4.05132 5.59547C2.82629 6.00381 2 7.15023 2 8.44152V17C2 18.6569 3.34315 20 5 20H19C20.6569 20 22 18.6569 22 17V9C22 7.34315 20.6569 6 19 6ZM5 8C4.44772 8 4 8.44772 4 9V17C4 17.5523 4.44772 18 5 18H19C19.5523 18 20 17.5523 20 17V9C20 8.44772 19.5523 8 19 8H5Z" fill="white"/>
<path d="M16 12.9992C16 12.4474 16.4473 12 16.9992 12C17.551 12 17.9984 12.4474 17.9984 12.9992C17.9984 13.5511 17.551 13.9985 16.9992 13.9985C16.4473 13.9985 16 13.5511 16 12.9992Z" fill="white"/>
</svg>
