<svg width="16" height="16" viewBox="0 0 16 16" fill="none" xmlns="http://www.w3.org/2000/svg">
<rect width="16" height="16" fill="black"/>
<path fill-rule="evenodd" clip-rule="evenodd" d="M9.82419 3.33494L8.70486 3.33301C7.44735 3.33301 6.63468 4.22999 6.63468 5.6183V6.67197H5.50925C5.412 6.67197 5.33325 6.75679 5.33325 6.86141V8.38806C5.33325 8.49268 5.41209 8.57741 5.50925 8.57741H6.63468V12.4296C6.63468 12.5343 6.71343 12.619 6.81068 12.619H8.27905C8.3763 12.619 8.45505 12.5342 8.45505 12.4296V8.57741H9.77094C9.86819 8.57741 9.94694 8.49268 9.94694 8.38806L9.94748 6.86141C9.94748 6.81118 9.92889 6.76307 9.89593 6.72752C9.86298 6.69197 9.81808 6.67197 9.77138 6.67197H8.45505V5.77876C8.45505 5.34945 8.55014 5.1315 9.06998 5.1315L9.82401 5.13121C9.92117 5.13121 9.99992 5.0464 9.99992 4.94187V3.52429C9.99992 3.41986 9.92126 3.33513 9.82419 3.33494Z" fill="white"/>
</svg>
