<svg width="22" height="22" viewBox="0 0 22 22" fill="none" xmlns="http://www.w3.org/2000/svg">
<path d="M16.3834 15.0788C16.2113 15.0718 16.0774 14.9234 16.0846 14.7474C16.0917 14.5715 16.2371 14.4343 16.4092 14.4413C18.6255 14.531 20.5025 12.7603 20.5942 10.4947C20.6859 8.22964 18.9574 6.31432 16.7417 6.22465C16.5559 6.21713 16.3589 6.22576 16.1217 6.25256C15.9875 6.26819 15.8582 6.19145 15.8033 6.06535C14.9215 4.03041 13.0278 2.71245 10.8613 2.62477C8.25282 2.51921 5.92271 4.23771 5.1944 6.80389C5.1536 6.94783 5.01146 7.03466 4.87412 7.03357L4.79512 7.0259C4.79325 7.02583 4.79138 7.02575 4.78951 7.02568C2.86307 6.94771 1.28082 8.44107 1.20347 10.3523C1.12607 12.2647 2.58494 13.8818 4.4559 13.9575C4.62797 13.9645 4.76184 14.113 4.75472 14.2889C4.7476 14.4648 4.60217 14.602 4.4301 14.595C2.21563 14.5054 0.488412 12.5908 0.580025 10.327C0.670375 8.09454 2.49601 6.34285 4.67013 6.38039C5.55483 3.66858 8.07538 1.87349 10.8865 1.98726C13.2169 2.08157 15.2632 3.45806 16.2788 5.59675C16.4541 5.58405 16.6129 5.5809 16.7669 5.58713C19.3267 5.69073 21.3229 7.90359 21.217 10.5199C21.1123 13.1374 18.9432 15.1824 16.3834 15.0788Z" fill="#CCCCCC" stroke="#CCCCCC"/>
<rect x="6.5" y="10.9102" width="1.14398" height="7.11734" rx="0.571992" transform="rotate(15 6.5 10.9102)" fill="#73B6E6"/>
<rect x="8.49634" y="13.9736" width="1.14398" height="7.11734" rx="0.571992" transform="rotate(15 8.49634 13.9736)" fill="#73B6E6"/>
<rect x="12.4888" y="10.9099" width="1.14398" height="7.11734" rx="0.571992" transform="rotate(15 12.4888 10.9099)" fill="#73B6E6"/>
<rect x="14.4851" y="13.9736" width="1.14398" height="7.11734" rx="0.571992" transform="rotate(15 14.4851 13.9736)" fill="#73B6E6"/>
</svg>
