<svg width="24" height="24" viewBox="0 0 24 24" fill="none" xmlns="http://www.w3.org/2000/svg">
<path fill-rule="evenodd" clip-rule="evenodd" d="M16.9459 5.64331C16.5978 5.64331 16.2613 5.68932 15.9293 5.74582C14.5612 3.29965 11.9485 1.64404 8.94632 1.64404C4.52852 1.64404 0.946777 5.22529 0.946777 9.64309C0.946777 12.6393 2.59689 15.247 5.03556 16.6171C5.17357 15.986 5.48159 15.3845 5.97212 14.8944L6.00062 14.8659C4.1785 13.8354 2.94741 11.8842 2.94741 9.64309C2.94741 6.32986 5.6336 3.64368 8.94682 3.64368C11.7925 3.64368 14.1637 5.63081 14.7797 8.28899C15.4048 7.88397 16.1463 7.64345 16.9464 7.64345C19.1555 7.64345 20.9461 9.43407 20.9461 11.6432C20.9461 13.3648 19.8551 14.8289 18.3285 15.3925C18.7225 15.9655 18.9255 16.6281 18.9395 17.2961C21.2722 16.4736 22.9468 14.2569 22.9468 11.6432C22.9458 8.3295 20.2596 5.64331 16.9459 5.64331Z" fill="#DEDEDE"/>
<path d="M7.35134 15.835L8.19985 15L9.04836 15.835C9.51722 16.2965 9.51722 17.0437 9.04836 17.5051C8.5799 17.9665 7.8202 17.9665 7.35134 17.5051C6.88289 17.0437 6.88289 16.2965 7.35134 15.835Z" fill="#5DB3FB"/>
<path d="M10.1517 18.9839L11.0002 18.1488L11.8483 18.9839C12.3172 19.4453 12.3172 20.1933 11.8483 20.6539C11.3798 21.1154 10.6202 21.1154 10.1517 20.6539C9.68284 20.1933 9.68284 19.4453 10.1517 18.9839Z" fill="#5DB3FB"/>
<path d="M10.9516 12.835L11.8002 12L12.6487 12.835C13.1171 13.2965 13.1171 14.0437 12.6487 14.5051C12.1798 14.9665 11.4201 14.9665 10.9516 14.5051C10.4828 14.0437 10.4828 13.2965 10.9516 12.835Z" fill="#5DB3FB"/>
<path d="M17.6408 16.5853L17.2481 16.1925L16.2183 17.2222H15.7778V16.7817L16.8075 15.7519L16.4147 15.3592L15.7778 15.9961V15H15.2222V15.9961L14.5853 15.3592L14.1925 15.7519L15.2222 16.7817V17.2222H14.7817L13.7519 16.1925L13.3592 16.5853L13.9961 17.2222H13V17.7778H13.9961L13.3592 18.4147L13.7519 18.8075L14.7817 17.7778H15.2222V18.2183L14.1925 19.2481L14.5853 19.6408L15.2222 19.0039V20H15.7778V19.0039L16.4147 19.6408L16.8075 19.2481L15.7778 18.2183V17.7778H16.2183L17.2481 18.8075L17.6408 18.4147L17.0039 17.7778H18V17.2222H17.0039L17.6408 16.5853Z" fill="#5DB3FB"/>
</svg>
