<svg xmlns="http://www.w3.org/2000/svg" viewBox="0 0 117 89" class=""><defs><linearGradient id="linearGradient-1" x1=".20586718%" x2="100.013076%" y1="99.8117449%" y2="99.8117449%"><stop offset="0%" stop-color="#CC171E"></stop><stop offset="53.99%" stop-color="#640000"></stop><stop offset="66.24%" stop-color="#650000"></stop><stop offset="73.21%" stop-color="#6B0000"></stop><stop offset="78.84%" stop-color="#750000"></stop><stop offset="83.77%" stop-color="#830000"></stop><stop offset="88.24%" stop-color="#95070A"></stop><stop offset="92.37%" stop-color="#AC1015"></stop><stop offset="96.19%" stop-color="#C8171D"></stop><stop offset="99.77%" stop-color="#E91C24"></stop><stop offset="100%" stop-color="#ED1C24"></stop></linearGradient><linearGradient id="linearGradient-2" x1="1.92818266%" x2="147.337963%" y1="140.246367%" y2="127.629093%"><stop offset="0%" stop-color="#ED1C24"></stop><stop offset="68.71%" stop-color="#D32329"></stop><stop offset="73.99%" stop-color="#CE2228"></stop><stop offset="79.83%" stop-color="#C42026"></stop><stop offset="85.95%" stop-color="#B31D22"></stop><stop offset="92.24%" stop-color="#9D171B"></stop><stop offset="98.63%" stop-color="#810E10"></stop><stop offset="100%" stop-color="#7A0B0C"></stop></linearGradient><linearGradient id="linearGradient-3" x1="-.39451582%" x2="99.6780294%" y1="100.569809%" y2="100.569809%"><stop offset="0%" stop-color="#2376BC"></stop><stop offset="4.25564%" stop-color="#226FB4"></stop><stop offset="10.54%" stop-color="#2161A5"></stop><stop offset="18.08%" stop-color="#1F4C8D"></stop><stop offset="26.6%" stop-color="#182D6C"></stop><stop offset="35.82%" stop-color="#090048"></stop><stop offset="37.42%" stop-color="#050042"></stop><stop offset="44.48%" stop-color="#080047"></stop><stop offset="55.26%" stop-color="#0E1053"></stop><stop offset="68.4%" stop-color="#172A69"></stop><stop offset="83.42%" stop-color="#1E4A8B"></stop><stop offset="99.82%" stop-color="#2375BB"></stop><stop offset="100%" stop-color="#2376BC"></stop></linearGradient><linearGradient id="linearGradient-4" x1="50.4308168%" x2="204.354356%" y1="135.850112%" y2="101.76032%"><stop offset="11.04%" stop-color="#00A2DD"></stop><stop offset="51.53%" stop-color="#0076C0"></stop><stop offset="63.76%" stop-color="#0078C1"></stop><stop offset="75.15%" stop-color="#007FC5"></stop><stop offset="86.21%" stop-color="#008ACD"></stop><stop offset="97%" stop-color="#009CD9"></stop><stop offset="100%" stop-color="#00A2DD"></stop></linearGradient><linearGradient id="linearGradient-5" x1="-1.09219733%" x2="99.6795437%" y1="100.52386%" y2="100.52386%"><stop offset="11.04%" stop-color="#00A2DD"></stop><stop offset="51.53%" stop-color="#0076C0"></stop><stop offset="63.76%" stop-color="#0078C1"></stop><stop offset="75.15%" stop-color="#007FC5"></stop><stop offset="86.21%" stop-color="#008ACD"></stop><stop offset="97%" stop-color="#009CD9"></stop><stop offset="100%" stop-color="#00A2DD"></stop></linearGradient><linearGradient id="linearGradient-6" x1=".03529341%" x2="100.24729%" y1="100.209657%" y2="100.209657%"><stop offset="0%" stop-color="#008742"></stop><stop offset="20.86%" stop-color="#00602B"></stop><stop offset="23.07%" stop-color="#00652E"></stop><stop offset="30.34%" stop-color="#007437"></stop><stop offset="37.56%" stop-color="#007F3D"></stop><stop offset="44.67%" stop-color="#008541"></stop><stop offset="51.53%" stop-color="#008742"></stop><stop offset="75.46%" stop-color="#004F1F"></stop><stop offset="100%" stop-color="#008742"></stop></linearGradient><linearGradient id="linearGradient-7" x1="-47.7325141%" x2="118.448428%" y1="149.602839%" y2="139.895557%"><stop offset="0%" stop-color="#50B848"></stop><stop offset="12.93%" stop-color="#61BB46"></stop><stop offset="31.2%" stop-color="#6EBE44"></stop><stop offset="53.99%" stop-color="#72BF44"></stop><stop offset="58.91%" stop-color="#69B742"></stop><stop offset="66.94%" stop-color="#54A63E"></stop><stop offset="77.08%" stop-color="#318C37"></stop><stop offset="88.81%" stop-color="#006A2A"></stop><stop offset="100%" stop-color="#004817"></stop></linearGradient><linearGradient id="linearGradient-8" x1="-.31441752%" x2="100.080718%" y1="100.205651%" y2="100.205651%"><stop offset="0%" stop-color="#50B848"></stop><stop offset="12.93%" stop-color="#61BB46"></stop><stop offset="31.2%" stop-color="#6EBE44"></stop><stop offset="53.99%" stop-color="#72BF44"></stop><stop offset="58.91%" stop-color="#69B742"></stop><stop offset="66.94%" stop-color="#54A63E"></stop><stop offset="77.08%" stop-color="#318C37"></stop><stop offset="88.81%" stop-color="#006A2A"></stop><stop offset="100%" stop-color="#004817"></stop></linearGradient></defs><g id="Page-1" fill="none" fill-rule="evenodd"><g id="logo_color"><g id="flame_red-wrapper"><g id="flame_red" transform="matrix(1,0,0,1,42,0)" data-svg-origin="9.476256936788559 53.09170150756836" style=""><path fill="url(#linearGradient-1)" d="M7.6898 53.0917c.2958-13.0141 29.1338-10.6479 14.3451-44.51406C10.056 15.0847.887 45.5495 7.6898 53.0917z"></path><path fill="url(#linearGradient-2)" d="M24.549 17.8944c0-7.8381-5.0282-14.64088-11.2394-17.154963C12.5701.443662 11.8307.147887 11.2391 0c0 0 1.4789 4.73239 1.4789 8.57747C12.718 23.9577.4434 25.2887.4434 40.0775c0 5.7676 2.9577 10.9436 7.2464 13.014h.1479c-.2957-1.0352-.4436-1.9225-.4436-2.9577C7.2462 39.338 24.549 36.0845 24.549 17.8944z"></path><path fill="#ED1C24" d="M7.0996 47.1761c.4437-3.1057 3.2535-6.9508 6.0634-9.7606 3.6972-3.6972 9.7606-9.7606 11.0915-17.5986-.4436 8.4296-7.0986 15.5282-11.8309 20.1127-2.0705 2.0704-3.993 4.7324-5.324 7.2465z"></path></g></g><g id="flame_blue-wrapper"><g id="flame_blue" transform="matrix(1,0,0,1,40,5)" data-svg-origin="4.948741900920868 22.802600413560867" style=""><path fill="url(#linearGradient-3)" d="M4.2188 22.5069c2.9578 1.4789 12.7183-7.5422 6.2113-18.4859-7.9859 5.7676-8.7254 13.3099-6.2113 18.4859z"></path><path fill="url(#linearGradient-4)" d="M7.4713 1.06317C6.7319.61951 5.8446.47162 5.1051.32373c0 0 .8874 1.47887.8874 3.25352C5.9925 9.0491.8164 11.1195.8164 16.7392c0 2.662 1.4789 4.7324 3.4014 6.0634 0-.2958.1479-.7394.1479-1.0352v-.2958c1.1831-3.8451 6.8028-8.1338 6.8028-14.1972.1479-2.80982-1.6267-5.17602-3.6972-6.21123z"></path><path fill="url(#linearGradient-5)" d="M4.2188 21.9153c0-3.2536 3.2535-7.2465 4.5845-9.0212 1.6267-2.2183 2.0704-3.6971 2.2183-4.4366-.4437 2.5141-2.0705 5.0282-3.6972 7.3944-.7395 1.1831-2.8099 3.4014-3.1056 6.0634z"></path></g></g><g id="flame_green-wrapper"><g id="flame_green" transform="matrix(1,0,0,1,53,21)" data-svg-origin="8.403272545337677 36.9718017578125" style=""><path fill="url(#linearGradient-6)" d="M5.4157 36.9718C5.5636 28.838 25.6763 32.6831 22.7185 10.5 15.0284 20.4085-1.8308 22.6268 5.4157 36.9718z"></path><path fill="url(#linearGradient-7)" d="M19.3168 1.9225C18.7253 1.1831 18.1337.5915 17.5422 0 15.176 17.7465.5352 20.1127.5352 29.5775c0 2.9577 2.0704 6.2112 4.8802 7.2464-.1478-.2957-.1478-.4436-.1478-.7394v-.7394c0-5.9155 17.5985-7.8381 17.5985-23.3662 0-3.4014-1.1831-7.0986-3.5493-10.0564z"></path><path fill="url(#linearGradient-8)" d="M5.2682 36.3802c-1.4789-2.3662 1.6268-5.3239 4.4366-7.2465 2.5141-1.6267 8.8733-4.5845 11.5352-10.6479-2.8098 7.0986-9.6127 9.9085-12.7183 12.1268-1.331.8873-4.1408 3.4014-3.2535 5.7676z"></path></g></g><path id="letter_s" fill="#FFF" d="M4.73154 80.5984c2.07042 1.7747 3.84507 2.8099 6.65496 2.8099 1.4788 0 4.2887-.5916 4.2887-2.662 0-1.1831-.8873-1.7746-2.5141-2.0704l-4.73238-.7395c-4.28873-.7394-6.65492-2.9577-6.65492-6.3591 0-5.6197 4.43661-7.838 9.4648-7.838 3.8451 0 7.5422 1.4788 10.2042 4.4366l-4.4366 3.1056c-1.4789-1.7746-3.6972-2.9577-6.2113-2.9577-1.33096 0-3.2535.8873-3.2535 2.3662 0 1.1831 1.03521 1.7746 3.2535 2.2183l2.2183.2957c4.5845.7395 8.4296 2.2184 8.4296 6.5071 0 6.9507-6.2113 8.2817-10.5 8.2817-3.84506 0-7.54224-1.331-10.647878-4.7324l4.436618-2.662z" class="logo-icon__letter" style="opacity: 1;" data-svg-origin="0.2949209213256836 63.73929214477539" transform="matrix(1,0,0,1,0,0)"></path><path id="letter_o" fill="#FFF" d="M23.6621 76.014c0 6.507 4.2887 12.1267 11.6831 12.1267 7.3944 0 11.6831-5.7676 11.6831-12.1267 0-6.5071-4.2887-12.1268-11.6831-12.1268-7.3944 0-11.6831 5.6197-11.6831 12.1268zm5.7676-.1479c0-5.1761 2.5141-7.2465 5.9155-7.2465 4.2887 0 5.9155 3.6972 5.9155 7.2465s-1.6268 7.2465-5.9155 7.2465c-4.5845 0-5.9155-3.8451-5.9155-7.2465z" class="logo-icon__letter" style="opacity: 1;" data-svg-origin="23.662099838256836 63.88719940185547" transform="matrix(1,0,0,1,0,0)"></path><path id="letter_c" fill="#FFF" d="M65.8092 72.1689c-.7395-2.0704-2.8099-3.4014-4.7324-3.4014-3.1057 0-5.6197 2.0704-5.6197 7.2465 0 3.4014 1.3309 7.2464 5.9155 7.2464 1.6267 0 3.845-1.1831 4.7323-3.2535l4.5846 2.2183c-1.9226 3.5493-5.4719 5.9155-9.3169 5.9155-7.3944 0-11.6831-5.6197-11.6831-12.1267 0-6.5071 3.9929-12.1268 11.2394-12.1268 4.5845 0 7.5422 2.2183 9.6127 6.0634l-4.7324 2.2183z" class="logo-icon__letter" style="opacity: 1;" data-svg-origin="49.68949890136719 63.88719177246094" transform="matrix(1,0,0,1,0,0)"></path><path id="letter_a" fill="#FFF" d="M85.4793 64.4785h-5.9155l-8.5775 23.0704h6.2113l1.1831-3.5493h8.4296l1.1831 3.5493h6.2112l-8.7253-23.0704zm-2.8099 5.6197l2.8099 9.4648h-5.6197l2.8098-9.4648z" class="logo-icon__letter" style="opacity: 1;" data-svg-origin="70.9863052368164 64.47850036621094" transform="matrix(1,0,0,1,0,0)"></path><path id="letter_r" fill="#FFF" d="M107.958 64.4785c5.177 0 8.282 2.3662 8.282 7.5423 0 2.9577-1.922 5.3239-4.732 6.2112l5.324 9.3169h-6.507l-4.585-8.2817h-3.697v8.2817h-5.7676V64.4785h11.6826zm-.443 10.5c1.774 0 3.105-1.0352 3.105-3.1056 0-2.0704-1.183-3.1057-3.105-3.1057h-5.324v6.2113h5.324z" class="logo-icon__letter" style="opacity: 1;" data-svg-origin="96.27539825439453 64.47850036621094" transform="matrix(1,0,0,1,0,0)"></path></g></g></svg>