<svg width="60" height="60" viewBox="0 0 60 60" fill="none" xmlns="http://www.w3.org/2000/svg">
<path fill-rule="evenodd" clip-rule="evenodd" d="M30.0323 58.0002H29.9723C29.9043 57.9992 29.8373 57.9862 29.7713 57.9712H29.7683H29.7713L29.7623 57.9692C14.1573 54.2862 3.54223 38.0001 4.01623 12.981C4.02123 12.701 4.14325 12.437 4.35225 12.251C4.56225 12.066 4.83925 11.977 5.11725 12.005C13.2133 12.834 22.2543 9.21903 27.2813 2.406C27.4693 2.151 27.7683 2 28.0853 2H31.9303C32.2483 2 32.5473 2.151 32.7353 2.406C37.7624 9.21903 46.7884 12.834 54.8834 12.005C55.1624 11.977 55.4394 12.066 55.6484 12.251C55.8584 12.437 55.9804 12.701 55.9854 12.981C56.4594 38.0021 45.8414 54.2892 30.2373 57.9702L30.1943 57.9752L30.2323 57.9712L30.1923 57.9762C30.1403 57.9872 30.0873 57.9982 30.0323 58.0002ZM28.5833 4.00001H31.4333C36.6964 10.811 45.6934 14.552 53.9994 14.081C54.1414 37.1871 44.5114 52.4162 30.0003 55.9692C15.4903 52.4162 5.85925 37.1871 6.00225 14.081C14.3093 14.552 23.3193 10.811 28.5833 4.00001ZM18.4413 37.8971C16.9023 35.6491 16.0003 32.9291 16.0003 30.0001C16.0003 22.2731 22.2743 16.0001 30.0003 16.0001C37.7274 16.0001 44.0004 22.2731 44.0004 30.0001C44.0004 37.3661 38.2994 43.4112 31.0733 43.9592C30.7963 43.9782 30.5253 43.8802 30.3233 43.6912C30.1213 43.5022 30.0063 43.2372 30.0063 42.9602C30.0003 42.9592 30.0003 42.9592 30.0003 42.9582C30.0013 42.4311 30.4103 41.9941 30.9363 41.9591C37.1224 41.4861 42.0004 36.3081 42.0004 30.0001C42.0004 23.3771 36.6234 18.0001 30.0003 18.0001C23.3773 18.0001 18.0003 23.3771 18.0003 30.0001C18.0003 32.5051 18.7693 34.8311 20.0843 36.7561L20.4283 35.2791C20.5533 34.7411 21.0913 34.4061 21.6283 34.5311C22.1663 34.6571 22.5013 35.1951 22.3763 35.7321L21.4693 39.6281C21.3443 40.1661 20.8063 40.5001 20.2683 40.3751L16.3723 39.4691C15.8353 39.3431 15.5003 38.8051 15.6253 38.2681C15.7503 37.7301 16.2883 37.3961 16.8263 37.5211L18.4413 37.8971ZM24.2933 31.7071L28.2933 35.7071C28.4983 35.9121 28.7823 36.0181 29.0713 35.9971C29.3603 35.9771 29.6263 35.8321 29.8003 35.6001L35.8004 27.6001C36.1314 27.1581 36.0424 26.5311 35.6004 26.2001C35.1594 25.8691 34.5314 25.9581 34.2004 26.4001L28.8923 33.4781L25.7073 30.2931C25.3173 29.9031 24.6833 29.9031 24.2933 30.2931C23.9033 30.6831 23.9033 31.3171 24.2933 31.7071Z" fill="url(#paint0_linear_136_463)"/>
<defs>
<linearGradient id="paint0_linear_136_463" x1="38.0004" y1="45.0002" x2="14.0003" y2="21.0001" gradientUnits="userSpaceOnUse">
<stop stop-color="#0053FA"/>
<stop offset="1" stop-color="#0099FA"/>
</linearGradient>
</defs>
</svg>
