<svg width="215" height="80" viewBox="0 0 215 80" xmlns="http://www.w3.org/2000/svg">
  <g fill="none" fill-rule="evenodd">
    <path fill="#E52329" d="M11 75l16-41.3h5l4 7.7 4.7-7.7H45L53.7 50h-5.5l-5.6-10.2L36.2 50l-6.8-10.3"/>
    <g fill="#18407E">
      <path d="M4 49.8C4 37 14.6 26.5 27.3 26.5h1l1.4-4h-1c-.6-.2-.8-.2-1.4-.2C12.2 22.3 0 34.7 0 49.8c0 9 4.3 17 11 22l.4-1C5 66 1 58.4 1 49.8 1 35.3 13 23.4 27.3 23.4h1l-.8 2h-.2C14 25.4 3 36.4 3 49.8c0 7.8 3.6 14.7 9 19.2l.5-1C7.5 63.5 4 57 4 49.7zM54.6 51l-.2 1.2v1c-1.8 13.8-13.4 24-27 24-5.3 0-10.2-1.3-14.3-4l.5-1c4 2.6 8.7 4 13.7 4 13 0 24.3-10 26-23v-1h-28l-1 1.8h27C49 65.7 39 74.3 27 74.3c-4.7 0-9-1.4-12.8-3.7l.5-1c3.5 2.3 7.7 3.6 12.2 3.6 5.4 0 10.7-2 15-5.5 3.7-3.3 6.4-7.7 7.5-12.6H22.5l2-4h30z"/>
      <path d="M21.6 56.8L19.4 61h22c-.7 1-1.6 2-2.6 3C35.5 66.6 31.4 68 27 68c-3.5 0-7-1-9.8-3l-1.5 3C19 70 23 71.4 27 71.4c9.4 0 17.5-6 20.4-14.7H21.6zm6-28.6l-1.2 3.3C16.7 32 9 40 9 49.8c0 5.2 2 10 5.4 13.2l-1.2 3.2c-4.6-4-7.5-9.8-7.5-16.4 0-12 9.6-21.6 21.4-21.6h.6zM34.4 31.6s.5 3 1.8 3c1.2 0 1.8-3 1.8-3S39.4 25 36 20c-3 5-1.6 11.6-1.6 11.6M36 2c7.6 11.5 4.4 27.2 4.4 27.2S39 36 36.2 36c-3 0-4-6.8-4-6.8s-3.5-15 3.8-27"/>
    </g>
    <path d="M63 42H66l4.4 6.7 4.3-6.8h2.7v14.3h-2.5V46l-4.5 6.7-4.6-6.7v10.3H63V42zm24 14.5c-1.2 0-2.2-.2-3-.6-1-.4-1.8-1-2.5-1.6-.6-.7-1.2-1.5-1.5-2.4-.4-1-.6-2-.6-3s.2-2 .6-2.8c.3-1 1-1.7 1.5-2.4.7-.6 1.5-1.2 2.4-1.6.8-.4 2-.6 3-.6s2 .2 3 .6c1 .4 1.7 1 2.4 1.6.6.7 1.2 1.5 1.5 2.4.3 1 .5 1.8.5 2.8 0 1-.2 2-.6 3-.4 1-1 1.6-1.6 2.3-.7.7-1.5 1.2-2.4 1.6-1 .3-2 .5-3 .5zm0-2.3c.7 0 1.3 0 2-.4l1.5-1 1-1.7c.2-.5.3-1.2.3-2 0-.6 0-1.3-.3-2l-1-1.5c-.5-.5-1-1-1.6-1-.7-.4-1.4-.5-2-.5-.8 0-1.4 0-2 .4-.6.2-1 .6-1.6 1l-1 1.7c-.2.7-.3 1.3-.3 2 0 .8.2 1.4.4 2l1 1.7c.5.5 1 .8 1.6 1 .6.4 1.3.5 2 .5zM96.7 42h2.5v12h7.6v2.3h-10V42zm12.7 0h5.4c1 0 2 0 3 .4s1.8 1 2.5 1.5c.7.6 1.2 1.3 1.6 2.2.3 1 .4 1.8.4 2.8 0 1 0 2-.5 3-.5.8-1 1.6-1.7 2.2-.7.7-1.5 1.2-2.4 1.5-1 .4-2 .6-3.2.6h-5.4V42zm5.4 12c.7 0 1.4 0 2-.4.7-.2 1.2-.6 1.6-1 .4-.4.8-1 1-1.5.3-.5.4-1.2.4-2 0-.6 0-1.3-.4-2-.2-.5-.6-1-1-1.4-.4-.5-1-.8-1.6-1-.6-.3-1.3-.4-2-.4h-3V54h3zm16.7 2.5c-1 0-2-.2-3-.6-1-.4-1.8-1-2.4-1.6-.6-.7-1-1.5-1.5-2.4-.3-1-.5-2-.5-3s.2-2 .5-2.8c.4-1 1-1.7 1.6-2.4.8-.6 1.6-1.2 2.5-1.6 1-.4 2-.6 3-.6s2.2.2 3 .6c1 .4 1.8 1 2.5 1.6.6.7 1 1.5 1.5 2.4.4 1 .6 1.8.6 2.8 0 1 0 2-.5 3-.4 1-1 1.6-1.6 2.3-.7.7-1.5 1.2-2.5 1.6-1 .3-2 .5-3 .5zm0-2.3c.7 0 1.4 0 2-.4l1.5-1c.5-.5.8-1 1-1.7.3-.5.4-1.2.4-2 0-.6 0-1.3-.4-2-.2-.5-.5-1-1-1.5-.4-.5-1-1-1.5-1-.6-.4-1.3-.5-2-.5s-1.4 0-2 .4c-.6.2-1 .6-1.5 1-.4.5-.8 1-1 1.7-.2.7-.4 1.3-.4 2 0 .8.2 1.4.4 2 .2.7.6 1.2 1 1.7s1 .8 1.6 1c.6.4 1.2.5 2 .5zM139 42h3l4.2 11 4.4-11h2.7l-6 14.4H145L139 42zm20-.2h2.4l6.4 14.5H165l-1.4-3.5h-6.8l-1.5 3.5h-2.6l6.4-14.5zm3.7 8.8l-2.5-5.8-2.4 5.8h5zm13.5 6c-1 0-2.2-.3-3-.6-1-.4-1.8-1-2.4-1.6-.7-.7-1.2-1.4-1.5-2.3-.4-.8-.6-1.8-.6-3 0-1 .2-2 .6-2.8.3-1 .8-1.7 1.5-2.4.7-.6 1.4-1.2 2.4-1.6 1-.4 2-.6 3-.6.6 0 1.2 0 1.7.2l1.3.3 1.3.7 1 1-1.5 1.8c-.2-.2-.5-.5-.8-.6-.2-.3-.5-.5-1-.6-.2-.2-.5-.3-1-.3h-1c-.8 0-1.4 0-2 .4-.6.2-1 .6-1.5 1l-1 1.7-.3 2c0 .8 0 1.5.3 2 .3.8.6 1.3 1 1.8.5.4 1 .8 1.6 1 .6.3 1.2.4 2 .4.7 0 1.3 0 2-.3.5-.3 1-.5 1.5-1v-2.6H176v-2.2h6.2v6c-.3.4-.7.7-1.2 1l-1.4.7c-.5 0-1 .2-1.6.4h-1.8zm14.4-14.8h2.4l6.3 14.5h-2.7l-1.4-3.5h-7l-1.3 3.5h-2.7l6.3-14.5zm3.6 8.8l-2.5-5.8-2.4 5.8h5zm7 3.8L210 44h-8.3v-2H213v1.7L204.7 54h8.5v2.3h-11.7v-2z" fill="#18407E"/>
  </g>
</svg>
