<svg width="26" height="26" viewBox="0 0 26 26" fill="none" xmlns="http://www.w3.org/2000/svg">
<path fill-rule="evenodd" clip-rule="evenodd" d="M5.14301 14.5982L5.17102 14.6072L10.101 16.0152L16.942 22.8562C17.445 23.3592 18.184 23.5442 18.864 23.3382C19.544 23.1322 20.056 22.5682 20.196 21.8712C21.183 16.9352 23.9811 2.94614 23.9811 2.94614C24.0541 2.58014 23.918 2.20517 23.627 1.97117C23.337 1.73717 22.9411 1.68414 22.5991 1.83414C22.5991 1.83414 7.15002 8.59317 2.23001 10.7452C1.61601 11.0142 1.23402 11.6352 1.27102 12.3042C1.30902 12.9732 1.75801 13.5482 2.39801 13.7472L5.14301 14.5982ZM10.334 14.0022L14.96 9.37615C15.35 8.98615 15.984 8.98615 16.374 9.37615C16.764 9.76615 16.764 10.4002 16.374 10.7902L12.039 15.1252L18.261 21.3462L21.643 4.43516L4.00601 12.1512L5.72803 12.6862L10.334 14.0022Z" fill="#0099FA"/>
</svg>
