<svg width="26" height="26" viewBox="0 0 26 26" fill="none" xmlns="http://www.w3.org/2000/svg">
<path fill-rule="evenodd" clip-rule="evenodd" d="M23.3601 11.2296C19.34 8.99963 8.92302 3.21969 5.00501 1.04969C4.37801 0.699686 3.61401 0.709593 2.996 1.07959C2.379 1.43959 2 2.09959 2 2.81959V23.1797C2 23.8997 2.379 24.5597 2.996 24.9197C3.61401 25.2897 4.37801 25.2996 5.00501 24.9496C8.92302 22.7796 19.34 16.9997 23.3601 14.7697C24.0041 14.4097 24.4031 13.7397 24.4031 12.9997C24.4031 12.2697 24.0041 11.5896 23.3601 11.2296ZM4 22.7997L13.161 13.0197L4 3.24964V22.7997ZM8.88002 20.5097L16.317 16.3897L14.532 14.4897L8.88002 20.5097ZM18.149 10.6297L22.3901 12.9796C22.3981 12.9796 22.4031 12.9897 22.4031 12.9997C22.4031 13.0097 22.3981 13.0197 22.3901 13.0197L18.121 15.3897L15.903 13.0197L18.149 10.6297ZM14.532 11.5597L16.345 9.62966L8.79103 5.43959L14.532 11.5597Z" fill="#0099FA"/>
</svg>
