<svg width="22" height="28" viewBox="0 0 22 28" fill="none" xmlns="http://www.w3.org/2000/svg">
<path fill-rule="evenodd" clip-rule="evenodd" d="M6.71899 17.3802H1.50919C1.24255 17.3802 0.996504 17.2294 0.87344 16.9897C0.750376 16.7499 0.770846 16.4615 0.934932 16.2429L12.4003 0.298696C12.6054 0.0256988 12.9541 -0.0741882 13.2618 0.0579005C13.5694 0.190194 13.7542 0.519391 13.6926 0.849818L11.8467 10.6798H12.8926H15.436H20.502C20.7687 10.6798 21.0149 10.8315 21.138 11.0721C21.261 11.3129 21.2406 11.6019 21.0765 11.8204L9.50836 27.7046C9.30326 27.9785 8.95461 28.0757 8.62644 27.9379C8.31878 27.8 8.1547 27.4647 8.21623 27.1332L10.2877 17.3802H9.2622V17.3855H6.71899V17.3802ZM13.8977 12.1028H13.9592V12.1155H19.0869L10.3288 24.1401L11.8875 16.8112C11.9285 16.5993 11.8672 16.3787 11.7441 16.2105C11.6005 16.0423 11.3954 15.9444 11.1903 15.9444H8.1956V15.9625H8.03155C8.09309 15.9508 8.15458 15.9444 8.1956 15.9444H2.90388L11.6824 3.74798L10.2877 11.266C10.2467 11.4758 10.3083 11.6922 10.4313 11.8565C10.5749 12.0205 10.7801 12.1155 10.9852 12.1155H13.9592C13.9387 12.1155 13.9182 12.1112 13.8977 12.1028Z" fill="url(#paint0_linear_209_344)"/>
<defs>
<linearGradient id="paint0_linear_209_344" x1="11.0057" y1="16.0397" x2="8.1255" y2="2.41415" gradientUnits="userSpaceOnUse">
<stop stop-color="#0099FA"/>
<stop offset="1" stop-color="#4ADFFF"/>
</linearGradient>
</defs>
</svg>
