<?xml version="1.0" encoding="UTF-8"?>
<svg width="60px" height="24px" viewBox="0 0 60 24" version="1.1" xmlns="http://www.w3.org/2000/svg" xmlns:xlink="http://www.w3.org/1999/xlink">
    <title>Group 17</title>
    <g id="🚧-Brand-refresh-mockups" stroke="none" stroke-width="1" fill="none" fill-rule="evenodd">
        <g id="Group-17" fill="#FFFFFF">
            <g id="Filled/home-Copy-3" transform="translate(2.319950, 2.238447)">
                <path d="M7.209,6.3972279e-07 C8.742,-0.000997436176 10.009,1.16600256 10.152,2.64100256 L10.16875,2.88787756 L10.169,2.95600256 C10.169,3.04400256 10.164,3.13300256 10.153,3.22200256 C10.104,3.61800256 10.028,3.84200256 9.741,4.39500256 L9.37,5.09200256 L13.925,5.08900256 C14.171,5.08900256 14.375,5.26600256 14.418,5.49900256 L14.426,5.58900256 L14.428,10.1190026 L14.526,10.0600026 C15.102,9.70700256 15.505,9.52000256 16.087,9.39500256 L16.314,9.35000256 L16.404,9.34300256 L16.574,9.34800256 C18.069,9.43300256 19.267,10.6300026 19.355,12.1250026 L19.3600019,12.2990026 C19.361,13.8310026 18.194,15.0980026 16.705,15.2430026 L16.532,15.2550026 C16.478,15.2590026 16.432,15.2600026 16.404,15.2580026 C16.311,15.2580026 16.218,15.2520026 16.125,15.2400026 C15.707,15.1859192 15.4831042,15.1041067 14.8532841,14.7719615 L14.431,14.5460026 L14.434,19.0150026 C14.434,19.2600026 14.257,19.4650026 14.024,19.5070026 L13.934,19.5150026 L0.508,19.5230026 C0.262,19.5230026 0.058,19.3460026 0.016,19.1130026 L0.008,19.0230026 L0.005,13.7370026 C0.005,13.3830026 0.361,13.1410026 0.689,13.2720026 C0.913,13.3610026 1.117,13.4570026 1.375,13.5920026 L2.021,13.9360026 L2.29039063,14.0708463 C2.5244375,14.1817526 2.66525,14.2260026 2.828,14.2500026 L2.941,14.2630026 L3.075,14.2670026 L3.103,14.2650026 C4.152,14.2250026 4.986,13.3610026 4.985,12.3080026 C4.985,11.2270026 4.108,10.3510026 3.112,10.3450026 C2.616,10.4320026 2.309,10.5500026 1.871,10.8040026 L1.205,11.2030026 L1.16,11.2280026 C1.008,11.3120026 0.86,11.3860026 0.704,11.4540026 C0.401,11.5870026 0.065,11.3950026 0.011,11.0840026 L0.003,10.9970026 L0,5.59700256 C0,5.35200256 0.177,5.14800256 0.41,5.10500256 L0.5,5.09700256 L5.13,5.09500256 L4.971,4.83400256 C4.573,4.18600256 4.386,3.75600256 4.254,2.95900256 C4.252,1.32600256 5.576,0.00100256382 7.209,6.3972279e-07 Z M10.9771,14.6441026 C10.7011,14.6441026 10.4771,14.8681026 10.4771,15.1441026 L10.4771,16.5761026 L10.4851,16.6661026 C10.52185,16.8699776 10.6833969,17.0309776 10.8873402,17.068042 L10.9771,17.0761026 C11.2224333,17.0761026 11.4266802,16.8991149 11.4690396,16.6659407 L11.4771,16.5761026 L11.4771,15.1441026 L11.4691,15.0541026 C11.431475,14.8502276 11.2705844,14.6892276 11.0668188,14.6521631 L10.9771,14.6441026 Z M10.9771,6.95810256 C10.7011,6.95810256 10.4771,7.18110256 10.4771,7.45810256 L10.4771,13.4581026 L10.4851,13.5481026 C10.52185,13.7519776 10.6833969,13.9122119 10.8873402,13.949085 L10.9771,13.9571026 C11.2224333,13.9571026 11.4266802,13.780905 11.4690396,13.5479064 L11.4771,13.4581026 L11.4771,7.45810256 L11.4691,7.36810256 C11.431475,7.16335256 11.2705844,7.00300881 11.0668188,6.9661221 L10.9771,6.95810256 Z" id="Shape"></path>
            </g>
            <g id="Play" transform="translate(32.996000, 7.096000)" fill-rule="nonzero">
                <path d="M3.636,0.504 C4.38,0.504 5.026,0.628 5.574,0.876 C6.122,1.124 6.544,1.476 6.84,1.932 C7.136,2.388 7.284,2.928 7.284,3.552 C7.284,4.168 7.136,4.706 6.84,5.166 C6.544,5.626 6.122,5.978 5.574,6.222 C5.026,6.466 4.38,6.588 3.636,6.588 L1.944,6.588 L1.944,8.904 L0,8.904 L0,0.504 L3.636,0.504 Z M3.528,5.004 C4.112,5.004 4.556,4.878 4.86,4.626 C5.164,4.374 5.316,4.016 5.316,3.552 C5.316,3.08 5.164,2.718 4.86,2.466 C4.556,2.214 4.112,2.088 3.528,2.088 L1.944,2.088 L1.944,5.004 L3.528,5.004 Z" id="Shape"></path>
                <polygon id="Path" points="8.652 0 10.524 0 10.524 8.904 8.652 8.904"></polygon>
                <path d="M14.868,2.352 C15.868,2.352 16.636,2.59 17.172,3.066 C17.708,3.542 17.976,4.26 17.976,5.22 L17.976,8.904 L16.224,8.904 L16.224,8.1 C15.872,8.7 15.216,9 14.256,9 C13.76,9 13.33,8.916 12.966,8.748 C12.602,8.58 12.324,8.348 12.132,8.052 C11.94,7.756 11.844,7.42 11.844,7.044 C11.844,6.444 12.07,5.972 12.522,5.628 C12.974,5.284 13.672,5.112 14.616,5.112 L16.104,5.112 C16.104,4.704 15.98,4.39 15.732,4.17 C15.484,3.95 15.112,3.84 14.616,3.84 C14.272,3.84 13.934,3.894 13.602,4.002 C13.27,4.11 12.988,4.256 12.756,4.44 L12.084,3.132 C12.436,2.884 12.858,2.692 13.35,2.556 C13.842,2.42 14.348,2.352 14.868,2.352 Z M14.724,7.74 C15.044,7.74 15.328,7.666 15.576,7.518 C15.824,7.37 16,7.152 16.104,6.864 L16.104,6.204 L14.82,6.204 C14.052,6.204 13.668,6.456 13.668,6.96 C13.668,7.2 13.762,7.39 13.95,7.53 C14.138,7.67 14.396,7.74 14.724,7.74 Z" id="Shape"></path>
                <path d="M26.076,2.448 L23.16,9.3 C22.864,10.044 22.498,10.568 22.062,10.872 C21.626,11.176 21.1,11.328 20.484,11.328 C20.148,11.328 19.816,11.276 19.488,11.172 C19.16,11.068 18.892,10.924 18.684,10.74 L19.368,9.408 C19.512,9.536 19.678,9.636 19.866,9.708 C20.054,9.78 20.24,9.816 20.424,9.816 C20.68,9.816 20.888,9.754 21.048,9.63 C21.208,9.506 21.352,9.3 21.48,9.012 L21.504,8.952 L18.708,2.448 L20.64,2.448 L22.452,6.828 L24.276,2.448 L26.076,2.448 Z" id="Path"></path>
            </g>
        </g>
    </g>
</svg>