<?xml version="1.0" encoding="UTF-8"?><svg version="1.1" width="265px" height="38px" viewBox="0 0 265.0 38.0" xmlns="http://www.w3.org/2000/svg" xmlns:xlink="http://www.w3.org/1999/xlink"><defs><clipPath id="i0"><path d="M11.7665892,0 C16.3528691,0 18.7481203,2.53794128 18.7481203,7.69783878 L18.7481203,20.5159742 L13.4373737,20.5159742 L13.4373737,8.68276208 C13.4373737,6.09506298 12.6939236,4.96592678 10.6268793,4.96592678 C8.25092012,4.96592678 6.39563553,6.43795598 5.67874798,8.75947358 C5.43489809,9.57768058 5.32297538,10.4301285 5.34737239,11.2918305 L5.34737239,20.5159742 L0,20.5159742 L0,0.45876116 L5.15993427,0.45876116 L5.159,3.358 L5.18071042,3.32685317 C6.47763162,1.43130674 8.62879209,0.0979927603 11.450335,0.00517383653 Z"></path></clipPath><clipPath id="i1"><path d="M5.6464287,0 L5.6985538,0.19793323 L9.0772096,13.0276268 C9.1347277,13.2522592 9.19188272,13.466566 9.2480437,13.6695739 L9.281,13.786 L9.31051205,13.6739516 C9.33680473,13.5713152 9.36381654,13.4656585 9.39153681,13.3570085 L9.4768123,13.0221054 L13.0445999,0.22897352 L13.098755,0.03478763 L17.7880799,0.03478763 L17.8422351,0.22897352 L21.4114992,13.0276268 C21.4689977,13.2521826 21.526233,13.4664148 21.5825572,13.6693497 L21.616,13.788 L21.8122405,13.0258526 L25.1904355,0.19793323 L25.2425606,0 L30.8108592,0 L30.7071043,0.34391596 L24.8168077,19.8684441 L24.7598586,20.057213 L19.0220534,20.057213 L18.9660655,19.8665438 L15.6934313,8.72144682 C15.6270442,8.49527557 15.562524,8.27650472 15.5003509,8.06659618 L15.433,7.841 L15.3681605,8.06275394 C15.3374981,8.16803019 15.3061422,8.27564876 15.2741415,8.38543884 L15.176254,8.72115282 L11.9187088,19.8662231 L11.8628852,20.057213 L6.0841992,20.057213 L6.0270557,19.8688334 L0.1044422,0.34430515 L0,0 L5.6464287,0 Z"></path></clipPath><clipPath id="i2"><path d="M10.0797727,0 C15.53864,0 18.9227581,3.9070348 18.9227581,9.5350577 C18.9227581,9.7295037 18.9105012,10.0102771 18.8886968,10.3569596 C18.8816288,10.4693387 18.8736677,10.5867364 18.864974,10.7077436 C18.8524173,10.8825206 18.8389697,11.0561764 18.8255214,11.2208297 C18.8174466,11.3196918 18.8111573,11.3936821 18.8075446,11.4348872 L18.7862508,11.6777551 L5.483,11.677 L5.51138438,11.8723178 C5.95754453,14.5594435 8.04123473,16.2186622 10.7623127,16.3112811 L11.0040365,16.3153741 C12.3181949,16.3153741 13.6159974,15.9251308 14.8381902,15.2732596 C15.2674023,15.0443341 15.6561133,14.7990526 15.9968952,14.554119 C16.1156781,14.468745 16.2197895,14.3896888 16.3083148,14.3190471 C16.3604792,14.2774208 16.3952678,14.2483793 16.4117728,14.2340214 L16.6604919,14.0176567 L16.8163773,14.3093189 L18.6756772,17.7880767 L18.7785491,17.9805506 L18.6114937,18.1198417 C16.3758698,19.9839095 13.5618998,20.9952526 10.6636316,20.9769096 C4.36647358,20.9769096 4.22241947e-05,16.4570016 4.22241947e-05,10.4923904 C-0.0153063181,4.3401652 4.15524128,0 10.0797727,0 Z M9.96774068,4.287569 C7.79607356,4.287569 6.24943502,5.52196237 5.69987927,7.6567708 L5.662,7.814 L13.521,7.814 L13.5069477,7.63832754 C13.291462,5.59698332 12.015585,4.37388918 10.1678754,4.29196514 Z"></path></clipPath><clipPath id="i3"><path d="M8.3360005,0 C10.2885908,0 11.9558658,0.42712003 13.338641,1.1401995 C13.824835,1.39092383 14.2411626,1.66016747 14.5881468,1.93032622 C14.799301,2.09472953 14.9421345,2.22489897 15.0172352,2.30337554 L15.1469685,2.43894203 L15.06345,2.60751084 L13.2795567,6.20802514 L13.1316453,6.50656084 L12.8760251,6.29476304 C11.589111,5.22847404 9.9713446,4.65335154 8.3036835,4.67023234 C7.0017477,4.67023234 6.1007471,5.23260414 6.1007471,6.16501114 C6.1007471,6.79119434 6.719791,7.28597064 8.1999837,7.92641544 C8.4496295,8.03443134 10.1356641,8.71918294 10.6494742,8.94717174 C13.8779462,10.3797152 15.5135873,12.0376648 15.5135873,14.8619055 C15.5135873,18.4234977 12.4155045,20.9986518 7.8490923,20.9986518 C5.693094,20.9986518 3.788705,20.4475231 2.1558744,19.5288674 C1.5835856,19.2068889 1.0856974,18.8615668 0.6642159,18.5155435 C0.5158802,18.3937644 0.3874462,18.2803088 0.2791663,18.1779901 C0.2129028,18.1153745 0.1673296,18.0695417 0.1427032,18.0432989 L0,17.8912284 L0.1127855,17.7154161 L2.3081813,14.2931881 L2.4855571,14.016691 L2.7163486,14.2495995 C2.7298988,14.263274 2.7593933,14.2916385 2.8042717,14.3325952 C2.880856,14.4024871 2.9717293,14.4808079 3.0763241,14.5654628 C3.3768553,14.8087011 3.725676,15.0524189 4.1181543,15.279968 C5.2374369,15.9289002 6.4782345,16.3175483 7.8060031,16.3175483 C9.1524415,16.3175483 10.0843455,15.722546 10.0843455,14.8227695 C10.0843455,14.1249489 9.4261644,13.594564 7.8349081,12.8989752 C7.5994721,12.7960587 6.0152734,12.1400936 5.5348325,11.9250248 C4.0706546,11.2695875 3.0258729,10.6341207 2.2193137,9.81798944 C1.2085366,8.79521684 0.6715052,7.55089254 0.6715052,6.01281544 C0.6715052,2.3464416 3.8473801,0 8.3360005,0 Z"></path></clipPath><clipPath id="i4"><path d="M8.8126436,0 C13.9261037,0 17.5149317,3.2666015 17.5149317,8.04910081 C17.5149317,11.9344939 15.5465727,14.3544452 10.9870622,17.5273789 C10.8223596,17.6419941 9.3445098,18.6570508 8.9281807,18.9511621 C6.15782047,20.9082542 4.88512168,22.3211041 4.70863241,24.1033284 L4.699,24.221 L17.9300777,24.2218312 L17.9300777,28.0547364 L0.2303221,28.0547364 L0.1929449,27.8334562 C0.0750726,27.1356332 0.0105765,26.4296305 0,25.717729 C0,21.5129478 2.0421122,18.8714738 6.6560115,15.5615696 C6.8670555,15.4101714 8.5725105,14.2082376 9.0462689,13.8617888 C11.8829742,11.787372 13.0902177,10.2885305 13.0902177,8.3152748 C13.0902177,5.82357476 11.2242736,4.09375565 8.5502858,4.09375536 C7.0847965,4.09597115 5.8039368,4.71426821 4.7128329,5.74933428 C4.3275779,6.11480305 3.9942825,6.5069065 3.7145855,6.89867166 C3.6169912,7.03537063 3.5332279,7.16197734 3.46346,7.2751007 C3.4223771,7.34171438 3.3955544,7.38813116 3.3831392,7.41095973 L3.2449841,7.66499684 L3.0069697,7.50379632 L0.2323267,5.6246081 L0.034443,5.49058713 L0.146612,5.27790253 C1.8558863,2.03692955 5.1847196,0.00940223943 8.8126436,0 Z"></path></clipPath><clipPath id="i5"><path d="M16.56931,0 L16.569,16.598 L19.307168,16.5986088 L19.307168,20.3250443 L16.569,20.325 L16.56931,27.5969172 L12.391581,27.5969172 L12.391,20.351 L0.011657,20.3516618 L0.010791,20.0863677 L0.000281,16.8656626 L0,16.7795089 L0.049606,16.7095283 L11.815562,0.110919561 L11.894187,0 L16.56931,0 Z M12.37,5.98 L4.847,16.598 L12.37,16.598 L12.37,5.98 Z"></path></clipPath><clipPath id="i6"><path d="M7.728,0 C8.47466667,0 9.212,0.0886666667 9.94,0.266 C10.668,0.443333333 11.3166667,0.732666667 11.886,1.134 C12.4553333,1.53533333 12.9173333,2.05333333 13.272,2.688 C13.6266667,3.32266667 13.804,4.088 13.804,4.984 C13.804,6.104 13.4866667,7.028 12.852,7.756 C12.2173333,8.484 11.3866667,9.00666667 10.36,9.324 L10.36,9.38 C10.976,9.45466667 11.55,9.62733333 12.082,9.898 C12.614,10.1686667 13.0666667,10.514 13.44,10.934 C13.8133333,11.354 14.1073333,11.8393333 14.322,12.39 C14.5366667,12.9406667 14.644,13.5333333 14.644,14.168 C14.644,15.2506667 14.4293333,16.1513333 14,16.87 C13.5706667,17.5886667 13.006,18.1673333 12.306,18.606 C11.606,19.0446667 10.8033333,19.3573333 9.898,19.544 C8.99266667,19.7306667 8.07333333,19.824 7.14,19.824 L0,19.824 L0,0 L7.728,0 Z M6.916,11.088 L3.528,11.088 L3.528,16.8 L6.776,16.8 C7.224,16.8 7.70466667,16.772 8.218,16.716 C8.73133333,16.66 9.20266667,16.5293333 9.632,16.324 C10.0613333,16.1186667 10.416,15.8246667 10.696,15.442 C10.976,15.0593333 11.116,14.5413333 11.116,13.888 C11.116,12.8426667 10.7753333,12.1146667 10.094,11.704 C9.41266667,11.2933333 8.35333333,11.088 6.916,11.088 Z M6.44,3.024 L3.528,3.024 L3.528,8.064 L6.748,8.064 C7.924,8.064 8.806,7.83533333 9.394,7.378 C9.982,6.92066667 10.276,6.31866667 10.276,5.572 C10.276,4.71333333 9.97266667,4.074 9.366,3.654 C8.75933333,3.234 7.784,3.024 6.44,3.024 Z"></path></clipPath><clipPath id="i7"><path d="M3.36,0 L3.36,6.804 C3.36,7.17733333 3.37866667,7.59266667 3.416,8.05 C3.45333333,8.50733333 3.55133333,8.93666667 3.71,9.338 C3.86866667,9.73933333 4.11133333,10.0753333 4.438,10.346 C4.76466667,10.6166667 5.22666667,10.752 5.824,10.752 C6.384,10.752 6.85533333,10.6586667 7.238,10.472 C7.62066667,10.2853333 7.938,10.0333333 8.19,9.716 C8.442,9.39866667 8.624,9.03466667 8.736,8.624 C8.848,8.21333333 8.904,7.784 8.904,7.336 L8.904,0 L12.264,0 L12.264,13.44 L9.072,13.44 L9.072,11.284 L9.016,11.284 C8.69866667,11.956 8.21333333,12.5393333 7.56,13.034 C6.90666667,13.5286667 6.02,13.776 4.9,13.776 C4.004,13.776 3.24333333,13.6313333 2.618,13.342 C1.99266667,13.0526667 1.484,12.6606667 1.092,12.166 C0.7,11.6713333 0.42,11.1066667 0.252,10.472 C0.084,9.83733333 0,9.17466667 0,8.484 L0,0 L3.36,0 Z"></path></clipPath><clipPath id="i8"><path d="M5.824,0 C6.72,0 7.60666667,0.154 8.484,0.462 C9.36133333,0.77 10.0706667,1.29733333 10.612,2.044 L8.372,4.06 C7.71866667,3.14533333 6.84133333,2.688 5.74,2.688 C5.292,2.688 4.85333333,2.8 4.424,3.024 C3.99466667,3.248 3.78,3.612 3.78,4.116 C3.78,4.52666667 3.95733333,4.82533333 4.312,5.012 C4.66666667,5.19866667 5.11466667,5.35733333 5.656,5.488 C6.19733333,5.61866667 6.78066667,5.754 7.406,5.894 C8.03133333,6.034 8.61466667,6.24866667 9.156,6.538 C9.69733333,6.82733333 10.1453333,7.224 10.5,7.728 C10.8546667,8.232 11.032,8.92266667 11.032,9.8 C11.032,10.6026667 10.8593333,11.2793333 10.514,11.83 C10.1686667,12.3806667 9.72066667,12.824 9.17,13.16 C8.61933333,13.496 7.99866667,13.7386667 7.308,13.888 C6.61733333,14.0373333 5.92666667,14.112 5.236,14.112 C4.19066667,14.112 3.22933333,13.9626667 2.352,13.664 C1.47466667,13.3653333 0.690666667,12.824 0,12.04 L2.24,9.94 C2.66933333,10.4253333 3.13133333,10.822 3.626,11.13 C4.12066667,11.438 4.72266667,11.592 5.432,11.592 C5.67466667,11.592 5.92666667,11.564 6.188,11.508 C6.44933333,11.452 6.692,11.3586667 6.916,11.228 C7.14,11.0973333 7.322,10.934 7.462,10.738 C7.602,10.542 7.672,10.3133333 7.672,10.052 C7.672,9.58533333 7.49466667,9.24 7.14,9.016 C6.78533333,8.792 6.33733333,8.61 5.796,8.47 C5.25466667,8.33 4.67133333,8.19933333 4.046,8.078 C3.42066667,7.95666667 2.83733333,7.76066667 2.296,7.49 C1.75466667,7.21933333 1.30666667,6.84133333 0.952,6.356 C0.597333333,5.87066667 0.42,5.19866667 0.42,4.34 C0.42,3.59333333 0.574,2.94466667 0.882,2.394 C1.19,1.84333333 1.596,1.39066667 2.1,1.036 C2.604,0.681333333 3.18266667,0.42 3.836,0.252 C4.48933333,0.084 5.152,0 5.824,0 Z"></path></clipPath><clipPath id="i9"><path d="M3.836,6.58 L3.836,20.02 L0.476,20.02 L0.476,6.58 L3.836,6.58 Z M2.128,0 C2.744,0 3.262,0.191333333 3.682,0.574 C4.102,0.956666667 4.312,1.43733333 4.312,2.016 C4.312,2.59466667 4.102,3.07533333 3.682,3.458 C3.262,3.84066667 2.744,4.032 2.128,4.032 C1.512,4.032 1.00333333,3.83133333 0.602,3.43 C0.200666667,3.02866667 0,2.55733333 0,2.016 C0,1.47466667 0.200666667,1.00333333 0.602,0.602 C1.00333333,0.200666667 1.512,0 2.128,0 Z"></path></clipPath><clipPath id="i10"><path d="M7.364,0 C8.26,0 9.02066667,0.149333333 9.646,0.448 C10.2713333,0.746666667 10.78,1.13866667 11.172,1.624 C11.564,2.10933333 11.844,2.66933333 12.012,3.304 C12.18,3.93866667 12.264,4.60133333 12.264,5.292 L12.264,13.776 L8.904,13.776 L8.904,6.972 C8.904,6.59866667 8.88533333,6.18333333 8.848,5.726 C8.81066667,5.26866667 8.71266667,4.83933333 8.554,4.438 C8.39533333,4.03666667 8.148,3.70066667 7.812,3.43 C7.476,3.15933333 7.01866667,3.024 6.44,3.024 C5.88,3.024 5.40866667,3.11733333 5.026,3.304 C4.64333333,3.49066667 4.326,3.74266667 4.074,4.06 C3.822,4.37733333 3.64,4.74133333 3.528,5.152 C3.416,5.56266667 3.36,5.992 3.36,6.44 L3.36,13.776 L0,13.776 L0,0.336 L3.192,0.336 L3.192,2.492 L3.248,2.492 C3.56533333,1.82 4.05066667,1.23666667 4.704,0.742 C5.35733333,0.247333333 6.244,0 7.364,0 Z"></path></clipPath><clipPath id="i11"><path d="M7.308,0 C8.24133333,0 9.09533333,0.163333333 9.87,0.49 C10.6446667,0.816666667 11.3073333,1.288 11.858,1.904 C12.4086667,2.52 12.838,3.28066667 13.146,4.186 C13.454,5.09133333 13.608,6.132 13.608,7.308 L13.608,8.232 L3.36,8.232 C3.472,9.24 3.864,10.024 4.536,10.584 C5.208,11.144 6.02,11.424 6.972,11.424 C7.812,11.424 8.51666667,11.2513333 9.086,10.906 C9.65533333,10.5606667 10.1546667,10.1266667 10.584,9.604 L12.992,11.424 C12.208,12.3946667 11.3306667,13.0853333 10.36,13.496 C9.38933333,13.9066667 8.372,14.112 7.308,14.112 C6.3,14.112 5.348,13.944 4.452,13.608 C3.556,13.272 2.78133333,12.796 2.128,12.18 C1.47466667,11.564 0.956666667,10.822 0.574,9.954 C0.191333333,9.086 0,8.12 0,7.056 C0,5.992 0.191333333,5.026 0.574,4.158 C0.956666667,3.29 1.47466667,2.548 2.128,1.932 C2.78133333,1.316 3.556,0.84 4.452,0.504 C5.348,0.168 6.3,0 7.308,0 Z M6.832,2.52 C5.824,2.52 5.026,2.80933333 4.438,3.388 C3.85,3.96666667 3.49066667,4.74133333 3.36,5.712 L10.248,5.712 C10.2293333,4.72266667 9.92133333,3.94333333 9.324,3.374 C8.72666667,2.80466667 7.896,2.52 6.832,2.52 Z"></path></clipPath><clipPath id="i12"><path d="M5.824,0 C6.72,0 7.60666667,0.154 8.484,0.462 C9.36133333,0.77 10.0706667,1.29733333 10.612,2.044 L8.372,4.06 C7.71866667,3.14533333 6.84133333,2.688 5.74,2.688 C5.292,2.688 4.85333333,2.8 4.424,3.024 C3.99466667,3.248 3.78,3.612 3.78,4.116 C3.78,4.52666667 3.95733333,4.82533333 4.312,5.012 C4.66666667,5.19866667 5.11466667,5.35733333 5.656,5.488 C6.19733333,5.61866667 6.78066667,5.754 7.406,5.894 C8.03133333,6.034 8.61466667,6.24866667 9.156,6.538 C9.69733333,6.82733333 10.1453333,7.224 10.5,7.728 C10.8546667,8.232 11.032,8.92266667 11.032,9.8 C11.032,10.6026667 10.8593333,11.2793333 10.514,11.83 C10.1686667,12.3806667 9.72066667,12.824 9.17,13.16 C8.61933333,13.496 7.99866667,13.7386667 7.308,13.888 C6.61733333,14.0373333 5.92666667,14.112 5.236,14.112 C4.19066667,14.112 3.22933333,13.9626667 2.352,13.664 C1.47466667,13.3653333 0.690666667,12.824 0,12.04 L2.24,9.94 C2.66933333,10.4253333 3.13133333,10.822 3.626,11.13 C4.12066667,11.438 4.72266667,11.592 5.432,11.592 C5.67466667,11.592 5.92666667,11.564 6.188,11.508 C6.44933333,11.452 6.692,11.3586667 6.916,11.228 C7.14,11.0973333 7.322,10.934 7.462,10.738 C7.602,10.542 7.672,10.3133333 7.672,10.052 C7.672,9.58533333 7.49466667,9.24 7.14,9.016 C6.78533333,8.792 6.33733333,8.61 5.796,8.47 C5.25466667,8.33 4.67133333,8.19933333 4.046,8.078 C3.42066667,7.95666667 2.83733333,7.76066667 2.296,7.49 C1.75466667,7.21933333 1.30666667,6.84133333 0.952,6.356 C0.597333333,5.87066667 0.42,5.19866667 0.42,4.34 C0.42,3.59333333 0.574,2.94466667 0.882,2.394 C1.19,1.84333333 1.596,1.39066667 2.1,1.036 C2.604,0.681333333 3.18266667,0.42 3.836,0.252 C4.48933333,0.084 5.152,0 5.824,0 Z"></path></clipPath><clipPath id="i13"><path d="M5.824,0 C6.72,0 7.60666667,0.154 8.484,0.462 C9.36133333,0.77 10.0706667,1.29733333 10.612,2.044 L8.372,4.06 C7.71866667,3.14533333 6.84133333,2.688 5.74,2.688 C5.292,2.688 4.85333333,2.8 4.424,3.024 C3.99466667,3.248 3.78,3.612 3.78,4.116 C3.78,4.52666667 3.95733333,4.82533333 4.312,5.012 C4.66666667,5.19866667 5.11466667,5.35733333 5.656,5.488 C6.19733333,5.61866667 6.78066667,5.754 7.406,5.894 C8.03133333,6.034 8.61466667,6.24866667 9.156,6.538 C9.69733333,6.82733333 10.1453333,7.224 10.5,7.728 C10.8546667,8.232 11.032,8.92266667 11.032,9.8 C11.032,10.6026667 10.8593333,11.2793333 10.514,11.83 C10.1686667,12.3806667 9.72066667,12.824 9.17,13.16 C8.61933333,13.496 7.99866667,13.7386667 7.308,13.888 C6.61733333,14.0373333 5.92666667,14.112 5.236,14.112 C4.19066667,14.112 3.22933333,13.9626667 2.352,13.664 C1.47466667,13.3653333 0.690666667,12.824 0,12.04 L2.24,9.94 C2.66933333,10.4253333 3.13133333,10.822 3.626,11.13 C4.12066667,11.438 4.72266667,11.592 5.432,11.592 C5.67466667,11.592 5.92666667,11.564 6.188,11.508 C6.44933333,11.452 6.692,11.3586667 6.916,11.228 C7.14,11.0973333 7.322,10.934 7.462,10.738 C7.602,10.542 7.672,10.3133333 7.672,10.052 C7.672,9.58533333 7.49466667,9.24 7.14,9.016 C6.78533333,8.792 6.33733333,8.61 5.796,8.47 C5.25466667,8.33 4.67133333,8.19933333 4.046,8.078 C3.42066667,7.95666667 2.83733333,7.76066667 2.296,7.49 C1.75466667,7.21933333 1.30666667,6.84133333 0.952,6.356 C0.597333333,5.87066667 0.42,5.19866667 0.42,4.34 C0.42,3.59333333 0.574,2.94466667 0.882,2.394 C1.19,1.84333333 1.596,1.39066667 2.1,1.036 C2.604,0.681333333 3.18266667,0.42 3.836,0.252 C4.48933333,0.084 5.152,0 5.824,0 Z"></path></clipPath></defs><g transform="translate(0.0 1.0)"><g transform="translate(140.0 0.0)"><path d="M0.5,0 L0.5,36" stroke="#202020" stroke-width="1" fill="none" stroke-linecap="square" stroke-miterlimit="10"></path></g><g transform="translate(0.0 4.0)"><g transform="translate(-1.7763568394002505e-15 7.519552419999995)"><g clip-path="url(#i0)"><polygon points="0,0 18.7481203,0 18.7481203,20.5159742 0,20.5159742 0,0" stroke="none" fill="#20418D"></polygon></g></g><g transform="translate(38.14880179999999 7.97831358)"><g clip-path="url(#i1)"><polygon points="0,0 30.8108592,0 30.8108592,20.057213 0,20.057213 0,0" stroke="none" fill="#20418D"></polygon></g></g><g transform="translate(20.05575161807213 7.508681300000001)"><g clip-path="url(#i2)"><polygon points="1.77635684e-15,0 18.9227581,0 18.9227581,20.9771548 1.77635684e-15,20.9771548 1.77635684e-15,0" stroke="none" fill="#20418D"></polygon></g></g><g transform="translate(68.30356609999998 7.504332859999996)"><g clip-path="url(#i3)"><polygon points="0,0 15.5135873,0 15.5135873,20.9986518 0,20.9986518 0,0" stroke="none" fill="#20418D"></polygon></g></g><g transform="translate(87.04130429999998 0.0)"><g clip-path="url(#i4)"><polygon points="0,0 17.9300777,0 17.9300777,28.0547364 0,28.0547364 0,0" stroke="none" fill="#DD1F26"></polygon></g></g><g transform="translate(104.866002 0.45781922799999997)"><g clip-path="url(#i5)"><polygon points="0,0 19.307168,0 19.307168,27.5969172 0,27.5969172 0,0" stroke="none" fill="#DD1F26"></polygon></g></g></g><g transform="translate(155.9999999999999 8.000000000000002)"><g transform="translate(5.684341886080802e-14 0.19599999999996953)"><g clip-path="url(#i6)"><polygon points="0,0 14.644,0 14.644,19.824 0,19.824 0,0" stroke="none" fill="#000000"></polygon></g></g><g transform="translate(17.83600000000007 6.579999999999984)"><g clip-path="url(#i7)"><polygon points="0,0 12.264,0 12.264,13.776 0,13.776 0,0" stroke="none" fill="#000000"></polygon></g></g><g transform="translate(32.70400000000012 6.243999999999971)"><g clip-path="url(#i8)"><polygon points="0,0 11.032,0 11.032,14.112 0,14.112 0,0" stroke="none" fill="#000000"></polygon></g></g><g transform="translate(45.92000000000013 0.0)"><g clip-path="url(#i9)"><polygon points="0,0 4.312,0 4.312,20.02 0,20.02 0,0" stroke="none" fill="#000000"></polygon></g></g><g transform="translate(53.62000000000006 6.243999999999971)"><g clip-path="url(#i10)"><polygon points="0,0 12.264,0 12.264,13.776 0,13.776 0,0" stroke="none" fill="#000000"></polygon></g></g><g transform="translate(69.02000000000004 6.243999999999971)"><g clip-path="url(#i11)"><polygon points="0,0 13.608,0 13.608,14.112 0,14.112 0,0" stroke="none" fill="#000000"></polygon></g></g><g transform="translate(84.56000000000012 6.243999999999971)"><g clip-path="url(#i12)"><polygon points="0,0 11.032,0 11.032,14.112 0,14.112 0,0" stroke="none" fill="#000000"></polygon></g></g><g transform="translate(96.99200000000002 6.243999999999971)"><g clip-path="url(#i13)"><polygon points="0,0 11.032,0 11.032,14.112 0,14.112 0,0" stroke="none" fill="#000000"></polygon></g></g></g></g></svg>