<svg id="Layer_1" data-name="Layer 1" xmlns="http://www.w3.org/2000/svg" xmlns:xlink="http://www.w3.org/1999/xlink" viewBox="0 0 48 48"><defs><clipPath id="clip-path"><path d="M92,453.21A21.21,21.21,0,1,1,113.21,432,21.23,21.23,0,0,1,92,453.21ZM92,408a24,24,0,1,0,24,24A24,24,0,0,0,92,408Z" style="fill:none"/></clipPath></defs><title>icon-nav-bookmarks</title><path d="M9.82,46.24l.36-.62h0ZM37.93,2.5H10.07V44.29l13-22.44a1.12,1.12,0,0,1,.43-.46,1.08,1.08,0,0,1,1.47.4l-.93.53.92-.53,13,22.5V2.5ZM10.07.36H37.93A2.15,2.15,0,0,1,40.07,2.5V45.36A2.76,2.76,0,0,1,39.41,47a2,2,0,0,1-.55.47A1.32,1.32,0,0,1,37,47L24,24.46,11,47a1.33,1.33,0,0,1-.75.62h0l-.07,0a1.32,1.32,0,0,1-1-.16h0L9,47.37a2.32,2.32,0,0,1-.43-.4,2.76,2.76,0,0,1-.66-1.61V2.5A2.15,2.15,0,0,1,10.07.36Z" style="fill:#231f20"/></svg>