<?xml version="1.0" encoding="UTF-8"?>
<svg width="74px" height="24px" viewBox="0 0 74 24" version="1.1" xmlns="http://www.w3.org/2000/svg" xmlns:xlink="http://www.w3.org/1999/xlink">
    <title>Group 18</title>
    <g id="🚧-Brand-refresh-mockups" stroke="none" stroke-width="1" fill="none" fill-rule="evenodd">
        <g id="Group-18" fill="#FFFFFF">
            <g id="Filled/home-Copy-2" transform="translate(2.000000, 2.000000)">
                <path d="M10,0 C15.5143359,0 20,4.48609375 20,10 C20,15.5139062 15.5143359,20 10,20 C4.48566406,20 0,15.5139062 0,10 C0,4.48609375 4.48566406,0 10,0 Z M7.22816948,6.05502704 C7.10478446,6.12423992 7.02263097,6.24865239 7.00402048,6.38906514 L7,6.45010736 L7,14.5499923 C7,14.7147744 7.08715803,14.8659722 7.22816948,14.9450727 C7.29309708,14.9815221 7.36573561,15 7.43751282,15 C7.49903613,15 7.56104395,14.9866399 7.61848366,14.9597596 L7.67421353,14.9283666 L13.7991879,10.8784242 C13.9239572,10.79578 14,10.6529774 14,10.5000498 C14,10.3689691 13.9441318,10.2452961 13.8495976,10.1606185 L13.7991879,10.1216755 L7.67421353,6.07173305 C7.54005168,5.98162183 7.36659694,5.97681252 7.22816948,6.05502704 Z" id="Combined-Shape"></path>
            </g>
            <g id="Watch" transform="translate(32.264000, 7.096000)" fill-rule="nonzero">
                <polygon id="Path" points="13.428 0.504 10.68 8.904 8.592 8.904 6.744 3.216 4.836 8.904 2.76 8.904 2.27373675e-13 0.504 2.016 0.504 3.912 6.408 5.892 0.504 7.692 0.504 9.612 6.456 11.568 0.504"></polygon>
                <path d="M17.16,2.352 C18.16,2.352 18.928,2.59 19.464,3.066 C20,3.542 20.268,4.26 20.268,5.22 L20.268,8.904 L18.516,8.904 L18.516,8.1 C18.164,8.7 17.508,9 16.548,9 C16.052,9 15.622,8.916 15.258,8.748 C14.894,8.58 14.616,8.348 14.424,8.052 C14.232,7.756 14.136,7.42 14.136,7.044 C14.136,6.444 14.362,5.972 14.814,5.628 C15.266,5.284 15.964,5.112 16.908,5.112 L18.396,5.112 C18.396,4.704 18.272,4.39 18.024,4.17 C17.776,3.95 17.404,3.84 16.908,3.84 C16.564,3.84 16.226,3.894 15.894,4.002 C15.562,4.11 15.28,4.256 15.048,4.44 L14.376,3.132 C14.728,2.884 15.15,2.692 15.642,2.556 C16.134,2.42 16.64,2.352 17.16,2.352 Z M17.016,7.74 C17.336,7.74 17.62,7.666 17.868,7.518 C18.116,7.37 18.292,7.152 18.396,6.864 L18.396,6.204 L17.112,6.204 C16.344,6.204 15.96,6.456 15.96,6.96 C15.96,7.2 16.054,7.39 16.242,7.53 C16.43,7.67 16.688,7.74 17.016,7.74 Z" id="Shape"></path>
                <path d="M26.124,8.592 C25.94,8.728 25.714,8.83 25.446,8.898 C25.178,8.966 24.896,9 24.6,9 C23.832,9 23.238,8.804 22.818,8.412 C22.398,8.02 22.188,7.444 22.188,6.684 L22.188,4.032 L21.192,4.032 L21.192,2.592 L22.188,2.592 L22.188,1.02 L24.06,1.02 L24.06,2.592 L25.668,2.592 L25.668,4.032 L24.06,4.032 L24.06,6.66 C24.06,6.932 24.13,7.142 24.27,7.29 C24.41,7.438 24.608,7.512 24.864,7.512 C25.16,7.512 25.412,7.432 25.62,7.272 L26.124,8.592 Z" id="Path"></path>
                <path d="M30.3,9 C29.612,9 28.994,8.858 28.446,8.574 C27.898,8.29 27.47,7.896 27.162,7.392 C26.854,6.888 26.7,6.316 26.7,5.676 C26.7,5.036 26.854,4.464 27.162,3.96 C27.47,3.456 27.898,3.062 28.446,2.778 C28.994,2.494 29.612,2.352 30.3,2.352 C30.98,2.352 31.574,2.494 32.082,2.778 C32.59,3.062 32.96,3.468 33.192,3.996 L31.74,4.776 C31.404,4.184 30.92,3.888 30.288,3.888 C29.8,3.888 29.396,4.048 29.076,4.368 C28.756,4.688 28.596,5.124 28.596,5.676 C28.596,6.228 28.756,6.664 29.076,6.984 C29.396,7.304 29.8,7.464 30.288,7.464 C30.928,7.464 31.412,7.168 31.74,6.576 L33.192,7.368 C32.96,7.88 32.59,8.28 32.082,8.568 C31.574,8.856 30.98,9 30.3,9 Z" id="Path"></path>
                <path d="M38.196,2.352 C38.996,2.352 39.642,2.592 40.134,3.072 C40.626,3.552 40.872,4.264 40.872,5.208 L40.872,8.904 L39,8.904 L39,5.496 C39,4.984 38.888,4.602 38.664,4.35 C38.44,4.098 38.116,3.972 37.692,3.972 C37.22,3.972 36.844,4.118 36.564,4.41 C36.284,4.702 36.144,5.136 36.144,5.712 L36.144,8.904 L34.272,8.904 L34.272,0 L36.144,0 L36.144,3.12 C36.392,2.872 36.692,2.682 37.044,2.55 C37.396,2.418 37.78,2.352 38.196,2.352 Z" id="Path"></path>
            </g>
        </g>
    </g>
</svg>