<?xml version="1.0" encoding="UTF-8"?>
<svg width="70px" height="24px" viewBox="0 0 70 24" version="1.1" xmlns="http://www.w3.org/2000/svg" xmlns:xlink="http://www.w3.org/1999/xlink">
    <title>Group 19</title>
    <g id="🚧-Brand-refresh-mockups" stroke="none" stroke-width="1" fill="none" fill-rule="evenodd">
        <g id="Group-19" fill="#FFFFFF">
            <g id="Filled/home-Copy" transform="translate(1.000000, 1.000000)">
                <path d="M8.67421353,7.07173305 C8.54005168,6.98162183 8.36659694,6.97681252 8.22816948,7.05502704 C8.10478446,7.12423992 8.02263097,7.24865239 8.00402048,7.38906514 L8,7.45010736 L8,15.5499923 C8,15.7147744 8.08715803,15.8659722 8.22816948,15.9450727 C8.29309708,15.9815221 8.36573561,16 8.43751282,16 C8.49903613,16 8.56104395,15.9866399 8.61848366,15.9597596 L8.67421353,15.9283666 L14.7991879,11.8784242 C14.9239572,11.79578 15,11.6529774 15,11.5000498 C15,11.3689691 14.9441318,11.2452961 14.8495976,11.1606185 L14.7991879,11.1216755 L8.67421353,7.07173305 Z" id="Path"></path>
                <path d="M13.8068335,0.136035273 L13.8068335,0.136035273 C13.3385907,-0.0926355547 12.7802765,-0.0293599449 12.3750844,0.298300167 L5.32610653,5.94416399 L2.08080864,5.94416399 C0.932698525,5.94678825 0.00262426198,6.87686251 0,8.02497263 L0,13.9667313 C0,15.1167047 0.930838201,16.0496809 2.08080864,16.0523124 L5.32610653,16.0523124 L12.4084919,21.7029487 C12.8137067,22.0313274 13.3733356,22.0928866 13.840241,21.8604411 C14.3039539,21.6369513 14.5988218,21.1677589 14.599068,20.6529994 L14.599068,1.34347699 C14.5915691,0.821393622 14.2827747,0.350761269 13.8068335,0.136035273 Z M19.2999774,3.55784319 C19.463721,3.55747709 19.6212015,3.62081163 19.7390471,3.73449793 C21.6727816,5.65135178 22.7601659,8.26491426 22.7601659,10.9910795 C22.7601659,13.7172446 21.6727816,16.3308071 19.7390471,18.2524335 C19.4919533,18.4881801 19.1032291,18.4881801 18.8561352,18.2524335 C18.6128129,18.0084225 18.6128129,17.6135325 18.8561352,17.3695215 C20.5543948,15.6833004 21.5094856,13.3890564 21.5094856,10.9958519 C21.5094856,8.60264755 20.5543948,6.30840351 18.8561352,4.62218235 C18.6128129,4.3781714 18.6128129,3.98328138 18.8561352,3.73927043 C18.9731856,3.62085867 19.1334975,3.5553549 19.2999774,3.55784319 Z M17.2191688,5.64826292 C17.3834823,5.64960984 17.5408732,5.71461912 17.6582385,5.82962406 L17.8655026,6.04483556 C19.1074148,7.38852714 19.8011035,9.15391579 19.8011035,10.9910795 C19.8011035,12.9303078 19.0281973,14.7895645 17.653466,16.1573073 C17.4063721,16.393054 17.0176479,16.393054 16.7705541,16.1573073 C16.6537972,16.0411065 16.5884768,15.8829625 16.5891933,15.7182376 C16.5907929,15.5530377 16.6577092,15.3951839 16.7753266,15.2791679 C17.9125152,14.1447592 18.5516154,12.6045013 18.5516154,10.9982382 C18.5516154,9.39197508 17.9125152,7.85171722 16.7753266,6.71730849 C16.5345938,6.47223277 16.5345938,6.07947228 16.7753266,5.83439656 C16.8918894,5.71469931 17.0520947,5.64751644 17.2191688,5.64826292 Z" id="Combined-Shape"></path>
            </g>
            <g id="Listen" transform="translate(32.996000, 6.556000)" fill-rule="nonzero">
                <polygon id="Path" points="0 1.044 1.944 1.044 1.944 7.86 6.156 7.86 6.156 9.444 0 9.444"></polygon>
                <path d="M7.116,2.988 L8.988,2.988 L8.988,9.444 L7.116,9.444 L7.116,2.988 Z M8.052,2.088 C7.708,2.088 7.428,1.988 7.212,1.788 C6.996,1.588 6.888,1.34 6.888,1.044 C6.888,0.748 6.996,0.5 7.212,0.3 C7.428,0.1 7.708,0 8.052,0 C8.396,0 8.676,0.096 8.892,0.288 C9.108,0.48 9.216,0.72 9.216,1.008 C9.216,1.32 9.108,1.578 8.892,1.782 C8.676,1.986 8.396,2.088 8.052,2.088 Z" id="Shape"></path>
                <path d="M12.9,9.54 C12.364,9.54 11.84,9.474 11.328,9.342 C10.816,9.21 10.408,9.044 10.104,8.844 L10.728,7.5 C11.016,7.684 11.364,7.834 11.772,7.95 C12.18,8.066 12.58,8.124 12.972,8.124 C13.764,8.124 14.16,7.928 14.16,7.536 C14.16,7.352 14.052,7.22 13.836,7.14 C13.62,7.06 13.288,6.992 12.84,6.936 C12.312,6.856 11.876,6.764 11.532,6.66 C11.188,6.556 10.89,6.372 10.638,6.108 C10.386,5.844 10.26,5.468 10.26,4.98 C10.26,4.572 10.378,4.21 10.614,3.894 C10.85,3.578 11.194,3.332 11.646,3.156 C12.098,2.98 12.632,2.892 13.248,2.892 C13.704,2.892 14.158,2.942 14.61,3.042 C15.062,3.142 15.436,3.28 15.732,3.456 L15.108,4.788 C14.54,4.468 13.92,4.308 13.248,4.308 C12.848,4.308 12.548,4.364 12.348,4.476 C12.148,4.588 12.048,4.732 12.048,4.908 C12.048,5.108 12.156,5.248 12.372,5.328 C12.588,5.408 12.932,5.484 13.404,5.556 C13.932,5.644 14.364,5.738 14.7,5.838 C15.036,5.938 15.328,6.12 15.576,6.384 C15.824,6.648 15.948,7.016 15.948,7.488 C15.948,7.888 15.828,8.244 15.588,8.556 C15.348,8.868 14.998,9.11 14.538,9.282 C14.078,9.454 13.532,9.54 12.9,9.54 Z" id="Path"></path>
                <path d="M21.264,9.132 C21.08,9.268 20.854,9.37 20.586,9.438 C20.318,9.506 20.036,9.54 19.74,9.54 C18.972,9.54 18.378,9.344 17.958,8.952 C17.538,8.56 17.328,7.984 17.328,7.224 L17.328,4.572 L16.332,4.572 L16.332,3.132 L17.328,3.132 L17.328,1.56 L19.2,1.56 L19.2,3.132 L20.808,3.132 L20.808,4.572 L19.2,4.572 L19.2,7.2 C19.2,7.472 19.27,7.682 19.41,7.83 C19.55,7.978 19.748,8.052 20.004,8.052 C20.3,8.052 20.552,7.972 20.76,7.812 L21.264,9.132 Z" id="Path"></path>
                <path d="M28.644,6.24 C28.644,6.264 28.632,6.432 28.608,6.744 L23.724,6.744 C23.812,7.144 24.02,7.46 24.348,7.692 C24.676,7.924 25.084,8.04 25.572,8.04 C25.908,8.04 26.206,7.99 26.466,7.89 C26.726,7.79 26.968,7.632 27.192,7.416 L28.188,8.496 C27.58,9.192 26.692,9.54 25.524,9.54 C24.796,9.54 24.152,9.398 23.592,9.114 C23.032,8.83 22.6,8.436 22.296,7.932 C21.992,7.428 21.84,6.856 21.84,6.216 C21.84,5.584 21.99,5.014 22.29,4.506 C22.59,3.998 23.002,3.602 23.526,3.318 C24.05,3.034 24.636,2.892 25.284,2.892 C25.916,2.892 26.488,3.028 27,3.3 C27.512,3.572 27.914,3.962 28.206,4.47 C28.498,4.978 28.644,5.568 28.644,6.24 Z M25.296,4.308 C24.872,4.308 24.516,4.428 24.228,4.668 C23.94,4.908 23.764,5.236 23.7,5.652 L26.88,5.652 C26.816,5.244 26.64,4.918 26.352,4.674 C26.064,4.43 25.712,4.308 25.296,4.308 Z" id="Shape"></path>
                <path d="M33.816,2.892 C34.616,2.892 35.262,3.132 35.754,3.612 C36.246,4.092 36.492,4.804 36.492,5.748 L36.492,9.444 L34.62,9.444 L34.62,6.036 C34.62,5.524 34.508,5.142 34.284,4.89 C34.06,4.638 33.736,4.512 33.312,4.512 C32.84,4.512 32.464,4.658 32.184,4.95 C31.904,5.242 31.764,5.676 31.764,6.252 L31.764,9.444 L29.892,9.444 L29.892,2.988 L31.68,2.988 L31.68,3.744 C31.928,3.472 32.236,3.262 32.604,3.114 C32.972,2.966 33.376,2.892 33.816,2.892 Z" id="Path"></path>
            </g>
        </g>
    </g>
</svg>