<?xml version="1.0" encoding="UTF-8"?>
<svg width="72px" height="68px" viewBox="0 0 72 68" version="1.1" xmlns="http://www.w3.org/2000/svg" xmlns:xlink="http://www.w3.org/1999/xlink">
    <title>icon-speaker</title>
    <g id="Features---Locked" stroke="none" stroke-width="1" fill="none" fill-rule="evenodd">
        <g id="mobile-audio-locked" transform="translate(-144.000000, -105.000000)" fill="#231F20" fill-rule="nonzero">
            <g id="icon-speaker" transform="translate(144.000000, 105.000000)">
                <path d="M43.2082176,0.420472662 L43.2082176,0.420472662 C41.7428606,-0.286328078 39.9956272,-0.0907489207 38.7275866,0.922018699 L16.667947,18.3728705 L6.51185028,18.3728705 C2.91886194,18.3809819 0.00821257694,21.2557569 0,24.8044609 L0,43.1698966 C0,46.72436 2.91304009,49.6081046 6.51185028,49.6162383 L16.667947,49.6162383 L38.8321347,67.0818415 C40.1002464,68.0968301 41.8515942,68.287104 43.3127656,67.5686362 C44.7639463,66.8778493 45.6867297,65.4276185 45.6875,63.8365436 L45.6875,4.15256523 C45.6640322,2.53885301 44.6976663,1.08417119 43.2082176,0.420472662 Z M41.8341574,63.851295 C41.8418768,64.0233566 41.7406874,64.1820884 41.580255,64.2495815 C41.4307218,64.3468433 41.2369188,64.3468433 41.0873856,64.2495815 L18.4900703,46.3266864 C18.1597889,46.0653574 17.7482841,45.9246691 17.3251062,45.9283998 L6.51185028,45.9283998 C4.97519535,45.9202836 3.7338591,44.6876337 3.7338591,43.1698966 L3.7338591,24.8044609 C3.77433067,23.3180085 5.00630447,22.1339284 6.51185028,22.1344658 L17.3251062,22.1344658 C17.7471123,22.131301 18.1563936,21.9913728 18.4900703,21.7361792 L41.102321,3.78378138 C41.2493192,3.69629279 41.4332568,3.69629279 41.580255,3.78378138 C41.7402396,3.85964794 41.8398108,4.02162629 41.8341574,4.19681929 L41.8341574,63.851295 Z" id="Shape"></path>
                <path d="M55.2452618,17.5590178 L55.2452618,17.5590178 C54.8958419,17.2045328 54.4272577,17.0041517 53.9380633,17 C53.4406503,16.9976991 52.963687,17.2047799 52.6166561,17.5737283 C51.8999463,18.3291364 51.8999463,19.5397601 52.6166561,20.2951683 C56.0022945,23.7918084 57.9050237,28.539416 57.9050237,33.4904746 C57.9050237,38.4415332 56.0022945,43.1891408 52.6166561,46.6857809 C52.2664856,47.0433824 52.0672625,47.5299422 52.0625,48.0391457 C52.0603669,48.5468847 52.2548387,49.0343394 52.6024475,49.3925104 C53.3380954,50.1191632 54.4954052,50.1191632 55.2310531,49.3925104 C59.3239035,45.1766539 61.625,39.4457814 61.625,33.4684089 C61.625,27.4910363 59.3239035,21.7601638 55.2310531,17.5443073 L55.2452618,17.5590178 Z" id="Path"></path>
                <path d="M61.7615725,11.1677137 C61.3938927,10.8184499 60.9025517,10.6238753 60.3916696,10.625 C59.87225,10.6173555 59.372075,10.8185944 59.0068764,11.1823757 C58.2477079,11.9320193 58.2477079,13.1451894 59.0068764,13.894833 C64.305467,19.0751945 67.2853621,26.1235068 67.2853621,33.4758425 C67.2853621,40.8281781 64.305467,47.8764905 59.0068764,53.056852 C58.2477079,53.8064956 58.2477079,55.0196657 59.0068764,55.7693093 C59.7778123,56.4935636 60.9906366,56.4935636 61.7615725,55.7693093 C67.7948475,49.8657425 71.1875,41.836429 71.1875,33.4611805 C71.1875,25.0859321 67.7948475,17.0566185 61.7615725,11.1530518 L61.7615725,11.1677137 Z" id="Path"></path>
            </g>
        </g>
    </g>
</svg>