<?xml version="1.0" encoding="UTF-8"?><svg version="1.1" width="24px" height="24px" viewBox="0 0 24.0 24.0" xmlns="http://www.w3.org/2000/svg" xmlns:xlink="http://www.w3.org/1999/xlink"><defs><clipPath id="i0"><path d="M2.62,0.2925 C3.01,-0.0975 3.65,-0.0975 4.04,0.2925 L5,1.2525 L5.96,0.2925 C6.36,-0.0975 6.99,-0.0975 7.38,0.2925 L8.34,1.2525 L9.3,0.2925 C9.69,-0.0975 10.32,-0.0975 10.71,0.2925 L11.67,1.2525 L12.62,0.2925 C13.01,-0.0975 13.65,-0.0975 14.04,0.2925 L15,1.2525 L15.96,0.2925 C16.36,-0.0975 16.99,-0.0975 17.38,0.2925 L18.33,1.2525 L19.15,0.4325 C19.46,0.1225 20,0.3425 20,0.7925 L20,15.5825 C20,16.6825 19.1,17.5825 18,17.5825 L2,17.5825 C0.9,17.5825 0,16.6825 0,15.5825 L0,0.7925 C0,0.3425 0.54,0.1225 0.85,0.4325 L1.67,1.2525 Z M9,9.5825 L2,9.5825 L2,15.5825 L9,15.5825 L9,9.5825 Z M18,13.5825 L11,13.5825 L11,15.5825 L18,15.5825 L18,13.5825 Z M18,9.5825 L11,9.5825 L11,11.5825 L18,11.5825 L18,9.5825 Z M18,4.5825 L2,4.5825 L2,7.5825 L18,7.5825 L18,4.5825 Z"></path></clipPath></defs><g transform="translate(2.0 3.4175000000000004)"><g clip-path="url(#i0)"><polygon points="0,0 20,0 20,17.5825 0,17.5825 0,0" stroke="none" fill="#FFFFFF"></polygon></g></g></svg>