<?xml version="1.0" encoding="UTF-8"?>
<svg width="70px" height="24px" viewBox="0 0 70 24" version="1.1" xmlns="http://www.w3.org/2000/svg" xmlns:xlink="http://www.w3.org/1999/xlink">
    <title>Group 20</title>
    <g id="🚧-Brand-refresh-mockups" stroke="none" stroke-width="1" fill="none" fill-rule="evenodd">
        <g id="Group-20" fill="#FFFFFF">
            <g id="Filled/home" transform="translate(2.000000, 2.000000)">
                <path d="M9.51435707,0.125842724 L0.514357069,5.12584272 C0.196891884,5.30221227 0,5.63683287 0,6 L0,19 C0,19.5522847 0.44771525,20 1,20 L7,20 L7.11662113,19.9932723 C7.61395981,19.9355072 8,19.5128358 8,19 L8,11 L12,11 L12,19 C12,19.5522847 12.4477153,20 13,20 L19,20 C19.5522847,20 20,19.5522847 20,19 L20,6 C20,5.63683287 19.8031081,5.30221227 19.4856429,5.12584272 L10.4856429,0.125842724 C10.1836204,-0.0419475746 9.81637961,-0.0419475746 9.51435707,0.125842724 Z" id="Path-4"></path>
            </g>
            <g id="Home" transform="translate(32.996000, 7.600000)" fill-rule="nonzero">
                <polygon id="Path" points="7.704 0 7.704 8.4 5.76 8.4 5.76 4.956 1.944 4.956 1.944 8.4 0 8.4 0 0 1.944 0 1.944 3.312 5.76 3.312 5.76 0"></polygon>
                <path d="M12.636,8.496 C11.956,8.496 11.346,8.354 10.806,8.07 C10.266,7.786 9.844,7.392 9.54,6.888 C9.236,6.384 9.084,5.812 9.084,5.172 C9.084,4.532 9.236,3.96 9.54,3.456 C9.844,2.952 10.266,2.558 10.806,2.274 C11.346,1.99 11.956,1.848 12.636,1.848 C13.316,1.848 13.924,1.99 14.46,2.274 C14.996,2.558 15.416,2.952 15.72,3.456 C16.024,3.96 16.176,4.532 16.176,5.172 C16.176,5.812 16.024,6.384 15.72,6.888 C15.416,7.392 14.996,7.786 14.46,8.07 C13.924,8.354 13.316,8.496 12.636,8.496 Z M12.636,6.96 C13.116,6.96 13.51,6.798 13.818,6.474 C14.126,6.15 14.28,5.716 14.28,5.172 C14.28,4.628 14.126,4.194 13.818,3.87 C13.51,3.546 13.116,3.384 12.636,3.384 C12.156,3.384 11.76,3.546 11.448,3.87 C11.136,4.194 10.98,4.628 10.98,5.172 C10.98,5.716 11.136,6.15 11.448,6.474 C11.76,6.798 12.156,6.96 12.636,6.96 Z" id="Shape"></path>
                <path d="M25.692,1.848 C26.5,1.848 27.142,2.086 27.618,2.562 C28.094,3.038 28.332,3.752 28.332,4.704 L28.332,8.4 L26.46,8.4 L26.46,4.992 C26.46,4.48 26.354,4.098 26.142,3.846 C25.93,3.594 25.628,3.468 25.236,3.468 C24.796,3.468 24.448,3.61 24.192,3.894 C23.936,4.178 23.808,4.6 23.808,5.16 L23.808,8.4 L21.936,8.4 L21.936,4.992 C21.936,3.976 21.528,3.468 20.712,3.468 C20.28,3.468 19.936,3.61 19.68,3.894 C19.424,4.178 19.296,4.6 19.296,5.16 L19.296,8.4 L17.424,8.4 L17.424,1.944 L19.212,1.944 L19.212,2.688 C19.452,2.416 19.746,2.208 20.094,2.064 C20.442,1.92 20.824,1.848 21.24,1.848 C21.696,1.848 22.108,1.938 22.476,2.118 C22.844,2.298 23.14,2.56 23.364,2.904 C23.628,2.568 23.962,2.308 24.366,2.124 C24.77,1.94 25.212,1.848 25.692,1.848 Z" id="Path"></path>
                <path d="M36.336,5.196 C36.336,5.22 36.324,5.388 36.3,5.7 L31.416,5.7 C31.504,6.1 31.712,6.416 32.04,6.648 C32.368,6.88 32.776,6.996 33.264,6.996 C33.6,6.996 33.898,6.946 34.158,6.846 C34.418,6.746 34.66,6.588 34.884,6.372 L35.88,7.452 C35.272,8.148 34.384,8.496 33.216,8.496 C32.488,8.496 31.844,8.354 31.284,8.07 C30.724,7.786 30.292,7.392 29.988,6.888 C29.684,6.384 29.532,5.812 29.532,5.172 C29.532,4.54 29.682,3.97 29.982,3.462 C30.282,2.954 30.694,2.558 31.218,2.274 C31.742,1.99 32.328,1.848 32.976,1.848 C33.608,1.848 34.18,1.984 34.692,2.256 C35.204,2.528 35.606,2.918 35.898,3.426 C36.19,3.934 36.336,4.524 36.336,5.196 Z M32.988,3.264 C32.564,3.264 32.208,3.384 31.92,3.624 C31.632,3.864 31.456,4.192 31.392,4.608 L34.572,4.608 C34.508,4.2 34.332,3.874 34.044,3.63 C33.756,3.386 33.404,3.264 32.988,3.264 Z" id="Shape"></path>
            </g>
        </g>
    </g>
</svg>