<?xml version="1.0" encoding="utf-8"?>
<!-- Generator: Adobe Illustrator 24.0.0, SVG Export Plug-In . SVG Version: 6.00 Build 0)  -->
<svg version="1.1" id="Layer_1" xmlns="http://www.w3.org/2000/svg" xmlns:xlink="http://www.w3.org/1999/xlink" x="0px" y="0px"
	 viewBox="0 0 16 16" style="enable-background:new 0 0 16 16;" xml:space="preserve">
<style type="text/css">
	.st0{fill:#212121;}
</style>
<path class="st0" d="M12.7,1.5H3.3c-1,0-1.8,0.8-1.8,1.8v9.5c0,1,0.8,1.8,1.8,1.8h4.7l0-4.6H6.7c-0.2,0-0.3-0.1-0.3-0.3l0-1.5
	c0-0.2,0.1-0.3,0.3-0.3h1.2V6.3c0-1.7,1-2.6,2.5-2.6h1.2C11.8,3.7,12,3.9,12,4v1.3c0,0.2-0.1,0.3-0.3,0.3l-0.8,0c-0.8,0-1,0.4-1,1
	v1.3h1.8c0.2,0,0.3,0.1,0.3,0.3l-0.2,1.5c0,0.1-0.1,0.3-0.3,0.3H10l0,4.6h2.8c1,0,1.8-0.8,1.8-1.8V3.3C14.5,2.3,13.7,1.5,12.7,1.5z"
	/>
</svg>
