<svg id="Layer_1" data-name="Layer 1" xmlns="http://www.w3.org/2000/svg" xmlns:xlink="http://www.w3.org/1999/xlink" viewBox="0 0 48 48"><defs><clipPath id="clip-path"><path d="M-172,45.33h13.33V18L-180,3-201.33,18v27.3H-188V30.67a1.34,1.34,0,0,1,1.33-1.34h13.34A1.34,1.34,0,0,1-172,30.67ZM-157.33,48h-16a1.34,1.34,0,0,1-.95-.39,1.33,1.33,0,0,1-.39-.94V32h-10.66V46.67a1.33,1.33,0,0,1-.39.94,1.34,1.34,0,0,1-.95.39h-16a1.33,1.33,0,0,1-.94-.39,1.33,1.33,0,0,1-.39-.94V17.33a1.35,1.35,0,0,1,.56-1.09l22.67-16a1.36,1.36,0,0,1,1.54,0l22.67,16a1.35,1.35,0,0,1,.56,1.09V46.67a1.33,1.33,0,0,1-.39.94A1.33,1.33,0,0,1-157.33,48Z" style="fill:none"/></clipPath><clipPath id="clip-path-2"><path d="M-44-22.79A21.23,21.23,0,0,1-65.21-44,21.23,21.23,0,0,1-44-65.21,21.23,21.23,0,0,1-22.79-44,21.23,21.23,0,0,1-44-22.79ZM-44-68A24,24,0,0,0-68-44,24,24,0,0,0-44-20,24,24,0,0,0-20-44,24,24,0,0,0-44-68Z" style="fill:none"/></clipPath></defs><title>icon-sport-red-card</title><g id="Card"><path d="M38.27-.07H24a8.63,8.63,0,0,0-8.62,8.61v2.19h3V8.54A5.66,5.66,0,0,1,24,2.89H38.27a5.66,5.66,0,0,1,5.65,5.65V30a5.66,5.66,0,0,1-5.65,5.65H30.84v3h7.43A8.63,8.63,0,0,0,46.89,30V8.54A8.63,8.63,0,0,0,38.27-.07Z" style="fill:#231f20"/><path d="M24,9.44H9.73a8.63,8.63,0,0,0-8.62,8.61V39.46a8.63,8.63,0,0,0,8.62,8.61H24a8.63,8.63,0,0,0,8.62-8.61V18.05A8.63,8.63,0,0,0,24,9.44Zm5.65,8.61V39.46A5.65,5.65,0,0,1,24,45.11H9.73a5.65,5.65,0,0,1-5.65-5.65V18.05A5.66,5.66,0,0,1,9.73,12.4H24A5.66,5.66,0,0,1,29.65,18.05Z" style="fill:#dd1f26"/></g></svg>