<svg id="Layer_1" data-name="Layer 1" xmlns="http://www.w3.org/2000/svg" xmlns:xlink="http://www.w3.org/1999/xlink" viewBox="0 0 48 48"><defs><clipPath id="clip-path"><path d="M-172,453.33h13.33V426L-180,411-201.33,426v27.3H-188V438.67a1.34,1.34,0,0,1,1.33-1.34h13.34a1.34,1.34,0,0,1,1.33,1.34Zm14.67,2.67h-16a1.34,1.34,0,0,1-.95-.39,1.33,1.33,0,0,1-.39-.94V440h-10.66v14.67a1.33,1.33,0,0,1-.39.94,1.34,1.34,0,0,1-.95.39h-16a1.33,1.33,0,0,1-.94-.39,1.33,1.33,0,0,1-.39-.94V425.33a1.35,1.35,0,0,1,.56-1.09l22.67-16a1.36,1.36,0,0,1,1.54,0l22.67,16a1.35,1.35,0,0,1,.56,1.09v29.34a1.33,1.33,0,0,1-.39.94A1.33,1.33,0,0,1-157.33,456Z" style="fill:none"/></clipPath><clipPath id="clip-path-2"><path d="M-44,385.21A21.23,21.23,0,0,1-65.21,364,21.23,21.23,0,0,1-44,342.79,21.23,21.23,0,0,1-22.79,364,21.23,21.23,0,0,1-44,385.21ZM-44,340a24,24,0,0,0-24,24,24,24,0,0,0,24,24,24,24,0,0,0,24-24A24,24,0,0,0-44,340Z" style="fill:none"/></clipPath></defs><title>icon-sport-offside</title><path d="M47.22.5A1.25,1.25,0,0,0,46.1.33L39,2.7a21.5,21.5,0,0,1-13.41,0,25.38,25.38,0,0,0-15-.33L2.77,4.59V1.51A1.27,1.27,0,0,0,1.5.26,1.26,1.26,0,0,0,.26,1.51v45a1.25,1.25,0,0,0,1.22,1.25h0a1.26,1.26,0,0,0,1.24-1.25V33.23l8.47-2.42a22.89,22.89,0,0,1,13.56.3,24,24,0,0,0,15,0l7.1-2.37a1.25,1.25,0,0,0,.86-1.18v-26A1.25,1.25,0,0,0,47.22.5Zm-2,2.75V26.66L39,28.74a21.5,21.5,0,0,1-13.41,0,25.38,25.38,0,0,0-15-.33L2.76,30.63V7.19l8.47-2.42a23,23,0,0,1,13.56.3,24,24,0,0,0,15,0Z" style="fill:#231f20"/></svg>