<?xml version="1.0" encoding="UTF-8"?>
<svg width="77px" height="70px" viewBox="0 0 77 70" version="1.1" xmlns="http://www.w3.org/2000/svg" xmlns:xlink="http://www.w3.org/1999/xlink">
    <title>Group 10</title>
    <defs>
        <polygon id="path-1" points="0.000175 0 77 0 77 70 0.000175 70"></polygon>
    </defs>
    <g id="Profile-(subscription)" stroke="none" stroke-width="1" fill="none" fill-rule="evenodd">
        <g id="mobile-profile-oops" transform="translate(-142.000000, -129.000000)">
            <g id="Group-10" transform="translate(142.000000, 129.000000)">
                <g id="Group-3">
                    <mask id="mask-2" fill="white">
                        <use xlink:href="#path-1"></use>
                    </mask>
                    <g id="Clip-2"></g>
                    <path d="M68.250175,56 L8.750175,56 C5.850425,56 3.500175,53.64975 3.500175,50.75 L3.500175,45.5 L73.500175,45.5 L73.500175,50.75 C73.500175,53.64975 71.149925,56 68.250175,56 M47.880175,66.5 L29.120175,66.5 C30.488675,64.41225 31.274425,61.9955 31.395175,59.5 L45.605175,59.5 C45.725925,61.9955 46.511675,64.41225 47.880175,66.5 M8.750175,3.5 L68.250175,3.5 C71.149925,3.5 73.500175,5.85025 73.500175,8.75 L73.500175,42 L3.500175,42 L3.500175,8.75 C3.500175,5.85025 5.850425,3.5 8.750175,3.5 M68.250175,0 L8.750175,0 C3.916675,0 0.000175,3.9165 0.000175,8.75 L0.000175,50.75 C0.000175,55.5835 3.916675,59.5 8.750175,59.5 L27.895175,59.5 C27.422675,64.1025 25.077675,66.5 22.750175,66.5 C21.784175,66.5 21.000175,67.28225 21.000175,68.25 C21.000175,69.21775 21.784175,70 22.750175,70 L54.250175,70 C55.216175,70 56.000175,69.21775 56.000175,68.25 C56.000175,67.28225 55.216175,66.5 54.250175,66.5 C51.922675,66.5 49.577675,64.1025 49.105175,59.5 L68.250175,59.5 C73.081925,59.5 77.000175,55.5835 77.000175,50.75 L77.000175,8.75 C77.000175,3.9165 73.081925,0 68.250175,0" id="Fill-1" fill="#231F20" mask="url(#mask-2)"></path>
                </g>
                <path d="M51.25,31 L40.75,31 C39.784,31 39,31.894 39,33 C39,34.106 39.784,35 40.75,35 L51.25,35 C52.216,35 53,34.106 53,33 C53,31.894 52.216,31 51.25,31" id="Fill-4" fill="#231F20"></path>
                <path d="M36.4586067,15.5420761 C35.7468362,14.8229862 34.5886081,14.8193267 33.8713484,15.5310976 L33.86037,15.5420761 L31.5,17.9207451 L29.13963,15.5420761 C28.4223703,14.8229862 27.2586531,14.8229862 26.5413933,15.5420761 C25.8241336,16.2593363 25.8241336,17.4230544 26.5413933,18.1403146 L28.9200607,20.5006861 L26.5413933,22.8610577 C25.8241336,23.5728287 25.8186444,24.7310575 26.5304149,25.4483177 L26.5413933,25.4592962 C27.2531638,26.1765564 28.4113919,26.1802158 29.1286516,25.4702746 L29.13963,25.4592962 L31.5,23.0806271 L33.86037,25.4592962 C34.5721404,26.1765564 35.7303685,26.1802158 36.4476282,25.4702746 L36.4586067,25.4592962 C37.1758664,24.7475252 37.1813556,23.5874666 36.4695851,22.8720362 L36.4586067,22.8610577 L34.0799393,20.5006861 L36.4586067,18.1403146 C37.1758664,17.4285436 37.1813556,16.268485 36.4695851,15.5530546 L36.4586067,15.5420761 Z" id="Fill-6" fill="#231F20"></path>
                <path d="M52.4585727,15.5420761 C51.7467576,14.8229862 50.5884569,14.8193267 49.8711522,15.5310976 L49.860173,15.5420761 L47.499655,17.9207451 L45.139137,15.5420761 C44.4218323,14.8229862 43.2580421,14.8229862 42.5407374,15.5420761 C41.8234327,16.2593363 41.8234327,17.4230544 42.5407374,18.1403146 L44.919554,20.5006861 L42.5407374,22.8610577 C41.8234327,23.5728287 41.819773,24.7310575 42.5297582,25.4483177 L42.5407374,25.4592962 C43.2525525,26.1765564 44.4108532,26.1802158 45.1281579,25.4702746 L45.139137,25.4592962 L47.499655,23.0806271 L49.860173,25.4592962 C50.5719882,26.1765564 51.7302889,26.1802158 52.4475935,25.4702746 L52.4585727,25.4592962 C53.1758774,24.7475252 53.181367,23.5874666 52.4695519,22.8720362 L52.4585727,22.8610577 L50.0797561,20.5006861 L52.4585727,18.1403146 C53.1758774,17.4285436 53.181367,16.268485 52.4695519,15.5530546 L52.4585727,15.5420761 Z" id="Fill-8" fill="#231F20"></path>
            </g>
        </g>
    </g>
</svg>