<svg id="Layer_1" data-name="Layer 1" xmlns="http://www.w3.org/2000/svg" xmlns:xlink="http://www.w3.org/1999/xlink" viewBox="0 0 48 48"><defs><clipPath id="clip-path"><path d="M-104,385.33h13.33V358L-112,343-133.33,358v27.3H-120V370.67a1.34,1.34,0,0,1,1.33-1.34h13.34a1.34,1.34,0,0,1,1.33,1.34ZM-89.33,388h-16a1.34,1.34,0,0,1-1-.39,1.33,1.33,0,0,1-.39-.94V372h-10.66v14.67a1.33,1.33,0,0,1-.39.94,1.34,1.34,0,0,1-1,.39h-16a1.33,1.33,0,0,1-.94-.39,1.33,1.33,0,0,1-.39-.94V357.33a1.35,1.35,0,0,1,.56-1.09l22.67-16a1.36,1.36,0,0,1,1.54,0l22.67,16a1.35,1.35,0,0,1,.56,1.09v29.34a1.33,1.33,0,0,1-.39.94A1.33,1.33,0,0,1-89.33,388Z" style="fill:none"/></clipPath><clipPath id="clip-path-2"><path d="M24,317.21A21.21,21.21,0,1,1,45.21,296,21.23,21.23,0,0,1,24,317.21ZM24,272a24,24,0,1,0,24,24A24,24,0,0,0,24,272Z" style="fill:none"/></clipPath></defs><title>icon-sport-sunny</title><path d="M24,11.22A12.78,12.78,0,1,0,36.78,24,12.79,12.79,0,0,0,24,11.22ZM33.66,24A9.66,9.66,0,1,1,24,14.34,9.67,9.67,0,0,1,33.66,24Z" style="fill:#231f20"/><path d="M10.21,12.48A1.52,1.52,0,0,0,11.3,13a1.62,1.62,0,0,0,1.12-.48,1.51,1.51,0,0,0,0-2.2L9.24,7.1a1.5,1.5,0,0,0-1.47-.42A1.64,1.64,0,0,0,6.61,7.83,1.51,1.51,0,0,0,7,9.31Z" style="fill:#231f20"/><path d="M24,7.61a1.56,1.56,0,0,0,1.56-1.56V1.56a1.56,1.56,0,0,0-3.12,0V6.05A1.56,1.56,0,0,0,24,7.61Z" style="fill:#231f20"/><path d="M36.62,12.87a1.54,1.54,0,0,0,1.1-.45L40.9,9.24A1.56,1.56,0,1,0,38.69,7l-3.17,3.17a1.56,1.56,0,0,0,0,2.21A1.54,1.54,0,0,0,36.62,12.87Z" style="fill:#231f20"/><path d="M7.61,24a1.52,1.52,0,0,0-1.56-1.56H1.56a1.56,1.56,0,0,0,0,3.12H6.05A1.52,1.52,0,0,0,7.61,24Z" style="fill:#231f20"/><path d="M46.44,22.44H42a1.56,1.56,0,0,0,0,3.12h4.49a1.56,1.56,0,1,0,0-3.12Z" style="fill:#231f20"/><path d="M37.79,35.52A1.51,1.51,0,0,0,36.61,35a1.62,1.62,0,0,0-1,.48,1.59,1.59,0,0,0-.47,1,1.51,1.51,0,0,0,.47,1.17l3.18,3.18a1.5,1.5,0,0,0,1.08.48A1.6,1.6,0,0,0,41,40.9a1.51,1.51,0,0,0,0-2.21Z" style="fill:#231f20"/><path d="M22.44,42v4.49a1.56,1.56,0,0,0,3.12,0V42A1.56,1.56,0,0,0,22.44,42Z" style="fill:#231f20"/><path d="M10.28,35.58,7.1,38.76a1.51,1.51,0,0,0,0,2.2,1.62,1.62,0,0,0,1.12.48A1.52,1.52,0,0,0,9.31,41l3.17-3.17A1.56,1.56,0,0,0,13,36.61a1.68,1.68,0,0,0-.48-1A1.51,1.51,0,0,0,10.28,35.58Z" style="fill:#231f20"/></svg>