<?xml version="1.0" encoding="UTF-8"?>
<svg width="84px" height="22px" viewBox="0 0 84 22" version="1.1" xmlns="http://www.w3.org/2000/svg" xmlns:xlink="http://www.w3.org/1999/xlink">
    <!-- Generator: Sketch 63.1 (92452) - https://sketch.com -->
    <title>tag</title>
    <desc>Created with Sketch.</desc>
    <g id="Subscription" stroke="none" stroke-width="1" fill="none" fill-rule="evenodd">
        <g id="desktop-subscription-payment" transform="translate(-429.000000, -220.000000)">
            <g id="tag" transform="translate(429.000000, 220.000000)">
                <path d="M10.2298535,0 L82.0077396,0 C83.1080347,0 84,0.889673948 84,1.991155 L84,20.008845 C84,21.1085295 83.1134765,22 82.0064351,22 L1.66252354e-16,22 L10.2298535,0 Z" id="Rectangle-15" fill="#DD1F26"></path>
                <path d="M18.0447888,16 L16,16 L16,6.14771049 L20.4927753,6.14771049 C22.5807639,6.14771049 23.7183576,7.59527326 23.7183576,9.32348597 C23.7183576,11.0369276 22.566364,12.4992614 20.4927753,12.4992614 L18.0447888,12.4992614 L18.0447888,16 Z M20.2191768,10.6528804 C21.0255724,10.6528804 21.6303691,10.1358936 21.6303691,9.32348597 C21.6303691,8.49630724 21.0255724,7.99409158 20.2191768,7.99409158 L18.0447888,7.99409158 L18.0447888,10.6528804 L20.2191768,10.6528804 Z M33.4160499,16 L31.0688627,16 L29.1824731,12.4992614 L27.6848813,12.4992614 L27.6848813,16 L25.6400925,16 L25.6400925,6.14771049 L30.1328679,6.14771049 C32.1344569,6.14771049 33.3584502,7.49187592 33.3584502,9.32348597 C33.3584502,11.0664697 32.292856,11.9970458 31.2560617,12.2481536 L33.4160499,16 Z M29.8304695,10.6528804 C30.651265,10.6528804 31.2704616,10.1506647 31.2704616,9.32348597 C31.2704616,8.49630724 30.651265,7.99409158 29.8304695,7.99409158 L27.6848813,7.99409158 L27.6848813,10.6528804 L29.8304695,10.6528804 Z M37.5985724,16 L35.5537836,16 L35.5537836,6.14771049 L37.5985724,6.14771049 L37.5985724,16 Z M50.5650466,16 L48.5058579,16 L48.5058579,9.10192024 L45.7986728,16 L44.9058777,16 L42.1986926,9.10192024 L42.1986926,16 L40.1539038,16 L40.1539038,6.14771049 L43.0194881,6.14771049 L45.3522753,12.1004431 L47.6850624,6.14771049 L50.5650466,6.14771049 L50.5650466,16 Z M59.9171408,16 L53.1203781,16 L53.1203781,6.14771049 L59.9171408,6.14771049 L59.9171408,7.99409158 L55.1651668,7.99409158 L55.1651668,10.0768095 L59.8163413,10.0768095 L59.8163413,11.9231905 L55.1651668,11.9231905 L55.1651668,14.1536189 L59.9171408,14.1536189 L59.9171408,16 Z M69.1252357,16 L61.8964754,16 L61.8964754,14.3604136 C65.8276538,11.3766617 66.9796475,10.3574594 66.9796475,9.14623338 C66.9796475,8.28951256 66.2164516,7.86115214 65.424456,7.86115214 C64.330062,7.86115214 63.4948666,8.3042836 62.8468701,8.9985229 L61.6804765,7.61004431 C62.6164714,6.50221566 64.0420636,6 65.3812562,6 C67.426045,6 69.0532361,7.1816839 69.0532361,9.14623338 C69.0532361,10.8301329 67.6996435,12.2924668 65.2084572,14.1536189 L69.1252357,14.1536189 L69.1252357,16 Z M77.5125351,16 L75.4677463,16 L75.4677463,13.9615953 L70.8741715,13.9615953 L70.8741715,12.3072378 L74.6901506,6.14771049 L77.5125351,6.14771049 L77.5125351,12.1152142 L78.7509283,12.1152142 L78.7509283,13.9615953 L77.5125351,13.9615953 L77.5125351,16 Z M75.4677463,12.1152142 L75.4677463,8.00886263 L72.8757605,12.1152142 L75.4677463,12.1152142 Z" id="prime24-Subscribers" fill="#FFFFFF"></path>
            </g>
        </g>
    </g>
</svg>