<svg id="Layer_1" data-name="Layer 1" xmlns="http://www.w3.org/2000/svg" xmlns:xlink="http://www.w3.org/1999/xlink" viewBox="0 0 48 48"><defs><clipPath id="clip-path"><path d="M-308,317.33h13.33V290L-316,275-337.33,290v27.3H-324V302.67a1.34,1.34,0,0,1,1.33-1.34h13.34a1.34,1.34,0,0,1,1.33,1.34Zm14.67,2.67h-16a1.34,1.34,0,0,1-.95-.39,1.33,1.33,0,0,1-.39-.94V304h-10.66v14.67a1.33,1.33,0,0,1-.39.94,1.34,1.34,0,0,1-.95.39h-16a1.33,1.33,0,0,1-.94-.39,1.33,1.33,0,0,1-.39-.94V289.33a1.35,1.35,0,0,1,.56-1.09l22.67-16a1.36,1.36,0,0,1,1.54,0l22.67,16a1.35,1.35,0,0,1,.56,1.09v29.34a1.33,1.33,0,0,1-.39.94A1.33,1.33,0,0,1-293.33,320Z" style="fill:none"/></clipPath><clipPath id="clip-path-2"><path d="M-180,249.21A21.23,21.23,0,0,1-201.21,228,21.23,21.23,0,0,1-180,206.79,21.23,21.23,0,0,1-158.79,228,21.23,21.23,0,0,1-180,249.21Zm0-45.21a24,24,0,0,0-24,24,24,24,0,0,0,24,24,24,24,0,0,0,24-24A24,24,0,0,0-180,204Z" style="fill:none"/></clipPath></defs><title>icon-sport-freekick</title><path d="M47.32,5.58C46,3.66,42.86,2.13,38.59,4.16c-.09,0-3.7,1.64-8.47,3.45l-1.26.48-2.1.76-1.27.45-2.28.77-1.28.41C16.23,12.27,12,13.1,9.3,13a1.18,1.18,0,0,0-.93.35,1.2,1.2,0,0,0-.37.93s.1,2.53.3,4.22a2.74,2.74,0,0,0,1.3,2.07,2.15,2.15,0,0,0,2,.07c1.57-.72,2.73-1.26,3.79-1.77A18.84,18.84,0,0,1,10.49,28.9c-1.2,1.19-2.44,1.93-3.2,1.83a.77.77,0,0,1-.59-.41l-.49-.81c-.23-.38-.43-.71-.72-1.11a2.51,2.51,0,0,0-1.88-1.16,2.86,2.86,0,0,0-2.27,1c-1.2,1.23-2.17,2.68-1.17,5A25.09,25.09,0,0,0,8.25,43.63a5.77,5.77,0,0,0,3.27,1.16,5,5,0,0,0,3.59-1.68h0l.7.69a1.56,1.56,0,0,0,1.11.47h0a1.54,1.54,0,0,0,1.11-.47l1.5-1.49a1.6,1.6,0,0,0,0-2.24l-.7-.69.76-.76.69.7a1.57,1.57,0,0,0,1.12.46,1.56,1.56,0,0,0,1.12-.46L24,37.82a1.58,1.58,0,0,0,0-2.24l-.69-.7,8-8,.7.7a1.58,1.58,0,0,0,2.24,0l1.49-1.49a1.56,1.56,0,0,0,.46-1.12,1.57,1.57,0,0,0-.46-1.12l-.7-.69.84-.84.7.69a1.61,1.61,0,0,0,2.23,0l1.5-1.49a1.6,1.6,0,0,0,.46-1.12,1.57,1.57,0,0,0-.46-1.11l-.7-.7.84-.84.7.69a1.57,1.57,0,0,0,1.12.47h0a1.58,1.58,0,0,0,1.12-.47l1.49-1.49a1.58,1.58,0,0,0,0-2.24l-.7-.69,3-3A4.24,4.24,0,0,0,47.32,5.58ZM37.5,20.72l.59-.59.25.25-.59.58Zm-4.57,4.57.59-.59.25.24-.59.59ZM22,36.7l-.59.59L21.18,37l.59-.59Zm-5.32,4.83.59-.59.25.24-.59.6Zm-2.05-6.69-1.31-.55-.11.11a9.86,9.86,0,0,0-1.74-.24L10,34.22a9.85,9.85,0,0,0-5.14,2.33,25.53,25.53,0,0,1-2.39-4.29c-.37-.85-.33-1.26.69-2.3a1.77,1.77,0,0,1,.28-.23.53.53,0,0,1,.09.11c.24.33.41.61.62,1s.3.51.51.83A3.17,3.17,0,0,0,7,33.18c1.56.17,3.4-.73,5.21-2.54A21,21,0,0,0,18,16.8a1.23,1.23,0,0,0-1.77-1.12c-1.61.78-3,1.46-5.47,2.57a.24.24,0,0,1,0-.09c-.1-.81-.17-1.87-.23-2.74A50.11,50.11,0,0,0,22.6,12.86l1.28-.41c.78-.25,1.54-.51,2.3-.77l1.28-.45,2.12-.77L30.84,10c5-1.9,8.78-3.58,8.8-3.59C42.53,5,44.46,5.81,45.31,7a1.87,1.87,0,0,1,.15,2.28L17.9,36.83c-.28-.24-.56-.47-.86-.68l-.88-.57A9.65,9.65,0,0,0,14.64,34.84Zm1.64,3.61-2.91,2.92c-1.21,1.2-2.22,1.26-3.72.23h0a17.69,17.69,0,0,1-3.45-3.23C9.87,35.22,13.81,36.36,16.28,38.45ZM42.91,15.8l-.59.59-.25-.24.59-.59Z" style="fill:#231f20"/></svg>