<svg id="Layer_1" data-name="Layer 1" xmlns="http://www.w3.org/2000/svg" xmlns:xlink="http://www.w3.org/1999/xlink" viewBox="0 0 48 48"><defs><clipPath id="clip-path"><path d="M-376,249.33h13.33V222L-384,207-405.33,222v27.3H-392V234.67a1.34,1.34,0,0,1,1.33-1.34h13.34a1.34,1.34,0,0,1,1.33,1.34Zm14.67,2.67h-16a1.34,1.34,0,0,1-.95-.39,1.33,1.33,0,0,1-.39-.94V236h-10.66v14.67a1.33,1.33,0,0,1-.39.94,1.34,1.34,0,0,1-.95.39h-16a1.33,1.33,0,0,1-.94-.39,1.33,1.33,0,0,1-.39-.94V221.33a1.35,1.35,0,0,1,.56-1.09l22.67-16a1.36,1.36,0,0,1,1.54,0l22.67,16a1.35,1.35,0,0,1,.56,1.09v29.34a1.33,1.33,0,0,1-.39.94A1.33,1.33,0,0,1-361.33,252Z" style="fill:none"/></clipPath><clipPath id="clip-path-2"><path d="M-248,181.21A21.23,21.23,0,0,1-269.21,160,21.23,21.23,0,0,1-248,138.79,21.23,21.23,0,0,1-226.79,160,21.23,21.23,0,0,1-248,181.21Zm0-45.21a24,24,0,0,0-24,24,24,24,0,0,0,24,24,24,24,0,0,0,24-24A24,24,0,0,0-248,136Z" style="fill:none"/></clipPath></defs><title>icon-sport-4</title><path d="M25.65,36.13v-5H14.06V27l9.63-15.17h7.13V26.56h3.12v4.55H30.82v5Zm0-19.67-6.54,10.1h6.54Z" style="fill:#231f20"/></svg>