<svg id="Layer_1" data-name="Layer 1" xmlns="http://www.w3.org/2000/svg" xmlns:xlink="http://www.w3.org/1999/xlink" viewBox="0 0 48 48"><defs><clipPath id="clip-path"><path d="M-44,521.21A21.23,21.23,0,0,1-65.21,500,21.23,21.23,0,0,1-44,478.79,21.23,21.23,0,0,1-22.79,500,21.23,21.23,0,0,1-44,521.21ZM-44,476a24,24,0,0,0-24,24,24,24,0,0,0,24,24,24,24,0,0,0,24-24A24,24,0,0,0-44,476Z" style="fill:none"/></clipPath></defs><title>icon-sport-lunch</title><path d="M47.86,34.39H43.79a19.88,19.88,0,0,0-14.67-18.1,5.13,5.13,0,0,0-10.24,0A19.88,19.88,0,0,0,4.21,34.39H.14a1,1,0,0,0-1,1,1,1,0,0,0,1,1H47.86a1,1,0,0,0,0-2.09ZM24,13.61a3,3,0,0,1,2.93,2.23,19.62,19.62,0,0,0-5.86,0A3,3,0,0,1,24,13.61Zm0,4.09A17.74,17.74,0,0,1,41.68,34.39H6.32A17.74,17.74,0,0,1,24,17.7Z" style="fill:#231f20"/><path d="M30.59,20.28a1,1,0,1,0-.64,2,7,7,0,0,1,4.11,4.12,1.06,1.06,0,0,0,1,.71,1.26,1.26,0,0,0,.33-.05A1,1,0,0,0,36,25.72,9,9,0,0,0,30.59,20.28Z" style="fill:#231f20"/></svg>