<svg id="Layer_1" data-name="Layer 1" xmlns="http://www.w3.org/2000/svg" xmlns:xlink="http://www.w3.org/1999/xlink" viewBox="0 0 48 48"><defs><clipPath id="clip-path"><path d="M-240,453.33h13.33V426L-248,411-269.33,426v27.3H-256V438.67a1.34,1.34,0,0,1,1.33-1.34h13.34a1.34,1.34,0,0,1,1.33,1.34Zm14.67,2.67h-16a1.34,1.34,0,0,1-.95-.39,1.33,1.33,0,0,1-.39-.94V440h-10.66v14.67a1.33,1.33,0,0,1-.39.94,1.34,1.34,0,0,1-.95.39h-16a1.33,1.33,0,0,1-.94-.39,1.33,1.33,0,0,1-.39-.94V425.33a1.35,1.35,0,0,1,.56-1.09l22.67-16a1.36,1.36,0,0,1,1.54,0l22.67,16a1.35,1.35,0,0,1,.56,1.09v29.34a1.33,1.33,0,0,1-.39.94A1.33,1.33,0,0,1-225.33,456Z" style="fill:none"/></clipPath><clipPath id="clip-path-2"><path d="M-112,385.21A21.23,21.23,0,0,1-133.21,364,21.23,21.23,0,0,1-112,342.79,21.23,21.23,0,0,1-90.79,364,21.23,21.23,0,0,1-112,385.21Zm0-45.21a24,24,0,0,0-24,24,24,24,0,0,0,24,24,24,24,0,0,0,24-24A24,24,0,0,0-112,340Z" style="fill:none"/></clipPath></defs><title>icon-sport-stoppage-time</title><path d="M46.09,4.37H1.3A1.54,1.54,0,0,0,.16,4.8,2.09,2.09,0,0,0-.29,6.41V29.3a2.09,2.09,0,0,0,.45,1.61,1.54,1.54,0,0,0,1.14.43h5v.6c0,2.71.82,4.65,2.45,5.75a1,1,0,0,0,0,.23v4.81a.9.9,0,1,0,1.8,0V38.82h5.57v3.91a.9.9,0,1,0,1.79,0V37.92a1,1,0,0,0-.08-.37,5.4,5.4,0,0,0,.76-.65,6.69,6.69,0,0,0,1.74-5c0-.18,0-.36,0-.54h7.46c0,.18,0,.36,0,.54a6.69,6.69,0,0,0,1.74,5,5.4,5.4,0,0,0,.76.65,1,1,0,0,0-.08.37v4.82a.9.9,0,0,0,1.79,0V38.82H37.5v3.92a.9.9,0,0,0,1.8,0V37.92a.66.66,0,0,0,0-.23c1.63-1.11,2.45-3,2.45-5.75v-.6h4.38a2.2,2.2,0,0,0,2.21-2.2V6.57A2.2,2.2,0,0,0,46.09,4.37ZM29.61,24.94a1.69,1.69,0,0,0-1.81,1,.85.85,0,0,0-.08.35c0,.47,0,1.59,0,2.42v.66H20.26v-.63c0-.83,0-2,0-2.45a.86.86,0,0,0-.08-.36,1.69,1.69,0,0,0-1.81-1A3.44,3.44,0,0,0,15,28.63c0,.19,0,.46,0,.76H1.66V6.32H46.09a.25.25,0,0,1,.25.25V29.14a.25.25,0,0,1-.25.25H33c0-.3,0-.57,0-.76A3.48,3.48,0,0,0,29.61,24.94ZM8.09,31.34H15L15,32a.86.86,0,0,0,.28.63.93.93,0,0,0,.64.24.89.89,0,0,0,.87-.92s-.06-2.47-.05-3.29a1.68,1.68,0,0,1,1.67-1.91h0c0,.53,0,1,0,1.54,0,1.23,0,2.39,0,3.69a5,5,0,0,1-1.22,3.69A5.18,5.18,0,0,1,13.82,37H12.6c-3.16-.19-4.51-1.71-4.51-5.09Zm21.44-3.07c0-.5,0-1,0-1.54h0a1.68,1.68,0,0,1,1.67,1.91c0,.47,0,1.53-.05,3.16v.14a.87.87,0,0,0,.25.64A.89.89,0,0,0,33,32l0-.63h6.93v.6c0,3.38-1.36,4.9-4.51,5.09H34.2a5.17,5.17,0,0,1-3.46-1.38A5,5,0,0,1,29.52,32C29.55,30.68,29.54,29.53,29.53,28.27Z" style="fill:#231f20"/><path d="M36.59,21H37l0,.36a.54.54,0,0,0,.13.44.55.55,0,0,0,.43.18h4.58a.57.57,0,0,0,.57-.52l0-.46h.48a.56.56,0,0,0,.56-.51l.32-3.6a.55.55,0,0,0-.14-.44.57.57,0,0,0-.42-.19H42.8a.58.58,0,0,0-.57.53l-.29,3.41h-4.1l.28-3.34a.57.57,0,0,0-.57-.6h-.64a.58.58,0,0,0-.57.53L36,20.44a.66.66,0,0,0,.16.45A.58.58,0,0,0,36.59,21Z" style="fill:#231f20"/><path d="M37,16.14h.66a.57.57,0,0,0,.56-.52c.19-2.18.26-3.06.29-3.43h4.1c-.06.7-.23,2.59-.28,3.32a.6.6,0,0,0,.16.44.58.58,0,0,0,.41.18h.66a.56.56,0,0,0,.56-.52L44.46,12a.53.53,0,0,0-.56-.6h-.38l0-.4a.6.6,0,0,0-.15-.44A.54.54,0,0,0,43,10.4H38.4a.57.57,0,0,0-.57.53s0,.26,0,.47h-.46a.57.57,0,0,0-.57.51l-.32,3.6a.6.6,0,0,0,.14.45A.57.57,0,0,0,37,16.14Z" style="fill:#231f20"/><path d="M33.63,21.5l0-.46h.48a.56.56,0,0,0,.56-.51L35,16.9a.56.56,0,0,0-.56-.6h-.68a.57.57,0,0,0-.56.53l-.29,3.41h-4.1l.28-3.33a.58.58,0,0,0-.15-.43.6.6,0,0,0-.42-.18H27.9a.58.58,0,0,0-.57.53L27,20.44a.66.66,0,0,0,.16.45.56.56,0,0,0,.41.15H28l0,.36a.59.59,0,0,0,.13.45.6.6,0,0,0,.43.17h4.58A.57.57,0,0,0,33.63,21.5Z" style="fill:#231f20"/><path d="M28,16.14h.66a.56.56,0,0,0,.56-.52c.19-2.18.26-3.06.29-3.43h4.1l-.28,3.33a.6.6,0,0,0,.18.43.53.53,0,0,0,.39.18h.65a.57.57,0,0,0,.57-.52L35.45,12a.54.54,0,0,0-.56-.6h-.38l0-.4a.56.56,0,0,0-.14-.44A.54.54,0,0,0,34,10.4H29.39a.57.57,0,0,0-.57.53c0,.21,0,.36,0,.47h-.46a.57.57,0,0,0-.57.51l-.32,3.6a.56.56,0,0,0,.14.45A.57.57,0,0,0,28,16.14Z" style="fill:#231f20"/><path d="M24.82,18.33h-.65a.56.56,0,0,0-.56.5s-.05.49-.08.65a.56.56,0,0,0,.57.64h.64a.56.56,0,0,0,.56-.5l.08-.67a.55.55,0,0,0-.15-.43A.56.56,0,0,0,24.82,18.33Z" style="fill:#231f20"/><path d="M25.25,13.41H24.6a.56.56,0,0,0-.56.51s-.05.5-.06.66a.54.54,0,0,0,.14.43.57.57,0,0,0,.42.19h.65a.56.56,0,0,0,.56-.51l.06-.69A.57.57,0,0,0,25.25,13.41Z" style="fill:#231f20"/><path d="M21.63,11.4h-.38l0-.39a.57.57,0,0,0-.16-.42.56.56,0,0,0-.41-.19H16.14a.56.56,0,0,0-.56.52l-.06.68a.57.57,0,0,0,.16.44.59.59,0,0,0,.4.16h4.3l-.28,3.12H15.71a.56.56,0,0,0-.56.52l-.06.66a.55.55,0,0,0,.14.43.59.59,0,0,0,.42.19H20l-.28,3.12H15.29a.57.57,0,0,0-.57.52l-.06.66a.55.55,0,0,0,.17.43.54.54,0,0,0,.4.17h4.58a.56.56,0,0,0,.56-.51l.05-.47h.46a.56.56,0,0,0,.56-.51l.33-3.62a.61.61,0,0,0-.16-.44.55.55,0,0,0-.41-.17h-.38v-.16h.48a.56.56,0,0,0,.56-.51L22.2,12a.62.62,0,0,0-.17-.44A.53.53,0,0,0,21.63,11.4Z" style="fill:#231f20"/><path d="M13.25,16.3h-.68a.57.57,0,0,0-.56.53l-.29,3.41H7.62l.28-3.32a.6.6,0,0,0-.14-.43.59.59,0,0,0-.43-.19H6.69a.58.58,0,0,0-.57.53L5.8,20.44a.54.54,0,0,0,.57.6h.37l0,.36h0a.55.55,0,0,0,.14.44.56.56,0,0,0,.42.17h4.58a.57.57,0,0,0,.57-.52l0-.46h.47a.57.57,0,0,0,.57-.51l.32-3.61a.58.58,0,0,0-.14-.43A.57.57,0,0,0,13.25,16.3Z" style="fill:#231f20"/><path d="M13.68,11.4H13.3l0-.4a.56.56,0,0,0-.14-.44.54.54,0,0,0-.42-.16H8.17a.57.57,0,0,0-.56.53c0,.21,0,.36,0,.47H7.12a.57.57,0,0,0-.57.51l-.32,3.6a.56.56,0,0,0,.14.45.57.57,0,0,0,.43.18h.66A.57.57,0,0,0,8,15.62c.19-2.18.26-3.06.29-3.43h4.1l-.28,3.32a.58.58,0,0,0,.15.43.57.57,0,0,0,.42.19h.65a.57.57,0,0,0,.57-.52L14.24,12A.54.54,0,0,0,13.68,11.4Z" style="fill:#231f20"/></svg>