<svg id="Layer_1" data-name="Layer 1" xmlns="http://www.w3.org/2000/svg" xmlns:xlink="http://www.w3.org/1999/xlink" viewBox="0 0 48 48"><defs><clipPath id="clip-path"><path d="M-44,453.21A21.23,21.23,0,0,1-65.21,432,21.23,21.23,0,0,1-44,410.79,21.23,21.23,0,0,1-22.79,432,21.23,21.23,0,0,1-44,453.21ZM-44,408a24,24,0,0,0-24,24,24,24,0,0,0,24,24,24,24,0,0,0,24-24A24,24,0,0,0-44,408Z" style="fill:none"/></clipPath></defs><title>icon-sport-tea-break</title><path d="M38.37,20.52h-37A1.42,1.42,0,0,0,0,22V35.41A10.56,10.56,0,0,0,10.54,46h14.6a10.55,10.55,0,0,0,9.58-6.16h3.65a9.64,9.64,0,1,0,0-19.28ZM25.14,43.11H10.54a7.71,7.71,0,0,1-7.7-7.7v-12h30v12A7.71,7.71,0,0,1,25.14,43.11ZM38.37,37h-2.8a11.28,11.28,0,0,0,.12-1.54v-12h2.68a6.79,6.79,0,1,1,0,13.58Z" style="fill:#231f20"/><path d="M12.71,17.21a1.43,1.43,0,0,0,1-2.44c-2.3-2.25-1.8-2.84-.49-4.42s3.22-3.86.67-7.68a1.43,1.43,0,1,0-2.37,1.59c1.36,2,.7,2.83-.49,4.27-1.39,1.66-3.49,4.18.68,8.27A1.37,1.37,0,0,0,12.71,17.21Z" style="fill:#231f20"/><path d="M25,17.21a1.43,1.43,0,0,0,1-2.44c-2.29-2.25-1.8-2.84-.49-4.42s3.22-3.86.67-7.68a1.43,1.43,0,0,0-2.37,1.59c1.36,2,.71,2.83-.49,4.27C22,10.19,19.86,12.71,24,16.8A1.38,1.38,0,0,0,25,17.21Z" style="fill:#231f20"/></svg>