<svg id="Layer_1" data-name="Layer 1" xmlns="http://www.w3.org/2000/svg" xmlns:xlink="http://www.w3.org/1999/xlink" viewBox="0 0 48 48"><defs><clipPath id="clip-path"><path d="M-376,45.33h13.33V18L-384,3-405.33,18v27.3H-392V30.67a1.34,1.34,0,0,1,1.33-1.34h13.34A1.34,1.34,0,0,1-376,30.67ZM-361.33,48h-16a1.34,1.34,0,0,1-.95-.39,1.33,1.33,0,0,1-.39-.94V32h-10.66V46.67a1.33,1.33,0,0,1-.39.94,1.34,1.34,0,0,1-.95.39h-16a1.33,1.33,0,0,1-.94-.39,1.33,1.33,0,0,1-.39-.94V17.33a1.35,1.35,0,0,1,.56-1.09l22.67-16a1.36,1.36,0,0,1,1.54,0l22.67,16a1.35,1.35,0,0,1,.56,1.09V46.67a1.33,1.33,0,0,1-.39.94A1.33,1.33,0,0,1-361.33,48Z" style="fill:none"/></clipPath><clipPath id="clip-path-2"><path d="M-248-22.79A21.23,21.23,0,0,1-269.21-44,21.23,21.23,0,0,1-248-65.21,21.23,21.23,0,0,1-226.79-44,21.23,21.23,0,0,1-248-22.79ZM-248-68a24,24,0,0,0-24,24,24,24,0,0,0,24,24,24,24,0,0,0,24-24A24,24,0,0,0-248-68Z" style="fill:none"/></clipPath></defs><title>icon-sport-100</title><path d="M6.85,33.33V19.75L3.74,22.92,1.46,20.53l5.9-5.91h3.47V33.33Z" style="fill:#231f20"/><path d="M13.65,24c0-4.83,2.38-9.66,7.74-9.66s7.74,4.83,7.74,9.66-2.41,9.68-7.74,9.68S13.65,28.81,13.65,24Zm11.41,0c0-3.46-1-6.12-3.67-6.12s-3.7,2.66-3.7,6.12,1,6.14,3.7,6.14S25.06,27.44,25.06,24Z" style="fill:#231f20"/><path d="M31.05,24c0-4.83,2.38-9.66,7.74-9.66s7.75,4.83,7.75,9.66-2.42,9.68-7.75,9.68S31.05,28.81,31.05,24Zm11.42,0c0-3.46-1-6.12-3.68-6.12s-3.7,2.66-3.7,6.12,1,6.14,3.7,6.14S42.47,27.44,42.47,24Z" style="fill:#231f20"/></svg>