<svg id="Layer_1" data-name="Layer 1" xmlns="http://www.w3.org/2000/svg" xmlns:xlink="http://www.w3.org/1999/xlink" viewBox="0 0 48 48"><defs><clipPath id="clip-path"><path d="M-180,453.21A21.23,21.23,0,0,1-201.21,432,21.23,21.23,0,0,1-180,410.79,21.23,21.23,0,0,1-158.79,432,21.23,21.23,0,0,1-180,453.21Zm0-45.21a24,24,0,0,0-24,24,24,24,0,0,0,24,24,24,24,0,0,0,24-24A24,24,0,0,0-180,408Z" style="fill:none"/></clipPath></defs><title>icon-sport-goal-scorer</title><path d="M25.71,45c-.57.05-1.13.08-1.71.08a21.12,21.12,0,0,1-5.36-.71l-3-7.68,4.14-4.52h8.11A10.81,10.81,0,0,1,30,30.72h0l2-8.18,6.18-2.39L45,26.05A21,21,0,0,1,43.1,33a10.91,10.91,0,0,1,1.52,2.22A23.25,23.25,0,0,0,47.47,24,23.49,23.49,0,1,0,27.26,47.24,10.92,10.92,0,0,1,25.71,45Zm2.07-15.17H20.22l-1.92-7.7,5.7-3.8,5.7,3.8ZM41.44,12.11A21,21,0,0,1,45.07,23l-5.3-4.6ZM39.62,9.83l-2.15,8.08-6.28,2.43-6-4V8.61l6.13-4.4A21.11,21.11,0,0,1,39.62,9.83ZM24,2.88a21.16,21.16,0,0,1,4.46.48L24,6.57,19.54,3.36A21.16,21.16,0,0,1,24,2.88ZM16.7,4.21l6.13,4.4v7.72l-6,4-6.28-2.43L8.38,9.83A21.11,21.11,0,0,1,16.7,4.21ZM6.56,12.11l1.67,6.28L2.93,23A21,21,0,0,1,6.56,12.11ZM6.18,35.29A21,21,0,0,1,3,26.05l6.81-5.91L16,22.53l2,8.18L13.8,35.29ZM7.9,37.64h5.61l2.24,5.8A21.21,21.21,0,0,1,7.9,37.64Z" style="fill:#231f20"/><path d="M40,40.48a6.67,6.67,0,0,0-1.79-1.3,4.2,4.2,0,1,0-6.14,0,6.67,6.67,0,0,0-1.79,1.3,6.8,6.8,0,0,0-2,4.86v.53h2.05v-.53a4.82,4.82,0,0,1,9.64,0v.53h2v-.53A6.8,6.8,0,0,0,40,40.48Zm-4.86-6.3A2.14,2.14,0,1,1,33,36.32,2.14,2.14,0,0,1,35.14,34.18Z" style="fill:#dd1f26"/></svg>