<svg id="Layer_1" data-name="Layer 1" xmlns="http://www.w3.org/2000/svg" xmlns:xlink="http://www.w3.org/1999/xlink" viewBox="0 0 48 48"><defs><clipPath id="clip-path"><path d="M-376,317.33h13.33V290L-384,275-405.33,290v27.3H-392V302.67a1.34,1.34,0,0,1,1.33-1.34h13.34a1.34,1.34,0,0,1,1.33,1.34Zm14.67,2.67h-16a1.34,1.34,0,0,1-.95-.39,1.33,1.33,0,0,1-.39-.94V304h-10.66v14.67a1.33,1.33,0,0,1-.39.94,1.34,1.34,0,0,1-.95.39h-16a1.33,1.33,0,0,1-.94-.39,1.33,1.33,0,0,1-.39-.94V289.33a1.35,1.35,0,0,1,.56-1.09l22.67-16a1.36,1.36,0,0,1,1.54,0l22.67,16a1.35,1.35,0,0,1,.56,1.09v29.34a1.33,1.33,0,0,1-.39.94A1.33,1.33,0,0,1-361.33,320Z" style="fill:none"/></clipPath><clipPath id="clip-path-2"><path d="M-248,249.21A21.23,21.23,0,0,1-269.21,228,21.23,21.23,0,0,1-248,206.79,21.23,21.23,0,0,1-226.79,228,21.23,21.23,0,0,1-248,249.21Zm0-45.21a24,24,0,0,0-24,24,24,24,0,0,0,24,24,24,24,0,0,0,24-24A24,24,0,0,0-248,204Z" style="fill:none"/></clipPath></defs><title>icon-sport-half-time</title><path d="M19,26.17a5,5,0,0,1,4.71-5V7.53a18.71,18.71,0,0,0,0,37.41V31.13A5,5,0,0,1,19,26.17Z" style="fill:none"/><path d="M22.05,26.17a1.94,1.94,0,0,0,1.66,1.92V24.25A1.94,1.94,0,0,0,22.05,26.17Z" style="fill:none"/><path d="M25.32,4.54V3.09h-2.5V4.53c.39,0,.78-.06,1.18-.06S24.88,4.51,25.32,4.54Z" style="fill:none"/><path d="M25.94,26.17a2,2,0,0,0-1.94-2,2.58,2.58,0,0,0-.29,0v3.84a2.58,2.58,0,0,0,.29,0A2,2,0,0,0,25.94,26.17Z" style="fill:#4d5566;opacity:0.2"/><path d="M42.72,26.23A18.74,18.74,0,0,0,24,7.51l-.29,0V21.21a2.85,2.85,0,0,1,.29,0,5.08,5.08,0,0,1,1.79.34L30,16.07l2.42,1.85-4.23,5.51A5,5,0,0,1,24,31.16a2.85,2.85,0,0,1-.29,0V44.94L24,45A18.75,18.75,0,0,0,42.72,26.23Z" style="fill:#4d5566;opacity:0.2"/><path d="M32.39,17.92,30,16.07l-4.18,5.45A5.08,5.08,0,0,0,24,21.18a2.85,2.85,0,0,0-.29,0,5,5,0,0,0,0,9.92,2.85,2.85,0,0,0,.29,0,5,5,0,0,0,4.16-7.73ZM24,28.12a2.58,2.58,0,0,1-.29,0,1.94,1.94,0,0,1,0-3.84,2.58,2.58,0,0,1,.29,0,2,2,0,0,1,0,3.9Z" style="fill:#231f20"/><path d="M37.92,9.52l.91-1.27.55.41,1.79-2.47L37.47,3.5,35.68,6l.68.49-.92,1.3a21.37,21.37,0,0,0-7.07-2.85V3.11h1.84l0-3H28.4L19.81,0H18l0,3,1.84,0,0,1.83A21.79,21.79,0,1,0,37.92,9.52ZM22.83,3.08h2.5V4.54c-.44,0-.87-.07-1.32-.07s-.79,0-1.18.06ZM5.28,26.23A18.73,18.73,0,0,1,23.71,7.53l.29,0A18.73,18.73,0,0,1,24,45l-.29,0A18.73,18.73,0,0,1,5.28,26.23Z" style="fill:#231f20"/></svg>