<svg id="Layer_1" data-name="Layer 1" xmlns="http://www.w3.org/2000/svg" xmlns:xlink="http://www.w3.org/1999/xlink" viewBox="0 0 48 48"><defs><clipPath id="clip-path"><path d="M-240,181.33h13.33V154L-248,139-269.33,154v27.3H-256V166.67a1.34,1.34,0,0,1,1.33-1.34h13.34a1.34,1.34,0,0,1,1.33,1.34Zm14.67,2.67h-16a1.34,1.34,0,0,1-.95-.39,1.33,1.33,0,0,1-.39-.94V168h-10.66v14.67a1.33,1.33,0,0,1-.39.94,1.34,1.34,0,0,1-.95.39h-16a1.33,1.33,0,0,1-.94-.39,1.33,1.33,0,0,1-.39-.94V153.33a1.35,1.35,0,0,1,.56-1.09l22.67-16a1.36,1.36,0,0,1,1.54,0l22.67,16a1.35,1.35,0,0,1,.56,1.09v29.34a1.33,1.33,0,0,1-.39.94A1.33,1.33,0,0,1-225.33,184Z" style="fill:none"/></clipPath><clipPath id="clip-path-2"><path d="M-112,113.21A21.23,21.23,0,0,1-133.21,92,21.23,21.23,0,0,1-112,70.79,21.23,21.23,0,0,1-90.79,92,21.23,21.23,0,0,1-112,113.21ZM-112,68a24,24,0,0,0-24,24,24,24,0,0,0,24,24A24,24,0,0,0-88,92,24,24,0,0,0-112,68Z" style="fill:none"/></clipPath></defs><title>icon-sport-try</title><path d="M44.53,3.47C42.11,1.05,36-.11,29.45.58a33.34,33.34,0,0,0-19.89,9,33.31,33.31,0,0,0-9,19.89c-.69,6.6.47,12.66,2.89,15.08,1.92,1.92,6.17,3.09,11.28,3.09,7.6,0,17.1-2.59,23.69-9.18a33.28,33.28,0,0,0,9-19.89C48.11,12,47,5.9,44.53,3.47Zm-39,39h0s0-.05,0-.06c-1.27-1.7-2.09-7.06-2.09-7.06a32.37,32.37,0,0,1,.09-5.57,30.34,30.34,0,0,1,8.14-18.11A30.33,30.33,0,0,1,29.76,3.52a32.32,32.32,0,0,1,3.41-.18c.75,0,1.46,0,2.14.08,5.87.34,6.65,1.77,7.11,2.13l0,0c2.11,2.1-2,12.06-13.39,23.48S7.67,44.55,5.56,42.44ZM44.49,18.25a30.34,30.34,0,0,1-8.14,18.1c-6.74,6.74-16.72,8.7-23.61,8.24,5.59-2.33,12.43-7.49,18.39-13.46s11.12-12.8,13.45-18.39A31.7,31.7,0,0,1,44.49,18.25Z" style="fill:#231f20"/></svg>