<svg id="Layer_1" data-name="Layer 1" xmlns="http://www.w3.org/2000/svg" xmlns:xlink="http://www.w3.org/1999/xlink" viewBox="0 0 48 48"><defs><clipPath id="clip-path"><path d="M24,453.21A21.21,21.21,0,1,1,45.21,432,21.23,21.23,0,0,1,24,453.21ZM24,408a24,24,0,1,0,24,24A24,24,0,0,0,24,408Z" style="fill:none"/></clipPath></defs><title>icon-sport-cloudy</title><path d="M45.82,26.72V25.58A10.66,10.66,0,0,0,35.06,15a11.28,11.28,0,0,0-1.54.11A13.43,13.43,0,0,0,21.42,7C14.33,7,8.56,12.92,8,20.36h-.2a7.88,7.88,0,1,0,0,15.76H12A6.06,6.06,0,0,0,17.94,41H37a6.61,6.61,0,0,0,1-.08A10.36,10.36,0,0,0,39.2,41a8.78,8.78,0,0,0,9-8.49A8.14,8.14,0,0,0,45.82,26.72ZM2.18,28.24a5.54,5.54,0,0,1,5.61-5.45H9.15a1.21,1.21,0,0,0,1.21-1.21c0-6.72,5-12.13,11.06-12.13a11.14,11.14,0,0,1,10.23,7.49,1.21,1.21,0,0,0,1.41.75,8.36,8.36,0,0,1,2-.24A8.25,8.25,0,0,1,43.36,25a9.46,9.46,0,0,0-4.16-1,9.57,9.57,0,0,0-2.88.44,10.24,10.24,0,0,0-8.87-5.29A10.57,10.57,0,0,0,17.16,28.9,6.06,6.06,0,0,0,12,33.7H7.79A5.54,5.54,0,0,1,2.18,28.24Zm37,10.31a6.5,6.5,0,0,1-1.09-.09h-.43a3.38,3.38,0,0,1-.72.08h-19a3.64,3.64,0,0,1,0-7.28h.37a1.21,1.21,0,0,0,1.21-1.21,8.22,8.22,0,0,1,7.93-8.48,7.9,7.9,0,0,1,7.17,4.87,1.22,1.22,0,0,0,1.62.61,7,7,0,0,1,3-.64,6.37,6.37,0,0,1,6.62,6.06A6.37,6.37,0,0,1,39.2,38.55Z" style="fill:#231f20"/></svg>