<svg id="Layer_1" data-name="Layer 1" xmlns="http://www.w3.org/2000/svg" xmlns:xlink="http://www.w3.org/1999/xlink" viewBox="0 0 48 48"><defs><clipPath id="clip-path"><path d="M-308,249.33h13.33V222L-316,207-337.33,222v27.3H-324V234.67a1.34,1.34,0,0,1,1.33-1.34h13.34a1.34,1.34,0,0,1,1.33,1.34Zm14.67,2.67h-16a1.34,1.34,0,0,1-.95-.39,1.33,1.33,0,0,1-.39-.94V236h-10.66v14.67a1.33,1.33,0,0,1-.39.94,1.34,1.34,0,0,1-.95.39h-16a1.33,1.33,0,0,1-.94-.39,1.33,1.33,0,0,1-.39-.94V221.33a1.35,1.35,0,0,1,.56-1.09l22.67-16a1.36,1.36,0,0,1,1.54,0l22.67,16a1.35,1.35,0,0,1,.56,1.09v29.34a1.33,1.33,0,0,1-.39.94A1.33,1.33,0,0,1-293.33,252Z" style="fill:none"/></clipPath><clipPath id="clip-path-2"><path d="M-180,181.21A21.23,21.23,0,0,1-201.21,160,21.23,21.23,0,0,1-180,138.79,21.23,21.23,0,0,1-158.79,160,21.23,21.23,0,0,1-180,181.21Zm0-45.21a24,24,0,0,0-24,24,24,24,0,0,0,24,24,24,24,0,0,0,24-24A24,24,0,0,0-180,136Z" style="fill:none"/></clipPath></defs><title>icon-sport-try-scorer</title><path d="M41.08,3C38.86.74,33.26-.38,27.16.21A30.79,30.79,0,0,0,8.69,8.37,30.79,30.79,0,0,0,.23,26.7c-.69,6.1.34,11.71,2.56,14,1.76,1.79,5.68,2.9,10.41,2.94,7,.06,15.84-2.26,22-8.31A30.77,30.77,0,0,0,43.65,17C44.34,10.88,43.31,5.26,41.08,3ZM4.74,38.76h0s0,0,0-.06c-1.16-1.57-1.87-6.54-1.87-6.54A29.53,29.53,0,0,1,2.94,27a28,28,0,0,1,7.67-16.69A28.06,28.06,0,0,1,27.42,2.93a30.37,30.37,0,0,1,3.16-.14c.7,0,1.35,0,2,.09,5.42.36,6.14,1.69,6.56,2h0c1.93,2-1.92,11.14-12.57,21.63S6.67,40.72,4.74,38.76ZM40.93,16.67a28,28,0,0,1-7.66,16.69c-6.28,6.18-15.53,7.91-21.9,7.43,5.19-2.11,11.55-6.83,17.11-12.3S38.86,16.73,41.06,11.57A28.05,28.05,0,0,1,40.93,16.67Z" style="fill:#231f20"/><circle cx="37.23" cy="37.34" r="10.68" style="fill:#fff"/><path d="M41.72,38.13a6.18,6.18,0,0,0-2.41-1.51,3.67,3.67,0,1,0-4.15,0,6.18,6.18,0,0,0-2.41,1.51,6.3,6.3,0,0,0-1.86,4.49h1a5.36,5.36,0,1,1,10.71,0h1A6.3,6.3,0,0,0,41.72,38.13Zm-4.49-1.86a2.68,2.68,0,1,1,2.68-2.68A2.68,2.68,0,0,1,37.23,36.27Z" style="fill:#dd1f26;stroke:#dd1f26;stroke-miterlimit:10"/></svg>