<svg id="Layer_1" data-name="Layer 1" xmlns="http://www.w3.org/2000/svg" xmlns:xlink="http://www.w3.org/1999/xlink" viewBox="0 0 48 48"><defs><clipPath id="clip-path"><path d="M-376,113.33h13.33V86L-384,71-405.33,86v27.3H-392V98.67a1.34,1.34,0,0,1,1.33-1.34h13.34A1.34,1.34,0,0,1-376,98.67Zm14.67,2.67h-16a1.34,1.34,0,0,1-.95-.39,1.33,1.33,0,0,1-.39-.94V100h-10.66v14.67a1.33,1.33,0,0,1-.39.94,1.34,1.34,0,0,1-.95.39h-16a1.33,1.33,0,0,1-.94-.39,1.33,1.33,0,0,1-.39-.94V85.33a1.35,1.35,0,0,1,.56-1.09l22.67-16a1.36,1.36,0,0,1,1.54,0l22.67,16a1.35,1.35,0,0,1,.56,1.09v29.34a1.33,1.33,0,0,1-.39.94A1.33,1.33,0,0,1-361.33,116Z" style="fill:none"/></clipPath><clipPath id="clip-path-2"><path d="M-248,45.21A21.23,21.23,0,0,1-269.21,24,21.23,21.23,0,0,1-248,2.79,21.23,21.23,0,0,1-226.79,24,21.23,21.23,0,0,1-248,45.21ZM-248,0a24,24,0,0,0-24,24,24,24,0,0,0,24,24,24,24,0,0,0,24-24A24,24,0,0,0-248,0Z" style="fill:none"/></clipPath></defs><title>icon-sport-50</title><path d="M8.75,30.51l2.1-2.63a6.41,6.41,0,0,0,4.72,1.94c2.1,0,3.3-1.2,3.3-2.64s-1.17-2.63-3.2-2.63A5.12,5.12,0,0,0,11.94,26l-2.63-.69V15.09h12.2v3.33H13.09v4.34A5.63,5.63,0,0,1,17,21.27,5.55,5.55,0,0,1,22.7,27c0,3.78-2.82,6.16-7.11,6.16A8.86,8.86,0,0,1,8.75,30.51Z" style="fill:#231f20"/><path d="M24.55,24c0-4.58,2.26-9.17,7.35-9.17s7.35,4.59,7.35,9.17S37,33.18,31.9,33.18,24.55,28.57,24.55,24Zm10.84,0c0-3.28-1-5.81-3.49-5.81S28.38,20.71,28.38,24s1,5.83,3.52,5.83S35.39,27.26,35.39,24Z" style="fill:#231f20"/></svg>