<svg id="Layer_1" data-name="Layer 1" xmlns="http://www.w3.org/2000/svg" xmlns:xlink="http://www.w3.org/1999/xlink" viewBox="0 0 48 48"><defs><clipPath id="clip-path"><path d="M-104,45.33h13.33V18L-112,3-133.33,18v27.3H-120V30.67a1.34,1.34,0,0,1,1.33-1.34h13.34A1.34,1.34,0,0,1-104,30.67ZM-89.33,48h-16a1.34,1.34,0,0,1-1-.39,1.33,1.33,0,0,1-.39-.94V32h-10.66V46.67a1.33,1.33,0,0,1-.39.94,1.34,1.34,0,0,1-1,.39h-16a1.33,1.33,0,0,1-.94-.39,1.33,1.33,0,0,1-.39-.94V17.33a1.35,1.35,0,0,1,.56-1.09l22.67-16a1.36,1.36,0,0,1,1.54,0l22.67,16A1.35,1.35,0,0,1-88,17.33V46.67a1.33,1.33,0,0,1-.39.94A1.33,1.33,0,0,1-89.33,48Z" style="fill:none"/></clipPath><clipPath id="clip-path-2"><path d="M24-22.79A21.23,21.23,0,0,1,2.79-44,21.23,21.23,0,0,1,24-65.21,21.23,21.23,0,0,1,45.21-44,21.23,21.23,0,0,1,24-22.79ZM24-68A24,24,0,0,0,0-44,24,24,0,0,0,24-20,24,24,0,0,0,48-44,24,24,0,0,0,24-68Z" style="fill:none"/></clipPath></defs><title>icon-sport-water-break</title><path d="M37.52,13.77a1.26,1.26,0,0,0-.55-1L31.39,9V1.5A1.25,1.25,0,0,0,30.14.25H17.86A1.25,1.25,0,0,0,16.61,1.5V9L11,12.73a1.26,1.26,0,0,0-.55,1v4.09a5.33,5.33,0,0,0,1.32,3.49A3.22,3.22,0,0,0,10.48,24v8.28a3.23,3.23,0,0,0,.71,2,3.19,3.19,0,0,0-.71,2V44.5a3.26,3.26,0,0,0,3.25,3.25H34.27a3.26,3.26,0,0,0,3.25-3.25V36.23a3.19,3.19,0,0,0-.71-2,3.23,3.23,0,0,0,.71-2V24a3.22,3.22,0,0,0-1.32-2.6,5.33,5.33,0,0,0,1.32-3.49Zm-18.41-11h9.78V8.43H19.11ZM13,14.44l5.26-3.51H29.76L35,14.44v3.42a2.84,2.84,0,0,1-2.84,2.84H15.82A2.84,2.84,0,0,1,13,17.86ZM34.27,23.2A.75.75,0,0,1,35,24v8.28a.75.75,0,0,1-.75.75H13.73a.75.75,0,0,1-.75-.75V24a.75.75,0,0,1,.75-.75H34.27ZM35,44.5a.75.75,0,0,1-.75.75H13.73A.75.75,0,0,1,13,44.5V36.23a.74.74,0,0,1,.75-.75H34.27a.74.74,0,0,1,.75.75Z" style="fill:#231f20"/></svg>