<?xml version="1.0" encoding="UTF-8"?>
<svg width="18px" height="18px" viewBox="0 0 18 18" version="1.1" xmlns="http://www.w3.org/2000/svg" xmlns:xlink="http://www.w3.org/1999/xlink">
    <title>edit (1) copy 3</title>
    <g id="Profile-(subscription)" stroke="none" stroke-width="1" fill="none" fill-rule="evenodd">
        <g id="reg-profile-details-email" transform="translate(-330.000000, -66.000000)" fill="#000000" fill-rule="nonzero">
            <g id="edit-(1)-copy-3" transform="translate(330.000000, 66.000000)">
                <path d="M17.9742331,3.70185276 C17.9484663,3.64295706 17.9337423,3.56933742 17.9190184,3.49571779 C17.8785276,3.30062577 17.8343558,3.08344785 17.7349693,2.86258896 C17.1828221,1.60369325 16.2699387,0.709214724 15.0220859,0.204920245 C14.7533742,0.0944907975 14.4846626,0.0613619632 14.2490798,0.035595092 L14.190184,0.0282331288 C13.9177914,-0.00489570552 13.5128834,0.0319141104 13.1337423,0.418417178 C11.5251534,2.0343681 9.88711656,3.67240491 8.3006135,5.25890798 L7.13742331,6.41841718 C6.87607362,6.67976687 6.76932515,6.78651534 6.71411043,6.84173006 C6.65889571,6.89694479 6.65889571,6.89694479 6.61472393,6.94111656 C6.56687117,6.98896933 6.46748466,7.09203681 6.1803681,7.38283436 C5.92269939,7.64418405 5.92638037,8.06381595 6.18773006,8.32148466 C6.44907975,8.57915337 6.86871166,8.57547239 7.12638037,8.3141227 C7.41717791,8.01964417 7.51656442,7.91657669 7.56441718,7.86872393 C7.60490798,7.82823313 7.60490798,7.82823313 7.65276074,7.78038037 C7.70797546,7.72516564 7.81472393,7.61841718 8.07607362,7.35706748 L9.2392638,6.1938773 C10.8257669,4.60737423 12.4638037,2.96933742 14.0760736,1.34970552 L14.0797546,1.34602454 L14.0907975,1.34602454 C14.2601227,1.36811043 14.4220859,1.38651534 14.5288344,1.43068712 C15.4601227,1.80614724 16.1116564,2.45031902 16.5276074,3.39265031 C16.5680982,3.48835583 16.597546,3.62087117 16.6269939,3.76442945 C16.6343558,3.80123926 16.6417178,3.8343681 16.6490798,3.87117791 C16.6453988,3.8748589 16.6417178,3.87853988 16.6343558,3.88590184 C13.9840491,6.52884663 11.2269939,9.28590184 8.19754601,12.3190307 C8.18282209,12.3337546 8.18282209,12.3337546 8.15705521,12.3411166 C7.14110429,12.5546135 6.11042945,12.7717914 5.11656442,12.9816074 L4.95828221,13.0147362 L4.98773006,12.8785399 C5.20122699,11.8662699 5.42208589,10.8208712 5.64662577,9.7938773 C5.72392638,9.43682209 5.4993865,9.08344785 5.14233129,9.00614724 C4.78527607,8.92884663 4.43190184,9.1533865 4.35460123,9.51044172 C4.13006135,10.5411166 3.90920245,11.5901963 3.69570552,12.6061472 L3.57423313,13.1803804 C3.5006135,13.5337546 3.6,13.8908098 3.84294479,14.1337546 C4.03435583,14.3251656 4.29202454,14.4282331 4.56809816,14.4282331 C4.64539877,14.4282331 4.72269939,14.4208712 4.8,14.4024663 L5.4,14.2773129 C6.39754601,14.0674969 7.42453988,13.850319 8.43680982,13.6368221 C8.71656442,13.5779264 8.94846626,13.452773 9.14355828,13.254 C12.1693252,10.2208712 14.9300613,7.46381595 17.5766871,4.82087117 C17.8233129,4.5742454 17.9595092,4.27976687 17.992638,3.92639264 C18,3.85277301 17.992638,3.77547239 17.9742331,3.70185276 Z" id="Path"></path>
                <path d="M14.2711656,9.70921472 C13.9067485,9.70921472 13.608589,10.0073742 13.608589,10.3717914 L13.608589,16.3607485 C13.608589,16.5227117 13.4797546,16.651546 13.3177914,16.651546 L1.61595092,16.651546 C1.45398773,16.651546 1.32515337,16.5227117 1.32515337,16.3607485 L1.32515337,4.65890798 C1.32515337,4.49694479 1.45398773,4.36811043 1.61595092,4.36811043 L7.85889571,4.36811043 C8.22331288,4.36811043 8.52147239,4.06995092 8.52147239,3.70553374 C8.52147239,3.34111656 8.22331288,3.04295706 7.85889571,3.04295706 L1.61595092,3.04295706 C0.725153374,3.04295706 0,3.76811043 0,4.65890798 L0,16.3607485 C0,17.251546 0.725153374,17.9766994 1.61595092,17.9766994 L13.3177914,17.9766994 C14.208589,17.9766994 14.9337423,17.251546 14.9337423,16.3607485 L14.9337423,10.3717914 C14.9337423,10.0073742 14.6355828,9.70921472 14.2711656,9.70921472 Z" id="Path"></path>
            </g>
        </g>
    </g>
</svg>