<svg id="Layer_1" data-name="Layer 1" xmlns="http://www.w3.org/2000/svg" xmlns:xlink="http://www.w3.org/1999/xlink" viewBox="0 0 48 48"><defs><clipPath id="clip-path"><path d="M-172,385.33h13.33V358L-180,343-201.33,358v27.3H-188V370.67a1.34,1.34,0,0,1,1.33-1.34h13.34a1.34,1.34,0,0,1,1.33,1.34Zm14.67,2.67h-16a1.34,1.34,0,0,1-.95-.39,1.33,1.33,0,0,1-.39-.94V372h-10.66v14.67a1.33,1.33,0,0,1-.39.94,1.34,1.34,0,0,1-.95.39h-16a1.33,1.33,0,0,1-.94-.39,1.33,1.33,0,0,1-.39-.94V357.33a1.35,1.35,0,0,1,.56-1.09l22.67-16a1.36,1.36,0,0,1,1.54,0l22.67,16a1.35,1.35,0,0,1,.56,1.09v29.34a1.33,1.33,0,0,1-.39.94A1.33,1.33,0,0,1-157.33,388Z" style="fill:none"/></clipPath><clipPath id="clip-path-2"><path d="M-44,317.21A21.23,21.23,0,0,1-65.21,296,21.23,21.23,0,0,1-44,274.79,21.23,21.23,0,0,1-22.79,296,21.23,21.23,0,0,1-44,317.21ZM-44,272a24,24,0,0,0-24,24,24,24,0,0,0,24,24,24,24,0,0,0,24-24A24,24,0,0,0-44,272Z" style="fill:none"/></clipPath></defs><title>icon-sport-corner</title><path d="M42.77,25H18.87V4.55a1.47,1.47,0,0,0-2.19-1.28L4.57,9.37a1.46,1.46,0,0,0-.12,2.55l11.48,7.14v8.39l-10,15.2a1.47,1.47,0,0,0,.42,2,1.44,1.44,0,0,0,.8.24l.3,0a1.47,1.47,0,0,0,.93-.63l4.31-6.54A13.89,13.89,0,0,0,19,39.44a9,9,0,0,0,3.89-.85c3.36-1.59,5.68-5.34,6.64-10.67H42.77a1.47,1.47,0,1,0,0-2.93ZM26.53,27.92c-.82,4.11-2.48,6.87-4.88,8-2,1-4.55.71-7.34-.68l4.83-7.33ZM8.22,10.81l7.71-3.88v8.68Z" style="fill:#231f20"/></svg>