<svg id="Layer_1" data-name="Layer 1" xmlns="http://www.w3.org/2000/svg" xmlns:xlink="http://www.w3.org/1999/xlink" viewBox="0 0 48 48"><defs><style>.cls-1,.cls-2,.cls-35{fill:none;}.cls-2{clip-rule:evenodd;}.cls-3,.cls-35{stroke:#231f20;stroke-miterlimit:10;}.cls-4{clip-path:url(#clip-path);}.cls-5{clip-path:url(#clip-path-2);}.cls-6{clip-path:url(#clip-path-3);}.cls-7{clip-path:url(#clip-path-4);}.cls-8{clip-path:url(#clip-path-5);}.cls-9{fill:#212121;}.cls-10{clip-path:url(#clip-path-6);}.cls-11{clip-path:url(#clip-path-7);}.cls-12{clip-path:url(#clip-path-8);}.cls-13{clip-path:url(#clip-path-9);}.cls-14{clip-path:url(#clip-path-10);}.cls-15{clip-path:url(#clip-path-11);}.cls-16{clip-path:url(#clip-path-12);}.cls-17{clip-path:url(#clip-path-13);}.cls-18{clip-path:url(#clip-path-14);}.cls-19{clip-path:url(#clip-path-15);}.cls-20{clip-path:url(#clip-path-16);}.cls-21{clip-path:url(#clip-path-17);}.cls-22{clip-path:url(#clip-path-18);}.cls-23{clip-path:url(#clip-path-19);}.cls-24{clip-path:url(#clip-path-20);}.cls-25{clip-path:url(#clip-path-21);}.cls-26{clip-path:url(#clip-path-22);}.cls-27{clip-path:url(#clip-path-23);}.cls-28{clip-path:url(#clip-path-24);}.cls-29{clip-path:url(#clip-path-25);}.cls-30{clip-path:url(#clip-path-26);}.cls-31{clip-path:url(#clip-path-27);}.cls-32{clip-path:url(#clip-path-28);}.cls-33{clip-path:url(#clip-path-29);}.cls-34{clip-path:url(#clip-path-30);}.cls-36{clip-path:url(#clip-path-31);}.cls-37{clip-path:url(#clip-path-32);}</style><clipPath id="clip-path"><path class="cls-1" d="M32-22.67H45.33V-50L24-65,2.67-50v27.3H16V-37.33a1.34,1.34,0,0,1,1.33-1.34H30.67A1.34,1.34,0,0,1,32-37.33ZM46.67-20h-16a1.34,1.34,0,0,1-1-.39,1.33,1.33,0,0,1-.39-.94V-36H18.67v14.67a1.33,1.33,0,0,1-.39.94,1.34,1.34,0,0,1-1,.39h-16a1.33,1.33,0,0,1-.94-.39A1.33,1.33,0,0,1,0-21.33V-50.67a1.35,1.35,0,0,1,.56-1.09l22.67-16a1.36,1.36,0,0,1,1.54,0l22.67,16A1.35,1.35,0,0,1,48-50.67v29.34a1.33,1.33,0,0,1-.39.94A1.33,1.33,0,0,1,46.67-20Z"/></clipPath><clipPath id="clip-path-2"><path class="cls-1" d="M29.43,155.74a10,10,0,0,0,1.48-1.21,9.91,9.91,0,0,0,1.21-1.48,9.51,9.51,0,0,0,.91-1.7l.08-.19a9.85,9.85,0,0,0,.47-1.63,9.84,9.84,0,0,0-.55-5.64,9.73,9.73,0,0,0-.9-1.69,10.1,10.1,0,0,0-1.22-1.48,9.5,9.5,0,0,0-1.48-1.22,9.74,9.74,0,0,0-9.16-.9,9.6,9.6,0,0,0-3.17,2.12,9.06,9.06,0,0,0-1.22,1.48,9.73,9.73,0,0,0-.9,1.69,9.95,9.95,0,0,0-.74,3.73,9.14,9.14,0,0,0,.19,1.9,9,9,0,0,0,.55,1.83,10.2,10.2,0,0,0,.9,1.7,9.78,9.78,0,0,0,2.7,2.69,9.47,9.47,0,0,0,1.69.91,9.71,9.71,0,0,0,5.63.55,10,10,0,0,0,1.83-.55h0A9.82,9.82,0,0,0,29.43,155.74Zm3.1.41a11.71,11.71,0,0,1-1.83,1.5,11.92,11.92,0,0,1-2.09,1.11h0a11.78,11.78,0,0,1-2.26.68,11.58,11.58,0,0,1-4.69,0,12,12,0,0,1-2.26-.68,13.18,13.18,0,0,1-2.1-1.12A11.79,11.79,0,0,1,14,154.32a12,12,0,0,1-1.12-2.09,13.07,13.07,0,0,1-.69-2.26,12.12,12.12,0,0,1,0-4.7,12.71,12.71,0,0,1,.69-2.25,12.42,12.42,0,0,1,1.12-2.1,12.78,12.78,0,0,1,1.49-1.83,12.14,12.14,0,0,1,1.83-1.49,12.42,12.42,0,0,1,2.1-1.12,11.9,11.9,0,0,1,4.6-.92,12.16,12.16,0,0,1,2.35.23,12.12,12.12,0,0,1,4.35,1.81,11.66,11.66,0,0,1,1.83,1.49,12.19,12.19,0,0,1,1.5,1.83,13.18,13.18,0,0,1,1.12,2.1,13,13,0,0,1,.69,2.25,12.12,12.12,0,0,1,0,4.7,12.66,12.66,0,0,1-.69,2.27l-.44,1.06-.06,0a11.89,11.89,0,0,1-.62,1A11.71,11.71,0,0,1,32.53,156.15Z"/></clipPath><clipPath id="clip-path-3"><path class="cls-1" d="M11,182.14h28.4v-7h0v-.52h0v-.07c0-.34,0-.67-.07-1s-.08-.64-.13-1h0q-.07-.45-.18-.93t-.24-.9c-.09-.31-.2-.61-.31-.91a8.75,8.75,0,0,0-.37-.83,9,9,0,0,0-.43-.81c-.16-.27-.33-.53-.5-.77s-.36-.48-.56-.72a8.18,8.18,0,0,0-.63-.68c-.21-.21-.44-.42-.68-.62s-.5-.41-.76-.59-.5-.34-.79-.51-.55-.32-.83-.47-.59-.28-.88-.41-.66-.27-1-.39l-.54-.19-1-.38-.24-.08c-2,1.71-3.36,2.62-4.91,2.67s-3-.8-5.14-2.62l-.23.07-1,.29-.52.16c-.31.1-.62.2-.92.32s-.61.25-.9.39-.57.3-.86.46-.58.36-.84.54-.53.39-.79.61-.49.41-.73.64-.48.48-.69.72-.4.47-.6.75a7.9,7.9,0,0,0-.54.79,8.64,8.64,0,0,0-.5.86c-.15.28-.29.58-.42.89s-.25.61-.35.92-.19.62-.27.94-.15.65-.2,1-.09.64-.12,1,0,.63,0,.95v7.48H11Zm1,2.3H6.33v-9.78c0-.37,0-.75,0-1.14s.08-.76.15-1.16.14-.77.23-1.14.2-.75.33-1.13.26-.73.41-1.08.31-.7.5-1.06.39-.71.58-1,.43-.65.65-.94.45-.58.73-.9.53-.58.81-.85.56-.51.86-.76.61-.48.94-.71.67-.45,1-.64.67-.38,1-.55.71-.33,1.07-.47.73-.27,1.1-.38l.52-.16,1-.29.82-.25.6-.18.47.41c2,1.71,3.13,2.51,4.06,2.48s2.07-.91,4-2.56l.51-.43.62.23.86.31,1,.37.54.2c.42.15.79.29,1.12.43s.71.32,1,.48.66.35,1,.54.61.39.93.62a10.67,10.67,0,0,1,.9.69,9.68,9.68,0,0,1,.83.76c.27.26.52.54.76.82s.46.57.68.88a10.33,10.33,0,0,1,.6.92c.19.31.36.64.53,1s.3.65.43,1,.26.69.37,1.06.2.72.28,1,.15.7.21,1.08h0c.06.36.11.73.15,1.1s.06.73.08,1.1h0v3h0v7.05H12Z"/></clipPath><clipPath id="clip-path-4"><path class="cls-1" d="M20.07,37.17A17.14,17.14,0,1,0,2.94,20,17.13,17.13,0,0,0,20.07,37.17Zm0-36.9A19.74,19.74,0,0,1,34.94,33L47.37,45.47a1.32,1.32,0,0,1-.58,2.22,1.35,1.35,0,0,1-1.29-.36L33.07,34.9A19.76,19.76,0,1,1,20.07.27Z"/></clipPath><clipPath id="clip-path-5"><rect class="cls-1" x="-431.23" y="-407.73" width="1885" height="9145"/></clipPath><clipPath id="clip-path-6"><polygon class="cls-1" points="8.95 410.06 8.95 413.65 26.56 413.65 26.56 456.06 30.15 456.06 30.15 413.65 47.76 413.65 47.76 410.06 8.95 410.06"/></clipPath><clipPath id="clip-path-7"><polygon class="cls-1" points="1.76 437.01 1.76 440.61 8.68 440.61 8.68 456.06 12.27 456.06 12.27 440.61 19.01 440.61 19.01 437.01 1.76 437.01"/></clipPath><clipPath id="clip-path-8"><path class="cls-1" d="M45.19,513.48,31.71,500l13.48-13.48Zm-40.39,2,13.55-13.55,4.75,4.7a1.41,1.41,0,0,0,2,0L29.72,502,43.2,515.47Zm-2-2v-27l13.55,13.43Zm40.39-29L24.09,503.64,4.81,484.53Zm.58-2.81H4.22A4.23,4.23,0,0,0,0,485.94v28.12a4.23,4.23,0,0,0,4.22,4.22H43.78A4.23,4.23,0,0,0,48,514.06V485.94A4.23,4.23,0,0,0,43.78,481.72Z"/></clipPath><clipPath id="clip-path-9"><path class="cls-1" d="M79.38-40.89a1.08,1.08,0,0,0,.54,1.42.66.66,0,0,0,.44.11,1,1,0,0,0,1-.66,6,6,0,0,1,5.56-3.71A1,1,0,0,0,88-44.82a1,1,0,0,0-1.1-1.09A8.2,8.2,0,0,0,79.38-40.89Z"/></clipPath><clipPath id="clip-path-10"><path class="cls-1" d="M95-29.44a1.09,1.09,0,0,0-1.42.55l-3.27,7.64a1.07,1.07,0,0,0,.54,1.41.66.66,0,0,0,.44.11,1,1,0,0,0,1-.65L95.52-28A1.09,1.09,0,0,0,95-29.44Z"/></clipPath><clipPath id="clip-path-11"><path class="cls-1" d="M90.61-29.44a1.08,1.08,0,0,0-1.41.55l-3.28,7.64a1.07,1.07,0,0,0,.55,1.41.65.65,0,0,0,.43.11,1,1,0,0,0,1-.65L91.16-28A1.08,1.08,0,0,0,90.61-29.44Z"/></clipPath><clipPath id="clip-path-12"><path class="cls-1" d="M86.25-29.44a1.09,1.09,0,0,0-1.42.55l-3.27,7.64a1.07,1.07,0,0,0,.54,1.41.66.66,0,0,0,.44.11.94.94,0,0,0,1-.65L86.8-28A1.09,1.09,0,0,0,86.25-29.44Z"/></clipPath><clipPath id="clip-path-13"><path class="cls-1" d="M102.5-32a1.17,1.17,0,0,0-.11,1.52,1.19,1.19,0,0,0,.77.33,1.17,1.17,0,0,0,.76-.33,7.14,7.14,0,0,0,2.62-5.56,7.64,7.64,0,0,0-5.13-7.2,1.13,1.13,0,0,0-1.41.65,1.13,1.13,0,0,0,.65,1.42,5.42,5.42,0,0,1,3.6,5.13A4.83,4.83,0,0,1,102.5-32Z"/></clipPath><clipPath id="clip-path-14"><path class="cls-1" d="M108-33.25a1,1,0,0,0-.11,1.52,3.19,3.19,0,0,1,.76,2.19,3.21,3.21,0,0,1-3.27,3.27H97.7a1,1,0,0,0-1.09,1.09,1,1,0,0,0,1.09,1.09h7.64a5.41,5.41,0,0,0,5.46-5.45,5.43,5.43,0,0,0-1.31-3.6A1,1,0,0,0,108-33.25Z"/></clipPath><clipPath id="clip-path-15"><path class="cls-1" d="M74.9-39.36a7.58,7.58,0,0,0-7.63,7.63,7.59,7.59,0,0,0,7.63,7.64h4.37a1,1,0,0,0,1.09-1.09,1,1,0,0,0-1.09-1.09H74.9a5.4,5.4,0,0,1-5.45-5.46,5.4,5.4,0,0,1,5.45-5.45,5.56,5.56,0,0,1,4.59,2.4,1.08,1.08,0,0,0,1.52.33A1.07,1.07,0,0,0,81.34-36,8,8,0,0,0,74.9-39.36Z"/></clipPath><clipPath id="clip-path-16"><path class="cls-1" d="M76.43-41.65a1.09,1.09,0,0,0,1.42-.55,9.8,9.8,0,0,1,9.05-5.89,9.77,9.77,0,0,1,9.82,9.82,1,1,0,0,0,1.09,1.09,1,1,0,0,0,1.09-1.09,12,12,0,0,0-12-12,12,12,0,0,0-11,7.2A1.09,1.09,0,0,0,76.43-41.65Z"/></clipPath><clipPath id="clip-path-17"><path class="cls-1" d="M96.72-61.18a1,1,0,0,0,1.09-1.09v-4.37a1,1,0,0,0-1.09-1.09,1,1,0,0,0-1.09,1.09v4.37A1,1,0,0,0,96.72-61.18Z"/></clipPath><clipPath id="clip-path-18"><path class="cls-1" d="M86.69-57.69a1.15,1.15,0,0,0,.76.33,1.15,1.15,0,0,0,.76-.33,1.05,1.05,0,0,0,0-1.53l-3-3.05a1.05,1.05,0,0,0-1.53,0,1.07,1.07,0,0,0,0,1.53Z"/></clipPath><clipPath id="clip-path-19"><path class="cls-1" d="M114.18-50.27h-4.37a1,1,0,0,0-1.09,1.09,1,1,0,0,0,1.09,1.09h4.37a1,1,0,0,0,1.09-1.09A1,1,0,0,0,114.18-50.27Z"/></clipPath><clipPath id="clip-path-20"><path class="cls-1" d="M101.3-60.31a.66.66,0,0,0,.44.11,1,1,0,0,0,1-.65l.88-2a1.09,1.09,0,0,0-.55-1.42,1.09,1.09,0,0,0-1.42.55l-.87,2A1.08,1.08,0,0,0,101.3-60.31Z"/></clipPath><clipPath id="clip-path-21"><path class="cls-1" d="M107.85-53.76a1,1,0,0,0,1,.65.66.66,0,0,0,.44-.11l2-.87a1,1,0,0,0,.55-1.42,1,1,0,0,0-1.42-.54l-2,.87A1.08,1.08,0,0,0,107.85-53.76Z"/></clipPath><clipPath id="clip-path-22"><path class="cls-1" d="M90.72-60.85a1.06,1.06,0,0,0,1,.65.66.66,0,0,0,.44-.11,1,1,0,0,0,.55-1.42l-.88-2a1,1,0,0,0-1.42-.55,1,1,0,0,0-.54,1.42Z"/></clipPath><clipPath id="clip-path-23"><path class="cls-1" d="M106-57.36a1,1,0,0,0,.76-.33l3-3.05a1.05,1.05,0,0,0,0-1.53,1,1,0,0,0-1.52,0l-3.06,3.05a1.07,1.07,0,0,0,0,1.53A1,1,0,0,0,106-57.36Z"/></clipPath><clipPath id="clip-path-24"><path class="cls-1" d="M82.21-54l2,.87a.63.63,0,0,0,.43.11,1,1,0,0,0,1-.65,1.09,1.09,0,0,0-.55-1.42l-2-.87a1.08,1.08,0,0,0-1.42.54A1,1,0,0,0,82.21-54Z"/></clipPath><clipPath id="clip-path-25"><path class="cls-1" d="M88.54-52.45a1.11,1.11,0,0,0,1.53-.44,7.67,7.67,0,0,1,6.65-3.93,7.59,7.59,0,0,1,7.64,7.64,7.3,7.3,0,0,1-1,3.71,1.11,1.11,0,0,0,.43,1.53,1.08,1.08,0,0,0,.55.1,1.13,1.13,0,0,0,1-.54,10.82,10.82,0,0,0,1.2-4.8A9.77,9.77,0,0,0,96.72-59a10,10,0,0,0-8.62,5A1.23,1.23,0,0,0,88.54-52.45Z"/></clipPath><clipPath id="clip-path-26"><path class="cls-1" d="M111.23-44.38l-2-.87a1.08,1.08,0,0,0-1.42.54.66.66,0,0,0-.11.44,1,1,0,0,0,.65,1l2,.87a.66.66,0,0,0,.44.11,1,1,0,0,0,1-.65.66.66,0,0,0,.11-.44A1.16,1.16,0,0,0,111.23-44.38Z"/></clipPath><clipPath id="clip-path-27"><path class="cls-1" d="M99.64,29.45a2.19,2.19,0,1,1-2.19,2.19A2.19,2.19,0,0,1,99.64,29.45Zm0-3.27a5.47,5.47,0,0,0-5.46,5.46c0,3.87,3.7,10.36,5.46,13.23,1.75-2.87,5.45-9.36,5.45-13.23A5.46,5.46,0,0,0,99.64,26.18Zm0-2.18a7.64,7.64,0,0,1,7.63,7.64c0,5.72-6.45,15.46-6.73,15.87a1.08,1.08,0,0,1-1.81,0C98.45,47.1,92,37.36,92,31.64A7.65,7.65,0,0,1,99.64,24ZM70.76,0A2.81,2.81,0,0,1,72.3.46L83.81,8.13a1.08,1.08,0,0,0,1.17,0L97,.73a5,5,0,0,1,5.19,0l12.21,7.52A3.24,3.24,0,0,1,116,11V45.23A2.77,2.77,0,0,1,113.23,48a2.8,2.8,0,0,1-1.53-.46l-6.13-4.09a1.09,1.09,0,1,1,1.22-1.81l6.12,4.08a.61.61,0,0,0,.91-.49V11a1.1,1.1,0,0,0-.52-.93L101.08,2.59a2.17,2.17,0,0,0-.35-.15V20.73a1.09,1.09,0,0,1-2.18,0V2.44a2.28,2.28,0,0,0-.36.15L86.13,10A3.31,3.31,0,0,1,82.59,10L71.09,2.28a.61.61,0,0,0-.91.49V37a1.1,1.1,0,0,0,.52.93l12.22,7.52.11.06.24.09V14.18a1.09,1.09,0,0,1,2.18,0V45.56a2.28,2.28,0,0,0,.36-.15L92,41.62a1.09,1.09,0,0,1,1.15,1.85L87,47.27a5,5,0,0,1-2.5.71l-.1,0-.1,0a5,5,0,0,1-2.49-.71L69.56,39.75A3.24,3.24,0,0,1,68,37V2.77A2.77,2.77,0,0,1,70.76,0Z"/></clipPath><clipPath id="clip-path-28"><path class="cls-1" d="M92,521.21A21.21,21.21,0,1,1,113.21,500,21.23,21.23,0,0,1,92,521.21ZM92,476a24,24,0,1,0,24,24A24,24,0,0,0,92,476Z"/></clipPath><clipPath id="clip-path-29"><path class="cls-2" d="M104,499.94H92.05V485.8c0-1.1-.34-1.67-1.43-1.67s-1.41.57-1.41,1.67v15a2,2,0,0,0,2,2H104c1.1,0,1.53-.35,1.53-1.45S105.07,499.94,104,499.94Z"/></clipPath><clipPath id="clip-path-30"><path class="cls-3" d="M75.08,299.9V276.51H108.3l-7,11.28a.78.78,0,0,0,0,.83l7,11.28Zm27.83-11.69,7.43-12.06a.8.8,0,0,0,0-.79.79.79,0,0,0-.68-.41H75.08v-1.56a.77.77,0,0,0-1.54,0v45.22a.77.77,0,1,0,1.54,0V301.46h34.61a.79.79,0,0,0,.68-.41.8.8,0,0,0,0-.79Z"/></clipPath><clipPath id="clip-path-31"><path class="cls-2" d="M156.31,500l12.22-11.22a2,2,0,0,0,0-3,2.49,2.49,0,0,0-3.31,0l-13.75,12.63a2.27,2.27,0,0,0,0,3.24l13.75,12.63a2.49,2.49,0,0,0,3.31,0,2,2,0,0,0,0-3Z"/></clipPath><clipPath id="clip-path-32"><path class="cls-2" d="M174.13,438.39a8.07,8.07,0,0,0-6.42,3.3l-13.94-7.47a9,9,0,0,0,.31-2.22,9.12,9.12,0,0,0-.37-2.41l13.88-7.43a8.06,8.06,0,0,0,6.54,3.44,8.6,8.6,0,1,0-8.21-8.59,9.16,9.16,0,0,0,.31,2.23l-13.94,7.46a8.07,8.07,0,0,0-6.42-3.3,8.6,8.6,0,0,0,0,17.19,8,8,0,0,0,6.54-3.45l13.88,7.43a8.75,8.75,0,0,0-.38,2.42,8.22,8.22,0,1,0,8.22-8.6Z"/></clipPath></defs><title>icon-nav-search</title><g class="cls-7"><g class="cls-8"><rect class="cls-9" x="-4.7" y="-4.73" width="57.47" height="57.47"/></g></g><path d="M75.08,299.9V276.51H108.3l-7,11.28a.78.78,0,0,0,0,.83l7,11.28Zm27.83-11.69,7.43-12.06a.8.8,0,0,0,0-.79.79.79,0,0,0-.68-.41H75.08v-1.56a.77.77,0,0,0-1.54,0v45.22a.77.77,0,1,0,1.54,0V301.46h34.61a.79.79,0,0,0,.68-.41.8.8,0,0,0,0-.79Z"/><g class="cls-34"><rect x="-540.46" y="-688.65" width="1885" height="9145"/></g><path class="cls-35" d="M75.08,299.9V276.51H108.3l-7,11.28a.78.78,0,0,0,0,.83l7,11.28Zm27.83-11.69,7.43-12.06a.8.8,0,0,0,0-.79.79.79,0,0,0-.68-.41H75.08v-1.56a.77.77,0,0,0-1.54,0v45.22a.77.77,0,1,0,1.54,0V301.46h34.61a.79.79,0,0,0,.68-.41.8.8,0,0,0,0-.79Z"/></svg>