<?xml version="1.0" encoding="utf-8"?>
<!-- Generator: Adobe Illustrator 24.0.1, SVG Export Plug-In . SVG Version: 6.00 Build 0)  -->
<svg version="1.1" id="Layer_1" xmlns="http://www.w3.org/2000/svg" xmlns:xlink="http://www.w3.org/1999/xlink" x="0px" y="0px"
	 viewBox="0 0 11 11" style="enable-background:new 0 0 11 11;" xml:space="preserve">
<style type="text/css">
	.st0{fill:#212121;}
	.st1{fill-rule:evenodd;clip-rule:evenodd;fill:#212121;}
</style>
<g>
	<path class="st0" d="M5.5,0c-3,0-5.4,2.4-5.5,5.5c0,3,2.4,5.4,5.5,5.5c3,0,5.4-2.4,5.5-5.5C10.9,2.5,8.5,0.1,5.5,0z M5.5,9.8
		c-2.4,0-4.3-1.9-4.3-4.3c0-2.4,1.9-4.3,4.3-4.3c2.4,0,4.3,1.9,4.3,4.3C9.8,7.9,7.9,9.8,5.5,9.8z"/>
	<path class="st1" d="M8.3,5.3H5.9V2.4c0-0.2-0.2-0.4-0.4-0.4S5,2.1,5,2.4v3.4C5,6,5.2,6.2,5.4,6.2h2.9c0.2,0,0.4-0.2,0.4-0.4
		S8.6,5.3,8.3,5.3z"/>
</g>
</svg>
