<svg id="Layer_1" data-name="Layer 1" xmlns="http://www.w3.org/2000/svg" xmlns:xlink="http://www.w3.org/1999/xlink" viewBox="0 0 48 48"><defs><clipPath id="clip-path"><path d="M-308,453.33h13.33V426L-316,411-337.33,426v27.3H-324V438.67a1.34,1.34,0,0,1,1.33-1.34h13.34a1.34,1.34,0,0,1,1.33,1.34Zm14.67,2.67h-16a1.34,1.34,0,0,1-.95-.39,1.33,1.33,0,0,1-.39-.94V440h-10.66v14.67a1.33,1.33,0,0,1-.39.94,1.34,1.34,0,0,1-.95.39h-16a1.33,1.33,0,0,1-.94-.39,1.33,1.33,0,0,1-.39-.94V425.33a1.35,1.35,0,0,1,.56-1.09l22.67-16a1.36,1.36,0,0,1,1.54,0l22.67,16a1.35,1.35,0,0,1,.56,1.09v29.34a1.33,1.33,0,0,1-.39.94A1.33,1.33,0,0,1-293.33,456Z" style="fill:none"/></clipPath><clipPath id="clip-path-2"><path d="M-180,385.21A21.23,21.23,0,0,1-201.21,364,21.23,21.23,0,0,1-180,342.79,21.23,21.23,0,0,1-158.79,364,21.23,21.23,0,0,1-180,385.21Zm0-45.21a24,24,0,0,0-24,24,24,24,0,0,0,24,24,24,24,0,0,0,24-24A24,24,0,0,0-180,340Z" style="fill:none"/></clipPath></defs><title>icon-sport-penalty-missed</title><path d="M24,0A24,24,0,1,0,48,24,24,24,0,0,0,24,0ZM42.23,35.56h-7.8l-4.31-4.69,2.1-8.38,6.32-2.44,7,6A21.48,21.48,0,0,1,42.23,35.56Zm-28.66,0H5.77a21.48,21.48,0,0,1-3.28-9.47l7-6,6.32,2.44,2.1,8.38ZM6.15,11.83l1.71,6.43L2.44,23A21.49,21.49,0,0,1,6.15,11.83ZM20.14,30l-2-7.87L24,18.24l5.83,3.89-2,7.87Zm20-11.74,1.71-6.43A21.49,21.49,0,0,1,45.56,23ZM40,9.5l-2.2,8.27-6.43,2.48-6.15-4.1V8.26l6.27-4.51A21.51,21.51,0,0,1,40,9.5ZM28.56,2.88,24,6.16,19.44,2.88a21.46,21.46,0,0,1,9.12,0Zm-12,.87L22.8,8.26v7.89l-6.15,4.1-6.43-2.48L8,9.5A21.51,21.51,0,0,1,16.53,3.75ZM7.53,38h5.74l2.29,5.94A21.8,21.8,0,0,1,7.53,38Zm11,6.92-3-7.86,4.24-4.62h8.56L32.52,37l-3,7.86a20.93,20.93,0,0,1-11,0Zm13.92-1L34.73,38h5.74A21.8,21.8,0,0,1,32.44,43.9Z" style="fill:#dd1f26"/></svg>