<svg id="Layer_1" data-name="Layer 1" xmlns="http://www.w3.org/2000/svg" xmlns:xlink="http://www.w3.org/1999/xlink" viewBox="0 0 48 48"><defs><clipPath id="clip-path"><path d="M-376,181.33h13.33V154L-384,139-405.33,154v27.3H-392V166.67a1.34,1.34,0,0,1,1.33-1.34h13.34a1.34,1.34,0,0,1,1.33,1.34Zm14.67,2.67h-16a1.34,1.34,0,0,1-.95-.39,1.33,1.33,0,0,1-.39-.94V168h-10.66v14.67a1.33,1.33,0,0,1-.39.94,1.34,1.34,0,0,1-.95.39h-16a1.33,1.33,0,0,1-.94-.39,1.33,1.33,0,0,1-.39-.94V153.33a1.35,1.35,0,0,1,.56-1.09l22.67-16a1.36,1.36,0,0,1,1.54,0l22.67,16a1.35,1.35,0,0,1,.56,1.09v29.34a1.33,1.33,0,0,1-.39.94A1.33,1.33,0,0,1-361.33,184Z" style="fill:none"/></clipPath><clipPath id="clip-path-2"><path d="M-248,113.21A21.23,21.23,0,0,1-269.21,92,21.23,21.23,0,0,1-248,70.79,21.23,21.23,0,0,1-226.79,92,21.23,21.23,0,0,1-248,113.21ZM-248,68a24,24,0,0,0-24,24,24,24,0,0,0,24,24,24,24,0,0,0,24-24A24,24,0,0,0-248,68Z" style="fill:none"/></clipPath></defs><title>icon-sport-6</title><path d="M14.44,24c0-7.11,4-12.15,11-12.15a10.6,10.6,0,0,1,6.93,2.43l-2.25,3.84a6.21,6.21,0,0,0-4.68-1.83c-3.45,0-5.88,2.92-5.88,6.65a2,2,0,0,0,0,.49,7.64,7.64,0,0,1,6-3c4.22,0,8,2.64,8,7.64,0,4.57-3.63,8.06-9,8.06C17.44,36.13,14.44,30.63,14.44,24Zm14.05,4.22c0-2.46-2.11-3.52-4.37-3.52a5.85,5.85,0,0,0-4.57,2.22c.21,2.25,1.48,4.75,4.75,4.75C27,31.69,28.49,29.89,28.49,28.24Z" style="fill:#231f20"/></svg>