<svg xmlns="http://www.w3.org/2000/svg" xmlns:xlink="http://www.w3.org/1999/xlink" width="16" height="14" viewBox="0 0 16 14">
    <defs>
        <path id="a" d="M13.76 0C14.994 0 16 1.036 16 2.306V11.2c0 1.27-1.006 2.306-2.24 2.306H2.24C1.006 13.506 0 12.47 0 11.2V2.306C0 1.036 1.006 0 2.24 0h11.52zm.64 3.886L8.459 8.169a.781.781 0 0 1-.918 0L1.6 3.887V11.2c0 .36.29.659.64.659h11.52c.35 0 .64-.299.64-.659V3.886zm-.64-2.239H2.24a.639.639 0 0 0-.538.305L8 6.489l6.298-4.537a.639.639 0 0 0-.538-.305z"/>
    </defs>
    <use fill="#212121" fill-rule="evenodd" xlink:href="#a"/>
</svg>
