<svg id="Layer_1" data-name="Layer 1" xmlns="http://www.w3.org/2000/svg" xmlns:xlink="http://www.w3.org/1999/xlink" viewBox="0 0 48 48"><defs><clipPath id="clip-path"><path d="M-180,521.21A21.23,21.23,0,0,1-201.21,500,21.23,21.23,0,0,1-180,478.79,21.23,21.23,0,0,1-158.79,500,21.23,21.23,0,0,1-180,521.21Zm0-45.21a24,24,0,0,0-24,24,24,24,0,0,0,24,24,24,24,0,0,0,24-24A24,24,0,0,0-180,476Z" style="fill:none"/></clipPath></defs><title>icon-sport-goal</title><path d="M25.14,2a22,22,0,1,0,22,22A22,22,0,0,0,25.14,2Zm16.7,32.59H34.69l-3.94-4.3,1.91-7.67,5.8-2.24,6.38,5.54A19.66,19.66,0,0,1,41.84,34.59Zm-26.26,0H8.43a19.78,19.78,0,0,1-3-8.67l6.38-5.54,5.8,2.24,1.92,7.67ZM8.79,12.85l1.56,5.89-5,4.31A19.72,19.72,0,0,1,8.79,12.85ZM21.6,29.5l-1.81-7.21,5.35-3.57,5.34,3.57-1.8,7.21ZM39.92,18.74l1.57-5.89a19.71,19.71,0,0,1,3.4,10.2Zm-.14-8-2,7.57-5.89,2.28-5.63-3.76V9.58L32,5.45A19.75,19.75,0,0,1,39.78,10.72ZM29.32,4.65l-4.18,3L21,4.65a19.64,19.64,0,0,1,8.36,0Zm-11,.8L24,9.58v7.23L18.4,20.57l-5.89-2.28-2-7.57A19.82,19.82,0,0,1,18.29,5.45ZM10.05,36.79h5.26l2.1,5.44A19.8,19.8,0,0,1,10.05,36.79Zm10.06,6.34-2.78-7.2,3.89-4.23h7.83l3.89,4.23-2.78,7.2a19.18,19.18,0,0,1-10,0Zm12.76-.9L35,36.79h5.26A20,20,0,0,1,32.87,42.23Z" style="fill:#231f20"/></svg>