<svg id="Layer_1" data-name="Layer 1" xmlns="http://www.w3.org/2000/svg" xmlns:xlink="http://www.w3.org/1999/xlink" viewBox="0 0 48 48"><defs><clipPath id="clip-path"><path d="M-248,453.21A21.23,21.23,0,0,1-269.21,432,21.23,21.23,0,0,1-248,410.79,21.23,21.23,0,0,1-226.79,432,21.23,21.23,0,0,1-248,453.21Zm0-45.21a24,24,0,0,0-24,24,24,24,0,0,0,24,24,24,24,0,0,0,24-24A24,24,0,0,0-248,408Z" style="fill:none"/></clipPath></defs><title>icon-sport-first-half-extra</title><path d="M16.44,25.18A4.8,4.8,0,0,1,21,20.4V7.23a18,18,0,0,0,0,36V30A4.8,4.8,0,0,1,16.44,25.18Z" style="fill:none"/><path d="M19.37,25.18A1.88,1.88,0,0,0,21,27v-3.7A1.88,1.88,0,0,0,19.37,25.18Z" style="fill:none"/><path d="M22.53,4.35V3H20.13v1.4c.37,0,.75-.06,1.13-.06S22.1,4.33,22.53,4.35Z" style="fill:none"/><path d="M23.12,25.18a1.88,1.88,0,0,0-1.87-1.88,2.4,2.4,0,0,0-.28,0V27a2.4,2.4,0,0,0,.28,0A1.88,1.88,0,0,0,23.12,25.18Z" style="fill:#4d5566;opacity:0.2"/><path d="M39.27,25.24a18,18,0,0,0-18-18H21V20.4c.09,0,.18,0,.28,0a4.76,4.76,0,0,1,1.73.34l4-5.26,2.33,1.79-4.07,5.31a4.74,4.74,0,0,1,.79,2.63A4.81,4.81,0,0,1,21.25,30,2.4,2.4,0,0,1,21,30V43.25l.28,0A18,18,0,0,0,39.27,25.24Z" style="fill:#4d5566;opacity:0.2"/><path d="M16.44,25.18A4.8,4.8,0,0,0,21,30V27a1.87,1.87,0,0,1,0-3.7V20.4A4.8,4.8,0,0,0,16.44,25.18Z" style="fill:#4d5566"/><path d="M21.25,23.3a1.88,1.88,0,0,1,0,3.76A2.4,2.4,0,0,1,21,27V30a2.4,2.4,0,0,0,.28,0,4.81,4.81,0,0,0,4.8-4.81,4.74,4.74,0,0,0-.79-2.63l4.07-5.31L27,15.45l-4,5.26a4.76,4.76,0,0,0-1.73-.34c-.1,0-.19,0-.28,0v2.93A2.4,2.4,0,0,1,21.25,23.3Z" style="fill:#4d5566"/><path d="M34.66,9.16l.86-1.23.54.39L37.78,6,34.22,3.36,32.5,5.73l.65.48-.88,1.24a21.1,21.1,0,0,0-6.82-2.74l0-1.73h1.77l0-2.93H25.49L17.22,0H15.44l0,2.93h1.77V4.69A21,21,0,1,0,34.66,9.16ZM20.13,3h2.41V4.35c-.43,0-.85-.06-1.28-.06s-.76,0-1.13.06ZM3.23,25.24A18,18,0,0,1,21,7.23h.28a18,18,0,0,1,0,36.05l-.28,0A18,18,0,0,1,3.23,25.24Z" style="fill:#231f20"/><circle cx="36.56" cy="36.88" r="11.14" style="fill:#fff"/><rect x="35.47" y="28.75" width="3.04" height="15.92" style="fill:#dd1f26"/><rect x="29.03" y="35.19" width="15.92" height="3.04" style="fill:#dd1f26"/></svg>