<svg id="Layer_1" data-name="Layer 1" xmlns="http://www.w3.org/2000/svg" xmlns:xlink="http://www.w3.org/1999/xlink" viewBox="0 0 48 48"><defs><clipPath id="clip-path"><path d="M-104,453.33h13.33V426L-112,411-133.33,426v27.3H-120V438.67a1.34,1.34,0,0,1,1.33-1.34h13.34a1.34,1.34,0,0,1,1.33,1.34ZM-89.33,456h-16a1.34,1.34,0,0,1-1-.39,1.33,1.33,0,0,1-.39-.94V440h-10.66v14.67a1.33,1.33,0,0,1-.39.94,1.34,1.34,0,0,1-1,.39h-16a1.33,1.33,0,0,1-.94-.39,1.33,1.33,0,0,1-.39-.94V425.33a1.35,1.35,0,0,1,.56-1.09l22.67-16a1.36,1.36,0,0,1,1.54,0l22.67,16a1.35,1.35,0,0,1,.56,1.09v29.34a1.33,1.33,0,0,1-.39.94A1.33,1.33,0,0,1-89.33,456Z" style="fill:none"/></clipPath><clipPath id="clip-path-2"><path d="M24,385.21A21.21,21.21,0,1,1,45.21,364,21.23,21.23,0,0,1,24,385.21ZM24,340a24,24,0,1,0,24,24A24,24,0,0,0,24,340Z" style="fill:none"/></clipPath></defs><title>icon-sport-rainy</title><g id="Heavy-Rain"><path d="M37.24,8.61A11,11,0,0,1,48,19.74,11,11,0,0,1,37.24,30.86H7a7.19,7.19,0,0,1-7-7.38A7.19,7.19,0,0,1,7,16.1h.23V16A14.63,14.63,0,0,1,21.59,1.13,14.35,14.35,0,0,1,34.31,9,10.64,10.64,0,0,1,37.24,8.61Zm0,20a8.66,8.66,0,0,0,8.49-8.83,8.67,8.67,0,0,0-8.49-8.84,8.2,8.2,0,0,0-3.1.61,1.14,1.14,0,0,1-1.48-.61A12.09,12.09,0,0,0,21.59,3.42,12.34,12.34,0,0,0,9.5,16c0,.38,0,.76,0,1.14a1.14,1.14,0,0,1-1.13,1.25H7a4.91,4.91,0,0,0-4.71,5.09A4.91,4.91,0,0,0,7,28.57ZM18.4,36.07a1.14,1.14,0,0,1,2.05,1l-4.58,9.15a1.14,1.14,0,0,1-2-1Zm18.3,0a1.13,1.13,0,0,1,1.53-.51,1.14,1.14,0,0,1,.52,1.53l-4.58,9.15a1.15,1.15,0,0,1-1.53.51,1.13,1.13,0,0,1-.51-1.53Z" style="fill:#231f20"/><path d="M9.26,36.07a1.13,1.13,0,0,1,1.53-.51,1.15,1.15,0,0,1,.51,1.53L9,41.66a1.14,1.14,0,1,1-2-1Zm18.29,0a1.14,1.14,0,0,1,2.05,1l-2.29,4.57a1.14,1.14,0,1,1-2-1Z" style="fill:#231f20"/></g></svg>