<?xml version="1.0" encoding="UTF-8"?>
<svg width="44px" height="44px" viewBox="0 0 44 44" version="1.1" xmlns="http://www.w3.org/2000/svg" xmlns:xlink="http://www.w3.org/1999/xlink">
    <title>icon-sign-google</title>
    <g id="Page-1" stroke="none" stroke-width="1" fill="none" fill-rule="evenodd">
        <g id="mobile-signin-step0-apple" transform="translate(-158.000000, -428.000000)">
            <g id="Group-10" transform="translate(90.000000, 428.000000)">
                <g id="icon-sign-google" transform="translate(68.000000, 0.000000)">
                    <circle id="Oval" fill="#2385FC" cx="22" cy="22" r="22"></circle>
                    <path d="M14.96,22.4341971 C14.96,18.3199069 18.1569349,14.96 22.1001926,14.96 C23.9492908,14.96 25.6368715,15.6911715 26.9011645,16.8923817 C25.408519,18.3663305 25.4586451,18.4475718 24.8682704,19.0626843 C24.1386563,18.42436 23.3366378,17.9659271 22.1001926,17.9659271 C19.7554024,17.9659271 17.9285824,19.9505353 17.9285824,22.3935764 C17.9285824,24.8366175 19.7554024,26.8792552 22.1001926,26.8792552 C24.4115654,26.8792552 25.3528232,25.7186656 25.9599067,23.9777812 L22.1837362,23.9777812 L22.1837362,21.0763072 L28.956337,21.0763072 C29.4297507,24.558076 27.9928008,29.92 22.1001926,29.92 C18.1569349,29.92 14.96,26.5484872 14.96,22.4341971 Z" id="Path" fill="#FFFFFF"></path>
                </g>
            </g>
        </g>
    </g>
</svg>