<svg id="Layer_1" data-name="Layer 1" xmlns="http://www.w3.org/2000/svg" xmlns:xlink="http://www.w3.org/1999/xlink" viewBox="0 0 48 48"><defs><clipPath id="clip-path"><path d="M-308,113.33h13.33V86L-316,71-337.33,86v27.3H-324V98.67a1.34,1.34,0,0,1,1.33-1.34h13.34A1.34,1.34,0,0,1-308,98.67Zm14.67,2.67h-16a1.34,1.34,0,0,1-.95-.39,1.33,1.33,0,0,1-.39-.94V100h-10.66v14.67a1.33,1.33,0,0,1-.39.94,1.34,1.34,0,0,1-.95.39h-16a1.33,1.33,0,0,1-.94-.39,1.33,1.33,0,0,1-.39-.94V85.33a1.35,1.35,0,0,1,.56-1.09l22.67-16a1.36,1.36,0,0,1,1.54,0l22.67,16a1.35,1.35,0,0,1,.56,1.09v29.34a1.33,1.33,0,0,1-.39.94A1.33,1.33,0,0,1-293.33,116Z" style="fill:none"/></clipPath><clipPath id="clip-path-2"><path d="M-180,45.21A21.23,21.23,0,0,1-201.21,24,21.23,21.23,0,0,1-180,2.79,21.23,21.23,0,0,1-158.79,24,21.23,21.23,0,0,1-180,45.21ZM-180,0a24,24,0,0,0-24,24,24,24,0,0,0,24,24,24,24,0,0,0,24-24A24,24,0,0,0-180,0Z" style="fill:none"/></clipPath></defs><title>icon-sport-penalty-shootout</title><path d="M24,17.69A10.68,10.68,0,1,0,34.67,28.36,10.68,10.68,0,0,0,24,17.69Zm5.42,7.66-2.24.87L25,24.77V22l2.23-1.6a8.72,8.72,0,0,1,3,2ZM27.9,28.1l2.16-.83,2.53,2.19a8.51,8.51,0,0,1-1.15,3.3h-2.8l-1.49-1.63Zm-5.15,2.31-.65-2.62L24,26.52l1.9,1.27-.65,2.62Zm-.34,2h3.18L27,34,26,36.79a8.29,8.29,0,0,1-3.9,0L21,34ZM20.1,28.1l.75,3-1.49,1.63H16.55a8.55,8.55,0,0,1-1.14-3.3l2.53-2.19ZM23,24.77l-2.17,1.45-2.24-.87-.8-3a8.72,8.72,0,0,1,3-2L23,22Zm8.41,1,.34-1.27a8.59,8.59,0,0,1,.74,2.21Zm-8-6a9.11,9.11,0,0,1,1.28,0l-.64.46Zm-7.85,7a9,9,0,0,1,.75-2.21l.34,1.27Zm3.6,8.08.37,1a9.1,9.1,0,0,1-1.28-1Zm9.4,1,.38-1h.91A9.45,9.45,0,0,1,28.51,35.75Z" style="fill:#231f20"/><path d="M46.78,10.3a3,3,0,0,0-2.17-.9H3.39A3.07,3.07,0,0,0,.32,12.47V35.53a3.08,3.08,0,0,0,6.15,0v-20H41.53v20a3.08,3.08,0,0,0,6.15,0V12.47A3,3,0,0,0,46.78,10.3Zm-4.21,3.16H5.43a1,1,0,0,0-1,1v21a1,1,0,0,1-2,0V12.47a1,1,0,0,1,1-1H44.61a1,1,0,0,1,1,1V35.53a1,1,0,0,1-2,0v-21A1,1,0,0,0,42.57,13.46Z" style="fill:#231f20"/></svg>