<svg id="Layer_1" data-name="Layer 1" xmlns="http://www.w3.org/2000/svg" xmlns:xlink="http://www.w3.org/1999/xlink" viewBox="0 0 48 48"><defs><clipPath id="clip-path"><path d="M-308,45.33h13.33V18L-316,3-337.33,18v27.3H-324V30.67a1.34,1.34,0,0,1,1.33-1.34h13.34A1.34,1.34,0,0,1-308,30.67ZM-293.33,48h-16a1.34,1.34,0,0,1-.95-.39,1.33,1.33,0,0,1-.39-.94V32h-10.66V46.67a1.33,1.33,0,0,1-.39.94,1.34,1.34,0,0,1-.95.39h-16a1.33,1.33,0,0,1-.94-.39,1.33,1.33,0,0,1-.39-.94V17.33a1.35,1.35,0,0,1,.56-1.09l22.67-16a1.36,1.36,0,0,1,1.54,0l22.67,16a1.35,1.35,0,0,1,.56,1.09V46.67a1.33,1.33,0,0,1-.39.94A1.33,1.33,0,0,1-293.33,48Z" style="fill:none"/></clipPath><clipPath id="clip-path-2"><path d="M-180-22.79A21.23,21.23,0,0,1-201.21-44,21.23,21.23,0,0,1-180-65.21,21.23,21.23,0,0,1-158.79-44,21.23,21.23,0,0,1-180-22.79ZM-180-68a24,24,0,0,0-24,24,24,24,0,0,0,24,24,24,24,0,0,0,24-24A24,24,0,0,0-180-68Z" style="fill:none"/></clipPath></defs><title>icon-sport-first-half</title><path d="M27.54,15.17l-3.95,5.15a4.81,4.81,0,0,0-1.7-.33,4.72,4.72,0,1,0,4.72,4.72,4.67,4.67,0,0,0-.78-2.58l4-5.21ZM21.89,26.55a1.84,1.84,0,1,1,1.84-1.84A1.84,1.84,0,0,1,21.89,26.55Z" style="fill:#231f20"/><path d="M35.05,9l.85-1.2.53.38,1.69-2.32-3.5-2.55L32.93,5.62l.65.47-.87,1.22A20.62,20.62,0,0,0,26,4.62V2.93h1.75V.06H26.05L17.94,0H16.19V2.86h1.73V4.6A20.58,20.58,0,1,0,35.05,9ZM20.79,2.89l2.37,0V4.27c-.42,0-.83-.06-1.25-.06s-.75,0-1.12,0ZM21.9,42.46A17.69,17.69,0,1,1,39.58,24.77,17.71,17.71,0,0,1,21.9,42.46Z" style="fill:#231f20"/><circle cx="35.74" cy="37.08" r="10.93" style="fill:#fff"/><path d="M35.23,45V33.53L32.61,36.2l-1.91-2,5-5h2.92V45Z" style="fill:#dd1f26"/></svg>