<svg id="Layer_1" data-name="Layer 1" xmlns="http://www.w3.org/2000/svg" xmlns:xlink="http://www.w3.org/1999/xlink" viewBox="0 0 48 48"><defs><clipPath id="clip-path"><path d="M-240,249.33h13.33V222L-248,207-269.33,222v27.3H-256V234.67a1.34,1.34,0,0,1,1.33-1.34h13.34a1.34,1.34,0,0,1,1.33,1.34Zm14.67,2.67h-16a1.34,1.34,0,0,1-.95-.39,1.33,1.33,0,0,1-.39-.94V236h-10.66v14.67a1.33,1.33,0,0,1-.39.94,1.34,1.34,0,0,1-.95.39h-16a1.33,1.33,0,0,1-.94-.39,1.33,1.33,0,0,1-.39-.94V221.33a1.35,1.35,0,0,1,.56-1.09l22.67-16a1.36,1.36,0,0,1,1.54,0l22.67,16a1.35,1.35,0,0,1,.56,1.09v29.34a1.33,1.33,0,0,1-.39.94A1.33,1.33,0,0,1-225.33,252Z" style="fill:none"/></clipPath><clipPath id="clip-path-2"><path d="M-112,181.21A21.23,21.23,0,0,1-133.21,160,21.23,21.23,0,0,1-112,138.79,21.23,21.23,0,0,1-90.79,160,21.23,21.23,0,0,1-112,181.21Zm0-45.21a24,24,0,0,0-24,24,24,24,0,0,0,24,24,24,24,0,0,0,24-24A24,24,0,0,0-112,136Z" style="fill:none"/></clipPath></defs><title>icon-sport-wicket</title><path d="M7.65,4.11V1.73A1.87,1.87,0,0,0,5.65,0a1.89,1.89,0,0,0-2,1.73l-.1,44.53a1.88,1.88,0,0,0,2,1.75,1.89,1.89,0,0,0,2-1.74l0-12.74m0-3.63,0-22.15" style="fill:#231f20"/><path d="M26.05,4.12V1.74a2,2,0,0,0-4,0l-.11,44.53a2,2,0,0,0,4,0l0-12.75m0-3.62L26,7.74" style="fill:#231f20"/><path d="M40.7,8.6h1.95c.79,0,1.43-.89,1.43-2s-.63-2-1.42-2L6.08,4.5c-.79,0-1.43.9-1.44,2s.64,2,1.43,2l10.47,0m3,0,18.2,0" style="fill:#231f20"/><path d="M44.46,4.12V1.75a2,2,0,0,0-4,0l-.1,44.53a2,2,0,0,0,4,0l0-12.75m0-3.63.05-22.15" style="fill:#231f20"/></svg>