<svg id="Layer_1" data-name="Layer 1" xmlns="http://www.w3.org/2000/svg" xmlns:xlink="http://www.w3.org/1999/xlink" viewBox="0 0 48 48"><defs><clipPath id="clip-path"><path d="M-172,249.33h13.33V222L-180,207-201.33,222v27.3H-188V234.67a1.34,1.34,0,0,1,1.33-1.34h13.34a1.34,1.34,0,0,1,1.33,1.34Zm14.67,2.67h-16a1.34,1.34,0,0,1-.95-.39,1.33,1.33,0,0,1-.39-.94V236h-10.66v14.67a1.33,1.33,0,0,1-.39.94,1.34,1.34,0,0,1-.95.39h-16a1.33,1.33,0,0,1-.94-.39,1.33,1.33,0,0,1-.39-.94V221.33a1.35,1.35,0,0,1,.56-1.09l22.67-16a1.36,1.36,0,0,1,1.54,0l22.67,16a1.35,1.35,0,0,1,.56,1.09v29.34a1.33,1.33,0,0,1-.39.94A1.33,1.33,0,0,1-157.33,252Z" style="fill:none"/></clipPath><clipPath id="clip-path-2"><path d="M-44,181.21A21.23,21.23,0,0,1-65.21,160,21.23,21.23,0,0,1-44,138.79,21.23,21.23,0,0,1-22.79,160,21.23,21.23,0,0,1-44,181.21ZM-44,136a24,24,0,0,0-24,24,24,24,0,0,0,24,24,24,24,0,0,0,24-24A24,24,0,0,0-44,136Z" style="fill:none"/></clipPath></defs><title>icon-sport-yellow-card</title><g id="Card"><path d="M38.23.19H24.29a8.43,8.43,0,0,0-8.42,8.42v2.14h2.89V8.61a5.53,5.53,0,0,1,5.53-5.52H38.23a5.52,5.52,0,0,1,5.52,5.52V29.52a5.53,5.53,0,0,1-5.52,5.53H31v2.89h7.26a8.43,8.43,0,0,0,8.42-8.42V8.61A8.43,8.43,0,0,0,38.23.19Z" style="fill:#231f20"/><path d="M24.29,8.91H10.34a9,9,0,0,0-9,9V38.82a9,9,0,0,0,9,9h14a9,9,0,0,0,9-9V17.9A9,9,0,0,0,24.29,8.91Zm0,34.86H10.34a5,5,0,0,1-4.95-5V17.9a5,5,0,0,1,5-4.95h14a5,5,0,0,1,4.95,4.95V38.82A5,5,0,0,1,24.29,43.77Z" style="fill:#f4e90b"/></g></svg>