<svg id="Layer_1" data-name="Layer 1" xmlns="http://www.w3.org/2000/svg" xmlns:xlink="http://www.w3.org/1999/xlink" viewBox="0 0 48 48"><defs><clipPath id="clip-path"><path d="M-240,113.33h13.33V86L-248,71-269.33,86v27.3H-256V98.67a1.34,1.34,0,0,1,1.33-1.34h13.34A1.34,1.34,0,0,1-240,98.67Zm14.67,2.67h-16a1.34,1.34,0,0,1-.95-.39,1.33,1.33,0,0,1-.39-.94V100h-10.66v14.67a1.33,1.33,0,0,1-.39.94,1.34,1.34,0,0,1-.95.39h-16a1.33,1.33,0,0,1-.94-.39,1.33,1.33,0,0,1-.39-.94V85.33a1.35,1.35,0,0,1,.56-1.09l22.67-16a1.36,1.36,0,0,1,1.54,0l22.67,16a1.35,1.35,0,0,1,.56,1.09v29.34a1.33,1.33,0,0,1-.39.94A1.33,1.33,0,0,1-225.33,116Z" style="fill:none"/></clipPath><clipPath id="clip-path-2"><path d="M-112,45.21A21.23,21.23,0,0,1-133.21,24,21.23,21.23,0,0,1-112,2.79,21.23,21.23,0,0,1-90.79,24,21.23,21.23,0,0,1-112,45.21ZM-112,0a24,24,0,0,0-24,24,24,24,0,0,0,24,24A24,24,0,0,0-88,24,24,24,0,0,0-112,0Z" style="fill:none"/></clipPath></defs><title>icon-sport-penalty</title><path d="M41.8,3.64C39.6,1.44,34.09.38,28.09,1A30.29,30.29,0,0,0,10,9.17,30.29,30.29,0,0,0,1.85,27.25c-.63,6,.43,11.5,2.63,13.7,1.74,1.75,5.6,2.81,10.25,2.81,6.91,0,15.54-2.35,21.53-8.34a30.3,30.3,0,0,0,8.17-18.08C45.06,11.35,44,5.84,41.8,3.64ZM6.38,39.06h0l0-.06c-1.15-1.54-1.89-6.41-1.89-6.41a27.59,27.59,0,0,1,.08-5.06,27.52,27.52,0,0,1,7.39-16.46A27.52,27.52,0,0,1,28.37,3.68a29.32,29.32,0,0,1,3.11-.17c.68,0,1.32,0,1.94.08,5.33.3,6,1.6,6.46,1.94h0c1.91,1.91-1.79,11-12.18,21.34S8.29,41,6.38,39.06Zm35.38-22a27.53,27.53,0,0,1-7.4,16.46C28.24,39.64,19.17,41.42,12.9,41,18,38.89,24.2,34.2,29.62,28.78S39.73,17.14,41.84,12.06A28.8,28.8,0,0,1,41.76,17.06Z" style="fill:#231f20"/><circle cx="38.17" cy="37.52" r="10.49" style="fill:#fff"/><path d="M32.18,45.84v-15h7a4.83,4.83,0,1,1,0,9.65H35.37v5.32ZM41,35.7a2,2,0,0,0-2.2-2H35.37v4h3.39A2,2,0,0,0,41,35.7Z" style="fill:#dd1f26"/></svg>