<svg id="Layer_1" data-name="Layer 1" xmlns="http://www.w3.org/2000/svg" xmlns:xlink="http://www.w3.org/1999/xlink" viewBox="0 0 48 48"><defs><clipPath id="clip-path"><path d="M-240,385.33h13.33V358L-248,343-269.33,358v27.3H-256V370.67a1.34,1.34,0,0,1,1.33-1.34h13.34a1.34,1.34,0,0,1,1.33,1.34Zm14.67,2.67h-16a1.34,1.34,0,0,1-.95-.39,1.33,1.33,0,0,1-.39-.94V372h-10.66v14.67a1.33,1.33,0,0,1-.39.94,1.34,1.34,0,0,1-.95.39h-16a1.33,1.33,0,0,1-.94-.39,1.33,1.33,0,0,1-.39-.94V357.33a1.35,1.35,0,0,1,.56-1.09l22.67-16a1.36,1.36,0,0,1,1.54,0l22.67,16a1.35,1.35,0,0,1,.56,1.09v29.34a1.33,1.33,0,0,1-.39.94A1.33,1.33,0,0,1-225.33,388Z" style="fill:none"/></clipPath><clipPath id="clip-path-2"><path d="M-112,317.21A21.23,21.23,0,0,1-133.21,296,21.23,21.23,0,0,1-112,274.79,21.23,21.23,0,0,1-90.79,296,21.23,21.23,0,0,1-112,317.21Zm0-45.21a24,24,0,0,0-24,24,24,24,0,0,0,24,24,24,24,0,0,0,24-24A24,24,0,0,0-112,272Z" style="fill:none"/></clipPath></defs><title>icon-sport-subs</title><g id="Substitution_Arrows" data-name="Substitution Arrows"><path id="Arrow_Out" data-name="Arrow Out" d="M19.19,25a.87.87,0,0,0-.72-.39H14.52C14.05,13.6,21.05,6.84,28.07,6a.86.86,0,0,0,.07-1.7l-.21,0A20.14,20.14,0,0,0,3.8,24c0,.19,0,.4,0,.6h-3a.86.86,0,0,0-.7.35.85.85,0,0,0-.12.77c1.63,5.1,7,10.46,9.91,12.83a.85.85,0,0,0,.54.19.86.86,0,0,0,.64-.28A50.43,50.43,0,0,0,19.26,25.8.84.84,0,0,0,19.19,25ZM10.38,36.68c-2.49-2.15-6.55-6.32-8.29-10.36H4.72a.89.89,0,0,0,.85-.92c0-.37-.05-.94-.05-1.4A18.4,18.4,0,0,1,23.28,5.63c-6.15,2.81-11.18,9.8-10.43,19.89a.86.86,0,0,0,.86.8h3.43A48.75,48.75,0,0,1,10.38,36.68Z" style="fill:#dd1f26"/><path id="Arrow_In" data-name="Arrow In" d="M48,22.28c-1.63-5.11-7-10.47-9.91-12.83a.85.85,0,0,0-1.18.1A50.17,50.17,0,0,0,28.74,22.2a.84.84,0,0,0,.07.81.87.87,0,0,0,.72.39h3.95C34,34.4,27,41.16,19.93,42a.86.86,0,0,0-.07,1.7l.21,0A20.14,20.14,0,0,0,44.2,24c0-.19,0-.4,0-.6h3a.86.86,0,0,0,.7-.35A.85.85,0,0,0,48,22.28Zm-4.69-.6a.83.83,0,0,0-.85.92c0,.37,0,.94,0,1.4A18.4,18.4,0,0,1,24.72,42.37c6.15-2.81,11.18-9.8,10.43-19.89a.87.87,0,0,0-.86-.8H30.86a48.75,48.75,0,0,1,6.76-10.36c2.49,2.15,6.55,6.32,8.29,10.36Z" style="fill:#06bc24"/></g></svg>