<svg id="Layer_1" data-name="Layer 1" xmlns="http://www.w3.org/2000/svg" xmlns:xlink="http://www.w3.org/1999/xlink" viewBox="0 0 48 48"><defs><clipPath id="clip-path"><path d="M-240,317.33h13.33V290L-248,275-269.33,290v27.3H-256V302.67a1.34,1.34,0,0,1,1.33-1.34h13.34a1.34,1.34,0,0,1,1.33,1.34Zm14.67,2.67h-16a1.34,1.34,0,0,1-.95-.39,1.33,1.33,0,0,1-.39-.94V304h-10.66v14.67a1.33,1.33,0,0,1-.39.94,1.34,1.34,0,0,1-.95.39h-16a1.33,1.33,0,0,1-.94-.39,1.33,1.33,0,0,1-.39-.94V289.33a1.35,1.35,0,0,1,.56-1.09l22.67-16a1.36,1.36,0,0,1,1.54,0l22.67,16a1.35,1.35,0,0,1,.56,1.09v29.34a1.33,1.33,0,0,1-.39.94A1.33,1.33,0,0,1-225.33,320Z" style="fill:none"/></clipPath><clipPath id="clip-path-2"><path d="M-112,249.21A21.23,21.23,0,0,1-133.21,228,21.23,21.23,0,0,1-112,206.79,21.23,21.23,0,0,1-90.79,228,21.23,21.23,0,0,1-112,249.21Zm0-45.21a24,24,0,0,0-24,24,24,24,0,0,0,24,24,24,24,0,0,0,24-24A24,24,0,0,0-112,204Z" style="fill:none"/></clipPath></defs><title>icon-sport-duck</title><path d="M25.2,26.4H8.39a1.2,1.2,0,0,0-1.2,1.2h0A10.82,10.82,0,0,0,18,38.41h7.2a6,6,0,0,0,0-12Zm0,9.61H18A8.42,8.42,0,0,1,9.68,28.8H25.2a3.61,3.61,0,0,1,0,7.21Z" style="fill:#231f20"/><path d="M48,13.2A1.2,1.2,0,0,0,46.81,12H46.7c-2.49,0-5.7-1.85-6.41-3,0,0,0,0,0,0A9.58,9.58,0,0,0,21.6,12a12.94,12.94,0,0,0,1.49,5.55c.26.6.51,1.15.68,1.66H1.19A1.2,1.2,0,0,0,0,20.4H0V30C0,37.76,5.35,45.61,15.6,45.61H30c6.77,0,10.81-4,10.81-10.8a12.59,12.59,0,0,0-2.6-7.87A10.19,10.19,0,0,1,36,20.89,27.46,27.46,0,0,0,38.62,18C42.05,17.86,48,16.62,48,13.2ZM40.1,15.46a8.74,8.74,0,0,0,.67-2.94,13.29,13.29,0,0,0,3.91,1.63A14.08,14.08,0,0,1,40.1,15.46ZM36.21,28.27a10.18,10.18,0,0,1,2.2,6.54c0,3.14-1.09,8.4-8.41,8.4H15.6C6.52,43.21,2.39,36.37,2.39,30V21.6H25.2a1.2,1.2,0,0,0,1.2-1.2h0a9.45,9.45,0,0,0-1.12-3.84A10.92,10.92,0,0,1,24,12a7.21,7.21,0,0,1,14.41,0c0,3.11-2.16,5.27-4.45,7.56a1.19,1.19,0,0,0-.35.85,12.62,12.62,0,0,0,2.6,7.87Z" style="fill:#231f20"/></svg>