<svg id="Layer_1" data-name="Layer 1" xmlns="http://www.w3.org/2000/svg" xmlns:xlink="http://www.w3.org/1999/xlink" viewBox="0 0 48 48"><defs><clipPath id="clip-path"><path d="M-308,181.33h13.33V154L-316,139-337.33,154v27.3H-324V166.67a1.34,1.34,0,0,1,1.33-1.34h13.34a1.34,1.34,0,0,1,1.33,1.34Zm14.67,2.67h-16a1.34,1.34,0,0,1-.95-.39,1.33,1.33,0,0,1-.39-.94V168h-10.66v14.67a1.33,1.33,0,0,1-.39.94,1.34,1.34,0,0,1-.95.39h-16a1.33,1.33,0,0,1-.94-.39,1.33,1.33,0,0,1-.39-.94V153.33a1.35,1.35,0,0,1,.56-1.09l22.67-16a1.36,1.36,0,0,1,1.54,0l22.67,16a1.35,1.35,0,0,1,.56,1.09v29.34a1.33,1.33,0,0,1-.39.94A1.33,1.33,0,0,1-293.33,184Z" style="fill:none"/></clipPath><clipPath id="clip-path-2"><path d="M-180,113.21A21.23,21.23,0,0,1-201.21,92,21.23,21.23,0,0,1-180,70.79,21.23,21.23,0,0,1-158.79,92,21.23,21.23,0,0,1-180,113.21ZM-180,68a24,24,0,0,0-24,24,24,24,0,0,0,24,24,24,24,0,0,0,24-24A24,24,0,0,0-180,68Z" style="fill:none"/></clipPath></defs><title>icon-sport-conversion-drop-goal</title><polygon points="38.66 40.47 38.66 4.99 36.12 4.99 36.12 40.47 11.71 40.47 11.71 4.99 9.17 4.99 9.17 40.47 -0.15 40.47 -0.15 43.01 9.17 43.01 11.71 43.01 36.12 43.01 38.66 43.01 48.15 43.01 48.15 40.47 38.66 40.47" style="fill:#231f20"/><path d="M20.27,31.4a13.81,13.81,0,0,0,9.66-3.76,13.57,13.57,0,0,0,3.66-8.1c.29-2.76-.21-5.24-1.27-6.31S28.78,11.67,26,12a13.61,13.61,0,0,0-8.13,3.68,13.61,13.61,0,0,0-3.65,8.1c-.3,2.77.2,5.24,1.27,6.31C16.35,30.89,18.13,31.4,20.27,31.4ZM31.51,19.33h0a11.48,11.48,0,0,1-3.07,6.84,11.42,11.42,0,0,1-7,3.06,29.15,29.15,0,0,0,5.57-4.46,29.83,29.83,0,0,0,4.48-5.6C31.52,19.23,31.52,19.28,31.51,19.33ZM16.31,24a11.48,11.48,0,0,1,3.06-6.83,12,12,0,0,1,9-3.11c1.88.1,2.28.49,2.43.64l.07.06h0c.48.48-.77,4.09-5.27,8.59S17.54,29,17,28.58a8.35,8.35,0,0,1-.72-2.52A12.39,12.39,0,0,1,16.31,24Z" style="fill:#231f20"/></svg>