<?xml version="1.0" encoding="UTF-8"?>
<svg width="44px" height="44px" viewBox="0 0 44 44" version="1.1" xmlns="http://www.w3.org/2000/svg" xmlns:xlink="http://www.w3.org/1999/xlink">
    <title>icon-sign-fb</title>
    <g id="Page-1" stroke="none" stroke-width="1" fill="none" fill-rule="evenodd">
        <g id="mobile-signin-step0-apple" transform="translate(-227.000000, -428.000000)">
            <g id="Group-10" transform="translate(90.000000, 428.000000)">
                <g id="icon-sign-fb" transform="translate(137.000000, 0.000000)">
                    <circle id="Oval-Copy" fill="#42609E" cx="22" cy="22" r="22"></circle>
                    <g id="fb" transform="translate(5.280000, 6.160000)">
                        <path d="M1.96773428,16.7606523 C1.96773428,24.4268737 8.35580883,30.6447059 16.2356867,30.6447059 C24.1118068,30.6447059 30.4998814,24.4268737 30.4998814,16.7606523 C30.4998814,9.09077339 24.1118068,2.87294118 16.2356867,2.87294118 C8.35580883,2.87294118 1.96773428,9.09077339 1.96773428,16.7606523 Z" id="Path" fill="#FFFFFF"></path>
                        <path d="M0,16.2821441 C0,25.2701277 7.48946671,32.56 16.7279442,32.56 C25.9620161,32.56 33.4514828,25.2701277 33.4514828,16.2821441 C33.4514828,7.28987225 25.9620161,0 16.7279442,0 C7.48946671,0 0,7.28987225 0,16.2821441 Z M24.8650295,23.1646411 C24.8650295,23.6449151 24.6227232,23.9579507 24.1337051,23.9579507 L20.018904,23.9579507 L20.018904,17.9545265 L22.1115491,17.9545265 L22.42875,15.3816304 L20.018904,15.3816304 L20.018904,14.0437245 C20.018904,13.3576189 20.2083434,12.8087344 21.2216242,12.8087344 L22.6622452,12.8087344 L22.6622452,10.763282 C22.2216883,10.7332648 21.5388252,10.6689424 20.6444947,10.6689424 C18.7853447,10.6689424 17.3755628,11.7752878 17.3755628,13.8078757 L17.3755628,15.3816304 L15.1727784,15.3816304 L15.1727784,17.9545265 L17.3755628,17.9545265 L17.3755628,23.9579507 L9.74511787,23.9579507 C9.25169418,23.9579507 9.00498233,23.6449151 9.00498233,23.1646411 L9.00498233,9.15951008 C9.00498233,8.67923614 9.25169418,8.0917582 9.74511787,8.0917582 L24.1337051,8.0917582 C24.6227232,8.0917582 24.8650295,8.67923614 24.8650295,9.15951008 L24.8650295,23.1646411 L24.8650295,23.1646411 Z" id="Facebook" fill="#43619C"></path>
                    </g>
                </g>
            </g>
        </g>
    </g>
</svg>