<svg id="Layer_1" data-name="Layer 1" xmlns="http://www.w3.org/2000/svg" xmlns:xlink="http://www.w3.org/1999/xlink" viewBox="0 0 48 48"><defs><clipPath id="clip-path"><path d="M-376,385.33h13.33V358L-384,343-405.33,358v27.3H-392V370.67a1.34,1.34,0,0,1,1.33-1.34h13.34a1.34,1.34,0,0,1,1.33,1.34Zm14.67,2.67h-16a1.34,1.34,0,0,1-.95-.39,1.33,1.33,0,0,1-.39-.94V372h-10.66v14.67a1.33,1.33,0,0,1-.39.94,1.34,1.34,0,0,1-.95.39h-16a1.33,1.33,0,0,1-.94-.39,1.33,1.33,0,0,1-.39-.94V357.33a1.35,1.35,0,0,1,.56-1.09l22.67-16a1.36,1.36,0,0,1,1.54,0l22.67,16a1.35,1.35,0,0,1,.56,1.09v29.34a1.33,1.33,0,0,1-.39.94A1.33,1.33,0,0,1-361.33,388Z" style="fill:none"/></clipPath><clipPath id="clip-path-2"><path d="M-248,317.21A21.23,21.23,0,0,1-269.21,296,21.23,21.23,0,0,1-248,274.79,21.23,21.23,0,0,1-226.79,296,21.23,21.23,0,0,1-248,317.21Zm0-45.21a24,24,0,0,0-24,24,24,24,0,0,0,24,24,24,24,0,0,0,24-24A24,24,0,0,0-248,272Z" style="fill:none"/></clipPath></defs><title>icon-sport-full-time</title><path d="M25.32,4.52V3.08l-2.5,0V4.52c.39,0,.78-.06,1.18-.06S24.88,4.5,25.32,4.52Z" style="fill:none"/><circle cx="24" cy="26.17" r="1.95" style="fill:#4d5566;opacity:0.2"/><path d="M24,7.5A18.74,18.74,0,1,0,42.73,26.24,18.76,18.76,0,0,0,24,7.5Zm5,18.67a5,5,0,1,1-5-5,5.09,5.09,0,0,1,1.79.35L30,16.06l2.42,1.86-4.22,5.51A5,5,0,0,1,29,26.17Z" style="fill:#4d5566;opacity:0.2"/><path d="M30,16.06l-4.18,5.46A5.09,5.09,0,0,0,24,21.17a5,5,0,1,0,4.17,2.26l4.22-5.51ZM24,28.12A1.95,1.95,0,1,1,26,26.17,1.95,1.95,0,0,1,24,28.12Z" style="fill:#231f20"/><path d="M37.93,9.52l.9-1.28.56.41,1.79-2.47-3.7-2.69L35.69,6l.68.5-.92,1.3A21.42,21.42,0,0,0,28.37,4.9V3.1h1.85l0-3H28.4L19.81,0H18l0,3h1.84V4.88A21.8,21.8,0,1,0,37.93,9.52ZM24,45A18.74,18.74,0,1,1,42.73,26.24,18.75,18.75,0,0,1,24,45ZM22.83,3.06l2.5,0V4.52c-.44,0-.87-.06-1.32-.06s-.79,0-1.18.06Z" style="fill:#231f20"/></svg>