<svg xmlns="http://www.w3.org/2000/svg" xmlns:xlink="http://www.w3.org/1999/xlink" viewBox="0 0 48 48"><defs><style>.a{fill:none;}.b{clip-path:url(#a);}.c{fill:#21418d;}</style><clipPath id="a"><path class="a" d="M-384,249.21A21.23,21.23,0,0,1-405.21,228,21.23,21.23,0,0,1-384,206.79,21.23,21.23,0,0,1-362.79,228,21.23,21.23,0,0,1-384,249.21Zm0-45.21a24,24,0,0,0-24,24,24,24,0,0,0,24,24,24,24,0,0,0,24-24A24,24,0,0,0-384,204Z"/></clipPath></defs><title>icon-tick</title><polygon class="c" points="19.27 33.96 11.06 25.75 14.6 22.21 19.27 26.89 33.4 12.76 36.94 16.3 19.27 33.96"/></svg>