<svg id="Layer_1" data-name="Layer 1" xmlns="http://www.w3.org/2000/svg" xmlns:xlink="http://www.w3.org/1999/xlink" viewBox="0 0 48 48"><defs><clipPath id="clip-path"><path d="M-248,521.21A21.23,21.23,0,0,1-269.21,500,21.23,21.23,0,0,1-248,478.79,21.23,21.23,0,0,1-226.79,500,21.23,21.23,0,0,1-248,521.21Zm0-45.21a24,24,0,0,0-24,24,24,24,0,0,0,24,24,24,24,0,0,0,24-24A24,24,0,0,0-248,476Z" style="fill:none"/></clipPath></defs><title>icon-sport-second-half</title><path d="M26.62,14.9l-4,5.18a4.81,4.81,0,0,0-1.7-.33,4.74,4.74,0,1,0,4.74,4.74,4.68,4.68,0,0,0-.78-2.59l4-5.24ZM21,26.34a1.85,1.85,0,1,1,1.85-1.85A1.85,1.85,0,0,1,21,26.34Z" style="fill:#231f20"/><path d="M34.17,8.7,35,7.49l.53.38,1.7-2.34L33.74,3,32,5.32l.65.47L31.82,7a20.36,20.36,0,0,0-6.72-2.7V2.61h1.75l0-2.89H25.13L17-.33H15.23l0,2.89H17V4.3A20.67,20.67,0,1,0,34.17,8.7ZM19.84,2.58h2.38V4c-.42,0-.83-.06-1.26-.06s-.74,0-1.12.05ZM21,42.32A17.77,17.77,0,1,1,38.72,24.55,17.79,17.79,0,0,1,21,42.32Z" style="fill:#231f20"/><circle cx="36.72" cy="37.36" r="10.98" style="fill:#fff"/><path d="M31.54,45.73V43.14c6.38-4.72,8.25-6.33,8.25-8.25,0-1.35-1.24-2-2.53-2a5.57,5.57,0,0,0-4.18,1.8l-1.89-2.2a7.94,7.94,0,0,1,6-2.54c3.32,0,6,1.87,6,5,0,2.67-2.2,5-6.24,7.92h6.36v2.92Z" style="fill:#dd1f26"/></svg>