<?xml version="1.0" encoding="UTF-8"?>
<svg width="23px" height="23px" viewBox="0 0 23 23" version="1.1" xmlns="http://www.w3.org/2000/svg" xmlns:xlink="http://www.w3.org/1999/xlink">
    <title>phone-call</title>
    <g id="✅-Articles" stroke="none" stroke-width="1" fill="none" fill-rule="evenodd">
        <g id="phone-call" transform="translate(0.000000, 0.388205)" fill="#000000" fill-rule="nonzero">
            <path d="M18.950117,13.4789397 C18.4587765,12.9673377 17.8661287,12.6938079 17.2380232,12.6938079 C16.6149832,12.6938079 16.01727,12.9622723 15.505668,13.4738743 L13.9050122,15.0694647 C13.7733127,14.9985496 13.6416132,14.9326998 13.514979,14.86685 C13.3326258,14.7756735 13.1604034,14.6895622 13.0135078,14.5983856 C11.5141593,13.6460968 10.1515758,12.405082 8.8447113,10.7993609 C8.21154052,9.99903305 7.78604975,9.32533933 7.4770624,8.64151488 C7.89242244,8.26161241 8.27739028,7.86651384 8.65222738,7.48661137 C8.79405764,7.34478111 8.93588789,7.19788549 9.07771815,7.05605524 C10.1414451,5.99232832 10.1414451,4.61454869 9.07771815,3.55082177 L7.69487315,2.16797677 C7.5378468,2.01095042 7.37575508,1.84885869 7.22379409,1.68676697 C6.91987211,1.37271426 6.60075404,1.04853082 6.27150523,0.744608844 C5.7801647,0.258333681 5.19258221,0 4.57460752,0 C3.95663284,0 3.35891961,0.258333681 2.85238299,0.744608844 C2.84731762,0.74967421 2.84731762,0.74967421 2.84225225,0.754739576 L1.12002772,2.49216021 C0.471660832,3.1405271 0.101889094,3.93072424 0.020843233,4.84755553 C-0.100725558,6.32664249 0.334895943,7.70442212 0.669210117,8.60605732 C1.48979946,10.8196224 2.7156181,12.8710957 4.54421533,15.0694647 C6.76284576,17.7186513 9.43229379,19.8106475 12.4816443,21.2846691 C13.6466785,21.8367941 15.201746,22.4902263 16.9391666,22.6016644 C17.0455393,22.6067297 17.1569774,22.6117951 17.2582847,22.6117951 C18.4283843,22.6117951 19.4110654,22.1913697 20.181001,21.3555843 C20.1860664,21.3454535 20.1961971,21.3403882 20.2012625,21.3302574 C20.4646616,21.0111394 20.7685835,20.7224135 21.0877016,20.4134261 C21.3055124,20.2057461 21.5283885,19.9879354 21.7461992,19.7599939 C22.2476705,19.2382612 22.5110695,18.6304172 22.5110695,18.0073771 C22.5110695,17.3792717 22.2426051,16.7764931 21.7310031,16.2699565 L18.950117,13.4789397 Z M20.7635182,18.8127704 C20.7584528,18.8127704 20.7584528,18.8178357 20.7635182,18.8127704 C20.5659689,19.0255158 20.3633542,19.2179997 20.1455435,19.4307451 C19.8162947,19.7447978 19.4819805,20.0740466 19.1679278,20.4438183 C18.6563258,20.9908779 18.0535472,21.2492116 17.2633501,21.2492116 C17.1873696,21.2492116 17.1063237,21.2492116 17.0303432,21.2441462 C15.5259294,21.1479042 14.1278883,20.5603218 13.0793575,20.0588505 C10.2123602,18.6709401 7.69487315,16.7005126 5.60287688,14.2032871 C3.87558698,12.1214215 2.72068346,10.1965823 1.95581315,8.12991289 C1.48473409,6.86863668 1.31251164,5.88595562 1.38849213,4.95899359 C1.43914579,4.36634574 1.66708728,3.87500521 2.08751268,3.45457981 L3.81480258,1.7272899 C4.06300553,1.49428305 4.32640458,1.3676489 4.58473826,1.3676489 C4.90385633,1.3676489 5.16219001,1.56013282 5.32428173,1.72222454 C5.3293471,1.7272899 5.33441247,1.73235527 5.33947783,1.73742064 C5.64846518,2.02614651 5.94225642,2.32500312 6.25124376,2.6441212 C6.40827012,2.80621292 6.57036184,2.96830464 6.73245356,3.13546173 L8.11529856,4.51830673 C8.65222738,5.05523555 8.65222738,5.55164145 8.11529856,6.08857027 C7.96840293,6.2354659 7.82657268,6.38236152 7.67967706,6.52419178 C7.25418629,6.95981328 6.84895699,7.36504258 6.40827012,7.76014115 C6.39813939,7.77027188 6.38800865,7.77533725 6.38294329,7.78546798 C5.94732179,8.22108948 6.02836765,8.64658025 6.11954424,8.93530613 C6.12460961,8.95050223 6.12967497,8.96569832 6.13474034,8.98089442 C6.49438135,9.85213742 7.00091797,10.6727268 7.77085365,11.6503425 L7.77591902,11.6554078 C9.17396011,13.3776324 10.6479817,14.7199544 12.2739643,15.7482238 C12.4816443,15.8799233 12.6943897,15.986296 12.8970043,16.0876033 C13.0793575,16.1787799 13.25158,16.2648911 13.3984756,16.3560677 C13.4187371,16.3661985 13.4389985,16.3813946 13.45926,16.3915253 C13.6314824,16.4776365 13.7935742,16.5181595 13.9607312,16.5181595 C14.3811567,16.5181595 14.6445557,16.2547604 14.7306669,16.1686492 L16.4630222,14.4362939 C16.6352446,14.2640715 16.9087744,14.0563914 17.2278925,14.0563914 C17.5419452,14.0563914 17.8002789,14.2539407 17.9573052,14.4261632 C17.9623706,14.4312285 17.9623706,14.4312285 17.967436,14.4362939 L20.7584528,17.2273107 C21.2801855,17.7439781 21.2801855,18.2758416 20.7635182,18.8127704 Z" id="Shape"></path>
        </g>
    </g>
</svg>