<svg id="Layer_1" data-name="Layer 1" xmlns="http://www.w3.org/2000/svg" xmlns:xlink="http://www.w3.org/1999/xlink" viewBox="0 0 48 48"><defs><clipPath id="clip-path"><path d="M-444,385.33h13.33V358L-452,343-473.33,358v27.3H-460V370.67a1.34,1.34,0,0,1,1.33-1.34h13.34a1.34,1.34,0,0,1,1.33,1.34Zm14.67,2.67h-16a1.34,1.34,0,0,1-.95-.39,1.33,1.33,0,0,1-.39-.94V372h-10.66v14.67a1.33,1.33,0,0,1-.39.94,1.34,1.34,0,0,1-.95.39h-16a1.33,1.33,0,0,1-.94-.39,1.33,1.33,0,0,1-.39-.94V357.33a1.35,1.35,0,0,1,.56-1.09l22.67-16a1.36,1.36,0,0,1,1.54,0l22.67,16a1.35,1.35,0,0,1,.56,1.09v29.34a1.33,1.33,0,0,1-.39.94A1.33,1.33,0,0,1-429.33,388Z" style="fill:none"/></clipPath><clipPath id="clip-path-2"><path d="M-316,317.21A21.23,21.23,0,0,1-337.21,296,21.23,21.23,0,0,1-316,274.79,21.23,21.23,0,0,1-294.79,296,21.23,21.23,0,0,1-316,317.21Zm0-45.21a24,24,0,0,0-24,24,24,24,0,0,0,24,24,24,24,0,0,0,24-24A24,24,0,0,0-316,272Z" style="fill:none"/></clipPath></defs><title>icon-sport-declared</title><path d="M12.78,36.13V11.87h9.57c7.59,0,12.87,4.84,12.87,12.15S29.94,36.13,22.35,36.13ZM29.94,24c0-4.29-2.61-7.6-7.59-7.6H17.94V31.58h4.41A7.25,7.25,0,0,0,29.94,24Z" style="fill:#231f20"/></svg>