<?xml version="1.0" encoding="UTF-8"?>
<svg width="38px" height="38px" viewBox="0 0 38 38" version="1.1" xmlns="http://www.w3.org/2000/svg" xmlns:xlink="http://www.w3.org/1999/xlink">
    <title>icon-pause</title>
    <g id="Subscription-(app)" stroke="none" stroke-width="1" fill="none" fill-rule="evenodd">
        <g id="text-to-speech-pause" transform="translate(-22.000000, -309.000000)" fill="#212121" fill-rule="nonzero">
            <g id="Group-2" transform="translate(0.000000, 295.000000)">
                <g id="pause" transform="translate(22.000000, 14.000000)">
                    <path d="M32.3970781,5.56195312 C24.9816602,-1.85346484 12.9784844,-1.85450391 5.56202734,5.56195312 C-1.85339063,12.9773711 -1.85450391,24.9805469 5.56202734,32.3970039 C12.9774453,39.8124219 24.9806211,39.8135352 32.3970781,32.3970039 C39.8124219,24.9816602 39.8135352,12.9784844 32.3970781,5.56195312 Z M17.371418,24.5211328 C17.371418,25.3819219 16.6736133,26.0797266 15.8128242,26.0797266 C14.9520352,26.0797266 14.2542305,25.3819219 14.2542305,24.5211328 L14.2542305,13.4378242 C14.2542305,12.5770352 14.9520352,11.8792305 15.8128242,11.8792305 C16.6736133,11.8792305 17.371418,12.5770352 17.371418,13.4378242 L17.371418,24.5211328 Z M23.7047266,24.5211328 C23.7047266,25.3819219 23.0069219,26.0797266 22.1461328,26.0797266 C21.2853437,26.0797266 20.5875391,25.3819219 20.5875391,24.5211328 L20.5875391,13.4378242 C20.5875391,12.5770352 21.2853437,11.8792305 22.1461328,11.8792305 C23.0069219,11.8792305 23.7047266,12.5770352 23.7047266,13.4378242 L23.7047266,24.5211328 Z" id="Shape"></path>
                </g>
            </g>
        </g>
    </g>
</svg>