<svg id="Layer_1" data-name="Layer 1" xmlns="http://www.w3.org/2000/svg" xmlns:xlink="http://www.w3.org/1999/xlink" viewBox="0 0 48 48"><defs><clipPath id="clip-path"><path d="M-376,453.33h13.33V426L-384,411-405.33,426v27.3H-392V438.67a1.34,1.34,0,0,1,1.33-1.34h13.34a1.34,1.34,0,0,1,1.33,1.34Zm14.67,2.67h-16a1.34,1.34,0,0,1-.95-.39,1.33,1.33,0,0,1-.39-.94V440h-10.66v14.67a1.33,1.33,0,0,1-.39.94,1.34,1.34,0,0,1-.95.39h-16a1.33,1.33,0,0,1-.94-.39,1.33,1.33,0,0,1-.39-.94V425.33a1.35,1.35,0,0,1,.56-1.09l22.67-16a1.36,1.36,0,0,1,1.54,0l22.67,16a1.35,1.35,0,0,1,.56,1.09v29.34a1.33,1.33,0,0,1-.39.94A1.33,1.33,0,0,1-361.33,456Z" style="fill:none"/></clipPath><clipPath id="clip-path-2"><path d="M-248,385.21A21.23,21.23,0,0,1-269.21,364,21.23,21.23,0,0,1-248,342.79,21.23,21.23,0,0,1-226.79,364,21.23,21.23,0,0,1-248,385.21Zm0-45.21a24,24,0,0,0-24,24,24,24,0,0,0,24,24,24,24,0,0,0,24-24A24,24,0,0,0-248,340Z" style="fill:none"/></clipPath></defs><title>icon-sport-second-half-extra</title><path d="M22.53,4.35V3H20.13v1.4c.37,0,.75-.06,1.13-.06S22.1,4.33,22.53,4.35Z" style="fill:none"/><circle cx="21.25" cy="25.18" r="1.88" style="fill:#4d5566;opacity:0.2"/><path d="M21.25,7.22a18,18,0,1,0,18,18A18,18,0,0,0,21.25,7.22Zm4.8,18a4.81,4.81,0,1,1-4.8-4.81,4.76,4.76,0,0,1,1.73.34l4-5.26,2.33,1.79-4.07,5.31A4.74,4.74,0,0,1,26.05,25.18Z" style="fill:#4d5566;opacity:0.2"/><path d="M27,15.45l-4,5.26a4.76,4.76,0,0,0-1.73-.34,4.81,4.81,0,1,0,4.8,4.81,4.74,4.74,0,0,0-.79-2.63l4.07-5.31ZM21.25,27.06a1.88,1.88,0,1,1,1.87-1.88A1.88,1.88,0,0,1,21.25,27.06Z" style="fill:#231f20"/><path d="M34.66,9.16l.86-1.23.54.39L37.78,6,34.22,3.36,32.5,5.73l.65.48-.88,1.24a21.1,21.1,0,0,0-6.82-2.74l0-1.73h1.77l0-2.93H25.49L17.22,0H15.44l0,2.93h1.77V4.69A21,21,0,1,0,34.66,9.16ZM21.25,43.27a18,18,0,1,1,18-18A18,18,0,0,1,21.25,43.27ZM20.13,3h2.41V4.35c-.43,0-.85-.06-1.28-.06s-.76,0-1.13.06Z" style="fill:#231f20"/><circle cx="36.56" cy="36.88" r="11.14" style="fill:#fff"/><rect x="35.47" y="28.75" width="3.04" height="15.92" style="fill:#dd1f26"/><rect x="29.03" y="35.19" width="15.92" height="3.04" style="fill:#dd1f26"/></svg>