<svg id="Layer_1" data-name="Layer 1" xmlns="http://www.w3.org/2000/svg" xmlns:xlink="http://www.w3.org/1999/xlink" viewBox="0 0 48 48"><defs><clipPath id="clip-path"><path d="M-316,521.21A21.23,21.23,0,0,1-337.21,500,21.23,21.23,0,0,1-316,478.79,21.23,21.23,0,0,1-294.79,500,21.23,21.23,0,0,1-316,521.21Zm0-45.21a24,24,0,0,0-24,24,24,24,0,0,0,24,24,24,24,0,0,0,24-24A24,24,0,0,0-316,476Z" style="fill:none"/></clipPath></defs><title>icon-sport-all-out</title><path d="M18.3,35.7l-1.44-4h-10l-1.48,4H-.36L8.71,12.26H15L24,35.7ZM11.83,17.25,8.18,27.34h7.31Z" style="fill:#231f20"/><path d="M23.87,24c0-7.06,5.16-12.13,12.23-12.13S48.36,16.94,48.36,24,43.2,36.13,36.1,36.13,23.87,31.06,23.87,24Zm19.36,0c0-4.39-2.81-7.7-7.13-7.7S29,19.61,29,24s2.77,7.7,7.1,7.7S43.23,28.36,43.23,24Z" style="fill:#231f20"/></svg>