<?xml version="1.0" encoding="utf-8"?>
<!-- Generator: Adobe Illustrator 26.5.0, SVG Export Plug-In . SVG Version: 6.00 Build 0)  -->
<svg version="1.1" id="Layer_1" xmlns="http://www.w3.org/2000/svg" xmlns:xlink="http://www.w3.org/1999/xlink" x="0px" y="0px"
	 viewBox="0 0 12 9" style="enable-background:new 0 0 12 9;" xml:space="preserve">
<style type="text/css">
	.st0{filter:url(#a);}
	.st1{fill-rule:evenodd;clip-rule:evenodd;fill:#909090;}
</style>
<filter  filterUnits="objectBoundingBox" height="114.8%" id="a" width="102.2%" x="-1.1%" y="-7.4%">
	<feOffset  dy="2" in="SourceAlpha" result="shadowOffsetOuter1"></feOffset>
	<feGaussianBlur  in="shadowOffsetOuter1" result="shadowBlurOuter1" stdDeviation="1"></feGaussianBlur>
	<feComposite  in="shadowBlurOuter1" in2="SourceAlpha" operator="out" result="shadowBlurOuter1"></feComposite>
	
		<feColorMatrix  in="shadowBlurOuter1" result="shadowMatrixOuter1" values="0 0 0 0 0.129411765 0 0 0 0 0.254901961 0 0 0 0 0.552941176 0 0 0 0.2 0">
		</feColorMatrix>
	<feOffset  in="SourceAlpha" result="shadowOffsetOuter2"></feOffset>
	<feGaussianBlur  in="shadowOffsetOuter2" result="shadowBlurOuter2" stdDeviation="1"></feGaussianBlur>
	<feComposite  in="shadowBlurOuter2" in2="SourceAlpha" operator="out" result="shadowBlurOuter2"></feComposite>
	<feColorMatrix  in="shadowBlurOuter2" result="shadowMatrixOuter2" values="0 0 0 0 0 0 0 0 0 0 0 0 0 0 0 0 0 0 0.12 0">
		</feColorMatrix>
	<feMerge>
		<feMergeNode  in="shadowMatrixOuter1"></feMergeNode>
		<feMergeNode  in="shadowMatrixOuter2"></feMergeNode>
		<feMergeNode  in="SourceGraphic"></feMergeNode>
	</feMerge>
</filter>
<g class="st0">
	<path class="st1" d="M4.9,4.6l3.2-3c0.2-0.2,0.2-0.5,0-0.8c0,0,0,0,0,0c-0.2-0.2-0.6-0.2-0.9,0L3.6,4.2C3.5,4.3,3.4,4.4,3.4,4.6
		c0,0.2,0.1,0.3,0.2,0.4l3.6,3.4c0.2,0.2,0.6,0.2,0.9,0c0.2-0.2,0.2-0.5,0-0.8c0,0,0,0,0,0L4.9,4.6L4.9,4.6z"/>
</g>
</svg>
