<svg id="Layer_1" data-name="Layer 1" xmlns="http://www.w3.org/2000/svg" xmlns:xlink="http://www.w3.org/1999/xlink" viewBox="0 0 48 48"><defs><clipPath id="clip-path"><path d="M-316,453.21A21.23,21.23,0,0,1-337.21,432,21.23,21.23,0,0,1-316,410.79,21.23,21.23,0,0,1-294.79,432,21.23,21.23,0,0,1-316,453.21Zm0-45.21a24,24,0,0,0-24,24,24,24,0,0,0,24,24,24,24,0,0,0,24-24A24,24,0,0,0-316,408Z" style="fill:none"/></clipPath></defs><title>icon-sport-news-batsman</title><path d="M17.4,36.05,5.91,20.33V36.05H.78V12H6.05L17.22,27.09V12h5.13v24.1Z" style="fill:#231f20"/><path d="M27.13,36.05V12H39.81c4.59,0,6.94,2.92,6.94,6.14a5.35,5.35,0,0,1-4.15,5.53,5.84,5.84,0,0,1,4.62,5.93c0,3.61-2.42,6.5-7,6.5ZM41.51,19a2.59,2.59,0,0,0-2.82-2.63H32.26V21.6h6.43A2.57,2.57,0,0,0,41.51,19ZM42,28.83A2.81,2.81,0,0,0,38.87,26H32.26v5.6h6.61C40.82,31.61,42,30.56,42,28.83Z" style="fill:#231f20"/></svg>