<?xml version="1.0" encoding="UTF-8"?>
<svg width="40px" height="26px" viewBox="0 0 40 26" version="1.1" xmlns="http://www.w3.org/2000/svg" xmlns:xlink="http://www.w3.org/1999/xlink">
    <!-- Generator: Sketch 63.1 (92452) - https://sketch.com -->
    <title>Group 2</title>
    <desc>Created with Sketch.</desc>
    <g id="Symbols" stroke="none" stroke-width="1" fill="none" fill-rule="evenodd">
        <g id="molecule/navigation/mobile/header/subscribe/news24" transform="translate(-309.000000, -6.000000)" fill="#212121">
            <g id="Group-2" transform="translate(309.000000, 6.000000)">
                <g id="Group" transform="translate(10.000000, 0.000000)">
                    <path d="M15.5032941,24.7058824 L4.76117647,24.7058824 C2.71976471,24.7058824 1.05882353,23.0657647 1.05882353,21.0494118 C1.05882353,19.3012941 2.31882353,17.7921176 4.05458824,17.4614118 C4.19682353,17.4338824 4.32211765,17.3495294 4.40047059,17.2274118 C4.47917647,17.1052941 4.50388235,16.9563529 4.46929412,16.8155294 C4.36623529,16.3941176 4.314,15.9769412 4.314,15.5749412 C4.314,12.6709412 6.70482353,10.3083529 9.64376471,10.3083529 C11.9022353,10.3083529 13.9221176,11.7261176 14.67,13.836 C14.7487059,14.0576471 14.976,14.1935294 15.1983529,14.1878824 L15.2954118,14.1818824 C15.3642353,14.1772941 15.4330588,14.1723529 15.5032941,14.1723529 C18.4422353,14.1723529 20.8334118,16.5352941 20.8334118,19.4389412 C20.8334118,22.3432941 18.4422353,24.7058824 15.5032941,24.7058824 M15.5241176,13.1135294 C14.5305882,10.7865882 12.216,9.24952941 9.64376471,9.24952941 C6.12105882,9.24952941 3.25517647,12.0871765 3.25517647,15.5749412 C3.25517647,15.8947059 3.282,16.2215294 3.33564706,16.5511765 C1.37435294,17.1582353 -5.68434189e-14,18.9730588 -5.68434189e-14,21.0494118 C-5.68434189e-14,23.6495294 2.136,25.7647059 4.76117647,25.7647059 L15.5032941,25.7647059 C19.026,25.7647059 21.8922353,22.9270588 21.8922353,19.4389412 C21.8922353,15.9578824 19.0376471,13.1248235 15.5241176,13.1135294" id="Fill-5"></path>
                    <path d="M17.8390588,3.52941176 C18.1312941,3.52941176 18.3684706,3.29223529 18.3684706,3 L18.3684706,0.529411765 C18.3684706,0.237176471 18.1312941,0 17.8390588,0 C17.5468235,0 17.3096471,0.237176471 17.3096471,0.529411765 L17.3096471,3 C17.3096471,3.29223529 17.5468235,3.52941176 17.8390588,3.52941176" id="Fill-6"></path>
                    <path d="M29.1331765,11.2941176 L26.6625882,11.2941176 C26.3703529,11.2941176 26.1331765,11.5312941 26.1331765,11.8235294 C26.1331765,12.1157647 26.3703529,12.3529412 26.6625882,12.3529412 L29.1331765,12.3529412 C29.4254118,12.3529412 29.6625882,12.1157647 29.6625882,11.8235294 C29.6625882,11.5312941 29.4254118,11.2941176 29.1331765,11.2941176" id="Fill-7"></path>
                    <path d="M11.0862353,6.018 C11.1896471,6.12141176 11.3251765,6.17294118 11.4607059,6.17294118 C11.5958824,6.17294118 11.7314118,6.12141176 11.8348235,6.018 C12.0416471,5.81117647 12.0416471,5.47623529 11.8348235,5.26941176 L10.2804706,3.71505882 C10.0736471,3.50823529 9.73870588,3.50823529 9.53188235,3.71505882 C9.32505882,3.92188235 9.32505882,4.25682353 9.53188235,4.46364706 L11.0862353,6.018" id="Fill-8"></path>
                    <path d="M24.6141176,17.3195294 C24.4072941,17.1127059 24.0723529,17.1127059 23.8655294,17.3195294 C23.6587059,17.5263529 23.6587059,17.8612941 23.8655294,18.0681176 L25.4191765,19.6217647 C25.5225882,19.7251765 25.6581176,19.7770588 25.7936471,19.7770588 C25.9291765,19.7770588 26.0643529,19.7251765 26.1677647,19.6217647 C26.3745882,19.4149412 26.3745882,19.08 26.1677647,18.8731765 L24.6141176,17.3195294" id="Fill-9"></path>
                    <path d="M24.2396471,5.78576471 C24.3751765,5.78576471 24.5107059,5.73423529 24.6141176,5.63082353 L26.1681176,4.07717647 C26.3749412,3.87070588 26.3749412,3.53541176 26.1681176,3.32858824 C25.9612941,3.12176471 25.6263529,3.12176471 25.4195294,3.32858824 L23.8651765,4.88188235 C23.6587059,5.08835294 23.6587059,5.424 23.8651765,5.63082353 C23.9685882,5.73423529 24.1041176,5.78576471 24.2396471,5.78576471" id="Fill-10"></path>
                    <path d="M24.4542353,11.2087059 C24.3748235,9.50294118 23.6364706,7.93058824 22.3743529,6.78070588 C21.1122353,5.63117647 19.4728235,5.04105882 17.772,5.12152941 C15.8551765,5.21047059 14.0961176,6.144 12.9465882,7.68317647 C12.7715294,7.91717647 12.8195294,8.24894118 13.0538824,8.424 C13.2878824,8.59870588 13.6196471,8.55105882 13.7950588,8.31670588 C14.7543529,7.03270588 16.2218824,6.25341176 17.8214118,6.17894118 C19.2469412,6.11682353 20.6085882,6.60458824 21.6614118,7.56352941 C22.7138824,8.52282353 23.3301176,9.83435294 23.3968235,11.2577647 C23.4575294,12.5597647 23.0414118,13.8349412 22.2254118,14.8485882 C22.0422353,15.0765882 22.0782353,15.4097647 22.3058824,15.5932941 C22.4036471,15.672 22.5208235,15.7101176 22.6376471,15.7101176 C22.7922353,15.7101176 22.9457647,15.6427059 23.0502353,15.5124706 C24.0282353,14.2972941 24.5269412,12.7687059 24.4542353,11.2087059" id="Fill-11"></path>
                </g>
                <polygon id="+" fill-rule="nonzero" points="10.348 11.2520169 5.9942585 11.2520169 5.9942585 16.216 4.7017415 16.216 4.7017415 11.2520169 0.348 11.2520169 0.348 10.0401525 4.7017415 10.0401525 4.7017415 5.216 5.9942585 5.216 5.9942585 10.0401525 10.348 10.0401525"></polygon>
            </g>
        </g>
    </g>
</svg>