<?xml version="1.0" encoding="utf-8"?>
<!-- Generator: Adobe Illustrator 22.1.0, SVG Export Plug-In . SVG Version: 6.00 Build 0)  -->
<svg version="1.1" id="Layer_1" xmlns="http://www.w3.org/2000/svg" xmlns:xlink="http://www.w3.org/1999/xlink" x="0px" y="0px"
	 viewBox="0 0 16 16" style="enable-background:new 0 0 16 16;" xml:space="preserve">
<style type="text/css">
	.st0{fill:#212121;}
</style>
<g transform="translate(1 1)">
	<g>
		<path id="a_1_" class="st0" d="M9.8,0.5c2,0,3.7,1.6,3.7,3.7v5.6c0,2-1.6,3.7-3.7,3.7H4.2c-2,0-3.7-1.6-3.7-3.7V4.2
			c0-2,1.6-3.7,3.7-3.7H9.8z M9.8,1.6H4.2c-1.4,0-2.6,1.2-2.6,2.6v5.6c0,1.4,1.2,2.6,2.6,2.6h5.6c1.4,0,2.6-1.2,2.6-2.6V4.2
			C12.4,2.7,11.3,1.6,9.8,1.6L9.8,1.6z M7,3.7c1.8,0,3.3,1.5,3.3,3.3c0,1.8-1.5,3.3-3.3,3.3c-1.8,0-3.3-1.5-3.3-3.3
			C3.7,5.2,5.2,3.7,7,3.7L7,3.7z M7,4.7c-1.3,0-2.3,1-2.3,2.3c0,1.3,1,2.3,2.3,2.3c1.3,0,2.3-1,2.3-2.3C9.3,5.7,8.3,4.7,7,4.7L7,4.7
			z M10.4,2.7c0.5,0,0.9,0.4,0.9,0.8S11,4.4,10.5,4.4c0,0,0,0-0.1,0C10,4.4,9.6,4,9.6,3.5C9.6,3.1,10,2.7,10.4,2.7z"/>
	</g>
</g>
</svg>
