<?xml version="1.0" encoding="UTF-8"?>
<svg width="74px" height="25px" viewBox="0 0 74 25" version="1.1" xmlns="http://www.w3.org/2000/svg" xmlns:xlink="http://www.w3.org/1999/xlink">
    <title>Iress-Logo-Horizontal </title>
    <g id="⚛️-Atoms-(Base-Elements)" stroke="none" stroke-width="1" fill="none" fill-rule="evenodd">
        <g id="organism/widget/Indicators-mobile-currencies" transform="translate(-214.000000, -245.000000)" fill-rule="nonzero">
            <g id="Iress-Logo-Horizontal-" transform="translate(214.000000, 245.000000)">
                <path d="M27,4 L30,4 L30,7.29040938 L27,7.29040938 L27,4 Z M27,8.50509322 L30,8.50509322 L30,20 L27,20 L27,8.50509322 Z" id="Shape" fill="#3A1C46"></path>
                <path d="M40,8.02566037 L40,11.0200308 C39.6077222,10.894533 39.1993633,10.8247096 38.787176,10.8126557 C37.5998181,10.8126557 36.5015916,11.5259003 36.5015916,13.1597645 L36.5015916,20 L33,20 L33,8.25502978 L35.3078672,8.25502978 L35.9859027,9.19764376 C36.9633459,8.42042752 38.1814104,7.99785058 39.4365621,8.000524 C39.6247157,7.99772818 39.8128691,8.00612217 40,8.02566037 Z" id="Path" fill="#3A1C46"></path>
                <path d="M52,12.6920747 L52,15.5565371 L44.6336038,15.5565371 L44.6336038,15.7829379 C44.6336038,17.4399293 45.480012,18.1125694 46.617373,18.1125694 C47.4174932,18.1125694 48.3366396,17.6564866 48.3366396,16.9838465 L48.3366396,16.7344775 L51.9735497,16.7344775 C51.9735497,19.3298839 49.7947099,21 46.5710851,21 C43.0829576,21 41,18.8606764 41,15.612317 L41,13.3154972 C41,10.070419 43.0829576,8 46.5710851,8 C49.7451157,8.00328117 52,10.0244826 52,12.6920747 Z M48.293658,12.9808178 L48.293658,12.6920747 C48.293658,11.4911661 47.7580403,10.8907118 46.594229,10.8907118 C45.3345356,10.8907118 44.6831981,11.6125694 44.6336038,12.9808178 L48.293658,12.9808178 Z" id="Shape" fill="#3A1C46"></path>
                <path d="M53,16.8254169 L53,16.536382 L56.4821429,16.536382 L56.4821429,16.8254169 C56.4821429,17.5217281 57.2283163,17.9092976 58.1179847,17.9092976 C58.9343112,17.9092976 59.5210459,17.5808489 59.5210459,17.0914603 C59.5210459,15.3802425 53.1626276,16.6086407 53.1626276,12.1647297 C53.1626276,9.68822638 55.1492347,8 57.9776786,8 C60.8061224,8 62.7608418,9.71121779 62.7608418,12.0464881 L62.7608418,12.2862557 L59.3105867,12.2862557 L59.3105867,12.0464881 C59.3105867,11.4421425 58.723852,11.0808489 57.9553571,11.0808489 C57.1135204,11.0808489 56.622449,11.4914098 56.622449,11.9249621 C56.622449,13.4653866 63,12.335523 63,16.8845376 C63,19.6763517 60.5669643,21 57.9744898,21 C54.9866071,20.9901465 53,19.2329459 53,16.8254169 Z" id="Path" fill="#3A1C46"></path>
                <path d="M64,16.8254169 L64,16.536382 L67.4853316,16.536382 L67.4853316,16.8254169 C67.4853316,17.5217281 68.2315051,17.9092976 69.1179847,17.9092976 C69.9375,17.9092976 70.5210459,17.5808489 70.5210459,17.0914603 C70.5210459,15.3802425 64.1658163,16.6086407 64.1658163,12.1647297 C64.1658163,9.68822638 66.1524235,8 68.9808673,8 C71.8093112,8 73.7640306,9.71121779 73.7640306,12.0464881 L73.7640306,12.2862557 L70.3105867,12.2862557 L70.3105867,12.0464881 C70.3105867,11.4421425 69.7270408,11.0808489 68.9553571,11.0808489 C68.1135204,11.0808489 67.622449,11.4914098 67.622449,11.9249621 C67.622449,13.4653866 74,12.335523 74,16.8845376 C74,19.6763517 71.5701531,21 68.9776786,21 C65.9897959,20.9901465 64,19.2329459 64,16.8254169 Z" id="Path" fill="#3A1C46"></path>
                <path d="M9.4109576,24.9999867 C9.08704843,25.0015433 8.77789199,24.8664819 8.56133687,24.6287986 L0.292127452,15.3686336 C0.0877590308,15.1445331 -0.016723053,14.8487709 0.0021834257,14.5478756 C0.0210899044,14.2469803 0.161797386,13.966218 0.392655096,13.7687433 L16.0068682,0.268869099 C16.3037872,0.0182764294 16.7104584,-0.0640048614 17.083365,0.0510628043 C17.4562716,0.16613047 17.7429798,0.462367595 17.8423084,0.835230261 L22.9659754,20.7570641 C23.0400106,21.0499809 22.9921304,21.3599519 22.8330195,21.6178051 C22.6751869,21.8740335 22.4190385,22.0563815 22.1228403,22.1233704 L9.67038378,24.9711751 C9.58526699,24.9902884 9.49825067,24.9999867 9.4109576,24.9999867 Z M2.74694766,14.7286775 L9.816311,22.6385351 L20.4819697,20.2003023 L16.1073958,3.15827096 L2.74694766,14.7286775 Z" id="Shape" fill="#21F5A8"></path>
            </g>
        </g>
    </g>
</svg>