<?xml version="1.0" encoding="utf-8"?>
<!-- Generator: Adobe Illustrator 24.0.0, SVG Export Plug-In . SVG Version: 6.00 Build 0)  -->
<svg version="1.1" id="Layer_1" xmlns="http://www.w3.org/2000/svg" xmlns:xlink="http://www.w3.org/1999/xlink" x="0px" y="0px"
	 viewBox="0 0 16 16" style="enable-background:new 0 0 16 16;" xml:space="preserve">
<style type="text/css">
	.st0{fill:#212121;}
</style>
<g>
	<path class="st0" d="M0.7,10.4C0.7,10.4,0.7,10.4,0.7,10.4c-0.1,0.1-0.1,0-0.1,0L0.5,9.5l0.1-0.8c0,0,0-0.1,0.1-0.1
		c0,0,0.1,0,0.1,0.1l0.1,0.8L0.7,10.4z M1.3,10.8C1.3,10.9,1.3,10.9,1.3,10.8c-0.1,0.1-0.1,0-0.1,0L1,9.5l0.1-1.3c0,0,0-0.1,0.1-0.1
		c0,0,0.1,0,0.1,0.1l0.2,1.3L1.3,10.8z M1.9,11.1C1.9,11.1,1.9,11.1,1.9,11.1c-0.1,0.1-0.1,0-0.2,0L1.6,9.5l0.1-1.6
		c0,0,0-0.1,0.1-0.1c0,0,0.1,0,0.1,0.1L2,9.5L1.9,11.1z M2.5,11.1C2.5,11.2,2.5,11.2,2.5,11.1c-0.1,0.1-0.2,0-0.2,0L2.2,9.5l0.1-1.6
		c0,0,0-0.1,0.1-0.1c0,0,0.1,0,0.1,0.1l0.1,1.6L2.5,11.1z M3.1,11.1c0,0.1,0,0.1-0.1,0.1c-0.1,0-0.1,0-0.1-0.1L2.8,9.5L2.9,8
		C2.9,8,3,7.9,3,7.9c0.1,0,0.1,0,0.1,0.1l0.1,1.5L3.1,11.1z M3.7,11.1L3.7,11.1c0,0.1-0.1,0.1-0.1,0.1c-0.1,0-0.1-0.1-0.1-0.1
		L3.4,9.5l0.1-2.5c0-0.1,0.1-0.1,0.1-0.1c0.1,0,0.1,0.1,0.1,0.1l0.1,2.5L3.7,11.1z M4.3,11.1L4.3,11.1c0,0.1-0.1,0.1-0.1,0.1
		c-0.1,0-0.1-0.1-0.1-0.1L4,9.5l0.1-3c0-0.1,0.1-0.1,0.1-0.1c0.1,0,0.1,0.1,0.1,0.1l0.1,3L4.3,11.1z M5,11.1L5,11.1
		c0,0.1-0.1,0.1-0.1,0.1c-0.1,0-0.1-0.1-0.1-0.1L4.6,9.5c0,0,0.1-3.3,0.1-3.3c0-0.1,0.1-0.1,0.1-0.1C4.9,6.1,5,6.2,5,6.2l0.1,3.3
		L5,11.1z M5.6,11.1c0,0.1-0.1,0.2-0.2,0.2c-0.1,0-0.1-0.1-0.2-0.2L5.2,9.5l0.1-3.4C5.3,6,5.4,6,5.5,6C5.5,6,5.6,6,5.6,6.1l0.1,3.4
		L5.6,11.1z M6.2,11.1L6.2,11.1c0,0.1-0.1,0.2-0.2,0.2c-0.1,0-0.2-0.1-0.2-0.2L5.8,9.5l0.1-3.3C5.9,6.1,6,6,6.1,6
		c0.1,0,0.2,0.1,0.2,0.2l0.1,3.3L6.2,11.1z M6.9,11.1L6.9,11.1c0,0.1-0.1,0.2-0.2,0.2c-0.1,0-0.2-0.1-0.2-0.2L6.4,9.5l0.1-3.2
		c0-0.1,0.1-0.2,0.2-0.2c0.1,0,0.2,0.1,0.2,0.2L7,9.5L6.9,11.1z M7.5,10.9l0,0.2c0,0.1,0,0.1-0.1,0.1c0,0-0.1,0.1-0.1,0.1
		c-0.1,0-0.1,0-0.1-0.1c0,0,0-0.1,0-0.1c0,0,0,0,0,0c0,0-0.1-1.5-0.1-1.5l0.1-3.8l0,0c0-0.1,0-0.1,0.1-0.2c0,0,0.1,0,0.1,0
		c0,0,0.1,0,0.1,0c0.1,0,0.1,0.1,0.1,0.2l0.1,3.8L7.5,10.9z M8.2,11L8.2,11c0,0.1-0.1,0.2-0.2,0.2c-0.1,0-0.2-0.1-0.2-0.2l0-0.7
		l0-0.8l0.1-4.1v0c0-0.1,0-0.1,0.1-0.2c0,0,0.1,0,0.1,0c0,0,0.1,0,0.1,0c0.1,0,0.1,0.1,0.1,0.2l0.1,4.2L8.2,11z M13.7,11.2
		c0,0-5.1,0-5.1,0c-0.1,0-0.2-0.1-0.2-0.2V5.2c0-0.1,0-0.2,0.2-0.2c0.4-0.1,0.8-0.2,1.2-0.2c1.7,0,3.1,1.3,3.2,3
		c0.2-0.1,0.5-0.1,0.7-0.1c1,0,1.8,0.8,1.8,1.8C15.5,10.4,14.7,11.2,13.7,11.2L13.7,11.2z"/>
</g>
</svg>
