<?xml version="1.0" encoding="utf-8"?>
<!-- Generator: Adobe Illustrator 24.0.1, SVG Export Plug-In . SVG Version: 6.00 Build 0)  -->
<svg version="1.1" id="Layer_1" xmlns="http://www.w3.org/2000/svg" xmlns:xlink="http://www.w3.org/1999/xlink" x="0px" y="0px"
	 viewBox="0 0 113.3 17" style="enable-background:new 0 0 113.3 17;" xml:space="preserve">
<style type="text/css">
	.st0{fill-rule:evenodd;clip-rule:evenodd;fill:#DD1F26;}
	.st1{fill:#FFFFFF;}
</style>
<g>
	<path class="st0" d="M7.8,0h103.5c1.1,0,2,0.9,2,2v13c0,1.1-0.9,2-2,2H0L7.8,0z"/>
	<path class="st1" d="M14.3,11.1V8.6h2.9V7.5h-2.9V6.2h3V5.1H13v6C13,11.1,14.3,11.1,14.3,11.1z M21.9,11.2c1.8,0,3.1-1.3,3.1-3.1
		S23.8,5,22,5c-1.8,0-3.1,1.3-3.1,3.1S20.1,11.2,21.9,11.2L21.9,11.2z M21.9,10.1c-1.1,0-1.8-0.9-1.8-2c0-1.1,0.7-2,1.8-2
		s1.8,0.8,1.8,2C23.8,9.2,23.1,10.1,21.9,10.1z M28.2,11.1V9h0.9l1.2,2.2h1.5l-1.4-2.3c0.6-0.2,1.3-0.7,1.3-1.8c0-1.1-0.8-1.9-2-1.9
		h-2.8v6C26.9,11.1,28.2,11.1,28.2,11.1z M29.5,7.9h-1.3V6.2h1.3c0.5,0,0.9,0.3,0.9,0.8S30,7.9,29.5,7.9z M39,11.2
		c1.6,0,2.4-0.8,2.4-1.9c0-1.3-1.3-1.6-2.3-1.9c-0.7-0.2-1.2-0.3-1.2-0.7c0-0.4,0.3-0.6,0.9-0.6c0.6,0,1.2,0.2,1.7,0.7l0.7-0.9
		C40.6,5.3,39.8,5,38.9,5c-1.4,0-2.3,0.8-2.3,1.8c0,1.3,1.3,1.6,2.2,1.8c0.7,0.2,1.2,0.3,1.2,0.8c0,0.3-0.3,0.7-1,0.7
		c-0.8,0-1.5-0.4-1.9-0.8l-0.7,1C37,10.8,37.8,11.2,39,11.2z M45.8,11.2c1.8,0,2.7-1,2.7-2.5V5.1h-1.3v3.6c0,0.8-0.5,1.4-1.4,1.4
		c-0.9,0-1.4-0.6-1.4-1.4V5.1h-1.3v3.6C43.1,10.2,44,11.2,45.8,11.2z M53.9,11.1c1.1,0,1.8-0.7,1.8-1.6c0-0.8-0.5-1.4-1.2-1.5
		c0.6-0.1,1-0.6,1-1.4c0-0.8-0.6-1.5-1.7-1.5h-3.2v6C50.6,11.1,53.9,11.1,53.9,11.1z M53.5,7.5h-1.6V6.2h1.6c0.4,0,0.7,0.3,0.7,0.7
		C54.2,7.2,53.9,7.5,53.5,7.5L53.5,7.5z M53.6,10h-1.7V8.6h1.7c0.5,0,0.8,0.3,0.8,0.7C54.3,9.7,54,10,53.6,10z M59.6,11.2
		c1.6,0,2.4-0.8,2.4-1.9c0-1.3-1.3-1.6-2.3-1.9c-0.7-0.2-1.2-0.3-1.2-0.7c0-0.4,0.3-0.6,0.9-0.6c0.6,0,1.2,0.2,1.7,0.7l0.7-0.9
		C61.3,5.3,60.5,5,59.6,5c-1.4,0-2.3,0.8-2.3,1.8c0,1.3,1.3,1.6,2.2,1.8c0.7,0.2,1.2,0.3,1.2,0.8c0,0.3-0.3,0.7-1,0.7
		c-0.8,0-1.5-0.4-1.9-0.8l-0.7,1C57.7,10.8,58.5,11.2,59.6,11.2z M66.7,11.2c1.4,0,2.1-0.7,2.6-1.5l-1.1-0.5
		c-0.3,0.5-0.8,0.9-1.5,0.9c-1,0-1.8-0.8-1.8-2s0.8-2,1.8-2c0.7,0,1.2,0.4,1.5,0.9l1.1-0.5C68.8,5.7,68.1,5,66.7,5
		c-1.8,0-3.2,1.3-3.2,3.1S64.9,11.2,66.7,11.2L66.7,11.2z M72.2,11.1V9h0.9l1.2,2.2h1.5l-1.4-2.3c0.7-0.2,1.3-0.7,1.3-1.8
		c0-1.1-0.8-1.9-2-1.9h-2.8v6C70.9,11.1,72.2,11.1,72.2,11.1z M73.6,7.9h-1.3V6.2h1.3c0.5,0,0.9,0.3,0.9,0.8S74.1,7.9,73.6,7.9z
		 M78.9,11.1v-6h-1.3v6C77.6,11.1,78.9,11.1,78.9,11.1z M84.3,11.1c1.1,0,1.8-0.7,1.8-1.6c0-0.8-0.5-1.4-1.2-1.5
		c0.6-0.1,1-0.6,1-1.4c0-0.8-0.6-1.5-1.7-1.5H81v6H84.3z M83.9,7.5h-1.6V6.2h1.6c0.4,0,0.7,0.3,0.7,0.7C84.6,7.2,84.3,7.5,83.9,7.5z
		 M83.9,10h-1.7V8.6h1.7c0.5,0,0.8,0.3,0.8,0.7C84.7,9.7,84.4,10,83.9,10z M92.2,11.1V10h-3V8.6h2.9V7.5h-2.9V6.2h3V5.1h-4.3v6
		L92.2,11.1L92.2,11.1z M95.3,11.1V9h0.9l1.2,2.2h1.5l-1.4-2.3c0.7-0.2,1.3-0.7,1.3-1.8c0-1.1-0.8-1.9-2-1.9h-2.8v6
		C94.1,11.1,95.3,11.1,95.3,11.1z M96.7,7.9h-1.3V6.2h1.3c0.5,0,0.9,0.3,0.9,0.8S97.2,7.9,96.7,7.9z M102.9,11.2
		c1.6,0,2.4-0.8,2.4-1.9c0-1.3-1.3-1.6-2.3-1.9c-0.7-0.2-1.2-0.3-1.2-0.7c0-0.4,0.3-0.6,0.9-0.6c0.6,0,1.2,0.2,1.7,0.7l0.7-0.9
		c-0.6-0.5-1.4-0.8-2.3-0.8c-1.4,0-2.3,0.8-2.3,1.8c0,1.3,1.3,1.6,2.2,1.8c0.7,0.2,1.2,0.3,1.2,0.8c0,0.3-0.3,0.7-1,0.7
		c-0.8,0-1.5-0.4-1.9-0.8l-0.7,1C100.9,10.8,101.8,11.2,102.9,11.2z"/>
</g>
</svg>
