<?xml version="1.0" encoding="utf-8"?>
<!-- Generator: Adobe Illustrator 22.1.0, SVG Export Plug-In . SVG Version: 6.00 Build 0)  -->
<svg version="1.1" id="Layer_1" xmlns="http://www.w3.org/2000/svg" xmlns:xlink="http://www.w3.org/1999/xlink" x="0px" y="0px"
	 viewBox="0 0 16 16" style="enable-background:new 0 0 16 16;" xml:space="preserve">
<style type="text/css">
	.st0{fill:#212121;}
</style>
<g transform="translate(0 2)">
	<g>
		<path id="a_1_" class="st0" d="M13.7,3.1c0,0.1,0,0.3,0,0.4c0,3.9-2.9,8.3-8.3,8.3c-1.6,0-3.2-0.5-4.5-1.3
			c1.6,0.2,3.1-0.2,4.3-1.2c-1.3,0-2.4-0.8-2.7-2c0.4,0.1,0.9,0.1,1.3-0.1C2.4,6.9,1.4,5.7,1.4,4.3c0,0,0,0,0,0
			c0.4,0.2,0.8,0.3,1.3,0.4C1.5,3.8,1.1,2.1,1.8,0.7c1.5,1.8,3.7,2.9,6,3.1c-0.4-1.6,0.6-3.2,2.2-3.5c1-0.2,2.1,0.1,2.8,0.9
			c0.7-0.1,1.3-0.4,1.9-0.7c-0.2,0.7-0.7,1.3-1.3,1.6C14,2,14.6,1.8,15.1,1.6C14.8,2.2,14.3,2.7,13.7,3.1"/>
	</g>
</g>
</svg>
