<?xml version="1.0" encoding="utf-8"?>
<!-- Generator: Adobe Illustrator 24.0.0, SVG Export Plug-In . SVG Version: 6.00 Build 0)  -->
<svg version="1.1" id="Layer_1" xmlns="http://www.w3.org/2000/svg" xmlns:xlink="http://www.w3.org/1999/xlink" x="0px" y="0px"
	 viewBox="0 0 16 16" style="enable-background:new 0 0 16 16;" xml:space="preserve">
<style type="text/css">
	.st0{fill:#212121;}
</style>
<path class="st0" d="M14.4,2.7c-0.3-0.4-0.8-0.6-1.5-0.6c-1.8-0.1-3,0.9-3.7,2.8c0,0.1,0,0.2,0.1,0.3c0.1,0.1,0.2,0.1,0.3,0.1
	c0.2-0.1,0.4-0.1,0.6-0.1c0.3,0,0.6,0,0.8,0.3c0.1,0.2,0.1,0.4,0.1,0.8c-0.1,0.3-0.5,1.1-1,1.9c-0.6,1-1,1.4-1.1,1.4
	c-0.3,0-1.5-5.3-1.6-5.4C7,2.9,6.8,2.3,5.7,2.3c-0.9,0-2.8,1.6-4.3,2.9C1.3,5.3,1.2,5.3,1.1,5.4C1,5.5,1,5.8,1.1,5.9l0.3,0.4
	c0.1,0.2,0.3,0.2,0.5,0.1l0,0c0.5-0.4,1-0.7,1.3-0.7c0.4,0,0.7,0.6,1.1,2.1c0.8,2.8,1.9,6.2,3.2,6.2c1.3,0,2.8-1.1,4.7-3.6
	C14,8,14.9,6.2,15,4.9l0,0C15,3.9,14.8,3.1,14.4,2.7z"/>
</svg>
