<?xml version="1.0" encoding="utf-8"?>
<!-- Generator: Adobe Illustrator 22.1.0, SVG Export Plug-In . SVG Version: 6.00 Build 0)  -->
<svg version="1.1" id="Layer_1" xmlns="http://www.w3.org/2000/svg" xmlns:xlink="http://www.w3.org/1999/xlink" x="0px" y="0px"
	 viewBox="0 0 16 16" style="enable-background:new 0 0 16 16;" xml:space="preserve">
<style type="text/css">
	.st0{fill:#212121;}
</style>
<g transform="translate(0 2)">
	<g>
		<path id="a_1_" class="st0" d="M8.3,0.3c5.5,0,5.9,0.4,6.7,1.1l0.1,0.1c0.8,0.8,0.8,2.8,0.8,4.4v0.2c0,1.6-0.1,3.4-0.8,4.2
			c-0.8,0.8-1.1,1.2-7.1,1.2H7.7c-5.7,0-5.9-0.4-6.7-1.2C0.1,9.6,0.1,7.6,0.1,6V5.8c0-1.6,0.1-3.4,0.8-4.2C1.7,0.8,2,0.3,8,0.3H8.3z
			 M6,3.2v5.6L11,6C11,6,6,3.2,6,3.2z"/>
	</g>
</g>
</svg>
