<svg width="16" height="16" viewBox="0 0 16 16" fill="none" xmlns="http://www.w3.org/2000/svg">
<g opacity="0.4">
<path d="M4.66634 5.99992C5.10837 5.99992 5.53229 5.82432 5.84485 5.51176C6.15741 5.1992 6.33301 4.77528 6.33301 4.33325C6.33301 3.89122 6.15741 3.4673 5.84485 3.15474C5.53229 2.84218 5.10837 2.66659 4.66634 2.66659C4.22431 2.66659 3.80039 2.84218 3.48783 3.15474C3.17527 3.4673 2.99967 3.89122 2.99967 4.33325C2.99967 4.77528 3.17527 5.1992 3.48783 5.51176C3.80039 5.82432 4.22431 5.99992 4.66634 5.99992ZM4.66634 7.33325C4.27238 7.33325 3.88227 7.25565 3.51829 7.10489C3.15431 6.95413 2.8236 6.73315 2.54502 6.45457C2.26644 6.176 2.04547 5.84528 1.8947 5.4813C1.74394 5.11733 1.66634 4.72722 1.66634 4.33325C1.66634 3.93929 1.74394 3.54918 1.8947 3.1852C2.04547 2.82122 2.26644 2.49051 2.54502 2.21193C2.8236 1.93336 3.15431 1.71238 3.51829 1.56161C3.88227 1.41085 4.27238 1.33325 4.66634 1.33325C5.46199 1.33325 6.22505 1.64932 6.78766 2.21193C7.35027 2.77454 7.66634 3.5376 7.66634 4.33325C7.66634 5.1289 7.35027 5.89196 6.78766 6.45457C6.22505 7.01718 5.46199 7.33325 4.66634 7.33325ZM11.6663 8.66658C12.02 8.66658 12.3591 8.52611 12.6091 8.27606C12.8592 8.02601 12.9997 7.68687 12.9997 7.33325C12.9997 6.97963 12.8592 6.64049 12.6091 6.39044C12.3591 6.14039 12.02 5.99992 11.6663 5.99992C11.3127 5.99992 10.9736 6.14039 10.7235 6.39044C10.4735 6.64049 10.333 6.97963 10.333 7.33325C10.333 7.68687 10.4735 8.02601 10.7235 8.27606C10.9736 8.52611 11.3127 8.66658 11.6663 8.66658ZM11.6663 9.99992C10.9591 9.99992 10.2808 9.71897 9.78072 9.21887C9.28063 8.71877 8.99967 8.0405 8.99967 7.33325C8.99967 6.62601 9.28063 5.94773 9.78072 5.44763C10.2808 4.94754 10.9591 4.66659 11.6663 4.66658C12.3736 4.66659 13.0519 4.94754 13.552 5.44763C14.0521 5.94773 14.333 6.62601 14.333 7.33325C14.333 8.0405 14.0521 8.71877 13.552 9.21887C13.0519 9.71897 12.3736 9.99992 11.6663 9.99992ZM13.333 13.9999V13.6666C13.333 13.2246 13.1574 12.8006 12.8449 12.4881C12.5323 12.1755 12.1084 11.9999 11.6663 11.9999C11.2243 11.9999 10.8004 12.1755 10.4878 12.4881C10.1753 12.8006 9.99967 13.2246 9.99967 13.6666V13.9999H8.66634V13.6666C8.66634 13.2726 8.74394 12.8825 8.8947 12.5185C9.04547 12.1546 9.26645 11.8238 9.54502 11.5453C9.8236 11.2667 10.1543 11.0457 10.5183 10.8949C10.8823 10.7442 11.2724 10.6666 11.6663 10.6666C12.0603 10.6666 12.4504 10.7442 12.8144 10.8949C13.1784 11.0457 13.5091 11.2667 13.7877 11.5453C14.0662 11.8238 14.2872 12.1546 14.438 12.5185C14.5887 12.8825 14.6663 13.2726 14.6663 13.6666V13.9999H13.333ZM6.66634 13.9999V11.3333C6.66634 10.8028 6.45563 10.2941 6.08055 9.91904C5.70548 9.54397 5.19677 9.33325 4.66634 9.33325C4.13591 9.33325 3.6272 9.54397 3.25213 9.91904C2.87705 10.2941 2.66634 10.8028 2.66634 11.3333V13.9999H1.33301V11.3333C1.33301 10.4492 1.6842 9.60135 2.30932 8.97623C2.93444 8.35111 3.78229 7.99992 4.66634 7.99992C5.5504 7.99992 6.39824 8.35111 7.02336 8.97623C7.64849 9.60135 7.99967 10.4492 7.99967 11.3333V13.9999H6.66634Z" fill="#989898"/>
</g>
</svg>
