<svg width="24" height="24" viewBox="0 0 24 24" fill="none" xmlns="http://www.w3.org/2000/svg">
<path fill-rule="evenodd" clip-rule="evenodd" d="M16.8538 16.652V14.6011C17.9722 13.9536 18.7264 12.7467 18.7264 11.3615C18.7264 9.2937 17.05 7.6168 14.9817 7.6168C14.2322 7.6168 13.5384 7.84151 12.9528 8.22118C12.3765 5.73205 10.1565 3.87211 7.49231 3.87211C4.38991 3.87211 1.87504 6.38698 1.87504 9.48891C1.87504 11.1508 2.60113 12.6386 3.74762 13.6671V15.9685C1.51129 14.6727 0.00292969 12.2599 0.00292969 9.48891C0.00292969 5.35285 3.35578 2 7.49231 2C10.3031 2 12.7491 3.55003 14.03 5.84019C14.3408 5.78729 14.6559 5.74422 14.9817 5.74422C18.0836 5.74422 20.5985 8.2591 20.5985 11.3615C20.5985 13.8066 19.034 15.8805 16.8538 16.652Z" fill="#DEDEDE"/>
<path d="M20.1309 18.8512C20.1309 19.3685 20.5499 19.7875 21.0668 19.7875C21.5841 19.7875 22.003 19.3685 22.003 18.8512C22.003 18.3344 21.5836 17.9149 21.0668 17.9149C20.5499 17.9149 20.1309 18.3344 20.1309 18.8512Z" fill="#5DB3FB"/>
<path d="M2.3433 21.1919C2.3433 20.6746 1.92431 20.2556 1.40748 20.2556C0.890181 20.2556 0.471191 20.6742 0.471191 21.1919C0.471191 21.7088 0.890649 22.1282 1.40748 22.1282C1.92431 22.1282 2.3433 21.7088 2.3433 21.1919Z" fill="#5DB3FB"/>
<path d="M6.55614 11.3618C6.03931 11.3618 6.08799 11.7813 6.08799 12.2981V21.4527C5.59082 21.0047 4.93823 20.7238 4.21588 20.7238V21.6601C5.25001 21.6601 6.08799 22.4985 6.08799 23.5326H7.02428V12.2981C7.02428 11.7813 7.07297 11.3618 6.55614 11.3618Z" fill="#5DB3FB"/>
<path d="M9.83268 17.9149C9.83268 18.4322 9.784 18.8512 10.3008 18.8512C10.8177 18.8512 10.769 18.4322 10.769 17.9149V14.1707C10.769 13.6534 10.8177 13.2344 10.3008 13.2344C9.784 13.2344 9.83268 13.6534 9.83268 14.1707V17.9149Z" fill="#5DB3FB"/>
<path d="M11.2371 21.6601C11.2371 21.1428 10.8177 20.7238 10.3008 20.7238C9.784 20.7238 9.36454 21.1423 9.36454 21.6601C9.36454 22.1769 9.784 22.5964 10.3008 22.5964C10.8177 22.5964 11.2371 22.1769 11.2371 21.6601Z" fill="#5DB3FB"/>
<path d="M14.5137 12.2981C14.5137 11.7813 14.5624 11.3618 14.0455 11.3618C13.5287 11.3618 13.5774 11.7813 13.5774 12.2981V22.5964C13.5774 22.8066 13.5713 22.9985 13.5966 23.1549C13.5867 23.2794 13.5774 23.4048 13.5774 23.5326H14.5137C14.5137 21.4644 16.1901 19.7875 18.2584 19.7875V18.8512C16.7247 18.8512 15.3671 19.5927 14.5137 20.7322V12.2981Z" fill="#5DB3FB"/>
</svg>
