<svg width="24" height="24" viewBox="0 0 24 24" fill="none" xmlns="http://www.w3.org/2000/svg">
<path fill-rule="evenodd" clip-rule="evenodd" d="M8.99991 17.9998C4.58191 17.9998 1 14.4184 1 9.99991C1 5.58141 4.58191 2 8.99991 2C12.0022 2 14.615 3.65619 15.9832 6.10197C16.3152 6.04546 16.6523 5.99945 16.9998 5.99945C20.3137 5.99945 23 8.68626 23 12.0001C23 15.313 20.3137 17.9998 16.9998 17.9998C15.6122 17.9998 10.5991 17.9998 8.99991 17.9998ZM16.9998 15.9996C19.2091 15.9996 21.0003 14.2084 21.0003 12.0001C21.0003 9.79088 19.2091 7.99968 16.9998 7.99968C16.1997 7.99968 15.4586 8.24021 14.8331 8.64525C14.2175 5.98695 11.8457 3.99973 8.99991 3.99973C5.68653 3.99973 3.00023 6.68603 3.00023 9.99991C3.00023 13.3133 5.68653 15.9996 8.99991 15.9996C10.8086 15.9996 15.4901 15.9996 16.9998 15.9996Z" fill="#DEDEDE"/>
<path fill-rule="evenodd" clip-rule="evenodd" d="M9.27264 20C5.25628 20 2 17.3139 2 14C2 10.6861 5.25628 8 9.27264 8C12.002 8 14.3773 9.24216 15.6211 11.0765C15.9229 11.0341 16.2293 10.9996 16.5453 10.9996C19.5579 10.9996 22 13.0148 22 15.5002C22 17.9849 19.5579 20 16.5453 20C15.2838 20 10.7264 20 9.27264 20Z" fill="#DEDEDE"/>
</svg>
