<?xml version="1.0" encoding="UTF-8"?>
<!DOCTYPE svg PUBLIC "-//W3C//DTD SVG 1.1//EN" "http://www.w3.org/Graphics/SVG/1.1/DTD/svg11.dtd">
<!-- Creator: CorelDRAW X8 -->
<svg xmlns="http://www.w3.org/2000/svg" xml:space="preserve" width="1500px" height="1500px" version="1.1" style="shape-rendering:geometricPrecision; text-rendering:geometricPrecision; image-rendering:optimizeQuality; fill-rule:evenodd; clip-rule:evenodd"
viewBox="0 0 150000 150000"
 xmlns:xlink="http://www.w3.org/1999/xlink">
 <defs>
  <style>
   <![CDATA[
    .fil0 {fill:#4C75A3}
    .fil1 {fill:white}
   ]]>
  </style>
 </defs>
 <g id="Слой_x0020_1">
  <metadata id="CorelCorpID_0Corel-Layer"/>
  <g id="_2435746068320">
  </g>
  <g id="_2435746067136">
  </g>
  <g id="_2435746066912">
  </g>
  <g id="_2435746068608">
  </g>
  <g id="_2435746068224">
  </g>
  <g id="_2435746066624">
  </g>
  <g id="_2435746066208">
  </g>
  <g id="_2435746065920">
  </g>
  <g id="_2435746065824">
  </g>
  <g id="_2435746065600">
  </g>
  <g id="_2435746065408">
  </g>
  <g id="_2435746064320">
  </g>
  <g id="_2435746063744">
  </g>
  <g id="_2435746063712">
  </g>
  <g id="_2435746062976">
  </g>
  <path class="fil0" d="M129786 0l-109573 0c-11163,0 -20212,9050 -20212,20213l0 109573c0,11164 9049,20213 20212,20213 74628,0 92841,1 109574,1 11163,0 20212,-9049 20212,-20212l0 -109575c0,-11163 -9049,-20213 -20213,-20213z"/>
  <g id="_2435746057792">
  </g>
  <g id="_2435746057440">
  </g>
  <g id="_2435746058144">
  </g>
  <g id="_2435746057120">
  </g>
  <g id="_2435741730624">
  </g>
  <g id="_2435741731808">
  </g>
  <g id="_2435741730432">
  </g>
  <g id="_2435741731936">
  </g>
  <g id="_2435741731136">
  </g>
  <g id="_2435741731552">
  </g>
  <g id="_2435741730016">
  </g>
  <g id="_2435741729056">
  </g>
  <g id="_2435741729824">
  </g>
  <g id="_2435741726592">
  </g>
  <g id="_2435741727968">
  </g>
  <g id="_2435741727904">
   <path class="fil1" d="M117075 91097c-2732,-3276 -5947,-6073 -8989,-9042 -2744,-2677 -2917,-4229 -711,-7319 2408,-3371 4997,-6614 7426,-9970 2268,-3137 4586,-6265 5779,-10021 757,-2390 88,-3445 -2363,-3863 -422,-74 -858,-77 -1288,-77l-14537 -18c-1791,-26 -2781,754 -3414,2341 -855,2146 -1736,4289 -2755,6359 -2310,4693 -4891,9229 -8509,13071 -797,847 -1680,1918 -3013,1477 -1667,-609 -2159,-3357 -2131,-4286l-15 -16779c-323,-2397 -855,-3466 -3234,-3932l-15102 3c-2015,0 -3026,778 -4103,2039 -620,729 -808,1201 468,1443 2507,475 3919,2097 4293,4610 601,4016 559,8047 213,12079 -101,1177 -304,2351 -771,3450 -730,1728 -1909,2080 -3458,1017 -1402,-962 -2387,-2320 -3352,-3684 -3621,-5117 -6511,-10636 -8867,-16435 -681,-1675 -1855,-2691 -3630,-2718 -4362,-70 -8724,-81 -13086,3 -2624,50 -3407,1324 -2338,3703 4750,10567 10038,20840 16940,30198 3544,4802 7613,9042 12869,12047 5957,3406 12369,4431 19123,4115 3162,-148 4112,-971 4259,-4123 99,-2156 343,-4300 1407,-6238 1044,-1902 2625,-2264 4448,-1081 912,592 1680,1346 2406,2141 1780,1947 3496,3954 5343,5835 2318,2358 5063,3751 8514,3467l13361 3c2153,-141 3269,-2780 2033,-5183 -868,-1683 -2007,-3182 -3216,-4632z"/>
  </g>
  <g id="_2435741727584">
  </g>
  <g id="_2435741726784">
  </g>
  <g id="_2435741724064">
  </g>
  <g id="_2435741725952">
  </g>
  <g id="_2435741724768">
  </g>
  <g id="_2435741725056">
  </g>
  <g id="_2435741725888">
  </g>
  <g id="_2435741725184">
  </g>
  <g id="_2435741725024">
  </g>
  <g id="_2435741723552">
  </g>
  <g id="_2435741735168">
  </g>
  <g id="_2435741732256">
  </g>
  <g id="_2435741732608">
  </g>
  <g id="_2435741733728">
  </g>
  <g id="_2435741734112">
  </g>
 </g>
</svg>
