<svg id="Logo_3" data-name="Logo 3" xmlns="http://www.w3.org/2000/svg" viewBox="0 0 331.65 385.34"><defs><style>.cls-1{fill:#ffa400;}.cls-2{fill:#323232;}</style></defs><path class="cls-1" d="M1076,916.4c14.71,14.33,23.23,31.37,23.23,49.65,0,51-66.23,92.25-147.94,92.25S803.34,1017,803.34,966.05c0-18.28,8.52-35.32,23.23-49.65-25.59,18.19-41.12,42-41.12,68.15,0,57.11,74.25,119.24,165.83,119.24s165.83-62.13,165.83-119.24C1117.11,958.44,1101.59,934.59,1076,916.4Z" transform="translate(-785.45 -718.44)"/><path class="cls-2" d="M898.27,1033V817l-61.16,47.57v141C853.21,1017.73,874.23,1027.28,898.27,1033Z" transform="translate(-785.45 -718.44)"/><path class="cls-2" d="M951.28,1039.14a234.27,234.27,0,0,0,30.58-2V718.44L920.7,766v271.14A234.27,234.27,0,0,0,951.28,1039.14Z" transform="translate(-785.45 -718.44)"/><path class="cls-2" d="M1065.46,1005.56v-141L1004.29,817v216C1028.33,1027.28,1049.35,1017.73,1065.46,1005.56Z" transform="translate(-785.45 -718.44)"/></svg>