<svg width="25" height="26" viewBox="0 0 25 26" fill="none" xmlns="http://www.w3.org/2000/svg">
<path fill-rule="evenodd" clip-rule="evenodd" d="M12.5086 6.19788H12.4913C12.3355 6.19988 12.1788 6.2399 12.0355 6.3219C11.9923 6.3469 11.9509 6.37486 11.9115 6.40686L1.70669 14.2899C1.28073 14.6189 1.19131 15.2459 1.50765 15.6889C1.824 16.1319 2.4269 16.2249 2.85286 15.8959L12.5 8.44385L22.1471 15.8959C22.573 16.2249 23.1759 16.1319 23.4923 15.6889C23.8086 15.2459 23.7192 14.6189 23.2932 14.2899L13.0884 6.40686C13.049 6.37486 13.0067 6.3469 12.9644 6.3219C12.8211 6.2399 12.6644 6.19988 12.5086 6.19788Z" fill="white"/>
</svg>
