<svg width="120" height="35" viewBox="0 0 120 35" fill="none" xmlns="http://www.w3.org/2000/svg">
<path d="M15.4866 35C15.4866 35 0 30.5275 0 8.44917V0H30.9785V8.44917C30.9785 29.7373 15.4919 35 15.4919 35" fill="#51AF3D"/>
<path d="M39.5823 16.9499V5.00439H47.0617V5.88236C47.0617 6.78099 46.3174 7.50919 45.399 7.50919H42.5698V10.014H46.291V10.861C46.291 11.7751 45.531 12.5188 44.5967 12.5188H42.5698V16.9448H39.5823V16.9499Z" fill="#1D1D1B"/>
<path d="M51.7383 10.4168H53.0367C53.5276 10.4168 53.9077 10.2877 54.1821 10.0346C54.4566 9.78158 54.5938 9.4149 54.5938 8.95009C54.5938 8.2942 54.3563 7.87071 53.876 7.67962C53.6121 7.57116 53.2373 7.51436 52.7464 7.51436H51.7383V10.422V10.4168ZM48.7507 16.9499V5.00439H53.0051C54.0871 5.00439 54.8789 5.09736 55.3803 5.28844C56.0876 5.55183 56.6366 5.98565 57.0377 6.58474C57.4336 7.17866 57.6342 7.90686 57.6342 8.76417C57.6342 9.43039 57.4758 10.0708 57.1591 10.675C56.8424 11.2845 56.3885 11.7286 55.8079 12.023V12.054C55.924 12.1986 56.0771 12.4361 56.2671 12.7718L58.6423 16.9499H55.3117L53.1423 12.9216H51.7435V16.9499H48.756H48.7507Z" fill="#1D1D1B"/>
<path d="M59.9883 16.9499V5.00439H67.6366V7.51436H62.9758V9.68346H66.697V12.1883H62.9758V14.4451H67.8794V16.9499H59.9883Z" fill="#1D1D1B"/>
<path d="M69.79 16.9499V5.00439H77.4383V7.51436H72.7776V9.68346H76.4988V12.1883H72.7776V14.4451H77.6811V16.9499H69.79Z" fill="#1D1D1B"/>
<path d="M82.5796 14.4451H83.8094C84.8545 14.4451 85.6727 14.1456 86.2586 13.5414C86.8445 12.9423 87.1401 12.0746 87.1401 10.9539C87.1401 9.83323 86.8445 8.98625 86.2533 8.39749C85.6621 7.80873 84.844 7.51436 83.8094 7.51436H82.5796V14.4451V14.4451ZM79.592 16.9499V5.00439H83.9308C85.868 5.00439 87.3987 5.53118 88.5335 6.58474C89.6684 7.6383 90.2332 9.0947 90.2332 10.9539C90.2332 12.8132 89.6684 14.2902 88.5335 15.3541C87.3987 16.418 85.868 16.9499 83.9308 16.9499H79.592Z" fill="#1D1D1B"/>
<path d="M94.5983 10.9023C94.5983 11.9249 94.9097 12.777 95.5273 13.4587C96.1502 14.1353 96.9366 14.4761 97.892 14.4761C98.8474 14.4761 99.6339 14.1353 100.257 13.4587C100.88 12.777 101.186 11.9249 101.186 10.9023C101.186 9.87971 100.874 9.10503 100.257 8.4543C99.6339 7.80357 98.8474 7.4782 97.892 7.4782C96.9366 7.4782 96.1449 7.80357 95.5273 8.4543C94.9045 9.10503 94.5983 9.92102 94.5983 10.9023ZM91.5105 10.9023C91.5105 9.16184 92.107 7.71577 93.3051 6.54859C94.498 5.38657 96.0288 4.80298 97.8973 4.80298C99.7658 4.80298 101.297 5.38657 102.489 6.54859C103.682 7.71577 104.284 9.16184 104.284 10.9023C104.284 12.6427 103.688 14.1714 102.489 15.3644C101.291 16.5574 99.7605 17.1514 97.8973 17.1514C96.034 17.1514 94.498 16.5574 93.3051 15.3644C92.1122 14.1714 91.5105 12.684 91.5105 10.9023Z" fill="#1D1D1B"/>
<path d="M105.698 16.9499L106.707 5.00439H109.953L111.726 10.0501L112.339 12.023H112.376C112.603 11.2225 112.808 10.5614 112.988 10.0501L114.761 5.00439H118.008L119 16.9499H116.012L115.638 11.5685C115.616 11.3 115.606 11.0004 115.606 10.6647C115.606 10.329 115.606 10.0656 115.622 9.86422L115.638 9.56467H115.606C115.331 10.4013 115.104 11.0675 114.925 11.5685L113.642 15.0287H111.082L109.8 11.5685L109.114 9.56467H109.082C109.129 10.298 109.129 10.9694 109.082 11.5685L108.707 16.9499H105.698Z" fill="#1D1D1B"/>
<path d="M24.428 8.5163H11.9553V15.5297H24.4333V17.6265C24.4333 21.1797 23.4093 24.046 17.8882 24.0564H11.9553V33.3215C14.0033 34.5662 15.4865 34.9948 15.4865 34.9948C15.4865 34.9948 30.9732 29.7322 30.9732 8.444V2.0813C30.9732 5.63449 29.3685 8.44916 24.428 8.5163" fill="#0F5431"/>
<path d="M39.6667 28.9782V20.5962H42.8179C43.6941 20.5962 44.4014 20.7873 44.9345 21.1643C45.4676 21.5413 45.7316 22.0836 45.7316 22.7859C45.7316 23.1475 45.6418 23.4883 45.4676 23.8137C45.2934 24.1391 45.0506 24.3921 44.7392 24.5677V24.5884C45.1932 24.7226 45.531 24.9654 45.7527 25.3217C45.9744 25.6781 46.0799 26.0603 46.0799 26.4734C46.0799 27.3256 45.7738 27.9556 45.1562 28.3585C44.5386 28.7665 43.7627 28.9679 42.8179 28.9679H39.6667V28.9782ZM41.7622 23.8447H42.839C43.0871 23.8447 43.2718 23.7724 43.4038 23.6226C43.5305 23.4728 43.5938 23.2921 43.5938 23.07C43.5938 22.8479 43.5305 22.6878 43.3932 22.5535C43.2613 22.4193 43.066 22.3521 42.8021 22.3521H41.7622V23.8395V23.8447ZM41.7622 27.2223H43.0185C43.3035 27.2223 43.5305 27.1396 43.6888 26.9692C43.8472 26.7988 43.9264 26.5922 43.9264 26.3443C43.9264 26.0964 43.8525 25.8898 43.6994 25.7297C43.5463 25.5696 43.3246 25.487 43.029 25.487H41.757V27.2223H41.7622Z" fill="#070707"/>
<path d="M47.4153 28.9782V20.5962H50.3975C51.1576 20.5962 51.7118 20.6633 52.0602 20.7976C52.5564 20.9835 52.9417 21.2882 53.2214 21.7066C53.5012 22.1249 53.6384 22.6362 53.6384 23.2353C53.6384 23.7052 53.5276 24.1494 53.3059 24.578C53.0842 25.0067 52.7675 25.3166 52.3611 25.5231V25.5438C52.4403 25.6471 52.5511 25.8124 52.6831 26.0499L54.3457 28.9782H52.0127L50.4926 26.1532H49.5108V28.9782H47.4153V28.9782ZM49.5108 24.3973H50.4187C50.7617 24.3973 51.0309 24.3095 51.221 24.1287C51.411 23.948 51.506 23.6949 51.506 23.3644C51.506 22.9047 51.3371 22.6052 51.0045 22.4761C50.8198 22.3986 50.5559 22.3573 50.2128 22.3573H49.5055V24.3973H49.5108Z" fill="#070707"/>
<path d="M54.8313 24.733C54.8313 23.5142 55.2483 22.4968 56.0875 21.6808C56.9268 20.8648 57.9983 20.4568 59.3073 20.4568C60.6164 20.4568 61.6931 20.8648 62.5271 21.6808C63.3664 22.4968 63.7834 23.5142 63.7834 24.733C63.7834 25.9518 63.3664 27.0261 62.5271 27.8627C61.6879 28.6994 60.6164 29.1177 59.3073 29.1177C57.9983 29.1177 56.9215 28.6994 56.0875 27.8627C55.2483 27.0261 54.8313 25.9828 54.8313 24.733ZM57.0007 24.733C57.0007 25.4509 57.2171 26.05 57.6552 26.5251C58.088 27.0002 58.6423 27.2378 59.3126 27.2378C59.983 27.2378 60.5372 27.0002 60.97 26.5251C61.4028 26.05 61.6245 25.4509 61.6245 24.733C61.6245 24.0151 61.4081 23.4729 60.97 23.0184C60.5319 22.5587 59.983 22.3315 59.3126 22.3315C58.6423 22.3315 58.088 22.5587 57.6552 23.0184C57.2171 23.4729 57.0007 24.0461 57.0007 24.733Z" fill="#070707"/>
<path d="M65.1189 28.9782V20.5962H67.2144V23.8292H68.0748L69.8483 20.5962H72.1021L69.7902 24.6039V24.6297L72.2341 28.9782H69.8852L68.0748 25.58H67.2144V28.9782H65.1189V28.9782Z" fill="#070707"/>
<path d="M73.2053 28.9782V20.5962H78.5734V22.3521H75.3008V23.8757H77.9136V25.6316H75.3008V27.2119H78.737V28.9679H73.2053V28.9782Z" fill="#070707"/>
<path d="M80.0776 28.9782V20.5962H83.0599C83.82 20.5962 84.3742 20.6633 84.7226 20.7976C85.2187 20.9835 85.6041 21.2882 85.8838 21.7066C86.1636 22.1249 86.3008 22.6362 86.3008 23.2353C86.3008 23.7052 86.1899 24.1494 85.9682 24.578C85.7466 25.0067 85.4299 25.3166 85.0234 25.5231V25.5438C85.1026 25.6471 85.2135 25.8124 85.3454 26.0499L87.0081 28.9782H84.6751L83.1549 26.1532H82.1731V28.9782H80.0776V28.9782ZM82.1731 24.3973H83.081C83.4241 24.3973 83.6933 24.3095 83.8833 24.1287C84.0733 23.948 84.1683 23.6949 84.1683 23.3644C84.1683 22.9047 83.9994 22.6052 83.6669 22.4761C83.4822 22.3986 83.2182 22.3573 82.8751 22.3573H82.1679V24.3973H82.1731Z" fill="#070707"/>
</svg>
