<svg width="16" height="16" fill="none" xmlns="http://www.w3.org/2000/svg"><path d="M15.68 8.327c0-.517-.046-1.008-.125-1.485h-7.39v2.95h4.23a3.643 3.643 0 01-1.569 2.341v1.963h2.525c1.478-1.367 2.328-3.382 2.328-5.77z" fill="#4285F4"/><path d="M8.165 16c2.12 0 3.892-.707 5.187-1.904l-2.525-1.962c-.706.47-1.602.759-2.662.759-2.047 0-3.78-1.38-4.402-3.245H1.16v2.021A7.837 7.837 0 008.165 16z" fill="#34A853"/><path d="M3.763 9.649a4.554 4.554 0 01-.248-1.498c0-.524.091-1.027.248-1.498V4.632H1.16a7.758 7.758 0 000 7.038l2.603-2.021z" fill="#FBBC05"/><path d="M8.165 3.409c1.158 0 2.191.399 3.009 1.177l2.237-2.237C12.057 1.08 10.284.302 8.165.302a7.837 7.837 0 00-7.005 4.33l2.603 2.02C4.385 4.79 6.118 3.41 8.165 3.41z" fill="#EA4335"/></svg>