<svg width="97" height="13" fill="none" xmlns="http://www.w3.org/2000/svg"><path d="M9.541 7.243c0 .4-.24.765-.62.946l-1.629.762v-5.15c0-.4.24-.767.62-.946l1.63-.766v5.154zM6.167 8.829a1.057 1.057 0 01-.62.943l-1.632.762v-2.25c0-.399.24-.764.62-.945l1.628-.762.004 2.252zM11.623 0h-9.79C.821.002.002.77 0 1.72v9.184c0 .95.82 1.72 1.833 1.723h9.79c1.013-.002 1.834-.772 1.836-1.723V1.72C13.456.77 12.635.002 11.623 0zm9.178 2.933c-.416.197-.68.596-.682 1.033v3.37c0 .15-.008.3-.025.448 0 .472-.4.86-.903.873h-2.36v1.903h3.002a4.03 4.03 0 00.996-.14 2.173 2.173 0 001.505-1.198c.171-.406.253-.841.238-1.278V2.095l-1.77.838zM29.75 0l-1.613.757a1.044 1.044 0 00-.62.934v.398l1.613-.753c.38-.177.62-.54.62-.937V0zm1.88 2.09h-2.466l-1.638 3.334h-.012L25.876 2.09H23.41l2.878 5.847v2.642h2.466V7.93l2.876-5.84zm7.4 5.89v-.106a2.915 2.915 0 00-.13-.721 1.764 1.764 0 00-.735-.958 3.278 3.278 0 00-1.141-.471c-.574-.122-1.151-.221-1.728-.329a4.577 4.577 0 01-1.02-.247.597.597 0 01-.37-.384.842.842 0 010-.44.72.72 0 01.621-.48c.245-.05.494-.08.744-.087h.22c.221.009.44.038.655.087.413.046.708.396.661.783v.163h2.23a5.38 5.38 0 00-.021-.637c-.058-.683-.494-1.286-1.148-1.59a4.835 4.835 0 00-1.886-.45c-.193 0-.385-.02-.577-.02h-.13c-.193 0-.385 0-.577.02a4.834 4.834 0 00-1.89.45c-.655.302-1.091.907-1.147 1.59-.014.13-.02.261-.019.392-.004.075-.004.15 0 .224v.02c.017.223.06.442.127.656a1.772 1.772 0 00.733.957c.342.227.73.386 1.14.468.575.126 1.152.225 1.729.332a4.8 4.8 0 011.048.245c.178.07.314.21.37.384a.794.794 0 01.027.203c.003.055.003.11 0 .163v.064a.74.74 0 01-.648.562 4.36 4.36 0 01-.748.085h-.22a3.84 3.84 0 01-.651-.085.767.767 0 01-.504-.264.676.676 0 01-.157-.522v-.163h-2.249c-.005.213.002.426.022.638.056.683.492 1.287 1.148 1.589a4.837 4.837 0 001.889.454 9.576 9.576 0 00.703.017c.196 0 .388 0 .58-.017a4.84 4.84 0 001.89-.454c.654-.304 1.09-.907 1.148-1.59a4.34 4.34 0 00.021-.523l-.01-.009zm3.642-.103l1.297-2.97 1.297 2.97h-2.594zm3.77 2.698h2.48l-3.715-8.486h-2.482l-3.694 8.486h2.481l.506-1.164h3.92l.503 1.164zm8.623-8.485v4.786c-.112-.177-2.879-4.787-2.879-4.787h-2.481v8.486h2.481V5.791c.03.046 2.776 4.615 2.879 4.784h2.462V2.089h-2.462zm17.618 5.787l1.296-2.97 1.297 2.97h-2.593zm3.769 2.698h2.466l-3.7-8.486h-2.482l-3.698 8.486h2.482l.506-1.164h3.936l.49 1.164zm17.231 0h3.036l-3.718-4.65 3.706-3.836H93.43l-2.469 2.552V2.09H88.5v8.486h2.462V8.032l.376-.387 2.345 2.93zM65.546 5.561h-1.44V3.635h1.44c.567 0 1.026.43 1.026.963 0 .532-.46.963-1.026.963zm0 3.475h-1.437V7.103h1.437c.569 0 1.03.433 1.03.966 0 .534-.461.967-1.03.967zm3.492-1.217a1.78 1.78 0 00-1.107-1.615l-.115-.061.075-.04c.442-.219.751-.618.834-1.08.07-.37.07-.748 0-1.118a1.747 1.747 0 00-.664-1.132 3.112 3.112 0 00-1.42-.582 7.17 7.17 0 00-1.297-.099h-3.707v8.483h3.955c.354 0 .707-.026 1.058-.061.46-.042.906-.174 1.309-.387a1.887 1.887 0 001.03-1.347c.054-.318.07-.64.046-.96h.003zM85.072 2.09v4.786L82.2 2.09h-2.48v8.486h2.48V5.791c.032.046 2.777 4.615 2.879 4.784h2.466V2.089h-2.472z" fill="#FF6118"/></svg>