<?xml version="1.0" encoding="utf-8"?><svg xmlns="http://www.w3.org/2000/svg" xmlns:xlink="http://www.w3.org/1999/xlink"><symbol fill="none" viewBox="0 0 12 12" id="action--expand-down" xmlns="http://www.w3.org/2000/svg"><path d="M10 5L6 9 2 5" stroke="currentColor" stroke-width="1.8" stroke-linecap="round" stroke-linejoin="round"/></symbol><symbol fill="none" viewBox="0 0 22 22" id="action--next" xmlns="http://www.w3.org/2000/svg"><path d="M13.163 4L20 11m0 0l-6.837 7M20 11H2" stroke="currentColor" stroke-width="1.8" stroke-linecap="round" stroke-linejoin="round"/></symbol><symbol fill="none" viewBox="0 0 22 22" id="additional--book" xmlns="http://www.w3.org/2000/svg"><path d="M10.2 5.05a.75.75 0 000 1.5v-1.5zm5.2 1.5a.75.75 0 000-1.5v1.5zm-5.2 1.9a.75.75 0 000 1.5v-1.5zm5.2 1.5a.75.75 0 000-1.5v1.5zm2.85-6.55v15.2h1.5V3.4h-1.5zM3.75 18.6V3.4h-1.5v15.2h1.5zM5.4 1.75h1.2V.25H5.4v1.5zm1.2 0h10V.25h-10v1.5zm10 18.5h-10v1.5h10v-1.5zm-10 0H5.4v1.5h1.2v-1.5zM5.85 1v20h1.5V1h-1.5zm-3.6 17.6a3.15 3.15 0 003.15 3.15v-1.5a1.65 1.65 0 01-1.65-1.65h-1.5zm16 0a1.65 1.65 0 01-1.65 1.65v1.5a3.15 3.15 0 003.15-3.15h-1.5zm1.5-15.2A3.15 3.15 0 0016.6.25v1.5c.911 0 1.65.739 1.65 1.65h1.5zm-16 0c0-.911.739-1.65 1.65-1.65V.25A3.15 3.15 0 002.25 3.4h1.5zm6.45 3.15h5.2v-1.5h-5.2v1.5zm0 3.4h5.2v-1.5h-5.2v1.5z" fill="currentColor"/></symbol><symbol fill="none" viewBox="0 0 18 18" id="app-download-close" xmlns="http://www.w3.org/2000/svg"><path d="M1 1l16 16m0-16L1 17" stroke="currentColor" stroke-width="1.8" stroke-linecap="round" stroke-linejoin="round"/></symbol><symbol fill="none" viewBox="0 0 31 13" id="currency--byn" xmlns="http://www.w3.org/2000/svg"><path d="M.778 12.368V.732H5.04c.826 0 1.51.136 2.05.409.543.269.948.634 1.217 1.096.269.459.403.976.403 1.552 0 .484-.089.894-.267 1.227a2.18 2.18 0 01-.716.795 3.14 3.14 0 01-.977.432v.114c.386.019.763.144 1.13.375.372.227.679.55.921.971.243.42.364.932.364 1.534 0 .595-.14 1.13-.42 1.603-.277.47-.705.843-1.285 1.12-.58.272-1.32.408-2.221.408H.779zm1.756-1.505h2.534c.841 0 1.443-.163 1.807-.49.364-.325.545-.732.545-1.22 0-.368-.092-.705-.278-1.012a1.99 1.99 0 00-.795-.733c-.341-.182-.747-.273-1.216-.273H2.534v3.728zm0-5.097h2.352c.394 0 .748-.076 1.063-.227a1.86 1.86 0 00.756-.637c.189-.276.284-.602.284-.977 0-.481-.169-.884-.506-1.21-.337-.326-.854-.489-1.551-.489H2.534v3.54zM9.71.732h1.994l3.04 5.29h.124l3.04-5.29h1.995L15.68 7.8v4.568h-1.75V7.8L9.709.732zm20.602 0v11.636H28.7l-5.915-8.534h-.108v8.534H20.92V.732h1.625l5.92 8.545h.109V.732h1.738z" fill="currentColor"/></symbol><symbol fill="none" viewBox="0 0 22 22" id="currency--eur" xmlns="http://www.w3.org/2000/svg"><path d="M14.19 8.81l-.64 1.367H2l.524-1.368h11.665zm-1.634 3.692l-.64 1.368H2l.524-1.367h10.032zm3.826-8.593l-.648 1.402a6.88 6.88 0 00-1.234-.94c-.438-.261-.9-.46-1.385-.595a5.41 5.41 0 00-1.527-.213c-1.118 0-2.119.31-3 .932C7.704 5.11 7.01 6 6.5 7.167c-.509 1.16-.763 2.55-.763 4.172 0 1.622.254 3.016.763 4.182.51 1.16 1.204 2.05 2.086 2.672.882.616 1.883.923 3.001.923.539 0 1.048-.068 1.527-.204a6.11 6.11 0 001.367-.586c.426-.254.82-.547 1.181-.879l.675 1.42a6.328 6.328 0 01-2.158 1.35 7.29 7.29 0 01-2.592.462c-1.456 0-2.746-.385-3.87-1.154-1.12-.77-1.998-1.853-2.637-3.25-.634-1.402-.95-3.047-.95-4.935 0-1.889.316-3.53.95-4.928.639-1.402 1.518-2.488 2.636-3.258C8.842 2.384 10.132 2 11.588 2c.941 0 1.817.166 2.628.497.81.332 1.533.802 2.166 1.412z" fill="currentColor"/></symbol><symbol fill="none" viewBox="0 0 30 17" id="currency--pay" xmlns="http://www.w3.org/2000/svg"><path d="M.938 13.31V.219h4.666c1.019 0 1.863.185 2.532.556a3.61 3.61 0 011.502 1.521c.332.64.498 1.36.498 2.16 0 .806-.168 1.53-.505 2.174-.332.64-.835 1.146-1.508 1.521-.67.37-1.51.556-2.525.556H2.389V7.033h3.03c.644 0 1.166-.111 1.566-.333.4-.226.695-.532.882-.92a3 3 0 00.281-1.323 2.96 2.96 0 00-.28-1.317 2.017 2.017 0 00-.89-.901c-.4-.218-.928-.326-1.585-.326h-2.48V13.31H.938zm13.41.217a4.01 4.01 0 01-1.688-.345 2.843 2.843 0 01-1.195-1.017c-.29-.443-.435-.986-.435-1.63 0-.554.107-1.01.32-1.367.213-.358.5-.642.863-.85a4.507 4.507 0 011.214-.474c.448-.106.904-.187 1.368-.243l1.432-.166c.367-.047.633-.121.8-.223.165-.103.248-.269.248-.499v-.045c0-.558-.157-.99-.473-1.297-.31-.307-.775-.46-1.393-.46-.644 0-1.15.142-1.521.428-.367.28-.62.594-.761.94l-1.796-.41c.213-.596.524-1.078.933-1.444a3.78 3.78 0 011.426-.806 5.564 5.564 0 011.693-.255c.392 0 .808.046 1.247.14.443.09.856.256 1.24.499.388.243.705.59.952 1.042.247.447.371 1.029.371 1.745v6.52h-1.867v-1.343h-.076c-.124.247-.31.49-.556.729a2.953 2.953 0 01-.953.594c-.387.158-.852.237-1.393.237zm.415-1.534c.529 0 .98-.105 1.355-.313.38-.21.667-.482.863-.819.2-.34.3-.705.3-1.093V8.503c-.067.068-.2.132-.395.192a6.165 6.165 0 01-.659.147c-.247.038-.488.074-.722.108l-.588.077a4.8 4.8 0 00-1.017.236 1.746 1.746 0 00-.728.48c-.18.204-.269.477-.269.818 0 .473.175.831.524 1.074.35.239.795.358 1.336.358zm7.112 4.973c-.285 0-.545-.024-.78-.07a2.457 2.457 0 01-.524-.141l.46-1.566c.525.145.963.155 1.317.032.358-.12.659-.497.902-1.132l.236-.652-3.592-9.946h2.045l2.487 7.62h.102l2.486-7.62 2.065.02L25.02 14.62a4.365 4.365 0 01-.716 1.285c-.29.35-.635.613-1.035.792-.4.18-.865.269-1.394.269z" fill="currentColor"/></symbol><symbol fill="none" viewBox="0 0 22 22" id="currency--rub" xmlns="http://www.w3.org/2000/svg"><path d="M12.682 13.733H4v-1.491h8.682c.877 0 1.616-.166 2.22-.497a3.366 3.366 0 001.376-1.367c.314-.586.47-1.255.47-2.007 0-.752-.156-1.417-.47-1.997a3.35 3.35 0 00-1.376-1.376c-.604-.338-1.343-.507-2.22-.507h-4.35v16.69h-1.66V3h6.01c1.243 0 2.285.24 3.125.72.847.479 1.486 1.124 1.918 1.934.438.811.657 1.717.657 2.717s-.219 1.906-.657 2.717c-.432.81-1.071 1.456-1.918 1.935-.84.474-1.882.71-3.125.71zm-.07 1.67v1.49H4v-1.49h8.611z" fill="currentColor"/></symbol><symbol fill="none" viewBox="0 0 18 22" id="currency--up" xmlns="http://www.w3.org/2000/svg"><path d="M9 20.172V1.29m0 0l7.758 7.758M9 1.291L1.242 9.049" stroke="currentColor" stroke-width="2" stroke-linecap="round" stroke-linejoin="round"/></symbol><symbol fill="none" viewBox="0 0 22 23" id="currency--usd" xmlns="http://www.w3.org/2000/svg"><path d="M10.7 22.727V0h1.163v22.727H10.7zm4.998-15.909c-.1-1.012-.548-1.817-1.34-2.415-.794-.597-1.791-.896-2.993-.896-.846 0-1.592.145-2.237.435-.639.29-1.142.692-1.509 1.207a2.933 2.933 0 00-.542 1.74c0 .48.104.9.311 1.26.207.362.485.673.835.933.355.255.745.474 1.172.657.432.183.867.337 1.305.462l1.917.55c.58.16 1.16.364 1.74.613.58.248 1.11.562 1.59.94a4.21 4.21 0 011.162 1.377c.296.538.444 1.186.444 1.944 0 .97-.251 1.844-.754 2.619-.503.775-1.226 1.39-2.166 1.847-.942.45-2.07.674-3.383.674-1.237 0-2.311-.204-3.223-.612-.911-.415-1.627-.986-2.148-1.714-.52-.728-.814-1.571-.879-2.53h1.705c.059.716.295 1.323.71 1.82.414.497.953.876 1.616 1.136.662.255 1.402.382 2.219.382.905 0 1.71-.15 2.415-.453.71-.307 1.266-.733 1.669-1.278.408-.55.612-1.19.612-1.918 0-.615-.16-1.13-.479-1.544-.32-.42-.767-.773-1.34-1.057a11.851 11.851 0 00-1.98-.755l-2.175-.639c-1.427-.426-2.534-1.015-3.32-1.766-.788-.752-1.181-1.71-1.181-2.877 0-.976.26-1.835.78-2.574.528-.746 1.238-1.326 2.131-1.74.9-.42 1.91-.63 3.028-.63 1.13 0 2.13.206 3 .62.87.415 1.56.986 2.069 1.714a4.45 4.45 0 01.826 2.468h-1.607z" fill="currentColor"/></symbol><symbol fill="none" viewBox="0 0 18 14" id="header--back" xmlns="http://www.w3.org/2000/svg"><path d="M7.23 12.727L1.636 7m0 0L7.23 1.273M1.636 7h14.727" stroke="#ADB3C5" stroke-width="1.8" stroke-linecap="round" stroke-linejoin="round"/></symbol><symbol fill="none" viewBox="0 0 24 20" id="header--back-big" xmlns="http://www.w3.org/2000/svg"><path d="M9.444 18.273L1.364 10m0 0l8.08-8.273M1.364 10h21.273" stroke="#363C4E" stroke-width="1.8" stroke-linecap="round" stroke-linejoin="round"/></symbol><symbol fill="none" viewBox="0 0 19 20" id="header--search" xmlns="http://www.w3.org/2000/svg"><path d="M12.242 13.194l-.615-.656.615.656zm4.3 5.621a.9.9 0 001.28-1.267l-1.28 1.267zM14.129 6.841l-.872.22.872-.22zM9.19 14.834l.21.875-.21-.875zm2.413-1.007l4.94 4.988 1.279-1.267-4.94-4.987-1.28 1.266zm-2.624.132c-3.158.762-6.321-1.128-7.09-4.175l-1.745.44c1.018 4.036 5.172 6.47 9.257 5.485l-.422-1.75zm-7.09-4.175c-.766-3.038 1.127-6.137 4.277-6.897l-.422-1.75c-4.09.987-6.62 5.045-5.6 9.088l1.745-.44zm4.277-6.897c3.157-.762 6.321 1.128 7.09 4.175L15 6.622C13.983 2.585 9.828.151 5.744 1.136l.422 1.75zm7.09 4.175c.515 2.043-.169 4.106-1.63 5.476l1.232 1.313c1.912-1.793 2.827-4.518 2.143-7.23l-1.745.44zm-1.63 5.476a5.866 5.866 0 01-2.647 1.421l.422 1.75a7.666 7.666 0 003.457-1.858l-1.231-1.313z" fill="currentColor"/></symbol><symbol fill="none" viewBox="0 0 19 19" id="header--search-big" xmlns="http://www.w3.org/2000/svg"><path d="M12.868 12.818l-.684-.729.684.73zm4.421 5.886a1 1 0 001.421-1.408l-1.42 1.408zM14.828 6.219l-.97.244.97-.244zm-5.13 8.303l.234.972-.234-.972zm2.46-1l5.133 5.182 1.42-1.408-5.131-5.181-1.421 1.407zm-2.695.028c-3.246.783-6.497-1.16-7.287-4.29l-1.939.49c1.067 4.227 5.419 6.776 9.695 5.744l-.469-1.944zM2.175 9.26c-.787-3.12 1.157-6.305 4.396-7.087L6.102.23C1.818 1.263-.832 5.513.236 9.75l1.94-.489zm4.396-7.087c3.247-.783 6.498 1.161 7.287 4.29l1.94-.489C14.73 1.746 10.377-.803 6.101.23l.469 1.944zm7.287 4.29c.53 2.099-.173 4.218-1.674 5.626l1.368 1.459c2.003-1.878 2.962-4.733 2.245-7.574l-1.94.49zm-1.674 5.626a6.03 6.03 0 01-2.722 1.461l.47 1.944a8.029 8.029 0 003.62-1.946l-1.368-1.459z" fill="#363C4E"/></symbol><symbol fill="none" viewBox="0 0 14 17" id="header--sub-docs" xmlns="http://www.w3.org/2000/svg"><path d="M3.952 5.3h6.095M3.952 7.627h6.095M3.952 9.955h3.325m-3.879 5.818h7.204c1.224 0 2.216-1.042 2.216-2.328v-9.89c0-1.286-.992-2.328-2.216-2.328H3.398c-1.224 0-2.216 1.042-2.216 2.328v9.89c0 1.286.992 2.328 2.216 2.328z" stroke="currentColor" stroke-linecap="round" stroke-linejoin="round"/></symbol><symbol fill="none" viewBox="0 0 16 14" id="header--sub-questions" xmlns="http://www.w3.org/2000/svg"><path d="M12.849 3.094V1.888A1.21 1.21 0 0011.637.682H2.303c-.87 0-1.575.702-1.575 1.568v5.066A1.21 1.21 0 001.94 8.522h1.212m0 1.125V4.301a1.21 1.21 0 011.212-1.207h9.697c.67 0 1.212.54 1.212 1.207v5.346a1.21 1.21 0 01-1.212 1.206h-.579l-.523 2.193-2.232-2.193H4.364a1.21 1.21 0 01-1.212-1.206z" stroke="currentColor" stroke-width="1.1" stroke-linecap="round" stroke-linejoin="round"/></symbol><symbol viewBox="0 0 10 17" id="header--sub-usd" xmlns="http://www.w3.org/2000/svg"><path d="M4.782 17.029V.5h.846v16.529h-.846zm3.635-11.57c-.073-.736-.398-1.322-.975-1.757-.577-.434-1.302-.652-2.176-.652-.615 0-1.158.106-1.627.317a2.66 2.66 0 00-1.098.878c-.262.37-.393.792-.393 1.265 0 .349.075.655.226.917.15.263.353.489.606.678.259.185.543.344.853.478.314.133.63.245.949.336l1.394.4c.422.116.844.265 1.266.445.422.181.807.41 1.156.685.353.271.635.605.846 1 .215.392.322.864.322 1.415 0 .706-.183 1.34-.548 1.904-.366.564-.891 1.012-1.576 1.343-.684.327-1.504.491-2.46.491-.9 0-1.68-.149-2.344-.446-.662-.3-1.183-.716-1.562-1.246a3.504 3.504 0 01-.64-1.84h1.24c.043.521.216.962.517 1.324.301.361.693.637 1.175.826.482.185 1.02.278 1.614.278.659 0 1.244-.11 1.756-.33.517-.223.922-.533 1.214-.93.297-.4.446-.864.446-1.394 0-.447-.117-.822-.349-1.123-.232-.306-.557-.562-.975-.769a8.618 8.618 0 00-1.44-.548l-1.582-.465C3.215 8.629 2.41 8.2 1.838 7.654c-.573-.547-.86-1.244-.86-2.092 0-.71.19-1.334.57-1.872.382-.543.899-.965 1.549-1.266.654-.306 1.388-.458 2.201-.458.823 0 1.55.15 2.183.452a3.77 3.77 0 011.504 1.246c.375.525.575 1.123.6 1.795H8.418z" fill="currentColor"/></symbol><symbol fill="none" viewBox="0 0 149 47" id="logo--colored" xmlns="http://www.w3.org/2000/svg"><g clip-path="url(#arclip0)"><path d="M14.34 43.36c.27.06.59.07 1 .07.74 0 1.49-.23 1.95-.71.32-.33.51-.78.51-1.36 0-.71-.3-1.19-.75-1.51-.48-.33-1.1-.47-1.75-.47-.27 0-.64.03-.95.05v3.93h-.01zm3.99-8.32v1h-3.99v2.48c.29-.04.84-.07 1.14-.07.88 0 1.74.19 2.38.62.7.45 1.18 1.18 1.18 2.26 0 .86-.29 1.52-.77 2-.75.74-2 1.03-3.26 1.03-.84 0-1.47-.05-1.86-.11v-9.21h5.18zm5.76 5.85c-1.32-.03-2.81.21-2.81 1.49 0 .78.52 1.15 1.14 1.15.86 0 1.41-.55 1.6-1.11.04-.12.07-.26.07-.38v-1.15zm.18 3.39l-.1-.84h-.04c-.37.52-1.08.99-2.03.99-1.34 0-2.03-.95-2.03-1.91 0-1.6 1.43-2.48 3.99-2.47v-.14c0-.55-.15-1.54-1.51-1.54-.62 0-1.26.19-1.73.49l-.27-.8c.55-.36 1.34-.59 2.18-.59 2.03 0 2.52 1.39 2.52 2.71v2.48c0 .58.03 1.14.11 1.59h-1.09v.03zm4.1-6.64v2.67h3.15v-2.67h1.19v6.64h-1.19v-3.01h-3.15v3.01h-1.2v-6.64h1.2zm7.51 0v2.88h.29l2.49-2.88h1.47l-2.89 3c1.07.11 1.71.82 2.23 2.01.18.44.41 1.08.71 1.62h-1.26c-.18-.29-.41-.81-.62-1.36-.45-1.07-1.07-1.56-2.19-1.56h-.23v2.92h-1.19v-6.63h1.19zm13 6.39c-.31.16-1.01.38-1.9.38-2 0-3.3-1.36-3.3-3.39 0-2.04 1.4-3.52 3.56-3.52.71 0 1.34.18 1.67.34l-.27.93c-.29-.16-.74-.31-1.4-.31-1.52 0-2.34 1.12-2.34 2.51 0 1.54.99 2.48 2.3 2.48.69 0 1.14-.18 1.48-.33l.2.91zm2.54-3.61h.91c.89 0 1.81-.26 1.81-1.04 0-.66-.58-.97-1.78-.97-.4 0-.64.03-.93.05v1.96h-.01zm-.01 3.06c.34.04.59.05.97.05.81 0 2.01-.19 2.01-1.15s-.96-1.16-2.11-1.16h-.88v2.26h.01zm-1.14-5.76c.47-.08 1.33-.15 2.11-.15 1.11 0 2.95.18 2.95 1.66 0 .82-.63 1.33-1.38 1.49v.03c.97.14 1.69.69 1.69 1.64 0 1.74-2.19 1.96-3.5 1.96-.74 0-1.51-.05-1.86-.08v-6.55h-.01zm11.09 2.59c.01-.77-.31-1.96-1.67-1.96-1.22 0-1.75 1.12-1.85 1.96h3.52zm-3.54.87c.03 1.63 1.07 2.3 2.28 2.3.86 0 1.38-.15 1.84-.34l.2.86c-.43.19-1.15.41-2.21.41-2.04 0-3.26-1.34-3.26-3.34 0-2 1.18-3.58 3.11-3.58 2.17 0 2.74 1.91 2.74 3.13 0 .25-.03.44-.04.56h-4.66zm6.76-3.54l2.19 2.89h.25v-2.89h1.15v2.89h.23l2.19-2.89h1.38l-2.62 3.02c1 .11 1.59.7 1.99 1.75.23.64.45 1.34.73 1.86h-1.21c-.22-.4-.41-.95-.6-1.52-.41-1.08-1.03-1.41-1.89-1.41h-.2v2.93h-1.15v-2.93h-.22c-.93 0-1.49.34-1.91 1.43-.22.58-.4 1.1-.63 1.51H63.1c.27-.53.49-1.23.73-1.85.41-1.07 1-1.66 2-1.77l-2.63-3.02h1.38zm9.69 0v2.8c0 1.06-.01 1.71-.07 2.66l.04.01c.4-.81.63-1.27 1.07-2.04l2.07-3.43h1.41v6.63h-1.15v-2.81c0-1.08.03-1.65.08-2.71h-.04c-.43.85-.71 1.38-1.1 2.06-.63 1.03-1.36 2.3-2.07 3.47h-1.38v-6.63h1.14v-.01zm7.04 0l.95 1.43c.25.37.45.71.67 1.08h.04c.22-.4.44-.74.66-1.1l.93-1.41h1.3l-2.26 3.21 2.33 3.43h-1.37l-.97-1.49c-.26-.38-.48-.75-.71-1.15h-.03c-.22.4-.45.75-.7 1.15l-.96 1.49h-1.33l2.36-3.39-2.25-3.25h1.34zm9.89 3.93c0 .18.03.34.06.49.22.84.94 1.41 1.81 1.41 1.27 0 2.01-1.04 2.01-2.56 0-1.33-.7-2.47-1.97-2.47-.82 0-1.59.59-1.82 1.49-.04.15-.08.33-.08.49v1.15h-.01zM90 39.81c0-.85-.03-1.54-.05-2.17h1.08l.05 1.14h.03c.49-.81 1.27-1.29 2.36-1.29 1.6 0 2.81 1.36 2.81 3.37 0 2.39-1.45 3.56-3.01 3.56-.88 0-1.65-.38-2.04-1.04h-.03v3.61H90v-7.18zm12.01.5c.01-.77-.32-1.96-1.67-1.96-1.22 0-1.76 1.12-1.85 1.96h3.52zm-3.54.87c.03 1.63 1.07 2.3 2.28 2.3.86 0 1.39-.15 1.84-.34l.2.86c-.42.19-1.15.41-2.21.41-2.04 0-3.26-1.34-3.26-3.34 0-2 1.18-3.58 3.11-3.58 2.17 0 2.74 1.91 2.74 3.13 0 .25-.03.44-.04.56h-4.66zm7.35-3.54v5.69h2.32v-5.69h1.18v5.69h2.31v-5.69h1.2v6.64h-8.19v-6.64h1.18zm13.17 2.67c.01-.77-.31-1.96-1.67-1.96-1.22 0-1.75 1.12-1.85 1.96h3.52zm-3.53.87c.03 1.63 1.07 2.3 2.28 2.3.86 0 1.38-.15 1.84-.34l.21.86c-.43.19-1.15.41-2.21.41-2.04 0-3.26-1.34-3.26-3.34 0-2 1.18-3.58 3.11-3.58 2.17 0 2.74 1.91 2.74 3.13 0 .25-.03.44-.04.56h-4.67zm7.36-3.54v2.67h3.15v-2.67h1.19v6.64h-1.19v-3.01h-3.15v3.01h-1.2v-6.64h1.2zm7.43 0v2.8c0 1.06-.01 1.71-.07 2.66l.04.01c.4-.81.63-1.27 1.07-2.04l2.07-3.43h1.41v6.63h-1.15v-2.81c0-1.08.03-1.65.08-2.71h-.04c-.42.85-.71 1.38-1.1 2.06-.63 1.03-1.36 2.3-2.07 3.47h-1.38v-6.63h1.14v-.01zm8.37-2.7c.04.59.33 1.04.88 1.04.59 0 .86-.44.93-1.04h.86c-.06 1.12-.77 1.7-1.82 1.7-1.21 0-1.67-.75-1.73-1.7h.88zm-.78 2.7v2.8c0 1.06-.01 1.71-.07 2.66l.04.01c.4-.81.63-1.27 1.07-2.04l2.07-3.43h1.41v6.63h-1.15v-2.81c0-1.08.03-1.65.08-2.71h-.04c-.42.85-.71 1.38-1.1 2.06-.63 1.03-1.36 2.3-2.07 3.47h-1.38v-6.63h1.14v-.01zM26.57 2.67c-2.72 0-5.24.82-7.33 2.21 0 0 18.38 8.49 18.42 8.5 1.72.77 1.75-.33 1.75-.33-1.16-5.92-6.47-10.38-12.84-10.38zm9.02 21.06c-.01-.01-17.63-6.64-21.23-7.98-.57-.22-.84.2-.82.45.4 6.71 6.08 12.03 13.04 12.03 4.01 0 7.59-1.76 9.99-4.54-.01 0-.41.28-.98.04z" fill="#1B74FD"/><path fill-rule="evenodd" clip-rule="evenodd" d="M37.42 18.81c-.07-.02-28.27-12.7-28.57-12.83-.78-.36-1.89.41-1.28 1.35.1.15 2.31 3.34 2.31 3.34S9.23 9.6 9.3 9.1c.04-.35.38-.51.63-.4.24.09 26.79 11.47 26.92 11.54.96.42 1.76.12 2.06-.58.2-.59.37-1.21.49-1.84-.11.31-.68 1.5-1.98.99zm2.13-4.79c-.03.32-.25 1.72-1.81.98C37.46 14.87 5.92.29 5.49.08c-.6-.29-1.91.19-1.23 1.49.02.04 2.53 4.04 2.5 3.98-.05-.06-.42-.96-.59-1.78-.08-.33.22-.63.68-.43.05.02 30.73 13.47 30.96 13.57.66.31 1.74.16 1.81-.68.01-.26.02-.51.02-.78-.01-.47-.03-.96-.09-1.43zm-3 7.69c-.1-.03-24.25-10.1-24.47-10.19-.86-.34-1.42.46-.87 1.2l1.97 2.54s-.41-.71-.44-1.01c-.03-.31.17-.65.79-.39.63.26 22.19 8.97 22.25 9 .67.23 1.27.21 1.55-.17.43-.62.79-1.21 1.11-1.9-.2.34-.9 1.3-1.89.92z" fill="#E32213"/><path d="M126.55 12.76c.2-.4.52-.64.98-.71v-.92h-5.47v.92c.42.09.69.31.84.65.14.35.22 1.15.22 2.45v3.9h-3.4v-3.9c0-1.3.08-2.1.23-2.45.15-.34.42-.56.83-.65v-.92h-5.45v.92c.46.07.77.31.98.71.13.27.19 1.07.19 2.39v9.24c0 1.32-.06 2.11-.19 2.38-.21.41-.52.63-.98.71v.92h5.45v-.92c-.41-.09-.68-.3-.83-.65-.16-.34-.23-1.16-.23-2.45v-4.17h3.4v4.17c0 1.28-.07 2.1-.22 2.45-.16.35-.43.56-.84.65v.92h5.47v-.92c-.46-.08-.78-.3-.98-.71-.13-.27-.2-1.06-.2-2.38v-9.24c0-1.32.07-2.12.2-2.39zm-70.12 7.12l4.26-16.49h6.37v.94h-.51c-.46 0-.83.13-1.11.39-.19.19-.35.47-.47.86-.08.3-.13 1.07-.13 2.31v15.97c0 1.28.05 2.08.13 2.4.09.31.26.6.52.84.27.24.61.36 1.06.36h.51v.94h-8.18v-.94h.51c.47 0 .83-.13 1.12-.38.18-.18.35-.47.45-.9.08-.28.12-1.06.12-2.32V7.43L55.55 28.4h-.75L49.06 7.08v16.03c0 1.23.01 1.99.05 2.27.11.61.32 1.12.66 1.5.32.39.85.58 1.58.58v.94h-5.72v-.94h.16c.35.01.68-.08.97-.27.31-.18.54-.44.68-.76.16-.32.28-.78.37-1.35.01-.13.02-.76.02-1.88V7.89c0-1.27-.04-2.06-.13-2.38-.08-.31-.26-.58-.52-.83-.27-.24-.61-.36-1.05-.36h-.5v-.93h6.39l4.41 16.49zm77.74-16.49v16.2s3.33-5.16 3.48-5.41c.41-.7.61-2.09-1.06-2.09v-.93h4.83v.93c-.46.04-.86.21-1.21.53-.88.68-3.21 4.41-3.21 4.41l2.54 5.94c1.03 2.4 1.64 3.5 1.82 3.8.26.42.59.66.99.71v.92h-5.58v-.92c.25 0 .43-.08.54-.23.1-.15.16-.3.16-.48 0-.28-.16-.8-.49-1.57l-2.13-4.74-.71 1.09v2.84c0 1.91.08 2.13.24 2.46.15.32.47.53.94.62v.92h-5.58v-.92c.46-.08.78-.31.97-.71.13-.27.2-1.06.2-2.37v-17c0-1.3-.07-2.11-.23-2.43-.14-.31-.46-.53-.94-.63v-.94h4.43zm-50.68 0v6.77h-.95c-.18-1.84-.08-3.27-.75-4.25-.47-.73-1.25-1.08-2.3-1.08h-1.13v19.03c0 1.28.05 2.08.13 2.4.1.31.27.6.52.84.26.24.61.36 1.06.36h.52v.94H72.4v-.94h.51c.46 0 .82-.13 1.1-.38.2-.18.36-.47.47-.9.09-.28.13-1.06.13-2.32V4.83h-1.13c-1.05 0-1.83.36-2.3 1.08-.67.98-.58 2.41-.76 4.25h-.95V3.39h14.02zm12.35 21.1c-.28.82-.67 1.46-1.19 1.89-.52.44-1.09.66-1.7.66-.41 0-.73-.17-.95-.5-.21-.35-.3-.85-.3-1.5l.01-.93v-11.8c1.17-.01 2.06.16 2.65.53.59.38 1.06 1.02 1.4 1.95.84 2.3.85 7.42.08 9.7zm3.19-11.12c-1.71-2.25-4.67-2.54-7.33-2.51V4.83h3.07c1.05 0 1.82.36 2.29 1.08.67.98.58 2.41.76 4.25h.95V3.39h-12.9v.94c.72 0 1.21.11 1.47.32.26.21.44.48.54.84.11.35.16.95.16 2.29v15.97c0 1.35-.05 2.2-.16 2.54-.1.35-.28.64-.53.85-.27.22-.75.33-1.48.33v.94h7.95c2.22 0 3.91-.75 5.07-2.24 1.9-2.44 2.1-10.25.14-12.8zm9.55 11.04c-1.15 1.9-3.83.72-2.48-2.16.45-.99 1.55-2.62 2.48-3.5v5.66zm4.2 1.11c-.21.44-.67.37-.74.26-.09-.09-.14-.25-.18-.44-.04-.2-.05-.7-.05-1.5v-6.33c0-1.86-.06-3.05-.17-3.57-.3-1.57-1.26-3.28-3.59-3.29-.84 0-1.65.21-2.44.64-.79.44-1.4 1.05-1.83 1.86-.43.81-.63 1.48-.71 2.65-.05 1.47.85 2.05 1.76 2.05s1.65-.74 1.65-1.65c0-.32-.09-.57-.25-.88-.25-.46-1.45-1.35-.35-2.74.33-.35.75-.54 1.25-.54.89 0 1.15.64 1.32 1.27.09.34.13 1.16.13 2.46v1.74c-2.37 1.74-3.92 3.14-4.62 4.19-.71 1.05-1.19 1.98-1.19 3.29 0 1.96 1.09 3.64 2.75 3.63 1.66-.01 2.58-1.11 3.06-2.76.08.94.29 1.63.64 2.09.36.46.83.69 1.44.69.53 0 1.21-.17 1.62-.58.41-.4.77-1.02 1.16-1.93l-.66-.61z" fill="#1B74FD"/></g><defs><clipPath id="arclip0"><path fill="#fff" d="M0 0h149v47H0z"/></clipPath></defs></symbol><symbol fill="none" viewBox="0 0 149 32" id="logo--coloreden" xmlns="http://www.w3.org/2000/svg"><path fill-rule="evenodd" clip-rule="evenodd" d="M24.36 3.88c-2.93 0-5.65.87-7.89 2.37 0 0 19.78 9.14 19.83 9.15 1.85.82 1.88-.36 1.88-.36-1.26-6.36-6.97-11.16-13.82-11.16zm9.7 22.67c-.02-.01-23.76-8.93-23.76-8.93v.01c0 7.6 6.29 13.76 14.06 13.76 4.31 0 8.17-1.9 10.75-4.88-.01-.01-.44.29-1.05.04z" fill="#004F9E"/><path fill-rule="evenodd" clip-rule="evenodd" d="M36.03 21.25C35.96 21.23 5.6 7.58 5.28 7.43c-.84-.38-2.04.44-1.38 1.46l2.49 3.59s-.7-1.15-.63-1.69c.04-.38.41-.55.68-.43.26.1 28.83 12.35 28.99 12.42 1.03.45 1.89.13 2.21-.62.22-.64.4-1.3.53-1.98-.13.33-.74 1.62-2.14 1.07zm2.3-5.16c-.03.34-.27 1.86-1.96 1.06-.29-.14-34.24-15.84-34.71-16.07-.64-.3-2.06.2-1.33 1.61.02.04 2.72 4.35 2.69 4.29-.04-.06-.44-1.03-.62-1.92-.09-.35.23-.68.72-.46.06.02 33.09 14.5 33.32 14.6.71.33 1.89.17 1.94-.72.02-.28.03-.56.03-.85 0-.51-.02-1.03-.08-1.54zm-3.24 8.28c-.1-.03-26.1-10.87-26.34-10.98-.93-.37-1.52.49-.93 1.3.08.1 2.12 2.73 2.12 2.73s-.44-.76-.47-1.09c-.03-.34.18-.7.86-.42.67.28 23.88 9.65 23.95 9.69.72.25 1.37.23 1.67-.18.47-.66.85-1.3 1.2-2.05-.24.38-.99 1.4-2.06 1z" fill="#E42616"/><path fill-rule="evenodd" clip-rule="evenodd" d="M56.49 22.4l4.58-17.75h6.86v1.01h-.55c-.49 0-.9.14-1.19.42-.2.2-.37.51-.5.93-.09.32-.14 1.15-.14 2.49v17.19c0 1.38.06 2.24.14 2.59.09.34.28.64.56.9.29.26.66.39 1.13.39h.55v1.01h-8.81v-1.01h.55c.5 0 .89-.14 1.2-.41.2-.19.38-.5.49-.96.09-.31.13-1.14.13-2.5V8.99l-5.96 22.58h-.8L48.56 8.61v17.26c0 1.33.02 2.14.05 2.44.12.66.34 1.21.71 1.62.35.42.92.63 1.7.63v1.01h-6.16v-1.01h.17c.38.01.73-.09 1.04-.29.33-.2.58-.47.74-.81.17-.35.3-.84.39-1.46.01-.15.02-.82.02-2.02V9.5c0-1.36-.04-2.22-.13-2.56-.1-.34-.28-.64-.57-.9-.28-.26-.66-.39-1.13-.39h-.54v-1h6.88l4.76 17.75z" fill="#004F9E"/><path fill-rule="evenodd" clip-rule="evenodd" d="M67.93 4.65v1.01h-.55c-.49 0-.9.14-1.19.42-.2.2-.37.51-.5.93-.09.32-.14 1.15-.14 2.49v17.19c0 1.38.06 2.24.14 2.59.09.34.28.64.56.9.29.26.66.39 1.13.39h.55v1.01h-8.81v-1.01h.55c.5 0 .89-.14 1.2-.41.2-.19.38-.5.49-.96.09-.31.13-1.14.13-2.5V8.99l-5.96 22.58h-.8L48.56 8.61v17.26c0 1.33.02 2.14.05 2.44.12.66.34 1.21.71 1.62.35.42.92.63 1.7.63v1.01h-6.16v-1.01h.24c.35 0 .68-.1.98-.29.33-.2.58-.47.74-.81.17-.35.3-.84.39-1.46.01-.15.02-.82.02-2.02V9.5c0-1.36-.04-2.22-.13-2.56-.1-.34-.28-.64-.57-.9-.28-.26-.66-.39-1.13-.39h-.54v-1h6.88l4.74 17.75 4.58-17.75h6.87zm72.25 0v17.44s3.59-5.55 3.74-5.82c.45-.75.67-2.24-1.14-2.24v-1.01h5.21v1.01c-.49.04-.93.23-1.31.57-.95.73-3.45 4.75-3.45 4.75l2.74 6.39c1.1 2.59 1.76 3.77 1.96 4.09.28.45.64.71 1.07.76v.99h-6.01v-.99c.26 0 .46-.09.58-.25.11-.16.18-.32.18-.51 0-.3-.17-.86-.52-1.69l-2.29-5.1-.76 1.17v3.06c0 2.07.09 2.31.26 2.65.17.34.5.57 1.02.67v.99h-6.01v-.99c.5-.09.84-.33 1.05-.76.14-.29.22-1.14.22-2.56V8.96c0-1.4-.09-2.27-.25-2.61-.16-.34-.5-.57-1.02-.68V4.65h4.73zm-69.83 0v7.29h1.02c.19-1.99.09-3.51.81-4.58.51-.78 1.34-1.16 2.47-1.16h1.22v20.48c0 1.36-.05 2.19-.14 2.5-.12.46-.29.77-.51.96-.3.27-.69.41-1.18.41h-.54v1.01h8.82v-1.01h-.56c-.48 0-.87-.13-1.14-.39-.27-.25-.45-.56-.56-.9-.09-.35-.14-1.2-.14-2.59V6.2h1.22c1.13 0 1.96.38 2.47 1.16.73 1.06.62 2.59.81 4.58h1.02V4.65H70.35z" fill="#004F9E"/><path fill-rule="evenodd" clip-rule="evenodd" d="M85.44 4.65v7.29h-1.02c-.19-1.99-.09-3.51-.81-4.58-.51-.78-1.35-1.16-2.47-1.16h-1.22v20.48c0 1.38.05 2.24.14 2.59.1.34.28.64.56.9s.66.39 1.14.39h.56v1.01H73.5v-1.01h.55c.49 0 .89-.14 1.18-.41.22-.19.39-.5.51-.96.09-.31.14-1.14.14-2.5V6.2h-1.22c-1.13 0-1.97.38-2.47 1.16-.73 1.06-.62 2.59-.81 4.58h-1.02V4.65h15.08zm27.19 22.63c-1.24 2.04-4.12.78-2.67-2.33.49-1.07 1.67-2.83 2.67-3.77v6.1zm4.52 1.19c-.22.48-.71.39-.8.28-.09-.09-.14-.27-.19-.47-.04-.22-.05-.76-.05-1.61v-6.81c0-2-.07-3.29-.18-3.84-.32-1.68-1.36-3.54-3.87-3.54-.91 0-1.78.23-2.63.69-.85.47-1.51 1.13-1.97 2-.47.86-.68 1.59-.77 2.85-.05 1.58.91 2.21 1.9 2.21.98 0 1.78-.79 1.78-1.78 0-.35-.09-.61-.27-.94-.27-.5-1.56-1.45-.37-2.94.36-.38.81-.58 1.34-.58.96 0 1.24.69 1.42 1.36.1.36.15 1.25.15 2.65v1.87c-2.56 1.87-4.21 3.38-4.98 4.51-.76 1.14-1.28 2.13-1.28 3.54 0 2.11 1.17 3.91 2.96 3.91s2.78-1.19 3.3-2.97c.08 1.01.31 1.75.69 2.24.38.49.89.74 1.55.74.57 0 1.3-.18 1.73-.62.44-.43.83-1.09 1.25-2.08l-.71-.67zm7.62-15.44v2.4c.64-1.03 1.26-1.78 1.84-2.25.59-.48 1.21-.71 1.89-.71.8 0 1.48.33 2.01 1 .53.67.89 1.5 1.06 2.48.15.76.22 2.21.22 4.35v6.89c0 1.43.09 2.32.26 2.66.17.35.54.58 1.09.67v1.03h-6.3v-1.03c.47-.09.81-.39 1.02-.87.14-.34.21-1.15.21-2.47v-7.92c0-1.53-.04-2.48-.12-2.87-.08-.4-.22-.71-.41-.92-.19-.23-.4-.33-.63-.33-.77 0-1.48.81-2.13 2.44v9.61c0 1.39.09 2.27.26 2.64.18.37.5.6.97.7v1.03h-6.3v-1.03c.52-.08.89-.33 1.12-.76.15-.29.23-1.15.23-2.58v-9.92c0-1.4-.09-2.27-.26-2.61-.17-.34-.54-.57-1.08-.68v-.96h5.05v.01zM98.88 27.35c-.3.89-.73 1.58-1.29 2.05-.55.48-1.16.71-1.83.71-.45 0-.78-.18-1.01-.54-.23-.37-.34-.91-.34-1.62l.02-1v-8.63c1.26-.02 2.21.17 2.85.57.64.4 1.14 1.1 1.5 2.09.37 1 .55 2.13.55 3.39 0 1.1-.15 2.09-.45 2.98zM94.44 6.16c1.2-.01 2.08.18 2.62.58.55.39.97.97 1.26 1.74.29.76.44 1.74.44 2.93 0 1.19-.15 2.17-.44 2.94-.3.77-.73 1.36-1.28 1.79-.56.42-1.42.63-2.59.63V6.16h-.01zm7.86 13.3c-.65-.84-1.76-1.57-3.36-2.16 1.48-.59 2.51-1.4 3.09-2.41.59-1.02.88-2.17.88-3.47 0-1.23-.23-2.4-.69-3.49-.46-1.09-1.09-1.91-1.89-2.46-.8-.55-2.16-.83-4.09-.83h-8.05v1.02c.77 0 1.29.11 1.57.34.28.23.48.52.59.9.12.38.17 1.3.17 2.75v16.89c0 1.45-.05 2.36-.17 2.73-.11.37-.3.67-.58.9-.28.24-.8.36-1.58.36v1.03h8.54c2.37 0 4.18-.8 5.43-2.41 1.02-1.32 1.52-3 1.52-5.02 0-1.9-.45-3.46-1.38-4.67zM24.36 3.88c-2.93 0-5.65.87-7.89 2.37 0 0 19.78 9.14 19.83 9.15 1.85.82 1.88-.36 1.88-.36-1.26-6.36-6.97-11.16-13.82-11.16zm9.7 22.67c-.02-.01-23.76-8.93-23.76-8.93v.01c0 7.6 6.29 13.76 14.06 13.76 4.31 0 8.17-1.9 10.75-4.88-.01-.01-.44.29-1.05.04z" fill="#004F9E"/><path fill-rule="evenodd" clip-rule="evenodd" d="M36.03 21.25C35.96 21.23 5.6 7.58 5.28 7.43c-.84-.38-2.04.44-1.38 1.46l2.49 3.59s-.7-1.15-.63-1.69c.04-.38.41-.55.68-.43.26.1 28.83 12.35 28.99 12.42 1.03.45 1.89.13 2.21-.62.22-.64.4-1.3.53-1.98-.13.33-.74 1.62-2.14 1.07zm2.3-5.16c-.03.34-.27 1.86-1.96 1.06-.29-.14-34.24-15.84-34.71-16.07-.64-.3-2.06.2-1.33 1.61.02.04 2.72 4.35 2.69 4.29-.04-.06-.44-1.03-.62-1.92-.09-.35.23-.68.72-.46.06.02 33.09 14.5 33.32 14.6.71.33 1.89.17 1.94-.72.02-.28.03-.56.03-.85 0-.51-.02-1.03-.08-1.54zm-3.24 8.28c-.1-.03-26.1-10.87-26.34-10.98-.93-.37-1.52.49-.93 1.3.08.1 2.12 2.73 2.12 2.73s-.44-.76-.47-1.09c-.03-.34.18-.7.86-.42.67.28 23.88 9.65 23.95 9.69.72.25 1.37.23 1.67-.18.47-.66.85-1.3 1.2-2.05-.24.38-.99 1.4-2.06 1z" fill="#E42616"/><path fill-rule="evenodd" clip-rule="evenodd" d="M56.49 22.4l4.58-17.75h6.86v1.01h-.55c-.49 0-.9.14-1.19.42-.2.2-.37.51-.5.93-.09.32-.14 1.15-.14 2.49v17.19c0 1.38.06 2.24.14 2.59.09.34.28.64.56.9.29.26.66.39 1.13.39h.55v1.01h-8.81v-1.01h.55c.5 0 .89-.14 1.2-.41.2-.19.38-.5.49-.96.09-.31.13-1.14.13-2.5V8.99l-5.96 22.58h-.8L48.56 8.61v17.26c0 1.33.02 2.14.05 2.44.12.66.34 1.21.71 1.62.35.42.92.63 1.7.63v1.01h-6.16v-1.01h.17c.38.01.73-.09 1.04-.29.33-.2.58-.47.74-.81.17-.35.3-.84.39-1.46.01-.15.02-.82.02-2.02V9.5c0-1.36-.04-2.22-.13-2.56-.1-.34-.28-.64-.57-.9-.28-.26-.66-.39-1.13-.39h-.54v-1h6.88l4.76 17.75z" fill="#004F9E"/><path fill-rule="evenodd" clip-rule="evenodd" d="M67.93 4.65v1.01h-.55c-.49 0-.9.14-1.19.42-.2.2-.37.51-.5.93-.09.32-.14 1.15-.14 2.49v17.19c0 1.38.06 2.24.14 2.59.09.34.28.64.56.9.29.26.66.39 1.13.39h.55v1.01h-8.81v-1.01h.55c.5 0 .89-.14 1.2-.41.2-.19.38-.5.49-.96.09-.31.13-1.14.13-2.5V8.99l-5.96 22.58h-.8L48.56 8.61v17.26c0 1.33.02 2.14.05 2.44.12.66.34 1.21.71 1.62.35.42.92.63 1.7.63v1.01h-6.16v-1.01h.24c.35 0 .68-.1.98-.29.33-.2.58-.47.74-.81.17-.35.3-.84.39-1.46.01-.15.02-.82.02-2.02V9.5c0-1.36-.04-2.22-.13-2.56-.1-.34-.28-.64-.57-.9-.28-.26-.66-.39-1.13-.39h-.54v-1h6.88l4.74 17.75 4.58-17.75h6.87zm72.25 0v17.44s3.59-5.55 3.74-5.82c.45-.75.67-2.24-1.14-2.24v-1.01h5.21v1.01c-.49.04-.93.23-1.31.57-.95.73-3.45 4.75-3.45 4.75l2.74 6.39c1.1 2.59 1.76 3.77 1.96 4.09.28.45.64.71 1.07.76v.99h-6.01v-.99c.26 0 .46-.09.58-.25.11-.16.18-.32.18-.51 0-.3-.17-.86-.52-1.69l-2.29-5.1-.76 1.17v3.06c0 2.07.09 2.31.26 2.65.17.34.5.57 1.02.67v.99h-6.01v-.99c.5-.09.84-.33 1.05-.76.14-.29.22-1.14.22-2.56V8.96c0-1.4-.09-2.27-.25-2.61-.16-.34-.5-.57-1.02-.68V4.65h4.73zm-69.83 0v7.29h1.02c.19-1.99.09-3.51.81-4.58.51-.78 1.34-1.16 2.47-1.16h1.22v20.48c0 1.36-.05 2.19-.14 2.5-.12.46-.29.77-.51.96-.3.27-.69.41-1.18.41h-.54v1.01h8.82v-1.01h-.56c-.48 0-.87-.13-1.14-.39-.27-.25-.45-.56-.56-.9-.09-.35-.14-1.2-.14-2.59V6.2h1.22c1.13 0 1.96.38 2.47 1.16.73 1.06.62 2.59.81 4.58h1.02V4.65H70.35z" fill="#004F9E"/><path fill-rule="evenodd" clip-rule="evenodd" d="M85.44 4.65v7.29h-1.02c-.19-1.99-.09-3.51-.81-4.58-.51-.78-1.35-1.16-2.47-1.16h-1.22v20.48c0 1.38.05 2.24.14 2.59.1.34.28.64.56.9s.66.39 1.14.39h.56v1.01H73.5v-1.01h.55c.49 0 .89-.14 1.18-.41.22-.19.39-.5.51-.96.09-.31.14-1.14.14-2.5V6.2h-1.22c-1.13 0-1.97.38-2.47 1.16-.73 1.06-.62 2.59-.81 4.58h-1.02V4.65h15.08zm27.19 22.63c-1.24 2.04-4.12.78-2.67-2.33.49-1.07 1.67-2.83 2.67-3.77v6.1zm4.52 1.19c-.22.48-.71.39-.8.28-.09-.09-.14-.27-.19-.47-.04-.22-.05-.76-.05-1.61v-6.81c0-2-.07-3.29-.18-3.84-.32-1.68-1.36-3.54-3.87-3.54-.91 0-1.78.23-2.63.69-.85.47-1.51 1.13-1.97 2-.47.86-.68 1.59-.77 2.85-.05 1.58.91 2.21 1.9 2.21.98 0 1.78-.79 1.78-1.78 0-.35-.09-.61-.27-.94-.27-.5-1.56-1.45-.37-2.94.36-.38.81-.58 1.34-.58.96 0 1.24.69 1.42 1.36.1.36.15 1.25.15 2.65v1.87c-2.56 1.87-4.21 3.38-4.98 4.51-.76 1.14-1.28 2.13-1.28 3.54 0 2.11 1.17 3.91 2.96 3.91s2.78-1.19 3.3-2.97c.08 1.01.31 1.75.69 2.24.38.49.89.74 1.55.74.57 0 1.3-.18 1.73-.62.44-.43.83-1.09 1.25-2.08l-.71-.67zm7.62-15.44v2.4c.64-1.03 1.26-1.78 1.84-2.25.59-.48 1.21-.71 1.89-.71.8 0 1.48.33 2.01 1 .53.67.89 1.5 1.06 2.48.15.76.22 2.21.22 4.35v6.89c0 1.43.09 2.32.26 2.66.17.35.54.58 1.09.67v1.03h-6.3v-1.03c.47-.09.81-.39 1.02-.87.14-.34.21-1.15.21-2.47v-7.92c0-1.53-.04-2.48-.12-2.87-.08-.4-.22-.71-.41-.92-.19-.23-.4-.33-.63-.33-.77 0-1.48.81-2.13 2.44v9.61c0 1.39.09 2.27.26 2.64.18.37.5.6.97.7v1.03h-6.3v-1.03c.52-.08.89-.33 1.12-.76.15-.29.23-1.15.23-2.58v-9.92c0-1.4-.09-2.27-.26-2.61-.17-.34-.54-.57-1.08-.68v-.96h5.05v.01zM98.88 27.35c-.3.89-.73 1.58-1.29 2.05-.55.48-1.16.71-1.83.71-.45 0-.78-.18-1.01-.54-.23-.37-.34-.91-.34-1.62l.02-1v-8.63c1.26-.02 2.21.17 2.85.57.64.4 1.14 1.1 1.5 2.09.37 1 .55 2.13.55 3.39 0 1.1-.15 2.09-.45 2.98zM94.44 6.16c1.2-.01 2.08.18 2.62.58.55.39.97.97 1.26 1.74.29.76.44 1.74.44 2.93 0 1.19-.15 2.17-.44 2.94-.3.77-.73 1.36-1.28 1.79-.56.42-1.42.63-2.59.63V6.16h-.01zm7.86 13.3c-.65-.84-1.76-1.57-3.36-2.16 1.48-.59 2.51-1.4 3.09-2.41.59-1.02.88-2.17.88-3.47 0-1.23-.23-2.4-.69-3.49-.46-1.09-1.09-1.91-1.89-2.46-.8-.55-2.16-.83-4.09-.83h-8.05v1.02c.77 0 1.29.11 1.57.34.28.23.48.52.59.9.12.38.17 1.3.17 2.75v16.89c0 1.45-.05 2.36-.17 2.73-.11.37-.3.67-.58.9-.28.24-.8.36-1.58.36v1.03h8.54c2.37 0 4.18-.8 5.43-2.41 1.02-1.32 1.52-3 1.52-5.02 0-1.9-.45-3.46-1.38-4.67z" fill="#004F9E"/></symbol><symbol fill="none" viewBox="0 0 144 49" id="logo--white" xmlns="http://www.w3.org/2000/svg"><g clip-path="url(#atclip0_302_2)"><path d="M15.8 40.7c-.7-.4-1.6-.7-2.5-.6-.4 0-.8 0-1.2.1v-2.6h4.1v-1H11V46c.6.1 1.3.1 1.9.1 1.2.1 2.4-.3 3.4-1.1.5-.5.8-1.3.8-2.1s-.5-1.7-1.3-2.2zm-.6 3.7c-.5.5-1.2.8-2 .7-.3 0-.7 0-1-.1v-4h1c.6 0 1.3.1 1.8.5s.7.9.7 1.5c.1.6-.1 1.1-.5 1.4zm8.2-2.5c0-1.4-.5-2.7-2.6-2.7-.8 0-1.6.2-2.2.6l.3.8c.5-.3 1.1-.5 1.8-.5.8-.1 1.5.5 1.6 1.3v.4c-2.6 0-4.1.9-4.1 2.5 0 1.1.9 2 2 2h.1c.8 0 1.6-.3 2.1-1l.1.8h1.1c-.1-.5-.1-1.1-.1-1.6v-2.6h-.1zm-1.2 1.8c0 .1 0 .3-.1.4-.2.7-.9 1.2-1.6 1.1-.6 0-1.1-.4-1.2-1V44c0-1.3 1.5-1.6 2.9-1.5v1.2zm7.6-1.7h-3.2v-2.7h-1.2V46h1.2v-3.1h3.2V46H31v-6.8h-1.2V42zm5.9.3l3-3.1h-1.5l-2.6 3h-.3v-3h-1.2V46h1.2v-3h.2c1-.1 2 .6 2.3 1.6.2.5.4.9.6 1.4h1.3c-.3-.5-.5-1.1-.7-1.7-.5-1.2-1.2-1.9-2.3-2zM46 40.1c.5 0 1 .1 1.4.3l.3-1c-.5-.2-1.1-.3-1.7-.3-1.9-.1-3.5 1.3-3.7 3.3v.4c-.1 1.8 1.2 3.3 3 3.5h.4c.7 0 1.4-.1 2-.4l-.2-.9c-.5.2-1 .3-1.5.3-1.3 0-2.4-1-2.4-2.3v-.2c-.1-1.3.8-2.4 2.1-2.6.1-.1.2-.1.3-.1zm6.9 2.4c.8-.1 1.4-.7 1.4-1.5 0-1.5-1.9-1.7-3-1.7-.7 0-1.5 0-2.2.1V46c.4 0 1.1.1 1.9.1 1.3 0 3.6-.2 3.6-2 0-1-.7-1.5-1.7-1.6zm-2.6-2.4c.3 0 .7-.1 1 0 1.2 0 1.8.3 1.8 1s-1 1-1.9 1h-.9v-2zm1 5.2h-1v-2.4h.9c1.2 0 2.2.2 2.2 1.2-.1 1-1.3 1.2-2.1 1.2zm7.6-6.2c-2 0-3.2 1.6-3.2 3.7-.1 1.7 1.2 3.3 2.9 3.4h.4c.8 0 1.6-.1 2.3-.4l-.3-.9c-.6.3-1.2.4-1.9.4-1.2.1-2.3-.8-2.3-2v-.4h4.8v-.6c.1-1.3-.5-3.2-2.7-3.2zm-2 2.9c0-1 .9-1.9 1.9-2 1 0 1.8.8 1.7 1.8v.2h-3.6zm11.9.4l2.7-3.1H70l-2.3 3h-.2v-3h-1.2v3H66l-2.2-3h-1.4l2.7 3.1c-1 .1-1.8.8-2.1 1.8-.2.6-.5 1.2-.7 1.8h1.2c.3-.5.5-1 .7-1.5.2-.9 1-1.6 2-1.5h.2v3h1.2v-2.9h.2c.9-.1 1.8.6 2 1.5.1.5.3 1 .6 1.5h1.2c-.3-.6-.5-1.3-.8-1.9-.3-1-1.1-1.8-2-1.8zm6.1.4c-.5.8-.7 1.3-1.1 2.1.1-1 .1-1.7.1-2.7v-2.9h-1.3V46H74c.7-1.2 1.5-2.5 2.1-3.6.4-.7.7-1.2 1.1-2.1 0 1.1-.1 1.7-.1 2.8V46h1.2v-6.8H77l-2.1 3.6zm10.8-3.5h-1.4l-1 1.4c-.2.4-.5.7-.7 1.1-.2-.4-.4-.7-.7-1.1l-1-1.5h-1.4l2.3 3.3-2.3 3.5h1.4l1-1.5c.3-.4.5-.8.7-1.2.2.4.5.8.7 1.2l1 1.5h1.4l-2.4-3.5 2.4-3.2zm7.8-.2c-1 0-1.9.5-2.4 1.3l-.1-1.1h-1.1c0 .6.1 1.4.1 2.2v7.4h1.2v-3.7c.5.7 1.3 1.1 2.1 1.1 1.6 0 3.1-1.2 3.1-3.7 0-2.1-1.3-3.5-2.9-3.5zm-.4 6.2c-.9 0-1.6-.6-1.9-1.4 0-.2-.1-.3-.1-.5v-1.2c0-.2 0-.3.1-.5.2-.9 1-1.5 1.9-1.5 1.3 0 2 1.2 2 2.5 0 1.4-.7 2.5-2 2.6zm7.5-6.2c-2 0-3.2 1.6-3.2 3.7-.2 1.7 1.1 3.3 2.9 3.4h.5c.8 0 1.5-.1 2.3-.4l-.2-.9c-.6.3-1.2.4-1.9.4-1.2.1-2.2-.8-2.3-2v-.4h4.8v-.6c0-1.3-.6-3.2-2.9-3.2zM98.7 42c0-1 .9-1.9 1.9-2 1 0 1.8.8 1.7 1.8v.2h-3.6zm13.4 3h-2.4v-5.8h-1.2V45h-2.4v-5.8h-1.2V46h8.4v-6.8h-1.2V45zm6-6c-2 0-3.2 1.6-3.2 3.7-.2 1.7 1.1 3.3 2.9 3.4h.5c.8 0 1.5-.1 2.3-.4l-.2-.9c-.6.3-1.2.4-1.9.4-1.2.1-2.2-.8-2.3-2v-.4h4.8v-.6c-.1-1.2-.7-3.1-2.9-3.2zm-2 3c0-1 .9-1.9 1.9-2 1 0 1.7.8 1.7 1.8v.2h-3.6zm10.8 0h-3.2v-2.7h-1.2V46h1.2v-3.1h3.2V46h1.2v-6.8h-1.2V42zm5.4.7c-.4.8-.7 1.3-1.1 2.1h-.1c.1-1 .1-1.7.1-2.7v-2.9H130V46h1.4c.7-1.2 1.5-2.5 2.1-3.6.4-.7.7-1.2 1.1-2.1-.1 1.1-.1 1.7-.1 2.8V46h1.2v-6.8h-1.4l-2 3.5zm8.4-4.5c.9.1 1.8-.6 1.9-1.5v-.2h-.9c-.1.6-.4 1.1-1 1.1s-.9-.5-.9-1.1h-.9c-.1.9.6 1.7 1.5 1.8.2-.1.2-.1.3-.1zm-.6 4.5c-.4.8-.7 1.3-1.1 2.1.1-1 .1-1.7.1-2.7v-2.9h-1.2V46h1.4c.7-1.2 1.5-2.5 2.1-3.6.4-.7.7-1.2 1.1-2.1-.1 1.1-.1 1.7-.1 2.8V46h1.2v-6.8h-1.5l-2 3.5zM37.9 14C36.7 7.7 31.1 3.3 24.8 3.3c-2.7 0-5.3.8-7.5 2.3l18.9 8.7c1.7.8 1.7-.3 1.7-.3zM35 24.8c-.3.2-.7.2-1 0l-21.8-8.1c-.6-.2-.9.2-.8.5.5 7 6.4 12.4 13.4 12.4 3.9 0 7.6-1.7 10.2-4.8zm-24.5-9.6c0-.3.2-.7.8-.4.7.2 22.9 9.2 23 9.2.7.2 1.3.2 1.6-.2.4-.6.8-1.3 1.1-2-.2.4-.9 1.3-2 1-.1 0-24.9-10.4-25.1-10.5-.9-.2-1.5.6-.9 1.3l2 2.6c-.2-.3-.3-.6-.5-1zM7.7 9.5c.2.1 27.5 11.8 27.7 11.9.7.4 1.6.2 2.1-.5 0 0 0-.1.1-.1.2-.6.4-1.2.5-1.9-.2.8-1.1 1.3-1.9 1h-.1L6.6 6.7c-.8-.4-2 .4-1.3 1.4l2.3 3.4c-.3-.5-.5-1-.6-1.6 0-.3.2-.5.4-.5.1 0 .2 0 .3.1zM4.5 4l31.8 13.9c.7.3 1.8.2 1.8-.7v-.8c0-.5 0-1-.1-1.5 0 .3-.3 1.8-1.9 1-.2-.1-32.5-15-33-15.3-.4-.3-1-.2-1.4.2-.4.4-.3 1 .1 1.4l2.6 4.1c-.3-.6-.5-1.2-.6-1.9-.1-.3.2-.6.7-.4zm118.3 8.9c.4.1.7.3.9.7.2.8.3 1.7.2 2.5v4.1h-3.5v-4c-.1-.8 0-1.7.2-2.5.2-.4.5-.6.9-.7v-1h-5.6v1c.4.1.8.3 1 .7.2.8.3 1.6.2 2.5v9.5c.1.8 0 1.6-.2 2.5-.2.4-.6.7-1 .7v1h5.6v-1c-.4-.1-.7-.3-.9-.7-.2-.8-.3-1.7-.2-2.5v-4.3h3.5v4.3c.1.8 0 1.7-.2 2.5-.2.4-.5.6-.9.7v1h5.6v-1c-.4-.1-.8-.3-1-.7-.2-.8-.3-1.6-.2-2.5v-9.5c-.1-.8 0-1.6.2-2.5.2-.4.6-.7 1-.7v-1h-5.6v.9zM50.2 28.7c-.6.1-1.2-.2-1.6-.6-.4-.4-.6-1-.7-1.5V7.8l5.9 21.9h.8l5.6-21.5v16.9c0 .8 0 1.6-.1 2.4-.1.3-.2.7-.5.9-.3.3-.7.4-1.1.4H58v1h8.4v-1h-.5c-.4 0-.8-.1-1.1-.4-.3-.2-.4-.5-.5-.9-.1-.8-.2-1.6-.1-2.5V8.7c0-.8 0-1.6.1-2.4.1-.3.2-.6.5-.9.2-.3.6-.4 1-.4h.5V4h-6.5l-4.4 17-4.5-17h-6.6v1h.5c.4 0 .8.1 1.1.4.3.2.4.5.5.9.1.8.2 1.6.1 2.4v17.7c-.1.5-.2.9-.4 1.4-.1.3-.4.6-.7.8-.3.2-.6.3-1 .3h-.2v1h5.9l.1-1.2zm92.5-.7c-.7-1.3-1.3-2.6-1.9-3.9l-2.6-6.1s2.4-3.8 3.3-4.5c.3-.3.8-.5 1.2-.5v-1h-4.9v1c1.7 0 1.5 1.4 1.1 2.1-.1.2-3.6 5.6-3.6 5.6V4h-4.5v1c.4 0 .8.3 1 .6.2.8.3 1.7.2 2.5v17.5c.1.8 0 1.6-.2 2.4-.2.4-.6.7-1 .7v1h5.7v-1c-.4 0-.8-.3-1-.6-.2-.3-.2-.6-.2-2.5v-3l.7-1.1 2.2 4.9c.3.5.4 1.1.5 1.6 0 .2-.1.4-.2.5-.1.2-.3.3-.6.2v1h5.7v-1c-.3 0-.7-.3-.9-.7zM74 27.4c-.1.3-.2.7-.5.9-.3.3-.7.4-1.1.4h-.5v1h8.4v-1h-.5c-.4 0-.8-.1-1.1-.4-.3-.2-.4-.5-.5-.9-.2-.7-.2-1.6-.2-2.4V5.5h1.2c.9-.1 1.8.3 2.4 1.1.7 1 .6 2.5.8 4.4h1V4.1H68.9V11h1c.2-1.9.1-3.4.8-4.4.5-.7 1.4-1.2 2.3-1.1h1.2v19.6c-.1.8-.1 1.6-.2 2.3zm24.1 1c.4-.3.7-.6 1-1 0-.1.1-.2.1-.2 1.1-1.7 1.6-5.2 1.3-8.3 0-1.6-.5-3.2-1.4-4.6-.2-.3-.4-.5-.7-.7l-.1-.1c-.7-.6-1.5-1.1-2.4-1.3-1.4-.4-2.9-.5-4.4-.5V5.5h3.2c.3 0 .7.1 1 .2.5.2 1 .5 1.3 1 .4.5.6 1.2.6 1.8.2.7.3 1.5.4 2.5h1V4H85.7v1c.5-.1 1.1.1 1.5.3.3.2.5.5.6.9v.2c.1.7.1 1.4.1 2.1V25c0 .7 0 1.5-.1 2.2 0 .1 0 .2-.1.4 0 .1-.1.2-.1.3-.1.2-.2.4-.4.6-.3.2-.6.3-1 .3h-.6v1h8.2c1.5 0 3-.4 4.3-1.4zm-5.7-.2c-.2-.1-.3-.2-.4-.4-.1-.1-.1-.2-.1-.4-.1-.4-.2-.8-.2-1.2v-13c.8 0 1.6.1 2.3.3.2.1.3.1.4.2.7.5 1.2 1.2 1.4 2 .1.2.1.5.2.7.1.3.1.3.1.5.2.8.3 1.6.3 2.4.1 1.4.1 2.8-.1 4.2 0 .4-.1.8-.2 1.2-.1.3-.2.7-.3 1-.2.7-.6 1.3-1.1 1.8l-.1.1c-.1.1-.3.2-.4.3-.4.2-.9.4-1.3.4-.2.1-.3 0-.5-.1zm20.2-1.1c-.1-.1-.2-.3-.2-.5v-8c0-1.2 0-2.5-.2-3.7-.3-1.6-1.3-3.4-3.7-3.4-.9 0-1.7.2-2.5.7-.8.4-1.5 1.1-1.9 1.9-.5.8-.7 1.8-.7 2.7-.2 1 .5 1.9 1.4 2.1h.4c.9 0 1.7-.8 1.7-1.7 0-.3-.1-.6-.3-.9-.3-.5-1.5-1.4-.4-2.8.3-.4.8-.6 1.3-.6.9 0 1.2.7 1.4 1.3.1.8.2 1.7.1 2.5v1.8c-1.8 1.2-3.4 2.6-4.7 4.3-.8 1-1.2 2.2-1.3 3.4 0 2 1.1 3.7 2.8 3.7 1.7 0 2.6-1.1 3.1-2.8 0 .8.2 1.5.7 2.1.4.5.9.7 1.5.7s1.2-.2 1.7-.6c.5-.6.9-1.2 1.2-2l-.7-.6c-.1.4-.4.5-.7.4zm-3.6-1.4c-1.2 2-4 .7-2.5-2.2.6-1.3 1.5-2.5 2.5-3.6v5.8z" fill="currentColor"/></g><defs><clipPath id="atclip0_302_2"><path fill="currentColor" d="M0 0h143.7v48.8H0z"/></clipPath></defs></symbol><symbol fill="none" viewBox="0 0 149 47" id="logo--whiteen" xmlns="http://www.w3.org/2000/svg"><g clip-path="url(#auclip0)" fill-rule="evenodd" clip-rule="evenodd" fill="#fff"><path d="M24.36 8.88c-2.93 0-5.65.87-7.89 2.37 0 0 19.78 9.14 19.83 9.15 1.85.82 1.88-.36 1.88-.36-1.26-6.36-6.97-11.16-13.82-11.16zm9.7 22.67c-.02-.01-23.76-8.93-23.76-8.93v.01c0 7.6 6.29 13.76 14.06 13.76 4.31 0 8.17-1.9 10.75-4.88-.01-.01-.44.29-1.05.04z"/><path d="M36.03 26.25c-.07-.02-30.43-13.67-30.75-13.82-.84-.38-2.04.44-1.38 1.46l2.49 3.59s-.7-1.15-.63-1.69c.04-.38.41-.55.68-.43.26.1 28.83 12.35 28.99 12.42 1.03.45 1.89.13 2.21-.62.22-.64.4-1.3.53-1.98-.13.33-.74 1.62-2.14 1.07zm2.3-5.16c-.03.34-.27 1.86-1.96 1.06-.29-.14-34.24-15.84-34.71-16.07-.64-.3-2.06.2-1.33 1.61.02.04 2.72 4.35 2.69 4.29-.04-.06-.44-1.03-.62-1.92-.09-.35.23-.68.72-.46.06.02 33.09 14.5 33.32 14.6.71.33 1.89.17 1.94-.72.02-.28.03-.56.03-.85 0-.51-.02-1.03-.08-1.54zm-3.24 8.28c-.1-.03-26.1-10.87-26.34-10.98-.93-.37-1.52.49-.93 1.3.08.1 2.12 2.73 2.12 2.73s-.44-.76-.47-1.09c-.03-.34.18-.7.86-.42.67.28 23.88 9.65 23.95 9.69.72.25 1.37.23 1.67-.18.47-.66.85-1.3 1.2-2.05-.24.38-.99 1.4-2.06 1zm21.4-1.97l4.58-17.75h6.86v1.01h-.55c-.49 0-.9.14-1.19.42-.2.2-.37.51-.5.93-.09.32-.14 1.15-.14 2.49v17.19c0 1.38.06 2.24.14 2.59.09.34.28.64.56.9.29.26.66.39 1.13.39h.55v1.01h-8.81v-1.01h.55c.5 0 .89-.14 1.2-.41.2-.19.38-.5.49-.96.09-.31.13-1.14.13-2.5V13.99l-5.96 22.58h-.8l-6.17-22.96v17.26c0 1.33.02 2.14.05 2.44.12.66.34 1.21.71 1.62.35.42.92.63 1.7.63v1.01h-6.16v-1.01h.17c.38.01.73-.09 1.04-.29.33-.2.58-.47.74-.81.17-.35.3-.84.39-1.46.01-.15.02-.82.02-2.02V14.5c0-1.36-.04-2.22-.13-2.56-.1-.34-.28-.64-.57-.9-.28-.26-.66-.39-1.13-.39h-.54v-1h6.88l4.76 17.75z"/><path d="M67.93 9.65v1.01h-.55c-.49 0-.9.14-1.19.42-.2.2-.37.51-.5.93-.09.32-.14 1.15-.14 2.49v17.19c0 1.38.06 2.24.14 2.59.09.34.28.64.56.9.29.26.66.39 1.13.39h.55v1.01h-8.81v-1.01h.55c.5 0 .89-.14 1.2-.41.2-.19.38-.5.49-.96.09-.31.13-1.14.13-2.5V13.99l-5.96 22.58h-.8l-6.17-22.96v17.26c0 1.33.02 2.14.05 2.44.12.66.34 1.21.71 1.62.35.42.92.63 1.7.63v1.01h-6.16v-1.01h.24c.35 0 .68-.1.98-.29.33-.2.58-.47.74-.81.17-.35.3-.84.39-1.46.01-.15.02-.82.02-2.02V14.5c0-1.36-.04-2.22-.13-2.56-.1-.34-.28-.64-.57-.9-.28-.26-.66-.39-1.13-.39h-.54v-1h6.88l4.74 17.75 4.58-17.75h6.87zm72.25 0v17.44s3.59-5.55 3.74-5.82c.45-.75.67-2.24-1.14-2.24v-1.01h5.21v1.01c-.49.04-.93.23-1.31.57-.95.73-3.45 4.75-3.45 4.75l2.74 6.39c1.1 2.59 1.76 3.77 1.96 4.09.28.45.64.71 1.07.76v.99h-6.01v-.99c.26 0 .46-.09.58-.25.11-.16.18-.32.18-.51 0-.3-.17-.86-.52-1.69l-2.29-5.1-.76 1.17v3.06c0 2.07.09 2.31.26 2.65.17.34.5.57 1.02.67v.99h-6.01v-.99c.5-.09.84-.33 1.05-.76.14-.29.22-1.14.22-2.56V13.96c0-1.4-.09-2.27-.25-2.61-.16-.34-.5-.57-1.02-.68V9.65h4.73zm-69.83 0v7.29h1.02c.19-1.99.09-3.51.81-4.58.51-.78 1.34-1.16 2.47-1.16h1.22v20.48c0 1.36-.05 2.19-.14 2.5-.12.46-.29.77-.51.96-.3.27-.69.41-1.18.41h-.54v1.01h8.82v-1.01h-.56c-.48 0-.87-.13-1.14-.39-.27-.25-.45-.56-.56-.9-.09-.35-.14-1.2-.14-2.59V11.2h1.22c1.13 0 1.96.38 2.47 1.16.73 1.06.62 2.59.81 4.58h1.02V9.65H70.35z"/><path d="M85.44 9.65v7.29h-1.02c-.19-1.99-.09-3.51-.81-4.58-.51-.78-1.35-1.16-2.47-1.16h-1.22v20.48c0 1.38.05 2.24.14 2.59.1.34.28.64.56.9s.66.39 1.14.39h.56v1.01H73.5v-1.01h.55c.49 0 .89-.14 1.18-.41.22-.19.39-.5.51-.96.09-.31.14-1.14.14-2.5V11.2h-1.22c-1.13 0-1.97.38-2.47 1.16-.73 1.06-.62 2.59-.81 4.58h-1.02V9.65h15.08zm27.19 22.63c-1.24 2.04-4.12.78-2.67-2.33.49-1.07 1.67-2.83 2.67-3.77v6.1zm4.52 1.19c-.22.48-.71.39-.8.28-.09-.09-.14-.27-.19-.47-.04-.22-.05-.76-.05-1.61v-6.81c0-2-.07-3.29-.18-3.84-.32-1.68-1.36-3.54-3.87-3.54-.91 0-1.78.23-2.63.69-.85.47-1.51 1.13-1.97 2-.47.86-.68 1.59-.77 2.85-.05 1.58.91 2.21 1.9 2.21.98 0 1.78-.79 1.78-1.78 0-.35-.09-.61-.27-.94-.27-.5-1.56-1.45-.37-2.94.36-.38.81-.58 1.34-.58.96 0 1.24.69 1.42 1.36.1.36.15 1.25.15 2.65v1.87c-2.56 1.87-4.21 3.38-4.98 4.51-.76 1.14-1.28 2.13-1.28 3.54 0 2.11 1.17 3.91 2.96 3.91s2.78-1.19 3.3-2.97c.08 1.01.31 1.75.69 2.24.38.49.89.74 1.55.74.57 0 1.3-.18 1.73-.62.44-.43.83-1.09 1.25-2.08l-.71-.67zm7.62-15.44v2.4c.64-1.03 1.26-1.78 1.84-2.25.59-.48 1.21-.71 1.89-.71.8 0 1.48.33 2.01 1 .53.67.89 1.5 1.06 2.48.15.76.22 2.21.22 4.35v6.89c0 1.43.09 2.32.26 2.66.17.35.54.58 1.09.67v1.03h-6.3v-1.03c.47-.09.81-.39 1.02-.87.14-.34.21-1.15.21-2.47v-7.92c0-1.53-.04-2.48-.12-2.87-.08-.4-.22-.71-.41-.92-.19-.23-.4-.33-.63-.33-.77 0-1.48.81-2.13 2.44v9.61c0 1.39.09 2.27.26 2.64.18.37.5.6.97.7v1.03h-6.3v-1.03c.52-.08.89-.33 1.12-.76.15-.29.23-1.15.23-2.58v-9.92c0-1.4-.09-2.27-.26-2.61-.17-.34-.54-.57-1.08-.68v-.96h5.05v.01zM98.88 32.35c-.3.89-.73 1.58-1.29 2.05-.55.48-1.16.71-1.83.71-.45 0-.78-.18-1.01-.54-.23-.37-.34-.91-.34-1.62l.02-1v-8.63c1.26-.02 2.21.17 2.85.57.64.4 1.14 1.1 1.5 2.09.37 1 .55 2.13.55 3.39 0 1.1-.15 2.09-.45 2.98zm-4.44-21.19c1.2-.01 2.08.18 2.62.58.55.39.97.97 1.26 1.74.29.76.44 1.74.44 2.93 0 1.19-.15 2.17-.44 2.94-.3.77-.73 1.36-1.28 1.79-.56.42-1.42.63-2.59.63V11.16h-.01zm7.86 13.3c-.65-.84-1.76-1.57-3.36-2.16 1.48-.59 2.51-1.4 3.09-2.41.59-1.02.88-2.17.88-3.47 0-1.23-.23-2.4-.69-3.49-.46-1.09-1.09-1.91-1.89-2.46-.8-.55-2.16-.83-4.09-.83h-8.05v1.02c.77 0 1.29.11 1.57.34.28.23.48.52.59.9.12.38.17 1.3.17 2.75v16.89c0 1.45-.05 2.36-.17 2.73-.11.37-.3.67-.58.9-.28.24-.8.36-1.58.36v1.03h8.54c2.37 0 4.18-.8 5.43-2.41 1.02-1.32 1.52-3 1.52-5.02 0-1.9-.45-3.46-1.38-4.67zM24.36 8.88c-2.93 0-5.65.87-7.89 2.37 0 0 19.78 9.14 19.83 9.15 1.85.82 1.88-.36 1.88-.36-1.26-6.36-6.97-11.16-13.82-11.16zm9.7 22.67c-.02-.01-23.76-8.93-23.76-8.93v.01c0 7.6 6.29 13.76 14.06 13.76 4.31 0 8.17-1.9 10.75-4.88-.01-.01-.44.29-1.05.04z"/><path d="M36.03 26.25c-.07-.02-30.43-13.67-30.75-13.82-.84-.38-2.04.44-1.38 1.46l2.49 3.59s-.7-1.15-.63-1.69c.04-.38.41-.55.68-.43.26.1 28.83 12.35 28.99 12.42 1.03.45 1.89.13 2.21-.62.22-.64.4-1.3.53-1.98-.13.33-.74 1.62-2.14 1.07zm2.3-5.16c-.03.34-.27 1.86-1.96 1.06-.29-.14-34.24-15.84-34.71-16.07-.64-.3-2.06.2-1.33 1.61.02.04 2.72 4.35 2.69 4.29-.04-.06-.44-1.03-.62-1.92-.09-.35.23-.68.72-.46.06.02 33.09 14.5 33.32 14.6.71.33 1.89.17 1.94-.72.02-.28.03-.56.03-.85 0-.51-.02-1.03-.08-1.54zm-3.24 8.28c-.1-.03-26.1-10.87-26.34-10.98-.93-.37-1.52.49-.93 1.3.08.1 2.12 2.73 2.12 2.73s-.44-.76-.47-1.09c-.03-.34.18-.7.86-.42.67.28 23.88 9.65 23.95 9.69.72.25 1.37.23 1.67-.18.47-.66.85-1.3 1.2-2.05-.24.38-.99 1.4-2.06 1zm21.4-1.97l4.58-17.75h6.86v1.01h-.55c-.49 0-.9.14-1.19.42-.2.2-.37.51-.5.93-.09.32-.14 1.15-.14 2.49v17.19c0 1.38.06 2.24.14 2.59.09.34.28.64.56.9.29.26.66.39 1.13.39h.55v1.01h-8.81v-1.01h.55c.5 0 .89-.14 1.2-.41.2-.19.38-.5.49-.96.09-.31.13-1.14.13-2.5V13.99l-5.96 22.58h-.8l-6.17-22.96v17.26c0 1.33.02 2.14.05 2.44.12.66.34 1.21.71 1.62.35.42.92.63 1.7.63v1.01h-6.16v-1.01h.17c.38.01.73-.09 1.04-.29.33-.2.58-.47.74-.81.17-.35.3-.84.39-1.46.01-.15.02-.82.02-2.02V14.5c0-1.36-.04-2.22-.13-2.56-.1-.34-.28-.64-.57-.9-.28-.26-.66-.39-1.13-.39h-.54v-1h6.88l4.76 17.75z"/><path d="M67.93 9.65v1.01h-.55c-.49 0-.9.14-1.19.42-.2.2-.37.51-.5.93-.09.32-.14 1.15-.14 2.49v17.19c0 1.38.06 2.24.14 2.59.09.34.28.64.56.9.29.26.66.39 1.13.39h.55v1.01h-8.81v-1.01h.55c.5 0 .89-.14 1.2-.41.2-.19.38-.5.49-.96.09-.31.13-1.14.13-2.5V13.99l-5.96 22.58h-.8l-6.17-22.96v17.26c0 1.33.02 2.14.05 2.44.12.66.34 1.21.71 1.62.35.42.92.63 1.7.63v1.01h-6.16v-1.01h.24c.35 0 .68-.1.98-.29.33-.2.58-.47.74-.81.17-.35.3-.84.39-1.46.01-.15.02-.82.02-2.02V14.5c0-1.36-.04-2.22-.13-2.56-.1-.34-.28-.64-.57-.9-.28-.26-.66-.39-1.13-.39h-.54v-1h6.88l4.74 17.75 4.58-17.75h6.87zm72.25 0v17.44s3.59-5.55 3.74-5.82c.45-.75.67-2.24-1.14-2.24v-1.01h5.21v1.01c-.49.04-.93.23-1.31.57-.95.73-3.45 4.75-3.45 4.75l2.74 6.39c1.1 2.59 1.76 3.77 1.96 4.09.28.45.64.71 1.07.76v.99h-6.01v-.99c.26 0 .46-.09.58-.25.11-.16.18-.32.18-.51 0-.3-.17-.86-.52-1.69l-2.29-5.1-.76 1.17v3.06c0 2.07.09 2.31.26 2.65.17.34.5.57 1.02.67v.99h-6.01v-.99c.5-.09.84-.33 1.05-.76.14-.29.22-1.14.22-2.56V13.96c0-1.4-.09-2.27-.25-2.61-.16-.34-.5-.57-1.02-.68V9.65h4.73zm-69.83 0v7.29h1.02c.19-1.99.09-3.51.81-4.58.51-.78 1.34-1.16 2.47-1.16h1.22v20.48c0 1.36-.05 2.19-.14 2.5-.12.46-.29.77-.51.96-.3.27-.69.41-1.18.41h-.54v1.01h8.82v-1.01h-.56c-.48 0-.87-.13-1.14-.39-.27-.25-.45-.56-.56-.9-.09-.35-.14-1.2-.14-2.59V11.2h1.22c1.13 0 1.96.38 2.47 1.16.73 1.06.62 2.59.81 4.58h1.02V9.65H70.35z"/><path d="M85.44 9.65v7.29h-1.02c-.19-1.99-.09-3.51-.81-4.58-.51-.78-1.35-1.16-2.47-1.16h-1.22v20.48c0 1.38.05 2.24.14 2.59.1.34.28.64.56.9s.66.39 1.14.39h.56v1.01H73.5v-1.01h.55c.49 0 .89-.14 1.18-.41.22-.19.39-.5.51-.96.09-.31.14-1.14.14-2.5V11.2h-1.22c-1.13 0-1.97.38-2.47 1.16-.73 1.06-.62 2.59-.81 4.58h-1.02V9.65h15.08zm27.19 22.63c-1.24 2.04-4.12.78-2.67-2.33.49-1.07 1.67-2.83 2.67-3.77v6.1zm4.52 1.19c-.22.48-.71.39-.8.28-.09-.09-.14-.27-.19-.47-.04-.22-.05-.76-.05-1.61v-6.81c0-2-.07-3.29-.18-3.84-.32-1.68-1.36-3.54-3.87-3.54-.91 0-1.78.23-2.63.69-.85.47-1.51 1.13-1.97 2-.47.86-.68 1.59-.77 2.85-.05 1.58.91 2.21 1.9 2.21.98 0 1.78-.79 1.78-1.78 0-.35-.09-.61-.27-.94-.27-.5-1.56-1.45-.37-2.94.36-.38.81-.58 1.34-.58.96 0 1.24.69 1.42 1.36.1.36.15 1.25.15 2.65v1.87c-2.56 1.87-4.21 3.38-4.98 4.51-.76 1.14-1.28 2.13-1.28 3.54 0 2.11 1.17 3.91 2.96 3.91s2.78-1.19 3.3-2.97c.08 1.01.31 1.75.69 2.24.38.49.89.74 1.55.74.57 0 1.3-.18 1.73-.62.44-.43.83-1.09 1.25-2.08l-.71-.67zm7.62-15.44v2.4c.64-1.03 1.26-1.78 1.84-2.25.59-.48 1.21-.71 1.89-.71.8 0 1.48.33 2.01 1 .53.67.89 1.5 1.06 2.48.15.76.22 2.21.22 4.35v6.89c0 1.43.09 2.32.26 2.66.17.35.54.58 1.09.67v1.03h-6.3v-1.03c.47-.09.81-.39 1.02-.87.14-.34.21-1.15.21-2.47v-7.92c0-1.53-.04-2.48-.12-2.87-.08-.4-.22-.71-.41-.92-.19-.23-.4-.33-.63-.33-.77 0-1.48.81-2.13 2.44v9.61c0 1.39.09 2.27.26 2.64.18.37.5.6.97.7v1.03h-6.3v-1.03c.52-.08.89-.33 1.12-.76.15-.29.23-1.15.23-2.58v-9.92c0-1.4-.09-2.27-.26-2.61-.17-.34-.54-.57-1.08-.68v-.96h5.05v.01zM98.88 32.35c-.3.89-.73 1.58-1.29 2.05-.55.48-1.16.71-1.83.71-.45 0-.78-.18-1.01-.54-.23-.37-.34-.91-.34-1.62l.02-1v-8.63c1.26-.02 2.21.17 2.85.57.64.4 1.14 1.1 1.5 2.09.37 1 .55 2.13.55 3.39 0 1.1-.15 2.09-.45 2.98zm-4.44-21.19c1.2-.01 2.08.18 2.62.58.55.39.97.97 1.26 1.74.29.76.44 1.74.44 2.93 0 1.19-.15 2.17-.44 2.94-.3.77-.73 1.36-1.28 1.79-.56.42-1.42.63-2.59.63V11.16h-.01zm7.86 13.3c-.65-.84-1.76-1.57-3.36-2.16 1.48-.59 2.51-1.4 3.09-2.41.59-1.02.88-2.17.88-3.47 0-1.23-.23-2.4-.69-3.49-.46-1.09-1.09-1.91-1.89-2.46-.8-.55-2.16-.83-4.09-.83h-8.05v1.02c.77 0 1.29.11 1.57.34.28.23.48.52.59.9.12.38.17 1.3.17 2.75v16.89c0 1.45-.05 2.36-.17 2.73-.11.37-.3.67-.58.9-.28.24-.8.36-1.58.36v1.03h8.54c2.37 0 4.18-.8 5.43-2.41 1.02-1.32 1.52-3 1.52-5.02 0-1.9-.45-3.46-1.38-4.67z"/></g><defs><clipPath id="auclip0"><path fill="#fff" d="M0 0h149v47H0z"/></clipPath></defs></symbol><symbol fill="none" viewBox="0 0 22 13" id="scroll-up" xmlns="http://www.w3.org/2000/svg"><path d="M2 11l9-9 9 9" stroke="currentColor" stroke-width="2.5" stroke-linecap="round" stroke-linejoin="round"/></symbol><symbol fill="none" viewBox="0 0 22 22" id="ui--attach" xmlns="http://www.w3.org/2000/svg"><path d="M8.162 15.047l7.989-7.911a1.636 1.636 0 000-2.326 1.658 1.658 0 00-1.175-.482c-.444 0-.86.17-1.175.482L2.942 15.565a3.165 3.165 0 000 4.502A3.21 3.21 0 005.213 21a3.21 3.21 0 002.273-.933L18.603 9.06A4.668 4.668 0 0020 5.72a4.668 4.668 0 00-1.397-3.339 4.808 4.808 0 00-6.744 0l-8.244 8.164" stroke="currentColor" stroke-width="1.6" stroke-linecap="round" stroke-linejoin="round"/></symbol><symbol fill="none" viewBox="0 0 18 18" id="ui--call" xmlns="http://www.w3.org/2000/svg"><path d="M16.773 1.636l-6.137 6.546m0 0V1.636m0 6.546h6.137m-3.914 4.502a7.434 7.434 0 01-2.335-.372c-.365-.125-.814-.01-1.037.219l-1.472 1.11c-1.707-.91-2.759-1.961-3.657-3.656l1.078-1.433c.28-.28.38-.689.26-1.072a7.444 7.444 0 01-.373-2.339c0-.579-.471-1.05-1.05-1.05H1.869c-.58 0-1.05.471-1.05 1.05 0 6.64 5.4 12.04 12.04 12.04.579 0 1.05-.47 1.05-1.05v-2.397c0-.58-.471-1.05-1.05-1.05z" stroke="currentColor" stroke-width="1.5" stroke-linecap="round" stroke-linejoin="round"/></symbol><symbol fill="none" viewBox="0 0 24 24" id="ui--chat" xmlns="http://www.w3.org/2000/svg"><path d="M1.09 5.273v10.034a2 2 0 002 2h11.637l4.017 3.966.942-3.966h1.223a2 2 0 002-2V5.273a2 2 0 00-2-2H3.091a2 2 0 00-2 2z" stroke="currentColor" stroke-width="1.5" stroke-linecap="round" stroke-linejoin="round"/><circle cx="16.363" cy="9.818" fill="currentColor" r="1.091"/><circle cx="12" cy="9.818" fill="currentColor" r="1.091"/><circle cx="7.637" cy="9.818" r="1.091" fill="currentColor"/></symbol><symbol fill="none" viewBox="0 0 17 15" id="ui--convert" xmlns="http://www.w3.org/2000/svg"><path d="M15.24 6.084H2.581c-.8 0-1.201-1.017-.635-1.612l2.959-3.108M1.76 8.916h12.657c.8 0 1.201 1.017.635 1.612l-2.959 3.108" stroke="currentColor" stroke-width="1.6" stroke-linecap="round"/></symbol><symbol fill="none" viewBox="0 0 18 18" id="ui--convert-small" xmlns="http://www.w3.org/2000/svg"><path d="M17.087 7.3H1.9c-.961 0-1.442-1.22-.763-1.933l3.55-3.73M.914 10.698H16.1c.961 0 1.442 1.22.763 1.934l-3.55 3.73" stroke="#363C4E" stroke-width="1.6" stroke-linecap="round"/></symbol><symbol fill="none" viewBox="0 0 22 22" id="ui--filter" xmlns="http://www.w3.org/2000/svg"><path d="M1 7.45a.8.8 0 100 1.6v-1.6zm9.615 0a.8.8 0 000 1.6v-1.6zM21 9.05a.8.8 0 000-1.6v1.6zm0 7.5a.8.8 0 000-1.6v1.6zm-4.23-1.6a.8.8 0 000 1.6v-1.6zm-5.385 1.6a.8.8 0 000-1.6v1.6zM1 14.95a.8.8 0 000 1.6v-1.6zm0-5.9h4.615v-1.6H1v1.6zm9.615 0H21v-1.6H10.615v1.6zM21 14.95h-4.23v1.6H21v-1.6zm-9.615 0H1v1.6h10.385v-1.6zM9.43 8.25c0 .782-.656 1.45-1.508 1.45v1.6c1.697 0 3.108-1.347 3.108-3.05h-1.6zM7.923 9.7c-.852 0-1.508-.668-1.508-1.45h-1.6c0 1.703 1.411 3.05 3.108 3.05V9.7zM6.415 8.25c0-.782.656-1.45 1.508-1.45V5.2c-1.697 0-3.108 1.347-3.108 3.05h1.6zM7.923 6.8c.852 0 1.508.668 1.508 1.45h1.6c0-1.703-1.41-3.05-3.108-3.05v1.6zm4.646 8.95c0-.782.656-1.45 1.508-1.45v-1.6c-1.697 0-3.108 1.347-3.108 3.05h1.6zm1.508-1.45c.852 0 1.508.668 1.508 1.45h1.6c0-1.703-1.411-3.05-3.108-3.05v1.6zm1.508 1.45c0 .782-.656 1.45-1.508 1.45v1.6c1.697 0 3.108-1.347 3.108-3.05h-1.6zm-1.508 1.45c-.852 0-1.508-.668-1.508-1.45h-1.6c0 1.703 1.41 3.05 3.108 3.05v-1.6z" fill="currentColor"/></symbol><symbol fill="none" viewBox="0 0 18 18" id="ui--location" xmlns="http://www.w3.org/2000/svg"><path d="M9.409.818c-3.419 0-6.137 2.663-6.137 6.014 0 3.08 2.919 7.224 4.73 9.499a1.78 1.78 0 002.813 0c1.812-2.275 4.73-6.418 4.73-9.5 0-3.35-2.717-6.013-6.136-6.013z" stroke="currentColor" stroke-width="1.3" stroke-linecap="round"/><path d="M10.136 6.955a.727.727 0 11-1.454 0 .727.727 0 011.454 0z" stroke="currentColor"/></symbol><symbol fill="none" viewBox="0 0 24 24" id="ui--login" xmlns="http://www.w3.org/2000/svg"><path d="M12.166 8.073L15.936 12m0 0l-3.77 3.927M15.936 12H1.092m2.776-4.038c1.562-3.408 5.04-5.78 9.082-5.78 5.5 0 9.96 4.396 9.96 9.818s-4.46 9.818-9.96 9.818c-4.041 0-7.52-2.371-9.082-5.78" stroke="currentColor" stroke-width="1.3" stroke-linecap="round" stroke-linejoin="round"/></symbol><symbol viewBox="0 0 100 100" id="ui--nembo" xmlns="http://www.w3.org/2000/svg"><path fill="#363c4e" d="M80.7 10.4v60.2L26.6 10.4H0v79.2h19.3V29.5l54 60.1H100V10.4z"/></symbol><symbol fill="none" viewBox="0 0 18 18" id="ui--phone" xmlns="http://www.w3.org/2000/svg"><path d="M15.869 11.559a9.29 9.29 0 01-2.918-.465c-.457-.156-1.018-.013-1.297.274l-1.84 1.389c-2.134-1.14-3.448-2.453-4.571-4.571L6.59 6.394c.35-.35.476-.86.325-1.34A9.305 9.305 0 016.45 2.13c0-.724-.59-1.313-1.313-1.313H2.13c-.724 0-1.313.59-1.313 1.313 0 8.3 6.752 15.05 15.05 15.05.725 0 1.314-.588 1.314-1.312v-2.997c0-.724-.59-1.313-1.313-1.313z" stroke="currentColor" stroke-width="1.2"/></symbol><symbol fill="none" viewBox="0 0 22 22" id="ui--tick" xmlns="http://www.w3.org/2000/svg"><path d="M3 10l6.5 6.5L20 6" stroke="currentColor" stroke-width="1.9" stroke-linecap="round" stroke-linejoin="round"/></symbol><symbol fill="none" viewBox="0 0 10 16" id="ui--usd" xmlns="http://www.w3.org/2000/svg"><path d="M4.396 16H5.63l.006-1.406C8.412 14.4 10 12.887 10 10.863c0-2.307-2.159-3.2-3.865-3.6l-.479-.12.013-4.012c1.227.157 2.067.807 2.192 1.832h1.955c-.052-1.907-1.706-3.332-4.14-3.52L5.682 0H4.45l-.007 1.456C2.087 1.681.361 3.081.361 5.1c0 1.781 1.338 2.825 3.497 3.381l.565.144-.014 4.256c-1.28-.15-2.27-.812-2.375-2.018H0c.125 2.156 1.759 3.543 4.403 3.73L4.396 16zm1.247-3.119l.013-3.931c1.332.35 2.336.813 2.336 1.894 0 1.094-.958 1.862-2.349 2.037zm-1.214-6.05c-.978-.275-2.054-.769-2.047-1.844 0-.937.78-1.668 2.054-1.85l-.007 3.694z" fill="currentColor"/></symbol></svg>