<?xml version="1.0" encoding="utf-8"?>
<!-- Generator: Adobe Illustrator 26.0.3, SVG Export Plug-In . SVG Version: 6.00 Build 0)  -->
<svg version="1.1" id="Layer_1" xmlns="http://www.w3.org/2000/svg" xmlns:xlink="http://www.w3.org/1999/xlink" x="0px" y="0px"
	 viewBox="0 0 32 32" style="enable-background:new 0 0 32 32;" xml:space="preserve">
<style type="text/css">
	.st0{fill:#1877F2;}
	.st1{fill:#FFFFFF;}
</style>
<g>
	<path class="st0" d="M32,16c0-8.84-7.16-16-16-16S0,7.16,0,16c0,7.99,5.85,14.61,13.5,15.81V20.62H9.44V16h4.06v-3.52
		c0-4.01,2.39-6.23,6.04-6.23c1.75,0,3.58,0.31,3.58,0.31v3.94h-2.02c-1.99,0-2.61,1.23-2.61,2.5v3h4.44l-0.71,4.62H18.5v11.18
		C26.15,30.61,32,23.99,32,16z"/>
	<path class="st1" d="M22.23,20.62L22.94,16H18.5v-3c0-1.27,0.62-2.5,2.61-2.5h2.02V6.56c0,0-1.83-0.31-3.58-0.31
		c-3.65,0-6.04,2.21-6.04,6.23V16H9.44v4.62h4.06v11.18C14.31,31.93,15.15,32,16,32s1.69-0.07,2.5-0.19V20.62H22.23z"/>
</g>
</svg>
