<?xml version="1.0" encoding="utf-8"?>
<!-- Generator: Adobe Illustrator 26.0.3, SVG Export Plug-In . SVG Version: 6.00 Build 0)  -->
<svg version="1.1" id="Layer_1" xmlns="http://www.w3.org/2000/svg" xmlns:xlink="http://www.w3.org/1999/xlink" x="0px" y="0px"
	 viewBox="0 0 32 32" style="enable-background:new 0 0 32 32;" xml:space="preserve">
<g>
	<path d="M16,2.88c4.27,0,4.78,0.02,6.47,0.09c1.56,0.07,2.41,0.33,2.97,0.55c0.75,0.29,1.28,0.64,1.84,1.2
		c0.56,0.56,0.91,1.09,1.2,1.84c0.22,0.56,0.48,1.41,0.55,2.97c0.08,1.69,0.09,2.19,0.09,6.47s-0.02,4.78-0.09,6.47
		c-0.07,1.56-0.33,2.41-0.55,2.97c-0.29,0.75-0.64,1.28-1.2,1.84c-0.56,0.56-1.09,0.91-1.84,1.2c-0.56,0.22-1.41,0.48-2.97,0.55
		c-1.69,0.08-2.19,0.09-6.47,0.09s-4.78-0.02-6.47-0.09c-1.56-0.07-2.41-0.33-2.97-0.55c-0.75-0.29-1.28-0.64-1.84-1.2
		c-0.56-0.56-0.91-1.09-1.2-1.84c-0.22-0.56-0.48-1.41-0.55-2.97C2.9,20.78,2.88,20.27,2.88,16s0.02-4.78,0.09-6.47
		c0.07-1.56,0.33-2.41,0.55-2.97c0.29-0.75,0.64-1.28,1.2-1.84c0.56-0.56,1.09-0.91,1.84-1.2c0.56-0.22,1.41-0.48,2.97-0.55
		C11.22,2.9,11.73,2.88,16,2.88 M16,0c-4.35,0-4.89,0.02-6.6,0.1C7.7,0.17,6.54,0.44,5.52,0.84C4.47,1.25,3.57,1.8,2.69,2.69
		C1.8,3.57,1.25,4.47,0.84,5.52C0.44,6.54,0.17,7.7,0.1,9.4C0.02,11.11,0,11.65,0,16c0,4.35,0.02,4.89,0.1,6.6
		c0.08,1.7,0.35,2.87,0.74,3.88c0.41,1.05,0.96,1.94,1.85,2.83c0.89,0.89,1.78,1.44,2.83,1.85c1.02,0.4,2.18,0.67,3.88,0.74
		c1.71,0.08,2.25,0.1,6.6,0.1s4.89-0.02,6.6-0.1c1.7-0.08,2.87-0.35,3.88-0.74c1.05-0.41,1.94-0.96,2.83-1.85
		c0.89-0.89,1.44-1.78,1.85-2.83c0.4-1.02,0.67-2.18,0.74-3.88c0.08-1.71,0.1-2.25,0.1-6.6s-0.02-4.89-0.1-6.6
		c-0.08-1.7-0.35-2.87-0.74-3.88c-0.41-1.05-0.96-1.94-1.85-2.83c-0.89-0.89-1.78-1.44-2.83-1.85c-1.02-0.4-2.18-0.67-3.88-0.74
		C20.89,0.02,20.35,0,16,0L16,0z"/>
	<path d="M16,7.78c-4.54,0-8.22,3.68-8.22,8.22c0,4.54,3.68,8.22,8.22,8.22s8.22-3.68,8.22-8.22C24.22,11.46,20.54,7.78,16,7.78z
		 M16,21.33c-2.95,0-5.33-2.39-5.33-5.33c0-2.95,2.39-5.33,5.33-5.33c2.95,0,5.33,2.39,5.33,5.33C21.33,18.95,18.95,21.33,16,21.33z
		"/>
	<circle cx="24.54" cy="7.46" r="1.92"/>
</g>
</svg>
