<svg id="Layer_2" data-name="Layer 2" xmlns="http://www.w3.org/2000/svg" width="285.92" height="59.43" viewBox="0 0 285.92 59.43"><defs><style>.cls-1{fill:#171717;}.cls-2{fill:#ff281e;}.cls-3{fill:#6f6f6f;}</style></defs><title>richer_sounds_logo</title><path class="cls-1" d="M18.58,24.85l0.33,0.06V31.8l-0.47-.07a10.39,10.39,0,0,0-1.4-.09,6.62,6.62,0,0,0-6.37,4.92,12.82,12.82,0,0,0-.52,3.91V50.7h-7V25.09H9.92v4.44a8.64,8.64,0,0,1,7.47-4.78A7.45,7.45,0,0,1,18.58,24.85ZM22.39,50.7h7V25.09h-7V50.7Zm31.68-8.52a11.08,11.08,0,0,1-7,3,7.12,7.12,0,0,1-7.33-7.37,7,7,0,0,1,7.13-7.28,9.39,9.39,0,0,1,6.18,2.55l0.36,0.37,3.16-4.91-0.19-.23c-0.13-.16-3.26-3.84-9.84-3.84-8,0-13.87,5.63-13.87,13.39S38.5,51.28,46.54,51.28a14.41,14.41,0,0,0,10.52-4.17l0.19-.21-2.78-5.1ZM75.31,24.5a10.09,10.09,0,0,0-8.16,3.93c0-.22,0-0.45,0-0.71V15.36h-7V50.7h7V38.91a10.68,10.68,0,0,1,.37-3.09A6.6,6.6,0,0,1,73.85,31c2.54,0,3.53,1.3,3.53,4.65V50.7h6.94V34.34C84.32,27.81,81.28,24.5,75.31,24.5Zm36.5,12.17c0,0.74-.14,2.35-0.15,2.42l0,0.37h-17a6.58,6.58,0,0,0,7,5.75,11.89,11.89,0,0,0,6.88-2.62l0.38-.33,2.77,5.14-0.23.21a15.76,15.76,0,0,1-10.24,3.66c-8,0-13.73-5.63-13.73-13.39s5.35-13.39,13-13.39C107.33,24.5,111.81,29.28,111.81,36.68Zm-17-2.25h9.91c-0.23-2.69-1.92-4.34-4.48-4.34A5.27,5.27,0,0,0,94.83,34.42Zm34.62-9.68A8.64,8.64,0,0,0,122,29.53V25.09h-6.74V50.7h7V40.47a12.82,12.82,0,0,1,.52-3.91,6.62,6.62,0,0,1,6.37-4.92,10.39,10.39,0,0,1,1.4.09L131,31.8V24.91l-0.33-.06A7.45,7.45,0,0,0,129.45,24.75Z" transform="translate(-3.18 -14.55)"/><path class="cls-2" d="M152.86,43.43c0,4.62-4.07,7.84-9.89,7.84a14.16,14.16,0,0,1-9.92-3.77l-0.22-.23,3.27-5,0.35,0.35a10,10,0,0,0,6.47,2.6c1.42,0,2.85-.57,2.85-1.83s-1.89-2-4.08-2.9c-3.55-1.46-8-3.27-8-8.29,0-4.6,4-7.7,9.89-7.7,5.7,0,8.49,2.82,8.61,2.94l0.2,0.21L149.76,33l-0.4-.37a9.11,9.11,0,0,0-5.8-2c-1.27,0-2.76.48-2.76,1.83,0,1.12,1.84,1.86,4,2.71C148.18,36.48,152.86,38.36,152.86,43.43Zm30.19-5.54c0,7.63-6,13.39-14,13.39S155,45.52,155,37.89s6-13.39,14-13.39S183.05,30.26,183.05,37.89Zm-7.08,0a7,7,0,1,0-13.92,0A7,7,0,1,0,176,37.89Zm26.85-1c0,3.83-2,8-6.55,8-2.44,0-3.44-1.35-3.44-4.65V25.09h-7V41.44c0,6.53,3,9.84,9,9.84a10.1,10.1,0,0,0,8.2-4.09c0,0.09,0,.19,0,0.28V50.7h6.74V25.09h-7V36.87ZM228.51,24.5a10,10,0,0,0-8.4,4.14c0-.09,0-0.19,0-0.29V25.09h-6.74V50.7h7V38.91a10,10,0,0,1,.42-3.19A6.46,6.46,0,0,1,227,31c2.54,0,3.53,1.3,3.53,4.65V50.7h6.94V34.34C237.52,27.81,234.49,24.5,228.51,24.5Zm30.79-9.14h7V50.7h-6.65V48.25c0-.1,0-0.19,0-0.29a9.18,9.18,0,0,1-7.38,3.32c-6.81,0-11.39-5.38-11.39-13.39S245.54,24.5,252.5,24.5c3.77,0,5.83,1.46,6.79,2.46,0-.1,0-0.2,0-0.3V15.36Zm-5.58,15.25c-3.48,0-5.82,2.92-5.82,7.28s2.32,7.37,5.77,7.37c2.81,0,5.82-2,5.82-7.42C259.49,34.36,257.68,30.61,253.72,30.61ZM281,35.11c-2.13-.86-4-1.59-4-2.71,0-1.35,1.48-1.83,2.76-1.83a9.11,9.11,0,0,1,5.8,2L286,33l2.66-5.31-0.2-.21c-0.12-.12-2.91-2.94-8.61-2.94-5.91,0-9.89,3.09-9.89,7.7,0,5,4.42,6.83,8,8.29,2.19,0.9,4.08,1.67,4.08,2.9s-1.43,1.83-2.85,1.83a10,10,0,0,1-6.47-2.6l-0.35-.35-3.27,5,0.22,0.23a14.16,14.16,0,0,0,9.92,3.77c5.82,0,9.89-3.23,9.89-7.84C289.09,38.36,284.42,36.48,281,35.11ZM25.88,14.55A4.14,4.14,0,1,0,30,18.69,4.14,4.14,0,0,0,25.88,14.55Z" transform="translate(-3.18 -14.55)"/><path class="cls-3" d="M80.42,59H87v1H81.56V64.3H86v1H81.56v4.32h5.71v1H80.42V59Z" transform="translate(-3.18 -14.55)"/><path class="cls-3" d="M92.21,67.08s-0.13.25-.28,0.46l-2,3.13H88.59l2.93-4.33-2.68-4h1.32l1.79,2.8c0.13,0.21.28,0.48,0.28,0.48h0s0.15-.26.28-0.48l1.79-2.8h1.32l-2.68,4,2.93,4.33H94.56l-2-3.13c-0.15-.22-0.28-0.46-0.28-0.46h0Z" transform="translate(-3.18 -14.55)"/><path class="cls-3" d="M97.66,62.35h1.08v0.81a6.13,6.13,0,0,1,0,.65h0a3,3,0,0,1,2.88-1.65c2.23,0,3.62,1.79,3.62,4.37s-1.57,4.35-3.72,4.35a3,3,0,0,1-2.73-1.59h0a7.28,7.28,0,0,1,0,.73v4H97.66V62.35Zm3.74,7.53c1.47,0,2.68-1.24,2.68-3.36s-1.08-3.34-2.63-3.34c-1.39,0-2.7,1-2.7,3.36C98.75,68.21,99.67,69.88,101.4,69.88Z" transform="translate(-3.18 -14.55)"/><path class="cls-3" d="M110.93,62.15c2.3,0,3.47,1.77,3.47,3.84,0,0.2,0,.58,0,0.58H108a3.13,3.13,0,0,0,3.23,3.29,3.87,3.87,0,0,0,2.53-1l0.51,0.86a4.77,4.77,0,0,1-3.08,1.16,4.21,4.21,0,0,1-4.35-4.35A4.06,4.06,0,0,1,110.93,62.15Zm2.33,3.49a2.34,2.34,0,0,0-2.37-2.55A2.82,2.82,0,0,0,108,65.64h5.23Z" transform="translate(-3.18 -14.55)"/><path class="cls-3" d="M116.55,62.35h1.11v1.47c0,0.36,0,.66,0,0.66h0a2.84,2.84,0,0,1,2.63-2.22,2.24,2.24,0,0,1,.45,0v1.11a2.84,2.84,0,0,0-.41,0,2.67,2.67,0,0,0-2.42,2.15,5.49,5.49,0,0,0-.23,1.62v3.51h-1.13V62.35Z" transform="translate(-3.18 -14.55)"/><path class="cls-3" d="M122.41,59h1.17v1.41h-1.17V59Zm0,3.31h1.13v8.32h-1.13V62.35Z" transform="translate(-3.18 -14.55)"/><path class="cls-3" d="M129.8,62.15c2.3,0,3.47,1.77,3.47,3.84,0,0.2,0,.58,0,0.58h-6.39a3.13,3.13,0,0,0,3.23,3.29,3.87,3.87,0,0,0,2.53-1l0.51,0.86a4.77,4.77,0,0,1-3.08,1.16,4.21,4.21,0,0,1-4.35-4.35A4.06,4.06,0,0,1,129.8,62.15Zm2.33,3.49a2.34,2.34,0,0,0-2.37-2.55,2.82,2.82,0,0,0-2.86,2.55h5.23Z" transform="translate(-3.18 -14.55)"/><path class="cls-3" d="M135.43,62.35h1.11v1.24c0,0.36,0,.66,0,0.66h0a3.54,3.54,0,0,1,3.33-2.1c2.05,0,2.78,1.17,2.78,3.23v5.29h-1.13v-5c0-1.31-.2-2.46-1.8-2.46a3.16,3.16,0,0,0-3,2.35,4.11,4.11,0,0,0-.13,1.13v4h-1.13V62.35Z" transform="translate(-3.18 -14.55)"/><path class="cls-3" d="M149,62.15a4.1,4.1,0,0,1,3,1.19l-0.58.84a3.52,3.52,0,0,0-2.43-1,3.19,3.19,0,0,0-3.24,3.34,3.23,3.23,0,0,0,3.28,3.34,3.67,3.67,0,0,0,2.66-1.17l0.51,0.88A4.44,4.44,0,0,1,149,70.87,4.36,4.36,0,1,1,149,62.15Z" transform="translate(-3.18 -14.55)"/><path class="cls-3" d="M157.85,62.15c2.3,0,3.47,1.77,3.47,3.84,0,0.2,0,.58,0,0.58h-6.39a3.13,3.13,0,0,0,3.23,3.29,3.87,3.87,0,0,0,2.53-1l0.51,0.86a4.77,4.77,0,0,1-3.08,1.16,4.21,4.21,0,0,1-4.35-4.35A4.06,4.06,0,0,1,157.85,62.15Zm2.33,3.49a2.34,2.34,0,0,0-2.37-2.55A2.82,2.82,0,0,0,155,65.64h5.23Z" transform="translate(-3.18 -14.55)"/><path class="cls-3" d="M168.26,59h4A2.87,2.87,0,0,1,175.37,62a2.68,2.68,0,0,1-1.47,2.53v0a2.83,2.83,0,0,1,2,2.88,3.21,3.21,0,0,1-3.49,3.26h-4.1V59Zm4,5a1.9,1.9,0,0,0,2-2,1.85,1.85,0,0,0-2-2H169.4v4h2.83Zm0.15,5.56a2.12,2.12,0,0,0,2.28-2.27,2.18,2.18,0,0,0-2.3-2.3h-3v4.57h3Z" transform="translate(-3.18 -14.55)"/><path class="cls-3" d="M181.81,62.15c2.3,0,3.47,1.77,3.47,3.84,0,0.2,0,.58,0,0.58h-6.39a3.13,3.13,0,0,0,3.23,3.29,3.87,3.87,0,0,0,2.53-1l0.51,0.86a4.77,4.77,0,0,1-3.08,1.16,4.21,4.21,0,0,1-4.35-4.35A4.06,4.06,0,0,1,181.81,62.15Zm2.33,3.49a2.34,2.34,0,0,0-2.37-2.55,2.82,2.82,0,0,0-2.86,2.55h5.23Z" transform="translate(-3.18 -14.55)"/><path class="cls-3" d="M187.75,63.39h-1.09V62.45h1.11v-2.4h1.11v2.4H191v0.94h-2.08v4.14c0,2,1.24,2.2,1.87,2.2a1.93,1.93,0,0,0,.38,0v1a3,3,0,0,1-.48,0c-1,0-2.9-.31-2.9-3.09V63.39Z" transform="translate(-3.18 -14.55)"/><path class="cls-3" d="M193.29,63.39H192.2V62.45h1.11v-2.4h1.11v2.4h2.08v0.94h-2.08v4.14c0,2,1.24,2.2,1.87,2.2a1.93,1.93,0,0,0,.38,0v1a3,3,0,0,1-.48,0c-1,0-2.9-.31-2.9-3.09V63.39Z" transform="translate(-3.18 -14.55)"/><path class="cls-3" d="M202,62.15c2.3,0,3.47,1.77,3.47,3.84,0,0.2,0,.58,0,0.58H199.1a3.13,3.13,0,0,0,3.23,3.29,3.87,3.87,0,0,0,2.53-1l0.51,0.86a4.77,4.77,0,0,1-3.08,1.16,4.21,4.21,0,0,1-4.35-4.35A4.06,4.06,0,0,1,202,62.15Zm2.33,3.49A2.34,2.34,0,0,0,202,63.09a2.82,2.82,0,0,0-2.86,2.55h5.23Z" transform="translate(-3.18 -14.55)"/><path class="cls-3" d="M207.67,62.35h1.11v1.47c0,0.36,0,.66,0,0.66h0a2.84,2.84,0,0,1,2.63-2.22,2.24,2.24,0,0,1,.45,0v1.11a2.84,2.84,0,0,0-.41,0A2.67,2.67,0,0,0,209,65.54a5.49,5.49,0,0,0-.23,1.62v3.51h-1.13V62.35Z" transform="translate(-3.18 -14.55)"/></svg>