<svg id="Layer_1" data-name="Layer 1" xmlns="http://www.w3.org/2000/svg" viewBox="0 0 316.2 64.1"><defs><style>.cls-1{fill:#fff;}.cls-2{fill:#c21a17;}</style></defs><title>Techblog_logo_2019</title><path class="cls-1" d="M15,10.47H0V.1H42.14V10.47h-15v39.1H15Z"/><path class="cls-1" d="M58.89,13.1c10.52,0,16.47,7.34,16.47,17.23,0,1.18-.28,3.74-.28,3.74H52.59c.9,4.36,4.5,6.37,8.31,6.37,5.12,0,9.82-3.6,9.82-3.6l4.43,8.37A24,24,0,0,1,59.93,50.4c-12.73,0-19.58-9.2-19.58-18.68C40.35,21.27,47.4,13.1,58.89,13.1Zm4.43,14.12a4.85,4.85,0,0,0-4.71-5.12c-3.46,0-5.12,2.49-5.74,5.12Z"/><path class="cls-1" d="M99.1,13.1c9.68,0,14.18,5.4,14.18,5.4l-5,8a13,13,0,0,0-8.37-3.46,8.19,8.19,0,0,0-8.51,8.51,8.61,8.61,0,0,0,8.92,8.86c5,0,9.76-4.29,9.76-4.29l4.36,8.37S109.06,50.4,99.1,50.4c-12.73,0-19.86-8.86-19.86-18.68C79.24,22.17,86.3,13.1,99.1,13.1Z"/><path class="cls-1" d="M120,.1h12V15.73a30.33,30.33,0,0,1-.14,3.05H132c2-3.53,6.16-5.68,10.86-5.68,7.2,0,12.8,3.33,12.8,13.36V49.57h-12V28.67c0-3.32-1.31-4.7-3.94-4.7a7.19,7.19,0,0,0-7.13,5.26,13.83,13.83,0,0,0-.62,4.56V49.57H120Z"/><path class="cls-1" d="M167.06,1.13h16.26c7.06,0,12.25,4.71,12.25,12.11,0,5.26-2.56,8.79-6.3,10.59V24c4.77,1.31,8.23,6,8.23,12.25,0,8.09-5.74,13.35-13.49,13.35H167.06Zm16.19,21.59c5.4,0,9.2-3.74,9.2-9.48s-3.6-9.34-9.27-9.34H170V22.72Zm.48,24.08c6.51,0,10.66-4,10.66-10.58s-4.5-10.73-10.73-10.73H170V46.8Z"/><path class="cls-1" d="M208.16,1.13h2.91V41.68c0,4.85,2.49,5.4,4.08,5.4a8.08,8.08,0,0,0,1-.07v2.7a6.46,6.46,0,0,1-1.24.14c-2,0-6.79-.77-6.79-7.27Z"/><path class="cls-1" d="M239.79,14.14a17.8,17.8,0,0,1,17.92,17.92,17.92,17.92,0,1,1-35.84,0A17.79,17.79,0,0,1,239.79,14.14Zm0,33.42c8.23,0,14.87-6.71,14.87-15.5a14.88,14.88,0,1,0-29.75,0C224.91,40.85,231.55,47.56,239.79,47.56Z"/><path class="cls-1" d="M278.75,61.26c7.4,0,13.15-3.53,13.15-11.9v-4a15,15,0,0,1,.27-2.84H292a12.21,12.21,0,0,1-11.63,7.06c-9,0-15.36-7.06-15.36-17.85s5.88-17.58,14.88-17.58c9.82,0,12,6.78,12,6.78h.14a3.55,3.55,0,0,1-.21-1.31V15h2.9V49.36C294.8,60,287.19,64.1,279,64.1a23.78,23.78,0,0,1-10.86-2.7l1.38-2.56A21.18,21.18,0,0,0,278.75,61.26ZM292,31.72c0-11.14-5.26-14.74-12-14.74-7.41,0-11.83,5.4-11.83,14.74s5.12,15,12.52,15C286.71,46.73,292,42.93,292,31.72Z"/><circle class="cls-2" cx="310.37" cy="43.77" r="5.83"/></svg>