<?xml version="1.0" encoding="utf-8"?>
<!-- Generator: Adobe Illustrator 26.0.3, SVG Export Plug-In . SVG Version: 6.00 Build 0)  -->
<svg version="1.1" id="Layer_1" xmlns="http://www.w3.org/2000/svg" xmlns:xlink="http://www.w3.org/1999/xlink" x="0px" y="0px"
	 viewBox="0 0 46 32" style="enable-background:new 0 0 46 32;" xml:space="preserve">
<style type="text/css">
	.st0{fill:#DA0000;}
	.st1{fill:#FFFFFF;}
</style>
<path class="st0" d="M44.9,5c-0.53-1.97-2.07-3.52-4.04-4.04C37.3,0,23,0,23,0S8.7,0,5.14,0.96C3.17,1.48,1.62,3.03,1.1,5
	C0.14,8.56,0.14,16,0.14,16s0,7.44,0.96,11c0.53,1.97,2.07,3.52,4.04,4.04C8.7,32,23,32,23,32s14.3,0,17.86-0.96
	c1.97-0.53,3.52-2.07,4.04-4.04c0.96-3.57,0.96-11,0.96-11S45.86,8.56,44.9,5z"/>
<polygon class="st1" points="18.43,22.86 30.3,16 18.43,9.14 "/>
</svg>
