<svg id="Layer_1" data-name="Layer 1" xmlns="http://www.w3.org/2000/svg" viewBox="0 0 78.69 47.96"><defs><style>.cls-1{fill:#00aeef;}.cls-2{fill:#f7941d;}</style></defs><path class="cls-1" d="M399.29,401.79l0-28.31H393.6l0,24.79A60.62,60.62,0,0,1,399.29,401.79Z" transform="translate(-360.66 -363.31)"/><path class="cls-1" d="M406.52,398.22l0-29.23h-5.71l0,32.73A60.67,60.67,0,0,1,406.52,398.22Z" transform="translate(-360.66 -363.31)"/><path class="cls-1" d="M392.16,397.53l0-15.69h-5.71v13.09C388.56,395.77,390.47,396.66,392.16,397.53Z" transform="translate(-360.66 -363.31)"/><path class="cls-1" d="M413.53,394.93l0-31.62h-5.71l0,34.23C409.5,396.67,411.41,395.78,413.53,394.93Z" transform="translate(-360.66 -363.31)"/><path class="cls-2" d="M400,403.88s-16.41-13.21-39.34-12.34c0,0,19.67,0,39.34,19.73,19.67-19.76,39.34-19.73,39.34-19.73C416.41,390.67,400,403.88,400,403.88Z" transform="translate(-360.66 -363.31)"/></svg>