<svg width="20" height="12" fill="none" xmlns="http://www.w3.org/2000/svg"><path fill-rule="evenodd" clip-rule="evenodd" d="M19.541.813c.139-.468 0-.813-.662-.813H16.69c-.556 0-.813.297-.952.626 0 0-1.113 2.74-2.688 4.519-.51.516-.742.68-1.02.68-.14 0-.349-.164-.349-.633V.812c0-.562-.153-.812-.616-.812h-3.44c-.348 0-.557.26-.557.508 0 .533.788.656.87 2.154v3.256c0 .714-.128.843-.407.843-.741 0-2.545-2.752-3.616-5.901C3.708.247 3.498 0 2.939 0H.75C.125 0 0 .297 0 .626c0 .584.742 3.488 3.454 7.33C5.262 10.577 7.808 12 10.127 12c1.391 0 1.563-.315 1.563-.86V9.158c0-.632.131-.758.572-.758.325 0 .881.165 2.18 1.429C15.924 11.328 16.168 12 17.003 12h2.187c.625 0 .939-.315.759-.94-.199-.62-.907-1.52-1.846-2.59-.51-.608-1.275-1.264-1.508-1.592-.324-.421-.231-.609 0-.983 0 0 2.667-3.794 2.944-5.082h.001z" fill="#fff"/></svg>