<svg width="52" height="32" viewBox="0 0 52 32" fill="none" xmlns="http://www.w3.org/2000/svg">
<rect width="52" height="32" rx="5" fill="white"/>
<mask id="mask0" style="mask-type:alpha" maskUnits="userSpaceOnUse" x="0" y="0" width="52" height="32">
<rect width="52" height="32" rx="5" fill="white"/>
</mask>
<g mask="url(#mask0)">
<path d="M2.64211 14.4551H1.86177H1L1.71812 12.9023L3.52225 9.00093L5.43442 9.00091L7.95426 14.4551H6.27597L5.81299 13.3629H3.1075L2.64211 14.4551ZM3.62836 12.1788H5.28011L4.45543 10.2703L3.62836 12.1788ZM15.4583 14.4542V9H13.1434L11.8187 12.5246L10.4614 9.00807L8.12788 9V14.4542H9.59397V10.4353L11.1524 14.4542H12.4381L13.9922 10.4353V14.4542H15.4583ZM21.2455 10.22V9H16.4614V14.4542L21.2455 14.4542V13.2701H17.9429V12.3013H21.1683V11.153H17.9429V10.22H21.2455ZM25.7981 12.4457L27.7271 14.4551H25.9355L24.1777 12.5175H23.5604V14.4551H22.0943V9.00093L25.3568 9.00091C26.4378 9.00091 27.4064 9.62263 27.4064 10.7704C27.4064 11.7516 26.5898 12.3836 25.7981 12.4457ZM25.9307 10.7951C25.9307 10.5134 25.6382 10.221 25.2362 10.221H23.5603V11.3692H25.2579C25.5518 11.3692 25.9307 11.1574 25.9307 10.7951ZM28.0049 9.00002V14.4542H29.5018V9.00002H28.0049ZM30.2156 11.7495C30.2156 13.3087 31.1648 14.4542 32.7282 14.4542H33.0513L33.6686 13.2629H33.2828C32.3491 13.2629 31.701 12.8193 31.701 11.763C31.701 10.8735 32.2678 10.2918 33.0693 10.2918H34.7489V9H33.1285C31.1542 9.00002 30.2156 10.1519 30.2156 11.7495ZM33.7193 14.4551L36.2415 9.00093L38.1537 9.00091L40.6735 14.4551H38.9952L38.5322 13.3629H35.8267L35.3613 14.4551L33.7193 14.4551ZM36.3476 12.1788H37.9993L37.1747 10.2703L36.3476 12.1788ZM44.751 14.4542H46.5547V9H45.0886V12.4268L42.7087 9H40.8447V14.4542H42.3108V10.9377L44.751 14.4542ZM16.4614 19.7649V18.5449H11.6773V23.9991L16.4614 23.9991V22.815H13.1589V21.8461H16.3843V20.6979H13.1589V19.7649L16.4614 19.7649ZM39.9033 19.7649V18.5449H35.1193V23.9991L39.9033 23.9991V22.815H36.6008V21.8461H39.8107V20.6979H36.6008V19.7649L39.9033 19.7649ZM21.2841 18.5449L19.859 20.2516L18.4387 18.5449H16.5916L18.9764 21.3056L16.6471 23.9991L18.4676 23.9991L19.8131 22.3193L21.1922 23.9991H23.039L20.7054 21.272L23.0588 18.5449L21.2841 18.5449ZM26.4515 18.5458C27.7803 18.5458 28.5566 19.3423 28.5566 20.3803C28.5566 21.6333 27.5668 22.2776 26.261 22.2776H24.7178V24H23.2131V18.5458H26.4515ZM26.343 19.7793H24.7178V21.0352H26.3382C26.7664 21.0352 27.0664 20.7712 27.0664 20.4072C27.0664 20.0197 26.7649 19.7793 26.343 19.7793ZM32.897 21.9896L34.8261 23.9991H33.0344L31.2766 22.0614H30.6593V23.9991H29.1932V18.5449H32.4557C33.5368 18.5449 34.5054 19.1666 34.5054 20.3144C34.5054 21.2955 33.6887 21.9275 32.897 21.9896ZM33.0296 20.339C33.0296 20.0574 32.7372 19.7649 32.3352 19.7649H30.6593V20.9131H32.3569C32.6507 20.9132 33.0296 20.7014 33.0296 20.339ZM43.5165 22.815H40.5824V23.9991H43.707C44.9979 23.9991 45.6192 23.2175 45.6192 22.2633C45.6192 21.3757 45.0617 20.6979 43.7769 20.6979H42.388C42.0274 20.6979 41.8478 20.4485 41.8478 20.2224C41.8478 20.0024 41.9931 19.7721 42.4651 19.7721H44.9343L45.5516 18.5449H42.6966C40.984 18.5449 40.3962 19.3882 40.3962 20.2628C40.3962 21.2433 41.0381 21.8963 42.1906 21.8963H43.5165C43.9512 21.8963 44.1386 22.1282 44.1386 22.3574C44.1386 22.5967 43.9506 22.815 43.5165 22.815ZM50.8758 21.6061C50.6486 21.0625 50.0991 20.6979 49.1578 20.6979H48.777H47.7688C47.4083 20.6979 47.2287 20.4485 47.2287 20.2224C47.2287 20.0024 47.374 19.7721 47.846 19.7721H49.414H50.3152L50.8758 18.6575L50.9325 18.5449H50.8758H50.2585H48.0775C46.3649 18.5449 45.7771 19.3882 45.7771 20.2628C45.7771 21.2433 46.4189 21.8963 47.5714 21.8963H48.8973C48.9048 21.8963 48.9109 21.8976 48.9182 21.8978C49.3371 21.9056 49.5195 22.1321 49.5195 22.3574C49.5195 22.4388 49.4958 22.5169 49.4501 22.5856C49.3613 22.7191 49.1839 22.8149 48.8973 22.8149H45.9632V23.9991H49.0878C49.5913 23.9991 49.9916 23.879 50.2942 23.6774C50.5684 23.4947 50.7621 23.2447 50.8758 22.9529C50.9584 22.7411 51 22.508 51 22.2632C51 22.026 50.9587 21.8045 50.8758 21.6061Z" fill="#3077A5"/>
</g>
</svg>
