<svg width="52" height="32" viewBox="0 0 52 32" fill="none" xmlns="http://www.w3.org/2000/svg">
<rect width="52" height="32" rx="5" fill="white"/>
<path fill-rule="evenodd" clip-rule="evenodd" d="M24.8174 12.718H26.892C26.892 12.718 28.946 12.6766 28.9253 14.5436C28.9048 15.9337 26.9338 16.1411 26.9338 16.1411H24.8176V12.718H24.8174ZM31.0238 19.4196C31.082 19.6911 31.2785 19.9904 31.9337 20.0212C32.805 20.0416 33.303 19.7096 33.303 19.7096V20.3528C33.303 20.3528 32.3486 20.5813 31.8921 20.5813C31.415 20.5813 30.0041 20.4773 30.0041 19.1704C30.0041 18.1125 31.166 17.7805 31.8297 17.7805C32.9916 17.8219 33.5517 18.237 33.531 19.4194C33.531 19.4365 31.6194 19.4237 31.0238 19.4196ZM31.0265 18.9005H32.6183C32.6183 18.9005 32.6183 18.2989 31.8507 18.2989C31.2732 18.2989 31.0843 18.6103 31.0265 18.9005ZM36.0621 18.2509C36.2925 18.001 36.6792 17.8009 37.3278 17.8009C38.6142 17.8009 38.8218 18.8798 38.8011 19.1702C38.7803 19.4606 38.6766 20.5601 37.1831 20.5601C36.6188 20.5601 36.2736 20.3676 36.0624 20.1286V20.477H35.0457V16.7426H36.0624V18.2509H36.0621ZM36.9338 19.9793C37.5354 19.9583 37.8051 19.4401 37.8051 19.1911C37.8051 18.9421 37.6596 18.4234 36.892 18.4234C36.2963 18.4234 36.1149 18.8734 36.0621 19.0932V19.3639C36.1145 19.588 36.2968 19.9793 36.9338 19.9793ZM45.7098 19.8757L45.7303 20.4568C45.7303 20.4568 45.2533 20.5603 44.9421 20.5603C44.631 20.5603 43.8214 20.3737 43.8214 19.5851V18.3818H42.9711V17.8426H43.8214V17.1994H44.859V17.8426H45.7098V18.3818H44.859V19.4194C44.859 19.4194 44.8591 19.9381 45.2742 19.9381C45.6889 19.9381 45.7098 19.8757 45.7098 19.8757ZM42.5562 13.2781H43.7595V16.1618H44.7757V13.2781H46V12.6763H42.5562V13.2781ZM42.1411 13.4233L42.2656 12.8215C42.2656 12.8215 41.7469 12.5935 40.8342 12.5935C39.942 12.5935 38.5106 13.0915 38.5106 14.44C38.5106 15.7678 40.0251 16.2241 40.9587 16.2241C41.8923 16.2241 42.2034 16.0789 42.2034 16.0789L42.0999 15.415C42.0999 15.415 41.6847 15.5395 40.9792 15.5395C40.2946 15.5188 39.5897 14.9794 39.5897 14.3779C39.6102 13.8384 40.2324 13.2367 41.042 13.2367C41.664 13.2367 42.1411 13.4233 42.1411 13.4233ZM32.9709 12.6973C32.9709 12.6973 34.6722 12.6144 34.6722 13.6102C34.6722 14.4609 33.6974 14.5231 33.6974 14.5231C33.6974 14.5231 33.9669 14.5645 34.0916 14.7511C34.1951 14.917 34.8798 16.162 34.8798 16.162H33.8421C33.8421 16.162 33.6762 15.9544 33.5931 15.8095C33.531 15.6642 33.3442 15.3529 33.3442 15.3529C33.3442 15.3529 33.1992 14.8342 32.701 14.8342C32.6884 14.8342 32.4859 14.8265 32.3275 14.8205V16.162H31.3317V12.6973H32.9709ZM32.3277 14.2534H32.8673C32.8673 14.2534 33.6141 14.2117 33.6555 13.7554C33.6764 13.3198 32.9297 13.2574 32.9297 13.2574H32.3277V14.2534ZM36.4978 14.7928H38.1576V14.1496H36.4978V13.3612H38.3031V12.6973H35.4818V16.162H38.324V15.5395H36.498V14.7928H36.4978ZM40.5433 17.4482H41.56V16.7426H40.5433V17.4482ZM40.5433 20.4773H41.56V17.8426H40.5433V20.4773ZM29.465 16.162H30.4607V12.6973H29.465V16.162ZM24.8174 17.0335H26.892C26.892 17.0335 28.946 16.9916 28.9253 18.859C28.9048 20.249 26.9338 20.4568 26.9338 20.4568H24.8176V17.0335H24.8174ZM25.8341 19.8136H26.498C26.498 19.8136 27.8672 19.7305 27.8672 18.6724C27.8672 17.6143 26.4149 17.5105 26.4149 17.5105H25.8341V19.8136ZM25.8341 15.4981H26.498C26.498 15.4981 27.8672 15.3943 27.8672 14.3569C27.8672 13.2781 26.4149 13.1953 26.4149 13.1953H25.8341V15.4981ZM15.502 14.7805V21.7222C15.502 21.7222 11.4769 20.996 11.4769 18.2368C11.4772 16.0361 14.4567 15.0661 15.502 14.7805ZM15.502 14.651C13.0829 14.476 7.59751 15.6098 7.59751 18.0914C7.59751 19.7094 10.5021 22.0748 15.2323 22.1369C15.4189 22.1369 20.7923 21.9293 20.7095 16.1618C20.6398 11.3176 17.0142 10.4691 15.8548 10.3214V10.0262C20.4769 10.3195 24.1121 13.0992 24.1121 16.4729C24.1121 20.0414 20.0456 22.9458 15.0457 22.9458C10.0458 22.9458 6 20.0412 6 16.4729C6 12.9046 10.0456 10 15.0457 10C15.1989 10 15.3511 10.0027 15.5022 10.0082V14.651H15.502Z" fill="black"/>
</svg>
