<svg width="52" height="32" viewBox="0 0 52 32" fill="none" xmlns="http://www.w3.org/2000/svg">
<rect width="52" height="32" rx="5" fill="white"/>
<path d="M22 32L52 23V27C52 29.7614 49.7614 32 47 32H22Z" fill="#FD6020"/>
<path fill-rule="evenodd" clip-rule="evenodd" d="M42.1917 13.1478C43.5854 13.1478 44.352 13.7925 44.352 15.0103C44.4217 15.9416 43.7945 16.7296 42.9582 16.8729L44.8398 19.5234H43.3764L41.7736 16.9445H41.6342V19.5234H40.4495V13.1478H42.1917ZM41.6342 16.0848H41.9826C42.7492 16.0848 43.0976 15.7267 43.0976 15.0819C43.0976 14.5089 42.7492 14.1507 41.9826 14.1507H41.6342V16.0848ZM36.3379 19.5234H39.6828V18.4488H37.5226V16.7296H39.6131V15.655H37.5226V14.2223H39.6828V13.1478H36.3379V19.5234ZM32.8536 17.4459L31.2508 13.1478H29.9964L32.5748 19.6667H33.202L35.7804 13.1478H34.526L32.8536 17.4459ZM18.7074 16.3714C18.7074 18.1623 20.1011 19.6667 21.8432 19.6667C22.4007 19.6667 22.8885 19.5234 23.3763 19.3085V17.8758C23.0279 18.3056 22.5401 18.5921 21.9826 18.5921C20.8676 18.5921 19.9617 17.7325 19.9617 16.5863V16.4431C19.892 15.2969 20.7979 14.294 21.9129 14.2223C22.4704 14.2223 23.0279 14.5089 23.3763 14.9387V13.506C22.9582 13.2194 22.4007 13.1478 21.9129 13.1478C20.1011 13.0045 18.7074 14.5089 18.7074 16.3714ZM16.5471 15.5834C15.8502 15.2969 15.6411 15.1536 15.6411 14.7954C15.7108 14.3656 16.0593 14.0074 16.4774 14.0791C16.8258 14.0791 17.1742 14.294 17.453 14.5805L18.0802 13.7209C17.5924 13.2911 16.9652 13.0045 16.338 13.0045C15.3624 12.9329 14.5262 13.7209 14.4565 14.7238V14.7954C14.4565 15.6551 14.8049 16.1565 15.9199 16.5147C16.1986 16.5863 16.4774 16.7296 16.7561 16.8729C16.9652 17.0161 17.1046 17.231 17.1046 17.5176C17.1046 18.019 16.6864 18.4489 16.2683 18.4489H16.1986C15.6411 18.4489 15.1533 18.0907 14.9443 17.5892L14.1777 18.3772C14.5959 19.1652 15.4321 19.595 16.2683 19.595C17.3833 19.6667 18.2892 18.807 18.3589 17.6609V17.446C18.2892 16.5863 17.9408 16.1565 16.5471 15.5834ZM12.5052 19.5234H13.6899V13.1478H12.5052V19.5234ZM7 13.1478H8.74216H9.09059C10.7631 13.2194 12.0871 14.6521 12.0174 16.3714C12.0174 17.3027 11.5993 18.1623 10.9024 18.807C10.2753 19.3085 9.50871 19.595 8.74216 19.5234H7V13.1478ZM8.533 18.4489C9.09049 18.5205 9.71767 18.3056 10.1358 17.9474C10.5539 17.5176 10.763 16.9445 10.763 16.2998C10.763 15.7267 10.5539 15.1536 10.1358 14.7238C9.71767 14.3656 9.09049 14.1507 8.533 14.2223H8.18457V18.4489H8.533Z" fill="black"/>
<path fill-rule="evenodd" clip-rule="evenodd" d="M26.9302 13C25.188 13 23.7246 14.4327 23.7246 16.2953C23.7246 18.0862 25.1183 19.5905 26.9302 19.6621C28.742 19.7338 30.1357 18.2294 30.2054 16.3669C30.1357 14.5044 28.742 13 26.9302 13V13Z" fill="#FD6020"/>
</svg>
