<svg width="52" height="32" viewBox="0 0 52 32" fill="none" xmlns="http://www.w3.org/2000/svg">
<rect width="52" height="32" rx="5" fill="white"/>
<path d="M31.0576 17.7157H32.5961C32.64 17.7157 32.7426 17.701 32.7866 17.701C33.0796 17.6424 33.3287 17.3787 33.3287 17.0124C33.3287 16.6607 33.0796 16.397 32.7866 16.3237C32.7426 16.3091 32.6547 16.3091 32.5961 16.3091H31.0576V17.7157Z" fill="url(#paint0_linear)"/>
<path d="M32.4225 8C30.9573 8 29.7559 9.18681 29.7559 10.6667V13.4359H33.5214C33.6093 13.4359 33.7119 13.4359 33.7852 13.4506C34.635 13.4945 35.265 13.9341 35.265 14.696C35.265 15.2967 34.8401 15.8095 34.0489 15.9121V15.9414C34.9134 16 35.5727 16.4835 35.5727 17.2308C35.5727 18.0366 34.8401 18.5641 33.8731 18.5641H29.7412V23.9854H33.6533C35.1185 23.9854 36.32 22.7985 36.32 21.3187V8H32.4225Z" fill="#49A25A"/>
<path d="M33.1382 14.8732C33.1382 14.5216 32.8891 14.2871 32.5961 14.2432C32.5668 14.2432 32.4935 14.2285 32.4496 14.2285H31.0576V15.5179H32.4496C32.4935 15.5179 32.5814 15.5179 32.5961 15.5032C32.8891 15.4593 33.1382 15.2249 33.1382 14.8732Z" fill="url(#paint1_linear)"/>
<path d="M17.6813 8C16.2161 8 15.0147 9.18681 15.0147 10.6667V17.2454C15.7619 17.6117 16.5385 17.8462 17.315 17.8462C18.2381 17.8462 18.7363 17.2894 18.7363 16.5275V13.4212H21.022V16.5128C21.022 17.7143 20.2747 18.696 17.7399 18.696C16.2015 18.696 15 18.359 15 18.359V23.9707H18.9121C20.3773 23.9707 21.5788 22.7839 21.5788 21.304V8H17.6813Z" fill="#2C71B5"/>
<path d="M25.0505 8C23.5853 8 22.3838 9.18681 22.3838 10.6667V14.1538C23.0578 13.5824 24.2299 13.2161 26.1201 13.304C27.131 13.348 28.2153 13.6264 28.2153 13.6264V14.7546C27.6732 14.4762 27.0285 14.2271 26.1933 14.1685C24.7574 14.0659 23.8929 14.7692 23.8929 16C23.8929 17.2454 24.7574 17.9487 26.1933 17.8315C27.0285 17.7729 27.6732 17.5092 28.2153 17.2454V18.3736C28.2153 18.3736 27.1457 18.652 26.1201 18.696C24.2299 18.7839 23.0578 18.4176 22.3838 17.8462V24H26.2959C27.7611 24 28.9625 22.8132 28.9625 21.3333V8H25.0505Z" fill="#DA3831"/>
<defs>
<linearGradient id="paint0_linear" x1="29.7511" y1="17.0141" x2="36.3354" y2="17.0141" gradientUnits="userSpaceOnUse">
<stop stop-color="#007940"/>
<stop offset="0.2285" stop-color="#00873F"/>
<stop offset="0.7433" stop-color="#40A737"/>
<stop offset="1" stop-color="#5CB531"/>
</linearGradient>
<linearGradient id="paint1_linear" x1="29.751" y1="14.8714" x2="36.3355" y2="14.8714" gradientUnits="userSpaceOnUse">
<stop stop-color="#007940"/>
<stop offset="0.2285" stop-color="#00873F"/>
<stop offset="0.7433" stop-color="#40A737"/>
<stop offset="1" stop-color="#5CB531"/>
</linearGradient>
</defs>
</svg>
