<svg width="52" height="32" viewBox="0 0 52 32" fill="none" xmlns="http://www.w3.org/2000/svg">
<rect width="52" height="32" rx="5" fill="white"/>
<path d="M15.4386 27.9738V26.3792C15.4478 26.2451 15.4286 26.1106 15.3824 25.9845C15.3362 25.8585 15.2639 25.7439 15.1705 25.6484C15.0771 25.5528 14.9647 25.4785 14.8406 25.4304C14.7166 25.3823 14.5839 25.3615 14.4513 25.3693C14.2778 25.3578 14.1044 25.3937 13.9492 25.4731C13.794 25.5526 13.6627 25.6728 13.5691 25.8211C13.4837 25.6772 13.3616 25.5593 13.2156 25.4798C13.0695 25.4003 12.905 25.3621 12.7394 25.3693C12.5949 25.3619 12.4511 25.3929 12.3222 25.4591C12.1932 25.5253 12.0836 25.6244 12.0042 25.7467V25.4331H11.458V27.9738H12.0094V26.5759C11.9977 26.489 12.0051 26.4006 12.031 26.3169C12.057 26.2332 12.1009 26.1564 12.1596 26.0919C12.2183 26.0274 12.2903 25.9769 12.3706 25.9438C12.4508 25.9108 12.5373 25.8961 12.6238 25.9008C12.9862 25.9008 13.17 26.14 13.17 26.5706V27.9844H13.7214V26.5759C13.7101 26.4891 13.7178 26.4008 13.744 26.3174C13.7701 26.2339 13.814 26.1573 13.8726 26.0929C13.9312 26.0286 14.0031 25.978 14.0831 25.9448C14.1631 25.9116 14.2494 25.8966 14.3358 25.9008C14.7086 25.9008 14.8872 26.14 14.8872 26.5706V27.9844L15.4386 27.9738ZM23.5967 25.4331H22.6987V24.6624H22.1473V25.4331H21.6484V25.9381H22.1578V27.1074C22.1578 27.6974 22.3836 28.0482 23.0295 28.0482C23.2708 28.049 23.5075 27.9808 23.7122 27.8515L23.5547 27.3785C23.4082 27.4669 23.242 27.5163 23.0715 27.522C22.809 27.522 22.7092 27.3519 22.7092 27.0968V25.9381H23.6019L23.5967 25.4331ZM28.2547 25.3693C28.1215 25.3654 27.9898 25.3978 27.8733 25.4633C27.7569 25.5288 27.66 25.6249 27.593 25.7414V25.4331H27.0521V27.9738H27.5983V26.5493C27.5983 26.1294 27.7768 25.8955 28.1234 25.8955C28.2402 25.8939 28.3562 25.9156 28.4647 25.9593L28.6328 25.4278C28.5081 25.3826 28.3767 25.3593 28.2442 25.3587L28.2547 25.3693ZM21.2125 25.6351C20.9034 25.449 20.5479 25.3568 20.1885 25.3693C19.5531 25.3693 19.1382 25.6776 19.1382 26.1825C19.1382 26.5971 19.4428 26.8523 20.0047 26.932L20.2673 26.9692C20.5666 27.0117 20.7084 27.0914 20.7084 27.235C20.7084 27.4316 20.5088 27.5432 20.136 27.5432C19.8361 27.552 19.542 27.4584 19.301 27.2775L19.0384 27.708C19.3566 27.9328 19.7376 28.0483 20.1255 28.0375C20.8502 28.0375 21.2703 27.6921 21.2703 27.2084C21.2703 26.7247 20.9395 26.528 20.3933 26.4483L20.1307 26.4111C19.8944 26.3792 19.7054 26.3314 19.7054 26.1613C19.7054 25.9912 19.8839 25.8636 20.1832 25.8636C20.4599 25.8669 20.7311 25.9419 20.971 26.0816L21.2125 25.6351ZM35.8404 25.3693C35.7072 25.3654 35.5755 25.3978 35.459 25.4633C35.3426 25.5288 35.2457 25.6249 35.1787 25.7414V25.4331H34.6378V27.9738H35.1839V26.5493C35.1839 26.1294 35.3625 25.8955 35.7091 25.8955C35.8259 25.8939 35.9419 25.9156 36.0504 25.9593L36.2185 25.4278C36.0937 25.3826 35.9623 25.3593 35.8299 25.3587L35.8404 25.3693ZM28.8035 26.6981C28.797 26.8767 28.8274 27.0546 28.8927 27.2206C28.9581 27.3865 29.0569 27.5369 29.183 27.662C29.309 27.787 29.4595 27.8841 29.6247 27.9469C29.79 28.0098 29.9663 28.037 30.1426 28.0269C30.4705 28.0438 30.7928 27.9357 31.0458 27.7239L30.7832 27.2775C30.5945 27.4232 30.3642 27.5034 30.1268 27.506C29.9249 27.4895 29.7366 27.3967 29.5993 27.246C29.462 27.0953 29.3857 26.8978 29.3857 26.6928C29.3857 26.4878 29.462 26.2903 29.5993 26.1396C29.7366 25.989 29.9249 25.8961 30.1268 25.8796C30.3642 25.8823 30.5945 25.9624 30.7832 26.1081L31.0458 25.6617C30.7928 25.4499 30.4705 25.3418 30.1426 25.3587C29.9663 25.3486 29.79 25.3758 29.6247 25.4387C29.4595 25.5015 29.309 25.5986 29.183 25.7237C29.0569 25.8487 28.9581 25.9991 28.8927 26.165C28.8274 26.331 28.797 26.5089 28.8035 26.6875V26.6981ZM33.9184 26.6981V25.4331H33.3722V25.7414C33.2795 25.6206 33.1597 25.5239 33.0227 25.4592C32.8857 25.3945 32.7355 25.3637 32.5845 25.3693C32.2363 25.3693 31.9024 25.5093 31.6562 25.7585C31.4099 26.0077 31.2716 26.3457 31.2716 26.6981C31.2716 27.0505 31.4099 27.3885 31.6562 27.6377C31.9024 27.8869 32.2363 28.0269 32.5845 28.0269C32.7355 28.0326 32.8857 28.0018 33.0227 27.9371C33.1597 27.8724 33.2795 27.7756 33.3722 27.6549V27.9631H33.9184V26.6981ZM31.886 26.6981C31.8948 26.5486 31.9465 26.4049 32.0349 26.2847C32.1233 26.1645 32.2444 26.0731 32.3835 26.0218C32.5225 25.9704 32.6734 25.9614 32.8174 25.9957C32.9615 26.03 33.0925 26.1063 33.1943 26.215C33.2962 26.3237 33.3643 26.4602 33.3905 26.6077C33.4166 26.7551 33.3996 26.9071 33.3414 27.0449C33.2833 27.1827 33.1867 27.3002 33.0634 27.3831C32.9401 27.466 32.7955 27.5106 32.6475 27.5113C32.5435 27.5127 32.4404 27.4922 32.3447 27.4513C32.2489 27.4103 32.1625 27.3497 32.091 27.2733C32.0195 27.197 31.9644 27.1064 31.9291 27.0074C31.8938 26.9084 31.8792 26.8031 31.886 26.6981ZM25.2955 25.3693C24.9473 25.3743 24.6153 25.519 24.3726 25.7717C24.1298 26.0244 23.9962 26.3643 24.001 26.7167C24.0059 27.0691 24.1489 27.4052 24.3986 27.6509C24.6482 27.8966 24.9841 28.0318 25.3323 28.0269C25.71 28.0465 26.0815 27.9234 26.3747 27.6814L26.1121 27.2722C25.9048 27.4405 25.6479 27.534 25.3822 27.5379C25.2016 27.5536 25.0222 27.4974 24.8819 27.3813C24.7417 27.2652 24.6517 27.0983 24.6312 26.916H26.4955C26.4955 26.8469 26.4955 26.7778 26.4955 26.7034C26.4955 25.9062 26.0071 25.3746 25.3034 25.3746L25.2955 25.3693ZM25.2955 25.8636C25.3772 25.8619 25.4585 25.8764 25.5347 25.9065C25.6108 25.9365 25.6804 25.9814 25.7394 26.0387C25.7984 26.0959 25.8457 26.1644 25.8786 26.2402C25.9114 26.3159 25.9292 26.3975 25.9309 26.4802H24.6181C24.6276 26.3096 24.7027 26.1495 24.8274 26.0343C24.952 25.9191 25.1163 25.8578 25.285 25.8636H25.2955ZM38.9781 26.7034V24.4126H38.453V25.7414C38.3602 25.6206 38.2404 25.5239 38.1034 25.4592C37.9665 25.3945 37.8163 25.3637 37.6652 25.3693C37.317 25.3693 36.9831 25.5093 36.7369 25.7585C36.4907 26.0077 36.3524 26.3457 36.3524 26.6981C36.3524 27.0505 36.4907 27.3885 36.7369 27.6377C36.9831 27.8869 37.317 28.0269 37.6652 28.0269C37.8163 28.0326 37.9665 28.0018 38.1034 27.9371C38.2404 27.8724 38.3602 27.7756 38.453 27.6549V27.9631H38.9781V26.7034ZM39.8892 27.6044C39.9234 27.6039 39.9572 27.6103 39.989 27.623C40.0192 27.6354 40.0468 27.6534 40.0704 27.6761C40.0935 27.699 40.1122 27.7261 40.1255 27.7558C40.1388 27.7869 40.1457 27.8203 40.1457 27.8542C40.1457 27.888 40.1388 27.9215 40.1255 27.9525C40.1122 27.9823 40.0935 28.0093 40.0704 28.0322C40.0468 28.0549 40.0192 28.0729 39.989 28.0854C39.9576 28.0994 39.9236 28.1067 39.8892 28.1066C39.8394 28.1063 39.7908 28.0916 39.749 28.0643C39.7071 28.037 39.6738 27.9982 39.6529 27.9525C39.6398 27.9214 39.633 27.888 39.633 27.8542C39.633 27.8204 39.6398 27.7869 39.6529 27.7558C39.6663 27.7261 39.685 27.699 39.708 27.6761C39.7317 27.6534 39.7593 27.6354 39.7894 27.623C39.8236 27.6092 39.8603 27.6029 39.8971 27.6044H39.8892ZM39.8892 28.0535C39.9154 28.0537 39.9414 28.0482 39.9654 28.0375C39.988 28.0273 40.0084 28.0129 40.0258 27.995C40.0586 27.9588 40.0768 27.9113 40.0768 27.8621C40.0768 27.8129 40.0586 27.7655 40.0258 27.7293C40.0085 27.7113 39.988 27.6969 39.9654 27.6867C39.9413 27.6761 39.9154 27.6707 39.8892 27.6708C39.863 27.6709 39.8372 27.6764 39.8131 27.6867C39.7895 27.6965 39.7681 27.711 39.7501 27.7293C39.7172 27.7655 39.699 27.8129 39.699 27.8621C39.699 27.9113 39.7172 27.9588 39.7501 27.995C39.7681 28.0132 39.7895 28.0277 39.8131 28.0375C39.8396 28.0491 39.8683 28.0546 39.8971 28.0535H39.8892ZM39.905 27.7372C39.9295 27.736 39.9536 27.7436 39.9732 27.7585C39.9813 27.7652 39.9876 27.7738 39.9917 27.7835C39.9958 27.7932 39.9976 27.8038 39.9969 27.8143C39.9973 27.8231 39.9958 27.8319 39.9926 27.8402C39.9895 27.8484 39.9847 27.8559 39.9785 27.8621C39.9633 27.8761 39.9439 27.8846 39.9234 27.8861L39.9995 27.9738H39.9391L39.8682 27.8861H39.8446V27.9738H39.7947V27.7399L39.905 27.7372ZM39.8472 27.7824V27.8462H39.905C39.9153 27.8493 39.9262 27.8493 39.9365 27.8462C39.9383 27.8425 39.9393 27.8384 39.9393 27.8342C39.9393 27.8301 39.9383 27.826 39.9365 27.8223C39.9383 27.8186 39.9393 27.8145 39.9393 27.8103C39.9393 27.8062 39.9383 27.8021 39.9365 27.7984C39.9262 27.7953 39.9153 27.7953 39.905 27.7984L39.8472 27.7824ZM36.9589 26.7034C36.9676 26.5539 37.0194 26.4102 37.1077 26.29C37.1961 26.1698 37.3173 26.0785 37.4564 26.0271C37.5954 25.9758 37.7462 25.9667 37.8903 26.001C38.0344 26.0353 38.1654 26.1116 38.2672 26.2203C38.369 26.329 38.4372 26.4655 38.4633 26.613C38.4895 26.7605 38.4724 26.9124 38.4143 27.0502C38.3562 27.188 38.2595 27.3055 38.1362 27.3884C38.0129 27.4713 37.8684 27.5159 37.7204 27.5167C37.6164 27.518 37.5133 27.4975 37.4175 27.4566C37.3218 27.4156 37.2354 27.355 37.1639 27.2787C37.0924 27.2023 37.0372 27.1117 37.002 27.0127C36.9667 26.9137 36.952 26.8084 36.9589 26.7034ZM18.5185 26.7034V25.4331H17.9724V25.7414C17.8797 25.6206 17.7599 25.5239 17.6229 25.4592C17.4859 25.3945 17.3357 25.3637 17.1847 25.3693C16.8365 25.3693 16.5026 25.5093 16.2564 25.7585C16.0101 26.0077 15.8718 26.3457 15.8718 26.6981C15.8718 27.0505 16.0101 27.3885 16.2564 27.6377C16.5026 27.8869 16.8365 28.0269 17.1847 28.0269C17.3357 28.0326 17.4859 28.0018 17.6229 27.9371C17.7599 27.8724 17.8797 27.7756 17.9724 27.6549V27.9631H18.5185V26.7034ZM16.4862 26.7034C16.495 26.5539 16.5467 26.4102 16.6351 26.29C16.7234 26.1698 16.8446 26.0785 16.9837 26.0271C17.1227 25.9758 17.2736 25.9667 17.4176 26.001C17.5617 26.0353 17.6927 26.1116 17.7945 26.2203C17.8964 26.329 17.9645 26.4655 17.9907 26.613C18.0168 26.7605 17.9998 26.9124 17.9416 27.0502C17.8835 27.188 17.7869 27.3055 17.6636 27.3884C17.5403 27.4713 17.3957 27.5159 17.2477 27.5167C17.1433 27.5187 17.0396 27.4988 16.9432 27.4582C16.8468 27.4176 16.7598 27.3571 16.6877 27.2806C16.6156 27.2042 16.56 27.1134 16.5244 27.014C16.4889 26.9147 16.4741 26.8089 16.481 26.7034H16.4862Z" fill="#231F20"/>
<path d="M29.3022 6.07227H21.0312V21.1169H29.3022V6.07227Z" fill="#FF5F00"/>
<path d="M21.5566 13.5965C21.555 12.1474 21.8793 10.7169 22.5048 9.41341C23.1303 8.10991 24.0407 6.96756 25.1669 6.07285C23.7724 4.96363 22.0978 4.27387 20.3343 4.08241C18.5708 3.89095 16.7897 4.2055 15.1945 4.99013C13.5993 5.77475 12.2544 6.99779 11.3134 8.51946C10.3725 10.0411 9.87354 11.8 9.87354 13.5951C9.87354 15.3903 10.3725 17.1492 11.3134 18.6708C12.2544 20.1925 13.5993 21.4155 15.1945 22.2002C16.7897 22.9848 18.5708 23.2993 20.3343 23.1079C22.0978 22.9164 23.7724 22.2267 25.1669 21.1174C24.041 20.223 23.1309 19.0811 22.5054 17.7781C21.8799 16.4751 21.5554 15.0451 21.5566 13.5965Z" fill="#EB001B"/>
<path d="M40.4618 13.5961C40.4617 15.3914 39.9626 17.1504 39.0215 18.6721C38.0804 20.1938 36.7353 21.4168 35.1399 22.2014C33.5445 22.9859 31.7632 23.3002 29.9996 23.1085C28.2361 22.9167 26.5614 22.2267 25.167 21.1171C26.2924 20.2219 27.2023 19.0796 27.828 17.7765C28.4536 16.4735 28.7787 15.0436 28.7787 13.5948C28.7787 12.146 28.4536 10.7161 27.828 9.41303C27.2023 8.10996 26.2924 6.96772 25.167 6.07249C26.5614 4.96293 28.2361 4.27283 29.9996 4.0811C31.7632 3.88936 33.5445 4.20371 35.1399 4.98822C36.7353 5.77274 38.0804 6.99575 39.0215 8.51747C39.9626 10.0392 40.4617 11.7982 40.4618 13.5935V13.5961Z" fill="#F79E1B"/>
<path d="M39.5582 19.5225V19.2142H39.6816V19.1504H39.3691V19.2142H39.5031V19.5225H39.5582ZM40.1647 19.5225V19.1504H40.0702L39.9599 19.4161L39.8496 19.1504H39.7656V19.5225H39.8339V19.2434L39.9363 19.4852H40.0072L40.1096 19.2434V19.5251L40.1647 19.5225Z" fill="#F79E1B"/>
</svg>
