<svg width="52" height="32" viewBox="0 0 52 32" fill="none" xmlns="http://www.w3.org/2000/svg">
<rect width="52" height="32" rx="5" fill="white"/>
<g clip-path="url(#clip0_3972_481)">
<path d="M33.0322 18.8939L33.4325 19.0115C33.4104 19.1107 33.367 19.2041 33.3052 19.2858C33.2489 19.3581 33.1746 19.4152 33.0894 19.4519C33.004 19.4893 32.8956 19.5077 32.7626 19.5077C32.6023 19.5077 32.4707 19.4854 32.3685 19.4399C32.2672 19.3944 32.1791 19.3141 32.1051 19.1995C32.0311 19.0845 31.9941 18.9377 31.9941 18.7587C31.9941 18.5205 32.0593 18.3372 32.1888 18.2093C32.3192 18.081 32.5037 18.0166 32.7415 18.0166C32.9278 18.0166 33.074 18.0535 33.1801 18.1269C33.2872 18.1999 33.3664 18.3132 33.418 18.4651L33.015 18.5523C33.0056 18.5182 32.9907 18.4857 32.9709 18.4561C32.9461 18.4225 32.9132 18.3953 32.8751 18.3769C32.8371 18.3584 32.795 18.3492 32.7525 18.3501C32.7054 18.3482 32.6586 18.3585 32.6168 18.3799C32.5751 18.4013 32.5398 18.4331 32.5147 18.472C32.4729 18.5321 32.4522 18.6265 32.4522 18.7561C32.4522 18.9158 32.4768 19.0257 32.527 19.0854C32.5526 19.1149 32.5848 19.1382 32.6212 19.1536C32.6575 19.1689 32.6971 19.1758 32.7367 19.1738C32.8239 19.1738 32.8899 19.1497 32.9344 19.1021C32.9793 19.054 33.0119 18.9845 33.0322 18.8935V18.8939ZM33.5976 18.763C33.5976 18.5278 33.665 18.3445 33.7998 18.2136C33.9341 18.0823 34.1213 18.0166 34.3613 18.0166C34.6075 18.0166 34.7973 18.081 34.9303 18.2106C35.0633 18.3389 35.1298 18.5192 35.1298 18.7514C35.1298 18.9197 35.1007 19.0579 35.0421 19.1656C34.9844 19.2729 34.9003 19.3571 34.7898 19.4176C34.6806 19.4772 34.5432 19.5069 34.3793 19.5069C34.2129 19.5069 34.0746 19.4811 33.9654 19.4296C33.8536 19.3754 33.7611 19.2897 33.6998 19.1836C33.632 19.0716 33.5981 18.9313 33.5981 18.763H33.5976ZM34.0548 18.7647C34.0548 18.9107 34.0825 19.015 34.1376 19.0781C34.1655 19.1097 34.2004 19.1347 34.2397 19.1513C34.279 19.1679 34.3216 19.1756 34.3644 19.1738C34.4626 19.1738 34.5383 19.1424 34.5925 19.0802C34.6462 19.018 34.6731 18.9064 34.6731 18.7454C34.6731 18.6094 34.6449 18.5106 34.5881 18.4484C34.5598 18.417 34.5247 18.3923 34.4853 18.3759C34.4459 18.3596 34.4032 18.3521 34.3604 18.354C34.3184 18.3524 34.2766 18.3602 34.2382 18.3767C34.1997 18.3932 34.1656 18.418 34.1384 18.4493C34.0825 18.5128 34.0548 18.6179 34.0548 18.7647ZM35.3711 18.0415H35.9718L36.2039 18.918L36.4351 18.0415H37.0341V19.4824H36.661V18.3836L36.3713 19.4824H36.0335L35.745 18.3836V19.4824H35.3707V18.0415H35.3711ZM37.3243 18.0415H38.084C38.2496 18.0415 38.3729 18.0797 38.4552 18.1565C38.5376 18.2329 38.579 18.3419 38.579 18.4836C38.579 18.6295 38.5341 18.7428 38.4438 18.8248C38.3544 18.9064 38.2179 18.9476 38.0333 18.9476H37.7832V19.4824H37.3243V18.0415ZM37.7832 18.6557H37.8955C37.9836 18.6557 38.0452 18.6411 38.0809 18.6115C38.098 18.5974 38.1117 18.5798 38.121 18.5599C38.1302 18.54 38.1347 18.5183 38.1342 18.4965C38.1347 18.4753 38.1308 18.4542 38.1229 18.4344C38.115 18.4147 38.1031 18.3967 38.0879 18.3814C38.0571 18.3501 37.999 18.3342 37.9135 18.3342H37.7832V18.6557ZM38.819 18.0415H39.2761V19.1274H39.9891V19.4824H38.819V18.0415ZM40.2151 18.0415H40.6731V19.4824H40.2151V18.0415ZM41.9115 19.2446H41.3909L41.3196 19.4824H40.8528L41.4081 18.0415H41.9062L42.462 19.4824H41.9842L41.9115 19.2446ZM41.8155 18.933L41.6525 18.4149L41.4896 18.933H41.8155ZM42.6122 18.0415H43.0389L43.5956 18.8386V18.0415H44.0263V19.4824H43.5956L43.042 18.6909V19.4824H42.6122V18.0415ZM44.2262 18.0415H45.6148V18.3973H45.1489V19.4824H44.6922V18.3973H44.2262V18.0411V18.0415Z" fill="#225E63"/>
<path fill-rule="evenodd" clip-rule="evenodd" d="M27.4498 19.5202L28.7974 19.0875L28.3614 18.0986C28.0368 18.5063 27.7171 19.033 27.4498 19.5202ZM26.9909 14.9919L24.348 9L5 10.1181L10.3601 25L20.6786 21.6907C20.0246 20.731 19.782 19.5901 20.5408 19.0321C21.3899 18.4081 22.667 19.13 23.4879 20.1567C24.2754 18.8098 26.4853 15.7001 26.9909 14.9915V14.9919Z" fill="#225E63"/>
<path fill-rule="evenodd" clip-rule="evenodd" d="M23.7461 13.33C24.5565 13.33 25.2127 12.6999 25.2127 11.9226C25.2127 11.1457 24.5565 10.5156 23.7461 10.5156C22.9362 10.5156 22.2796 11.1457 22.2796 11.923C22.2796 12.6999 22.9362 13.33 23.7461 13.33ZM22.5465 13.9404H24.9462V20.316H22.5461L22.5465 13.9404ZM21.364 15.801C21.3812 15.8113 21.3949 15.8027 21.3949 15.7826V14.1679C21.3944 14.157 21.3913 14.1463 21.3858 14.1368C21.3803 14.1274 21.3725 14.1193 21.3631 14.1133C21.3631 14.1133 21.0487 13.9043 20.0882 13.8464C20.0367 13.8176 19.2008 13.8133 18.9691 13.8464C15.4794 14.1309 15.3499 16.7002 15.3499 16.8174V17.4415C15.3499 17.5183 15.3499 20.1447 18.9687 20.3774C19.3223 20.4048 20.0151 20.3774 20.0877 20.3774C20.9214 20.3774 21.4992 20.122 21.4992 20.122C21.5088 20.1172 21.5169 20.11 21.5227 20.1012C21.5285 20.0924 21.5318 20.0822 21.5323 20.0718V18.5588C21.5323 18.5386 21.519 18.5313 21.5014 18.542C21.5014 18.542 21.2429 18.7541 20.1036 18.8669C19.7808 18.9039 19.6275 18.8867 19.5108 18.8669C17.8959 18.5905 17.8188 17.3861 17.8188 17.3861C17.8164 17.362 17.8151 17.3378 17.8149 17.3136V16.8522C17.8149 16.832 17.8166 16.7994 17.8193 16.7792C17.8193 16.7792 17.9289 15.4894 19.5108 15.3534H20.1036C20.8025 15.4491 21.364 15.801 21.364 15.801ZM8.69287 20.2915C8.69287 20.3117 8.70917 20.328 8.72898 20.328H11.0666C11.0763 20.3277 11.0854 20.3237 11.0921 20.3168C11.0987 20.31 11.1024 20.3009 11.1023 20.2915V18.4412C11.1023 18.421 11.1186 18.4055 11.1384 18.4068C11.1384 18.4068 14.8699 18.6815 14.8699 16.1324C14.8699 14.1215 12.5287 13.9004 11.758 13.9378H8.72942C8.71969 13.938 8.71044 13.942 8.70368 13.9488C8.69692 13.9556 8.69319 13.9648 8.69331 13.9743L8.69287 20.2915ZM11.0609 16.9934V15.3267H11.633C11.633 15.3267 12.4649 15.3649 12.5296 15.9405C12.5446 15.9856 12.5411 16.2676 12.5296 16.283C12.4222 16.9612 11.6995 16.9938 11.6995 16.9938L11.0609 16.9934Z" fill="#FEFEFE"/>
<path fill-rule="evenodd" clip-rule="evenodd" d="M23.8128 23.3941C24.0075 23.3941 24.1572 23.3941 24.4034 23.2825C25.2556 22.8267 28.1235 15.7003 31.1481 13.5083C31.1699 13.4927 31.1892 13.474 31.2054 13.453C31.2256 13.4242 31.2261 13.3946 31.2261 13.3946C31.2261 13.3946 31.2261 13.2478 30.7777 13.2478C28.0851 13.1731 25.2847 18.9169 23.8133 21.1896C23.7948 21.2145 23.6935 21.1896 23.6935 21.1896C23.6935 21.1896 22.7066 20.0054 21.8491 19.5504C21.7802 19.5244 21.7062 19.5136 21.6324 19.5187C21.5646 19.5187 21.166 19.6002 20.9806 19.7998C20.7609 20.0355 20.7657 20.1677 20.7675 20.4544C20.7675 20.4776 20.7825 20.572 20.8098 20.6205C21.019 20.9935 21.9759 22.3322 22.7603 23.0713C22.8818 23.1589 23.0664 23.3932 23.8124 23.3932L23.8128 23.3941Z" fill="#2BBC5D"/>
<path d="M31.9358 12.9212H34.136C34.5698 12.9212 34.9195 12.9787 35.1855 13.0933C35.4533 13.2084 35.6743 13.3727 35.8492 13.5869C36.0231 13.8015 36.1495 14.0513 36.2279 14.3359C36.3068 14.6205 36.3459 14.9222 36.3459 15.2407C36.3459 15.7399 36.2869 16.1279 36.1693 16.4039C36.062 16.6661 35.8968 16.902 35.6853 17.0949C35.4784 17.2799 35.256 17.4031 35.0186 17.4649C34.694 17.5499 34.3998 17.5924 34.136 17.5924H31.9358V12.9212ZM33.4169 13.9792V16.5314H33.7797C34.0889 16.5314 34.3091 16.4983 34.4403 16.4326C34.5707 16.3644 34.6733 16.2481 34.7473 16.082C34.8213 15.9146 34.8583 15.6433 34.8583 15.2695C34.8583 14.7746 34.7755 14.4359 34.6099 14.2531C34.4443 14.0707 34.1695 13.9792 33.7863 13.9792H33.4164H33.4169ZM36.8687 16.0468L38.278 15.9609C38.3088 16.1841 38.3705 16.3541 38.4643 16.4708C38.6166 16.6597 38.8346 16.7541 39.1183 16.7541C39.3297 16.7541 39.4917 16.7065 39.6053 16.6108C39.7207 16.5133 39.7784 16.4005 39.7784 16.273C39.7784 16.1519 39.7238 16.0438 39.615 15.9481C39.5058 15.8528 39.253 15.7622 38.8567 15.6776C38.2071 15.5351 37.7438 15.3459 37.4672 15.1102C37.1884 14.8741 37.0488 14.5737 37.0488 14.2089C37.0488 13.9685 37.1193 13.7423 37.2611 13.5298C37.4051 13.3152 37.6196 13.1478 37.9054 13.0264C38.193 12.9032 38.5863 12.8418 39.0857 12.8418C39.6978 12.8418 40.1642 12.9534 40.4844 13.1766C40.8072 13.3972 40.9988 13.7496 41.06 14.2342L39.6639 14.3136C39.6269 14.1033 39.5485 13.9505 39.4287 13.8548C39.3112 13.7595 39.1473 13.7114 38.9381 13.7114C38.7664 13.7114 38.6365 13.7474 38.5493 13.82C38.5085 13.8502 38.4754 13.8892 38.4527 13.934C38.43 13.9787 38.4183 14.028 38.4185 14.0779C38.4185 14.1522 38.4546 14.2196 38.5264 14.2788C38.5959 14.3402 38.7615 14.3977 39.0231 14.4505C39.6705 14.5866 40.1338 14.7248 40.4126 14.8651C40.694 15.0029 40.8975 15.175 41.0239 15.3811C41.1525 15.5871 41.2168 15.8176 41.2168 16.0721C41.2182 16.3668 41.1295 16.6552 40.9618 16.9005C40.7918 17.1537 40.5544 17.346 40.2492 17.4774C39.944 17.607 39.5595 17.6718 39.0954 17.6718C38.2802 17.6718 37.7156 17.519 37.4016 17.213C37.088 16.9074 36.9101 16.5185 36.8687 16.0468ZM41.6519 16.0468L43.0611 15.9609C43.0915 16.1841 43.1536 16.3541 43.2474 16.4708C43.3998 16.6597 43.6178 16.7541 43.901 16.7541C44.1124 16.7541 44.2749 16.7065 44.3881 16.6108C44.5039 16.5133 44.5616 16.4005 44.5616 16.273C44.5616 16.1519 44.507 16.0438 44.3982 15.9481C44.289 15.8528 44.0362 15.7622 43.6394 15.6776C42.9902 15.5351 42.5269 15.3459 42.2504 15.1102C41.9712 14.8741 41.832 14.5737 41.832 14.2089C41.832 13.9685 41.9025 13.7423 42.0443 13.5298C42.1883 13.3152 42.4028 13.1478 42.6881 13.0264C42.9762 12.9032 43.3694 12.8418 43.8684 12.8418C44.481 12.8418 44.9474 12.9534 45.2675 13.1766C45.5904 13.3972 45.7819 13.7496 45.8431 14.2342L44.4471 14.3136C44.4101 14.1033 44.3317 13.9505 44.2115 13.8548C44.0939 13.7595 43.9305 13.7114 43.7213 13.7114C43.5491 13.7114 43.4196 13.7474 43.3324 13.82C43.2916 13.8502 43.2586 13.8892 43.2359 13.934C43.2132 13.9787 43.2015 14.028 43.2016 14.0779C43.2016 14.1522 43.2373 14.2196 43.3095 14.2788C43.3791 14.3402 43.5447 14.3977 43.8063 14.4505C44.4537 14.5866 44.9165 14.7248 45.1958 14.8651C45.4767 15.0029 45.6806 15.175 45.807 15.3811C45.9356 15.5871 45.9999 15.8176 45.9999 16.0721C46.0014 16.3668 45.9126 16.6552 45.7449 16.9005C45.5749 17.1537 45.3376 17.346 45.0324 17.4774C44.7272 17.607 44.3423 17.6718 43.8781 17.6718C43.0634 17.6718 42.4988 17.519 42.1848 17.213C41.8712 16.9074 41.6933 16.5185 41.6519 16.0468Z" fill="#225E63"/>
</g>
<defs>
<clipPath id="clip0_3972_481">
<rect width="41" height="16" fill="white" transform="translate(5 9)"/>
</clipPath>
</defs>
</svg>
