<svg width="52" height="32" viewBox="0 0 52 32" fill="none" xmlns="http://www.w3.org/2000/svg">
<rect width="52" height="32" rx="5" fill="white"/>
<path d="M6.57743 23.7325C6.45752 23.3543 6.29149 23.096 5.9041 23.096C5.68273 23.0868 5.50747 23.2621 5.49825 23.4834C5.49825 23.4927 5.49825 23.5111 5.49825 23.5203C5.49825 23.797 5.68273 23.9262 6.05168 24.0922C6.6051 24.3597 6.88181 24.5534 6.88181 24.9777C6.88181 25.568 6.33761 25.8724 5.83031 25.8724C5.56282 25.8724 5.29533 25.8078 5.06473 25.6879C5.03706 25.5034 4.9725 25.1437 4.94482 24.9316L5.1293 24.8947C5.24921 25.3097 5.47058 25.6418 5.92254 25.6418C6.16236 25.651 6.36528 25.4758 6.37451 25.2359C6.37451 25.2267 6.37451 25.2175 6.37451 25.2083C6.37451 24.9223 6.19926 24.7655 5.85798 24.5995C5.40601 24.3781 5.03706 24.1752 5.03706 23.7048C5.03706 23.2344 5.43368 22.8747 6.04245 22.8747C6.2546 22.8839 6.45752 22.9116 6.66044 22.9577C6.67889 23.1145 6.72501 23.5203 6.75268 23.6771L6.57743 23.7325Z" fill="#707070"/>
<path d="M9.69448 25.2453C9.27942 25.7618 8.82745 25.8725 8.62453 25.8725C7.84051 25.8725 7.36087 25.2268 7.36087 24.4797C7.35165 24.0647 7.49923 23.6588 7.77594 23.3544C8.01576 23.0685 8.36626 22.8932 8.73521 22.884C9.27942 22.8932 9.72216 23.336 9.72216 23.8894C9.71293 24.0185 9.69448 24.0739 9.59302 24.1015C9.46389 24.1292 8.63375 24.1846 7.86818 24.2122C7.84973 25.0793 8.37549 25.4298 8.83667 25.4298C9.12261 25.4205 9.3901 25.3006 9.5838 25.0977L9.69448 25.2453ZM8.58763 23.1238C8.29247 23.1238 7.99731 23.4005 7.90507 23.9263C8.2648 23.9263 8.62453 23.9263 9.01193 23.9078C9.13183 23.9078 9.16873 23.871 9.16873 23.7787C9.17795 23.4374 8.94736 23.1331 8.58763 23.1238Z" fill="#707070"/>
<path d="M12.6197 25.2173C12.3337 25.5954 11.9002 25.8721 11.5128 25.8721C10.6919 25.8721 10.2031 25.208 10.2031 24.5163C10.2031 24.0089 10.4244 23.5847 10.8579 23.2526C11.1347 23.0312 11.4852 22.9021 11.8449 22.8836C12.057 22.8744 12.2692 22.9298 12.4444 23.0589C12.509 23.0958 12.5551 23.1696 12.5459 23.2434C12.5367 23.3817 12.4444 23.4924 12.3153 23.5385C12.2876 23.5385 12.26 23.5293 12.1954 23.474C12.0201 23.3079 11.7895 23.2065 11.5405 23.2065C11.1162 23.2065 10.738 23.5662 10.738 24.2395C10.7288 25.1342 11.3468 25.4386 11.725 25.4386C11.9925 25.4386 12.2138 25.3648 12.509 25.0789L12.6197 25.2173Z" fill="#707070"/>
<path d="M16.1143 25.6513C15.7822 25.7066 15.4502 25.7804 15.1274 25.8726V25.3746C14.7769 25.6605 14.4909 25.8726 14.1404 25.8726C13.7069 25.8726 13.3287 25.6051 13.3287 24.9041V23.6497C13.3287 23.2992 13.2734 23.2623 13.1166 23.2254L12.9321 23.1885V23.0225C13.2457 23.004 13.5501 22.9579 13.8545 22.9026C13.836 23.1055 13.836 23.4191 13.836 23.8434V24.7197C13.836 25.2915 14.1312 25.4483 14.4264 25.4483C14.6938 25.4391 14.9429 25.3284 15.1274 25.1347V23.6313C15.1274 23.2808 15.0536 23.2346 14.8322 23.207L14.6293 23.1793V23.0133C14.9706 22.9948 15.3118 22.9579 15.6439 22.8934V25.0609C15.6439 25.3838 15.6992 25.4299 15.9391 25.4391L16.1235 25.4483L16.1143 25.6513Z" fill="#707070"/>
<path d="M17.9329 25.7982H16.4478V25.6137C16.8537 25.5768 16.8906 25.5399 16.8906 25.1248V23.7874C16.8906 23.3631 16.8629 23.3446 16.4939 23.2985V23.1325C16.8076 23.0864 17.1119 22.9941 17.4071 22.865V23.5752C17.6285 23.2432 17.9052 22.8835 18.228 22.8835C18.4678 22.8835 18.6062 23.031 18.6062 23.1971C18.597 23.3446 18.514 23.483 18.3848 23.5568C18.3295 23.5937 18.2649 23.5937 18.2188 23.5476C18.1173 23.4461 18.0435 23.3815 17.9329 23.3815C17.7945 23.3815 17.5547 23.5845 17.4163 23.9073V25.1248C17.4163 25.5491 17.4532 25.586 17.9421 25.6229L17.9329 25.7982Z" fill="#707070"/>
<path d="M18.8918 25.7985V25.614C19.2976 25.5771 19.3437 25.5402 19.3437 25.1067V23.7785C19.3437 23.3819 19.3253 23.3542 18.9379 23.2896V23.1328C19.2515 23.0775 19.5559 22.9945 19.851 22.8746V25.1067C19.851 25.5494 19.8972 25.5771 20.3122 25.614V25.7985H18.8918ZM19.5651 22.2381C19.3806 22.2289 19.233 22.0813 19.2238 21.8968C19.2238 21.7031 19.3714 21.5463 19.5651 21.5371H19.5743C19.7588 21.5371 19.9064 21.6939 19.9064 21.8784V21.8876C19.8972 22.0813 19.7496 22.2381 19.5651 22.2381Z" fill="#707070"/>
<path d="M21.8717 25.7892C21.7887 25.8354 21.6964 25.863 21.595 25.8723C21.1799 25.8723 20.9585 25.6232 20.9585 25.1067V23.225H20.5158L20.4881 23.142L20.6634 22.9576H20.9585V22.4133C21.0784 22.2842 21.2721 22.1182 21.392 21.9891L21.4935 21.9983C21.4843 22.2658 21.4751 22.6439 21.4751 22.9576H22.213C22.2683 23.0406 22.2498 23.1605 22.1761 23.225H21.4751V24.8761C21.4751 25.4018 21.678 25.4941 21.8532 25.4941C21.9916 25.4849 22.1207 25.4572 22.2498 25.3926L22.3052 25.5587L21.8717 25.7892Z" fill="#707070"/>
<path d="M25.5417 23.1328C25.2097 23.1881 25.1359 23.2343 24.9699 23.6032C24.8038 23.9722 24.6378 24.4057 24.1951 25.531C23.946 26.1121 23.7339 26.7024 23.5494 27.3019C23.5125 27.4403 23.4387 27.468 23.3557 27.468C23.1528 27.468 22.9591 27.3204 22.9591 27.1544C22.9591 27.0713 23.0052 27.016 23.0974 26.933C23.2727 26.8039 23.4203 26.6471 23.531 26.4534C23.6693 26.1859 23.7616 25.9553 23.7984 25.8723C23.8261 25.7892 23.8261 25.6878 23.7892 25.6048C23.5402 24.8669 23.1897 24.0736 22.996 23.6124C22.8484 23.2527 22.7931 23.1789 22.4426 23.1328V22.9576H23.7431V23.1328C23.4479 23.1789 23.4111 23.2435 23.4941 23.4833L24.1213 25.0698C24.3058 24.6271 24.564 23.9076 24.6932 23.5018C24.7669 23.2527 24.73 23.1881 24.3519 23.1328V22.9576H25.5325L25.5417 23.1328Z" fill="#707070"/>
<path d="M29.4724 15.0342C29.4908 14.8589 29.4263 14.6929 29.2971 14.5822C29.1772 14.4715 28.9927 14.4254 28.7437 14.4254C28.5316 14.4162 28.3194 14.4715 28.1442 14.5822C28.0058 14.6652 27.9136 14.8128 27.8767 14.9696C27.8306 15.1172 27.8951 15.2832 28.0335 15.3662C28.1903 15.4677 28.3655 15.5323 28.5408 15.5692L28.9559 15.6706C29.2049 15.726 29.4355 15.8182 29.6569 15.9473C29.8413 16.058 29.9981 16.2148 30.0996 16.4085C30.2011 16.6207 30.2195 16.8605 30.1734 17.0911C30.1088 17.5154 29.869 17.9028 29.5093 18.1426C29.1403 18.4008 28.6607 18.5392 28.0611 18.5392C27.4616 18.5392 27.0189 18.4101 26.7237 18.1334C26.4193 17.8659 26.2994 17.4692 26.3732 16.9527H27.3601C27.3325 17.1925 27.397 17.377 27.5538 17.4969C27.7383 17.6261 27.9597 17.6906 28.1903 17.6814C28.4209 17.6906 28.6422 17.6353 28.8452 17.5154C29.002 17.4231 29.1127 17.2663 29.1495 17.0819C29.1864 16.9343 29.1219 16.7867 29.002 16.7037C28.8267 16.593 28.633 16.5192 28.4301 16.4823L27.9228 16.3532C27.5354 16.2517 27.2402 16.1041 27.0373 15.892C26.8344 15.6798 26.7606 15.4031 26.8252 15.0434C26.8713 14.7575 27.0004 14.49 27.1941 14.2778C27.397 14.0565 27.6461 13.8812 27.932 13.7705C28.2456 13.6414 28.5685 13.586 28.9097 13.586C29.2233 13.5768 29.5369 13.6414 29.8229 13.7705C30.0535 13.8812 30.2472 14.0565 30.3671 14.2871C30.487 14.5269 30.5239 14.7944 30.4685 15.0526L29.4724 15.0342Z" fill="#0D0D0D"/>
<path d="M31.6395 18.53C31.2982 18.53 31.0215 18.4377 30.8278 18.2533C30.6249 18.0688 30.5603 17.8013 30.6156 17.4416C30.6433 17.2018 30.754 16.9804 30.9108 16.8051C31.0676 16.6483 31.2613 16.5284 31.4734 16.4639C31.6948 16.3901 31.9346 16.3439 32.1652 16.3255C32.3958 16.3071 32.6264 16.2702 32.857 16.224C32.9769 16.2056 33.0784 16.1226 33.0968 16.0027V15.9842C33.1245 15.8643 33.0968 15.7352 33.0138 15.6337C32.9124 15.5415 32.7832 15.4954 32.6449 15.5138C32.4881 15.5046 32.3313 15.5507 32.1929 15.6337C32.073 15.7075 31.9808 15.809 31.9254 15.9289L31.0123 15.8551C31.1322 15.523 31.3628 15.2463 31.6579 15.0711C31.9992 14.8681 32.3774 14.7667 32.774 14.7851C33.023 14.7851 33.2721 14.822 33.5027 14.9143C33.7056 14.9881 33.8808 15.1264 34.0008 15.3109C34.1207 15.4954 34.1483 15.726 34.1022 16.0119L33.6964 18.4654H32.7371L32.8201 17.9673H32.7924C32.6725 18.1426 32.5157 18.2809 32.3313 18.3824C32.1191 18.4839 31.8793 18.5392 31.6395 18.53ZM32.0453 17.8382C32.2575 17.8382 32.4604 17.7736 32.6172 17.6445C32.774 17.5246 32.8755 17.3586 32.9124 17.1649L32.9769 16.7775C32.9124 16.8144 32.8478 16.8328 32.7832 16.8513C32.7002 16.8697 32.608 16.8882 32.5065 16.9066L32.2482 16.9435C32.0914 16.9619 31.9346 17.0081 31.7963 17.0911C31.6764 17.1556 31.6026 17.2755 31.5841 17.4139C31.5565 17.5246 31.5934 17.6445 31.6856 17.7275C31.7871 17.8105 31.9162 17.8474 32.0453 17.8382Z" fill="#0D0D0D"/>
<path d="M37.0631 14.8315L36.9339 15.5878H36.2145L35.7348 18.4564H34.7295L35.2091 15.5878H34.6926L34.8217 14.8315H35.3382L35.3843 14.5732C35.4489 14.1766 35.6057 13.8814 35.864 13.6877C36.1222 13.494 36.4358 13.3926 36.7679 13.3926C36.9063 13.3926 37.0446 13.4018 37.183 13.4295C37.2752 13.4479 37.3674 13.4664 37.4597 13.494L37.1645 14.2504C37.1184 14.2319 37.0723 14.2227 37.0262 14.2135C36.9708 14.2043 36.9155 14.195 36.8509 14.195C36.731 14.1858 36.6203 14.2227 36.5281 14.2965C36.4543 14.3795 36.4082 14.4718 36.3897 14.5824L36.3528 14.8223H37.0631V14.8315Z" fill="#0D0D0D"/>
<path d="M38.5827 18.53C38.0201 18.53 37.6142 18.364 37.3467 18.0319C37.0792 17.6998 36.9962 17.2387 37.0977 16.6668C37.153 16.3163 37.2822 15.9842 37.4759 15.6891C37.6603 15.4124 37.9094 15.191 38.1953 15.0342C38.4905 14.8774 38.8225 14.7944 39.1638 14.7944C39.4497 14.7851 39.7357 14.8589 39.9939 14.9973C40.2338 15.1356 40.409 15.3478 40.5012 15.6061C40.6027 15.8828 40.6212 16.224 40.5566 16.6299L40.5105 16.9066H38.0477V16.9343C38.0016 17.2202 38.0385 17.4324 38.1584 17.5707C38.2783 17.7091 38.472 17.7829 38.7211 17.7829C38.8779 17.7829 39.0347 17.746 39.173 17.6722C39.3114 17.5984 39.4128 17.4877 39.4866 17.3586L40.409 17.4231C40.2799 17.7552 40.0401 18.0411 39.7357 18.2348C39.3944 18.4377 38.9886 18.5484 38.5827 18.53ZM38.1584 16.2794H39.6711C39.7172 16.0949 39.6711 15.9012 39.5604 15.7444C39.4405 15.5968 39.256 15.523 39.0623 15.5323C38.924 15.5323 38.7764 15.5692 38.6565 15.6337C38.5274 15.6983 38.4259 15.7998 38.3337 15.9104C38.2507 16.0211 38.1953 16.1503 38.1584 16.2794Z" fill="#0D0D0D"/>
<path d="M23.3551 8.40217H23.0231C22.9954 8.24537 22.9216 8.08857 22.8202 7.95943C22.7187 7.8303 22.5896 7.71962 22.442 7.64583C22.073 7.47057 21.6487 7.49825 21.3075 7.71039C21.1138 7.83953 20.957 8.01478 20.8555 8.22692C20.7356 8.49441 20.6802 8.78035 20.6895 9.06629C20.6802 9.35222 20.7356 9.64738 20.8555 9.90565C20.9477 10.1178 21.1045 10.3023 21.3075 10.4222C21.6487 10.6343 22.073 10.6528 22.442 10.4867C22.5896 10.413 22.7187 10.3115 22.8202 10.1824C22.9216 10.0532 22.9862 9.90565 23.0231 9.73962H23.3551C23.3182 9.95177 23.2352 10.1547 23.1061 10.3392C22.977 10.5144 22.8109 10.662 22.6172 10.7635C22.1376 10.9941 21.5842 10.9664 21.1322 10.6897C20.8924 10.5329 20.6987 10.3115 20.5788 10.044C20.4404 9.73962 20.3759 9.40756 20.3759 9.06629C20.3666 8.72501 20.4312 8.39295 20.5788 8.08857C20.6987 7.82108 20.8924 7.59971 21.1322 7.4429C21.5842 7.16619 22.1468 7.13852 22.6172 7.36911C22.8109 7.47057 22.977 7.61816 23.1061 7.79341C23.226 7.97788 23.3182 8.1808 23.3551 8.40217Z" fill="#8E8E8E"/>
<path d="M23.9942 10.8743V8.17173H24.2986V8.5868H24.3171C24.3724 8.44845 24.4739 8.33776 24.603 8.25475C24.7414 8.17173 24.8982 8.12561 25.055 8.12561C25.1195 8.12561 25.1749 8.13484 25.2395 8.14406C25.2948 8.15329 25.3409 8.18096 25.387 8.20863L25.2763 8.47612C25.1933 8.43922 25.1103 8.43 25.0273 8.43C24.8982 8.43 24.769 8.45767 24.6491 8.52224C24.4278 8.64214 24.2894 8.87274 24.2986 9.12178V10.8651H23.9942V10.8743Z" fill="#8E8E8E"/>
<path d="M26.7958 10.9299C26.5652 10.9391 26.3346 10.8745 26.1409 10.7546C25.9564 10.6347 25.8089 10.4687 25.7166 10.2658C25.6152 10.0352 25.5598 9.79535 25.569 9.54631C25.5598 9.29727 25.6152 9.04822 25.7166 8.81763C25.8089 8.61471 25.9472 8.44868 26.1317 8.31955C26.3162 8.19964 26.5283 8.13507 26.7497 8.13507C26.9434 8.13507 27.1371 8.18119 27.3031 8.27343C27.4876 8.37489 27.6259 8.52247 27.7274 8.70695C27.8473 8.93754 27.9027 9.1958 27.8934 9.45407V9.61087H25.8827C25.8734 9.87836 25.9657 10.1459 26.1409 10.358C26.3069 10.5425 26.5468 10.6439 26.7958 10.6347C26.9618 10.6439 27.1279 10.5978 27.2662 10.5056C27.3769 10.4318 27.4691 10.3211 27.5245 10.192L27.8196 10.2842C27.7459 10.4687 27.6259 10.6163 27.4599 10.7269C27.2754 10.8745 27.0356 10.9391 26.7958 10.9299ZM25.8827 9.34338H27.5706C27.5706 9.17736 27.5337 9.02055 27.4691 8.87297C27.4046 8.73462 27.3031 8.62393 27.1832 8.54092C27.0541 8.4579 26.9065 8.41179 26.7589 8.42101C26.6021 8.42101 26.4545 8.46713 26.3254 8.55014C26.1963 8.63316 26.0948 8.75306 26.021 8.8822C25.938 9.02055 25.8919 9.17736 25.8827 9.34338Z" fill="#8E8E8E"/>
<path d="M29.4882 10.9295C29.2853 10.9295 29.0824 10.8742 28.9071 10.7543C28.7319 10.6344 28.6027 10.4591 28.5197 10.2654C28.4183 10.0348 28.3721 9.77656 28.3814 9.52752C28.3721 9.27848 28.4275 9.02943 28.5197 8.79884C28.6027 8.60514 28.7411 8.42989 28.9071 8.30998C29.0824 8.19007 29.2853 8.13473 29.4882 8.13473C29.6266 8.13473 29.7742 8.1624 29.9033 8.22697C30.0047 8.28231 30.097 8.3561 30.1616 8.43911C30.2261 8.5129 30.2722 8.59592 30.3091 8.68816H30.3368V7.27692H30.6504V10.8742H30.346V10.3761H30.3091C30.2722 10.4683 30.2169 10.5514 30.1523 10.6251C30.0785 10.7174 29.9863 10.7912 29.8848 10.8373C29.7742 10.9019 29.6266 10.9295 29.4882 10.9295ZM29.5251 10.6436C29.6819 10.6436 29.8387 10.5975 29.9679 10.496C30.097 10.3946 30.1985 10.2562 30.2538 10.0994C30.3184 9.91492 30.3553 9.72122 30.3553 9.51829C30.3553 9.32459 30.3276 9.1309 30.263 8.94642C30.2077 8.78962 30.1062 8.66048 29.9863 8.55902C29.7188 8.36532 29.3499 8.36532 29.0824 8.55902C28.9532 8.66048 28.861 8.79884 28.8057 8.95564C28.7411 9.1309 28.7134 9.32459 28.7134 9.51829C28.7134 9.71199 28.7411 9.90569 28.8057 10.0902C28.861 10.247 28.9625 10.3853 29.0916 10.4868C29.2023 10.5882 29.3591 10.6436 29.5251 10.6436Z" fill="#8E8E8E"/>
<path d="M31.6471 7.71106C31.5825 7.71106 31.5272 7.69262 31.4811 7.6465C31.4349 7.6096 31.4073 7.54504 31.4073 7.48969C31.4073 7.42513 31.4349 7.36979 31.4811 7.33289C31.5272 7.28677 31.5825 7.26832 31.6471 7.26832C31.7117 7.26832 31.767 7.28677 31.8131 7.33289C31.8592 7.36979 31.8869 7.43435 31.8869 7.48969C31.8869 7.55426 31.8592 7.6096 31.8131 7.6465C31.7762 7.69262 31.7117 7.71106 31.6471 7.71106ZM31.4903 10.8748V8.17225H31.8039V10.8748H31.4903Z" fill="#8E8E8E"/>
<path d="M33.6302 8.172V8.44872H33.0583V10.1643C33.0583 10.3304 33.1045 10.4503 33.1782 10.5148C33.2613 10.5794 33.3627 10.6071 33.4642 10.6071C33.5011 10.6071 33.538 10.6071 33.5656 10.5979C33.5933 10.5979 33.621 10.5886 33.6394 10.5794L33.704 10.8653C33.6671 10.8746 33.6302 10.893 33.5933 10.893C33.4273 10.9299 33.252 10.9022 33.0952 10.8284C32.8646 10.7178 32.7171 10.4872 32.7355 10.2289V8.44872H32.3297V8.172H32.7355V7.52634H33.0491V8.172H33.6302Z" fill="#8E8E8E"/>
<path d="M38.4932 8.40241H38.1612C38.1335 8.24561 38.0597 8.0888 37.9582 7.95967C37.8568 7.83054 37.7277 7.71985 37.5801 7.64606C37.2111 7.47081 36.7868 7.49848 36.4455 7.71063C36.2519 7.83976 36.095 8.01501 35.9936 8.22716C35.8737 8.49465 35.8183 8.78059 35.8276 9.06652C35.8183 9.35246 35.8737 9.64762 35.9936 9.90588C36.0858 10.118 36.2426 10.3025 36.4455 10.4224C36.7868 10.6346 37.2111 10.653 37.5801 10.487C37.7277 10.4132 37.8568 10.3117 37.9582 10.1826C38.0597 10.0535 38.1243 9.90588 38.1612 9.73986H38.4932C38.4563 9.952 38.3733 10.1549 38.2442 10.3394C38.115 10.5147 37.949 10.6622 37.7553 10.7637C37.2757 10.9943 36.7223 10.9666 36.2703 10.6899C36.0305 10.5331 35.8368 10.3117 35.7169 10.0442C35.5785 9.73986 35.514 9.4078 35.514 9.06652C35.5047 8.72524 35.5693 8.39319 35.7169 8.0888C35.8368 7.82131 36.0305 7.59994 36.2703 7.44314C36.7223 7.16643 37.2849 7.13876 37.7553 7.36935C37.949 7.47081 38.115 7.61839 38.2442 7.80287C38.3733 7.97812 38.4563 8.18104 38.4932 8.40241Z" fill="#8E8E8E"/>
<path d="M39.8848 10.93C39.728 10.93 39.5804 10.9024 39.4421 10.8378C39.313 10.7732 39.2023 10.681 39.1193 10.5611C39.0362 10.4319 38.9901 10.2751 38.9994 10.1183C38.9901 9.96154 39.0362 9.81396 39.1285 9.69405C39.2299 9.58336 39.3591 9.50035 39.4974 9.45423C39.6727 9.39889 39.8572 9.35277 40.0324 9.33432C40.263 9.30665 40.4383 9.27898 40.5582 9.26053C40.6781 9.24208 40.7426 9.17752 40.7426 9.07606V9.00227C40.7519 8.83624 40.6873 8.67943 40.5766 8.56875C40.4475 8.45806 40.2722 8.40272 40.1062 8.41195C39.9402 8.40272 39.7741 8.44884 39.6358 8.54108C39.5251 8.61487 39.4329 8.71633 39.3775 8.84546L39.0824 8.73478C39.1377 8.59642 39.2207 8.47651 39.3314 8.38427C39.4329 8.30126 39.562 8.23669 39.6911 8.19058C39.8203 8.15368 39.9586 8.13523 40.097 8.13523C40.2077 8.13523 40.3091 8.15368 40.4198 8.17213C40.5305 8.1998 40.6412 8.24592 40.7334 8.31048C40.8349 8.38427 40.9179 8.47651 40.964 8.5872C41.0286 8.72555 41.0562 8.88236 41.0562 9.03916V10.8747H40.7426V10.4504H40.7242C40.6504 10.5795 40.5582 10.6994 40.429 10.7825C40.2722 10.8839 40.0785 10.9393 39.8848 10.93ZM39.931 10.6441C40.0785 10.6441 40.2353 10.6072 40.3645 10.5334C40.4844 10.4596 40.5766 10.3582 40.6504 10.2382C40.715 10.1091 40.7519 9.97076 40.7519 9.8324V9.44501C40.7057 9.4819 40.6412 9.50957 40.5766 9.5188C40.4936 9.53724 40.4014 9.55569 40.2999 9.57414L40.0416 9.61103C39.8572 9.62948 39.6727 9.68482 39.5159 9.76784C39.3868 9.84163 39.313 9.97998 39.3222 10.1276C39.313 10.2751 39.3775 10.4135 39.4974 10.5057C39.6173 10.6072 39.7741 10.6533 39.931 10.6441Z" fill="#8E8E8E"/>
<path d="M41.8226 10.8746V8.172H42.127V8.58707H42.1455C42.2008 8.44872 42.3023 8.33803 42.4314 8.25502C42.5698 8.172 42.7266 8.12589 42.8834 8.12589C42.9479 8.12589 43.0033 8.13511 43.0679 8.14433C43.1232 8.15356 43.1693 8.18123 43.2154 8.2089L43.1048 8.47639C43.0217 8.43949 42.9387 8.43027 42.8557 8.43027C42.7266 8.43027 42.5974 8.45794 42.4775 8.52251C42.2562 8.64242 42.1178 8.87301 42.127 9.12205V10.8653H41.8226V10.8746Z" fill="#8E8E8E"/>
<path d="M44.5049 10.9295C44.302 10.9295 44.0991 10.8742 43.9238 10.7543C43.7486 10.6344 43.6194 10.4591 43.5364 10.2654C43.435 10.0348 43.3889 9.77656 43.3981 9.52752C43.3889 9.27848 43.4442 9.02943 43.5364 8.79884C43.6194 8.60514 43.7578 8.42989 43.9238 8.30998C44.0991 8.19007 44.302 8.13473 44.5049 8.13473C44.6433 8.13473 44.7909 8.1624 44.92 8.22697C45.0215 8.28231 45.1137 8.3561 45.1783 8.43911C45.2428 8.5129 45.2889 8.59592 45.3258 8.68816H45.3535V7.27692H45.6671V10.8742H45.3627V10.3761H45.3258C45.2889 10.4683 45.2336 10.5514 45.169 10.6251C45.0952 10.7174 45.003 10.7912 44.9016 10.8373C44.7909 10.9019 44.6433 10.9295 44.5049 10.9295ZM44.5418 10.6436C44.6986 10.6436 44.8554 10.5975 44.9846 10.496C45.1137 10.3946 45.2152 10.2562 45.2705 10.0994C45.3351 9.91492 45.372 9.72122 45.372 9.51829C45.372 9.32459 45.3443 9.1309 45.2797 8.94642C45.2244 8.78962 45.1321 8.66048 45.003 8.55902C44.7355 8.36532 44.3666 8.36532 44.0991 8.55902C43.97 8.66048 43.8777 8.79884 43.8224 8.95564C43.7578 9.1309 43.7301 9.32459 43.7301 9.51829C43.7301 9.71199 43.7578 9.90569 43.8224 10.0902C43.8777 10.247 43.9792 10.3853 44.1083 10.4868C44.219 10.5882 44.3758 10.6436 44.5418 10.6436Z" fill="#8E8E8E"/>
<path d="M17.5896 7.44344C16.9716 7.56335 16.3352 7.62791 15.708 7.62791C12.452 7.62791 11.2252 5.75549 11.1422 5.61713V5.60791C11.1422 5.60791 11.1422 5.60791 11.1422 5.61713C11.0592 5.75549 9.83244 7.62791 6.57645 7.62791C5.94002 7.62791 5.3128 7.56335 4.69481 7.44344C4.69481 7.44344 3.87389 16.7687 11.1514 19.8217C18.4105 16.7687 17.5896 7.44344 17.5896 7.44344ZM11.133 18.9639V12.95H6.12449C6.05992 12.7471 6.00458 12.5442 5.94924 12.3413C5.61718 11.0407 5.44193 9.69404 5.44193 8.35659C5.82011 8.40271 6.19828 8.42116 6.56723 8.42116C8.94696 8.42116 10.3859 7.51723 11.1422 6.81622V12.95H16.1507C15.256 15.8278 13.5681 17.8478 11.133 18.9639Z" fill="#839FC7"/>
<path d="M28.3833 25.8266V25.6974C28.743 25.6605 28.7523 25.6329 28.7523 25.1717V23.3823C28.3925 24.1847 27.8576 25.3746 27.6731 25.8266H27.5532C27.3779 25.3654 26.9075 24.2216 26.5755 23.4284C26.5017 24.9503 26.5017 25.2824 26.5017 25.3838C26.5017 25.6329 26.6124 25.6698 26.9167 25.6974V25.8266H25.8652V25.6974C26.1235 25.6698 26.225 25.6144 26.2619 25.3746C26.2895 25.1901 26.2988 25.0149 26.4094 23.4284C26.4279 23.1978 26.3818 23.1148 25.9944 23.0779V22.9488H26.7968L27.7561 25.144L28.7707 22.9488H29.5732V23.0779C29.195 23.124 29.1489 23.1609 29.1581 23.4745L29.1766 25.1717C29.195 25.6329 29.2042 25.6513 29.5916 25.6974V25.8266H28.3833Z" fill="#839FC7"/>
<path d="M32.2942 25.1162C32.2665 25.2269 32.1466 25.6973 32.1005 25.8264H29.9237V25.6973C30.3388 25.6604 30.3664 25.6235 30.3664 25.2638V23.5205C30.3664 23.1331 30.3203 23.1054 29.9882 23.0778V22.9486H31.3626C31.7869 22.9486 31.9529 22.9394 32.0083 22.9394C32.0083 23.0409 32.0267 23.3821 32.0451 23.622L31.9068 23.6404C31.8791 23.5205 31.8238 23.4006 31.7684 23.2899C31.6946 23.1515 31.6024 23.1239 31.3441 23.1239H30.9475C30.8092 23.1239 30.7999 23.1331 30.7999 23.2715V24.24H31.2796C31.5932 24.24 31.6209 24.1754 31.6762 23.871H31.8238V24.7934H31.6762C31.6209 24.4705 31.584 24.4244 31.2704 24.4244H30.7907V25.2822C30.7907 25.5958 30.8737 25.6327 31.1043 25.6327H31.5009C31.7684 25.6327 31.8146 25.5958 31.916 25.4759C32.0175 25.3468 32.1005 25.2084 32.1651 25.0609L32.2942 25.1162Z" fill="#839FC7"/>
<path d="M34.9412 23.6589C34.9043 23.5297 34.8582 23.4006 34.7936 23.2807C34.7198 23.17 34.6829 23.1331 34.4339 23.1331H34.0188V25.273C34.0188 25.6235 34.0557 25.6696 34.4708 25.6973V25.8264H33.1425V25.6973C33.5484 25.6696 33.5853 25.6327 33.5853 25.273V23.1331H33.2071C32.9673 23.1331 32.8935 23.1608 32.8197 23.2899C32.7551 23.4098 32.709 23.5297 32.6721 23.6589H32.5338C32.5614 23.3821 32.5891 23.087 32.5983 22.8472H32.709C32.7736 22.9486 32.8289 22.9486 32.9488 22.9486H34.7013C34.7936 22.9579 34.8858 22.921 34.9319 22.8472H35.0426C35.0426 23.0501 35.0611 23.3821 35.0795 23.6404L34.9412 23.6589Z" fill="#839FC7"/>
<path d="M38.084 25.8631C38.0287 25.8631 37.9826 25.8631 37.9272 25.8539C37.5583 25.8354 37.3922 25.7432 37.2078 25.4849C37.0417 25.2543 36.8849 24.9776 36.7466 24.747C36.6636 24.6087 36.6082 24.581 36.3961 24.581H36.2577V25.2636C36.2577 25.6325 36.3038 25.6602 36.6543 25.6971V25.8262H35.4368V25.6971C35.7965 25.6602 35.8334 25.6417 35.8334 25.2636V23.511C35.8334 23.1421 35.7873 23.1236 35.4368 23.0868V22.9576H36.5898C36.9218 22.9576 37.1432 22.9945 37.3184 23.1144C37.5121 23.2436 37.6321 23.4649 37.6228 23.7047C37.6228 24.0829 37.3738 24.3227 37.051 24.4611C37.1248 24.5994 37.3185 24.8946 37.4476 25.0883C37.549 25.2451 37.669 25.4019 37.7981 25.5403C37.8811 25.6417 37.9918 25.7063 38.1117 25.7432L38.084 25.8631ZM36.4422 24.4242C36.6636 24.4242 36.8111 24.3873 36.9218 24.2951C37.0879 24.1659 37.1709 23.963 37.1616 23.7509C37.1616 23.2804 36.8573 23.1052 36.5344 23.1052C36.4514 23.096 36.3776 23.1144 36.3038 23.1513C36.2669 23.179 36.2577 23.2251 36.2577 23.3358V24.415L36.4422 24.4242Z" fill="#839FC7"/>
<path d="M38.2616 25.8262V25.6971C38.6213 25.6602 38.6582 25.6417 38.6582 25.2636V23.5203C38.6582 23.1421 38.6213 23.1236 38.2616 23.0868V22.9576H39.4791V23.0868C39.1194 23.1236 39.0825 23.1421 39.0825 23.5203V25.2636C39.0825 25.6417 39.1194 25.6602 39.4791 25.6971V25.8262H38.2616Z" fill="#839FC7"/>
<path d="M42.5585 25.1069C42.4939 25.3375 42.4109 25.5588 42.3187 25.7802C42.0512 25.8448 41.7837 25.8817 41.507 25.8909C40.4278 25.8909 39.8928 25.1714 39.8928 24.4151C39.8928 23.5112 40.5846 22.8839 41.59 22.8839C41.8759 22.8932 42.1526 22.9301 42.4294 22.9854C42.4478 23.1883 42.4755 23.465 42.5124 23.6772L42.3648 23.7048C42.2726 23.4005 42.1619 23.2252 41.9405 23.133C41.7929 23.0776 41.6453 23.05 41.4885 23.05C40.7783 23.05 40.4001 23.5942 40.4001 24.3136C40.4001 25.1622 40.8429 25.7064 41.5347 25.7064C41.9682 25.7064 42.1988 25.5035 42.4294 25.0515L42.5585 25.1069Z" fill="#839FC7"/>
<path d="M44.5502 23.631C44.4764 23.345 44.3473 23.0499 43.9322 23.0499C43.6002 23.0499 43.4711 23.2897 43.4711 23.5203C43.4711 23.8154 43.6648 23.9723 44.0337 24.1567C44.5502 24.4242 44.7993 24.6364 44.7993 25.0607C44.7993 25.5311 44.3934 25.8908 43.8123 25.8908C43.5725 25.8816 43.3419 25.8355 43.1206 25.7432C43.0837 25.6233 43.0283 25.2912 43.0006 25.0607L43.1482 25.0238C43.2405 25.3189 43.4434 25.7155 43.8954 25.7155C44.1536 25.734 44.375 25.5311 44.3934 25.2728C44.3934 25.2544 44.3934 25.2359 44.3934 25.2175C44.3934 24.8946 44.2182 24.7563 43.8308 24.5441C43.3696 24.2951 43.1021 24.0829 43.1021 23.6586C43.1021 23.2528 43.4342 22.8838 44.0337 22.8838C44.2366 22.8931 44.4303 22.9207 44.624 22.9669C44.6425 23.1237 44.6609 23.3174 44.6978 23.6033L44.5502 23.631Z" fill="#839FC7"/>
<path d="M45.28 23.3358C45.28 23.2713 45.2892 23.2067 45.3169 23.1514C45.3354 23.096 45.3723 23.0499 45.4091 23.0038C45.446 22.9577 45.4922 22.93 45.5475 22.9023C45.6582 22.8562 45.7781 22.8562 45.8888 22.9023C45.9441 22.9208 45.9902 22.9577 46.0271 23.0038C46.064 23.0499 46.1009 23.096 46.1194 23.1514C46.1378 23.2067 46.1563 23.2713 46.1563 23.3358C46.1563 23.4004 46.147 23.465 46.1194 23.5203C46.1009 23.5757 46.064 23.6218 46.0271 23.6679C45.9902 23.714 45.9441 23.7417 45.8888 23.7694C45.7781 23.8155 45.6582 23.8155 45.5475 23.7694C45.4922 23.7417 45.446 23.714 45.4091 23.6679C45.3723 23.6218 45.3354 23.5757 45.3169 23.5203C45.2892 23.465 45.28 23.4004 45.28 23.3358ZM45.3538 23.3358C45.3538 23.3912 45.363 23.4373 45.3815 23.4926C45.3999 23.5388 45.4276 23.5757 45.4645 23.6126C45.5014 23.6494 45.5383 23.6771 45.5844 23.6956C45.6766 23.7325 45.7781 23.7325 45.8611 23.6956C45.9072 23.6771 45.9441 23.6494 45.981 23.6126C46.0179 23.5757 46.0364 23.5388 46.0548 23.4926C46.0733 23.4465 46.0825 23.3912 46.0825 23.3358C46.0825 23.2805 46.0733 23.2344 46.0548 23.179C46.0364 23.1329 46.0087 23.0868 45.981 23.0591C45.9441 23.0222 45.9072 22.9946 45.8611 22.9761C45.7689 22.9392 45.6674 22.9392 45.5844 22.9761C45.5383 22.9946 45.5014 23.0222 45.4645 23.0591C45.4276 23.096 45.3999 23.1329 45.3815 23.179C45.363 23.2344 45.3538 23.2897 45.3538 23.3358ZM45.7228 23.382H45.6305V23.5941H45.5383V23.0684H45.7135C45.7689 23.0684 45.815 23.0776 45.8611 23.1052C45.898 23.1329 45.9165 23.179 45.9165 23.2252C45.9165 23.2805 45.8796 23.3266 45.8334 23.3451C45.8611 23.3543 45.8796 23.3727 45.898 23.3912C45.9072 23.4189 45.9165 23.4373 45.9165 23.465V23.5019C45.9165 23.5295 45.9165 23.5572 45.9257 23.5849V23.5941H45.8334C45.8242 23.5757 45.8242 23.5664 45.8242 23.548C45.8242 23.5295 45.8242 23.5111 45.8242 23.5019V23.465C45.8242 23.4373 45.815 23.4189 45.8058 23.4004C45.7781 23.3912 45.7504 23.382 45.7228 23.382ZM45.6305 23.2989H45.732C45.7504 23.2989 45.7781 23.2897 45.7965 23.2805C45.815 23.2713 45.8242 23.2528 45.8242 23.2252C45.8242 23.1975 45.815 23.179 45.7965 23.1606C45.7689 23.1514 45.7412 23.1421 45.7135 23.1421H45.6305V23.2989Z" fill="#839FC7"/>
</svg>
