<svg width="53" height="32" viewBox="0 0 53 32" fill="none" xmlns="http://www.w3.org/2000/svg">
<rect width="52" height="32" rx="5" fill="white"/>
<path fill-rule="evenodd" clip-rule="evenodd" d="M17.9342 21.3444H15.1878L13.1284 13.2565C13.0307 12.8845 12.8231 12.5556 12.5178 12.4006C11.7559 12.011 10.9164 11.701 10.0005 11.5446V11.2332H14.4246C15.0352 11.2332 15.4931 11.701 15.5695 12.2442L16.638 18.0782L19.383 11.2332H22.053L17.9342 21.3444ZM23.5795 21.3444H20.9858L23.1216 11.2332H25.7152L23.5795 21.3444ZM29.0708 14.0343C29.1472 13.4897 29.6051 13.1783 30.1394 13.1783C30.9789 13.1001 31.8935 13.2565 32.6567 13.6447L33.1147 11.4677C32.3514 11.1564 31.5119 11 30.75 11C28.2326 11 26.4008 12.4005 26.4008 14.3443C26.4008 15.823 27.6984 16.5995 28.6142 17.0672C29.6051 17.5336 29.9867 17.845 29.9104 18.3114C29.9104 19.011 29.1472 19.3224 28.3853 19.3224C27.4694 19.3224 26.5535 19.0892 25.7153 18.6996L25.2573 20.8779C26.1732 21.2662 27.1641 21.4225 28.08 21.4225C30.9026 21.4994 32.6567 20.1002 32.6567 18C32.6567 15.3553 29.0708 15.2003 29.0708 14.0343ZM41.7338 21.3444L39.6743 11.2332H37.4623C37.0043 11.2332 36.5464 11.5446 36.3938 12.011L32.5802 21.3444H35.2502L35.7832 19.867H39.0638L39.369 21.3444H41.7338ZM37.844 13.9561L38.6059 17.7668H36.4702L37.844 13.9561Z" fill="#172B85"/>
</svg>
