<svg width="238" height="66" viewBox="0 0 238 66" fill="none" xmlns="http://www.w3.org/2000/svg">
<path fill-rule="evenodd" clip-rule="evenodd" d="M238 15.9133C238 14.8947 236.979 13.8761 235.957 13.8761H227.785V2.6715C227.785 1.1436 226.764 0.125 225.232 0.125C224.21 0.125 223.189 1.1436 223.189 2.6715V13.8761H215.528C214.506 13.8761 213.485 14.8947 213.485 15.9133C213.485 16.9319 214.506 17.9505 215.528 17.9505H223.189V47.4899C223.189 49.0178 224.21 50.0364 225.232 50.0364C226.764 50.0364 227.785 49.0178 227.785 47.4899V17.9505H235.957C236.979 17.9505 238 16.9319 238 15.9133ZM4.59657 31.7016C4.59657 23.5528 10.2146 16.9319 18.897 16.9319C27.0687 16.9319 32.176 23.0435 32.176 31.7016C32.176 39.8504 27.0687 45.962 18.897 45.962C10.2146 45.962 4.59657 39.3411 4.59657 31.7016ZM19.4077 12.8575C12.7683 12.8575 7.66095 15.9133 4.59657 20.497V15.404C4.59657 14.3854 3.57511 13.3668 2.55365 13.3668C1.02146 13.3668 0 14.3854 0 15.404V62.7689C0 64.2968 1.02146 65.3154 2.55365 65.3154C3.57511 65.3154 4.59657 64.2968 4.59657 62.7689V42.9062C7.66095 47.4899 12.7683 50.0364 19.4077 50.0364C29.6223 50.0364 37.2833 42.3969 37.2833 31.7016C37.2833 20.497 29.6223 12.8575 19.4077 12.8575ZM50.5616 31.7016C50.5616 23.5528 56.1797 16.9319 64.3513 16.9319C72.523 16.9319 78.1411 23.0435 78.1411 31.7016C78.1411 39.3411 72.523 45.962 64.3513 45.962C56.1797 45.962 50.5616 39.8504 50.5616 31.7016ZM80.6947 50.0364C82.2269 50.0364 83.2484 49.0178 83.2484 47.4899V31.7016C83.2484 20.497 75.0767 12.8575 64.3513 12.8575C54.1367 12.8575 45.9651 19.9877 45.9651 31.7016C45.9651 41.3783 52.6045 50.0364 64.3513 50.0364C70.4801 50.0364 75.0767 47.4899 78.1411 43.4155V47.4899C78.1411 49.0178 79.1625 50.0364 80.6947 50.0364ZM123.086 16.4226C123.086 16.4226 114.914 36.2853 110.828 45.4527C107.764 53.0922 102.657 60.2224 95.5063 64.8061C95.2509 64.8061 94.9955 64.9334 94.7402 65.0607C94.4848 65.188 94.2294 65.3154 93.9741 65.3154C92.4419 65.3154 91.9312 64.2968 91.9312 63.2782C91.9312 62.2596 92.4419 61.7503 92.9526 61.241C97.5492 58.1852 101.124 54.6201 104.189 49.0178L90.399 16.4226C90.399 16.4226 89.8882 15.9133 89.8882 15.404C89.8882 14.3854 90.9097 13.3668 92.4419 13.3668C93.4634 13.3668 93.9741 13.8761 94.4848 14.8947L106.742 43.9248L119 14.3854C119.511 13.8761 120.021 13.3668 121.043 13.3668C122.575 13.3668 123.086 14.3854 123.086 15.404V16.4226ZM160.368 50.0364C161.901 50.0364 162.922 49.0178 162.922 47.4899V29.6644C162.922 19.9877 155.772 12.8575 146.068 12.8575C136.364 12.8575 129.214 19.9877 129.214 29.6644V47.4899C129.214 49.0178 130.235 50.0364 131.768 50.0364C133.3 50.0364 134.321 49.0178 134.321 47.4899V29.1551C134.321 22.5342 139.428 17.4412 146.068 17.4412C152.707 17.4412 157.815 22.5342 157.815 29.1551V47.4899C157.815 49.0178 158.836 50.0364 160.368 50.0364ZM191.525 16.9319C184.375 16.9319 179.268 22.5342 178.246 29.1551H204.293C203.272 22.0249 198.675 16.9319 191.525 16.9319ZM208.89 31.1923C208.89 32.2109 207.868 33.2295 206.847 33.2295H178.246C178.246 39.8504 183.353 45.962 192.036 45.962C196.632 45.962 200.208 44.4341 203.272 40.869C203.272 40.3597 204.293 39.8504 204.804 39.8504C206.336 39.8504 206.847 40.869 206.847 41.8876C206.847 42.3969 206.847 42.9062 206.336 43.4155C203.783 46.9806 198.675 50.0364 192.036 50.0364C180.289 50.0364 173.139 41.3783 173.139 31.7016C173.139 21.5156 180.8 12.8575 191.525 12.8575C201.74 12.8575 208.89 20.497 208.89 31.1923Z" fill="#EC6665"/>
</svg>
