<svg width="159" height="54" fill="none" xmlns="http://www.w3.org/2000/svg"><path d="M53.428 35.105h5.765l1.666-6.15h3.075l1.922 6.15h6.15l-2.563-7.174.513-.257c.256 0 .64-.256 1.025-.512.512-.385.896-.64 1.409-1.153.384-.385.897-.897 1.281-1.666.512-.64.769-1.41 1.025-2.178.513-1.922.128-3.46-.897-4.74-1.153-1.41-2.819-2.05-4.997-2.05H58.81l-5.381 19.73zm15.502-12.94c-.128.512-.512 1.025-1.025 1.41-.512.384-1.153.512-1.793.512H62.14l1.153-3.844h3.844c.64 0 1.153.128 1.537.513.256.384.385.896.256 1.409zm13.71 12.94h5.253l3.587-13.837h-5.125l-1.794 7.047c-.256.769-.64 1.41-1.28 1.922a3.147 3.147 0 01-1.923.64c-.512 0-1.025-.128-1.28-.64-.385-.385-.385-.897-.257-1.41l2.05-7.559h-5.125l-2.306 8.328c-.385 1.794-.257 3.203.512 4.228s1.922 1.538 3.588 1.538c.768 0 1.537-.129 2.434-.513.769-.256 1.281-.64 1.537-.769.257-.256.513-.384.641-.512l-.512 1.537zM98.91 21.268h-5.125l-3.715 13.837h5.125l1.921-6.918c.129-.769.641-1.41 1.153-1.922.641-.513 1.282-.769 1.922-.769.641 0 1.153.256 1.41.64.256.385.256 1.026.128 1.666l-1.922 7.303h5.125l2.178-8.2c.512-1.665.384-3.074-.384-4.228-.769-1.024-1.922-1.665-3.46-1.665-.897 0-1.665.256-2.434.64-.897.257-1.41.641-1.666.77-.384.255-.512.384-.64.64l.384-1.794z" fill="#71B92F"/><path d="M113.004 15.374l-5.253 19.731h5.765l1.538-5.893h3.843c2.307 0 4.357-.64 6.15-1.922 1.922-1.41 3.075-2.947 3.588-4.997.512-1.922.256-3.587-.897-4.869-1.153-1.409-2.819-2.05-5.125-2.05h-9.609zm7.943 4.87c.769 0 1.282.127 1.538.64.384.384.512.897.384 1.41-.128.64-.512 1.024-1.153 1.537-.512.384-1.153.64-1.794.64h-3.587l1.153-4.228h3.459zm17.681 14.861l2.306-8.584c.385-1.537.129-2.819-.896-3.844-1.025-1.024-2.435-1.665-4.485-1.665-.768 0-1.537.128-2.306.384a6.755 6.755 0 00-1.922.64c-.512.129-1.025.513-1.409.77a3.18 3.18 0 00-.897.64c-.128.128-.256.256-.384.256l1.922 2.563.512-.384c.256-.257.641-.385 1.281-.641.641-.256 1.153-.384 1.794-.384s1.153.128 1.409.384c.385.256.385.64.257 1.025l-4.357.769c-1.537.384-2.818.896-3.843 1.665-1.025.64-1.666 1.666-1.922 2.69-.256 1.154-.128 2.05.64 2.82.641.768 1.794 1.153 3.204 1.153.768 0 1.537-.129 2.306-.513.768-.256 1.281-.64 1.537-.769l.513-.512-.385 1.537h5.125zm-6.534-3.33c-.897 0-1.153-.385-1.025-1.154.128-.256.256-.512.641-.769.256-.256.64-.384 1.025-.512l2.434-.384-.128.384a2.518 2.518 0 01-1.153 1.666c-.513.512-1.153.768-1.794.768zm11.915 3.587c-.64.896-1.537 1.28-2.562 1.28a4.784 4.784 0 01-1.538-.255l-1.025 4.228h.257c.256.128.512.256 1.025.256.512.128.897.128 1.409.128 1.409 0 2.819-.513 4.1-1.41 1.281-.896 2.691-2.434 3.972-4.484L159 21.268h-5.51l-4.868 8.072-.513-8.072H142.6l1.794 13.581-.385.513z" fill="#1F478D"/><path fill-rule="evenodd" clip-rule="evenodd" d="M24.6 0c13.58 0 24.599 11.018 24.599 24.6 0 13.58-11.018 24.599-24.6 24.599C11.02 49.199 0 38.181 0 24.599 0 11.02 11.018 0 24.6 0z" fill="#1F478D"/><path fill-rule="evenodd" clip-rule="evenodd" d="M8.456 30.878l-2.178 7.687h9.865l2.562-9.61.513-1.793c-1.41.128-10.122 1.153-10.762 3.716z" fill="#FEFEFE"/><path fill-rule="evenodd" clip-rule="evenodd" d="M26.778 22.165l-4.228-6.406h-9.482c-.384 0-1.28.384-.896.897l3.971 6.021c.641-.64 3.46-.512 5.638-.512h4.997z" fill="url(#paint0_linear)"/><path fill-rule="evenodd" clip-rule="evenodd" d="M29.083 38.95h10.634c-.768-.257-1.665-.898-2.178-1.666l-5.894-8.456a19.506 19.506 0 01-5.38.768H21.01l5.638 7.944c.512.769 1.41 1.41 2.434 1.41z" fill="url(#paint1_linear)"/><path d="M16.271 9.61l-3.972 5.893c-.384.512-.384.64-.256 1.025.256-.897 1.41-.769 1.922-.769H29.34c1.153 0 1.921.256 2.562.897.64.769.897 1.41.64 2.306-.256.897-.768 1.666-1.793 2.306-1.025.64-2.05.897-3.203.897h-8.072c-1.281 0-2.819-.256-3.844.769l-5.38 5.51c-.641.64-1.282 1.28-1.666 2.05.512-.385 1.153-.898 1.793-.898h15.759c3.972 0 7.432-1.025 10.506-3.075 2.947-2.05 4.87-4.484 5.766-7.559.769-3.075.128-5.51-1.794-7.56-1.922-2.05-4.868-2.946-8.84-2.946H19.858c-1.28 0-2.946.256-3.587 1.153z" fill="#FEFEFE"/><path fill-rule="evenodd" clip-rule="evenodd" d="M7.943 32.8c1.025-2.306 8.84-2.819 10.506-2.947l.128-.256h-8.2c-1.025 0-1.665.512-2.05 1.537L7.943 32.8z" fill="#D9DADA"/><path d="M63.092 42.6V51h-.852v-6.72l-3.3 5.652h-.42l-3.3-5.616V51h-.852v-8.4h.732l3.648 6.228L62.36 42.6h.732zm8.809 8.472c-.832 0-1.588-.184-2.268-.552a4.175 4.175 0 01-1.584-1.536c-.376-.648-.564-1.376-.564-2.184 0-.808.188-1.536.564-2.184a4.087 4.087 0 011.584-1.524 4.608 4.608 0 012.268-.564c.832 0 1.58.184 2.244.552.672.368 1.2.88 1.584 1.536.384.648.576 1.376.576 2.184 0 .808-.192 1.54-.576 2.196a4.087 4.087 0 01-1.584 1.524c-.664.368-1.412.552-2.244.552zm0-.792a3.66 3.66 0 001.8-.444c.536-.304.956-.72 1.26-1.248a3.56 3.56 0 00.456-1.788c0-.656-.152-1.248-.456-1.776a3.203 3.203 0 00-1.26-1.248 3.584 3.584 0 00-1.8-.456 3.65 3.65 0 00-1.812.456c-.536.296-.96.712-1.272 1.248a3.495 3.495 0 00-.456 1.776c0 .656.152 1.252.456 1.788a3.4 3.4 0 001.272 1.248 3.729 3.729 0 001.812.444zm8.794-7.68h.888v7.632h4.704V51h-5.592v-8.4zm9.467 0h3.42c.888 0 1.672.18 2.352.54.68.352 1.208.848 1.584 1.488.376.632.564 1.356.564 2.172 0 .816-.188 1.544-.564 2.184a3.95 3.95 0 01-1.584 1.488c-.68.352-1.464.528-2.352.528h-3.42v-8.4zm3.372 7.632c.736 0 1.38-.144 1.932-.432.552-.296.98-.7 1.284-1.212.304-.52.456-1.116.456-1.788 0-.672-.152-1.264-.456-1.776a3.13 3.13 0 00-1.284-1.212c-.552-.296-1.196-.444-1.932-.444H91.05v6.864h2.484zm12.614.84c-.832 0-1.588-.184-2.268-.552a4.175 4.175 0 01-1.584-1.536c-.376-.648-.564-1.376-.564-2.184 0-.808.188-1.536.564-2.184a4.087 4.087 0 011.584-1.524 4.608 4.608 0 012.268-.564c.832 0 1.58.184 2.244.552.672.368 1.2.88 1.584 1.536.384.648.576 1.376.576 2.184 0 .808-.192 1.54-.576 2.196a4.087 4.087 0 01-1.584 1.524c-.664.368-1.412.552-2.244.552zm0-.792a3.66 3.66 0 001.8-.444c.536-.304.956-.72 1.26-1.248a3.56 3.56 0 00.456-1.788c0-.656-.152-1.248-.456-1.776a3.203 3.203 0 00-1.26-1.248 3.584 3.584 0 00-1.8-.456 3.65 3.65 0 00-1.812.456c-.536.296-.96.712-1.272 1.248a3.495 3.495 0 00-.456 1.776c0 .656.152 1.252.456 1.788a3.4 3.4 0 001.272 1.248 3.729 3.729 0 001.812.444zm15.52-7.68l-3.72 8.4h-.876l-3.72-8.4h.96l3.216 7.296 3.24-7.296h.9zm8.63 6.156h-4.68L124.61 51h-.924l3.84-8.4h.876l3.84 8.4h-.936l-1.008-2.244zm-.324-.72l-2.016-4.512-2.016 4.512h4.032z" fill="#000"/><defs><linearGradient id="paint0_linear" x1="19.439" y1="22.623" x2="19.439" y2="15.746" gradientUnits="userSpaceOnUse"><stop stop-color="#A1C527"/><stop offset=".439" stop-color="#9EC428"/><stop offset=".729" stop-color="#95C12B"/><stop offset=".831" stop-color="#46A33A"/><stop offset="1" stop-color="#18993C"/></linearGradient><linearGradient id="paint1_linear" x1="30.378" y1="38.87" x2="30.378" y2="28.809" gradientUnits="userSpaceOnUse"><stop stop-color="#A1C527"/><stop offset=".439" stop-color="#9EC428"/><stop offset=".729" stop-color="#95C12B"/><stop offset=".831" stop-color="#46A33A"/><stop offset="1" stop-color="#18993C"/></linearGradient></defs></svg>