<svg width="40" height="40" viewBox="0 0 40 40" fill="none" xmlns="http://www.w3.org/2000/svg">
<rect x="0.5" y="0.5" width="39" height="39" rx="1.5" fill="white"/>
<path d="M27.8574 23.1427C27.8144 23.0707 27.5484 22.4926 26.2683 21.3046C24.9282 20.0605 25.1082 20.2625 26.7223 18.1113C27.7054 16.8012 28.0984 16.0012 27.9754 15.6591C27.8584 15.3331 27.1354 15.4191 27.1354 15.4191L24.7312 15.4331C24.7312 15.4331 24.5532 15.4091 24.4202 15.4881C24.2911 15.5661 24.2081 15.7461 24.2081 15.7461C24.2081 15.7461 23.8271 16.7602 23.3191 17.6223C22.248 19.4414 21.819 19.5374 21.6439 19.4244C21.2369 19.1614 21.3389 18.3663 21.3389 17.8023C21.3389 16.0392 21.6059 15.3041 20.8179 15.1141C20.5559 15.0511 20.3639 15.0091 19.6948 15.0021C18.8367 14.9931 18.1097 15.0051 17.6987 15.2061C17.4246 15.3401 17.2136 15.6391 17.3426 15.6561C17.5016 15.6771 17.8617 15.7531 18.0527 16.0132C18.2997 16.3482 18.2907 17.1022 18.2907 17.1022C18.2907 17.1022 18.4327 19.1774 17.9597 19.4354C17.6346 19.6124 17.1896 19.2514 16.2345 17.6003C15.7455 16.7552 15.3755 15.8201 15.3755 15.8201C15.3755 15.8201 15.3045 15.6461 15.1775 15.5531C15.0235 15.4401 14.8074 15.4041 14.8074 15.4041L12.5213 15.4181C12.5213 15.4181 12.1782 15.4281 12.0522 15.5771C11.9402 15.7101 12.0432 15.9842 12.0432 15.9842C12.0432 15.9842 13.8334 20.1715 15.8595 22.2826C17.7187 24.2178 19.8288 24.0908 19.8288 24.0908H20.7849C20.7849 24.0908 21.0739 24.0588 21.2209 23.8997C21.3569 23.7537 21.3519 23.4797 21.3519 23.4797C21.3519 23.4797 21.3329 22.1966 21.929 22.0076C22.516 21.8216 23.2701 23.2477 24.0691 23.7967C24.6732 24.2118 25.1322 24.1208 25.1322 24.1208L27.2694 24.0908C27.2694 24.0908 28.3875 24.0218 27.8574 23.1427Z" fill="#FF7E00"/>
<rect x="0.5" y="0.5" width="39" height="39" rx="1.5" stroke="#EFD8C3"/>
</svg>
