<svg width="40" height="40" viewBox="0 0 40 40" fill="none" xmlns="http://www.w3.org/2000/svg">
<rect x="0.5" y="0.5" width="39" height="39" rx="1.5" fill="white"/>
<path fill-rule="evenodd" clip-rule="evenodd" d="M24.9602 15.0345C23.6442 13.7232 21.8939 13.0008 20.0293 13C16.187 13 13.06 16.112 13.0585 19.9369C13.058 21.1595 13.3789 22.3531 13.9889 23.4052L13 27L16.6953 26.0353C17.7135 26.588 18.8599 26.8793 20.0264 26.8797H20.0294C23.8712 26.8797 26.9985 23.7675 27 19.9424C27.0008 18.0887 26.2764 16.3458 24.9602 15.0345ZM20.0293 25.7081H20.0269C18.9873 25.7077 17.9677 25.4296 17.078 24.9044L16.8665 24.7793L14.6737 25.3519L15.259 23.2241L15.1212 23.0059C14.5412 22.0879 14.2349 21.0268 14.2354 19.9373C14.2366 16.7581 16.8358 14.1717 20.0316 14.1717C21.5791 14.1722 23.0339 14.7727 24.1277 15.8626C25.2216 16.9525 25.8236 18.4012 25.8231 19.942C25.8217 23.1214 23.2228 25.7081 20.0293 25.7081ZM23.2073 21.3896C23.0332 21.3028 22.1768 20.8835 22.0171 20.8256C21.8576 20.7678 21.7413 20.739 21.6253 20.9124C21.5092 21.0859 21.1754 21.4764 21.0738 21.592C20.9721 21.7077 20.8706 21.7222 20.6964 21.6354C20.5222 21.5487 19.961 21.3656 19.2957 20.775C18.778 20.3154 18.4284 19.7478 18.3268 19.5743C18.2253 19.4007 18.3259 19.3159 18.4032 19.2205C18.5917 18.9875 18.7805 18.7432 18.8386 18.6276C18.8967 18.5119 18.8676 18.4106 18.824 18.3239C18.7805 18.2372 18.4322 17.384 18.2871 17.0368C18.1456 16.6989 18.0021 16.7446 17.8951 16.7393C17.7937 16.7342 17.6775 16.7332 17.5613 16.7332C17.4452 16.7332 17.2565 16.7765 17.0968 16.9501C16.9372 17.1237 16.4873 17.543 16.4873 18.3962C16.4873 19.2494 17.1114 20.0737 17.1985 20.1894C17.2855 20.3051 18.4267 22.0559 20.1739 22.8067C20.5894 22.9854 20.9138 23.092 21.1668 23.1719C21.5841 23.3038 21.9637 23.2852 22.2639 23.2406C22.5986 23.1908 23.2943 22.8212 23.4396 22.4163C23.5847 22.0114 23.5847 21.6644 23.541 21.592C23.4976 21.5197 23.3814 21.4764 23.2073 21.3896Z" fill="#FF7E00"/>
<rect x="0.5" y="0.5" width="39" height="39" rx="1.5" stroke="#EFD8C3"/>
</svg>
