<svg width="116" height="40" viewBox="0 0 116 40" fill="none" xmlns="http://www.w3.org/2000/svg">
<path d="M52.7938 11.9888C52.3368 14.5658 50.2799 16.2465 46.966 16.2465C43.9949 16.2465 42.5093 14.6779 42.8521 12.1008C43.3092 9.52381 45.4804 7.95518 48.4515 7.95518C51.7654 7.95518 53.1367 9.41176 52.7938 11.9888ZM50.7369 27.6751C50.1656 30.7003 47.7659 32.605 44.2234 32.605C40.9095 32.605 39.0812 30.8123 39.6525 28.0112C40.1096 25.098 42.5093 23.4174 45.9375 23.4174C49.3657 23.3053 51.0798 24.986 50.7369 27.6751ZM60.4501 11.6527C61.4785 5.26611 57.1362 0.560224 49.7085 0.560224C43.9949 0.560224 39.7668 2.46499 37.0243 6.72269C33.3675 12.437 22.8545 29.4678 22.8545 29.4678L18.3979 7.61905C18.2836 7.28291 18.055 7.17087 17.8265 7.17087H7.8848L8.91325 0.784314C8.91325 0.336134 8.6847 0 8.34188 0H6.39925C6.17071 0 5.94216 0.22409 5.82789 0.560224L4.68517 7.17087H0.914179C0.571362 7.17087 0.342817 7.39496 0.342817 7.73109L0 9.63585C0 9.97199 0.228545 10.3081 0.571362 10.3081H4.22808L1.48554 25.7703C1.02845 28.6835 1.48554 31.1485 2.74254 32.7171C3.88526 34.1737 5.82789 34.958 8.11334 34.958C8.79897 34.958 9.82743 34.8459 10.5131 34.7339C10.7416 34.7339 10.9701 34.5098 10.9701 34.1737L11.1987 32.0448C11.1987 31.7087 10.9701 31.4846 10.6273 31.4846C9.9417 31.5966 8.91325 31.5966 8.11334 31.5966C6.74207 31.5966 5.71362 31.2605 5.14226 30.5882C4.34235 29.6919 4.22808 28.1232 4.5709 26.1064L7.42771 10.3081H15.7696L20.6833 33.9496C20.7976 34.2857 21.0261 34.3978 21.2547 34.3978H22.9688C23.3116 34.3978 23.5401 34.2857 23.7687 33.9496L35.8815 14.3417C35.9958 15.9104 36.6814 17.591 38.0527 18.9356C34.7388 20.6162 32.4534 23.8655 31.7677 27.563C30.5107 35.1821 35.653 40 43.195 40C51.7654 40 57.2505 35.9664 58.6217 28.0112C59.3074 24.3137 58.0504 20.9524 55.4221 19.2717C58.2789 17.591 59.8787 14.5658 60.4501 11.6527Z" fill="#BF3072"/>
<path d="M61.75 29.1719C61.75 28.5365 61.9479 28.0208 62.3438 27.625C62.75 27.2188 63.2656 27.0052 63.8906 26.9844C64.5052 26.9635 65.0156 27.151 65.4219 27.5469C65.8385 27.9323 66.0469 28.4323 66.0469 29.0469C66.0469 29.651 65.849 30.1562 65.4531 30.5625C65.0573 30.9583 64.5417 31.1667 63.9062 31.1875C63.2917 31.2083 62.776 31.026 62.3594 30.6406C61.9531 30.2552 61.75 29.7656 61.75 29.1719ZM76.4844 14.0781L76.1562 15.875C77.5521 14.4375 79.2188 13.7396 81.1562 13.7812C82.2188 13.8021 83.099 14.0469 83.7969 14.5156C84.5052 14.9844 84.9844 15.6042 85.2344 16.375C86.7969 14.6042 88.5885 13.7396 90.6094 13.7812C92.2552 13.8229 93.474 14.3906 94.2656 15.4844C95.0677 16.5677 95.3698 18.0885 95.1719 20.0469L93.3438 31H89.6406L91.4844 20.0156C91.5365 19.5573 91.5417 19.1354 91.5 18.75C91.3333 17.5312 90.5625 16.9062 89.1875 16.875C87.6562 16.8333 86.4479 17.6719 85.5625 19.3906L85.5156 19.7344L83.5781 31H79.8594L81.7031 20.0625C81.7552 19.6146 81.7604 19.1979 81.7188 18.8125C81.5521 17.5521 80.7812 16.9062 79.4062 16.875C78.0208 16.8542 76.8646 17.474 75.9375 18.7344L73.7969 31H70.0938L73.0156 14.0938L76.4844 14.0781ZM98.0938 22.5312C98.3021 20.7917 98.7708 19.2292 99.5 17.8438C100.229 16.4583 101.13 15.4271 102.203 14.75C103.276 14.0625 104.469 13.7344 105.781 13.7656C107.5 13.8073 108.844 14.4479 109.812 15.6875L111.438 7H115.156L110.984 31H107.672L107.922 29.25C106.609 30.6771 105.068 31.3698 103.297 31.3281C101.724 31.3073 100.464 30.7031 99.5156 29.5156C98.5781 28.3177 98.0729 26.7292 98 24.75C97.9688 24.1042 97.9844 23.474 98.0469 22.8594L98.0938 22.5312ZM101.688 23.9844C101.615 25.276 101.812 26.3021 102.281 27.0625C102.76 27.8229 103.469 28.2135 104.406 28.2344C105.833 28.276 107.068 27.5833 108.109 26.1562L109.375 18.8906C108.885 17.5885 107.938 16.9167 106.531 16.875C105.115 16.8333 103.974 17.4583 103.109 18.75C102.245 20.0417 101.771 21.7865 101.688 23.9844Z" fill="#BF3072"/>
</svg>
