<svg width="18" height="18" viewBox="0 0 18 18" fill="none" xmlns="http://www.w3.org/2000/svg">
<path d="M17.0996 1.2H14.9996V0.3C14.9996 0.1341 14.8655 0 14.6996 0H12.5996C12.4337 0 12.2996 0.1341 12.2996 0.3V1.2H5.69961V0.3C5.69961 0.1341 5.56551 0 5.39961 0H3.29961C3.13371 0 2.99961 0.1341 2.99961 0.3V1.2H0.899609C0.733709 1.2 0.599609 1.3341 0.599609 1.5V4.8V17.7C0.599609 17.8659 0.733709 18 0.899609 18H17.0996C17.2655 18 17.3996 17.8659 17.3996 17.7V4.8V1.5C17.3996 1.3341 17.2655 1.2 17.0996 1.2ZM12.8996 0.6H14.3996V1.5V2.4H12.8996V1.5V0.6ZM3.59961 0.6H5.09961V1.5V2.4H3.59961V1.5V0.6ZM1.19961 1.8H2.99961V2.7C2.99961 2.8659 3.13371 3 3.29961 3H5.39961C5.56551 3 5.69961 2.8659 5.69961 2.7V1.8H12.2996V2.7C12.2996 2.8659 12.4337 3 12.5996 3H14.6996C14.8655 3 14.9996 2.8659 14.9996 2.7V1.8H16.7996V4.5H1.19961V1.8ZM1.19961 17.4V5.1H16.7996V17.4H1.19961Z" fill="#5F6368"/>
<path d="M11.3998 6.89999H9.2998H8.6998H6.5998H5.9998H3.2998V9.59999V10.2V12.3V12.9V15.6H5.9998H6.5998H8.6998H9.2998H11.3998H11.9998H14.6998V12.9V12.3V10.2V9.59999V6.89999H11.9998H11.3998ZM9.2998 7.49999H11.3998V9.59999H9.2998V7.49999ZM11.3998 12.3H9.2998V10.2H11.3998V12.3ZM6.5998 10.2H8.6998V12.3H6.5998V10.2ZM6.5998 7.49999H8.6998V9.59999H6.5998V7.49999ZM3.8998 7.49999H5.9998V9.59999H3.8998V7.49999ZM3.8998 10.2H5.9998V12.3H3.8998V10.2ZM5.9998 15H3.8998V12.9H5.9998V15ZM8.6998 15H6.5998V12.9H8.6998V15ZM11.3998 15H9.2998V12.9H11.3998V15ZM14.0998 15H11.9998V12.9H14.0998V15ZM14.0998 12.3H11.9998V10.2H14.0998V12.3ZM14.0998 7.49999V9.59999H11.9998V7.49999H14.0998Z" fill="#5F6368"/>
</svg>
