<svg width="8" height="13" viewBox="0 0 8 13" fill="none" xmlns="http://www.w3.org/2000/svg">
<path d="M3.584 12.148V10.902C2.87467 10.846 2.27733 10.6827 1.792 10.412C1.30667 10.132 0.886667 9.78667 0.532 9.376L1.666 8.34C1.93667 8.65733 2.24 8.91867 2.576 9.124C2.912 9.32 3.29 9.446 3.71 9.502V6.66C2.68333 6.44533 1.94133 6.11867 1.484 5.68C1.036 5.232 0.812 4.66267 0.812 3.972C0.812 3.22533 1.05467 2.628 1.54 2.18C2.02533 1.72267 2.70667 1.44267 3.584 1.34V0.0799996H4.97V1.34C5.558 1.40533 6.062 1.55 6.482 1.774C6.91133 1.998 7.28467 2.306 7.602 2.698L6.454 3.692C6.26733 3.468 6.04333 3.272 5.782 3.104C5.53 2.936 5.21733 2.81467 4.844 2.74V5.344C5.84267 5.57733 6.57533 5.904 7.042 6.324C7.50867 6.73467 7.742 7.304 7.742 8.032C7.742 8.75067 7.50867 9.37133 7.042 9.894C6.57533 10.4073 5.88467 10.7293 4.97 10.86V12.148H3.584ZM2.506 3.902C2.506 4.22867 2.59933 4.48067 2.786 4.658C2.982 4.83533 3.29 4.98 3.71 5.092V2.726C2.90733 2.866 2.506 3.258 2.506 3.902ZM6.062 8.158C6.062 7.878 5.97333 7.63533 5.796 7.43C5.628 7.21533 5.31067 7.04267 4.844 6.912V9.488C5.236 9.404 5.53467 9.24533 5.74 9.012C5.95467 8.76933 6.062 8.48467 6.062 8.158Z" fill="#2B2B2B"/>
</svg>
