<svg width="24" height="24" viewBox="0 0 24 24" fill="none" xmlns="http://www.w3.org/2000/svg">
<rect width="24" height="24" fill="#005ff9"/>
<path d="M16.3048 7.51285C15.2105 6.50428 13.8494 6 12.224 6C10.5153 6 9.05873 6.57283 7.85677 7.72093C6.65482 8.86903 6.05261 10.2962 6.05261 12.0049C6.05261 13.6426 6.62544 15.0502 7.76865 16.2301C8.91675 17.41 10.459 18 12.4002 18C13.5704 18 14.7185 17.7601 15.8445 17.2778C16.2117 17.1212 16.3904 16.7001 16.2411 16.3305C16.0869 15.9486 15.6511 15.7723 15.2717 15.9339C14.2925 16.355 13.3329 16.5655 12.3978 16.5655C10.9094 16.5655 9.75641 16.1126 8.93878 15.2044C8.1236 14.2987 7.71479 13.2338 7.71479 12.0122C7.71479 10.6854 8.15298 9.57895 9.02691 8.69033C9.89839 7.80416 10.9731 7.35863 12.246 7.35863C13.4186 7.35863 14.41 7.72338 15.2178 8.45288C16.0257 9.18237 16.4296 10.1004 16.4296 11.2069C16.4296 11.9633 16.2436 12.5949 15.8739 13.0967C15.5043 13.601 15.1199 13.8507 14.7209 13.8507C14.5055 13.8507 14.3978 13.7356 14.3978 13.5031C14.3978 13.3146 14.4125 13.0942 14.4394 12.8397L14.8947 9.11628H13.328L13.2276 9.48103C12.8286 9.15545 12.3904 8.99143 11.9155 8.99143C11.1615 8.99143 10.5153 9.29253 9.97917 9.89229C9.44062 10.492 9.17379 11.2656 9.17379 12.2105C9.17379 13.1334 9.41124 13.88 9.8886 14.4455C10.366 15.0135 10.9388 15.295 11.6095 15.295C12.2093 15.295 12.7209 15.0428 13.1469 14.541C13.4675 15.0233 13.94 15.2632 14.5642 15.2632C15.4822 15.2632 16.2754 14.8641 16.9437 14.0636C17.612 13.2656 17.9473 12.3011 17.9473 11.1726C17.9473 9.74296 17.4014 8.52142 16.3048 7.51285ZM12.6964 13.1457C12.4198 13.5177 12.0893 13.7062 11.705 13.7062C11.4431 13.7062 11.2325 13.5692 11.0734 13.295C10.9119 13.0208 10.8311 12.6805 10.8311 12.2717C10.8311 11.7674 10.9437 11.3611 11.1689 11.0526C11.3941 10.7442 11.6732 10.5875 12.0061 10.5875C12.295 10.5875 12.552 10.7026 12.7772 10.9351C13.0024 11.1677 13.115 11.4761 13.115 11.8629C13.1126 12.3452 12.9731 12.7711 12.6964 13.1457Z" fill="#fff"/>
</svg>
