<svg width="383" height="36" viewBox="0 0 383 36" fill="none" xmlns="http://www.w3.org/2000/svg">
<rect id="#rmvRctw" width="383" height="36" fill="#FCFCFC" mask="url(#rmvRct)" />
   <mask id="rmvRct">
       <rect id="#rmvRctw" width="383" height="36" fill="#FCFCFC"/>
        <rect width="8" height="15" rx="4" x="23" y="10" fill="#000"/>
        <rect width="8" height="15" rx="4" x="39" y="10" fill="#000"/>
        <rect width="8" height="15" rx="4" x="55" y="10" fill="#000"/>
        <rect width="8" height="15" rx="4" x="71" y="10" fill="#000"/>
        <rect width="8" height="15" rx="4" x="87" y="10" fill="#000"/>
        <rect width="8" height="15" rx="4" x="103" y="10" fill="#000"/>
        <rect width="8" height="15" rx="4" x="119" y="10" fill="#000"/>
        <rect width="8" height="15" rx="4" x="135" y="10" fill="#000"/>
        <rect width="8" height="15" rx="4" x="151" y="10" fill="#000"/>
        <rect width="8" height="15" rx="4" x="167" y="10" fill="#000"/>
        <rect width="8" height="15" rx="4" x="183" y="10" fill="#000"/>
        <rect width="8" height="15" rx="4" x="199" y="10" fill="#000"/>
        <rect width="8" height="15" rx="4" x="215" y="10" fill="#000"/>
        <rect width="8" height="15" rx="4" x="231" y="10" fill="#000"/>
        <rect width="8" height="15" rx="4" x="247" y="10" fill="#000"/>
        <rect width="8" height="15" rx="4" x="263" y="10" fill="#000"/>
        <rect width="8" height="15" rx="4" x="279" y="10" fill="#000"/>
        <rect width="8" height="15" rx="4" x="295" y="10" fill="#000"/>
        <rect width="8" height="15" rx="4" x="311" y="10" fill="#000"/>
        <rect width="8" height="15" rx="4" x="327" y="10" fill="#000"/>
        <rect width="8" height="15" rx="4" x="343" y="10" fill="#000"/>
    </mask>

</svg>
