<svg width="16" height="20" viewBox="0 0 16 20" fill="none" xmlns="http://www.w3.org/2000/svg">
<path d="M14.1213 18.1213L14.7224 18.7224V18.7224L14.1213 18.1213ZM14.9856 9.70595L14.1396 9.78926V9.78927L14.9856 9.70595ZM12.3774 6.16854C11.9102 6.12253 11.4942 6.46395 11.4481 6.93113C11.4021 7.39831 11.7436 7.81434 12.2107 7.86035L12.3774 6.16854ZM1.01445 9.70595L1.86035 9.78926H1.86035L1.01445 9.70595ZM3.78926 7.86035C4.25644 7.81434 4.59787 7.39831 4.55186 6.93113C4.50584 6.46395 4.08982 6.12253 3.62263 6.16854L3.78926 7.86035ZM7.15 12C7.15 12.4694 7.53056 12.85 8 12.85C8.46944 12.85 8.85 12.4694 8.85 12H7.15ZM8 1L8.60104 0.398959C8.44163 0.239553 8.22543 0.15 8 0.15C7.77456 0.15 7.55836 0.239553 7.39896 0.398959L8 1ZM10.399 4.60104C10.7309 4.93299 11.2691 4.93299 11.601 4.60104C11.933 4.2691 11.933 3.73091 11.601 3.39896L10.399 4.60104ZM4.39896 3.39896C4.06701 3.73091 4.06701 4.2691 4.39896 4.60104C4.73091 4.93299 5.2691 4.93299 5.60104 4.60104L4.39896 3.39896ZM14.15 10.375V13H15.85V10.375H14.15ZM9 18.15H7V19.85H9V18.15ZM1.85 13V10.375H0.15V13H1.85ZM7 18.15C5.56176 18.15 4.56858 18.1482 3.82144 18.0477C3.09876 17.9506 2.73481 17.7754 2.47972 17.5203L1.27764 18.7224C1.90123 19.346 2.68373 19.6101 3.59492 19.7326C4.48167 19.8518 5.60982 19.85 7 19.85V18.15ZM0.15 13C0.15 14.3902 0.148195 15.5183 0.267415 16.4051C0.389922 17.3163 0.654045 18.0988 1.27764 18.7224L2.47972 17.5203C2.22463 17.2652 2.04942 16.9012 1.95226 16.1786C1.85181 15.4314 1.85 14.4382 1.85 13H0.15ZM14.15 13C14.15 14.4382 14.1482 15.4314 14.0477 16.1786C13.9506 16.9012 13.7754 17.2652 13.5203 17.5203L14.7224 18.7224C15.346 18.0988 15.6101 17.3163 15.7326 16.4051C15.8518 15.5183 15.85 14.3902 15.85 13H14.15ZM9 19.85C10.3902 19.85 11.5183 19.8518 12.4051 19.7326C13.3163 19.6101 14.0988 19.346 14.7224 18.7224L13.5203 17.5203C13.2652 17.7754 12.9012 17.9506 12.1786 18.0477C11.4314 18.1482 10.4382 18.15 9 18.15V19.85ZM15.85 10.375C15.85 10.047 15.851 9.82134 15.8315 9.62263L14.1396 9.78927C14.149 9.8839 14.15 10.0065 14.15 10.375H15.85ZM15.8315 9.62263C15.6514 7.79474 14.2053 6.34857 12.3774 6.16854L12.2107 7.86035C13.2315 7.96089 14.0391 8.76849 14.1396 9.78926L15.8315 9.62263ZM1.85 10.375C1.85 10.0065 1.85103 9.8839 1.86035 9.78926L0.168539 9.62263C0.148968 9.82134 0.15 10.047 0.15 10.375H1.85ZM1.86035 9.78926C1.96089 8.76849 2.76849 7.96089 3.78926 7.86035L3.62263 6.16854C1.79474 6.34857 0.34857 7.79474 0.168539 9.62263L1.86035 9.78926ZM8.85 12L8.85 1L7.15 1L7.15 12H8.85ZM11.601 3.39896L8.60104 0.398959L7.39896 1.60104L10.399 4.60104L11.601 3.39896ZM5.60104 4.60104L8.60104 1.60104L7.39896 0.398959L4.39896 3.39896L5.60104 4.60104Z" fill="#4E4E4E"/>
</svg>
