<svg width="24" height="24" viewBox="0 0 24 24" fill="none" xmlns="http://www.w3.org/2000/svg">
<path fill-rule="evenodd" clip-rule="evenodd" d="M16.9459 5.64331C16.5978 5.64331 16.2613 5.68932 15.9293 5.74582C14.5612 3.29965 11.9485 1.64404 8.94632 1.64404C4.52852 1.64404 0.946777 5.22529 0.946777 9.64309C0.946777 12.6393 2.59689 15.247 5.03556 16.6171C5.17357 15.986 5.48159 15.3845 5.97212 14.8944L6.00062 14.8659C4.1785 13.8354 2.94741 11.8842 2.94741 9.64309C2.94741 6.32986 5.6336 3.64368 8.94682 3.64368C11.7925 3.64368 14.1637 5.63081 14.7797 8.28899C15.4048 7.88397 16.1463 7.64345 16.9464 7.64345C19.1555 7.64345 20.9461 9.43407 20.9461 11.6432C20.9461 13.3648 19.8551 14.8289 18.3285 15.3925C18.7225 15.9655 18.9255 16.6281 18.9395 17.2961C21.2722 16.4736 22.9468 14.2569 22.9468 11.6432C22.9458 8.3295 20.2596 5.64331 16.9459 5.64331Z" fill="#DEDEDE"/>
<path d="M16.2817 15.1706L15.4961 14.385L13.4367 16.4444H12.5556V15.5633L14.615 13.5039L13.8294 12.7183L12.5556 13.9922V12H11.4444V13.9922L10.1706 12.7183L9.385 13.5039L11.4444 15.5633V16.4444H10.5633L8.50389 14.385L7.71833 15.1706L8.99222 16.4444H7V17.5556H8.99222L7.71833 18.8294L8.50389 19.615L10.5633 17.5556H11.4444V18.4367L9.385 20.4961L10.1706 21.2817L11.4444 20.0078V22H12.5556V20.0078L13.8294 21.2817L14.615 20.4961L12.5556 18.4367V17.5556H13.4367L15.4961 19.615L16.2817 18.8294L15.0078 17.5556H17V16.4444H15.0078L16.2817 15.1706Z" fill="#5DB3FB"/>
</svg>
