<?xml version="1.0" encoding="utf-8"?>
<!-- Generator: Adobe Illustrator 23.0.6, SVG Export Plug-In . SVG Version: 6.00 Build 0)  -->
<svg version="1.1" id="Layer_1" xmlns="http://www.w3.org/2000/svg" xmlns:xlink="http://www.w3.org/1999/xlink" x="0px" y="0px"
	 viewBox="0 0 496 496" style="enable-background:new 0 0 496 496;" xml:space="preserve">
<style type="text/css">
	.st0{fill:#29337A;}
	.st1{fill:#FFFFFF;}
	.st2{fill:#E51D35;}
</style>
<path class="st0" d="M496,369.6c0,27.2-21.6,46.4-48,46.4H48c-26.4,0-48-19.2-48-46.4V126.4C0,99.2,21.6,80,48,80h400
	c26.4,0,48,19.2,48,46.4V369.6z"/>
<polygon class="st1" points="272,248 442.4,80 394.4,80 248,226.4 101.6,80 53.6,80 224,248 53.6,416 101.6,416 248,269.6 
	394.4,416 442.4,416 "/>
<polygon class="st1" points="496,216 280,216 280,80 216,80 216,216 0,216 0,280 216,280 216,416 280,416 280,280 496,280 "/>
<polygon class="st2" points="496,232 264,232 273.6,232 432.8,80 416.8,80 264,232 264,80 232,80 232,232 232,232 77.6,80 63.2,80 
	216,232 0,232 0,264 216.8,264 67.2,416 81.6,416 232,264 232,416 264,416 264,265.6 418.4,416 432.8,416 280,264 496,264 "/>
</svg>
