<svg xmlns="http://www.w3.org/2000/svg" viewBox="0 0 32 32">
  <defs>
    <clipPath id="a">
      <path d="M0 26.079h26.086V0H0v26.079z"/>
    </clipPath>
  </defs>
  <g clip-path="url(#a)" transform="matrix(1.25,0,0,-1.25,1.3813031,32.552521) matrix(0.98138119,0,0,0.98138119,-1.1050425,0.44201696)" fill="#fff">
    <path d="M10.8663 0h-4.346c-.261 0-.435.174-.435.435v20.863c0 .043 0 .087.043.13l1.435 4.346c.043.174.217.305.434.305h1.435c.174 0 .347-.131.391-.305l1.434-4.346c.044-.043.044-.087.044-.13V.435c0-.261-.174-.435-.435-.435m-3.912.869h3.477v20.342l-1.304 3.998h-.825l-1.348-3.998V.869z"/>
    <path d="M16.0821 0H3.4771c-.261 0-.434.174-.434.435 0 .26.173.434.434.434h12.605c.261 0 .435-.174.435-.434 0-.261-.174-.435-.435-.435M6.5199 16.5165h-1.739c-.26 0-.434.174-.434.435v4.346c0 .261.174.435.434.435h1.739c.261 0 .435-.174.435-.435v-4.346c0-.261-.174-.435-.435-.435m-1.304.869h.869v3.477h-.869v-3.477zm-2.6079.0003h-.435c-1.217 0-2.173.956-2.173 2.173v.87c0 .26.174.434.435.434h2.173c.261 0 .435-.174.435-.434v-2.608c0-.261-.174-.435-.435-.435m-1.739 2.608v-.435c0-.739.565-1.304 1.304-1.304v1.739H.869z"/>
    <path d="M6.5198 0c-.13 0-.217.043-.304.13-.174.174-.131.435.043.609l3.956 3.564-3.956 3.173c-.087.087-.174.217-.174.348 0 .13.044.26.174.347l3.912 3.13-3.912 3.129c-.087.087-.174.218-.174.348 0 .13.044.261.174.348l4.347 3.477c.174.13.478.13.608-.087.131-.174.131-.478-.087-.609l-3.912-3.129 3.912-3.13c.087-.086.174-.217.174-.347 0-.131-.043-.261-.174-.348l-3.912-3.129 3.912-3.13c.087-.087.174-.217.174-.348 0-.13-.043-.26-.13-.347L6.8238.087C6.7368.043 6.6498 0 6.5198 0"/>
    <path d="M10.8663 0c-.087 0-.217.043-.304.13l-4.347 3.912c-.087.087-.13.174-.13.304 0 .131.043.261.174.348l3.912 3.13-3.912 3.129c-.087.087-.174.217-.174.348 0 .13.043.261.174.347l3.912 3.13-3.912 3.129c-.174.131-.218.435-.087.609.13.174.434.217.608.087l4.347-3.477c.087-.087.174-.218.174-.348 0-.13-.044-.261-.174-.348l-3.912-3.129 3.912-3.13c.087-.087.174-.217.174-.347 0-.131-.044-.261-.174-.348l-3.912-3.13 3.955-3.564c.174-.173.174-.434.044-.608-.087-.131-.218-.174-.348-.174"/>
    <path d="M6.5198 17.8204c-.13 0-.261.043-.348.174-.13.217-.087.478.087.608l4.347 3.043c.217.13.478.087.608-.087.131-.174.087-.478-.087-.608l-4.346-3.043c-.087-.044-.174-.087-.261-.087"/>
    <path d="M10.8663 17.8204c-.087 0-.174.043-.261.087l-4.346 3.043c-.218.13-.261.391-.087.608.13.217.391.261.608.087l4.347-3.043c.217-.13.261-.391.087-.608-.087-.131-.218-.174-.348-.174"/>
    <path d="M25.6443 16.5165h-14.778c-.261 0-.435.174-.435.435v4.346c0 .261.174.435.435.435h12.605c.174 0 .304-.087.391-.261l2.173-4.346c.087-.131.044-.305 0-.435-.087-.087-.217-.174-.391-.174m-14.343.869h13.648l-1.739 3.477h-11.909v-3.477zm-6.52-1.7383h-2.173c-.261 0-.435.174-.435.435v6.085c0 .261.174.434.435.434h2.173c.261 0 .435-.173.435-.434v-6.085c0-.261-.174-.435-.435-.435m-1.739.869h1.304v5.216h-1.304v-5.216z"/>
    <path d="M21.7325 16.5165c-.13 0-.261.044-.348.174l-3.129 3.912-3.13-3.912c-.174-.217-.521-.217-.695 0l-3.477 4.346c-.131.174-.131.478.087.609.174.13.478.13.608-.087l3.13-3.912 3.129 3.912c.174.217.522.217.696 0l3.477-4.347c.13-.173.13-.478-.087-.608-.044-.043-.174-.087-.261-.087"/>
    <path d="M11.301 16.5165c-.087 0-.174.043-.261.087-.174.13-.217.435-.087.608l3.477 4.347c.174.217.522.217.696 0l3.129-3.912 3.13 3.912c.13.174.434.217.608.087.174-.131.218-.435.087-.609l-3.477-4.346c-.174-.217-.522-.217-.695 0l-3.13 3.912-3.129-3.912c-.087-.131-.218-.174-.348-.174m10.4315 0c-.087 0-.217.044-.261.087-.174.174-.217.435-.043.608l2.434 2.913c.174.173.434.217.608.043s.218-.435.044-.608l-2.434-2.913c-.087-.086-.218-.13-.348-.13"/>
    <path d="M21.7325 11.3008c-.261 0-.435.174-.435.435v5.215c0 .261.174.435.435.435s.435-.174.435-.435v-5.215c0-.261-.174-.435-.435-.435"/>
    <path d="M22.6018 8.6929h-1.739c-.26 0-.434.174-.434.435v.521c0 .913.347 1.782.999 2.391.174.174.435.174.609 0 .652-.652 1-1.478 1-2.391v-.521c0-.261-.174-.435-.435-.435m-1.304.869h.869v.087c0 .522-.13 1-.434 1.435-.305-.435-.435-.913-.435-1.435v-.087z"/>
    <path d="M21.7325 7.3889c-.261 0-.435.174-.435.435v1.304c0 .26.174.434.435.434s.435-.174.435-.434v-1.304c0-.261-.174-.435-.435-.435"/>
    <path d="M21.7325 4.7811c-.956 0-1.739.782-1.739 1.739 0 .26.174.434.435.434s.435-.174.435-.434c0-.479.391-.87.869-.87s.869.391.869.87c0 .478-.391.869-.869.869-.261 0-.435.174-.435.434 0 .261.174.435.435.435.956 0 1.739-.782 1.739-1.738 0-.957-.783-1.739-1.739-1.739"/>
  </g>
</svg>