<svg xmlns="http://www.w3.org/2000/svg" viewBox="0 0 32 32">
  <defs>
    <clipPath id="a">
      <path d="M0 27.78h27.608V0H0v27.78z"/>
    </clipPath>
  </defs>
  <g clip-path="url(#a)" transform="matrix(1.25,0,0,-1.25,51.498938,34.354237) matrix(0.92152628,0,0,0.92152628,-41.19915,1.8833897)" fill="#fff">
    <path d="M1.681 23.362l2.133-2.133H1.067c-.589 0-1.067.477-1.067 1.066 0 .59.478 1.067 1.067 1.067h.614zm1.389 0l2.133-2.133h2.514l-2.134 2.133H3.07zm20.514-6.551l1.942-7.492h.763c.728 0 1.319-.592 1.319-1.319V1.319C27.608.592 27.017 0 26.289 0H14.541c-.728 0-1.319.592-1.319 1.319V8c0 .727.591 1.319 1.319 1.319h3.816l-.573 2.209-1.869.77c-.125.052-.184.195-.133.319.052.125.194.185.319.133l.214-.088.722 1.75-.622 2.399h-.836l-6.227 2.148v2.27h-.248l-2.132 2.133h2.38v2.246l6.227 2.172h10.404c.896 0 1.625-.729 1.625-1.625v-7.719c0-.896-.729-1.625-1.625-1.625h-2.399zm2.399 9.886h-9.772v-8.802h9.772c.299 0 .542.243.542.541v7.719c0 .299-.242.542-.542.542m-15.548-6.966l4.694-1.618v8.363l-4.694-1.637v-5.108zm16.09-14.866h-5.122v1.349h-1.209V4.865h-5.889V1.319c0-.129.106-.235.236-.235h11.748c.13 0 .236.105.236.235v3.546zm-.718 3.371H14.541c-.13 0-.236-.106-.236-.236V5.948h4.806v.266c0 .598.487 1.084 1.083 1.084h1.209c.598 0 1.084-.486 1.084-1.084v-.266h4.038V8c0 .13-.106.236-.236.236h-.482zm-3.342 8.575h-4.932l1.943-7.492h4.932l-1.943 7.492zm-4.104 6.832h6.273c.276 0 .498.222.498.496 0 .275-.222.497-.498.497h-6.273c-.275 0-.497-.222-.497-.497 0-.274.222-.496.497-.496m0-1.844h6.273c.276 0 .498.222.498.496 0 .275-.222.497-.498.497h-6.273c-.275 0-.497-.222-.497-.497 0-.274.222-.496.497-.496m6.273-.85h-6.273c-.275 0-.497-.223-.497-.497s.222-.497.497-.497h6.273c.276 0 .498.223.498.497s-.222.497-.498.497"/>
  </g>
</svg>