<svg
    aria-labelledby="title desc"
    role="img"
    xmlns="http://www.w3.org/2000/svg"
    viewBox="0 0 100 95.6"
>

  <title id="title">LinkedIn icon</title>
  <desc id="desc">The word "in".</desc>

  <path d="M24.1 11.1c0 3.2-1.1 5.8-3.3 7.9-2.2 2.1-5.2 3.2-8.8 3.2h-.1c-3.6 0-6.4-1.1-8.6-3.2C1.1 16.9 0 14.3 0 11.1s1.1-5.9 3.4-8C5.6 1 8.5 0 12.1 0c3.6 0 6.5 1 8.7 3.2 2.1 2.1 3.2 4.7 3.3 7.9zm-1.4 20v64.5H1.2V31.1h21.5zM100 58.6v37H78.6V61.1c0-4.6-.9-8.1-2.6-10.7-1.8-2.6-4.5-3.9-8.2-3.9-2.7 0-5 .7-6.9 2.2-1.8 1.5-3.2 3.4-4.1 5.6-.5 1.3-.7 3.1-.7 5.3v36H34.6c.1-17.3.1-31.4.1-42.1 0-10.8 0-17.2-.1-19.3l-.1-3.1H56v9.4h-.1c.9-1.4 1.8-2.6 2.7-3.6.9-1 2.1-2.2 3.7-3.4 1.5-1.2 3.4-2.2 5.7-2.8 2.2-.7 4.7-1 7.5-1 7.4 0 13.4 2.5 17.9 7.4 4.3 4.8 6.6 12 6.6 21.5z"/>
</svg>
