<svg xmlns="http://www.w3.org/2000/svg" viewBox="0 0 95.9 31.8"><path fill="#111" d="M0 17.5h2.4v14.1H0zM9.6 31.6h2.3v-9.2l9.7 9.4V17.5h-2.3v9l-9.7-9.2zM27.7 28.1c1.3 1 2.8 1.6 4.5 1.6 1.6 0 2.7-.6 2.7-1.8 0-1.1-.7-1.5-2-2l-2-.7c-1.9-.7-3.3-1.7-3.3-4 0-2.5 2.2-3.8 4.7-3.8 1.6 0 3 .4 4.2 1.1V21c-1.2-.9-2.5-1.5-4.1-1.5-1.4 0-2.5.5-2.5 1.7 0 1 .7 1.5 1.8 1.9l2.3.8c2.2.8 3.2 2 3.2 4.1 0 2.6-2.2 4-5 4-1.9 0-3.5-.5-4.5-1.2v-2.7zM42.6 17.5H45v14.1h-2.4zM57.7 17.5h-5.4v14.1h5.4c4.2 0 6.8-2.8 6.8-7.1.1-4.3-2.6-7-6.8-7zm0 12h-2.9v-9.9h2.9c3 0 4.5 1.9 4.5 4.9 0 3.1-1.6 5-4.5 5zM78.5 17.5v2.1h-6.2V23h5.6v2.1h-5.6v4.4h6.2v2.1H70V17.5zM90.9 25.8c2.2-.3 3.3-1.7 3.3-4.1 0-2.8-1.9-4.2-4.8-4.2h-5.1v14.1h2.4v-5.7h1.7l4.9 5.7H96l-5.1-5.8zm-4.3-1.9v-4.3h2.7c1.6 0 2.5.9 2.5 2.2s-.9 2.2-2.5 2.2h-2.7zM13.4 14.2h-1.1V1.1h-.2L7.5 13.7c-.1.4-.2.5-.6.5h-.5c-.4 0-.4-.1-.6-.5L1.2 1H1v13.2H0V.1h1.5c.4 0 .5.1.6.4L6.6 13h.2L11.3.5c.1-.3.2-.4.6-.4h1.5v14.1zM23.8.5c-.1-.4-.2-.5-.7-.5h-.7c-.5 0-.6.1-.8.5L17 14.2h1l1.5-4.6h6.3l1.5 4.6h1.1L23.8.5zm-3.9 8.2L22.5 1h.5l2.6 7.8h-5.7zM41.7 10.6c-.1-2.4-.5-2.8-1.8-3.2 1.2-.3 1.9-1.1 1.9-3.5 0-2-.3-2.7-.9-3.2-.4-.5-1.1-.6-2.1-.6H32v14.1h1V7.8h5.3c.9 0 1.3.1 1.7.4.3.3.5.7.5 2.4 0 1.3.1 2.6.3 3.6h1c0-.9-.1-2.2-.1-3.6zm-3.1-3.7h-5.5V1h5.5c.8 0 1.2.1 1.5.4.3.3.6.8.6 2.6 0 1.7-.4 2.2-.7 2.5-.2.2-.6.4-1.4.4zM56.5.1l-6.2 6.7 6.3 7.4h-1.3l-5.8-6.9h-1.9v6.9h-1V.1h1v6.3h1.8L55.2.1zM69 14.2h-9V.1h9.1V1H61v5.4h7.1v.9H61v6h8zM77.1 1v13.2h-1V1h-4.7V.1h10.5V1zM94.2 13.6c-.4.4-.9.6-2 .6h-4.8c-1 0-1.5-.2-2-.6-.5-.5-.7-1-.7-3.6h1c0 2.2.2 2.5.5 2.8.3.3.6.4 1.3.4h4.6c.7 0 1.1-.1 1.4-.4.3-.3.5-.9.5-2.4s-.1-1.9-.4-2.3c-.3-.2-.6-.3-1.6-.4l-4.4-.4c-1.1-.1-1.7-.3-2.1-.7-.4-.4-.6-1.1-.6-2.9 0-1.7.2-2.5.8-3.1.4-.4.9-.6 1.9-.6H92c1 0 1.5.2 2 .6.5.6.7 1.1.7 3.4h-1c0-1.9-.1-2.4-.5-2.7-.2-.2-.5-.3-1.2-.3h-4.2c-.7 0-1.1.1-1.3.4-.4.4-.5 1-.5 2.4 0 1.5.1 1.8.4 2.2.3.3.6.3 1.5.4l4.4.4c1.1.1 1.7.3 2.1.7.5.5.6 1.2.6 3s-.2 2.5-.8 3.1"/></svg>