<?xml version="1.0" encoding="UTF-8"?>
<svg version="1.1" viewBox="0 0 20 16" xmlns="http://www.w3.org/2000/svg">
<title>Mostly cloudy</title>
<g fill="none" fill-rule="evenodd">
<g transform="translate(-334 -761)" fill-rule="nonzero">
<g transform="translate(334 453)">
<g transform="translate(0 308)">
<path d="m10 12.6c-2.5405 0-4.6-2.0595-4.6-4.6s2.0595-4.6 4.6-4.6 4.6 2.0595 4.6 4.6-2.0595 4.6-4.6 4.6zm0-12.6c0.38001 0 0.68 0.29999 0.68 0.68v1.12c0 0.38001-0.29999 0.68-0.68 0.68-0.38001 0-0.68-0.29999-0.68-0.68v-1.12c0-0.38001 0.29999-0.68 0.68-0.68zm0 13.52c0.38001 0 0.68 0.29999 0.68 0.68v1.12c0 0.38001-0.29999 0.68-0.68 0.68-0.38001 0-0.68-0.29999-0.68-0.68v-1.12c0-0.38001 0.29999-0.68 0.68-0.68zm8-5.52c0 0.38001-0.29999 0.68-0.68 0.68h-1.12c-0.38001 0-0.68-0.29999-0.68-0.68 0-0.38001 0.29999-0.68 0.68-0.68h1.12c0.38001 0 0.68 0.29999 0.68 0.68zm-13.52 0c0 0.38001-0.30002 0.68-0.68 0.68h-1.12c-0.38001 0-0.68-0.29999-0.68-0.68 0-0.38001 0.29999-0.68 0.68-0.68h1.12c0.38001 0 0.68 0.29999 0.68 0.68zm11.18-5.66c0.26001 0.26001 0.26001 0.70002 0 0.96l-0.8 0.8c-0.26001 0.26001-0.69999 0.26001-0.96 0-0.26001-0.26001-0.26001-0.69999 0-0.96l0.8-0.8c0.26001-0.26001 0.69999-0.26001 0.96 0zm-9.56 9.56c0.26001 0.28 0.26001 0.69999 0 0.96l-0.8 0.8c-0.26001 0.26001-0.69999 0.26001-0.96 0-0.26001-0.26001-0.26001-0.69999 0-0.96l0.8-0.8c0.26001-0.26001 0.69999-0.26001 0.96 0zm9.56 1.76c-0.26001 0.26001-0.69999 0.26001-0.96 0l-0.8-0.8c-0.26001-0.26001-0.26001-0.69999 0-0.96s0.69999-0.26001 0.96 0l0.8 0.8c0.26001 0.26001 0.26001 0.69999 0 0.96zm-9.56-9.56c-0.28 0.26001-0.69999 0.26001-0.96 0l-0.8-0.8c-0.26001-0.26001-0.26001-0.69999 0-0.96 0.26001-0.26001 0.69999-0.26001 0.96 0l0.8 0.8c0.26001 0.26001 0.26001 0.69999 0 0.96z" fill="#FFBD00"/>
<path d="m16.621 16h-12.32c-1.2524 0-2.301-0.98039-2.301-2.2129 0-1.2045 1.0194-2.2129 2.301-2.2129h0.23301c0.17476 0.028011 0.34951-0.028011 0.49515-0.14006 0.14563-0.11204 0.23301-0.28011 0.23301-0.44818 0.058252-1.2325 1.1068-2.2129 2.3883-2.2129h0.23301c0.29126 0.028011 0.5534-0.11204 0.6699-0.36415 0.69903-1.4566 2.2427-2.409 3.932-2.409 1.9515 0 3.6699 1.2605 4.1942 3.0812 0.058252 0.2521 0.26214 0.42017 0.52427 0.44818 1.6311 0.28011 2.7961 1.6246 2.7961 3.1933-0.029126 1.8207-1.5437 3.2773-3.3786 3.2773z" fill="#ddd"/>
<path transform="translate(7 11) scale(-1 1) translate(-7 -11)" d="m11.372 15h-9.5825c-0.97411 0-1.7896-0.78431-1.7896-1.7703 0-0.96359 0.79288-1.7703 1.7896-1.7703h0.18123c0.13592 0.022409 0.27184-0.022409 0.38511-0.11204 0.11327-0.089636 0.18123-0.22409 0.18123-0.35854 0.045307-0.98599 0.86084-1.7703 1.8576-1.7703h0.18123c0.22654 0.022409 0.43042-0.089636 0.52104-0.29132 0.54369-1.1653 1.7443-1.9272 3.0583-1.9272 1.5178 0 2.8544 1.0084 3.2621 2.465 0.045308 0.20168 0.20388 0.33613 0.40777 0.35854 1.2686 0.22409 2.1748 1.2997 2.1748 2.5546-0.022654 1.4566-1.2006 2.6218-2.6278 2.6218z" fill="#C2C2C2"/>
</g>
</g>
</g>
</g>
</svg>
