<svg xmlns="http://www.w3.org/2000/svg" xmlns:xlink="http://www.w3.org/1999/xlink" width="238" height="48"><defs><path id="a" d="M99.689 6c3.173 0 6.522 1.923 6.726 5.683l-4.135.175c-.262-1.487-1.165-2.332-2.679-2.332-2.446 0-3.174 2.215-3.174 4.313 0 2.07.583 4.488 3.087 4.488 1.572 0 2.708-1.02 2.882-2.594l4.164.204c-.786 4.168-3.436 6.033-7.134 6.033-4.804 0-7.454-3.293-7.454-7.927C91.972 9.323 94.826 6 99.69 6zm15.402 0c4.63 0 7.542 3.41 7.542 7.927 0 4.662-3.261 8.043-7.95 8.043-4.716 0-7.657-3.264-7.657-7.898C107.026 9.177 110.2 6 115.09 6zm43.887 0c4.106 0 6.843 1.195 6.843 5.683v6.527c0 1.545.117 2.536.495 3.206l.087.117h-4.513l-.204-1.37c-1.426.933-2.3 1.807-4.717 1.807-2.766 0-5.27-1.661-5.27-4.867 0-3.293 2.562-4.43 5.387-4.837l2.038-.292c1.281-.175 2.33-.291 2.33-1.253 0-1.253-1.602-1.399-2.3-1.399-1.573 0-2.65.583-2.65 1.894h-3.96C152.806 6.204 157.58 6 158.978 6zm11.614.448v8.655c0 1.662.318 3.264 2.339 3.264 2.136 0 2.57-1.777 2.57-4.05V6.448h4.128v15.096h-4.042v-1.661c-.837 1.37-2.714 2.04-4.244 2.04-4.677 0-4.995-3.818-4.995-6.674v-8.8h4.244zM91.865 17.207v4.342h-4.339v-4.342h4.339zm39.706-11.12c1.806 0 3.32.846 4.019 2.594.931-1.632 2.65-2.564 4.513-2.564 1.135 0 2.475.35 3.378 1.078 1.534 1.257 1.625 2.781 1.63 4.573v9.765h-4.28v-7.927c0-1.632-.146-3.614-2.184-3.614-2.174 0-2.322 1.81-2.33 3.46v8.08h-4.309v-8.538c0-1.282-.32-3.002-2.213-3.002-2.115 0-2.373 1.942-2.387 3.362v8.179h-4.251V6.437h4.25v2.011c.903-1.69 2.272-2.36 4.164-2.36zm18.994 11.104v4.342h-4.339V17.19h4.339zm11.005-2.885c-.408.145-.67.262-1.048.35-1.194.32-4.484.349-4.484 2.301 0 1.253 1.135 1.632 2.009 1.632.32 0 2.417-.029 3.523-1.952v-2.331zm-46.683-4.867c-2.591 0-3.465 2.215-3.465 4.458 0 2.186.816 4.576 3.407 4.576 2.65 0 3.407-2.477 3.407-4.721 0-2.157-.815-4.313-3.349-4.313z"/></defs><g fill="none" fill-rule="evenodd"><g transform="translate(58.151 13.2)"><path fill="#000" d="M29.931 0c6.954 0 10.25 5.31 10.25 11.747v1.006H25.59c.362 2.575 1.769 4.466 4.502 4.466 1.849 0 3.015-.644 3.899-2.213l5.949.402c-1.487 4.466-5.426 6.638-10.009 6.638-6.592 0-10.531-4.626-10.531-11.023C19.4 4.787 23.54 0 29.93 0zM76.84 0c4.582 0 8.883 1.971 9.125 7.08l-5.548.282c-.12-2.213-1.929-3.017-3.657-3.017-1.126 0-2.894.201-2.894 1.77 0 3.178 12.702.684 12.702 8.931 0 5.391-4.864 7-9.406 7-4.422 0-9.648-1.971-9.648-7.483v-.241l5.628-.201c.362 2.695 1.769 3.46 4.422 3.46 1.286 0 2.974-.282 2.974-1.931 0-3.742-12.38-.724-12.38-9.052C68.158 1.69 72.619 0 76.84 0zM11.536.12c1.568 0 3.136.403 4.382 1.368 2.371 1.81 2.773 4.345 2.773 7.161v12.794h-6.07V9.173c0-2.012-.763-3.983-3.094-3.983-2.814 0-3.578 2.494-3.578 4.707v11.546H0V.603h5.788v2.414C7.235 1.167 9.125.121 11.536.121zm33.027.483l3.175 13.035L50.994.603h5.226l3.215 13.035L62.611.603h6.03l-6.03 20.84h-5.507L53.607 7.362l-3.457 14.08h-5.587L38.493.604h6.07zm-14.47 4.064c-2.533 0-3.82 1.207-4.463 3.58h8.32c-.2-2.092-1.728-3.58-3.858-3.58z"/><use fill="#A1A6A9" xlink:href="#a"/></g><path fill="#000" fill-rule="nonzero" d="M238 40.127v1.41h-1.531v3.803c0 .357.059.595.176.713.118.12.353.179.707.179.118 0 .23-.005.338-.015.108-.01.212-.024.31-.045v1.634c-.177.03-.373.05-.589.06-.216.01-.427.014-.633.014-.324 0-.631-.022-.92-.067a2.16 2.16 0 0 1-.766-.26 1.368 1.368 0 0 1-.523-.55c-.127-.237-.191-.55-.191-.935v-4.531h-1.267v-1.41h1.267v-2.303h2.09v2.303H238zm-5.39 7.68h-2.09v-7.68h2.09v7.68zM230.52 37.2h2.09v1.738h-2.09V37.2zm-10.013 2.927v1.069h.044c.265-.445.609-.77 1.031-.973a2.958 2.958 0 0 1 1.296-.304c.56 0 1.018.076 1.377.23.358.154.64.367.847.639.206.272.35.604.434.995.083.391.125.824.125 1.3v4.723h-2.09v-4.338c0-.633-.1-1.106-.295-1.418-.197-.312-.545-.468-1.046-.468-.57 0-.982.17-1.237.512-.255.342-.383.904-.383 1.687v4.025h-2.09v-7.68h1.987zm-10.205 2.175c.187-.5.452-.926.795-1.277a3.562 3.562 0 0 1 1.237-.817 4.31 4.31 0 0 1 1.62-.29c.598 0 1.14.097 1.627.29.486.193.9.466 1.244.817.344.351.608.778.795 1.277.187.5.28 1.058.28 1.671 0 .615-.093 1.169-.28 1.664a3.587 3.587 0 0 1-.795 1.27 3.457 3.457 0 0 1-1.244.81 4.48 4.48 0 0 1-1.627.282c-.6 0-1.14-.094-1.62-.282a3.468 3.468 0 0 1-2.032-2.08 4.68 4.68 0 0 1-.28-1.664c0-.613.093-1.17.28-1.67m1.9 2.57c.058.292.159.554.301.787.142.233.331.418.567.556.236.14.53.208.884.208s.65-.069.89-.208a1.59 1.59 0 0 0 .575-.556c.142-.233.243-.496.302-.787a4.709 4.709 0 0 0 0-1.805c-.06-.297-.16-.56-.302-.787a1.674 1.674 0 0 0-.574-.557c-.24-.143-.537-.216-.89-.216-.354 0-.649.072-.885.216-.235.144-.425.33-.567.557-.142.227-.243.49-.302.787a4.638 4.638 0 0 0 0 1.805m-11.367 1.091c.314.307.765.461 1.354.461.422 0 .786-.106 1.09-.32.304-.212.491-.438.56-.675h1.84c-.294.92-.746 1.58-1.355 1.975-.61.397-1.345.595-2.209.595a4.317 4.317 0 0 1-1.62-.29 3.38 3.38 0 0 1-1.222-.824 3.718 3.718 0 0 1-.773-1.278 4.702 4.702 0 0 1-.273-1.633c0-.574.094-1.11.28-1.605a3.78 3.78 0 0 1 .796-1.285 3.736 3.736 0 0 1 1.23-.854 3.905 3.905 0 0 1 1.582-.312c.648 0 1.212.126 1.693.378.481.253.876.592 1.186 1.018.309.426.532.911.67 1.456.137.544.186 1.114.147 1.708h-5.493c.03.683.203 1.179.517 1.485m2.363-4.04c-.25-.278-.63-.416-1.14-.416-.334 0-.612.057-.832.17a1.587 1.587 0 0 0-.53.424 1.53 1.53 0 0 0-.28.535 2.393 2.393 0 0 0-.096.505h3.401c-.098-.535-.273-.94-.523-1.218M192.131 37.2v3.862h.03c.254-.396.6-.685 1.037-.869a3.492 3.492 0 0 1 1.362-.274 2.887 2.887 0 0 1 2.143.965c.3.327.542.745.729 1.255.186.51.28 1.116.28 1.819 0 .703-.094 1.31-.28 1.82-.187.51-.43.928-.73 1.254a2.89 2.89 0 0 1-2.142.965 3.99 3.99 0 0 1-1.502-.267 1.91 1.91 0 0 1-1.001-.906h-.03v.98h-1.987V37.2h2.091zm3.387 5.838a2.438 2.438 0 0 0-.324-.787 1.69 1.69 0 0 0-.552-.542c-.22-.134-.488-.2-.802-.2-.305 0-.57.066-.795.2a1.666 1.666 0 0 0-.56.542 2.46 2.46 0 0 0-.324.787 4.18 4.18 0 0 0-.103.935c0 .318.035.624.103.921.069.297.176.56.324.787.147.228.334.409.56.542.226.134.49.2.795.2.314 0 .581-.066.802-.2a1.7 1.7 0 0 0 .552-.542 2.46 2.46 0 0 0 .324-.787c.069-.297.103-.604.103-.92 0-.327-.034-.64-.103-.936"/><g><rect width="8.393" height="8.4" x="19.783" fill="#C90000" rx="1.199"/><rect width="8.393" height="8.4" x="19.783" y="39.6" fill="#00838D" rx="1.199"/><rect width="8.393" height="8.4" y="19.8" fill="#7C28B6" rx="1.199"/><rect width="8.393" height="8.4" x="39.567" y="19.8" fill="#81888C" rx="1.199"/></g><g transform="rotate(45 23.98 24)"><rect width="8.393" height="8.4" x="19.783" fill="#F46A00" rx="1.199"/><rect width="8.393" height="8.4" x="19.783" y="39.6" fill="#1691DB" rx="1.199"/><rect width="8.393" height="8.4" y="19.8" fill="#D51387" rx="1.199"/><rect width="8.393" height="8.4" x="39.567" y="19.8" fill="#4AA90F" rx="1.199"/></g></g></svg>