<?xml version="1.0" standalone="no"?>
<!DOCTYPE svg PUBLIC "-//W3C//DTD SVG 20010904//EN"
 "http://www.w3.org/TR/2001/REC-SVG-20010904/DTD/svg10.dtd">
<svg version="1.0" xmlns="http://www.w3.org/2000/svg"
 width="700.000000pt" height="700.000000pt" viewBox="0 0 700.000000 700.000000"
 preserveAspectRatio="xMidYMid meet">
<metadata>
Created by potrace 1.11, written by Peter Selinger 2001-2013
</metadata>
<g transform="translate(0.000000,700.000000) scale(0.100000,-0.100000)"
fill="#000000" stroke="none">
<path d="M930 3500 l0 -2371 1038 4 c1114 4 1101 3 1331 57 431 102 743 327
911 659 47 95 96 251 116 376 21 133 23 350 5 455 -64 367 -293 677 -619 840
-43 21 -91 42 -106 46 -26 6 -21 10 65 55 275 146 459 423 510 769 15 105 6
398 -16 495 -120 536 -504 850 -1170 958 -124 20 -171 21 -1097 24 l-968 4 0
-2371z m1750 1670 c277 -16 448 -73 574 -190 114 -107 166 -246 166 -445 0
-197 -49 -334 -160 -445 -106 -106 -244 -167 -445 -195 -76 -11 -221 -15 -602
-15 l-503 0 0 650 0 650 403 0 c221 0 476 -5 567 -10z m131 -1960 c211 -15
337 -51 466 -132 120 -76 219 -212 259 -358 28 -102 26 -312 -4 -410 -36 -114
-79 -187 -158 -267 -83 -83 -203 -148 -344 -185 -83 -22 -101 -22 -702 -25
l-618 -4 0 696 0 695 488 0 c268 0 544 -5 613 -10z"/>
<path d="M5270 3500 l0 -2370 400 0 400 0 0 2370 0 2370 -400 0 -400 0 0
-2370z"/>
</g>
</svg>
