<svg width="20" height="20" viewBox="0 0 20 20" fill="none" xmlns="http://www.w3.org/2000/svg">
<path d="M10.5967 12.1562H9.02246C9.02246 11.7754 9.04574 11.4453 9.09229 11.166C9.14307 10.8825 9.2277 10.6286 9.34619 10.4043C9.46468 10.18 9.62549 9.95996 9.82861 9.74414C9.97673 9.57064 10.11 9.4056 10.2285 9.24902C10.3512 9.08822 10.4486 8.92529 10.5205 8.76025C10.5924 8.59098 10.6284 8.40267 10.6284 8.19531C10.6284 7.95833 10.6009 7.76156 10.5459 7.60498C10.4951 7.4484 10.4189 7.32992 10.3174 7.24951C10.2158 7.16911 10.0868 7.12891 9.93018 7.12891C9.82015 7.12891 9.71012 7.16699 9.6001 7.24316C9.49007 7.31934 9.39697 7.43571 9.3208 7.59229C9.24463 7.74886 9.20654 7.9541 9.20654 8.20801H7.4165C7.42497 7.61979 7.53923 7.13525 7.75928 6.75439C7.97933 6.37354 8.27767 6.09212 8.6543 5.91016C9.03516 5.72396 9.46045 5.63086 9.93018 5.63086C10.4507 5.63086 10.895 5.72819 11.2632 5.92285C11.6356 6.11328 11.9212 6.39469 12.1201 6.76709C12.319 7.13525 12.4185 7.58594 12.4185 8.11914C12.4185 8.4873 12.355 8.81315 12.228 9.09668C12.1011 9.38021 11.936 9.64469 11.7329 9.89014C11.5298 10.1313 11.314 10.3831 11.0854 10.6455C10.895 10.8613 10.7681 11.0856 10.7046 11.3184C10.6411 11.5511 10.6051 11.8304 10.5967 12.1562ZM8.86377 14.105C8.86377 13.8257 8.95264 13.5929 9.13037 13.4067C9.30811 13.2205 9.54508 13.1274 9.84131 13.1274C10.1375 13.1274 10.3724 13.2205 10.5459 13.4067C10.7194 13.5929 10.8062 13.8257 10.8062 14.105C10.8062 14.3758 10.7194 14.6064 10.5459 14.7969C10.3724 14.9831 10.1375 15.0762 9.84131 15.0762C9.54508 15.0762 9.30811 14.9831 9.13037 14.7969C8.95264 14.6064 8.86377 14.3758 8.86377 14.105Z" fill="black"/>
<circle cx="10" cy="10" r="9" stroke="black" stroke-width="2"/>
</svg>
