<svg width="96" height="56" viewBox="0 0 96 56" fill="none" xmlns="http://www.w3.org/2000/svg">
<path fill-rule="evenodd" clip-rule="evenodd" d="M38.6044 29.8817C39.9243 29.6111 40.7278 28.2285 40.9286 26.8758C40.986 26.5452 40.5556 26.3648 40.2687 26.5151C39.9817 26.6654 39.8669 26.7556 39.5226 27.0562C38.8626 27.6273 38.4322 28.3787 38.26 29.2805C38.2027 29.5811 38.4322 29.9117 38.6044 29.8817ZM47.8728 30.1221C48.2171 30.2123 48.5041 29.9117 48.5614 29.6412C48.7336 29.04 48.6475 28.4088 48.418 27.8678C48.3319 27.9579 47.5858 28.8597 47.3563 29.2204C47.2128 29.4007 47.471 30.0019 47.8728 30.1221ZM56.309 29.6412C56.3951 29.9418 56.7968 29.9117 56.9977 29.7915C58.0881 29.2805 58.8342 27.988 58.8915 26.7556C58.8915 26.5151 58.5759 26.3648 58.3176 26.4851C57.6864 26.7255 57.2559 27.2065 56.8542 27.8076C56.4812 28.3787 56.1655 29.01 56.309 29.6412ZM66.18 26.6955C66.18 26.7255 67.2704 25.8538 67.9304 24.9821C68.5904 24.1104 68.8773 23.1786 68.8773 23.1786C68.8773 23.1786 68.1312 23.7497 67.4713 24.6214C66.6678 25.6735 66.18 26.6955 66.18 26.6955ZM44.6877 25.1625L44.7164 25.1324C45.0033 24.7116 45.1181 24.1405 44.7164 23.9301C44.659 23.9 44.5729 24.0804 44.5729 24.1706C44.4868 24.5313 44.4868 24.8619 44.6877 25.1625ZM44.1138 26.1244C43.7407 25.403 43.5686 24.5914 43.8842 23.8399C44.1712 23.0885 45.2616 22.8179 45.6633 23.6596C46.0937 24.5914 45.4624 25.403 45.2902 25.7637C45.2329 25.8839 45.8068 25.7035 46.0076 25.7035C46.438 25.6735 46.6963 26.1244 46.4954 26.4851C45.8354 27.6273 44.7164 28.4088 44.5729 29.7915C44.5442 30.1221 45.3476 29.9418 46.3233 29.1001C46.352 29.0701 48.0736 26.8758 49.3936 25.1625C49.6805 24.7717 50.7135 25.1625 50.3692 25.6735C50.0823 26.1244 49.7953 26.455 49.6231 26.7255C49.3649 27.1163 50.0249 27.3868 49.9675 28.8597C50.4553 28.4689 51.2587 27.9279 51.2874 27.8678C52.1196 26.0642 52.9804 23.9601 53.8126 22.0965C54.0134 21.6456 55.1325 21.8561 54.8743 22.4572C54.3578 23.6896 53.8126 25.0122 53.3248 26.2145C53.2961 26.2747 54.2143 25.6735 54.2717 25.6134C54.903 25.403 55.1612 25.9741 55.2473 26.3949C55.4769 27.3568 54.4726 28.6793 54.0134 29.6111C53.8987 29.8516 54.1569 29.7314 54.2717 29.6412C54.616 29.4308 55.1612 28.8897 55.1612 28.8296C55.9647 26.5452 58.6046 24.7717 59.6376 26.0943C59.7237 25.9741 59.8098 25.7937 59.8385 25.7937C60.068 25.5532 60.9863 25.6434 60.8428 26.0943C60.8428 26.1244 59.8959 28.0782 59.3794 29.1001C59.2646 29.3406 59.3794 29.9418 59.695 29.7013C60.1828 29.3406 60.9002 28.5591 60.9289 28.4689C61.5028 26.7856 63.3679 23.389 65.8644 22.0063C66.2948 21.7659 67.0695 22.0665 66.8113 22.7578C65.9504 25.1625 64.9174 26.2145 63.3679 27.4169C63.3392 27.4469 63.3105 27.4469 63.3105 27.477C62.9949 27.7175 62.048 28.2886 61.9906 28.499C61.9906 28.529 61.7897 29.1903 61.9045 29.521C62.048 30.032 62.5358 29.9718 62.8801 29.7013C64.1714 28.7094 64.6592 27.2065 65.4913 25.8238C66.1513 24.7116 66.8974 23.7497 67.9591 22.848C68.4469 22.4272 68.9347 21.8861 69.5947 21.9763C69.8816 22.0063 70.0251 22.337 69.9964 22.5173C69.5086 24.6214 68.3034 26.0342 67.0408 27.0862C66.4669 27.5672 65.8931 28.018 65.3765 28.3787C65.2331 28.4689 64.9174 30.3626 66.2374 29.7013C66.8687 29.4007 67.5287 28.4088 67.9017 27.9279C68.1025 27.6874 68.4182 28.018 68.2747 28.3487C67.873 29.1903 67.3565 29.8817 66.6391 30.4528C66.1226 30.9037 65.4626 31.1141 64.8313 30.8435C64.3435 30.6331 64.1714 30.1221 64.0566 29.7013C63.5975 30.2724 62.9375 30.7534 62.2488 30.9337C61.1871 31.2343 60.7567 30.4528 60.728 29.7915C60.068 30.3626 58.7768 31.7754 58.1168 30.2724C57.3707 30.6932 56.0795 31.6251 55.1899 30.0921C54.5873 30.5129 53.87 31.2644 53.1813 30.8135C52.7222 30.5129 52.5213 29.9718 52.7509 29.4909C53.1239 28.6192 53.87 27.2065 53.9274 27.1163C54.0134 26.9359 53.7839 26.8458 53.6404 26.966C53.0378 27.477 52.55 27.8978 52.5213 27.9579C52.2057 28.6793 51.6318 29.9718 51.3448 30.6331C51.1727 31.0539 50.4266 31.0239 50.2257 30.7233C49.9388 30.3025 50.3405 29.8817 50.5127 29.4909C49.6805 30.0921 49.0779 30.7233 48.1884 30.9037C47.471 31.0539 46.725 30.7233 46.438 30.032C45.6059 30.4828 44.659 31.3545 43.7694 30.6632C42.9947 30.062 43.3964 28.5591 45.1755 26.7556C45.2042 26.7255 45.2042 26.6955 45.1755 26.6654L44.8885 26.5452C44.2285 27.477 42.8225 29.7314 41.9617 30.3626C41.0147 31.0239 40.3834 31.2042 39.953 30.3626C39.0061 31.084 37.7148 31.2042 37.1983 30.062C36.4236 30.7233 35.9071 31.1742 34.7593 30.9337C34.2141 30.8135 33.9271 30.2724 33.8698 29.7314C33.7837 28.8597 33.9271 27.988 34.0419 27.1163C33.3246 28.3787 32.6646 29.7915 31.6603 30.8736C31.4881 31.0539 30.8855 30.9337 30.9429 30.573C31.1724 29.1603 31.9185 27.1764 31.8324 25.8538C30.8281 28.1984 29.3073 31.8355 26.2943 30.7834C24.1709 30.032 24.6874 26.0342 27.643 27.2666C27.9873 27.4169 27.7865 28.0782 27.4708 27.9579C26.0361 27.3568 25.7205 29.8516 27.1839 29.9418C28.1021 30.0019 28.7334 29.4007 29.049 28.8897C31.0003 25.7937 31.5742 22.7879 33.8698 19.2109C34.1854 18.6999 34.9888 19.2109 34.7306 19.752C34.3576 20.5034 34.0419 21.3451 33.7263 22.3971C33.3819 23.5994 33.1811 24.7116 33.2098 25.9139C34.7306 23.4792 36.2514 21.1046 38.4322 19.1207C38.5183 19.0306 38.7192 19.0606 38.8626 19.1207C39.0922 19.2109 39.1209 19.4814 39.0061 19.6618C36.7105 23.4191 34.5297 27.2666 35.0462 29.551C35.161 30.032 35.4767 29.9418 35.8497 29.8817C36.2227 29.8216 37.0549 29.04 37.1409 28.8597C37.6861 27.3568 38.7765 26.1544 40.2687 25.7637C40.7565 25.6134 41.273 25.7637 41.646 26.1244C41.8469 25.6735 42.4495 25.6134 42.7364 25.944C42.7938 26.0041 42.7938 26.2145 42.7364 26.3047C42.1912 27.3868 41.7321 28.3186 41.1869 29.3106C41.1582 29.4007 41.2443 29.551 41.3591 29.521C42.1338 29.2504 43.1955 27.507 44.1138 26.1244ZM62.8227 26.7556C62.8514 26.7856 63.827 26.0642 64.487 25.2527C65.0035 24.6214 65.6922 23.2387 65.6635 23.1786C65.6061 23.1486 64.8313 23.9 64.1427 24.7116C63.6262 25.3729 62.8227 26.7556 62.8227 26.7556Z" fill="white"/>
<rect x="1" y="3" width="94" height="48" stroke="white" stroke-width="2"/>
<rect x="35" width="6" height="3" fill="white"/>
<rect x="45" width="6" height="3" fill="white"/>
<rect x="55" width="6" height="3" fill="white"/>
<rect x="81" y="51" width="8" height="5" rx="1" fill="white"/>
<rect x="7" y="51" width="8" height="5" rx="1" fill="white"/>
</svg>
