<svg width="62" height="62" viewBox="0 0 62 62" fill="none" xmlns="http://www.w3.org/2000/svg">
<path d="M53.8622 13.7574L53.8567 13.752L53.8512 13.7466C53.488 13.3945 52.9936 13.2052 52.4896 13.2265C47.1695 13.4267 43.0384 15.3714 40.264 18.9528C37.5158 22.5002 36.1997 27.5237 36.1997 33.7034V46.5074C36.1997 47.7458 37.2014 48.7629 38.4502 48.7629H38.4679H38.4858H38.5038H38.5219H38.5401H38.5584H38.5768H38.5953H38.6139H38.6326H38.6514H38.6703H38.6894H38.7085H38.7277H38.747H38.7664H38.7859H38.8056H38.8253H38.8451H38.865H38.885H38.9051H38.9253H38.9456H38.966H38.9865H39.0071H39.0278H39.0485H39.0694H39.0903H39.1114H39.1325H39.1538H39.1751H39.1965H39.218H39.2396H39.2613H39.2831H39.3049H39.3269H39.3489H39.3711H39.3933H39.4156H39.438H39.4605H39.483H39.5057H39.5284H39.5512H39.5741H39.5971H39.6202H39.6433H39.6665H39.6898H39.7132H39.7367H39.7603H39.7839H39.8076H39.8314H39.8553H39.8792H39.9033H39.9274H39.9516H39.9758H40.0002H40.0246H40.0491H40.0736H40.0983H40.123H40.1478H40.1726H40.1976H40.2226H40.2476H40.2728H40.298H40.3233H40.3487H40.3741H40.3996H40.4252H40.4508H40.4765H40.5023H40.5282H40.5541H40.5801H40.6061H40.6322H40.6584H40.6846H40.7109H40.7373H40.7638H40.7903H40.8168H40.8434H40.8701H40.8969H40.9237H40.9506H40.9775H41.0045H41.0315H41.0587H41.0858H41.1131H41.1404H41.1677H41.1951H41.2226H41.2501H41.2777H41.3053H41.333H41.3607H41.3885H41.4163H41.4442H41.4722H41.5002H41.5283H41.5564H41.5845H41.6127H41.641H41.6693H41.6977H41.7261H41.7546H41.7831H41.8116H41.8402H41.8689H41.8976H41.9263H41.9551H41.984H42.0129H42.0418H42.0708H42.0998H42.1288H42.1579H42.1871H42.2163H42.2455H42.2748H42.3041H42.3334H42.3628H42.3923H42.4218H42.4513H42.4808H42.5104H42.54H42.5697H42.5994H42.6291H42.6589H42.6887H42.7186H42.7484H42.7784H42.8083H42.8383H42.8683H42.8984H42.9284H42.9585H42.9887H43.0189H43.0491H43.0793H43.1096H43.1399H43.1702H43.2005H43.2309H43.2613H43.2918H43.3222H43.3527H43.3832H43.4138H43.4444H43.4749H43.5056H43.5362H43.5669H43.5976H43.6283H43.659H43.6898H43.7205H43.7513H43.7821H43.813H43.8438H43.8747H43.9056H43.9365H43.9675H43.9984H44.0294H44.0604H44.0914H44.1224H44.1534H44.1845H44.2155H44.2466H44.2777H44.3088H44.3399H44.3711H44.4022H44.4334H44.4645H44.4957H44.5269H44.5581H44.5893H44.6205H44.6518H44.683H44.7142H44.7455H44.7768H44.808H44.8393H44.8706H44.9019H44.9332H44.9645H44.9958H45.0271H45.0584H45.0897H45.121H45.1523H45.1837H45.215H45.2463H45.2776H45.3089H45.3403H45.3716H45.4029H45.4342H45.4656H45.4969H45.5282H45.5595H45.5908H45.6221H45.6534H45.6847H45.716H45.7473H45.7786H45.8098H45.8411H45.8724H45.9036H45.9349H45.9661H45.9973H46.0285H46.0597H46.0909H46.1221H46.1533H46.1845H46.2156H46.2468H46.2779H46.309H46.3401H46.3712H46.4023H46.4333H46.4644H46.4954H46.5264H46.5574H46.5884H46.6194H46.6503H46.6812H46.7122H46.743H46.7739H46.8048H46.8356H46.8664H46.8972H46.928H46.9587H46.9895H47.0202H47.0508H47.0815H47.1121H47.1427H47.1733H47.2039H47.2344H47.2649H47.2954H47.3259H47.3563H47.3867H47.4171H47.4474H47.4777H47.508H47.5383H47.5685H47.5987H47.6289H47.659H47.6891H47.7192H47.7492H47.7792H47.8092H47.8391H47.869H47.8989H47.9287H47.9585H47.9883H48.018H48.0477H48.0774H48.107H48.1366H48.1661H48.1956H48.2251H48.2545H48.2839H48.3132H48.3425H48.3718H48.401H48.4302H48.4593H48.4884H48.5175H48.5465H48.5754H48.6044H48.6332H48.662H48.6908H48.7196H48.7483H48.7769H48.8055H48.834H48.8625H48.891H48.9194H48.9477H48.976H49.0043H49.0325H49.0606H49.0887H49.1168H49.1448H49.1727H49.2006H49.2284H49.2562H49.2839H49.3116H49.3392H49.3667H49.3942H49.4217H49.4491H49.4764H49.5037H49.5309H49.5581H49.5851H49.6122H49.6392H49.6661H49.6929H49.7197H49.7465H49.7731H49.7997H49.8263H49.8528H49.8792H49.9055H49.9318H49.9581H49.9842H50.0103H50.0363H50.0623H50.0882H50.114H50.1398H50.1655H50.1911H50.2167H50.2421H50.2676H50.2929H50.3182H50.3434H50.3685H50.3936H50.4185H50.4435H50.4683H50.4931H50.5178H50.5424H50.5669H50.5914H50.6158H50.6401H50.6643H50.6885H50.7126H50.7366H50.7605H50.7844H50.8081H50.8318H50.8555H50.879H50.9024H50.9258H50.9491H50.9723H50.9954H51.0185H51.0414H51.0643H51.0871H51.1098H51.1324H51.155H51.1774H51.1998H51.2221H51.2443H51.2664H51.2884H51.3103H51.3321H51.3539H51.3756H51.3971H51.4186H51.44H51.4613H51.4825H51.5036H51.5246H51.5456H51.5664H51.5872H51.6078H51.6284H51.6488H51.6692H51.6895H51.7096H51.7297H51.7497H51.7696H51.7894H51.8091H51.8286H51.8481H51.8675H51.8868H51.906H51.9251H51.9441H51.963H51.9818H52.0004H52.019H52.0375H52.0559H52.0741H52.0923H52.1104H52.1283H52.1462H52.1639C53.4128 48.7629 54.4143 47.7457 54.4143 46.5074V46.4918V46.4761V46.4602V46.4444V46.4284V46.4123V46.3962V46.38V46.3637V46.3474V46.3309V46.3144V46.2978V46.2811V46.2644V46.2475V46.2306V46.2136V46.1966V46.1794V46.1622V46.1449V46.1276V46.1102V46.0927V46.0751V46.0574V46.0397V46.0219V46.004V45.9861V45.9681V45.95V45.9318V45.9136V45.8953V45.8769V45.8585V45.84V45.8214V45.8028V45.7841V45.7653V45.7464V45.7275V45.7085V45.6895V45.6704V45.6512V45.6319V45.6126V45.5933V45.5738V45.5543V45.5347V45.5151V45.4954V45.4756V45.4558V45.4359V45.416V45.3959V45.3759V45.3557V45.3355V45.3153V45.295V45.2746V45.2541V45.2336V45.2131V45.1925V45.1718V45.1511V45.1303V45.1094V45.0885V45.0675V45.0465V45.0255V45.0043V44.9831V44.9619V44.9406V44.9192V44.8978V44.8764V44.8549V44.8333V44.8117V44.79V44.7683V44.7465V44.7247V44.7028V44.6808V44.6588V44.6368V44.6147V44.5926V44.5704V44.5482V44.5259V44.5036V44.4812V44.4587V44.4363V44.4137V44.3912V44.3686V44.3459V44.3232V44.3004V44.2776V44.2548V44.2319V44.2089V44.186V44.1629V44.1399V44.1168V44.0936V44.0704V44.0472V44.0239V44.0006V43.9772V43.9538V43.9303V43.9069V43.8833V43.8598V43.8362V43.8125V43.7888V43.7651V43.7413V43.7175V43.6937V43.6698V43.6459V43.622V43.598V43.574V43.5499V43.5258V43.5017V43.4775V43.4533V43.4291V43.4049V43.3806V43.3562V43.3319V43.3075V43.283V43.2586V43.2341V43.2096V43.185V43.1604V43.1358V43.1112V43.0865V43.0618V43.0371V43.0123V42.9875V42.9627V42.9379V42.913V42.8881V42.8632V42.8382V42.8132V42.7882V42.7632V42.7382V42.7131V42.688V42.6629V42.6377V42.6125V42.5873V42.5621V42.5369V42.5116V42.4863V42.461V42.4357V42.4103V42.3849V42.3595V42.3341V42.3087V42.2832V42.2578V42.2323V42.2068V42.1812V42.1557V42.1301V42.1046V42.079V42.0534V42.0277V42.0021V41.9764V41.9507V41.925V41.8993V41.8736V41.8479V41.8221V41.7964V41.7706V41.7448V41.719V41.6932V41.6674V41.6415V41.6157V41.5898V41.564V41.5381V41.5122V41.4863V41.4604V41.4345V41.4086V41.3826V41.3567V41.3307V41.3048V41.2788V41.2528V41.2269V41.2009V41.1749V41.1489V41.1229V41.0969V41.0709V41.0449V41.0189V40.9928V40.9668V40.9408V40.9148V40.8887V40.8627V40.8367V40.8106V40.7846V40.7586V40.7325V40.7065V40.6804V40.6544V40.6284V40.6023V40.5763V40.5503V40.5242V40.4982V40.4722V40.4462V40.4201V40.3941V40.3681V40.3421V40.3161V40.2901V40.2641V40.2381V40.2122V40.1862V40.1602V40.1343V40.1083V40.0824V40.0564V40.0305V40.0046V39.9787V39.9528V39.9269V39.901V39.8751V39.8493V39.8234V39.7976V39.7718V39.7459V39.7201V39.6943V39.6686V39.6428V39.617V39.5913V39.5656V39.5399V39.5142V39.4885V39.4628V39.4372V39.4115V39.3859V39.3603V39.3347V39.3092V39.2836V39.2581V39.2326V39.2071V39.1816V39.1561V39.1307V39.1053V39.0799V39.0545V39.0291V39.0038V38.9785V38.9532V38.9279V38.9026V38.8774V38.8522V38.827V38.8019V38.7767V38.7516V38.7265V38.7015V38.6764V38.6514V38.6264V38.6015V38.5765V38.5516V38.5267V38.5019V38.4771V38.4523V38.4275V38.4027V38.378V38.3533V38.3287V38.3041V38.2795V38.2549V38.2304V38.2059V38.1814V38.157V38.1326V38.1082V38.0838V38.0595V38.0353V38.011V37.9868V37.9626V37.9385V37.9144V37.8903V37.8663V37.8423V37.8183V37.7944V37.7705V37.7467V37.7229V37.6991V37.6754V37.6517V37.628V37.6044V37.5808V37.5573V37.5338V37.5103V37.4869V37.4635V37.4401V37.4169V37.3936V37.3704V37.3472V37.3241V37.301V37.278V37.255V37.232V37.2091V37.1862V37.1634V37.1406V37.1179V37.0952V37.0726V37.05V37.0275V37.005V36.9825V36.9601V36.9378V36.9155V36.8932V36.871V36.8489V36.8268V36.8047V36.7827V36.7608V36.7389V36.717V36.6952V36.6735V36.6518V36.6301V36.6085V36.587V36.5655V36.5441V36.5227V36.5014V36.4801V36.4589V36.4378V36.4167V36.3956V36.3747V36.3537V36.3329V36.312V36.2913V36.2706V36.25V36.2294V36.2089V36.1884V36.168V36.1477V36.1274V36.1072V36.087V36.0669V36.0469V36.0269V36.007V35.9871V35.9673V35.9476V35.928V35.9084V35.8888V35.8694V35.85V35.8306V35.8113V35.7921V35.773V35.7539V35.7349V35.716V35.6971V35.6783V35.6596V35.6409V35.6223V35.6038V35.5853V35.5669V35.5486V35.5303V35.5122V35.494V35.476V35.458V35.4401V35.4223V35.4046V35.3869V35.3693V35.3517V35.3343V35.3169V35.2996V35.2824V35.2652V35.2481V35.2311V35.2142V35.1973V35.1805V35.1638V35.1472V35.1306V35.1142V35.0978V35.0815V35.0652V35.0491V35.033V35.017V35.0011V34.9852V34.9695V34.9538C54.4143 33.7102 53.4075 32.7034 52.1639 32.7034H46.2318C45.9829 28.8073 46.5631 26.1727 47.6232 24.4727C48.7288 22.6997 50.4463 21.8021 52.7085 21.6115C53.6766 21.533 54.4143 20.7265 54.4143 19.7609V19.7539V19.7468V19.7396V19.7325V19.7253V19.7182V19.7109V19.7037V19.6965V19.6892V19.6819V19.6745V19.6672V19.6598V19.6524V19.645V19.6376V19.6301V19.6226V19.6151V19.6076V19.6001V19.5925V19.5849V19.5773V19.5697V19.562V19.5543V19.5466V19.5389V19.5312V19.5234V19.5156V19.5078V19.5V19.4922V19.4843V19.4764V19.4685V19.4606V19.4526V19.4447V19.4367V19.4287V19.4207V19.4126V19.4045V19.3965V19.3884V19.3802V19.3721V19.3639V19.3558V19.3476V19.3393V19.3311V19.3229V19.3146V19.3063V19.298V19.2897V19.2813V19.2729V19.2646V19.2562V19.2478V19.2393V19.2309V19.2224V19.2139V19.2054V19.1969V19.1883V19.1798V19.1712V19.1626V19.154V19.1454V19.1368V19.1281V19.1194V19.1107V19.102V19.0933V19.0846V19.0758V19.067V19.0583V19.0495V19.0406V19.0318V19.023V19.0141V19.0052V18.9963V18.9874V18.9785V18.9696V18.9606V18.9516V18.9427V18.9337V18.9246V18.9156V18.9066V18.8975V18.8885V18.8794V18.8703V18.8612V18.852V18.8429V18.8338V18.8246V18.8154V18.8062V18.797V18.7878V18.7786V18.7693V18.7601V18.7508V18.7415V18.7322V18.7229V18.7136V18.7043V18.6949V18.6856V18.6762V18.6668V18.6575V18.6481V18.6386V18.6292V18.6198V18.6103V18.6009V18.5914V18.5819V18.5724V18.5629V18.5534V18.5439V18.5344V18.5248V18.5153V18.5057V18.4961V18.4865V18.4769V18.4673V18.4577V18.4481V18.4385V18.4288V18.4192V18.4095V18.3998V18.3901V18.3804V18.3707V18.361V18.3513V18.3416V18.3319V18.3221V18.3124V18.3026V18.2928V18.2831V18.2733V18.2635V18.2537V18.2439V18.234V18.2242V18.2144V18.2046V18.1947V18.1849V18.175V18.1651V18.1552V18.1454V18.1355V18.1256V18.1157V18.1058V18.0958V18.0859V18.076V18.0661V18.0561V18.0462V18.0362V18.0263V18.0163V18.0063V17.9964V17.9864V17.9764V17.9664V17.9564V17.9464V17.9364V17.9264V17.9164V17.9063V17.8963V17.8863V17.8763V17.8662V17.8562V17.8461V17.8361V17.826V17.816V17.8059V17.7958V17.7857V17.7757V17.7656V17.7555V17.7454V17.7353V17.7253V17.7152V17.7051V17.695V17.6849V17.6748V17.6646V17.6545V17.6444V17.6343V17.6242V17.6141V17.604V17.5938V17.5837V17.5736V17.5635V17.5533V17.5432V17.5331V17.5229V17.5128V17.5027V17.4925V17.4824V17.4722V17.4621V17.452V17.4418V17.4317V17.4215V17.4114V17.4013V17.3911V17.381V17.3708V17.3607V17.3505V17.3404V17.3303V17.3201V17.31V17.2999V17.2897V17.2796V17.2694V17.2593V17.2492V17.239V17.2289V17.2188V17.2087V17.1985V17.1884V17.1783V17.1682V17.158V17.1479V17.1378V17.1277V17.1176V17.1075V17.0974V17.0873V17.0772V17.0671V17.057V17.0469V17.0368V17.0267V17.0167V17.0066V16.9965V16.9864V16.9764V16.9663V16.9562V16.9462V16.9361V16.9261V16.9161V16.906V16.896V16.886V16.8759V16.8659V16.8559V16.8459V16.8359V16.8259V16.8159V16.8059V16.7959V16.7859V16.776V16.766V16.756V16.7461V16.7361V16.7262V16.7162V16.7063V16.6964V16.6865V16.6765V16.6666V16.6567V16.6468V16.637V16.6271V16.6172V16.6073V16.5975V16.5876V16.5778V16.5679V16.5581V16.5483V16.5385V16.5287V16.5189V16.5091V16.4993V16.4895V16.4798V16.47V16.4603V16.4505V16.4408V16.4311V16.4213V16.4116V16.4019V16.3923V16.3826V16.3729V16.3632V16.3536V16.344V16.3343V16.3247V16.3151V16.3055V16.2959V16.2863V16.2767V16.2672V16.2576V16.2481V16.2386V16.229V16.2195V16.21V16.2005V16.1911V16.1816V16.1721V16.1627V16.1533V16.1438V16.1344V16.125V16.1157V16.1063V16.0969V16.0876V16.0782V16.0689V16.0596V16.0503V16.041V16.0317V16.0225V16.0132V16.004V15.9948V15.9855V15.9763V15.9672V15.958V15.9488V15.9397V15.9305V15.9214V15.9123V15.9032V15.8942V15.8851V15.876V15.867V15.858V15.849V15.84V15.831V15.8221V15.8131V15.8042V15.7953V15.7863V15.7775V15.7686V15.7597V15.7509V15.7421V15.7332V15.7245V15.7157V15.7069V15.6982V15.6894V15.6807V15.672V15.6633V15.6547V15.646V15.6374V15.6288V15.6202V15.6116V15.603V15.5945V15.5859V15.5774V15.5689V15.5604V15.552V15.5435V15.5351V15.5267V15.5183V15.5099V15.5016V15.4932V15.4849V15.4766V15.4683V15.46V15.4518V15.4436V15.4354V15.4272V15.419V15.4108V15.4027V15.3946V15.3865V15.3784V15.3704V15.3623V15.3543V15.3463V15.3383V15.3304V15.3224V15.3145V15.3066V15.2988V15.2909V15.2831V15.2752V15.2675V15.2597V15.2519V15.2442V15.2365V15.2288V15.2211V15.2135V15.2058V15.1982V15.1907V15.1831V15.1756V15.168V15.1605V15.1531V15.1456V15.1382V15.1308V15.1234V15.116V15.1087V15.1014V15.0941V15.0868V15.0796C54.4143 14.5734 54.2035 14.0988 53.8622 13.7574Z" stroke="#0099FA" stroke-width="2"/>
<path d="M28.4457 13.7574L28.4402 13.752L28.4347 13.7466C28.0715 13.3945 27.5771 13.2052 27.0731 13.2265C21.753 13.4267 17.6219 15.3714 14.8475 18.9528C12.0993 22.5002 10.7832 27.5237 10.7832 33.7034V46.5074C10.7832 47.7458 11.7849 48.7629 13.0336 48.7629H13.0514H13.0693H13.0873H13.1054H13.1236H13.1419H13.1603H13.1788H13.1974H13.2161H13.2349H13.2538H13.2729H13.292H13.3112H13.3305H13.3499H13.3694H13.3891H13.4088H13.4286H13.4485H13.4685H13.4886H13.5088H13.5291H13.5495H13.57H13.5906H13.6113H13.632H13.6529H13.6738H13.6949H13.716H13.7373H13.7586H13.78H13.8015H13.8231H13.8448H13.8666H13.8884H13.9104H13.9324H13.9546H13.9768H13.9991H14.0215H14.0439H14.0665H14.0892H14.1119H14.1347H14.1576H14.1806H14.2036H14.2268H14.25H14.2733H14.2967H14.3202H14.3438H14.3674H14.3911H14.4149H14.4388H14.4627H14.4868H14.5109H14.535H14.5593H14.5836H14.6081H14.6326H14.6571H14.6818H14.7065H14.7313H14.7561H14.7811H14.8061H14.8311H14.8563H14.8815H14.9068H14.9322H14.9576H14.9831H15.0087H15.0343H15.06H15.0858H15.1117H15.1376H15.1636H15.1896H15.2157H15.2419H15.2681H15.2944H15.3208H15.3473H15.3738H15.4003H15.4269H15.4536H15.4804H15.5072H15.5341H15.561H15.588H15.615H15.6422H15.6693H15.6966H15.7238H15.7512H15.7786H15.8061H15.8336H15.8611H15.8888H15.9165H15.9442H15.972H15.9998H16.0277H16.0557H16.0837H16.1118H16.1399H16.168H16.1962H16.2245H16.2528H16.2812H16.3096H16.3381H16.3666H16.3951H16.4237H16.4524H16.4811H16.5098H16.5386H16.5675H16.5964H16.6253H16.6543H16.6833H16.7123H16.7414H16.7706H16.7998H16.829H16.8583H16.8876H16.9169H16.9463H16.9758H17.0052H17.0348H17.0643H17.0939H17.1235H17.1532H17.1829H17.2126H17.2424H17.2722H17.3021H17.3319H17.3619H17.3918H17.4218H17.4518H17.4819H17.5119H17.542H17.5722H17.6024H17.6326H17.6628H17.6931H17.7234H17.7537H17.784H17.8144H17.8448H17.8753H17.9057H17.9362H17.9667H17.9973H18.0278H18.0584H18.0891H18.1197H18.1504H18.181H18.2118H18.2425H18.2732H18.304H18.3348H18.3656H18.3965H18.4273H18.4582H18.4891H18.52H18.551H18.5819H18.6129H18.6439H18.6749H18.7059H18.7369H18.768H18.799H18.8301H18.8612H18.8923H18.9234H18.9546H18.9857H19.0169H19.048H19.0792H19.1104H19.1416H19.1728H19.204H19.2353H19.2665H19.2977H19.329H19.3603H19.3915H19.4228H19.4541H19.4854H19.5167H19.548H19.5793H19.6106H19.6419H19.6732H19.7045H19.7358H19.7671H19.7985H19.8298H19.8611H19.8924H19.9238H19.9551H19.9864H20.0177H20.049H20.0804H20.1117H20.143H20.1743H20.2056H20.2369H20.2682H20.2995H20.3308H20.3621H20.3933H20.4246H20.4559H20.4871H20.5184H20.5496H20.5808H20.612H20.6432H20.6744H20.7056H20.7368H20.768H20.7991H20.8303H20.8614H20.8925H20.9236H20.9547H20.9858H21.0168H21.0479H21.0789H21.1099H21.1409H21.1719H21.2029H21.2338H21.2647H21.2957H21.3265H21.3574H21.3883H21.4191H21.4499H21.4807H21.5115H21.5422H21.5729H21.6037H21.6343H21.665H21.6956H21.7262H21.7568H21.7874H21.8179H21.8484H21.8789H21.9094H21.9398H21.9702H22.0006H22.0309H22.0612H22.0915H22.1218H22.152H22.1822H22.2124H22.2425H22.2726H22.3027H22.3327H22.3627H22.3927H22.4226H22.4525H22.4824H22.5122H22.542H22.5718H22.6015H22.6312H22.6609H22.6905H22.7201H22.7496H22.7791H22.8086H22.838H22.8674H22.8967H22.926H22.9553H22.9845H23.0137H23.0428H23.0719H23.101H23.13H23.1589H23.1878H23.2167H23.2455H23.2743H23.3031H23.3317H23.3604H23.389H23.4175H23.446H23.4745H23.5029H23.5312H23.5595H23.5878H23.616H23.6441H23.6722H23.7003H23.7282H23.7562H23.7841H23.8119H23.8397H23.8674H23.8951H23.9227H23.9502H23.9777H24.0052H24.0326H24.0599H24.0872H24.1144H24.1415H24.1686H24.1957H24.2227H24.2496H24.2764H24.3032H24.33H24.3566H24.3832H24.4098H24.4363H24.4627H24.489H24.5153H24.5416H24.5677H24.5938H24.6198H24.6458H24.6717H24.6975H24.7233H24.749H24.7746H24.8001H24.8256H24.851H24.8764H24.9017H24.9269H24.952H24.9771H25.002H25.027H25.0518H25.0766H25.1013H25.1259H25.1504H25.1749H25.1993H25.2236H25.2478H25.272H25.2961H25.3201H25.344H25.3679H25.3916H25.4153H25.439H25.4625H25.4859H25.5093H25.5326H25.5558H25.5789H25.602H25.6249H25.6478H25.6706H25.6933H25.7159H25.7385H25.7609H25.7833H25.8056H25.8277H25.8499H25.8719H25.8938H25.9156H25.9374H25.959H25.9806H26.0021H26.0235H26.0448H26.066H26.0871H26.1081H26.1291H26.1499H26.1707H26.1913H26.2119H26.2323H26.2527H26.273H26.2931H26.3132H26.3332H26.3531H26.3729H26.3925H26.4121H26.4316H26.451H26.4703H26.4895H26.5086H26.5276H26.5465H26.5653H26.5839H26.6025H26.621H26.6394H26.6576H26.6758H26.6939H26.7118H26.7297H26.7474C27.9963 48.7629 28.9978 47.7457 28.9978 46.5074V46.4918V46.4761V46.4602V46.4444V46.4284V46.4123V46.3962V46.38V46.3637V46.3474V46.3309V46.3144V46.2978V46.2811V46.2644V46.2475V46.2306V46.2136V46.1966V46.1794V46.1622V46.1449V46.1276V46.1102V46.0927V46.0751V46.0574V46.0397V46.0219V46.004V45.9861V45.9681V45.95V45.9318V45.9136V45.8953V45.8769V45.8585V45.84V45.8214V45.8028V45.7841V45.7653V45.7464V45.7275V45.7085V45.6895V45.6704V45.6512V45.6319V45.6126V45.5933V45.5738V45.5543V45.5347V45.5151V45.4954V45.4756V45.4558V45.4359V45.416V45.3959V45.3759V45.3557V45.3355V45.3153V45.295V45.2746V45.2541V45.2336V45.2131V45.1925V45.1718V45.1511V45.1303V45.1094V45.0885V45.0675V45.0465V45.0255V45.0043V44.9831V44.9619V44.9406V44.9192V44.8978V44.8764V44.8549V44.8333V44.8117V44.79V44.7683V44.7465V44.7247V44.7028V44.6808V44.6588V44.6368V44.6147V44.5926V44.5704V44.5482V44.5259V44.5036V44.4812V44.4587V44.4363V44.4137V44.3912V44.3686V44.3459V44.3232V44.3004V44.2776V44.2548V44.2319V44.2089V44.186V44.1629V44.1399V44.1168V44.0936V44.0704V44.0472V44.0239V44.0006V43.9772V43.9538V43.9303V43.9069V43.8833V43.8598V43.8362V43.8125V43.7888V43.7651V43.7413V43.7175V43.6937V43.6698V43.6459V43.622V43.598V43.574V43.5499V43.5258V43.5017V43.4775V43.4533V43.4291V43.4049V43.3806V43.3562V43.3319V43.3075V43.283V43.2586V43.2341V43.2096V43.185V43.1604V43.1358V43.1112V43.0865V43.0618V43.0371V43.0123V42.9875V42.9627V42.9379V42.913V42.8881V42.8632V42.8382V42.8132V42.7882V42.7632V42.7382V42.7131V42.688V42.6629V42.6377V42.6125V42.5873V42.5621V42.5369V42.5116V42.4863V42.461V42.4357V42.4103V42.3849V42.3595V42.3341V42.3087V42.2832V42.2578V42.2323V42.2068V42.1812V42.1557V42.1301V42.1046V42.079V42.0534V42.0277V42.0021V41.9764V41.9507V41.925V41.8993V41.8736V41.8479V41.8221V41.7964V41.7706V41.7448V41.719V41.6932V41.6674V41.6415V41.6157V41.5898V41.564V41.5381V41.5122V41.4863V41.4604V41.4345V41.4086V41.3826V41.3567V41.3307V41.3048V41.2788V41.2528V41.2269V41.2009V41.1749V41.1489V41.1229V41.0969V41.0709V41.0449V41.0189V40.9928V40.9668V40.9408V40.9148V40.8887V40.8627V40.8367V40.8106V40.7846V40.7586V40.7325V40.7065V40.6804V40.6544V40.6284V40.6023V40.5763V40.5503V40.5242V40.4982V40.4722V40.4462V40.4201V40.3941V40.3681V40.3421V40.3161V40.2901V40.2641V40.2381V40.2122V40.1862V40.1602V40.1343V40.1083V40.0824V40.0564V40.0305V40.0046V39.9787V39.9528V39.9269V39.901V39.8751V39.8493V39.8234V39.7976V39.7718V39.7459V39.7201V39.6943V39.6686V39.6428V39.617V39.5913V39.5656V39.5399V39.5142V39.4885V39.4628V39.4372V39.4115V39.3859V39.3603V39.3347V39.3092V39.2836V39.2581V39.2326V39.2071V39.1816V39.1561V39.1307V39.1053V39.0799V39.0545V39.0291V39.0038V38.9785V38.9532V38.9279V38.9026V38.8774V38.8522V38.827V38.8019V38.7767V38.7516V38.7265V38.7015V38.6764V38.6514V38.6264V38.6015V38.5765V38.5516V38.5267V38.5019V38.4771V38.4523V38.4275V38.4027V38.378V38.3533V38.3287V38.3041V38.2795V38.2549V38.2304V38.2059V38.1814V38.157V38.1326V38.1082V38.0838V38.0595V38.0353V38.011V37.9868V37.9626V37.9385V37.9144V37.8903V37.8663V37.8423V37.8183V37.7944V37.7705V37.7467V37.7229V37.6991V37.6754V37.6517V37.628V37.6044V37.5808V37.5573V37.5338V37.5103V37.4869V37.4635V37.4401V37.4169V37.3936V37.3704V37.3472V37.3241V37.301V37.278V37.255V37.232V37.2091V37.1862V37.1634V37.1406V37.1179V37.0952V37.0726V37.05V37.0275V37.005V36.9825V36.9601V36.9378V36.9155V36.8932V36.871V36.8489V36.8268V36.8047V36.7827V36.7608V36.7389V36.717V36.6952V36.6735V36.6518V36.6301V36.6085V36.587V36.5655V36.5441V36.5227V36.5014V36.4801V36.4589V36.4378V36.4167V36.3956V36.3747V36.3537V36.3329V36.312V36.2913V36.2706V36.25V36.2294V36.2089V36.1884V36.168V36.1477V36.1274V36.1072V36.087V36.0669V36.0469V36.0269V36.007V35.9871V35.9673V35.9476V35.928V35.9084V35.8888V35.8694V35.85V35.8306V35.8113V35.7921V35.773V35.7539V35.7349V35.716V35.6971V35.6783V35.6596V35.6409V35.6223V35.6038V35.5853V35.5669V35.5486V35.5303V35.5122V35.494V35.476V35.458V35.4401V35.4223V35.4046V35.3869V35.3693V35.3517V35.3343V35.3169V35.2996V35.2824V35.2652V35.2481V35.2311V35.2142V35.1973V35.1805V35.1638V35.1472V35.1306V35.1142V35.0978V35.0815V35.0652V35.0491V35.033V35.017V35.0011V34.9852V34.9695V34.9538C28.9978 33.7102 27.991 32.7034 26.7474 32.7034H20.8153C20.5664 28.8073 21.1466 26.1727 22.2067 24.4727C23.3123 22.6997 25.0298 21.8021 27.292 21.6115C28.2601 21.533 28.9978 20.7265 28.9978 19.7609V19.7539V19.7468V19.7396V19.7325V19.7253V19.7182V19.7109V19.7037V19.6965V19.6892V19.6819V19.6745V19.6672V19.6598V19.6524V19.645V19.6376V19.6301V19.6226V19.6151V19.6076V19.6001V19.5925V19.5849V19.5773V19.5697V19.562V19.5543V19.5466V19.5389V19.5312V19.5234V19.5156V19.5078V19.5V19.4922V19.4843V19.4764V19.4685V19.4606V19.4526V19.4447V19.4367V19.4287V19.4207V19.4126V19.4045V19.3965V19.3884V19.3802V19.3721V19.3639V19.3558V19.3476V19.3393V19.3311V19.3229V19.3146V19.3063V19.298V19.2897V19.2813V19.2729V19.2646V19.2562V19.2478V19.2393V19.2309V19.2224V19.2139V19.2054V19.1969V19.1883V19.1798V19.1712V19.1626V19.154V19.1454V19.1368V19.1281V19.1194V19.1107V19.102V19.0933V19.0846V19.0758V19.067V19.0583V19.0495V19.0406V19.0318V19.023V19.0141V19.0052V18.9963V18.9874V18.9785V18.9696V18.9606V18.9516V18.9427V18.9337V18.9246V18.9156V18.9066V18.8975V18.8885V18.8794V18.8703V18.8612V18.852V18.8429V18.8338V18.8246V18.8154V18.8062V18.797V18.7878V18.7786V18.7693V18.7601V18.7508V18.7415V18.7322V18.7229V18.7136V18.7043V18.6949V18.6856V18.6762V18.6668V18.6575V18.6481V18.6386V18.6292V18.6198V18.6103V18.6009V18.5914V18.5819V18.5724V18.5629V18.5534V18.5439V18.5344V18.5248V18.5153V18.5057V18.4961V18.4865V18.4769V18.4673V18.4577V18.4481V18.4385V18.4288V18.4192V18.4095V18.3998V18.3901V18.3804V18.3707V18.361V18.3513V18.3416V18.3319V18.3221V18.3124V18.3026V18.2928V18.2831V18.2733V18.2635V18.2537V18.2439V18.234V18.2242V18.2144V18.2046V18.1947V18.1849V18.175V18.1651V18.1552V18.1454V18.1355V18.1256V18.1157V18.1058V18.0958V18.0859V18.076V18.0661V18.0561V18.0462V18.0362V18.0263V18.0163V18.0063V17.9964V17.9864V17.9764V17.9664V17.9564V17.9464V17.9364V17.9264V17.9164V17.9063V17.8963V17.8863V17.8763V17.8662V17.8562V17.8461V17.8361V17.826V17.816V17.8059V17.7958V17.7857V17.7757V17.7656V17.7555V17.7454V17.7353V17.7253V17.7152V17.7051V17.695V17.6849V17.6748V17.6646V17.6545V17.6444V17.6343V17.6242V17.6141V17.604V17.5938V17.5837V17.5736V17.5635V17.5533V17.5432V17.5331V17.5229V17.5128V17.5027V17.4925V17.4824V17.4722V17.4621V17.452V17.4418V17.4317V17.4215V17.4114V17.4013V17.3911V17.381V17.3708V17.3607V17.3505V17.3404V17.3303V17.3201V17.31V17.2999V17.2897V17.2796V17.2694V17.2593V17.2492V17.239V17.2289V17.2188V17.2087V17.1985V17.1884V17.1783V17.1682V17.158V17.1479V17.1378V17.1277V17.1176V17.1075V17.0974V17.0873V17.0772V17.0671V17.057V17.0469V17.0368V17.0267V17.0167V17.0066V16.9965V16.9864V16.9764V16.9663V16.9562V16.9462V16.9361V16.9261V16.9161V16.906V16.896V16.886V16.8759V16.8659V16.8559V16.8459V16.8359V16.8259V16.8159V16.8059V16.7959V16.7859V16.776V16.766V16.756V16.7461V16.7361V16.7262V16.7162V16.7063V16.6964V16.6865V16.6765V16.6666V16.6567V16.6468V16.637V16.6271V16.6172V16.6073V16.5975V16.5876V16.5778V16.5679V16.5581V16.5483V16.5385V16.5287V16.5189V16.5091V16.4993V16.4895V16.4798V16.47V16.4603V16.4505V16.4408V16.4311V16.4213V16.4116V16.4019V16.3923V16.3826V16.3729V16.3632V16.3536V16.344V16.3343V16.3247V16.3151V16.3055V16.2959V16.2863V16.2767V16.2672V16.2576V16.2481V16.2386V16.229V16.2195V16.21V16.2005V16.1911V16.1816V16.1721V16.1627V16.1533V16.1438V16.1344V16.125V16.1157V16.1063V16.0969V16.0876V16.0782V16.0689V16.0596V16.0503V16.041V16.0317V16.0225V16.0132V16.004V15.9948V15.9855V15.9763V15.9672V15.958V15.9488V15.9397V15.9305V15.9214V15.9123V15.9032V15.8942V15.8851V15.876V15.867V15.858V15.849V15.84V15.831V15.8221V15.8131V15.8042V15.7953V15.7863V15.7775V15.7686V15.7597V15.7509V15.7421V15.7332V15.7245V15.7157V15.7069V15.6982V15.6894V15.6807V15.672V15.6633V15.6547V15.646V15.6374V15.6288V15.6202V15.6116V15.603V15.5945V15.5859V15.5774V15.5689V15.5604V15.552V15.5435V15.5351V15.5267V15.5183V15.5099V15.5016V15.4932V15.4849V15.4766V15.4683V15.46V15.4518V15.4436V15.4354V15.4272V15.419V15.4108V15.4027V15.3946V15.3865V15.3784V15.3704V15.3623V15.3543V15.3463V15.3383V15.3304V15.3224V15.3145V15.3066V15.2988V15.2909V15.2831V15.2752V15.2675V15.2597V15.2519V15.2442V15.2365V15.2288V15.2211V15.2135V15.2058V15.1982V15.1907V15.1831V15.1756V15.168V15.1605V15.1531V15.1456V15.1382V15.1308V15.1234V15.116V15.1087V15.1014V15.0941V15.0868V15.0796C28.9978 14.5734 28.787 14.0988 28.4457 13.7574Z" stroke="#0099FA" stroke-width="2"/>
</svg>
