<svg width="16" height="16" viewBox="0 0 16 16" fill="none" xmlns="http://www.w3.org/2000/svg">
    <rect width="16" height="16" fill="black"/>
    <g transform="translate(4,4)">
    <path d="M6.8698 1.00857C6.1403 0.336189 5.23291 0 4.14927 0C3.01015 0 2.03911 0.381885 1.23781 1.14729C0.436503 1.91269 0.0350342 2.86414 0.0350342 4.00326C0.0350342 5.09506 0.416919 6.03346 1.17906 6.82007C1.94446 7.60669 2.97261 8 4.26678 8C5.04687 8 5.81227 7.84007 6.56298 7.51856C6.80778 7.41412 6.92692 7.13341 6.82736 6.88698C6.72455 6.63239 6.43405 6.51489 6.1811 6.6226C5.5283 6.9033 4.88856 7.04366 4.26514 7.04366C3.2729 7.04366 2.50423 6.74174 1.95915 6.13627C1.4157 5.53244 1.14315 4.82252 1.14315 4.00816C1.14315 3.12362 1.43528 2.38596 2.0179 1.79355C2.59889 1.20277 3.31533 0.905753 4.16396 0.905753C4.94568 0.905753 5.60664 1.14892 6.14519 1.63525C6.68375 2.12158 6.95303 2.73358 6.95303 3.47124C6.95303 3.97552 6.829 4.39657 6.58257 4.73113C6.33614 5.06732 6.07991 5.23378 5.8139 5.23378C5.67029 5.23378 5.59848 5.15708 5.59848 5.00204C5.59848 4.87638 5.60827 4.7295 5.62622 4.55977L5.92977 2.07752H4.8853L4.81839 2.32069C4.55237 2.10363 4.26025 1.99429 3.94364 1.99429C3.44099 1.99429 3.01015 2.19502 2.65274 2.59486C2.2937 2.9947 2.11582 3.5104 2.11582 4.14035C2.11582 4.75561 2.27412 5.25337 2.59236 5.63035C2.9106 6.00898 3.29248 6.19665 3.73964 6.19665C4.13948 6.19665 4.48057 6.02856 4.76453 5.694C4.97832 6.0155 5.2933 6.17544 5.70945 6.17544C6.32145 6.17544 6.85021 5.90942 7.29574 5.37576C7.74128 4.84374 7.96486 4.20073 7.96486 3.44839C7.96486 2.49531 7.60093 1.68095 6.8698 1.00857ZM4.46425 4.76377C4.27983 5.01183 4.05951 5.13749 3.80329 5.13749C3.62867 5.13749 3.48832 5.0461 3.38224 4.86332C3.27453 4.68054 3.22067 4.45369 3.22067 4.18115C3.22067 3.84496 3.29574 3.57405 3.44589 3.36842C3.59603 3.16279 3.78208 3.05834 4.00403 3.05834C4.1966 3.05834 4.36796 3.13505 4.5181 3.29009C4.66825 3.44512 4.74332 3.65075 4.74332 3.90861C4.74168 4.23011 4.64866 4.51408 4.46425 4.76377Z" fill="white"/>
    </g>
</svg>
