<svg width="16" height="16" viewBox="0 0 16 16" fill="none" xmlns="http://www.w3.org/2000/svg">
    <rect width="16" height="16" fill="black"/>
    <g transform="translate(3,3)">
        <g clip-path="url(#clip0)">
            <path d="M4.50785 7.04392C3.73261 6.96307 3.03363 6.77214 2.43518 6.30409C2.36093 6.24586 2.28426 6.18972 2.2165 6.12468C1.95456 5.87311 1.92817 5.58499 2.13544 5.28808C2.31275 5.03399 2.6104 4.96602 2.91978 5.11192C2.97969 5.14019 3.03677 5.17549 3.09144 5.2134C4.20674 5.97973 5.73888 6.00089 6.85837 5.24786C6.96928 5.16282 7.08784 5.09348 7.22525 5.05808C7.49242 4.98948 7.74158 5.08762 7.88496 5.32138C8.04876 5.58835 8.04667 5.84892 7.84485 6.05619C7.53526 6.37395 7.16293 6.60383 6.74924 6.76429C6.35806 6.91594 5.9296 6.99229 5.50553 7.04298C5.56953 7.11263 5.59969 7.14687 5.6397 7.18709C6.21552 7.76564 6.79385 8.34177 7.36779 8.9221C7.56333 9.11983 7.60417 9.36501 7.49651 9.595C7.37879 9.84636 7.11528 10.0117 6.8569 9.99404C6.6932 9.98272 6.56554 9.90124 6.45211 9.78698C6.01757 9.34972 5.57487 8.92052 5.14913 8.47499C5.02523 8.34544 4.96564 8.36994 4.85629 8.48243C4.41914 8.93246 3.97486 9.37559 3.52797 9.8162C3.3273 10.014 3.08851 10.0496 2.85579 9.93664C2.60841 9.81672 2.451 9.56421 2.46315 9.31044C2.47153 9.13879 2.55594 9.00766 2.67377 8.89005C3.24362 8.32103 3.8119 7.75055 4.38039 7.1806C4.41799 7.14268 4.45307 7.10247 4.50785 7.04392Z"
                  fill="white"/>
            <path d="M4.98015 5.06164C3.59716 5.05693 2.46311 3.91042 2.47117 2.52522C2.47913 1.12474 3.61391 -0.00386517 5.01053 9.94924e-06C6.40997 0.00378033 7.53323 1.14862 7.52621 2.56366C7.51909 3.94603 6.37718 5.06646 4.98015 5.06164ZM6.23705 2.52858C6.23464 1.84079 5.68689 1.29325 5.00047 1.29262C4.30829 1.29189 3.75562 1.84938 3.76096 2.54345C3.76609 3.22861 4.31856 3.77228 5.00686 3.76976C5.69307 3.76736 6.23936 3.21625 6.23705 2.52858Z"
                  fill="white"/>
        </g>
        <defs>
            <clipPath id="clip0">
                <rect width="10" height="10" fill="white"/>
            </clipPath>
        </defs>
    </g>
</svg>
