<svg width="9" height="10" viewBox="0 0 9 10" fill="none" xmlns="http://www.w3.org/2000/svg">
<path d="M3.332 8.432V10H1.484V8.432H0.28V7.116H1.484V5.912H0.28V4.582H1.484V0.228H5.698C6.60333 0.228 7.308 0.475333 7.812 0.969999C8.32533 1.46467 8.582 2.16467 8.582 3.07C8.582 3.966 8.32533 4.666 7.812 5.17C7.308 5.66467 6.60333 5.912 5.698 5.912H3.332V7.116H6.58V8.432H3.332ZM3.332 4.582H5.516C5.88 4.582 6.16 4.484 6.356 4.288C6.56133 4.092 6.664 3.81667 6.664 3.462V2.804C6.664 2.44933 6.56133 2.188 6.356 2.02C6.15067 1.84267 5.87067 1.754 5.516 1.754H3.332V4.582Z" fill="#2B2B2B"/>
</svg>
