 <svg width="16" height="16" viewBox="0 0 16 16" fill="none" xmlns="http://www.w3.org/2000/svg">
    <rect width="16" height="16" fill="black"/>
    <g transform="translate(4,3.5)">
    <path d="M9.00005 1.70968C8.6688 1.85646 8.31337 1.95601 7.93993 2.00045C8.32124 1.77211 8.61312 1.40993 8.75146 0.979697C8.39378 1.19115 7.99897 1.3447 7.5783 1.42793C7.24143 1.06856 6.76227 0.844727 6.2308 0.844727C5.21118 0.844727 4.38446 1.67145 4.38446 2.69051C4.38446 2.83503 4.40077 2.9762 4.43227 3.11118C2.89806 3.03412 1.53763 2.29908 0.62712 1.18215C0.467958 1.45436 0.377414 1.77153 0.377414 2.11011C0.377414 2.75068 0.703605 3.31589 1.19852 3.64656C0.895943 3.63645 0.61137 3.55321 0.362238 3.41486V3.43792C0.362238 4.33212 0.99887 5.07842 1.84302 5.24827C1.68836 5.28989 1.52527 5.31294 1.35655 5.31294C1.23733 5.31294 1.12203 5.30114 1.00899 5.27864C1.24406 6.01256 1.92569 6.54627 2.7333 6.5609C2.10172 7.05581 1.30537 7.34994 0.440414 7.34994C0.291385 7.34994 0.14459 7.34094 6.10352e-05 7.32464C0.817223 7.84936 1.78735 8.1553 2.83003 8.1553C6.22633 8.1553 8.0828 5.3422 8.0828 2.90253L8.07661 2.66352C8.43934 2.4048 8.75315 2.07974 9.00005 1.70968Z" fill="white"/>
    </g>
</svg>
