<svg width="24" height="24" viewBox="0 0 24 24" fill="none" xmlns="http://www.w3.org/2000/svg">
<g clip-path="url(#clip0)">
<path d="M15.8995 8.10082C14.9101 7.1114 13.5133 6.47119 12 6.47119C10.4868 6.47119 9.09 7.0823 8.10058 8.10082C7.11116 9.09024 6.47095 10.4871 6.47095 12.0003C6.47095 13.5135 7.11116 14.9103 8.10058 15.8998C9.09 16.8892 10.4868 17.5294 12 17.5294C13.5133 17.5294 14.9101 16.9183 15.8995 15.8998C16.8889 14.9103 17.5292 13.5135 17.5292 12.0003C17.5292 10.4871 16.918 9.09024 15.8995 8.10082ZM14.8519 14.8521C14.1244 15.5797 13.1059 16.0162 12 16.0162C10.8942 16.0162 9.87571 15.5797 9.1482 14.8521C8.42068 14.1246 7.98418 13.1061 7.98418 12.0003C7.98418 10.8945 8.42068 9.87595 9.1482 9.14844C9.87571 8.42093 10.8942 7.98442 12 7.98442C13.1059 7.98442 14.1244 8.42093 14.8519 9.14844C15.5794 9.87595 16.0159 10.8945 16.0159 12.0003C16.0159 13.1061 15.5794 14.1246 14.8519 14.8521Z" fill="#FEC658"/>
<path d="M22.2435 11.2437H20.0027C19.5953 11.2437 19.2461 11.5929 19.2461 12.0003C19.2461 12.4077 19.5953 12.7569 20.0027 12.7569H22.2435C22.6509 12.7569 23.0001 12.4077 23.0001 12.0003C23.0001 11.5929 22.6509 11.2437 22.2435 11.2437Z" fill="#FEC658"/>
<path d="M12 19.2461C11.5926 19.2461 11.2434 19.5953 11.2434 20.0027V22.2434C11.2434 22.6509 11.5926 23.0001 12 23.0001C12.4074 23.0001 12.7566 22.6509 12.7566 22.2434V20.0027C12.7566 19.5953 12.4074 19.2461 12 19.2461Z" fill="#FEC658"/>
<path d="M19.77 18.7221L18.1694 17.1216C17.9075 16.8306 17.4128 16.8306 17.1218 17.1216C16.8308 17.4126 16.8308 17.8782 17.1218 18.1692L18.7223 19.7697C19.0134 20.0607 19.479 20.0607 19.77 19.7697C20.061 19.4787 20.061 19.0131 19.77 18.7221Z" fill="#FEC658"/>
<path d="M12 1C11.5926 1 11.2434 1.34921 11.2434 1.75661V3.99735C11.2434 4.40476 11.5926 4.75397 12 4.75397C12.4074 4.75397 12.7566 4.40476 12.7566 3.99735V1.75661C12.7566 1.34921 12.4074 1 12 1Z" fill="#FEC658"/>
<path d="M19.799 4.22997C19.508 3.93897 19.0424 3.93897 18.7514 4.22997L17.1509 5.8305C16.8599 6.12151 16.8599 6.58712 17.1509 6.87812C17.4128 7.16913 17.9075 7.16913 18.1985 6.87812L19.799 5.27759C20.09 4.98659 20.09 4.52098 19.799 4.22997Z" fill="#FEC658"/>
<path d="M3.99735 11.2437H1.75661C1.34921 11.2437 1 11.5929 1 12.0003C1 12.4077 1.32011 12.7569 1.75661 12.7569H3.99735C4.40476 12.7569 4.75397 12.4077 4.75397 12.0003C4.75397 11.5929 4.40476 11.2437 3.99735 11.2437Z" fill="#FEC658"/>
<path d="M6.84931 17.1216C6.58741 16.8306 6.0927 16.8306 5.80169 17.1216L4.20116 18.7221C3.91016 19.0131 3.91016 19.4787 4.20116 19.7697C4.49217 20.0607 4.95778 20.0607 5.24878 19.7697L6.84931 18.1692C7.14032 17.8782 7.14032 17.4126 6.84931 17.1216Z" fill="#FEC658"/>
<path d="M6.84931 5.8305L5.24878 4.22997C4.95778 3.93897 4.49217 3.93897 4.20116 4.22997C3.91016 4.52098 3.91016 4.98659 4.20116 5.27759L5.80169 6.87812C6.0927 7.16913 6.55831 7.16913 6.84931 6.87812C7.14032 6.58712 7.14032 6.12151 6.84931 5.8305Z" fill="#FEC658"/>
</g>
<defs>
<clipPath id="clip0">
<rect width="22" height="22" fill="white" transform="translate(1 1)"/>
</clipPath>
</defs>
</svg>
