<svg width="24" height="24" viewBox="0 0 24 24" fill="none" xmlns="http://www.w3.org/2000/svg">
<g clip-path="url(#clip0)">
<path fill-rule="evenodd" clip-rule="evenodd" d="M8.94669 19.9998C4.52868 19.9998 0.946777 16.4184 0.946777 11.9999C0.946777 7.58141 4.52868 4 8.94669 4C11.949 4 14.5618 5.65619 15.93 8.10197C16.262 8.04546 16.5991 7.99945 16.9466 7.99945C20.2605 7.99945 22.9468 10.6863 22.9468 14.0001C22.9468 17.313 20.2605 19.9998 16.9466 19.9998C15.5589 19.9998 10.5459 19.9998 8.94669 19.9998ZM16.9466 17.9996C19.1558 17.9996 20.9471 16.2084 20.9471 14.0001C20.9471 11.7909 19.1558 9.99968 16.9466 9.99968C16.1465 9.99968 15.4054 10.2402 14.7798 10.6453C14.1643 7.98695 11.7925 5.99973 8.94669 5.99973C5.63331 5.99973 2.947 8.68603 2.947 11.9999C2.947 15.3133 5.63331 17.9996 8.94669 17.9996C10.7554 17.9996 15.4369 17.9996 16.9466 17.9996Z" fill="#DEDEDE"/>
</g>
<defs>
<clipPath id="clip0">
<rect width="22" height="22" fill="white" transform="translate(1 1)"/>
</clipPath>
</defs>
</svg>
