<svg width="24" height="24" viewBox="0 0 24 24" fill="none" xmlns="http://www.w3.org/2000/svg">
<path fill-rule="evenodd" clip-rule="evenodd" d="M12.5 10C14.433 10 16 8.433 16 6.5C16 4.567 14.433 3 12.5 3C10.567 3 9 4.567 9 6.5C9 6.66976 9.01209 6.8367 9.03544 7H10.05C10.0172 6.83844 10 6.67123 10 6.5C10 5.11929 11.1193 4 12.5 4C13.8807 4 15 5.11929 15 6.5C15 7.88071 13.8807 9 12.5 9C12.3961 9 12.2937 8.99366 12.1932 8.98136C12.1307 8.99359 12.0661 9 12 9H10.0505H2.5C2.22386 9 2 9.22386 2 9.5C2 9.77614 2.22386 10 2.5 10H12.5Z" fill="#5DB3FB"/>
<path fill-rule="evenodd" clip-rule="evenodd" d="M17.5 13C19.433 13 21 14.567 21 16.5C21 18.433 19.433 20 17.5 20C15.567 20 14 18.433 14 16.5C14 16.3302 14.0121 16.1633 14.0354 16H15.05C15.0172 16.1616 15 16.3288 15 16.5C15 17.8807 16.1193 19 17.5 19C18.8807 19 20 17.8807 20 16.5C20 15.1193 18.8807 14 17.5 14C17.3961 14 17.2937 14.0063 17.1932 14.0186C17.1307 14.0064 17.0661 14 17 14H15.0505H2.5C2.22386 14 2 13.7761 2 13.5C2 13.2239 2.22386 13 2.5 13H17.5Z" fill="#5DB3FB"/>
<rect width="16" height="1" rx="0.5" transform="matrix(1 0 0 -1 2 12)" fill="#5DB3FB"/>
</svg>
