<svg width="24" height="24" viewBox="0 0 24 24" fill="none" xmlns="http://www.w3.org/2000/svg">
<g clip-path="url(#clip0)">
<path fill-rule="evenodd" clip-rule="evenodd" d="M21.3939 11.8006C22.0627 12.7502 22.4593 13.9045 22.4593 15.1542C22.4593 18.3821 19.8331 21 16.5928 21C15.236 21 10.3337 21 8.77053 21C4.45013 21 0.948242 17.5105 0.948242 13.2053C0.948242 8.90014 4.45013 5.41061 8.77053 5.41061C9.74941 5.41061 10.6843 5.59332 11.5478 5.92073C12.3472 3.63953 14.5197 2 17.0818 2C17.4509 2 17.8108 2.038 18.1609 2.10329C18.0968 2.38345 18.0597 2.67481 18.0597 2.97446C18.0597 5.12704 19.8106 6.87181 21.9703 6.87181C22.2715 6.87181 22.5634 6.83478 22.8451 6.77046C22.9101 7.11981 22.9482 7.47841 22.9482 7.84627C22.9478 9.37276 22.3556 10.7594 21.3939 11.8006ZM2.90357 13.2053C2.90357 16.4342 5.52974 19.0511 8.77004 19.0511C10.5381 19.0511 15.1162 19.0511 16.5923 19.0511C18.7525 19.0511 20.5035 17.3058 20.5035 15.1542C20.5035 13.0016 18.7525 11.2564 16.5923 11.2564C15.81 11.2564 15.0849 11.4912 14.4732 11.8854C13.8713 9.29529 11.5527 7.35904 8.77004 7.35904C5.52974 7.35904 2.90357 9.97643 2.90357 13.2053ZM12.4621 6.33732C12.4626 6.33732 12.4631 6.33732 12.4631 6.33732C12.4631 6.33732 12.4626 6.33732 12.4621 6.33732ZM16.207 4.04977C14.7891 4.37329 13.6767 5.46761 13.31 6.86352C14.2478 7.532 15.0326 8.39927 15.5983 9.40686C15.9229 9.35181 16.252 9.30698 16.5923 9.30698C17.8724 9.30698 19.0532 9.72112 20.0175 10.4135C20.437 9.93648 20.7435 9.35716 20.8907 8.71695C18.5178 8.27649 16.649 6.41576 16.207 4.04977Z" fill="#DEDEDE"/>
<path d="M17.0818 2C14.5197 2 12.3473 3.63953 11.5479 5.92073C11.9802 6.11556 12.9379 6.57688 13.31 6.86352C13.6768 5.46761 14.7891 4.3733 16.2071 4.04977C16.6491 6.41576 18.5179 8.27649 20.8908 8.71695C20.7436 9.35717 20.437 9.93648 20.0175 10.4135C20.3519 10.6745 21.0953 11.3175 21.3939 11.8006C22.3557 10.7594 22.9478 9.37276 22.9483 7.84627C22.9483 7.47841 22.9102 7.11981 22.8451 6.77046C22.5635 6.83478 22.2716 6.87181 21.9704 6.87181C19.8107 6.87181 18.0597 5.12704 18.0597 2.97446C18.0597 2.67481 18.0969 2.38345 18.161 2.10329C17.8109 2.038 17.451 2 17.0818 2Z" fill="#A58CF7"/>
</g>
<defs>
<clipPath id="clip0">
<rect width="22" height="22" fill="white" transform="translate(1 1)"/>
</clipPath>
</defs>
</svg>
