<svg width="165" height="34" fill="none" xmlns="http://www.w3.org/2000/svg"><g clip-path="url(#clip0)"><path d="M36 19c0 8.284-6.716 15-15 15-8.284 0-15-6.716-15-15 0-8.284 6.716-15 15-15 8.284 0 15 6.716 15 15z" fill="#0757E0"/><path d="M52.868 28h2.508V17.056h3.276V15.04h-3.276v-.936c0-1.12.588-1.68 1.764-1.68h1.512V10.36H57.02c-.32 0-.676.016-1.068.048a4.13 4.13 0 00-1.176.252c-.384.144-.744.4-1.08.768-.416.456-.66.972-.732 1.548a14.62 14.62 0 00-.096 1.608v.456H50.72v2.016h2.148V28zm8.046-15.084h2.508V10.48h-2.508v2.436zm0 15.084h2.508V15.04h-2.508V28zm5.86 0h2.544v-6.744c0-1.024.148-1.84.444-2.448.304-.616.704-1.06 1.2-1.332a3.362 3.362 0 011.644-.408c.688 0 1.248.14 1.68.42.432.28.764.648.996 1.104.232.456.388.952.468 1.488.088.528.132 1.044.132 1.548V28h2.544v-7.2c0-.4-.036-.864-.108-1.392a7.884 7.884 0 00-.408-1.62 5.102 5.102 0 00-.876-1.524c-.376-.472-.868-.852-1.476-1.14-.608-.288-1.36-.432-2.256-.432-.936 0-1.768.168-2.496.504-.72.336-1.316.8-1.788 1.392V15.04h-2.244V28zm18.198.36c2.064 0 3.62-.748 4.668-2.244V28h2.22v-7.98c0-.544-.025-1.052-.073-1.524a3.93 3.93 0 00-.384-1.344 3.73 3.73 0 00-1.896-1.872c-.856-.4-1.864-.6-3.023-.6-1.496 0-2.697.328-3.6.984-.904.656-1.513 1.54-1.825 2.652l2.34.72c.225-.72.62-1.24 1.189-1.56a3.748 3.748 0 011.872-.48c1.008 0 1.736.216 2.184.648.456.424.703 1.084.743 1.98-1.055.144-2.088.296-3.096.456a21.008 21.008 0 00-2.64.552c-1 .32-1.76.796-2.28 1.428-.52.632-.78 1.436-.78 2.412 0 .704.165 1.352.493 1.944.335.584.828 1.056 1.475 1.416.657.352 1.46.528 2.413.528zm.444-2.052c-.8 0-1.392-.184-1.776-.552a1.765 1.765 0 01-.564-1.308c0-.512.168-.916.504-1.212.344-.296.772-.532 1.284-.708.543-.16 1.183-.3 1.92-.42.743-.12 1.603-.252 2.58-.396a17.59 17.59 0 01-.06 1.02c-.032.376-.1.712-.204 1.008-.096.424-.3.832-.612 1.224-.305.392-.716.716-1.237.972-.511.248-1.124.372-1.836.372zM94.724 28h2.544v-6.744c0-1.024.148-1.84.444-2.448.304-.616.704-1.06 1.2-1.332a3.363 3.363 0 011.644-.408c.688 0 1.248.14 1.68.42.432.28.764.648.996 1.104.232.456.388.952.468 1.488.088.528.132 1.044.132 1.548V28h2.544v-7.2c0-.4-.036-.864-.108-1.392a7.884 7.884 0 00-.408-1.62 5.102 5.102 0 00-.876-1.524c-.376-.472-.868-.852-1.476-1.14-.608-.288-1.36-.432-2.256-.432-.936 0-1.768.168-2.496.504-.72.336-1.316.8-1.788 1.392V15.04h-2.244V28zm19.917.36c1.392 0 2.576-.336 3.552-1.008.976-.672 1.676-1.644 2.1-2.916l-2.544-.6c-.264.696-.648 1.232-1.152 1.608-.496.368-1.148.552-1.956.552-1.184 0-2.08-.412-2.688-1.236-.6-.824-.904-1.904-.912-3.24.008-1.296.3-2.364.876-3.204.584-.848 1.492-1.272 2.724-1.272.728 0 1.372.204 1.932.612.568.4.976.964 1.224 1.692l2.496-.72c-.32-1.216-.984-2.176-1.992-2.88-1-.712-2.208-1.068-3.624-1.068-1.304 0-2.428.292-3.372.876-.936.584-1.656 1.392-2.16 2.424-.504 1.024-.76 2.204-.768 3.54.008 1.312.256 2.484.744 3.516.496 1.032 1.208 1.844 2.136 2.436.936.592 2.064.888 3.384.888zm13.253 0c1.256 0 2.396-.316 3.42-.948 1.024-.64 1.788-1.54 2.292-2.7l-2.46-.78c-.656 1.376-1.78 2.064-3.372 2.064-1.088 0-1.944-.328-2.568-.984-.624-.656-.988-1.584-1.092-2.784h9.66c.088-1.552-.096-2.892-.552-4.02-.456-1.128-1.148-1.996-2.076-2.604-.928-.616-2.052-.924-3.372-.924-1.264 0-2.372.284-3.324.852-.952.568-1.696 1.372-2.232 2.412-.528 1.04-.792 2.268-.792 3.684 0 1.336.268 2.512.804 3.528a5.973 5.973 0 002.268 2.364c.976.56 2.108.84 3.396.84zm-.024-11.46c1.96 0 3.072 1.124 3.336 3.372h-7.032c.16-1.096.548-1.932 1.164-2.508.616-.576 1.46-.864 2.532-.864zm8.32 11.1h2.652v-2.652h-2.652V28zm6.183 0h2.556v-6.24l5.424 6.24h3.408l-5.928-6.48 5.376-6.48h-3.192l-5.088 6.24V10.72h-2.544L142.373 28z" fill="#142438"/><path d="M153.531 28h10.98v-2.244h-6.984l7.344-10.308v-.408h-10.668v2.244h6.684l-7.356 10.32V28z" fill="#142438"/></g><defs><clipPath id="clip0"><path fill="#fff" d="M0 0h164.871v34H0z"/></clipPath></defs></svg>