<svg width="52" height="52" viewBox="0 0 52 52" fill="none" xmlns="http://www.w3.org/2000/svg">
<path d="M15.6972 32.0266L22.1824 23.598L29.5798 29.4088L35.926 21.2181" stroke="white" stroke-opacity="0.7" stroke-width="1.5" stroke-linecap="round" stroke-linejoin="round"/>
<path d="M43.3234 13.2654C45.6236 13.2654 47.4882 11.4008 47.4882 9.10062C47.4882 6.80048 45.6236 4.93585 43.3234 4.93585C41.0233 4.93585 39.1587 6.80048 39.1587 9.10062C39.1587 11.4008 41.0233 13.2654 43.3234 13.2654Z" stroke="white" stroke-width="1.5" stroke-linecap="round" stroke-linejoin="round"/>
<path d="M32.3365 6.7605H16.5897C10.0649 6.7605 6.0191 11.3814 6.0191 17.9062V35.418C6.0191 41.9427 9.98553 46.5439 16.5897 46.5439H35.232C41.7567 46.5439 45.8025 41.9427 45.8025 35.418V20.1671" stroke="white" stroke-width="1.5" stroke-linecap="round" stroke-linejoin="round"/>
</svg>
