<svg width="52" height="52" viewBox="0 0 52 52" fill="none" xmlns="http://www.w3.org/2000/svg">
<path d="M15.6973 32.0267L22.1824 23.5982L29.5799 29.409L35.926 21.2183" stroke="#FE5000" stroke-width="1.5" stroke-linecap="round" stroke-linejoin="round"/>
<path d="M43.3235 13.2656C45.6236 13.2656 47.4882 11.4009 47.4882 9.1008C47.4882 6.80067 45.6236 4.93604 43.3235 4.93604C41.0233 4.93604 39.1587 6.80067 39.1587 9.1008C39.1587 11.4009 41.0233 13.2656 43.3235 13.2656Z" stroke="white" stroke-width="1.5" stroke-linecap="round" stroke-linejoin="round"/>
<path d="M32.3364 6.76074H16.5896C10.0648 6.76074 6.01904 11.3816 6.01904 17.9064V35.4183C6.01904 41.943 9.98547 46.5441 16.5896 46.5441H35.2319C41.7566 46.5441 45.8024 41.943 45.8024 35.4183V20.1673" stroke="white" stroke-width="1.5" stroke-linecap="round" stroke-linejoin="round"/>
</svg>
