<svg width="178" height="54" viewBox="0 0 178 54" fill="none" xmlns="http://www.w3.org/2000/svg">
<path d="M163.025 1H13.8546C13.4058 1 12.961 1.01 12.5062 1.016C11.522 1.02691 10.5398 1.10442 9.56606 1.248C8.6025 1.39122 7.66298 1.66576 6.77355 2.064C5.91056 2.45311 5.1105 2.9695 4.39991 3.596C3.71088 4.19767 3.12645 4.91005 2.67055 5.704C2.2286 6.47129 1.91843 7.30761 1.75301 8.178C1.5899 9.03533 1.5018 9.9053 1.48971 10.778C1.47575 11.178 1.47376 11.578 1.46777 11.978V42.026C1.46777 42.426 1.46777 42.826 1.48971 43.226C1.50179 44.0987 1.58989 44.9687 1.75301 45.826C1.91792 46.6972 2.22811 47.5342 2.67055 48.302C3.12762 49.0934 3.71348 49.8025 4.4039 50.4C5.11222 51.0295 5.91276 51.5462 6.77754 51.932C7.66699 52.331 8.60644 52.6069 9.57005 52.752C10.5439 52.8937 11.5261 52.9706 12.5102 52.982C12.9629 52.982 13.4098 52.996 13.8585 52.996H164.614C165.061 52.996 165.52 52.996 165.967 52.982C166.949 52.9712 167.929 52.8943 168.901 52.752C169.864 52.6049 170.803 52.3291 171.693 51.932C172.557 51.5462 173.357 51.0295 174.065 50.4C174.752 49.7994 175.338 49.0909 175.798 48.302C176.237 47.5336 176.544 46.6966 176.706 45.826C176.869 44.9685 176.96 44.0988 176.977 43.226C176.977 42.826 176.977 42.426 176.977 42.026C177.003 41.554 177.003 41.084 177.003 40.6V13.4C177.003 12.924 177.003 12.452 176.991 11.98C176.991 11.58 176.991 11.18 176.991 10.78C176.974 9.90723 176.883 9.03749 176.72 8.18C176.556 7.30925 176.247 6.47231 175.806 5.704C174.847 4.09251 173.412 2.82031 171.699 2.064C170.809 1.66766 169.87 1.3932 168.907 1.248C167.933 1.10423 166.951 1.02739 165.967 1.018C165.52 1.018 165.061 1.004 164.614 1.002H163.019L163.025 1Z" stroke="white"/>
<path d="M63.978 20.9502H63.0454V19.207H57.9429V20.9551H57.0054L57.0005 18.4404H57.5815C57.8875 18.0954 58.13 17.6331 58.3091 17.0537C58.4914 16.471 58.6053 15.833 58.6509 15.1396L58.8071 12.0977H63.0601V18.4404H63.9878L63.978 20.9502ZM58.6509 18.4404H62.1177V12.8691H59.7104L59.6079 14.959C59.5656 15.776 59.4565 16.4727 59.2808 17.0488C59.1082 17.625 58.8983 18.0889 58.6509 18.4404Z" fill="white"/>
<path d="M70.4526 15.8818C70.4526 16.5785 70.3354 17.1872 70.1011 17.708C69.8667 18.2256 69.5347 18.6211 69.105 18.8945C68.6753 19.168 68.174 19.3047 67.6011 19.3047C67.0412 19.3047 66.5448 19.168 66.1118 18.8945C65.6789 18.6178 65.342 18.2256 65.1011 17.7178C64.8634 17.2067 64.7414 16.6159 64.7349 15.9453V15.4326C64.7349 14.749 64.8537 14.1452 65.0913 13.6211C65.3289 13.097 65.6642 12.6966 66.0972 12.4199C66.5334 12.14 67.0314 12 67.5913 12C68.161 12 68.6623 12.1383 69.0952 12.415C69.5314 12.6885 69.8667 13.0872 70.1011 13.6113C70.3354 14.1322 70.4526 14.7393 70.4526 15.4326V15.8818ZM69.52 15.4229C69.52 14.5798 69.3507 13.9336 69.0122 13.4844C68.6737 13.0319 68.2 12.8057 67.5913 12.8057C66.9989 12.8057 66.5317 13.0319 66.1899 13.4844C65.8514 13.9336 65.6772 14.5586 65.6675 15.3594V15.8818C65.6675 16.6989 65.8384 17.3418 66.1802 17.8105C66.5252 18.276 66.9989 18.5088 67.6011 18.5088C68.2065 18.5088 68.6753 18.2891 69.0073 17.8496C69.3394 17.4069 69.5103 16.7738 69.52 15.9502V15.4229Z" fill="white"/>
<path d="M77.0884 16.9512C77.0005 17.7031 76.7222 18.2842 76.2534 18.6943C75.7879 19.1012 75.1678 19.3047 74.3931 19.3047C73.5532 19.3047 72.8794 19.0036 72.3716 18.4014C71.867 17.7992 71.6147 16.9935 71.6147 15.9844V15.3008C71.6147 14.64 71.7319 14.0589 71.9663 13.5576C72.2039 13.0563 72.5392 12.6722 72.9722 12.4053C73.4051 12.1351 73.9064 12 74.4761 12C75.2313 12 75.8368 12.2116 76.2925 12.6348C76.7482 13.0547 77.0135 13.6374 77.0884 14.3828H76.146C76.0646 13.8164 75.8872 13.4062 75.6138 13.1523C75.3436 12.8984 74.9644 12.7715 74.4761 12.7715C73.8771 12.7715 73.4067 12.9928 73.0649 13.4355C72.7264 13.8783 72.5571 14.5081 72.5571 15.3252V16.0137C72.5571 16.7852 72.7183 17.3988 73.0405 17.8545C73.3628 18.3102 73.8136 18.5381 74.3931 18.5381C74.9139 18.5381 75.3127 18.4209 75.5894 18.1865C75.8693 17.9489 76.0548 17.5371 76.146 16.9512H77.0884Z" fill="white"/>
<path d="M83.1382 12.8691H80.853V19.207H79.9204V12.8691H77.6401V12.0977H83.1382V12.8691Z" fill="white"/>
<path d="M86.6343 16.2236L88.27 12.0977H89.3589L86.8442 18.0205C86.675 18.3981 86.5171 18.6667 86.3706 18.8262C86.2241 18.9824 86.0516 19.1029 85.853 19.1875C85.6577 19.2689 85.4119 19.3096 85.1157 19.3096C84.8586 19.3096 84.6942 19.2949 84.6226 19.2656L84.6519 18.5234L85.0962 18.543C85.438 18.543 85.6919 18.3786 85.8579 18.0498L85.98 17.7959L86.1655 17.3613L83.7437 12.0977H84.7935L86.6343 16.2236Z" fill="white"/>
<path d="M95.9116 19.207H94.9692V12.8691H91.4634V19.207H90.5259V12.0977H95.9116V19.207Z" fill="white"/>
<path d="M103.084 19.207H102.142V15.9209H98.5581V19.207H97.6206V12.0977H98.5581V15.1543H102.142V12.0977H103.084V19.207Z" fill="white"/>
<path d="M110.218 15.8818C110.218 16.5785 110.101 17.1872 109.867 17.708C109.632 18.2256 109.3 18.6211 108.871 18.8945C108.441 19.168 107.94 19.3047 107.367 19.3047C106.807 19.3047 106.31 19.168 105.877 18.8945C105.444 18.6178 105.108 18.2256 104.867 17.7178C104.629 17.2067 104.507 16.6159 104.5 15.9453V15.4326C104.5 14.749 104.619 14.1452 104.857 13.6211C105.095 13.097 105.43 12.6966 105.863 12.4199C106.299 12.14 106.797 12 107.357 12C107.927 12 108.428 12.1383 108.861 12.415C109.297 12.6885 109.632 13.0872 109.867 13.6113C110.101 14.1322 110.218 14.7393 110.218 15.4326V15.8818ZM109.286 15.4229C109.286 14.5798 109.116 13.9336 108.778 13.4844C108.439 13.0319 107.966 12.8057 107.357 12.8057C106.764 12.8057 106.297 13.0319 105.956 13.4844C105.617 13.9336 105.443 14.5586 105.433 15.3594V15.8818C105.433 16.6989 105.604 17.3418 105.946 17.8105C106.291 18.276 106.764 18.5088 107.367 18.5088C107.972 18.5088 108.441 18.2891 108.773 17.8496C109.105 17.4069 109.276 16.7738 109.286 15.9502V15.4229Z" fill="white"/>
<path d="M119.569 19.207H118.626V15.9209H115.042V19.207H114.105V12.0977H115.042V15.1543H118.626V12.0977H119.569V19.207Z" fill="white"/>
<path d="M125.248 17.3516H122.269L121.6 19.207H120.633L123.348 12.0977H124.168L126.888 19.207H125.926L125.248 17.3516ZM122.552 16.5801H124.969L123.758 13.2549L122.552 16.5801Z" fill="white"/>
<path d="M45.0791 26.9781C45.0937 25.868 45.3886 24.7797 45.9362 23.8148C46.4838 22.8499 47.2663 22.0398 48.2107 21.4601C47.6096 20.6033 46.8181 19.8983 45.8987 19.4009C44.9793 18.9035 43.9571 18.6273 42.9129 18.5941C40.6808 18.3601 38.5246 19.9301 37.3797 19.9301C36.2348 19.9301 34.4695 18.6181 32.5925 18.6561C31.374 18.6951 30.1862 19.0494 29.1446 19.6848C28.1031 20.3202 27.2431 21.2149 26.6485 22.2821C24.0773 26.7321 25.9962 33.2721 28.4576 36.8681C29.6903 38.6301 31.1284 40.5961 33.0134 40.5261C34.8565 40.4501 35.5446 39.3501 37.7706 39.3501C39.9967 39.3501 40.621 40.5261 42.5438 40.4821C44.5225 40.4501 45.7692 38.7121 46.956 36.9341C47.8411 35.6796 48.5224 34.2924 48.9746 32.8241C47.8265 32.3398 46.8462 31.527 46.1562 30.4873C45.4662 29.4475 45.0971 28.227 45.095 26.9781H45.0791Z" fill="white"/>
<path d="M41.4428 15.8841C42.5211 14.5911 43.053 12.9267 42.9248 11.2461C41.279 11.4172 39.7575 12.2025 38.6622 13.4461C38.1281 14.0535 37.7189 14.7607 37.4581 15.5271C37.1972 16.2935 37.0899 17.104 37.1423 17.9121C37.9653 17.9214 38.7797 17.7437 39.5244 17.3925C40.2692 17.0413 40.925 16.5256 41.4428 15.8841Z" fill="white"/>
<path d="M67.1959 36.848H61.1461L59.694 41.138H57.1309L62.8615 25.27H65.5243L71.255 41.138H68.648L67.1959 36.848ZM61.7724 34.868H66.5596L64.1959 27.906H64.1301L61.7724 34.868Z" fill="white"/>
<path d="M83.6298 35.46C83.6298 39.06 81.7049 41.366 78.8007 41.366C78.0657 41.4048 77.3347 41.2355 76.691 40.8777C76.0474 40.5198 75.517 39.9877 75.1605 39.342H75.1046V45.072H72.729V29.672H75.0288V31.596H75.0727C75.4454 30.9533 75.9847 30.4237 76.6333 30.0635C77.2819 29.7033 78.0157 29.5258 78.7568 29.55C81.687 29.554 83.6298 31.876 83.6298 35.46ZM81.1883 35.46C81.1883 33.118 79.9776 31.578 78.1305 31.578C76.3154 31.578 75.0947 33.15 75.0947 35.46C75.0947 37.77 76.3154 39.352 78.1305 39.352C79.9776 39.352 81.1883 37.824 81.1883 35.46Z" fill="white"/>
<path d="M96.3654 35.46C96.3654 39.06 94.4406 41.366 91.5364 41.366C90.8014 41.4048 90.0703 41.2355 89.4267 40.8777C88.783 40.5198 88.2527 39.9877 87.8961 39.342H87.8403V45.072H85.4727V29.672H87.7725V31.596H87.8164C88.1891 30.9533 88.7283 30.4237 89.3769 30.0635C90.0256 29.7033 90.7594 29.5258 91.5005 29.55C94.4286 29.554 96.3654 31.876 96.3654 35.46ZM93.9239 35.46C93.9239 33.118 92.7132 31.578 90.8662 31.578C89.051 31.578 87.8303 33.15 87.8303 35.46C87.8303 37.77 89.051 39.352 90.8662 39.352C92.7132 39.354 93.9239 37.824 93.9239 35.46Z" fill="white"/>
<path d="M104.783 36.718C104.959 38.292 106.488 39.318 108.573 39.318C110.567 39.318 112.016 38.284 112.016 36.866C112.016 35.634 111.148 34.896 109.091 34.392L107.035 33.896C104.121 33.192 102.768 31.83 102.768 29.618C102.768 26.88 105.162 25 108.543 25C111.898 25 114.198 26.88 114.274 29.618H111.88C111.736 28.034 110.428 27.078 108.513 27.078C106.598 27.078 105.29 28.046 105.29 29.452C105.29 30.574 106.125 31.234 108.172 31.74L109.921 32.17C113.178 32.94 114.529 34.248 114.529 36.57C114.529 39.538 112.165 41.398 108.403 41.398C104.883 41.398 102.507 39.582 102.354 36.712L104.783 36.718Z" fill="white"/>
<path d="M119.655 26.8359V29.5739H121.849V31.4539H119.655V37.8359C119.655 38.8359 120.096 39.2879 121.063 39.2879C121.325 39.2837 121.586 39.2657 121.845 39.2339V41.1039C121.41 41.1852 120.969 41.222 120.527 41.2139C118.185 41.2139 117.269 40.3339 117.269 38.0899V31.4639H115.588V29.5839H117.269V26.8359H119.655Z" fill="white"/>
<path d="M123.128 35.3901C123.066 34.6304 123.163 33.8662 123.411 33.1457C123.658 32.4252 124.052 31.764 124.568 31.2037C125.083 30.6434 125.709 30.1963 126.405 29.8905C127.101 29.5846 127.853 29.4268 128.613 29.4268C129.373 29.4268 130.125 29.5846 130.821 29.8905C131.518 30.1963 132.143 30.6434 132.658 31.2037C133.174 31.764 133.568 32.4252 133.816 33.1457C134.063 33.8662 134.16 34.6304 134.098 35.3901C134.16 36.1498 134.063 36.914 133.816 37.6345C133.568 38.355 133.174 39.0162 132.658 39.5765C132.143 40.1367 131.518 40.5839 130.821 40.8897C130.125 41.1955 129.373 41.3534 128.613 41.3534C127.853 41.3534 127.101 41.1955 126.405 40.8897C125.709 40.5839 125.083 40.1367 124.568 39.5765C124.052 39.0162 123.658 38.355 123.411 37.6345C123.163 36.914 123.066 36.1498 123.128 35.3901ZM131.685 35.3901C131.685 32.8921 130.54 31.4201 128.615 31.4201C126.69 31.4201 125.545 32.9061 125.545 35.3901C125.545 37.8741 126.69 39.3601 128.615 39.3601C130.54 39.3601 131.685 37.8981 131.685 35.3901Z" fill="white"/>
<path d="M136.063 29.6039H138.329V31.5739H138.385C138.539 30.9566 138.902 30.4116 139.41 30.0309C139.919 29.6501 140.543 29.457 141.177 29.4839C141.451 29.4828 141.724 29.5123 141.991 29.5719V31.7939C141.646 31.6883 141.285 31.6397 140.924 31.6499C140.58 31.636 140.236 31.6969 139.917 31.8283C139.599 31.9597 139.312 32.1586 139.077 32.4113C138.842 32.6641 138.664 32.9648 138.556 33.2928C138.447 33.6208 138.411 33.9684 138.449 34.3119V41.1739H136.073L136.063 29.6039Z" fill="white"/>
<path d="M152.932 37.7761C152.669 38.8717 152.019 39.8346 151.102 40.486C150.185 41.1374 149.063 41.4331 147.945 41.3181C147.185 41.3518 146.426 41.2196 145.722 40.9307C145.018 40.6418 144.384 40.203 143.866 39.6447C143.347 39.0864 142.955 38.4218 142.718 37.6969C142.48 36.972 142.402 36.2041 142.49 35.4461C142.49 31.8161 144.59 29.4641 147.845 29.4641C148.578 29.4404 149.307 29.5757 149.983 29.8609C150.658 30.146 151.265 30.5742 151.76 31.1161C152.255 31.658 152.627 32.3009 152.852 33.0006C153.076 33.7003 153.147 34.4404 153.059 35.1701V35.9841H144.881V36.1281C144.845 36.5545 144.899 36.984 145.04 37.3879C145.181 37.7918 145.407 38.161 145.701 38.471C145.996 38.781 146.352 39.0246 146.748 39.1858C147.143 39.3471 147.568 39.4221 147.995 39.4061C148.556 39.4589 149.118 39.3291 149.6 39.0358C150.081 38.7425 150.455 38.3014 150.666 37.7781L152.932 37.7761ZM144.903 34.3221H150.688C150.708 33.9388 150.65 33.5553 150.515 33.1958C150.381 32.8363 150.174 32.5085 149.908 32.2329C149.641 31.9573 149.321 31.7398 148.967 31.5941C148.613 31.4484 148.232 31.3775 147.849 31.3861C147.463 31.3829 147.08 31.4565 146.722 31.6027C146.364 31.7489 146.039 31.9647 145.765 32.2377C145.491 32.5107 145.273 32.8355 145.125 33.1932C144.977 33.551 144.901 33.9347 144.901 34.3221H144.903Z" fill="white"/>
</svg>
