<svg width="32" height="32" viewBox="0 0 32 32" fill="none" xmlns="http://www.w3.org/2000/svg">
<rect width="32" height="32" rx="4" fill="url(#paint0_linear_1315_4650)"/>
<path d="M21.2228 15.9862C21.2319 15.2872 21.4153 14.602 21.7559 13.9945C22.0966 13.3869 22.5832 12.8768 23.1706 12.5119C22.7968 11.9724 22.3045 11.5285 21.7326 11.2153C21.1607 10.9022 20.5249 10.7283 19.8755 10.7074C18.4872 10.56 17.146 11.5485 16.4339 11.5485C15.7218 11.5485 14.6238 10.7225 13.4564 10.7464C12.6985 10.7709 11.9597 10.9941 11.3118 11.3941C10.664 11.7942 10.1292 12.3575 9.75927 13.0294C8.16008 15.8313 9.35358 19.9491 10.8845 22.2132C11.6512 23.3226 12.5457 24.5605 13.7182 24.5164C14.8645 24.4685 15.2925 23.7759 16.6771 23.7759C18.0616 23.7759 18.45 24.5164 19.6459 24.4887C20.8767 24.4685 21.6521 23.3742 22.3902 22.2548C22.9408 21.4649 23.3645 20.5915 23.6458 19.667C22.9317 19.3621 22.322 18.8503 21.8928 18.1957C21.4636 17.541 21.234 16.7725 21.2327 15.9862H21.2228Z" fill="white"/>
<path d="M18.9612 9.00103C19.6319 8.1869 19.9627 7.13899 19.883 6.08081C18.8593 6.18857 17.913 6.683 17.2317 7.466C16.8995 7.84844 16.645 8.29372 16.4828 8.77626C16.3205 9.25881 16.2538 9.76913 16.2863 10.2779C16.7982 10.2838 17.3048 10.1719 17.768 9.95078C18.2312 9.72964 18.6392 9.40495 18.9612 9.00103Z" fill="white"/>
<defs>
<linearGradient id="paint0_linear_1315_4650" x1="21.8956" y1="10.2827" x2="-6.52698" y2="28.035" gradientUnits="userSpaceOnUse">
<stop stop-color="#F77248"/>
<stop offset="1" stop-color="#F2244B"/>
</linearGradient>
</defs>
</svg>
