<svg width="48" height="48" viewBox="0 0 48 48" fill="none" xmlns="http://www.w3.org/2000/svg">
<rect width="48" height="48" rx="11" fill="#F6F6F5"/>
<path fill-rule="evenodd" clip-rule="evenodd" d="M23.1072 13.8907C23.6557 12.7031 25.3443 12.7031 25.8928 13.8907L28.4889 19.5121L34.6444 20.2411C35.9428 20.3948 36.4681 22.0005 35.505 22.8901L30.9549 27.0928L32.1626 33.1638C32.4185 34.4501 31.0489 35.4384 29.9092 34.8012L24.5 31.7771L19.0908 34.8012C17.9511 35.4384 16.5815 34.4501 16.8374 33.1638L18.0451 27.0928L13.495 22.8901L14.0556 22.2831L13.495 22.8901C12.5319 22.0005 13.0572 20.3948 14.3556 20.2411L20.5111 19.5121L23.1072 13.8907ZM24.273 31.6502L24.2736 31.6505L24.273 31.6502ZM30.9038 26.8363C30.9039 26.8365 30.9039 26.8366 30.9039 26.8368L30.9038 26.8363ZM24.5 15.6445L22.2173 20.5873C21.9936 21.0718 21.5342 21.4047 21.005 21.4674L15.5956 22.108L19.594 25.8011L18.9936 26.4512L19.594 25.8011C19.9859 26.1631 20.1617 26.7028 20.0575 27.2265L18.9958 32.5633L23.7512 29.9046C24.2165 29.6445 24.7835 29.6445 25.2488 29.9046L30.0042 32.5633L28.9425 27.2265C28.8383 26.7028 29.0141 26.1631 29.406 25.8011L33.4044 22.108L27.995 21.4674C27.4658 21.4047 27.0064 21.0718 26.7827 20.5873L27.5878 20.2155L26.7827 20.5873L24.5 15.6445ZM30.2013 33.554C30.2013 33.5538 30.2012 33.5536 30.2012 33.5534L30.2013 33.554Z" fill="url(#paint0_linear_977_2629)"/>
<defs>
<linearGradient id="paint0_linear_977_2629" x1="28.7375" y1="20.0694" x2="8.8282" y2="33.0696" gradientUnits="userSpaceOnUse">
<stop stop-color="#F77248"/>
<stop offset="1" stop-color="#F2244B"/>
</linearGradient>
</defs>
</svg>
