<svg width="48" height="48" viewBox="0 0 48 48" fill="none" xmlns="http://www.w3.org/2000/svg">
<rect width="48" height="48" rx="11" fill="#F6F6F5"/>
<path fill-rule="evenodd" clip-rule="evenodd" d="M30.5807 14.7097C30.5807 13.2132 31.7938 12 33.2904 12C34.7869 12 36.0001 13.2132 36.0001 14.7097C36.0001 16.2062 34.7869 17.4194 33.2904 17.4194C31.7938 17.4194 30.5807 16.2062 30.5807 14.7097ZM33.2904 21.2904C31.7938 21.2904 30.5807 22.5035 30.5807 24.0001C30.5807 25.4966 31.7938 26.7097 33.2904 26.7097C34.7869 26.7097 36.0001 25.4966 36.0001 24.0001C36.0001 22.5035 34.7869 21.2904 33.2904 21.2904ZM12 33.2904C12 31.7939 13.2132 30.5807 14.7097 30.5807C16.2062 30.5807 17.4194 31.7939 17.4194 33.2904C17.4194 34.7869 16.2062 36.0001 14.7097 36.0001C13.2132 36.0001 12 34.7869 12 33.2904ZM24.0003 30.5807C22.5038 30.5807 21.2906 31.7939 21.2906 33.2904C21.2906 34.7869 22.5038 36.0001 24.0003 36.0001C25.4968 36.0001 26.71 34.7869 26.71 33.2904C26.71 31.7939 25.4968 30.5807 24.0003 30.5807ZM33.2904 30.5807C31.7938 30.5807 30.5807 31.7939 30.5807 33.2904C30.5807 34.7869 31.7938 36.0001 33.2904 36.0001C34.7869 36.0001 36.0001 34.7869 36.0001 33.2904C36.0001 31.7939 34.7869 30.5807 33.2904 30.5807ZM21.2906 24.0001C21.2906 22.5035 22.5038 21.2904 24.0003 21.2904C25.4968 21.2904 26.71 22.5035 26.71 24.0001C26.71 25.4966 25.4968 26.7097 24.0003 26.7097C22.5038 26.7097 21.2906 25.4966 21.2906 24.0001ZM14.7097 21.2904C13.2132 21.2904 12 22.5035 12 24.0001C12 25.4966 13.2132 26.7097 14.7097 26.7097C16.2062 26.7097 17.4194 25.4966 17.4194 24.0001C17.4194 22.5035 16.2062 21.2904 14.7097 21.2904ZM24.0003 12C22.5038 12 21.2906 13.2132 21.2906 14.7097C21.2906 16.2062 22.5038 17.4194 24.0003 17.4194C25.4968 17.4194 26.71 16.2062 26.71 14.7097C26.71 13.2132 25.4968 12 24.0003 12ZM12 14.7097C12 13.2132 13.2132 12 14.7097 12C16.2062 12 17.4194 13.2132 17.4194 14.7097C17.4194 16.2062 16.2062 17.4194 14.7097 17.4194C13.2132 17.4194 12 16.2062 12 14.7097Z" fill="url(#paint0_linear_1173_12760)"/>
<defs>
<linearGradient id="paint0_linear_1173_12760" x1="28.4217" y1="19.7121" x2="7.10471" y2="33.0263" gradientUnits="userSpaceOnUse">
<stop stop-color="#F77248"/>
<stop offset="1" stop-color="#F2244B"/>
</linearGradient>
</defs>
</svg>
