<svg width="48" height="48" viewBox="0 0 48 48" fill="none" xmlns="http://www.w3.org/2000/svg">
<rect width="48" height="48" rx="11" fill="#F6F6F5"/>
<path fill-rule="evenodd" clip-rule="evenodd" d="M14.7097 14.3226C14.4959 14.3226 14.3226 14.4959 14.3226 14.7097L14.3226 33.2903C14.3226 33.5041 14.4959 33.6774 14.7097 33.6774L33.2903 33.6774C33.5041 33.6774 33.6774 33.5041 33.6774 33.2903L33.6774 14.7097C33.6774 14.4959 33.5041 14.3226 33.2903 14.3226L14.7097 14.3226ZM12 14.7097C12 13.2132 13.2132 12 14.7097 12L33.2903 12C34.7868 12 36 13.2132 36 14.7097L36 33.2903C36 34.7868 34.7868 36 33.2903 36L14.7097 36C13.2132 36 12 34.7868 12 33.2903L12 14.7097Z" fill="url(#paint0_linear_1173_12693)"/>
<path fill-rule="evenodd" clip-rule="evenodd" d="M15.4839 15.129C15.2879 15.129 15.129 15.2879 15.129 15.4839L15.129 32.5161C15.129 32.7121 15.2879 32.871 15.4839 32.871L32.5161 32.871C32.7121 32.871 32.871 32.7121 32.871 32.5161L32.871 15.4839C32.871 15.2879 32.7121 15.129 32.5161 15.129L15.4839 15.129ZM13 15.4839C13 14.1121 14.1121 13 15.4839 13L32.5161 13C33.8879 13 35 14.1121 35 15.4839L35 32.5161C35 33.8879 33.8879 35 32.5161 35L15.4839 35C14.1121 35 13 33.8879 13 32.5161L13 15.4839Z" fill="url(#paint1_linear_1173_12693)"/>
<defs>
<linearGradient id="paint0_linear_1173_12693" x1="28.4217" y1="19.712" x2="7.10476" y2="33.0263" gradientUnits="userSpaceOnUse">
<stop stop-color="#F77248"/>
<stop offset="1" stop-color="#F2244B"/>
</linearGradient>
<linearGradient id="paint1_linear_1173_12693" x1="28.0532" y1="20.0694" x2="8.5127" y2="32.2741" gradientUnits="userSpaceOnUse">
<stop stop-color="#F77248"/>
<stop offset="1" stop-color="#F2244B"/>
</linearGradient>
</defs>
</svg>
