<svg width="48" height="48" viewBox="0 0 48 48" fill="none" xmlns="http://www.w3.org/2000/svg">
<rect width="48" height="48" rx="11" fill="#F6F6F5"/>
<path fill-rule="evenodd" clip-rule="evenodd" d="M23.1798 32.6933C28.71 32.6933 33.1932 28.2102 33.1932 22.68C33.1932 17.1498 28.71 12.6667 23.1798 12.6667C17.6496 12.6667 13.1665 17.1498 13.1665 22.68C13.1665 28.2102 17.6496 32.6933 23.1798 32.6933ZM35.1932 22.68C35.1932 29.3148 29.8146 34.6933 23.1798 34.6933C16.5451 34.6933 11.1665 29.3148 11.1665 22.68C11.1665 16.0452 16.5451 10.6667 23.1798 10.6667C29.8146 10.6667 35.1932 16.0452 35.1932 22.68Z" fill="url(#paint0_linear_946_1639)"/>
<path fill-rule="evenodd" clip-rule="evenodd" d="M34.9362 36.7055C34.9376 36.7056 34.9395 36.7057 34.9419 36.7058C34.9492 36.7061 34.9597 36.7064 34.9754 36.7065C34.9917 36.7067 35.0093 36.7067 35.0336 36.7067C35.261 36.7067 35.8661 36.6418 36.5748 35.5786L36.579 35.5725L36.5832 35.5664C37.1515 34.7407 37.1353 34.1196 36.9376 33.7369C36.7301 33.359 36.22 33 35.1936 33C34.518 33 34.0295 33.2705 33.7651 33.6376C33.5011 34.0043 33.4002 34.554 33.61 35.1937C33.848 35.9127 34.146 36.2716 34.3665 36.4535C34.5879 36.6361 34.7876 36.6868 34.9013 36.7007L34.923 36.7033L34.9362 36.7055ZM37.8202 33.2667C37.3802 32.4533 36.4469 32 35.1936 32C34.2469 32 33.4336 32.3867 32.9536 33.0533C32.4736 33.72 32.3669 34.6133 32.6602 35.5067C33.2336 37.24 34.2336 37.6267 34.7802 37.6933C34.8602 37.7067 34.9402 37.7067 35.0336 37.7067C35.6202 37.7067 36.5269 37.4533 37.4069 36.1333C38.1136 35.1067 38.2469 34.08 37.8202 33.2667Z" fill="url(#paint1_linear_946_1639)"/>
<defs>
<linearGradient id="paint0_linear_946_1639" x1="27.6065" y1="18.3873" x2="6.26583" y2="31.7163" gradientUnits="userSpaceOnUse">
<stop stop-color="#F77248"/>
<stop offset="1" stop-color="#F2244B"/>
</linearGradient>
<linearGradient id="paint1_linear_946_1639" x1="36.3059" y1="33.8338" x2="31.2937" y2="36.887" gradientUnits="userSpaceOnUse">
<stop stop-color="#F77248"/>
<stop offset="1" stop-color="#F2244B"/>
</linearGradient>
</defs>
</svg>
