<svg width="48" height="48" viewBox="0 0 48 48" fill="none" xmlns="http://www.w3.org/2000/svg">
<rect width="48" height="48" rx="11" fill="#F6F6F5"/>
<path d="M33.9998 18L32.0132 19.9867L28.0132 15.9867L29.9998 14C30.5598 13.44 31.2798 13.1733 31.9998 13.1733C32.7198 13.1733 33.4398 13.44 33.9998 14C35.1065 15.1067 35.1065 16.8933 33.9998 18Z" fill="url(#paint0_linear_977_2609)"/>
<path d="M31.0798 20.9333L16.6664 35.3333C15.5598 36.44 13.7731 36.44 12.6664 35.3333C11.5598 34.2267 11.5598 32.44 12.6664 31.3333L27.0798 16.9333L31.0798 20.9333Z" fill="url(#paint1_linear_977_2609)"/>
<path d="M21.2665 12.6667L21.8132 10.8133C21.8665 10.64 21.8132 10.4533 21.6932 10.32C21.5732 10.1867 21.3599 10.1333 21.1865 10.1867L19.3332 10.7333L17.4799 10.1867C17.3065 10.1333 17.1199 10.1867 16.9865 10.3067C16.8532 10.44 16.8132 10.6267 16.8665 10.8L17.3999 12.6667L16.8532 14.52C16.7999 14.6933 16.8532 14.88 16.9732 15.0133C17.1065 15.1467 17.2932 15.1867 17.4665 15.1333L19.3332 14.6L21.1865 15.1467C21.2399 15.16 21.2799 15.1733 21.3332 15.1733C21.4665 15.1733 21.5865 15.12 21.6932 15.0267C21.8265 14.8933 21.8665 14.7067 21.8132 14.5333L21.2665 12.6667Z" fill="url(#paint2_linear_977_2609)"/>
<path d="M15.9335 20.6667L16.4802 18.8133C16.5335 18.64 16.4802 18.4533 16.3602 18.32C16.2269 18.1867 16.0402 18.1467 15.8669 18.2L14.0002 18.7333L12.1469 18.1867C11.9735 18.1333 11.7869 18.1867 11.6535 18.3067C11.5202 18.44 11.4802 18.6267 11.5335 18.8L12.0669 20.6667L11.5202 22.52C11.4669 22.6933 11.5202 22.88 11.6402 23.0133C11.7735 23.1467 11.9602 23.1867 12.1335 23.1333L13.9869 22.5867L15.8402 23.1333C15.8802 23.1467 15.9335 23.1467 15.9869 23.1467C16.1202 23.1467 16.2402 23.0933 16.3469 23C16.4802 22.8667 16.5202 22.68 16.4669 22.5067L15.9335 20.6667Z" fill="url(#paint3_linear_977_2609)"/>
<path d="M35.9334 27.3333L36.4801 25.48C36.5334 25.3067 36.4801 25.12 36.3601 24.9867C36.2268 24.8533 36.0401 24.8133 35.8668 24.8667L34.0134 25.4133L32.1601 24.8667C31.9868 24.8133 31.8001 24.8667 31.6668 24.9867C31.5334 25.12 31.4934 25.3067 31.5468 25.48L32.0934 27.3333L31.5468 29.1867C31.4934 29.36 31.5468 29.5467 31.6668 29.68C31.8001 29.8133 31.9868 29.8533 32.1601 29.8L34.0134 29.2533L35.8668 29.8C35.9068 29.8133 35.9601 29.8133 36.0134 29.8133C36.1468 29.8133 36.2668 29.76 36.3734 29.6667C36.5068 29.5333 36.5468 29.3467 36.4934 29.1733L35.9334 27.3333Z" fill="url(#paint4_linear_977_2609)"/>
<defs>
<linearGradient id="paint0_linear_977_2609" x1="28.0038" y1="19.981" x2="34.8637" y2="13.2146" gradientUnits="userSpaceOnUse">
<stop stop-color="#F2244B"/>
<stop offset="1" stop-color="#F77248"/>
</linearGradient>
<linearGradient id="paint1_linear_977_2609" x1="11.8099" y1="36.1472" x2="31.1714" y2="17.0458" gradientUnits="userSpaceOnUse">
<stop stop-color="#F2244B"/>
<stop offset="1" stop-color="#F77248"/>
</linearGradient>
<linearGradient id="paint2_linear_977_2609" x1="16.8256" y1="15.1691" x2="21.8671" y2="10.2026" gradientUnits="userSpaceOnUse">
<stop stop-color="#F2244B"/>
<stop offset="1" stop-color="#F77248"/>
</linearGradient>
<linearGradient id="paint3_linear_977_2609" x1="11.4926" y1="23.152" x2="16.517" y2="18.1874" gradientUnits="userSpaceOnUse">
<stop stop-color="#F2244B"/>
<stop offset="1" stop-color="#F77248"/>
</linearGradient>
<linearGradient id="paint4_linear_977_2609" x1="31.517" y1="29.8187" x2="36.5303" y2="24.863" gradientUnits="userSpaceOnUse">
<stop stop-color="#F2244B"/>
<stop offset="1" stop-color="#F77248"/>
</linearGradient>
</defs>
</svg>
