<svg width="48" height="48" viewBox="0 0 48 48" fill="none" xmlns="http://www.w3.org/2000/svg">
<rect width="48" height="48" rx="11" fill="#F6F6F5"/>
<path fill-rule="evenodd" clip-rule="evenodd" d="M22.0977 11.6891C23.1868 10.7703 24.8132 10.7703 25.9023 11.6891L11.9865 20.2182M24 13.785L13.8889 22.3142V34.215H19.6667V28.6449C19.6667 27.1068 20.9601 25.8599 22.5556 25.8599H25.4444C27.0399 25.8599 28.3333 27.1068 28.3333 28.6449V34.215H34.1111V22.3142L24 13.785ZM11.9865 20.2182L22.0977 11.6891L11.9865 20.2182ZM25.9023 11.6891L36.0135 20.2183C36.6404 20.7471 37 21.5111 37 22.3142V34.215C37 35.7531 35.7066 37 34.1111 37H28.3333C26.7378 37 25.4444 35.7531 25.4444 34.215V28.6449H22.5556V34.215C22.5556 35.7531 21.2622 37 19.6667 37H13.8889C12.2934 37 11 35.7531 11 34.215V22.3142C11 21.5111 11.3596 20.7471 11.9865 20.2182" fill="url(#paint0_linear_1173_12586)"/>
<defs>
<linearGradient id="paint0_linear_1173_12586" x1="28.7902" y1="19.3547" x2="5.69683" y2="33.7785" gradientUnits="userSpaceOnUse">
<stop stop-color="#F77248"/>
<stop offset="1" stop-color="#F2244B"/>
</linearGradient>
</defs>
</svg>
