<svg width="2" height="219" viewBox="0 0 2 219" fill="none" xmlns="http://www.w3.org/2000/svg">
<path d="M0.5 5.06944C0.5 5.34559 0.723858 5.56944 1 5.56944C1.27614 5.56944 1.5 5.34559 1.5 5.06944L0.5 5.06944ZM1.5 13.1806C1.5 12.9044 1.27614 12.6806 1 12.6806C0.723858 12.6806 0.500001 12.9044 0.500001 13.1806L1.5 13.1806ZM0.500001 23.3194C0.500001 23.5956 0.723859 23.8194 1 23.8194C1.27614 23.8194 1.5 23.5956 1.5 23.3194L0.500001 23.3194ZM1.5 31.4306C1.5 31.1544 1.27614 30.9306 1 30.9306C0.723859 30.9306 0.500001 31.1544 0.500001 31.4306L1.5 31.4306ZM0.500002 41.5694C0.500002 41.8456 0.723859 42.0694 1 42.0694C1.27614 42.0694 1.5 41.8456 1.5 41.5694L0.500002 41.5694ZM1.5 49.6805C1.5 49.4044 1.27614 49.1805 1 49.1805C0.72386 49.1805 0.500002 49.4044 0.500002 49.6805L1.5 49.6805ZM0.500003 59.8194C0.500003 60.0956 0.72386 60.3194 1 60.3194C1.27615 60.3194 1.5 60.0956 1.5 59.8194L0.500003 59.8194ZM1.5 67.9306C1.5 67.6544 1.27615 67.4306 1 67.4306C0.723861 67.4306 0.500003 67.6544 0.500003 67.9306L1.5 67.9306ZM0.500003 78.0694C0.500003 78.3456 0.723861 78.5694 1 78.5694C1.27615 78.5694 1.5 78.3456 1.5 78.0694L0.500003 78.0694ZM1.5 86.1806C1.5 85.9044 1.27615 85.6806 1 85.6806C0.723861 85.6806 0.500004 85.9044 0.500004 86.1806L1.5 86.1806ZM0.500004 96.3194C0.500004 96.5956 0.723862 96.8194 1 96.8194C1.27615 96.8194 1.5 96.5956 1.5 96.3194L0.500004 96.3194ZM1.5 104.431C1.5 104.154 1.27615 103.931 1 103.931C0.723862 103.931 0.500005 104.154 0.500005 104.431L1.5 104.431ZM0.500005 114.569C0.500005 114.846 0.723863 115.069 1.00001 115.069C1.27615 115.069 1.50001 114.846 1.50001 114.569L0.500005 114.569ZM1.50001 122.681C1.50001 122.404 1.27615 122.181 1.00001 122.181C0.723863 122.181 0.500005 122.404 0.500005 122.681L1.50001 122.681ZM0.500006 132.819C0.500006 133.096 0.723863 133.319 1.00001 133.319C1.27615 133.319 1.50001 133.096 1.50001 132.819L0.500006 132.819ZM1.50001 140.931C1.50001 140.654 1.27615 140.431 1.00001 140.431C0.723864 140.431 0.500006 140.654 0.500006 140.931L1.50001 140.931ZM0.500007 151.069C0.500007 151.346 0.723864 151.569 1.00001 151.569C1.27615 151.569 1.50001 151.346 1.50001 151.069L0.500007 151.069ZM1.50001 159.181C1.50001 158.904 1.27615 158.681 1.00001 158.681C0.723865 158.681 0.500007 158.904 0.500007 159.181L1.50001 159.181ZM0.500007 169.319C0.500007 169.596 0.723865 169.819 1.00001 169.819C1.27615 169.819 1.50001 169.596 1.50001 169.319L0.500007 169.319ZM1.50001 177.431C1.50001 177.154 1.27615 176.931 1.00001 176.931C0.723865 176.931 0.500008 177.154 0.500008 177.431L1.50001 177.431ZM0.500008 187.569C0.500008 187.846 0.723866 188.069 1.00001 188.069C1.27615 188.069 1.50001 187.846 1.50001 187.569L0.500008 187.569ZM1.50001 195.681C1.50001 195.404 1.27615 195.181 1.00001 195.181C0.723866 195.181 0.500009 195.404 0.500009 195.681L1.50001 195.681ZM0.500009 205.819C0.500009 206.096 0.723867 206.319 1.00001 206.319C1.27615 206.319 1.50001 206.096 1.50001 205.819L0.500009 205.819ZM1.50001 213.931C1.50001 213.654 1.27615 213.431 1.00001 213.431C0.723867 213.431 0.500009 213.654 0.500009 213.931L1.50001 213.931ZM0.5 2.18557e-08L0.5 5.06944L1.5 5.06944L1.5 -2.18557e-08L0.5 2.18557e-08ZM0.500001 13.1806L0.500001 23.3194L1.5 23.3194L1.5 13.1806L0.500001 13.1806ZM0.500001 31.4306L0.500002 41.5694L1.5 41.5694L1.5 31.4306L0.500001 31.4306ZM0.500002 49.6805L0.500003 59.8194L1.5 59.8194L1.5 49.6805L0.500002 49.6805ZM0.500003 67.9306L0.500003 78.0694L1.5 78.0694L1.5 67.9306L0.500003 67.9306ZM0.500004 86.1806L0.500004 96.3194L1.5 96.3194L1.5 86.1806L0.500004 86.1806ZM0.500005 104.431L0.500005 114.569L1.50001 114.569L1.5 104.431L0.500005 104.431ZM0.500005 122.681L0.500006 132.819L1.50001 132.819L1.50001 122.681L0.500005 122.681ZM0.500006 140.931L0.500007 151.069L1.50001 151.069L1.50001 140.931L0.500006 140.931ZM0.500007 159.181L0.500007 169.319L1.50001 169.319L1.50001 159.181L0.500007 159.181ZM0.500008 177.431L0.500008 187.569L1.50001 187.569L1.50001 177.431L0.500008 177.431ZM0.500009 195.681L0.500009 205.819L1.50001 205.819L1.50001 195.681L0.500009 195.681ZM0.500009 213.931L0.50001 219L1.50001 219L1.50001 213.931L0.500009 213.931Z" fill="#21212B"/>
</svg>
