<svg width="72" height="72" viewBox="0 0 72 72" fill="none" xmlns="http://www.w3.org/2000/svg">
<g clip-path="url(#clip0_946_1742)">
<path d="M36.9105 12.5289C37.2789 16.1506 36.9504 20.4632 35.474 23.9547L35.7392 24.1094C35.834 24.1079 35.9314 24.1094 36.0265 24.1094C45.6357 24.1094 53.4195 31.8932 53.4195 41.5024C53.4195 43.8628 52.9459 46.1235 52.0934 48.1767L60.9557 56.3317C63.5401 51.9938 65.0221 46.9151 65.0221 41.5024C65.0221 25.7883 52.5107 13.0014 36.9105 12.5289ZM24.9543 14.6947C14.4266 19.0474 7.00879 29.4081 7.00879 41.5024C7.00879 52.9312 13.6403 62.8095 23.2525 67.5366V53.3261C22.1373 52.1211 21.1872 50.765 20.4458 49.2817C18.4773 45.8028 17.1875 40.3499 17.197 34.585C17.2091 27.3304 19.0802 19.6958 24.9543 14.6947Z" fill="black"/>
<path fill-rule="evenodd" clip-rule="evenodd" d="M25.0187 51.7936C19.132 45.137 18.8464 37.6998 20.4778 33.4409C23.5522 25.4148 34.6949 21.7463 36.3718 9.75183C36.8148 39.5524 22.0889 29.4187 25.0187 51.7936Z" fill="#A7A09A"/>
<path fill-rule="evenodd" clip-rule="evenodd" d="M18.8098 33.3449C17.8684 14.8879 33.1499 17.1906 35.1298 1.41443C37.7208 20.3981 20.8017 22.4517 18.8098 33.3449Z" fill="#A7A09A"/>
<path fill-rule="evenodd" clip-rule="evenodd" d="M25.0187 50.3792C19.132 43.7226 18.8464 36.2854 20.4778 32.0265C23.5522 24.0004 34.6949 20.3319 36.3718 8.3374C36.8148 38.138 22.0889 28.0043 25.0187 50.3792Z" fill="#02AEF0"/>
<path fill-rule="evenodd" clip-rule="evenodd" d="M18.8098 31.9305C17.8684 13.4734 33.1499 15.7762 35.1298 0C37.7208 18.9837 20.8017 21.0373 18.8098 31.9305Z" fill="#90D6F7"/>
<path d="M28.7722 56.4416C28.7723 56.686 28.7242 56.928 28.6307 57.1538C28.5373 57.3796 28.4003 57.5848 28.2275 57.7576C28.0547 57.9304 27.8496 58.0675 27.6238 58.1611C27.3981 58.2546 27.1561 58.3028 26.9117 58.3028C26.6673 58.3028 26.4254 58.2546 26.1996 58.1611C25.9738 58.0675 25.7687 57.9304 25.5959 57.7576C25.4232 57.5848 25.2861 57.3796 25.1927 57.1538C25.0992 56.928 25.0512 56.686 25.0513 56.4416C25.0512 56.1972 25.0992 55.9552 25.1927 55.7294C25.2861 55.5036 25.4232 55.2984 25.5959 55.1256C25.7687 54.9528 25.9738 54.8157 26.1996 54.7221C26.4254 54.6286 26.6673 54.5804 26.9117 54.5804C27.1561 54.5804 27.3981 54.6286 27.6238 54.7221C27.8496 54.8157 28.0547 54.9528 28.2275 55.1256C28.4003 55.2984 28.5373 55.5036 28.6307 55.7294C28.7242 55.9552 28.7723 56.1972 28.7722 56.4416Z" fill="#A7A09A"/>
<path d="M28.7722 61.1616C28.7723 61.4059 28.7242 61.6479 28.6307 61.8738C28.5373 62.0996 28.4003 62.3047 28.2275 62.4776C28.0547 62.6504 27.8496 62.7875 27.6238 62.881C27.3981 62.9746 27.1561 63.0227 26.9117 63.0227C26.6673 63.0227 26.4254 62.9746 26.1996 62.881C25.9738 62.7875 25.7687 62.6504 25.5959 62.4776C25.4232 62.3047 25.2861 62.0996 25.1927 61.8738C25.0992 61.6479 25.0512 61.4059 25.0513 61.1616C25.0512 60.9172 25.0992 60.6752 25.1927 60.4494C25.2861 60.2236 25.4232 60.0184 25.5959 59.8456C25.7687 59.6727 25.9738 59.5356 26.1996 59.4421C26.4254 59.3486 26.6673 59.3004 26.9117 59.3004C27.1561 59.3004 27.3981 59.3486 27.6238 59.4421C27.8496 59.5356 28.0547 59.6727 28.2275 59.8456C28.4003 60.0184 28.5373 60.2236 28.6307 60.4494C28.7242 60.6752 28.7723 60.9172 28.7722 61.1616Z" fill="#A7A09A"/>
<path d="M28.7722 65.8815C28.7723 66.1259 28.7242 66.3679 28.6307 66.5937C28.5373 66.8195 28.4003 67.0247 28.2275 67.1975C28.0547 67.3704 27.8496 67.5075 27.6238 67.601C27.3981 67.6946 27.1561 67.7427 26.9117 67.7427C26.6673 67.7427 26.4254 67.6946 26.1996 67.601C25.9738 67.5075 25.7687 67.3704 25.5959 67.1975C25.4232 67.0247 25.2861 66.8195 25.1927 66.5937C25.0992 66.3679 25.0512 66.1259 25.0513 65.8815C25.0512 65.6372 25.0992 65.3952 25.1927 65.1694C25.2861 64.9436 25.4232 64.7384 25.5959 64.5655C25.7687 64.3927 25.9738 64.2556 26.1996 64.1621C26.4254 64.0685 26.6673 64.0204 26.9117 64.0204C27.1561 64.0204 27.3981 64.0685 27.6238 64.1621C27.8496 64.2556 28.0547 64.3927 28.2275 64.5655C28.4003 64.7384 28.5373 64.9436 28.6307 65.1694C28.7242 65.3952 28.7723 65.6372 28.7722 65.8815Z" fill="#A7A09A"/>
<path d="M33.4919 56.4416C33.492 56.686 33.4439 56.928 33.3505 57.1538C33.257 57.3796 33.12 57.5848 32.9472 57.7576C32.7745 57.9304 32.5693 58.0675 32.3436 58.1611C32.1178 58.2546 31.8758 58.3028 31.6314 58.3028C31.3871 58.3028 31.1451 58.2546 30.9193 58.1611C30.6936 58.0675 30.4884 57.9304 30.3157 57.7576C30.1429 57.5848 30.0059 57.3796 29.9124 57.1538C29.819 56.928 29.7709 56.686 29.771 56.4416C29.7709 56.1972 29.819 55.9552 29.9124 55.7294C30.0059 55.5036 30.1429 55.2984 30.3157 55.1256C30.4884 54.9528 30.6936 54.8157 30.9193 54.7221C31.1451 54.6286 31.3871 54.5804 31.6314 54.5804C31.8758 54.5804 32.1178 54.6286 32.3436 54.7221C32.5693 54.8157 32.7745 54.9528 32.9472 55.1256C33.12 55.2984 33.257 55.5036 33.3505 55.7294C33.4439 55.9552 33.492 56.1972 33.4919 56.4416Z" fill="#A7A09A"/>
<path d="M33.4919 61.1616C33.492 61.4059 33.4439 61.6479 33.3505 61.8738C33.257 62.0996 33.12 62.3047 32.9472 62.4776C32.7745 62.6504 32.5693 62.7875 32.3436 62.881C32.1178 62.9746 31.8758 63.0227 31.6314 63.0227C31.3871 63.0227 31.1451 62.9746 30.9193 62.881C30.6936 62.7875 30.4884 62.6504 30.3157 62.4776C30.1429 62.3047 30.0059 62.0996 29.9124 61.8738C29.819 61.6479 29.7709 61.4059 29.771 61.1616C29.7709 60.9172 29.819 60.6752 29.9124 60.4494C30.0059 60.2236 30.1429 60.0184 30.3157 59.8456C30.4884 59.6727 30.6936 59.5356 30.9193 59.4421C31.1451 59.3486 31.3871 59.3004 31.6314 59.3004C31.8758 59.3004 32.1178 59.3486 32.3436 59.4421C32.5693 59.5356 32.7745 59.6727 32.9472 59.8456C33.12 60.0184 33.257 60.2236 33.3505 60.4494C33.4439 60.6752 33.492 60.9172 33.4919 61.1616Z" fill="#A7A09A"/>
<path d="M33.4919 65.8815C33.492 66.1259 33.4439 66.3679 33.3505 66.5937C33.257 66.8195 33.12 67.0247 32.9472 67.1975C32.7745 67.3704 32.5693 67.5075 32.3436 67.601C32.1178 67.6946 31.8758 67.7427 31.6314 67.7427C31.3871 67.7427 31.1451 67.6946 30.9193 67.601C30.6936 67.5075 30.4884 67.3704 30.3157 67.1975C30.1429 67.0247 30.0059 66.8195 29.9124 66.5937C29.819 66.3679 29.7709 66.1259 29.771 65.8815C29.7709 65.6372 29.819 65.3952 29.9124 65.1694C30.0059 64.9436 30.1429 64.7384 30.3157 64.5655C30.4884 64.3927 30.6936 64.2556 30.9193 64.1621C31.1451 64.0685 31.3871 64.0204 31.6314 64.0204C31.8758 64.0204 32.1178 64.0685 32.3436 64.1621C32.5693 64.2556 32.7745 64.3927 32.9472 64.5655C33.12 64.7384 33.257 64.9436 33.3505 65.1694C33.4439 65.3952 33.492 65.6372 33.4919 65.8815Z" fill="#A7A09A"/>
<path d="M38.2121 56.4416C38.2122 56.686 38.1641 56.928 38.0707 57.1538C37.9772 57.3796 37.8402 57.5848 37.6674 57.7576C37.4947 57.9304 37.2896 58.0675 37.0638 58.1611C36.838 58.2546 36.596 58.3028 36.3517 58.3028C36.1073 58.3028 35.8653 58.2546 35.6395 58.1611C35.4138 58.0675 35.2086 57.9304 35.0359 57.7576C34.8631 57.5848 34.7261 57.3796 34.6326 57.1538C34.5392 56.928 34.4911 56.686 34.4912 56.4416C34.4911 56.1972 34.5392 55.9552 34.6326 55.7294C34.7261 55.5036 34.8631 55.2984 35.0359 55.1256C35.2086 54.9528 35.4138 54.8157 35.6395 54.7221C35.8653 54.6286 36.1073 54.5804 36.3517 54.5804C36.596 54.5804 36.838 54.6286 37.0638 54.7221C37.2896 54.8157 37.4947 54.9528 37.6674 55.1256C37.8402 55.2984 37.9772 55.5036 38.0707 55.7294C38.1641 55.9552 38.2122 56.1972 38.2121 56.4416Z" fill="#A7A09A"/>
<path d="M38.2121 61.1616C38.2122 61.4059 38.1641 61.6479 38.0707 61.8738C37.9772 62.0996 37.8402 62.3047 37.6674 62.4776C37.4947 62.6504 37.2896 62.7875 37.0638 62.881C36.838 62.9746 36.596 63.0227 36.3517 63.0227C36.1073 63.0227 35.8653 62.9746 35.6395 62.881C35.4138 62.7875 35.2086 62.6504 35.0359 62.4776C34.8631 62.3047 34.7261 62.0996 34.6326 61.8738C34.5392 61.6479 34.4911 61.4059 34.4912 61.1616C34.4911 60.9172 34.5392 60.6752 34.6326 60.4494C34.7261 60.2236 34.8631 60.0184 35.0359 59.8456C35.2086 59.6727 35.4138 59.5356 35.6395 59.4421C35.8653 59.3486 36.1073 59.3004 36.3517 59.3004C36.596 59.3004 36.838 59.3486 37.0638 59.4421C37.2896 59.5356 37.4947 59.6727 37.6674 59.8456C37.8402 60.0184 37.9772 60.2236 38.0707 60.4494C38.1641 60.6752 38.2122 60.9172 38.2121 61.1616Z" fill="#A7A09A"/>
<path d="M38.2121 65.8815C38.2122 66.1259 38.1641 66.3679 38.0707 66.5937C37.9772 66.8195 37.8402 67.0247 37.6674 67.1975C37.4947 67.3704 37.2896 67.5075 37.0638 67.601C36.838 67.6946 36.596 67.7427 36.3517 67.7427C36.1073 67.7427 35.8653 67.6946 35.6395 67.601C35.4138 67.5075 35.2086 67.3704 35.0359 67.1975C34.8631 67.0247 34.7261 66.8195 34.6326 66.5937C34.5392 66.3679 34.4911 66.1259 34.4912 65.8815C34.4911 65.6372 34.5392 65.3952 34.6326 65.1694C34.7261 64.9436 34.8631 64.7384 35.0359 64.5655C35.2086 64.3927 35.4138 64.2556 35.6395 64.1621C35.8653 64.0685 36.1073 64.0204 36.3517 64.0204C36.596 64.0204 36.838 64.0685 37.0638 64.1621C37.2896 64.2556 37.4947 64.3927 37.6674 64.5655C37.8402 64.7384 37.9772 64.9436 38.0707 65.1694C38.1641 65.3952 38.2122 65.6372 38.2121 65.8815Z" fill="#A7A09A"/>
<path d="M42.9318 56.4416C42.9319 56.686 42.8839 56.928 42.7904 57.1538C42.697 57.3796 42.5599 57.5848 42.3872 57.7576C42.2144 57.9304 42.0093 58.0675 41.7835 58.1611C41.5577 58.2546 41.3158 58.3028 41.0714 58.3028C40.827 58.3028 40.585 58.2546 40.3593 58.1611C40.1335 58.0675 39.9284 57.9304 39.7556 57.7576C39.5828 57.5848 39.4458 57.3796 39.3524 57.1538C39.2589 56.928 39.2108 56.686 39.2109 56.4416C39.2108 56.1972 39.2589 55.9552 39.3524 55.7294C39.4458 55.5036 39.5828 55.2984 39.7556 55.1256C39.9284 54.9528 40.1335 54.8157 40.3593 54.7221C40.585 54.6286 40.827 54.5804 41.0714 54.5804C41.3158 54.5804 41.5577 54.6286 41.7835 54.7221C42.0093 54.8157 42.2144 54.9528 42.3872 55.1256C42.5599 55.2984 42.697 55.5036 42.7904 55.7294C42.8839 55.9552 42.9319 56.1972 42.9318 56.4416Z" fill="#A7A09A"/>
<path d="M42.9318 61.1616C42.9319 61.4059 42.8839 61.6479 42.7904 61.8738C42.697 62.0996 42.5599 62.3047 42.3872 62.4776C42.2144 62.6504 42.0093 62.7875 41.7835 62.881C41.5577 62.9746 41.3158 63.0227 41.0714 63.0227C40.827 63.0227 40.585 62.9746 40.3593 62.881C40.1335 62.7875 39.9284 62.6504 39.7556 62.4776C39.5828 62.3047 39.4458 62.0996 39.3524 61.8738C39.2589 61.6479 39.2108 61.4059 39.2109 61.1616C39.2108 60.9172 39.2589 60.6752 39.3524 60.4494C39.4458 60.2236 39.5828 60.0184 39.7556 59.8456C39.9284 59.6727 40.1335 59.5356 40.3593 59.4421C40.585 59.3486 40.827 59.3004 41.0714 59.3004C41.3158 59.3004 41.5577 59.3486 41.7835 59.4421C42.0093 59.5356 42.2144 59.6727 42.3872 59.8456C42.5599 60.0184 42.697 60.2236 42.7904 60.4494C42.8839 60.6752 42.9319 60.9172 42.9318 61.1616Z" fill="#A7A09A"/>
<path d="M42.9318 65.8815C42.9319 66.1259 42.8839 66.3679 42.7904 66.5937C42.697 66.8195 42.5599 67.0247 42.3872 67.1975C42.2144 67.3704 42.0093 67.5075 41.7835 67.601C41.5577 67.6946 41.3158 67.7427 41.0714 67.7427C40.827 67.7427 40.585 67.6946 40.3593 67.601C40.1335 67.5075 39.9284 67.3704 39.7556 67.1975C39.5828 67.0247 39.4458 66.8195 39.3524 66.5937C39.2589 66.3679 39.2108 66.1259 39.2109 65.8815C39.2108 65.6372 39.2589 65.3952 39.3524 65.1694C39.4458 64.9436 39.5828 64.7384 39.7556 64.5655C39.9284 64.3927 40.1335 64.2556 40.3593 64.1621C40.585 64.0685 40.827 64.0204 41.0714 64.0204C41.3158 64.0204 41.5577 64.0685 41.7835 64.1621C42.0093 64.2556 42.2144 64.3927 42.3872 64.5655C42.5599 64.7384 42.697 64.9436 42.7904 65.1694C42.8839 65.3952 42.9319 65.6372 42.9318 65.8815Z" fill="#A7A09A"/>
<path d="M47.652 56.4416C47.6521 56.686 47.6041 56.928 47.5106 57.1538C47.4172 57.3796 47.2802 57.5848 47.1074 57.7576C46.9346 57.9304 46.7295 58.0675 46.5037 58.1611C46.278 58.2546 46.036 58.3028 45.7916 58.3028C45.5472 58.3028 45.3052 58.2546 45.0795 58.1611C44.8537 58.0675 44.6486 57.9304 44.4758 57.7576C44.303 57.5848 44.166 57.3796 44.0726 57.1538C43.9791 56.928 43.9311 56.686 43.9312 56.4416C43.9311 56.1972 43.9791 55.9552 44.0726 55.7294C44.166 55.5036 44.303 55.2984 44.4758 55.1256C44.6486 54.9528 44.8537 54.8157 45.0795 54.7221C45.3052 54.6286 45.5472 54.5804 45.7916 54.5804C46.036 54.5804 46.278 54.6286 46.5037 54.7221C46.7295 54.8157 46.9346 54.9528 47.1074 55.1256C47.2802 55.2984 47.4172 55.5036 47.5106 55.7294C47.6041 55.9552 47.6521 56.1972 47.652 56.4416Z" fill="#A7A09A"/>
<path d="M47.652 61.1616C47.6521 61.4059 47.6041 61.6479 47.5106 61.8738C47.4172 62.0996 47.2802 62.3047 47.1074 62.4776C46.9346 62.6504 46.7295 62.7875 46.5037 62.881C46.278 62.9746 46.036 63.0227 45.7916 63.0227C45.5472 63.0227 45.3052 62.9746 45.0795 62.881C44.8537 62.7875 44.6486 62.6504 44.4758 62.4776C44.303 62.3047 44.166 62.0996 44.0726 61.8738C43.9791 61.6479 43.9311 61.4059 43.9312 61.1616C43.9311 60.9172 43.9791 60.6752 44.0726 60.4494C44.166 60.2236 44.303 60.0184 44.4758 59.8456C44.6486 59.6727 44.8537 59.5356 45.0795 59.4421C45.3052 59.3486 45.5472 59.3004 45.7916 59.3004C46.036 59.3004 46.278 59.3486 46.5037 59.4421C46.7295 59.5356 46.9346 59.6727 47.1074 59.8456C47.2802 60.0184 47.4172 60.2236 47.5106 60.4494C47.6041 60.6752 47.6521 60.9172 47.652 61.1616Z" fill="#A7A09A"/>
<path d="M47.652 65.8815C47.6521 66.1259 47.6041 66.3679 47.5106 66.5937C47.4172 66.8195 47.2802 67.0247 47.1074 67.1975C46.9346 67.3704 46.7295 67.5075 46.5037 67.601C46.278 67.6946 46.036 67.7427 45.7916 67.7427C45.5472 67.7427 45.3052 67.6946 45.0795 67.601C44.8537 67.5075 44.6486 67.3704 44.4758 67.1975C44.303 67.0247 44.166 66.8195 44.0726 66.5937C43.9791 66.3679 43.9311 66.1259 43.9312 65.8815C43.9311 65.6372 43.9791 65.3952 44.0726 65.1694C44.166 64.9436 44.303 64.7384 44.4758 64.5655C44.6486 64.3927 44.8537 64.2556 45.0795 64.1621C45.3052 64.0685 45.5472 64.0204 45.7916 64.0204C46.036 64.0204 46.278 64.0685 46.5037 64.1621C46.7295 64.2556 46.9346 64.3927 47.1074 64.5655C47.2802 64.7384 47.4172 64.9436 47.5106 65.1694C47.6041 65.3952 47.6521 65.6372 47.652 65.8815Z" fill="#A7A09A"/>
<path d="M52.3718 56.4416C52.3719 56.686 52.3238 56.928 52.2304 57.1538C52.1369 57.3796 51.9999 57.5848 51.8271 57.7576C51.6543 57.9304 51.4492 58.0675 51.2235 58.1611C50.9977 58.2546 50.7557 58.3028 50.5113 58.3028C50.267 58.3028 50.025 58.2546 49.7992 58.1611C49.5734 58.0675 49.3683 57.9304 49.1955 57.7576C49.0228 57.5848 48.8858 57.3796 48.7923 57.1538C48.6988 56.928 48.6508 56.686 48.6509 56.4416C48.6508 56.1972 48.6988 55.9552 48.7923 55.7294C48.8858 55.5036 49.0228 55.2984 49.1955 55.1256C49.3683 54.9528 49.5734 54.8157 49.7992 54.7221C50.025 54.6286 50.267 54.5804 50.5113 54.5804C50.7557 54.5804 50.9977 54.6286 51.2235 54.7221C51.4492 54.8157 51.6543 54.9528 51.8271 55.1256C51.9999 55.2984 52.1369 55.5036 52.2304 55.7294C52.3238 55.9552 52.3719 56.1972 52.3718 56.4416Z" fill="#A7A09A"/>
<path d="M52.3718 61.1616C52.3719 61.4059 52.3238 61.6479 52.2304 61.8738C52.1369 62.0996 51.9999 62.3047 51.8271 62.4776C51.6543 62.6504 51.4492 62.7875 51.2235 62.881C50.9977 62.9746 50.7557 63.0227 50.5113 63.0227C50.267 63.0227 50.025 62.9746 49.7992 62.881C49.5734 62.7875 49.3683 62.6504 49.1955 62.4776C49.0228 62.3047 48.8858 62.0996 48.7923 61.8738C48.6988 61.6479 48.6508 61.4059 48.6509 61.1616C48.6508 60.9172 48.6988 60.6752 48.7923 60.4494C48.8858 60.2236 49.0228 60.0184 49.1955 59.8456C49.3683 59.6727 49.5734 59.5356 49.7992 59.4421C50.025 59.3486 50.267 59.3004 50.5113 59.3004C50.7557 59.3004 50.9977 59.3486 51.2235 59.4421C51.4492 59.5356 51.6543 59.6727 51.8271 59.8456C51.9999 60.0184 52.1369 60.2236 52.2304 60.4494C52.3238 60.6752 52.3719 60.9172 52.3718 61.1616Z" fill="#A7A09A"/>
<path d="M52.3718 65.8815C52.3719 66.1259 52.3238 66.3679 52.2304 66.5937C52.1369 66.8195 51.9999 67.0247 51.8271 67.1975C51.6543 67.3704 51.4492 67.5075 51.2235 67.601C50.9977 67.6946 50.7557 67.7427 50.5113 67.7427C50.267 67.7427 50.025 67.6946 49.7992 67.601C49.5734 67.5075 49.3683 67.3704 49.1955 67.1975C49.0228 67.0247 48.8858 66.8195 48.7923 66.5937C48.6988 66.3679 48.6508 66.1259 48.6509 65.8815C48.6508 65.6372 48.6988 65.3952 48.7923 65.1694C48.8858 64.9436 49.0228 64.7384 49.1955 64.5655C49.3683 64.3927 49.5734 64.2556 49.7992 64.1621C50.025 64.0685 50.267 64.0204 50.5113 64.0204C50.7557 64.0204 50.9977 64.0685 51.2235 64.1621C51.4492 64.2556 51.6543 64.3927 51.8271 64.5655C51.9999 64.7384 52.1369 64.9436 52.2304 65.1694C52.3238 65.3952 52.3719 65.6372 52.3718 65.8815Z" fill="#A7A09A"/>
<path d="M52.3718 51.7216C52.3719 51.966 52.3238 52.208 52.2304 52.4338C52.1369 52.6596 51.9999 52.8648 51.8271 53.0376C51.6543 53.2105 51.4492 53.3476 51.2235 53.4411C50.9977 53.5346 50.7557 53.5828 50.5113 53.5828C50.267 53.5828 50.025 53.5346 49.7992 53.4411C49.5734 53.3476 49.3683 53.2105 49.1955 53.0376C49.0228 52.8648 48.8858 52.6596 48.7923 52.4338C48.6988 52.208 48.6508 51.966 48.6509 51.7216C48.6508 51.4773 48.6988 51.2352 48.7923 51.0094C48.8858 50.7836 49.0228 50.5785 49.1955 50.4056C49.3683 50.2328 49.5734 50.0957 49.7992 50.0022C50.025 49.9086 50.267 49.8605 50.5113 49.8605C50.7557 49.8605 50.9977 49.9086 51.2235 50.0022C51.4492 50.0957 51.6543 50.2328 51.8271 50.4056C51.9999 50.5785 52.1369 50.7836 52.2304 51.0094C52.3238 51.2352 52.3719 51.4773 52.3718 51.7216Z" fill="#A7A09A"/>
<path d="M52.3718 70.6015C52.3719 70.8458 52.3238 71.0878 52.2304 71.3136C52.1369 71.5394 51.9999 71.7446 51.8271 71.9174C51.6543 72.0903 51.4492 72.2274 51.2235 72.3209C50.9977 72.4145 50.7557 72.4626 50.5113 72.4626C50.267 72.4626 50.025 72.4145 49.7992 72.3209C49.5734 72.2274 49.3683 72.0903 49.1955 71.9174C49.0228 71.7446 48.8858 71.5394 48.7923 71.3136C48.6988 71.0878 48.6508 70.8458 48.6509 70.6015C48.6508 70.3571 48.6988 70.1151 48.7923 69.8893C48.8858 69.6635 49.0228 69.4583 49.1955 69.2855C49.3683 69.1126 49.5734 68.9755 49.7992 68.882C50.025 68.7884 50.267 68.7403 50.5113 68.7403C50.7557 68.7403 50.9977 68.7884 51.2235 68.882C51.4492 68.9755 51.6543 69.1126 51.8271 69.2855C51.9999 69.4583 52.1369 69.6635 52.2304 69.8893C52.3238 70.1151 52.3719 70.3571 52.3718 70.6015Z" fill="#A7A09A"/>
<path d="M57.092 56.4416C57.0921 56.686 57.044 56.928 56.9506 57.1538C56.8571 57.3796 56.7201 57.5848 56.5473 57.7576C56.3746 57.9304 56.1694 58.0675 55.9437 58.1611C55.7179 58.2546 55.4759 58.3028 55.2315 58.3028C54.9872 58.3028 54.7452 58.2546 54.5194 58.1611C54.2936 58.0675 54.0885 57.9304 53.9158 57.7576C53.743 57.5848 53.606 57.3796 53.5125 57.1538C53.4191 56.928 53.371 56.686 53.3711 56.4416C53.371 56.1972 53.4191 55.9552 53.5125 55.7294C53.606 55.5036 53.743 55.2984 53.9158 55.1256C54.0885 54.9528 54.2936 54.8157 54.5194 54.7221C54.7452 54.6286 54.9872 54.5804 55.2315 54.5804C55.4759 54.5804 55.7179 54.6286 55.9437 54.7221C56.1694 54.8157 56.3746 54.9528 56.5473 55.1256C56.7201 55.2984 56.8571 55.5036 56.9506 55.7294C57.044 55.9552 57.0921 56.1972 57.092 56.4416Z" fill="#A7A09A"/>
<path d="M57.092 61.1616C57.0921 61.4059 57.044 61.6479 56.9506 61.8738C56.8571 62.0996 56.7201 62.3047 56.5473 62.4776C56.3746 62.6504 56.1694 62.7875 55.9437 62.881C55.7179 62.9746 55.4759 63.0227 55.2315 63.0227C54.9872 63.0227 54.7452 62.9746 54.5194 62.881C54.2936 62.7875 54.0885 62.6504 53.9158 62.4776C53.743 62.3047 53.606 62.0996 53.5125 61.8738C53.4191 61.6479 53.371 61.4059 53.3711 61.1616C53.371 60.9172 53.4191 60.6752 53.5125 60.4494C53.606 60.2236 53.743 60.0184 53.9158 59.8456C54.0885 59.6727 54.2936 59.5356 54.5194 59.4421C54.7452 59.3486 54.9872 59.3004 55.2315 59.3004C55.4759 59.3004 55.7179 59.3486 55.9437 59.4421C56.1694 59.5356 56.3746 59.6727 56.5473 59.8456C56.7201 60.0184 56.8571 60.2236 56.9506 60.4494C57.044 60.6752 57.0921 60.9172 57.092 61.1616Z" fill="#A7A09A"/>
<path d="M57.092 65.8815C57.0921 66.1259 57.044 66.3679 56.9506 66.5937C56.8571 66.8195 56.7201 67.0247 56.5473 67.1975C56.3746 67.3704 56.1694 67.5075 55.9437 67.601C55.7179 67.6946 55.4759 67.7427 55.2315 67.7427C54.9872 67.7427 54.7452 67.6946 54.5194 67.601C54.2936 67.5075 54.0885 67.3704 53.9158 67.1975C53.743 67.0247 53.606 66.8195 53.5125 66.5937C53.4191 66.3679 53.371 66.1259 53.3711 65.8815C53.371 65.6372 53.4191 65.3952 53.5125 65.1694C53.606 64.9436 53.743 64.7384 53.9158 64.5655C54.0885 64.3927 54.2936 64.2556 54.5194 64.1621C54.7452 64.0685 54.9872 64.0204 55.2315 64.0204C55.4759 64.0204 55.7179 64.0685 55.9437 64.1621C56.1694 64.2556 56.3746 64.3927 56.5473 64.5655C56.7201 64.7384 56.8571 64.9436 56.9506 65.1694C57.044 65.3952 57.0921 65.6372 57.092 65.8815Z" fill="#A7A09A"/>
<path d="M61.8117 61.1616C61.8118 61.4059 61.7638 61.6479 61.6703 61.8738C61.5768 62.0996 61.4398 62.3047 61.2671 62.4776C61.0943 62.6504 60.8892 62.7875 60.6634 62.881C60.4376 62.9746 60.1956 63.0227 59.9513 63.0227C59.7069 63.0227 59.4649 62.9746 59.2391 62.881C59.0134 62.7875 58.8083 62.6504 58.6355 62.4776C58.4627 62.3047 58.3257 62.0996 58.2322 61.8738C58.1388 61.6479 58.0907 61.4059 58.0908 61.1616C58.0907 60.9172 58.1388 60.6752 58.2322 60.4494C58.3257 60.2236 58.4627 60.0184 58.6355 59.8456C58.8083 59.6727 59.0134 59.5356 59.2391 59.4421C59.4649 59.3486 59.7069 59.3004 59.9513 59.3004C60.1956 59.3004 60.4376 59.3486 60.6634 59.4421C60.8892 59.5356 61.0943 59.6727 61.2671 59.8456C61.4398 60.0184 61.5768 60.2236 61.6703 60.4494C61.7638 60.6752 61.8118 60.9172 61.8117 61.1616Z" fill="#A7A09A"/>
<path d="M28.7722 55.7344C28.7723 55.9788 28.7242 56.2208 28.6307 56.4466C28.5373 56.6724 28.4003 56.8775 28.2275 57.0504C28.0547 57.2232 27.8496 57.3603 27.6238 57.4539C27.3981 57.5474 27.1561 57.5955 26.9117 57.5955C26.6673 57.5955 26.4254 57.5474 26.1996 57.4539C25.9738 57.3603 25.7687 57.2232 25.5959 57.0504C25.4232 56.8775 25.2861 56.6724 25.1927 56.4466C25.0992 56.2208 25.0512 55.9788 25.0513 55.7344C25.0512 55.49 25.0992 55.248 25.1927 55.0222C25.2861 54.7964 25.4232 54.5912 25.5959 54.4184C25.7687 54.2456 25.9738 54.1085 26.1996 54.0149C26.4254 53.9214 26.6673 53.8732 26.9117 53.8732C27.1561 53.8732 27.3981 53.9214 27.6238 54.0149C27.8496 54.1085 28.0547 54.2456 28.2275 54.4184C28.4003 54.5912 28.5373 54.7964 28.6307 55.0222C28.7242 55.248 28.7723 55.49 28.7722 55.7344Z" fill="#02AEF0"/>
<path d="M28.7722 60.4544C28.7723 60.6987 28.7242 60.9407 28.6307 61.1665C28.5373 61.3923 28.4003 61.5975 28.2275 61.7703C28.0547 61.9432 27.8496 62.0803 27.6238 62.1738C27.3981 62.2674 27.1561 62.3155 26.9117 62.3155C26.6673 62.3155 26.4254 62.2674 26.1996 62.1738C25.9738 62.0803 25.7687 61.9432 25.5959 61.7703C25.4232 61.5975 25.2861 61.3923 25.1927 61.1665C25.0992 60.9407 25.0512 60.6987 25.0513 60.4544C25.0512 60.21 25.0992 59.968 25.1927 59.7422C25.2861 59.5164 25.4232 59.3112 25.5959 59.1384C25.7687 58.9655 25.9738 58.8284 26.1996 58.7349C26.4254 58.6413 26.6673 58.5932 26.9117 58.5932C27.1561 58.5932 27.3981 58.6413 27.6238 58.7349C27.8496 58.8284 28.0547 58.9655 28.2275 59.1384C28.4003 59.3112 28.5373 59.5164 28.6307 59.7422C28.7242 59.968 28.7723 60.21 28.7722 60.4544Z" fill="#02AEF0"/>
<path d="M28.7722 65.1743C28.7723 65.4187 28.7242 65.6607 28.6307 65.8865C28.5373 66.1123 28.4003 66.3175 28.2275 66.4903C28.0547 66.6632 27.8496 66.8003 27.6238 66.8938C27.3981 66.9873 27.1561 67.0355 26.9117 67.0355C26.6673 67.0355 26.4254 66.9873 26.1996 66.8938C25.9738 66.8003 25.7687 66.6632 25.5959 66.4903C25.4232 66.3175 25.2861 66.1123 25.1927 65.8865C25.0992 65.6607 25.0512 65.4187 25.0513 65.1743C25.0512 64.9299 25.0992 64.6879 25.1927 64.4621C25.2861 64.2363 25.4232 64.0312 25.5959 63.8583C25.7687 63.6855 25.9738 63.5484 26.1996 63.4549C26.4254 63.3613 26.6673 63.3132 26.9117 63.3132C27.1561 63.3132 27.3981 63.3613 27.6238 63.4549C27.8496 63.5484 28.0547 63.6855 28.2275 63.8583C28.4003 64.0312 28.5373 64.2363 28.6307 64.4621C28.7242 64.6879 28.7723 64.9299 28.7722 65.1743Z" fill="#02AEF0"/>
<path d="M33.4919 55.7344C33.492 55.9788 33.4439 56.2208 33.3505 56.4466C33.257 56.6724 33.12 56.8775 32.9472 57.0504C32.7745 57.2232 32.5693 57.3603 32.3436 57.4539C32.1178 57.5474 31.8758 57.5955 31.6314 57.5955C31.3871 57.5955 31.1451 57.5474 30.9193 57.4539C30.6936 57.3603 30.4884 57.2232 30.3157 57.0504C30.1429 56.8775 30.0059 56.6724 29.9124 56.4466C29.819 56.2208 29.7709 55.9788 29.771 55.7344C29.7709 55.49 29.819 55.248 29.9124 55.0222C30.0059 54.7964 30.1429 54.5912 30.3157 54.4184C30.4884 54.2456 30.6936 54.1085 30.9193 54.0149C31.1451 53.9214 31.3871 53.8732 31.6314 53.8732C31.8758 53.8732 32.1178 53.9214 32.3436 54.0149C32.5693 54.1085 32.7745 54.2456 32.9472 54.4184C33.12 54.5912 33.257 54.7964 33.3505 55.0222C33.4439 55.248 33.492 55.49 33.4919 55.7344Z" fill="#02AEF0"/>
<path d="M33.4919 60.4544C33.492 60.6987 33.4439 60.9407 33.3505 61.1665C33.257 61.3923 33.12 61.5975 32.9472 61.7703C32.7745 61.9432 32.5693 62.0803 32.3436 62.1738C32.1178 62.2674 31.8758 62.3155 31.6314 62.3155C31.3871 62.3155 31.1451 62.2674 30.9193 62.1738C30.6936 62.0803 30.4884 61.9432 30.3157 61.7703C30.1429 61.5975 30.0059 61.3923 29.9124 61.1665C29.819 60.9407 29.7709 60.6987 29.771 60.4544C29.7709 60.21 29.819 59.968 29.9124 59.7422C30.0059 59.5164 30.1429 59.3112 30.3157 59.1384C30.4884 58.9655 30.6936 58.8284 30.9193 58.7349C31.1451 58.6413 31.3871 58.5932 31.6314 58.5932C31.8758 58.5932 32.1178 58.6413 32.3436 58.7349C32.5693 58.8284 32.7745 58.9655 32.9472 59.1384C33.12 59.3112 33.257 59.5164 33.3505 59.7422C33.4439 59.968 33.492 60.21 33.4919 60.4544Z" fill="#02AEF0"/>
<path d="M33.4919 65.1743C33.492 65.4187 33.4439 65.6607 33.3505 65.8865C33.257 66.1123 33.12 66.3175 32.9472 66.4903C32.7745 66.6632 32.5693 66.8003 32.3436 66.8938C32.1178 66.9873 31.8758 67.0355 31.6314 67.0355C31.3871 67.0355 31.1451 66.9873 30.9193 66.8938C30.6936 66.8003 30.4884 66.6632 30.3157 66.4903C30.1429 66.3175 30.0059 66.1123 29.9124 65.8865C29.819 65.6607 29.7709 65.4187 29.771 65.1743C29.7709 64.9299 29.819 64.6879 29.9124 64.4621C30.0059 64.2363 30.1429 64.0312 30.3157 63.8583C30.4884 63.6855 30.6936 63.5484 30.9193 63.4549C31.1451 63.3613 31.3871 63.3132 31.6314 63.3132C31.8758 63.3132 32.1178 63.3613 32.3436 63.4549C32.5693 63.5484 32.7745 63.6855 32.9472 63.8583C33.12 64.0312 33.257 64.2363 33.3505 64.4621C33.4439 64.6879 33.492 64.9299 33.4919 65.1743Z" fill="#02AEF0"/>
<path d="M38.2121 55.7344C38.2122 55.9788 38.1641 56.2208 38.0707 56.4466C37.9772 56.6724 37.8402 56.8775 37.6674 57.0504C37.4947 57.2232 37.2896 57.3603 37.0638 57.4539C36.838 57.5474 36.596 57.5955 36.3517 57.5955C36.1073 57.5955 35.8653 57.5474 35.6395 57.4539C35.4138 57.3603 35.2086 57.2232 35.0359 57.0504C34.8631 56.8775 34.7261 56.6724 34.6326 56.4466C34.5392 56.2208 34.4911 55.9788 34.4912 55.7344C34.4911 55.49 34.5392 55.248 34.6326 55.0222C34.7261 54.7964 34.8631 54.5912 35.0359 54.4184C35.2086 54.2456 35.4138 54.1085 35.6395 54.0149C35.8653 53.9214 36.1073 53.8732 36.3517 53.8732C36.596 53.8732 36.838 53.9214 37.0638 54.0149C37.2896 54.1085 37.4947 54.2456 37.6674 54.4184C37.8402 54.5912 37.9772 54.7964 38.0707 55.0222C38.1641 55.248 38.2122 55.49 38.2121 55.7344Z" fill="#02AEF0"/>
<path d="M38.2121 60.4544C38.2122 60.6987 38.1641 60.9407 38.0707 61.1665C37.9772 61.3923 37.8402 61.5975 37.6674 61.7703C37.4947 61.9432 37.2896 62.0803 37.0638 62.1738C36.838 62.2674 36.596 62.3155 36.3517 62.3155C36.1073 62.3155 35.8653 62.2674 35.6395 62.1738C35.4138 62.0803 35.2086 61.9432 35.0359 61.7703C34.8631 61.5975 34.7261 61.3923 34.6326 61.1665C34.5392 60.9407 34.4911 60.6987 34.4912 60.4544C34.4911 60.21 34.5392 59.968 34.6326 59.7422C34.7261 59.5164 34.8631 59.3112 35.0359 59.1384C35.2086 58.9655 35.4138 58.8284 35.6395 58.7349C35.8653 58.6413 36.1073 58.5932 36.3517 58.5932C36.596 58.5932 36.838 58.6413 37.0638 58.7349C37.2896 58.8284 37.4947 58.9655 37.6674 59.1384C37.8402 59.3112 37.9772 59.5164 38.0707 59.7422C38.1641 59.968 38.2122 60.21 38.2121 60.4544Z" fill="#02AEF0"/>
<path d="M38.2121 65.1743C38.2122 65.4187 38.1641 65.6607 38.0707 65.8865C37.9772 66.1123 37.8402 66.3175 37.6674 66.4903C37.4947 66.6632 37.2896 66.8003 37.0638 66.8938C36.838 66.9873 36.596 67.0355 36.3517 67.0355C36.1073 67.0355 35.8653 66.9873 35.6395 66.8938C35.4138 66.8003 35.2086 66.6632 35.0359 66.4903C34.8631 66.3175 34.7261 66.1123 34.6326 65.8865C34.5392 65.6607 34.4911 65.4187 34.4912 65.1743C34.4911 64.9299 34.5392 64.6879 34.6326 64.4621C34.7261 64.2363 34.8631 64.0312 35.0359 63.8583C35.2086 63.6855 35.4138 63.5484 35.6395 63.4549C35.8653 63.3613 36.1073 63.3132 36.3517 63.3132C36.596 63.3132 36.838 63.3613 37.0638 63.4549C37.2896 63.5484 37.4947 63.6855 37.6674 63.8583C37.8402 64.0312 37.9772 64.2363 38.0707 64.4621C38.1641 64.6879 38.2122 64.9299 38.2121 65.1743Z" fill="#02AEF0"/>
<path d="M42.9318 55.7344C42.9319 55.9788 42.8839 56.2208 42.7904 56.4466C42.697 56.6724 42.5599 56.8775 42.3872 57.0504C42.2144 57.2232 42.0093 57.3603 41.7835 57.4539C41.5577 57.5474 41.3158 57.5955 41.0714 57.5955C40.827 57.5955 40.585 57.5474 40.3593 57.4539C40.1335 57.3603 39.9284 57.2232 39.7556 57.0504C39.5828 56.8775 39.4458 56.6724 39.3524 56.4466C39.2589 56.2208 39.2108 55.9788 39.2109 55.7344C39.2108 55.49 39.2589 55.248 39.3524 55.0222C39.4458 54.7964 39.5828 54.5912 39.7556 54.4184C39.9284 54.2456 40.1335 54.1085 40.3593 54.0149C40.585 53.9214 40.827 53.8732 41.0714 53.8732C41.3158 53.8732 41.5577 53.9214 41.7835 54.0149C42.0093 54.1085 42.2144 54.2456 42.3872 54.4184C42.5599 54.5912 42.697 54.7964 42.7904 55.0222C42.8839 55.248 42.9319 55.49 42.9318 55.7344Z" fill="#02AEF0"/>
<path d="M42.9318 60.4544C42.9319 60.6987 42.8839 60.9407 42.7904 61.1665C42.697 61.3923 42.5599 61.5975 42.3872 61.7703C42.2144 61.9432 42.0093 62.0803 41.7835 62.1738C41.5577 62.2674 41.3158 62.3155 41.0714 62.3155C40.827 62.3155 40.585 62.2674 40.3593 62.1738C40.1335 62.0803 39.9284 61.9432 39.7556 61.7703C39.5828 61.5975 39.4458 61.3923 39.3524 61.1665C39.2589 60.9407 39.2108 60.6987 39.2109 60.4544C39.2108 60.21 39.2589 59.968 39.3524 59.7422C39.4458 59.5164 39.5828 59.3112 39.7556 59.1384C39.9284 58.9655 40.1335 58.8284 40.3593 58.7349C40.585 58.6413 40.827 58.5932 41.0714 58.5932C41.3158 58.5932 41.5577 58.6413 41.7835 58.7349C42.0093 58.8284 42.2144 58.9655 42.3872 59.1384C42.5599 59.3112 42.697 59.5164 42.7904 59.7422C42.8839 59.968 42.9319 60.21 42.9318 60.4544Z" fill="#02AEF0"/>
<path d="M42.9318 65.1743C42.9319 65.4187 42.8839 65.6607 42.7904 65.8865C42.697 66.1123 42.5599 66.3175 42.3872 66.4903C42.2144 66.6632 42.0093 66.8003 41.7835 66.8938C41.5577 66.9873 41.3158 67.0355 41.0714 67.0355C40.827 67.0355 40.585 66.9873 40.3593 66.8938C40.1335 66.8003 39.9284 66.6632 39.7556 66.4903C39.5828 66.3175 39.4458 66.1123 39.3524 65.8865C39.2589 65.6607 39.2108 65.4187 39.2109 65.1743C39.2108 64.9299 39.2589 64.6879 39.3524 64.4621C39.4458 64.2363 39.5828 64.0312 39.7556 63.8583C39.9284 63.6855 40.1335 63.5484 40.3593 63.4549C40.585 63.3613 40.827 63.3132 41.0714 63.3132C41.3158 63.3132 41.5577 63.3613 41.7835 63.4549C42.0093 63.5484 42.2144 63.6855 42.3872 63.8583C42.5599 64.0312 42.697 64.2363 42.7904 64.4621C42.8839 64.6879 42.9319 64.9299 42.9318 65.1743Z" fill="#02AEF0"/>
<path d="M47.652 55.7344C47.6521 55.9788 47.6041 56.2208 47.5106 56.4466C47.4172 56.6724 47.2802 56.8775 47.1074 57.0504C46.9346 57.2232 46.7295 57.3603 46.5037 57.4539C46.278 57.5474 46.036 57.5955 45.7916 57.5955C45.5472 57.5955 45.3052 57.5474 45.0795 57.4539C44.8537 57.3603 44.6486 57.2232 44.4758 57.0504C44.303 56.8775 44.166 56.6724 44.0726 56.4466C43.9791 56.2208 43.9311 55.9788 43.9312 55.7344C43.9311 55.49 43.9791 55.248 44.0726 55.0222C44.166 54.7964 44.303 54.5912 44.4758 54.4184C44.6486 54.2456 44.8537 54.1085 45.0795 54.0149C45.3052 53.9214 45.5472 53.8732 45.7916 53.8732C46.036 53.8732 46.278 53.9214 46.5037 54.0149C46.7295 54.1085 46.9346 54.2456 47.1074 54.4184C47.2802 54.5912 47.4172 54.7964 47.5106 55.0222C47.6041 55.248 47.6521 55.49 47.652 55.7344Z" fill="#02AEF0"/>
<path d="M47.652 60.4544C47.6521 60.6987 47.6041 60.9407 47.5106 61.1665C47.4172 61.3923 47.2802 61.5975 47.1074 61.7703C46.9346 61.9432 46.7295 62.0803 46.5037 62.1738C46.278 62.2674 46.036 62.3155 45.7916 62.3155C45.5472 62.3155 45.3052 62.2674 45.0795 62.1738C44.8537 62.0803 44.6486 61.9432 44.4758 61.7703C44.303 61.5975 44.166 61.3923 44.0726 61.1665C43.9791 60.9407 43.9311 60.6987 43.9312 60.4544C43.9311 60.21 43.9791 59.968 44.0726 59.7422C44.166 59.5164 44.303 59.3112 44.4758 59.1384C44.6486 58.9655 44.8537 58.8284 45.0795 58.7349C45.3052 58.6413 45.5472 58.5932 45.7916 58.5932C46.036 58.5932 46.278 58.6413 46.5037 58.7349C46.7295 58.8284 46.9346 58.9655 47.1074 59.1384C47.2802 59.3112 47.4172 59.5164 47.5106 59.7422C47.6041 59.968 47.6521 60.21 47.652 60.4544Z" fill="#02AEF0"/>
<path d="M47.652 65.1743C47.6521 65.4187 47.6041 65.6607 47.5106 65.8865C47.4172 66.1123 47.2802 66.3175 47.1074 66.4903C46.9346 66.6632 46.7295 66.8003 46.5037 66.8938C46.278 66.9873 46.036 67.0355 45.7916 67.0355C45.5472 67.0355 45.3052 66.9873 45.0795 66.8938C44.8537 66.8003 44.6486 66.6632 44.4758 66.4903C44.303 66.3175 44.166 66.1123 44.0726 65.8865C43.9791 65.6607 43.9311 65.4187 43.9312 65.1743C43.9311 64.9299 43.9791 64.6879 44.0726 64.4621C44.166 64.2363 44.303 64.0312 44.4758 63.8583C44.6486 63.6855 44.8537 63.5484 45.0795 63.4549C45.3052 63.3613 45.5472 63.3132 45.7916 63.3132C46.036 63.3132 46.278 63.3613 46.5037 63.4549C46.7295 63.5484 46.9346 63.6855 47.1074 63.8583C47.2802 64.0312 47.4172 64.2363 47.5106 64.4621C47.6041 64.6879 47.6521 64.9299 47.652 65.1743Z" fill="#02AEF0"/>
<path d="M52.3718 55.7344C52.3719 55.9788 52.3238 56.2208 52.2304 56.4466C52.1369 56.6724 51.9999 56.8775 51.8271 57.0504C51.6543 57.2232 51.4492 57.3603 51.2235 57.4539C50.9977 57.5474 50.7557 57.5955 50.5113 57.5955C50.267 57.5955 50.025 57.5474 49.7992 57.4539C49.5734 57.3603 49.3683 57.2232 49.1955 57.0504C49.0228 56.8775 48.8858 56.6724 48.7923 56.4466C48.6988 56.2208 48.6508 55.9788 48.6509 55.7344C48.6508 55.49 48.6988 55.248 48.7923 55.0222C48.8858 54.7964 49.0228 54.5912 49.1955 54.4184C49.3683 54.2456 49.5734 54.1085 49.7992 54.0149C50.025 53.9214 50.267 53.8732 50.5113 53.8732C50.7557 53.8732 50.9977 53.9214 51.2235 54.0149C51.4492 54.1085 51.6543 54.2456 51.8271 54.4184C51.9999 54.5912 52.1369 54.7964 52.2304 55.0222C52.3238 55.248 52.3719 55.49 52.3718 55.7344Z" fill="#02AEF0"/>
<path d="M52.3718 60.4544C52.3719 60.6987 52.3238 60.9407 52.2304 61.1665C52.1369 61.3923 51.9999 61.5975 51.8271 61.7703C51.6543 61.9432 51.4492 62.0803 51.2235 62.1738C50.9977 62.2674 50.7557 62.3155 50.5113 62.3155C50.267 62.3155 50.025 62.2674 49.7992 62.1738C49.5734 62.0803 49.3683 61.9432 49.1955 61.7703C49.0228 61.5975 48.8858 61.3923 48.7923 61.1665C48.6988 60.9407 48.6508 60.6987 48.6509 60.4544C48.6508 60.21 48.6988 59.968 48.7923 59.7422C48.8858 59.5164 49.0228 59.3112 49.1955 59.1384C49.3683 58.9655 49.5734 58.8284 49.7992 58.7349C50.025 58.6413 50.267 58.5932 50.5113 58.5932C50.7557 58.5932 50.9977 58.6413 51.2235 58.7349C51.4492 58.8284 51.6543 58.9655 51.8271 59.1384C51.9999 59.3112 52.1369 59.5164 52.2304 59.7422C52.3238 59.968 52.3719 60.21 52.3718 60.4544Z" fill="#02AEF0"/>
<path d="M52.3718 65.1743C52.3719 65.4187 52.3238 65.6607 52.2304 65.8865C52.1369 66.1123 51.9999 66.3175 51.8271 66.4903C51.6543 66.6632 51.4492 66.8003 51.2235 66.8938C50.9977 66.9873 50.7557 67.0355 50.5113 67.0355C50.267 67.0355 50.025 66.9873 49.7992 66.8938C49.5734 66.8003 49.3683 66.6632 49.1955 66.4903C49.0228 66.3175 48.8858 66.1123 48.7923 65.8865C48.6988 65.6607 48.6508 65.4187 48.6509 65.1743C48.6508 64.9299 48.6988 64.6879 48.7923 64.4621C48.8858 64.2363 49.0228 64.0312 49.1955 63.8583C49.3683 63.6855 49.5734 63.5484 49.7992 63.4549C50.025 63.3613 50.267 63.3132 50.5113 63.3132C50.7557 63.3132 50.9977 63.3613 51.2235 63.4549C51.4492 63.5484 51.6543 63.6855 51.8271 63.8583C51.9999 64.0312 52.1369 64.2363 52.2304 64.4621C52.3238 64.6879 52.3719 64.9299 52.3718 65.1743Z" fill="#02AEF0"/>
<path d="M52.3718 51.0144C52.3719 51.2588 52.3238 51.5008 52.2304 51.7266C52.1369 51.9524 51.9999 52.1576 51.8271 52.3304C51.6543 52.5032 51.4492 52.6403 51.2235 52.7339C50.9977 52.8274 50.7557 52.8756 50.5113 52.8756C50.267 52.8756 50.025 52.8274 49.7992 52.7339C49.5734 52.6403 49.3683 52.5032 49.1955 52.3304C49.0228 52.1576 48.8858 51.9524 48.7923 51.7266C48.6988 51.5008 48.6508 51.2588 48.6509 51.0144C48.6508 50.77 48.6988 50.528 48.7923 50.3022C48.8858 50.0764 49.0228 49.8713 49.1955 49.6984C49.3683 49.5256 49.5734 49.3885 49.7992 49.2949C50.025 49.2014 50.267 49.1533 50.5113 49.1533C50.7557 49.1533 50.9977 49.2014 51.2235 49.2949C51.4492 49.3885 51.6543 49.5256 51.8271 49.6984C51.9999 49.8713 52.1369 50.0764 52.2304 50.3022C52.3238 50.528 52.3719 50.77 52.3718 51.0144Z" fill="#02AEF0"/>
<path d="M52.3718 69.8943C52.3719 70.1387 52.3238 70.3807 52.2304 70.6065C52.1369 70.8323 51.9999 71.0375 51.8271 71.2103C51.6543 71.3831 51.4492 71.5202 51.2235 71.6138C50.9977 71.7073 50.7557 71.7555 50.5113 71.7555C50.267 71.7555 50.025 71.7073 49.7992 71.6138C49.5734 71.5202 49.3683 71.3831 49.1955 71.2103C49.0228 71.0375 48.8858 70.8323 48.7923 70.6065C48.6988 70.3807 48.6508 70.1387 48.6509 69.8943C48.6508 69.6499 48.6988 69.4079 48.7923 69.1821C48.8858 68.9563 49.0228 68.7511 49.1955 68.5783C49.3683 68.4055 49.5734 68.2684 49.7992 68.1748C50.025 68.0813 50.267 68.0331 50.5113 68.0331C50.7557 68.0331 50.9977 68.0813 51.2235 68.1748C51.4492 68.2684 51.6543 68.4055 51.8271 68.5783C51.9999 68.7511 52.1369 68.9563 52.2304 69.1821C52.3238 69.4079 52.3719 69.6499 52.3718 69.8943Z" fill="#02AEF0"/>
<path d="M57.092 55.7344C57.0921 55.9788 57.044 56.2208 56.9506 56.4466C56.8571 56.6724 56.7201 56.8775 56.5473 57.0504C56.3746 57.2232 56.1694 57.3603 55.9437 57.4539C55.7179 57.5474 55.4759 57.5955 55.2315 57.5955C54.9872 57.5955 54.7452 57.5474 54.5194 57.4539C54.2936 57.3603 54.0885 57.2232 53.9158 57.0504C53.743 56.8775 53.606 56.6724 53.5125 56.4466C53.4191 56.2208 53.371 55.9788 53.3711 55.7344C53.371 55.49 53.4191 55.248 53.5125 55.0222C53.606 54.7964 53.743 54.5912 53.9158 54.4184C54.0885 54.2456 54.2936 54.1085 54.5194 54.0149C54.7452 53.9214 54.9872 53.8732 55.2315 53.8732C55.4759 53.8732 55.7179 53.9214 55.9437 54.0149C56.1694 54.1085 56.3746 54.2456 56.5473 54.4184C56.7201 54.5912 56.8571 54.7964 56.9506 55.0222C57.044 55.248 57.0921 55.49 57.092 55.7344Z" fill="#02AEF0"/>
<path d="M57.092 60.4544C57.0921 60.6987 57.044 60.9407 56.9506 61.1665C56.8571 61.3923 56.7201 61.5975 56.5473 61.7703C56.3746 61.9432 56.1694 62.0803 55.9437 62.1738C55.7179 62.2674 55.4759 62.3155 55.2315 62.3155C54.9872 62.3155 54.7452 62.2674 54.5194 62.1738C54.2936 62.0803 54.0885 61.9432 53.9158 61.7703C53.743 61.5975 53.606 61.3923 53.5125 61.1665C53.4191 60.9407 53.371 60.6987 53.3711 60.4544C53.371 60.21 53.4191 59.968 53.5125 59.7422C53.606 59.5164 53.743 59.3112 53.9158 59.1384C54.0885 58.9655 54.2936 58.8284 54.5194 58.7349C54.7452 58.6413 54.9872 58.5932 55.2315 58.5932C55.4759 58.5932 55.7179 58.6413 55.9437 58.7349C56.1694 58.8284 56.3746 58.9655 56.5473 59.1384C56.7201 59.3112 56.8571 59.5164 56.9506 59.7422C57.044 59.968 57.0921 60.21 57.092 60.4544Z" fill="#02AEF0"/>
<path d="M57.092 65.1743C57.0921 65.4187 57.044 65.6607 56.9506 65.8865C56.8571 66.1123 56.7201 66.3175 56.5473 66.4903C56.3746 66.6632 56.1694 66.8003 55.9437 66.8938C55.7179 66.9873 55.4759 67.0355 55.2315 67.0355C54.9872 67.0355 54.7452 66.9873 54.5194 66.8938C54.2936 66.8003 54.0885 66.6632 53.9158 66.4903C53.743 66.3175 53.606 66.1123 53.5125 65.8865C53.4191 65.6607 53.371 65.4187 53.3711 65.1743C53.371 64.9299 53.4191 64.6879 53.5125 64.4621C53.606 64.2363 53.743 64.0312 53.9158 63.8583C54.0885 63.6855 54.2936 63.5484 54.5194 63.4549C54.7452 63.3613 54.9872 63.3132 55.2315 63.3132C55.4759 63.3132 55.7179 63.3613 55.9437 63.4549C56.1694 63.5484 56.3746 63.6855 56.5473 63.8583C56.7201 64.0312 56.8571 64.2363 56.9506 64.4621C57.044 64.6879 57.0921 64.9299 57.092 65.1743Z" fill="#02AEF0"/>
<path d="M61.8117 60.4544C61.8118 60.6987 61.7638 60.9407 61.6703 61.1665C61.5768 61.3923 61.4398 61.5975 61.2671 61.7703C61.0943 61.9432 60.8892 62.0803 60.6634 62.1738C60.4376 62.2674 60.1956 62.3155 59.9513 62.3155C59.7069 62.3155 59.4649 62.2674 59.2391 62.1738C59.0134 62.0803 58.8083 61.9432 58.6355 61.7703C58.4627 61.5975 58.3257 61.3923 58.2322 61.1665C58.1388 60.9407 58.0907 60.6987 58.0908 60.4544C58.0907 60.21 58.1388 59.968 58.2322 59.7422C58.3257 59.5164 58.4627 59.3112 58.6355 59.1384C58.8083 58.9655 59.0134 58.8284 59.2391 58.7349C59.4649 58.6413 59.7069 58.5932 59.9513 58.5932C60.1956 58.5932 60.4376 58.6413 60.6634 58.7349C60.8892 58.8284 61.0943 58.9655 61.2671 59.1384C61.4398 59.3112 61.5768 59.5164 61.6703 59.7422C61.7638 59.968 61.8118 60.21 61.8117 60.4544Z" fill="#02AEF0"/>
<path fill-rule="evenodd" clip-rule="evenodd" d="M35.8391 26.0765C34.9445 32.9751 28.0986 37.6267 28.1521 44.2887C28.0962 47.7712 31.0589 53.1219 36.9035 52.9218C40.0085 52.8803 42.5164 51.5839 44.1008 49.6748C47.0275 45.8901 46.1117 41.0429 44.2313 37.0242C42.0923 32.8392 38.3733 29.531 35.8391 26.0765Z" fill="black"/>
<path fill-rule="evenodd" clip-rule="evenodd" d="M39.4428 35.0644C39.2682 36.4103 37.9326 37.3179 37.943 38.6176C37.9321 39.2971 38.5101 40.341 39.6504 40.302C40.2562 40.2939 40.7455 40.0409 41.0547 39.6685C41.6257 38.9301 41.4239 37.9844 41.057 37.2003C40.6397 36.3838 39.9372 35.7384 39.4428 35.0644Z" fill="white"/>
</g>
<defs>
<clipPath id="clip0_946_1742">
<rect width="72" height="72" fill="white"/>
</clipPath>
</defs>
</svg>
