<svg width="60" height="72" viewBox="0 0 60 72" fill="none" xmlns="http://www.w3.org/2000/svg">
<path fill-rule="evenodd" clip-rule="evenodd" d="M0.54541 36.107L59.0556 72C60.3513 63.3197 52.195 58.1967 52.1187 57.4454C52.03 56.4849 58.6121 54.09 59.0974 47.5178C59.9177 36.5471 44.6916 35.8492 44.1694 44.0529C43.891 48.342 48.7291 48.4393 48.8793 45.2541C49.0887 40.9893 53.5671 41.7941 54.2618 46.5938C54.9639 51.4008 49.2883 53.4359 47.0195 53.3727C43.487 53.2657 38.7869 50.4258 38.3607 46.2291C37.772 40.4495 44.3886 39.7031 35.853 40.4155C32.5003 40.6927 30.0542 38.925 28.4974 36.0802C30.4311 33.4348 32.5003 31.5966 35.853 31.8787C44.3886 32.596 37.772 31.8422 38.3607 26.0068C38.7869 21.7736 43.487 18.9021 47.0195 18.7975C49.2883 18.7294 54.9639 20.784 54.2618 25.6396C53.5671 30.4806 49.0887 31.2927 48.8793 26.9915C48.7291 23.7723 43.891 23.8744 44.1694 28.2048C44.6916 36.4814 59.9177 35.7812 59.0974 24.7059C58.6195 18.2042 52.2788 15.7485 52.1211 14.7394C52.0399 14.2069 60.3242 8.583 59.0556 -0.0072937" fill="#9C8761"/>
</svg>
