<svg width="178" height="54" viewBox="0 0 178 54" fill="none" xmlns="http://www.w3.org/2000/svg">
<path d="M166.554 1H10.9708C5.46274 1 0.997559 5.47715 0.997559 11V43C0.997559 48.5228 5.46274 53 10.9708 53H166.554C172.062 53 176.527 48.5228 176.527 43V11C176.527 5.47715 172.062 1 166.554 1Z" stroke="white"/>
<path d="M84.9086 30.318C83.9558 30.3231 83.0258 30.6111 82.2361 31.1456C81.4464 31.6801 80.8322 32.4372 80.4712 33.3213C80.1101 34.2054 80.0183 35.1769 80.2073 36.1133C80.3963 37.0497 80.8577 37.9089 81.5332 38.5827C82.2088 39.2564 83.0682 39.7144 84.0031 39.8989C84.9379 40.0834 85.9064 39.9861 86.7861 39.6193C87.6659 39.2526 88.4177 38.6327 88.9465 37.838C89.4753 37.0433 89.7576 36.1094 89.7576 35.154C89.7665 34.5142 89.647 33.8792 89.4062 33.2867C89.1653 32.6942 88.8081 32.1564 88.3556 31.7052C87.9032 31.254 87.3649 30.8986 86.7727 30.6603C86.1805 30.422 85.5466 30.3056 84.9086 30.318ZM84.9086 38.118C84.5388 38.1075 84.1749 38.0234 83.8378 37.8706C83.5008 37.7179 83.1974 37.4996 82.9452 37.2283C82.693 36.957 82.497 36.6382 82.3688 36.2903C82.2405 35.9425 82.1824 35.5725 82.1978 35.202C82.1711 34.828 82.2214 34.4525 82.3458 34.0988C82.4701 33.7452 82.6658 33.421 82.9206 33.1466C83.1754 32.8721 83.4839 32.6532 83.8267 32.5035C84.1696 32.3539 84.5396 32.2766 84.9136 32.2766C85.2875 32.2766 85.6575 32.3539 86.0004 32.5035C86.3432 32.6532 86.6517 32.8721 86.9065 33.1466C87.1613 33.421 87.357 33.7452 87.4813 34.0988C87.6057 34.4525 87.656 34.828 87.6293 35.202C87.6407 35.5711 87.5792 35.9387 87.4483 36.2839C87.3175 36.629 87.1198 36.9448 86.8668 37.213C86.6137 37.4812 86.3102 37.6966 85.9738 37.8468C85.6374 37.997 85.2747 38.0789 84.9066 38.088L84.9086 38.118ZM74.3549 30.318C73.4021 30.3231 72.4721 30.6111 71.6824 31.1456C70.8927 31.6801 70.2785 32.4372 69.9175 33.3213C69.5564 34.2054 69.4646 35.1769 69.6536 36.1133C69.8426 37.0497 70.304 37.9089 70.9795 38.5827C71.6551 39.2564 72.5145 39.7144 73.4494 39.8989C74.3842 40.0834 75.3526 39.9861 76.2324 39.6193C77.1122 39.2526 77.864 38.6327 78.3928 37.838C78.9216 37.0433 79.2038 36.1094 79.2039 35.154C79.2125 34.5143 79.0928 33.8794 78.8519 33.2871C78.611 32.6947 78.2537 32.1569 77.8013 31.7058C77.349 31.2546 76.8107 30.8993 76.2187 30.6609C75.6266 30.4225 74.9928 30.3059 74.3549 30.318ZM74.3549 38.118C73.9851 38.1075 73.6212 38.0234 73.2841 37.8706C72.9471 37.7179 72.6437 37.4996 72.3915 37.2283C72.1393 36.957 71.9433 36.6382 71.815 36.2903C71.6868 35.9425 71.6287 35.5725 71.6441 35.202C71.6174 34.828 71.6677 34.4525 71.7921 34.0988C71.9164 33.7452 72.1121 33.421 72.3669 33.1466C72.6217 32.8721 72.9302 32.6532 73.273 32.5035C73.6159 32.3539 73.9859 32.2766 74.3598 32.2766C74.7338 32.2766 75.1038 32.3539 75.4466 32.5035C75.7895 32.6532 76.098 32.8721 76.3528 33.1466C76.6076 33.421 76.8033 33.7452 76.9276 34.0988C77.052 34.4525 77.1023 34.828 77.0756 35.202C77.087 35.5711 77.0255 35.9387 76.8946 36.2839C76.7638 36.629 76.5661 36.9448 76.3131 37.213C76.06 37.4812 75.7565 37.6966 75.4201 37.8468C75.0837 37.997 74.721 38.0789 74.3529 38.088L74.3549 38.118ZM61.8045 31.802V33.856H66.6934C66.6362 34.8267 66.2417 35.7466 65.5784 36.456C65.0909 36.9599 64.5026 37.3547 63.8523 37.6146C63.2019 37.8745 62.504 37.9935 61.8045 37.964C60.406 37.8982 59.0865 37.2949 58.12 36.2792C57.1535 35.2636 56.6143 33.9138 56.6143 32.51C56.6143 31.1062 57.1535 29.7564 58.12 28.7408C59.0865 27.7251 60.406 27.1218 61.8045 27.056C63.1756 27.0341 64.4995 27.5577 65.4866 28.512L66.9387 27.068C66.256 26.3935 65.4452 25.8631 64.5544 25.5083C63.6636 25.1534 62.7109 24.9812 61.7526 25.002C60.7566 24.9789 59.766 25.1557 58.8391 25.5219C57.9122 25.8882 57.0676 26.4365 56.3551 27.1347C55.6425 27.8328 55.0763 28.6668 54.6897 29.5875C54.3031 30.5082 54.104 31.497 54.104 32.496C54.104 33.495 54.3031 34.4838 54.6897 35.4045C55.0763 36.3252 55.6425 37.1592 56.3551 37.8573C57.0676 38.5555 57.9122 39.1038 58.8391 39.4701C59.766 39.8363 60.7566 40.0131 61.7526 39.99C62.7159 40.0225 63.6753 39.8518 64.5687 39.489C65.462 39.1262 66.2695 38.5794 66.9387 37.884C68.1272 36.5751 68.7597 34.8531 68.702 33.084C68.7119 32.6482 68.6771 32.2126 68.5983 31.784L61.8045 31.802ZM113.147 33.402C112.857 32.5268 112.307 31.7619 111.569 31.211C110.832 30.6601 109.943 30.3497 109.024 30.322C108.404 30.326 107.792 30.456 107.223 30.7039C106.655 30.9519 106.143 31.3127 105.717 31.7647C105.292 32.2166 104.962 32.7503 104.748 33.3335C104.534 33.9167 104.44 34.5374 104.472 35.158C104.458 35.7939 104.572 36.4261 104.807 37.0168C105.042 37.6075 105.394 38.1446 105.841 38.596C106.288 39.0474 106.821 39.4039 107.408 39.6441C107.995 39.8843 108.625 40.0033 109.259 39.994C110.054 39.9973 110.837 39.8032 111.538 39.4291C112.239 39.055 112.837 38.5124 113.279 37.85L111.631 36.744C111.381 37.1472 111.031 37.4787 110.615 37.7065C110.2 37.9343 109.733 38.0505 109.259 38.044C108.768 38.0622 108.283 37.9319 107.867 37.6702C107.451 37.4084 107.123 37.0271 106.926 36.576L113.408 33.976L113.147 33.402ZM106.565 35.014C106.534 34.6599 106.577 34.3033 106.69 33.9663C106.803 33.6294 106.983 33.3192 107.22 33.0549C107.457 32.7906 107.746 32.5778 108.068 32.4298C108.39 32.2817 108.739 32.2015 109.094 32.194C109.46 32.1688 109.826 32.2528 110.146 32.4353C110.465 32.6178 110.724 32.8908 110.889 33.22L106.565 35.014ZM101.378 39.694H103.423V25.482H101.335L101.378 39.694ZM97.9257 31.402H97.8379C97.5102 31.0436 97.1083 30.7612 96.6604 30.5747C96.2125 30.3881 95.7294 30.3019 95.2449 30.322C93.9657 30.322 92.7389 30.8315 91.8344 31.7384C90.9299 32.6454 90.4218 33.8754 90.4218 35.158C90.4218 36.4406 90.9299 37.6706 91.8344 38.5776C92.7389 39.4845 93.9657 39.994 95.2449 39.994C95.7316 40.0125 96.2165 39.923 96.6647 39.7318C97.113 39.5406 97.5136 39.2525 97.8379 38.888H97.9157V39.59C97.9707 39.9547 97.9435 40.3272 97.8361 40.68C97.7287 41.0328 97.5439 41.357 97.2952 41.6288C97.0465 41.9007 96.7402 42.1132 96.3989 42.2508C96.0575 42.3884 95.6898 42.4476 95.3226 42.424C94.7905 42.4199 94.2724 42.2516 93.8389 41.9421C93.4053 41.6326 93.0772 41.1969 92.8991 40.694L91.0581 41.474C91.4058 42.3205 91.9976 43.0438 92.7577 43.5511C93.5178 44.0585 94.4116 44.3269 95.3246 44.322C95.9736 44.356 96.6221 44.2454 97.2234 43.9983C97.8248 43.7512 98.3641 43.3737 98.8027 42.8928C99.2412 42.412 99.5682 41.8397 99.76 41.2171C99.9519 40.5946 100.004 39.9371 99.9123 39.292V30.592H97.8738L97.9257 31.402ZM95.4882 38.084C95.1203 38.0725 94.7583 37.9877 94.4234 37.8345C94.0885 37.6813 93.7874 37.4629 93.5375 37.1918C93.2876 36.9208 93.094 36.6027 92.968 36.2559C92.842 35.9091 92.786 35.5407 92.8034 35.172C92.7833 34.8008 92.8371 34.4293 92.9617 34.0792C93.0863 33.729 93.2791 33.4073 93.5291 33.1327C93.779 32.8581 94.0809 32.6361 94.4173 32.4798C94.7537 32.3234 95.1177 32.2358 95.4882 32.222C95.8541 32.2382 96.213 32.3284 96.5434 32.4869C96.8738 32.6455 97.1689 32.8693 97.411 33.1449C97.6531 33.4206 97.8372 33.7423 97.9524 34.091C98.0676 34.4396 98.1114 34.808 98.0812 35.174C98.1108 35.5411 98.0648 35.9105 97.9462 36.2591C97.8275 36.6077 97.6387 36.9281 97.3915 37.2006C97.1443 37.473 96.8439 37.6916 96.5089 37.8429C96.174 37.9942 95.8116 38.0749 95.4443 38.08L95.4882 38.084ZM123.078 25.484H118.008V39.684H120.122V34.31H123.078C123.674 34.3384 124.269 34.2454 124.828 34.0364C125.386 33.8275 125.897 33.507 126.328 33.0944C126.76 32.6818 127.104 32.1857 127.338 31.6361C127.573 31.0865 127.694 30.4949 127.694 29.897C127.694 29.2991 127.573 28.7075 127.338 28.1579C127.104 27.6083 126.76 27.1122 126.328 26.6996C125.897 26.287 125.386 25.9665 124.828 25.7576C124.269 25.5486 123.674 25.4556 123.078 25.484ZM123.078 32.336H120.122V27.458H123.13C123.464 27.4345 123.799 27.4801 124.114 27.592C124.429 27.7039 124.718 27.8797 124.963 28.1083C125.208 28.337 125.403 28.6138 125.536 28.9213C125.669 29.2289 125.738 29.5606 125.738 29.896C125.738 30.2314 125.669 30.5632 125.536 30.8707C125.403 31.1782 125.208 31.455 124.963 31.6837C124.718 31.9123 124.429 32.0881 124.114 32.2C123.799 32.3119 123.464 32.3575 123.13 32.334L123.078 32.336ZM136.147 30.294C135.376 30.248 134.607 30.4291 133.937 30.8149C133.266 31.2008 132.723 31.7747 132.373 32.466L134.24 33.266C134.489 32.8867 134.843 32.5895 135.259 32.4117C135.676 32.2339 136.135 32.1835 136.58 32.2669C137.024 32.3503 137.435 32.5637 137.759 32.8802C138.083 33.1968 138.306 33.6024 138.401 34.046V34.188C137.723 33.8352 136.971 33.6481 136.207 33.642C134.184 33.642 132.122 34.76 132.122 36.842C132.14 37.2818 132.246 37.7135 132.434 38.1114C132.621 38.5092 132.887 38.8651 133.215 39.1576C133.543 39.4501 133.927 39.6733 134.343 39.814C134.759 39.9546 135.199 40.0097 135.637 39.976C136.185 40.023 136.737 39.9172 137.229 39.6702C137.722 39.4231 138.137 39.0445 138.429 38.576V39.694H140.464V34.218C140.478 33.6682 140.374 33.1218 140.16 32.6156C139.945 32.1093 139.625 31.655 139.221 31.283C138.817 30.9111 138.339 30.6302 137.817 30.4593C137.296 30.2883 136.744 30.2313 136.199 30.292L136.147 30.294ZM135.888 38.094C135.202 38.094 134.228 37.744 134.228 36.894C134.228 35.802 135.425 35.374 136.47 35.374C137.149 35.338 137.825 35.4865 138.427 35.804C138.35 36.4188 138.057 36.9859 137.601 37.4032C137.144 37.8205 136.553 38.0605 135.936 38.08L135.888 38.094ZM147.932 30.594L145.51 36.754H145.43L142.917 30.592H140.645L144.419 39.192L142.319 44.002H144.513L150.269 30.602L147.932 30.594ZM128.885 39.694H130.999V25.482H128.885V39.694Z" fill="white"/>
<path d="M60.9775 20.9502H60.0449V19.207H54.9424V20.9551H54.0049L54 18.4404H54.5811C54.887 18.0954 55.1296 17.6331 55.3086 17.0537C55.4909 16.471 55.6048 15.833 55.6504 15.1396L55.8066 12.0977H60.0596V18.4404H60.9873L60.9775 20.9502ZM55.6504 18.4404H59.1172V12.8691H56.71L56.6074 14.959C56.5651 15.776 56.4561 16.4727 56.2803 17.0488C56.1077 17.625 55.8978 18.0889 55.6504 18.4404Z" fill="white"/>
<path d="M67.4521 15.8818C67.4521 16.5785 67.335 17.1872 67.1006 17.708C66.8662 18.2256 66.5342 18.6211 66.1045 18.8945C65.6748 19.168 65.1735 19.3047 64.6006 19.3047C64.0407 19.3047 63.5443 19.168 63.1113 18.8945C62.6784 18.6178 62.3415 18.2256 62.1006 17.7178C61.863 17.2067 61.7409 16.6159 61.7344 15.9453V15.4326C61.7344 14.749 61.8532 14.1452 62.0908 13.6211C62.3285 13.097 62.6637 12.6966 63.0967 12.4199C63.5329 12.14 64.0309 12 64.5908 12C65.1605 12 65.6618 12.1383 66.0947 12.415C66.5309 12.6885 66.8662 13.0872 67.1006 13.6113C67.335 14.1322 67.4521 14.7393 67.4521 15.4326V15.8818ZM66.5195 15.4229C66.5195 14.5798 66.3503 13.9336 66.0117 13.4844C65.6732 13.0319 65.1995 12.8057 64.5908 12.8057C63.9984 12.8057 63.5312 13.0319 63.1895 13.4844C62.8509 13.9336 62.6768 14.5586 62.667 15.3594V15.8818C62.667 16.6989 62.8379 17.3418 63.1797 17.8105C63.5247 18.276 63.9984 18.5088 64.6006 18.5088C65.2061 18.5088 65.6748 18.2891 66.0068 17.8496C66.3389 17.4069 66.5098 16.7738 66.5195 15.9502V15.4229Z" fill="white"/>
<path d="M74.0879 16.9512C74 17.7031 73.7217 18.2842 73.2529 18.6943C72.7874 19.1012 72.1673 19.3047 71.3926 19.3047C70.5527 19.3047 69.8789 19.0036 69.3711 18.4014C68.8665 17.7992 68.6143 16.9935 68.6143 15.9844V15.3008C68.6143 14.64 68.7314 14.0589 68.9658 13.5576C69.2035 13.0563 69.5387 12.6722 69.9717 12.4053C70.4046 12.1351 70.9059 12 71.4756 12C72.2308 12 72.8363 12.2116 73.292 12.6348C73.7477 13.0547 74.013 13.6374 74.0879 14.3828H73.1455C73.0641 13.8164 72.8867 13.4062 72.6133 13.1523C72.3431 12.8984 71.9639 12.7715 71.4756 12.7715C70.8766 12.7715 70.4062 12.9928 70.0645 13.4355C69.7259 13.8783 69.5566 14.5081 69.5566 15.3252V16.0137C69.5566 16.7852 69.7178 17.3988 70.04 17.8545C70.3623 18.3102 70.8132 18.5381 71.3926 18.5381C71.9134 18.5381 72.3122 18.4209 72.5889 18.1865C72.8688 17.9489 73.0544 17.5371 73.1455 16.9512H74.0879Z" fill="white"/>
<path d="M80.1377 12.8691H77.8525V19.207H76.9199V12.8691H74.6396V12.0977H80.1377V12.8691Z" fill="white"/>
<path d="M83.6338 16.2236L85.2695 12.0977H86.3584L83.8438 18.0205C83.6745 18.3981 83.5166 18.6667 83.3701 18.8262C83.2236 18.9824 83.0511 19.1029 82.8525 19.1875C82.6572 19.2689 82.4115 19.3096 82.1152 19.3096C81.8581 19.3096 81.6937 19.2949 81.6221 19.2656L81.6514 18.5234L82.0957 18.543C82.4375 18.543 82.6914 18.3786 82.8574 18.0498L82.9795 17.7959L83.165 17.3613L80.7432 12.0977H81.793L83.6338 16.2236Z" fill="white"/>
<path d="M92.9111 19.207H91.9688V12.8691H88.4629V19.207H87.5254V12.0977H92.9111V19.207Z" fill="white"/>
<path d="M100.084 19.207H99.1416V15.9209H95.5576V19.207H94.6201V12.0977H95.5576V15.1543H99.1416V12.0977H100.084V19.207Z" fill="white"/>
<path d="M107.218 15.8818C107.218 16.5785 107.101 17.1872 106.866 17.708C106.632 18.2256 106.3 18.6211 105.87 18.8945C105.44 19.168 104.939 19.3047 104.366 19.3047C103.806 19.3047 103.31 19.168 102.877 18.8945C102.444 18.6178 102.107 18.2256 101.866 17.7178C101.629 17.2067 101.507 16.6159 101.5 15.9453V15.4326C101.5 14.749 101.619 14.1452 101.856 13.6211C102.094 13.097 102.429 12.6966 102.862 12.4199C103.299 12.14 103.797 12 104.356 12C104.926 12 105.427 12.1383 105.86 12.415C106.297 12.6885 106.632 13.0872 106.866 13.6113C107.101 14.1322 107.218 14.7393 107.218 15.4326V15.8818ZM106.285 15.4229C106.285 14.5798 106.116 13.9336 105.777 13.4844C105.439 13.0319 104.965 12.8057 104.356 12.8057C103.764 12.8057 103.297 13.0319 102.955 13.4844C102.617 13.9336 102.442 14.5586 102.433 15.3594V15.8818C102.433 16.6989 102.604 17.3418 102.945 17.8105C103.29 18.276 103.764 18.5088 104.366 18.5088C104.972 18.5088 105.44 18.2891 105.772 17.8496C106.104 17.4069 106.275 16.7738 106.285 15.9502V15.4229Z" fill="white"/>
<path d="M116.568 19.207H115.626V15.9209H112.042V19.207H111.104V12.0977H112.042V15.1543H115.626V12.0977H116.568V19.207Z" fill="white"/>
<path d="M122.247 17.3516H119.269L118.6 19.207H117.633L120.348 12.0977H121.168L123.888 19.207H122.926L122.247 17.3516ZM119.552 16.5801H121.969L120.758 13.2549L119.552 16.5801Z" fill="white"/>
<path d="M16.135 13.8001C15.7994 14.2183 15.6347 14.7487 15.6742 15.2841V38.7181C15.6382 39.2591 15.8167 39.7924 16.1709 40.2021L16.2447 40.2861L29.3037 27.1601V26.8421L16.2088 13.7261L16.135 13.8001Z" fill="white"/>
<path d="M35.7464 31.5338L31.4141 27.1598V26.8418L35.7464 22.4658L35.8422 22.5298L41.0283 25.4758C41.3558 25.5755 41.6427 25.7782 41.8465 26.0538C42.0504 26.3295 42.1604 26.6636 42.1604 27.0068C42.1604 27.35 42.0504 27.6841 41.8465 27.9598C41.6427 28.2355 41.3558 28.4381 41.0283 28.5378L35.8621 31.4838L35.7464 31.5338Z" fill="white"/>
<path d="M34.8171 32.5301L30.3571 28.0601L17.1924 41.2601C17.4914 41.5284 17.875 41.6828 18.276 41.6963C18.6771 41.7098 19.0702 41.5816 19.3865 41.3341L34.8231 32.5341" fill="white"/>
<path d="M34.8168 21.4698L19.3802 12.6698C19.0658 12.419 18.673 12.2878 18.2714 12.2996C17.8698 12.3113 17.4854 12.4651 17.186 12.7338L30.3507 25.9338L34.8168 21.4698Z" fill="white"/>
</svg>
