<svg width="32" height="32" viewBox="0 0 32 32" fill="none" xmlns="http://www.w3.org/2000/svg">
<path fill-rule="evenodd" clip-rule="evenodd" d="M9.75 2.75C5.88401 2.75 2.75 5.884 2.75 9.74999V22.4C2.75 26.266 5.884 29.4 9.74999 29.4H22.4C26.266 29.4 29.4 26.266 29.4 22.4V9.75C29.4 5.88401 26.266 2.75 22.4 2.75H9.75ZM24.8044 16.2261C24.8044 18.8382 23.2849 20.4715 20.8435 20.4715C18.4021 20.4715 16.8826 18.8382 16.8826 16.2261V16.2147C16.8826 13.6026 18.4135 11.975 20.8435 11.975C23.2792 11.975 24.8044 13.6083 24.8044 16.2147V16.2261ZM18.6354 16.2261C18.6354 17.9447 19.4948 19.0146 20.8435 19.0146C22.2093 19.0146 23.0516 17.9276 23.0516 16.2261V16.2147C23.0516 14.5017 22.1922 13.4318 20.8435 13.4318C19.5004 13.4318 18.6354 14.496 18.6354 16.2147V16.2261ZM6.84961 20.3292H8.56826V12.1172H6.84961V20.3292ZM9.93407 20.3292H11.6527V17.7398H13.2348C14.9648 17.7398 16.1201 16.6244 16.1201 14.9342V14.9229C16.1201 13.2327 14.9648 12.1172 13.2348 12.1172H9.93407V20.3292ZM12.8137 13.4774C13.7982 13.4774 14.3787 13.9952 14.3787 14.9285V14.9399C14.3787 15.8732 13.7982 16.3968 12.8137 16.3968H11.6527V13.4774H12.8137Z" fill="url(#paint0_linear_1351_7135)"/>
<defs>
<linearGradient id="paint0_linear_1351_7135" x1="2.75" y1="30.0663" x2="30.425" y2="30.0663" gradientUnits="userSpaceOnUse">
<stop stop-color="#F05323"/>
<stop offset="1" stop-color="#FF7253"/>
</linearGradient>
</defs>
</svg>
