<svg width="45" height="43" viewBox="0 0 45 43" fill="none" xmlns="http://www.w3.org/2000/svg">
<path fill-rule="evenodd" clip-rule="evenodd" d="M38.8641 0H6.13633C2.75375 0 0 2.63167 0 5.86352V37.1368C0 40.369 2.75375 43 6.13633 43H38.8641C42.2486 43 45 40.369 45 37.1368V5.86352C45 2.63167 42.2486 0 38.8641 0ZM29.7597 27.8873C31.0336 27.2763 31.8395 26.0321 31.8395 24.6706V7.1217L26.3938 9.72168C25.1193 10.332 24.3151 11.5765 24.3151 12.9372V30.4873L29.7597 27.8873ZM18.4724 33.2784C19.748 32.6696 20.5527 31.425 20.5527 30.0639V22.4006L15.1089 25.0005C13.8326 25.6091 13.0283 26.8552 13.0283 28.2162V35.8799L18.4724 33.2784Z" fill="url(#paint0_linear_6_49)"/>
<defs>
<linearGradient id="paint0_linear_6_49" x1="45" y1="43" x2="-1.70952e-08" y2="43" gradientUnits="userSpaceOnUse">
<stop stop-color="#F05323"/>
<stop offset="1" stop-color="#FF7253"/>
</linearGradient>
</defs>
</svg>
