<svg width="32" height="32" viewBox="0 0 32 32" fill="none" xmlns="http://www.w3.org/2000/svg">
<g clip-path="url(#clip0_1187_3182)">
<path d="M20.8305 9.22384C19.3681 11.8055 18.9288 13.1068 18.4027 14.947C17.3997 14.8766 16.7788 14.8447 15.0653 14.8958C13.8606 14.9318 13.8615 14.9402 12.9393 15.0043C12.9393 13.5495 12.9689 11.0326 12.8691 9.22384C12.6829 5.84999 12.2918 4.66248 12.0194 3.93219C11.7105 3.10426 11.5285 2.86953 10.7591 3.54277C9.53488 4.61394 7.7439 6.54091 6.35228 10.4843C5.05038 14.1734 5.09156 17.8194 5.0456 18.1376C4.99964 18.4557 4.39855 19.545 3.76844 22.899C3.26435 25.5822 3.59789 28.3181 3.82766 29.3506L4.76366 30.1241L10.5079 31.2496C16.3 30.3411 28.069 27.3736 28.069 27.3736C28.069 27.3736 28.0452 24.7819 27.8316 22.8055C27.6801 21.4044 27.3371 20.0253 27.1135 19.1259L27.1033 19.085C27.3167 17.9352 27.3327 16.0924 27.4438 12.4471C27.5838 7.8471 26.6845 3.32237 26.3894 3.1991C26.0943 3.07582 22.8951 5.57887 20.8305 9.22384Z" fill="#FF4810"/>
<path d="M9.40505 16.0414C8.56615 15.8384 7.73685 16.1402 7.48113 16.7922C7.22541 17.4442 8.23824 17.9026 8.79158 18.0378C9.34492 18.173 10.5354 18.2408 10.7237 17.56C10.912 16.8792 10.2439 16.2443 9.40505 16.0414Z" fill="#F6F6F5"/>
<path d="M17.1164 15.5618C15.5189 15.8757 15.1751 16.8957 15.4147 17.3904C15.6544 17.8851 16.0263 18.159 17.2842 17.936C18.884 17.6523 19.0482 17.0787 19.0683 16.7839C19.1026 16.2797 18.6526 15.26 17.1164 15.5618Z" fill="#F6F6F5"/>
<path d="M23.7308 23.288C23.8404 19.8498 21.2514 18.3612 18.4373 18.3871C15.8078 18.482 13.4856 19.8036 13.377 23.3831C13.2684 26.9626 16.9653 27.3814 18.6621 27.3234C20.3589 27.2654 23.6212 26.7263 23.7308 23.288Z" fill="white"/>
<path d="M11.5101 23.1696C11.4893 20.8188 10.2741 18.7941 7.66924 18.7901C5.70917 18.8084 4.25115 20.9428 4.19306 23.4361C4.13498 25.9294 5.28744 27.3028 7.44981 27.3392C9.61218 27.3757 11.5309 25.5204 11.5101 23.1696Z" fill="white"/>
<circle cx="17.2066" cy="23.7829" r="1.73276" transform="rotate(-0.525968 17.2066 23.7829)" fill="#1C1D21"/>
<circle r="0.533424" transform="matrix(0.999958 -0.00917974 -0.00917974 -0.999958 17.5285 22.7167)" fill="white"/>
<circle cx="9.52301" cy="23.7831" r="1.73276" transform="rotate(-0.525968 9.52301 23.7831)" fill="#1C1D21"/>
<circle r="0.533424" transform="matrix(0.999958 -0.00917974 -0.00917974 -0.999958 9.84393 22.7165)" fill="white"/>
<path d="M7.95305 27.66C6.80813 27.9228 4.54699 27.732 3.54972 27.7235C2.55245 27.7151 2.0953 28.0418 2.0305 28.3643C1.97865 28.6223 2.80899 28.9169 3.21718 29.0826C2.88542 29.2381 2.46909 29.5809 2.55747 29.7941C2.77605 30.3213 5.87271 34.9614 15.3339 34.8746C26.0402 34.7763 29.8015 28.4254 29.7987 28.1205C29.7965 27.8766 29.1055 27.6638 28.7604 27.5879C29.0026 27.5179 29.5477 27.3537 29.7908 27.2566C30.0946 27.1352 30.4987 26.8604 30.3275 26.6756C30.1564 26.4909 28.8287 25.8078 27.0177 25.9938C25.2067 26.1799 24.4206 27.1872 20.376 27.6648C16.3314 28.1424 14.1333 26.6112 12.8531 25.7716C11.52 24.8973 10.8958 25.1748 10.3962 25.9668C9.99584 26.6014 9.46095 27.3139 7.95305 27.66Z" fill="#F6F6F5"/>
<path d="M10.4266 25.8672C10.2352 26.1419 10.0555 26.4269 9.70669 26.802C9.95875 26.9612 10.4212 27.3978 11.4242 27.3886C12.4953 27.3787 13.6863 26.7571 14.0033 26.4589C13.5554 26.1968 13.02 25.8638 12.7465 25.6615C11.6378 24.8416 10.9228 25.1552 10.4266 25.8672Z" fill="#898D94"/>
</g>
<defs>
<clipPath id="clip0_1187_3182">
<rect width="32" height="32" fill="white"/>
</clipPath>
</defs>
</svg>
