<svg width="89" height="48" viewBox="0 0 89 48" fill="none" xmlns="http://www.w3.org/2000/svg">
<path d="M1.60107 1.3595V2.38703C1.64113 2.46635 9.30053 2.19002 11.165 2.38703C17.078 3.05995 22.9515 9.03228 23.9035 13.5006C24.8571 9.03125 30.6108 3.05995 37.0794 2.38755L87.2003 2.30875V1.3595H1.60107Z" fill="#00CCFF"/>
<path d="M46.365 28.9234C48.0713 29.5165 49.3813 31.6525 49.8178 33.4716L47.7145 34.0248C47.2385 32.5618 46.1668 31.02 44.54 30.5451C42.3171 29.9126 39.8173 30.3066 38.111 31.7702C36.0472 34.0253 35.6503 37.6232 36.6429 40.4321C37.3171 42.7256 39.5796 44.1099 41.7219 44.3074C43.9053 44.6236 45.889 43.8724 47.6749 42.6463C47.7941 41.7365 47.7941 40.3917 47.7941 39.3237L42.6349 39.2848V37.1489C42.5553 37.2282 48.0713 37.1489 49.9764 37.1888C49.9764 39.4429 50.0951 41.5784 50.016 43.833C47.1594 46.0866 43.0714 47.2339 39.4605 46.0084C36.8411 45.296 34.4995 42.765 33.9834 40.0765C33.2291 36.0026 34.1031 31.6131 37.674 29.4372C39.1426 28.5284 40.6502 28.1722 42.1584 28.1722C43.5869 28.1722 45.2933 28.4097 46.365 28.924V28.9234ZM87.3593 33.4317H87.2797C86.6451 33.748 85.8116 33.9071 85.0178 34.0248C84.5808 32.7204 83.7083 31.3362 82.2798 30.7431C80.0573 29.952 77.517 30.387 76.0099 32.2056C73.9456 35.2115 73.9456 39.8385 75.8903 42.6868C77.9936 45.296 83.3119 45.3359 84.819 41.6188L85.3757 40.2335C86.2486 40.3134 86.7647 40.5109 87.6371 40.669C87.2402 42.8838 85.8111 44.9409 83.7083 45.9285C81.0099 47.1157 76.8829 46.8783 74.5418 44.6236C71.6842 41.2232 71.2472 36.042 73.311 32.0874C74.1048 30.782 75.3347 29.4771 76.8033 29.0028C78.8665 28.0934 81.8433 28.054 83.9461 29.121C84.7004 29.4372 86.0894 30.5845 86.5264 31.5732L87.3588 33.4317H87.3593ZM3.74387 28.5284L3.78392 37.0307C3.78392 37.0307 11.3237 29.6353 12.4354 28.5284H15.5308C14.0221 30.3066 10.0142 33.9854 8.34741 35.6465C8.98209 36.5563 15.2129 45.0197 16.0463 46.1665C15.1734 46.1665 13.3874 46.2054 12.8714 46.2054C10.728 43.3182 8.70429 40.2735 6.56197 37.4262C6.52191 37.4262 3.74387 40.1153 3.70433 40.1153L3.74387 46.2448C3.74387 46.2448 1.40282 46.2852 1.40282 46.2448L1.36328 43.9123L1.44236 28.5289H3.74387V28.5284ZM30.8085 28.489V30.7431L20.332 30.7037V35.9632C20.4111 36.042 30.1743 35.9632 30.1743 35.9632V38.2573C30.1337 38.2168 20.3715 38.2573 20.3715 38.2573C20.4116 39.4429 20.4116 42.0138 20.4116 44.1493C20.4116 44.1093 31.2054 44.1093 31.2455 44.1093C31.2054 44.1093 31.2054 46.2453 31.2455 46.2852C31.2054 46.2453 22.4754 46.2453 18.0305 46.2453L17.991 28.489C17.991 28.4496 30.809 28.489 30.809 28.489H30.8085ZM61.0486 46.6408C58.4292 46.5615 55.9295 45.2965 54.3813 43.0818C52.278 39.839 52.278 35.1721 54.3022 31.8899C55.3733 30.3471 57.1593 28.9634 58.6279 28.5683C59.2626 28.3698 60.2942 28.1722 61.0486 28.1722V30.1501C60.3738 30.1501 59.6595 30.2688 58.9848 30.5451C56.8414 31.1776 55.5325 33.5904 55.2547 35.4095C55.0955 36.0814 55.0955 37.0701 55.0955 37.11C55.0955 38.9686 55.5721 40.669 56.445 42.2119C57.6369 43.7299 59.171 44.4935 61.0486 44.5054V46.6403V46.6408Z" fill="black"/>
<path d="M69.6596 37.07V37.9404C69.624 39.459 69.2727 40.9536 68.6279 42.33C67.2675 45.1321 63.9162 46.6402 61.0481 46.6402V44.5053C63.2846 44.3197 65.2568 43.0288 66.2073 41.5389C67.3586 39.1271 67.1999 35.8449 66.3269 33.4322C65.3749 31.3361 63.2316 30.11 61.0481 30.1495V28.1716H61.0887C66.9554 28.5371 69.4941 32.6104 69.6601 37.07H69.6596ZM1.60107 8.7937V9.82227C1.64113 9.90159 9.30053 9.62526 11.165 9.82227C17.078 10.4947 22.9515 16.4665 23.9035 20.9354C24.8565 16.4665 30.6108 10.4952 37.0794 9.82279L87.2003 9.74399V8.7937H1.60107Z" fill="black"/>
<path d="M1.60107 15.8729V16.9015C1.60107 16.9798 9.26047 16.6646 11.1255 16.9015C17.078 17.5734 22.9515 23.5452 23.8639 27.9747C24.8565 23.5452 30.5703 17.5734 37.0794 16.9015L87.1607 16.8217L87.2003 15.8729H1.60107Z" fill="#00CCFF"/>
</svg>
