<svg width="52" height="52" viewBox="0 0 52 52" fill="none" xmlns="http://www.w3.org/2000/svg">
<path fill-rule="evenodd" clip-rule="evenodd" d="M9.18506 22.5147C9.21628 13.3267 16.6899 5.90366 25.8779 5.93488C35.0658 5.9661 42.4888 13.4397 42.4576 22.6276V22.8161C42.3445 28.7885 39.0096 34.3087 34.9213 38.6232C32.583 41.0514 29.972 43.2009 27.1402 45.0292C26.3829 45.6842 25.2597 45.6842 24.5025 45.0292C20.2807 42.2812 16.5754 38.8119 13.5561 34.7798C10.865 31.2637 9.33709 26.9962 9.18506 22.571V22.5147Z" stroke="white" stroke-width="1.5" stroke-linecap="round" stroke-linejoin="round"/>
<path d="M25.8211 28.1668C28.7659 28.1668 31.153 25.7797 31.153 22.8349C31.153 19.8902 28.7659 17.5031 25.8211 17.5031C22.8764 17.5031 20.4893 19.8902 20.4893 22.8349C20.4893 25.7797 22.8764 28.1668 25.8211 28.1668Z" stroke="white" stroke-opacity="0.7" stroke-width="1.5" stroke-linecap="round" stroke-linejoin="round"/>
</svg>
