<svg width="32" height="32" viewBox="0 0 32 32" fill="none" xmlns="http://www.w3.org/2000/svg">
<rect width="32" height="32" rx="4" fill="url(#paint0_linear_1315_4655)"/>
<path d="M8.29017 7.68893C8.08144 7.95227 7.97901 8.28623 8.00359 8.6233V23.378C7.98115 23.7187 8.09218 24.0545 8.31251 24.3124L8.35841 24.3653L16.4809 16.1008V15.9006L8.33608 7.64233L8.29017 7.68893Z" fill="white"/>
<path d="M20.4886 18.8547L17.7939 16.1007V15.9005L20.4886 13.1453L20.5482 13.1856L23.7738 15.0404C23.9775 15.1032 24.156 15.2308 24.2828 15.4044C24.4096 15.578 24.478 15.7883 24.478 16.0044C24.478 16.2205 24.4096 16.4309 24.2828 16.6044C24.156 16.778 23.9775 16.9056 23.7738 16.9684L20.5606 18.8233L20.4886 18.8547Z" fill="white"/>
<path d="M19.9105 19.4819L17.1365 16.6675L8.94824 24.9786C9.13424 25.1475 9.37281 25.2447 9.62227 25.2533C9.87172 25.2618 10.1162 25.181 10.3129 25.0252L19.9143 19.4844" fill="white"/>
<path d="M19.9104 12.5182L10.309 6.97745C10.1135 6.81955 9.8692 6.73698 9.61943 6.74435C9.36966 6.75173 9.13051 6.84857 8.94434 7.01775L17.1326 15.3289L19.9104 12.5182Z" fill="white"/>
<defs>
<linearGradient id="paint0_linear_1315_4655" x1="21.8956" y1="10.2827" x2="-6.52698" y2="28.035" gradientUnits="userSpaceOnUse">
<stop stop-color="#F77248"/>
<stop offset="1" stop-color="#F2244B"/>
</linearGradient>
</defs>
</svg>
