<svg width="52" height="52" viewBox="0 0 52 52" fill="none" xmlns="http://www.w3.org/2000/svg">
<path fill-rule="evenodd" clip-rule="evenodd" d="M36.1523 4.33334H15.8476C8.76982 4.33334 4.33331 9.34285 4.33331 16.4345V35.5654C4.33331 42.6571 8.7492 47.6667 15.8476 47.6667H36.1523C43.2508 47.6667 47.6666 42.6571 47.6666 35.5654V16.4345C47.6666 9.34285 43.2508 4.33334 36.1523 4.33334Z" stroke="white" stroke-width="1.5" stroke-linecap="round" stroke-linejoin="round"/>
<path d="M25.8397 14.8006V21.2845" stroke="white"/>
<path d="M25.8398 30.7155C28.5093 30.7155 30.6732 28.5515 30.6732 25.8821C30.6732 23.2127 28.5093 21.0487 25.8398 21.0487C23.1704 21.0487 21.0064 23.2127 21.0064 25.8821C21.0064 28.5515 23.1704 30.7155 25.8398 30.7155Z" stroke="white"/>
<path d="M35.3185 31.4228L29.7034 28.181" stroke="white"/>
<path d="M25.8397 15.1542C27.3371 15.1542 28.5511 13.9403 28.5511 12.4428C28.5511 10.9453 27.3371 9.73135 25.8397 9.73135C24.3422 9.73135 23.1282 10.9453 23.1282 12.4428C23.1282 13.9403 24.3422 15.1542 25.8397 15.1542Z" stroke="#FE5000"/>
<path d="M25.8397 36.8457C27.3371 36.8457 28.5511 38.0597 28.5511 39.5571C28.5511 41.0546 27.3371 42.2686 25.8397 42.2686C24.3422 42.2686 23.1282 41.0546 23.1282 39.5571C23.1282 38.0597 24.3422 36.8457 25.8397 36.8457Z" stroke="white"/>
<path d="M35.1146 31.3049C34.3659 32.6018 34.8102 34.2601 36.1071 35.0088C37.4039 35.7576 39.0622 35.3132 39.811 34.0164C40.5597 32.7195 40.1154 31.0612 38.8185 30.3125C37.5217 29.5638 35.8634 30.0081 35.1146 31.3049Z" stroke="#FE5000"/>
<path d="M16.3293 20.4593C17.0781 19.1624 16.6337 17.5041 15.3369 16.7554C14.04 16.0066 12.3817 16.451 11.633 17.7478C10.8843 19.0447 11.3286 20.703 12.6254 21.4517C13.9223 22.2005 15.5806 21.7561 16.3293 20.4593Z" stroke="white"/>
<path d="M16.0416 31.4575L21.6568 28.2156" stroke="white"/>
<path d="M25.8397 37.1994V30.7155" stroke="white"/>
<path d="M16.1251 20.3413L21.7402 23.5832" stroke="white"/>
<path d="M35.0311 20.4937C35.7798 21.7906 37.4381 22.2349 38.735 21.4862C40.0318 20.7375 40.4762 19.0792 39.7274 17.7823C38.9787 16.4855 37.3204 16.0411 36.0235 16.7899C34.7267 17.5386 34.2823 19.1969 35.0311 20.4937Z" stroke="white"/>
<path d="M16.2459 31.3396C15.4972 30.0427 13.8389 29.5984 12.542 30.3472C11.2452 31.0959 10.8008 32.7542 11.5496 34.051C12.2983 35.3479 13.9566 35.7922 15.2534 35.0435C16.5503 34.2947 16.9946 32.6365 16.2459 31.3396Z" stroke="#FE5000"/>
<path d="M35.2355 20.3758L29.6202 23.6177" stroke="white"/>
</svg>
