<svg width="52" height="52" viewBox="0 0 52 52" fill="none" xmlns="http://www.w3.org/2000/svg">
<path fill-rule="evenodd" clip-rule="evenodd" d="M46.6352 21.1311C45.2505 12.6088 38.0117 6.26861 29.3812 6.01901C28.9708 6.00293 28.5711 6.15068 28.2697 6.42968C27.9683 6.70868 27.7904 7.09606 27.7748 7.50643V7.64527L28.7466 22.1823C28.8103 23.1608 29.6516 23.9046 30.6307 23.8481L45.2074 22.8763C45.618 22.846 45.9997 22.6531 46.2678 22.3405C46.5358 22.0276 46.6682 21.621 46.6352 21.2105V21.1311Z" stroke="white" stroke-opacity="0.7" stroke-width="1.5" stroke-linecap="round" stroke-linejoin="round"/>
<path d="M19.2867 14.6659C20.214 14.4515 21.1628 14.9259 21.5476 15.7964C21.6484 16.0011 21.7091 16.2233 21.7262 16.4508C21.9244 19.267 22.3409 25.4347 22.579 28.7666C22.6195 29.3668 22.8977 29.926 23.3518 30.3205C23.8057 30.7151 24.3983 30.9125 24.9985 30.8689L37.235 30.1151C37.7812 30.0824 38.3168 30.2768 38.7148 30.6523C39.1128 31.0277 39.3381 31.5512 39.3371 32.0985C38.8411 39.4875 33.5323 45.6649 26.3017 47.266C19.0712 48.8672 11.6507 45.5089 8.08155 39.0199C7.01609 37.1523 6.34134 35.0876 6.09831 32.9513C5.99442 32.2955 5.95457 31.6314 5.97932 30.9679C6.00038 23.0769 11.5423 16.2778 19.2669 14.6659" stroke="white" stroke-width="1.5" stroke-linecap="round" stroke-linejoin="round"/>
</svg>
