<svg width="52" height="52" viewBox="0 0 52 52" fill="none" xmlns="http://www.w3.org/2000/svg">
<path d="M10.3879 15.2874C10.3879 12.5813 12.5828 10.3864 15.2868 10.3864H17.5163C18.8076 10.3864 20.0491 9.87511 20.9678 8.96294L22.5256 7.40294C24.4344 5.48544 27.5371 5.47677 29.4546 7.38561L29.4741 7.40294L31.0341 8.96294C31.9506 9.87511 33.1921 10.3864 34.4856 10.3864H36.7129C39.4191 10.3864 41.6139 12.5813 41.6139 15.2874V17.5126C41.6139 18.8083 42.1252 20.0476 43.0374 20.9663L44.5974 22.5262C46.5149 24.435 46.5257 27.5355 44.6169 29.4552L44.5974 29.4747L43.0374 31.0347C42.1252 31.949 41.6139 33.1927 41.6139 34.484V36.7135C41.6139 39.4197 39.4191 41.6123 36.7129 41.6123H34.4856C33.1921 41.6123 31.9506 42.1258 31.0341 43.038L29.4741 44.5958C27.5674 46.5155 24.4647 46.5242 22.5451 44.6153C22.5386 44.6088 22.5321 44.6023 22.5256 44.5958L20.9678 43.038C20.0491 42.1258 18.8076 41.6123 17.5163 41.6123H15.2868C12.5828 41.6123 10.3879 39.4197 10.3879 36.7135V34.484C10.3879 33.1927 9.87444 31.949 8.96227 31.0347L7.40444 29.4747C5.48477 27.5658 5.47611 24.4632 7.38494 22.5457L7.40444 22.5262L8.96227 20.9663C9.87444 20.0476 10.3879 18.8083 10.3879 17.5126V15.2874Z" stroke="white" stroke-width="1.5" stroke-linecap="round" stroke-linejoin="round"/>
<path d="M20.4316 31.567L31.5683 20.4305" stroke="white" stroke-opacity="0.5" stroke-width="1.5" stroke-linecap="round" stroke-linejoin="round"/>
<path d="M31.5605 33.1987C31.1272 33.1987 30.7155 33.0253 30.4122 32.722C30.2605 32.5703 30.1522 32.3753 30.0655 32.1803C29.9789 31.9853 29.9355 31.7925 29.9355 31.5737C29.9355 31.357 29.9789 31.1403 30.0655 30.9453C30.1522 30.7503 30.2605 30.577 30.4122 30.4253C31.0189 29.8187 32.1022 29.8187 32.7089 30.4253C32.8605 30.577 32.9905 30.7503 33.0772 30.9453C33.1422 31.1403 33.1855 31.357 33.1855 31.5737C33.1855 31.7925 33.1422 31.9853 33.0772 32.1803C32.9905 32.3753 32.8605 32.5703 32.7089 32.722C32.4055 33.0253 31.9939 33.1987 31.5605 33.1987Z" fill="white" fill-opacity="0.5"/>
<path d="M20.4248 22.0629C20.2081 22.0629 20.0131 22.0174 19.8181 21.9307C19.6231 21.844 19.4281 21.7379 19.2765 21.5861C19.1248 21.4128 19.0165 21.2395 18.9298 21.0445C18.8431 20.8473 18.7998 20.6545 18.7998 20.4378C18.7998 20.219 18.8431 20.0045 18.9298 19.8095C19.0165 19.6145 19.1248 19.4195 19.2765 19.2895C19.9048 18.6806 20.9665 18.6806 21.5731 19.2895C21.8764 19.5906 22.0497 20.0045 22.0497 20.4378C22.0497 20.6545 22.0281 20.8473 21.9414 21.0445C21.8547 21.2395 21.7247 21.4128 21.5731 21.5861C21.4215 21.7379 21.2481 21.844 21.0531 21.9307C20.8581 22.0174 20.6415 22.0629 20.4248 22.0629Z" fill="white" fill-opacity="0.5"/>
</svg>
