<svg width="32" height="32" viewBox="0 0 32 32" fill="none" xmlns="http://www.w3.org/2000/svg">
<path d="M21.587 2.66663H10.4137C5.56033 2.66663 2.66699 5.55996 2.66699 10.4133V21.5733C2.66699 26.44 5.56033 29.3333 10.4137 29.3333H21.5737C26.427 29.3333 29.3203 26.44 29.3203 21.5866V10.4133C29.3337 5.55996 26.4403 2.66663 21.587 2.66663ZM23.0137 13.28L19.9337 17.2533C19.547 17.7466 19.0003 18.0666 18.3737 18.1333C17.747 18.2133 17.1337 18.04 16.6403 17.6533L14.2003 15.7333C14.107 15.6533 14.0003 15.6533 13.947 15.6666C13.8937 15.6666 13.8003 15.6933 13.7203 15.8L10.547 19.92C10.347 20.1733 10.0537 20.3066 9.76033 20.3066C9.54699 20.3066 9.33366 20.24 9.14699 20.0933C8.70699 19.76 8.62699 19.1333 8.96033 18.6933L12.1337 14.5733C12.5203 14.08 13.067 13.76 13.6937 13.68C14.307 13.6 14.9337 13.7733 15.427 14.16L17.867 16.08C17.9603 16.16 18.0537 16.16 18.1203 16.1466C18.1737 16.1466 18.267 16.12 18.347 16.0133L21.427 12.04C21.7603 11.6 22.4003 11.52 22.827 11.8666C23.267 12.2266 23.347 12.8533 23.0137 13.28Z" fill="url(#paint0_linear_549_7992)"/>
<defs>
<linearGradient id="paint0_linear_549_7992" x1="29.3204" y1="29.3333" x2="2.66699" y2="29.3333" gradientUnits="userSpaceOnUse">
<stop stop-color="#F05323"/>
<stop offset="1" stop-color="#FF7253"/>
</linearGradient>
</defs>
</svg>
