<svg width="24" height="24" viewBox="0 0 24 24" fill="none" xmlns="http://www.w3.org/2000/svg">
<path d="M20.3623 3.01588C21.1691 2.95273 21.9843 3.17605 22.6711 3.58988C23.6816 4.35721 23.9624 5.20675 24 6.78411V17.5441C23.8811 19.3631 22.7123 20.3351 21.7011 20.7799C21.2602 20.9412 21.0554 20.9814 20.5336 20.9814C19.647 20.9814 18.5172 20.6579 17.791 19.7272C17.4652 19.4061 16.8231 17.826 16.8231 17.826L13.1108 7.9568C12.88 7.40044 12.3498 7.08751 11.9047 7.03953C11.4427 7.02754 10.9899 7.29778 10.7725 7.87496L9.64095 10.993L7.6657 5.77475C8.63397 4.03264 9.56002 3.6308 10.6483 3.22438C11.0163 3.10901 11.5279 3.0374 11.948 3.00882V3.00529C11.9622 3.00471 11.9764 3.00477 11.9905 3.00482C12.0023 3.00486 12.0141 3.00491 12.0257 3.00459C12.0518 3.00282 12.0792 3.00106 12.1053 3V3.00318C12.9859 2.98977 13.8652 3.18945 14.5636 3.63045C14.5719 3.63592 14.5805 3.64159 14.5894 3.64745C14.9713 3.89861 15.9079 4.5146 16.5371 6.0577L20.408 17.0177V7.02612L20.3159 7.29637L18.9581 11.2361L17.1053 5.97655C17.3463 4.80244 18.2347 3.79097 19.2424 3.30446C19.5443 3.1644 19.9362 3.07056 20.2659 3.02681V3.02399C20.2824 3.02213 20.2991 3.02088 20.3158 3.01964C20.3244 3.019 20.333 3.01836 20.3415 3.01764L20.3623 3.01588Z" fill="black"/>
<path d="M12.0073 16.9621C12.4749 16.9808 12.9897 16.7127 13.1899 16.1285L14.364 13.0122L16.3371 18.1899C15.3664 19.9309 14.4389 20.3779 13.3517 20.7801C12.9341 20.9121 12.4915 20.983 12.0453 20.9981C11.9451 21.001 11.7832 21.0003 11.6829 20.9981C10.8748 20.9696 10.0796 20.7565 9.43994 20.3776L9.43527 20.3744C9.06652 20.1269 8.10198 19.4794 7.46258 17.908L3.54869 6.98467V16.9353L5.04155 12.73L6.89788 17.9888C6.61851 19.2028 5.76811 20.2146 4.76149 20.7004C4.38572 20.8743 4.08736 20.9636 3.68872 20.9879L3.58985 20.9914C2.78519 21.0405 1.9756 20.8083 1.32785 20.3776C0.323695 19.648 0.0369435 18.7568 0 17.2183V6.42231C0.122089 4.63963 1.2501 3.66979 2.26094 3.2242C2.74121 3.06227 2.94457 3.02276 3.46952 3.02276C4.35616 2.98183 5.44477 3.34486 6.21249 4.23567C6.53231 4.5606 7.18041 6.13513 7.18041 6.13513L10.8927 16.0463C11.107 16.6111 11.5556 16.9219 12.0073 16.9621Z" fill="black"/>
</svg>
