<svg xmlns="http://www.w3.org/2000/svg" viewBox="0 0 110 110"><g data-name="Vrstva 2"><g data-name="Vrstva 1"><path d="M0 0h110v110H0z" style="fill:none"/><path d="M36.93 26.6h-5.17v-5.17a2.59 2.59 0 0 1 5.17 0Zm10.32 0h-5.16v-5.17a2.58 2.58 0 1 1 5.16 0Zm10.33 0h-5.16v-5.17a2.58 2.58 0 0 1 5.16 0Zm10.33 0h-5.16v-5.17a2.58 2.58 0 0 1 5.16 0Zm10.33 0h-5.17v-5.17a2.59 2.59 0 0 1 5.17 0ZM36.93 88.57a2.59 2.59 0 0 1-5.17 0V83.4h5.17ZM26.6 78.24h-5.17a2.59 2.59 0 0 1 0-5.17h5.17Zm0-10.33h-5.17a2.58 2.58 0 0 1 0-5.16h5.17Zm0-10.33h-5.17a2.58 2.58 0 0 1 0-5.16h5.17Zm0-10.33h-5.17a2.58 2.58 0 1 1 0-5.16h5.17Zm0-10.32h-5.17a2.59 2.59 0 0 1 0-5.17h5.17Zm64.55 38.73a2.59 2.59 0 0 1-2.58 2.58H83.4v-5.17h5.17a2.59 2.59 0 0 1 2.58 2.59Zm0-10.33a2.59 2.59 0 0 1-2.58 2.58H83.4v-5.16h5.17a2.58 2.58 0 0 1 2.58 2.58Zm0-10.33a2.58 2.58 0 0 1-2.58 2.58H83.4v-5.16h5.17A2.58 2.58 0 0 1 91.15 55Zm0-10.33a2.58 2.58 0 0 1-2.58 2.58H83.4v-5.16h5.17a2.59 2.59 0 0 1 2.58 2.58Zm0-10.33a2.59 2.59 0 0 1-2.58 2.59H83.4v-5.17h5.17a2.59 2.59 0 0 1 2.58 2.58Zm-43.9 54.23a2.58 2.58 0 0 1-5.16 0V83.4h5.16Zm10.33 0a2.58 2.58 0 0 1-5.16 0V83.4h5.16Zm10.33 0a2.58 2.58 0 0 1-5.16 0V83.4h5.16Zm10.33 0a2.59 2.59 0 0 1-5.17 0V83.4h5.17Z" style="fill:#e6e6e6"/><path d="m83.4 80.82-2.58 2.58H29.18l-2.58-2.58V29.18l2.58-2.58h51.64l2.58 2.58v51.64z" style="fill:#4c4c4c"/><path d="M33.05 33.05h43.9v43.9h-43.9z" style="fill:#969696"/><path d="M61.45 38.86 42.09 58.23h9.68l-3.22 12.91 19.36-19.37h-9.68l3.22-12.91z" style="fill:#f9c300"/></g></g></svg>