<svg xmlns="http://www.w3.org/2000/svg" viewBox="0 0 110 110"><defs><style>.cls-2{fill:#8ce3d4}.cls-4{fill:#c2f8f0}.cls-5{fill:#17b198}.cls-6{fill:#fff}.cls-7{fill:#f9c300}</style></defs><g id="Vrstva_2" data-name="Vrstva 2"><g id="Vrstva_1-2" data-name="Vrstva 1"><g id="Multicolor"><path d="M23 63.04h64v18H23z" style="fill:#4ac3af"/><path d="m23 63.04 8-16h48l8 16H23z" class="cls-2"/><path d="m28 61.04 6-12h42l6 12H28z" style="fill:#0d9681"/><circle cx="71" cy="55.04" r="1" class="cls-4"/><circle cx="39" cy="55.04" r="1" class="cls-4"/><ellipse cx="55" cy="55.04" class="cls-4" rx="6" ry="5"/><path d="M55 51.56a.45.45 0 0 1 .49.4v.11a4.47 4.47 0 0 1 1.36.38.51.51 0 0 1 .34.47.58.58 0 0 1-.64.52.75.75 0 0 1-.33-.07 3.4 3.4 0 0 0-.78-.26v1.19c1.43.32 2 .8 2 1.68s-.81 1.44-2 1.55v.41a.5.5 0 0 1-1 0v-.42a5.45 5.45 0 0 1-1.82-.52.53.53 0 0 1-.32-.47.59.59 0 0 1 .7-.53.86.86 0 0 1 .37.1 4 4 0 0 0 1.2.44v-1.27c-1.35-.31-2-.74-2-1.67s.79-1.44 2-1.54V52a.45.45 0 0 1 .43-.44Zm-.44 2.53V53c-.45.05-.65.24-.65.49s.09.45.61.6Zm.88 1.37v1.09c.44 0 .67-.23.67-.51s-.2-.43-.71-.58Z" class="cls-5"/><path d="M23 65.04h64v2H23zm0 4h64v2H23zm0 4h64v2H23zm0 4h64v2H23z" class="cls-4"/><path d="M23 65.04h21.53l2-2H23v2zm0 4h17.53l2-2H23v2zm0 10v2h5.53l2-2H23zm0-6h13.53l2-2H23v2zm0 4h9.53l2-2H23v2z" class="cls-2"/><path d="M23 63.04h23.53l2-2H28l6-12h26.53l2-2H31l-8 16z" class="cls-4"/><path d="M49 55c0-2.76 2.69-5 6-5a6.78 6.78 0 0 1 3.55 1l2-2H34l-6 12h20.53l2.36-2.37A4.64 4.64 0 0 1 49 55Zm-10 1a1 1 0 1 1 1-1 1 1 0 0 1-1 1Z" class="cls-5"/><circle cx="39" cy="55.04" r="1" class="cls-6"/><path d="M49 55a4.64 4.64 0 0 0 1.89 3.63L52.61 57a.5.5 0 0 1-.3-.46A.58.58 0 0 1 53 56a.79.79 0 0 1 .37.1l.12.06.9-.91c-1.22-.3-1.84-.73-1.84-1.62s.79-1.44 2-1.54V52a.5.5 0 0 1 1 0v.11a4.32 4.32 0 0 1 1.36.38.57.57 0 0 1 .18.12L58.55 51A6.78 6.78 0 0 0 55 50c-3.31 0-6 2.28-6 5Z" class="cls-6"/><path d="M55.4 53.11v1l.79-.79a4.2 4.2 0 0 0-.79-.21Zm-1.53.42c0 .24.13.41.65.56V53c-.45.09-.65.28-.65.53ZM23 67.04h19.53l2-2H23v2zm0 4h15.53l2-2H23v2zm0 4h11.53l2-2H23v2zm0 4h7.53l2-2H23v2z" class="cls-6"/><path d="m69.24 27.2 3.44 3.44-7.24 7.24-8.14-8.14L40 47.04h6.91L57.3 36.65l8.14 8.14L76.13 34.1l3.44 3.44 3.79-14.12-14.12 3.78z" class="cls-7"/></g><path d="M0 0h110v110H0z" style="fill:none"/><path d="M74.2 82.77a2.8 2.8 0 0 0 2.8 2.81h19.63a2.81 2.81 0 0 0 2.81-2.81v-14A2.8 2.8 0 0 0 96.63 66H77a2.8 2.8 0 0 0-2.8 2.8Z" class="cls-7"/><path d="M95.93 66h-4.21v-5a4.91 4.91 0 1 0-9.81 0v5H77.7v-5a9.12 9.12 0 1 1 18.23 0Z" style="fill:#969696"/><path d="M88.73 72.51a2.36 2.36 0 1 0-3.45 2.09L84 81.37h4.72l-1.26-6.77a2.35 2.35 0 0 0 1.27-2.09Z" style="fill:#692e19"/></g></g></svg>