<svg id="Layer_1" data-name="Layer 1" xmlns="http://www.w3.org/2000/svg" viewBox="0 0 172 31.43"><defs><style>.cls-1{fill:#14a6e0;fill-rule:evenodd;}</style></defs><title>logo</title><path class="cls-1" d="M31.36,30.87H23l.21-.85,3.6-15.47-6,9.18-.21.36H14.55l-.07-.64-2.05-10L8.55,30.3l-.14.57H0L.21,30,6.92,1,7,.49h9.68l.14.5,2.83,13.14L28.75.78l.07-.29h10l-.14.78L32,30.3l-.07.57Zm18.09.49c1.13,0,2.19-.07,3.24-.14a27.67,27.67,0,0,0,2.9-.49A10.58,10.58,0,0,0,58.2,30a12.07,12.07,0,0,0,2.34-1.13,7.73,7.73,0,0,0,1.9-1.48,15.73,15.73,0,0,0,1.42-1.77,7.52,7.52,0,0,0,1-2.33,9.18,9.18,0,0,0,.22-2.54,9.68,9.68,0,0,0-.5-2.9,7,7,0,0,0-1.83-2.26,10.91,10.91,0,0,0-2.9-1.77,29,29,0,0,0-4.24-1.48c-.63-.14-1.2-.28-1.69-.42a10.87,10.87,0,0,0-1.49-.5A9,9,0,0,1,51.35,11c-.35-.14-.56-.28-.77-.35s-.36-.29-.5-.36a1,1,0,0,0-.21-.28c-.07-.07-.07-.21-.14-.35v-.5a1.66,1.66,0,0,1,.28-1,2.57,2.57,0,0,1,.92-.77,5.52,5.52,0,0,1,1.76-.57,12.61,12.61,0,0,1,2.48-.21,17.28,17.28,0,0,1,2.68.21,23.53,23.53,0,0,1,2.54.71,13.43,13.43,0,0,1,2.12,1,10.17,10.17,0,0,1,1.7,1.27l.14.14H65.9l.07-.5,1.49-6.71.14-.49L67,2a9.51,9.51,0,0,0-2.19-.85A16.56,16.56,0,0,0,62.09.49a22.66,22.66,0,0,0-3-.42C58.06,0,56.93,0,55.87,0a23.5,23.5,0,0,0-6.14.64,14.26,14.26,0,0,0-4.81,2,9.67,9.67,0,0,0-3.1,3.25,8.55,8.55,0,0,0-1.06,4.24A7.21,7.21,0,0,0,41,11.94a5.73,5.73,0,0,0,.49,1.55c.22.35.57.85.85,1.27a8,8,0,0,0,1.13,1.13,9.49,9.49,0,0,0,1.41.92c.5.28,1.06.5,1.63.85l1.84.63c.63.22,1.34.43,2.11.64a5.64,5.64,0,0,1,1.7.5,6.74,6.74,0,0,1,1.41.42,6.31,6.31,0,0,1,1.06.42c.21.14.43.22.71.43a.65.65,0,0,1,.49.35c.14.07.21.07.21.21l.08.07v.21a.63.63,0,0,1,.14.43,2.54,2.54,0,0,1-.29,1.13,1.66,1.66,0,0,1-.91.77V24a11.15,11.15,0,0,1-1.7.63,14.87,14.87,0,0,1-2.68.21c-1,0-2-.21-3-.28A11.16,11.16,0,0,1,45,23.73a12.13,12.13,0,0,1-2.41-1.13,9.21,9.21,0,0,1-2-1.55l-.22-.14H38.71l-.07.42-1.56,7-.14.5.57.21a18.5,18.5,0,0,0,2.4.92,22.32,22.32,0,0,0,2.75.78c1,.21,2.05.35,3.18.49s2.4.14,3.61.14ZM96,7.7a9.62,9.62,0,0,1-.43,2.61A4.86,4.86,0,0,1,94.3,12.5a7.37,7.37,0,0,1-1.91,1.7l-1.27.63c.21.07.43.22.64.29a7.86,7.86,0,0,1,1.69,1.27,5.1,5.1,0,0,1,1.06,1.83,7.18,7.18,0,0,1,.28,2.27,9.67,9.67,0,0,1-.91,4.3,9.64,9.64,0,0,1-3,3.32A13.8,13.8,0,0,1,86,30.16a26.37,26.37,0,0,1-6.14.71H66.33l.21-.85L73.25,1l.14-.5H84.48a23.86,23.86,0,0,1,4.8.43,10.91,10.91,0,0,1,3.54,1.34,5.73,5.73,0,0,1,2.33,2.33A6.66,6.66,0,0,1,96,7.7ZM86.74,8.9c0-.35-.14-.57-.14-.78-.21-.21-.28-.42-.64-.56a2.38,2.38,0,0,0-.91-.36,9.8,9.8,0,0,0-1.49-.14H80.67l-1.13,5h2.61a6.05,6.05,0,0,0,2-.28,3.67,3.67,0,0,0,1.48-.64,1.64,1.64,0,0,0,.71-.85,2.94,2.94,0,0,0,.35-1.34Zm-.85,11.8a4.56,4.56,0,0,0-.21-1.13.94.94,0,0,0-.63-.64,10,10,0,0,0-1.42-.56c-.56,0-1.27-.08-2.12-.08H78.12l-1.41,6h3A11.44,11.44,0,0,0,82.5,24a4.83,4.83,0,0,0,1.91-.71,2.72,2.72,0,0,0,1.13-1.06,3.3,3.3,0,0,0,.35-1.48Zm40.41-1.27h0a23.9,23.9,0,0,1-1.91,5.36,12.6,12.6,0,0,1-3.11,3.75,12.19,12.19,0,0,1-4.38,2.19,24.38,24.38,0,0,1-5.86.7,23.49,23.49,0,0,1-5.23-.56A11,11,0,0,1,102,29.24a7.43,7.43,0,0,1-2.47-2.89,9.34,9.34,0,0,1-.78-3.82c0-.35.07-.7.07-1V20.7a2.23,2.23,0,0,0,.21-.92,1.63,1.63,0,0,1,.21-.78l4.1-18,.14-.5h8.9l-.21.78L108,19.35a.87.87,0,0,1-.14.5c0,.21-.07.42-.07.64v1a2.89,2.89,0,0,0,.21,1.35,1.57,1.57,0,0,0,.57.91,5.45,5.45,0,0,0,1.2.64,8.74,8.74,0,0,0,2,.21,6,6,0,0,0,2.05-.42,4.44,4.44,0,0,0,2.75-2.4,10.27,10.27,0,0,0,.85-2.33L121.64,1l.21-.5h8.9L126.3,19.43Zm35.88-6.93a13.23,13.23,0,0,0-.28-3,9.7,9.7,0,0,0-1-2.62,8.81,8.81,0,0,0-1.48-2.19A11.81,11.81,0,0,0,157.52,3a9.92,9.92,0,0,0-2-1.06,16.3,16.3,0,0,0-2.33-.78A18.13,18.13,0,0,0,150.1.64a30.06,30.06,0,0,0-3.81-.15h-10V1l-6.78,29-.21.85h11.37c1.27,0,2.4-.07,3.46-.14a29.94,29.94,0,0,0,3-.36,13.39,13.39,0,0,0,2.75-.7,14.81,14.81,0,0,0,2.62-1.13,18.94,18.94,0,0,0,3.81-2.76,22,22,0,0,0,3-3.81,20.48,20.48,0,0,0,2-4.52,16.92,16.92,0,0,0,.7-4.95Zm-9.18.64a11.67,11.67,0,0,1-.35,3.18,11,11,0,0,1-1.06,2.82,10,10,0,0,1-1.77,2.4,9.73,9.73,0,0,1-2.33,1.7c-.28.07-.57.21-.85.28a4.12,4.12,0,0,1-.85.35,1.61,1.61,0,0,0-.77.22c-.36,0-.64.07-1,.07h-.85a3.33,3.33,0,0,1-1.2.14h-2.19l4-17.24h2.82a3.78,3.78,0,0,0,.92.07c.28.07.56.07.85.15a2.49,2.49,0,0,1,.7.14l.64.21c.21.14.42.21.63.35a5.5,5.5,0,0,1,1.21.92,4.32,4.32,0,0,1,.84,1.13,7.57,7.57,0,0,1,.5,1.41A12.85,12.85,0,0,1,153,13.14Z" transform="translate(0 0)"/><path class="cls-1" d="M165.57,4.1a2.86,2.86,0,1,1,5.72,0,2.86,2.86,0,1,1-5.72,0Zm2.83,3.53A3.51,3.51,0,0,0,172,4.1a3.57,3.57,0,0,0-7.13,0,3.49,3.49,0,0,0,3.53,3.53Zm-.71-3.25h.71l1.06,1.77h.7L169,4.31c.57-.07,1.06-.35,1.06-1.06s-.49-1.2-1.48-1.2h-1.55v4.1h.63V4.38Zm0-.57h.71c.56,0,1,0,1-.63s-.43-.57-.85-.57h-.85Z" transform="translate(0 0)"/></svg>